<svg xmlns="http://www.w3.org/2000/svg" width="300" height="300" viewBox="0 0 300 300">
<path d="M 152.05 113.76 L 151.80 112.41 C 151.66 111.61 150.88 111.07 150.08 111.22 C 149.27 111.37 148.74 112.14 148.88 112.95 L 149.13 114.30 C 149.28 115.10 150.05 115.64 150.86 115.49 C 151.66 115.34 152.20 114.57 152.05 113.76 Z M 151.88 112.56 L 151.81 111.75 C 151.75 110.90 151.01 110.27 150.16 110.33 C 149.32 110.39 148.68 111.13 148.75 111.98 L 148.81 112.80 C 148.88 113.64 149.61 114.28 150.46 114.21 C 151.31 114.15 151.94 113.41 151.88 112.56 Z M 149.63 113.30 L 149.85 113.40 C 150.64 113.76 151.57 113.41 151.93 112.62 C 152.30 111.82 151.95 110.89 151.15 110.53 L 150.94 110.43 C 150.14 110.07 149.21 110.42 148.85 111.21 C 148.49 112.00 148.83 112.94 149.63 113.30 Z M 149.09 112.72 L 149.48 113.44 C 149.90 114.22 150.87 114.51 151.64 114.09 C 152.42 113.67 152.71 112.71 152.29 111.93 L 151.91 111.21 C 151.49 110.43 150.52 110.14 149.74 110.56 C 148.97 110.97 148.68 111.94 149.09 112.72 Z M 149.40 113.30 L 149.88 114.45 C 150.22 115.28 151.16 115.67 151.98 115.33 C 152.80 114.99 153.19 114.05 152.85 113.23 L 152.37 112.07 C 152.03 111.25 151.09 110.86 150.27 111.20 C 149.45 111.54 149.06 112.48 149.40 113.30 Z M 149.83 114.36 L 150.25 115.58 C 150.53 116.42 151.45 116.88 152.30 116.59 C 153.14 116.31 153.60 115.39 153.31 114.54 L 152.90 113.32 C 152.61 112.48 151.69 112.02 150.85 112.31 C 150.00 112.60 149.55 113.51 149.83 114.36 Z M 150.22 115.51 L 150.50 116.48 C 150.74 117.34 151.64 117.83 152.50 117.59 C 153.36 117.34 153.86 116.44 153.62 115.58 L 153.34 114.61 C 153.09 113.75 152.19 113.26 151.33 113.50 C 150.47 113.75 149.97 114.65 150.22 115.51 Z M 150.48 116.43 L 150.74 117.43 C 150.96 118.29 151.84 118.82 152.71 118.60 C 153.58 118.38 154.10 117.50 153.88 116.63 L 153.63 115.63 C 153.41 114.76 152.53 114.24 151.66 114.46 C 150.79 114.68 150.26 115.56 150.48 116.43 Z M 150.73 117.39 L 150.96 118.39 C 151.16 119.26 152.03 119.81 152.90 119.61 C 153.78 119.40 154.32 118.53 154.12 117.66 L 153.89 116.66 C 153.69 115.79 152.82 115.24 151.94 115.44 C 151.07 115.64 150.52 116.52 150.73 117.39 Z M 150.95 118.36 L 151.16 119.33 C 151.35 120.21 152.21 120.77 153.09 120.58 C 153.97 120.39 154.53 119.53 154.34 118.65 L 154.13 117.68 C 153.94 116.80 153.08 116.24 152.20 116.43 C 151.32 116.62 150.76 117.49 150.95 118.36 Z M 151.15 119.32 L 151.35 120.29 C 151.53 121.17 152.39 121.74 153.27 121.56 C 154.15 121.38 154.72 120.52 154.54 119.64 L 154.34 118.66 C 154.16 117.78 153.30 117.22 152.42 117.40 C 151.54 117.58 150.97 118.44 151.15 119.32 Z M 151.35 120.28 L 151.55 121.32 C 151.73 122.21 152.58 122.78 153.46 122.61 C 154.35 122.44 154.92 121.58 154.75 120.70 L 154.54 119.65 C 154.37 118.77 153.52 118.19 152.63 118.37 C 151.75 118.54 151.18 119.40 151.35 120.28 Z M 151.55 121.30 L 151.73 122.27 C 151.89 123.16 152.74 123.75 153.62 123.58 C 154.51 123.42 155.09 122.57 154.93 121.69 L 154.75 120.72 C 154.59 119.83 153.74 119.25 152.86 119.41 C 151.97 119.57 151.39 120.42 151.55 121.30 Z M 151.72 122.25 L 151.88 123.18 C 152.02 124.07 152.86 124.67 153.75 124.53 C 154.63 124.38 155.24 123.54 155.09 122.66 L 154.94 121.72 C 154.79 120.83 153.95 120.23 153.06 120.38 C 152.18 120.52 151.57 121.36 151.72 122.25 Z M 151.87 123.15 L 152.01 124.09 C 152.13 124.98 152.96 125.60 153.85 125.47 C 154.74 125.34 155.36 124.52 155.23 123.63 L 155.09 122.69 C 154.97 121.80 154.14 121.18 153.25 121.31 C 152.36 121.44 151.74 122.26 151.87 123.15 Z M 152.00 124.06 L 152.12 125.02 C 152.23 125.91 153.04 126.54 153.94 126.43 C 154.83 126.32 155.46 125.51 155.35 124.61 L 155.23 123.66 C 155.12 122.76 154.31 122.13 153.42 122.24 C 152.52 122.35 151.89 123.17 152.00 124.06 Z M 152.12 124.99 L 152.23 125.98 C 152.32 126.87 153.13 127.52 154.02 127.42 C 154.91 127.32 155.56 126.52 155.46 125.63 L 155.35 124.64 C 155.26 123.74 154.45 123.10 153.56 123.20 C 152.67 123.29 152.02 124.10 152.12 124.99 Z M 152.22 125.96 L 152.32 126.98 C 152.41 127.87 153.21 128.52 154.10 128.43 C 155.00 128.35 155.65 127.55 155.56 126.65 L 155.46 125.64 C 155.37 124.75 154.58 124.09 153.68 124.18 C 152.79 124.27 152.14 125.07 152.22 125.96 Z M 152.32 126.97 L 152.42 127.99 C 152.50 128.89 153.30 129.55 154.19 129.46 C 155.09 129.38 155.74 128.59 155.66 127.69 L 155.56 126.66 C 155.48 125.77 154.69 125.11 153.79 125.20 C 152.90 125.28 152.24 126.07 152.32 126.97 Z M 152.42 127.99 L 152.51 128.96 C 152.59 129.86 153.38 130.52 154.28 130.44 C 155.17 130.36 155.83 129.56 155.75 128.67 L 155.66 127.70 C 155.58 126.80 154.79 126.14 153.89 126.22 C 153.00 126.30 152.34 127.10 152.42 127.99 Z M 152.51 128.96 L 152.60 129.95 C 152.67 130.84 153.46 131.51 154.36 131.43 C 155.25 131.35 155.91 130.56 155.84 129.67 L 155.75 128.68 C 155.67 127.78 154.88 127.12 153.99 127.20 C 153.09 127.28 152.43 128.06 152.51 128.96 Z M 152.60 129.94 L 152.68 130.95 C 152.75 131.84 153.54 132.51 154.43 132.43 C 155.33 132.36 155.99 131.57 155.92 130.68 L 155.84 129.67 C 155.76 128.78 154.98 128.11 154.08 128.19 C 153.19 128.26 152.52 129.05 152.60 129.94 Z M 152.68 130.94 L 152.76 131.95 C 152.83 132.85 153.61 133.52 154.50 133.45 C 155.40 133.38 156.07 132.59 156.00 131.70 L 155.92 130.68 C 155.85 129.79 155.07 129.12 154.17 129.19 C 153.28 129.26 152.61 130.04 152.68 130.94 Z M 152.76 131.94 L 152.83 132.93 C 152.89 133.83 153.67 134.50 154.56 134.44 C 155.46 134.37 156.13 133.59 156.07 132.70 L 156.00 131.71 C 155.94 130.81 155.16 130.14 154.26 130.20 C 153.37 130.27 152.69 131.05 152.76 131.94 Z M 152.83 132.92 L 152.89 133.90 C 152.95 134.80 153.72 135.47 154.62 135.42 C 155.52 135.36 156.19 134.58 156.14 133.69 L 156.07 132.71 C 156.01 131.81 155.24 131.13 154.34 131.19 C 153.45 131.25 152.77 132.02 152.83 132.92 Z M 152.89 133.89 L 152.95 134.88 C 153.01 135.78 153.78 136.46 154.67 136.41 C 155.57 136.35 156.25 135.58 156.20 134.69 L 156.14 133.69 C 156.08 132.80 155.31 132.12 154.41 132.17 C 153.52 132.23 152.84 133.00 152.89 133.89 Z M 152.95 134.88 L 153.01 135.89 C 153.06 136.78 153.83 137.47 154.72 137.42 C 155.62 137.36 156.31 136.60 156.25 135.70 L 156.20 134.69 C 156.14 133.80 155.38 133.11 154.48 133.16 C 153.58 133.21 152.90 133.98 152.95 134.88 Z M 153.01 135.88 L 153.06 136.91 C 153.11 137.81 153.88 138.49 154.78 138.44 C 155.67 138.40 156.36 137.63 156.31 136.73 L 156.25 135.70 C 156.21 134.81 155.44 134.12 154.54 134.17 C 153.65 134.22 152.96 134.99 153.01 135.88 Z M 153.06 136.91 L 153.12 137.87 C 153.16 138.77 153.93 139.46 154.83 139.41 C 155.72 139.36 156.41 138.60 156.36 137.70 L 156.31 136.73 C 156.26 135.84 155.50 135.15 154.60 135.20 C 153.70 135.25 153.02 136.01 153.06 136.91 Z M 153.12 137.87 L 153.17 138.85 C 153.21 139.75 153.98 140.44 154.87 140.39 C 155.77 140.34 156.46 139.58 156.41 138.68 L 156.36 137.70 C 156.32 136.81 155.55 136.12 154.66 136.16 C 153.76 136.21 153.07 136.97 153.12 137.87 Z M 153.17 138.84 L 153.22 139.84 C 153.26 140.74 154.02 141.43 154.92 141.39 C 155.81 141.34 156.50 140.58 156.46 139.68 L 156.41 138.69 C 156.37 137.79 155.61 137.10 154.71 137.14 C 153.81 137.19 153.12 137.95 153.17 138.84 Z M 153.22 139.84 L 153.26 140.85 C 153.30 141.75 154.06 142.44 154.96 142.40 C 155.85 142.36 156.55 141.60 156.51 140.71 L 156.46 139.69 C 156.42 138.79 155.66 138.10 154.77 138.14 C 153.87 138.18 153.18 138.94 153.22 139.84 Z M 153.26 140.84 L 153.30 141.88 C 153.34 142.77 154.10 143.47 154.99 143.43 C 155.89 143.40 156.59 142.64 156.55 141.74 L 156.51 140.71 C 156.47 139.82 155.71 139.12 154.82 139.16 C 153.92 139.19 153.22 139.95 153.26 140.84 Z M 153.30 141.87 L 153.34 142.88 C 153.37 143.77 154.12 144.47 155.02 144.44 C 155.92 144.41 156.62 143.66 156.58 142.76 L 156.55 141.75 C 156.52 140.86 155.76 140.16 154.87 140.19 C 153.97 140.22 153.27 140.97 153.30 141.87 Z M 153.34 142.87 L 153.37 143.88 C 153.40 144.77 154.15 145.48 155.04 145.45 C 155.94 145.42 156.64 144.67 156.62 143.77 L 156.58 142.77 C 156.56 141.87 155.81 141.17 154.91 141.20 C 154.01 141.22 153.31 141.97 153.34 142.87 Z M 153.37 143.87 L 153.40 144.88 C 153.43 145.78 154.17 146.48 155.07 146.46 C 155.96 146.43 156.67 145.68 156.64 144.79 L 156.62 143.78 C 156.59 142.88 155.84 142.18 154.95 142.20 C 154.05 142.23 153.35 142.98 153.37 143.87 Z M 153.40 144.88 L 153.43 145.88 C 153.45 146.78 154.20 147.48 155.09 147.46 C 155.99 147.44 156.69 146.69 156.67 145.79 L 156.64 144.79 C 156.62 143.90 155.87 143.19 154.98 143.21 C 154.08 143.24 153.38 143.98 153.40 144.88 Z M 153.43 145.88 L 153.45 146.87 C 153.47 147.76 154.22 148.47 155.11 148.45 C 156.01 148.43 156.72 147.68 156.69 146.79 L 156.67 145.80 C 156.65 144.90 155.90 144.19 155.01 144.22 C 154.11 144.24 153.40 144.98 153.43 145.88 Z M 153.45 146.87 L 153.48 147.88 C 153.50 148.77 154.24 149.48 155.14 149.46 C 156.03 149.43 156.74 148.69 156.72 147.79 L 156.69 146.79 C 156.67 145.89 155.93 145.19 155.03 145.21 C 154.14 145.23 153.43 145.97 153.45 146.87 Z M 153.48 147.88 L 153.51 148.91 C 153.53 149.80 154.27 150.51 155.17 150.48 C 156.06 150.46 156.77 149.72 156.74 148.82 L 156.72 147.79 C 156.70 146.90 155.95 146.19 155.06 146.22 C 154.16 146.24 153.46 146.98 153.48 147.88 Z M 153.51 148.90 L 153.53 149.91 C 153.55 150.81 154.30 151.51 155.19 151.49 C 156.08 151.47 156.79 150.73 156.77 149.83 L 156.74 148.83 C 156.72 147.93 155.98 147.23 155.09 147.25 C 154.19 147.27 153.49 148.01 153.51 148.90 Z M 153.53 149.91 L 153.56 150.90 C 153.58 151.79 154.31 152.50 155.21 152.48 C 156.10 152.46 156.81 151.72 156.79 150.83 L 156.77 149.84 C 156.75 148.94 156.01 148.24 155.11 148.26 C 154.22 148.28 153.51 149.02 153.53 149.91 Z M 153.56 150.89 L 153.57 151.86 C 153.59 152.76 154.33 153.47 155.22 153.45 C 156.11 153.43 156.82 152.70 156.80 151.80 L 156.79 150.83 C 156.77 149.94 156.03 149.23 155.14 149.25 C 154.25 149.26 153.54 150.00 153.56 150.89 Z M 153.58 151.86 L 153.59 152.85 C 153.60 153.74 154.34 154.45 155.23 154.44 C 156.12 154.43 156.83 153.70 156.82 152.81 L 156.80 151.81 C 156.79 150.92 156.06 150.21 155.17 150.22 C 154.28 150.23 153.56 150.97 153.58 151.86 Z M 153.59 152.84 L 153.60 153.86 C 153.61 154.75 154.34 155.47 155.23 155.46 C 156.12 155.45 156.83 154.72 156.82 153.83 L 156.81 152.81 C 156.81 151.92 156.08 151.21 155.19 151.22 C 154.30 151.23 153.59 151.95 153.59 152.84 Z M 153.60 153.86 L 153.61 154.86 C 153.61 155.75 154.34 156.47 155.23 156.46 C 156.11 156.46 156.83 155.74 156.83 154.85 L 156.82 153.84 C 156.82 152.95 156.09 152.24 155.21 152.24 C 154.32 152.24 153.60 152.97 153.60 153.86 Z M 153.61 154.86 L 153.61 155.85 C 153.62 156.74 154.34 157.45 155.22 157.45 C 156.11 157.45 156.83 156.73 156.83 155.84 L 156.82 154.85 C 156.82 153.97 156.10 153.25 155.21 153.25 C 154.33 153.25 153.61 153.97 153.61 154.86 Z M 153.62 155.85 L 153.62 156.82 C 153.62 157.70 154.34 158.42 155.22 158.42 C 156.11 158.42 156.82 157.70 156.82 156.82 L 156.82 155.85 C 156.82 154.96 156.10 154.24 155.22 154.24 C 154.33 154.24 153.62 154.96 153.62 155.85 Z M 153.62 156.82 L 153.62 157.85 C 153.62 158.73 154.34 159.45 155.22 159.45 C 156.10 159.45 156.82 158.73 156.82 157.85 L 156.82 156.82 C 156.82 155.94 156.10 155.22 155.22 155.22 C 154.34 155.22 153.62 155.94 153.62 156.82 Z M 153.62 157.85 L 153.62 158.87 C 153.62 159.75 154.34 160.47 155.22 160.47 C 156.10 160.47 156.82 159.75 156.82 158.87 L 156.82 157.85 C 156.82 156.97 156.10 156.25 155.22 156.25 C 154.34 156.25 153.62 156.97 153.62 157.85 Z M 153.63 158.87 L 153.63 159.87 C 153.63 160.74 154.34 161.46 155.22 161.46 C 156.10 161.46 156.81 160.74 156.81 159.87 L 156.81 158.87 C 156.81 157.99 156.10 157.28 155.22 157.28 C 154.34 157.28 153.63 157.99 153.63 158.87 Z M 153.63 159.87 L 153.63 160.83 C 153.63 161.71 154.34 162.42 155.22 162.42 C 156.10 162.42 156.81 161.71 156.81 160.83 L 156.81 159.87 C 156.81 158.99 156.10 158.28 155.22 158.28 C 154.34 158.28 153.63 158.99 153.63 159.87 Z M 153.64 160.83 L 153.64 161.85 C 153.64 162.73 154.35 163.43 155.22 163.43 C 156.09 163.43 156.80 162.73 156.80 161.85 L 156.80 160.83 C 156.80 159.96 156.09 159.25 155.22 159.25 C 154.35 159.25 153.64 159.96 153.64 160.83 Z M 153.64 161.85 L 153.64 162.88 C 153.64 163.75 154.35 164.46 155.22 164.46 C 156.09 164.46 156.80 163.75 156.80 162.88 L 156.80 161.85 C 156.80 160.98 156.09 160.27 155.22 160.27 C 154.35 160.27 153.64 160.98 153.64 161.85 Z M 153.65 162.88 L 153.65 163.87 C 153.65 164.74 154.35 165.44 155.22 165.44 C 156.09 165.44 156.79 164.74 156.79 163.87 L 156.79 162.88 C 156.79 162.01 156.09 161.31 155.22 161.31 C 154.35 161.31 153.65 162.01 153.65 162.88 Z M 153.65 163.87 L 153.65 164.82 C 153.65 165.68 154.36 166.38 155.22 166.38 C 156.08 166.38 156.79 165.68 156.79 164.82 L 156.79 163.87 C 156.79 163.00 156.08 162.30 155.22 162.30 C 154.36 162.30 153.65 163.00 153.65 163.87 Z M 153.66 164.82 L 153.66 165.84 C 153.66 166.70 154.36 167.40 155.22 167.40 C 156.08 167.40 156.78 166.70 156.78 165.84 L 156.78 164.82 C 156.78 163.96 156.08 163.26 155.22 163.26 C 154.36 163.26 153.66 163.96 153.66 164.82 Z M 153.67 165.85 L 153.67 166.84 C 153.68 167.70 154.37 168.39 155.23 168.39 C 156.09 168.38 156.78 167.69 156.78 166.83 L 156.77 165.83 C 156.77 164.98 156.07 164.28 155.21 164.29 C 154.36 164.29 153.67 164.99 153.67 165.85 Z M 153.68 166.85 L 153.69 167.84 C 153.70 168.69 154.40 169.37 155.25 169.36 C 156.11 169.35 156.79 168.65 156.78 167.80 L 156.77 166.82 C 156.76 165.96 156.06 165.28 155.21 165.29 C 154.35 165.30 153.67 166.00 153.68 166.85 Z M 153.70 167.85 L 153.72 168.81 C 153.74 169.66 154.44 170.33 155.29 170.31 C 156.14 170.29 156.81 169.59 156.79 168.74 L 156.77 167.78 C 156.75 166.93 156.05 166.26 155.20 166.28 C 154.35 166.30 153.68 167.01 153.70 167.85 Z M 153.73 168.85 L 153.78 169.81 C 153.82 170.65 154.54 171.30 155.38 171.26 C 156.22 171.22 156.87 170.50 156.83 169.66 L 156.79 168.70 C 156.74 167.85 156.03 167.20 155.18 167.25 C 154.34 167.29 153.69 168.00 153.73 168.85 Z M 153.79 169.88 L 153.88 170.88 C 153.96 171.72 154.71 172.33 155.54 172.26 C 156.38 172.18 156.99 171.44 156.91 170.60 L 156.82 169.59 C 156.74 168.75 156.00 168.14 155.16 168.22 C 154.33 168.30 153.71 169.04 153.79 169.88 Z M 153.90 170.97 L 154.06 172.01 C 154.18 172.83 154.95 173.40 155.78 173.28 C 156.61 173.15 157.18 172.38 157.06 171.55 L 156.90 170.51 C 156.77 169.69 156.00 169.11 155.17 169.24 C 154.34 169.37 153.77 170.14 153.90 170.97 Z M 154.06 172.08 L 154.25 173.01 C 154.42 173.84 155.22 174.37 156.05 174.20 C 156.88 174.03 157.41 173.23 157.24 172.40 L 157.05 171.47 C 156.89 170.65 156.08 170.11 155.25 170.28 C 154.42 170.45 153.89 171.26 154.06 172.08 Z M 154.23 173.06 L 154.46 174.03 C 154.66 174.86 155.50 175.38 156.33 175.18 C 157.17 174.98 157.68 174.14 157.48 173.31 L 157.26 172.34 C 157.06 171.51 156.22 171.00 155.39 171.19 C 154.55 171.39 154.04 172.23 154.23 173.06 Z M 154.45 174.07 L 154.71 175.06 C 154.93 175.90 155.79 176.41 156.63 176.19 C 157.47 175.97 157.98 175.11 157.76 174.27 L 157.50 173.27 C 157.28 172.43 156.42 171.93 155.58 172.14 C 154.74 172.36 154.23 173.22 154.45 174.07 Z M 154.69 175.08 L 154.96 176.09 C 155.19 176.94 156.07 177.45 156.92 177.22 C 157.78 176.99 158.28 176.11 158.05 175.26 L 157.78 174.25 C 157.55 173.39 156.67 172.89 155.81 173.12 C 154.96 173.35 154.46 174.23 154.69 175.08 Z M 154.95 176.10 L 154.99 176.23 C 155.22 177.09 156.11 177.60 156.97 177.37 C 157.83 177.13 158.33 176.24 158.10 175.38 L 158.06 175.25 C 157.83 174.39 156.94 173.88 156.08 174.12 C 155.22 174.35 154.71 175.24 154.95 176.10 Z"
      fill="black"
      fill-rule="nonzero" /><path d="M 119.60 142.29 L 118.47 142.12 C 117.64 141.99 116.86 142.56 116.73 143.39 C 116.61 144.22 117.18 145.00 118.01 145.12 L 119.14 145.30 C 119.97 145.43 120.74 144.86 120.87 144.03 C 121.00 143.20 120.43 142.42 119.60 142.29 Z M 118.34 142.08 L 117.30 142.01 C 116.45 141.95 115.71 142.59 115.66 143.44 C 115.60 144.29 116.24 145.03 117.09 145.09 L 118.13 145.16 C 118.98 145.22 119.72 144.58 119.77 143.73 C 119.83 142.88 119.19 142.14 118.34 142.08 Z M 116.96 142.01 L 116.09 142.14 C 115.24 142.27 114.65 143.06 114.78 143.91 C 114.91 144.76 115.70 145.35 116.55 145.22 L 117.42 145.09 C 118.28 144.96 118.86 144.17 118.73 143.32 C 118.61 142.47 117.81 141.88 116.96 142.01 Z M 115.41 142.39 L 114.78 142.84 C 114.07 143.34 113.90 144.32 114.40 145.03 C 114.90 145.74 115.89 145.91 116.60 145.41 L 117.23 144.97 C 117.94 144.46 118.11 143.48 117.61 142.77 C 117.10 142.06 116.12 141.89 115.41 142.39 Z M 114.26 143.45 L 113.89 144.23 C 113.51 145.02 113.85 145.97 114.64 146.34 C 115.43 146.72 116.37 146.38 116.75 145.59 L 117.12 144.80 C 117.50 144.01 117.16 143.07 116.37 142.69 C 115.58 142.32 114.63 142.65 114.26 143.45 Z M 113.75 144.63 L 113.57 145.67 C 113.42 146.54 113.99 147.36 114.86 147.52 C 115.73 147.67 116.55 147.09 116.70 146.22 L 116.89 145.18 C 117.04 144.32 116.46 143.49 115.59 143.34 C 114.73 143.19 113.90 143.77 113.75 144.63 Z M 113.54 145.84 L 113.46 147.00 C 113.41 147.88 114.07 148.64 114.96 148.70 C 115.84 148.76 116.60 148.09 116.66 147.21 L 116.73 146.05 C 116.79 145.17 116.12 144.41 115.24 144.35 C 114.36 144.29 113.60 144.96 113.54 145.84 Z M 113.46 147.05 L 113.42 148.06 C 113.39 148.94 114.09 149.69 114.97 149.72 C 115.86 149.74 116.60 149.05 116.63 148.16 L 116.66 147.15 C 116.69 146.27 116.00 145.53 115.11 145.50 C 114.23 145.47 113.49 146.16 113.46 147.05 Z M 113.42 148.08 L 113.40 149.11 C 113.38 150.00 114.09 150.73 114.98 150.75 C 115.87 150.77 116.60 150.06 116.62 149.17 L 116.64 148.14 C 116.65 147.25 115.95 146.52 115.06 146.50 C 114.17 146.49 113.44 147.19 113.42 148.08 Z M 113.40 149.12 L 113.38 150.13 C 113.37 151.02 114.08 151.75 114.97 151.77 C 115.87 151.78 116.60 151.06 116.61 150.17 L 116.62 149.16 C 116.63 148.27 115.92 147.54 115.03 147.53 C 114.14 147.52 113.41 148.23 113.40 149.12 Z M 113.38 150.13 L 113.37 151.09 C 113.35 151.98 114.07 152.72 114.96 152.73 C 115.85 152.74 116.59 152.03 116.60 151.13 L 116.61 150.17 C 116.62 149.28 115.91 148.55 115.02 148.54 C 114.12 148.52 113.39 149.24 113.38 150.13 Z M 113.36 151.08 L 113.34 152.16 C 113.32 153.06 114.03 153.80 114.92 153.82 C 115.82 153.84 116.56 153.13 116.58 152.23 L 116.60 151.15 C 116.62 150.25 115.91 149.51 115.02 149.49 C 114.12 149.47 113.38 150.18 113.36 151.08 Z M 113.34 152.14 L 113.31 153.14 C 113.28 154.04 113.98 154.79 114.87 154.82 C 115.77 154.84 116.52 154.14 116.55 153.25 L 116.58 152.25 C 116.61 151.36 115.91 150.61 115.01 150.58 C 114.12 150.55 113.37 151.25 113.34 152.14 Z M 113.30 153.13 L 113.27 154.07 C 113.23 154.97 113.93 155.72 114.82 155.76 C 115.72 155.79 116.47 155.10 116.51 154.20 L 116.55 153.26 C 116.58 152.36 115.89 151.61 114.99 151.57 C 114.09 151.54 113.34 152.23 113.30 153.13 Z M 113.26 154.07 L 113.22 155.02 C 113.19 155.91 113.88 156.67 114.78 156.71 C 115.68 156.75 116.43 156.05 116.47 155.15 L 116.51 154.20 C 116.55 153.31 115.85 152.55 114.96 152.51 C 114.06 152.47 113.30 153.17 113.26 154.07 Z M 113.22 155.02 L 113.18 156.00 C 113.14 156.90 113.84 157.66 114.74 157.69 C 115.64 157.73 116.39 157.03 116.43 156.14 L 116.47 155.15 C 116.51 154.26 115.81 153.50 114.92 153.46 C 114.02 153.42 113.26 154.12 113.22 155.02 Z M 113.18 156.00 L 113.14 157.01 C 113.10 157.91 113.80 158.67 114.70 158.70 C 115.60 158.74 116.36 158.04 116.39 157.14 L 116.43 156.13 C 116.47 155.24 115.77 154.48 114.87 154.44 C 113.97 154.40 113.22 155.10 113.18 156.00 Z M 113.14 157.01 L 113.10 158.02 C 113.06 158.92 113.76 159.68 114.66 159.72 C 115.56 159.75 116.32 159.05 116.36 158.15 L 116.39 157.14 C 116.43 156.24 115.73 155.48 114.83 155.45 C 113.93 155.41 113.17 156.11 113.14 157.01 Z M 113.09 158.02 L 113.06 159.00 C 113.02 159.91 113.72 160.66 114.63 160.70 C 115.53 160.73 116.28 160.03 116.32 159.13 L 116.36 158.15 C 116.39 157.25 115.69 156.49 114.79 156.46 C 113.89 156.42 113.13 157.12 113.09 158.02 Z M 113.06 159.01 L 113.02 160.01 C 112.98 160.91 113.69 161.67 114.59 161.70 C 115.49 161.74 116.25 161.03 116.28 160.13 L 116.32 159.13 C 116.35 158.23 115.65 157.47 114.75 157.43 C 113.85 157.40 113.09 158.10 113.06 159.01 Z M 113.02 160.01 L 112.98 161.03 C 112.95 161.94 113.65 162.69 114.55 162.73 C 115.46 162.76 116.21 162.06 116.25 161.15 L 116.29 160.13 C 116.32 159.23 115.61 158.47 114.71 158.44 C 113.81 158.40 113.05 159.11 113.02 160.01 Z M 112.98 161.03 L 112.94 162.03 C 112.91 162.93 113.61 163.69 114.52 163.73 C 115.42 163.76 116.18 163.05 116.21 162.15 L 116.25 161.15 C 116.28 160.25 115.58 159.49 114.67 159.46 C 113.77 159.42 113.01 160.13 112.98 161.03 Z M 112.94 162.03 L 112.90 163.03 C 112.87 163.93 113.58 164.69 114.48 164.73 C 115.39 164.76 116.15 164.05 116.18 163.15 L 116.21 162.15 C 116.25 161.24 115.54 160.48 114.64 160.45 C 113.73 160.42 112.97 161.13 112.94 162.03 Z M 112.90 163.03 L 112.87 164.03 C 112.83 164.94 113.54 165.70 114.45 165.73 C 115.35 165.76 116.11 165.06 116.14 164.15 L 116.18 163.15 C 116.21 162.24 115.51 161.48 114.60 161.45 C 113.69 161.42 112.93 162.12 112.90 163.03 Z M 112.86 164.03 L 112.83 165.04 C 112.80 165.94 113.50 166.70 114.41 166.74 C 115.32 166.77 116.08 166.06 116.11 165.15 L 116.15 164.15 C 116.18 163.24 115.47 162.48 114.56 162.45 C 113.66 162.42 112.90 163.13 112.86 164.03 Z M 112.83 165.04 L 112.79 166.04 C 112.76 166.94 113.47 167.70 114.37 167.74 C 115.28 167.77 116.04 167.06 116.08 166.15 L 116.11 165.15 C 116.14 164.25 115.43 163.49 114.53 163.45 C 113.62 163.42 112.86 164.13 112.83 165.04 Z M 112.79 166.04 L 112.76 167.04 C 112.72 167.94 113.43 168.70 114.34 168.74 C 115.25 168.77 116.01 168.06 116.04 167.15 L 116.08 166.15 C 116.11 165.25 115.40 164.48 114.49 164.45 C 113.58 164.42 112.82 165.13 112.79 166.04 Z M 112.75 167.04 L 112.72 168.03 C 112.69 168.94 113.40 169.70 114.30 169.74 C 115.21 169.77 115.97 169.06 116.01 168.15 L 116.04 167.15 C 116.07 166.24 115.36 165.48 114.46 165.45 C 113.55 165.42 112.79 166.13 112.75 167.04 Z M 112.72 168.03 L 112.68 169.03 C 112.65 169.94 113.36 170.70 114.27 170.73 C 115.18 170.77 115.94 170.06 115.97 169.15 L 116.01 168.15 C 116.04 167.24 115.33 166.48 114.42 166.45 C 113.51 166.42 112.75 167.13 112.72 168.03 Z M 112.68 169.03 L 112.65 170.03 C 112.61 170.93 113.32 171.70 114.23 171.73 C 115.14 171.76 115.90 171.05 115.94 170.14 L 115.97 169.15 C 116.00 168.24 115.29 167.48 114.39 167.45 C 113.48 167.41 112.71 168.12 112.68 169.03 Z M 112.65 170.03 L 112.61 171.02 C 112.58 171.93 113.29 172.70 114.20 172.73 C 115.11 172.76 115.87 172.05 115.90 171.14 L 115.94 170.14 C 115.97 169.23 115.26 168.47 114.35 168.44 C 113.44 168.41 112.68 169.12 112.65 170.03 Z M 112.61 171.02 L 112.57 172.03 C 112.54 172.94 113.25 173.70 114.16 173.73 C 115.07 173.77 115.83 173.06 115.87 172.15 L 115.90 171.14 C 115.93 170.23 115.22 169.47 114.31 169.44 C 113.40 169.40 112.64 170.12 112.61 171.02 Z M 112.57 172.03 L 112.54 172.98 C 112.51 173.89 113.22 174.65 114.13 174.68 C 115.04 174.72 115.80 174.00 115.83 173.09 L 115.87 172.15 C 115.90 171.24 115.19 170.47 114.28 170.44 C 113.37 170.41 112.60 171.12 112.57 172.03 Z M 112.54 172.98 L 112.50 173.92 C 112.47 174.83 113.18 175.60 114.09 175.63 C 115.00 175.67 115.77 174.95 115.80 174.04 L 115.84 173.10 C 115.87 172.19 115.16 171.42 114.25 171.39 C 113.34 171.35 112.57 172.06 112.54 172.98 Z M 112.50 173.91 L 112.46 174.90 C 112.42 175.82 113.13 176.59 114.04 176.63 C 114.95 176.67 115.72 175.96 115.76 175.04 L 115.80 174.05 C 115.84 173.14 115.13 172.37 114.22 172.33 C 113.31 172.29 112.54 173.00 112.50 173.91 Z M 112.45 174.89 L 112.40 175.96 C 112.36 176.87 113.06 177.65 113.98 177.69 C 114.89 177.74 115.67 177.03 115.71 176.12 L 115.76 175.06 C 115.81 174.14 115.10 173.36 114.19 173.32 C 113.28 173.27 112.50 173.98 112.45 174.89 Z M 112.40 175.94 L 112.35 176.92 C 112.29 177.83 112.99 178.61 113.91 178.67 C 114.82 178.72 115.61 178.02 115.66 177.10 L 115.71 176.13 C 115.77 175.21 115.07 174.43 114.15 174.38 C 113.24 174.33 112.45 175.03 112.40 175.94 Z M 112.35 176.91 L 112.29 177.82 C 112.23 178.74 112.93 179.52 113.84 179.58 C 114.76 179.64 115.55 178.94 115.60 178.03 L 115.66 177.11 C 115.72 176.20 115.02 175.41 114.11 175.35 C 113.19 175.30 112.40 175.99 112.35 176.91 Z M 112.29 177.82 L 112.23 178.78 C 112.17 179.70 112.86 180.49 113.78 180.55 C 114.69 180.61 115.48 179.91 115.54 179.00 L 115.60 178.03 C 115.66 177.12 114.97 176.33 114.05 176.27 C 113.14 176.21 112.35 176.90 112.29 177.82 Z M 112.23 178.78 L 112.16 179.80 C 112.10 180.71 112.79 181.51 113.71 181.57 C 114.62 181.63 115.41 180.93 115.47 180.02 L 115.54 179.00 C 115.60 178.09 114.91 177.29 113.99 177.23 C 113.08 177.17 112.29 177.87 112.23 178.78 Z M 112.16 179.80 L 112.09 180.87 C 112.03 181.78 112.72 182.57 113.64 182.63 C 114.55 182.69 115.34 182.00 115.40 181.08 L 115.47 180.02 C 115.54 179.10 114.84 178.31 113.93 178.25 C 113.01 178.19 112.22 178.88 112.16 179.80 Z M 112.09 180.87 L 112.01 181.99 C 111.95 182.91 112.65 183.70 113.57 183.76 C 114.48 183.82 115.27 183.12 115.33 182.21 L 115.40 181.08 C 115.46 180.17 114.77 179.38 113.85 179.32 C 112.94 179.26 112.15 179.95 112.09 180.87 Z M 112.01 181.99 L 111.93 183.25 C 111.88 184.17 112.57 184.96 113.49 185.02 C 114.41 185.07 115.20 184.38 115.26 183.46 L 115.33 182.20 C 115.39 181.28 114.69 180.49 113.78 180.44 C 112.86 180.38 112.07 181.08 112.01 181.99 Z M 111.93 183.25 L 111.86 184.46 C 111.80 185.38 112.50 186.17 113.42 186.23 C 114.34 186.29 115.13 185.59 115.19 184.67 L 115.26 183.46 C 115.32 182.54 114.62 181.75 113.70 181.69 C 112.78 181.63 111.99 182.33 111.93 183.25 Z M 111.85 184.46 L 111.79 185.54 C 111.73 186.46 112.43 187.25 113.35 187.31 C 114.28 187.36 115.07 186.66 115.12 185.74 L 115.19 184.67 C 115.24 183.75 114.54 182.95 113.62 182.90 C 112.70 182.84 111.91 183.54 111.85 184.46 Z M 111.78 185.53 L 111.73 186.38 C 111.68 187.30 112.38 188.09 113.30 188.15 C 114.22 188.21 115.02 187.51 115.07 186.58 L 115.13 185.74 C 115.18 184.82 114.48 184.02 113.56 183.97 C 112.64 183.91 111.84 184.61 111.78 185.53 Z M 111.73 186.37 L 111.69 186.93 C 111.63 187.85 112.33 188.65 113.25 188.72 C 114.18 188.78 114.98 188.08 115.04 187.15 L 115.08 186.59 C 115.14 185.67 114.44 184.87 113.52 184.80 C 112.59 184.74 111.79 185.44 111.73 186.37 Z M 114.99 187.51 L 115.05 187.31 C 115.31 186.41 114.79 185.47 113.89 185.21 C 113.00 184.96 112.06 185.47 111.80 186.37 L 111.74 186.57 C 111.48 187.47 112.00 188.41 112.90 188.66 C 113.79 188.92 114.73 188.41 114.99 187.51 Z M 115.03 187.41 L 115.46 186.19 C 115.78 185.30 115.31 184.33 114.42 184.01 C 113.53 183.70 112.56 184.17 112.24 185.05 L 111.81 186.27 C 111.50 187.16 111.97 188.13 112.86 188.45 C 113.74 188.76 114.72 188.30 115.03 187.41 Z M 115.30 186.55 L 115.83 185.73 C 116.34 184.93 116.11 183.86 115.31 183.35 C 114.51 182.84 113.45 183.07 112.94 183.87 L 112.41 184.69 C 111.89 185.49 112.13 186.56 112.92 187.07 C 113.72 187.58 114.79 187.35 115.30 186.55 Z M 115.68 185.94 L 116.34 185.19 C 116.97 184.48 116.91 183.39 116.19 182.76 C 115.48 182.12 114.39 182.19 113.76 182.90 L 113.09 183.65 C 112.46 184.37 112.53 185.46 113.24 186.09 C 113.95 186.72 115.04 186.66 115.68 185.94 Z M 116.23 185.32 L 116.98 184.62 C 117.68 183.97 117.73 182.87 117.07 182.17 C 116.42 181.47 115.33 181.43 114.63 182.08 L 113.87 182.78 C 113.17 183.43 113.13 184.52 113.78 185.22 C 114.43 185.93 115.53 185.97 116.23 185.32 Z M 116.90 184.69 L 117.69 184.05 C 118.44 183.44 118.55 182.34 117.94 181.60 C 117.33 180.86 116.24 180.75 115.50 181.36 L 114.71 182.00 C 113.96 182.61 113.85 183.70 114.46 184.45 C 115.07 185.19 116.16 185.30 116.90 184.69 Z M 117.64 184.10 L 118.43 183.50 C 119.21 182.93 119.37 181.84 118.79 181.06 C 118.22 180.29 117.13 180.13 116.35 180.71 L 115.55 181.30 C 114.78 181.88 114.62 182.97 115.20 183.74 C 115.77 184.51 116.86 184.67 117.64 184.10 Z M 118.37 183.55 L 119.18 183.00 C 119.98 182.46 120.19 181.38 119.66 180.58 C 119.12 179.78 118.03 179.57 117.23 180.11 L 116.42 180.66 C 115.62 181.20 115.41 182.28 115.95 183.08 C 116.49 183.88 117.57 184.09 118.37 183.55 Z M 119.12 183.05 L 119.97 182.53 C 120.80 182.03 121.06 180.95 120.56 180.13 C 120.06 179.30 118.98 179.04 118.15 179.54 L 117.30 180.06 C 116.47 180.57 116.21 181.64 116.72 182.47 C 117.22 183.29 118.29 183.55 119.12 183.05 Z M 119.92 182.57 L 120.74 182.11 C 121.59 181.64 121.89 180.57 121.42 179.72 C 120.95 178.88 119.88 178.58 119.04 179.05 L 118.21 179.51 C 117.37 179.98 117.06 181.04 117.53 181.89 C 118.00 182.73 119.07 183.04 119.92 182.57 Z M 120.69 182.13 L 121.52 181.71 C 122.38 181.27 122.71 180.21 122.27 179.35 C 121.83 178.49 120.77 178.15 119.91 178.59 L 119.09 179.02 C 118.23 179.46 117.89 180.52 118.33 181.38 C 118.77 182.24 119.83 182.58 120.69 182.13 Z M 121.47 181.74 L 122.36 181.31 C 123.23 180.90 123.61 179.85 123.19 178.97 C 122.78 178.10 121.73 177.73 120.85 178.14 L 119.96 178.57 C 119.09 178.98 118.71 180.03 119.13 180.90 C 119.54 181.78 120.59 182.15 121.47 181.74 Z M 122.31 181.33 L 123.28 180.91 C 124.17 180.52 124.57 179.49 124.18 178.60 C 123.80 177.71 122.76 177.31 121.87 177.70 L 120.90 178.12 C 120.02 178.51 119.61 179.54 120.00 180.43 C 120.39 181.32 121.42 181.72 122.31 181.33 Z M 123.23 180.93 L 124.24 180.52 C 125.14 180.16 125.58 179.14 125.21 178.24 C 124.85 177.34 123.83 176.90 122.93 177.27 L 121.92 177.67 C 121.02 178.04 120.59 179.06 120.95 179.96 C 121.31 180.86 122.33 181.29 123.23 180.93 Z M 124.21 180.54 L 125.15 180.19 C 126.05 179.84 126.51 178.83 126.17 177.92 C 125.83 177.02 124.82 176.56 123.91 176.90 L 122.97 177.25 C 122.06 177.59 121.60 178.61 121.94 179.51 C 122.28 180.42 123.30 180.88 124.21 180.54 Z M 125.12 180.20 L 126.09 179.85 C 127.00 179.52 127.48 178.52 127.15 177.60 C 126.82 176.69 125.82 176.21 124.90 176.54 L 123.94 176.89 C 123.02 177.21 122.55 178.22 122.87 179.13 C 123.20 180.05 124.20 180.52 125.12 180.20 Z M 126.07 179.86 L 127.04 179.52 C 127.96 179.21 128.45 178.21 128.13 177.29 C 127.82 176.37 126.82 175.88 125.90 176.20 L 124.93 176.53 C 124.01 176.85 123.52 177.85 123.83 178.77 C 124.15 179.68 125.15 180.17 126.07 179.86 Z M 127.02 179.53 L 127.97 179.21 C 128.89 178.91 129.39 177.91 129.08 176.99 C 128.78 176.07 127.78 175.57 126.86 175.88 L 125.91 176.19 C 124.99 176.50 124.49 177.50 124.80 178.42 C 125.11 179.34 126.10 179.84 127.02 179.53 Z M 127.96 179.22 L 128.87 178.92 C 129.79 178.62 130.29 177.63 129.99 176.71 C 129.69 175.78 128.70 175.28 127.77 175.58 L 126.87 175.87 C 125.95 176.17 125.44 177.17 125.74 178.09 C 126.04 179.01 127.04 179.52 127.96 179.22 Z M 128.86 178.93 L 129.89 178.60 C 130.82 178.30 131.33 177.31 131.03 176.38 C 130.73 175.46 129.74 174.95 128.82 175.24 L 127.78 175.57 C 126.86 175.87 126.35 176.86 126.64 177.79 C 126.94 178.71 127.93 179.22 128.86 178.93 Z M 129.88 178.60 L 130.83 178.30 C 131.76 178.01 132.28 177.02 131.99 176.10 C 131.70 175.17 130.71 174.65 129.78 174.94 L 128.83 175.24 C 127.90 175.53 127.39 176.52 127.68 177.44 C 127.97 178.37 128.95 178.89 129.88 178.60 Z M 130.82 178.30 L 131.74 178.03 C 132.66 177.74 133.19 176.76 132.91 175.83 C 132.62 174.90 131.64 174.38 130.71 174.66 L 129.80 174.94 C 128.87 175.22 128.34 176.20 128.62 177.13 C 128.91 178.06 129.89 178.59 130.82 178.30 Z M 131.72 178.03 L 132.64 177.76 C 133.57 177.48 134.10 176.50 133.82 175.57 C 133.55 174.64 132.57 174.11 131.64 174.38 L 130.72 174.66 C 129.79 174.93 129.26 175.91 129.53 176.84 C 129.81 177.78 130.79 178.31 131.72 178.03 Z M 132.63 177.76 L 133.55 177.49 C 134.49 177.22 135.03 176.24 134.75 175.31 C 134.48 174.38 133.51 173.84 132.57 174.11 L 131.65 174.38 C 130.71 174.65 130.18 175.63 130.45 176.56 C 130.72 177.49 131.69 178.03 132.63 177.76 Z M 133.54 177.50 L 134.50 177.23 C 135.44 176.96 135.98 175.99 135.72 175.05 C 135.45 174.12 134.48 173.57 133.54 173.84 L 132.58 174.11 C 131.65 174.37 131.10 175.35 131.37 176.28 C 131.63 177.22 132.61 177.76 133.54 177.50 Z M 134.49 177.23 L 135.46 176.96 C 136.40 176.70 136.95 175.74 136.70 174.80 C 136.44 173.86 135.47 173.31 134.53 173.56 L 133.56 173.83 C 132.62 174.09 132.07 175.06 132.32 176.00 C 132.58 176.93 133.55 177.49 134.49 177.23 Z M 135.45 176.97 L 136.43 176.71 C 137.37 176.46 137.94 175.49 137.69 174.55 C 137.44 173.61 136.48 173.05 135.54 173.30 L 134.55 173.56 C 133.61 173.81 133.05 174.77 133.30 175.71 C 133.54 176.65 134.51 177.21 135.45 176.97 Z M 136.41 176.71 L 137.39 176.47 C 138.33 176.23 138.91 175.27 138.67 174.33 C 138.43 173.38 137.47 172.81 136.53 173.05 L 135.56 173.29 C 134.61 173.53 134.04 174.49 134.28 175.43 C 134.51 176.38 135.47 176.95 136.41 176.71 Z M 137.37 176.47 L 138.34 176.24 C 139.29 176.01 139.87 175.06 139.64 174.11 C 139.42 173.17 138.47 172.58 137.52 172.81 L 136.55 173.04 C 135.60 173.27 135.02 174.22 135.25 175.17 C 135.47 176.12 136.43 176.70 137.37 176.47 Z M 138.33 176.24 L 139.30 176.02 C 140.25 175.80 140.84 174.85 140.62 173.90 C 140.40 172.96 139.45 172.36 138.50 172.58 L 137.53 172.81 C 136.59 173.03 135.99 173.97 136.21 174.92 C 136.43 175.87 137.38 176.46 138.33 176.24 Z M 139.29 176.02 L 140.26 175.80 C 141.21 175.59 141.81 174.65 141.60 173.70 C 141.39 172.75 140.44 172.15 139.49 172.36 L 138.52 172.58 C 137.57 172.79 136.97 173.74 137.18 174.69 C 137.39 175.64 138.34 176.23 139.29 176.02 Z M 140.25 175.81 L 141.23 175.59 C 142.18 175.38 142.78 174.44 142.57 173.49 C 142.36 172.54 141.42 171.94 140.47 172.15 L 139.50 172.36 C 138.55 172.57 137.95 173.51 138.15 174.46 C 138.36 175.41 139.30 176.01 140.25 175.81 Z M 141.22 175.59 L 142.18 175.39 C 143.13 175.18 143.74 174.24 143.53 173.29 C 143.33 172.34 142.39 171.73 141.44 171.94 L 140.48 172.15 C 139.52 172.35 138.92 173.29 139.12 174.24 C 139.33 175.19 140.27 175.80 141.22 175.59 Z M 142.18 175.39 L 143.15 175.18 C 144.10 174.98 144.71 174.04 144.51 173.09 C 144.31 172.13 143.37 171.53 142.42 171.73 L 141.44 171.94 C 140.49 172.14 139.88 173.08 140.08 174.03 C 140.29 174.98 141.22 175.59 142.18 175.39 Z M 143.15 175.18 L 144.13 174.97 C 145.09 174.77 145.70 173.84 145.50 172.88 C 145.30 171.93 144.36 171.32 143.41 171.52 L 142.42 171.73 C 141.47 171.93 140.86 172.86 141.06 173.82 C 141.26 174.77 142.19 175.38 143.15 175.18 Z M 144.13 174.97 L 145.13 174.77 C 146.08 174.57 146.70 173.64 146.50 172.68 C 146.30 171.73 145.37 171.12 144.41 171.31 L 143.41 171.52 C 142.46 171.72 141.85 172.65 142.04 173.61 C 142.24 174.56 143.18 175.17 144.13 174.97 Z M 145.12 174.77 L 146.09 174.57 C 147.05 174.38 147.66 173.44 147.47 172.49 C 147.27 171.53 146.34 170.92 145.38 171.11 L 144.42 171.31 C 143.46 171.51 142.85 172.44 143.04 173.39 C 143.24 174.35 144.17 174.96 145.12 174.77 Z M 146.08 174.57 L 147.06 174.38 C 148.01 174.19 148.63 173.26 148.44 172.30 C 148.25 171.35 147.32 170.73 146.37 170.92 L 145.39 171.11 C 144.44 171.30 143.82 172.23 144.01 173.19 C 144.20 174.14 145.13 174.76 146.08 174.57 Z M 147.05 174.38 L 148.03 174.19 C 148.99 174.01 149.61 173.08 149.43 172.12 C 149.24 171.17 148.32 170.54 147.36 170.73 L 146.38 170.92 C 145.42 171.10 144.80 172.02 144.98 172.98 C 145.16 173.94 146.09 174.56 147.05 174.38 Z M 148.01 174.19 L 149.01 174.01 C 149.97 173.84 150.60 172.92 150.42 171.96 C 150.25 171.00 149.33 170.37 148.37 170.54 L 147.38 170.72 C 146.42 170.90 145.79 171.82 145.96 172.78 C 146.14 173.73 147.06 174.37 148.01 174.19 Z M 148.99 174.01 L 149.98 173.84 C 150.94 173.68 151.58 172.77 151.42 171.81 C 151.25 170.85 150.34 170.20 149.38 170.37 L 148.39 170.54 C 147.43 170.70 146.79 171.62 146.95 172.58 C 147.12 173.54 148.03 174.18 148.99 174.01 Z M 149.96 173.85 L 150.93 173.69 C 151.89 173.54 152.55 172.63 152.39 171.67 C 152.24 170.71 151.33 170.06 150.37 170.21 L 149.40 170.36 C 148.44 170.52 147.78 171.42 147.94 172.38 C 148.09 173.35 149.00 174.00 149.96 173.85 Z M 150.91 173.69 L 151.89 173.55 C 152.86 173.40 153.52 172.50 153.38 171.54 C 153.23 170.58 152.33 169.91 151.37 170.06 L 150.39 170.21 C 149.43 170.35 148.76 171.25 148.91 172.21 C 149.05 173.18 149.95 173.84 150.91 173.69 Z M 151.88 173.55 L 152.87 173.41 C 153.84 173.27 154.51 172.38 154.37 171.41 C 154.23 170.45 153.34 169.78 152.37 169.92 L 151.38 170.06 C 150.42 170.19 149.75 171.09 149.89 172.05 C 150.02 173.02 150.92 173.69 151.88 173.55 Z M 152.86 173.41 L 153.87 173.27 C 154.83 173.14 155.51 172.25 155.37 171.28 C 155.24 170.32 154.35 169.64 153.39 169.78 L 152.38 169.91 C 151.42 170.05 150.74 170.94 150.87 171.90 C 151.01 172.87 151.90 173.54 152.86 173.41 Z M 153.86 173.27 L 154.85 173.14 C 155.81 173.01 156.49 172.12 156.36 171.16 C 156.23 170.19 155.35 169.52 154.38 169.64 L 153.39 169.78 C 152.43 169.91 151.75 170.79 151.88 171.76 C 152.01 172.72 152.89 173.40 153.86 173.27 Z M 154.85 173.14 L 155.80 173.01 C 156.77 172.89 157.45 172.00 157.32 171.04 C 157.20 170.07 156.31 169.39 155.35 169.52 L 154.39 169.64 C 153.42 169.77 152.74 170.66 152.87 171.62 C 152.99 172.59 153.88 173.27 154.85 173.14 Z M 155.80 173.02 L 156.78 172.89 C 157.74 172.76 158.43 171.88 158.30 170.91 C 158.18 169.95 157.29 169.27 156.33 169.39 L 155.35 169.52 C 154.38 169.64 153.70 170.53 153.83 171.49 C 153.95 172.46 154.83 173.14 155.80 173.02 Z M 156.77 172.89 L 157.77 172.76 C 158.74 172.64 159.42 171.76 159.30 170.79 C 159.17 169.83 158.29 169.14 157.33 169.26 L 156.33 169.39 C 155.36 169.51 154.68 170.40 154.80 171.36 C 154.92 172.33 155.81 173.01 156.77 172.89 Z M 157.76 172.76 L 158.78 172.64 C 159.75 172.52 160.43 171.64 160.31 170.67 C 160.19 169.70 159.31 169.02 158.35 169.14 L 157.33 169.26 C 156.36 169.38 155.68 170.26 155.80 171.23 C 155.92 172.20 156.80 172.88 157.76 172.76 Z M 158.78 172.64 L 159.80 172.51 C 160.77 172.40 161.46 171.52 161.34 170.55 C 161.22 169.58 160.34 168.89 159.38 169.01 L 158.35 169.14 C 157.38 169.25 156.70 170.13 156.81 171.10 C 156.93 172.07 157.81 172.76 158.78 172.64 Z M 159.80 172.51 L 160.78 172.40 C 161.75 172.28 162.44 171.41 162.33 170.44 C 162.21 169.47 161.34 168.78 160.37 168.89 L 159.38 169.01 C 158.42 169.13 157.72 170.00 157.84 170.97 C 157.95 171.94 158.83 172.63 159.80 172.51 Z M 160.78 172.40 L 161.78 172.28 C 162.74 172.17 163.44 171.30 163.33 170.33 C 163.22 169.36 162.34 168.67 161.38 168.78 L 160.38 168.89 C 159.41 169.00 158.71 169.88 158.82 170.85 C 158.94 171.81 159.81 172.51 160.78 172.40 Z M 161.77 172.29 L 162.77 172.18 C 163.74 172.07 164.44 171.20 164.33 170.23 C 164.23 169.26 163.36 168.56 162.39 168.67 L 161.38 168.78 C 160.42 168.88 159.72 169.75 159.82 170.72 C 159.93 171.69 160.80 172.39 161.77 172.29 Z M 162.76 172.18 L 163.76 172.07 C 164.73 171.98 165.43 171.11 165.34 170.14 C 165.24 169.17 164.37 168.47 163.40 168.57 L 162.40 168.67 C 161.43 168.77 160.73 169.63 160.83 170.60 C 160.92 171.57 161.79 172.28 162.76 172.18 Z M 163.75 172.08 L 164.74 171.98 C 165.71 171.89 166.42 171.03 166.33 170.06 C 166.24 169.09 165.38 168.38 164.41 168.47 L 163.42 168.56 C 162.45 168.66 161.73 169.52 161.82 170.49 C 161.92 171.46 162.78 172.17 163.75 172.08 Z M 164.72 171.98 L 165.73 171.90 C 166.70 171.82 167.42 170.97 167.34 170.00 C 167.26 169.02 166.40 168.30 165.43 168.38 L 164.42 168.47 C 163.45 168.55 162.73 169.40 162.81 170.37 C 162.90 171.34 163.75 172.07 164.72 171.98 Z M 165.71 171.90 L 166.73 171.83 C 167.70 171.76 168.43 170.91 168.36 169.94 C 168.29 168.97 167.44 168.24 166.47 168.31 L 165.45 168.38 C 164.48 168.45 163.75 169.30 163.82 170.27 C 163.89 171.24 164.74 171.97 165.71 171.90 Z M 166.71 171.83 L 167.71 171.76 C 168.68 171.70 169.42 170.86 169.36 169.89 C 169.30 168.92 168.46 168.18 167.49 168.24 L 166.48 168.31 C 165.51 168.37 164.78 169.21 164.84 170.18 C 164.90 171.15 165.74 171.89 166.71 171.83 Z M 167.70 171.76 L 168.69 171.71 C 169.66 171.65 170.40 170.82 170.35 169.84 C 170.29 168.87 169.46 168.13 168.49 168.19 L 167.50 168.24 C 166.52 168.30 165.78 169.13 165.84 170.10 C 165.89 171.08 166.73 171.82 167.70 171.76 Z M 168.68 171.71 L 169.66 171.66 C 170.64 171.60 171.38 170.77 171.33 169.80 C 171.28 168.83 170.45 168.08 169.47 168.13 L 168.49 168.18 C 167.52 168.24 166.77 169.07 166.83 170.04 C 166.88 171.01 167.71 171.76 168.68 171.71 Z M 169.66 171.66 L 170.65 171.60 C 171.62 171.55 172.37 170.73 172.32 169.75 C 172.27 168.78 171.44 168.03 170.46 168.08 L 169.48 168.13 C 168.51 168.18 167.76 169.01 167.81 169.98 C 167.86 170.96 168.69 171.71 169.66 171.66 Z M 170.64 171.61 L 171.66 171.55 C 172.63 171.50 173.38 170.67 173.33 169.70 C 173.28 168.73 172.45 167.98 171.48 168.03 L 170.46 168.08 C 169.49 168.13 168.74 168.96 168.79 169.93 C 168.84 170.91 169.67 171.65 170.64 171.61 Z M 171.65 171.55 L 172.66 171.50 C 173.63 171.45 174.38 170.63 174.33 169.65 C 174.29 168.68 173.46 167.93 172.48 167.98 L 171.48 168.03 C 170.50 168.08 169.75 168.91 169.80 169.88 C 169.85 170.85 170.68 171.60 171.65 171.55 Z M 172.66 171.50 L 173.66 171.46 C 174.63 171.41 175.38 170.58 175.34 169.61 C 175.29 168.64 174.46 167.88 173.49 167.93 L 172.49 167.98 C 171.51 168.03 170.76 168.85 170.81 169.83 C 170.86 170.80 171.68 171.55 172.66 171.50 Z M 173.65 171.46 L 174.64 171.41 C 175.62 171.37 176.37 170.54 176.33 169.57 C 176.28 168.60 175.46 167.84 174.48 167.89 L 173.49 167.93 C 172.52 167.97 171.77 168.80 171.81 169.77 C 171.85 170.75 172.68 171.50 173.65 171.46 Z M 174.64 171.41 L 175.62 171.37 C 176.60 171.33 177.35 170.51 177.31 169.53 C 177.27 168.56 176.45 167.80 175.48 167.84 L 174.49 167.89 C 173.52 167.93 172.76 168.75 172.80 169.72 C 172.84 170.70 173.66 171.45 174.64 171.41 Z M 175.62 171.37 L 176.64 171.33 C 177.62 171.30 178.38 170.48 178.34 169.51 C 178.30 168.53 177.49 167.77 176.51 167.81 L 175.49 167.84 C 174.51 167.88 173.75 168.70 173.79 169.67 C 173.82 170.65 174.64 171.41 175.62 171.37 Z M 176.63 171.33 L 177.64 171.30 C 178.62 171.27 179.38 170.46 179.35 169.48 C 179.32 168.51 178.50 167.74 177.53 167.77 L 176.52 167.81 C 175.55 167.84 174.78 168.65 174.81 169.63 C 174.84 170.60 175.66 171.36 176.63 171.33 Z M 177.63 171.30 L 178.63 171.28 C 179.60 171.25 180.37 170.44 180.35 169.47 C 180.32 168.49 179.51 167.72 178.53 167.75 L 177.54 167.77 C 176.57 167.80 175.80 168.61 175.82 169.58 C 175.85 170.56 176.66 171.33 177.63 171.30 Z M 178.62 171.28 L 179.60 171.26 C 180.57 171.24 181.35 170.43 181.33 169.45 C 181.31 168.48 180.50 167.71 179.53 167.73 L 178.54 167.75 C 177.57 167.77 176.80 168.57 176.82 169.55 C 176.84 170.52 177.64 171.30 178.62 171.28 Z M 179.59 171.26 L 180.59 171.24 C 181.56 171.23 182.34 170.43 182.32 169.45 C 182.31 168.47 181.51 167.70 180.53 167.71 L 179.54 167.73 C 178.56 167.74 177.78 168.54 177.80 169.52 C 177.81 170.49 178.61 171.27 179.59 171.26 Z M 180.58 171.24 L 181.61 171.23 C 182.58 171.22 183.37 170.43 183.36 169.45 C 183.35 168.47 182.55 167.69 181.57 167.70 L 180.54 167.71 C 179.57 167.72 178.78 168.52 178.79 169.49 C 178.80 170.47 179.60 171.25 180.58 171.24 Z M 181.60 171.23 L 182.61 171.23 C 183.59 171.22 184.37 170.43 184.37 169.45 C 184.36 168.48 183.57 167.69 182.59 167.70 L 181.58 167.70 C 180.61 167.71 179.82 168.50 179.82 169.48 C 179.83 170.45 180.62 171.24 181.60 171.23 Z M 182.61 171.23 L 183.59 171.23 C 184.57 171.22 185.36 170.43 185.36 169.46 C 185.35 168.48 184.56 167.69 183.59 167.69 L 182.60 167.70 C 181.62 167.70 180.83 168.49 180.84 169.47 C 180.84 170.44 181.63 171.23 182.61 171.23 Z M 183.59 171.23 L 184.55 171.23 C 185.52 171.23 186.31 170.43 186.31 169.46 C 186.31 168.48 185.52 167.69 184.55 167.69 L 183.59 167.69 C 182.61 167.69 181.82 168.48 181.82 169.46 C 181.82 170.44 182.61 171.23 183.59 171.23 Z M 184.55 171.23 L 185.57 171.23 C 186.55 171.23 187.34 170.43 187.34 169.46 C 187.34 168.48 186.55 167.69 185.57 167.69 L 184.55 167.69 C 183.57 167.69 182.78 168.48 182.78 169.46 C 182.78 170.43 183.57 171.23 184.55 171.23 Z M 185.57 171.23 L 186.58 171.23 C 187.55 171.23 188.34 170.44 188.34 169.46 C 188.34 168.48 187.55 167.69 186.58 167.69 L 185.57 167.69 C 184.60 167.69 183.81 168.48 183.81 169.46 C 183.81 170.44 184.60 171.23 185.57 171.23 Z M 186.58 171.23 L 187.56 171.23 C 188.54 171.23 189.33 170.44 189.33 169.46 C 189.33 168.48 188.54 167.69 187.56 167.69 L 186.58 167.69 C 185.60 167.69 184.81 168.48 184.81 169.46 C 184.81 170.44 185.60 171.23 186.58 171.23 Z M 187.56 171.23 L 188.54 171.23 C 189.52 171.23 190.31 170.44 190.31 169.46 C 190.31 168.48 189.52 167.69 188.54 167.69 L 187.56 167.69 C 186.59 167.69 185.80 168.48 185.80 169.46 C 185.80 170.44 186.59 171.23 187.56 171.23 Z M 188.54 171.23 L 189.52 171.23 C 190.50 171.23 191.29 170.44 191.29 169.46 C 191.29 168.48 190.50 167.69 189.52 167.69 L 188.54 167.69 C 187.57 167.69 186.78 168.48 186.78 169.46 C 186.78 170.44 187.57 171.23 188.54 171.23 Z M 189.52 171.23 L 190.51 171.23 C 191.49 171.23 192.28 170.44 192.28 169.46 C 192.28 168.48 191.49 167.69 190.51 167.69 L 189.52 167.69 C 188.55 167.69 187.75 168.48 187.75 169.46 C 187.75 170.44 188.55 171.23 189.52 171.23 Z M 190.51 171.23 L 191.52 171.23 C 192.49 171.23 193.28 170.44 193.28 169.46 C 193.28 168.48 192.49 167.69 191.52 167.69 L 190.51 167.69 C 189.53 167.69 188.74 168.48 188.74 169.46 C 188.74 170.44 189.53 171.23 190.51 171.23 Z M 191.52 171.23 L 192.54 171.23 C 193.52 171.23 194.31 170.44 194.31 169.46 C 194.31 168.48 193.52 167.69 192.54 167.69 L 191.52 167.69 C 190.54 167.69 189.75 168.48 189.75 169.46 C 189.75 170.44 190.54 171.23 191.52 171.23 Z M 192.54 171.23 L 193.53 171.23 C 194.50 171.23 195.30 170.44 195.30 169.46 C 195.30 168.48 194.50 167.69 193.53 167.69 L 192.54 167.69 C 191.57 167.69 190.77 168.48 190.77 169.46 C 190.77 170.44 191.57 171.23 192.54 171.23 Z M 193.53 171.23 L 194.53 171.23 C 195.50 171.23 196.30 170.44 196.30 169.46 C 196.30 168.48 195.50 167.69 194.53 167.69 L 193.53 167.69 C 192.55 167.69 191.76 168.48 191.76 169.46 C 191.76 170.44 192.55 171.23 193.53 171.23 Z M 194.53 171.23 L 195.53 171.23 C 196.51 171.23 197.30 170.44 197.30 169.46 C 197.30 168.48 196.51 167.69 195.53 167.69 L 194.53 167.69 C 193.55 167.69 192.76 168.48 192.76 169.46 C 192.76 170.44 193.55 171.23 194.53 171.23 Z M 195.53 171.23 L 196.54 171.23 C 197.52 171.23 198.31 170.44 198.31 169.46 C 198.31 168.48 197.52 167.69 196.54 167.69 L 195.53 167.69 C 194.56 167.69 193.76 168.48 193.76 169.46 C 193.76 170.44 194.56 171.23 195.53 171.23 Z M 196.55 171.23 L 197.80 171.23 C 198.78 171.22 199.57 170.43 199.57 169.45 C 199.56 168.48 198.77 167.69 197.79 167.69 L 196.54 167.69 C 195.56 167.69 194.77 168.49 194.77 169.46 C 194.77 170.44 195.57 171.23 196.55 171.23 Z M 197.84 171.23 L 199.04 171.19 C 200.02 171.17 200.79 170.35 200.76 169.37 C 200.74 168.40 199.92 167.63 198.94 167.66 L 197.75 167.69 C 196.77 167.72 196.00 168.53 196.03 169.51 C 196.05 170.48 196.87 171.25 197.84 171.23 Z M 199.24 171.18 L 200.01 171.07 C 200.98 170.93 201.65 170.03 201.51 169.07 C 201.37 168.10 200.48 167.43 199.51 167.56 L 198.74 167.67 C 197.78 167.81 197.10 168.71 197.24 169.67 C 197.38 170.64 198.28 171.31 199.24 171.18 Z M 201.42 169.89 L 201.51 169.64 C 201.83 168.73 201.34 167.72 200.42 167.41 C 199.51 167.09 198.50 167.57 198.18 168.49 L 198.10 168.74 C 197.78 169.66 198.27 170.66 199.18 170.98 C 200.10 171.29 201.10 170.81 201.42 169.89 Z M 200.83 167.64 L 200.17 167.19 C 199.38 166.64 198.30 166.84 197.76 167.63 C 197.22 168.42 197.42 169.49 198.20 170.04 L 198.86 170.49 C 199.65 171.04 200.73 170.84 201.27 170.05 C 201.82 169.26 201.62 168.18 200.83 167.64 Z M 200.08 167.17 L 198.92 166.45 C 198.12 165.96 197.08 166.20 196.58 167.00 C 196.09 167.80 196.34 168.85 197.13 169.34 L 198.29 170.06 C 199.09 170.55 200.14 170.30 200.63 169.51 C 201.12 168.71 200.88 167.66 200.08 167.17 Z M 198.99 166.53 L 198.14 165.94 C 197.38 165.41 196.35 165.59 195.82 166.34 C 195.29 167.09 195.47 168.13 196.22 168.66 L 197.07 169.26 C 197.82 169.79 198.86 169.61 199.39 168.85 C 199.92 168.10 199.74 167.06 198.99 166.53 Z M 198.18 166.01 L 197.44 165.44 C 196.73 164.89 195.70 165.02 195.15 165.73 C 194.60 166.44 194.73 167.46 195.44 168.02 L 196.18 168.59 C 196.89 169.14 197.92 169.01 198.47 168.30 C 199.02 167.59 198.89 166.56 198.18 166.01 Z M 197.45 165.49 L 196.68 164.86 C 196.00 164.30 195.00 164.40 194.44 165.08 C 193.88 165.76 193.98 166.77 194.66 167.33 L 195.43 167.96 C 196.11 168.52 197.11 168.42 197.67 167.74 C 198.23 167.06 198.13 166.05 197.45 165.49 Z M 196.68 164.91 L 195.89 164.23 C 195.24 163.67 194.25 163.75 193.69 164.41 C 193.13 165.06 193.21 166.05 193.87 166.61 L 194.66 167.28 C 195.31 167.84 196.30 167.76 196.86 167.11 C 197.42 166.45 197.34 165.47 196.68 164.91 Z M 195.88 164.27 L 195.08 163.57 C 194.45 163.01 193.48 163.08 192.93 163.71 C 192.37 164.35 192.44 165.31 193.07 165.87 L 193.88 166.57 C 194.51 167.12 195.48 167.06 196.03 166.42 C 196.58 165.79 196.52 164.83 195.88 164.27 Z M 195.06 163.60 L 194.44 163.05 C 193.82 162.50 192.88 162.56 192.33 163.18 C 191.79 163.80 191.84 164.74 192.46 165.29 L 193.09 165.84 C 193.71 166.38 194.65 166.33 195.20 165.71 C 195.74 165.09 195.68 164.14 195.06 163.60 Z"
      fill="black"
      fill-rule="nonzero" /><path d="M 195.31 120.78 L 195.31 121.77 C 195.31 122.64 196.02 123.34 196.89 123.34 C 197.76 123.34 198.47 122.64 198.47 121.77 L 198.47 120.78 C 198.47 119.91 197.76 119.20 196.89 119.20 C 196.02 119.20 195.31 119.91 195.31 120.78 Z M 195.31 121.77 L 195.31 122.76 C 195.31 123.63 196.02 124.34 196.89 124.34 C 197.76 124.34 198.47 123.63 198.47 122.76 L 198.47 121.77 C 198.47 120.89 197.76 120.19 196.89 120.19 C 196.02 120.19 195.31 120.89 195.31 121.77 Z M 195.31 122.76 L 195.31 123.76 C 195.31 124.63 196.02 125.34 196.89 125.34 C 197.76 125.34 198.47 124.63 198.47 123.76 L 198.47 122.76 C 198.47 121.89 197.76 121.18 196.89 121.18 C 196.02 121.18 195.31 121.89 195.31 122.76 Z M 195.31 123.76 L 195.31 124.77 C 195.31 125.65 196.02 126.35 196.89 126.35 C 197.76 126.35 198.47 125.65 198.47 124.77 L 198.47 123.76 C 198.47 122.89 197.76 122.18 196.89 122.18 C 196.02 122.18 195.31 122.89 195.31 123.76 Z M 195.31 124.77 L 195.31 125.80 C 195.31 126.68 196.02 127.38 196.89 127.38 C 197.77 127.38 198.47 126.68 198.47 125.80 L 198.47 124.77 C 198.47 123.90 197.77 123.19 196.89 123.19 C 196.02 123.19 195.31 123.90 195.31 124.77 Z M 195.31 125.80 L 195.31 126.83 C 195.31 127.71 196.02 128.42 196.89 128.42 C 197.77 128.42 198.48 127.71 198.48 126.83 L 198.48 125.80 C 198.48 124.93 197.77 124.22 196.89 124.22 C 196.02 124.22 195.31 124.93 195.31 125.80 Z M 195.30 126.83 L 195.30 127.84 C 195.30 128.71 196.01 129.43 196.89 129.43 C 197.77 129.43 198.48 128.71 198.48 127.84 L 198.48 126.83 C 198.48 125.95 197.77 125.24 196.89 125.24 C 196.01 125.24 195.30 125.95 195.30 126.83 Z M 195.30 127.84 L 195.30 128.80 C 195.30 129.68 196.01 130.39 196.89 130.39 C 197.77 130.39 198.49 129.68 198.49 128.80 L 198.49 127.84 C 198.49 126.95 197.77 126.24 196.89 126.24 C 196.01 126.24 195.30 126.95 195.30 127.84 Z M 195.29 128.80 L 195.29 129.80 C 195.29 130.69 196.01 131.40 196.89 131.40 C 197.78 131.40 198.49 130.69 198.49 129.80 L 198.49 128.80 C 198.49 127.91 197.77 127.20 196.89 127.20 C 196.01 127.20 195.29 127.91 195.29 128.80 Z M 195.29 129.81 L 195.30 130.80 C 195.30 131.68 196.02 132.39 196.90 132.39 C 197.78 132.39 198.49 131.67 198.49 130.79 L 198.49 129.80 C 198.49 128.92 197.77 128.20 196.89 128.21 C 196.01 128.21 195.29 128.93 195.29 129.81 Z M 195.30 130.81 L 195.31 131.78 C 195.31 132.66 196.03 133.37 196.91 133.37 C 197.80 133.36 198.51 132.64 198.50 131.76 L 198.49 130.78 C 198.48 129.90 197.76 129.19 196.88 129.20 C 196.00 129.20 195.29 129.92 195.30 130.81 Z M 195.31 131.80 L 195.32 132.78 C 195.34 133.66 196.06 134.37 196.94 134.35 C 197.82 134.34 198.53 133.62 198.51 132.73 L 198.50 131.75 C 198.48 130.86 197.76 130.16 196.88 130.18 C 196.00 130.19 195.29 130.91 195.31 131.80 Z M 195.32 132.79 L 195.35 133.74 C 195.36 134.62 196.09 135.32 196.97 135.30 C 197.85 135.28 198.55 134.55 198.53 133.67 L 198.51 132.72 C 198.49 131.84 197.76 131.15 196.88 131.17 C 196.00 131.19 195.30 131.91 195.32 132.79 Z M 195.35 133.75 L 195.37 134.74 C 195.39 135.62 196.12 136.32 197.00 136.29 C 197.88 136.27 198.58 135.54 198.55 134.66 L 198.53 133.67 C 198.51 132.79 197.78 132.10 196.90 132.12 C 196.02 132.14 195.33 132.87 195.35 133.75 Z M 195.37 134.74 L 195.40 135.77 C 195.42 136.65 196.14 137.34 197.02 137.32 C 197.90 137.30 198.60 136.57 198.58 135.70 L 198.55 134.67 C 198.53 133.79 197.80 133.09 196.93 133.11 C 196.05 133.13 195.35 133.86 195.37 134.74 Z M 195.40 135.76 L 195.42 136.80 C 195.43 137.67 196.16 138.37 197.03 138.36 C 197.91 138.34 198.61 137.62 198.59 136.74 L 198.58 135.71 C 198.56 134.83 197.84 134.13 196.96 134.14 C 196.08 134.16 195.38 134.88 195.40 135.76 Z M 195.42 136.79 L 195.43 137.77 C 195.44 138.64 196.16 139.34 197.03 139.33 C 197.91 139.32 198.61 138.61 198.60 137.73 L 198.59 136.75 C 198.58 135.88 197.86 135.17 196.99 135.18 C 196.11 135.19 195.41 135.91 195.42 136.79 Z M 195.43 137.76 L 195.44 138.75 C 195.44 139.62 196.16 140.33 197.03 140.32 C 197.90 140.32 198.61 139.61 198.60 138.73 L 198.60 137.74 C 198.59 136.87 197.88 136.16 197.01 136.17 C 196.13 136.17 195.43 136.88 195.43 137.76 Z M 195.44 138.75 L 195.45 139.75 C 195.45 140.62 196.16 141.33 197.03 141.33 C 197.90 141.33 198.60 140.62 198.60 139.75 L 198.60 138.74 C 198.60 137.87 197.89 137.16 197.02 137.16 C 196.15 137.17 195.44 137.87 195.44 138.75 Z M 195.45 139.75 L 195.45 140.77 C 195.45 141.64 196.16 142.34 197.02 142.34 C 197.89 142.34 198.60 141.64 198.60 140.77 L 198.60 139.75 C 198.60 138.88 197.89 138.17 197.02 138.18 C 196.15 138.18 195.45 138.88 195.45 139.75 Z M 195.45 140.77 L 195.45 141.76 C 195.45 142.62 196.16 143.32 197.02 143.32 C 197.89 143.32 198.59 142.62 198.59 141.76 L 198.59 140.77 C 198.59 139.90 197.89 139.20 197.02 139.20 C 196.16 139.20 195.45 139.90 195.45 140.77 Z M 195.46 141.76 L 195.46 142.74 C 195.46 143.61 196.16 144.31 197.02 144.31 C 197.89 144.31 198.59 143.61 198.59 142.74 L 198.59 141.76 C 198.59 140.89 197.89 140.19 197.02 140.19 C 196.16 140.19 195.46 140.89 195.46 141.76 Z M 195.46 142.74 L 195.46 143.74 C 195.46 144.61 196.16 145.30 197.02 145.30 C 197.89 145.30 198.59 144.61 198.59 143.74 L 198.59 142.74 C 198.59 141.88 197.89 141.18 197.02 141.18 C 196.16 141.18 195.46 141.88 195.46 142.74 Z M 195.47 143.74 L 195.47 144.76 C 195.47 145.62 196.16 146.31 197.02 146.31 C 197.88 146.31 198.58 145.62 198.58 144.76 L 198.58 143.74 C 198.58 142.88 197.88 142.19 197.02 142.19 C 196.16 142.19 195.47 142.88 195.47 143.74 Z M 195.47 144.76 L 195.47 145.77 C 195.47 146.63 196.17 147.32 197.02 147.32 C 197.88 147.32 198.58 146.63 198.58 145.77 L 198.58 144.76 C 198.58 143.90 197.88 143.20 197.02 143.20 C 196.17 143.20 195.47 143.90 195.47 144.76 Z M 195.48 145.77 L 195.48 146.76 C 195.48 147.61 196.17 148.30 197.02 148.30 C 197.88 148.30 198.57 147.61 198.57 146.76 L 198.57 145.77 C 198.57 144.92 197.88 144.22 197.02 144.22 C 196.17 144.22 195.48 144.92 195.48 145.77 Z M 195.48 146.76 L 195.48 147.75 C 195.48 148.60 196.17 149.29 197.02 149.29 C 197.87 149.29 198.56 148.60 198.56 147.75 L 198.56 146.76 C 198.56 145.90 197.87 145.21 197.02 145.21 C 196.17 145.21 195.48 145.90 195.48 146.76 Z M 195.49 147.75 L 195.49 148.75 C 195.49 149.60 196.18 150.29 197.02 150.29 C 197.87 150.29 198.56 149.60 198.56 148.75 L 198.56 147.75 C 198.56 146.90 197.87 146.22 197.02 146.22 C 196.18 146.22 195.49 146.90 195.49 147.75 Z M 195.50 148.75 L 195.50 149.76 C 195.50 150.61 196.18 151.29 197.02 151.29 C 197.87 151.29 198.55 150.61 198.55 149.76 L 198.55 148.75 C 198.55 147.91 197.87 147.23 197.02 147.23 C 196.18 147.23 195.50 147.91 195.50 148.75 Z M 195.50 149.76 L 195.50 150.78 C 195.50 151.61 196.18 152.29 197.02 152.29 C 197.86 152.29 198.54 151.61 198.54 150.78 L 198.54 149.76 C 198.54 148.92 197.86 148.24 197.02 148.24 C 196.18 148.24 195.50 148.92 195.50 149.76 Z M 195.51 150.77 L 195.51 151.78 C 195.51 152.61 196.19 153.29 197.02 153.29 C 197.86 153.29 198.54 152.61 198.54 151.78 L 198.54 150.78 C 198.54 149.94 197.86 149.26 197.02 149.26 C 196.19 149.26 195.51 149.94 195.51 150.77 Z M 195.52 151.78 L 195.52 152.78 C 195.51 153.61 196.19 154.29 197.02 154.29 C 197.85 154.29 198.53 153.62 198.53 152.79 L 198.53 151.78 C 198.53 150.95 197.86 150.27 197.03 150.27 C 196.19 150.27 195.52 150.94 195.52 151.78 Z M 195.52 152.78 L 195.52 153.78 C 195.51 154.61 196.18 155.28 197.01 155.28 C 197.84 155.29 198.51 154.62 198.52 153.79 L 198.52 152.79 C 198.53 151.96 197.86 151.29 197.03 151.28 C 196.20 151.28 195.53 151.95 195.52 152.78 Z M 195.52 153.77 L 195.52 154.77 C 195.51 155.59 196.17 156.27 197.00 156.27 C 197.82 156.28 198.50 155.62 198.50 154.79 L 198.51 153.80 C 198.52 152.97 197.85 152.30 197.03 152.29 C 196.20 152.28 195.53 152.95 195.52 153.77 Z M 195.52 154.76 L 195.51 155.76 C 195.50 156.58 196.16 157.25 196.98 157.26 C 197.80 157.27 198.47 156.62 198.48 155.80 L 198.50 154.80 C 198.51 153.98 197.85 153.31 197.03 153.29 C 196.21 153.28 195.53 153.94 195.52 154.76 Z M 195.52 155.75 L 195.50 156.75 C 195.48 157.57 196.13 158.24 196.95 158.26 C 197.77 158.27 198.44 157.62 198.46 156.81 L 198.47 155.80 C 198.49 154.99 197.84 154.31 197.02 154.30 C 196.21 154.28 195.53 154.93 195.52 155.75 Z M 195.51 156.74 L 195.48 157.74 C 195.46 158.55 196.11 159.22 196.92 159.24 C 197.73 159.26 198.40 158.62 198.42 157.81 L 198.45 156.81 C 198.47 156.00 197.83 155.33 197.01 155.31 C 196.20 155.29 195.53 155.93 195.51 156.74 Z M 195.49 157.73 L 195.46 158.73 C 195.44 159.53 196.07 160.21 196.88 160.23 C 197.69 160.26 198.36 159.62 198.39 158.81 L 198.42 157.82 C 198.44 157.01 197.81 156.34 197.00 156.31 C 196.19 156.29 195.52 156.92 195.49 157.73 Z M 195.47 158.72 L 195.43 159.72 C 195.41 160.52 196.03 161.20 196.84 161.22 C 197.64 161.25 198.31 160.62 198.34 159.82 L 198.38 158.82 C 198.41 158.02 197.78 157.34 196.98 157.32 C 196.17 157.29 195.50 157.91 195.47 158.72 Z M 195.44 159.71 L 195.40 160.73 C 195.37 161.53 195.99 162.20 196.79 162.23 C 197.59 162.27 198.26 161.64 198.29 160.84 L 198.34 159.83 C 198.37 159.03 197.75 158.36 196.95 158.32 C 196.15 158.29 195.47 158.91 195.44 159.71 Z M 195.41 160.72 L 195.36 161.75 C 195.32 162.54 195.94 163.22 196.73 163.25 C 197.53 163.29 198.21 162.67 198.24 161.88 L 198.29 160.85 C 198.33 160.05 197.71 159.38 196.91 159.34 C 196.12 159.31 195.44 159.92 195.41 160.72 Z M 195.36 161.74 L 195.31 162.76 C 195.27 163.55 195.88 164.23 196.68 164.27 C 197.47 164.31 198.15 163.69 198.19 162.90 L 198.24 161.88 C 198.28 161.09 197.67 160.41 196.87 160.37 C 196.08 160.33 195.40 160.95 195.36 161.74 Z M 195.32 162.75 L 195.26 163.75 C 195.22 164.54 195.83 165.21 196.62 165.26 C 197.41 165.30 198.09 164.69 198.13 163.90 L 198.18 162.91 C 198.22 162.11 197.62 161.44 196.83 161.40 C 196.04 161.35 195.36 161.96 195.32 162.75 Z M 195.27 163.74 L 195.21 164.70 C 195.17 165.49 195.77 166.17 196.56 166.21 C 197.35 166.26 198.02 165.65 198.07 164.87 L 198.12 163.91 C 198.17 163.12 197.57 162.44 196.78 162.40 C 195.99 162.35 195.31 162.95 195.27 163.74 Z M 195.22 164.70 L 195.15 165.73 C 195.11 166.52 195.71 167.20 196.49 167.24 C 197.28 167.29 197.96 166.69 198.00 165.91 L 198.07 164.87 C 198.11 164.08 197.52 163.41 196.73 163.36 C 195.94 163.31 195.26 163.91 195.22 164.70 Z M 195.16 165.73 L 195.09 166.75 C 195.04 167.53 195.64 168.21 196.42 168.26 C 197.21 168.31 197.89 167.72 197.94 166.93 L 198.00 165.91 C 198.05 165.12 197.46 164.45 196.67 164.39 C 195.88 164.34 195.21 164.94 195.16 165.73 Z M 195.09 166.74 L 195.02 167.72 C 194.97 168.51 195.57 169.19 196.35 169.24 C 197.14 169.29 197.82 168.70 197.87 167.91 L 197.94 166.93 C 197.99 166.15 197.39 165.47 196.61 165.42 C 195.82 165.36 195.14 165.96 195.09 166.74 Z M 195.03 167.72 L 194.96 168.68 C 194.91 169.46 195.50 170.14 196.28 170.20 C 197.07 170.25 197.75 169.66 197.81 168.87 L 197.87 167.92 C 197.92 167.13 197.33 166.45 196.55 166.40 C 195.76 166.34 195.08 166.93 195.03 167.72 Z M 194.96 168.68 L 194.94 168.96 C 194.89 169.75 195.48 170.43 196.26 170.48 C 197.05 170.54 197.73 169.95 197.78 169.16 L 197.80 168.87 C 197.86 168.09 197.27 167.41 196.48 167.35 C 195.70 167.30 195.01 167.89 194.96 168.68 Z"
      fill="black"
      fill-rule="nonzero" /></svg>