<svg xmlns="http://www.w3.org/2000/svg" width="300" height="300" viewBox="0 0 300 300">
<path d="M 157.92 106.04 L 157.13 106.47 C 156.38 106.87 156.09 107.82 156.50 108.58 C 156.91 109.33 157.85 109.62 158.61 109.21 L 159.40 108.79 C 160.16 108.38 160.44 107.43 160.03 106.68 C 159.62 105.92 158.68 105.64 157.92 106.04 Z M 157.03 106.48 L 156.23 106.98 C 155.48 107.45 155.25 108.43 155.71 109.18 C 156.18 109.93 157.16 110.16 157.91 109.69 L 158.71 109.19 C 159.46 108.73 159.69 107.75 159.23 107.00 C 158.76 106.25 157.78 106.02 157.03 106.48 Z M 156.06 107.05 L 155.23 107.69 C 154.52 108.25 154.39 109.28 154.94 109.99 C 155.50 110.70 156.53 110.83 157.24 110.28 L 158.07 109.63 C 158.79 109.07 158.91 108.05 158.36 107.33 C 157.80 106.62 156.78 106.49 156.06 107.05 Z M 155.07 107.79 L 154.32 108.53 C 153.66 109.17 153.65 110.22 154.29 110.88 C 154.93 111.54 155.99 111.55 156.65 110.91 L 157.40 110.18 C 158.06 109.54 158.07 108.48 157.43 107.82 C 156.79 107.16 155.73 107.15 155.07 107.79 Z M 154.22 108.61 L 153.59 109.33 C 152.98 110.02 153.05 111.09 153.75 111.70 C 154.44 112.31 155.50 112.24 156.12 111.54 L 156.75 110.83 C 157.36 110.13 157.29 109.07 156.59 108.46 C 155.90 107.84 154.84 107.91 154.22 108.61 Z M 153.54 109.38 L 152.91 110.18 C 152.32 110.90 152.44 111.96 153.16 112.54 C 153.89 113.12 154.95 113.01 155.53 112.28 L 156.17 111.49 C 156.75 110.77 156.63 109.71 155.91 109.12 C 155.18 108.54 154.12 108.66 153.54 109.38 Z M 152.87 110.21 L 152.24 111.04 C 151.68 111.78 151.83 112.84 152.57 113.40 C 153.31 113.97 154.37 113.82 154.93 113.08 L 155.56 112.25 C 156.12 111.50 155.98 110.45 155.23 109.89 C 154.49 109.32 153.44 109.47 152.87 110.21 Z M 152.22 111.06 L 151.61 111.90 C 151.06 112.65 151.23 113.71 151.98 114.26 C 152.73 114.81 153.79 114.64 154.34 113.89 L 154.95 113.06 C 155.50 112.31 155.34 111.25 154.58 110.70 C 153.83 110.15 152.78 110.31 152.22 111.06 Z M 151.61 111.90 L 151.00 112.74 C 150.46 113.50 150.63 114.55 151.38 115.10 C 152.14 115.65 153.20 115.48 153.74 114.72 L 154.35 113.88 C 154.89 113.13 154.72 112.07 153.97 111.52 C 153.21 110.98 152.15 111.15 151.61 111.90 Z M 151.00 112.74 L 150.40 113.58 C 149.85 114.34 150.02 115.39 150.78 115.94 C 151.53 116.49 152.59 116.32 153.14 115.56 L 153.74 114.72 C 154.29 113.96 154.12 112.91 153.36 112.36 C 152.61 111.81 151.55 111.98 151.00 112.74 Z M 150.40 113.57 L 149.82 114.37 C 149.27 115.13 149.44 116.19 150.19 116.74 C 150.95 117.29 152.01 117.12 152.56 116.36 L 153.14 115.56 C 153.69 114.80 153.52 113.75 152.76 113.20 C 152.00 112.65 150.95 112.82 150.40 113.57 Z M 149.82 114.37 L 149.25 115.15 C 148.70 115.90 148.86 116.96 149.62 117.52 C 150.37 118.07 151.43 117.90 151.98 117.15 L 152.56 116.37 C 153.11 115.61 152.94 114.55 152.19 114.00 C 151.43 113.45 150.37 113.61 149.82 114.37 Z M 149.25 115.14 L 148.67 115.93 C 148.12 116.68 148.27 117.74 149.03 118.30 C 149.78 118.86 150.84 118.70 151.40 117.94 L 151.98 117.16 C 152.54 116.40 152.38 115.34 151.62 114.79 C 150.87 114.23 149.81 114.39 149.25 115.14 Z M 148.68 115.92 L 148.12 116.67 C 147.56 117.42 147.71 118.48 148.46 119.04 C 149.21 119.60 150.27 119.45 150.83 118.70 L 151.39 117.95 C 151.95 117.20 151.80 116.14 151.05 115.58 C 150.30 115.02 149.24 115.17 148.68 115.92 Z M 148.12 116.66 L 147.54 117.43 C 146.98 118.18 147.12 119.24 147.87 119.80 C 148.62 120.37 149.68 120.22 150.25 119.47 L 150.83 118.71 C 151.39 117.96 151.24 116.90 150.50 116.33 C 149.75 115.77 148.69 115.92 148.12 116.66 Z M 147.55 117.42 L 146.94 118.22 C 146.37 118.96 146.52 120.03 147.26 120.59 C 148.01 121.16 149.07 121.02 149.64 120.27 L 150.24 119.48 C 150.81 118.73 150.67 117.67 149.92 117.10 C 149.18 116.53 148.11 116.68 147.55 117.42 Z M 146.94 118.21 L 146.32 119.03 C 145.75 119.77 145.89 120.84 146.63 121.41 C 147.38 121.98 148.44 121.84 149.01 121.09 L 149.64 120.28 C 150.21 119.53 150.07 118.47 149.32 117.90 C 148.58 117.33 147.51 117.47 146.94 118.21 Z M 146.32 119.03 L 145.67 119.87 C 145.10 120.62 145.24 121.68 145.98 122.25 C 146.72 122.83 147.79 122.69 148.36 121.94 L 149.01 121.10 C 149.58 120.35 149.44 119.29 148.70 118.72 C 147.96 118.14 146.89 118.28 146.32 119.03 Z M 145.67 119.87 L 145.09 120.63 C 144.51 121.37 144.65 122.44 145.40 123.01 C 146.14 123.58 147.21 123.44 147.78 122.70 L 148.36 121.94 C 148.93 121.20 148.79 120.13 148.05 119.56 C 147.31 118.99 146.24 119.13 145.67 119.87 Z M 145.09 120.63 L 144.50 121.39 C 143.93 122.13 144.07 123.20 144.81 123.77 C 145.55 124.34 146.62 124.20 147.19 123.46 L 147.78 122.70 C 148.35 121.96 148.21 120.89 147.47 120.32 C 146.73 119.75 145.66 119.89 145.09 120.63 Z M 144.50 121.39 L 143.90 122.17 C 143.33 122.91 143.46 123.97 144.20 124.55 C 144.95 125.12 146.01 124.98 146.59 124.24 L 147.19 123.46 C 147.76 122.72 147.63 121.66 146.89 121.08 C 146.14 120.51 145.08 120.64 144.50 121.39 Z M 143.90 122.16 L 143.28 122.96 C 142.71 123.70 142.84 124.77 143.58 125.34 C 144.32 125.92 145.39 125.78 145.96 125.04 L 146.58 124.25 C 147.16 123.50 147.03 122.44 146.28 121.86 C 145.54 121.29 144.48 121.42 143.90 122.16 Z M 143.28 122.96 L 142.65 123.78 C 142.07 124.52 142.20 125.58 142.94 126.16 C 143.68 126.74 144.75 126.60 145.32 125.86 L 145.96 125.05 C 146.54 124.31 146.41 123.24 145.67 122.66 C 144.93 122.09 143.86 122.22 143.28 122.96 Z M 142.65 123.77 L 141.99 124.61 C 141.42 125.35 141.54 126.41 142.28 126.99 C 143.02 127.57 144.09 127.44 144.67 126.70 L 145.32 125.87 C 145.90 125.13 145.77 124.06 145.03 123.48 C 144.30 122.91 143.23 123.03 142.65 123.77 Z M 142.00 124.60 L 141.41 125.34 C 140.83 126.08 140.96 127.15 141.70 127.73 C 142.43 128.31 143.50 128.18 144.08 127.45 L 144.66 126.71 C 145.24 125.97 145.12 124.90 144.38 124.32 C 143.65 123.74 142.58 123.87 142.00 124.60 Z M 141.42 125.34 L 140.82 126.09 C 140.24 126.82 140.36 127.89 141.09 128.48 C 141.83 129.06 142.90 128.94 143.48 128.20 L 144.08 127.45 C 144.66 126.72 144.54 125.65 143.80 125.07 C 143.07 124.48 142.00 124.60 141.42 125.34 Z M 140.83 126.08 L 140.21 126.85 C 139.63 127.58 139.74 128.65 140.47 129.24 C 141.21 129.82 142.27 129.70 142.86 128.97 L 143.47 128.21 C 144.06 127.48 143.94 126.41 143.21 125.82 C 142.48 125.24 141.41 125.35 140.83 126.08 Z M 140.22 126.84 L 139.59 127.62 C 139.00 128.35 139.11 129.42 139.84 130.01 C 140.57 130.60 141.63 130.49 142.22 129.76 L 142.85 128.98 C 143.44 128.25 143.33 127.18 142.60 126.59 C 141.88 126.00 140.81 126.12 140.22 126.84 Z M 139.59 127.62 L 138.95 128.41 C 138.35 129.13 138.46 130.20 139.18 130.79 C 139.91 131.39 140.98 131.28 141.57 130.56 L 142.22 129.77 C 142.81 129.04 142.71 127.97 141.98 127.38 C 141.26 126.78 140.19 126.89 139.59 127.62 Z M 138.95 128.40 L 138.29 129.20 C 137.69 129.92 137.79 130.99 138.51 131.59 C 139.23 132.19 140.30 132.09 140.90 131.37 L 141.56 130.56 C 142.16 129.84 142.06 128.78 141.34 128.18 C 140.62 127.58 139.55 127.68 138.95 128.40 Z M 138.29 129.19 L 137.62 129.99 C 137.02 130.71 137.11 131.78 137.83 132.38 C 138.54 132.98 139.61 132.89 140.22 132.18 L 140.89 131.38 C 141.49 130.66 141.40 129.59 140.68 128.99 C 139.97 128.39 138.90 128.48 138.29 129.19 Z M 137.63 129.98 L 136.99 130.73 C 136.38 131.44 136.47 132.51 137.18 133.12 C 137.89 133.73 138.96 133.64 139.57 132.93 L 140.21 132.18 C 140.81 131.47 140.73 130.40 140.02 129.79 C 139.31 129.19 138.24 129.27 137.63 129.98 Z M 137.00 130.73 L 136.35 131.48 C 135.74 132.19 135.81 133.26 136.52 133.87 C 137.23 134.48 138.30 134.40 138.91 133.69 L 139.56 132.94 C 140.17 132.23 140.09 131.16 139.39 130.55 C 138.68 129.94 137.61 130.02 137.00 130.73 Z M 136.35 131.47 L 135.69 132.23 C 135.08 132.94 135.15 134.00 135.86 134.62 C 136.56 135.23 137.63 135.16 138.24 134.46 L 138.90 133.70 C 139.52 132.99 139.44 131.93 138.74 131.31 C 138.04 130.70 136.97 130.77 136.35 131.47 Z M 135.70 132.23 L 135.03 132.98 C 134.42 133.69 134.48 134.75 135.18 135.37 C 135.88 135.99 136.95 135.92 137.57 135.22 L 138.24 134.46 C 138.85 133.76 138.79 132.69 138.08 132.08 C 137.38 131.46 136.32 131.53 135.70 132.23 Z M 135.04 132.98 L 134.37 133.74 C 133.75 134.43 133.81 135.50 134.51 136.12 C 135.21 136.74 136.27 136.68 136.89 135.98 L 137.56 135.22 C 138.18 134.53 138.12 133.46 137.42 132.84 C 136.72 132.22 135.66 132.28 135.04 132.98 Z M 134.37 133.73 L 133.70 134.48 C 133.08 135.18 133.14 136.24 133.84 136.86 C 134.53 137.49 135.60 137.43 136.22 136.73 L 136.89 135.98 C 137.51 135.29 137.45 134.22 136.76 133.60 C 136.06 132.98 134.99 133.04 134.37 133.73 Z M 133.71 134.48 L 133.04 135.22 C 132.42 135.91 132.47 136.98 133.17 137.60 C 133.86 138.22 134.92 138.17 135.55 137.48 L 136.21 136.73 C 136.84 136.04 136.78 134.98 136.09 134.35 C 135.40 133.73 134.33 133.79 133.71 134.48 Z M 133.04 135.22 L 132.36 135.98 C 131.73 136.67 131.79 137.73 132.48 138.36 C 133.17 138.98 134.23 138.93 134.86 138.24 L 135.54 137.48 C 136.17 136.79 136.11 135.72 135.42 135.10 C 134.73 134.48 133.67 134.53 133.04 135.22 Z M 132.36 135.97 L 131.67 136.73 C 131.05 137.42 131.10 138.48 131.79 139.11 C 132.47 139.73 133.54 139.68 134.16 139.00 L 134.85 138.24 C 135.48 137.55 135.43 136.49 134.74 135.86 C 134.05 135.24 132.99 135.29 132.36 135.97 Z M 131.68 136.73 L 131.00 137.47 C 130.37 138.16 130.42 139.22 131.10 139.85 C 131.78 140.48 132.85 140.43 133.48 139.74 L 134.16 139.00 C 134.78 138.31 134.74 137.25 134.05 136.62 C 133.37 136.00 132.31 136.04 131.68 136.73 Z M 131.00 137.47 L 130.32 138.21 C 129.70 138.89 129.74 139.95 130.42 140.58 C 131.10 141.21 132.16 141.16 132.79 140.48 L 133.47 139.75 C 134.10 139.06 134.06 138.00 133.37 137.37 C 132.69 136.75 131.63 136.79 131.00 137.47 Z M 130.33 138.20 L 129.65 138.93 C 129.02 139.61 129.06 140.67 129.74 141.30 C 130.42 141.93 131.48 141.89 132.11 141.21 L 132.79 140.48 C 133.42 139.81 133.38 138.74 132.70 138.11 C 132.02 137.48 130.96 137.52 130.33 138.20 Z M 129.66 138.93 L 128.99 139.64 C 128.36 140.32 128.39 141.38 129.07 142.01 C 129.74 142.64 130.80 142.61 131.44 141.93 L 132.11 141.21 C 132.74 140.54 132.70 139.48 132.03 138.85 C 131.35 138.21 130.29 138.25 129.66 138.93 Z M 128.99 139.64 L 128.32 140.35 C 127.69 141.03 127.72 142.08 128.40 142.72 C 129.07 143.35 130.13 143.32 130.76 142.65 L 131.43 141.93 C 132.06 141.26 132.03 140.20 131.36 139.57 C 130.69 138.94 129.63 138.97 128.99 139.64 Z M 128.33 140.35 L 127.64 141.08 C 127.00 141.75 127.03 142.81 127.70 143.44 C 128.37 144.08 129.43 144.05 130.06 143.38 L 130.76 142.65 C 131.39 141.98 131.36 140.92 130.69 140.29 C 130.02 139.65 128.97 139.68 128.33 140.35 Z M 127.65 141.08 L 126.94 141.81 C 126.30 142.48 126.33 143.54 126.99 144.17 C 127.66 144.81 128.72 144.78 129.35 144.12 L 130.06 143.38 C 130.69 142.72 130.67 141.66 130.00 141.02 C 129.34 140.39 128.28 140.41 127.65 141.08 Z M 126.95 141.81 L 126.24 142.54 C 125.61 143.21 125.63 144.26 126.29 144.90 C 126.95 145.53 128.01 145.51 128.64 144.85 L 129.35 144.12 C 129.98 143.46 129.96 142.40 129.30 141.77 C 128.64 141.13 127.58 141.15 126.95 141.81 Z M 126.25 142.54 L 125.55 143.26 C 124.91 143.92 124.93 144.97 125.59 145.61 C 126.25 146.25 127.30 146.23 127.94 145.57 L 128.64 144.85 C 129.28 144.19 129.26 143.14 128.60 142.50 C 127.94 141.87 126.89 141.88 126.25 142.54 Z M 125.56 143.26 L 124.86 143.98 C 124.22 144.63 124.24 145.68 124.89 146.32 C 125.55 146.96 126.60 146.95 127.24 146.29 L 127.93 145.58 C 128.57 144.92 128.56 143.87 127.90 143.23 C 127.25 142.59 126.20 142.61 125.56 143.26 Z M 124.87 143.98 L 124.18 144.68 C 123.54 145.33 123.55 146.38 124.21 147.02 C 124.86 147.66 125.91 147.65 126.55 146.99 L 127.23 146.29 C 127.87 145.64 127.86 144.59 127.21 143.95 C 126.55 143.31 125.51 143.32 124.87 143.98 Z M 124.18 144.68 L 123.50 145.37 C 122.86 146.02 122.87 147.07 123.52 147.71 C 124.17 148.35 125.22 148.34 125.86 147.69 L 126.54 146.99 C 127.18 146.34 127.17 145.30 126.52 144.66 C 125.87 144.02 124.82 144.03 124.18 144.68 Z M 123.51 145.37 L 122.78 146.11 C 122.14 146.76 122.15 147.80 122.79 148.44 C 123.44 149.08 124.49 149.07 125.12 148.42 L 125.85 147.69 C 126.49 147.04 126.49 146.00 125.84 145.36 C 125.19 144.72 124.15 144.72 123.51 145.37 Z M 122.79 146.11 L 122.06 146.84 C 121.42 147.49 121.42 148.53 122.07 149.17 C 122.71 149.80 123.75 149.80 124.39 149.16 L 125.12 148.42 C 125.76 147.78 125.75 146.74 125.11 146.10 C 124.47 145.46 123.43 145.46 122.79 146.11 Z M 122.07 146.84 L 121.35 147.56 C 120.71 148.20 120.71 149.24 121.35 149.88 C 121.99 150.52 123.03 150.52 123.67 149.87 L 124.39 149.16 C 125.03 148.52 125.02 147.48 124.38 146.84 C 123.74 146.20 122.71 146.20 122.07 146.84 Z M 121.36 147.56 L 120.65 148.26 C 120.01 148.89 120.01 149.93 120.64 150.57 C 121.28 151.21 122.32 151.21 122.96 150.58 L 123.66 149.88 C 124.30 149.24 124.31 148.20 123.67 147.56 C 123.03 146.92 122.00 146.92 121.36 147.56 Z M 120.66 148.26 L 119.96 148.94 C 119.32 149.57 119.31 150.61 119.95 151.25 C 120.58 151.89 121.61 151.90 122.25 151.26 L 122.95 150.58 C 123.59 149.95 123.60 148.91 122.96 148.27 C 122.33 147.63 121.30 147.62 120.66 148.26 Z M 119.97 148.94 L 119.29 149.61 C 118.64 150.24 118.63 151.27 119.26 151.91 C 119.89 152.55 120.92 152.56 121.56 151.94 L 122.24 151.27 C 122.89 150.64 122.90 149.61 122.27 148.97 C 121.64 148.32 120.61 148.31 119.97 148.94 Z M 119.30 149.61 L 118.55 150.33 C 117.91 150.95 117.89 151.97 118.51 152.62 C 119.13 153.26 120.16 153.28 120.80 152.66 L 121.55 151.94 C 122.19 151.32 122.21 150.29 121.59 149.65 C 120.97 149.00 119.94 148.98 119.30 149.61 Z M 118.56 150.32 L 117.80 151.05 C 117.16 151.66 117.13 152.69 117.75 153.33 C 118.36 153.98 119.39 154.00 120.03 153.39 L 120.79 152.66 C 121.44 152.05 121.46 151.02 120.85 150.38 C 120.23 149.73 119.21 149.71 118.56 150.32 Z M 117.81 151.05 L 117.07 151.74 C 116.42 152.35 116.39 153.37 117.00 154.02 C 117.61 154.67 118.63 154.70 119.28 154.09 L 120.02 153.39 C 120.67 152.78 120.70 151.76 120.09 151.11 C 119.48 150.47 118.46 150.44 117.81 151.05 Z M 117.08 151.74 L 116.36 152.41 C 115.71 153.02 115.68 154.03 116.28 154.68 C 116.88 155.33 117.90 155.36 118.55 154.76 L 119.27 154.09 C 119.92 153.49 119.95 152.47 119.35 151.82 C 118.75 151.18 117.73 151.14 117.08 151.74 Z M 116.37 152.41 L 115.68 153.05 C 115.03 153.65 114.98 154.66 115.58 155.31 C 116.18 155.96 117.19 156.00 117.84 155.40 L 118.54 154.76 C 119.18 154.16 119.23 153.15 118.63 152.51 C 118.03 151.86 117.02 151.81 116.37 152.41 Z M 115.69 153.05 L 114.98 153.69 C 114.33 154.28 114.28 155.29 114.87 155.94 C 115.47 156.59 116.47 156.64 117.12 156.05 L 117.83 155.41 C 118.48 154.81 118.53 153.81 117.93 153.16 C 117.34 152.51 116.34 152.46 115.69 153.05 Z M 115.00 153.68 L 114.26 154.34 C 113.60 154.91 113.54 155.92 114.12 156.57 C 114.70 157.23 115.70 157.29 116.36 156.71 L 117.10 156.06 C 117.76 155.48 117.82 154.48 117.24 153.82 C 116.66 153.16 115.66 153.10 115.00 153.68 Z M 114.31 154.30 L 113.55 154.92 C 112.88 155.48 112.78 156.47 113.34 157.14 C 113.89 157.82 114.88 157.92 115.56 157.36 L 116.31 156.74 C 116.98 156.19 117.08 155.20 116.53 154.52 C 115.97 153.85 114.98 153.75 114.31 154.30 Z M 113.63 154.87 L 112.83 155.46 C 112.13 155.97 111.98 156.95 112.50 157.65 C 113.01 158.35 114.00 158.50 114.70 157.99 L 115.49 157.41 C 116.19 156.90 116.34 155.91 115.82 155.21 C 115.31 154.51 114.33 154.36 113.63 154.87 Z M 112.93 155.40 L 112.06 155.95 C 111.33 156.41 111.12 157.38 111.58 158.11 C 112.04 158.84 113.01 159.06 113.74 158.59 L 114.60 158.05 C 115.33 157.58 115.55 156.61 115.09 155.88 C 114.62 155.15 113.66 154.94 112.93 155.40 Z M 112.16 155.90 L 111.32 156.35 C 110.56 156.76 110.28 157.71 110.69 158.47 C 111.10 159.23 112.05 159.51 112.81 159.10 L 113.65 158.64 C 114.40 158.23 114.69 157.29 114.28 156.53 C 113.86 155.77 112.92 155.49 112.16 155.90 Z M 111.39 156.32 L 110.54 156.72 C 109.76 157.09 109.43 158.02 109.80 158.80 C 110.17 159.58 111.10 159.91 111.88 159.54 L 112.73 159.14 C 113.51 158.77 113.84 157.83 113.47 157.06 C 113.10 156.28 112.17 155.95 111.39 156.32 Z M 110.59 156.70 L 109.68 157.09 C 108.89 157.43 108.53 158.35 108.87 159.14 C 109.21 159.93 110.13 160.30 110.92 159.96 L 111.82 159.56 C 112.62 159.22 112.98 158.31 112.64 157.52 C 112.30 156.72 111.38 156.36 110.59 156.70 Z M 109.72 157.08 L 108.77 157.46 C 107.97 157.78 107.58 158.69 107.90 159.49 C 108.23 160.28 109.13 160.67 109.93 160.35 L 110.88 159.97 C 111.68 159.65 112.06 158.74 111.74 157.94 C 111.42 157.15 110.52 156.76 109.72 157.08 Z M 108.79 157.45 L 107.82 157.83 C 107.01 158.13 106.61 159.03 106.92 159.84 C 107.23 160.64 108.13 161.04 108.93 160.73 L 109.91 160.36 C 110.71 160.05 111.11 159.15 110.80 158.35 C 110.50 157.55 109.60 157.15 108.79 157.45 Z M 107.83 157.82 L 106.84 158.19 C 106.03 158.49 105.63 159.39 105.93 160.19 C 106.23 161.00 107.12 161.41 107.93 161.11 L 108.92 160.74 C 109.72 160.44 110.13 159.54 109.83 158.74 C 109.53 157.93 108.63 157.52 107.83 157.82 Z M 106.84 158.19 L 106.79 158.21 C 105.98 158.51 105.57 159.41 105.87 160.21 C 106.17 161.02 107.07 161.43 107.87 161.13 L 107.92 161.11 C 108.73 160.81 109.14 159.91 108.84 159.11 C 108.54 158.30 107.65 157.89 106.84 158.19 Z"
      fill="black"
      fill-rule="nonzero" /><path d="M 149.06 120.95 L 149.82 121.57 C 150.51 122.12 151.51 122.01 152.06 121.33 C 152.61 120.65 152.50 119.65 151.82 119.10 L 151.06 118.48 C 150.38 117.93 149.37 118.04 148.82 118.72 C 148.27 119.40 148.38 120.40 149.06 120.95 Z M 149.81 121.61 L 150.58 122.22 C 151.29 122.78 152.31 122.66 152.87 121.96 C 153.43 121.25 153.31 120.23 152.61 119.67 L 151.83 119.05 C 151.13 118.50 150.10 118.61 149.54 119.32 C 148.98 120.02 149.10 121.05 149.81 121.61 Z M 150.58 122.27 L 151.38 122.89 C 152.11 123.45 153.16 123.31 153.72 122.58 C 154.28 121.84 154.15 120.80 153.41 120.23 L 152.61 119.62 C 151.88 119.06 150.83 119.20 150.27 119.93 C 149.71 120.66 149.85 121.71 150.58 122.27 Z M 151.39 122.94 L 152.19 123.52 C 152.95 124.08 154.02 123.91 154.57 123.15 C 155.13 122.39 154.96 121.32 154.20 120.77 L 153.40 120.18 C 152.64 119.63 151.58 119.79 151.02 120.55 C 150.47 121.31 150.63 122.38 151.39 122.94 Z M 152.22 123.56 L 152.98 124.08 C 153.76 124.62 154.83 124.43 155.37 123.65 C 155.91 122.87 155.72 121.80 154.93 121.26 L 154.18 120.73 C 153.39 120.19 152.32 120.38 151.78 121.17 C 151.24 121.95 151.44 123.02 152.22 123.56 Z M 153.01 124.11 L 153.82 124.64 C 154.62 125.16 155.69 124.94 156.21 124.15 C 156.73 123.35 156.51 122.28 155.71 121.76 L 154.90 121.23 C 154.10 120.71 153.04 120.93 152.51 121.73 C 151.99 122.52 152.22 123.59 153.01 124.11 Z M 153.86 124.67 L 154.74 125.21 C 155.55 125.71 156.61 125.46 157.11 124.65 C 157.62 123.84 157.36 122.78 156.55 122.28 L 155.67 121.73 C 154.86 121.23 153.80 121.48 153.30 122.29 C 152.80 123.11 153.05 124.17 153.86 124.67 Z M 154.78 125.24 L 155.73 125.79 C 156.55 126.27 157.61 126.00 158.09 125.17 C 158.57 124.35 158.30 123.29 157.47 122.81 L 156.52 122.25 C 155.69 121.77 154.64 122.05 154.16 122.87 C 153.68 123.70 153.95 124.76 154.78 125.24 Z M 155.76 125.81 L 156.63 126.30 C 157.46 126.76 158.52 126.46 158.98 125.62 C 159.44 124.79 159.14 123.74 158.31 123.27 L 157.44 122.79 C 156.61 122.33 155.55 122.63 155.09 123.46 C 154.63 124.30 154.93 125.35 155.76 125.81 Z M 156.66 126.31 L 157.56 126.79 C 158.40 127.24 159.45 126.92 159.90 126.08 C 160.35 125.24 160.03 124.19 159.19 123.74 L 158.28 123.26 C 157.44 122.81 156.39 123.13 155.94 123.97 C 155.49 124.81 155.81 125.86 156.66 126.31 Z M 157.59 126.81 L 158.50 127.28 C 159.35 127.71 160.40 127.38 160.83 126.53 C 161.27 125.68 160.93 124.64 160.08 124.20 L 159.16 123.73 C 158.32 123.29 157.27 123.63 156.84 124.48 C 156.40 125.33 156.74 126.37 157.59 126.81 Z M 158.53 127.29 L 159.43 127.73 C 160.29 128.16 161.33 127.80 161.75 126.95 C 162.17 126.09 161.82 125.05 160.96 124.63 L 160.06 124.19 C 159.20 123.77 158.16 124.12 157.74 124.98 C 157.32 125.83 157.67 126.87 158.53 127.29 Z M 159.46 127.75 L 160.32 128.15 C 161.19 128.56 162.22 128.19 162.62 127.32 C 163.03 126.46 162.66 125.43 161.79 125.02 L 160.93 124.62 C 160.07 124.21 159.04 124.58 158.63 125.45 C 158.23 126.31 158.60 127.34 159.46 127.75 Z M 160.36 128.17 L 161.38 128.61 C 162.25 128.99 163.27 128.60 163.65 127.72 C 164.03 126.85 163.64 125.83 162.76 125.45 L 161.75 125.00 C 160.88 124.62 159.86 125.02 159.47 125.89 C 159.09 126.77 159.49 127.79 160.36 128.17 Z M 161.43 128.63 L 162.37 129.01 C 163.26 129.36 164.26 128.93 164.62 128.05 C 164.97 127.16 164.54 126.16 163.65 125.80 L 162.71 125.43 C 161.82 125.07 160.82 125.50 160.47 126.39 C 160.11 127.27 160.54 128.28 161.43 128.63 Z M 162.42 129.03 L 163.31 129.35 C 164.21 129.68 165.20 129.22 165.52 128.32 C 165.85 127.43 165.39 126.44 164.50 126.11 L 163.60 125.79 C 162.71 125.46 161.72 125.92 161.39 126.82 C 161.07 127.71 161.53 128.70 162.42 129.03 Z M 163.36 129.36 L 164.23 129.66 C 165.13 129.96 166.11 129.48 166.41 128.58 C 166.71 127.68 166.23 126.70 165.33 126.40 L 164.46 126.10 C 163.55 125.80 162.58 126.28 162.27 127.18 C 161.97 128.08 162.45 129.06 163.36 129.36 Z M 164.26 129.66 L 165.19 129.96 C 166.09 130.25 167.06 129.75 167.35 128.85 C 167.64 127.94 167.14 126.97 166.23 126.69 L 165.30 126.39 C 164.40 126.10 163.43 126.60 163.14 127.51 C 162.85 128.41 163.35 129.38 164.26 129.66 Z M 165.21 129.97 L 166.17 130.25 C 167.07 130.53 168.03 130.01 168.30 129.11 C 168.58 128.20 168.07 127.24 167.16 126.97 L 166.21 126.68 C 165.30 126.41 164.34 126.92 164.07 127.83 C 163.80 128.73 164.31 129.69 165.21 129.97 Z M 166.19 130.26 L 167.16 130.53 C 168.07 130.79 169.02 130.27 169.28 129.36 C 169.54 128.45 169.01 127.50 168.10 127.24 L 167.13 126.97 C 166.23 126.71 165.28 127.23 165.02 128.14 C 164.76 129.05 165.28 130.00 166.19 130.26 Z M 167.19 130.54 L 168.16 130.80 C 169.07 131.05 170.01 130.51 170.26 129.60 C 170.51 128.69 169.97 127.75 169.06 127.51 L 168.08 127.24 C 167.17 126.99 166.23 127.53 165.99 128.44 C 165.74 129.35 166.28 130.29 167.19 130.54 Z M 168.19 130.81 L 169.15 131.05 C 170.06 131.28 170.99 130.73 171.22 129.82 C 171.45 128.91 170.90 127.98 169.99 127.75 L 169.03 127.50 C 168.12 127.27 167.19 127.82 166.96 128.73 C 166.73 129.64 167.28 130.57 168.19 130.81 Z M 169.18 131.05 L 170.15 131.28 C 171.06 131.50 171.98 130.94 172.19 130.02 C 172.41 129.11 171.85 128.19 170.93 127.98 L 169.96 127.75 C 169.05 127.53 168.13 128.09 167.91 129.01 C 167.70 129.92 168.26 130.84 169.18 131.05 Z M 170.18 131.29 L 171.17 131.50 C 172.08 131.70 172.99 131.12 173.18 130.20 C 173.38 129.29 172.80 128.38 171.88 128.19 L 170.90 127.97 C 169.98 127.78 169.08 128.36 168.88 129.27 C 168.69 130.19 169.27 131.09 170.18 131.29 Z M 171.21 131.51 L 172.19 131.69 C 173.11 131.87 174.00 131.27 174.17 130.35 C 174.35 129.43 173.74 128.54 172.83 128.37 L 171.84 128.18 C 170.93 128.01 170.04 128.61 169.86 129.53 C 169.69 130.44 170.29 131.33 171.21 131.51 Z M 172.23 131.69 L 173.21 131.85 C 174.12 132.01 174.99 131.39 175.14 130.47 C 175.29 129.55 174.67 128.68 173.76 128.53 L 172.78 128.37 C 171.87 128.22 171.00 128.84 170.85 129.76 C 170.69 130.67 171.32 131.54 172.23 131.69 Z M 173.24 131.85 L 174.23 131.99 C 175.14 132.13 175.99 131.49 176.13 130.57 C 176.26 129.66 175.62 128.80 174.70 128.67 L 173.72 128.53 C 172.80 128.40 171.95 129.04 171.82 129.95 C 171.69 130.87 172.32 131.72 173.24 131.85 Z M 174.25 131.99 L 175.26 132.12 C 176.17 132.23 177.01 131.59 177.12 130.67 C 177.24 129.76 176.59 128.92 175.68 128.80 L 174.67 128.68 C 173.76 128.56 172.92 129.21 172.81 130.12 C 172.69 131.04 173.34 131.88 174.25 131.99 Z M 175.28 132.11 L 176.29 132.23 C 177.21 132.33 178.03 131.68 178.13 130.76 C 178.24 129.85 177.58 129.03 176.67 128.92 L 175.65 128.81 C 174.74 128.70 173.92 129.36 173.81 130.27 C 173.71 131.19 174.37 132.01 175.28 132.11 Z M 176.31 132.22 L 177.32 132.33 C 178.23 132.42 179.04 131.76 179.14 130.85 C 179.23 129.94 178.57 129.12 177.66 129.03 L 176.65 128.93 C 175.74 128.83 174.93 129.50 174.83 130.41 C 174.74 131.32 175.40 132.13 176.31 132.22 Z M 177.34 132.32 L 178.35 132.41 C 179.26 132.49 180.06 131.83 180.14 130.92 C 180.22 130.01 179.55 129.21 178.65 129.13 L 177.64 129.04 C 176.73 128.96 175.93 129.62 175.85 130.53 C 175.76 131.44 176.43 132.24 177.34 132.32 Z M 178.37 132.41 L 179.37 132.48 C 180.27 132.55 181.06 131.87 181.13 130.97 C 181.20 130.07 180.52 129.28 179.62 129.21 L 178.62 129.13 C 177.72 129.07 176.93 129.74 176.86 130.65 C 176.79 131.55 177.47 132.34 178.37 132.41 Z M 179.40 132.48 L 180.38 132.53 C 181.28 132.58 182.05 131.90 182.10 131.00 C 182.16 130.10 181.47 129.32 180.57 129.27 L 179.59 129.21 C 178.69 129.16 177.92 129.85 177.86 130.75 C 177.81 131.65 178.50 132.42 179.40 132.48 Z M 180.41 132.53 L 181.46 132.56 C 182.36 132.60 183.11 131.90 183.14 131.00 C 183.17 130.10 182.47 129.35 181.58 129.32 L 180.53 129.28 C 179.63 129.25 178.88 129.95 178.85 130.84 C 178.82 131.74 179.52 132.49 180.41 132.53 Z M 181.49 132.55 L 182.49 132.57 C 183.38 132.59 184.12 131.88 184.13 130.99 C 184.15 130.09 183.44 129.36 182.55 129.34 L 181.55 129.32 C 180.65 129.31 179.92 130.02 179.90 130.91 C 179.89 131.80 180.60 132.54 181.49 132.55 Z M 182.51 132.56 L 183.48 132.57 C 184.37 132.57 185.09 131.86 185.09 130.97 C 185.10 130.08 184.38 129.36 183.50 129.36 L 182.53 129.35 C 181.64 129.35 180.92 130.06 180.91 130.95 C 180.91 131.84 181.62 132.56 182.51 132.56 Z M 183.49 132.56 L 184.43 132.56 C 185.31 132.56 186.03 131.84 186.03 130.96 C 186.03 130.08 185.32 129.37 184.43 129.37 L 183.49 129.37 C 182.61 129.37 181.89 130.08 181.89 130.96 C 181.89 131.84 182.61 132.56 183.49 132.56 Z M 184.44 132.55 L 185.37 132.55 C 186.25 132.55 186.96 131.84 186.96 130.96 C 186.96 130.08 186.25 129.37 185.37 129.37 L 184.43 129.38 C 183.55 129.38 182.85 130.09 182.85 130.96 C 182.85 131.84 183.56 132.55 184.44 132.55 Z M 185.38 132.54 L 186.36 132.53 C 187.23 132.53 187.94 131.82 187.93 130.95 C 187.93 130.08 187.22 129.38 186.35 129.38 L 185.36 129.38 C 184.49 129.39 183.79 130.10 183.79 130.97 C 183.80 131.84 184.51 132.54 185.38 132.54 Z M 186.37 132.52 L 187.43 132.51 C 188.30 132.51 188.99 131.80 188.98 130.93 C 188.98 130.06 188.27 129.37 187.40 129.38 L 186.34 129.39 C 185.47 129.40 184.78 130.11 184.79 130.97 C 184.79 131.84 185.50 132.53 186.37 132.52 Z M 187.44 132.50 L 188.43 132.49 C 189.29 132.47 189.98 131.77 189.97 130.90 C 189.95 130.04 189.24 129.36 188.38 129.37 L 187.39 129.39 C 186.53 129.40 185.84 130.11 185.86 130.97 C 185.87 131.83 186.58 132.52 187.44 132.50 Z M 188.45 132.48 L 189.42 132.45 C 190.28 132.43 190.95 131.71 190.92 130.86 C 190.90 130.00 190.18 129.33 189.33 129.35 L 188.36 129.38 C 187.51 129.41 186.83 130.12 186.86 130.98 C 186.88 131.83 187.60 132.50 188.45 132.48 Z M 189.46 132.44 L 190.47 132.39 C 191.32 132.34 191.97 131.61 191.92 130.76 C 191.88 129.91 191.15 129.26 190.30 129.31 L 189.29 129.36 C 188.44 129.41 187.79 130.13 187.83 130.98 C 187.88 131.83 188.61 132.49 189.46 132.44 Z M 190.52 132.37 L 191.55 132.28 C 192.39 132.20 193.01 131.46 192.94 130.61 C 192.86 129.77 192.12 129.15 191.27 129.23 L 190.24 129.32 C 189.40 129.40 188.78 130.14 188.86 130.98 C 188.93 131.83 189.68 132.45 190.52 132.37 Z M 191.62 132.26 L 192.65 132.12 C 193.48 132.00 194.06 131.23 193.95 130.40 C 193.83 129.56 193.06 128.98 192.23 129.10 L 191.20 129.24 C 190.36 129.36 189.78 130.13 189.90 130.96 C 190.02 131.80 190.79 132.38 191.62 132.26 Z M 192.74 132.09 L 193.74 131.89 C 194.55 131.72 195.08 130.92 194.92 130.10 C 194.75 129.28 193.95 128.76 193.13 128.92 L 192.14 129.13 C 191.32 129.29 190.79 130.09 190.95 130.91 C 191.12 131.73 191.92 132.26 192.74 132.09 Z M 193.82 131.86 L 194.79 131.60 C 195.59 131.39 196.06 130.57 195.85 129.77 C 195.64 128.96 194.82 128.49 194.02 128.70 L 193.05 128.96 C 192.25 129.17 191.77 129.99 191.98 130.79 C 192.20 131.59 193.02 132.07 193.82 131.86 Z M 194.85 131.57 L 195.80 131.27 C 196.58 131.02 197.02 130.19 196.77 129.41 C 196.53 128.62 195.69 128.19 194.91 128.43 L 193.96 128.73 C 193.18 128.98 192.74 129.81 192.99 130.59 C 193.23 131.38 194.06 131.81 194.85 131.57 Z M 195.84 131.24 L 196.78 130.91 C 197.55 130.65 197.95 129.81 197.68 129.04 C 197.42 128.27 196.58 127.87 195.81 128.13 L 194.87 128.46 C 194.10 128.73 193.70 129.57 193.97 130.33 C 194.23 131.10 195.07 131.51 195.84 131.24 Z M 196.80 130.89 L 197.73 130.55 C 198.49 130.27 198.87 129.44 198.60 128.68 C 198.32 127.92 197.48 127.54 196.73 127.81 L 195.79 128.16 C 195.04 128.43 194.65 129.27 194.93 130.03 C 195.20 130.78 196.04 131.17 196.80 130.89 Z M 197.73 130.54 L 197.92 130.47 C 198.67 130.19 199.06 129.36 198.78 128.61 C 198.50 127.86 197.67 127.47 196.92 127.75 L 196.72 127.82 C 195.98 128.10 195.59 128.94 195.87 129.69 C 196.15 130.44 196.98 130.82 197.73 130.54 Z"
      fill="black"
      fill-rule="nonzero" /><path d="M 134.91 140.56 L 133.59 140.72 C 132.68 140.83 132.03 141.65 132.13 142.56 C 132.24 143.47 133.07 144.12 133.98 144.02 L 135.31 143.86 C 136.22 143.75 136.87 142.92 136.76 142.01 C 136.65 141.10 135.83 140.45 134.91 140.56 Z M 133.47 140.74 L 132.53 140.92 C 131.63 141.09 131.04 141.97 131.22 142.87 C 131.39 143.77 132.27 144.35 133.17 144.18 L 134.10 144.00 C 135.00 143.82 135.59 142.95 135.41 142.05 C 135.24 141.15 134.37 140.56 133.47 140.74 Z M 131.55 141.51 L 131.38 141.73 C 130.81 142.45 130.92 143.49 131.64 144.06 C 132.36 144.63 133.40 144.52 133.97 143.80 L 134.15 143.58 C 134.72 142.87 134.60 141.82 133.88 141.25 C 133.17 140.68 132.12 140.80 131.55 141.51 Z M 132.09 144.32 L 132.69 144.55 C 133.55 144.87 134.51 144.44 134.83 143.58 C 135.16 142.72 134.73 141.76 133.87 141.44 L 133.26 141.21 C 132.41 140.89 131.45 141.32 131.12 142.18 C 130.80 143.03 131.23 143.99 132.09 144.32 Z M 133.01 144.63 L 134.27 144.84 C 135.18 144.99 136.03 144.38 136.18 143.48 C 136.34 142.58 135.73 141.72 134.82 141.57 L 133.56 141.36 C 132.65 141.21 131.80 141.81 131.65 142.72 C 131.49 143.62 132.10 144.48 133.01 144.63 Z M 134.39 144.86 L 135.63 144.97 C 136.54 145.06 137.35 144.39 137.43 143.48 C 137.52 142.57 136.85 141.76 135.94 141.67 L 134.71 141.56 C 133.79 141.47 132.99 142.14 132.90 143.05 C 132.81 143.96 133.48 144.77 134.39 144.86 Z M 135.69 144.98 L 136.60 145.03 C 137.51 145.09 138.29 144.39 138.35 143.48 C 138.40 142.57 137.71 141.78 136.80 141.73 L 135.88 141.67 C 134.97 141.62 134.19 142.31 134.13 143.22 C 134.08 144.14 134.77 144.92 135.69 144.98 Z M 136.63 145.03 L 137.61 145.07 C 138.52 145.11 139.30 144.40 139.33 143.48 C 139.37 142.57 138.66 141.80 137.74 141.76 L 136.76 141.72 C 135.85 141.69 135.08 142.40 135.04 143.31 C 135.00 144.23 135.72 145.00 136.63 145.03 Z M 137.64 145.07 L 138.67 145.10 C 139.58 145.12 140.34 144.39 140.36 143.48 C 140.38 142.57 139.66 141.81 138.75 141.79 L 137.72 141.76 C 136.80 141.74 136.04 142.47 136.02 143.38 C 136.00 144.29 136.72 145.05 137.64 145.07 Z M 138.70 145.10 L 139.75 145.10 C 140.67 145.11 141.41 144.38 141.42 143.46 C 141.43 142.55 140.69 141.80 139.78 141.79 L 138.72 141.79 C 137.81 141.78 137.06 142.51 137.05 143.43 C 137.05 144.34 137.78 145.09 138.70 145.10 Z M 139.78 145.10 L 140.84 145.10 C 141.75 145.09 142.49 144.34 142.48 143.43 C 142.47 142.52 141.73 141.78 140.81 141.79 L 139.75 141.79 C 138.84 141.80 138.10 142.55 138.11 143.46 C 138.12 144.38 138.86 145.11 139.78 145.10 Z M 140.86 145.10 L 141.91 145.07 C 142.82 145.05 143.54 144.30 143.52 143.38 C 143.50 142.47 142.75 141.74 141.83 141.76 L 140.79 141.79 C 139.87 141.81 139.15 142.57 139.17 143.48 C 139.19 144.39 139.95 145.12 140.86 145.10 Z M 141.93 145.07 L 142.99 145.03 C 143.90 144.99 144.61 144.22 144.58 143.31 C 144.54 142.40 143.77 141.69 142.86 141.73 L 141.80 141.77 C 140.89 141.80 140.18 142.57 140.22 143.48 C 140.25 144.40 141.02 145.11 141.93 145.07 Z M 143.02 145.02 L 144.05 144.96 C 144.95 144.91 145.65 144.13 145.60 143.22 C 145.54 142.31 144.76 141.62 143.85 141.67 L 142.83 141.73 C 141.92 141.78 141.23 142.56 141.28 143.47 C 141.33 144.38 142.11 145.08 143.02 145.02 Z M 144.08 144.96 L 145.07 144.88 C 145.98 144.81 146.66 144.01 146.58 143.11 C 146.51 142.20 145.72 141.52 144.81 141.60 L 143.82 141.68 C 142.91 141.75 142.24 142.54 142.31 143.45 C 142.38 144.36 143.17 145.03 144.08 144.96 Z M 145.11 144.87 L 146.09 144.77 C 146.99 144.68 147.64 143.87 147.55 142.97 C 147.46 142.07 146.65 141.41 145.75 141.50 L 144.77 141.60 C 143.87 141.70 143.22 142.50 143.31 143.41 C 143.40 144.31 144.21 144.97 145.11 144.87 Z M 146.12 144.76 L 147.09 144.64 C 147.98 144.53 148.62 143.71 148.51 142.81 C 148.39 141.91 147.57 141.28 146.67 141.39 L 145.71 141.51 C 144.81 141.62 144.18 142.45 144.29 143.34 C 144.40 144.24 145.22 144.88 146.12 144.76 Z M 147.12 144.63 L 148.09 144.49 C 148.98 144.35 149.59 143.52 149.46 142.63 C 149.32 141.73 148.49 141.12 147.60 141.25 L 146.64 141.40 C 145.74 141.53 145.13 142.37 145.26 143.26 C 145.40 144.15 146.23 144.77 147.12 144.63 Z M 148.12 144.48 L 149.09 144.31 C 149.98 144.15 150.58 143.31 150.42 142.42 C 150.27 141.53 149.42 140.94 148.53 141.09 L 147.56 141.26 C 146.67 141.42 146.08 142.26 146.23 143.15 C 146.39 144.04 147.23 144.63 148.12 144.48 Z M 149.13 144.30 L 150.11 144.10 C 150.99 143.93 151.56 143.08 151.39 142.20 C 151.22 141.31 150.36 140.74 149.48 140.91 L 148.50 141.11 C 147.62 141.28 147.05 142.13 147.22 143.01 C 147.39 143.90 148.25 144.47 149.13 144.30 Z M 150.13 144.09 L 151.11 143.88 C 151.99 143.69 152.55 142.83 152.36 141.96 C 152.17 141.08 151.31 140.53 150.43 140.71 L 149.45 140.92 C 148.58 141.11 148.02 141.97 148.21 142.85 C 148.40 143.72 149.26 144.28 150.13 144.09 Z M 151.14 143.87 L 152.12 143.65 C 152.98 143.45 153.53 142.58 153.33 141.71 C 153.13 140.84 152.26 140.30 151.39 140.50 L 150.41 140.73 C 149.54 140.93 149.00 141.79 149.20 142.66 C 149.40 143.53 150.27 144.07 151.14 143.87 Z M 152.13 143.64 L 153.11 143.40 C 153.97 143.19 154.50 142.32 154.29 141.46 C 154.08 140.59 153.21 140.06 152.35 140.27 L 151.37 140.51 C 150.51 140.72 149.98 141.59 150.19 142.45 C 150.40 143.31 151.27 143.84 152.13 143.64 Z M 153.12 143.39 L 154.09 143.14 C 154.95 142.93 155.47 142.06 155.25 141.20 C 155.03 140.34 154.16 139.82 153.31 140.04 L 152.34 140.28 C 151.48 140.50 150.96 141.37 151.18 142.23 C 151.39 143.09 152.26 143.61 153.12 143.39 Z M 154.10 143.13 L 155.09 142.88 C 155.94 142.66 156.45 141.79 156.23 140.93 C 156.01 140.08 155.14 139.57 154.29 139.79 L 153.30 140.05 C 152.45 140.27 151.93 141.14 152.16 141.99 C 152.38 142.84 153.25 143.36 154.10 143.13 Z M 155.10 142.86 L 156.09 142.60 C 156.93 142.38 157.43 141.51 157.21 140.66 C 156.98 139.82 156.12 139.32 155.27 139.54 L 154.28 139.80 C 153.44 140.03 152.94 140.90 153.16 141.74 C 153.38 142.59 154.25 143.09 155.10 142.86 Z M 156.09 142.59 L 157.07 142.32 C 157.91 142.09 158.40 141.23 158.17 140.39 C 157.95 139.56 157.08 139.06 156.25 139.29 L 155.27 139.55 C 154.43 139.78 153.94 140.64 154.16 141.48 C 154.39 142.32 155.25 142.81 156.09 142.59 Z M 157.07 142.31 L 158.03 142.04 C 158.86 141.81 159.35 140.96 159.12 140.12 C 158.89 139.29 158.03 138.81 157.20 139.04 L 156.24 139.30 C 155.41 139.53 154.92 140.39 155.15 141.22 C 155.38 142.05 156.24 142.54 157.07 142.31 Z M 158.04 142.03 L 158.98 141.77 C 159.81 141.54 160.29 140.68 160.06 139.86 C 159.83 139.03 158.97 138.55 158.15 138.78 L 157.20 139.05 C 156.38 139.28 155.90 140.13 156.13 140.96 C 156.36 141.78 157.21 142.26 158.04 142.03 Z M 158.98 141.75 L 159.91 141.49 C 160.73 141.26 161.20 140.41 160.97 139.60 C 160.74 138.78 159.89 138.30 159.07 138.53 L 158.15 138.80 C 157.33 139.03 156.85 139.88 157.08 140.69 C 157.32 141.51 158.16 141.99 158.98 141.75 Z M 159.91 141.48 L 160.92 141.19 C 161.73 140.96 162.20 140.12 161.97 139.31 C 161.74 138.50 160.89 138.03 160.08 138.26 L 159.07 138.55 C 158.26 138.78 157.79 139.62 158.02 140.43 C 158.25 141.24 159.10 141.71 159.91 141.48 Z M 160.91 141.18 L 161.91 140.90 C 162.71 140.67 163.18 139.83 162.95 139.03 C 162.72 138.23 161.89 137.76 161.08 137.99 L 160.09 138.27 C 159.28 138.50 158.82 139.34 159.04 140.14 C 159.27 140.94 160.11 141.41 160.91 141.18 Z M 161.90 140.89 L 162.87 140.61 C 163.67 140.39 164.13 139.56 163.91 138.76 C 163.68 137.97 162.86 137.50 162.06 137.73 L 161.09 138.00 C 160.29 138.22 159.83 139.05 160.05 139.85 C 160.28 140.65 161.10 141.11 161.90 140.89 Z M 162.86 140.60 L 163.80 140.34 C 164.60 140.12 165.06 139.31 164.84 138.52 C 164.62 137.72 163.81 137.26 163.01 137.48 L 162.07 137.74 C 161.28 137.96 160.82 138.77 161.03 139.57 C 161.25 140.36 162.07 140.82 162.86 140.60 Z M 163.79 140.33 L 164.70 140.09 C 165.49 139.88 165.96 139.07 165.75 138.29 C 165.54 137.50 164.73 137.03 163.95 137.24 L 163.03 137.49 C 162.24 137.70 161.78 138.50 161.99 139.29 C 162.20 140.08 163.00 140.54 163.79 140.33 Z M 164.68 140.08 L 165.67 139.83 C 166.45 139.63 166.92 138.84 166.72 138.06 C 166.52 137.27 165.73 136.80 164.95 137.00 L 163.96 137.25 C 163.18 137.45 162.71 138.24 162.91 139.03 C 163.11 139.81 163.90 140.28 164.68 140.08 Z M 165.65 139.83 L 166.64 139.59 C 167.42 139.40 167.90 138.62 167.71 137.84 C 167.52 137.06 166.74 136.58 165.96 136.77 L 164.97 137.00 C 164.19 137.19 163.70 137.98 163.89 138.76 C 164.08 139.54 164.86 140.02 165.65 139.83 Z M 166.62 139.59 L 167.59 139.36 C 168.37 139.19 168.85 138.41 168.68 137.63 C 168.50 136.85 167.72 136.37 166.94 136.55 L 165.97 136.77 C 165.20 136.95 164.71 137.72 164.89 138.50 C 165.07 139.28 165.84 139.77 166.62 139.59 Z M 167.58 139.36 L 168.53 139.15 C 169.31 138.97 169.79 138.21 169.62 137.43 C 169.45 136.66 168.68 136.17 167.91 136.34 L 166.95 136.55 C 166.18 136.72 165.69 137.49 165.86 138.27 C 166.03 139.04 166.80 139.53 167.58 139.36 Z M 168.53 139.14 L 169.28 138.98 C 170.06 138.81 170.55 138.04 170.38 137.27 C 170.21 136.50 169.44 136.01 168.67 136.18 L 167.91 136.35 C 167.14 136.51 166.65 137.28 166.82 138.05 C 166.99 138.82 167.75 139.31 168.53 139.14 Z"
      fill="black"
      fill-rule="nonzero" /><path d="M 136.33 161.60 L 136.22 162.57 C 136.11 163.43 136.73 164.21 137.59 164.31 C 138.45 164.42 139.23 163.80 139.33 162.94 L 139.45 161.97 C 139.55 161.11 138.94 160.33 138.08 160.23 C 137.22 160.12 136.43 160.74 136.33 161.60 Z M 136.21 162.58 L 136.10 163.55 C 136.01 164.41 136.63 165.19 137.49 165.29 C 138.35 165.39 139.13 164.77 139.22 163.91 L 139.33 162.93 C 139.43 162.07 138.81 161.29 137.95 161.19 C 137.09 161.10 136.31 161.72 136.21 162.58 Z M 136.10 163.57 L 136.00 164.57 C 135.92 165.43 136.55 166.20 137.41 166.28 C 138.27 166.37 139.04 165.74 139.13 164.88 L 139.22 163.88 C 139.31 163.02 138.68 162.25 137.82 162.17 C 136.96 162.08 136.19 162.71 136.10 163.57 Z M 136.00 164.60 L 135.92 165.62 C 135.85 166.48 136.49 167.24 137.36 167.31 C 138.22 167.37 138.98 166.73 139.05 165.87 L 139.13 164.85 C 139.20 163.98 138.55 163.23 137.69 163.16 C 136.83 163.09 136.07 163.73 136.00 164.60 Z M 135.91 165.65 L 135.86 166.65 C 135.81 167.52 136.47 168.26 137.34 168.31 C 138.20 168.36 138.94 167.70 138.99 166.83 L 139.05 165.83 C 139.10 164.96 138.44 164.22 137.57 164.17 C 136.71 164.12 135.96 164.79 135.91 165.65 Z M 135.85 166.69 L 135.82 167.66 C 135.79 168.53 136.47 169.26 137.34 169.29 C 138.21 169.32 138.94 168.64 138.97 167.77 L 139.00 166.79 C 139.03 165.93 138.35 165.20 137.48 165.17 C 136.61 165.14 135.88 165.82 135.85 166.69 Z M 135.81 167.70 L 135.80 168.69 C 135.79 169.56 136.49 170.28 137.36 170.29 C 138.23 170.30 138.95 169.61 138.96 168.73 L 138.97 167.74 C 138.98 166.87 138.29 166.15 137.41 166.14 C 136.54 166.13 135.83 166.82 135.81 167.70 Z M 135.80 168.72 L 135.80 169.73 C 135.81 170.61 136.52 171.31 137.39 171.31 C 138.27 171.30 138.97 170.59 138.97 169.72 L 138.96 168.71 C 138.96 167.83 138.25 167.13 137.37 167.13 C 136.50 167.13 135.79 167.85 135.80 168.72 Z M 135.80 169.76 L 135.82 170.78 C 135.84 171.66 136.57 172.35 137.44 172.34 C 138.32 172.32 139.01 171.59 138.99 170.71 L 138.97 169.69 C 138.95 168.81 138.23 168.12 137.35 168.14 C 136.47 168.16 135.78 168.88 135.80 169.76 Z M 135.82 170.81 L 135.85 171.82 C 135.89 172.70 136.63 173.38 137.51 173.35 C 138.38 173.32 139.07 172.58 139.04 171.70 L 139.00 170.69 C 138.96 169.81 138.23 169.12 137.35 169.16 C 136.47 169.19 135.78 169.93 135.82 170.81 Z M 135.85 171.84 L 135.91 172.84 C 135.95 173.71 136.70 174.39 137.58 174.34 C 138.46 174.30 139.14 173.55 139.09 172.67 L 139.04 171.68 C 138.99 170.80 138.24 170.12 137.36 170.17 C 136.48 170.21 135.81 170.96 135.85 171.84 Z M 135.90 172.86 L 135.97 173.85 C 136.03 174.73 136.79 175.40 137.67 175.34 C 138.55 175.28 139.22 174.52 139.16 173.64 L 139.09 172.64 C 139.03 171.76 138.27 171.10 137.39 171.16 C 136.51 171.22 135.85 171.98 135.90 172.86 Z M 135.97 173.88 L 136.05 174.87 C 136.12 175.75 136.90 176.41 137.78 176.34 C 138.66 176.26 139.31 175.49 139.24 174.61 L 139.16 173.62 C 139.09 172.74 138.31 172.08 137.43 172.15 C 136.55 172.22 135.90 173.00 135.97 173.88 Z M 136.05 174.90 L 136.15 175.90 C 136.23 176.78 137.02 177.42 137.90 177.34 C 138.78 177.25 139.42 176.47 139.34 175.59 L 139.24 174.59 C 139.15 173.71 138.37 173.06 137.49 173.15 C 136.61 173.23 135.97 174.02 136.05 174.90 Z M 136.15 175.92 L 136.26 176.92 C 136.36 177.80 137.15 178.43 138.03 178.34 C 138.91 178.24 139.54 177.45 139.45 176.57 L 139.33 175.57 C 139.24 174.69 138.45 174.05 137.57 174.15 C 136.69 174.25 136.05 175.04 136.15 175.92 Z M 136.26 176.94 L 136.38 177.93 C 136.49 178.81 137.29 179.43 138.17 179.33 C 139.05 179.22 139.68 178.42 139.57 177.54 L 139.44 176.55 C 139.33 175.67 138.53 175.04 137.65 175.15 C 136.78 175.26 136.15 176.06 136.26 176.94 Z M 136.39 177.95 L 136.52 178.95 C 136.64 179.82 137.45 180.44 138.33 180.32 C 139.21 180.20 139.82 179.39 139.70 178.51 L 139.56 177.52 C 139.44 176.64 138.63 176.03 137.76 176.15 C 136.88 176.27 136.27 177.08 136.39 177.95 Z M 136.53 178.96 L 136.67 179.96 C 136.81 180.83 137.62 181.44 138.50 181.30 C 139.37 181.17 139.98 180.36 139.85 179.48 L 139.70 178.49 C 139.57 177.62 138.75 177.01 137.87 177.14 C 137.00 177.27 136.40 178.09 136.53 178.96 Z M 136.68 179.98 L 136.84 180.96 C 136.98 181.84 137.80 182.43 138.68 182.29 C 139.55 182.15 140.14 181.33 140.00 180.45 L 139.84 179.46 C 139.70 178.59 138.88 178.00 138.00 178.14 C 137.13 178.28 136.54 179.10 136.68 179.98 Z M 136.84 180.98 L 137.01 181.96 C 137.16 182.83 137.99 183.42 138.86 183.27 C 139.74 183.12 140.32 182.29 140.17 181.42 L 140.00 180.43 C 139.85 179.56 139.02 178.98 138.15 179.13 C 137.27 179.28 136.69 180.11 136.84 180.98 Z M 137.02 181.98 L 137.20 182.98 C 137.36 183.84 138.20 184.42 139.06 184.26 C 139.93 184.10 140.51 183.26 140.35 182.39 L 140.16 181.40 C 140.00 180.53 139.17 179.96 138.30 180.12 C 137.43 180.28 136.86 181.11 137.02 181.98 Z M 137.21 182.99 L 137.40 183.98 C 137.57 184.84 138.41 185.41 139.27 185.24 C 140.14 185.07 140.70 184.23 140.53 183.37 L 140.34 182.38 C 140.17 181.52 139.33 180.95 138.47 181.12 C 137.60 181.29 137.04 182.13 137.21 182.99 Z M 137.41 183.99 L 137.61 184.97 C 137.78 185.83 138.62 186.39 139.48 186.21 C 140.34 186.04 140.90 185.20 140.72 184.34 L 140.52 183.36 C 140.35 182.50 139.51 181.94 138.65 182.11 C 137.79 182.29 137.23 183.13 137.41 183.99 Z M 137.61 184.98 L 137.82 185.95 C 137.99 186.81 138.83 187.36 139.69 187.18 C 140.55 187.00 141.10 186.16 140.92 185.30 L 140.72 184.33 C 140.54 183.47 139.70 182.92 138.84 183.10 C 137.98 183.28 137.43 184.12 137.61 184.98 Z M 137.82 185.95 L 138.03 186.92 C 138.21 187.77 139.05 188.32 139.90 188.14 C 140.75 187.96 141.30 187.12 141.12 186.27 L 140.91 185.30 C 140.73 184.44 139.89 183.90 139.04 184.08 C 138.19 184.26 137.64 185.10 137.82 185.95 Z M 138.03 186.92 L 138.25 187.95 C 138.44 188.80 139.27 189.34 140.12 189.16 C 140.97 188.97 141.51 188.14 141.33 187.29 L 141.11 186.26 C 140.93 185.41 140.09 184.87 139.24 185.06 C 138.39 185.24 137.85 186.07 138.03 186.92 Z M 138.27 187.95 L 138.49 188.97 C 138.68 189.82 139.51 190.35 140.35 190.16 C 141.19 189.98 141.73 189.15 141.54 188.30 L 141.32 187.28 C 141.13 186.44 140.30 185.91 139.46 186.09 C 138.61 186.28 138.08 187.11 138.27 187.95 Z M 138.51 188.99 L 138.74 189.98 C 138.93 190.81 139.76 191.33 140.60 191.14 C 141.43 190.94 141.95 190.11 141.76 189.28 L 141.53 188.29 C 141.33 187.45 140.50 186.94 139.67 187.13 C 138.83 187.32 138.31 188.15 138.51 188.99 Z M 138.75 190.00 L 138.99 190.94 C 139.20 191.77 140.03 192.27 140.86 192.06 C 141.68 191.85 142.18 191.02 141.97 190.19 L 141.74 189.25 C 141.53 188.43 140.70 187.93 139.87 188.13 C 139.05 188.34 138.55 189.18 138.75 190.00 Z M 139.01 190.98 L 139.26 191.87 C 139.49 192.69 140.33 193.16 141.14 192.93 C 141.95 192.71 142.43 191.86 142.20 191.05 L 141.95 190.16 C 141.72 189.35 140.88 188.87 140.07 189.10 C 139.26 189.32 138.78 190.17 139.01 190.98 Z M 139.29 191.94 L 139.64 192.98 C 139.90 193.78 140.75 194.21 141.55 193.95 C 142.34 193.69 142.77 192.83 142.51 192.04 L 142.17 190.99 C 141.91 190.20 141.05 189.76 140.26 190.03 C 139.46 190.29 139.03 191.14 139.29 191.94 Z M 139.69 193.08 L 140.08 194.01 C 140.39 194.77 141.26 195.14 142.03 194.82 C 142.79 194.51 143.16 193.63 142.84 192.87 L 142.46 191.94 C 142.14 191.18 141.27 190.81 140.51 191.13 C 139.74 191.44 139.38 192.32 139.69 193.08 Z M 140.15 194.13 L 140.59 194.96 C 140.97 195.68 141.87 195.96 142.59 195.57 C 143.31 195.19 143.58 194.30 143.20 193.57 L 142.76 192.75 C 142.38 192.03 141.49 191.75 140.77 192.13 C 140.04 192.51 139.77 193.41 140.15 194.13 Z M 140.69 195.10 L 141.24 195.88 C 141.70 196.54 142.61 196.71 143.27 196.25 C 143.94 195.79 144.10 194.87 143.64 194.21 L 143.10 193.43 C 142.64 192.77 141.72 192.60 141.06 193.06 C 140.40 193.53 140.23 194.44 140.69 195.10 Z M 141.35 196.01 L 142.02 196.76 C 142.55 197.36 143.47 197.41 144.06 196.88 C 144.66 196.34 144.72 195.43 144.19 194.83 L 143.52 194.08 C 142.99 193.48 142.07 193.43 141.47 193.96 C 140.87 194.49 140.82 195.41 141.35 196.01 Z M 142.10 196.83 L 142.82 197.52 C 143.40 198.07 144.31 198.05 144.86 197.48 C 145.41 196.90 145.39 195.99 144.82 195.44 L 144.10 194.75 C 143.52 194.20 142.61 194.22 142.06 194.79 C 141.51 195.37 141.53 196.28 142.10 196.83 Z M 142.86 197.55 L 143.42 198.04 C 144.00 198.57 144.91 198.52 145.44 197.93 C 145.97 197.34 145.92 196.44 145.33 195.91 L 144.78 195.41 C 144.19 194.89 143.28 194.94 142.75 195.53 C 142.22 196.11 142.27 197.02 142.86 197.55 Z"
      fill="black"
      fill-rule="nonzero" /><path d="M 139.42 165.84 L 140.31 165.72 C 141.16 165.60 141.75 164.82 141.64 163.97 C 141.52 163.12 140.74 162.53 139.89 162.64 L 139.00 162.76 C 138.16 162.88 137.56 163.66 137.68 164.51 C 137.79 165.36 138.57 165.95 139.42 165.84 Z M 140.29 165.72 L 141.22 165.61 C 142.07 165.50 142.67 164.73 142.57 163.87 C 142.46 163.02 141.69 162.42 140.83 162.52 L 139.91 162.64 C 139.06 162.74 138.45 163.52 138.56 164.37 C 138.66 165.22 139.44 165.83 140.29 165.72 Z M 141.18 165.62 L 142.18 165.52 C 143.04 165.43 143.66 164.66 143.57 163.81 C 143.49 162.95 142.72 162.32 141.86 162.41 L 140.87 162.51 C 140.01 162.60 139.38 163.37 139.47 164.22 C 139.56 165.08 140.33 165.71 141.18 165.62 Z M 142.14 165.53 L 143.24 165.45 C 144.10 165.38 144.75 164.63 144.69 163.77 C 144.62 162.90 143.87 162.25 143.01 162.32 L 141.90 162.40 C 141.04 162.46 140.39 163.22 140.46 164.08 C 140.52 164.94 141.27 165.59 142.14 165.53 Z M 143.20 165.45 L 144.19 165.40 C 145.06 165.36 145.73 164.62 145.69 163.76 C 145.65 162.89 144.91 162.22 144.04 162.26 L 143.05 162.31 C 142.18 162.35 141.51 163.09 141.55 163.96 C 141.59 164.82 142.33 165.49 143.20 165.45 Z M 144.17 165.41 L 145.11 165.38 C 145.98 165.35 146.66 164.63 146.64 163.76 C 146.61 162.89 145.89 162.21 145.02 162.23 L 144.07 162.26 C 143.20 162.29 142.52 163.01 142.55 163.88 C 142.57 164.75 143.30 165.43 144.17 165.41 Z M 145.09 165.38 L 146.09 165.36 C 146.96 165.34 147.65 164.63 147.64 163.76 C 147.62 162.89 146.90 162.20 146.03 162.21 L 145.04 162.23 C 144.17 162.25 143.48 162.96 143.49 163.83 C 143.51 164.70 144.23 165.39 145.09 165.38 Z M 146.08 165.36 L 147.11 165.35 C 147.98 165.34 148.67 164.63 148.67 163.76 C 148.66 162.89 147.95 162.19 147.08 162.20 L 146.05 162.21 C 145.18 162.22 144.48 162.93 144.49 163.80 C 144.50 164.67 145.21 165.37 146.08 165.36 Z M 147.10 165.35 L 148.14 165.35 C 149.01 165.34 149.71 164.63 149.71 163.77 C 149.71 162.90 149.00 162.19 148.13 162.20 L 147.09 162.20 C 146.22 162.21 145.51 162.91 145.52 163.78 C 145.52 164.65 146.23 165.35 147.10 165.35 Z M 148.14 165.35 L 149.18 165.35 C 150.05 165.34 150.75 164.64 150.75 163.77 C 150.75 162.90 150.04 162.20 149.17 162.20 L 148.13 162.20 C 147.26 162.20 146.56 162.90 146.56 163.77 C 146.56 164.64 147.27 165.35 148.14 165.35 Z M 149.17 165.35 L 150.26 165.35 C 151.13 165.35 151.84 164.64 151.84 163.77 C 151.84 162.90 151.13 162.20 150.26 162.20 L 149.17 162.20 C 148.31 162.20 147.60 162.90 147.60 163.77 C 147.60 164.64 148.31 165.35 149.17 165.35 Z M 150.26 165.35 L 151.36 165.35 C 152.23 165.35 152.94 164.64 152.94 163.77 C 152.94 162.90 152.24 162.20 151.37 162.20 L 150.26 162.20 C 149.39 162.20 148.69 162.90 148.69 163.77 C 148.69 164.64 149.39 165.34 150.26 165.35 Z M 151.36 165.35 L 152.41 165.35 C 153.28 165.35 153.99 164.65 153.99 163.78 C 153.99 162.91 153.29 162.20 152.42 162.20 L 151.37 162.20 C 150.50 162.20 149.79 162.90 149.79 163.77 C 149.79 164.64 150.49 165.34 151.36 165.35 Z M 152.41 165.35 L 153.40 165.35 C 154.27 165.35 154.97 164.65 154.98 163.78 C 154.98 162.91 154.28 162.21 153.41 162.20 L 152.42 162.20 C 151.55 162.20 150.85 162.90 150.84 163.77 C 150.84 164.64 151.54 165.34 152.41 165.35 Z M 153.39 165.35 L 154.31 165.36 C 155.18 165.36 155.89 164.66 155.89 163.80 C 155.90 162.93 155.20 162.22 154.33 162.21 L 153.42 162.20 C 152.55 162.20 151.84 162.90 151.83 163.77 C 151.83 164.63 152.52 165.34 153.39 165.35 Z M 154.30 165.36 L 155.20 165.37 C 156.07 165.38 156.78 164.68 156.79 163.82 C 156.80 162.95 156.11 162.23 155.24 162.22 L 154.34 162.21 C 153.47 162.20 152.76 162.90 152.75 163.76 C 152.74 164.63 153.43 165.34 154.30 165.36 Z M 155.18 165.37 L 156.30 165.39 C 157.16 165.41 157.88 164.73 157.90 163.86 C 157.93 162.99 157.24 162.27 156.37 162.25 L 155.26 162.23 C 154.39 162.20 153.67 162.89 153.65 163.76 C 153.63 164.62 154.31 165.35 155.18 165.37 Z M 156.26 165.39 L 157.24 165.43 C 158.11 165.47 158.84 164.80 158.88 163.94 C 158.92 163.07 158.25 162.34 157.38 162.30 L 156.40 162.26 C 155.54 162.22 154.81 162.89 154.77 163.75 C 154.73 164.62 155.40 165.35 156.26 165.39 Z M 157.20 165.43 L 158.10 165.50 C 158.97 165.56 159.72 164.91 159.78 164.05 C 159.85 163.19 159.20 162.44 158.34 162.37 L 157.43 162.30 C 156.57 162.24 155.81 162.89 155.75 163.75 C 155.69 164.61 156.33 165.37 157.20 165.43 Z M 158.05 165.49 L 158.94 165.59 C 159.80 165.68 160.57 165.06 160.66 164.20 C 160.76 163.34 160.13 162.57 159.27 162.47 L 158.39 162.38 C 157.53 162.29 156.76 162.91 156.67 163.77 C 156.57 164.63 157.19 165.40 158.05 165.49 Z M 158.89 165.58 L 159.80 165.71 C 160.66 165.83 161.45 165.24 161.57 164.38 C 161.69 163.53 161.10 162.74 160.24 162.61 L 159.33 162.48 C 158.47 162.36 157.68 162.95 157.56 163.81 C 157.44 164.66 158.03 165.46 158.89 165.58 Z M 159.75 165.70 L 160.74 165.88 C 161.59 166.03 162.40 165.46 162.55 164.62 C 162.70 163.77 162.14 162.96 161.29 162.80 L 160.30 162.62 C 159.45 162.47 158.64 163.04 158.49 163.89 C 158.33 164.73 158.90 165.55 159.75 165.70 Z M 160.69 165.86 L 161.79 166.10 C 162.63 166.28 163.46 165.74 163.64 164.90 C 163.82 164.06 163.29 163.23 162.45 163.05 L 161.34 162.81 C 160.50 162.63 159.67 163.17 159.49 164.01 C 159.31 164.86 159.85 165.68 160.69 165.86 Z M 161.75 166.09 L 162.67 166.31 C 163.51 166.51 164.35 166.00 164.55 165.16 C 164.75 164.33 164.24 163.48 163.40 163.28 L 162.48 163.06 C 161.65 162.86 160.81 163.37 160.60 164.21 C 160.40 165.05 160.92 165.89 161.75 166.09 Z M 162.63 166.30 L 163.59 166.56 C 164.42 166.78 165.28 166.28 165.50 165.45 C 165.72 164.62 165.23 163.77 164.39 163.55 L 163.44 163.29 C 162.61 163.07 161.75 163.57 161.53 164.40 C 161.31 165.23 161.80 166.08 162.63 166.30 Z M 163.55 166.54 L 164.54 166.84 C 165.36 167.08 166.22 166.61 166.47 165.79 C 166.71 164.96 166.24 164.10 165.42 163.85 L 164.43 163.56 C 163.61 163.32 162.75 163.79 162.50 164.61 C 162.26 165.43 162.73 166.30 163.55 166.54 Z M 164.49 166.82 L 165.47 167.14 C 166.28 167.42 167.16 166.97 167.43 166.16 C 167.70 165.35 167.26 164.47 166.45 164.19 L 165.47 163.87 C 164.65 163.60 163.77 164.04 163.50 164.85 C 163.23 165.67 163.67 166.55 164.49 166.82 Z M 165.41 167.12 L 166.36 167.48 C 167.16 167.79 168.06 167.38 168.36 166.58 C 168.66 165.78 168.26 164.88 167.46 164.58 L 166.51 164.22 C 165.71 163.91 164.81 164.32 164.51 165.12 C 164.20 165.92 164.60 166.82 165.41 167.12 Z M 166.28 167.45 L 167.25 167.88 C 168.04 168.23 168.95 167.87 169.30 167.09 C 169.65 166.31 169.29 165.39 168.51 165.04 L 167.54 164.61 C 166.75 164.26 165.84 164.62 165.49 165.40 C 165.14 166.18 165.50 167.10 166.28 167.45 Z M 167.16 167.83 L 168.06 168.31 C 168.82 168.70 169.76 168.41 170.15 167.65 C 170.55 166.90 170.26 165.96 169.50 165.56 L 168.60 165.09 C 167.84 164.69 166.91 164.98 166.51 165.74 C 166.11 166.50 166.40 167.43 167.16 167.83 Z M 167.96 168.25 L 168.80 168.77 C 169.52 169.22 170.48 169.00 170.93 168.28 C 171.38 167.55 171.16 166.60 170.44 166.14 L 169.60 165.62 C 168.88 165.17 167.92 165.39 167.47 166.11 C 167.02 166.84 167.24 167.79 167.96 168.25 Z M 168.69 168.69 L 169.46 169.27 C 170.14 169.78 171.11 169.64 171.62 168.95 C 172.13 168.27 171.99 167.30 171.31 166.79 L 170.54 166.22 C 169.86 165.71 168.89 165.85 168.38 166.53 C 167.87 167.21 168.01 168.18 168.69 168.69 Z M 169.35 169.18 L 170.06 169.81 C 170.70 170.38 171.67 170.33 172.24 169.70 C 172.81 169.06 172.76 168.09 172.13 167.52 L 171.42 166.88 C 170.78 166.31 169.81 166.36 169.24 167.00 C 168.67 167.63 168.72 168.61 169.35 169.18 Z M 169.95 169.70 L 170.59 170.41 C 171.16 171.04 172.13 171.10 172.76 170.53 C 173.40 169.96 173.45 168.98 172.88 168.35 L 172.24 167.64 C 171.67 167.00 170.70 166.95 170.06 167.52 C 169.43 168.09 169.38 169.06 169.95 169.70 Z M 170.46 170.25 L 171.01 171.05 C 171.49 171.75 172.45 171.93 173.15 171.46 C 173.85 170.98 174.03 170.02 173.56 169.32 L 173.01 168.51 C 172.53 167.81 171.57 167.63 170.87 168.11 C 170.16 168.59 169.98 169.55 170.46 170.25 Z M 170.90 170.85 L 171.34 171.76 C 171.71 172.53 172.62 172.85 173.39 172.48 C 174.15 172.11 174.48 171.19 174.11 170.43 L 173.67 169.52 C 173.30 168.75 172.38 168.43 171.62 168.80 C 170.85 169.17 170.53 170.09 170.90 170.85 Z M 171.25 171.54 L 171.56 172.55 C 171.81 173.37 172.66 173.83 173.47 173.58 C 174.29 173.33 174.74 172.48 174.50 171.67 L 174.19 170.65 C 173.95 169.84 173.09 169.38 172.28 169.62 C 171.47 169.87 171.01 170.73 171.25 171.54 Z M 171.52 172.36 L 171.66 173.26 C 171.80 174.10 172.59 174.67 173.43 174.53 C 174.26 174.39 174.83 173.60 174.69 172.77 L 174.54 171.86 C 174.41 171.03 173.62 170.46 172.78 170.60 C 171.95 170.73 171.38 171.52 171.52 172.36 Z M 171.65 173.11 L 171.70 174.08 C 171.75 174.92 172.48 175.57 173.32 175.52 C 174.17 175.47 174.81 174.74 174.76 173.90 L 174.71 172.93 C 174.66 172.08 173.93 171.44 173.09 171.49 C 172.24 171.54 171.60 172.26 171.65 173.11 Z M 171.70 173.93 L 171.67 174.94 C 171.64 175.78 172.30 176.49 173.14 176.53 C 173.99 176.56 174.70 175.90 174.73 175.05 L 174.76 174.04 C 174.80 173.20 174.14 172.49 173.29 172.46 C 172.45 172.42 171.74 173.08 171.70 173.93 Z M 171.68 174.80 L 171.55 175.82 C 171.44 176.66 172.03 177.43 172.86 177.54 C 173.70 177.65 174.47 177.06 174.58 176.22 L 174.71 175.19 C 174.82 174.36 174.23 173.59 173.40 173.48 C 172.56 173.37 171.79 173.96 171.68 174.80 Z M 171.57 175.68 L 171.34 176.70 C 171.15 177.52 171.66 178.34 172.48 178.53 C 173.31 178.72 174.13 178.21 174.32 177.38 L 174.55 176.36 C 174.74 175.54 174.23 174.72 173.41 174.53 C 172.58 174.34 171.76 174.85 171.57 175.68 Z M 171.38 176.55 L 171.04 177.54 C 170.77 178.34 171.20 179.21 171.99 179.48 C 172.79 179.75 173.66 179.33 173.93 178.53 L 174.27 177.53 C 174.55 176.74 174.12 175.87 173.32 175.59 C 172.52 175.32 171.65 175.75 171.38 176.55 Z M 171.10 177.40 L 170.66 178.36 C 170.31 179.13 170.65 180.04 171.42 180.39 C 172.18 180.73 173.09 180.40 173.44 179.63 L 173.88 178.67 C 174.23 177.90 173.89 177.00 173.12 176.65 C 172.35 176.30 171.45 176.64 171.10 177.40 Z M 170.72 178.25 L 170.21 179.16 C 169.80 179.90 170.07 180.83 170.80 181.24 C 171.54 181.65 172.47 181.38 172.88 180.65 L 173.38 179.74 C 173.79 179.00 173.53 178.07 172.79 177.66 C 172.06 177.25 171.13 177.52 170.72 178.25 Z M 170.26 179.08 L 169.72 179.93 C 169.26 180.64 169.47 181.59 170.18 182.04 C 170.89 182.49 171.83 182.29 172.29 181.58 L 172.83 180.73 C 173.29 180.02 173.08 179.07 172.37 178.62 C 171.66 178.16 170.72 178.37 170.26 179.08 Z M 169.76 179.87 L 169.20 180.66 C 168.71 181.35 168.87 182.30 169.56 182.79 C 170.25 183.28 171.20 183.11 171.69 182.43 L 172.25 181.64 C 172.73 180.95 172.57 180.00 171.88 179.51 C 171.19 179.02 170.24 179.19 169.76 179.87 Z M 169.22 180.63 L 168.68 181.35 C 168.17 182.02 168.31 182.98 168.98 183.48 C 169.65 183.99 170.61 183.86 171.11 183.18 L 171.66 182.46 C 172.17 181.79 172.03 180.83 171.36 180.33 C 170.69 179.82 169.73 179.95 169.22 180.63 Z M 168.70 181.32 L 168.00 182.21 C 167.48 182.88 167.59 183.84 168.25 184.36 C 168.92 184.88 169.88 184.76 170.40 184.10 L 171.10 183.21 C 171.62 182.55 171.50 181.59 170.84 181.07 C 170.18 180.55 169.22 180.66 168.70 181.32 Z M 168.02 182.19 L 167.37 182.98 C 166.83 183.63 166.92 184.59 167.57 185.13 C 168.22 185.66 169.18 185.57 169.72 184.92 L 170.37 184.13 C 170.91 183.48 170.82 182.52 170.17 181.98 C 169.52 181.44 168.56 181.54 168.02 182.19 Z M 167.40 182.94 L 166.78 183.64 C 166.22 184.28 166.29 185.24 166.92 185.80 C 167.55 186.36 168.52 186.29 169.07 185.66 L 169.69 184.96 C 170.25 184.32 170.18 183.36 169.55 182.80 C 168.92 182.25 167.95 182.31 167.40 182.94 Z M 166.81 183.60 L 166.20 184.26 C 165.62 184.87 165.65 185.84 166.26 186.42 C 166.88 186.99 167.84 186.96 168.42 186.35 L 169.04 185.70 C 169.62 185.09 169.59 184.12 168.97 183.54 C 168.36 182.96 167.39 182.99 166.81 183.60 Z M 166.24 184.22 L 165.52 184.93 C 164.92 185.52 164.91 186.49 165.50 187.09 C 166.09 187.69 167.06 187.70 167.66 187.10 L 168.38 186.39 C 168.99 185.80 168.99 184.83 168.40 184.23 C 167.81 183.63 166.84 183.62 166.24 184.22 Z M 165.55 184.89 L 164.82 185.57 C 164.20 186.14 164.16 187.11 164.73 187.73 C 165.30 188.35 166.27 188.39 166.89 187.82 L 167.63 187.14 C 168.25 186.57 168.29 185.60 167.72 184.98 C 167.14 184.36 166.18 184.32 165.55 184.89 Z M 164.85 185.54 L 164.10 186.19 C 163.46 186.75 163.40 187.71 163.95 188.35 C 164.51 188.99 165.48 189.05 166.11 188.50 L 166.86 187.85 C 167.50 187.29 167.56 186.32 167.01 185.69 C 166.45 185.05 165.48 184.98 164.85 185.54 Z M 164.12 186.17 L 163.36 186.81 C 162.71 187.35 162.62 188.32 163.16 188.97 C 163.70 189.62 164.67 189.71 165.32 189.16 L 166.09 188.52 C 166.74 187.98 166.83 187.01 166.28 186.36 C 165.74 185.71 164.77 185.62 164.12 186.17 Z M 163.38 186.79 L 162.60 187.42 C 161.93 187.95 161.83 188.92 162.36 189.58 C 162.89 190.24 163.86 190.34 164.52 189.81 L 165.30 189.18 C 165.96 188.65 166.07 187.69 165.54 187.02 C 165.00 186.36 164.04 186.26 163.38 186.79 Z M 162.62 187.40 L 161.83 188.01 C 161.16 188.53 161.03 189.49 161.55 190.16 C 162.07 190.84 163.04 190.96 163.71 190.44 L 164.50 189.83 C 165.17 189.31 165.30 188.34 164.78 187.67 C 164.26 187.00 163.29 186.88 162.62 187.40 Z M 161.85 187.99 L 161.05 188.58 C 160.37 189.09 160.23 190.06 160.73 190.74 C 161.24 191.42 162.21 191.56 162.89 191.06 L 163.69 190.46 C 164.38 189.95 164.52 188.98 164.01 188.30 C 163.50 187.62 162.53 187.48 161.85 187.99 Z M 161.07 188.56 L 160.25 189.15 C 159.56 189.65 159.40 190.61 159.90 191.30 C 160.39 192.00 161.36 192.16 162.05 191.66 L 162.87 191.08 C 163.56 190.58 163.72 189.61 163.23 188.92 C 162.73 188.23 161.76 188.07 161.07 188.56 Z M 160.28 189.13 L 159.45 189.69 C 158.75 190.18 158.57 191.14 159.05 191.85 C 159.54 192.55 160.50 192.73 161.21 192.25 L 162.03 191.68 C 162.74 191.20 162.92 190.23 162.43 189.53 C 161.95 188.82 160.98 188.64 160.28 189.13 Z M 159.48 189.67 L 158.67 190.20 C 157.95 190.67 157.75 191.64 158.23 192.35 C 158.70 193.07 159.66 193.27 160.38 192.80 L 161.18 192.27 C 161.90 191.80 162.10 190.83 161.63 190.12 C 161.16 189.40 160.19 189.20 159.48 189.67 Z M 158.69 190.18 L 157.93 190.66 C 157.20 191.12 156.98 192.08 157.44 192.81 C 157.90 193.54 158.86 193.76 159.59 193.30 L 160.36 192.82 C 161.09 192.37 161.31 191.40 160.85 190.67 C 160.39 189.94 159.42 189.72 158.69 190.18 Z M 157.95 190.63 L 157.12 191.13 C 156.37 191.58 156.13 192.55 156.58 193.29 C 157.03 194.04 158.00 194.28 158.74 193.83 L 159.57 193.33 C 160.32 192.88 160.56 191.91 160.11 191.17 C 159.66 190.42 158.70 190.18 157.95 190.63 Z M 157.13 191.11 L 156.19 191.66 C 155.43 192.10 155.17 193.07 155.61 193.83 C 156.05 194.59 157.02 194.84 157.78 194.40 L 158.73 193.85 C 159.49 193.41 159.75 192.44 159.31 191.68 C 158.87 190.92 157.89 190.67 157.13 191.11 Z M 156.19 191.64 L 155.32 192.13 C 154.56 192.57 154.29 193.54 154.72 194.31 C 155.16 195.08 156.14 195.35 156.90 194.91 L 157.77 194.42 C 158.54 193.99 158.81 193.01 158.37 192.24 C 157.94 191.47 156.96 191.20 156.19 191.64 Z M 155.33 192.12 L 154.48 192.59 C 153.70 193.02 153.42 194.00 153.85 194.78 C 154.29 195.56 155.27 195.84 156.04 195.41 L 156.90 194.93 C 157.67 194.50 157.95 193.52 157.52 192.74 C 157.09 191.96 156.11 191.68 155.33 192.12 Z M 154.49 192.57 L 153.59 193.06 C 152.80 193.49 152.51 194.47 152.93 195.26 C 153.36 196.04 154.34 196.34 155.13 195.91 L 156.03 195.42 C 156.82 195.00 157.11 194.01 156.69 193.23 C 156.26 192.44 155.28 192.14 154.49 192.57 Z M 153.60 193.04 L 152.68 193.52 C 151.88 193.94 151.57 194.92 151.99 195.72 C 152.41 196.52 153.39 196.83 154.19 196.41 L 155.12 195.93 C 155.91 195.52 156.22 194.53 155.81 193.73 C 155.39 192.93 154.40 192.62 153.60 193.04 Z M 152.71 193.49 L 151.79 193.95 C 150.98 194.35 150.65 195.34 151.05 196.15 C 151.45 196.97 152.44 197.30 153.25 196.89 L 154.17 196.44 C 154.98 196.03 155.31 195.05 154.91 194.23 C 154.50 193.42 153.52 193.09 152.71 193.49 Z M 151.83 193.92 L 150.88 194.36 C 150.05 194.74 149.69 195.73 150.07 196.55 C 150.46 197.38 151.44 197.74 152.27 197.36 L 153.22 196.92 C 154.04 196.54 154.40 195.56 154.02 194.73 C 153.64 193.90 152.65 193.54 151.83 193.92 Z M 150.93 194.33 L 149.99 194.73 C 149.15 195.08 148.75 196.05 149.10 196.90 C 149.46 197.74 150.43 198.14 151.28 197.78 L 152.22 197.39 C 153.06 197.04 153.46 196.06 153.10 195.22 C 152.75 194.37 151.78 193.98 150.93 194.33 Z M 150.05 194.70 L 149.13 195.04 C 148.27 195.36 147.83 196.32 148.15 197.18 C 148.47 198.04 149.43 198.48 150.29 198.16 L 151.21 197.82 C 152.08 197.50 152.51 196.54 152.19 195.68 C 151.87 194.81 150.92 194.37 150.05 194.70 Z M 149.20 195.01 L 148.27 195.31 C 147.40 195.59 146.92 196.53 147.20 197.41 C 147.48 198.29 148.42 198.77 149.30 198.49 L 150.22 198.19 C 151.10 197.90 151.58 196.96 151.30 196.09 C 151.02 195.21 150.08 194.73 149.20 195.01 Z M 148.34 195.28 L 147.40 195.54 C 146.51 195.79 145.98 196.71 146.23 197.60 C 146.47 198.49 147.40 199.02 148.29 198.77 L 149.23 198.51 C 150.12 198.27 150.65 197.34 150.40 196.45 C 150.16 195.56 149.24 195.03 148.34 195.28 Z M 147.46 195.51 L 146.48 195.74 C 145.57 195.95 145.01 196.86 145.22 197.76 C 145.43 198.67 146.34 199.24 147.24 199.03 L 148.22 198.80 C 149.13 198.59 149.70 197.68 149.49 196.77 C 149.27 195.87 148.37 195.30 147.46 195.51 Z M 146.54 195.71 L 145.54 195.91 C 144.62 196.08 144.02 196.98 144.20 197.90 C 144.37 198.82 145.26 199.42 146.19 199.25 L 147.18 199.05 C 148.11 198.88 148.71 197.98 148.53 197.06 C 148.35 196.14 147.46 195.54 146.54 195.71 Z M 145.60 195.88 L 144.61 196.04 C 143.67 196.18 143.03 197.06 143.17 197.99 C 143.32 198.93 144.19 199.57 145.13 199.42 L 146.13 199.27 C 147.06 199.12 147.70 198.25 147.56 197.31 C 147.41 196.38 146.54 195.74 145.60 195.88 Z M 144.67 196.01 L 143.69 196.13 C 142.74 196.24 142.06 197.09 142.17 198.04 C 142.28 198.99 143.14 199.67 144.09 199.56 L 145.07 199.45 C 146.01 199.34 146.69 198.48 146.58 197.53 C 146.47 196.58 145.62 195.90 144.67 196.01 Z M 143.77 196.10 L 142.51 196.19 C 141.55 196.25 140.82 197.09 140.89 198.05 C 140.95 199.01 141.78 199.73 142.74 199.67 L 144.00 199.58 C 144.97 199.52 145.69 198.69 145.63 197.73 C 145.56 196.77 144.73 196.04 143.77 196.10 Z M 142.62 196.17 L 141.38 196.17 C 140.41 196.18 139.63 196.97 139.63 197.94 C 139.64 198.92 140.43 199.70 141.40 199.70 L 142.63 199.69 C 143.61 199.68 144.39 198.89 144.39 197.92 C 144.38 196.95 143.59 196.16 142.62 196.17 Z M 141.61 196.17 L 140.99 196.09 C 140.02 195.97 139.13 196.67 139.01 197.64 C 138.89 198.62 139.59 199.51 140.56 199.63 L 141.18 199.70 C 142.15 199.82 143.04 199.13 143.16 198.15 C 143.28 197.18 142.59 196.29 141.61 196.17 Z M 141.63 199.43 L 141.86 199.31 C 142.73 198.84 143.05 197.75 142.58 196.88 C 142.11 196.01 141.02 195.69 140.15 196.16 L 139.92 196.29 C 139.05 196.76 138.73 197.84 139.20 198.71 C 139.67 199.58 140.76 199.91 141.63 199.43 Z M 141.31 199.50 L 142.23 199.34 C 143.21 199.17 143.86 198.25 143.69 197.27 C 143.52 196.30 142.60 195.65 141.62 195.81 L 140.70 195.97 C 139.73 196.14 139.07 197.07 139.24 198.04 C 139.41 199.01 140.34 199.67 141.31 199.50 Z M 142.16 199.35 L 143.57 199.16 C 144.55 199.03 145.24 198.14 145.11 197.16 C 144.98 196.18 144.08 195.49 143.10 195.62 L 141.69 195.81 C 140.72 195.93 140.03 196.83 140.16 197.81 C 140.29 198.79 141.18 199.48 142.16 199.35 Z M 143.55 199.16 L 144.55 199.04 C 145.52 198.92 146.22 198.03 146.10 197.06 C 145.98 196.08 145.09 195.38 144.12 195.50 L 143.12 195.62 C 142.14 195.74 141.44 196.63 141.56 197.61 C 141.68 198.58 142.57 199.28 143.55 199.16 Z M 144.55 199.04 L 145.44 198.93 C 146.41 198.81 147.11 197.93 146.99 196.95 C 146.87 195.97 145.98 195.28 145.01 195.39 L 144.12 195.50 C 143.14 195.62 142.44 196.51 142.56 197.49 C 142.68 198.46 143.57 199.16 144.55 199.04 Z M 145.44 198.93 L 146.39 198.81 C 147.37 198.68 148.06 197.79 147.93 196.82 C 147.81 195.84 146.92 195.15 145.94 195.28 L 145.00 195.40 C 144.02 195.52 143.33 196.41 143.46 197.39 C 143.58 198.36 144.47 199.05 145.44 198.93 Z M 146.41 198.80 L 147.42 198.67 C 148.39 198.53 149.07 197.64 148.94 196.66 C 148.80 195.69 147.91 195.01 146.93 195.14 L 145.93 195.28 C 144.96 195.41 144.28 196.31 144.41 197.28 C 144.54 198.26 145.44 198.94 146.41 198.80 Z M 147.44 198.66 L 148.50 198.50 C 149.47 198.35 150.14 197.45 150.00 196.48 C 149.85 195.51 148.95 194.84 147.98 194.99 L 146.91 195.15 C 145.94 195.30 145.28 196.20 145.42 197.17 C 145.57 198.14 146.47 198.81 147.44 198.66 Z M 148.53 198.49 L 149.66 198.31 C 150.62 198.15 151.27 197.23 151.11 196.27 C 150.95 195.30 150.04 194.65 149.07 194.81 L 147.95 195.00 C 146.98 195.16 146.33 196.07 146.49 197.04 C 146.65 198.00 147.57 198.65 148.53 198.49 Z M 149.68 198.30 L 150.73 198.11 C 151.69 197.93 152.32 197.01 152.15 196.05 C 151.97 195.09 151.05 194.45 150.09 194.63 L 149.05 194.82 C 148.09 195.00 147.45 195.92 147.63 196.88 C 147.80 197.84 148.72 198.47 149.68 198.30 Z M 150.75 198.09 L 151.78 197.89 C 152.74 197.70 153.36 196.78 153.17 195.82 C 152.98 194.87 152.05 194.25 151.10 194.44 L 150.07 194.64 C 149.11 194.83 148.49 195.75 148.68 196.71 C 148.87 197.66 149.80 198.28 150.75 198.09 Z M 151.80 197.88 L 152.84 197.66 C 153.79 197.46 154.39 196.54 154.20 195.59 C 154.00 194.64 153.07 194.03 152.12 194.23 L 151.08 194.45 C 150.14 194.65 149.53 195.57 149.73 196.52 C 149.92 197.47 150.85 198.07 151.80 197.88 Z M 152.85 197.65 L 153.88 197.43 C 154.82 197.22 155.41 196.30 155.21 195.35 C 155.01 194.41 154.08 193.82 153.14 194.02 L 152.11 194.24 C 151.17 194.45 150.57 195.38 150.78 196.32 C 150.98 197.26 151.91 197.85 152.85 197.65 Z M 153.89 197.42 L 154.88 197.19 C 155.81 196.99 156.40 196.06 156.19 195.12 C 155.98 194.19 155.05 193.60 154.12 193.81 L 153.13 194.03 C 152.19 194.24 151.60 195.17 151.81 196.10 C 152.02 197.04 152.95 197.63 153.89 197.42 Z M 154.88 197.18 L 155.82 196.97 C 156.75 196.76 157.33 195.83 157.12 194.90 C 156.90 193.97 155.97 193.39 155.05 193.60 L 154.11 193.82 C 153.18 194.03 152.60 194.96 152.82 195.89 C 153.03 196.82 153.96 197.40 154.88 197.18 Z M 155.83 196.96 L 156.69 196.76 C 157.61 196.54 158.18 195.62 157.97 194.69 C 157.75 193.77 156.82 193.20 155.90 193.41 L 155.04 193.61 C 154.12 193.83 153.54 194.76 153.76 195.68 C 153.98 196.60 154.90 197.18 155.83 196.96 Z M 156.69 196.74 L 157.84 196.46 C 158.75 196.24 159.32 195.32 159.10 194.41 C 158.88 193.50 157.96 192.94 157.05 193.16 L 155.90 193.43 C 154.98 193.65 154.42 194.57 154.64 195.48 C 154.86 196.39 155.78 196.96 156.69 196.74 Z M 157.84 196.43 L 158.90 196.17 C 159.80 195.94 160.34 195.04 160.12 194.15 C 159.90 193.25 159.00 192.71 158.10 192.93 L 157.04 193.19 C 156.15 193.41 155.60 194.32 155.82 195.21 C 156.05 196.10 156.95 196.65 157.84 196.43 Z M 158.91 196.13 L 159.80 195.90 C 160.67 195.67 161.20 194.78 160.97 193.91 C 160.74 193.04 159.85 192.51 158.98 192.74 L 158.09 192.96 C 157.22 193.19 156.70 194.08 156.92 194.95 C 157.15 195.83 158.04 196.35 158.91 196.13 Z M 159.80 195.86 L 160.60 195.65 C 161.45 195.42 161.95 194.54 161.73 193.69 C 161.50 192.84 160.62 192.33 159.77 192.56 L 158.97 192.77 C 158.12 193.00 157.62 193.88 157.85 194.73 C 158.08 195.58 158.95 196.09 159.80 195.86 Z M 160.60 195.62 L 161.50 195.37 C 162.33 195.14 162.82 194.27 162.59 193.43 C 162.36 192.60 161.49 192.11 160.66 192.34 L 159.76 192.59 C 158.93 192.82 158.44 193.69 158.67 194.52 C 158.90 195.36 159.77 195.85 160.60 195.62 Z M 161.50 195.35 L 162.45 195.08 C 163.27 194.85 163.76 193.99 163.52 193.17 C 163.29 192.34 162.44 191.86 161.61 192.09 L 160.66 192.36 C 159.83 192.59 159.35 193.45 159.58 194.27 C 159.81 195.10 160.67 195.58 161.50 195.35 Z M 162.44 195.07 L 163.41 194.80 C 164.23 194.57 164.71 193.73 164.48 192.91 C 164.26 192.10 163.41 191.61 162.60 191.84 L 161.62 192.11 C 160.81 192.33 160.33 193.18 160.55 193.99 C 160.78 194.81 161.62 195.29 162.44 195.07 Z M 163.39 194.79 L 164.36 194.53 C 165.17 194.32 165.66 193.49 165.44 192.68 C 165.23 191.87 164.40 191.38 163.59 191.60 L 162.62 191.85 C 161.81 192.06 161.32 192.89 161.53 193.70 C 161.75 194.52 162.58 195.00 163.39 194.79 Z M 164.33 194.53 L 165.29 194.29 C 166.09 194.09 166.59 193.28 166.39 192.47 C 166.19 191.67 165.38 191.17 164.57 191.37 L 163.62 191.60 C 162.81 191.80 162.32 192.62 162.51 193.42 C 162.71 194.23 163.53 194.72 164.33 194.53 Z M 165.26 194.28 L 166.24 194.06 C 167.04 193.88 167.54 193.08 167.36 192.28 C 167.18 191.47 166.38 190.97 165.58 191.16 L 164.60 191.38 C 163.80 191.56 163.29 192.36 163.48 193.16 C 163.66 193.97 164.46 194.47 165.26 194.28 Z M 166.22 194.05 L 167.21 193.84 C 168.01 193.67 168.52 192.88 168.35 192.09 C 168.18 191.29 167.40 190.78 166.60 190.95 L 165.60 191.16 C 164.80 191.33 164.29 192.12 164.46 192.92 C 164.63 193.71 165.42 194.22 166.22 194.05 Z M 167.19 193.83 L 168.16 193.64 C 168.95 193.48 169.46 192.71 169.31 191.92 C 169.15 191.12 168.38 190.61 167.58 190.77 L 166.62 190.96 C 165.83 191.12 165.31 191.89 165.47 192.68 C 165.63 193.47 166.40 193.99 167.19 193.83 Z M 168.14 193.63 L 169.11 193.45 C 169.90 193.30 170.42 192.54 170.27 191.75 C 170.13 190.96 169.36 190.44 168.57 190.59 L 167.60 190.77 C 166.81 190.92 166.29 191.68 166.44 192.47 C 166.59 193.26 167.35 193.78 168.14 193.63 Z M 169.10 193.44 L 170.09 193.27 C 170.88 193.13 171.40 192.37 171.26 191.59 C 171.12 190.80 170.37 190.28 169.58 190.42 L 168.59 190.60 C 167.80 190.74 167.28 191.49 167.42 192.28 C 167.56 193.06 168.31 193.59 169.10 193.44 Z M 170.08 193.26 L 171.09 193.08 C 171.87 192.95 172.40 192.20 172.26 191.42 C 172.12 190.64 171.38 190.11 170.60 190.25 L 169.59 190.42 C 168.81 190.56 168.28 191.31 168.42 192.09 C 168.55 192.87 169.30 193.40 170.08 193.26 Z M 171.08 193.08 L 172.08 192.91 C 172.86 192.78 173.38 192.04 173.25 191.26 C 173.12 190.48 172.38 189.95 171.60 190.08 L 170.60 190.25 C 169.82 190.39 169.30 191.13 169.43 191.91 C 169.56 192.69 170.30 193.21 171.08 193.08 Z M 172.07 192.91 L 173.07 192.75 C 173.85 192.62 174.38 191.89 174.25 191.11 C 174.12 190.33 173.39 189.80 172.61 189.92 L 171.61 190.08 C 170.83 190.21 170.30 190.95 170.43 191.73 C 170.55 192.51 171.29 193.04 172.07 192.91 Z M 173.05 192.75 L 174.04 192.60 C 174.82 192.49 175.35 191.76 175.24 190.98 C 175.12 190.20 174.39 189.66 173.61 189.78 L 172.63 189.92 C 171.85 190.04 171.31 190.77 171.42 191.55 C 171.54 192.33 172.27 192.87 173.05 192.75 Z M 174.01 192.61 L 174.99 192.48 C 175.77 192.37 176.33 191.66 176.22 190.88 C 176.12 190.09 175.40 189.54 174.62 189.65 L 173.64 189.77 C 172.86 189.88 172.31 190.59 172.41 191.37 C 172.51 192.16 173.23 192.71 174.01 192.61 Z M 174.96 192.48 L 175.98 192.37 C 176.76 192.28 177.33 191.58 177.24 190.80 C 177.16 190.01 176.45 189.45 175.67 189.53 L 174.65 189.64 C 173.87 189.73 173.30 190.43 173.39 191.22 C 173.47 192.00 174.18 192.56 174.96 192.48 Z M 175.95 192.37 L 176.95 192.28 C 177.73 192.21 178.31 191.52 178.24 190.73 C 178.17 189.95 177.47 189.37 176.69 189.44 L 175.70 189.53 C 174.91 189.60 174.33 190.29 174.41 191.08 C 174.48 191.86 175.17 192.44 175.95 192.37 Z M 176.93 192.28 L 177.91 192.20 C 178.69 192.14 179.28 191.45 179.21 190.67 C 179.15 189.88 178.46 189.30 177.68 189.36 L 176.70 189.44 C 175.92 189.50 175.33 190.19 175.40 190.97 C 175.46 191.76 176.15 192.34 176.93 192.28 Z M 177.90 192.20 L 178.22 192.18 C 179.00 192.12 179.59 191.43 179.53 190.65 C 179.47 189.86 178.78 189.28 178.00 189.34 L 177.68 189.36 C 176.90 189.42 176.31 190.11 176.37 190.89 C 176.43 191.68 177.12 192.26 177.90 192.20 Z"
      fill="black"
      fill-rule="nonzero" /></svg>