<svg xmlns="http://www.w3.org/2000/svg" width="300" height="300" viewBox="0 0 300 300">
<path d="M 116.41 118.45 L 116.28 119.38 C 116.16 120.22 116.74 120.98 117.57 121.10 C 118.40 121.22 119.17 120.64 119.29 119.81 L 119.42 118.87 C 119.54 118.04 118.96 117.27 118.13 117.15 C 117.29 117.04 116.52 117.62 116.41 118.45 Z M 116.23 119.40 L 116.11 120.36 C 116.00 121.21 116.60 122.00 117.46 122.11 C 118.32 122.22 119.10 121.61 119.21 120.75 L 119.33 119.80 C 119.44 118.94 118.84 118.15 117.98 118.04 C 117.12 117.93 116.34 118.54 116.23 119.40 Z M 116.06 120.39 L 115.95 121.39 C 115.86 122.27 116.50 123.07 117.38 123.16 C 118.27 123.25 119.06 122.61 119.15 121.73 L 119.26 120.72 C 119.35 119.84 118.71 119.05 117.83 118.96 C 116.94 118.86 116.15 119.50 116.06 120.39 Z M 115.91 121.44 L 115.82 122.51 C 115.76 123.42 116.44 124.21 117.35 124.28 C 118.26 124.35 119.05 123.67 119.12 122.76 L 119.20 121.69 C 119.27 120.78 118.59 119.98 117.68 119.91 C 116.77 119.85 115.97 120.53 115.91 121.44 Z M 115.80 122.56 L 115.75 123.54 C 115.71 124.46 116.43 125.24 117.35 125.29 C 118.27 125.33 119.06 124.61 119.10 123.69 L 119.14 122.71 C 119.18 121.79 118.47 121.00 117.55 120.96 C 116.62 120.92 115.84 121.63 115.80 122.56 Z M 115.75 123.57 L 115.73 124.59 C 115.70 125.51 116.43 126.28 117.36 126.31 C 118.28 126.33 119.05 125.60 119.07 124.68 L 119.10 123.66 C 119.12 122.73 118.39 121.96 117.47 121.94 C 116.54 121.92 115.78 122.65 115.75 123.57 Z M 115.73 124.61 L 115.71 125.64 C 115.70 126.56 116.44 127.32 117.37 127.33 C 118.29 127.34 119.05 126.60 119.06 125.68 L 119.07 124.65 C 119.09 123.73 118.34 122.97 117.42 122.96 C 116.50 122.95 115.74 123.69 115.73 124.61 Z M 115.71 125.65 L 115.71 126.65 C 115.71 127.58 116.45 128.33 117.38 128.33 C 118.30 128.34 119.06 127.59 119.06 126.66 L 119.06 125.66 C 119.07 124.74 118.32 123.98 117.39 123.98 C 116.47 123.98 115.72 124.73 115.71 125.65 Z M 115.71 126.66 L 115.71 127.67 C 115.71 128.59 116.46 129.34 117.38 129.35 C 118.31 129.35 119.06 128.59 119.06 127.67 L 119.06 126.66 C 119.06 125.73 118.31 124.98 117.38 124.98 C 116.46 124.98 115.71 125.73 115.71 126.66 Z M 115.71 127.67 L 115.71 128.71 C 115.71 129.64 116.46 130.39 117.38 130.39 C 118.31 130.39 119.06 129.64 119.06 128.71 L 119.06 127.67 C 119.06 126.74 118.31 125.99 117.38 125.99 C 116.46 125.99 115.71 126.74 115.71 127.67 Z M 115.71 128.71 L 115.71 129.69 C 115.71 130.62 116.46 131.37 117.38 131.37 C 118.31 131.37 119.06 130.62 119.06 129.69 L 119.06 128.71 C 119.06 127.78 118.31 127.03 117.38 127.03 C 116.46 127.03 115.71 127.78 115.71 128.71 Z M 115.71 129.69 L 115.71 130.65 C 115.71 131.58 116.46 132.33 117.38 132.33 C 118.31 132.33 119.06 131.58 119.06 130.65 L 119.06 129.69 C 119.06 128.77 118.31 128.02 117.38 128.02 C 116.46 128.02 115.71 128.77 115.71 129.69 Z M 115.71 130.65 L 115.71 131.61 C 115.71 132.54 116.46 133.29 117.38 133.29 C 118.31 133.29 119.06 132.54 119.06 131.61 L 119.06 130.65 C 119.06 129.73 118.31 128.98 117.38 128.98 C 116.46 128.98 115.71 129.73 115.71 130.65 Z M 115.71 131.61 L 115.71 132.59 C 115.71 133.52 116.46 134.27 117.38 134.27 C 118.31 134.27 119.06 133.52 119.06 132.59 L 119.06 131.61 C 119.06 130.69 118.31 129.94 117.38 129.94 C 116.46 129.94 115.71 130.69 115.71 131.61 Z M 115.71 132.59 L 115.71 133.59 C 115.71 134.52 116.46 135.27 117.38 135.27 C 118.31 135.27 119.06 134.52 119.06 133.59 L 119.06 132.59 C 119.06 131.67 118.31 130.92 117.38 130.92 C 116.46 130.92 115.71 131.67 115.71 132.59 Z M 115.71 133.59 L 115.71 134.61 C 115.71 135.54 116.46 136.29 117.38 136.29 C 118.31 136.29 119.06 135.54 119.06 134.61 L 119.06 133.59 C 119.06 132.67 118.31 131.92 117.38 131.92 C 116.46 131.92 115.71 132.67 115.71 133.59 Z M 115.71 134.61 L 115.71 135.62 C 115.71 136.55 116.46 137.30 117.38 137.30 C 118.31 137.30 119.06 136.55 119.06 135.62 L 119.06 134.61 C 119.06 133.69 118.31 132.94 117.38 132.94 C 116.46 132.94 115.71 133.69 115.71 134.61 Z M 115.71 135.62 L 115.71 136.61 C 115.71 137.53 116.46 138.28 117.38 138.28 C 118.31 138.28 119.06 137.53 119.06 136.61 L 119.06 135.62 C 119.06 134.69 118.31 133.94 117.38 133.94 C 116.46 133.94 115.71 134.69 115.71 135.62 Z M 115.71 136.61 L 115.71 137.61 C 115.71 138.53 116.46 139.28 117.38 139.28 C 118.31 139.28 119.06 138.53 119.06 137.61 L 119.06 136.61 C 119.06 135.68 118.31 134.93 117.38 134.93 C 116.46 134.93 115.71 135.68 115.71 136.61 Z M 115.71 137.61 L 115.71 138.62 C 115.71 139.54 116.46 140.30 117.38 140.30 C 118.31 140.30 119.06 139.54 119.06 138.62 L 119.06 137.61 C 119.06 136.68 118.31 135.93 117.38 135.93 C 116.46 135.93 115.71 136.68 115.71 137.61 Z M 115.71 138.62 L 115.71 139.63 C 115.71 140.55 116.46 141.31 117.38 141.31 C 118.31 141.31 119.06 140.55 119.06 139.63 L 119.06 138.62 C 119.06 137.69 118.31 136.94 117.38 136.94 C 116.46 136.94 115.71 137.69 115.71 138.62 Z M 115.71 139.63 L 115.71 140.62 C 115.71 141.55 116.46 142.30 117.38 142.30 C 118.31 142.30 119.06 141.55 119.06 140.62 L 119.06 139.63 C 119.06 138.70 118.31 137.95 117.38 137.95 C 116.46 137.95 115.71 138.70 115.71 139.63 Z M 115.71 140.62 L 115.71 141.62 C 115.71 142.55 116.46 143.30 117.38 143.30 C 118.31 143.30 119.06 142.55 119.06 141.62 L 119.06 140.62 C 119.06 139.70 118.31 138.95 117.38 138.95 C 116.46 138.95 115.71 139.70 115.71 140.62 Z M 115.71 141.62 L 115.71 142.63 C 115.71 143.55 116.46 144.30 117.38 144.30 C 118.31 144.30 119.06 143.55 119.06 142.63 L 119.06 141.62 C 119.06 140.70 118.31 139.95 117.38 139.95 C 116.46 139.95 115.71 140.70 115.71 141.62 Z M 115.71 142.63 L 115.71 143.63 C 115.71 144.56 116.46 145.31 117.38 145.31 C 118.31 145.31 119.06 144.56 119.06 143.63 L 119.06 142.63 C 119.06 141.70 118.31 140.95 117.38 140.95 C 116.46 140.95 115.71 141.70 115.71 142.63 Z M 115.71 143.63 L 115.71 144.64 C 115.71 145.56 116.46 146.31 117.38 146.31 C 118.31 146.31 119.06 145.56 119.06 144.64 L 119.06 143.63 C 119.06 142.71 118.31 141.96 117.38 141.96 C 116.46 141.96 115.71 142.71 115.71 143.63 Z M 115.71 144.64 L 115.71 145.64 C 115.71 146.56 116.46 147.31 117.38 147.31 C 118.31 147.31 119.06 146.56 119.06 145.64 L 119.06 144.64 C 119.06 143.71 118.31 142.96 117.38 142.96 C 116.46 142.96 115.71 143.71 115.71 144.64 Z M 115.71 145.64 L 115.71 146.64 C 115.71 147.56 116.46 148.31 117.38 148.31 C 118.31 148.31 119.06 147.56 119.06 146.64 L 119.06 145.64 C 119.06 144.72 118.31 143.97 117.38 143.97 C 116.46 143.97 115.71 144.72 115.71 145.64 Z M 115.71 146.64 L 115.71 147.63 C 115.71 148.56 116.46 149.30 117.38 149.30 C 118.31 149.30 119.05 148.56 119.05 147.63 L 119.05 146.64 C 119.05 145.72 118.31 144.97 117.38 144.97 C 116.46 144.97 115.71 145.72 115.71 146.64 Z M 115.72 147.63 L 115.72 148.63 C 115.72 149.55 116.46 150.30 117.38 150.30 C 118.31 150.30 119.05 149.55 119.05 148.63 L 119.05 147.64 C 119.05 146.71 118.31 145.97 117.38 145.97 C 116.46 145.97 115.72 146.71 115.72 147.63 Z M 115.72 148.63 L 115.72 149.63 C 115.72 150.55 116.46 151.30 117.38 151.30 C 118.30 151.30 119.05 150.55 119.05 149.63 L 119.05 148.64 C 119.05 147.72 118.31 146.97 117.39 146.97 C 116.47 146.97 115.72 147.71 115.72 148.63 Z M 115.72 149.63 L 115.72 150.62 C 115.71 151.54 116.45 152.29 117.37 152.29 C 118.29 152.30 119.04 151.56 119.04 150.64 L 119.05 149.64 C 119.05 148.72 118.31 147.97 117.39 147.97 C 116.47 147.97 115.72 148.71 115.72 149.63 Z M 115.72 150.62 L 115.71 151.62 C 115.70 152.53 116.44 153.28 117.36 153.29 C 118.27 153.30 119.02 152.56 119.03 151.64 L 119.04 150.64 C 119.05 149.73 118.31 148.98 117.39 148.97 C 116.48 148.96 115.73 149.70 115.72 150.62 Z M 115.71 151.61 L 115.70 152.59 C 115.69 153.51 116.42 154.26 117.33 154.27 C 118.25 154.28 119.00 153.55 119.02 152.64 L 119.03 151.65 C 119.04 150.74 118.31 149.98 117.39 149.97 C 116.48 149.96 115.73 150.69 115.71 151.61 Z M 115.70 152.58 L 115.68 153.53 C 115.66 154.45 116.39 155.20 117.30 155.22 C 118.22 155.24 118.97 154.52 118.99 153.60 L 119.01 152.65 C 119.03 151.73 118.31 150.98 117.39 150.96 C 116.48 150.94 115.72 151.66 115.70 152.58 Z M 115.69 153.52 L 115.66 154.50 C 115.64 155.41 116.35 156.17 117.27 156.20 C 118.18 156.22 118.94 155.50 118.96 154.59 L 118.99 153.61 C 119.01 152.70 118.29 151.94 117.38 151.92 C 116.47 151.89 115.71 152.61 115.69 153.52 Z M 115.66 154.49 L 115.63 155.50 C 115.60 156.41 116.32 157.17 117.22 157.20 C 118.13 157.23 118.89 156.52 118.92 155.61 L 118.96 154.60 C 118.99 153.69 118.27 152.93 117.36 152.90 C 116.45 152.87 115.69 153.58 115.66 154.49 Z M 115.64 155.50 L 115.60 156.55 C 115.56 157.46 116.27 158.22 117.18 158.25 C 118.08 158.29 118.85 157.58 118.88 156.67 L 118.92 155.62 C 118.95 154.71 118.25 153.95 117.34 153.92 C 116.43 153.88 115.67 154.59 115.64 155.50 Z M 115.60 156.55 L 115.56 157.56 C 115.52 158.47 116.23 159.23 117.13 159.27 C 118.03 159.30 118.80 158.60 118.83 157.69 L 118.88 156.68 C 118.91 155.77 118.21 155.01 117.31 154.97 C 116.40 154.94 115.64 155.64 115.60 156.55 Z M 115.56 157.56 L 115.52 158.58 C 115.48 159.48 116.18 160.24 117.08 160.28 C 117.99 160.32 118.75 159.62 118.79 158.72 L 118.83 157.70 C 118.87 156.79 118.17 156.03 117.27 155.99 C 116.36 155.96 115.60 156.66 115.56 157.56 Z M 115.52 158.58 L 115.48 159.61 C 115.44 160.51 116.14 161.27 117.04 161.30 C 117.94 161.34 118.70 160.64 118.74 159.74 L 118.78 158.72 C 118.82 157.82 118.12 157.06 117.22 157.02 C 116.32 156.98 115.56 157.68 115.52 158.58 Z M 115.49 159.61 L 115.45 160.62 C 115.41 161.51 116.11 162.27 117.01 162.31 C 117.91 162.34 118.66 161.64 118.70 160.74 L 118.74 159.74 C 118.77 158.84 118.07 158.09 117.17 158.05 C 116.28 158.01 115.52 158.71 115.49 159.61 Z M 115.45 160.63 L 115.42 161.59 C 115.39 162.48 116.09 163.23 116.98 163.26 C 117.88 163.30 118.63 162.59 118.66 161.70 L 118.69 160.74 C 118.72 159.84 118.02 159.09 117.13 159.06 C 116.23 159.03 115.48 159.73 115.45 160.63 Z M 115.43 161.61 L 115.40 162.99 C 115.38 163.88 116.08 164.61 116.97 164.63 C 117.86 164.65 118.60 163.95 118.62 163.06 L 118.65 161.68 C 118.67 160.79 117.96 160.05 117.07 160.03 C 116.18 160.01 115.45 160.72 115.43 161.61 Z M 115.42 163.06 L 115.44 164.16 C 115.46 165.04 116.19 165.74 117.07 165.72 C 117.94 165.70 118.64 164.97 118.62 164.10 L 118.60 162.99 C 118.58 162.11 117.85 161.41 116.97 161.43 C 116.10 161.45 115.40 162.18 115.42 163.06 Z M 115.55 164.63 L 115.67 164.99 C 115.94 165.81 116.83 166.25 117.65 165.97 C 118.47 165.70 118.91 164.81 118.64 163.99 L 118.52 163.63 C 118.24 162.81 117.35 162.37 116.53 162.64 C 115.71 162.92 115.27 163.81 115.55 164.63 Z M 118.56 165.11 L 118.74 164.70 C 119.08 163.93 118.73 163.02 117.96 162.67 C 117.18 162.33 116.27 162.68 115.92 163.46 L 115.74 163.86 C 115.40 164.64 115.75 165.55 116.53 165.89 C 117.31 166.24 118.22 165.89 118.56 165.11 Z M 118.79 164.46 L 119.02 163.56 C 119.23 162.75 118.75 161.93 117.94 161.72 C 117.13 161.51 116.31 162.00 116.10 162.80 L 115.87 163.70 C 115.66 164.51 116.15 165.33 116.96 165.54 C 117.76 165.75 118.58 165.26 118.79 164.46 Z M 119.01 163.48 L 119.27 162.24 C 119.43 161.44 118.92 160.66 118.12 160.50 C 117.33 160.33 116.54 160.84 116.38 161.64 L 116.12 162.88 C 115.95 163.68 116.46 164.46 117.26 164.62 C 118.06 164.79 118.84 164.28 119.01 163.48 Z M 119.25 162.20 L 119.48 160.94 C 119.62 160.15 119.10 159.40 118.31 159.26 C 117.53 159.11 116.77 159.63 116.63 160.42 L 116.40 161.68 C 116.25 162.47 116.77 163.22 117.56 163.37 C 118.35 163.51 119.10 162.99 119.25 162.20 Z M 119.47 160.92 L 119.63 159.96 C 119.76 159.18 119.23 158.44 118.45 158.31 C 117.67 158.18 116.93 158.71 116.80 159.49 L 116.64 160.44 C 116.51 161.23 117.03 161.97 117.82 162.10 C 118.60 162.23 119.34 161.70 119.47 160.92 Z M 119.63 159.95 L 119.78 158.97 C 119.90 158.19 119.37 157.45 118.59 157.33 C 117.80 157.21 117.07 157.74 116.95 158.53 L 116.80 159.50 C 116.67 160.29 117.21 161.02 117.99 161.14 C 118.77 161.26 119.51 160.73 119.63 159.95 Z M 119.78 158.96 L 119.93 157.96 C 120.04 157.18 119.50 156.45 118.72 156.34 C 117.94 156.22 117.21 156.76 117.10 157.54 L 116.95 158.54 C 116.83 159.32 117.37 160.05 118.15 160.16 C 118.94 160.28 119.66 159.74 119.78 158.96 Z M 119.93 157.95 L 120.07 156.95 C 120.18 156.16 119.64 155.44 118.86 155.33 C 118.08 155.22 117.35 155.76 117.24 156.54 L 117.10 157.55 C 116.99 158.33 117.53 159.05 118.31 159.17 C 119.09 159.28 119.81 158.74 119.93 157.95 Z M 120.07 156.94 L 120.21 155.93 C 120.32 155.15 119.78 154.43 119.00 154.32 C 118.22 154.21 117.50 154.75 117.39 155.53 L 117.24 156.55 C 117.13 157.33 117.68 158.05 118.46 158.16 C 119.24 158.27 119.96 157.72 120.07 156.94 Z M 120.21 155.93 L 120.25 155.63 C 120.36 154.85 119.82 154.13 119.04 154.02 C 118.26 153.92 117.54 154.46 117.43 155.24 L 117.39 155.53 C 117.28 156.31 117.82 157.03 118.60 157.14 C 119.38 157.25 120.10 156.71 120.21 155.93 Z"
      fill="black"
      fill-rule="nonzero" /><path d="M 117.21 116.84 L 116.23 115.98 C 115.59 115.42 114.61 115.49 114.05 116.13 C 113.49 116.77 113.56 117.74 114.20 118.30 L 115.18 119.16 C 115.82 119.72 116.79 119.65 117.35 119.01 C 117.91 118.37 117.85 117.40 117.21 116.84 Z M 116.30 116.01 L 115.46 115.21 C 114.83 114.62 113.84 114.64 113.25 115.27 C 112.65 115.89 112.67 116.88 113.30 117.48 L 114.13 118.28 C 114.76 118.87 115.75 118.85 116.35 118.22 C 116.94 117.60 116.92 116.61 116.30 116.01 Z M 115.62 115.35 L 115.07 114.67 C 114.52 113.99 113.52 113.88 112.83 114.43 C 112.15 114.98 112.04 115.98 112.59 116.67 L 113.14 117.35 C 113.69 118.03 114.69 118.14 115.38 117.59 C 116.06 117.03 116.17 116.03 115.62 115.35 Z M 115.41 115.34 L 115.31 114.83 C 115.13 113.95 114.27 113.39 113.40 113.57 C 112.53 113.75 111.97 114.61 112.15 115.48 L 112.25 116.00 C 112.43 116.87 113.29 117.43 114.16 117.25 C 115.03 117.07 115.59 116.22 115.41 115.34 Z M 114.56 116.55 L 115.12 116.22 C 115.89 115.76 116.15 114.76 115.69 113.99 C 115.23 113.21 114.23 112.96 113.46 113.42 L 112.89 113.75 C 112.12 114.21 111.87 115.21 112.33 115.98 C 112.79 116.76 113.79 117.01 114.56 116.55 Z M 114.48 116.44 L 115.55 116.31 C 116.45 116.20 117.08 115.39 116.97 114.49 C 116.87 113.60 116.05 112.96 115.16 113.07 L 114.09 113.20 C 113.20 113.31 112.56 114.12 112.67 115.01 C 112.78 115.91 113.59 116.55 114.48 116.44 Z M 115.41 116.32 L 116.65 116.28 C 117.56 116.25 118.26 115.49 118.23 114.58 C 118.20 113.68 117.44 112.97 116.53 113.01 L 115.29 113.05 C 114.39 113.09 113.69 113.85 113.72 114.75 C 113.75 115.65 114.51 116.36 115.41 116.32 Z M 116.67 116.28 L 117.56 116.24 C 118.47 116.20 119.17 115.44 119.13 114.53 C 119.09 113.63 118.32 112.93 117.41 112.97 L 116.52 113.01 C 115.61 113.05 114.91 113.81 114.95 114.72 C 114.99 115.62 115.76 116.32 116.67 116.28 Z M 117.60 116.24 L 118.52 116.18 C 119.42 116.12 120.10 115.33 120.04 114.43 C 119.98 113.53 119.20 112.84 118.30 112.91 L 117.38 112.97 C 116.47 113.03 115.79 113.81 115.85 114.71 C 115.91 115.62 116.69 116.30 117.60 116.24 Z M 118.56 116.17 L 119.55 116.08 C 120.45 116.00 121.12 115.20 121.03 114.30 C 120.95 113.40 120.15 112.73 119.25 112.82 L 118.26 112.91 C 117.36 112.99 116.69 113.79 116.78 114.69 C 116.86 115.59 117.66 116.26 118.56 116.17 Z M 119.59 116.08 L 120.71 115.95 C 121.61 115.84 122.25 115.03 122.15 114.13 C 122.04 113.23 121.23 112.59 120.33 112.69 L 119.21 112.82 C 118.31 112.93 117.67 113.74 117.77 114.64 C 117.88 115.54 118.69 116.18 119.59 116.08 Z M 120.74 115.95 L 121.73 115.81 C 122.63 115.69 123.26 114.87 123.14 113.97 C 123.02 113.07 122.19 112.44 121.30 112.56 L 120.30 112.69 C 119.40 112.82 118.77 113.64 118.89 114.54 C 119.01 115.44 119.84 116.07 120.74 115.95 Z M 121.75 115.81 L 122.71 115.67 C 123.60 115.54 124.22 114.71 124.09 113.81 C 123.96 112.91 123.13 112.29 122.23 112.42 L 121.28 112.56 C 120.38 112.69 119.76 113.53 119.89 114.42 C 120.02 115.32 120.85 115.94 121.75 115.81 Z M 122.72 115.67 L 123.72 115.51 C 124.62 115.38 125.24 114.54 125.10 113.64 C 124.96 112.75 124.12 112.13 123.23 112.27 L 122.22 112.43 C 121.33 112.56 120.71 113.40 120.85 114.30 C 120.99 115.19 121.82 115.81 122.72 115.67 Z M 123.74 115.51 L 124.76 115.35 C 125.66 115.20 126.27 114.36 126.12 113.47 C 125.98 112.57 125.14 111.96 124.24 112.11 L 123.22 112.27 C 122.32 112.42 121.71 113.26 121.85 114.15 C 122.00 115.05 122.84 115.66 123.74 115.51 Z M 124.77 115.35 L 125.80 115.18 C 126.69 115.03 127.30 114.18 127.15 113.29 C 127.00 112.39 126.15 111.79 125.26 111.94 L 124.23 112.11 C 123.34 112.26 122.73 113.10 122.88 114.00 C 123.03 114.89 123.88 115.50 124.77 115.35 Z M 125.81 115.18 L 126.81 115.00 C 127.70 114.85 128.30 114.00 128.15 113.11 C 128.00 112.21 127.15 111.61 126.25 111.77 L 125.25 111.94 C 124.36 112.09 123.76 112.94 123.91 113.83 C 124.06 114.73 124.91 115.33 125.81 115.18 Z M 126.82 115.00 L 127.83 114.82 C 128.72 114.67 129.32 113.81 129.16 112.92 C 129.00 112.03 128.15 111.43 127.25 111.59 L 126.24 111.77 C 125.35 111.93 124.75 112.78 124.91 113.67 C 125.07 114.57 125.92 115.16 126.82 115.00 Z M 127.84 114.82 L 128.87 114.63 C 129.77 114.47 130.36 113.61 130.19 112.72 C 130.03 111.83 129.17 111.24 128.28 111.40 L 127.24 111.59 C 126.35 111.75 125.76 112.61 125.92 113.50 C 126.08 114.40 126.94 114.99 127.84 114.82 Z M 128.88 114.64 L 129.86 114.45 C 130.75 114.28 131.34 113.42 131.17 112.53 C 131.01 111.63 130.15 111.05 129.25 111.21 L 128.27 111.40 C 127.38 111.57 126.79 112.43 126.96 113.32 C 127.12 114.21 127.99 114.80 128.88 114.64 Z M 129.86 114.45 L 130.81 114.27 C 131.71 114.10 132.30 113.24 132.13 112.34 C 131.95 111.45 131.09 110.86 130.20 111.03 L 129.25 111.21 C 128.35 111.38 127.77 112.25 127.94 113.14 C 128.11 114.04 128.97 114.62 129.86 114.45 Z M 130.82 114.27 L 131.76 114.09 C 132.66 113.92 133.24 113.06 133.07 112.16 C 132.90 111.27 132.04 110.68 131.14 110.85 L 130.20 111.03 C 129.30 111.20 128.71 112.07 128.88 112.96 C 129.05 113.86 129.92 114.44 130.82 114.27 Z M 131.76 114.10 L 132.72 113.91 C 133.62 113.74 134.21 112.88 134.04 111.98 C 133.87 111.08 133.00 110.49 132.11 110.66 L 131.14 110.85 C 130.24 111.02 129.66 111.88 129.82 112.78 C 129.99 113.68 130.86 114.27 131.76 114.10 Z M 132.72 113.92 L 133.67 113.74 C 134.57 113.57 135.17 112.71 135.00 111.81 C 134.83 110.91 133.97 110.32 133.07 110.48 L 132.11 110.66 C 131.21 110.83 130.62 111.69 130.78 112.59 C 130.95 113.49 131.82 114.08 132.72 113.92 Z M 133.67 113.75 L 134.65 113.57 C 135.55 113.40 136.15 112.54 135.99 111.64 C 135.83 110.73 134.96 110.13 134.06 110.30 L 133.07 110.48 C 132.17 110.64 131.57 111.51 131.74 112.41 C 131.90 113.31 132.76 113.91 133.67 113.75 Z M 134.65 113.57 L 135.65 113.40 C 136.55 113.24 137.16 112.37 137.00 111.47 C 136.84 110.56 135.97 109.95 135.06 110.11 L 134.06 110.29 C 133.16 110.45 132.55 111.32 132.71 112.22 C 132.87 113.13 133.74 113.73 134.65 113.57 Z M 135.64 113.40 L 136.64 113.23 C 137.55 113.07 138.16 112.21 138.00 111.30 C 137.85 110.39 136.98 109.78 136.07 109.94 L 135.07 110.11 C 134.16 110.27 133.55 111.13 133.71 112.04 C 133.86 112.95 134.73 113.56 135.64 113.40 Z M 136.63 113.24 L 137.62 113.07 C 138.54 112.92 139.15 112.06 139.00 111.14 C 138.85 110.23 137.99 109.61 137.07 109.77 L 136.08 109.93 C 135.17 110.08 134.55 110.95 134.70 111.86 C 134.86 112.77 135.72 113.39 136.63 113.24 Z M 137.61 113.08 L 138.72 112.91 C 139.64 112.76 140.27 111.90 140.12 110.98 C 139.97 110.06 139.11 109.43 138.19 109.58 L 137.08 109.75 C 136.16 109.90 135.54 110.76 135.68 111.68 C 135.83 112.60 136.69 113.23 137.61 113.08 Z M 138.69 112.93 L 139.97 112.75 C 140.90 112.62 141.55 111.76 141.42 110.83 C 141.29 109.89 140.43 109.24 139.50 109.38 L 138.22 109.55 C 137.29 109.68 136.64 110.55 136.77 111.48 C 136.90 112.41 137.76 113.06 138.69 112.93 Z M 139.89 112.79 L 140.96 112.69 C 141.91 112.61 142.62 111.77 142.53 110.82 C 142.45 109.86 141.61 109.16 140.66 109.24 L 139.58 109.34 C 138.63 109.42 137.92 110.26 138.01 111.22 C 138.09 112.17 138.93 112.87 139.89 112.79 Z M 140.74 112.73 L 141.51 112.76 C 142.48 112.80 143.30 112.04 143.34 111.07 C 143.38 110.10 142.63 109.28 141.65 109.24 L 140.88 109.21 C 139.91 109.17 139.09 109.92 139.05 110.90 C 139.01 111.87 139.76 112.69 140.74 112.73 Z M 140.60 112.49 L 141.00 112.75 C 141.82 113.30 142.93 113.07 143.47 112.24 C 144.01 111.42 143.79 110.32 142.96 109.77 L 142.56 109.51 C 141.74 108.97 140.63 109.20 140.09 110.02 C 139.55 110.84 139.78 111.95 140.60 112.49 Z M 140.30 110.65 L 140.05 111.33 C 139.71 112.26 140.19 113.29 141.12 113.63 C 142.05 113.97 143.08 113.49 143.42 112.56 L 143.67 111.88 C 144.01 110.95 143.53 109.92 142.60 109.58 C 141.67 109.24 140.64 109.72 140.30 110.65 Z M 140.28 110.89 L 139.55 111.90 C 138.97 112.70 139.15 113.82 139.95 114.41 C 140.76 114.99 141.88 114.81 142.46 114.00 L 143.19 113.00 C 143.77 112.19 143.59 111.07 142.78 110.49 C 141.98 109.91 140.86 110.09 140.28 110.89 Z M 139.53 111.93 L 138.92 112.81 C 138.35 113.63 138.55 114.75 139.37 115.31 C 140.19 115.88 141.31 115.68 141.87 114.86 L 142.48 113.97 C 143.05 113.16 142.85 112.04 142.03 111.47 C 141.21 110.91 140.09 111.11 139.53 111.93 Z M 138.86 112.89 L 138.34 113.75 C 137.82 114.59 138.08 115.70 138.92 116.22 C 139.77 116.74 140.87 116.48 141.40 115.63 L 141.92 114.78 C 142.44 113.93 142.18 112.83 141.34 112.31 C 140.49 111.78 139.38 112.05 138.86 112.89 Z M 138.30 113.81 L 137.80 114.71 C 137.32 115.58 137.63 116.67 138.49 117.15 C 139.36 117.64 140.46 117.32 140.94 116.46 L 141.44 115.56 C 141.92 114.70 141.61 113.60 140.74 113.12 C 139.87 112.64 138.78 112.95 138.30 113.81 Z M 137.76 114.78 L 137.31 115.68 C 136.86 116.57 137.22 117.65 138.11 118.09 C 139.00 118.54 140.08 118.18 140.52 117.29 L 140.98 116.39 C 141.42 115.50 141.06 114.42 140.17 113.97 C 139.28 113.53 138.20 113.89 137.76 114.78 Z M 137.27 115.76 L 136.87 116.68 C 136.47 117.59 136.88 118.65 137.79 119.05 C 138.70 119.45 139.76 119.04 140.16 118.13 L 140.56 117.21 C 140.96 116.30 140.55 115.24 139.64 114.84 C 138.73 114.44 137.67 114.85 137.27 115.76 Z M 136.83 116.77 L 136.48 117.69 C 136.13 118.62 136.60 119.66 137.53 120.01 C 138.46 120.36 139.50 119.89 139.85 118.96 L 140.20 118.04 C 140.54 117.11 140.08 116.07 139.15 115.72 C 138.22 115.37 137.18 115.84 136.83 116.77 Z M 136.45 117.78 L 136.16 118.71 C 135.85 119.66 136.38 120.67 137.32 120.97 C 138.27 121.28 139.28 120.75 139.58 119.81 L 139.88 118.87 C 140.18 117.93 139.66 116.92 138.71 116.62 C 137.77 116.31 136.76 116.84 136.45 117.78 Z M 136.13 118.79 L 135.87 119.76 C 135.61 120.72 136.17 121.70 137.13 121.97 C 138.08 122.23 139.07 121.67 139.33 120.71 L 139.60 119.74 C 139.86 118.78 139.30 117.79 138.34 117.53 C 137.38 117.27 136.40 117.83 136.13 118.79 Z M 135.86 119.81 L 135.63 120.74 C 135.40 121.70 135.99 122.67 136.95 122.91 C 137.91 123.14 138.89 122.55 139.12 121.59 L 139.35 120.66 C 139.58 119.69 138.99 118.72 138.02 118.49 C 137.06 118.26 136.09 118.85 135.86 119.81 Z M 135.62 120.78 L 135.42 121.70 C 135.20 122.67 135.81 123.63 136.78 123.84 C 137.75 124.06 138.71 123.45 138.92 122.48 L 139.13 121.55 C 139.34 120.58 138.73 119.62 137.76 119.41 C 136.79 119.20 135.84 119.81 135.62 120.78 Z M 135.41 121.74 L 135.21 122.71 C 135.02 123.68 135.65 124.63 136.62 124.83 C 137.59 125.02 138.54 124.39 138.73 123.42 L 138.93 122.45 C 139.12 121.47 138.50 120.53 137.52 120.33 C 136.55 120.14 135.61 120.76 135.41 121.74 Z M 135.21 122.74 L 135.02 123.76 C 134.84 124.74 135.49 125.67 136.46 125.85 C 137.44 126.03 138.37 125.39 138.55 124.41 L 138.74 123.39 C 138.92 122.42 138.27 121.48 137.30 121.30 C 136.32 121.12 135.39 121.77 135.21 122.74 Z M 135.02 123.79 L 134.84 124.86 C 134.68 125.83 135.34 126.76 136.32 126.92 C 137.29 127.08 138.22 126.42 138.38 125.44 L 138.55 124.38 C 138.72 123.41 138.06 122.48 137.08 122.32 C 136.10 122.16 135.18 122.82 135.02 123.79 Z M 134.84 124.88 L 134.68 125.91 C 134.54 126.89 135.21 127.80 136.19 127.95 C 137.17 128.10 138.08 127.42 138.23 126.45 L 138.38 125.42 C 138.53 124.44 137.85 123.52 136.88 123.38 C 135.90 123.23 134.98 123.90 134.84 124.88 Z M 134.68 125.94 L 134.54 126.97 C 134.40 127.95 135.09 128.86 136.07 128.99 C 137.05 129.12 137.95 128.44 138.09 127.46 L 138.23 126.42 C 138.36 125.44 137.68 124.54 136.70 124.41 C 135.72 124.27 134.82 124.96 134.68 125.94 Z M 134.54 127.00 L 134.41 128.01 C 134.29 128.99 134.98 129.89 135.96 130.01 C 136.95 130.13 137.84 129.43 137.96 128.45 L 138.09 127.44 C 138.21 126.46 137.51 125.56 136.53 125.44 C 135.55 125.32 134.66 126.02 134.54 127.00 Z M 134.41 128.03 L 134.30 129.00 C 134.19 129.98 134.90 130.87 135.88 130.98 C 136.86 131.09 137.74 130.38 137.85 129.40 L 137.96 128.43 C 138.07 127.45 137.37 126.57 136.39 126.46 C 135.41 126.35 134.52 127.05 134.41 128.03 Z M 134.30 129.03 L 134.21 129.95 C 134.11 130.93 134.83 131.80 135.81 131.90 C 136.79 132.00 137.66 131.28 137.76 130.30 L 137.85 129.38 C 137.95 128.40 137.24 127.52 136.25 127.43 C 135.27 127.33 134.40 128.04 134.30 129.03 Z M 134.21 129.98 L 134.11 131.10 C 134.03 132.09 134.76 132.95 135.75 133.03 C 136.73 133.11 137.59 132.38 137.67 131.40 L 137.76 130.27 C 137.84 129.29 137.11 128.43 136.13 128.35 C 135.15 128.27 134.29 129.00 134.21 129.98 Z M 134.11 131.13 L 134.05 132.12 C 133.98 133.10 134.73 133.95 135.71 134.01 C 136.69 134.08 137.54 133.34 137.60 132.36 L 137.67 131.37 C 137.74 130.39 136.99 129.54 136.01 129.47 C 135.03 129.41 134.18 130.15 134.11 131.13 Z M 134.05 132.13 L 134.00 133.04 C 133.94 134.02 134.68 134.86 135.66 134.92 C 136.65 134.98 137.49 134.23 137.55 133.25 L 137.60 132.34 C 137.66 131.36 136.91 130.52 135.93 130.46 C 134.95 130.40 134.11 131.15 134.05 132.13 Z M 134.00 133.03 L 133.94 133.97 C 133.87 134.95 134.61 135.80 135.59 135.86 C 136.57 135.93 137.42 135.19 137.48 134.21 L 137.55 133.26 C 137.61 132.28 136.87 131.44 135.89 131.37 C 134.91 131.31 134.06 132.05 134.00 133.03 Z M 133.94 133.96 L 133.86 134.95 C 133.79 135.93 134.53 136.78 135.50 136.85 C 136.48 136.92 137.33 136.19 137.41 135.21 L 137.48 134.22 C 137.55 133.24 136.82 132.39 135.84 132.32 C 134.86 132.25 134.01 132.98 133.94 133.96 Z M 133.87 134.95 L 133.79 135.95 C 133.72 136.93 134.46 137.78 135.43 137.85 C 136.41 137.92 137.26 137.19 137.33 136.21 L 137.40 135.21 C 137.48 134.23 136.74 133.38 135.76 133.31 C 134.79 133.24 133.94 133.97 133.87 134.95 Z M 133.79 135.97 L 133.73 136.96 C 133.67 137.94 134.41 138.78 135.39 138.84 C 136.37 138.90 137.21 138.16 137.27 137.18 L 137.33 136.19 C 137.39 135.22 136.65 134.37 135.67 134.31 C 134.69 134.25 133.85 135.00 133.79 135.97 Z M 133.73 136.98 L 133.68 137.96 C 133.63 138.94 134.38 139.77 135.36 139.82 C 136.34 139.87 137.17 139.12 137.22 138.14 L 137.27 137.16 C 137.32 136.18 136.57 135.35 135.59 135.30 C 134.61 135.25 133.78 136.00 133.73 136.98 Z M 133.68 137.97 L 133.64 138.98 C 133.60 139.96 134.36 140.79 135.33 140.83 C 136.31 140.87 137.13 140.11 137.18 139.13 L 137.22 138.13 C 137.26 137.15 136.50 136.32 135.53 136.28 C 134.55 136.24 133.72 137.00 133.68 137.97 Z M 133.64 138.99 L 133.60 140.02 C 133.56 140.99 134.33 141.82 135.30 141.85 C 136.28 141.89 137.10 141.13 137.14 140.15 L 137.17 139.13 C 137.21 138.15 136.45 137.33 135.48 137.29 C 134.50 137.25 133.68 138.02 133.64 138.99 Z M 133.60 140.02 L 133.57 141.02 C 133.53 142.00 134.29 142.82 135.27 142.85 C 136.24 142.89 137.06 142.13 137.10 141.16 L 137.13 140.15 C 137.17 139.18 136.41 138.36 135.43 138.32 C 134.46 138.29 133.64 139.05 133.60 140.02 Z M 133.57 141.02 L 133.53 142.03 C 133.50 143.01 134.26 143.83 135.23 143.86 C 136.20 143.90 137.02 143.14 137.06 142.16 L 137.09 141.15 C 137.13 140.18 136.37 139.36 135.40 139.33 C 134.42 139.29 133.60 140.05 133.57 141.02 Z M 133.53 142.03 L 133.50 143.03 C 133.46 144.00 134.22 144.82 135.19 144.86 C 136.16 144.89 136.98 144.13 137.02 143.16 L 137.05 142.17 C 137.09 141.19 136.33 140.38 135.36 140.34 C 134.39 140.30 133.57 141.06 133.53 142.03 Z M 133.50 143.03 L 133.46 144.04 C 133.42 145.01 134.18 145.83 135.15 145.87 C 136.12 145.91 136.94 145.15 136.98 144.18 L 137.01 143.16 C 137.05 142.19 136.30 141.38 135.32 141.34 C 134.35 141.30 133.54 142.06 133.50 143.03 Z M 133.46 144.05 L 133.43 145.05 C 133.39 146.02 134.15 146.84 135.11 146.87 C 136.08 146.91 136.90 146.15 136.93 145.18 L 136.97 144.18 C 137.01 143.21 136.25 142.39 135.28 142.36 C 134.32 142.32 133.50 143.08 133.46 144.05 Z M 133.43 145.06 L 133.40 146.04 C 133.37 147.01 134.13 147.82 135.09 147.85 C 136.06 147.88 136.87 147.12 136.90 146.16 L 136.93 145.17 C 136.96 144.21 136.20 143.40 135.24 143.37 C 134.27 143.34 133.46 144.10 133.43 145.06 Z M 133.40 146.06 L 133.38 147.05 C 133.36 148.01 134.12 148.81 135.09 148.83 C 136.05 148.85 136.85 148.09 136.87 147.13 L 136.89 146.14 C 136.91 145.18 136.15 144.38 135.19 144.36 C 134.22 144.34 133.43 145.10 133.40 146.06 Z M 133.39 147.06 L 133.37 148.07 C 133.36 149.03 134.13 149.82 135.09 149.83 C 136.05 149.84 136.84 149.07 136.85 148.11 L 136.87 147.11 C 136.88 146.15 136.11 145.36 135.15 145.35 C 134.19 145.34 133.40 146.10 133.39 147.06 Z M 133.38 148.07 L 133.37 149.07 C 133.36 150.03 134.13 150.81 135.08 150.82 C 136.04 150.83 136.82 150.07 136.84 149.11 L 136.85 148.11 C 136.86 147.15 136.09 146.37 135.13 146.36 C 134.18 146.35 133.39 147.12 133.38 148.07 Z M 133.38 149.06 L 133.36 150.01 C 133.34 150.96 134.10 151.75 135.05 151.77 C 136.01 151.78 136.79 151.02 136.81 150.07 L 136.83 149.12 C 136.85 148.17 136.09 147.38 135.13 147.36 C 134.18 147.35 133.39 148.11 133.38 149.06 Z M 133.37 149.99 L 133.34 150.82 C 133.32 151.77 134.07 152.56 135.02 152.58 C 135.97 152.61 136.76 151.86 136.78 150.91 L 136.81 150.09 C 136.83 149.14 136.08 148.35 135.13 148.32 C 134.18 148.29 133.39 149.04 133.37 149.99 Z M 133.35 150.82 L 133.32 151.74 C 133.30 152.68 134.04 153.47 134.99 153.50 C 135.94 153.52 136.72 152.78 136.75 151.83 L 136.78 150.91 C 136.80 149.97 136.06 149.18 135.11 149.15 C 134.16 149.13 133.38 149.87 133.35 150.82 Z M 133.33 151.75 L 133.31 152.85 C 133.29 153.79 134.03 154.57 134.98 154.59 C 135.92 154.61 136.70 153.87 136.72 152.92 L 136.74 151.82 C 136.76 150.88 136.02 150.10 135.08 150.08 C 134.13 150.06 133.35 150.81 133.33 151.75 Z M 133.31 152.86 L 133.30 154.02 C 133.28 154.96 134.03 155.73 134.97 155.74 C 135.91 155.76 136.68 155.01 136.70 154.07 L 136.71 152.91 C 136.73 151.97 135.98 151.20 135.04 151.19 C 134.10 151.17 133.33 151.92 133.31 152.86 Z M 133.30 154.03 L 133.30 154.99 C 133.29 155.93 134.04 156.69 134.98 156.70 C 135.92 156.70 136.68 155.95 136.69 155.01 L 136.69 154.05 C 136.70 153.12 135.94 152.35 135.01 152.35 C 134.07 152.34 133.31 153.10 133.30 154.03 Z M 133.30 155.00 L 133.30 156.03 C 133.30 156.97 134.06 157.72 135.00 157.72 C 135.93 157.72 136.68 156.96 136.68 156.03 L 136.68 155.00 C 136.68 154.07 135.92 153.31 134.99 153.31 C 134.06 153.31 133.30 154.07 133.30 155.00 Z M 133.31 156.05 L 133.32 157.11 C 133.33 158.04 134.09 158.78 135.03 158.77 C 135.96 158.76 136.70 158.00 136.69 157.07 L 136.68 156.01 C 136.67 155.08 135.90 154.33 134.97 154.34 C 134.04 154.35 133.30 155.12 133.31 156.05 Z M 133.32 157.13 L 133.35 158.18 C 133.38 159.11 134.15 159.84 135.08 159.82 C 136.00 159.80 136.74 159.02 136.71 158.10 L 136.69 157.04 C 136.66 156.12 135.89 155.38 134.96 155.41 C 134.03 155.43 133.30 156.20 133.32 157.13 Z M 133.36 158.21 L 133.40 159.22 C 133.44 160.14 134.23 160.86 135.15 160.82 C 136.08 160.78 136.79 159.99 136.75 159.07 L 136.71 158.06 C 136.67 157.14 135.88 156.42 134.96 156.46 C 134.03 156.51 133.32 157.29 133.36 158.21 Z M 133.41 159.26 L 133.48 160.24 C 133.55 161.16 134.35 161.85 135.27 161.79 C 136.19 161.72 136.88 160.92 136.81 160.00 L 136.74 159.02 C 136.68 158.10 135.88 157.41 134.96 157.48 C 134.04 157.54 133.34 158.34 133.41 159.26 Z M 133.51 160.32 L 133.65 161.52 C 133.77 162.43 134.59 163.07 135.50 162.96 C 136.40 162.85 137.05 162.03 136.94 161.12 L 136.79 159.92 C 136.68 159.01 135.85 158.37 134.95 158.48 C 134.04 158.59 133.40 159.42 133.51 160.32 Z M 133.70 161.62 L 133.89 162.62 C 134.05 163.50 134.90 164.08 135.78 163.92 C 136.67 163.75 137.25 162.90 137.08 162.02 L 136.89 161.02 C 136.73 160.14 135.88 159.56 134.99 159.73 C 134.11 159.89 133.53 160.74 133.70 161.62 Z M 133.93 162.71 L 134.15 163.57 C 134.36 164.42 135.23 164.94 136.09 164.73 C 136.94 164.51 137.46 163.65 137.25 162.79 L 137.03 161.93 C 136.82 161.07 135.95 160.55 135.10 160.77 C 134.24 160.98 133.72 161.85 133.93 162.71 Z M 134.19 163.61 L 134.39 164.33 C 134.63 165.17 135.50 165.65 136.34 165.41 C 137.17 165.18 137.65 164.31 137.42 163.47 L 137.21 162.75 C 136.97 161.91 136.10 161.43 135.27 161.67 C 134.43 161.91 133.95 162.78 134.19 163.61 Z"
      fill="black"
      fill-rule="nonzero" /><path d="M 120.49 138.97 L 121.46 138.76 C 122.30 138.58 122.84 137.75 122.66 136.91 C 122.48 136.07 121.65 135.53 120.81 135.71 L 119.83 135.92 C 118.99 136.10 118.46 136.93 118.64 137.77 C 118.82 138.61 119.65 139.15 120.49 138.97 Z M 121.47 138.77 L 122.44 138.56 C 123.29 138.37 123.83 137.53 123.64 136.69 C 123.45 135.84 122.62 135.30 121.77 135.49 L 120.80 135.70 C 119.95 135.89 119.41 136.73 119.60 137.57 C 119.78 138.42 120.62 138.96 121.47 138.77 Z M 122.46 138.57 L 123.44 138.35 C 124.29 138.15 124.82 137.30 124.63 136.45 C 124.43 135.59 123.58 135.06 122.73 135.25 L 121.75 135.48 C 120.90 135.67 120.37 136.52 120.56 137.38 C 120.75 138.23 121.60 138.76 122.46 138.57 Z M 123.46 138.35 L 124.42 138.12 C 125.28 137.91 125.80 137.05 125.60 136.19 C 125.39 135.34 124.53 134.81 123.67 135.02 L 122.71 135.25 C 121.85 135.46 121.33 136.32 121.53 137.17 C 121.74 138.03 122.60 138.56 123.46 138.35 Z M 124.44 138.10 L 125.33 137.88 C 126.17 137.66 126.68 136.80 126.47 135.95 C 126.25 135.10 125.39 134.59 124.54 134.81 L 123.65 135.03 C 122.81 135.25 122.30 136.11 122.51 136.96 C 122.73 137.81 123.59 138.32 124.44 138.10 Z M 125.34 137.84 L 126.26 137.59 C 127.09 137.37 127.58 136.51 127.36 135.68 C 127.13 134.85 126.27 134.36 125.44 134.59 L 124.52 134.84 C 123.69 135.06 123.20 135.92 123.43 136.75 C 123.66 137.58 124.51 138.07 125.34 137.84 Z M 126.28 137.56 L 127.26 137.28 C 128.07 137.04 128.54 136.19 128.30 135.38 C 128.07 134.57 127.22 134.10 126.41 134.34 L 125.43 134.62 C 124.62 134.85 124.15 135.70 124.38 136.52 C 124.62 137.33 125.47 137.80 126.28 137.56 Z M 127.27 137.25 L 128.33 136.92 C 129.13 136.68 129.57 135.84 129.33 135.04 C 129.09 134.25 128.25 133.80 127.45 134.04 L 126.39 134.37 C 125.60 134.61 125.15 135.45 125.39 136.25 C 125.64 137.04 126.48 137.49 127.27 137.25 Z M 128.34 136.90 L 129.30 136.59 C 130.08 136.34 130.51 135.51 130.26 134.73 C 130.01 133.95 129.18 133.51 128.40 133.76 L 127.44 134.07 C 126.66 134.32 126.23 135.15 126.48 135.93 C 126.73 136.72 127.56 137.15 128.34 136.90 Z M 129.31 136.58 L 130.28 136.26 C 131.05 136.01 131.48 135.18 131.22 134.40 C 130.97 133.63 130.14 133.21 129.36 133.46 L 128.39 133.77 C 127.61 134.03 127.19 134.86 127.44 135.64 C 127.70 136.41 128.53 136.83 129.31 136.58 Z M 130.28 136.26 L 131.26 135.93 C 132.03 135.68 132.45 134.85 132.20 134.08 C 131.95 133.31 131.12 132.89 130.35 133.14 L 129.36 133.47 C 128.59 133.72 128.17 134.55 128.43 135.32 C 128.68 136.09 129.51 136.51 130.28 136.26 Z M 131.26 135.92 L 132.23 135.60 C 133.00 135.35 133.41 134.52 133.16 133.76 C 132.91 132.99 132.08 132.58 131.32 132.83 L 130.35 133.15 C 129.58 133.40 129.17 134.23 129.42 134.99 C 129.67 135.76 130.50 136.17 131.26 135.92 Z M 132.23 135.60 L 133.15 135.29 C 133.91 135.05 134.33 134.23 134.08 133.46 C 133.83 132.70 133.01 132.29 132.25 132.53 L 131.33 132.84 C 130.56 133.09 130.15 133.90 130.40 134.67 C 130.65 135.43 131.46 135.84 132.23 135.60 Z M 133.14 135.29 L 134.15 134.97 C 134.91 134.73 135.33 133.92 135.09 133.16 C 134.85 132.40 134.04 131.98 133.28 132.22 L 132.26 132.54 C 131.51 132.78 131.08 133.59 131.33 134.35 C 131.57 135.11 132.38 135.53 133.14 135.29 Z M 134.13 134.97 L 135.16 134.66 C 135.92 134.43 136.35 133.62 136.12 132.86 C 135.89 132.10 135.08 131.67 134.32 131.90 L 133.30 132.22 C 132.54 132.45 132.11 133.25 132.34 134.01 C 132.57 134.77 133.37 135.20 134.13 134.97 Z M 135.14 134.66 L 136.07 134.39 C 136.83 134.17 137.27 133.37 137.04 132.61 C 136.82 131.85 136.03 131.41 135.27 131.63 L 134.34 131.90 C 133.58 132.13 133.14 132.92 133.37 133.68 C 133.59 134.44 134.38 134.88 135.14 134.66 Z M 136.06 134.39 L 136.92 134.14 C 137.68 133.93 138.13 133.14 137.91 132.38 C 137.70 131.62 136.91 131.18 136.15 131.39 L 135.28 131.64 C 134.52 131.85 134.08 132.64 134.29 133.40 C 134.51 134.16 135.30 134.60 136.06 134.39 Z M 136.92 134.14 L 137.22 134.06 C 137.97 133.84 138.42 133.06 138.20 132.30 C 137.99 131.54 137.21 131.10 136.45 131.31 L 136.15 131.39 C 135.39 131.60 134.95 132.39 135.16 133.15 C 135.37 133.91 136.16 134.35 136.92 134.14 Z"
      fill="black"
      fill-rule="nonzero" /><path d="M 124.61 141.88 L 123.52 142.61 C 122.82 143.08 122.64 144.02 123.10 144.71 C 123.57 145.40 124.51 145.59 125.20 145.12 L 126.30 144.39 C 126.99 143.92 127.17 142.98 126.71 142.29 C 126.24 141.60 125.31 141.41 124.61 141.88 Z M 123.40 142.69 L 122.59 143.34 C 121.94 143.87 121.84 144.83 122.37 145.48 C 122.90 146.13 123.86 146.23 124.51 145.70 L 125.32 145.05 C 125.97 144.52 126.07 143.56 125.54 142.91 C 125.01 142.26 124.05 142.16 123.40 142.69 Z M 122.17 143.87 L 121.93 144.37 C 121.57 145.13 121.90 146.04 122.66 146.41 C 123.42 146.77 124.33 146.44 124.69 145.68 L 124.93 145.18 C 125.29 144.41 124.97 143.50 124.20 143.14 C 123.44 142.78 122.53 143.11 122.17 143.87 Z M 122.58 146.37 L 123.10 146.66 C 123.84 147.06 124.78 146.79 125.18 146.05 C 125.59 145.31 125.32 144.38 124.58 143.97 L 124.05 143.68 C 123.31 143.28 122.38 143.55 121.97 144.29 C 121.56 145.03 121.84 145.96 122.58 146.37 Z M 123.72 146.84 L 124.78 146.92 C 125.62 146.99 126.36 146.37 126.43 145.52 C 126.49 144.68 125.87 143.94 125.02 143.87 L 123.96 143.79 C 123.12 143.72 122.38 144.35 122.31 145.19 C 122.24 146.03 122.87 146.77 123.72 146.84 Z M 125.00 146.93 L 126.25 146.84 C 127.10 146.79 127.74 146.06 127.68 145.22 C 127.63 144.37 126.90 143.73 126.05 143.79 L 124.80 143.87 C 123.96 143.93 123.32 144.65 123.37 145.50 C 123.43 146.34 124.16 146.98 125.00 146.93 Z M 126.41 146.81 L 127.38 146.65 C 128.21 146.50 128.76 145.72 128.62 144.89 C 128.48 144.07 127.69 143.51 126.86 143.65 L 125.90 143.82 C 125.07 143.96 124.52 144.75 124.66 145.58 C 124.80 146.40 125.59 146.96 126.41 146.81 Z M 127.50 146.60 L 128.43 146.35 C 129.23 146.15 129.71 145.33 129.50 144.53 C 129.29 143.73 128.48 143.25 127.68 143.46 L 126.75 143.70 C 125.95 143.91 125.47 144.73 125.68 145.53 C 125.88 146.32 126.70 146.80 127.50 146.60 Z M 128.50 146.31 L 129.45 146.01 C 130.23 145.76 130.66 144.93 130.41 144.16 C 130.16 143.39 129.34 142.96 128.56 143.20 L 127.61 143.51 C 126.83 143.75 126.41 144.58 126.65 145.35 C 126.90 146.13 127.72 146.56 128.50 146.31 Z M 129.47 145.98 L 130.44 145.65 C 131.20 145.40 131.60 144.57 131.35 143.81 C 131.09 143.06 130.27 142.65 129.51 142.91 L 128.54 143.23 C 127.78 143.49 127.38 144.31 127.63 145.07 C 127.89 145.83 128.71 146.24 129.47 145.98 Z M 130.43 145.64 L 131.32 145.35 C 132.07 145.09 132.47 144.28 132.22 143.52 C 131.97 142.77 131.15 142.36 130.40 142.62 L 129.51 142.91 C 128.76 143.17 128.35 143.99 128.61 144.74 C 128.86 145.49 129.68 145.90 130.43 145.64 Z M 131.31 145.34 L 132.25 145.03 C 133.00 144.78 133.41 143.96 133.16 143.21 C 132.90 142.46 132.09 142.05 131.34 142.30 L 130.40 142.62 C 129.65 142.87 129.24 143.69 129.49 144.44 C 129.75 145.19 130.56 145.60 131.31 145.34 Z M 132.25 145.03 L 133.23 144.70 C 133.98 144.45 134.38 143.64 134.13 142.89 C 133.88 142.14 133.07 141.73 132.32 141.98 L 131.34 142.31 C 130.59 142.56 130.18 143.37 130.44 144.12 C 130.69 144.87 131.50 145.28 132.25 145.03 Z M 133.23 144.70 L 134.23 144.36 C 134.98 144.11 135.38 143.30 135.13 142.55 C 134.88 141.80 134.07 141.40 133.32 141.65 L 132.32 141.98 C 131.57 142.23 131.17 143.04 131.42 143.79 C 131.67 144.54 132.48 144.95 133.23 144.70 Z M 134.23 144.36 L 134.64 144.22 C 135.38 143.97 135.79 143.17 135.54 142.42 C 135.29 141.67 134.48 141.27 133.73 141.52 L 133.32 141.65 C 132.58 141.90 132.17 142.71 132.42 143.46 C 132.67 144.20 133.48 144.61 134.23 144.36 Z"
      fill="black"
      fill-rule="nonzero" /><path d="M 124.94 153.08 L 123.99 153.42 C 123.20 153.70 122.79 154.57 123.08 155.36 C 123.36 156.15 124.23 156.56 125.02 156.28 L 125.97 155.94 C 126.76 155.66 127.17 154.79 126.88 154.00 C 126.60 153.21 125.73 152.80 124.94 153.08 Z M 123.99 153.42 L 123.04 153.76 C 122.25 154.05 121.85 154.92 122.13 155.71 C 122.42 156.50 123.29 156.91 124.08 156.62 L 125.02 156.28 C 125.81 155.99 126.22 155.12 125.93 154.33 C 125.65 153.54 124.78 153.14 123.99 153.42 Z M 123.03 153.77 L 122.10 154.11 C 121.31 154.40 120.91 155.28 121.20 156.07 C 121.49 156.85 122.36 157.26 123.15 156.97 L 124.09 156.62 C 124.88 156.33 125.28 155.45 124.99 154.66 C 124.70 153.88 123.82 153.47 123.03 153.77 Z M 122.08 154.12 L 121.12 154.48 C 120.33 154.79 119.94 155.67 120.24 156.45 C 120.54 157.24 121.42 157.63 122.21 157.33 L 123.17 156.96 C 123.96 156.66 124.35 155.78 124.05 154.99 C 123.75 154.21 122.87 153.81 122.08 154.12 Z M 121.08 154.49 L 119.84 155.00 C 119.06 155.32 118.68 156.21 119.01 157.00 C 119.33 157.78 120.22 158.16 121.01 157.83 L 122.24 157.33 C 123.03 157.00 123.40 156.11 123.08 155.32 C 122.76 154.54 121.86 154.17 121.08 154.49 Z M 119.73 155.03 L 118.89 155.45 C 118.13 155.83 117.82 156.76 118.20 157.53 C 118.58 158.30 119.52 158.61 120.28 158.22 L 121.12 157.80 C 121.89 157.42 122.20 156.48 121.81 155.72 C 121.43 154.95 120.50 154.64 119.73 155.03 Z M 118.13 156.27 L 118.03 156.51 C 117.72 157.32 118.12 158.23 118.92 158.54 C 119.73 158.85 120.64 158.46 120.95 157.65 L 121.05 157.40 C 121.36 156.60 120.96 155.69 120.16 155.38 C 119.35 155.06 118.44 155.46 118.13 156.27 Z M 119.52 158.65 L 120.37 158.63 C 121.24 158.62 121.93 157.91 121.91 157.04 C 121.90 156.18 121.19 155.49 120.32 155.50 L 119.47 155.52 C 118.60 155.53 117.91 156.24 117.93 157.11 C 117.94 157.97 118.65 158.66 119.52 158.65 Z M 120.63 158.60 L 121.96 158.36 C 122.81 158.20 123.37 157.39 123.21 156.54 C 123.06 155.69 122.24 155.13 121.40 155.29 L 120.06 155.53 C 119.22 155.69 118.66 156.50 118.81 157.35 C 118.97 158.20 119.78 158.76 120.63 158.60 Z M 122.08 158.31 L 123.03 158.06 C 123.86 157.83 124.35 156.99 124.12 156.16 C 123.90 155.34 123.05 154.85 122.23 155.07 L 121.27 155.33 C 120.45 155.55 119.96 156.40 120.19 157.23 C 120.41 158.05 121.26 158.54 122.08 158.31 Z M 123.10 158.02 L 124.06 157.71 C 124.86 157.45 125.30 156.59 125.05 155.79 C 124.79 154.99 123.93 154.55 123.13 154.80 L 122.17 155.11 C 121.36 155.37 120.92 156.23 121.18 157.03 C 121.44 157.83 122.29 158.27 123.10 158.02 Z M 124.10 157.67 L 125.05 157.34 C 125.83 157.06 126.24 156.20 125.96 155.42 C 125.69 154.64 124.83 154.23 124.05 154.50 L 123.09 154.84 C 122.31 155.12 121.90 155.97 122.18 156.76 C 122.45 157.54 123.31 157.95 124.10 157.67 Z M 125.06 157.31 L 126.02 156.95 C 126.79 156.67 127.18 155.81 126.90 155.05 C 126.61 154.28 125.76 153.89 124.99 154.17 L 124.03 154.53 C 123.26 154.82 122.87 155.67 123.16 156.44 C 123.44 157.20 124.30 157.59 125.06 157.31 Z M 126.03 156.93 L 126.99 156.56 C 127.75 156.28 128.12 155.43 127.84 154.67 C 127.55 153.92 126.70 153.54 125.94 153.83 L 124.98 154.19 C 124.23 154.48 123.85 155.33 124.14 156.09 C 124.43 156.84 125.27 157.22 126.03 156.93 Z M 127.00 156.55 L 127.91 156.19 C 128.66 155.89 129.03 155.05 128.73 154.30 C 128.44 153.56 127.60 153.19 126.85 153.49 L 125.94 153.85 C 125.19 154.14 124.82 154.98 125.12 155.73 C 125.41 156.47 126.25 156.84 127.00 156.55 Z M 127.92 156.17 L 128.81 155.81 C 129.55 155.51 129.90 154.67 129.61 153.94 C 129.31 153.20 128.47 152.85 127.74 153.14 L 126.84 153.50 C 126.11 153.80 125.75 154.64 126.05 155.37 C 126.35 156.11 127.19 156.47 127.92 156.17 Z M 128.82 155.80 L 129.76 155.41 C 130.49 155.10 130.83 154.27 130.53 153.54 C 130.23 152.81 129.39 152.46 128.66 152.77 L 127.73 153.16 C 127.00 153.46 126.65 154.29 126.95 155.02 C 127.26 155.75 128.09 156.10 128.82 155.80 Z M 129.77 155.40 L 130.68 155.01 C 131.41 154.70 131.75 153.87 131.44 153.14 C 131.13 152.41 130.30 152.08 129.57 152.38 L 128.65 152.77 C 127.93 153.08 127.59 153.92 127.89 154.64 C 128.20 155.37 129.04 155.71 129.77 155.40 Z M 130.69 155.01 L 131.57 154.63 C 132.30 154.32 132.63 153.48 132.32 152.76 C 132.01 152.03 131.17 151.70 130.45 152.01 L 129.57 152.39 C 128.84 152.70 128.51 153.53 128.82 154.26 C 129.13 154.98 129.96 155.32 130.69 155.01 Z"
      fill="black"
      fill-rule="nonzero" /><path d="M 127.26 156.13 L 126.48 156.78 C 125.84 157.31 125.76 158.27 126.29 158.91 C 126.83 159.55 127.79 159.64 128.43 159.10 L 129.20 158.45 C 129.85 157.91 129.93 156.96 129.39 156.32 C 128.86 155.68 127.90 155.59 127.26 156.13 Z M 126.47 156.78 L 125.71 157.44 C 125.07 157.98 124.99 158.94 125.53 159.57 C 126.08 160.21 127.03 160.29 127.67 159.75 L 128.44 159.09 C 129.08 158.55 129.15 157.59 128.61 156.95 C 128.07 156.32 127.11 156.24 126.47 156.78 Z M 125.68 157.45 L 124.93 158.11 C 124.31 158.67 124.25 159.63 124.80 160.26 C 125.36 160.89 126.32 160.95 126.95 160.39 L 127.70 159.73 C 128.32 159.17 128.38 158.21 127.83 157.58 C 127.27 156.96 126.31 156.90 125.68 157.45 Z M 124.90 158.14 L 124.18 158.81 C 123.57 159.39 123.54 160.35 124.11 160.97 C 124.69 161.58 125.65 161.61 126.26 161.04 L 126.98 160.36 C 127.60 159.79 127.63 158.83 127.05 158.21 C 126.48 157.60 125.51 157.57 124.90 158.14 Z M 124.14 158.85 L 123.45 159.55 C 122.86 160.15 122.86 161.11 123.46 161.71 C 124.06 162.30 125.03 162.29 125.62 161.69 L 126.31 161.00 C 126.90 160.40 126.90 159.43 126.30 158.84 C 125.70 158.25 124.73 158.25 124.14 158.85 Z M 123.40 159.59 L 122.74 160.31 C 122.17 160.94 122.21 161.91 122.84 162.48 C 123.47 163.05 124.44 163.01 125.01 162.38 L 125.67 161.65 C 126.24 161.03 126.20 160.06 125.57 159.49 C 124.94 158.91 123.97 158.96 123.40 159.59 Z M 122.69 160.35 L 122.05 161.11 C 121.50 161.77 121.59 162.74 122.24 163.29 C 122.89 163.84 123.86 163.75 124.41 163.10 L 125.06 162.34 C 125.61 161.69 125.52 160.71 124.87 160.16 C 124.22 159.61 123.24 159.70 122.69 160.35 Z M 122.01 161.15 L 121.37 161.97 C 120.84 162.64 120.96 163.62 121.64 164.15 C 122.32 164.67 123.29 164.55 123.82 163.88 L 124.46 163.06 C 124.98 162.39 124.86 161.41 124.19 160.89 C 123.51 160.36 122.54 160.48 122.01 161.15 Z M 121.34 162.00 L 120.78 162.75 C 120.27 163.45 120.42 164.42 121.12 164.93 C 121.81 165.44 122.79 165.30 123.30 164.60 L 123.85 163.85 C 124.36 163.15 124.21 162.18 123.52 161.67 C 122.82 161.16 121.85 161.31 121.34 162.00 Z M 120.76 162.78 L 120.21 163.57 C 119.72 164.28 119.89 165.26 120.60 165.75 C 121.31 166.24 122.29 166.07 122.78 165.36 L 123.33 164.57 C 123.82 163.86 123.64 162.89 122.93 162.39 C 122.22 161.90 121.25 162.07 120.76 162.78 Z M 120.18 163.60 L 119.63 164.44 C 119.16 165.17 119.36 166.14 120.08 166.62 C 120.81 167.09 121.79 166.89 122.26 166.16 L 122.81 165.33 C 123.28 164.60 123.08 163.63 122.36 163.15 C 121.63 162.67 120.66 162.88 120.18 163.60 Z M 119.60 164.47 L 119.06 165.36 C 118.60 166.10 118.83 167.07 119.57 167.53 C 120.31 167.99 121.28 167.76 121.74 167.02 L 122.29 166.13 C 122.75 165.39 122.52 164.42 121.77 163.96 C 121.03 163.50 120.06 163.73 119.60 164.47 Z M 119.03 165.39 L 118.49 166.32 C 118.05 167.08 118.31 168.05 119.07 168.49 C 119.82 168.92 120.79 168.67 121.23 167.91 L 121.77 166.98 C 122.21 166.22 121.95 165.26 121.19 164.82 C 120.44 164.38 119.47 164.64 119.03 165.39 Z M 118.47 166.35 L 117.97 167.26 C 117.55 168.03 117.83 169.00 118.60 169.42 C 119.37 169.84 120.34 169.55 120.76 168.78 L 121.26 167.88 C 121.68 167.11 121.39 166.14 120.62 165.72 C 119.85 165.30 118.89 165.58 118.47 166.35 Z M 117.96 167.28 L 117.47 168.21 C 117.06 168.99 117.37 169.95 118.14 170.36 C 118.92 170.76 119.89 170.46 120.29 169.68 L 120.78 168.76 C 121.18 167.98 120.88 167.02 120.10 166.61 C 119.32 166.20 118.36 166.51 117.96 167.28 Z M 117.46 168.22 L 117.00 169.14 C 116.60 169.93 116.91 170.89 117.70 171.28 C 118.48 171.68 119.44 171.37 119.84 170.58 L 120.31 169.67 C 120.70 168.88 120.39 167.92 119.60 167.52 C 118.82 167.12 117.86 167.44 117.46 168.22 Z M 116.99 169.15 L 116.55 170.03 C 116.16 170.82 116.48 171.78 117.27 172.18 C 118.06 172.57 119.02 172.24 119.41 171.45 L 119.85 170.57 C 120.24 169.78 119.92 168.82 119.13 168.43 C 118.34 168.04 117.38 168.36 116.99 169.15 Z M 116.54 170.04 L 116.14 170.86 C 115.75 171.65 116.07 172.61 116.87 173.00 C 117.66 173.39 118.62 173.07 119.01 172.27 L 119.42 171.45 C 119.81 170.66 119.48 169.69 118.69 169.30 C 117.89 168.91 116.93 169.24 116.54 170.04 Z M 116.14 170.86 L 115.64 171.87 C 115.25 172.66 115.57 173.63 116.37 174.02 C 117.16 174.41 118.13 174.08 118.52 173.29 L 119.02 172.28 C 119.41 171.48 119.08 170.52 118.29 170.13 C 117.49 169.73 116.53 170.06 116.14 170.86 Z M 115.64 171.87 L 115.19 172.77 C 114.79 173.57 115.12 174.53 115.92 174.92 C 116.71 175.32 117.68 174.99 118.07 174.20 L 118.52 173.29 C 118.91 172.50 118.59 171.53 117.79 171.14 C 116.99 170.74 116.03 171.07 115.64 171.87 Z M 115.19 172.77 L 114.77 173.60 C 114.38 174.40 114.71 175.37 115.51 175.76 C 116.30 176.15 117.27 175.83 117.66 175.03 L 118.07 174.20 C 118.47 173.40 118.14 172.43 117.34 172.04 C 116.55 171.65 115.58 171.97 115.19 172.77 Z M 114.77 173.61 L 114.36 174.44 C 113.97 175.24 114.30 176.20 115.10 176.59 C 115.90 176.99 116.87 176.66 117.26 175.86 L 117.67 175.03 C 118.06 174.23 117.73 173.26 116.93 172.87 C 116.13 172.48 115.16 172.81 114.77 173.61 Z M 114.36 174.45 L 113.92 175.34 C 113.54 176.15 113.87 177.11 114.68 177.50 C 115.48 177.89 116.44 177.55 116.83 176.75 L 117.26 175.85 C 117.65 175.05 117.32 174.08 116.51 173.69 C 115.71 173.31 114.75 173.64 114.36 174.45 Z M 113.92 175.35 L 113.49 176.26 C 113.11 177.06 113.45 178.03 114.26 178.41 C 115.06 178.79 116.02 178.45 116.41 177.64 L 116.84 176.74 C 117.22 175.93 116.87 174.97 116.07 174.59 C 115.26 174.20 114.30 174.55 113.92 175.35 Z M 113.48 176.27 L 113.06 177.18 C 112.69 177.99 113.04 178.95 113.85 179.33 C 114.66 179.70 115.62 179.35 115.99 178.54 L 116.41 177.63 C 116.79 176.82 116.44 175.86 115.63 175.48 C 114.82 175.11 113.86 175.46 113.48 176.27 Z M 113.05 177.20 L 112.68 178.02 C 112.32 178.83 112.68 179.79 113.49 180.15 C 114.30 180.52 115.26 180.16 115.63 179.35 L 116.00 178.52 C 116.37 177.71 116.00 176.75 115.19 176.39 C 114.38 176.02 113.42 176.38 113.05 177.20 Z M 112.68 178.03 L 112.30 178.89 C 111.94 179.70 112.31 180.66 113.13 181.02 C 113.95 181.37 114.90 181.00 115.26 180.19 L 115.64 179.33 C 115.99 178.51 115.62 177.56 114.81 177.20 C 113.99 176.84 113.04 177.21 112.68 178.03 Z M 112.30 178.90 L 111.89 179.85 C 111.54 180.67 111.92 181.62 112.74 181.97 C 113.56 182.32 114.51 181.94 114.86 181.12 L 115.26 180.17 C 115.62 179.35 115.23 178.40 114.41 178.05 C 113.59 177.70 112.65 178.08 112.30 178.90 Z M 111.89 179.86 L 111.45 180.89 C 111.11 181.72 111.50 182.66 112.32 183.00 C 113.14 183.35 114.09 182.96 114.43 182.14 L 114.86 181.11 C 115.21 180.28 114.82 179.34 114.00 178.99 C 113.18 178.65 112.23 179.04 111.89 179.86 Z M 111.45 180.90 L 111.09 181.77 C 110.75 182.60 111.15 183.54 111.97 183.88 C 112.80 184.22 113.74 183.82 114.08 183.00 L 114.44 182.13 C 114.77 181.31 114.38 180.36 113.56 180.02 C 112.73 179.69 111.79 180.08 111.45 180.90 Z M 111.09 181.79 L 110.72 182.72 C 110.38 183.54 110.78 184.48 111.61 184.81 C 112.43 185.14 113.37 184.75 113.70 183.92 L 114.08 182.99 C 114.41 182.16 114.01 181.23 113.19 180.89 C 112.36 180.56 111.42 180.96 111.09 181.79 Z M 110.71 182.73 L 110.33 183.69 C 110.01 184.52 110.42 185.46 111.25 185.78 C 112.07 186.10 113.01 185.70 113.33 184.87 L 113.71 183.90 C 114.03 183.08 113.62 182.14 112.80 181.82 C 111.97 181.50 111.04 181.90 110.71 182.73 Z M 110.33 183.72 L 109.96 184.68 C 109.65 185.51 110.07 186.44 110.90 186.75 C 111.73 187.07 112.66 186.65 112.97 185.82 L 113.34 184.85 C 113.65 184.02 113.23 183.09 112.40 182.78 C 111.57 182.46 110.64 182.88 110.33 183.72 Z M 109.96 184.71 L 109.62 185.65 C 109.32 186.49 109.76 187.41 110.59 187.71 C 111.43 188.00 112.34 187.57 112.64 186.73 L 112.98 185.79 C 113.28 184.95 112.84 184.04 112.01 183.74 C 111.17 183.44 110.25 183.88 109.96 184.71 Z M 109.61 185.70 L 109.17 187.07 C 108.90 187.91 109.36 188.81 110.20 189.08 C 111.03 189.35 111.93 188.89 112.20 188.06 L 112.65 186.69 C 112.92 185.85 112.46 184.95 111.62 184.68 C 110.78 184.41 109.88 184.87 109.61 185.70 Z M 109.16 187.15 L 108.87 188.26 C 108.64 189.11 109.14 189.97 109.98 190.20 C 110.82 190.42 111.68 189.93 111.91 189.09 L 112.21 187.98 C 112.44 187.14 111.94 186.27 111.10 186.04 C 110.26 185.82 109.39 186.31 109.16 187.15 Z M 108.84 188.46 L 108.76 189.06 C 108.64 189.91 109.24 190.70 110.09 190.82 C 110.94 190.94 111.73 190.34 111.85 189.49 L 111.93 188.89 C 112.05 188.04 111.45 187.25 110.60 187.13 C 109.75 187.01 108.96 187.61 108.84 188.46 Z M 111.08 190.59 L 111.29 190.47 C 112.01 190.04 112.26 189.11 111.83 188.38 C 111.40 187.65 110.46 187.41 109.73 187.83 L 109.53 187.95 C 108.80 188.38 108.56 189.32 108.98 190.05 C 109.41 190.78 110.35 191.02 111.08 190.59 Z M 111.81 189.89 L 112.28 189.06 C 112.69 188.34 112.44 187.43 111.73 187.02 C 111.01 186.61 110.10 186.86 109.69 187.58 L 109.21 188.41 C 108.80 189.13 109.05 190.04 109.77 190.45 C 110.48 190.86 111.40 190.61 111.81 189.89 Z M 112.28 188.98 L 112.90 187.75 C 113.27 187.04 112.98 186.16 112.27 185.80 C 111.55 185.44 110.68 185.72 110.32 186.44 L 109.69 187.66 C 109.33 188.37 109.61 189.25 110.33 189.61 C 111.04 189.97 111.92 189.69 112.28 188.98 Z M 112.89 187.73 L 112.97 187.56 C 113.33 186.86 113.04 186.00 112.33 185.64 C 111.63 185.29 110.77 185.58 110.42 186.28 L 110.33 186.46 C 109.98 187.16 110.27 188.02 110.97 188.37 C 111.68 188.72 112.53 188.44 112.89 187.73 Z"
      fill="black"
      fill-rule="nonzero" /><path d="M 125.00 168.19 L 125.75 168.71 C 126.44 169.18 127.38 169.00 127.85 168.31 C 128.32 167.63 128.14 166.68 127.46 166.21 L 126.71 165.70 C 126.02 165.23 125.08 165.40 124.60 166.09 C 124.13 166.78 124.31 167.72 125.00 168.19 Z M 125.72 168.71 L 126.50 169.26 C 127.19 169.74 128.14 169.58 128.63 168.89 C 129.11 168.19 128.95 167.24 128.26 166.75 L 127.48 166.21 C 126.79 165.72 125.84 165.89 125.35 166.58 C 124.86 167.27 125.03 168.23 125.72 168.71 Z M 126.46 169.25 L 127.28 169.86 C 127.97 170.37 128.94 170.22 129.45 169.53 C 129.95 168.84 129.81 167.87 129.12 167.37 L 128.30 166.76 C 127.61 166.25 126.64 166.40 126.13 167.09 C 125.62 167.77 125.77 168.74 126.46 169.25 Z M 127.24 169.85 L 128.11 170.53 C 128.79 171.06 129.78 170.94 130.31 170.26 C 130.84 169.58 130.72 168.59 130.04 168.06 L 129.16 167.38 C 128.48 166.85 127.50 166.97 126.97 167.65 C 126.43 168.33 126.55 169.32 127.24 169.85 Z M 128.08 170.52 L 128.82 171.12 C 129.49 171.68 130.49 171.58 131.04 170.90 C 131.59 170.23 131.49 169.23 130.82 168.68 L 130.08 168.07 C 129.40 167.52 128.41 167.62 127.85 168.30 C 127.30 168.97 127.40 169.97 128.08 170.52 Z M 128.80 171.12 L 129.58 171.77 C 130.25 172.33 131.25 172.24 131.81 171.57 C 132.37 170.89 132.28 169.89 131.61 169.33 L 130.83 168.69 C 130.16 168.12 129.16 168.21 128.60 168.89 C 128.04 169.56 128.13 170.56 128.80 171.12 Z M 129.57 171.77 L 130.36 172.44 C 131.04 173.00 132.04 172.91 132.61 172.23 C 133.17 171.56 133.08 170.56 132.41 169.99 L 131.62 169.33 C 130.94 168.76 129.94 168.85 129.37 169.53 C 128.81 170.20 128.90 171.21 129.57 171.77 Z M 130.37 172.45 L 131.16 173.10 C 131.84 173.66 132.85 173.56 133.41 172.88 C 133.97 172.20 133.88 171.19 133.19 170.63 L 132.40 169.98 C 131.72 169.42 130.71 169.51 130.15 170.20 C 129.59 170.88 129.69 171.89 130.37 172.45 Z M 131.18 173.12 L 131.94 173.73 C 132.64 174.29 133.65 174.17 134.20 173.48 C 134.75 172.78 134.64 171.77 133.95 171.22 L 133.18 170.61 C 132.48 170.05 131.47 170.17 130.92 170.86 C 130.37 171.56 130.48 172.57 131.18 173.12 Z M 131.98 173.76 L 132.84 174.41 C 133.55 174.94 134.56 174.80 135.09 174.09 C 135.63 173.37 135.48 172.37 134.77 171.83 L 133.91 171.19 C 133.20 170.65 132.19 170.80 131.66 171.51 C 131.12 172.22 131.27 173.23 131.98 173.76 Z M 132.89 174.44 L 133.71 175.02 C 134.44 175.53 135.45 175.35 135.95 174.62 C 136.46 173.89 136.28 172.88 135.55 172.37 L 134.73 171.80 C 134.00 171.29 132.99 171.47 132.48 172.20 C 131.98 172.93 132.16 173.93 132.89 174.44 Z M 133.76 175.05 L 134.57 175.57 C 135.32 176.06 136.31 175.84 136.80 175.10 C 137.28 174.35 137.07 173.35 136.32 172.87 L 135.51 172.34 C 134.76 171.86 133.76 172.07 133.28 172.82 C 132.80 173.57 133.01 174.57 133.76 175.05 Z M 134.61 175.60 L 135.43 176.10 C 136.19 176.56 137.18 176.32 137.64 175.56 C 138.10 174.79 137.86 173.80 137.10 173.34 L 136.28 172.85 C 135.52 172.38 134.53 172.63 134.07 173.39 C 133.61 174.15 133.85 175.14 134.61 175.60 Z M 135.46 176.11 L 136.30 176.60 C 137.07 177.05 138.06 176.78 138.50 176.01 C 138.95 175.24 138.68 174.26 137.91 173.81 L 137.07 173.33 C 136.30 172.88 135.32 173.14 134.87 173.91 C 134.43 174.68 134.69 175.67 135.46 176.11 Z M 136.33 176.61 L 137.21 177.10 C 137.99 177.52 138.96 177.24 139.39 176.46 C 139.82 175.69 139.53 174.71 138.76 174.28 L 137.88 173.80 C 137.11 173.37 136.13 173.66 135.70 174.43 C 135.27 175.21 135.56 176.19 136.33 176.61 Z M 137.24 177.11 L 138.14 177.57 C 138.92 177.98 139.89 177.68 140.30 176.89 C 140.71 176.10 140.40 175.14 139.62 174.73 L 138.72 174.27 C 137.94 173.86 136.97 174.16 136.56 174.95 C 136.15 175.73 136.46 176.70 137.24 177.11 Z M 138.18 177.59 L 139.09 178.03 C 139.89 178.41 140.84 178.08 141.23 177.29 C 141.61 176.49 141.28 175.53 140.48 175.15 L 139.57 174.71 C 138.78 174.33 137.82 174.66 137.44 175.46 C 137.05 176.25 137.39 177.21 138.18 177.59 Z M 139.14 178.05 L 140.07 178.46 C 140.88 178.81 141.82 178.45 142.17 177.64 C 142.53 176.84 142.16 175.90 141.36 175.54 L 140.43 175.13 C 139.62 174.78 138.68 175.14 138.33 175.95 C 137.97 176.75 138.34 177.69 139.14 178.05 Z M 140.13 178.47 L 141.08 178.85 C 141.90 179.17 142.82 178.77 143.14 177.96 C 143.46 177.14 143.06 176.22 142.25 175.90 L 141.29 175.53 C 140.48 175.20 139.56 175.60 139.24 176.42 C 138.92 177.23 139.32 178.15 140.13 178.47 Z M 141.15 178.86 L 142.09 179.19 C 142.91 179.48 143.81 179.05 144.10 178.23 C 144.39 177.41 143.96 176.51 143.14 176.23 L 142.19 175.89 C 141.37 175.60 140.47 176.04 140.18 176.86 C 139.89 177.67 140.33 178.57 141.15 178.86 Z M 142.15 179.20 L 143.09 179.49 C 143.92 179.75 144.79 179.29 145.05 178.46 C 145.30 177.64 144.84 176.77 144.02 176.51 L 143.08 176.22 C 142.25 175.96 141.38 176.42 141.12 177.25 C 140.87 178.07 141.33 178.95 142.15 179.20 Z M 143.15 179.50 L 144.09 179.75 C 144.91 179.97 145.76 179.49 145.99 178.66 C 146.21 177.83 145.72 176.98 144.90 176.76 L 143.96 176.51 C 143.14 176.28 142.29 176.77 142.06 177.60 C 141.84 178.42 142.33 179.27 143.15 179.50 Z M 144.15 179.75 L 145.10 179.97 C 145.93 180.16 146.75 179.65 146.94 178.82 C 147.13 178.00 146.62 177.17 145.79 176.98 L 144.84 176.76 C 144.01 176.57 143.19 177.08 143.00 177.91 C 142.81 178.73 143.32 179.56 144.15 179.75 Z M 145.17 179.97 L 146.14 180.15 C 146.96 180.30 147.75 179.76 147.90 178.93 C 148.06 178.11 147.51 177.32 146.69 177.16 L 145.73 176.98 C 144.90 176.83 144.11 177.38 143.96 178.20 C 143.81 179.02 144.35 179.81 145.17 179.97 Z M 146.21 180.14 L 147.20 180.28 C 148.02 180.39 148.78 179.82 148.89 179.00 C 149.01 178.18 148.43 177.42 147.61 177.31 L 146.62 177.17 C 145.80 177.06 145.04 177.63 144.93 178.45 C 144.82 179.27 145.39 180.03 146.21 180.14 Z M 147.27 180.27 L 148.29 180.36 C 149.10 180.44 149.82 179.84 149.90 179.02 C 149.98 178.21 149.38 177.49 148.56 177.41 L 147.54 177.32 C 146.73 177.24 146.01 177.84 145.93 178.66 C 145.86 179.47 146.46 180.19 147.27 180.27 Z M 148.34 180.35 L 149.30 180.41 C 150.11 180.45 150.80 179.83 150.85 179.02 C 150.89 178.21 150.27 177.52 149.46 177.47 L 148.51 177.42 C 147.69 177.38 147.00 178.00 146.96 178.81 C 146.91 179.62 147.53 180.31 148.34 180.35 Z M 149.34 180.40 L 150.33 180.43 C 151.13 180.45 151.80 179.82 151.83 179.01 C 151.85 178.21 151.22 177.53 150.41 177.51 L 149.42 177.48 C 148.62 177.46 147.94 178.09 147.92 178.90 C 147.90 179.70 148.53 180.37 149.34 180.40 Z M 150.35 180.42 L 151.37 180.43 C 152.17 180.44 152.83 179.80 152.84 179.00 C 152.85 178.20 152.21 177.54 151.41 177.53 L 150.39 177.52 C 149.59 177.51 148.93 178.15 148.92 178.95 C 148.91 179.75 149.55 180.41 150.35 180.42 Z M 151.38 180.42 L 152.42 180.42 C 153.21 180.42 153.86 179.78 153.86 178.99 C 153.86 178.19 153.22 177.55 152.42 177.55 L 151.39 177.54 C 150.60 177.54 149.95 178.18 149.95 178.98 C 149.95 179.77 150.59 180.42 151.38 180.42 Z M 152.42 180.42 L 152.84 180.42 C 153.63 180.42 154.27 179.77 154.27 178.98 C 154.27 178.19 153.63 177.55 152.84 177.55 L 152.42 177.55 C 151.63 177.55 150.99 178.19 150.99 178.98 C 150.99 179.77 151.63 180.42 152.42 180.42 Z"
      fill="black"
      fill-rule="nonzero" /><path d="M 161.79 125.75 L 161.50 126.69 C 161.26 127.52 161.73 128.40 162.56 128.64 C 163.39 128.89 164.27 128.42 164.51 127.59 L 164.79 126.65 C 165.04 125.82 164.57 124.94 163.74 124.70 C 162.91 124.45 162.03 124.92 161.79 125.75 Z M 161.48 126.73 L 161.23 127.69 C 161.00 128.54 161.51 129.40 162.35 129.63 C 163.20 129.85 164.06 129.35 164.29 128.50 L 164.54 127.54 C 164.76 126.70 164.26 125.83 163.41 125.61 C 162.57 125.39 161.70 125.89 161.48 126.73 Z M 161.19 127.78 L 160.99 128.78 C 160.82 129.65 161.38 130.49 162.24 130.66 C 163.11 130.83 163.95 130.27 164.12 129.41 L 164.32 128.41 C 164.49 127.55 163.93 126.71 163.07 126.53 C 162.21 126.36 161.36 126.92 161.19 127.78 Z M 160.96 128.90 L 160.85 129.88 C 160.74 130.76 161.37 131.56 162.25 131.66 C 163.13 131.77 163.93 131.14 164.04 130.26 L 164.15 129.28 C 164.26 128.40 163.63 127.60 162.75 127.50 C 161.87 127.39 161.07 128.02 160.96 128.90 Z M 160.83 129.98 L 160.77 130.97 C 160.72 131.86 161.40 132.62 162.29 132.67 C 163.18 132.72 163.95 132.04 164.00 131.15 L 164.05 130.16 C 164.10 129.27 163.42 128.51 162.53 128.46 C 161.64 128.41 160.88 129.09 160.83 129.98 Z M 160.76 131.03 L 160.74 132.04 C 160.72 132.94 161.44 133.68 162.34 133.70 C 163.23 133.71 163.97 133.00 163.99 132.10 L 164.01 131.09 C 164.03 130.19 163.31 129.45 162.41 129.43 C 161.52 129.42 160.78 130.13 160.76 131.03 Z M 160.73 132.07 L 160.73 133.09 C 160.73 133.99 161.46 134.73 162.36 134.73 C 163.26 134.73 163.99 134.00 164.00 133.10 L 164.00 132.08 C 164.00 131.17 163.27 130.44 162.37 130.44 C 161.47 130.44 160.73 131.17 160.73 132.07 Z M 160.73 133.10 L 160.73 134.10 C 160.73 135.01 161.46 135.74 162.36 135.74 C 163.27 135.74 164.00 135.01 164.00 134.10 L 164.00 133.10 C 164.00 132.19 163.27 131.46 162.36 131.46 C 161.46 131.46 160.73 132.19 160.73 133.10 Z M 160.73 134.10 L 160.73 135.10 C 160.73 136.01 161.46 136.74 162.36 136.74 C 163.27 136.74 164.00 136.01 164.00 135.10 L 164.00 134.10 C 164.00 133.20 163.27 132.46 162.36 132.46 C 161.46 132.46 160.73 133.20 160.73 134.10 Z M 160.73 135.10 L 160.73 136.10 C 160.73 137.01 161.46 137.74 162.36 137.74 C 163.27 137.74 164.00 137.01 164.00 136.10 L 164.00 135.10 C 164.00 134.20 163.27 133.47 162.36 133.47 C 161.46 133.47 160.73 134.20 160.73 135.10 Z M 160.72 136.10 L 160.73 137.08 C 160.73 137.98 161.46 138.71 162.36 138.71 C 163.27 138.71 164.00 137.98 164.00 137.07 L 164.00 136.10 C 164.00 135.19 163.27 134.46 162.36 134.46 C 161.46 134.46 160.72 135.20 160.72 136.10 Z M 160.73 137.09 L 160.73 138.05 C 160.74 138.96 161.48 139.68 162.39 139.67 C 163.29 139.67 164.02 138.93 164.01 138.02 L 164.00 137.06 C 163.99 136.16 163.25 135.43 162.35 135.44 C 161.44 135.45 160.72 136.19 160.73 137.09 Z M 160.74 138.09 L 160.77 139.08 C 160.80 139.98 161.56 140.69 162.46 140.66 C 163.36 140.63 164.07 139.87 164.04 138.97 L 164.01 137.98 C 163.98 137.08 163.22 136.37 162.32 136.40 C 161.41 136.43 160.71 137.19 160.74 138.09 Z M 160.78 139.14 L 160.85 140.18 C 160.92 141.08 161.70 141.76 162.60 141.69 C 163.50 141.63 164.18 140.84 164.11 139.94 L 164.04 138.91 C 163.97 138.01 163.19 137.33 162.29 137.39 C 161.39 137.46 160.71 138.24 160.78 139.14 Z M 160.86 140.25 L 160.98 141.26 C 161.08 142.16 161.89 142.80 162.79 142.69 C 163.68 142.59 164.32 141.78 164.22 140.88 L 164.10 139.87 C 164.00 138.98 163.19 138.34 162.29 138.44 C 161.40 138.55 160.76 139.36 160.86 140.25 Z M 160.99 141.32 L 161.15 142.33 C 161.29 143.21 162.12 143.82 163.01 143.68 C 163.89 143.55 164.50 142.71 164.36 141.83 L 164.20 140.82 C 164.07 139.94 163.24 139.33 162.35 139.47 C 161.46 139.61 160.86 140.44 160.99 141.32 Z M 161.17 142.38 L 161.36 143.39 C 161.52 144.26 162.37 144.84 163.24 144.68 C 164.12 144.51 164.70 143.67 164.53 142.79 L 164.34 141.78 C 164.18 140.90 163.34 140.32 162.46 140.49 C 161.58 140.65 161.00 141.50 161.17 142.38 Z M 161.37 143.43 L 161.59 144.41 C 161.77 145.27 162.63 145.83 163.50 145.64 C 164.37 145.45 164.92 144.59 164.73 143.72 L 164.52 142.75 C 164.33 141.88 163.47 141.33 162.60 141.51 C 161.74 141.70 161.18 142.56 161.37 143.43 Z M 161.61 144.45 L 161.86 145.47 C 162.08 146.33 162.95 146.85 163.80 146.64 C 164.66 146.42 165.18 145.55 164.96 144.70 L 164.71 143.68 C 164.49 142.82 163.63 142.30 162.77 142.52 C 161.91 142.73 161.39 143.60 161.61 144.45 Z M 161.92 145.57 L 162.27 146.66 C 162.54 147.49 163.43 147.94 164.25 147.67 C 165.08 147.40 165.53 146.52 165.26 145.69 L 164.91 144.60 C 164.64 143.77 163.75 143.32 162.93 143.59 C 162.10 143.86 161.65 144.75 161.92 145.57 Z M 162.41 146.91 L 162.86 147.73 C 163.27 148.48 164.20 148.75 164.95 148.34 C 165.70 147.94 165.97 147.00 165.56 146.25 L 165.12 145.44 C 164.71 144.69 163.78 144.41 163.03 144.82 C 162.28 145.23 162.01 146.17 162.41 146.91 Z M 163.28 148.18 L 163.90 148.66 C 164.56 149.17 165.51 149.05 166.02 148.40 C 166.53 147.74 166.41 146.79 165.75 146.28 L 165.14 145.80 C 164.48 145.29 163.53 145.40 163.02 146.06 C 162.51 146.72 162.63 147.67 163.28 148.18 Z M 164.67 148.94 L 165.57 149.04 C 166.38 149.12 167.11 148.53 167.20 147.72 C 167.28 146.90 166.69 146.17 165.88 146.09 L 164.98 145.99 C 164.17 145.91 163.44 146.50 163.35 147.31 C 163.27 148.13 163.86 148.86 164.67 148.94 Z M 165.99 149.00 L 167.03 148.80 C 167.82 148.65 168.34 147.89 168.19 147.10 C 168.04 146.31 167.28 145.78 166.48 145.93 L 165.45 146.13 C 164.66 146.28 164.14 147.04 164.29 147.83 C 164.44 148.63 165.20 149.15 165.99 149.00 Z M 167.13 148.76 L 167.63 148.63 C 168.40 148.42 168.86 147.63 168.65 146.86 C 168.45 146.09 167.66 145.63 166.89 145.84 L 166.38 145.97 C 165.61 146.18 165.16 146.97 165.36 147.74 C 165.57 148.51 166.36 148.97 167.13 148.76 Z"
      fill="black"
      fill-rule="nonzero" /><path d="M 175.74 107.97 L 176.31 108.67 C 176.84 109.32 177.79 109.42 178.44 108.89 C 179.09 108.36 179.18 107.41 178.66 106.76 L 178.09 106.06 C 177.56 105.42 176.61 105.32 175.96 105.84 C 175.31 106.37 175.22 107.32 175.74 107.97 Z M 176.20 108.63 L 176.75 109.40 C 177.25 110.11 178.24 110.28 178.94 109.77 C 179.65 109.27 179.82 108.29 179.32 107.58 L 178.77 106.81 C 178.26 106.10 177.28 105.93 176.57 106.43 C 175.87 106.94 175.70 107.92 176.20 108.63 Z M 176.61 109.28 L 177.12 110.21 C 177.55 111.00 178.55 111.28 179.33 110.85 C 180.12 110.41 180.41 109.42 179.97 108.63 L 179.46 107.70 C 179.03 106.91 178.03 106.63 177.25 107.06 C 176.46 107.50 176.17 108.49 176.61 109.28 Z M 176.99 110.05 L 177.38 111.01 C 177.73 111.87 178.71 112.28 179.57 111.93 C 180.43 111.58 180.84 110.60 180.49 109.75 L 180.10 108.79 C 179.75 107.93 178.77 107.52 177.91 107.86 C 177.06 108.21 176.64 109.19 176.99 110.05 Z M 177.32 110.89 L 177.61 111.82 C 177.89 112.71 178.85 113.21 179.74 112.92 C 180.63 112.64 181.13 111.69 180.85 110.79 L 180.55 109.87 C 180.27 108.97 179.32 108.48 178.42 108.76 C 177.53 109.04 177.04 110.00 177.32 110.89 Z M 177.58 111.74 L 177.85 112.74 C 178.09 113.65 179.03 114.19 179.93 113.94 C 180.84 113.70 181.38 112.77 181.14 111.86 L 180.87 110.87 C 180.63 109.96 179.70 109.42 178.79 109.66 C 177.88 109.90 177.34 110.84 177.58 111.74 Z M 177.83 112.69 L 178.07 113.71 C 178.29 114.63 179.21 115.19 180.13 114.98 C 181.05 114.76 181.62 113.84 181.40 112.92 L 181.16 111.90 C 180.94 110.98 180.02 110.42 179.10 110.63 C 178.18 110.85 177.61 111.77 177.83 112.69 Z M 178.06 113.68 L 178.28 114.67 C 178.48 115.60 179.40 116.18 180.33 115.98 C 181.25 115.77 181.84 114.86 181.63 113.93 L 181.41 112.94 C 181.21 112.01 180.29 111.43 179.36 111.64 C 178.44 111.84 177.85 112.76 178.06 113.68 Z M 178.27 114.67 L 178.50 115.71 C 178.70 116.64 179.62 117.23 180.55 117.03 C 181.48 116.83 182.07 115.91 181.87 114.98 L 181.64 113.94 C 181.44 113.01 180.52 112.42 179.59 112.62 C 178.66 112.82 178.07 113.74 178.27 114.67 Z M 178.49 115.72 L 178.72 116.73 C 178.92 117.66 179.84 118.25 180.77 118.05 C 181.70 117.84 182.29 116.92 182.09 115.99 L 181.87 114.98 C 181.67 114.05 180.74 113.45 179.81 113.66 C 178.88 113.86 178.29 114.78 178.49 115.72 Z M 178.71 116.73 L 178.92 117.68 C 179.12 118.61 180.05 119.20 180.98 119.00 C 181.91 118.79 182.51 117.87 182.30 116.94 L 182.09 115.99 C 181.89 115.06 180.97 114.46 180.03 114.67 C 179.10 114.87 178.51 115.80 178.71 116.73 Z M 178.92 117.68 L 179.11 118.59 C 179.32 119.53 180.24 120.12 181.18 119.92 C 182.11 119.72 182.71 118.79 182.51 117.86 L 182.31 116.94 C 182.10 116.00 181.18 115.41 180.24 115.61 C 179.31 115.82 178.71 116.74 178.92 117.68 Z M 179.11 118.59 L 179.31 119.53 C 179.51 120.46 180.43 121.06 181.37 120.86 C 182.31 120.66 182.91 119.74 182.71 118.80 L 182.51 117.86 C 182.31 116.92 181.39 116.32 180.45 116.52 C 179.51 116.73 178.91 117.65 179.11 118.59 Z M 179.31 119.52 L 179.51 120.48 C 179.71 121.43 180.63 122.03 181.57 121.83 C 182.51 121.63 183.11 120.71 182.92 119.77 L 182.71 118.80 C 182.52 117.86 181.59 117.26 180.65 117.46 C 179.71 117.66 179.11 118.58 179.31 119.52 Z M 179.51 120.48 L 179.71 121.46 C 179.90 122.40 180.82 123.01 181.77 122.82 C 182.71 122.62 183.32 121.70 183.12 120.76 L 182.92 119.77 C 182.73 118.83 181.80 118.23 180.86 118.42 C 179.92 118.61 179.31 119.54 179.51 120.48 Z M 179.71 121.46 L 179.91 122.45 C 180.10 123.40 181.02 124.01 181.96 123.82 C 182.91 123.63 183.52 122.71 183.33 121.76 L 183.13 120.76 C 182.93 119.82 182.01 119.21 181.07 119.40 C 180.12 119.59 179.51 120.51 179.71 121.46 Z M 179.91 122.45 L 180.10 123.42 C 180.29 124.37 181.21 124.98 182.15 124.79 C 183.10 124.60 183.71 123.68 183.52 122.74 L 183.33 121.77 C 183.14 120.82 182.22 120.21 181.28 120.40 C 180.33 120.58 179.72 121.50 179.91 122.45 Z M 180.10 123.42 L 180.29 124.38 C 180.47 125.33 181.39 125.95 182.34 125.76 C 183.28 125.58 183.90 124.66 183.71 123.71 L 183.52 122.74 C 183.34 121.80 182.42 121.18 181.48 121.37 C 180.53 121.55 179.91 122.47 180.10 123.42 Z M 180.29 124.38 L 180.48 125.36 C 180.66 126.31 181.58 126.93 182.52 126.75 C 183.47 126.56 184.09 125.65 183.91 124.70 L 183.72 123.72 C 183.53 122.77 182.62 122.15 181.67 122.33 C 180.72 122.52 180.11 123.43 180.29 124.38 Z M 180.48 125.36 L 180.67 126.36 C 180.85 127.30 181.76 127.92 182.71 127.74 C 183.65 127.56 184.28 126.65 184.10 125.70 L 183.91 124.71 C 183.73 123.76 182.81 123.14 181.87 123.32 C 180.92 123.50 180.30 124.41 180.48 125.36 Z M 180.67 126.35 L 180.85 127.33 C 181.03 128.28 181.94 128.90 182.89 128.72 C 183.83 128.55 184.46 127.63 184.28 126.69 L 184.10 125.71 C 183.92 124.76 183.01 124.14 182.06 124.31 C 181.11 124.49 180.49 125.40 180.67 126.35 Z M 180.84 127.32 L 181.02 128.29 C 181.19 129.24 182.11 129.87 183.06 129.69 C 184.01 129.52 184.64 128.60 184.46 127.65 L 184.29 126.69 C 184.11 125.74 183.20 125.11 182.25 125.29 C 181.30 125.46 180.67 126.37 180.84 127.32 Z M 181.01 128.28 L 181.19 129.26 C 181.36 130.21 182.27 130.85 183.22 130.68 C 184.18 130.51 184.81 129.59 184.64 128.64 L 184.47 127.66 C 184.30 126.71 183.39 126.07 182.43 126.24 C 181.48 126.41 180.84 127.32 181.01 128.28 Z M 181.18 129.24 L 181.35 130.24 C 181.51 131.20 182.42 131.85 183.38 131.68 C 184.34 131.52 184.99 130.61 184.82 129.65 L 184.65 128.65 C 184.49 127.69 183.58 127.05 182.62 127.21 C 181.66 127.38 181.02 128.29 181.18 129.24 Z M 181.34 130.23 L 181.51 131.25 C 181.66 132.21 182.57 132.87 183.53 132.71 C 184.50 132.55 185.15 131.65 185.00 130.68 L 184.83 129.67 C 184.68 128.70 183.77 128.05 182.80 128.20 C 181.84 128.36 181.19 129.27 181.34 130.23 Z M 181.50 131.23 L 181.64 132.19 C 181.79 133.16 182.70 133.82 183.66 133.67 C 184.63 133.53 185.30 132.62 185.15 131.66 L 185.00 130.70 C 184.86 129.73 183.95 129.07 182.98 129.21 C 182.02 129.36 181.35 130.26 181.50 131.23 Z M 181.64 132.18 L 181.78 133.15 C 181.92 134.12 182.82 134.80 183.79 134.66 C 184.76 134.52 185.44 133.62 185.30 132.64 L 185.16 131.67 C 185.01 130.70 184.11 130.02 183.14 130.16 C 182.17 130.30 181.50 131.21 181.64 132.18 Z M 181.77 133.14 L 181.91 134.14 C 182.05 135.11 182.95 135.79 183.92 135.66 C 184.90 135.52 185.58 134.62 185.44 133.65 L 185.30 132.65 C 185.17 131.68 184.27 131.00 183.29 131.13 C 182.32 131.27 181.64 132.17 181.77 133.14 Z M 181.91 134.13 L 182.04 135.14 C 182.17 136.12 183.07 136.80 184.05 136.67 C 185.03 136.54 185.72 135.64 185.58 134.66 L 185.45 133.65 C 185.32 132.68 184.42 131.99 183.44 132.12 C 182.46 132.25 181.77 133.15 181.91 134.13 Z M 182.04 135.14 L 182.17 136.15 C 182.30 137.13 183.20 137.82 184.18 137.69 C 185.16 137.56 185.85 136.66 185.72 135.68 L 185.59 134.67 C 185.46 133.69 184.56 133.00 183.58 133.13 C 182.60 133.26 181.91 134.16 182.04 135.14 Z M 182.17 136.15 L 182.29 137.11 C 182.42 138.10 183.32 138.79 184.30 138.66 C 185.29 138.53 185.98 137.63 185.85 136.65 L 185.73 135.68 C 185.60 134.70 184.70 134.00 183.71 134.13 C 182.73 134.26 182.04 135.16 182.17 136.15 Z M 182.29 137.11 L 182.41 138.08 C 182.54 139.07 183.44 139.77 184.43 139.64 C 185.41 139.52 186.11 138.61 185.98 137.63 L 185.86 136.65 C 185.73 135.67 184.83 134.97 183.84 135.09 C 182.86 135.22 182.16 136.12 182.29 137.11 Z M 182.41 138.08 L 182.53 139.07 C 182.65 140.06 183.55 140.76 184.54 140.64 C 185.53 140.52 186.23 139.61 186.11 138.63 L 185.99 137.63 C 185.86 136.65 184.96 135.94 183.97 136.07 C 182.99 136.19 182.28 137.09 182.41 138.08 Z M 182.52 139.06 L 182.64 140.07 C 182.76 141.06 183.66 141.77 184.65 141.65 C 185.65 141.53 186.35 140.63 186.24 139.64 L 186.12 138.63 C 186.00 137.64 185.10 136.93 184.11 137.05 C 183.11 137.17 182.41 138.07 182.52 139.06 Z M 182.64 140.06 L 182.76 141.08 C 182.87 142.08 183.77 142.79 184.76 142.68 C 185.75 142.57 186.47 141.67 186.36 140.67 L 186.24 139.65 C 186.13 138.66 185.23 137.94 184.24 138.05 C 183.24 138.17 182.53 139.06 182.64 140.06 Z M 182.75 141.07 L 182.86 142.07 C 182.96 143.06 183.86 143.78 184.86 143.68 C 185.85 143.57 186.57 142.68 186.47 141.68 L 186.36 140.68 C 186.25 139.69 185.36 138.97 184.36 139.07 C 183.37 139.18 182.64 140.07 182.75 141.07 Z M 182.85 142.06 L 182.95 143.06 C 183.06 144.06 183.95 144.78 184.95 144.68 C 185.95 144.58 186.68 143.69 186.57 142.69 L 186.47 141.69 C 186.37 140.69 185.48 139.96 184.48 140.06 C 183.48 140.16 182.75 141.06 182.85 142.06 Z M 182.95 143.05 L 183.05 144.05 C 183.15 145.05 184.04 145.79 185.04 145.69 C 186.04 145.59 186.77 144.70 186.68 143.70 L 186.58 142.70 C 186.48 141.69 185.59 140.96 184.59 141.06 C 183.59 141.16 182.85 142.05 182.95 143.05 Z M 183.04 144.05 L 183.14 145.05 C 183.23 146.05 184.12 146.79 185.12 146.70 C 186.13 146.60 186.87 145.71 186.77 144.71 L 186.68 143.71 C 186.59 142.70 185.70 141.97 184.69 142.06 C 183.69 142.15 182.95 143.04 183.04 144.05 Z M 183.13 145.04 L 183.22 146.03 C 183.31 147.04 184.20 147.78 185.21 147.69 C 186.21 147.60 186.96 146.71 186.87 145.71 L 186.78 144.71 C 186.69 143.71 185.80 142.97 184.79 143.06 C 183.79 143.15 183.04 144.03 183.13 145.04 Z M 183.22 146.03 L 183.30 147.03 C 183.39 148.04 184.28 148.78 185.29 148.70 C 186.30 148.61 187.04 147.72 186.96 146.71 L 186.87 145.71 C 186.78 144.70 185.89 143.96 184.89 144.04 C 183.88 144.13 183.13 145.02 183.22 146.03 Z M 183.30 147.02 L 183.39 148.05 C 183.47 149.06 184.36 149.81 185.37 149.72 C 186.38 149.64 187.13 148.75 187.05 147.74 L 186.96 146.72 C 186.88 145.71 185.99 144.96 184.98 145.04 C 183.97 145.13 183.22 146.01 183.30 147.02 Z M 183.38 148.04 L 183.46 149.04 C 183.54 150.06 184.43 150.81 185.44 150.73 C 186.45 150.65 187.21 149.77 187.13 148.75 L 187.05 147.75 C 186.97 146.74 186.08 145.98 185.07 146.06 C 184.06 146.14 183.30 147.03 183.38 148.04 Z M 183.46 149.03 L 183.53 150.02 C 183.60 151.04 184.48 151.80 185.50 151.73 C 186.51 151.65 187.28 150.77 187.20 149.75 L 187.13 148.77 C 187.06 147.75 186.18 146.99 185.16 147.06 C 184.15 147.13 183.38 148.02 183.46 149.03 Z M 183.52 150.01 L 183.59 150.98 C 183.65 152.00 184.53 152.77 185.55 152.71 C 186.57 152.64 187.34 151.76 187.27 150.74 L 187.21 149.77 C 187.14 148.75 186.26 147.98 185.25 148.04 C 184.23 148.11 183.46 148.99 183.52 150.01 Z M 183.58 150.97 L 183.64 151.95 C 183.69 152.97 184.57 153.75 185.59 153.69 C 186.61 153.63 187.39 152.76 187.33 151.74 L 187.28 150.76 C 187.22 149.74 186.35 148.96 185.33 149.02 C 184.31 149.07 183.53 149.95 183.58 150.97 Z M 183.63 151.93 L 183.68 152.94 C 183.73 153.96 184.59 154.75 185.61 154.70 C 186.64 154.66 187.43 153.79 187.38 152.77 L 187.34 151.76 C 187.29 150.74 186.42 149.95 185.40 149.99 C 184.38 150.04 183.59 150.91 183.63 151.93 Z M 183.68 152.92 L 183.71 153.92 C 183.75 154.95 184.61 155.75 185.63 155.71 C 186.66 155.67 187.46 154.81 187.42 153.79 L 187.38 152.79 C 187.35 151.76 186.49 150.96 185.46 151.00 C 184.44 151.04 183.64 151.90 183.68 152.92 Z M 183.71 153.91 L 183.74 154.91 C 183.77 155.93 184.62 156.74 185.65 156.71 C 186.67 156.68 187.48 155.83 187.45 154.80 L 187.42 153.80 C 187.40 152.78 186.54 151.97 185.51 152.00 C 184.49 152.03 183.68 152.88 183.71 153.91 Z M 183.73 154.89 L 183.75 155.88 C 183.77 156.91 184.63 157.73 185.65 157.71 C 186.68 157.69 187.50 156.84 187.48 155.81 L 187.46 154.82 C 187.43 153.79 186.58 152.97 185.56 152.99 C 184.53 153.01 183.71 153.86 183.73 154.89 Z M 183.75 155.87 L 183.77 156.87 C 183.78 157.90 184.63 158.72 185.66 158.71 C 186.69 158.69 187.51 157.85 187.49 156.82 L 187.48 155.82 C 187.46 154.79 186.62 153.97 185.59 153.98 C 184.56 154.00 183.74 154.84 183.75 155.87 Z M 183.76 156.86 L 183.77 157.88 C 183.78 158.91 184.63 159.73 185.66 159.72 C 186.69 159.71 187.52 158.87 187.51 157.84 L 187.50 156.83 C 187.49 155.80 186.64 154.97 185.61 154.98 C 184.58 154.99 183.75 155.83 183.76 156.86 Z M 183.77 157.87 L 183.78 158.87 C 183.78 159.90 184.62 160.74 185.65 160.73 C 186.69 160.73 187.52 159.89 187.51 158.85 L 187.51 157.85 C 187.50 156.82 186.66 155.98 185.63 155.99 C 184.60 155.99 183.77 156.84 183.77 157.87 Z M 183.77 158.87 L 183.78 159.86 C 183.78 160.90 184.62 161.73 185.65 161.73 C 186.68 161.73 187.52 160.89 187.52 159.86 L 187.51 158.86 C 187.51 157.83 186.67 156.99 185.64 156.99 C 184.61 157.00 183.77 157.83 183.77 158.87 Z M 183.77 159.86 L 183.77 160.85 C 183.78 161.88 184.61 162.72 185.65 162.72 C 186.68 162.72 187.52 161.88 187.52 160.85 L 187.52 159.86 C 187.52 158.82 186.68 157.99 185.65 157.99 C 184.61 157.99 183.77 158.83 183.77 159.86 Z M 183.77 160.85 L 183.77 161.85 C 183.77 162.89 184.61 163.73 185.65 163.73 C 186.68 163.73 187.52 162.89 187.52 161.85 L 187.52 160.85 C 187.52 159.81 186.68 158.97 185.65 158.97 C 184.61 158.97 183.77 159.81 183.77 160.85 Z M 183.77 161.85 L 183.77 162.87 C 183.77 163.90 184.61 164.74 185.65 164.74 C 186.68 164.74 187.52 163.90 187.52 162.87 L 187.52 161.85 C 187.52 160.82 186.68 159.98 185.65 159.98 C 184.61 159.98 183.77 160.82 183.77 161.85 Z M 183.77 162.87 L 183.77 163.87 C 183.77 164.91 184.61 165.75 185.65 165.75 C 186.68 165.75 187.52 164.91 187.52 163.87 L 187.52 162.87 C 187.52 161.83 186.68 160.99 185.65 160.99 C 184.61 160.99 183.77 161.83 183.77 162.87 Z M 183.77 163.87 L 183.77 164.86 C 183.77 165.90 184.61 166.74 185.65 166.74 C 186.68 166.74 187.53 165.90 187.53 164.86 L 187.53 163.87 C 187.53 162.83 186.68 161.99 185.65 161.99 C 184.61 161.99 183.77 162.83 183.77 163.87 Z M 183.77 164.86 L 183.77 165.84 C 183.77 166.88 184.61 167.72 185.65 167.72 C 186.68 167.72 187.53 166.88 187.53 165.84 L 187.53 164.86 C 187.53 163.82 186.68 162.98 185.65 162.98 C 184.61 162.98 183.77 163.82 183.77 164.86 Z M 183.77 165.84 L 183.77 166.84 C 183.77 167.88 184.61 168.72 185.65 168.72 C 186.69 168.72 187.53 167.88 187.53 166.84 L 187.53 165.84 C 187.53 164.80 186.69 163.96 185.65 163.96 C 184.61 163.96 183.77 164.80 183.77 165.84 Z M 183.77 166.84 L 183.77 167.83 C 183.77 168.87 184.61 169.71 185.65 169.71 C 186.69 169.71 187.53 168.87 187.53 167.83 L 187.53 166.84 C 187.53 165.80 186.69 164.96 185.65 164.96 C 184.61 164.96 183.77 165.80 183.77 166.84 Z M 183.77 167.83 L 183.77 168.83 C 183.77 169.87 184.61 170.71 185.65 170.71 C 186.69 170.71 187.53 169.87 187.53 168.83 L 187.53 167.83 C 187.53 166.79 186.69 165.95 185.65 165.95 C 184.61 165.95 183.77 166.79 183.77 167.83 Z M 183.77 168.83 L 183.77 169.83 C 183.77 170.87 184.61 171.72 185.65 171.72 C 186.69 171.72 187.53 170.87 187.53 169.83 L 187.53 168.83 C 187.53 167.79 186.69 166.95 185.65 166.95 C 184.61 166.95 183.77 167.79 183.77 168.83 Z M 183.77 169.83 L 183.77 170.86 C 183.77 171.90 184.61 172.74 185.65 172.74 C 186.69 172.74 187.53 171.90 187.53 170.86 L 187.53 169.83 C 187.53 168.80 186.69 167.95 185.65 167.95 C 184.61 167.95 183.77 168.80 183.77 169.83 Z M 183.76 170.86 L 183.76 171.89 C 183.76 172.93 184.61 173.77 185.65 173.77 C 186.69 173.77 187.53 172.93 187.53 171.89 L 187.53 170.86 C 187.53 169.82 186.69 168.98 185.65 168.98 C 184.61 168.98 183.76 169.82 183.76 170.86 Z M 183.76 171.89 L 183.76 172.90 C 183.76 173.94 184.61 174.78 185.65 174.78 C 186.69 174.78 187.53 173.94 187.53 172.90 L 187.53 171.89 C 187.53 170.85 186.69 170.01 185.65 170.01 C 184.61 170.01 183.76 170.85 183.76 171.89 Z M 183.76 172.90 L 183.76 173.88 C 183.76 174.92 184.61 175.76 185.65 175.76 C 186.69 175.76 187.53 174.92 187.53 173.88 L 187.53 172.90 C 187.53 171.86 186.69 171.02 185.65 171.02 C 184.61 171.02 183.76 171.86 183.76 172.90 Z M 183.76 173.88 L 183.76 174.85 C 183.76 175.89 184.61 176.73 185.65 176.73 C 186.69 176.73 187.53 175.89 187.53 174.85 L 187.53 173.88 C 187.53 172.84 186.69 171.99 185.65 171.99 C 184.61 171.99 183.76 172.84 183.76 173.88 Z M 183.76 174.84 L 183.76 175.82 C 183.75 176.86 184.59 177.71 185.63 177.72 C 186.67 177.73 187.52 176.89 187.52 175.85 L 187.53 174.86 C 187.54 173.82 186.70 172.97 185.66 172.97 C 184.62 172.96 183.77 173.80 183.76 174.84 Z M 183.76 175.79 L 183.73 176.76 C 183.71 177.80 184.53 178.66 185.57 178.69 C 186.61 178.71 187.48 177.89 187.50 176.85 L 187.53 175.88 C 187.55 174.84 186.73 173.98 185.69 173.95 C 184.65 173.93 183.78 174.75 183.76 175.79 Z M 183.73 176.71 L 183.68 177.71 C 183.63 178.75 184.43 179.64 185.47 179.70 C 186.51 179.75 187.39 178.95 187.45 177.91 L 187.50 176.90 C 187.56 175.86 186.76 174.98 185.72 174.92 C 184.68 174.87 183.79 175.67 183.73 176.71 Z M 183.68 177.65 L 183.60 178.63 C 183.51 179.67 184.29 180.58 185.32 180.67 C 186.36 180.76 187.28 179.99 187.36 178.95 L 187.45 177.97 C 187.53 176.93 186.76 176.02 185.72 175.93 C 184.68 175.85 183.77 176.62 183.68 177.65 Z M 183.61 178.57 L 183.49 179.55 C 183.37 180.58 184.12 181.52 185.15 181.64 C 186.19 181.76 187.12 181.02 187.24 179.98 L 187.36 179.01 C 187.48 177.97 186.74 177.04 185.70 176.92 C 184.66 176.80 183.73 177.54 183.61 178.57 Z M 183.50 179.48 L 183.35 180.49 C 183.19 181.52 183.90 182.48 184.93 182.64 C 185.96 182.80 186.93 182.09 187.08 181.06 L 187.24 180.05 C 187.39 179.02 186.68 178.06 185.65 177.90 C 184.62 177.74 183.66 178.45 183.50 179.48 Z M 183.36 180.41 L 183.17 181.42 C 182.97 182.45 183.64 183.44 184.66 183.64 C 185.68 183.84 186.67 183.17 186.87 182.14 L 187.07 181.13 C 187.27 180.11 186.60 179.12 185.58 178.92 C 184.55 178.72 183.56 179.39 183.36 180.41 Z M 183.19 181.33 L 182.94 182.32 C 182.69 183.34 183.30 184.36 184.31 184.61 C 185.33 184.87 186.35 184.25 186.60 183.24 L 186.85 182.24 C 187.11 181.23 186.49 180.20 185.48 179.95 C 184.46 179.70 183.44 180.31 183.19 181.33 Z M 182.98 182.19 L 182.64 183.22 C 182.31 184.21 182.84 185.28 183.83 185.61 C 184.83 185.94 185.89 185.40 186.22 184.41 L 186.56 183.37 C 186.89 182.38 186.35 181.31 185.36 180.99 C 184.37 180.66 183.31 181.20 182.98 182.19 Z M 182.72 183.02 L 182.29 183.94 C 181.84 184.88 182.25 186.01 183.19 186.45 C 184.14 186.89 185.26 186.49 185.70 185.54 L 186.14 184.62 C 186.58 183.68 186.17 182.55 185.23 182.11 C 184.29 181.67 183.16 182.07 182.72 183.02 Z M 182.46 183.65 L 181.91 184.43 C 181.31 185.27 181.51 186.45 182.36 187.05 C 183.20 187.66 184.38 187.46 184.98 186.61 L 185.53 185.83 C 186.13 184.98 185.93 183.81 185.08 183.21 C 184.24 182.60 183.06 182.80 182.46 183.65 Z M 182.23 184.08 L 181.54 184.66 C 180.75 185.33 180.65 186.52 181.32 187.31 C 181.99 188.11 183.18 188.21 183.97 187.54 L 184.66 186.95 C 185.46 186.28 185.56 185.10 184.88 184.30 C 184.21 183.51 183.03 183.41 182.23 184.08 Z M 182.02 184.37 L 181.14 184.74 C 180.19 185.15 179.74 186.25 180.15 187.21 C 180.56 188.16 181.66 188.61 182.61 188.20 L 183.49 187.83 C 184.45 187.42 184.89 186.32 184.48 185.36 C 184.08 184.41 182.97 183.96 182.02 184.37 Z M 181.58 184.63 L 180.59 184.79 C 179.57 184.95 178.88 185.91 179.05 186.93 C 179.21 187.95 180.17 188.64 181.19 188.48 L 182.18 188.32 C 183.20 188.15 183.89 187.19 183.72 186.17 C 183.56 185.15 182.60 184.46 181.58 184.63 Z M 180.92 184.77 L 179.90 184.75 C 178.87 184.74 178.02 185.56 178.01 186.59 C 177.99 187.61 178.81 188.46 179.84 188.48 L 180.86 188.49 C 181.89 188.51 182.74 187.69 182.75 186.66 C 182.77 185.63 181.95 184.79 180.92 184.77 Z M 180.15 184.79 L 179.15 184.64 C 178.14 184.48 177.20 185.18 177.05 186.19 C 176.89 187.19 177.59 188.14 178.60 188.29 L 179.59 188.44 C 180.60 188.60 181.54 187.90 181.69 186.89 C 181.85 185.89 181.16 184.94 180.15 184.79 Z M 179.35 184.71 L 178.42 184.46 C 177.45 184.20 176.45 184.77 176.19 185.74 C 175.93 186.70 176.50 187.70 177.47 187.97 L 178.40 188.22 C 179.37 188.48 180.36 187.91 180.63 186.94 C 180.89 185.97 180.32 184.97 179.35 184.71 Z M 178.57 184.55 L 177.66 184.21 C 176.74 183.86 175.72 184.32 175.37 185.24 C 175.03 186.16 175.49 187.18 176.41 187.53 L 177.32 187.87 C 178.24 188.22 179.26 187.76 179.61 186.84 C 179.95 185.92 179.49 184.90 178.57 184.55 Z M 177.76 184.29 L 176.83 183.86 C 175.96 183.46 174.93 183.84 174.53 184.71 C 174.13 185.58 174.51 186.61 175.38 187.01 L 176.31 187.44 C 177.18 187.84 178.21 187.46 178.61 186.59 C 179.01 185.72 178.63 184.69 177.76 184.29 Z M 176.88 183.93 L 175.99 183.47 C 175.16 183.05 174.13 183.38 173.71 184.21 C 173.28 185.04 173.61 186.07 174.44 186.49 L 175.33 186.95 C 176.17 187.38 177.19 187.05 177.62 186.21 C 178.04 185.38 177.71 184.36 176.88 183.93 Z M 176.01 183.51 L 175.20 183.07 C 174.39 182.63 173.37 182.94 172.93 183.75 C 172.49 184.56 172.80 185.57 173.61 186.01 L 174.42 186.45 C 175.23 186.89 176.25 186.59 176.69 185.78 C 177.13 184.97 176.82 183.95 176.01 183.51 Z M 175.22 183.11 L 174.37 182.62 C 173.58 182.17 172.57 182.45 172.12 183.25 C 171.67 184.04 171.95 185.05 172.74 185.50 L 173.59 185.98 C 174.38 186.43 175.39 186.15 175.84 185.36 C 176.29 184.57 176.01 183.56 175.22 183.11 Z M 174.39 182.66 L 173.50 182.13 C 172.73 181.67 171.73 181.93 171.27 182.71 C 170.81 183.48 171.06 184.49 171.84 184.95 L 172.72 185.47 C 173.50 185.93 174.50 185.67 174.96 184.89 C 175.42 184.12 175.16 183.12 174.39 182.66 Z M 173.52 182.17 L 172.61 181.60 C 171.85 181.14 170.86 181.37 170.39 182.13 C 169.92 182.89 170.16 183.88 170.91 184.35 L 171.82 184.91 C 172.58 185.38 173.58 185.15 174.05 184.39 C 174.51 183.63 174.28 182.63 173.52 182.17 Z M 172.62 181.64 L 171.73 181.06 C 170.99 180.59 170.00 180.80 169.53 181.54 C 169.05 182.29 169.27 183.27 170.01 183.75 L 170.90 184.32 C 171.64 184.80 172.63 184.58 173.11 183.84 C 173.58 183.10 173.37 182.11 172.62 181.64 Z M 171.74 181.09 L 170.88 180.52 C 170.16 180.04 169.18 180.24 168.70 180.96 C 168.21 181.69 168.41 182.67 169.14 183.15 L 170.00 183.72 C 170.72 184.20 171.70 184.00 172.18 183.28 C 172.67 182.55 172.47 181.57 171.74 181.09 Z M 170.89 180.55 L 170.03 179.97 C 169.32 179.48 168.35 179.67 167.87 180.38 C 167.38 181.09 167.57 182.06 168.28 182.55 L 169.13 183.13 C 169.85 183.61 170.82 183.43 171.30 182.71 C 171.79 182.00 171.60 181.03 170.89 180.55 Z M 170.04 179.99 L 169.20 179.41 C 168.50 178.92 167.54 179.10 167.05 179.80 C 166.57 180.50 166.74 181.46 167.44 181.94 L 168.28 182.52 C 168.98 183.01 169.94 182.84 170.42 182.13 C 170.91 181.43 170.74 180.47 170.04 179.99 Z M 169.20 179.43 L 168.40 178.86 C 167.71 178.38 166.76 178.54 166.27 179.23 C 165.79 179.92 165.95 180.87 166.64 181.36 L 167.44 181.92 C 168.13 182.41 169.08 182.24 169.57 181.55 C 170.05 180.87 169.89 179.91 169.20 179.43 Z M 168.39 178.88 L 167.63 178.34 C 166.96 177.86 166.01 178.02 165.53 178.69 C 165.05 179.37 165.20 180.31 165.88 180.80 L 166.64 181.34 C 167.32 181.82 168.26 181.66 168.74 180.99 C 169.23 180.31 169.07 179.37 168.39 178.88 Z M 167.63 178.36 L 166.71 177.69 C 166.04 177.21 165.11 177.36 164.63 178.03 C 164.15 178.70 164.30 179.63 164.96 180.11 L 165.89 180.78 C 166.55 181.26 167.48 181.11 167.97 180.44 C 168.45 179.77 168.30 178.84 167.63 178.36 Z M 166.71 177.71 L 165.88 177.11 C 165.22 176.62 164.30 176.77 163.82 177.42 C 163.34 178.08 163.48 179.00 164.13 179.48 L 164.96 180.09 C 165.62 180.57 166.54 180.43 167.02 179.78 C 167.51 179.12 167.37 178.20 166.71 177.71 Z M 165.88 177.13 L 165.13 176.56 C 164.48 176.08 163.57 176.21 163.08 176.85 C 162.60 177.49 162.73 178.41 163.37 178.89 L 164.13 179.46 C 164.77 179.94 165.69 179.81 166.17 179.17 C 166.66 178.53 166.53 177.61 165.88 177.13 Z M 165.13 176.58 L 164.43 176.04 C 163.80 175.55 162.89 175.67 162.40 176.30 C 161.92 176.93 162.03 177.84 162.66 178.32 L 163.37 178.87 C 164.00 179.35 164.90 179.24 165.39 178.61 C 165.88 177.98 165.76 177.07 165.13 176.58 Z M 164.44 176.06 L 163.65 175.43 C 163.03 174.93 162.13 175.04 161.63 175.65 C 161.14 176.27 161.24 177.18 161.86 177.67 L 162.65 178.30 C 163.27 178.80 164.17 178.69 164.66 178.08 C 165.16 177.46 165.06 176.56 164.44 176.06 Z M 163.66 175.44 L 162.89 174.81 C 162.28 174.31 161.38 174.40 160.88 175.01 C 160.38 175.62 160.46 176.52 161.07 177.02 L 161.84 177.65 C 162.45 178.16 163.36 178.07 163.86 177.46 C 164.36 176.85 164.27 175.95 163.66 175.44 Z M 162.90 174.82 L 162.14 174.19 C 161.54 173.68 160.64 173.76 160.13 174.36 C 159.62 174.97 159.70 175.87 160.31 176.38 L 161.06 177.01 C 161.67 177.52 162.57 177.44 163.08 176.83 C 163.58 176.23 163.51 175.33 162.90 174.82 Z M 162.15 174.19 L 161.39 173.55 C 160.79 173.04 159.89 173.12 159.38 173.72 C 158.87 174.32 158.95 175.22 159.55 175.73 L 160.30 176.37 C 160.91 176.88 161.81 176.80 162.32 176.20 C 162.83 175.60 162.75 174.70 162.15 174.19 Z M 161.39 173.56 L 160.64 172.91 C 160.03 172.40 159.13 172.48 158.62 173.08 C 158.12 173.68 158.19 174.58 158.79 175.09 L 159.55 175.73 C 160.15 176.24 161.05 176.17 161.56 175.57 C 162.07 174.96 162.00 174.06 161.39 173.56 Z M 160.64 172.91 L 159.87 172.26 C 159.27 171.75 158.37 171.83 157.86 172.43 C 157.35 173.03 157.42 173.93 158.02 174.44 L 158.79 175.09 C 159.39 175.60 160.29 175.52 160.80 174.92 C 161.31 174.32 161.24 173.42 160.64 172.91 Z M 159.87 172.26 L 159.19 171.68 C 158.59 171.17 157.69 171.24 157.18 171.84 C 156.67 172.44 156.74 173.34 157.34 173.85 L 158.02 174.43 C 158.62 174.94 159.52 174.87 160.03 174.27 C 160.54 173.67 160.47 172.77 159.87 172.26 Z"
      fill="black"
      fill-rule="nonzero" /></svg>