<svg xmlns="http://www.w3.org/2000/svg" width="300" height="300" viewBox="0 0 300 300">
<path d="M 140.56 98.67 L 140.22 99.56 C 139.92 100.35 140.31 101.23 141.10 101.53 C 141.89 101.84 142.77 101.44 143.07 100.66 L 143.42 99.76 C 143.72 98.97 143.33 98.09 142.54 97.79 C 141.75 97.48 140.87 97.88 140.56 98.67 Z M 140.16 99.57 L 139.83 100.48 C 139.53 101.30 139.95 102.20 140.77 102.50 C 141.59 102.80 142.50 102.38 142.80 101.56 L 143.13 100.65 C 143.43 99.83 143.01 98.92 142.19 98.63 C 141.37 98.33 140.46 98.75 140.16 99.57 Z M 139.77 100.51 L 139.46 101.45 C 139.17 102.31 139.64 103.23 140.49 103.51 C 141.35 103.79 142.27 103.33 142.55 102.47 L 142.86 101.53 C 143.14 100.67 142.68 99.75 141.82 99.47 C 140.97 99.19 140.05 99.66 139.77 100.51 Z M 139.38 101.51 L 139.11 102.50 C 138.86 103.40 139.38 104.33 140.27 104.58 C 141.17 104.83 142.09 104.30 142.34 103.41 L 142.62 102.42 C 142.87 101.52 142.35 100.60 141.46 100.35 C 140.56 100.10 139.64 100.62 139.38 101.51 Z M 139.04 102.58 L 138.82 103.60 C 138.61 104.53 139.20 105.45 140.12 105.66 C 141.05 105.86 141.97 105.28 142.18 104.35 L 142.41 103.33 C 142.61 102.40 142.03 101.48 141.10 101.28 C 140.17 101.07 139.25 101.65 139.04 102.58 Z M 138.79 103.68 L 138.61 104.69 C 138.45 105.63 139.08 106.53 140.03 106.70 C 140.97 106.86 141.87 106.23 142.04 105.28 L 142.21 104.27 C 142.37 103.33 141.74 102.43 140.79 102.26 C 139.85 102.10 138.95 102.73 138.79 103.68 Z M 138.60 104.74 L 138.46 105.77 C 138.32 106.72 138.99 107.60 139.94 107.74 C 140.89 107.87 141.77 107.21 141.90 106.25 L 142.05 105.23 C 142.18 104.27 141.52 103.40 140.56 103.26 C 139.61 103.13 138.73 103.79 138.60 104.74 Z M 138.45 105.81 L 138.33 106.82 C 138.22 107.78 138.90 108.64 139.86 108.76 C 140.81 108.87 141.68 108.19 141.79 107.23 L 141.91 106.22 C 142.02 105.26 141.34 104.40 140.38 104.28 C 139.43 104.17 138.56 104.85 138.45 105.81 Z M 138.32 106.84 L 138.22 107.81 C 138.12 108.77 138.81 109.63 139.77 109.73 C 140.73 109.83 141.59 109.14 141.69 108.18 L 141.79 107.21 C 141.90 106.25 141.20 105.39 140.24 105.29 C 139.29 105.19 138.43 105.88 138.32 106.84 Z M 138.22 107.81 L 138.12 108.81 C 138.01 109.77 138.71 110.63 139.67 110.73 C 140.63 110.83 141.49 110.14 141.59 109.18 L 141.69 108.18 C 141.79 107.22 141.10 106.36 140.14 106.26 C 139.18 106.16 138.32 106.85 138.22 107.81 Z M 138.12 108.81 L 138.00 109.88 C 137.89 110.84 138.58 111.70 139.54 111.81 C 140.50 111.91 141.37 111.22 141.47 110.26 L 141.59 109.19 C 141.69 108.23 141.00 107.36 140.04 107.26 C 139.08 107.15 138.22 107.85 138.12 108.81 Z M 138.00 109.88 L 137.89 110.84 C 137.78 111.80 138.47 112.66 139.43 112.77 C 140.39 112.88 141.26 112.19 141.36 111.23 L 141.47 110.27 C 141.58 109.31 140.89 108.44 139.93 108.33 C 138.97 108.23 138.10 108.92 138.00 109.88 Z M 137.89 110.85 L 137.79 111.75 C 137.69 112.71 138.38 113.58 139.34 113.68 C 140.30 113.78 141.16 113.09 141.27 112.13 L 141.36 111.22 C 141.47 110.26 140.77 109.40 139.81 109.30 C 138.85 109.19 137.99 109.89 137.89 110.85 Z M 137.79 111.77 L 137.69 112.73 C 137.60 113.69 138.30 114.54 139.27 114.64 C 140.23 114.73 141.08 114.03 141.18 113.07 L 141.27 112.11 C 141.36 111.15 140.66 110.30 139.70 110.20 C 138.74 110.11 137.88 110.81 137.79 111.77 Z M 137.69 112.75 L 137.61 113.74 C 137.52 114.70 138.24 115.55 139.20 115.63 C 140.16 115.71 141.01 115.00 141.09 114.04 L 141.18 113.05 C 141.26 112.09 140.55 111.24 139.59 111.15 C 138.62 111.07 137.78 111.78 137.69 112.75 Z M 137.61 113.75 L 137.53 114.75 C 137.45 115.72 138.17 116.56 139.13 116.64 C 140.09 116.71 140.93 116.00 141.01 115.03 L 141.09 114.03 C 141.17 113.07 140.45 112.22 139.49 112.15 C 138.53 112.07 137.68 112.79 137.61 113.75 Z M 137.53 114.76 L 137.45 115.76 C 137.37 116.73 138.09 117.57 139.06 117.64 C 140.02 117.71 140.86 116.99 140.93 116.03 L 141.01 115.03 C 141.09 114.07 140.37 113.22 139.40 113.15 C 138.44 113.08 137.60 113.80 137.53 114.76 Z M 137.45 115.76 L 137.37 116.75 C 137.30 117.72 138.02 118.56 138.98 118.63 C 139.94 118.71 140.78 117.99 140.86 117.02 L 140.93 116.03 C 141.01 115.07 140.29 114.23 139.32 114.15 C 138.36 114.08 137.52 114.80 137.45 115.76 Z M 137.37 116.76 L 137.30 117.75 C 137.22 118.71 137.94 119.55 138.91 119.63 C 139.87 119.70 140.71 118.98 140.78 118.02 L 140.86 117.02 C 140.93 116.06 140.21 115.22 139.25 115.15 C 138.29 115.07 137.45 115.79 137.37 116.76 Z M 137.30 117.75 L 137.22 118.76 C 137.15 119.72 137.87 120.56 138.83 120.63 C 139.79 120.70 140.63 119.98 140.70 119.02 L 140.78 118.02 C 140.85 117.06 140.13 116.22 139.17 116.14 C 138.21 116.07 137.37 116.79 137.30 117.75 Z M 137.22 118.76 L 137.15 119.74 C 137.08 120.70 137.80 121.54 138.76 121.61 C 139.72 121.68 140.56 120.96 140.63 120.00 L 140.70 119.02 C 140.78 118.06 140.05 117.22 139.09 117.15 C 138.13 117.07 137.29 117.80 137.22 118.76 Z M 137.15 119.74 L 137.08 120.72 C 137.00 121.68 137.73 122.52 138.69 122.59 C 139.65 122.66 140.48 121.94 140.56 120.98 L 140.63 120.00 C 140.70 119.03 139.98 118.20 139.02 118.13 C 138.06 118.06 137.22 118.78 137.15 119.74 Z M 137.08 120.73 L 137.00 121.73 C 136.93 122.69 137.66 123.53 138.62 123.60 C 139.58 123.67 140.41 122.94 140.48 121.98 L 140.55 120.98 C 140.62 120.02 139.90 119.18 138.94 119.11 C 137.98 119.04 137.15 119.76 137.08 120.73 Z M 137.00 121.73 L 136.93 122.76 C 136.86 123.72 137.59 124.55 138.55 124.62 C 139.51 124.69 140.34 123.96 140.41 123.00 L 140.48 121.98 C 140.55 121.02 139.83 120.19 138.87 120.12 C 137.91 120.05 137.07 120.77 137.00 121.73 Z M 136.93 122.76 L 136.86 123.77 C 136.80 124.72 137.52 125.56 138.48 125.62 C 139.44 125.69 140.27 124.96 140.34 124.00 L 140.41 123.00 C 140.47 122.04 139.75 121.21 138.79 121.14 C 137.83 121.08 137.00 121.80 136.93 122.76 Z M 136.86 123.77 L 136.80 124.78 C 136.74 125.74 137.46 126.57 138.42 126.63 C 139.38 126.69 140.21 125.97 140.27 125.01 L 140.34 124.00 C 140.40 123.04 139.67 122.21 138.72 122.15 C 137.76 122.09 136.93 122.81 136.86 123.77 Z M 136.80 124.79 L 136.74 125.78 C 136.68 126.74 137.41 127.57 138.37 127.63 C 139.33 127.68 140.15 126.96 140.21 126.00 L 140.27 125.00 C 140.33 124.04 139.60 123.22 138.64 123.16 C 137.68 123.10 136.86 123.83 136.80 124.79 Z M 136.74 125.79 L 136.68 126.80 C 136.63 127.76 137.37 128.58 138.32 128.63 C 139.28 128.68 140.10 127.95 140.15 126.99 L 140.21 125.99 C 140.26 125.03 139.53 124.21 138.57 124.16 C 137.61 124.10 136.79 124.84 136.74 125.79 Z M 136.69 126.81 L 136.64 127.84 C 136.59 128.79 137.33 129.61 138.29 129.65 C 139.24 129.70 140.06 128.96 140.10 128.00 L 140.15 126.98 C 140.20 126.02 139.46 125.21 138.50 125.16 C 137.55 125.12 136.73 125.85 136.69 126.81 Z M 136.64 127.85 L 136.60 128.83 C 136.55 129.79 137.30 130.60 138.25 130.64 C 139.21 130.68 140.02 129.94 140.06 128.98 L 140.10 128.00 C 140.14 127.04 139.40 126.23 138.44 126.19 C 137.49 126.15 136.68 126.89 136.64 127.85 Z M 136.60 128.84 L 136.56 129.80 C 136.52 130.75 137.26 131.56 138.22 131.60 C 139.17 131.64 139.98 130.89 140.01 129.94 L 140.05 128.98 C 140.09 128.02 139.35 127.22 138.40 127.18 C 137.44 127.14 136.64 127.88 136.60 128.84 Z M 136.56 129.80 L 136.53 130.64 C 136.49 131.60 137.23 132.40 138.18 132.44 C 139.14 132.48 139.94 131.73 139.98 130.78 L 140.01 129.94 C 140.05 128.99 139.31 128.18 138.36 128.14 C 137.40 128.11 136.60 128.85 136.56 129.80 Z M 136.53 130.65 L 136.50 131.56 C 136.47 132.51 137.21 133.31 138.16 133.34 C 139.11 133.37 139.91 132.63 139.94 131.68 L 139.97 130.77 C 140.01 129.82 139.26 129.02 138.31 128.99 C 137.36 128.96 136.56 129.70 136.53 130.65 Z M 136.50 131.57 L 136.48 132.61 C 136.45 133.56 137.20 134.35 138.15 134.38 C 139.10 134.40 139.89 133.65 139.91 132.70 L 139.94 131.66 C 139.97 130.71 139.22 129.92 138.27 129.90 C 137.32 129.87 136.53 130.62 136.50 131.57 Z M 136.48 132.63 L 136.46 133.83 C 136.44 134.77 137.20 135.55 138.15 135.57 C 139.09 135.59 139.88 134.83 139.89 133.88 L 139.91 132.69 C 139.93 131.74 139.17 130.96 138.22 130.94 C 137.28 130.93 136.49 131.68 136.48 132.63 Z M 136.46 133.84 L 136.45 134.77 C 136.45 135.72 137.20 136.49 138.15 136.50 C 139.10 136.51 139.87 135.75 139.88 134.81 L 139.89 133.87 C 139.90 132.92 139.14 132.15 138.19 132.14 C 137.24 132.13 136.47 132.89 136.46 133.84 Z M 136.46 134.78 L 136.45 135.79 C 136.45 136.74 137.21 137.51 138.16 137.51 C 139.10 137.51 139.87 136.75 139.87 135.81 L 139.88 134.80 C 139.88 133.85 139.12 133.08 138.17 133.08 C 137.23 133.08 136.46 133.84 136.46 134.78 Z M 136.46 135.80 L 136.46 136.85 C 136.46 137.79 137.23 138.56 138.17 138.55 C 139.11 138.55 139.87 137.79 139.87 136.84 L 139.87 135.80 C 139.87 134.85 139.10 134.09 138.16 134.09 C 137.22 134.10 136.46 134.86 136.46 135.80 Z M 136.46 136.86 L 136.47 137.91 C 136.48 138.85 137.25 139.61 138.19 139.60 C 139.13 139.59 139.89 138.82 139.88 137.88 L 139.87 136.83 C 139.86 135.89 139.09 135.14 138.15 135.15 C 137.21 135.16 136.46 135.92 136.46 136.86 Z M 136.48 137.93 L 136.50 138.94 C 136.52 139.88 137.29 140.63 138.23 140.61 C 139.17 140.59 139.91 139.82 139.89 138.88 L 139.87 137.87 C 139.86 136.93 139.08 136.18 138.14 136.20 C 137.21 136.22 136.46 136.99 136.48 137.93 Z M 136.50 138.96 L 136.54 140.00 C 136.57 140.93 137.35 141.67 138.28 141.64 C 139.22 141.61 139.95 140.83 139.92 139.89 L 139.89 138.86 C 139.86 137.92 139.08 137.19 138.14 137.22 C 137.21 137.25 136.47 138.03 136.50 138.96 Z M 136.56 140.06 L 136.66 141.46 C 136.72 142.38 137.52 143.08 138.45 143.01 C 139.37 142.95 140.06 142.15 140.00 141.23 L 139.90 139.83 C 139.83 138.91 139.03 138.21 138.11 138.28 C 137.19 138.34 136.49 139.14 136.56 140.06 Z M 136.73 141.71 L 136.94 142.64 C 137.15 143.52 138.03 144.07 138.91 143.87 C 139.79 143.67 140.34 142.79 140.14 141.90 L 139.93 140.98 C 139.72 140.09 138.84 139.54 137.96 139.75 C 137.08 139.95 136.53 140.83 136.73 141.71 Z M 137.49 143.49 L 137.89 143.83 C 138.56 144.41 139.58 144.34 140.16 143.66 C 140.74 142.99 140.66 141.97 139.99 141.40 L 139.59 141.05 C 138.92 140.47 137.90 140.55 137.32 141.22 C 136.74 141.90 136.82 142.91 137.49 143.49 Z M 139.58 144.05 L 140.09 143.83 C 140.88 143.47 141.24 142.54 140.89 141.74 C 140.53 140.95 139.60 140.59 138.80 140.95 L 138.30 141.18 C 137.50 141.53 137.15 142.46 137.50 143.26 C 137.86 144.05 138.79 144.41 139.58 144.05 Z M 140.51 143.51 L 141.13 142.92 C 141.75 142.34 141.77 141.36 141.19 140.74 C 140.60 140.12 139.63 140.09 139.01 140.68 L 138.39 141.27 C 137.77 141.85 137.74 142.83 138.33 143.45 C 138.91 144.07 139.89 144.09 140.51 143.51 Z M 141.22 142.78 L 141.93 141.94 C 142.47 141.30 142.40 140.35 141.76 139.81 C 141.12 139.27 140.17 139.34 139.63 139.98 L 138.91 140.82 C 138.37 141.46 138.45 142.41 139.09 142.95 C 139.73 143.49 140.68 143.42 141.22 142.78 Z M 141.95 141.87 L 142.72 140.88 C 143.22 140.23 143.10 139.30 142.46 138.80 C 141.81 138.30 140.88 138.42 140.38 139.06 L 139.61 140.05 C 139.11 140.70 139.23 141.63 139.87 142.13 C 140.52 142.63 141.45 142.51 141.95 141.87 Z M 142.71 140.85 L 143.02 140.44 C 143.51 139.80 143.38 138.89 142.74 138.40 C 142.10 137.91 141.18 138.04 140.70 138.68 L 140.38 139.09 C 139.90 139.73 140.02 140.65 140.66 141.13 C 141.31 141.62 142.22 141.50 142.71 140.85 Z"
      fill="black"
      fill-rule="nonzero" /><path d="M 139.73 106.34 L 138.62 105.75 C 137.81 105.32 136.80 105.62 136.37 106.43 C 135.94 107.24 136.24 108.25 137.05 108.68 L 138.16 109.28 C 138.97 109.71 139.98 109.40 140.41 108.59 C 140.85 107.78 140.54 106.78 139.73 106.34 Z M 138.97 105.97 L 138.32 105.39 C 137.63 104.76 136.57 104.81 135.95 105.50 C 135.32 106.19 135.37 107.25 136.06 107.87 L 136.70 108.46 C 137.39 109.09 138.45 109.03 139.08 108.35 C 139.70 107.66 139.65 106.60 138.97 105.97 Z M 138.78 107.21 L 138.97 106.71 C 139.29 105.83 138.83 104.86 137.95 104.54 C 137.07 104.22 136.10 104.67 135.78 105.55 L 135.60 106.05 C 135.28 106.93 135.73 107.90 136.61 108.22 C 137.49 108.54 138.46 108.09 138.78 107.21 Z M 138.19 107.62 L 138.83 107.27 C 139.65 106.83 139.96 105.79 139.51 104.97 C 139.06 104.14 138.02 103.84 137.20 104.29 L 136.56 104.63 C 135.73 105.08 135.43 106.12 135.88 106.94 C 136.33 107.77 137.36 108.07 138.19 107.62 Z M 138.59 107.38 L 139.54 107.03 C 140.42 106.71 140.88 105.73 140.56 104.85 C 140.23 103.97 139.26 103.52 138.37 103.84 L 137.43 104.18 C 136.55 104.51 136.09 105.48 136.41 106.36 C 136.74 107.25 137.71 107.70 138.59 107.38 Z M 139.46 107.06 L 140.58 106.72 C 141.48 106.44 141.98 105.49 141.71 104.59 C 141.43 103.69 140.48 103.19 139.58 103.46 L 138.46 103.81 C 137.56 104.09 137.06 105.04 137.33 105.93 C 137.61 106.83 138.56 107.34 139.46 107.06 Z M 140.57 106.72 L 141.74 106.37 C 142.64 106.10 143.16 105.16 142.89 104.26 C 142.62 103.36 141.68 102.84 140.78 103.11 L 139.60 103.46 C 138.70 103.73 138.19 104.67 138.45 105.57 C 138.72 106.47 139.67 106.99 140.57 106.72 Z M 141.77 106.36 L 142.74 106.06 C 143.64 105.77 144.13 104.82 143.85 103.93 C 143.57 103.03 142.62 102.54 141.73 102.82 L 140.75 103.12 C 139.86 103.40 139.36 104.35 139.64 105.25 C 139.92 106.14 140.87 106.64 141.77 106.36 Z M 142.77 106.04 L 143.71 105.72 C 144.60 105.43 145.08 104.47 144.78 103.58 C 144.48 102.69 143.52 102.22 142.63 102.52 L 141.69 102.83 C 140.81 103.13 140.33 104.09 140.63 104.98 C 140.93 105.86 141.89 106.34 142.77 106.04 Z M 143.74 105.71 L 144.67 105.38 C 145.54 105.06 146.00 104.09 145.69 103.22 C 145.37 102.34 144.40 101.88 143.53 102.20 L 142.60 102.53 C 141.73 102.85 141.27 103.81 141.59 104.69 C 141.90 105.57 142.87 106.02 143.74 105.71 Z M 144.70 105.36 L 145.62 105.01 C 146.49 104.68 146.92 103.70 146.59 102.83 C 146.26 101.97 145.29 101.53 144.42 101.86 L 143.50 102.22 C 142.63 102.55 142.19 103.52 142.52 104.39 C 142.86 105.26 143.83 105.69 144.70 105.36 Z M 145.65 104.99 L 146.59 104.61 C 147.45 104.27 147.87 103.29 147.52 102.43 C 147.18 101.57 146.20 101.15 145.34 101.50 L 144.40 101.88 C 143.54 102.22 143.12 103.20 143.46 104.06 C 143.81 104.92 144.79 105.34 145.65 104.99 Z M 146.61 104.60 L 147.56 104.20 C 148.41 103.85 148.81 102.87 148.45 102.02 C 148.10 101.16 147.12 100.76 146.27 101.12 L 145.32 101.51 C 144.47 101.87 144.06 102.85 144.42 103.70 C 144.78 104.55 145.76 104.96 146.61 104.60 Z M 147.57 104.19 L 148.53 103.78 C 149.37 103.41 149.76 102.43 149.40 101.59 C 149.03 100.74 148.05 100.35 147.21 100.72 L 146.25 101.13 C 145.41 101.49 145.02 102.47 145.38 103.32 C 145.74 104.16 146.72 104.55 147.57 104.19 Z M 148.54 103.77 L 149.48 103.35 C 150.32 102.98 150.70 102.00 150.33 101.16 C 149.96 100.32 148.98 99.94 148.14 100.31 L 147.20 100.73 C 146.36 101.10 145.98 102.08 146.35 102.92 C 146.72 103.76 147.70 104.14 148.54 103.77 Z M 149.49 103.34 L 150.39 102.94 C 151.23 102.57 151.60 101.59 151.23 100.75 C 150.86 99.92 149.88 99.54 149.05 99.92 L 148.14 100.32 C 147.30 100.69 146.93 101.67 147.30 102.51 C 147.67 103.34 148.65 103.72 149.49 103.34 Z M 150.40 102.93 L 151.24 102.55 C 152.07 102.18 152.44 101.20 152.07 100.37 C 151.70 99.54 150.72 99.17 149.89 99.54 L 149.04 99.92 C 148.21 100.30 147.84 101.27 148.22 102.10 C 148.59 102.93 149.57 103.30 150.40 102.93 Z M 151.24 102.54 L 152.25 102.09 C 153.08 101.71 153.44 100.74 153.07 99.92 C 152.70 99.09 151.73 98.72 150.90 99.10 L 149.89 99.55 C 149.07 99.92 148.70 100.90 149.07 101.72 C 149.45 102.55 150.42 102.91 151.24 102.54 Z M 152.25 102.07 L 153.18 101.65 C 154.00 101.28 154.36 100.32 153.99 99.50 C 153.62 98.68 152.66 98.31 151.84 98.68 L 150.90 99.11 C 150.09 99.48 149.72 100.44 150.09 101.26 C 150.46 102.08 151.43 102.44 152.25 102.07 Z M 153.17 101.64 L 154.02 101.26 C 154.84 100.89 155.20 99.94 154.83 99.12 C 154.47 98.31 153.51 97.95 152.70 98.31 L 151.85 98.70 C 151.03 99.06 150.67 100.02 151.04 100.83 C 151.40 101.64 152.36 102.01 153.17 101.64 Z M 154.01 101.25 L 154.84 100.88 C 155.65 100.52 156.01 99.57 155.65 98.76 C 155.29 97.95 154.35 97.59 153.54 97.95 L 152.71 98.32 C 151.90 98.68 151.54 99.63 151.90 100.44 C 152.26 101.25 153.21 101.61 154.01 101.25 Z M 154.83 100.87 L 155.73 100.48 C 156.53 100.12 156.90 99.18 156.54 98.38 C 156.19 97.57 155.25 97.21 154.45 97.56 L 153.55 97.96 C 152.74 98.31 152.38 99.25 152.73 100.06 C 153.09 100.86 154.03 101.23 154.83 100.87 Z M 155.72 100.47 L 156.64 100.07 C 157.44 99.72 157.80 98.78 157.45 97.98 C 157.10 97.18 156.17 96.82 155.37 97.17 L 154.45 97.57 C 153.65 97.92 153.29 98.85 153.64 99.65 C 153.99 100.45 154.92 100.82 155.72 100.47 Z M 156.63 100.06 L 157.56 99.65 C 158.36 99.30 158.72 98.38 158.38 97.58 C 158.03 96.79 157.10 96.42 156.31 96.77 L 155.37 97.18 C 154.58 97.53 154.21 98.45 154.56 99.25 C 154.91 100.04 155.84 100.41 156.63 100.06 Z M 157.56 99.64 L 158.48 99.24 C 159.27 98.89 159.63 97.97 159.28 97.18 C 158.94 96.39 158.02 96.03 157.23 96.38 L 156.31 96.78 C 155.52 97.13 155.16 98.05 155.50 98.84 C 155.85 99.63 156.77 99.99 157.56 99.64 Z M 158.48 99.23 L 159.40 98.83 C 160.18 98.48 160.54 97.57 160.20 96.78 C 159.85 96.00 158.93 95.64 158.15 95.98 L 157.23 96.39 C 156.44 96.73 156.09 97.65 156.43 98.43 C 156.78 99.22 157.69 99.58 158.48 99.23 Z M 159.39 98.82 L 160.31 98.42 C 161.09 98.07 161.45 97.16 161.11 96.38 C 160.76 95.60 159.85 95.25 159.07 95.59 L 158.15 95.99 C 157.37 96.33 157.02 97.25 157.36 98.03 C 157.70 98.81 158.61 99.16 159.39 98.82 Z M 160.31 98.41 L 161.19 98.02 C 161.97 97.68 162.32 96.78 161.98 96.00 C 161.64 95.22 160.74 94.87 159.96 95.21 L 159.08 95.60 C 158.30 95.94 157.95 96.84 158.29 97.62 C 158.63 98.39 159.53 98.75 160.31 98.41 Z M 161.19 98.01 L 162.02 97.65 C 162.79 97.31 163.14 96.42 162.81 95.64 C 162.47 94.87 161.58 94.52 160.80 94.85 L 159.97 95.22 C 159.20 95.55 158.84 96.45 159.18 97.22 C 159.52 97.99 160.41 98.35 161.19 98.01 Z M 162.01 97.65 L 162.89 97.27 C 163.66 96.94 164.01 96.05 163.69 95.28 C 163.36 94.51 162.47 94.15 161.70 94.48 L 160.81 94.86 C 160.05 95.19 159.69 96.08 160.02 96.85 C 160.35 97.62 161.24 97.98 162.01 97.65 Z M 162.87 97.26 L 163.86 96.85 C 164.62 96.53 164.98 95.65 164.66 94.88 C 164.34 94.11 163.46 93.75 162.69 94.07 L 161.71 94.49 C 160.94 94.81 160.58 95.69 160.90 96.46 C 161.22 97.22 162.11 97.59 162.87 97.26 Z M 163.84 96.85 L 164.81 96.45 C 165.58 96.14 165.95 95.26 165.63 94.50 C 165.32 93.73 164.44 93.37 163.68 93.68 L 162.71 94.08 C 161.94 94.39 161.57 95.27 161.89 96.03 C 162.20 96.80 163.08 97.16 163.84 96.85 Z M 164.80 96.45 L 165.69 96.10 C 166.45 95.79 166.82 94.92 166.52 94.16 C 166.21 93.39 165.35 93.02 164.58 93.33 L 163.69 93.68 C 162.93 93.99 162.56 94.85 162.86 95.62 C 163.17 96.38 164.03 96.76 164.80 96.45 Z M 165.66 96.10 L 166.61 95.74 C 167.37 95.45 167.76 94.59 167.47 93.82 C 167.17 93.06 166.31 92.67 165.55 92.96 L 164.60 93.32 C 163.84 93.62 163.45 94.47 163.74 95.24 C 164.04 96.01 164.90 96.39 165.66 96.10 Z M 166.57 95.75 L 167.55 95.40 C 168.32 95.13 168.72 94.28 168.45 93.51 C 168.17 92.74 167.33 92.34 166.56 92.61 L 165.58 92.96 C 164.81 93.23 164.41 94.08 164.68 94.85 C 164.96 95.62 165.80 96.02 166.57 95.75 Z M 167.51 95.41 L 168.49 95.09 C 169.27 94.84 169.69 94.01 169.44 93.23 C 169.19 92.46 168.36 92.03 167.59 92.28 L 166.60 92.60 C 165.83 92.85 165.40 93.68 165.65 94.46 C 165.90 95.23 166.73 95.66 167.51 95.41 Z M 168.43 95.10 L 169.41 94.83 C 170.19 94.61 170.65 93.80 170.43 93.02 C 170.22 92.24 169.41 91.78 168.62 92.00 L 167.65 92.27 C 166.86 92.49 166.41 93.30 166.62 94.08 C 166.84 94.86 167.65 95.32 168.43 95.10 Z M 169.33 94.84 L 170.37 94.61 C 171.16 94.44 171.66 93.66 171.48 92.87 C 171.31 92.08 170.53 91.58 169.74 91.76 L 168.70 91.99 C 167.91 92.16 167.42 92.94 167.59 93.73 C 167.77 94.52 168.55 95.02 169.33 94.84 Z M 170.30 94.62 L 171.30 94.45 C 172.09 94.32 172.62 93.57 172.49 92.77 C 172.36 91.98 171.61 91.45 170.81 91.58 L 169.81 91.75 C 169.02 91.88 168.49 92.63 168.62 93.43 C 168.75 94.22 169.50 94.75 170.30 94.62 Z M 171.24 94.45 L 172.21 94.33 C 173.01 94.23 173.57 93.50 173.47 92.71 C 173.37 91.92 172.64 91.35 171.85 91.46 L 170.87 91.58 C 170.08 91.68 169.52 92.41 169.62 93.20 C 169.72 93.99 170.45 94.55 171.24 94.45 Z M 172.17 94.32 L 173.13 94.23 C 173.93 94.15 174.50 93.44 174.42 92.65 C 174.35 91.86 173.64 91.28 172.85 91.36 L 171.89 91.46 C 171.10 91.54 170.52 92.24 170.60 93.03 C 170.68 93.83 171.38 94.40 172.17 94.32 Z M 173.12 94.22 L 173.87 94.16 C 174.65 94.09 175.24 93.39 175.17 92.61 C 175.10 91.82 174.40 91.23 173.62 91.30 L 172.87 91.37 C 172.08 91.44 171.49 92.13 171.56 92.92 C 171.63 93.71 172.33 94.29 173.12 94.22 Z"
      fill="black"
      fill-rule="nonzero" /><path d="M 142.45 115.92 L 141.48 116.13 C 140.63 116.32 140.08 117.16 140.27 118.01 C 140.45 118.87 141.29 119.41 142.15 119.22 L 143.12 119.01 C 143.97 118.83 144.51 117.99 144.33 117.13 C 144.14 116.28 143.30 115.74 142.45 115.92 Z M 141.46 116.14 L 140.49 116.36 C 139.64 116.55 139.10 117.40 139.30 118.25 C 139.49 119.11 140.34 119.64 141.19 119.44 L 142.17 119.22 C 143.02 119.03 143.55 118.18 143.36 117.33 C 143.16 116.47 142.31 115.94 141.46 116.14 Z M 140.45 116.36 L 139.48 116.61 C 138.63 116.82 138.12 117.69 138.33 118.54 C 138.55 119.38 139.41 119.90 140.26 119.68 L 141.23 119.44 C 142.08 119.22 142.59 118.36 142.38 117.51 C 142.16 116.66 141.30 116.15 140.45 116.36 Z M 139.43 116.62 L 138.39 116.92 C 137.55 117.17 137.06 118.05 137.31 118.89 C 137.55 119.74 138.44 120.22 139.28 119.98 L 140.32 119.67 C 141.16 119.43 141.64 118.54 141.40 117.70 C 141.15 116.86 140.27 116.37 139.43 116.62 Z M 138.30 116.93 L 137.07 117.37 C 136.24 117.66 135.80 118.58 136.09 119.42 C 136.39 120.25 137.30 120.69 138.14 120.40 L 139.37 119.96 C 140.21 119.67 140.65 118.75 140.35 117.91 C 140.06 117.08 139.14 116.64 138.30 116.93 Z M 136.89 117.41 L 136.05 117.82 C 135.24 118.22 134.90 119.20 135.30 120.01 C 135.70 120.82 136.68 121.16 137.49 120.76 L 138.33 120.35 C 139.14 119.95 139.47 118.97 139.07 118.16 C 138.68 117.35 137.70 117.02 136.89 117.41 Z M 135.22 118.71 L 135.10 119.02 C 134.78 119.87 135.21 120.83 136.07 121.15 C 136.93 121.47 137.88 121.04 138.20 120.18 L 138.32 119.88 C 138.64 119.02 138.21 118.06 137.35 117.74 C 136.50 117.42 135.54 117.85 135.22 118.71 Z M 136.37 121.24 L 137.14 121.37 C 138.04 121.53 138.91 120.92 139.06 120.01 C 139.21 119.10 138.60 118.24 137.70 118.09 L 136.93 117.96 C 136.03 117.80 135.16 118.41 135.01 119.32 C 134.86 120.23 135.47 121.09 136.37 121.24 Z M 137.52 121.40 L 138.82 121.32 C 139.74 121.26 140.45 120.47 140.39 119.55 C 140.33 118.63 139.54 117.93 138.62 117.98 L 137.32 118.06 C 136.39 118.12 135.69 118.91 135.75 119.83 C 135.81 120.75 136.60 121.45 137.52 121.40 Z M 139.01 121.30 L 140.02 121.12 C 140.93 120.96 141.54 120.09 141.38 119.18 C 141.21 118.27 140.35 117.66 139.44 117.83 L 138.43 118.00 C 137.52 118.16 136.92 119.03 137.08 119.94 C 137.24 120.85 138.10 121.46 139.01 121.30 Z M 140.14 121.09 L 141.06 120.85 C 141.96 120.63 142.50 119.72 142.27 118.82 C 142.04 117.93 141.13 117.39 140.24 117.62 L 139.32 117.85 C 138.42 118.08 137.88 118.99 138.11 119.88 C 138.34 120.78 139.25 121.32 140.14 121.09 Z M 141.14 120.83 L 142.10 120.53 C 142.98 120.26 143.48 119.33 143.20 118.45 C 142.93 117.57 142.00 117.07 141.12 117.34 L 140.16 117.64 C 139.28 117.91 138.78 118.85 139.06 119.73 C 139.33 120.61 140.26 121.10 141.14 120.83 Z M 142.16 120.51 L 143.16 120.17 C 144.03 119.86 144.49 118.91 144.19 118.04 C 143.89 117.17 142.94 116.71 142.07 117.02 L 141.06 117.36 C 140.19 117.67 139.73 118.62 140.04 119.49 C 140.34 120.36 141.29 120.82 142.16 120.51 Z M 143.19 120.15 L 144.13 119.81 C 145.00 119.49 145.44 118.53 145.12 117.67 C 144.81 116.81 143.85 116.36 142.99 116.68 L 142.04 117.03 C 141.18 117.34 140.73 118.30 141.05 119.16 C 141.37 120.03 142.33 120.47 143.19 120.15 Z M 144.15 119.80 L 145.04 119.46 C 145.90 119.14 146.33 118.18 146.00 117.32 C 145.68 116.46 144.72 116.03 143.86 116.35 L 142.97 116.69 C 142.11 117.01 141.68 117.97 142.00 118.83 C 142.33 119.69 143.29 120.13 144.15 119.80 Z M 145.05 119.46 L 145.97 119.10 C 146.83 118.77 147.25 117.80 146.92 116.95 C 146.58 116.09 145.62 115.67 144.76 116.00 L 143.84 116.36 C 142.99 116.69 142.56 117.65 142.90 118.51 C 143.23 119.37 144.19 119.79 145.05 119.46 Z M 145.98 119.09 L 146.93 118.72 C 147.78 118.38 148.20 117.41 147.86 116.56 C 147.52 115.71 146.55 115.29 145.70 115.63 L 144.75 116.01 C 143.90 116.35 143.48 117.31 143.82 118.16 C 144.16 119.02 145.13 119.43 145.98 119.09 Z M 146.94 118.71 L 147.91 118.32 C 148.75 117.97 149.16 117.00 148.82 116.15 C 148.47 115.30 147.50 114.90 146.65 115.24 L 145.69 115.64 C 144.84 115.98 144.43 116.95 144.77 117.80 C 145.12 118.65 146.09 119.06 146.94 118.71 Z M 147.92 118.31 L 148.89 117.90 C 149.74 117.55 150.14 116.58 149.79 115.74 C 149.44 114.89 148.47 114.49 147.62 114.84 L 146.64 115.25 C 145.80 115.60 145.39 116.57 145.75 117.42 C 146.10 118.26 147.07 118.66 147.92 118.31 Z M 148.90 117.90 L 149.88 117.49 C 150.72 117.13 151.11 116.16 150.76 115.32 C 150.40 114.47 149.43 114.08 148.58 114.44 L 147.61 114.85 C 146.77 115.20 146.37 116.18 146.73 117.02 C 147.09 117.86 148.06 118.26 148.90 117.90 Z M 149.88 117.48 L 150.85 117.07 C 151.69 116.71 152.07 115.74 151.71 114.90 C 151.35 114.06 150.38 113.67 149.54 114.03 L 148.58 114.44 C 147.74 114.80 147.35 115.77 147.71 116.61 C 148.07 117.45 149.04 117.84 149.88 117.48 Z M 150.85 117.06 L 151.79 116.66 C 152.63 116.30 153.01 115.32 152.65 114.48 C 152.28 113.65 151.31 113.26 150.47 113.63 L 149.54 114.03 C 148.70 114.39 148.31 115.37 148.68 116.21 C 149.04 117.04 150.01 117.43 150.85 117.06 Z M 151.79 116.66 L 152.68 116.27 C 153.52 115.90 153.90 114.93 153.54 114.09 C 153.17 113.26 152.20 112.87 151.36 113.24 L 150.47 113.63 C 149.63 113.99 149.25 114.97 149.62 115.80 C 149.98 116.64 150.95 117.02 151.79 116.66 Z M 152.68 116.26 L 153.52 115.90 C 154.35 115.53 154.73 114.56 154.37 113.73 C 154.00 112.89 153.03 112.51 152.19 112.88 L 151.36 113.24 C 150.53 113.61 150.15 114.58 150.51 115.41 C 150.88 116.25 151.85 116.63 152.68 116.26 Z M 153.51 115.89 L 154.53 115.45 C 155.36 115.09 155.74 114.12 155.38 113.29 C 155.01 112.45 154.04 112.07 153.21 112.44 L 152.20 112.88 C 151.36 113.25 150.99 114.22 151.35 115.05 C 151.71 115.88 152.68 116.26 153.51 115.89 Z M 154.53 115.44 L 155.47 115.03 C 156.29 114.67 156.67 113.71 156.31 112.88 C 155.95 112.05 154.98 111.67 154.15 112.04 L 153.22 112.45 C 152.39 112.81 152.01 113.77 152.37 114.60 C 152.73 115.43 153.70 115.80 154.53 115.44 Z M 155.46 115.02 L 156.32 114.65 C 157.15 114.28 157.52 113.32 157.16 112.50 C 156.80 111.68 155.84 111.31 155.01 111.67 L 154.15 112.04 C 153.33 112.41 152.96 113.37 153.32 114.19 C 153.68 115.01 154.64 115.38 155.46 115.02 Z M 156.32 114.63 L 157.15 114.27 C 157.97 113.90 158.34 112.95 157.98 112.13 C 157.61 111.31 156.66 110.95 155.84 111.31 L 155.01 111.68 C 154.19 112.04 153.83 113.00 154.19 113.81 C 154.55 114.63 155.51 115.00 156.32 114.63 Z M 157.16 114.26 L 158.06 113.85 C 158.87 113.48 159.24 112.53 158.87 111.72 C 158.51 110.91 157.55 110.55 156.74 110.91 L 155.84 111.32 C 155.03 111.68 154.67 112.64 155.03 113.45 C 155.39 114.26 156.35 114.62 157.16 114.26 Z M 158.06 113.84 L 158.97 113.43 C 159.78 113.07 160.14 112.12 159.78 111.31 C 159.41 110.50 158.47 110.15 157.66 110.51 L 156.75 110.92 C 155.94 111.28 155.58 112.23 155.94 113.04 C 156.31 113.84 157.25 114.20 158.06 113.84 Z M 158.97 113.42 L 159.88 113.01 C 160.69 112.66 161.05 111.71 160.69 110.91 C 160.33 110.11 159.39 109.75 158.59 110.10 L 157.67 110.51 C 156.86 110.87 156.50 111.81 156.86 112.62 C 157.22 113.42 158.16 113.78 158.97 113.42 Z M 159.87 113.01 L 160.77 112.62 C 161.57 112.27 161.94 111.33 161.59 110.53 C 161.24 109.73 160.30 109.36 159.50 109.71 L 158.60 110.11 C 157.80 110.46 157.43 111.39 157.78 112.19 C 158.13 113.00 159.07 113.36 159.87 113.01 Z M 160.75 112.62 L 161.65 112.23 C 162.45 111.89 162.83 110.97 162.49 110.16 C 162.14 109.36 161.22 108.99 160.42 109.33 L 159.52 109.72 C 158.72 110.06 158.35 110.98 158.69 111.78 C 159.03 112.58 159.95 112.96 160.75 112.62 Z M 161.64 112.23 L 162.57 111.84 C 163.36 111.50 163.74 110.59 163.40 109.79 C 163.07 108.99 162.15 108.62 161.35 108.95 L 160.43 109.34 C 159.63 109.67 159.26 110.59 159.59 111.39 C 159.93 112.19 160.84 112.56 161.64 112.23 Z M 162.56 111.83 L 163.51 111.43 C 164.31 111.10 164.68 110.19 164.35 109.40 C 164.02 108.61 163.11 108.23 162.32 108.56 L 161.36 108.96 C 160.57 109.29 160.19 110.20 160.52 110.99 C 160.85 111.79 161.76 112.16 162.56 111.83 Z M 163.51 111.43 L 164.42 111.05 C 165.21 110.72 165.58 109.82 165.25 109.03 C 164.93 108.24 164.02 107.86 163.23 108.19 L 162.32 108.57 C 161.53 108.90 161.16 109.80 161.49 110.59 C 161.81 111.38 162.72 111.75 163.51 111.43 Z M 164.42 111.04 L 165.35 110.65 C 166.13 110.33 166.50 109.43 166.18 108.64 C 165.85 107.86 164.95 107.49 164.16 107.81 L 163.23 108.20 C 162.45 108.53 162.08 109.43 162.40 110.21 C 162.73 111.00 163.63 111.37 164.42 111.04 Z M 165.35 110.64 L 166.28 110.25 C 167.06 109.93 167.43 109.03 167.10 108.25 C 166.77 107.47 165.88 107.11 165.10 107.43 L 164.16 107.82 C 163.39 108.15 163.02 109.04 163.35 109.82 C 163.67 110.60 164.57 110.97 165.35 110.64 Z M 166.28 110.24 L 167.20 109.85 C 167.98 109.52 168.34 108.63 168.01 107.86 C 167.68 107.08 166.79 106.72 166.02 107.05 L 165.10 107.44 C 164.32 107.77 163.96 108.66 164.29 109.43 C 164.62 110.21 165.51 110.57 166.28 110.24 Z M 167.21 109.84 L 168.15 109.44 C 168.91 109.11 169.27 108.22 168.94 107.45 C 168.61 106.68 167.72 106.33 166.95 106.66 L 166.02 107.06 C 165.25 107.39 164.89 108.28 165.22 109.05 C 165.55 109.81 166.44 110.17 167.21 109.84 Z M 168.15 109.43 L 169.06 109.03 C 169.82 108.70 170.17 107.81 169.84 107.05 C 169.51 106.29 168.63 105.94 167.87 106.27 L 166.95 106.67 C 166.19 107.00 165.84 107.88 166.17 108.65 C 166.50 109.41 167.39 109.76 168.15 109.43 Z M 169.06 109.02 L 169.96 108.63 C 170.72 108.30 171.07 107.42 170.74 106.66 C 170.41 105.91 169.53 105.56 168.78 105.89 L 167.87 106.28 C 167.11 106.61 166.77 107.49 167.10 108.25 C 167.42 109.00 168.30 109.35 169.06 109.02 Z M 169.96 108.62 L 170.83 108.25 C 171.58 107.92 171.93 107.05 171.60 106.29 C 171.28 105.54 170.40 105.19 169.65 105.52 L 168.78 105.90 C 168.03 106.22 167.68 107.09 168.01 107.85 C 168.33 108.60 169.21 108.95 169.96 108.62 Z M 170.82 108.24 L 171.65 107.89 C 172.40 107.57 172.75 106.70 172.43 105.95 C 172.11 105.20 171.24 104.85 170.49 105.17 L 169.66 105.52 C 168.91 105.84 168.56 106.71 168.88 107.46 C 169.20 108.21 170.07 108.56 170.82 108.24 Z M 171.64 107.88 L 172.53 107.51 C 173.28 107.19 173.63 106.33 173.31 105.58 C 173.00 104.83 172.13 104.48 171.38 104.80 L 170.50 105.17 C 169.75 105.49 169.40 106.35 169.72 107.10 C 170.03 107.85 170.89 108.20 171.64 107.88 Z M 172.52 107.51 L 173.49 107.10 C 174.24 106.79 174.59 105.94 174.28 105.19 C 173.97 104.44 173.11 104.09 172.37 104.40 L 171.39 104.80 C 170.65 105.11 170.29 105.97 170.60 106.72 C 170.91 107.46 171.77 107.82 172.52 107.51 Z M 173.48 107.10 L 174.50 106.68 C 175.25 106.38 175.61 105.52 175.30 104.78 C 174.99 104.03 174.14 103.68 173.40 103.98 L 172.37 104.40 C 171.63 104.71 171.27 105.56 171.58 106.30 C 171.88 107.05 172.74 107.41 173.48 107.10 Z M 174.50 106.68 L 175.38 106.32 C 176.12 106.02 176.48 105.17 176.18 104.43 C 175.88 103.68 175.03 103.33 174.28 103.63 L 173.40 103.98 C 172.66 104.29 172.30 105.13 172.60 105.88 C 172.91 106.62 173.75 106.98 174.50 106.68 Z M 175.37 106.32 L 176.30 105.95 C 177.04 105.65 177.40 104.81 177.11 104.06 C 176.81 103.32 175.96 102.96 175.22 103.26 L 174.29 103.63 C 173.55 103.93 173.19 104.77 173.48 105.51 C 173.78 106.26 174.63 106.62 175.37 106.32 Z M 176.29 105.95 L 177.25 105.57 C 177.99 105.27 178.36 104.43 178.06 103.69 C 177.77 102.95 176.93 102.58 176.19 102.88 L 175.23 103.26 C 174.48 103.55 174.12 104.39 174.41 105.13 C 174.71 105.88 175.55 106.24 176.29 105.95 Z M 177.24 105.57 L 178.21 105.19 C 178.95 104.90 179.32 104.07 179.03 103.32 C 178.74 102.58 177.90 102.21 177.16 102.50 L 176.19 102.88 C 175.45 103.17 175.08 104.00 175.37 104.75 C 175.66 105.49 176.50 105.86 177.24 105.57 Z M 178.19 105.19 L 179.14 104.83 C 179.88 104.55 180.26 103.72 179.97 102.97 C 179.69 102.23 178.86 101.86 178.12 102.14 L 177.17 102.50 C 176.43 102.79 176.05 103.62 176.34 104.36 C 176.62 105.10 177.45 105.48 178.19 105.19 Z M 179.13 104.84 L 180.11 104.47 C 180.86 104.20 181.24 103.37 180.97 102.62 C 180.69 101.87 179.86 101.49 179.11 101.77 L 178.13 102.13 C 177.38 102.41 177.00 103.24 177.28 103.99 C 177.55 104.74 178.38 105.12 179.13 104.84 Z M 180.10 104.49 L 181.10 104.14 C 181.85 103.87 182.25 103.03 181.98 102.27 C 181.70 101.52 180.87 101.12 180.11 101.40 L 179.12 101.75 C 178.36 102.02 177.97 102.86 178.24 103.61 C 178.51 104.37 179.35 104.76 180.10 104.49 Z M 181.09 104.16 L 182.03 103.83 C 182.80 103.56 183.21 102.72 182.94 101.95 C 182.68 101.18 181.83 100.78 181.06 101.04 L 180.12 101.37 C 179.35 101.64 178.94 102.48 179.21 103.25 C 179.48 104.02 180.32 104.43 181.09 104.16 Z M 182.03 103.85 L 182.94 103.54 C 183.73 103.28 184.14 102.43 183.88 101.65 C 183.61 100.86 182.76 100.45 181.98 100.71 L 181.07 101.02 C 180.29 101.29 179.87 102.14 180.13 102.92 C 180.40 103.70 181.25 104.12 182.03 103.85 Z M 182.94 103.56 L 183.84 103.26 C 184.63 103.00 185.06 102.14 184.79 101.35 C 184.53 100.55 183.67 100.13 182.88 100.39 L 181.98 100.69 C 181.19 100.96 180.76 101.82 181.03 102.61 C 181.29 103.40 182.15 103.83 182.94 103.56 Z M 183.84 103.28 L 184.15 103.17 C 184.95 102.91 185.38 102.04 185.11 101.24 C 184.84 100.44 183.98 100.01 183.18 100.28 L 182.88 100.38 C 182.08 100.65 181.64 101.51 181.91 102.31 C 182.18 103.11 183.04 103.54 183.84 103.28 Z"
      fill="black"
      fill-rule="nonzero" /><path d="M 138.98 132.28 L 138.09 132.79 C 137.36 133.22 137.11 134.15 137.53 134.89 C 137.95 135.62 138.89 135.87 139.62 135.45 L 140.51 134.93 C 141.24 134.51 141.49 133.58 141.07 132.84 C 140.64 132.11 139.71 131.86 138.98 132.28 Z M 138.08 132.79 L 137.20 133.31 C 136.47 133.74 136.22 134.68 136.65 135.41 C 137.08 136.15 138.03 136.39 138.76 135.96 L 139.64 135.45 C 140.37 135.02 140.62 134.07 140.18 133.34 C 139.75 132.61 138.81 132.36 138.08 132.79 Z M 137.18 133.31 L 136.32 133.83 C 135.59 134.27 135.35 135.23 135.80 135.96 C 136.24 136.69 137.19 136.92 137.92 136.48 L 138.78 135.96 C 139.52 135.51 139.75 134.56 139.30 133.83 C 138.86 133.10 137.91 132.87 137.18 133.31 Z M 136.28 133.84 L 135.45 134.37 C 134.72 134.84 134.51 135.80 134.97 136.53 C 135.44 137.25 136.40 137.46 137.13 137.00 L 137.96 136.47 C 138.69 136.01 138.90 135.04 138.43 134.32 C 137.97 133.59 137.01 133.38 136.28 133.84 Z M 135.40 134.39 L 134.58 134.96 C 133.86 135.45 133.68 136.42 134.17 137.14 C 134.66 137.85 135.63 138.04 136.35 137.55 L 137.17 136.98 C 137.89 136.49 138.07 135.52 137.58 134.80 C 137.09 134.09 136.12 133.90 135.40 134.39 Z M 134.50 135.00 L 133.43 135.82 C 132.74 136.35 132.61 137.34 133.14 138.03 C 133.67 138.73 134.66 138.86 135.36 138.33 L 136.42 137.51 C 137.12 136.97 137.25 135.98 136.72 135.29 C 136.19 134.60 135.19 134.47 134.50 135.00 Z M 133.30 135.91 L 132.52 136.65 C 131.88 137.26 131.85 138.27 132.46 138.91 C 133.07 139.55 134.08 139.57 134.71 138.97 L 135.49 138.23 C 136.13 137.62 136.16 136.61 135.55 135.97 C 134.95 135.33 133.94 135.31 133.30 135.91 Z M 132.21 137.02 L 131.91 137.56 C 131.47 138.34 131.75 139.32 132.52 139.76 C 133.30 140.19 134.28 139.92 134.71 139.14 L 135.02 138.60 C 135.46 137.82 135.18 136.84 134.41 136.41 C 133.63 135.97 132.65 136.24 132.21 137.02 Z M 132.33 139.64 L 132.67 139.90 C 133.39 140.44 134.40 140.30 134.94 139.59 C 135.48 138.88 135.34 137.86 134.63 137.32 L 134.29 137.06 C 133.58 136.52 132.56 136.66 132.02 137.37 C 131.48 138.09 131.62 139.10 132.33 139.64 Z M 133.72 140.23 L 134.64 140.19 C 135.54 140.15 136.23 139.40 136.19 138.50 C 136.15 137.61 135.40 136.91 134.50 136.95 L 133.58 136.99 C 132.69 137.03 131.99 137.79 132.03 138.68 C 132.07 139.58 132.83 140.27 133.72 140.23 Z M 134.91 140.16 L 136.16 139.89 C 137.03 139.70 137.59 138.84 137.40 137.96 C 137.21 137.09 136.35 136.53 135.47 136.72 L 134.23 136.99 C 133.35 137.17 132.80 138.04 132.98 138.91 C 133.17 139.79 134.04 140.35 134.91 140.16 Z M 136.29 139.86 L 137.35 139.53 C 138.20 139.27 138.69 138.36 138.42 137.51 C 138.16 136.65 137.26 136.17 136.40 136.43 L 135.34 136.75 C 134.48 137.02 134.00 137.92 134.26 138.78 C 134.53 139.64 135.43 140.12 136.29 139.86 Z M 137.44 139.50 L 138.35 139.16 C 139.19 138.85 139.61 137.92 139.30 137.08 C 138.99 136.24 138.06 135.82 137.22 136.13 L 136.31 136.46 C 135.47 136.77 135.05 137.71 135.36 138.54 C 135.67 139.38 136.60 139.81 137.44 139.50 Z M 138.41 139.13 L 139.33 138.74 C 140.15 138.40 140.53 137.45 140.19 136.63 C 139.84 135.81 138.89 135.42 138.07 135.77 L 137.16 136.16 C 136.34 136.50 135.95 137.45 136.30 138.27 C 136.65 139.09 137.59 139.48 138.41 139.13 Z M 139.38 138.72 L 140.30 138.29 C 141.11 137.91 141.46 136.96 141.08 136.15 C 140.71 135.34 139.75 134.99 138.95 135.37 L 138.02 135.80 C 137.22 136.17 136.87 137.13 137.24 137.93 C 137.62 138.74 138.57 139.09 139.38 138.72 Z M 140.34 138.26 L 141.26 137.81 C 142.05 137.41 142.38 136.45 141.98 135.66 C 141.59 134.86 140.62 134.54 139.83 134.93 L 138.91 135.39 C 138.12 135.78 137.79 136.75 138.19 137.54 C 138.58 138.33 139.54 138.66 140.34 138.26 Z M 141.28 137.79 L 142.05 137.39 C 142.84 136.98 143.14 136.02 142.73 135.23 C 142.33 134.45 141.36 134.14 140.58 134.55 L 139.81 134.95 C 139.02 135.36 138.72 136.32 139.12 137.11 C 139.53 137.89 140.50 138.20 141.28 137.79 Z M 142.07 137.38 L 142.87 136.94 C 143.65 136.52 143.94 135.56 143.52 134.78 C 143.10 134.00 142.13 133.72 141.35 134.13 L 140.55 134.57 C 139.78 134.99 139.49 135.95 139.91 136.73 C 140.33 137.51 141.30 137.79 142.07 137.38 Z M 142.89 136.93 L 143.73 136.46 C 144.50 136.03 144.77 135.05 144.34 134.29 C 143.91 133.52 142.94 133.25 142.17 133.68 L 141.33 134.15 C 140.56 134.58 140.29 135.55 140.72 136.32 C 141.15 137.09 142.13 137.36 142.89 136.93 Z M 143.75 136.44 L 144.65 135.92 C 145.40 135.48 145.66 134.50 145.22 133.75 C 144.78 132.99 143.80 132.73 143.04 133.17 L 142.15 133.69 C 141.39 134.14 141.14 135.11 141.58 135.87 C 142.02 136.63 142.99 136.88 143.75 136.44 Z M 144.66 135.90 L 145.63 135.32 C 146.38 134.87 146.62 133.90 146.17 133.15 C 145.71 132.40 144.74 132.15 143.99 132.61 L 143.03 133.19 C 142.28 133.64 142.04 134.61 142.49 135.36 C 142.94 136.11 143.91 136.36 144.66 135.90 Z M 145.64 135.31 L 146.58 134.73 C 147.32 134.27 147.55 133.29 147.09 132.55 C 146.63 131.81 145.66 131.58 144.91 132.04 L 143.98 132.62 C 143.23 133.08 143.00 134.06 143.46 134.80 C 143.93 135.54 144.90 135.77 145.64 135.31 Z M 146.59 134.72 L 147.45 134.17 C 148.19 133.71 148.41 132.73 147.94 131.99 C 147.47 131.26 146.50 131.04 145.76 131.51 L 144.90 132.05 C 144.17 132.51 143.95 133.49 144.41 134.23 C 144.88 134.96 145.86 135.18 146.59 134.72 Z M 147.46 134.16 L 148.34 133.60 C 149.07 133.13 149.28 132.15 148.81 131.42 C 148.34 130.69 147.37 130.48 146.64 130.95 L 145.75 131.51 C 145.02 131.98 144.81 132.96 145.28 133.69 C 145.75 134.42 146.73 134.63 147.46 134.16 Z M 148.35 133.59 L 149.24 133.01 C 149.96 132.54 150.17 131.56 149.70 130.84 C 149.22 130.11 148.25 129.90 147.52 130.38 L 146.63 130.95 C 145.90 131.43 145.70 132.40 146.17 133.13 C 146.65 133.86 147.62 134.06 148.35 133.59 Z M 149.24 133.00 L 150.11 132.43 C 150.84 131.95 151.04 130.98 150.56 130.26 C 150.09 129.53 149.12 129.33 148.39 129.81 L 147.52 130.38 C 146.79 130.86 146.59 131.83 147.07 132.55 C 147.54 133.28 148.52 133.48 149.24 133.00 Z M 150.12 132.42 L 150.96 131.86 C 151.68 131.39 151.87 130.41 151.40 129.69 C 150.92 128.97 149.95 128.78 149.23 129.26 L 148.39 129.81 C 147.67 130.29 147.47 131.26 147.95 131.98 C 148.43 132.70 149.40 132.90 150.12 132.42 Z M 150.96 131.86 L 151.75 131.33 C 152.46 130.85 152.66 129.88 152.18 129.16 C 151.70 128.45 150.73 128.26 150.01 128.74 L 149.22 129.26 C 148.51 129.74 148.32 130.71 148.80 131.43 C 149.28 132.15 150.25 132.34 150.96 131.86 Z M 151.75 131.32 L 152.54 130.79 C 153.25 130.31 153.43 129.34 152.95 128.63 C 152.47 127.92 151.50 127.73 150.79 128.21 L 150.01 128.74 C 149.29 129.23 149.11 130.20 149.59 130.91 C 150.07 131.62 151.04 131.81 151.75 131.32 Z M 152.54 130.77 L 153.59 130.05 C 154.29 129.57 154.47 128.61 153.98 127.90 C 153.50 127.20 152.53 127.02 151.83 127.51 L 150.79 128.23 C 150.08 128.71 149.91 129.68 150.39 130.38 C 150.88 131.08 151.84 131.26 152.54 130.77 Z M 153.59 130.03 L 154.42 129.44 C 155.11 128.95 155.28 128.00 154.79 127.31 C 154.30 126.62 153.35 126.46 152.66 126.94 L 151.83 127.53 C 151.14 128.02 150.97 128.97 151.46 129.66 C 151.95 130.35 152.90 130.52 153.59 130.03 Z M 154.43 129.42 L 155.12 128.92 C 155.80 128.43 155.95 127.48 155.46 126.80 C 154.97 126.13 154.02 125.98 153.35 126.47 L 152.65 126.97 C 151.98 127.46 151.83 128.40 152.32 129.08 C 152.81 129.76 153.75 129.91 154.43 129.42 Z M 155.12 128.90 L 155.76 128.43 C 156.42 127.94 156.57 127.00 156.08 126.34 C 155.59 125.67 154.65 125.53 153.99 126.02 L 153.35 126.48 C 152.68 126.97 152.54 127.91 153.03 128.58 C 153.52 129.24 154.46 129.39 155.12 128.90 Z M 155.75 128.42 L 156.56 127.82 C 157.22 127.34 157.36 126.41 156.87 125.75 C 156.39 125.09 155.46 124.95 154.80 125.43 L 153.99 126.03 C 153.33 126.51 153.19 127.44 153.68 128.10 C 154.16 128.76 155.09 128.90 155.75 128.42 Z M 156.55 127.82 L 157.36 127.22 C 158.01 126.74 158.15 125.82 157.67 125.16 C 157.19 124.50 156.26 124.36 155.61 124.85 L 154.80 125.44 C 154.14 125.92 154.00 126.85 154.49 127.50 C 154.97 128.16 155.90 128.30 156.55 127.82 Z M 157.35 127.22 L 158.16 126.62 C 158.81 126.14 158.95 125.22 158.47 124.57 C 157.99 123.92 157.07 123.78 156.42 124.26 L 155.61 124.85 C 154.96 125.33 154.82 126.25 155.30 126.91 C 155.78 127.56 156.70 127.70 157.35 127.22 Z M 158.15 126.62 L 158.95 126.03 C 159.60 125.55 159.74 124.64 159.26 123.99 C 158.78 123.34 157.87 123.20 157.22 123.68 L 156.42 124.27 C 155.77 124.75 155.63 125.66 156.11 126.31 C 156.59 126.96 157.50 127.10 158.15 126.62 Z M 158.95 126.02 L 159.75 125.43 C 160.40 124.96 160.53 124.04 160.06 123.40 C 159.58 122.75 158.67 122.61 158.02 123.09 L 157.22 123.68 C 156.58 124.16 156.44 125.07 156.92 125.72 C 157.39 126.36 158.30 126.50 158.95 126.02 Z M 159.75 125.43 L 160.56 124.83 C 161.20 124.35 161.34 123.44 160.86 122.80 C 160.38 122.16 159.48 122.02 158.83 122.50 L 158.03 123.10 C 157.38 123.57 157.25 124.48 157.72 125.12 C 158.20 125.77 159.11 125.90 159.75 125.43 Z M 160.56 124.82 L 161.34 124.24 C 161.98 123.76 162.11 122.86 161.64 122.22 C 161.16 121.58 160.26 121.45 159.62 121.92 L 158.84 122.51 C 158.20 122.98 158.06 123.89 158.54 124.52 C 159.02 125.16 159.92 125.30 160.56 124.82 Z M 161.35 124.23 L 162.13 123.63 C 162.77 123.16 162.90 122.25 162.42 121.62 C 161.94 120.98 161.04 120.86 160.40 121.34 L 159.62 121.93 C 158.98 122.41 158.85 123.31 159.33 123.94 C 159.81 124.58 160.71 124.71 161.35 124.23 Z M 162.14 123.62 L 162.95 123.00 C 163.58 122.52 163.69 121.62 163.21 120.99 C 162.73 120.37 161.83 120.25 161.20 120.73 L 160.40 121.35 C 159.77 121.83 159.65 122.73 160.13 123.36 C 160.61 123.99 161.51 124.10 162.14 123.62 Z M 162.96 122.99 L 163.76 122.36 C 164.38 121.87 164.49 120.97 164.01 120.35 C 163.52 119.73 162.62 119.62 162.00 120.11 L 161.19 120.74 C 160.57 121.23 160.46 122.13 160.95 122.75 C 161.44 123.37 162.34 123.48 162.96 122.99 Z M 163.77 122.35 L 164.56 121.72 C 165.18 121.23 165.28 120.33 164.78 119.71 C 164.29 119.09 163.39 119.00 162.77 119.49 L 161.99 120.12 C 161.37 120.61 161.27 121.51 161.76 122.13 C 162.26 122.75 163.16 122.84 163.77 122.35 Z M 164.57 121.71 L 165.35 121.07 C 165.96 120.58 166.06 119.68 165.56 119.07 C 165.06 118.45 164.16 118.36 163.55 118.86 L 162.77 119.50 C 162.15 119.99 162.06 120.89 162.56 121.51 C 163.06 122.12 163.96 122.21 164.57 121.71 Z M 165.36 121.07 L 166.12 120.44 C 166.73 119.94 166.82 119.04 166.32 118.43 C 165.82 117.83 164.92 117.74 164.31 118.24 L 163.55 118.86 C 162.94 119.36 162.85 120.26 163.35 120.87 C 163.85 121.48 164.75 121.57 165.36 121.07 Z M 166.12 120.44 L 166.85 119.84 C 167.46 119.33 167.54 118.44 167.04 117.83 C 166.54 117.22 165.64 117.14 165.03 117.64 L 164.30 118.24 C 163.70 118.74 163.61 119.64 164.12 120.25 C 164.62 120.86 165.52 120.94 166.12 120.44 Z M 166.86 119.83 L 167.58 119.21 C 168.18 118.70 168.26 117.80 167.75 117.20 C 167.24 116.60 166.34 116.53 165.74 117.04 L 165.02 117.65 C 164.42 118.16 164.34 119.06 164.85 119.66 C 165.36 120.26 166.26 120.34 166.86 119.83 Z M 167.61 119.20 L 168.37 118.52 C 168.96 118.00 169.01 117.10 168.49 116.51 C 167.97 115.92 167.07 115.87 166.48 116.39 L 165.72 117.06 C 165.13 117.58 165.07 118.48 165.59 119.07 C 166.11 119.66 167.02 119.72 167.61 119.20 Z M 168.39 118.50 L 169.16 117.79 C 169.74 117.25 169.78 116.35 169.24 115.77 C 168.71 115.19 167.81 115.16 167.23 115.69 L 166.45 116.41 C 165.88 116.94 165.84 117.84 166.38 118.42 C 166.91 119.00 167.81 119.04 168.39 118.50 Z M 169.18 117.77 L 169.84 117.14 C 170.41 116.60 170.43 115.69 169.88 115.13 C 169.34 114.56 168.44 114.54 167.87 115.08 L 167.21 115.71 C 166.64 116.25 166.62 117.16 167.17 117.73 C 167.71 118.29 168.61 118.31 169.18 117.77 Z M 169.85 117.13 L 170.55 116.45 C 171.11 115.90 171.12 115.00 170.57 114.43 C 170.02 113.87 169.12 113.86 168.56 114.41 L 167.86 115.09 C 167.29 115.64 167.28 116.54 167.83 117.11 C 168.38 117.67 169.28 117.68 169.85 117.13 Z M 170.56 116.44 L 171.29 115.72 C 171.85 115.16 171.85 114.26 171.30 113.70 C 170.74 113.14 169.84 113.14 169.28 113.69 L 168.55 114.41 C 167.99 114.97 167.99 115.87 168.54 116.43 C 169.09 116.99 170.00 116.99 170.56 116.44 Z M 171.29 115.71 L 172.04 114.96 C 172.60 114.41 172.60 113.51 172.05 112.95 C 171.49 112.39 170.59 112.39 170.03 112.94 L 169.28 113.69 C 168.72 114.25 168.72 115.15 169.28 115.71 C 169.83 116.27 170.73 116.27 171.29 115.71 Z M 172.04 114.96 L 172.63 114.38 C 173.19 113.82 173.19 112.92 172.63 112.36 C 172.08 111.80 171.17 111.80 170.62 112.36 L 170.03 112.95 C 169.47 113.50 169.47 114.41 170.03 114.96 C 170.59 115.52 171.49 115.52 172.04 114.96 Z"
      fill="black"
      fill-rule="nonzero" /><path d="M 157.28 104.05 L 156.65 104.85 C 156.11 105.54 156.23 106.54 156.92 107.08 C 157.61 107.62 158.61 107.50 159.15 106.81 L 159.78 106.01 C 160.32 105.32 160.20 104.32 159.51 103.78 C 158.82 103.24 157.82 103.36 157.28 104.05 Z M 156.59 104.92 L 156.02 105.75 C 155.52 106.47 155.70 107.47 156.42 107.97 C 157.15 108.47 158.15 108.29 158.65 107.56 L 159.22 106.74 C 159.72 106.01 159.54 105.02 158.81 104.52 C 158.08 104.02 157.09 104.20 156.59 104.92 Z M 155.91 105.91 L 155.45 106.79 C 155.04 107.57 155.35 108.55 156.14 108.95 C 156.92 109.36 157.90 109.06 158.30 108.27 L 158.76 107.40 C 159.17 106.61 158.86 105.64 158.07 105.23 C 157.29 104.82 156.32 105.13 155.91 105.91 Z M 155.34 107.05 L 155.06 107.96 C 154.79 108.81 155.27 109.72 156.12 109.98 C 156.98 110.24 157.88 109.76 158.14 108.91 L 158.42 108.00 C 158.68 107.15 158.21 106.25 157.35 105.99 C 156.50 105.72 155.60 106.20 155.34 107.05 Z M 155.00 108.21 L 154.86 109.17 C 154.74 110.05 155.35 110.87 156.24 110.99 C 157.12 111.12 157.94 110.50 158.06 109.62 L 158.20 108.66 C 158.32 107.78 157.71 106.96 156.83 106.84 C 155.94 106.71 155.12 107.32 155.00 108.21 Z M 154.85 109.32 L 154.80 110.33 C 154.76 111.23 155.45 111.98 156.34 112.02 C 157.23 112.06 157.99 111.38 158.03 110.48 L 158.08 109.47 C 158.12 108.58 157.43 107.82 156.54 107.78 C 155.65 107.74 154.89 108.43 154.85 109.32 Z M 154.80 110.40 L 154.79 111.45 C 154.79 112.35 155.51 113.07 156.40 113.08 C 157.30 113.08 158.02 112.36 158.03 111.47 L 158.03 110.42 C 158.04 109.52 157.32 108.80 156.42 108.79 C 155.53 108.79 154.80 109.51 154.80 110.40 Z M 154.79 111.46 L 154.79 112.45 C 154.79 113.34 155.52 114.07 156.41 114.07 C 157.30 114.07 158.03 113.34 158.03 112.45 L 158.03 111.46 C 158.03 110.57 157.30 109.84 156.41 109.84 C 155.52 109.84 154.79 110.57 154.79 111.46 Z M 154.79 112.45 L 154.79 113.46 C 154.79 114.35 155.52 115.08 156.41 115.08 C 157.31 115.08 158.03 114.35 158.03 113.46 L 158.03 112.45 C 158.03 111.56 157.31 110.83 156.41 110.83 C 155.52 110.83 154.79 111.56 154.79 112.45 Z M 154.79 113.46 L 154.79 114.47 C 154.79 115.36 155.51 116.09 156.41 116.09 C 157.31 116.09 158.03 115.36 158.03 114.47 L 158.03 113.46 C 158.03 112.56 157.31 111.83 156.41 111.83 C 155.51 111.83 154.79 112.56 154.79 113.46 Z M 154.79 114.47 L 154.79 115.45 C 154.79 116.35 155.51 117.08 156.41 117.08 C 157.31 117.08 158.04 116.35 158.04 115.45 L 158.04 114.47 C 158.04 113.57 157.31 112.84 156.41 112.84 C 155.51 112.84 154.79 113.57 154.79 114.47 Z M 154.78 115.45 L 154.78 116.38 C 154.78 117.28 155.51 118.01 156.41 118.01 C 157.31 118.01 158.04 117.28 158.04 116.38 L 158.04 115.45 C 158.04 114.55 157.31 113.82 156.41 113.82 C 155.51 113.82 154.78 114.55 154.78 115.45 Z M 154.78 116.38 L 154.78 117.33 C 154.78 118.23 155.51 118.96 156.41 118.96 C 157.31 118.96 158.04 118.23 158.04 117.33 L 158.04 116.38 C 158.04 115.48 157.31 114.75 156.41 114.75 C 155.51 114.75 154.78 115.48 154.78 116.38 Z M 154.78 117.33 L 154.78 118.34 C 154.78 119.25 155.51 119.98 156.41 119.98 C 157.31 119.98 158.04 119.25 158.04 118.34 L 158.04 117.33 C 158.04 116.43 157.31 115.70 156.41 115.70 C 155.51 115.70 154.78 116.43 154.78 117.33 Z M 154.78 118.34 L 154.78 119.46 C 154.78 120.36 155.51 121.10 156.41 121.10 C 157.31 121.10 158.04 120.36 158.04 119.46 L 158.04 118.34 C 158.04 117.44 157.31 116.71 156.41 116.71 C 155.51 116.71 154.78 117.44 154.78 118.34 Z M 154.77 119.46 L 154.77 120.44 C 154.77 121.35 155.51 122.08 156.41 122.08 C 157.31 122.08 158.05 121.35 158.05 120.44 L 158.05 119.46 C 158.05 118.56 157.31 117.83 156.41 117.83 C 155.51 117.83 154.78 118.56 154.77 119.46 Z M 154.77 120.44 L 154.77 121.47 C 154.77 122.38 155.50 123.11 156.40 123.11 C 157.31 123.12 158.04 122.39 158.05 121.48 L 158.05 120.45 C 158.05 119.54 157.32 118.81 156.41 118.80 C 155.51 118.80 154.77 119.53 154.77 120.44 Z M 154.76 121.46 L 154.76 122.51 C 154.75 123.41 155.48 124.15 156.39 124.16 C 157.29 124.17 158.03 123.44 158.04 122.53 L 158.05 121.49 C 158.06 120.58 157.33 119.84 156.42 119.83 C 155.51 119.83 154.77 120.55 154.76 121.46 Z M 154.75 122.49 L 154.74 123.51 C 154.72 124.42 155.45 125.17 156.35 125.18 C 157.26 125.20 158.01 124.47 158.03 123.57 L 158.04 122.55 C 158.06 121.64 157.33 120.89 156.43 120.87 C 155.52 120.86 154.77 121.58 154.75 122.49 Z M 154.73 123.49 L 154.71 124.45 C 154.68 125.36 155.40 126.11 156.31 126.14 C 157.22 126.17 157.98 125.45 158.00 124.54 L 158.03 123.59 C 158.06 122.68 157.34 121.92 156.43 121.89 C 155.52 121.86 154.76 122.58 154.73 123.49 Z M 154.71 124.41 L 154.65 125.50 C 154.60 126.41 155.30 127.19 156.21 127.24 C 157.12 127.28 157.90 126.58 157.95 125.67 L 158.00 124.58 C 158.05 123.67 157.35 122.89 156.44 122.84 C 155.53 122.80 154.75 123.50 154.71 124.41 Z M 154.65 125.44 L 154.56 126.47 C 154.48 127.38 155.16 128.18 156.07 128.26 C 156.98 128.34 157.78 127.67 157.86 126.76 L 157.95 125.73 C 158.02 124.82 157.35 124.02 156.44 123.94 C 155.53 123.86 154.73 124.53 154.65 125.44 Z M 154.57 126.40 L 154.45 127.33 C 154.33 128.24 154.98 129.07 155.88 129.18 C 156.79 129.30 157.62 128.65 157.73 127.75 L 157.85 126.82 C 157.97 125.92 157.33 125.09 156.42 124.97 C 155.51 124.86 154.68 125.50 154.57 126.40 Z M 154.46 127.27 L 154.31 128.17 C 154.16 129.07 154.77 129.93 155.68 130.07 C 156.58 130.22 157.43 129.61 157.58 128.70 L 157.73 127.81 C 157.88 126.90 157.26 126.05 156.36 125.90 C 155.46 125.76 154.60 126.37 154.46 127.27 Z M 154.31 128.13 L 154.14 129.07 C 153.97 129.97 154.56 130.84 155.46 131.01 C 156.37 131.18 157.23 130.58 157.40 129.68 L 157.58 128.74 C 157.75 127.84 157.15 126.97 156.25 126.80 C 155.35 126.64 154.48 127.23 154.31 128.13 Z M 154.14 129.03 L 153.94 130.01 C 153.75 130.91 154.33 131.79 155.23 131.98 C 156.13 132.16 157.01 131.59 157.20 130.68 L 157.40 129.71 C 157.59 128.81 157.01 127.93 156.11 127.74 C 155.21 127.55 154.33 128.13 154.14 129.03 Z M 153.94 129.98 L 153.71 130.98 C 153.51 131.88 154.07 132.77 154.98 132.98 C 155.88 133.18 156.77 132.61 156.97 131.71 L 157.20 130.71 C 157.40 129.81 156.84 128.92 155.94 128.72 C 155.04 128.51 154.14 129.08 153.94 129.98 Z M 153.71 130.95 L 153.47 131.95 C 153.25 132.85 153.81 133.75 154.71 133.97 C 155.61 134.19 156.51 133.64 156.73 132.74 L 156.97 131.74 C 157.19 130.84 156.64 129.94 155.74 129.72 C 154.84 129.50 153.93 130.05 153.71 130.95 Z M 153.47 131.93 L 153.23 132.89 C 153.00 133.78 153.54 134.70 154.44 134.93 C 155.34 135.16 156.25 134.62 156.48 133.72 L 156.73 132.76 C 156.96 131.86 156.42 130.95 155.52 130.72 C 154.62 130.49 153.71 131.03 153.47 131.93 Z M 153.23 132.87 L 152.97 133.84 C 152.73 134.73 153.26 135.66 154.16 135.90 C 155.06 136.14 155.98 135.60 156.22 134.71 L 156.48 133.74 C 156.72 132.84 156.19 131.92 155.29 131.68 C 154.39 131.44 153.47 131.97 153.23 132.87 Z M 152.97 133.83 L 152.71 134.80 C 152.46 135.70 152.99 136.62 153.89 136.87 C 154.78 137.11 155.71 136.58 155.96 135.69 L 156.22 134.72 C 156.47 133.82 155.94 132.89 155.04 132.65 C 154.14 132.40 153.22 132.93 152.97 133.83 Z M 152.70 134.79 L 152.44 135.76 C 152.19 136.66 152.72 137.59 153.62 137.84 C 154.51 138.08 155.44 137.56 155.69 136.66 L 155.96 135.69 C 156.21 134.79 155.68 133.86 154.78 133.62 C 153.88 133.37 152.95 133.89 152.70 134.79 Z M 152.44 135.76 L 152.17 136.72 C 151.92 137.62 152.45 138.55 153.35 138.80 C 154.25 139.04 155.18 138.52 155.43 137.62 L 155.69 136.66 C 155.94 135.76 155.41 134.83 154.51 134.58 C 153.61 134.33 152.68 134.86 152.44 135.76 Z M 152.17 136.72 L 151.91 137.68 C 151.66 138.58 152.19 139.51 153.09 139.76 C 153.99 140.01 154.92 139.48 155.17 138.58 L 155.43 137.62 C 155.68 136.72 155.15 135.79 154.25 135.54 C 153.35 135.29 152.42 135.82 152.17 136.72 Z M 151.90 137.68 L 151.64 138.65 C 151.39 139.55 151.92 140.48 152.82 140.73 C 153.73 140.98 154.66 140.45 154.90 139.54 L 155.17 138.58 C 155.41 137.68 154.88 136.75 153.98 136.50 C 153.08 136.25 152.15 136.78 151.90 137.68 Z M 151.64 138.66 L 151.37 139.64 C 151.13 140.54 151.66 141.47 152.56 141.71 C 153.46 141.96 154.39 141.43 154.64 140.52 L 154.90 139.54 C 155.15 138.64 154.62 137.71 153.71 137.46 C 152.81 137.22 151.88 137.75 151.64 138.66 Z M 151.37 139.64 L 151.10 140.63 C 150.86 141.53 151.39 142.46 152.29 142.71 C 153.20 142.95 154.13 142.42 154.37 141.51 L 154.64 140.52 C 154.88 139.62 154.35 138.69 153.45 138.44 C 152.54 138.20 151.61 138.73 151.37 139.64 Z M 151.10 140.63 L 150.84 141.61 C 150.59 142.51 151.12 143.44 152.03 143.68 C 152.93 143.93 153.86 143.40 154.11 142.49 L 154.37 141.52 C 154.62 140.61 154.08 139.68 153.18 139.44 C 152.28 139.19 151.35 139.73 151.10 140.63 Z M 150.84 141.60 L 150.58 142.54 C 150.33 143.45 150.86 144.38 151.76 144.63 C 152.66 144.88 153.60 144.35 153.84 143.44 L 154.10 142.50 C 154.35 141.60 153.82 140.66 152.92 140.42 C 152.02 140.17 151.09 140.70 150.84 141.60 Z M 150.58 142.53 L 150.32 143.45 C 150.07 144.35 150.59 145.29 151.49 145.54 C 152.39 145.79 153.33 145.27 153.58 144.37 L 153.84 143.46 C 154.10 142.55 153.57 141.62 152.67 141.36 C 151.77 141.11 150.83 141.63 150.58 142.53 Z M 150.33 143.44 L 150.06 144.34 C 149.80 145.24 150.32 146.18 151.22 146.44 C 152.12 146.70 153.06 146.19 153.32 145.29 L 153.58 144.38 C 153.84 143.48 153.32 142.54 152.42 142.28 C 151.53 142.02 150.59 142.54 150.33 143.44 Z M 150.06 144.34 L 149.79 145.27 C 149.53 146.17 150.05 147.11 150.94 147.37 C 151.84 147.63 152.78 147.12 153.05 146.22 L 153.32 145.29 C 153.58 144.39 153.06 143.45 152.16 143.19 C 151.27 142.93 150.33 143.44 150.06 144.34 Z M 149.79 145.28 L 149.50 146.30 C 149.24 147.19 149.76 148.13 150.66 148.39 C 151.56 148.65 152.50 148.13 152.75 147.23 L 153.05 146.21 C 153.31 145.31 152.79 144.38 151.89 144.12 C 150.99 143.86 150.05 144.38 149.79 145.28 Z M 149.49 146.31 L 149.22 147.27 C 148.97 148.17 149.50 149.11 150.40 149.36 C 151.30 149.62 152.23 149.09 152.49 148.19 L 152.76 147.22 C 153.01 146.32 152.48 145.38 151.58 145.13 C 150.68 144.88 149.75 145.40 149.49 146.31 Z M 149.22 147.28 L 148.96 148.25 C 148.71 149.15 149.24 150.08 150.14 150.33 C 151.04 150.58 151.98 150.05 152.22 149.15 L 152.49 148.18 C 152.74 147.28 152.21 146.34 151.30 146.10 C 150.40 145.85 149.47 146.38 149.22 147.28 Z M 148.95 148.26 L 148.68 149.26 C 148.44 150.16 148.98 151.09 149.88 151.33 C 150.78 151.58 151.71 151.04 151.96 150.14 L 152.23 149.14 C 152.47 148.23 151.94 147.30 151.03 147.06 C 150.13 146.82 149.20 147.35 148.95 148.26 Z M 148.68 149.26 L 148.42 150.26 C 148.18 151.16 148.72 152.09 149.62 152.33 C 150.53 152.57 151.45 152.03 151.69 151.13 L 151.96 150.13 C 152.20 149.23 151.66 148.30 150.76 148.06 C 149.85 147.82 148.92 148.36 148.68 149.26 Z M 148.42 150.26 L 148.17 151.22 C 147.93 152.12 148.47 153.05 149.38 153.28 C 150.29 153.52 151.21 152.98 151.45 152.07 L 151.70 151.12 C 151.93 150.21 151.39 149.29 150.48 149.05 C 149.58 148.82 148.65 149.36 148.42 150.26 Z M 148.16 151.22 L 147.88 152.31 C 147.65 153.22 148.20 154.14 149.11 154.37 C 150.02 154.61 150.94 154.06 151.18 153.15 L 151.45 152.06 C 151.69 151.16 151.14 150.23 150.23 150.00 C 149.32 149.77 148.40 150.31 148.16 151.22 Z M 147.88 152.30 L 147.62 153.30 C 147.38 154.21 147.93 155.14 148.84 155.38 C 149.75 155.61 150.68 155.07 150.92 154.16 L 151.18 153.16 C 151.42 152.25 150.87 151.32 149.96 151.08 C 149.05 150.84 148.12 151.39 147.88 152.30 Z M 147.62 153.26 L 147.37 154.16 C 147.11 155.07 147.64 156.02 148.55 156.28 C 149.46 156.53 150.40 156.01 150.66 155.10 L 150.92 154.19 C 151.17 153.28 150.65 152.34 149.74 152.08 C 148.83 151.82 147.88 152.35 147.62 153.26 Z M 147.38 154.09 L 147.09 154.96 C 146.80 155.86 147.29 156.83 148.19 157.13 C 149.10 157.43 150.07 156.93 150.37 156.03 L 150.65 155.17 C 150.95 154.26 150.45 153.29 149.55 152.99 C 148.65 152.70 147.68 153.19 147.38 154.09 Z M 147.12 154.80 L 146.71 155.75 C 146.33 156.64 146.74 157.67 147.63 158.05 C 148.52 158.44 149.55 158.02 149.94 157.13 L 150.34 156.19 C 150.73 155.29 150.31 154.26 149.42 153.88 C 148.53 153.50 147.50 153.91 147.12 154.80 Z M 146.84 155.40 L 146.28 156.20 C 145.71 157.02 145.91 158.15 146.73 158.72 C 147.55 159.30 148.68 159.10 149.25 158.28 L 149.81 157.48 C 150.38 156.66 150.18 155.53 149.36 154.95 C 148.54 154.38 147.41 154.58 146.84 155.40 Z M 146.69 155.72 L 145.88 156.29 C 145.04 156.89 144.84 158.05 145.44 158.89 C 146.04 159.73 147.20 159.93 148.04 159.33 L 148.85 158.76 C 149.69 158.16 149.88 157.00 149.29 156.16 C 148.69 155.32 147.52 155.12 146.69 155.72 Z M 146.50 155.97 L 145.33 156.26 C 144.31 156.51 143.69 157.54 143.94 158.56 C 144.20 159.58 145.23 160.20 146.24 159.95 L 147.42 159.65 C 148.44 159.40 149.05 158.37 148.80 157.35 C 148.55 156.34 147.52 155.72 146.50 155.97 Z M 145.94 156.20 L 145.01 156.12 C 143.96 156.03 143.04 156.82 142.95 157.87 C 142.87 158.93 143.65 159.85 144.70 159.94 L 145.63 160.01 C 146.68 160.10 147.61 159.31 147.69 158.26 C 147.78 157.21 146.99 156.28 145.94 156.20 Z M 146.63 157.28 L 146.49 156.94 C 146.08 155.97 144.95 155.50 143.97 155.92 C 142.99 156.33 142.53 157.45 142.94 158.43 L 143.09 158.77 C 143.50 159.75 144.62 160.21 145.60 159.80 C 146.58 159.39 147.04 158.26 146.63 157.28 Z M 146.00 159.12 L 146.54 158.63 C 147.33 157.92 147.40 156.70 146.69 155.92 C 145.98 155.13 144.76 155.06 143.97 155.77 L 143.43 156.26 C 142.64 156.97 142.58 158.18 143.29 158.97 C 144.00 159.76 145.21 159.83 146.00 159.12 Z M 146.24 158.84 L 147.28 158.22 C 148.18 157.68 148.48 156.50 147.94 155.60 C 147.39 154.69 146.22 154.40 145.31 154.94 L 144.28 155.56 C 143.37 156.10 143.07 157.28 143.62 158.18 C 144.16 159.09 145.33 159.38 146.24 158.84 Z M 147.17 158.27 L 148.32 157.68 C 149.26 157.19 149.62 156.04 149.14 155.11 C 148.65 154.17 147.50 153.81 146.56 154.29 L 145.42 154.89 C 144.48 155.37 144.12 156.52 144.60 157.46 C 145.09 158.39 146.24 158.76 147.17 158.27 Z M 148.28 157.69 L 149.11 157.29 C 150.06 156.82 150.45 155.68 149.99 154.74 C 149.52 153.79 148.38 153.40 147.44 153.87 L 146.61 154.27 C 145.66 154.74 145.27 155.88 145.73 156.82 C 146.20 157.77 147.34 158.16 148.28 157.69 Z M 149.09 157.30 L 149.98 156.88 C 150.93 156.43 151.33 155.29 150.88 154.34 C 150.43 153.39 149.30 152.99 148.35 153.44 L 147.46 153.86 C 146.51 154.30 146.11 155.44 146.56 156.39 C 147.00 157.34 148.14 157.75 149.09 157.30 Z M 149.96 156.89 L 150.88 156.46 C 151.84 156.02 152.26 154.89 151.82 153.94 C 151.38 152.98 150.25 152.56 149.30 153.00 L 148.37 153.43 C 147.41 153.87 147.00 154.99 147.43 155.95 C 147.87 156.90 149.00 157.32 149.96 156.89 Z M 150.86 156.47 L 151.81 156.04 C 152.77 155.62 153.20 154.49 152.78 153.53 C 152.35 152.57 151.22 152.14 150.26 152.57 L 149.31 152.99 C 148.35 153.42 147.92 154.55 148.35 155.51 C 148.78 156.47 149.90 156.90 150.86 156.47 Z M 151.80 156.05 L 152.76 155.63 C 153.72 155.21 154.16 154.09 153.74 153.13 C 153.32 152.17 152.20 151.73 151.24 152.15 L 150.28 152.56 C 149.32 152.98 148.88 154.10 149.30 155.07 C 149.71 156.03 150.83 156.47 151.80 156.05 Z M 152.74 155.64 L 153.73 155.22 C 154.69 154.81 155.15 153.70 154.74 152.73 C 154.33 151.76 153.21 151.31 152.25 151.72 L 151.26 152.14 C 150.29 152.55 149.84 153.66 150.25 154.63 C 150.66 155.60 151.78 156.05 152.74 155.64 Z M 153.71 155.23 L 154.71 154.81 C 155.68 154.41 156.14 153.30 155.74 152.33 C 155.34 151.36 154.23 150.90 153.26 151.30 L 152.26 151.72 C 151.29 152.12 150.83 153.23 151.23 154.20 C 151.63 155.17 152.74 155.63 153.71 155.23 Z M 154.70 154.82 L 155.67 154.42 C 156.64 154.03 157.11 152.92 156.72 151.95 C 156.33 150.98 155.22 150.51 154.25 150.90 L 153.28 151.30 C 152.31 151.69 151.84 152.80 152.23 153.77 C 152.62 154.74 153.73 155.21 154.70 154.82 Z M 155.66 154.43 L 156.59 154.06 C 157.57 153.67 158.04 152.57 157.66 151.59 C 157.27 150.62 156.17 150.14 155.19 150.53 L 154.26 150.90 C 153.29 151.29 152.81 152.39 153.20 153.36 C 153.58 154.34 154.69 154.81 155.66 154.43 Z M 156.58 154.06 L 157.46 153.72 C 158.44 153.34 158.92 152.24 158.54 151.26 C 158.16 150.28 157.06 149.80 156.08 150.18 L 155.20 150.53 C 154.23 150.91 153.75 152.01 154.13 152.98 C 154.51 153.96 155.61 154.44 156.58 154.06 Z M 157.46 153.72 L 158.27 153.40 C 159.25 153.02 159.74 151.93 159.36 150.95 C 158.98 149.97 157.89 149.49 156.91 149.87 L 156.09 150.18 C 155.11 150.56 154.63 151.66 155.01 152.63 C 155.38 153.61 156.48 154.10 157.46 153.72 Z M 158.27 153.40 L 159.32 153.00 C 160.30 152.63 160.79 151.53 160.41 150.55 C 160.04 149.58 158.94 149.09 157.97 149.46 L 156.91 149.86 C 155.94 150.24 155.45 151.33 155.82 152.31 C 156.20 153.29 157.29 153.78 158.27 153.40 Z M 159.32 153.00 L 160.27 152.64 C 161.25 152.27 161.74 151.18 161.37 150.20 C 161.00 149.22 159.90 148.73 158.92 149.10 L 157.97 149.46 C 156.99 149.83 156.50 150.92 156.87 151.90 C 157.24 152.88 158.34 153.37 159.32 153.00 Z M 160.26 152.64 L 161.14 152.31 C 162.12 151.95 162.61 150.85 162.24 149.87 C 161.87 148.89 160.78 148.40 159.80 148.77 L 158.93 149.10 C 157.95 149.47 157.45 150.56 157.82 151.54 C 158.19 152.52 159.28 153.01 160.26 152.64 Z M 161.14 152.31 L 161.99 151.99 C 162.97 151.63 163.47 150.53 163.10 149.55 C 162.73 148.58 161.64 148.08 160.66 148.45 L 159.80 148.77 C 158.82 149.13 158.33 150.23 158.70 151.21 C 159.06 152.19 160.16 152.68 161.14 152.31 Z M 161.99 151.99 L 162.92 151.65 C 163.90 151.28 164.39 150.19 164.03 149.21 C 163.66 148.23 162.57 147.73 161.59 148.10 L 160.66 148.45 C 159.68 148.81 159.18 149.90 159.55 150.88 C 159.92 151.86 161.01 152.36 161.99 151.99 Z M 162.91 151.65 L 163.85 151.30 C 164.83 150.94 165.33 149.85 164.96 148.87 C 164.60 147.89 163.51 147.39 162.53 147.75 L 161.59 148.10 C 160.61 148.46 160.11 149.55 160.48 150.53 C 160.84 151.51 161.93 152.01 162.91 151.65 Z M 163.84 151.31 L 164.79 150.96 C 165.77 150.60 166.27 149.51 165.91 148.53 C 165.55 147.55 164.47 147.04 163.48 147.40 L 162.54 147.75 C 161.55 148.11 161.05 149.19 161.41 150.18 C 161.77 151.16 162.85 151.67 163.84 151.31 Z M 164.77 150.96 L 165.71 150.63 C 166.70 150.27 167.21 149.19 166.86 148.20 C 166.51 147.22 165.42 146.71 164.44 147.06 L 163.50 147.40 C 162.51 147.75 162.00 148.83 162.35 149.82 C 162.70 150.80 163.79 151.32 164.77 150.96 Z M 165.70 150.63 L 166.65 150.30 C 167.63 149.95 168.15 148.87 167.81 147.88 C 167.46 146.90 166.38 146.38 165.39 146.72 L 164.45 147.05 C 163.46 147.40 162.94 148.48 163.29 149.47 C 163.63 150.46 164.71 150.98 165.70 150.63 Z M 166.64 150.30 L 167.59 149.98 C 168.58 149.64 169.10 148.56 168.76 147.57 C 168.42 146.58 167.35 146.05 166.36 146.39 L 165.40 146.72 C 164.41 147.06 163.89 148.14 164.23 149.13 C 164.57 150.12 165.64 150.64 166.64 150.30 Z M 167.57 149.98 L 168.52 149.66 C 169.52 149.33 170.05 148.26 169.72 147.26 C 169.38 146.27 168.31 145.73 167.32 146.07 L 166.37 146.39 C 165.37 146.72 164.84 147.80 165.17 148.79 C 165.51 149.78 166.58 150.32 167.57 149.98 Z M 168.51 149.67 L 169.47 149.36 C 170.46 149.03 171.00 147.96 170.68 146.96 C 170.35 145.96 169.28 145.42 168.28 145.75 L 167.33 146.06 C 166.33 146.39 165.79 147.46 166.12 148.46 C 166.44 149.46 167.52 150.00 168.51 149.67 Z M 169.46 149.36 L 170.40 149.06 C 171.40 148.73 171.95 147.66 171.63 146.66 C 171.31 145.67 170.24 145.12 169.24 145.44 L 168.29 145.74 C 167.29 146.07 166.74 147.14 167.06 148.14 C 167.39 149.14 168.46 149.68 169.46 149.36 Z M 170.40 149.06 L 171.35 148.76 C 172.35 148.44 172.90 147.37 172.59 146.37 C 172.27 145.37 171.20 144.81 170.20 145.13 L 169.25 145.43 C 168.24 145.75 167.69 146.82 168.01 147.82 C 168.33 148.82 169.40 149.38 170.40 149.06 Z M 171.34 148.76 L 172.26 148.47 C 173.26 148.16 173.82 147.09 173.50 146.09 C 173.19 145.09 172.12 144.53 171.12 144.84 L 170.20 145.13 C 169.20 145.44 168.64 146.51 168.96 147.51 C 169.27 148.52 170.34 149.07 171.34 148.76 Z M 172.25 148.47 L 173.16 148.19 C 174.16 147.88 174.72 146.82 174.41 145.82 C 174.10 144.82 173.04 144.26 172.04 144.57 L 171.13 144.85 C 170.13 145.16 169.57 146.22 169.88 147.22 C 170.19 148.22 171.25 148.78 172.25 148.47 Z M 173.15 148.18 L 174.10 147.89 C 175.10 147.59 175.67 146.54 175.36 145.54 C 175.06 144.54 174.01 143.98 173.01 144.28 L 172.05 144.57 C 171.06 144.87 170.49 145.93 170.80 146.92 C 171.10 147.92 172.15 148.48 173.15 148.18 Z M 174.09 147.89 L 175.11 147.59 C 176.11 147.29 176.68 146.25 176.38 145.25 C 176.09 144.26 175.04 143.69 174.05 143.98 L 173.03 144.29 C 172.03 144.58 171.46 145.62 171.76 146.62 C 172.05 147.61 173.10 148.18 174.09 147.89 Z M 175.10 147.59 L 176.06 147.31 C 177.05 147.02 177.63 145.98 177.34 144.99 C 177.05 144.00 176.02 143.42 175.02 143.71 L 174.06 143.99 C 173.07 144.27 172.50 145.31 172.78 146.30 C 173.07 147.30 174.11 147.87 175.10 147.59 Z M 176.05 147.31 L 177.03 147.04 C 178.02 146.75 178.60 145.72 178.32 144.72 C 178.04 143.73 177.00 143.15 176.00 143.43 L 175.03 143.71 C 174.03 143.99 173.46 145.02 173.74 146.02 C 174.02 147.02 175.06 147.59 176.05 147.31 Z M 177.02 147.04 L 178.01 146.76 C 179.01 146.49 179.59 145.45 179.31 144.45 C 179.03 143.45 177.99 142.87 177.00 143.15 L 176.01 143.43 C 175.01 143.70 174.43 144.74 174.71 145.74 C 174.99 146.74 176.02 147.32 177.02 147.04 Z M 178.00 146.77 L 178.97 146.50 C 179.97 146.22 180.56 145.19 180.28 144.19 C 180.00 143.19 178.97 142.60 177.97 142.88 L 177.00 143.15 C 176.00 143.42 175.41 144.46 175.69 145.46 C 175.97 146.46 177.00 147.04 178.00 146.77 Z M 178.97 146.50 L 179.95 146.23 C 180.95 145.96 181.54 144.92 181.26 143.92 C 180.99 142.92 179.95 142.33 178.95 142.61 L 177.97 142.88 C 176.97 143.15 176.38 144.18 176.66 145.19 C 176.93 146.19 177.97 146.78 178.97 146.50 Z M 179.94 146.24 L 180.95 145.96 C 181.96 145.69 182.55 144.66 182.28 143.66 C 182.01 142.65 180.97 142.06 179.97 142.33 L 178.96 142.60 C 177.95 142.87 177.36 143.91 177.63 144.91 C 177.90 145.92 178.94 146.51 179.94 146.24 Z M 180.94 145.97 L 181.89 145.72 C 182.90 145.46 183.50 144.43 183.24 143.42 C 182.98 142.42 181.95 141.81 180.94 142.08 L 179.98 142.32 C 178.98 142.59 178.37 143.62 178.64 144.62 C 178.90 145.63 179.93 146.23 180.94 145.97 Z M 181.87 145.73 L 182.79 145.50 C 183.80 145.25 184.42 144.23 184.17 143.22 C 183.92 142.21 182.90 141.59 181.89 141.84 L 180.97 142.07 C 179.96 142.32 179.34 143.34 179.59 144.35 C 179.83 145.36 180.85 145.98 181.87 145.73 Z M 182.75 145.51 L 183.79 145.29 C 184.80 145.06 185.45 144.05 185.22 143.03 C 185.00 142.02 183.99 141.37 182.97 141.60 L 181.93 141.83 C 180.92 142.05 180.27 143.06 180.50 144.08 C 180.72 145.10 181.73 145.74 182.75 145.51 Z M 183.62 145.32 L 184.70 145.18 C 185.74 145.05 186.47 144.09 186.34 143.06 C 186.20 142.02 185.25 141.28 184.21 141.42 L 183.13 141.56 C 182.09 141.70 181.36 142.65 181.50 143.69 C 181.63 144.73 182.59 145.46 183.62 145.32 Z M 184.21 145.19 L 185.10 145.31 C 186.15 145.45 187.10 144.71 187.24 143.67 C 187.38 142.62 186.64 141.66 185.60 141.53 L 184.70 141.41 C 183.66 141.27 182.70 142.01 182.56 143.05 C 182.43 144.10 183.16 145.06 184.21 145.19 Z M 184.11 144.88 L 184.68 145.37 C 185.49 146.06 186.70 145.96 187.39 145.15 C 188.07 144.35 187.98 143.14 187.17 142.45 L 186.59 141.96 C 185.79 141.27 184.58 141.37 183.89 142.18 C 183.20 142.98 183.30 144.19 184.11 144.88 Z M 184.10 144.51 L 184.38 145.35 C 184.71 146.35 185.80 146.90 186.81 146.57 C 187.81 146.23 188.36 145.15 188.03 144.14 L 187.75 143.31 C 187.42 142.30 186.33 141.75 185.32 142.09 C 184.32 142.42 183.77 143.51 184.10 144.51 Z M 184.29 144.91 L 184.38 145.97 C 184.48 147.03 185.41 147.81 186.47 147.72 C 187.53 147.62 188.31 146.69 188.21 145.63 L 188.12 144.57 C 188.02 143.51 187.09 142.73 186.03 142.83 C 184.97 142.92 184.19 143.86 184.29 144.91 Z M 184.37 145.82 L 184.38 146.96 C 184.39 148.02 185.26 148.87 186.33 148.86 C 187.39 148.85 188.24 147.98 188.23 146.92 L 188.22 145.78 C 188.21 144.72 187.34 143.87 186.28 143.88 C 185.22 143.89 184.36 144.76 184.37 145.82 Z M 184.38 146.94 L 184.38 147.90 C 184.38 148.97 185.24 149.83 186.31 149.83 C 187.37 149.83 188.24 148.97 188.24 147.90 L 188.24 146.94 C 188.24 145.87 187.37 145.01 186.31 145.01 C 185.24 145.01 184.38 145.87 184.38 146.94 Z M 184.38 147.90 L 184.38 148.88 C 184.38 149.95 185.24 150.81 186.31 150.81 C 187.37 150.81 188.24 149.95 188.24 148.88 L 188.24 147.90 C 188.24 146.84 187.37 145.98 186.31 145.98 C 185.24 145.98 184.38 146.84 184.38 147.90 Z M 184.38 148.88 L 184.38 149.89 C 184.38 150.96 185.24 151.82 186.31 151.82 C 187.37 151.82 188.24 150.96 188.24 149.89 L 188.24 148.88 C 188.24 147.82 187.37 146.95 186.31 146.95 C 185.24 146.95 184.38 147.82 184.38 148.88 Z M 184.38 149.89 L 184.38 150.94 C 184.38 152.01 185.24 152.87 186.31 152.87 C 187.38 152.87 188.24 152.01 188.24 150.94 L 188.24 149.89 C 188.24 148.83 187.38 147.96 186.31 147.96 C 185.24 147.96 184.38 148.83 184.38 149.89 Z M 184.38 150.94 L 184.38 151.95 C 184.38 153.01 185.24 153.88 186.31 153.88 C 187.38 153.88 188.24 153.01 188.24 151.95 L 188.24 150.94 C 188.24 149.87 187.38 149.01 186.31 149.01 C 185.24 149.01 184.38 149.87 184.38 150.94 Z M 184.38 151.95 L 184.38 152.97 C 184.38 154.04 185.24 154.90 186.31 154.90 C 187.38 154.90 188.24 154.04 188.24 152.97 L 188.24 151.95 C 188.24 150.88 187.38 150.01 186.31 150.01 C 185.24 150.01 184.38 150.88 184.38 151.95 Z M 184.38 152.97 L 184.38 153.99 C 184.38 155.06 185.24 155.92 186.31 155.92 C 187.37 155.92 188.24 155.06 188.24 153.99 L 188.24 152.97 C 188.24 151.91 187.37 151.04 186.31 151.04 C 185.24 151.04 184.38 151.91 184.38 152.97 Z M 184.38 153.99 L 184.38 154.97 C 184.38 156.03 185.24 156.90 186.31 156.90 C 187.37 156.90 188.24 156.03 188.24 154.97 L 188.24 153.99 C 188.24 152.92 187.37 152.06 186.31 152.06 C 185.24 152.06 184.38 152.92 184.38 153.99 Z M 184.38 154.97 L 184.38 156.02 C 184.38 157.09 185.24 157.95 186.31 157.95 C 187.37 157.95 188.24 157.09 188.24 156.02 L 188.24 154.97 C 188.24 153.90 187.37 153.04 186.31 153.04 C 185.24 153.04 184.38 153.90 184.38 154.97 Z M 184.38 156.02 L 184.38 157.06 C 184.38 158.13 185.24 158.99 186.31 158.99 C 187.38 158.99 188.24 158.13 188.24 157.06 L 188.24 156.02 C 188.24 154.95 187.38 154.09 186.31 154.09 C 185.24 154.09 184.38 154.95 184.38 156.02 Z M 184.38 157.06 L 184.38 158.02 C 184.38 159.09 185.24 159.95 186.31 159.95 C 187.38 159.95 188.24 159.09 188.24 158.02 L 188.24 157.06 C 188.24 155.99 187.38 155.13 186.31 155.13 C 185.24 155.13 184.38 155.99 184.38 157.06 Z M 184.38 158.02 L 184.38 158.94 C 184.38 160.01 185.24 160.88 186.31 160.88 C 187.38 160.88 188.24 160.01 188.24 158.94 L 188.24 158.02 C 188.24 156.95 187.38 156.09 186.31 156.09 C 185.24 156.09 184.38 156.95 184.38 158.02 Z M 184.37 158.94 L 184.37 159.94 C 184.37 161.01 185.24 161.87 186.31 161.87 C 187.38 161.87 188.24 161.01 188.24 159.94 L 188.24 158.94 C 188.24 157.88 187.38 157.01 186.31 157.01 C 185.24 157.01 184.37 157.88 184.37 158.94 Z M 184.37 159.94 L 184.37 160.93 C 184.37 162.00 185.24 162.87 186.31 162.87 C 187.38 162.87 188.24 162.00 188.24 160.93 L 188.24 159.94 C 188.24 158.87 187.38 158.00 186.31 158.00 C 185.24 158.00 184.37 158.87 184.37 159.94 Z M 184.37 160.93 L 184.37 161.94 C 184.37 163.01 185.24 163.88 186.31 163.88 C 187.38 163.88 188.24 163.01 188.24 161.94 L 188.24 160.93 C 188.24 159.86 187.38 159.00 186.31 159.00 C 185.24 159.00 184.37 159.86 184.37 160.93 Z M 184.37 161.94 L 184.37 162.92 C 184.37 163.99 185.24 164.86 186.31 164.86 C 187.38 164.86 188.24 163.99 188.24 162.92 L 188.24 161.94 C 188.24 160.87 187.38 160.01 186.31 160.01 C 185.24 160.01 184.37 160.87 184.37 161.94 Z M 184.37 162.92 L 184.37 163.92 C 184.37 164.99 185.24 165.86 186.31 165.86 C 187.38 165.86 188.24 164.99 188.24 163.92 L 188.24 162.92 C 188.24 161.85 187.38 160.98 186.31 160.98 C 185.24 160.98 184.37 161.85 184.37 162.92 Z M 184.37 163.92 L 184.37 164.93 C 184.37 166.00 185.24 166.87 186.31 166.87 C 187.38 166.87 188.25 166.00 188.25 164.93 L 188.25 163.92 C 188.25 162.85 187.38 161.98 186.31 161.98 C 185.24 161.98 184.37 162.85 184.37 163.92 Z M 184.37 164.93 L 184.37 165.94 C 184.37 167.01 185.24 167.88 186.31 167.88 C 187.38 167.88 188.25 167.01 188.25 165.94 L 188.25 164.93 C 188.25 163.86 187.38 163.00 186.31 163.00 C 185.24 163.00 184.37 163.86 184.37 164.93 Z M 184.37 165.94 L 184.37 166.93 C 184.37 168.01 185.24 168.87 186.31 168.87 C 187.38 168.87 188.25 168.01 188.25 166.93 L 188.25 165.94 C 188.25 164.87 187.38 164.00 186.31 164.00 C 185.24 164.00 184.37 164.87 184.37 165.94 Z M 184.37 166.93 L 184.37 167.94 C 184.37 169.01 185.24 169.87 186.31 169.87 C 187.38 169.87 188.25 169.01 188.25 167.94 L 188.25 166.93 C 188.25 165.86 187.38 165.00 186.31 165.00 C 185.24 165.00 184.37 165.86 184.37 166.93 Z M 184.37 167.94 L 184.37 168.94 C 184.37 170.01 185.24 170.88 186.31 170.88 C 187.38 170.88 188.25 170.01 188.25 168.94 L 188.25 167.94 C 188.25 166.86 187.38 166.00 186.31 166.00 C 185.24 166.00 184.37 166.86 184.37 167.94 Z M 184.37 168.94 L 184.37 169.95 C 184.37 171.02 185.24 171.89 186.31 171.89 C 187.38 171.89 188.25 171.02 188.25 169.95 L 188.25 168.94 C 188.25 167.87 187.38 167.00 186.31 167.00 C 185.24 167.00 184.37 167.87 184.37 168.94 Z M 184.37 169.95 L 184.37 170.95 C 184.37 172.02 185.24 172.89 186.31 172.89 C 187.38 172.89 188.25 172.02 188.25 170.95 L 188.25 169.95 C 188.25 168.88 187.38 168.01 186.31 168.01 C 185.24 168.01 184.37 168.88 184.37 169.95 Z M 184.37 170.95 L 184.37 171.95 C 184.37 173.02 185.24 173.89 186.31 173.89 C 187.38 173.89 188.25 173.02 188.25 171.95 L 188.25 170.95 C 188.25 169.88 187.38 169.01 186.31 169.01 C 185.24 169.01 184.37 169.88 184.37 170.95 Z M 184.37 171.95 L 184.37 172.95 C 184.37 174.02 185.24 174.89 186.31 174.89 C 187.38 174.89 188.25 174.02 188.25 172.95 L 188.25 171.95 C 188.25 170.88 187.38 170.01 186.31 170.01 C 185.24 170.01 184.37 170.88 184.37 171.95 Z M 184.37 172.95 L 184.37 173.94 C 184.37 175.02 185.24 175.89 186.31 175.89 C 187.38 175.89 188.25 175.02 188.25 173.94 L 188.25 172.95 C 188.25 171.87 187.38 171.00 186.31 171.00 C 185.24 171.00 184.37 171.87 184.37 172.95 Z M 184.37 173.94 L 184.37 174.94 C 184.37 176.01 185.24 176.88 186.31 176.88 C 187.38 176.88 188.25 176.01 188.25 174.94 L 188.25 173.94 C 188.25 172.87 187.38 172.00 186.31 172.00 C 185.24 172.00 184.37 172.87 184.37 173.94 Z M 184.36 174.94 L 184.36 175.92 C 184.36 177.00 185.23 177.87 186.31 177.87 C 187.38 177.87 188.25 177.00 188.25 175.92 L 188.25 174.94 C 188.25 173.87 187.38 172.99 186.31 172.99 C 185.23 172.99 184.36 173.87 184.36 174.94 Z M 184.36 175.92 L 184.36 176.86 C 184.36 177.93 185.23 178.80 186.31 178.80 C 187.38 178.80 188.25 177.93 188.25 176.86 L 188.25 175.92 C 188.25 174.85 187.38 173.98 186.31 173.98 C 185.23 173.98 184.36 174.85 184.36 175.92 Z M 184.36 176.86 L 184.36 177.83 C 184.36 178.91 185.23 179.78 186.31 179.78 C 187.38 179.78 188.25 178.91 188.25 177.83 L 188.25 176.86 C 188.25 175.78 187.38 174.91 186.31 174.91 C 185.23 174.91 184.36 175.78 184.36 176.86 Z M 184.36 177.83 L 184.36 178.88 C 184.36 179.95 185.23 180.82 186.31 180.82 C 187.38 180.82 188.25 179.95 188.25 178.88 L 188.25 177.83 C 188.25 176.76 187.38 175.89 186.31 175.89 C 185.23 175.89 184.36 176.76 184.36 177.83 Z M 184.36 178.88 L 184.36 179.92 C 184.36 180.99 185.23 181.87 186.31 181.87 C 187.38 181.87 188.25 180.99 188.25 179.92 L 188.25 178.88 C 188.25 177.81 187.38 176.94 186.31 176.94 C 185.23 176.94 184.36 177.81 184.36 178.88 Z M 184.36 179.92 L 184.36 180.91 C 184.36 181.98 185.23 182.86 186.31 182.86 C 187.38 182.86 188.25 181.98 188.25 180.91 L 188.25 179.92 C 188.25 178.85 187.38 177.98 186.31 177.98 C 185.23 177.98 184.36 178.85 184.36 179.92 Z M 184.36 180.91 L 184.36 181.93 C 184.36 183.00 185.23 183.87 186.31 183.87 C 187.38 183.87 188.25 183.00 188.25 181.93 L 188.25 180.91 C 188.25 179.84 187.38 178.97 186.31 178.97 C 185.23 178.97 184.36 179.84 184.36 180.91 Z M 184.36 181.93 L 184.36 182.95 C 184.36 184.03 185.23 184.90 186.31 184.90 C 187.38 184.90 188.25 184.03 188.25 182.95 L 188.25 181.93 C 188.25 180.86 187.38 179.99 186.31 179.99 C 185.23 179.99 184.36 180.86 184.36 181.93 Z M 184.36 182.95 L 184.36 183.95 C 184.36 185.02 185.23 185.89 186.31 185.89 C 187.38 185.89 188.25 185.02 188.25 183.95 L 188.25 182.95 C 188.25 181.88 187.38 181.01 186.31 181.01 C 185.23 181.01 184.36 181.88 184.36 182.95 Z M 184.36 183.94 L 184.36 184.98 C 184.36 186.05 185.23 186.93 186.30 186.93 C 187.38 186.93 188.25 186.06 188.25 184.99 L 188.25 183.95 C 188.25 182.88 187.39 182.00 186.31 182.00 C 185.24 182.00 184.37 182.87 184.36 183.94 Z M 184.36 184.95 L 184.35 185.96 C 184.33 187.03 185.19 187.91 186.26 187.93 C 187.34 187.94 188.22 187.09 188.24 186.01 L 188.25 185.01 C 188.27 183.94 187.41 183.05 186.34 183.04 C 185.26 183.02 184.38 183.88 184.36 184.95 Z M 184.35 185.90 L 184.31 186.88 C 184.26 187.95 185.09 188.86 186.16 188.90 C 187.24 188.95 188.15 188.12 188.19 187.05 L 188.23 186.07 C 188.28 185.00 187.45 184.09 186.38 184.04 C 185.30 183.99 184.40 184.83 184.35 185.90 Z M 184.31 186.79 L 184.23 187.77 C 184.13 188.84 184.92 189.78 185.99 189.87 C 187.06 189.97 188.01 189.18 188.10 188.11 L 188.19 187.13 C 188.28 186.06 187.49 185.12 186.42 185.02 C 185.35 184.93 184.41 185.72 184.31 186.79 Z M 184.24 187.66 L 184.09 188.68 C 183.94 189.74 184.68 190.73 185.74 190.88 C 186.80 191.04 187.79 190.30 187.94 189.24 L 188.09 188.22 C 188.24 187.15 187.50 186.17 186.44 186.01 C 185.38 185.86 184.39 186.60 184.24 187.66 Z M 184.12 188.54 L 183.89 189.56 C 183.66 190.61 184.32 191.64 185.37 191.88 C 186.42 192.11 187.46 191.45 187.69 190.40 L 187.91 189.38 C 188.14 188.33 187.48 187.29 186.43 187.06 C 185.39 186.83 184.35 187.49 184.12 188.54 Z M 183.95 189.37 L 183.63 190.33 C 183.30 191.34 183.85 192.44 184.86 192.78 C 185.88 193.12 186.98 192.56 187.32 191.55 L 187.63 190.59 C 187.97 189.57 187.42 188.47 186.40 188.14 C 185.38 187.80 184.28 188.35 183.95 189.37 Z M 183.74 190.06 L 183.32 190.90 C 182.84 191.86 183.22 193.02 184.18 193.51 C 185.14 193.99 186.30 193.60 186.78 192.65 L 187.21 191.81 C 187.69 190.85 187.30 189.69 186.35 189.20 C 185.39 188.72 184.22 189.11 183.74 190.06 Z M 183.56 190.55 L 182.98 191.25 C 182.30 192.07 182.42 193.29 183.25 193.97 C 184.08 194.65 185.29 194.53 185.97 193.70 L 186.55 193.00 C 187.23 192.18 187.11 190.96 186.28 190.28 C 185.45 189.60 184.24 189.72 183.56 190.55 Z M 183.35 190.91 L 182.61 191.44 C 181.75 192.06 181.55 193.27 182.17 194.13 C 182.79 194.99 184.00 195.19 184.86 194.57 L 185.60 194.04 C 186.46 193.42 186.66 192.21 186.04 191.35 C 185.42 190.49 184.22 190.29 183.35 190.91 Z M 182.97 191.25 L 182.06 191.65 C 181.09 192.07 180.65 193.20 181.07 194.17 C 181.49 195.14 182.62 195.58 183.59 195.16 L 184.50 194.76 C 185.47 194.34 185.91 193.21 185.49 192.24 C 185.07 191.27 183.94 190.83 182.97 191.25 Z M 182.31 191.57 L 181.20 191.88 C 180.19 192.16 179.60 193.22 179.89 194.23 C 180.17 195.24 181.22 195.83 182.23 195.55 L 183.34 195.24 C 184.35 194.95 184.94 193.90 184.66 192.89 C 184.37 191.88 183.32 191.29 182.31 191.57 Z M 181.33 191.87 L 180.43 192.06 C 179.40 192.27 178.75 193.28 178.97 194.30 C 179.19 195.32 180.19 195.97 181.21 195.75 L 182.11 195.56 C 183.13 195.34 183.78 194.34 183.57 193.32 C 183.35 192.30 182.35 191.65 181.33 191.87 Z M 180.49 192.07 L 179.52 192.24 C 178.50 192.42 177.82 193.39 178.00 194.40 C 178.18 195.42 179.15 196.10 180.17 195.92 L 181.14 195.74 C 182.16 195.56 182.84 194.60 182.66 193.58 C 182.48 192.56 181.51 191.89 180.49 192.07 Z M 179.57 192.25 L 178.55 192.40 C 177.54 192.56 176.85 193.50 177.00 194.50 C 177.15 195.51 178.09 196.21 179.10 196.06 L 180.12 195.90 C 181.12 195.75 181.82 194.81 181.67 193.80 C 181.52 192.79 180.58 192.10 179.57 192.25 Z M 178.59 192.42 L 177.56 192.56 C 176.56 192.68 175.85 193.60 175.98 194.60 C 176.11 195.60 177.03 196.30 178.03 196.17 L 179.06 196.04 C 180.06 195.91 180.76 194.99 180.63 194.00 C 180.50 193.00 179.59 192.29 178.59 192.42 Z M 177.59 192.57 L 176.58 192.69 C 175.59 192.80 174.87 193.69 174.99 194.68 C 175.10 195.67 175.99 196.38 176.98 196.27 L 177.99 196.16 C 178.98 196.04 179.70 195.15 179.58 194.16 C 179.47 193.17 178.58 192.46 177.59 192.57 Z M 176.60 192.71 L 175.60 192.81 C 174.62 192.91 173.91 193.78 174.01 194.75 C 174.10 195.73 174.97 196.44 175.95 196.35 L 176.95 196.25 C 177.93 196.15 178.64 195.28 178.55 194.30 C 178.45 193.33 177.58 192.61 176.60 192.71 Z M 175.63 192.84 L 174.65 192.92 C 173.69 193.00 172.98 193.85 173.06 194.81 C 173.14 195.76 173.98 196.48 174.94 196.40 L 175.92 196.32 C 176.88 196.24 177.59 195.39 177.51 194.43 C 177.43 193.48 176.59 192.76 175.63 192.84 Z M 174.68 192.96 L 173.72 193.02 C 172.78 193.08 172.06 193.90 172.13 194.84 C 172.19 195.78 173.00 196.49 173.94 196.43 L 174.91 196.36 C 175.85 196.30 176.56 195.49 176.50 194.55 C 176.43 193.61 175.62 192.90 174.68 192.96 Z M 173.75 193.06 L 172.76 193.11 C 171.84 193.15 171.13 193.93 171.18 194.86 C 171.22 195.78 172.01 196.49 172.93 196.44 L 173.91 196.39 C 174.83 196.35 175.54 195.56 175.50 194.64 C 175.45 193.72 174.67 193.01 173.75 193.06 Z M 172.79 193.14 L 171.76 193.18 C 170.86 193.21 170.15 193.96 170.18 194.86 C 170.21 195.77 170.97 196.47 171.87 196.44 L 172.90 196.41 C 173.80 196.37 174.51 195.62 174.48 194.72 C 174.45 193.82 173.69 193.11 172.79 193.14 Z M 171.78 193.20 L 170.79 193.23 C 169.90 193.24 169.20 193.98 169.22 194.86 C 169.24 195.75 169.97 196.45 170.86 196.43 L 171.85 196.41 C 172.73 196.39 173.44 195.66 173.42 194.77 C 173.40 193.89 172.66 193.18 171.78 193.20 Z M 170.81 193.24 L 169.81 193.25 C 168.93 193.26 168.23 193.97 168.23 194.85 C 168.24 195.73 168.96 196.43 169.83 196.42 L 170.83 196.42 C 171.71 196.41 172.42 195.69 172.41 194.82 C 172.40 193.94 171.69 193.24 170.81 193.24 Z M 169.84 193.26 L 168.81 193.25 C 167.95 193.24 167.23 193.94 167.22 194.81 C 167.21 195.67 167.91 196.39 168.78 196.40 L 169.80 196.41 C 170.67 196.42 171.38 195.72 171.39 194.86 C 171.40 193.99 170.71 193.28 169.84 193.26 Z M 168.85 193.27 L 167.83 193.23 C 166.97 193.20 166.24 193.87 166.21 194.73 C 166.18 195.59 166.85 196.31 167.71 196.34 L 168.74 196.38 C 169.59 196.41 170.32 195.74 170.35 194.88 C 170.38 194.02 169.71 193.30 168.85 193.27 Z M 167.88 193.25 L 166.88 193.17 C 166.03 193.11 165.29 193.75 165.22 194.60 C 165.16 195.45 165.80 196.19 166.65 196.25 L 167.66 196.32 C 168.51 196.39 169.25 195.75 169.31 194.90 C 169.37 194.05 168.73 193.31 167.88 193.25 Z M 166.94 193.19 L 165.98 193.08 C 165.14 192.98 164.38 193.58 164.29 194.42 C 164.19 195.26 164.78 196.02 165.62 196.12 L 166.58 196.23 C 167.42 196.33 168.18 195.73 168.28 194.89 C 168.38 194.05 167.78 193.29 166.94 193.19 Z M 166.08 193.11 L 165.03 192.92 C 164.21 192.77 163.42 193.31 163.27 194.13 C 163.12 194.96 163.66 195.74 164.49 195.89 L 165.53 196.09 C 166.35 196.24 167.14 195.69 167.29 194.87 C 167.44 194.05 166.90 193.26 166.08 193.11 Z M 165.14 192.96 L 164.16 192.70 C 163.36 192.50 162.54 192.97 162.33 193.77 C 162.13 194.57 162.61 195.39 163.40 195.60 L 164.38 195.85 C 165.18 196.06 166.00 195.58 166.21 194.78 C 166.42 193.98 165.94 193.17 165.14 192.96 Z M 164.26 192.75 L 163.33 192.44 C 162.56 192.17 161.72 192.59 161.46 193.36 C 161.19 194.14 161.61 194.98 162.38 195.24 L 163.31 195.55 C 164.08 195.82 164.92 195.40 165.18 194.63 C 165.45 193.85 165.03 193.01 164.26 192.75 Z M 163.42 192.49 L 162.52 192.12 C 161.77 191.81 160.92 192.16 160.61 192.91 C 160.30 193.66 160.66 194.51 161.40 194.82 L 162.30 195.19 C 163.05 195.50 163.90 195.14 164.21 194.40 C 164.52 193.65 164.16 192.79 163.42 192.49 Z M 162.58 192.16 L 161.70 191.74 C 160.98 191.40 160.12 191.71 159.77 192.43 C 159.43 193.15 159.74 194.01 160.46 194.35 L 161.34 194.77 C 162.06 195.12 162.93 194.81 163.27 194.09 C 163.61 193.37 163.31 192.51 162.58 192.16 Z M 161.75 191.78 L 160.89 191.33 C 160.19 190.96 159.32 191.23 158.95 191.93 C 158.58 192.64 158.86 193.51 159.56 193.87 L 160.41 194.32 C 161.11 194.69 161.98 194.42 162.35 193.72 C 162.72 193.01 162.45 192.14 161.75 191.78 Z M 160.93 191.35 L 160.07 190.87 C 159.38 190.48 158.50 190.73 158.11 191.42 C 157.73 192.11 157.97 192.98 158.66 193.37 L 159.52 193.85 C 160.21 194.24 161.09 193.99 161.48 193.30 C 161.86 192.61 161.62 191.74 160.93 191.35 Z M 160.09 190.88 L 159.22 190.37 C 158.54 189.97 157.66 190.20 157.26 190.88 C 156.86 191.56 157.09 192.44 157.77 192.84 L 158.64 193.35 C 159.32 193.75 160.20 193.53 160.60 192.84 C 161.00 192.16 160.77 191.28 160.09 190.88 Z M 159.24 190.39 L 158.37 189.86 C 157.69 189.45 156.81 189.66 156.40 190.34 C 156.00 191.01 156.21 191.89 156.89 192.30 L 157.76 192.83 C 158.43 193.24 159.31 193.02 159.72 192.35 C 160.13 191.67 159.91 190.80 159.24 190.39 Z M 158.38 189.86 L 157.50 189.33 C 156.83 188.91 155.95 189.12 155.54 189.79 C 155.13 190.47 155.33 191.34 156.01 191.76 L 156.88 192.30 C 157.55 192.71 158.43 192.50 158.84 191.83 C 159.26 191.16 159.05 190.28 158.38 189.86 Z M 157.50 189.33 L 157.42 189.28 C 156.75 188.87 155.88 189.07 155.46 189.74 C 155.05 190.41 155.26 191.29 155.93 191.71 L 156.00 191.76 C 156.67 192.17 157.55 191.96 157.97 191.29 C 158.38 190.62 158.17 189.74 157.50 189.33 Z"
      fill="black"
      fill-rule="nonzero" /><path d="M 116.11 166.48 L 117.06 165.74 C 117.76 165.20 117.88 164.21 117.34 163.51 C 116.81 162.82 115.81 162.69 115.11 163.23 L 114.16 163.97 C 113.47 164.51 113.34 165.51 113.88 166.20 C 114.42 166.89 115.42 167.02 116.11 166.48 Z M 116.98 165.82 L 117.89 165.21 C 118.63 164.72 118.82 163.73 118.33 162.99 C 117.84 162.25 116.85 162.06 116.11 162.55 L 115.20 163.15 C 114.46 163.65 114.27 164.64 114.76 165.38 C 115.25 166.11 116.24 166.31 116.98 165.82 Z M 117.62 165.37 L 118.46 165.02 C 119.28 164.68 119.67 163.73 119.33 162.91 C 118.98 162.09 118.04 161.70 117.22 162.04 L 116.38 162.39 C 115.56 162.73 115.17 163.68 115.51 164.50 C 115.86 165.32 116.80 165.71 117.62 165.37 Z M 117.74 165.15 L 118.46 165.20 C 119.35 165.25 120.12 164.57 120.18 163.67 C 120.23 162.77 119.55 162.00 118.65 161.95 L 117.93 161.91 C 117.04 161.85 116.27 162.54 116.21 163.43 C 116.16 164.33 116.84 165.10 117.74 165.15 Z M 117.49 164.81 L 118.01 165.26 C 118.70 165.85 119.72 165.77 120.31 165.09 C 120.90 164.41 120.82 163.38 120.14 162.79 L 119.62 162.34 C 118.94 161.75 117.91 161.83 117.32 162.51 C 116.73 163.19 116.81 164.22 117.49 164.81 Z M 117.65 164.80 L 118.07 165.58 C 118.50 166.37 119.49 166.66 120.28 166.23 C 121.07 165.80 121.36 164.82 120.93 164.03 L 120.51 163.25 C 120.08 162.46 119.09 162.17 118.30 162.60 C 117.51 163.02 117.22 164.01 117.65 164.80 Z M 117.97 165.34 L 118.32 166.35 C 118.62 167.20 119.54 167.64 120.39 167.35 C 121.24 167.05 121.68 166.13 121.39 165.28 L 121.03 164.27 C 120.74 163.42 119.81 162.98 118.97 163.27 C 118.12 163.57 117.67 164.49 117.97 165.34 Z M 118.29 166.24 L 118.61 167.39 C 118.84 168.26 119.73 168.76 120.59 168.53 C 121.45 168.30 121.96 167.41 121.73 166.55 L 121.42 165.39 C 121.18 164.53 120.29 164.02 119.43 164.26 C 118.57 164.49 118.06 165.38 118.29 166.24 Z M 118.60 167.36 L 118.73 167.87 C 118.95 168.73 119.82 169.26 120.69 169.04 C 121.55 168.82 122.08 167.95 121.86 167.08 L 121.73 166.58 C 121.52 165.71 120.64 165.19 119.77 165.40 C 118.91 165.62 118.38 166.50 118.60 167.36 Z"
      fill="black"
      fill-rule="nonzero" /><path d="M 129.18 162.02 L 130.13 162.44 C 130.91 162.79 131.83 162.44 132.18 161.65 C 132.53 160.87 132.18 159.95 131.40 159.60 L 130.45 159.18 C 129.67 158.83 128.75 159.18 128.40 159.96 C 128.05 160.74 128.40 161.67 129.18 162.02 Z M 130.10 162.44 L 131.02 162.86 C 131.81 163.23 132.74 162.89 133.10 162.11 C 133.47 161.32 133.13 160.39 132.34 160.03 L 131.42 159.60 C 130.64 159.23 129.71 159.57 129.34 160.36 C 128.98 161.14 129.32 162.07 130.10 162.44 Z M 130.98 162.85 L 131.86 163.30 C 132.64 163.69 133.58 163.37 133.97 162.60 C 134.36 161.82 134.05 160.87 133.27 160.48 L 132.39 160.04 C 131.61 159.65 130.67 159.96 130.28 160.74 C 129.89 161.52 130.20 162.46 130.98 162.85 Z M 131.79 163.26 L 132.64 163.74 C 133.39 164.17 134.36 163.90 134.79 163.14 C 135.21 162.39 134.95 161.42 134.19 160.99 L 133.34 160.52 C 132.59 160.09 131.62 160.35 131.19 161.11 C 130.76 161.87 131.03 162.83 131.79 163.26 Z M 132.56 163.68 L 133.40 164.23 C 134.13 164.70 135.10 164.50 135.57 163.77 C 136.04 163.05 135.84 162.08 135.11 161.61 L 134.27 161.06 C 133.54 160.59 132.57 160.79 132.10 161.51 C 131.63 162.24 131.83 163.20 132.56 163.68 Z M 133.36 164.16 L 134.16 164.74 C 134.84 165.24 135.80 165.08 136.30 164.40 C 136.80 163.71 136.64 162.75 135.96 162.26 L 135.16 161.68 C 134.47 161.18 133.51 161.33 133.02 162.02 C 132.52 162.71 132.67 163.67 133.36 164.16 Z M 134.15 164.70 L 134.94 165.30 C 135.60 165.80 136.55 165.67 137.05 165.00 C 137.55 164.34 137.42 163.40 136.76 162.90 L 135.97 162.30 C 135.30 161.80 134.36 161.93 133.86 162.59 C 133.36 163.25 133.49 164.20 134.15 164.70 Z M 134.96 165.28 L 135.74 165.87 C 136.39 166.36 137.32 166.22 137.81 165.57 C 138.30 164.91 138.17 163.99 137.52 163.49 L 136.74 162.91 C 136.08 162.42 135.15 162.55 134.66 163.21 C 134.17 163.86 134.30 164.79 134.96 165.28 Z M 135.76 165.86 L 136.56 166.45 C 137.21 166.93 138.13 166.79 138.61 166.13 C 139.09 165.48 138.95 164.56 138.29 164.08 L 137.49 163.50 C 136.84 163.02 135.92 163.16 135.44 163.81 C 134.96 164.47 135.10 165.38 135.76 165.86 Z M 136.58 166.45 L 137.40 167.04 C 138.06 167.51 138.97 167.36 139.43 166.70 C 139.90 166.05 139.75 165.14 139.10 164.67 L 138.27 164.08 C 137.62 163.61 136.71 163.76 136.24 164.42 C 135.77 165.07 135.92 165.98 136.58 166.45 Z M 137.42 167.04 L 138.26 167.62 C 138.91 168.08 139.81 167.92 140.27 167.27 C 140.73 166.61 140.57 165.71 139.91 165.26 L 139.08 164.67 C 138.42 164.22 137.52 164.38 137.07 165.03 C 136.61 165.68 136.77 166.58 137.42 167.04 Z M 138.27 167.63 L 139.09 168.19 C 139.75 168.64 140.64 168.47 141.09 167.81 C 141.54 167.16 141.37 166.26 140.71 165.81 L 139.90 165.25 C 139.24 164.81 138.35 164.97 137.90 165.63 C 137.45 166.28 137.62 167.18 138.27 167.63 Z M 139.10 168.19 L 139.93 168.75 C 140.59 169.19 141.48 169.02 141.92 168.36 C 142.36 167.71 142.19 166.82 141.53 166.37 L 140.70 165.81 C 140.05 165.37 139.16 165.54 138.71 166.20 C 138.27 166.86 138.44 167.75 139.10 168.19 Z M 139.94 168.75 L 140.78 169.31 C 141.43 169.75 142.32 169.57 142.76 168.92 C 143.20 168.26 143.02 167.37 142.36 166.93 L 141.53 166.37 C 140.87 165.93 139.98 166.11 139.54 166.77 C 139.11 167.42 139.28 168.31 139.94 168.75 Z M 140.78 169.31 L 141.20 169.59 C 141.85 170.02 142.74 169.85 143.18 169.19 C 143.61 168.54 143.44 167.65 142.78 167.21 L 142.36 166.93 C 141.71 166.50 140.82 166.67 140.38 167.33 C 139.95 167.98 140.12 168.87 140.78 169.31 Z"
      fill="black"
      fill-rule="nonzero" /><path d="M 150.20 161.51 L 151.13 161.93 C 151.93 162.30 152.87 161.94 153.23 161.15 C 153.59 160.35 153.24 159.41 152.44 159.05 L 151.51 158.62 C 150.71 158.26 149.77 158.61 149.41 159.41 C 149.05 160.21 149.40 161.15 150.20 161.51 Z M 151.15 161.95 L 152.08 162.35 C 152.89 162.70 153.83 162.33 154.17 161.52 C 154.52 160.71 154.15 159.77 153.34 159.42 L 152.41 159.02 C 151.61 158.68 150.67 159.05 150.32 159.86 C 149.97 160.67 150.34 161.61 151.15 161.95 Z M 152.14 162.39 L 153.06 162.74 C 153.88 163.06 154.81 162.64 155.13 161.81 C 155.44 160.99 155.03 160.06 154.20 159.74 L 153.28 159.39 C 152.46 159.07 151.53 159.49 151.21 160.31 C 150.90 161.14 151.31 162.07 152.14 162.39 Z M 153.16 162.76 L 154.11 163.06 C 154.95 163.32 155.85 162.85 156.11 162.01 C 156.37 161.17 155.90 160.28 155.06 160.02 L 154.10 159.72 C 153.26 159.46 152.37 159.93 152.11 160.77 C 151.85 161.61 152.32 162.50 153.16 162.76 Z M 154.23 163.04 L 155.20 163.28 C 156.04 163.47 156.87 162.96 157.07 162.13 C 157.27 161.30 156.75 160.46 155.92 160.26 L 154.94 160.03 C 154.11 159.83 153.28 160.35 153.08 161.18 C 152.88 162.01 153.40 162.84 154.23 163.04 Z M 155.28 163.23 L 156.25 163.42 C 157.06 163.57 157.84 163.04 157.99 162.24 C 158.15 161.43 157.62 160.65 156.81 160.50 L 155.84 160.31 C 155.04 160.15 154.26 160.68 154.10 161.49 C 153.95 162.30 154.47 163.08 155.28 163.23 Z M 156.28 163.38 L 156.82 163.47 C 157.61 163.61 158.35 163.08 158.49 162.30 C 158.63 161.52 158.11 160.77 157.32 160.63 L 156.78 160.54 C 156.00 160.40 155.25 160.92 155.11 161.71 C 154.98 162.49 155.50 163.24 156.28 163.38 Z"
      fill="black"
      fill-rule="nonzero" /><path d="M 166.42 157.73 L 167.40 157.91 C 168.38 158.08 169.31 157.43 169.48 156.45 C 169.66 155.47 169.00 154.54 168.03 154.37 L 167.04 154.20 C 166.06 154.02 165.13 154.68 164.96 155.65 C 164.79 156.63 165.44 157.56 166.42 157.73 Z M 167.40 157.91 L 168.39 158.09 C 169.37 158.26 170.30 157.61 170.47 156.63 C 170.65 155.65 169.99 154.71 169.01 154.54 L 168.03 154.36 C 167.05 154.19 166.11 154.85 165.94 155.83 C 165.77 156.81 166.42 157.74 167.40 157.91 Z M 168.38 158.10 L 169.37 158.27 C 170.35 158.44 171.29 157.79 171.47 156.80 C 171.64 155.82 170.98 154.88 170.00 154.70 L 169.01 154.53 C 168.03 154.36 167.09 155.01 166.92 156.00 C 166.74 156.98 167.40 157.92 168.38 158.10 Z M 169.37 158.28 L 170.35 158.45 C 171.34 158.62 172.28 157.96 172.46 156.98 C 172.63 155.99 171.97 155.05 170.98 154.87 L 170.00 154.70 C 169.01 154.52 168.07 155.18 167.89 156.17 C 167.72 157.16 168.38 158.10 169.37 158.28 Z M 170.35 158.46 L 171.34 158.63 C 172.33 158.81 173.27 158.14 173.45 157.15 C 173.62 156.16 172.96 155.21 171.97 155.04 L 170.99 154.87 C 169.99 154.69 169.05 155.35 168.87 156.34 C 168.70 157.34 169.36 158.28 170.35 158.46 Z M 171.34 158.64 L 172.32 158.81 C 173.32 158.99 174.26 158.32 174.44 157.33 C 174.62 156.33 173.95 155.38 172.96 155.21 L 171.97 155.03 C 170.98 154.86 170.03 155.52 169.85 156.52 C 169.67 157.51 170.34 158.46 171.34 158.64 Z M 172.32 158.82 L 173.30 158.99 C 174.30 159.17 175.26 158.50 175.43 157.50 C 175.61 156.50 174.94 155.55 173.94 155.37 L 172.96 155.20 C 171.96 155.02 171.00 155.69 170.83 156.69 C 170.65 157.69 171.32 158.64 172.32 158.82 Z M 173.30 159.00 L 174.29 159.17 C 175.29 159.35 176.25 158.68 176.42 157.68 C 176.60 156.67 175.93 155.72 174.93 155.54 L 173.94 155.37 C 172.94 155.19 171.98 155.86 171.81 156.86 C 171.63 157.86 172.30 158.82 173.30 159.00 Z M 174.29 159.18 L 175.27 159.35 C 176.28 159.53 177.24 158.86 177.42 157.85 C 177.59 156.84 176.92 155.88 175.91 155.71 L 174.93 155.53 C 173.92 155.36 172.96 156.03 172.78 157.03 C 172.61 158.04 173.28 159.00 174.29 159.18 Z M 175.27 159.36 L 175.40 159.38 C 176.41 159.56 177.37 158.88 177.55 157.88 C 177.73 156.87 177.06 155.90 176.05 155.73 L 175.91 155.70 C 174.91 155.53 173.94 156.20 173.77 157.21 C 173.59 158.22 174.26 159.18 175.27 159.36 Z"
      fill="black"
      fill-rule="nonzero" /></svg>