<svg xmlns="http://www.w3.org/2000/svg" width="300" height="300" viewBox="0 0 300 300">
<path d="M 151.09 104.54 L 150.75 105.55 C 150.48 106.37 150.93 107.26 151.75 107.53 C 152.57 107.80 153.45 107.35 153.73 106.53 L 154.06 105.53 C 154.33 104.71 153.89 103.82 153.07 103.55 C 152.25 103.28 151.36 103.72 151.09 104.54 Z M 150.73 105.56 L 150.41 106.55 C 150.14 107.39 150.60 108.28 151.44 108.55 C 152.27 108.82 153.16 108.36 153.43 107.52 L 153.75 106.53 C 154.02 105.69 153.56 104.80 152.72 104.53 C 151.89 104.26 151.00 104.72 150.73 105.56 Z M 150.38 106.57 L 150.09 107.54 C 149.83 108.39 150.32 109.29 151.17 109.54 C 152.02 109.80 152.92 109.31 153.17 108.46 L 153.46 107.50 C 153.72 106.64 153.23 105.75 152.38 105.49 C 151.53 105.24 150.63 105.72 150.38 106.57 Z M 150.05 107.59 L 149.81 108.51 C 149.58 109.38 150.10 110.28 150.97 110.51 C 151.84 110.73 152.74 110.21 152.97 109.34 L 153.21 108.42 C 153.44 107.55 152.92 106.65 152.05 106.42 C 151.18 106.19 150.28 106.71 150.05 107.59 Z M 149.77 108.59 L 149.58 109.52 C 149.39 110.41 149.97 111.29 150.86 111.47 C 151.75 111.66 152.63 111.08 152.81 110.19 L 153.01 109.26 C 153.19 108.37 152.62 107.50 151.72 107.31 C 150.83 107.12 149.96 107.70 149.77 108.59 Z M 149.55 109.64 L 149.42 110.64 C 149.30 111.55 149.94 112.38 150.84 112.50 C 151.75 112.62 152.59 111.98 152.71 111.08 L 152.84 110.07 C 152.96 109.16 152.32 108.33 151.41 108.21 C 150.50 108.09 149.67 108.73 149.55 109.64 Z M 149.41 110.76 L 149.35 111.72 C 149.29 112.64 149.99 113.43 150.90 113.48 C 151.82 113.54 152.60 112.84 152.66 111.93 L 152.72 110.96 C 152.78 110.04 152.08 109.26 151.16 109.20 C 150.25 109.14 149.46 109.84 149.41 110.76 Z M 149.34 111.80 L 149.33 112.78 C 149.31 113.70 150.04 114.45 150.96 114.47 C 151.88 114.48 152.63 113.75 152.65 112.84 L 152.66 111.85 C 152.68 110.94 151.95 110.18 151.03 110.16 C 150.11 110.15 149.36 110.88 149.34 111.80 Z M 149.33 112.81 L 149.33 113.76 C 149.32 114.68 150.07 115.42 150.99 115.42 C 151.90 115.42 152.65 114.68 152.65 113.76 L 152.65 112.81 C 152.65 111.89 151.91 111.15 150.99 111.15 C 150.07 111.15 149.33 111.89 149.33 112.81 Z M 149.32 113.76 L 149.33 114.69 C 149.33 115.61 150.07 116.35 150.99 116.35 C 151.91 116.35 152.65 115.61 152.65 114.69 L 152.65 113.76 C 152.65 112.84 151.90 112.10 150.99 112.10 C 150.07 112.10 149.32 112.85 149.32 113.76 Z M 149.32 114.69 L 149.33 115.68 C 149.33 116.60 150.08 117.34 150.99 117.34 C 151.91 117.33 152.66 116.59 152.65 115.67 L 152.65 114.68 C 152.65 113.77 151.90 113.02 150.98 113.03 C 150.06 113.03 149.32 113.78 149.32 114.69 Z M 149.33 115.69 L 149.33 116.73 C 149.34 117.64 150.09 118.39 151.01 118.38 C 151.92 118.37 152.66 117.63 152.66 116.71 L 152.65 115.67 C 152.65 114.75 151.90 114.01 150.98 114.01 C 150.06 114.02 149.32 114.77 149.33 115.69 Z M 149.33 116.73 L 149.34 117.83 C 149.35 118.75 150.11 119.48 151.02 119.47 C 151.94 119.47 152.68 118.71 152.67 117.79 L 152.66 116.70 C 152.65 115.78 151.90 115.04 150.98 115.05 C 150.06 115.06 149.32 115.81 149.33 116.73 Z M 149.34 117.84 L 149.36 118.78 C 149.37 119.70 150.13 120.43 151.05 120.42 C 151.96 120.41 152.70 119.65 152.68 118.73 L 152.67 117.79 C 152.66 116.87 151.90 116.13 150.98 116.15 C 150.06 116.16 149.33 116.92 149.34 117.84 Z M 149.36 118.79 L 149.38 119.75 C 149.39 120.67 150.15 121.40 151.07 121.38 C 151.99 121.36 152.72 120.60 152.70 119.68 L 152.68 118.73 C 152.67 117.81 151.91 117.08 150.99 117.09 C 150.07 117.11 149.34 117.87 149.36 118.79 Z M 149.38 119.76 L 149.40 120.75 C 149.42 121.66 150.19 122.39 151.10 122.37 C 152.02 122.34 152.75 121.58 152.72 120.67 L 152.70 119.68 C 152.68 118.76 151.92 118.03 151.00 118.06 C 150.08 118.08 149.36 118.84 149.38 119.76 Z M 149.40 120.75 L 149.43 121.77 C 149.46 122.69 150.23 123.41 151.14 123.38 C 152.06 123.36 152.78 122.59 152.75 121.67 L 152.72 120.66 C 152.70 119.74 151.93 119.02 151.01 119.05 C 150.10 119.07 149.38 119.84 149.40 120.75 Z M 149.43 121.78 L 149.47 122.83 C 149.50 123.74 150.27 124.46 151.19 124.43 C 152.11 124.40 152.82 123.63 152.79 122.71 L 152.75 121.66 C 152.72 120.75 151.95 120.03 151.03 120.07 C 150.12 120.10 149.40 120.87 149.43 121.78 Z M 149.47 122.84 L 149.52 123.87 C 149.55 124.79 150.33 125.50 151.24 125.46 C 152.16 125.42 152.87 124.65 152.83 123.74 L 152.79 122.70 C 152.75 121.78 151.98 121.07 151.06 121.11 C 150.15 121.15 149.43 121.92 149.47 122.84 Z M 149.52 123.88 L 149.56 124.84 C 149.61 125.75 150.38 126.46 151.30 126.42 C 152.21 126.37 152.92 125.60 152.88 124.68 L 152.83 123.73 C 152.79 122.81 152.01 122.10 151.09 122.15 C 150.18 122.19 149.47 122.97 149.52 123.88 Z M 149.56 124.85 L 149.61 125.82 C 149.66 126.73 150.44 127.44 151.36 127.39 C 152.27 127.34 152.98 126.56 152.93 125.65 L 152.88 124.67 C 152.83 123.76 152.05 123.05 151.13 123.10 C 150.22 123.15 149.51 123.93 149.56 124.85 Z M 149.61 125.83 L 149.67 126.82 C 149.72 127.73 150.51 128.43 151.42 128.38 C 152.34 128.33 153.04 127.54 152.98 126.63 L 152.93 125.64 C 152.88 124.72 152.09 124.02 151.18 124.08 C 150.26 124.13 149.56 124.91 149.61 125.83 Z M 149.67 126.82 L 149.73 127.83 C 149.79 128.75 150.57 129.44 151.49 129.39 C 152.40 129.33 153.10 128.55 153.04 127.63 L 152.98 126.62 C 152.93 125.71 152.14 125.01 151.23 125.07 C 150.31 125.12 149.62 125.91 149.67 126.82 Z M 149.73 127.84 L 149.80 128.86 C 149.86 129.78 150.64 130.47 151.56 130.41 C 152.47 130.35 153.17 129.57 153.11 128.65 L 153.04 127.63 C 152.99 126.71 152.20 126.02 151.28 126.08 C 150.37 126.13 149.67 126.92 149.73 127.84 Z M 149.80 128.87 L 149.87 129.91 C 149.93 130.82 150.72 131.52 151.63 131.45 C 152.55 131.39 153.24 130.60 153.18 129.69 L 153.11 128.65 C 153.05 127.73 152.26 127.04 151.34 127.10 C 150.43 127.16 149.74 127.95 149.80 128.87 Z M 149.87 129.91 L 149.93 130.89 C 150.00 131.80 150.79 132.49 151.70 132.43 C 152.62 132.37 153.31 131.58 153.25 130.66 L 153.18 129.69 C 153.12 128.77 152.32 128.08 151.41 128.14 C 150.50 128.20 149.80 129.00 149.87 129.91 Z M 149.93 130.89 L 150.00 131.86 C 150.06 132.77 150.86 133.46 151.77 133.40 C 152.69 133.34 153.38 132.54 153.31 131.63 L 153.25 130.66 C 153.18 129.74 152.39 129.05 151.47 129.12 C 150.56 129.18 149.87 129.97 149.93 130.89 Z M 150.00 131.86 L 150.07 132.84 C 150.13 133.76 150.93 134.45 151.84 134.38 C 152.76 134.32 153.45 133.52 153.38 132.61 L 153.31 131.63 C 153.25 130.71 152.46 130.02 151.54 130.08 C 150.63 130.15 149.94 130.94 150.00 131.86 Z M 150.07 132.84 L 150.14 133.83 C 150.20 134.75 150.99 135.44 151.91 135.38 C 152.83 135.31 153.52 134.52 153.45 133.60 L 153.38 132.61 C 153.32 131.69 152.53 131.00 151.61 131.07 C 150.69 131.13 150.00 131.92 150.07 132.84 Z M 150.14 133.83 L 150.20 134.84 C 150.27 135.75 151.06 136.45 151.98 136.38 C 152.89 136.32 153.59 135.53 153.52 134.61 L 153.45 133.60 C 153.39 132.69 152.60 132.00 151.68 132.06 C 150.76 132.12 150.07 132.91 150.14 133.83 Z M 150.20 134.84 L 150.27 135.86 C 150.33 136.77 151.13 137.47 152.04 137.41 C 152.96 137.34 153.65 136.55 153.59 135.63 L 153.52 134.61 C 153.46 133.70 152.67 133.00 151.75 133.06 C 150.84 133.13 150.14 133.92 150.20 134.84 Z M 150.27 135.85 L 150.34 136.88 C 150.40 137.80 151.19 138.50 152.11 138.44 C 153.02 138.38 153.72 137.59 153.66 136.67 L 153.59 135.64 C 153.53 134.72 152.74 134.02 151.83 134.08 C 150.91 134.14 150.21 134.93 150.27 135.85 Z M 150.34 136.88 L 150.40 137.89 C 150.45 138.81 151.25 139.51 152.16 139.45 C 153.08 139.39 153.78 138.60 153.72 137.68 L 153.66 136.67 C 153.61 135.76 152.81 135.06 151.90 135.11 C 150.98 135.17 150.28 135.96 150.34 136.88 Z M 150.40 137.88 L 150.46 138.88 C 150.51 139.80 151.30 140.50 152.22 140.45 C 153.14 140.39 153.84 139.61 153.78 138.69 L 153.72 137.69 C 153.67 136.77 152.88 136.07 151.96 136.12 C 151.04 136.18 150.34 136.97 150.40 137.88 Z M 150.46 138.88 L 150.51 139.88 C 150.56 140.80 151.35 141.50 152.27 141.45 C 153.19 141.40 153.89 140.61 153.84 139.69 L 153.78 138.69 C 153.73 137.77 152.95 137.07 152.03 137.12 C 151.11 137.17 150.40 137.96 150.46 138.88 Z M 150.51 139.88 L 150.57 140.88 C 150.61 141.80 151.40 142.51 152.32 142.46 C 153.24 142.41 153.94 141.62 153.89 140.71 L 153.84 139.70 C 153.79 138.78 153.01 138.07 152.09 138.12 C 151.17 138.17 150.46 138.96 150.51 139.88 Z M 150.56 140.88 L 150.62 141.89 C 150.66 142.81 151.45 143.51 152.37 143.47 C 153.29 143.42 153.99 142.63 153.95 141.71 L 153.89 140.71 C 153.85 139.79 153.06 139.08 152.14 139.13 C 151.22 139.18 150.52 139.96 150.56 140.88 Z M 150.62 141.88 L 150.67 142.88 C 150.71 143.80 151.49 144.51 152.41 144.47 C 153.33 144.42 154.04 143.64 154.00 142.72 L 153.95 141.72 C 153.90 140.80 153.12 140.09 152.20 140.13 C 151.28 140.18 150.57 140.96 150.62 141.88 Z M 150.66 142.88 L 150.71 143.88 C 150.75 144.80 151.54 145.51 152.46 145.46 C 153.38 145.42 154.09 144.64 154.04 143.72 L 154.00 142.72 C 153.95 141.80 153.17 141.09 152.25 141.14 C 151.33 141.18 150.62 141.96 150.66 142.88 Z M 150.71 143.87 L 150.76 144.86 C 150.80 145.78 151.58 146.49 152.50 146.45 C 153.42 146.41 154.13 145.63 154.09 144.71 L 154.04 143.72 C 154.00 142.80 153.22 142.09 152.30 142.13 C 151.38 142.17 150.67 142.95 150.71 143.87 Z M 150.76 144.86 L 150.80 145.89 C 150.84 146.82 151.62 147.53 152.54 147.49 C 153.46 147.45 154.17 146.67 154.13 145.75 L 154.09 144.71 C 154.05 143.79 153.27 143.08 152.35 143.12 C 151.43 143.16 150.72 143.94 150.76 144.86 Z M 150.80 145.89 L 150.84 146.91 C 150.88 147.84 151.66 148.55 152.58 148.51 C 153.50 148.47 154.22 147.69 154.18 146.77 L 154.13 145.75 C 154.10 144.83 153.32 144.12 152.40 144.15 C 151.48 144.19 150.76 144.97 150.80 145.89 Z M 150.84 146.91 L 150.88 147.92 C 150.92 148.84 151.70 149.56 152.62 149.52 C 153.54 149.48 154.26 148.71 154.22 147.79 L 154.18 146.78 C 154.14 145.86 153.36 145.14 152.44 145.18 C 151.52 145.21 150.81 145.99 150.84 146.91 Z M 150.88 147.92 L 150.92 148.92 C 150.96 149.84 151.74 150.55 152.66 150.52 C 153.58 150.48 154.30 149.70 154.26 148.78 L 154.22 147.79 C 154.18 146.87 153.41 146.15 152.49 146.19 C 151.56 146.22 150.85 147.00 150.88 147.92 Z M 150.92 148.92 L 150.96 149.90 C 151.00 150.82 151.77 151.54 152.70 151.50 C 153.62 151.47 154.33 150.69 154.30 149.77 L 154.26 148.78 C 154.22 147.86 153.45 147.15 152.53 147.18 C 151.61 147.22 150.89 147.99 150.92 148.92 Z M 150.96 149.90 L 151.00 150.88 C 151.04 151.80 151.81 152.51 152.73 152.48 C 153.65 152.44 154.37 151.67 154.34 150.75 L 154.30 149.77 C 154.26 148.85 153.49 148.13 152.57 148.17 C 151.64 148.20 150.93 148.98 150.96 149.90 Z M 151.00 150.88 L 151.04 151.84 C 151.07 152.76 151.85 153.48 152.77 153.44 C 153.69 153.41 154.41 152.63 154.37 151.71 L 154.34 150.75 C 154.30 149.83 153.52 149.11 152.60 149.14 C 151.68 149.18 150.97 149.95 151.00 150.88 Z M 151.04 151.84 L 151.08 152.86 C 151.11 153.78 151.89 154.50 152.81 154.46 C 153.73 154.43 154.45 153.65 154.41 152.73 L 154.37 151.71 C 154.34 150.79 153.56 150.07 152.64 150.11 C 151.72 150.15 151.00 150.92 151.04 151.84 Z M 151.08 152.86 L 151.12 153.87 C 151.15 154.80 151.93 155.51 152.85 155.48 C 153.77 155.44 154.49 154.67 154.45 153.75 L 154.41 152.73 C 154.38 151.81 153.60 151.09 152.68 151.13 C 151.76 151.17 151.04 151.94 151.08 152.86 Z M 151.12 153.87 L 151.16 154.88 C 151.19 155.80 151.97 156.52 152.89 156.48 C 153.81 156.45 154.52 155.67 154.49 154.75 L 154.45 153.75 C 154.42 152.83 153.64 152.11 152.72 152.14 C 151.80 152.18 151.08 152.95 151.12 153.87 Z M 151.16 154.88 L 151.19 155.87 C 151.23 156.79 152.00 157.51 152.92 157.48 C 153.84 157.44 154.56 156.67 154.53 155.75 L 154.49 154.75 C 154.45 153.83 153.68 153.12 152.76 153.15 C 151.84 153.18 151.12 153.96 151.16 154.88 Z M 151.19 155.87 L 151.23 156.86 C 151.26 157.78 152.03 158.50 152.95 158.47 C 153.87 158.44 154.59 157.66 154.56 156.74 L 154.53 155.75 C 154.49 154.83 153.72 154.11 152.80 154.15 C 151.88 154.18 151.16 154.95 151.19 155.87 Z M 151.23 156.86 L 151.26 157.84 C 151.29 158.76 152.06 159.48 152.98 159.45 C 153.90 159.42 154.62 158.65 154.59 157.73 L 154.56 156.75 C 154.53 155.83 153.76 155.11 152.84 155.14 C 151.92 155.17 151.20 155.94 151.23 156.86 Z M 151.26 157.84 L 151.29 158.83 C 151.32 159.75 152.09 160.48 153.01 160.45 C 153.93 160.42 154.65 159.65 154.62 158.73 L 154.59 157.73 C 154.56 156.81 153.80 156.09 152.88 156.12 C 151.96 156.15 151.23 156.92 151.26 157.84 Z M 151.29 158.83 L 151.32 159.85 C 151.35 160.77 152.12 161.50 153.04 161.47 C 153.95 161.44 154.68 160.68 154.65 159.76 L 154.62 158.73 C 154.60 157.82 153.83 157.09 152.91 157.12 C 151.99 157.14 151.27 157.91 151.29 158.83 Z M 151.32 159.85 L 151.35 160.87 C 151.37 161.78 152.14 162.51 153.06 162.49 C 153.98 162.46 154.70 161.70 154.68 160.78 L 154.65 159.76 C 154.63 158.84 153.86 158.12 152.95 158.14 C 152.03 158.17 151.30 158.93 151.32 159.85 Z M 151.35 160.86 L 151.38 161.87 C 151.40 162.79 152.16 163.51 153.08 163.49 C 154.00 163.47 154.72 162.71 154.70 161.79 L 154.68 160.78 C 154.66 159.86 153.89 159.14 152.97 159.16 C 152.06 159.18 151.33 159.94 151.35 160.86 Z M 151.38 161.87 L 151.40 162.86 C 151.42 163.78 152.18 164.51 153.10 164.48 C 154.02 164.46 154.74 163.70 154.72 162.78 L 154.70 161.79 C 154.68 160.87 153.92 160.15 153.00 160.17 C 152.08 160.19 151.36 160.95 151.38 161.87 Z M 151.40 162.86 L 151.42 163.84 C 151.44 164.76 152.20 165.48 153.12 165.46 C 154.04 165.44 154.76 164.68 154.74 163.77 L 154.72 162.79 C 154.70 161.87 153.94 161.14 153.02 161.16 C 152.11 161.18 151.38 161.94 151.40 162.86 Z M 151.42 163.84 L 151.44 164.81 C 151.46 165.73 152.22 166.45 153.14 166.43 C 154.06 166.41 154.78 165.65 154.76 164.74 L 154.74 163.77 C 154.72 162.85 153.96 162.12 153.05 162.14 C 152.13 162.16 151.40 162.92 151.42 163.84 Z M 151.45 164.81 L 151.47 165.86 C 151.49 166.78 152.25 167.50 153.16 167.48 C 154.08 167.46 154.81 166.70 154.79 165.79 L 154.76 164.74 C 154.74 163.82 153.98 163.09 153.07 163.11 C 152.15 163.13 151.42 163.89 151.45 164.81 Z M 151.47 165.86 L 151.49 166.89 C 151.51 167.81 152.27 168.53 153.19 168.51 C 154.10 168.49 154.83 167.73 154.81 166.81 L 154.78 165.79 C 154.76 164.87 154.01 164.15 153.09 164.17 C 152.17 164.19 151.45 164.95 151.47 165.86 Z M 151.50 166.89 L 151.52 167.90 C 151.54 168.81 152.30 169.54 153.21 169.51 C 154.13 169.49 154.85 168.74 154.83 167.82 L 154.81 166.81 C 154.79 165.90 154.03 165.18 153.11 165.20 C 152.20 165.22 151.47 165.98 151.50 166.89 Z M 151.52 167.90 L 151.54 168.88 C 151.57 169.80 152.32 170.52 153.24 170.50 C 154.15 170.48 154.87 169.72 154.85 168.80 L 154.83 167.82 C 154.81 166.91 154.05 166.18 153.14 166.21 C 152.22 166.23 151.50 166.99 151.52 167.90 Z M 151.55 168.88 L 151.57 169.84 C 151.59 170.76 152.35 171.48 153.26 171.46 C 154.17 171.43 154.89 170.68 154.87 169.76 L 154.85 168.80 C 154.83 167.89 154.07 167.17 153.16 167.19 C 152.25 167.21 151.52 167.97 151.55 168.88 Z M 151.57 169.85 L 151.60 170.83 C 151.62 171.74 152.38 172.46 153.29 172.44 C 154.20 172.41 154.92 171.66 154.89 170.75 L 154.87 169.76 C 154.85 168.85 154.09 168.13 153.18 168.15 C 152.27 168.18 151.55 168.93 151.57 169.85 Z M 151.60 170.83 L 151.63 171.86 C 151.65 172.77 152.41 173.49 153.32 173.47 C 154.22 173.44 154.94 172.69 154.92 171.78 L 154.89 170.74 C 154.87 169.84 154.11 169.12 153.20 169.14 C 152.29 169.16 151.58 169.92 151.60 170.83 Z M 151.63 171.86 L 151.66 172.87 C 151.68 173.78 152.44 174.49 153.35 174.47 C 154.25 174.44 154.97 173.69 154.94 172.78 L 154.92 171.77 C 154.89 170.86 154.13 170.15 153.23 170.18 C 152.32 170.20 151.60 170.96 151.63 171.86 Z M 151.66 172.88 L 151.69 173.86 C 151.72 174.77 152.48 175.48 153.38 175.45 C 154.29 175.42 155.00 174.67 154.97 173.76 L 154.94 172.77 C 154.91 171.87 154.16 171.16 153.25 171.19 C 152.34 171.21 151.63 171.97 151.66 172.88 Z M 151.69 173.87 L 151.73 174.84 C 151.76 175.75 152.52 176.46 153.42 176.42 C 154.33 176.39 155.04 175.63 155.00 174.73 L 154.97 173.76 C 154.94 172.85 154.18 172.14 153.27 172.18 C 152.37 172.21 151.66 172.97 151.69 173.87 Z M 151.73 174.85 L 151.77 175.84 C 151.81 176.74 152.57 177.44 153.47 177.41 C 154.37 177.37 155.08 176.61 155.04 175.71 L 155.00 174.72 C 154.96 173.82 154.20 173.12 153.30 173.15 C 152.40 173.19 151.70 173.95 151.73 174.85 Z M 151.78 175.85 L 151.83 176.87 C 151.87 177.76 152.63 178.46 153.53 178.42 C 154.43 178.37 155.13 177.61 155.08 176.71 L 155.03 175.70 C 154.99 174.80 154.23 174.10 153.33 174.14 C 152.43 174.19 151.73 174.95 151.78 175.85 Z M 151.83 176.88 L 151.89 177.89 C 151.94 178.78 152.71 179.47 153.60 179.42 C 154.50 179.37 155.19 178.60 155.14 177.70 L 155.08 176.69 C 155.03 175.80 154.26 175.11 153.36 175.16 C 152.46 175.22 151.78 175.98 151.83 176.88 Z M 151.89 177.91 L 151.96 178.90 C 152.03 179.79 152.80 180.47 153.69 180.40 C 154.59 180.34 155.26 179.57 155.20 178.67 L 155.13 177.68 C 155.07 176.79 154.29 176.11 153.40 176.18 C 152.51 176.24 151.83 177.01 151.89 177.91 Z M 151.97 178.92 L 152.05 179.90 C 152.13 180.79 152.91 181.45 153.80 181.38 C 154.69 181.30 155.35 180.52 155.28 179.63 L 155.19 178.65 C 155.12 177.76 154.33 177.10 153.44 177.18 C 152.55 177.25 151.89 178.03 151.97 178.92 Z M 152.06 179.94 L 152.17 180.97 C 152.26 181.85 153.06 182.49 153.94 182.40 C 154.83 182.31 155.47 181.51 155.38 180.63 L 155.27 179.60 C 155.18 178.71 154.38 178.07 153.50 178.16 C 152.61 178.26 151.97 179.05 152.06 179.94 Z M 152.18 181.01 L 152.32 182.05 C 152.44 182.93 153.25 183.55 154.14 183.43 C 155.02 183.31 155.63 182.49 155.51 181.61 L 155.37 180.58 C 155.25 179.70 154.44 179.08 153.55 179.20 C 152.67 179.32 152.06 180.13 152.18 181.01 Z M 152.33 182.13 L 152.52 183.11 C 152.68 183.99 153.52 184.56 154.39 184.40 C 155.27 184.24 155.84 183.40 155.68 182.53 L 155.50 181.54 C 155.34 180.66 154.50 180.09 153.62 180.25 C 152.75 180.41 152.17 181.25 152.33 182.13 Z M 152.54 183.22 L 152.78 184.15 C 153.00 185.01 153.88 185.52 154.74 185.30 C 155.60 185.08 156.11 184.21 155.89 183.35 L 155.66 182.42 C 155.44 181.56 154.56 181.04 153.70 181.26 C 152.84 181.48 152.32 182.36 152.54 183.22 Z M 152.83 184.29 L 153.16 185.20 C 153.46 186.04 154.38 186.47 155.21 186.16 C 156.04 185.86 156.47 184.95 156.17 184.11 L 155.84 183.20 C 155.54 182.37 154.62 181.94 153.79 182.24 C 152.96 182.54 152.53 183.46 152.83 184.29 Z M 153.25 185.37 L 153.70 186.28 C 154.09 187.07 155.05 187.38 155.83 186.99 C 156.62 186.60 156.93 185.65 156.54 184.86 L 156.09 183.95 C 155.70 183.17 154.74 182.85 153.96 183.24 C 153.17 183.63 152.86 184.58 153.25 185.37 Z M 153.79 186.40 L 154.31 187.24 C 154.77 187.97 155.73 188.20 156.47 187.74 C 157.21 187.28 157.43 186.32 156.97 185.58 L 156.45 184.75 C 156.00 184.01 155.03 183.78 154.30 184.24 C 153.56 184.70 153.33 185.67 153.79 186.40 Z M 154.37 187.29 L 154.93 188.09 C 155.42 188.79 156.38 188.96 157.08 188.48 C 157.78 187.99 157.96 187.02 157.47 186.32 L 156.91 185.52 C 156.42 184.82 155.46 184.65 154.76 185.14 C 154.06 185.63 153.88 186.59 154.37 187.29 Z M 154.95 188.10 L 155.03 188.21 C 155.52 188.90 156.48 189.06 157.17 188.57 C 157.86 188.08 158.02 187.12 157.53 186.43 L 157.45 186.31 C 156.95 185.62 155.99 185.46 155.30 185.95 C 154.61 186.45 154.45 187.41 154.95 188.10 Z"
      fill="black"
      fill-rule="nonzero" /><path d="M 133.45 130.02 L 132.43 130.26 C 131.62 130.45 131.11 131.26 131.30 132.07 C 131.49 132.88 132.30 133.39 133.12 133.20 L 134.13 132.96 C 134.94 132.77 135.45 131.96 135.26 131.15 C 135.07 130.34 134.26 129.83 133.45 130.02 Z M 132.21 130.30 L 131.29 130.66 C 130.50 130.98 130.12 131.87 130.43 132.66 C 130.74 133.45 131.64 133.83 132.43 133.52 L 133.34 133.16 C 134.13 132.84 134.51 131.95 134.20 131.16 C 133.89 130.37 133.00 129.99 132.21 130.30 Z M 130.84 130.91 L 130.12 131.52 C 129.47 132.09 129.39 133.08 129.96 133.73 C 130.52 134.38 131.51 134.46 132.16 133.89 L 132.88 133.28 C 133.53 132.71 133.61 131.72 133.04 131.07 C 132.48 130.42 131.49 130.34 130.84 130.91 Z M 129.73 132.00 L 129.35 132.77 C 128.96 133.55 129.28 134.50 130.06 134.89 C 130.84 135.28 131.79 134.96 132.18 134.18 L 132.56 133.41 C 132.95 132.63 132.63 131.68 131.85 131.29 C 131.06 130.90 130.11 131.22 129.73 132.00 Z M 129.21 133.12 L 129.00 134.06 C 128.80 134.92 129.33 135.77 130.19 135.97 C 131.05 136.16 131.90 135.63 132.10 134.77 L 132.31 133.83 C 132.51 132.97 131.97 132.12 131.12 131.92 C 130.26 131.73 129.41 132.26 129.21 133.12 Z M 128.96 134.25 L 128.85 135.31 C 128.76 136.19 129.40 136.97 130.27 137.06 C 131.15 137.15 131.94 136.51 132.03 135.64 L 132.13 134.58 C 132.22 133.70 131.59 132.92 130.71 132.83 C 129.83 132.74 129.05 133.38 128.96 134.25 Z M 128.84 135.41 L 128.79 136.50 C 128.75 137.39 129.44 138.13 130.32 138.17 C 131.21 138.21 131.95 137.52 131.99 136.64 L 132.04 135.54 C 132.08 134.66 131.39 133.91 130.51 133.87 C 129.62 133.83 128.87 134.52 128.84 135.41 Z M 128.78 136.53 L 128.76 137.54 C 128.74 138.43 129.44 139.17 130.33 139.19 C 131.22 139.21 131.96 138.50 131.98 137.62 L 132.00 136.61 C 132.02 135.72 131.32 134.98 130.43 134.96 C 129.54 134.94 128.80 135.65 128.78 136.53 Z M 128.75 137.56 L 128.74 138.56 C 128.74 139.45 129.45 140.18 130.34 140.19 C 131.23 140.20 131.96 139.48 131.97 138.59 L 131.98 137.59 C 131.99 136.70 131.27 135.97 130.38 135.97 C 129.49 135.96 128.76 136.67 128.75 137.56 Z M 128.74 138.58 L 128.74 139.57 C 128.74 140.47 129.47 141.19 130.36 141.19 C 131.25 141.19 131.98 140.46 131.97 139.57 L 131.97 138.57 C 131.97 137.68 131.25 136.96 130.35 136.96 C 129.46 136.96 128.74 137.69 128.74 138.58 Z M 128.74 139.59 L 128.75 140.59 C 128.76 141.48 129.49 142.20 130.39 142.19 C 131.28 142.18 132.00 141.44 131.99 140.55 L 131.98 139.55 C 131.97 138.66 131.24 137.94 130.34 137.95 C 129.45 137.96 128.73 138.70 128.74 139.59 Z M 128.75 140.60 L 128.77 141.57 C 128.79 142.47 129.53 143.18 130.43 143.16 C 131.32 143.14 132.03 142.40 132.01 141.50 L 131.99 140.53 C 131.97 139.64 131.23 138.93 130.34 138.95 C 129.44 138.96 128.73 139.71 128.75 140.60 Z M 128.76 141.61 L 128.81 142.58 C 128.85 143.48 129.61 144.18 130.51 144.14 C 131.41 144.10 132.10 143.33 132.06 142.44 L 132.02 141.46 C 131.98 140.56 131.22 139.87 130.32 139.91 C 129.42 139.95 128.72 140.71 128.76 141.61 Z M 128.81 142.65 L 128.89 143.64 C 128.97 144.54 129.76 145.21 130.66 145.13 C 131.56 145.05 132.22 144.26 132.15 143.37 L 132.06 142.37 C 131.98 141.47 131.19 140.81 130.30 140.88 C 129.40 140.96 128.73 141.75 128.81 142.65 Z M 128.90 143.73 L 129.04 144.76 C 129.17 145.65 130.00 146.27 130.89 146.15 C 131.79 146.02 132.41 145.19 132.28 144.30 L 132.14 143.28 C 132.01 142.38 131.19 141.76 130.29 141.89 C 129.40 142.01 128.77 142.84 128.90 143.73 Z M 129.06 144.86 L 129.26 145.85 C 129.45 146.74 130.31 147.31 131.20 147.12 C 132.09 146.94 132.66 146.07 132.48 145.18 L 132.27 144.19 C 132.09 143.31 131.22 142.74 130.33 142.92 C 129.44 143.10 128.87 143.97 129.06 144.86 Z M 129.28 145.95 L 129.54 146.91 C 129.78 147.79 130.68 148.31 131.56 148.07 C 132.44 147.83 132.96 146.93 132.72 146.05 L 132.46 145.09 C 132.22 144.21 131.31 143.69 130.44 143.93 C 129.56 144.17 129.04 145.07 129.28 145.95 Z M 129.56 147.00 L 129.88 147.96 C 130.17 148.83 131.11 149.30 131.97 149.01 C 132.84 148.72 133.30 147.78 133.02 146.92 L 132.70 145.96 C 132.41 145.09 131.47 144.62 130.61 144.91 C 129.74 145.20 129.28 146.14 129.56 147.00 Z M 129.91 148.05 L 130.28 148.99 C 130.62 149.84 131.58 150.26 132.43 149.92 C 133.28 149.59 133.70 148.62 133.36 147.77 L 132.99 146.83 C 132.65 145.98 131.69 145.56 130.84 145.90 C 129.99 146.24 129.57 147.20 129.91 148.05 Z M 130.32 149.08 L 130.74 149.99 C 131.12 150.82 132.11 151.18 132.94 150.79 C 133.78 150.41 134.14 149.42 133.75 148.58 L 133.33 147.68 C 132.94 146.85 131.95 146.49 131.12 146.88 C 130.29 147.26 129.93 148.25 130.32 149.08 Z M 130.78 150.09 L 131.30 151.03 C 131.74 151.84 132.76 152.13 133.57 151.69 C 134.37 151.24 134.67 150.23 134.22 149.42 L 133.70 148.48 C 133.26 147.67 132.24 147.38 131.44 147.82 C 130.63 148.27 130.34 149.28 130.78 150.09 Z M 131.37 151.17 L 131.96 152.04 C 132.48 152.81 133.53 153.01 134.29 152.49 C 135.06 151.97 135.26 150.93 134.74 150.16 L 134.15 149.29 C 133.63 148.52 132.59 148.32 131.82 148.84 C 131.05 149.36 130.85 150.40 131.37 151.17 Z M 132.08 152.21 L 132.73 152.95 C 133.34 153.66 134.40 153.73 135.11 153.12 C 135.81 152.51 135.89 151.44 135.27 150.74 L 134.63 149.99 C 134.02 149.29 132.95 149.21 132.25 149.83 C 131.54 150.44 131.47 151.50 132.08 152.21 Z M 132.91 153.15 L 133.61 153.74 C 134.33 154.34 135.40 154.25 136.01 153.53 C 136.61 152.81 136.52 151.74 135.80 151.14 L 135.09 150.54 C 134.37 149.94 133.30 150.04 132.70 150.75 C 132.10 151.47 132.19 152.54 132.91 153.15 Z M 133.90 153.94 L 134.67 154.36 C 135.50 154.80 136.54 154.49 136.98 153.66 C 137.43 152.83 137.12 151.80 136.29 151.35 L 135.51 150.93 C 134.68 150.49 133.65 150.80 133.20 151.63 C 132.75 152.46 133.07 153.50 133.90 153.94 Z M 135.08 154.52 L 135.93 154.73 C 136.85 154.95 137.78 154.39 138.00 153.47 C 138.23 152.54 137.66 151.62 136.74 151.39 L 135.89 151.19 C 134.96 150.96 134.04 151.53 133.81 152.45 C 133.59 153.37 134.15 154.30 135.08 154.52 Z M 136.39 154.78 L 137.34 154.75 C 138.29 154.72 139.04 153.92 139.00 152.97 C 138.97 152.02 138.18 151.27 137.22 151.31 L 136.28 151.34 C 135.32 151.37 134.58 152.17 134.61 153.12 C 134.64 154.07 135.44 154.82 136.39 154.78 Z M 137.75 154.70 L 138.81 154.40 C 139.73 154.14 140.27 153.18 140.01 152.26 C 139.75 151.34 138.79 150.80 137.87 151.06 L 136.81 151.36 C 135.89 151.62 135.35 152.58 135.61 153.50 C 135.87 154.42 136.83 154.96 137.75 154.70 Z M 139.09 154.30 L 140.04 153.85 C 140.90 153.44 141.27 152.40 140.86 151.53 C 140.45 150.66 139.41 150.30 138.54 150.71 L 137.59 151.16 C 136.72 151.57 136.36 152.61 136.77 153.48 C 137.18 154.35 138.22 154.72 139.09 154.30 Z M 140.18 153.78 L 140.93 153.33 C 141.76 152.83 142.03 151.76 141.54 150.94 C 141.04 150.11 139.97 149.84 139.15 150.33 L 138.39 150.78 C 137.57 151.28 137.30 152.35 137.79 153.17 C 138.29 154.00 139.36 154.27 140.18 153.78 Z M 141.01 153.28 L 141.80 152.75 C 142.60 152.21 142.81 151.13 142.28 150.33 C 141.74 149.53 140.66 149.32 139.86 149.85 L 139.07 150.38 C 138.27 150.92 138.05 152.00 138.59 152.80 C 139.13 153.60 140.21 153.82 141.01 153.28 Z M 141.85 152.72 L 142.67 152.12 C 143.45 151.56 143.63 150.47 143.06 149.69 C 142.50 148.90 141.40 148.73 140.62 149.30 L 139.80 149.89 C 139.02 150.45 138.85 151.54 139.41 152.33 C 139.98 153.11 141.07 153.28 141.85 152.72 Z M 142.70 152.10 L 143.54 151.47 C 144.31 150.88 144.46 149.79 143.88 149.02 C 143.29 148.25 142.20 148.10 141.43 148.68 L 140.59 149.32 C 139.82 149.90 139.67 151.00 140.25 151.77 C 140.84 152.54 141.93 152.69 142.70 152.10 Z M 143.56 151.46 L 144.41 150.79 C 145.17 150.20 145.31 149.10 144.72 148.34 C 144.12 147.58 143.02 147.44 142.26 148.03 L 141.41 148.69 C 140.65 149.29 140.51 150.39 141.10 151.15 C 141.70 151.91 142.80 152.05 143.56 151.46 Z M 144.41 150.79 L 145.27 150.12 C 146.03 149.53 146.16 148.43 145.57 147.66 C 144.97 146.90 143.87 146.77 143.11 147.37 L 142.25 148.03 C 141.49 148.63 141.36 149.73 141.96 150.49 C 142.55 151.25 143.65 151.39 144.41 150.79 Z M 145.26 150.13 L 146.11 149.48 C 146.87 148.88 147.01 147.78 146.42 147.02 C 145.83 146.25 144.73 146.11 143.96 146.70 L 143.12 147.36 C 142.35 147.95 142.21 149.05 142.80 149.82 C 143.40 150.58 144.50 150.72 145.26 150.13 Z M 146.09 149.49 L 146.93 148.85 C 147.70 148.27 147.85 147.17 147.26 146.40 C 146.68 145.63 145.58 145.47 144.81 146.06 L 143.97 146.69 C 143.20 147.28 143.05 148.38 143.64 149.15 C 144.22 149.92 145.32 150.07 146.09 149.49 Z M 146.91 148.86 L 147.74 148.25 C 148.52 147.67 148.68 146.57 148.10 145.80 C 147.52 145.02 146.42 144.86 145.65 145.44 L 144.82 146.05 C 144.05 146.63 143.88 147.73 144.46 148.50 C 145.04 149.28 146.14 149.44 146.91 148.86 Z M 147.72 148.26 L 148.54 147.67 C 149.32 147.10 149.50 146.00 148.93 145.22 C 148.36 144.43 147.26 144.26 146.48 144.83 L 145.66 145.42 C 144.88 145.99 144.71 147.09 145.28 147.87 C 145.85 148.66 146.94 148.83 147.72 148.26 Z M 148.53 147.68 L 149.33 147.10 C 150.12 146.54 150.31 145.45 149.75 144.66 C 149.18 143.87 148.09 143.69 147.30 144.25 L 146.49 144.82 C 145.71 145.38 145.52 146.47 146.08 147.26 C 146.64 148.05 147.74 148.24 148.53 147.68 Z M 149.32 147.12 L 150.11 146.56 C 150.91 146.01 151.11 144.92 150.55 144.12 C 150.00 143.33 148.91 143.13 148.11 143.68 L 147.32 144.23 C 146.52 144.79 146.32 145.88 146.88 146.67 C 147.43 147.47 148.52 147.67 149.32 147.12 Z M 150.10 146.58 L 150.88 146.04 C 151.68 145.50 151.89 144.41 151.35 143.61 C 150.81 142.81 149.72 142.60 148.92 143.14 L 148.13 143.67 C 147.33 144.21 147.12 145.30 147.66 146.10 C 148.20 146.91 149.29 147.12 150.10 146.58 Z M 150.86 146.06 L 151.73 145.49 C 152.54 144.96 152.76 143.87 152.23 143.06 C 151.70 142.25 150.61 142.03 149.80 142.56 L 148.94 143.13 C 148.13 143.66 147.90 144.74 148.43 145.55 C 148.97 146.36 150.05 146.59 150.86 146.06 Z M 151.71 145.50 L 152.62 144.92 C 153.44 144.40 153.68 143.32 153.16 142.50 C 152.64 141.69 151.55 141.44 150.74 141.96 L 149.82 142.55 C 149.01 143.06 148.77 144.15 149.29 144.96 C 149.81 145.78 150.89 146.02 151.71 145.50 Z M 152.60 144.93 L 153.49 144.39 C 154.31 143.88 154.56 142.80 154.06 141.97 C 153.55 141.15 152.47 140.90 151.64 141.40 L 150.76 141.95 C 149.93 142.46 149.68 143.54 150.19 144.36 C 150.70 145.19 151.78 145.44 152.60 144.93 Z M 153.47 144.40 L 154.33 143.88 C 155.15 143.38 155.42 142.30 154.92 141.48 C 154.42 140.65 153.35 140.38 152.52 140.88 L 151.66 141.39 C 150.83 141.89 150.57 142.97 151.06 143.80 C 151.56 144.63 152.64 144.89 153.47 144.40 Z M 154.31 143.89 L 155.13 143.41 C 155.96 142.92 156.24 141.84 155.75 141.01 C 155.26 140.18 154.19 139.90 153.35 140.39 L 152.53 140.87 C 151.70 141.36 151.42 142.43 151.91 143.27 C 152.40 144.10 153.48 144.38 154.31 143.89 Z M 155.12 143.41 L 155.89 142.97 C 156.73 142.48 157.02 141.41 156.53 140.58 C 156.05 139.74 154.98 139.45 154.14 139.93 L 153.37 140.38 C 152.53 140.86 152.24 141.93 152.72 142.77 C 153.21 143.61 154.28 143.90 155.12 143.41 Z M 155.88 142.97 L 156.81 142.45 C 157.65 141.97 157.95 140.90 157.47 140.06 C 157.00 139.22 155.93 138.92 155.09 139.40 L 154.16 139.93 C 153.31 140.40 153.02 141.47 153.49 142.31 C 153.97 143.15 155.04 143.45 155.88 142.97 Z M 156.80 142.45 L 157.71 141.94 C 158.56 141.48 158.86 140.41 158.40 139.57 C 157.93 138.72 156.86 138.42 156.02 138.89 L 155.10 139.39 C 154.26 139.86 153.95 140.93 154.42 141.77 C 154.89 142.61 155.95 142.92 156.80 142.45 Z M 157.70 141.95 L 158.55 141.49 C 159.40 141.03 159.72 139.97 159.26 139.12 C 158.80 138.27 157.74 137.96 156.89 138.42 L 156.04 138.88 C 155.19 139.34 154.87 140.40 155.33 141.25 C 155.79 142.09 156.85 142.41 157.70 141.95 Z M 158.54 141.49 L 159.35 141.06 C 160.20 140.61 160.53 139.56 160.08 138.71 C 159.62 137.85 158.57 137.53 157.72 137.98 L 156.91 138.41 C 156.06 138.86 155.73 139.92 156.18 140.77 C 156.63 141.62 157.69 141.94 158.54 141.49 Z M 159.34 141.07 L 160.19 140.62 C 161.04 140.18 161.37 139.13 160.93 138.28 C 160.49 137.42 159.44 137.09 158.58 137.54 L 157.73 137.98 C 156.88 138.42 156.55 139.47 156.99 140.32 C 157.43 141.18 158.48 141.51 159.34 141.07 Z M 160.17 140.63 L 161.06 140.18 C 161.92 139.74 162.26 138.69 161.82 137.84 C 161.38 136.98 160.34 136.64 159.48 137.08 L 158.60 137.53 C 157.74 137.97 157.40 139.01 157.84 139.87 C 158.27 140.72 159.32 141.06 160.17 140.63 Z M 161.05 140.18 L 161.94 139.74 C 162.79 139.31 163.14 138.26 162.71 137.41 C 162.28 136.55 161.24 136.20 160.38 136.63 L 159.49 137.08 C 158.64 137.51 158.29 138.55 158.72 139.41 C 159.15 140.26 160.19 140.61 161.05 140.18 Z M 161.93 139.74 L 162.83 139.29 C 163.69 138.87 164.04 137.83 163.62 136.97 C 163.19 136.11 162.15 135.76 161.29 136.18 L 160.39 136.63 C 159.53 137.05 159.18 138.09 159.61 138.95 C 160.03 139.81 161.07 140.16 161.93 139.74 Z M 162.82 139.29 L 163.70 138.86 C 164.56 138.44 164.91 137.41 164.49 136.55 C 164.07 135.69 163.04 135.34 162.18 135.75 L 161.30 136.18 C 160.44 136.60 160.09 137.64 160.51 138.50 C 160.93 139.36 161.96 139.71 162.82 139.29 Z M 163.69 138.86 L 164.58 138.43 C 165.44 138.02 165.80 136.98 165.39 136.13 C 164.97 135.27 163.94 134.91 163.08 135.32 L 162.19 135.75 C 161.33 136.17 160.97 137.20 161.38 138.06 C 161.80 138.92 162.83 139.28 163.69 138.86 Z M 164.58 138.43 L 165.49 138.00 C 166.35 137.58 166.71 136.55 166.30 135.70 C 165.89 134.84 164.86 134.47 164.00 134.89 L 163.09 135.32 C 162.23 135.73 161.87 136.76 162.28 137.62 C 162.69 138.48 163.72 138.84 164.58 138.43 Z M 165.48 138.00 L 166.41 137.56 C 167.26 137.15 167.63 136.12 167.22 135.26 C 166.81 134.40 165.79 134.04 164.93 134.45 L 164.00 134.89 C 163.15 135.29 162.78 136.32 163.19 137.18 C 163.60 138.04 164.62 138.40 165.48 138.00 Z M 166.40 137.56 L 167.29 137.14 C 168.15 136.73 168.52 135.71 168.12 134.85 C 167.71 133.99 166.69 133.62 165.83 134.03 L 164.93 134.45 C 164.08 134.85 163.71 135.88 164.11 136.73 C 164.52 137.59 165.54 137.96 166.40 137.56 Z M 167.29 137.13 L 168.19 136.71 C 169.05 136.31 169.42 135.29 169.02 134.43 C 168.62 133.58 167.60 133.20 166.74 133.60 L 165.84 134.03 C 164.98 134.43 164.61 135.45 165.01 136.31 C 165.41 137.16 166.43 137.54 167.29 137.13 Z M 168.18 136.71 L 169.09 136.29 C 169.95 135.89 170.33 134.88 169.93 134.02 C 169.53 133.16 168.51 132.79 167.66 133.18 L 166.75 133.61 C 165.89 134.00 165.51 135.02 165.91 135.88 C 166.31 136.74 167.33 137.11 168.18 136.71 Z M 169.09 136.29 L 170.01 135.87 C 170.86 135.48 171.24 134.46 170.85 133.60 C 170.45 132.75 169.44 132.37 168.58 132.76 L 167.66 133.19 C 166.81 133.58 166.43 134.59 166.82 135.45 C 167.22 136.31 168.23 136.68 169.09 136.29 Z M 170.00 135.87 L 170.91 135.45 C 171.77 135.06 172.15 134.05 171.76 133.20 C 171.37 132.34 170.36 131.96 169.50 132.35 L 168.59 132.77 C 167.73 133.15 167.35 134.17 167.74 135.02 C 168.13 135.88 169.14 136.26 170.00 135.87 Z M 170.91 135.45 L 171.82 135.04 C 172.68 134.65 173.06 133.64 172.67 132.78 C 172.28 131.93 171.28 131.55 170.42 131.94 L 169.50 132.35 C 168.65 132.74 168.27 133.75 168.66 134.60 C 169.05 135.46 170.05 135.84 170.91 135.45 Z M 171.83 135.03 L 172.74 134.62 C 173.59 134.23 173.97 133.22 173.58 132.37 C 173.19 131.52 172.18 131.14 171.33 131.53 L 170.42 131.94 C 169.57 132.33 169.19 133.34 169.58 134.19 C 169.97 135.04 170.97 135.42 171.83 135.03 Z M 172.74 134.61 L 173.64 134.20 C 174.49 133.80 174.87 132.80 174.48 131.95 C 174.09 131.10 173.08 130.73 172.23 131.12 L 171.33 131.53 C 170.48 131.92 170.11 132.93 170.50 133.78 C 170.89 134.63 171.89 135.00 172.74 134.61 Z M 173.65 134.19 L 174.56 133.76 C 175.40 133.37 175.77 132.37 175.38 131.52 C 174.98 130.67 173.98 130.31 173.13 130.70 L 172.22 131.13 C 171.38 131.52 171.01 132.52 171.41 133.37 C 171.80 134.22 172.81 134.58 173.65 134.19 Z M 174.56 133.76 L 175.47 133.33 C 176.31 132.94 176.67 131.93 176.27 131.09 C 175.87 130.25 174.87 129.89 174.03 130.29 L 173.13 130.71 C 172.29 131.11 171.93 132.11 172.32 132.95 C 172.72 133.79 173.72 134.15 174.56 133.76 Z M 175.46 133.33 L 176.36 132.90 C 177.20 132.50 177.56 131.50 177.17 130.67 C 176.77 129.83 175.77 129.47 174.93 129.87 L 174.03 130.29 C 173.19 130.69 172.83 131.69 173.23 132.53 C 173.63 133.36 174.63 133.72 175.46 133.33 Z M 176.36 132.90 L 177.26 132.47 C 178.10 132.08 178.46 131.08 178.07 130.25 C 177.68 129.41 176.68 129.05 175.84 129.44 L 174.94 129.87 C 174.10 130.26 173.74 131.26 174.13 132.09 C 174.53 132.93 175.52 133.29 176.36 132.90 Z M 177.25 132.47 L 178.18 132.04 C 179.02 131.65 179.38 130.66 179.00 129.83 C 178.61 128.99 177.62 128.63 176.78 129.01 L 175.85 129.44 C 175.02 129.83 174.65 130.82 175.04 131.66 C 175.43 132.49 176.42 132.86 177.25 132.47 Z M 178.17 132.04 L 179.11 131.61 C 179.94 131.23 180.31 130.24 179.93 129.41 C 179.55 128.58 178.56 128.21 177.73 128.59 L 176.79 129.02 C 175.96 129.40 175.59 130.38 175.97 131.22 C 176.35 132.05 177.34 132.42 178.17 132.04 Z M 179.10 131.61 L 180.02 131.19 C 180.85 130.81 181.22 129.83 180.84 129.00 C 180.46 128.17 179.48 127.80 178.65 128.18 L 177.73 128.59 C 176.90 128.97 176.53 129.95 176.91 130.79 C 177.29 131.62 178.27 131.98 179.10 131.61 Z M 180.02 131.18 L 180.89 130.78 C 181.72 130.40 182.09 129.43 181.71 128.60 C 181.33 127.77 180.35 127.41 179.53 127.79 L 178.65 128.19 C 177.82 128.56 177.46 129.54 177.84 130.37 C 178.21 131.19 179.19 131.56 180.02 131.18 Z M 180.90 130.77 L 181.78 130.36 C 182.60 129.98 182.96 129.01 182.58 128.19 C 182.19 127.36 181.22 127.01 180.40 127.39 L 179.52 127.80 C 178.70 128.18 178.34 129.15 178.72 129.97 C 179.11 130.79 180.08 131.15 180.90 130.77 Z M 181.82 130.34 L 182.67 129.91 C 183.48 129.51 183.80 128.53 183.40 127.72 C 183.00 126.92 182.02 126.59 181.22 126.99 L 180.36 127.42 C 179.55 127.82 179.23 128.80 179.63 129.60 C 180.03 130.41 181.01 130.74 181.82 130.34 Z M 182.75 129.86 L 183.60 129.37 C 184.38 128.93 184.65 127.94 184.21 127.16 C 183.76 126.38 182.77 126.11 182.00 126.55 L 181.14 127.04 C 180.36 127.48 180.09 128.48 180.53 129.25 C 180.98 130.03 181.97 130.30 182.75 129.86 Z M 183.69 129.31 L 184.57 128.72 C 185.31 128.23 185.51 127.23 185.02 126.48 C 184.53 125.74 183.52 125.54 182.78 126.03 L 181.91 126.62 C 181.16 127.11 180.96 128.11 181.46 128.86 C 181.95 129.60 182.95 129.80 183.69 129.31 Z M 184.64 128.66 L 185.36 128.13 C 186.07 127.59 186.21 126.59 185.68 125.88 C 185.15 125.17 184.14 125.02 183.43 125.55 L 182.71 126.09 C 182.00 126.62 181.86 127.63 182.39 128.34 C 182.92 129.05 183.93 129.20 184.64 128.66 Z M 185.40 128.09 L 186.16 127.48 C 186.84 126.93 186.96 125.92 186.40 125.23 C 185.85 124.54 184.85 124.43 184.16 124.98 L 183.40 125.59 C 182.71 126.14 182.60 127.15 183.15 127.84 C 183.70 128.53 184.71 128.64 185.40 128.09 Z M 186.18 127.45 L 186.96 126.80 C 187.64 126.23 187.73 125.23 187.17 124.55 C 186.60 123.88 185.60 123.79 184.92 124.35 L 184.13 125.01 C 183.46 125.57 183.37 126.58 183.93 127.25 C 184.50 127.93 185.50 128.02 186.18 127.45 Z M 186.98 126.78 L 187.78 126.09 C 188.45 125.52 188.52 124.52 187.95 123.85 C 187.38 123.19 186.38 123.11 185.72 123.68 L 184.91 124.37 C 184.25 124.94 184.17 125.94 184.74 126.61 C 185.31 127.27 186.31 127.35 186.98 126.78 Z M 187.78 126.08 L 188.40 125.54 C 189.06 124.97 189.13 123.97 188.56 123.31 C 187.99 122.65 186.99 122.58 186.33 123.15 L 185.71 123.69 C 185.05 124.26 184.98 125.26 185.55 125.92 C 186.12 126.58 187.12 126.65 187.78 126.08 Z"
      fill="black"
      fill-rule="nonzero" /><path d="M 179.64 118.79 L 179.56 119.69 C 179.49 120.52 180.11 121.25 180.94 121.33 C 181.77 121.40 182.50 120.78 182.58 119.95 L 182.66 119.06 C 182.73 118.22 182.11 117.49 181.28 117.42 C 180.45 117.34 179.72 117.96 179.64 118.79 Z M 179.55 119.69 L 179.47 120.61 C 179.40 121.45 180.02 122.18 180.86 122.26 C 181.70 122.33 182.43 121.71 182.51 120.87 L 182.59 119.95 C 182.66 119.11 182.04 118.38 181.20 118.30 C 180.36 118.23 179.63 118.85 179.55 119.69 Z M 179.46 120.61 L 179.38 121.58 C 179.31 122.42 179.94 123.17 180.78 123.24 C 181.62 123.31 182.36 122.68 182.44 121.84 L 182.52 120.87 C 182.59 120.03 181.96 119.28 181.12 119.21 C 180.28 119.14 179.53 119.77 179.46 120.61 Z M 179.37 121.59 L 179.29 122.63 C 179.22 123.48 179.85 124.22 180.70 124.29 C 181.55 124.36 182.29 123.73 182.36 122.88 L 182.45 121.84 C 182.51 120.99 181.88 120.24 181.03 120.17 C 180.18 120.10 179.44 120.74 179.37 121.59 Z M 179.28 122.63 L 179.19 123.78 C 179.12 124.63 179.76 125.38 180.61 125.45 C 181.47 125.51 182.22 124.87 182.28 124.02 L 182.37 122.88 C 182.44 122.02 181.80 121.27 180.94 121.21 C 180.09 121.14 179.34 121.78 179.28 122.63 Z M 179.18 123.78 L 179.11 124.77 C 179.04 125.63 179.69 126.37 180.54 126.44 C 181.40 126.50 182.15 125.86 182.21 125.00 L 182.29 124.01 C 182.35 123.16 181.71 122.41 180.85 122.35 C 179.99 122.28 179.25 122.92 179.18 123.78 Z M 179.11 124.77 L 179.04 125.80 C 178.97 126.66 179.62 127.40 180.47 127.46 C 181.33 127.52 182.07 126.88 182.14 126.03 L 182.21 125.00 C 182.27 124.14 181.63 123.40 180.77 123.34 C 179.92 123.27 179.17 123.92 179.11 124.77 Z M 179.04 125.80 L 178.96 126.85 C 178.90 127.71 179.55 128.45 180.40 128.51 C 181.26 128.57 182.00 127.92 182.06 127.07 L 182.13 126.02 C 182.19 125.17 181.55 124.43 180.69 124.37 C 179.84 124.31 179.10 124.95 179.04 125.80 Z M 178.97 126.86 L 178.90 127.90 C 178.84 128.75 179.48 129.49 180.34 129.55 C 181.19 129.60 181.93 128.96 181.99 128.11 L 182.06 127.07 C 182.11 126.21 181.47 125.47 180.62 125.42 C 179.76 125.36 179.03 126.00 178.97 126.86 Z M 178.90 127.90 L 178.83 128.91 C 178.78 129.76 179.42 130.49 180.27 130.55 C 181.12 130.61 181.86 129.96 181.92 129.11 L 181.98 128.10 C 182.04 127.25 181.39 126.52 180.54 126.46 C 179.69 126.40 178.96 127.05 178.90 127.90 Z M 178.84 128.91 L 178.78 129.85 C 178.72 130.70 179.37 131.43 180.22 131.49 C 181.07 131.54 181.80 130.90 181.85 130.05 L 181.91 129.11 C 181.97 128.26 181.32 127.52 180.47 127.47 C 179.62 127.41 178.89 128.06 178.84 128.91 Z M 178.78 129.86 L 178.72 130.95 C 178.67 131.79 179.31 132.52 180.16 132.57 C 181.00 132.62 181.73 131.98 181.78 131.13 L 181.85 130.04 C 181.90 129.19 181.25 128.47 180.41 128.42 C 179.56 128.37 178.83 129.01 178.78 129.86 Z M 178.73 130.95 L 178.67 132.07 C 178.62 132.91 179.27 133.63 180.11 133.67 C 180.95 133.72 181.66 133.07 181.71 132.24 L 181.77 131.12 C 181.82 130.28 181.17 129.56 180.33 129.52 C 179.49 129.47 178.78 130.11 178.73 130.95 Z M 178.68 132.07 L 178.63 133.03 C 178.59 133.86 179.23 134.57 180.06 134.61 C 180.89 134.66 181.60 134.02 181.64 133.19 L 181.69 132.23 C 181.74 131.40 181.10 130.69 180.27 130.65 C 179.43 130.60 178.73 131.24 178.68 132.07 Z M 178.65 133.03 L 178.61 133.90 C 178.56 134.72 179.20 135.42 180.02 135.46 C 180.84 135.51 181.54 134.87 181.58 134.05 L 181.63 133.19 C 181.67 132.36 181.04 131.66 180.22 131.62 C 179.39 131.58 178.69 132.21 178.65 133.03 Z M 178.62 133.89 L 178.57 134.79 C 178.52 135.61 179.14 136.31 179.96 136.35 C 180.77 136.40 181.47 135.78 181.52 134.96 L 181.57 134.06 C 181.62 133.24 180.99 132.55 180.18 132.50 C 179.37 132.45 178.67 133.08 178.62 133.89 Z M 178.58 134.78 L 178.51 135.78 C 178.46 136.59 179.07 137.28 179.88 137.34 C 180.69 137.39 181.39 136.78 181.44 135.97 L 181.51 134.97 C 181.56 134.17 180.95 133.47 180.14 133.41 C 179.33 133.36 178.63 133.97 178.58 134.78 Z M 178.52 135.77 L 178.45 136.77 C 178.39 137.58 179.00 138.27 179.80 138.33 C 180.61 138.39 181.30 137.78 181.36 136.98 L 181.43 135.98 C 181.49 135.17 180.88 134.47 180.08 134.42 C 179.28 134.36 178.58 134.97 178.52 135.77 Z M 178.46 136.77 L 178.39 137.77 C 178.33 138.57 178.92 139.26 179.72 139.32 C 180.52 139.38 181.22 138.78 181.28 137.98 L 181.35 136.98 C 181.41 136.18 180.81 135.49 180.01 135.43 C 179.22 135.37 178.52 135.97 178.46 136.77 Z M 178.39 137.77 L 178.31 138.78 C 178.25 139.57 178.85 140.27 179.64 140.33 C 180.44 140.39 181.13 139.79 181.19 139.00 L 181.27 137.99 C 181.33 137.19 180.74 136.50 179.94 136.44 C 179.15 136.38 178.45 136.97 178.39 137.77 Z M 178.32 138.77 L 178.24 139.77 C 178.18 140.56 178.77 141.26 179.56 141.32 C 180.35 141.39 181.05 140.79 181.11 140.00 L 181.19 139.00 C 181.25 138.21 180.66 137.51 179.87 137.45 C 179.08 137.39 178.38 137.98 178.32 138.77 Z M 178.24 139.76 L 178.16 140.75 C 178.09 141.54 178.67 142.24 179.46 142.31 C 180.25 142.37 180.95 141.79 181.02 141.00 L 181.11 140.01 C 181.17 139.22 180.59 138.52 179.80 138.46 C 179.01 138.39 178.31 138.97 178.24 139.76 Z M 178.16 140.74 L 178.07 141.73 C 177.99 142.52 178.56 143.22 179.35 143.30 C 180.14 143.37 180.84 142.80 180.92 142.01 L 181.01 141.01 C 181.09 140.23 180.52 139.53 179.73 139.45 C 178.94 139.37 178.24 139.95 178.16 140.74 Z M 178.07 141.72 L 177.96 142.72 C 177.88 143.51 178.45 144.21 179.23 144.29 C 180.02 144.38 180.72 143.81 180.81 143.03 L 180.91 142.02 C 181.00 141.24 180.43 140.53 179.64 140.45 C 178.86 140.36 178.15 140.93 178.07 141.72 Z M 177.96 142.72 L 177.86 143.71 C 177.77 144.49 178.33 145.20 179.12 145.28 C 179.90 145.37 180.61 144.80 180.69 144.02 L 180.80 143.03 C 180.89 142.24 180.32 141.54 179.54 141.45 C 178.76 141.37 178.05 141.93 177.96 142.72 Z M 177.86 143.71 L 177.75 144.70 C 177.67 145.48 178.24 146.18 179.02 146.27 C 179.81 146.35 180.51 145.78 180.59 145.00 L 180.69 144.01 C 180.78 143.23 180.21 142.53 179.42 142.44 C 178.64 142.36 177.94 142.93 177.86 143.71 Z M 177.75 144.71 L 177.66 145.71 C 177.58 146.50 178.16 147.19 178.94 147.27 C 179.72 147.34 180.42 146.77 180.50 145.99 L 180.59 144.98 C 180.67 144.20 180.09 143.50 179.31 143.43 C 178.52 143.35 177.83 143.93 177.75 144.71 Z M 177.66 145.72 L 177.57 146.72 C 177.50 147.50 178.08 148.19 178.86 148.26 C 179.65 148.33 180.34 147.75 180.41 146.97 L 180.50 145.97 C 180.56 145.19 179.99 144.50 179.20 144.43 C 178.42 144.36 177.72 144.94 177.66 145.72 Z M 177.57 146.72 L 177.48 147.71 C 177.42 148.50 178.00 149.19 178.79 149.25 C 179.57 149.32 180.26 148.74 180.33 147.95 L 180.41 146.96 C 180.47 146.18 179.89 145.49 179.11 145.42 C 178.32 145.36 177.63 145.94 177.57 146.72 Z M 177.48 147.72 L 177.48 147.78 C 177.41 148.56 178.00 149.25 178.78 149.32 C 179.57 149.38 180.25 148.80 180.32 148.01 L 180.33 147.95 C 180.39 147.17 179.81 146.48 179.02 146.41 C 178.24 146.35 177.55 146.93 177.48 147.72 Z"
      fill="black"
      fill-rule="nonzero" /><path d="M 131.54 177.30 L 131.84 178.16 C 132.15 179.04 133.12 179.50 133.99 179.19 C 134.87 178.88 135.33 177.92 135.02 177.04 L 134.72 176.17 C 134.41 175.30 133.44 174.84 132.57 175.15 C 131.69 175.46 131.23 176.42 131.54 177.30 Z M 131.82 178.11 L 132.10 179.02 C 132.38 179.91 133.33 180.41 134.23 180.13 C 135.12 179.85 135.61 178.90 135.33 178.00 L 135.05 177.10 C 134.77 176.20 133.82 175.71 132.93 175.99 C 132.03 176.27 131.54 177.22 131.82 178.11 Z M 132.06 178.92 L 132.31 179.91 C 132.53 180.82 133.45 181.38 134.37 181.16 C 135.28 180.93 135.84 180.01 135.62 179.10 L 135.37 178.11 C 135.15 177.19 134.23 176.63 133.31 176.86 C 132.40 177.08 131.84 178.00 132.06 178.92 Z M 132.27 179.78 L 132.45 180.85 C 132.60 181.78 133.48 182.42 134.41 182.27 C 135.34 182.11 135.98 181.23 135.83 180.30 L 135.65 179.23 C 135.50 178.30 134.62 177.66 133.69 177.82 C 132.75 177.97 132.12 178.85 132.27 179.78 Z M 132.43 180.74 L 132.52 181.67 C 132.60 182.61 133.44 183.31 134.39 183.22 C 135.33 183.13 136.02 182.29 135.93 181.35 L 135.85 180.41 C 135.76 179.47 134.92 178.78 133.97 178.87 C 133.03 178.96 132.34 179.79 132.43 180.74 Z M 132.51 181.60 L 132.56 182.59 C 132.60 183.54 133.41 184.27 134.36 184.22 C 135.31 184.17 136.04 183.36 136.00 182.41 L 135.94 181.42 C 135.90 180.47 135.09 179.74 134.14 179.79 C 133.19 179.84 132.46 180.65 132.51 181.60 Z M 132.55 182.53 L 132.57 183.56 C 132.59 184.51 133.38 185.27 134.33 185.25 C 135.28 185.23 136.04 184.45 136.02 183.49 L 136.00 182.47 C 135.98 181.51 135.20 180.75 134.24 180.77 C 133.29 180.79 132.53 181.58 132.55 182.53 Z M 132.56 183.52 L 132.56 184.56 C 132.56 185.52 133.33 186.29 134.29 186.30 C 135.24 186.30 136.02 185.53 136.02 184.57 L 136.03 183.53 C 136.03 182.58 135.26 181.80 134.30 181.80 C 133.35 181.79 132.57 182.56 132.56 183.52 Z M 132.56 184.53 L 132.54 185.55 C 132.52 186.51 133.28 187.31 134.24 187.33 C 135.20 187.34 135.99 186.58 136.01 185.62 L 136.03 184.60 C 136.05 183.64 135.29 182.85 134.33 182.83 C 133.37 182.81 132.58 183.57 132.56 184.53 Z M 132.53 185.53 L 132.50 186.59 C 132.47 187.55 133.22 188.36 134.18 188.39 C 135.14 188.42 135.95 187.67 135.98 186.71 L 136.01 185.65 C 136.04 184.68 135.29 183.88 134.33 183.85 C 133.37 183.82 132.56 184.57 132.53 185.53 Z M 132.49 186.56 L 132.44 187.59 C 132.40 188.55 133.14 189.37 134.10 189.41 C 135.06 189.46 135.88 188.72 135.93 187.76 L 135.98 186.74 C 136.03 185.77 135.29 184.95 134.32 184.91 C 133.36 184.86 132.54 185.60 132.49 186.56 Z M 132.44 187.55 L 132.37 188.54 C 132.30 189.50 133.03 190.34 134.00 190.40 C 134.96 190.47 135.80 189.75 135.86 188.78 L 135.93 187.79 C 136.00 186.83 135.27 185.99 134.31 185.93 C 133.35 185.86 132.51 186.58 132.44 187.55 Z M 132.37 188.49 L 132.28 189.45 C 132.19 190.41 132.89 191.27 133.86 191.36 C 134.82 191.46 135.68 190.75 135.77 189.78 L 135.86 188.83 C 135.96 187.86 135.25 187.00 134.29 186.91 C 133.32 186.82 132.46 187.53 132.37 188.49 Z M 132.28 189.40 L 132.16 190.32 C 132.04 191.28 132.72 192.16 133.69 192.28 C 134.65 192.41 135.53 191.72 135.65 190.76 L 135.77 189.84 C 135.89 188.87 135.21 187.99 134.25 187.87 C 133.28 187.75 132.40 188.43 132.28 189.40 Z M 132.17 190.26 L 132.03 191.15 C 131.87 192.11 132.53 193.01 133.49 193.16 C 134.45 193.32 135.35 192.66 135.51 191.70 L 135.65 190.82 C 135.80 189.86 135.15 188.95 134.19 188.80 C 133.23 188.65 132.32 189.30 132.17 190.26 Z M 132.03 191.09 L 131.86 192.00 C 131.68 192.96 132.30 193.88 133.26 194.07 C 134.22 194.25 135.14 193.62 135.33 192.66 L 135.50 191.76 C 135.68 190.80 135.06 189.87 134.10 189.69 C 133.14 189.51 132.22 190.13 132.03 191.09 Z M 131.87 191.95 L 131.65 192.92 C 131.44 193.87 132.05 194.81 133.00 195.02 C 133.95 195.23 134.90 194.63 135.11 193.68 L 135.32 192.71 C 135.53 191.76 134.93 190.82 133.97 190.61 C 133.02 190.40 132.08 191.00 131.87 191.95 Z M 131.66 192.88 L 131.40 193.93 C 131.17 194.88 131.76 195.84 132.71 196.07 C 133.66 196.30 134.61 195.72 134.84 194.77 L 135.10 193.72 C 135.33 192.77 134.75 191.81 133.80 191.58 C 132.85 191.34 131.89 191.93 131.66 192.88 Z M 131.41 193.90 L 131.12 195.02 C 130.87 195.97 131.44 196.94 132.39 197.18 C 133.33 197.43 134.30 196.86 134.55 195.91 L 134.84 194.80 C 135.09 193.85 134.52 192.88 133.57 192.63 C 132.62 192.39 131.65 192.95 131.41 193.90 Z M 131.12 195.01 L 130.83 196.08 C 130.58 197.03 131.14 198.00 132.09 198.25 C 133.04 198.51 134.01 197.94 134.26 197.00 L 134.55 195.92 C 134.80 194.98 134.24 194.00 133.29 193.75 C 132.34 193.50 131.37 194.06 131.12 195.01 Z M 130.83 196.10 L 130.55 197.20 C 130.30 198.15 130.87 199.11 131.82 199.36 C 132.77 199.60 133.74 199.03 133.99 198.08 L 134.27 196.98 C 134.51 196.03 133.94 195.06 132.99 194.82 C 132.04 194.57 131.07 195.15 130.83 196.10 Z M 130.53 197.24 L 130.29 198.31 C 130.06 199.26 130.66 200.22 131.61 200.44 C 132.57 200.66 133.53 200.07 133.75 199.11 L 134.00 198.04 C 134.22 197.08 133.62 196.13 132.67 195.91 C 131.71 195.68 130.76 196.28 130.53 197.24 Z M 130.27 198.38 L 130.09 199.37 C 129.91 200.33 130.54 201.26 131.51 201.44 C 132.47 201.62 133.40 200.98 133.58 200.02 L 133.77 199.03 C 133.94 198.07 133.31 197.14 132.34 196.96 C 131.38 196.78 130.45 197.42 130.27 198.38 Z M 130.06 199.51 L 129.98 200.35 C 129.88 201.33 130.59 202.20 131.57 202.30 C 132.54 202.40 133.42 201.69 133.52 200.71 L 133.60 199.87 C 133.70 198.89 132.99 198.02 132.02 197.92 C 131.04 197.82 130.16 198.53 130.06 199.51 Z M 129.98 200.73 L 130.07 201.53 C 130.17 202.51 131.05 203.21 132.03 203.10 C 133.01 203.00 133.71 202.12 133.61 201.14 L 133.52 200.34 C 133.41 199.36 132.53 198.65 131.55 198.76 C 130.58 198.87 129.87 199.75 129.98 200.73 Z M 130.65 202.66 L 131.22 203.18 C 131.96 203.84 133.08 203.78 133.74 203.05 C 134.40 202.31 134.34 201.19 133.60 200.53 L 133.03 200.01 C 132.29 199.35 131.17 199.41 130.51 200.14 C 129.85 200.88 129.91 202.00 130.65 202.66 Z M 132.54 203.63 L 133.51 203.56 C 134.49 203.49 135.23 202.64 135.16 201.66 C 135.09 200.68 134.23 199.94 133.25 200.01 L 132.29 200.08 C 131.30 200.15 130.57 201.00 130.64 201.98 C 130.71 202.96 131.56 203.70 132.54 203.63 Z M 133.89 203.49 L 134.92 203.18 C 135.86 202.90 136.40 201.90 136.11 200.96 C 135.83 200.02 134.84 199.49 133.89 199.77 L 132.87 200.08 C 131.92 200.36 131.39 201.36 131.67 202.30 C 131.96 203.24 132.95 203.77 133.89 203.49 Z M 135.00 203.16 L 135.87 202.85 C 136.80 202.52 137.29 201.51 136.96 200.58 C 136.64 199.65 135.62 199.16 134.69 199.49 L 133.82 199.79 C 132.89 200.12 132.40 201.14 132.73 202.06 C 133.05 202.99 134.07 203.48 135.00 203.16 Z M 135.90 202.84 L 136.82 202.50 C 137.75 202.16 138.22 201.14 137.88 200.21 C 137.54 199.29 136.52 198.82 135.60 199.16 L 134.67 199.50 C 133.74 199.84 133.27 200.86 133.61 201.78 C 133.95 202.71 134.97 203.18 135.90 202.84 Z M 136.83 202.50 L 137.81 202.14 C 138.73 201.80 139.20 200.77 138.86 199.85 C 138.52 198.93 137.50 198.45 136.58 198.79 L 135.59 199.16 C 134.67 199.50 134.20 200.52 134.54 201.44 C 134.88 202.37 135.90 202.84 136.83 202.50 Z M 137.79 202.14 L 138.80 201.78 C 139.73 201.45 140.21 200.43 139.88 199.50 C 139.55 198.58 138.53 198.09 137.60 198.43 L 136.59 198.79 C 135.67 199.12 135.18 200.14 135.52 201.07 C 135.85 201.99 136.87 202.47 137.79 202.14 Z M 138.78 201.79 L 139.68 201.48 C 140.61 201.16 141.10 200.15 140.78 199.22 C 140.46 198.29 139.45 197.79 138.52 198.11 L 137.62 198.42 C 136.69 198.74 136.20 199.75 136.52 200.68 C 136.84 201.61 137.85 202.11 138.78 201.79 Z M 139.66 201.49 L 140.59 201.18 C 141.52 200.87 142.03 199.86 141.72 198.93 C 141.41 198.00 140.40 197.49 139.47 197.80 L 138.54 198.10 C 137.61 198.41 137.10 199.42 137.41 200.35 C 137.72 201.29 138.72 201.80 139.66 201.49 Z M 140.57 201.18 L 141.53 200.88 C 142.47 200.58 142.98 199.57 142.68 198.64 C 142.38 197.70 141.38 197.18 140.44 197.48 L 139.48 197.79 C 138.55 198.09 138.03 199.10 138.33 200.03 C 138.63 200.97 139.63 201.48 140.57 201.18 Z M 141.52 200.88 L 142.50 200.57 C 143.44 200.28 143.96 199.28 143.67 198.34 C 143.38 197.40 142.38 196.88 141.44 197.17 L 140.45 197.48 C 139.52 197.77 138.99 198.77 139.29 199.71 C 139.58 200.65 140.58 201.17 141.52 200.88 Z M 142.49 200.58 L 143.49 200.27 C 144.43 199.98 144.96 198.99 144.68 198.04 C 144.39 197.10 143.39 196.58 142.45 196.86 L 141.45 197.17 C 140.51 197.46 139.98 198.46 140.27 199.40 C 140.55 200.34 141.55 200.87 142.49 200.58 Z M 143.49 200.27 L 144.51 199.96 C 145.45 199.68 145.98 198.69 145.70 197.74 C 145.41 196.80 144.42 196.27 143.48 196.55 L 142.46 196.86 C 141.52 197.15 140.98 198.14 141.27 199.08 C 141.55 200.02 142.54 200.56 143.49 200.27 Z M 144.50 199.97 L 145.51 199.67 C 146.46 199.38 146.99 198.39 146.71 197.45 C 146.43 196.51 145.44 195.97 144.50 196.25 L 143.48 196.55 C 142.54 196.83 142.00 197.82 142.28 198.77 C 142.56 199.71 143.56 200.25 144.50 199.97 Z M 145.51 199.67 L 146.49 199.38 C 147.44 199.10 147.98 198.11 147.70 197.16 C 147.42 196.22 146.43 195.68 145.49 195.96 L 144.50 196.25 C 143.56 196.53 143.02 197.52 143.29 198.46 C 143.57 199.41 144.56 199.95 145.51 199.67 Z M 146.49 199.38 L 147.42 199.11 C 148.37 198.83 148.91 197.84 148.64 196.90 C 148.36 195.95 147.37 195.41 146.43 195.68 L 145.49 195.96 C 144.55 196.23 144.00 197.22 144.28 198.17 C 144.55 199.11 145.54 199.65 146.49 199.38 Z M 147.42 199.11 L 148.28 198.86 C 149.23 198.59 149.78 197.60 149.50 196.65 C 149.23 195.71 148.24 195.16 147.30 195.43 L 146.43 195.68 C 145.49 195.95 144.94 196.94 145.21 197.89 C 145.48 198.83 146.47 199.38 147.42 199.11 Z M 148.28 198.86 L 149.34 198.56 C 150.29 198.29 150.84 197.30 150.57 196.36 C 150.30 195.41 149.32 194.86 148.37 195.13 L 147.31 195.43 C 146.36 195.70 145.81 196.69 146.08 197.63 C 146.35 198.58 147.33 199.13 148.28 198.86 Z M 149.33 198.56 L 150.31 198.29 C 151.26 198.03 151.81 197.04 151.55 196.10 C 151.29 195.15 150.31 194.59 149.36 194.85 L 148.38 195.13 C 147.43 195.39 146.88 196.37 147.14 197.32 C 147.40 198.27 148.38 198.82 149.33 198.56 Z M 150.30 198.29 L 151.19 198.05 C 152.14 197.80 152.70 196.82 152.45 195.87 C 152.19 194.92 151.21 194.36 150.26 194.61 L 149.37 194.85 C 148.42 195.11 147.86 196.09 148.11 197.04 C 148.37 197.99 149.35 198.55 150.30 198.29 Z M 151.18 198.06 L 152.06 197.82 C 153.01 197.58 153.58 196.60 153.33 195.65 C 153.08 194.70 152.11 194.13 151.16 194.38 L 150.27 194.61 C 149.32 194.86 148.75 195.83 149.00 196.78 C 149.25 197.74 150.22 198.31 151.18 198.06 Z M 152.05 197.83 L 152.99 197.59 C 153.95 197.34 154.52 196.37 154.27 195.41 C 154.03 194.46 153.06 193.89 152.10 194.13 L 151.17 194.37 C 150.21 194.62 149.64 195.59 149.88 196.55 C 150.13 197.50 151.10 198.07 152.05 197.83 Z M 152.99 197.58 L 153.96 197.33 C 154.92 197.09 155.49 196.11 155.24 195.16 C 155.00 194.21 154.03 193.64 153.07 193.88 L 152.10 194.13 C 151.15 194.38 150.58 195.35 150.82 196.31 C 151.07 197.26 152.04 197.83 152.99 197.58 Z M 153.97 197.33 L 154.99 197.06 C 155.94 196.81 156.50 195.84 156.25 194.88 C 156.00 193.93 155.02 193.37 154.07 193.62 L 153.06 193.88 C 152.11 194.14 151.54 195.11 151.80 196.06 C 152.05 197.02 153.02 197.58 153.97 197.33 Z M 155.00 197.06 L 155.94 196.80 C 156.89 196.54 157.45 195.56 157.20 194.61 C 156.94 193.66 155.96 193.10 155.01 193.36 L 154.06 193.62 C 153.11 193.88 152.55 194.86 152.81 195.81 C 153.07 196.76 154.05 197.32 155.00 197.06 Z M 155.95 196.80 L 156.92 196.53 C 157.87 196.27 158.42 195.29 158.16 194.34 C 157.90 193.39 156.92 192.84 155.97 193.10 L 155.00 193.36 C 154.05 193.63 153.50 194.61 153.76 195.56 C 154.02 196.50 155.00 197.06 155.95 196.80 Z M 156.91 196.53 L 157.89 196.27 C 158.84 196.01 159.40 195.03 159.14 194.08 C 158.88 193.13 157.90 192.57 156.95 192.83 L 155.98 193.10 C 155.03 193.35 154.47 194.33 154.72 195.28 C 154.98 196.23 155.96 196.79 156.91 196.53 Z M 157.87 196.27 L 158.85 196.02 C 159.80 195.77 160.37 194.80 160.12 193.84 C 159.87 192.89 158.90 192.32 157.94 192.57 L 156.97 192.83 C 156.02 193.07 155.45 194.05 155.70 195.00 C 155.95 195.95 156.92 196.52 157.87 196.27 Z M 158.83 196.02 L 159.80 195.78 C 160.75 195.54 161.33 194.58 161.10 193.62 C 160.86 192.67 159.89 192.09 158.94 192.32 L 157.96 192.57 C 157.01 192.80 156.43 193.77 156.67 194.73 C 156.90 195.68 157.87 196.26 158.83 196.02 Z M 159.78 195.79 L 160.75 195.55 C 161.71 195.32 162.29 194.36 162.06 193.40 C 161.83 192.45 160.87 191.86 159.91 192.09 L 158.95 192.32 C 157.99 192.55 157.40 193.51 157.63 194.47 C 157.86 195.43 158.83 196.02 159.78 195.79 Z M 160.75 195.55 L 161.72 195.32 C 162.67 195.09 163.26 194.13 163.04 193.18 C 162.81 192.22 161.85 191.63 160.89 191.86 L 159.92 192.09 C 158.96 192.32 158.37 193.28 158.60 194.23 C 158.83 195.19 159.79 195.78 160.75 195.55 Z M 161.72 195.32 L 162.68 195.09 C 163.64 194.86 164.22 193.90 163.99 192.94 C 163.76 191.98 162.80 191.40 161.84 191.63 L 160.88 191.86 C 159.93 192.09 159.34 193.05 159.57 194.01 C 159.80 194.96 160.77 195.55 161.72 195.32 Z M 162.69 195.09 L 163.65 194.85 C 164.60 194.61 165.19 193.65 164.95 192.69 C 164.71 191.74 163.75 191.16 162.79 191.39 L 161.83 191.63 C 160.88 191.87 160.30 192.83 160.53 193.78 C 160.77 194.74 161.73 195.32 162.69 195.09 Z M 163.66 194.85 L 164.63 194.60 C 165.59 194.36 166.16 193.39 165.92 192.44 C 165.68 191.48 164.71 190.91 163.76 191.15 L 162.79 191.40 C 161.83 191.64 161.26 192.60 161.50 193.56 C 161.74 194.51 162.71 195.09 163.66 194.85 Z M 164.64 194.60 L 165.63 194.34 C 166.58 194.09 167.15 193.12 166.90 192.17 C 166.66 191.22 165.69 190.65 164.74 190.90 L 163.75 191.15 C 162.80 191.40 162.23 192.37 162.48 193.32 C 162.72 194.27 163.69 194.84 164.64 194.60 Z M 165.64 194.34 L 166.60 194.08 C 167.54 193.83 168.11 192.86 167.86 191.91 C 167.61 190.96 166.63 190.39 165.68 190.65 L 164.73 190.90 C 163.78 191.15 163.21 192.13 163.47 193.07 C 163.72 194.02 164.69 194.59 165.64 194.34 Z M 166.60 194.08 L 167.56 193.82 C 168.51 193.56 169.07 192.59 168.82 191.64 C 168.56 190.70 167.59 190.13 166.64 190.39 L 165.68 190.65 C 164.73 190.90 164.17 191.88 164.43 192.83 C 164.68 193.77 165.66 194.33 166.60 194.08 Z M 167.57 193.82 L 168.54 193.55 C 169.48 193.30 170.04 192.32 169.78 191.38 C 169.52 190.43 168.55 189.87 167.60 190.13 L 166.63 190.39 C 165.69 190.65 165.13 191.62 165.39 192.57 C 165.65 193.52 166.62 194.07 167.57 193.82 Z M 168.54 193.55 L 169.51 193.29 C 170.46 193.03 171.01 192.05 170.76 191.11 C 170.50 190.16 169.53 189.61 168.58 189.86 L 167.60 190.13 C 166.66 190.39 166.10 191.36 166.36 192.31 C 166.62 193.25 167.59 193.81 168.54 193.55 Z M 169.51 193.29 L 170.48 193.02 C 171.42 192.77 171.98 191.80 171.73 190.85 C 171.47 189.91 170.50 189.35 169.55 189.60 L 168.58 189.87 C 167.64 190.12 167.08 191.09 167.34 192.04 C 167.59 192.98 168.56 193.54 169.51 193.29 Z M 170.48 193.02 L 171.45 192.76 C 172.39 192.51 172.95 191.53 172.69 190.59 C 172.44 189.65 171.47 189.09 170.53 189.34 L 169.56 189.60 C 168.61 189.86 168.05 190.83 168.31 191.77 C 168.56 192.72 169.53 193.28 170.48 193.02 Z M 171.45 192.76 L 172.41 192.50 C 173.36 192.24 173.91 191.27 173.66 190.33 C 173.40 189.39 172.43 188.83 171.49 189.08 L 170.52 189.35 C 169.58 189.60 169.03 190.57 169.28 191.51 C 169.54 192.46 170.51 193.01 171.45 192.76 Z M 172.42 192.49 L 173.38 192.23 C 174.32 191.97 174.87 191.00 174.61 190.06 C 174.36 189.12 173.39 188.57 172.45 188.83 L 171.49 189.09 C 170.55 189.34 169.99 190.31 170.25 191.26 C 170.51 192.20 171.48 192.75 172.42 192.49 Z M 173.38 192.23 L 174.35 191.96 C 175.29 191.70 175.84 190.73 175.57 189.79 C 175.31 188.85 174.34 188.30 173.41 188.56 L 172.44 188.83 C 171.50 189.09 170.95 190.06 171.21 191.00 C 171.47 191.94 172.44 192.49 173.38 192.23 Z M 174.35 191.95 L 175.31 191.69 C 176.25 191.42 176.79 190.45 176.53 189.52 C 176.27 188.58 175.30 188.03 174.36 188.30 L 173.40 188.57 C 172.47 188.83 171.92 189.80 172.18 190.73 C 172.44 191.67 173.42 192.22 174.35 191.95 Z M 175.31 191.68 L 176.27 191.41 C 177.20 191.15 177.75 190.18 177.49 189.25 C 177.22 188.31 176.25 187.77 175.32 188.03 L 174.36 188.30 C 173.43 188.56 172.88 189.53 173.14 190.47 C 173.41 191.40 174.38 191.95 175.31 191.68 Z M 176.26 191.41 L 177.23 191.14 C 178.16 190.88 178.71 189.92 178.45 188.98 C 178.19 188.05 177.22 187.50 176.29 187.76 L 175.32 188.03 C 174.39 188.29 173.84 189.26 174.10 190.19 C 174.36 191.13 175.33 191.67 176.26 191.41 Z M 177.23 191.14 L 178.12 190.90 C 179.06 190.64 179.61 189.68 179.35 188.74 C 179.09 187.81 178.13 187.26 177.20 187.52 L 176.30 187.77 C 175.36 188.02 174.82 188.99 175.07 189.92 C 175.33 190.85 176.29 191.40 177.23 191.14 Z M 178.13 190.89 L 179.05 190.64 C 179.98 190.38 180.52 189.42 180.27 188.49 C 180.01 187.56 179.05 187.01 178.12 187.27 L 177.19 187.52 C 176.26 187.78 175.72 188.74 175.98 189.67 C 176.23 190.60 177.20 191.15 178.13 190.89 Z M 179.06 190.63 L 180.02 190.36 C 180.95 190.09 181.48 189.13 181.22 188.20 C 180.96 187.28 179.99 186.74 179.07 187.00 L 178.11 187.28 C 177.18 187.54 176.64 188.50 176.90 189.43 C 177.17 190.35 178.13 190.89 179.06 190.63 Z M 180.04 190.35 L 181.06 190.04 C 181.98 189.77 182.50 188.80 182.23 187.88 C 181.96 186.96 180.99 186.44 180.07 186.71 L 179.05 187.01 C 178.13 187.28 177.60 188.25 177.88 189.17 C 178.15 190.09 179.12 190.62 180.04 190.35 Z M 181.08 190.03 L 182.07 189.72 C 182.99 189.44 183.50 188.47 183.21 187.55 C 182.93 186.64 181.96 186.13 181.04 186.41 L 180.05 186.72 C 179.13 187.00 178.62 187.98 178.91 188.89 C 179.19 189.81 180.17 190.32 181.08 190.03 Z M 182.10 189.71 L 183.07 189.39 C 183.98 189.09 184.47 188.12 184.17 187.21 C 183.87 186.30 182.89 185.81 181.99 186.11 L 181.02 186.42 C 180.11 186.72 179.62 187.70 179.91 188.61 C 180.21 189.52 181.19 190.01 182.10 189.71 Z M 183.10 189.38 L 184.08 189.03 C 184.97 188.72 185.45 187.73 185.13 186.83 C 184.81 185.93 183.83 185.46 182.93 185.78 L 181.95 186.12 C 181.06 186.44 180.58 187.42 180.90 188.32 C 181.22 189.22 182.20 189.69 183.10 189.38 Z M 184.12 189.01 L 185.07 188.65 C 185.96 188.31 186.40 187.31 186.06 186.43 C 185.72 185.54 184.73 185.09 183.84 185.43 L 182.89 185.80 C 182.00 186.14 181.56 187.13 181.90 188.02 C 182.24 188.91 183.23 189.35 184.12 189.01 Z M 185.13 188.62 L 186.02 188.24 C 186.89 187.87 187.30 186.86 186.93 185.99 C 186.56 185.12 185.55 184.71 184.68 185.08 L 183.78 185.46 C 182.91 185.83 182.50 186.84 182.87 187.71 C 183.24 188.59 184.25 188.99 185.13 188.62 Z M 186.10 188.20 L 187.04 187.74 C 187.88 187.32 188.23 186.29 187.82 185.45 C 187.40 184.60 186.37 184.25 185.53 184.67 L 184.59 185.13 C 183.74 185.55 183.40 186.57 183.81 187.42 C 184.23 188.26 185.26 188.61 186.10 188.20 Z M 187.14 187.67 L 188.05 187.13 C 188.86 186.66 189.13 185.62 188.66 184.81 C 188.18 184.00 187.14 183.73 186.33 184.20 L 185.42 184.74 C 184.61 185.21 184.34 186.25 184.82 187.06 C 185.29 187.87 186.33 188.14 187.14 187.67 Z M 188.14 187.06 L 188.94 186.52 C 189.71 186.00 189.91 184.95 189.39 184.18 C 188.87 183.41 187.82 183.21 187.05 183.73 L 186.25 184.27 C 185.48 184.80 185.27 185.84 185.80 186.61 C 186.32 187.38 187.37 187.59 188.14 187.06 Z M 188.99 186.47 L 189.73 185.92 C 190.47 185.37 190.63 184.32 190.08 183.58 C 189.53 182.84 188.48 182.68 187.74 183.23 L 187.00 183.78 C 186.26 184.33 186.10 185.38 186.65 186.12 C 187.20 186.86 188.25 187.02 188.99 186.47 Z M 189.74 185.90 L 189.96 185.73 C 190.69 185.18 190.83 184.13 190.28 183.40 C 189.72 182.67 188.68 182.53 187.95 183.09 L 187.73 183.25 C 187.00 183.81 186.86 184.85 187.41 185.58 C 187.97 186.31 189.01 186.45 189.74 185.90 Z"
      fill="black"
      fill-rule="nonzero" /><path d="M 186.67 160.22 L 186.34 161.16 C 186.06 161.98 186.50 162.88 187.33 163.16 C 188.15 163.45 189.05 163.01 189.33 162.18 L 189.65 161.24 C 189.94 160.41 189.50 159.52 188.67 159.23 C 187.85 158.95 186.95 159.39 186.67 160.22 Z M 186.34 161.17 L 186.02 162.12 C 185.75 162.95 186.20 163.84 187.03 164.12 C 187.86 164.39 188.75 163.94 189.03 163.11 L 189.34 162.17 C 189.62 161.34 189.17 160.44 188.34 160.17 C 187.51 159.89 186.61 160.34 186.34 161.17 Z M 186.01 162.15 L 185.71 163.10 C 185.45 163.94 185.92 164.83 186.76 165.09 C 187.60 165.35 188.49 164.88 188.75 164.04 L 189.04 163.08 C 189.30 162.25 188.83 161.36 188.00 161.10 C 187.16 160.84 186.27 161.31 186.01 162.15 Z M 185.70 163.14 L 185.43 164.11 C 185.19 164.96 185.69 165.83 186.53 166.07 C 187.38 166.31 188.26 165.81 188.49 164.96 L 188.76 164.00 C 189.00 163.15 188.50 162.27 187.66 162.04 C 186.81 161.80 185.93 162.30 185.70 163.14 Z M 185.41 164.17 L 185.18 165.11 C 184.98 165.97 185.50 166.83 186.36 167.03 C 187.22 167.24 188.08 166.71 188.29 165.85 L 188.51 164.91 C 188.72 164.05 188.19 163.19 187.33 162.98 C 186.47 162.78 185.61 163.31 185.41 164.17 Z M 185.16 165.17 L 184.98 166.10 C 184.81 166.96 185.37 167.81 186.23 167.98 C 187.10 168.15 187.94 167.59 188.12 166.72 L 188.30 165.80 C 188.48 164.93 187.91 164.09 187.05 163.91 C 186.18 163.74 185.34 164.30 185.16 165.17 Z M 184.97 166.15 L 184.81 167.11 C 184.66 167.98 185.25 168.81 186.13 168.95 C 187.00 169.10 187.83 168.51 187.97 167.63 L 188.13 166.67 C 188.27 165.80 187.68 164.97 186.81 164.83 C 185.94 164.68 185.11 165.27 184.97 166.15 Z M 184.80 167.15 L 184.66 168.15 C 184.54 169.03 185.15 169.84 186.03 169.96 C 186.91 170.09 187.72 169.47 187.84 168.59 L 187.98 167.59 C 188.10 166.71 187.49 165.90 186.61 165.78 C 185.73 165.66 184.92 166.27 184.80 167.15 Z M 184.65 168.19 L 184.53 169.25 C 184.43 170.13 185.07 170.93 185.95 171.03 C 186.83 171.13 187.63 170.49 187.73 169.61 L 187.85 168.56 C 187.95 167.67 187.32 166.87 186.43 166.77 C 185.55 166.67 184.75 167.31 184.65 168.19 Z M 184.53 169.27 L 184.43 170.31 C 184.34 171.19 184.99 171.98 185.88 172.07 C 186.76 172.15 187.55 171.50 187.64 170.62 L 187.74 169.58 C 187.82 168.70 187.17 167.91 186.29 167.82 C 185.40 167.74 184.61 168.39 184.53 169.27 Z M 184.42 170.33 L 184.34 171.35 C 184.26 172.24 184.92 173.02 185.81 173.09 C 186.70 173.17 187.48 172.51 187.55 171.62 L 187.64 170.60 C 187.71 169.71 187.05 168.93 186.17 168.86 C 185.28 168.78 184.50 169.44 184.42 170.33 Z M 184.34 171.36 L 184.26 172.40 C 184.19 173.29 184.86 174.06 185.75 174.13 C 186.64 174.19 187.41 173.53 187.48 172.64 L 187.55 171.61 C 187.62 170.72 186.95 169.94 186.07 169.88 C 185.18 169.81 184.40 170.48 184.34 171.36 Z M 184.26 172.41 L 184.19 173.43 C 184.13 174.32 184.80 175.09 185.69 175.15 C 186.58 175.21 187.35 174.54 187.41 173.65 L 187.48 172.63 C 187.54 171.74 186.86 170.97 185.98 170.91 C 185.09 170.85 184.32 171.52 184.26 172.41 Z M 184.19 173.44 L 184.13 174.42 C 184.07 175.31 184.75 176.08 185.64 176.13 C 186.53 176.19 187.29 175.51 187.35 174.62 L 187.41 173.64 C 187.46 172.75 186.79 171.98 185.90 171.93 C 185.01 171.88 184.24 172.55 184.19 173.44 Z M 184.13 174.43 L 184.08 175.38 C 184.03 176.27 184.71 177.03 185.60 177.08 C 186.48 177.13 187.25 176.45 187.30 175.56 L 187.35 174.61 C 187.40 173.72 186.72 172.96 185.83 172.91 C 184.94 172.86 184.18 173.54 184.13 174.43 Z M 184.08 175.39 L 184.02 176.52 C 183.98 177.40 184.66 178.16 185.55 178.21 C 186.43 178.25 187.19 177.57 187.24 176.68 L 187.29 175.55 C 187.34 174.66 186.66 173.91 185.77 173.86 C 184.88 173.82 184.12 174.50 184.08 175.39 Z M 184.03 176.52 L 183.98 177.54 C 183.94 178.42 184.62 179.17 185.50 179.21 C 186.39 179.25 187.14 178.57 187.18 177.69 L 187.23 176.67 C 187.27 175.79 186.59 175.04 185.70 175.00 C 184.82 174.96 184.07 175.64 184.03 176.52 Z M 183.99 177.54 L 183.94 178.47 C 183.90 179.35 184.58 180.10 185.46 180.14 C 186.34 180.18 187.09 179.50 187.13 178.62 L 187.17 177.69 C 187.22 176.81 186.54 176.06 185.66 176.02 C 184.78 175.97 184.03 176.65 183.99 177.54 Z M 183.95 178.46 L 183.90 179.36 C 183.86 180.24 184.53 180.99 185.41 181.03 C 186.28 181.08 187.03 180.40 187.08 179.53 L 187.12 178.63 C 187.17 177.75 186.50 177.00 185.62 176.96 C 184.74 176.91 183.99 177.58 183.95 178.46 Z M 183.91 179.35 L 183.85 180.32 C 183.80 181.20 184.46 181.95 185.33 182.00 C 186.21 182.05 186.96 181.39 187.01 180.52 L 187.07 179.54 C 187.12 178.67 186.46 177.92 185.58 177.87 C 184.71 177.81 183.96 178.48 183.91 179.35 Z M 183.86 180.31 L 183.80 181.30 C 183.74 182.17 184.39 182.92 185.26 182.98 C 186.13 183.03 186.87 182.38 186.93 181.51 L 187.00 180.52 C 187.06 179.66 186.40 178.91 185.53 178.85 C 184.67 178.79 183.92 179.45 183.86 180.31 Z M 183.80 181.30 L 183.73 182.31 C 183.67 183.17 184.32 183.92 185.18 183.98 C 186.05 184.04 186.79 183.39 186.85 182.53 L 186.92 181.52 C 186.98 180.65 186.33 179.91 185.47 179.85 C 184.61 179.79 183.86 180.44 183.80 181.30 Z M 183.74 182.31 L 183.67 183.33 C 183.61 184.18 184.26 184.92 185.12 184.98 C 185.97 185.04 186.71 184.40 186.77 183.54 L 186.84 182.52 C 186.90 181.67 186.26 180.93 185.40 180.87 C 184.55 180.81 183.80 181.45 183.74 182.31 Z M 183.69 183.33 L 183.62 184.34 C 183.56 185.19 184.21 185.92 185.05 185.98 C 185.90 186.04 186.64 185.39 186.69 184.54 L 186.76 183.54 C 186.82 182.69 186.17 181.95 185.33 181.90 C 184.48 181.84 183.74 182.48 183.69 183.33 Z M 183.63 184.35 L 183.57 185.36 C 183.52 186.20 184.16 186.92 185.00 186.98 C 185.84 187.03 186.56 186.39 186.61 185.55 L 186.68 184.54 C 186.73 183.70 186.09 182.97 185.25 182.92 C 184.41 182.87 183.69 183.51 183.63 184.35 Z M 183.58 185.37 L 183.53 186.36 C 183.48 187.19 184.11 187.91 184.94 187.95 C 185.78 188.00 186.49 187.37 186.54 186.54 L 186.60 185.54 C 186.65 184.71 186.01 184.00 185.18 183.95 C 184.35 183.90 183.63 184.53 183.58 185.37 Z M 183.54 186.37 L 183.49 187.38 C 183.44 188.21 184.07 188.91 184.90 188.95 C 185.73 189.00 186.43 188.36 186.47 187.54 L 186.53 186.53 C 186.57 185.70 185.94 185.00 185.11 184.95 C 184.29 184.91 183.58 185.54 183.54 186.37 Z M 183.50 187.39 L 183.45 188.41 C 183.42 189.23 184.05 189.92 184.87 189.96 C 185.68 190.00 186.38 189.36 186.41 188.55 L 186.46 187.53 C 186.50 186.71 185.86 186.02 185.05 185.98 C 184.23 185.94 183.54 186.57 183.50 187.39 Z M 183.46 188.43 L 183.43 189.41 C 183.40 190.22 184.03 190.90 184.85 190.93 C 185.66 190.96 186.34 190.32 186.37 189.51 L 186.40 188.53 C 186.43 187.72 185.80 187.04 184.99 187.01 C 184.17 186.98 183.49 187.62 183.46 188.43 Z M 183.44 189.42 L 183.42 190.39 C 183.40 191.20 184.03 191.86 184.84 191.88 C 185.64 191.90 186.31 191.27 186.33 190.46 L 186.35 189.50 C 186.37 188.69 185.74 188.03 184.93 188.01 C 184.13 187.99 183.46 188.62 183.44 189.42 Z M 183.43 190.41 L 183.41 191.42 C 183.40 192.22 184.04 192.88 184.84 192.89 C 185.64 192.90 186.30 192.26 186.31 191.46 L 186.32 190.45 C 186.33 189.65 185.69 188.99 184.89 188.98 C 184.09 188.97 183.44 189.61 183.43 190.41 Z M 183.42 191.43 L 183.41 192.44 C 183.41 193.23 184.05 193.88 184.85 193.88 C 185.64 193.89 186.29 193.25 186.30 192.45 L 186.30 191.45 C 186.31 190.65 185.66 190.00 184.87 190.00 C 184.07 189.99 183.42 190.64 183.42 191.43 Z M 183.42 192.44 L 183.42 193.43 C 183.42 194.22 184.06 194.87 184.85 194.87 C 185.64 194.87 186.29 194.23 186.29 193.43 L 186.29 192.45 C 186.29 191.65 185.65 191.01 184.86 191.01 C 184.06 191.01 183.42 191.65 183.42 192.44 Z M 183.42 193.43 L 183.42 194.44 C 183.42 195.23 184.06 195.87 184.85 195.87 C 185.64 195.87 186.28 195.23 186.28 194.44 L 186.28 193.43 C 186.28 192.64 185.64 192.00 184.85 192.00 C 184.06 192.00 183.42 192.64 183.42 193.43 Z M 183.42 194.44 L 183.42 195.44 C 183.42 196.23 184.06 196.87 184.85 196.87 C 185.64 196.87 186.28 196.23 186.28 195.44 L 186.28 194.44 C 186.28 193.65 185.64 193.01 184.85 193.01 C 184.06 193.01 183.42 193.65 183.42 194.44 Z M 183.43 195.44 L 183.43 196.43 C 183.43 197.22 184.07 197.86 184.85 197.86 C 185.64 197.86 186.28 197.22 186.28 196.43 L 186.28 195.44 C 186.28 194.65 185.64 194.02 184.85 194.02 C 184.07 194.02 183.43 194.65 183.43 195.44 Z M 183.43 196.43 L 183.43 196.71 C 183.43 197.50 184.07 198.14 184.85 198.14 C 185.64 198.14 186.28 197.50 186.28 196.71 L 186.28 196.43 C 186.28 195.64 185.64 195.01 184.85 195.01 C 184.07 195.01 183.43 195.64 183.43 196.43 Z"
      fill="black"
      fill-rule="nonzero" /></svg>