<svg xmlns="http://www.w3.org/2000/svg" width="300" height="300" viewBox="0 0 300 300">
<path d="M 139.83 113.48 L 140.55 114.24 C 141.12 114.85 142.08 114.88 142.69 114.31 C 143.30 113.74 143.33 112.78 142.75 112.18 L 142.03 111.41 C 141.46 110.80 140.51 110.77 139.90 111.34 C 139.29 111.91 139.26 112.87 139.83 113.48 Z M 140.47 114.22 L 141.14 115.00 C 141.70 115.65 142.68 115.73 143.33 115.17 C 143.98 114.61 144.06 113.63 143.50 112.98 L 142.83 112.20 C 142.28 111.55 141.29 111.47 140.64 112.03 C 139.99 112.59 139.92 113.57 140.47 114.22 Z M 141.01 114.90 L 141.56 115.70 C 142.07 116.42 143.06 116.60 143.79 116.09 C 144.51 115.59 144.69 114.59 144.18 113.87 L 143.63 113.07 C 143.12 112.35 142.13 112.17 141.40 112.68 C 140.68 113.18 140.50 114.18 141.01 114.90 Z M 141.39 115.48 L 141.79 116.33 C 142.18 117.14 143.15 117.50 143.97 117.11 C 144.78 116.73 145.14 115.76 144.75 114.94 L 144.35 114.09 C 143.97 113.27 143.00 112.92 142.18 113.30 C 141.36 113.68 141.01 114.66 141.39 115.48 Z M 141.66 116.01 L 141.88 116.95 C 142.09 117.84 142.98 118.39 143.87 118.18 C 144.75 117.98 145.31 117.09 145.10 116.20 L 144.88 115.26 C 144.67 114.37 143.79 113.82 142.90 114.02 C 142.01 114.23 141.46 115.12 141.66 116.01 Z M 141.84 116.70 L 141.92 117.69 C 141.99 118.60 142.79 119.29 143.70 119.22 C 144.61 119.15 145.29 118.35 145.22 117.44 L 145.14 116.45 C 145.07 115.54 144.28 114.85 143.36 114.92 C 142.45 115.00 141.77 115.79 141.84 116.70 Z M 141.91 117.58 L 141.92 118.61 C 141.93 119.53 142.68 120.26 143.59 120.25 C 144.51 120.25 145.25 119.50 145.24 118.58 L 145.23 117.55 C 145.22 116.63 144.47 115.90 143.55 115.91 C 142.64 115.91 141.90 116.66 141.91 117.58 Z M 141.92 118.59 L 141.92 119.53 C 141.91 120.45 142.66 121.20 143.58 121.20 C 144.49 121.20 145.24 120.45 145.24 119.54 L 145.24 118.60 C 145.24 117.68 144.50 116.93 143.58 116.93 C 142.66 116.93 141.92 117.68 141.92 118.59 Z M 141.91 119.53 L 141.91 120.52 C 141.91 121.43 142.65 122.18 143.57 122.19 C 144.49 122.19 145.24 121.45 145.24 120.53 L 145.24 119.54 C 145.24 118.62 144.50 117.87 143.58 117.87 C 142.66 117.87 141.92 118.61 141.91 119.53 Z M 141.91 120.51 L 141.90 121.54 C 141.89 122.46 142.63 123.21 143.55 123.22 C 144.47 123.22 145.23 122.48 145.23 121.56 L 145.24 120.53 C 145.25 119.61 144.51 118.86 143.59 118.85 C 142.67 118.85 141.92 119.59 141.91 120.51 Z M 141.90 121.53 L 141.88 122.56 C 141.87 123.48 142.61 124.24 143.53 124.25 C 144.45 124.27 145.21 123.53 145.22 122.61 L 145.23 121.57 C 145.25 120.65 144.51 119.90 143.59 119.88 C 142.67 119.87 141.91 120.61 141.90 121.53 Z M 141.88 122.55 L 141.86 123.51 C 141.84 124.43 142.57 125.19 143.49 125.22 C 144.41 125.24 145.18 124.51 145.20 123.58 L 145.22 122.62 C 145.24 121.70 144.51 120.94 143.59 120.92 C 142.67 120.90 141.90 121.63 141.88 122.55 Z M 141.86 123.48 L 141.82 124.47 C 141.79 125.40 142.51 126.17 143.43 126.20 C 144.36 126.24 145.13 125.52 145.17 124.59 L 145.20 123.61 C 145.24 122.68 144.51 121.91 143.59 121.87 C 142.67 121.84 141.89 122.56 141.86 123.48 Z M 141.82 124.44 L 141.77 125.46 C 141.71 126.38 142.42 127.17 143.35 127.22 C 144.27 127.27 145.06 126.56 145.11 125.64 L 145.17 124.63 C 145.22 123.70 144.51 122.91 143.59 122.86 C 142.66 122.81 141.87 123.52 141.82 124.44 Z M 141.77 125.42 L 141.68 126.45 C 141.61 127.38 142.30 128.18 143.22 128.26 C 144.15 128.33 144.95 127.64 145.03 126.72 L 145.11 125.68 C 145.18 124.76 144.49 123.95 143.57 123.88 C 142.65 123.80 141.84 124.49 141.77 125.42 Z M 141.69 126.41 L 141.58 127.38 C 141.49 128.30 142.15 129.13 143.08 129.22 C 144.00 129.32 144.83 128.65 144.92 127.73 L 145.03 126.76 C 145.12 125.84 144.45 125.01 143.53 124.92 C 142.61 124.82 141.78 125.49 141.69 126.41 Z M 141.59 127.34 L 141.46 128.30 C 141.34 129.23 141.99 130.07 142.92 130.19 C 143.84 130.30 144.68 129.65 144.80 128.73 L 144.92 127.77 C 145.04 126.85 144.39 126.00 143.47 125.89 C 142.55 125.77 141.70 126.42 141.59 127.34 Z M 141.46 128.28 L 141.32 129.26 C 141.19 130.18 141.83 131.04 142.75 131.17 C 143.67 131.30 144.52 130.66 144.65 129.74 L 144.80 128.76 C 144.93 127.84 144.29 126.98 143.37 126.85 C 142.45 126.72 141.60 127.36 141.46 128.28 Z M 141.32 129.24 L 141.16 130.25 C 141.02 131.17 141.65 132.03 142.57 132.17 C 143.49 132.32 144.35 131.69 144.50 130.77 L 144.65 129.76 C 144.80 128.84 144.17 127.98 143.25 127.83 C 142.33 127.69 141.46 128.32 141.32 129.24 Z M 141.16 130.24 L 140.99 131.26 C 140.85 132.19 141.47 133.05 142.39 133.20 C 143.31 133.35 144.18 132.73 144.33 131.81 L 144.50 130.78 C 144.65 129.86 144.02 128.99 143.10 128.84 C 142.18 128.69 141.31 129.31 141.16 130.24 Z M 140.99 131.26 L 140.84 132.22 C 140.68 133.14 141.31 134.01 142.23 134.16 C 143.15 134.32 144.02 133.69 144.17 132.77 L 144.33 131.81 C 144.48 130.89 143.86 130.02 142.94 129.87 C 142.02 129.71 141.15 130.34 140.99 131.26 Z M 140.83 132.22 L 140.67 133.17 C 140.52 134.10 141.14 134.97 142.07 135.12 C 142.99 135.28 143.86 134.65 144.02 133.73 L 144.18 132.77 C 144.33 131.85 143.71 130.98 142.78 130.82 C 141.86 130.67 140.99 131.29 140.83 132.22 Z M 140.67 133.17 L 140.51 134.15 C 140.35 135.07 140.98 135.95 141.90 136.10 C 142.82 136.26 143.70 135.64 143.85 134.71 L 144.02 133.73 C 144.17 132.81 143.55 131.94 142.63 131.78 C 141.70 131.63 140.83 132.25 140.67 133.17 Z M 140.51 134.14 L 140.34 135.14 C 140.18 136.06 140.80 136.94 141.72 137.10 C 142.65 137.26 143.52 136.64 143.68 135.71 L 143.85 134.72 C 144.01 133.79 143.39 132.92 142.47 132.76 C 141.54 132.60 140.67 133.22 140.51 134.14 Z M 140.34 135.13 L 140.16 136.15 C 140.00 137.07 140.61 137.95 141.54 138.11 C 142.46 138.28 143.34 137.66 143.50 136.73 L 143.68 135.72 C 143.84 134.80 143.23 133.92 142.30 133.75 C 141.38 133.59 140.50 134.21 140.34 135.13 Z M 140.16 136.14 L 139.98 137.15 C 139.81 138.07 140.42 138.96 141.35 139.12 C 142.27 139.29 143.16 138.68 143.32 137.75 L 143.50 136.74 C 143.67 135.82 143.06 134.93 142.13 134.77 C 141.21 134.60 140.32 135.21 140.16 136.14 Z M 139.98 137.14 L 139.80 138.08 C 139.63 139.01 140.24 139.89 141.17 140.07 C 142.09 140.24 142.98 139.63 143.15 138.70 L 143.32 137.76 C 143.49 136.84 142.88 135.95 141.96 135.78 C 141.03 135.61 140.15 136.22 139.98 137.14 Z M 139.80 138.08 L 139.62 139.03 C 139.45 139.96 140.05 140.85 140.98 141.02 C 141.90 141.20 142.79 140.59 142.97 139.67 L 143.15 138.71 C 143.32 137.79 142.71 136.90 141.79 136.72 C 140.87 136.55 139.98 137.15 139.80 138.08 Z M 139.62 139.03 L 139.43 140.00 C 139.26 140.92 139.86 141.82 140.78 141.99 C 141.71 142.17 142.60 141.57 142.78 140.65 L 142.97 139.67 C 143.14 138.75 142.54 137.86 141.62 137.68 C 140.69 137.50 139.80 138.10 139.62 139.03 Z M 139.43 139.99 L 139.24 140.98 C 139.06 141.91 139.66 142.80 140.58 142.98 C 141.51 143.17 142.40 142.56 142.58 141.64 L 142.78 140.65 C 142.96 139.73 142.36 138.83 141.43 138.65 C 140.51 138.47 139.62 139.07 139.43 139.99 Z M 139.24 140.98 L 139.04 141.99 C 138.85 142.91 139.45 143.81 140.38 143.99 C 141.30 144.18 142.20 143.58 142.38 142.65 L 142.58 141.65 C 142.77 140.72 142.17 139.83 141.24 139.64 C 140.32 139.46 139.42 140.06 139.24 140.98 Z M 139.04 141.98 L 138.83 143.01 C 138.64 143.93 139.24 144.83 140.16 145.02 C 141.09 145.21 141.99 144.61 142.17 143.69 L 142.38 142.66 C 142.57 141.74 141.97 140.84 141.05 140.65 C 140.13 140.46 139.23 141.06 139.04 141.98 Z M 138.83 143.00 L 138.63 143.97 C 138.44 144.90 139.04 145.80 139.96 145.99 C 140.88 146.18 141.78 145.58 141.97 144.66 L 142.17 143.69 C 142.36 142.77 141.77 141.87 140.84 141.68 C 139.92 141.49 139.02 142.08 138.83 143.00 Z M 138.63 143.97 L 138.43 144.95 C 138.24 145.87 138.83 146.77 139.75 146.96 C 140.67 147.16 141.58 146.56 141.77 145.64 L 141.97 144.66 C 142.17 143.74 141.57 142.84 140.65 142.65 C 139.73 142.45 138.82 143.05 138.63 143.97 Z M 138.43 144.94 L 138.22 145.92 C 138.03 146.85 138.62 147.75 139.54 147.95 C 140.46 148.14 141.37 147.55 141.56 146.63 L 141.77 145.65 C 141.96 144.72 141.37 143.82 140.45 143.62 C 139.53 143.43 138.62 144.02 138.43 144.94 Z M 138.22 145.92 L 138.01 146.91 C 137.81 147.83 138.40 148.74 139.32 148.93 C 140.24 149.13 141.15 148.55 141.35 147.62 L 141.56 146.64 C 141.76 145.72 141.17 144.81 140.25 144.61 C 139.33 144.41 138.42 145.00 138.22 145.92 Z M 138.01 146.90 L 137.79 147.88 C 137.59 148.80 138.17 149.71 139.09 149.92 C 140.01 150.12 140.93 149.54 141.13 148.62 L 141.35 147.63 C 141.55 146.71 140.97 145.80 140.05 145.60 C 139.12 145.39 138.21 145.98 138.01 146.90 Z M 137.80 147.87 L 137.57 148.85 C 137.37 149.77 137.94 150.68 138.86 150.89 C 139.78 151.10 140.70 150.52 140.91 149.60 L 141.13 148.63 C 141.34 147.71 140.76 146.79 139.84 146.58 C 138.92 146.37 138.00 146.95 137.80 147.87 Z M 137.58 148.84 L 137.35 149.81 C 137.14 150.73 137.71 151.65 138.63 151.86 C 139.55 152.07 140.47 151.50 140.68 150.58 L 140.91 149.61 C 141.12 148.69 140.55 147.77 139.63 147.56 C 138.71 147.35 137.79 147.92 137.58 148.84 Z M 137.35 149.80 L 137.12 150.79 C 136.90 151.71 137.46 152.63 138.38 152.85 C 139.30 153.07 140.22 152.50 140.44 151.58 L 140.68 150.59 C 140.90 149.68 140.33 148.75 139.41 148.53 C 138.50 148.31 137.57 148.88 137.35 149.80 Z M 137.12 150.78 L 136.88 151.75 C 136.65 152.67 137.21 153.60 138.13 153.82 C 139.04 154.05 139.97 153.49 140.20 152.57 L 140.44 151.60 C 140.66 150.68 140.10 149.75 139.19 149.53 C 138.27 149.30 137.34 149.86 137.12 150.78 Z M 136.88 151.74 L 136.63 152.71 C 136.40 153.62 136.95 154.55 137.87 154.79 C 138.78 155.02 139.71 154.46 139.95 153.55 L 140.19 152.58 C 140.43 151.67 139.87 150.74 138.96 150.51 C 138.04 150.27 137.11 150.83 136.88 151.74 Z M 136.64 152.70 L 136.39 153.66 C 136.15 154.57 136.70 155.50 137.61 155.74 C 138.52 155.98 139.46 155.43 139.69 154.52 L 139.94 153.56 C 140.18 152.65 139.64 151.71 138.72 151.47 C 137.81 151.24 136.87 151.78 136.64 152.70 Z M 136.39 153.65 L 136.13 154.60 C 135.89 155.52 136.43 156.45 137.34 156.70 C 138.26 156.94 139.19 156.40 139.44 155.49 L 139.69 154.53 C 139.94 153.62 139.39 152.68 138.48 152.44 C 137.57 152.19 136.63 152.73 136.39 153.65 Z M 136.14 154.59 L 135.87 155.55 C 135.63 156.46 136.16 157.40 137.07 157.65 C 137.98 157.90 138.92 157.36 139.17 156.45 L 139.43 155.49 C 139.68 154.58 139.15 153.64 138.23 153.39 C 137.32 153.15 136.38 153.68 136.14 154.59 Z M 135.88 155.55 L 135.61 156.50 C 135.36 157.41 135.89 158.35 136.80 158.60 C 137.71 158.86 138.65 158.32 138.91 157.41 L 139.17 156.46 C 139.42 155.55 138.89 154.61 137.98 154.36 C 137.07 154.10 136.13 154.64 135.88 155.55 Z M 135.61 156.49 L 135.34 157.45 C 135.09 158.36 135.62 159.30 136.52 159.56 C 137.43 159.82 138.38 159.29 138.63 158.38 L 138.90 157.42 C 139.16 156.51 138.63 155.57 137.72 155.31 C 136.81 155.06 135.87 155.58 135.61 156.49 Z M 135.35 157.44 L 135.07 158.40 C 134.81 159.31 135.33 160.26 136.24 160.52 C 137.15 160.78 138.10 160.25 138.36 159.34 L 138.63 158.38 C 138.89 157.48 138.37 156.53 137.46 156.27 C 136.55 156.01 135.61 156.53 135.35 157.44 Z M 135.07 158.40 L 134.79 159.36 C 134.53 160.26 135.05 161.21 135.96 161.48 C 136.86 161.74 137.81 161.22 138.07 160.31 L 138.35 159.35 C 138.62 158.45 138.10 157.50 137.19 157.23 C 136.28 156.97 135.34 157.49 135.07 158.40 Z M 134.79 159.35 L 134.51 160.32 C 134.24 161.22 134.76 162.17 135.66 162.44 C 136.57 162.71 137.52 162.19 137.79 161.28 L 138.07 160.32 C 138.34 159.42 137.82 158.46 136.92 158.20 C 136.01 157.93 135.06 158.45 134.79 159.35 Z M 134.51 160.31 L 134.22 161.27 C 133.95 162.18 134.47 163.13 135.37 163.40 C 136.27 163.67 137.23 163.16 137.50 162.25 L 137.79 161.29 C 138.06 160.39 137.54 159.43 136.64 159.16 C 135.74 158.89 134.78 159.41 134.51 160.31 Z M 134.23 161.27 L 133.93 162.23 C 133.66 163.13 134.17 164.08 135.07 164.36 C 135.97 164.63 136.93 164.12 137.20 163.22 L 137.49 162.26 C 137.77 161.36 137.26 160.40 136.36 160.13 C 135.45 159.85 134.50 160.36 134.23 161.27 Z M 133.94 162.22 L 133.64 163.19 C 133.36 164.09 133.87 165.04 134.77 165.32 C 135.67 165.60 136.62 165.09 136.90 164.19 L 137.20 163.23 C 137.48 162.33 136.97 161.37 136.07 161.09 C 135.17 160.81 134.21 161.32 133.94 162.22 Z M 133.64 163.18 L 133.34 164.14 C 133.06 165.04 133.56 166.00 134.46 166.28 C 135.36 166.56 136.32 166.06 136.60 165.16 L 136.90 164.20 C 137.18 163.30 136.68 162.34 135.78 162.06 C 134.88 161.78 133.92 162.28 133.64 163.18 Z M 133.34 164.13 L 133.04 165.09 C 132.75 165.99 133.25 166.95 134.14 167.23 C 135.04 167.52 136.00 167.02 136.29 166.13 L 136.59 165.17 C 136.88 164.27 136.39 163.31 135.49 163.03 C 134.59 162.74 133.63 163.23 133.34 164.13 Z M 133.04 165.08 L 132.73 166.03 C 132.44 166.92 132.93 167.89 133.82 168.18 C 134.72 168.47 135.68 167.98 135.97 167.09 L 136.28 166.14 C 136.58 165.24 136.09 164.28 135.19 163.99 C 134.30 163.69 133.33 164.18 133.04 165.08 Z M 132.74 166.02 L 132.42 166.96 C 132.12 167.85 132.60 168.82 133.50 169.12 C 134.39 169.42 135.36 168.93 135.65 168.04 L 135.97 167.10 C 136.27 166.21 135.79 165.24 134.89 164.94 C 134.00 164.64 133.03 165.12 132.74 166.02 Z M 132.43 166.95 L 132.10 167.88 C 131.80 168.77 132.27 169.74 133.16 170.05 C 134.05 170.35 135.02 169.88 135.33 168.99 L 135.65 168.05 C 135.95 167.16 135.48 166.19 134.59 165.89 C 133.70 165.58 132.73 166.06 132.43 166.95 Z M 132.11 167.87 L 131.77 168.82 C 131.46 169.71 131.92 170.68 132.81 171.00 C 133.70 171.31 134.67 170.85 134.98 169.96 L 135.32 169.00 C 135.64 168.12 135.17 167.14 134.28 166.83 C 133.40 166.52 132.42 166.98 132.11 167.87 Z M 131.78 168.81 L 131.43 169.77 C 131.11 170.66 131.56 171.63 132.45 171.95 C 133.33 172.27 134.31 171.82 134.63 170.94 L 134.98 169.97 C 135.30 169.09 134.84 168.11 133.96 167.79 C 133.08 167.47 132.10 167.93 131.78 168.81 Z M 131.43 169.76 L 131.08 170.71 C 130.75 171.59 131.20 172.57 132.08 172.90 C 132.96 173.22 133.94 172.78 134.27 171.90 L 134.62 170.95 C 134.95 170.07 134.50 169.09 133.62 168.76 C 132.74 168.43 131.76 168.88 131.43 169.76 Z M 131.09 170.70 L 130.73 171.63 C 130.40 172.51 130.84 173.49 131.71 173.83 C 132.59 174.16 133.57 173.72 133.91 172.84 L 134.26 171.91 C 134.59 171.03 134.15 170.05 133.28 169.72 C 132.40 169.38 131.42 169.82 131.09 170.70 Z M 130.74 171.63 L 130.38 172.55 C 130.04 173.42 130.47 174.40 131.35 174.74 C 132.22 175.08 133.20 174.65 133.54 173.77 L 133.90 172.85 C 134.24 171.98 133.80 171.00 132.93 170.66 C 132.06 170.32 131.07 170.75 130.74 171.63 Z M 130.38 172.54 L 130.03 173.45 C 129.68 174.32 130.11 175.30 130.98 175.64 C 131.86 175.99 132.84 175.56 133.18 174.69 L 133.54 173.78 C 133.88 172.91 133.45 171.93 132.58 171.58 C 131.71 171.24 130.73 171.67 130.38 172.54 Z M 130.03 173.44 L 129.66 174.36 C 129.32 175.23 129.74 176.22 130.61 176.56 C 131.48 176.91 132.46 176.48 132.81 175.62 L 133.18 174.69 C 133.52 173.82 133.10 172.84 132.23 172.49 C 131.36 172.15 130.38 172.57 130.03 173.44 Z M 129.67 174.36 L 129.29 175.30 C 128.94 176.17 129.36 177.15 130.23 177.50 C 131.09 177.85 132.08 177.43 132.43 176.56 L 132.81 175.62 C 133.15 174.75 132.73 173.77 131.87 173.42 C 131.00 173.07 130.02 173.49 129.67 174.36 Z M 129.30 175.30 L 128.92 176.23 C 128.57 177.09 128.98 178.07 129.85 178.43 C 130.71 178.78 131.70 178.36 132.05 177.50 L 132.42 176.57 C 132.77 175.70 132.36 174.72 131.49 174.37 C 130.63 174.02 129.65 174.44 129.30 175.30 Z M 128.92 176.22 L 128.55 177.14 C 128.19 178.00 128.61 178.99 129.47 179.34 C 130.33 179.69 131.31 179.28 131.66 178.42 L 132.04 177.50 C 132.39 176.64 131.98 175.66 131.12 175.30 C 130.26 174.95 129.28 175.36 128.92 176.22 Z M 128.55 177.14 L 128.17 178.05 C 127.82 178.91 128.23 179.89 129.09 180.25 C 129.95 180.60 130.93 180.19 131.28 179.34 L 131.66 178.42 C 132.01 177.56 131.61 176.58 130.75 176.23 C 129.89 175.87 128.91 176.28 128.55 177.14 Z M 128.18 178.05 L 127.80 178.96 C 127.44 179.82 127.85 180.80 128.71 181.16 C 129.56 181.51 130.54 181.11 130.90 180.25 L 131.28 179.34 C 131.63 178.48 131.23 177.50 130.37 177.14 C 129.52 176.79 128.53 177.19 128.18 178.05 Z M 127.80 178.96 L 127.40 179.92 C 127.04 180.78 127.45 181.76 128.30 182.12 C 129.15 182.47 130.13 182.07 130.49 181.22 L 130.89 180.25 C 131.25 179.40 130.85 178.42 130.00 178.06 C 129.14 177.71 128.16 178.11 127.80 178.96 Z M 127.41 179.92 L 127.00 180.89 C 126.64 181.74 127.04 182.72 127.89 183.08 C 128.74 183.44 129.72 183.04 130.08 182.19 L 130.48 181.22 C 130.84 180.37 130.44 179.39 129.59 179.03 C 128.74 178.67 127.77 179.07 127.41 179.92 Z M 127.00 180.89 L 126.60 181.84 C 126.24 182.69 126.64 183.66 127.48 184.02 C 128.33 184.38 129.31 183.99 129.67 183.14 L 130.07 182.19 C 130.43 181.35 130.03 180.37 129.19 180.01 C 128.34 179.65 127.36 180.05 127.00 180.89 Z M 126.61 181.84 L 126.22 182.75 C 125.86 183.59 126.25 184.57 127.09 184.93 C 127.93 185.29 128.91 184.90 129.27 184.06 L 129.66 183.14 C 130.02 182.30 129.63 181.33 128.79 180.97 C 127.94 180.60 126.97 181.00 126.61 181.84 Z M 126.22 182.75 L 125.85 183.61 C 125.49 184.45 125.88 185.42 126.71 185.78 C 127.55 186.15 128.53 185.76 128.89 184.92 L 129.26 184.06 C 129.62 183.22 129.24 182.25 128.40 181.89 C 127.56 181.52 126.59 181.91 126.22 182.75 Z M 125.86 183.60 L 125.46 184.52 C 125.09 185.36 125.47 186.33 126.31 186.69 C 127.14 187.06 128.11 186.68 128.48 185.84 L 128.88 184.93 C 129.25 184.09 128.87 183.12 128.03 182.76 C 127.20 182.39 126.23 182.77 125.86 183.60 Z M 125.47 184.52 L 125.04 185.49 C 124.67 186.31 125.04 187.28 125.87 187.65 C 126.70 188.02 127.67 187.65 128.04 186.82 L 128.47 185.85 C 128.84 185.02 128.46 184.05 127.64 183.68 C 126.81 183.32 125.84 183.69 125.47 184.52 Z M 125.05 185.48 L 124.65 186.37 C 124.28 187.19 124.64 188.16 125.46 188.53 C 126.28 188.90 127.25 188.54 127.62 187.71 L 128.02 186.83 C 128.40 186.00 128.03 185.04 127.21 184.67 C 126.39 184.29 125.42 184.66 125.05 185.48 Z M 124.66 186.37 L 124.27 187.21 C 123.90 188.03 124.26 188.99 125.07 189.37 C 125.89 189.74 126.85 189.38 127.22 188.57 L 127.61 187.72 C 127.98 186.90 127.63 185.94 126.81 185.57 C 126.00 185.19 125.03 185.55 124.66 186.37 Z M 124.28 187.21 L 123.78 188.30 C 123.41 189.11 123.76 190.07 124.57 190.44 C 125.38 190.81 126.34 190.46 126.71 189.65 L 127.21 188.57 C 127.58 187.76 127.23 186.80 126.42 186.43 C 125.62 186.05 124.66 186.41 124.28 187.21 Z M 123.82 188.26 L 123.30 189.31 C 122.90 190.10 123.22 191.06 124.01 191.45 C 124.80 191.84 125.76 191.52 126.15 190.74 L 126.68 189.69 C 127.07 188.90 126.75 187.94 125.96 187.55 C 125.17 187.15 124.21 187.47 123.82 188.26 Z M 123.64 188.87 L 123.38 189.12 C 122.74 189.72 122.71 190.72 123.31 191.35 C 123.91 191.99 124.91 192.02 125.54 191.42 L 125.81 191.17 C 126.44 190.57 126.47 189.57 125.87 188.94 C 125.27 188.30 124.28 188.27 123.64 188.87 Z M 126.01 190.40 L 126.05 189.89 C 126.12 189.04 125.48 188.29 124.63 188.22 C 123.78 188.15 123.03 188.78 122.96 189.64 L 122.91 190.14 C 122.84 191.00 123.48 191.75 124.33 191.82 C 125.19 191.89 125.94 191.25 126.01 190.40 Z M 125.99 190.06 L 126.18 189.11 C 126.34 188.29 125.81 187.49 124.99 187.33 C 124.16 187.17 123.37 187.70 123.21 188.52 L 123.02 189.47 C 122.85 190.29 123.39 191.09 124.21 191.25 C 125.03 191.41 125.83 190.88 125.99 190.06 Z M 126.13 189.14 L 126.41 187.91 C 126.59 187.11 126.10 186.32 125.30 186.14 C 124.50 185.96 123.71 186.46 123.53 187.25 L 123.25 188.49 C 123.07 189.28 123.57 190.07 124.36 190.25 C 125.16 190.43 125.95 189.94 126.13 189.14 Z M 126.38 187.91 L 126.60 186.99 C 126.78 186.21 126.30 185.43 125.52 185.25 C 124.74 185.07 123.97 185.55 123.78 186.33 L 123.57 187.25 C 123.38 188.02 123.86 188.80 124.64 188.99 C 125.42 189.17 126.20 188.69 126.38 187.91 Z"
      fill="black"
      fill-rule="nonzero" /><path d="M 139.72 118.90 L 139.85 118.05 C 139.98 117.18 139.39 116.38 138.53 116.24 C 137.67 116.11 136.86 116.70 136.73 117.56 L 136.59 118.42 C 136.46 119.28 137.05 120.09 137.91 120.22 C 138.77 120.35 139.58 119.76 139.72 118.90 Z M 139.79 118.31 L 140.08 117.47 C 140.36 116.63 139.91 115.73 139.08 115.45 C 138.25 115.17 137.35 115.62 137.07 116.45 L 136.78 117.30 C 136.50 118.13 136.95 119.03 137.78 119.31 C 138.61 119.59 139.51 119.14 139.79 118.31 Z M 139.88 117.88 L 140.47 117.05 C 140.98 116.33 140.81 115.34 140.09 114.82 C 139.37 114.31 138.37 114.48 137.86 115.20 L 137.27 116.03 C 136.76 116.75 136.93 117.75 137.65 118.26 C 138.36 118.77 139.36 118.60 139.88 117.88 Z M 140.17 117.38 L 141.05 116.68 C 141.75 116.12 141.86 115.11 141.31 114.42 C 140.75 113.72 139.74 113.61 139.05 114.16 L 138.16 114.87 C 137.47 115.42 137.35 116.44 137.91 117.13 C 138.46 117.82 139.47 117.94 140.17 117.38 Z M 140.85 116.82 L 141.63 116.38 C 142.40 115.94 142.67 114.95 142.23 114.18 C 141.79 113.40 140.80 113.13 140.03 113.57 L 139.25 114.02 C 138.48 114.46 138.21 115.44 138.65 116.22 C 139.09 116.99 140.07 117.26 140.85 116.82 Z M 141.52 116.44 L 142.42 116.01 C 143.23 115.62 143.57 114.66 143.19 113.85 C 142.80 113.05 141.84 112.70 141.03 113.09 L 140.13 113.52 C 139.33 113.90 138.98 114.87 139.37 115.67 C 139.75 116.48 140.72 116.82 141.52 116.44 Z M 142.35 116.04 L 143.33 115.63 C 144.15 115.29 144.54 114.34 144.20 113.51 C 143.85 112.69 142.90 112.30 142.07 112.64 L 141.10 113.05 C 140.27 113.40 139.89 114.35 140.23 115.18 C 140.58 116.00 141.53 116.39 142.35 116.04 Z M 143.28 115.65 L 144.29 115.27 C 145.13 114.95 145.55 114.01 145.22 113.17 C 144.90 112.33 143.96 111.91 143.12 112.24 L 142.12 112.62 C 141.28 112.95 140.86 113.88 141.19 114.72 C 141.51 115.56 142.45 115.98 143.28 115.65 Z M 144.26 115.28 L 145.25 114.92 C 146.10 114.62 146.54 113.68 146.23 112.84 C 145.92 111.99 144.99 111.56 144.14 111.86 L 143.15 112.22 C 142.31 112.53 141.87 113.46 142.18 114.31 C 142.48 115.15 143.42 115.59 144.26 115.28 Z M 145.24 114.93 L 146.17 114.60 C 147.02 114.30 147.47 113.37 147.17 112.52 C 146.87 111.67 145.94 111.23 145.09 111.53 L 144.16 111.85 C 143.31 112.15 142.86 113.09 143.16 113.94 C 143.46 114.78 144.39 115.23 145.24 114.93 Z M 146.18 114.60 L 147.32 114.20 C 148.17 113.90 148.61 112.96 148.31 112.11 C 148.01 111.26 147.07 110.82 146.22 111.12 L 145.08 111.52 C 144.23 111.83 143.79 112.76 144.09 113.61 C 144.39 114.46 145.33 114.91 146.18 114.60 Z M 147.33 114.20 L 148.38 113.81 C 149.23 113.50 149.66 112.56 149.35 111.72 C 149.05 110.87 148.11 110.43 147.26 110.74 L 146.21 111.12 C 145.36 111.43 144.92 112.37 145.23 113.22 C 145.54 114.07 146.48 114.51 147.33 114.20 Z M 148.39 113.81 L 149.26 113.49 C 150.11 113.17 150.54 112.23 150.23 111.38 C 149.91 110.53 148.97 110.10 148.12 110.42 L 147.25 110.74 C 146.40 111.06 145.97 112.00 146.28 112.85 C 146.60 113.70 147.54 114.13 148.39 113.81 Z M 149.27 113.49 L 150.03 113.20 C 150.88 112.88 151.31 111.94 151.00 111.09 C 150.68 110.24 149.73 109.81 148.88 110.13 L 148.11 110.41 C 147.26 110.73 146.83 111.68 147.15 112.53 C 147.47 113.38 148.42 113.81 149.27 113.49 Z M 150.03 113.21 L 150.86 112.90 C 151.71 112.59 152.15 111.64 151.83 110.79 C 151.52 109.94 150.57 109.50 149.72 109.81 L 148.89 110.12 C 148.04 110.43 147.60 111.38 147.92 112.23 C 148.23 113.08 149.17 113.52 150.03 113.21 Z M 150.85 112.91 L 151.77 112.58 C 152.63 112.27 153.07 111.32 152.76 110.47 C 152.46 109.61 151.51 109.17 150.66 109.47 L 149.73 109.81 C 148.88 110.11 148.43 111.06 148.74 111.91 C 149.05 112.77 149.99 113.21 150.85 112.91 Z M 151.77 112.58 L 152.71 112.24 C 153.57 111.94 154.02 110.99 153.71 110.13 C 153.41 109.28 152.46 108.83 151.60 109.13 L 150.66 109.47 C 149.80 109.78 149.35 110.72 149.66 111.58 C 149.96 112.44 150.91 112.89 151.77 112.58 Z M 152.72 112.25 L 153.68 111.90 C 154.54 111.59 154.98 110.65 154.67 109.79 C 154.37 108.93 153.42 108.48 152.56 108.79 L 151.60 109.13 C 150.74 109.44 150.29 110.39 150.60 111.25 C 150.91 112.11 151.86 112.55 152.72 112.25 Z M 153.68 111.90 L 154.60 111.57 C 155.46 111.25 155.90 110.30 155.59 109.44 C 155.27 108.58 154.32 108.14 153.46 108.45 L 152.55 108.79 C 151.69 109.10 151.25 110.05 151.56 110.91 C 151.87 111.77 152.82 112.21 153.68 111.90 Z M 154.61 111.57 L 155.55 111.22 C 156.41 110.90 156.84 109.94 156.53 109.08 C 156.21 108.23 155.25 107.79 154.39 108.11 L 153.45 108.46 C 152.59 108.78 152.16 109.73 152.48 110.59 C 152.79 111.45 153.75 111.89 154.61 111.57 Z M 155.56 111.22 L 156.51 110.85 C 157.37 110.53 157.80 109.57 157.48 108.71 C 157.15 107.85 156.19 107.42 155.34 107.75 L 154.38 108.11 C 153.52 108.43 153.09 109.39 153.42 110.25 C 153.74 111.11 154.70 111.54 155.56 111.22 Z M 156.53 110.85 L 157.47 110.48 C 158.33 110.15 158.76 109.19 158.42 108.33 C 158.09 107.47 157.13 107.05 156.27 107.38 L 155.32 107.75 C 154.47 108.08 154.04 109.05 154.37 109.90 C 154.71 110.76 155.67 111.18 156.53 110.85 Z M 157.49 110.48 L 158.42 110.11 C 159.27 109.77 159.69 108.80 159.35 107.95 C 159.01 107.09 158.04 106.67 157.19 107.01 L 156.26 107.38 C 155.40 107.72 154.98 108.69 155.32 109.55 C 155.66 110.40 156.63 110.82 157.49 110.48 Z M 158.43 110.11 L 159.36 109.73 C 160.21 109.39 160.62 108.41 160.28 107.56 C 159.93 106.70 158.96 106.29 158.11 106.64 L 157.18 107.02 C 156.32 107.36 155.91 108.33 156.26 109.19 C 156.60 110.04 157.58 110.45 158.43 110.11 Z M 159.37 109.73 L 160.29 109.35 C 161.14 109.00 161.55 108.02 161.20 107.17 C 160.85 106.32 159.87 105.91 159.02 106.26 L 158.10 106.64 C 157.24 106.99 156.84 107.97 157.19 108.82 C 157.54 109.67 158.51 110.08 159.37 109.73 Z M 160.30 109.35 L 161.23 108.96 C 162.08 108.61 162.48 107.63 162.13 106.78 C 161.77 105.93 160.80 105.52 159.94 105.88 L 159.01 106.26 C 158.16 106.62 157.76 107.60 158.11 108.45 C 158.47 109.30 159.44 109.70 160.30 109.35 Z M 161.23 108.96 L 162.16 108.57 C 163.01 108.22 163.41 107.24 163.06 106.39 C 162.70 105.54 161.72 105.13 160.87 105.49 L 159.94 105.88 C 159.09 106.23 158.69 107.21 159.04 108.06 C 159.40 108.91 160.38 109.32 161.23 108.96 Z M 162.16 108.57 L 163.08 108.19 C 163.93 107.83 164.33 106.85 163.97 106.00 C 163.62 105.15 162.64 104.75 161.79 105.11 L 160.87 105.49 C 160.02 105.85 159.62 106.82 159.98 107.67 C 160.33 108.52 161.31 108.92 162.16 108.57 Z M 163.07 108.19 L 163.98 107.81 C 164.83 107.46 165.24 106.48 164.88 105.63 C 164.53 104.78 163.56 104.38 162.71 104.73 L 161.80 105.11 C 160.95 105.46 160.54 106.43 160.90 107.28 C 161.25 108.13 162.22 108.54 163.07 108.19 Z M 163.98 107.81 L 164.83 107.46 C 165.68 107.11 166.09 106.14 165.74 105.29 C 165.39 104.44 164.42 104.03 163.57 104.38 L 162.71 104.73 C 161.86 105.07 161.45 106.05 161.80 106.90 C 162.15 107.75 163.12 108.16 163.98 107.81 Z M 164.82 107.47 L 165.69 107.12 C 166.55 106.77 166.96 105.80 166.62 104.94 C 166.28 104.09 165.30 103.67 164.45 104.02 L 163.57 104.37 C 162.72 104.72 162.30 105.69 162.65 106.54 C 162.99 107.40 163.96 107.81 164.82 107.47 Z M 165.69 107.12 L 166.63 106.75 C 167.49 106.41 167.91 105.44 167.57 104.58 C 167.22 103.72 166.25 103.30 165.39 103.64 L 164.45 104.01 C 163.60 104.35 163.17 105.33 163.52 106.18 C 163.86 107.04 164.83 107.46 165.69 107.12 Z M 166.62 106.76 L 167.66 106.35 C 168.52 106.01 168.95 105.04 168.61 104.18 C 168.28 103.32 167.30 102.89 166.44 103.23 L 165.40 103.63 C 164.54 103.97 164.11 104.94 164.45 105.81 C 164.79 106.67 165.76 107.09 166.62 106.76 Z M 167.66 106.36 L 168.56 106.01 C 169.43 105.67 169.86 104.70 169.52 103.83 C 169.19 102.97 168.21 102.54 167.35 102.87 L 166.44 103.22 C 165.58 103.56 165.15 104.53 165.48 105.40 C 165.82 106.26 166.79 106.69 167.66 106.36 Z M 168.56 106.01 L 169.51 105.65 C 170.38 105.31 170.81 104.34 170.47 103.47 C 170.14 102.60 169.16 102.17 168.29 102.50 L 167.35 102.87 C 166.48 103.20 166.05 104.18 166.38 105.05 C 166.72 105.92 167.69 106.35 168.56 106.01 Z M 169.51 105.65 L 170.48 105.28 C 171.35 104.94 171.78 103.96 171.45 103.09 C 171.11 102.22 170.13 101.79 169.26 102.12 L 168.29 102.50 C 167.42 102.83 166.99 103.81 167.32 104.69 C 167.66 105.56 168.64 105.99 169.51 105.65 Z M 170.49 105.28 L 171.44 104.91 C 172.31 104.57 172.74 103.58 172.40 102.71 C 172.06 101.84 171.08 101.41 170.20 101.75 L 169.25 102.12 C 168.38 102.46 167.95 103.44 168.29 104.32 C 168.63 105.19 169.61 105.62 170.49 105.28 Z M 171.45 104.91 L 172.36 104.55 C 173.23 104.20 173.66 103.21 173.31 102.34 C 172.97 101.47 171.98 101.04 171.10 101.38 L 170.19 101.75 C 169.32 102.09 168.89 103.08 169.24 103.96 C 169.59 104.83 170.58 105.26 171.45 104.91 Z M 172.37 104.56 L 173.62 104.06 C 174.50 103.70 174.92 102.70 174.57 101.83 C 174.22 100.95 173.22 100.52 172.34 100.87 L 171.09 101.37 C 170.21 101.73 169.79 102.73 170.14 103.61 C 170.49 104.49 171.49 104.91 172.37 104.56 Z M 173.54 104.11 L 174.58 103.76 C 175.49 103.45 175.98 102.46 175.67 101.55 C 175.36 100.64 174.37 100.16 173.46 100.46 L 172.42 100.82 C 171.51 101.13 171.02 102.12 171.33 103.02 C 171.64 103.93 172.63 104.42 173.54 104.11 Z M 174.01 103.87 L 174.61 103.88 C 175.59 103.88 176.38 103.10 176.39 102.12 C 176.39 101.15 175.60 100.35 174.63 100.35 L 174.03 100.35 C 173.06 100.34 172.26 101.13 172.26 102.10 C 172.25 103.08 173.04 103.87 174.01 103.87 Z M 172.85 102.35 L 172.92 102.84 C 173.05 103.82 173.95 104.51 174.93 104.37 C 175.91 104.24 176.59 103.34 176.46 102.36 L 176.39 101.87 C 176.26 100.90 175.36 100.21 174.38 100.34 C 173.40 100.48 172.72 101.38 172.85 102.35 Z M 173.00 101.96 L 172.66 102.86 C 172.31 103.79 172.78 104.83 173.71 105.19 C 174.64 105.54 175.68 105.07 176.03 104.14 L 176.37 103.25 C 176.73 102.31 176.26 101.27 175.33 100.92 C 174.40 100.57 173.36 101.03 173.00 101.96 Z M 172.70 102.73 L 172.18 103.84 C 171.75 104.75 172.14 105.84 173.05 106.26 C 173.96 106.69 175.04 106.30 175.47 105.39 L 175.99 104.28 C 176.42 103.37 176.03 102.28 175.12 101.86 C 174.21 101.43 173.13 101.82 172.70 102.73 Z M 172.14 103.89 L 171.71 104.90 C 171.30 105.83 171.73 106.90 172.66 107.31 C 173.58 107.71 174.66 107.28 175.06 106.35 L 175.50 105.35 C 175.90 104.42 175.48 103.34 174.55 102.94 C 173.62 102.54 172.55 102.96 172.14 103.89 Z M 171.66 105.00 L 171.32 105.93 C 170.98 106.89 171.47 107.94 172.42 108.28 C 173.37 108.63 174.42 108.14 174.77 107.18 L 175.11 106.25 C 175.45 105.30 174.96 104.25 174.01 103.90 C 173.06 103.56 172.01 104.05 171.66 105.00 Z M 171.29 106.04 L 171.01 106.98 C 170.72 107.95 171.27 108.97 172.24 109.26 C 173.21 109.55 174.23 109.00 174.52 108.03 L 174.80 107.08 C 175.09 106.11 174.54 105.09 173.57 104.80 C 172.60 104.51 171.58 105.07 171.29 106.04 Z M 170.98 107.08 L 170.75 108.06 C 170.51 109.05 171.12 110.03 172.11 110.27 C 173.09 110.51 174.08 109.90 174.32 108.91 L 174.55 107.93 C 174.78 106.95 174.18 105.96 173.19 105.72 C 172.21 105.49 171.22 106.09 170.98 107.08 Z M 170.73 108.14 L 170.55 109.06 C 170.36 110.06 171.01 111.02 172.01 111.21 C 173.01 111.40 173.97 110.75 174.16 109.75 L 174.34 108.83 C 174.53 107.83 173.87 106.87 172.88 106.68 C 171.88 106.49 170.92 107.14 170.73 108.14 Z M 170.53 109.12 L 170.39 110.08 C 170.23 111.08 170.92 112.02 171.93 112.18 C 172.93 112.33 173.87 111.64 174.03 110.64 L 174.17 109.68 C 174.33 108.68 173.64 107.74 172.63 107.59 C 171.63 107.43 170.69 108.12 170.53 109.12 Z M 170.38 110.13 L 170.26 111.13 C 170.13 112.15 170.85 113.07 171.87 113.19 C 172.88 113.31 173.80 112.59 173.92 111.58 L 174.04 110.58 C 174.16 109.57 173.44 108.65 172.43 108.52 C 171.42 108.40 170.50 109.12 170.38 110.13 Z M 170.25 111.19 L 170.15 112.24 C 170.05 113.25 170.80 114.16 171.82 114.25 C 172.84 114.34 173.74 113.60 173.83 112.58 L 173.93 111.53 C 174.02 110.51 173.28 109.61 172.26 109.51 C 171.24 109.42 170.34 110.17 170.25 111.19 Z M 170.14 112.28 L 170.07 113.27 C 170.00 114.29 170.77 115.18 171.79 115.25 C 172.81 115.32 173.70 114.55 173.77 113.53 L 173.84 112.54 C 173.91 111.51 173.14 110.63 172.12 110.56 C 171.10 110.49 170.21 111.26 170.14 112.28 Z M 170.07 113.31 L 170.02 114.25 C 169.97 115.28 170.75 116.15 171.78 116.20 C 172.80 116.25 173.67 115.47 173.73 114.44 L 173.78 113.50 C 173.83 112.47 173.04 111.60 172.02 111.55 C 170.99 111.49 170.12 112.28 170.07 113.31 Z M 170.02 114.28 L 169.98 115.26 C 169.94 116.29 170.74 117.15 171.76 117.19 C 172.79 117.23 173.65 116.43 173.69 115.40 L 173.73 114.42 C 173.77 113.39 172.97 112.53 171.94 112.49 C 170.92 112.45 170.05 113.25 170.02 114.28 Z M 169.98 115.28 L 169.95 116.30 C 169.92 117.32 170.73 118.18 171.76 118.21 C 172.78 118.23 173.64 117.42 173.67 116.40 L 173.70 115.38 C 173.72 114.35 172.91 113.50 171.89 113.47 C 170.86 113.44 170.00 114.25 169.98 115.28 Z M 169.94 116.31 L 169.93 117.36 C 169.91 118.39 170.72 119.24 171.75 119.26 C 172.78 119.28 173.63 118.46 173.65 117.43 L 173.67 116.38 C 173.69 115.35 172.87 114.50 171.84 114.48 C 170.81 114.46 169.96 115.28 169.94 116.31 Z M 169.92 117.37 L 169.91 118.43 C 169.90 119.46 170.72 120.31 171.75 120.32 C 172.78 120.33 173.63 119.51 173.64 118.48 L 173.65 117.42 C 173.67 116.39 172.84 115.54 171.81 115.53 C 170.78 115.52 169.94 116.34 169.92 117.37 Z M 169.91 118.44 L 169.90 119.48 C 169.89 120.51 170.72 121.35 171.75 121.36 C 172.78 121.37 173.62 120.54 173.63 119.51 L 173.64 118.47 C 173.65 117.44 172.82 116.59 171.79 116.59 C 170.76 116.58 169.92 117.41 169.91 118.44 Z M 169.90 119.49 L 169.89 120.53 C 169.89 121.56 170.72 122.40 171.75 122.41 C 172.78 122.41 173.62 121.58 173.63 120.55 L 173.64 119.50 C 173.64 118.47 172.81 117.63 171.78 117.63 C 170.74 117.62 169.90 118.45 169.90 119.49 Z M 169.89 120.53 L 169.89 121.55 C 169.88 122.59 170.72 123.43 171.75 123.43 C 172.79 123.43 173.63 122.60 173.63 121.57 L 173.63 120.54 C 173.63 119.51 172.80 118.67 171.77 118.67 C 170.73 118.66 169.89 119.50 169.89 120.53 Z M 169.88 121.56 L 169.88 122.54 C 169.88 123.58 170.72 124.42 171.75 124.42 C 172.79 124.42 173.63 123.58 173.63 122.55 L 173.63 121.56 C 173.63 120.53 172.79 119.69 171.76 119.69 C 170.73 119.69 169.89 120.52 169.88 121.56 Z M 169.88 122.54 L 169.88 123.47 C 169.88 124.50 170.72 125.34 171.76 125.34 C 172.79 125.34 173.63 124.51 173.63 123.47 L 173.63 122.54 C 173.63 121.51 172.79 120.67 171.76 120.67 C 170.72 120.67 169.88 121.51 169.88 122.54 Z M 169.88 123.47 L 169.88 124.55 C 169.88 125.59 170.72 126.43 171.76 126.43 C 172.79 126.43 173.63 125.59 173.63 124.55 L 173.63 123.47 C 173.63 122.43 172.79 121.59 171.76 121.59 C 170.72 121.59 169.88 122.43 169.88 123.47 Z M 169.88 124.56 L 169.88 125.59 C 169.88 126.63 170.72 127.47 171.76 127.47 C 172.80 127.46 173.64 126.62 173.64 125.59 L 173.63 124.55 C 173.63 123.51 172.79 122.67 171.75 122.68 C 170.72 122.68 169.88 123.52 169.88 124.56 Z M 169.88 125.60 L 169.89 126.56 C 169.89 127.59 170.74 128.43 171.77 128.42 C 172.81 128.42 173.65 127.57 173.64 126.53 L 173.64 125.58 C 173.63 124.54 172.79 123.70 171.75 123.71 C 170.71 123.72 169.87 124.56 169.88 125.60 Z M 169.88 126.57 L 169.89 127.49 C 169.91 128.53 170.76 129.36 171.80 129.34 C 172.83 129.33 173.67 128.48 173.65 127.44 L 173.64 126.52 C 173.63 125.48 172.78 124.65 171.74 124.67 C 170.70 124.68 169.87 125.53 169.88 126.57 Z M 169.89 127.50 L 169.91 128.46 C 169.93 129.50 170.79 130.32 171.83 130.30 C 172.87 130.28 173.69 129.42 173.67 128.38 L 173.65 127.43 C 173.63 126.39 172.78 125.56 171.74 125.58 C 170.70 125.61 169.87 126.46 169.89 127.50 Z M 169.91 128.48 L 169.94 129.46 C 169.97 130.50 170.84 131.32 171.88 131.29 C 172.92 131.26 173.73 130.39 173.70 129.36 L 173.67 128.37 C 173.65 127.33 172.78 126.51 171.74 126.54 C 170.70 126.57 169.88 127.44 169.91 128.48 Z M 169.94 129.48 L 169.98 130.48 C 170.02 131.52 170.89 132.34 171.93 132.30 C 172.97 132.26 173.78 131.38 173.74 130.34 L 173.70 129.34 C 173.67 128.30 172.79 127.49 171.75 127.53 C 170.71 127.57 169.90 128.44 169.94 129.48 Z M 169.98 130.50 L 170.02 131.52 C 170.07 132.56 170.95 133.37 171.99 133.32 C 173.03 133.27 173.84 132.39 173.79 131.35 L 173.74 130.33 C 173.70 129.29 172.81 128.48 171.77 128.53 C 170.73 128.58 169.93 129.46 169.98 130.50 Z M 170.02 131.54 L 170.07 132.50 C 170.13 133.54 171.02 134.34 172.06 134.29 C 173.10 134.23 173.90 133.34 173.84 132.30 L 173.79 131.34 C 173.73 130.30 172.85 129.50 171.81 129.55 C 170.77 129.61 169.97 130.50 170.02 131.54 Z M 170.07 132.52 L 170.13 133.49 C 170.19 134.53 171.09 135.33 172.13 135.26 C 173.17 135.20 173.96 134.31 173.90 133.27 L 173.84 132.29 C 173.78 131.25 172.89 130.46 171.84 130.52 C 170.80 130.58 170.01 131.47 170.07 132.52 Z M 170.13 133.50 L 170.20 134.51 C 170.26 135.55 171.16 136.34 172.20 136.27 C 173.25 136.20 174.03 135.30 173.97 134.26 L 173.90 133.26 C 173.83 132.22 172.93 131.43 171.89 131.50 C 170.85 131.56 170.06 132.46 170.13 133.50 Z M 170.20 134.52 L 170.27 135.55 C 170.34 136.59 171.25 137.38 172.29 137.30 C 173.33 137.23 174.11 136.32 174.04 135.28 L 173.97 134.25 C 173.89 133.21 172.99 132.42 171.95 132.50 C 170.91 132.57 170.12 133.48 170.20 134.52 Z M 170.27 135.56 L 170.34 136.56 C 170.42 137.60 171.33 138.38 172.37 138.30 C 173.41 138.22 174.19 137.31 174.12 136.27 L 174.04 135.27 C 173.96 134.23 173.05 133.45 172.01 133.53 C 170.97 133.61 170.19 134.52 170.27 135.56 Z M 170.34 136.56 L 170.42 137.56 C 170.50 138.60 171.41 139.38 172.46 139.29 C 173.50 139.21 174.28 138.30 174.20 137.26 L 174.12 136.26 C 174.03 135.22 173.12 134.44 172.08 134.53 C 171.04 134.61 170.26 135.52 170.34 136.56 Z M 170.42 137.56 L 170.50 138.57 C 170.59 139.61 171.50 140.39 172.54 140.30 C 173.59 140.22 174.36 139.30 174.28 138.26 L 174.20 137.25 C 174.11 136.21 173.20 135.43 172.15 135.52 C 171.11 135.60 170.33 136.52 170.42 137.56 Z M 170.50 138.57 L 170.58 139.58 C 170.67 140.62 171.59 141.40 172.63 141.31 C 173.68 141.22 174.45 140.30 174.37 139.26 L 174.28 138.25 C 174.19 137.21 173.28 136.43 172.23 136.52 C 171.19 136.61 170.41 137.53 170.50 138.57 Z M 170.58 139.58 L 170.67 140.58 C 170.76 141.63 171.68 142.40 172.72 142.31 C 173.77 142.22 174.54 141.30 174.45 140.26 L 174.37 139.25 C 174.28 138.21 173.36 137.44 172.31 137.53 C 171.27 137.62 170.49 138.54 170.58 139.58 Z M 170.67 140.58 L 170.76 141.58 C 170.85 142.63 171.77 143.40 172.81 143.31 C 173.86 143.22 174.63 142.30 174.54 141.25 L 174.45 140.25 C 174.36 139.21 173.44 138.43 172.40 138.53 C 171.35 138.62 170.58 139.54 170.67 140.58 Z M 170.76 141.58 L 170.84 142.57 C 170.93 143.62 171.85 144.39 172.89 144.30 C 173.94 144.22 174.71 143.30 174.63 142.25 L 174.54 141.26 C 174.45 140.21 173.53 139.44 172.49 139.53 C 171.44 139.62 170.67 140.53 170.76 141.58 Z M 170.84 142.56 L 170.92 143.55 C 171.00 144.60 171.91 145.38 172.96 145.29 C 174.00 145.21 174.79 144.30 174.70 143.25 L 174.62 142.26 C 174.54 141.22 173.63 140.44 172.58 140.52 C 171.54 140.60 170.76 141.52 170.84 142.56 Z M 170.92 143.53 L 170.99 144.53 C 171.06 145.58 171.96 146.36 173.01 146.29 C 174.06 146.22 174.84 145.31 174.77 144.27 L 174.70 143.27 C 174.63 142.23 173.73 141.44 172.68 141.51 C 171.63 141.58 170.85 142.49 170.92 143.53 Z M 170.99 144.51 L 171.04 145.50 C 171.10 146.54 172.00 147.34 173.04 147.28 C 174.09 147.22 174.89 146.33 174.83 145.28 L 174.77 144.29 C 174.71 143.25 173.82 142.45 172.77 142.51 C 171.73 142.57 170.93 143.46 170.99 144.51 Z M 171.04 145.47 L 171.08 146.46 C 171.13 147.51 172.02 148.32 173.07 148.27 C 174.11 148.23 174.92 147.34 174.88 146.29 L 174.83 145.30 C 174.78 144.26 173.90 143.44 172.85 143.49 C 171.80 143.54 170.99 144.43 171.04 145.47 Z M 171.08 146.45 L 171.12 147.45 C 171.16 148.50 172.04 149.31 173.09 149.28 C 174.13 149.24 174.95 148.36 174.92 147.31 L 174.88 146.31 C 174.84 145.26 173.96 144.44 172.91 144.48 C 171.86 144.52 171.04 145.40 171.08 146.45 Z M 171.12 147.44 L 171.15 148.45 C 171.18 149.49 172.06 150.32 173.11 150.29 C 174.16 150.25 174.98 149.38 174.95 148.33 L 174.92 147.32 C 174.88 146.27 174.01 145.44 172.96 145.48 C 171.91 145.51 171.08 146.39 171.12 147.44 Z M 171.15 148.44 L 171.17 149.45 C 171.20 150.50 172.08 151.33 173.13 151.30 C 174.18 151.27 175.01 150.40 174.98 149.34 L 174.95 148.33 C 174.92 147.28 174.04 146.45 172.99 146.48 C 171.94 146.51 171.12 147.39 171.15 148.44 Z M 171.17 149.45 L 171.20 150.45 C 171.23 151.50 172.11 152.33 173.16 152.30 C 174.21 152.27 175.04 151.39 175.01 150.34 L 174.98 149.35 C 174.95 148.29 174.08 147.47 173.02 147.49 C 171.97 147.52 171.14 148.40 171.17 149.45 Z M 171.20 150.45 L 171.23 151.44 C 171.25 152.49 172.13 153.32 173.18 153.30 C 174.23 153.27 175.06 152.39 175.04 151.34 L 175.01 150.34 C 174.98 149.29 174.11 148.46 173.05 148.49 C 172.00 148.52 171.17 149.39 171.20 150.45 Z M 171.22 151.44 L 171.25 152.44 C 171.27 153.49 172.15 154.32 173.20 154.30 C 174.25 154.27 175.09 153.40 175.06 152.34 L 175.04 151.35 C 175.01 150.29 174.14 149.46 173.08 149.48 C 172.03 149.51 171.20 150.38 171.22 151.44 Z M 171.25 152.43 L 171.27 153.43 C 171.29 154.49 172.16 155.32 173.21 155.30 C 174.27 155.28 175.11 154.41 175.08 153.35 L 175.06 152.35 C 175.04 151.30 174.17 150.46 173.12 150.48 C 172.06 150.50 171.22 151.38 171.25 152.43 Z M 171.27 153.42 L 171.28 154.43 C 171.30 155.48 172.17 156.32 173.22 156.31 C 174.28 156.29 175.12 155.42 175.10 154.37 L 175.09 153.36 C 175.07 152.31 174.20 151.47 173.15 151.48 C 172.09 151.50 171.25 152.37 171.27 153.42 Z M 171.28 154.42 L 171.29 155.40 C 171.30 156.46 172.17 157.30 173.22 157.29 C 174.28 157.28 175.12 156.42 175.11 155.36 L 175.10 154.38 C 175.09 153.32 174.23 152.47 173.17 152.48 C 172.12 152.50 171.27 153.36 171.28 154.42 Z M 171.29 155.39 L 171.29 156.39 C 171.30 157.44 172.16 158.29 173.22 158.29 C 174.28 158.28 175.13 157.42 175.12 156.36 L 175.11 155.37 C 175.11 154.31 174.25 153.46 173.19 153.47 C 172.13 153.48 171.28 154.34 171.29 155.39 Z M 171.29 156.38 L 171.30 157.38 C 171.30 158.44 172.16 159.29 173.22 159.29 C 174.27 159.29 175.13 158.43 175.12 157.37 L 175.12 156.37 C 175.12 155.31 174.26 154.46 173.20 154.46 C 172.14 154.46 171.29 155.32 171.29 156.38 Z M 171.29 157.38 L 171.30 158.39 C 171.30 159.44 172.16 160.30 173.21 160.30 C 174.27 160.30 175.13 159.44 175.13 158.38 L 175.13 157.37 C 175.12 156.31 174.27 155.46 173.21 155.46 C 172.15 155.46 171.29 156.32 171.29 157.38 Z M 171.29 158.38 L 171.29 159.39 C 171.29 160.45 172.15 161.31 173.21 161.31 C 174.27 161.31 175.13 160.45 175.13 159.39 L 175.13 158.38 C 175.13 157.32 174.27 156.47 173.21 156.47 C 172.15 156.47 171.29 157.33 171.29 158.38 Z M 171.29 159.39 L 171.29 160.36 C 171.29 161.42 172.15 162.28 173.21 162.28 C 174.27 162.28 175.13 161.42 175.13 160.36 L 175.13 159.39 C 175.13 158.33 174.27 157.47 173.21 157.47 C 172.15 157.47 171.29 158.33 171.29 159.39 Z M 171.29 160.36 L 171.29 161.34 C 171.29 162.40 172.15 163.26 173.21 163.26 C 174.27 163.26 175.13 162.40 175.13 161.34 L 175.13 160.36 C 175.13 159.30 174.27 158.44 173.21 158.44 C 172.15 158.44 171.29 159.30 171.29 160.36 Z M 171.29 161.34 L 171.29 162.34 C 171.29 163.40 172.15 164.26 173.21 164.26 C 174.27 164.26 175.13 163.40 175.13 162.34 L 175.13 161.34 C 175.13 160.28 174.27 159.42 173.21 159.42 C 172.15 159.42 171.29 160.28 171.29 161.34 Z M 171.29 162.34 L 171.29 163.36 C 171.29 164.42 172.15 165.28 173.21 165.28 C 174.27 165.28 175.13 164.42 175.13 163.36 L 175.13 162.34 C 175.13 161.28 174.27 160.42 173.21 160.42 C 172.15 160.42 171.29 161.28 171.29 162.34 Z M 171.29 163.36 L 171.29 164.40 C 171.29 165.46 172.15 166.32 173.21 166.32 C 174.27 166.32 175.13 165.46 175.13 164.40 L 175.13 163.36 C 175.13 162.30 174.27 161.44 173.21 161.44 C 172.15 161.44 171.29 162.30 171.29 163.36 Z M 171.29 164.40 L 171.29 165.40 C 171.29 166.46 172.15 167.33 173.21 167.33 C 174.27 167.33 175.13 166.46 175.13 165.40 L 175.13 164.40 C 175.13 163.34 174.27 162.47 173.21 162.47 C 172.15 162.47 171.29 163.34 171.29 164.40 Z M 171.29 165.40 L 171.29 166.42 C 171.29 167.48 172.15 168.34 173.21 168.34 C 174.27 168.34 175.13 167.48 175.13 166.42 L 175.13 165.40 C 175.13 164.34 174.27 163.48 173.21 163.48 C 172.15 163.48 171.29 164.34 171.29 165.40 Z M 171.29 166.42 L 171.29 167.43 C 171.29 168.50 172.15 169.36 173.21 169.36 C 174.27 169.36 175.14 168.50 175.14 167.43 L 175.14 166.42 C 175.14 165.36 174.27 164.49 173.21 164.49 C 172.15 164.49 171.29 165.36 171.29 166.42 Z M 171.29 167.43 L 171.29 168.44 C 171.29 169.50 172.15 170.36 173.21 170.36 C 174.27 170.36 175.14 169.50 175.14 168.44 L 175.14 167.43 C 175.14 166.37 174.27 165.51 173.21 165.51 C 172.15 165.51 171.29 166.37 171.29 167.43 Z M 171.29 168.44 L 171.29 169.42 C 171.29 170.48 172.15 171.34 173.21 171.34 C 174.27 171.34 175.14 170.48 175.14 169.42 L 175.14 168.44 C 175.14 167.38 174.27 166.51 173.21 166.51 C 172.15 166.51 171.29 167.38 171.29 168.44 Z M 171.29 169.42 L 171.29 170.44 C 171.29 171.50 172.15 172.36 173.21 172.36 C 174.27 172.36 175.14 171.50 175.14 170.44 L 175.14 169.42 C 175.14 168.36 174.27 167.50 173.21 167.49 C 172.15 167.49 171.29 168.36 171.29 169.42 Z M 171.29 170.43 L 171.28 171.48 C 171.28 172.54 172.14 173.41 173.21 173.41 C 174.27 173.41 175.13 172.55 175.14 171.49 L 175.14 170.44 C 175.14 169.38 174.28 168.51 173.21 168.51 C 172.15 168.51 171.29 169.37 171.29 170.43 Z M 171.28 171.47 L 171.28 172.47 C 171.27 173.54 172.12 174.41 173.19 174.41 C 174.25 174.42 175.12 173.57 175.13 172.50 L 175.14 171.50 C 175.14 170.43 174.29 169.56 173.22 169.56 C 172.16 169.55 171.29 170.40 171.28 171.47 Z M 171.28 172.46 L 171.26 173.43 C 171.24 174.49 172.09 175.37 173.15 175.39 C 174.22 175.41 175.09 174.56 175.11 173.49 L 175.13 172.52 C 175.15 171.46 174.30 170.58 173.23 170.56 C 172.17 170.54 171.29 171.39 171.28 172.46 Z M 171.26 173.40 L 171.23 174.36 C 171.20 175.42 172.04 176.31 173.10 176.34 C 174.16 176.37 175.05 175.54 175.08 174.47 L 175.11 173.52 C 175.14 172.46 174.31 171.57 173.24 171.54 C 172.18 171.50 171.29 172.34 171.26 173.40 Z M 171.23 174.32 L 171.18 175.32 C 171.13 176.39 171.95 177.29 173.02 177.34 C 174.08 177.39 174.98 176.57 175.03 175.51 L 175.08 174.51 C 175.13 173.44 174.31 172.54 173.25 172.49 C 172.19 172.44 171.28 173.26 171.23 174.32 Z M 171.19 175.29 L 171.12 176.30 C 171.05 177.36 171.85 178.28 172.91 178.35 C 173.97 178.42 174.89 177.62 174.96 176.56 L 175.03 175.54 C 175.10 174.48 174.30 173.56 173.24 173.49 C 172.18 173.42 171.26 174.22 171.19 175.29 Z M 171.12 176.27 L 171.04 177.27 C 170.95 178.33 171.74 179.26 172.80 179.35 C 173.86 179.44 174.79 178.65 174.88 177.59 L 174.96 176.59 C 175.05 175.53 174.26 174.60 173.20 174.51 C 172.14 174.42 171.21 175.21 171.12 176.27 Z M 171.04 177.24 L 170.94 178.22 C 170.84 179.28 171.61 180.22 172.67 180.32 C 173.73 180.43 174.68 179.65 174.78 178.59 L 174.88 177.62 C 174.98 176.56 174.20 175.61 173.15 175.51 C 172.09 175.41 171.14 176.18 171.04 177.24 Z M 170.95 178.20 L 170.84 179.18 C 170.72 180.24 171.49 181.19 172.54 181.31 C 173.60 181.43 174.55 180.66 174.67 179.60 L 174.78 178.62 C 174.89 177.56 174.13 176.61 173.07 176.49 C 172.01 176.38 171.06 177.14 170.95 178.20 Z M 170.84 179.17 L 170.72 180.19 C 170.59 181.25 171.35 182.20 172.41 182.33 C 173.46 182.46 174.42 181.70 174.55 180.64 L 174.67 179.62 C 174.79 178.56 174.04 177.61 172.98 177.48 C 171.92 177.36 170.97 178.11 170.84 179.17 Z M 170.72 180.18 L 170.60 181.18 C 170.47 182.23 171.22 183.19 172.27 183.33 C 173.33 183.46 174.29 182.71 174.42 181.65 L 174.55 180.65 C 174.68 179.60 173.93 178.64 172.87 178.50 C 171.81 178.37 170.85 179.12 170.72 180.18 Z M 170.60 181.17 L 170.47 182.14 C 170.34 183.20 171.09 184.16 172.15 184.30 C 173.20 184.43 174.17 183.68 174.30 182.63 L 174.42 181.65 C 174.55 180.60 173.81 179.63 172.75 179.50 C 171.69 179.37 170.73 180.12 170.60 181.17 Z M 170.47 182.15 L 170.36 183.09 C 170.23 184.15 170.98 185.11 172.03 185.24 C 173.09 185.37 174.05 184.62 174.18 183.56 L 174.30 182.62 C 174.43 181.57 173.68 180.60 172.62 180.47 C 171.57 180.34 170.60 181.09 170.47 182.15 Z M 170.36 183.10 L 170.25 184.02 C 170.12 185.08 170.87 186.04 171.93 186.16 C 172.99 186.29 173.94 185.54 174.07 184.48 L 174.18 183.56 C 174.31 182.50 173.56 181.54 172.50 181.41 C 171.44 181.29 170.48 182.04 170.36 183.10 Z M 170.25 184.02 L 170.13 184.97 C 170.00 186.03 170.75 186.99 171.81 187.12 C 172.87 187.24 173.83 186.49 173.95 185.44 L 174.07 184.48 C 174.20 183.43 173.45 182.47 172.39 182.34 C 171.34 182.21 170.38 182.96 170.25 184.02 Z M 170.13 184.96 L 170.00 185.99 C 169.87 187.04 170.61 188.01 171.67 188.14 C 172.72 188.28 173.69 187.53 173.82 186.47 L 173.95 185.45 C 174.09 184.39 173.34 183.43 172.29 183.29 C 171.23 183.16 170.27 183.91 170.13 184.96 Z M 170.01 185.97 L 169.86 187.04 C 169.72 188.10 170.45 189.07 171.51 189.21 C 172.56 189.36 173.53 188.62 173.67 187.57 L 173.82 186.49 C 173.96 185.44 173.22 184.47 172.17 184.32 C 171.12 184.18 170.15 184.92 170.01 185.97 Z M 169.86 187.03 L 169.72 188.01 C 169.57 189.07 170.29 190.04 171.35 190.20 C 172.40 190.35 173.37 189.62 173.53 188.57 L 173.67 187.58 C 173.82 186.53 173.09 185.55 172.04 185.40 C 170.99 185.25 170.01 185.98 169.86 187.03 Z M 169.72 188.00 L 169.56 189.02 C 169.40 190.07 170.12 191.06 171.17 191.22 C 172.22 191.38 173.20 190.66 173.36 189.61 L 173.52 188.59 C 173.68 187.54 172.97 186.55 171.92 186.39 C 170.87 186.23 169.88 186.95 169.72 188.00 Z M 169.57 189.00 L 169.40 190.03 C 169.22 191.08 169.93 192.07 170.98 192.24 C 172.03 192.41 173.02 191.70 173.19 190.66 L 173.36 189.63 C 173.53 188.58 172.82 187.59 171.78 187.42 C 170.73 187.25 169.74 187.96 169.57 189.00 Z M 169.40 190.00 L 169.23 190.99 C 169.04 192.03 169.73 193.03 170.78 193.22 C 171.82 193.41 172.82 192.71 173.01 191.67 L 173.18 190.68 C 173.37 189.64 172.68 188.64 171.63 188.45 C 170.59 188.26 169.59 188.96 169.40 190.00 Z M 169.23 190.95 L 169.03 191.94 C 168.82 192.98 169.50 194.00 170.54 194.21 C 171.58 194.42 172.59 193.74 172.80 192.70 L 173.00 191.71 C 173.21 190.67 172.54 189.65 171.50 189.44 C 170.46 189.24 169.44 189.91 169.23 190.95 Z M 169.06 191.83 L 168.73 193.10 C 168.46 194.12 169.07 195.17 170.09 195.44 C 171.11 195.71 172.16 195.10 172.43 194.08 L 172.77 192.82 C 173.04 191.79 172.43 190.74 171.41 190.47 C 170.38 190.20 169.34 190.81 169.06 191.83 Z M 168.90 192.69 L 168.49 193.45 C 167.99 194.38 168.34 195.54 169.27 196.04 C 170.20 196.53 171.36 196.18 171.85 195.25 L 172.26 194.49 C 172.76 193.56 172.41 192.40 171.48 191.90 C 170.55 191.41 169.40 191.76 168.90 192.69 Z M 169.65 192.53 L 169.11 192.68 C 168.10 192.97 167.52 194.02 167.81 195.03 C 168.09 196.04 169.15 196.62 170.16 196.33 L 170.69 196.18 C 171.70 195.89 172.28 194.84 172.00 193.83 C 171.71 192.82 170.66 192.24 169.65 192.53 Z M 170.64 192.92 L 169.99 192.51 C 169.12 191.96 167.95 192.22 167.40 193.10 C 166.85 193.97 167.11 195.14 167.99 195.69 L 168.63 196.10 C 169.51 196.65 170.67 196.39 171.22 195.51 C 171.78 194.63 171.51 193.47 170.64 192.92 Z M 170.33 192.83 L 169.59 192.05 C 168.89 191.30 167.72 191.27 166.98 191.97 C 166.24 192.68 166.20 193.85 166.91 194.59 L 167.65 195.37 C 168.35 196.11 169.52 196.15 170.26 195.44 C 171.00 194.74 171.04 193.57 170.33 192.83 Z M 169.67 192.18 L 168.90 191.22 C 168.27 190.43 167.13 190.31 166.34 190.94 C 165.56 191.57 165.43 192.71 166.06 193.50 L 166.83 194.46 C 167.46 195.24 168.60 195.37 169.39 194.74 C 170.17 194.11 170.30 192.97 169.67 192.18 Z M 168.89 191.29 L 168.31 190.53 C 167.72 189.75 166.61 189.60 165.83 190.19 C 165.06 190.79 164.91 191.90 165.50 192.67 L 166.07 193.43 C 166.66 194.21 167.78 194.36 168.55 193.77 C 169.33 193.17 169.48 192.06 168.89 191.29 Z M 168.28 190.60 L 167.70 189.81 C 167.15 189.06 166.08 188.89 165.33 189.44 C 164.57 190.00 164.41 191.06 164.96 191.82 L 165.53 192.60 C 166.09 193.36 167.15 193.53 167.91 192.97 C 168.67 192.42 168.83 191.36 168.28 190.60 Z M 167.67 189.89 L 167.09 189.06 C 166.58 188.32 165.56 188.14 164.83 188.65 C 164.09 189.16 163.91 190.18 164.42 190.92 L 164.99 191.74 C 165.51 192.48 166.52 192.67 167.26 192.15 C 168.00 191.64 168.18 190.62 167.67 189.89 Z M 167.06 189.13 L 166.48 188.26 C 166.01 187.54 165.04 187.34 164.33 187.81 C 163.61 188.28 163.41 189.25 163.88 189.97 L 164.45 190.84 C 164.92 191.56 165.89 191.76 166.61 191.29 C 167.33 190.82 167.53 189.85 167.06 189.13 Z M 166.46 188.32 L 165.92 187.44 C 165.48 186.73 164.56 186.51 163.85 186.95 C 163.14 187.38 162.92 188.31 163.35 189.02 L 163.90 189.90 C 164.33 190.61 165.26 190.83 165.97 190.39 C 166.68 189.96 166.90 189.03 166.46 188.32 Z M 165.92 187.48 L 165.40 186.59 C 164.99 185.88 164.08 185.64 163.37 186.05 C 162.66 186.46 162.42 187.37 162.83 188.08 L 163.35 188.98 C 163.77 189.69 164.68 189.93 165.38 189.51 C 166.09 189.10 166.33 188.19 165.92 187.48 Z M 165.40 186.62 L 164.90 185.72 C 164.51 185.01 163.61 184.75 162.90 185.15 C 162.19 185.54 161.93 186.44 162.33 187.15 L 162.83 188.05 C 163.22 188.76 164.12 189.02 164.83 188.62 C 165.54 188.23 165.80 187.33 165.40 186.62 Z M 164.91 185.75 L 164.44 184.87 C 164.06 184.16 163.18 183.89 162.47 184.26 C 161.75 184.64 161.48 185.53 161.86 186.24 L 162.33 187.12 C 162.70 187.83 163.59 188.10 164.30 187.73 C 165.01 187.35 165.28 186.46 164.91 185.75 Z M 164.44 184.90 L 164.02 184.07 C 163.66 183.36 162.79 183.07 162.08 183.43 C 161.36 183.79 161.08 184.66 161.44 185.38 L 161.86 186.21 C 162.22 186.92 163.09 187.21 163.80 186.85 C 164.52 186.49 164.80 185.62 164.44 184.90 Z M 164.03 184.11 L 163.56 183.12 C 163.22 182.40 162.36 182.09 161.64 182.44 C 160.93 182.78 160.62 183.63 160.96 184.35 L 161.43 185.34 C 161.77 186.06 162.63 186.36 163.35 186.02 C 164.07 185.68 164.37 184.82 164.03 184.11 Z M 163.57 183.16 L 163.17 182.25 C 162.85 181.52 162.01 181.19 161.28 181.51 C 160.56 181.83 160.23 182.68 160.55 183.40 L 160.95 184.31 C 161.27 185.04 162.11 185.37 162.84 185.05 C 163.56 184.73 163.89 183.88 163.57 183.16 Z M 163.18 182.28 L 162.82 181.41 C 162.52 180.68 161.68 180.33 160.95 180.63 C 160.22 180.93 159.88 181.77 160.18 182.50 L 160.54 183.37 C 160.84 184.10 161.68 184.45 162.41 184.15 C 163.14 183.85 163.48 183.01 163.18 182.28 Z M 162.83 181.43 L 162.48 180.55 C 162.18 179.81 161.36 179.46 160.62 179.75 C 159.89 180.04 159.53 180.87 159.82 181.60 L 160.17 182.48 C 160.47 183.21 161.29 183.57 162.03 183.28 C 162.76 182.99 163.12 182.16 162.83 181.43 Z M 162.48 180.55 L 162.12 179.64 C 161.83 178.91 161.01 178.54 160.27 178.83 C 159.54 179.12 159.18 179.94 159.47 180.68 L 159.82 181.59 C 160.11 182.32 160.94 182.69 161.67 182.40 C 162.40 182.11 162.76 181.29 162.48 180.55 Z M 162.12 179.64 L 161.76 178.70 C 161.47 177.97 160.65 177.61 159.91 177.89 C 159.18 178.17 158.82 179.00 159.10 179.73 L 159.46 180.67 C 159.75 181.41 160.57 181.77 161.31 181.49 C 162.04 181.20 162.41 180.38 162.12 179.64 Z M 161.76 178.71 L 161.39 177.75 C 161.11 177.02 160.28 176.65 159.55 176.93 C 158.82 177.22 158.45 178.04 158.73 178.78 L 159.10 179.73 C 159.38 180.46 160.21 180.83 160.94 180.55 C 161.68 180.27 162.04 179.44 161.76 178.71 Z M 161.39 177.75 L 161.31 177.55 C 161.03 176.81 160.21 176.45 159.47 176.73 C 158.74 177.01 158.37 177.84 158.65 178.57 L 158.73 178.78 C 159.01 179.51 159.84 179.88 160.57 179.60 C 161.31 179.31 161.67 178.49 161.39 177.75 Z"
      fill="black"
      fill-rule="nonzero" /><path d="M 150.46 131.47 L 151.24 130.91 C 151.95 130.40 152.12 129.40 151.60 128.68 C 151.09 127.96 150.09 127.80 149.37 128.31 L 148.60 128.87 C 147.88 129.38 147.72 130.38 148.23 131.10 C 148.75 131.82 149.75 131.98 150.46 131.47 Z M 151.18 130.94 L 151.99 130.40 C 152.72 129.92 152.92 128.93 152.44 128.20 C 151.95 127.47 150.96 127.27 150.23 127.75 L 149.42 128.29 C 148.69 128.78 148.49 129.76 148.98 130.50 C 149.47 131.23 150.45 131.43 151.18 130.94 Z M 151.90 130.45 L 152.78 129.95 C 153.53 129.51 153.80 128.55 153.36 127.79 C 152.93 127.03 151.96 126.77 151.21 127.20 L 150.33 127.71 C 149.57 128.14 149.31 129.10 149.74 129.86 C 150.17 130.62 151.14 130.88 151.90 130.45 Z M 152.65 130.00 L 153.59 129.56 C 154.38 129.20 154.72 128.27 154.36 127.48 C 154.00 126.70 153.06 126.35 152.28 126.71 L 151.33 127.15 C 150.55 127.51 150.20 128.44 150.57 129.23 C 150.93 130.02 151.86 130.36 152.65 130.00 Z M 153.47 129.60 L 154.33 129.28 C 155.13 128.99 155.55 128.10 155.25 127.29 C 154.96 126.49 154.06 126.07 153.26 126.37 L 152.40 126.68 C 151.60 126.98 151.18 127.87 151.48 128.67 C 151.77 129.48 152.66 129.89 153.47 129.60 Z M 154.24 129.29 L 155.17 129.01 C 155.97 128.76 156.43 127.91 156.19 127.10 C 155.94 126.29 155.08 125.83 154.28 126.08 L 153.35 126.36 C 152.54 126.61 152.08 127.46 152.33 128.27 C 152.57 129.08 153.43 129.54 154.24 129.29 Z M 155.10 129.00 L 156.09 128.75 C 156.89 128.54 157.38 127.72 157.17 126.91 C 156.96 126.10 156.14 125.62 155.33 125.83 L 154.34 126.08 C 153.54 126.29 153.05 127.11 153.26 127.92 C 153.47 128.73 154.29 129.21 155.10 129.00 Z M 156.04 128.74 L 157.07 128.50 C 157.87 128.32 158.37 127.52 158.19 126.72 C 158.01 125.92 157.21 125.42 156.41 125.60 L 155.38 125.84 C 154.58 126.02 154.08 126.82 154.26 127.62 C 154.44 128.42 155.24 128.92 156.04 128.74 Z M 157.04 128.49 L 158.06 128.28 C 158.86 128.12 159.37 127.34 159.21 126.55 C 159.04 125.75 158.27 125.24 157.47 125.40 L 156.45 125.61 C 155.65 125.78 155.14 126.55 155.31 127.35 C 155.47 128.14 156.24 128.65 157.04 128.49 Z M 158.04 128.27 L 159.00 128.09 C 159.79 127.93 160.31 127.17 160.16 126.38 C 160.01 125.59 159.24 125.08 158.45 125.23 L 157.49 125.41 C 156.70 125.56 156.19 126.33 156.34 127.12 C 156.49 127.91 157.25 128.42 158.04 128.27 Z M 158.99 128.08 L 159.97 127.90 C 160.75 127.76 161.28 127.01 161.13 126.22 C 160.99 125.43 160.23 124.91 159.45 125.05 L 158.47 125.23 C 157.68 125.37 157.16 126.13 157.30 126.92 C 157.45 127.70 158.20 128.23 158.99 128.08 Z M 159.96 127.90 L 160.95 127.73 C 161.73 127.59 162.26 126.84 162.12 126.06 C 161.98 125.27 161.23 124.75 160.45 124.88 L 159.46 125.06 C 158.67 125.19 158.15 125.94 158.29 126.73 C 158.42 127.51 159.17 128.04 159.96 127.90 Z M 160.94 127.72 L 161.94 127.55 C 162.72 127.42 163.25 126.68 163.11 125.89 C 162.98 125.11 162.24 124.59 161.45 124.72 L 160.46 124.89 C 159.67 125.02 159.15 125.76 159.28 126.55 C 159.41 127.33 160.16 127.85 160.94 127.72 Z M 161.93 127.55 L 162.93 127.38 C 163.71 127.25 164.24 126.51 164.11 125.73 C 163.98 124.95 163.24 124.43 162.46 124.56 L 161.46 124.72 C 160.68 124.85 160.15 125.59 160.28 126.37 C 160.41 127.15 161.15 127.68 161.93 127.55 Z M 162.93 127.38 L 163.13 127.34 C 163.90 127.21 164.43 126.48 164.30 125.70 C 164.17 124.92 163.44 124.40 162.66 124.53 L 162.46 124.56 C 161.69 124.69 161.16 125.43 161.29 126.20 C 161.42 126.98 162.16 127.50 162.93 127.38 Z"
      fill="black"
      fill-rule="nonzero" /><path d="M 153.88 139.52 L 152.91 139.61 C 152.01 139.69 151.35 140.48 151.43 141.38 C 151.51 142.28 152.30 142.94 153.20 142.86 L 154.17 142.77 C 155.07 142.69 155.73 141.90 155.65 141.00 C 155.57 140.11 154.78 139.44 153.88 139.52 Z M 152.85 139.60 L 151.87 139.72 C 150.97 139.83 150.32 140.66 150.43 141.56 C 150.55 142.46 151.37 143.10 152.27 142.99 L 153.26 142.87 C 154.16 142.76 154.80 141.94 154.69 141.03 C 154.58 140.13 153.75 139.49 152.85 139.60 Z M 151.76 139.72 L 150.76 139.91 C 149.86 140.08 149.26 140.96 149.44 141.86 C 149.61 142.76 150.48 143.35 151.38 143.18 L 152.38 142.99 C 153.28 142.82 153.88 141.95 153.70 141.05 C 153.53 140.14 152.66 139.55 151.76 139.72 Z M 150.59 139.94 L 149.37 140.30 C 148.48 140.56 147.98 141.50 148.24 142.39 C 148.51 143.28 149.44 143.79 150.33 143.52 L 151.55 143.16 C 152.44 142.90 152.95 141.96 152.68 141.07 C 152.42 140.18 151.48 139.67 150.59 139.94 Z M 149.10 140.38 L 148.19 140.83 C 147.34 141.25 147.00 142.27 147.41 143.11 C 147.83 143.96 148.85 144.30 149.69 143.89 L 150.61 143.44 C 151.45 143.02 151.80 142.00 151.38 141.16 C 150.97 140.31 149.95 139.97 149.10 140.38 Z M 147.22 142.25 L 147.20 142.59 C 147.14 143.54 147.87 144.36 148.81 144.41 C 149.76 144.47 150.58 143.75 150.64 142.80 L 150.66 142.46 C 150.72 141.52 149.99 140.70 149.04 140.64 C 148.10 140.58 147.28 141.31 147.22 142.25 Z M 148.54 144.38 L 149.14 144.52 C 150.07 144.73 151.00 144.15 151.21 143.22 C 151.42 142.29 150.84 141.36 149.91 141.15 L 149.30 141.01 C 148.37 140.80 147.45 141.38 147.23 142.31 C 147.02 143.24 147.60 144.17 148.54 144.38 Z M 149.45 144.56 L 150.45 144.60 C 151.41 144.65 152.21 143.91 152.26 142.95 C 152.30 142.00 151.56 141.19 150.60 141.15 L 149.60 141.11 C 148.65 141.06 147.84 141.80 147.80 142.76 C 147.76 143.71 148.49 144.52 149.45 144.56 Z M 150.60 144.60 L 151.87 144.55 C 152.82 144.51 153.56 143.70 153.52 142.75 C 153.48 141.79 152.68 141.05 151.72 141.10 L 150.45 141.15 C 149.50 141.19 148.76 142.00 148.80 142.95 C 148.84 143.91 149.65 144.65 150.60 144.60 Z M 151.98 144.54 L 153.23 144.40 C 154.17 144.30 154.86 143.45 154.75 142.50 C 154.65 141.55 153.80 140.87 152.85 140.97 L 151.61 141.11 C 150.66 141.21 149.98 142.06 150.08 143.01 C 150.18 143.96 151.04 144.64 151.98 144.54 Z M 153.31 144.37 L 154.33 144.21 C 155.26 144.06 155.90 143.18 155.74 142.25 C 155.59 141.31 154.71 140.68 153.78 140.83 L 152.76 141.00 C 151.83 141.15 151.20 142.03 151.35 142.96 C 151.50 143.89 152.38 144.53 153.31 144.37 Z M 154.39 144.18 L 155.40 143.97 C 156.32 143.79 156.91 142.90 156.73 141.99 C 156.54 141.07 155.65 140.48 154.74 140.66 L 153.73 140.87 C 152.81 141.05 152.22 141.94 152.40 142.85 C 152.59 143.77 153.48 144.36 154.39 144.18 Z M 155.44 143.94 L 156.43 143.71 C 157.33 143.51 157.89 142.61 157.69 141.72 C 157.48 140.82 156.59 140.26 155.69 140.47 L 154.70 140.69 C 153.80 140.90 153.24 141.79 153.45 142.69 C 153.65 143.59 154.55 144.15 155.44 143.94 Z M 156.46 143.68 L 157.42 143.45 C 158.30 143.22 158.83 142.33 158.61 141.45 C 158.39 140.57 157.49 140.03 156.61 140.26 L 155.66 140.50 C 154.78 140.72 154.25 141.61 154.47 142.49 C 154.69 143.37 155.58 143.91 156.46 143.68 Z M 157.43 143.42 L 158.33 143.18 C 159.19 142.95 159.71 142.06 159.48 141.19 C 159.25 140.33 158.36 139.81 157.49 140.04 L 156.60 140.28 C 155.73 140.51 155.22 141.40 155.45 142.27 C 155.68 143.13 156.57 143.65 157.43 143.42 Z M 158.33 143.15 L 159.39 142.86 C 160.25 142.62 160.74 141.75 160.51 140.90 C 160.28 140.04 159.40 139.55 158.55 139.78 L 157.49 140.07 C 156.63 140.31 156.14 141.19 156.37 142.04 C 156.60 142.89 157.48 143.39 158.33 143.15 Z M 159.40 142.83 L 160.37 142.55 C 161.20 142.32 161.69 141.45 161.45 140.62 C 161.22 139.78 160.35 139.30 159.52 139.53 L 158.54 139.81 C 157.71 140.05 157.23 140.91 157.46 141.75 C 157.70 142.58 158.56 143.06 159.40 142.83 Z M 160.37 142.53 L 161.29 142.26 C 162.11 142.03 162.58 141.18 162.35 140.36 C 162.11 139.54 161.26 139.07 160.44 139.30 L 159.52 139.56 C 158.70 139.80 158.23 140.65 158.46 141.47 C 158.70 142.29 159.55 142.76 160.37 142.53 Z M 161.28 142.24 L 162.18 141.98 C 162.98 141.75 163.45 140.91 163.22 140.11 C 162.99 139.31 162.16 138.84 161.35 139.07 L 160.45 139.33 C 159.65 139.56 159.18 140.39 159.41 141.19 C 159.64 142.00 160.47 142.46 161.28 142.24 Z M 162.17 141.96 L 163.10 141.70 C 163.89 141.48 164.36 140.66 164.14 139.87 C 163.91 139.07 163.09 138.61 162.30 138.83 L 161.37 139.09 C 160.57 139.31 160.11 140.13 160.33 140.92 C 160.55 141.72 161.37 142.18 162.17 141.96 Z M 163.09 141.69 L 164.05 141.43 C 164.83 141.21 165.30 140.40 165.08 139.61 C 164.86 138.83 164.05 138.36 163.26 138.58 L 162.31 138.84 C 161.52 139.06 161.06 139.87 161.27 140.66 C 161.49 141.44 162.30 141.91 163.09 141.69 Z M 164.04 141.42 L 165.01 141.15 C 165.79 140.94 166.25 140.13 166.04 139.35 C 165.83 138.57 165.02 138.11 164.24 138.32 L 163.27 138.59 C 162.49 138.80 162.03 139.61 162.24 140.39 C 162.45 141.17 163.26 141.63 164.04 141.42 Z M 165.01 141.14 L 166.00 140.87 C 166.77 140.66 167.23 139.86 167.01 139.08 C 166.80 138.31 166.00 137.85 165.22 138.06 L 164.24 138.34 C 163.46 138.55 163.01 139.35 163.22 140.12 C 163.44 140.90 164.24 141.35 165.01 141.14 Z M 166.00 140.86 L 166.95 140.59 C 167.72 140.38 168.16 139.58 167.95 138.81 C 167.73 138.04 166.94 137.59 166.17 137.81 L 165.22 138.07 C 164.45 138.29 164.00 139.09 164.22 139.86 C 164.43 140.63 165.23 141.07 166.00 140.86 Z M 166.95 140.59 L 167.89 140.32 C 168.66 140.10 169.11 139.30 168.89 138.54 C 168.67 137.77 167.87 137.33 167.11 137.55 L 166.16 137.82 C 165.40 138.03 164.95 138.83 165.17 139.60 C 165.39 140.36 166.18 140.81 166.95 140.59 Z M 167.90 140.32 L 168.86 140.04 C 169.62 139.82 170.06 139.02 169.84 138.26 C 169.62 137.50 168.83 137.06 168.06 137.28 L 167.10 137.55 C 166.34 137.77 165.90 138.57 166.12 139.33 C 166.34 140.09 167.13 140.53 167.90 140.32 Z M 168.86 140.04 L 169.84 139.75 C 170.60 139.53 171.04 138.74 170.82 137.98 C 170.60 137.22 169.81 136.78 169.04 137.00 L 168.06 137.28 C 167.30 137.50 166.86 138.29 167.08 139.06 C 167.30 139.82 168.10 140.26 168.86 140.04 Z M 169.84 139.75 L 170.81 139.47 C 171.56 139.25 172.00 138.46 171.78 137.70 C 171.57 136.94 170.77 136.50 170.01 136.72 L 169.05 137.00 C 168.29 137.22 167.85 138.01 168.07 138.77 C 168.28 139.53 169.08 139.97 169.84 139.75 Z M 170.80 139.47 L 171.75 139.20 C 172.51 138.98 172.95 138.19 172.73 137.43 C 172.51 136.67 171.72 136.23 170.96 136.45 L 170.01 136.72 C 169.26 136.94 168.82 137.73 169.04 138.49 C 169.25 139.25 170.04 139.69 170.80 139.47 Z M 171.75 139.20 L 172.71 138.92 C 173.47 138.71 173.90 137.92 173.69 137.16 C 173.47 136.40 172.68 135.96 171.92 136.18 L 170.96 136.45 C 170.20 136.67 169.76 137.46 169.98 138.22 C 170.20 138.98 170.99 139.42 171.75 139.20 Z M 172.71 138.92 L 173.68 138.64 C 174.44 138.43 174.87 137.64 174.66 136.88 C 174.44 136.12 173.65 135.68 172.89 135.90 L 171.92 136.18 C 171.16 136.39 170.72 137.18 170.94 137.94 C 171.16 138.70 171.95 139.14 172.71 138.92 Z M 173.68 138.64 L 174.66 138.36 C 175.41 138.15 175.85 137.36 175.64 136.60 C 175.42 135.84 174.63 135.41 173.87 135.62 L 172.89 135.90 C 172.14 136.12 171.70 136.91 171.91 137.66 C 172.13 138.42 172.92 138.86 173.68 138.64 Z M 174.66 138.36 L 174.93 138.29 C 175.68 138.07 176.12 137.28 175.90 136.52 C 175.69 135.77 174.90 135.33 174.14 135.55 L 173.87 135.62 C 173.12 135.84 172.68 136.63 172.89 137.38 C 173.11 138.14 173.90 138.58 174.66 138.36 Z"
      fill="black"
      fill-rule="nonzero" /></svg>