<svg xmlns="http://www.w3.org/2000/svg" width="300" height="300" viewBox="0 0 300 300">
<path d="M 150.27 92.34 L 149.43 92.88 C 148.70 93.34 148.49 94.32 148.96 95.04 C 149.43 95.77 150.40 95.98 151.13 95.51 L 151.97 94.98 C 152.70 94.51 152.91 93.54 152.44 92.81 C 151.97 92.08 151.00 91.87 150.27 92.34 Z M 149.38 92.89 L 148.56 93.45 C 147.84 93.95 147.65 94.94 148.15 95.66 C 148.65 96.38 149.64 96.56 150.36 96.07 L 151.18 95.50 C 151.90 95.01 152.09 94.02 151.59 93.30 C 151.09 92.57 150.11 92.39 149.38 92.89 Z M 148.47 93.49 L 147.68 94.11 C 146.98 94.65 146.86 95.66 147.40 96.36 C 147.95 97.06 148.96 97.19 149.66 96.64 L 150.45 96.03 C 151.15 95.48 151.27 94.47 150.73 93.77 C 150.18 93.07 149.17 92.95 148.47 93.49 Z M 147.57 94.19 L 146.87 94.83 C 146.21 95.44 146.17 96.47 146.78 97.12 C 147.39 97.78 148.41 97.82 149.07 97.21 L 149.77 96.56 C 150.43 95.96 150.47 94.93 149.86 94.28 C 149.25 93.62 148.23 93.58 147.57 94.19 Z M 146.77 94.92 L 146.14 95.61 C 145.53 96.27 145.58 97.30 146.24 97.91 C 146.90 98.52 147.93 98.47 148.53 97.81 L 149.17 97.12 C 149.77 96.46 149.73 95.43 149.07 94.83 C 148.41 94.22 147.38 94.26 146.77 94.92 Z M 146.08 95.68 L 145.45 96.45 C 144.88 97.15 144.99 98.17 145.68 98.74 C 146.38 99.31 147.40 99.20 147.97 98.51 L 148.60 97.74 C 149.16 97.04 149.06 96.02 148.36 95.45 C 147.67 94.88 146.64 94.99 146.08 95.68 Z M 145.41 96.50 L 144.76 97.36 C 144.22 98.08 144.37 99.10 145.08 99.64 C 145.80 100.18 146.82 100.03 147.36 99.32 L 148.01 98.46 C 148.55 97.74 148.41 96.72 147.69 96.18 C 146.97 95.64 145.95 95.78 145.41 96.50 Z M 144.75 97.38 L 144.14 98.22 C 143.61 98.94 143.78 99.96 144.50 100.49 C 145.23 101.02 146.25 100.85 146.78 100.13 L 147.38 99.29 C 147.91 98.57 147.75 97.55 147.02 97.02 C 146.29 96.49 145.27 96.65 144.75 97.38 Z M 144.13 98.23 L 143.55 99.05 C 143.03 99.78 143.20 100.80 143.93 101.32 C 144.66 101.84 145.68 101.67 146.20 100.94 L 146.78 100.11 C 147.31 99.38 147.13 98.37 146.40 97.85 C 145.67 97.32 144.65 97.50 144.13 98.23 Z M 143.54 99.06 L 142.95 99.90 C 142.43 100.64 142.61 101.65 143.35 102.17 C 144.08 102.69 145.10 102.51 145.61 101.77 L 146.20 100.93 C 146.72 100.19 146.54 99.18 145.81 98.66 C 145.07 98.15 144.06 98.33 143.54 99.06 Z M 142.94 99.91 L 142.37 100.75 C 141.86 101.49 142.04 102.50 142.78 103.01 C 143.52 103.52 144.53 103.34 145.04 102.60 L 145.62 101.76 C 146.13 101.02 145.94 100.01 145.20 99.50 C 144.47 98.99 143.45 99.18 142.94 99.91 Z M 142.36 100.76 L 141.82 101.56 C 141.31 102.30 141.50 103.31 142.25 103.82 C 142.99 104.32 144.00 104.13 144.50 103.39 L 145.05 102.59 C 145.55 101.85 145.36 100.83 144.62 100.33 C 143.88 99.83 142.87 100.02 142.36 100.76 Z M 141.81 101.57 L 141.20 102.49 C 140.70 103.23 140.91 104.24 141.65 104.74 C 142.40 105.24 143.40 105.03 143.90 104.29 L 144.51 103.37 C 145.01 102.63 144.81 101.62 144.06 101.13 C 143.31 100.63 142.31 100.83 141.81 101.57 Z M 141.20 102.50 L 140.64 103.36 C 140.15 104.10 140.36 105.10 141.11 105.59 C 141.85 106.08 142.86 105.87 143.35 105.13 L 143.90 104.27 C 144.39 103.53 144.18 102.53 143.44 102.04 C 142.69 101.55 141.69 101.76 141.20 102.50 Z M 140.64 103.36 L 140.13 104.16 C 139.64 104.91 139.85 105.90 140.60 106.39 C 141.35 106.87 142.35 106.66 142.83 105.91 L 143.35 105.12 C 143.83 104.37 143.62 103.37 142.87 102.89 C 142.12 102.40 141.13 102.62 140.64 103.36 Z M 140.13 104.16 L 139.62 104.94 C 139.14 105.69 139.35 106.68 140.10 107.16 C 140.84 107.65 141.84 107.43 142.32 106.69 L 142.82 105.91 C 143.31 105.17 143.10 104.17 142.35 103.69 C 141.61 103.21 140.61 103.42 140.13 104.16 Z M 139.63 104.94 L 139.08 105.77 C 138.60 106.51 138.81 107.51 139.54 107.99 C 140.28 108.48 141.28 108.27 141.76 107.53 L 142.31 106.69 C 142.79 105.95 142.59 104.96 141.85 104.48 C 141.11 103.99 140.12 104.20 139.63 104.94 Z M 139.09 105.77 L 138.54 106.61 C 138.06 107.34 138.26 108.33 139.00 108.82 C 139.73 109.30 140.72 109.10 141.21 108.36 L 141.76 107.53 C 142.24 106.79 142.04 105.80 141.30 105.32 C 140.56 104.84 139.57 105.04 139.09 105.77 Z M 138.54 106.61 L 138.00 107.45 C 137.51 108.18 137.72 109.17 138.45 109.65 C 139.19 110.13 140.17 109.93 140.65 109.19 L 141.20 108.36 C 141.69 107.62 141.48 106.64 140.75 106.16 C 140.01 105.67 139.03 105.88 138.54 106.61 Z M 138.00 107.46 L 137.45 108.30 C 136.97 109.03 137.18 110.02 137.92 110.49 C 138.65 110.97 139.63 110.76 140.11 110.02 L 140.65 109.18 C 141.13 108.45 140.92 107.47 140.19 106.99 C 139.45 106.52 138.47 106.73 138.00 107.46 Z M 137.45 108.31 L 136.91 109.16 C 136.44 109.89 136.65 110.87 137.39 111.34 C 138.12 111.81 139.10 111.59 139.57 110.86 L 140.11 110.01 C 140.58 109.28 140.36 108.30 139.63 107.83 C 138.90 107.36 137.92 107.58 137.45 108.31 Z M 136.91 109.17 L 136.38 110.01 C 135.91 110.74 136.13 111.71 136.86 112.18 C 137.59 112.64 138.56 112.42 139.03 111.69 L 139.56 110.85 C 140.03 110.12 139.81 109.15 139.08 108.68 C 138.35 108.22 137.38 108.44 136.91 109.17 Z M 136.38 110.02 L 135.87 110.83 C 135.41 111.56 135.63 112.53 136.36 112.99 C 137.09 113.45 138.06 113.23 138.51 112.50 L 139.03 111.68 C 139.48 110.95 139.26 109.99 138.53 109.53 C 137.80 109.07 136.84 109.29 136.38 110.02 Z M 135.87 110.84 L 135.39 111.63 C 134.93 112.35 135.16 113.31 135.89 113.77 C 136.62 114.22 137.57 114.00 138.03 113.27 L 138.51 112.48 C 138.97 111.76 138.74 110.80 138.01 110.34 C 137.28 109.89 136.33 110.12 135.87 110.84 Z M 135.39 111.64 L 134.88 112.48 C 134.43 113.20 134.66 114.16 135.39 114.60 C 136.12 115.05 137.07 114.81 137.52 114.09 L 138.03 113.25 C 138.47 112.52 138.24 111.57 137.51 111.13 C 136.78 110.68 135.83 110.91 135.39 111.64 Z M 134.88 112.49 L 134.32 113.42 C 133.89 114.15 134.12 115.10 134.85 115.53 C 135.58 115.97 136.53 115.73 136.96 115.00 L 137.52 114.07 C 137.95 113.34 137.72 112.39 136.99 111.96 C 136.26 111.52 135.31 111.76 134.88 112.49 Z M 134.32 113.44 L 133.81 114.32 C 133.38 115.05 133.63 115.99 134.36 116.42 C 135.09 116.84 136.02 116.60 136.45 115.87 L 136.96 114.98 C 137.39 114.25 137.14 113.32 136.41 112.89 C 135.68 112.46 134.75 112.71 134.32 113.44 Z M 133.80 114.35 L 133.30 115.23 C 132.89 115.96 133.15 116.89 133.88 117.30 C 134.62 117.72 135.55 117.46 135.96 116.72 L 136.45 115.84 C 136.87 115.11 136.61 114.18 135.87 113.77 C 135.14 113.35 134.21 113.61 133.80 114.35 Z M 133.29 115.27 L 132.80 116.18 C 132.41 116.92 132.70 117.84 133.44 118.23 C 134.18 118.63 135.10 118.34 135.49 117.60 L 135.97 116.68 C 136.36 115.94 136.08 115.03 135.34 114.63 C 134.60 114.24 133.68 114.53 133.29 115.27 Z M 132.78 116.24 L 132.34 117.16 C 131.98 117.92 132.30 118.82 133.05 119.18 C 133.81 119.54 134.71 119.22 135.07 118.47 L 135.51 117.55 C 135.87 116.79 135.55 115.89 134.80 115.53 C 134.05 115.17 133.14 115.49 132.78 116.24 Z M 132.31 117.25 L 131.95 118.14 C 131.63 118.91 132.00 119.79 132.77 120.10 C 133.54 120.42 134.42 120.05 134.73 119.28 L 135.10 118.38 C 135.41 117.61 135.04 116.74 134.27 116.42 C 133.50 116.11 132.62 116.48 132.31 117.25 Z M 131.91 118.29 L 131.60 119.33 C 131.36 120.12 131.81 120.95 132.60 121.19 C 133.39 121.43 134.23 120.98 134.46 120.18 L 134.77 119.14 C 135.01 118.35 134.56 117.51 133.77 117.28 C 132.98 117.04 132.14 117.49 131.91 118.29 Z M 131.57 119.50 L 131.39 120.49 C 131.25 121.30 131.78 122.07 132.59 122.21 C 133.40 122.36 134.16 121.82 134.31 121.01 L 134.49 120.02 C 134.63 119.21 134.09 118.44 133.29 118.30 C 132.48 118.16 131.71 118.69 131.57 119.50 Z M 131.39 120.62 L 131.31 121.57 C 131.23 122.38 131.83 123.09 132.64 123.16 C 133.44 123.23 134.16 122.64 134.23 121.83 L 134.31 120.88 C 134.38 120.08 133.79 119.37 132.98 119.29 C 132.17 119.22 131.46 119.82 131.39 120.62 Z M 131.31 121.63 L 131.28 122.43 C 131.24 123.23 131.86 123.91 132.66 123.95 C 133.47 123.98 134.15 123.36 134.18 122.56 L 134.22 121.76 C 134.25 120.96 133.63 120.28 132.83 120.25 C 132.03 120.21 131.35 120.83 131.31 121.63 Z"
      fill="black"
      fill-rule="nonzero" /><path d="M 140.59 110.16 L 140.98 109.30 C 141.32 108.54 140.99 107.64 140.22 107.30 C 139.46 106.95 138.57 107.29 138.22 108.05 L 137.83 108.91 C 137.49 109.67 137.83 110.57 138.59 110.91 C 139.35 111.26 140.25 110.92 140.59 110.16 Z M 140.91 109.47 L 141.40 108.65 C 141.84 107.93 141.61 106.99 140.89 106.55 C 140.17 106.11 139.23 106.34 138.79 107.06 L 138.29 107.88 C 137.85 108.61 138.08 109.55 138.80 109.98 C 139.53 110.42 140.47 110.19 140.91 109.47 Z M 141.21 108.92 L 141.94 108.16 C 142.53 107.55 142.51 106.57 141.89 105.98 C 141.27 105.39 140.30 105.42 139.71 106.03 L 138.98 106.79 C 138.39 107.41 138.42 108.38 139.03 108.97 C 139.65 109.56 140.63 109.54 141.21 108.92 Z M 141.69 108.39 L 142.49 107.85 C 143.20 107.38 143.39 106.41 142.91 105.70 C 142.43 104.98 141.47 104.79 140.75 105.27 L 139.96 105.81 C 139.25 106.28 139.06 107.25 139.53 107.96 C 140.01 108.68 140.98 108.87 141.69 108.39 Z M 142.31 107.96 L 143.19 107.53 C 143.97 107.15 144.28 106.21 143.90 105.43 C 143.51 104.66 142.58 104.34 141.80 104.73 L 140.92 105.16 C 140.15 105.55 139.84 106.48 140.22 107.26 C 140.60 108.03 141.54 108.35 142.31 107.96 Z M 143.09 107.58 L 144.05 107.20 C 144.85 106.87 145.24 105.96 144.92 105.15 C 144.59 104.35 143.68 103.96 142.87 104.28 L 141.91 104.67 C 141.11 105.00 140.72 105.91 141.04 106.72 C 141.37 107.52 142.28 107.91 143.09 107.58 Z M 143.98 107.23 L 144.97 106.89 C 145.79 106.60 146.23 105.70 145.94 104.88 C 145.65 104.05 144.75 103.62 143.93 103.90 L 142.94 104.25 C 142.12 104.54 141.68 105.44 141.97 106.26 C 142.26 107.08 143.16 107.52 143.98 107.23 Z M 144.93 106.91 L 145.90 106.60 C 146.74 106.33 147.20 105.44 146.93 104.61 C 146.67 103.77 145.78 103.31 144.94 103.58 L 143.97 103.88 C 143.13 104.15 142.67 105.04 142.94 105.87 C 143.20 106.71 144.09 107.17 144.93 106.91 Z M 145.87 106.61 L 146.83 106.33 C 147.67 106.08 148.15 105.19 147.90 104.35 C 147.65 103.51 146.77 103.03 145.93 103.28 L 144.97 103.56 C 144.13 103.81 143.65 104.70 143.90 105.54 C 144.15 106.38 145.03 106.86 145.87 106.61 Z M 146.80 106.34 L 147.73 106.09 C 148.58 105.86 149.08 104.98 148.85 104.13 C 148.62 103.28 147.74 102.78 146.89 103.01 L 145.96 103.26 C 145.11 103.49 144.61 104.37 144.84 105.22 C 145.07 106.07 145.95 106.57 146.80 106.34 Z M 147.69 106.10 L 148.64 105.87 C 149.50 105.66 150.02 104.80 149.82 103.94 C 149.61 103.08 148.74 102.55 147.88 102.76 L 146.93 102.99 C 146.07 103.20 145.55 104.07 145.76 104.93 C 145.96 105.79 146.83 106.31 147.69 106.10 Z M 148.60 105.88 L 149.62 105.66 C 150.48 105.48 151.03 104.62 150.85 103.76 C 150.66 102.89 149.80 102.34 148.94 102.53 L 147.92 102.75 C 147.06 102.94 146.51 103.79 146.70 104.66 C 146.88 105.52 147.74 106.07 148.60 105.88 Z M 149.59 105.67 L 150.53 105.49 C 151.40 105.32 151.97 104.47 151.80 103.60 C 151.63 102.73 150.78 102.16 149.91 102.33 L 148.97 102.52 C 148.10 102.69 147.53 103.53 147.70 104.40 C 147.87 105.28 148.72 105.84 149.59 105.67 Z M 150.51 105.50 L 151.50 105.32 C 152.38 105.16 152.96 104.32 152.81 103.45 C 152.65 102.57 151.81 101.99 150.93 102.14 L 149.94 102.32 C 149.06 102.48 148.48 103.32 148.63 104.20 C 148.79 105.07 149.63 105.66 150.51 105.50 Z M 151.48 105.33 L 152.50 105.16 C 153.38 105.02 153.98 104.18 153.83 103.30 C 153.69 102.42 152.85 101.82 151.97 101.97 L 150.95 102.14 C 150.07 102.28 149.48 103.11 149.62 104.00 C 149.77 104.88 150.60 105.47 151.48 105.33 Z M 152.48 105.17 L 153.49 105.02 C 154.37 104.88 154.98 104.06 154.85 103.17 C 154.72 102.28 153.89 101.67 153.00 101.81 L 151.99 101.96 C 151.11 102.09 150.50 102.92 150.63 103.81 C 150.76 104.69 151.59 105.30 152.48 105.17 Z M 153.46 105.03 L 154.44 104.89 C 155.33 104.78 155.96 103.96 155.84 103.06 C 155.72 102.17 154.90 101.55 154.01 101.67 L 153.03 101.80 C 152.14 101.92 151.51 102.74 151.63 103.63 C 151.75 104.52 152.57 105.15 153.46 105.03 Z M 154.41 104.90 L 155.48 104.78 C 156.38 104.68 157.02 103.87 156.92 102.97 C 156.82 102.08 156.01 101.43 155.11 101.54 L 154.04 101.66 C 153.14 101.76 152.50 102.57 152.60 103.46 C 152.70 104.36 153.51 105.01 154.41 104.90 Z M 155.44 104.79 L 156.45 104.70 C 157.35 104.62 158.01 103.82 157.93 102.92 C 157.85 102.02 157.05 101.36 156.15 101.44 L 155.15 101.53 C 154.25 101.61 153.58 102.40 153.67 103.30 C 153.75 104.21 154.54 104.87 155.44 104.79 Z M 156.41 104.71 L 157.37 104.65 C 158.27 104.59 158.96 103.80 158.90 102.90 C 158.84 101.99 158.06 101.31 157.15 101.37 L 156.19 101.43 C 155.29 101.49 154.60 102.27 154.66 103.18 C 154.72 104.08 155.50 104.77 156.41 104.71 Z M 157.33 104.65 L 158.28 104.61 C 159.19 104.57 159.89 103.80 159.85 102.89 C 159.81 101.98 159.04 101.28 158.13 101.32 L 157.19 101.36 C 156.28 101.40 155.57 102.17 155.62 103.08 C 155.66 103.99 156.42 104.69 157.33 104.65 Z M 158.25 104.62 L 159.27 104.59 C 160.18 104.57 160.90 103.81 160.88 102.90 C 160.85 101.98 160.10 101.26 159.18 101.29 L 158.16 101.31 C 157.25 101.33 156.53 102.09 156.55 103.01 C 156.58 103.92 157.34 104.64 158.25 104.62 Z M 159.23 104.60 L 160.25 104.60 C 161.17 104.59 161.91 103.85 161.91 102.93 C 161.91 102.01 161.16 101.27 160.24 101.27 L 159.22 101.28 C 158.30 101.28 157.56 102.03 157.56 102.94 C 157.57 103.86 158.31 104.60 159.23 104.60 Z M 160.20 104.60 L 161.20 104.63 C 162.12 104.66 162.89 103.93 162.91 103.01 C 162.94 102.09 162.21 101.32 161.29 101.29 L 160.29 101.27 C 159.37 101.24 158.61 101.97 158.58 102.89 C 158.55 103.81 159.28 104.58 160.20 104.60 Z M 161.13 104.64 L 162.09 104.70 C 163.01 104.76 163.81 104.07 163.87 103.14 C 163.94 102.22 163.24 101.42 162.31 101.36 L 161.36 101.29 C 160.44 101.23 159.64 101.92 159.57 102.85 C 159.51 103.77 160.21 104.57 161.13 104.64 Z M 161.95 104.70 L 163.04 104.86 C 163.96 105.00 164.82 104.36 164.96 103.44 C 165.09 102.51 164.46 101.66 163.53 101.52 L 162.45 101.36 C 161.53 101.22 160.67 101.86 160.53 102.78 C 160.39 103.70 161.03 104.56 161.95 104.70 Z M 162.68 104.78 L 163.58 105.13 C 164.46 105.46 165.45 105.02 165.78 104.14 C 166.12 103.26 165.67 102.27 164.79 101.94 L 163.89 101.60 C 163.01 101.26 162.03 101.70 161.69 102.58 C 161.36 103.46 161.80 104.45 162.68 104.78 Z M 162.98 104.76 L 163.63 105.40 C 164.31 106.06 165.40 106.05 166.06 105.37 C 166.73 104.69 166.72 103.61 166.04 102.94 L 165.39 102.30 C 164.71 101.64 163.62 101.65 162.96 102.33 C 162.29 103.01 162.30 104.10 162.98 104.76 Z M 163.21 104.77 L 163.51 105.59 C 163.85 106.49 164.85 106.95 165.75 106.62 C 166.64 106.28 167.10 105.28 166.77 104.39 L 166.46 103.56 C 166.13 102.67 165.13 102.21 164.23 102.54 C 163.33 102.88 162.88 103.87 163.21 104.77 Z M 163.40 105.16 L 163.49 106.15 C 163.59 107.11 164.44 107.81 165.40 107.72 C 166.36 107.63 167.07 106.78 166.98 105.81 L 166.88 104.82 C 166.79 103.86 165.94 103.16 164.97 103.25 C 164.01 103.34 163.31 104.19 163.40 105.16 Z M 163.48 105.84 L 163.39 106.90 C 163.32 107.87 164.04 108.72 165.01 108.80 C 165.99 108.88 166.83 108.15 166.91 107.18 L 166.99 106.12 C 167.07 105.15 166.35 104.30 165.37 104.22 C 164.40 104.15 163.55 104.87 163.48 105.84 Z M 163.42 106.64 L 163.18 107.67 C 162.96 108.62 163.56 109.58 164.51 109.80 C 165.47 110.02 166.43 109.42 166.65 108.47 L 166.88 107.44 C 167.11 106.49 166.51 105.53 165.55 105.31 C 164.60 105.09 163.64 105.68 163.42 106.64 Z M 163.26 107.40 L 162.88 108.33 C 162.52 109.25 162.96 110.29 163.88 110.65 C 164.79 111.02 165.83 110.58 166.20 109.66 L 166.57 108.73 C 166.94 107.81 166.49 106.77 165.58 106.41 C 164.66 106.04 163.62 106.49 163.26 107.40 Z M 162.98 108.12 L 162.50 108.97 C 162.02 109.83 162.33 110.92 163.19 111.41 C 164.05 111.89 165.14 111.59 165.63 110.72 L 166.10 109.87 C 166.59 109.01 166.28 107.92 165.42 107.44 C 164.56 106.95 163.47 107.26 162.98 108.12 Z M 162.58 108.84 L 162.02 109.67 C 161.47 110.49 161.68 111.60 162.50 112.16 C 163.32 112.71 164.44 112.50 164.99 111.68 L 165.55 110.85 C 166.11 110.03 165.89 108.92 165.07 108.36 C 164.25 107.81 163.13 108.02 162.58 108.84 Z M 162.05 109.62 L 161.49 110.40 C 160.90 111.21 161.09 112.33 161.89 112.91 C 162.70 113.49 163.82 113.31 164.40 112.50 L 164.96 111.72 C 165.55 110.92 165.36 109.79 164.56 109.21 C 163.75 108.63 162.63 108.81 162.05 109.62 Z M 161.49 110.39 L 160.94 111.15 C 160.35 111.95 160.53 113.08 161.33 113.66 C 162.14 114.25 163.26 114.07 163.85 113.27 L 164.40 112.51 C 164.98 111.71 164.81 110.58 164.00 110.00 C 163.20 109.41 162.07 109.59 161.49 110.39 Z M 160.94 111.14 L 160.36 111.93 C 159.77 112.73 159.94 113.86 160.74 114.45 C 161.54 115.04 162.67 114.87 163.26 114.07 L 163.85 113.28 C 164.44 112.47 164.27 111.35 163.46 110.75 C 162.66 110.16 161.53 110.33 160.94 111.14 Z M 160.36 111.92 L 159.74 112.76 C 159.14 113.56 159.30 114.69 160.10 115.29 C 160.90 115.88 162.04 115.72 162.63 114.92 L 163.26 114.08 C 163.85 113.28 163.69 112.15 162.89 111.55 C 162.09 110.96 160.96 111.12 160.36 111.92 Z M 159.74 112.74 L 159.08 113.61 C 158.48 114.41 158.64 115.54 159.43 116.15 C 160.23 116.75 161.37 116.60 161.97 115.80 L 162.63 114.93 C 163.23 114.14 163.07 113.00 162.28 112.40 C 161.48 111.79 160.35 111.95 159.74 112.74 Z M 159.09 113.60 L 158.46 114.41 C 157.85 115.21 158.00 116.34 158.80 116.95 C 159.59 117.56 160.73 117.42 161.34 116.62 L 161.96 115.81 C 162.57 115.02 162.43 113.88 161.63 113.27 C 160.84 112.66 159.70 112.81 159.09 113.60 Z M 158.47 114.40 L 157.83 115.23 C 157.21 116.02 157.36 117.16 158.15 117.77 C 158.94 118.39 160.08 118.25 160.70 117.45 L 161.34 116.63 C 161.95 115.84 161.81 114.70 161.02 114.08 C 160.22 113.47 159.08 113.61 158.47 114.40 Z M 157.83 115.22 L 157.20 116.03 C 156.58 116.82 156.72 117.96 157.51 118.58 C 158.30 119.20 159.45 119.06 160.07 118.27 L 160.70 117.46 C 161.32 116.67 161.18 115.52 160.38 114.91 C 159.59 114.29 158.45 114.43 157.83 115.22 Z M 157.20 116.02 L 156.59 116.79 C 155.97 117.58 156.11 118.73 156.90 119.35 C 157.70 119.97 158.84 119.83 159.46 119.04 L 160.07 118.27 C 160.69 117.48 160.55 116.33 159.76 115.71 C 158.96 115.09 157.82 115.23 157.20 116.02 Z M 156.59 116.79 L 155.99 117.56 C 155.37 118.35 155.50 119.50 156.30 120.12 C 157.09 120.74 158.24 120.61 158.86 119.81 L 159.46 119.04 C 160.09 118.25 159.95 117.10 159.16 116.48 C 158.36 115.86 157.21 116.00 156.59 116.79 Z M 155.98 117.56 L 155.31 118.42 C 154.69 119.22 154.83 120.37 155.63 120.99 C 156.42 121.61 157.57 121.47 158.19 120.67 L 158.87 119.81 C 159.49 119.02 159.35 117.87 158.55 117.25 C 157.75 116.62 156.61 116.77 155.98 117.56 Z M 155.30 118.43 L 154.71 119.20 C 154.10 120.00 154.24 121.14 155.04 121.76 C 155.84 122.38 156.99 122.23 157.61 121.43 L 158.20 120.66 C 158.82 119.86 158.67 118.72 157.87 118.10 C 157.07 117.48 155.92 117.63 155.30 118.43 Z M 154.70 119.21 L 154.15 119.94 C 153.54 120.74 153.70 121.89 154.50 122.50 C 155.31 123.11 156.46 122.95 157.07 122.15 L 157.62 121.42 C 158.23 120.61 158.07 119.46 157.27 118.85 C 156.46 118.24 155.31 118.40 154.70 119.21 Z M 154.14 119.95 L 153.58 120.71 C 152.97 121.52 153.15 122.67 153.96 123.27 C 154.77 123.87 155.92 123.70 156.52 122.89 L 157.08 122.13 C 157.68 121.32 157.51 120.17 156.70 119.57 C 155.88 118.97 154.74 119.14 154.14 119.95 Z M 153.57 120.72 L 152.99 121.52 C 152.39 122.34 152.58 123.48 153.40 124.08 C 154.22 124.67 155.36 124.49 155.96 123.67 L 156.53 122.88 C 157.13 122.06 156.95 120.91 156.13 120.32 C 155.31 119.72 154.16 119.90 153.57 120.72 Z M 152.98 121.53 L 152.39 122.35 C 151.80 123.18 151.99 124.32 152.81 124.91 C 153.64 125.50 154.78 125.31 155.37 124.49 L 155.96 123.66 C 156.55 122.84 156.36 121.69 155.54 121.10 C 154.72 120.51 153.57 120.70 152.98 121.53 Z M 152.38 122.36 L 151.79 123.19 C 151.21 124.02 151.40 125.16 152.22 125.75 C 153.05 126.34 154.20 126.14 154.78 125.32 L 155.37 124.49 C 155.96 123.66 155.77 122.51 154.94 121.93 C 154.12 121.34 152.97 121.53 152.38 122.36 Z M 151.79 123.19 L 151.23 123.98 C 150.64 124.81 150.84 125.96 151.66 126.54 C 152.49 127.13 153.64 126.93 154.22 126.11 L 154.78 125.32 C 155.37 124.49 155.18 123.34 154.35 122.76 C 153.52 122.17 152.38 122.36 151.79 123.19 Z M 151.23 123.99 L 150.65 124.80 C 150.07 125.63 150.26 126.77 151.09 127.36 C 151.92 127.95 153.06 127.75 153.65 126.92 L 154.22 126.11 C 154.81 125.28 154.61 124.13 153.79 123.55 C 152.96 122.96 151.81 123.16 151.23 123.99 Z M 150.65 124.80 L 150.06 125.64 C 149.48 126.47 149.67 127.62 150.50 128.20 C 151.33 128.78 152.48 128.58 153.06 127.75 L 153.65 126.92 C 154.23 126.09 154.04 124.94 153.21 124.36 C 152.38 123.78 151.23 123.97 150.65 124.80 Z M 150.06 125.64 L 149.48 126.47 C 148.90 127.30 149.10 128.44 149.93 129.03 C 150.76 129.61 151.91 129.41 152.49 128.58 L 153.06 127.75 C 153.65 126.92 153.44 125.78 152.61 125.19 C 151.78 124.61 150.64 124.81 150.06 125.64 Z M 149.48 126.47 L 148.92 127.27 C 148.34 128.11 148.54 129.25 149.37 129.83 C 150.20 130.41 151.35 130.21 151.93 129.38 L 152.49 128.57 C 153.07 127.74 152.87 126.60 152.03 126.02 C 151.20 125.44 150.06 125.64 149.48 126.47 Z M 148.92 127.27 L 148.35 128.09 C 147.77 128.92 147.97 130.07 148.80 130.65 C 149.64 131.23 150.78 131.02 151.36 130.19 L 151.93 129.38 C 152.51 128.54 152.31 127.40 151.47 126.82 C 150.64 126.24 149.50 126.44 148.92 127.27 Z M 148.35 128.09 L 147.77 128.92 C 147.19 129.75 147.39 130.90 148.22 131.48 C 149.05 132.06 150.20 131.86 150.78 131.03 L 151.36 130.19 C 151.94 129.36 151.74 128.22 150.91 127.64 C 150.07 127.06 148.93 127.26 148.35 128.09 Z M 147.77 128.92 L 147.19 129.75 C 146.60 130.58 146.80 131.72 147.63 132.30 C 148.46 132.89 149.61 132.69 150.19 131.86 L 150.77 131.03 C 151.36 130.20 151.16 129.06 150.33 128.47 C 149.50 127.89 148.35 128.09 147.77 128.92 Z M 147.19 129.74 L 146.64 130.52 C 146.05 131.35 146.25 132.50 147.08 133.08 C 147.91 133.67 149.05 133.47 149.64 132.64 L 150.19 131.86 C 150.78 131.03 150.58 129.89 149.75 129.30 C 148.92 128.72 147.78 128.91 147.19 129.74 Z M 146.64 130.52 L 146.07 131.32 C 145.49 132.14 145.68 133.29 146.50 133.88 C 147.33 134.47 148.48 134.27 149.06 133.45 L 149.63 132.65 C 150.22 131.82 150.03 130.68 149.20 130.09 C 148.38 129.50 147.23 129.69 146.64 130.52 Z M 146.08 131.32 L 145.49 132.14 C 144.90 132.96 145.09 134.11 145.91 134.70 C 146.74 135.29 147.89 135.10 148.48 134.27 L 149.06 133.45 C 149.65 132.63 149.46 131.48 148.64 130.89 C 147.81 130.30 146.67 130.49 146.08 131.32 Z M 145.49 132.13 L 144.88 132.98 C 144.29 133.80 144.48 134.95 145.30 135.54 C 146.13 136.13 147.27 135.94 147.86 135.12 L 148.47 134.27 C 149.06 133.45 148.88 132.30 148.05 131.71 C 147.23 131.12 146.08 131.31 145.49 132.13 Z M 144.89 132.98 L 144.30 133.79 C 143.70 134.61 143.89 135.76 144.71 136.35 C 145.53 136.95 146.68 136.76 147.27 135.94 L 147.86 135.12 C 148.46 134.30 148.27 133.15 147.45 132.56 C 146.63 131.97 145.48 132.15 144.89 132.98 Z M 144.30 133.79 L 143.72 134.59 C 143.13 135.41 143.31 136.56 144.13 137.15 C 144.95 137.74 146.10 137.56 146.69 136.74 L 147.27 135.94 C 147.87 135.12 147.68 133.97 146.86 133.38 C 146.04 132.78 144.89 132.97 144.30 133.79 Z M 143.72 134.58 L 143.13 135.40 C 142.54 136.22 142.72 137.36 143.54 137.96 C 144.35 138.56 145.50 138.37 146.10 137.56 L 146.69 136.74 C 147.29 135.93 147.11 134.78 146.29 134.18 C 145.47 133.59 144.32 133.77 143.72 134.58 Z M 143.14 135.39 L 142.54 136.21 C 141.94 137.03 142.12 138.17 142.93 138.77 C 143.75 139.37 144.90 139.19 145.50 138.38 L 146.09 137.56 C 146.69 136.74 146.52 135.60 145.70 135.00 C 144.88 134.40 143.73 134.58 143.14 135.39 Z M 142.54 136.20 L 141.94 137.02 C 141.34 137.83 141.51 138.98 142.33 139.58 C 143.14 140.18 144.29 140.01 144.89 139.20 L 145.49 138.38 C 146.09 137.57 145.92 136.42 145.11 135.82 C 144.29 135.22 143.14 135.39 142.54 136.20 Z M 141.95 137.01 L 141.34 137.82 C 140.74 138.63 140.90 139.78 141.72 140.39 C 142.53 140.99 143.68 140.82 144.28 140.01 L 144.88 139.20 C 145.49 138.39 145.32 137.24 144.51 136.64 C 143.70 136.03 142.55 136.20 141.95 137.01 Z M 141.35 137.81 L 140.74 138.62 C 140.14 139.43 140.30 140.57 141.10 141.18 C 141.91 141.79 143.06 141.63 143.67 140.82 L 144.27 140.02 C 144.88 139.21 144.72 138.06 143.91 137.45 C 143.11 136.84 141.96 137.01 141.35 137.81 Z M 140.75 138.61 L 140.15 139.40 C 139.53 140.21 139.69 141.36 140.49 141.97 C 141.30 142.58 142.45 142.43 143.06 141.62 L 143.66 140.83 C 144.28 140.02 144.12 138.87 143.32 138.26 C 142.51 137.65 141.36 137.81 140.75 138.61 Z M 140.15 139.40 L 139.55 140.19 C 138.93 140.99 139.08 142.13 139.88 142.75 C 140.68 143.37 141.83 143.22 142.45 142.42 L 143.05 141.63 C 143.67 140.83 143.52 139.68 142.72 139.06 C 141.92 138.45 140.77 138.60 140.15 139.40 Z M 139.55 140.18 L 138.94 140.96 C 138.32 141.76 138.47 142.91 139.26 143.53 C 140.06 144.15 141.21 144.01 141.83 143.21 L 142.44 142.42 C 143.06 141.63 142.92 140.48 142.12 139.86 C 141.32 139.24 140.17 139.38 139.55 140.18 Z M 138.95 140.96 L 138.33 141.74 C 137.71 142.53 137.85 143.68 138.64 144.31 C 139.44 144.93 140.58 144.79 141.21 144.00 L 141.82 143.22 C 142.45 142.42 142.31 141.27 141.51 140.65 C 140.72 140.03 139.57 140.17 138.95 140.96 Z M 138.34 141.74 L 137.73 142.51 C 137.10 143.30 137.23 144.45 138.02 145.07 C 138.81 145.70 139.96 145.57 140.59 144.78 L 141.20 144.00 C 141.83 143.21 141.69 142.06 140.90 141.44 C 140.11 140.81 138.97 140.95 138.34 141.74 Z M 137.73 142.51 L 137.11 143.29 C 136.48 144.07 136.61 145.22 137.40 145.85 C 138.19 146.48 139.34 146.35 139.96 145.56 L 140.58 144.78 C 141.21 143.99 141.08 142.84 140.29 142.22 C 139.51 141.59 138.36 141.72 137.73 142.51 Z M 137.11 143.29 L 136.49 144.07 C 135.86 144.85 135.99 146.00 136.78 146.63 C 137.56 147.26 138.71 147.13 139.34 146.34 L 139.96 145.56 C 140.59 144.77 140.46 143.63 139.67 143.00 C 138.89 142.37 137.74 142.50 137.11 143.29 Z M 136.49 144.07 L 135.86 144.86 C 135.23 145.64 135.36 146.79 136.15 147.42 C 136.93 148.04 138.08 147.91 138.70 147.13 L 139.33 146.34 C 139.96 145.55 139.83 144.41 139.05 143.78 C 138.26 143.16 137.12 143.28 136.49 144.07 Z M 135.86 144.86 L 135.23 145.65 C 134.61 146.44 134.74 147.58 135.52 148.21 C 136.31 148.83 137.45 148.70 138.07 147.92 L 138.71 147.13 C 139.33 146.34 139.20 145.20 138.41 144.57 C 137.63 143.95 136.49 144.08 135.86 144.86 Z M 135.23 145.66 L 134.61 146.45 C 133.98 147.23 134.12 148.37 134.90 149.00 C 135.69 149.62 136.83 149.49 137.45 148.70 L 138.08 147.91 C 138.70 147.13 138.56 145.99 137.78 145.36 C 136.99 144.74 135.85 144.87 135.23 145.66 Z M 134.61 146.45 L 133.98 147.24 C 133.36 148.02 133.50 149.16 134.28 149.78 C 135.07 150.40 136.21 150.27 136.83 149.49 L 137.45 148.70 C 138.07 147.91 137.94 146.77 137.15 146.15 C 136.37 145.53 135.23 145.67 134.61 146.45 Z M 133.99 147.24 L 133.36 148.02 C 132.74 148.81 132.87 149.94 133.66 150.57 C 134.44 151.19 135.58 151.06 136.20 150.27 L 136.82 149.49 C 137.44 148.70 137.31 147.57 136.53 146.95 C 135.75 146.32 134.61 146.46 133.99 147.24 Z M 133.37 148.02 L 132.75 148.80 C 132.13 149.58 132.25 150.72 133.03 151.34 C 133.81 151.96 134.94 151.83 135.57 151.06 L 136.19 150.28 C 136.81 149.50 136.69 148.36 135.91 147.74 C 135.13 147.12 133.99 147.24 133.37 148.02 Z M 132.76 148.79 L 132.13 149.56 C 131.51 150.34 131.63 151.47 132.40 152.10 C 133.17 152.73 134.31 152.61 134.93 151.83 L 135.56 151.06 C 136.18 150.29 136.07 149.15 135.29 148.53 C 134.52 147.90 133.38 148.02 132.76 148.79 Z M 132.15 149.55 L 131.50 150.34 C 130.86 151.11 130.97 152.24 131.74 152.88 C 132.51 153.51 133.64 153.40 134.27 152.63 L 134.92 151.84 C 135.55 151.08 135.44 149.94 134.68 149.31 C 133.91 148.68 132.78 148.79 132.15 149.55 Z M 131.51 150.33 L 130.85 151.12 C 130.22 151.88 130.31 153.01 131.07 153.64 C 131.83 154.28 132.96 154.18 133.60 153.42 L 134.26 152.64 C 134.89 151.88 134.80 150.75 134.04 150.11 C 133.28 149.48 132.15 149.58 131.51 150.33 Z M 130.87 151.11 L 130.21 151.87 C 129.57 152.63 129.66 153.75 130.41 154.40 C 131.16 155.04 132.29 154.95 132.93 154.20 L 133.59 153.43 C 134.23 152.68 134.14 151.55 133.39 150.91 C 132.64 150.27 131.51 150.36 130.87 151.11 Z M 130.23 151.87 L 129.58 152.61 C 128.93 153.36 129.01 154.48 129.76 155.13 C 130.50 155.78 131.63 155.70 132.27 154.95 L 132.92 154.20 C 133.57 153.46 133.49 152.33 132.74 151.69 C 132.00 151.04 130.87 151.12 130.23 151.87 Z M 129.59 152.61 L 128.95 153.33 C 128.30 154.07 128.37 155.20 129.11 155.85 C 129.85 156.49 130.97 156.42 131.62 155.68 L 132.26 154.96 C 132.91 154.22 132.84 153.10 132.10 152.45 C 131.36 151.80 130.24 151.87 129.59 152.61 Z M 128.96 153.33 L 128.29 154.09 C 127.63 154.82 127.70 155.94 128.43 156.59 C 129.16 157.24 130.28 157.18 130.93 156.45 L 131.61 155.69 C 132.26 154.96 132.20 153.84 131.47 153.19 C 130.74 152.53 129.61 152.60 128.96 153.33 Z M 128.30 154.08 L 127.62 154.84 C 126.96 155.56 127.02 156.68 127.75 157.33 C 128.47 157.99 129.59 157.93 130.24 157.20 L 130.92 156.45 C 131.58 155.73 131.52 154.61 130.79 153.95 C 130.07 153.30 128.95 153.36 128.30 154.08 Z M 127.63 154.84 L 126.96 155.58 C 126.30 156.30 126.36 157.41 127.08 158.06 C 127.80 158.72 128.91 158.66 129.57 157.94 L 130.24 157.20 C 130.89 156.48 130.83 155.37 130.11 154.72 C 129.39 154.06 128.28 154.12 127.63 154.84 Z M 126.96 155.58 L 126.30 156.31 C 125.65 157.03 125.70 158.14 126.42 158.79 C 127.14 159.44 128.25 159.38 128.90 158.67 L 129.56 157.94 C 130.21 157.22 130.16 156.11 129.44 155.46 C 128.72 154.81 127.61 154.86 126.96 155.58 Z M 126.30 156.32 L 125.64 157.05 C 125.00 157.76 125.05 158.87 125.77 159.51 C 126.49 160.16 127.59 160.10 128.24 159.39 L 128.90 158.66 C 129.55 157.94 129.49 156.84 128.77 156.19 C 128.06 155.54 126.95 155.60 126.30 156.32 Z M 125.65 157.05 L 124.97 157.81 C 124.33 158.52 124.39 159.63 125.10 160.27 C 125.82 160.91 126.92 160.85 127.56 160.13 L 128.24 159.38 C 128.88 158.66 128.82 157.56 128.11 156.92 C 127.39 156.28 126.29 156.34 125.65 157.05 Z M 124.98 157.81 L 124.30 158.56 C 123.66 159.27 123.72 160.37 124.43 161.01 C 125.14 161.65 126.24 161.59 126.88 160.88 L 127.55 160.13 C 128.19 159.42 128.14 158.33 127.43 157.68 C 126.72 157.04 125.62 157.10 124.98 157.81 Z M 124.32 158.55 L 123.65 159.29 C 123.00 159.99 123.05 161.08 123.75 161.72 C 124.45 162.37 125.54 162.32 126.19 161.62 L 126.86 160.89 C 127.51 160.18 127.46 159.09 126.76 158.45 C 126.06 157.80 124.97 157.85 124.32 158.55 Z M 123.67 159.27 L 122.99 159.98 C 122.34 160.67 122.37 161.76 123.06 162.41 C 123.75 163.07 124.83 163.04 125.49 162.35 L 126.16 161.64 C 126.82 160.95 126.79 159.86 126.10 159.21 C 125.41 158.55 124.32 158.58 123.67 159.27 Z M 123.04 159.95 L 122.14 160.84 C 121.47 161.51 121.47 162.59 122.13 163.26 C 122.79 163.93 123.87 163.93 124.54 163.27 L 125.44 162.38 C 126.11 161.72 126.12 160.63 125.45 159.96 C 124.79 159.29 123.71 159.29 123.04 159.95 Z M 122.25 160.76 L 121.39 161.49 C 120.67 162.10 120.58 163.17 121.19 163.88 C 121.79 164.60 122.86 164.68 123.58 164.08 L 124.44 163.35 C 125.15 162.74 125.24 161.68 124.63 160.96 C 124.03 160.25 122.96 160.16 122.25 160.76 Z M 121.74 161.28 L 121.10 161.59 C 120.26 162.00 119.92 163.01 120.33 163.84 C 120.74 164.68 121.74 165.02 122.58 164.61 L 123.22 164.29 C 124.05 163.89 124.40 162.88 123.99 162.05 C 123.58 161.21 122.57 160.87 121.74 161.28 Z M 123.03 161.97 L 122.70 161.63 C 122.08 160.97 121.04 160.94 120.38 161.57 C 119.72 162.19 119.69 163.23 120.32 163.89 L 120.64 164.23 C 121.27 164.89 122.31 164.92 122.97 164.30 C 123.63 163.67 123.65 162.63 123.03 161.97 Z M 123.08 162.85 L 123.14 161.86 C 123.19 160.99 122.52 160.25 121.66 160.20 C 120.79 160.15 120.04 160.81 119.99 161.68 L 119.94 162.67 C 119.89 163.54 120.55 164.28 121.42 164.33 C 122.29 164.38 123.03 163.72 123.08 162.85 Z M 123.03 162.12 L 123.32 160.90 C 123.51 160.10 123.01 159.29 122.20 159.09 C 121.40 158.90 120.59 159.40 120.40 160.21 L 120.11 161.42 C 119.91 162.23 120.41 163.04 121.22 163.23 C 122.03 163.43 122.84 162.93 123.03 162.12 Z M 123.24 161.01 L 123.55 160.06 C 123.80 159.29 123.38 158.47 122.62 158.22 C 121.85 157.97 121.03 158.39 120.78 159.15 L 120.47 160.10 C 120.22 160.87 120.64 161.69 121.41 161.94 C 122.17 162.19 122.99 161.77 123.24 161.01 Z M 123.52 160.12 L 123.87 159.20 C 124.15 158.46 123.78 157.62 123.03 157.34 C 122.29 157.05 121.45 157.43 121.16 158.17 L 120.81 159.09 C 120.53 159.83 120.90 160.67 121.65 160.96 C 122.39 161.24 123.23 160.87 123.52 160.12 Z M 123.84 159.24 L 124.23 158.30 C 124.53 157.57 124.18 156.73 123.45 156.43 C 122.71 156.13 121.88 156.48 121.57 157.21 L 121.19 158.14 C 120.89 158.87 121.24 159.71 121.97 160.01 C 122.70 160.32 123.54 159.97 123.84 159.24 Z M 124.22 158.30 L 124.58 157.42 C 124.89 156.70 124.54 155.86 123.81 155.56 C 123.09 155.26 122.25 155.60 121.95 156.33 L 121.58 157.21 C 121.28 157.94 121.62 158.77 122.35 159.07 C 123.08 159.38 123.91 159.03 124.22 158.30 Z M 124.58 157.42 L 124.96 156.52 C 125.26 155.79 124.92 154.96 124.19 154.66 C 123.46 154.36 122.63 154.70 122.33 155.43 L 121.95 156.33 C 121.65 157.05 121.99 157.89 122.72 158.19 C 123.45 158.49 124.28 158.15 124.58 157.42 Z M 124.95 156.53 L 125.35 155.59 C 125.66 154.87 125.32 154.03 124.60 153.72 C 123.87 153.41 123.03 153.75 122.73 154.48 L 122.33 155.42 C 122.02 156.14 122.36 156.98 123.09 157.29 C 123.81 157.59 124.65 157.25 124.95 156.53 Z M 125.35 155.61 L 125.77 154.64 C 126.08 153.92 125.76 153.08 125.03 152.76 C 124.31 152.44 123.47 152.77 123.16 153.49 L 122.73 154.46 C 122.42 155.18 122.75 156.02 123.47 156.34 C 124.19 156.65 125.03 156.33 125.35 155.61 Z M 125.76 154.66 L 126.16 153.78 C 126.49 153.06 126.17 152.22 125.45 151.89 C 124.74 151.56 123.89 151.88 123.56 152.60 L 123.17 153.48 C 122.84 154.19 123.16 155.04 123.87 155.36 C 124.59 155.69 125.44 155.37 125.76 154.66 Z M 126.16 153.79 L 126.57 152.89 C 126.90 152.18 126.59 151.33 125.88 151.00 C 125.17 150.67 124.32 150.98 123.99 151.69 L 123.57 152.59 C 123.24 153.30 123.55 154.15 124.26 154.48 C 124.98 154.81 125.82 154.50 126.16 153.79 Z M 126.57 152.90 L 127.00 151.98 C 127.33 151.27 127.02 150.42 126.31 150.09 C 125.60 149.75 124.75 150.06 124.42 150.77 L 123.99 151.69 C 123.65 152.40 123.96 153.25 124.67 153.58 C 125.39 153.92 126.24 153.61 126.57 152.90 Z M 127.00 151.98 L 127.43 151.05 C 127.76 150.33 127.45 149.49 126.74 149.15 C 126.03 148.82 125.18 149.13 124.85 149.84 L 124.41 150.78 C 124.08 151.49 124.39 152.34 125.10 152.67 C 125.82 153.00 126.67 152.69 127.00 151.98 Z M 127.44 151.04 L 127.85 150.14 C 128.17 149.42 127.86 148.58 127.14 148.25 C 126.43 147.92 125.58 148.24 125.25 148.96 L 124.84 149.85 C 124.52 150.57 124.83 151.41 125.55 151.74 C 126.26 152.07 127.11 151.75 127.44 151.04 Z M 127.85 150.13 L 128.25 149.23 C 128.58 148.52 128.25 147.67 127.54 147.35 C 126.82 147.03 125.98 147.35 125.65 148.07 L 125.25 148.96 C 124.93 149.68 125.25 150.53 125.97 150.85 C 126.68 151.17 127.53 150.85 127.85 150.13 Z M 128.26 149.23 L 128.66 148.31 C 128.98 147.59 128.66 146.75 127.94 146.43 C 127.22 146.11 126.37 146.44 126.06 147.16 L 125.65 148.07 C 125.33 148.79 125.66 149.63 126.38 149.95 C 127.09 150.27 127.94 149.95 128.26 149.23 Z M 128.66 148.31 L 129.07 147.38 C 129.39 146.66 129.06 145.82 128.34 145.50 C 127.62 145.19 126.78 145.51 126.46 146.23 L 126.05 147.16 C 125.74 147.88 126.06 148.72 126.78 149.04 C 127.50 149.36 128.35 149.03 128.66 148.31 Z M 129.07 147.38 L 129.48 146.44 C 129.80 145.72 129.47 144.88 128.75 144.57 C 128.03 144.25 127.19 144.58 126.87 145.30 L 126.46 146.23 C 126.15 146.95 126.47 147.80 127.19 148.11 C 127.91 148.43 128.76 148.10 129.07 147.38 Z M 129.48 146.45 L 129.88 145.54 C 130.20 144.82 129.87 143.98 129.15 143.66 C 128.43 143.35 127.59 143.67 127.27 144.39 L 126.87 145.30 C 126.56 146.02 126.88 146.86 127.60 147.18 C 128.32 147.49 129.17 147.17 129.48 146.45 Z M 129.88 145.54 L 130.28 144.63 C 130.60 143.91 130.27 143.07 129.55 142.75 C 128.83 142.43 127.99 142.76 127.67 143.48 L 127.27 144.39 C 126.95 145.11 127.28 145.96 128.00 146.27 C 128.72 146.59 129.56 146.26 129.88 145.54 Z M 130.28 144.63 L 130.69 143.71 C 131.00 142.99 130.68 142.15 129.96 141.83 C 129.24 141.52 128.40 141.84 128.08 142.56 L 127.67 143.48 C 127.36 144.20 127.68 145.04 128.40 145.36 C 129.12 145.68 129.96 145.35 130.28 144.63 Z M 130.69 143.71 L 131.09 142.79 C 131.41 142.07 131.08 141.23 130.36 140.91 C 129.64 140.59 128.80 140.92 128.49 141.64 L 128.08 142.56 C 127.76 143.28 128.09 144.12 128.81 144.44 C 129.53 144.76 130.37 144.43 130.69 143.71 Z M 131.09 142.79 L 131.39 142.12 C 131.71 141.40 131.38 140.56 130.66 140.24 C 129.94 139.92 129.10 140.25 128.78 140.97 L 128.49 141.64 C 128.17 142.36 128.49 143.20 129.21 143.52 C 129.93 143.84 130.78 143.51 131.09 142.79 Z"
      fill="black"
      fill-rule="nonzero" /><path d="M 138.52 114.71 L 138.74 115.52 C 138.97 116.34 139.83 116.82 140.65 116.59 C 141.48 116.36 141.95 115.50 141.72 114.68 L 141.50 113.87 C 141.26 113.05 140.41 112.57 139.59 112.80 C 138.76 113.04 138.28 113.89 138.52 114.71 Z M 138.72 115.58 L 138.99 116.41 C 139.25 117.25 140.14 117.71 140.97 117.45 C 141.81 117.18 142.27 116.29 142.01 115.46 L 141.74 114.62 C 141.48 113.79 140.59 113.32 139.76 113.59 C 138.92 113.85 138.46 114.74 138.72 115.58 Z M 138.98 116.51 L 139.32 117.41 C 139.64 118.25 140.57 118.67 141.41 118.35 C 142.25 118.04 142.67 117.10 142.35 116.27 L 142.01 115.36 C 141.70 114.52 140.76 114.10 139.93 114.42 C 139.09 114.73 138.66 115.67 138.98 116.51 Z M 139.33 117.52 L 139.78 118.53 C 140.16 119.36 141.14 119.73 141.98 119.35 C 142.81 118.97 143.18 117.99 142.80 117.16 L 142.35 116.15 C 141.97 115.32 140.99 114.95 140.15 115.33 C 139.32 115.71 138.95 116.69 139.33 117.52 Z M 139.80 118.64 L 140.36 119.69 C 140.80 120.51 141.82 120.83 142.65 120.39 C 143.47 119.95 143.79 118.93 143.35 118.10 L 142.79 117.05 C 142.35 116.22 141.32 115.91 140.50 116.35 C 139.67 116.79 139.36 117.81 139.80 118.64 Z M 140.38 119.76 L 140.85 120.57 C 141.33 121.38 142.38 121.65 143.20 121.17 C 144.01 120.69 144.28 119.65 143.80 118.83 L 143.33 118.03 C 142.85 117.21 141.80 116.94 140.98 117.42 C 140.17 117.90 139.90 118.95 140.38 119.76 Z M 140.87 120.61 L 141.40 121.46 C 141.90 122.27 142.97 122.51 143.77 122.01 C 144.58 121.50 144.82 120.44 144.32 119.64 L 143.79 118.79 C 143.28 117.98 142.22 117.74 141.42 118.24 C 140.61 118.75 140.37 119.81 140.87 120.61 Z M 141.41 121.49 L 141.98 122.37 C 142.50 123.16 143.57 123.39 144.37 122.87 C 145.17 122.34 145.40 121.27 144.87 120.48 L 144.30 119.60 C 143.78 118.81 142.71 118.58 141.91 119.10 C 141.12 119.62 140.89 120.69 141.41 121.49 Z M 141.99 122.39 L 142.58 123.27 C 143.12 124.06 144.20 124.27 144.99 123.74 C 145.79 123.20 145.99 122.12 145.46 121.33 L 144.87 120.45 C 144.33 119.66 143.25 119.45 142.46 119.98 C 141.66 120.52 141.45 121.60 141.99 122.39 Z M 142.59 123.29 L 143.18 124.15 C 143.73 124.94 144.82 125.14 145.61 124.59 C 146.40 124.04 146.60 122.96 146.05 122.17 L 145.45 121.30 C 144.90 120.51 143.82 120.32 143.03 120.86 C 142.24 121.41 142.04 122.50 142.59 123.29 Z M 143.19 124.17 L 143.77 125.00 C 144.33 125.79 145.42 125.97 146.21 125.41 C 147.00 124.86 147.19 123.76 146.63 122.97 L 146.05 122.15 C 145.49 121.36 144.39 121.17 143.61 121.73 C 142.82 122.29 142.63 123.38 143.19 124.17 Z M 143.77 125.01 L 144.33 125.79 C 144.90 126.57 146.00 126.75 146.79 126.19 C 147.58 125.62 147.75 124.52 147.19 123.73 L 146.63 122.96 C 146.06 122.17 144.96 121.99 144.17 122.56 C 143.39 123.13 143.21 124.22 143.77 125.01 Z M 144.33 125.80 L 145.02 126.74 C 145.60 127.52 146.70 127.69 147.49 127.12 C 148.27 126.54 148.44 125.44 147.87 124.65 L 147.18 123.71 C 146.61 122.93 145.50 122.76 144.71 123.33 C 143.93 123.91 143.76 125.01 144.33 125.80 Z M 145.03 126.75 L 145.69 127.64 C 146.28 128.42 147.39 128.58 148.17 127.99 C 148.95 127.41 149.11 126.30 148.52 125.52 L 147.86 124.63 C 147.27 123.85 146.17 123.69 145.38 124.28 C 144.60 124.86 144.44 125.97 145.03 126.75 Z M 145.70 127.66 L 146.30 128.43 C 146.90 129.21 148.01 129.35 148.78 128.76 C 149.56 128.16 149.70 127.05 149.11 126.27 L 148.51 125.50 C 147.91 124.72 146.80 124.58 146.03 125.17 C 145.25 125.77 145.11 126.88 145.70 127.66 Z M 146.31 128.45 L 146.87 129.16 C 147.48 129.93 148.60 130.06 149.36 129.45 C 150.13 128.84 150.26 127.72 149.65 126.96 L 149.09 126.25 C 148.49 125.48 147.37 125.35 146.60 125.96 C 145.84 126.57 145.71 127.69 146.31 128.45 Z M 146.88 129.18 L 147.43 129.85 C 148.05 130.61 149.17 130.73 149.93 130.11 C 150.69 129.49 150.81 128.37 150.19 127.61 L 149.64 126.94 C 149.02 126.18 147.90 126.06 147.14 126.68 C 146.38 127.30 146.27 128.42 146.88 129.18 Z M 147.44 129.86 L 148.03 130.58 C 148.66 131.34 149.78 131.44 150.54 130.82 C 151.29 130.19 151.40 129.07 150.77 128.32 L 150.18 127.60 C 149.55 126.84 148.43 126.74 147.68 127.36 C 146.92 127.99 146.81 129.11 147.44 129.86 Z M 148.04 130.59 L 148.67 131.34 C 149.30 132.09 150.43 132.19 151.18 131.56 C 151.93 130.93 152.03 129.80 151.39 129.05 L 150.76 128.30 C 150.13 127.55 149.01 127.45 148.26 128.09 C 147.51 128.72 147.41 129.84 148.04 130.59 Z M 148.68 131.36 L 149.33 132.12 C 149.97 132.86 151.10 132.95 151.84 132.31 C 152.59 131.67 152.68 130.54 152.04 129.80 L 151.38 129.04 C 150.74 128.29 149.62 128.21 148.87 128.85 C 148.13 129.49 148.04 130.61 148.68 131.36 Z M 149.34 132.13 L 150.02 132.90 C 150.67 133.64 151.79 133.72 152.53 133.07 C 153.27 132.42 153.35 131.29 152.70 130.55 L 152.03 129.78 C 151.38 129.04 150.25 128.97 149.51 129.62 C 148.77 130.27 148.69 131.39 149.34 132.13 Z M 150.03 132.92 L 150.72 133.68 C 151.38 134.42 152.50 134.48 153.24 133.82 C 153.97 133.16 154.03 132.03 153.37 131.30 L 152.69 130.53 C 152.03 129.80 150.90 129.74 150.17 130.40 C 149.43 131.06 149.37 132.18 150.03 132.92 Z M 150.73 133.70 L 151.40 134.42 C 152.06 135.15 153.19 135.19 153.92 134.53 C 154.64 133.86 154.69 132.73 154.02 132.00 L 153.36 131.28 C 152.69 130.56 151.56 130.51 150.84 131.18 C 150.11 131.85 150.06 132.98 150.73 133.70 Z M 151.41 134.44 L 152.09 135.16 C 152.77 135.87 153.90 135.91 154.61 135.23 C 155.33 134.55 155.36 133.42 154.69 132.71 L 154.01 131.99 C 153.33 131.27 152.20 131.24 151.48 131.91 C 150.77 132.59 150.73 133.72 151.41 134.44 Z M 152.10 135.17 L 152.80 135.89 C 153.48 136.60 154.61 136.62 155.32 135.94 C 156.03 135.25 156.05 134.12 155.37 133.41 L 154.67 132.69 C 153.99 131.98 152.86 131.96 152.15 132.65 C 151.44 133.33 151.42 134.46 152.10 135.17 Z M 152.81 135.91 L 153.53 136.63 C 154.22 137.33 155.35 137.34 156.05 136.64 C 156.75 135.95 156.76 134.82 156.07 134.12 L 155.35 133.40 C 154.66 132.70 153.53 132.69 152.83 133.38 C 152.13 134.08 152.12 135.21 152.81 135.91 Z M 153.54 136.64 L 154.26 137.36 C 154.96 138.05 156.09 138.04 156.79 137.34 C 157.48 136.64 157.48 135.51 156.77 134.82 L 156.05 134.10 C 155.35 133.41 154.22 133.42 153.53 134.12 C 152.83 134.82 152.84 135.95 153.54 136.64 Z M 154.28 137.37 L 154.98 138.05 C 155.69 138.74 156.82 138.72 157.51 138.01 C 158.19 137.31 158.18 136.18 157.47 135.49 L 156.76 134.81 C 156.05 134.12 154.92 134.14 154.24 134.85 C 153.55 135.55 153.57 136.68 154.28 137.37 Z M 155.00 138.07 L 155.72 138.75 C 156.43 139.43 157.56 139.40 158.24 138.69 C 158.92 137.97 158.89 136.84 158.17 136.16 L 157.45 135.48 C 156.74 134.80 155.61 134.83 154.93 135.54 C 154.25 136.26 154.28 137.39 155.00 138.07 Z M 155.73 138.76 L 156.46 139.45 C 157.19 140.12 158.32 140.08 158.99 139.35 C 159.66 138.63 159.62 137.50 158.89 136.83 L 158.16 136.15 C 157.44 135.48 156.31 135.52 155.64 136.24 C 154.97 136.96 155.01 138.09 155.73 138.76 Z M 156.48 139.46 L 157.22 140.14 C 157.95 140.80 159.08 140.75 159.74 140.02 C 160.41 139.29 160.35 138.16 159.63 137.50 L 158.88 136.82 C 158.15 136.16 157.03 136.21 156.36 136.94 C 155.70 137.67 155.75 138.79 156.48 139.46 Z M 157.24 140.15 L 157.99 140.82 C 158.73 141.48 159.85 141.42 160.51 140.68 C 161.17 139.95 161.10 138.82 160.37 138.16 L 159.61 137.49 C 158.88 136.83 157.75 136.90 157.09 137.63 C 156.44 138.36 156.50 139.49 157.24 140.15 Z M 158.01 140.83 L 158.74 141.48 C 159.48 142.13 160.61 142.05 161.26 141.31 C 161.91 140.57 161.83 139.45 161.09 138.80 L 160.35 138.15 C 159.61 137.50 158.49 137.58 157.84 138.32 C 157.19 139.06 157.27 140.19 158.01 140.83 Z M 158.76 141.49 L 159.51 142.13 C 160.25 142.77 161.38 142.68 162.02 141.94 C 162.66 141.19 162.57 140.07 161.82 139.43 L 161.08 138.79 C 160.33 138.15 159.20 138.23 158.57 138.98 C 157.93 139.73 158.01 140.85 158.76 141.49 Z M 159.52 142.14 L 160.29 142.78 C 161.04 143.41 162.16 143.31 162.79 142.55 C 163.42 141.80 163.32 140.68 162.57 140.05 L 161.80 139.41 C 161.05 138.78 159.93 138.88 159.30 139.64 C 158.67 140.39 158.77 141.51 159.52 142.14 Z M 160.31 142.79 L 161.09 143.43 C 161.85 144.05 162.97 143.93 163.58 143.17 C 164.20 142.41 164.09 141.29 163.33 140.67 L 162.55 140.04 C 161.78 139.42 160.67 139.53 160.05 140.29 C 159.43 141.06 159.54 142.17 160.31 142.79 Z M 161.11 143.44 L 161.91 144.07 C 162.68 144.68 163.79 144.55 164.40 143.78 C 165.01 143.01 164.88 141.90 164.11 141.29 L 163.30 140.66 C 162.54 140.05 161.42 140.18 160.81 140.95 C 160.21 141.72 160.34 142.83 161.11 143.44 Z M 161.93 144.09 L 162.74 144.71 C 163.52 145.30 164.63 145.15 165.22 144.38 C 165.82 143.60 165.67 142.49 164.89 141.89 L 164.08 141.28 C 163.31 140.68 162.20 140.83 161.60 141.61 C 161.01 142.38 161.15 143.49 161.93 144.09 Z M 162.76 144.72 L 163.57 145.32 C 164.35 145.90 165.46 145.74 166.04 144.95 C 166.63 144.17 166.46 143.06 165.68 142.48 L 164.87 141.88 C 164.08 141.30 162.98 141.46 162.39 142.25 C 161.81 143.03 161.98 144.14 162.76 144.72 Z M 163.59 145.33 L 164.41 145.92 C 165.20 146.49 166.31 146.31 166.88 145.52 C 167.45 144.73 167.27 143.63 166.48 143.06 L 165.66 142.47 C 164.86 141.90 163.76 142.07 163.19 142.87 C 162.62 143.66 162.80 144.76 163.59 145.33 Z M 164.43 145.93 L 165.26 146.51 C 166.06 147.07 167.16 146.88 167.72 146.08 C 168.27 145.28 168.08 144.18 167.28 143.63 L 166.45 143.05 C 165.66 142.49 164.56 142.68 164.00 143.48 C 163.44 144.28 163.63 145.38 164.43 145.93 Z M 165.28 146.53 L 166.11 147.09 C 166.91 147.63 168.01 147.43 168.55 146.62 C 169.10 145.82 168.89 144.72 168.09 144.18 L 167.26 143.61 C 166.46 143.07 165.36 143.28 164.82 144.08 C 164.27 144.88 164.48 145.98 165.28 146.53 Z M 166.13 147.10 L 166.95 147.64 C 167.76 148.17 168.85 147.95 169.39 147.14 C 169.92 146.33 169.70 145.24 168.89 144.70 L 168.07 144.16 C 167.25 143.63 166.16 143.85 165.63 144.67 C 165.10 145.48 165.32 146.57 166.13 147.10 Z M 166.98 147.65 L 167.85 148.21 C 168.67 148.73 169.75 148.49 170.27 147.67 C 170.79 146.85 170.55 145.77 169.73 145.25 L 168.86 144.69 C 168.04 144.17 166.96 144.41 166.44 145.23 C 165.92 146.05 166.16 147.13 166.98 147.65 Z M 167.88 148.22 L 168.76 148.76 C 169.58 149.26 170.66 149.00 171.16 148.18 C 171.67 147.35 171.41 146.27 170.58 145.77 L 169.70 145.23 C 168.88 144.73 167.80 144.99 167.30 145.82 C 166.80 146.64 167.06 147.72 167.88 148.22 Z M 168.79 148.77 L 169.65 149.27 C 170.48 149.76 171.55 149.48 172.04 148.65 C 172.53 147.82 172.25 146.75 171.42 146.26 L 170.55 145.76 C 169.72 145.27 168.65 145.55 168.16 146.38 C 167.68 147.21 167.96 148.28 168.79 148.77 Z M 169.68 149.29 L 170.54 149.77 C 171.38 150.24 172.44 149.94 172.91 149.10 C 173.38 148.26 173.08 147.20 172.24 146.73 L 171.38 146.25 C 170.55 145.78 169.49 146.08 169.02 146.92 C 168.55 147.76 168.85 148.82 169.68 149.29 Z M 170.57 149.78 L 171.42 150.23 C 172.26 150.69 173.31 150.37 173.77 149.52 C 174.22 148.68 173.90 147.63 173.06 147.18 L 172.21 146.72 C 171.36 146.27 170.31 146.58 169.86 147.43 C 169.41 148.27 169.73 149.32 170.57 149.78 Z M 171.45 150.24 L 172.34 150.70 C 173.19 151.13 174.23 150.79 174.66 149.94 C 175.10 149.09 174.76 148.05 173.91 147.62 L 173.03 147.16 C 172.18 146.73 171.13 147.07 170.70 147.92 C 170.26 148.77 170.60 149.81 171.45 150.24 Z M 172.37 150.71 L 173.28 151.15 C 174.13 151.57 175.16 151.21 175.58 150.35 C 176.00 149.50 175.64 148.47 174.79 148.05 L 173.88 147.61 C 173.02 147.19 171.99 147.55 171.58 148.40 C 171.16 149.26 171.51 150.29 172.37 150.71 Z M 173.31 151.16 L 174.22 151.58 C 175.08 151.98 176.10 151.60 176.50 150.74 C 176.90 149.89 176.52 148.86 175.66 148.47 L 174.76 148.04 C 173.90 147.64 172.88 148.02 172.48 148.88 C 172.08 149.74 172.45 150.76 173.31 151.16 Z M 174.25 151.59 L 175.16 151.99 C 176.02 152.37 177.03 151.98 177.41 151.12 C 177.79 150.25 177.40 149.24 176.54 148.86 L 175.63 148.46 C 174.77 148.08 173.76 148.47 173.38 149.33 C 173.00 150.19 173.39 151.20 174.25 151.59 Z M 175.19 151.99 L 176.10 152.38 C 176.96 152.74 177.96 152.34 178.33 151.47 C 178.69 150.60 178.29 149.60 177.42 149.24 L 176.51 148.85 C 175.65 148.49 174.65 148.90 174.28 149.76 C 173.91 150.63 174.32 151.63 175.19 151.99 Z M 176.12 152.38 L 177.07 152.76 C 177.93 153.11 178.92 152.69 179.27 151.82 C 179.62 150.95 179.20 149.96 178.33 149.61 L 177.39 149.23 C 176.52 148.89 175.53 149.31 175.18 150.17 C 174.84 151.04 175.26 152.03 176.12 152.38 Z M 177.09 152.76 L 178.04 153.12 C 178.91 153.46 179.88 153.02 180.22 152.15 C 180.55 151.28 180.12 150.31 179.25 149.98 L 178.30 149.61 C 177.43 149.28 176.46 149.71 176.12 150.58 C 175.79 151.45 176.22 152.43 177.09 152.76 Z M 178.07 153.12 L 179.01 153.47 C 179.88 153.79 180.84 153.34 181.16 152.47 C 181.48 151.60 181.03 150.64 180.16 150.32 L 179.22 149.97 C 178.35 149.66 177.39 150.10 177.07 150.97 C 176.75 151.84 177.20 152.81 178.07 153.12 Z M 179.04 153.47 L 179.97 153.79 C 180.84 154.10 181.79 153.64 182.09 152.77 C 182.40 151.90 181.94 150.95 181.07 150.64 L 180.13 150.32 C 179.26 150.02 178.31 150.47 178.01 151.34 C 177.71 152.21 178.17 153.16 179.04 153.47 Z M 179.99 153.79 L 180.93 154.10 C 181.80 154.39 182.74 153.92 183.03 153.05 C 183.32 152.19 182.85 151.25 181.98 150.96 L 181.04 150.65 C 180.17 150.36 179.23 150.83 178.94 151.70 C 178.66 152.57 179.13 153.50 179.99 153.79 Z M 180.96 154.10 L 181.94 154.41 C 182.81 154.69 183.73 154.20 184.01 153.34 C 184.28 152.47 183.80 151.54 182.93 151.27 L 181.95 150.96 C 181.08 150.69 180.16 151.17 179.88 152.04 C 179.61 152.90 180.09 153.83 180.96 154.10 Z M 181.97 154.41 L 182.94 154.70 C 183.80 154.96 184.71 154.46 184.97 153.60 C 185.23 152.73 184.74 151.82 183.87 151.56 L 182.90 151.27 C 182.04 151.01 181.13 151.51 180.87 152.37 C 180.61 153.24 181.10 154.15 181.97 154.41 Z M 182.97 154.69 L 183.92 154.96 C 184.78 155.20 185.68 154.70 185.92 153.83 C 186.16 152.97 185.66 152.07 184.79 151.83 L 183.84 151.56 C 182.98 151.32 182.08 151.83 181.84 152.69 C 181.60 153.56 182.10 154.45 182.97 154.69 Z M 183.95 154.96 L 184.88 155.20 C 185.75 155.43 186.63 154.91 186.85 154.05 C 187.08 153.18 186.56 152.30 185.70 152.08 L 184.76 151.83 C 183.90 151.61 183.02 152.12 182.79 152.99 C 182.57 153.85 183.08 154.73 183.95 154.96 Z M 184.92 155.20 L 185.90 155.44 C 186.76 155.64 187.63 155.11 187.84 154.25 C 188.04 153.39 187.51 152.52 186.65 152.32 L 185.67 152.08 C 184.81 151.87 183.94 152.40 183.73 153.26 C 183.52 154.12 184.05 154.99 184.92 155.20 Z M 185.93 155.43 L 186.91 155.65 C 187.77 155.84 188.62 155.30 188.81 154.44 C 189.00 153.58 188.46 152.73 187.60 152.54 L 186.62 152.32 C 185.76 152.13 184.91 152.67 184.72 153.53 C 184.53 154.39 185.07 155.24 185.93 155.43 Z M 186.93 155.64 L 187.91 155.84 C 188.76 156.02 189.60 155.47 189.77 154.61 C 189.95 153.76 189.40 152.92 188.54 152.75 L 187.57 152.55 C 186.72 152.37 185.88 152.92 185.71 153.77 C 185.53 154.63 186.08 155.46 186.93 155.64 Z M 187.93 155.83 L 188.90 156.02 C 189.75 156.18 190.58 155.63 190.74 154.78 C 190.90 153.93 190.35 153.10 189.50 152.94 L 188.52 152.75 C 187.67 152.59 186.85 153.15 186.69 154.00 C 186.52 154.85 187.08 155.67 187.93 155.83 Z M 188.92 156.01 L 189.87 156.18 C 190.71 156.34 191.52 155.77 191.67 154.93 C 191.83 154.08 191.27 153.27 190.42 153.12 L 189.48 152.95 C 188.63 152.80 187.82 153.36 187.67 154.20 C 187.52 155.05 188.08 155.86 188.92 156.01 Z M 189.89 156.18 L 190.85 156.33 C 191.70 156.47 192.49 155.90 192.63 155.06 C 192.77 154.22 192.20 153.42 191.35 153.28 L 190.39 153.13 C 189.55 152.99 188.76 153.56 188.62 154.40 C 188.48 155.24 189.05 156.04 189.89 156.18 Z M 190.89 156.33 L 191.89 156.47 C 192.73 156.58 193.50 156.00 193.62 155.16 C 193.74 154.32 193.15 153.55 192.31 153.43 L 191.32 153.29 C 190.48 153.17 189.70 153.76 189.59 154.60 C 189.47 155.44 190.05 156.21 190.89 156.33 Z M 191.93 156.46 L 192.97 156.58 C 193.81 156.67 194.56 156.07 194.65 155.23 C 194.74 154.39 194.14 153.64 193.31 153.55 L 192.27 153.43 C 191.43 153.34 190.68 153.94 190.59 154.78 C 190.49 155.62 191.10 156.37 191.93 156.46 Z M 193.02 156.57 L 194.00 156.65 C 194.84 156.72 195.57 156.10 195.63 155.26 C 195.70 154.43 195.08 153.70 194.25 153.63 L 193.26 153.56 C 192.43 153.49 191.70 154.11 191.63 154.94 C 191.56 155.77 192.18 156.50 193.02 156.57 Z M 194.04 156.64 L 195.03 156.70 C 195.86 156.75 196.57 156.11 196.62 155.28 C 196.67 154.46 196.03 153.75 195.21 153.70 L 194.21 153.64 C 193.38 153.59 192.67 154.23 192.62 155.06 C 192.58 155.89 193.21 156.60 194.04 156.64 Z M 195.06 156.69 L 196.07 156.73 C 196.90 156.77 197.59 156.12 197.63 155.30 C 197.66 154.47 197.02 153.78 196.19 153.75 L 195.18 153.71 C 194.35 153.67 193.66 154.32 193.63 155.14 C 193.59 155.97 194.24 156.66 195.06 156.69 Z M 196.09 156.72 L 197.11 156.75 C 197.93 156.77 198.61 156.13 198.63 155.30 C 198.65 154.48 198.01 153.80 197.19 153.78 L 196.17 153.75 C 195.35 153.73 194.67 154.38 194.65 155.20 C 194.63 156.02 195.27 156.70 196.09 156.72 Z M 197.12 156.74 L 198.13 156.76 C 198.94 156.77 199.62 156.12 199.63 155.31 C 199.64 154.49 198.99 153.82 198.18 153.81 L 197.17 153.79 C 196.36 153.77 195.68 154.42 195.67 155.24 C 195.66 156.06 196.31 156.73 197.12 156.74 Z M 198.14 156.75 L 199.22 156.76 C 200.03 156.77 200.69 156.12 200.70 155.31 C 200.70 154.50 200.05 153.83 199.24 153.83 L 198.17 153.82 C 197.36 153.81 196.69 154.46 196.69 155.27 C 196.68 156.08 197.33 156.74 198.14 156.75 Z M 199.24 156.75 L 200.27 156.74 C 201.07 156.74 201.72 156.08 201.72 155.28 C 201.71 154.47 201.06 153.83 200.25 153.83 L 199.22 153.84 C 198.42 153.84 197.77 154.50 197.77 155.30 C 197.78 156.11 198.43 156.75 199.24 156.75 Z M 200.31 156.73 L 201.29 156.70 C 202.09 156.68 202.71 156.01 202.69 155.21 C 202.67 154.41 202.00 153.79 201.20 153.81 L 200.22 153.84 C 199.42 153.87 198.79 154.53 198.82 155.33 C 198.84 156.13 199.51 156.76 200.31 156.73 Z M 201.34 156.69 L 202.27 156.62 C 203.06 156.57 203.66 155.89 203.60 155.09 C 203.55 154.30 202.86 153.71 202.07 153.76 L 201.15 153.82 C 200.36 153.88 199.76 154.56 199.81 155.35 C 199.87 156.15 200.55 156.74 201.34 156.69 Z M 202.35 156.61 L 203.37 156.48 C 204.15 156.39 204.70 155.67 204.61 154.89 C 204.51 154.11 203.80 153.55 203.01 153.65 L 201.99 153.78 C 201.21 153.87 200.66 154.59 200.75 155.37 C 200.85 156.15 201.56 156.71 202.35 156.61 Z M 203.45 156.47 L 204.44 156.29 C 205.22 156.14 205.73 155.40 205.59 154.62 C 205.44 153.85 204.70 153.34 203.92 153.48 L 202.93 153.66 C 202.16 153.81 201.64 154.55 201.79 155.33 C 201.93 156.10 202.67 156.61 203.45 156.47 Z M 204.50 156.27 L 205.45 156.06 C 206.21 155.88 206.69 155.12 206.52 154.35 C 206.34 153.58 205.58 153.10 204.81 153.28 L 203.86 153.49 C 203.10 153.67 202.62 154.43 202.79 155.20 C 202.97 155.97 203.73 156.45 204.50 156.27 Z M 205.47 156.05 L 206.10 155.89 C 206.86 155.70 207.33 154.93 207.14 154.17 C 206.95 153.40 206.18 152.94 205.41 153.13 L 204.78 153.28 C 204.02 153.47 203.55 154.24 203.74 155.01 C 203.93 155.77 204.71 156.24 205.47 156.05 Z"
      fill="black"
      fill-rule="nonzero" /><path d="M 148.67 161.51 L 149.70 161.64 C 150.56 161.75 151.36 161.13 151.47 160.27 C 151.58 159.40 150.96 158.60 150.10 158.49 L 149.07 158.36 C 148.20 158.25 147.41 158.87 147.30 159.73 C 147.19 160.60 147.80 161.39 148.67 161.51 Z M 149.67 161.64 L 150.68 161.78 C 151.55 161.91 152.36 161.30 152.48 160.43 C 152.60 159.56 152.00 158.76 151.13 158.63 L 150.12 158.49 C 149.25 158.37 148.44 158.97 148.32 159.84 C 148.20 160.71 148.80 161.52 149.67 161.64 Z M 150.63 161.78 L 151.61 161.95 C 152.48 162.11 153.31 161.52 153.46 160.65 C 153.61 159.78 153.03 158.96 152.16 158.80 L 151.18 158.63 C 150.31 158.48 149.48 159.07 149.33 159.94 C 149.18 160.81 149.76 161.63 150.63 161.78 Z M 151.53 161.95 L 152.47 162.16 C 153.33 162.35 154.19 161.81 154.39 160.94 C 154.58 160.08 154.04 159.22 153.17 159.02 L 152.24 158.81 C 151.37 158.62 150.51 159.16 150.32 160.03 C 150.12 160.89 150.67 161.75 151.53 161.95 Z M 152.36 162.12 L 153.33 162.41 C 154.18 162.66 155.06 162.19 155.32 161.34 C 155.57 160.50 155.09 159.61 154.25 159.36 L 153.28 159.06 C 152.44 158.81 151.55 159.29 151.29 160.13 C 151.04 160.97 151.52 161.86 152.36 162.12 Z M 153.24 162.34 L 154.17 162.69 C 154.97 163.00 155.87 162.60 156.18 161.79 C 156.49 160.98 156.08 160.08 155.28 159.78 L 154.35 159.42 C 153.54 159.12 152.64 159.52 152.33 160.33 C 152.03 161.13 152.43 162.03 153.24 162.34 Z M 154.11 162.63 L 155.01 163.03 C 155.78 163.37 156.68 163.02 157.02 162.25 C 157.36 161.48 157.01 160.58 156.24 160.24 L 155.34 159.84 C 154.57 159.50 153.67 159.85 153.33 160.62 C 152.99 161.39 153.34 162.29 154.11 162.63 Z M 154.99 162.98 L 155.87 163.40 C 156.62 163.75 157.50 163.43 157.86 162.69 C 158.21 161.95 157.89 161.06 157.15 160.71 L 156.26 160.29 C 155.52 159.94 154.63 160.25 154.28 160.99 C 153.93 161.74 154.24 162.63 154.99 162.98 Z M 155.86 163.37 L 156.72 163.79 C 157.44 164.15 158.32 163.85 158.68 163.12 C 159.04 162.40 158.74 161.52 158.02 161.16 L 157.16 160.74 C 156.43 160.38 155.55 160.68 155.20 161.40 C 154.84 162.13 155.14 163.01 155.86 163.37 Z M 156.69 163.76 L 157.56 164.22 C 158.28 164.60 159.16 164.32 159.53 163.61 C 159.90 162.90 159.63 162.02 158.92 161.64 L 158.04 161.19 C 157.33 160.81 156.45 161.09 156.08 161.80 C 155.70 162.51 155.98 163.39 156.69 163.76 Z M 157.52 164.19 L 158.41 164.70 C 159.11 165.09 159.99 164.85 160.38 164.16 C 160.78 163.47 160.54 162.59 159.85 162.19 L 158.96 161.68 C 158.27 161.28 157.38 161.52 156.99 162.22 C 156.59 162.91 156.83 163.79 157.52 164.19 Z M 158.36 164.65 L 159.23 165.20 C 159.90 165.63 160.79 165.43 161.21 164.76 C 161.63 164.09 161.44 163.21 160.77 162.78 L 159.90 162.23 C 159.23 161.81 158.34 162.01 157.92 162.68 C 157.50 163.35 157.69 164.23 158.36 164.65 Z M 159.19 165.17 L 159.98 165.72 C 160.63 166.17 161.52 166.01 161.97 165.36 C 162.42 164.71 162.26 163.82 161.61 163.37 L 160.81 162.82 C 160.16 162.37 159.27 162.53 158.82 163.18 C 158.38 163.83 158.54 164.72 159.19 165.17 Z M 159.95 165.69 L 160.75 166.28 C 161.38 166.75 162.28 166.62 162.74 165.98 C 163.21 165.34 163.08 164.45 162.44 163.98 L 161.64 163.39 C 161.00 162.93 160.11 163.06 159.64 163.70 C 159.17 164.33 159.31 165.23 159.95 165.69 Z M 160.73 166.27 L 161.54 166.89 C 162.16 167.36 163.06 167.25 163.54 166.62 C 164.02 165.99 163.90 165.10 163.27 164.62 L 162.46 164.00 C 161.84 163.52 160.94 163.64 160.46 164.27 C 159.98 164.89 160.10 165.79 160.73 166.27 Z M 161.52 166.88 L 162.34 167.51 C 162.96 168.00 163.85 167.89 164.34 167.26 C 164.82 166.64 164.71 165.75 164.09 165.26 L 163.28 164.63 C 162.66 164.14 161.76 164.25 161.28 164.87 C 160.79 165.49 160.90 166.39 161.52 166.88 Z M 162.33 167.51 L 162.54 167.67 C 163.16 168.16 164.06 168.05 164.54 167.43 C 165.03 166.81 164.92 165.91 164.30 165.43 L 164.10 165.27 C 163.48 164.78 162.58 164.89 162.09 165.51 C 161.61 166.13 161.72 167.02 162.33 167.51 Z"
      fill="black"
      fill-rule="nonzero" /><path d="M 147.02 186.35 L 146.99 187.33 C 146.97 188.21 147.66 188.94 148.53 188.96 C 149.41 188.99 150.14 188.30 150.16 187.42 L 150.19 186.44 C 150.22 185.56 149.53 184.83 148.65 184.81 C 147.77 184.78 147.04 185.47 147.02 186.35 Z M 146.96 187.43 L 146.99 188.41 C 147.02 189.30 147.77 190.00 148.66 189.98 C 149.55 189.95 150.25 189.20 150.22 188.31 L 150.19 187.33 C 150.16 186.44 149.42 185.74 148.53 185.76 C 147.64 185.79 146.94 186.54 146.96 187.43 Z M 146.99 188.61 L 147.13 189.60 C 147.27 190.50 148.10 191.11 149.00 190.98 C 149.89 190.85 150.51 190.01 150.38 189.11 L 150.23 188.12 C 150.10 187.23 149.26 186.61 148.37 186.74 C 147.47 186.87 146.85 187.71 146.99 188.61 Z M 147.17 189.86 L 147.47 190.80 C 147.74 191.67 148.68 192.16 149.55 191.88 C 150.43 191.60 150.91 190.67 150.64 189.80 L 150.34 188.86 C 150.06 187.98 149.13 187.50 148.26 187.77 C 147.38 188.05 146.90 188.98 147.17 189.86 Z M 147.55 191.03 L 147.98 191.90 C 148.38 192.73 149.38 193.08 150.21 192.67 C 151.04 192.27 151.38 191.27 150.98 190.44 L 150.55 189.56 C 150.15 188.73 149.15 188.39 148.32 188.79 C 147.49 189.20 147.15 190.20 147.55 191.03 Z M 148.07 192.07 L 148.61 192.92 C 149.11 193.70 150.15 193.93 150.93 193.43 C 151.71 192.93 151.93 191.90 151.43 191.12 L 150.89 190.27 C 150.39 189.49 149.35 189.26 148.57 189.76 C 147.80 190.26 147.57 191.29 148.07 192.07 Z M 148.71 193.06 L 149.35 193.87 C 149.93 194.60 150.98 194.72 151.71 194.14 C 152.43 193.57 152.55 192.51 151.98 191.79 L 151.34 190.98 C 150.76 190.25 149.71 190.13 148.98 190.71 C 148.26 191.28 148.13 192.34 148.71 193.06 Z M 149.45 193.99 L 150.14 194.71 C 150.78 195.38 151.84 195.41 152.51 194.77 C 153.18 194.13 153.21 193.06 152.57 192.39 L 151.88 191.67 C 151.24 191.00 150.18 190.97 149.50 191.61 C 148.83 192.25 148.81 193.32 149.45 193.99 Z M 150.24 194.81 L 150.97 195.45 C 151.67 196.06 152.73 196.00 153.34 195.30 C 153.95 194.60 153.88 193.54 153.19 192.93 L 152.46 192.29 C 151.77 191.68 150.71 191.75 150.09 192.44 C 149.48 193.14 149.55 194.20 150.24 194.81 Z M 151.08 195.54 L 151.87 196.12 C 152.61 196.68 153.66 196.52 154.22 195.78 C 154.77 195.03 154.61 193.98 153.87 193.43 L 153.08 192.84 C 152.33 192.29 151.28 192.45 150.73 193.19 C 150.18 193.93 150.33 194.99 151.08 195.54 Z M 151.98 196.20 L 152.84 196.74 C 153.62 197.23 154.66 196.99 155.15 196.21 C 155.64 195.43 155.41 194.39 154.62 193.90 L 153.76 193.36 C 152.98 192.86 151.94 193.10 151.45 193.88 C 150.96 194.67 151.19 195.70 151.98 196.20 Z M 152.94 196.79 L 153.86 197.29 C 154.67 197.72 155.69 197.42 156.13 196.60 C 156.56 195.79 156.26 194.77 155.44 194.34 L 154.52 193.84 C 153.71 193.40 152.69 193.71 152.26 194.53 C 151.82 195.34 152.12 196.36 152.94 196.79 Z M 153.94 197.32 L 154.86 197.75 C 155.69 198.14 156.69 197.78 157.08 196.95 C 157.47 196.12 157.11 195.12 156.28 194.73 L 155.36 194.30 C 154.53 193.91 153.53 194.27 153.14 195.10 C 152.75 195.94 153.11 196.93 153.94 197.32 Z M 154.92 197.77 L 155.87 198.17 C 156.72 198.53 157.69 198.13 158.05 197.28 C 158.40 196.43 158.00 195.46 157.16 195.11 L 156.21 194.71 C 155.36 194.35 154.39 194.75 154.03 195.60 C 153.68 196.45 154.08 197.42 154.92 197.77 Z M 155.93 198.19 L 156.88 198.55 C 157.74 198.87 158.69 198.44 159.01 197.58 C 159.34 196.73 158.91 195.77 158.05 195.45 L 157.10 195.09 C 156.25 194.77 155.29 195.20 154.97 196.05 C 154.65 196.91 155.08 197.86 155.93 198.19 Z M 156.94 198.56 L 157.86 198.87 C 158.72 199.16 159.66 198.70 159.95 197.84 C 160.24 196.98 159.78 196.05 158.92 195.76 L 158.00 195.44 C 157.14 195.15 156.20 195.61 155.91 196.47 C 155.62 197.33 156.08 198.26 156.94 198.56 Z M 157.92 198.88 L 158.89 199.17 C 159.76 199.43 160.67 198.94 160.93 198.08 C 161.19 197.22 160.70 196.31 159.84 196.05 L 158.86 195.75 C 158.00 195.49 157.09 195.98 156.83 196.84 C 156.57 197.70 157.06 198.61 157.92 198.88 Z M 158.97 199.17 L 159.95 199.42 C 160.81 199.64 161.69 199.12 161.91 198.26 C 162.13 197.40 161.61 196.52 160.75 196.30 L 159.77 196.05 C 158.91 195.83 158.03 196.35 157.81 197.21 C 157.59 198.07 158.10 198.95 158.97 199.17 Z M 160.03 199.41 L 160.98 199.61 C 161.83 199.79 162.67 199.24 162.85 198.38 C 163.03 197.53 162.48 196.69 161.62 196.51 L 160.68 196.31 C 159.82 196.13 158.98 196.68 158.80 197.54 C 158.62 198.39 159.17 199.23 160.03 199.41 Z M 161.05 199.60 L 162.00 199.75 C 162.85 199.89 163.65 199.32 163.79 198.47 C 163.93 197.62 163.36 196.82 162.51 196.68 L 161.56 196.52 C 160.71 196.38 159.90 196.95 159.76 197.80 C 159.62 198.65 160.20 199.46 161.05 199.60 Z M 162.05 199.74 L 163.00 199.87 C 163.84 199.98 164.61 199.39 164.72 198.55 C 164.84 197.71 164.25 196.93 163.41 196.82 L 162.46 196.69 C 161.62 196.58 160.84 197.17 160.73 198.01 C 160.62 198.85 161.21 199.63 162.05 199.74 Z M 163.03 199.86 L 164.01 199.96 C 164.84 200.06 165.59 199.45 165.69 198.62 C 165.78 197.78 165.18 197.03 164.34 196.94 L 163.37 196.83 C 162.53 196.74 161.78 197.34 161.69 198.18 C 161.60 199.01 162.20 199.76 163.03 199.86 Z M 164.04 199.95 L 165.05 200.04 C 165.88 200.12 166.61 199.50 166.68 198.67 C 166.76 197.84 166.14 197.11 165.31 197.04 L 164.31 196.95 C 163.48 196.88 162.74 197.49 162.67 198.32 C 162.60 199.15 163.21 199.88 164.04 199.95 Z M 165.08 200.03 L 166.12 200.10 C 166.94 200.16 167.65 199.53 167.71 198.71 C 167.76 197.88 167.14 197.17 166.31 197.12 L 165.28 197.05 C 164.46 197.00 163.74 197.62 163.69 198.44 C 163.64 199.27 164.26 199.98 165.08 200.03 Z M 166.15 200.09 L 167.15 200.13 C 167.97 200.17 168.66 199.54 168.70 198.72 C 168.73 197.90 168.10 197.21 167.28 197.17 L 166.28 197.13 C 165.46 197.09 164.77 197.73 164.73 198.54 C 164.70 199.36 165.33 200.05 166.15 200.09 Z M 167.18 200.13 L 168.16 200.15 C 168.98 200.17 169.65 199.53 169.67 198.72 C 169.69 197.90 169.05 197.23 168.24 197.21 L 167.25 197.18 C 166.44 197.16 165.76 197.80 165.74 198.62 C 165.72 199.43 166.37 200.10 167.18 200.13 Z M 168.18 200.14 L 169.18 200.15 C 169.99 200.16 170.65 199.52 170.66 198.71 C 170.67 197.90 170.02 197.24 169.21 197.23 L 168.22 197.22 C 167.41 197.21 166.75 197.85 166.74 198.66 C 166.73 199.47 167.37 200.13 168.18 200.14 Z M 169.19 200.14 L 170.20 200.15 C 171.00 200.15 171.66 199.50 171.66 198.70 C 171.66 197.90 171.02 197.25 170.21 197.24 L 169.20 197.24 C 168.40 197.23 167.75 197.88 167.74 198.69 C 167.74 199.49 168.39 200.14 169.19 200.14 Z M 170.21 200.14 L 171.22 200.14 C 172.02 200.14 172.67 199.49 172.67 198.70 C 172.67 197.90 172.02 197.25 171.22 197.25 L 170.21 197.25 C 169.41 197.25 168.76 197.90 168.76 198.69 C 168.76 199.49 169.41 200.14 170.21 200.14 Z M 171.23 200.13 L 172.20 200.13 C 172.99 200.13 173.64 199.48 173.63 198.69 C 173.63 197.89 172.98 197.25 172.19 197.25 L 171.22 197.26 C 170.42 197.26 169.78 197.91 169.78 198.70 C 169.79 199.50 170.43 200.14 171.23 200.13 Z M 172.22 200.13 L 173.21 200.11 C 174.00 200.09 174.63 199.44 174.62 198.65 C 174.60 197.85 173.95 197.22 173.16 197.24 L 172.17 197.26 C 171.37 197.27 170.74 197.93 170.76 198.72 C 170.77 199.51 171.43 200.14 172.22 200.13 Z M 173.25 200.10 L 174.25 200.06 C 175.04 200.02 175.65 199.35 175.62 198.56 C 175.58 197.77 174.91 197.16 174.12 197.20 L 173.12 197.24 C 172.33 197.28 171.72 197.95 171.75 198.74 C 171.79 199.53 172.46 200.14 173.25 200.10 Z M 174.31 200.05 L 175.32 199.97 C 176.11 199.90 176.69 199.21 176.63 198.42 C 176.56 197.64 175.87 197.05 175.09 197.12 L 174.07 197.20 C 173.28 197.27 172.70 197.96 172.76 198.75 C 172.83 199.53 173.52 200.12 174.31 200.05 Z M 175.39 199.96 L 176.39 199.83 C 177.17 199.72 177.72 199.01 177.62 198.23 C 177.51 197.45 176.80 196.90 176.01 197.00 L 175.02 197.13 C 174.24 197.23 173.69 197.95 173.79 198.73 C 173.89 199.51 174.61 200.06 175.39 199.96 Z M 176.45 199.82 L 177.42 199.64 C 178.19 199.50 178.71 198.76 178.57 197.99 C 178.43 197.21 177.69 196.70 176.92 196.84 L 175.95 197.01 C 175.18 197.15 174.66 197.89 174.80 198.66 C 174.94 199.44 175.68 199.95 176.45 199.82 Z M 177.47 199.63 L 178.44 199.42 C 179.21 199.26 179.70 198.50 179.54 197.73 C 179.37 196.96 178.61 196.47 177.84 196.64 L 176.87 196.85 C 176.10 197.01 175.61 197.77 175.77 198.54 C 175.94 199.31 176.70 199.80 177.47 199.63 Z M 178.48 199.42 L 179.46 199.18 C 180.22 199.00 180.69 198.23 180.51 197.46 C 180.32 196.70 179.55 196.23 178.79 196.41 L 177.81 196.64 C 177.04 196.83 176.57 197.60 176.76 198.36 C 176.94 199.13 177.71 199.60 178.48 199.42 Z M 179.48 199.18 L 180.46 198.92 C 181.22 198.73 181.68 197.95 181.49 197.19 C 181.29 196.43 180.51 195.97 179.75 196.16 L 178.77 196.41 C 178.01 196.61 177.55 197.39 177.74 198.15 C 177.94 198.91 178.71 199.37 179.48 199.18 Z M 180.47 198.92 L 181.11 198.75 C 181.88 198.55 182.33 197.77 182.13 197.01 C 181.93 196.25 181.15 195.79 180.39 195.99 L 179.74 196.16 C 178.98 196.36 178.53 197.14 178.73 197.90 C 178.93 198.67 179.71 199.12 180.47 198.92 Z"
      fill="black"
      fill-rule="nonzero" /></svg>