<svg xmlns="http://www.w3.org/2000/svg" width="300" height="300" viewBox="0 0 300 300">
<path d="M 121.49 111.39 L 120.51 111.38 C 119.63 111.38 118.92 112.09 118.92 112.96 C 118.91 113.83 119.62 114.55 120.49 114.55 L 121.48 114.55 C 122.35 114.56 123.06 113.85 123.07 112.98 C 123.07 112.10 122.37 111.39 121.49 111.39 Z M 120.54 111.35 L 119.55 111.33 C 118.66 111.30 117.92 112.00 117.89 112.89 C 117.87 113.79 118.57 114.53 119.46 114.55 L 120.45 114.58 C 121.35 114.61 122.09 113.90 122.11 113.01 C 122.14 112.12 121.44 111.38 120.54 111.35 Z M 119.63 111.30 L 118.62 111.22 C 117.71 111.15 116.92 111.84 116.85 112.74 C 116.79 113.65 117.47 114.44 118.37 114.51 L 119.38 114.58 C 120.29 114.65 121.08 113.97 121.15 113.06 C 121.21 112.15 120.53 111.36 119.63 111.30 Z M 118.74 111.21 L 117.48 111.02 C 116.57 110.88 115.72 111.51 115.58 112.43 C 115.44 113.34 116.07 114.19 116.98 114.33 L 118.25 114.52 C 119.16 114.65 120.01 114.03 120.15 113.11 C 120.29 112.20 119.66 111.35 118.74 111.21 Z M 117.72 111.06 L 116.77 110.77 C 115.88 110.50 114.94 111.00 114.67 111.89 C 114.39 112.78 114.89 113.72 115.78 113.99 L 116.74 114.28 C 117.63 114.56 118.57 114.06 118.84 113.17 C 119.11 112.28 118.61 111.33 117.72 111.06 Z M 117.95 112.09 L 117.89 111.78 C 117.73 110.86 116.85 110.25 115.93 110.41 C 115.01 110.57 114.39 111.45 114.55 112.37 L 114.61 112.68 C 114.77 113.60 115.65 114.21 116.57 114.05 C 117.49 113.89 118.11 113.01 117.95 112.09 Z M 116.81 113.68 L 117.52 113.42 C 118.41 113.09 118.86 112.12 118.54 111.24 C 118.22 110.35 117.24 109.90 116.36 110.22 L 115.64 110.48 C 114.76 110.80 114.30 111.78 114.63 112.66 C 114.95 113.54 115.92 114.00 116.81 113.68 Z M 117.30 113.48 L 118.48 113.23 C 119.40 113.03 119.98 112.12 119.78 111.20 C 119.58 110.28 118.67 109.70 117.75 109.90 L 116.58 110.15 C 115.66 110.35 115.08 111.26 115.28 112.18 C 115.48 113.10 116.38 113.68 117.30 113.48 Z M 118.42 113.24 L 119.61 113.02 C 120.54 112.86 121.15 111.97 120.99 111.04 C 120.82 110.12 119.93 109.50 119.00 109.67 L 117.81 109.88 C 116.88 110.05 116.27 110.94 116.44 111.87 C 116.60 112.79 117.49 113.41 118.42 113.24 Z M 119.60 113.03 L 120.53 112.87 C 121.46 112.71 122.08 111.83 121.92 110.90 C 121.76 109.97 120.88 109.34 119.95 109.50 L 119.02 109.66 C 118.09 109.82 117.47 110.71 117.63 111.64 C 117.79 112.56 118.67 113.19 119.60 113.03 Z M 120.52 112.87 L 121.48 112.71 C 122.41 112.55 123.04 111.67 122.88 110.75 C 122.73 109.82 121.85 109.19 120.92 109.34 L 119.96 109.50 C 119.03 109.66 118.40 110.54 118.56 111.47 C 118.71 112.40 119.59 113.02 120.52 112.87 Z M 121.48 112.71 L 122.48 112.55 C 123.41 112.39 124.04 111.52 123.89 110.59 C 123.74 109.66 122.86 109.03 121.93 109.18 L 120.93 109.34 C 120.00 109.49 119.36 110.37 119.52 111.30 C 119.67 112.23 120.55 112.86 121.48 112.71 Z M 122.48 112.55 L 123.54 112.37 C 124.47 112.22 125.10 111.35 124.95 110.42 C 124.80 109.49 123.92 108.85 122.99 109.00 L 121.93 109.18 C 121.00 109.33 120.37 110.20 120.52 111.14 C 120.67 112.07 121.55 112.70 122.48 112.55 Z M 123.54 112.37 L 124.54 112.21 C 125.47 112.06 126.10 111.18 125.95 110.25 C 125.80 109.32 124.92 108.69 123.99 108.84 L 122.99 109.00 C 122.06 109.16 121.43 110.03 121.58 110.96 C 121.73 111.89 122.61 112.52 123.54 112.37 Z M 124.54 112.21 L 125.56 112.05 C 126.49 111.90 127.12 111.02 126.97 110.09 C 126.82 109.16 125.94 108.53 125.01 108.68 L 123.99 108.84 C 123.06 108.99 122.43 109.87 122.58 110.80 C 122.73 111.73 123.61 112.36 124.54 112.21 Z M 125.56 112.05 L 126.58 111.88 C 127.51 111.74 128.14 110.86 127.99 109.93 C 127.84 109.00 126.97 108.37 126.04 108.51 L 125.02 108.68 C 124.09 108.83 123.45 109.70 123.60 110.63 C 123.75 111.56 124.62 112.20 125.56 112.05 Z M 126.57 111.88 L 127.56 111.73 C 128.49 111.58 129.13 110.71 128.98 109.78 C 128.84 108.85 127.96 108.21 127.03 108.36 L 126.04 108.51 C 125.11 108.66 124.48 109.53 124.62 110.46 C 124.77 111.40 125.64 112.03 126.57 111.88 Z M 127.56 111.73 L 128.48 111.59 C 129.42 111.45 130.06 110.57 129.91 109.64 C 129.77 108.71 128.90 108.07 127.97 108.21 L 127.04 108.36 C 126.11 108.50 125.47 109.37 125.61 110.30 C 125.75 111.23 126.62 111.87 127.56 111.73 Z M 128.47 111.59 L 129.58 111.43 C 130.51 111.29 131.16 110.43 131.02 109.49 C 130.88 108.56 130.02 107.92 129.09 108.05 L 127.98 108.21 C 127.05 108.35 126.40 109.21 126.54 110.15 C 126.67 111.08 127.54 111.73 128.47 111.59 Z M 129.57 111.43 L 130.58 111.29 C 131.51 111.16 132.16 110.30 132.03 109.37 C 131.90 108.43 131.04 107.78 130.11 107.91 L 129.10 108.05 C 128.16 108.18 127.51 109.04 127.64 109.98 C 127.77 110.91 128.63 111.56 129.57 111.43 Z M 130.57 111.29 L 131.49 111.17 C 132.43 111.04 133.08 110.18 132.96 109.24 C 132.83 108.31 131.97 107.65 131.03 107.78 L 130.11 107.91 C 129.17 108.03 128.52 108.90 128.65 109.83 C 128.77 110.77 129.64 111.42 130.57 111.29 Z M 131.50 111.17 L 132.41 111.04 C 133.34 110.91 134.00 110.04 133.86 109.11 C 133.73 108.17 132.87 107.52 131.93 107.65 L 131.02 107.78 C 130.09 107.91 129.44 108.78 129.57 109.71 C 129.70 110.65 130.57 111.30 131.50 111.17 Z M 132.42 111.04 L 133.41 110.89 C 134.34 110.75 134.99 109.88 134.85 108.95 C 134.71 108.01 133.83 107.37 132.90 107.51 L 131.92 107.65 C 130.98 107.79 130.34 108.66 130.48 109.60 C 130.62 110.53 131.49 111.18 132.42 111.04 Z M 133.42 110.89 L 134.41 110.74 C 135.34 110.59 135.98 109.72 135.83 108.78 C 135.69 107.85 134.81 107.21 133.88 107.35 L 132.89 107.51 C 131.96 107.65 131.32 108.53 131.46 109.46 C 131.61 110.40 132.48 111.04 133.42 110.89 Z M 134.41 110.73 L 135.41 110.58 C 136.34 110.43 136.98 109.55 136.83 108.62 C 136.68 107.68 135.80 107.05 134.87 107.20 L 133.87 107.36 C 132.94 107.50 132.30 108.38 132.45 109.31 C 132.60 110.25 133.48 110.88 134.41 110.73 Z M 135.41 110.58 L 136.39 110.42 C 137.32 110.27 137.96 109.39 137.81 108.46 C 137.66 107.53 136.78 106.89 135.85 107.04 L 134.87 107.20 C 133.93 107.35 133.30 108.22 133.45 109.16 C 133.60 110.09 134.47 110.73 135.41 110.58 Z M 136.39 110.42 L 137.37 110.26 C 138.31 110.11 138.94 109.24 138.80 108.30 C 138.65 107.37 137.77 106.73 136.84 106.88 L 135.85 107.04 C 134.92 107.19 134.28 108.07 134.43 109.00 C 134.58 109.93 135.46 110.57 136.39 110.42 Z M 137.37 110.26 L 138.36 110.11 C 139.30 109.96 139.93 109.08 139.79 108.15 C 139.64 107.21 138.76 106.58 137.83 106.72 L 136.84 106.88 C 135.90 107.03 135.27 107.91 135.41 108.84 C 135.56 109.77 136.44 110.41 137.37 110.26 Z M 138.36 110.11 L 139.34 109.95 C 140.27 109.81 140.91 108.93 140.77 108.00 C 140.62 107.06 139.74 106.42 138.81 106.57 L 137.83 106.72 C 136.90 106.87 136.26 107.75 136.40 108.68 C 136.55 109.62 137.43 110.25 138.36 110.11 Z M 139.34 109.95 L 140.31 109.80 C 141.24 109.66 141.88 108.78 141.74 107.85 C 141.59 106.91 140.71 106.27 139.78 106.42 L 138.81 106.57 C 137.87 106.72 137.24 107.59 137.38 108.53 C 137.53 109.46 138.40 110.10 139.34 109.95 Z M 140.31 109.80 L 141.30 109.65 C 142.24 109.50 142.88 108.62 142.73 107.69 C 142.58 106.75 141.70 106.11 140.77 106.26 L 139.78 106.42 C 138.84 106.57 138.20 107.44 138.35 108.38 C 138.50 109.31 139.38 109.95 140.31 109.80 Z M 141.31 109.65 L 142.32 109.48 C 143.26 109.33 143.90 108.45 143.74 107.52 C 143.59 106.58 142.71 105.95 141.78 106.10 L 140.76 106.26 C 139.83 106.41 139.19 107.29 139.34 108.23 C 139.49 109.16 140.37 109.80 141.31 109.65 Z M 142.33 109.48 L 143.31 109.32 C 144.25 109.17 144.88 108.28 144.72 107.35 C 144.57 106.41 143.69 105.78 142.75 105.94 L 141.77 106.10 C 140.84 106.25 140.20 107.14 140.36 108.07 C 140.51 109.01 141.40 109.64 142.33 109.48 Z M 143.32 109.32 L 144.31 109.15 C 145.24 109.00 145.87 108.11 145.72 107.18 C 145.56 106.24 144.68 105.61 143.74 105.77 L 142.75 105.94 C 141.81 106.09 141.18 106.98 141.34 107.91 C 141.50 108.85 142.38 109.48 143.32 109.32 Z M 144.31 109.15 L 145.30 108.99 C 146.24 108.83 146.87 107.95 146.71 107.01 C 146.55 106.08 145.67 105.45 144.73 105.60 L 143.74 105.77 C 142.81 105.93 142.18 106.81 142.33 107.74 C 142.49 108.68 143.37 109.31 144.31 109.15 Z M 145.30 108.99 L 146.29 108.83 C 147.22 108.67 147.86 107.79 147.70 106.85 C 147.55 105.92 146.67 105.28 145.73 105.44 L 144.74 105.60 C 143.80 105.76 143.17 106.64 143.32 107.57 C 143.48 108.51 144.36 109.14 145.30 108.99 Z M 146.28 108.83 L 147.30 108.66 C 148.23 108.51 148.87 107.63 148.72 106.70 C 148.57 105.76 147.69 105.12 146.75 105.27 L 145.74 105.44 C 144.80 105.59 144.16 106.47 144.31 107.40 C 144.46 108.34 145.34 108.98 146.28 108.83 Z M 147.29 108.66 L 148.28 108.51 C 149.21 108.36 149.85 107.48 149.71 106.54 C 149.56 105.61 148.68 104.97 147.74 105.12 L 146.76 105.27 C 145.82 105.42 145.18 106.30 145.33 107.24 C 145.48 108.17 146.35 108.81 147.29 108.66 Z M 148.28 108.51 L 149.24 108.36 C 150.18 108.21 150.82 107.33 150.67 106.39 C 150.52 105.46 149.64 104.82 148.70 104.96 L 147.74 105.12 C 146.81 105.26 146.17 106.14 146.31 107.08 C 146.46 108.02 147.34 108.66 148.28 108.51 Z M 149.24 108.36 L 150.23 108.20 C 151.17 108.05 151.81 107.17 151.66 106.23 C 151.51 105.29 150.62 104.66 149.69 104.81 L 148.70 104.97 C 147.76 105.12 147.12 106.00 147.28 106.93 C 147.43 107.87 148.31 108.51 149.24 108.36 Z M 150.24 108.20 L 151.23 108.03 C 152.16 107.88 152.80 107.00 152.65 106.06 C 152.49 105.13 151.61 104.49 150.67 104.64 L 149.68 104.81 C 148.75 104.96 148.11 105.84 148.27 106.78 C 148.42 107.72 149.30 108.35 150.24 108.20 Z M 151.23 108.03 L 152.21 107.87 C 153.14 107.72 153.78 106.83 153.62 105.90 C 153.47 104.96 152.58 104.33 151.65 104.48 L 150.67 104.64 C 149.73 104.80 149.10 105.68 149.26 106.62 C 149.41 107.56 150.30 108.19 151.23 108.03 Z M 152.21 107.87 L 153.19 107.71 C 154.13 107.55 154.76 106.67 154.61 105.73 C 154.45 104.79 153.56 104.16 152.63 104.32 L 151.65 104.48 C 150.71 104.64 150.08 105.52 150.23 106.46 C 150.39 107.40 151.27 108.03 152.21 107.87 Z M 153.19 107.71 L 154.18 107.54 C 155.12 107.39 155.75 106.50 155.60 105.56 C 155.44 104.63 154.55 104.00 153.62 104.15 L 152.63 104.32 C 151.69 104.47 151.06 105.36 151.22 106.30 C 151.37 107.23 152.26 107.87 153.19 107.71 Z M 154.19 107.54 L 155.17 107.38 C 156.11 107.22 156.74 106.33 156.58 105.40 C 156.42 104.46 155.54 103.83 154.60 103.99 L 153.62 104.15 C 152.68 104.31 152.05 105.20 152.21 106.13 C 152.36 107.07 153.25 107.70 154.19 107.54 Z M 155.17 107.38 L 156.12 107.22 C 157.06 107.06 157.69 106.17 157.53 105.23 C 157.37 104.30 156.48 103.67 155.55 103.83 L 154.60 103.99 C 153.66 104.15 153.03 105.03 153.19 105.97 C 153.35 106.91 154.24 107.54 155.17 107.38 Z M 156.12 107.22 L 157.01 107.07 C 157.95 106.91 158.58 106.02 158.42 105.08 C 158.26 104.15 157.37 103.51 156.44 103.67 L 155.55 103.83 C 154.61 103.98 153.98 104.87 154.14 105.81 C 154.30 106.75 155.19 107.38 156.12 107.22 Z M 157.00 107.07 L 157.96 106.91 C 158.90 106.76 159.53 105.87 159.38 104.93 C 159.22 103.99 158.34 103.36 157.40 103.51 L 156.44 103.67 C 155.50 103.83 154.87 104.71 155.03 105.65 C 155.18 106.59 156.07 107.22 157.00 107.07 Z M 157.95 106.91 L 159.04 106.74 C 159.98 106.59 160.62 105.71 160.47 104.77 C 160.32 103.83 159.44 103.19 158.50 103.34 L 157.41 103.51 C 156.47 103.66 155.83 104.54 155.98 105.48 C 156.13 106.42 157.01 107.06 157.95 106.91 Z M 159.02 106.74 L 159.96 106.60 C 160.90 106.46 161.55 105.58 161.41 104.64 C 161.26 103.70 160.39 103.05 159.45 103.20 L 158.51 103.34 C 157.57 103.48 156.92 104.36 157.06 105.30 C 157.21 106.24 158.08 106.89 159.02 106.74 Z M 159.95 106.60 L 160.85 106.47 C 161.79 106.34 162.44 105.47 162.31 104.52 C 162.17 103.58 161.30 102.93 160.36 103.07 L 159.46 103.19 C 158.52 103.33 157.86 104.20 158.00 105.14 C 158.13 106.09 159.01 106.74 159.95 106.60 Z M 160.84 106.48 L 161.81 106.34 C 162.75 106.21 163.41 105.35 163.28 104.40 C 163.15 103.46 162.29 102.80 161.34 102.93 L 160.37 103.06 C 159.43 103.19 158.77 104.06 158.90 105.00 C 159.03 105.95 159.90 106.60 160.84 106.48 Z M 161.80 106.34 L 162.83 106.21 C 163.77 106.09 164.44 105.23 164.32 104.28 C 164.20 103.34 163.33 102.68 162.39 102.80 L 161.36 102.93 C 160.41 103.05 159.75 103.91 159.87 104.86 C 159.99 105.80 160.85 106.47 161.80 106.34 Z M 162.81 106.21 L 163.90 106.08 C 164.84 105.97 165.51 105.11 165.40 104.17 C 165.29 103.23 164.43 102.55 163.49 102.67 L 162.40 102.80 C 161.46 102.91 160.79 103.76 160.90 104.71 C 161.01 105.65 161.87 106.33 162.81 106.21 Z M 163.88 106.09 L 165.04 105.96 C 165.99 105.85 166.67 105.00 166.57 104.06 C 166.46 103.11 165.61 102.43 164.67 102.53 L 163.50 102.66 C 162.56 102.77 161.88 103.62 161.98 104.56 C 162.08 105.51 162.93 106.19 163.88 106.09 Z M 165.02 105.97 L 166.30 105.84 C 167.25 105.75 167.94 104.90 167.85 103.95 C 167.76 103.00 166.91 102.31 165.96 102.40 L 164.68 102.52 C 163.73 102.62 163.04 103.46 163.13 104.42 C 163.22 105.37 164.07 106.06 165.02 105.97 Z M 166.27 105.86 L 167.46 105.76 C 168.42 105.68 169.14 104.84 169.05 103.88 C 168.97 102.92 168.13 102.20 167.17 102.28 L 165.98 102.38 C 165.02 102.46 164.31 103.31 164.39 104.27 C 164.47 105.23 165.31 105.94 166.27 105.86 Z M 167.43 105.78 L 168.44 105.71 C 169.41 105.65 170.14 104.82 170.08 103.85 C 170.02 102.88 169.18 102.14 168.21 102.20 L 167.20 102.27 C 166.24 102.33 165.50 103.16 165.56 104.13 C 165.62 105.10 166.46 105.84 167.43 105.78 Z M 168.37 105.73 L 169.10 105.71 C 170.08 105.69 170.85 104.87 170.83 103.90 C 170.81 102.92 169.99 102.14 169.01 102.17 L 168.28 102.19 C 167.30 102.21 166.53 103.02 166.55 104.00 C 166.58 104.98 167.39 105.75 168.37 105.73 Z M 168.74 105.69 L 169.14 105.77 C 170.11 105.94 171.03 105.30 171.21 104.33 C 171.39 103.36 170.74 102.43 169.77 102.26 L 169.38 102.18 C 168.41 102.01 167.48 102.65 167.30 103.62 C 167.13 104.59 167.77 105.52 168.74 105.69 Z M 168.55 102.46 L 168.03 102.77 C 167.17 103.27 166.88 104.36 167.38 105.22 C 167.88 106.07 168.98 106.36 169.83 105.87 L 170.36 105.56 C 171.21 105.06 171.50 103.96 171.00 103.11 C 170.51 102.25 169.41 101.96 168.55 102.46 Z M 168.17 102.69 L 166.93 103.26 C 166.03 103.68 165.64 104.75 166.06 105.65 C 166.48 106.55 167.55 106.94 168.45 106.52 L 169.69 105.95 C 170.59 105.53 170.98 104.46 170.56 103.56 C 170.14 102.66 169.07 102.27 168.17 102.69 Z M 166.81 103.32 L 165.98 103.78 C 165.11 104.27 164.80 105.36 165.29 106.23 C 165.77 107.10 166.87 107.41 167.74 106.93 L 168.57 106.47 C 169.44 105.98 169.75 104.88 169.26 104.01 C 168.78 103.14 167.68 102.83 166.81 103.32 Z M 165.89 103.84 L 165.10 104.34 C 164.26 104.88 164.02 106.00 164.56 106.84 C 165.10 107.67 166.21 107.92 167.05 107.38 L 167.84 106.87 C 168.68 106.33 168.92 105.22 168.38 104.38 C 167.84 103.54 166.73 103.30 165.89 103.84 Z M 165.03 104.39 L 164.21 104.96 C 163.40 105.54 163.21 106.67 163.79 107.48 C 164.37 108.30 165.49 108.49 166.31 107.91 L 167.12 107.33 C 167.94 106.76 168.13 105.63 167.55 104.81 C 166.97 104.00 165.84 103.81 165.03 104.39 Z M 164.16 105.00 L 163.32 105.65 C 162.53 106.26 162.38 107.39 162.98 108.18 C 163.59 108.98 164.73 109.13 165.52 108.52 L 166.36 107.87 C 167.15 107.27 167.30 106.13 166.70 105.34 C 166.09 104.55 164.95 104.40 164.16 105.00 Z M 163.28 105.68 L 162.41 106.38 C 161.63 107.01 161.52 108.15 162.15 108.93 C 162.78 109.70 163.92 109.82 164.69 109.19 L 165.56 108.49 C 166.34 107.86 166.45 106.72 165.82 105.94 C 165.19 105.17 164.05 105.05 163.28 105.68 Z M 162.38 106.40 L 161.62 107.05 C 160.86 107.69 160.76 108.84 161.41 109.60 C 162.05 110.37 163.20 110.46 163.96 109.81 L 164.72 109.17 C 165.49 108.52 165.58 107.38 164.93 106.62 C 164.29 105.85 163.15 105.76 162.38 106.40 Z M 161.60 107.07 L 160.83 107.74 C 160.08 108.39 160.00 109.54 160.66 110.29 C 161.31 111.05 162.46 111.13 163.21 110.47 L 163.98 109.80 C 164.74 109.14 164.82 107.99 164.16 107.24 C 163.50 106.48 162.35 106.41 161.60 107.07 Z M 160.81 107.75 L 160.05 108.43 C 159.30 109.10 159.24 110.25 159.91 111.00 C 160.57 111.74 161.72 111.81 162.47 111.14 L 163.23 110.45 C 163.98 109.79 164.04 108.64 163.38 107.89 C 162.71 107.15 161.56 107.08 160.81 107.75 Z M 160.03 108.45 L 159.29 109.13 C 158.55 109.80 158.49 110.95 159.17 111.69 C 159.85 112.43 160.99 112.49 161.73 111.81 L 162.48 111.13 C 163.22 110.45 163.28 109.30 162.60 108.56 C 161.92 107.82 160.77 107.77 160.03 108.45 Z M 159.27 109.14 L 158.55 109.81 C 157.82 110.49 157.78 111.64 158.46 112.38 C 159.14 113.11 160.29 113.15 161.03 112.47 L 161.75 111.80 C 162.48 111.12 162.52 109.97 161.84 109.23 C 161.16 108.50 160.01 108.46 159.27 109.14 Z M 158.54 109.82 L 157.81 110.51 C 157.08 111.20 157.05 112.35 157.74 113.08 C 158.43 113.81 159.58 113.84 160.31 113.15 L 161.04 112.46 C 161.77 111.77 161.80 110.62 161.11 109.89 C 160.42 109.16 159.27 109.13 158.54 109.82 Z M 157.80 110.52 L 157.03 111.26 C 156.31 111.96 156.29 113.11 156.98 113.83 C 157.68 114.56 158.83 114.58 159.55 113.88 L 160.33 113.14 C 161.05 112.44 161.07 111.29 160.37 110.56 C 159.68 109.84 158.52 109.82 157.80 110.52 Z M 157.01 111.28 L 156.30 111.98 C 155.58 112.69 155.58 113.84 156.28 114.56 C 156.99 115.27 158.14 115.28 158.85 114.57 L 159.57 113.86 C 160.29 113.16 160.29 112.01 159.59 111.29 C 158.88 110.58 157.73 110.57 157.01 111.28 Z M 156.28 112.00 L 155.60 112.68 C 154.90 113.40 154.91 114.55 155.62 115.26 C 156.34 115.96 157.49 115.96 158.19 115.24 L 158.87 114.56 C 159.58 113.84 159.57 112.69 158.85 111.98 C 158.14 111.28 156.99 111.28 156.28 112.00 Z M 155.59 112.70 L 154.93 113.38 C 154.24 114.11 154.26 115.26 154.99 115.95 C 155.71 116.65 156.86 116.63 157.56 115.90 L 158.21 115.22 C 158.91 114.50 158.88 113.35 158.16 112.65 C 157.43 111.95 156.28 111.98 155.59 112.70 Z M 154.92 113.40 L 154.27 114.10 C 153.58 114.83 153.62 115.98 154.36 116.67 C 155.09 117.35 156.24 117.31 156.93 116.58 L 157.58 115.88 C 158.26 115.15 158.22 114.00 157.49 113.31 C 156.75 112.62 155.60 112.67 154.92 113.40 Z M 154.25 114.12 L 153.60 114.84 C 152.92 115.58 152.98 116.73 153.73 117.41 C 154.47 118.08 155.63 118.02 156.30 117.28 L 156.95 116.56 C 157.62 115.81 157.57 114.66 156.82 113.99 C 156.07 113.31 154.92 113.37 154.25 114.12 Z M 153.58 114.86 L 152.93 115.61 C 152.27 116.36 152.34 117.51 153.10 118.17 C 153.86 118.83 155.01 118.76 155.67 118.00 L 156.32 117.25 C 156.98 116.50 156.90 115.35 156.15 114.68 C 155.39 114.02 154.24 114.10 153.58 114.86 Z M 152.90 115.63 L 152.25 116.41 C 151.60 117.18 151.70 118.33 152.47 118.98 C 153.24 119.62 154.39 119.52 155.04 118.75 L 155.69 117.97 C 156.34 117.20 156.24 116.05 155.47 115.41 C 154.70 114.76 153.55 114.86 152.90 115.63 Z M 152.23 116.44 L 151.57 117.26 C 150.94 118.04 151.06 119.19 151.84 119.82 C 152.62 120.45 153.77 120.33 154.40 119.54 L 155.06 118.73 C 155.69 117.94 155.57 116.80 154.79 116.17 C 154.00 115.53 152.86 115.66 152.23 116.44 Z M 151.55 117.29 L 150.91 118.10 C 150.30 118.89 150.44 120.04 151.24 120.65 C 152.03 121.27 153.18 121.12 153.79 120.33 L 154.42 119.52 C 155.04 118.72 154.89 117.58 154.10 116.96 C 153.30 116.35 152.16 116.49 151.55 117.29 Z M 150.90 118.13 L 150.27 118.96 C 149.67 119.76 149.84 120.90 150.64 121.51 C 151.45 122.11 152.59 121.94 153.19 121.14 L 153.81 120.30 C 154.41 119.50 154.25 118.36 153.44 117.76 C 152.64 117.16 151.50 117.32 150.90 118.13 Z M 150.25 118.98 L 149.66 119.81 C 149.07 120.63 149.26 121.77 150.07 122.35 C 150.89 122.94 152.02 122.76 152.61 121.94 L 153.21 121.11 C 153.80 120.30 153.61 119.16 152.79 118.57 C 151.98 117.98 150.84 118.17 150.25 118.98 Z M 149.64 119.84 L 149.08 120.64 C 148.51 121.47 148.72 122.60 149.55 123.17 C 150.37 123.75 151.51 123.54 152.08 122.71 L 152.63 121.91 C 153.20 121.08 153.00 119.95 152.17 119.38 C 151.34 118.81 150.21 119.02 149.64 119.84 Z M 149.06 120.68 L 148.52 121.50 C 147.97 122.34 148.21 123.47 149.05 124.02 C 149.89 124.57 151.01 124.34 151.57 123.50 L 152.10 122.67 C 152.65 121.83 152.42 120.71 151.58 120.16 C 150.74 119.61 149.61 119.84 149.06 120.68 Z M 148.48 121.57 L 147.93 122.49 C 147.42 123.35 147.70 124.47 148.56 124.98 C 149.42 125.50 150.54 125.22 151.05 124.35 L 151.60 123.43 C 152.12 122.57 151.84 121.45 150.97 120.94 C 150.11 120.42 149.00 120.71 148.48 121.57 Z M 147.87 122.60 L 147.43 123.47 C 146.98 124.36 147.34 125.46 148.23 125.91 C 149.13 126.36 150.22 126.00 150.67 125.11 L 151.11 124.24 C 151.56 123.35 151.21 122.26 150.31 121.80 C 149.42 121.35 148.33 121.71 147.87 122.60 Z M 147.37 123.62 L 147.03 124.48 C 146.66 125.41 147.11 126.46 148.04 126.83 C 148.97 127.20 150.03 126.75 150.40 125.82 L 150.74 124.96 C 151.11 124.03 150.65 122.98 149.72 122.60 C 148.79 122.23 147.74 122.69 147.37 123.62 Z M 146.97 124.66 L 146.69 125.64 C 146.42 126.61 146.98 127.61 147.94 127.88 C 148.90 128.15 149.90 127.59 150.17 126.63 L 150.45 125.64 C 150.72 124.68 150.17 123.68 149.20 123.41 C 148.24 123.14 147.24 123.70 146.97 124.66 Z M 146.65 125.90 L 146.51 126.93 C 146.37 127.91 147.06 128.82 148.05 128.96 C 149.04 129.09 149.94 128.40 150.08 127.41 L 150.22 126.38 C 150.35 125.39 149.66 124.48 148.67 124.35 C 147.69 124.22 146.78 124.91 146.65 125.90 Z M 146.50 127.34 L 146.60 128.29 C 146.69 129.28 147.57 130.00 148.56 129.90 C 149.55 129.80 150.27 128.93 150.17 127.94 L 150.08 126.99 C 149.98 126.01 149.10 125.28 148.12 125.38 C 147.13 125.48 146.41 126.36 146.50 127.34 Z M 146.79 128.93 L 147.17 129.66 C 147.62 130.54 148.69 130.88 149.57 130.43 C 150.45 129.98 150.80 128.91 150.35 128.03 L 149.98 127.30 C 149.53 126.42 148.45 126.07 147.57 126.52 C 146.69 126.97 146.34 128.05 146.79 128.93 Z M 147.63 130.22 L 148.28 130.75 C 149.04 131.37 150.16 131.26 150.78 130.50 C 151.41 129.74 151.30 128.62 150.54 128.00 L 149.89 127.47 C 149.13 126.84 148.01 126.95 147.38 127.71 C 146.76 128.47 146.87 129.59 147.63 130.22 Z M 148.69 130.99 L 149.63 131.41 C 150.53 131.80 151.57 131.40 151.97 130.51 C 152.36 129.61 151.96 128.57 151.06 128.17 L 150.12 127.76 C 149.23 127.36 148.18 127.77 147.79 128.66 C 147.39 129.55 147.80 130.60 148.69 130.99 Z M 149.87 131.48 L 151.06 131.82 C 152.00 132.08 152.97 131.53 153.23 130.60 C 153.49 129.66 152.94 128.69 152.01 128.43 L 150.82 128.10 C 149.89 127.84 148.92 128.38 148.65 129.32 C 148.39 130.25 148.94 131.22 149.87 131.48 Z M 151.17 131.84 L 152.09 132.03 C 153.04 132.24 153.97 131.63 154.17 130.69 C 154.37 129.74 153.77 128.81 152.82 128.61 L 151.90 128.41 C 150.95 128.21 150.02 128.81 149.82 129.76 C 149.62 130.70 150.22 131.63 151.17 131.84 Z M 152.14 132.04 L 153.14 132.23 C 154.09 132.40 155.00 131.77 155.18 130.82 C 155.35 129.87 154.72 128.95 153.77 128.78 L 152.77 128.60 C 151.82 128.42 150.91 129.05 150.73 130.01 C 150.56 130.96 151.19 131.87 152.14 132.04 Z M 153.18 132.23 L 154.21 132.40 C 155.17 132.55 156.06 131.90 156.22 130.95 C 156.37 129.99 155.72 129.09 154.77 128.94 L 153.73 128.78 C 152.78 128.62 151.88 129.27 151.73 130.23 C 151.58 131.18 152.22 132.08 153.18 132.23 Z M 154.24 132.40 L 155.27 132.55 C 156.22 132.68 157.11 132.02 157.25 131.07 C 157.38 130.11 156.72 129.22 155.77 129.09 L 154.74 128.94 C 153.78 128.80 152.90 129.47 152.76 130.42 C 152.62 131.38 153.29 132.26 154.24 132.40 Z M 155.29 132.55 L 156.27 132.68 C 157.23 132.80 158.10 132.13 158.23 131.17 C 158.35 130.21 157.68 129.34 156.72 129.21 L 155.74 129.08 C 154.79 128.96 153.91 129.64 153.79 130.59 C 153.66 131.55 154.34 132.42 155.29 132.55 Z M 156.29 132.68 L 157.39 132.81 C 158.35 132.92 159.21 132.23 159.33 131.28 C 159.44 130.32 158.75 129.45 157.80 129.34 L 156.70 129.21 C 155.74 129.10 154.88 129.78 154.76 130.74 C 154.65 131.70 155.34 132.56 156.29 132.68 Z M 157.41 132.81 L 158.47 132.92 C 159.43 133.02 160.29 132.33 160.39 131.37 C 160.49 130.41 159.80 129.55 158.84 129.45 L 157.78 129.34 C 156.82 129.24 155.96 129.93 155.86 130.89 C 155.76 131.85 156.45 132.71 157.41 132.81 Z M 158.47 132.92 L 159.42 133.02 C 160.38 133.12 161.24 132.43 161.34 131.47 C 161.44 130.51 160.75 129.65 159.79 129.55 L 158.84 129.45 C 157.88 129.35 157.02 130.05 156.92 131.00 C 156.82 131.96 157.52 132.82 158.47 132.92 Z M 159.41 133.02 L 160.29 133.12 C 161.25 133.23 162.11 132.55 162.22 131.59 C 162.33 130.63 161.65 129.77 160.69 129.65 L 159.81 129.55 C 158.85 129.44 157.98 130.13 157.87 131.09 C 157.76 132.04 158.45 132.91 159.41 133.02 Z M 160.25 133.12 L 161.19 133.25 C 162.14 133.38 163.03 132.72 163.16 131.77 C 163.30 130.81 162.63 129.93 161.68 129.79 L 160.73 129.66 C 159.78 129.52 158.90 130.19 158.76 131.14 C 158.63 132.10 159.29 132.98 160.25 133.12 Z M 161.13 133.24 L 162.11 133.41 C 163.06 133.58 163.97 132.95 164.13 132.00 C 164.30 131.04 163.67 130.14 162.72 129.97 L 161.73 129.80 C 160.78 129.63 159.88 130.27 159.71 131.22 C 159.55 132.17 160.18 133.08 161.13 133.24 Z M 162.05 133.40 L 163.03 133.61 C 163.97 133.81 164.90 133.21 165.10 132.27 C 165.31 131.32 164.70 130.39 163.76 130.19 L 162.78 129.98 C 161.83 129.78 160.90 130.38 160.70 131.33 C 160.50 132.27 161.10 133.20 162.05 133.40 Z M 162.96 133.60 L 163.94 133.85 C 164.88 134.09 165.83 133.52 166.07 132.58 C 166.31 131.65 165.74 130.69 164.80 130.45 L 163.83 130.21 C 162.89 129.97 161.94 130.53 161.70 131.47 C 161.46 132.41 162.02 133.36 162.96 133.60 Z M 163.86 133.83 L 164.82 134.12 C 165.75 134.40 166.73 133.87 167.01 132.94 C 167.28 132.02 166.76 131.04 165.83 130.76 L 164.88 130.47 C 163.95 130.19 162.97 130.72 162.69 131.65 C 162.41 132.57 162.94 133.55 163.86 133.83 Z M 164.73 134.09 L 165.67 134.43 C 166.59 134.76 167.59 134.29 167.92 133.37 C 168.25 132.46 167.78 131.45 166.86 131.12 L 165.92 130.78 C 165.01 130.46 164.00 130.93 163.67 131.84 C 163.34 132.76 163.82 133.76 164.73 134.09 Z M 165.57 134.39 L 166.49 134.79 C 167.38 135.18 168.42 134.77 168.80 133.88 C 169.19 132.99 168.78 131.95 167.89 131.56 L 166.97 131.16 C 166.08 130.77 165.04 131.18 164.65 132.08 C 164.27 132.97 164.68 134.01 165.57 134.39 Z M 166.36 134.74 L 167.24 135.20 C 168.10 135.66 169.17 135.33 169.62 134.46 C 170.08 133.60 169.75 132.53 168.89 132.08 L 168.01 131.62 C 167.15 131.16 166.08 131.49 165.63 132.35 C 165.17 133.21 165.50 134.28 166.36 134.74 Z M 167.10 135.13 L 167.93 135.66 C 168.75 136.19 169.85 135.96 170.38 135.13 C 170.91 134.31 170.67 133.22 169.85 132.69 L 169.02 132.15 C 168.20 131.62 167.10 131.86 166.57 132.68 C 166.04 133.50 166.28 134.60 167.10 135.13 Z M 167.79 135.57 L 168.57 136.19 C 169.34 136.79 170.46 136.66 171.07 135.89 C 171.68 135.12 171.54 134.00 170.77 133.40 L 169.99 132.78 C 169.22 132.17 168.10 132.30 167.49 133.07 C 166.89 133.84 167.02 134.96 167.79 135.57 Z M 168.44 136.07 L 169.17 136.78 C 169.88 137.47 171.01 137.44 171.69 136.74 C 172.38 136.03 172.35 134.90 171.64 134.22 L 170.91 133.51 C 170.20 132.83 169.07 132.85 168.39 133.56 C 167.71 134.27 167.73 135.39 168.44 136.07 Z M 169.06 136.67 L 169.66 137.37 C 170.31 138.12 171.44 138.20 172.18 137.56 C 172.93 136.91 173.01 135.78 172.37 135.04 L 171.76 134.33 C 171.12 133.59 169.99 133.50 169.24 134.15 C 168.50 134.79 168.41 135.92 169.06 136.67 Z M 169.57 137.26 L 170.13 138.04 C 170.72 138.84 171.84 139.01 172.64 138.43 C 173.44 137.84 173.61 136.72 173.03 135.92 L 172.46 135.15 C 171.88 134.35 170.76 134.17 169.96 134.76 C 169.16 135.34 168.98 136.46 169.57 137.26 Z M 170.06 137.93 L 170.59 138.79 C 171.12 139.63 172.23 139.89 173.07 139.36 C 173.91 138.84 174.17 137.73 173.64 136.89 L 173.11 136.03 C 172.58 135.18 171.47 134.93 170.63 135.45 C 169.79 135.98 169.53 137.09 170.06 137.93 Z M 170.53 138.69 L 171.04 139.64 C 171.51 140.51 172.60 140.84 173.48 140.37 C 174.36 139.90 174.69 138.81 174.21 137.93 L 173.71 136.98 C 173.23 136.11 172.14 135.78 171.26 136.25 C 170.38 136.72 170.06 137.81 170.53 138.69 Z M 170.99 139.56 L 171.40 140.43 C 171.83 141.33 172.91 141.72 173.81 141.29 C 174.72 140.87 175.10 139.79 174.68 138.88 L 174.26 138.01 C 173.83 137.11 172.76 136.72 171.85 137.15 C 170.95 137.57 170.56 138.65 170.99 139.56 Z M 171.37 140.36 L 171.73 141.24 C 172.12 142.16 173.19 142.60 174.11 142.21 C 175.04 141.82 175.47 140.76 175.08 139.84 L 174.71 138.96 C 174.32 138.03 173.26 137.60 172.34 137.98 C 171.41 138.37 170.98 139.44 171.37 140.36 Z M 171.70 141.17 L 172.04 142.10 C 172.39 143.04 173.44 143.53 174.38 143.18 C 175.33 142.83 175.81 141.78 175.46 140.84 L 175.12 139.91 C 174.77 138.97 173.72 138.48 172.78 138.83 C 171.84 139.18 171.35 140.23 171.70 141.17 Z M 172.01 142.02 L 172.32 143.00 C 172.63 143.96 173.66 144.49 174.62 144.19 C 175.58 143.88 176.11 142.85 175.80 141.89 L 175.49 140.92 C 175.19 139.96 174.16 139.43 173.20 139.73 C 172.24 140.04 171.71 141.06 172.01 142.02 Z M 172.30 142.92 L 172.57 143.94 C 172.83 144.91 173.83 145.49 174.81 145.23 C 175.78 144.97 176.36 143.97 176.10 142.99 L 175.83 141.97 C 175.57 141.00 174.57 140.42 173.59 140.68 C 172.61 140.94 172.03 141.94 172.30 142.92 Z M 172.54 143.85 L 172.76 144.88 C 172.98 145.87 173.95 146.50 174.94 146.29 C 175.93 146.08 176.56 145.10 176.35 144.11 L 176.13 143.08 C 175.91 142.09 174.94 141.46 173.95 141.67 C 172.96 141.88 172.33 142.86 172.54 143.85 Z M 172.75 144.81 L 172.92 145.84 C 173.09 146.84 174.04 147.52 175.04 147.35 C 176.04 147.18 176.72 146.23 176.55 145.22 L 176.37 144.19 C 176.20 143.19 175.25 142.51 174.25 142.68 C 173.25 142.86 172.57 143.81 172.75 144.81 Z M 172.91 145.78 L 173.05 146.81 C 173.18 147.82 174.11 148.53 175.12 148.39 C 176.13 148.26 176.84 147.33 176.70 146.32 L 176.56 145.29 C 176.43 144.28 175.50 143.57 174.49 143.71 C 173.48 143.84 172.77 144.77 172.91 145.78 Z M 173.04 146.76 L 173.14 147.77 C 173.25 148.78 174.16 149.52 175.17 149.41 C 176.19 149.30 176.92 148.39 176.82 147.38 L 176.71 146.37 C 176.60 145.36 175.69 144.62 174.68 144.73 C 173.66 144.84 172.93 145.74 173.04 146.76 Z M 173.13 147.72 L 173.21 148.68 C 173.30 149.70 174.19 150.46 175.21 150.38 C 176.23 150.29 176.99 149.40 176.90 148.38 L 176.82 147.42 C 176.74 146.40 175.85 145.64 174.83 145.73 C 173.81 145.81 173.05 146.70 173.13 147.72 Z M 173.21 148.65 L 173.26 149.58 C 173.33 150.61 174.21 151.38 175.23 151.32 C 176.26 151.25 177.03 150.37 176.97 149.35 L 176.91 148.41 C 176.85 147.39 175.96 146.61 174.94 146.68 C 173.92 146.74 173.14 147.62 173.21 148.65 Z M 173.26 149.55 L 173.31 150.67 C 173.35 151.70 174.22 152.49 175.25 152.45 C 176.27 152.40 177.07 151.53 177.02 150.51 L 176.97 149.39 C 176.93 148.36 176.06 147.56 175.04 147.61 C 174.01 147.65 173.21 148.52 173.26 149.55 Z M 173.30 150.63 L 173.33 151.63 C 173.35 152.66 174.20 153.47 175.23 153.45 C 176.26 153.42 177.07 152.57 177.05 151.54 L 177.03 150.55 C 177.00 149.52 176.15 148.70 175.12 148.73 C 174.09 148.75 173.28 149.60 173.30 150.63 Z M 173.32 151.60 L 173.33 152.52 C 173.34 153.55 174.18 154.38 175.21 154.37 C 176.24 154.36 177.07 153.52 177.06 152.49 L 177.05 151.57 C 177.05 150.54 176.20 149.71 175.17 149.72 C 174.14 149.73 173.32 150.57 173.32 151.60 Z M 173.33 152.50 L 173.33 153.43 C 173.33 154.46 174.17 155.30 175.20 155.30 C 176.23 155.30 177.06 154.46 177.06 153.43 L 177.06 152.50 C 177.06 151.47 176.23 150.64 175.19 150.64 C 174.16 150.64 173.33 151.47 173.33 152.50 Z M 173.33 153.43 L 173.33 154.42 C 173.33 155.45 174.16 156.29 175.20 156.29 C 176.23 156.29 177.07 155.45 177.07 154.42 L 177.07 153.43 C 177.07 152.40 176.23 151.56 175.20 151.56 C 174.16 151.56 173.33 152.40 173.33 153.43 Z M 173.32 154.42 L 173.32 155.42 C 173.32 156.46 174.16 157.30 175.20 157.30 C 176.23 157.30 177.07 156.46 177.07 155.42 L 177.07 154.42 C 177.07 153.39 176.23 152.55 175.20 152.55 C 174.16 152.55 173.32 153.39 173.32 154.42 Z M 173.32 155.42 L 173.32 156.44 C 173.32 157.47 174.16 158.31 175.20 158.31 C 176.23 158.31 177.07 157.47 177.07 156.44 L 177.07 155.42 C 177.07 154.39 176.23 153.55 175.20 153.55 C 174.16 153.55 173.32 154.39 173.32 155.42 Z M 173.32 156.43 L 173.32 157.41 C 173.32 158.45 174.16 159.29 175.19 159.29 C 176.23 159.29 177.07 158.45 177.07 157.41 L 177.07 156.44 C 177.08 155.40 176.23 154.56 175.20 154.56 C 174.16 154.56 173.32 155.40 173.32 156.43 Z M 173.31 157.41 L 173.31 158.40 C 173.31 159.44 174.15 160.28 175.19 160.28 C 176.23 160.29 177.07 159.45 177.07 158.41 L 177.08 157.42 C 177.08 156.38 176.24 155.54 175.20 155.53 C 174.16 155.53 173.32 156.37 173.31 157.41 Z M 173.31 158.39 L 173.30 159.40 C 173.29 160.44 174.13 161.29 175.17 161.30 C 176.21 161.31 177.06 160.47 177.07 159.43 L 177.08 158.42 C 177.09 157.38 176.25 156.53 175.21 156.52 C 174.17 156.51 173.32 157.35 173.31 158.39 Z M 173.30 159.38 L 173.28 160.41 C 173.27 161.45 174.10 162.31 175.14 162.32 C 176.18 162.34 177.04 161.51 177.05 160.47 L 177.07 159.44 C 177.09 158.40 176.26 157.54 175.21 157.53 C 174.17 157.51 173.31 158.34 173.30 159.38 Z M 173.28 160.38 L 173.25 161.39 C 173.22 162.43 174.05 163.30 175.09 163.33 C 176.13 163.36 177.00 162.54 177.03 161.49 L 177.06 160.49 C 177.08 159.44 176.26 158.58 175.22 158.55 C 174.18 158.52 173.31 159.34 173.28 160.38 Z M 173.25 161.36 L 173.21 162.37 C 173.16 163.41 173.97 164.29 175.01 164.34 C 176.05 164.39 176.94 163.58 176.98 162.54 L 177.03 161.53 C 177.08 160.49 176.27 159.60 175.23 159.55 C 174.18 159.51 173.30 160.31 173.25 161.36 Z M 173.21 162.32 L 173.14 163.31 C 173.06 164.35 173.84 165.26 174.89 165.33 C 175.93 165.41 176.83 164.62 176.91 163.58 L 176.98 162.59 C 177.06 161.55 176.27 160.64 175.23 160.57 C 174.19 160.49 173.28 161.27 173.21 162.32 Z M 173.14 163.24 L 173.03 164.24 C 172.91 165.28 173.66 166.22 174.70 166.33 C 175.74 166.45 176.68 165.70 176.80 164.66 L 176.91 163.65 C 177.02 162.61 176.27 161.68 175.23 161.56 C 174.19 161.45 173.25 162.20 173.14 163.24 Z M 173.04 164.16 L 172.89 165.17 C 172.73 166.20 173.44 167.17 174.48 167.33 C 175.51 167.48 176.48 166.77 176.64 165.73 L 176.79 164.73 C 176.94 163.70 176.23 162.73 175.20 162.57 C 174.16 162.42 173.19 163.13 173.04 164.16 Z M 172.89 165.11 L 172.72 166.08 C 172.53 167.11 173.21 168.10 174.24 168.29 C 175.28 168.48 176.26 167.79 176.45 166.76 L 176.63 165.79 C 176.82 164.76 176.13 163.77 175.10 163.58 C 174.07 163.40 173.08 164.08 172.89 165.11 Z M 172.72 166.05 L 172.53 167.01 C 172.33 168.04 173.00 169.04 174.03 169.24 C 175.06 169.44 176.06 168.77 176.26 167.74 L 176.45 166.79 C 176.65 165.76 175.98 164.76 174.95 164.56 C 173.92 164.36 172.92 165.02 172.72 166.05 Z M 172.53 167.00 L 172.36 167.87 C 172.15 168.90 172.81 169.91 173.84 170.11 C 174.87 170.32 175.87 169.66 176.08 168.63 L 176.26 167.75 C 176.47 166.72 175.80 165.72 174.77 165.51 C 173.74 165.30 172.74 165.97 172.53 167.00 Z M 172.36 167.85 L 172.16 168.77 C 171.94 169.80 172.60 170.81 173.63 171.03 C 174.65 171.25 175.66 170.60 175.88 169.57 L 176.08 168.65 C 176.30 167.62 175.64 166.61 174.62 166.39 C 173.59 166.17 172.58 166.82 172.36 167.85 Z M 172.17 168.74 L 171.93 169.75 C 171.69 170.78 172.33 171.80 173.36 172.04 C 174.38 172.28 175.40 171.64 175.64 170.61 L 175.88 169.60 C 176.12 168.58 175.48 167.55 174.45 167.32 C 173.43 167.08 172.41 167.72 172.17 168.74 Z M 171.94 169.71 L 171.67 170.78 C 171.41 171.80 172.03 172.84 173.05 173.10 C 174.07 173.36 175.10 172.74 175.36 171.72 L 175.63 170.65 C 175.89 169.63 175.28 168.60 174.26 168.34 C 173.24 168.08 172.20 168.69 171.94 169.71 Z M 171.68 170.75 L 171.44 171.64 C 171.16 172.65 171.76 173.70 172.78 173.98 C 173.79 174.25 174.84 173.65 175.12 172.64 L 175.36 171.75 C 175.63 170.74 175.03 169.69 174.02 169.41 C 173.00 169.14 171.95 169.74 171.68 170.75 Z M 171.44 171.61 L 171.17 172.56 C 170.89 173.57 171.47 174.62 172.49 174.91 C 173.50 175.20 174.55 174.61 174.84 173.60 L 175.11 172.66 C 175.40 171.64 174.81 170.59 173.80 170.30 C 172.79 170.01 171.73 170.60 171.44 171.61 Z M 171.18 172.54 L 170.89 173.52 C 170.59 174.53 171.16 175.59 172.18 175.89 C 173.19 176.19 174.25 175.61 174.55 174.60 L 174.84 173.62 C 175.14 172.61 174.56 171.55 173.55 171.25 C 172.54 170.95 171.48 171.53 171.18 172.54 Z M 170.89 173.50 L 170.59 174.50 C 170.28 175.51 170.84 176.58 171.85 176.89 C 172.86 177.20 173.92 176.63 174.23 175.62 L 174.54 174.62 C 174.85 173.61 174.29 172.55 173.28 172.24 C 172.27 171.93 171.20 172.49 170.89 173.50 Z M 170.59 174.48 L 170.27 175.48 C 169.95 176.48 170.50 177.56 171.51 177.88 C 172.51 178.20 173.59 177.65 173.91 176.64 L 174.23 175.64 C 174.55 174.64 173.99 173.56 172.99 173.24 C 171.99 172.92 170.91 173.48 170.59 174.48 Z M 170.28 175.46 L 169.95 176.46 C 169.61 177.46 170.15 178.54 171.16 178.87 C 172.16 179.21 173.24 178.66 173.57 177.66 L 173.90 176.66 C 174.23 175.66 173.69 174.58 172.69 174.25 C 171.69 173.92 170.61 174.46 170.28 175.46 Z M 169.95 176.43 L 169.61 177.41 C 169.27 178.41 169.79 179.50 170.79 179.84 C 171.79 180.19 172.87 179.66 173.22 178.67 L 173.56 177.69 C 173.91 176.69 173.38 175.60 172.38 175.26 C 171.39 174.91 170.30 175.44 169.95 176.43 Z M 169.62 177.38 L 169.28 178.33 C 168.91 179.32 169.42 180.42 170.41 180.78 C 171.40 181.14 172.50 180.64 172.86 179.65 L 173.21 178.70 C 173.57 177.71 173.06 176.61 172.07 176.25 C 171.08 175.88 169.99 176.39 169.62 177.38 Z M 169.29 178.30 L 168.93 179.22 C 168.55 180.20 169.04 181.30 170.02 181.69 C 171.00 182.07 172.11 181.58 172.49 180.60 L 172.85 179.68 C 173.23 178.70 172.74 177.59 171.76 177.21 C 170.78 176.83 169.67 177.31 169.29 178.30 Z M 168.95 179.18 L 168.58 180.06 C 168.18 181.04 168.64 182.16 169.61 182.56 C 170.59 182.96 171.70 182.50 172.11 181.53 L 172.47 180.64 C 172.88 179.66 172.42 178.55 171.44 178.14 C 170.47 177.74 169.35 178.20 168.95 179.18 Z M 168.60 180.02 L 168.20 180.93 C 167.77 181.89 168.20 183.02 169.16 183.45 C 170.12 183.88 171.25 183.44 171.68 182.48 L 172.09 181.57 C 172.51 180.61 172.08 179.48 171.12 179.05 C 170.16 178.62 169.03 179.06 168.60 180.02 Z M 168.22 180.87 L 167.76 181.82 C 167.30 182.77 167.69 183.91 168.64 184.37 C 169.58 184.83 170.72 184.44 171.19 183.49 L 171.65 182.54 C 172.11 181.59 171.72 180.45 170.77 179.99 C 169.83 179.53 168.69 179.92 168.22 180.87 Z M 167.80 181.75 L 167.31 182.65 C 166.81 183.57 167.15 184.73 168.08 185.23 C 169.00 185.73 170.15 185.39 170.66 184.47 L 171.14 183.57 C 171.65 182.65 171.30 181.49 170.38 180.99 C 169.46 180.49 168.30 180.83 167.80 181.75 Z M 167.37 182.56 L 166.86 183.39 C 166.30 184.28 166.58 185.45 167.47 186.00 C 168.36 186.55 169.53 186.28 170.09 185.39 L 170.60 184.56 C 171.15 183.66 170.88 182.49 169.98 181.94 C 169.09 181.39 167.92 181.67 167.37 182.56 Z M 166.93 183.28 L 166.39 184.03 C 165.78 184.88 165.97 186.07 166.82 186.68 C 167.67 187.29 168.86 187.10 169.47 186.25 L 170.01 185.49 C 170.62 184.64 170.43 183.46 169.58 182.85 C 168.73 182.24 167.54 182.43 166.93 183.28 Z M 166.50 183.90 L 165.88 184.61 C 165.20 185.40 165.28 186.60 166.07 187.28 C 166.86 187.97 168.05 187.88 168.74 187.09 L 169.36 186.38 C 170.04 185.59 169.96 184.40 169.17 183.71 C 168.38 183.03 167.19 183.11 166.50 183.90 Z M 166.07 184.44 L 165.36 185.06 C 164.59 185.75 164.51 186.94 165.20 187.72 C 165.89 188.50 167.07 188.57 167.85 187.88 L 168.55 187.26 C 169.33 186.58 169.41 185.39 168.72 184.61 C 168.03 183.83 166.84 183.76 166.07 184.44 Z M 165.62 184.89 L 164.80 185.40 C 163.92 185.95 163.66 187.10 164.20 187.97 C 164.75 188.85 165.90 189.12 166.78 188.57 L 167.60 188.06 C 168.47 187.51 168.74 186.36 168.19 185.48 C 167.65 184.61 166.49 184.34 165.62 184.89 Z M 165.09 185.27 L 164.10 185.67 C 163.15 186.05 162.70 187.14 163.09 188.09 C 163.47 189.04 164.56 189.49 165.51 189.10 L 166.49 188.70 C 167.44 188.32 167.89 187.23 167.51 186.28 C 167.12 185.33 166.04 184.88 165.09 185.27 Z M 164.35 185.60 L 163.36 185.85 C 162.37 186.10 161.78 187.11 162.03 188.09 C 162.28 189.08 163.28 189.67 164.27 189.42 L 165.26 189.17 C 166.25 188.92 166.84 187.92 166.59 186.93 C 166.34 185.95 165.34 185.35 164.35 185.60 Z M 163.53 185.84 L 162.55 186.00 C 161.56 186.16 160.88 187.09 161.04 188.08 C 161.20 189.07 162.13 189.75 163.12 189.59 L 164.10 189.43 C 165.09 189.28 165.77 188.34 165.61 187.35 C 165.45 186.36 164.52 185.68 163.53 185.84 Z M 162.67 186.01 L 161.64 186.10 C 160.65 186.19 159.93 187.06 160.02 188.05 C 160.11 189.04 160.98 189.76 161.96 189.67 L 163.00 189.58 C 163.98 189.49 164.71 188.62 164.62 187.63 C 164.53 186.65 163.66 185.92 162.67 186.01 Z M 161.75 186.12 L 160.70 186.16 C 159.72 186.19 158.96 187.00 158.99 187.98 C 159.02 188.95 159.84 189.72 160.81 189.69 L 161.86 189.65 C 162.83 189.62 163.60 188.81 163.57 187.83 C 163.54 186.86 162.72 186.09 161.75 186.12 Z M 160.80 186.18 L 159.78 186.15 C 158.82 186.13 158.02 186.89 158.00 187.85 C 157.97 188.81 158.73 189.61 159.69 189.63 L 160.71 189.66 C 161.67 189.69 162.47 188.93 162.49 187.97 C 162.52 187.00 161.76 186.21 160.80 186.18 Z M 159.89 186.19 L 158.94 186.10 C 158.00 186.02 157.17 186.71 157.08 187.66 C 157.00 188.60 157.69 189.43 158.63 189.52 L 159.58 189.60 C 160.53 189.69 161.36 188.99 161.44 188.05 C 161.53 187.11 160.83 186.27 159.89 186.19 Z M 159.09 186.17 L 158.00 185.96 C 157.09 185.79 156.22 186.39 156.05 187.30 C 155.88 188.21 156.48 189.08 157.39 189.25 L 158.48 189.45 C 159.39 189.62 160.26 189.02 160.43 188.11 C 160.60 187.21 160.00 186.33 159.09 186.17 Z M 158.18 186.07 L 157.23 185.77 C 156.38 185.50 155.48 185.96 155.20 186.81 C 154.93 187.66 155.40 188.56 156.25 188.83 L 157.20 189.14 C 158.05 189.41 158.95 188.94 159.23 188.10 C 159.50 187.25 159.03 186.34 158.18 186.07 Z M 157.40 185.90 L 156.54 185.50 C 155.77 185.14 154.85 185.47 154.48 186.24 C 154.12 187.02 154.45 187.94 155.23 188.30 L 156.08 188.70 C 156.85 189.07 157.78 188.73 158.14 187.96 C 158.50 187.19 158.17 186.26 157.40 185.90 Z M 156.66 185.63 L 155.85 185.14 C 155.15 184.72 154.24 184.94 153.81 185.64 C 153.38 186.34 153.61 187.26 154.31 187.68 L 155.11 188.17 C 155.82 188.60 156.73 188.37 157.16 187.67 C 157.58 186.97 157.36 186.06 156.66 185.63 Z M 155.91 185.23 L 155.14 184.69 C 154.49 184.23 153.59 184.38 153.13 185.04 C 152.67 185.69 152.83 186.59 153.48 187.05 L 154.25 187.59 C 154.90 188.05 155.80 187.90 156.26 187.24 C 156.72 186.59 156.57 185.69 155.91 185.23 Z M 155.19 184.73 L 154.41 184.14 C 153.78 183.65 152.88 183.77 152.40 184.40 C 151.92 185.03 152.04 185.93 152.66 186.42 L 153.44 187.01 C 154.07 187.49 154.97 187.37 155.45 186.74 C 155.93 186.12 155.82 185.21 155.19 184.73 Z M 154.44 184.16 L 153.66 183.53 C 153.04 183.03 152.14 183.12 151.64 183.74 C 151.14 184.35 151.24 185.25 151.85 185.75 L 152.64 186.39 C 153.25 186.89 154.15 186.79 154.65 186.18 C 155.15 185.57 155.06 184.66 154.44 184.16 Z M 153.67 183.54 L 152.88 182.88 C 152.28 182.37 151.37 182.45 150.87 183.06 C 150.36 183.66 150.44 184.56 151.04 185.07 L 151.84 185.73 C 152.44 186.24 153.34 186.16 153.85 185.56 C 154.36 184.95 154.28 184.05 153.67 183.54 Z M 152.89 182.89 L 152.31 182.40 C 151.71 181.88 150.81 181.96 150.30 182.56 C 149.79 183.16 149.86 184.06 150.46 184.57 L 151.04 185.06 C 151.64 185.57 152.54 185.50 153.05 184.90 C 153.56 184.30 153.49 183.40 152.89 182.89 Z"
      fill="black"
      fill-rule="nonzero" /><path d="M 127.81 113.64 L 128.28 114.42 C 128.72 115.16 129.67 115.40 130.42 114.96 C 131.16 114.52 131.41 113.56 130.97 112.82 L 130.50 112.04 C 130.06 111.30 129.10 111.05 128.36 111.49 C 127.62 111.93 127.37 112.89 127.81 113.64 Z M 128.22 114.39 L 128.68 115.23 C 129.11 116.01 130.08 116.29 130.86 115.86 C 131.63 115.43 131.91 114.46 131.49 113.68 L 131.02 112.84 C 130.60 112.07 129.62 111.79 128.85 112.21 C 128.07 112.64 127.79 113.62 128.22 114.39 Z M 128.60 115.17 L 129.07 116.13 C 129.46 116.94 130.44 117.29 131.26 116.89 C 132.08 116.50 132.42 115.51 132.02 114.70 L 131.56 113.74 C 131.17 112.92 130.18 112.58 129.37 112.98 C 128.55 113.37 128.21 114.35 128.60 115.17 Z M 129.00 116.05 L 129.39 117.01 C 129.75 117.87 130.73 118.27 131.58 117.92 C 132.44 117.56 132.84 116.58 132.49 115.73 L 132.09 114.77 C 131.74 113.92 130.76 113.51 129.90 113.87 C 129.05 114.22 128.64 115.20 129.00 116.05 Z M 129.35 116.95 L 129.69 117.88 C 130.01 118.76 130.99 119.21 131.86 118.89 C 132.74 118.57 133.19 117.60 132.87 116.72 L 132.53 115.79 C 132.21 114.91 131.24 114.46 130.36 114.78 C 129.48 115.10 129.03 116.07 129.35 116.95 Z M 129.67 117.84 L 129.99 118.82 C 130.29 119.71 131.25 120.19 132.14 119.90 C 133.04 119.60 133.52 118.64 133.22 117.75 L 132.90 116.77 C 132.60 115.88 131.64 115.39 130.75 115.69 C 129.85 115.99 129.37 116.95 129.67 117.84 Z M 129.97 118.78 L 130.27 119.77 C 130.55 120.67 131.51 121.18 132.41 120.90 C 133.31 120.63 133.82 119.67 133.54 118.77 L 133.24 117.78 C 132.97 116.88 132.01 116.37 131.11 116.65 C 130.20 116.92 129.70 117.88 129.97 118.78 Z M 130.25 119.73 L 130.52 120.68 C 130.78 121.59 131.73 122.13 132.64 121.87 C 133.56 121.61 134.09 120.66 133.83 119.75 L 133.57 118.80 C 133.31 117.89 132.36 117.35 131.44 117.61 C 130.53 117.87 129.99 118.82 130.25 119.73 Z M 130.50 120.64 L 130.77 121.69 C 131.01 122.62 131.95 123.17 132.87 122.94 C 133.80 122.70 134.35 121.76 134.12 120.84 L 133.85 119.79 C 133.61 118.86 132.67 118.30 131.75 118.54 C 130.82 118.77 130.27 119.72 130.50 120.64 Z M 130.75 121.64 L 130.97 122.62 C 131.18 123.55 132.11 124.14 133.04 123.93 C 133.98 123.72 134.56 122.79 134.35 121.86 L 134.14 120.88 C 133.93 119.95 133.00 119.36 132.06 119.57 C 131.13 119.78 130.54 120.71 130.75 121.64 Z M 130.96 122.57 L 131.14 123.51 C 131.32 124.45 132.24 125.06 133.18 124.88 C 134.12 124.70 134.73 123.78 134.55 122.84 L 134.37 121.90 C 134.18 120.96 133.27 120.35 132.33 120.53 C 131.39 120.72 130.77 121.63 130.96 122.57 Z M 131.13 123.47 L 131.29 124.41 C 131.45 125.36 132.35 125.99 133.30 125.83 C 134.25 125.67 134.89 124.76 134.72 123.82 L 134.56 122.88 C 134.40 121.93 133.50 121.29 132.55 121.46 C 131.60 121.62 130.96 122.52 131.13 123.47 Z M 131.28 124.38 L 131.43 125.34 C 131.58 126.29 132.47 126.94 133.42 126.80 C 134.38 126.65 135.03 125.76 134.88 124.80 L 134.73 123.84 C 134.59 122.89 133.69 122.24 132.74 122.39 C 131.79 122.53 131.13 123.43 131.28 124.38 Z M 131.42 125.31 L 131.56 126.30 C 131.69 127.26 132.57 127.92 133.53 127.79 C 134.49 127.66 135.16 126.78 135.03 125.82 L 134.89 124.83 C 134.76 123.87 133.87 123.20 132.92 123.34 C 131.96 123.47 131.29 124.35 131.42 125.31 Z M 131.55 126.27 L 131.67 127.28 C 131.79 128.24 132.66 128.93 133.62 128.81 C 134.59 128.70 135.27 127.82 135.16 126.86 L 135.03 125.85 C 134.92 124.89 134.04 124.20 133.08 124.32 C 132.12 124.43 131.43 125.31 131.55 126.27 Z M 131.66 127.25 L 131.77 128.26 C 131.87 129.22 132.73 129.93 133.70 129.83 C 134.66 129.73 135.36 128.87 135.27 127.90 L 135.16 126.89 C 135.06 125.93 134.20 125.22 133.23 125.32 C 132.27 125.42 131.57 126.28 131.66 127.25 Z M 131.76 128.23 L 131.85 129.21 C 131.93 130.17 132.78 130.89 133.75 130.81 C 134.72 130.73 135.43 129.88 135.35 128.91 L 135.27 127.93 C 135.19 126.96 134.34 126.24 133.37 126.32 C 132.40 126.41 131.68 127.26 131.76 128.23 Z M 131.84 129.18 L 131.91 130.17 C 131.97 131.14 132.81 131.88 133.78 131.81 C 134.75 131.75 135.49 130.91 135.42 129.93 L 135.36 128.94 C 135.29 127.97 134.45 127.24 133.48 127.30 C 132.51 127.37 131.78 128.21 131.84 129.18 Z M 131.91 130.14 L 131.96 131.15 C 132.01 132.13 132.83 132.87 133.81 132.82 C 134.78 132.78 135.53 131.95 135.48 130.97 L 135.43 129.96 C 135.38 128.99 134.55 128.24 133.58 128.29 C 132.60 128.34 131.86 129.17 131.91 130.14 Z M 131.95 131.13 L 131.99 132.13 C 132.02 133.11 132.84 133.87 133.81 133.84 C 134.79 133.80 135.55 132.99 135.52 132.01 L 135.48 131.00 C 135.45 130.03 134.63 129.27 133.66 129.30 C 132.68 129.33 131.92 130.15 131.95 131.13 Z M 131.99 132.11 L 132.01 133.09 C 132.03 134.07 132.84 134.84 133.81 134.82 C 134.78 134.80 135.56 133.99 135.54 133.02 L 135.52 132.04 C 135.50 131.06 134.69 130.29 133.72 130.31 C 132.74 130.33 131.97 131.14 131.99 132.11 Z M 132.01 133.07 L 132.02 134.07 C 132.03 135.04 132.83 135.82 133.80 135.81 C 134.78 135.80 135.56 135.00 135.55 134.03 L 135.54 133.03 C 135.53 132.06 134.73 131.28 133.75 131.29 C 132.78 131.30 132.00 132.10 132.01 133.07 Z M 132.02 134.06 L 132.02 135.06 C 132.03 136.04 132.82 136.83 133.80 136.82 C 134.77 136.82 135.56 136.02 135.55 135.05 L 135.55 134.04 C 135.55 133.07 134.75 132.28 133.78 132.28 C 132.80 132.29 132.01 133.08 132.02 134.06 Z M 132.02 135.06 L 132.02 136.08 C 132.02 137.06 132.81 137.85 133.79 137.84 C 134.77 137.84 135.56 137.05 135.55 136.08 L 135.55 135.06 C 135.55 134.08 134.76 133.29 133.79 133.29 C 132.81 133.29 132.02 134.08 132.02 135.06 Z M 132.02 136.08 L 132.02 137.05 C 132.02 138.03 132.81 138.82 133.79 138.82 C 134.76 138.82 135.55 138.03 135.55 137.05 L 135.55 136.08 C 135.56 135.10 134.76 134.31 133.79 134.31 C 132.81 134.31 132.02 135.10 132.02 136.08 Z M 132.02 137.05 L 132.02 138.03 C 132.02 139.00 132.81 139.80 133.78 139.80 C 134.76 139.80 135.55 139.01 135.55 138.04 L 135.55 137.06 C 135.56 136.08 134.77 135.29 133.79 135.29 C 132.82 135.28 132.03 136.07 132.02 137.05 Z M 132.02 138.02 L 132.01 139.02 C 132.01 139.99 132.79 140.79 133.76 140.80 C 134.74 140.81 135.54 140.02 135.54 139.05 L 135.55 138.05 C 135.56 137.07 134.77 136.28 133.80 136.27 C 132.82 136.26 132.03 137.05 132.02 138.02 Z M 132.01 139.01 L 132.00 140.03 C 131.98 141.00 132.76 141.80 133.74 141.82 C 134.71 141.83 135.51 141.05 135.53 140.08 L 135.54 139.06 C 135.56 138.08 134.78 137.28 133.80 137.27 C 132.83 137.25 132.03 138.03 132.01 139.01 Z M 132.00 140.01 L 131.97 141.03 C 131.95 142.01 132.72 142.81 133.69 142.84 C 134.67 142.86 135.48 142.09 135.50 141.12 L 135.53 140.09 C 135.55 139.12 134.78 138.31 133.81 138.29 C 132.83 138.26 132.02 139.04 132.00 140.01 Z M 131.98 141.01 L 131.94 142.00 C 131.90 142.97 132.66 143.79 133.64 143.82 C 134.61 143.86 135.43 143.10 135.46 142.13 L 135.50 141.14 C 135.53 140.17 134.78 139.35 133.80 139.31 C 132.83 139.28 132.01 140.04 131.98 141.01 Z M 131.94 141.96 L 131.89 142.96 C 131.83 143.93 132.58 144.76 133.55 144.82 C 134.52 144.87 135.35 144.13 135.40 143.16 L 135.46 142.16 C 135.51 141.19 134.77 140.36 133.80 140.30 C 132.83 140.25 132.00 140.99 131.94 141.96 Z M 131.89 142.92 L 131.81 143.92 C 131.73 144.89 132.45 145.74 133.42 145.82 C 134.39 145.90 135.24 145.18 135.32 144.21 L 135.40 143.20 C 135.48 142.24 134.76 141.39 133.79 141.31 C 132.82 141.23 131.97 141.95 131.89 142.92 Z M 131.82 143.86 L 131.70 144.86 C 131.59 145.83 132.28 146.70 133.24 146.81 C 134.21 146.92 135.08 146.23 135.19 145.27 L 135.31 144.27 C 135.42 143.30 134.73 142.43 133.77 142.32 C 132.80 142.20 131.93 142.90 131.82 143.86 Z M 131.71 144.79 L 131.55 145.78 C 131.40 146.74 132.05 147.64 133.01 147.79 C 133.97 147.94 134.87 147.29 135.02 146.33 L 135.18 145.34 C 135.33 144.38 134.68 143.48 133.72 143.33 C 132.76 143.18 131.86 143.83 131.71 144.79 Z M 131.57 145.70 L 131.37 146.67 C 131.17 147.62 131.78 148.55 132.73 148.75 C 133.68 148.94 134.61 148.33 134.80 147.39 L 135.01 146.41 C 135.20 145.46 134.59 144.53 133.65 144.34 C 132.70 144.14 131.77 144.75 131.57 145.70 Z M 131.39 146.60 L 131.14 147.56 C 130.91 148.50 131.48 149.45 132.41 149.69 C 133.35 149.93 134.30 149.36 134.54 148.42 L 134.78 147.46 C 135.02 146.52 134.45 145.57 133.51 145.33 C 132.58 145.09 131.62 145.66 131.39 146.60 Z M 131.16 147.50 L 130.89 148.46 C 130.62 149.39 131.15 150.36 132.08 150.63 C 133.00 150.90 133.97 150.36 134.24 149.44 L 134.52 148.48 C 134.79 147.55 134.26 146.58 133.33 146.31 C 132.40 146.04 131.43 146.58 131.16 147.50 Z M 130.90 148.41 L 130.60 149.37 C 130.30 150.28 130.80 151.27 131.72 151.56 C 132.64 151.86 133.62 151.36 133.92 150.44 L 134.22 149.49 C 134.52 148.57 134.02 147.59 133.10 147.29 C 132.18 146.99 131.20 147.50 130.90 148.41 Z M 130.61 149.33 L 130.28 150.28 C 129.96 151.19 130.44 152.18 131.35 152.50 C 132.26 152.81 133.25 152.34 133.57 151.43 L 133.90 150.48 C 134.22 149.57 133.74 148.58 132.83 148.26 C 131.92 147.94 130.93 148.42 130.61 149.33 Z M 130.29 150.25 L 129.96 151.17 C 129.62 152.07 130.09 153.07 130.99 153.40 C 131.89 153.73 132.89 153.27 133.22 152.37 L 133.55 151.45 C 133.89 150.55 133.43 149.55 132.53 149.22 C 131.62 148.89 130.63 149.35 130.29 150.25 Z M 129.97 151.15 L 129.61 152.07 C 129.27 152.96 129.72 153.96 130.61 154.31 C 131.50 154.65 132.50 154.21 132.85 153.31 L 133.20 152.39 C 133.55 151.50 133.10 150.50 132.21 150.15 C 131.32 149.81 130.31 150.25 129.97 151.15 Z M 129.63 152.05 L 129.26 152.97 C 128.90 153.86 129.33 154.87 130.22 155.22 C 131.10 155.58 132.11 155.15 132.46 154.26 L 132.84 153.33 C 133.19 152.45 132.76 151.44 131.88 151.09 C 130.99 150.73 129.98 151.16 129.63 152.05 Z M 129.27 152.96 L 128.88 153.89 C 128.51 154.77 128.93 155.78 129.81 156.15 C 130.69 156.51 131.70 156.09 132.06 155.21 L 132.45 154.28 C 132.82 153.40 132.40 152.39 131.52 152.02 C 130.64 151.66 129.63 152.08 129.27 152.96 Z M 128.89 153.88 L 128.49 154.82 C 128.11 155.69 128.52 156.71 129.39 157.08 C 130.27 157.45 131.28 157.05 131.65 156.17 L 132.05 155.23 C 132.43 154.36 132.02 153.34 131.15 152.97 C 130.27 152.60 129.26 153.00 128.89 153.88 Z M 128.50 154.81 L 128.10 155.71 C 127.72 156.57 128.12 157.59 128.99 157.97 C 129.85 158.35 130.87 157.95 131.25 157.08 L 131.64 156.18 C 132.02 155.32 131.62 154.31 130.76 153.93 C 129.89 153.55 128.88 153.94 128.50 154.81 Z M 128.12 155.70 L 127.71 156.59 C 127.33 157.46 127.71 158.47 128.57 158.85 C 129.44 159.24 130.45 158.85 130.83 157.99 L 131.23 157.09 C 131.62 156.23 131.24 155.22 130.37 154.84 C 129.51 154.45 128.50 154.83 128.12 155.70 Z M 127.73 156.58 L 127.31 157.49 C 126.92 158.34 127.29 159.35 128.15 159.75 C 129.00 160.14 130.01 159.76 130.41 158.91 L 130.82 158.00 C 131.21 157.15 130.84 156.14 129.98 155.75 C 129.13 155.35 128.12 155.73 127.73 156.58 Z M 127.32 157.48 L 126.89 158.39 C 126.50 159.24 126.86 160.25 127.71 160.65 C 128.56 161.04 129.57 160.68 129.97 159.83 L 130.39 158.92 C 130.79 158.07 130.43 157.06 129.58 156.66 C 128.73 156.26 127.72 156.63 127.32 157.48 Z M 126.91 158.38 L 126.47 159.30 C 126.06 160.14 126.42 161.15 127.26 161.55 C 128.10 161.95 129.11 161.60 129.51 160.76 L 129.95 159.84 C 130.36 159.00 130.00 157.99 129.16 157.59 C 128.32 157.18 127.31 157.54 126.91 158.38 Z M 126.48 159.29 L 126.03 160.20 C 125.62 161.03 125.97 162.04 126.80 162.45 C 127.64 162.86 128.65 162.51 129.06 161.68 L 129.50 160.77 C 129.91 159.93 129.57 158.92 128.73 158.52 C 127.90 158.11 126.89 158.45 126.48 159.29 Z M 126.04 160.19 L 125.60 161.07 C 125.19 161.90 125.52 162.90 126.35 163.32 C 127.18 163.73 128.19 163.40 128.60 162.57 L 129.04 161.69 C 129.46 160.86 129.12 159.85 128.29 159.44 C 127.47 159.02 126.46 159.36 126.04 160.19 Z M 125.62 161.06 L 125.17 161.94 C 124.75 162.77 125.07 163.77 125.89 164.19 C 126.72 164.61 127.72 164.28 128.14 163.46 L 128.59 162.58 C 129.01 161.76 128.68 160.75 127.86 160.33 C 127.04 159.91 126.03 160.24 125.62 161.06 Z M 125.18 161.94 L 124.72 162.83 C 124.30 163.64 124.62 164.64 125.43 165.07 C 126.25 165.49 127.25 165.17 127.67 164.35 L 128.13 163.47 C 128.55 162.65 128.23 161.65 127.42 161.23 C 126.60 160.80 125.60 161.12 125.18 161.94 Z M 124.73 162.82 L 124.26 163.71 C 123.84 164.52 124.15 165.52 124.96 165.95 C 125.77 166.37 126.77 166.06 127.19 165.25 L 127.66 164.36 C 128.08 163.55 127.77 162.55 126.96 162.12 C 126.15 161.70 125.15 162.01 124.73 162.82 Z M 124.27 163.71 L 123.80 164.61 C 123.38 165.41 123.68 166.41 124.49 166.83 C 125.29 167.26 126.29 166.95 126.71 166.14 L 127.18 165.25 C 127.61 164.44 127.30 163.45 126.50 163.02 C 125.69 162.60 124.70 162.91 124.27 163.71 Z M 123.81 164.61 L 123.34 165.50 C 122.91 166.30 123.22 167.29 124.02 167.71 C 124.82 168.14 125.81 167.83 126.23 167.03 L 126.70 166.14 C 127.13 165.34 126.82 164.35 126.02 163.93 C 125.22 163.50 124.23 163.81 123.81 164.61 Z M 123.35 165.50 L 122.89 166.36 C 122.46 167.15 122.76 168.14 123.56 168.56 C 124.36 168.99 125.34 168.69 125.77 167.89 L 126.23 167.03 C 126.65 166.23 126.35 165.25 125.55 164.82 C 124.76 164.40 123.77 164.70 123.35 165.50 Z M 122.90 166.36 L 122.43 167.22 C 122.01 168.01 122.31 169.00 123.10 169.42 C 123.89 169.85 124.87 169.55 125.29 168.76 L 125.76 167.89 C 126.18 167.10 125.88 166.12 125.09 165.69 C 124.30 165.27 123.32 165.57 122.90 166.36 Z M 122.44 167.22 L 121.97 168.10 C 121.55 168.88 121.84 169.86 122.62 170.29 C 123.41 170.71 124.39 170.42 124.81 169.63 L 125.28 168.76 C 125.71 167.97 125.42 166.99 124.63 166.57 C 123.84 166.15 122.86 166.44 122.44 167.22 Z M 121.98 168.10 L 121.50 168.98 C 121.08 169.76 121.36 170.73 122.14 171.16 C 122.92 171.58 123.90 171.29 124.32 170.51 L 124.80 169.63 C 125.23 168.85 124.94 167.88 124.16 167.45 C 123.38 167.03 122.40 167.32 121.98 168.10 Z M 121.51 168.98 L 121.02 169.87 C 120.59 170.64 120.88 171.62 121.65 172.04 C 122.43 172.47 123.40 172.18 123.82 171.41 L 124.31 170.52 C 124.74 169.74 124.46 168.77 123.68 168.34 C 122.91 167.92 121.93 168.20 121.51 168.98 Z M 121.03 169.87 L 120.53 170.77 C 120.10 171.54 120.38 172.51 121.15 172.94 C 121.92 173.36 122.89 173.08 123.31 172.32 L 123.81 171.41 C 124.24 170.64 123.96 169.67 123.19 169.25 C 122.43 168.82 121.46 169.10 121.03 169.87 Z M 120.54 170.77 L 120.04 171.65 C 119.61 172.42 119.88 173.38 120.65 173.81 C 121.41 174.24 122.38 173.97 122.80 173.20 L 123.30 172.32 C 123.73 171.56 123.46 170.59 122.70 170.16 C 121.93 169.73 120.97 170.00 120.54 170.77 Z M 120.05 171.65 L 119.55 172.54 C 119.12 173.30 119.38 174.26 120.14 174.69 C 120.89 175.12 121.86 174.85 122.29 174.10 L 122.79 173.21 C 123.22 172.45 122.96 171.49 122.20 171.06 C 121.45 170.63 120.48 170.89 120.05 171.65 Z M 119.56 172.53 L 119.05 173.42 C 118.61 174.17 118.87 175.13 119.62 175.56 C 120.37 175.99 121.33 175.74 121.77 174.99 L 122.28 174.10 C 122.71 173.35 122.45 172.39 121.70 171.96 C 120.95 171.53 119.99 171.78 119.56 172.53 Z M 119.06 173.41 L 118.55 174.29 C 118.11 175.03 118.36 175.99 119.11 176.42 C 119.85 176.86 120.81 176.61 121.24 175.87 L 121.75 174.99 C 122.19 174.25 121.94 173.29 121.20 172.86 C 120.45 172.42 119.50 172.67 119.06 173.41 Z M 118.56 174.28 L 118.05 175.13 C 117.61 175.87 117.85 176.82 118.59 177.26 C 119.33 177.70 120.28 177.46 120.72 176.72 L 121.23 175.87 C 121.67 175.14 121.43 174.18 120.69 173.74 C 119.95 173.30 119.00 173.54 118.56 174.28 Z M 118.07 175.12 L 117.57 175.95 C 117.12 176.68 117.35 177.63 118.08 178.07 C 118.81 178.52 119.76 178.28 120.21 177.56 L 120.71 176.73 C 121.15 176.00 120.92 175.05 120.19 174.61 C 119.46 174.16 118.51 174.39 118.07 175.12 Z M 117.58 175.94 L 117.04 176.81 C 116.59 177.53 116.81 178.48 117.53 178.93 C 118.25 179.38 119.20 179.16 119.65 178.44 L 120.19 177.57 C 120.64 176.85 120.42 175.90 119.70 175.45 C 118.98 175.00 118.03 175.22 117.58 175.94 Z M 117.06 176.79 L 116.48 177.69 C 116.03 178.40 116.23 179.34 116.94 179.80 C 117.65 180.26 118.60 180.05 119.05 179.34 L 119.63 178.45 C 120.08 177.74 119.88 176.79 119.17 176.34 C 118.46 175.88 117.51 176.08 117.06 176.79 Z M 116.50 177.67 L 115.94 178.52 C 115.48 179.22 115.67 180.16 116.37 180.63 C 117.07 181.09 118.02 180.90 118.48 180.20 L 119.04 179.35 C 119.50 178.65 119.31 177.71 118.61 177.24 C 117.91 176.78 116.96 176.97 116.50 177.67 Z M 115.96 178.51 L 115.41 179.32 C 114.94 180.01 115.12 180.95 115.82 181.42 C 116.51 181.89 117.45 181.71 117.92 181.01 L 118.46 180.20 C 118.93 179.51 118.75 178.57 118.06 178.10 C 117.36 177.64 116.42 177.82 115.96 178.51 Z M 115.42 179.32 L 114.89 180.10 C 114.42 180.79 114.59 181.72 115.28 182.19 C 115.96 182.66 116.90 182.49 117.37 181.80 L 117.90 181.02 C 118.37 180.33 118.20 179.40 117.51 178.93 C 116.83 178.46 115.89 178.63 115.42 179.32 Z M 114.90 180.10 L 114.35 180.88 C 113.88 181.56 114.05 182.49 114.73 182.96 C 115.41 183.43 116.34 183.26 116.81 182.59 L 117.36 181.80 C 117.83 181.12 117.66 180.19 116.98 179.72 C 116.30 179.25 115.37 179.42 114.90 180.10 Z M 114.36 180.88 L 113.78 181.73 C 113.31 182.40 113.47 183.33 114.15 183.80 C 114.82 184.27 115.75 184.10 116.22 183.43 L 116.80 182.58 C 117.27 181.91 117.11 180.98 116.43 180.51 C 115.76 180.04 114.83 180.21 114.36 180.88 Z M 113.78 181.73 L 113.20 182.56 C 112.73 183.23 112.90 184.15 113.57 184.62 C 114.23 185.09 115.16 184.93 115.63 184.26 L 116.21 183.43 C 116.68 182.76 116.51 181.84 115.85 181.37 C 115.18 180.90 114.25 181.06 113.78 181.73 Z M 113.21 182.56 L 112.64 183.37 C 112.17 184.04 112.32 184.95 112.99 185.42 C 113.65 185.89 114.57 185.74 115.04 185.07 L 115.62 184.26 C 116.09 183.60 115.93 182.68 115.27 182.21 C 114.60 181.74 113.68 181.89 113.21 182.56 Z M 112.65 183.37 L 112.08 184.16 C 111.61 184.82 111.76 185.73 112.41 186.21 C 113.07 186.68 113.99 186.53 114.46 185.87 L 115.03 185.08 C 115.50 184.42 115.35 183.50 114.69 183.03 C 114.04 182.56 113.12 182.71 112.65 183.37 Z M 112.09 184.16 L 111.50 184.96 C 111.03 185.61 111.17 186.52 111.82 187.00 C 112.47 187.47 113.38 187.33 113.86 186.68 L 114.44 185.88 C 114.92 185.23 114.78 184.32 114.13 183.84 C 113.48 183.37 112.57 183.51 112.09 184.16 Z M 111.52 184.95 L 110.90 185.78 C 110.42 186.43 110.55 187.33 111.20 187.81 C 111.84 188.29 112.75 188.16 113.23 187.52 L 113.85 186.69 C 114.32 186.04 114.19 185.13 113.55 184.66 C 112.91 184.18 112.00 184.31 111.52 184.95 Z M 110.91 185.78 L 110.30 186.58 C 109.82 187.22 109.94 188.12 110.58 188.61 C 111.22 189.09 112.13 188.96 112.61 188.33 L 113.22 187.52 C 113.70 186.89 113.57 185.98 112.94 185.50 C 112.30 185.01 111.39 185.14 110.91 185.78 Z M 110.31 186.57 L 109.71 187.35 C 109.23 187.99 109.35 188.89 109.98 189.38 C 110.61 189.86 111.52 189.74 112.00 189.11 L 112.60 188.33 C 113.09 187.70 112.97 186.79 112.33 186.31 C 111.70 185.82 110.80 185.94 110.31 186.57 Z M 109.72 187.35 L 109.13 188.11 C 108.65 188.74 108.76 189.64 109.39 190.13 C 110.02 190.61 110.92 190.50 111.41 189.87 L 112.00 189.11 C 112.48 188.48 112.37 187.58 111.74 187.09 C 111.11 186.61 110.21 186.72 109.72 187.35 Z M 109.14 188.11 L 108.50 188.93 C 108.01 189.56 108.12 190.46 108.75 190.95 C 109.37 191.44 110.28 191.32 110.76 190.70 L 111.41 189.87 C 111.89 189.25 111.78 188.34 111.15 187.86 C 110.53 187.37 109.62 187.48 109.14 188.11 Z M 108.50 188.93 L 107.88 189.73 C 107.39 190.35 107.50 191.26 108.12 191.74 C 108.75 192.23 109.65 192.12 110.14 191.50 L 110.76 190.70 C 111.25 190.07 111.14 189.17 110.51 188.68 C 109.89 188.20 108.99 188.31 108.50 188.93 Z M 107.88 189.73 L 107.27 190.50 C 106.78 191.12 106.89 192.02 107.52 192.51 C 108.14 193.00 109.04 192.89 109.53 192.27 L 110.13 191.50 C 110.62 190.88 110.51 189.97 109.89 189.49 C 109.27 189.00 108.37 189.11 107.88 189.73 Z M 107.28 190.50 L 106.68 191.26 C 106.19 191.88 106.29 192.78 106.91 193.27 C 107.54 193.76 108.44 193.65 108.93 193.03 L 109.52 192.27 C 110.01 191.65 109.91 190.75 109.29 190.26 C 108.67 189.77 107.77 189.88 107.28 190.50 Z M 106.68 191.25 L 106.04 192.05 C 105.55 192.67 105.66 193.57 106.28 194.07 C 106.90 194.56 107.80 194.45 108.29 193.83 L 108.92 193.03 C 109.41 192.41 109.31 191.51 108.69 191.02 C 108.07 190.53 107.17 190.63 106.68 191.25 Z M 106.05 192.05 L 105.43 192.83 C 104.93 193.45 105.03 194.35 105.65 194.84 C 106.27 195.34 107.17 195.24 107.66 194.62 L 108.29 193.84 C 108.78 193.22 108.68 192.32 108.06 191.83 C 107.44 191.33 106.54 191.43 106.05 192.05 Z M 105.43 192.83 L 104.81 193.60 C 104.32 194.21 104.42 195.12 105.04 195.61 C 105.66 196.10 106.56 196.00 107.05 195.38 L 107.66 194.62 C 108.16 194.00 108.06 193.10 107.44 192.60 C 106.82 192.11 105.92 192.21 105.43 192.83 Z M 104.81 193.60 L 104.62 193.83 C 104.13 194.45 104.23 195.35 104.85 195.85 C 105.47 196.34 106.37 196.24 106.86 195.62 L 107.05 195.39 C 107.55 194.77 107.45 193.87 106.83 193.37 C 106.21 192.88 105.31 192.98 104.81 193.60 Z"
      fill="black"
      fill-rule="nonzero" /></svg>