<svg xmlns="http://www.w3.org/2000/svg" width="300" height="300" viewBox="0 0 300 300">
<path d="M 128.25 117.27 L 127.49 117.98 C 126.87 118.56 126.83 119.52 127.40 120.14 C 127.97 120.76 128.94 120.80 129.56 120.23 L 130.33 119.52 C 130.95 118.94 130.98 117.98 130.41 117.36 C 129.84 116.74 128.87 116.70 128.25 117.27 Z M 127.35 118.11 L 126.71 118.87 C 126.16 119.52 126.24 120.48 126.89 121.03 C 127.53 121.58 128.50 121.50 129.05 120.85 L 129.69 120.09 C 130.24 119.45 130.16 118.48 129.51 117.94 C 128.87 117.39 127.90 117.47 127.35 118.11 Z M 126.48 119.22 L 126.09 120.08 C 125.74 120.85 126.08 121.76 126.85 122.11 C 127.62 122.47 128.53 122.13 128.88 121.36 L 129.27 120.50 C 129.63 119.73 129.29 118.82 128.52 118.47 C 127.75 118.12 126.84 118.45 126.48 119.22 Z M 125.96 120.61 L 125.90 121.46 C 125.84 122.31 126.47 123.04 127.32 123.10 C 128.16 123.16 128.89 122.52 128.95 121.68 L 129.01 120.83 C 129.07 119.98 128.44 119.25 127.59 119.19 C 126.75 119.13 126.02 119.77 125.96 120.61 Z M 125.94 121.85 L 126.11 122.79 C 126.26 123.62 127.06 124.16 127.88 124.01 C 128.70 123.86 129.24 123.06 129.09 122.24 L 128.92 121.29 C 128.76 120.47 127.97 119.93 127.15 120.08 C 126.33 120.23 125.78 121.03 125.94 121.85 Z M 126.18 123.02 L 126.55 124.04 C 126.82 124.82 127.68 125.24 128.46 124.96 C 129.24 124.68 129.65 123.83 129.38 123.04 L 129.02 122.02 C 128.74 121.24 127.88 120.83 127.10 121.10 C 126.32 121.38 125.91 122.23 126.18 123.02 Z M 126.61 124.16 L 127.04 125.11 C 127.37 125.86 128.26 126.19 129.00 125.85 C 129.75 125.51 130.09 124.63 129.75 123.88 L 129.32 122.93 C 128.98 122.18 128.10 121.85 127.35 122.19 C 126.60 122.52 126.27 123.41 126.61 124.16 Z M 127.08 125.16 L 127.51 126.02 C 127.88 126.75 128.77 127.04 129.50 126.67 C 130.22 126.30 130.51 125.41 130.14 124.69 L 129.71 123.83 C 129.34 123.10 128.45 122.81 127.72 123.18 C 127.00 123.55 126.71 124.44 127.08 125.16 Z M 127.54 126.05 L 128.02 126.93 C 128.41 127.64 129.30 127.90 130.01 127.52 C 130.71 127.13 130.98 126.24 130.59 125.54 L 130.11 124.66 C 129.73 123.95 128.84 123.68 128.13 124.07 C 127.42 124.46 127.16 125.34 127.54 126.05 Z M 128.05 126.95 L 128.56 127.84 C 128.95 128.54 129.83 128.78 130.53 128.39 C 131.22 127.99 131.47 127.11 131.07 126.41 L 130.57 125.52 C 130.17 124.82 129.29 124.58 128.59 124.97 C 127.90 125.37 127.65 126.25 128.05 126.95 Z M 128.57 127.85 L 129.09 128.75 C 129.49 129.43 130.37 129.67 131.05 129.27 C 131.74 128.88 131.97 128.00 131.58 127.31 L 131.06 126.41 C 130.66 125.72 129.78 125.49 129.10 125.89 C 128.41 126.28 128.18 127.16 128.57 127.85 Z"
      fill="black"
      fill-rule="nonzero" /><path d="M 124.67 137.81 L 123.29 137.81 C 122.40 137.81 121.67 138.53 121.67 139.42 C 121.66 140.31 122.38 141.04 123.28 141.04 L 124.65 141.04 C 125.55 141.05 126.27 140.33 126.27 139.44 C 126.28 138.54 125.56 137.82 124.67 137.81 Z M 123.34 137.81 L 122.26 137.77 C 121.36 137.74 120.62 138.44 120.59 139.34 C 120.56 140.23 121.26 140.98 122.15 141.01 L 123.23 141.04 C 124.12 141.07 124.87 140.37 124.90 139.48 C 124.93 138.58 124.23 137.84 123.34 137.81 Z M 122.52 137.80 L 122.04 137.70 C 121.17 137.53 120.31 138.10 120.14 138.97 C 119.96 139.85 120.53 140.71 121.41 140.88 L 121.89 140.98 C 122.76 141.15 123.62 140.58 123.79 139.71 C 123.97 138.83 123.40 137.98 122.52 137.80 Z M 122.57 140.67 L 122.84 140.51 C 123.60 140.04 123.84 139.04 123.37 138.28 C 122.91 137.52 121.91 137.28 121.15 137.75 L 120.88 137.91 C 120.12 138.38 119.88 139.38 120.35 140.14 C 120.81 140.90 121.81 141.14 122.57 140.67 Z M 122.45 140.67 L 123.35 140.40 C 124.20 140.15 124.68 139.26 124.43 138.41 C 124.18 137.55 123.28 137.07 122.43 137.32 L 121.54 137.59 C 120.68 137.84 120.20 138.73 120.45 139.59 C 120.70 140.44 121.60 140.92 122.45 140.67 Z M 123.31 140.40 L 124.74 140.01 C 125.59 139.78 126.09 138.90 125.86 138.05 C 125.62 137.20 124.74 136.69 123.89 136.93 L 122.46 137.32 C 121.61 137.55 121.11 138.43 121.35 139.29 C 121.58 140.14 122.46 140.64 123.31 140.40 Z M 124.75 140.00 L 125.80 139.70 C 126.64 139.46 127.13 138.58 126.89 137.74 C 126.65 136.89 125.77 136.40 124.92 136.64 L 123.88 136.94 C 123.03 137.18 122.54 138.06 122.79 138.91 C 123.03 139.75 123.91 140.24 124.75 140.00 Z M 125.81 139.69 L 126.69 139.43 C 127.53 139.19 128.01 138.30 127.76 137.47 C 127.51 136.63 126.63 136.15 125.79 136.39 L 124.91 136.65 C 124.07 136.90 123.59 137.78 123.84 138.62 C 124.09 139.46 124.97 139.94 125.81 139.69 Z M 126.69 139.42 L 127.63 139.14 C 128.46 138.89 128.93 138.01 128.68 137.18 C 128.43 136.34 127.55 135.87 126.72 136.12 L 125.78 136.40 C 124.95 136.66 124.48 137.54 124.73 138.37 C 124.98 139.20 125.86 139.68 126.69 139.42 Z M 127.63 139.13 L 128.61 138.83 C 129.44 138.58 129.90 137.70 129.65 136.87 C 129.39 136.04 128.52 135.58 127.69 135.83 L 126.71 136.13 C 125.88 136.39 125.42 137.26 125.67 138.09 C 125.93 138.92 126.81 139.39 127.63 139.13 Z M 128.62 138.82 L 129.62 138.51 C 130.44 138.25 130.90 137.38 130.64 136.55 C 130.38 135.73 129.51 135.27 128.68 135.53 L 127.68 135.84 C 126.86 136.10 126.40 136.97 126.66 137.80 C 126.91 138.62 127.79 139.08 128.62 138.82 Z M 129.62 138.50 L 130.63 138.18 C 131.45 137.92 131.91 137.05 131.65 136.23 C 131.39 135.41 130.51 134.95 129.69 135.21 L 128.68 135.54 C 127.86 135.80 127.41 136.67 127.67 137.49 C 127.93 138.31 128.80 138.76 129.62 138.50 Z M 130.64 138.17 L 131.64 137.85 C 132.46 137.58 132.91 136.71 132.64 135.90 C 132.38 135.08 131.51 134.64 130.70 134.90 L 129.69 135.22 C 128.87 135.48 128.43 136.36 128.69 137.17 C 128.95 137.99 129.82 138.43 130.64 138.17 Z M 131.65 137.84 L 132.68 137.50 C 133.48 137.24 133.93 136.37 133.66 135.56 C 133.40 134.75 132.53 134.31 131.72 134.57 L 130.69 134.91 C 129.88 135.17 129.44 136.04 129.71 136.85 C 129.97 137.66 130.84 138.10 131.65 137.84 Z M 132.68 137.49 L 133.74 137.14 C 134.54 136.87 134.97 136.01 134.71 135.21 C 134.44 134.40 133.58 133.97 132.78 134.23 L 131.72 134.59 C 130.91 134.85 130.48 135.72 130.75 136.52 C 131.01 137.32 131.88 137.75 132.68 137.49 Z M 133.74 137.12 L 134.76 136.78 C 135.55 136.52 135.98 135.66 135.71 134.87 C 135.45 134.07 134.59 133.64 133.80 133.91 L 132.78 134.25 C 131.98 134.51 131.55 135.37 131.82 136.17 C 132.08 136.96 132.94 137.39 133.74 137.12 Z M 134.75 136.77 L 135.73 136.44 C 136.52 136.18 136.94 135.33 136.68 134.54 C 136.41 133.75 135.56 133.33 134.77 133.59 L 133.80 133.92 C 133.01 134.19 132.59 135.04 132.85 135.82 C 133.12 136.61 133.97 137.03 134.75 136.77 Z M 135.72 136.43 L 136.65 136.12 C 137.43 135.86 137.85 135.02 137.59 134.24 C 137.33 133.46 136.49 133.04 135.71 133.30 L 134.78 133.61 C 134.00 133.87 133.58 134.71 133.84 135.49 C 134.10 136.27 134.94 136.69 135.72 136.43 Z M 136.64 136.11 L 137.53 135.82 C 138.30 135.56 138.72 134.73 138.46 133.95 C 138.21 133.18 137.37 132.76 136.60 133.02 L 135.72 133.31 C 134.95 133.56 134.53 134.40 134.78 135.17 C 135.04 135.94 135.87 136.36 136.64 136.11 Z M 137.51 135.81 L 138.34 135.54 C 139.11 135.29 139.53 134.46 139.28 133.70 C 139.03 132.93 138.21 132.51 137.44 132.76 L 136.61 133.03 C 135.85 133.28 135.42 134.10 135.67 134.87 C 135.92 135.63 136.75 136.05 137.51 135.81 Z M 138.32 135.53 L 139.33 135.22 C 140.10 134.98 140.52 134.16 140.28 133.40 C 140.05 132.64 139.23 132.21 138.47 132.45 L 137.46 132.76 C 136.69 133.00 136.27 133.82 136.51 134.58 C 136.75 135.34 137.56 135.77 138.32 135.53 Z M 139.31 135.22 L 140.33 134.91 C 141.10 134.69 141.53 133.88 141.30 133.12 C 141.08 132.35 140.27 131.92 139.51 132.15 L 138.49 132.45 C 137.73 132.68 137.29 133.48 137.52 134.24 C 137.74 135.01 138.55 135.44 139.31 135.22 Z M 140.31 134.91 L 141.26 134.65 C 142.02 134.43 142.47 133.63 142.25 132.87 C 142.03 132.11 141.24 131.66 140.47 131.88 L 139.53 132.15 C 138.77 132.36 138.32 133.16 138.54 133.92 C 138.75 134.68 139.55 135.13 140.31 134.91 Z M 141.24 134.64 L 142.14 134.40 C 142.90 134.19 143.35 133.40 143.14 132.64 C 142.94 131.88 142.15 131.43 141.38 131.64 L 140.49 131.88 C 139.73 132.09 139.28 132.87 139.48 133.64 C 139.69 134.40 140.48 134.85 141.24 134.64 Z M 142.13 134.40 L 142.89 134.19 C 143.65 133.99 144.10 133.21 143.90 132.45 C 143.70 131.68 142.91 131.23 142.15 131.44 L 141.39 131.64 C 140.63 131.84 140.18 132.62 140.38 133.39 C 140.59 134.15 141.37 134.60 142.13 134.40 Z"
      fill="black"
      fill-rule="nonzero" /><path d="M 132.31 146.56 L 131.04 146.93 C 130.23 147.16 129.76 148.00 129.99 148.81 C 130.22 149.62 131.06 150.09 131.87 149.86 L 133.15 149.49 C 133.96 149.26 134.43 148.42 134.20 147.61 C 133.97 146.80 133.12 146.33 132.31 146.56 Z M 131.04 146.91 L 129.84 147.25 C 129.02 147.49 128.55 148.34 128.78 149.15 C 129.01 149.97 129.86 150.44 130.68 150.21 L 131.87 149.87 C 132.69 149.64 133.16 148.79 132.93 147.97 C 132.70 147.16 131.85 146.68 131.04 146.91 Z M 129.84 147.24 L 128.80 147.54 C 127.97 147.77 127.49 148.62 127.72 149.44 C 127.95 150.26 128.81 150.74 129.63 150.51 L 130.67 150.22 C 131.50 149.99 131.98 149.14 131.75 148.32 C 131.52 147.49 130.66 147.01 129.84 147.24 Z M 128.81 147.52 L 127.99 147.74 C 127.16 147.97 126.67 148.82 126.89 149.65 C 127.12 150.48 127.98 150.97 128.81 150.75 L 129.62 150.53 C 130.45 150.30 130.94 149.45 130.72 148.62 C 130.49 147.79 129.64 147.30 128.81 147.52 Z M 128.02 147.72 L 127.51 147.85 C 126.67 148.06 126.16 148.91 126.37 149.75 C 126.58 150.59 127.43 151.10 128.27 150.89 L 128.77 150.77 C 129.62 150.56 130.13 149.71 129.92 148.87 C 129.71 148.03 128.86 147.52 128.02 147.72 Z M 129.20 150.24 L 129.27 150.14 C 129.75 149.42 129.55 148.44 128.82 147.96 C 128.10 147.48 127.12 147.68 126.64 148.41 L 126.58 148.50 C 126.10 149.23 126.30 150.20 127.02 150.68 C 127.75 151.16 128.72 150.96 129.20 150.24 Z M 128.57 150.71 L 129.66 150.25 C 130.46 149.91 130.83 148.98 130.48 148.19 C 130.14 147.39 129.22 147.02 128.42 147.36 L 127.34 147.83 C 126.54 148.17 126.17 149.10 126.51 149.89 C 126.86 150.69 127.78 151.06 128.57 150.71 Z M 129.71 150.22 L 130.68 149.77 C 131.46 149.40 131.79 148.46 131.42 147.68 C 131.05 146.90 130.12 146.56 129.34 146.93 L 128.37 147.39 C 127.59 147.76 127.26 148.69 127.63 149.48 C 128.00 150.26 128.93 150.59 129.71 150.22 Z M 130.74 149.74 L 131.55 149.30 C 132.32 148.90 132.61 147.95 132.20 147.18 C 131.80 146.42 130.85 146.13 130.08 146.53 L 129.27 146.96 C 128.50 147.37 128.21 148.32 128.62 149.09 C 129.03 149.85 129.98 150.14 130.74 149.74 Z M 131.58 149.29 L 132.46 148.80 C 133.22 148.38 133.49 147.42 133.07 146.67 C 132.65 145.91 131.69 145.63 130.93 146.06 L 130.05 146.55 C 129.29 146.97 129.02 147.92 129.44 148.68 C 129.87 149.44 130.82 149.71 131.58 149.29 Z M 132.46 148.81 L 133.46 148.25 C 134.22 147.83 134.49 146.87 134.07 146.11 C 133.65 145.35 132.69 145.08 131.93 145.50 L 130.93 146.05 C 130.17 146.48 129.90 147.43 130.32 148.20 C 130.74 148.96 131.70 149.23 132.46 148.81 Z M 133.45 148.27 L 134.28 147.81 C 135.05 147.39 135.34 146.43 134.92 145.67 C 134.50 144.90 133.54 144.62 132.77 145.03 L 131.94 145.49 C 131.17 145.90 130.89 146.86 131.30 147.63 C 131.72 148.40 132.68 148.68 133.45 148.27 Z M 134.28 147.82 L 135.18 147.34 C 135.95 146.93 136.24 145.96 135.83 145.19 C 135.42 144.42 134.45 144.13 133.68 144.54 L 132.78 145.02 C 132.01 145.43 131.72 146.40 132.13 147.17 C 132.54 147.94 133.50 148.24 134.28 147.82 Z M 135.18 147.35 L 136.10 146.86 C 136.88 146.45 137.18 145.49 136.76 144.71 C 136.35 143.93 135.39 143.63 134.61 144.04 L 133.69 144.53 C 132.91 144.94 132.61 145.91 133.02 146.68 C 133.43 147.46 134.40 147.76 135.18 147.35 Z M 136.10 146.87 L 137.00 146.40 C 137.79 145.99 138.09 145.02 137.68 144.23 C 137.27 143.45 136.30 143.15 135.52 143.56 L 134.61 144.03 C 133.83 144.44 133.52 145.41 133.93 146.19 C 134.34 146.98 135.31 147.28 136.10 146.87 Z M 137.00 146.41 L 137.86 145.96 C 138.65 145.55 138.96 144.58 138.55 143.79 C 138.14 143.00 137.17 142.69 136.38 143.10 L 135.52 143.55 C 134.73 143.96 134.42 144.93 134.83 145.72 C 135.24 146.51 136.21 146.82 137.00 146.41 Z M 137.85 145.97 L 138.86 145.46 C 139.66 145.06 139.98 144.08 139.57 143.28 C 139.17 142.49 138.19 142.17 137.40 142.58 L 136.39 143.09 C 135.59 143.50 135.27 144.47 135.68 145.27 C 136.08 146.06 137.06 146.38 137.85 145.97 Z M 138.83 145.49 L 139.73 145.06 C 140.55 144.67 140.89 143.70 140.50 142.88 C 140.11 142.07 139.14 141.73 138.33 142.12 L 137.43 142.55 C 136.62 142.94 136.27 143.91 136.66 144.72 C 137.05 145.53 138.02 145.88 138.83 145.49 Z M 139.67 145.10 L 140.52 144.74 C 141.36 144.39 141.75 143.43 141.40 142.60 C 141.05 141.76 140.09 141.37 139.25 141.72 L 138.40 142.07 C 137.56 142.42 137.17 143.39 137.52 144.22 C 137.87 145.06 138.83 145.45 139.67 145.10 Z M 140.42 144.79 L 141.32 144.49 C 142.19 144.19 142.65 143.26 142.36 142.39 C 142.06 141.53 141.13 141.07 140.26 141.36 L 139.36 141.67 C 138.49 141.96 138.03 142.89 138.32 143.76 C 138.62 144.62 139.55 145.08 140.42 144.79 Z M 141.15 144.55 L 142.21 144.31 C 143.11 144.11 143.67 143.22 143.47 142.33 C 143.27 141.43 142.38 140.86 141.49 141.06 L 140.43 141.30 C 139.53 141.50 138.97 142.39 139.17 143.28 C 139.37 144.18 140.26 144.75 141.15 144.55 Z M 141.86 144.37 L 142.84 144.37 C 143.77 144.36 144.52 143.60 144.51 142.67 C 144.51 141.74 143.75 140.99 142.82 141.00 L 141.84 141.01 C 140.91 141.01 140.16 141.77 140.16 142.70 C 140.17 143.63 140.93 144.38 141.86 144.37 Z M 142.16 144.25 L 142.96 144.59 C 143.82 144.95 144.82 144.55 145.19 143.69 C 145.56 142.83 145.16 141.83 144.30 141.46 L 143.50 141.12 C 142.64 140.75 141.64 141.15 141.27 142.01 C 140.90 142.88 141.30 143.88 142.16 144.25 Z M 142.26 144.04 L 142.74 144.69 C 143.30 145.45 144.37 145.60 145.13 145.04 C 145.89 144.47 146.04 143.40 145.48 142.65 L 145.00 142.00 C 144.43 141.24 143.36 141.09 142.61 141.65 C 141.85 142.22 141.69 143.29 142.26 144.04 Z M 142.49 144.22 L 142.80 145.13 C 143.10 146.02 144.07 146.50 144.97 146.20 C 145.86 145.90 146.34 144.92 146.04 144.03 L 145.73 143.12 C 145.43 142.22 144.45 141.74 143.56 142.05 C 142.66 142.35 142.18 143.32 142.49 144.22 Z M 142.73 144.87 L 142.91 145.96 C 143.07 146.89 143.96 147.52 144.89 147.36 C 145.83 147.20 146.45 146.31 146.29 145.38 L 146.11 144.29 C 145.95 143.36 145.06 142.73 144.13 142.89 C 143.19 143.05 142.57 143.94 142.73 144.87 Z M 142.90 145.84 L 143.00 146.92 C 143.10 147.86 143.94 148.55 144.88 148.46 C 145.82 148.37 146.51 147.53 146.42 146.58 L 146.31 145.50 C 146.22 144.55 145.38 143.87 144.43 143.96 C 143.49 144.05 142.80 144.89 142.90 145.84 Z M 143.00 146.87 L 143.06 147.83 C 143.13 148.77 143.95 149.49 144.89 149.43 C 145.84 149.36 146.55 148.54 146.49 147.59 L 146.42 146.64 C 146.36 145.69 145.54 144.97 144.59 145.04 C 143.65 145.10 142.93 145.92 143.00 146.87 Z M 143.06 147.79 L 143.11 148.78 C 143.15 149.73 143.96 150.46 144.90 150.41 C 145.85 150.37 146.58 149.56 146.54 148.62 L 146.49 147.63 C 146.45 146.68 145.64 145.95 144.70 145.99 C 143.75 146.04 143.01 146.84 143.06 147.79 Z M 143.10 148.75 L 143.14 149.76 C 143.16 150.71 143.96 151.46 144.91 151.43 C 145.86 151.40 146.60 150.61 146.57 149.66 L 146.54 148.64 C 146.51 147.69 145.72 146.95 144.77 146.98 C 143.82 147.01 143.07 147.80 143.10 148.75 Z M 143.13 149.74 L 143.15 150.79 C 143.17 151.74 143.96 152.49 144.91 152.47 C 145.86 152.45 146.61 151.67 146.60 150.72 L 146.58 149.68 C 146.56 148.73 145.77 147.97 144.82 147.99 C 143.87 148.01 143.11 148.79 143.13 149.74 Z M 143.15 150.77 L 143.16 151.76 C 143.18 152.71 143.96 153.47 144.91 153.46 C 145.86 153.45 146.62 152.67 146.61 151.71 L 146.60 150.73 C 146.59 149.78 145.81 149.02 144.85 149.03 C 143.90 149.04 143.14 149.82 143.15 150.77 Z M 143.16 151.75 L 143.17 152.72 C 143.17 153.68 143.95 154.44 144.91 154.44 C 145.86 154.43 146.63 153.65 146.62 152.70 L 146.61 151.72 C 146.61 150.77 145.83 150.00 144.87 150.01 C 143.92 150.02 143.15 150.80 143.16 151.75 Z M 143.16 152.72 L 143.17 153.71 C 143.17 154.67 143.95 155.44 144.91 155.43 C 145.86 155.43 146.63 154.65 146.63 153.70 L 146.62 152.70 C 146.62 151.75 145.84 150.97 144.89 150.98 C 143.93 150.98 143.16 151.76 143.16 152.72 Z M 143.16 153.71 L 143.17 154.72 C 143.17 155.68 143.95 156.45 144.90 156.45 C 145.86 156.45 146.64 155.67 146.63 154.71 L 146.63 153.70 C 146.63 152.74 145.85 151.97 144.90 151.97 C 143.94 151.97 143.16 152.75 143.16 153.71 Z M 143.16 154.72 L 143.16 155.75 C 143.16 156.71 143.94 157.48 144.90 157.48 C 145.86 157.48 146.64 156.71 146.64 155.75 L 146.64 154.72 C 146.64 153.76 145.86 152.98 144.90 152.98 C 143.94 152.98 143.16 153.76 143.16 154.72 Z M 143.16 155.75 L 143.16 156.76 C 143.16 157.72 143.94 158.50 144.90 158.50 C 145.86 158.50 146.64 157.72 146.64 156.76 L 146.64 155.75 C 146.64 154.79 145.86 154.01 144.90 154.01 C 143.94 154.01 143.16 154.79 143.16 155.75 Z M 143.16 156.76 L 143.16 157.75 C 143.16 158.71 143.94 159.49 144.90 159.49 C 145.86 159.49 146.64 158.71 146.64 157.75 L 146.64 156.76 C 146.64 155.80 145.86 155.02 144.90 155.02 C 143.94 155.02 143.16 155.80 143.16 156.76 Z M 143.16 157.75 L 143.16 158.75 C 143.16 159.71 143.94 160.50 144.90 160.50 C 145.86 160.50 146.65 159.71 146.65 158.75 L 146.65 157.75 C 146.65 156.79 145.86 156.01 144.90 156.01 C 143.94 156.01 143.16 156.79 143.16 157.75 Z M 143.15 158.75 L 143.15 159.76 C 143.15 160.72 143.94 161.50 144.90 161.50 C 145.87 161.50 146.65 160.72 146.65 159.76 L 146.65 158.75 C 146.65 157.79 145.87 157.00 144.90 157.00 C 143.94 157.00 143.15 157.79 143.15 158.75 Z M 143.15 159.76 L 143.15 160.76 C 143.15 161.73 143.94 162.51 144.90 162.51 C 145.87 162.51 146.65 161.73 146.65 160.76 L 146.65 159.76 C 146.65 158.79 145.87 158.01 144.90 158.01 C 143.94 158.01 143.15 158.79 143.15 159.76 Z M 143.15 160.76 L 143.15 161.77 C 143.15 162.74 143.93 163.52 144.90 163.52 C 145.87 163.52 146.65 162.74 146.65 161.77 L 146.65 160.76 C 146.65 159.80 145.87 159.01 144.90 159.01 C 143.93 159.01 143.15 159.80 143.15 160.76 Z M 143.15 161.77 L 143.15 162.80 C 143.15 163.77 143.93 164.55 144.90 164.55 C 145.87 164.55 146.65 163.77 146.65 162.80 L 146.65 161.77 C 146.65 160.80 145.87 160.02 144.90 160.02 C 143.93 160.02 143.15 160.80 143.15 161.77 Z M 143.15 162.80 L 143.15 163.83 C 143.15 164.80 143.93 165.58 144.90 165.58 C 145.87 165.58 146.66 164.80 146.66 163.83 L 146.66 162.80 C 146.66 161.83 145.87 161.05 144.90 161.05 C 143.93 161.05 143.15 161.83 143.15 162.80 Z M 143.15 163.83 L 143.15 164.84 C 143.15 165.81 143.93 166.60 144.90 166.60 C 145.87 166.60 146.66 165.81 146.66 164.84 L 146.66 163.83 C 146.66 162.86 145.87 162.08 144.90 162.08 C 143.93 162.08 143.15 162.86 143.15 163.83 Z M 143.14 164.84 L 143.14 165.84 C 143.14 166.81 143.93 167.59 144.90 167.59 C 145.87 167.59 146.66 166.81 146.66 165.84 L 146.66 164.84 C 146.66 163.87 145.87 163.09 144.90 163.09 C 143.93 163.09 143.14 163.87 143.14 164.84 Z M 143.14 165.84 L 143.14 166.80 C 143.14 167.77 143.93 168.56 144.90 168.56 C 145.87 168.56 146.66 167.77 146.66 166.80 L 146.66 165.84 C 146.66 164.87 145.87 164.08 144.90 164.08 C 143.93 164.08 143.14 164.87 143.14 165.84 Z M 143.14 166.80 L 143.14 167.81 C 143.14 168.79 143.93 169.57 144.90 169.57 C 145.87 169.57 146.66 168.79 146.66 167.81 L 146.66 166.80 C 146.66 165.83 145.87 165.04 144.90 165.04 C 143.93 165.04 143.14 165.83 143.14 166.80 Z M 143.14 167.81 L 143.14 168.87 C 143.14 169.84 143.93 170.63 144.90 170.63 C 145.87 170.63 146.66 169.84 146.66 168.87 L 146.66 167.81 C 146.66 166.84 145.87 166.05 144.90 166.05 C 143.93 166.05 143.14 166.84 143.14 167.81 Z M 143.14 168.87 L 143.14 169.88 C 143.14 170.86 143.93 171.64 144.90 171.64 C 145.87 171.64 146.66 170.86 146.66 169.88 L 146.66 168.87 C 146.66 167.90 145.87 167.11 144.90 167.11 C 143.93 167.11 143.14 167.90 143.14 168.87 Z M 143.14 169.88 L 143.14 170.85 C 143.14 171.82 143.93 172.61 144.90 172.61 C 145.87 172.61 146.66 171.82 146.66 170.85 L 146.66 169.88 C 146.66 168.91 145.87 168.12 144.90 168.12 C 143.93 168.12 143.14 168.91 143.14 169.88 Z M 143.14 170.85 L 143.14 171.78 C 143.14 172.75 143.93 173.54 144.90 173.54 C 145.87 173.54 146.66 172.75 146.66 171.78 L 146.66 170.85 C 146.66 169.88 145.87 169.09 144.90 169.09 C 143.93 169.09 143.14 169.88 143.14 170.85 Z M 143.14 171.77 L 143.14 172.81 C 143.14 173.78 143.93 174.57 144.90 174.57 C 145.87 174.57 146.66 173.78 146.66 172.81 L 146.66 171.78 C 146.66 170.80 145.88 170.01 144.90 170.01 C 143.93 170.01 143.14 170.80 143.14 171.77 Z M 143.14 172.80 L 143.13 173.80 C 143.13 174.78 143.91 175.57 144.89 175.57 C 145.86 175.58 146.65 174.79 146.66 173.82 L 146.66 172.81 C 146.67 171.84 145.88 171.05 144.91 171.04 C 143.94 171.04 143.14 171.82 143.14 172.80 Z M 143.13 173.79 L 143.12 174.77 C 143.10 175.74 143.88 176.54 144.86 176.55 C 145.83 176.57 146.63 175.79 146.65 174.82 L 146.66 173.83 C 146.67 172.86 145.89 172.06 144.92 172.05 C 143.95 172.03 143.15 172.81 143.13 173.79 Z M 143.12 174.74 L 143.09 175.72 C 143.06 176.69 143.83 177.51 144.81 177.53 C 145.78 177.56 146.59 176.79 146.62 175.82 L 146.64 174.84 C 146.67 173.87 145.90 173.06 144.93 173.03 C 143.96 173.00 143.15 173.77 143.12 174.74 Z M 143.09 175.68 L 143.04 176.71 C 142.99 177.69 143.74 178.51 144.72 178.56 C 145.69 178.61 146.52 177.86 146.57 176.89 L 146.62 175.86 C 146.66 174.88 145.91 174.06 144.94 174.01 C 143.97 173.96 143.14 174.71 143.09 175.68 Z M 143.05 176.65 L 142.96 177.66 C 142.88 178.63 143.59 179.48 144.56 179.57 C 145.53 179.65 146.39 178.93 146.47 177.96 L 146.56 176.95 C 146.64 175.98 145.93 175.13 144.96 175.04 C 143.99 174.96 143.13 175.68 143.05 176.65 Z M 142.97 177.56 L 142.83 178.53 C 142.69 179.50 143.36 180.39 144.32 180.53 C 145.29 180.67 146.18 180.00 146.32 179.04 L 146.46 178.06 C 146.60 177.10 145.93 176.21 144.97 176.07 C 144.01 175.93 143.11 176.60 142.97 177.56 Z M 142.86 178.38 L 142.63 179.36 C 142.41 180.30 143.00 181.25 143.95 181.47 C 144.89 181.69 145.84 181.11 146.06 180.16 L 146.29 179.19 C 146.51 178.24 145.92 177.29 144.98 177.07 C 144.03 176.85 143.08 177.44 142.86 178.38 Z M 142.71 179.13 L 142.34 180.09 C 141.99 180.99 142.45 182.01 143.35 182.36 C 144.25 182.70 145.27 182.25 145.62 181.35 L 145.98 180.39 C 146.33 179.48 145.88 178.47 144.98 178.12 C 144.07 177.77 143.06 178.23 142.71 179.13 Z M 142.50 179.78 L 141.99 180.60 C 141.47 181.42 141.71 182.50 142.53 183.01 C 143.34 183.53 144.42 183.28 144.94 182.47 L 145.45 181.65 C 145.97 180.84 145.73 179.76 144.91 179.24 C 144.10 178.73 143.02 178.97 142.50 179.78 Z M 142.27 180.28 L 141.58 180.93 C 140.89 181.59 140.85 182.68 141.51 183.38 C 142.17 184.07 143.27 184.11 143.96 183.45 L 144.65 182.80 C 145.35 182.14 145.38 181.04 144.72 180.35 C 144.06 179.65 142.97 179.62 142.27 180.28 Z M 141.93 180.70 L 141.08 181.19 C 140.26 181.65 139.97 182.69 140.44 183.51 C 140.90 184.33 141.94 184.62 142.76 184.15 L 143.61 183.67 C 144.43 183.21 144.72 182.17 144.25 181.35 C 143.79 180.53 142.75 180.24 141.93 180.70 Z M 141.37 181.10 L 140.41 181.44 C 139.54 181.75 139.09 182.70 139.40 183.56 C 139.70 184.43 140.66 184.88 141.52 184.58 L 142.48 184.24 C 143.34 183.93 143.79 182.98 143.49 182.11 C 143.18 181.25 142.23 180.80 141.37 181.10 Z M 140.61 181.43 L 139.61 181.65 C 138.74 181.85 138.19 182.71 138.39 183.58 C 138.58 184.46 139.45 185.01 140.32 184.81 L 141.32 184.59 C 142.19 184.39 142.74 183.53 142.55 182.65 C 142.35 181.78 141.48 181.23 140.61 181.43 Z M 139.76 181.68 L 138.76 181.81 C 137.90 181.93 137.30 182.72 137.41 183.57 C 137.53 184.43 138.32 185.04 139.18 184.92 L 140.18 184.79 C 141.04 184.67 141.64 183.88 141.52 183.02 C 141.41 182.16 140.62 181.56 139.76 181.68 Z M 138.85 181.86 L 137.86 181.93 C 137.03 182.00 136.41 182.72 136.47 183.55 C 136.53 184.39 137.26 185.01 138.09 184.95 L 139.08 184.87 C 139.91 184.81 140.54 184.08 140.47 183.25 C 140.41 182.42 139.69 181.80 138.85 181.86 Z M 137.91 181.99 L 137.03 182.03 C 136.22 182.07 135.60 182.75 135.64 183.55 C 135.68 184.35 136.36 184.97 137.17 184.94 L 138.04 184.89 C 138.85 184.86 139.47 184.17 139.43 183.37 C 139.39 182.57 138.71 181.95 137.91 181.99 Z"
      fill="black"
      fill-rule="nonzero" /><path d="M 123.95 141.74 L 124.08 142.74 C 124.19 143.57 124.95 144.16 125.78 144.05 C 126.61 143.94 127.20 143.18 127.09 142.35 L 126.96 141.35 C 126.85 140.52 126.09 139.93 125.26 140.04 C 124.42 140.15 123.84 140.91 123.95 141.74 Z M 124.04 142.74 L 124.17 143.74 C 124.27 144.59 125.05 145.19 125.91 145.09 C 126.76 144.98 127.37 144.20 127.26 143.34 L 127.13 142.35 C 127.02 141.49 126.24 140.89 125.39 141.00 C 124.53 141.11 123.93 141.89 124.04 142.74 Z M 124.13 143.73 L 124.24 144.72 C 124.35 145.60 125.14 146.22 126.02 146.12 C 126.89 146.02 127.52 145.22 127.41 144.35 L 127.30 143.35 C 127.19 142.48 126.40 141.85 125.52 141.95 C 124.65 142.06 124.02 142.85 124.13 143.73 Z M 124.20 144.71 L 124.31 145.70 C 124.41 146.60 125.21 147.25 126.11 147.15 C 127.01 147.06 127.66 146.25 127.56 145.35 L 127.45 144.36 C 127.36 143.46 126.55 142.81 125.66 142.91 C 124.76 143.00 124.11 143.81 124.20 144.71 Z M 124.27 145.68 L 124.36 146.66 C 124.44 147.58 125.25 148.26 126.17 148.18 C 127.10 148.10 127.77 147.28 127.69 146.36 L 127.60 145.38 C 127.52 144.45 126.70 143.78 125.78 143.86 C 124.86 143.94 124.19 144.76 124.27 145.68 Z M 124.34 146.63 L 124.41 147.69 C 124.48 148.62 125.28 149.32 126.22 149.26 C 127.15 149.19 127.85 148.38 127.79 147.45 L 127.71 146.39 C 127.65 145.46 126.84 144.76 125.91 144.82 C 124.97 144.89 124.27 145.70 124.34 146.63 Z M 124.41 147.66 L 124.46 148.70 C 124.51 149.63 125.31 150.35 126.24 150.30 C 127.17 150.25 127.89 149.46 127.84 148.52 L 127.79 147.48 C 127.74 146.55 126.95 145.83 126.01 145.88 C 125.08 145.93 124.36 146.72 124.41 147.66 Z M 124.46 148.67 L 124.50 149.68 C 124.53 150.61 125.32 151.34 126.25 151.31 C 127.19 151.28 127.92 150.49 127.88 149.55 L 127.85 148.55 C 127.81 147.61 127.03 146.88 126.09 146.92 C 125.15 146.95 124.42 147.74 124.46 148.67 Z M 124.49 149.66 L 124.52 150.62 C 124.54 151.55 125.32 152.29 126.26 152.27 C 127.19 152.24 127.93 151.47 127.91 150.53 L 127.88 149.57 C 127.86 148.64 127.08 147.90 126.15 147.92 C 125.21 147.95 124.47 148.72 124.49 149.66 Z M 124.52 150.60 L 124.54 151.58 C 124.55 152.51 125.32 153.26 126.26 153.24 C 127.20 153.23 127.94 152.45 127.93 151.52 L 127.91 150.54 C 127.89 149.61 127.12 148.86 126.19 148.88 C 125.25 148.89 124.50 149.67 124.52 150.60 Z M 124.53 151.56 L 124.55 152.63 C 124.56 153.56 125.32 154.31 126.26 154.30 C 127.20 154.29 127.95 153.53 127.94 152.59 L 127.93 151.53 C 127.92 150.59 127.15 149.84 126.21 149.85 C 125.28 149.86 124.52 150.63 124.53 151.56 Z M 124.55 152.62 L 124.55 153.60 C 124.56 154.53 125.32 155.29 126.25 155.29 C 127.19 155.28 127.95 154.52 127.94 153.58 L 127.94 152.60 C 127.93 151.66 127.17 150.91 126.23 150.91 C 125.30 150.92 124.54 151.68 124.55 152.62 Z M 124.55 153.59 L 124.55 154.53 C 124.55 155.47 125.31 156.22 126.25 156.22 C 127.19 156.22 127.94 155.46 127.94 154.53 L 127.94 153.59 C 127.94 152.65 127.18 151.89 126.25 151.89 C 125.31 151.89 124.55 152.65 124.55 153.59 Z M 124.55 154.52 L 124.55 155.49 C 124.55 156.43 125.31 157.19 126.24 157.19 C 127.18 157.19 127.94 156.43 127.94 155.49 L 127.94 154.53 C 127.94 153.59 127.19 152.83 126.25 152.83 C 125.31 152.83 124.55 153.59 124.55 154.52 Z M 124.55 155.46 L 124.54 156.45 C 124.52 157.39 125.27 158.16 126.20 158.17 C 127.14 158.19 127.91 157.44 127.92 156.51 L 127.94 155.52 C 127.96 154.59 127.21 153.82 126.27 153.80 C 125.34 153.78 124.57 154.53 124.55 155.46 Z M 124.54 156.39 L 124.49 157.40 C 124.44 158.33 125.16 159.12 126.09 159.17 C 127.02 159.22 127.82 158.50 127.87 157.57 L 127.92 156.57 C 127.97 155.63 127.25 154.84 126.32 154.79 C 125.38 154.74 124.59 155.46 124.54 156.39 Z M 124.50 157.31 L 124.39 158.31 C 124.30 159.23 124.97 160.06 125.90 160.16 C 126.83 160.26 127.66 159.58 127.75 158.65 L 127.86 157.66 C 127.95 156.73 127.28 155.90 126.35 155.80 C 125.42 155.71 124.59 156.38 124.50 157.31 Z M 124.41 158.22 L 124.26 159.18 C 124.11 160.10 124.74 160.96 125.66 161.10 C 126.58 161.25 127.45 160.62 127.59 159.70 L 127.74 158.74 C 127.89 157.82 127.26 156.96 126.34 156.81 C 125.42 156.67 124.55 157.30 124.41 158.22 Z M 124.27 159.11 L 124.08 160.10 C 123.90 161.01 124.50 161.89 125.41 162.07 C 126.32 162.25 127.21 161.66 127.39 160.74 L 127.58 159.76 C 127.76 158.85 127.16 157.96 126.25 157.79 C 125.34 157.61 124.45 158.20 124.27 159.11 Z M 124.09 160.05 L 123.87 161.06 C 123.66 161.96 124.23 162.86 125.14 163.07 C 126.04 163.27 126.94 162.70 127.15 161.79 L 127.37 160.79 C 127.58 159.88 127.01 158.98 126.10 158.78 C 125.19 158.58 124.29 159.15 124.09 160.05 Z M 123.87 161.03 L 123.64 162.01 C 123.42 162.91 123.97 163.82 124.87 164.03 C 125.78 164.25 126.68 163.70 126.90 162.80 L 127.14 161.82 C 127.36 160.92 126.80 160.01 125.90 159.79 C 125.00 159.57 124.09 160.13 123.87 161.03 Z M 123.65 161.99 L 123.40 162.95 C 123.17 163.85 123.72 164.76 124.61 164.99 C 125.51 165.21 126.42 164.67 126.65 163.78 L 126.89 162.82 C 127.12 161.92 126.58 161.01 125.68 160.78 C 124.79 160.55 123.87 161.09 123.65 161.99 Z M 123.41 162.93 L 123.15 163.90 C 122.92 164.80 123.45 165.71 124.34 165.95 C 125.23 166.18 126.15 165.65 126.38 164.76 L 126.64 163.79 C 126.88 162.90 126.35 161.98 125.45 161.75 C 124.56 161.51 123.65 162.04 123.41 162.93 Z M 123.16 163.89 L 122.89 164.87 C 122.65 165.75 123.17 166.67 124.06 166.92 C 124.95 167.16 125.86 166.64 126.11 165.75 L 126.38 164.77 C 126.62 163.89 126.10 162.97 125.21 162.73 C 124.32 162.48 123.40 163.00 123.16 163.89 Z M 122.90 164.85 L 122.63 165.82 C 122.38 166.70 122.89 167.62 123.77 167.87 C 124.66 168.12 125.57 167.61 125.82 166.73 L 126.10 165.76 C 126.35 164.88 125.84 163.96 124.95 163.71 C 124.07 163.46 123.15 163.97 122.90 164.85 Z M 122.64 165.81 L 122.36 166.76 C 122.10 167.64 122.60 168.56 123.48 168.82 C 124.36 169.08 125.28 168.57 125.54 167.70 L 125.82 166.74 C 126.07 165.86 125.57 164.94 124.69 164.68 C 123.81 164.43 122.89 164.93 122.64 165.81 Z M 122.36 166.75 L 122.07 167.71 C 121.81 168.58 122.30 169.50 123.17 169.77 C 124.05 170.03 124.97 169.54 125.24 168.67 L 125.53 167.71 C 125.79 166.84 125.30 165.91 124.43 165.65 C 123.55 165.38 122.63 165.88 122.36 166.75 Z M 122.08 167.69 L 121.78 168.65 C 121.51 169.51 121.99 170.44 122.85 170.71 C 123.72 170.99 124.65 170.51 124.92 169.64 L 125.23 168.68 C 125.50 167.82 125.02 166.89 124.15 166.62 C 123.29 166.34 122.36 166.82 122.08 167.69 Z M 121.79 168.63 L 121.48 169.57 C 121.20 170.43 121.66 171.36 122.52 171.64 C 123.38 171.93 124.31 171.46 124.60 170.60 L 124.91 169.66 C 125.20 168.80 124.73 167.87 123.87 167.58 C 123.01 167.30 122.08 167.77 121.79 168.63 Z M 121.50 169.55 L 121.17 170.48 C 120.88 171.33 121.33 172.26 122.18 172.56 C 123.03 172.85 123.97 172.40 124.26 171.55 L 124.58 170.62 C 124.88 169.77 124.43 168.84 123.58 168.54 C 122.72 168.25 121.79 168.70 121.50 169.55 Z M 121.19 170.46 L 120.85 171.39 C 120.54 172.24 120.98 173.17 121.83 173.47 C 122.67 173.78 123.60 173.34 123.91 172.50 L 124.25 171.57 C 124.55 170.72 124.12 169.79 123.27 169.48 C 122.43 169.18 121.49 169.61 121.19 170.46 Z M 120.86 171.37 L 120.51 172.32 C 120.19 173.15 120.62 174.09 121.45 174.40 C 122.29 174.72 123.22 174.30 123.54 173.46 L 123.89 172.52 C 124.21 171.68 123.79 170.75 122.95 170.43 C 122.11 170.11 121.18 170.54 120.86 171.37 Z M 120.52 172.30 L 120.15 173.26 C 119.82 174.09 120.23 175.02 121.06 175.35 C 121.89 175.67 122.83 175.26 123.15 174.43 L 123.52 173.48 C 123.85 172.65 123.44 171.71 122.61 171.39 C 121.78 171.06 120.85 171.47 120.52 172.30 Z M 120.16 173.25 L 119.78 174.19 C 119.45 175.01 119.85 175.94 120.67 176.27 C 121.49 176.61 122.42 176.21 122.76 175.39 L 123.14 174.45 C 123.47 173.63 123.07 172.69 122.25 172.36 C 121.43 172.03 120.49 172.43 120.16 173.25 Z M 119.80 174.17 L 119.40 175.12 C 119.07 175.93 119.45 176.86 120.27 177.20 C 121.08 177.54 122.01 177.15 122.35 176.34 L 122.74 175.40 C 123.08 174.59 122.70 173.65 121.88 173.31 C 121.07 172.97 120.13 173.36 119.80 174.17 Z M 119.42 175.10 L 119.02 176.03 C 118.68 176.84 119.05 177.77 119.86 178.11 C 120.67 178.46 121.60 178.08 121.94 177.28 L 122.34 176.35 C 122.68 175.54 122.31 174.61 121.50 174.27 C 120.69 173.92 119.76 174.30 119.42 175.10 Z M 119.04 176.02 L 118.64 176.92 C 118.29 177.72 118.66 178.65 119.46 179.00 C 120.25 179.35 121.19 178.98 121.54 178.18 L 121.93 177.29 C 122.28 176.49 121.91 175.56 121.12 175.21 C 120.32 174.86 119.39 175.22 119.04 176.02 Z M 118.66 176.91 L 118.23 177.85 C 117.88 178.64 118.23 179.57 119.02 179.93 C 119.81 180.28 120.74 179.93 121.10 179.14 L 121.52 178.20 C 121.88 177.41 121.53 176.48 120.73 176.12 C 119.94 175.76 119.01 176.12 118.66 176.91 Z M 118.25 177.84 L 117.81 178.78 C 117.45 179.56 117.79 180.49 118.57 180.85 C 119.35 181.22 120.28 180.88 120.64 180.09 L 121.08 179.15 C 121.44 178.37 121.10 177.44 120.32 177.08 C 119.54 176.72 118.61 177.06 118.25 177.84 Z M 117.83 178.77 L 117.41 179.66 C 117.04 180.43 117.37 181.36 118.14 181.72 C 118.91 182.09 119.84 181.76 120.21 180.99 L 120.63 180.10 C 121.00 179.33 120.67 178.41 119.89 178.04 C 119.12 177.67 118.20 178.00 117.83 178.77 Z M 117.42 179.65 L 117.01 180.50 C 116.64 181.26 116.96 182.18 117.73 182.55 C 118.49 182.92 119.41 182.60 119.78 181.84 L 120.19 181.00 C 120.56 180.23 120.24 179.31 119.48 178.94 C 118.71 178.57 117.79 178.89 117.42 179.65 Z M 117.03 180.49 L 116.58 181.41 C 116.20 182.17 116.52 183.08 117.27 183.45 C 118.03 183.83 118.95 183.51 119.32 182.76 L 119.77 181.84 C 120.14 181.09 119.83 180.17 119.07 179.80 C 118.31 179.42 117.40 179.74 117.03 180.49 Z M 116.59 181.40 L 116.14 182.31 C 115.77 183.05 116.07 183.97 116.82 184.34 C 117.57 184.72 118.48 184.41 118.85 183.66 L 119.30 182.76 C 119.68 182.01 119.37 181.10 118.63 180.73 C 117.88 180.35 116.96 180.66 116.59 181.40 Z M 116.16 182.30 L 115.71 183.17 C 115.33 183.91 115.63 184.82 116.37 185.20 C 117.11 185.57 118.01 185.28 118.39 184.54 L 118.84 183.67 C 119.22 182.93 118.92 182.02 118.18 181.64 C 117.44 181.27 116.53 181.56 116.16 182.30 Z M 115.73 183.16 L 115.29 183.99 C 114.91 184.72 115.19 185.62 115.92 186.01 C 116.65 186.39 117.56 186.11 117.94 185.38 L 118.37 184.55 C 118.76 183.82 118.48 182.92 117.75 182.53 C 117.01 182.15 116.11 182.43 115.73 183.16 Z M 115.31 183.98 L 114.87 184.80 C 114.48 185.52 114.75 186.42 115.47 186.81 C 116.19 187.20 117.09 186.93 117.48 186.21 L 117.92 185.39 C 118.31 184.67 118.04 183.77 117.32 183.38 C 116.60 182.99 115.70 183.26 115.31 183.98 Z M 114.89 184.78 L 114.40 185.66 C 114.00 186.37 114.26 187.27 114.97 187.67 C 115.68 188.06 116.58 187.81 116.97 187.10 L 117.46 186.22 C 117.86 185.51 117.60 184.61 116.89 184.21 C 116.18 183.82 115.28 184.07 114.89 184.78 Z M 114.41 185.65 L 113.87 186.60 C 113.47 187.31 113.72 188.20 114.42 188.60 C 115.12 189.00 116.02 188.76 116.42 188.05 L 116.96 187.10 C 117.36 186.40 117.11 185.51 116.41 185.11 C 115.71 184.71 114.81 184.95 114.41 185.65 Z M 113.88 186.60 L 113.43 187.38 C 113.03 188.08 113.27 188.97 113.96 189.37 C 114.66 189.78 115.55 189.54 115.96 188.84 L 116.41 188.06 C 116.81 187.36 116.57 186.47 115.87 186.07 C 115.18 185.66 114.29 185.90 113.88 186.60 Z M 113.44 187.38 L 112.95 188.22 C 112.54 188.91 112.78 189.80 113.47 190.21 C 114.16 190.61 115.05 190.38 115.46 189.68 L 115.95 188.84 C 116.35 188.15 116.12 187.26 115.42 186.86 C 114.73 186.45 113.84 186.69 113.44 187.38 Z M 112.95 188.22 L 112.43 189.11 C 112.03 189.80 112.26 190.69 112.95 191.09 C 113.64 191.49 114.53 191.26 114.93 190.57 L 115.45 189.69 C 115.86 189.00 115.62 188.11 114.93 187.70 C 114.24 187.30 113.36 187.53 112.95 188.22 Z M 112.44 189.11 L 111.90 190.02 C 111.50 190.71 111.73 191.59 112.41 192.00 C 113.10 192.40 113.99 192.17 114.39 191.49 L 114.93 190.57 C 115.33 189.88 115.10 189.00 114.41 188.59 C 113.73 188.19 112.84 188.42 112.44 189.11 Z M 111.90 190.02 L 111.51 190.69 C 111.11 191.38 111.34 192.26 112.02 192.66 C 112.71 193.06 113.59 192.84 114.00 192.15 L 114.39 191.48 C 114.79 190.80 114.56 189.92 113.88 189.51 C 113.19 189.11 112.31 189.34 111.90 190.02 Z"
      fill="black"
      fill-rule="nonzero" /><path d="M 169.64 100.93 L 168.69 101.27 C 167.88 101.57 167.46 102.46 167.76 103.27 C 168.05 104.07 168.95 104.49 169.75 104.20 L 170.70 103.85 C 171.51 103.55 171.92 102.66 171.63 101.85 C 171.34 101.05 170.44 100.63 169.64 100.93 Z M 168.65 101.28 L 167.71 101.65 C 166.91 101.96 166.51 102.87 166.83 103.68 C 167.15 104.48 168.06 104.87 168.86 104.56 L 169.79 104.19 C 170.60 103.87 170.99 102.96 170.67 102.16 C 170.36 101.36 169.45 100.96 168.65 101.28 Z M 167.63 101.67 L 166.73 102.09 C 165.94 102.45 165.59 103.38 165.95 104.17 C 166.31 104.96 167.25 105.31 168.04 104.95 L 168.94 104.53 C 169.73 104.17 170.08 103.24 169.72 102.45 C 169.35 101.66 168.42 101.31 167.63 101.67 Z M 166.61 102.13 L 165.73 102.62 C 164.97 103.05 164.70 104.02 165.12 104.78 C 165.55 105.55 166.52 105.82 167.28 105.39 L 168.16 104.90 C 168.92 104.47 169.19 103.50 168.77 102.74 C 168.34 101.98 167.37 101.70 166.61 102.13 Z M 165.59 102.69 L 164.76 103.26 C 164.03 103.77 163.85 104.77 164.35 105.50 C 164.86 106.23 165.86 106.41 166.59 105.90 L 167.42 105.33 C 168.15 104.82 168.33 103.82 167.83 103.09 C 167.32 102.36 166.32 102.18 165.59 102.69 Z M 164.63 103.34 L 163.86 103.98 C 163.17 104.56 163.09 105.58 163.66 106.27 C 164.24 106.96 165.27 107.05 165.96 106.47 L 166.72 105.83 C 167.41 105.25 167.50 104.22 166.92 103.54 C 166.34 102.85 165.31 102.76 164.63 103.34 Z M 163.74 104.06 L 163.07 104.73 C 162.43 105.38 162.43 106.42 163.08 107.07 C 163.73 107.71 164.77 107.71 165.42 107.06 L 166.09 106.39 C 166.73 105.74 166.73 104.70 166.08 104.05 C 165.43 103.41 164.38 103.41 163.74 104.06 Z M 162.96 104.83 L 162.41 105.49 C 161.83 106.20 161.93 107.25 162.64 107.84 C 163.35 108.43 164.40 108.33 164.98 107.62 L 165.53 106.96 C 166.12 106.25 166.02 105.20 165.31 104.61 C 164.60 104.02 163.55 104.12 162.96 104.83 Z M 162.31 105.62 L 161.79 106.40 C 161.27 107.17 161.48 108.21 162.25 108.72 C 163.01 109.24 164.05 109.03 164.57 108.26 L 165.09 107.49 C 165.61 106.72 165.40 105.68 164.63 105.17 C 163.86 104.65 162.82 104.86 162.31 105.62 Z M 161.70 106.52 L 161.18 107.49 C 160.73 108.30 161.03 109.32 161.84 109.77 C 162.66 110.21 163.68 109.92 164.13 109.10 L 164.65 108.14 C 165.10 107.33 164.80 106.30 163.99 105.86 C 163.17 105.41 162.15 105.71 161.70 106.52 Z M 161.13 107.57 L 160.66 108.56 C 160.26 109.40 160.63 110.41 161.47 110.81 C 162.31 111.20 163.32 110.84 163.71 110.00 L 164.18 109.01 C 164.57 108.17 164.21 107.16 163.37 106.77 C 162.53 106.37 161.52 106.73 161.13 107.57 Z M 160.64 108.61 L 160.25 109.50 C 159.89 110.35 160.28 111.35 161.14 111.72 C 161.99 112.08 162.99 111.69 163.36 110.83 L 163.74 109.95 C 164.11 109.09 163.71 108.10 162.86 107.73 C 162.00 107.36 161.01 107.75 160.64 108.61 Z M 160.24 109.52 L 159.85 110.47 C 159.50 111.34 159.91 112.33 160.78 112.68 C 161.64 113.03 162.63 112.62 162.98 111.75 L 163.37 110.80 C 163.72 109.94 163.31 108.95 162.45 108.60 C 161.58 108.25 160.59 108.66 160.24 109.52 Z M 159.84 110.49 L 159.46 111.47 C 159.12 112.34 159.54 113.33 160.41 113.67 C 161.28 114.01 162.26 113.58 162.61 112.71 L 162.99 111.73 C 163.33 110.86 162.91 109.88 162.04 109.54 C 161.17 109.20 160.19 109.63 159.84 110.49 Z M 159.45 111.49 L 159.08 112.46 C 158.75 113.34 159.18 114.31 160.06 114.65 C 160.93 114.98 161.91 114.54 162.24 113.67 L 162.61 112.70 C 162.95 111.82 162.51 110.85 161.64 110.51 C 160.76 110.18 159.78 110.62 159.45 111.49 Z M 159.07 112.47 L 158.73 113.40 C 158.40 114.28 158.84 115.25 159.72 115.58 C 160.60 115.91 161.57 115.46 161.90 114.59 L 162.25 113.66 C 162.57 112.78 162.13 111.81 161.25 111.48 C 160.38 111.15 159.40 111.60 159.07 112.47 Z M 158.72 113.41 L 158.35 114.44 C 158.02 115.31 158.47 116.29 159.35 116.61 C 160.23 116.93 161.20 116.48 161.53 115.60 L 161.90 114.58 C 162.23 113.70 161.78 112.73 160.90 112.40 C 160.02 112.08 159.05 112.53 158.72 113.41 Z M 158.34 114.44 L 157.98 115.44 C 157.67 116.32 158.12 117.29 159.00 117.61 C 159.88 117.92 160.85 117.47 161.17 116.59 L 161.53 115.60 C 161.85 114.72 161.39 113.74 160.51 113.43 C 159.63 113.11 158.66 113.56 158.34 114.44 Z M 157.98 115.44 L 157.66 116.35 C 157.34 117.23 157.80 118.20 158.68 118.51 C 159.56 118.83 160.53 118.37 160.85 117.49 L 161.17 116.58 C 161.49 115.70 161.03 114.73 160.15 114.42 C 159.27 114.10 158.30 114.56 157.98 115.44 Z M 157.66 116.35 L 157.35 117.22 C 157.04 118.10 157.50 119.07 158.38 119.38 C 159.26 119.69 160.22 119.24 160.54 118.36 L 160.85 117.49 C 161.16 116.61 160.70 115.64 159.82 115.33 C 158.94 115.01 157.97 115.47 157.66 116.35 Z M 157.35 117.21 L 157.05 118.05 C 156.73 118.93 157.19 119.90 158.07 120.22 C 158.95 120.54 159.91 120.08 160.23 119.20 L 160.54 118.36 C 160.85 117.48 160.40 116.51 159.52 116.19 C 158.64 115.88 157.67 116.33 157.35 117.21 Z M 157.05 118.05 L 156.76 118.85 C 156.44 119.73 156.89 120.70 157.76 121.02 C 158.64 121.34 159.61 120.89 159.93 120.01 L 160.23 119.21 C 160.55 118.33 160.10 117.36 159.22 117.04 C 158.35 116.72 157.38 117.17 157.05 118.05 Z M 156.76 118.85 L 156.44 119.71 C 156.12 120.58 156.56 121.55 157.44 121.88 C 158.31 122.20 159.28 121.76 159.61 120.89 L 159.93 120.02 C 160.25 119.15 159.81 118.18 158.93 117.85 C 158.06 117.53 157.09 117.97 156.76 118.85 Z M 156.45 119.71 L 156.09 120.65 C 155.77 121.52 156.21 122.49 157.08 122.82 C 157.95 123.15 158.92 122.70 159.25 121.83 L 159.60 120.89 C 159.93 120.02 159.49 119.05 158.62 118.72 C 157.75 118.39 156.78 118.83 156.45 119.71 Z M 156.10 120.64 L 155.70 121.69 C 155.37 122.56 155.81 123.53 156.68 123.86 C 157.55 124.19 158.52 123.75 158.85 122.88 L 159.24 121.84 C 159.57 120.97 159.13 120.00 158.27 119.67 C 157.40 119.34 156.43 119.78 156.10 120.64 Z M 155.71 121.69 L 155.32 122.70 C 154.99 123.57 155.42 124.54 156.29 124.87 C 157.15 125.20 158.12 124.77 158.45 123.90 L 158.84 122.88 C 159.17 122.02 158.74 121.05 157.87 120.72 C 157.01 120.39 156.04 120.82 155.71 121.69 Z M 155.32 122.70 L 155.01 123.51 C 154.68 124.37 155.11 125.34 155.98 125.67 C 156.84 126.00 157.81 125.57 158.14 124.71 L 158.45 123.90 C 158.78 123.04 158.35 122.07 157.48 121.74 C 156.62 121.41 155.65 121.84 155.32 122.70 Z M 155.02 123.51 L 154.69 124.37 C 154.36 125.23 154.79 126.19 155.65 126.52 C 156.51 126.85 157.48 126.42 157.81 125.56 L 158.14 124.71 C 158.47 123.85 158.04 122.88 157.18 122.55 C 156.31 122.22 155.35 122.65 155.02 123.51 Z M 154.69 124.37 L 154.35 125.27 C 154.02 126.13 154.45 127.09 155.30 127.42 C 156.16 127.75 157.12 127.32 157.46 126.46 L 157.80 125.56 C 158.13 124.71 157.70 123.74 156.85 123.41 C 155.99 123.08 155.02 123.51 154.69 124.37 Z M 154.35 125.27 L 153.99 126.21 C 153.66 127.07 154.09 128.03 154.94 128.36 C 155.80 128.69 156.76 128.26 157.09 127.41 L 157.45 126.46 C 157.78 125.61 157.35 124.65 156.50 124.32 C 155.64 123.99 154.68 124.41 154.35 125.27 Z M 153.99 126.21 L 153.62 127.19 C 153.29 128.05 153.71 129.00 154.56 129.33 C 155.42 129.66 156.38 129.24 156.70 128.38 L 157.08 127.41 C 157.41 126.55 156.99 125.59 156.13 125.27 C 155.28 124.94 154.32 125.36 153.99 126.21 Z M 153.62 127.19 L 153.23 128.21 C 152.90 129.06 153.32 130.01 154.17 130.34 C 155.02 130.67 155.98 130.25 156.31 129.40 L 156.70 128.38 C 157.03 127.53 156.61 126.58 155.76 126.25 C 154.90 125.92 153.95 126.34 153.62 127.19 Z M 153.23 128.21 L 152.83 129.25 C 152.50 130.09 152.93 131.05 153.77 131.37 C 154.62 131.70 155.57 131.28 155.90 130.43 L 156.30 129.39 C 156.63 128.55 156.21 127.59 155.36 127.27 C 154.52 126.94 153.56 127.36 153.23 128.21 Z M 152.84 129.25 L 152.45 130.26 C 152.12 131.11 152.54 132.06 153.38 132.38 C 154.23 132.71 155.18 132.29 155.50 131.45 L 155.89 130.43 C 156.22 129.59 155.80 128.64 154.96 128.31 C 154.11 127.99 153.17 128.40 152.84 129.25 Z M 152.46 130.27 L 152.07 131.26 C 151.75 132.10 152.16 133.04 153.00 133.37 C 153.84 133.69 154.78 133.28 155.11 132.44 L 155.49 131.44 C 155.82 130.60 155.40 129.66 154.56 129.34 C 153.72 129.01 152.78 129.43 152.46 130.27 Z M 152.08 131.27 L 151.70 132.27 C 151.38 133.10 151.79 134.03 152.62 134.35 C 153.45 134.67 154.39 134.26 154.71 133.43 L 155.09 132.43 C 155.42 131.60 155.00 130.67 154.17 130.34 C 153.34 130.02 152.40 130.44 152.08 131.27 Z M 151.71 132.27 L 151.33 133.26 C 151.01 134.09 151.42 135.01 152.25 135.33 C 153.07 135.65 154.00 135.24 154.32 134.41 L 154.70 133.42 C 155.02 132.60 154.60 131.67 153.78 131.35 C 152.95 131.03 152.03 131.45 151.71 132.27 Z M 151.34 133.27 L 150.97 134.23 C 150.65 135.05 151.06 135.97 151.88 136.29 C 152.70 136.60 153.62 136.19 153.94 135.37 L 154.31 134.40 C 154.62 133.58 154.21 132.67 153.39 132.35 C 152.57 132.04 151.65 132.45 151.34 133.27 Z M 150.98 134.24 L 150.62 135.18 C 150.31 135.99 150.72 136.90 151.53 137.21 C 152.35 137.52 153.26 137.11 153.57 136.30 L 153.93 135.36 C 154.24 134.55 153.83 133.64 153.01 133.33 C 152.20 133.02 151.29 133.43 150.98 134.24 Z M 150.63 135.19 L 150.30 136.08 C 149.99 136.89 150.40 137.79 151.21 138.10 C 152.01 138.40 152.92 137.99 153.22 137.19 L 153.56 136.29 C 153.86 135.48 153.46 134.58 152.65 134.28 C 151.84 133.97 150.94 134.38 150.63 135.19 Z M 150.31 136.09 L 149.99 136.93 C 149.69 137.74 150.10 138.63 150.90 138.93 C 151.71 139.23 152.60 138.82 152.90 138.02 L 153.21 137.17 C 153.51 136.37 153.10 135.48 152.30 135.18 C 151.50 134.88 150.60 135.29 150.31 136.09 Z M 150.00 136.94 L 149.67 137.85 C 149.37 138.65 149.78 139.54 150.58 139.83 C 151.38 140.12 152.27 139.71 152.56 138.91 L 152.89 138.00 C 153.19 137.20 152.77 136.32 151.97 136.03 C 151.17 135.73 150.29 136.14 150.00 136.94 Z M 149.66 137.86 L 149.25 139.01 C 148.96 139.81 149.39 140.70 150.19 140.98 C 151.00 141.27 151.88 140.85 152.17 140.04 L 152.57 138.90 C 152.86 138.09 152.44 137.21 151.63 136.92 C 150.82 136.64 149.94 137.06 149.66 137.86 Z M 149.23 139.02 L 148.89 140.02 C 148.61 140.83 149.05 141.72 149.87 142.00 C 150.68 142.28 151.57 141.84 151.85 141.02 L 152.19 140.03 C 152.47 139.21 152.03 138.32 151.21 138.05 C 150.39 137.77 149.51 138.21 149.23 139.02 Z M 148.87 140.03 L 148.58 140.91 C 148.31 141.74 148.77 142.63 149.59 142.90 C 150.42 143.17 151.31 142.72 151.58 141.89 L 151.87 141.01 C 152.14 140.18 151.69 139.29 150.86 139.02 C 150.03 138.75 149.14 139.20 148.87 140.03 Z M 148.56 140.92 L 148.31 141.73 C 148.04 142.57 148.51 143.46 149.35 143.73 C 150.19 143.99 151.08 143.53 151.35 142.69 L 151.60 141.88 C 151.87 141.04 151.40 140.14 150.56 139.88 C 149.72 139.61 148.83 140.08 148.56 140.92 Z M 148.29 141.73 L 148.13 142.26 C 147.86 143.11 148.34 144.01 149.19 144.27 C 150.03 144.54 150.94 144.06 151.20 143.21 L 151.36 142.68 C 151.63 141.84 151.15 140.93 150.31 140.67 C 149.46 140.41 148.56 140.88 148.29 141.73 Z"
      fill="black"
      fill-rule="nonzero" /><path d="M 162.81 117.57 L 162.79 118.66 C 162.78 119.51 163.45 120.21 164.30 120.22 C 165.15 120.24 165.85 119.56 165.86 118.72 L 165.88 117.63 C 165.90 116.78 165.22 116.08 164.38 116.07 C 163.53 116.05 162.83 116.73 162.81 117.57 Z M 162.78 118.67 L 162.76 119.74 C 162.75 120.60 163.44 121.30 164.29 121.31 C 165.15 121.33 165.85 120.64 165.87 119.78 L 165.88 118.71 C 165.89 117.85 165.21 117.15 164.35 117.14 C 163.49 117.13 162.79 117.81 162.78 118.67 Z M 162.74 119.76 L 162.74 120.80 C 162.74 121.67 163.44 122.38 164.31 122.38 C 165.17 122.38 165.88 121.68 165.88 120.81 L 165.88 119.77 C 165.88 118.90 165.18 118.20 164.32 118.19 C 163.45 118.19 162.75 118.89 162.74 119.76 Z M 162.72 120.83 L 162.74 121.84 C 162.75 122.71 163.47 123.41 164.35 123.40 C 165.23 123.39 165.92 122.67 165.91 121.79 L 165.90 120.79 C 165.88 119.91 165.16 119.21 164.29 119.22 C 163.41 119.24 162.71 119.96 162.72 120.83 Z M 162.72 121.88 L 162.76 122.83 C 162.80 123.71 163.54 124.40 164.43 124.37 C 165.31 124.33 166.00 123.59 165.97 122.70 L 165.93 121.75 C 165.89 120.87 165.15 120.18 164.26 120.21 C 163.38 120.25 162.69 120.99 162.72 121.88 Z M 162.75 122.89 L 162.81 123.77 C 162.88 124.66 163.66 125.33 164.55 125.26 C 165.45 125.20 166.11 124.42 166.05 123.53 L 165.98 122.64 C 165.91 121.75 165.13 121.08 164.24 121.15 C 163.35 121.22 162.68 121.99 162.75 122.89 Z M 162.81 123.87 L 162.95 124.91 C 163.07 125.80 163.90 126.43 164.79 126.31 C 165.68 126.19 166.31 125.37 166.19 124.47 L 166.05 123.43 C 165.93 122.53 165.11 121.91 164.21 122.03 C 163.32 122.15 162.69 122.97 162.81 123.87 Z M 162.97 125.05 L 163.20 126.06 C 163.39 126.95 164.27 127.50 165.15 127.31 C 166.04 127.11 166.59 126.24 166.40 125.35 L 166.17 124.34 C 165.97 123.45 165.10 122.90 164.22 123.09 C 163.33 123.29 162.78 124.16 162.97 125.05 Z M 163.23 126.20 L 163.52 127.12 C 163.80 127.98 164.72 128.46 165.58 128.19 C 166.45 127.91 166.93 126.99 166.65 126.13 L 166.36 125.21 C 166.09 124.35 165.16 123.87 164.30 124.14 C 163.44 124.42 162.96 125.34 163.23 126.20 Z M 163.56 127.23 L 163.91 128.10 C 164.25 128.94 165.21 129.35 166.05 129.01 C 166.89 128.67 167.30 127.71 166.96 126.87 L 166.61 126.01 C 166.27 125.17 165.32 124.76 164.47 125.10 C 163.63 125.44 163.22 126.39 163.56 127.23 Z M 163.94 128.17 L 164.33 129.03 C 164.71 129.86 165.69 130.22 166.52 129.84 C 167.34 129.46 167.70 128.48 167.32 127.66 L 166.93 126.80 C 166.55 125.97 165.57 125.61 164.75 125.99 C 163.92 126.37 163.56 127.35 163.94 128.17 Z M 164.35 129.08 L 164.79 129.96 C 165.19 130.77 166.18 131.10 167.00 130.70 C 167.81 130.29 168.14 129.31 167.74 128.49 L 167.30 127.61 C 166.90 126.80 165.91 126.47 165.10 126.87 C 164.28 127.27 163.95 128.26 164.35 129.08 Z M 164.81 130.00 L 165.29 130.89 C 165.72 131.69 166.71 131.99 167.52 131.56 C 168.32 131.13 168.62 130.14 168.19 129.33 L 167.72 128.45 C 167.29 127.64 166.29 127.34 165.49 127.77 C 164.69 128.20 164.38 129.20 164.81 130.00 Z M 165.31 130.94 L 165.82 131.82 C 166.28 132.60 167.29 132.87 168.07 132.42 C 168.86 131.96 169.13 130.95 168.67 130.17 L 168.17 129.29 C 167.71 128.50 166.70 128.23 165.91 128.68 C 165.13 129.14 164.86 130.15 165.31 130.94 Z M 165.85 131.87 L 166.40 132.73 C 166.88 133.50 167.90 133.73 168.67 133.24 C 169.44 132.76 169.67 131.74 169.18 130.97 L 168.64 130.11 C 168.16 129.34 167.14 129.11 166.37 129.60 C 165.60 130.08 165.37 131.10 165.85 131.87 Z M 166.43 132.79 L 167.01 133.62 C 167.53 134.37 168.55 134.56 169.30 134.04 C 170.05 133.52 170.24 132.49 169.72 131.75 L 169.15 130.91 C 168.63 130.16 167.60 129.98 166.85 130.49 C 166.10 131.01 165.92 132.04 166.43 132.79 Z M 167.05 133.67 L 167.65 134.47 C 168.20 135.20 169.23 135.35 169.96 134.80 C 170.69 134.25 170.83 133.22 170.28 132.49 L 169.68 131.69 C 169.13 130.96 168.10 130.82 167.37 131.37 C 166.65 131.91 166.50 132.95 167.05 133.67 Z M 167.69 134.52 L 168.32 135.29 C 168.89 136.00 169.93 136.10 170.64 135.53 C 171.34 134.96 171.45 133.92 170.87 133.21 L 170.24 132.44 C 169.67 131.74 168.63 131.63 167.93 132.21 C 167.22 132.78 167.12 133.82 167.69 134.52 Z M 168.36 135.34 L 169.01 136.08 C 169.61 136.77 170.65 136.84 171.33 136.24 C 172.02 135.64 172.09 134.60 171.49 133.92 L 170.83 133.17 C 170.24 132.49 169.20 132.42 168.51 133.02 C 167.83 133.61 167.76 134.65 168.36 135.34 Z M 169.05 136.12 L 169.73 136.85 C 170.35 137.52 171.39 137.55 172.05 136.93 C 172.72 136.31 172.75 135.27 172.13 134.61 L 171.45 133.88 C 170.83 133.21 169.79 133.18 169.13 133.80 C 168.46 134.42 168.43 135.46 169.05 136.12 Z M 169.77 136.89 L 170.48 137.60 C 171.12 138.24 172.16 138.24 172.80 137.60 C 173.44 136.97 173.44 135.93 172.80 135.29 L 172.09 134.58 C 171.46 133.94 170.42 133.93 169.78 134.57 C 169.14 135.21 169.14 136.25 169.77 136.89 Z M 170.52 137.63 L 171.25 138.32 C 171.91 138.93 172.94 138.90 173.56 138.25 C 174.17 137.59 174.14 136.56 173.49 135.94 L 172.76 135.26 C 172.10 134.64 171.07 134.67 170.45 135.33 C 169.84 135.98 169.87 137.01 170.52 137.63 Z M 171.29 138.35 L 172.04 139.01 C 172.71 139.60 173.74 139.54 174.33 138.86 C 174.93 138.19 174.86 137.16 174.19 136.57 L 173.44 135.91 C 172.77 135.32 171.75 135.38 171.15 136.05 C 170.56 136.73 170.62 137.75 171.29 138.35 Z M 172.09 139.04 L 172.86 139.67 C 173.55 140.24 174.57 140.14 175.14 139.46 C 175.71 138.77 175.61 137.75 174.92 137.18 L 174.14 136.54 C 173.45 135.97 172.44 136.07 171.87 136.76 C 171.30 137.45 171.40 138.47 172.09 139.04 Z M 172.92 139.71 L 173.72 140.31 C 174.43 140.85 175.43 140.71 175.97 140.01 C 176.51 139.30 176.37 138.29 175.66 137.76 L 174.86 137.15 C 174.15 136.61 173.15 136.75 172.61 137.46 C 172.07 138.16 172.21 139.17 172.92 139.71 Z M 173.79 140.35 L 174.61 140.91 C 175.34 141.41 176.33 141.23 176.83 140.50 C 177.33 139.77 177.14 138.78 176.42 138.28 L 175.59 137.72 C 174.86 137.22 173.87 137.41 173.38 138.13 C 172.88 138.86 173.06 139.85 173.79 140.35 Z M 174.70 140.96 L 175.55 141.47 C 176.30 141.92 177.27 141.67 177.72 140.93 C 178.17 140.18 177.93 139.20 177.18 138.75 L 176.33 138.24 C 175.58 137.79 174.61 138.03 174.16 138.78 C 173.71 139.53 173.95 140.51 174.70 140.96 Z M 175.65 141.51 L 176.56 141.97 C 177.33 142.37 178.28 142.06 178.67 141.29 C 179.07 140.52 178.76 139.57 177.99 139.17 L 177.08 138.71 C 176.31 138.32 175.36 138.62 174.97 139.40 C 174.57 140.17 174.88 141.11 175.65 141.51 Z M 176.66 142.01 L 177.62 142.41 C 178.41 142.75 179.32 142.38 179.66 141.58 C 179.99 140.79 179.62 139.88 178.83 139.54 L 177.88 139.14 C 177.09 138.80 176.17 139.17 175.84 139.97 C 175.50 140.76 175.87 141.67 176.66 142.01 Z M 177.72 142.43 L 178.67 142.76 C 179.48 143.04 180.35 142.61 180.63 141.81 C 180.91 141.00 180.48 140.12 179.68 139.85 L 178.73 139.52 C 177.92 139.24 177.04 139.67 176.76 140.47 C 176.49 141.28 176.91 142.16 177.72 142.43 Z M 178.77 142.78 L 179.70 143.03 C 180.51 143.25 181.35 142.77 181.57 141.95 C 181.80 141.14 181.31 140.30 180.50 140.08 L 179.57 139.83 C 178.76 139.61 177.92 140.09 177.70 140.90 C 177.48 141.72 177.96 142.56 178.77 142.78 Z M 179.82 143.04 L 180.82 143.23 C 181.64 143.39 182.43 142.85 182.59 142.03 C 182.75 141.21 182.21 140.42 181.39 140.26 L 180.38 140.07 C 179.56 139.92 178.77 140.45 178.62 141.27 C 178.46 142.09 179.00 142.88 179.82 143.04 Z M 180.94 143.22 L 181.94 143.34 C 182.75 143.43 183.49 142.85 183.58 142.03 C 183.68 141.22 183.09 140.48 182.28 140.39 L 181.28 140.27 C 180.46 140.18 179.72 140.76 179.63 141.58 C 179.54 142.39 180.12 143.13 180.94 143.22 Z M 182.02 143.32 L 182.98 143.38 C 183.79 143.43 184.48 142.82 184.53 142.01 C 184.58 141.21 183.97 140.52 183.16 140.46 L 182.20 140.40 C 181.39 140.35 180.70 140.97 180.65 141.77 C 180.60 142.58 181.21 143.27 182.02 143.32 Z M 183.01 143.36 L 183.47 143.38 C 184.26 143.42 184.93 142.80 184.97 142.01 C 185.01 141.21 184.39 140.54 183.59 140.50 L 183.14 140.48 C 182.34 140.45 181.67 141.06 181.63 141.86 C 181.60 142.65 182.21 143.33 183.01 143.36 Z"
      fill="black"
      fill-rule="nonzero" /><path d="M 158.06 149.52 L 158.81 150.13 C 159.48 150.68 160.48 150.58 161.03 149.90 C 161.58 149.22 161.48 148.23 160.80 147.68 L 160.05 147.07 C 159.38 146.52 158.38 146.62 157.83 147.29 C 157.28 147.97 157.38 148.97 158.06 149.52 Z M 158.89 150.19 L 159.69 150.76 C 160.40 151.27 161.39 151.11 161.90 150.39 C 162.40 149.68 162.24 148.69 161.53 148.18 L 160.73 147.61 C 160.01 147.10 159.02 147.27 158.51 147.98 C 158.01 148.70 158.17 149.69 158.89 150.19 Z M 159.85 150.87 L 160.75 151.36 C 161.52 151.78 162.49 151.50 162.91 150.72 C 163.33 149.95 163.04 148.99 162.27 148.57 L 161.37 148.08 C 160.59 147.66 159.63 147.94 159.21 148.71 C 158.79 149.49 159.07 150.45 159.85 150.87 Z M 160.96 151.44 L 161.85 151.78 C 162.67 152.08 163.58 151.66 163.88 150.85 C 164.19 150.03 163.77 149.12 162.95 148.82 L 162.06 148.49 C 161.24 148.18 160.33 148.60 160.03 149.42 C 159.73 150.23 160.14 151.14 160.96 151.44 Z M 162.02 151.79 L 162.96 152.03 C 163.78 152.25 164.63 151.75 164.84 150.93 C 165.05 150.11 164.56 149.26 163.74 149.05 L 162.79 148.80 C 161.97 148.59 161.13 149.08 160.91 149.91 C 160.70 150.73 161.19 151.57 162.02 151.79 Z M 163.06 152.01 L 164.06 152.21 C 164.87 152.37 165.66 151.85 165.83 151.03 C 165.99 150.22 165.46 149.43 164.64 149.27 L 163.64 149.07 C 162.83 148.91 162.04 149.44 161.88 150.25 C 161.71 151.06 162.24 151.85 163.06 152.01 Z M 164.11 152.18 L 165.15 152.35 C 165.94 152.49 166.70 151.95 166.83 151.16 C 166.96 150.36 166.43 149.61 165.63 149.48 L 164.59 149.30 C 163.80 149.17 163.05 149.70 162.91 150.50 C 162.78 151.29 163.32 152.05 164.11 152.18 Z M 165.16 152.33 L 165.31 152.36 C 166.09 152.48 166.83 151.95 166.96 151.17 C 167.08 150.38 166.55 149.65 165.77 149.52 L 165.62 149.50 C 164.84 149.37 164.10 149.90 163.97 150.69 C 163.85 151.47 164.38 152.21 165.16 152.33 Z"
      fill="black"
      fill-rule="nonzero" /><path d="M 156.92 169.18 L 156.59 170.09 C 156.29 170.90 156.71 171.81 157.53 172.10 C 158.34 172.40 159.25 171.98 159.54 171.16 L 159.87 170.26 C 160.17 169.45 159.75 168.54 158.93 168.25 C 158.12 167.95 157.21 168.37 156.92 169.18 Z M 156.57 170.13 L 156.26 171.05 C 155.99 171.88 156.43 172.77 157.26 173.05 C 158.09 173.32 158.98 172.88 159.26 172.05 L 159.56 171.12 C 159.84 170.30 159.39 169.40 158.56 169.13 C 157.74 168.85 156.84 169.30 156.57 170.13 Z M 156.23 171.13 L 155.97 172.10 C 155.73 172.95 156.23 173.82 157.07 174.05 C 157.92 174.28 158.79 173.78 159.02 172.94 L 159.28 171.97 C 159.52 171.12 159.02 170.25 158.18 170.02 C 157.33 169.79 156.46 170.29 156.23 171.13 Z M 155.93 172.22 L 155.73 173.25 C 155.56 174.11 156.12 174.95 156.99 175.12 C 157.85 175.28 158.68 174.72 158.85 173.86 L 159.05 172.82 C 159.22 171.96 158.66 171.13 157.80 170.96 C 156.94 170.79 156.10 171.36 155.93 172.22 Z M 155.71 173.38 L 155.59 174.37 C 155.50 175.24 156.12 176.03 157.00 176.13 C 157.87 176.23 158.66 175.60 158.76 174.73 L 158.87 173.74 C 158.97 172.86 158.34 172.07 157.47 171.97 C 156.59 171.88 155.81 172.50 155.71 173.38 Z M 155.58 174.49 L 155.54 175.51 C 155.51 176.39 156.20 177.14 157.08 177.17 C 157.96 177.20 158.70 176.51 158.74 175.63 L 158.78 174.61 C 158.81 173.72 158.12 172.98 157.24 172.95 C 156.35 172.92 155.61 173.60 155.58 174.49 Z M 155.53 175.64 L 155.58 176.66 C 155.61 177.54 156.36 178.23 157.25 178.20 C 158.13 178.16 158.82 177.41 158.79 176.52 L 158.74 175.50 C 158.71 174.62 157.96 173.93 157.07 173.97 C 156.19 174.00 155.50 174.75 155.53 175.64 Z M 155.58 176.80 L 155.71 177.78 C 155.83 178.66 156.64 179.28 157.52 179.17 C 158.41 179.05 159.03 178.24 158.91 177.35 L 158.78 176.38 C 158.66 175.49 157.85 174.87 156.97 174.99 C 156.08 175.11 155.46 175.92 155.58 176.80 Z M 155.74 177.97 L 155.99 178.94 C 156.22 179.81 157.10 180.33 157.96 180.11 C 158.83 179.88 159.35 179.00 159.13 178.14 L 158.88 177.16 C 158.66 176.30 157.77 175.78 156.91 176.00 C 156.04 176.22 155.52 177.10 155.74 177.97 Z M 156.07 179.17 L 156.46 180.10 C 156.81 180.92 157.75 181.31 158.58 180.96 C 159.40 180.61 159.79 179.66 159.44 178.84 L 159.05 177.91 C 158.71 177.09 157.76 176.70 156.93 177.05 C 156.11 177.39 155.72 178.34 156.07 179.17 Z M 156.56 180.30 L 157.07 181.14 C 157.53 181.91 158.52 182.15 159.29 181.69 C 160.06 181.23 160.30 180.24 159.84 179.47 L 159.34 178.63 C 158.88 177.87 157.88 177.62 157.12 178.08 C 156.35 178.54 156.10 179.54 156.56 180.30 Z M 157.18 181.30 L 157.78 182.07 C 158.33 182.78 159.35 182.90 160.05 182.35 C 160.76 181.81 160.89 180.79 160.34 180.08 L 159.73 179.31 C 159.18 178.60 158.17 178.48 157.46 179.03 C 156.76 179.58 156.63 180.60 157.18 181.30 Z M 157.88 182.18 L 158.52 182.88 C 159.13 183.53 160.16 183.57 160.81 182.96 C 161.47 182.35 161.50 181.33 160.89 180.67 L 160.24 179.98 C 159.63 179.32 158.61 179.29 157.96 179.89 C 157.30 180.50 157.27 181.53 157.88 182.18 Z M 158.60 182.96 L 159.31 183.61 C 159.96 184.22 160.98 184.19 161.59 183.54 C 162.20 182.89 162.17 181.86 161.52 181.25 L 160.81 180.60 C 160.16 179.99 159.14 180.02 158.53 180.67 C 157.92 181.32 157.95 182.35 158.60 182.96 Z M 159.38 183.68 L 160.16 184.32 C 160.84 184.88 161.86 184.79 162.43 184.10 C 163.00 183.41 162.90 182.40 162.21 181.83 L 161.44 181.19 C 160.75 180.62 159.74 180.72 159.17 181.41 C 158.60 182.09 158.70 183.11 159.38 183.68 Z M 160.23 184.37 L 161.07 184.99 C 161.79 185.52 162.79 185.36 163.32 184.65 C 163.85 183.93 163.70 182.92 162.98 182.39 L 162.14 181.77 C 161.42 181.25 160.42 181.40 159.89 182.12 C 159.36 182.83 159.51 183.84 160.23 184.37 Z M 161.13 185.03 L 161.96 185.58 C 162.69 186.07 163.69 185.87 164.19 185.13 C 164.68 184.39 164.48 183.39 163.74 182.90 L 162.92 182.35 C 162.18 181.86 161.18 182.06 160.69 182.80 C 160.19 183.54 160.39 184.54 161.13 185.03 Z M 162.01 185.61 L 162.81 186.10 C 163.57 186.56 164.56 186.32 165.02 185.57 C 165.48 184.81 165.24 183.82 164.49 183.36 L 163.68 182.87 C 162.93 182.41 161.94 182.65 161.48 183.40 C 161.02 184.16 161.26 185.15 162.01 185.61 Z M 162.87 186.12 L 163.72 186.60 C 164.49 187.04 165.46 186.76 165.90 185.99 C 166.33 185.22 166.06 184.25 165.29 183.81 L 164.43 183.34 C 163.66 182.90 162.69 183.18 162.26 183.95 C 161.82 184.72 162.10 185.69 162.87 186.12 Z M 163.77 186.62 L 164.67 187.09 C 165.46 187.50 166.42 187.19 166.82 186.41 C 167.23 185.63 166.92 184.67 166.14 184.26 L 165.24 183.79 C 164.45 183.39 163.49 183.69 163.09 184.48 C 162.68 185.26 162.99 186.22 163.77 186.62 Z M 164.72 187.11 L 165.68 187.57 C 166.47 187.95 167.42 187.61 167.80 186.82 C 168.18 186.03 167.84 185.08 167.05 184.70 L 166.09 184.24 C 165.30 183.87 164.35 184.20 163.97 184.99 C 163.59 185.79 163.93 186.73 164.72 187.11 Z M 165.73 187.58 L 166.66 188.00 C 167.46 188.35 168.39 187.99 168.75 187.19 C 169.10 186.39 168.74 185.45 167.94 185.10 L 167.01 184.69 C 166.21 184.33 165.27 184.70 164.92 185.50 C 164.57 186.30 164.93 187.23 165.73 187.58 Z M 166.70 188.01 L 167.59 188.37 C 168.40 188.70 169.32 188.32 169.65 187.52 C 169.98 186.71 169.60 185.79 168.79 185.46 L 167.90 185.09 C 167.09 184.76 166.17 185.14 165.84 185.95 C 165.51 186.75 165.89 187.67 166.70 188.01 Z M 167.63 188.38 L 168.56 188.74 C 169.37 189.05 170.27 188.64 170.58 187.83 C 170.89 187.02 170.49 186.12 169.68 185.81 L 168.75 185.45 C 167.95 185.14 167.04 185.55 166.73 186.35 C 166.42 187.16 166.82 188.07 167.63 188.38 Z M 168.60 188.74 L 169.55 189.08 C 170.36 189.37 171.25 188.94 171.54 188.13 C 171.83 187.32 171.41 186.43 170.59 186.14 L 169.64 185.80 C 168.83 185.51 167.94 185.94 167.65 186.75 C 167.36 187.56 167.78 188.45 168.60 188.74 Z M 169.59 189.08 L 170.56 189.40 C 171.38 189.67 172.25 189.22 172.52 188.41 C 172.78 187.59 172.34 186.72 171.52 186.45 L 170.55 186.13 C 169.74 185.87 168.86 186.31 168.60 187.13 C 168.33 187.94 168.77 188.82 169.59 189.08 Z M 170.60 189.41 L 171.59 189.70 C 172.40 189.94 173.26 189.48 173.51 188.66 C 173.75 187.84 173.28 186.98 172.47 186.74 L 171.48 186.45 C 170.67 186.20 169.80 186.67 169.56 187.49 C 169.32 188.30 169.78 189.16 170.60 189.41 Z M 171.63 189.70 L 172.66 189.98 C 173.48 190.20 174.32 189.71 174.54 188.89 C 174.76 188.07 174.27 187.23 173.45 187.01 L 172.42 186.73 C 171.60 186.52 170.76 187.00 170.54 187.82 C 170.32 188.64 170.81 189.48 171.63 189.70 Z M 172.70 189.98 L 173.75 190.22 C 174.57 190.42 175.39 189.91 175.59 189.09 C 175.78 188.27 175.27 187.45 174.45 187.26 L 173.40 187.01 C 172.59 186.82 171.76 187.32 171.57 188.14 C 171.38 188.96 171.88 189.78 172.70 189.98 Z M 173.79 190.22 L 174.82 190.44 C 175.63 190.61 176.44 190.09 176.61 189.27 C 176.78 188.45 176.26 187.65 175.44 187.48 L 174.41 187.26 C 173.60 187.09 172.80 187.61 172.62 188.43 C 172.45 189.25 172.97 190.05 173.79 190.22 Z M 174.85 190.43 L 175.84 190.62 C 176.65 190.77 177.44 190.24 177.59 189.42 C 177.74 188.61 177.21 187.83 176.40 187.67 L 175.41 187.49 C 174.59 187.33 173.81 187.87 173.66 188.68 C 173.50 189.49 174.04 190.28 174.85 190.43 Z M 175.87 190.61 L 176.80 190.77 C 177.61 190.91 178.38 190.36 178.51 189.55 C 178.65 188.74 178.11 187.98 177.30 187.84 L 176.37 187.68 C 175.56 187.54 174.79 188.09 174.65 188.90 C 174.51 189.71 175.06 190.47 175.87 190.61 Z M 176.83 190.76 L 177.68 190.89 C 178.49 191.02 179.24 190.46 179.37 189.66 C 179.49 188.85 178.94 188.10 178.13 187.98 L 177.27 187.85 C 176.47 187.72 175.71 188.28 175.59 189.08 C 175.47 189.89 176.02 190.64 176.83 190.76 Z M 177.71 190.89 L 178.87 191.04 C 179.67 191.15 180.41 190.58 180.52 189.78 C 180.62 188.98 180.06 188.25 179.26 188.14 L 178.10 187.99 C 177.30 187.88 176.56 188.44 176.46 189.24 C 176.35 190.04 176.91 190.78 177.71 190.89 Z M 178.91 191.03 L 179.92 191.14 C 180.71 191.23 181.43 190.65 181.51 189.85 C 181.60 189.06 181.02 188.34 180.23 188.25 L 179.22 188.15 C 178.42 188.06 177.71 188.64 177.62 189.43 C 177.54 190.23 178.11 190.95 178.91 191.03 Z M 179.95 191.13 L 180.86 191.21 C 181.65 191.27 182.34 190.69 182.41 189.89 C 182.48 189.10 181.89 188.40 181.09 188.34 L 180.19 188.26 C 179.40 188.20 178.70 188.78 178.64 189.58 C 178.57 190.37 179.16 191.07 179.95 191.13 Z M 180.88 191.20 L 181.80 191.26 C 182.59 191.31 183.27 190.72 183.32 189.93 C 183.37 189.14 182.77 188.46 181.98 188.40 L 181.07 188.34 C 180.28 188.29 179.60 188.89 179.55 189.68 C 179.49 190.47 180.09 191.15 180.88 191.20 Z M 181.81 191.26 L 182.82 191.31 C 183.60 191.36 184.28 190.75 184.32 189.96 C 184.36 189.18 183.76 188.50 182.97 188.46 L 181.97 188.41 C 181.18 188.36 180.51 188.97 180.47 189.76 C 180.42 190.54 181.03 191.22 181.81 191.26 Z M 182.83 191.31 L 183.82 191.36 C 184.61 191.40 185.28 190.79 185.31 190.00 C 185.35 189.21 184.74 188.55 183.96 188.51 L 182.96 188.46 C 182.17 188.43 181.51 189.03 181.47 189.82 C 181.43 190.61 182.04 191.28 182.83 191.31 Z M 183.83 191.36 L 184.53 191.39 C 185.31 191.42 185.98 190.81 186.01 190.03 C 186.05 189.24 185.44 188.57 184.65 188.54 L 183.95 188.51 C 183.16 188.48 182.50 189.08 182.46 189.87 C 182.43 190.66 183.04 191.32 183.83 191.36 Z"
      fill="black"
      fill-rule="nonzero" /></svg>