<svg xmlns="http://www.w3.org/2000/svg" width="300" height="300" viewBox="0 0 300 300">
<path d="M 131.41 108.16 L 130.31 108.07 C 129.41 107.99 128.61 108.66 128.54 109.57 C 128.46 110.47 129.13 111.26 130.04 111.34 L 131.14 111.43 C 132.04 111.51 132.83 110.84 132.91 109.93 C 132.99 109.03 132.32 108.24 131.41 108.16 Z M 130.10 108.06 L 129.09 108.10 C 128.18 108.14 127.48 108.91 127.52 109.82 C 127.56 110.73 128.33 111.43 129.23 111.39 L 130.25 111.35 C 131.15 111.31 131.86 110.54 131.82 109.63 C 131.78 108.72 131.01 108.02 130.10 108.06 Z M 128.57 108.21 L 127.74 108.53 C 126.89 108.85 126.47 109.81 126.79 110.66 C 127.12 111.51 128.08 111.93 128.93 111.61 L 129.76 111.29 C 130.61 110.96 131.03 110.00 130.70 109.15 C 130.37 108.30 129.42 107.88 128.57 108.21 Z M 127.05 109.02 L 126.54 109.65 C 125.96 110.36 126.07 111.40 126.77 111.98 C 127.48 112.55 128.52 112.45 129.10 111.74 L 129.61 111.11 C 130.19 110.41 130.09 109.36 129.38 108.79 C 128.67 108.21 127.63 108.31 127.05 109.02 Z M 126.24 110.20 L 125.97 111.06 C 125.70 111.93 126.19 112.86 127.06 113.13 C 127.93 113.40 128.86 112.91 129.13 112.04 L 129.40 111.19 C 129.67 110.32 129.19 109.39 128.31 109.12 C 127.44 108.84 126.51 109.33 126.24 110.20 Z M 125.91 111.39 L 125.81 112.42 C 125.72 113.33 126.39 114.13 127.29 114.22 C 128.20 114.31 129.01 113.65 129.10 112.74 L 129.20 111.71 C 129.29 110.80 128.62 109.99 127.71 109.90 C 126.80 109.81 126.00 110.48 125.91 111.39 Z M 125.80 112.63 L 125.84 113.74 C 125.87 114.65 126.64 115.37 127.55 115.34 C 128.46 115.30 129.18 114.54 129.14 113.63 L 129.11 112.52 C 129.08 111.61 128.31 110.89 127.40 110.92 C 126.48 110.95 125.77 111.72 125.80 112.63 Z M 125.86 113.90 L 126.00 115.00 C 126.13 115.90 126.96 116.54 127.86 116.42 C 128.76 116.29 129.39 115.46 129.27 114.56 L 129.13 113.46 C 129.01 112.56 128.18 111.93 127.27 112.05 C 126.37 112.17 125.74 113.00 125.86 113.90 Z M 126.04 115.13 L 126.27 116.17 C 126.47 117.05 127.34 117.61 128.22 117.41 C 129.10 117.22 129.66 116.34 129.46 115.46 L 129.23 114.43 C 129.04 113.55 128.17 112.99 127.29 113.19 C 126.40 113.38 125.85 114.25 126.04 115.13 Z M 126.32 116.27 L 126.61 117.24 C 126.86 118.10 127.76 118.58 128.62 118.33 C 129.47 118.08 129.96 117.18 129.70 116.32 L 129.41 115.36 C 129.16 114.50 128.26 114.02 127.41 114.27 C 126.56 114.52 126.07 115.42 126.32 116.27 Z M 126.66 117.32 L 126.98 118.22 C 127.27 119.05 128.19 119.48 129.01 119.19 C 129.84 118.89 130.27 117.98 129.98 117.15 L 129.66 116.25 C 129.36 115.42 128.45 114.99 127.62 115.28 C 126.79 115.58 126.36 116.49 126.66 117.32 Z M 127.02 118.27 L 127.37 119.15 C 127.69 119.96 128.60 120.35 129.41 120.03 C 130.21 119.71 130.61 118.80 130.29 117.99 L 129.94 117.11 C 129.62 116.30 128.71 115.91 127.90 116.23 C 127.09 116.55 126.70 117.46 127.02 118.27 Z M 127.41 119.18 L 127.82 120.14 C 128.15 120.93 129.06 121.30 129.84 120.96 C 130.63 120.63 131.00 119.72 130.66 118.94 L 130.25 117.97 C 129.92 117.18 129.01 116.81 128.23 117.15 C 127.44 117.48 127.07 118.39 127.41 119.18 Z M 127.85 120.17 L 128.26 121.07 C 128.61 121.84 129.52 122.17 130.29 121.82 C 131.05 121.47 131.39 120.57 131.04 119.80 L 130.63 118.91 C 130.28 118.14 129.37 117.80 128.61 118.15 C 127.84 118.50 127.50 119.41 127.85 120.17 Z M 128.31 121.11 L 128.73 121.96 C 129.10 122.70 130.00 123.00 130.74 122.63 C 131.48 122.26 131.79 121.36 131.42 120.62 L 131.00 119.77 C 130.63 119.03 129.72 118.72 128.98 119.09 C 128.24 119.46 127.94 120.36 128.31 121.11 Z M 128.77 121.99 L 129.22 122.83 C 129.61 123.55 130.51 123.82 131.23 123.43 C 131.95 123.04 132.22 122.14 131.83 121.42 L 131.38 120.58 C 130.99 119.86 130.09 119.59 129.37 119.98 C 128.65 120.37 128.38 121.27 128.77 121.99 Z M 129.26 122.88 L 129.76 123.72 C 130.17 124.42 131.07 124.65 131.77 124.23 C 132.47 123.82 132.70 122.92 132.29 122.22 L 131.79 121.38 C 131.38 120.68 130.48 120.45 129.78 120.86 C 129.08 121.27 128.85 122.18 129.26 122.88 Z M 129.80 123.76 L 130.35 124.62 C 130.79 125.30 131.69 125.49 132.37 125.06 C 133.05 124.62 133.24 123.72 132.81 123.04 L 132.25 122.18 C 131.82 121.50 130.91 121.30 130.23 121.74 C 129.56 122.18 129.36 123.08 129.80 123.76 Z M 130.39 124.66 L 130.95 125.47 C 131.41 126.13 132.31 126.29 132.97 125.84 C 133.63 125.38 133.79 124.48 133.34 123.82 L 132.77 123.01 C 132.32 122.35 131.42 122.18 130.76 122.64 C 130.10 123.09 129.93 124.00 130.39 124.66 Z M 130.97 125.49 L 131.55 126.28 C 132.01 126.93 132.92 127.07 133.56 126.60 C 134.21 126.14 134.35 125.23 133.88 124.59 L 133.31 123.80 C 132.84 123.15 131.94 123.01 131.30 123.48 C 130.65 123.95 130.51 124.85 130.97 125.49 Z M 131.56 126.29 L 132.17 127.11 C 132.64 127.74 133.54 127.88 134.18 127.40 C 134.82 126.93 134.95 126.03 134.47 125.39 L 133.87 124.58 C 133.39 123.94 132.49 123.81 131.86 124.28 C 131.22 124.76 131.09 125.66 131.56 126.29 Z M 132.18 127.11 L 132.80 127.94 C 133.28 128.57 134.18 128.70 134.81 128.22 C 135.44 127.74 135.57 126.84 135.09 126.21 L 134.46 125.38 C 133.99 124.75 133.09 124.63 132.46 125.11 C 131.83 125.58 131.70 126.48 132.18 127.11 Z M 132.81 127.94 L 133.05 128.26 C 133.53 128.88 134.42 129.01 135.05 128.53 C 135.68 128.05 135.80 127.15 135.32 126.53 L 135.08 126.21 C 134.61 125.58 133.71 125.46 133.08 125.94 C 132.45 126.42 132.33 127.31 132.81 127.94 Z"
      fill="black"
      fill-rule="nonzero" /><path d="M 118.58 135.84 L 117.59 135.92 C 116.70 135.99 116.04 136.77 116.11 137.65 C 116.18 138.54 116.96 139.20 117.85 139.13 L 118.84 139.05 C 119.72 138.98 120.38 138.20 120.31 137.32 C 120.24 136.43 119.47 135.77 118.58 135.84 Z M 117.56 135.89 L 116.57 135.99 C 115.67 136.08 115.01 136.88 115.10 137.78 C 115.19 138.68 115.99 139.34 116.89 139.25 L 117.88 139.15 C 118.78 139.06 119.44 138.26 119.35 137.36 C 119.26 136.46 118.46 135.81 117.56 135.89 Z M 116.51 135.97 L 115.51 136.11 C 114.60 136.23 113.96 137.07 114.09 137.98 C 114.21 138.89 115.05 139.53 115.96 139.40 L 116.95 139.27 C 117.86 139.15 118.50 138.31 118.38 137.40 C 118.25 136.49 117.42 135.85 116.51 135.97 Z M 115.41 136.11 L 114.22 136.34 C 113.31 136.52 112.71 137.40 112.89 138.31 C 113.07 139.22 113.95 139.82 114.86 139.64 L 116.06 139.41 C 116.97 139.23 117.56 138.34 117.38 137.43 C 117.20 136.52 116.32 135.93 115.41 136.11 Z M 114.07 136.37 L 112.93 136.70 C 112.04 136.96 111.52 137.90 111.78 138.79 C 112.04 139.68 112.98 140.20 113.87 139.94 L 115.01 139.61 C 115.90 139.35 116.42 138.42 116.16 137.52 C 115.90 136.63 114.96 136.11 114.07 136.37 Z M 112.42 136.95 L 112.01 137.25 C 111.26 137.79 111.09 138.84 111.63 139.60 C 112.17 140.35 113.22 140.52 113.98 139.98 L 114.39 139.69 C 115.14 139.14 115.31 138.09 114.77 137.34 C 114.23 136.58 113.17 136.41 112.42 136.95 Z M 112.50 140.22 L 112.99 140.37 C 113.88 140.65 114.82 140.15 115.09 139.26 C 115.37 138.37 114.87 137.43 113.98 137.15 L 113.49 137.00 C 112.61 136.73 111.66 137.23 111.39 138.11 C 111.11 139.00 111.61 139.95 112.50 140.22 Z M 113.37 140.44 L 114.44 140.52 C 115.37 140.58 116.17 139.88 116.23 138.95 C 116.30 138.02 115.60 137.22 114.67 137.15 L 113.60 137.08 C 112.67 137.02 111.87 137.72 111.80 138.65 C 111.74 139.58 112.44 140.38 113.37 140.44 Z M 114.53 140.52 L 115.90 140.54 C 116.83 140.56 117.59 139.81 117.61 138.88 C 117.62 137.95 116.87 137.18 115.94 137.17 L 114.58 137.15 C 113.64 137.14 112.88 137.88 112.87 138.81 C 112.85 139.74 113.60 140.51 114.53 140.52 Z M 115.93 140.54 L 116.90 140.54 C 117.83 140.53 118.58 139.77 118.57 138.83 C 118.56 137.90 117.80 137.15 116.87 137.16 L 115.91 137.17 C 114.97 137.18 114.22 137.94 114.23 138.87 C 114.24 139.80 115.00 140.55 115.93 140.54 Z M 116.94 140.53 L 117.91 140.50 C 118.84 140.47 119.57 139.69 119.54 138.76 C 119.51 137.83 118.73 137.10 117.80 137.13 L 116.83 137.16 C 115.90 137.19 115.16 137.97 115.20 138.90 C 115.23 139.84 116.01 140.57 116.94 140.53 Z M 117.96 140.50 L 118.96 140.43 C 119.89 140.37 120.59 139.57 120.53 138.64 C 120.47 137.71 119.66 137.00 118.73 137.07 L 117.74 137.13 C 116.81 137.20 116.10 138.00 116.17 138.93 C 116.23 139.86 117.03 140.56 117.96 140.50 Z M 119.03 140.43 L 120.06 140.31 C 120.99 140.21 121.66 139.38 121.55 138.45 C 121.45 137.52 120.62 136.86 119.69 136.96 L 118.66 137.07 C 117.73 137.17 117.07 138.01 117.17 138.93 C 117.27 139.86 118.10 140.53 119.03 140.43 Z M 120.14 140.30 L 121.17 140.14 C 122.09 139.99 122.72 139.13 122.57 138.21 C 122.43 137.29 121.56 136.66 120.64 136.81 L 119.61 136.97 C 118.69 137.11 118.06 137.98 118.21 138.90 C 118.36 139.82 119.22 140.45 120.14 140.30 Z M 121.24 140.12 L 122.24 139.92 C 123.15 139.74 123.74 138.85 123.56 137.94 C 123.38 137.03 122.49 136.44 121.58 136.62 L 120.57 136.82 C 119.66 137.00 119.07 137.89 119.25 138.80 C 119.44 139.72 120.32 140.31 121.24 140.12 Z M 122.29 139.91 L 123.30 139.67 C 124.20 139.46 124.76 138.56 124.55 137.66 C 124.34 136.75 123.44 136.19 122.54 136.40 L 121.53 136.63 C 120.62 136.84 120.06 137.75 120.27 138.65 C 120.48 139.56 121.39 140.12 122.29 139.91 Z M 123.33 139.66 L 124.32 139.41 C 125.22 139.18 125.76 138.26 125.53 137.37 C 125.29 136.47 124.38 135.93 123.48 136.16 L 122.50 136.41 C 121.60 136.64 121.06 137.56 121.29 138.45 C 121.52 139.35 122.44 139.89 123.33 139.66 Z M 124.35 139.40 L 125.28 139.14 C 126.18 138.89 126.70 137.97 126.45 137.08 C 126.21 136.19 125.28 135.67 124.39 135.91 L 123.46 136.17 C 122.56 136.42 122.04 137.34 122.29 138.23 C 122.53 139.12 123.46 139.64 124.35 139.40 Z M 125.31 139.13 L 126.20 138.87 C 127.08 138.61 127.59 137.68 127.33 136.80 C 127.07 135.91 126.15 135.40 125.26 135.66 L 124.37 135.92 C 123.49 136.18 122.98 137.11 123.24 137.99 C 123.49 138.88 124.42 139.38 125.31 139.13 Z M 126.22 138.85 L 127.08 138.59 C 127.96 138.32 128.45 137.39 128.18 136.51 C 127.91 135.64 126.98 135.14 126.10 135.41 L 125.24 135.68 C 124.37 135.95 123.87 136.88 124.14 137.75 C 124.41 138.63 125.34 139.12 126.22 138.85 Z M 127.11 138.57 L 127.97 138.29 C 128.84 138.00 129.31 137.07 129.03 136.20 C 128.74 135.34 127.81 134.86 126.94 135.15 L 126.08 135.43 C 125.21 135.71 124.74 136.65 125.02 137.51 C 125.31 138.38 126.24 138.85 127.11 138.57 Z M 127.99 138.27 L 128.93 137.95 C 129.79 137.65 130.24 136.71 129.95 135.86 C 129.65 135.00 128.72 134.54 127.86 134.84 L 126.92 135.16 C 126.06 135.46 125.61 136.40 125.90 137.25 C 126.20 138.11 127.14 138.57 127.99 138.27 Z M 128.95 137.93 L 130.04 137.54 C 130.88 137.23 131.32 136.30 131.02 135.45 C 130.71 134.60 129.78 134.16 128.93 134.46 L 127.84 134.86 C 126.99 135.16 126.55 136.10 126.86 136.95 C 127.16 137.80 128.10 138.24 128.95 137.93 Z M 130.04 137.53 L 130.94 137.19 C 131.79 136.88 132.22 135.95 131.91 135.11 C 131.60 134.26 130.66 133.83 129.82 134.14 L 128.92 134.48 C 128.08 134.79 127.64 135.72 127.96 136.56 C 128.27 137.41 129.20 137.84 130.04 137.53 Z M 130.95 137.19 L 131.83 136.86 C 132.67 136.55 133.09 135.61 132.78 134.77 C 132.47 133.94 131.53 133.51 130.69 133.82 L 129.81 134.15 C 128.98 134.46 128.55 135.40 128.86 136.24 C 129.18 137.07 130.11 137.50 130.95 137.19 Z M 131.83 136.85 L 132.77 136.50 C 133.60 136.19 134.02 135.25 133.71 134.42 C 133.39 133.58 132.46 133.16 131.63 133.48 L 130.69 133.83 C 129.86 134.14 129.43 135.08 129.75 135.91 C 130.06 136.75 131.00 137.17 131.83 136.85 Z M 132.77 136.49 L 133.74 136.12 C 134.57 135.81 134.99 134.88 134.67 134.05 C 134.36 133.21 133.43 132.80 132.59 133.11 L 131.62 133.48 C 130.79 133.80 130.37 134.73 130.69 135.56 C 131.01 136.39 131.94 136.81 132.77 136.49 Z M 133.74 136.12 L 134.73 135.74 C 135.56 135.42 135.97 134.49 135.65 133.66 C 135.34 132.84 134.41 132.42 133.58 132.74 L 132.59 133.12 C 131.76 133.44 131.35 134.37 131.67 135.19 C 131.99 136.02 132.91 136.44 133.74 136.12 Z M 134.73 135.73 L 135.71 135.35 C 136.54 135.03 136.95 134.11 136.63 133.28 C 136.31 132.46 135.38 132.05 134.56 132.37 L 133.58 132.75 C 132.75 133.07 132.34 133.99 132.66 134.82 C 132.98 135.64 133.91 136.05 134.73 135.73 Z M 135.72 135.35 L 136.67 134.97 C 137.49 134.65 137.90 133.73 137.58 132.90 C 137.26 132.08 136.33 131.68 135.51 132.00 L 134.55 132.37 C 133.73 132.69 133.33 133.62 133.65 134.44 C 133.97 135.26 134.90 135.67 135.72 135.35 Z M 136.68 134.96 L 137.66 134.58 C 138.48 134.25 138.88 133.33 138.55 132.51 C 138.23 131.70 137.31 131.30 136.49 131.62 L 135.51 132.01 C 134.69 132.33 134.29 133.25 134.61 134.07 C 134.94 134.89 135.86 135.29 136.68 134.96 Z M 137.66 134.56 L 138.70 134.14 C 139.51 133.82 139.90 132.90 139.58 132.09 C 139.26 131.28 138.34 130.89 137.53 131.22 L 136.49 131.63 C 135.68 131.96 135.29 132.88 135.61 133.68 C 135.94 134.49 136.85 134.88 137.66 134.56 Z M 138.70 134.12 L 139.67 133.73 C 140.47 133.41 140.86 132.50 140.53 131.70 C 140.21 130.90 139.30 130.52 138.50 130.84 L 137.53 131.23 C 136.73 131.56 136.35 132.47 136.67 133.27 C 137.00 134.06 137.91 134.45 138.70 134.12 Z M 139.67 133.71 L 140.58 133.34 C 141.37 133.02 141.75 132.12 141.43 131.33 C 141.10 130.54 140.20 130.16 139.42 130.49 L 138.50 130.86 C 137.71 131.18 137.34 132.08 137.66 132.87 C 137.98 133.66 138.88 134.04 139.67 133.71 Z M 140.58 133.33 L 141.44 132.97 C 142.22 132.65 142.60 131.76 142.28 130.98 C 141.96 130.20 141.07 129.83 140.29 130.15 L 139.42 130.50 C 138.64 130.82 138.27 131.71 138.59 132.49 C 138.90 133.27 139.80 133.64 140.58 133.33 Z M 141.44 132.96 L 142.28 132.61 C 143.05 132.30 143.42 131.42 143.11 130.65 C 142.79 129.88 141.91 129.51 141.14 129.82 L 140.30 130.16 C 139.53 130.48 139.16 131.35 139.47 132.13 C 139.78 132.90 140.66 133.27 141.44 132.96 Z M 142.26 132.60 L 143.15 132.25 C 143.92 131.94 144.29 131.07 143.98 130.31 C 143.68 129.54 142.81 129.17 142.04 129.48 L 141.15 129.83 C 140.39 130.14 140.02 131.01 140.32 131.77 C 140.63 132.54 141.50 132.91 142.26 132.60 Z M 143.14 132.24 L 144.12 131.85 C 144.88 131.55 145.26 130.69 144.96 129.93 C 144.66 129.17 143.80 128.80 143.04 129.10 L 142.06 129.48 C 141.30 129.78 140.92 130.64 141.22 131.40 C 141.52 132.16 142.38 132.54 143.14 132.24 Z M 144.11 131.85 L 145.07 131.48 C 145.83 131.18 146.21 130.33 145.92 129.57 C 145.62 128.82 144.77 128.44 144.01 128.73 L 143.05 129.10 C 142.29 129.40 141.92 130.25 142.21 131.00 C 142.50 131.76 143.35 132.14 144.11 131.85 Z M 145.06 131.47 L 145.99 131.12 C 146.75 130.83 147.13 129.99 146.84 129.23 C 146.56 128.48 145.71 128.10 144.96 128.39 L 144.03 128.74 C 143.27 129.02 142.89 129.87 143.18 130.62 C 143.46 131.38 144.31 131.76 145.06 131.47 Z M 145.98 131.11 L 146.87 130.78 C 147.62 130.50 148.01 129.66 147.73 128.91 C 147.45 128.16 146.61 127.78 145.86 128.06 L 144.97 128.39 C 144.22 128.67 143.84 129.51 144.12 130.26 C 144.40 131.01 145.23 131.39 145.98 131.11 Z M 146.86 130.77 L 147.79 130.44 C 148.53 130.16 148.92 129.33 148.64 128.59 C 148.37 127.84 147.54 127.45 146.80 127.73 L 145.87 128.07 C 145.12 128.34 144.74 129.17 145.01 129.91 C 145.29 130.66 146.11 131.05 146.86 130.77 Z M 147.78 130.43 L 148.77 130.08 C 149.52 129.81 149.90 128.99 149.64 128.24 C 149.37 127.49 148.55 127.11 147.80 127.37 L 146.81 127.73 C 146.06 128.00 145.67 128.82 145.94 129.57 C 146.21 130.31 147.03 130.70 147.78 130.43 Z M 148.76 130.08 L 149.69 129.75 C 150.44 129.48 150.83 128.67 150.57 127.92 C 150.31 127.17 149.49 126.78 148.74 127.05 L 147.81 127.37 C 147.06 127.64 146.67 128.45 146.93 129.20 C 147.20 129.95 148.02 130.34 148.76 130.08 Z M 149.69 129.75 L 150.58 129.43 C 151.33 129.18 151.72 128.36 151.46 127.62 C 151.20 126.87 150.39 126.48 149.64 126.74 L 148.75 127.05 C 148.00 127.31 147.61 128.12 147.87 128.87 C 148.13 129.61 148.94 130.00 149.69 129.75 Z M 150.58 129.43 L 151.06 129.27 C 151.80 129.01 152.19 128.20 151.94 127.45 C 151.68 126.71 150.87 126.31 150.12 126.57 L 149.65 126.74 C 148.90 126.99 148.51 127.81 148.77 128.55 C 149.02 129.30 149.84 129.69 150.58 129.43 Z"
      fill="black"
      fill-rule="nonzero" /><path d="M 128.86 151.15 L 127.51 151.41 C 126.68 151.57 126.13 152.38 126.30 153.21 C 126.46 154.05 127.27 154.60 128.10 154.43 L 129.45 154.17 C 130.29 154.01 130.83 153.20 130.67 152.36 C 130.51 151.53 129.70 150.98 128.86 151.15 Z M 127.52 151.39 L 126.32 151.62 C 125.48 151.78 124.92 152.60 125.08 153.44 C 125.24 154.28 126.06 154.84 126.90 154.68 L 128.10 154.45 C 128.94 154.29 129.50 153.47 129.34 152.63 C 129.18 151.79 128.36 151.23 127.52 151.39 Z M 126.34 151.60 L 125.44 151.76 C 124.59 151.92 124.02 152.73 124.17 153.58 C 124.32 154.43 125.13 155.00 125.99 154.85 L 126.88 154.69 C 127.74 154.54 128.31 153.73 128.15 152.88 C 128.00 152.02 127.19 151.45 126.34 151.60 Z M 125.52 151.74 L 125.07 151.79 C 124.20 151.90 123.59 152.69 123.69 153.56 C 123.80 154.42 124.59 155.04 125.46 154.93 L 125.91 154.88 C 126.77 154.77 127.39 153.98 127.28 153.11 C 127.18 152.25 126.39 151.63 125.52 151.74 Z M 125.93 154.81 L 126.26 154.65 C 127.06 154.29 127.40 153.34 127.03 152.54 C 126.67 151.75 125.72 151.40 124.92 151.77 L 124.59 151.92 C 123.80 152.29 123.45 153.24 123.82 154.03 C 124.19 154.83 125.14 155.18 125.93 154.81 Z M 126.11 154.72 L 127.21 154.35 C 128.05 154.06 128.49 153.15 128.21 152.32 C 127.92 151.48 127.01 151.04 126.18 151.32 L 125.08 151.70 C 124.24 151.99 123.80 152.89 124.08 153.73 C 124.37 154.56 125.27 155.01 126.11 154.72 Z M 127.27 154.33 L 128.45 153.88 C 129.28 153.56 129.70 152.64 129.38 151.81 C 129.07 150.98 128.14 150.57 127.31 150.88 L 126.13 151.34 C 125.30 151.65 124.88 152.58 125.20 153.40 C 125.51 154.23 126.44 154.65 127.27 154.33 Z M 128.53 153.85 L 129.43 153.46 C 130.24 153.10 130.61 152.15 130.25 151.34 C 129.90 150.53 128.95 150.16 128.14 150.52 L 127.24 150.91 C 126.43 151.27 126.06 152.22 126.41 153.03 C 126.77 153.84 127.72 154.21 128.53 153.85 Z M 129.48 153.44 L 130.37 153.01 C 131.18 152.62 131.51 151.66 131.13 150.86 C 130.75 150.06 129.79 149.72 128.99 150.11 L 128.09 150.54 C 127.29 150.92 126.95 151.88 127.33 152.68 C 127.72 153.48 128.68 153.82 129.48 153.44 Z M 130.40 153.00 L 131.31 152.54 C 132.10 152.14 132.42 151.17 132.02 150.38 C 131.62 149.59 130.66 149.26 129.86 149.66 L 128.96 150.12 C 128.16 150.52 127.84 151.48 128.24 152.28 C 128.64 153.07 129.61 153.39 130.40 153.00 Z M 131.32 152.54 L 132.21 152.08 C 133.01 151.68 133.32 150.71 132.92 149.91 C 132.52 149.12 131.55 148.80 130.75 149.21 L 129.85 149.67 C 129.06 150.07 128.74 151.04 129.15 151.83 C 129.55 152.63 130.52 152.94 131.32 152.54 Z M 132.21 152.09 L 133.08 151.64 C 133.88 151.24 134.20 150.27 133.79 149.47 C 133.39 148.68 132.42 148.36 131.62 148.76 L 130.75 149.20 C 129.96 149.61 129.64 150.58 130.04 151.38 C 130.45 152.17 131.42 152.49 132.21 152.09 Z M 133.09 151.65 L 133.97 151.20 C 134.77 150.79 135.09 149.82 134.68 149.02 C 134.28 148.22 133.31 147.90 132.51 148.31 L 131.62 148.76 C 130.82 149.16 130.51 150.14 130.91 150.94 C 131.31 151.73 132.29 152.05 133.09 151.65 Z M 133.98 151.20 L 134.88 150.74 C 135.68 150.33 135.99 149.35 135.59 148.55 C 135.18 147.76 134.20 147.44 133.40 147.85 L 132.50 148.31 C 131.70 148.72 131.39 149.69 131.80 150.49 C 132.20 151.29 133.18 151.61 133.98 151.20 Z M 134.89 150.74 L 135.80 150.26 C 136.60 149.85 136.91 148.87 136.50 148.07 C 136.08 147.27 135.10 146.96 134.30 147.38 L 133.39 147.85 C 132.60 148.26 132.28 149.24 132.70 150.04 C 133.11 150.84 134.09 151.15 134.89 150.74 Z M 135.81 150.26 L 136.72 149.78 C 137.52 149.36 137.82 148.38 137.40 147.58 C 136.98 146.78 135.99 146.48 135.20 146.90 L 134.29 147.38 C 133.49 147.80 133.19 148.79 133.61 149.58 C 134.03 150.38 135.02 150.68 135.81 150.26 Z M 136.73 149.78 L 137.63 149.30 C 138.43 148.87 138.72 147.88 138.30 147.08 C 137.87 146.29 136.88 145.99 136.08 146.42 L 135.18 146.90 C 134.39 147.33 134.09 148.32 134.52 149.12 C 134.95 149.91 135.94 150.21 136.73 149.78 Z M 137.64 149.29 L 138.53 148.81 C 139.32 148.38 139.61 147.38 139.18 146.59 C 138.74 145.79 137.75 145.50 136.95 145.94 L 136.07 146.42 C 135.28 146.85 134.99 147.85 135.42 148.64 C 135.85 149.44 136.85 149.73 137.64 149.29 Z M 138.54 148.81 L 139.39 148.33 C 140.19 147.89 140.47 146.89 140.03 146.10 C 139.59 145.31 138.59 145.02 137.80 145.46 L 136.94 145.94 C 136.15 146.38 135.87 147.38 136.31 148.17 C 136.75 148.96 137.75 149.25 138.54 148.81 Z M 139.40 148.33 L 140.29 147.83 C 141.08 147.39 141.36 146.38 140.92 145.59 C 140.47 144.80 139.47 144.52 138.67 144.96 L 137.79 145.46 C 137.00 145.91 136.72 146.91 137.16 147.71 C 137.61 148.50 138.61 148.78 139.40 148.33 Z M 140.30 147.84 L 141.22 147.31 C 142.01 146.86 142.29 145.85 141.83 145.06 C 141.38 144.26 140.37 143.99 139.58 144.44 L 138.66 144.96 C 137.87 145.42 137.59 146.43 138.05 147.22 C 138.50 148.01 139.51 148.29 140.30 147.84 Z M 141.23 147.32 L 142.09 146.82 C 142.88 146.37 143.16 145.35 142.70 144.55 C 142.24 143.76 141.23 143.48 140.43 143.94 L 139.57 144.43 C 138.77 144.89 138.50 145.91 138.96 146.70 C 139.41 147.50 140.43 147.78 141.23 147.32 Z M 142.09 146.83 L 142.90 146.37 C 143.70 145.91 143.98 144.89 143.52 144.09 C 143.06 143.29 142.04 143.01 141.24 143.47 L 140.43 143.93 C 139.63 144.39 139.35 145.41 139.81 146.21 C 140.27 147.01 141.29 147.29 142.09 146.83 Z M 142.90 146.38 L 143.75 145.90 C 144.56 145.44 144.84 144.42 144.38 143.61 C 143.92 142.80 142.90 142.52 142.09 142.97 L 141.24 143.45 C 140.43 143.91 140.15 144.94 140.61 145.75 C 141.07 146.55 142.09 146.84 142.90 146.38 Z M 143.75 145.91 L 144.61 145.43 C 145.42 144.97 145.71 143.94 145.25 143.13 C 144.79 142.31 143.76 142.02 142.95 142.48 L 142.09 142.96 C 141.28 143.42 140.99 144.45 141.45 145.26 C 141.90 146.08 142.93 146.37 143.75 145.91 Z M 144.61 145.44 L 145.48 144.95 C 146.30 144.48 146.59 143.45 146.12 142.63 C 145.66 141.81 144.62 141.52 143.80 141.98 L 142.94 142.47 C 142.12 142.94 141.83 143.97 142.30 144.79 C 142.76 145.61 143.80 145.90 144.61 145.44 Z M 145.50 144.95 L 146.49 144.39 C 147.31 143.91 147.59 142.86 147.12 142.04 C 146.64 141.22 145.59 140.94 144.77 141.41 L 143.79 141.98 C 142.96 142.45 142.68 143.50 143.15 144.32 C 143.63 145.14 144.68 145.43 145.50 144.95 Z M 146.43 144.45 L 147.48 143.90 C 148.33 143.46 148.67 142.41 148.22 141.55 C 147.78 140.70 146.73 140.36 145.87 140.81 L 144.83 141.35 C 143.97 141.79 143.64 142.85 144.08 143.70 C 144.52 144.56 145.58 144.89 146.43 144.45 Z M 147.03 144.10 L 147.78 143.94 C 148.74 143.75 149.36 142.81 149.17 141.84 C 148.97 140.88 148.03 140.26 147.07 140.46 L 146.32 140.61 C 145.36 140.81 144.74 141.75 144.93 142.71 C 145.13 143.67 146.07 144.29 147.03 144.10 Z M 145.81 142.99 L 146.03 143.44 C 146.47 144.33 147.55 144.70 148.44 144.26 C 149.33 143.83 149.70 142.75 149.26 141.85 L 149.04 141.41 C 148.60 140.51 147.52 140.15 146.63 140.59 C 145.74 141.02 145.37 142.10 145.81 142.99 Z M 145.87 142.33 L 145.70 143.24 C 145.52 144.22 146.17 145.16 147.16 145.34 C 148.14 145.52 149.08 144.87 149.26 143.88 L 149.42 142.97 C 149.60 141.99 148.95 141.05 147.97 140.87 C 146.99 140.69 146.05 141.34 145.87 142.33 Z M 145.75 143.03 L 145.39 144.21 C 145.10 145.16 145.64 146.18 146.60 146.47 C 147.55 146.76 148.56 146.22 148.85 145.26 L 149.21 144.09 C 149.50 143.13 148.96 142.12 148.00 141.83 C 147.05 141.54 146.04 142.08 145.75 143.03 Z M 145.39 144.20 L 145.06 145.27 C 144.77 146.22 145.31 147.24 146.26 147.53 C 147.22 147.83 148.23 147.29 148.53 146.33 L 148.85 145.27 C 149.15 144.31 148.61 143.30 147.65 143.00 C 146.70 142.71 145.69 143.25 145.39 144.20 Z M 145.05 145.31 L 144.78 146.27 C 144.51 147.23 145.08 148.23 146.04 148.50 C 147.01 148.77 148.01 148.20 148.28 147.24 L 148.54 146.29 C 148.81 145.32 148.25 144.32 147.28 144.05 C 146.32 143.79 145.32 144.35 145.05 145.31 Z M 144.77 146.31 L 144.53 147.27 C 144.28 148.24 144.87 149.23 145.84 149.47 C 146.81 149.72 147.80 149.13 148.05 148.16 L 148.29 147.20 C 148.53 146.23 147.94 145.24 146.97 144.99 C 146.00 144.75 145.01 145.34 144.77 146.31 Z M 144.52 147.31 L 144.29 148.29 C 144.07 149.27 144.68 150.24 145.65 150.47 C 146.63 150.69 147.61 150.08 147.83 149.10 L 148.06 148.12 C 148.28 147.14 147.67 146.17 146.69 145.94 C 145.72 145.72 144.74 146.33 144.52 147.31 Z M 144.28 148.32 L 144.08 149.27 C 143.87 150.26 144.50 151.22 145.48 151.43 C 146.47 151.63 147.43 151.01 147.64 150.02 L 147.84 149.07 C 148.05 148.09 147.42 147.13 146.44 146.92 C 145.45 146.71 144.49 147.34 144.28 148.32 Z M 144.08 149.30 L 143.89 150.25 C 143.70 151.23 144.34 152.19 145.33 152.38 C 146.31 152.57 147.27 151.93 147.46 150.95 L 147.64 150.00 C 147.84 149.01 147.19 148.06 146.21 147.86 C 145.22 147.67 144.27 148.31 144.08 149.30 Z M 143.88 150.28 L 143.71 151.26 C 143.53 152.25 144.19 153.19 145.18 153.37 C 146.17 153.55 147.11 152.89 147.29 151.90 L 147.46 150.92 C 147.64 149.93 146.98 148.98 146.00 148.81 C 145.01 148.63 144.06 149.29 143.88 150.28 Z M 143.70 151.29 L 143.54 152.30 C 143.38 153.29 144.05 154.23 145.04 154.39 C 146.03 154.55 146.97 153.88 147.13 152.89 L 147.29 151.87 C 147.46 150.88 146.78 149.94 145.79 149.78 C 144.80 149.62 143.86 150.29 143.70 151.29 Z M 143.53 152.33 L 143.38 153.37 C 143.23 154.37 143.92 155.29 144.92 155.44 C 145.91 155.58 146.84 154.89 146.98 153.90 L 147.13 152.86 C 147.28 151.86 146.59 150.94 145.60 150.79 C 144.60 150.65 143.68 151.34 143.53 152.33 Z M 143.37 153.40 L 143.24 154.43 C 143.11 155.43 143.81 156.34 144.81 156.47 C 145.81 156.60 146.72 155.90 146.85 154.90 L 146.99 153.87 C 147.12 152.87 146.42 151.96 145.42 151.83 C 144.42 151.70 143.50 152.40 143.37 153.40 Z M 143.23 154.45 L 143.11 155.48 C 142.99 156.48 143.71 157.39 144.71 157.51 C 145.71 157.63 146.62 156.91 146.74 155.91 L 146.86 154.88 C 146.98 153.88 146.27 152.97 145.26 152.85 C 144.26 152.73 143.35 153.45 143.23 154.45 Z M 143.10 155.50 L 142.99 156.50 C 142.88 157.51 143.61 158.41 144.61 158.52 C 145.62 158.63 146.53 157.90 146.64 156.90 L 146.75 155.90 C 146.86 154.89 146.13 153.98 145.12 153.87 C 144.12 153.76 143.21 154.49 143.10 155.50 Z M 142.98 156.51 L 142.89 157.46 C 142.78 158.47 143.52 159.37 144.53 159.48 C 145.54 159.58 146.44 158.84 146.55 157.83 L 146.65 156.89 C 146.75 155.87 146.01 154.97 145.00 154.87 C 143.99 154.76 143.09 155.50 142.98 156.51 Z M 142.88 157.47 L 142.79 158.43 C 142.69 159.45 143.43 160.35 144.44 160.45 C 145.46 160.55 146.36 159.80 146.46 158.79 L 146.55 157.82 C 146.65 156.81 145.91 155.91 144.90 155.81 C 143.88 155.71 142.98 156.45 142.88 157.47 Z M 142.78 158.44 L 142.69 159.40 C 142.60 160.42 143.35 161.32 144.37 161.41 C 145.39 161.50 146.28 160.75 146.38 159.74 L 146.46 158.78 C 146.56 157.76 145.81 156.86 144.79 156.77 C 143.77 156.68 142.87 157.43 142.78 158.44 Z M 142.69 159.42 L 142.61 160.38 C 142.53 161.40 143.29 162.29 144.31 162.37 C 145.33 162.45 146.22 161.69 146.31 160.67 L 146.38 159.72 C 146.46 158.70 145.70 157.81 144.68 157.72 C 143.66 157.64 142.77 158.40 142.69 159.42 Z M 142.61 160.40 L 142.54 161.43 C 142.47 162.45 143.24 163.34 144.26 163.41 C 145.28 163.48 146.17 162.71 146.24 161.68 L 146.31 160.65 C 146.38 159.63 145.61 158.74 144.59 158.67 C 143.56 158.60 142.68 159.38 142.61 160.40 Z M 142.53 161.45 L 142.48 162.37 C 142.42 163.40 143.20 164.28 144.22 164.34 C 145.25 164.40 146.13 163.62 146.19 162.59 L 146.24 161.67 C 146.30 160.64 145.52 159.76 144.50 159.70 C 143.47 159.64 142.59 160.42 142.53 161.45 Z M 142.48 162.39 L 142.43 163.32 C 142.37 164.34 143.16 165.22 144.19 165.27 C 145.21 165.33 146.09 164.54 146.14 163.51 L 146.19 162.58 C 146.25 161.55 145.46 160.68 144.43 160.63 C 143.41 160.57 142.53 161.36 142.48 162.39 Z M 142.43 163.33 L 142.38 164.33 C 142.33 165.36 143.13 166.23 144.16 166.27 C 145.18 166.32 146.05 165.53 146.10 164.50 L 146.15 163.50 C 146.19 162.47 145.40 161.60 144.37 161.56 C 143.34 161.51 142.47 162.30 142.43 163.33 Z M 142.38 164.34 L 142.34 165.39 C 142.30 166.42 143.10 167.28 144.13 167.32 C 145.16 167.36 146.02 166.56 146.06 165.53 L 146.10 164.49 C 146.14 163.46 145.34 162.59 144.31 162.55 C 143.28 162.51 142.42 163.31 142.38 164.34 Z M 142.33 165.40 L 142.30 166.48 C 142.27 167.51 143.08 168.37 144.11 168.40 C 145.14 168.43 146.00 167.62 146.03 166.59 L 146.06 165.52 C 146.10 164.49 145.29 163.63 144.26 163.59 C 143.23 163.56 142.37 164.37 142.33 165.40 Z M 142.30 166.49 L 142.27 167.50 C 142.25 168.53 143.07 169.39 144.10 169.41 C 145.13 169.44 145.99 168.62 146.01 167.59 L 146.03 166.58 C 146.06 165.55 145.24 164.69 144.21 164.67 C 143.18 164.64 142.32 165.46 142.30 166.49 Z M 142.27 167.52 L 142.26 168.45 C 142.24 169.48 143.06 170.34 144.10 170.35 C 145.13 170.37 145.98 169.54 146.00 168.51 L 146.01 167.58 C 146.03 166.54 145.21 165.69 144.17 165.68 C 143.14 165.66 142.29 166.48 142.27 167.52 Z M 142.25 168.46 L 142.24 169.41 C 142.23 170.45 143.06 171.30 144.10 171.31 C 145.13 171.32 145.98 170.49 145.99 169.45 L 146.00 168.50 C 146.01 167.47 145.18 166.62 144.15 166.61 C 143.11 166.60 142.26 167.43 142.25 168.46 Z M 142.24 169.42 L 142.23 170.40 C 142.23 171.44 143.06 172.28 144.10 172.29 C 145.14 172.30 145.98 171.46 145.99 170.42 L 145.99 169.44 C 146.00 168.41 145.16 167.56 144.13 167.56 C 143.09 167.55 142.25 168.39 142.24 169.42 Z M 142.23 170.41 L 142.23 171.43 C 142.23 172.46 143.07 173.31 144.10 173.31 C 145.14 173.31 145.98 172.47 145.99 171.44 L 145.99 170.42 C 145.99 169.38 145.15 168.54 144.12 168.53 C 143.08 168.53 142.23 169.37 142.23 170.41 Z M 142.23 171.43 L 142.23 172.50 C 142.22 173.54 143.07 174.38 144.11 174.38 C 145.15 174.38 145.99 173.54 145.99 172.50 L 145.99 171.43 C 145.99 170.39 145.15 169.55 144.11 169.55 C 143.07 169.55 142.23 170.39 142.23 171.43 Z M 142.22 172.50 L 142.22 173.58 C 142.22 174.62 143.07 175.46 144.11 175.46 C 145.15 175.46 145.99 174.62 145.99 173.58 L 145.99 172.50 C 145.99 171.46 145.15 170.61 144.11 170.61 C 143.07 170.61 142.22 171.46 142.22 172.50 Z M 142.22 173.58 L 142.22 174.59 C 142.22 175.63 143.07 176.47 144.11 176.47 C 145.15 176.47 145.99 175.63 145.99 174.59 L 145.99 173.58 C 145.99 172.54 145.15 171.69 144.11 171.69 C 143.07 171.69 142.22 172.54 142.22 173.58 Z M 142.22 174.59 L 142.22 175.62 C 142.22 176.67 143.06 177.51 144.11 177.51 C 145.15 177.51 145.99 176.67 145.99 175.62 L 145.99 174.59 C 145.99 173.54 145.15 172.70 144.11 172.70 C 143.06 172.70 142.22 173.54 142.22 174.59 Z M 142.22 175.62 L 142.22 176.67 C 142.22 177.71 143.06 178.56 144.11 178.56 C 145.15 178.56 146.00 177.71 146.00 176.67 L 146.00 175.62 C 146.00 174.58 145.15 173.73 144.11 173.73 C 143.06 173.73 142.22 174.58 142.22 175.62 Z M 142.22 176.67 L 142.22 177.70 C 142.22 178.75 143.06 179.59 144.11 179.59 C 145.15 179.59 146.00 178.75 146.00 177.70 L 146.00 176.67 C 146.00 175.62 145.15 174.78 144.11 174.78 C 143.06 174.78 142.22 175.62 142.22 176.67 Z M 142.22 177.70 L 142.22 178.71 C 142.22 179.75 143.06 180.60 144.11 180.60 C 145.15 180.60 146.00 179.75 146.00 178.71 L 146.00 177.70 C 146.00 176.66 145.15 175.81 144.11 175.81 C 143.06 175.81 142.22 176.66 142.22 177.70 Z M 142.22 178.71 L 142.22 179.67 C 142.22 180.72 143.06 181.57 144.11 181.57 C 145.15 181.57 146.00 180.72 146.00 179.67 L 146.00 178.71 C 146.00 177.67 145.15 176.82 144.11 176.82 C 143.06 176.82 142.22 177.67 142.22 178.71 Z M 142.21 179.67 L 142.21 180.59 C 142.21 181.64 143.06 182.48 144.11 182.48 C 145.15 182.48 146.00 181.64 146.00 180.59 L 146.00 179.67 C 146.00 178.63 145.15 177.78 144.11 177.78 C 143.06 177.78 142.21 178.63 142.21 179.67 Z M 142.21 180.59 L 142.21 181.81 C 142.21 182.86 143.06 183.70 144.11 183.70 C 145.15 183.70 146.00 182.86 146.00 181.81 L 146.00 180.59 C 146.00 179.55 145.15 178.70 144.11 178.70 C 143.06 178.70 142.21 179.55 142.21 180.59 Z M 142.21 181.81 L 142.21 182.88 C 142.21 183.93 143.06 184.78 144.11 184.78 C 145.15 184.78 146.00 183.93 146.00 182.88 L 146.00 181.81 C 146.00 180.76 145.15 179.92 144.11 179.92 C 143.06 179.92 142.21 180.76 142.21 181.81 Z M 142.21 182.88 L 142.21 183.84 C 142.21 184.89 143.06 185.74 144.11 185.74 C 145.15 185.74 146.00 184.89 146.00 183.84 L 146.00 182.88 C 146.00 181.84 145.15 180.99 144.11 180.99 C 143.06 180.99 142.21 181.84 142.21 182.88 Z M 142.21 183.84 L 142.21 184.72 C 142.21 185.76 143.06 186.61 144.11 186.61 C 145.15 186.61 146.00 185.76 146.00 184.72 L 146.00 183.84 C 146.00 182.80 145.15 181.95 144.11 181.95 C 143.06 181.95 142.21 182.80 142.21 183.84 Z M 142.21 184.72 L 142.21 185.60 C 142.21 186.65 143.06 187.49 144.11 187.49 C 145.15 187.49 146.00 186.65 146.00 185.60 L 146.00 184.72 C 146.00 183.67 145.15 182.82 144.11 182.82 C 143.06 182.82 142.21 183.67 142.21 184.72 Z M 142.21 185.60 L 142.21 186.65 C 142.21 187.70 143.06 188.54 144.11 188.54 C 145.15 188.54 146.00 187.70 146.00 186.65 L 146.00 185.60 C 146.00 184.55 145.15 183.70 144.11 183.70 C 143.06 183.70 142.21 184.55 142.21 185.60 Z M 142.21 186.65 L 142.21 187.65 C 142.21 188.70 143.06 189.55 144.11 189.55 C 145.15 189.55 146.00 188.70 146.00 187.65 L 146.00 186.65 C 146.00 185.60 145.15 184.75 144.11 184.75 C 143.06 184.75 142.21 185.60 142.21 186.65 Z M 142.21 187.65 L 142.21 188.61 C 142.21 189.66 143.06 190.50 144.11 190.50 C 145.15 190.50 146.00 189.66 146.00 188.61 L 146.00 187.65 C 146.00 186.60 145.15 185.76 144.11 185.76 C 143.06 185.76 142.21 186.60 142.21 187.65 Z M 142.21 188.61 L 142.21 189.60 C 142.21 190.65 143.06 191.50 144.10 191.50 C 145.15 191.50 146.00 190.65 146.00 189.61 L 146.00 188.61 C 146.00 187.56 145.16 186.71 144.11 186.71 C 143.06 186.71 142.21 187.56 142.21 188.61 Z M 142.21 189.57 L 142.19 190.57 C 142.17 191.62 143.00 192.48 144.05 192.50 C 145.09 192.53 145.96 191.69 145.98 190.65 L 146.00 189.64 C 146.02 188.60 145.19 187.73 144.14 187.71 C 143.10 187.69 142.23 188.52 142.21 189.57 Z M 142.20 190.48 L 142.13 191.46 C 142.05 192.50 142.84 193.40 143.88 193.48 C 144.93 193.55 145.83 192.77 145.90 191.72 L 145.97 190.74 C 146.05 189.70 145.26 188.80 144.22 188.72 C 143.18 188.65 142.27 189.43 142.20 190.48 Z M 142.15 191.29 L 141.98 192.34 C 141.82 193.37 142.53 194.34 143.56 194.50 C 144.59 194.66 145.56 193.96 145.72 192.93 L 145.88 191.88 C 146.05 190.85 145.34 189.88 144.31 189.72 C 143.28 189.56 142.31 190.26 142.15 191.29 Z M 142.06 192.03 L 141.73 193.03 C 141.40 194.02 141.93 195.09 142.92 195.42 C 143.91 195.75 144.97 195.22 145.31 194.23 L 145.64 193.23 C 145.97 192.24 145.44 191.17 144.45 190.84 C 143.46 190.51 142.39 191.04 142.06 192.03 Z M 142.09 192.41 L 141.52 193.07 C 140.84 193.86 140.93 195.05 141.72 195.72 C 142.50 196.40 143.69 196.31 144.37 195.53 L 144.94 194.86 C 145.62 194.07 145.53 192.89 144.74 192.21 C 143.96 191.53 142.77 191.62 142.09 192.41 Z M 142.62 192.47 L 141.83 192.60 C 140.82 192.78 140.14 193.75 140.32 194.76 C 140.50 195.77 141.46 196.45 142.47 196.27 L 143.27 196.13 C 144.28 195.95 144.95 194.99 144.78 193.98 C 144.60 192.97 143.64 192.29 142.62 192.47 Z M 142.69 192.70 L 141.75 192.41 C 140.79 192.12 139.78 192.66 139.48 193.62 C 139.19 194.58 139.73 195.59 140.69 195.89 L 141.62 196.17 C 142.58 196.47 143.60 195.93 143.89 194.97 C 144.18 194.01 143.64 192.99 142.69 192.70 Z M 142.15 192.65 L 141.19 192.06 C 140.36 191.54 139.27 191.80 138.76 192.63 C 138.25 193.47 138.51 194.56 139.34 195.07 L 140.29 195.66 C 141.12 196.17 142.21 195.91 142.72 195.08 C 143.24 194.25 142.98 193.16 142.15 192.65 Z M 141.41 192.30 L 140.65 191.62 C 139.95 190.99 138.88 191.04 138.25 191.74 C 137.62 192.44 137.67 193.52 138.37 194.15 L 139.12 194.83 C 139.82 195.46 140.90 195.40 141.53 194.70 C 142.16 194.01 142.11 192.93 141.41 192.30 Z M 140.74 191.83 L 140.10 191.07 C 139.51 190.39 138.49 190.32 137.81 190.90 C 137.13 191.48 137.05 192.50 137.64 193.18 L 138.28 193.93 C 138.86 194.61 139.89 194.69 140.56 194.11 C 141.24 193.53 141.32 192.51 140.74 191.83 Z M 140.10 191.22 L 139.51 190.41 C 139.01 189.73 138.05 189.58 137.37 190.08 C 136.69 190.58 136.54 191.54 137.04 192.22 L 137.63 193.03 C 138.13 193.71 139.09 193.86 139.77 193.36 C 140.45 192.86 140.60 191.91 140.10 191.22 Z M 139.47 190.49 L 139.09 189.93 C 138.64 189.27 137.73 189.10 137.06 189.56 C 136.40 190.01 136.23 190.92 136.69 191.58 L 137.07 192.14 C 137.53 192.80 138.43 192.97 139.10 192.52 C 139.76 192.06 139.93 191.15 139.47 190.49 Z"
      fill="black"
      fill-rule="nonzero" /><path d="M 123.73 136.12 L 123.73 137.05 C 123.72 137.93 124.43 138.65 125.31 138.65 C 126.19 138.65 126.91 137.94 126.91 137.06 L 126.92 136.13 C 126.92 135.25 126.21 134.53 125.33 134.53 C 124.45 134.53 123.73 135.24 123.73 136.12 Z M 123.68 137.02 L 123.66 137.99 C 123.64 138.90 124.36 139.65 125.27 139.67 C 126.17 139.69 126.92 138.97 126.94 138.06 L 126.96 137.09 C 126.98 136.18 126.26 135.43 125.35 135.41 C 124.45 135.40 123.70 136.12 123.68 137.02 Z M 123.61 137.94 L 123.56 138.99 C 123.51 139.92 124.23 140.71 125.16 140.76 C 126.10 140.81 126.89 140.09 126.94 139.15 L 126.99 138.11 C 127.04 137.18 126.32 136.38 125.38 136.34 C 124.45 136.29 123.66 137.01 123.61 137.94 Z M 123.53 138.92 L 123.44 139.95 C 123.36 140.89 124.06 141.73 125.01 141.81 C 125.96 141.89 126.80 141.19 126.88 140.24 L 126.97 139.22 C 127.05 138.27 126.34 137.43 125.39 137.35 C 124.45 137.27 123.61 137.97 123.53 138.92 Z M 123.43 139.90 L 123.32 140.89 C 123.21 141.85 123.90 142.71 124.85 142.82 C 125.80 142.92 126.66 142.24 126.77 141.29 L 126.88 140.29 C 126.99 139.34 126.31 138.48 125.36 138.37 C 124.40 138.26 123.54 138.94 123.43 139.90 Z M 123.32 140.86 L 123.19 141.88 C 123.06 142.83 123.72 143.70 124.67 143.83 C 125.63 143.96 126.50 143.29 126.63 142.34 L 126.77 141.32 C 126.90 140.37 126.23 139.50 125.28 139.37 C 124.33 139.24 123.45 139.91 123.32 140.86 Z M 123.19 141.85 L 123.04 142.85 C 122.89 143.79 123.55 144.68 124.49 144.83 C 125.44 144.97 126.33 144.32 126.47 143.37 L 126.63 142.37 C 126.77 141.42 126.12 140.54 125.17 140.39 C 124.22 140.25 123.33 140.90 123.19 141.85 Z M 123.04 142.82 L 122.87 143.82 C 122.71 144.76 123.35 145.66 124.30 145.82 C 125.25 145.98 126.14 145.34 126.30 144.39 L 126.47 143.40 C 126.63 142.45 125.99 141.55 125.04 141.39 C 124.10 141.23 123.20 141.87 123.04 142.82 Z M 122.88 143.79 L 122.69 144.79 C 122.52 145.74 123.14 146.64 124.08 146.82 C 125.03 146.99 125.93 146.37 126.11 145.43 L 126.30 144.42 C 126.47 143.48 125.85 142.57 124.90 142.40 C 123.96 142.22 123.05 142.85 122.88 143.79 Z M 122.70 144.76 L 122.50 145.72 C 122.31 146.66 122.92 147.58 123.86 147.77 C 124.80 147.96 125.72 147.35 125.91 146.41 L 126.10 145.46 C 126.30 144.52 125.69 143.60 124.75 143.41 C 123.81 143.22 122.89 143.82 122.70 144.76 Z M 122.51 145.69 L 122.30 146.65 C 122.10 147.58 122.69 148.51 123.63 148.71 C 124.57 148.92 125.49 148.33 125.70 147.39 L 125.90 146.44 C 126.11 145.50 125.52 144.57 124.58 144.37 C 123.64 144.16 122.71 144.76 122.51 145.69 Z M 122.31 146.63 L 122.09 147.55 C 121.88 148.49 122.47 149.42 123.40 149.63 C 124.34 149.85 125.27 149.26 125.48 148.33 L 125.69 147.40 C 125.91 146.47 125.32 145.54 124.39 145.32 C 123.45 145.11 122.52 145.69 122.31 146.63 Z M 122.10 147.53 L 121.87 148.48 C 121.65 149.41 122.23 150.35 123.16 150.57 C 124.09 150.79 125.03 150.22 125.25 149.29 L 125.48 148.34 C 125.70 147.41 125.12 146.47 124.19 146.25 C 123.26 146.03 122.32 146.60 122.10 147.53 Z M 121.88 148.46 L 121.63 149.45 C 121.40 150.37 121.96 151.32 122.89 151.55 C 123.82 151.78 124.76 151.22 125.00 150.29 L 125.24 149.31 C 125.48 148.38 124.91 147.43 123.98 147.20 C 123.05 146.97 122.11 147.53 121.88 148.46 Z M 121.64 149.42 L 121.37 150.44 C 121.12 151.37 121.67 152.32 122.60 152.57 C 123.53 152.81 124.48 152.26 124.72 151.33 L 124.99 150.31 C 125.24 149.39 124.68 148.44 123.76 148.19 C 122.83 147.95 121.88 148.50 121.64 149.42 Z M 121.37 150.42 L 121.12 151.34 C 120.86 152.27 121.40 153.22 122.32 153.48 C 123.24 153.74 124.20 153.20 124.46 152.27 L 124.71 151.35 C 124.97 150.43 124.43 149.48 123.51 149.22 C 122.59 148.96 121.63 149.50 121.37 150.42 Z M 121.12 151.33 L 120.85 152.25 C 120.59 153.17 121.12 154.13 122.03 154.40 C 122.95 154.67 123.91 154.14 124.18 153.22 L 124.45 152.29 C 124.72 151.37 124.19 150.41 123.27 150.15 C 122.35 149.88 121.39 150.41 121.12 151.33 Z M 120.86 152.24 L 120.57 153.19 C 120.30 154.11 120.81 155.08 121.73 155.35 C 122.65 155.63 123.61 155.11 123.89 154.19 L 124.18 153.24 C 124.45 152.32 123.93 151.35 123.02 151.08 C 122.10 150.80 121.14 151.32 120.86 152.24 Z M 120.58 153.18 L 120.27 154.17 C 119.99 155.08 120.50 156.05 121.41 156.34 C 122.32 156.62 123.29 156.11 123.57 155.20 L 123.88 154.21 C 124.17 153.29 123.65 152.32 122.74 152.04 C 121.83 151.76 120.86 152.27 120.58 153.18 Z M 120.27 154.16 L 119.96 155.15 C 119.67 156.06 120.17 157.04 121.08 157.33 C 121.99 157.61 122.97 157.11 123.25 156.20 L 123.57 155.21 C 123.86 154.30 123.36 153.33 122.45 153.04 C 121.54 152.75 120.56 153.25 120.27 154.16 Z M 119.96 155.15 L 119.66 156.08 C 119.37 156.98 119.87 157.96 120.77 158.25 C 121.68 158.54 122.66 158.05 122.95 157.14 L 123.25 156.21 C 123.54 155.30 123.05 154.33 122.14 154.03 C 121.23 153.74 120.26 154.24 119.96 155.15 Z M 119.67 156.07 L 119.35 157.02 C 119.06 157.92 119.55 158.90 120.45 159.20 C 121.36 159.49 122.33 159.00 122.63 158.10 L 122.94 157.15 C 123.24 156.24 122.75 155.27 121.84 154.97 C 120.94 154.67 119.96 155.16 119.67 156.07 Z M 119.36 157.01 L 119.04 157.97 C 118.74 158.87 119.22 159.85 120.13 160.15 C 121.03 160.45 122.01 159.96 122.31 159.06 L 122.63 158.10 C 122.93 157.20 122.44 156.22 121.54 155.92 C 120.64 155.62 119.66 156.11 119.36 157.01 Z M 119.04 157.96 L 118.72 158.92 C 118.41 159.82 118.89 160.80 119.79 161.11 C 120.70 161.41 121.67 160.93 121.98 160.03 L 122.30 159.07 C 122.61 158.17 122.13 157.19 121.23 156.88 C 120.33 156.58 119.35 157.06 119.04 157.96 Z M 118.72 158.92 L 118.39 159.87 C 118.08 160.77 118.56 161.75 119.46 162.06 C 120.36 162.37 121.34 161.89 121.64 160.99 L 121.97 160.04 C 122.28 159.14 121.81 158.16 120.91 157.85 C 120.01 157.54 119.03 158.02 118.72 158.92 Z M 118.40 159.86 L 118.06 160.82 C 117.75 161.71 118.22 162.69 119.12 163.00 C 120.01 163.32 120.99 162.85 121.31 161.95 L 121.64 161.00 C 121.95 160.10 121.48 159.12 120.59 158.81 C 119.69 158.50 118.71 158.97 118.40 159.86 Z M 118.07 160.81 L 117.73 161.75 C 117.42 162.64 117.88 163.62 118.77 163.94 C 119.67 164.26 120.65 163.79 120.97 162.90 L 121.30 161.96 C 121.62 161.07 121.15 160.09 120.26 159.77 C 119.37 159.45 118.39 159.92 118.07 160.81 Z M 117.74 161.74 L 117.40 162.68 C 117.08 163.57 117.54 164.55 118.43 164.87 C 119.32 165.19 120.30 164.74 120.62 163.85 L 120.96 162.91 C 121.28 162.02 120.82 161.04 119.93 160.72 C 119.04 160.39 118.06 160.85 117.74 161.74 Z M 117.41 162.67 L 117.06 163.60 C 116.73 164.49 117.19 165.47 118.07 165.80 C 118.96 166.13 119.94 165.67 120.27 164.79 L 120.61 163.86 C 120.94 162.97 120.49 161.99 119.60 161.66 C 118.72 161.33 117.73 161.78 117.41 162.67 Z M 117.07 163.59 L 116.72 164.52 C 116.38 165.41 116.83 166.39 117.71 166.73 C 118.59 167.06 119.58 166.61 119.91 165.73 L 120.26 164.80 C 120.60 163.92 120.15 162.93 119.27 162.60 C 118.39 162.26 117.40 162.71 117.07 163.59 Z M 116.72 164.51 L 116.36 165.45 C 116.02 166.32 116.46 167.31 117.34 167.65 C 118.21 167.99 119.20 167.55 119.54 166.68 L 119.90 165.74 C 120.24 164.87 119.80 163.88 118.93 163.54 C 118.05 163.20 117.06 163.64 116.72 164.51 Z M 116.37 165.44 L 116.00 166.37 C 115.66 167.24 116.09 168.23 116.96 168.57 C 117.83 168.92 118.82 168.49 119.16 167.62 L 119.53 166.69 C 119.88 165.81 119.45 164.83 118.58 164.48 C 117.70 164.14 116.72 164.56 116.37 165.44 Z M 116.01 166.36 L 115.64 167.29 C 115.29 168.16 115.70 169.14 116.57 169.49 C 117.44 169.84 118.42 169.43 118.77 168.56 L 119.15 167.63 C 119.50 166.76 119.08 165.78 118.22 165.42 C 117.35 165.07 116.36 165.49 116.01 166.36 Z M 115.65 167.28 L 115.26 168.20 C 114.91 169.06 115.31 170.05 116.17 170.41 C 117.03 170.77 118.02 170.36 118.38 169.50 L 118.76 168.57 C 119.12 167.71 118.71 166.72 117.85 166.37 C 116.99 166.01 116.00 166.42 115.65 167.28 Z M 115.27 168.19 L 114.88 169.10 C 114.52 169.96 114.92 170.95 115.77 171.31 C 116.62 171.68 117.61 171.28 117.98 170.42 L 118.37 169.51 C 118.73 168.66 118.34 167.67 117.48 167.30 C 116.63 166.94 115.64 167.33 115.27 168.19 Z M 114.90 169.09 L 114.49 170.02 C 114.11 170.87 114.50 171.86 115.35 172.23 C 116.20 172.60 117.18 172.22 117.56 171.37 L 117.96 170.44 C 118.34 169.59 117.95 168.60 117.10 168.23 C 116.26 167.86 115.27 168.24 114.90 169.09 Z M 114.50 170.01 L 114.08 170.94 C 113.70 171.78 114.08 172.77 114.92 173.15 C 115.76 173.53 116.75 173.15 117.12 172.31 L 117.54 171.38 C 117.92 170.54 117.55 169.55 116.71 169.17 C 115.87 168.80 114.88 169.17 114.50 170.01 Z M 114.09 170.93 L 113.67 171.84 C 113.29 172.68 113.65 173.66 114.49 174.05 C 115.32 174.43 116.31 174.07 116.69 173.23 L 117.11 172.32 C 117.50 171.49 117.13 170.50 116.30 170.12 C 115.46 169.73 114.48 170.10 114.09 170.93 Z M 113.68 171.84 L 113.26 172.73 C 112.88 173.56 113.23 174.55 114.06 174.93 C 114.89 175.32 115.87 174.96 116.26 174.14 L 116.68 173.24 C 117.07 172.41 116.71 171.43 115.88 171.04 C 115.06 170.65 114.07 171.01 113.68 171.84 Z M 113.27 172.73 L 112.85 173.61 C 112.46 174.43 112.82 175.41 113.64 175.80 C 114.46 176.19 115.44 175.84 115.83 175.02 L 116.25 174.14 C 116.64 173.32 116.29 172.34 115.47 171.95 C 114.65 171.56 113.66 171.91 113.27 172.73 Z M 112.86 173.61 L 112.42 174.53 C 112.03 175.35 112.38 176.33 113.20 176.72 C 114.01 177.11 114.99 176.76 115.38 175.95 L 115.82 175.02 C 116.22 174.20 115.87 173.23 115.05 172.84 C 114.23 172.44 113.25 172.79 112.86 173.61 Z M 112.43 174.53 L 111.99 175.46 C 111.60 176.27 111.94 177.24 112.75 177.63 C 113.57 178.02 114.54 177.68 114.93 176.87 L 115.37 175.94 C 115.76 175.13 115.42 174.16 114.61 173.77 C 113.80 173.38 112.82 173.72 112.43 174.53 Z M 112.00 175.46 L 111.57 176.36 C 111.18 177.17 111.52 178.14 112.32 178.53 C 113.13 178.91 114.10 178.58 114.48 177.77 L 114.92 176.87 C 115.31 176.06 114.97 175.09 114.16 174.70 C 113.36 174.32 112.39 174.65 112.00 175.46 Z M 111.58 176.37 L 111.15 177.25 C 110.76 178.05 111.10 179.01 111.90 179.40 C 112.70 179.78 113.66 179.45 114.05 178.65 L 114.47 177.77 C 114.86 176.97 114.52 176.00 113.72 175.62 C 112.92 175.23 111.96 175.57 111.58 176.37 Z M 111.16 177.25 L 110.74 178.13 C 110.35 178.92 110.69 179.88 111.48 180.26 C 112.28 180.65 113.23 180.31 113.62 179.52 L 114.04 178.64 C 114.42 177.85 114.09 176.89 113.30 176.51 C 112.50 176.12 111.54 176.46 111.16 177.25 Z M 110.75 178.13 L 110.30 179.07 C 109.92 179.86 110.25 180.81 111.04 181.19 C 111.83 181.57 112.78 181.24 113.16 180.45 L 113.61 179.51 C 113.99 178.72 113.66 177.77 112.87 177.39 C 112.08 177.01 111.13 177.34 110.75 178.13 Z M 110.31 179.07 L 109.87 179.98 C 109.49 180.76 109.82 181.70 110.61 182.08 C 111.39 182.46 112.33 182.13 112.71 181.35 L 113.15 180.44 C 113.52 179.66 113.19 178.72 112.41 178.34 C 111.63 177.96 110.68 178.29 110.31 179.07 Z M 109.88 179.98 L 109.46 180.87 C 109.08 181.65 109.41 182.58 110.19 182.95 C 110.96 183.33 111.90 183.00 112.27 182.22 L 112.70 181.34 C 113.07 180.56 112.75 179.63 111.97 179.25 C 111.19 178.88 110.26 179.21 109.88 179.98 Z M 109.47 180.87 L 109.05 181.75 C 108.67 182.52 109.00 183.45 109.77 183.82 C 110.54 184.19 111.47 183.87 111.84 183.09 L 112.26 182.22 C 112.63 181.45 112.31 180.52 111.54 180.15 C 110.77 179.78 109.84 180.10 109.47 180.87 Z M 109.06 181.76 L 108.61 182.68 C 108.24 183.44 108.57 184.36 109.33 184.73 C 110.10 185.10 111.02 184.78 111.39 184.01 L 111.83 183.09 C 112.20 182.32 111.88 181.40 111.11 181.04 C 110.34 180.67 109.43 180.99 109.06 181.76 Z M 108.63 182.68 L 108.19 183.58 C 107.82 184.34 108.14 185.25 108.90 185.62 C 109.66 185.99 110.57 185.67 110.94 184.91 L 111.37 184.01 C 111.74 183.25 111.42 182.34 110.66 181.97 C 109.91 181.60 108.99 181.92 108.63 182.68 Z M 108.20 183.58 L 107.77 184.46 C 107.40 185.21 107.71 186.12 108.46 186.49 C 109.21 186.85 110.12 186.54 110.49 185.79 L 110.92 184.91 C 111.29 184.16 110.98 183.26 110.23 182.89 C 109.48 182.52 108.57 182.83 108.20 183.58 Z M 107.79 184.46 L 107.34 185.35 C 106.97 186.09 107.27 186.99 108.01 187.36 C 108.75 187.73 109.66 187.43 110.03 186.69 L 110.47 185.80 C 110.84 185.06 110.54 184.16 109.80 183.79 C 109.06 183.42 108.16 183.72 107.79 184.46 Z M 107.36 185.34 L 106.90 186.24 C 106.53 186.97 106.82 187.87 107.55 188.24 C 108.28 188.61 109.18 188.32 109.55 187.59 L 110.01 186.69 C 110.38 185.96 110.09 185.07 109.36 184.69 C 108.63 184.32 107.73 184.61 107.36 185.34 Z M 106.92 186.24 L 106.46 187.12 C 106.08 187.84 106.37 188.73 107.09 189.11 C 107.82 189.48 108.71 189.20 109.08 188.48 L 109.54 187.59 C 109.91 186.87 109.63 185.98 108.91 185.60 C 108.18 185.23 107.29 185.51 106.92 186.24 Z M 106.47 187.12 L 106.03 187.96 C 105.66 188.68 105.94 189.57 106.65 189.94 C 107.37 190.32 108.26 190.04 108.63 189.32 L 109.07 188.47 C 109.44 187.76 109.17 186.87 108.45 186.50 C 107.73 186.12 106.84 186.40 106.47 187.12 Z"
      fill="black"
      fill-rule="nonzero" /><path d="M 165.57 102.39 L 165.10 103.40 C 164.73 104.19 165.08 105.13 165.86 105.49 C 166.65 105.85 167.59 105.51 167.95 104.72 L 168.42 103.71 C 168.78 102.92 168.44 101.99 167.65 101.62 C 166.87 101.26 165.93 101.60 165.57 102.39 Z M 165.08 103.40 L 164.62 104.40 C 164.25 105.20 164.60 106.14 165.39 106.51 C 166.19 106.88 167.13 106.53 167.50 105.74 L 167.97 104.73 C 168.33 103.93 167.99 102.99 167.19 102.62 C 166.39 102.25 165.45 102.60 165.08 103.40 Z M 164.60 104.40 L 164.14 105.39 C 163.77 106.19 164.12 107.14 164.93 107.52 C 165.73 107.89 166.69 107.54 167.06 106.73 L 167.52 105.74 C 167.89 104.94 167.54 103.99 166.73 103.61 C 165.93 103.24 164.97 103.59 164.60 104.40 Z M 164.13 105.38 L 163.68 106.34 C 163.31 107.16 163.66 108.12 164.47 108.50 C 165.29 108.87 166.25 108.52 166.63 107.70 L 167.07 106.74 C 167.45 105.93 167.10 104.96 166.28 104.59 C 165.47 104.21 164.50 104.57 164.13 105.38 Z M 163.67 106.33 L 163.24 107.26 C 162.86 108.09 163.22 109.06 164.04 109.44 C 164.86 109.82 165.83 109.46 166.21 108.64 L 166.64 107.71 C 167.02 106.89 166.67 105.92 165.84 105.54 C 165.02 105.16 164.05 105.51 163.67 106.33 Z M 163.22 107.26 L 162.81 108.14 C 162.43 108.97 162.79 109.96 163.62 110.34 C 164.45 110.73 165.44 110.36 165.82 109.53 L 166.23 108.65 C 166.61 107.82 166.25 106.83 165.42 106.45 C 164.59 106.06 163.61 106.43 163.22 107.26 Z M 162.80 108.14 L 162.41 108.97 C 162.02 109.81 162.39 110.80 163.23 111.19 C 164.07 111.58 165.06 111.21 165.45 110.38 L 165.83 109.54 C 166.22 108.70 165.86 107.71 165.02 107.32 C 164.18 106.93 163.18 107.30 162.80 108.14 Z M 162.40 108.96 L 162.04 109.74 C 161.65 110.59 162.02 111.59 162.86 111.98 C 163.71 112.37 164.72 112.00 165.11 111.16 L 165.46 110.38 C 165.86 109.53 165.49 108.53 164.64 108.14 C 163.79 107.75 162.79 108.12 162.40 108.96 Z M 162.02 109.73 L 161.62 110.61 C 161.23 111.46 161.60 112.48 162.45 112.87 C 163.31 113.26 164.32 112.89 164.72 112.04 L 165.12 111.16 C 165.51 110.31 165.14 109.29 164.29 108.90 C 163.43 108.51 162.42 108.88 162.02 109.73 Z M 161.62 110.61 L 161.10 111.73 C 160.70 112.59 161.07 113.61 161.93 114.00 C 162.79 114.40 163.81 114.02 164.20 113.17 L 164.72 112.04 C 165.12 111.18 164.74 110.16 163.89 109.77 C 163.03 109.37 162.01 109.75 161.62 110.61 Z M 161.10 111.73 L 160.67 112.66 C 160.27 113.52 160.64 114.54 161.50 114.93 C 162.36 115.33 163.38 114.95 163.77 114.10 L 164.20 113.17 C 164.60 112.31 164.22 111.29 163.37 110.90 C 162.51 110.50 161.49 110.87 161.10 111.73 Z M 160.67 112.66 L 160.30 113.46 C 159.90 114.32 160.27 115.33 161.13 115.73 C 161.99 116.13 163.00 115.75 163.40 114.90 L 163.77 114.10 C 164.17 113.24 163.79 112.23 162.94 111.83 C 162.08 111.43 161.06 111.80 160.67 112.66 Z M 160.30 113.46 L 159.96 114.18 C 159.56 115.04 159.93 116.06 160.79 116.45 C 161.65 116.85 162.66 116.48 163.06 115.63 L 163.40 114.90 C 163.80 114.05 163.43 113.03 162.57 112.63 C 161.72 112.23 160.70 112.60 160.30 113.46 Z M 159.96 114.18 L 159.58 115.00 C 159.17 115.86 159.54 116.88 160.39 117.28 C 161.25 117.68 162.27 117.31 162.67 116.46 L 163.06 115.63 C 163.46 114.78 163.09 113.76 162.24 113.36 C 161.38 112.96 160.37 113.32 159.96 114.18 Z M 159.58 115.00 L 159.16 115.89 C 158.76 116.74 159.12 117.76 159.97 118.16 C 160.83 118.57 161.84 118.20 162.25 117.35 L 162.67 116.46 C 163.07 115.61 162.71 114.59 161.85 114.19 C 161.00 113.78 159.98 114.15 159.58 115.00 Z M 159.16 115.89 L 158.73 116.80 C 158.33 117.65 158.69 118.67 159.55 119.07 C 160.40 119.47 161.42 119.11 161.82 118.26 L 162.25 117.35 C 162.65 116.49 162.28 115.48 161.43 115.07 C 160.58 114.67 159.56 115.04 159.16 115.89 Z M 158.73 116.81 L 158.29 117.75 C 157.89 118.60 158.26 119.61 159.11 120.01 C 159.97 120.41 160.98 120.04 161.38 119.19 L 161.82 118.25 C 162.22 117.40 161.85 116.38 161.00 115.98 C 160.14 115.58 159.13 115.95 158.73 116.81 Z M 158.29 117.75 L 157.89 118.63 C 157.49 119.48 157.87 120.49 158.72 120.89 C 159.58 121.28 160.59 120.91 160.98 120.05 L 161.38 119.18 C 161.78 118.33 161.40 117.31 160.55 116.92 C 159.69 116.53 158.68 116.90 158.29 117.75 Z M 157.89 118.63 L 157.47 119.53 C 157.08 120.38 157.45 121.39 158.31 121.78 C 159.16 122.18 160.17 121.80 160.57 120.95 L 160.98 120.05 C 161.37 119.20 161.00 118.19 160.14 117.79 C 159.29 117.40 158.28 117.78 157.89 118.63 Z M 157.48 119.52 L 157.05 120.44 C 156.65 121.29 157.02 122.30 157.87 122.70 C 158.72 123.09 159.74 122.72 160.13 121.87 L 160.56 120.96 C 160.96 120.11 160.59 119.09 159.74 118.70 C 158.89 118.30 157.88 118.67 157.48 119.52 Z M 157.06 120.42 L 156.61 121.35 C 156.21 122.20 156.57 123.21 157.41 123.62 C 158.26 124.02 159.27 123.67 159.68 122.82 L 160.12 121.89 C 160.53 121.04 160.17 120.03 159.33 119.62 C 158.48 119.22 157.47 119.57 157.06 120.42 Z M 156.63 121.33 L 156.19 122.22 C 155.77 123.06 156.11 124.08 156.95 124.49 C 157.79 124.91 158.81 124.57 159.22 123.73 L 159.66 122.84 C 160.08 122.00 159.74 120.98 158.90 120.57 C 158.06 120.15 157.04 120.49 156.63 121.33 Z M 156.20 122.21 L 155.75 123.09 C 155.32 123.92 155.65 124.94 156.48 125.37 C 157.32 125.79 158.34 125.46 158.76 124.63 L 159.21 123.74 C 159.64 122.91 159.31 121.89 158.47 121.47 C 157.64 121.04 156.62 121.37 156.20 122.21 Z M 155.75 123.08 L 155.29 123.97 C 154.87 124.80 155.19 125.82 156.02 126.25 C 156.85 126.68 157.86 126.35 158.29 125.52 L 158.75 124.63 C 159.18 123.81 158.86 122.79 158.03 122.36 C 157.20 121.93 156.18 122.26 155.75 123.08 Z M 155.30 123.98 L 154.83 124.87 C 154.41 125.70 154.73 126.72 155.56 127.14 C 156.38 127.57 157.40 127.25 157.83 126.42 L 158.29 125.52 C 158.72 124.70 158.39 123.68 157.57 123.25 C 156.74 122.83 155.72 123.15 155.30 123.98 Z M 154.83 124.88 L 154.38 125.78 C 153.95 126.61 154.28 127.62 155.11 128.04 C 155.94 128.46 156.95 128.13 157.37 127.31 L 157.83 126.41 C 158.25 125.58 157.92 124.57 157.09 124.15 C 156.27 123.73 155.25 124.06 154.83 124.88 Z M 154.37 125.79 L 153.93 126.69 C 153.51 127.51 153.85 128.52 154.68 128.93 C 155.50 129.35 156.51 129.01 156.92 128.18 L 157.37 127.29 C 157.78 126.47 157.45 125.46 156.62 125.05 C 155.79 124.63 154.79 124.97 154.37 125.79 Z M 153.93 126.69 L 153.49 127.59 C 153.08 128.42 153.42 129.42 154.24 129.83 C 155.07 130.24 156.07 129.90 156.48 129.07 L 156.92 128.18 C 157.33 127.35 156.99 126.35 156.17 125.94 C 155.34 125.53 154.34 125.87 153.93 126.69 Z M 153.49 127.59 L 153.05 128.49 C 152.64 129.32 152.98 130.31 153.80 130.72 C 154.63 131.13 155.63 130.79 156.03 129.97 L 156.48 129.07 C 156.88 128.24 156.55 127.24 155.72 126.84 C 154.90 126.43 153.90 126.77 153.49 127.59 Z M 153.05 128.49 L 152.61 129.39 C 152.20 130.21 152.53 131.21 153.36 131.62 C 154.18 132.02 155.17 131.69 155.58 130.87 L 156.03 129.97 C 156.43 129.14 156.10 128.15 155.28 127.74 C 154.46 127.33 153.46 127.67 153.05 128.49 Z M 152.62 129.39 L 152.17 130.27 C 151.76 131.09 152.09 132.08 152.91 132.49 C 153.72 132.90 154.72 132.57 155.13 131.76 L 155.57 130.87 C 155.98 130.05 155.65 129.06 154.84 128.65 C 154.02 128.24 153.03 128.57 152.62 129.39 Z M 152.18 130.27 L 151.73 131.15 C 151.32 131.96 151.64 132.95 152.45 133.37 C 153.26 133.78 154.25 133.46 154.67 132.65 L 155.12 131.76 C 155.53 130.95 155.21 129.96 154.40 129.55 C 153.59 129.13 152.59 129.46 152.18 130.27 Z M 151.74 131.14 L 151.28 132.03 C 150.87 132.83 151.18 133.82 151.98 134.24 C 152.79 134.66 153.78 134.34 154.20 133.54 L 154.65 132.65 C 155.07 131.85 154.76 130.86 153.95 130.44 C 153.15 130.03 152.16 130.34 151.74 131.14 Z M 151.29 132.02 L 150.82 132.91 C 150.40 133.71 150.71 134.70 151.51 135.12 C 152.31 135.54 153.29 135.23 153.71 134.44 L 154.18 133.55 C 154.60 132.75 154.30 131.76 153.50 131.34 C 152.70 130.92 151.71 131.23 151.29 132.02 Z M 150.84 132.91 L 150.36 133.80 C 149.93 134.59 150.23 135.58 151.02 136.00 C 151.81 136.43 152.80 136.13 153.22 135.34 L 153.70 134.44 C 154.13 133.65 153.83 132.67 153.04 132.24 C 152.25 131.82 151.26 132.12 150.84 132.91 Z M 150.37 133.80 L 149.88 134.70 C 149.45 135.48 149.74 136.47 150.52 136.89 C 151.31 137.32 152.29 137.03 152.72 136.25 L 153.21 135.35 C 153.64 134.56 153.35 133.58 152.56 133.15 C 151.78 132.72 150.80 133.01 150.37 133.80 Z M 149.89 134.69 L 149.39 135.59 C 148.96 136.37 149.24 137.35 150.02 137.78 C 150.80 138.21 151.78 137.93 152.21 137.15 L 152.70 136.25 C 153.14 135.48 152.85 134.50 152.08 134.07 C 151.30 133.63 150.32 133.92 149.89 134.69 Z M 149.40 135.59 L 148.91 136.46 C 148.48 137.23 148.75 138.21 149.53 138.64 C 150.30 139.07 151.27 138.80 151.71 138.03 L 152.20 137.15 C 152.63 136.38 152.36 135.41 151.58 134.97 C 150.81 134.54 149.84 134.81 149.40 135.59 Z M 148.92 136.46 L 148.44 137.30 C 148.01 138.07 148.28 139.04 149.05 139.47 C 149.81 139.91 150.78 139.64 151.22 138.87 L 151.70 138.03 C 152.13 137.26 151.86 136.29 151.09 135.86 C 150.33 135.42 149.36 135.69 148.92 136.46 Z M 148.45 137.30 L 147.98 138.14 C 147.54 138.90 147.80 139.87 148.56 140.30 C 149.32 140.74 150.29 140.47 150.73 139.71 L 151.21 138.87 C 151.64 138.11 151.38 137.15 150.62 136.71 C 149.86 136.28 148.89 136.54 148.45 137.30 Z M 147.99 138.14 L 147.50 138.97 C 147.07 139.73 147.32 140.69 148.08 141.13 C 148.83 141.56 149.80 141.30 150.23 140.55 L 150.71 139.72 C 151.15 138.96 150.89 138.00 150.14 137.56 C 149.39 137.13 148.42 137.38 147.99 138.14 Z M 147.52 138.97 L 147.03 139.80 C 146.59 140.54 146.83 141.50 147.58 141.94 C 148.32 142.38 149.28 142.14 149.72 141.39 L 150.22 140.56 C 150.66 139.81 150.41 138.85 149.66 138.41 C 148.92 137.97 147.96 138.22 147.52 138.97 Z M 147.04 139.79 L 146.52 140.66 C 146.08 141.39 146.31 142.35 147.05 142.79 C 147.78 143.24 148.74 143.00 149.18 142.27 L 149.71 141.40 C 150.15 140.67 149.92 139.71 149.18 139.26 C 148.45 138.82 147.49 139.05 147.04 139.79 Z M 146.54 140.65 L 145.99 141.54 C 145.54 142.26 145.76 143.21 146.49 143.66 C 147.21 144.11 148.16 143.89 148.61 143.16 L 149.17 142.28 C 149.62 141.55 149.39 140.60 148.67 140.15 C 147.94 139.70 146.99 139.92 146.54 140.65 Z M 146.00 141.53 L 145.47 142.37 C 145.01 143.09 145.23 144.04 145.94 144.49 C 146.66 144.95 147.61 144.74 148.06 144.02 L 148.60 143.17 C 149.05 142.46 148.84 141.51 148.12 141.05 C 147.41 140.60 146.46 140.81 146.00 141.53 Z M 145.48 142.36 L 144.92 143.23 C 144.46 143.94 144.66 144.89 145.37 145.35 C 146.08 145.81 147.03 145.61 147.49 144.90 L 148.05 144.03 C 148.51 143.32 148.30 142.37 147.60 141.91 C 146.89 141.45 145.94 141.66 145.48 142.36 Z M 144.94 143.22 L 144.36 144.08 C 143.90 144.78 144.09 145.73 144.79 146.19 C 145.49 146.66 146.43 146.47 146.90 145.77 L 147.47 144.91 C 147.93 144.21 147.74 143.26 147.04 142.80 C 146.34 142.33 145.40 142.52 144.94 143.22 Z M 144.38 144.07 L 143.82 144.89 C 143.35 145.58 143.52 146.52 144.21 146.99 C 144.90 147.46 145.84 147.29 146.31 146.60 L 146.88 145.78 C 147.35 145.09 147.17 144.15 146.49 143.68 C 145.80 143.21 144.86 143.38 144.38 144.07 Z M 143.85 144.87 L 143.26 145.68 C 142.77 146.36 142.92 147.30 143.60 147.78 C 144.27 148.27 145.21 148.12 145.70 147.44 L 146.29 146.62 C 146.77 145.95 146.62 145.01 145.95 144.53 C 145.27 144.04 144.33 144.19 143.85 144.87 Z M 143.30 145.65 L 142.62 146.53 C 142.12 147.18 142.24 148.11 142.89 148.61 C 143.54 149.12 144.48 149.00 144.98 148.35 L 145.65 147.47 C 146.16 146.82 146.04 145.89 145.39 145.39 C 144.74 144.88 143.80 145.00 143.30 145.65 Z M 142.67 146.50 L 142.05 147.25 C 141.53 147.87 141.61 148.80 142.24 149.32 C 142.86 149.83 143.79 149.75 144.31 149.13 L 144.93 148.38 C 145.45 147.75 145.36 146.83 144.74 146.31 C 144.12 145.79 143.19 145.87 142.67 146.50 Z M 142.09 147.23 L 141.49 147.91 C 140.97 148.51 141.03 149.43 141.63 149.96 C 142.23 150.48 143.15 150.42 143.68 149.82 L 144.27 149.14 C 144.80 148.54 144.74 147.62 144.13 147.09 C 143.53 146.57 142.61 146.63 142.09 147.23 Z M 141.51 147.91 L 141.31 148.13 C 140.78 148.73 140.84 149.63 141.43 150.16 C 142.03 150.69 142.94 150.64 143.46 150.04 L 143.66 149.82 C 144.19 149.23 144.13 148.32 143.54 147.79 C 142.95 147.26 142.04 147.32 141.51 147.91 Z"
      fill="black"
      fill-rule="nonzero" /><path d="M 164.25 120.36 L 164.33 121.39 C 164.39 122.25 165.14 122.89 166.00 122.83 C 166.85 122.77 167.50 122.02 167.43 121.16 L 167.35 120.13 C 167.29 119.27 166.54 118.63 165.69 118.70 C 164.83 118.76 164.19 119.51 164.25 120.36 Z M 164.32 121.43 L 164.41 122.44 C 164.50 123.31 165.26 123.94 166.13 123.85 C 166.99 123.77 167.63 123.00 167.54 122.14 L 167.45 121.13 C 167.36 120.26 166.59 119.63 165.73 119.71 C 164.87 119.80 164.23 120.57 164.32 121.43 Z M 164.41 122.51 L 164.54 123.48 C 164.67 124.35 165.47 124.96 166.34 124.83 C 167.21 124.71 167.81 123.91 167.69 123.04 L 167.55 122.07 C 167.43 121.20 166.62 120.59 165.75 120.72 C 164.89 120.84 164.28 121.65 164.41 122.51 Z M 164.55 123.60 L 164.76 124.55 C 164.95 125.42 165.80 125.96 166.67 125.77 C 167.53 125.58 168.08 124.73 167.89 123.87 L 167.68 122.92 C 167.49 122.05 166.64 121.51 165.77 121.70 C 164.91 121.89 164.36 122.74 164.55 123.60 Z M 164.79 124.71 L 165.10 125.64 C 165.37 126.48 166.28 126.95 167.12 126.67 C 167.97 126.40 168.43 125.49 168.16 124.65 L 167.85 123.71 C 167.58 122.87 166.67 122.40 165.83 122.68 C 164.98 122.95 164.52 123.86 164.79 124.71 Z M 165.15 125.78 L 165.54 126.69 C 165.89 127.50 166.84 127.88 167.66 127.53 C 168.47 127.18 168.85 126.23 168.50 125.41 L 168.11 124.50 C 167.75 123.69 166.81 123.31 165.99 123.66 C 165.17 124.02 164.80 124.96 165.15 125.78 Z M 165.58 126.79 L 166.04 127.68 C 166.45 128.47 167.43 128.78 168.22 128.37 C 169.01 127.96 169.32 126.98 168.91 126.19 L 168.45 125.31 C 168.04 124.52 167.07 124.21 166.28 124.62 C 165.48 125.03 165.17 126.00 165.58 126.79 Z M 166.08 127.75 L 166.51 128.48 C 166.96 129.26 167.95 129.52 168.72 129.07 C 169.49 128.62 169.75 127.63 169.30 126.86 L 168.87 126.12 C 168.43 125.35 167.44 125.09 166.66 125.54 C 165.89 125.99 165.63 126.97 166.08 127.75 Z M 166.55 128.55 L 167.06 129.34 C 167.54 130.09 168.54 130.30 169.29 129.81 C 170.04 129.33 170.26 128.33 169.77 127.58 L 169.26 126.79 C 168.78 126.04 167.78 125.83 167.03 126.32 C 166.28 126.80 166.06 127.80 166.55 128.55 Z M 167.10 129.41 L 167.72 130.25 C 168.24 130.97 169.25 131.13 169.98 130.61 C 170.70 130.08 170.86 129.07 170.33 128.35 L 169.72 127.51 C 169.20 126.78 168.19 126.62 167.46 127.15 C 166.74 127.67 166.58 128.68 167.10 129.41 Z M 167.77 130.32 L 168.51 131.23 C 169.07 131.93 170.09 132.04 170.78 131.47 C 171.48 130.91 171.59 129.89 171.02 129.20 L 170.29 128.28 C 169.72 127.59 168.70 127.48 168.01 128.04 C 167.31 128.60 167.20 129.62 167.77 130.32 Z M 168.55 131.28 L 169.18 132.00 C 169.76 132.67 170.79 132.74 171.46 132.15 C 172.13 131.56 172.20 130.54 171.61 129.87 L 170.98 129.15 C 170.39 128.48 169.37 128.41 168.70 129.00 C 168.03 129.59 167.96 130.61 168.55 131.28 Z M 169.21 132.03 L 169.87 132.75 C 170.48 133.41 171.51 133.44 172.16 132.84 C 172.81 132.23 172.85 131.21 172.25 130.55 L 171.58 129.83 C 170.97 129.18 169.95 129.14 169.29 129.75 C 168.64 130.35 168.60 131.38 169.21 132.03 Z M 169.90 132.78 L 170.61 133.51 C 171.24 134.15 172.26 134.16 172.90 133.54 C 173.54 132.92 173.55 131.89 172.93 131.25 L 172.22 130.52 C 171.59 129.88 170.57 129.87 169.93 130.49 C 169.29 131.12 169.28 132.14 169.90 132.78 Z M 170.64 133.54 L 171.38 134.26 C 172.02 134.89 173.04 134.87 173.67 134.24 C 174.29 133.60 174.28 132.58 173.64 131.95 L 172.90 131.23 C 172.26 130.60 171.24 130.61 170.62 131.25 C 169.99 131.89 170.00 132.91 170.64 133.54 Z M 171.41 134.29 L 172.17 134.99 C 172.82 135.60 173.84 135.56 174.45 134.91 C 175.06 134.26 175.02 133.24 174.37 132.63 L 173.61 131.93 C 172.96 131.32 171.94 131.35 171.33 132.01 C 170.72 132.66 170.76 133.68 171.41 134.29 Z M 172.20 135.02 L 172.95 135.68 C 173.62 136.27 174.63 136.21 175.23 135.55 C 175.82 134.88 175.75 133.86 175.09 133.27 L 174.34 132.60 C 173.67 132.01 172.65 132.07 172.06 132.74 C 171.47 133.41 171.53 134.43 172.20 135.02 Z M 172.99 135.71 L 173.84 136.42 C 174.52 136.98 175.53 136.89 176.10 136.21 C 176.67 135.52 176.58 134.51 175.89 133.94 L 175.05 133.24 C 174.36 132.67 173.35 132.76 172.78 133.45 C 172.21 134.13 172.31 135.15 172.99 135.71 Z M 173.89 136.45 L 174.73 137.09 C 175.43 137.63 176.44 137.50 176.97 136.80 C 177.51 136.10 177.38 135.09 176.68 134.55 L 175.84 133.91 C 175.14 133.37 174.13 133.50 173.59 134.20 C 173.05 134.90 173.19 135.91 173.89 136.45 Z M 174.79 137.13 L 175.61 137.70 C 176.33 138.21 177.32 138.04 177.83 137.32 C 178.33 136.60 178.16 135.60 177.44 135.10 L 176.62 134.52 C 175.90 134.02 174.91 134.19 174.40 134.91 C 173.90 135.63 174.07 136.62 174.79 137.13 Z M 175.67 137.74 L 176.48 138.25 C 177.21 138.72 178.19 138.50 178.66 137.76 C 179.13 137.03 178.92 136.05 178.18 135.58 L 177.38 135.06 C 176.64 134.59 175.66 134.81 175.19 135.55 C 174.72 136.29 174.94 137.27 175.67 137.74 Z M 176.54 138.28 L 177.34 138.73 C 178.09 139.17 179.05 138.91 179.49 138.15 C 179.92 137.40 179.66 136.43 178.90 136.00 L 178.11 135.55 C 177.36 135.11 176.39 135.37 175.96 136.13 C 175.53 136.88 175.79 137.85 176.54 138.28 Z M 177.41 138.76 L 178.32 139.22 C 179.09 139.61 180.03 139.31 180.42 138.54 C 180.81 137.76 180.51 136.82 179.73 136.43 L 178.83 135.97 C 178.06 135.58 177.12 135.89 176.72 136.66 C 176.33 137.43 176.64 138.37 177.41 138.76 Z M 178.40 139.25 L 179.34 139.66 C 180.13 140.01 181.05 139.65 181.39 138.87 C 181.74 138.08 181.38 137.17 180.60 136.82 L 179.65 136.40 C 178.87 136.06 177.95 136.42 177.60 137.20 C 177.26 137.99 177.61 138.90 178.40 139.25 Z M 179.43 139.68 L 180.36 140.04 C 181.16 140.34 182.04 139.93 182.34 139.14 C 182.64 138.34 182.24 137.45 181.44 137.15 L 180.51 136.80 C 179.72 136.50 178.83 136.90 178.53 137.70 C 178.23 138.50 178.63 139.38 179.43 139.68 Z M 180.44 140.05 L 181.35 140.34 C 182.16 140.60 183.02 140.15 183.27 139.35 C 183.53 138.54 183.08 137.68 182.28 137.43 L 181.36 137.14 C 180.56 136.88 179.70 137.33 179.45 138.13 C 179.19 138.93 179.63 139.79 180.44 140.05 Z M 181.43 140.35 L 182.40 140.60 C 183.21 140.81 184.04 140.33 184.25 139.52 C 184.46 138.71 183.98 137.88 183.17 137.67 L 182.20 137.42 C 181.39 137.21 180.56 137.69 180.35 138.50 C 180.14 139.31 180.62 140.14 181.43 140.35 Z M 182.48 140.61 L 183.49 140.82 C 184.30 140.99 185.10 140.46 185.27 139.65 C 185.43 138.84 184.91 138.05 184.10 137.88 L 183.09 137.67 C 182.28 137.50 181.48 138.02 181.31 138.83 C 181.15 139.64 181.67 140.44 182.48 140.61 Z M 183.56 140.81 L 184.54 140.97 C 185.35 141.10 186.11 140.55 186.24 139.74 C 186.37 138.93 185.82 138.17 185.01 138.04 L 184.03 137.88 C 183.22 137.75 182.46 138.30 182.33 139.11 C 182.20 139.92 182.75 140.68 183.56 140.81 Z M 184.60 140.96 L 185.54 141.08 C 186.35 141.17 187.08 140.60 187.18 139.79 C 187.27 138.99 186.70 138.25 185.89 138.16 L 184.95 138.04 C 184.14 137.95 183.41 138.52 183.32 139.33 C 183.22 140.13 183.79 140.87 184.60 140.96 Z M 185.59 141.07 L 186.61 141.16 C 187.41 141.23 188.12 140.64 188.19 139.83 C 188.26 139.03 187.67 138.33 186.86 138.26 L 185.84 138.17 C 185.04 138.10 184.34 138.69 184.27 139.49 C 184.20 140.29 184.79 141.00 185.59 141.07 Z M 186.65 141.15 L 187.64 141.21 C 188.44 141.26 189.13 140.66 189.18 139.86 C 189.23 139.06 188.62 138.38 187.82 138.33 L 186.83 138.26 C 186.03 138.21 185.34 138.82 185.29 139.62 C 185.24 140.41 185.85 141.10 186.65 141.15 Z M 187.66 141.20 L 188.64 141.25 C 189.43 141.29 190.10 140.67 190.14 139.88 C 190.18 139.09 189.57 138.42 188.78 138.38 L 187.80 138.34 C 187.01 138.30 186.34 138.91 186.30 139.70 C 186.26 140.49 186.87 141.16 187.66 141.20 Z M 188.65 141.24 L 188.89 141.25 C 189.68 141.29 190.35 140.68 190.38 139.89 C 190.41 139.10 189.80 138.43 189.02 138.40 L 188.77 138.39 C 187.98 138.35 187.32 138.97 187.28 139.75 C 187.25 140.54 187.86 141.21 188.65 141.24 Z"
      fill="black"
      fill-rule="nonzero" /><path d="M 156.88 142.25 L 156.28 143.20 C 155.79 143.96 156.02 144.97 156.78 145.46 C 157.54 145.94 158.55 145.72 159.04 144.96 L 159.64 144.01 C 160.13 143.25 159.91 142.24 159.14 141.75 C 158.38 141.27 157.37 141.49 156.88 142.25 Z M 156.17 143.39 L 155.75 144.30 C 155.37 145.12 155.73 146.10 156.56 146.47 C 157.38 146.85 158.35 146.49 158.73 145.67 L 159.15 144.76 C 159.53 143.94 159.17 142.96 158.35 142.59 C 157.52 142.21 156.55 142.57 156.17 143.39 Z M 155.60 144.89 L 155.55 145.72 C 155.50 146.62 156.19 147.40 157.10 147.45 C 158.01 147.51 158.78 146.81 158.84 145.91 L 158.88 145.08 C 158.94 144.17 158.25 143.39 157.34 143.34 C 156.43 143.29 155.65 143.98 155.60 144.89 Z M 155.78 146.65 L 156.18 147.33 C 156.64 148.12 157.65 148.38 158.43 147.92 C 159.22 147.45 159.48 146.45 159.02 145.66 L 158.61 144.98 C 158.15 144.19 157.14 143.93 156.36 144.40 C 155.58 144.86 155.32 145.87 155.78 146.65 Z M 156.62 147.82 L 157.41 148.41 C 158.14 148.95 159.17 148.79 159.71 148.06 C 160.25 147.33 160.10 146.31 159.37 145.77 L 158.58 145.18 C 157.85 144.64 156.82 144.79 156.28 145.52 C 155.74 146.25 155.89 147.28 156.62 147.82 Z M 157.73 148.59 L 158.83 149.07 C 159.65 149.43 160.62 149.06 160.99 148.23 C 161.35 147.40 160.98 146.43 160.15 146.07 L 159.05 145.58 C 158.22 145.22 157.26 145.60 156.89 146.42 C 156.53 147.25 156.90 148.22 157.73 148.59 Z M 159.01 149.13 L 159.93 149.41 C 160.79 149.67 161.70 149.18 161.97 148.32 C 162.23 147.46 161.74 146.55 160.88 146.29 L 159.96 146.01 C 159.10 145.75 158.19 146.23 157.93 147.09 C 157.67 147.96 158.15 148.87 159.01 149.13 Z M 160.04 149.42 L 161.01 149.65 C 161.88 149.85 162.75 149.31 162.95 148.44 C 163.15 147.57 162.61 146.70 161.75 146.50 L 160.77 146.28 C 159.90 146.07 159.04 146.61 158.83 147.48 C 158.63 148.35 159.17 149.22 160.04 149.42 Z M 161.09 149.64 L 162.10 149.83 C 162.96 149.99 163.80 149.42 163.96 148.56 C 164.12 147.69 163.55 146.86 162.68 146.69 L 161.67 146.50 C 160.81 146.34 159.97 146.91 159.81 147.78 C 159.65 148.65 160.22 149.48 161.09 149.64 Z M 162.15 149.82 L 163.16 149.98 C 164.02 150.12 164.83 149.53 164.96 148.66 C 165.10 147.80 164.51 146.99 163.64 146.86 L 162.63 146.70 C 161.77 146.57 160.96 147.16 160.83 148.02 C 160.70 148.88 161.29 149.69 162.15 149.82 Z M 163.19 149.97 L 164.19 150.10 C 165.04 150.22 165.83 149.62 165.95 148.77 C 166.06 147.91 165.47 147.13 164.61 147.01 L 163.61 146.87 C 162.76 146.76 161.97 147.35 161.86 148.21 C 161.74 149.06 162.34 149.85 163.19 149.97 Z M 164.21 150.08 L 165.19 150.21 C 166.03 150.31 166.80 149.72 166.91 148.87 C 167.02 148.03 166.42 147.26 165.58 147.15 L 164.59 147.03 C 163.75 146.92 162.98 147.52 162.87 148.37 C 162.77 149.21 163.37 149.98 164.21 150.08 Z M 165.20 150.19 L 166.17 150.30 C 167.00 150.40 167.76 149.81 167.86 148.98 C 167.96 148.15 167.37 147.39 166.53 147.29 L 165.56 147.18 C 164.73 147.08 163.98 147.67 163.88 148.50 C 163.78 149.33 164.37 150.09 165.20 150.19 Z M 166.17 150.28 L 167.16 150.40 C 167.98 150.50 168.72 149.92 168.82 149.10 C 168.92 148.28 168.34 147.54 167.52 147.44 L 166.53 147.32 C 165.72 147.22 164.97 147.80 164.87 148.62 C 164.77 149.43 165.35 150.18 166.17 150.28 Z M 167.15 150.38 L 168.15 150.51 C 168.96 150.61 169.70 150.04 169.80 149.24 C 169.90 148.43 169.34 147.69 168.53 147.59 L 167.53 147.46 C 166.72 147.36 165.99 147.92 165.88 148.73 C 165.78 149.53 166.35 150.27 167.15 150.38 Z M 168.14 150.49 L 169.08 150.62 C 169.88 150.73 170.61 150.17 170.72 149.38 C 170.83 148.58 170.28 147.84 169.48 147.73 L 168.54 147.60 C 167.75 147.49 167.01 148.05 166.90 148.85 C 166.79 149.64 167.35 150.38 168.14 150.49 Z M 169.07 150.61 L 170.05 150.75 C 170.84 150.87 171.57 150.32 171.69 149.53 C 171.80 148.73 171.26 148.00 170.46 147.88 L 169.49 147.74 C 168.69 147.63 167.96 148.18 167.84 148.97 C 167.73 149.76 168.28 150.50 169.07 150.61 Z M 170.04 150.75 L 171.05 150.90 C 171.83 151.01 172.57 150.47 172.69 149.68 C 172.81 148.90 172.26 148.16 171.47 148.04 L 170.47 147.89 C 169.68 147.77 168.95 148.32 168.83 149.11 C 168.71 149.89 169.25 150.63 170.04 150.75 Z M 171.04 150.89 L 172.07 151.05 C 172.85 151.16 173.58 150.63 173.70 149.84 C 173.82 149.06 173.29 148.33 172.50 148.21 L 171.48 148.05 C 170.69 147.93 169.96 148.47 169.84 149.25 C 169.72 150.04 170.26 150.77 171.04 150.89 Z M 172.07 151.04 L 172.86 151.16 C 173.64 151.28 174.37 150.75 174.49 149.97 C 174.61 149.18 174.08 148.46 173.30 148.34 L 172.50 148.21 C 171.72 148.09 170.99 148.63 170.87 149.41 C 170.75 150.19 171.29 150.92 172.07 151.04 Z"
      fill="black"
      fill-rule="nonzero" /><path d="M 159.47 166.83 L 159.24 167.80 C 159.03 168.67 159.56 169.54 160.42 169.75 C 161.29 169.96 162.16 169.43 162.37 168.57 L 162.61 167.59 C 162.82 166.73 162.29 165.86 161.42 165.64 C 160.56 165.43 159.69 165.96 159.47 166.83 Z M 159.21 167.86 L 159.01 168.83 C 158.83 169.71 159.39 170.57 160.27 170.75 C 161.15 170.94 162.01 170.37 162.19 169.49 L 162.39 168.52 C 162.57 167.64 162.01 166.78 161.13 166.60 C 160.26 166.41 159.40 166.98 159.21 167.86 Z M 158.98 168.94 L 158.84 169.93 C 158.72 170.82 159.35 171.65 160.24 171.77 C 161.14 171.89 161.96 171.27 162.08 170.37 L 162.22 169.39 C 162.34 168.49 161.72 167.67 160.82 167.54 C 159.93 167.42 159.10 168.05 158.98 168.94 Z M 158.82 170.10 L 158.79 171.09 C 158.76 172.00 159.47 172.76 160.38 172.79 C 161.29 172.82 162.05 172.11 162.08 171.20 L 162.11 170.20 C 162.14 169.30 161.43 168.54 160.52 168.51 C 159.61 168.48 158.85 169.19 158.82 170.10 Z M 158.79 171.30 L 158.88 172.29 C 158.97 173.20 159.78 173.87 160.69 173.78 C 161.60 173.69 162.26 172.88 162.17 171.98 L 162.08 170.99 C 161.99 170.08 161.18 169.41 160.27 169.50 C 159.37 169.59 158.70 170.39 158.79 171.30 Z M 158.92 172.54 L 159.17 173.51 C 159.39 174.40 160.29 174.94 161.18 174.71 C 162.07 174.49 162.61 173.58 162.38 172.70 L 162.14 171.73 C 161.91 170.84 161.01 170.30 160.12 170.53 C 159.23 170.75 158.70 171.65 158.92 172.54 Z M 159.25 173.78 L 159.65 174.66 C 160.02 175.50 161.00 175.88 161.84 175.51 C 162.68 175.13 163.06 174.15 162.69 173.31 L 162.29 172.43 C 161.92 171.59 160.94 171.21 160.10 171.58 C 159.26 171.96 158.88 172.94 159.25 173.78 Z M 159.77 174.89 L 160.28 175.69 C 160.78 176.46 161.81 176.68 162.59 176.18 C 163.36 175.68 163.58 174.65 163.08 173.87 L 162.56 173.08 C 162.06 172.31 161.03 172.09 160.26 172.59 C 159.49 173.09 159.27 174.12 159.77 174.89 Z M 160.41 175.85 L 161.05 176.62 C 161.64 177.32 162.69 177.41 163.40 176.82 C 164.10 176.23 164.19 175.18 163.60 174.47 L 162.95 173.71 C 162.36 173.00 161.31 172.91 160.61 173.51 C 159.90 174.10 159.81 175.15 160.41 175.85 Z M 161.16 176.74 L 161.93 177.48 C 162.58 178.13 163.64 178.11 164.28 177.45 C 164.92 176.80 164.91 175.74 164.25 175.10 L 163.49 174.35 C 162.83 173.71 161.77 173.72 161.13 174.38 C 160.49 175.04 160.50 176.09 161.16 176.74 Z M 162.01 177.56 L 162.74 178.18 C 163.44 178.77 164.49 178.69 165.09 177.99 C 165.68 177.28 165.60 176.23 164.90 175.64 L 164.17 175.02 C 163.46 174.43 162.41 174.51 161.82 175.21 C 161.23 175.92 161.31 176.97 162.01 177.56 Z M 162.81 178.23 L 163.57 178.81 C 164.30 179.37 165.35 179.23 165.90 178.49 C 166.46 177.76 166.32 176.72 165.59 176.16 L 164.83 175.59 C 164.09 175.03 163.05 175.17 162.49 175.90 C 161.94 176.63 162.08 177.68 162.81 178.23 Z M 163.64 178.86 L 164.46 179.42 C 165.22 179.94 166.25 179.75 166.77 179.00 C 167.29 178.24 167.10 177.21 166.35 176.69 L 165.52 176.12 C 164.77 175.60 163.73 175.79 163.21 176.55 C 162.69 177.30 162.88 178.34 163.64 178.86 Z M 164.52 179.46 L 165.41 180.02 C 166.19 180.50 167.21 180.27 167.70 179.49 C 168.18 178.71 167.95 177.69 167.17 177.20 L 166.28 176.65 C 165.51 176.16 164.48 176.40 164.00 177.17 C 163.51 177.95 163.75 178.98 164.52 179.46 Z M 165.47 180.05 L 166.38 180.57 C 167.18 181.02 168.19 180.75 168.65 179.95 C 169.10 179.16 168.82 178.14 168.03 177.69 L 167.11 177.17 C 166.31 176.71 165.30 176.99 164.85 177.79 C 164.40 178.58 164.67 179.60 165.47 180.05 Z M 166.44 180.59 L 167.27 181.03 C 168.08 181.46 169.08 181.14 169.50 180.33 C 169.93 179.53 169.62 178.53 168.81 178.10 L 167.97 177.67 C 167.16 177.24 166.16 177.55 165.74 178.36 C 165.32 179.17 165.63 180.17 166.44 180.59 Z M 167.32 181.05 L 168.20 181.47 C 169.01 181.87 170.00 181.53 170.40 180.71 C 170.79 179.89 170.45 178.90 169.63 178.51 L 168.76 178.08 C 167.94 177.69 166.95 178.03 166.56 178.85 C 166.16 179.67 166.50 180.65 167.32 181.05 Z M 168.24 181.49 L 169.15 181.90 C 169.98 182.27 170.95 181.90 171.32 181.07 C 171.69 180.24 171.32 179.27 170.49 178.90 L 169.58 178.49 C 168.76 178.12 167.79 178.49 167.42 179.32 C 167.05 180.15 167.42 181.12 168.24 181.49 Z M 169.20 181.91 L 170.15 182.30 C 170.98 182.65 171.94 182.25 172.28 181.42 C 172.63 180.58 172.23 179.63 171.40 179.28 L 170.45 178.89 C 169.61 178.54 168.66 178.94 168.31 179.77 C 167.97 180.61 168.37 181.56 169.20 181.91 Z M 170.19 182.31 L 171.18 182.69 C 172.02 183.01 172.96 182.59 173.28 181.75 C 173.60 180.91 173.18 179.97 172.34 179.65 L 171.35 179.27 C 170.51 178.95 169.57 179.37 169.25 180.21 C 168.93 181.05 169.35 181.99 170.19 182.31 Z M 171.22 182.69 L 172.21 183.04 C 173.06 183.34 173.98 182.90 174.28 182.05 C 174.58 181.21 174.13 180.29 173.29 179.99 L 172.29 179.64 C 171.45 179.34 170.53 179.79 170.23 180.63 C 169.93 181.47 170.38 182.40 171.22 182.69 Z M 172.26 183.04 L 173.26 183.37 C 174.10 183.65 175.01 183.18 175.28 182.34 C 175.56 181.50 175.10 180.59 174.25 180.31 L 173.25 179.99 C 172.41 179.71 171.50 180.18 171.22 181.02 C 170.95 181.86 171.41 182.77 172.26 183.04 Z M 173.30 183.37 L 174.30 183.67 C 175.14 183.92 176.03 183.45 176.28 182.60 C 176.54 181.76 176.06 180.87 175.22 180.62 L 174.22 180.32 C 173.37 180.06 172.48 180.54 172.23 181.38 C 171.98 182.23 172.45 183.11 173.30 183.37 Z M 174.33 183.67 L 175.31 183.94 C 176.15 184.17 177.02 183.68 177.26 182.84 C 177.49 182.00 177.00 181.13 176.16 180.89 L 175.18 180.62 C 174.34 180.39 173.47 180.88 173.23 181.72 C 173.00 182.56 173.49 183.43 174.33 183.67 Z M 175.35 183.93 L 176.28 184.17 C 177.12 184.38 177.97 183.87 178.18 183.04 C 178.40 182.20 177.89 181.34 177.05 181.13 L 176.12 180.90 C 175.28 180.68 174.43 181.19 174.21 182.03 C 174.00 182.87 174.51 183.72 175.35 183.93 Z M 176.32 184.17 L 177.20 184.36 C 178.04 184.55 178.87 184.03 179.06 183.19 C 179.24 182.35 178.72 181.52 177.88 181.33 L 177.01 181.14 C 176.17 180.95 175.34 181.47 175.15 182.31 C 174.96 183.15 175.49 183.98 176.32 184.17 Z M 177.26 184.36 L 178.40 184.57 C 179.24 184.73 180.04 184.18 180.19 183.34 C 180.35 182.51 179.80 181.71 178.96 181.55 L 177.82 181.34 C 176.99 181.19 176.19 181.74 176.03 182.57 C 175.88 183.40 176.43 184.20 177.26 184.36 Z M 178.48 184.56 L 179.48 184.70 C 180.31 184.81 181.07 184.23 181.18 183.40 C 181.30 182.57 180.72 181.81 179.89 181.70 L 178.89 181.56 C 178.06 181.45 177.30 182.03 177.19 182.86 C 177.07 183.68 177.65 184.45 178.48 184.56 Z M 179.55 184.68 L 180.46 184.76 C 181.28 184.84 182.00 184.24 182.08 183.42 C 182.15 182.60 181.55 181.88 180.74 181.80 L 179.82 181.72 C 179.00 181.64 178.28 182.24 178.20 183.06 C 178.13 183.88 178.73 184.60 179.55 184.68 Z M 180.50 184.74 L 181.41 184.80 C 182.21 184.86 182.91 184.24 182.96 183.44 C 183.02 182.63 182.40 181.93 181.60 181.88 L 180.69 181.82 C 179.88 181.77 179.19 182.38 179.14 183.19 C 179.08 184.00 179.70 184.69 180.50 184.74 Z M 181.43 184.79 L 182.43 184.84 C 183.23 184.88 183.91 184.27 183.95 183.47 C 184.00 182.67 183.38 181.98 182.58 181.94 L 181.58 181.89 C 180.77 181.85 180.09 182.47 180.05 183.27 C 180.01 184.07 180.63 184.75 181.43 184.79 Z M 182.45 184.83 L 183.45 184.87 C 184.25 184.91 184.92 184.28 184.95 183.49 C 184.98 182.69 184.36 182.02 183.56 181.99 L 182.56 181.95 C 181.77 181.92 181.09 182.54 181.06 183.34 C 181.03 184.13 181.65 184.80 182.45 184.83 Z M 183.47 184.87 L 184.46 184.89 C 185.25 184.91 185.91 184.29 185.93 183.50 C 185.95 182.71 185.33 182.05 184.54 182.02 L 183.54 182.00 C 182.75 181.98 182.09 182.60 182.07 183.39 C 182.05 184.18 182.67 184.84 183.47 184.87 Z M 184.48 184.89 L 185.48 184.90 C 186.27 184.92 186.92 184.29 186.93 183.50 C 186.95 182.71 186.32 182.06 185.53 182.04 L 184.52 182.03 C 183.73 182.02 183.08 182.65 183.07 183.44 C 183.06 184.23 183.69 184.88 184.48 184.89 Z M 185.49 184.90 L 186.49 184.91 C 187.28 184.91 187.93 184.28 187.93 183.49 C 187.94 182.70 187.30 182.06 186.51 182.05 L 185.51 182.05 C 184.72 182.04 184.08 182.68 184.08 183.47 C 184.07 184.25 184.71 184.90 185.49 184.90 Z M 186.50 184.91 L 187.50 184.91 C 188.28 184.91 188.92 184.27 188.93 183.48 C 188.93 182.70 188.29 182.06 187.50 182.05 L 186.51 182.05 C 185.72 182.05 185.08 182.69 185.08 183.48 C 185.08 184.27 185.71 184.91 186.50 184.91 Z M 187.50 184.91 L 187.76 184.91 C 188.55 184.91 189.19 184.27 189.19 183.48 C 189.19 182.69 188.55 182.06 187.76 182.06 L 187.50 182.06 C 186.71 182.06 186.07 182.69 186.07 183.48 C 186.07 184.27 186.71 184.91 187.50 184.91 Z"
      fill="black"
      fill-rule="nonzero" /></svg>