<svg xmlns="http://www.w3.org/2000/svg" width="300" height="300" viewBox="0 0 300 300">
<path d="M 132.33 116.35 L 131.27 116.36 C 130.36 116.36 129.63 117.10 129.63 118.01 C 129.64 118.92 130.38 119.65 131.29 119.65 L 132.34 119.64 C 133.25 119.64 133.98 118.90 133.98 117.99 C 133.98 117.08 133.24 116.35 132.33 116.35 Z M 131.23 116.35 L 130.20 116.38 C 129.29 116.41 128.57 117.17 128.60 118.09 C 128.63 119.00 129.39 119.71 130.30 119.69 L 131.33 119.65 C 132.24 119.63 132.96 118.86 132.93 117.95 C 132.90 117.04 132.14 116.32 131.23 116.35 Z M 130.11 116.38 L 129.13 116.47 C 128.22 116.55 127.54 117.35 127.62 118.27 C 127.70 119.18 128.51 119.85 129.42 119.77 L 130.40 119.69 C 131.31 119.61 131.98 118.80 131.90 117.89 C 131.82 116.98 131.02 116.30 130.11 116.38 Z M 128.96 116.48 L 127.99 116.67 C 127.09 116.84 126.50 117.71 126.67 118.62 C 126.84 119.52 127.71 120.11 128.62 119.94 L 129.59 119.76 C 130.49 119.58 131.08 118.71 130.91 117.81 C 130.74 116.90 129.86 116.31 128.96 116.48 Z M 127.68 116.75 L 126.51 117.22 C 125.65 117.56 125.24 118.54 125.58 119.40 C 125.93 120.26 126.91 120.68 127.77 120.33 L 128.93 119.86 C 129.79 119.52 130.21 118.54 129.86 117.68 C 129.52 116.82 128.54 116.40 127.68 116.75 Z M 125.80 117.73 L 125.38 118.26 C 124.80 119.00 124.93 120.07 125.67 120.65 C 126.41 121.23 127.48 121.10 128.06 120.36 L 128.48 119.82 C 129.05 119.08 128.92 118.01 128.19 117.44 C 127.45 116.86 126.38 116.99 125.80 117.73 Z M 125.58 120.59 L 125.93 120.90 C 126.64 121.53 127.72 121.47 128.35 120.76 C 128.97 120.06 128.91 118.98 128.21 118.35 L 127.86 118.04 C 127.15 117.41 126.07 117.47 125.44 118.17 C 124.82 118.88 124.88 119.96 125.58 120.59 Z M 126.60 121.27 L 127.33 121.48 C 128.24 121.74 129.19 121.22 129.45 120.31 C 129.71 119.40 129.18 118.45 128.27 118.19 L 127.54 117.98 C 126.63 117.72 125.69 118.24 125.43 119.15 C 125.16 120.06 125.69 121.01 126.60 121.27 Z M 127.55 121.53 L 128.63 121.69 C 129.56 121.83 130.43 121.18 130.57 120.25 C 130.71 119.31 130.07 118.44 129.13 118.30 L 128.05 118.14 C 127.12 118.00 126.25 118.65 126.11 119.58 C 125.97 120.52 126.61 121.39 127.55 121.53 Z M 128.73 121.70 L 130.10 121.82 C 131.04 121.90 131.87 121.20 131.95 120.25 C 132.03 119.31 131.33 118.48 130.39 118.40 L 129.02 118.29 C 128.08 118.21 127.25 118.91 127.17 119.85 C 127.09 120.79 127.79 121.62 128.73 121.70 Z M 130.16 121.82 L 131.30 121.88 C 132.24 121.92 133.04 121.20 133.09 120.25 C 133.14 119.31 132.41 118.51 131.47 118.46 L 130.33 118.40 C 129.39 118.35 128.58 119.08 128.54 120.02 C 128.49 120.97 129.22 121.77 130.16 121.82 Z M 131.33 121.87 L 132.35 121.91 C 133.29 121.93 134.08 121.19 134.11 120.25 C 134.14 119.31 133.40 118.52 132.46 118.49 L 131.44 118.46 C 130.49 118.43 129.71 119.17 129.68 120.11 C 129.65 121.06 130.39 121.84 131.33 121.87 Z M 132.38 121.90 L 133.43 121.92 C 134.37 121.93 135.14 121.18 135.16 120.24 C 135.17 119.30 134.42 118.53 133.48 118.51 L 132.43 118.50 C 131.49 118.48 130.72 119.23 130.70 120.17 C 130.69 121.11 131.44 121.89 132.38 121.90 Z M 133.45 121.91 L 134.51 121.92 C 135.44 121.92 136.21 121.16 136.21 120.22 C 136.21 119.28 135.45 118.52 134.51 118.52 L 133.46 118.52 C 132.52 118.52 131.76 119.27 131.76 120.21 C 131.76 121.15 132.51 121.91 133.45 121.91 Z M 134.53 121.91 L 135.56 121.90 C 136.50 121.89 137.25 121.12 137.23 120.19 C 137.22 119.25 136.46 118.50 135.52 118.51 L 134.49 118.52 C 133.56 118.54 132.81 119.30 132.82 120.24 C 132.83 121.17 133.60 121.92 134.53 121.91 Z M 135.59 121.89 L 136.56 121.87 C 137.49 121.84 138.23 121.07 138.20 120.13 C 138.18 119.20 137.40 118.47 136.47 118.49 L 135.49 118.52 C 134.56 118.54 133.83 119.32 133.85 120.25 C 133.88 121.19 134.65 121.92 135.59 121.89 Z M 136.59 121.86 L 137.48 121.82 C 138.41 121.78 139.13 120.99 139.09 120.06 C 139.05 119.13 138.26 118.41 137.33 118.45 L 136.44 118.50 C 135.51 118.54 134.79 119.33 134.83 120.26 C 134.88 121.19 135.66 121.91 136.59 121.86 Z M 137.54 121.81 L 138.79 121.71 C 139.71 121.64 140.40 120.83 140.33 119.91 C 140.25 118.98 139.44 118.29 138.52 118.37 L 137.27 118.47 C 136.35 118.54 135.66 119.35 135.73 120.27 C 135.81 121.19 136.62 121.88 137.54 121.81 Z M 138.87 121.69 L 139.89 121.56 C 140.80 121.44 141.45 120.61 141.33 119.70 C 141.21 118.78 140.38 118.14 139.47 118.25 L 138.44 118.39 C 137.53 118.50 136.88 119.34 137.00 120.25 C 137.12 121.16 137.95 121.81 138.87 121.69 Z M 139.96 121.54 L 140.84 121.38 C 141.74 121.23 142.34 120.37 142.18 119.47 C 142.03 118.57 141.17 117.97 140.27 118.12 L 139.40 118.28 C 138.49 118.43 137.89 119.29 138.05 120.19 C 138.21 121.09 139.06 121.69 139.96 121.54 Z M 140.88 121.37 L 141.69 121.20 C 142.58 121.02 143.16 120.16 142.98 119.27 C 142.80 118.38 141.93 117.80 141.04 117.98 L 140.23 118.14 C 139.34 118.32 138.76 119.19 138.94 120.08 C 139.12 120.97 139.99 121.54 140.88 121.37 Z M 141.69 121.19 L 142.66 121.00 C 143.55 120.82 144.12 119.96 143.94 119.07 C 143.76 118.19 142.90 117.61 142.01 117.79 L 141.04 117.99 C 140.16 118.17 139.58 119.03 139.76 119.92 C 139.94 120.80 140.80 121.37 141.69 121.19 Z M 142.66 120.99 L 143.65 120.79 C 144.53 120.61 145.10 119.75 144.92 118.87 C 144.74 117.99 143.88 117.42 143.00 117.60 L 142.01 117.80 C 141.13 117.98 140.57 118.84 140.74 119.72 C 140.92 120.60 141.78 121.17 142.66 120.99 Z M 143.66 120.78 L 144.64 120.57 C 145.52 120.38 146.07 119.52 145.89 118.65 C 145.70 117.78 144.84 117.22 143.97 117.40 L 142.99 117.61 C 142.12 117.80 141.56 118.66 141.74 119.53 C 141.93 120.41 142.79 120.96 143.66 120.78 Z M 144.67 120.55 L 145.66 120.33 C 146.52 120.12 147.06 119.26 146.86 118.39 C 146.66 117.53 145.79 116.99 144.93 117.19 L 143.94 117.42 C 143.07 117.62 142.54 118.48 142.74 119.35 C 142.94 120.22 143.80 120.76 144.67 120.55 Z M 145.69 120.31 L 146.66 120.06 C 147.52 119.84 148.04 118.97 147.82 118.12 C 147.60 117.26 146.73 116.74 145.88 116.96 L 144.90 117.21 C 144.04 117.42 143.52 118.29 143.74 119.15 C 143.96 120.01 144.83 120.53 145.69 120.31 Z M 146.68 120.05 L 147.63 119.79 C 148.48 119.57 148.98 118.69 148.75 117.84 C 148.53 117.00 147.66 116.49 146.81 116.72 L 145.86 116.97 C 145.01 117.20 144.51 118.07 144.73 118.92 C 144.96 119.77 145.83 120.27 146.68 120.05 Z M 147.63 119.78 L 148.59 119.52 C 149.43 119.29 149.93 118.42 149.70 117.58 C 149.47 116.74 148.60 116.24 147.76 116.47 L 146.80 116.73 C 145.96 116.96 145.46 117.83 145.69 118.67 C 145.92 119.51 146.79 120.01 147.63 119.78 Z M 148.58 119.51 L 149.55 119.25 C 150.39 119.02 150.88 118.16 150.65 117.32 C 150.42 116.48 149.56 115.99 148.72 116.22 L 147.76 116.48 C 146.92 116.71 146.43 117.57 146.66 118.41 C 146.88 119.25 147.75 119.74 148.58 119.51 Z M 149.55 119.24 L 150.51 118.97 C 151.34 118.75 151.83 117.89 151.61 117.06 C 151.38 116.23 150.52 115.74 149.69 115.96 L 148.73 116.23 C 147.89 116.45 147.40 117.31 147.63 118.14 C 147.86 118.97 148.72 119.46 149.55 119.24 Z M 150.51 118.97 L 151.35 118.73 C 152.18 118.51 152.67 117.66 152.44 116.83 C 152.22 116.01 151.37 115.52 150.54 115.74 L 149.69 115.97 C 148.87 116.20 148.38 117.05 148.60 117.88 C 148.83 118.70 149.68 119.19 150.51 118.97 Z M 151.35 118.73 L 152.12 118.52 C 152.94 118.30 153.43 117.45 153.20 116.63 C 152.98 115.81 152.13 115.32 151.31 115.54 L 150.54 115.75 C 149.72 115.97 149.24 116.82 149.46 117.64 C 149.68 118.46 150.53 118.95 151.35 118.73 Z M 152.11 118.51 L 153.02 118.27 C 153.83 118.05 154.32 117.21 154.10 116.39 C 153.88 115.58 153.04 115.09 152.22 115.31 L 151.32 115.55 C 150.50 115.77 150.02 116.61 150.23 117.43 C 150.45 118.24 151.29 118.73 152.11 118.51 Z M 153.01 118.27 L 154.14 117.97 C 154.95 117.75 155.44 116.92 155.23 116.11 C 155.01 115.29 154.18 114.80 153.36 115.02 L 152.23 115.31 C 151.42 115.53 150.93 116.36 151.14 117.18 C 151.36 117.99 152.19 118.48 153.01 118.27 Z M 154.13 117.96 L 155.24 117.68 C 156.06 117.46 156.54 116.64 156.33 115.82 C 156.12 115.01 155.29 114.52 154.48 114.73 L 153.37 115.02 C 152.56 115.23 152.07 116.06 152.28 116.87 C 152.49 117.69 153.32 118.17 154.13 117.96 Z M 155.24 117.67 L 156.12 117.44 C 156.93 117.24 157.42 116.41 157.21 115.60 C 157.01 114.79 156.18 114.30 155.37 114.51 L 154.49 114.74 C 153.68 114.95 153.19 115.77 153.40 116.58 C 153.60 117.39 154.43 117.88 155.24 117.67 Z M 156.12 117.44 L 157.08 117.20 C 157.88 116.99 158.37 116.17 158.17 115.36 C 157.96 114.55 157.14 114.06 156.33 114.27 L 155.37 114.51 C 154.56 114.72 154.08 115.54 154.28 116.35 C 154.49 117.16 155.31 117.65 156.12 117.44 Z M 157.07 117.19 L 158.08 116.94 C 158.88 116.74 159.37 115.92 159.17 115.11 C 158.96 114.30 158.14 113.82 157.34 114.02 L 156.33 114.27 C 155.53 114.48 155.04 115.30 155.24 116.10 C 155.45 116.91 156.26 117.40 157.07 117.19 Z M 158.07 116.94 L 159.10 116.68 C 159.91 116.48 160.39 115.66 160.19 114.86 C 159.99 114.05 159.17 113.56 158.37 113.76 L 157.34 114.02 C 156.53 114.22 156.05 115.04 156.25 115.85 C 156.45 116.65 157.27 117.14 158.07 116.94 Z M 159.10 116.68 L 160.12 116.42 C 160.93 116.22 161.42 115.41 161.22 114.60 C 161.02 113.80 160.20 113.31 159.40 113.51 L 158.37 113.77 C 157.57 113.97 157.08 114.78 157.28 115.58 C 157.48 116.39 158.29 116.88 159.10 116.68 Z M 160.12 116.42 L 161.12 116.17 C 161.93 115.97 162.42 115.16 162.22 114.36 C 162.02 113.56 161.21 113.07 160.41 113.27 L 159.41 113.51 C 158.60 113.71 158.11 114.52 158.31 115.32 C 158.51 116.13 159.32 116.62 160.12 116.42 Z M 161.12 116.17 L 162.08 115.94 C 162.88 115.74 163.37 114.93 163.18 114.13 C 162.99 113.33 162.18 112.84 161.38 113.04 L 160.42 113.27 C 159.61 113.46 159.12 114.27 159.32 115.07 C 159.51 115.87 160.32 116.36 161.12 116.17 Z M 162.07 115.93 L 163.27 115.65 C 164.07 115.46 164.56 114.66 164.37 113.86 C 164.18 113.06 163.38 112.57 162.58 112.76 L 161.39 113.04 C 160.59 113.23 160.10 114.03 160.29 114.83 C 160.47 115.63 161.27 116.12 162.07 115.93 Z M 163.26 115.64 L 164.34 115.39 C 165.13 115.21 165.62 114.42 165.44 113.62 C 165.26 112.83 164.47 112.33 163.67 112.52 L 162.60 112.77 C 161.80 112.95 161.31 113.74 161.49 114.53 C 161.67 115.33 162.46 115.82 163.26 115.64 Z M 164.32 115.38 L 165.30 115.16 C 166.09 114.99 166.58 114.20 166.41 113.42 C 166.23 112.63 165.45 112.13 164.66 112.31 L 163.68 112.53 C 162.90 112.70 162.40 113.48 162.58 114.27 C 162.75 115.06 163.54 115.56 164.32 115.38 Z M 165.29 115.15 L 166.18 114.96 C 166.96 114.79 167.46 114.02 167.29 113.23 C 167.12 112.45 166.34 111.95 165.56 112.12 L 164.67 112.32 C 163.89 112.49 163.39 113.26 163.56 114.04 C 163.73 114.83 164.50 115.32 165.29 115.15 Z M 166.17 114.95 L 166.98 114.78 C 167.76 114.62 168.26 113.85 168.10 113.07 C 167.93 112.29 167.17 111.80 166.39 111.96 L 165.57 112.13 C 164.79 112.30 164.29 113.06 164.46 113.84 C 164.62 114.62 165.39 115.12 166.17 114.95 Z M 166.98 114.77 L 167.93 114.58 C 168.70 114.42 169.20 113.66 169.04 112.89 C 168.88 112.11 168.13 111.61 167.35 111.77 L 166.40 111.97 C 165.62 112.13 165.12 112.88 165.28 113.66 C 165.44 114.43 166.20 114.93 166.98 114.77 Z M 167.92 114.58 L 168.94 114.37 C 169.71 114.22 170.21 113.46 170.06 112.69 C 169.90 111.92 169.15 111.41 168.37 111.57 L 167.36 111.77 C 166.58 111.93 166.08 112.68 166.24 113.45 C 166.39 114.23 167.15 114.73 167.92 114.58 Z M 168.93 114.37 L 169.89 114.18 C 170.66 114.03 171.16 113.28 171.01 112.51 C 170.86 111.74 170.11 111.23 169.34 111.38 L 168.38 111.57 C 167.61 111.72 167.10 112.47 167.25 113.24 C 167.41 114.02 168.16 114.52 168.93 114.37 Z M 169.88 114.18 L 170.81 114.01 C 171.58 113.86 172.09 113.11 171.94 112.33 C 171.79 111.56 171.04 111.06 170.27 111.20 L 169.34 111.38 C 168.57 111.53 168.06 112.28 168.21 113.05 C 168.36 113.83 169.11 114.33 169.88 114.18 Z M 170.80 114.01 L 170.97 113.97 C 171.74 113.83 172.25 113.08 172.10 112.30 C 171.95 111.53 171.20 111.03 170.43 111.17 L 170.27 111.21 C 169.49 111.35 168.99 112.10 169.14 112.87 C 169.28 113.65 170.03 114.15 170.80 114.01 Z"
      fill="black"
      fill-rule="nonzero" /><path d="M 111.14 141.15 L 110.64 142.02 C 110.20 142.76 110.45 143.72 111.19 144.15 C 111.94 144.59 112.89 144.34 113.33 143.60 L 113.83 142.73 C 114.27 141.99 114.02 141.03 113.28 140.60 C 112.54 140.16 111.58 140.41 111.14 141.15 Z M 110.63 142.03 L 110.13 142.90 C 109.70 143.64 109.96 144.60 110.70 145.03 C 111.45 145.46 112.40 145.20 112.83 144.46 L 113.33 143.59 C 113.76 142.84 113.51 141.89 112.76 141.46 C 112.02 141.03 111.06 141.28 110.63 142.03 Z M 110.12 142.92 L 109.63 143.79 C 109.21 144.54 109.48 145.49 110.23 145.91 C 110.99 146.33 111.94 146.06 112.36 145.31 L 112.84 144.44 C 113.26 143.68 112.99 142.73 112.24 142.31 C 111.49 141.89 110.54 142.16 110.12 142.92 Z M 109.62 143.82 L 109.15 144.70 C 108.74 145.46 109.03 146.40 109.79 146.81 C 110.56 147.21 111.50 146.92 111.90 146.16 L 112.37 145.28 C 112.77 144.52 112.49 143.58 111.72 143.17 C 110.96 142.77 110.02 143.06 109.62 143.82 Z M 109.13 144.74 L 108.69 145.63 C 108.30 146.40 108.62 147.34 109.39 147.72 C 110.16 148.10 111.10 147.79 111.48 147.02 L 111.92 146.12 C 112.31 145.35 111.99 144.41 111.22 144.03 C 110.44 143.65 109.51 143.97 109.13 144.74 Z M 108.66 145.68 L 108.25 146.58 C 107.90 147.37 108.25 148.29 109.03 148.65 C 109.82 149.00 110.74 148.65 111.10 147.87 L 111.51 146.97 C 111.86 146.18 111.51 145.26 110.73 144.90 C 109.94 144.55 109.02 144.90 108.66 145.68 Z M 108.23 146.64 L 107.86 147.56 C 107.53 148.35 107.92 149.26 108.72 149.59 C 109.51 149.91 110.42 149.53 110.75 148.73 L 111.12 147.81 C 111.45 147.02 111.06 146.11 110.26 145.78 C 109.47 145.46 108.56 145.84 108.23 146.64 Z M 107.84 147.61 L 107.50 148.55 C 107.20 149.36 107.62 150.25 108.43 150.54 C 109.24 150.84 110.14 150.42 110.43 149.61 L 110.77 148.68 C 111.06 147.87 110.65 146.97 109.84 146.68 C 109.03 146.38 108.13 146.80 107.84 147.61 Z M 107.48 148.60 L 107.17 149.56 C 106.91 150.38 107.36 151.26 108.18 151.52 C 109.00 151.78 109.88 151.33 110.15 150.51 L 110.45 149.55 C 110.71 148.73 110.26 147.85 109.44 147.59 C 108.62 147.33 107.74 147.78 107.48 148.60 Z M 107.15 149.61 L 106.88 150.59 C 106.65 151.42 107.14 152.28 107.97 152.51 C 108.80 152.74 109.66 152.26 109.89 151.43 L 110.16 150.45 C 110.39 149.62 109.91 148.76 109.08 148.53 C 108.25 148.30 107.39 148.78 107.15 149.61 Z M 106.87 150.65 L 106.64 151.61 C 106.44 152.45 106.96 153.29 107.79 153.49 C 108.63 153.69 109.48 153.17 109.68 152.33 L 109.91 151.37 C 110.11 150.53 109.59 149.69 108.75 149.49 C 107.91 149.29 107.07 149.81 106.87 150.65 Z M 106.63 151.66 L 106.43 152.62 C 106.26 153.46 106.80 154.29 107.65 154.46 C 108.49 154.63 109.32 154.09 109.49 153.24 L 109.69 152.28 C 109.86 151.44 109.32 150.61 108.47 150.44 C 107.62 150.27 106.80 150.81 106.63 151.66 Z M 106.42 152.66 L 106.25 153.64 C 106.10 154.49 106.67 155.30 107.52 155.45 C 108.37 155.59 109.18 155.02 109.33 154.17 L 109.50 153.20 C 109.65 152.35 109.08 151.54 108.23 151.39 C 107.38 151.24 106.57 151.81 106.42 152.66 Z M 106.24 153.67 L 106.09 154.67 C 105.97 155.52 106.56 156.32 107.41 156.45 C 108.27 156.57 109.06 155.98 109.19 155.13 L 109.34 154.14 C 109.47 153.28 108.88 152.48 108.02 152.36 C 107.17 152.23 106.37 152.82 106.24 153.67 Z M 106.09 154.70 L 105.96 155.71 C 105.85 156.57 106.45 157.35 107.31 157.46 C 108.17 157.57 108.96 156.96 109.07 156.11 L 109.20 155.10 C 109.31 154.24 108.70 153.45 107.84 153.34 C 106.98 153.23 106.20 153.84 106.09 154.70 Z M 105.95 155.73 L 105.84 156.76 C 105.74 157.62 106.36 158.39 107.23 158.49 C 108.09 158.58 108.86 157.96 108.96 157.10 L 109.07 156.08 C 109.17 155.22 108.55 154.44 107.69 154.35 C 106.83 154.25 106.05 154.87 105.95 155.73 Z M 105.84 156.78 L 105.74 157.76 C 105.66 158.62 106.29 159.39 107.15 159.47 C 108.01 159.55 108.78 158.92 108.87 158.06 L 108.96 157.08 C 109.05 156.22 108.41 155.45 107.55 155.37 C 106.69 155.28 105.92 155.91 105.84 156.78 Z M 105.74 157.77 L 105.66 158.76 C 105.58 159.62 106.22 160.38 107.09 160.46 C 107.95 160.53 108.71 159.89 108.78 159.03 L 108.87 158.04 C 108.94 157.18 108.30 156.42 107.44 156.34 C 106.57 156.27 105.81 156.91 105.74 157.77 Z M 105.66 158.78 L 105.58 159.78 C 105.52 160.64 106.17 161.39 107.03 161.45 C 107.90 161.52 108.65 160.87 108.71 160.00 L 108.78 159.01 C 108.85 158.14 108.20 157.39 107.33 157.33 C 106.47 157.27 105.72 157.92 105.66 158.78 Z M 105.58 159.79 L 105.52 160.80 C 105.47 161.66 106.13 162.40 106.99 162.46 C 107.86 162.51 108.60 161.85 108.65 160.99 L 108.71 159.99 C 108.77 159.12 108.11 158.38 107.24 158.33 C 106.38 158.27 105.64 158.93 105.58 159.79 Z M 105.52 160.82 L 105.47 161.82 C 105.43 162.69 106.09 163.42 106.96 163.47 C 107.82 163.51 108.56 162.84 108.60 161.98 L 108.65 160.97 C 108.69 160.11 108.03 159.37 107.16 159.33 C 106.30 159.29 105.56 159.95 105.52 160.82 Z M 105.47 161.84 L 105.43 162.86 C 105.40 163.72 106.07 164.45 106.94 164.48 C 107.80 164.52 108.53 163.84 108.56 162.98 L 108.60 161.96 C 108.63 161.10 107.96 160.37 107.10 160.34 C 106.23 160.30 105.50 160.98 105.47 161.84 Z M 105.43 162.88 L 105.41 163.92 C 105.38 164.79 106.06 165.50 106.93 165.53 C 107.79 165.55 108.51 164.87 108.53 164.01 L 108.56 162.96 C 108.58 162.10 107.90 161.38 107.04 161.35 C 106.18 161.33 105.46 162.01 105.43 162.88 Z M 105.41 163.94 L 105.39 164.98 C 105.38 165.84 106.07 166.55 106.93 166.56 C 107.79 166.58 108.50 165.89 108.51 165.03 L 108.53 163.99 C 108.54 163.13 107.86 162.42 106.99 162.40 C 106.13 162.39 105.42 163.08 105.41 163.94 Z M 105.40 165.00 L 105.39 166.02 C 105.39 166.88 106.08 167.58 106.94 167.58 C 107.80 167.59 108.50 166.89 108.51 166.03 L 108.51 165.01 C 108.51 164.15 107.82 163.45 106.96 163.45 C 106.10 163.44 105.40 164.14 105.40 165.00 Z M 105.40 166.04 L 105.40 167.03 C 105.41 167.89 106.11 168.58 106.97 168.57 C 107.83 168.57 108.52 167.86 108.51 167.01 L 108.50 166.01 C 108.50 165.15 107.80 164.46 106.94 164.47 C 106.08 164.48 105.39 165.18 105.40 166.04 Z M 105.41 167.05 L 105.43 168.01 C 105.45 168.86 106.15 169.54 107.01 169.52 C 107.87 169.51 108.55 168.80 108.53 167.94 L 108.51 166.99 C 108.49 166.13 107.78 165.45 106.93 165.47 C 106.07 165.49 105.39 166.19 105.41 167.05 Z M 105.43 168.03 L 105.47 169.02 C 105.50 169.87 106.22 170.54 107.07 170.51 C 107.92 170.48 108.59 169.76 108.56 168.91 L 108.52 167.92 C 108.49 167.07 107.78 166.40 106.92 166.43 C 106.07 166.46 105.40 167.18 105.43 168.03 Z M 105.48 169.06 L 105.54 170.16 C 105.59 171.01 106.32 171.66 107.17 171.61 C 108.02 171.55 108.67 170.82 108.62 169.98 L 108.55 168.87 C 108.50 168.02 107.77 167.38 106.92 167.43 C 106.07 167.48 105.43 168.21 105.48 169.06 Z M 105.56 170.22 L 105.66 171.24 C 105.75 172.08 106.50 172.69 107.34 172.61 C 108.18 172.52 108.79 171.77 108.71 170.93 L 108.60 169.91 C 108.52 169.07 107.77 168.46 106.93 168.55 C 106.08 168.63 105.47 169.38 105.56 170.22 Z M 105.68 171.33 L 105.84 172.27 C 105.97 173.09 106.75 173.66 107.58 173.52 C 108.41 173.38 108.97 172.60 108.84 171.77 L 108.69 170.84 C 108.55 170.01 107.77 169.45 106.94 169.58 C 106.11 169.72 105.55 170.50 105.68 171.33 Z M 105.87 172.39 L 106.09 173.25 C 106.29 174.06 107.11 174.55 107.92 174.34 C 108.73 174.14 109.22 173.32 109.02 172.51 L 108.80 171.65 C 108.60 170.84 107.78 170.35 106.97 170.55 C 106.16 170.76 105.67 171.58 105.87 172.39 Z M 106.15 173.41 L 106.51 174.37 C 106.81 175.14 107.67 175.53 108.45 175.24 C 109.23 174.94 109.61 174.07 109.32 173.30 L 108.96 172.34 C 108.66 171.57 107.79 171.18 107.02 171.47 C 106.24 171.77 105.85 172.64 106.15 173.41 Z M 106.61 174.55 L 107.09 175.42 C 107.49 176.14 108.39 176.41 109.11 176.01 C 109.83 175.61 110.10 174.71 109.70 173.99 L 109.22 173.12 C 108.82 172.39 107.92 172.13 107.20 172.53 C 106.48 172.92 106.21 173.83 106.61 174.55 Z M 107.21 175.59 L 107.80 176.37 C 108.29 177.03 109.21 177.16 109.87 176.67 C 110.52 176.18 110.65 175.26 110.16 174.61 L 109.58 173.82 C 109.09 173.17 108.16 173.04 107.51 173.52 C 106.86 174.01 106.73 174.94 107.21 175.59 Z M 107.93 176.51 L 108.62 177.21 C 109.18 177.79 110.11 177.80 110.69 177.24 C 111.27 176.67 111.28 175.75 110.71 175.17 L 110.03 174.47 C 109.47 173.89 108.54 173.88 107.96 174.44 C 107.38 175.01 107.37 175.93 107.93 176.51 Z M 108.74 177.31 L 109.49 177.94 C 110.11 178.45 111.03 178.37 111.54 177.75 C 112.06 177.13 111.97 176.21 111.35 175.70 L 110.59 175.07 C 109.97 174.56 109.06 174.64 108.55 175.26 C 108.03 175.88 108.12 176.80 108.74 177.31 Z M 109.58 177.99 L 110.40 178.58 C 111.04 179.05 111.95 178.90 112.41 178.25 C 112.88 177.60 112.73 176.70 112.08 176.23 L 111.27 175.65 C 110.62 175.18 109.71 175.33 109.25 175.98 C 108.78 176.63 108.93 177.53 109.58 177.99 Z M 110.44 178.60 L 111.29 179.16 C 111.95 179.60 112.84 179.42 113.28 178.76 C 113.72 178.10 113.54 177.21 112.88 176.77 L 112.03 176.21 C 111.37 175.77 110.48 175.95 110.04 176.61 C 109.60 177.27 109.78 178.16 110.44 178.60 Z M 111.30 179.17 L 111.44 179.26 C 112.10 179.69 112.99 179.50 113.42 178.84 C 113.86 178.18 113.67 177.29 113.01 176.86 L 112.87 176.77 C 112.20 176.34 111.32 176.52 110.89 177.18 C 110.45 177.85 110.64 178.73 111.30 179.17 Z"
      fill="black"
      fill-rule="nonzero" /><path d="M 107.79 154.56 L 106.68 153.99 C 105.90 153.59 104.95 153.90 104.55 154.67 C 104.15 155.45 104.46 156.40 105.23 156.80 L 106.34 157.37 C 107.12 157.77 108.07 157.46 108.47 156.69 C 108.87 155.91 108.56 154.96 107.79 154.56 Z M 106.70 153.99 L 105.65 153.43 C 104.88 153.01 103.92 153.30 103.50 154.08 C 103.09 154.85 103.38 155.82 104.15 156.23 L 105.20 156.79 C 105.97 157.21 106.94 156.92 107.35 156.14 C 107.77 155.37 107.48 154.41 106.70 153.99 Z M 105.72 153.45 L 104.79 152.90 C 104.03 152.45 103.05 152.71 102.60 153.47 C 102.15 154.23 102.40 155.21 103.16 155.66 L 104.09 156.21 C 104.85 156.66 105.83 156.41 106.28 155.64 C 106.73 154.88 106.48 153.90 105.72 153.45 Z M 104.90 152.96 L 104.16 152.44 C 103.43 151.93 102.43 152.11 101.92 152.84 C 101.40 153.57 101.58 154.57 102.31 155.09 L 103.05 155.60 C 103.78 156.12 104.78 155.94 105.30 155.21 C 105.81 154.48 105.63 153.47 104.90 152.96 Z M 104.38 152.61 L 103.89 152.12 C 103.25 151.49 102.22 151.50 101.59 152.14 C 100.96 152.78 100.96 153.81 101.60 154.44 L 102.10 154.92 C 102.73 155.55 103.76 155.54 104.39 154.91 C 105.02 154.27 105.02 153.24 104.38 152.61 Z M 104.33 152.87 L 104.16 152.22 C 103.93 151.35 103.04 150.83 102.16 151.06 C 101.29 151.29 100.77 152.18 101.00 153.05 L 101.16 153.69 C 101.39 154.57 102.29 155.09 103.16 154.86 C 104.03 154.63 104.56 153.74 104.33 152.87 Z M 103.84 153.69 L 104.36 153.06 C 104.94 152.37 104.84 151.34 104.15 150.76 C 103.45 150.18 102.42 150.27 101.84 150.97 L 101.32 151.59 C 100.74 152.28 100.83 153.32 101.53 153.90 C 102.22 154.48 103.26 154.38 103.84 153.69 Z M 103.86 153.47 L 104.87 152.94 C 105.68 152.52 105.99 151.53 105.57 150.72 C 105.15 149.92 104.15 149.61 103.35 150.03 L 102.34 150.56 C 101.53 150.98 101.22 151.97 101.64 152.78 C 102.06 153.58 103.05 153.89 103.86 153.47 Z M 104.70 153.02 L 105.74 152.63 C 106.59 152.30 107.02 151.35 106.70 150.50 C 106.38 149.65 105.43 149.23 104.58 149.55 L 103.53 149.95 C 102.68 150.27 102.25 151.22 102.57 152.07 C 102.90 152.92 103.85 153.35 104.70 153.02 Z M 105.67 152.65 L 106.64 152.33 C 107.51 152.05 107.98 151.12 107.70 150.26 C 107.42 149.39 106.49 148.92 105.62 149.20 L 104.65 149.52 C 103.78 149.80 103.31 150.73 103.60 151.60 C 103.88 152.46 104.81 152.93 105.67 152.65 Z M 106.59 152.35 L 107.57 152.06 C 108.45 151.81 108.95 150.89 108.69 150.02 C 108.44 149.15 107.52 148.65 106.65 148.90 L 105.67 149.19 C 104.80 149.44 104.30 150.36 104.55 151.23 C 104.81 152.10 105.72 152.61 106.59 152.35 Z M 107.54 152.07 L 108.49 151.82 C 109.37 151.58 109.89 150.68 109.66 149.80 C 109.42 148.92 108.52 148.40 107.64 148.64 L 106.69 148.89 C 105.81 149.13 105.29 150.03 105.52 150.91 C 105.76 151.79 106.66 152.31 107.54 152.07 Z M 108.47 151.83 L 109.44 151.58 C 110.32 151.36 110.86 150.47 110.64 149.58 C 110.42 148.70 109.52 148.16 108.64 148.39 L 107.67 148.63 C 106.78 148.85 106.25 149.75 106.47 150.63 C 106.69 151.51 107.58 152.05 108.47 151.83 Z M 109.42 151.59 L 110.41 151.35 C 111.30 151.14 111.85 150.25 111.64 149.37 C 111.43 148.48 110.54 147.93 109.65 148.14 L 108.66 148.38 C 107.78 148.59 107.23 149.48 107.44 150.36 C 107.65 151.25 108.54 151.80 109.42 151.59 Z M 110.41 151.35 L 111.35 151.13 C 112.24 150.93 112.79 150.04 112.58 149.15 C 112.38 148.27 111.49 147.72 110.61 147.92 L 109.66 148.14 C 108.77 148.35 108.22 149.23 108.43 150.12 C 108.63 151.01 109.52 151.56 110.41 151.35 Z M 111.36 151.13 L 112.30 150.91 C 113.19 150.70 113.74 149.81 113.53 148.93 C 113.32 148.04 112.43 147.49 111.55 147.70 L 110.60 147.92 C 109.72 148.13 109.17 149.02 109.38 149.91 C 109.58 150.79 110.47 151.34 111.36 151.13 Z M 112.32 150.91 L 113.24 150.68 C 114.12 150.46 114.67 149.57 114.45 148.69 C 114.23 147.80 113.34 147.26 112.46 147.48 L 111.53 147.70 C 110.65 147.92 110.11 148.81 110.32 149.70 C 110.54 150.58 111.43 151.12 112.32 150.91 Z M 113.25 150.68 L 114.21 150.44 C 115.09 150.22 115.63 149.32 115.41 148.44 C 115.19 147.56 114.29 147.02 113.41 147.24 L 112.45 147.48 C 111.56 147.70 111.03 148.60 111.25 149.48 C 111.47 150.36 112.37 150.90 113.25 150.68 Z M 114.21 150.44 L 115.20 150.19 C 116.09 149.97 116.62 149.07 116.40 148.19 C 116.18 147.30 115.29 146.77 114.40 146.99 L 113.41 147.24 C 112.52 147.46 111.99 148.36 112.21 149.24 C 112.43 150.12 113.33 150.66 114.21 150.44 Z M 115.20 150.19 L 116.18 149.95 C 117.06 149.73 117.60 148.84 117.39 147.95 C 117.17 147.07 116.27 146.53 115.39 146.75 L 114.41 146.99 C 113.52 147.21 112.98 148.10 113.20 148.98 C 113.42 149.87 114.31 150.41 115.20 150.19 Z M 116.17 149.95 L 117.10 149.73 C 117.98 149.51 118.53 148.62 118.31 147.74 C 118.10 146.85 117.21 146.31 116.32 146.52 L 115.40 146.74 C 114.51 146.96 113.97 147.85 114.18 148.74 C 114.40 149.62 115.29 150.16 116.17 149.95 Z M 117.10 149.73 L 118.05 149.50 C 118.94 149.28 119.48 148.39 119.27 147.50 C 119.06 146.62 118.17 146.07 117.28 146.29 L 116.32 146.52 C 115.44 146.73 114.89 147.62 115.11 148.51 C 115.32 149.40 116.21 149.94 117.10 149.73 Z M 118.06 149.49 L 119.06 149.25 C 119.94 149.03 120.48 148.14 120.27 147.26 C 120.05 146.37 119.16 145.83 118.27 146.05 L 117.28 146.29 C 116.39 146.51 115.85 147.40 116.06 148.28 C 116.28 149.17 117.17 149.71 118.06 149.49 Z M 119.07 149.25 L 120.08 148.99 C 120.97 148.77 121.50 147.87 121.28 146.99 C 121.06 146.11 120.16 145.57 119.28 145.79 L 118.26 146.05 C 117.38 146.27 116.84 147.17 117.06 148.05 C 117.29 148.93 118.18 149.47 119.07 149.25 Z M 120.09 148.99 L 121.02 148.75 C 121.90 148.52 122.44 147.62 122.21 146.74 C 121.98 145.86 121.08 145.33 120.20 145.56 L 119.27 145.79 C 118.39 146.02 117.86 146.92 118.08 147.80 C 118.31 148.69 119.21 149.22 120.09 148.99 Z M 121.03 148.75 L 121.99 148.50 C 122.87 148.27 123.40 147.37 123.16 146.48 C 122.93 145.60 122.03 145.07 121.15 145.31 L 120.19 145.56 C 119.31 145.79 118.78 146.69 119.01 147.57 C 119.24 148.45 120.15 148.98 121.03 148.75 Z M 121.99 148.50 L 122.97 148.24 C 123.85 148.01 124.38 147.11 124.14 146.23 C 123.91 145.34 123.01 144.82 122.13 145.05 L 121.15 145.31 C 120.27 145.54 119.74 146.44 119.97 147.32 C 120.20 148.20 121.11 148.73 121.99 148.50 Z M 122.97 148.24 L 123.96 147.98 C 124.84 147.75 125.37 146.85 125.14 145.97 C 124.91 145.09 124.00 144.56 123.12 144.79 L 122.13 145.05 C 121.25 145.28 120.72 146.18 120.95 147.06 C 121.18 147.94 122.08 148.47 122.97 148.24 Z M 123.95 147.98 L 124.94 147.73 C 125.83 147.50 126.36 146.60 126.13 145.72 C 125.90 144.83 125.00 144.30 124.12 144.53 L 123.13 144.79 C 122.25 145.01 121.71 145.91 121.94 146.80 C 122.17 147.68 123.07 148.21 123.95 147.98 Z M 124.94 147.73 L 125.90 147.49 C 126.79 147.26 127.32 146.36 127.10 145.48 C 126.87 144.60 125.98 144.06 125.09 144.28 L 124.13 144.53 C 123.24 144.75 122.71 145.65 122.93 146.53 C 123.15 147.42 124.05 147.95 124.94 147.73 Z M 125.90 147.49 L 126.86 147.25 C 127.75 147.03 128.29 146.13 128.07 145.25 C 127.85 144.36 126.95 143.82 126.07 144.04 L 125.10 144.28 C 124.21 144.50 123.67 145.40 123.89 146.28 C 124.11 147.17 125.01 147.71 125.90 147.49 Z M 126.86 147.25 L 127.83 147.01 C 128.72 146.79 129.26 145.90 129.04 145.01 C 128.82 144.13 127.93 143.59 127.04 143.80 L 126.07 144.04 C 125.19 144.26 124.64 145.15 124.86 146.04 C 125.08 146.92 125.97 147.47 126.86 147.25 Z M 127.82 147.01 L 128.80 146.78 C 129.69 146.56 130.23 145.67 130.02 144.78 C 129.80 143.89 128.91 143.35 128.02 143.56 L 127.05 143.80 C 126.16 144.02 125.61 144.91 125.83 145.80 C 126.04 146.68 126.94 147.23 127.82 147.01 Z M 128.80 146.78 L 129.77 146.54 C 130.66 146.33 131.20 145.44 130.99 144.55 C 130.78 143.66 129.88 143.12 129.00 143.33 L 128.02 143.56 C 127.14 143.78 126.59 144.67 126.80 145.56 C 127.02 146.44 127.91 146.99 128.80 146.78 Z M 129.77 146.54 L 130.72 146.32 C 131.61 146.10 132.16 145.21 131.94 144.32 C 131.73 143.44 130.84 142.89 129.95 143.10 L 129.00 143.33 C 128.11 143.54 127.56 144.43 127.77 145.32 C 127.99 146.21 128.88 146.76 129.77 146.54 Z M 130.72 146.32 L 131.68 146.08 C 132.57 145.87 133.12 144.98 132.90 144.09 C 132.69 143.20 131.80 142.66 130.91 142.87 L 129.95 143.10 C 129.06 143.31 128.52 144.21 128.73 145.09 C 128.94 145.98 129.83 146.53 130.72 146.32 Z M 131.69 146.08 L 132.66 145.85 C 133.54 145.63 134.09 144.74 133.87 143.85 C 133.66 142.97 132.77 142.42 131.88 142.64 L 130.91 142.87 C 130.02 143.09 129.48 143.98 129.69 144.87 C 129.91 145.75 130.80 146.30 131.69 146.08 Z M 132.66 145.85 L 133.64 145.61 C 134.53 145.39 135.07 144.49 134.86 143.61 C 134.64 142.72 133.74 142.18 132.86 142.40 L 131.87 142.64 C 130.99 142.85 130.45 143.75 130.66 144.64 C 130.88 145.52 131.78 146.07 132.66 145.85 Z M 133.65 145.61 L 134.65 145.36 C 135.53 145.13 136.07 144.24 135.85 143.35 C 135.63 142.47 134.73 141.93 133.84 142.15 L 132.85 142.40 C 131.96 142.62 131.42 143.52 131.65 144.40 C 131.87 145.29 132.77 145.83 133.65 145.61 Z M 134.65 145.35 L 135.60 145.11 C 136.49 144.89 137.02 143.98 136.80 143.10 C 136.57 142.22 135.67 141.68 134.78 141.91 L 133.83 142.15 C 132.95 142.38 132.42 143.28 132.64 144.16 C 132.87 145.05 133.77 145.58 134.65 145.35 Z M 135.61 145.11 L 136.57 144.86 C 137.45 144.63 137.98 143.73 137.76 142.85 C 137.53 141.96 136.62 141.43 135.74 141.66 L 134.78 141.91 C 133.90 142.14 133.36 143.04 133.59 143.92 C 133.82 144.81 134.73 145.34 135.61 145.11 Z M 136.57 144.86 L 137.54 144.61 C 138.43 144.38 138.95 143.47 138.72 142.59 C 138.49 141.71 137.59 141.18 136.71 141.41 L 135.74 141.66 C 134.85 141.89 134.32 142.79 134.56 143.68 C 134.79 144.56 135.69 145.09 136.57 144.86 Z M 137.54 144.61 L 138.52 144.35 C 139.40 144.12 139.93 143.22 139.70 142.33 C 139.47 141.45 138.56 140.92 137.68 141.15 L 136.71 141.41 C 135.82 141.64 135.29 142.54 135.52 143.43 C 135.76 144.31 136.66 144.84 137.54 144.61 Z M 138.51 144.35 L 139.49 144.10 C 140.38 143.87 140.91 142.97 140.68 142.08 C 140.45 141.20 139.55 140.67 138.66 140.90 L 137.68 141.15 C 136.80 141.38 136.27 142.28 136.50 143.17 C 136.73 144.05 137.63 144.58 138.51 144.35 Z M 139.49 144.10 L 140.47 143.85 C 141.35 143.62 141.89 142.72 141.66 141.84 C 141.43 140.95 140.53 140.42 139.65 140.65 L 138.67 140.90 C 137.78 141.12 137.25 142.02 137.48 142.91 C 137.70 143.79 138.60 144.33 139.49 144.10 Z M 140.46 143.85 L 141.44 143.60 C 142.32 143.38 142.86 142.48 142.64 141.60 C 142.41 140.71 141.51 140.17 140.63 140.40 L 139.65 140.64 C 138.76 140.87 138.23 141.77 138.45 142.65 C 138.68 143.54 139.58 144.08 140.46 143.85 Z M 141.44 143.61 L 142.41 143.36 C 143.30 143.14 143.83 142.24 143.61 141.35 C 143.39 140.47 142.49 139.93 141.60 140.15 L 140.63 140.40 C 139.74 140.62 139.20 141.52 139.43 142.40 C 139.65 143.29 140.55 143.83 141.44 143.61 Z M 142.41 143.36 L 143.38 143.12 C 144.27 142.89 144.81 141.99 144.58 141.11 C 144.36 140.22 143.46 139.68 142.57 139.91 L 141.60 140.15 C 140.72 140.37 140.18 141.27 140.40 142.16 C 140.62 143.05 141.52 143.58 142.41 143.36 Z M 143.39 143.12 L 144.35 142.87 C 145.24 142.65 145.77 141.74 145.55 140.86 C 145.32 139.97 144.42 139.44 143.53 139.66 L 142.57 139.91 C 141.68 140.13 141.15 141.03 141.37 141.92 C 141.60 142.81 142.50 143.34 143.39 143.12 Z M 144.36 142.87 L 145.31 142.62 C 146.20 142.39 146.73 141.49 146.50 140.60 C 146.27 139.72 145.37 139.19 144.48 139.41 L 143.53 139.66 C 142.64 139.89 142.11 140.80 142.34 141.68 C 142.57 142.57 143.47 143.10 144.36 142.87 Z M 145.32 142.62 L 146.29 142.36 C 147.17 142.13 147.70 141.22 147.47 140.34 C 147.23 139.45 146.32 138.93 145.44 139.16 L 144.48 139.42 C 143.59 139.65 143.06 140.56 143.30 141.44 C 143.53 142.33 144.44 142.85 145.32 142.62 Z M 146.30 142.36 L 147.26 142.10 C 148.14 141.86 148.66 140.95 148.42 140.07 C 148.19 139.19 147.28 138.66 146.39 138.90 L 145.43 139.16 C 144.55 139.40 144.03 140.31 144.27 141.19 C 144.50 142.08 145.41 142.60 146.30 142.36 Z M 147.26 142.10 L 148.22 141.84 C 149.10 141.60 149.62 140.68 149.38 139.80 C 149.14 138.92 148.23 138.40 147.35 138.64 L 146.39 138.91 C 145.51 139.15 144.99 140.06 145.23 140.94 C 145.47 141.82 146.38 142.34 147.26 142.10 Z M 148.22 141.84 L 149.19 141.57 C 150.07 141.33 150.59 140.42 150.34 139.54 C 150.10 138.65 149.19 138.14 148.31 138.38 L 147.35 138.64 C 146.46 138.89 145.94 139.80 146.19 140.68 C 146.43 141.56 147.34 142.08 148.22 141.84 Z M 149.19 141.57 L 150.15 141.31 C 151.04 141.06 151.56 140.15 151.31 139.27 C 151.07 138.39 150.16 137.87 149.28 138.11 L 148.31 138.38 C 147.43 138.62 146.91 139.53 147.15 140.41 C 147.39 141.30 148.30 141.81 149.19 141.57 Z M 150.15 141.31 L 151.13 141.04 C 152.01 140.80 152.53 139.89 152.29 139.01 C 152.05 138.13 151.14 137.60 150.26 137.84 L 149.28 138.11 C 148.40 138.35 147.88 139.26 148.12 140.14 C 148.36 141.03 149.27 141.55 150.15 141.31 Z M 151.13 141.04 L 152.11 140.78 C 152.99 140.54 153.52 139.63 153.28 138.75 C 153.04 137.87 152.14 137.34 151.25 137.58 L 150.27 137.84 C 149.38 138.08 148.86 138.99 149.10 139.87 C 149.33 140.76 150.24 141.28 151.13 141.04 Z M 152.11 140.78 L 153.09 140.52 C 153.98 140.28 154.50 139.37 154.27 138.49 C 154.03 137.61 153.12 137.08 152.24 137.32 L 151.26 137.58 C 150.37 137.81 149.85 138.72 150.08 139.60 C 150.32 140.49 151.22 141.01 152.11 140.78 Z M 153.09 140.52 L 154.07 140.26 C 154.95 140.02 155.48 139.12 155.24 138.23 C 155.01 137.35 154.10 136.82 153.22 137.06 L 152.24 137.31 C 151.36 137.55 150.83 138.46 151.07 139.34 C 151.30 140.22 152.21 140.75 153.09 140.52 Z M 154.07 140.26 L 155.02 140.00 C 155.91 139.77 156.43 138.86 156.20 137.98 C 155.96 137.10 155.06 136.57 154.17 136.80 L 153.22 137.06 C 152.33 137.29 151.81 138.20 152.04 139.08 C 152.28 139.97 153.18 140.49 154.07 140.26 Z M 155.02 140.00 L 155.95 139.76 C 156.83 139.52 157.36 138.62 157.12 137.73 C 156.89 136.85 155.98 136.32 155.10 136.56 L 154.17 136.80 C 153.29 137.04 152.76 137.95 153.00 138.83 C 153.23 139.71 154.14 140.24 155.02 140.00 Z M 155.95 139.76 L 156.99 139.48 C 157.87 139.24 158.40 138.34 158.16 137.45 C 157.92 136.57 157.02 136.04 156.13 136.28 L 155.09 136.56 C 154.21 136.79 153.69 137.70 153.92 138.59 C 154.16 139.47 155.07 139.99 155.95 139.76 Z M 156.99 139.48 L 157.98 139.22 C 158.87 138.98 159.39 138.07 159.16 137.19 C 158.92 136.30 158.01 135.78 157.13 136.01 L 156.13 136.28 C 155.25 136.52 154.72 137.42 154.96 138.31 C 155.19 139.19 156.10 139.72 156.99 139.48 Z M 157.97 139.22 L 158.93 138.97 C 159.82 138.74 160.35 137.83 160.11 136.95 C 159.88 136.06 158.98 135.53 158.09 135.76 L 157.14 136.01 C 156.25 136.24 155.72 137.15 155.95 138.04 C 156.18 138.92 157.09 139.45 157.97 139.22 Z M 158.92 138.97 L 159.84 138.74 C 160.73 138.51 161.27 137.61 161.04 136.72 C 160.82 135.84 159.92 135.30 159.03 135.52 L 158.10 135.76 C 157.22 135.98 156.68 136.89 156.90 137.77 C 157.13 138.66 158.03 139.20 158.92 138.97 Z M 159.82 138.74 L 160.76 138.52 C 161.65 138.30 162.20 137.41 161.99 136.52 C 161.77 135.63 160.88 135.08 159.99 135.29 L 159.05 135.52 C 158.16 135.73 157.61 136.63 157.82 137.52 C 158.04 138.41 158.93 138.96 159.82 138.74 Z M 160.74 138.52 L 161.75 138.29 C 162.64 138.09 163.20 137.21 163.00 136.31 C 162.80 135.42 161.91 134.86 161.02 135.06 L 160.01 135.29 C 159.12 135.49 158.56 136.38 158.76 137.27 C 158.96 138.16 159.85 138.72 160.74 138.52 Z M 161.73 138.30 L 162.71 138.09 C 163.61 137.90 164.18 137.01 163.99 136.12 C 163.79 135.22 162.91 134.65 162.02 134.85 L 161.04 135.06 C 160.14 135.25 159.57 136.13 159.76 137.03 C 159.95 137.92 160.84 138.49 161.73 138.30 Z M 162.70 138.09 L 163.66 137.89 C 164.56 137.70 165.13 136.82 164.95 135.93 C 164.76 135.03 163.88 134.46 162.98 134.64 L 162.03 134.84 C 161.13 135.03 160.55 135.91 160.74 136.81 C 160.93 137.70 161.81 138.28 162.70 138.09 Z M 163.66 137.89 L 164.60 137.69 C 165.49 137.51 166.07 136.63 165.88 135.73 C 165.69 134.83 164.81 134.26 163.92 134.45 L 162.98 134.64 C 162.09 134.83 161.51 135.71 161.70 136.61 C 161.89 137.50 162.77 138.08 163.66 137.89 Z M 164.60 137.69 L 165.52 137.50 C 166.42 137.31 166.99 136.43 166.80 135.53 C 166.61 134.64 165.73 134.06 164.84 134.25 L 163.91 134.45 C 163.02 134.64 162.45 135.52 162.63 136.41 C 162.82 137.31 163.70 137.88 164.60 137.69 Z M 165.51 137.50 L 166.45 137.31 C 167.35 137.13 167.93 136.25 167.75 135.35 C 167.57 134.46 166.69 133.88 165.79 134.06 L 164.85 134.25 C 163.95 134.43 163.37 135.31 163.55 136.21 C 163.74 137.10 164.61 137.68 165.51 137.50 Z M 166.43 137.31 L 167.43 137.13 C 168.33 136.96 168.93 136.09 168.76 135.19 C 168.59 134.29 167.73 133.70 166.82 133.87 L 165.82 134.05 C 164.92 134.22 164.33 135.09 164.49 135.99 C 164.66 136.89 165.53 137.48 166.43 137.31 Z M 167.40 137.13 L 168.45 136.96 C 169.35 136.81 169.97 135.96 169.82 135.05 C 169.67 134.15 168.81 133.54 167.91 133.69 L 166.86 133.86 C 165.96 134.01 165.34 134.86 165.49 135.77 C 165.64 136.67 166.49 137.28 167.40 137.13 Z M 168.42 136.96 L 169.35 136.83 C 170.25 136.70 170.88 135.86 170.75 134.95 C 170.62 134.04 169.78 133.42 168.87 133.55 L 167.94 133.68 C 167.04 133.81 166.41 134.65 166.54 135.56 C 166.67 136.47 167.51 137.10 168.42 136.96 Z M 169.32 136.83 L 170.30 136.70 C 171.21 136.59 171.85 135.76 171.73 134.85 C 171.61 133.94 170.78 133.30 169.88 133.42 L 168.89 133.55 C 167.99 133.66 167.35 134.49 167.46 135.40 C 167.58 136.31 168.41 136.95 169.32 136.83 Z M 170.28 136.71 L 171.30 136.59 C 172.21 136.48 172.86 135.66 172.75 134.75 C 172.64 133.84 171.82 133.19 170.91 133.30 L 169.90 133.42 C 168.99 133.52 168.34 134.35 168.44 135.25 C 168.55 136.16 169.37 136.81 170.28 136.71 Z M 171.28 136.59 L 172.31 136.48 C 173.22 136.39 173.88 135.57 173.78 134.66 C 173.69 133.75 172.87 133.09 171.96 133.19 L 170.93 133.30 C 170.02 133.39 169.36 134.21 169.46 135.12 C 169.55 136.02 170.37 136.68 171.28 136.59 Z M 172.29 136.48 L 173.32 136.39 C 174.23 136.30 174.90 135.50 174.81 134.59 C 174.73 133.68 173.92 133.01 173.01 133.09 L 171.98 133.19 C 171.07 133.27 170.40 134.08 170.49 134.99 C 170.57 135.90 171.38 136.57 172.29 136.48 Z M 173.29 136.40 L 174.48 136.31 C 175.39 136.24 176.08 135.44 176.01 134.52 C 175.94 133.61 175.14 132.92 174.22 132.99 L 173.04 133.08 C 172.12 133.15 171.44 133.95 171.51 134.86 C 171.58 135.78 172.37 136.47 173.29 136.40 Z M 174.40 136.33 L 175.52 136.29 C 176.45 136.27 177.18 135.49 177.15 134.56 C 177.12 133.64 176.34 132.91 175.42 132.93 L 174.30 132.97 C 173.37 133.00 172.64 133.77 172.67 134.70 C 172.70 135.63 173.47 136.36 174.40 136.33 Z M 175.36 136.31 L 176.34 136.37 C 177.28 136.43 178.09 135.72 178.15 134.78 C 178.21 133.85 177.49 133.04 176.56 132.98 L 175.57 132.92 C 174.64 132.86 173.83 133.57 173.77 134.51 C 173.71 135.44 174.42 136.25 175.36 136.31 Z M 176.04 136.34 L 176.83 136.54 C 177.75 136.77 178.69 136.21 178.91 135.29 C 179.14 134.37 178.58 133.44 177.66 133.21 L 176.86 133.01 C 175.94 132.78 175.01 133.34 174.78 134.26 C 174.55 135.18 175.12 136.12 176.04 136.34 Z M 176.22 136.28 L 176.88 136.76 C 177.65 137.32 178.74 137.15 179.30 136.38 C 179.87 135.61 179.70 134.52 178.93 133.95 L 178.27 133.47 C 177.50 132.91 176.41 133.08 175.85 133.85 C 175.28 134.62 175.45 135.71 176.22 136.28 Z M 176.29 136.03 L 176.64 136.88 C 177.02 137.77 178.05 138.19 178.94 137.82 C 179.83 137.44 180.25 136.41 179.87 135.52 L 179.52 134.68 C 179.14 133.78 178.12 133.37 177.23 133.74 C 176.33 134.11 175.91 135.14 176.29 136.03 Z M 176.50 136.32 L 176.57 137.35 C 176.63 138.33 177.48 139.06 178.45 139.00 C 179.42 138.93 180.16 138.09 180.09 137.11 L 180.02 136.08 C 179.95 135.11 179.11 134.37 178.14 134.44 C 177.16 134.50 176.43 135.35 176.50 136.32 Z M 176.55 137.14 L 176.50 138.17 C 176.45 139.15 177.20 139.99 178.18 140.04 C 179.16 140.09 180.00 139.33 180.05 138.35 L 180.11 137.33 C 180.16 136.34 179.40 135.51 178.42 135.46 C 177.44 135.41 176.60 136.16 176.55 137.14 Z M 176.50 138.10 L 176.41 139.06 C 176.32 140.04 177.05 140.91 178.03 141.00 C 179.01 141.08 179.88 140.36 179.96 139.38 L 180.05 138.42 C 180.14 137.44 179.42 136.57 178.44 136.49 C 177.46 136.40 176.59 137.12 176.50 138.10 Z M 176.42 139.01 L 176.30 140.00 C 176.18 140.97 176.88 141.86 177.86 141.98 C 178.83 142.10 179.72 141.40 179.84 140.42 L 179.96 139.43 C 180.08 138.45 179.38 137.57 178.40 137.45 C 177.42 137.33 176.54 138.03 176.42 139.01 Z M 176.30 139.95 L 176.15 141.00 C 176.01 141.97 176.69 142.88 177.66 143.02 C 178.64 143.16 179.54 142.48 179.68 141.51 L 179.83 140.46 C 179.98 139.49 179.30 138.58 178.32 138.44 C 177.35 138.30 176.45 138.98 176.30 139.95 Z M 176.16 140.97 L 176.02 141.80 C 175.87 142.78 176.53 143.69 177.50 143.85 C 178.48 144.00 179.39 143.34 179.55 142.37 L 179.68 141.53 C 179.84 140.56 179.17 139.65 178.20 139.49 C 177.23 139.34 176.31 140.00 176.16 140.97 Z M 176.03 141.78 L 175.88 142.66 C 175.71 143.63 176.36 144.56 177.33 144.72 C 178.30 144.89 179.22 144.24 179.39 143.27 L 179.54 142.39 C 179.71 141.42 179.06 140.50 178.09 140.33 C 177.12 140.16 176.20 140.81 176.03 141.78 Z M 175.88 142.64 L 175.70 143.61 C 175.52 144.58 176.16 145.51 177.13 145.68 C 178.10 145.86 179.03 145.22 179.21 144.25 L 179.39 143.29 C 179.57 142.32 178.93 141.39 177.96 141.21 C 176.99 141.03 176.06 141.67 175.88 142.64 Z M 175.70 143.59 L 175.50 144.66 C 175.31 145.63 175.94 146.56 176.91 146.75 C 177.87 146.94 178.81 146.31 179.00 145.34 L 179.21 144.27 C 179.40 143.30 178.76 142.37 177.80 142.18 C 176.83 141.99 175.89 142.62 175.70 143.59 Z M 175.50 144.65 L 175.26 145.81 C 175.06 146.77 175.69 147.72 176.65 147.91 C 177.62 148.11 178.56 147.49 178.76 146.52 L 179.00 145.36 C 179.19 144.39 178.57 143.45 177.60 143.25 C 176.64 143.06 175.69 143.68 175.50 144.65 Z M 175.26 145.80 L 175.08 146.70 C 174.87 147.66 175.49 148.61 176.46 148.81 C 177.42 149.01 178.37 148.39 178.57 147.43 L 178.76 146.53 C 178.96 145.57 178.34 144.62 177.38 144.42 C 176.41 144.22 175.47 144.83 175.26 145.80 Z M 175.08 146.69 L 174.88 147.64 C 174.67 148.60 175.29 149.55 176.25 149.75 C 177.21 149.96 178.16 149.34 178.36 148.38 L 178.57 147.43 C 178.77 146.47 178.16 145.52 177.19 145.32 C 176.23 145.11 175.28 145.73 175.08 146.69 Z M 174.88 147.64 L 174.67 148.62 C 174.46 149.59 175.07 150.53 176.04 150.74 C 177.00 150.95 177.95 150.33 178.15 149.37 L 178.36 148.38 C 178.57 147.42 177.96 146.47 176.99 146.27 C 176.03 146.06 175.09 146.68 174.88 147.64 Z M 174.67 148.62 L 174.45 149.63 C 174.25 150.59 174.86 151.54 175.82 151.75 C 176.78 151.95 177.73 151.34 177.93 150.38 L 178.15 149.37 C 178.36 148.41 177.75 147.46 176.78 147.26 C 175.82 147.05 174.88 147.66 174.67 148.62 Z M 174.45 149.63 L 174.23 150.65 C 174.03 151.61 174.64 152.56 175.60 152.76 C 176.56 152.97 177.51 152.36 177.71 151.40 L 177.93 150.38 C 178.14 149.42 177.53 148.47 176.57 148.27 C 175.61 148.06 174.66 148.67 174.45 149.63 Z M 174.24 150.65 L 174.02 151.66 C 173.81 152.62 174.42 153.56 175.38 153.77 C 176.34 153.98 177.29 153.37 177.49 152.41 L 177.71 151.40 C 177.92 150.44 177.31 149.49 176.35 149.29 C 175.39 149.08 174.44 149.69 174.24 150.65 Z M 174.02 151.66 L 173.81 152.65 C 173.61 153.61 174.22 154.55 175.18 154.76 C 176.14 154.96 177.08 154.35 177.28 153.39 L 177.49 152.40 C 177.70 151.44 177.09 150.50 176.13 150.30 C 175.17 150.09 174.22 150.70 174.02 151.66 Z M 173.81 152.66 L 173.59 153.72 C 173.39 154.68 174.00 155.62 174.96 155.82 C 175.92 156.02 176.86 155.41 177.06 154.45 L 177.28 153.39 C 177.48 152.43 176.87 151.49 175.91 151.29 C 174.95 151.08 174.01 151.70 173.81 152.66 Z M 173.59 153.73 L 173.38 154.75 C 173.18 155.71 173.79 156.64 174.75 156.84 C 175.71 157.04 176.64 156.43 176.84 155.47 L 177.05 154.45 C 177.25 153.49 176.64 152.55 175.68 152.35 C 174.73 152.16 173.79 152.77 173.59 153.73 Z M 173.38 154.76 L 173.18 155.74 C 172.98 156.70 173.60 157.63 174.55 157.83 C 175.51 158.02 176.44 157.41 176.63 156.46 L 176.84 155.47 C 177.03 154.51 176.42 153.58 175.47 153.38 C 174.51 153.19 173.58 153.80 173.38 154.76 Z M 173.18 155.75 L 172.99 156.71 C 172.79 157.66 173.41 158.59 174.36 158.79 C 175.31 158.98 176.24 158.37 176.43 157.41 L 176.63 156.45 C 176.83 155.50 176.21 154.57 175.26 154.38 C 174.31 154.18 173.38 154.79 173.18 155.75 Z M 172.99 156.71 L 172.80 157.65 C 172.60 158.60 173.22 159.52 174.17 159.72 C 175.12 159.91 176.04 159.30 176.24 158.35 L 176.43 157.41 C 176.62 156.46 176.01 155.54 175.06 155.34 C 174.11 155.15 173.18 155.76 172.99 156.71 Z M 172.80 157.65 L 172.61 158.57 C 172.42 159.51 173.03 160.44 173.98 160.63 C 174.92 160.83 175.85 160.22 176.04 159.27 L 176.23 158.35 C 176.43 157.40 175.82 156.48 174.87 156.28 C 173.92 156.09 173.00 156.70 172.80 157.65 Z M 172.62 158.56 L 172.42 159.54 C 172.22 160.49 172.83 161.41 173.77 161.61 C 174.72 161.80 175.64 161.19 175.84 160.25 L 176.04 159.27 C 176.23 158.33 175.63 157.40 174.68 157.21 C 173.74 157.01 172.82 157.62 172.62 158.56 Z M 172.42 159.54 L 172.22 160.54 C 172.02 161.48 172.62 162.40 173.56 162.60 C 174.50 162.79 175.42 162.19 175.62 161.25 L 175.83 160.25 C 176.03 159.31 175.42 158.39 174.48 158.19 C 173.54 158.00 172.62 158.60 172.42 159.54 Z M 172.22 160.54 L 172.02 161.53 C 171.82 162.46 172.42 163.38 173.35 163.58 C 174.29 163.77 175.21 163.17 175.40 162.24 L 175.61 161.25 C 175.81 160.32 175.21 159.40 174.27 159.20 C 173.34 159.00 172.42 159.60 172.22 160.54 Z M 172.02 161.53 L 171.82 162.50 C 171.62 163.43 172.22 164.35 173.15 164.54 C 174.08 164.74 174.99 164.14 175.19 163.21 L 175.40 162.24 C 175.59 161.31 175.00 160.39 174.07 160.20 C 173.13 160.00 172.22 160.59 172.02 161.53 Z M 171.83 162.50 L 171.62 163.46 C 171.43 164.39 172.02 165.30 172.95 165.50 C 173.87 165.69 174.78 165.10 174.98 164.17 L 175.18 163.21 C 175.38 162.28 174.79 161.37 173.86 161.18 C 172.93 160.98 172.02 161.57 171.83 162.50 Z M 171.63 163.47 L 171.43 164.42 C 171.23 165.34 171.83 166.24 172.75 166.44 C 173.67 166.63 174.58 166.04 174.77 165.12 L 174.97 164.17 C 175.17 163.25 174.57 162.34 173.65 162.15 C 172.73 161.95 171.82 162.54 171.63 163.47 Z M 171.44 164.42 L 171.25 165.34 C 171.05 166.26 171.64 167.16 172.56 167.35 C 173.48 167.54 174.38 166.95 174.57 166.04 L 174.76 165.11 C 174.95 164.20 174.37 163.30 173.45 163.11 C 172.53 162.91 171.63 163.50 171.44 164.42 Z M 171.25 165.35 L 171.07 166.28 C 170.88 167.19 171.47 168.08 172.38 168.27 C 173.29 168.46 174.19 167.87 174.37 166.95 L 174.56 166.03 C 174.75 165.11 174.16 164.22 173.25 164.04 C 172.33 163.85 171.44 164.44 171.25 165.35 Z M 171.07 166.29 L 170.89 167.24 C 170.71 168.15 171.30 169.03 172.21 169.21 C 173.12 169.39 174.00 168.80 174.18 167.89 L 174.36 166.94 C 174.54 166.03 173.95 165.15 173.04 164.97 C 172.13 164.79 171.25 165.38 171.07 166.29 Z M 170.90 167.26 L 170.71 168.24 C 170.54 169.15 171.14 170.02 172.04 170.19 C 172.94 170.35 173.81 169.76 173.98 168.86 L 174.17 167.87 C 174.34 166.97 173.74 166.10 172.84 165.93 C 171.94 165.76 171.07 166.35 170.90 167.26 Z M 170.72 168.26 L 170.54 169.30 C 170.38 170.20 170.98 171.06 171.88 171.22 C 172.78 171.37 173.63 170.77 173.79 169.87 L 173.98 168.84 C 174.13 167.94 173.53 167.08 172.64 166.92 C 171.74 166.76 170.88 167.36 170.72 168.26 Z M 170.54 169.32 L 170.37 170.37 C 170.22 171.27 170.83 172.11 171.72 172.26 C 172.62 172.41 173.46 171.80 173.61 170.91 L 173.78 169.86 C 173.93 168.96 173.33 168.12 172.43 167.97 C 171.54 167.82 170.69 168.42 170.54 169.32 Z M 170.38 170.39 L 170.24 171.29 C 170.10 172.18 170.71 173.01 171.60 173.15 C 172.49 173.29 173.32 172.68 173.46 171.79 L 173.60 170.89 C 173.74 170.00 173.13 169.17 172.24 169.03 C 171.35 168.89 170.52 169.50 170.38 170.39 Z M 170.25 171.30 L 170.11 172.24 C 169.98 173.13 170.59 173.95 171.47 174.08 C 172.36 174.22 173.18 173.60 173.31 172.72 L 173.45 171.78 C 173.59 170.89 172.97 170.07 172.09 169.94 C 171.20 169.80 170.38 170.41 170.25 171.30 Z M 170.12 172.25 L 169.98 173.23 C 169.85 174.11 170.46 174.92 171.34 175.05 C 172.22 175.18 173.04 174.57 173.16 173.68 L 173.30 172.71 C 173.43 171.83 172.82 171.01 171.94 170.89 C 171.06 170.76 170.24 171.37 170.12 172.25 Z M 169.99 173.23 L 169.85 174.24 C 169.72 175.11 170.33 175.92 171.21 176.04 C 172.08 176.17 172.89 175.56 173.01 174.68 L 173.15 173.68 C 173.28 172.80 172.67 171.99 171.79 171.87 C 170.92 171.75 170.11 172.36 169.99 173.23 Z M 169.86 174.24 L 169.72 175.27 C 169.60 176.14 170.21 176.94 171.07 177.06 C 171.94 177.18 172.75 176.57 172.86 175.70 L 173.00 174.67 C 173.12 173.81 172.51 173.00 171.65 172.89 C 170.78 172.77 169.97 173.38 169.86 174.24 Z M 169.73 175.27 L 169.59 176.31 C 169.47 177.18 170.08 177.97 170.94 178.09 C 171.80 178.21 172.60 177.60 172.71 176.74 L 172.85 175.70 C 172.97 174.83 172.36 174.04 171.50 173.92 C 170.64 173.80 169.84 174.41 169.73 175.27 Z M 169.60 176.32 L 169.46 177.37 C 169.34 178.22 169.94 179.01 170.80 179.13 C 171.66 179.24 172.45 178.64 172.56 177.78 L 172.70 176.73 C 172.82 175.87 172.22 175.09 171.36 174.97 C 170.50 174.86 169.71 175.46 169.60 176.32 Z M 169.46 177.37 L 169.42 177.72 C 169.30 178.57 169.90 179.36 170.76 179.47 C 171.61 179.59 172.40 178.99 172.51 178.13 L 172.56 177.78 C 172.67 176.93 172.07 176.14 171.22 176.03 C 170.36 175.91 169.58 176.51 169.46 177.37 Z"
      fill="black"
      fill-rule="nonzero" /><path d="M 147.46 124.06 L 147.28 125.05 C 147.12 125.90 147.69 126.72 148.54 126.88 C 149.39 127.03 150.21 126.47 150.36 125.62 L 150.55 124.63 C 150.70 123.78 150.14 122.96 149.29 122.80 C 148.43 122.65 147.62 123.21 147.46 124.06 Z M 147.25 125.06 L 147.07 126.04 C 146.92 126.91 147.50 127.74 148.37 127.90 C 149.24 128.05 150.07 127.47 150.22 126.60 L 150.40 125.61 C 150.55 124.74 149.97 123.91 149.10 123.76 C 148.23 123.61 147.40 124.19 147.25 125.06 Z M 147.04 126.07 L 146.88 127.05 C 146.74 127.94 147.35 128.78 148.24 128.92 C 149.13 129.06 149.96 128.45 150.10 127.56 L 150.26 126.58 C 150.40 125.69 149.79 124.85 148.90 124.71 C 148.01 124.57 147.18 125.18 147.04 126.07 Z M 146.85 127.09 L 146.72 128.06 C 146.60 128.96 147.24 129.80 148.14 129.92 C 149.05 130.04 149.88 129.40 150.01 128.49 L 150.13 127.53 C 150.26 126.62 149.62 125.79 148.71 125.66 C 147.80 125.54 146.97 126.18 146.85 127.09 Z M 146.70 128.09 L 146.59 129.04 C 146.49 129.96 147.16 130.79 148.08 130.89 C 149.00 130.99 149.83 130.32 149.93 129.40 L 150.03 128.45 C 150.13 127.53 149.46 126.71 148.54 126.61 C 147.62 126.51 146.80 127.17 146.70 128.09 Z M 146.58 129.06 L 146.49 130.04 C 146.40 130.97 147.08 131.80 148.01 131.88 C 148.94 131.97 149.76 131.29 149.85 130.36 L 149.94 129.38 C 150.03 128.45 149.35 127.63 148.42 127.54 C 147.49 127.45 146.67 128.14 146.58 129.06 Z M 146.47 130.05 L 146.38 131.09 C 146.30 132.02 146.99 132.85 147.92 132.94 C 148.86 133.02 149.69 132.33 149.77 131.39 L 149.86 130.35 C 149.95 129.42 149.26 128.59 148.32 128.51 C 147.38 128.42 146.56 129.11 146.47 130.05 Z M 146.37 131.08 L 146.28 132.05 C 146.19 132.99 146.88 133.83 147.82 133.92 C 148.77 134.01 149.60 133.31 149.69 132.37 L 149.78 131.40 C 149.87 130.46 149.18 129.62 148.24 129.53 C 147.29 129.44 146.46 130.14 146.37 131.08 Z M 146.27 132.04 L 146.18 132.96 C 146.09 133.91 146.78 134.75 147.72 134.85 C 148.67 134.94 149.51 134.25 149.60 133.30 L 149.70 132.38 C 149.79 131.44 149.10 130.59 148.15 130.50 C 147.21 130.41 146.37 131.10 146.27 132.04 Z M 146.18 132.96 L 146.08 133.94 C 145.98 134.88 146.67 135.73 147.62 135.83 C 148.57 135.92 149.41 135.23 149.51 134.28 L 149.61 133.31 C 149.70 132.36 149.01 131.51 148.07 131.42 C 147.12 131.32 146.27 132.01 146.18 132.96 Z M 146.07 133.94 L 145.97 134.96 C 145.87 135.91 146.57 136.76 147.52 136.86 C 148.47 136.95 149.31 136.26 149.41 135.31 L 149.51 134.28 C 149.61 133.33 148.92 132.49 147.97 132.39 C 147.02 132.29 146.17 132.99 146.07 133.94 Z M 145.97 134.97 L 145.86 136.05 C 145.76 137.00 146.46 137.85 147.41 137.94 C 148.36 138.04 149.21 137.34 149.31 136.39 L 149.41 135.31 C 149.51 134.36 148.81 133.51 147.86 133.41 C 146.91 133.32 146.06 134.01 145.97 134.97 Z M 145.85 136.05 L 145.75 137.10 C 145.66 138.06 146.36 138.90 147.32 139.00 C 148.27 139.09 149.12 138.39 149.21 137.43 L 149.31 136.38 C 149.40 135.43 148.70 134.58 147.75 134.49 C 146.79 134.40 145.95 135.10 145.85 136.05 Z M 145.75 137.11 L 145.65 138.14 C 145.57 139.10 146.27 139.95 147.22 140.04 C 148.18 140.12 149.03 139.42 149.12 138.47 L 149.21 137.43 C 149.30 136.47 148.60 135.63 147.64 135.54 C 146.69 135.45 145.84 136.15 145.75 137.11 Z M 145.65 138.15 L 145.56 139.18 C 145.47 140.14 146.17 140.99 147.13 141.07 C 148.09 141.16 148.93 140.46 149.02 139.50 L 149.12 138.46 C 149.21 137.51 148.50 136.66 147.54 136.57 C 146.59 136.48 145.74 137.19 145.65 138.15 Z M 145.56 139.18 L 145.46 140.19 C 145.38 141.15 146.08 142.00 147.04 142.09 C 148.00 142.17 148.84 141.47 148.93 140.51 L 149.02 139.50 C 149.11 138.54 148.41 137.70 147.45 137.61 C 146.49 137.52 145.64 138.22 145.56 139.18 Z M 145.46 140.19 L 145.37 141.15 C 145.28 142.11 145.99 142.96 146.94 143.05 C 147.90 143.14 148.75 142.43 148.84 141.47 L 148.93 140.51 C 149.02 139.56 148.32 138.71 147.36 138.62 C 146.40 138.53 145.55 139.23 145.46 140.19 Z M 145.37 141.14 L 145.28 142.11 C 145.18 143.06 145.89 143.92 146.84 144.01 C 147.80 144.10 148.66 143.40 148.75 142.44 L 148.84 141.48 C 148.94 140.52 148.23 139.67 147.28 139.58 C 146.32 139.48 145.47 140.18 145.37 141.14 Z M 145.28 142.09 L 145.17 143.19 C 145.07 144.15 145.76 145.01 146.72 145.11 C 147.68 145.21 148.53 144.51 148.63 143.55 L 148.75 142.46 C 148.85 141.50 148.15 140.64 147.19 140.54 C 146.24 140.44 145.38 141.14 145.28 142.09 Z M 145.17 143.18 L 145.06 144.16 C 144.95 145.12 145.64 145.98 146.60 146.08 C 147.56 146.19 148.42 145.50 148.52 144.54 L 148.63 143.57 C 148.74 142.61 148.05 141.75 147.09 141.64 C 146.13 141.54 145.27 142.23 145.17 143.18 Z M 145.06 144.16 L 144.96 145.07 C 144.85 146.03 145.53 146.89 146.49 147.00 C 147.44 147.11 148.31 146.42 148.42 145.47 L 148.52 144.55 C 148.63 143.60 147.94 142.73 146.99 142.62 C 146.03 142.52 145.17 143.20 145.06 144.16 Z M 144.96 145.07 L 144.85 146.01 C 144.75 146.96 145.43 147.82 146.38 147.93 C 147.34 148.04 148.20 147.35 148.31 146.40 L 148.41 145.47 C 148.52 144.51 147.84 143.65 146.88 143.54 C 145.93 143.43 145.07 144.12 144.96 145.07 Z M 144.85 146.01 L 144.75 147.01 C 144.64 147.96 145.33 148.82 146.28 148.92 C 147.24 149.03 148.09 148.34 148.20 147.39 L 148.31 146.39 C 148.41 145.44 147.72 144.58 146.77 144.48 C 145.82 144.37 144.96 145.06 144.85 146.01 Z M 144.75 147.02 L 144.64 148.02 C 144.54 148.97 145.23 149.82 146.18 149.92 C 147.14 150.03 147.99 149.33 148.09 148.38 L 148.20 147.38 C 148.30 146.43 147.61 145.57 146.65 145.47 C 145.70 145.37 144.85 146.06 144.75 147.02 Z M 144.64 148.03 L 144.54 149.02 C 144.45 149.97 145.14 150.82 146.10 150.92 C 147.05 151.01 147.90 150.32 147.99 149.36 L 148.09 148.37 C 148.18 147.42 147.49 146.57 146.54 146.48 C 145.59 146.38 144.74 147.08 144.64 148.03 Z M 144.55 149.03 L 144.45 150.06 C 144.36 151.01 145.06 151.85 146.01 151.94 C 146.96 152.03 147.81 151.33 147.89 150.38 L 147.99 149.35 C 148.08 148.40 147.38 147.56 146.43 147.47 C 145.48 147.38 144.63 148.08 144.55 149.03 Z M 144.46 150.06 L 144.37 151.07 C 144.28 152.02 144.98 152.85 145.93 152.94 C 146.88 153.02 147.71 152.32 147.80 151.38 L 147.89 150.37 C 147.97 149.42 147.27 148.58 146.33 148.50 C 145.38 148.41 144.54 149.11 144.46 150.06 Z M 144.37 151.06 L 144.28 152.04 C 144.19 152.99 144.89 153.82 145.83 153.91 C 146.78 154.00 147.62 153.30 147.70 152.36 L 147.79 151.38 C 147.88 150.44 147.19 149.60 146.24 149.51 C 145.30 149.42 144.46 150.12 144.37 151.06 Z M 144.29 152.02 L 144.19 152.95 C 144.10 153.89 144.78 154.73 145.72 154.83 C 146.66 154.93 147.50 154.24 147.60 153.30 L 147.70 152.37 C 147.79 151.43 147.11 150.59 146.17 150.50 C 145.23 150.40 144.39 151.08 144.29 152.02 Z M 144.20 152.93 L 144.10 153.83 C 143.99 154.77 144.66 155.62 145.59 155.73 C 146.53 155.84 147.38 155.17 147.49 154.23 L 147.59 153.33 C 147.70 152.39 147.03 151.54 146.09 151.43 C 145.16 151.32 144.31 151.99 144.20 152.93 Z M 144.10 153.82 L 143.98 154.79 C 143.86 155.72 144.52 156.58 145.45 156.69 C 146.38 156.81 147.23 156.15 147.35 155.22 L 147.48 154.25 C 147.60 153.32 146.94 152.46 146.01 152.35 C 145.07 152.23 144.22 152.89 144.10 153.82 Z M 143.99 154.78 L 143.84 155.89 C 143.71 156.82 144.36 157.67 145.29 157.80 C 146.22 157.92 147.07 157.27 147.20 156.34 L 147.35 155.23 C 147.47 154.31 146.82 153.45 145.89 153.33 C 144.96 153.20 144.11 153.85 143.99 154.78 Z M 143.84 155.89 L 143.72 156.77 C 143.60 157.69 144.25 158.54 145.17 158.67 C 146.09 158.80 146.94 158.15 147.07 157.23 L 147.19 156.35 C 147.32 155.42 146.67 154.57 145.75 154.45 C 144.82 154.32 143.97 154.97 143.84 155.89 Z M 143.73 156.77 L 143.61 157.67 C 143.48 158.60 144.13 159.44 145.05 159.57 C 145.97 159.69 146.82 159.05 146.94 158.13 L 147.07 157.22 C 147.19 156.30 146.55 155.45 145.62 155.33 C 144.70 155.20 143.85 155.85 143.73 156.77 Z M 143.61 157.68 L 143.48 158.66 C 143.36 159.57 144.00 160.42 144.92 160.54 C 145.84 160.66 146.69 160.02 146.81 159.10 L 146.94 158.12 C 147.06 157.20 146.41 156.36 145.50 156.24 C 144.58 156.12 143.73 156.76 143.61 157.68 Z M 143.49 158.66 L 143.35 159.70 C 143.23 160.62 143.88 161.46 144.80 161.58 C 145.71 161.69 146.55 161.05 146.67 160.13 L 146.80 159.09 C 146.92 158.17 146.27 157.34 145.36 157.22 C 144.44 157.10 143.60 157.75 143.49 158.66 Z M 143.36 159.71 L 143.22 160.81 C 143.11 161.72 143.76 162.56 144.67 162.67 C 145.59 162.78 146.42 162.13 146.53 161.22 L 146.67 160.12 C 146.78 159.21 146.13 158.37 145.21 158.26 C 144.30 158.15 143.47 158.80 143.36 159.71 Z M 143.23 160.82 L 143.10 161.92 C 142.99 162.83 143.65 163.65 144.56 163.76 C 145.47 163.86 146.29 163.21 146.40 162.30 L 146.53 161.20 C 146.63 160.29 145.98 159.47 145.07 159.36 C 144.16 159.26 143.33 159.91 143.23 160.82 Z M 143.11 161.93 L 142.99 162.96 C 142.90 163.86 143.55 164.68 144.46 164.78 C 145.36 164.88 146.18 164.22 146.28 163.32 L 146.39 162.29 C 146.49 161.38 145.84 160.56 144.93 160.46 C 144.02 160.36 143.21 161.02 143.11 161.93 Z M 143.00 162.97 L 142.90 164.01 C 142.80 164.91 143.46 165.71 144.36 165.81 C 145.26 165.90 146.07 165.25 146.16 164.35 L 146.27 163.31 C 146.36 162.41 145.71 161.60 144.81 161.50 C 143.91 161.41 143.10 162.06 143.00 162.97 Z M 142.91 164.01 L 142.80 165.04 C 142.71 165.94 143.37 166.74 144.26 166.83 C 145.16 166.92 145.96 166.26 146.05 165.37 L 146.15 164.34 C 146.24 163.44 145.59 162.64 144.69 162.55 C 143.80 162.46 143.00 163.12 142.91 164.01 Z M 142.81 165.05 L 142.71 166.05 C 142.63 166.94 143.28 167.73 144.17 167.82 C 145.06 167.91 145.85 167.26 145.94 166.37 L 146.04 165.36 C 146.12 164.47 145.47 163.68 144.58 163.59 C 143.69 163.51 142.90 164.16 142.81 165.05 Z M 142.73 166.05 L 142.63 167.01 C 142.55 167.89 143.19 168.68 144.08 168.77 C 144.96 168.85 145.75 168.20 145.83 167.32 L 145.93 166.36 C 146.01 165.48 145.37 164.69 144.48 164.61 C 143.60 164.52 142.81 165.17 142.73 166.05 Z M 142.64 167.01 L 142.55 167.93 C 142.47 168.81 143.11 169.59 143.99 169.67 C 144.87 169.76 145.65 169.12 145.73 168.24 L 145.82 167.32 C 145.91 166.44 145.27 165.66 144.39 165.58 C 143.51 165.49 142.73 166.13 142.64 167.01 Z M 142.57 167.93 L 142.46 169.11 C 142.37 169.98 143.00 170.75 143.87 170.84 C 144.74 170.92 145.51 170.29 145.60 169.42 L 145.71 168.24 C 145.80 167.37 145.17 166.60 144.30 166.52 C 143.43 166.43 142.66 167.06 142.57 167.93 Z M 142.48 169.10 L 142.37 170.14 C 142.28 170.99 142.90 171.76 143.75 171.85 C 144.61 171.94 145.37 171.32 145.46 170.47 L 145.57 169.43 C 145.66 168.58 145.04 167.81 144.19 167.72 C 143.34 167.63 142.57 168.25 142.48 169.10 Z M 142.40 170.12 L 142.29 171.05 C 142.19 171.89 142.79 172.65 143.63 172.75 C 144.47 172.85 145.23 172.25 145.32 171.41 L 145.43 170.48 C 145.53 169.65 144.93 168.89 144.10 168.79 C 143.26 168.69 142.50 169.29 142.40 170.12 Z M 142.32 171.03 L 142.20 171.87 C 142.09 172.70 142.66 173.45 143.49 173.57 C 144.31 173.68 145.07 173.10 145.18 172.28 L 145.30 171.44 C 145.41 170.61 144.83 169.85 144.01 169.74 C 143.19 169.63 142.43 170.20 142.32 171.03 Z M 142.23 171.84 L 142.07 172.83 C 141.93 173.64 142.48 174.40 143.29 174.53 C 144.09 174.66 144.86 174.12 144.99 173.31 L 145.15 172.32 C 145.29 171.51 144.74 170.75 143.93 170.62 C 143.12 170.48 142.36 171.03 142.23 171.84 Z M 142.09 172.79 L 141.90 173.78 C 141.75 174.57 142.27 175.34 143.06 175.49 C 143.86 175.64 144.62 175.12 144.78 174.33 L 144.96 173.34 C 145.12 172.55 144.60 171.78 143.80 171.63 C 143.01 171.48 142.24 172.00 142.09 172.79 Z M 141.92 173.76 L 141.72 174.71 C 141.56 175.49 142.06 176.26 142.84 176.42 C 143.62 176.58 144.39 176.09 144.55 175.30 L 144.75 174.35 C 144.92 173.57 144.42 172.80 143.64 172.64 C 142.86 172.47 142.09 172.97 141.92 173.76 Z M 141.74 174.70 L 141.65 175.11 C 141.48 175.88 141.97 176.65 142.75 176.81 C 143.52 176.98 144.28 176.49 144.45 175.72 L 144.54 175.31 C 144.71 174.54 144.21 173.77 143.44 173.60 C 142.67 173.44 141.90 173.93 141.74 174.70 Z"
      fill="black"
      fill-rule="nonzero" /><path d="M 138.83 157.21 L 138.02 157.79 C 137.32 158.29 137.17 159.27 137.67 159.97 C 138.18 160.67 139.15 160.83 139.86 160.33 L 140.66 159.75 C 141.36 159.24 141.52 158.26 141.01 157.56 C 140.50 156.86 139.53 156.70 138.83 157.21 Z M 137.97 157.79 L 137.18 158.39 C 136.47 158.93 136.34 159.93 136.88 160.64 C 137.42 161.34 138.42 161.47 139.13 160.93 L 139.91 160.33 C 140.62 159.79 140.75 158.79 140.21 158.08 C 139.67 157.38 138.67 157.25 137.97 157.79 Z M 137.08 158.42 L 136.32 159.07 C 135.63 159.66 135.55 160.70 136.14 161.39 C 136.73 162.07 137.77 162.15 138.46 161.56 L 139.22 160.91 C 139.91 160.32 139.99 159.28 139.40 158.59 C 138.81 157.90 137.77 157.83 137.08 158.42 Z M 136.20 159.14 L 135.50 159.84 C 134.85 160.50 134.86 161.55 135.51 162.20 C 136.16 162.85 137.22 162.85 137.87 162.20 L 138.57 161.50 C 139.22 160.84 139.22 159.78 138.57 159.13 C 137.91 158.48 136.85 158.49 136.20 159.14 Z M 135.41 159.92 L 134.77 160.67 C 134.16 161.37 134.24 162.43 134.94 163.04 C 135.65 163.65 136.71 163.57 137.32 162.87 L 137.96 162.12 C 138.57 161.42 138.49 160.35 137.79 159.75 C 137.08 159.14 136.02 159.22 135.41 159.92 Z M 134.72 160.73 L 134.10 161.52 C 133.52 162.25 133.65 163.31 134.38 163.88 C 135.11 164.46 136.17 164.33 136.75 163.60 L 137.37 162.81 C 137.94 162.08 137.82 161.02 137.08 160.44 C 136.35 159.87 135.29 160.00 134.72 160.73 Z M 134.07 161.55 L 133.46 162.37 C 132.90 163.11 133.05 164.17 133.80 164.73 C 134.55 165.29 135.60 165.13 136.16 164.39 L 136.77 163.57 C 137.33 162.82 137.18 161.77 136.43 161.21 C 135.68 160.65 134.63 160.80 134.07 161.55 Z M 133.45 162.37 L 132.88 163.15 C 132.32 163.90 132.48 164.96 133.23 165.51 C 133.98 166.07 135.04 165.91 135.59 165.16 L 136.17 164.38 C 136.72 163.63 136.57 162.57 135.82 162.02 C 135.07 161.46 134.01 161.62 133.45 162.37 Z M 132.88 163.15 L 132.30 163.92 C 131.75 164.67 131.90 165.73 132.65 166.29 C 133.40 166.84 134.46 166.69 135.01 165.94 L 135.59 165.16 C 136.15 164.41 135.99 163.35 135.24 162.80 C 134.50 162.24 133.44 162.40 132.88 163.15 Z M 132.31 163.92 L 131.71 164.72 C 131.15 165.47 131.30 166.52 132.04 167.08 C 132.79 167.64 133.85 167.49 134.41 166.75 L 135.01 165.94 C 135.57 165.20 135.42 164.14 134.67 163.58 C 133.93 163.02 132.87 163.17 132.31 163.92 Z M 131.71 164.71 L 131.08 165.55 C 130.51 166.29 130.65 167.35 131.40 167.91 C 132.14 168.48 133.20 168.33 133.76 167.59 L 134.40 166.76 C 134.96 166.01 134.82 164.96 134.08 164.39 C 133.34 163.83 132.28 163.97 131.71 164.71 Z M 131.09 165.54 L 130.51 166.29 C 129.94 167.02 130.07 168.08 130.81 168.65 C 131.55 169.22 132.60 169.09 133.17 168.35 L 133.75 167.60 C 134.32 166.87 134.18 165.81 133.45 165.24 C 132.71 164.67 131.65 164.81 131.09 165.54 Z M 130.52 166.28 L 129.92 167.04 C 129.35 167.77 129.48 168.83 130.21 169.40 C 130.94 169.97 131.99 169.84 132.56 169.12 L 133.16 168.36 C 133.73 167.63 133.61 166.57 132.88 166.00 C 132.15 165.43 131.09 165.55 130.52 166.28 Z M 129.94 167.03 L 129.31 167.82 C 128.73 168.54 128.85 169.59 129.57 170.17 C 130.30 170.75 131.35 170.63 131.93 169.91 L 132.55 169.12 C 133.13 168.40 133.01 167.35 132.29 166.77 C 131.56 166.19 130.51 166.31 129.94 167.03 Z M 129.32 167.81 L 128.67 168.62 C 128.09 169.33 128.20 170.38 128.91 170.96 C 129.63 171.54 130.68 171.43 131.26 170.72 L 131.91 169.91 C 132.49 169.20 132.38 168.15 131.67 167.57 C 130.95 166.99 129.90 167.10 129.32 167.81 Z M 128.68 168.61 L 128.01 169.42 C 127.42 170.13 127.52 171.18 128.23 171.76 C 128.94 172.35 129.99 172.25 130.57 171.54 L 131.24 170.73 C 131.83 170.02 131.73 168.97 131.02 168.39 C 130.32 167.80 129.27 167.90 128.68 168.61 Z M 128.02 169.42 L 127.39 170.17 C 126.80 170.87 126.89 171.91 127.59 172.50 C 128.29 173.09 129.33 173.00 129.92 172.30 L 130.56 171.55 C 131.14 170.85 131.05 169.81 130.36 169.22 C 129.66 168.63 128.61 168.72 128.02 169.42 Z M 127.41 170.16 L 126.76 170.92 C 126.16 171.61 126.24 172.65 126.93 173.24 C 127.62 173.84 128.66 173.76 129.25 173.07 L 129.90 172.31 C 130.50 171.62 130.42 170.58 129.73 169.99 C 129.04 169.40 128.00 169.48 127.41 170.16 Z M 126.77 170.91 L 126.11 171.67 C 125.51 172.35 125.58 173.38 126.26 173.98 C 126.94 174.58 127.97 174.51 128.57 173.83 L 129.23 173.08 C 129.83 172.40 129.76 171.36 129.08 170.76 C 128.41 170.17 127.37 170.23 126.77 170.91 Z M 126.13 171.66 L 125.46 172.41 C 124.85 173.08 124.91 174.11 125.58 174.71 C 126.24 175.31 127.27 175.26 127.88 174.59 L 128.55 173.84 C 129.15 173.17 129.10 172.14 128.43 171.54 C 127.76 170.94 126.73 170.99 126.13 171.66 Z M 125.48 172.40 L 124.80 173.13 C 124.19 173.79 124.23 174.82 124.88 175.42 C 125.54 176.03 126.56 175.99 127.17 175.34 L 127.85 174.60 C 128.46 173.94 128.42 172.92 127.77 172.31 C 127.11 171.70 126.09 171.74 125.48 172.40 Z M 124.82 173.12 L 124.11 173.86 C 123.50 174.51 123.52 175.52 124.16 176.14 C 124.80 176.75 125.82 176.73 126.43 176.09 L 127.14 175.35 C 127.76 174.71 127.74 173.69 127.10 173.07 C 126.45 172.46 125.44 172.48 124.82 173.12 Z M 124.14 173.85 L 123.42 174.58 C 122.80 175.21 122.80 176.22 123.43 176.84 C 124.06 177.46 125.07 177.45 125.69 176.83 L 126.41 176.10 C 127.03 175.47 127.02 174.46 126.40 173.84 C 125.77 173.22 124.76 173.23 124.14 173.85 Z M 123.45 174.57 L 122.73 175.27 C 122.10 175.88 122.09 176.88 122.70 177.51 C 123.31 178.13 124.31 178.15 124.93 177.54 L 125.66 176.84 C 126.28 176.23 126.29 175.23 125.69 174.60 C 125.08 173.98 124.08 173.96 123.45 174.57 Z M 122.76 175.26 L 122.04 175.94 C 121.41 176.53 121.37 177.52 121.97 178.15 C 122.56 178.79 123.55 178.82 124.18 178.23 L 124.90 177.55 C 125.53 176.96 125.57 175.97 124.97 175.33 C 124.38 174.70 123.39 174.67 122.76 175.26 Z M 122.07 175.93 L 121.35 176.58 C 120.71 177.15 120.66 178.13 121.24 178.77 C 121.81 179.41 122.79 179.46 123.43 178.88 L 124.15 178.24 C 124.79 177.66 124.84 176.68 124.26 176.04 C 123.69 175.41 122.71 175.36 122.07 175.93 Z M 121.39 176.57 L 120.60 177.24 C 119.96 177.80 119.89 178.77 120.44 179.41 C 120.99 180.06 121.97 180.13 122.61 179.57 L 123.39 178.90 C 124.04 178.34 124.11 177.37 123.55 176.73 C 123.00 176.08 122.03 176.01 121.39 176.57 Z M 120.65 177.22 L 119.84 177.88 C 119.18 178.40 119.08 179.36 119.60 180.01 C 120.13 180.67 121.09 180.77 121.74 180.25 L 122.56 179.60 C 123.21 179.07 123.32 178.11 122.79 177.46 C 122.27 176.80 121.31 176.70 120.65 177.22 Z M 119.92 177.84 L 119.10 178.42 C 118.42 178.90 118.27 179.84 118.75 180.52 C 119.23 181.20 120.17 181.35 120.85 180.87 L 121.66 180.29 C 122.34 179.80 122.50 178.86 122.01 178.19 C 121.53 177.51 120.59 177.35 119.92 177.84 Z M 119.21 178.37 L 118.39 178.86 C 117.68 179.29 117.45 180.20 117.88 180.91 C 118.30 181.61 119.22 181.84 119.92 181.41 L 120.74 180.92 C 121.45 180.50 121.67 179.58 121.25 178.88 C 120.83 178.17 119.91 177.95 119.21 178.37 Z M 118.54 178.80 L 117.68 179.20 C 116.94 179.54 116.61 180.42 116.96 181.15 C 117.30 181.89 118.17 182.22 118.91 181.87 L 119.77 181.48 C 120.51 181.13 120.83 180.26 120.49 179.52 C 120.15 178.78 119.27 178.46 118.54 178.80 Z M 117.86 179.14 L 116.89 179.45 C 116.12 179.69 115.70 180.51 115.94 181.28 C 116.18 182.05 117.00 182.47 117.77 182.23 L 118.73 181.93 C 119.50 181.69 119.93 180.87 119.69 180.10 C 119.44 179.33 118.62 178.90 117.86 179.14 Z M 117.04 179.42 L 116.07 179.61 C 115.29 179.77 114.78 180.54 114.94 181.32 C 115.09 182.11 115.86 182.61 116.64 182.46 L 117.62 182.26 C 118.40 182.10 118.91 181.34 118.75 180.55 C 118.59 179.77 117.83 179.26 117.04 179.42 Z M 116.17 179.61 L 115.19 179.74 C 114.40 179.84 113.84 180.57 113.95 181.35 C 114.05 182.14 114.78 182.70 115.56 182.59 L 116.55 182.46 C 117.33 182.36 117.89 181.63 117.78 180.85 C 117.68 180.06 116.96 179.51 116.17 179.61 Z M 115.22 179.74 L 114.59 179.81 C 113.80 179.89 113.23 180.60 113.32 181.38 C 113.40 182.17 114.10 182.74 114.89 182.66 L 115.53 182.59 C 116.31 182.50 116.88 181.80 116.80 181.01 C 116.71 180.23 116.01 179.66 115.22 179.74 Z"
      fill="black"
      fill-rule="nonzero" /><path d="M 117.09 152.80 L 117.98 153.06 C 118.79 153.30 119.64 152.84 119.87 152.03 C 120.11 151.22 119.65 150.37 118.84 150.14 L 117.95 149.87 C 117.14 149.64 116.29 150.10 116.06 150.91 C 115.82 151.71 116.28 152.56 117.09 152.80 Z M 117.95 153.07 L 118.85 153.36 C 119.66 153.61 120.53 153.16 120.79 152.35 C 121.05 151.54 120.60 150.68 119.79 150.42 L 118.88 150.13 C 118.07 149.87 117.20 150.32 116.94 151.13 C 116.69 151.94 117.13 152.81 117.95 153.07 Z M 118.79 153.35 L 119.72 153.69 C 120.53 153.98 121.42 153.56 121.72 152.75 C 122.01 151.94 121.59 151.05 120.78 150.76 L 119.85 150.42 C 119.04 150.13 118.15 150.55 117.85 151.36 C 117.56 152.17 117.98 153.06 118.79 153.35 Z M 119.64 153.68 L 120.60 154.09 C 121.41 154.43 122.33 154.05 122.67 153.25 C 123.01 152.45 122.64 151.52 121.84 151.18 L 120.87 150.77 C 120.06 150.43 119.14 150.81 118.80 151.61 C 118.46 152.41 118.83 153.34 119.64 153.68 Z M 120.51 154.06 L 121.43 154.51 C 122.22 154.91 123.17 154.58 123.56 153.80 C 123.95 153.01 123.63 152.06 122.84 151.67 L 121.93 151.21 C 121.14 150.82 120.19 151.14 119.79 151.93 C 119.40 152.71 119.73 153.67 120.51 154.06 Z M 121.36 154.48 L 122.17 154.94 C 122.94 155.37 123.91 155.09 124.34 154.32 C 124.77 153.55 124.50 152.58 123.73 152.15 L 122.92 151.70 C 122.15 151.27 121.17 151.54 120.74 152.31 C 120.31 153.08 120.59 154.05 121.36 154.48 Z M 122.12 154.91 L 122.96 155.41 C 123.71 155.87 124.69 155.63 125.15 154.87 C 125.60 154.12 125.36 153.13 124.61 152.68 L 123.77 152.18 C 123.02 151.72 122.04 151.96 121.58 152.72 C 121.13 153.47 121.37 154.45 122.12 154.91 Z M 122.92 155.39 L 123.78 155.94 C 124.52 156.41 125.51 156.19 125.98 155.45 C 126.46 154.71 126.24 153.72 125.49 153.24 L 124.64 152.70 C 123.90 152.23 122.91 152.44 122.44 153.19 C 121.96 153.93 122.18 154.92 122.92 155.39 Z M 123.75 155.92 L 124.61 156.50 C 125.35 156.98 126.34 156.78 126.83 156.05 C 127.32 155.32 127.12 154.32 126.38 153.84 L 125.52 153.26 C 124.78 152.77 123.79 152.97 123.30 153.71 C 122.82 154.44 123.02 155.43 123.75 155.92 Z M 124.60 156.48 L 125.47 157.08 C 126.20 157.58 127.19 157.39 127.69 156.66 C 128.19 155.94 128.00 154.94 127.27 154.44 L 126.40 153.85 C 125.67 153.35 124.68 153.54 124.18 154.26 C 123.68 154.99 123.87 155.99 124.60 156.48 Z M 125.46 157.07 L 126.34 157.68 C 127.06 158.19 128.06 158.01 128.56 157.28 C 129.07 156.56 128.89 155.57 128.16 155.06 L 127.28 154.45 C 126.56 153.95 125.56 154.13 125.06 154.85 C 124.56 155.57 124.73 156.57 125.46 157.07 Z M 126.33 157.68 L 127.22 158.30 C 127.94 158.81 128.93 158.63 129.44 157.91 C 129.95 157.19 129.77 156.19 129.05 155.69 L 128.17 155.07 C 127.45 154.56 126.45 154.74 125.94 155.46 C 125.44 156.18 125.61 157.17 126.33 157.68 Z M 127.22 158.29 L 128.08 158.91 C 128.80 159.41 129.79 159.24 130.30 158.52 C 130.81 157.80 130.64 156.81 129.92 156.30 L 129.05 155.69 C 128.33 155.19 127.34 155.36 126.83 156.07 C 126.33 156.79 126.50 157.79 127.22 158.29 Z M 128.08 158.90 L 128.91 159.49 C 129.63 160.00 130.62 159.83 131.13 159.11 C 131.64 158.40 131.47 157.40 130.75 156.90 L 129.92 156.31 C 129.20 155.80 128.21 155.97 127.70 156.68 C 127.19 157.40 127.36 158.39 128.08 158.90 Z M 128.91 159.49 L 129.71 160.05 C 130.42 160.56 131.41 160.39 131.92 159.67 C 132.43 158.96 132.26 157.97 131.54 157.46 L 130.75 156.90 C 130.03 156.39 129.04 156.56 128.54 157.28 C 128.03 157.99 128.20 158.98 128.91 159.49 Z M 129.71 160.05 L 130.45 160.57 C 131.16 161.08 132.15 160.90 132.66 160.19 C 133.16 159.47 132.99 158.49 132.28 157.98 L 131.54 157.46 C 130.82 156.96 129.83 157.13 129.33 157.84 C 128.82 158.56 129.00 159.55 129.71 160.05 Z M 130.46 160.57 L 131.31 161.17 C 132.03 161.67 133.01 161.49 133.51 160.78 C 134.01 160.06 133.84 159.08 133.12 158.58 L 132.27 157.98 C 131.55 157.48 130.57 157.66 130.07 158.37 C 129.57 159.09 129.74 160.07 130.46 160.57 Z M 131.33 161.17 L 132.22 161.78 C 132.93 162.27 133.91 162.08 134.40 161.37 C 134.89 160.65 134.71 159.68 133.99 159.19 L 133.11 158.58 C 132.39 158.09 131.41 158.27 130.92 158.99 C 130.43 159.70 130.61 160.68 131.33 161.17 Z M 132.23 161.77 L 133.03 162.31 C 133.74 162.79 134.71 162.60 135.19 161.88 C 135.67 161.17 135.48 160.20 134.77 159.72 L 133.97 159.19 C 133.26 158.71 132.29 158.90 131.81 159.61 C 131.33 160.33 131.52 161.29 132.23 161.77 Z M 133.05 162.30 L 133.79 162.80 C 134.51 163.27 135.46 163.07 135.93 162.36 C 136.40 161.65 136.21 160.69 135.49 160.22 L 134.75 159.73 C 134.04 159.26 133.08 159.45 132.61 160.17 C 132.14 160.88 132.34 161.84 133.05 162.30 Z M 133.81 162.79 L 134.61 163.31 C 135.32 163.77 136.27 163.57 136.73 162.86 C 137.19 162.15 136.99 161.20 136.28 160.74 L 135.48 160.22 C 134.77 159.76 133.82 159.96 133.36 160.67 C 132.90 161.38 133.10 162.33 133.81 162.79 Z M 134.62 163.31 L 135.45 163.84 C 136.16 164.30 137.10 164.10 137.56 163.39 C 138.01 162.68 137.81 161.74 137.10 161.28 L 136.27 160.74 C 135.56 160.29 134.62 160.49 134.16 161.20 C 133.71 161.91 133.91 162.85 134.62 163.31 Z M 135.46 163.84 L 136.30 164.38 C 137.01 164.83 137.95 164.63 138.40 163.92 C 138.85 163.22 138.64 162.28 137.94 161.83 L 137.09 161.29 C 136.39 160.84 135.45 161.04 135.00 161.75 C 134.55 162.45 134.76 163.39 135.46 163.84 Z M 136.31 164.37 L 137.16 164.92 C 137.86 165.37 138.79 165.17 139.24 164.47 C 139.69 163.77 139.49 162.84 138.79 162.39 L 137.94 161.84 C 137.24 161.39 136.31 161.59 135.86 162.29 C 135.41 162.99 135.61 163.92 136.31 164.37 Z M 137.16 164.91 L 138.00 165.45 C 138.70 165.90 139.62 165.70 140.07 165.01 C 140.52 164.32 140.32 163.39 139.63 162.94 L 138.79 162.40 C 138.09 161.95 137.17 162.15 136.72 162.84 C 136.27 163.54 136.47 164.46 137.16 164.91 Z M 138.01 165.45 L 138.86 165.99 C 139.55 166.44 140.47 166.24 140.91 165.55 C 141.36 164.85 141.16 163.93 140.47 163.49 L 139.62 162.95 C 138.93 162.50 138.01 162.70 137.56 163.39 C 137.12 164.08 137.32 165.00 138.01 165.45 Z M 138.87 165.99 L 139.71 166.52 C 140.40 166.96 141.32 166.76 141.75 166.07 C 142.19 165.38 141.99 164.46 141.30 164.03 L 140.45 163.49 C 139.76 163.05 138.85 163.26 138.41 163.95 C 137.97 164.64 138.18 165.55 138.87 165.99 Z M 139.73 166.53 L 140.59 167.06 C 141.28 167.48 142.19 167.27 142.61 166.58 C 143.04 165.89 142.83 164.98 142.14 164.56 L 141.28 164.03 C 140.59 163.60 139.68 163.81 139.25 164.50 C 138.83 165.19 139.04 166.10 139.73 166.53 Z M 140.61 167.06 L 141.47 167.58 C 142.16 167.99 143.06 167.77 143.48 167.08 C 143.89 166.39 143.67 165.49 142.98 165.07 L 142.12 164.55 C 141.42 164.14 140.53 164.36 140.11 165.05 C 139.69 165.74 139.92 166.64 140.61 167.06 Z M 141.49 167.58 L 142.35 168.08 C 143.04 168.49 143.93 168.25 144.33 167.56 C 144.74 166.87 144.51 165.98 143.81 165.57 L 142.96 165.07 C 142.27 164.67 141.38 164.90 140.97 165.59 C 140.56 166.28 140.80 167.17 141.49 167.58 Z M 142.36 168.08 L 143.20 168.56 C 143.89 168.96 144.77 168.71 145.17 168.02 C 145.57 167.33 145.33 166.45 144.63 166.05 L 143.80 165.57 C 143.10 165.18 142.22 165.42 141.83 166.11 C 141.43 166.80 141.67 167.69 142.36 168.08 Z M 143.22 168.56 L 144.01 169.01 C 144.71 169.39 145.58 169.14 145.97 168.45 C 146.36 167.75 146.11 166.88 145.41 166.49 L 144.61 166.05 C 143.92 165.66 143.04 165.91 142.66 166.60 C 142.27 167.30 142.52 168.18 143.22 168.56 Z M 144.03 169.01 L 144.89 169.47 C 145.59 169.84 146.46 169.58 146.83 168.88 C 147.20 168.18 146.94 167.31 146.24 166.94 L 145.39 166.48 C 144.69 166.11 143.82 166.37 143.45 167.07 C 143.07 167.77 143.34 168.64 144.03 169.01 Z M 144.91 169.48 L 145.86 169.97 C 146.57 170.33 147.43 170.05 147.79 169.34 C 148.15 168.64 147.87 167.78 147.17 167.42 L 146.22 166.93 C 145.51 166.57 144.65 166.85 144.29 167.55 C 143.93 168.25 144.21 169.12 144.91 169.48 Z M 145.88 169.97 L 146.79 170.42 C 147.50 170.77 148.35 170.48 148.70 169.77 C 149.05 169.06 148.76 168.20 148.05 167.86 L 147.15 167.41 C 146.44 167.06 145.58 167.35 145.23 168.06 C 144.89 168.77 145.18 169.62 145.88 169.97 Z M 146.80 170.43 L 147.64 170.83 C 148.35 171.17 149.21 170.87 149.55 170.16 C 149.89 169.45 149.59 168.59 148.88 168.25 L 148.04 167.85 C 147.33 167.51 146.47 167.81 146.13 168.52 C 145.79 169.23 146.09 170.08 146.80 170.43 Z M 147.65 170.83 L 148.55 171.25 C 149.26 171.59 150.11 171.28 150.45 170.57 C 150.78 169.86 150.48 169.01 149.76 168.67 L 148.87 168.25 C 148.15 167.91 147.30 168.22 146.97 168.93 C 146.63 169.64 146.94 170.49 147.65 170.83 Z M 148.55 171.25 L 149.49 171.69 C 150.20 172.02 151.05 171.72 151.38 171.00 C 151.72 170.29 151.41 169.44 150.69 169.11 L 149.76 168.67 C 149.04 168.34 148.19 168.64 147.86 169.36 C 147.53 170.07 147.84 170.92 148.55 171.25 Z M 149.49 171.69 L 150.46 172.14 C 151.17 172.47 152.02 172.16 152.35 171.44 C 152.68 170.73 152.37 169.88 151.65 169.55 L 150.69 169.10 C 149.98 168.77 149.13 169.08 148.80 169.80 C 148.47 170.51 148.78 171.36 149.49 171.69 Z M 150.46 172.14 L 151.18 172.47 C 151.90 172.80 152.74 172.49 153.07 171.78 C 153.41 171.06 153.09 170.21 152.38 169.88 L 151.65 169.55 C 150.94 169.22 150.09 169.53 149.76 170.25 C 149.43 170.96 149.74 171.81 150.46 172.14 Z"
      fill="black"
      fill-rule="nonzero" /><path d="M 159.76 159.38 L 158.81 159.69 C 157.99 159.96 157.54 160.84 157.81 161.66 C 158.08 162.48 158.96 162.93 159.78 162.66 L 160.73 162.35 C 161.55 162.08 162.00 161.19 161.73 160.37 C 161.46 159.55 160.58 159.11 159.76 159.38 Z M 158.75 159.69 L 157.81 160.04 C 156.99 160.34 156.58 161.25 156.88 162.07 C 157.18 162.88 158.09 163.30 158.90 163.00 L 159.84 162.65 C 160.66 162.35 161.07 161.44 160.77 160.63 C 160.47 159.81 159.56 159.39 158.75 159.69 Z M 157.69 160.08 L 156.79 160.49 C 155.99 160.86 155.64 161.80 156.01 162.60 C 156.38 163.40 157.32 163.75 158.12 163.38 L 159.02 162.96 C 159.82 162.59 160.17 161.65 159.80 160.85 C 159.43 160.06 158.49 159.71 157.69 160.08 Z M 156.62 160.57 L 155.78 161.08 C 155.03 161.53 154.78 162.52 155.24 163.27 C 155.70 164.03 156.68 164.27 157.44 163.81 L 158.28 163.30 C 159.04 162.85 159.28 161.86 158.82 161.11 C 158.36 160.35 157.38 160.11 156.62 160.57 Z M 155.62 161.18 L 154.84 161.78 C 154.14 162.33 154.02 163.34 154.57 164.04 C 155.11 164.74 156.13 164.87 156.83 164.32 L 157.60 163.71 C 158.30 163.17 158.43 162.15 157.88 161.45 C 157.33 160.75 156.32 160.63 155.62 161.18 Z M 154.71 161.88 L 153.99 162.58 C 153.34 163.20 153.32 164.23 153.94 164.87 C 154.57 165.52 155.59 165.54 156.24 164.91 L 156.96 164.22 C 157.61 163.60 157.63 162.57 157.00 161.93 C 156.38 161.28 155.36 161.26 154.71 161.88 Z M 153.88 162.68 L 153.21 163.45 C 152.62 164.13 152.69 165.16 153.37 165.75 C 154.05 166.34 155.08 166.27 155.67 165.59 L 156.34 164.82 C 156.93 164.14 156.86 163.11 156.18 162.52 C 155.50 161.93 154.47 162.00 153.88 162.68 Z M 153.13 163.54 L 152.53 164.33 C 151.99 165.06 152.14 166.08 152.86 166.62 C 153.59 167.17 154.61 167.02 155.15 166.30 L 155.75 165.50 C 156.29 164.78 156.14 163.75 155.42 163.21 C 154.70 162.67 153.67 162.82 153.13 163.54 Z M 152.48 164.40 L 151.93 165.24 C 151.42 165.99 151.63 167.01 152.38 167.51 C 153.13 168.01 154.15 167.81 154.65 167.06 L 155.21 166.22 C 155.71 165.47 155.51 164.46 154.75 163.95 C 154.00 163.45 152.99 163.65 152.48 164.40 Z M 151.90 165.28 L 151.37 166.14 C 150.89 166.91 151.13 167.92 151.90 168.39 C 152.66 168.87 153.67 168.63 154.15 167.86 L 154.68 167.01 C 155.16 166.24 154.92 165.23 154.15 164.76 C 153.38 164.28 152.37 164.52 151.90 165.28 Z M 151.35 166.16 L 150.84 167.03 C 150.38 167.80 150.63 168.81 151.41 169.27 C 152.18 169.73 153.19 169.48 153.65 168.70 L 154.17 167.84 C 154.63 167.06 154.37 166.06 153.60 165.59 C 152.82 165.13 151.81 165.39 151.35 166.16 Z M 150.84 167.03 L 150.33 167.90 C 149.87 168.68 150.13 169.68 150.91 170.14 C 151.68 170.60 152.69 170.34 153.14 169.56 L 153.65 168.69 C 154.11 167.91 153.85 166.91 153.07 166.45 C 152.30 166.00 151.29 166.26 150.84 167.03 Z M 150.32 167.91 L 149.82 168.78 C 149.37 169.56 149.64 170.56 150.42 171.01 C 151.20 171.46 152.19 171.19 152.65 170.41 L 153.15 169.55 C 153.60 168.77 153.33 167.77 152.55 167.32 C 151.77 166.87 150.78 167.13 150.32 167.91 Z M 149.82 168.79 L 149.33 169.66 C 148.89 170.44 149.16 171.43 149.94 171.88 C 150.72 172.32 151.72 172.04 152.16 171.26 L 152.65 170.40 C 153.09 169.62 152.82 168.62 152.04 168.18 C 151.26 167.74 150.26 168.01 149.82 168.79 Z M 149.33 169.68 L 148.84 170.55 C 148.41 171.33 148.70 172.32 149.48 172.75 C 150.26 173.18 151.25 172.90 151.68 172.12 L 152.16 171.24 C 152.59 170.46 152.31 169.47 151.53 169.04 C 150.74 168.61 149.76 168.89 149.33 169.68 Z M 148.85 170.57 L 148.37 171.45 C 147.95 172.23 148.24 173.21 149.02 173.63 C 149.81 174.05 150.78 173.76 151.20 172.98 L 151.68 172.10 C 152.10 171.32 151.81 170.34 151.02 169.92 C 150.24 169.50 149.27 169.79 148.85 170.57 Z M 148.38 171.46 L 147.91 172.34 C 147.50 173.12 147.79 174.08 148.56 174.50 C 149.34 174.91 150.30 174.62 150.72 173.85 L 151.19 172.97 C 151.61 172.19 151.31 171.23 150.54 170.81 C 149.76 170.40 148.80 170.69 148.38 171.46 Z M 147.93 172.35 L 147.45 173.23 C 147.04 173.99 147.32 174.95 148.09 175.36 C 148.85 175.78 149.81 175.49 150.22 174.73 L 150.70 173.85 C 151.11 173.08 150.83 172.12 150.06 171.71 C 149.30 171.30 148.34 171.58 147.93 172.35 Z M 147.48 173.22 L 147.00 174.08 C 146.58 174.83 146.85 175.78 147.60 176.20 C 148.35 176.62 149.30 176.35 149.72 175.60 L 150.20 174.73 C 150.62 173.98 150.35 173.03 149.60 172.61 C 148.84 172.19 147.89 172.47 147.48 173.22 Z M 147.03 174.06 L 146.53 174.91 C 146.10 175.65 146.35 176.59 147.08 177.02 C 147.82 177.45 148.76 177.20 149.19 176.47 L 149.69 175.62 C 150.12 174.88 149.87 173.94 149.14 173.51 C 148.40 173.08 147.46 173.33 147.03 174.06 Z M 146.57 174.88 L 146.04 175.72 C 145.59 176.43 145.81 177.37 146.52 177.82 C 147.23 178.27 148.17 178.06 148.62 177.35 L 149.15 176.50 C 149.60 175.79 149.38 174.85 148.67 174.40 C 147.96 173.95 147.02 174.17 146.57 174.88 Z M 146.09 175.68 L 145.51 176.52 C 145.04 177.21 145.21 178.14 145.89 178.61 C 146.57 179.09 147.51 178.92 147.98 178.23 L 148.56 177.39 C 149.04 176.71 148.87 175.77 148.18 175.30 C 147.50 174.83 146.56 175.00 146.09 175.68 Z M 145.55 176.47 L 144.96 177.24 C 144.46 177.90 144.59 178.84 145.25 179.34 C 145.91 179.85 146.85 179.72 147.35 179.06 L 147.94 178.29 C 148.44 177.63 148.31 176.69 147.65 176.18 C 146.99 175.68 146.05 175.81 145.55 176.47 Z M 144.99 177.20 L 144.36 177.97 C 143.83 178.61 143.93 179.57 144.58 180.09 C 145.22 180.62 146.17 180.52 146.70 179.88 L 147.33 179.10 C 147.86 178.46 147.76 177.51 147.11 176.98 C 146.46 176.45 145.51 176.55 144.99 177.20 Z M 144.37 177.93 L 143.71 178.70 C 143.17 179.34 143.25 180.31 143.89 180.85 C 144.53 181.40 145.49 181.32 146.03 180.68 L 146.69 179.91 C 147.24 179.27 147.16 178.31 146.52 177.76 C 145.88 177.22 144.92 177.29 144.37 177.93 Z M 143.72 178.68 L 143.04 179.45 C 142.49 180.09 142.55 181.06 143.19 181.62 C 143.83 182.18 144.80 182.11 145.36 181.47 L 146.03 180.70 C 146.59 180.06 146.52 179.09 145.88 178.53 C 145.24 177.98 144.27 178.04 143.72 178.68 Z M 143.04 179.45 L 142.95 179.56 C 142.38 180.20 142.45 181.17 143.09 181.73 C 143.73 182.29 144.71 182.23 145.27 181.59 L 145.36 181.48 C 145.93 180.84 145.86 179.86 145.22 179.30 C 144.58 178.74 143.60 178.80 143.04 179.45 Z"
      fill="black"
      fill-rule="nonzero" /><path d="M 149.26 152.71 L 149.95 153.38 C 150.56 153.97 151.54 153.95 152.13 153.33 C 152.72 152.72 152.70 151.74 152.09 151.15 L 151.39 150.49 C 150.78 149.90 149.80 149.92 149.21 150.53 C 148.62 151.15 148.64 152.12 149.26 152.71 Z M 149.91 153.40 L 150.61 154.08 C 151.23 154.69 152.23 154.67 152.84 154.05 C 153.45 153.43 153.44 152.42 152.82 151.81 L 152.12 151.13 C 151.50 150.52 150.50 150.53 149.89 151.16 C 149.28 151.78 149.29 152.78 149.91 153.40 Z M 150.56 154.08 L 151.26 154.79 C 151.89 155.43 152.92 155.44 153.55 154.81 C 154.19 154.18 154.20 153.15 153.57 152.52 L 152.87 151.81 C 152.24 151.17 151.21 151.16 150.57 151.79 C 149.94 152.42 149.93 153.45 150.56 154.08 Z M 151.21 154.79 L 151.92 155.55 C 152.54 156.22 153.59 156.25 154.26 155.62 C 154.93 155.00 154.96 153.95 154.33 153.28 L 153.62 152.52 C 153.00 151.85 151.95 151.82 151.28 152.45 C 150.61 153.07 150.58 154.12 151.21 154.79 Z M 151.86 155.53 L 152.54 156.30 C 153.16 157.00 154.23 157.06 154.92 156.44 C 155.62 155.83 155.68 154.76 155.07 154.06 L 154.39 153.30 C 153.77 152.60 152.71 152.53 152.01 153.15 C 151.31 153.77 151.25 154.83 151.86 155.53 Z M 152.51 156.27 L 153.17 157.05 C 153.77 157.77 154.84 157.86 155.55 157.25 C 156.27 156.65 156.36 155.58 155.76 154.87 L 155.10 154.09 C 154.50 153.37 153.43 153.28 152.71 153.89 C 152.00 154.49 151.91 155.56 152.51 156.27 Z M 153.15 157.03 L 153.80 157.83 C 154.39 158.55 155.46 158.66 156.18 158.07 C 156.91 157.48 157.01 156.41 156.42 155.69 L 155.77 154.89 C 155.18 154.16 154.12 154.06 153.39 154.65 C 152.67 155.24 152.56 156.31 153.15 157.03 Z M 153.79 157.81 L 154.42 158.60 C 155.00 159.33 156.07 159.45 156.80 158.87 C 157.53 158.28 157.65 157.22 157.06 156.49 L 156.43 155.70 C 155.85 154.97 154.78 154.85 154.05 155.43 C 153.32 156.02 153.20 157.08 153.79 157.81 Z M 154.41 158.60 L 155.01 159.35 C 155.59 160.09 156.66 160.21 157.39 159.63 C 158.13 159.05 158.25 157.99 157.67 157.25 L 157.07 156.49 C 156.49 155.76 155.42 155.64 154.69 156.22 C 153.96 156.80 153.83 157.86 154.41 158.60 Z M 155.02 159.36 L 155.66 160.17 C 156.24 160.90 157.31 161.02 158.04 160.44 C 158.77 159.86 158.89 158.79 158.31 158.06 L 157.67 157.25 C 157.09 156.52 156.02 156.40 155.29 156.98 C 154.56 157.56 154.44 158.62 155.02 159.36 Z M 155.67 160.17 L 156.31 160.96 C 156.89 161.69 157.95 161.80 158.68 161.22 C 159.40 160.63 159.52 159.57 158.93 158.85 L 158.30 158.06 C 157.72 157.33 156.66 157.22 155.93 157.80 C 155.20 158.38 155.09 159.45 155.67 160.17 Z M 156.32 160.97 L 156.93 161.72 C 157.52 162.44 158.58 162.54 159.30 161.95 C 160.02 161.37 160.12 160.31 159.53 159.59 L 158.92 158.84 C 158.33 158.12 157.27 158.01 156.56 158.60 C 155.84 159.19 155.73 160.25 156.32 160.97 Z M 156.95 161.73 L 157.57 162.47 C 158.16 163.18 159.22 163.28 159.93 162.68 C 160.64 162.09 160.73 161.03 160.14 160.32 L 159.52 159.58 C 158.93 158.87 157.87 158.77 157.16 159.37 C 156.45 159.96 156.35 161.02 156.95 161.73 Z M 157.58 162.48 L 158.20 163.21 C 158.80 163.91 159.85 163.99 160.56 163.40 C 161.26 162.80 161.34 161.75 160.75 161.04 L 160.12 160.31 C 159.53 159.61 158.47 159.53 157.77 160.12 C 157.07 160.72 156.98 161.78 157.58 162.48 Z M 158.22 163.21 L 158.86 163.95 C 159.46 164.65 160.51 164.72 161.20 164.12 C 161.90 163.52 161.97 162.47 161.37 161.78 L 160.73 161.04 C 160.13 160.34 159.08 160.27 158.39 160.87 C 157.69 161.47 157.62 162.52 158.22 163.21 Z M 158.87 163.96 L 159.54 164.72 C 160.14 165.40 161.19 165.47 161.87 164.87 C 162.56 164.26 162.63 163.22 162.02 162.53 L 161.36 161.77 C 160.76 161.09 159.71 161.02 159.02 161.62 C 158.34 162.23 158.27 163.27 158.87 163.96 Z M 159.55 164.72 L 160.23 165.49 C 160.84 166.17 161.88 166.23 162.56 165.62 C 163.24 165.02 163.30 163.98 162.70 163.30 L 162.01 162.53 C 161.41 161.85 160.37 161.79 159.69 162.39 C 159.01 163.00 158.94 164.04 159.55 164.72 Z M 160.25 165.49 L 160.92 166.24 C 161.53 166.92 162.57 166.97 163.24 166.37 C 163.91 165.76 163.97 164.72 163.36 164.05 L 162.68 163.30 C 162.08 162.62 161.04 162.57 160.37 163.17 C 159.69 163.78 159.64 164.82 160.25 165.49 Z M 160.94 166.25 L 161.61 166.98 C 162.21 167.64 163.24 167.69 163.91 167.09 C 164.57 166.48 164.62 165.45 164.02 164.78 L 163.35 164.05 C 162.74 163.38 161.71 163.34 161.05 163.94 C 160.38 164.55 160.33 165.58 160.94 166.25 Z M 161.63 166.98 L 162.30 167.71 C 162.91 168.37 163.94 168.41 164.59 167.80 C 165.25 167.19 165.28 166.17 164.68 165.51 L 164.00 164.78 C 163.39 164.12 162.37 164.09 161.71 164.69 C 161.06 165.30 161.02 166.33 161.63 166.98 Z M 162.33 167.72 L 163.02 168.45 C 163.63 169.09 164.65 169.12 165.29 168.50 C 165.93 167.89 165.96 166.87 165.35 166.23 L 164.65 165.50 C 164.04 164.86 163.03 164.84 162.38 165.45 C 161.74 166.06 161.71 167.08 162.33 167.72 Z M 163.04 168.46 L 163.75 169.18 C 164.37 169.81 165.38 169.82 166.01 169.20 C 166.64 168.58 166.65 167.57 166.03 166.94 L 165.32 166.22 C 164.70 165.59 163.69 165.58 163.06 166.20 C 162.44 166.82 162.43 167.83 163.04 168.46 Z M 163.78 169.19 L 164.48 169.88 C 165.10 170.50 166.11 170.49 166.72 169.86 C 167.33 169.24 167.33 168.24 166.70 167.62 L 166.00 166.93 C 165.38 166.32 164.38 166.33 163.76 166.95 C 163.15 167.57 163.16 168.58 163.78 169.19 Z M 164.51 169.89 L 165.23 170.58 C 165.86 171.17 166.85 171.15 167.45 170.52 C 168.05 169.89 168.02 168.90 167.39 168.30 L 166.68 167.61 C 166.05 167.02 165.05 167.04 164.45 167.67 C 163.85 168.30 163.88 169.29 164.51 169.89 Z M 165.25 170.58 L 165.99 171.26 C 166.62 171.85 167.61 171.81 168.19 171.17 C 168.78 170.54 168.74 169.55 168.10 168.97 L 167.37 168.29 C 166.73 167.70 165.75 167.75 165.16 168.38 C 164.58 169.01 164.62 170.00 165.25 170.58 Z M 166.02 171.27 L 166.77 171.94 C 167.41 172.51 168.39 172.45 168.96 171.82 C 169.53 171.18 169.47 170.20 168.83 169.63 L 168.08 168.96 C 167.44 168.39 166.46 168.45 165.89 169.08 C 165.32 169.72 165.38 170.70 166.02 171.27 Z M 166.80 171.95 L 167.56 172.61 C 168.21 173.16 169.18 173.09 169.73 172.45 C 170.29 171.81 170.21 170.84 169.57 170.28 L 168.80 169.62 C 168.16 169.07 167.19 169.14 166.64 169.78 C 166.08 170.43 166.15 171.40 166.80 171.95 Z M 167.59 172.62 L 168.35 173.25 C 169.00 173.79 169.96 173.71 170.50 173.06 C 171.04 172.41 170.95 171.45 170.31 170.91 L 169.54 170.27 C 168.90 169.73 167.93 169.82 167.39 170.47 C 166.85 171.12 166.94 172.08 167.59 172.62 Z M 168.38 173.26 L 169.15 173.89 C 169.81 174.41 170.76 174.31 171.28 173.66 C 171.81 173.01 171.71 172.05 171.06 171.53 L 170.28 170.90 C 169.63 170.38 168.67 170.48 168.15 171.13 C 167.62 171.78 167.73 172.73 168.38 173.26 Z M 169.18 173.89 L 169.97 174.51 C 170.63 175.02 171.57 174.90 172.08 174.25 C 172.59 173.59 172.48 172.65 171.82 172.14 L 171.03 171.52 C 170.37 171.01 169.43 171.13 168.92 171.78 C 168.41 172.44 168.53 173.38 169.18 173.89 Z M 170.00 174.52 L 170.81 175.12 C 171.47 175.62 172.40 175.48 172.90 174.82 C 173.39 174.16 173.26 173.23 172.60 172.73 L 171.79 172.13 C 171.13 171.64 170.20 171.77 169.70 172.43 C 169.21 173.09 169.34 174.02 170.00 174.52 Z M 170.84 175.13 L 171.65 175.72 C 172.32 176.20 173.24 176.05 173.72 175.38 C 174.20 174.72 174.05 173.79 173.38 173.31 L 172.57 172.73 C 171.90 172.25 170.98 172.40 170.50 173.06 C 170.02 173.73 170.17 174.65 170.84 175.13 Z M 171.68 175.73 L 172.51 176.30 C 173.18 176.76 174.09 176.59 174.55 175.92 C 175.02 175.25 174.85 174.34 174.18 173.87 L 173.35 173.30 C 172.68 172.84 171.77 173.01 171.30 173.68 C 170.84 174.35 171.01 175.27 171.68 175.73 Z M 172.53 176.31 L 173.37 176.86 C 174.04 177.31 174.95 177.12 175.40 176.45 C 175.85 175.77 175.66 174.86 174.99 174.42 L 174.15 173.86 C 173.48 173.42 172.57 173.60 172.12 174.28 C 171.67 174.95 171.86 175.86 172.53 176.31 Z M 173.40 176.87 L 174.24 177.40 C 174.92 177.84 175.82 177.64 176.25 176.96 C 176.68 176.28 176.48 175.38 175.80 174.95 L 174.96 174.41 C 174.28 173.98 173.38 174.18 172.95 174.86 C 172.52 175.54 172.72 176.44 173.40 176.87 Z M 174.27 177.41 L 175.12 177.93 C 175.80 178.35 176.69 178.13 177.11 177.45 C 177.52 176.77 177.31 175.87 176.63 175.46 L 175.78 174.94 C 175.09 174.52 174.20 174.74 173.78 175.42 C 173.37 176.10 173.58 176.99 174.27 177.41 Z M 175.14 177.94 L 176.00 178.44 C 176.69 178.85 177.57 178.61 177.98 177.93 C 178.38 177.24 178.15 176.36 177.46 175.95 L 176.60 175.45 C 175.91 175.05 175.03 175.28 174.63 175.96 C 174.23 176.65 174.46 177.53 175.14 177.94 Z M 176.03 178.45 L 176.90 178.94 C 177.59 179.33 178.46 179.08 178.85 178.39 C 179.24 177.70 179.00 176.82 178.31 176.43 L 177.44 175.94 C 176.74 175.56 175.87 175.80 175.48 176.49 C 175.09 177.19 175.33 178.06 176.03 178.45 Z M 176.92 178.95 L 177.80 179.42 C 178.50 179.80 179.37 179.54 179.74 178.84 C 180.12 178.14 179.86 177.27 179.16 176.89 L 178.28 176.42 C 177.58 176.05 176.71 176.31 176.34 177.01 C 175.96 177.71 176.22 178.58 176.92 178.95 Z M 177.83 179.44 L 178.72 179.89 C 179.42 180.25 180.28 179.97 180.65 179.27 C 181.01 178.56 180.73 177.70 180.02 177.34 L 179.13 176.88 C 178.43 176.52 177.56 176.80 177.20 177.51 C 176.84 178.21 177.12 179.07 177.83 179.44 Z M 178.74 179.90 L 179.65 180.34 C 180.36 180.68 181.22 180.39 181.56 179.68 C 181.90 178.96 181.61 178.11 180.90 177.76 L 179.99 177.33 C 179.28 176.98 178.43 177.28 178.08 177.99 C 177.74 178.70 178.03 179.56 178.74 179.90 Z M 179.68 180.35 L 180.58 180.77 C 181.30 181.09 182.15 180.78 182.48 180.06 C 182.81 179.34 182.49 178.50 181.77 178.17 L 180.87 177.75 C 180.15 177.42 179.30 177.74 178.97 178.46 C 178.64 179.17 178.96 180.02 179.68 180.35 Z M 180.61 180.78 L 181.52 181.17 C 182.24 181.49 183.08 181.16 183.40 180.43 C 183.71 179.71 183.38 178.87 182.66 178.55 L 181.75 178.16 C 181.02 177.84 180.18 178.17 179.87 178.90 C 179.55 179.62 179.88 180.46 180.61 180.78 Z M 181.54 181.18 L 182.46 181.57 C 183.19 181.87 184.02 181.53 184.33 180.80 C 184.63 180.07 184.29 179.24 183.56 178.93 L 182.64 178.55 C 181.91 178.24 181.08 178.58 180.77 179.31 C 180.47 180.04 180.81 180.87 181.54 181.18 Z M 182.47 181.57 L 183.40 181.95 C 184.13 182.25 184.96 181.90 185.26 181.17 C 185.56 180.44 185.21 179.61 184.48 179.31 L 183.55 178.93 C 182.82 178.63 181.99 178.98 181.69 179.71 C 181.39 180.44 181.74 181.27 182.47 181.57 Z M 183.41 181.95 L 184.34 182.33 C 185.07 182.62 185.91 182.27 186.20 181.54 C 186.49 180.80 186.14 179.97 185.41 179.68 L 184.47 179.31 C 183.74 179.01 182.91 179.37 182.62 180.10 C 182.33 180.83 182.68 181.66 183.41 181.95 Z M 184.35 182.33 L 184.59 182.42 C 185.32 182.72 186.15 182.36 186.44 181.63 C 186.73 180.90 186.38 180.07 185.65 179.78 L 185.40 179.68 C 184.67 179.39 183.84 179.74 183.55 180.47 C 183.26 181.21 183.62 182.04 184.35 182.33 Z"
      fill="black"
      fill-rule="nonzero" /></svg>