<svg xmlns="http://www.w3.org/2000/svg" width="300" height="300" viewBox="0 0 300 300">
<path d="M 129.10 121.22 L 127.81 120.94 C 126.96 120.75 126.12 121.29 125.93 122.14 C 125.75 122.99 126.29 123.83 127.14 124.02 L 128.43 124.30 C 129.27 124.48 130.11 123.95 130.30 123.10 C 130.48 122.25 129.95 121.41 129.10 121.22 Z M 127.83 120.92 L 126.63 120.65 C 125.77 120.45 124.91 120.99 124.72 121.85 C 124.52 122.71 125.06 123.57 125.92 123.76 L 127.12 124.04 C 127.98 124.23 128.83 123.70 129.03 122.83 C 129.23 121.97 128.69 121.12 127.83 120.92 Z M 126.67 120.63 L 125.67 120.38 C 124.80 120.16 123.91 120.68 123.69 121.55 C 123.47 122.42 124.00 123.31 124.87 123.53 L 125.88 123.78 C 126.75 124.00 127.63 123.47 127.85 122.60 C 128.07 121.73 127.54 120.85 126.67 120.63 Z M 125.76 120.38 L 125.04 120.15 C 124.17 119.88 123.24 120.36 122.97 121.23 C 122.70 122.10 123.18 123.03 124.05 123.30 L 124.78 123.53 C 125.65 123.80 126.57 123.31 126.84 122.44 C 127.12 121.57 126.63 120.65 125.76 120.38 Z M 125.41 120.29 L 125.04 120.07 C 124.25 119.59 123.22 119.84 122.74 120.63 C 122.26 121.42 122.52 122.45 123.31 122.93 L 123.68 123.15 C 124.47 123.63 125.50 123.38 125.97 122.59 C 126.45 121.80 126.20 120.77 125.41 120.29 Z M 125.03 122.95 L 125.40 122.73 C 126.20 122.26 126.47 121.23 126.00 120.43 C 125.52 119.63 124.49 119.36 123.69 119.83 L 123.32 120.05 C 122.52 120.52 122.25 121.55 122.72 122.35 C 123.20 123.15 124.23 123.42 125.03 122.95 Z M 124.80 122.94 L 125.95 122.77 C 126.87 122.62 127.50 121.77 127.36 120.85 C 127.22 119.93 126.36 119.30 125.44 119.44 L 124.29 119.62 C 123.37 119.76 122.74 120.62 122.88 121.53 C 123.02 122.45 123.88 123.08 124.80 122.94 Z M 125.87 122.78 L 127.19 122.64 C 128.12 122.54 128.79 121.71 128.69 120.79 C 128.59 119.86 127.76 119.19 126.84 119.29 L 125.52 119.43 C 124.60 119.53 123.93 120.36 124.02 121.28 C 124.12 122.20 124.95 122.87 125.87 122.78 Z M 127.18 122.64 L 128.09 122.54 C 129.01 122.45 129.68 121.63 129.59 120.70 C 129.50 119.78 128.67 119.11 127.75 119.20 L 126.84 119.29 C 125.92 119.38 125.25 120.21 125.34 121.13 C 125.44 122.06 126.26 122.73 127.18 122.64 Z M 128.09 122.54 L 129.05 122.44 C 129.98 122.35 130.65 121.52 130.55 120.60 C 130.46 119.68 129.63 119.01 128.71 119.10 L 127.74 119.20 C 126.82 119.30 126.15 120.12 126.25 121.04 C 126.34 121.97 127.16 122.64 128.09 122.54 Z M 129.06 122.44 L 130.07 122.33 C 130.99 122.24 131.66 121.41 131.57 120.49 C 131.47 119.57 130.64 118.90 129.72 119.00 L 128.71 119.10 C 127.78 119.20 127.12 120.03 127.21 120.95 C 127.31 121.87 128.14 122.54 129.06 122.44 Z M 130.08 122.33 L 131.12 122.22 C 132.04 122.11 132.71 121.28 132.61 120.36 C 132.50 119.44 131.67 118.78 130.75 118.88 L 129.71 119.00 C 128.79 119.10 128.13 119.93 128.23 120.85 C 128.33 121.77 129.16 122.43 130.08 122.33 Z M 131.14 122.21 L 132.19 122.09 C 133.11 121.98 133.77 121.14 133.66 120.23 C 133.55 119.31 132.71 118.65 131.80 118.76 L 130.74 118.89 C 129.82 119.00 129.17 119.83 129.28 120.75 C 129.39 121.67 130.22 122.32 131.14 122.21 Z M 132.21 122.08 L 133.27 121.95 C 134.19 121.83 134.83 120.99 134.71 120.07 C 134.60 119.16 133.76 118.51 132.84 118.63 L 131.78 118.77 C 130.86 118.88 130.22 119.72 130.33 120.64 C 130.45 121.55 131.29 122.20 132.21 122.08 Z M 133.29 121.94 L 134.39 121.78 C 135.30 121.66 135.94 120.81 135.81 119.90 C 135.68 118.99 134.84 118.35 133.92 118.48 L 132.82 118.63 C 131.91 118.76 131.27 119.61 131.40 120.52 C 131.53 121.43 132.38 122.07 133.29 121.94 Z M 134.41 121.78 L 135.47 121.61 C 136.38 121.47 137.00 120.63 136.86 119.72 C 136.73 118.81 135.88 118.19 134.97 118.32 L 133.91 118.49 C 133.00 118.63 132.37 119.47 132.51 120.38 C 132.65 121.29 133.50 121.91 134.41 121.78 Z M 135.49 121.61 L 136.50 121.44 C 137.41 121.29 138.02 120.44 137.87 119.54 C 137.72 118.63 136.87 118.02 135.97 118.17 L 134.95 118.33 C 134.05 118.48 133.44 119.33 133.58 120.24 C 133.73 121.14 134.58 121.75 135.49 121.61 Z M 136.52 121.43 L 137.47 121.27 C 138.37 121.11 138.97 120.26 138.82 119.36 C 138.66 118.46 137.81 117.86 136.91 118.01 L 135.96 118.18 C 135.06 118.33 134.45 119.18 134.61 120.08 C 134.76 120.98 135.62 121.59 136.52 121.43 Z M 137.48 121.26 L 138.36 121.10 C 139.26 120.94 139.85 120.08 139.69 119.19 C 139.53 118.29 138.68 117.70 137.78 117.86 L 136.90 118.02 C 136.00 118.18 135.41 119.04 135.57 119.93 C 135.73 120.83 136.59 121.42 137.48 121.26 Z M 138.38 121.09 L 139.35 120.91 C 140.24 120.74 140.82 119.88 140.65 118.99 C 140.49 118.10 139.63 117.52 138.74 117.69 L 137.77 117.87 C 136.88 118.04 136.29 118.89 136.46 119.78 C 136.63 120.67 137.49 121.26 138.38 121.09 Z M 139.36 120.90 L 140.44 120.68 C 141.33 120.51 141.90 119.65 141.72 118.76 C 141.55 117.88 140.69 117.31 139.80 117.48 L 138.72 117.70 C 137.84 117.87 137.27 118.73 137.44 119.62 C 137.62 120.50 138.48 121.07 139.36 120.90 Z M 140.46 120.67 L 141.40 120.47 C 142.28 120.28 142.83 119.42 142.65 118.54 C 142.46 117.67 141.60 117.11 140.72 117.30 L 139.78 117.50 C 138.91 117.68 138.35 118.55 138.54 119.42 C 138.73 120.30 139.59 120.85 140.46 120.67 Z M 141.42 120.45 L 142.28 120.26 C 143.15 120.06 143.69 119.19 143.49 118.33 C 143.29 117.46 142.43 116.92 141.56 117.12 L 140.70 117.31 C 139.83 117.51 139.29 118.37 139.49 119.24 C 139.69 120.11 140.55 120.65 141.42 120.45 Z M 142.30 120.24 L 143.23 120.02 C 144.09 119.81 144.62 118.94 144.41 118.08 C 144.20 117.22 143.34 116.69 142.48 116.90 L 141.54 117.13 C 140.68 117.34 140.16 118.20 140.36 119.06 C 140.57 119.92 141.44 120.45 142.30 120.24 Z M 143.24 120.00 L 144.21 119.76 C 145.06 119.55 145.58 118.68 145.36 117.83 C 145.15 116.97 144.28 116.46 143.43 116.67 L 142.46 116.91 C 141.61 117.13 141.09 118.00 141.31 118.85 C 141.52 119.70 142.39 120.22 143.24 120.00 Z M 144.21 119.75 L 145.19 119.50 C 146.03 119.29 146.55 118.42 146.33 117.57 C 146.11 116.73 145.25 116.21 144.40 116.43 L 143.43 116.68 C 142.58 116.90 142.07 117.76 142.28 118.61 C 142.50 119.46 143.36 119.97 144.21 119.75 Z M 145.18 119.50 L 146.15 119.25 C 147.00 119.03 147.51 118.17 147.29 117.33 C 147.08 116.48 146.22 115.98 145.37 116.19 L 144.40 116.44 C 143.56 116.65 143.05 117.51 143.26 118.36 C 143.48 119.20 144.34 119.71 145.18 119.50 Z M 146.15 119.24 L 147.12 118.99 C 147.96 118.78 148.47 117.92 148.25 117.08 C 148.04 116.24 147.18 115.74 146.35 115.95 L 145.38 116.20 C 144.54 116.41 144.03 117.27 144.24 118.11 C 144.46 118.95 145.31 119.45 146.15 119.24 Z M 147.13 118.98 L 148.10 118.73 C 148.93 118.51 149.43 117.65 149.21 116.82 C 148.99 115.99 148.14 115.49 147.31 115.71 L 146.34 115.96 C 145.50 116.18 145.01 117.03 145.22 117.87 C 145.44 118.70 146.30 119.20 147.13 118.98 Z M 148.11 118.71 L 149.08 118.45 C 149.90 118.22 150.39 117.37 150.16 116.54 C 149.93 115.72 149.08 115.23 148.25 115.46 L 147.29 115.72 C 146.47 115.95 145.98 116.80 146.21 117.63 C 146.43 118.45 147.29 118.94 148.11 118.71 Z M 149.09 118.43 L 150.05 118.16 C 150.86 117.92 151.34 117.07 151.10 116.25 C 150.86 115.43 150.01 114.96 149.19 115.20 L 148.24 115.47 C 147.42 115.71 146.95 116.56 147.18 117.38 C 147.42 118.20 148.28 118.67 149.09 118.43 Z M 150.06 118.15 L 151.02 117.86 C 151.83 117.61 152.29 116.76 152.04 115.95 C 151.80 115.13 150.94 114.68 150.13 114.92 L 149.17 115.21 C 148.36 115.45 147.90 116.31 148.15 117.12 C 148.39 117.93 149.25 118.39 150.06 118.15 Z M 151.02 117.84 L 151.99 117.55 C 152.79 117.30 153.24 116.44 152.99 115.64 C 152.74 114.83 151.89 114.38 151.08 114.63 L 150.12 114.93 C 149.32 115.18 148.87 116.04 149.12 116.84 C 149.37 117.64 150.22 118.09 151.02 117.84 Z M 151.99 117.54 L 152.91 117.25 C 153.71 116.99 154.16 116.14 153.90 115.34 C 153.65 114.55 152.80 114.10 152.00 114.35 L 151.08 114.64 C 150.28 114.90 149.84 115.75 150.09 116.55 C 150.34 117.34 151.19 117.79 151.99 117.54 Z M 152.91 117.24 L 153.86 116.93 C 154.66 116.68 155.10 115.83 154.84 115.04 C 154.59 114.25 153.74 113.81 152.95 114.06 L 152.00 114.36 C 151.21 114.61 150.77 115.46 151.02 116.26 C 151.27 117.05 152.12 117.49 152.91 117.24 Z M 153.86 116.93 L 154.84 116.61 C 155.63 116.36 156.06 115.52 155.81 114.73 C 155.56 113.94 154.71 113.50 153.93 113.76 L 152.95 114.07 C 152.16 114.32 151.73 115.17 151.98 115.95 C 152.23 116.74 153.07 117.18 153.86 116.93 Z M 154.84 116.61 L 155.80 116.30 C 156.59 116.04 157.02 115.20 156.77 114.42 C 156.52 113.64 155.68 113.20 154.89 113.45 L 153.93 113.76 C 153.14 114.02 152.71 114.86 152.96 115.64 C 153.21 116.43 154.05 116.86 154.84 116.61 Z M 155.80 116.29 L 156.76 115.98 C 157.54 115.73 157.97 114.89 157.72 114.11 C 157.47 113.33 156.63 112.90 155.85 113.15 L 154.89 113.46 C 154.11 113.71 153.68 114.55 153.94 115.33 C 154.19 116.11 155.02 116.54 155.80 116.29 Z M 156.76 115.97 L 157.72 115.66 C 158.50 115.41 158.93 114.58 158.67 113.80 C 158.42 113.03 157.59 112.60 156.81 112.85 L 155.85 113.16 C 155.08 113.41 154.65 114.24 154.90 115.02 C 155.15 115.80 155.99 116.22 156.76 115.97 Z M 157.72 115.66 L 158.66 115.35 C 159.44 115.10 159.86 114.27 159.61 113.50 C 159.36 112.72 158.53 112.30 157.75 112.55 L 156.81 112.86 C 156.04 113.11 155.62 113.94 155.87 114.71 C 156.12 115.48 156.95 115.91 157.72 115.66 Z M 158.67 115.34 L 159.65 115.02 C 160.41 114.77 160.83 113.94 160.58 113.17 C 160.33 112.40 159.50 111.98 158.73 112.24 L 157.75 112.56 C 156.98 112.81 156.56 113.64 156.82 114.41 C 157.07 115.18 157.90 115.60 158.67 115.34 Z M 159.65 115.01 L 160.60 114.69 C 161.37 114.44 161.78 113.61 161.52 112.85 C 161.27 112.08 160.44 111.67 159.68 111.93 L 158.72 112.25 C 157.96 112.50 157.55 113.33 157.80 114.09 C 158.06 114.86 158.89 115.27 159.65 115.01 Z M 160.62 114.68 L 161.54 114.36 C 162.30 114.10 162.70 113.27 162.44 112.51 C 162.18 111.75 161.35 111.35 160.59 111.62 L 159.66 111.94 C 158.91 112.20 158.50 113.03 158.77 113.79 C 159.03 114.54 159.86 114.95 160.62 114.68 Z M 161.56 114.35 L 162.49 114.01 C 163.24 113.74 163.63 112.91 163.36 112.16 C 163.09 111.41 162.26 111.02 161.51 111.29 L 160.57 111.63 C 159.82 111.90 159.43 112.73 159.70 113.48 C 159.98 114.23 160.81 114.62 161.56 114.35 Z M 162.51 114.00 L 163.45 113.64 C 164.20 113.36 164.58 112.53 164.29 111.78 C 164.01 111.04 163.18 110.66 162.43 110.94 L 161.49 111.30 C 160.74 111.58 160.37 112.42 160.65 113.16 C 160.93 113.91 161.76 114.28 162.51 114.00 Z M 163.47 113.63 L 164.40 113.27 C 165.14 112.98 165.50 112.14 165.21 111.40 C 164.92 110.66 164.08 110.30 163.34 110.59 L 162.42 110.96 C 161.68 111.25 161.31 112.08 161.60 112.82 C 161.89 113.56 162.73 113.92 163.47 113.63 Z M 164.41 113.26 L 165.31 112.90 C 166.04 112.60 166.39 111.76 166.10 111.03 C 165.80 110.29 164.96 109.94 164.23 110.24 L 163.33 110.60 C 162.60 110.90 162.24 111.74 162.54 112.47 C 162.84 113.20 163.68 113.56 164.41 113.26 Z M 165.32 112.89 L 166.17 112.53 C 166.90 112.22 167.25 111.38 166.94 110.65 C 166.63 109.92 165.79 109.58 165.06 109.89 L 164.21 110.25 C 163.48 110.55 163.14 111.39 163.45 112.12 C 163.75 112.85 164.59 113.19 165.32 112.89 Z M 166.20 112.52 L 167.09 112.12 C 167.81 111.80 168.14 110.95 167.82 110.23 C 167.50 109.51 166.65 109.18 165.93 109.50 L 165.04 109.90 C 164.32 110.22 163.99 111.07 164.31 111.79 C 164.63 112.51 165.48 112.84 166.20 112.52 Z M 167.12 112.10 L 168.10 111.64 C 168.82 111.30 169.12 110.45 168.78 109.74 C 168.45 109.03 167.60 108.72 166.88 109.06 L 165.90 109.52 C 165.19 109.86 164.88 110.71 165.22 111.42 C 165.56 112.13 166.41 112.44 167.12 112.10 Z M 168.13 111.63 L 168.97 111.21 C 169.68 110.86 169.96 110.00 169.61 109.30 C 169.26 108.59 168.41 108.30 167.70 108.65 L 166.86 109.07 C 166.15 109.42 165.86 110.28 166.22 110.98 C 166.57 111.69 167.42 111.98 168.13 111.63 Z M 168.98 111.20 L 169.84 110.76 C 170.54 110.41 170.82 109.55 170.46 108.85 C 170.10 108.14 169.24 107.87 168.54 108.22 L 167.69 108.66 C 166.98 109.02 166.71 109.88 167.07 110.58 C 167.42 111.28 168.28 111.56 168.98 111.20 Z M 169.85 110.76 L 170.75 110.29 C 171.45 109.93 171.72 109.07 171.35 108.37 C 170.99 107.67 170.13 107.40 169.43 107.76 L 168.53 108.23 C 167.83 108.59 167.56 109.45 167.92 110.15 C 168.29 110.85 169.15 111.12 169.85 110.76 Z M 170.75 110.29 L 171.68 109.80 C 172.38 109.43 172.65 108.57 172.28 107.87 C 171.92 107.17 171.05 106.91 170.36 107.27 L 169.42 107.76 C 168.73 108.13 168.46 108.99 168.83 109.69 C 169.19 110.39 170.06 110.65 170.75 110.29 Z M 171.69 109.80 L 172.56 109.34 C 173.25 108.97 173.52 108.11 173.15 107.41 C 172.78 106.71 171.92 106.45 171.22 106.82 L 170.35 107.28 C 169.66 107.64 169.39 108.51 169.76 109.20 C 170.13 109.90 170.99 110.16 171.69 109.80 Z"
      fill="black"
      fill-rule="nonzero" /><path d="M 150.53 97.33 L 150.43 98.32 C 150.34 99.15 150.94 99.90 151.78 99.99 C 152.61 100.08 153.36 99.47 153.45 98.64 L 153.56 97.65 C 153.65 96.82 153.04 96.07 152.21 95.98 C 151.37 95.89 150.62 96.50 150.53 97.33 Z M 150.38 98.32 L 150.28 99.30 C 150.19 100.17 150.81 100.94 151.68 101.03 C 152.54 101.12 153.31 100.49 153.40 99.63 L 153.50 98.64 C 153.59 97.78 152.96 97.01 152.10 96.92 C 151.24 96.83 150.47 97.45 150.38 98.32 Z M 150.23 99.31 L 150.13 100.31 C 150.04 101.20 150.69 101.99 151.58 102.07 C 152.47 102.16 153.26 101.51 153.35 100.62 L 153.45 99.62 C 153.53 98.73 152.88 97.94 151.99 97.86 C 151.11 97.77 150.31 98.42 150.23 99.31 Z M 150.09 100.32 L 150.00 101.30 C 149.92 102.22 150.59 103.02 151.50 103.10 C 152.42 103.18 153.23 102.51 153.31 101.60 L 153.39 100.61 C 153.48 99.70 152.80 98.89 151.89 98.81 C 150.97 98.73 150.17 99.40 150.09 100.32 Z M 149.97 101.31 L 149.90 102.22 C 149.82 103.15 150.51 103.96 151.44 104.04 C 152.37 104.11 153.18 103.42 153.26 102.50 L 153.33 101.59 C 153.41 100.66 152.72 99.85 151.79 99.77 C 150.86 99.70 150.05 100.39 149.97 101.31 Z M 149.89 102.22 L 149.81 103.17 C 149.74 104.10 150.43 104.92 151.36 105.00 C 152.29 105.08 153.10 104.39 153.18 103.46 L 153.26 102.50 C 153.34 101.57 152.65 100.75 151.72 100.68 C 150.79 100.60 149.97 101.29 149.89 102.22 Z M 149.81 103.16 L 149.71 104.18 C 149.63 105.11 150.31 105.94 151.24 106.02 C 152.18 106.11 153.00 105.43 153.09 104.49 L 153.19 103.47 C 153.27 102.54 152.59 101.71 151.66 101.62 C 150.72 101.54 149.89 102.22 149.81 103.16 Z M 149.71 104.15 L 149.59 105.26 C 149.49 106.20 150.16 107.04 151.10 107.14 C 152.03 107.24 152.87 106.56 152.98 105.63 L 153.10 104.52 C 153.20 103.58 152.52 102.74 151.59 102.64 C 150.65 102.54 149.81 103.22 149.71 104.15 Z M 149.59 105.23 L 149.46 106.21 C 149.35 107.14 150.01 108.00 150.95 108.11 C 151.89 108.23 152.74 107.57 152.86 106.63 L 152.98 105.66 C 153.09 104.72 152.43 103.87 151.49 103.75 C 150.56 103.63 149.70 104.30 149.59 105.23 Z M 149.46 106.19 L 149.33 107.19 C 149.20 108.13 149.85 108.99 150.79 109.12 C 151.73 109.25 152.59 108.59 152.72 107.66 L 152.86 106.65 C 152.99 105.71 152.33 104.85 151.39 104.72 C 150.46 104.59 149.59 105.25 149.46 106.19 Z M 149.33 107.17 L 149.17 108.20 C 149.04 109.14 149.68 110.01 150.62 110.15 C 151.56 110.28 152.43 109.63 152.57 108.70 L 152.72 107.67 C 152.86 106.74 152.21 105.86 151.27 105.73 C 150.34 105.59 149.46 106.24 149.33 107.17 Z M 149.17 108.18 L 149.02 109.19 C 148.87 110.13 149.51 111.01 150.45 111.16 C 151.39 111.30 152.27 110.66 152.41 109.72 L 152.57 108.71 C 152.72 107.78 152.08 106.90 151.14 106.75 C 150.20 106.60 149.32 107.24 149.17 108.18 Z M 149.01 109.18 L 148.85 110.15 C 148.70 111.09 149.33 111.97 150.27 112.13 C 151.21 112.29 152.10 111.65 152.25 110.71 L 152.41 109.74 C 152.57 108.80 151.93 107.91 151.00 107.76 C 150.06 107.60 149.17 108.24 149.01 109.18 Z M 148.85 110.13 L 148.67 111.16 C 148.51 112.09 149.13 112.99 150.07 113.16 C 151.01 113.32 151.91 112.70 152.07 111.76 L 152.25 110.73 C 152.42 109.79 151.79 108.90 150.85 108.73 C 149.91 108.56 149.02 109.19 148.85 110.13 Z M 148.67 111.13 L 148.48 112.16 C 148.30 113.10 148.91 114.01 149.85 114.19 C 150.79 114.36 151.69 113.75 151.87 112.81 L 152.07 111.78 C 152.25 110.84 151.63 109.94 150.70 109.76 C 149.76 109.58 148.85 110.19 148.67 111.13 Z M 148.48 112.14 L 148.28 113.10 C 148.09 114.03 148.69 114.95 149.63 115.14 C 150.57 115.33 151.48 114.73 151.67 113.79 L 151.87 112.84 C 152.06 111.90 151.46 110.98 150.52 110.79 C 149.59 110.60 148.67 111.20 148.48 112.14 Z M 148.28 113.07 L 148.08 113.99 C 147.88 114.93 148.47 115.85 149.40 116.06 C 150.34 116.27 151.26 115.67 151.47 114.74 L 151.67 113.82 C 151.88 112.88 151.29 111.96 150.35 111.75 C 149.41 111.54 148.49 112.14 148.28 113.07 Z M 148.08 113.98 L 147.87 114.89 C 147.65 115.83 148.24 116.76 149.17 116.98 C 150.11 117.19 151.04 116.61 151.26 115.67 L 151.47 114.76 C 151.68 113.82 151.10 112.89 150.17 112.67 C 149.23 112.46 148.30 113.04 148.08 113.98 Z M 147.87 114.88 L 147.65 115.80 C 147.43 116.74 148.00 117.68 148.94 117.90 C 149.87 118.12 150.81 117.55 151.03 116.61 L 151.25 115.69 C 151.48 114.76 150.90 113.82 149.97 113.59 C 149.03 113.37 148.10 113.94 147.87 114.88 Z M 147.65 115.79 L 147.42 116.74 C 147.18 117.68 147.75 118.62 148.68 118.85 C 149.62 119.08 150.56 118.52 150.79 117.58 L 151.03 116.63 C 151.26 115.70 150.69 114.75 149.76 114.52 C 148.83 114.29 147.89 114.86 147.65 115.79 Z M 147.42 116.73 L 147.16 117.71 C 146.92 118.64 147.48 119.59 148.41 119.83 C 149.34 120.08 150.29 119.52 150.53 118.59 L 150.79 117.60 C 151.03 116.67 150.47 115.72 149.54 115.48 C 148.61 115.24 147.66 115.80 147.42 116.73 Z M 147.17 117.70 L 146.89 118.72 C 146.64 119.64 147.19 120.60 148.12 120.85 C 149.05 121.10 150.01 120.55 150.26 119.62 L 150.53 118.60 C 150.78 117.67 150.23 116.72 149.30 116.47 C 148.37 116.22 147.42 116.77 147.17 117.70 Z M 146.90 118.70 L 146.64 119.63 C 146.38 120.55 146.92 121.52 147.85 121.77 C 148.78 122.03 149.74 121.49 149.99 120.56 L 150.25 119.64 C 150.51 118.71 149.97 117.75 149.04 117.49 C 148.12 117.23 147.16 117.77 146.90 118.70 Z M 146.64 119.61 L 146.37 120.55 C 146.11 121.47 146.64 122.44 147.56 122.70 C 148.49 122.97 149.45 122.44 149.72 121.51 L 149.99 120.58 C 150.26 119.65 149.72 118.69 148.80 118.42 C 147.87 118.15 146.91 118.69 146.64 119.61 Z M 146.38 120.53 L 146.09 121.49 C 145.82 122.41 146.34 123.38 147.26 123.66 C 148.19 123.93 149.16 123.41 149.43 122.48 L 149.72 121.53 C 149.99 120.61 149.47 119.63 148.54 119.36 C 147.62 119.09 146.65 119.61 146.38 120.53 Z M 146.10 121.47 L 145.80 122.45 C 145.51 123.37 146.03 124.35 146.95 124.63 C 147.87 124.91 148.84 124.40 149.13 123.48 L 149.43 122.50 C 149.71 121.58 149.19 120.60 148.27 120.32 C 147.35 120.04 146.38 120.55 146.10 121.47 Z M 145.80 122.44 L 145.48 123.43 C 145.19 124.35 145.70 125.33 146.62 125.62 C 147.54 125.91 148.52 125.40 148.81 124.49 L 149.12 123.49 C 149.42 122.57 148.91 121.59 147.99 121.30 C 147.07 121.01 146.09 121.52 145.80 122.44 Z M 145.49 123.41 L 145.18 124.35 C 144.88 125.26 145.38 126.25 146.30 126.55 C 147.21 126.85 148.20 126.35 148.50 125.43 L 148.80 124.50 C 149.10 123.59 148.60 122.60 147.69 122.30 C 146.77 122.00 145.79 122.50 145.49 123.41 Z M 145.19 124.33 L 144.88 125.26 C 144.57 126.17 145.06 127.16 145.97 127.47 C 146.88 127.77 147.87 127.29 148.18 126.37 L 148.49 125.45 C 148.80 124.54 148.31 123.55 147.40 123.24 C 146.49 122.93 145.50 123.42 145.19 124.33 Z M 144.88 125.24 L 144.55 126.17 C 144.23 127.08 144.71 128.08 145.62 128.40 C 146.53 128.72 147.53 128.24 147.84 127.33 L 148.17 126.39 C 148.49 125.48 148.01 124.49 147.10 124.17 C 146.20 123.85 145.20 124.33 144.88 125.24 Z M 144.56 126.15 L 144.22 127.10 C 143.89 128.00 144.35 129.01 145.26 129.34 C 146.16 129.67 147.16 129.20 147.49 128.30 L 147.84 127.35 C 148.17 126.44 147.70 125.44 146.80 125.11 C 145.89 124.78 144.89 125.25 144.56 126.15 Z M 144.22 127.08 L 143.86 128.03 C 143.52 128.93 143.97 129.94 144.87 130.28 C 145.77 130.63 146.78 130.17 147.12 129.27 L 147.48 128.32 C 147.83 127.42 147.37 126.41 146.47 126.07 C 145.57 125.73 144.57 126.18 144.22 127.08 Z M 143.87 128.01 L 143.49 128.96 C 143.14 129.85 143.58 130.87 144.47 131.22 C 145.37 131.58 146.38 131.14 146.73 130.24 L 147.11 129.30 C 147.47 128.40 147.03 127.39 146.13 127.03 C 145.24 126.68 144.22 127.12 143.87 128.01 Z M 143.50 128.93 L 143.14 129.82 C 142.77 130.71 143.19 131.73 144.08 132.10 C 144.97 132.46 145.99 132.04 146.36 131.15 L 146.73 130.27 C 147.09 129.38 146.67 128.36 145.78 127.99 C 144.89 127.62 143.87 128.04 143.50 128.93 Z M 143.15 129.80 L 142.76 130.69 C 142.38 131.58 142.79 132.60 143.68 132.98 C 144.56 133.36 145.59 132.95 145.97 132.06 L 146.35 131.17 C 146.73 130.29 146.32 129.26 145.44 128.88 C 144.55 128.50 143.53 128.91 143.15 129.80 Z M 142.77 130.67 L 142.37 131.58 C 141.98 132.46 142.38 133.49 143.26 133.88 C 144.14 134.27 145.17 133.87 145.56 132.99 L 145.96 132.08 C 146.35 131.20 145.95 130.17 145.07 129.78 C 144.19 129.39 143.16 129.79 142.77 130.67 Z M 142.38 131.56 L 141.96 132.48 C 141.56 133.36 141.95 134.39 142.83 134.79 C 143.70 135.19 144.74 134.80 145.14 133.92 L 145.55 133.00 C 145.95 132.13 145.56 131.09 144.69 130.69 C 143.81 130.30 142.78 130.68 142.38 131.56 Z M 141.97 132.47 L 141.53 133.40 C 141.13 134.27 141.51 135.31 142.38 135.72 C 143.25 136.12 144.29 135.74 144.69 134.87 L 145.13 133.94 C 145.54 133.06 145.16 132.03 144.28 131.62 C 143.41 131.21 142.37 131.59 141.97 132.47 Z M 141.54 133.39 L 141.09 134.34 C 140.67 135.21 141.05 136.25 141.92 136.66 C 142.79 137.08 143.83 136.70 144.24 135.83 L 144.69 134.88 C 145.10 134.01 144.73 132.97 143.86 132.56 C 142.99 132.15 141.95 132.52 141.54 133.39 Z M 141.09 134.33 L 140.67 135.21 C 140.25 136.08 140.61 137.12 141.48 137.54 C 142.35 137.96 143.39 137.59 143.81 136.73 L 144.23 135.84 C 144.65 134.98 144.29 133.94 143.42 133.52 C 142.55 133.10 141.51 133.46 141.09 134.33 Z M 140.67 135.20 L 140.24 136.10 C 139.81 136.96 140.17 138.01 141.03 138.43 C 141.90 138.85 142.94 138.49 143.36 137.63 L 143.80 136.74 C 144.22 135.87 143.87 134.83 143.00 134.41 C 142.14 133.98 141.10 134.34 140.67 135.20 Z M 140.24 136.09 L 139.79 136.99 C 139.36 137.85 139.71 138.90 140.57 139.32 C 141.44 139.75 142.48 139.40 142.91 138.54 L 143.36 137.64 C 143.79 136.78 143.44 135.74 142.58 135.31 C 141.72 134.88 140.67 135.23 140.24 136.09 Z M 139.80 136.98 L 139.34 137.88 C 138.91 138.74 139.25 139.78 140.10 140.22 C 140.96 140.65 142.01 140.31 142.44 139.45 L 142.90 138.55 C 143.34 137.70 143.00 136.65 142.14 136.21 C 141.28 135.78 140.23 136.12 139.80 136.98 Z M 139.35 137.87 L 138.88 138.76 C 138.44 139.61 138.77 140.66 139.63 141.11 C 140.48 141.55 141.53 141.22 141.97 140.36 L 142.44 139.47 C 142.88 138.62 142.55 137.57 141.69 137.12 C 140.84 136.68 139.79 137.01 139.35 137.87 Z M 138.89 138.75 L 138.42 139.63 C 137.97 140.48 138.29 141.53 139.14 141.98 C 139.99 142.43 141.04 142.11 141.49 141.27 L 141.96 140.38 C 142.41 139.53 142.09 138.48 141.24 138.03 C 140.40 137.58 139.34 137.90 138.89 138.75 Z M 138.43 139.62 L 137.95 140.50 C 137.49 141.34 137.80 142.39 138.64 142.85 C 139.48 143.31 140.54 143.00 141.00 142.16 L 141.48 141.28 C 141.94 140.44 141.63 139.38 140.79 138.92 C 139.95 138.46 138.89 138.77 138.43 139.62 Z M 137.96 140.48 L 137.46 141.37 C 136.99 142.21 137.29 143.27 138.12 143.74 C 138.96 144.21 140.02 143.91 140.49 143.07 L 140.99 142.18 C 141.46 141.34 141.16 140.29 140.33 139.82 C 139.49 139.35 138.43 139.64 137.96 140.48 Z M 137.47 141.35 L 136.96 142.23 C 136.48 143.06 136.77 144.12 137.60 144.60 C 138.43 145.08 139.49 144.80 139.97 143.97 L 140.48 143.09 C 140.96 142.26 140.67 141.20 139.84 140.72 C 139.01 140.24 137.95 140.52 137.47 141.35 Z M 136.98 142.21 L 136.47 143.07 C 135.98 143.89 136.25 144.96 137.07 145.45 C 137.89 145.94 138.96 145.67 139.45 144.84 L 139.96 143.98 C 140.45 143.16 140.18 142.10 139.35 141.61 C 138.53 141.12 137.47 141.39 136.98 142.21 Z M 136.48 143.06 L 135.96 143.90 C 135.46 144.72 135.72 145.79 136.54 146.28 C 137.36 146.78 138.42 146.52 138.92 145.70 L 139.44 144.86 C 139.93 144.04 139.67 142.97 138.86 142.48 C 138.04 141.98 136.97 142.24 136.48 143.06 Z M 135.97 143.89 L 135.45 144.73 C 134.94 145.54 135.19 146.61 136.01 147.11 C 136.82 147.62 137.89 147.37 138.39 146.56 L 138.91 145.72 C 139.42 144.91 139.17 143.84 138.36 143.33 C 137.54 142.83 136.48 143.08 135.97 143.89 Z M 135.46 144.71 L 134.93 145.54 C 134.42 146.35 134.66 147.42 135.47 147.93 C 136.27 148.44 137.34 148.21 137.86 147.40 L 138.38 146.57 C 138.89 145.76 138.65 144.69 137.85 144.18 C 137.04 143.67 135.97 143.91 135.46 144.71 Z M 134.94 145.53 L 134.40 146.37 C 133.88 147.17 134.11 148.24 134.92 148.76 C 135.72 149.28 136.79 149.05 137.31 148.25 L 137.85 147.41 C 138.36 146.61 138.13 145.54 137.33 145.02 C 136.53 144.50 135.46 144.73 134.94 145.53 Z M 134.41 146.36 L 133.86 147.20 C 133.34 148.00 133.56 149.07 134.36 149.59 C 135.16 150.11 136.23 149.89 136.75 149.09 L 137.30 148.25 C 137.82 147.46 137.60 146.39 136.80 145.86 C 136.00 145.34 134.93 145.56 134.41 146.36 Z M 133.87 147.19 L 133.32 148.02 C 132.79 148.81 133.00 149.89 133.79 150.41 C 134.59 150.94 135.66 150.73 136.19 149.93 L 136.74 149.10 C 137.27 148.31 137.06 147.24 136.26 146.71 C 135.47 146.18 134.40 146.40 133.87 147.19 Z M 133.32 148.01 L 132.76 148.84 C 132.23 149.63 132.43 150.70 133.22 151.23 C 134.01 151.77 135.08 151.56 135.62 150.77 L 136.18 149.95 C 136.71 149.16 136.51 148.09 135.72 147.55 C 134.93 147.02 133.86 147.22 133.32 148.01 Z M 132.77 148.83 L 132.20 149.65 C 131.67 150.43 131.86 151.51 132.64 152.05 C 133.43 152.59 134.50 152.39 135.04 151.61 L 135.61 150.78 C 136.15 150.00 135.95 148.93 135.17 148.39 C 134.38 147.85 133.31 148.05 132.77 148.83 Z M 132.22 149.64 L 131.64 150.46 C 131.09 151.24 131.28 152.31 132.06 152.85 C 132.84 153.40 133.91 153.21 134.45 152.44 L 135.03 151.62 C 135.57 150.84 135.39 149.77 134.61 149.22 C 133.83 148.68 132.76 148.86 132.22 149.64 Z M 131.65 150.45 L 131.07 151.26 C 130.51 152.04 130.69 153.11 131.46 153.66 C 132.23 154.21 133.31 154.04 133.86 153.26 L 134.44 152.45 C 135.00 151.68 134.82 150.60 134.05 150.05 C 133.28 149.50 132.20 149.68 131.65 150.45 Z M 131.08 151.25 L 130.48 152.07 C 129.92 152.84 130.09 153.91 130.85 154.47 C 131.62 155.03 132.69 154.86 133.25 154.10 L 133.85 153.28 C 134.40 152.51 134.24 151.44 133.47 150.88 C 132.71 150.32 131.63 150.49 131.08 151.25 Z M 130.49 152.06 L 129.88 152.88 C 129.32 153.63 129.48 154.71 130.24 155.27 C 130.99 155.84 132.07 155.68 132.63 154.92 L 133.24 154.11 C 133.80 153.35 133.64 152.28 132.88 151.71 C 132.13 151.15 131.05 151.30 130.49 152.06 Z M 129.89 152.87 L 129.29 153.67 C 128.72 154.42 128.86 155.49 129.62 156.06 C 130.37 156.63 131.44 156.49 132.01 155.73 L 132.62 154.93 C 133.19 154.18 133.04 153.11 132.29 152.53 C 131.54 151.96 130.46 152.11 129.89 152.87 Z M 129.30 153.66 L 128.69 154.45 C 128.11 155.19 128.25 156.27 129.00 156.84 C 129.75 157.42 130.82 157.28 131.39 156.53 L 132.00 155.74 C 132.58 155.00 132.44 153.92 131.69 153.35 C 130.95 152.77 129.87 152.91 129.30 153.66 Z M 128.70 154.44 L 128.09 155.21 C 127.51 155.95 127.64 157.02 128.38 157.61 C 129.12 158.19 130.19 158.06 130.78 157.32 L 131.38 156.54 C 131.97 155.80 131.84 154.73 131.09 154.15 C 130.35 153.57 129.28 153.69 128.70 154.44 Z M 128.10 155.20 L 127.49 155.97 C 126.90 156.71 127.02 157.78 127.76 158.36 C 128.49 158.95 129.56 158.83 130.15 158.10 L 130.77 157.33 C 131.35 156.59 131.23 155.52 130.50 154.93 C 129.76 154.35 128.69 154.47 128.10 155.20 Z M 127.50 155.96 L 126.84 156.77 C 126.25 157.50 126.36 158.57 127.09 159.16 C 127.82 159.75 128.89 159.64 129.48 158.91 L 130.14 158.10 C 130.73 157.38 130.62 156.30 129.89 155.71 C 129.16 155.12 128.09 155.23 127.50 155.96 Z M 126.86 156.76 L 126.21 157.55 C 125.61 158.27 125.71 159.34 126.43 159.94 C 127.16 160.53 128.23 160.43 128.82 159.71 L 129.47 158.92 C 130.07 158.20 129.97 157.13 129.25 156.53 C 128.52 155.94 127.45 156.04 126.86 156.76 Z M 126.22 157.54 L 125.57 158.31 C 124.97 159.02 125.06 160.09 125.78 160.69 C 126.50 161.29 127.57 161.20 128.17 160.48 L 128.81 159.72 C 129.41 159.00 129.32 157.93 128.60 157.33 C 127.89 156.73 126.82 156.82 126.22 157.54 Z M 125.58 158.30 L 124.94 159.05 C 124.34 159.76 124.43 160.83 125.14 161.43 C 125.85 162.04 126.91 161.95 127.52 161.24 L 128.16 160.49 C 128.76 159.78 128.67 158.71 127.96 158.11 C 127.25 157.51 126.19 157.59 125.58 158.30 Z M 124.95 159.05 L 124.32 159.78 C 123.71 160.49 123.79 161.55 124.50 162.16 C 125.20 162.77 126.27 162.69 126.88 161.98 L 127.51 161.25 C 128.11 160.54 128.04 159.48 127.33 158.87 C 126.62 158.26 125.56 158.34 124.95 159.05 Z M 124.33 159.78 L 123.68 160.52 C 123.07 161.22 123.15 162.28 123.85 162.89 C 124.55 163.50 125.61 163.43 126.22 162.73 L 126.87 161.99 C 127.48 161.28 127.40 160.22 126.70 159.61 C 126.00 159.00 124.94 159.08 124.33 159.78 Z M 123.69 160.52 L 123.02 161.28 C 122.41 161.97 122.48 163.03 123.17 163.64 C 123.87 164.26 124.93 164.19 125.54 163.49 L 126.21 162.73 C 126.82 162.04 126.76 160.98 126.06 160.36 C 125.36 159.75 124.30 159.82 123.69 160.52 Z M 123.03 161.27 L 122.37 162.02 C 121.75 162.71 121.81 163.77 122.50 164.38 C 123.19 165.00 124.25 164.94 124.87 164.25 L 125.53 163.50 C 126.15 162.81 126.08 161.75 125.39 161.14 C 124.70 160.52 123.65 160.58 123.03 161.27 Z M 122.38 162.02 L 121.71 162.75 C 121.10 163.44 121.15 164.49 121.84 165.11 C 122.52 165.73 123.57 165.67 124.19 164.99 L 124.86 164.25 C 125.47 163.57 125.42 162.51 124.73 161.89 C 124.05 161.28 122.99 161.33 122.38 162.02 Z M 121.72 162.75 L 121.06 163.48 C 120.44 164.16 120.48 165.21 121.16 165.83 C 121.84 166.45 122.89 166.40 123.51 165.72 L 124.18 164.99 C 124.80 164.31 124.75 163.26 124.07 162.64 C 123.40 162.02 122.34 162.07 121.72 162.75 Z M 121.07 163.47 L 120.39 164.21 C 119.77 164.88 119.81 165.93 120.48 166.55 C 121.15 167.17 122.20 167.13 122.82 166.46 L 123.50 165.73 C 124.13 165.06 124.09 164.01 123.41 163.38 C 122.74 162.76 121.69 162.80 121.07 163.47 Z M 120.40 164.20 L 119.68 164.96 C 119.06 165.63 119.09 166.68 119.76 167.30 C 120.42 167.93 121.47 167.90 122.09 167.23 L 122.81 166.47 C 123.44 165.80 123.41 164.75 122.74 164.13 C 122.07 163.50 121.03 163.53 120.40 164.20 Z M 119.70 164.96 L 118.98 165.71 C 118.35 166.37 118.37 167.41 119.03 168.04 C 119.69 168.67 120.74 168.64 121.37 167.99 L 122.08 167.24 C 122.71 166.58 122.69 165.53 122.03 164.90 C 121.37 164.27 120.32 164.30 119.70 164.96 Z M 118.99 165.70 L 118.29 166.43 C 117.66 167.08 117.67 168.12 118.32 168.75 C 118.97 169.38 120.01 169.37 120.65 168.72 L 121.35 167.99 C 121.98 167.34 121.97 166.30 121.32 165.67 C 120.67 165.04 119.63 165.05 118.99 165.70 Z M 118.30 166.42 L 117.62 167.11 C 116.99 167.75 116.99 168.79 117.63 169.43 C 118.28 170.06 119.31 170.06 119.95 169.41 L 120.63 168.72 C 121.27 168.08 121.26 167.04 120.62 166.41 C 119.98 165.77 118.94 165.78 118.30 166.42 Z M 117.64 167.10 L 116.96 167.77 C 116.32 168.40 116.31 169.44 116.95 170.08 C 117.58 170.72 118.62 170.72 119.26 170.09 L 119.93 169.42 C 120.57 168.79 120.58 167.76 119.95 167.11 C 119.31 166.47 118.28 166.47 117.64 167.10 Z M 116.99 167.75 L 116.19 168.52 C 115.54 169.14 115.51 170.17 116.13 170.82 C 116.76 171.47 117.78 171.49 118.43 170.87 L 119.23 170.10 C 119.88 169.48 119.91 168.45 119.28 167.81 C 118.66 167.16 117.63 167.13 116.99 167.75 Z M 116.21 168.50 L 115.47 169.19 C 114.81 169.79 114.77 170.81 115.38 171.47 C 115.98 172.13 117.00 172.17 117.66 171.57 L 118.40 170.89 C 119.06 170.28 119.11 169.26 118.50 168.60 C 117.90 167.94 116.87 167.90 116.21 168.50 Z M 115.50 169.17 L 114.80 169.79 C 114.14 170.37 114.07 171.39 114.66 172.06 C 115.25 172.73 116.27 172.79 116.93 172.20 L 117.63 171.59 C 118.30 171.00 118.36 169.98 117.78 169.31 C 117.19 168.65 116.17 168.58 115.50 169.17 Z M 114.83 169.77 L 114.13 170.36 C 113.46 170.93 113.37 171.95 113.94 172.62 C 114.52 173.30 115.53 173.38 116.20 172.81 L 116.90 172.22 C 117.58 171.65 117.66 170.63 117.09 169.96 C 116.52 169.28 115.51 169.20 114.83 169.77 Z M 114.17 170.35 L 113.42 170.95 C 112.74 171.50 112.63 172.50 113.18 173.19 C 113.73 173.87 114.74 173.98 115.42 173.43 L 116.17 172.83 C 116.85 172.27 116.96 171.27 116.41 170.59 C 115.86 169.90 114.85 169.79 114.17 170.35 Z M 113.46 170.93 L 112.68 171.52 C 111.98 172.06 111.85 173.05 112.38 173.75 C 112.91 174.44 113.90 174.58 114.60 174.05 L 115.38 173.45 C 116.08 172.92 116.21 171.92 115.68 171.23 C 115.15 170.53 114.16 170.40 113.46 170.93 Z M 112.72 171.51 L 111.85 172.13 C 111.14 172.64 110.98 173.62 111.49 174.33 C 112.00 175.04 112.99 175.20 113.69 174.69 L 114.56 174.06 C 115.27 173.56 115.43 172.57 114.92 171.86 C 114.41 171.16 113.42 171.00 112.72 171.51 Z M 111.89 172.12 L 111.11 172.65 C 110.40 173.14 110.22 174.11 110.71 174.83 C 111.20 175.54 112.17 175.72 112.89 175.23 L 113.66 174.70 C 114.37 174.21 114.55 173.24 114.06 172.52 C 113.58 171.81 112.60 171.63 111.89 172.12 Z M 111.15 172.63 L 110.31 173.17 C 109.59 173.64 109.38 174.60 109.85 175.33 C 110.32 176.05 111.28 176.26 112.01 175.79 L 112.85 175.25 C 113.57 174.78 113.78 173.82 113.31 173.09 C 112.84 172.37 111.88 172.16 111.15 172.63 Z M 110.37 173.14 L 109.48 173.67 C 108.75 174.11 108.50 175.06 108.94 175.80 C 109.38 176.54 110.34 176.78 111.07 176.34 L 111.96 175.82 C 112.69 175.38 112.94 174.42 112.50 173.69 C 112.06 172.95 111.10 172.71 110.37 173.14 Z M 109.55 173.64 L 108.64 174.12 C 107.89 174.52 107.60 175.46 108.00 176.21 C 108.40 176.97 109.34 177.26 110.09 176.86 L 111.00 176.37 C 111.76 175.97 112.05 175.04 111.65 174.28 C 111.24 173.53 110.31 173.24 109.55 173.64 Z M 108.75 174.08 L 107.68 174.56 C 106.90 174.90 106.55 175.81 106.89 176.58 C 107.23 177.36 108.14 177.71 108.92 177.37 L 109.99 176.90 C 110.76 176.55 111.12 175.65 110.77 174.87 C 110.43 174.09 109.52 173.74 108.75 174.08 Z M 107.85 174.50 L 106.80 174.82 C 106.00 175.07 105.54 175.92 105.79 176.73 C 106.03 177.53 106.88 177.98 107.69 177.74 L 108.74 177.42 C 109.55 177.17 110.00 176.32 109.75 175.52 C 109.51 174.71 108.66 174.26 107.85 174.50 Z M 107.14 174.77 L 106.24 174.84 C 105.41 174.90 104.78 175.62 104.84 176.45 C 104.90 177.28 105.62 177.91 106.45 177.85 L 107.35 177.79 C 108.18 177.73 108.81 177.01 108.75 176.18 C 108.69 175.34 107.97 174.72 107.14 174.77 Z M 106.95 174.98 L 106.29 174.68 C 105.53 174.35 104.65 174.69 104.31 175.45 C 103.98 176.20 104.32 177.08 105.08 177.42 L 105.74 177.71 C 106.50 178.05 107.38 177.70 107.72 176.95 C 108.05 176.19 107.71 175.31 106.95 174.98 Z M 106.99 175.36 L 106.59 174.62 C 106.21 173.90 105.32 173.63 104.60 174.01 C 103.88 174.39 103.60 175.28 103.99 176.01 L 104.38 176.74 C 104.76 177.46 105.65 177.74 106.37 177.35 C 107.09 176.97 107.37 176.08 106.99 175.36 Z M 106.73 175.09 L 106.57 174.06 C 106.44 173.26 105.70 172.72 104.91 172.84 C 104.11 172.97 103.57 173.71 103.69 174.50 L 103.85 175.54 C 103.98 176.33 104.72 176.87 105.51 176.75 C 106.31 176.63 106.85 175.88 106.73 175.09 Z M 106.56 174.21 L 106.52 173.23 C 106.48 172.43 105.80 171.82 105.01 171.86 C 104.22 171.90 103.61 172.57 103.65 173.37 L 103.70 174.35 C 103.73 175.14 104.41 175.75 105.20 175.72 C 105.99 175.68 106.60 175.00 106.56 174.21 Z"
      fill="black"
      fill-rule="nonzero" /><path d="M 130.29 146.02 L 130.43 146.92 C 130.56 147.76 131.35 148.33 132.18 148.20 C 133.02 148.07 133.60 147.28 133.46 146.44 L 133.32 145.54 C 133.19 144.70 132.40 144.13 131.57 144.26 C 130.73 144.39 130.15 145.18 130.29 146.02 Z M 130.40 146.90 L 130.53 147.84 C 130.65 148.70 131.44 149.29 132.29 149.18 C 133.15 149.06 133.74 148.27 133.62 147.41 L 133.49 146.47 C 133.37 145.61 132.59 145.02 131.73 145.14 C 130.88 145.25 130.28 146.04 130.40 146.90 Z M 130.50 147.80 L 130.61 148.83 C 130.70 149.70 131.48 150.33 132.36 150.24 C 133.23 150.14 133.86 149.36 133.76 148.49 L 133.65 147.46 C 133.56 146.59 132.78 145.96 131.91 146.05 C 131.04 146.14 130.41 146.93 130.50 147.80 Z M 130.58 148.77 L 130.66 149.81 C 130.72 150.70 131.49 151.37 132.37 151.31 C 133.26 151.24 133.93 150.48 133.86 149.59 L 133.79 148.55 C 133.73 147.66 132.96 146.99 132.08 147.05 C 131.19 147.12 130.52 147.88 130.58 148.77 Z M 130.64 149.76 L 130.67 150.65 C 130.71 151.55 131.46 152.25 132.35 152.21 C 133.25 152.18 133.95 151.43 133.91 150.53 L 133.88 149.64 C 133.85 148.75 133.09 148.05 132.20 148.08 C 131.30 148.11 130.61 148.87 130.64 149.76 Z M 130.66 150.61 L 130.67 151.57 C 130.68 152.47 131.42 153.19 132.32 153.18 C 133.22 153.17 133.94 152.43 133.93 151.53 L 133.92 150.58 C 133.91 149.68 133.18 148.95 132.28 148.96 C 131.38 148.97 130.65 149.71 130.66 150.61 Z M 130.67 151.52 L 130.65 152.54 C 130.63 153.44 131.35 154.19 132.26 154.20 C 133.16 154.22 133.91 153.50 133.92 152.60 L 133.94 151.58 C 133.96 150.67 133.24 149.93 132.33 149.91 C 131.43 149.90 130.68 150.62 130.67 151.52 Z M 130.64 152.49 L 130.59 153.56 C 130.55 154.47 131.25 155.24 132.16 155.28 C 133.07 155.32 133.84 154.62 133.88 153.71 L 133.93 152.64 C 133.97 151.74 133.27 150.97 132.36 150.92 C 131.45 150.88 130.68 151.58 130.64 152.49 Z M 130.59 153.51 L 130.50 154.62 C 130.43 155.53 131.12 156.33 132.03 156.39 C 132.94 156.46 133.73 155.78 133.80 154.87 L 133.88 153.76 C 133.95 152.85 133.27 152.06 132.36 151.99 C 131.45 151.92 130.66 152.60 130.59 153.51 Z M 130.50 154.58 L 130.40 155.59 C 130.30 156.50 130.97 157.32 131.88 157.41 C 132.79 157.51 133.60 156.84 133.70 155.93 L 133.80 154.92 C 133.90 154.00 133.23 153.19 132.32 153.10 C 131.41 153.00 130.60 153.66 130.50 154.58 Z M 130.40 155.56 L 130.27 156.59 C 130.16 157.50 130.80 158.33 131.71 158.44 C 132.62 158.55 133.45 157.91 133.57 157.00 L 133.69 155.97 C 133.81 155.06 133.16 154.23 132.25 154.12 C 131.34 154.00 130.51 154.65 130.40 155.56 Z M 130.27 156.56 L 130.13 157.58 C 130.00 158.49 130.63 159.33 131.54 159.46 C 132.45 159.59 133.29 158.96 133.42 158.05 L 133.57 157.03 C 133.69 156.12 133.06 155.27 132.15 155.15 C 131.24 155.02 130.40 155.65 130.27 156.56 Z M 130.13 157.56 L 129.97 158.56 C 129.83 159.46 130.45 160.32 131.36 160.46 C 132.27 160.60 133.12 159.98 133.26 159.07 L 133.42 158.07 C 133.56 157.16 132.94 156.31 132.03 156.17 C 131.12 156.03 130.27 156.65 130.13 157.56 Z M 129.97 158.54 L 129.81 159.49 C 129.66 160.40 130.27 161.26 131.18 161.41 C 132.09 161.57 132.95 160.95 133.10 160.05 L 133.26 159.09 C 133.41 158.18 132.80 157.32 131.89 157.17 C 130.98 157.02 130.12 157.63 129.97 158.54 Z M 129.81 159.48 L 129.65 160.41 C 129.49 161.32 130.09 162.19 131.00 162.35 C 131.91 162.51 132.78 161.90 132.94 160.99 L 133.10 160.06 C 133.26 159.15 132.66 158.29 131.75 158.12 C 130.84 157.96 129.97 158.57 129.81 159.48 Z M 129.65 160.40 L 129.45 161.49 C 129.28 162.40 129.88 163.27 130.79 163.44 C 131.69 163.60 132.57 163.00 132.73 162.10 L 132.94 161.01 C 133.10 160.10 132.50 159.23 131.60 159.06 C 130.69 158.89 129.82 159.49 129.65 160.40 Z M 129.45 161.47 L 129.25 162.47 C 129.08 163.37 129.67 164.25 130.58 164.43 C 131.48 164.60 132.36 164.01 132.54 163.10 L 132.73 162.11 C 132.91 161.21 132.32 160.33 131.41 160.15 C 130.50 159.97 129.62 160.57 129.45 161.47 Z M 129.26 162.45 L 129.07 163.38 C 128.88 164.29 129.47 165.17 130.37 165.36 C 131.28 165.54 132.16 164.96 132.35 164.05 L 132.54 163.12 C 132.72 162.21 132.14 161.33 131.23 161.15 C 130.32 160.96 129.44 161.55 129.26 162.45 Z M 129.07 163.37 L 128.88 164.28 C 128.69 165.19 129.27 166.07 130.17 166.26 C 131.08 166.45 131.97 165.87 132.16 164.97 L 132.35 164.06 C 132.54 163.16 131.96 162.27 131.05 162.08 C 130.15 161.89 129.26 162.47 129.07 163.37 Z M 128.88 164.28 L 128.68 165.21 C 128.49 166.11 129.06 167.00 129.97 167.20 C 130.87 167.39 131.76 166.81 131.96 165.91 L 132.15 164.98 C 132.35 164.07 131.77 163.18 130.87 162.99 C 129.96 162.79 129.07 163.37 128.88 164.28 Z M 128.68 165.21 L 128.47 166.17 C 128.28 167.07 128.85 167.96 129.76 168.16 C 130.66 168.35 131.55 167.78 131.75 166.87 L 131.95 165.91 C 132.15 165.01 131.57 164.12 130.67 163.92 C 129.77 163.73 128.87 164.30 128.68 165.21 Z M 128.47 166.17 L 128.26 167.15 C 128.07 168.05 128.64 168.94 129.55 169.14 C 130.45 169.33 131.34 168.76 131.54 167.85 L 131.75 166.87 C 131.94 165.97 131.37 165.08 130.46 164.88 C 129.56 164.69 128.67 165.26 128.47 166.17 Z M 128.26 167.15 L 128.05 168.15 C 127.85 169.05 128.43 169.94 129.33 170.14 C 130.24 170.33 131.13 169.75 131.32 168.85 L 131.54 167.85 C 131.73 166.95 131.16 166.06 130.25 165.86 C 129.35 165.67 128.45 166.24 128.26 167.15 Z M 128.05 168.15 L 127.83 169.14 C 127.64 170.05 128.22 170.94 129.13 171.13 C 130.03 171.32 130.92 170.74 131.11 169.84 L 131.32 168.85 C 131.52 167.94 130.94 167.05 130.03 166.86 C 129.13 166.67 128.24 167.24 128.05 168.15 Z M 127.83 169.15 L 127.63 170.12 C 127.44 171.02 128.02 171.91 128.93 172.10 C 129.83 172.29 130.72 171.71 130.91 170.81 L 131.11 169.83 C 131.30 168.93 130.72 168.04 129.82 167.85 C 128.91 167.66 128.02 168.24 127.83 169.15 Z M 127.63 170.12 L 127.42 171.10 C 127.24 172.01 127.82 172.90 128.72 173.09 C 129.63 173.27 130.52 172.69 130.71 171.79 L 130.91 170.81 C 131.10 169.90 130.52 169.01 129.61 168.82 C 128.71 168.63 127.82 169.22 127.63 170.12 Z M 127.42 171.10 L 127.22 172.09 C 127.03 172.99 127.61 173.88 128.52 174.07 C 129.43 174.26 130.31 173.68 130.50 172.77 L 130.71 171.79 C 130.89 170.88 130.31 169.99 129.41 169.80 C 128.50 169.62 127.61 170.20 127.42 171.10 Z M 127.22 172.09 L 127.02 173.07 C 126.83 173.97 127.41 174.86 128.31 175.05 C 129.22 175.24 130.11 174.66 130.30 173.75 L 130.50 172.77 C 130.69 171.86 130.11 170.98 129.20 170.79 C 128.30 170.60 127.41 171.18 127.22 172.09 Z M 127.02 173.07 L 126.81 174.05 C 126.62 174.96 127.20 175.85 128.11 176.04 C 129.01 176.22 129.90 175.64 130.09 174.74 L 130.30 173.75 C 130.49 172.85 129.90 171.96 129.00 171.77 C 128.09 171.58 127.21 172.16 127.02 173.07 Z M 126.81 174.05 L 126.61 175.03 C 126.42 175.94 127.00 176.83 127.90 177.02 C 128.81 177.21 129.69 176.63 129.88 175.72 L 130.09 174.74 C 130.28 173.83 129.70 172.95 128.79 172.76 C 127.89 172.57 127.00 173.15 126.81 174.05 Z M 126.61 175.04 L 126.40 176.02 C 126.22 176.92 126.80 177.81 127.70 177.99 C 128.61 178.18 129.49 177.60 129.68 176.69 L 129.88 175.72 C 130.07 174.81 129.49 173.93 128.58 173.74 C 127.68 173.55 126.79 174.13 126.61 175.04 Z M 126.40 176.02 L 126.20 177.00 C 126.02 177.90 126.60 178.79 127.51 178.97 C 128.42 179.15 129.30 178.57 129.48 177.66 L 129.68 176.69 C 129.87 175.78 129.28 174.90 128.38 174.72 C 127.47 174.53 126.59 175.12 126.40 176.02 Z M 126.20 177.01 L 126.01 177.98 C 125.83 178.89 126.42 179.77 127.33 179.95 C 128.23 180.13 129.11 179.54 129.29 178.63 L 129.48 177.65 C 129.66 176.75 129.07 175.87 128.17 175.69 C 127.26 175.51 126.38 176.10 126.20 177.01 Z M 126.01 177.99 L 125.82 178.97 C 125.65 179.87 126.24 180.75 127.15 180.92 C 128.05 181.10 128.93 180.50 129.10 179.60 L 129.29 178.62 C 129.46 177.72 128.87 176.84 127.97 176.67 C 127.06 176.49 126.19 177.09 126.01 177.99 Z M 125.83 178.97 L 125.64 179.95 C 125.47 180.86 126.06 181.73 126.97 181.90 C 127.87 182.07 128.74 181.48 128.91 180.57 L 129.10 179.59 C 129.27 178.69 128.68 177.82 127.77 177.65 C 126.87 177.48 126.00 178.07 125.83 178.97 Z M 125.64 179.96 L 125.46 180.94 C 125.29 181.84 125.88 182.71 126.78 182.88 C 127.69 183.05 128.56 182.46 128.73 181.56 L 128.91 180.57 C 129.08 179.67 128.49 178.80 127.59 178.63 C 126.68 178.46 125.81 179.05 125.64 179.96 Z M 125.46 180.94 L 125.27 181.92 C 125.10 182.82 125.69 183.69 126.59 183.87 C 127.49 184.04 128.36 183.45 128.53 182.55 L 128.72 181.56 C 128.89 180.66 128.30 179.79 127.40 179.62 C 126.50 179.44 125.63 180.04 125.46 180.94 Z M 125.28 181.92 L 125.10 182.85 C 124.92 183.75 125.51 184.62 126.40 184.79 C 127.30 184.97 128.17 184.38 128.35 183.49 L 128.53 182.55 C 128.70 181.66 128.12 180.79 127.22 180.61 C 126.32 180.44 125.45 181.02 125.28 181.92 Z M 125.10 182.85 L 124.92 183.80 C 124.74 184.69 125.33 185.56 126.22 185.73 C 127.12 185.91 127.98 185.32 128.16 184.43 L 128.34 183.48 C 128.51 182.59 127.93 181.72 127.04 181.55 C 126.14 181.38 125.27 181.96 125.10 182.85 Z M 124.92 183.81 L 124.74 184.78 C 124.57 185.68 125.16 186.54 126.05 186.70 C 126.94 186.87 127.80 186.28 127.97 185.39 L 128.15 184.42 C 128.32 183.52 127.73 182.66 126.84 182.50 C 125.95 182.33 125.09 182.92 124.92 183.81 Z M 124.74 184.80 L 124.56 185.82 C 124.40 186.71 125.00 187.56 125.89 187.72 C 126.79 187.87 127.64 187.28 127.79 186.38 L 127.97 185.37 C 128.13 184.48 127.53 183.63 126.64 183.47 C 125.75 183.32 124.90 183.91 124.74 184.80 Z M 124.56 185.85 L 124.40 186.90 C 124.25 187.79 124.86 188.62 125.75 188.77 C 126.64 188.91 127.48 188.30 127.62 187.41 L 127.79 186.36 C 127.93 185.47 127.32 184.63 126.43 184.49 C 125.54 184.35 124.70 184.95 124.56 185.85 Z M 124.40 186.92 L 124.26 187.90 C 124.13 188.79 124.75 189.62 125.64 189.74 C 126.53 189.87 127.36 189.25 127.48 188.36 L 127.62 187.38 C 127.75 186.49 127.13 185.67 126.24 185.54 C 125.35 185.41 124.52 186.03 124.40 186.92 Z M 124.26 187.93 L 124.13 188.93 C 124.02 189.82 124.65 190.64 125.54 190.75 C 126.43 190.86 127.24 190.23 127.35 189.34 L 127.48 188.33 C 127.59 187.45 126.96 186.63 126.07 186.52 C 125.19 186.41 124.37 187.04 124.26 187.93 Z M 124.14 188.96 L 124.02 189.98 C 123.92 190.86 124.56 191.66 125.45 191.76 C 126.34 191.86 127.14 191.22 127.24 190.33 L 127.35 189.32 C 127.45 188.43 126.81 187.63 125.92 187.53 C 125.04 187.43 124.24 188.07 124.14 188.96 Z M 124.03 190.00 L 123.93 191.01 C 123.85 191.89 124.49 192.68 125.38 192.76 C 126.26 192.85 127.05 192.20 127.14 191.32 L 127.23 190.31 C 127.32 189.42 126.67 188.64 125.78 188.55 C 124.90 188.47 124.11 189.12 124.03 190.00 Z M 123.93 191.03 L 123.86 192.01 C 123.79 192.90 124.44 193.67 125.33 193.74 C 126.21 193.81 126.98 193.15 127.05 192.27 L 127.13 191.29 C 127.20 190.41 126.54 189.63 125.66 189.56 C 124.78 189.49 124.00 190.15 123.93 191.03 Z M 123.86 192.05 L 123.80 193.17 C 123.75 194.05 124.42 194.80 125.30 194.85 C 126.18 194.90 126.93 194.23 126.98 193.35 L 127.05 192.23 C 127.10 191.35 126.43 190.60 125.55 190.55 C 124.67 190.50 123.91 191.17 123.86 192.05 Z M 123.81 193.25 L 123.80 194.37 C 123.80 195.24 124.50 195.95 125.37 195.96 C 126.24 195.97 126.95 195.27 126.96 194.40 L 126.97 193.27 C 126.97 192.40 126.27 191.69 125.40 191.68 C 124.53 191.68 123.82 192.38 123.81 193.25 Z M 123.83 194.53 L 123.93 195.52 C 124.01 196.37 124.77 197.00 125.63 196.92 C 126.48 196.83 127.11 196.07 127.03 195.22 L 126.93 194.23 C 126.85 193.38 126.09 192.75 125.23 192.83 C 124.38 192.91 123.75 193.68 123.83 194.53 Z M 124.00 195.80 L 124.24 196.61 C 124.47 197.43 125.33 197.90 126.14 197.66 C 126.96 197.42 127.43 196.57 127.19 195.75 L 126.96 194.94 C 126.72 194.12 125.86 193.65 125.05 193.89 C 124.23 194.12 123.76 194.98 124.00 195.80 Z M 124.47 197.06 L 124.96 197.75 C 125.44 198.43 126.39 198.60 127.08 198.11 C 127.76 197.63 127.93 196.68 127.44 196.00 L 126.96 195.31 C 126.47 194.62 125.53 194.45 124.84 194.94 C 124.15 195.42 123.99 196.37 124.47 197.06 Z M 125.39 198.13 L 126.18 198.64 C 126.88 199.09 127.81 198.88 128.25 198.19 C 128.70 197.49 128.50 196.56 127.80 196.12 L 127.01 195.61 C 126.31 195.16 125.38 195.37 124.94 196.06 C 124.49 196.76 124.70 197.69 125.39 198.13 Z M 126.52 198.77 L 127.48 199.10 C 128.25 199.36 129.09 198.95 129.35 198.18 C 129.61 197.41 129.20 196.57 128.43 196.31 L 127.47 195.98 C 126.70 195.72 125.86 196.13 125.60 196.90 C 125.33 197.67 125.75 198.51 126.52 198.77 Z M 127.61 199.12 L 128.42 199.31 C 129.20 199.50 129.98 199.03 130.17 198.25 C 130.36 197.46 129.88 196.68 129.10 196.49 L 128.30 196.29 C 127.52 196.10 126.73 196.58 126.54 197.36 C 126.35 198.14 126.83 198.93 127.61 199.12 Z"
      fill="black"
      fill-rule="nonzero" /><path d="M 136.33 144.24 L 135.09 143.90 C 134.24 143.66 133.36 144.16 133.12 145.01 C 132.89 145.86 133.39 146.74 134.24 146.97 L 135.48 147.32 C 136.33 147.55 137.21 147.06 137.44 146.21 C 137.68 145.36 137.18 144.48 136.33 144.24 Z M 135.51 144.04 L 134.84 143.64 C 134.07 143.17 133.07 143.42 132.60 144.19 C 132.14 144.96 132.38 145.96 133.15 146.42 L 133.82 146.83 C 134.59 147.29 135.59 147.05 136.06 146.28 C 136.52 145.51 136.27 144.51 135.51 144.04 Z M 135.41 145.89 L 135.65 145.49 C 136.12 144.71 135.87 143.69 135.09 143.22 C 134.31 142.75 133.29 143.00 132.82 143.78 L 132.58 144.18 C 132.11 144.96 132.36 145.97 133.14 146.44 C 133.92 146.91 134.94 146.67 135.41 145.89 Z M 135.00 146.11 L 135.74 145.72 C 136.56 145.30 136.88 144.30 136.45 143.49 C 136.03 142.67 135.03 142.35 134.22 142.77 L 133.47 143.16 C 132.66 143.58 132.34 144.58 132.76 145.40 C 133.18 146.21 134.18 146.53 135.00 146.11 Z M 135.57 145.80 L 136.65 145.39 C 137.51 145.07 137.94 144.10 137.61 143.25 C 137.28 142.39 136.32 141.96 135.46 142.28 L 134.39 142.69 C 133.53 143.02 133.10 143.98 133.43 144.84 C 133.75 145.70 134.71 146.13 135.57 145.80 Z M 136.58 145.42 L 137.81 145.01 C 138.68 144.72 139.16 143.78 138.87 142.91 C 138.58 142.03 137.64 141.56 136.76 141.85 L 135.53 142.25 C 134.66 142.54 134.18 143.49 134.47 144.36 C 134.76 145.24 135.71 145.71 136.58 145.42 Z M 137.78 145.02 L 138.70 144.74 C 139.58 144.46 140.07 143.52 139.80 142.64 C 139.52 141.76 138.59 141.27 137.71 141.55 L 136.79 141.84 C 135.91 142.11 135.42 143.05 135.69 143.93 C 135.97 144.81 136.90 145.30 137.78 145.02 Z M 138.69 144.74 L 139.62 144.45 C 140.51 144.18 141.00 143.25 140.73 142.37 C 140.46 141.49 139.53 140.99 138.64 141.26 L 137.71 141.55 C 136.83 141.82 136.34 142.75 136.61 143.63 C 136.88 144.52 137.81 145.01 138.69 144.74 Z M 139.63 144.45 L 140.57 144.16 C 141.46 143.89 141.95 142.96 141.68 142.07 C 141.41 141.19 140.47 140.70 139.59 140.97 L 138.64 141.26 C 137.76 141.53 137.27 142.47 137.54 143.35 C 137.81 144.23 138.74 144.73 139.63 144.45 Z M 140.59 144.16 L 141.56 143.85 C 142.44 143.57 142.93 142.63 142.65 141.75 C 142.37 140.88 141.43 140.39 140.55 140.67 L 139.58 140.97 C 138.70 141.25 138.21 142.19 138.49 143.07 C 138.77 143.95 139.71 144.44 140.59 144.16 Z M 141.58 143.84 L 142.58 143.51 C 143.45 143.23 143.93 142.28 143.64 141.41 C 143.35 140.53 142.41 140.05 141.53 140.34 L 140.53 140.67 C 139.66 140.96 139.18 141.91 139.47 142.78 C 139.76 143.66 140.70 144.13 141.58 143.84 Z M 142.60 143.51 L 143.56 143.17 C 144.43 142.87 144.90 141.92 144.59 141.05 C 144.29 140.18 143.34 139.72 142.47 140.02 L 141.51 140.35 C 140.64 140.65 140.18 141.60 140.48 142.47 C 140.78 143.35 141.73 143.81 142.60 143.51 Z M 143.58 143.17 L 144.55 142.82 C 145.42 142.50 145.87 141.55 145.56 140.68 C 145.24 139.81 144.29 139.36 143.42 139.67 L 142.45 140.02 C 141.58 140.34 141.13 141.29 141.44 142.16 C 141.76 143.03 142.71 143.48 143.58 143.17 Z M 144.57 142.81 L 145.53 142.45 C 146.40 142.13 146.84 141.17 146.51 140.30 C 146.19 139.44 145.23 139.00 144.37 139.32 L 143.40 139.68 C 142.54 140.00 142.10 140.96 142.42 141.83 C 142.74 142.69 143.70 143.13 144.57 142.81 Z M 145.55 142.45 L 146.48 142.09 C 147.34 141.76 147.77 140.80 147.44 139.93 C 147.12 139.07 146.15 138.64 145.29 138.97 L 144.35 139.33 C 143.49 139.66 143.06 140.62 143.39 141.48 C 143.72 142.35 144.68 142.78 145.55 142.45 Z M 146.49 142.09 L 147.38 141.74 C 148.24 141.40 148.66 140.43 148.33 139.58 C 147.99 138.72 147.02 138.29 146.17 138.63 L 145.28 138.97 C 144.42 139.31 143.99 140.28 144.33 141.14 C 144.66 142.00 145.63 142.42 146.49 142.09 Z M 147.39 141.73 L 148.39 141.34 C 149.24 141.00 149.66 140.02 149.32 139.17 C 148.98 138.31 148.00 137.89 147.15 138.23 L 146.15 138.63 C 145.30 138.97 144.88 139.94 145.22 140.80 C 145.56 141.66 146.54 142.08 147.39 141.73 Z M 148.40 141.33 L 149.38 140.93 C 150.23 140.59 150.64 139.61 150.29 138.76 C 149.95 137.90 148.97 137.49 148.12 137.84 L 147.14 138.24 C 146.28 138.59 145.87 139.56 146.22 140.42 C 146.57 141.27 147.54 141.68 148.40 141.33 Z M 149.39 140.93 L 150.28 140.56 C 151.14 140.20 151.54 139.23 151.19 138.37 C 150.83 137.52 149.86 137.12 149.00 137.47 L 148.11 137.84 C 147.25 138.20 146.85 139.18 147.20 140.03 C 147.56 140.88 148.54 141.28 149.39 140.93 Z M 150.29 140.55 L 151.13 140.20 C 151.98 139.84 152.38 138.87 152.03 138.02 C 151.67 137.16 150.69 136.76 149.84 137.12 L 149.00 137.47 C 148.15 137.83 147.75 138.81 148.10 139.66 C 148.46 140.51 149.44 140.91 150.29 140.55 Z M 151.13 140.20 L 152.02 139.83 C 152.87 139.47 153.27 138.49 152.91 137.64 C 152.55 136.79 151.58 136.39 150.72 136.75 L 149.84 137.12 C 148.99 137.48 148.59 138.46 148.95 139.31 C 149.30 140.16 150.28 140.56 151.13 140.20 Z M 152.02 139.83 L 152.94 139.44 C 153.79 139.09 154.19 138.11 153.83 137.26 C 153.47 136.41 152.49 136.01 151.64 136.36 L 150.72 136.75 C 149.87 137.11 149.47 138.09 149.83 138.94 C 150.19 139.79 151.17 140.19 152.02 139.83 Z M 152.94 139.44 L 153.86 139.05 C 154.71 138.69 155.10 137.71 154.74 136.86 C 154.38 136.01 153.40 135.62 152.55 135.98 L 151.63 136.37 C 150.79 136.73 150.39 137.71 150.75 138.56 C 151.11 139.41 152.09 139.80 152.94 139.44 Z M 153.87 139.05 L 154.79 138.64 C 155.64 138.28 156.02 137.29 155.66 136.45 C 155.29 135.60 154.31 135.21 153.46 135.58 L 152.54 135.98 C 151.69 136.35 151.30 137.33 151.67 138.18 C 152.04 139.03 153.02 139.41 153.87 139.05 Z M 154.81 138.64 L 155.70 138.24 C 156.54 137.87 156.92 136.88 156.54 136.04 C 156.17 135.19 155.18 134.81 154.34 135.19 L 153.45 135.59 C 152.60 135.96 152.22 136.95 152.60 137.79 C 152.98 138.64 153.96 139.01 154.81 138.64 Z M 155.71 138.24 L 156.61 137.83 C 157.45 137.45 157.83 136.46 157.45 135.62 C 157.07 134.78 156.08 134.40 155.24 134.78 L 154.33 135.19 C 153.49 135.57 153.12 136.56 153.50 137.40 C 153.88 138.24 154.87 138.62 155.71 138.24 Z M 156.62 137.82 L 157.54 137.40 C 158.38 137.02 158.75 136.03 158.37 135.19 C 157.98 134.35 156.99 133.98 156.16 134.37 L 155.23 134.79 C 154.40 135.17 154.02 136.16 154.41 137.00 C 154.79 137.83 155.78 138.21 156.62 137.82 Z M 157.54 137.40 L 158.46 136.99 C 159.30 136.61 159.67 135.62 159.29 134.78 C 158.91 133.94 157.92 133.57 157.08 133.95 L 156.16 134.37 C 155.32 134.75 154.95 135.73 155.33 136.57 C 155.71 137.41 156.70 137.79 157.54 137.40 Z M 158.45 136.99 L 159.36 136.58 C 160.20 136.21 160.57 135.22 160.19 134.38 C 159.82 133.54 158.83 133.16 157.99 133.54 L 157.08 133.94 C 156.24 134.32 155.87 135.31 156.25 136.15 C 156.62 136.99 157.61 137.37 158.45 136.99 Z M 159.35 136.59 L 160.26 136.18 C 161.11 135.81 161.49 134.82 161.11 133.98 C 160.74 133.13 159.75 132.75 158.91 133.13 L 157.99 133.54 C 157.15 133.91 156.77 134.90 157.15 135.74 C 157.52 136.58 158.51 136.96 159.35 136.59 Z M 160.26 136.18 L 161.18 135.78 C 162.02 135.41 162.41 134.42 162.04 133.57 C 161.66 132.73 160.68 132.35 159.83 132.72 L 158.91 133.13 C 158.07 133.50 157.68 134.48 158.06 135.33 C 158.43 136.17 159.41 136.56 160.26 136.18 Z M 161.18 135.78 L 162.10 135.38 C 162.94 135.01 163.33 134.02 162.96 133.18 C 162.59 132.33 161.61 131.94 160.76 132.31 L 159.84 132.72 C 158.99 133.09 158.60 134.07 158.97 134.92 C 159.34 135.76 160.33 136.15 161.18 135.78 Z M 162.09 135.38 L 163.01 134.98 C 163.86 134.62 164.25 133.63 163.88 132.78 C 163.51 131.93 162.53 131.55 161.68 131.91 L 160.76 132.31 C 159.92 132.68 159.53 133.66 159.89 134.51 C 160.26 135.36 161.25 135.75 162.09 135.38 Z M 163.01 134.98 L 163.93 134.59 C 164.78 134.22 165.17 133.23 164.80 132.39 C 164.44 131.54 163.45 131.15 162.60 131.51 L 161.68 131.91 C 160.83 132.28 160.44 133.26 160.81 134.11 C 161.18 134.96 162.16 135.35 163.01 134.98 Z M 163.93 134.59 L 164.85 134.19 C 165.70 133.82 166.09 132.83 165.72 131.99 C 165.35 131.14 164.37 130.75 163.52 131.12 L 162.60 131.51 C 161.75 131.88 161.36 132.87 161.73 133.72 C 162.10 134.56 163.08 134.95 163.93 134.59 Z M 164.85 134.19 L 165.77 133.79 C 166.62 133.42 167.01 132.43 166.64 131.58 C 166.27 130.73 165.28 130.35 164.43 130.72 L 163.51 131.12 C 162.67 131.49 162.28 132.47 162.65 133.32 C 163.02 134.17 164.01 134.56 164.85 134.19 Z M 165.77 133.79 L 166.69 133.39 C 167.54 133.01 167.92 132.02 167.55 131.18 C 167.18 130.33 166.19 129.94 165.34 130.32 L 164.43 130.72 C 163.58 131.09 163.19 132.08 163.57 132.93 C 163.94 133.77 164.93 134.16 165.77 133.79 Z M 166.69 133.39 L 167.60 132.98 C 168.45 132.61 168.84 131.62 168.46 130.77 C 168.09 129.93 167.10 129.54 166.25 129.91 L 165.34 130.32 C 164.49 130.69 164.11 131.68 164.48 132.53 C 164.85 133.37 165.84 133.76 166.69 133.39 Z M 167.60 132.98 L 168.52 132.58 C 169.37 132.21 169.75 131.22 169.38 130.37 C 169.01 129.52 168.02 129.14 167.17 129.51 L 166.25 129.91 C 165.41 130.29 165.02 131.28 165.39 132.12 C 165.77 132.97 166.76 133.36 167.60 132.98 Z M 168.52 132.59 L 169.41 132.19 C 170.26 131.82 170.65 130.83 170.28 129.98 C 169.91 129.14 168.92 128.75 168.07 129.12 L 167.17 129.51 C 166.32 129.88 165.93 130.87 166.31 131.72 C 166.68 132.57 167.67 132.96 168.52 132.59 Z M 169.40 132.20 L 170.28 131.82 C 171.13 131.45 171.52 130.46 171.16 129.61 C 170.79 128.76 169.80 128.37 168.95 128.74 L 168.07 129.11 C 167.22 129.48 166.83 130.47 167.20 131.32 C 167.56 132.17 168.55 132.57 169.40 132.20 Z M 170.28 131.82 L 171.18 131.44 C 172.03 131.07 172.43 130.08 172.06 129.23 C 171.70 128.38 170.71 127.98 169.86 128.35 L 168.95 128.73 C 168.10 129.10 167.70 130.08 168.07 130.94 C 168.43 131.79 169.42 132.19 170.28 131.82 Z M 171.17 131.44 L 172.12 131.04 C 172.98 130.68 173.38 129.69 173.02 128.84 C 172.65 127.98 171.67 127.58 170.81 127.94 L 169.87 128.34 C 169.01 128.70 168.61 129.69 168.97 130.54 C 169.33 131.40 170.32 131.80 171.17 131.44 Z M 172.11 131.04 L 173.08 130.64 C 173.94 130.28 174.35 129.30 173.99 128.44 C 173.63 127.58 172.65 127.18 171.79 127.53 L 170.82 127.94 C 169.96 128.30 169.56 129.28 169.91 130.14 C 170.27 131.00 171.26 131.40 172.11 131.04 Z M 173.08 130.64 L 174.00 130.26 C 174.86 129.91 175.27 128.93 174.91 128.07 C 174.56 127.21 173.58 126.80 172.72 127.15 L 171.80 127.53 C 170.94 127.88 170.53 128.87 170.88 129.73 C 171.23 130.59 172.22 131.00 173.08 130.64 Z M 173.99 130.27 L 174.93 129.89 C 175.79 129.54 176.21 128.56 175.86 127.69 C 175.51 126.83 174.53 126.42 173.67 126.76 L 172.72 127.15 C 171.86 127.50 171.45 128.48 171.79 129.34 C 172.14 130.20 173.13 130.62 173.99 130.27 Z M 174.92 129.89 L 175.87 129.52 C 176.73 129.17 177.16 128.20 176.82 127.33 C 176.47 126.46 175.49 126.04 174.63 126.38 L 173.68 126.76 C 172.81 127.10 172.39 128.08 172.73 128.95 C 173.08 129.81 174.06 130.24 174.92 129.89 Z M 175.85 129.52 L 176.79 129.17 C 177.65 128.83 178.09 127.86 177.75 126.99 C 177.42 126.12 176.44 125.68 175.57 126.02 L 174.64 126.38 C 173.77 126.71 173.34 127.69 173.67 128.56 C 174.01 129.43 174.99 129.86 175.85 129.52 Z M 176.77 129.18 L 177.87 128.78 C 178.74 128.45 179.19 127.48 178.87 126.60 C 178.55 125.72 177.57 125.27 176.69 125.60 L 175.59 126.00 C 174.71 126.33 174.26 127.30 174.59 128.18 C 174.91 129.06 175.89 129.51 176.77 129.18 Z M 177.82 128.82 L 179.05 128.41 C 179.95 128.11 180.44 127.14 180.14 126.23 C 179.84 125.33 178.86 124.85 177.96 125.15 L 176.73 125.55 C 175.83 125.85 175.35 126.83 175.65 127.73 C 175.95 128.63 176.92 129.12 177.82 128.82 Z M 178.91 128.49 L 179.75 128.29 C 180.69 128.06 181.27 127.11 181.05 126.17 C 180.82 125.23 179.88 124.64 178.93 124.87 L 178.10 125.07 C 177.15 125.29 176.57 126.24 176.79 127.19 C 177.02 128.13 177.97 128.71 178.91 128.49 Z M 178.54 128.18 L 178.80 128.31 C 179.69 128.75 180.76 128.39 181.20 127.50 C 181.64 126.62 181.28 125.55 180.40 125.11 L 180.14 124.98 C 179.25 124.54 178.18 124.90 177.74 125.78 C 177.30 126.67 177.66 127.74 178.54 128.18 Z M 178.24 125.52 L 177.68 126.16 C 177.03 126.91 177.11 128.05 177.86 128.71 C 178.61 129.36 179.75 129.28 180.41 128.53 L 180.96 127.90 C 181.62 127.14 181.54 126.00 180.79 125.35 C 180.04 124.69 178.90 124.77 178.24 125.52 Z M 177.75 126.07 L 176.82 127.02 C 176.12 127.74 176.13 128.89 176.85 129.59 C 177.56 130.29 178.71 130.28 179.42 129.56 L 180.34 128.62 C 181.04 127.90 181.03 126.75 180.32 126.05 C 179.60 125.35 178.45 125.36 177.75 126.07 Z M 176.71 127.13 L 176.08 127.90 C 175.43 128.68 175.54 129.83 176.32 130.47 C 177.09 131.11 178.24 131.00 178.88 130.22 L 179.52 129.45 C 180.16 128.68 180.05 127.53 179.28 126.89 C 178.50 126.25 177.36 126.35 176.71 127.13 Z M 175.99 128.01 L 175.41 128.83 C 174.83 129.65 175.02 130.79 175.84 131.37 C 176.66 131.96 177.80 131.76 178.38 130.94 L 178.97 130.12 C 179.55 129.30 179.36 128.16 178.53 127.58 C 177.71 126.99 176.58 127.19 175.99 128.01 Z M 175.34 128.93 L 174.82 129.77 C 174.29 130.63 174.56 131.76 175.41 132.28 C 176.27 132.81 177.39 132.55 177.92 131.69 L 178.45 130.84 C 178.98 129.99 178.71 128.86 177.85 128.33 C 177.00 127.80 175.87 128.07 175.34 128.93 Z M 174.76 129.87 L 174.28 130.77 C 173.81 131.65 174.14 132.76 175.03 133.24 C 175.92 133.71 177.02 133.38 177.50 132.49 L 177.98 131.60 C 178.46 130.71 178.12 129.60 177.24 129.12 C 176.35 128.65 175.24 128.98 174.76 129.87 Z M 174.23 130.87 L 173.82 131.78 C 173.40 132.70 173.80 133.78 174.72 134.20 C 175.64 134.62 176.72 134.21 177.14 133.30 L 177.55 132.39 C 177.97 131.47 177.57 130.39 176.65 129.97 C 175.73 129.55 174.65 129.95 174.23 130.87 Z M 173.77 131.89 L 173.42 132.81 C 173.06 133.75 173.54 134.81 174.48 135.16 C 175.42 135.52 176.48 135.05 176.83 134.10 L 177.18 133.18 C 177.54 132.24 177.07 131.19 176.12 130.83 C 175.18 130.47 174.13 130.95 173.77 131.89 Z M 173.38 132.92 L 173.10 133.84 C 172.80 134.81 173.34 135.83 174.30 136.12 C 175.27 136.42 176.29 135.88 176.59 134.92 L 176.87 134.00 C 177.17 133.03 176.63 132.01 175.67 131.71 C 174.70 131.42 173.68 131.96 173.38 132.92 Z M 173.07 133.94 L 172.83 134.89 C 172.59 135.86 173.18 136.85 174.16 137.10 C 175.14 137.35 176.13 136.75 176.37 135.78 L 176.61 134.83 C 176.86 133.85 176.26 132.86 175.29 132.61 C 174.31 132.37 173.32 132.96 173.07 133.94 Z M 172.82 134.96 L 172.61 135.95 C 172.40 136.94 173.04 137.91 174.02 138.11 C 175.01 138.32 175.98 137.68 176.18 136.70 L 176.39 135.70 C 176.59 134.72 175.96 133.75 174.97 133.54 C 173.99 133.34 173.02 133.97 172.82 134.96 Z M 172.60 136.00 L 172.43 136.98 C 172.25 137.97 172.91 138.92 173.90 139.10 C 174.89 139.27 175.84 138.61 176.02 137.62 L 176.19 136.65 C 176.37 135.65 175.71 134.71 174.72 134.53 C 173.72 134.35 172.78 135.01 172.60 136.00 Z M 172.42 137.02 L 172.27 137.95 C 172.12 138.95 172.80 139.88 173.79 140.04 C 174.79 140.19 175.72 139.51 175.88 138.52 L 176.02 137.58 C 176.18 136.59 175.50 135.65 174.50 135.50 C 173.51 135.34 172.58 136.02 172.42 137.02 Z M 172.27 137.99 L 172.13 138.98 C 172.00 139.98 172.70 140.90 173.70 141.03 C 174.70 141.17 175.61 140.47 175.75 139.47 L 175.88 138.48 C 176.02 137.48 175.32 136.56 174.32 136.43 C 173.32 136.29 172.40 136.99 172.27 137.99 Z M 172.13 139.02 L 172.01 140.07 C 171.90 141.07 172.62 141.98 173.62 142.09 C 174.62 142.20 175.52 141.48 175.64 140.48 L 175.75 139.43 C 175.87 138.43 175.15 137.52 174.15 137.41 C 173.15 137.30 172.24 138.02 172.13 139.02 Z M 172.01 140.11 L 171.92 141.09 C 171.82 142.09 172.56 142.98 173.57 143.07 C 174.57 143.17 175.46 142.43 175.55 141.42 L 175.64 140.44 C 175.73 139.44 174.99 138.55 173.99 138.46 C 172.99 138.37 172.10 139.11 172.01 140.11 Z M 171.91 141.12 L 171.84 142.07 C 171.77 143.08 172.52 143.95 173.53 144.03 C 174.53 144.10 175.41 143.35 175.48 142.34 L 175.55 141.39 C 175.63 140.39 174.87 139.51 173.87 139.44 C 172.86 139.36 171.99 140.12 171.91 141.12 Z M 171.84 142.10 L 171.78 143.09 C 171.72 144.10 172.49 144.96 173.50 145.02 C 174.50 145.08 175.36 144.32 175.42 143.31 L 175.48 142.32 C 175.54 141.31 174.78 140.45 173.77 140.39 C 172.76 140.33 171.90 141.10 171.84 142.10 Z M 171.78 143.12 L 171.73 144.15 C 171.69 145.16 172.47 146.01 173.47 146.06 C 174.48 146.10 175.33 145.32 175.38 144.32 L 175.43 143.28 C 175.47 142.28 174.69 141.43 173.69 141.38 C 172.68 141.33 171.83 142.11 171.78 143.12 Z M 171.73 144.17 L 171.70 145.24 C 171.67 146.25 172.46 147.09 173.46 147.12 C 174.47 147.15 175.31 146.37 175.34 145.36 L 175.38 144.29 C 175.41 143.29 174.62 142.44 173.62 142.41 C 172.61 142.38 171.77 143.17 171.73 144.17 Z M 171.70 145.26 L 171.68 146.30 C 171.65 147.31 172.45 148.14 173.46 148.17 C 174.47 148.19 175.30 147.39 175.32 146.38 L 175.35 145.34 C 175.37 144.33 174.57 143.50 173.56 143.48 C 172.55 143.45 171.72 144.25 171.70 145.26 Z M 171.68 146.32 L 171.66 147.36 C 171.65 148.37 172.45 149.20 173.46 149.21 C 174.47 149.22 175.30 148.42 175.31 147.41 L 175.32 146.37 C 175.34 145.36 174.53 144.53 173.52 144.52 C 172.52 144.50 171.69 145.31 171.68 146.32 Z M 171.66 147.37 L 171.65 148.40 C 171.65 149.41 172.46 150.23 173.47 150.23 C 174.47 150.24 175.30 149.43 175.30 148.42 L 175.31 147.40 C 175.32 146.39 174.51 145.57 173.50 145.56 C 172.49 145.55 171.67 146.37 171.66 147.37 Z M 171.65 148.41 L 171.65 149.39 C 171.65 150.39 172.46 151.21 173.47 151.22 C 174.48 151.22 175.30 150.40 175.30 149.40 L 175.30 148.41 C 175.31 147.41 174.49 146.59 173.48 146.58 C 172.48 146.58 171.66 147.40 171.65 148.41 Z M 171.65 149.39 L 171.65 150.30 C 171.65 151.31 172.47 152.13 173.48 152.13 C 174.48 152.13 175.30 151.31 175.30 150.30 L 175.30 149.39 C 175.30 148.38 174.49 147.57 173.48 147.56 C 172.47 147.56 171.65 148.38 171.65 149.39 Z M 171.65 150.30 L 171.65 151.42 C 171.65 152.42 172.47 153.24 173.48 153.24 C 174.48 153.24 175.30 152.42 175.30 151.42 L 175.30 150.30 C 175.30 149.30 174.48 148.48 173.48 148.48 C 172.47 148.48 171.65 149.30 171.65 150.30 Z M 171.65 151.42 L 171.65 152.41 C 171.65 153.42 172.47 154.24 173.48 154.24 C 174.49 154.24 175.30 153.42 175.30 152.41 L 175.30 151.42 C 175.30 150.41 174.49 149.59 173.48 149.59 C 172.47 149.59 171.65 150.41 171.65 151.42 Z M 171.65 152.41 L 171.65 153.35 C 171.65 154.36 172.47 155.17 173.48 155.17 C 174.49 155.17 175.30 154.36 175.30 153.35 L 175.30 152.41 C 175.30 151.40 174.49 150.58 173.48 150.58 C 172.47 150.58 171.65 151.40 171.65 152.41 Z M 171.65 153.35 L 171.65 154.28 C 171.65 155.29 172.47 156.11 173.48 156.11 C 174.49 156.11 175.30 155.29 175.30 154.28 L 175.30 153.35 C 175.30 152.34 174.49 151.52 173.48 151.52 C 172.47 151.52 171.65 152.34 171.65 153.35 Z M 171.65 154.28 L 171.65 155.26 C 171.65 156.27 172.47 157.09 173.48 157.09 C 174.49 157.09 175.31 156.27 175.31 155.26 L 175.31 154.28 C 175.31 153.27 174.49 152.45 173.48 152.45 C 172.47 152.45 171.65 153.27 171.65 154.28 Z M 171.64 155.26 L 171.64 156.26 C 171.64 157.27 172.46 158.09 173.48 158.09 C 174.49 158.09 175.31 157.27 175.31 156.26 L 175.31 155.26 C 175.31 154.24 174.49 153.42 173.48 153.42 C 172.46 153.42 171.64 154.24 171.64 155.26 Z M 171.64 156.26 L 171.64 157.29 C 171.64 158.31 172.46 159.13 173.48 159.13 C 174.49 159.13 175.31 158.31 175.31 157.29 L 175.31 156.26 C 175.31 155.25 174.49 154.42 173.48 154.42 C 172.46 154.42 171.64 155.25 171.64 156.26 Z M 171.64 157.29 L 171.64 158.26 C 171.64 159.27 172.46 160.10 173.48 160.10 C 174.49 160.10 175.31 159.27 175.31 158.26 L 175.31 157.29 C 175.31 156.28 174.49 155.46 173.48 155.46 C 172.46 155.46 171.64 156.28 171.64 157.29 Z M 171.64 158.27 L 171.64 159.24 C 171.64 160.25 172.47 161.07 173.49 161.07 C 174.50 161.07 175.32 160.24 175.32 159.22 L 175.32 158.25 C 175.31 157.24 174.49 156.42 173.47 156.42 C 172.45 156.42 171.63 157.25 171.64 158.27 Z M 171.64 159.25 L 171.65 160.26 C 171.66 161.27 172.49 162.09 173.51 162.08 C 174.53 162.07 175.34 161.23 175.33 160.22 L 175.32 159.21 C 175.31 158.19 174.48 157.38 173.46 157.39 C 172.44 157.40 171.63 158.23 171.64 159.25 Z M 171.65 160.28 L 171.67 161.33 C 171.69 162.34 172.54 163.15 173.55 163.13 C 174.57 163.11 175.38 162.26 175.36 161.25 L 175.33 160.20 C 175.31 159.18 174.47 158.37 173.45 158.39 C 172.43 158.42 171.63 159.26 171.65 160.28 Z M 171.67 161.35 L 171.70 162.34 C 171.74 163.36 172.59 164.16 173.61 164.13 C 174.63 164.09 175.42 163.24 175.39 162.22 L 175.36 161.22 C 175.32 160.21 174.47 159.41 173.45 159.44 C 172.43 159.48 171.64 160.33 171.67 161.35 Z M 171.70 162.36 L 171.75 163.36 C 171.79 164.38 172.65 165.17 173.67 165.12 C 174.69 165.08 175.48 164.22 175.44 163.20 L 175.39 162.20 C 175.35 161.18 174.48 160.39 173.46 160.44 C 172.45 160.48 171.66 161.35 171.70 162.36 Z M 171.75 163.38 L 171.80 164.39 C 171.86 165.41 172.73 166.19 173.75 166.13 C 174.76 166.08 175.55 165.21 175.49 164.19 L 175.44 163.18 C 175.38 162.16 174.51 161.38 173.49 161.43 C 172.47 161.49 171.69 162.36 171.75 163.38 Z M 171.80 164.40 L 171.86 165.41 C 171.93 166.43 172.81 167.21 173.82 167.14 C 174.84 167.08 175.62 166.20 175.55 165.18 L 175.49 164.17 C 175.43 163.15 174.55 162.38 173.53 162.44 C 172.51 162.51 171.74 163.39 171.80 164.40 Z M 171.86 165.43 L 171.94 166.44 C 172.01 167.45 172.89 168.22 173.91 168.15 C 174.93 168.08 175.70 167.19 175.63 166.17 L 175.55 165.17 C 175.48 164.15 174.60 163.38 173.58 163.45 C 172.56 163.53 171.79 164.41 171.86 165.43 Z M 171.94 166.45 L 172.02 167.47 C 172.10 168.49 172.99 169.25 174.01 169.17 C 175.03 169.09 175.79 168.19 175.71 167.18 L 175.63 166.16 C 175.54 165.14 174.65 164.38 173.63 164.46 C 172.61 164.54 171.85 165.43 171.94 166.45 Z M 172.02 167.48 L 172.10 168.48 C 172.19 169.50 173.09 170.25 174.11 170.17 C 175.13 170.08 175.88 169.18 175.79 168.16 L 175.71 167.16 C 175.62 166.14 174.72 165.39 173.70 165.48 C 172.68 165.56 171.93 166.46 172.02 167.48 Z M 172.10 168.49 L 172.19 169.47 C 172.28 170.49 173.19 171.24 174.20 171.15 C 175.22 171.06 175.97 170.16 175.88 169.14 L 175.79 168.15 C 175.70 167.13 174.80 166.38 173.78 166.48 C 172.76 166.57 172.01 167.47 172.10 168.49 Z M 172.19 169.48 L 172.28 170.45 C 172.38 171.47 173.28 172.22 174.30 172.13 C 175.32 172.03 176.07 171.13 175.97 170.11 L 175.88 169.13 C 175.79 168.11 174.88 167.36 173.86 167.46 C 172.85 167.55 172.10 168.46 172.19 169.48 Z M 172.28 170.46 L 172.37 171.45 C 172.47 172.47 173.37 173.22 174.39 173.12 C 175.41 173.03 176.16 172.12 176.07 171.10 L 175.97 170.11 C 175.88 169.09 174.97 168.34 173.95 168.44 C 172.94 168.53 172.19 169.44 172.28 170.46 Z M 172.37 171.45 L 172.47 172.44 C 172.56 173.46 173.47 174.21 174.49 174.12 C 175.51 174.02 176.26 173.12 176.16 172.10 L 176.07 171.10 C 175.97 170.08 175.07 169.33 174.05 169.43 C 173.03 169.52 172.28 170.43 172.37 171.45 Z M 172.47 172.44 L 172.56 173.44 C 172.66 174.46 173.56 175.21 174.58 175.11 C 175.60 175.02 176.35 174.11 176.26 173.09 L 176.16 172.10 C 176.07 171.08 175.16 170.33 174.14 170.42 C 173.12 170.52 172.37 171.42 172.47 172.44 Z M 172.56 173.44 L 172.65 174.44 C 172.75 175.46 173.65 176.21 174.67 176.11 C 175.70 176.02 176.45 175.11 176.35 174.09 L 176.26 173.09 C 176.16 172.07 175.26 171.32 174.23 171.42 C 173.21 171.51 172.46 172.42 172.56 173.44 Z M 172.65 174.44 L 172.75 175.43 C 172.84 176.46 173.75 177.21 174.77 177.11 C 175.79 177.02 176.54 176.11 176.44 175.09 L 176.35 174.09 C 176.25 173.07 175.35 172.32 174.33 172.41 C 173.31 172.51 172.56 173.41 172.65 174.44 Z M 172.74 175.44 L 172.84 176.43 C 172.93 177.46 173.84 178.21 174.86 178.11 C 175.88 178.02 176.63 177.11 176.54 176.09 L 176.44 175.09 C 176.35 174.07 175.44 173.32 174.42 173.41 C 173.40 173.51 172.65 174.41 172.74 175.44 Z M 172.84 176.44 L 172.93 177.43 C 173.03 178.45 173.93 179.20 174.96 179.11 C 175.98 179.01 176.73 178.11 176.63 177.08 L 176.54 176.09 C 176.44 175.06 175.54 174.31 174.51 174.41 C 173.49 174.51 172.74 175.41 172.84 176.44 Z M 172.93 177.43 L 173.02 178.42 C 173.12 179.45 174.03 180.20 175.05 180.10 C 176.07 180.00 176.82 179.10 176.73 178.07 L 176.63 177.08 C 176.54 176.06 175.63 175.31 174.61 175.41 C 173.58 175.50 172.83 176.41 172.93 177.43 Z M 173.02 178.43 L 173.12 179.43 C 173.22 180.45 174.12 181.20 175.15 181.10 C 176.17 181.01 176.92 180.10 176.82 179.07 L 176.73 178.07 C 176.63 177.05 175.72 176.30 174.70 176.40 C 173.68 176.49 172.93 177.40 173.02 178.43 Z M 173.12 179.43 L 173.22 180.44 C 173.31 181.47 174.22 182.22 175.25 182.12 C 176.27 182.02 177.02 181.11 176.92 180.09 L 176.82 179.07 C 176.73 178.05 175.82 177.30 174.79 177.40 C 173.77 177.50 173.02 178.41 173.12 179.43 Z M 173.22 180.44 L 173.31 181.44 C 173.41 182.47 174.32 183.22 175.35 183.12 C 176.37 183.02 177.12 182.11 177.02 181.08 L 176.92 180.08 C 176.82 179.06 175.91 178.31 174.89 178.41 C 173.86 178.51 173.12 179.42 173.22 180.44 Z M 173.31 181.45 L 173.41 182.43 C 173.51 183.45 174.42 184.20 175.45 184.10 C 176.47 184.00 177.22 183.09 177.12 182.06 L 177.02 181.08 C 176.92 180.06 176.01 179.31 174.98 179.41 C 173.96 179.51 173.21 180.42 173.31 181.45 Z M 173.41 182.43 L 173.51 183.41 C 173.61 184.44 174.53 185.18 175.55 185.08 C 176.57 184.98 177.32 184.06 177.22 183.04 L 177.12 182.06 C 177.01 181.03 176.10 180.29 175.08 180.39 C 174.05 180.50 173.31 181.41 173.41 182.43 Z M 173.51 183.42 L 173.61 184.41 C 173.71 185.44 174.63 186.18 175.65 186.08 C 176.68 185.97 177.43 185.06 177.32 184.03 L 177.22 183.04 C 177.11 182.01 176.20 181.27 175.17 181.37 C 174.15 181.48 173.40 182.39 173.51 183.42 Z M 173.61 184.41 L 173.71 185.39 C 173.81 186.42 174.72 187.17 175.75 187.06 C 176.78 186.96 177.52 186.05 177.42 185.02 L 177.32 184.04 C 177.22 183.01 176.30 182.26 175.28 182.36 C 174.25 182.47 173.51 183.38 173.61 184.41 Z M 173.71 185.38 L 173.80 186.38 C 173.90 187.40 174.81 188.16 175.83 188.06 C 176.86 187.96 177.61 187.05 177.52 186.03 L 177.42 185.03 C 177.33 184.01 176.41 183.25 175.39 183.35 C 174.36 183.45 173.61 184.36 173.71 185.38 Z M 173.80 186.36 L 173.88 187.32 C 173.97 188.35 174.87 189.11 175.90 189.03 C 176.93 188.94 177.69 188.04 177.60 187.01 L 177.52 186.04 C 177.43 185.02 176.53 184.25 175.50 184.34 C 174.47 184.43 173.71 185.33 173.80 186.36 Z M 173.88 187.31 L 173.95 188.25 C 174.03 189.28 174.93 190.05 175.96 189.97 C 176.99 189.89 177.75 188.99 177.67 187.96 L 177.60 187.02 C 177.52 185.99 176.62 185.22 175.59 185.30 C 174.57 185.38 173.80 186.28 173.88 187.31 Z M 173.95 188.25 L 174.02 189.23 C 174.10 190.26 175.00 191.03 176.03 190.95 C 177.05 190.88 177.83 189.98 177.75 188.95 L 177.68 187.97 C 177.60 186.94 176.70 186.17 175.67 186.24 C 174.64 186.32 173.87 187.22 173.95 188.25 Z M 174.02 189.23 L 174.10 190.26 C 174.18 191.29 175.08 192.06 176.11 191.99 C 177.14 191.91 177.91 191.01 177.83 189.98 L 177.75 188.95 C 177.67 187.92 176.77 187.15 175.74 187.23 C 174.71 187.30 173.94 188.20 174.02 189.23 Z M 174.10 190.27 L 174.19 191.33 C 174.27 192.36 175.17 193.13 176.20 193.04 C 177.23 192.96 178.00 192.06 177.91 191.03 L 177.83 189.97 C 177.74 188.94 176.84 188.17 175.81 188.26 C 174.78 188.34 174.02 189.24 174.10 190.27 Z M 174.19 191.34 L 174.27 192.32 C 174.36 193.35 175.27 194.11 176.30 194.02 C 177.33 193.93 178.09 193.02 178.00 191.99 L 177.91 191.02 C 177.82 189.99 176.92 189.23 175.89 189.32 C 174.86 189.41 174.10 190.31 174.19 191.34 Z M 174.27 192.32 L 174.36 193.33 C 174.45 194.36 175.36 195.12 176.39 195.02 C 177.42 194.93 178.18 194.02 178.09 192.99 L 178.00 191.99 C 177.91 190.96 177.00 190.20 175.97 190.29 C 174.94 190.39 174.18 191.29 174.27 192.32 Z M 174.36 193.33 L 174.45 194.34 C 174.55 195.37 175.46 196.13 176.49 196.04 C 177.51 195.95 178.27 195.04 178.18 194.01 L 178.09 192.99 C 178.00 191.96 177.09 191.20 176.06 191.30 C 175.03 191.39 174.27 192.30 174.36 193.33 Z M 174.45 194.34 L 174.54 195.35 C 174.63 196.38 175.54 197.14 176.57 197.05 C 177.60 196.96 178.36 196.05 178.27 195.02 L 178.18 194.01 C 178.09 192.98 177.18 192.22 176.15 192.31 C 175.12 192.40 174.36 193.31 174.45 194.34 Z M 174.54 195.34 L 174.62 196.33 C 174.71 197.36 175.61 198.13 176.64 198.04 C 177.67 197.96 178.44 197.05 178.35 196.02 L 178.27 195.03 C 178.19 194.00 177.28 193.23 176.25 193.32 C 175.22 193.40 174.45 194.31 174.54 195.34 Z M 174.62 196.32 L 174.70 197.32 C 174.77 198.35 175.67 199.12 176.70 199.04 C 177.74 198.97 178.51 198.07 178.43 197.04 L 178.36 196.04 C 178.28 195.00 177.38 194.23 176.35 194.31 C 175.32 194.39 174.54 195.29 174.62 196.32 Z M 174.69 197.30 L 174.76 198.28 C 174.83 199.31 175.72 200.09 176.75 200.03 C 177.78 199.96 178.56 199.07 178.50 198.04 L 178.43 197.06 C 178.37 196.02 177.47 195.24 176.44 195.31 C 175.41 195.37 174.63 196.27 174.69 197.30 Z M 174.76 198.26 L 174.81 199.24 C 174.86 200.27 175.75 201.06 176.78 201.01 C 177.81 200.95 178.61 200.07 178.55 199.04 L 178.50 198.06 C 178.44 197.02 177.56 196.23 176.53 196.29 C 175.50 196.34 174.70 197.22 174.76 198.26 Z M 174.81 199.21 L 174.85 200.22 C 174.89 201.25 175.76 202.06 176.80 202.01 C 177.83 201.97 178.63 201.10 178.59 200.07 L 178.55 199.06 C 178.51 198.03 177.64 197.22 176.60 197.27 C 175.57 197.31 174.77 198.18 174.81 199.21 Z M 174.85 200.19 L 174.88 201.24 C 174.90 202.27 175.77 203.09 176.80 203.06 C 177.83 203.03 178.65 202.17 178.62 201.13 L 178.59 200.09 C 178.56 199.06 177.70 198.24 176.67 198.27 C 175.63 198.30 174.82 199.16 174.85 200.19 Z M 174.88 201.20 L 174.88 202.27 C 174.89 203.31 175.73 204.14 176.77 204.13 C 177.80 204.12 178.64 203.28 178.63 202.25 L 178.62 201.17 C 178.62 200.14 177.77 199.31 176.74 199.31 C 175.70 199.32 174.87 200.16 174.88 201.20 Z M 174.88 202.20 L 174.85 203.26 C 174.81 204.29 175.62 205.16 176.66 205.19 C 177.69 205.23 178.56 204.42 178.59 203.38 L 178.63 202.32 C 178.66 201.29 177.85 200.42 176.82 200.39 C 175.79 200.35 174.92 201.16 174.88 202.20 Z M 174.86 203.13 L 174.76 204.13 C 174.65 205.16 175.40 206.08 176.43 206.18 C 177.46 206.29 178.38 205.54 178.48 204.51 L 178.58 203.51 C 178.69 202.48 177.94 201.56 176.91 201.46 C 175.88 201.35 174.96 202.10 174.86 203.13 Z M 174.79 203.93 L 174.60 204.81 C 174.38 205.83 175.03 206.82 176.04 207.04 C 177.05 207.25 178.05 206.61 178.26 205.59 L 178.45 204.71 C 178.67 203.70 178.02 202.70 177.01 202.49 C 176.00 202.27 175.00 202.92 174.79 203.93 Z M 174.72 204.45 L 174.33 205.33 C 173.91 206.27 174.34 207.38 175.28 207.80 C 176.23 208.21 177.33 207.79 177.75 206.84 L 178.14 205.96 C 178.56 205.02 178.13 203.91 177.19 203.49 C 176.24 203.08 175.14 203.50 174.72 204.45 Z M 174.68 204.81 L 174.02 205.51 C 173.32 206.26 173.36 207.44 174.11 208.15 C 174.86 208.85 176.04 208.81 176.74 208.06 L 177.40 207.36 C 178.10 206.61 178.07 205.43 177.32 204.73 C 176.57 204.02 175.39 204.06 174.68 204.81 Z M 174.54 205.14 L 173.68 205.57 C 172.77 206.04 172.41 207.16 172.88 208.07 C 173.35 208.98 174.46 209.34 175.37 208.87 L 176.23 208.44 C 177.14 207.97 177.50 206.85 177.03 205.94 C 176.57 205.03 175.45 204.67 174.54 205.14 Z M 174.10 205.43 L 173.11 205.67 C 172.12 205.91 171.51 206.90 171.75 207.89 C 171.99 208.88 172.98 209.49 173.97 209.25 L 174.96 209.01 C 175.95 208.78 176.56 207.78 176.32 206.79 C 176.08 205.80 175.09 205.19 174.10 205.43 Z M 173.37 205.65 L 172.39 205.75 C 171.39 205.84 170.66 206.72 170.75 207.72 C 170.84 208.72 171.73 209.45 172.73 209.36 L 173.71 209.27 C 174.71 209.18 175.44 208.29 175.35 207.29 C 175.26 206.29 174.37 205.56 173.37 205.65 Z M 172.61 205.78 L 171.59 205.75 C 170.61 205.72 169.79 206.49 169.76 207.48 C 169.73 208.46 170.51 209.27 171.49 209.30 L 172.51 209.33 C 173.49 209.36 174.31 208.58 174.34 207.60 C 174.36 206.62 173.59 205.80 172.61 205.78 Z M 171.81 205.81 L 170.81 205.65 C 169.87 205.50 168.97 206.14 168.82 207.09 C 168.67 208.04 169.32 208.93 170.27 209.08 L 171.26 209.24 C 172.21 209.39 173.11 208.75 173.26 207.80 C 173.41 206.85 172.76 205.96 171.81 205.81 Z M 171.07 205.75 L 170.14 205.44 C 169.25 205.15 168.29 205.64 168.00 206.53 C 167.70 207.42 168.19 208.38 169.08 208.67 L 170.01 208.98 C 170.90 209.27 171.86 208.79 172.15 207.90 C 172.45 207.01 171.96 206.04 171.07 205.75 Z M 170.40 205.61 L 169.56 205.15 C 168.76 204.71 167.76 205.00 167.32 205.80 C 166.88 206.60 167.17 207.60 167.97 208.04 L 168.81 208.51 C 169.61 208.95 170.62 208.65 171.06 207.85 C 171.50 207.05 171.20 206.05 170.40 205.61 Z M 169.75 205.34 L 168.98 204.73 C 168.29 204.19 167.28 204.31 166.74 205.01 C 166.19 205.70 166.31 206.71 167.01 207.25 L 167.78 207.86 C 168.47 208.40 169.48 208.28 170.03 207.58 C 170.57 206.89 170.45 205.88 169.75 205.34 Z M 169.09 204.90 L 168.36 204.17 C 167.76 203.56 166.77 203.57 166.17 204.17 C 165.57 204.78 165.57 205.76 166.17 206.36 L 166.90 207.09 C 167.51 207.69 168.49 207.69 169.09 207.09 C 169.70 206.48 169.70 205.50 169.09 204.90 Z M 168.41 204.27 L 167.77 203.55 C 167.23 202.92 166.27 202.85 165.64 203.40 C 165.01 203.95 164.95 204.90 165.49 205.53 L 166.13 206.26 C 166.68 206.89 167.63 206.95 168.26 206.41 C 168.89 205.86 168.95 204.90 168.41 204.27 Z M 167.80 203.61 L 167.23 202.88 C 166.71 202.24 165.77 202.13 165.13 202.64 C 164.48 203.16 164.38 204.10 164.89 204.74 L 165.47 205.47 C 165.98 206.11 166.92 206.22 167.56 205.71 C 168.21 205.19 168.32 204.26 167.80 203.61 Z M 167.25 202.94 L 166.67 202.14 C 166.19 201.48 165.26 201.34 164.60 201.82 C 163.94 202.31 163.80 203.24 164.28 203.90 L 164.86 204.69 C 165.35 205.35 166.27 205.49 166.93 205.01 C 167.59 204.52 167.74 203.60 167.25 202.94 Z M 166.69 202.19 L 166.11 201.33 C 165.66 200.66 164.74 200.49 164.07 200.94 C 163.39 201.40 163.22 202.31 163.67 202.99 L 164.26 203.85 C 164.71 204.52 165.63 204.69 166.30 204.24 C 166.98 203.78 167.15 202.87 166.69 202.19 Z M 166.13 201.38 L 165.55 200.45 C 165.12 199.77 164.21 199.56 163.53 199.99 C 162.85 200.42 162.64 201.33 163.07 202.01 L 163.66 202.94 C 164.09 203.62 164.99 203.83 165.67 203.40 C 166.36 202.97 166.56 202.06 166.13 201.38 Z M 165.56 200.49 L 165.07 199.65 C 164.66 198.96 163.77 198.73 163.08 199.14 C 162.38 199.55 162.15 200.44 162.56 201.13 L 163.06 201.97 C 163.46 202.66 164.35 202.89 165.05 202.48 C 165.74 202.08 165.97 201.18 165.56 200.49 Z M 165.08 199.69 L 164.61 198.83 C 164.22 198.14 163.33 197.88 162.63 198.27 C 161.93 198.67 161.68 199.55 162.07 200.25 L 162.55 201.10 C 162.94 201.80 163.82 202.05 164.52 201.66 C 165.22 201.27 165.47 200.38 165.08 199.69 Z M 164.62 198.86 L 164.15 197.98 C 163.77 197.27 162.90 197.01 162.19 197.38 C 161.48 197.76 161.22 198.63 161.59 199.34 L 162.06 200.22 C 162.44 200.93 163.31 201.19 164.02 200.82 C 164.72 200.44 164.99 199.57 164.62 198.86 Z M 164.16 198.00 L 163.69 197.10 C 163.33 196.39 162.46 196.10 161.75 196.47 C 161.04 196.83 160.76 197.70 161.12 198.41 L 161.58 199.31 C 161.95 200.02 162.82 200.31 163.53 199.94 C 164.24 199.58 164.52 198.71 164.16 198.00 Z M 163.70 197.12 L 163.25 196.20 C 162.90 195.48 162.04 195.19 161.32 195.54 C 160.61 195.89 160.31 196.75 160.66 197.46 L 161.12 198.38 C 161.46 199.10 162.33 199.39 163.04 199.04 C 163.75 198.69 164.05 197.83 163.70 197.12 Z M 163.25 196.22 L 162.82 195.29 C 162.48 194.57 161.62 194.26 160.90 194.60 C 160.19 194.94 159.88 195.79 160.22 196.51 L 160.66 197.44 C 161.00 198.16 161.85 198.47 162.57 198.13 C 163.29 197.79 163.59 196.93 163.25 196.22 Z M 162.82 195.31 L 162.40 194.39 C 162.08 193.67 161.23 193.35 160.51 193.68 C 159.78 194.00 159.47 194.85 159.79 195.57 L 160.21 196.49 C 160.54 197.21 161.39 197.53 162.11 197.20 C 162.83 196.88 163.15 196.03 162.82 195.31 Z M 162.41 194.40 L 162.00 193.48 C 161.68 192.76 160.84 192.43 160.11 192.75 C 159.39 193.07 159.06 193.92 159.38 194.64 L 159.79 195.56 C 160.11 196.28 160.95 196.61 161.68 196.29 C 162.40 195.97 162.73 195.13 162.41 194.40 Z M 162.01 193.50 L 161.61 192.58 C 161.30 191.85 160.46 191.52 159.73 191.83 C 159.01 192.14 158.67 192.98 158.98 193.71 L 159.38 194.63 C 159.69 195.35 160.53 195.69 161.26 195.38 C 161.98 195.06 162.32 194.22 162.01 193.50 Z M 161.61 192.59 L 161.23 191.67 C 160.92 190.94 160.08 190.60 159.35 190.91 C 158.63 191.22 158.29 192.06 158.59 192.78 L 158.98 193.70 C 159.29 194.43 160.13 194.77 160.85 194.46 C 161.58 194.15 161.92 193.31 161.61 192.59 Z M 161.23 191.68 L 160.84 190.76 C 160.54 190.03 159.70 189.69 158.98 189.99 C 158.25 190.29 157.91 191.13 158.21 191.86 L 158.59 192.78 C 158.90 193.50 159.73 193.85 160.46 193.54 C 161.19 193.24 161.53 192.40 161.23 191.68 Z M 160.84 190.76 L 160.51 189.95 C 160.20 189.22 159.37 188.87 158.64 189.18 C 157.91 189.48 157.57 190.31 157.87 191.04 L 158.21 191.85 C 158.51 192.58 159.35 192.93 160.07 192.62 C 160.80 192.32 161.15 191.49 160.84 190.76 Z"
      fill="black"
      fill-rule="nonzero" /><path d="M 146.23 157.84 L 144.97 157.52 C 144.10 157.29 143.22 157.81 143.00 158.67 C 142.78 159.54 143.30 160.42 144.16 160.64 L 145.42 160.97 C 146.29 161.19 147.17 160.67 147.39 159.81 C 147.61 158.95 147.09 158.07 146.23 157.84 Z M 145.07 157.53 L 144.03 157.19 C 143.17 156.91 142.25 157.38 141.97 158.24 C 141.69 159.09 142.16 160.01 143.02 160.29 L 144.06 160.63 C 144.92 160.91 145.84 160.44 146.11 159.58 C 146.39 158.73 145.92 157.81 145.07 157.53 Z M 144.38 157.33 L 143.78 156.97 C 143.00 156.50 141.99 156.75 141.52 157.52 C 141.05 158.30 141.29 159.31 142.07 159.79 L 142.67 160.15 C 143.45 160.62 144.46 160.37 144.93 159.59 C 145.40 158.82 145.15 157.80 144.38 157.33 Z M 144.55 158.71 L 144.64 158.26 C 144.82 157.36 144.24 156.49 143.35 156.31 C 142.45 156.13 141.57 156.71 141.39 157.60 L 141.30 158.05 C 141.12 158.95 141.70 159.82 142.60 160.00 C 143.49 160.18 144.37 159.60 144.55 158.71 Z M 143.89 159.34 L 144.70 158.84 C 145.48 158.36 145.72 157.34 145.24 156.56 C 144.75 155.78 143.73 155.54 142.95 156.02 L 142.14 156.52 C 141.36 157.00 141.12 158.03 141.61 158.80 C 142.09 159.58 143.11 159.83 143.89 159.34 Z M 144.48 158.96 L 145.68 158.44 C 146.52 158.07 146.91 157.10 146.55 156.25 C 146.18 155.41 145.20 155.03 144.36 155.39 L 143.17 155.91 C 142.32 156.27 141.94 157.25 142.30 158.09 C 142.67 158.93 143.64 159.32 144.48 158.96 Z M 145.64 158.45 L 146.46 158.11 C 147.31 157.77 147.72 156.81 147.37 155.96 C 147.03 155.12 146.07 154.71 145.22 155.05 L 144.40 155.38 C 143.56 155.72 143.15 156.69 143.49 157.53 C 143.83 158.38 144.80 158.79 145.64 158.45 Z M 146.45 158.10 L 147.29 157.76 C 148.13 157.43 148.54 156.47 148.20 155.63 C 147.87 154.80 146.91 154.39 146.07 154.72 L 145.23 155.06 C 144.39 155.40 143.98 156.35 144.32 157.19 C 144.66 158.03 145.61 158.44 146.45 158.10 Z M 147.29 157.75 L 148.20 157.38 C 149.04 157.05 149.44 156.10 149.11 155.27 C 148.77 154.44 147.83 154.04 147.00 154.37 L 146.08 154.74 C 145.25 155.07 144.84 156.02 145.18 156.85 C 145.51 157.68 146.45 158.08 147.29 157.75 Z M 148.20 157.37 L 149.23 156.95 C 150.05 156.62 150.45 155.68 150.12 154.86 C 149.79 154.04 148.85 153.64 148.03 153.97 L 147.00 154.39 C 146.18 154.72 145.78 155.65 146.11 156.48 C 146.44 157.30 147.38 157.70 148.20 157.37 Z M 149.23 156.94 L 150.23 156.53 C 151.05 156.20 151.44 155.27 151.11 154.45 C 150.77 153.64 149.85 153.25 149.03 153.58 L 148.03 153.99 C 147.21 154.32 146.82 155.25 147.15 156.06 C 147.48 156.88 148.41 157.27 149.23 156.94 Z M 150.23 156.52 L 151.10 156.16 C 151.90 155.83 152.29 154.91 151.96 154.10 C 151.63 153.29 150.70 152.90 149.90 153.24 L 149.03 153.59 C 148.22 153.92 147.84 154.85 148.17 155.65 C 148.50 156.46 149.42 156.85 150.23 156.52 Z M 151.09 156.15 L 152.01 155.78 C 152.81 155.45 153.20 154.53 152.87 153.72 C 152.54 152.92 151.62 152.54 150.81 152.87 L 149.90 153.25 C 149.09 153.58 148.71 154.50 149.04 155.30 C 149.37 156.10 150.29 156.48 151.09 156.15 Z M 152.01 155.77 L 152.96 155.38 C 153.75 155.05 154.13 154.13 153.80 153.34 C 153.47 152.54 152.56 152.16 151.76 152.49 L 150.82 152.88 C 150.02 153.21 149.64 154.12 149.97 154.92 C 150.30 155.72 151.21 156.10 152.01 155.77 Z M 152.95 155.37 L 153.92 154.97 C 154.71 154.64 155.08 153.73 154.76 152.94 C 154.43 152.15 153.52 151.77 152.73 152.10 L 151.77 152.50 C 150.97 152.82 150.60 153.73 150.92 154.53 C 151.25 155.32 152.16 155.69 152.95 155.37 Z M 153.91 154.96 L 154.87 154.56 C 155.66 154.24 156.03 153.33 155.71 152.55 C 155.38 151.76 154.48 151.39 153.69 151.71 L 152.73 152.11 C 151.95 152.43 151.57 153.34 151.90 154.12 C 152.22 154.91 153.12 155.29 153.91 154.96 Z M 154.87 154.55 L 155.81 154.17 C 156.59 153.84 156.96 152.95 156.64 152.16 C 156.32 151.38 155.42 151.01 154.64 151.33 L 153.70 151.72 C 152.91 152.04 152.54 152.94 152.87 153.72 C 153.19 154.51 154.09 154.88 154.87 154.55 Z M 155.80 154.16 L 156.79 153.75 C 157.57 153.43 157.94 152.54 157.62 151.76 C 157.30 150.98 156.41 150.61 155.63 150.93 L 154.64 151.34 C 153.86 151.66 153.49 152.55 153.82 153.33 C 154.14 154.11 155.03 154.48 155.80 154.16 Z M 156.78 153.74 L 157.75 153.34 C 158.52 153.02 158.89 152.14 158.58 151.37 C 158.26 150.60 157.38 150.23 156.61 150.55 L 155.64 150.94 C 154.87 151.26 154.50 152.14 154.81 152.91 C 155.13 153.68 156.01 154.05 156.78 153.74 Z M 157.74 153.33 L 158.68 152.95 C 159.44 152.64 159.81 151.76 159.50 151.00 C 159.19 150.23 158.31 149.87 157.55 150.18 L 156.62 150.56 C 155.85 150.87 155.48 151.74 155.80 152.51 C 156.11 153.27 156.98 153.64 157.74 153.33 Z M 158.67 152.94 L 159.57 152.57 C 160.33 152.27 160.70 151.40 160.40 150.65 C 160.09 149.89 159.23 149.52 158.47 149.82 L 157.56 150.19 C 156.80 150.49 156.43 151.36 156.74 152.11 C 157.04 152.87 157.91 153.24 158.67 152.94 Z M 159.56 152.56 L 160.45 152.21 C 161.20 151.91 161.57 151.06 161.28 150.31 C 160.98 149.55 160.13 149.18 159.37 149.48 L 158.48 149.83 C 157.73 150.13 157.36 150.98 157.66 151.74 C 157.95 152.49 158.81 152.86 159.56 152.56 Z M 160.44 152.20 L 161.32 151.86 C 162.07 151.57 162.44 150.73 162.15 149.98 C 161.86 149.23 161.02 148.86 160.27 149.15 L 159.39 149.49 C 158.64 149.78 158.27 150.62 158.56 151.37 C 158.84 152.12 159.69 152.49 160.44 152.20 Z M 161.30 151.86 L 162.23 151.51 C 162.98 151.23 163.35 150.39 163.07 149.65 C 162.79 148.90 161.96 148.52 161.21 148.80 L 160.29 149.15 C 159.54 149.43 159.16 150.27 159.44 151.01 C 159.72 151.76 160.56 152.14 161.30 151.86 Z M 162.22 151.51 L 163.16 151.16 C 163.90 150.89 164.29 150.06 164.01 149.32 C 163.74 148.57 162.91 148.19 162.16 148.46 L 161.23 148.80 C 160.48 149.08 160.10 149.91 160.37 150.65 C 160.64 151.40 161.47 151.78 162.22 151.51 Z M 163.15 151.16 L 164.09 150.83 C 164.83 150.56 165.22 149.73 164.95 148.99 C 164.68 148.24 163.86 147.85 163.11 148.12 L 162.17 148.46 C 161.43 148.73 161.04 149.55 161.31 150.30 C 161.58 151.05 162.40 151.43 163.15 151.16 Z M 164.08 150.82 L 165.02 150.49 C 165.77 150.22 166.16 149.41 165.89 148.66 C 165.63 147.91 164.81 147.52 164.06 147.79 L 163.12 148.12 C 162.38 148.39 161.99 149.21 162.25 149.95 C 162.51 150.70 163.33 151.09 164.08 150.82 Z M 165.02 150.49 L 165.96 150.16 C 166.71 149.89 167.10 149.08 166.84 148.33 C 166.57 147.59 165.76 147.20 165.01 147.46 L 164.07 147.79 C 163.32 148.05 162.93 148.87 163.19 149.61 C 163.46 150.36 164.27 150.75 165.02 150.49 Z M 165.96 150.15 L 166.67 149.90 C 167.42 149.64 167.81 148.83 167.55 148.09 C 167.29 147.34 166.47 146.95 165.73 147.21 L 165.02 147.46 C 164.27 147.72 163.88 148.53 164.14 149.28 C 164.40 150.02 165.22 150.41 165.96 150.15 Z"
      fill="black"
      fill-rule="nonzero" /><path d="M 150.04 164.48 L 149.10 164.82 C 148.25 165.12 147.81 166.06 148.11 166.90 C 148.41 167.75 149.35 168.19 150.20 167.89 L 151.14 167.56 C 151.99 167.25 152.43 166.32 152.12 165.47 C 151.82 164.62 150.89 164.18 150.04 164.48 Z M 149.03 164.85 L 148.11 165.23 C 147.27 165.57 146.88 166.52 147.22 167.36 C 147.56 168.19 148.51 168.59 149.35 168.24 L 150.27 167.86 C 151.10 167.52 151.50 166.57 151.15 165.74 C 150.81 164.90 149.86 164.51 149.03 164.85 Z M 147.96 165.29 L 147.08 165.76 C 146.29 166.18 145.98 167.17 146.40 167.96 C 146.82 168.76 147.81 169.06 148.61 168.64 L 149.49 168.18 C 150.28 167.76 150.59 166.77 150.17 165.97 C 149.75 165.18 148.76 164.87 147.96 165.29 Z M 146.86 165.89 L 145.92 166.60 C 145.20 167.14 145.05 168.17 145.59 168.89 C 146.13 169.61 147.15 169.76 147.88 169.22 L 148.82 168.51 C 149.55 167.97 149.69 166.95 149.15 166.22 C 148.61 165.50 147.59 165.35 146.86 165.89 Z M 145.59 166.91 L 144.98 167.70 C 144.43 168.42 144.57 169.45 145.29 170.01 C 146.01 170.56 147.05 170.43 147.60 169.70 L 148.21 168.91 C 148.76 168.19 148.62 167.15 147.90 166.60 C 147.18 166.05 146.14 166.18 145.59 166.91 Z M 144.66 168.99 L 144.76 169.60 C 144.92 170.50 145.78 171.11 146.69 170.95 C 147.59 170.79 148.20 169.93 148.04 169.02 L 147.93 168.41 C 147.77 167.51 146.91 166.90 146.00 167.06 C 145.10 167.22 144.50 168.08 144.66 168.99 Z M 145.69 170.82 L 146.30 171.11 C 147.14 171.50 148.13 171.14 148.52 170.30 C 148.91 169.47 148.55 168.47 147.72 168.08 L 147.11 167.80 C 146.27 167.41 145.28 167.77 144.89 168.60 C 144.50 169.44 144.86 170.43 145.69 170.82 Z M 146.77 171.25 L 147.74 171.39 C 148.65 171.52 149.50 170.89 149.63 169.98 C 149.76 169.06 149.13 168.22 148.22 168.09 L 147.25 167.95 C 146.34 167.81 145.49 168.44 145.36 169.36 C 145.23 170.27 145.86 171.11 146.77 171.25 Z M 147.98 171.40 L 149.20 171.40 C 150.12 171.41 150.86 170.66 150.86 169.74 C 150.87 168.82 150.12 168.07 149.20 168.07 L 147.98 168.07 C 147.06 168.07 146.32 168.81 146.32 169.73 C 146.31 170.65 147.06 171.40 147.98 171.40 Z M 149.35 171.39 L 150.54 171.28 C 151.45 171.20 152.12 170.39 152.04 169.48 C 151.95 168.56 151.14 167.89 150.23 167.97 L 149.04 168.08 C 148.13 168.17 147.46 168.98 147.54 169.89 C 147.63 170.81 148.44 171.48 149.35 171.39 Z M 150.64 171.26 L 151.66 171.10 C 152.56 170.95 153.17 170.11 153.02 169.21 C 152.88 168.31 152.03 167.69 151.13 167.84 L 150.12 168.00 C 149.22 168.14 148.61 168.99 148.75 169.89 C 148.90 170.79 149.74 171.40 150.64 171.26 Z M 151.73 171.07 L 152.74 170.85 C 153.63 170.67 154.19 169.80 154.01 168.92 C 153.82 168.04 152.95 167.47 152.07 167.65 L 151.06 167.87 C 150.18 168.05 149.61 168.92 149.79 169.80 C 149.98 170.69 150.85 171.25 151.73 171.07 Z M 152.80 170.82 L 153.79 170.58 C 154.66 170.36 155.18 169.48 154.96 168.61 C 154.74 167.74 153.86 167.22 153.00 167.44 L 152.01 167.69 C 151.14 167.90 150.62 168.78 150.84 169.65 C 151.06 170.52 151.94 171.04 152.80 170.82 Z M 153.84 170.55 L 154.78 170.27 C 155.63 170.03 156.12 169.14 155.87 168.29 C 155.62 167.44 154.74 166.95 153.88 167.19 L 152.95 167.47 C 152.10 167.71 151.61 168.60 151.85 169.45 C 152.10 170.30 152.99 170.79 153.84 170.55 Z M 154.82 170.24 L 155.76 169.93 C 156.60 169.66 157.05 168.77 156.78 167.93 C 156.50 167.10 155.61 166.65 154.78 166.92 L 153.84 167.23 C 153.01 167.50 152.55 168.39 152.82 169.23 C 153.10 170.06 153.99 170.51 154.82 170.24 Z M 155.81 169.90 L 156.81 169.53 C 157.62 169.23 158.04 168.33 157.74 167.52 C 157.44 166.70 156.54 166.29 155.73 166.59 L 154.73 166.96 C 153.92 167.26 153.50 168.16 153.80 168.97 C 154.10 169.78 155.00 170.20 155.81 169.90 Z M 156.86 169.49 L 157.77 169.12 C 158.56 168.79 158.93 167.89 158.61 167.10 C 158.29 166.31 157.39 165.93 156.60 166.25 L 155.69 166.63 C 154.90 166.95 154.52 167.85 154.84 168.64 C 155.16 169.43 156.07 169.81 156.86 169.49 Z M 157.79 169.08 L 158.65 168.71 C 159.43 168.37 159.78 167.47 159.44 166.70 C 159.11 165.93 158.21 165.58 157.44 165.91 L 156.57 166.29 C 155.80 166.62 155.45 167.52 155.78 168.29 C 156.12 169.07 157.02 169.42 157.79 169.08 Z M 158.65 168.68 L 159.52 168.30 C 160.28 167.96 160.62 167.08 160.29 166.32 C 159.95 165.56 159.06 165.21 158.30 165.55 L 157.44 165.93 C 156.68 166.27 156.33 167.16 156.67 167.92 C 157.01 168.68 157.90 169.02 158.65 168.68 Z M 159.51 168.29 L 160.40 167.90 C 161.15 167.57 161.50 166.69 161.17 165.94 C 160.84 165.18 159.96 164.84 159.20 165.17 L 158.31 165.56 C 157.56 165.89 157.22 166.77 157.55 167.52 C 157.88 168.28 158.76 168.62 159.51 168.29 Z M 160.40 167.89 L 161.31 167.49 C 162.06 167.16 162.40 166.29 162.07 165.54 C 161.74 164.79 160.87 164.45 160.12 164.78 L 159.21 165.18 C 158.46 165.51 158.12 166.38 158.45 167.13 C 158.77 167.88 159.65 168.22 160.40 167.89 Z M 161.31 167.48 L 162.25 167.06 C 162.99 166.73 163.32 165.86 163.00 165.12 C 162.67 164.38 161.80 164.05 161.05 164.37 L 160.12 164.79 C 159.38 165.12 159.04 165.99 159.37 166.73 C 159.70 167.47 160.57 167.81 161.31 167.48 Z M 162.26 167.05 L 163.18 166.63 C 163.91 166.30 164.24 165.43 163.90 164.70 C 163.57 163.96 162.70 163.64 161.97 163.97 L 161.05 164.39 C 160.31 164.72 159.99 165.59 160.32 166.32 C 160.65 167.06 161.52 167.38 162.26 167.05 Z M 163.19 166.62 L 164.07 166.21 C 164.80 165.87 165.12 165.00 164.78 164.27 C 164.44 163.55 163.57 163.23 162.85 163.57 L 161.96 163.98 C 161.23 164.32 160.92 165.19 161.25 165.91 C 161.59 166.64 162.46 166.96 163.19 166.62 Z M 164.08 166.20 L 164.98 165.77 C 165.70 165.43 166.01 164.57 165.66 163.84 C 165.32 163.12 164.46 162.81 163.74 163.16 L 162.84 163.58 C 162.12 163.92 161.81 164.78 162.15 165.51 C 162.49 166.23 163.35 166.54 164.08 166.20 Z M 164.98 165.76 L 165.89 165.33 C 166.61 164.99 166.91 164.13 166.57 163.41 C 166.23 162.69 165.37 162.39 164.65 162.73 L 163.74 163.16 C 163.02 163.51 162.71 164.36 163.06 165.08 C 163.40 165.80 164.26 166.11 164.98 165.76 Z M 165.89 165.32 L 166.81 164.88 C 167.53 164.54 167.83 163.68 167.49 162.97 C 167.15 162.26 166.30 161.95 165.58 162.29 L 164.65 162.73 C 163.94 163.07 163.63 163.93 163.98 164.64 C 164.32 165.36 165.17 165.66 165.89 165.32 Z M 166.81 164.88 L 167.69 164.46 C 168.41 164.12 168.71 163.27 168.37 162.55 C 168.04 161.84 167.18 161.54 166.47 161.87 L 165.58 162.29 C 164.87 162.63 164.57 163.49 164.90 164.20 C 165.24 164.91 166.10 165.22 166.81 164.88 Z M 167.69 164.46 L 168.59 164.03 C 169.31 163.70 169.61 162.85 169.28 162.13 C 168.94 161.42 168.09 161.11 167.37 161.45 L 166.47 161.87 C 165.76 162.21 165.45 163.06 165.79 163.78 C 166.13 164.49 166.98 164.80 167.69 164.46 Z M 168.59 164.03 L 169.50 163.61 C 170.21 163.27 170.52 162.42 170.19 161.71 C 169.85 160.99 169.00 160.69 168.29 161.02 L 167.38 161.45 C 166.66 161.79 166.36 162.64 166.69 163.35 C 167.03 164.06 167.88 164.37 168.59 164.03 Z M 169.50 163.61 L 170.42 163.18 C 171.13 162.84 171.44 161.99 171.10 161.28 C 170.77 160.57 169.92 160.26 169.20 160.59 L 168.29 161.02 C 167.57 161.36 167.27 162.21 167.60 162.92 C 167.94 163.63 168.79 163.94 169.50 163.61 Z M 170.42 163.18 L 170.91 162.94 C 171.62 162.61 171.93 161.76 171.59 161.05 C 171.26 160.34 170.41 160.03 169.70 160.36 L 169.21 160.59 C 168.49 160.93 168.19 161.78 168.52 162.49 C 168.85 163.20 169.70 163.51 170.42 163.18 Z"
      fill="black"
      fill-rule="nonzero" /></svg>