<svg xmlns="http://www.w3.org/2000/svg" width="300" height="300" viewBox="0 0 300 300">
<path d="M 132.49 111.65 L 132.49 112.64 C 132.50 113.51 133.19 114.20 134.06 114.20 C 134.92 114.20 135.61 113.50 135.61 112.64 L 135.61 111.65 C 135.61 110.79 134.91 110.09 134.05 110.09 C 133.19 110.09 132.49 110.79 132.49 111.65 Z M 132.48 112.65 L 132.48 113.65 C 132.49 114.52 133.20 115.22 134.07 115.22 C 134.94 115.21 135.64 114.50 135.63 113.63 L 135.63 112.64 C 135.63 111.76 134.92 111.06 134.05 111.07 C 133.18 111.07 132.47 111.78 132.48 112.65 Z M 132.47 113.66 L 132.48 114.66 C 132.49 115.54 133.21 116.24 134.09 116.23 C 134.97 116.22 135.68 115.50 135.67 114.62 L 135.65 113.62 C 135.64 112.74 134.92 112.04 134.04 112.05 C 133.16 112.06 132.45 112.78 132.47 113.66 Z M 132.46 114.68 L 132.49 115.69 C 132.51 116.57 133.25 117.28 134.14 117.25 C 135.03 117.23 135.73 116.49 135.71 115.60 L 135.68 114.60 C 135.66 113.71 134.92 113.01 134.03 113.03 C 133.14 113.05 132.44 113.79 132.46 114.68 Z M 132.48 115.71 L 132.52 116.70 C 132.56 117.59 133.32 118.29 134.21 118.25 C 135.11 118.21 135.80 117.45 135.76 116.56 L 135.72 115.57 C 135.68 114.68 134.92 113.98 134.03 114.02 C 133.13 114.06 132.44 114.82 132.48 115.71 Z M 132.52 116.72 L 132.58 117.69 C 132.63 118.59 133.40 119.27 134.30 119.22 C 135.19 119.16 135.87 118.40 135.82 117.50 L 135.76 116.53 C 135.71 115.64 134.94 114.96 134.04 115.01 C 133.15 115.06 132.47 115.83 132.52 116.72 Z M 132.58 117.71 L 132.66 118.70 C 132.72 119.59 133.50 120.26 134.39 120.20 C 135.28 120.13 135.95 119.36 135.88 118.46 L 135.81 117.48 C 135.75 116.59 134.97 115.92 134.08 115.98 C 133.19 116.05 132.52 116.82 132.58 117.71 Z M 132.66 118.71 L 132.74 119.72 C 132.82 120.61 133.60 121.27 134.49 121.20 C 135.37 121.12 136.04 120.34 135.96 119.45 L 135.88 118.45 C 135.81 117.56 135.03 116.90 134.14 116.97 C 133.25 117.05 132.59 117.83 132.66 118.71 Z M 132.75 119.73 L 132.84 120.76 C 132.92 121.65 133.70 122.30 134.59 122.22 C 135.47 122.14 136.13 121.36 136.05 120.48 L 135.96 119.44 C 135.88 118.56 135.10 117.90 134.21 117.98 C 133.33 118.06 132.67 118.84 132.75 119.73 Z M 132.85 120.77 L 132.94 121.75 C 133.02 122.63 133.80 123.28 134.68 123.20 C 135.57 123.12 136.22 122.33 136.13 121.45 L 136.04 120.47 C 135.96 119.59 135.18 118.94 134.30 119.02 C 133.42 119.10 132.77 119.88 132.85 120.77 Z M 132.95 121.75 L 133.04 122.73 C 133.12 123.61 133.90 124.25 134.78 124.16 C 135.66 124.08 136.30 123.30 136.22 122.42 L 136.13 121.45 C 136.04 120.57 135.26 119.93 134.38 120.01 C 133.51 120.10 132.86 120.87 132.95 121.75 Z M 133.05 122.73 L 133.15 123.73 C 133.24 124.60 134.02 125.24 134.89 125.15 C 135.76 125.06 136.40 124.28 136.31 123.41 L 136.21 122.42 C 136.12 121.54 135.34 120.91 134.47 120.99 C 133.60 121.08 132.96 121.86 133.05 122.73 Z M 133.16 123.74 L 133.26 124.74 C 133.36 125.61 134.13 126.24 135.00 126.15 C 135.87 126.06 136.50 125.28 136.41 124.41 L 136.30 123.40 C 136.21 122.53 135.43 121.91 134.56 122.00 C 133.70 122.09 133.07 122.87 133.16 123.74 Z M 133.27 124.75 L 133.39 125.77 C 133.49 126.63 134.26 127.25 135.13 127.16 C 135.99 127.06 136.61 126.28 136.51 125.42 L 136.40 124.40 C 136.30 123.54 135.52 122.92 134.66 123.01 C 133.80 123.11 133.18 123.89 133.27 124.75 Z M 133.40 125.78 L 133.52 126.80 C 133.63 127.66 134.41 128.27 135.26 128.17 C 136.12 128.07 136.73 127.29 136.63 126.43 L 136.50 125.40 C 136.40 124.55 135.62 123.94 134.76 124.04 C 133.91 124.14 133.29 124.92 133.40 125.78 Z M 133.53 126.82 L 133.67 127.84 C 133.78 128.70 134.56 129.30 135.41 129.18 C 136.26 129.07 136.86 128.29 136.75 127.44 L 136.62 126.41 C 136.50 125.56 135.72 124.96 134.87 125.08 C 134.02 125.19 133.42 125.97 133.53 126.82 Z M 133.68 127.86 L 133.82 128.87 C 133.94 129.72 134.73 130.30 135.57 130.18 C 136.41 130.06 137.00 129.28 136.88 128.44 L 136.74 127.43 C 136.62 126.58 135.84 125.99 134.99 126.11 C 134.15 126.23 133.56 127.02 133.68 127.86 Z M 133.84 128.89 L 133.99 129.88 C 134.12 130.72 134.90 131.29 135.74 131.16 C 136.58 131.03 137.15 130.25 137.02 129.41 L 136.87 128.42 C 136.74 127.58 135.96 127.01 135.12 127.14 C 134.28 127.27 133.71 128.05 133.84 128.89 Z M 134.01 129.90 L 134.17 130.86 C 134.31 131.69 135.09 132.25 135.92 132.11 C 136.75 131.97 137.31 131.18 137.17 130.35 L 137.01 129.39 C 136.87 128.56 136.08 128.01 135.25 128.15 C 134.42 128.29 133.86 129.07 134.01 129.90 Z M 134.18 130.89 L 134.36 131.83 C 134.51 132.65 135.30 133.20 136.13 133.04 C 136.95 132.89 137.49 132.10 137.33 131.28 L 137.16 130.33 C 137.00 129.51 136.21 128.97 135.39 129.12 C 134.57 129.28 134.03 130.07 134.18 130.89 Z M 134.38 131.87 L 134.60 132.92 C 134.78 133.73 135.57 134.24 136.38 134.07 C 137.19 133.90 137.71 133.10 137.54 132.29 L 137.31 131.24 C 137.14 130.43 136.34 129.91 135.53 130.09 C 134.72 130.26 134.21 131.06 134.38 131.87 Z M 134.63 132.97 L 134.88 133.95 C 135.08 134.75 135.89 135.23 136.69 135.03 C 137.48 134.83 137.97 134.02 137.76 133.22 L 137.51 132.24 C 137.31 131.44 136.50 130.96 135.70 131.16 C 134.91 131.36 134.42 132.17 134.63 132.97 Z M 134.91 134.02 L 135.20 134.95 C 135.44 135.73 136.26 136.17 137.04 135.93 C 137.82 135.69 138.26 134.86 138.02 134.08 L 137.73 133.15 C 137.49 132.37 136.66 131.93 135.88 132.18 C 135.10 132.42 134.67 133.24 134.91 134.02 Z M 135.24 135.04 L 135.57 135.92 C 135.86 136.67 136.71 137.05 137.47 136.76 C 138.22 136.48 138.60 135.63 138.31 134.87 L 137.98 133.99 C 137.69 133.24 136.84 132.86 136.08 133.15 C 135.33 133.44 134.95 134.28 135.24 135.04 Z M 135.63 136.02 L 136.05 136.91 C 136.40 137.64 137.26 137.95 137.99 137.60 C 138.72 137.26 139.03 136.39 138.68 135.67 L 138.26 134.77 C 137.91 134.05 137.05 133.74 136.32 134.08 C 135.59 134.42 135.28 135.29 135.63 136.02 Z M 136.11 137.00 L 136.60 137.87 C 136.99 138.57 137.87 138.81 138.57 138.42 C 139.26 138.03 139.51 137.15 139.12 136.45 L 138.63 135.58 C 138.24 134.88 137.35 134.63 136.66 135.03 C 135.96 135.42 135.71 136.30 136.11 137.00 Z M 136.64 137.93 L 137.17 138.77 C 137.59 139.45 138.48 139.65 139.16 139.22 C 139.83 138.80 140.03 137.91 139.61 137.24 L 139.08 136.39 C 138.65 135.72 137.76 135.52 137.09 135.94 C 136.42 136.37 136.21 137.26 136.64 137.93 Z M 137.20 138.80 L 137.75 139.63 C 138.19 140.29 139.08 140.46 139.74 140.02 C 140.40 139.58 140.58 138.69 140.14 138.03 L 139.58 137.21 C 139.14 136.55 138.25 136.37 137.59 136.81 C 136.93 137.25 136.76 138.14 137.20 138.80 Z M 137.76 139.64 L 137.90 139.84 C 138.34 140.49 139.23 140.66 139.88 140.21 C 140.54 139.77 140.71 138.88 140.26 138.23 L 140.13 138.03 C 139.68 137.38 138.79 137.21 138.14 137.65 C 137.49 138.09 137.32 138.98 137.76 139.64 Z"
      fill="black"
      fill-rule="nonzero" /><path d="M 137.89 111.37 L 138.88 111.29 C 139.75 111.22 140.40 110.45 140.32 109.58 C 140.25 108.71 139.49 108.07 138.62 108.14 L 137.63 108.22 C 136.76 108.29 136.11 109.06 136.18 109.93 C 136.25 110.79 137.02 111.44 137.89 111.37 Z M 138.89 111.29 L 139.89 111.20 C 140.76 111.12 141.40 110.35 141.32 109.48 C 141.24 108.61 140.47 107.97 139.60 108.05 L 138.61 108.14 C 137.74 108.22 137.10 108.99 137.18 109.86 C 137.25 110.73 138.02 111.37 138.89 111.29 Z M 139.91 111.20 L 140.90 111.09 C 141.77 111.00 142.40 110.22 142.31 109.35 C 142.22 108.48 141.44 107.85 140.57 107.95 L 139.58 108.05 C 138.71 108.14 138.08 108.92 138.17 109.79 C 138.26 110.66 139.04 111.29 139.91 111.20 Z M 140.94 111.09 L 141.93 110.96 C 142.80 110.85 143.41 110.06 143.30 109.19 C 143.19 108.32 142.40 107.71 141.53 107.82 L 140.53 107.95 C 139.67 108.06 139.05 108.85 139.17 109.72 C 139.28 110.59 140.07 111.20 140.94 111.09 Z M 141.98 110.96 L 142.97 110.80 C 143.84 110.66 144.43 109.85 144.29 108.98 C 144.15 108.12 143.34 107.53 142.47 107.67 L 141.48 107.83 C 140.61 107.96 140.03 108.78 140.16 109.64 C 140.30 110.51 141.12 111.10 141.98 110.96 Z M 143.03 110.79 L 143.99 110.60 C 144.85 110.43 145.42 109.60 145.25 108.74 C 145.08 107.88 144.24 107.32 143.38 107.48 L 142.42 107.67 C 141.56 107.84 140.99 108.68 141.16 109.54 C 141.33 110.40 142.17 110.96 143.03 110.79 Z M 144.04 110.59 L 145.01 110.38 C 145.86 110.18 146.40 109.33 146.21 108.47 C 146.01 107.62 145.16 107.08 144.31 107.27 L 143.34 107.49 C 142.48 107.69 141.94 108.54 142.14 109.39 C 142.33 110.25 143.18 110.79 144.04 110.59 Z M 145.04 110.37 L 146.01 110.13 C 146.87 109.91 147.39 109.05 147.17 108.20 C 146.96 107.34 146.10 106.82 145.24 107.04 L 144.27 107.28 C 143.42 107.49 142.90 108.36 143.11 109.21 C 143.33 110.06 144.19 110.58 145.04 110.37 Z M 146.04 110.12 L 147.01 109.86 C 147.86 109.64 148.37 108.76 148.14 107.91 C 147.92 107.06 147.04 106.55 146.19 106.78 L 145.22 107.04 C 144.37 107.27 143.86 108.14 144.09 108.99 C 144.31 109.84 145.19 110.35 146.04 110.12 Z M 147.03 109.86 L 148.01 109.59 C 148.85 109.35 149.35 108.47 149.12 107.62 C 148.88 106.78 148.00 106.28 147.15 106.51 L 146.18 106.78 C 145.33 107.02 144.83 107.90 145.06 108.75 C 145.30 109.60 146.18 110.10 147.03 109.86 Z M 148.01 109.59 L 148.97 109.32 C 149.82 109.08 150.31 108.20 150.07 107.35 C 149.83 106.50 148.95 106.00 148.10 106.24 L 147.15 106.51 C 146.30 106.75 145.80 107.64 146.04 108.49 C 146.28 109.33 147.16 109.83 148.01 109.59 Z M 148.97 109.32 L 149.93 109.05 C 150.78 108.80 151.27 107.92 151.03 107.07 C 150.79 106.22 149.90 105.73 149.05 105.97 L 148.09 106.24 C 147.24 106.49 146.75 107.37 146.99 108.22 C 147.24 109.07 148.12 109.56 148.97 109.32 Z M 149.94 109.05 L 150.90 108.77 C 151.75 108.52 152.24 107.63 151.99 106.78 C 151.75 105.93 150.86 105.44 150.01 105.69 L 149.04 105.97 C 148.19 106.22 147.70 107.10 147.95 107.95 C 148.20 108.81 149.09 109.29 149.94 109.05 Z M 150.91 108.77 L 151.87 108.49 C 152.72 108.24 153.21 107.34 152.96 106.49 C 152.70 105.64 151.81 105.16 150.96 105.41 L 150.00 105.69 C 149.15 105.94 148.66 106.83 148.91 107.68 C 149.16 108.53 150.05 109.02 150.91 108.77 Z M 151.88 108.49 L 152.84 108.20 C 153.69 107.94 154.17 107.05 153.92 106.20 C 153.66 105.35 152.77 104.86 151.92 105.12 L 150.95 105.41 C 150.10 105.66 149.62 106.56 149.87 107.41 C 150.13 108.26 151.03 108.74 151.88 108.49 Z M 152.85 108.20 L 153.81 107.91 C 154.66 107.65 155.14 106.75 154.88 105.90 C 154.62 105.05 153.72 104.57 152.87 104.82 L 151.91 105.12 C 151.06 105.37 150.58 106.27 150.84 107.13 C 151.10 107.98 152.00 108.46 152.85 108.20 Z M 153.82 107.91 L 154.77 107.61 C 155.63 107.35 156.10 106.45 155.84 105.59 C 155.58 104.74 154.67 104.26 153.82 104.53 L 152.86 104.82 C 152.01 105.08 151.53 105.99 151.79 106.84 C 152.06 107.70 152.96 108.17 153.82 107.91 Z M 154.78 107.62 L 155.74 107.32 C 156.59 107.05 157.07 106.14 156.80 105.29 C 156.53 104.43 155.62 103.96 154.77 104.22 L 153.81 104.52 C 152.96 104.79 152.48 105.70 152.75 106.55 C 153.02 107.41 153.93 107.89 154.78 107.62 Z M 155.74 107.32 L 156.70 107.02 C 157.55 106.75 158.03 105.84 157.76 104.98 C 157.49 104.12 156.57 103.65 155.72 103.92 L 154.76 104.22 C 153.91 104.49 153.43 105.40 153.70 106.26 C 153.97 107.12 154.89 107.59 155.74 107.32 Z M 156.70 107.03 L 157.65 106.72 C 158.51 106.45 158.99 105.53 158.71 104.67 C 158.44 103.81 157.52 103.34 156.66 103.61 L 155.71 103.91 C 154.85 104.19 154.38 105.11 154.65 105.97 C 154.92 106.82 155.84 107.30 156.70 107.03 Z M 157.66 106.73 L 158.60 106.43 C 159.46 106.15 159.93 105.23 159.66 104.37 C 159.38 103.51 158.46 103.03 157.60 103.31 L 156.66 103.61 C 155.80 103.88 155.32 104.81 155.60 105.67 C 155.87 106.53 156.79 107.00 157.66 106.73 Z M 158.60 106.43 L 159.54 106.13 C 160.40 105.85 160.88 104.93 160.60 104.06 C 160.32 103.20 159.39 102.72 158.53 103.00 L 157.59 103.30 C 156.73 103.58 156.26 104.51 156.53 105.37 C 156.81 106.23 157.74 106.71 158.60 106.43 Z M 159.54 106.13 L 160.48 105.83 C 161.35 105.54 161.82 104.62 161.54 103.75 C 161.26 102.88 160.33 102.41 159.46 102.69 L 158.52 103.00 C 157.66 103.28 157.19 104.21 157.47 105.08 C 157.75 105.94 158.68 106.41 159.54 106.13 Z M 160.49 105.83 L 161.44 105.52 C 162.30 105.23 162.78 104.30 162.49 103.43 C 162.20 102.56 161.27 102.09 160.40 102.38 L 159.46 102.69 C 158.59 102.98 158.12 103.91 158.40 104.78 C 158.69 105.64 159.62 106.11 160.49 105.83 Z M 161.45 105.52 L 162.41 105.20 C 163.28 104.91 163.74 103.97 163.45 103.10 C 163.16 102.23 162.23 101.76 161.36 102.05 L 160.40 102.38 C 159.53 102.67 159.06 103.61 159.35 104.47 C 159.64 105.34 160.58 105.81 161.45 105.52 Z M 162.42 105.20 L 163.47 104.84 C 164.34 104.55 164.80 103.60 164.51 102.73 C 164.21 101.86 163.27 101.40 162.40 101.69 L 161.35 102.05 C 160.48 102.35 160.01 103.29 160.31 104.16 C 160.60 105.03 161.55 105.50 162.42 105.20 Z M 163.48 104.86 L 164.71 104.43 C 165.59 104.13 166.06 103.18 165.76 102.30 C 165.46 101.42 164.50 100.96 163.62 101.26 L 162.39 101.68 C 161.51 101.98 161.05 102.93 161.35 103.81 C 161.65 104.69 162.60 105.16 163.48 104.86 Z M 164.70 104.46 L 165.81 104.10 C 166.70 103.81 167.19 102.85 166.89 101.95 C 166.60 101.06 165.64 100.57 164.75 100.87 L 163.64 101.23 C 162.75 101.52 162.26 102.48 162.55 103.37 C 162.84 104.27 163.80 104.75 164.70 104.46 Z M 165.74 104.14 L 166.60 103.90 C 167.52 103.65 168.05 102.70 167.80 101.78 C 167.54 100.87 166.59 100.33 165.68 100.58 L 164.82 100.82 C 163.90 101.08 163.36 102.03 163.62 102.94 C 163.87 103.86 164.82 104.40 165.74 104.14 Z M 166.30 103.98 L 166.79 103.93 C 167.75 103.84 168.45 102.99 168.36 102.03 C 168.27 101.07 167.42 100.37 166.46 100.46 L 165.97 100.51 C 165.01 100.60 164.31 101.45 164.40 102.41 C 164.49 103.37 165.34 104.07 166.30 103.98 Z M 165.02 101.50 L 164.84 101.90 C 164.46 102.79 164.87 103.82 165.75 104.21 C 166.64 104.59 167.68 104.19 168.06 103.30 L 168.24 102.89 C 168.62 102.01 168.21 100.97 167.33 100.59 C 166.44 100.20 165.40 100.61 165.02 101.50 Z M 165.27 101.30 L 164.41 102.09 C 163.69 102.74 163.63 103.85 164.28 104.57 C 164.94 105.28 166.04 105.34 166.76 104.69 L 167.63 103.90 C 168.35 103.25 168.40 102.14 167.75 101.42 C 167.10 100.70 165.99 100.65 165.27 101.30 Z M 164.40 102.10 L 163.50 102.92 C 162.79 103.58 162.74 104.69 163.40 105.40 C 164.05 106.11 165.16 106.16 165.88 105.50 L 166.77 104.68 C 167.49 104.02 167.53 102.91 166.87 102.20 C 166.22 101.49 165.11 101.44 164.40 102.10 Z M 163.41 103.01 L 162.71 103.75 C 162.05 104.45 162.08 105.56 162.79 106.23 C 163.49 106.89 164.60 106.86 165.27 106.16 L 165.96 105.42 C 166.63 104.71 166.60 103.60 165.89 102.94 C 165.19 102.27 164.08 102.30 163.41 103.01 Z M 162.64 103.83 L 162.02 104.58 C 161.40 105.33 161.50 106.43 162.24 107.05 C 162.99 107.67 164.09 107.57 164.71 106.83 L 165.34 106.07 C 165.96 105.33 165.86 104.22 165.11 103.60 C 164.37 102.98 163.26 103.09 162.64 103.83 Z M 161.96 104.65 L 161.38 105.43 C 160.80 106.20 160.96 107.30 161.73 107.88 C 162.50 108.46 163.60 108.31 164.18 107.53 L 164.77 106.76 C 165.35 105.98 165.19 104.88 164.42 104.30 C 163.65 103.72 162.55 103.88 161.96 104.65 Z M 161.34 105.48 L 160.78 106.30 C 160.23 107.10 160.43 108.19 161.22 108.74 C 162.02 109.29 163.11 109.09 163.66 108.29 L 164.22 107.47 C 164.77 106.68 164.57 105.59 163.78 105.04 C 162.98 104.49 161.89 104.69 161.34 105.48 Z M 160.74 106.36 L 160.21 107.21 C 159.69 108.03 159.94 109.11 160.76 109.62 C 161.58 110.14 162.66 109.89 163.17 109.07 L 163.70 108.22 C 164.21 107.41 163.97 106.33 163.15 105.81 C 162.33 105.30 161.25 105.55 160.74 106.36 Z M 160.16 107.29 L 159.67 108.16 C 159.20 109.00 159.50 110.07 160.34 110.54 C 161.18 111.01 162.25 110.71 162.72 109.87 L 163.21 109.00 C 163.68 108.16 163.38 107.09 162.54 106.62 C 161.70 106.15 160.64 106.44 160.16 107.29 Z M 159.63 108.24 L 159.23 109.06 C 158.80 109.92 159.15 110.97 160.01 111.40 C 160.88 111.83 161.92 111.47 162.35 110.61 L 162.76 109.79 C 163.19 108.93 162.84 107.88 161.97 107.45 C 161.11 107.02 160.06 107.38 159.63 108.24 Z M 159.19 109.15 L 158.81 110.03 C 158.43 110.92 158.84 111.94 159.72 112.32 C 160.60 112.70 161.63 112.30 162.01 111.41 L 162.39 110.52 C 162.77 109.64 162.36 108.62 161.48 108.24 C 160.60 107.86 159.57 108.26 159.19 109.15 Z M 158.78 110.12 L 158.41 111.12 C 158.08 112.02 158.54 113.02 159.44 113.35 C 160.35 113.68 161.34 113.21 161.67 112.31 L 162.04 111.32 C 162.37 110.42 161.91 109.42 161.01 109.09 C 160.10 108.76 159.11 109.22 158.78 110.12 Z M 158.39 111.20 L 158.08 112.18 C 157.79 113.10 158.30 114.07 159.21 114.36 C 160.13 114.64 161.10 114.13 161.39 113.22 L 161.70 112.23 C 161.98 111.32 161.48 110.35 160.56 110.06 C 159.65 109.77 158.68 110.28 158.39 111.20 Z M 158.07 112.24 L 157.80 113.19 C 157.55 114.11 158.09 115.06 159.01 115.31 C 159.93 115.57 160.89 115.03 161.14 114.11 L 161.40 113.16 C 161.66 112.24 161.12 111.29 160.19 111.03 C 159.27 110.78 158.32 111.32 158.07 112.24 Z M 157.80 113.23 L 157.55 114.22 C 157.32 115.15 157.89 116.08 158.82 116.31 C 159.74 116.54 160.68 115.98 160.91 115.05 L 161.15 114.06 C 161.38 113.13 160.81 112.20 159.89 111.97 C 158.96 111.74 158.03 112.31 157.80 113.23 Z M 157.55 114.26 L 157.32 115.27 C 157.12 116.20 157.71 117.12 158.64 117.32 C 159.57 117.53 160.49 116.94 160.69 116.01 L 160.91 115.01 C 161.12 114.08 160.53 113.16 159.60 112.95 C 158.67 112.75 157.75 113.33 157.55 114.26 Z M 157.32 115.31 L 157.13 116.30 C 156.95 117.24 157.55 118.14 158.49 118.32 C 159.42 118.50 160.32 117.89 160.50 116.96 L 160.70 115.97 C 160.88 115.04 160.27 114.13 159.34 113.95 C 158.40 113.77 157.50 114.38 157.32 115.31 Z M 157.12 116.35 L 156.96 117.38 C 156.80 118.31 157.43 119.19 158.37 119.35 C 159.30 119.50 160.18 118.87 160.34 117.93 L 160.51 116.91 C 160.66 115.98 160.03 115.10 159.09 114.94 C 158.16 114.79 157.28 115.42 157.12 116.35 Z M 156.96 117.43 L 156.83 118.42 C 156.70 119.35 157.35 120.21 158.28 120.34 C 159.21 120.46 160.07 119.81 160.20 118.88 L 160.33 117.88 C 160.46 116.95 159.81 116.10 158.87 115.97 C 157.94 115.84 157.09 116.50 156.96 117.43 Z M 156.83 118.47 L 156.72 119.44 C 156.62 120.37 157.29 121.20 158.22 121.31 C 159.15 121.41 159.98 120.74 160.08 119.81 L 160.19 118.84 C 160.29 117.91 159.62 117.07 158.70 116.97 C 157.77 116.87 156.93 117.54 156.83 118.47 Z M 156.73 119.48 L 156.65 120.45 C 156.56 121.37 157.24 122.19 158.17 122.27 C 159.09 122.36 159.90 121.67 159.99 120.75 L 160.08 119.78 C 160.16 118.85 159.48 118.04 158.55 117.95 C 157.63 117.87 156.82 118.55 156.73 119.48 Z M 156.66 120.47 L 156.58 121.41 C 156.51 122.32 157.20 123.13 158.12 123.20 C 159.03 123.27 159.83 122.58 159.90 121.66 L 159.98 120.73 C 160.05 119.81 159.36 119.01 158.44 118.94 C 157.53 118.87 156.73 119.56 156.66 120.47 Z M 156.60 121.42 L 156.53 122.35 C 156.47 123.26 157.16 124.05 158.07 124.11 C 158.98 124.17 159.77 123.48 159.83 122.57 L 159.89 121.65 C 159.95 120.74 159.27 119.95 158.36 119.89 C 157.44 119.83 156.66 120.51 156.60 121.42 Z M 156.54 122.37 L 156.49 123.34 C 156.44 124.25 157.13 125.02 158.04 125.07 C 158.94 125.12 159.71 124.43 159.76 123.53 L 159.82 122.55 C 159.87 121.65 159.18 120.88 158.27 120.83 C 157.37 120.77 156.60 121.47 156.54 122.37 Z M 156.50 123.36 L 156.46 124.39 C 156.42 125.29 157.11 126.05 158.01 126.09 C 158.91 126.13 159.67 125.43 159.71 124.54 L 159.75 123.51 C 159.79 122.61 159.10 121.85 158.20 121.81 C 157.30 121.77 156.54 122.46 156.50 123.36 Z M 156.47 124.41 L 156.43 125.52 C 156.41 126.41 157.10 127.15 157.99 127.18 C 158.89 127.21 159.63 126.51 159.66 125.62 L 159.69 124.52 C 159.72 123.63 159.02 122.88 158.13 122.85 C 157.24 122.82 156.50 123.52 156.47 124.41 Z M 156.45 125.53 L 156.43 126.53 C 156.41 127.41 157.11 128.14 157.99 128.16 C 158.88 128.18 159.61 127.48 159.63 126.59 L 159.65 125.60 C 159.66 124.72 158.96 123.99 158.08 123.97 C 157.20 123.95 156.46 124.65 156.45 125.53 Z M 156.44 126.54 L 156.42 127.54 C 156.41 128.42 157.11 129.14 157.99 129.15 C 158.87 129.16 159.59 128.46 159.60 127.58 L 159.61 126.58 C 159.63 125.70 158.92 124.98 158.05 124.97 C 157.17 124.96 156.45 125.66 156.44 126.54 Z M 156.44 127.55 L 156.43 128.58 C 156.42 129.45 157.13 130.16 158.00 130.16 C 158.87 130.17 159.58 129.47 159.58 128.60 L 159.59 127.57 C 159.60 126.70 158.89 125.99 158.02 125.99 C 157.15 125.98 156.44 126.68 156.44 127.55 Z M 156.44 128.59 L 156.44 129.61 C 156.44 130.48 157.14 131.18 158.01 131.18 C 158.87 131.18 159.57 130.48 159.57 129.61 L 159.57 128.59 C 159.57 127.72 158.87 127.02 158.01 127.02 C 157.14 127.02 156.44 127.72 156.44 128.59 Z M 156.45 129.62 L 156.46 130.63 C 156.46 131.49 157.16 132.18 158.02 132.17 C 158.88 132.17 159.57 131.47 159.57 130.61 L 159.56 129.61 C 159.56 128.75 158.86 128.05 158.00 128.06 C 157.14 128.06 156.45 128.76 156.45 129.62 Z M 156.47 130.63 L 156.48 131.61 C 156.49 132.46 157.18 133.15 158.04 133.14 C 158.89 133.13 159.57 132.43 159.56 131.58 L 159.55 130.60 C 159.55 129.75 158.85 129.07 158.00 129.08 C 157.14 129.09 156.46 129.78 156.47 130.63 Z M 156.49 131.62 L 156.51 132.77 C 156.53 133.61 157.22 134.28 158.06 134.27 C 158.91 134.25 159.58 133.56 159.57 132.72 L 159.55 131.57 C 159.53 130.73 158.84 130.05 158.00 130.07 C 157.15 130.08 156.48 130.78 156.49 131.62 Z M 156.53 132.78 L 156.56 133.84 C 156.59 134.67 157.28 135.33 158.11 135.31 C 158.95 135.28 159.60 134.59 159.58 133.76 L 159.55 132.70 C 159.52 131.87 158.83 131.21 158.00 131.23 C 157.16 131.26 156.51 131.95 156.53 132.78 Z M 156.58 133.87 L 156.63 134.85 C 156.67 135.67 157.37 136.30 158.19 136.26 C 159.01 136.22 159.64 135.52 159.60 134.70 L 159.56 133.73 C 159.52 132.90 158.82 132.27 158.00 132.31 C 157.18 132.35 156.54 133.05 156.58 133.87 Z M 156.65 134.89 L 156.72 135.79 C 156.79 136.59 157.50 137.20 158.30 137.13 C 159.11 137.07 159.72 136.36 159.65 135.56 L 159.58 134.66 C 159.52 133.85 158.81 133.25 158.00 133.31 C 157.19 133.37 156.59 134.08 156.65 134.89 Z M 156.75 135.85 L 156.87 136.80 C 156.96 137.60 157.69 138.16 158.48 138.06 C 159.28 137.97 159.85 137.24 159.75 136.44 L 159.63 135.49 C 159.53 134.70 158.81 134.13 158.01 134.23 C 157.21 134.33 156.65 135.05 156.75 135.85 Z M 156.89 136.88 L 157.07 137.90 C 157.21 138.68 157.96 139.20 158.75 139.06 C 159.53 138.92 160.05 138.17 159.91 137.39 L 159.72 136.37 C 159.58 135.58 158.83 135.06 158.05 135.20 C 157.27 135.35 156.75 136.10 156.89 136.88 Z M 157.09 137.96 L 157.31 138.91 C 157.49 139.68 158.26 140.17 159.03 139.99 C 159.80 139.81 160.28 139.04 160.11 138.27 L 159.89 137.32 C 159.71 136.55 158.94 136.07 158.17 136.24 C 157.40 136.42 156.91 137.19 157.09 137.96 Z M 157.32 138.94 L 157.54 139.78 C 157.74 140.55 158.51 141.01 159.28 140.81 C 160.04 140.62 160.50 139.84 160.31 139.07 L 160.09 138.23 C 159.90 137.47 159.12 137.01 158.35 137.21 C 157.59 137.40 157.13 138.18 157.32 138.94 Z"
      fill="black"
      fill-rule="nonzero" /><path d="M 145.96 122.16 L 144.95 122.16 C 144.10 122.16 143.42 122.84 143.42 123.69 C 143.42 124.53 144.10 125.22 144.95 125.22 L 145.96 125.22 C 146.81 125.21 147.49 124.53 147.49 123.68 C 147.49 122.84 146.80 122.16 145.96 122.16 Z M 144.94 122.16 L 143.93 122.17 C 143.09 122.17 142.41 122.86 142.41 123.71 C 142.42 124.55 143.11 125.23 143.95 125.22 L 144.96 125.22 C 145.80 125.21 146.48 124.52 146.48 123.68 C 146.47 122.83 145.78 122.15 144.94 122.16 Z M 143.91 122.17 L 142.92 122.19 C 142.07 122.21 141.40 122.91 141.42 123.75 C 141.44 124.59 142.14 125.26 142.98 125.25 L 143.98 125.22 C 144.82 125.21 145.49 124.51 145.47 123.66 C 145.45 122.82 144.75 122.15 143.91 122.17 Z M 142.88 122.19 L 141.61 122.25 C 140.76 122.28 140.11 123.00 140.15 123.84 C 140.19 124.69 140.90 125.34 141.75 125.30 L 143.02 125.25 C 143.86 125.21 144.52 124.49 144.48 123.65 C 144.44 122.80 143.73 122.15 142.88 122.19 Z M 141.60 122.25 L 140.56 122.30 C 139.72 122.35 139.07 123.07 139.12 123.91 C 139.16 124.76 139.88 125.40 140.73 125.36 L 141.76 125.30 C 142.60 125.26 143.25 124.54 143.21 123.69 C 143.16 122.85 142.44 122.20 141.60 122.25 Z M 141.64 122.67 L 141.60 122.64 C 140.96 122.09 140.00 122.16 139.45 122.80 C 138.90 123.44 138.97 124.40 139.61 124.95 L 139.65 124.99 C 140.29 125.54 141.25 125.47 141.80 124.83 C 142.36 124.19 142.28 123.22 141.64 122.67 Z M 140.92 125.29 L 141.50 125.17 C 142.33 125.00 142.86 124.19 142.69 123.36 C 142.52 122.54 141.71 122.01 140.88 122.18 L 140.30 122.30 C 139.47 122.47 138.94 123.28 139.11 124.11 C 139.28 124.93 140.09 125.46 140.92 125.29 Z M 141.56 125.16 L 142.62 124.90 C 143.44 124.69 143.94 123.87 143.74 123.05 C 143.54 122.23 142.71 121.73 141.89 121.93 L 140.83 122.19 C 140.01 122.39 139.51 123.22 139.71 124.04 C 139.91 124.86 140.74 125.36 141.56 125.16 Z M 142.70 124.87 L 144.19 124.42 C 144.99 124.17 145.44 123.32 145.20 122.51 C 144.95 121.71 144.10 121.25 143.29 121.50 L 141.81 121.95 C 141.00 122.20 140.55 123.05 140.80 123.86 C 141.04 124.66 141.90 125.12 142.70 124.87 Z M 144.25 124.39 L 145.19 124.05 C 145.98 123.77 146.39 122.90 146.11 122.11 C 145.83 121.32 144.96 120.91 144.17 121.19 L 143.23 121.53 C 142.44 121.81 142.02 122.68 142.31 123.47 C 142.59 124.26 143.46 124.67 144.25 124.39 Z M 145.22 124.03 L 146.13 123.68 C 146.91 123.38 147.29 122.51 146.99 121.73 C 146.69 120.95 145.82 120.56 145.04 120.86 L 144.13 121.21 C 143.36 121.51 142.97 122.39 143.27 123.17 C 143.57 123.95 144.45 124.33 145.22 124.03 Z M 146.15 123.67 L 147.09 123.28 C 147.86 122.97 148.23 122.10 147.92 121.33 C 147.61 120.56 146.73 120.18 145.96 120.50 L 145.02 120.88 C 144.25 121.19 143.88 122.07 144.19 122.84 C 144.50 123.61 145.38 123.98 146.15 123.67 Z M 147.11 123.27 L 148.07 122.87 C 148.83 122.55 149.19 121.67 148.87 120.91 C 148.56 120.15 147.68 119.79 146.92 120.11 L 145.95 120.51 C 145.19 120.83 144.83 121.71 145.15 122.47 C 145.47 123.23 146.34 123.59 147.11 123.27 Z M 148.08 122.85 L 149.05 122.44 C 149.80 122.11 150.15 121.24 149.83 120.48 C 149.51 119.73 148.63 119.38 147.88 119.70 L 146.91 120.12 C 146.15 120.44 145.80 121.32 146.13 122.07 C 146.45 122.83 147.32 123.18 148.08 122.85 Z M 149.05 122.43 L 150.00 122.01 C 150.75 121.69 151.10 120.82 150.77 120.07 C 150.44 119.32 149.57 118.97 148.82 119.30 L 147.87 119.71 C 147.12 120.04 146.78 120.91 147.11 121.66 C 147.43 122.41 148.30 122.75 149.05 122.43 Z M 150.00 122.00 L 150.92 121.61 C 151.66 121.28 152.00 120.41 151.67 119.67 C 151.35 118.92 150.48 118.58 149.74 118.91 L 148.82 119.31 C 148.08 119.64 147.74 120.50 148.07 121.25 C 148.39 121.99 149.26 122.33 150.00 122.00 Z M 150.91 121.60 L 151.88 121.17 C 152.62 120.85 152.96 119.99 152.64 119.25 C 152.31 118.51 151.45 118.17 150.71 118.49 L 149.74 118.92 C 149.00 119.24 148.66 120.10 148.99 120.84 C 149.31 121.58 150.17 121.92 150.91 121.60 Z M 151.88 121.17 L 152.93 120.71 C 153.67 120.39 154.01 119.53 153.69 118.79 C 153.37 118.06 152.51 117.72 151.77 118.04 L 150.72 118.50 C 149.98 118.82 149.64 119.68 149.96 120.41 C 150.28 121.15 151.14 121.49 151.88 121.17 Z M 152.92 120.71 L 153.88 120.29 C 154.61 119.98 154.95 119.12 154.64 118.39 C 154.32 117.65 153.47 117.32 152.73 117.63 L 151.78 118.04 C 151.04 118.36 150.70 119.21 151.02 119.95 C 151.34 120.68 152.19 121.02 152.92 120.71 Z M 153.87 120.29 L 154.75 119.91 C 155.48 119.60 155.82 118.75 155.51 118.02 C 155.20 117.29 154.35 116.95 153.62 117.26 L 152.74 117.64 C 152.00 117.95 151.67 118.80 151.98 119.53 C 152.29 120.26 153.14 120.60 153.87 120.29 Z M 154.75 119.91 L 155.58 119.56 C 156.31 119.24 156.65 118.40 156.33 117.67 C 156.02 116.94 155.18 116.60 154.45 116.91 L 153.62 117.27 C 152.89 117.58 152.55 118.42 152.86 119.15 C 153.17 119.88 154.02 120.22 154.75 119.91 Z M 155.57 119.55 L 156.38 119.21 C 157.10 118.90 157.44 118.06 157.13 117.33 C 156.82 116.61 155.98 116.27 155.26 116.58 L 154.46 116.92 C 153.73 117.23 153.39 118.07 153.70 118.79 C 154.01 119.52 154.85 119.86 155.57 119.55 Z M 156.37 119.21 L 156.44 119.18 C 157.16 118.87 157.50 118.03 157.19 117.31 C 156.89 116.58 156.05 116.25 155.32 116.55 L 155.26 116.58 C 154.53 116.89 154.20 117.73 154.50 118.45 C 154.81 119.17 155.65 119.51 156.37 119.21 Z"
      fill="black"
      fill-rule="nonzero" /><path d="M 147.86 131.01 L 146.56 131.09 C 145.71 131.13 145.06 131.86 145.11 132.71 C 145.16 133.56 145.88 134.21 146.73 134.16 L 148.03 134.09 C 148.88 134.04 149.53 133.31 149.48 132.46 C 149.43 131.61 148.71 130.96 147.86 131.01 Z M 146.71 131.07 L 145.69 131.03 C 144.83 130.99 144.11 131.66 144.07 132.52 C 144.04 133.38 144.71 134.11 145.57 134.14 L 146.58 134.18 C 147.44 134.22 148.17 133.55 148.20 132.69 C 148.24 131.83 147.57 131.10 146.71 131.07 Z M 146.45 131.24 L 146.01 130.97 C 145.27 130.52 144.30 130.75 143.85 131.50 C 143.39 132.24 143.63 133.21 144.37 133.66 L 144.81 133.93 C 145.56 134.38 146.53 134.14 146.98 133.40 C 147.43 132.66 147.19 131.69 146.45 131.24 Z M 146.61 133.02 L 146.88 132.48 C 147.27 131.70 146.96 130.75 146.17 130.35 C 145.39 129.96 144.44 130.28 144.05 131.06 L 143.78 131.61 C 143.38 132.39 143.70 133.34 144.48 133.73 C 145.26 134.12 146.21 133.81 146.61 133.02 Z M 146.54 132.93 L 147.35 132.18 C 147.99 131.58 148.03 130.58 147.43 129.94 C 146.84 129.30 145.84 129.26 145.20 129.86 L 144.39 130.61 C 143.75 131.21 143.71 132.21 144.31 132.85 C 144.90 133.49 145.90 133.52 146.54 132.93 Z M 147.24 132.27 L 148.25 131.49 C 148.95 130.95 149.07 129.96 148.54 129.26 C 148.00 128.57 147.01 128.45 146.32 128.98 L 145.30 129.76 C 144.61 130.30 144.49 131.29 145.02 131.99 C 145.56 132.68 146.55 132.80 147.24 132.27 Z M 148.21 131.51 L 148.97 130.97 C 149.68 130.45 149.83 129.47 149.32 128.76 C 148.81 128.05 147.82 127.89 147.11 128.41 L 146.36 128.95 C 145.65 129.47 145.49 130.45 146.00 131.16 C 146.52 131.87 147.50 132.03 148.21 131.51 Z M 148.94 130.98 L 149.75 130.42 C 150.46 129.93 150.64 128.95 150.15 128.23 C 149.65 127.52 148.67 127.34 147.95 127.83 L 147.15 128.39 C 146.43 128.88 146.25 129.87 146.75 130.58 C 147.24 131.30 148.22 131.48 148.94 130.98 Z M 149.71 130.44 L 150.57 129.88 C 151.29 129.40 151.49 128.43 151.01 127.70 C 150.53 126.98 149.56 126.78 148.83 127.25 L 147.98 127.82 C 147.26 128.29 147.06 129.27 147.54 129.99 C 148.02 130.72 148.99 130.92 149.71 130.44 Z M 150.53 129.89 L 151.42 129.33 C 152.16 128.87 152.38 127.90 151.92 127.17 C 151.45 126.44 150.49 126.22 149.75 126.68 L 148.86 127.24 C 148.13 127.70 147.91 128.67 148.37 129.40 C 148.83 130.13 149.80 130.35 150.53 129.89 Z M 151.39 129.35 L 152.30 128.80 C 153.04 128.36 153.28 127.40 152.83 126.66 C 152.39 125.92 151.43 125.68 150.69 126.12 L 149.79 126.67 C 149.05 127.11 148.81 128.07 149.25 128.81 C 149.69 129.55 150.65 129.79 151.39 129.35 Z M 152.26 128.81 L 153.17 128.30 C 153.91 127.87 154.17 126.92 153.75 126.18 C 153.32 125.43 152.37 125.17 151.63 125.60 L 150.72 126.12 C 149.98 126.54 149.72 127.49 150.15 128.23 C 150.57 128.98 151.52 129.24 152.26 128.81 Z M 153.14 128.30 L 154.05 127.80 C 154.79 127.40 155.07 126.46 154.66 125.71 C 154.25 124.96 153.31 124.69 152.57 125.10 L 151.66 125.59 C 150.91 126.00 150.64 126.94 151.05 127.69 C 151.46 128.43 152.39 128.71 153.14 128.30 Z M 154.02 127.81 L 154.91 127.34 C 155.66 126.95 155.94 126.02 155.55 125.27 C 155.16 124.52 154.23 124.23 153.48 124.63 L 152.59 125.10 C 151.84 125.49 151.56 126.42 151.95 127.16 C 152.34 127.91 153.27 128.20 154.02 127.81 Z M 154.88 127.34 L 155.73 126.91 C 156.48 126.53 156.78 125.62 156.40 124.87 C 156.03 124.12 155.11 123.82 154.36 124.20 L 153.51 124.63 C 152.76 125.01 152.46 125.92 152.84 126.67 C 153.21 127.42 154.13 127.72 154.88 127.34 Z M 155.70 126.91 L 156.61 126.48 C 157.36 126.11 157.68 125.21 157.31 124.46 C 156.95 123.71 156.05 123.39 155.30 123.76 L 154.39 124.19 C 153.64 124.56 153.32 125.46 153.69 126.21 C 154.05 126.96 154.95 127.28 155.70 126.91 Z M 156.57 126.48 L 157.52 126.05 C 158.28 125.71 158.61 124.82 158.27 124.07 C 157.93 123.32 157.05 122.98 156.30 123.32 L 155.34 123.75 C 154.59 124.09 154.25 124.98 154.59 125.73 C 154.93 126.48 155.82 126.82 156.57 126.48 Z M 157.46 126.06 L 158.37 125.69 C 159.12 125.38 159.49 124.52 159.18 123.76 C 158.87 123.01 158.01 122.64 157.26 122.95 L 156.35 123.32 C 155.60 123.62 155.23 124.49 155.54 125.24 C 155.85 126.00 156.71 126.36 157.46 126.06 Z M 158.30 125.70 L 159.18 125.38 C 159.94 125.11 160.34 124.28 160.07 123.52 C 159.81 122.76 158.97 122.36 158.21 122.63 L 157.32 122.94 C 156.56 123.21 156.17 124.05 156.43 124.81 C 156.70 125.57 157.54 125.97 158.30 125.70 Z M 159.11 125.39 L 160.04 125.12 C 160.80 124.89 161.24 124.08 161.01 123.31 C 160.78 122.55 159.97 122.11 159.20 122.34 L 158.28 122.62 C 157.52 122.85 157.08 123.66 157.31 124.42 C 157.54 125.19 158.35 125.62 159.11 125.39 Z M 159.98 125.12 L 160.94 124.88 C 161.71 124.68 162.17 123.89 161.97 123.12 C 161.78 122.35 160.99 121.89 160.22 122.09 L 159.26 122.34 C 158.49 122.53 158.03 123.32 158.23 124.09 C 158.42 124.86 159.21 125.32 159.98 125.12 Z M 160.90 124.88 L 161.88 124.65 C 162.66 124.48 163.14 123.71 162.96 122.93 C 162.78 122.16 162.01 121.68 161.24 121.86 L 160.26 122.09 C 159.49 122.26 159.01 123.03 159.18 123.80 C 159.36 124.58 160.13 125.06 160.90 124.88 Z M 161.86 124.65 L 162.86 124.44 C 163.63 124.27 164.12 123.51 163.95 122.74 C 163.78 121.97 163.02 121.48 162.25 121.64 L 161.26 121.86 C 160.49 122.03 160.00 122.79 160.17 123.56 C 160.33 124.33 161.09 124.82 161.86 124.65 Z M 162.85 124.43 L 162.93 124.42 C 163.70 124.25 164.19 123.50 164.02 122.73 C 163.86 121.96 163.10 121.47 162.33 121.63 L 162.26 121.65 C 161.49 121.81 161.00 122.57 161.16 123.34 C 161.33 124.11 162.08 124.60 162.85 124.43 Z"
      fill="black"
      fill-rule="nonzero" /><path d="M 112.51 155.18 L 111.14 155.40 C 110.27 155.54 109.67 156.35 109.81 157.22 C 109.95 158.09 110.77 158.69 111.64 158.55 L 113.00 158.33 C 113.87 158.20 114.47 157.38 114.33 156.51 C 114.19 155.64 113.38 155.05 112.51 155.18 Z M 111.14 155.39 L 109.96 155.57 C 109.08 155.71 108.49 156.53 108.62 157.41 C 108.76 158.29 109.58 158.88 110.46 158.75 L 111.64 158.56 C 112.51 158.43 113.11 157.60 112.97 156.73 C 112.84 155.85 112.01 155.25 111.14 155.39 Z M 109.97 155.56 L 109.17 155.68 C 108.29 155.82 107.68 156.64 107.82 157.53 C 107.95 158.41 108.78 159.02 109.66 158.88 L 110.46 158.76 C 111.34 158.62 111.95 157.80 111.81 156.91 C 111.68 156.03 110.85 155.42 109.97 155.56 Z M 109.23 155.66 L 109.02 155.69 C 108.13 155.79 107.48 156.60 107.59 157.49 C 107.69 158.39 108.50 159.03 109.39 158.92 L 109.60 158.90 C 110.50 158.80 111.14 157.99 111.04 157.09 C 110.93 156.20 110.12 155.56 109.23 155.66 Z M 109.55 158.91 L 110.19 158.77 C 111.07 158.58 111.64 157.71 111.45 156.83 C 111.26 155.94 110.39 155.38 109.51 155.57 L 108.87 155.70 C 107.98 155.89 107.42 156.76 107.60 157.65 C 107.79 158.53 108.66 159.10 109.55 158.91 Z M 110.23 158.77 L 111.50 158.47 C 112.38 158.26 112.93 157.37 112.72 156.49 C 112.51 155.60 111.62 155.06 110.74 155.27 L 109.47 155.57 C 108.58 155.78 108.04 156.66 108.25 157.55 C 108.46 158.43 109.34 158.98 110.23 158.77 Z M 111.56 158.46 L 112.75 158.12 C 113.63 157.88 114.14 156.96 113.89 156.09 C 113.64 155.21 112.73 154.70 111.86 154.95 L 110.67 155.28 C 109.79 155.53 109.28 156.44 109.53 157.31 C 109.77 158.19 110.69 158.70 111.56 158.46 Z M 112.81 158.11 L 113.77 157.80 C 114.64 157.52 115.12 156.59 114.84 155.72 C 114.56 154.85 113.63 154.37 112.76 154.65 L 111.80 154.96 C 110.93 155.24 110.45 156.17 110.73 157.04 C 111.01 157.91 111.94 158.39 112.81 158.11 Z M 113.81 157.79 L 114.78 157.45 C 115.64 157.15 116.10 156.21 115.80 155.35 C 115.50 154.49 114.56 154.03 113.70 154.33 L 112.73 154.66 C 111.87 154.96 111.41 155.90 111.71 156.76 C 112.00 157.63 112.94 158.08 113.81 157.79 Z M 114.81 157.44 L 115.76 157.09 C 116.62 156.78 117.06 155.83 116.75 154.98 C 116.43 154.12 115.49 153.68 114.63 153.99 L 113.67 154.34 C 112.82 154.65 112.38 155.60 112.69 156.46 C 113.00 157.31 113.95 157.75 114.81 157.44 Z M 115.78 157.09 L 116.69 156.74 C 117.54 156.42 117.97 155.47 117.65 154.61 C 117.32 153.76 116.37 153.33 115.51 153.65 L 114.61 154.00 C 113.75 154.32 113.32 155.27 113.65 156.13 C 113.97 156.98 114.93 157.41 115.78 157.09 Z M 116.70 156.74 L 117.70 156.35 C 118.55 156.02 118.97 155.06 118.63 154.21 C 118.30 153.36 117.34 152.94 116.49 153.27 L 115.50 153.66 C 114.65 153.99 114.23 154.95 114.56 155.80 C 114.89 156.65 115.85 157.07 116.70 156.74 Z M 117.71 156.35 L 118.65 155.97 C 119.50 155.63 119.91 154.67 119.57 153.82 C 119.24 152.97 118.27 152.56 117.43 152.90 L 116.48 153.27 C 115.63 153.61 115.22 154.57 115.56 155.42 C 115.90 156.27 116.86 156.68 117.71 156.35 Z M 118.66 155.97 L 119.55 155.61 C 120.39 155.27 120.80 154.31 120.46 153.46 C 120.12 152.61 119.16 152.20 118.31 152.54 L 117.42 152.90 C 116.58 153.24 116.16 154.20 116.50 155.05 C 116.85 155.90 117.81 156.31 118.66 155.97 Z M 119.54 155.61 L 120.42 155.26 C 121.26 154.93 121.68 153.97 121.34 153.12 C 121.00 152.27 120.04 151.85 119.19 152.19 L 118.32 152.54 C 117.47 152.88 117.06 153.84 117.39 154.69 C 117.73 155.53 118.69 155.95 119.54 155.61 Z M 120.40 155.27 L 121.30 154.92 C 122.16 154.59 122.58 153.63 122.25 152.78 C 121.92 151.93 120.96 151.51 120.11 151.84 L 119.21 152.18 C 118.36 152.51 117.93 153.47 118.26 154.32 C 118.59 155.18 119.55 155.60 120.40 155.27 Z M 121.29 154.93 L 122.22 154.58 C 123.07 154.25 123.51 153.30 123.18 152.45 C 122.86 151.59 121.91 151.16 121.05 151.48 L 120.13 151.83 C 119.27 152.15 118.84 153.11 119.16 153.96 C 119.48 154.81 120.44 155.25 121.29 154.93 Z M 122.21 154.58 L 123.16 154.23 C 124.01 153.92 124.45 152.97 124.14 152.11 C 123.83 151.25 122.88 150.81 122.02 151.13 L 121.07 151.48 C 120.21 151.79 119.77 152.74 120.08 153.60 C 120.40 154.46 121.35 154.90 122.21 154.58 Z M 123.15 154.24 L 124.10 153.89 C 124.96 153.58 125.41 152.64 125.10 151.78 C 124.79 150.92 123.85 150.47 122.99 150.78 L 122.03 151.12 C 121.17 151.43 120.72 152.38 121.03 153.24 C 121.34 154.10 122.29 154.54 123.15 154.24 Z M 124.10 153.89 L 125.01 153.57 C 125.87 153.27 126.32 152.32 126.02 151.46 C 125.71 150.60 124.77 150.15 123.91 150.45 L 122.99 150.78 C 122.13 151.08 121.68 152.03 121.99 152.89 C 122.29 153.75 123.24 154.20 124.10 153.89 Z M 125.00 153.57 L 125.94 153.25 C 126.80 152.94 127.25 152.00 126.95 151.14 C 126.65 150.28 125.70 149.82 124.84 150.13 L 123.91 150.45 C 123.05 150.76 122.60 151.70 122.90 152.56 C 123.20 153.42 124.14 153.87 125.00 153.57 Z M 125.94 153.25 L 126.89 152.91 C 127.75 152.61 128.21 151.66 127.91 150.80 C 127.60 149.94 126.66 149.49 125.80 149.79 L 124.84 150.13 C 123.98 150.43 123.53 151.37 123.83 152.23 C 124.13 153.09 125.08 153.55 125.94 153.25 Z M 126.90 152.91 L 127.87 152.56 C 128.73 152.26 129.19 151.32 128.88 150.45 C 128.58 149.59 127.63 149.14 126.77 149.45 L 125.80 149.79 C 124.93 150.10 124.48 151.04 124.79 151.90 C 125.09 152.76 126.04 153.21 126.90 152.91 Z M 127.88 152.56 L 128.80 152.23 C 129.66 151.93 130.11 150.98 129.80 150.12 C 129.49 149.26 128.55 148.81 127.69 149.12 L 126.77 149.45 C 125.91 149.76 125.46 150.70 125.77 151.56 C 126.07 152.42 127.02 152.87 127.88 152.56 Z M 128.80 152.23 L 129.74 151.89 C 130.60 151.59 131.04 150.64 130.74 149.78 C 130.43 148.92 129.48 148.48 128.63 148.79 L 127.69 149.12 C 126.83 149.43 126.38 150.38 126.69 151.23 C 127.00 152.09 127.94 152.54 128.80 152.23 Z M 129.74 151.89 L 130.69 151.55 C 131.55 151.24 131.99 150.30 131.69 149.44 C 131.38 148.58 130.43 148.14 129.58 148.45 L 128.63 148.79 C 127.77 149.09 127.32 150.04 127.63 150.90 C 127.94 151.75 128.88 152.20 129.74 151.89 Z M 130.69 151.55 L 131.64 151.21 C 132.50 150.90 132.95 149.96 132.64 149.10 C 132.33 148.25 131.39 147.80 130.53 148.11 L 129.58 148.45 C 128.72 148.75 128.27 149.70 128.58 150.55 C 128.89 151.41 129.83 151.86 130.69 151.55 Z M 131.64 151.21 L 132.59 150.87 C 133.45 150.57 133.90 149.63 133.59 148.77 C 133.29 147.91 132.35 147.47 131.49 147.77 L 130.54 148.11 C 129.68 148.41 129.23 149.35 129.53 150.21 C 129.84 151.06 130.78 151.51 131.64 151.21 Z M 132.58 150.87 L 133.53 150.54 C 134.39 150.24 134.84 149.30 134.54 148.44 C 134.24 147.59 133.30 147.14 132.44 147.44 L 131.49 147.77 C 130.64 148.07 130.19 149.01 130.49 149.87 C 130.79 150.72 131.73 151.17 132.58 150.87 Z M 133.53 150.54 L 134.47 150.21 C 135.33 149.91 135.78 148.97 135.48 148.12 C 135.18 147.26 134.24 146.81 133.39 147.11 L 132.44 147.44 C 131.59 147.74 131.13 148.68 131.43 149.53 C 131.73 150.39 132.67 150.84 133.53 150.54 Z M 134.47 150.21 L 135.41 149.88 C 136.27 149.58 136.72 148.64 136.42 147.78 C 136.12 146.93 135.18 146.48 134.32 146.78 L 133.38 147.11 C 132.53 147.41 132.08 148.35 132.38 149.20 C 132.68 150.06 133.62 150.51 134.47 150.21 Z M 135.42 149.87 L 136.36 149.54 C 137.21 149.23 137.66 148.30 137.35 147.44 C 137.05 146.59 136.11 146.14 135.26 146.45 L 134.32 146.78 C 133.46 147.09 133.02 148.03 133.32 148.88 C 133.63 149.73 134.57 150.18 135.42 149.87 Z M 136.36 149.53 L 137.30 149.19 C 138.15 148.89 138.59 147.95 138.28 147.10 C 137.97 146.25 137.03 145.81 136.18 146.12 L 135.25 146.45 C 134.40 146.76 133.96 147.70 134.27 148.55 C 134.58 149.40 135.51 149.84 136.36 149.53 Z M 137.30 149.19 L 138.24 148.85 C 139.09 148.54 139.52 147.60 139.21 146.75 C 138.90 145.90 137.97 145.47 137.12 145.78 L 136.18 146.12 C 135.33 146.43 134.90 147.37 135.21 148.22 C 135.52 149.06 136.46 149.50 137.30 149.19 Z M 138.24 148.84 L 139.18 148.50 C 140.02 148.19 140.46 147.26 140.15 146.41 C 139.84 145.56 138.91 145.13 138.06 145.44 L 137.12 145.78 C 136.27 146.09 135.84 147.03 136.15 147.87 C 136.46 148.72 137.39 149.15 138.24 148.84 Z M 139.17 148.50 L 140.12 148.16 C 140.96 147.85 141.40 146.92 141.09 146.08 C 140.79 145.23 139.86 144.79 139.01 145.10 L 138.07 145.44 C 137.22 145.74 136.78 146.68 137.09 147.52 C 137.39 148.37 138.33 148.80 139.17 148.50 Z M 140.10 148.16 L 141.05 147.83 C 141.89 147.53 142.34 146.60 142.04 145.75 C 141.74 144.91 140.81 144.47 139.96 144.76 L 139.02 145.10 C 138.18 145.40 137.73 146.32 138.03 147.17 C 138.33 148.02 139.26 148.46 140.10 148.16 Z M 141.04 147.82 L 141.98 147.50 C 142.82 147.21 143.27 146.28 142.98 145.44 C 142.68 144.59 141.76 144.15 140.92 144.44 L 139.98 144.76 C 139.13 145.06 138.68 145.98 138.98 146.83 C 139.27 147.67 140.19 148.12 141.04 147.82 Z M 141.97 147.50 L 142.92 147.17 C 143.76 146.88 144.21 145.96 143.92 145.12 C 143.63 144.28 142.71 143.83 141.87 144.12 L 140.92 144.44 C 140.08 144.73 139.63 145.65 139.92 146.49 C 140.21 147.34 141.13 147.79 141.97 147.50 Z M 142.91 147.17 L 143.86 146.84 C 144.70 146.56 145.15 145.64 144.86 144.80 C 144.58 143.96 143.66 143.51 142.82 143.80 L 141.87 144.12 C 141.03 144.41 140.58 145.32 140.87 146.17 C 141.16 147.01 142.07 147.46 142.91 147.17 Z M 143.87 146.84 L 144.82 146.51 C 145.65 146.22 146.10 145.31 145.81 144.47 C 145.52 143.63 144.60 143.18 143.77 143.47 L 142.82 143.80 C 141.98 144.09 141.53 145.01 141.82 145.84 C 142.11 146.68 143.03 147.13 143.87 146.84 Z M 144.82 146.50 L 145.77 146.17 C 146.60 145.88 147.04 144.96 146.75 144.13 C 146.46 143.29 145.54 142.86 144.71 143.15 L 143.76 143.48 C 142.93 143.77 142.49 144.69 142.78 145.52 C 143.07 146.36 143.99 146.80 144.82 146.50 Z M 145.77 146.16 L 146.72 145.83 C 147.55 145.53 147.98 144.62 147.69 143.79 C 147.39 142.96 146.48 142.52 145.65 142.82 L 144.70 143.15 C 143.87 143.45 143.44 144.36 143.73 145.19 C 144.03 146.02 144.94 146.46 145.77 146.16 Z M 146.72 145.82 L 147.66 145.48 C 148.49 145.19 148.92 144.28 148.63 143.45 C 148.33 142.62 147.42 142.19 146.59 142.49 L 145.65 142.82 C 144.82 143.12 144.39 144.03 144.68 144.86 C 144.98 145.69 145.89 146.12 146.72 145.82 Z M 147.66 145.48 L 148.60 145.14 C 149.42 144.85 149.85 143.94 149.56 143.12 C 149.26 142.29 148.36 141.86 147.53 142.16 L 146.59 142.49 C 145.77 142.79 145.34 143.69 145.63 144.52 C 145.93 145.34 146.84 145.77 147.66 145.48 Z M 148.59 145.14 L 149.53 144.81 C 150.35 144.52 150.79 143.61 150.49 142.79 C 150.20 141.97 149.30 141.54 148.47 141.83 L 147.54 142.16 C 146.71 142.45 146.28 143.36 146.58 144.18 C 146.87 145.00 147.77 145.43 148.59 145.14 Z M 149.52 144.81 L 150.47 144.48 C 151.29 144.19 151.72 143.29 151.43 142.47 C 151.14 141.65 150.24 141.21 149.42 141.50 L 148.48 141.83 C 147.66 142.12 147.23 143.02 147.52 143.84 C 147.80 144.66 148.70 145.09 149.52 144.81 Z M 150.46 144.47 L 151.40 144.14 C 152.22 143.86 152.65 142.96 152.37 142.14 C 152.08 141.33 151.19 140.89 150.37 141.18 L 149.43 141.51 C 148.61 141.79 148.18 142.69 148.46 143.50 C 148.75 144.32 149.64 144.76 150.46 144.47 Z M 151.40 144.14 L 152.34 143.81 C 153.16 143.53 153.59 142.64 153.30 141.82 C 153.02 141.00 152.13 140.57 151.31 140.86 L 150.37 141.18 C 149.55 141.47 149.12 142.36 149.41 143.17 C 149.69 143.99 150.58 144.42 151.40 144.14 Z M 152.34 143.81 L 153.29 143.48 C 154.10 143.19 154.53 142.31 154.25 141.49 C 153.97 140.68 153.08 140.25 152.27 140.53 L 151.31 140.86 C 150.50 141.14 150.07 142.03 150.35 142.85 C 150.64 143.66 151.52 144.09 152.34 143.81 Z M 153.29 143.47 L 154.25 143.13 C 155.06 142.85 155.49 141.97 155.21 141.16 C 154.92 140.35 154.04 139.92 153.23 140.20 L 152.27 140.54 C 151.46 140.82 151.03 141.71 151.31 142.51 C 151.59 143.32 152.48 143.75 153.29 143.47 Z M 154.25 143.13 L 155.21 142.79 C 156.02 142.51 156.45 141.63 156.17 140.82 C 155.88 140.02 155.00 139.59 154.20 139.87 L 153.23 140.21 C 152.42 140.49 152.00 141.37 152.28 142.18 C 152.56 142.98 153.44 143.41 154.25 143.13 Z M 155.21 142.79 L 156.17 142.46 C 156.97 142.18 157.39 141.30 157.12 140.50 C 156.84 139.69 155.96 139.27 155.16 139.54 L 154.20 139.88 C 153.40 140.15 152.97 141.03 153.25 141.83 C 153.53 142.64 154.40 143.06 155.21 142.79 Z M 156.16 142.45 L 157.09 142.13 C 157.89 141.86 158.32 140.99 158.05 140.19 C 157.77 139.39 156.90 138.96 156.10 139.23 L 155.17 139.55 C 154.37 139.82 153.94 140.69 154.21 141.49 C 154.48 142.30 155.35 142.72 156.16 142.45 Z M 157.08 142.13 L 158.01 141.82 C 158.81 141.56 159.24 140.69 158.98 139.89 C 158.71 139.09 157.85 138.66 157.05 138.92 L 156.12 139.23 C 155.32 139.50 154.88 140.36 155.15 141.16 C 155.41 141.96 156.28 142.40 157.08 142.13 Z M 157.99 141.82 L 159.00 141.50 C 159.80 141.24 160.24 140.39 159.99 139.59 C 159.73 138.79 158.88 138.35 158.08 138.60 L 157.07 138.93 C 156.27 139.18 155.83 140.03 156.08 140.83 C 156.34 141.63 157.19 142.08 157.99 141.82 Z M 158.98 141.50 L 159.94 141.20 C 160.74 140.96 161.19 140.11 160.95 139.31 C 160.70 138.52 159.86 138.07 159.06 138.31 L 158.10 138.61 C 157.30 138.85 156.85 139.70 157.10 140.49 C 157.34 141.29 158.19 141.74 158.98 141.50 Z M 159.93 141.20 L 160.85 140.92 C 161.65 140.69 162.10 139.85 161.86 139.05 C 161.62 138.26 160.78 137.80 159.99 138.04 L 159.07 138.32 C 158.28 138.55 157.82 139.39 158.06 140.19 C 158.30 140.98 159.14 141.44 159.93 141.20 Z M 160.84 140.92 L 161.73 140.66 C 162.52 140.42 162.98 139.59 162.74 138.80 C 162.51 138.01 161.68 137.55 160.89 137.79 L 160.00 138.05 C 159.20 138.28 158.75 139.11 158.98 139.91 C 159.22 140.70 160.05 141.15 160.84 140.92 Z M 161.72 140.65 L 162.61 140.39 C 163.40 140.16 163.86 139.34 163.63 138.55 C 163.40 137.76 162.58 137.30 161.79 137.53 L 160.90 137.79 C 160.11 138.02 159.65 138.84 159.88 139.63 C 160.11 140.42 160.93 140.88 161.72 140.65 Z M 162.60 140.39 L 163.53 140.13 C 164.32 139.91 164.78 139.10 164.56 138.31 C 164.35 137.52 163.53 137.06 162.74 137.28 L 161.81 137.54 C 161.02 137.75 160.56 138.57 160.77 139.36 C 160.99 140.15 161.81 140.61 162.60 140.39 Z M 163.51 140.13 L 164.54 139.86 C 165.32 139.66 165.80 138.85 165.59 138.07 C 165.39 137.28 164.58 136.81 163.80 137.01 L 162.77 137.28 C 161.98 137.48 161.51 138.29 161.71 139.07 C 161.92 139.86 162.72 140.33 163.51 140.13 Z M 164.51 139.86 L 165.50 139.62 C 166.28 139.43 166.77 138.64 166.58 137.85 C 166.39 137.07 165.59 136.58 164.81 136.77 L 163.82 137.01 C 163.04 137.20 162.55 137.99 162.74 138.78 C 162.93 139.57 163.73 140.05 164.51 139.86 Z M 165.48 139.62 L 166.43 139.41 C 167.21 139.23 167.70 138.45 167.53 137.66 C 167.35 136.87 166.57 136.38 165.78 136.56 L 164.83 136.77 C 164.04 136.95 163.55 137.74 163.73 138.52 C 163.91 139.31 164.69 139.80 165.48 139.62 Z M 166.41 139.41 L 167.40 139.19 C 168.19 139.02 168.69 138.25 168.52 137.47 C 168.36 136.68 167.58 136.18 166.80 136.35 L 165.80 136.56 C 165.01 136.73 164.51 137.50 164.68 138.29 C 164.85 139.07 165.62 139.57 166.41 139.41 Z M 167.38 139.19 L 168.40 138.99 C 169.18 138.83 169.69 138.07 169.54 137.28 C 169.38 136.50 168.62 135.99 167.83 136.14 L 166.82 136.35 C 166.03 136.50 165.52 137.27 165.68 138.05 C 165.83 138.84 166.60 139.35 167.38 139.19 Z M 168.37 138.99 L 169.38 138.81 C 170.17 138.66 170.69 137.91 170.54 137.13 C 170.40 136.34 169.65 135.82 168.86 135.96 L 167.86 136.14 C 167.07 136.29 166.55 137.04 166.69 137.83 C 166.84 138.61 167.59 139.13 168.37 138.99 Z M 169.35 138.81 L 170.38 138.64 C 171.17 138.52 171.70 137.78 171.58 136.99 C 171.45 136.21 170.71 135.67 169.93 135.80 L 168.89 135.96 C 168.11 136.09 167.57 136.83 167.70 137.61 C 167.82 138.40 168.56 138.93 169.35 138.81 Z M 170.35 138.64 L 171.38 138.50 C 172.17 138.40 172.72 137.67 172.61 136.88 C 172.50 136.10 171.78 135.55 170.99 135.65 L 169.96 135.79 C 169.17 135.90 168.62 136.63 168.73 137.41 C 168.84 138.20 169.56 138.75 170.35 138.64 Z M 171.35 138.50 L 172.34 138.39 C 173.12 138.30 173.69 137.59 173.60 136.80 C 173.50 136.01 172.79 135.45 172.01 135.54 L 171.02 135.65 C 170.23 135.75 169.67 136.46 169.76 137.24 C 169.85 138.03 170.56 138.59 171.35 138.50 Z M 172.32 138.39 L 173.28 138.29 C 174.06 138.21 174.63 137.51 174.55 136.72 C 174.47 135.94 173.77 135.36 172.99 135.44 L 172.03 135.54 C 171.24 135.62 170.67 136.32 170.75 137.11 C 170.83 137.90 171.53 138.47 172.32 138.39 Z M 173.27 138.29 L 174.14 138.20 C 174.92 138.13 175.50 137.43 175.43 136.65 C 175.35 135.86 174.66 135.29 173.87 135.36 L 173.00 135.45 C 172.21 135.52 171.64 136.22 171.71 137.00 C 171.78 137.79 172.48 138.36 173.27 138.29 Z"
      fill="black"
      fill-rule="nonzero" /><path d="M 157.21 144.31 L 156.59 145.10 C 156.07 145.75 156.18 146.70 156.83 147.22 C 157.48 147.74 158.43 147.63 158.95 146.98 L 159.58 146.19 C 160.10 145.54 159.99 144.59 159.33 144.07 C 158.68 143.55 157.73 143.66 157.21 144.31 Z M 156.57 145.12 L 155.96 145.91 C 155.46 146.58 155.58 147.53 156.25 148.03 C 156.91 148.54 157.86 148.41 158.37 147.75 L 158.97 146.95 C 159.48 146.29 159.35 145.34 158.69 144.83 C 158.02 144.33 157.07 144.46 156.57 145.12 Z M 155.93 145.96 L 155.35 146.78 C 154.87 147.46 155.04 148.41 155.72 148.89 C 156.41 149.36 157.35 149.20 157.83 148.52 L 158.40 147.70 C 158.88 147.02 158.71 146.07 158.03 145.59 C 157.35 145.11 156.41 145.28 155.93 145.96 Z M 155.30 146.85 L 154.80 147.67 C 154.36 148.38 154.58 149.31 155.29 149.75 C 156.00 150.19 156.93 149.97 157.37 149.26 L 157.88 148.44 C 158.32 147.73 158.10 146.80 157.39 146.36 C 156.68 145.92 155.74 146.14 155.30 146.85 Z M 154.75 147.75 L 154.30 148.60 C 153.90 149.34 154.18 150.26 154.92 150.65 C 155.66 151.04 156.57 150.77 156.97 150.03 L 157.42 149.18 C 157.82 148.44 157.54 147.53 156.80 147.13 C 156.06 146.74 155.14 147.02 154.75 147.75 Z M 154.26 148.67 L 153.83 149.58 C 153.48 150.34 153.81 151.25 154.57 151.60 C 155.33 151.95 156.23 151.62 156.58 150.86 L 157.01 149.95 C 157.36 149.19 157.03 148.29 156.27 147.94 C 155.51 147.58 154.61 147.91 154.26 148.67 Z M 153.80 149.65 L 153.40 150.63 C 153.08 151.41 153.45 152.29 154.22 152.61 C 155.00 152.93 155.89 152.56 156.21 151.79 L 156.61 150.80 C 156.93 150.03 156.56 149.14 155.79 148.82 C 155.01 148.50 154.12 148.87 153.80 149.65 Z M 153.38 150.67 L 153.05 151.53 C 152.76 152.32 153.16 153.20 153.94 153.50 C 154.73 153.79 155.61 153.39 155.91 152.61 L 156.23 151.74 C 156.53 150.96 156.13 150.08 155.34 149.78 C 154.55 149.48 153.67 149.88 153.38 150.67 Z M 153.03 151.57 L 152.71 152.49 C 152.44 153.29 152.86 154.16 153.66 154.44 C 154.46 154.71 155.33 154.29 155.61 153.49 L 155.93 152.57 C 156.20 151.77 155.78 150.90 154.98 150.63 C 154.18 150.35 153.31 150.77 153.03 151.57 Z M 152.70 152.52 L 152.39 153.50 C 152.13 154.30 152.58 155.17 153.38 155.43 C 154.19 155.68 155.05 155.24 155.31 154.43 L 155.62 153.46 C 155.88 152.65 155.44 151.79 154.63 151.53 C 153.82 151.27 152.96 151.72 152.70 152.52 Z M 152.37 153.53 L 152.07 154.55 C 151.84 155.36 152.30 156.22 153.12 156.46 C 153.94 156.69 154.79 156.23 155.03 155.41 L 155.33 154.39 C 155.57 153.58 155.10 152.72 154.28 152.48 C 153.47 152.25 152.61 152.71 152.37 153.53 Z M 152.06 154.58 L 151.80 155.55 C 151.58 156.38 152.07 157.22 152.90 157.44 C 153.72 157.66 154.57 157.17 154.79 156.35 L 155.05 155.38 C 155.27 154.55 154.78 153.70 153.95 153.48 C 153.13 153.26 152.28 153.76 152.06 154.58 Z M 151.79 155.58 L 151.56 156.53 C 151.36 157.36 151.87 158.20 152.70 158.40 C 153.53 158.60 154.37 158.09 154.57 157.26 L 154.80 156.32 C 155.00 155.49 154.49 154.65 153.66 154.45 C 152.83 154.24 151.99 154.75 151.79 155.58 Z M 151.55 156.56 L 151.34 157.52 C 151.15 158.36 151.67 159.19 152.51 159.37 C 153.35 159.56 154.17 159.04 154.36 158.20 L 154.58 157.23 C 154.76 156.40 154.24 155.57 153.40 155.38 C 152.57 155.19 151.74 155.72 151.55 156.56 Z M 151.33 157.55 L 151.12 158.54 C 150.95 159.38 151.49 160.20 152.33 160.37 C 153.17 160.54 153.99 160.00 154.17 159.16 L 154.37 158.17 C 154.54 157.33 154.00 156.51 153.16 156.34 C 152.32 156.17 151.50 156.71 151.33 157.55 Z M 151.12 158.56 L 150.93 159.57 C 150.77 160.42 151.32 161.23 152.16 161.39 C 153.01 161.55 153.82 161.00 153.98 160.15 L 154.17 159.14 C 154.33 158.30 153.78 157.48 152.93 157.32 C 152.09 157.16 151.28 157.72 151.12 158.56 Z M 150.92 159.59 L 150.74 160.62 C 150.59 161.47 151.16 162.28 152.00 162.43 C 152.85 162.58 153.66 162.01 153.81 161.16 L 153.99 160.13 C 154.13 159.29 153.57 158.48 152.72 158.33 C 151.88 158.18 151.07 158.75 150.92 159.59 Z M 150.73 160.64 L 150.56 161.68 C 150.42 162.53 151.00 163.33 151.85 163.47 C 152.70 163.61 153.50 163.03 153.64 162.19 L 153.81 161.15 C 153.95 160.30 153.37 159.50 152.52 159.36 C 151.68 159.22 150.87 159.79 150.73 160.64 Z M 150.56 161.69 L 150.40 162.72 C 150.27 163.57 150.85 164.37 151.70 164.50 C 152.55 164.63 153.35 164.05 153.48 163.20 L 153.64 162.17 C 153.77 161.32 153.19 160.53 152.34 160.39 C 151.49 160.26 150.69 160.84 150.56 161.69 Z M 150.40 162.73 L 150.25 163.72 C 150.12 164.57 150.70 165.37 151.56 165.50 C 152.41 165.63 153.20 165.04 153.33 164.19 L 153.48 163.19 C 153.61 162.34 153.03 161.55 152.17 161.42 C 151.32 161.29 150.53 161.88 150.40 162.73 Z M 150.25 163.73 L 150.11 164.67 C 149.98 165.52 150.57 166.31 151.42 166.44 C 152.27 166.57 153.06 165.98 153.19 165.13 L 153.33 164.19 C 153.46 163.33 152.87 162.54 152.02 162.41 C 151.17 162.29 150.37 162.87 150.25 163.73 Z M 150.11 164.66 L 149.96 165.61 C 149.83 166.46 150.42 167.26 151.27 167.39 C 152.12 167.52 152.92 166.93 153.05 166.08 L 153.19 165.13 C 153.32 164.28 152.73 163.48 151.88 163.35 C 151.03 163.23 150.23 163.81 150.11 164.66 Z M 149.96 165.61 L 149.81 166.62 C 149.68 167.47 150.26 168.27 151.12 168.40 C 151.97 168.53 152.76 167.95 152.89 167.09 L 153.05 166.08 C 153.18 165.23 152.59 164.43 151.74 164.30 C 150.89 164.17 150.09 164.76 149.96 165.61 Z M 149.81 166.64 L 149.67 167.59 C 149.55 168.44 150.14 169.23 150.99 169.35 C 151.84 169.47 152.63 168.88 152.75 168.03 L 152.89 167.08 C 153.01 166.23 152.42 165.44 151.57 165.32 C 150.72 165.19 149.93 165.79 149.81 166.64 Z M 149.67 167.62 L 149.55 168.58 C 149.44 169.43 150.05 170.21 150.90 170.31 C 151.75 170.42 152.53 169.81 152.64 168.96 L 152.76 168.00 C 152.86 167.15 152.26 166.37 151.41 166.27 C 150.56 166.16 149.78 166.77 149.67 167.62 Z M 149.55 168.62 L 149.45 169.59 C 149.37 170.45 149.99 171.21 150.84 171.29 C 151.69 171.38 152.45 170.75 152.54 169.90 L 152.64 168.92 C 152.72 168.07 152.10 167.31 151.25 167.23 C 150.40 167.14 149.63 167.76 149.55 168.62 Z M 149.45 169.63 L 149.38 170.60 C 149.31 171.45 149.95 172.20 150.80 172.26 C 151.65 172.33 152.40 171.69 152.46 170.84 L 152.54 169.87 C 152.61 169.02 151.97 168.27 151.12 168.20 C 150.26 168.14 149.52 168.77 149.45 169.63 Z M 149.38 170.62 L 149.31 171.64 C 149.26 172.49 149.90 173.22 150.75 173.28 C 151.61 173.33 152.34 172.69 152.40 171.84 L 152.46 170.82 C 152.52 169.97 151.87 169.23 151.02 169.18 C 150.17 169.12 149.43 169.77 149.38 170.62 Z M 149.31 171.65 L 149.26 172.68 C 149.21 173.53 149.86 174.26 150.71 174.31 C 151.56 174.35 152.29 173.70 152.34 172.85 L 152.39 171.82 C 152.44 170.97 151.79 170.24 150.94 170.20 C 150.09 170.15 149.36 170.80 149.31 171.65 Z M 149.26 172.69 L 149.21 173.70 C 149.17 174.55 149.83 175.27 150.68 175.31 C 151.53 175.35 152.25 174.69 152.29 173.85 L 152.34 172.84 C 152.38 171.99 151.72 171.27 150.87 171.23 C 150.02 171.19 149.30 171.84 149.26 172.69 Z M 149.22 173.71 L 149.17 174.78 C 149.14 175.63 149.80 176.34 150.64 176.38 C 151.49 176.41 152.20 175.76 152.23 174.91 L 152.28 173.84 C 152.31 172.99 151.66 172.28 150.81 172.24 C 149.97 172.21 149.25 172.86 149.22 173.71 Z M 149.19 174.81 L 149.16 175.84 C 149.14 176.68 149.80 177.37 150.64 177.39 C 151.48 177.41 152.18 176.75 152.20 175.91 L 152.22 174.89 C 152.24 174.05 151.58 173.35 150.74 173.33 C 149.90 173.31 149.21 173.97 149.19 174.81 Z M 149.17 175.89 L 149.18 176.86 C 149.19 177.69 149.87 178.36 150.70 178.35 C 151.53 178.35 152.20 177.67 152.19 176.84 L 152.18 175.87 C 152.18 175.03 151.50 174.36 150.67 174.37 C 149.84 174.38 149.17 175.06 149.17 175.89 Z M 149.20 176.93 L 149.25 177.86 C 149.30 178.68 150.00 179.31 150.82 179.26 C 151.64 179.22 152.27 178.51 152.23 177.69 L 152.17 176.76 C 152.13 175.94 151.42 175.31 150.60 175.36 C 149.78 175.40 149.15 176.11 149.20 176.93 Z M 149.27 177.95 L 149.40 178.96 C 149.50 179.77 150.24 180.35 151.05 180.25 C 151.86 180.14 152.43 179.41 152.33 178.60 L 152.20 177.59 C 152.10 176.78 151.37 176.21 150.56 176.31 C 149.75 176.41 149.17 177.14 149.27 177.95 Z M 149.42 179.05 L 149.61 180.03 C 149.75 180.82 150.52 181.35 151.31 181.20 C 152.11 181.05 152.63 180.29 152.49 179.49 L 152.30 178.51 C 152.16 177.72 151.39 177.19 150.60 177.34 C 149.80 177.49 149.28 178.25 149.42 179.05 Z M 149.63 180.08 L 149.85 181.04 C 150.02 181.83 150.80 182.32 151.58 182.14 C 152.36 181.97 152.85 181.19 152.68 180.41 L 152.46 179.44 C 152.29 178.66 151.51 178.17 150.73 178.35 C 149.95 178.52 149.45 179.30 149.63 180.08 Z M 149.86 181.06 L 149.98 181.57 C 150.17 182.34 150.94 182.82 151.72 182.63 C 152.49 182.45 152.97 181.67 152.78 180.90 L 152.66 180.39 C 152.48 179.62 151.70 179.14 150.93 179.32 C 150.15 179.51 149.68 180.29 149.86 181.06 Z"
      fill="black"
      fill-rule="nonzero" /><path d="M 155.02 164.19 L 155.98 163.89 C 156.79 163.63 157.24 162.76 156.99 161.95 C 156.73 161.13 155.86 160.68 155.05 160.94 L 154.09 161.24 C 153.28 161.50 152.83 162.36 153.08 163.18 C 153.34 163.99 154.21 164.44 155.02 164.19 Z M 155.97 163.88 L 156.93 163.57 C 157.74 163.32 158.19 162.46 157.93 161.65 C 157.67 160.84 156.81 160.39 156.00 160.65 L 155.05 160.95 C 154.24 161.20 153.79 162.06 154.05 162.87 C 154.30 163.68 155.17 164.13 155.97 163.88 Z M 156.93 163.57 L 157.88 163.26 C 158.68 163.01 159.13 162.15 158.87 161.35 C 158.62 160.55 157.76 160.10 156.96 160.35 L 156.01 160.65 C 155.20 160.91 154.76 161.77 155.01 162.57 C 155.26 163.37 156.12 163.82 156.93 163.57 Z M 157.88 163.26 L 158.83 162.95 C 159.63 162.70 160.07 161.85 159.82 161.05 C 159.57 160.25 158.71 159.81 157.92 160.06 L 156.96 160.36 C 156.16 160.61 155.72 161.47 155.97 162.27 C 156.22 163.06 157.08 163.51 157.88 163.26 Z M 158.83 162.95 L 159.78 162.64 C 160.57 162.39 161.01 161.55 160.76 160.75 C 160.51 159.96 159.67 159.52 158.87 159.77 L 157.92 160.07 C 157.12 160.32 156.68 161.17 156.93 161.96 C 157.19 162.76 158.03 163.20 158.83 162.95 Z M 159.78 162.64 L 160.04 162.56 C 160.83 162.31 161.27 161.46 161.02 160.67 C 160.77 159.88 159.92 159.44 159.13 159.69 L 158.87 159.77 C 158.08 160.02 157.64 160.87 157.89 161.66 C 158.14 162.45 158.99 162.89 159.78 162.64 Z"
      fill="black"
      fill-rule="nonzero" /><path d="M 141.74 162.43 L 140.94 163.04 C 140.27 163.54 140.14 164.49 140.64 165.15 C 141.14 165.82 142.09 165.96 142.75 165.45 L 143.56 164.85 C 144.23 164.35 144.36 163.40 143.86 162.73 C 143.36 162.06 142.41 161.93 141.74 162.43 Z M 140.93 163.04 L 140.13 163.65 C 139.46 164.16 139.33 165.11 139.84 165.77 C 140.35 166.44 141.30 166.57 141.96 166.06 L 142.76 165.45 C 143.43 164.94 143.56 163.99 143.05 163.33 C 142.54 162.66 141.59 162.53 140.93 163.04 Z M 140.11 163.66 L 139.32 164.28 C 138.66 164.80 138.55 165.76 139.07 166.41 C 139.59 167.07 140.54 167.19 141.20 166.67 L 141.98 166.05 C 142.64 165.53 142.76 164.58 142.24 163.92 C 141.72 163.26 140.77 163.15 140.11 163.66 Z M 139.29 164.30 L 138.53 164.93 C 137.88 165.47 137.79 166.43 138.32 167.07 C 138.85 167.72 139.81 167.81 140.46 167.28 L 141.23 166.65 C 141.87 166.11 141.97 165.16 141.43 164.51 C 140.90 163.86 139.94 163.77 139.29 164.30 Z M 138.49 164.96 L 137.75 165.61 C 137.12 166.16 137.05 167.13 137.61 167.76 C 138.16 168.39 139.13 168.46 139.76 167.90 L 140.50 167.25 C 141.13 166.70 141.19 165.73 140.64 165.10 C 140.08 164.47 139.12 164.41 138.49 164.96 Z M 137.70 165.64 L 136.99 166.31 C 136.38 166.89 136.35 167.86 136.93 168.48 C 137.51 169.09 138.48 169.12 139.09 168.54 L 139.80 167.87 C 140.42 167.29 140.45 166.32 139.87 165.71 C 139.29 165.09 138.32 165.06 137.70 165.64 Z M 136.95 166.34 L 136.26 167.04 C 135.66 167.65 135.66 168.62 136.27 169.22 C 136.87 169.82 137.85 169.81 138.44 169.21 L 139.14 168.51 C 139.73 167.90 139.73 166.93 139.12 166.33 C 138.52 165.73 137.55 165.74 136.95 166.34 Z M 136.21 167.08 L 135.53 167.81 C 134.95 168.44 134.99 169.42 135.62 170.00 C 136.24 170.58 137.22 170.54 137.80 169.91 L 138.48 169.18 C 139.06 168.55 139.03 167.57 138.40 166.99 C 137.77 166.41 136.79 166.45 136.21 167.08 Z M 135.50 167.84 L 134.82 168.62 C 134.25 169.27 134.32 170.25 134.97 170.81 C 135.62 171.38 136.60 171.31 137.16 170.66 L 137.84 169.88 C 138.40 169.24 138.34 168.25 137.69 167.69 C 137.04 167.13 136.06 167.19 135.50 167.84 Z M 134.79 168.64 L 134.17 169.39 C 133.62 170.05 133.72 171.04 134.38 171.59 C 135.05 172.14 136.03 172.04 136.58 171.38 L 137.19 170.64 C 137.74 169.97 137.65 168.99 136.99 168.44 C 136.32 167.89 135.34 167.98 134.79 168.64 Z M 134.15 169.41 L 133.54 170.17 C 133.00 170.85 133.12 171.83 133.80 172.37 C 134.48 172.91 135.46 172.80 136.00 172.12 L 136.61 171.36 C 137.15 170.68 137.03 169.69 136.35 169.15 C 135.67 168.61 134.69 168.73 134.15 169.41 Z M 133.52 170.18 L 132.91 170.98 C 132.38 171.67 132.51 172.66 133.21 173.19 C 133.90 173.72 134.89 173.59 135.42 172.90 L 136.02 172.10 C 136.55 171.41 136.42 170.42 135.73 169.89 C 135.04 169.36 134.05 169.49 133.52 170.18 Z M 132.89 170.99 L 132.28 171.81 C 131.76 172.51 131.91 173.50 132.61 174.02 C 133.31 174.55 134.30 174.40 134.83 173.70 L 135.44 172.88 C 135.96 172.18 135.81 171.19 135.11 170.67 C 134.41 170.14 133.42 170.29 132.89 170.99 Z M 132.27 171.82 L 131.66 172.66 C 131.14 173.37 131.30 174.36 132.01 174.88 C 132.72 175.40 133.71 175.24 134.23 174.53 L 134.84 173.69 C 135.36 172.98 135.20 171.99 134.49 171.47 C 133.78 170.95 132.79 171.11 132.27 171.82 Z M 131.64 172.66 L 131.03 173.53 C 130.51 174.24 130.68 175.24 131.40 175.76 C 132.12 176.27 133.11 176.10 133.63 175.38 L 134.24 174.52 C 134.76 173.80 134.59 172.81 133.87 172.29 C 133.16 171.78 132.16 171.95 131.64 172.66 Z M 131.02 173.53 L 130.41 174.40 C 129.90 175.12 130.07 176.12 130.79 176.63 C 131.51 177.14 132.51 176.97 133.03 176.25 L 133.64 175.38 C 134.15 174.66 133.98 173.66 133.25 173.15 C 132.53 172.64 131.53 172.81 131.02 173.53 Z M 130.40 174.40 L 129.80 175.25 C 129.29 175.98 129.47 176.98 130.20 177.49 C 130.92 178.00 131.93 177.82 132.44 177.10 L 133.03 176.25 C 133.54 175.52 133.36 174.52 132.64 174.01 C 131.91 173.50 130.91 173.67 130.40 174.40 Z M 129.80 175.25 L 129.23 176.06 C 128.72 176.79 128.90 177.80 129.62 178.31 C 130.35 178.82 131.36 178.64 131.87 177.91 L 132.44 177.10 C 132.95 176.37 132.77 175.37 132.04 174.85 C 131.32 174.34 130.31 174.52 129.80 175.25 Z M 129.23 176.06 L 128.69 176.81 C 128.18 177.54 128.35 178.55 129.08 179.07 C 129.81 179.58 130.82 179.41 131.33 178.68 L 131.87 177.92 C 132.38 177.19 132.21 176.18 131.48 175.67 C 130.75 175.15 129.74 175.33 129.23 176.06 Z M 128.70 176.80 L 128.10 177.64 C 127.57 178.36 127.74 179.38 128.47 179.90 C 129.19 180.42 130.20 180.26 130.73 179.53 L 131.33 178.69 C 131.85 177.97 131.69 176.95 130.96 176.43 C 130.23 175.91 129.22 176.07 128.70 176.80 Z M 128.11 177.62 L 127.48 178.47 C 126.94 179.19 127.10 180.20 127.81 180.74 C 128.53 181.27 129.55 181.12 130.08 180.40 L 130.71 179.55 C 131.25 178.83 131.10 177.81 130.38 177.28 C 129.66 176.75 128.64 176.90 128.11 177.62 Z M 127.49 178.45 L 126.92 179.20 C 126.37 179.91 126.51 180.93 127.22 181.47 C 127.93 182.02 128.95 181.88 129.50 181.17 L 130.07 180.42 C 130.62 179.71 130.48 178.69 129.77 178.14 C 129.06 177.60 128.04 177.73 127.49 178.45 Z M 126.93 179.18 L 126.37 179.89 C 125.82 180.60 125.95 181.62 126.65 182.17 C 127.36 182.73 128.38 182.60 128.94 181.89 L 129.49 181.18 C 130.04 180.48 129.92 179.45 129.21 178.90 C 128.50 178.35 127.48 178.47 126.93 179.18 Z M 126.37 179.89 L 125.77 180.65 C 125.22 181.36 125.34 182.39 126.05 182.94 C 126.75 183.50 127.78 183.37 128.33 182.67 L 128.94 181.90 C 129.49 181.19 129.37 180.17 128.66 179.61 C 127.95 179.06 126.93 179.18 126.37 179.89 Z M 125.77 180.65 L 125.15 181.44 C 124.60 182.15 124.72 183.17 125.43 183.73 C 126.14 184.28 127.16 184.16 127.72 183.45 L 128.33 182.67 C 128.89 181.96 128.77 180.93 128.06 180.38 C 127.35 179.82 126.33 179.95 125.77 180.65 Z M 125.15 181.44 L 124.52 182.25 C 123.97 182.96 124.09 183.98 124.81 184.54 C 125.52 185.09 126.54 184.96 127.09 184.25 L 127.72 183.45 C 128.28 182.74 128.15 181.71 127.44 181.16 C 126.73 180.60 125.70 180.73 125.15 181.44 Z M 124.52 182.25 L 123.96 182.98 C 123.40 183.69 123.54 184.72 124.25 185.27 C 124.96 185.82 125.99 185.69 126.54 184.97 L 127.10 184.25 C 127.65 183.54 127.52 182.51 126.81 181.96 C 126.09 181.41 125.07 181.54 124.52 182.25 Z M 123.96 182.98 L 123.38 183.72 C 122.83 184.43 122.96 185.46 123.68 186.01 C 124.39 186.56 125.41 186.43 125.96 185.72 L 126.54 184.97 C 127.09 184.26 126.96 183.24 126.24 182.68 C 125.53 182.13 124.51 182.27 123.96 182.98 Z M 123.39 183.72 L 122.76 184.52 C 122.21 185.23 122.33 186.26 123.04 186.81 C 123.75 187.36 124.78 187.24 125.33 186.53 L 125.96 185.72 C 126.51 185.01 126.39 183.99 125.68 183.43 C 124.96 182.88 123.94 183.00 123.39 183.72 Z M 122.77 184.51 L 122.07 185.40 C 121.51 186.10 121.63 187.13 122.34 187.69 C 123.04 188.25 124.07 188.13 124.63 187.42 L 125.33 186.53 C 125.89 185.83 125.77 184.80 125.06 184.24 C 124.35 183.68 123.32 183.80 122.77 184.51 Z M 122.07 185.39 L 121.50 186.11 C 120.93 186.81 121.05 187.84 121.75 188.40 C 122.45 188.96 123.48 188.85 124.04 188.15 L 124.62 187.43 C 125.18 186.72 125.07 185.70 124.37 185.14 C 123.66 184.57 122.64 184.69 122.07 185.39 Z M 121.50 186.11 L 120.89 186.87 C 120.32 187.57 120.43 188.60 121.13 189.16 C 121.83 189.72 122.85 189.62 123.42 188.92 L 124.04 188.15 C 124.60 187.45 124.49 186.43 123.79 185.86 C 123.09 185.30 122.07 185.41 121.50 186.11 Z M 120.89 186.87 L 120.25 187.66 C 119.68 188.36 119.79 189.38 120.49 189.95 C 121.18 190.51 122.21 190.41 122.77 189.71 L 123.41 188.92 C 123.98 188.22 123.87 187.20 123.18 186.63 C 122.48 186.07 121.46 186.17 120.89 186.87 Z M 120.25 187.67 L 119.60 188.47 C 119.03 189.17 119.14 190.19 119.83 190.75 C 120.53 191.32 121.55 191.21 122.12 190.51 L 122.77 189.71 C 123.33 189.01 123.23 187.99 122.53 187.43 C 121.84 186.86 120.81 186.97 120.25 187.67 Z M 119.60 188.48 L 118.95 189.28 C 118.38 189.97 118.49 190.99 119.19 191.56 C 119.88 192.12 120.90 192.01 121.46 191.32 L 122.11 190.51 C 122.68 189.82 122.57 188.80 121.87 188.23 C 121.18 187.67 120.16 187.78 119.60 188.48 Z M 118.95 189.28 L 118.26 190.14 C 117.70 190.84 117.81 191.85 118.50 192.41 C 119.19 192.97 120.21 192.86 120.77 192.17 L 121.46 191.31 C 122.02 190.62 121.91 189.60 121.22 189.04 C 120.53 188.48 119.51 188.59 118.95 189.28 Z M 118.28 190.14 L 117.59 190.96 C 117.03 191.64 117.13 192.65 117.81 193.22 C 118.49 193.78 119.50 193.68 120.07 193.00 L 120.75 192.18 C 121.31 191.49 121.21 190.48 120.53 189.92 C 119.85 189.36 118.84 189.45 118.28 190.14 Z M 117.63 190.93 L 116.97 191.69 C 116.39 192.35 116.46 193.36 117.12 193.93 C 117.78 194.51 118.78 194.45 119.36 193.79 L 120.03 193.03 C 120.61 192.37 120.54 191.37 119.88 190.79 C 119.22 190.21 118.21 190.27 117.63 190.93 Z M 117.04 191.63 L 116.39 192.30 C 115.77 192.92 115.78 193.92 116.41 194.53 C 117.03 195.14 118.03 195.13 118.64 194.51 L 119.29 193.85 C 119.90 193.22 119.89 192.22 119.27 191.61 C 118.65 191.00 117.65 191.01 117.04 191.63 Z M 116.50 192.21 L 115.80 192.80 C 115.14 193.36 115.06 194.35 115.62 195.01 C 116.18 195.67 117.16 195.75 117.83 195.19 L 118.53 194.60 C 119.19 194.04 119.27 193.05 118.71 192.39 C 118.15 191.73 117.16 191.65 116.50 192.21 Z M 116.00 192.68 L 115.10 193.23 C 114.37 193.68 114.14 194.64 114.59 195.37 C 115.05 196.10 116.00 196.32 116.73 195.87 L 117.63 195.32 C 118.36 194.86 118.58 193.91 118.13 193.18 C 117.68 192.45 116.73 192.23 116.00 192.68 Z M 115.30 193.15 L 114.41 193.53 C 113.64 193.87 113.28 194.77 113.62 195.55 C 113.95 196.32 114.85 196.68 115.63 196.34 L 116.52 195.96 C 117.30 195.62 117.66 194.72 117.32 193.94 C 116.98 193.17 116.08 192.81 115.30 193.15 Z M 114.54 193.51 L 113.65 193.81 C 112.86 194.07 112.43 194.93 112.70 195.72 C 112.97 196.51 113.82 196.94 114.62 196.67 L 115.50 196.37 C 116.30 196.11 116.72 195.25 116.45 194.46 C 116.19 193.67 115.33 193.24 114.54 193.51 Z M 113.68 193.81 L 113.62 193.83 C 112.83 194.08 112.39 194.92 112.65 195.71 C 112.90 196.50 113.74 196.94 114.53 196.69 L 114.59 196.67 C 115.38 196.42 115.82 195.57 115.56 194.78 C 115.31 193.99 114.47 193.56 113.68 193.81 Z"
      fill="black"
      fill-rule="nonzero" /><path d="M 129.27 179.96 L 130.25 180.14 C 131.08 180.30 131.88 179.75 132.04 178.92 C 132.19 178.09 131.65 177.29 130.82 177.14 L 129.84 176.95 C 129.01 176.79 128.21 177.34 128.05 178.17 C 127.89 179.00 128.44 179.80 129.27 179.96 Z M 130.21 180.14 L 131.19 180.35 C 132.02 180.52 132.83 179.99 133.01 179.16 C 133.19 178.34 132.66 177.52 131.83 177.34 L 130.85 177.14 C 130.02 176.96 129.21 177.49 129.03 178.32 C 128.86 179.15 129.39 179.97 130.21 180.14 Z M 131.12 180.34 L 132.09 180.59 C 132.92 180.80 133.76 180.30 133.97 179.48 C 134.18 178.66 133.69 177.82 132.86 177.61 L 131.89 177.36 C 131.07 177.14 130.23 177.64 130.02 178.46 C 129.80 179.29 130.30 180.13 131.12 180.34 Z M 132.00 180.57 L 132.92 180.87 C 133.74 181.13 134.61 180.69 134.87 179.88 C 135.14 179.07 134.69 178.19 133.88 177.93 L 132.96 177.63 C 132.15 177.36 131.27 177.81 131.01 178.62 C 130.74 179.43 131.19 180.30 132.00 180.57 Z M 132.82 180.84 L 133.68 181.19 C 134.48 181.51 135.38 181.12 135.70 180.32 C 136.02 179.53 135.64 178.62 134.84 178.30 L 133.98 177.96 C 133.19 177.64 132.28 178.02 131.96 178.82 C 131.64 179.62 132.03 180.52 132.82 180.84 Z M 133.60 181.16 L 134.48 181.57 C 135.26 181.94 136.20 181.60 136.56 180.81 C 136.93 180.03 136.59 179.10 135.80 178.73 L 134.92 178.32 C 134.14 177.96 133.21 178.30 132.84 179.08 C 132.48 179.87 132.82 180.80 133.60 181.16 Z M 134.42 181.55 L 135.35 182.03 C 136.12 182.43 137.07 182.13 137.47 181.35 C 137.87 180.58 137.56 179.63 136.79 179.23 L 135.86 178.75 C 135.09 178.35 134.14 178.66 133.74 179.43 C 133.34 180.20 133.65 181.16 134.42 181.55 Z M 135.31 182.02 L 136.26 182.54 C 137.02 182.97 137.99 182.68 138.41 181.92 C 138.83 181.15 138.55 180.18 137.78 179.76 L 136.83 179.24 C 136.06 178.82 135.10 179.10 134.68 179.87 C 134.26 180.64 134.54 181.60 135.31 182.02 Z M 136.23 182.54 L 137.10 183.03 C 137.87 183.47 138.84 183.20 139.28 182.43 C 139.71 181.67 139.45 180.69 138.68 180.26 L 137.81 179.76 C 137.04 179.33 136.07 179.60 135.63 180.36 C 135.20 181.13 135.47 182.11 136.23 182.54 Z M 137.09 183.03 L 137.98 183.55 C 138.75 184.00 139.73 183.74 140.17 182.97 C 140.62 182.20 140.36 181.22 139.59 180.78 L 138.70 180.26 C 137.93 179.82 136.95 180.08 136.50 180.84 C 136.06 181.61 136.32 182.59 137.09 183.03 Z M 137.97 183.55 L 138.85 184.08 C 139.62 184.53 140.61 184.27 141.06 183.51 C 141.51 182.74 141.26 181.75 140.49 181.30 L 139.60 180.78 C 138.84 180.33 137.85 180.58 137.40 181.35 C 136.94 182.11 137.20 183.10 137.97 183.55 Z M 138.84 184.08 L 139.69 184.59 C 140.46 185.05 141.46 184.79 141.91 184.03 C 142.37 183.26 142.12 182.26 141.35 181.81 L 140.50 181.30 C 139.73 180.84 138.74 181.09 138.28 181.86 C 137.82 182.63 138.07 183.62 138.84 184.08 Z M 139.69 184.59 L 140.54 185.11 C 141.31 185.57 142.31 185.32 142.77 184.55 C 143.24 183.78 142.99 182.78 142.22 182.32 L 141.36 181.80 C 140.59 181.34 139.59 181.59 139.13 182.36 C 138.67 183.13 138.92 184.13 139.69 184.59 Z M 140.53 185.11 L 141.46 185.67 C 142.23 186.14 143.23 185.89 143.70 185.12 C 144.17 184.35 143.92 183.35 143.15 182.88 L 142.23 182.32 C 141.46 181.85 140.45 182.09 139.99 182.86 C 139.52 183.63 139.76 184.64 140.53 185.11 Z M 141.45 185.67 L 142.28 186.18 C 143.05 186.66 144.06 186.42 144.53 185.65 C 145.00 184.88 144.77 183.87 144.00 183.40 L 143.16 182.88 C 142.40 182.41 141.39 182.65 140.91 183.42 C 140.44 184.19 140.68 185.19 141.45 185.67 Z M 142.27 186.18 L 143.05 186.67 C 143.82 187.15 144.83 186.92 145.31 186.15 C 145.79 185.39 145.56 184.37 144.79 183.89 L 144.01 183.40 C 143.24 182.92 142.23 183.15 141.75 183.92 C 141.27 184.69 141.50 185.70 142.27 186.18 Z M 143.04 186.67 L 143.84 187.18 C 144.61 187.66 145.62 187.44 146.11 186.67 C 146.60 185.91 146.37 184.89 145.60 184.41 L 144.81 183.90 C 144.04 183.41 143.02 183.64 142.54 184.40 C 142.05 185.17 142.28 186.18 143.04 186.67 Z M 143.83 187.18 L 144.67 187.71 C 145.43 188.20 146.45 187.98 146.94 187.21 C 147.43 186.45 147.21 185.43 146.44 184.94 L 145.61 184.41 C 144.85 183.92 143.83 184.14 143.34 184.90 C 142.85 185.67 143.07 186.69 143.83 187.18 Z M 144.67 187.72 L 145.52 188.26 C 146.29 188.75 147.31 188.52 147.80 187.75 C 148.28 186.98 148.06 185.97 147.29 185.48 L 146.44 184.93 C 145.67 184.45 144.65 184.67 144.17 185.44 C 143.68 186.21 143.90 187.23 144.67 187.72 Z M 145.53 188.27 L 146.39 188.81 C 147.16 189.29 148.18 189.06 148.67 188.28 C 149.15 187.51 148.92 186.49 148.14 186.01 L 147.28 185.47 C 146.51 184.98 145.49 185.22 145.00 185.99 C 144.52 186.76 144.76 187.78 145.53 188.27 Z M 146.41 188.82 L 147.25 189.33 C 148.03 189.81 149.05 189.56 149.52 188.78 C 150.00 188.00 149.75 186.98 148.97 186.50 L 148.13 185.99 C 147.35 185.52 146.33 185.77 145.85 186.55 C 145.38 187.33 145.63 188.34 146.41 188.82 Z M 147.27 189.35 L 148.12 189.85 C 148.91 190.31 149.93 190.05 150.39 189.26 C 150.86 188.48 150.59 187.46 149.80 186.99 L 148.95 186.49 C 148.16 186.03 147.15 186.29 146.68 187.08 C 146.22 187.86 146.48 188.88 147.27 189.35 Z M 148.14 189.86 L 149.01 190.36 C 149.81 190.82 150.82 190.54 151.28 189.75 C 151.73 188.95 151.46 187.94 150.66 187.48 L 149.79 186.98 C 148.99 186.53 147.98 186.80 147.52 187.60 C 147.07 188.39 147.34 189.41 148.14 189.86 Z M 149.03 190.38 L 149.91 190.86 C 150.71 191.31 151.72 191.02 152.17 190.21 C 152.61 189.41 152.32 188.40 151.52 187.95 L 150.64 187.47 C 149.84 187.02 148.83 187.31 148.38 188.12 C 147.94 188.92 148.23 189.93 149.03 190.38 Z M 149.93 190.87 L 150.77 191.33 C 151.58 191.76 152.59 191.46 153.02 190.65 C 153.46 189.84 153.15 188.83 152.34 188.39 L 151.50 187.94 C 150.69 187.51 149.68 187.81 149.25 188.62 C 148.81 189.43 149.12 190.44 149.93 190.87 Z M 150.79 191.34 L 151.66 191.79 C 152.48 192.21 153.48 191.90 153.91 191.08 C 154.33 190.26 154.01 189.26 153.20 188.83 L 152.32 188.38 C 151.51 187.96 150.50 188.27 150.08 189.09 C 149.65 189.91 149.97 190.91 150.79 191.34 Z M 151.68 191.80 L 152.59 192.26 C 153.42 192.67 154.42 192.34 154.83 191.52 C 155.24 190.69 154.91 189.69 154.09 189.28 L 153.17 188.82 C 152.35 188.41 151.35 188.74 150.94 189.56 C 150.52 190.39 150.86 191.39 151.68 191.80 Z M 152.61 192.27 L 153.56 192.73 C 154.39 193.13 155.39 192.78 155.79 191.95 C 156.19 191.12 155.84 190.12 155.01 189.72 L 154.07 189.27 C 153.24 188.86 152.24 189.21 151.84 190.04 C 151.44 190.87 151.78 191.87 152.61 192.27 Z M 153.58 192.74 L 154.47 193.15 C 155.30 193.54 156.30 193.18 156.69 192.34 C 157.08 191.51 156.71 190.51 155.88 190.12 L 154.99 189.71 C 154.15 189.32 153.16 189.69 152.77 190.52 C 152.38 191.36 152.75 192.35 153.58 192.74 Z M 154.49 193.16 L 155.40 193.57 C 156.25 193.95 157.24 193.57 157.61 192.73 C 157.99 191.89 157.61 190.90 156.77 190.52 L 155.85 190.11 C 155.01 189.74 154.02 190.11 153.65 190.96 C 153.27 191.80 153.65 192.79 154.49 193.16 Z M 155.43 193.58 L 156.36 193.98 C 157.21 194.34 158.19 193.95 158.56 193.10 C 158.92 192.25 158.52 191.27 157.68 190.91 L 156.74 190.51 C 155.90 190.15 154.91 190.54 154.55 191.39 C 154.19 192.24 154.58 193.22 155.43 193.58 Z M 156.39 193.99 L 157.33 194.37 C 158.18 194.72 159.16 194.31 159.51 193.45 C 159.85 192.60 159.44 191.62 158.58 191.28 L 157.65 190.90 C 156.79 190.55 155.82 190.96 155.47 191.82 C 155.12 192.67 155.54 193.65 156.39 193.99 Z M 157.36 194.39 L 158.30 194.75 C 159.17 195.07 160.13 194.64 160.46 193.78 C 160.79 192.91 160.35 191.95 159.49 191.62 L 158.55 191.26 C 157.69 190.94 156.72 191.37 156.39 192.23 C 156.07 193.09 156.50 194.06 157.36 194.39 Z M 158.34 194.76 L 159.28 195.09 C 160.15 195.40 161.11 194.94 161.41 194.07 C 161.72 193.20 161.26 192.25 160.39 191.94 L 159.45 191.61 C 158.58 191.30 157.63 191.76 157.32 192.63 C 157.01 193.50 157.47 194.45 158.34 194.76 Z M 159.32 195.10 L 160.26 195.41 C 161.14 195.70 162.08 195.22 162.37 194.34 C 162.65 193.46 162.17 192.52 161.30 192.23 L 160.35 191.93 C 159.48 191.64 158.53 192.12 158.25 193.00 C 157.96 193.88 158.44 194.82 159.32 195.10 Z M 160.30 195.42 L 161.25 195.71 C 162.14 195.97 163.07 195.47 163.33 194.59 C 163.60 193.70 163.10 192.77 162.21 192.51 L 161.26 192.22 C 160.37 191.96 159.44 192.46 159.18 193.34 C 158.91 194.23 159.42 195.16 160.30 195.42 Z M 161.29 195.72 L 162.26 195.99 C 163.15 196.23 164.07 195.71 164.32 194.82 C 164.56 193.93 164.04 193.01 163.15 192.76 L 162.18 192.50 C 161.29 192.25 160.37 192.77 160.12 193.66 C 159.88 194.55 160.40 195.47 161.29 195.72 Z M 162.29 195.99 L 163.23 196.23 C 164.12 196.46 165.03 195.92 165.26 195.02 C 165.48 194.13 164.94 193.22 164.05 193.00 L 163.12 192.76 C 162.22 192.53 161.32 193.07 161.09 193.96 C 160.86 194.86 161.40 195.76 162.29 195.99 Z M 163.25 196.23 L 164.20 196.46 C 165.10 196.67 166.00 196.12 166.21 195.22 C 166.42 194.32 165.86 193.43 164.97 193.21 L 164.02 192.99 C 163.13 192.78 162.23 193.33 162.02 194.23 C 161.80 195.13 162.36 196.02 163.25 196.23 Z M 164.23 196.46 L 165.20 196.68 C 166.10 196.87 166.99 196.30 167.18 195.41 C 167.38 194.51 166.81 193.62 165.91 193.42 L 164.94 193.21 C 164.04 193.01 163.16 193.58 162.96 194.48 C 162.76 195.38 163.33 196.27 164.23 196.46 Z M 165.23 196.68 L 166.23 196.88 C 167.13 197.06 168.00 196.48 168.19 195.58 C 168.37 194.68 167.79 193.80 166.89 193.62 L 165.89 193.42 C 164.99 193.24 164.11 193.82 163.93 194.72 C 163.75 195.62 164.33 196.50 165.23 196.68 Z M 166.25 196.88 L 167.28 197.08 C 168.18 197.24 169.04 196.65 169.21 195.75 C 169.38 194.85 168.79 193.98 167.89 193.81 L 166.86 193.62 C 165.96 193.45 165.09 194.04 164.92 194.95 C 164.76 195.85 165.35 196.72 166.25 196.88 Z M 167.30 197.08 L 168.27 197.25 C 169.17 197.40 170.03 196.80 170.18 195.89 C 170.34 194.99 169.74 194.13 168.83 193.98 L 167.86 193.81 C 166.96 193.65 166.10 194.26 165.95 195.16 C 165.79 196.06 166.40 196.92 167.30 197.08 Z M 168.29 197.25 L 169.26 197.40 C 170.16 197.55 171.01 196.93 171.16 196.03 C 171.30 195.13 170.69 194.28 169.79 194.13 L 168.81 193.98 C 167.91 193.83 167.06 194.45 166.92 195.35 C 166.77 196.25 167.39 197.10 168.29 197.25 Z M 169.28 197.40 L 170.27 197.55 C 171.17 197.68 172.01 197.06 172.14 196.16 C 172.28 195.26 171.66 194.42 170.75 194.28 L 169.77 194.13 C 168.86 194.00 168.02 194.62 167.89 195.52 C 167.75 196.43 168.38 197.27 169.28 197.40 Z M 170.28 197.55 L 171.28 197.69 C 172.19 197.81 173.02 197.18 173.14 196.28 C 173.27 195.38 172.64 194.54 171.74 194.42 L 170.74 194.28 C 169.83 194.16 169.00 194.79 168.88 195.69 C 168.75 196.59 169.38 197.42 170.28 197.55 Z M 171.30 197.69 L 172.31 197.82 C 173.21 197.93 174.04 197.30 174.15 196.39 C 174.27 195.49 173.63 194.67 172.73 194.55 L 171.72 194.42 C 170.82 194.30 169.99 194.94 169.88 195.84 C 169.76 196.75 170.40 197.57 171.30 197.69 Z M 172.32 197.82 L 173.33 197.94 C 174.23 198.05 175.05 197.40 175.16 196.50 C 175.27 195.60 174.62 194.78 173.72 194.67 L 172.71 194.55 C 171.81 194.44 170.99 195.09 170.89 195.99 C 170.78 196.89 171.42 197.71 172.32 197.82 Z M 173.34 197.93 L 174.33 198.04 C 175.23 198.14 176.04 197.49 176.14 196.59 C 176.24 195.69 175.59 194.88 174.69 194.78 L 173.71 194.67 C 172.81 194.57 171.99 195.22 171.89 196.12 C 171.79 197.02 172.44 197.84 173.34 197.93 Z M 174.34 198.04 L 175.33 198.14 C 176.23 198.23 177.03 197.58 177.12 196.68 C 177.22 195.78 176.56 194.98 175.66 194.89 L 174.67 194.79 C 173.78 194.69 172.97 195.35 172.88 196.25 C 172.79 197.15 173.44 197.95 174.34 198.04 Z M 175.35 198.14 L 176.34 198.23 C 177.24 198.31 178.03 197.65 178.11 196.76 C 178.20 195.86 177.54 195.07 176.64 194.98 L 175.65 194.89 C 174.75 194.81 173.96 195.47 173.87 196.36 C 173.79 197.26 174.45 198.05 175.35 198.14 Z M 176.35 198.23 L 177.36 198.31 C 178.25 198.39 179.04 197.72 179.11 196.83 C 179.19 195.93 178.52 195.15 177.63 195.07 L 176.63 194.99 C 175.73 194.91 174.95 195.58 174.87 196.47 C 174.80 197.36 175.46 198.15 176.35 198.23 Z M 177.37 198.31 L 178.38 198.38 C 179.27 198.45 180.05 197.78 180.11 196.89 C 180.18 196.00 179.51 195.22 178.62 195.15 L 177.62 195.08 C 176.72 195.01 175.95 195.68 175.88 196.57 C 175.81 197.46 176.48 198.24 177.37 198.31 Z M 178.39 198.38 L 179.38 198.45 C 180.27 198.51 181.04 197.83 181.10 196.95 C 181.16 196.06 180.49 195.29 179.60 195.23 L 178.61 195.16 C 177.72 195.10 176.95 195.77 176.89 196.66 C 176.83 197.55 177.50 198.32 178.39 198.38 Z M 179.40 198.44 L 180.38 198.50 C 181.27 198.55 182.03 197.88 182.08 196.99 C 182.14 196.10 181.46 195.34 180.57 195.29 L 179.59 195.23 C 178.70 195.18 177.94 195.85 177.89 196.74 C 177.84 197.63 178.51 198.39 179.40 198.44 Z M 180.39 198.49 L 181.39 198.55 C 182.27 198.59 183.02 197.92 183.07 197.03 C 183.12 196.15 182.44 195.39 181.55 195.35 L 180.56 195.30 C 179.68 195.25 178.93 195.93 178.88 196.81 C 178.83 197.69 179.51 198.45 180.39 198.49 Z M 181.40 198.54 L 182.40 198.59 C 183.28 198.63 184.02 197.95 184.06 197.07 C 184.11 196.19 183.42 195.44 182.54 195.40 L 181.54 195.35 C 180.66 195.31 179.92 195.99 179.88 196.87 C 179.83 197.75 180.52 198.50 181.40 198.54 Z M 182.40 198.58 L 183.41 198.62 C 184.29 198.66 185.03 197.98 185.06 197.10 C 185.10 196.22 184.42 195.48 183.54 195.45 L 182.54 195.41 C 181.66 195.37 180.92 196.05 180.88 196.93 C 180.84 197.81 181.53 198.55 182.40 198.58 Z M 183.42 198.62 L 184.43 198.66 C 185.31 198.69 186.04 198.00 186.07 197.13 C 186.11 196.26 185.42 195.52 184.55 195.49 L 183.53 195.45 C 182.66 195.42 181.93 196.10 181.89 196.98 C 181.86 197.85 182.54 198.59 183.42 198.62 Z M 184.44 198.65 L 185.46 198.68 C 186.33 198.71 187.06 198.03 187.09 197.16 C 187.12 196.29 186.44 195.56 185.57 195.53 L 184.54 195.50 C 183.67 195.47 182.94 196.15 182.91 197.02 C 182.89 197.89 183.57 198.62 184.44 198.65 Z M 185.47 198.67 L 186.50 198.70 C 187.37 198.73 188.09 198.05 188.11 197.18 C 188.14 196.31 187.45 195.59 186.59 195.57 L 185.56 195.54 C 184.69 195.51 183.97 196.19 183.95 197.06 C 183.92 197.93 184.60 198.65 185.47 198.67 Z M 186.50 198.70 L 187.53 198.72 C 188.39 198.74 189.11 198.06 189.13 197.20 C 189.15 196.34 188.47 195.62 187.61 195.60 L 186.58 195.57 C 185.72 195.55 185.00 196.23 184.98 197.10 C 184.96 197.96 185.64 198.67 186.50 198.70 Z M 187.53 198.71 L 188.54 198.73 C 189.40 198.75 190.11 198.07 190.13 197.22 C 190.15 196.36 189.47 195.65 188.61 195.63 L 187.60 195.61 C 186.74 195.59 186.03 196.27 186.01 197.13 C 186.00 197.98 186.68 198.69 187.53 198.71 Z M 188.55 198.73 L 189.53 198.74 C 190.39 198.76 191.09 198.08 191.11 197.23 C 191.12 196.38 190.44 195.67 189.59 195.66 L 188.60 195.64 C 187.75 195.62 187.05 196.30 187.03 197.15 C 187.02 198.01 187.70 198.71 188.55 198.73 Z M 189.54 198.74 L 190.50 198.75 C 191.34 198.76 192.04 198.09 192.05 197.24 C 192.07 196.39 191.39 195.69 190.54 195.68 L 189.59 195.66 C 188.74 195.65 188.04 196.33 188.03 197.18 C 188.01 198.03 188.69 198.72 189.54 198.74 Z M 190.50 198.74 L 191.54 198.75 C 192.38 198.76 193.07 198.09 193.08 197.24 C 193.09 196.40 192.42 195.71 191.57 195.70 L 190.54 195.69 C 189.69 195.68 189.00 196.35 188.99 197.20 C 188.98 198.04 189.66 198.73 190.50 198.74 Z M 191.54 198.74 L 192.59 198.75 C 193.43 198.76 194.11 198.08 194.12 197.25 C 194.12 196.41 193.45 195.72 192.61 195.72 L 191.57 195.71 C 190.73 195.70 190.04 196.38 190.04 197.21 C 190.03 198.05 190.71 198.74 191.54 198.74 Z M 192.59 198.74 L 193.60 198.75 C 194.43 198.75 195.11 198.08 195.11 197.24 C 195.11 196.41 194.44 195.73 193.61 195.73 L 192.61 195.73 C 191.77 195.72 191.10 196.39 191.09 197.23 C 191.09 198.06 191.76 198.74 192.59 198.74 Z M 193.60 198.74 L 194.57 198.74 C 195.40 198.74 196.07 198.07 196.07 197.24 C 196.07 196.42 195.40 195.74 194.57 195.74 L 193.60 195.74 C 192.78 195.74 192.10 196.41 192.10 197.24 C 192.10 198.06 192.77 198.74 193.60 198.74 Z M 194.57 198.73 L 195.52 198.73 C 196.34 198.73 197.00 198.06 197.00 197.24 C 197.01 196.42 196.34 195.75 195.52 195.75 L 194.57 195.75 C 193.75 195.75 193.08 196.42 193.08 197.24 C 193.08 198.06 193.75 198.73 194.57 198.73 Z M 195.52 198.72 L 196.50 198.72 C 197.32 198.72 197.98 198.06 197.98 197.24 C 197.98 196.42 197.32 195.76 196.50 195.76 L 195.52 195.76 C 194.70 195.76 194.04 196.42 194.04 197.24 C 194.04 198.06 194.70 198.72 195.52 198.72 Z M 196.50 198.71 L 197.50 198.71 C 198.31 198.71 198.97 198.05 198.97 197.24 C 198.97 196.43 198.31 195.77 197.50 195.77 L 196.50 195.77 C 195.69 195.77 195.03 196.43 195.03 197.24 C 195.03 198.05 195.69 198.71 196.50 198.71 Z M 197.50 198.70 L 198.49 198.70 C 199.30 198.70 199.96 198.05 199.96 197.24 C 199.96 196.43 199.30 195.78 198.49 195.78 L 197.50 195.78 C 196.69 195.78 196.04 196.43 196.04 197.24 C 196.04 198.05 196.69 198.70 197.50 198.70 Z M 198.49 198.70 L 199.49 198.70 C 200.30 198.70 200.95 198.05 200.95 197.24 C 200.95 196.44 200.30 195.78 199.49 195.78 L 198.49 195.78 C 197.69 195.78 197.04 196.44 197.04 197.24 C 197.04 198.05 197.69 198.70 198.49 198.70 Z M 199.49 198.69 L 200.49 198.69 C 201.29 198.69 201.94 198.04 201.94 197.24 C 201.94 196.44 201.29 195.79 200.49 195.79 L 199.49 195.79 C 198.69 195.79 198.04 196.44 198.04 197.24 C 198.04 198.04 198.69 198.69 199.49 198.69 Z M 200.49 198.68 L 201.48 198.68 C 202.28 198.68 202.93 198.04 202.93 197.24 C 202.93 196.44 202.28 195.80 201.48 195.80 L 200.49 195.80 C 199.70 195.80 199.05 196.44 199.05 197.24 C 199.05 198.04 199.70 198.68 200.49 198.68 Z M 201.48 198.68 L 202.48 198.68 C 203.27 198.68 203.92 198.04 203.92 197.24 C 203.92 196.45 203.27 195.80 202.48 195.80 L 201.48 195.80 C 200.69 195.80 200.04 196.45 200.04 197.24 C 200.04 198.04 200.69 198.68 201.48 198.68 Z M 202.48 198.68 L 203.48 198.68 C 204.28 198.68 204.92 198.03 204.92 197.24 C 204.92 196.45 204.28 195.81 203.48 195.81 L 202.48 195.81 C 201.69 195.81 201.04 196.45 201.04 197.24 C 201.04 198.03 201.69 198.68 202.48 198.68 Z M 203.48 198.67 L 204.49 198.67 C 205.28 198.67 205.92 198.03 205.92 197.24 C 205.92 196.45 205.28 195.81 204.49 195.81 L 203.48 195.81 C 202.69 195.81 202.05 196.45 202.05 197.24 C 202.05 198.03 202.69 198.67 203.48 198.67 Z M 204.49 198.67 L 205.50 198.67 C 206.29 198.67 206.92 198.03 206.92 197.24 C 206.92 196.45 206.29 195.81 205.50 195.81 L 204.49 195.81 C 203.70 195.81 203.06 196.45 203.06 197.24 C 203.06 198.03 203.70 198.67 204.49 198.67 Z M 205.50 198.67 L 206.50 198.67 C 207.28 198.67 207.92 198.03 207.92 197.24 C 207.92 196.45 207.28 195.81 206.50 195.81 L 205.50 195.81 C 204.71 195.81 204.07 196.45 204.07 197.24 C 204.07 198.03 204.71 198.67 205.50 198.67 Z M 206.50 198.67 L 207.50 198.67 C 208.29 198.67 208.92 198.03 208.92 197.24 C 208.92 196.45 208.29 195.81 207.50 195.81 L 206.50 195.81 C 205.71 195.81 205.07 196.45 205.07 197.24 C 205.07 198.03 205.71 198.67 206.50 198.67 Z M 207.50 198.67 L 208.50 198.67 C 209.29 198.67 209.92 198.03 209.92 197.24 C 209.92 196.45 209.29 195.81 208.50 195.81 L 207.50 195.81 C 206.71 195.81 206.07 196.45 206.07 197.24 C 206.07 198.03 206.71 198.67 207.50 198.67 Z M 208.50 198.67 L 209.50 198.67 C 210.29 198.67 210.92 198.03 210.92 197.24 C 210.92 196.45 210.29 195.81 209.50 195.81 L 208.50 195.81 C 207.71 195.81 207.07 196.45 207.07 197.24 C 207.07 198.03 207.71 198.67 208.50 198.67 Z M 209.50 198.67 L 209.86 198.67 C 210.65 198.67 211.28 198.03 211.28 197.24 C 211.28 196.45 210.65 195.81 209.86 195.81 L 209.50 195.81 C 208.71 195.81 208.07 196.45 208.07 197.24 C 208.07 198.03 208.71 198.67 209.50 198.67 Z"
      fill="black"
      fill-rule="nonzero" /></svg>