<svg xmlns="http://www.w3.org/2000/svg" width="300" height="300" viewBox="0 0 300 300">
<path d="M 120.99 104.62 L 120.53 105.35 C 120.08 106.06 120.29 107.00 121.00 107.45 C 121.71 107.90 122.65 107.69 123.10 106.98 L 123.57 106.24 C 124.01 105.53 123.80 104.59 123.09 104.14 C 122.38 103.70 121.44 103.91 120.99 104.62 Z M 120.47 105.44 L 120.04 106.26 C 119.64 107.00 119.92 107.92 120.66 108.32 C 121.40 108.72 122.33 108.44 122.72 107.70 L 123.16 106.88 C 123.56 106.14 123.28 105.22 122.54 104.82 C 121.79 104.42 120.87 104.70 120.47 105.44 Z M 119.96 106.42 L 119.57 107.40 C 119.27 108.19 119.65 109.07 120.44 109.38 C 121.23 109.69 122.11 109.30 122.42 108.51 L 122.80 107.53 C 123.11 106.75 122.72 105.86 121.94 105.56 C 121.15 105.25 120.26 105.64 119.96 106.42 Z M 119.51 107.58 L 119.25 108.62 C 119.04 109.44 119.53 110.27 120.35 110.48 C 121.17 110.69 122.00 110.20 122.21 109.38 L 122.48 108.34 C 122.69 107.52 122.20 106.69 121.38 106.48 C 120.56 106.26 119.72 106.76 119.51 107.58 Z M 119.22 108.74 L 119.08 109.56 C 118.93 110.39 119.49 111.18 120.32 111.33 C 121.16 111.47 121.95 110.92 122.10 110.08 L 122.24 109.26 C 122.38 108.43 121.83 107.64 120.99 107.49 C 120.16 107.35 119.36 107.90 119.22 108.74 Z M 119.07 109.62 L 118.95 110.52 C 118.83 111.36 119.42 112.13 120.26 112.25 C 121.10 112.36 121.87 111.77 121.99 110.93 L 122.11 110.02 C 122.22 109.18 121.63 108.41 120.79 108.30 C 119.95 108.19 119.18 108.78 119.07 109.62 Z M 118.94 110.56 L 118.84 111.55 C 118.75 112.39 119.35 113.15 120.20 113.24 C 121.04 113.33 121.80 112.72 121.89 111.87 L 121.99 110.89 C 122.08 110.05 121.47 109.29 120.63 109.20 C 119.79 109.11 119.03 109.72 118.94 110.56 Z M 118.83 111.57 L 118.73 112.62 C 118.66 113.46 119.28 114.21 120.12 114.29 C 120.96 114.37 121.71 113.75 121.79 112.90 L 121.89 111.85 C 121.97 111.01 121.35 110.26 120.50 110.18 C 119.66 110.10 118.91 110.72 118.83 111.57 Z M 118.73 112.63 L 118.63 113.73 C 118.56 114.58 119.18 115.32 120.03 115.40 C 120.87 115.47 121.62 114.85 121.69 114.01 L 121.79 112.90 C 121.87 112.05 121.24 111.31 120.40 111.23 C 119.55 111.16 118.81 111.78 118.73 112.63 Z M 118.63 113.73 L 118.53 114.88 C 118.45 115.73 119.07 116.48 119.91 116.55 C 120.76 116.63 121.51 116.01 121.59 115.17 L 121.69 114.01 C 121.77 113.17 121.15 112.42 120.31 112.34 C 119.46 112.26 118.71 112.88 118.63 113.73 Z M 118.53 114.87 L 118.43 115.87 C 118.34 116.72 118.96 117.47 119.80 117.56 C 120.64 117.64 121.40 117.03 121.48 116.18 L 121.58 115.18 C 121.67 114.34 121.06 113.58 120.21 113.50 C 119.37 113.41 118.61 114.03 118.53 114.87 Z M 118.43 115.86 L 118.32 116.88 C 118.23 117.72 118.83 118.48 119.68 118.57 C 120.52 118.66 121.28 118.05 121.37 117.21 L 121.48 116.20 C 121.57 115.35 120.96 114.59 120.12 114.50 C 119.28 114.41 118.52 115.02 118.43 115.86 Z M 118.32 116.87 L 118.20 117.89 C 118.10 118.73 118.71 119.49 119.55 119.59 C 120.39 119.69 121.15 119.08 121.25 118.24 L 121.37 117.22 C 121.47 116.38 120.86 115.62 120.02 115.52 C 119.18 115.42 118.42 116.02 118.32 116.87 Z M 118.20 117.88 L 118.08 118.90 C 117.98 119.74 118.58 120.50 119.42 120.60 C 120.26 120.71 121.02 120.11 121.13 119.27 L 121.25 118.25 C 121.35 117.41 120.75 116.64 119.91 116.54 C 119.07 116.44 118.30 117.04 118.20 117.88 Z M 118.08 118.89 L 117.96 119.90 C 117.85 120.74 118.45 121.50 119.29 121.61 C 120.13 121.71 120.89 121.12 121.00 120.28 L 121.12 119.27 C 121.23 118.43 120.63 117.67 119.79 117.56 C 118.95 117.45 118.19 118.05 118.08 118.89 Z M 117.96 119.89 L 117.83 120.87 C 117.72 121.71 118.31 122.48 119.15 122.59 C 119.99 122.70 120.76 122.11 120.87 121.27 L 121.00 120.28 C 121.10 119.44 120.51 118.68 119.67 118.57 C 118.83 118.46 118.07 119.05 117.96 119.89 Z M 117.83 120.87 L 117.70 121.82 C 117.59 122.66 118.18 123.43 119.02 123.54 C 119.86 123.65 120.63 123.06 120.74 122.22 L 120.87 121.27 C 120.98 120.43 120.39 119.66 119.55 119.55 C 118.71 119.44 117.94 120.03 117.83 120.87 Z M 117.71 121.82 L 117.57 122.83 C 117.46 123.66 118.05 124.44 118.88 124.55 C 119.72 124.66 120.49 124.07 120.60 123.23 L 120.74 122.23 C 120.85 121.39 120.26 120.62 119.43 120.51 C 118.59 120.39 117.82 120.98 117.71 121.82 Z M 117.57 122.82 L 117.43 123.91 C 117.31 124.75 117.90 125.52 118.73 125.63 C 119.57 125.75 120.34 125.16 120.45 124.33 L 120.60 123.24 C 120.72 122.40 120.13 121.63 119.29 121.52 C 118.46 121.40 117.69 121.99 117.57 122.82 Z M 117.43 123.91 L 117.29 124.94 C 117.17 125.78 117.75 126.54 118.59 126.66 C 119.42 126.78 120.19 126.20 120.30 125.36 L 120.45 124.33 C 120.56 123.50 119.98 122.73 119.15 122.61 C 118.32 122.50 117.55 123.08 117.43 123.91 Z M 117.29 124.94 L 117.15 125.92 C 117.03 126.75 117.61 127.52 118.44 127.64 C 119.27 127.75 120.04 127.18 120.16 126.35 L 120.30 125.37 C 120.42 124.53 119.84 123.77 119.01 123.65 C 118.18 123.53 117.41 124.11 117.29 124.94 Z M 117.16 125.92 L 117.02 126.85 C 116.90 127.68 117.48 128.45 118.30 128.57 C 119.13 128.69 119.90 128.12 120.02 127.29 L 120.16 126.35 C 120.28 125.52 119.70 124.75 118.87 124.63 C 118.05 124.51 117.28 125.09 117.16 125.92 Z M 117.03 126.85 L 116.89 127.76 C 116.77 128.59 117.34 129.35 118.17 129.47 C 118.99 129.60 119.76 129.03 119.88 128.20 L 120.02 127.29 C 120.14 126.47 119.57 125.70 118.74 125.58 C 117.92 125.46 117.15 126.03 117.03 126.85 Z M 116.90 127.76 L 116.75 128.73 C 116.63 129.55 117.20 130.32 118.02 130.44 C 118.84 130.56 119.61 130.00 119.73 129.17 L 119.88 128.20 C 120.00 127.38 119.43 126.61 118.61 126.49 C 117.79 126.37 117.02 126.93 116.90 127.76 Z M 116.76 128.73 L 116.60 129.79 C 116.48 130.60 117.04 131.37 117.86 131.49 C 118.68 131.61 119.44 131.05 119.57 130.23 L 119.72 129.17 C 119.85 128.35 119.28 127.59 118.46 127.47 C 117.64 127.34 116.88 127.91 116.76 128.73 Z M 116.61 129.80 L 116.46 130.82 C 116.35 131.64 116.91 132.39 117.73 132.51 C 118.54 132.62 119.30 132.05 119.42 131.24 L 119.56 130.22 C 119.68 129.40 119.11 128.65 118.29 128.53 C 117.48 128.41 116.72 128.98 116.61 129.80 Z M 116.47 130.84 L 116.34 131.82 C 116.24 132.64 116.82 133.38 117.63 133.48 C 118.44 133.58 119.19 133.01 119.29 132.19 L 119.41 131.21 C 119.51 130.40 118.94 129.66 118.12 129.56 C 117.31 129.45 116.57 130.03 116.47 130.84 Z M 116.35 131.86 L 116.25 132.79 C 116.17 133.60 116.76 134.32 117.58 134.40 C 118.39 134.48 119.11 133.89 119.19 133.08 L 119.29 132.15 C 119.37 131.34 118.77 130.62 117.96 130.54 C 117.15 130.46 116.43 131.05 116.35 131.86 Z M 116.26 132.85 L 116.20 133.85 C 116.15 134.66 116.77 135.36 117.58 135.40 C 118.39 135.45 119.09 134.83 119.13 134.02 L 119.19 133.02 C 119.24 132.21 118.62 131.51 117.81 131.46 C 117.00 131.42 116.30 132.04 116.26 132.85 Z M 116.20 133.93 L 116.20 134.97 C 116.20 135.78 116.85 136.43 117.66 136.44 C 118.46 136.44 119.12 135.79 119.12 134.98 L 119.13 133.94 C 119.13 133.13 118.48 132.48 117.67 132.47 C 116.86 132.47 116.21 133.12 116.20 133.93 Z M 116.21 135.04 L 116.25 136.01 C 116.29 136.81 116.96 137.43 117.76 137.40 C 118.57 137.37 119.19 136.69 119.15 135.89 L 119.11 134.91 C 119.08 134.11 118.40 133.49 117.60 133.52 C 116.80 133.56 116.18 134.24 116.21 135.04 Z M 116.26 136.05 L 116.33 136.98 C 116.38 137.78 117.07 138.38 117.87 138.32 C 118.67 138.27 119.26 137.58 119.21 136.78 L 119.14 135.85 C 119.09 135.05 118.40 134.45 117.60 134.51 C 116.81 134.56 116.21 135.25 116.26 136.05 Z M 116.33 136.99 L 116.35 137.16 C 116.41 137.95 117.10 138.54 117.89 138.48 C 118.68 138.42 119.28 137.73 119.22 136.94 L 119.20 136.77 C 119.14 135.98 118.45 135.39 117.66 135.45 C 116.87 135.51 116.27 136.20 116.33 136.99 Z"
      fill="black"
      fill-rule="nonzero" /><path d="M 123.08 107.21 L 123.77 106.47 C 124.31 105.88 124.28 104.96 123.69 104.41 C 123.10 103.87 122.18 103.90 121.64 104.49 L 120.95 105.24 C 120.40 105.83 120.44 106.74 121.03 107.29 C 121.62 107.83 122.53 107.80 123.08 107.21 Z M 123.71 106.53 L 124.43 105.83 C 125.01 105.28 125.03 104.36 124.48 103.78 C 123.92 103.20 123.00 103.18 122.42 103.74 L 121.70 104.43 C 121.12 104.99 121.10 105.91 121.66 106.49 C 122.21 107.07 123.13 107.09 123.71 106.53 Z M 124.30 105.95 L 125.09 105.36 C 125.73 104.87 125.86 103.96 125.38 103.31 C 124.89 102.67 123.98 102.54 123.33 103.03 L 122.55 103.62 C 121.91 104.11 121.78 105.02 122.26 105.66 C 122.75 106.31 123.66 106.43 124.30 105.95 Z M 124.87 105.50 L 125.75 105.06 C 126.47 104.69 126.76 103.82 126.40 103.10 C 126.03 102.37 125.16 102.08 124.44 102.45 L 123.56 102.89 C 122.84 103.25 122.54 104.13 122.91 104.85 C 123.27 105.57 124.15 105.86 124.87 105.50 Z M 125.46 105.17 L 126.42 104.92 C 127.20 104.72 127.67 103.92 127.47 103.13 C 127.27 102.35 126.46 101.88 125.68 102.08 L 124.72 102.33 C 123.94 102.53 123.47 103.34 123.67 104.12 C 123.87 104.90 124.68 105.38 125.46 105.17 Z M 126.14 104.98 L 127.15 104.92 C 127.96 104.87 128.58 104.16 128.53 103.35 C 128.48 102.53 127.78 101.91 126.96 101.96 L 125.96 102.03 C 125.14 102.08 124.52 102.78 124.57 103.59 C 124.62 104.41 125.32 105.03 126.14 104.98 Z M 126.87 104.92 L 127.87 105.04 C 128.69 105.15 129.43 104.57 129.53 103.75 C 129.64 102.94 129.06 102.19 128.24 102.09 L 127.24 101.96 C 126.43 101.86 125.68 102.44 125.58 103.25 C 125.48 104.07 126.05 104.81 126.87 104.92 Z M 127.57 104.98 L 128.51 105.30 C 129.30 105.57 130.15 105.15 130.41 104.37 C 130.68 103.58 130.26 102.73 129.48 102.47 L 128.54 102.15 C 127.75 101.88 126.90 102.30 126.64 103.08 C 126.37 103.87 126.79 104.72 127.57 104.98 Z M 128.21 105.17 L 129.07 105.70 C 129.78 106.13 130.70 105.91 131.14 105.20 C 131.57 104.49 131.35 103.57 130.64 103.13 L 129.78 102.60 C 129.07 102.17 128.15 102.39 127.71 103.10 C 127.28 103.81 127.50 104.73 128.21 105.17 Z M 128.83 105.52 L 129.56 106.20 C 130.17 106.77 131.13 106.74 131.70 106.13 C 132.26 105.51 132.23 104.56 131.62 103.99 L 130.88 103.31 C 130.27 102.74 129.32 102.77 128.75 103.38 C 128.18 104.00 128.21 104.95 128.83 105.52 Z M 129.39 106.03 L 130.00 106.81 C 130.51 107.47 131.47 107.59 132.13 107.08 C 132.79 106.56 132.91 105.61 132.40 104.95 L 131.79 104.16 C 131.27 103.50 130.32 103.38 129.66 103.90 C 129.00 104.41 128.88 105.37 129.39 106.03 Z M 129.88 106.65 L 130.38 107.49 C 130.80 108.22 131.73 108.46 132.46 108.04 C 133.18 107.62 133.43 106.69 133.01 105.96 L 132.51 105.11 C 132.09 104.39 131.16 104.14 130.43 104.56 C 129.70 104.99 129.46 105.92 129.88 106.65 Z M 130.29 107.32 L 130.67 108.22 C 131.00 108.99 131.89 109.35 132.67 109.02 C 133.44 108.69 133.81 107.80 133.48 107.02 L 133.10 106.13 C 132.77 105.35 131.87 104.99 131.09 105.32 C 130.32 105.65 129.96 106.55 130.29 107.32 Z M 130.60 108.04 L 130.87 108.98 C 131.10 109.79 131.94 110.27 132.75 110.04 C 133.57 109.81 134.04 108.96 133.81 108.15 L 133.54 107.20 C 133.31 106.39 132.47 105.92 131.66 106.15 C 130.84 106.38 130.37 107.22 130.60 108.04 Z M 130.83 108.81 L 130.99 109.82 C 131.13 110.66 131.91 111.23 132.75 111.09 C 133.58 110.96 134.15 110.17 134.01 109.34 L 133.85 108.32 C 133.72 107.49 132.93 106.92 132.09 107.05 C 131.26 107.19 130.69 107.97 130.83 108.81 Z M 130.97 109.68 L 131.04 110.67 C 131.10 111.52 131.83 112.16 132.67 112.10 C 133.52 112.04 134.16 111.31 134.10 110.46 L 134.03 109.47 C 133.97 108.63 133.24 107.99 132.40 108.05 C 131.55 108.11 130.91 108.84 130.97 109.68 Z M 131.04 110.55 L 131.03 111.55 C 131.02 112.40 131.70 113.09 132.54 113.10 C 133.39 113.11 134.09 112.43 134.09 111.58 L 134.10 110.58 C 134.11 109.74 133.43 109.04 132.59 109.03 C 131.74 109.03 131.04 109.70 131.04 110.55 Z M 131.03 111.42 L 130.94 112.44 C 130.86 113.28 131.48 114.03 132.32 114.11 C 133.17 114.18 133.92 113.56 133.99 112.72 L 134.09 111.71 C 134.17 110.86 133.55 110.11 132.70 110.04 C 131.86 109.96 131.11 110.58 131.03 111.42 Z M 130.96 112.29 L 130.77 113.29 C 130.61 114.12 131.16 114.93 132.00 115.08 C 132.83 115.24 133.63 114.69 133.79 113.86 L 133.98 112.86 C 134.13 112.03 133.58 111.22 132.75 111.07 C 131.92 110.91 131.11 111.46 130.96 112.29 Z M 130.81 113.12 L 130.51 114.10 C 130.26 114.91 130.72 115.77 131.53 116.02 C 132.34 116.27 133.20 115.81 133.45 115.00 L 133.75 114.03 C 134.00 113.22 133.54 112.36 132.73 112.11 C 131.92 111.86 131.06 112.31 130.81 113.12 Z M 130.58 113.92 L 130.16 114.86 C 129.81 115.63 130.16 116.54 130.93 116.89 C 131.71 117.23 132.62 116.89 132.96 116.11 L 133.38 115.18 C 133.73 114.40 133.38 113.49 132.61 113.15 C 131.83 112.80 130.92 113.15 130.58 113.92 Z M 130.23 114.71 L 129.73 115.57 C 129.30 116.30 129.54 117.25 130.28 117.67 C 131.01 118.10 131.95 117.86 132.38 117.12 L 132.89 116.26 C 133.32 115.53 133.07 114.59 132.34 114.16 C 131.60 113.73 130.66 113.97 130.23 114.71 Z M 129.80 115.45 L 129.23 116.25 C 128.74 116.94 128.90 117.90 129.59 118.39 C 130.28 118.89 131.24 118.73 131.74 118.04 L 132.31 117.24 C 132.80 116.55 132.64 115.59 131.95 115.09 C 131.26 114.60 130.30 114.76 129.80 115.45 Z M 129.30 116.15 L 128.70 116.88 C 128.15 117.53 128.24 118.51 128.90 119.05 C 129.55 119.60 130.52 119.51 131.07 118.85 L 131.67 118.13 C 132.22 117.48 132.13 116.50 131.47 115.96 C 130.82 115.41 129.85 115.50 129.30 116.15 Z M 128.77 116.79 L 128.13 117.45 C 127.53 118.07 127.55 119.05 128.16 119.64 C 128.78 120.24 129.76 120.22 130.35 119.61 L 130.99 118.94 C 131.59 118.33 131.57 117.35 130.96 116.76 C 130.35 116.16 129.37 116.18 128.77 116.79 Z M 128.22 117.35 L 127.50 117.98 C 126.85 118.54 126.78 119.53 127.34 120.18 C 127.90 120.82 128.88 120.90 129.53 120.33 L 130.26 119.71 C 130.91 119.14 130.98 118.16 130.41 117.51 C 129.85 116.86 128.87 116.79 128.22 117.35 Z M 127.60 117.89 L 126.75 118.50 C 126.05 119.01 125.89 119.98 126.40 120.68 C 126.90 121.38 127.88 121.54 128.58 121.04 L 129.43 120.43 C 130.13 119.92 130.28 118.95 129.78 118.25 C 129.28 117.55 128.30 117.39 127.60 117.89 Z M 126.85 118.43 L 125.87 119.03 C 125.13 119.48 124.90 120.44 125.35 121.18 C 125.80 121.92 126.76 122.15 127.50 121.70 L 128.48 121.11 C 129.22 120.66 129.45 119.70 129.00 118.96 C 128.55 118.22 127.59 117.98 126.85 118.43 Z M 125.93 118.99 L 124.91 119.55 C 124.15 119.97 123.88 120.93 124.30 121.69 C 124.72 122.45 125.67 122.72 126.43 122.30 L 127.45 121.74 C 128.21 121.32 128.48 120.36 128.06 119.60 C 127.64 118.84 126.69 118.57 125.93 118.99 Z M 124.90 119.56 L 123.91 120.11 C 123.16 120.54 122.89 121.50 123.32 122.26 C 123.74 123.01 124.70 123.28 125.46 122.85 L 126.44 122.30 C 127.20 121.87 127.47 120.91 127.04 120.15 C 126.61 119.40 125.65 119.13 124.90 119.56 Z M 123.82 120.17 L 123.01 120.70 C 122.28 121.18 122.07 122.15 122.55 122.88 C 123.03 123.61 124.00 123.81 124.73 123.33 L 125.55 122.80 C 126.27 122.32 126.48 121.35 126.00 120.62 C 125.53 119.89 124.55 119.69 123.82 120.17 Z M 122.77 120.89 L 122.26 121.39 C 121.63 122.00 121.62 122.99 122.23 123.62 C 122.83 124.24 123.83 124.25 124.46 123.65 L 124.97 123.15 C 125.59 122.54 125.60 121.54 125.00 120.92 C 124.39 120.29 123.39 120.28 122.77 120.89 Z M 121.78 122.47 L 121.77 123.09 C 121.74 123.96 122.42 124.69 123.29 124.71 C 124.16 124.74 124.88 124.06 124.91 123.19 L 124.93 122.56 C 124.95 121.70 124.27 120.97 123.40 120.95 C 122.53 120.92 121.81 121.60 121.78 122.47 Z M 122.35 124.35 L 123.04 124.92 C 123.71 125.46 124.69 125.36 125.24 124.70 C 125.78 124.03 125.69 123.04 125.02 122.50 L 124.33 121.93 C 123.66 121.38 122.67 121.48 122.13 122.15 C 121.58 122.82 121.68 123.80 122.35 124.35 Z M 123.38 125.12 L 124.49 125.62 C 125.27 125.98 126.19 125.64 126.54 124.86 C 126.90 124.08 126.56 123.16 125.78 122.80 L 124.67 122.29 C 123.89 121.94 122.97 122.28 122.62 123.06 C 122.26 123.84 122.60 124.76 123.38 125.12 Z M 124.58 125.64 L 125.58 126.03 C 126.37 126.34 127.26 125.94 127.57 125.15 C 127.87 124.36 127.48 123.47 126.69 123.16 L 125.69 122.78 C 124.89 122.47 124.00 122.86 123.70 123.66 C 123.39 124.45 123.78 125.34 124.58 125.64 Z M 125.61 126.02 L 126.57 126.37 C 127.35 126.66 128.22 126.25 128.51 125.47 C 128.80 124.68 128.40 123.81 127.61 123.52 L 126.65 123.17 C 125.87 122.89 125.00 123.29 124.71 124.08 C 124.42 124.86 124.83 125.73 125.61 126.02 Z M 126.59 126.36 L 127.54 126.69 C 128.32 126.96 129.17 126.55 129.44 125.77 C 129.72 125.00 129.31 124.14 128.53 123.87 L 127.58 123.54 C 126.81 123.26 125.95 123.67 125.68 124.45 C 125.41 125.23 125.81 126.08 126.59 126.36 Z M 127.56 126.67 L 128.48 126.99 C 129.24 127.25 130.08 126.84 130.34 126.07 C 130.61 125.30 130.20 124.47 129.43 124.20 L 128.51 123.89 C 127.74 123.62 126.90 124.03 126.64 124.80 C 126.38 125.57 126.79 126.41 127.56 126.67 Z M 128.48 126.97 L 129.47 127.30 C 130.23 127.56 131.05 127.15 131.31 126.39 C 131.57 125.63 131.16 124.81 130.40 124.55 L 129.42 124.22 C 128.66 123.96 127.83 124.37 127.57 125.13 C 127.32 125.89 127.72 126.71 128.48 126.97 Z M 129.47 127.29 L 130.42 127.62 C 131.18 127.88 132.00 127.47 132.25 126.72 C 132.51 125.96 132.11 125.14 131.35 124.88 L 130.40 124.56 C 129.64 124.30 128.82 124.71 128.57 125.46 C 128.31 126.22 128.71 127.04 129.47 127.29 Z M 130.41 127.61 L 131.33 127.93 C 132.08 128.19 132.90 127.79 133.16 127.04 C 133.42 126.29 133.03 125.47 132.28 125.21 L 131.36 124.89 C 130.61 124.63 129.79 125.03 129.53 125.78 C 129.27 126.53 129.67 127.35 130.41 127.61 Z M 131.32 127.91 L 132.24 128.25 C 132.99 128.52 133.80 128.13 134.07 127.39 C 134.34 126.65 133.96 125.83 133.21 125.56 L 132.29 125.23 C 131.55 124.96 130.73 125.34 130.46 126.09 C 130.19 126.83 130.58 127.65 131.32 127.91 Z M 132.23 128.24 L 133.16 128.59 C 133.90 128.87 134.72 128.50 135.00 127.76 C 135.28 127.02 134.91 126.20 134.17 125.92 L 133.23 125.57 C 132.49 125.29 131.67 125.66 131.39 126.40 C 131.12 127.14 131.49 127.96 132.23 128.24 Z M 133.15 128.59 L 134.08 128.95 C 134.82 129.23 135.64 128.86 135.93 128.13 C 136.21 127.39 135.85 126.57 135.11 126.29 L 134.18 125.93 C 133.45 125.64 132.62 126.01 132.34 126.74 C 132.05 127.48 132.42 128.30 133.15 128.59 Z M 134.08 128.94 L 134.86 129.25 C 135.59 129.53 136.42 129.17 136.70 128.44 C 136.99 127.71 136.63 126.88 135.89 126.59 L 135.12 126.29 C 134.38 126.00 133.56 126.36 133.27 127.10 C 132.98 127.83 133.35 128.66 134.08 128.94 Z"
      fill="black"
      fill-rule="nonzero" /><path d="M 142.20 133.61 L 141.15 133.65 C 140.35 133.68 139.72 134.35 139.75 135.15 C 139.78 135.95 140.45 136.58 141.25 136.55 L 142.31 136.51 C 143.11 136.48 143.73 135.81 143.70 135.01 C 143.68 134.21 143.00 133.59 142.20 133.61 Z M 141.10 133.63 L 140.07 133.70 C 139.26 133.76 138.65 134.46 138.70 135.27 C 138.75 136.08 139.46 136.70 140.27 136.64 L 141.30 136.57 C 142.11 136.52 142.72 135.81 142.67 135.00 C 142.61 134.19 141.91 133.58 141.10 133.63 Z M 139.97 133.69 L 138.99 133.82 C 138.18 133.93 137.60 134.69 137.71 135.50 C 137.82 136.32 138.58 136.90 139.40 136.79 L 140.37 136.65 C 141.19 136.54 141.76 135.79 141.65 134.97 C 141.54 134.15 140.79 133.58 139.97 133.69 Z M 138.82 133.83 L 137.93 134.06 C 137.11 134.26 136.62 135.09 136.83 135.90 C 137.03 136.71 137.86 137.21 138.67 137.00 L 139.57 136.78 C 140.38 136.57 140.87 135.75 140.67 134.93 C 140.46 134.12 139.64 133.62 138.82 133.83 Z M 137.68 134.12 L 136.77 134.53 C 135.99 134.87 135.64 135.78 135.98 136.56 C 136.33 137.33 137.23 137.68 138.01 137.34 L 138.92 136.93 C 139.70 136.59 140.05 135.68 139.71 134.91 C 139.36 134.13 138.45 133.78 137.68 134.12 Z M 136.54 134.64 L 135.72 135.17 C 135.00 135.64 134.80 136.60 135.27 137.31 C 135.74 138.03 136.70 138.23 137.41 137.77 L 138.23 137.23 C 138.95 136.76 139.15 135.80 138.69 135.09 C 138.22 134.37 137.26 134.17 136.54 134.64 Z M 135.59 135.25 L 134.81 135.88 C 134.14 136.43 134.03 137.41 134.58 138.08 C 135.12 138.75 136.10 138.86 136.77 138.31 L 137.55 137.68 C 138.22 137.14 138.32 136.16 137.78 135.49 C 137.24 134.82 136.26 134.71 135.59 135.25 Z M 134.75 135.92 L 134.00 136.58 C 133.35 137.15 133.28 138.14 133.85 138.80 C 134.43 139.45 135.42 139.51 136.07 138.94 L 136.83 138.28 C 137.48 137.71 137.54 136.72 136.97 136.06 C 136.40 135.41 135.41 135.34 134.75 135.92 Z M 133.99 136.58 L 133.24 137.24 C 132.58 137.82 132.52 138.82 133.10 139.47 C 133.68 140.12 134.68 140.18 135.33 139.61 L 136.08 138.94 C 136.74 138.36 136.80 137.37 136.22 136.71 C 135.64 136.06 134.64 136.00 133.99 136.58 Z M 133.24 137.23 L 132.48 137.89 C 131.82 138.47 131.75 139.47 132.33 140.13 C 132.90 140.79 133.91 140.86 134.57 140.28 L 135.33 139.62 C 135.99 139.04 136.06 138.04 135.48 137.38 C 134.90 136.72 133.90 136.65 133.24 137.23 Z M 132.50 137.87 L 131.73 138.52 C 131.06 139.09 130.97 140.09 131.54 140.76 C 132.11 141.43 133.11 141.52 133.79 140.95 L 134.55 140.31 C 135.22 139.74 135.31 138.73 134.74 138.06 C 134.17 137.39 133.17 137.30 132.50 137.87 Z M 131.76 138.49 L 130.98 139.11 C 130.29 139.66 130.18 140.66 130.73 141.35 C 131.28 142.04 132.28 142.16 132.97 141.61 L 133.75 140.98 C 134.44 140.43 134.56 139.43 134.01 138.74 C 133.46 138.05 132.45 137.94 131.76 138.49 Z M 131.02 139.07 L 130.23 139.66 C 129.52 140.19 129.37 141.19 129.90 141.90 C 130.42 142.61 131.43 142.76 132.13 142.23 L 132.93 141.64 C 133.64 141.12 133.79 140.12 133.26 139.41 C 132.74 138.70 131.73 138.55 131.02 139.07 Z M 130.28 139.63 L 129.46 140.19 C 128.73 140.69 128.54 141.69 129.04 142.41 C 129.54 143.14 130.54 143.33 131.27 142.83 L 132.09 142.26 C 132.82 141.76 133.00 140.77 132.50 140.04 C 132.00 139.31 131.01 139.13 130.28 139.63 Z M 129.50 140.16 L 128.66 140.70 C 127.91 141.17 127.69 142.16 128.17 142.91 C 128.64 143.66 129.63 143.87 130.38 143.40 L 131.23 142.86 C 131.97 142.38 132.19 141.39 131.71 140.65 C 131.24 139.90 130.25 139.68 129.50 140.16 Z M 128.69 140.67 L 127.87 141.17 C 127.11 141.62 126.87 142.61 127.32 143.36 C 127.78 144.12 128.76 144.37 129.52 143.92 L 130.34 143.42 C 131.10 142.97 131.35 141.98 130.89 141.22 C 130.44 140.46 129.45 140.22 128.69 140.67 Z M 127.90 141.15 L 127.04 141.64 C 126.27 142.07 126.00 143.05 126.44 143.82 C 126.87 144.59 127.85 144.86 128.62 144.43 L 129.49 143.94 C 130.26 143.50 130.53 142.52 130.09 141.75 C 129.65 140.98 128.67 140.71 127.90 141.15 Z M 127.07 141.62 L 126.17 142.11 C 125.39 142.53 125.10 143.50 125.52 144.28 C 125.94 145.06 126.91 145.35 127.69 144.93 L 128.59 144.44 C 129.37 144.02 129.66 143.05 129.24 142.27 C 128.82 141.49 127.85 141.20 127.07 141.62 Z M 126.19 142.09 L 125.27 142.57 C 124.48 142.97 124.18 143.94 124.58 144.73 C 124.99 145.52 125.96 145.83 126.74 145.42 L 127.67 144.94 C 128.45 144.54 128.76 143.57 128.36 142.78 C 127.95 141.99 126.98 141.68 126.19 142.09 Z M 125.30 142.55 L 124.39 143.00 C 123.60 143.39 123.27 144.35 123.66 145.15 C 124.05 145.94 125.01 146.27 125.81 145.88 L 126.72 145.43 C 127.51 145.04 127.84 144.08 127.45 143.28 C 127.06 142.49 126.10 142.16 125.30 142.55 Z M 124.43 142.98 L 123.51 143.40 C 122.70 143.78 122.35 144.73 122.73 145.54 C 123.10 146.34 124.05 146.69 124.86 146.32 L 125.77 145.90 C 126.58 145.53 126.93 144.57 126.56 143.77 C 126.19 142.96 125.23 142.61 124.43 142.98 Z M 123.56 143.38 L 122.64 143.77 C 121.82 144.12 121.44 145.06 121.78 145.88 C 122.13 146.69 123.07 147.08 123.89 146.73 L 124.81 146.34 C 125.63 146.00 126.01 145.05 125.66 144.24 C 125.32 143.42 124.38 143.04 123.56 143.38 Z M 122.70 143.75 L 121.78 144.09 C 120.95 144.40 120.53 145.33 120.84 146.16 C 121.15 146.99 122.08 147.41 122.91 147.10 L 123.83 146.76 C 124.66 146.45 125.08 145.52 124.77 144.69 C 124.46 143.86 123.53 143.44 122.70 143.75 Z M 121.86 144.06 L 120.93 144.36 C 120.08 144.62 119.61 145.53 119.88 146.37 C 120.15 147.22 121.05 147.69 121.90 147.42 L 122.83 147.13 C 123.68 146.86 124.15 145.96 123.88 145.11 C 123.61 144.27 122.71 143.80 121.86 144.06 Z M 121.02 144.33 L 120.08 144.57 C 119.22 144.78 118.70 145.66 118.91 146.52 C 119.13 147.38 120.00 147.90 120.86 147.68 L 121.80 147.45 C 122.66 147.23 123.19 146.36 122.97 145.50 C 122.76 144.64 121.88 144.11 121.02 144.33 Z M 120.17 144.55 L 119.20 144.73 C 118.32 144.90 117.75 145.74 117.92 146.61 C 118.08 147.48 118.92 148.05 119.79 147.89 L 120.77 147.70 C 121.64 147.54 122.21 146.70 122.05 145.83 C 121.88 144.96 121.04 144.38 120.17 144.55 Z M 119.28 144.72 L 118.25 144.86 C 117.37 144.98 116.75 145.78 116.87 146.66 C 116.99 147.54 117.79 148.16 118.67 148.04 L 119.71 147.90 C 120.59 147.78 121.20 146.98 121.09 146.10 C 120.97 145.22 120.16 144.60 119.28 144.72 Z M 118.32 144.85 L 117.32 144.94 C 116.44 145.02 115.79 145.80 115.86 146.68 C 115.94 147.56 116.72 148.21 117.60 148.14 L 118.60 148.05 C 119.48 147.97 120.14 147.19 120.06 146.31 C 119.98 145.43 119.20 144.77 118.32 144.85 Z M 117.40 144.94 L 116.38 144.98 C 115.49 145.01 114.81 145.76 114.84 146.64 C 114.88 147.52 115.62 148.21 116.50 148.18 L 117.52 148.14 C 118.41 148.10 119.10 147.36 119.06 146.47 C 119.03 145.59 118.28 144.90 117.40 144.94 Z M 116.48 144.98 L 115.46 144.95 C 114.57 144.93 113.84 145.63 113.82 146.52 C 113.80 147.40 114.50 148.13 115.38 148.15 L 116.40 148.18 C 117.29 148.20 118.02 147.50 118.04 146.61 C 118.06 145.73 117.36 145.00 116.48 144.98 Z M 115.59 144.96 L 114.60 144.86 C 113.72 144.77 112.93 145.40 112.84 146.28 C 112.75 147.15 113.38 147.94 114.26 148.04 L 115.25 148.14 C 116.13 148.23 116.91 147.60 117.01 146.72 C 117.10 145.85 116.47 145.06 115.59 144.96 Z M 114.78 144.89 L 113.82 144.68 C 112.96 144.48 112.11 145.02 111.92 145.88 C 111.72 146.74 112.26 147.60 113.12 147.79 L 114.08 148.00 C 114.94 148.20 115.79 147.66 115.98 146.80 C 116.18 145.94 115.64 145.08 114.78 144.89 Z M 114.05 144.75 L 113.11 144.38 C 112.29 144.06 111.37 144.46 111.05 145.28 C 110.73 146.10 111.13 147.02 111.95 147.34 L 112.89 147.71 C 113.71 148.03 114.63 147.63 114.95 146.81 C 115.27 146.00 114.87 145.07 114.05 144.75 Z M 113.34 144.50 L 112.50 144.00 C 111.75 143.55 110.78 143.79 110.33 144.54 C 109.88 145.30 110.12 146.27 110.87 146.72 L 111.72 147.22 C 112.47 147.67 113.44 147.43 113.89 146.68 C 114.34 145.92 114.09 144.95 113.34 144.50 Z M 112.70 144.14 L 111.94 143.51 C 111.27 142.96 110.27 143.05 109.71 143.72 C 109.16 144.40 109.25 145.39 109.92 145.95 L 110.68 146.57 C 111.35 147.13 112.35 147.04 112.90 146.37 C 113.46 145.69 113.37 144.70 112.70 144.14 Z M 112.08 143.66 L 111.41 142.94 C 110.82 142.30 109.82 142.27 109.19 142.86 C 108.55 143.45 108.52 144.45 109.11 145.09 L 109.78 145.80 C 110.37 146.44 111.37 146.48 112.00 145.88 C 112.64 145.29 112.68 144.29 112.08 143.66 Z M 111.51 143.06 L 110.95 142.33 C 110.43 141.64 109.44 141.50 108.75 142.03 C 108.06 142.55 107.93 143.54 108.45 144.23 L 109.01 144.96 C 109.53 145.65 110.52 145.79 111.21 145.26 C 111.90 144.74 112.04 143.75 111.51 143.06 Z M 111.03 142.44 L 110.51 141.62 C 110.05 140.89 109.08 140.67 108.35 141.13 C 107.62 141.60 107.40 142.57 107.86 143.30 L 108.38 144.11 C 108.84 144.85 109.81 145.06 110.54 144.60 C 111.27 144.14 111.49 143.17 111.03 142.44 Z M 110.57 141.73 L 110.09 140.83 C 109.69 140.07 108.74 139.77 107.98 140.18 C 107.22 140.58 106.92 141.53 107.33 142.29 L 107.80 143.19 C 108.21 143.96 109.15 144.25 109.92 143.84 C 110.68 143.44 110.97 142.49 110.57 141.73 Z M 110.14 140.93 L 109.70 139.95 C 109.35 139.16 108.43 138.80 107.64 139.15 C 106.85 139.51 106.50 140.43 106.85 141.22 L 107.28 142.20 C 107.63 142.98 108.56 143.34 109.35 142.99 C 110.13 142.64 110.49 141.71 110.14 140.93 Z M 109.73 140.03 L 109.37 139.06 C 109.06 138.26 108.16 137.85 107.36 138.15 C 106.55 138.46 106.15 139.36 106.45 140.16 L 106.82 141.13 C 107.12 141.94 108.02 142.34 108.83 142.04 C 109.63 141.73 110.04 140.84 109.73 140.03 Z M 109.38 139.12 L 109.07 138.16 C 108.80 137.34 107.92 136.90 107.10 137.17 C 106.29 137.44 105.84 138.32 106.11 139.13 L 106.43 140.10 C 106.70 140.91 107.58 141.36 108.40 141.09 C 109.21 140.82 109.65 139.94 109.38 139.12 Z M 109.08 138.21 L 108.79 137.22 C 108.54 136.40 107.68 135.93 106.86 136.17 C 106.04 136.41 105.57 137.28 105.81 138.10 L 106.10 139.09 C 106.34 139.91 107.21 140.38 108.03 140.13 C 108.85 139.89 109.32 139.03 109.08 138.21 Z M 108.79 137.25 L 108.53 136.27 C 108.30 135.45 107.45 134.96 106.63 135.18 C 105.80 135.41 105.31 136.26 105.54 137.08 L 105.80 138.06 C 106.03 138.89 106.88 139.38 107.70 139.15 C 108.53 138.93 109.02 138.08 108.79 137.25 Z M 108.53 136.30 L 108.29 135.35 C 108.08 134.52 107.24 134.02 106.41 134.23 C 105.59 134.44 105.08 135.28 105.29 136.10 L 105.53 137.06 C 105.74 137.88 106.58 138.38 107.41 138.17 C 108.24 137.97 108.74 137.13 108.53 136.30 Z M 108.29 135.36 L 108.05 134.38 C 107.85 133.56 107.02 133.05 106.19 133.25 C 105.37 133.44 104.86 134.28 105.06 135.10 L 105.29 136.08 C 105.49 136.91 106.32 137.42 107.15 137.22 C 107.98 137.02 108.49 136.19 108.29 135.36 Z M 108.05 134.40 L 107.81 133.35 C 107.62 132.53 106.80 132.01 105.97 132.20 C 105.15 132.39 104.63 133.21 104.82 134.04 L 105.06 135.08 C 105.25 135.91 106.07 136.43 106.90 136.24 C 107.72 136.05 108.24 135.23 108.05 134.40 Z M 107.81 133.39 L 107.61 132.41 C 107.44 131.58 106.63 131.05 105.81 131.22 C 104.98 131.39 104.45 132.20 104.62 133.03 L 104.82 134.00 C 104.99 134.83 105.80 135.36 106.62 135.19 C 107.45 135.02 107.98 134.21 107.81 133.39 Z M 107.62 132.46 L 107.45 131.53 C 107.31 130.70 106.52 130.15 105.69 130.29 C 104.86 130.44 104.31 131.23 104.45 132.05 L 104.61 132.98 C 104.76 133.81 105.55 134.37 106.38 134.22 C 107.21 134.08 107.76 133.29 107.62 132.46 Z M 107.46 131.59 L 107.33 130.67 C 107.22 129.84 106.46 129.25 105.63 129.37 C 104.80 129.48 104.21 130.24 104.32 131.07 L 104.45 132.00 C 104.56 132.83 105.33 133.41 106.16 133.30 C 106.99 133.19 107.57 132.42 107.46 131.59 Z M 107.34 130.73 L 107.25 129.76 C 107.17 128.93 106.43 128.32 105.60 128.40 C 104.76 128.47 104.15 129.21 104.23 130.05 L 104.32 131.01 C 104.40 131.85 105.14 132.46 105.97 132.38 C 106.80 132.30 107.41 131.56 107.34 130.73 Z M 107.25 129.81 L 107.19 128.83 C 107.13 127.99 106.42 127.36 105.58 127.41 C 104.75 127.46 104.12 128.18 104.17 129.01 L 104.23 130.00 C 104.28 130.83 105.00 131.46 105.83 131.41 C 106.66 131.36 107.30 130.64 107.25 129.81 Z M 107.18 128.86 L 107.14 127.84 C 107.11 127.01 106.40 126.36 105.57 126.40 C 104.74 126.43 104.09 127.14 104.13 127.97 L 104.17 128.98 C 104.21 129.81 104.91 130.46 105.74 130.42 C 106.57 130.39 107.22 129.69 107.18 128.86 Z M 107.14 127.86 L 107.11 126.84 C 107.08 126.01 106.38 125.36 105.55 125.38 C 104.72 125.41 104.07 126.11 104.10 126.94 L 104.13 127.95 C 104.16 128.78 104.85 129.44 105.68 129.41 C 106.52 129.38 107.17 128.69 107.14 127.86 Z M 107.10 126.84 L 107.07 125.88 C 107.05 125.05 106.36 124.40 105.53 124.42 C 104.70 124.45 104.05 125.14 104.07 125.97 L 104.10 126.93 C 104.13 127.76 104.82 128.41 105.65 128.39 C 106.48 128.36 107.13 127.67 107.10 126.84 Z M 107.07 125.88 L 107.04 124.89 C 107.02 124.06 106.33 123.41 105.50 123.43 C 104.68 123.45 104.02 124.14 104.05 124.97 L 104.07 125.96 C 104.10 126.79 104.79 127.44 105.61 127.42 C 106.44 127.40 107.10 126.71 107.07 125.88 Z M 107.04 124.90 L 107.02 123.88 C 107.00 123.05 106.31 122.40 105.49 122.42 C 104.66 122.44 104.00 123.12 104.02 123.95 L 104.05 124.97 C 104.07 125.79 104.75 126.45 105.58 126.43 C 106.41 126.41 107.06 125.72 107.04 124.90 Z M 107.02 123.89 L 107.00 122.85 C 106.98 122.03 106.30 121.37 105.48 121.39 C 104.65 121.40 103.99 122.08 104.01 122.91 L 104.03 123.94 C 104.04 124.77 104.72 125.42 105.55 125.41 C 106.37 125.39 107.03 124.71 107.02 123.89 Z M 107.00 122.86 L 106.98 121.88 C 106.97 121.05 106.30 120.39 105.47 120.40 C 104.65 120.41 103.99 121.09 104.00 121.91 L 104.01 122.90 C 104.02 123.72 104.70 124.38 105.52 124.37 C 106.35 124.36 107.01 123.69 107.00 122.86 Z M 106.98 121.89 L 106.97 120.90 C 106.97 120.08 106.30 119.41 105.47 119.42 C 104.65 119.43 103.99 120.10 103.99 120.92 L 104.00 121.91 C 104.01 122.73 104.68 123.39 105.50 123.39 C 106.32 123.38 106.99 122.71 106.98 121.89 Z M 106.97 120.91 L 106.97 119.91 C 106.97 119.09 106.30 118.42 105.47 118.42 C 104.65 118.43 103.99 119.10 103.99 119.92 L 103.99 120.92 C 104.00 121.74 104.67 122.40 105.49 122.40 C 106.31 122.40 106.98 121.73 106.97 120.91 Z M 106.97 119.91 L 106.97 118.90 C 106.96 118.08 106.30 117.41 105.48 117.41 C 104.65 117.41 103.99 118.08 103.99 118.90 L 103.99 119.92 C 103.99 120.74 104.66 121.40 105.48 121.40 C 106.30 121.40 106.97 120.73 106.97 119.91 Z M 106.96 118.90 L 106.96 117.88 C 106.96 117.05 106.30 116.39 105.48 116.39 C 104.66 116.39 103.99 117.06 103.99 117.88 L 103.99 118.90 C 103.99 119.72 104.66 120.39 105.48 120.39 C 106.30 120.39 106.96 119.72 106.96 118.90 Z M 106.96 117.88 L 106.96 116.90 C 106.96 116.08 106.30 115.41 105.48 115.41 C 104.66 115.41 104.00 116.08 103.99 116.90 L 103.99 117.87 C 103.99 118.69 104.66 119.36 105.48 119.36 C 106.30 119.36 106.96 118.70 106.96 117.88 Z M 106.96 116.90 L 106.97 115.91 C 106.97 115.09 106.31 114.43 105.49 114.42 C 104.67 114.42 104.00 115.08 104.00 115.90 L 104.00 116.89 C 103.99 117.71 104.65 118.38 105.47 118.38 C 106.29 118.38 106.96 117.72 106.96 116.90 Z M 106.96 115.92 L 106.97 114.92 C 106.98 114.10 106.32 113.43 105.51 113.42 C 104.69 113.42 104.02 114.07 104.01 114.89 L 104.00 115.89 C 103.99 116.71 104.65 117.38 105.47 117.39 C 106.29 117.40 106.96 116.74 106.96 115.92 Z M 106.97 114.93 L 106.99 113.92 C 107.01 113.10 106.36 112.43 105.54 112.41 C 104.72 112.40 104.05 113.05 104.03 113.87 L 104.01 114.88 C 104.00 115.69 104.65 116.37 105.46 116.38 C 106.28 116.40 106.96 115.75 106.97 114.93 Z M 106.99 113.94 L 107.02 112.92 C 107.04 112.10 106.40 111.42 105.59 111.40 C 104.77 111.37 104.09 112.01 104.06 112.83 L 104.03 113.85 C 104.01 114.67 104.65 115.35 105.47 115.37 C 106.28 115.40 106.96 114.75 106.99 113.94 Z M 107.02 112.94 L 107.06 111.97 C 107.10 111.15 106.47 110.46 105.65 110.43 C 104.84 110.39 104.14 111.02 104.11 111.84 L 104.07 112.81 C 104.03 113.63 104.66 114.32 105.48 114.35 C 106.29 114.39 106.98 113.76 107.02 112.94 Z M 107.06 111.99 L 107.12 111.01 C 107.16 110.20 106.54 109.50 105.73 109.45 C 104.91 109.40 104.22 110.02 104.17 110.84 L 104.11 111.82 C 104.06 112.63 104.68 113.33 105.50 113.38 C 106.31 113.42 107.01 112.80 107.06 111.99 Z M 107.11 111.03 L 107.19 110.04 C 107.25 109.23 106.64 108.52 105.82 108.46 C 105.01 108.40 104.30 109.01 104.24 109.83 L 104.17 110.82 C 104.11 111.63 104.72 112.34 105.53 112.40 C 106.35 112.46 107.05 111.84 107.11 111.03 Z M 107.18 110.06 L 107.27 109.06 C 107.34 108.25 106.75 107.53 105.93 107.46 C 105.12 107.39 104.41 107.99 104.33 108.80 L 104.25 109.80 C 104.17 110.62 104.77 111.33 105.59 111.40 C 106.40 111.48 107.11 110.88 107.18 110.06 Z M 107.27 109.08 L 107.38 108.06 C 107.46 107.25 106.87 106.53 106.06 106.44 C 105.25 106.36 104.53 106.95 104.44 107.76 L 104.34 108.78 C 104.25 109.59 104.84 110.31 105.65 110.40 C 106.46 110.48 107.19 109.89 107.27 109.08 Z M 107.37 108.08 L 107.49 107.07 C 107.59 106.26 107.01 105.53 106.20 105.43 C 105.39 105.34 104.66 105.91 104.56 106.72 L 104.45 107.74 C 104.35 108.54 104.93 109.28 105.74 109.37 C 106.54 109.47 107.28 108.89 107.37 108.08 Z M 107.49 107.09 L 107.62 106.09 C 107.73 105.28 107.16 104.54 106.35 104.43 C 105.55 104.33 104.81 104.89 104.70 105.70 L 104.57 106.70 C 104.46 107.51 105.03 108.25 105.84 108.36 C 106.64 108.46 107.38 107.90 107.49 107.09 Z M 107.62 106.11 L 107.77 105.10 C 107.88 104.29 107.33 103.55 106.52 103.43 C 105.71 103.31 104.97 103.87 104.85 104.67 L 104.70 105.68 C 104.59 106.49 105.14 107.23 105.95 107.35 C 106.75 107.47 107.50 106.91 107.62 106.11 Z M 107.76 105.12 L 107.92 104.12 C 108.05 103.32 107.50 102.56 106.70 102.43 C 105.89 102.30 105.14 102.85 105.01 103.66 L 104.85 104.66 C 104.72 105.46 105.27 106.21 106.08 106.34 C 106.88 106.47 107.64 105.92 107.76 105.12 Z M 107.92 104.14 L 108.09 103.16 C 108.23 102.36 107.69 101.59 106.89 101.45 C 106.09 101.31 105.32 101.85 105.19 102.65 L 105.01 103.64 C 104.88 104.44 105.41 105.20 106.21 105.34 C 107.02 105.48 107.78 104.94 107.92 104.14 Z M 108.09 103.18 L 108.27 102.23 C 108.42 101.43 107.89 100.66 107.09 100.50 C 106.29 100.35 105.52 100.88 105.37 101.68 L 105.19 102.63 C 105.04 103.43 105.56 104.20 106.36 104.35 C 107.16 104.51 107.93 103.98 108.09 103.18 Z M 108.26 102.25 L 108.47 101.22 C 108.64 100.42 108.13 99.64 107.33 99.48 C 106.53 99.31 105.75 99.82 105.59 100.62 L 105.37 101.65 C 105.21 102.45 105.72 103.23 106.52 103.40 C 107.32 103.56 108.10 103.05 108.26 102.25 Z M 108.47 101.25 L 108.70 100.24 C 108.88 99.45 108.38 98.66 107.59 98.48 C 106.80 98.30 106.01 98.79 105.83 99.59 L 105.60 100.59 C 105.41 101.39 105.91 102.18 106.70 102.36 C 107.50 102.54 108.29 102.04 108.47 101.25 Z M 108.69 100.27 L 108.93 99.31 C 109.13 98.52 108.65 97.72 107.86 97.52 C 107.07 97.32 106.27 97.80 106.08 98.59 L 105.83 99.56 C 105.63 100.34 106.11 101.15 106.90 101.34 C 107.69 101.54 108.49 101.06 108.69 100.27 Z M 108.93 99.34 L 109.18 98.41 C 109.40 97.62 108.94 96.81 108.15 96.59 C 107.37 96.38 106.56 96.84 106.34 97.62 L 106.08 98.56 C 105.87 99.34 106.33 100.15 107.11 100.37 C 107.90 100.59 108.71 100.13 108.93 99.34 Z M 109.17 98.44 L 109.45 97.53 C 109.68 96.75 109.24 95.93 108.46 95.70 C 107.68 95.46 106.86 95.90 106.62 96.68 L 106.35 97.59 C 106.12 98.37 106.56 99.19 107.34 99.43 C 108.12 99.66 108.94 99.22 109.17 98.44 Z M 109.44 97.56 L 109.75 96.59 C 110.00 95.81 109.58 94.98 108.80 94.73 C 108.03 94.48 107.20 94.90 106.95 95.68 L 106.63 96.65 C 106.38 97.43 106.80 98.26 107.58 98.51 C 108.35 98.76 109.18 98.34 109.44 97.56 Z M 109.74 96.62 L 110.08 95.66 C 110.35 94.89 109.94 94.05 109.17 93.78 C 108.41 93.51 107.57 93.92 107.30 94.69 L 106.96 95.65 C 106.69 96.41 107.09 97.25 107.86 97.52 C 108.63 97.79 109.47 97.39 109.74 96.62 Z M 110.06 95.70 L 110.42 94.76 C 110.71 94.00 110.32 93.15 109.56 92.86 C 108.80 92.57 107.95 92.96 107.66 93.72 L 107.31 94.65 C 107.02 95.41 107.40 96.26 108.16 96.55 C 108.93 96.84 109.78 96.46 110.06 95.70 Z M 110.41 94.80 L 110.77 93.89 C 111.08 93.14 110.72 92.28 109.97 91.97 C 109.21 91.66 108.35 92.02 108.05 92.78 L 107.68 93.68 C 107.37 94.44 107.73 95.30 108.48 95.60 C 109.24 95.91 110.10 95.55 110.41 94.80 Z M 110.76 93.93 L 111.16 93.01 C 111.49 92.27 111.15 91.40 110.41 91.07 C 109.66 90.74 108.79 91.08 108.46 91.83 L 108.06 92.74 C 107.73 93.49 108.07 94.36 108.82 94.68 C 109.56 95.01 110.43 94.67 110.76 93.93 Z M 111.14 93.05 L 111.59 92.12 C 111.94 91.39 111.62 90.51 110.89 90.16 C 110.15 89.81 109.27 90.12 108.92 90.86 L 108.48 91.79 C 108.13 92.52 108.44 93.40 109.18 93.75 C 109.91 94.10 110.79 93.79 111.14 93.05 Z M 111.57 92.16 L 112.02 91.27 C 112.40 90.55 112.11 89.66 111.39 89.29 C 110.67 88.91 109.78 89.20 109.40 89.92 L 108.94 90.81 C 108.57 91.54 108.86 92.43 109.58 92.80 C 110.30 93.17 111.19 92.89 111.57 92.16 Z M 112.00 91.32 L 112.48 90.47 C 112.87 89.76 112.62 88.86 111.91 88.46 C 111.20 88.06 110.30 88.32 109.90 89.03 L 109.43 89.88 C 109.03 90.59 109.28 91.49 109.99 91.88 C 110.70 92.28 111.60 92.03 112.00 91.32 Z M 112.45 90.52 L 112.96 89.67 C 113.39 88.97 113.17 88.07 112.47 87.64 C 111.78 87.22 110.87 87.44 110.44 88.13 L 109.93 88.98 C 109.50 89.68 109.73 90.58 110.42 91.01 C 111.12 91.43 112.02 91.21 112.45 90.52 Z M 112.93 89.72 L 113.50 88.87 C 113.95 88.19 113.77 87.27 113.09 86.82 C 112.42 86.37 111.50 86.55 111.05 87.23 L 110.48 88.08 C 110.02 88.76 110.21 89.68 110.88 90.13 C 111.56 90.58 112.48 90.40 112.93 89.72 Z M 113.46 88.92 L 114.05 88.12 C 114.54 87.46 114.40 86.54 113.74 86.06 C 113.08 85.57 112.16 85.71 111.67 86.37 L 111.08 87.17 C 110.60 87.83 110.74 88.76 111.40 89.24 C 112.06 89.72 112.98 89.58 113.46 88.92 Z M 114.01 88.18 L 114.62 87.43 C 115.14 86.79 115.04 85.86 114.41 85.35 C 113.77 84.83 112.84 84.93 112.33 85.56 L 111.72 86.31 C 111.20 86.95 111.30 87.88 111.93 88.39 C 112.57 88.91 113.50 88.81 114.01 88.18 Z M 114.57 87.49 L 115.24 86.74 C 115.79 86.13 115.74 85.20 115.14 84.65 C 114.53 84.11 113.59 84.15 113.05 84.76 L 112.38 85.50 C 111.83 86.11 111.88 87.05 112.48 87.59 C 113.09 88.14 114.02 88.09 114.57 87.49 Z M 115.19 86.80 L 115.90 86.09 C 116.48 85.51 116.47 84.57 115.89 83.99 C 115.31 83.42 114.38 83.42 113.80 84.00 L 113.10 84.71 C 112.52 85.29 112.52 86.22 113.10 86.80 C 113.68 87.38 114.62 87.37 115.19 86.80 Z M 115.86 86.13 L 116.58 85.46 C 117.19 84.90 117.22 83.96 116.67 83.36 C 116.11 82.76 115.17 82.73 114.57 83.28 L 113.84 83.96 C 113.24 84.51 113.21 85.45 113.76 86.05 C 114.32 86.65 115.26 86.69 115.86 86.13 Z M 116.55 85.49 L 117.28 84.86 C 117.90 84.32 117.96 83.38 117.42 82.76 C 116.89 82.15 115.95 82.08 115.33 82.62 L 114.60 83.25 C 113.99 83.79 113.92 84.72 114.46 85.34 C 115.00 85.96 115.93 86.03 116.55 85.49 Z M 117.23 84.90 L 117.97 84.32 C 118.61 83.81 118.72 82.87 118.21 82.23 C 117.70 81.59 116.77 81.48 116.12 81.99 L 115.38 82.57 C 114.74 83.08 114.63 84.02 115.14 84.66 C 115.65 85.30 116.58 85.41 117.23 84.90 Z M 117.86 84.39 L 118.69 83.85 C 119.38 83.39 119.57 82.47 119.11 81.79 C 118.66 81.10 117.74 80.91 117.05 81.37 L 116.23 81.91 C 115.54 82.36 115.35 83.29 115.80 83.97 C 116.26 84.66 117.18 84.84 117.86 84.39 Z M 118.55 83.93 L 119.51 83.44 C 120.24 83.07 120.53 82.18 120.16 81.44 C 119.79 80.71 118.89 80.42 118.16 80.79 L 117.20 81.28 C 116.47 81.65 116.17 82.55 116.55 83.28 C 116.92 84.01 117.81 84.30 118.55 83.93 Z M 119.36 83.51 L 120.22 83.18 C 120.99 82.89 121.38 82.03 121.09 81.26 C 120.80 80.49 119.94 80.11 119.17 80.40 L 118.30 80.72 C 117.54 81.02 117.15 81.88 117.44 82.64 C 117.73 83.41 118.59 83.80 119.36 83.51 Z M 120.11 83.22 L 121.03 82.96 C 121.82 82.73 122.27 81.90 122.04 81.11 C 121.81 80.32 120.99 79.86 120.20 80.09 L 119.28 80.36 C 118.49 80.59 118.04 81.42 118.27 82.21 C 118.50 83.00 119.32 83.45 120.11 83.22 Z M 120.94 82.98 L 121.93 82.76 C 122.73 82.58 123.24 81.78 123.05 80.98 C 122.87 80.17 122.08 79.67 121.27 79.85 L 120.29 80.07 C 119.48 80.25 118.98 81.05 119.16 81.85 C 119.34 82.66 120.14 83.16 120.94 82.98 Z M 121.85 82.78 L 122.89 82.60 C 123.70 82.46 124.25 81.69 124.11 80.88 C 123.97 80.06 123.20 79.52 122.39 79.65 L 121.35 79.83 C 120.54 79.97 119.99 80.74 120.13 81.55 C 120.26 82.37 121.04 82.91 121.85 82.78 Z M 122.82 82.61 L 123.88 82.48 C 124.70 82.38 125.29 81.64 125.19 80.82 C 125.09 80.00 124.34 79.41 123.52 79.51 L 122.46 79.64 C 121.64 79.74 121.05 80.49 121.15 81.31 C 121.25 82.13 122.00 82.71 122.82 82.61 Z M 123.82 82.49 L 124.79 82.41 C 125.62 82.35 126.23 81.63 126.17 80.80 C 126.10 79.98 125.38 79.36 124.56 79.43 L 123.59 79.50 C 122.76 79.57 122.15 80.29 122.21 81.11 C 122.28 81.94 123.00 82.55 123.82 82.49 Z M 124.72 82.42 L 125.71 82.39 C 126.54 82.36 127.19 81.67 127.16 80.84 C 127.14 80.01 126.44 79.36 125.61 79.39 L 124.63 79.42 C 123.80 79.45 123.15 80.14 123.18 80.97 C 123.20 81.80 123.89 82.45 124.72 82.42 Z M 125.62 82.39 L 126.62 82.42 C 127.45 82.44 128.14 81.78 128.16 80.95 C 128.18 80.12 127.52 79.43 126.69 79.41 L 125.70 79.38 C 124.87 79.36 124.18 80.02 124.16 80.85 C 124.14 81.68 124.79 82.37 125.62 82.39 Z M 126.52 82.42 L 127.53 82.51 C 128.36 82.58 129.09 81.96 129.16 81.13 C 129.24 80.30 128.62 79.57 127.79 79.50 L 126.79 79.41 C 125.96 79.34 125.22 79.95 125.15 80.78 C 125.08 81.61 125.69 82.34 126.52 82.42 Z M 127.42 82.50 L 128.43 82.66 C 129.26 82.79 130.03 82.23 130.16 81.40 C 130.30 80.57 129.73 79.80 128.91 79.67 L 127.90 79.51 C 127.07 79.37 126.29 79.94 126.16 80.76 C 126.03 81.59 126.59 82.36 127.42 82.50 Z M 128.32 82.64 L 129.28 82.87 C 130.10 83.06 130.92 82.56 131.11 81.74 C 131.31 80.93 130.80 80.11 129.98 79.91 L 129.02 79.68 C 128.20 79.49 127.38 80.00 127.19 80.81 C 127.00 81.63 127.50 82.45 128.32 82.64 Z M 129.18 82.84 L 130.11 83.14 C 130.91 83.39 131.77 82.94 132.02 82.14 C 132.27 81.34 131.83 80.48 131.03 80.23 L 130.09 79.94 C 129.29 79.69 128.43 80.13 128.18 80.93 C 127.93 81.74 128.37 82.59 129.18 82.84 Z M 130.01 83.11 L 130.94 83.47 C 131.73 83.78 132.61 83.39 132.92 82.60 C 133.23 81.82 132.84 80.93 132.05 80.62 L 131.12 80.26 C 130.34 79.96 129.45 80.34 129.15 81.13 C 128.84 81.92 129.23 82.80 130.01 83.11 Z M 130.85 83.44 L 131.76 83.86 C 132.53 84.22 133.44 83.89 133.80 83.12 C 134.16 82.36 133.82 81.44 133.06 81.08 L 132.14 80.66 C 131.38 80.30 130.47 80.63 130.11 81.40 C 129.75 82.17 130.08 83.08 130.85 83.44 Z M 131.67 83.82 L 132.56 84.31 C 133.30 84.72 134.24 84.44 134.65 83.70 C 135.05 82.95 134.78 82.02 134.04 81.61 L 133.15 81.12 C 132.40 80.72 131.47 80.99 131.06 81.73 C 130.65 82.48 130.93 83.41 131.67 83.82 Z M 132.47 84.26 L 133.33 84.81 C 134.05 85.26 135.01 85.05 135.46 84.33 C 135.92 83.61 135.70 82.66 134.98 82.20 L 134.12 81.66 C 133.40 81.20 132.45 81.42 132.00 82.14 C 131.54 82.85 131.75 83.81 132.47 84.26 Z M 133.25 84.76 L 134.10 85.38 C 134.79 85.88 135.76 85.73 136.27 85.04 C 136.77 84.35 136.62 83.38 135.93 82.88 L 135.07 82.26 C 134.38 81.75 133.41 81.90 132.91 82.59 C 132.40 83.29 132.56 84.25 133.25 84.76 Z M 134.03 85.33 L 134.85 86.00 C 135.51 86.55 136.49 86.45 137.03 85.79 C 137.58 85.13 137.48 84.15 136.82 83.61 L 136.00 82.93 C 135.34 82.39 134.36 82.48 133.82 83.14 C 133.27 83.81 133.37 84.78 134.03 85.33 Z M 134.79 85.96 L 135.56 86.66 C 136.19 87.24 137.18 87.19 137.76 86.55 C 138.34 85.92 138.29 84.93 137.65 84.35 L 136.88 83.65 C 136.25 83.07 135.26 83.12 134.68 83.76 C 134.10 84.39 134.15 85.38 134.79 85.96 Z M 135.51 86.62 L 136.22 87.32 C 136.83 87.93 137.82 87.92 138.43 87.30 C 139.04 86.69 139.03 85.70 138.41 85.09 L 137.70 84.39 C 137.09 83.78 136.10 83.79 135.49 84.41 C 134.88 85.02 134.89 86.01 135.51 86.62 Z M 136.18 87.29 L 136.83 87.97 C 137.42 88.60 138.42 88.63 139.05 88.03 C 139.67 87.43 139.70 86.44 139.10 85.81 L 138.46 85.12 C 137.86 84.50 136.86 84.47 136.24 85.07 C 135.61 85.66 135.58 86.66 136.18 87.29 Z M 136.79 87.94 L 137.42 88.64 C 138.00 89.29 139.00 89.34 139.65 88.76 C 140.29 88.18 140.35 87.18 139.77 86.54 L 139.14 85.84 C 138.56 85.19 137.56 85.14 136.91 85.72 C 136.26 86.30 136.21 87.29 136.79 87.94 Z M 137.39 88.61 L 138.12 89.47 C 138.68 90.14 139.68 90.22 140.34 89.65 C 141.01 89.09 141.09 88.09 140.53 87.43 L 139.80 86.57 C 139.24 85.90 138.24 85.82 137.57 86.39 C 136.91 86.95 136.82 87.95 137.39 88.61 Z M 138.08 89.43 L 138.69 90.21 C 139.23 90.89 140.23 91.01 140.92 90.47 C 141.60 89.93 141.72 88.94 141.18 88.25 L 140.57 87.47 C 140.02 86.78 139.03 86.67 138.34 87.21 C 137.66 87.75 137.54 88.74 138.08 89.43 Z M 138.66 90.16 L 139.19 90.90 C 139.71 91.60 140.70 91.76 141.41 91.24 C 142.11 90.73 142.27 89.73 141.75 89.03 L 141.22 88.29 C 140.70 87.59 139.71 87.43 139.00 87.95 C 138.29 88.46 138.14 89.46 138.66 90.16 Z M 139.16 90.86 L 139.69 91.62 C 140.18 92.35 141.17 92.53 141.89 92.04 C 142.62 91.54 142.80 90.55 142.31 89.83 L 141.78 89.06 C 141.29 88.34 140.30 88.16 139.57 88.65 C 138.85 89.15 138.67 90.14 139.16 90.86 Z M 139.66 91.59 L 140.20 92.43 C 140.68 93.16 141.66 93.37 142.40 92.90 C 143.14 92.42 143.35 91.44 142.87 90.70 L 142.33 89.86 C 141.85 89.13 140.87 88.92 140.13 89.39 C 139.40 89.87 139.18 90.85 139.66 91.59 Z M 140.18 92.39 L 140.70 93.25 C 141.16 94.00 142.14 94.23 142.89 93.77 C 143.64 93.31 143.87 92.34 143.42 91.59 L 142.89 90.73 C 142.44 89.98 141.46 89.75 140.71 90.21 C 139.96 90.66 139.72 91.64 140.18 92.39 Z M 140.68 93.21 L 141.18 94.08 C 141.62 94.84 142.60 95.10 143.36 94.66 C 144.12 94.22 144.38 93.25 143.94 92.49 L 143.44 91.62 C 143.00 90.86 142.02 90.60 141.26 91.04 C 140.50 91.48 140.24 92.45 140.68 93.21 Z M 141.17 94.05 L 141.64 94.91 C 142.06 95.68 143.03 95.96 143.80 95.54 C 144.57 95.11 144.85 94.14 144.43 93.37 L 143.96 92.51 C 143.53 91.74 142.56 91.46 141.79 91.89 C 141.02 92.31 140.74 93.28 141.17 94.05 Z M 141.62 94.88 L 142.09 95.76 C 142.50 96.54 143.46 96.84 144.24 96.43 C 145.02 96.02 145.32 95.06 144.91 94.28 L 144.44 93.40 C 144.03 92.62 143.07 92.32 142.29 92.73 C 141.51 93.14 141.21 94.10 141.62 94.88 Z M 142.07 95.74 L 142.53 96.65 C 142.93 97.44 143.89 97.75 144.68 97.35 C 145.46 96.96 145.78 96.00 145.38 95.21 L 144.92 94.30 C 144.52 93.51 143.56 93.20 142.78 93.60 C 141.99 93.99 141.68 94.95 142.07 95.74 Z M 142.52 96.63 L 142.96 97.54 C 143.35 98.33 144.31 98.66 145.10 98.28 C 145.89 97.89 146.22 96.93 145.83 96.14 L 145.39 95.23 C 145.01 94.44 144.05 94.11 143.26 94.50 C 142.47 94.88 142.14 95.84 142.52 96.63 Z M 142.95 97.51 L 143.38 98.43 C 143.75 99.23 144.70 99.58 145.50 99.21 C 146.29 98.83 146.64 97.89 146.27 97.09 L 145.85 96.17 C 145.48 95.37 144.53 95.02 143.73 95.39 C 142.93 95.76 142.58 96.71 142.95 97.51 Z M 143.36 98.39 L 143.76 99.31 C 144.10 100.12 145.04 100.50 145.85 100.15 C 146.66 99.80 147.04 98.86 146.69 98.05 L 146.29 97.13 C 145.94 96.32 145.00 95.94 144.19 96.29 C 143.38 96.64 143.01 97.58 143.36 98.39 Z M 143.73 99.25 L 144.09 100.17 C 144.40 101.00 145.33 101.41 146.15 101.09 C 146.97 100.77 147.38 99.85 147.06 99.03 L 146.71 98.11 C 146.39 97.29 145.47 96.88 144.65 97.19 C 143.83 97.51 143.42 98.43 143.73 99.25 Z M 144.06 100.10 L 144.38 101.07 C 144.65 101.91 145.55 102.37 146.39 102.09 C 147.23 101.82 147.68 100.92 147.41 100.08 L 147.09 99.10 C 146.82 98.27 145.92 97.81 145.08 98.08 C 144.24 98.36 143.79 99.26 144.06 100.10 Z M 144.36 100.99 L 144.61 101.95 C 144.84 102.80 145.72 103.30 146.57 103.08 C 147.42 102.85 147.92 101.97 147.69 101.12 L 147.43 100.16 C 147.20 99.31 146.33 98.81 145.48 99.04 C 144.63 99.27 144.13 100.14 144.36 100.99 Z M 144.60 101.88 L 144.81 102.84 C 145.00 103.70 145.85 104.24 146.70 104.05 C 147.56 103.86 148.11 103.02 147.92 102.16 L 147.71 101.20 C 147.52 100.34 146.67 99.79 145.81 99.98 C 144.95 100.17 144.41 101.02 144.60 101.88 Z M 144.80 102.77 L 144.97 103.75 C 145.12 104.61 145.95 105.19 146.81 105.03 C 147.68 104.88 148.25 104.06 148.10 103.19 L 147.93 102.22 C 147.78 101.36 146.95 100.78 146.09 100.93 C 145.22 101.08 144.64 101.91 144.80 102.77 Z M 144.96 103.69 L 145.10 104.68 C 145.22 105.54 146.03 106.15 146.90 106.03 C 147.76 105.90 148.37 105.10 148.25 104.23 L 148.11 103.25 C 147.99 102.38 147.18 101.77 146.31 101.90 C 145.45 102.02 144.84 102.82 144.96 103.69 Z M 145.10 104.63 L 145.21 105.63 C 145.30 106.50 146.09 107.12 146.96 107.03 C 147.83 106.93 148.46 106.15 148.36 105.28 L 148.25 104.28 C 148.16 103.41 147.37 102.78 146.50 102.88 C 145.63 102.97 145.00 103.76 145.10 104.63 Z M 145.21 105.58 L 145.29 106.58 C 145.36 107.45 146.13 108.10 147.00 108.03 C 147.87 107.95 148.51 107.19 148.44 106.32 L 148.36 105.32 C 148.29 104.45 147.52 103.80 146.65 103.88 C 145.78 103.95 145.14 104.71 145.21 105.58 Z M 145.29 106.54 L 145.35 107.53 C 145.40 108.40 146.15 109.06 147.02 109.01 C 147.89 108.95 148.55 108.21 148.50 107.34 L 148.44 106.35 C 148.39 105.49 147.64 104.82 146.77 104.88 C 145.90 104.93 145.24 105.67 145.29 106.54 Z M 145.36 107.50 L 145.40 108.50 C 145.43 109.36 146.17 110.04 147.03 110.00 C 147.90 109.96 148.57 109.23 148.53 108.37 L 148.49 107.37 C 148.46 106.50 147.73 105.83 146.86 105.86 C 145.99 105.90 145.32 106.63 145.36 107.50 Z M 145.40 108.47 L 145.43 109.49 C 145.45 110.35 146.17 111.03 147.03 111.01 C 147.90 110.99 148.58 110.27 148.55 109.41 L 148.53 108.39 C 148.51 107.53 147.79 106.85 146.93 106.87 C 146.06 106.89 145.38 107.61 145.40 108.47 Z M 145.44 109.47 L 145.45 110.46 C 145.47 111.32 146.17 112.00 147.03 111.99 C 147.89 111.98 148.58 111.27 148.56 110.41 L 148.55 109.43 C 148.53 108.57 147.83 107.88 146.97 107.90 C 146.11 107.91 145.43 108.61 145.44 109.47 Z M 145.46 110.45 L 145.47 111.44 C 145.48 112.29 146.17 112.98 147.03 112.97 C 147.88 112.97 148.57 112.27 148.56 111.42 L 148.55 110.42 C 148.55 109.57 147.85 108.88 147.00 108.89 C 146.14 108.89 145.46 109.59 145.46 110.45 Z M 145.48 111.43 L 145.48 112.44 C 145.48 113.29 146.17 113.98 147.02 113.97 C 147.87 113.97 148.56 113.28 148.55 112.43 L 148.55 111.43 C 148.55 110.58 147.86 109.89 147.01 109.89 C 146.16 109.89 145.48 110.58 145.48 111.43 Z M 145.49 112.44 L 145.49 113.44 C 145.49 114.29 146.17 114.97 147.02 114.97 C 147.86 114.97 148.55 114.29 148.55 113.44 L 148.55 112.44 C 148.54 111.59 147.86 110.91 147.02 110.91 C 146.17 110.91 145.49 111.59 145.49 112.44 Z M 145.50 113.44 L 145.50 114.40 C 145.49 115.23 146.17 115.92 147.01 115.92 C 147.85 115.92 148.53 115.25 148.53 114.41 L 148.53 113.45 C 148.54 112.61 147.86 111.93 147.02 111.93 C 146.19 111.92 145.50 112.60 145.50 113.44 Z M 145.51 114.37 L 145.49 115.36 C 145.48 116.19 146.14 116.87 146.97 116.89 C 147.80 116.90 148.48 116.24 148.50 115.41 L 148.52 114.43 C 148.53 113.60 147.87 112.91 147.04 112.90 C 146.21 112.88 145.53 113.54 145.51 114.37 Z M 145.50 115.32 L 145.46 116.33 C 145.42 117.16 146.06 117.86 146.88 117.89 C 147.70 117.93 148.40 117.29 148.44 116.47 L 148.49 115.45 C 148.52 114.63 147.89 113.93 147.06 113.89 C 146.24 113.86 145.54 114.49 145.50 115.32 Z M 145.47 116.28 L 145.39 117.31 C 145.32 118.13 145.93 118.84 146.75 118.91 C 147.56 118.97 148.28 118.37 148.34 117.55 L 148.42 116.52 C 148.49 115.71 147.88 114.99 147.07 114.93 C 146.25 114.86 145.54 115.47 145.47 116.28 Z M 145.40 117.26 L 145.29 118.21 C 145.20 119.02 145.77 119.75 146.58 119.84 C 147.39 119.94 148.12 119.36 148.21 118.55 L 148.33 117.60 C 148.42 116.80 147.84 116.07 147.04 115.97 C 146.23 115.88 145.50 116.45 145.40 117.26 Z M 145.31 118.16 L 145.16 119.14 C 145.04 119.94 145.58 120.68 146.38 120.81 C 147.18 120.93 147.93 120.38 148.05 119.58 L 148.20 118.60 C 148.32 117.81 147.77 117.06 146.97 116.94 C 146.18 116.81 145.43 117.36 145.31 118.16 Z M 145.18 119.09 L 144.99 120.09 C 144.84 120.88 145.36 121.64 146.14 121.79 C 146.93 121.94 147.69 121.42 147.84 120.63 L 148.03 119.63 C 148.18 118.84 147.66 118.08 146.87 117.93 C 146.09 117.78 145.33 118.30 145.18 119.09 Z M 145.01 120.04 L 144.78 121.05 C 144.60 121.82 145.09 122.60 145.86 122.78 C 146.64 122.95 147.41 122.47 147.59 121.69 L 147.82 120.68 C 148.00 119.90 147.51 119.13 146.74 118.95 C 145.96 118.77 145.18 119.26 145.01 120.04 Z M 144.80 120.99 L 144.54 121.96 C 144.33 122.73 144.78 123.52 145.55 123.72 C 146.32 123.93 147.11 123.48 147.31 122.71 L 147.57 121.74 C 147.78 120.98 147.32 120.19 146.56 119.98 C 145.79 119.77 145.00 120.23 144.80 120.99 Z M 144.55 121.91 L 144.26 122.85 C 144.03 123.61 144.46 124.41 145.21 124.64 C 145.97 124.88 146.77 124.45 147.01 123.69 L 147.29 122.76 C 147.53 122.00 147.10 121.20 146.35 120.97 C 145.59 120.73 144.79 121.16 144.55 121.91 Z M 144.28 122.81 L 143.96 123.75 C 143.70 124.49 144.10 125.31 144.85 125.56 C 145.60 125.82 146.41 125.42 146.67 124.67 L 146.99 123.74 C 147.25 122.99 146.85 122.17 146.10 121.92 C 145.35 121.66 144.54 122.06 144.28 122.81 Z M 143.97 123.71 L 143.62 124.65 C 143.35 125.39 143.73 126.22 144.47 126.49 C 145.21 126.77 146.03 126.39 146.31 125.65 L 146.66 124.71 C 146.93 123.97 146.55 123.14 145.81 122.87 C 145.07 122.59 144.25 122.97 143.97 123.71 Z M 143.64 124.63 L 143.26 125.58 C 142.97 126.31 143.33 127.14 144.07 127.43 C 144.80 127.72 145.63 127.36 145.92 126.63 L 146.29 125.68 C 146.58 124.94 146.22 124.11 145.49 123.82 C 144.75 123.53 143.93 123.89 143.64 124.63 Z M 143.27 125.56 L 142.89 126.49 C 142.59 127.21 142.94 128.05 143.67 128.35 C 144.40 128.65 145.23 128.30 145.53 127.57 L 145.91 126.65 C 146.21 125.92 145.86 125.08 145.13 124.78 C 144.40 124.48 143.57 124.83 143.27 125.56 Z M 142.90 126.47 L 142.51 127.38 C 142.20 128.10 142.54 128.94 143.27 129.25 C 143.99 129.55 144.83 129.22 145.14 128.49 L 145.52 127.59 C 145.83 126.86 145.49 126.02 144.77 125.72 C 144.04 125.41 143.20 125.75 142.90 126.47 Z M 142.52 127.37 L 142.12 128.28 C 141.81 129.00 142.14 129.84 142.86 130.16 C 143.58 130.47 144.42 130.14 144.74 129.42 L 145.13 128.50 C 145.45 127.78 145.12 126.94 144.39 126.63 C 143.67 126.31 142.83 126.64 142.52 127.37 Z M 142.12 128.27 L 141.72 129.20 C 141.40 129.92 141.73 130.76 142.45 131.08 C 143.17 131.39 144.01 131.07 144.33 130.35 L 144.73 129.42 C 145.05 128.70 144.72 127.86 144.00 127.54 C 143.28 127.23 142.44 127.55 142.12 128.27 Z M 141.72 129.19 L 141.31 130.12 C 140.99 130.84 141.31 131.68 142.03 132.00 C 142.75 132.32 143.59 132.00 143.91 131.28 L 144.33 130.35 C 144.65 129.63 144.32 128.79 143.60 128.47 C 142.88 128.15 142.04 128.47 141.72 129.19 Z M 141.31 130.12 L 140.95 130.91 C 140.63 131.63 140.95 132.47 141.67 132.79 C 142.39 133.11 143.24 132.79 143.56 132.07 L 143.91 131.28 C 144.23 130.56 143.91 129.72 143.19 129.40 C 142.47 129.07 141.63 129.40 141.31 130.12 Z"
      fill="black"
      fill-rule="nonzero" /></svg>