<svg xmlns="http://www.w3.org/2000/svg" width="300" height="300" viewBox="0 0 300 300">
<path d="M 139.15 113.77 L 139.01 114.63 C 138.86 115.47 139.43 116.26 140.26 116.41 C 141.10 116.55 141.90 115.98 142.04 115.15 L 142.18 114.29 C 142.33 113.45 141.76 112.66 140.92 112.51 C 140.09 112.37 139.29 112.94 139.15 113.77 Z M 138.97 114.67 L 138.83 115.59 C 138.71 116.45 139.30 117.25 140.16 117.37 C 141.02 117.50 141.82 116.90 141.94 116.04 L 142.08 115.12 C 142.20 114.26 141.60 113.46 140.75 113.34 C 139.89 113.21 139.09 113.81 138.97 114.67 Z M 138.79 115.65 L 138.68 116.71 C 138.59 117.59 139.23 118.38 140.11 118.47 C 140.99 118.56 141.78 117.92 141.87 117.04 L 141.98 115.98 C 142.07 115.10 141.43 114.32 140.55 114.22 C 139.67 114.13 138.89 114.77 138.79 115.65 Z M 138.65 116.77 L 138.58 117.85 C 138.53 118.75 139.21 119.52 140.10 119.58 C 141.00 119.63 141.77 118.95 141.83 118.06 L 141.90 116.98 C 141.96 116.08 141.28 115.31 140.38 115.25 C 139.48 115.20 138.71 115.88 138.65 116.77 Z M 138.57 117.89 L 138.53 118.85 C 138.50 119.75 139.21 120.51 140.12 120.54 C 141.02 120.57 141.78 119.87 141.81 118.96 L 141.85 118.01 C 141.88 117.10 141.17 116.34 140.26 116.31 C 139.36 116.28 138.60 116.99 138.57 117.89 Z M 138.53 118.88 L 138.51 119.89 C 138.50 120.80 139.23 121.55 140.13 121.56 C 141.04 121.57 141.79 120.85 141.80 119.94 L 141.82 118.93 C 141.83 118.02 141.11 117.27 140.20 117.26 C 139.29 117.25 138.54 117.97 138.53 118.88 Z M 138.51 119.92 L 138.51 120.96 C 138.51 121.87 139.25 122.61 140.16 122.61 C 141.07 122.60 141.81 121.87 141.81 120.96 L 141.81 119.91 C 141.81 119.00 141.07 118.27 140.16 118.27 C 139.25 118.27 138.51 119.01 138.51 119.92 Z M 138.51 120.99 L 138.53 122.02 C 138.54 122.93 139.29 123.66 140.21 123.65 C 141.12 123.63 141.84 122.88 141.83 121.97 L 141.81 120.93 C 141.80 120.02 141.04 119.29 140.13 119.31 C 139.22 119.32 138.49 120.07 138.51 120.99 Z M 138.52 122.05 L 138.56 123.06 C 138.59 123.98 139.35 124.69 140.27 124.66 C 141.18 124.63 141.90 123.87 141.87 122.96 L 141.83 121.94 C 141.80 121.03 141.04 120.31 140.12 120.34 C 139.21 120.37 138.49 121.13 138.52 122.05 Z M 138.55 123.09 L 138.61 124.14 C 138.65 125.05 139.43 125.76 140.35 125.71 C 141.26 125.66 141.97 124.88 141.92 123.97 L 141.87 122.93 C 141.82 122.01 141.04 121.31 140.13 121.35 C 139.21 121.40 138.51 122.18 138.55 123.09 Z M 138.61 124.16 L 138.67 125.16 C 138.73 126.07 139.52 126.76 140.44 126.70 C 141.35 126.64 142.05 125.85 141.99 124.94 L 141.92 123.94 C 141.86 123.03 141.07 122.34 140.15 122.40 C 139.24 122.46 138.55 123.25 138.61 124.16 Z M 138.67 125.18 L 138.75 126.14 C 138.82 127.06 139.62 127.74 140.53 127.67 C 141.45 127.60 142.13 126.80 142.06 125.89 L 141.99 124.92 C 141.92 124.00 141.12 123.32 140.20 123.39 C 139.29 123.46 138.60 124.26 138.67 125.18 Z M 138.75 126.15 L 138.83 127.13 C 138.91 128.04 139.71 128.72 140.63 128.65 C 141.54 128.57 142.22 127.76 142.14 126.85 L 142.06 125.88 C 141.99 124.96 141.18 124.28 140.27 124.36 C 139.35 124.43 138.67 125.24 138.75 126.15 Z M 138.83 127.13 L 138.91 128.09 C 138.98 129.00 139.79 129.69 140.71 129.61 C 141.62 129.53 142.30 128.73 142.23 127.81 L 142.15 126.85 C 142.07 125.93 141.26 125.25 140.35 125.33 C 139.43 125.40 138.75 126.21 138.83 127.13 Z M 138.91 128.08 L 138.98 129.02 C 139.05 129.94 139.86 130.62 140.77 130.55 C 141.69 130.48 142.38 129.67 142.30 128.76 L 142.23 127.82 C 142.16 126.90 141.35 126.21 140.43 126.29 C 139.52 126.36 138.83 127.16 138.91 128.08 Z M 138.98 129.01 L 139.05 129.99 C 139.12 130.91 139.92 131.60 140.84 131.53 C 141.76 131.46 142.45 130.66 142.38 129.74 L 142.31 128.76 C 142.24 127.84 141.43 127.16 140.52 127.22 C 139.60 127.29 138.91 128.10 138.98 129.01 Z M 139.05 129.98 L 139.12 130.99 C 139.19 131.91 139.99 132.60 140.91 132.54 C 141.82 132.47 142.52 131.67 142.45 130.75 L 142.38 129.75 C 142.32 128.83 141.52 128.13 140.60 128.20 C 139.68 128.26 138.99 129.06 139.05 129.98 Z M 139.12 130.98 L 139.19 132.02 C 139.25 132.94 140.04 133.64 140.97 133.58 C 141.89 133.52 142.58 132.72 142.52 131.80 L 142.45 130.76 C 142.39 129.84 141.60 129.14 140.68 129.21 C 139.76 129.27 139.06 130.06 139.12 130.98 Z M 139.19 132.01 L 139.25 133.06 C 139.31 133.98 140.10 134.69 141.02 134.63 C 141.94 134.57 142.64 133.78 142.59 132.86 L 142.52 131.81 C 142.47 130.89 141.68 130.19 140.76 130.24 C 139.83 130.30 139.13 131.09 139.19 132.01 Z M 139.25 133.05 L 139.30 134.00 C 139.35 134.93 140.14 135.63 141.06 135.58 C 141.98 135.53 142.69 134.74 142.64 133.82 L 142.59 132.87 C 142.54 131.95 141.75 131.24 140.83 131.29 C 139.90 131.34 139.20 132.13 139.25 133.05 Z M 139.30 134.00 L 139.35 134.97 C 139.39 135.89 140.18 136.60 141.10 136.56 C 142.03 136.51 142.74 135.72 142.69 134.80 L 142.64 133.83 C 142.60 132.91 141.81 132.20 140.89 132.24 C 139.96 132.29 139.25 133.07 139.30 134.00 Z M 139.35 134.96 L 139.39 135.95 C 139.43 136.88 140.22 137.59 141.14 137.55 C 142.06 137.51 142.78 136.73 142.74 135.80 L 142.69 134.81 C 142.65 133.89 141.87 133.17 140.94 133.21 C 140.02 133.25 139.31 134.04 139.35 134.96 Z M 139.39 135.95 L 139.43 136.96 C 139.47 137.88 140.25 138.60 141.17 138.56 C 142.10 138.53 142.82 137.75 142.78 136.82 L 142.74 135.81 C 142.70 134.88 141.92 134.17 141.00 134.20 C 140.07 134.24 139.35 135.02 139.39 135.95 Z M 139.43 136.95 L 139.47 137.98 C 139.50 138.91 140.28 139.63 141.20 139.60 C 142.13 139.56 142.85 138.78 142.82 137.86 L 142.78 136.83 C 142.75 135.90 141.97 135.18 141.04 135.22 C 140.12 135.25 139.40 136.03 139.43 136.95 Z M 139.47 137.98 L 139.50 139.02 C 139.53 139.94 140.31 140.67 141.23 140.64 C 142.16 140.61 142.88 139.83 142.85 138.91 L 142.82 137.87 C 142.79 136.94 142.01 136.22 141.09 136.25 C 140.16 136.28 139.44 137.05 139.47 137.98 Z M 139.50 139.01 L 139.53 139.99 C 139.56 140.91 140.33 141.64 141.25 141.61 C 142.18 141.59 142.91 140.81 142.88 139.89 L 142.85 138.91 C 142.83 137.99 142.05 137.26 141.13 137.29 C 140.20 137.31 139.47 138.09 139.50 139.01 Z M 139.53 139.98 L 139.55 140.97 C 139.58 141.89 140.35 142.63 141.28 142.60 C 142.20 142.58 142.93 141.81 142.91 140.88 L 142.88 139.89 C 142.86 138.97 142.09 138.24 141.16 138.26 C 140.24 138.28 139.50 139.05 139.53 139.98 Z M 139.55 140.96 L 139.58 141.96 C 139.60 142.89 140.37 143.62 141.29 143.60 C 142.22 143.58 142.95 142.81 142.93 141.88 L 142.91 140.88 C 142.89 139.96 142.12 139.23 141.19 139.25 C 140.27 139.27 139.53 140.04 139.55 140.96 Z M 139.58 141.96 L 139.60 142.96 C 139.62 143.89 140.39 144.63 141.31 144.61 C 142.24 144.59 142.98 143.82 142.95 142.89 L 142.93 141.89 C 142.91 140.96 142.14 140.22 141.22 140.24 C 140.29 140.26 139.56 141.03 139.58 141.96 Z M 139.60 142.96 L 139.62 143.97 C 139.64 144.90 140.41 145.64 141.33 145.62 C 142.26 145.60 143.00 144.83 142.98 143.90 L 142.96 142.89 C 142.94 141.97 142.17 141.23 141.24 141.25 C 140.32 141.27 139.58 142.04 139.60 142.96 Z M 139.62 143.97 L 139.64 144.99 C 139.66 145.92 140.42 146.65 141.35 146.63 C 142.28 146.61 143.02 145.85 143.00 144.92 L 142.98 143.91 C 142.96 142.98 142.19 142.24 141.26 142.26 C 140.34 142.28 139.60 143.05 139.62 143.97 Z M 139.64 144.99 L 139.66 145.99 C 139.68 146.92 140.44 147.65 141.37 147.63 C 142.30 147.62 143.04 146.85 143.02 145.92 L 143.00 144.92 C 142.98 143.99 142.21 143.26 141.29 143.28 C 140.36 143.29 139.62 144.06 139.64 144.99 Z M 139.66 145.99 L 139.68 146.97 C 139.70 147.90 140.46 148.63 141.39 148.62 C 142.32 148.60 143.05 147.83 143.04 146.90 L 143.02 145.92 C 143.00 144.99 142.23 144.26 141.31 144.28 C 140.38 144.29 139.64 145.06 139.66 145.99 Z M 139.68 146.97 L 139.70 147.95 C 139.71 148.88 140.48 149.62 141.41 149.60 C 142.33 149.58 143.07 148.82 143.06 147.89 L 143.04 146.91 C 143.02 145.98 142.25 145.24 141.33 145.26 C 140.40 145.27 139.66 146.04 139.68 146.97 Z M 139.70 147.95 L 139.71 148.94 C 139.73 149.87 140.49 150.61 141.42 150.59 C 142.35 150.58 143.09 149.81 143.07 148.88 L 143.06 147.89 C 143.04 146.96 142.27 146.23 141.35 146.24 C 140.42 146.26 139.68 147.02 139.70 147.95 Z M 139.71 148.94 L 139.73 149.94 C 139.74 150.87 140.51 151.61 141.44 151.59 C 142.36 151.58 143.10 150.81 143.09 149.89 L 143.07 148.89 C 143.06 147.96 142.29 147.22 141.37 147.23 C 140.44 147.25 139.70 148.01 139.71 148.94 Z M 139.73 149.94 L 139.74 150.95 C 139.76 151.88 140.52 152.62 141.45 152.60 C 142.37 152.59 143.12 151.83 143.10 150.90 L 143.09 149.89 C 143.08 148.96 142.31 148.22 141.39 148.23 C 140.46 148.25 139.71 149.01 139.73 149.94 Z M 139.74 150.94 L 139.75 151.97 C 139.76 152.90 140.53 153.64 141.45 153.63 C 142.38 153.62 143.13 152.86 143.12 151.93 L 143.10 150.90 C 143.09 149.98 142.33 149.23 141.40 149.24 C 140.47 149.25 139.73 150.02 139.74 150.94 Z M 139.75 151.96 L 139.76 152.98 C 139.77 153.90 140.53 154.65 141.46 154.64 C 142.39 154.63 143.13 153.87 143.13 152.94 L 143.12 151.93 C 143.11 151.00 142.35 150.26 141.42 150.27 C 140.49 150.27 139.75 151.03 139.75 151.96 Z M 139.76 152.97 L 139.77 153.97 C 139.78 154.90 140.53 155.65 141.46 155.64 C 142.39 155.64 143.14 154.88 143.13 153.95 L 143.13 152.95 C 143.12 152.02 142.36 151.27 141.43 151.28 C 140.50 151.28 139.76 152.04 139.76 152.97 Z M 139.77 153.97 L 139.77 154.98 C 139.78 155.91 140.54 156.66 141.46 156.66 C 142.39 156.65 143.14 155.90 143.14 154.97 L 143.13 153.96 C 143.13 153.03 142.37 152.28 141.44 152.28 C 140.51 152.29 139.77 153.04 139.77 153.97 Z M 139.77 154.98 L 139.78 155.99 C 139.78 156.92 140.54 157.67 141.46 157.67 C 142.39 157.67 143.14 156.91 143.14 155.98 L 143.14 154.97 C 143.13 154.04 142.38 153.29 141.45 153.29 C 140.52 153.30 139.77 154.05 139.77 154.98 Z M 139.78 155.99 L 139.78 157.00 C 139.78 157.93 140.54 158.68 141.46 158.68 C 142.39 158.67 143.14 157.92 143.14 156.99 L 143.14 155.98 C 143.14 155.06 142.38 154.30 141.46 154.31 C 140.53 154.31 139.78 155.06 139.78 155.99 Z M 139.78 157.00 L 139.78 158.00 C 139.78 158.93 140.53 159.68 141.46 159.68 C 142.39 159.68 143.14 158.92 143.14 157.99 L 143.14 156.99 C 143.14 156.07 142.39 155.31 141.46 155.32 C 140.53 155.32 139.78 156.07 139.78 157.00 Z M 139.78 158.00 L 139.78 158.98 C 139.78 159.91 140.53 160.66 141.46 160.66 C 142.39 160.66 143.14 159.91 143.14 158.98 L 143.14 158.00 C 143.14 157.07 142.39 156.32 141.46 156.32 C 140.53 156.32 139.78 157.07 139.78 158.00 Z M 139.78 158.98 L 139.78 159.99 C 139.78 160.91 140.53 161.67 141.46 161.67 C 142.39 161.67 143.14 160.91 143.14 159.99 L 143.14 158.98 C 143.14 158.05 142.39 157.30 141.46 157.30 C 140.53 157.30 139.78 158.05 139.78 158.98 Z M 139.78 159.99 L 139.78 161.03 C 139.78 161.96 140.53 162.71 141.46 162.71 C 142.39 162.71 143.14 161.96 143.14 161.03 L 143.14 159.99 C 143.14 159.06 142.39 158.31 141.46 158.31 C 140.53 158.31 139.78 159.06 139.78 159.99 Z M 139.78 161.03 L 139.78 162.05 C 139.78 162.98 140.53 163.73 141.46 163.73 C 142.39 163.73 143.14 162.98 143.14 162.05 L 143.14 161.03 C 143.14 160.10 142.39 159.35 141.46 159.35 C 140.53 159.35 139.78 160.10 139.78 161.03 Z M 139.78 162.05 L 139.78 163.05 C 139.78 163.98 140.53 164.73 141.46 164.73 C 142.39 164.73 143.14 163.98 143.14 163.05 L 143.14 162.05 C 143.14 161.12 142.39 160.37 141.46 160.37 C 140.53 160.37 139.78 161.12 139.78 162.05 Z M 139.78 163.05 L 139.78 164.04 C 139.78 164.96 140.53 165.72 141.46 165.72 C 142.39 165.72 143.14 164.96 143.14 164.04 L 143.14 163.05 C 143.14 162.13 142.39 161.37 141.46 161.37 C 140.53 161.37 139.78 162.13 139.78 163.05 Z M 139.78 164.04 L 139.78 165.01 C 139.78 165.93 140.53 166.69 141.46 166.69 C 142.39 166.69 143.14 165.93 143.14 165.01 L 143.14 164.04 C 143.14 163.11 142.39 162.36 141.46 162.36 C 140.53 162.36 139.78 163.11 139.78 164.04 Z M 139.78 165.01 L 139.78 165.97 C 139.78 166.90 140.54 167.65 141.46 167.65 C 142.39 167.65 143.14 166.90 143.14 165.97 L 143.14 165.01 C 143.14 164.08 142.39 163.33 141.46 163.33 C 140.54 163.33 139.78 164.08 139.78 165.01 Z M 139.78 165.97 L 139.78 166.98 C 139.78 167.91 140.54 168.66 141.46 168.66 C 142.39 168.66 143.14 167.91 143.14 166.98 L 143.14 165.97 C 143.14 165.04 142.39 164.29 141.46 164.29 C 140.54 164.29 139.78 165.04 139.78 165.97 Z M 139.79 166.98 L 139.79 168.00 C 139.79 168.93 140.54 169.68 141.46 169.68 C 142.39 169.68 143.14 168.93 143.14 168.00 L 143.14 166.98 C 143.14 166.06 142.39 165.31 141.46 165.31 C 140.54 165.31 139.79 166.06 139.79 166.98 Z M 139.79 168.00 L 139.79 169.01 C 139.79 169.94 140.54 170.69 141.46 170.69 C 142.39 170.69 143.14 169.94 143.14 169.01 L 143.14 168.00 C 143.14 167.08 142.39 166.33 141.46 166.33 C 140.54 166.33 139.79 167.08 139.79 168.00 Z M 139.79 169.01 L 139.79 170.01 C 139.79 170.93 140.54 171.68 141.46 171.68 C 142.39 171.68 143.13 170.93 143.13 170.01 L 143.13 169.01 C 143.13 168.09 142.39 167.34 141.46 167.34 C 140.54 167.34 139.79 168.09 139.79 169.01 Z M 139.79 170.01 L 139.79 171.00 C 139.79 171.92 140.54 172.67 141.46 172.67 C 142.38 172.67 143.13 171.92 143.13 171.00 L 143.13 170.01 C 143.13 169.09 142.38 168.34 141.46 168.34 C 140.54 168.34 139.79 169.09 139.79 170.01 Z M 139.79 171.00 L 139.79 171.97 C 139.79 172.89 140.54 173.64 141.46 173.64 C 142.38 173.64 143.13 172.89 143.13 171.97 L 143.13 171.00 C 143.13 170.07 142.38 169.33 141.46 169.33 C 140.54 169.33 139.79 170.07 139.79 171.00 Z M 139.79 171.97 L 139.79 173.00 C 139.79 173.92 140.54 174.66 141.46 174.66 C 142.38 174.66 143.13 173.92 143.13 173.00 L 143.13 171.97 C 143.13 171.05 142.38 170.30 141.46 170.30 C 140.54 170.30 139.79 171.05 139.79 171.97 Z M 139.79 173.00 L 139.79 174.02 C 139.79 174.94 140.54 175.69 141.46 175.69 C 142.38 175.69 143.13 174.94 143.13 174.02 L 143.13 173.00 C 143.13 172.08 142.38 171.33 141.46 171.33 C 140.54 171.33 139.79 172.08 139.79 173.00 Z M 139.80 174.02 L 139.80 175.03 C 139.80 175.95 140.54 176.69 141.46 176.69 C 142.38 176.69 143.13 175.95 143.13 175.03 L 143.13 174.02 C 143.13 173.10 142.38 172.36 141.46 172.36 C 140.54 172.36 139.80 173.10 139.80 174.02 Z M 139.80 175.03 L 139.80 176.02 C 139.80 176.94 140.54 177.68 141.46 177.68 C 142.38 177.68 143.12 176.94 143.12 176.02 L 143.12 175.03 C 143.12 174.11 142.38 173.37 141.46 173.37 C 140.54 173.37 139.80 174.11 139.80 175.03 Z M 139.80 176.02 L 139.80 176.99 C 139.80 177.91 140.54 178.65 141.46 178.65 C 142.38 178.65 143.12 177.91 143.12 176.99 L 143.12 176.02 C 143.12 175.10 142.38 174.36 141.46 174.36 C 140.54 174.36 139.80 175.10 139.80 176.02 Z M 139.80 176.99 L 139.80 177.98 C 139.80 178.89 140.55 179.64 141.46 179.64 C 142.38 179.64 143.12 178.89 143.12 177.98 L 143.12 176.99 C 143.12 176.08 142.38 175.33 141.46 175.33 C 140.55 175.33 139.80 176.08 139.80 176.99 Z M 139.81 177.98 L 139.81 179.02 C 139.81 179.94 140.55 180.68 141.46 180.68 C 142.38 180.68 143.12 179.94 143.12 179.02 L 143.12 177.98 C 143.12 177.06 142.38 176.32 141.46 176.32 C 140.55 176.32 139.81 177.06 139.81 177.98 Z M 139.81 179.02 L 139.81 180.04 C 139.81 180.96 140.55 181.69 141.46 181.69 C 142.37 181.69 143.11 180.96 143.11 180.04 L 143.11 179.02 C 143.11 178.11 142.37 177.37 141.46 177.37 C 140.55 177.37 139.81 178.11 139.81 179.02 Z M 139.81 180.04 L 139.81 181.04 C 139.81 181.95 140.55 182.69 141.46 182.69 C 142.37 182.69 143.11 181.95 143.11 181.04 L 143.11 180.04 C 143.11 179.13 142.37 178.40 141.46 178.40 C 140.55 178.40 139.81 179.13 139.81 180.04 Z M 139.82 181.04 L 139.82 182.01 C 139.82 182.91 140.55 183.65 141.46 183.65 C 142.37 183.65 143.10 182.91 143.10 182.01 L 143.10 181.04 C 143.10 180.13 142.37 179.40 141.46 179.40 C 140.55 179.40 139.82 180.13 139.82 181.04 Z M 139.82 182.01 L 139.82 182.98 C 139.82 183.88 140.56 184.61 141.46 184.61 C 142.37 184.61 143.10 183.88 143.10 182.98 L 143.10 182.01 C 143.10 181.10 142.37 180.37 141.46 180.37 C 140.56 180.37 139.82 181.10 139.82 182.01 Z M 139.83 182.98 L 139.83 184.00 C 139.83 184.91 140.56 185.64 141.46 185.64 C 142.36 185.64 143.09 184.91 143.09 184.00 L 143.09 182.98 C 143.09 182.07 142.36 181.34 141.46 181.34 C 140.56 181.34 139.83 182.07 139.83 182.98 Z M 139.83 184.00 L 139.83 185.00 C 139.83 185.90 140.56 186.63 141.46 186.63 C 142.36 186.63 143.09 185.90 143.09 185.00 L 143.09 184.00 C 143.09 183.10 142.36 182.38 141.46 182.38 C 140.56 182.38 139.83 183.10 139.83 184.00 Z M 139.84 185.00 L 139.84 185.99 C 139.84 186.88 140.57 187.61 141.46 187.61 C 142.36 187.61 143.08 186.88 143.08 185.99 L 143.08 185.00 C 143.08 184.11 142.36 183.38 141.46 183.38 C 140.57 183.38 139.84 184.11 139.84 185.00 Z M 139.85 185.99 L 139.85 186.96 C 139.85 187.86 140.57 188.58 141.46 188.58 C 142.35 188.58 143.08 187.86 143.08 186.96 L 143.08 185.99 C 143.08 185.10 142.35 184.37 141.46 184.37 C 140.57 184.37 139.85 185.10 139.85 185.99 Z M 139.85 186.97 L 139.85 187.92 C 139.85 188.81 140.57 189.53 141.46 189.53 C 142.35 189.53 143.07 188.81 143.07 187.92 L 143.07 186.96 C 143.07 186.08 142.35 185.36 141.46 185.36 C 140.57 185.36 139.85 186.08 139.85 186.97 Z M 139.86 187.93 L 139.87 188.90 C 139.87 189.78 140.59 190.50 141.47 190.49 C 142.36 190.49 143.07 189.77 143.07 188.89 L 143.06 187.92 C 143.06 187.03 142.34 186.32 141.45 186.32 C 140.57 186.33 139.86 187.05 139.86 187.93 Z M 139.87 188.91 L 139.89 189.91 C 139.90 190.79 140.62 191.49 141.50 191.48 C 142.38 191.47 143.08 190.75 143.07 189.87 L 143.06 188.87 C 143.05 187.99 142.33 187.29 141.45 187.30 C 140.57 187.31 139.86 188.03 139.87 188.91 Z M 139.89 189.93 L 139.92 190.96 C 139.94 191.83 140.67 192.53 141.54 192.50 C 142.42 192.48 143.11 191.76 143.09 190.88 L 143.06 189.85 C 143.04 188.97 142.32 188.28 141.44 188.30 C 140.57 188.32 139.87 189.05 139.89 189.93 Z M 139.93 190.98 L 139.97 192.11 C 140.00 192.98 140.74 193.66 141.61 193.62 C 142.48 193.59 143.16 192.85 143.12 191.98 L 143.08 190.86 C 143.05 189.99 142.31 189.31 141.44 189.34 C 140.57 189.38 139.89 190.11 139.93 190.98 Z M 139.98 192.15 L 140.06 193.37 C 140.12 194.23 140.87 194.89 141.74 194.83 C 142.60 194.77 143.26 194.02 143.20 193.15 L 143.11 191.94 C 143.05 191.07 142.31 190.42 141.44 190.48 C 140.58 190.54 139.92 191.29 139.98 192.15 Z M 140.08 193.47 L 140.23 194.55 C 140.35 195.41 141.13 196.01 141.99 195.89 C 142.84 195.78 143.44 194.99 143.32 194.14 L 143.18 193.05 C 143.06 192.20 142.28 191.60 141.42 191.71 C 140.57 191.83 139.97 192.62 140.08 193.47 Z M 140.29 194.79 L 140.53 195.59 C 140.77 196.41 141.64 196.88 142.46 196.64 C 143.28 196.39 143.75 195.53 143.50 194.71 L 143.26 193.90 C 143.02 193.08 142.16 192.61 141.34 192.86 C 140.51 193.10 140.05 193.96 140.29 194.79 Z M 140.94 196.25 L 141.34 196.64 C 141.95 197.24 142.92 197.23 143.52 196.62 C 144.11 196.01 144.10 195.04 143.50 194.45 L 143.09 194.05 C 142.48 193.46 141.51 193.47 140.92 194.07 C 140.32 194.68 140.33 195.66 140.94 196.25 Z M 142.97 196.95 L 143.61 196.70 C 144.39 196.40 144.77 195.52 144.47 194.74 C 144.16 193.96 143.28 193.58 142.50 193.89 L 141.87 194.14 C 141.09 194.44 140.70 195.32 141.01 196.10 C 141.32 196.88 142.19 197.26 142.97 196.95 Z M 144.20 196.24 L 144.89 195.40 C 145.42 194.77 145.33 193.84 144.70 193.32 C 144.07 192.79 143.14 192.88 142.61 193.51 L 141.92 194.35 C 141.39 194.98 141.48 195.91 142.11 196.43 C 142.74 196.96 143.67 196.87 144.20 196.24 Z M 145.04 195.13 L 145.62 194.03 C 145.99 193.32 145.71 192.44 145.00 192.07 C 144.29 191.70 143.42 191.97 143.04 192.68 L 142.47 193.78 C 142.09 194.49 142.37 195.37 143.08 195.74 C 143.79 196.11 144.67 195.84 145.04 195.13 Z M 145.68 193.86 L 146.00 192.99 C 146.28 192.25 145.91 191.42 145.16 191.14 C 144.42 190.86 143.59 191.23 143.31 191.98 L 142.98 192.85 C 142.70 193.59 143.08 194.42 143.82 194.70 C 144.57 194.98 145.40 194.60 145.68 193.86 Z M 146.03 192.89 L 146.31 191.95 C 146.54 191.19 146.11 190.39 145.35 190.17 C 144.59 189.94 143.79 190.37 143.56 191.13 L 143.28 192.07 C 143.06 192.83 143.49 193.63 144.25 193.86 C 145.01 194.08 145.81 193.65 146.03 192.89 Z M 146.33 191.89 L 146.57 190.90 C 146.76 190.13 146.30 189.35 145.53 189.16 C 144.76 188.97 143.98 189.44 143.79 190.21 L 143.55 191.20 C 143.36 191.97 143.83 192.74 144.59 192.93 C 145.36 193.12 146.14 192.65 146.33 191.89 Z M 146.58 190.86 L 146.80 189.83 C 146.97 189.06 146.48 188.30 145.71 188.13 C 144.94 187.96 144.18 188.45 144.01 189.22 L 143.79 190.25 C 143.62 191.02 144.11 191.78 144.88 191.95 C 145.65 192.12 146.41 191.63 146.58 190.86 Z M 146.80 189.82 L 146.96 189.06 C 147.12 188.29 146.62 187.54 145.85 187.38 C 145.08 187.22 144.33 187.71 144.17 188.49 L 144.01 189.24 C 143.85 190.01 144.35 190.77 145.12 190.93 C 145.89 191.09 146.64 190.59 146.80 189.82 Z"
      fill="black"
      fill-rule="nonzero" /><path d="M 143.50 161.94 L 143.15 160.96 C 142.87 160.20 142.02 159.80 141.26 160.08 C 140.50 160.36 140.10 161.21 140.38 161.97 L 140.74 162.95 C 141.02 163.72 141.86 164.11 142.63 163.83 C 143.39 163.55 143.78 162.71 143.50 161.94 Z M 143.16 160.97 L 142.82 160.00 C 142.54 159.23 141.70 158.83 140.93 159.10 C 140.16 159.37 139.75 160.22 140.03 160.99 L 140.37 161.96 C 140.64 162.73 141.49 163.13 142.26 162.86 C 143.03 162.59 143.43 161.74 143.16 160.97 Z M 142.84 160.03 L 142.53 159.09 C 142.27 158.31 141.43 157.88 140.65 158.14 C 139.86 158.40 139.44 159.24 139.70 160.02 L 140.01 160.96 C 140.26 161.74 141.11 162.17 141.89 161.91 C 142.67 161.65 143.09 160.81 142.84 160.03 Z M 142.55 159.13 L 142.29 158.24 C 142.06 157.44 141.23 156.98 140.43 157.22 C 139.64 157.45 139.18 158.28 139.41 159.07 L 139.67 159.97 C 139.90 160.77 140.74 161.22 141.53 160.99 C 142.32 160.76 142.78 159.93 142.55 159.13 Z M 142.33 158.34 L 142.09 157.21 C 141.92 156.40 141.12 155.87 140.30 156.05 C 139.48 156.22 138.96 157.02 139.13 157.84 L 139.37 158.97 C 139.54 159.78 140.34 160.31 141.16 160.13 C 141.98 159.96 142.50 159.16 142.33 158.34 Z M 142.14 157.52 L 142.14 156.55 C 142.14 155.70 141.45 155.02 140.61 155.02 C 139.76 155.03 139.08 155.71 139.08 156.55 L 139.08 157.53 C 139.09 158.37 139.77 159.05 140.62 159.05 C 141.46 159.05 142.14 158.36 142.14 157.52 Z M 142.01 157.20 L 142.36 156.46 C 142.72 155.68 142.38 154.77 141.61 154.41 C 140.83 154.05 139.92 154.38 139.56 155.15 L 139.21 155.90 C 138.85 156.67 139.19 157.59 139.96 157.95 C 140.73 158.31 141.65 157.98 142.01 157.20 Z M 141.84 157.09 L 142.46 156.66 C 143.17 156.17 143.35 155.20 142.86 154.49 C 142.37 153.79 141.40 153.61 140.70 154.10 L 140.07 154.52 C 139.37 155.01 139.19 155.98 139.67 156.69 C 140.16 157.40 141.13 157.58 141.84 157.09 Z M 142.04 156.87 L 142.94 156.60 C 143.77 156.34 144.23 155.47 143.98 154.64 C 143.73 153.81 142.85 153.35 142.02 153.60 L 141.12 153.88 C 140.29 154.13 139.83 155.01 140.08 155.84 C 140.34 156.66 141.21 157.13 142.04 156.87 Z M 142.71 156.66 L 143.85 156.49 C 144.71 156.37 145.31 155.57 145.19 154.71 C 145.06 153.85 144.26 153.25 143.40 153.38 L 142.26 153.54 C 141.40 153.67 140.80 154.46 140.93 155.32 C 141.05 156.19 141.85 156.78 142.71 156.66 Z M 143.74 156.51 L 144.83 156.43 C 145.70 156.37 146.35 155.61 146.29 154.74 C 146.23 153.87 145.47 153.21 144.60 153.28 L 143.51 153.36 C 142.64 153.42 141.99 154.18 142.05 155.05 C 142.11 155.92 142.87 156.58 143.74 156.51 Z M 144.78 156.44 L 145.74 156.40 C 146.61 156.37 147.29 155.63 147.26 154.75 C 147.22 153.87 146.48 153.19 145.61 153.23 L 144.65 153.27 C 143.77 153.30 143.09 154.04 143.13 154.92 C 143.16 155.80 143.90 156.48 144.78 156.44 Z M 145.70 156.41 L 146.71 156.39 C 147.59 156.37 148.29 155.64 148.27 154.76 C 148.25 153.88 147.52 153.19 146.65 153.20 L 145.64 153.22 C 144.76 153.24 144.06 153.97 144.08 154.85 C 144.10 155.73 144.82 156.42 145.70 156.41 Z M 146.68 156.39 L 147.71 156.39 C 148.60 156.39 149.31 155.67 149.31 154.79 C 149.30 153.91 148.59 153.19 147.70 153.19 L 146.67 153.20 C 145.79 153.20 145.08 153.92 145.08 154.80 C 145.08 155.68 145.80 156.40 146.68 156.39 Z M 147.69 156.39 L 148.73 156.41 C 149.61 156.41 150.34 155.71 150.35 154.82 C 150.36 153.94 149.65 153.21 148.76 153.20 L 147.73 153.19 C 146.84 153.18 146.12 153.89 146.11 154.78 C 146.10 155.66 146.81 156.38 147.69 156.39 Z M 148.71 156.41 L 149.74 156.43 C 150.62 156.45 151.36 155.75 151.38 154.86 C 151.40 153.97 150.69 153.24 149.81 153.22 L 148.78 153.20 C 147.89 153.18 147.16 153.88 147.14 154.77 C 147.12 155.65 147.82 156.39 148.71 156.41 Z M 149.72 156.44 L 150.74 156.47 C 151.63 156.50 152.38 155.81 152.41 154.92 C 152.44 154.03 151.74 153.28 150.85 153.25 L 149.83 153.22 C 148.94 153.18 148.19 153.88 148.16 154.77 C 148.13 155.66 148.83 156.41 149.72 156.44 Z M 150.71 156.48 L 151.71 156.53 C 152.60 156.58 153.36 155.89 153.41 155.00 C 153.46 154.11 152.77 153.35 151.88 153.30 L 150.88 153.25 C 149.99 153.20 149.23 153.88 149.18 154.78 C 149.13 155.67 149.82 156.43 150.71 156.48 Z M 151.67 156.53 L 152.65 156.61 C 153.55 156.68 154.33 156.01 154.40 155.12 C 154.47 154.22 153.80 153.44 152.91 153.37 L 151.92 153.30 C 151.03 153.23 150.25 153.90 150.18 154.79 C 150.11 155.68 150.78 156.46 151.67 156.53 Z M 152.61 156.61 L 153.58 156.71 C 154.48 156.81 155.28 156.17 155.38 155.27 C 155.47 154.38 154.83 153.58 153.93 153.48 L 152.96 153.37 C 152.06 153.28 151.26 153.92 151.16 154.82 C 151.07 155.71 151.71 156.51 152.61 156.61 Z M 153.53 156.71 L 154.50 156.85 C 155.40 156.98 156.22 156.36 156.35 155.47 C 156.48 154.58 155.86 153.75 154.97 153.62 L 153.99 153.48 C 153.10 153.35 152.27 153.97 152.14 154.86 C 152.01 155.76 152.63 156.58 153.53 156.71 Z M 154.44 156.85 L 155.41 157.02 C 156.30 157.19 157.15 156.60 157.31 155.71 C 157.47 154.82 156.88 153.96 156.00 153.80 L 155.03 153.63 C 154.14 153.47 153.29 154.06 153.13 154.94 C 152.96 155.83 153.55 156.69 154.44 156.85 Z M 155.35 157.02 L 156.33 157.23 C 157.21 157.42 158.09 156.86 158.28 155.97 C 158.47 155.09 157.91 154.21 157.02 154.02 L 156.05 153.81 C 155.16 153.62 154.29 154.18 154.10 155.06 C 153.90 155.95 154.47 156.83 155.35 157.02 Z M 156.27 157.22 L 157.25 157.47 C 158.13 157.69 159.02 157.15 159.25 156.27 C 159.47 155.39 158.93 154.49 158.05 154.27 L 157.07 154.03 C 156.19 153.81 155.30 154.34 155.08 155.22 C 154.85 156.11 155.39 157.00 156.27 157.22 Z M 157.20 157.46 L 158.17 157.73 C 159.05 157.98 159.96 157.47 160.21 156.59 C 160.46 155.71 159.95 154.80 159.07 154.55 L 158.10 154.28 C 157.22 154.03 156.30 154.54 156.06 155.42 C 155.81 156.30 156.32 157.21 157.20 157.46 Z M 158.13 157.73 L 159.09 158.03 C 159.97 158.30 160.90 157.81 161.17 156.94 C 161.44 156.06 160.95 155.13 160.08 154.86 L 159.11 154.56 C 158.24 154.29 157.31 154.77 157.04 155.65 C 156.76 156.52 157.25 157.45 158.13 157.73 Z M 159.05 158.02 L 160.01 158.35 C 160.88 158.64 161.83 158.18 162.12 157.31 C 162.42 156.44 161.95 155.49 161.08 155.20 L 160.12 154.87 C 159.25 154.57 158.31 155.04 158.01 155.91 C 157.71 156.78 158.18 157.72 159.05 158.02 Z M 159.97 158.34 L 160.92 158.69 C 161.78 159.01 162.74 158.57 163.06 157.70 C 163.38 156.83 162.94 155.87 162.07 155.55 L 161.12 155.20 C 160.26 154.88 159.30 155.33 158.98 156.19 C 158.66 157.06 159.10 158.02 159.97 158.34 Z M 160.88 158.68 L 161.81 159.05 C 162.67 159.39 163.65 158.97 163.99 158.11 C 164.33 157.25 163.91 156.27 163.05 155.93 L 162.11 155.56 C 161.25 155.22 160.28 155.64 159.94 156.50 C 159.59 157.36 160.01 158.34 160.88 158.68 Z M 161.77 159.04 L 162.68 159.43 C 163.54 159.80 164.53 159.40 164.89 158.54 C 165.26 157.69 164.86 156.70 164.00 156.33 L 163.09 155.94 C 162.23 155.58 161.24 155.98 160.88 156.83 C 160.51 157.69 160.91 158.68 161.77 159.04 Z M 162.64 159.42 L 163.54 159.83 C 164.39 160.21 165.39 159.84 165.78 158.99 C 166.16 158.14 165.79 157.14 164.94 156.75 L 164.04 156.34 C 163.19 155.96 162.19 156.33 161.81 157.18 C 161.42 158.03 161.79 159.03 162.64 159.42 Z M 163.50 159.82 L 164.44 160.28 C 165.29 160.69 166.30 160.33 166.71 159.49 C 167.12 158.65 166.77 157.63 165.93 157.22 L 164.98 156.76 C 164.14 156.35 163.12 156.70 162.71 157.55 C 162.30 158.39 162.65 159.41 163.50 159.82 Z M 164.39 160.26 L 165.33 160.75 C 166.17 161.19 167.20 160.87 167.64 160.03 C 168.08 159.20 167.75 158.16 166.92 157.73 L 165.98 157.24 C 165.14 156.80 164.11 157.12 163.67 157.96 C 163.24 158.79 163.56 159.82 164.39 160.26 Z M 165.28 160.73 L 166.16 161.24 C 166.98 161.70 168.03 161.42 168.50 160.59 C 168.97 159.77 168.68 158.72 167.86 158.25 L 166.98 157.75 C 166.15 157.28 165.10 157.57 164.63 158.39 C 164.16 159.21 164.45 160.26 165.28 160.73 Z M 166.09 161.21 L 166.90 161.72 C 167.71 162.22 168.77 161.98 169.28 161.17 C 169.79 160.37 169.55 159.30 168.74 158.79 L 167.93 158.28 C 167.12 157.77 166.05 158.02 165.55 158.82 C 165.04 159.63 165.28 160.70 166.09 161.21 Z M 166.82 161.67 L 167.56 162.20 C 168.35 162.76 169.43 162.57 169.98 161.79 C 170.54 161.01 170.36 159.92 169.57 159.37 L 168.83 158.84 C 168.04 158.28 166.96 158.47 166.40 159.25 C 165.85 160.03 166.03 161.12 166.82 161.67 Z M 167.44 162.12 L 168.28 162.83 C 169.01 163.46 170.12 163.37 170.74 162.64 C 171.37 161.90 171.28 160.80 170.54 160.17 L 169.70 159.46 C 168.97 158.83 167.86 158.92 167.24 159.65 C 166.61 160.39 166.70 161.49 167.44 162.12 Z M 168.10 162.68 L 168.76 163.41 C 169.41 164.13 170.52 164.20 171.24 163.55 C 171.97 162.90 172.03 161.79 171.38 161.07 L 170.72 160.33 C 170.07 159.61 168.96 159.55 168.24 160.19 C 167.52 160.84 167.46 161.95 168.10 162.68 Z M 168.57 163.18 L 169.06 163.95 C 169.58 164.78 170.67 165.03 171.50 164.51 C 172.32 163.99 172.57 162.90 172.05 162.08 L 171.57 161.30 C 171.05 160.47 169.96 160.22 169.13 160.74 C 168.31 161.26 168.06 162.35 168.57 163.18 Z M 168.90 163.64 L 169.23 164.51 C 169.57 165.43 170.60 165.89 171.51 165.55 C 172.43 165.20 172.89 164.18 172.55 163.26 L 172.22 162.39 C 171.87 161.47 170.85 161.01 169.93 161.35 C 169.01 161.70 168.55 162.72 168.90 163.64 Z M 169.13 164.18 L 169.30 165.14 C 169.46 166.11 170.38 166.76 171.35 166.60 C 172.32 166.43 172.97 165.51 172.80 164.54 L 172.64 163.59 C 172.48 162.62 171.56 161.97 170.59 162.13 C 169.62 162.30 168.97 163.22 169.13 164.18 Z M 169.27 164.86 L 169.28 165.89 C 169.29 166.88 170.09 167.67 171.08 167.66 C 172.06 167.65 172.85 166.84 172.84 165.86 L 172.83 164.82 C 172.82 163.84 172.02 163.05 171.03 163.06 C 170.05 163.07 169.26 163.88 169.27 164.86 Z M 169.28 165.69 L 169.19 166.64 C 169.09 167.62 169.80 168.50 170.78 168.60 C 171.76 168.70 172.64 167.98 172.74 167.00 L 172.84 166.06 C 172.94 165.08 172.22 164.20 171.24 164.10 C 170.26 164.00 169.39 164.71 169.28 165.69 Z M 169.21 166.46 L 169.03 167.36 C 168.83 168.32 169.45 169.27 170.41 169.47 C 171.38 169.67 172.32 169.05 172.52 168.08 L 172.71 167.18 C 172.91 166.22 172.29 165.27 171.33 165.07 C 170.36 164.87 169.42 165.49 169.21 166.46 Z M 169.08 167.15 L 168.77 168.09 C 168.45 169.02 168.96 170.04 169.89 170.35 C 170.83 170.66 171.84 170.16 172.15 169.23 L 172.47 168.29 C 172.78 167.35 172.28 166.34 171.35 166.03 C 170.41 165.71 169.40 166.22 169.08 167.15 Z M 168.86 167.87 L 168.38 168.85 C 167.94 169.73 168.31 170.80 169.19 171.24 C 170.07 171.67 171.14 171.31 171.58 170.43 L 172.06 169.45 C 172.50 168.56 172.13 167.49 171.25 167.06 C 170.36 166.62 169.29 166.99 168.86 167.87 Z M 168.49 168.66 L 167.92 169.53 C 167.37 170.35 167.60 171.45 168.42 171.99 C 169.24 172.54 170.35 172.31 170.89 171.49 L 171.47 170.62 C 172.01 169.80 171.78 168.69 170.96 168.15 C 170.14 167.61 169.03 167.83 168.49 168.66 Z M 168.01 169.40 L 167.40 170.17 C 166.79 170.94 166.91 172.06 167.68 172.67 C 168.45 173.28 169.57 173.15 170.18 172.39 L 170.79 171.62 C 171.41 170.85 171.28 169.73 170.51 169.12 C 169.75 168.50 168.63 168.63 168.01 169.40 Z M 167.47 170.09 L 166.78 170.85 C 166.13 171.58 166.19 172.70 166.91 173.36 C 167.64 174.01 168.76 173.96 169.42 173.23 L 170.11 172.47 C 170.76 171.74 170.70 170.62 169.98 169.96 C 169.25 169.30 168.13 169.36 167.47 170.09 Z M 166.84 170.80 L 166.12 171.54 C 165.43 172.23 165.44 173.35 166.13 174.04 C 166.82 174.72 167.94 174.71 168.63 174.02 L 169.36 173.28 C 170.05 172.59 170.04 171.47 169.34 170.78 C 168.65 170.10 167.53 170.10 166.84 170.80 Z M 166.16 171.50 L 165.43 172.19 C 164.72 172.86 164.69 173.97 165.35 174.68 C 166.02 175.39 167.14 175.42 167.84 174.76 L 168.58 174.06 C 169.29 173.39 169.32 172.28 168.65 171.57 C 167.99 170.86 166.87 170.83 166.16 171.50 Z M 165.47 172.16 L 164.72 172.83 C 164.00 173.47 163.93 174.58 164.58 175.31 C 165.22 176.03 166.33 176.10 167.06 175.45 L 167.80 174.78 C 168.53 174.14 168.59 173.03 167.95 172.30 C 167.30 171.58 166.19 171.52 165.47 172.16 Z M 164.76 172.80 L 163.92 173.51 C 163.18 174.13 163.09 175.24 163.71 175.97 C 164.33 176.71 165.43 176.80 166.17 176.18 L 167.01 175.47 C 167.75 174.85 167.84 173.75 167.22 173.01 C 166.60 172.28 165.50 172.18 164.76 172.80 Z M 163.97 173.49 L 163.18 174.12 C 162.43 174.71 162.31 175.80 162.90 176.55 C 163.49 177.30 164.58 177.42 165.33 176.83 L 166.12 176.20 C 166.87 175.61 166.99 174.52 166.40 173.77 C 165.81 173.03 164.72 172.90 163.97 173.49 Z M 163.23 174.10 L 162.47 174.67 C 161.71 175.23 161.56 176.31 162.13 177.07 C 162.70 177.83 163.77 177.98 164.53 177.41 L 165.29 176.84 C 166.04 176.28 166.20 175.20 165.63 174.44 C 165.06 173.69 163.99 173.53 163.23 174.10 Z M 162.51 174.66 L 161.76 175.20 C 161.00 175.74 160.83 176.81 161.37 177.57 C 161.92 178.33 162.98 178.50 163.75 177.96 L 164.49 177.42 C 165.26 176.87 165.43 175.81 164.88 175.05 C 164.33 174.28 163.27 174.11 162.51 174.66 Z M 161.79 175.20 L 160.99 175.76 C 160.22 176.29 160.04 177.34 160.57 178.11 C 161.11 178.87 162.16 179.05 162.92 178.52 L 163.72 177.96 C 164.48 177.42 164.67 176.37 164.13 175.61 C 163.60 174.85 162.55 174.66 161.79 175.20 Z M 161.01 175.76 L 160.19 176.32 C 159.43 176.85 159.24 177.89 159.76 178.65 C 160.28 179.41 161.32 179.60 162.08 179.08 L 162.90 178.52 C 163.66 177.99 163.86 176.95 163.33 176.19 C 162.81 175.43 161.77 175.24 161.01 175.76 Z M 160.21 176.32 L 159.38 176.89 C 158.62 177.40 158.41 178.43 158.93 179.19 C 159.44 179.95 160.47 180.15 161.23 179.64 L 162.06 179.08 C 162.82 178.56 163.02 177.53 162.51 176.77 C 162.00 176.01 160.97 175.81 160.21 176.32 Z M 159.40 176.89 L 158.54 177.45 C 157.79 177.95 157.58 178.97 158.08 179.73 C 158.58 180.49 159.60 180.70 160.36 180.20 L 161.21 179.63 C 161.97 179.13 162.18 178.11 161.68 177.35 C 161.17 176.60 160.15 176.39 159.40 176.89 Z M 158.56 177.45 L 157.74 177.99 C 156.99 178.48 156.77 179.49 157.26 180.25 C 157.75 181.00 158.76 181.22 159.52 180.73 L 160.34 180.19 C 161.10 179.70 161.31 178.69 160.82 177.94 C 160.33 177.18 159.32 176.96 158.56 177.45 Z M 157.76 177.99 L 156.92 178.53 C 156.17 179.01 155.95 180.01 156.43 180.76 C 156.91 181.52 157.91 181.74 158.67 181.25 L 159.50 180.72 C 160.26 180.24 160.48 179.24 159.99 178.49 C 159.51 177.73 158.51 177.51 157.76 177.99 Z M 156.94 178.53 L 156.09 179.07 C 155.34 179.54 155.12 180.54 155.59 181.29 C 156.06 182.03 157.06 182.26 157.81 181.78 L 158.65 181.25 C 159.40 180.77 159.63 179.78 159.15 179.03 C 158.68 178.28 157.69 178.06 156.94 178.53 Z M 156.10 179.08 L 155.24 179.62 C 154.49 180.09 154.27 181.07 154.73 181.82 C 155.20 182.56 156.18 182.79 156.93 182.32 L 157.79 181.78 C 158.54 181.31 158.76 180.33 158.30 179.58 C 157.83 178.84 156.85 178.61 156.10 179.08 Z M 155.25 179.63 L 154.39 180.17 C 153.65 180.63 153.42 181.60 153.88 182.34 C 154.34 183.08 155.32 183.31 156.06 182.85 L 156.92 182.31 C 157.66 181.85 157.88 180.87 157.42 180.13 C 156.96 179.39 155.99 179.17 155.25 179.63 Z M 154.40 180.18 L 153.54 180.71 C 152.80 181.16 152.57 182.13 153.03 182.86 C 153.48 183.60 154.44 183.82 155.18 183.37 L 156.04 182.84 C 156.78 182.38 157.01 181.42 156.55 180.69 C 156.10 179.95 155.14 179.72 154.40 180.18 Z M 153.56 180.71 L 152.69 181.23 C 151.96 181.67 151.72 182.63 152.17 183.36 C 152.61 184.09 153.56 184.33 154.29 183.89 L 155.16 183.37 C 155.89 182.93 156.13 181.97 155.69 181.24 C 155.24 180.51 154.29 180.27 153.56 180.71 Z M 152.72 181.23 L 151.87 181.73 C 151.13 182.15 150.88 183.09 151.31 183.83 C 151.73 184.56 152.67 184.81 153.41 184.39 L 154.26 183.89 C 155.00 183.46 155.25 182.52 154.82 181.79 C 154.40 181.06 153.46 180.81 152.72 181.23 Z M 151.91 181.72 L 151.03 182.21 C 150.29 182.61 150.02 183.54 150.42 184.27 C 150.83 185.01 151.75 185.28 152.49 184.87 L 153.37 184.39 C 154.11 183.99 154.38 183.06 153.97 182.32 C 153.57 181.59 152.64 181.32 151.91 181.72 Z M 151.07 182.20 L 150.15 182.67 C 149.41 183.05 149.11 183.95 149.49 184.70 C 149.87 185.44 150.78 185.73 151.52 185.35 L 152.44 184.88 C 153.19 184.50 153.48 183.60 153.10 182.85 C 152.72 182.11 151.81 181.82 151.07 182.20 Z M 150.20 182.66 L 149.30 183.09 C 148.55 183.44 148.23 184.33 148.58 185.08 C 148.94 185.82 149.83 186.14 150.58 185.79 L 151.48 185.36 C 152.22 185.01 152.54 184.12 152.19 183.37 C 151.83 182.62 150.94 182.31 150.20 182.66 Z M 149.34 183.08 L 148.45 183.47 C 147.70 183.80 147.36 184.67 147.69 185.42 C 148.02 186.17 148.90 186.51 149.65 186.18 L 150.53 185.79 C 151.28 185.46 151.62 184.59 151.29 183.84 C 150.96 183.09 150.09 182.75 149.34 183.08 Z M 148.49 183.47 L 147.58 183.84 C 146.83 184.15 146.47 185.01 146.78 185.76 C 147.08 186.51 147.94 186.87 148.69 186.56 L 149.61 186.19 C 150.36 185.88 150.72 185.02 150.41 184.27 C 150.10 183.52 149.24 183.16 148.49 183.47 Z M 147.61 183.84 L 146.67 184.20 C 145.92 184.49 145.54 185.33 145.83 186.08 C 146.11 186.84 146.96 187.21 147.71 186.93 L 148.65 186.57 C 149.41 186.28 149.79 185.44 149.50 184.68 C 149.21 183.93 148.37 183.55 147.61 183.84 Z M 146.71 184.20 L 145.77 184.52 C 145.02 184.79 144.62 185.62 144.88 186.37 C 145.15 187.13 145.98 187.52 146.73 187.26 L 147.67 186.93 C 148.42 186.67 148.82 185.84 148.56 185.08 C 148.29 184.33 147.47 183.93 146.71 184.20 Z M 145.82 184.52 L 144.88 184.82 C 144.12 185.06 143.70 185.87 143.94 186.62 C 144.18 187.38 144.99 187.80 145.75 187.56 L 146.69 187.26 C 147.44 187.02 147.86 186.21 147.62 185.46 C 147.38 184.70 146.57 184.28 145.82 184.52 Z M 144.92 184.81 L 143.96 185.09 C 143.20 185.30 142.75 186.10 142.97 186.86 C 143.19 187.62 143.98 188.06 144.74 187.84 L 145.71 187.57 C 146.47 187.35 146.91 186.56 146.69 185.80 C 146.48 185.04 145.68 184.59 144.92 184.81 Z M 143.99 185.08 L 143.02 185.33 C 142.26 185.53 141.80 186.31 142.00 187.08 C 142.20 187.84 142.98 188.30 143.74 188.10 L 144.71 187.85 C 145.47 187.65 145.93 186.87 145.73 186.10 C 145.53 185.34 144.75 184.88 143.99 185.08 Z M 143.04 185.33 L 142.07 185.57 C 141.31 185.75 140.84 186.53 141.03 187.29 C 141.21 188.06 141.99 188.53 142.75 188.34 L 143.72 188.10 C 144.49 187.91 144.96 187.14 144.77 186.38 C 144.58 185.61 143.81 185.14 143.04 185.33 Z M 142.08 185.57 L 141.66 185.67 C 140.89 185.85 140.42 186.62 140.60 187.39 C 140.79 188.15 141.56 188.62 142.32 188.44 L 142.75 188.34 C 143.51 188.15 143.98 187.38 143.80 186.62 C 143.62 185.85 142.85 185.38 142.08 185.57 Z"
      fill="black"
      fill-rule="nonzero" /></svg>