<svg xmlns="http://www.w3.org/2000/svg" width="300" height="300" viewBox="0 0 300 300">
<path d="M 152.16 105.21 L 151.62 104.28 C 151.21 103.55 150.29 103.30 149.57 103.72 C 148.85 104.13 148.60 105.06 149.01 105.78 L 149.55 106.71 C 149.96 107.43 150.88 107.68 151.61 107.27 C 152.33 106.85 152.58 105.93 152.16 105.21 Z M 151.60 104.22 L 151.05 103.34 C 150.61 102.63 149.67 102.41 148.96 102.86 C 148.25 103.30 148.04 104.23 148.48 104.94 L 149.03 105.83 C 149.48 106.54 150.41 106.76 151.12 106.31 C 151.83 105.87 152.05 104.93 151.60 104.22 Z M 150.99 103.23 L 150.40 102.44 C 149.89 101.76 148.94 101.63 148.26 102.13 C 147.59 102.63 147.45 103.59 147.95 104.26 L 148.54 105.05 C 149.05 105.73 150.00 105.87 150.68 105.36 C 151.35 104.86 151.49 103.90 150.99 103.23 Z M 150.26 102.27 L 149.62 101.62 C 149.03 101.02 148.05 101.02 147.45 101.61 C 146.85 102.21 146.85 103.18 147.44 103.78 L 148.09 104.43 C 148.68 105.03 149.65 105.03 150.25 104.44 C 150.86 103.84 150.86 102.87 150.26 102.27 Z M 149.34 101.39 L 148.48 100.86 C 147.76 100.41 146.81 100.63 146.36 101.36 C 145.91 102.08 146.14 103.03 146.86 103.48 L 147.72 104.01 C 148.44 104.46 149.40 104.24 149.84 103.51 C 150.29 102.79 150.07 101.84 149.34 101.39 Z M 148.09 100.68 L 147.13 100.40 C 146.30 100.17 145.44 100.65 145.21 101.47 C 144.98 102.30 145.46 103.16 146.28 103.39 L 147.25 103.66 C 148.07 103.90 148.93 103.42 149.17 102.59 C 149.40 101.77 148.92 100.91 148.09 100.68 Z M 146.73 100.33 L 145.76 100.32 C 144.90 100.30 144.19 100.99 144.17 101.85 C 144.16 102.71 144.84 103.43 145.71 103.44 L 146.68 103.46 C 147.54 103.47 148.25 102.79 148.27 101.92 C 148.28 101.06 147.60 100.35 146.73 100.33 Z M 145.39 100.34 L 144.47 100.55 C 143.62 100.74 143.09 101.58 143.28 102.43 C 143.47 103.28 144.31 103.81 145.16 103.62 L 146.08 103.41 C 146.93 103.22 147.46 102.38 147.27 101.53 C 147.08 100.69 146.24 100.15 145.39 100.34 Z M 144.12 100.67 L 143.27 101.08 C 142.49 101.46 142.16 102.41 142.54 103.19 C 142.93 103.98 143.87 104.30 144.66 103.92 L 145.51 103.51 C 146.29 103.12 146.61 102.18 146.23 101.39 C 145.85 100.61 144.90 100.28 144.12 100.67 Z M 142.99 101.25 L 142.20 101.86 C 141.51 102.40 141.39 103.40 141.92 104.09 C 142.46 104.78 143.46 104.90 144.15 104.37 L 144.94 103.75 C 145.63 103.21 145.75 102.22 145.22 101.53 C 144.68 100.83 143.68 100.71 142.99 101.25 Z M 142.02 102.02 L 141.29 102.80 C 140.69 103.44 140.72 104.44 141.36 105.05 C 142.00 105.65 143.01 105.62 143.61 104.98 L 144.34 104.21 C 144.94 103.56 144.91 102.56 144.27 101.95 C 143.63 101.35 142.62 101.38 142.02 102.02 Z M 141.19 102.91 L 140.61 103.65 C 140.07 104.35 140.20 105.35 140.90 105.89 C 141.60 106.43 142.60 106.30 143.14 105.61 L 143.71 104.86 C 144.25 104.16 144.12 103.16 143.42 102.62 C 142.73 102.08 141.72 102.21 141.19 102.91 Z M 140.55 103.74 L 139.99 104.56 C 139.50 105.30 139.69 106.29 140.42 106.78 C 141.16 107.28 142.15 107.08 142.64 106.35 L 143.20 105.52 C 143.69 104.79 143.50 103.80 142.77 103.30 C 142.03 102.81 141.04 103.00 140.55 103.74 Z M 139.94 104.63 L 139.41 105.52 C 138.96 106.28 139.20 107.26 139.96 107.72 C 140.72 108.17 141.71 107.93 142.16 107.17 L 142.69 106.28 C 143.15 105.52 142.90 104.54 142.14 104.08 C 141.38 103.63 140.40 103.87 139.94 104.63 Z M 139.37 105.58 L 138.88 106.50 C 138.46 107.28 138.75 108.26 139.53 108.68 C 140.31 109.10 141.29 108.80 141.71 108.02 L 142.20 107.10 C 142.62 106.32 142.33 105.35 141.55 104.93 C 140.77 104.51 139.79 104.80 139.37 105.58 Z M 138.85 106.56 L 138.41 107.45 C 138.02 108.25 138.36 109.21 139.16 109.60 C 139.95 109.99 140.92 109.66 141.31 108.86 L 141.74 107.97 C 142.13 107.17 141.79 106.20 141.00 105.82 C 140.20 105.43 139.23 105.76 138.85 106.56 Z M 138.38 107.51 L 137.99 108.41 C 137.63 109.23 138.00 110.18 138.82 110.53 C 139.63 110.89 140.58 110.52 140.94 109.70 L 141.33 108.80 C 141.69 107.99 141.32 107.04 140.51 106.68 C 139.69 106.32 138.74 106.69 138.38 107.51 Z M 137.96 108.47 L 137.60 109.39 C 137.27 110.22 137.68 111.16 138.51 111.49 C 139.34 111.81 140.27 111.40 140.60 110.57 L 140.96 109.65 C 141.29 108.82 140.88 107.88 140.05 107.56 C 139.22 107.23 138.29 107.64 137.96 108.47 Z M 137.58 109.45 L 137.24 110.40 C 136.94 111.24 137.38 112.17 138.22 112.46 C 139.07 112.76 139.99 112.32 140.29 111.48 L 140.62 110.52 C 140.92 109.68 140.48 108.76 139.64 108.46 C 138.79 108.16 137.87 108.61 137.58 109.45 Z M 137.22 110.45 L 136.92 111.38 C 136.65 112.24 137.12 113.15 137.98 113.42 C 138.83 113.69 139.74 113.21 140.01 112.36 L 140.30 111.43 C 140.57 110.58 140.10 109.67 139.25 109.40 C 138.40 109.13 137.49 109.60 137.22 110.45 Z M 136.91 111.43 L 136.64 112.35 C 136.40 113.21 136.90 114.10 137.75 114.35 C 138.61 114.60 139.51 114.10 139.76 113.24 L 140.02 112.32 C 140.27 111.46 139.77 110.56 138.91 110.32 C 138.05 110.07 137.16 110.57 136.91 111.43 Z M 136.63 112.39 L 136.39 113.35 C 136.16 114.21 136.68 115.10 137.55 115.32 C 138.42 115.54 139.30 115.02 139.52 114.15 L 139.77 113.20 C 139.99 112.33 139.47 111.45 138.61 111.23 C 137.74 111.00 136.85 111.52 136.63 112.39 Z M 136.37 113.39 L 136.15 114.38 C 135.95 115.25 136.49 116.12 137.37 116.32 C 138.24 116.52 139.11 115.98 139.31 115.10 L 139.54 114.11 C 139.74 113.24 139.19 112.37 138.32 112.17 C 137.44 111.97 136.57 112.51 136.37 113.39 Z M 136.14 114.42 L 135.93 115.45 C 135.75 116.33 136.32 117.18 137.20 117.36 C 138.08 117.54 138.94 116.97 139.11 116.09 L 139.32 115.06 C 139.50 114.18 138.93 113.33 138.05 113.15 C 137.17 112.97 136.31 113.54 136.14 114.42 Z M 135.92 115.49 L 135.74 116.52 C 135.59 117.40 136.18 118.24 137.06 118.40 C 137.95 118.55 138.79 117.96 138.94 117.08 L 139.12 116.05 C 139.28 115.16 138.69 114.32 137.80 114.17 C 136.92 114.01 136.08 114.60 135.92 115.49 Z M 135.73 116.55 L 135.58 117.58 C 135.44 118.47 136.05 119.30 136.94 119.44 C 137.83 119.57 138.66 118.96 138.79 118.07 L 138.95 117.04 C 139.08 116.16 138.47 115.33 137.59 115.19 C 136.70 115.06 135.87 115.67 135.73 116.55 Z M 135.57 117.61 L 135.43 118.64 C 135.31 119.53 135.94 120.35 136.83 120.47 C 137.72 120.59 138.54 119.96 138.66 119.07 L 138.80 118.05 C 138.92 117.16 138.29 116.34 137.40 116.22 C 136.51 116.10 135.69 116.72 135.57 117.61 Z M 135.43 118.66 L 135.31 119.66 C 135.20 120.55 135.83 121.36 136.73 121.47 C 137.62 121.58 138.43 120.94 138.54 120.05 L 138.66 119.05 C 138.77 118.16 138.14 117.35 137.24 117.24 C 136.35 117.13 135.54 117.77 135.43 118.66 Z M 135.30 119.67 L 135.20 120.62 C 135.10 121.52 135.74 122.32 136.64 122.42 C 137.53 122.52 138.34 121.88 138.44 120.98 L 138.54 120.04 C 138.64 119.14 138.00 118.33 137.10 118.24 C 136.21 118.14 135.40 118.78 135.30 119.67 Z M 135.20 120.64 L 135.09 121.64 C 135.00 122.54 135.65 123.34 136.55 123.43 C 137.44 123.52 138.24 122.87 138.34 121.98 L 138.44 120.97 C 138.53 120.07 137.88 119.27 136.98 119.18 C 136.09 119.09 135.29 119.74 135.20 120.64 Z M 135.09 121.66 L 134.99 122.71 C 134.91 123.61 135.57 124.41 136.46 124.49 C 137.36 124.57 138.16 123.91 138.24 123.02 L 138.34 121.96 C 138.42 121.06 137.76 120.27 136.87 120.18 C 135.97 120.10 135.17 120.76 135.09 121.66 Z M 134.99 122.73 L 134.91 123.70 C 134.84 124.60 135.51 125.38 136.41 125.46 C 137.30 125.53 138.09 124.86 138.16 123.96 L 138.24 123.00 C 138.31 122.10 137.65 121.31 136.75 121.24 C 135.85 121.17 135.06 121.84 134.99 122.73 Z M 134.91 123.72 L 134.85 124.65 C 134.79 125.54 135.47 126.32 136.37 126.38 C 137.26 126.44 138.04 125.76 138.10 124.86 L 138.17 123.94 C 138.23 123.04 137.55 122.26 136.65 122.20 C 135.75 122.14 134.97 122.82 134.91 123.72 Z M 134.84 124.67 L 134.79 125.63 C 134.74 126.53 135.43 127.30 136.33 127.35 C 137.23 127.40 138.00 126.71 138.05 125.81 L 138.11 124.84 C 138.15 123.94 137.46 123.17 136.56 123.12 C 135.66 123.08 134.89 123.77 134.84 124.67 Z M 134.79 125.65 L 134.75 126.65 C 134.71 127.55 135.41 128.31 136.31 128.35 C 137.21 128.39 137.97 127.69 138.01 126.79 L 138.05 125.79 C 138.09 124.89 137.39 124.12 136.49 124.09 C 135.59 124.05 134.83 124.75 134.79 125.65 Z M 134.75 126.66 L 134.71 127.67 C 134.68 128.57 135.39 129.33 136.29 129.36 C 137.19 129.39 137.95 128.68 137.98 127.78 L 138.01 126.77 C 138.04 125.87 137.33 125.11 136.43 125.08 C 135.53 125.06 134.78 125.76 134.75 126.66 Z M 134.71 127.69 L 134.69 128.69 C 134.67 129.59 135.38 130.34 136.29 130.36 C 137.19 130.38 137.94 129.67 137.96 128.76 L 137.98 127.76 C 138.00 126.86 137.29 126.11 136.38 126.09 C 135.48 126.07 134.73 126.79 134.71 127.69 Z M 134.69 128.71 L 134.68 129.73 C 134.66 130.63 135.39 131.37 136.29 131.38 C 137.19 131.39 137.93 130.67 137.94 129.77 L 137.96 128.75 C 137.97 127.85 137.25 127.11 136.34 127.09 C 135.44 127.08 134.70 127.80 134.69 128.71 Z M 134.67 129.74 L 134.67 130.74 C 134.66 131.64 135.39 132.38 136.29 132.38 C 137.20 132.39 137.93 131.66 137.94 130.76 L 137.94 129.76 C 137.95 128.85 137.22 128.12 136.32 128.11 C 135.42 128.11 134.68 128.83 134.67 129.74 Z M 134.67 130.75 L 134.67 131.73 C 134.67 132.64 135.40 133.37 136.30 133.37 C 137.20 133.37 137.94 132.64 137.94 131.74 L 137.94 130.75 C 137.94 129.85 137.21 129.12 136.31 129.11 C 135.40 129.11 134.67 129.84 134.67 130.75 Z M 134.67 131.73 L 134.67 132.74 C 134.67 133.64 135.40 134.37 136.30 134.37 C 137.21 134.37 137.94 133.64 137.94 132.73 L 137.94 131.73 C 137.94 130.83 137.21 130.10 136.30 130.10 C 135.40 130.10 134.67 130.83 134.67 131.73 Z M 134.67 132.74 L 134.67 133.75 C 134.67 134.65 135.41 135.38 136.31 135.38 C 137.21 135.37 137.94 134.64 137.94 133.74 L 137.94 132.73 C 137.94 131.83 137.20 131.10 136.30 131.10 C 135.40 131.10 134.66 131.84 134.67 132.74 Z M 134.67 133.76 L 134.68 134.75 C 134.68 135.65 135.42 136.38 136.33 136.37 C 137.23 136.36 137.96 135.63 137.95 134.72 L 137.94 133.73 C 137.93 132.83 137.19 132.10 136.29 132.11 C 135.39 132.11 134.66 132.85 134.67 133.76 Z M 134.68 134.77 L 134.69 135.72 C 134.71 136.63 135.46 137.35 136.36 137.33 C 137.26 137.31 137.98 136.57 137.97 135.67 L 137.95 134.71 C 137.93 133.80 137.19 133.08 136.28 133.10 C 135.38 133.12 134.66 133.86 134.68 134.77 Z M 134.70 135.76 L 134.73 136.67 C 134.77 137.57 135.53 138.27 136.43 138.24 C 137.33 138.20 138.04 137.44 138.00 136.54 L 137.96 135.63 C 137.93 134.73 137.17 134.03 136.26 134.06 C 135.36 134.10 134.66 134.86 134.70 135.76 Z M 134.74 136.74 L 134.82 137.71 C 134.90 138.61 135.69 139.27 136.59 139.20 C 137.49 139.12 138.15 138.33 138.08 137.43 L 138.00 136.46 C 137.92 135.56 137.13 134.90 136.23 134.97 C 135.33 135.05 134.66 135.84 134.74 136.74 Z M 134.83 137.80 L 134.99 138.88 C 135.12 139.77 135.95 140.39 136.84 140.26 C 137.73 140.13 138.35 139.30 138.22 138.41 L 138.07 137.33 C 137.94 136.44 137.11 135.82 136.21 135.95 C 135.32 136.08 134.70 136.91 134.83 137.80 Z M 135.00 138.97 L 135.20 139.94 C 135.38 140.82 136.24 141.40 137.12 141.22 C 138.01 141.04 138.58 140.18 138.40 139.29 L 138.21 138.32 C 138.03 137.43 137.17 136.86 136.28 137.04 C 135.40 137.22 134.82 138.08 135.00 138.97 Z M 135.21 140.00 L 135.44 140.93 C 135.65 141.81 136.53 142.35 137.41 142.14 C 138.29 141.92 138.83 141.04 138.61 140.16 L 138.39 139.23 C 138.18 138.35 137.29 137.81 136.42 138.03 C 135.54 138.24 135.00 139.12 135.21 140.00 Z M 135.45 140.98 L 135.72 141.96 C 135.96 142.83 136.86 143.34 137.73 143.10 C 138.60 142.86 139.11 141.96 138.87 141.09 L 138.60 140.11 C 138.36 139.24 137.46 138.73 136.59 138.97 C 135.72 139.21 135.21 140.11 135.45 140.98 Z M 135.73 142.00 L 136.04 143.00 C 136.30 143.86 137.21 144.35 138.08 144.08 C 138.94 143.82 139.43 142.90 139.16 142.04 L 138.86 141.04 C 138.59 140.18 137.68 139.69 136.82 139.96 C 135.95 140.22 135.47 141.14 135.73 142.00 Z M 136.05 143.04 L 136.39 144.03 C 136.67 144.89 137.60 145.35 138.46 145.06 C 139.31 144.77 139.77 143.84 139.48 142.99 L 139.15 141.99 C 138.86 141.14 137.93 140.68 137.08 140.97 C 136.22 141.26 135.76 142.19 136.05 143.04 Z M 136.40 144.08 L 136.78 145.09 C 137.10 145.93 138.04 146.36 138.88 146.04 C 139.73 145.73 140.16 144.79 139.84 143.94 L 139.46 142.94 C 139.15 142.09 138.21 141.66 137.36 141.98 C 136.52 142.29 136.09 143.24 136.40 144.08 Z M 136.80 145.14 L 137.22 146.14 C 137.57 146.97 138.52 147.36 139.36 147.01 C 140.19 146.67 140.58 145.71 140.23 144.88 L 139.82 143.88 C 139.47 143.05 138.51 142.66 137.68 143.01 C 136.85 143.35 136.45 144.31 136.80 145.14 Z M 137.25 146.20 L 137.69 147.13 C 138.07 147.95 139.05 148.30 139.86 147.91 C 140.68 147.52 141.03 146.55 140.64 145.74 L 140.20 144.81 C 139.82 143.99 138.84 143.64 138.03 144.03 C 137.21 144.41 136.86 145.39 137.25 146.20 Z M 137.73 147.21 L 138.18 148.06 C 138.61 148.85 139.60 149.15 140.40 148.72 C 141.19 148.29 141.49 147.30 141.06 146.51 L 140.60 145.66 C 140.17 144.87 139.18 144.57 138.39 145.00 C 137.60 145.42 137.30 146.41 137.73 147.21 Z M 138.24 148.15 L 138.71 148.91 C 139.19 149.68 140.20 149.91 140.96 149.44 C 141.73 148.96 141.96 147.95 141.48 147.19 L 141.01 146.42 C 140.53 145.66 139.52 145.42 138.76 145.90 C 137.99 146.38 137.76 147.38 138.24 148.15 Z M 138.80 149.03 L 139.41 149.85 C 139.95 150.57 140.97 150.71 141.69 150.17 C 142.41 149.63 142.56 148.61 142.02 147.89 L 141.40 147.07 C 140.86 146.35 139.84 146.21 139.12 146.75 C 138.40 147.29 138.25 148.31 138.80 149.03 Z M 139.54 150.00 L 140.23 150.71 C 140.85 151.36 141.88 151.39 142.53 150.76 C 143.18 150.14 143.20 149.11 142.58 148.46 L 141.89 147.74 C 141.27 147.09 140.23 147.07 139.58 147.69 C 138.93 148.31 138.91 149.35 139.54 150.00 Z M 140.39 150.86 L 141.15 151.46 C 141.85 152.02 142.88 151.90 143.44 151.20 C 144.00 150.49 143.88 149.47 143.17 148.91 L 142.41 148.31 C 141.71 147.75 140.68 147.87 140.12 148.58 C 139.57 149.28 139.69 150.31 140.39 150.86 Z M 141.33 151.59 L 142.17 152.09 C 142.95 152.55 143.95 152.29 144.40 151.52 C 144.86 150.74 144.61 149.74 143.83 149.29 L 142.99 148.79 C 142.22 148.33 141.22 148.58 140.76 149.36 C 140.30 150.13 140.56 151.13 141.33 151.59 Z M 142.34 152.17 L 143.24 152.57 C 144.06 152.94 145.02 152.57 145.39 151.75 C 145.76 150.93 145.39 149.97 144.57 149.60 L 143.67 149.20 C 142.85 148.83 141.88 149.20 141.52 150.02 C 141.15 150.84 141.52 151.81 142.34 152.17 Z M 143.39 152.63 L 144.35 152.95 C 145.20 153.24 146.12 152.78 146.41 151.93 C 146.69 151.08 146.23 150.15 145.38 149.87 L 144.42 149.55 C 143.57 149.26 142.65 149.72 142.36 150.57 C 142.08 151.42 142.54 152.34 143.39 152.63 Z M 144.49 152.99 L 145.47 153.23 C 146.34 153.43 147.22 152.90 147.43 152.02 C 147.64 151.15 147.10 150.27 146.22 150.06 L 145.24 149.83 C 144.37 149.62 143.49 150.16 143.28 151.03 C 143.07 151.91 143.61 152.78 144.49 152.99 Z M 145.62 153.25 L 146.61 153.40 C 147.50 153.52 148.32 152.91 148.45 152.02 C 148.58 151.13 147.96 150.31 147.07 150.18 L 146.08 150.04 C 145.19 149.91 144.37 150.53 144.24 151.42 C 144.11 152.30 144.73 153.13 145.62 153.25 Z M 146.80 153.41 L 147.80 153.44 C 148.70 153.46 149.44 152.75 149.47 151.86 C 149.49 150.96 148.78 150.22 147.89 150.19 L 146.88 150.17 C 145.99 150.14 145.24 150.85 145.22 151.74 C 145.19 152.64 145.90 153.39 146.80 153.41 Z M 148.06 153.42 L 149.03 153.29 C 149.91 153.18 150.54 152.36 150.42 151.48 C 150.31 150.59 149.49 149.96 148.60 150.08 L 147.63 150.21 C 146.74 150.32 146.12 151.14 146.24 152.03 C 146.35 152.91 147.17 153.54 148.06 153.42 Z M 149.33 153.22 L 150.27 152.91 C 151.12 152.63 151.58 151.71 151.29 150.86 C 151.01 150.01 150.09 149.55 149.24 149.84 L 148.30 150.15 C 147.45 150.43 146.99 151.35 147.28 152.20 C 147.56 153.05 148.48 153.51 149.33 153.22 Z M 150.55 152.78 L 151.40 152.30 C 152.18 151.86 152.45 150.88 152.01 150.10 C 151.58 149.32 150.59 149.05 149.81 149.48 L 148.96 149.96 C 148.18 150.40 147.91 151.39 148.35 152.17 C 148.79 152.95 149.77 153.22 150.55 152.78 Z M 151.59 152.17 L 152.38 151.56 C 153.09 151.02 153.22 150.00 152.67 149.30 C 152.13 148.59 151.11 148.46 150.41 149.01 L 149.62 149.62 C 148.91 150.16 148.78 151.18 149.33 151.88 C 149.87 152.59 150.89 152.72 151.59 152.17 Z M 152.51 151.45 L 153.25 150.74 C 153.89 150.13 153.92 149.11 153.30 148.46 C 152.69 147.82 151.67 147.79 151.02 148.41 L 150.28 149.12 C 149.64 149.73 149.61 150.75 150.23 151.40 C 150.84 152.04 151.86 152.07 152.51 151.45 Z M 153.34 150.65 L 154.01 149.90 C 154.60 149.23 154.55 148.22 153.89 147.62 C 153.22 147.03 152.20 147.09 151.61 147.75 L 150.94 148.50 C 150.34 149.17 150.40 150.18 151.06 150.78 C 151.72 151.37 152.74 151.31 153.34 150.65 Z M 154.08 149.81 L 154.72 148.99 C 155.27 148.29 155.14 147.28 154.44 146.73 C 153.74 146.19 152.73 146.31 152.19 147.01 L 151.54 147.83 C 151.00 148.53 151.12 149.54 151.82 150.09 C 152.52 150.64 153.53 150.51 154.08 149.81 Z M 154.78 148.91 L 155.35 148.07 C 155.85 147.34 155.66 146.34 154.93 145.84 C 154.20 145.34 153.20 145.53 152.70 146.26 L 152.13 147.09 C 151.63 147.83 151.82 148.83 152.55 149.33 C 153.28 149.83 154.28 149.64 154.78 148.91 Z M 155.39 148.00 L 155.90 147.17 C 156.36 146.41 156.12 145.43 155.37 144.96 C 154.61 144.50 153.62 144.74 153.16 145.50 L 152.66 146.33 C 152.20 147.08 152.43 148.07 153.19 148.53 C 153.95 148.99 154.93 148.75 155.39 148.00 Z M 155.92 147.12 L 156.39 146.29 C 156.83 145.52 156.56 144.55 155.79 144.11 C 155.02 143.68 154.04 143.95 153.61 144.72 L 153.14 145.54 C 152.70 146.31 152.97 147.29 153.74 147.73 C 154.51 148.16 155.49 147.89 155.92 147.12 Z M 156.41 146.27 L 156.85 145.45 C 157.27 144.67 156.98 143.70 156.21 143.28 C 155.43 142.86 154.46 143.15 154.04 143.92 L 153.59 144.74 C 153.17 145.52 153.46 146.49 154.24 146.91 C 155.01 147.33 155.98 147.04 156.41 146.27 Z M 156.86 145.42 L 157.31 144.56 C 157.72 143.78 157.42 142.82 156.63 142.41 C 155.85 142.00 154.89 142.30 154.48 143.08 L 154.03 143.95 C 153.62 144.73 153.92 145.69 154.70 146.10 C 155.49 146.51 156.45 146.21 156.86 145.42 Z M 157.32 144.54 L 157.79 143.61 C 158.19 142.82 157.87 141.86 157.08 141.46 C 156.29 141.07 155.33 141.39 154.93 142.18 L 154.47 143.11 C 154.07 143.90 154.39 144.86 155.18 145.25 C 155.97 145.65 156.93 145.33 157.32 144.54 Z M 157.80 143.59 L 158.25 142.65 C 158.64 141.86 158.30 140.90 157.51 140.52 C 156.72 140.13 155.76 140.47 155.38 141.26 L 154.92 142.20 C 154.54 142.99 154.87 143.94 155.67 144.33 C 156.46 144.71 157.41 144.38 157.80 143.59 Z M 158.26 142.63 L 158.68 141.74 C 159.05 140.95 158.71 140.00 157.91 139.62 C 157.11 139.25 156.16 139.59 155.79 140.39 L 155.37 141.28 C 154.99 142.08 155.34 143.03 156.14 143.40 C 156.93 143.78 157.89 143.43 158.26 142.63 Z M 158.69 141.73 L 159.11 140.80 C 159.47 140.00 159.12 139.05 158.31 138.68 C 157.51 138.32 156.57 138.67 156.20 139.48 L 155.78 140.41 C 155.41 141.21 155.77 142.15 156.57 142.52 C 157.38 142.88 158.32 142.53 158.69 141.73 Z M 159.12 140.78 L 159.53 139.84 C 159.88 139.03 159.51 138.09 158.70 137.73 C 157.89 137.38 156.95 137.75 156.60 138.56 L 156.19 139.50 C 155.84 140.31 156.21 141.25 157.02 141.60 C 157.82 141.95 158.77 141.58 159.12 140.78 Z M 159.54 139.81 L 159.92 138.88 C 160.26 138.07 159.87 137.13 159.06 136.80 C 158.24 136.46 157.31 136.85 156.97 137.66 L 156.59 138.59 C 156.25 139.40 156.64 140.34 157.45 140.67 C 158.27 141.01 159.20 140.62 159.54 139.81 Z M 159.94 138.85 L 160.32 137.85 C 160.64 137.03 160.23 136.10 159.41 135.79 C 158.58 135.47 157.66 135.88 157.34 136.70 L 156.96 137.70 C 156.64 138.52 157.05 139.44 157.87 139.76 C 158.70 140.08 159.62 139.67 159.94 138.85 Z M 160.33 137.82 L 160.68 136.85 C 160.98 136.02 160.55 135.11 159.72 134.81 C 158.89 134.51 157.98 134.94 157.68 135.77 L 157.33 136.74 C 157.03 137.57 157.46 138.48 158.29 138.78 C 159.12 139.08 160.04 138.65 160.33 137.82 Z M 160.69 136.83 L 161.01 135.90 C 161.29 135.07 160.85 134.16 160.01 133.88 C 159.18 133.59 158.27 134.03 157.99 134.87 L 157.67 135.79 C 157.38 136.63 157.83 137.53 158.66 137.82 C 159.50 138.11 160.40 137.66 160.69 136.83 Z M 161.01 135.90 L 161.31 135.01 C 161.59 134.17 161.14 133.26 160.31 132.98 C 159.47 132.70 158.56 133.15 158.28 133.99 L 157.98 134.88 C 157.70 135.71 158.15 136.62 158.99 136.90 C 159.82 137.18 160.73 136.73 161.01 135.90 Z M 161.31 135.01 L 161.63 134.07 C 161.91 133.24 161.47 132.33 160.64 132.04 C 159.80 131.76 158.89 132.20 158.61 133.04 L 158.29 133.98 C 158.00 134.81 158.45 135.72 159.28 136.01 C 160.11 136.29 161.02 135.85 161.31 135.01 Z M 161.63 134.07 L 161.95 133.13 C 162.24 132.30 161.80 131.39 160.97 131.10 C 160.14 130.81 159.23 131.25 158.94 132.09 L 158.61 133.03 C 158.32 133.86 158.76 134.77 159.60 135.06 C 160.43 135.35 161.34 134.91 161.63 134.07 Z M 161.95 133.13 L 162.28 132.19 C 162.56 131.36 162.12 130.45 161.29 130.16 C 160.45 129.88 159.55 130.32 159.26 131.15 L 158.94 132.09 C 158.65 132.92 159.10 133.83 159.93 134.12 C 160.76 134.40 161.67 133.96 161.95 133.13 Z M 162.28 132.17 L 162.59 131.23 C 162.87 130.40 162.42 129.49 161.58 129.22 C 160.75 128.94 159.85 129.39 159.57 130.23 L 159.26 131.17 C 158.98 132.00 159.43 132.90 160.27 133.18 C 161.10 133.46 162.00 133.01 162.28 132.17 Z M 162.60 131.21 L 162.89 130.28 C 163.16 129.44 162.70 128.55 161.86 128.28 C 161.02 128.01 160.13 128.47 159.86 129.31 L 159.56 130.25 C 159.30 131.08 159.76 131.98 160.60 132.24 C 161.43 132.51 162.33 132.05 162.60 131.21 Z M 162.89 130.27 L 163.19 129.32 C 163.46 128.49 162.99 127.59 162.16 127.33 C 161.32 127.06 160.43 127.53 160.16 128.37 L 159.86 129.32 C 159.60 130.15 160.06 131.04 160.90 131.31 C 161.74 131.57 162.63 131.11 162.89 130.27 Z M 163.19 129.33 L 163.50 128.37 C 163.77 127.54 163.32 126.64 162.48 126.37 C 161.65 126.10 160.75 126.56 160.48 127.39 L 160.17 128.35 C 159.90 129.19 160.35 130.08 161.19 130.35 C 162.02 130.62 162.92 130.17 163.19 129.33 Z M 163.49 128.40 L 163.82 127.44 C 164.10 126.61 163.66 125.71 162.84 125.43 C 162.01 125.14 161.11 125.58 160.82 126.41 L 160.49 127.36 C 160.21 128.19 160.65 129.09 161.48 129.38 C 162.30 129.66 163.20 129.22 163.49 128.40 Z M 163.80 127.48 L 164.15 126.54 C 164.46 125.73 164.04 124.82 163.22 124.51 C 162.41 124.21 161.50 124.62 161.19 125.44 L 160.84 126.37 C 160.54 127.19 160.95 128.10 161.77 128.40 C 162.58 128.71 163.49 128.29 163.80 127.48 Z M 164.12 126.59 L 164.51 125.66 C 164.84 124.86 164.46 123.94 163.65 123.61 C 162.85 123.28 161.93 123.66 161.60 124.46 L 161.22 125.39 C 160.89 126.19 161.27 127.11 162.07 127.44 C 162.87 127.77 163.79 127.39 164.12 126.59 Z M 164.48 125.72 L 164.90 124.81 C 165.26 124.02 164.92 123.09 164.13 122.73 C 163.35 122.37 162.42 122.71 162.05 123.50 L 161.63 124.40 C 161.27 125.19 161.61 126.12 162.40 126.48 C 163.18 126.84 164.11 126.50 164.48 125.72 Z M 164.86 124.88 L 165.33 123.97 C 165.73 123.21 165.44 122.27 164.67 121.87 C 163.91 121.47 162.97 121.76 162.57 122.52 L 162.09 123.43 C 161.69 124.19 161.99 125.13 162.75 125.53 C 163.51 125.93 164.46 125.64 164.86 124.88 Z M 165.29 124.04 L 165.81 123.16 C 166.25 122.42 166.00 121.46 165.26 121.02 C 164.52 120.59 163.57 120.83 163.13 121.57 L 162.61 122.46 C 162.17 123.20 162.42 124.15 163.16 124.59 C 163.90 125.03 164.85 124.78 165.29 124.04 Z M 165.78 123.21 L 166.32 122.37 C 166.78 121.64 166.58 120.68 165.85 120.22 C 165.13 119.75 164.17 119.96 163.70 120.68 L 163.16 121.52 C 162.69 122.25 162.90 123.21 163.63 123.67 C 164.35 124.14 165.31 123.93 165.78 123.21 Z M 166.30 122.40 L 166.84 121.61 C 167.32 120.90 167.14 119.93 166.43 119.44 C 165.72 118.96 164.75 119.14 164.27 119.85 L 163.72 120.65 C 163.24 121.36 163.42 122.33 164.13 122.81 C 164.84 123.29 165.81 123.11 166.30 122.40 Z M 166.83 121.62 L 167.42 120.78 C 167.91 120.08 167.74 119.10 167.04 118.61 C 166.33 118.12 165.36 118.29 164.87 118.99 L 164.28 119.84 C 163.78 120.54 163.95 121.51 164.66 122.00 C 165.36 122.50 166.33 122.33 166.83 121.62 Z M 167.43 120.77 L 167.99 119.94 C 168.48 119.23 168.30 118.26 167.58 117.77 C 166.87 117.29 165.90 117.47 165.42 118.18 L 164.85 119.01 C 164.37 119.72 164.55 120.69 165.26 121.18 C 165.98 121.66 166.95 121.48 167.43 120.77 Z M 168.04 119.88 L 168.55 119.05 C 169.00 118.31 168.77 117.35 168.03 116.90 C 167.30 116.45 166.34 116.68 165.88 117.41 L 165.37 118.24 C 164.92 118.98 165.15 119.94 165.89 120.39 C 166.62 120.84 167.59 120.61 168.04 119.88 Z M 168.61 118.94 L 169.06 118.07 C 169.45 117.30 169.14 116.36 168.37 115.96 C 167.60 115.57 166.66 115.87 166.26 116.65 L 165.82 117.52 C 165.42 118.29 165.73 119.24 166.50 119.63 C 167.27 120.02 168.22 119.72 168.61 118.94 Z M 169.11 117.97 L 169.50 117.05 C 169.84 116.25 169.46 115.32 168.66 114.99 C 167.85 114.65 166.93 115.03 166.59 115.83 L 166.21 116.75 C 165.87 117.55 166.25 118.48 167.05 118.81 C 167.85 119.15 168.78 118.77 169.11 117.97 Z M 169.54 116.99 L 169.88 116.04 C 170.18 115.22 169.76 114.31 168.94 114.01 C 168.12 113.70 167.20 114.13 166.90 114.95 L 166.56 115.89 C 166.25 116.72 166.67 117.63 167.50 117.93 C 168.32 118.23 169.23 117.81 169.54 116.99 Z M 169.90 116.02 L 170.09 115.48 C 170.38 114.65 169.94 113.74 169.11 113.45 C 168.28 113.16 167.37 113.60 167.08 114.43 L 166.89 114.97 C 166.60 115.80 167.03 116.71 167.87 117.00 C 168.70 117.29 169.61 116.85 169.90 116.02 Z"
      fill="black"
      fill-rule="nonzero" /><path d="M 167.29 99.37 L 166.97 100.27 C 166.70 101.06 167.11 101.92 167.89 102.20 C 168.68 102.48 169.54 102.06 169.82 101.28 L 170.14 100.38 C 170.41 99.59 170.00 98.73 169.22 98.45 C 168.43 98.17 167.57 98.59 167.29 99.37 Z M 166.92 100.32 L 166.63 101.25 C 166.38 102.06 166.84 102.93 167.65 103.18 C 168.46 103.43 169.33 102.98 169.58 102.16 L 169.87 101.23 C 170.12 100.42 169.67 99.56 168.85 99.30 C 168.04 99.05 167.17 99.51 166.92 100.32 Z M 166.57 101.35 L 166.34 102.34 C 166.14 103.19 166.67 104.03 167.52 104.23 C 168.36 104.43 169.21 103.90 169.41 103.06 L 169.64 102.07 C 169.84 101.22 169.31 100.37 168.46 100.17 C 167.62 99.97 166.77 100.50 166.57 101.35 Z M 166.28 102.48 L 166.14 103.51 C 166.02 104.39 166.64 105.20 167.52 105.32 C 168.40 105.44 169.21 104.82 169.33 103.94 L 169.47 102.91 C 169.59 102.03 168.97 101.23 168.09 101.11 C 167.21 100.99 166.40 101.60 166.28 102.48 Z M 166.12 103.65 L 166.07 104.65 C 166.02 105.54 166.71 106.30 167.60 106.35 C 168.50 106.39 169.26 105.70 169.30 104.81 L 169.35 103.81 C 169.40 102.91 168.71 102.15 167.82 102.11 C 166.92 102.06 166.16 102.75 166.12 103.65 Z M 166.06 104.74 L 166.07 105.77 C 166.07 106.66 166.80 107.39 167.70 107.38 C 168.60 107.38 169.32 106.65 169.31 105.75 L 169.31 104.72 C 169.30 103.82 168.57 103.10 167.68 103.10 C 166.78 103.11 166.06 103.84 166.06 104.74 Z M 166.06 105.82 L 166.11 106.84 C 166.14 107.74 166.90 108.43 167.80 108.40 C 168.70 108.36 169.40 107.60 169.36 106.70 L 169.32 105.69 C 169.28 104.79 168.52 104.09 167.62 104.13 C 166.72 104.17 166.03 104.93 166.06 105.82 Z M 166.10 106.87 L 166.16 107.84 C 166.22 108.74 167.00 109.43 167.90 109.37 C 168.80 109.31 169.48 108.54 169.42 107.64 L 169.36 106.67 C 169.30 105.77 168.53 105.08 167.63 105.14 C 166.73 105.20 166.05 105.97 166.10 106.87 Z M 166.16 107.86 L 166.24 108.93 C 166.30 109.83 167.09 110.51 167.99 110.44 C 168.89 110.38 169.57 109.60 169.50 108.69 L 169.42 107.62 C 169.36 106.72 168.58 106.04 167.68 106.11 C 166.77 106.18 166.10 106.96 166.16 107.86 Z M 166.24 108.94 L 166.32 109.92 C 166.39 110.83 167.18 111.50 168.08 111.43 C 168.98 111.36 169.65 110.57 169.58 109.66 L 169.50 108.68 C 169.43 107.78 168.64 107.11 167.74 107.18 C 166.84 107.25 166.17 108.04 166.24 108.94 Z M 166.31 109.93 L 166.39 110.87 C 166.47 111.78 167.26 112.45 168.16 112.37 C 169.06 112.30 169.74 111.51 169.66 110.60 L 169.58 109.66 C 169.51 108.76 168.72 108.09 167.81 108.16 C 166.91 108.23 166.24 109.03 166.31 109.93 Z M 166.39 110.87 L 166.46 111.81 C 166.54 112.71 167.33 113.39 168.23 113.31 C 169.14 113.24 169.81 112.45 169.74 111.54 L 169.66 110.61 C 169.59 109.70 168.80 109.03 167.89 109.10 C 166.99 109.17 166.32 109.97 166.39 110.87 Z M 166.46 111.80 L 166.53 112.77 C 166.60 113.67 167.39 114.35 168.30 114.28 C 169.21 114.21 169.88 113.42 169.82 112.52 L 169.74 111.55 C 169.67 110.65 168.88 109.97 167.98 110.04 C 167.07 110.10 166.39 110.89 166.46 111.80 Z M 166.53 112.75 L 166.60 113.77 C 166.66 114.67 167.45 115.36 168.35 115.30 C 169.26 115.24 169.95 114.45 169.89 113.55 L 169.82 112.53 C 169.76 111.62 168.97 110.94 168.06 111.00 C 167.16 111.06 166.47 111.84 166.53 112.75 Z M 166.60 113.75 L 166.65 114.79 C 166.71 115.70 167.48 116.40 168.39 116.35 C 169.30 116.30 170.00 115.52 169.95 114.61 L 169.89 113.56 C 169.84 112.65 169.06 111.96 168.15 112.01 C 167.24 112.06 166.54 112.84 166.60 113.75 Z M 166.65 114.78 L 166.70 115.74 C 166.74 116.65 167.51 117.35 168.42 117.31 C 169.33 117.27 170.04 116.50 170.00 115.58 L 169.95 114.63 C 169.91 113.71 169.14 113.01 168.23 113.05 C 167.31 113.09 166.61 113.87 166.65 114.78 Z M 166.69 115.73 L 166.73 116.72 C 166.77 117.63 167.54 118.34 168.45 118.31 C 169.37 118.27 170.08 117.50 170.04 116.59 L 170.00 115.59 C 169.96 114.68 169.19 113.97 168.28 114.01 C 167.37 114.04 166.66 114.81 166.69 115.73 Z M 166.73 116.72 L 166.77 117.74 C 166.81 118.65 167.58 119.36 168.49 119.33 C 169.41 119.29 170.12 118.52 170.08 117.61 L 170.04 116.59 C 170.00 115.67 169.23 114.96 168.32 115.00 C 167.41 115.03 166.69 115.81 166.73 116.72 Z M 166.77 117.74 L 166.82 118.78 C 166.86 119.69 167.63 120.40 168.54 120.36 C 169.46 120.32 170.17 119.55 170.13 118.64 L 170.08 117.60 C 170.04 116.69 169.27 115.98 168.36 116.02 C 167.44 116.06 166.73 116.83 166.77 117.74 Z M 166.81 118.79 L 166.86 119.77 C 166.91 120.69 167.69 121.39 168.60 121.35 C 169.52 121.30 170.22 120.52 170.18 119.61 L 170.13 118.63 C 170.09 117.71 169.31 117.00 168.39 117.05 C 167.48 117.09 166.77 117.87 166.81 118.79 Z M 166.86 119.78 L 166.91 120.77 C 166.96 121.68 167.74 122.39 168.66 122.34 C 169.58 122.29 170.28 121.51 170.23 120.59 L 170.18 119.60 C 170.13 118.69 169.35 117.98 168.43 118.03 C 167.52 118.08 166.81 118.86 166.86 119.78 Z M 166.91 120.77 L 166.96 121.77 C 167.01 122.69 167.79 123.39 168.71 123.34 C 169.63 123.29 170.33 122.51 170.29 121.60 L 170.23 120.59 C 170.19 119.68 169.40 118.97 168.49 119.02 C 167.57 119.07 166.86 119.85 166.91 120.77 Z M 166.96 121.76 L 167.01 122.78 C 167.06 123.69 167.84 124.40 168.76 124.36 C 169.67 124.31 170.38 123.53 170.34 122.61 L 170.29 121.60 C 170.24 120.68 169.46 119.97 168.54 120.02 C 167.62 120.06 166.92 120.85 166.96 121.76 Z M 167.01 122.77 L 167.05 123.76 C 167.09 124.68 167.87 125.39 168.79 125.35 C 169.71 125.31 170.42 124.54 170.38 123.62 L 170.34 122.62 C 170.30 121.70 169.52 120.99 168.60 121.03 C 167.68 121.07 166.97 121.85 167.01 122.77 Z M 167.05 123.75 L 167.09 124.74 C 167.12 125.66 167.89 126.38 168.81 126.34 C 169.73 126.31 170.45 125.54 170.42 124.62 L 170.38 123.63 C 170.35 122.71 169.58 121.99 168.66 122.02 C 167.74 122.06 167.02 122.83 167.05 123.75 Z M 167.09 124.73 L 167.12 125.73 C 167.14 126.65 167.91 127.37 168.83 127.35 C 169.75 127.32 170.48 126.55 170.45 125.63 L 170.42 124.63 C 170.39 123.71 169.63 122.98 168.70 123.01 C 167.78 123.04 167.06 123.81 167.09 124.73 Z M 167.11 125.72 L 167.14 126.72 C 167.16 127.65 167.92 128.38 168.85 128.36 C 169.77 128.33 170.50 127.57 170.48 126.65 L 170.45 125.64 C 170.43 124.72 169.67 123.99 168.74 124.01 C 167.82 124.03 167.09 124.79 167.11 125.72 Z M 167.14 126.71 L 167.15 127.73 C 167.17 128.65 167.93 129.39 168.85 129.37 C 169.78 129.36 170.51 128.59 170.50 127.67 L 170.48 126.66 C 170.46 125.73 169.70 125.00 168.78 125.01 C 167.86 125.03 167.12 125.79 167.14 126.71 Z M 167.15 127.72 L 167.16 128.71 C 167.17 129.63 167.93 130.37 168.85 130.36 C 169.78 130.35 170.52 129.59 170.51 128.67 L 170.50 127.68 C 170.49 126.76 169.73 126.02 168.81 126.03 C 167.88 126.04 167.14 126.80 167.15 127.72 Z M 167.16 128.70 L 167.17 129.70 C 167.17 130.62 167.93 131.36 168.85 131.36 C 169.78 131.35 170.52 130.60 170.51 129.67 L 170.51 128.68 C 170.50 127.75 169.75 127.01 168.82 127.02 C 167.90 127.02 167.16 127.78 167.16 128.70 Z M 167.17 129.69 L 167.17 130.69 C 167.17 131.61 167.93 132.36 168.85 132.36 C 169.77 132.36 170.52 131.60 170.52 130.68 L 170.52 129.68 C 170.51 128.75 169.76 128.01 168.84 128.01 C 167.91 128.01 167.16 128.77 167.17 129.69 Z M 167.17 130.69 L 167.17 131.69 C 167.17 132.62 167.92 133.37 168.85 133.37 C 169.77 133.37 170.52 132.62 170.52 131.69 L 170.52 130.68 C 170.52 129.76 169.77 129.01 168.84 129.01 C 167.92 129.01 167.17 129.76 167.17 130.69 Z M 167.17 131.69 L 167.17 132.70 C 167.17 133.62 167.92 134.37 168.85 134.37 C 169.77 134.37 170.52 133.62 170.52 132.70 L 170.52 131.69 C 170.52 130.77 169.77 130.02 168.85 130.02 C 167.92 130.02 167.17 130.77 167.17 131.69 Z M 167.17 132.70 L 167.17 133.69 C 167.17 134.62 167.92 135.37 168.85 135.37 C 169.77 135.37 170.52 134.62 170.52 133.69 L 170.52 132.70 C 170.52 131.77 169.77 131.02 168.85 131.02 C 167.92 131.02 167.17 131.77 167.17 132.70 Z M 167.17 133.69 L 167.17 134.69 C 167.17 135.62 167.92 136.37 168.85 136.37 C 169.77 136.37 170.52 135.62 170.52 134.69 L 170.52 133.69 C 170.52 132.77 169.77 132.02 168.85 132.02 C 167.92 132.02 167.17 132.77 167.17 133.69 Z M 167.17 134.69 L 167.17 135.69 C 167.17 136.62 167.92 137.37 168.85 137.37 C 169.77 137.37 170.52 136.62 170.52 135.69 L 170.52 134.69 C 170.52 133.77 169.77 133.01 168.85 133.01 C 167.92 133.01 167.17 133.77 167.17 134.69 Z M 167.17 135.69 L 167.17 136.70 C 167.17 137.62 167.92 138.38 168.85 138.38 C 169.77 138.38 170.52 137.62 170.52 136.70 L 170.52 135.69 C 170.52 134.77 169.77 134.02 168.85 134.02 C 167.92 134.02 167.17 134.77 167.17 135.69 Z M 167.17 136.70 L 167.17 137.70 C 167.17 138.62 167.92 139.38 168.85 139.38 C 169.77 139.38 170.53 138.62 170.53 137.70 L 170.53 136.70 C 170.53 135.77 169.77 135.02 168.85 135.02 C 167.92 135.02 167.17 135.77 167.17 136.70 Z M 167.17 137.70 L 167.17 138.69 C 167.17 139.62 167.92 140.37 168.85 140.37 C 169.77 140.37 170.53 139.62 170.53 138.69 L 170.53 137.70 C 170.53 136.77 169.77 136.02 168.85 136.02 C 167.92 136.02 167.17 136.77 167.17 137.70 Z M 167.17 138.69 L 167.17 139.68 C 167.17 140.61 167.92 141.36 168.85 141.36 C 169.77 141.36 170.53 140.61 170.53 139.68 L 170.53 138.69 C 170.53 137.76 169.77 137.01 168.85 137.01 C 167.92 137.01 167.17 137.76 167.17 138.69 Z M 167.16 139.68 L 167.16 140.68 C 167.16 141.61 167.92 142.37 168.85 142.37 C 169.77 142.37 170.53 141.61 170.53 140.68 L 170.53 139.68 C 170.53 138.76 169.77 138.00 168.85 138.00 C 167.92 138.00 167.16 138.76 167.16 139.68 Z M 167.16 140.68 L 167.16 141.69 C 167.16 142.62 167.92 143.37 168.85 143.37 C 169.78 143.37 170.53 142.62 170.53 141.69 L 170.53 140.68 C 170.53 139.76 169.78 139.00 168.85 139.00 C 167.92 139.00 167.16 139.76 167.16 140.68 Z M 167.16 141.69 L 167.16 142.71 C 167.16 143.64 167.92 144.39 168.85 144.39 C 169.78 144.39 170.53 143.64 170.53 142.71 L 170.53 141.69 C 170.53 140.76 169.78 140.01 168.85 140.01 C 167.92 140.01 167.16 140.76 167.16 141.69 Z M 167.16 142.71 L 167.16 143.73 C 167.16 144.66 167.92 145.42 168.85 145.42 C 169.78 145.42 170.53 144.66 170.53 143.73 L 170.53 142.71 C 170.53 141.78 169.78 141.03 168.85 141.03 C 167.92 141.03 167.16 141.78 167.16 142.71 Z M 167.16 143.73 L 167.16 144.75 C 167.16 145.68 167.92 146.43 168.85 146.43 C 169.78 146.43 170.53 145.68 170.53 144.75 L 170.53 143.73 C 170.53 142.80 169.78 142.05 168.85 142.05 C 167.92 142.05 167.16 142.80 167.16 143.73 Z M 167.16 144.75 L 167.16 145.75 C 167.16 146.68 167.92 147.44 168.85 147.44 C 169.78 147.44 170.53 146.68 170.53 145.75 L 170.53 144.75 C 170.53 143.82 169.78 143.06 168.85 143.06 C 167.92 143.06 167.16 143.82 167.16 144.75 Z M 167.16 145.75 L 167.16 146.73 C 167.16 147.66 167.91 148.41 168.85 148.41 C 169.78 148.41 170.53 147.66 170.53 146.73 L 170.53 145.75 C 170.53 144.82 169.78 144.07 168.85 144.07 C 167.91 144.07 167.16 144.82 167.16 145.75 Z M 167.16 146.73 L 167.16 147.74 C 167.16 148.68 167.91 149.43 168.85 149.43 C 169.78 149.43 170.53 148.68 170.53 147.74 L 170.53 146.73 C 170.53 145.79 169.78 145.04 168.85 145.04 C 167.91 145.04 167.16 145.79 167.16 146.73 Z M 167.16 147.74 L 167.16 148.79 C 167.16 149.72 167.91 150.48 168.85 150.48 C 169.78 150.48 170.53 149.72 170.53 148.79 L 170.53 147.74 C 170.53 146.81 169.78 146.06 168.85 146.06 C 167.91 146.06 167.16 146.81 167.16 147.74 Z M 167.16 148.79 L 167.16 149.79 C 167.16 150.72 167.91 151.47 168.85 151.47 C 169.78 151.47 170.53 150.72 170.53 149.79 L 170.53 148.79 C 170.53 147.86 169.78 147.10 168.85 147.10 C 167.91 147.10 167.16 147.86 167.16 148.79 Z M 167.16 149.79 L 167.16 150.75 C 167.16 151.68 167.91 152.44 168.85 152.44 C 169.78 152.44 170.54 151.68 170.54 150.75 L 170.54 149.79 C 170.54 148.85 169.78 148.10 168.85 148.10 C 167.91 148.10 167.16 148.85 167.16 149.79 Z M 167.16 150.75 L 167.16 151.71 C 167.16 152.65 167.91 153.40 168.85 153.40 C 169.78 153.40 170.54 152.65 170.54 151.71 L 170.54 150.75 C 170.54 149.81 169.78 149.06 168.85 149.06 C 167.91 149.06 167.16 149.81 167.16 150.75 Z M 167.16 151.71 L 167.15 152.74 C 167.15 153.67 167.91 154.43 168.84 154.43 C 169.78 154.43 170.53 153.67 170.54 152.74 L 170.54 151.71 C 170.54 150.78 169.78 150.02 168.85 150.02 C 167.91 150.02 167.16 150.78 167.16 151.71 Z M 167.15 152.73 L 167.15 153.73 C 167.15 154.67 167.90 155.43 168.83 155.43 C 169.77 155.43 170.53 154.68 170.53 153.75 L 170.54 152.75 C 170.54 151.81 169.79 151.05 168.85 151.05 C 167.92 151.04 167.16 151.80 167.15 152.73 Z M 167.15 153.72 L 167.14 154.70 C 167.13 155.63 167.88 156.40 168.81 156.41 C 169.75 156.42 170.51 155.67 170.52 154.73 L 170.53 153.76 C 170.54 152.82 169.79 152.06 168.86 152.05 C 167.92 152.04 167.16 152.79 167.15 153.72 Z M 167.14 154.68 L 167.12 155.69 C 167.10 156.62 167.84 157.39 168.78 157.41 C 169.71 157.43 170.49 156.69 170.50 155.75 L 170.52 154.75 C 170.54 153.81 169.80 153.04 168.86 153.02 C 167.93 153.01 167.16 153.75 167.14 154.68 Z M 167.12 155.67 L 167.09 156.68 C 167.06 157.62 167.80 158.40 168.73 158.43 C 169.67 158.45 170.45 157.72 170.47 156.78 L 170.50 155.77 C 170.53 154.83 169.79 154.05 168.86 154.03 C 167.92 154.00 167.15 154.73 167.12 155.67 Z M 167.09 156.67 L 167.05 157.66 C 167.02 158.60 167.75 159.38 168.69 159.42 C 169.62 159.45 170.41 158.72 170.44 157.78 L 170.48 156.79 C 170.51 155.86 169.78 155.07 168.84 155.04 C 167.91 155.01 167.12 155.74 167.09 156.67 Z M 167.05 157.66 L 167.02 158.62 C 166.98 159.55 167.71 160.34 168.64 160.38 C 169.58 160.42 170.37 159.69 170.40 158.75 L 170.44 157.79 C 170.48 156.86 169.75 156.07 168.81 156.03 C 167.88 155.99 167.09 156.72 167.05 157.66 Z M 167.01 158.61 L 166.98 159.51 C 166.94 160.45 167.66 161.24 168.60 161.28 C 169.54 161.32 170.33 160.59 170.36 159.66 L 170.40 158.76 C 170.44 157.82 169.72 157.03 168.78 156.99 C 167.84 156.95 167.05 157.68 167.01 158.61 Z M 166.98 159.50 L 166.93 160.45 C 166.88 161.38 167.61 162.18 168.54 162.23 C 169.48 162.27 170.27 161.55 170.32 160.62 L 170.36 159.67 C 170.41 158.73 169.69 157.94 168.75 157.89 C 167.82 157.84 167.02 158.57 166.98 159.50 Z M 166.93 160.43 L 166.87 161.49 C 166.81 162.42 167.52 163.23 168.46 163.28 C 169.39 163.34 170.20 162.63 170.25 161.69 L 170.32 160.63 C 170.37 159.70 169.66 158.90 168.73 158.84 C 167.79 158.78 166.99 159.50 166.93 160.43 Z M 166.87 161.47 L 166.79 162.53 C 166.73 163.46 167.43 164.27 168.37 164.34 C 169.30 164.41 170.11 163.70 170.18 162.77 L 170.25 161.71 C 170.32 160.78 169.62 159.96 168.68 159.90 C 167.75 159.83 166.93 160.54 166.87 161.47 Z M 166.79 162.51 L 166.72 163.47 C 166.64 164.41 167.34 165.22 168.28 165.30 C 169.21 165.37 170.03 164.68 170.10 163.74 L 170.18 162.78 C 170.25 161.85 169.55 161.03 168.62 160.96 C 167.69 160.88 166.87 161.58 166.79 162.51 Z M 166.72 163.46 L 166.63 164.47 C 166.55 165.41 167.24 166.23 168.18 166.31 C 169.11 166.39 169.93 165.70 170.01 164.76 L 170.10 163.75 C 170.18 162.82 169.49 161.99 168.55 161.91 C 167.62 161.83 166.80 162.53 166.72 163.46 Z M 166.63 164.47 L 166.54 165.50 C 166.45 166.44 167.14 167.26 168.07 167.35 C 169.01 167.43 169.84 166.74 169.92 165.81 L 170.01 164.77 C 170.10 163.84 169.41 163.01 168.48 162.93 C 167.54 162.84 166.72 163.53 166.63 164.47 Z M 166.54 165.49 L 166.44 166.52 C 166.35 167.45 167.03 168.28 167.97 168.37 C 168.90 168.46 169.73 167.78 169.82 166.84 L 169.92 165.82 C 170.01 164.89 169.33 164.05 168.39 163.96 C 167.46 163.87 166.63 164.56 166.54 165.49 Z M 166.44 166.51 L 166.33 167.53 C 166.24 168.46 166.91 169.30 167.85 169.40 C 168.78 169.49 169.62 168.81 169.71 167.88 L 169.82 166.86 C 169.92 165.92 169.24 165.09 168.30 164.99 C 167.37 164.89 166.53 165.57 166.44 166.51 Z M 166.33 167.52 L 166.21 168.60 C 166.11 169.54 166.78 170.38 167.72 170.48 C 168.65 170.58 169.49 169.91 169.59 168.98 L 169.71 167.89 C 169.82 166.96 169.14 166.12 168.21 166.02 C 167.28 165.91 166.44 166.58 166.33 167.52 Z M 166.21 168.59 L 166.10 169.60 C 165.99 170.54 166.66 171.38 167.59 171.49 C 168.53 171.59 169.37 170.93 169.48 169.99 L 169.59 168.98 C 169.70 168.05 169.03 167.21 168.10 167.10 C 167.16 166.99 166.32 167.66 166.21 168.59 Z M 166.10 169.60 L 165.99 170.55 C 165.88 171.49 166.55 172.33 167.48 172.44 C 168.42 172.55 169.26 171.88 169.37 170.94 L 169.48 169.99 C 169.58 169.06 168.91 168.21 167.98 168.11 C 167.05 168.00 166.20 168.67 166.10 169.60 Z M 165.99 170.56 L 165.89 171.48 C 165.79 172.41 166.46 173.25 167.40 173.35 C 168.33 173.45 169.17 172.78 169.27 171.84 L 169.37 170.93 C 169.47 170.00 168.80 169.16 167.86 169.06 C 166.93 168.96 166.09 169.63 165.99 170.56 Z M 165.89 171.50 L 165.79 172.50 C 165.70 173.44 166.38 174.27 167.32 174.36 C 168.25 174.45 169.09 173.77 169.18 172.83 L 169.27 171.82 C 169.36 170.89 168.68 170.05 167.74 169.96 C 166.81 169.87 165.98 170.56 165.89 171.50 Z M 165.79 172.52 L 165.70 173.53 C 165.62 174.47 166.32 175.29 167.25 175.37 C 168.19 175.45 169.01 174.75 169.09 173.81 L 169.18 172.81 C 169.26 171.87 168.56 171.05 167.62 170.97 C 166.69 170.89 165.86 171.59 165.79 172.52 Z M 165.70 173.54 L 165.62 174.53 C 165.55 175.46 166.25 176.28 167.19 176.35 C 168.13 176.43 168.95 175.72 169.02 174.79 L 169.09 173.80 C 169.17 172.86 168.46 172.05 167.53 171.97 C 166.59 171.90 165.77 172.60 165.70 173.54 Z M 165.62 174.53 L 165.55 175.49 C 165.48 176.43 166.19 177.25 167.13 177.32 C 168.07 177.38 168.88 176.68 168.95 175.74 L 169.02 174.78 C 169.09 173.84 168.38 173.03 167.45 172.96 C 166.51 172.89 165.69 173.60 165.62 174.53 Z M 165.55 175.49 L 165.49 176.36 C 165.42 177.30 166.12 178.12 167.06 178.19 C 168.00 178.26 168.82 177.55 168.89 176.61 L 168.95 175.74 C 169.02 174.80 168.31 173.99 167.38 173.92 C 166.44 173.85 165.62 174.55 165.55 175.49 Z M 165.49 176.36 L 165.42 177.28 C 165.35 178.22 166.05 179.04 166.99 179.11 C 167.93 179.18 168.74 178.48 168.82 177.54 L 168.89 176.62 C 168.96 175.68 168.25 174.86 167.32 174.79 C 166.38 174.72 165.56 175.42 165.49 176.36 Z M 165.42 177.27 L 165.34 178.29 C 165.26 179.23 165.96 180.05 166.90 180.13 C 167.84 180.20 168.66 179.50 168.73 178.56 L 168.81 177.55 C 168.89 176.61 168.19 175.79 167.25 175.71 C 166.32 175.64 165.49 176.34 165.42 177.27 Z M 165.34 178.29 L 165.24 179.45 C 165.16 180.39 165.86 181.21 166.80 181.29 C 167.73 181.37 168.56 180.67 168.63 179.74 L 168.73 178.57 C 168.81 177.63 168.12 176.81 167.18 176.73 C 166.24 176.65 165.42 177.35 165.34 178.29 Z M 165.24 179.45 L 165.16 180.38 C 165.08 181.31 165.77 182.14 166.71 182.22 C 167.65 182.30 168.47 181.61 168.55 180.67 L 168.63 179.74 C 168.72 178.81 168.02 177.98 167.09 177.90 C 166.15 177.82 165.32 178.51 165.24 179.45 Z M 165.16 180.37 L 165.08 181.34 C 164.99 182.27 165.69 183.10 166.62 183.18 C 167.56 183.26 168.39 182.57 168.47 181.63 L 168.55 180.67 C 168.64 179.73 167.94 178.91 167.01 178.83 C 166.07 178.74 165.24 179.44 165.16 180.37 Z M 165.08 181.34 L 164.99 182.35 C 164.91 183.28 165.60 184.11 166.54 184.19 C 167.48 184.27 168.30 183.58 168.38 182.64 L 168.47 181.63 C 168.55 180.69 167.86 179.87 166.92 179.79 C 165.98 179.71 165.16 180.40 165.08 181.34 Z M 164.99 182.35 L 164.90 183.39 C 164.82 184.33 165.52 185.15 166.46 185.23 C 167.39 185.31 168.22 184.61 168.30 183.67 L 168.38 182.64 C 168.46 181.70 167.76 180.88 166.83 180.80 C 165.89 180.72 165.07 181.42 164.99 182.35 Z M 164.90 183.40 L 164.82 184.44 C 164.75 185.38 165.45 186.20 166.38 186.27 C 167.32 186.34 168.14 185.64 168.21 184.71 L 168.30 183.66 C 168.37 182.73 167.67 181.91 166.73 181.83 C 165.79 181.76 164.97 182.46 164.90 183.40 Z M 164.82 184.45 L 164.75 185.48 C 164.68 186.41 165.38 187.23 166.32 187.30 C 167.26 187.36 168.08 186.66 168.14 185.72 L 168.22 184.69 C 168.28 183.76 167.58 182.94 166.64 182.87 C 165.70 182.81 164.89 183.51 164.82 184.45 Z M 164.74 185.49 L 164.68 186.55 C 164.62 187.49 165.33 188.30 166.27 188.36 C 167.21 188.41 168.02 187.70 168.08 186.76 L 168.14 185.70 C 168.20 184.76 167.49 183.96 166.55 183.90 C 165.61 183.84 164.80 184.55 164.74 185.49 Z M 164.68 186.57 L 164.63 187.62 C 164.58 188.56 165.30 189.36 166.24 189.41 C 167.18 189.45 167.98 188.73 168.02 187.79 L 168.08 186.74 C 168.13 185.81 167.40 185.01 166.46 184.96 C 165.53 184.91 164.73 185.63 164.68 186.57 Z M 164.63 187.64 L 164.58 188.64 C 164.54 189.58 165.27 190.37 166.21 190.41 C 167.15 190.45 167.94 189.72 167.98 188.78 L 168.02 187.78 C 168.06 186.84 167.33 186.05 166.39 186.01 C 165.46 185.97 164.66 186.70 164.63 187.64 Z M 164.58 188.66 L 164.55 189.63 C 164.52 190.57 165.25 191.36 166.19 191.39 C 167.13 191.42 167.92 190.68 167.95 189.75 L 167.98 188.77 C 168.01 187.83 167.28 187.05 166.34 187.01 C 165.40 186.98 164.62 187.72 164.58 188.66 Z M 164.55 189.64 L 164.53 190.60 C 164.50 191.54 165.24 192.32 166.18 192.34 C 167.11 192.37 167.89 191.63 167.92 190.69 L 167.95 189.74 C 167.97 188.80 167.24 188.02 166.30 187.99 C 165.36 187.97 164.58 188.70 164.55 189.64 Z M 164.53 190.60 L 164.50 191.51 C 164.48 192.45 165.22 193.22 166.16 193.25 C 167.09 193.27 167.87 192.53 167.90 191.60 L 167.92 190.69 C 167.94 189.75 167.20 188.97 166.27 188.95 C 165.33 188.92 164.55 189.67 164.53 190.60 Z"
      fill="black"
      fill-rule="nonzero" /></svg>