<svg xmlns="http://www.w3.org/2000/svg" width="300" height="300" viewBox="0 0 300 300">
<path d="M 151.67 148.54 L 150.99 147.86 C 150.39 147.26 149.43 147.26 148.84 147.86 C 148.24 148.45 148.24 149.41 148.83 150.01 L 149.51 150.69 C 150.11 151.29 151.07 151.29 151.66 150.69 C 152.26 150.10 152.26 149.14 151.67 148.54 Z M 151.00 147.87 L 150.31 147.16 C 149.72 146.56 148.75 146.56 148.15 147.15 C 147.55 147.73 147.54 148.70 148.13 149.30 L 148.82 150.00 C 149.41 150.60 150.38 150.61 150.98 150.02 C 151.58 149.43 151.59 148.47 151.00 147.87 Z M 150.33 147.18 L 149.61 146.43 C 149.03 145.82 148.07 145.80 147.46 146.38 C 146.85 146.96 146.82 147.93 147.41 148.54 L 148.12 149.29 C 148.70 149.90 149.66 149.92 150.27 149.34 C 150.88 148.75 150.91 147.79 150.33 147.18 Z M 149.64 146.45 L 148.97 145.72 C 148.39 145.09 147.42 145.05 146.80 145.63 C 146.18 146.20 146.14 147.17 146.71 147.79 L 147.38 148.52 C 147.95 149.15 148.92 149.19 149.55 148.62 C 150.17 148.04 150.21 147.07 149.64 146.45 Z M 149.00 145.74 L 148.35 144.99 C 147.78 144.35 146.81 144.28 146.16 144.85 C 145.52 145.41 145.46 146.39 146.02 147.03 L 146.67 147.77 C 147.24 148.42 148.21 148.48 148.86 147.92 C 149.50 147.35 149.56 146.38 149.00 145.74 Z M 148.39 145.02 L 147.74 144.23 C 147.20 143.57 146.21 143.47 145.55 144.02 C 144.88 144.57 144.78 145.55 145.33 146.22 L 145.98 147.00 C 146.53 147.67 147.51 147.76 148.18 147.21 C 148.84 146.67 148.94 145.68 148.39 145.02 Z M 147.79 144.27 L 147.18 143.46 C 146.65 142.77 145.66 142.63 144.97 143.16 C 144.28 143.68 144.14 144.67 144.67 145.36 L 145.28 146.18 C 145.81 146.87 146.80 147.01 147.49 146.48 C 148.18 145.96 148.32 144.97 147.79 144.27 Z M 147.24 143.52 L 146.66 142.67 C 146.17 141.95 145.18 141.76 144.46 142.25 C 143.73 142.74 143.54 143.73 144.03 144.45 L 144.61 145.30 C 145.10 146.03 146.09 146.22 146.81 145.73 C 147.54 145.23 147.73 144.25 147.24 143.52 Z M 146.72 142.76 L 146.21 141.89 C 145.77 141.13 144.80 140.87 144.04 141.32 C 143.28 141.76 143.02 142.73 143.46 143.49 L 143.97 144.36 C 144.41 145.12 145.39 145.38 146.15 144.94 C 146.91 144.50 147.16 143.52 146.72 142.76 Z M 146.28 142.02 L 145.86 141.12 C 145.49 140.32 144.54 139.98 143.75 140.35 C 142.95 140.72 142.60 141.67 142.98 142.47 L 143.40 143.37 C 143.77 144.16 144.72 144.51 145.51 144.14 C 146.31 143.76 146.66 142.81 146.28 142.02 Z M 145.93 141.28 L 145.62 140.36 C 145.34 139.52 144.43 139.07 143.59 139.36 C 142.76 139.64 142.31 140.55 142.59 141.38 L 142.91 142.31 C 143.19 143.14 144.10 143.59 144.93 143.31 C 145.77 143.02 146.22 142.12 145.93 141.28 Z M 145.67 140.56 L 145.48 139.57 C 145.31 138.71 144.48 138.14 143.61 138.31 C 142.74 138.48 142.18 139.31 142.35 140.18 L 142.54 141.17 C 142.71 142.04 143.55 142.61 144.41 142.44 C 145.28 142.27 145.84 141.43 145.67 140.56 Z M 145.51 139.83 L 145.48 138.84 C 145.46 137.96 144.72 137.26 143.84 137.29 C 142.96 137.31 142.27 138.04 142.29 138.92 L 142.32 139.92 C 142.34 140.80 143.08 141.49 143.96 141.47 C 144.84 141.45 145.53 140.71 145.51 139.83 Z M 145.46 139.15 L 145.62 138.18 C 145.77 137.31 145.19 136.49 144.32 136.34 C 143.46 136.19 142.63 136.77 142.48 137.64 L 142.32 138.61 C 142.17 139.48 142.75 140.30 143.62 140.45 C 144.48 140.60 145.31 140.02 145.46 139.15 Z M 145.52 138.52 L 145.90 137.62 C 146.24 136.81 145.86 135.88 145.05 135.54 C 144.24 135.20 143.30 135.58 142.97 136.39 L 142.59 137.29 C 142.25 138.10 142.63 139.04 143.44 139.38 C 144.25 139.71 145.18 139.33 145.52 138.52 Z M 145.74 137.90 L 146.30 137.08 C 146.80 136.36 146.61 135.37 145.89 134.87 C 145.17 134.38 144.18 134.56 143.68 135.29 L 143.12 136.11 C 142.63 136.83 142.81 137.82 143.54 138.31 C 144.26 138.81 145.25 138.62 145.74 137.90 Z M 146.15 137.27 L 146.84 136.53 C 147.44 135.89 147.41 134.89 146.77 134.29 C 146.13 133.69 145.13 133.72 144.53 134.36 L 143.84 135.10 C 143.24 135.74 143.27 136.74 143.91 137.34 C 144.55 137.94 145.55 137.91 146.15 137.27 Z M 146.70 136.66 L 147.47 136.01 C 148.14 135.45 148.23 134.46 147.67 133.79 C 147.11 133.12 146.12 133.03 145.45 133.59 L 144.68 134.23 C 144.01 134.79 143.92 135.79 144.47 136.46 C 145.03 137.13 146.03 137.22 146.70 136.66 Z M 147.34 136.11 L 148.17 135.55 C 148.90 135.07 149.09 134.09 148.61 133.36 C 148.12 132.64 147.14 132.45 146.42 132.93 L 145.58 133.49 C 144.86 133.97 144.66 134.95 145.15 135.68 C 145.63 136.40 146.61 136.60 147.34 136.11 Z M 148.03 135.63 L 148.90 135.17 C 149.67 134.77 149.97 133.81 149.56 133.04 C 149.15 132.27 148.20 131.98 147.43 132.39 L 146.56 132.85 C 145.79 133.25 145.50 134.21 145.90 134.98 C 146.31 135.75 147.26 136.04 148.03 135.63 Z M 148.77 135.23 L 149.69 134.85 C 150.49 134.52 150.87 133.60 150.53 132.79 C 150.20 131.99 149.28 131.61 148.47 131.95 L 147.56 132.33 C 146.76 132.66 146.38 133.58 146.71 134.39 C 147.05 135.19 147.97 135.57 148.77 135.23 Z M 149.58 134.89 L 150.53 134.57 C 151.35 134.29 151.79 133.40 151.52 132.58 C 151.24 131.75 150.34 131.31 149.52 131.59 L 148.57 131.91 C 147.75 132.19 147.31 133.08 147.59 133.90 C 147.87 134.73 148.76 135.17 149.58 134.89 Z M 150.46 134.59 L 151.37 134.33 C 152.21 134.09 152.69 133.22 152.45 132.39 C 152.22 131.55 151.35 131.07 150.51 131.31 L 149.59 131.57 C 148.76 131.81 148.27 132.68 148.51 133.51 C 148.75 134.35 149.62 134.83 150.46 134.59 Z M 151.30 134.35 L 152.27 134.12 C 153.11 133.92 153.64 133.07 153.44 132.23 C 153.24 131.39 152.39 130.86 151.55 131.06 L 150.58 131.29 C 149.74 131.49 149.21 132.34 149.41 133.18 C 149.61 134.02 150.46 134.55 151.30 134.35 Z M 152.20 134.13 L 153.21 133.94 C 154.06 133.78 154.62 132.96 154.46 132.11 C 154.30 131.26 153.48 130.70 152.63 130.86 L 151.62 131.05 C 150.77 131.21 150.21 132.03 150.37 132.88 C 150.53 133.73 151.35 134.29 152.20 134.13 Z M 153.13 133.95 L 154.16 133.81 C 155.02 133.69 155.62 132.90 155.50 132.04 C 155.38 131.19 154.58 130.59 153.73 130.71 L 152.70 130.85 C 151.85 130.97 151.25 131.76 151.37 132.62 C 151.48 133.47 152.28 134.07 153.13 133.95 Z M 154.09 133.82 L 155.06 133.73 C 155.92 133.65 156.56 132.88 156.48 132.02 C 156.40 131.16 155.63 130.53 154.77 130.61 L 153.80 130.70 C 152.94 130.78 152.30 131.54 152.38 132.40 C 152.46 133.27 153.23 133.90 154.09 133.82 Z M 155.00 133.73 L 155.99 133.68 C 156.86 133.63 157.52 132.89 157.47 132.03 C 157.43 131.16 156.69 130.50 155.82 130.55 L 154.83 130.60 C 153.97 130.65 153.30 131.39 153.35 132.25 C 153.40 133.12 154.14 133.78 155.00 133.73 Z M 155.94 133.68 L 156.95 133.66 C 157.81 133.64 158.50 132.93 158.48 132.06 C 158.47 131.20 157.75 130.51 156.89 130.53 L 155.88 130.55 C 155.01 130.56 154.32 131.28 154.34 132.15 C 154.36 133.01 155.07 133.70 155.94 133.68 Z M 156.90 133.66 L 157.92 133.67 C 158.79 133.68 159.50 132.98 159.51 132.12 C 159.52 131.25 158.82 130.54 157.95 130.54 L 156.93 130.53 C 156.07 130.52 155.36 131.21 155.35 132.08 C 155.34 132.94 156.04 133.65 156.90 133.66 Z M 157.88 133.67 L 158.88 133.71 C 159.74 133.74 160.47 133.06 160.50 132.20 C 160.53 131.33 159.86 130.61 158.99 130.57 L 158.00 130.54 C 157.13 130.50 156.40 131.18 156.37 132.05 C 156.34 132.91 157.02 133.64 157.88 133.67 Z M 158.82 133.71 L 159.82 133.78 C 160.68 133.84 161.43 133.19 161.49 132.32 C 161.55 131.46 160.90 130.71 160.04 130.64 L 159.05 130.57 C 158.18 130.51 157.43 131.17 157.37 132.03 C 157.31 132.89 157.96 133.65 158.82 133.71 Z M 159.75 133.77 L 160.74 133.88 C 161.60 133.98 162.38 133.36 162.48 132.50 C 162.58 131.64 161.96 130.86 161.10 130.76 L 160.10 130.65 C 159.24 130.55 158.46 131.17 158.36 132.03 C 158.27 132.89 158.89 133.67 159.75 133.77 Z M 160.66 133.87 L 161.65 134.04 C 162.50 134.19 163.32 133.61 163.46 132.75 C 163.61 131.90 163.03 131.09 162.17 130.94 L 161.18 130.77 C 160.32 130.63 159.51 131.20 159.37 132.06 C 159.22 132.92 159.80 133.73 160.66 133.87 Z M 161.55 134.02 L 162.53 134.26 C 163.38 134.46 164.23 133.93 164.43 133.09 C 164.63 132.24 164.10 131.39 163.25 131.19 L 162.27 130.96 C 161.42 130.76 160.58 131.28 160.38 132.13 C 160.18 132.98 160.70 133.82 161.55 134.02 Z M 162.43 134.23 L 163.38 134.53 C 164.21 134.79 165.10 134.32 165.36 133.49 C 165.61 132.66 165.15 131.77 164.32 131.51 L 163.36 131.22 C 162.53 130.96 161.64 131.42 161.39 132.26 C 161.13 133.09 161.59 133.97 162.43 134.23 Z M 163.28 134.50 L 164.22 134.86 C 165.04 135.17 165.95 134.76 166.26 133.95 C 166.58 133.13 166.17 132.22 165.36 131.91 L 164.42 131.54 C 163.60 131.23 162.69 131.64 162.37 132.45 C 162.06 133.27 162.47 134.18 163.28 134.50 Z M 164.12 134.82 L 165.04 135.24 C 165.83 135.61 166.77 135.26 167.14 134.47 C 167.51 133.67 167.16 132.73 166.37 132.36 L 165.45 131.94 C 164.66 131.58 163.72 131.92 163.35 132.72 C 162.98 133.51 163.33 134.45 164.12 134.82 Z M 164.94 135.20 L 165.82 135.67 C 166.59 136.09 167.55 135.81 167.97 135.04 C 168.39 134.27 168.10 133.30 167.33 132.89 L 166.46 132.41 C 165.69 131.99 164.73 132.27 164.31 133.04 C 163.89 133.81 164.17 134.78 164.94 135.20 Z M 165.72 135.62 L 166.57 136.16 C 167.31 136.64 168.29 136.42 168.77 135.68 C 169.24 134.94 169.02 133.95 168.28 133.48 L 167.43 132.94 C 166.69 132.47 165.71 132.68 165.23 133.42 C 164.76 134.17 164.98 135.15 165.72 135.62 Z M 166.47 136.10 L 167.29 136.71 C 168.00 137.24 169.00 137.09 169.52 136.39 C 170.05 135.68 169.90 134.68 169.20 134.15 L 168.38 133.54 C 167.67 133.02 166.67 133.16 166.15 133.87 C 165.62 134.57 165.76 135.57 166.47 136.10 Z M 167.20 136.64 L 167.95 137.30 C 168.62 137.88 169.63 137.81 170.21 137.14 C 170.79 136.47 170.72 135.46 170.05 134.88 L 169.29 134.23 C 168.63 133.65 167.62 133.72 167.04 134.38 C 166.46 135.05 166.53 136.06 167.20 136.64 Z M 167.86 137.22 L 168.56 137.92 C 169.18 138.55 170.20 138.55 170.82 137.93 C 171.45 137.31 171.46 136.29 170.83 135.66 L 170.14 134.96 C 169.52 134.34 168.50 134.33 167.87 134.95 C 167.25 135.58 167.24 136.59 167.86 137.22 Z M 168.47 137.83 L 169.10 138.57 C 169.68 139.25 170.69 139.33 171.37 138.75 C 172.04 138.18 172.12 137.16 171.55 136.49 L 170.92 135.75 C 170.34 135.08 169.33 135.00 168.66 135.57 C 167.98 136.14 167.90 137.16 168.47 137.83 Z M 169.02 138.48 L 169.62 139.29 C 170.14 140.01 171.14 140.17 171.86 139.65 C 172.58 139.13 172.74 138.12 172.22 137.40 L 171.63 136.59 C 171.11 135.87 170.10 135.71 169.38 136.23 C 168.66 136.75 168.50 137.76 169.02 138.48 Z M 169.54 139.19 L 170.06 140.04 C 170.52 140.80 171.51 141.05 172.28 140.58 C 173.04 140.12 173.28 139.13 172.82 138.37 L 172.30 137.51 C 171.84 136.75 170.84 136.51 170.08 136.97 C 169.32 137.43 169.08 138.42 169.54 139.19 Z M 169.99 139.93 L 170.43 140.82 C 170.83 141.62 171.81 141.94 172.61 141.54 C 173.41 141.14 173.73 140.17 173.33 139.37 L 172.89 138.48 C 172.49 137.68 171.51 137.36 170.71 137.76 C 169.91 138.16 169.59 139.13 169.99 139.93 Z M 170.38 140.70 L 170.75 141.62 C 171.08 142.45 172.03 142.86 172.86 142.52 C 173.69 142.19 174.10 141.24 173.76 140.41 L 173.39 139.49 C 173.06 138.66 172.11 138.25 171.28 138.59 C 170.45 138.92 170.04 139.87 170.38 140.70 Z M 170.70 141.50 L 171.00 142.46 C 171.26 143.32 172.17 143.80 173.03 143.54 C 173.89 143.27 174.38 142.36 174.11 141.50 L 173.81 140.53 C 173.54 139.67 172.63 139.19 171.77 139.46 C 170.91 139.73 170.43 140.64 170.70 141.50 Z M 170.96 142.35 L 171.19 143.33 C 171.39 144.21 172.27 144.76 173.15 144.56 C 174.03 144.36 174.57 143.48 174.37 142.60 L 174.15 141.61 C 173.94 140.73 173.07 140.18 172.19 140.39 C 171.31 140.59 170.76 141.47 170.96 142.35 Z M 171.16 143.23 L 171.32 144.22 C 171.46 145.11 172.30 145.72 173.20 145.58 C 174.09 145.43 174.70 144.59 174.56 143.70 L 174.40 142.70 C 174.25 141.81 173.41 141.20 172.52 141.35 C 171.62 141.49 171.02 142.33 171.16 143.23 Z M 171.30 144.12 L 171.40 145.10 C 171.49 146.00 172.29 146.66 173.20 146.57 C 174.10 146.48 174.76 145.68 174.67 144.77 L 174.58 143.79 C 174.49 142.89 173.68 142.23 172.78 142.32 C 171.87 142.41 171.21 143.21 171.30 144.12 Z M 171.39 145.00 L 171.43 146.02 C 171.46 146.93 172.23 147.64 173.14 147.60 C 174.05 147.56 174.76 146.79 174.72 145.88 L 174.68 144.87 C 174.65 143.96 173.88 143.25 172.97 143.29 C 172.06 143.32 171.35 144.09 171.39 145.00 Z M 171.42 145.89 L 171.39 146.90 C 171.35 147.81 172.06 148.58 172.98 148.61 C 173.89 148.65 174.66 147.94 174.69 147.02 L 174.73 146.01 C 174.76 145.10 174.05 144.33 173.14 144.30 C 172.23 144.26 171.46 144.98 171.42 145.89 Z M 171.40 146.72 L 171.26 147.69 C 171.12 148.60 171.75 149.44 172.65 149.57 C 173.56 149.71 174.40 149.08 174.53 148.18 L 174.68 147.20 C 174.81 146.30 174.18 145.46 173.28 145.32 C 172.37 145.19 171.53 145.81 171.40 146.72 Z M 171.30 147.47 L 171.03 148.41 C 170.77 149.29 171.28 150.21 172.16 150.47 C 173.04 150.72 173.96 150.22 174.21 149.34 L 174.49 148.40 C 174.75 147.52 174.24 146.60 173.36 146.34 C 172.48 146.09 171.56 146.59 171.30 147.47 Z M 171.12 148.17 L 170.71 149.03 C 170.32 149.86 170.68 150.85 171.51 151.24 C 172.34 151.63 173.33 151.27 173.72 150.44 L 174.13 149.58 C 174.52 148.74 174.16 147.76 173.33 147.37 C 172.49 146.98 171.50 147.34 171.12 148.17 Z M 170.82 148.84 L 170.29 149.66 C 169.79 150.43 170.01 151.46 170.79 151.96 C 171.56 152.46 172.59 152.23 173.09 151.46 L 173.62 150.64 C 174.11 149.87 173.89 148.84 173.12 148.34 C 172.34 147.84 171.32 148.06 170.82 148.84 Z M 170.39 149.51 L 169.75 150.30 C 169.17 151.01 169.28 152.06 170.00 152.64 C 170.71 153.22 171.76 153.11 172.34 152.40 L 172.98 151.61 C 173.56 150.90 173.45 149.85 172.74 149.27 C 172.02 148.69 170.97 148.80 170.39 149.51 Z M 169.85 150.18 L 169.13 150.93 C 168.48 151.59 168.50 152.64 169.15 153.29 C 169.81 153.93 170.87 153.92 171.51 153.26 L 172.24 152.51 C 172.88 151.85 172.87 150.80 172.21 150.15 C 171.55 149.51 170.50 149.52 169.85 150.18 Z M 169.22 150.84 L 168.47 151.50 C 167.78 152.10 167.72 153.16 168.33 153.85 C 168.94 154.54 169.99 154.61 170.68 154.00 L 171.42 153.34 C 172.11 152.73 172.18 151.68 171.57 150.99 C 170.96 150.30 169.91 150.23 169.22 150.84 Z M 168.57 151.42 L 167.78 152.02 C 167.04 152.58 166.90 153.63 167.46 154.36 C 168.02 155.10 169.07 155.24 169.80 154.68 L 170.59 154.07 C 171.32 153.51 171.47 152.47 170.91 151.73 C 170.35 151.00 169.30 150.86 168.57 151.42 Z M 167.88 151.95 L 167.04 152.50 C 166.26 153.00 166.04 154.03 166.55 154.81 C 167.05 155.58 168.08 155.80 168.86 155.30 L 169.70 154.75 C 170.47 154.25 170.69 153.21 170.19 152.44 C 169.69 151.66 168.65 151.45 167.88 151.95 Z M 167.15 152.43 L 166.26 152.91 C 165.45 153.35 165.15 154.36 165.59 155.17 C 166.03 155.99 167.04 156.29 167.85 155.85 L 168.74 155.37 C 169.55 154.93 169.86 153.91 169.42 153.10 C 168.98 152.29 167.96 151.99 167.15 152.43 Z M 166.39 152.85 L 165.48 153.24 C 164.63 153.61 164.25 154.60 164.62 155.44 C 164.99 156.29 165.97 156.68 166.82 156.31 L 167.73 155.91 C 168.57 155.54 168.96 154.56 168.59 153.71 C 168.22 152.86 167.23 152.48 166.39 152.85 Z M 165.60 153.19 L 164.67 153.51 C 163.80 153.81 163.34 154.77 163.64 155.64 C 163.94 156.51 164.89 156.98 165.76 156.68 L 166.69 156.36 C 167.57 156.06 168.03 155.10 167.73 154.23 C 167.43 153.36 166.48 152.89 165.60 153.19 Z M 164.79 153.48 L 163.82 153.74 C 162.93 153.97 162.40 154.89 162.64 155.79 C 162.88 156.68 163.79 157.21 164.69 156.97 L 165.65 156.71 C 166.54 156.47 167.07 155.56 166.84 154.66 C 166.60 153.77 165.68 153.24 164.79 153.48 Z M 163.92 153.71 L 162.93 153.91 C 162.02 154.09 161.44 154.98 161.62 155.88 C 161.80 156.79 162.69 157.38 163.59 157.19 L 164.59 156.99 C 165.49 156.81 166.08 155.93 165.90 155.02 C 165.71 154.11 164.83 153.53 163.92 153.71 Z M 163.02 153.90 L 162.01 154.04 C 161.10 154.18 160.47 155.03 160.60 155.94 C 160.73 156.86 161.59 157.49 162.50 157.36 L 163.51 157.21 C 164.42 157.08 165.06 156.23 164.92 155.31 C 164.79 154.39 163.94 153.76 163.02 153.90 Z M 162.09 154.03 L 161.11 154.13 C 160.19 154.23 159.52 155.05 159.61 155.97 C 159.71 156.89 160.53 157.56 161.45 157.47 L 162.43 157.37 C 163.35 157.27 164.02 156.45 163.93 155.53 C 163.83 154.61 163.01 153.94 162.09 154.03 Z M 161.17 154.13 L 160.18 154.19 C 159.26 154.25 158.56 155.05 158.62 155.97 C 158.68 156.89 159.47 157.60 160.40 157.54 L 161.39 157.47 C 162.31 157.41 163.01 156.62 162.95 155.69 C 162.89 154.77 162.10 154.07 161.17 154.13 Z M 160.23 154.19 L 159.23 154.22 C 158.31 154.25 157.58 155.03 157.61 155.95 C 157.64 156.88 158.42 157.60 159.34 157.57 L 160.35 157.54 C 161.27 157.51 162.00 156.73 161.97 155.81 C 161.93 154.88 161.16 154.16 160.23 154.19 Z M 159.27 154.22 L 158.26 154.23 C 157.33 154.23 156.59 154.99 156.60 155.92 C 156.60 156.84 157.36 157.59 158.28 157.58 L 159.30 157.57 C 160.22 157.57 160.97 156.81 160.96 155.88 C 160.96 154.96 160.20 154.21 159.27 154.22 Z M 158.29 154.23 L 157.30 154.22 C 156.38 154.20 155.61 154.94 155.60 155.87 C 155.59 156.80 156.33 157.56 157.26 157.57 L 158.25 157.58 C 159.18 157.59 159.94 156.85 159.95 155.93 C 159.96 155.00 159.22 154.24 158.29 154.23 Z M 157.34 154.22 L 156.38 154.18 C 155.45 154.15 154.67 154.87 154.64 155.79 C 154.60 156.72 155.33 157.50 156.25 157.53 L 157.22 157.57 C 158.14 157.60 158.92 156.88 158.95 155.95 C 158.99 155.03 158.27 154.25 157.34 154.22 Z M 156.44 154.18 L 155.47 154.11 C 154.54 154.04 153.74 154.73 153.67 155.65 C 153.60 156.57 154.29 157.38 155.21 157.45 L 156.18 157.53 C 157.11 157.60 157.91 156.91 157.99 155.99 C 158.06 155.06 157.37 154.26 156.44 154.18 Z M 155.56 154.12 L 154.57 153.99 C 153.65 153.87 152.81 154.51 152.69 155.43 C 152.56 156.34 153.21 157.19 154.13 157.31 L 155.12 157.44 C 156.03 157.56 156.88 156.92 157.00 156.00 C 157.12 155.08 156.48 154.24 155.56 154.12 Z M 154.68 154.01 L 153.67 153.80 C 152.76 153.62 151.88 154.20 151.69 155.11 C 151.51 156.02 152.10 156.90 153.00 157.09 L 154.01 157.29 C 154.92 157.47 155.81 156.89 155.99 155.98 C 156.17 155.07 155.59 154.19 154.68 154.01 Z M 153.79 153.83 L 152.79 153.55 C 151.90 153.30 150.98 153.82 150.73 154.71 C 150.47 155.60 150.99 156.52 151.88 156.77 L 152.88 157.06 C 153.77 157.31 154.70 156.79 154.95 155.90 C 155.20 155.01 154.68 154.08 153.79 153.83 Z M 152.90 153.59 L 151.94 153.24 C 151.07 152.93 150.12 153.38 149.80 154.25 C 149.49 155.12 149.94 156.08 150.81 156.39 L 151.77 156.74 C 152.64 157.05 153.60 156.60 153.91 155.73 C 154.23 154.86 153.77 153.90 152.90 153.59 Z M 152.03 153.28 L 151.08 152.88 C 150.23 152.52 149.25 152.91 148.89 153.76 C 148.53 154.61 148.93 155.59 149.78 155.96 L 150.73 156.36 C 151.58 156.72 152.56 156.32 152.92 155.47 C 153.28 154.62 152.88 153.64 152.03 153.28 Z M 151.15 152.91 L 150.23 152.46 C 149.40 152.06 148.40 152.41 148.00 153.24 C 147.60 154.07 147.95 155.07 148.78 155.47 L 149.70 155.92 C 150.53 156.32 151.53 155.97 151.93 155.14 C 152.33 154.31 151.99 153.31 151.15 152.91 Z M 150.30 152.50 L 149.42 152.03 C 148.61 151.59 147.60 151.89 147.16 152.71 C 146.72 153.52 147.03 154.53 147.84 154.97 L 148.71 155.44 C 149.52 155.88 150.54 155.57 150.97 154.76 C 151.41 153.95 151.11 152.94 150.30 152.50 Z M 149.48 152.06 L 148.68 151.58 C 147.89 151.11 146.86 151.37 146.39 152.16 C 145.92 152.95 146.18 153.98 146.97 154.45 L 147.77 154.93 C 148.57 155.40 149.59 155.14 150.06 154.35 C 150.53 153.56 150.28 152.54 149.48 152.06 Z M 148.75 151.64 L 147.81 151.00 C 147.04 150.49 146.01 150.69 145.50 151.45 C 144.98 152.21 145.19 153.25 145.95 153.76 L 146.89 154.40 C 147.66 154.91 148.69 154.71 149.20 153.95 C 149.72 153.18 149.51 152.15 148.75 151.64 Z M 147.89 151.07 L 147.07 150.43 C 146.35 149.87 145.31 150.00 144.74 150.72 C 144.18 151.44 144.31 152.49 145.03 153.05 L 145.86 153.69 C 146.58 154.25 147.62 154.12 148.19 153.40 C 148.75 152.67 148.62 151.63 147.89 151.07 Z M 147.16 150.51 L 146.45 149.88 C 145.78 149.27 144.73 149.32 144.12 150.00 C 143.51 150.68 143.57 151.72 144.25 152.33 L 144.95 152.96 C 145.63 153.57 146.67 153.52 147.28 152.84 C 147.89 152.16 147.83 151.12 147.16 150.51 Z M 146.53 149.96 L 145.92 149.34 C 145.29 148.68 144.25 148.67 143.60 149.30 C 142.95 149.93 142.93 150.97 143.56 151.62 L 144.17 152.25 C 144.80 152.90 145.84 152.92 146.49 152.29 C 147.14 151.66 147.16 150.62 146.53 149.96 Z M 145.99 149.44 L 145.38 148.70 C 144.81 148.00 143.78 147.91 143.09 148.48 C 142.39 149.06 142.30 150.08 142.87 150.78 L 143.49 151.52 C 144.06 152.21 145.09 152.30 145.78 151.73 C 146.47 151.16 146.57 150.13 145.99 149.44 Z M 145.50 148.89 L 144.99 148.08 C 144.53 147.32 143.54 147.08 142.78 147.55 C 142.02 148.02 141.79 149.01 142.25 149.76 L 142.76 150.58 C 143.22 151.34 144.21 151.57 144.97 151.11 C 145.73 150.64 145.96 149.65 145.50 148.89 Z M 145.12 148.38 L 144.77 147.43 C 144.47 146.61 143.56 146.18 142.74 146.48 C 141.91 146.78 141.49 147.69 141.79 148.52 L 142.13 149.46 C 142.43 150.29 143.34 150.71 144.17 150.41 C 144.99 150.11 145.42 149.20 145.12 148.38 Z M 144.83 147.74 L 144.69 146.79 C 144.56 145.93 143.76 145.34 142.91 145.47 C 142.05 145.59 141.46 146.39 141.58 147.25 L 141.73 148.21 C 141.86 149.06 142.65 149.65 143.51 149.53 C 144.37 149.40 144.96 148.60 144.83 147.74 Z M 144.69 146.99 L 144.67 146.08 C 144.66 145.22 143.95 144.54 143.09 144.55 C 142.24 144.57 141.56 145.27 141.57 146.13 L 141.59 147.05 C 141.60 147.90 142.31 148.58 143.16 148.57 C 144.02 148.55 144.70 147.85 144.69 146.99 Z M 144.65 146.19 L 144.71 145.19 C 144.75 144.35 144.11 143.63 143.26 143.58 C 142.42 143.53 141.70 144.18 141.65 145.02 L 141.59 146.02 C 141.54 146.86 142.19 147.58 143.04 147.63 C 143.88 147.68 144.60 147.03 144.65 146.19 Z M 144.68 145.26 L 144.79 144.21 C 144.87 143.38 144.26 142.64 143.43 142.55 C 142.60 142.47 141.86 143.08 141.78 143.91 L 141.67 144.96 C 141.59 145.79 142.19 146.53 143.03 146.61 C 143.86 146.70 144.60 146.09 144.68 145.26 Z M 144.76 144.24 L 144.90 143.16 C 145.00 142.34 144.42 141.60 143.60 141.50 C 142.78 141.39 142.03 141.98 141.93 142.80 L 141.80 143.88 C 141.70 144.69 142.28 145.44 143.10 145.54 C 143.92 145.64 144.66 145.06 144.76 144.24 Z M 144.88 143.17 L 144.92 142.92 C 145.02 142.11 144.45 141.37 143.63 141.27 C 142.82 141.16 142.08 141.74 141.98 142.55 L 141.95 142.79 C 141.84 143.60 142.42 144.34 143.23 144.45 C 144.04 144.55 144.78 143.98 144.88 143.17 Z"
      fill="black"
      fill-rule="nonzero" /></svg>