<svg xmlns="http://www.w3.org/2000/svg" width="300" height="300" viewBox="0 0 300 300">
<path d="M 141.53 105.93 L 140.90 105.15 C 140.23 104.31 139.00 104.17 138.16 104.85 C 137.32 105.52 137.19 106.75 137.86 107.59 L 138.48 108.37 C 139.16 109.21 140.38 109.35 141.22 108.67 C 142.07 108.00 142.20 106.77 141.53 105.93 Z M 140.90 105.15 L 140.47 104.61 C 139.80 103.77 138.57 103.63 137.73 104.30 C 136.89 104.98 136.75 106.20 137.43 107.05 L 137.86 107.59 C 138.53 108.43 139.76 108.56 140.60 107.89 C 141.44 107.22 141.58 105.99 140.90 105.15 Z"
      fill="black"
      fill-rule="nonzero" /><path d="M 168.84 103.63 L 168.57 102.83 C 168.23 101.81 167.13 101.26 166.11 101.60 C 165.10 101.94 164.55 103.04 164.89 104.06 L 165.15 104.85 C 165.49 105.87 166.59 106.42 167.61 106.08 C 168.63 105.74 169.18 104.64 168.84 103.63 Z"
      fill="black"
      fill-rule="nonzero" /><path d="M 153.33 95.10 L 152.91 95.96 C 152.53 96.71 152.84 97.62 153.59 97.99 C 154.34 98.36 155.25 98.06 155.62 97.31 L 156.05 96.45 C 156.42 95.70 156.11 94.79 155.36 94.42 C 154.62 94.04 153.71 94.35 153.33 95.10 Z M 152.86 95.96 L 152.44 96.85 C 152.07 97.62 152.40 98.55 153.17 98.92 C 153.94 99.29 154.87 98.96 155.24 98.19 L 155.66 97.30 C 156.03 96.53 155.71 95.60 154.93 95.23 C 154.16 94.86 153.23 95.19 152.86 95.96 Z M 152.39 96.87 L 151.97 97.81 C 151.62 98.62 151.98 99.55 152.78 99.91 C 153.58 100.27 154.52 99.90 154.88 99.10 L 155.29 98.16 C 155.65 97.36 155.29 96.42 154.48 96.07 C 153.68 95.71 152.74 96.07 152.39 96.87 Z M 151.93 97.86 L 151.57 98.75 C 151.24 99.58 151.64 100.52 152.46 100.85 C 153.29 101.18 154.23 100.78 154.56 99.95 L 154.92 99.06 C 155.25 98.23 154.85 97.29 154.03 96.96 C 153.20 96.63 152.26 97.03 151.93 97.86 Z M 151.55 98.79 L 151.22 99.66 C 150.91 100.50 151.34 101.43 152.17 101.74 C 153.01 102.05 153.94 101.63 154.25 100.79 L 154.58 99.92 C 154.89 99.08 154.46 98.15 153.63 97.84 C 152.79 97.53 151.86 97.95 151.55 98.79 Z M 151.22 99.69 L 150.89 100.62 C 150.59 101.46 151.02 102.38 151.86 102.68 C 152.70 102.98 153.62 102.54 153.92 101.71 L 154.25 100.77 C 154.55 99.93 154.12 99.01 153.28 98.71 C 152.44 98.41 151.52 98.85 151.22 99.69 Z M 150.89 100.63 L 150.54 101.63 C 150.24 102.46 150.68 103.38 151.51 103.67 C 152.35 103.97 153.26 103.53 153.56 102.70 L 153.91 101.70 C 154.21 100.86 153.77 99.95 152.94 99.65 C 152.10 99.36 151.19 99.79 150.89 100.63 Z M 150.55 101.62 L 150.18 102.63 C 149.88 103.46 150.31 104.38 151.14 104.68 C 151.97 104.98 152.89 104.54 153.19 103.72 L 153.55 102.70 C 153.85 101.88 153.42 100.96 152.59 100.66 C 151.76 100.36 150.85 100.79 150.55 101.62 Z M 150.19 102.62 L 149.84 103.58 C 149.54 104.40 149.96 105.31 150.78 105.62 C 151.60 105.92 152.52 105.50 152.82 104.68 L 153.17 103.72 C 153.48 102.90 153.06 101.99 152.24 101.68 C 151.41 101.38 150.50 101.80 150.19 102.62 Z M 149.85 103.57 L 149.49 104.54 C 149.18 105.35 149.60 106.26 150.41 106.57 C 151.23 106.88 152.14 106.46 152.45 105.65 L 152.81 104.68 C 153.12 103.87 152.70 102.96 151.89 102.65 C 151.07 102.34 150.16 102.76 149.85 103.57 Z M 149.50 104.54 L 149.14 105.49 C 148.83 106.30 149.24 107.21 150.05 107.51 C 150.86 107.82 151.77 107.41 152.07 106.60 L 152.44 105.65 C 152.74 104.84 152.34 103.93 151.53 103.63 C 150.72 103.32 149.81 103.73 149.50 104.54 Z M 149.15 105.49 L 148.80 106.41 C 148.50 107.21 148.90 108.11 149.70 108.42 C 150.51 108.72 151.41 108.32 151.71 107.52 L 152.06 106.60 C 152.37 105.80 151.97 104.90 151.16 104.59 C 150.36 104.28 149.46 104.69 149.15 105.49 Z M 148.81 106.41 L 148.45 107.36 C 148.15 108.16 148.55 109.05 149.35 109.35 C 150.15 109.66 151.04 109.26 151.34 108.46 L 151.70 107.51 C 152.01 106.71 151.61 105.82 150.81 105.52 C 150.01 105.21 149.12 105.61 148.81 106.41 Z M 148.47 107.36 L 148.09 108.35 C 147.79 109.14 148.19 110.03 148.98 110.33 C 149.77 110.63 150.65 110.23 150.95 109.44 L 151.33 108.45 C 151.63 107.66 151.23 106.78 150.44 106.48 C 149.65 106.18 148.77 106.57 148.47 107.36 Z M 148.11 108.36 L 147.76 109.27 C 147.46 110.05 147.85 110.92 148.63 111.22 C 149.41 111.52 150.29 111.13 150.59 110.35 L 150.93 109.44 C 151.23 108.66 150.84 107.78 150.06 107.49 C 149.28 107.19 148.41 107.58 148.11 108.36 Z M 147.78 109.27 L 147.44 110.14 C 147.14 110.91 147.52 111.77 148.29 112.07 C 149.06 112.37 149.93 111.99 150.23 111.22 L 150.57 110.35 C 150.87 109.58 150.49 108.72 149.72 108.42 C 148.95 108.12 148.08 108.50 147.78 109.27 Z M 147.46 110.13 L 147.10 111.02 C 146.80 111.78 147.17 112.64 147.92 112.94 C 148.68 113.25 149.54 112.88 149.85 112.12 L 150.21 111.23 C 150.51 110.47 150.14 109.61 149.38 109.31 C 148.63 109.00 147.76 109.37 147.46 110.13 Z M 147.12 111.01 L 146.74 111.93 C 146.43 112.68 146.79 113.54 147.54 113.85 C 148.29 114.15 149.15 113.80 149.46 113.05 L 149.83 112.13 C 150.14 111.38 149.78 110.52 149.04 110.21 C 148.29 109.90 147.43 110.26 147.12 111.01 Z M 146.75 111.92 L 146.36 112.85 C 146.05 113.60 146.40 114.45 147.15 114.76 C 147.89 115.07 148.74 114.72 149.06 113.98 L 149.44 113.05 C 149.76 112.31 149.41 111.45 148.66 111.14 C 147.92 110.83 147.06 111.18 146.75 111.92 Z M 146.37 112.85 L 145.98 113.79 C 145.67 114.52 146.01 115.37 146.75 115.69 C 147.49 116.00 148.34 115.65 148.65 114.91 L 149.05 113.98 C 149.36 113.24 149.01 112.39 148.27 112.08 C 147.54 111.77 146.68 112.11 146.37 112.85 Z M 145.99 113.79 L 145.60 114.69 C 145.29 115.43 145.63 116.27 146.37 116.59 C 147.10 116.90 147.95 116.55 148.26 115.82 L 148.64 114.91 C 148.95 114.18 148.61 113.33 147.88 113.02 C 147.14 112.71 146.30 113.05 145.99 113.79 Z M 145.61 114.69 L 145.22 115.60 C 144.91 116.33 145.25 117.18 145.98 117.49 C 146.71 117.80 147.56 117.46 147.87 116.73 L 148.25 115.82 C 148.57 115.09 148.22 114.24 147.49 113.93 C 146.76 113.62 145.92 113.96 145.61 114.69 Z M 145.23 115.60 L 144.83 116.52 C 144.52 117.25 144.86 118.09 145.58 118.41 C 146.31 118.72 147.15 118.38 147.47 117.65 L 147.86 116.73 C 148.17 116.00 147.84 115.16 147.11 114.85 C 146.38 114.54 145.54 114.87 145.23 115.60 Z M 144.84 116.52 L 144.43 117.46 C 144.12 118.18 144.45 119.03 145.17 119.34 C 145.90 119.65 146.74 119.32 147.05 118.60 L 147.46 117.66 C 147.77 116.93 147.44 116.09 146.72 115.78 C 145.99 115.46 145.15 115.80 144.84 116.52 Z M 144.43 117.45 L 144.03 118.38 C 143.71 119.10 144.04 119.94 144.76 120.26 C 145.48 120.57 146.33 120.24 146.64 119.52 L 147.05 118.60 C 147.36 117.88 147.04 117.04 146.31 116.72 C 145.59 116.41 144.75 116.73 144.43 117.45 Z M 144.03 118.37 L 143.62 119.30 C 143.30 120.02 143.63 120.86 144.35 121.18 C 145.07 121.50 145.91 121.17 146.23 120.45 L 146.64 119.53 C 146.96 118.81 146.63 117.96 145.91 117.64 C 145.19 117.33 144.35 117.65 144.03 118.37 Z M 143.62 119.30 L 143.22 120.22 C 142.90 120.94 143.23 121.78 143.95 122.10 C 144.67 122.42 145.51 122.09 145.83 121.37 L 146.23 120.45 C 146.55 119.73 146.22 118.89 145.50 118.57 C 144.78 118.25 143.94 118.58 143.62 119.30 Z M 143.22 120.22 L 142.82 121.13 C 142.51 121.85 142.84 122.69 143.56 123.00 C 144.28 123.32 145.12 122.99 145.43 122.27 L 145.83 121.37 C 146.14 120.64 145.81 119.80 145.09 119.49 C 144.37 119.17 143.53 119.50 143.22 120.22 Z M 142.82 121.14 L 142.41 122.09 C 142.10 122.81 142.43 123.65 143.16 123.96 C 143.88 124.27 144.72 123.94 145.03 123.21 L 145.44 122.26 C 145.75 121.54 145.41 120.70 144.69 120.39 C 143.97 120.08 143.13 120.41 142.82 121.14 Z M 142.41 122.10 L 142.02 123.02 C 141.71 123.74 142.05 124.58 142.78 124.88 C 143.50 125.19 144.34 124.85 144.64 124.13 L 145.03 123.21 C 145.34 122.48 145.00 121.65 144.27 121.34 C 143.55 121.03 142.71 121.37 142.41 122.10 Z M 142.02 123.02 L 141.64 123.92 C 141.34 124.64 141.68 125.48 142.41 125.78 C 143.13 126.09 143.97 125.74 144.27 125.02 L 144.65 124.12 C 144.95 123.39 144.61 122.56 143.88 122.26 C 143.15 121.95 142.32 122.29 142.02 123.02 Z M 141.64 123.92 L 141.47 124.33 C 141.17 125.06 141.51 125.89 142.24 126.19 C 142.96 126.50 143.80 126.15 144.10 125.43 L 144.27 125.02 C 144.57 124.29 144.23 123.46 143.50 123.15 C 142.78 122.85 141.94 123.19 141.64 123.92 Z"
      fill="black"
      fill-rule="nonzero" /></svg>