<svg xmlns="http://www.w3.org/2000/svg" width="300" height="300" viewBox="0 0 300 300">
<path d="M 134.58 124.55 L 133.57 123.81 C 132.88 123.31 131.91 123.45 131.40 124.14 C 130.90 124.83 131.04 125.80 131.73 126.31 L 132.73 127.05 C 133.42 127.56 134.40 127.41 134.91 126.72 C 135.41 126.03 135.27 125.06 134.58 124.55 Z M 133.68 123.89 L 132.88 123.20 C 132.23 122.63 131.25 122.70 130.69 123.34 C 130.12 123.99 130.19 124.97 130.83 125.53 L 131.63 126.23 C 132.28 126.80 133.26 126.73 133.82 126.09 C 134.39 125.44 134.32 124.46 133.68 123.89 Z M 133.17 123.53 L 132.77 122.92 C 132.32 122.19 131.36 121.98 130.63 122.44 C 129.91 122.89 129.69 123.85 130.15 124.58 L 130.54 125.19 C 131.00 125.92 131.96 126.13 132.68 125.68 C 133.41 125.22 133.62 124.26 133.17 123.53 Z M 132.89 124.37 L 133.13 123.83 C 133.47 123.04 133.11 122.12 132.32 121.78 C 131.54 121.43 130.62 121.79 130.27 122.58 L 130.04 123.12 C 129.69 123.91 130.05 124.83 130.84 125.17 C 131.63 125.52 132.54 125.16 132.89 124.37 Z M 132.38 124.62 L 133.24 124.20 C 134.02 123.83 134.35 122.89 133.97 122.11 C 133.60 121.33 132.66 121.00 131.88 121.38 L 131.02 121.79 C 130.24 122.16 129.91 123.10 130.29 123.88 C 130.66 124.66 131.60 124.99 132.38 124.62 Z M 132.92 124.33 L 134.16 124.04 C 135.01 123.84 135.54 122.99 135.34 122.14 C 135.14 121.29 134.29 120.77 133.44 120.96 L 132.20 121.25 C 131.35 121.45 130.82 122.30 131.02 123.15 C 131.22 124.00 132.07 124.53 132.92 124.33 Z M 134.03 124.07 L 134.94 123.94 C 135.80 123.81 136.40 123.00 136.27 122.14 C 136.14 121.27 135.34 120.67 134.47 120.80 L 133.57 120.93 C 132.70 121.06 132.10 121.87 132.23 122.73 C 132.36 123.60 133.16 124.20 134.03 124.07 Z M 134.86 123.95 L 135.81 123.85 C 136.69 123.76 137.32 122.98 137.23 122.11 C 137.14 121.24 136.37 120.60 135.49 120.69 L 134.54 120.79 C 133.67 120.88 133.04 121.66 133.13 122.53 C 133.21 123.40 133.99 124.04 134.86 123.95 Z M 135.76 123.86 L 136.77 123.79 C 137.65 123.73 138.31 122.97 138.25 122.10 C 138.19 121.22 137.43 120.56 136.56 120.62 L 135.55 120.69 C 134.67 120.75 134.01 121.50 134.07 122.38 C 134.13 123.25 134.89 123.92 135.76 123.86 Z M 136.73 123.79 L 137.80 123.75 C 138.68 123.71 139.36 122.97 139.32 122.09 C 139.29 121.21 138.55 120.53 137.67 120.57 L 136.60 120.62 C 135.72 120.65 135.04 121.39 135.08 122.27 C 135.11 123.15 135.85 123.83 136.73 123.79 Z M 137.78 123.75 L 138.84 123.72 C 139.72 123.70 140.41 122.97 140.39 122.09 C 140.37 121.21 139.63 120.52 138.76 120.54 L 137.69 120.57 C 136.82 120.59 136.12 121.32 136.14 122.20 C 136.17 123.08 136.90 123.77 137.78 123.75 Z M 138.82 123.72 L 139.86 123.71 C 140.74 123.69 141.44 122.97 141.43 122.09 C 141.41 121.21 140.69 120.51 139.81 120.52 L 138.77 120.54 C 137.89 120.55 137.19 121.28 137.20 122.16 C 137.22 123.04 137.94 123.74 138.82 123.72 Z M 139.85 123.71 L 140.89 123.70 C 141.77 123.69 142.48 122.97 142.47 122.09 C 142.46 121.21 141.74 120.50 140.86 120.51 L 139.82 120.52 C 138.94 120.52 138.23 121.25 138.24 122.13 C 138.24 123.01 138.97 123.72 139.85 123.71 Z M 140.88 123.70 L 141.89 123.70 C 142.78 123.70 143.49 122.98 143.49 122.09 C 143.48 121.21 142.76 120.50 141.88 120.50 L 140.87 120.50 C 139.98 120.51 139.27 121.23 139.27 122.11 C 139.28 122.99 140.00 123.71 140.88 123.70 Z M 141.89 123.70 L 142.84 123.70 C 143.73 123.70 144.45 122.98 144.44 122.10 C 144.44 121.21 143.72 120.50 142.84 120.50 L 141.89 120.50 C 141.00 120.50 140.28 121.22 140.28 122.10 C 140.29 122.99 141.00 123.70 141.89 123.70 Z M 142.84 123.70 L 143.89 123.71 C 144.78 123.71 145.49 122.99 145.50 122.10 C 145.50 121.21 144.78 120.49 143.89 120.49 L 142.84 120.49 C 141.96 120.49 141.24 121.21 141.24 122.10 C 141.24 122.99 141.95 123.70 142.84 123.70 Z M 143.88 123.71 L 144.94 123.72 C 145.83 123.72 146.55 123.01 146.56 122.12 C 146.57 121.23 145.85 120.51 144.96 120.50 L 143.90 120.49 C 143.01 120.48 142.29 121.20 142.28 122.09 C 142.27 122.98 142.99 123.70 143.88 123.71 Z M 144.90 123.72 L 145.84 123.75 C 146.73 123.78 147.48 123.08 147.51 122.19 C 147.54 121.30 146.84 120.56 145.95 120.53 L 145.00 120.50 C 144.11 120.47 143.37 121.16 143.34 122.05 C 143.31 122.94 144.01 123.69 144.90 123.72 Z M 145.77 123.75 L 146.66 123.82 C 147.55 123.89 148.33 123.23 148.40 122.34 C 148.47 121.45 147.80 120.67 146.91 120.60 L 146.02 120.53 C 145.13 120.46 144.35 121.12 144.28 122.01 C 144.21 122.90 144.88 123.68 145.77 123.75 Z M 146.56 123.82 L 147.53 123.95 C 148.41 124.07 149.23 123.45 149.35 122.56 C 149.47 121.68 148.85 120.86 147.97 120.74 L 147.01 120.60 C 146.12 120.48 145.30 121.10 145.18 121.99 C 145.06 122.88 145.68 123.69 146.56 123.82 Z M 147.44 123.94 L 148.42 124.13 C 149.30 124.29 150.15 123.72 150.32 122.83 C 150.49 121.95 149.91 121.10 149.03 120.93 L 148.05 120.75 C 147.17 120.58 146.32 121.16 146.15 122.04 C 145.98 122.92 146.56 123.77 147.44 123.94 Z M 148.35 124.12 L 149.35 124.35 C 150.23 124.55 151.10 124.01 151.31 123.13 C 151.51 122.26 150.97 121.38 150.09 121.18 L 149.10 120.94 C 148.22 120.74 147.34 121.28 147.14 122.16 C 146.93 123.03 147.48 123.91 148.35 124.12 Z M 149.30 124.34 L 150.25 124.59 C 151.12 124.82 152.01 124.31 152.24 123.43 C 152.48 122.56 151.96 121.67 151.09 121.44 L 150.14 121.18 C 149.27 120.95 148.37 121.47 148.14 122.34 C 147.91 123.21 148.43 124.11 149.30 124.34 Z M 150.21 124.58 L 151.15 124.86 C 152.02 125.11 152.93 124.61 153.18 123.74 C 153.43 122.88 152.93 121.97 152.06 121.72 L 151.12 121.44 C 150.25 121.19 149.35 121.69 149.10 122.56 C 148.84 123.43 149.34 124.33 150.21 124.58 Z M 151.13 124.85 L 152.09 125.15 C 152.96 125.42 153.87 124.93 154.14 124.07 C 154.41 123.21 153.92 122.29 153.06 122.02 L 152.09 121.72 C 151.23 121.46 150.31 121.94 150.04 122.80 C 149.78 123.67 150.26 124.59 151.13 124.85 Z M 152.07 125.15 L 153.05 125.46 C 153.91 125.74 154.84 125.27 155.12 124.41 C 155.40 123.55 154.92 122.62 154.06 122.34 L 153.08 122.03 C 152.22 121.75 151.29 122.22 151.02 123.08 C 150.74 123.94 151.21 124.87 152.07 125.15 Z M 153.04 125.46 L 153.94 125.76 C 154.80 126.05 155.73 125.59 156.02 124.72 C 156.31 123.86 155.84 122.93 154.98 122.65 L 154.08 122.34 C 153.22 122.06 152.29 122.52 152.00 123.38 C 151.71 124.24 152.18 125.17 153.04 125.46 Z M 153.93 125.76 L 154.86 126.08 C 155.72 126.38 156.66 125.92 156.95 125.06 C 157.25 124.20 156.79 123.26 155.93 122.97 L 155.00 122.65 C 154.14 122.35 153.20 122.81 152.91 123.67 C 152.61 124.53 153.07 125.47 153.93 125.76 Z M 154.84 126.08 L 155.80 126.42 C 156.66 126.72 157.60 126.27 157.91 125.42 C 158.21 124.56 157.76 123.61 156.90 123.31 L 155.94 122.97 C 155.09 122.67 154.14 123.12 153.84 123.97 C 153.54 124.83 153.99 125.78 154.84 126.08 Z M 155.79 126.42 L 156.77 126.78 C 157.63 127.09 158.58 126.65 158.89 125.79 C 159.20 124.94 158.76 123.99 157.91 123.67 L 156.92 123.31 C 156.06 123.00 155.12 123.44 154.80 124.30 C 154.49 125.15 154.93 126.10 155.79 126.42 Z M 156.75 126.77 L 157.67 127.12 C 158.52 127.44 159.48 127.01 159.80 126.15 C 160.12 125.30 159.69 124.35 158.84 124.02 L 157.92 123.68 C 157.07 123.36 156.11 123.79 155.79 124.64 C 155.47 125.50 155.90 126.45 156.75 126.77 Z M 157.65 127.11 L 158.58 127.47 C 159.43 127.81 160.39 127.39 160.72 126.54 C 161.05 125.69 160.64 124.73 159.78 124.39 L 158.86 124.03 C 158.01 123.70 157.05 124.12 156.71 124.97 C 156.38 125.82 156.80 126.78 157.65 127.11 Z M 158.55 127.47 L 159.49 127.85 C 160.33 128.20 161.30 127.79 161.65 126.95 C 161.99 126.10 161.59 125.13 160.74 124.79 L 159.81 124.40 C 158.96 124.06 158.00 124.46 157.65 125.31 C 157.30 126.15 157.71 127.12 158.55 127.47 Z M 159.46 127.84 L 160.39 128.24 C 161.23 128.60 162.20 128.22 162.56 127.38 C 162.93 126.54 162.54 125.56 161.70 125.20 L 160.77 124.80 C 159.93 124.43 158.96 124.82 158.60 125.66 C 158.23 126.50 158.62 127.47 159.46 127.84 Z M 160.35 128.23 L 161.27 128.65 C 162.10 129.03 163.08 128.66 163.46 127.83 C 163.85 127.00 163.48 126.02 162.65 125.63 L 161.74 125.21 C 160.91 124.83 159.92 125.20 159.54 126.03 C 159.16 126.86 159.52 127.84 160.35 128.23 Z M 161.23 128.63 L 162.13 129.07 C 162.95 129.47 163.94 129.13 164.35 128.31 C 164.75 127.48 164.41 126.49 163.58 126.09 L 162.69 125.65 C 161.86 125.25 160.87 125.59 160.47 126.41 C 160.07 127.23 160.41 128.23 161.23 128.63 Z M 162.10 129.06 L 162.98 129.51 C 163.80 129.93 164.80 129.61 165.22 128.79 C 165.64 127.98 165.32 126.98 164.50 126.56 L 163.61 126.10 C 162.80 125.68 161.80 126.00 161.38 126.82 C 160.96 127.64 161.28 128.64 162.10 129.06 Z M 162.96 129.50 L 163.84 129.97 C 164.65 130.40 165.65 130.10 166.09 129.29 C 166.52 128.48 166.22 127.47 165.41 127.04 L 164.52 126.57 C 163.71 126.13 162.71 126.44 162.27 127.25 C 161.84 128.06 162.15 129.07 162.96 129.50 Z M 163.82 129.96 L 164.70 130.45 C 165.51 130.89 166.52 130.60 166.96 129.79 C 167.40 128.99 167.11 127.97 166.31 127.53 L 165.42 127.05 C 164.62 126.60 163.61 126.90 163.16 127.70 C 162.72 128.51 163.01 129.52 163.82 129.96 Z M 164.69 130.44 L 165.55 130.93 C 166.35 131.38 167.37 131.10 167.82 130.29 C 168.27 129.49 167.99 128.47 167.18 128.02 L 166.32 127.54 C 165.52 127.09 164.50 127.37 164.05 128.17 C 163.60 128.98 163.88 129.99 164.69 130.44 Z M 165.54 130.92 L 166.40 131.42 C 167.20 131.88 168.22 131.60 168.68 130.80 C 169.14 130.01 168.86 128.98 168.06 128.52 L 167.20 128.03 C 166.40 127.57 165.38 127.84 164.92 128.64 C 164.46 129.44 164.74 130.46 165.54 130.92 Z M 166.38 131.41 L 167.25 131.92 C 168.04 132.39 169.07 132.13 169.54 131.33 C 170.01 130.54 169.74 129.51 168.95 129.04 L 168.08 128.53 C 167.29 128.06 166.26 128.33 165.79 129.12 C 165.32 129.92 165.59 130.95 166.38 131.41 Z M 167.23 131.91 L 168.09 132.44 C 168.88 132.92 169.91 132.66 170.39 131.87 C 170.87 131.08 170.62 130.05 169.83 129.57 L 168.97 129.05 C 168.18 128.57 167.14 128.82 166.66 129.61 C 166.18 130.40 166.44 131.43 167.23 131.91 Z M 168.06 132.43 L 168.92 132.96 C 169.70 133.45 170.74 133.22 171.23 132.43 C 171.72 131.65 171.49 130.61 170.70 130.12 L 169.85 129.58 C 169.06 129.09 168.03 129.33 167.53 130.11 C 167.04 130.90 167.28 131.93 168.06 132.43 Z M 168.89 132.95 L 169.74 133.50 C 170.52 134.01 171.56 133.79 172.06 133.01 C 172.57 132.23 172.35 131.19 171.57 130.68 L 170.73 130.13 C 169.95 129.62 168.91 129.84 168.40 130.62 C 167.89 131.40 168.11 132.44 168.89 132.95 Z M 169.71 133.48 L 170.54 134.05 C 171.31 134.57 172.36 134.37 172.88 133.60 C 173.40 132.83 173.20 131.79 172.43 131.26 L 171.60 130.70 C 170.83 130.18 169.79 130.38 169.26 131.15 C 168.74 131.91 168.94 132.96 169.71 133.48 Z M 170.51 134.03 L 171.33 134.61 C 172.09 135.15 173.14 134.97 173.68 134.21 C 174.22 133.45 174.04 132.40 173.28 131.86 L 172.46 131.28 C 171.70 130.74 170.65 130.92 170.11 131.68 C 169.57 132.44 169.75 133.49 170.51 134.03 Z M 171.29 134.59 L 172.09 135.18 C 172.83 135.74 173.89 135.58 174.45 134.83 C 175.01 134.08 174.85 133.02 174.10 132.47 L 173.31 131.88 C 172.56 131.32 171.50 131.48 170.95 132.23 C 170.39 132.97 170.54 134.03 171.29 134.59 Z M 172.05 135.16 L 172.84 135.77 C 173.58 136.35 174.64 136.22 175.22 135.49 C 175.79 134.75 175.66 133.69 174.93 133.11 L 174.14 132.49 C 173.40 131.91 172.34 132.04 171.76 132.78 C 171.19 133.52 171.32 134.58 172.05 135.16 Z M 172.81 135.75 L 173.58 136.39 C 174.30 136.99 175.37 136.89 175.97 136.17 C 176.57 135.44 176.46 134.38 175.74 133.78 L 174.97 133.14 C 174.24 132.54 173.18 132.64 172.58 133.36 C 171.98 134.08 172.08 135.15 172.81 135.75 Z M 173.55 136.37 L 174.30 137.02 C 175.01 137.64 176.08 137.56 176.70 136.86 C 177.31 136.15 177.24 135.08 176.53 134.46 L 175.78 133.81 C 175.07 133.19 174.00 133.26 173.38 133.97 C 172.77 134.68 172.84 135.75 173.55 136.37 Z M 174.27 137.00 L 175.00 137.67 C 175.69 138.30 176.77 138.25 177.40 137.56 C 178.04 136.87 177.99 135.79 177.30 135.16 L 176.57 134.49 C 175.87 133.85 174.80 133.90 174.16 134.59 C 173.53 135.28 173.57 136.36 174.27 137.00 Z M 174.96 137.64 L 175.67 138.32 C 176.35 138.98 177.43 138.96 178.08 138.28 C 178.74 137.60 178.72 136.52 178.04 135.87 L 177.33 135.19 C 176.65 134.53 175.57 134.55 174.92 135.23 C 174.27 135.91 174.29 136.99 174.96 137.64 Z M 175.64 138.30 L 176.34 139.00 C 177.00 139.67 178.08 139.68 178.75 139.02 C 179.42 138.35 179.43 137.27 178.77 136.60 L 178.07 135.90 C 177.41 135.23 176.33 135.22 175.66 135.88 C 174.99 136.54 174.98 137.62 175.64 138.30 Z M 176.30 138.97 L 176.98 139.69 C 177.63 140.38 178.71 140.42 179.40 139.77 C 180.09 139.13 180.12 138.05 179.48 137.36 L 178.80 136.63 C 178.15 135.94 177.07 135.91 176.38 136.55 C 175.69 137.20 175.66 138.28 176.30 138.97 Z M 176.95 139.66 L 177.61 140.41 C 178.24 141.12 179.33 141.18 180.03 140.55 C 180.74 139.93 180.80 138.84 180.18 138.13 L 179.51 137.39 C 178.88 136.68 177.80 136.62 177.09 137.24 C 176.38 137.87 176.32 138.96 176.95 139.66 Z M 177.58 140.38 L 178.23 141.16 C 178.85 141.88 179.93 141.97 180.65 141.36 C 181.38 140.75 181.47 139.67 180.86 138.94 L 180.21 138.17 C 179.60 137.44 178.51 137.35 177.79 137.96 C 177.06 138.57 176.97 139.65 177.58 140.38 Z M 178.20 141.12 L 178.84 141.92 C 179.43 142.66 180.51 142.78 181.26 142.19 C 182.00 141.60 182.12 140.51 181.53 139.77 L 180.89 138.98 C 180.30 138.23 179.22 138.11 178.48 138.70 C 177.73 139.30 177.61 140.38 178.20 141.12 Z M 178.80 141.88 L 179.41 142.70 C 179.99 143.46 181.07 143.61 181.83 143.04 C 182.59 142.47 182.75 141.39 182.17 140.63 L 181.56 139.81 C 180.99 139.05 179.91 138.89 179.15 139.47 C 178.39 140.04 178.23 141.12 178.80 141.88 Z M 179.38 142.65 L 179.95 143.48 C 180.49 144.26 181.57 144.46 182.35 143.91 C 183.14 143.37 183.33 142.29 182.79 141.51 L 182.21 140.68 C 181.67 139.89 180.59 139.70 179.81 140.24 C 179.03 140.79 178.83 141.86 179.38 142.65 Z M 179.90 143.41 L 180.43 144.25 C 180.94 145.06 182.00 145.30 182.81 144.79 C 183.62 144.29 183.87 143.22 183.36 142.41 L 182.84 141.57 C 182.33 140.76 181.26 140.52 180.45 141.03 C 179.64 141.54 179.40 142.60 179.90 143.41 Z M 180.37 144.16 L 180.85 145.03 C 181.31 145.87 182.36 146.18 183.20 145.72 C 184.04 145.26 184.35 144.20 183.89 143.37 L 183.41 142.50 C 182.95 141.66 181.90 141.35 181.06 141.81 C 180.22 142.27 179.91 143.32 180.37 144.16 Z M 180.79 144.92 L 181.22 145.86 C 181.62 146.73 182.65 147.12 183.52 146.72 C 184.39 146.32 184.78 145.29 184.38 144.41 L 183.95 143.48 C 183.55 142.60 182.52 142.22 181.65 142.62 C 180.78 143.02 180.39 144.05 180.79 144.92 Z M 181.17 145.75 L 181.52 146.68 C 181.86 147.58 182.86 148.03 183.76 147.70 C 184.66 147.36 185.12 146.36 184.78 145.46 L 184.43 144.53 C 184.09 143.63 183.09 143.17 182.19 143.51 C 181.29 143.84 180.83 144.85 181.17 145.75 Z M 181.48 146.58 L 181.77 147.51 C 182.05 148.43 183.03 148.95 183.95 148.66 C 184.87 148.38 185.38 147.40 185.10 146.48 L 184.82 145.55 C 184.53 144.63 183.56 144.12 182.64 144.40 C 181.71 144.68 181.20 145.66 181.48 146.58 Z M 181.74 147.43 L 181.98 148.38 C 182.23 149.31 183.18 149.87 184.11 149.63 C 185.05 149.39 185.61 148.44 185.37 147.50 L 185.13 146.56 C 184.89 145.62 183.93 145.06 183.00 145.30 C 182.06 145.54 181.50 146.50 181.74 147.43 Z M 181.96 148.31 L 182.17 149.28 C 182.38 150.23 183.31 150.83 184.25 150.62 C 185.20 150.42 185.80 149.49 185.60 148.54 L 185.39 147.57 C 185.19 146.63 184.25 146.02 183.31 146.23 C 182.36 146.43 181.76 147.36 181.96 148.31 Z M 182.16 149.21 L 182.33 150.19 C 182.49 151.15 183.40 151.79 184.35 151.62 C 185.31 151.46 185.95 150.55 185.78 149.60 L 185.62 148.62 C 185.45 147.66 184.55 147.02 183.59 147.18 C 182.63 147.35 181.99 148.25 182.16 149.21 Z M 182.31 150.11 L 182.44 151.11 C 182.56 152.08 183.44 152.76 184.40 152.64 C 185.36 152.52 186.05 151.64 185.92 150.67 L 185.80 149.68 C 185.68 148.71 184.80 148.03 183.84 148.15 C 182.87 148.27 182.19 149.15 182.31 150.11 Z M 182.42 151.03 L 182.50 152.03 C 182.58 153.00 183.43 153.72 184.40 153.64 C 185.37 153.56 186.09 152.72 186.02 151.75 L 185.94 150.75 C 185.86 149.78 185.01 149.06 184.04 149.14 C 183.07 149.22 182.35 150.07 182.42 151.03 Z M 182.50 151.96 L 182.54 152.95 C 182.58 153.93 183.40 154.68 184.37 154.64 C 185.35 154.60 186.10 153.78 186.06 152.81 L 186.02 151.81 C 185.98 150.84 185.16 150.08 184.19 150.12 C 183.21 150.16 182.46 150.99 182.50 151.96 Z M 182.53 152.90 L 182.55 153.91 C 182.56 154.88 183.36 155.66 184.34 155.65 C 185.31 155.64 186.09 154.84 186.08 153.86 L 186.07 152.86 C 186.06 151.88 185.25 151.10 184.28 151.11 C 183.30 151.12 182.52 151.93 182.53 152.90 Z M 182.54 153.87 L 182.54 154.88 C 182.53 155.86 183.32 156.66 184.29 156.66 C 185.27 156.67 186.07 155.88 186.08 154.90 L 186.08 153.90 C 186.09 152.92 185.30 152.12 184.33 152.11 C 183.35 152.11 182.55 152.89 182.54 153.87 Z M 182.53 154.86 L 182.51 155.85 C 182.50 156.82 183.27 157.63 184.25 157.65 C 185.23 157.67 186.04 156.89 186.06 155.91 L 186.08 154.93 C 186.10 153.95 185.32 153.14 184.34 153.12 C 183.36 153.10 182.55 153.88 182.53 154.86 Z M 182.51 155.81 L 182.47 156.79 C 182.43 157.77 183.19 158.60 184.17 158.64 C 185.15 158.68 185.98 157.92 186.02 156.94 L 186.06 155.95 C 186.10 154.97 185.34 154.15 184.36 154.11 C 183.38 154.07 182.55 154.83 182.51 155.81 Z M 182.47 156.72 L 182.40 157.72 C 182.32 158.70 183.05 159.55 184.03 159.63 C 185.01 159.71 185.86 158.98 185.94 158.00 L 186.02 157.00 C 186.10 156.03 185.37 155.17 184.39 155.09 C 183.41 155.01 182.55 155.74 182.47 156.72 Z M 182.40 157.62 L 182.27 158.63 C 182.14 159.60 182.82 160.50 183.79 160.63 C 184.77 160.76 185.67 160.08 185.80 159.10 L 185.93 158.09 C 186.06 157.12 185.38 156.22 184.40 156.09 C 183.43 155.96 182.53 156.65 182.40 157.62 Z M 182.28 158.52 L 182.09 159.46 C 181.90 160.43 182.53 161.37 183.49 161.56 C 184.46 161.75 185.40 161.13 185.59 160.16 L 185.78 159.22 C 185.97 158.25 185.35 157.31 184.38 157.12 C 183.42 156.93 182.48 157.55 182.28 158.52 Z M 182.12 159.37 L 181.88 160.29 C 181.63 161.24 182.20 162.22 183.15 162.47 C 184.11 162.71 185.08 162.14 185.33 161.19 L 185.57 160.26 C 185.82 159.31 185.25 158.33 184.29 158.09 C 183.34 157.84 182.36 158.41 182.12 159.37 Z M 181.90 160.21 L 181.60 161.16 C 181.31 162.10 181.84 163.10 182.78 163.39 C 183.72 163.68 184.73 163.16 185.02 162.21 L 185.31 161.27 C 185.60 160.32 185.07 159.32 184.13 159.03 C 183.19 158.74 182.19 159.27 181.90 160.21 Z M 181.62 161.10 L 181.28 162.07 C 180.96 163.00 181.45 164.02 182.38 164.35 C 183.31 164.67 184.33 164.18 184.66 163.25 L 185.00 162.28 C 185.32 161.34 184.83 160.32 183.90 160.00 C 182.97 159.67 181.95 160.16 181.62 161.10 Z M 181.30 162.02 L 180.92 163.02 C 180.56 163.94 181.03 164.98 181.95 165.33 C 182.87 165.68 183.91 165.22 184.26 164.29 L 184.64 163.30 C 184.99 162.38 184.53 161.34 183.61 160.99 C 182.68 160.63 181.65 161.10 181.30 162.02 Z M 180.93 162.98 L 180.56 163.88 C 180.19 164.80 180.63 165.84 181.55 166.21 C 182.47 166.59 183.51 166.14 183.88 165.23 L 184.25 164.33 C 184.62 163.41 184.18 162.37 183.26 162.00 C 182.35 161.62 181.30 162.06 180.93 162.98 Z M 180.58 163.84 L 180.18 164.76 C 179.79 165.67 180.21 166.72 181.12 167.11 C 182.03 167.50 183.09 167.08 183.48 166.17 L 183.87 165.26 C 184.26 164.35 183.84 163.30 182.93 162.90 C 182.02 162.51 180.97 162.93 180.58 163.84 Z M 180.20 164.72 L 179.78 165.64 C 179.37 166.54 179.77 167.60 180.67 168.02 C 181.57 168.43 182.64 168.03 183.05 167.13 L 183.47 166.21 C 183.88 165.31 183.48 164.24 182.58 163.83 C 181.68 163.42 180.61 163.82 180.20 164.72 Z M 179.80 165.59 L 179.35 166.51 C 178.92 167.40 179.29 168.48 180.18 168.91 C 181.08 169.35 182.15 168.97 182.59 168.08 L 183.03 167.17 C 183.47 166.27 183.09 165.20 182.20 164.76 C 181.31 164.33 180.23 164.70 179.80 165.59 Z M 179.37 166.46 L 178.90 167.36 C 178.44 168.25 178.79 169.33 179.67 169.79 C 180.55 170.25 181.64 169.91 182.10 169.03 L 182.57 168.13 C 183.03 167.24 182.68 166.16 181.80 165.70 C 180.92 165.24 179.83 165.58 179.37 166.46 Z M 178.93 167.32 L 178.44 168.19 C 177.95 169.06 178.26 170.16 179.13 170.64 C 180.00 171.13 181.10 170.82 181.59 169.95 L 182.07 169.07 C 182.56 168.21 182.25 167.11 181.38 166.62 C 180.51 166.14 179.41 166.45 178.93 167.32 Z M 178.47 168.14 L 177.96 168.99 C 177.44 169.85 177.72 170.96 178.58 171.47 C 179.43 171.98 180.54 171.70 181.05 170.85 L 181.56 170.00 C 182.07 169.14 181.79 168.03 180.94 167.52 C 180.08 167.01 178.98 167.29 178.47 168.14 Z M 177.98 168.95 L 177.45 169.79 C 176.91 170.63 177.16 171.75 178.00 172.28 C 178.84 172.82 179.96 172.57 180.49 171.73 L 181.03 170.89 C 181.56 170.05 181.31 168.93 180.47 168.40 C 179.63 167.86 178.52 168.11 177.98 168.95 Z M 177.47 169.75 L 176.91 170.58 C 176.36 171.41 176.58 172.53 177.41 173.09 C 178.24 173.64 179.36 173.42 179.92 172.59 L 180.47 171.76 C 181.03 170.94 180.81 169.81 179.98 169.26 C 179.15 168.70 178.03 168.92 177.47 169.75 Z M 176.93 170.55 L 176.36 171.37 C 175.78 172.19 175.98 173.32 176.80 173.89 C 177.61 174.46 178.74 174.27 179.32 173.45 L 179.89 172.62 C 180.47 171.81 180.27 170.68 179.45 170.11 C 178.64 169.53 177.51 169.73 176.93 170.55 Z M 176.37 171.35 L 175.79 172.15 C 175.20 172.96 175.38 174.09 176.18 174.68 C 176.99 175.27 178.12 175.09 178.71 174.28 L 179.30 173.48 C 179.89 172.67 179.71 171.54 178.90 170.95 C 178.09 170.36 176.96 170.54 176.37 171.35 Z M 175.80 172.13 L 175.22 172.91 C 174.62 173.71 174.78 174.84 175.58 175.44 C 176.38 176.04 177.51 175.88 178.11 175.08 L 178.70 174.30 C 179.30 173.50 179.14 172.37 178.34 171.77 C 177.54 171.17 176.40 171.33 175.80 172.13 Z M 175.23 172.89 L 174.63 173.67 C 174.02 174.46 174.16 175.59 174.95 176.21 C 175.74 176.82 176.88 176.67 177.49 175.88 L 178.10 175.10 C 178.71 174.31 178.56 173.17 177.77 172.56 C 176.98 171.95 175.85 172.10 175.23 172.89 Z M 174.65 173.64 L 174.02 174.43 C 173.40 175.21 173.53 176.35 174.31 176.97 C 175.09 177.60 176.23 177.47 176.85 176.69 L 177.48 175.90 C 178.10 175.12 177.97 173.98 177.19 173.36 C 176.41 172.73 175.27 172.86 174.65 173.64 Z M 174.04 174.41 L 173.39 175.19 C 172.76 175.96 172.87 177.10 173.64 177.74 C 174.42 178.37 175.56 178.26 176.19 177.49 L 176.84 176.71 C 177.47 175.93 177.36 174.79 176.59 174.16 C 175.81 173.52 174.67 173.63 174.04 174.41 Z M 173.41 175.17 L 172.75 175.96 C 172.10 176.72 172.20 177.86 172.96 178.51 C 173.72 179.15 174.87 179.06 175.51 178.30 L 176.18 177.51 C 176.82 176.75 176.73 175.60 175.96 174.96 C 175.20 174.31 174.06 174.41 173.41 175.17 Z M 172.76 175.94 L 172.11 176.69 C 171.45 177.44 171.53 178.59 172.28 179.24 C 173.04 179.90 174.18 179.82 174.84 179.07 L 175.50 178.32 C 176.15 177.56 176.07 176.42 175.32 175.76 C 174.56 175.10 173.42 175.18 172.76 175.94 Z M 172.12 176.67 L 171.47 177.40 C 170.80 178.15 170.86 179.29 171.61 179.96 C 172.36 180.63 173.50 180.56 174.17 179.82 L 174.83 179.09 C 175.49 178.34 175.43 177.19 174.68 176.53 C 173.94 175.86 172.79 175.92 172.12 176.67 Z M 171.48 177.38 L 170.81 178.12 C 170.13 178.85 170.18 180.00 170.92 180.68 C 171.66 181.36 172.81 181.31 173.48 180.57 L 174.16 179.84 C 174.83 179.10 174.78 177.95 174.04 177.27 C 173.31 176.60 172.16 176.65 171.48 177.38 Z M 170.83 178.10 L 170.14 178.83 C 169.45 179.56 169.49 180.71 170.22 181.40 C 170.95 182.08 172.10 182.04 172.78 181.31 L 173.47 180.58 C 174.16 179.85 174.12 178.71 173.39 178.02 C 172.66 177.33 171.51 177.37 170.83 178.10 Z M 170.15 178.82 L 169.45 179.54 C 168.76 180.27 168.78 181.42 169.50 182.11 C 170.23 182.80 171.38 182.78 172.07 182.06 L 172.77 181.33 C 173.46 180.61 173.44 179.46 172.72 178.76 C 172.00 178.07 170.85 178.09 170.15 178.82 Z M 169.47 179.53 L 168.75 180.26 C 168.05 180.97 168.06 182.12 168.78 182.82 C 169.49 183.53 170.64 183.51 171.35 182.80 L 172.06 182.07 C 172.76 181.36 172.75 180.21 172.03 179.51 C 171.32 178.80 170.17 178.81 169.47 179.53 Z M 168.77 180.24 L 168.06 180.95 C 167.35 181.66 167.35 182.81 168.05 183.52 C 168.76 184.23 169.91 184.23 170.62 183.52 L 171.33 182.81 C 172.04 182.10 172.04 180.95 171.33 180.24 C 170.62 179.53 169.48 179.53 168.77 180.24 Z M 168.07 180.94 L 167.36 181.64 C 166.64 182.34 166.63 183.49 167.33 184.21 C 168.04 184.92 169.19 184.93 169.90 184.23 L 170.61 183.53 C 171.33 182.83 171.34 181.68 170.63 180.97 C 169.93 180.25 168.78 180.24 168.07 180.94 Z M 167.37 181.63 L 166.65 182.32 C 165.93 183.02 165.91 184.17 166.61 184.89 C 167.30 185.61 168.45 185.63 169.17 184.93 L 169.89 184.24 C 170.61 183.54 170.63 182.39 169.94 181.67 C 169.24 180.95 168.09 180.93 167.37 181.63 Z M 166.66 182.31 L 165.94 183.00 C 165.21 183.69 165.18 184.84 165.87 185.57 C 166.56 186.30 167.71 186.32 168.44 185.63 L 169.16 184.94 C 169.89 184.25 169.92 183.10 169.23 182.38 C 168.54 181.65 167.39 181.62 166.66 182.31 Z M 165.94 182.99 L 165.21 183.68 C 164.48 184.37 164.45 185.52 165.13 186.25 C 165.82 186.98 166.97 187.01 167.70 186.33 L 168.43 185.64 C 169.16 184.95 169.20 183.81 168.51 183.07 C 167.82 182.34 166.68 182.31 165.94 182.99 Z M 165.22 183.67 L 164.48 184.36 C 163.75 185.04 163.71 186.19 164.39 186.92 C 165.07 187.66 166.22 187.70 166.95 187.02 L 167.69 186.33 C 168.43 185.65 168.47 184.50 167.79 183.77 C 167.10 183.03 165.96 182.99 165.22 183.67 Z M 164.49 184.35 L 163.75 185.03 C 163.02 185.71 162.97 186.85 163.64 187.59 C 164.32 188.33 165.47 188.38 166.21 187.70 L 166.95 187.02 C 167.69 186.35 167.73 185.20 167.06 184.46 C 166.38 183.72 165.23 183.67 164.49 184.35 Z M 163.76 185.02 L 163.03 185.69 C 162.29 186.36 162.23 187.51 162.91 188.25 C 163.58 188.99 164.73 189.05 165.47 188.37 L 166.20 187.71 C 166.94 187.03 167.00 185.89 166.32 185.14 C 165.65 184.40 164.50 184.35 163.76 185.02 Z M 163.03 185.68 L 162.30 186.35 C 161.56 187.02 161.50 188.17 162.17 188.91 C 162.84 189.65 163.99 189.71 164.73 189.04 L 165.47 188.38 C 166.21 187.71 166.27 186.56 165.60 185.81 C 164.93 185.07 163.78 185.01 163.03 185.68 Z M 162.30 186.34 L 161.56 187.01 C 160.82 187.67 160.75 188.82 161.42 189.57 C 162.09 190.31 163.24 190.38 163.99 189.71 L 164.73 189.04 C 165.47 188.38 165.54 187.23 164.87 186.48 C 164.20 185.74 163.05 185.67 162.30 186.34 Z M 161.57 187.00 L 160.82 187.67 C 160.07 188.33 160.01 189.48 160.67 190.23 C 161.34 190.98 162.49 191.04 163.24 190.38 L 163.98 189.71 C 164.73 189.05 164.80 187.90 164.13 187.15 C 163.46 186.40 162.32 186.34 161.57 187.00 Z M 160.83 187.66 L 160.07 188.33 C 159.32 189.00 159.25 190.14 159.92 190.89 C 160.58 191.64 161.73 191.71 162.48 191.05 L 163.23 190.38 C 163.98 189.72 164.05 188.57 163.39 187.82 C 162.72 187.07 161.58 187.00 160.83 187.66 Z M 160.07 188.33 L 159.31 189.00 C 158.56 189.67 158.49 190.81 159.15 191.56 C 159.81 192.31 160.96 192.39 161.71 191.72 L 162.47 191.05 C 163.23 190.39 163.30 189.24 162.63 188.49 C 161.97 187.74 160.83 187.67 160.07 188.33 Z M 159.31 189.00 L 158.55 189.67 C 157.80 190.33 157.72 191.48 158.38 192.23 C 159.05 192.99 160.19 193.06 160.94 192.40 L 161.71 191.72 C 162.46 191.06 162.54 189.92 161.87 189.17 C 161.21 188.41 160.07 188.34 159.31 189.00 Z M 158.55 189.67 L 157.78 190.35 C 157.03 191.00 156.96 192.15 157.61 192.90 C 158.27 193.66 159.42 193.73 160.17 193.07 L 160.94 192.40 C 161.69 191.74 161.77 190.59 161.11 189.84 C 160.45 189.09 159.31 189.01 158.55 189.67 Z M 157.79 190.34 L 157.02 191.01 C 156.26 191.67 156.19 192.81 156.84 193.57 C 157.50 194.32 158.64 194.40 159.40 193.74 L 160.17 193.07 C 160.92 192.42 161.00 191.27 160.34 190.52 C 159.69 189.76 158.54 189.69 157.79 190.34 Z M 157.02 191.01 L 156.26 191.67 C 155.50 192.33 155.42 193.47 156.07 194.22 C 156.73 194.98 157.87 195.06 158.63 194.41 L 159.39 193.75 C 160.15 193.09 160.23 191.95 159.58 191.20 C 158.92 190.44 157.78 190.36 157.02 191.01 Z M 156.27 191.67 L 155.51 192.32 C 154.75 192.97 154.66 194.11 155.31 194.87 C 155.96 195.62 157.10 195.71 157.86 195.06 L 158.62 194.41 C 159.38 193.76 159.47 192.62 158.82 191.86 C 158.17 191.11 157.02 191.02 156.27 191.67 Z M 155.52 192.31 L 154.77 192.94 C 154.01 193.58 153.92 194.73 154.56 195.49 C 155.21 196.25 156.35 196.34 157.11 195.70 L 157.85 195.07 C 158.62 194.42 158.71 193.28 158.06 192.52 C 157.42 191.76 156.28 191.66 155.52 192.31 Z M 154.78 192.93 L 154.03 193.56 C 153.27 194.20 153.16 195.34 153.80 196.10 C 154.44 196.87 155.58 196.97 156.35 196.33 L 157.10 195.71 C 157.86 195.07 157.97 193.93 157.33 193.16 C 156.69 192.40 155.55 192.29 154.78 192.93 Z M 154.05 193.55 L 153.23 194.22 C 152.45 194.85 152.34 195.99 152.97 196.76 C 153.60 197.53 154.74 197.65 155.51 197.01 L 156.33 196.34 C 157.10 195.71 157.22 194.57 156.59 193.80 C 155.95 193.03 154.82 192.92 154.05 193.55 Z M 153.24 194.21 L 152.44 194.85 C 151.67 195.47 151.54 196.61 152.16 197.38 C 152.79 198.16 153.92 198.29 154.70 197.67 L 155.50 197.03 C 156.27 196.40 156.40 195.27 155.78 194.49 C 155.15 193.71 154.02 193.59 153.24 194.21 Z M 152.46 194.84 L 151.68 195.45 C 150.90 196.06 150.76 197.19 151.37 197.98 C 151.98 198.76 153.11 198.90 153.90 198.29 L 154.68 197.68 C 155.46 197.06 155.60 195.93 154.99 195.15 C 154.38 194.36 153.25 194.23 152.46 194.84 Z M 151.70 195.44 L 150.93 196.02 C 150.14 196.63 149.98 197.76 150.59 198.55 C 151.19 199.34 152.32 199.49 153.11 198.89 L 153.88 198.30 C 154.67 197.70 154.82 196.57 154.22 195.78 C 153.62 194.99 152.49 194.83 151.70 195.44 Z M 150.95 196.01 L 150.18 196.58 C 149.38 197.17 149.21 198.30 149.81 199.10 C 150.40 199.89 151.52 200.06 152.32 199.47 L 153.09 198.90 C 153.89 198.31 154.05 197.18 153.46 196.39 C 152.87 195.59 151.74 195.42 150.95 196.01 Z M 150.20 196.57 L 149.40 197.14 C 148.60 197.72 148.41 198.85 148.99 199.65 C 149.57 200.46 150.69 200.64 151.50 200.06 L 152.30 199.48 C 153.10 198.90 153.29 197.78 152.71 196.98 C 152.13 196.17 151.01 195.99 150.20 196.57 Z M 149.42 197.13 L 148.60 197.71 C 147.79 198.27 147.59 199.39 148.16 200.20 C 148.72 201.01 149.84 201.21 150.65 200.65 L 151.48 200.07 C 152.29 199.51 152.49 198.39 151.92 197.58 C 151.35 196.76 150.24 196.56 149.42 197.13 Z M 148.63 197.69 L 147.80 198.25 C 146.98 198.80 146.76 199.91 147.31 200.73 C 147.86 201.55 148.97 201.77 149.79 201.22 L 150.62 200.66 C 151.44 200.11 151.66 199.00 151.11 198.18 C 150.56 197.36 149.45 197.14 148.63 197.69 Z M 147.82 198.24 L 146.99 198.78 C 146.16 199.31 145.92 200.42 146.46 201.25 C 146.99 202.08 148.10 202.31 148.93 201.78 L 149.77 201.23 C 150.59 200.70 150.83 199.59 150.29 198.76 C 149.76 197.94 148.65 197.70 147.82 198.24 Z M 147.02 198.76 L 146.17 199.29 C 145.34 199.81 145.08 200.90 145.60 201.74 C 146.12 202.58 147.21 202.83 148.05 202.32 L 148.90 201.79 C 149.73 201.27 149.99 200.17 149.47 199.34 C 148.95 198.50 147.85 198.24 147.02 198.76 Z M 146.21 199.27 L 145.35 199.78 C 144.50 200.28 144.22 201.37 144.72 202.22 C 145.22 203.06 146.31 203.34 147.16 202.84 L 148.02 202.33 C 148.86 201.83 149.14 200.74 148.64 199.90 C 148.14 199.05 147.05 198.77 146.21 199.27 Z M 145.38 199.76 L 144.51 200.26 C 143.65 200.74 143.35 201.82 143.83 202.67 C 144.31 203.53 145.39 203.83 146.25 203.35 L 147.12 202.86 C 147.98 202.38 148.28 201.29 147.80 200.44 C 147.32 199.59 146.24 199.28 145.38 199.76 Z M 144.54 200.24 L 143.66 200.71 C 142.80 201.18 142.47 202.25 142.93 203.11 C 143.40 203.97 144.47 204.30 145.33 203.84 L 146.21 203.36 C 147.08 202.90 147.40 201.83 146.94 200.97 C 146.48 200.11 145.40 199.78 144.54 200.24 Z M 143.69 200.70 L 142.80 201.15 C 141.93 201.60 141.59 202.66 142.03 203.53 C 142.47 204.40 143.54 204.75 144.40 204.30 L 145.30 203.85 C 146.16 203.41 146.51 202.34 146.07 201.47 C 145.63 200.61 144.56 200.26 143.69 200.70 Z M 142.84 201.14 L 141.94 201.58 C 141.06 202.00 140.70 203.05 141.12 203.93 C 141.54 204.81 142.60 205.17 143.47 204.75 L 144.37 204.32 C 145.25 203.89 145.61 202.84 145.19 201.96 C 144.77 201.09 143.71 200.72 142.84 201.14 Z M 141.97 201.56 L 141.07 201.98 C 140.18 202.39 139.80 203.43 140.20 204.31 C 140.61 205.19 141.65 205.58 142.53 205.18 L 143.44 204.76 C 144.32 204.36 144.71 203.31 144.30 202.43 C 143.90 201.55 142.86 201.16 141.97 201.56 Z M 141.10 201.97 L 140.17 202.37 C 139.29 202.76 138.88 203.79 139.26 204.68 C 139.65 205.57 140.68 205.97 141.57 205.59 L 142.50 205.19 C 143.38 204.80 143.79 203.77 143.41 202.88 C 143.02 201.99 141.99 201.59 141.10 201.97 Z M 140.21 202.36 L 139.28 202.74 C 138.39 203.11 137.96 204.13 138.32 205.02 C 138.69 205.91 139.71 206.34 140.60 205.98 L 141.53 205.60 C 142.43 205.23 142.85 204.21 142.49 203.32 C 142.12 202.43 141.10 202.00 140.21 202.36 Z M 139.32 202.73 L 138.38 203.09 C 137.49 203.44 137.04 204.44 137.38 205.34 C 137.73 206.24 138.73 206.69 139.63 206.34 L 140.56 205.99 C 141.46 205.64 141.91 204.64 141.57 203.74 C 141.22 202.84 140.22 202.39 139.32 202.73 Z M 138.42 203.08 L 137.49 203.42 C 136.59 203.74 136.11 204.73 136.44 205.64 C 136.76 206.54 137.75 207.01 138.66 206.69 L 139.59 206.35 C 140.49 206.03 140.96 205.04 140.64 204.14 C 140.32 203.23 139.33 202.76 138.42 203.08 Z M 137.53 203.41 L 136.59 203.72 C 135.68 204.02 135.19 205.00 135.49 205.90 C 135.79 206.81 136.77 207.30 137.68 207.00 L 138.61 206.70 C 139.52 206.40 140.01 205.42 139.71 204.51 C 139.41 203.60 138.44 203.11 137.53 203.41 Z M 136.63 203.71 L 135.69 204.00 C 134.78 204.28 134.26 205.24 134.54 206.15 C 134.81 207.06 135.78 207.58 136.69 207.30 L 137.63 207.01 C 138.55 206.74 139.06 205.77 138.78 204.86 C 138.51 203.95 137.55 203.44 136.63 203.71 Z M 135.73 203.99 L 134.77 204.26 C 133.86 204.51 133.33 205.46 133.58 206.37 C 133.83 207.29 134.78 207.82 135.69 207.57 L 136.65 207.30 C 137.56 207.05 138.10 206.10 137.84 205.19 C 137.59 204.28 136.64 203.74 135.73 203.99 Z M 134.81 204.26 L 133.85 204.50 C 132.93 204.73 132.38 205.66 132.61 206.58 C 132.85 207.50 133.78 208.05 134.69 207.82 L 135.66 207.57 C 136.57 207.34 137.13 206.41 136.89 205.49 C 136.66 204.58 135.73 204.02 134.81 204.26 Z M 133.88 204.50 L 132.90 204.73 C 131.99 204.94 131.42 205.86 131.63 206.77 C 131.85 207.69 132.76 208.26 133.68 208.05 L 134.66 207.82 C 135.57 207.60 136.14 206.69 135.93 205.77 C 135.72 204.86 134.80 204.29 133.88 204.50 Z M 132.93 204.73 L 131.93 204.94 C 131.02 205.14 130.43 206.04 130.63 206.96 C 130.83 207.88 131.73 208.46 132.65 208.26 L 133.65 208.05 C 134.56 207.85 135.15 206.95 134.95 206.03 C 134.75 205.11 133.85 204.53 132.93 204.73 Z M 131.96 204.94 L 130.96 205.14 C 130.04 205.33 129.45 206.22 129.63 207.13 C 129.81 208.05 130.70 208.64 131.62 208.46 L 132.62 208.26 C 133.54 208.08 134.13 207.19 133.95 206.27 C 133.77 205.36 132.88 204.76 131.96 204.94 Z M 130.99 205.15 L 129.98 205.33 C 129.06 205.50 128.46 206.37 128.62 207.29 C 128.79 208.20 129.67 208.81 130.58 208.64 L 131.59 208.46 C 132.50 208.29 133.11 207.41 132.94 206.50 C 132.78 205.59 131.90 204.98 130.99 205.15 Z M 130.01 205.33 L 129.01 205.50 C 128.09 205.65 127.47 206.51 127.62 207.42 C 127.77 208.33 128.63 208.95 129.55 208.80 L 130.55 208.64 C 131.46 208.49 132.08 207.63 131.93 206.72 C 131.78 205.80 130.92 205.19 130.01 205.33 Z M 129.04 205.50 L 128.06 205.64 C 127.15 205.77 126.52 206.61 126.65 207.52 C 126.78 208.43 127.62 209.07 128.53 208.94 L 129.51 208.80 C 130.42 208.67 131.05 207.83 130.92 206.92 C 130.79 206.01 129.95 205.37 129.04 205.50 Z M 128.10 205.64 L 127.16 205.75 C 126.25 205.86 125.60 206.68 125.71 207.59 C 125.81 208.50 126.63 209.15 127.54 209.04 L 128.49 208.93 C 129.39 208.83 130.05 208.01 129.94 207.10 C 129.83 206.19 129.01 205.54 128.10 205.64 Z M 127.22 205.76 L 126.13 205.85 C 125.23 205.92 124.55 206.71 124.62 207.62 C 124.70 208.53 125.49 209.20 126.40 209.13 L 127.49 209.04 C 128.39 208.97 129.07 208.17 128.99 207.26 C 128.92 206.36 128.12 205.68 127.22 205.76 Z M 126.19 205.85 L 125.16 205.90 C 124.26 205.94 123.56 206.71 123.60 207.61 C 123.64 208.51 124.41 209.21 125.31 209.17 L 126.34 209.12 C 127.24 209.08 127.94 208.32 127.90 207.41 C 127.86 206.51 127.09 205.81 126.19 205.85 Z M 125.21 205.91 L 124.24 205.92 C 123.35 205.94 122.63 206.67 122.64 207.57 C 122.65 208.47 123.39 209.19 124.29 209.17 L 125.26 209.16 C 126.16 209.15 126.87 208.41 126.86 207.51 C 126.85 206.61 126.11 205.90 125.21 205.91 Z M 124.28 205.93 L 123.36 205.93 C 122.46 205.92 121.74 206.64 121.73 207.53 C 121.72 208.42 122.44 209.15 123.33 209.15 L 124.25 209.16 C 125.14 209.17 125.87 208.45 125.88 207.56 C 125.89 206.67 125.17 205.94 124.28 205.93 Z M 123.38 205.94 L 122.36 205.92 C 121.48 205.89 120.74 206.59 120.72 207.48 C 120.70 208.36 121.40 209.10 122.28 209.12 L 123.30 209.14 C 124.19 209.16 124.92 208.46 124.94 207.58 C 124.96 206.69 124.27 205.96 123.38 205.94 Z M 122.42 205.93 L 121.41 205.87 C 120.53 205.82 119.78 206.48 119.73 207.36 C 119.68 208.23 120.34 208.98 121.22 209.04 L 122.23 209.10 C 123.10 209.15 123.85 208.49 123.91 207.61 C 123.96 206.74 123.29 205.99 122.42 205.93 Z M 121.52 205.90 L 120.55 205.77 C 119.69 205.65 118.90 206.26 118.79 207.12 C 118.67 207.98 119.28 208.77 120.14 208.88 L 121.10 209.01 C 121.96 209.13 122.75 208.52 122.87 207.66 C 122.98 206.80 122.38 206.01 121.52 205.90 Z M 120.72 205.82 L 119.78 205.58 C 118.95 205.37 118.10 205.88 117.89 206.71 C 117.69 207.55 118.19 208.39 119.03 208.60 L 119.97 208.83 C 120.80 209.04 121.65 208.54 121.85 207.70 C 122.06 206.87 121.56 206.02 120.72 205.82 Z M 119.97 205.66 L 119.04 205.29 C 118.24 204.98 117.35 205.37 117.04 206.16 C 116.73 206.95 117.11 207.85 117.91 208.16 L 118.84 208.52 C 119.63 208.84 120.53 208.45 120.84 207.65 C 121.15 206.86 120.76 205.97 119.97 205.66 Z M 119.19 205.38 L 118.30 204.91 C 117.56 204.51 116.64 204.80 116.24 205.54 C 115.85 206.28 116.13 207.21 116.87 207.60 L 117.76 208.07 C 118.50 208.47 119.42 208.18 119.82 207.44 C 120.21 206.69 119.93 205.77 119.19 205.38 Z M 118.41 204.99 L 117.58 204.44 C 116.88 203.99 115.94 204.19 115.49 204.89 C 115.03 205.58 115.23 206.52 115.93 206.98 L 116.76 207.52 C 117.46 207.98 118.40 207.78 118.85 207.08 C 119.31 206.38 119.11 205.44 118.41 204.99 Z M 117.66 204.52 L 116.86 203.91 C 116.20 203.40 115.26 203.53 114.76 204.19 C 114.26 204.84 114.38 205.78 115.04 206.29 L 115.84 206.90 C 116.50 207.40 117.44 207.28 117.94 206.62 C 118.45 205.96 118.32 205.02 117.66 204.52 Z M 116.94 203.99 L 116.20 203.32 C 115.59 202.77 114.65 202.82 114.10 203.43 C 113.55 204.04 113.60 204.98 114.21 205.53 L 114.95 206.20 C 115.57 206.75 116.50 206.70 117.05 206.09 C 117.60 205.48 117.55 204.54 116.94 203.99 Z M 116.28 203.42 L 115.61 202.70 C 115.06 202.10 114.12 202.07 113.53 202.63 C 112.93 203.18 112.90 204.12 113.46 204.71 L 114.13 205.43 C 114.68 206.03 115.62 206.06 116.21 205.50 C 116.81 204.95 116.84 204.02 116.28 203.42 Z M 115.69 202.81 L 115.10 202.04 C 114.60 201.40 113.69 201.28 113.05 201.77 C 112.40 202.27 112.29 203.19 112.78 203.83 L 113.37 204.60 C 113.87 205.24 114.79 205.36 115.43 204.86 C 116.07 204.37 116.19 203.45 115.69 202.81 Z M 115.16 202.15 L 114.63 201.32 C 114.20 200.64 113.30 200.44 112.62 200.88 C 111.95 201.31 111.75 202.21 112.18 202.88 L 112.71 203.72 C 113.14 204.39 114.04 204.59 114.72 204.16 C 115.40 203.73 115.60 202.83 115.16 202.15 Z M 114.68 201.42 L 114.20 200.52 C 113.82 199.81 112.94 199.55 112.24 199.93 C 111.53 200.31 111.27 201.18 111.65 201.89 L 112.13 202.79 C 112.51 203.49 113.39 203.75 114.09 203.38 C 114.80 203.00 115.06 202.12 114.68 201.42 Z M 114.23 200.59 L 113.81 199.70 C 113.48 198.98 112.62 198.66 111.90 199.00 C 111.18 199.33 110.86 200.19 111.20 200.91 L 111.62 201.81 C 111.95 202.53 112.81 202.84 113.53 202.51 C 114.25 202.17 114.56 201.32 114.23 200.59 Z M 113.84 199.77 L 113.47 198.84 C 113.17 198.11 112.34 197.75 111.60 198.05 C 110.86 198.34 110.51 199.18 110.80 199.91 L 111.17 200.84 C 111.47 201.57 112.30 201.93 113.04 201.64 C 113.78 201.34 114.13 200.51 113.84 199.77 Z M 113.50 198.93 L 113.18 197.97 C 112.93 197.22 112.12 196.81 111.37 197.06 C 110.61 197.31 110.21 198.12 110.46 198.87 L 110.78 199.83 C 111.02 200.58 111.83 200.99 112.59 200.74 C 113.34 200.49 113.74 199.68 113.50 198.93 Z M 113.20 198.07 L 112.95 197.09 C 112.76 196.32 111.98 195.86 111.22 196.05 C 110.45 196.24 109.99 197.02 110.18 197.79 L 110.43 198.77 C 110.62 199.53 111.40 200.00 112.17 199.80 C 112.93 199.61 113.40 198.83 113.20 198.07 Z M 112.98 197.19 L 112.81 196.22 C 112.67 195.45 111.93 194.93 111.16 195.06 C 110.38 195.19 109.86 195.93 109.99 196.71 L 110.16 197.68 C 110.30 198.46 111.03 198.98 111.81 198.84 C 112.59 198.71 113.11 197.97 112.98 197.19 Z M 112.82 196.31 L 112.71 195.33 C 112.63 194.54 111.92 193.98 111.14 194.06 C 110.36 194.15 109.79 194.85 109.87 195.63 L 109.98 196.62 C 110.07 197.40 110.77 197.97 111.56 197.89 C 112.34 197.80 112.90 197.10 112.82 196.31 Z M 112.72 195.39 L 112.65 194.38 C 112.60 193.60 111.93 193.00 111.14 193.05 C 110.35 193.10 109.76 193.77 109.81 194.56 L 109.87 195.57 C 109.92 196.36 110.60 196.95 111.38 196.90 C 112.17 196.85 112.77 196.18 112.72 195.39 Z M 112.65 194.42 L 112.62 193.42 C 112.59 192.64 111.93 192.02 111.15 192.05 C 110.36 192.08 109.74 192.74 109.77 193.52 L 109.81 194.52 C 109.83 195.31 110.49 195.92 111.28 195.90 C 112.07 195.87 112.68 195.21 112.65 194.42 Z M 112.62 193.45 L 112.60 192.46 C 112.59 191.67 111.94 191.04 111.15 191.06 C 110.36 191.07 109.74 191.72 109.75 192.51 L 109.77 193.50 C 109.78 194.29 110.43 194.91 111.22 194.90 C 112.01 194.88 112.63 194.23 112.62 193.45 Z M 112.60 192.47 L 112.59 191.47 C 112.59 190.68 111.94 190.05 111.16 190.05 C 110.37 190.06 109.74 190.70 109.74 191.49 L 109.75 192.49 C 109.76 193.28 110.40 193.91 111.19 193.91 C 111.97 193.90 112.61 193.26 112.60 192.47 Z M 112.59 191.48 L 112.59 190.46 C 112.59 189.67 111.95 189.04 111.16 189.04 C 110.38 189.04 109.74 189.68 109.74 190.47 L 109.74 191.48 C 109.74 192.27 110.38 192.91 111.17 192.90 C 111.96 192.90 112.60 192.26 112.59 191.48 Z M 112.59 190.46 L 112.59 190.10 C 112.59 189.31 111.95 188.67 111.17 188.67 C 110.38 188.67 109.74 189.31 109.74 190.10 L 109.74 190.46 C 109.74 191.25 110.38 191.89 111.17 191.89 C 111.95 191.89 112.59 191.25 112.59 190.46 Z"
      fill="black"
      fill-rule="nonzero" /><path d="M 141.50 138.31 L 141.08 139.13 C 140.68 139.92 140.99 140.88 141.77 141.28 C 142.56 141.68 143.52 141.36 143.92 140.58 L 144.34 139.76 C 144.74 138.97 144.42 138.01 143.64 137.61 C 142.86 137.21 141.90 137.53 141.50 138.31 Z M 141.03 139.23 L 140.65 140.11 C 140.31 140.92 140.68 141.86 141.49 142.20 C 142.30 142.55 143.23 142.18 143.58 141.37 L 143.96 140.49 C 144.31 139.68 143.93 138.74 143.13 138.39 C 142.32 138.05 141.38 138.42 141.03 139.23 Z M 140.59 140.29 L 140.29 141.29 C 140.04 142.13 140.52 143.02 141.36 143.27 C 142.20 143.52 143.09 143.04 143.34 142.20 L 143.64 141.20 C 143.89 140.35 143.42 139.47 142.57 139.21 C 141.73 138.96 140.84 139.44 140.59 140.29 Z M 140.25 141.48 L 140.09 142.43 C 139.95 143.30 140.53 144.11 141.40 144.26 C 142.26 144.40 143.08 143.82 143.23 142.95 L 143.38 142.01 C 143.53 141.14 142.94 140.32 142.08 140.18 C 141.21 140.03 140.39 140.62 140.25 141.48 Z M 140.08 142.59 L 140.03 143.48 C 139.98 144.36 140.64 145.10 141.51 145.16 C 142.38 145.21 143.13 144.55 143.18 143.67 L 143.24 142.79 C 143.29 141.91 142.63 141.17 141.76 141.11 C 140.88 141.06 140.13 141.72 140.08 142.59 Z M 140.04 143.63 L 140.07 144.60 C 140.10 145.47 140.83 146.14 141.69 146.12 C 142.56 146.09 143.24 145.36 143.21 144.49 L 143.17 143.53 C 143.14 142.66 142.42 141.98 141.55 142.01 C 140.69 142.04 140.01 142.77 140.04 143.63 Z M 140.09 144.75 L 140.23 145.78 C 140.34 146.64 141.12 147.24 141.97 147.13 C 142.83 147.02 143.43 146.23 143.32 145.38 L 143.18 144.35 C 143.07 143.49 142.29 142.89 141.44 143.00 C 140.59 143.11 139.98 143.89 140.09 144.75 Z M 140.27 145.93 L 140.52 147.02 C 140.71 147.85 141.54 148.37 142.37 148.18 C 143.20 147.99 143.72 147.16 143.53 146.33 L 143.28 145.24 C 143.09 144.40 142.26 143.88 141.43 144.07 C 140.59 144.27 140.07 145.10 140.27 145.93 Z M 140.57 147.15 L 140.88 148.12 C 141.14 148.92 142.01 149.36 142.81 149.10 C 143.62 148.84 144.06 147.97 143.80 147.16 L 143.48 146.20 C 143.22 145.39 142.35 144.95 141.55 145.22 C 140.74 145.48 140.30 146.34 140.57 147.15 Z M 140.93 148.21 L 141.28 149.07 C 141.59 149.85 142.48 150.23 143.26 149.91 C 144.03 149.60 144.41 148.71 144.10 147.94 L 143.75 147.07 C 143.44 146.29 142.55 145.91 141.77 146.23 C 140.99 146.54 140.61 147.43 140.93 148.21 Z M 141.32 149.13 L 141.72 150.02 C 142.07 150.77 142.97 151.10 143.72 150.75 C 144.48 150.41 144.81 149.51 144.46 148.76 L 144.06 147.87 C 143.71 147.12 142.81 146.79 142.06 147.14 C 141.30 147.48 140.97 148.38 141.32 149.13 Z M 141.76 150.06 L 142.21 150.95 C 142.59 151.69 143.48 151.99 144.22 151.61 C 144.95 151.24 145.25 150.35 144.88 149.61 L 144.43 148.71 C 144.05 147.98 143.16 147.68 142.42 148.05 C 141.69 148.43 141.39 149.32 141.76 150.06 Z M 142.24 150.98 L 142.73 151.89 C 143.12 152.61 144.02 152.88 144.73 152.49 C 145.45 152.10 145.72 151.21 145.34 150.49 L 144.85 149.58 C 144.46 148.86 143.56 148.59 142.85 148.98 C 142.13 149.37 141.86 150.26 142.24 150.98 Z M 142.76 151.90 L 143.27 152.82 C 143.66 153.52 144.56 153.78 145.26 153.38 C 145.97 152.99 146.22 152.10 145.82 151.39 L 145.31 150.48 C 144.92 149.77 144.02 149.52 143.32 149.91 C 142.61 150.31 142.36 151.20 142.76 151.90 Z M 143.29 152.82 L 143.81 153.74 C 144.21 154.44 145.10 154.68 145.79 154.28 C 146.48 153.88 146.73 153.00 146.33 152.30 L 145.80 151.39 C 145.41 150.69 144.52 150.45 143.83 150.85 C 143.13 151.24 142.89 152.13 143.29 152.82 Z M 143.82 153.74 L 143.92 153.90 C 144.31 154.59 145.19 154.83 145.88 154.44 C 146.57 154.04 146.81 153.16 146.41 152.47 L 146.32 152.31 C 145.92 151.62 145.04 151.38 144.35 151.78 C 143.66 152.17 143.43 153.05 143.82 153.74 Z"
      fill="black"
      fill-rule="nonzero" /></svg>