<svg xmlns="http://www.w3.org/2000/svg" width="300" height="300" viewBox="0 0 300 300">
<path d="M 142.99 117.69 L 142.87 118.73 C 142.77 119.57 143.37 120.32 144.21 120.42 C 145.04 120.52 145.80 119.92 145.89 119.09 L 146.01 118.04 C 146.11 117.21 145.51 116.45 144.68 116.36 C 143.85 116.26 143.09 116.85 142.99 117.69 Z M 142.85 118.74 L 142.74 119.76 C 142.64 120.61 143.25 121.37 144.10 121.47 C 144.94 121.56 145.70 120.95 145.80 120.11 L 145.91 119.08 C 146.01 118.24 145.40 117.47 144.55 117.38 C 143.71 117.28 142.95 117.89 142.85 118.74 Z M 142.72 119.78 L 142.61 120.77 C 142.53 121.63 143.15 122.39 144.01 122.48 C 144.86 122.57 145.63 121.94 145.72 121.09 L 145.82 120.09 C 145.91 119.24 145.28 118.47 144.43 118.38 C 143.57 118.30 142.80 118.92 142.72 119.78 Z M 142.59 120.79 L 142.51 121.73 C 142.43 122.60 143.08 123.37 143.95 123.45 C 144.82 123.52 145.58 122.88 145.66 122.01 L 145.74 121.07 C 145.81 120.20 145.17 119.43 144.30 119.35 C 143.43 119.28 142.67 119.92 142.59 120.79 Z M 142.49 121.77 L 142.43 122.80 C 142.38 123.68 143.04 124.43 143.92 124.49 C 144.80 124.54 145.55 123.87 145.61 123.00 L 145.67 121.97 C 145.73 121.09 145.06 120.34 144.18 120.28 C 143.30 120.23 142.55 120.90 142.49 121.77 Z M 142.43 122.85 L 142.39 123.86 C 142.36 124.74 143.05 125.47 143.93 125.50 C 144.81 125.53 145.55 124.84 145.58 123.96 L 145.61 122.95 C 145.64 122.07 144.95 121.33 144.07 121.30 C 143.19 121.28 142.46 121.97 142.43 122.85 Z M 142.39 123.89 L 142.38 124.86 C 142.37 125.73 143.08 126.46 143.96 126.47 C 144.84 126.48 145.56 125.77 145.57 124.89 L 145.58 123.93 C 145.59 123.05 144.88 122.33 144.00 122.32 C 143.12 122.31 142.40 123.01 142.39 123.89 Z M 142.38 124.87 L 142.38 125.83 C 142.38 126.71 143.09 127.42 143.97 127.42 C 144.85 127.42 145.57 126.71 145.57 125.83 L 145.57 124.87 C 145.57 124.00 144.86 123.28 143.98 123.28 C 143.10 123.28 142.39 123.99 142.38 124.87 Z M 142.38 125.83 L 142.38 126.80 C 142.38 127.67 143.10 128.39 143.97 128.39 C 144.85 128.39 145.56 127.67 145.56 126.80 L 145.56 125.83 C 145.56 124.95 144.85 124.24 143.97 124.24 C 143.10 124.24 142.38 124.95 142.38 125.83 Z M 142.39 126.80 L 142.39 127.79 C 142.39 128.67 143.10 129.38 143.97 129.38 C 144.85 129.38 145.56 128.67 145.56 127.79 L 145.56 126.80 C 145.56 125.92 144.85 125.21 143.97 125.21 C 143.10 125.21 142.39 125.92 142.39 126.80 Z M 142.39 127.79 L 142.39 128.83 C 142.39 129.70 143.10 130.41 143.97 130.41 C 144.85 130.41 145.56 129.70 145.56 128.83 L 145.56 127.79 C 145.56 126.92 144.85 126.21 143.97 126.21 C 143.10 126.21 142.39 126.92 142.39 127.79 Z M 142.39 128.83 L 142.39 129.81 C 142.39 130.68 143.10 131.39 143.97 131.39 C 144.85 131.39 145.56 130.68 145.56 129.81 L 145.56 128.83 C 145.56 127.95 144.85 127.24 143.97 127.24 C 143.10 127.24 142.39 127.95 142.39 128.83 Z M 142.39 129.81 L 142.39 130.79 C 142.39 131.67 143.10 132.38 143.97 132.38 C 144.85 132.38 145.56 131.67 145.56 130.79 L 145.56 129.81 C 145.56 128.93 144.85 128.22 143.97 128.22 C 143.10 128.22 142.39 128.93 142.39 129.81 Z M 142.39 130.79 L 142.39 131.80 C 142.39 132.68 143.10 133.38 143.97 133.38 C 144.85 133.38 145.56 132.68 145.56 131.80 L 145.56 130.79 C 145.56 129.92 144.85 129.21 143.97 129.21 C 143.10 129.21 142.39 129.92 142.39 130.79 Z M 142.39 131.80 L 142.39 132.83 C 142.39 133.71 143.10 134.42 143.97 134.42 C 144.85 134.42 145.56 133.71 145.56 132.83 L 145.56 131.80 C 145.56 130.93 144.85 130.22 143.97 130.22 C 143.10 130.22 142.39 130.93 142.39 131.80 Z M 142.39 132.83 L 142.39 133.81 C 142.39 134.69 143.10 135.40 143.97 135.40 C 144.85 135.40 145.56 134.69 145.56 133.82 L 145.56 132.83 C 145.56 131.96 144.85 131.25 143.98 131.25 C 143.10 131.25 142.39 131.96 142.39 132.83 Z M 142.40 133.81 L 142.39 134.79 C 142.39 135.67 143.09 136.38 143.97 136.38 C 144.84 136.38 145.55 135.68 145.55 134.81 L 145.55 133.82 C 145.56 132.95 144.85 132.24 143.98 132.24 C 143.11 132.23 142.40 132.94 142.40 133.81 Z M 142.39 134.78 L 142.38 135.79 C 142.38 136.66 143.08 137.37 143.95 137.38 C 144.82 137.39 145.53 136.69 145.54 135.82 L 145.55 134.82 C 145.56 133.94 144.86 133.23 143.99 133.22 C 143.11 133.21 142.40 133.91 142.39 134.78 Z M 142.39 135.77 L 142.37 136.80 C 142.35 137.67 143.04 138.39 143.91 138.40 C 144.78 138.42 145.50 137.73 145.52 136.85 L 145.54 135.83 C 145.55 134.96 144.86 134.24 143.99 134.23 C 143.12 134.21 142.40 134.90 142.39 135.77 Z M 142.37 136.78 L 142.34 137.77 C 142.31 138.63 142.99 139.36 143.86 139.39 C 144.73 139.42 145.46 138.73 145.49 137.86 L 145.52 136.87 C 145.54 136.00 144.86 135.28 143.99 135.25 C 143.12 135.22 142.39 135.91 142.37 136.78 Z M 142.34 137.74 L 142.30 138.71 C 142.26 139.58 142.93 140.32 143.80 140.36 C 144.67 140.40 145.40 139.72 145.44 138.85 L 145.48 137.88 C 145.52 137.02 144.85 136.28 143.98 136.24 C 143.11 136.20 142.38 136.87 142.34 137.74 Z M 142.30 138.69 L 142.24 139.68 C 142.19 140.55 142.85 141.29 143.71 141.35 C 144.58 141.40 145.33 140.74 145.38 139.87 L 145.44 138.88 C 145.49 138.01 144.83 137.27 143.96 137.21 C 143.10 137.16 142.35 137.82 142.30 138.69 Z M 142.24 139.65 L 142.16 140.67 C 142.10 141.53 142.74 142.29 143.61 142.36 C 144.47 142.42 145.23 141.78 145.30 140.91 L 145.38 139.90 C 145.44 139.03 144.80 138.28 143.93 138.21 C 143.06 138.14 142.31 138.79 142.24 139.65 Z M 142.17 140.64 L 142.07 141.67 C 141.98 142.54 142.62 143.31 143.48 143.39 C 144.34 143.47 145.11 142.84 145.19 141.98 L 145.29 140.94 C 145.38 140.08 144.74 139.31 143.88 139.23 C 143.02 139.14 142.25 139.77 142.17 140.64 Z M 142.07 141.64 L 141.96 142.60 C 141.86 143.46 142.48 144.24 143.34 144.34 C 144.20 144.44 144.98 143.82 145.08 142.96 L 145.19 142.01 C 145.29 141.14 144.67 140.37 143.81 140.27 C 142.95 140.17 142.17 140.78 142.07 141.64 Z M 141.96 142.58 L 141.84 143.54 C 141.72 144.40 142.33 145.19 143.19 145.30 C 144.05 145.41 144.83 144.81 144.95 143.95 L 145.07 142.98 C 145.19 142.13 144.58 141.34 143.72 141.22 C 142.87 141.11 142.08 141.72 141.96 142.58 Z M 141.84 143.52 L 141.70 144.51 C 141.57 145.36 142.17 146.16 143.02 146.28 C 143.88 146.41 144.68 145.81 144.80 144.96 L 144.94 143.97 C 145.07 143.12 144.47 142.32 143.62 142.20 C 142.76 142.07 141.97 142.66 141.84 143.52 Z M 141.70 144.49 L 141.54 145.50 C 141.41 146.35 142.00 147.15 142.85 147.29 C 143.70 147.42 144.51 146.83 144.64 145.98 L 144.80 144.97 C 144.93 144.12 144.35 143.32 143.49 143.18 C 142.64 143.05 141.84 143.64 141.70 144.49 Z M 141.55 145.48 L 141.38 146.51 C 141.24 147.36 141.81 148.17 142.67 148.31 C 143.52 148.45 144.33 147.87 144.47 147.02 L 144.64 145.99 C 144.78 145.14 144.20 144.33 143.35 144.19 C 142.49 144.05 141.69 144.63 141.55 145.48 Z M 141.38 146.50 L 141.21 147.49 C 141.06 148.34 141.64 149.15 142.49 149.30 C 143.34 149.44 144.15 148.87 144.29 148.02 L 144.46 147.03 C 144.61 146.18 144.04 145.37 143.19 145.22 C 142.34 145.08 141.53 145.65 141.38 146.50 Z M 141.21 147.48 L 141.04 148.47 C 140.89 149.32 141.45 150.13 142.30 150.28 C 143.15 150.43 143.96 149.87 144.11 149.02 L 144.29 148.03 C 144.44 147.18 143.87 146.37 143.02 146.22 C 142.18 146.07 141.36 146.63 141.21 147.48 Z M 141.04 148.46 L 140.86 149.46 C 140.71 150.30 141.27 151.12 142.12 151.27 C 142.96 151.43 143.78 150.86 143.93 150.02 L 144.11 149.02 C 144.27 148.18 143.70 147.36 142.86 147.21 C 142.01 147.05 141.20 147.62 141.04 148.46 Z M 140.86 149.45 L 140.68 150.44 C 140.52 151.29 141.08 152.10 141.92 152.26 C 142.77 152.42 143.58 151.86 143.74 151.01 L 143.93 150.02 C 144.09 149.18 143.53 148.36 142.68 148.20 C 141.84 148.05 141.02 148.60 140.86 149.45 Z M 140.68 150.43 L 140.49 151.42 C 140.33 152.26 140.89 153.08 141.73 153.24 C 142.57 153.40 143.39 152.85 143.55 152.00 L 143.74 151.02 C 143.90 150.17 143.35 149.36 142.50 149.20 C 141.66 149.04 140.84 149.59 140.68 150.43 Z M 140.50 151.41 L 140.31 152.38 C 140.14 153.23 140.69 154.04 141.53 154.21 C 142.38 154.37 143.19 153.83 143.36 152.98 L 143.55 152.01 C 143.71 151.16 143.16 150.35 142.32 150.18 C 141.48 150.02 140.66 150.57 140.50 151.41 Z M 140.31 152.38 L 140.11 153.39 C 139.94 154.23 140.48 155.05 141.32 155.21 C 142.17 155.38 142.98 154.84 143.15 154.00 L 143.35 152.99 C 143.52 152.15 142.98 151.33 142.14 151.16 C 141.30 150.99 140.48 151.54 140.31 152.38 Z M 140.11 153.38 L 139.91 154.37 C 139.74 155.21 140.28 156.03 141.12 156.20 C 141.96 156.37 142.78 155.83 142.95 154.99 L 143.15 154.00 C 143.32 153.16 142.78 152.34 141.94 152.17 C 141.10 152.00 140.28 152.54 140.11 153.38 Z M 139.91 154.36 L 139.71 155.34 C 139.54 156.18 140.07 157.00 140.91 157.17 C 141.75 157.34 142.57 156.80 142.74 155.97 L 142.94 154.99 C 143.12 154.16 142.58 153.34 141.74 153.16 C 140.90 152.99 140.09 153.53 139.91 154.36 Z M 139.71 155.34 L 139.51 156.30 C 139.34 157.14 139.87 157.96 140.71 158.13 C 141.54 158.31 142.36 157.77 142.54 156.93 L 142.74 155.97 C 142.91 155.13 142.38 154.31 141.54 154.14 C 140.71 153.97 139.89 154.50 139.71 155.34 Z M 139.51 156.30 L 139.31 157.26 C 139.14 158.09 139.67 158.91 140.51 159.09 C 141.34 159.26 142.16 158.73 142.33 157.89 L 142.53 156.94 C 142.71 156.10 142.18 155.28 141.34 155.11 C 140.51 154.93 139.69 155.47 139.51 156.30 Z M 139.32 157.26 L 139.11 158.24 C 138.93 159.07 139.47 159.89 140.30 160.07 C 141.13 160.24 141.95 159.71 142.12 158.88 L 142.33 157.89 C 142.51 157.06 141.97 156.25 141.14 156.07 C 140.31 155.89 139.49 156.43 139.32 157.26 Z M 139.11 158.24 L 138.90 159.22 C 138.73 160.06 139.26 160.87 140.09 161.05 C 140.92 161.22 141.74 160.69 141.91 159.86 L 142.12 158.88 C 142.30 158.05 141.77 157.23 140.93 157.06 C 140.10 156.88 139.29 157.41 139.11 158.24 Z M 138.91 159.22 L 138.70 160.20 C 138.52 161.03 139.05 161.85 139.87 162.02 C 140.70 162.20 141.52 161.67 141.70 160.85 L 141.91 159.87 C 142.09 159.04 141.56 158.22 140.73 158.04 C 139.90 157.87 139.08 158.39 138.91 159.22 Z M 138.70 160.20 L 138.49 161.17 C 138.31 162.00 138.83 162.81 139.66 162.99 C 140.48 163.18 141.30 162.65 141.48 161.83 L 141.69 160.85 C 141.87 160.03 141.35 159.21 140.52 159.03 C 139.70 158.85 138.88 159.37 138.70 160.20 Z M 138.49 161.16 L 138.27 162.13 C 138.09 162.95 138.61 163.77 139.43 163.96 C 140.25 164.14 141.07 163.62 141.26 162.80 L 141.47 161.83 C 141.66 161.01 141.14 160.19 140.32 160.01 C 139.49 159.82 138.68 160.34 138.49 161.16 Z M 138.28 162.12 L 138.05 163.11 C 137.86 163.93 138.37 164.75 139.19 164.94 C 140.01 165.13 140.83 164.62 141.02 163.80 L 141.25 162.81 C 141.44 161.99 140.93 161.17 140.11 160.98 C 139.29 160.79 138.47 161.30 138.28 162.12 Z M 138.06 163.10 L 137.82 164.09 C 137.63 164.91 138.13 165.73 138.95 165.92 C 139.77 166.12 140.59 165.61 140.78 164.80 L 141.02 163.81 C 141.21 162.99 140.71 162.17 139.89 161.98 C 139.07 161.78 138.25 162.29 138.06 163.10 Z M 137.83 164.09 L 137.59 165.06 C 137.39 165.88 137.89 166.70 138.70 166.89 C 139.52 167.09 140.34 166.59 140.54 165.78 L 140.78 164.80 C 140.97 163.99 140.47 163.17 139.66 162.97 C 138.84 162.77 138.02 163.27 137.83 164.09 Z M 137.59 165.06 L 137.36 166.02 C 137.16 166.83 137.65 167.65 138.47 167.85 C 139.28 168.05 140.10 167.55 140.30 166.74 L 140.53 165.78 C 140.73 164.97 140.24 164.15 139.43 163.95 C 138.61 163.75 137.79 164.25 137.59 165.06 Z M 137.36 166.02 L 137.13 166.96 C 136.93 167.77 137.42 168.59 138.23 168.79 C 139.04 168.99 139.86 168.50 140.06 167.69 L 140.29 166.74 C 140.49 165.93 140.00 165.11 139.19 164.91 C 138.38 164.71 137.56 165.21 137.36 166.02 Z M 137.13 166.97 L 136.88 167.97 C 136.69 168.78 137.18 169.59 137.99 169.79 C 138.80 169.99 139.61 169.49 139.81 168.69 L 140.06 167.69 C 140.26 166.88 139.76 166.06 138.95 165.86 C 138.14 165.66 137.33 166.16 137.13 166.97 Z M 136.89 167.97 L 136.65 168.96 C 136.45 169.76 136.94 170.58 137.75 170.78 C 138.56 170.97 139.37 170.48 139.57 169.67 L 139.81 168.68 C 140.01 167.88 139.51 167.06 138.70 166.87 C 137.90 166.67 137.08 167.16 136.89 167.97 Z M 136.65 168.96 L 136.41 169.93 C 136.22 170.74 136.71 171.55 137.52 171.74 C 138.32 171.94 139.13 171.44 139.33 170.64 L 139.56 169.67 C 139.76 168.86 139.26 168.05 138.46 167.86 C 137.65 167.66 136.84 168.16 136.65 168.96 Z M 136.42 169.93 L 136.19 170.88 C 136.00 171.69 136.49 172.49 137.29 172.69 C 138.10 172.88 138.91 172.38 139.10 171.58 L 139.33 170.63 C 139.52 169.83 139.02 169.02 138.22 168.83 C 137.42 168.64 136.61 169.13 136.42 169.93 Z M 136.19 170.89 L 135.97 171.81 C 135.78 172.61 136.28 173.42 137.08 173.61 C 137.88 173.80 138.68 173.30 138.87 172.50 L 139.10 171.58 C 139.29 170.78 138.79 169.97 137.99 169.78 C 137.19 169.59 136.38 170.08 136.19 170.89 Z M 135.98 171.81 L 135.76 172.73 C 135.57 173.53 136.06 174.33 136.86 174.52 C 137.66 174.71 138.46 174.21 138.65 173.42 L 138.87 172.50 C 139.06 171.70 138.57 170.90 137.77 170.71 C 136.97 170.52 136.17 171.01 135.98 171.81 Z M 135.76 172.72 L 135.54 173.66 C 135.35 174.45 135.84 175.26 136.63 175.45 C 137.43 175.64 138.23 175.15 138.42 174.35 L 138.65 173.42 C 138.84 172.62 138.35 171.82 137.55 171.63 C 136.76 171.44 135.96 171.93 135.76 172.72 Z M 135.54 173.65 L 135.30 174.63 C 135.11 175.43 135.59 176.23 136.38 176.43 C 137.18 176.62 137.98 176.14 138.18 175.34 L 138.42 174.36 C 138.62 173.57 138.13 172.76 137.34 172.57 C 136.54 172.37 135.74 172.86 135.54 173.65 Z M 135.31 174.62 L 135.04 175.68 C 134.84 176.48 135.31 177.28 136.11 177.48 C 136.90 177.68 137.70 177.20 137.90 176.41 L 138.17 175.35 C 138.37 174.56 137.89 173.76 137.10 173.56 C 136.31 173.36 135.51 173.83 135.31 174.62 Z M 135.04 175.68 L 134.79 176.63 C 134.59 177.42 135.06 178.22 135.85 178.43 C 136.63 178.64 137.44 178.16 137.65 177.38 L 137.90 176.42 C 138.10 175.63 137.63 174.83 136.84 174.62 C 136.06 174.42 135.25 174.89 135.04 175.68 Z M 134.80 176.62 L 134.54 177.60 C 134.33 178.39 134.80 179.19 135.58 179.40 C 136.37 179.61 137.17 179.14 137.38 178.36 L 137.64 177.38 C 137.85 176.60 137.38 175.79 136.60 175.58 C 135.81 175.37 135.01 175.84 134.80 176.62 Z M 134.54 177.60 L 134.27 178.60 C 134.06 179.38 134.53 180.19 135.31 180.40 C 136.10 180.61 136.90 180.14 137.11 179.36 L 137.38 178.36 C 137.59 177.58 137.12 176.77 136.34 176.56 C 135.56 176.35 134.75 176.82 134.54 177.60 Z M 134.28 178.60 L 134.01 179.60 C 133.80 180.38 134.27 181.18 135.05 181.39 C 135.84 181.60 136.64 181.13 136.85 180.35 L 137.11 179.35 C 137.32 178.57 136.85 177.77 136.07 177.56 C 135.29 177.35 134.48 177.82 134.28 178.60 Z M 134.01 179.60 L 133.76 180.57 C 133.56 181.35 134.03 182.15 134.81 182.35 C 135.59 182.56 136.39 182.09 136.59 181.31 L 136.84 180.34 C 137.05 179.56 136.58 178.76 135.80 178.56 C 135.02 178.35 134.22 178.82 134.01 179.60 Z M 133.76 180.58 L 133.52 181.56 C 133.32 182.34 133.79 183.13 134.57 183.33 C 135.36 183.53 136.15 183.05 136.35 182.27 L 136.59 181.30 C 136.79 180.51 136.32 179.72 135.53 179.52 C 134.75 179.33 133.96 179.80 133.76 180.58 Z M 133.52 181.57 L 133.26 182.65 C 133.07 183.43 133.55 184.22 134.34 184.40 C 135.12 184.59 135.90 184.11 136.09 183.32 L 136.35 182.25 C 136.53 181.47 136.05 180.68 135.27 180.50 C 134.49 180.31 133.70 180.79 133.52 181.57 Z M 133.26 182.67 L 133.04 183.65 C 132.86 184.43 133.35 185.21 134.13 185.38 C 134.92 185.56 135.69 185.07 135.87 184.29 L 136.09 183.30 C 136.27 182.52 135.77 181.75 134.99 181.57 C 134.21 181.40 133.44 181.89 133.26 182.67 Z M 133.04 183.67 L 132.84 184.59 C 132.68 185.37 133.17 186.14 133.95 186.30 C 134.73 186.47 135.50 185.98 135.67 185.19 L 135.87 184.27 C 136.03 183.49 135.54 182.72 134.76 182.56 C 133.98 182.39 133.21 182.89 133.04 183.67 Z M 132.85 184.60 L 132.66 185.49 C 132.50 186.27 133.00 187.03 133.78 187.19 C 134.55 187.35 135.32 186.85 135.48 186.08 L 135.66 185.19 C 135.83 184.41 135.33 183.64 134.55 183.48 C 133.77 183.32 133.01 183.82 132.85 184.60 Z M 132.66 185.49 L 132.65 185.57 C 132.49 186.35 132.99 187.11 133.76 187.27 C 134.54 187.43 135.30 186.93 135.46 186.15 L 135.48 186.07 C 135.64 185.30 135.14 184.54 134.36 184.38 C 133.58 184.22 132.82 184.71 132.66 185.49 Z"
      fill="black"
      fill-rule="nonzero" /><path d="M 164.45 126.70 L 163.51 127.05 C 162.69 127.36 162.27 128.28 162.58 129.10 C 162.89 129.92 163.81 130.34 164.63 130.03 L 165.57 129.67 C 166.39 129.36 166.81 128.45 166.50 127.62 C 166.19 126.80 165.27 126.39 164.45 126.70 Z M 163.45 127.06 L 162.53 127.45 C 161.72 127.79 161.33 128.72 161.67 129.54 C 162.01 130.35 162.94 130.74 163.76 130.40 L 164.68 130.01 C 165.49 129.68 165.88 128.74 165.54 127.93 C 165.20 127.11 164.27 126.73 163.45 127.06 Z M 162.43 127.49 L 161.54 127.93 C 160.75 128.33 160.42 129.29 160.82 130.08 C 161.21 130.87 162.17 131.20 162.97 130.80 L 163.86 130.36 C 164.65 129.96 164.97 129.00 164.58 128.21 C 164.18 127.42 163.22 127.09 162.43 127.49 Z M 161.39 128.00 L 160.59 128.51 C 159.83 128.99 159.61 129.98 160.08 130.73 C 160.55 131.49 161.55 131.71 162.30 131.24 L 163.11 130.73 C 163.86 130.25 164.09 129.26 163.61 128.51 C 163.14 127.76 162.15 127.53 161.39 128.00 Z M 160.44 128.61 L 159.78 129.14 C 159.08 129.69 158.96 130.71 159.52 131.40 C 160.07 132.10 161.08 132.22 161.78 131.66 L 162.44 131.14 C 163.14 130.59 163.26 129.57 162.71 128.87 C 162.15 128.18 161.14 128.06 160.44 128.61 Z M 159.68 129.23 L 159.01 129.85 C 158.36 130.46 158.33 131.48 158.94 132.13 C 159.55 132.78 160.57 132.81 161.22 132.20 L 161.88 131.58 C 162.53 130.97 162.57 129.95 161.96 129.30 C 161.35 128.65 160.33 128.62 159.68 129.23 Z M 158.95 129.91 L 158.25 130.65 C 157.63 131.29 157.66 132.31 158.30 132.93 C 158.94 133.54 159.96 133.52 160.58 132.87 L 161.28 132.14 C 161.90 131.49 161.87 130.47 161.23 129.86 C 160.59 129.24 159.57 129.27 158.95 129.91 Z M 158.22 130.68 L 157.43 131.55 C 156.84 132.21 156.89 133.23 157.55 133.83 C 158.22 134.42 159.24 134.37 159.83 133.71 L 160.61 132.84 C 161.21 132.18 161.15 131.16 160.49 130.56 C 159.83 129.97 158.81 130.02 158.22 130.68 Z M 157.42 131.56 L 156.75 132.33 C 156.16 132.99 156.22 134.01 156.89 134.60 C 157.56 135.19 158.58 135.13 159.17 134.46 L 159.84 133.69 C 160.43 133.03 160.37 132.01 159.70 131.42 C 159.03 130.83 158.01 130.89 157.42 131.56 Z M 156.75 132.33 L 156.12 133.04 C 155.53 133.71 155.60 134.73 156.27 135.32 C 156.94 135.90 157.95 135.84 158.54 135.17 L 159.17 134.46 C 159.76 133.79 159.69 132.77 159.02 132.18 C 158.35 131.59 157.33 131.66 156.75 132.33 Z M 156.12 133.04 L 155.46 133.79 C 154.87 134.46 154.94 135.48 155.61 136.07 C 156.28 136.66 157.29 136.59 157.88 135.92 L 158.54 135.17 C 159.13 134.50 159.06 133.48 158.40 132.89 C 157.73 132.31 156.71 132.37 156.12 133.04 Z M 155.46 133.79 L 154.78 134.57 C 154.19 135.24 154.25 136.26 154.92 136.84 C 155.59 137.43 156.61 137.37 157.20 136.70 L 157.88 135.92 C 158.47 135.25 158.40 134.24 157.74 133.65 C 157.07 133.06 156.05 133.12 155.46 133.79 Z M 154.78 134.56 L 154.09 135.35 C 153.50 136.02 153.56 137.04 154.23 137.63 C 154.89 138.22 155.91 138.15 156.50 137.49 L 157.20 136.70 C 157.79 136.03 157.72 135.01 157.06 134.42 C 156.39 133.83 155.37 133.90 154.78 134.56 Z M 154.09 135.34 L 153.40 136.12 C 152.81 136.79 152.87 137.81 153.53 138.40 C 154.20 138.99 155.22 138.93 155.81 138.27 L 156.50 137.49 C 157.09 136.82 157.03 135.80 156.37 135.21 C 155.70 134.62 154.68 134.68 154.09 135.34 Z M 153.40 136.11 L 152.73 136.87 C 152.13 137.53 152.19 138.55 152.85 139.14 C 153.51 139.74 154.53 139.69 155.13 139.02 L 155.81 138.27 C 156.40 137.61 156.35 136.59 155.68 135.99 C 155.02 135.40 154.00 135.45 153.40 136.11 Z M 152.74 136.86 L 152.01 137.66 C 151.40 138.32 151.45 139.34 152.11 139.94 C 152.77 140.54 153.79 140.49 154.39 139.83 L 155.12 139.03 C 155.72 138.37 155.68 137.35 155.02 136.75 C 154.36 136.15 153.34 136.20 152.74 136.86 Z M 152.01 137.65 L 151.29 138.43 C 150.68 139.09 150.72 140.11 151.37 140.71 C 152.03 141.32 153.05 141.28 153.66 140.63 L 154.38 139.84 C 154.99 139.19 154.95 138.17 154.30 137.56 C 153.64 136.95 152.62 136.99 152.01 137.65 Z M 151.30 138.42 L 150.60 139.16 C 149.99 139.81 150.02 140.83 150.66 141.44 C 151.31 142.06 152.34 142.03 152.95 141.38 L 153.65 140.64 C 154.26 139.99 154.23 138.97 153.58 138.35 C 152.93 137.74 151.91 137.77 151.30 138.42 Z M 150.61 139.15 L 149.93 139.85 C 149.31 140.49 149.34 141.52 149.98 142.14 C 150.62 142.76 151.65 142.73 152.27 142.09 L 152.94 141.39 C 153.56 140.74 153.54 139.72 152.89 139.10 C 152.25 138.48 151.23 138.50 150.61 139.15 Z M 149.94 139.84 L 149.28 140.51 C 148.66 141.15 148.67 142.18 149.31 142.80 C 149.95 143.43 150.97 143.42 151.60 142.78 L 152.26 142.10 C 152.88 141.46 152.87 140.44 152.23 139.81 C 151.59 139.19 150.57 139.20 149.94 139.84 Z M 149.29 140.51 L 148.64 141.16 C 148.01 141.80 148.01 142.82 148.65 143.45 C 149.28 144.08 150.31 144.08 150.94 143.44 L 151.59 142.79 C 152.22 142.15 152.21 141.13 151.58 140.50 C 150.94 139.87 149.92 139.87 149.29 140.51 Z M 148.65 141.15 L 147.94 141.86 C 147.30 142.49 147.30 143.52 147.93 144.15 C 148.56 144.79 149.59 144.79 150.22 144.16 L 150.93 143.45 C 151.57 142.82 151.57 141.79 150.94 141.16 C 150.31 140.53 149.28 140.52 148.65 141.15 Z M 147.94 141.85 L 147.22 142.56 C 146.58 143.19 146.57 144.21 147.20 144.85 C 147.83 145.49 148.85 145.50 149.49 144.88 L 150.22 144.17 C 150.85 143.54 150.86 142.51 150.24 141.87 C 149.61 141.23 148.58 141.22 147.94 141.85 Z M 147.23 142.55 L 146.51 143.25 C 145.86 143.87 145.84 144.90 146.46 145.54 C 147.09 146.19 148.11 146.21 148.76 145.58 L 149.48 144.89 C 150.13 144.26 150.15 143.24 149.53 142.59 C 148.90 141.95 147.88 141.93 147.23 142.55 Z M 146.52 143.23 L 145.79 143.92 C 145.14 144.53 145.11 145.56 145.73 146.21 C 146.34 146.86 147.37 146.89 148.02 146.28 L 148.75 145.60 C 149.40 144.98 149.43 143.95 148.81 143.30 C 148.20 142.65 147.17 142.62 146.52 143.23 Z M 145.81 143.90 L 145.08 144.57 C 144.42 145.18 144.38 146.20 144.99 146.87 C 145.60 147.53 146.63 147.57 147.29 146.96 L 148.01 146.29 C 148.67 145.68 148.71 144.66 148.11 144.00 C 147.50 143.33 146.47 143.29 145.81 143.90 Z M 145.10 144.55 L 144.34 145.24 C 143.67 145.84 143.61 146.86 144.21 147.53 C 144.81 148.20 145.84 148.26 146.51 147.66 L 147.27 146.98 C 147.94 146.38 148.00 145.35 147.40 144.68 C 146.80 144.01 145.77 143.95 145.10 144.55 Z M 144.35 145.22 L 143.55 145.91 C 142.87 146.50 142.80 147.53 143.39 148.21 C 143.98 148.89 145.01 148.96 145.69 148.37 L 146.49 147.68 C 147.17 147.09 147.24 146.06 146.65 145.38 C 146.06 144.70 145.03 144.63 144.35 145.22 Z M 143.57 145.89 L 142.79 146.55 C 142.09 147.12 142.00 148.15 142.58 148.85 C 143.16 149.54 144.19 149.63 144.88 149.05 L 145.67 148.40 C 146.36 147.82 146.45 146.79 145.87 146.10 C 145.30 145.40 144.27 145.31 143.57 145.89 Z M 142.81 146.52 L 142.05 147.14 C 141.34 147.70 141.23 148.73 141.79 149.43 C 142.35 150.14 143.38 150.25 144.09 149.69 L 144.86 149.08 C 145.56 148.51 145.68 147.48 145.11 146.78 C 144.55 146.07 143.52 145.96 142.81 146.52 Z M 142.08 147.11 L 141.34 147.67 C 140.62 148.22 140.48 149.24 141.03 149.96 C 141.57 150.68 142.60 150.82 143.32 150.28 L 144.06 149.72 C 144.78 149.17 144.92 148.14 144.37 147.42 C 143.82 146.70 142.80 146.56 142.08 147.11 Z M 141.38 147.63 L 140.52 148.24 C 139.78 148.77 139.60 149.79 140.13 150.53 C 140.65 151.27 141.68 151.45 142.42 150.92 L 143.28 150.31 C 144.02 149.79 144.19 148.76 143.67 148.02 C 143.15 147.28 142.12 147.11 141.38 147.63 Z M 140.58 148.20 L 139.71 148.75 C 138.95 149.24 138.73 150.26 139.22 151.03 C 139.71 151.79 140.72 152.01 141.49 151.52 L 142.36 150.97 C 143.12 150.48 143.34 149.46 142.85 148.70 C 142.36 147.93 141.35 147.71 140.58 148.20 Z M 139.78 148.71 L 138.95 149.18 C 138.16 149.63 137.89 150.64 138.34 151.43 C 138.79 152.22 139.79 152.49 140.59 152.04 L 141.42 151.57 C 142.21 151.12 142.48 150.11 142.03 149.32 C 141.58 148.53 140.58 148.26 139.78 148.71 Z M 139.03 149.13 L 138.13 149.58 C 137.32 149.99 136.98 150.98 137.39 151.79 C 137.80 152.61 138.79 152.94 139.60 152.54 L 140.50 152.09 C 141.32 151.69 141.65 150.69 141.25 149.88 C 140.84 149.06 139.85 148.73 139.03 149.13 Z M 138.21 149.54 L 137.01 150.06 C 136.17 150.42 135.78 151.40 136.14 152.24 C 136.51 153.08 137.49 153.47 138.33 153.10 L 139.53 152.58 C 140.37 152.22 140.76 151.24 140.39 150.40 C 140.03 149.56 139.05 149.17 138.21 149.54 Z M 136.95 150.07 L 136.54 150.27 C 135.71 150.66 135.35 151.66 135.75 152.49 C 136.14 153.33 137.14 153.68 137.97 153.28 L 138.38 153.09 C 139.22 152.69 139.57 151.70 139.17 150.86 C 138.78 150.03 137.78 149.68 136.95 150.07 Z M 137.61 153.41 L 138.20 153.29 C 139.10 153.09 139.68 152.20 139.48 151.29 C 139.28 150.39 138.39 149.81 137.48 150.01 L 136.90 150.14 C 135.99 150.34 135.42 151.23 135.62 152.13 C 135.82 153.04 136.71 153.61 137.61 153.41 Z M 138.13 153.31 L 139.31 153.10 C 140.22 152.94 140.84 152.07 140.68 151.16 C 140.52 150.24 139.65 149.63 138.73 149.79 L 137.55 149.99 C 136.64 150.15 136.02 151.02 136.18 151.94 C 136.34 152.85 137.21 153.47 138.13 153.31 Z M 139.11 153.13 L 140.33 153.06 C 141.26 153.01 141.98 152.21 141.93 151.28 C 141.87 150.35 141.08 149.64 140.15 149.69 L 138.93 149.76 C 138.00 149.81 137.28 150.61 137.34 151.54 C 137.39 152.47 138.18 153.18 139.11 153.13 Z M 140.12 153.06 L 141.10 153.14 C 142.04 153.20 142.85 152.51 142.92 151.57 C 142.98 150.64 142.28 149.83 141.35 149.76 L 140.37 149.69 C 139.43 149.62 138.62 150.32 138.55 151.25 C 138.49 152.18 139.18 152.99 140.12 153.06 Z M 140.94 153.12 L 141.93 153.29 C 142.86 153.45 143.73 152.83 143.89 151.90 C 144.05 150.98 143.43 150.11 142.51 149.95 L 141.51 149.78 C 140.59 149.62 139.72 150.24 139.56 151.16 C 139.40 152.09 140.02 152.96 140.94 153.12 Z M 141.80 153.27 L 142.78 153.51 C 143.69 153.74 144.62 153.19 144.85 152.28 C 145.08 151.38 144.53 150.45 143.62 150.22 L 142.64 149.97 C 141.73 149.74 140.80 150.29 140.57 151.20 C 140.34 152.11 140.89 153.03 141.80 153.27 Z M 142.67 153.49 L 143.59 153.78 C 144.49 154.07 145.45 153.58 145.74 152.69 C 146.03 151.80 145.54 150.84 144.64 150.55 L 143.72 150.25 C 142.83 149.96 141.87 150.45 141.58 151.34 C 141.29 152.24 141.78 153.20 142.67 153.49 Z M 143.50 153.75 L 144.37 154.09 C 145.25 154.44 146.23 154.00 146.58 153.13 C 146.92 152.25 146.49 151.26 145.61 150.92 L 144.74 150.58 C 143.86 150.23 142.87 150.67 142.53 151.54 C 142.19 152.42 142.62 153.41 143.50 153.75 Z M 144.28 154.06 L 145.16 154.46 C 146.02 154.86 147.03 154.48 147.43 153.63 C 147.82 152.77 147.45 151.76 146.59 151.37 L 145.70 150.96 C 144.85 150.56 143.84 150.94 143.44 151.79 C 143.05 152.65 143.42 153.66 144.28 154.06 Z M 145.08 154.43 L 146.01 154.91 C 146.84 155.35 147.88 155.03 148.32 154.20 C 148.75 153.36 148.43 152.33 147.60 151.89 L 146.67 151.40 C 145.84 150.96 144.80 151.29 144.37 152.12 C 143.93 152.96 144.25 153.99 145.08 154.43 Z M 145.95 154.88 L 146.84 155.40 C 147.66 155.87 148.71 155.60 149.18 154.78 C 149.65 153.96 149.37 152.92 148.56 152.44 L 147.66 151.92 C 146.84 151.45 145.80 151.73 145.32 152.54 C 144.85 153.36 145.13 154.41 145.95 154.88 Z M 146.80 155.38 L 147.60 155.87 C 148.40 156.37 149.46 156.12 149.95 155.32 C 150.45 154.51 150.20 153.46 149.40 152.96 L 148.60 152.47 C 147.80 151.97 146.74 152.22 146.25 153.02 C 145.75 153.82 146.00 154.88 146.80 155.38 Z M 147.57 155.85 L 148.39 156.39 C 149.19 156.91 150.25 156.68 150.76 155.89 C 151.28 155.10 151.06 154.04 150.26 153.52 L 149.43 152.98 C 148.64 152.47 147.58 152.69 147.07 153.48 C 146.55 154.27 146.77 155.33 147.57 155.85 Z M 148.36 156.37 L 149.21 156.95 C 149.99 157.48 151.06 157.28 151.59 156.50 C 152.12 155.72 151.92 154.65 151.14 154.12 L 150.30 153.54 C 149.51 153.01 148.45 153.21 147.91 153.99 C 147.38 154.77 147.58 155.84 148.36 156.37 Z M 149.18 156.93 L 150.03 157.53 C 150.80 158.08 151.87 157.91 152.42 157.13 C 152.97 156.36 152.79 155.29 152.02 154.74 L 151.17 154.14 C 150.40 153.59 149.33 153.77 148.78 154.54 C 148.23 155.31 148.41 156.38 149.18 156.93 Z M 150.00 157.51 L 150.83 158.14 C 151.59 158.70 152.67 158.55 153.23 157.79 C 153.80 157.03 153.64 155.95 152.88 155.39 L 152.05 154.76 C 151.29 154.20 150.21 154.35 149.65 155.11 C 149.08 155.87 149.24 156.95 150.00 157.51 Z M 150.80 158.12 L 151.65 158.78 C 152.40 159.36 153.48 159.23 154.06 158.48 C 154.64 157.73 154.51 156.65 153.76 156.07 L 152.91 155.41 C 152.17 154.82 151.09 154.96 150.50 155.71 C 149.92 156.45 150.05 157.53 150.80 158.12 Z M 151.62 158.76 L 152.43 159.42 C 153.17 160.02 154.25 159.91 154.85 159.18 C 155.45 158.44 155.34 157.36 154.61 156.75 L 153.79 156.09 C 153.06 155.49 151.97 155.60 151.37 156.33 C 150.77 157.07 150.88 158.16 151.62 158.76 Z M 152.40 159.40 L 153.18 160.06 C 153.90 160.68 154.99 160.59 155.61 159.86 C 156.23 159.14 156.14 158.05 155.41 157.43 L 154.64 156.77 C 153.91 156.16 152.82 156.25 152.21 156.97 C 151.59 157.70 151.68 158.79 152.40 159.40 Z M 153.15 160.04 L 153.88 160.69 C 154.60 161.32 155.69 161.25 156.32 160.53 C 156.95 159.82 156.88 158.73 156.17 158.09 L 155.44 157.45 C 154.72 156.82 153.63 156.89 153.00 157.60 C 152.37 158.32 152.44 159.41 153.15 160.04 Z M 153.86 160.67 L 154.53 161.29 C 155.24 161.93 156.34 161.88 156.98 161.18 C 157.63 160.47 157.58 159.38 156.87 158.73 L 156.19 158.11 C 155.49 157.47 154.39 157.52 153.75 158.22 C 153.10 158.93 153.15 160.02 153.86 160.67 Z M 154.51 161.27 L 155.27 161.99 C 155.96 162.65 157.06 162.62 157.72 161.93 C 158.38 161.23 158.35 160.13 157.66 159.47 L 156.90 158.75 C 156.20 158.09 155.11 158.12 154.45 158.82 C 153.79 159.51 153.81 160.61 154.51 161.27 Z M 155.24 161.96 L 155.98 162.69 C 156.66 163.37 157.75 163.36 158.43 162.68 C 159.10 162.00 159.10 160.90 158.42 160.23 L 157.68 159.50 C 157.00 158.83 155.90 158.83 155.23 159.51 C 154.56 160.19 154.56 161.29 155.24 161.96 Z M 155.95 162.67 L 156.63 163.36 C 157.30 164.05 158.40 164.06 159.08 163.39 C 159.77 162.73 159.78 161.63 159.11 160.94 L 158.44 160.25 C 157.77 159.56 156.67 159.55 155.98 160.22 C 155.30 160.89 155.29 161.98 155.95 162.67 Z M 156.62 163.35 L 157.26 164.03 C 157.92 164.72 159.02 164.74 159.72 164.08 C 160.41 163.42 160.43 162.32 159.77 161.63 L 159.13 160.95 C 158.47 160.26 157.37 160.24 156.67 160.90 C 155.98 161.56 155.96 162.66 156.62 163.35 Z M 157.26 164.02 L 157.93 164.73 C 158.59 165.43 159.69 165.45 160.39 164.79 C 161.08 164.13 161.11 163.04 160.45 162.34 L 159.78 161.63 C 159.12 160.94 158.02 160.91 157.32 161.57 C 156.63 162.23 156.60 163.33 157.26 164.02 Z M 157.93 164.73 L 158.62 165.45 C 159.28 166.15 160.38 166.17 161.07 165.51 C 161.77 164.85 161.79 163.76 161.13 163.06 L 160.45 162.34 C 159.79 161.65 158.69 161.62 158.00 162.28 C 157.30 162.94 157.27 164.04 157.93 164.73 Z M 158.62 165.45 L 159.31 166.18 C 159.97 166.87 161.07 166.90 161.76 166.24 C 162.45 165.58 162.48 164.48 161.82 163.79 L 161.13 163.06 C 160.47 162.37 159.38 162.34 158.68 163.00 C 157.99 163.66 157.96 164.76 158.62 165.45 Z M 159.31 166.18 L 160.00 166.90 C 160.66 167.60 161.75 167.62 162.45 166.96 C 163.14 166.30 163.17 165.20 162.51 164.51 L 161.82 163.79 C 161.16 163.09 160.06 163.07 159.37 163.73 C 158.68 164.39 158.65 165.48 159.31 166.18 Z M 160.00 166.90 L 160.61 167.54 C 161.27 168.23 162.37 168.26 163.06 167.60 C 163.75 166.94 163.78 165.84 163.12 165.15 L 162.51 164.51 C 161.85 163.82 160.75 163.79 160.06 164.45 C 159.36 165.11 159.34 166.21 160.00 166.90 Z M 160.62 167.55 L 161.27 168.22 C 161.93 168.91 163.03 168.93 163.72 168.26 C 164.40 167.60 164.42 166.50 163.76 165.81 L 163.11 165.14 C 162.44 164.45 161.35 164.43 160.66 165.10 C 159.97 165.77 159.95 166.86 160.62 167.55 Z M 161.28 168.23 L 161.99 168.95 C 162.67 169.63 163.76 169.64 164.44 168.97 C 165.12 168.30 165.13 167.20 164.46 166.52 L 163.74 165.80 C 163.07 165.12 161.97 165.11 161.29 165.78 C 160.61 166.46 160.61 167.55 161.28 168.23 Z M 162.01 168.97 L 162.82 169.77 C 163.50 170.44 164.60 170.43 165.27 169.75 C 165.94 169.07 165.93 167.97 165.25 167.30 L 164.44 166.50 C 163.76 165.83 162.66 165.84 161.99 166.52 C 161.32 167.20 161.33 168.30 162.01 168.97 Z M 162.83 169.78 L 163.58 170.50 C 164.27 171.17 165.37 171.15 166.03 170.46 C 166.70 169.77 166.68 168.67 165.99 168.00 L 165.24 167.28 C 164.55 166.62 163.45 166.64 162.78 167.33 C 162.12 168.02 162.14 169.12 162.83 169.78 Z M 163.56 170.51 L 164.31 171.23 C 165.00 171.91 166.11 171.89 166.78 171.20 C 167.46 170.50 167.44 169.40 166.75 168.72 L 166.00 168.00 C 165.31 167.32 164.20 167.34 163.53 168.03 C 162.85 168.73 162.87 169.84 163.56 170.51 Z M 164.27 171.22 L 165.01 171.97 C 165.70 172.67 166.82 172.67 167.51 171.99 C 168.20 171.30 168.21 170.19 167.53 169.49 L 166.78 168.74 C 166.10 168.04 164.98 168.04 164.29 168.72 C 163.59 169.41 163.59 170.52 164.27 171.22 Z M 164.95 171.93 L 165.65 172.69 C 166.31 173.42 167.43 173.47 168.16 172.81 C 168.89 172.15 168.94 171.03 168.28 170.30 L 167.59 169.53 C 166.93 168.81 165.80 168.75 165.07 169.41 C 164.35 170.07 164.29 171.20 164.95 171.93 Z M 165.56 172.61 L 166.16 173.37 C 166.77 174.15 167.90 174.28 168.68 173.66 C 169.46 173.04 169.59 171.91 168.97 171.14 L 168.37 170.38 C 167.76 169.60 166.63 169.47 165.85 170.09 C 165.07 170.70 164.94 171.83 165.56 172.61 Z M 166.03 173.21 L 166.52 174.01 C 167.05 174.86 168.17 175.12 169.02 174.60 C 169.87 174.07 170.13 172.95 169.60 172.10 L 169.10 171.30 C 168.58 170.45 167.46 170.19 166.61 170.71 C 165.76 171.24 165.50 172.36 166.03 173.21 Z M 166.35 173.67 L 166.72 174.69 C 167.06 175.63 168.10 176.12 169.04 175.78 C 169.99 175.44 170.48 174.40 170.14 173.46 L 169.77 172.44 C 169.43 171.50 168.39 171.01 167.45 171.35 C 166.50 171.69 166.01 172.73 166.35 173.67 Z M 166.62 174.22 L 166.70 175.18 C 166.78 176.18 167.66 176.93 168.66 176.84 C 169.66 176.76 170.40 175.88 170.32 174.88 L 170.24 173.92 C 170.16 172.92 169.28 172.18 168.28 172.26 C 167.28 172.35 166.53 173.22 166.62 174.22 Z M 166.71 174.79 L 166.58 175.71 C 166.45 176.71 167.14 177.62 168.14 177.76 C 169.13 177.89 170.05 177.20 170.18 176.20 L 170.31 175.28 C 170.45 174.28 169.75 173.37 168.76 173.23 C 167.76 173.10 166.84 173.79 166.71 174.79 Z M 166.63 175.47 L 166.37 176.39 C 166.10 177.36 166.67 178.36 167.63 178.63 C 168.60 178.90 169.60 178.34 169.87 177.37 L 170.13 176.45 C 170.40 175.48 169.84 174.48 168.87 174.21 C 167.91 173.94 166.90 174.50 166.63 175.47 Z M 166.42 176.25 L 166.07 177.19 C 165.72 178.13 166.21 179.18 167.15 179.52 C 168.09 179.87 169.13 179.39 169.48 178.45 L 169.83 177.51 C 170.18 176.57 169.70 175.52 168.75 175.18 C 167.81 174.83 166.77 175.31 166.42 176.25 Z M 166.12 177.08 L 165.71 178.00 C 165.30 178.92 165.71 179.99 166.63 180.40 C 167.55 180.81 168.62 180.39 169.03 179.48 L 169.44 178.55 C 169.85 177.64 169.43 176.56 168.51 176.16 C 167.60 175.75 166.52 176.16 166.12 177.08 Z M 165.75 177.92 L 165.30 178.82 C 164.84 179.71 165.20 180.81 166.10 181.26 C 167.00 181.71 168.09 181.35 168.54 180.45 L 168.99 179.56 C 169.44 178.66 169.08 177.57 168.19 177.12 C 167.29 176.66 166.20 177.02 165.75 177.92 Z M 165.33 178.75 L 164.85 179.61 C 164.36 180.49 164.68 181.60 165.56 182.08 C 166.44 182.57 167.54 182.25 168.03 181.38 L 168.51 180.52 C 168.99 179.64 168.68 178.53 167.80 178.04 C 166.92 177.56 165.82 177.87 165.33 178.75 Z M 164.89 179.56 L 164.38 180.39 C 163.86 181.25 164.14 182.37 165.00 182.89 C 165.85 183.41 166.97 183.13 167.49 182.27 L 167.99 181.43 C 168.51 180.58 168.24 179.46 167.38 178.94 C 166.52 178.42 165.41 178.70 164.89 179.56 Z M 164.41 180.34 L 163.87 181.18 C 163.32 182.02 163.56 183.14 164.40 183.69 C 165.24 184.24 166.36 184.00 166.91 183.16 L 167.45 182.32 C 168.00 181.48 167.76 180.36 166.92 179.81 C 166.09 179.27 164.96 179.50 164.41 180.34 Z M 163.90 181.14 L 163.31 181.98 C 162.74 182.80 162.95 183.93 163.77 184.50 C 164.59 185.07 165.72 184.87 166.29 184.05 L 166.88 183.20 C 167.45 182.38 167.24 181.25 166.42 180.68 C 165.60 180.11 164.47 180.31 163.90 181.14 Z M 163.34 181.95 L 162.78 182.72 C 162.19 183.52 162.37 184.66 163.18 185.24 C 163.98 185.83 165.12 185.66 165.70 184.85 L 166.27 184.08 C 166.86 183.27 166.68 182.14 165.87 181.55 C 165.06 180.96 163.93 181.14 163.34 181.95 Z M 162.81 182.69 L 162.20 183.47 C 161.60 184.27 161.75 185.40 162.54 186.01 C 163.34 186.61 164.47 186.46 165.07 185.67 L 165.68 184.88 C 166.28 184.09 166.13 182.95 165.34 182.35 C 164.55 181.74 163.41 181.89 162.81 182.69 Z M 162.24 183.44 L 161.60 184.24 C 160.97 185.01 161.09 186.15 161.87 186.77 C 162.65 187.39 163.78 187.27 164.40 186.50 L 165.04 185.70 C 165.67 184.92 165.54 183.79 164.77 183.17 C 163.99 182.54 162.86 182.67 162.24 183.44 Z M 161.63 184.20 L 160.96 184.99 C 160.31 185.75 160.40 186.88 161.16 187.53 C 161.92 188.17 163.05 188.08 163.70 187.32 L 164.37 186.53 C 165.01 185.77 164.92 184.64 164.16 184.00 C 163.41 183.35 162.27 183.44 161.63 184.20 Z M 161.00 184.96 L 160.33 185.69 C 159.67 186.43 159.73 187.56 160.46 188.22 C 161.20 188.89 162.33 188.83 162.99 188.09 L 163.66 187.36 C 164.32 186.62 164.26 185.49 163.53 184.83 C 162.79 184.16 161.66 184.22 161.00 184.96 Z M 160.38 185.65 L 159.69 186.37 C 159.01 187.08 159.03 188.21 159.74 188.89 C 160.45 189.57 161.58 189.55 162.26 188.84 L 162.95 188.13 C 163.63 187.42 163.61 186.29 162.90 185.61 C 162.19 184.92 161.06 184.94 160.38 185.65 Z M 159.74 186.33 L 159.02 187.02 C 158.32 187.71 158.30 188.83 158.98 189.53 C 159.66 190.24 160.79 190.26 161.49 189.58 L 162.21 188.88 C 162.91 188.20 162.93 187.08 162.25 186.37 C 161.57 185.67 160.45 185.65 159.74 186.33 Z M 159.08 186.98 L 158.33 187.66 C 157.60 188.31 157.54 189.42 158.19 190.15 C 158.83 190.88 159.95 190.94 160.68 190.29 L 161.43 189.62 C 162.16 188.97 162.22 187.85 161.57 187.12 C 160.92 186.40 159.81 186.33 159.08 186.98 Z M 158.39 187.62 L 157.62 188.25 C 156.87 188.86 156.76 189.97 157.38 190.72 C 157.99 191.47 159.10 191.58 159.85 190.96 L 160.62 190.33 C 161.37 189.72 161.48 188.61 160.86 187.86 C 160.24 187.11 159.14 187.00 158.39 187.62 Z M 157.68 188.21 L 156.91 188.80 C 156.14 189.38 155.99 190.47 156.57 191.24 C 157.15 192.01 158.24 192.16 159.01 191.58 L 159.79 191.00 C 160.55 190.42 160.71 189.32 160.13 188.55 C 159.55 187.78 158.45 187.63 157.68 188.21 Z M 156.97 188.77 L 156.16 189.33 C 155.38 189.88 155.18 190.96 155.73 191.74 C 156.28 192.53 157.36 192.72 158.14 192.17 L 158.95 191.61 C 159.74 191.06 159.93 189.98 159.38 189.20 C 158.83 188.41 157.75 188.22 156.97 188.77 Z M 156.22 189.31 L 155.37 189.86 C 154.57 190.37 154.34 191.44 154.86 192.23 C 155.38 193.03 156.44 193.26 157.24 192.75 L 158.08 192.20 C 158.88 191.68 159.11 190.62 158.59 189.82 C 158.08 189.02 157.01 188.79 156.22 189.31 Z M 155.42 189.84 L 154.54 190.37 C 153.73 190.86 153.47 191.91 153.96 192.71 C 154.44 193.52 155.49 193.78 156.30 193.30 L 157.18 192.76 C 157.99 192.28 158.25 191.23 157.77 190.42 C 157.28 189.61 156.23 189.35 155.42 189.84 Z M 154.59 190.36 L 153.72 190.85 C 152.91 191.31 152.62 192.34 153.08 193.15 C 153.54 193.97 154.57 194.26 155.39 193.80 L 156.25 193.31 C 157.07 192.85 157.35 191.82 156.89 191.00 C 156.43 190.19 155.40 189.90 154.59 190.36 Z M 153.77 190.84 L 152.91 191.29 C 152.09 191.72 151.78 192.74 152.21 193.56 C 152.64 194.38 153.66 194.69 154.48 194.26 L 155.34 193.81 C 156.16 193.37 156.47 192.36 156.04 191.54 C 155.61 190.72 154.59 190.41 153.77 190.84 Z M 152.96 191.28 L 152.07 191.72 C 151.25 192.12 150.91 193.12 151.31 193.94 C 151.72 194.77 152.71 195.11 153.54 194.70 L 154.43 194.27 C 155.25 193.86 155.59 192.87 155.19 192.04 C 154.78 191.22 153.79 190.88 152.96 191.28 Z M 152.13 191.71 L 151.21 192.13 C 150.38 192.50 150.01 193.47 150.38 194.30 C 150.76 195.13 151.73 195.50 152.56 195.13 L 153.48 194.71 C 154.31 194.34 154.68 193.37 154.31 192.54 C 153.93 191.71 152.96 191.34 152.13 191.71 Z M 151.27 192.12 L 150.32 192.50 C 149.49 192.84 149.09 193.79 149.43 194.63 C 149.77 195.46 150.72 195.86 151.55 195.52 L 152.50 195.14 C 153.33 194.80 153.73 193.85 153.39 193.01 C 153.05 192.18 152.10 191.78 151.27 192.12 Z M 150.39 192.50 L 149.41 192.85 C 148.57 193.15 148.14 194.08 148.44 194.92 C 148.74 195.75 149.67 196.19 150.51 195.89 L 151.48 195.53 C 152.32 195.23 152.76 194.30 152.45 193.46 C 152.15 192.63 151.22 192.19 150.39 192.50 Z M 149.47 192.85 L 148.47 193.17 C 147.63 193.43 147.16 194.33 147.43 195.17 C 147.70 196.01 148.60 196.48 149.44 196.21 L 150.44 195.89 C 151.28 195.62 151.75 194.72 151.48 193.88 C 151.21 193.04 150.31 192.58 149.47 192.85 Z M 148.52 193.17 L 147.52 193.45 C 146.68 193.69 146.19 194.56 146.43 195.40 C 146.66 196.24 147.54 196.73 148.38 196.49 L 149.38 196.21 C 150.22 195.97 150.71 195.10 150.47 194.26 C 150.23 193.42 149.36 192.93 148.52 193.17 Z M 147.56 193.46 L 146.57 193.71 C 145.74 193.93 145.23 194.77 145.45 195.61 C 145.66 196.44 146.51 196.95 147.34 196.74 L 148.33 196.48 C 149.17 196.27 149.67 195.42 149.46 194.59 C 149.24 193.75 148.39 193.25 147.56 193.46 Z M 146.61 193.72 L 145.66 193.94 C 144.83 194.14 144.31 194.96 144.51 195.79 C 144.70 196.62 145.53 197.14 146.36 196.95 L 147.31 196.73 C 148.14 196.53 148.65 195.70 148.46 194.88 C 148.27 194.05 147.44 193.53 146.61 193.72 Z M 145.69 193.95 L 144.80 194.15 C 143.98 194.32 143.45 195.13 143.63 195.95 C 143.81 196.78 144.62 197.30 145.44 197.12 L 146.33 196.93 C 147.15 196.76 147.68 195.95 147.50 195.12 C 147.32 194.30 146.51 193.78 145.69 193.95 Z M 144.83 194.16 L 143.74 194.38 C 142.92 194.54 142.39 195.33 142.55 196.14 C 142.71 196.96 143.51 197.49 144.32 197.33 L 145.41 197.11 C 146.23 196.95 146.76 196.16 146.60 195.34 C 146.44 194.53 145.64 194.00 144.83 194.16 Z M 143.77 194.39 L 142.76 194.57 C 141.96 194.71 141.42 195.48 141.56 196.29 C 141.70 197.10 142.47 197.64 143.28 197.49 L 144.29 197.31 C 145.09 197.17 145.63 196.40 145.49 195.59 C 145.35 194.78 144.58 194.25 143.77 194.39 Z M 142.80 194.58 L 141.88 194.72 C 141.08 194.84 140.52 195.59 140.65 196.39 C 140.77 197.19 141.52 197.74 142.32 197.62 L 143.24 197.48 C 144.04 197.36 144.59 196.61 144.47 195.81 C 144.35 195.01 143.60 194.46 142.80 194.58 Z M 141.91 194.73 L 141.01 194.85 C 140.22 194.95 139.65 195.67 139.75 196.47 C 139.86 197.26 140.58 197.82 141.37 197.72 L 142.28 197.61 C 143.07 197.51 143.63 196.78 143.53 195.99 C 143.43 195.19 142.71 194.63 141.91 194.73 Z M 141.04 194.85 L 140.06 194.96 C 139.27 195.04 138.70 195.75 138.78 196.54 C 138.86 197.33 139.57 197.90 140.36 197.82 L 141.34 197.71 C 142.13 197.63 142.70 196.92 142.62 196.13 C 142.54 195.34 141.83 194.77 141.04 194.85 Z M 140.08 194.96 L 139.09 195.05 C 138.30 195.12 137.72 195.81 137.79 196.60 C 137.86 197.39 138.55 197.97 139.34 197.90 L 140.33 197.81 C 141.12 197.74 141.71 197.05 141.64 196.26 C 141.57 195.47 140.87 194.89 140.08 194.96 Z M 139.10 195.05 L 138.10 195.13 C 137.31 195.19 136.72 195.88 136.78 196.67 C 136.85 197.45 137.53 198.04 138.32 197.98 L 139.33 197.90 C 140.11 197.84 140.70 197.15 140.64 196.36 C 140.58 195.58 139.89 194.99 139.10 195.05 Z M 138.10 195.13 L 137.10 195.21 C 136.32 195.27 135.73 195.95 135.79 196.74 C 135.85 197.52 136.53 198.11 137.32 198.05 L 138.32 197.98 C 139.10 197.92 139.69 197.23 139.63 196.45 C 139.57 195.66 138.89 195.07 138.10 195.13 Z M 137.11 195.21 L 136.11 195.28 C 135.33 195.34 134.74 196.02 134.80 196.81 C 134.85 197.59 135.54 198.18 136.32 198.12 L 137.32 198.05 C 138.10 197.99 138.69 197.31 138.63 196.52 C 138.57 195.74 137.89 195.15 137.11 195.21 Z M 136.11 195.28 L 135.11 195.36 C 134.33 195.41 133.74 196.10 133.79 196.88 C 133.85 197.67 134.54 198.26 135.32 198.20 L 136.32 198.12 C 137.11 198.07 137.70 197.38 137.64 196.60 C 137.58 195.81 136.90 195.22 136.11 195.28 Z M 135.11 195.36 L 134.21 195.42 C 133.43 195.48 132.84 196.16 132.90 196.95 C 132.95 197.73 133.64 198.32 134.42 198.27 L 135.32 198.20 C 136.11 198.14 136.70 197.46 136.64 196.67 C 136.58 195.89 135.90 195.30 135.11 195.36 Z"
      fill="black"
      fill-rule="nonzero" /></svg>