<svg xmlns="http://www.w3.org/2000/svg" width="300" height="300" viewBox="0 0 300 300">
<path d="M 110.84 98.67 L 110.36 99.50 C 109.92 100.26 110.18 101.24 110.94 101.69 C 111.70 102.13 112.68 101.87 113.12 101.11 L 113.61 100.28 C 114.05 99.52 113.79 98.54 113.03 98.10 C 112.27 97.65 111.29 97.91 110.84 98.67 Z M 110.35 99.53 L 109.88 100.38 C 109.45 101.15 109.73 102.12 110.50 102.55 C 111.27 102.98 112.24 102.70 112.67 101.93 L 113.14 101.08 C 113.57 100.31 113.29 99.33 112.52 98.91 C 111.75 98.48 110.77 98.76 110.35 99.53 Z M 109.85 100.43 L 109.40 101.32 C 109.00 102.11 109.32 103.07 110.11 103.47 C 110.90 103.86 111.86 103.54 112.26 102.76 L 112.70 101.87 C 113.10 101.08 112.78 100.12 111.99 99.72 C 111.20 99.33 110.24 99.64 109.85 100.43 Z M 109.36 101.40 L 108.95 102.35 C 108.60 103.16 108.97 104.10 109.78 104.45 C 110.59 104.80 111.53 104.43 111.89 103.62 L 112.30 102.67 C 112.65 101.86 112.28 100.92 111.47 100.57 C 110.66 100.22 109.71 100.59 109.36 101.40 Z M 108.91 102.45 L 108.56 103.43 C 108.26 104.26 108.70 105.18 109.53 105.48 C 110.36 105.77 111.28 105.34 111.57 104.51 L 111.93 103.52 C 112.22 102.69 111.79 101.77 110.96 101.48 C 110.12 101.18 109.21 101.61 108.91 102.45 Z M 108.53 103.53 L 108.25 104.50 C 108.00 105.35 108.49 106.24 109.34 106.48 C 110.19 106.73 111.08 106.24 111.32 105.39 L 111.60 104.41 C 111.85 103.56 111.36 102.68 110.51 102.43 C 109.66 102.19 108.78 102.68 108.53 103.53 Z M 108.23 104.57 L 107.99 105.58 C 107.78 106.44 108.31 107.30 109.17 107.51 C 110.03 107.71 110.89 107.19 111.10 106.33 L 111.34 105.32 C 111.55 104.46 111.02 103.60 110.16 103.39 C 109.30 103.18 108.44 103.71 108.23 104.57 Z M 107.98 105.64 L 107.77 106.64 C 107.60 107.51 108.16 108.35 109.02 108.53 C 109.89 108.70 110.73 108.14 110.91 107.28 L 111.11 106.27 C 111.29 105.41 110.73 104.56 109.86 104.39 C 109.00 104.21 108.15 104.77 107.98 105.64 Z M 107.76 106.68 L 107.59 107.66 C 107.44 108.53 108.03 109.36 108.90 109.51 C 109.77 109.66 110.59 109.08 110.75 108.21 L 110.92 107.23 C 111.07 106.36 110.48 105.54 109.61 105.38 C 108.74 105.23 107.92 105.81 107.76 106.68 Z M 107.59 107.69 L 107.45 108.63 C 107.31 109.51 107.91 110.32 108.79 110.45 C 109.66 110.59 110.48 109.99 110.61 109.11 L 110.75 108.17 C 110.88 107.30 110.28 106.48 109.41 106.35 C 108.54 106.22 107.72 106.82 107.59 107.69 Z M 107.44 108.67 L 107.31 109.72 C 107.20 110.59 107.82 111.39 108.69 111.50 C 109.57 111.61 110.36 111.00 110.48 110.12 L 110.61 109.08 C 110.72 108.20 110.10 107.40 109.23 107.29 C 108.36 107.18 107.56 107.80 107.44 108.67 Z M 107.31 109.77 L 107.22 110.73 C 107.13 111.61 107.77 112.39 108.65 112.47 C 109.53 112.55 110.30 111.91 110.39 111.04 L 110.48 110.07 C 110.56 109.19 109.92 108.42 109.04 108.33 C 108.17 108.25 107.39 108.89 107.31 109.77 Z M 107.22 110.79 L 107.16 111.74 C 107.11 112.62 107.78 113.37 108.65 113.42 C 109.53 113.48 110.28 112.81 110.33 111.93 L 110.39 110.98 C 110.44 110.10 109.77 109.35 108.90 109.30 C 108.02 109.25 107.27 109.92 107.22 110.79 Z M 107.16 111.80 L 107.13 112.80 C 107.11 113.67 107.80 114.40 108.68 114.42 C 109.55 114.45 110.28 113.76 110.30 112.88 L 110.33 111.88 C 110.35 111.01 109.66 110.28 108.79 110.26 C 107.91 110.23 107.18 110.92 107.16 111.80 Z M 107.14 112.84 L 107.14 113.86 C 107.14 114.73 107.85 115.44 108.72 115.44 C 109.60 115.43 110.30 114.72 110.30 113.85 L 110.30 112.83 C 110.30 111.96 109.59 111.26 108.71 111.26 C 107.84 111.26 107.13 111.97 107.14 112.84 Z M 107.14 113.93 L 107.20 114.98 C 107.24 115.85 107.98 116.52 108.85 116.48 C 109.72 116.43 110.39 115.69 110.35 114.82 L 110.30 113.78 C 110.25 112.91 109.51 112.24 108.64 112.28 C 107.77 112.32 107.10 113.06 107.14 113.93 Z M 107.21 115.09 L 107.33 116.11 C 107.44 116.97 108.23 117.58 109.09 117.48 C 109.96 117.37 110.57 116.58 110.46 115.72 L 110.34 114.71 C 110.23 113.84 109.44 113.23 108.58 113.34 C 107.71 113.44 107.10 114.23 107.21 115.09 Z M 107.37 116.29 L 107.60 117.21 C 107.80 118.05 108.66 118.57 109.50 118.36 C 110.34 118.15 110.86 117.30 110.65 116.45 L 110.43 115.54 C 110.22 114.69 109.37 114.18 108.52 114.38 C 107.68 114.59 107.16 115.44 107.37 116.29 Z M 107.71 117.51 L 108.12 118.37 C 108.49 119.16 109.43 119.49 110.22 119.12 C 111.00 118.74 111.33 117.80 110.96 117.02 L 110.54 116.15 C 110.17 115.37 109.23 115.04 108.45 115.41 C 107.66 115.78 107.33 116.72 107.71 117.51 Z M 108.37 118.74 L 108.99 119.44 C 109.57 120.09 110.56 120.15 111.21 119.57 C 111.86 118.99 111.91 117.99 111.33 117.35 L 110.71 116.65 C 110.13 116.00 109.14 115.95 108.49 116.52 C 107.84 117.10 107.79 118.10 108.37 118.74 Z M 109.31 119.71 L 110.13 120.25 C 110.86 120.72 111.83 120.51 112.30 119.78 C 112.78 119.05 112.57 118.08 111.84 117.61 L 111.02 117.08 C 110.29 116.60 109.32 116.81 108.84 117.54 C 108.37 118.27 108.58 119.24 109.31 119.71 Z M 110.39 120.38 L 111.38 120.79 C 112.18 121.12 113.10 120.73 113.43 119.93 C 113.76 119.13 113.37 118.21 112.57 117.88 L 111.58 117.47 C 110.78 117.14 109.86 117.53 109.53 118.33 C 109.20 119.13 109.58 120.05 110.39 120.38 Z M 111.53 120.84 L 112.43 121.11 C 113.26 121.36 114.14 120.89 114.39 120.05 C 114.63 119.22 114.16 118.34 113.33 118.10 L 112.42 117.83 C 111.59 117.58 110.72 118.05 110.47 118.88 C 110.22 119.72 110.69 120.59 111.53 120.84 Z M 112.51 121.14 L 113.49 121.37 C 114.34 121.57 115.19 121.05 115.39 120.20 C 115.59 119.36 115.07 118.51 114.22 118.30 L 113.24 118.07 C 112.40 117.87 111.55 118.39 111.35 119.24 C 111.14 120.08 111.67 120.93 112.51 121.14 Z M 113.55 121.38 L 114.56 121.59 C 115.42 121.76 116.25 121.20 116.42 120.35 C 116.59 119.49 116.04 118.66 115.18 118.49 L 114.17 118.29 C 113.31 118.12 112.48 118.67 112.31 119.53 C 112.14 120.38 112.70 121.21 113.55 121.38 Z M 114.60 121.60 L 115.61 121.77 C 116.47 121.92 117.29 121.35 117.44 120.49 C 117.59 119.63 117.02 118.81 116.16 118.66 L 115.15 118.48 C 114.29 118.33 113.47 118.91 113.32 119.77 C 113.17 120.63 113.74 121.45 114.60 121.60 Z M 115.63 121.78 L 116.67 121.95 C 117.54 122.08 118.35 121.50 118.49 120.63 C 118.63 119.77 118.04 118.96 117.18 118.82 L 116.14 118.65 C 115.27 118.52 114.46 119.10 114.32 119.97 C 114.18 120.83 114.77 121.64 115.63 121.78 Z M 116.67 121.95 L 117.74 122.12 C 118.60 122.26 119.42 121.67 119.56 120.81 C 119.70 119.94 119.11 119.13 118.24 118.99 L 117.18 118.82 C 116.31 118.68 115.50 119.26 115.36 120.13 C 115.22 121.00 115.81 121.81 116.67 121.95 Z M 117.69 122.12 L 118.67 122.31 C 119.54 122.47 120.37 121.90 120.54 121.03 C 120.70 120.17 120.13 119.34 119.26 119.17 L 118.28 118.99 C 117.42 118.83 116.58 119.39 116.42 120.26 C 116.26 121.13 116.83 121.96 117.69 122.12 Z M 118.58 122.29 L 119.49 122.52 C 120.35 122.73 121.22 122.21 121.43 121.35 C 121.64 120.49 121.12 119.62 120.26 119.41 L 119.35 119.19 C 118.50 118.97 117.63 119.50 117.42 120.35 C 117.20 121.21 117.73 122.08 118.58 122.29 Z M 119.34 122.48 L 120.24 122.80 C 121.08 123.10 122.00 122.66 122.29 121.82 C 122.59 120.98 122.15 120.06 121.31 119.77 L 120.41 119.45 C 119.57 119.15 118.65 119.59 118.36 120.43 C 118.06 121.26 118.50 122.18 119.34 122.48 Z M 120.00 122.70 L 120.89 123.19 C 121.68 123.62 122.66 123.33 123.09 122.55 C 123.52 121.76 123.23 120.78 122.45 120.35 L 121.55 119.86 C 120.77 119.43 119.79 119.72 119.36 120.51 C 118.93 121.29 119.22 122.28 120.00 122.70 Z M 120.56 122.97 L 121.27 123.63 C 121.93 124.24 122.96 124.20 123.58 123.54 C 124.19 122.88 124.15 121.84 123.49 121.23 L 122.78 120.57 C 122.12 119.96 121.08 120.00 120.47 120.66 C 119.86 121.32 119.90 122.36 120.56 122.97 Z M 120.94 123.22 L 121.40 124.06 C 121.84 124.86 122.84 125.15 123.63 124.72 C 124.43 124.28 124.72 123.28 124.28 122.48 L 123.82 121.64 C 123.38 120.84 122.38 120.55 121.59 120.99 C 120.79 121.42 120.50 122.42 120.94 123.22 Z M 121.23 123.60 L 121.41 124.51 C 121.59 125.40 122.46 125.98 123.35 125.80 C 124.24 125.62 124.82 124.75 124.64 123.86 L 124.46 122.95 C 124.28 122.06 123.41 121.48 122.52 121.66 C 121.63 121.84 121.05 122.71 121.23 123.60 Z M 121.37 124.16 L 121.36 125.16 C 121.34 126.07 122.07 126.82 122.98 126.84 C 123.89 126.85 124.65 126.13 124.66 125.22 L 124.68 124.21 C 124.69 123.30 123.96 122.55 123.05 122.53 C 122.14 122.52 121.39 123.25 121.37 124.16 Z M 121.39 124.88 L 121.19 125.90 C 121.02 126.80 121.61 127.66 122.50 127.84 C 123.40 128.01 124.27 127.42 124.44 126.52 L 124.63 125.50 C 124.80 124.60 124.22 123.74 123.32 123.57 C 122.42 123.39 121.56 123.98 121.39 124.88 Z M 121.26 125.65 L 120.91 126.61 C 120.60 127.47 121.04 128.41 121.90 128.73 C 122.75 129.04 123.70 128.60 124.02 127.74 L 124.37 126.78 C 124.68 125.92 124.24 124.97 123.38 124.66 C 122.52 124.35 121.57 124.79 121.26 125.65 Z M 121.01 126.38 L 120.54 127.23 C 120.10 128.03 120.39 129.03 121.19 129.47 C 121.99 129.92 123.00 129.62 123.44 128.82 L 123.91 127.97 C 124.35 127.17 124.06 126.17 123.26 125.73 C 122.46 125.28 121.46 125.58 121.01 126.38 Z M 120.65 127.06 L 120.08 127.85 C 119.54 128.59 119.71 129.63 120.45 130.16 C 121.19 130.70 122.22 130.53 122.76 129.79 L 123.33 129.00 C 123.87 128.26 123.70 127.22 122.96 126.69 C 122.22 126.15 121.19 126.32 120.65 127.06 Z M 120.16 127.74 L 119.50 128.51 C 118.91 129.20 118.98 130.25 119.68 130.84 C 120.37 131.44 121.41 131.36 122.01 130.67 L 122.67 129.90 C 123.27 129.21 123.19 128.17 122.50 127.57 C 121.80 126.97 120.76 127.05 120.16 127.74 Z M 119.55 128.45 L 118.86 129.19 C 118.24 129.85 118.26 130.89 118.93 131.52 C 119.59 132.15 120.64 132.12 121.26 131.46 L 121.95 130.73 C 122.58 130.06 122.55 129.02 121.89 128.39 C 121.23 127.76 120.18 127.79 119.55 128.45 Z M 118.89 129.16 L 118.22 129.84 C 117.58 130.49 117.58 131.53 118.23 132.17 C 118.88 132.81 119.92 132.81 120.56 132.16 L 121.23 131.48 C 121.88 130.83 121.87 129.79 121.22 129.15 C 120.58 128.51 119.53 128.51 118.89 129.16 Z M 118.24 129.82 L 117.53 130.51 C 116.88 131.14 116.87 132.18 117.50 132.84 C 118.13 133.49 119.17 133.50 119.82 132.87 L 120.53 132.18 C 121.19 131.55 121.20 130.51 120.57 129.86 C 119.94 129.20 118.90 129.19 118.24 129.82 Z M 117.56 130.49 L 116.81 131.19 C 116.15 131.80 116.11 132.84 116.73 133.51 C 117.35 134.17 118.39 134.20 119.05 133.59 L 119.80 132.89 C 120.46 132.27 120.50 131.23 119.88 130.57 C 119.26 129.91 118.22 129.87 117.56 130.49 Z M 116.84 131.17 L 116.06 131.87 C 115.39 132.47 115.33 133.50 115.94 134.18 C 116.54 134.85 117.57 134.91 118.25 134.30 L 119.03 133.61 C 119.70 133.00 119.76 131.97 119.15 131.29 C 118.55 130.62 117.51 130.56 116.84 131.17 Z M 116.09 131.85 L 115.32 132.51 C 114.64 133.10 114.57 134.13 115.15 134.81 C 115.74 135.49 116.77 135.57 117.45 134.98 L 118.22 134.32 C 118.90 133.73 118.98 132.70 118.39 132.02 C 117.80 131.34 116.77 131.26 116.09 131.85 Z M 115.35 132.50 L 114.58 133.14 C 113.89 133.71 113.79 134.74 114.36 135.43 C 114.94 136.12 115.96 136.21 116.65 135.64 L 117.43 134.99 C 118.12 134.42 118.21 133.40 117.64 132.71 C 117.07 132.02 116.04 131.92 115.35 132.50 Z M 114.61 133.13 L 113.82 133.76 C 113.12 134.31 113.00 135.33 113.56 136.03 C 114.12 136.72 115.13 136.84 115.83 136.28 L 116.62 135.65 C 117.32 135.10 117.43 134.08 116.87 133.38 C 116.32 132.69 115.30 132.57 114.61 133.13 Z M 113.85 133.74 L 113.05 134.35 C 112.35 134.89 112.21 135.90 112.75 136.60 C 113.29 137.31 114.30 137.44 115.00 136.90 L 115.80 136.30 C 116.50 135.76 116.64 134.75 116.10 134.05 C 115.56 133.34 114.55 133.21 113.85 133.74 Z M 113.09 134.34 L 112.29 134.91 C 111.58 135.43 111.42 136.43 111.94 137.14 C 112.46 137.86 113.46 138.01 114.17 137.49 L 114.97 136.92 C 115.68 136.40 115.84 135.40 115.32 134.69 C 114.80 133.98 113.80 133.82 113.09 134.34 Z M 112.34 134.90 L 111.46 135.50 C 110.74 135.99 110.56 136.98 111.06 137.70 C 111.55 138.42 112.54 138.60 113.26 138.11 L 114.13 137.51 C 114.85 137.02 115.03 136.03 114.54 135.31 C 114.04 134.59 113.06 134.40 112.34 134.90 Z M 111.51 135.48 L 110.65 136.04 C 109.92 136.51 109.71 137.48 110.18 138.20 C 110.64 138.93 111.61 139.15 112.34 138.68 L 113.21 138.12 C 113.94 137.66 114.15 136.69 113.68 135.96 C 113.21 135.23 112.24 135.02 111.51 135.48 Z M 110.70 136.02 L 109.85 136.53 C 109.12 136.97 108.88 137.92 109.31 138.65 C 109.75 139.39 110.70 139.63 111.44 139.20 L 112.29 138.69 C 113.03 138.25 113.27 137.30 112.83 136.57 C 112.39 135.83 111.44 135.59 110.70 136.02 Z M 109.91 136.51 L 109.08 136.97 C 108.33 137.38 108.06 138.31 108.46 139.05 C 108.87 139.80 109.80 140.07 110.54 139.67 L 111.38 139.21 C 112.13 138.81 112.40 137.87 111.99 137.13 C 111.59 136.38 110.66 136.11 109.91 136.51 Z M 109.14 136.96 L 108.26 137.39 C 107.51 137.76 107.19 138.67 107.56 139.42 C 107.93 140.17 108.84 140.48 109.60 140.12 L 110.48 139.68 C 111.23 139.31 111.54 138.40 111.17 137.65 C 110.80 136.90 109.89 136.59 109.14 136.96 Z M 108.35 137.37 L 107.43 137.75 C 106.67 138.07 106.30 138.95 106.62 139.71 C 106.94 140.48 107.82 140.84 108.59 140.52 L 109.51 140.14 C 110.27 139.82 110.63 138.94 110.31 138.17 C 109.99 137.41 109.11 137.05 108.35 137.37 Z M 107.56 137.72 L 106.62 138.02 C 105.84 138.27 105.41 139.11 105.66 139.89 C 105.91 140.67 106.74 141.10 107.52 140.85 L 108.46 140.55 C 109.24 140.30 109.67 139.46 109.42 138.68 C 109.17 137.90 108.34 137.47 107.56 137.72 Z M 106.78 138.00 L 105.80 138.20 C 105.00 138.36 104.49 139.14 104.66 139.93 C 104.82 140.73 105.60 141.24 106.39 141.07 L 107.37 140.87 C 108.16 140.71 108.67 139.93 108.51 139.14 C 108.34 138.35 107.57 137.84 106.78 138.00 Z M 105.96 138.19 L 105.00 138.28 C 104.20 138.36 103.61 139.06 103.69 139.86 C 103.76 140.66 104.47 141.25 105.27 141.17 L 106.23 141.08 C 107.03 141.01 107.61 140.30 107.54 139.50 C 107.46 138.70 106.76 138.11 105.96 138.19 Z M 105.12 138.28 L 104.14 138.29 C 103.35 138.30 102.71 138.95 102.71 139.75 C 102.72 140.55 103.38 141.19 104.18 141.18 L 105.15 141.17 C 105.95 141.16 106.59 140.51 106.58 139.71 C 106.57 138.91 105.92 138.27 105.12 138.28 Z M 104.22 138.30 L 103.21 138.25 C 102.42 138.22 101.75 138.84 101.71 139.63 C 101.68 140.42 102.29 141.10 103.09 141.13 L 104.10 141.18 C 104.89 141.21 105.56 140.60 105.60 139.80 C 105.63 139.01 105.02 138.33 104.22 138.30 Z M 103.26 138.26 L 102.23 138.19 C 101.44 138.13 100.75 138.72 100.69 139.51 C 100.63 140.30 101.22 140.98 102.01 141.04 L 103.04 141.12 C 103.83 141.18 104.52 140.59 104.58 139.80 C 104.64 139.01 104.05 138.32 103.26 138.26 Z M 102.24 138.19 L 101.63 138.14 C 100.85 138.07 100.16 138.65 100.09 139.44 C 100.02 140.22 100.60 140.92 101.39 140.98 L 102.00 141.04 C 102.78 141.11 103.48 140.52 103.54 139.74 C 103.61 138.95 103.03 138.26 102.24 138.19 Z"
      fill="black"
      fill-rule="nonzero" /><path d="M 103.58 104.80 L 103.69 103.79 C 103.79 102.93 103.17 102.17 102.32 102.07 C 101.46 101.98 100.70 102.60 100.60 103.45 L 100.49 104.47 C 100.40 105.32 101.02 106.09 101.87 106.18 C 102.72 106.27 103.49 105.66 103.58 104.80 Z M 103.67 104.00 L 103.90 103.04 C 104.11 102.20 103.60 101.35 102.77 101.14 C 101.93 100.94 101.08 101.45 100.87 102.28 L 100.63 103.24 C 100.42 104.08 100.93 104.93 101.77 105.14 C 102.61 105.34 103.46 104.83 103.67 104.00 Z M 103.74 103.46 L 104.23 102.63 C 104.67 101.88 104.42 100.92 103.67 100.48 C 102.93 100.04 101.96 100.29 101.52 101.04 L 101.03 101.86 C 100.59 102.61 100.84 103.57 101.59 104.02 C 102.34 104.46 103.30 104.21 103.74 103.46 Z M 103.90 103.03 L 104.53 102.50 C 105.19 101.93 105.27 100.94 104.70 100.28 C 104.13 99.61 103.14 99.53 102.48 100.10 L 101.85 100.63 C 101.19 101.20 101.11 102.20 101.68 102.86 C 102.24 103.52 103.24 103.60 103.90 103.03 Z M 104.23 102.70 L 105.06 102.26 C 105.84 101.86 106.14 100.91 105.74 100.14 C 105.33 99.36 104.38 99.06 103.61 99.47 L 102.77 99.90 C 102.00 100.30 101.70 101.25 102.10 102.03 C 102.50 102.80 103.46 103.10 104.23 102.70 Z M 104.84 102.36 L 105.86 102.02 C 106.69 101.74 107.13 100.85 106.86 100.02 C 106.58 99.19 105.68 98.75 104.86 99.02 L 103.83 99.37 C 103.01 99.65 102.56 100.54 102.84 101.37 C 103.12 102.19 104.01 102.64 104.84 102.36 Z M 105.71 102.06 L 106.80 101.82 C 107.65 101.63 108.19 100.78 108.00 99.93 C 107.81 99.08 106.96 98.54 106.11 98.73 L 105.02 98.98 C 104.16 99.17 103.63 100.02 103.82 100.87 C 104.01 101.72 104.85 102.25 105.71 102.06 Z M 106.71 101.83 L 107.60 101.69 C 108.46 101.55 109.05 100.75 108.91 99.89 C 108.78 99.03 107.97 98.44 107.11 98.58 L 106.21 98.72 C 105.35 98.85 104.76 99.66 104.90 100.52 C 105.04 101.38 105.85 101.97 106.71 101.83 Z M 107.54 101.70 L 108.50 101.58 C 109.36 101.48 109.98 100.70 109.88 99.84 C 109.78 98.97 108.99 98.35 108.13 98.46 L 107.17 98.57 C 106.31 98.67 105.69 99.45 105.79 100.32 C 105.90 101.18 106.68 101.80 107.54 101.70 Z M 108.45 101.58 L 109.46 101.50 C 110.32 101.42 110.96 100.66 110.89 99.80 C 110.81 98.93 110.05 98.29 109.19 98.37 L 108.18 98.45 C 107.31 98.53 106.68 99.29 106.75 100.16 C 106.82 101.02 107.59 101.66 108.45 101.58 Z M 109.42 101.50 L 110.46 101.43 C 111.33 101.38 111.99 100.63 111.93 99.77 C 111.88 98.90 111.13 98.25 110.27 98.30 L 109.22 98.37 C 108.36 98.42 107.70 99.17 107.76 100.03 C 107.81 100.89 108.56 101.55 109.42 101.50 Z M 110.44 101.43 L 111.51 101.38 C 112.37 101.34 113.04 100.61 113.00 99.75 C 112.96 98.89 112.23 98.22 111.37 98.26 L 110.30 98.30 C 109.43 98.34 108.77 99.07 108.80 99.94 C 108.84 100.80 109.57 101.47 110.44 101.43 Z M 111.49 101.38 L 112.54 101.34 C 113.40 101.32 114.08 100.60 114.05 99.74 C 114.02 98.88 113.30 98.20 112.44 98.23 L 111.39 98.26 C 110.53 98.29 109.86 99.01 109.88 99.87 C 109.91 100.73 110.63 101.40 111.49 101.38 Z M 112.52 101.33 L 113.57 101.31 C 114.42 101.29 115.10 100.59 115.08 99.73 C 115.06 98.88 114.36 98.20 113.50 98.22 L 112.46 98.24 C 111.61 98.26 110.93 98.97 110.95 99.82 C 110.96 100.67 111.67 101.35 112.52 101.33 Z M 113.55 101.30 L 114.59 101.28 C 115.43 101.27 116.11 100.58 116.10 99.73 C 116.09 98.89 115.39 98.21 114.55 98.22 L 113.51 98.23 C 112.67 98.24 111.99 98.94 112.00 99.78 C 112.01 100.63 112.71 101.31 113.55 101.30 Z M 114.58 101.27 L 115.59 101.26 C 116.43 101.26 117.10 100.57 117.10 99.73 C 117.09 98.90 116.40 98.22 115.57 98.23 L 114.56 98.23 C 113.72 98.24 113.04 98.92 113.05 99.76 C 113.05 100.60 113.74 101.28 114.58 101.27 Z M 115.58 101.25 L 116.55 101.25 C 117.39 101.25 118.06 100.57 118.06 99.74 C 118.05 98.91 117.38 98.23 116.54 98.24 L 115.57 98.24 C 114.74 98.24 114.07 98.92 114.07 99.75 C 114.07 100.58 114.75 101.25 115.58 101.25 Z M 116.55 101.24 L 117.47 101.24 C 118.30 101.23 118.97 100.57 118.97 99.74 C 118.97 98.92 118.30 98.25 117.47 98.25 L 116.55 98.25 C 115.72 98.25 115.06 98.92 115.06 99.74 C 115.06 100.57 115.73 101.24 116.55 101.24 Z M 117.47 101.22 L 118.56 101.22 C 119.38 101.22 120.04 100.56 120.04 99.74 C 120.04 98.92 119.38 98.26 118.56 98.26 L 117.47 98.26 C 116.66 98.26 115.99 98.92 115.99 99.74 C 115.99 100.56 116.66 101.22 117.47 101.22 Z M 118.56 101.21 L 119.59 101.21 C 120.40 101.21 121.06 100.55 121.06 99.74 C 121.06 98.93 120.40 98.27 119.59 98.27 L 118.56 98.27 C 117.75 98.27 117.09 98.93 117.09 99.74 C 117.09 100.55 117.75 101.21 118.56 101.21 Z M 119.59 101.20 L 120.56 101.20 C 121.37 101.20 122.02 100.55 122.02 99.74 C 122.02 98.94 121.37 98.29 120.56 98.29 L 119.59 98.29 C 118.79 98.29 118.14 98.94 118.14 99.74 C 118.14 100.55 118.79 101.20 119.59 101.20 Z M 120.56 101.18 L 121.50 101.18 C 122.30 101.18 122.95 100.54 122.95 99.74 C 122.95 98.95 122.30 98.30 121.50 98.30 L 120.56 98.30 C 119.77 98.30 119.12 98.95 119.12 99.74 C 119.12 100.54 119.77 101.18 120.56 101.18 Z M 121.50 101.17 L 122.46 101.17 C 123.25 101.17 123.89 100.53 123.89 99.74 C 123.89 98.95 123.25 98.31 122.46 98.31 L 121.50 98.31 C 120.71 98.31 120.07 98.95 120.07 99.74 C 120.07 100.53 120.71 101.17 121.50 101.17 Z M 122.46 101.17 L 123.45 101.17 C 124.24 101.17 124.88 100.53 124.88 99.74 C 124.88 98.95 124.24 98.31 123.45 98.31 L 122.46 98.31 C 121.67 98.31 121.03 98.95 121.03 99.74 C 121.03 100.53 121.67 101.17 122.46 101.17 Z M 123.45 101.17 L 124.46 101.17 C 125.24 101.17 125.88 100.53 125.88 99.74 C 125.88 98.95 125.24 98.31 124.46 98.31 L 123.45 98.31 C 122.67 98.31 122.03 98.95 122.03 99.74 C 122.03 100.53 122.67 101.17 123.45 101.17 Z M 124.46 101.17 L 125.46 101.17 C 126.25 101.17 126.89 100.53 126.89 99.74 C 126.89 98.95 126.25 98.32 125.46 98.32 L 124.46 98.32 C 123.67 98.32 123.03 98.95 123.03 99.74 C 123.03 100.53 123.67 101.17 124.46 101.17 Z M 125.46 101.17 L 126.25 101.17 C 127.04 101.17 127.67 100.53 127.67 99.74 C 127.67 98.95 127.04 98.32 126.25 98.32 L 125.46 98.32 C 124.67 98.32 124.03 98.95 124.03 99.74 C 124.03 100.53 124.67 101.17 125.46 101.17 Z"
      fill="black"
      fill-rule="nonzero" /></svg>