<svg xmlns="http://www.w3.org/2000/svg" width="300" height="300" viewBox="0 0 300 300">
<path d="M 117.36 193.61 L 118.28 193.54 C 119.12 193.48 119.75 192.75 119.69 191.91 C 119.64 191.07 118.90 190.43 118.06 190.49 L 117.14 190.56 C 116.30 190.62 115.67 191.35 115.73 192.19 C 115.79 193.03 116.52 193.67 117.36 193.61 Z M 118.35 193.54 L 119.28 193.43 C 120.13 193.33 120.73 192.56 120.62 191.72 C 120.52 190.88 119.76 190.28 118.92 190.38 L 117.99 190.49 C 117.15 190.59 116.55 191.36 116.65 192.20 C 116.75 193.04 117.51 193.64 118.35 193.54 Z M 119.42 193.41 L 120.38 193.20 C 121.21 193.03 121.74 192.21 121.56 191.38 C 121.39 190.54 120.57 190.02 119.74 190.19 L 118.78 190.40 C 117.95 190.58 117.42 191.40 117.60 192.23 C 117.78 193.06 118.59 193.59 119.42 193.41 Z M 120.57 193.16 L 121.56 192.81 C 122.37 192.53 122.80 191.65 122.52 190.85 C 122.24 190.04 121.36 189.61 120.55 189.89 L 119.55 190.24 C 118.75 190.52 118.32 191.40 118.60 192.20 C 118.88 193.01 119.76 193.44 120.57 193.16 Z M 121.75 192.74 L 122.68 192.28 C 123.45 191.89 123.76 190.96 123.38 190.20 C 123.00 189.43 122.07 189.12 121.30 189.50 L 120.37 189.96 C 119.60 190.35 119.29 191.28 119.67 192.04 C 120.05 192.81 120.98 193.12 121.75 192.74 Z M 122.81 192.20 L 123.59 191.72 C 124.31 191.27 124.53 190.31 124.08 189.58 C 123.62 188.86 122.67 188.63 121.94 189.09 L 121.17 189.57 C 120.44 190.03 120.22 190.98 120.67 191.71 C 121.13 192.44 122.09 192.66 122.81 192.20 Z M 123.67 191.67 L 124.46 191.10 C 125.16 190.60 125.31 189.63 124.81 188.93 C 124.31 188.24 123.34 188.08 122.64 188.58 L 121.86 189.14 C 121.16 189.64 121.00 190.62 121.50 191.31 C 122.00 192.01 122.97 192.17 123.67 191.67 Z M 124.52 191.05 L 125.32 190.42 C 125.99 189.89 126.10 188.91 125.56 188.24 C 125.03 187.56 124.05 187.45 123.38 187.99 L 122.58 188.62 C 121.91 189.16 121.80 190.14 122.34 190.81 C 122.87 191.48 123.85 191.59 124.52 191.05 Z M 125.36 190.38 L 126.15 189.70 C 126.80 189.14 126.88 188.16 126.31 187.50 C 125.75 186.85 124.77 186.78 124.12 187.34 L 123.33 188.03 C 122.68 188.59 122.61 189.57 123.17 190.22 C 123.73 190.87 124.71 190.94 125.36 190.38 Z M 126.19 189.67 L 126.97 188.95 C 127.60 188.37 127.64 187.39 127.06 186.75 C 126.48 186.12 125.49 186.08 124.86 186.66 L 124.08 187.38 C 123.45 187.96 123.41 188.94 123.99 189.58 C 124.57 190.21 125.56 190.25 126.19 189.67 Z M 127.00 188.93 L 127.75 188.20 C 128.37 187.60 128.38 186.61 127.78 185.99 C 127.18 185.38 126.20 185.36 125.58 185.96 L 124.83 186.69 C 124.21 187.29 124.19 188.28 124.79 188.89 C 125.39 189.51 126.38 189.53 127.00 188.93 Z M 127.78 188.17 L 128.57 187.37 C 129.17 186.76 129.16 185.77 128.55 185.16 C 127.93 184.56 126.95 184.57 126.34 185.18 L 125.55 185.99 C 124.95 186.60 124.96 187.59 125.57 188.19 C 126.18 188.80 127.17 188.79 127.78 188.17 Z M 128.59 187.35 L 129.35 186.54 C 129.94 185.92 129.91 184.93 129.28 184.34 C 128.65 183.75 127.67 183.78 127.07 184.40 L 126.32 185.20 C 125.73 185.83 125.76 186.82 126.38 187.41 C 127.01 188.00 128.00 187.97 128.59 187.35 Z M 129.37 186.52 L 130.07 185.75 C 130.65 185.11 130.60 184.12 129.96 183.54 C 129.32 182.96 128.34 183.01 127.76 183.65 L 127.05 184.42 C 126.47 185.06 126.52 186.05 127.16 186.63 C 127.80 187.21 128.79 187.16 129.37 186.52 Z M 130.09 185.73 L 130.73 184.99 C 131.30 184.34 131.24 183.36 130.59 182.79 C 129.94 182.22 128.96 182.28 128.39 182.93 L 127.74 183.67 C 127.17 184.32 127.24 185.30 127.88 185.87 C 128.53 186.44 129.52 186.38 130.09 185.73 Z M 130.75 184.98 L 131.34 184.28 C 131.90 183.63 131.82 182.64 131.17 182.08 C 130.51 181.52 129.53 181.60 128.97 182.25 L 128.37 182.95 C 127.81 183.60 127.89 184.59 128.55 185.15 C 129.20 185.71 130.19 185.63 130.75 184.98 Z M 131.35 184.27 L 131.90 183.62 C 132.45 182.96 132.36 181.97 131.70 181.42 C 131.04 180.87 130.05 180.95 129.50 181.61 L 128.95 182.27 C 128.40 182.93 128.49 183.91 129.15 184.47 C 129.81 185.02 130.80 184.93 131.35 184.27 Z M 131.91 183.61 L 132.64 182.71 C 133.19 182.04 133.09 181.05 132.42 180.51 C 131.76 179.96 130.77 180.06 130.23 180.73 L 129.49 181.63 C 128.94 182.30 129.04 183.28 129.71 183.83 C 130.38 184.37 131.36 184.27 131.91 183.61 Z M 132.66 182.68 L 133.28 181.90 C 133.81 181.22 133.69 180.24 133.02 179.71 C 132.34 179.18 131.36 179.29 130.82 179.97 L 130.21 180.75 C 129.67 181.43 129.79 182.41 130.47 182.94 C 131.15 183.48 132.13 183.36 132.66 182.68 Z M 133.30 181.87 L 133.84 181.16 C 134.35 180.47 134.21 179.49 133.52 178.97 C 132.83 178.45 131.85 178.59 131.34 179.28 L 130.80 180.00 C 130.28 180.69 130.42 181.67 131.11 182.19 C 131.80 182.70 132.78 182.56 133.30 181.87 Z M 133.86 181.12 L 134.39 180.37 C 134.89 179.67 134.73 178.69 134.02 178.19 C 133.32 177.69 132.34 177.86 131.85 178.56 L 131.31 179.32 C 130.81 180.02 130.98 180.99 131.68 181.49 C 132.39 181.99 133.36 181.83 133.86 181.12 Z M 134.42 180.34 L 134.97 179.52 C 135.45 178.80 135.26 177.83 134.54 177.35 C 133.82 176.87 132.85 177.06 132.37 177.78 L 131.82 178.60 C 131.34 179.32 131.53 180.29 132.25 180.77 C 132.97 181.25 133.94 181.05 134.42 180.34 Z M 134.99 179.48 L 135.53 178.63 C 135.99 177.90 135.77 176.93 135.04 176.47 C 134.31 176.01 133.34 176.23 132.88 176.96 L 132.35 177.82 C 131.89 178.55 132.11 179.51 132.84 179.97 C 133.57 180.43 134.53 180.21 134.99 179.48 Z M 135.55 178.59 L 136.06 177.72 C 136.50 176.98 136.25 176.02 135.51 175.58 C 134.77 175.14 133.81 175.39 133.37 176.13 L 132.86 177.00 C 132.42 177.75 132.67 178.70 133.41 179.14 C 134.16 179.58 135.11 179.33 135.55 178.59 Z M 136.08 177.68 L 136.56 176.82 C 136.98 176.07 136.71 175.12 135.95 174.70 C 135.20 174.28 134.25 174.55 133.83 175.31 L 133.35 176.17 C 132.93 176.92 133.20 177.87 133.96 178.29 C 134.71 178.71 135.66 178.44 136.08 177.68 Z M 136.57 176.80 L 137.05 175.91 C 137.45 175.15 137.16 174.20 136.40 173.80 C 135.64 173.39 134.69 173.68 134.29 174.45 L 133.81 175.33 C 133.41 176.09 133.70 177.04 134.46 177.44 C 135.22 177.85 136.17 177.56 136.57 176.80 Z M 137.05 175.89 L 137.52 174.99 C 137.92 174.22 137.62 173.28 136.85 172.88 C 136.08 172.49 135.14 172.79 134.74 173.56 L 134.28 174.46 C 133.88 175.23 134.18 176.17 134.95 176.57 C 135.72 176.96 136.66 176.66 137.05 175.89 Z M 137.53 174.98 L 137.97 174.10 C 138.36 173.33 138.06 172.39 137.29 172.00 C 136.52 171.61 135.58 171.91 135.19 172.68 L 134.74 173.57 C 134.35 174.34 134.66 175.28 135.43 175.67 C 136.20 176.06 137.14 175.75 137.53 174.98 Z M 137.98 174.08 L 138.42 173.19 C 138.80 172.41 138.49 171.48 137.71 171.09 C 136.94 170.71 136.00 171.03 135.62 171.80 L 135.18 172.70 C 134.80 173.47 135.12 174.41 135.89 174.79 C 136.66 175.17 137.60 174.85 137.98 174.08 Z M 138.43 173.16 L 138.86 172.25 C 139.23 171.47 138.90 170.54 138.12 170.17 C 137.34 169.80 136.41 170.14 136.04 170.92 L 135.61 171.83 C 135.24 172.61 135.57 173.54 136.35 173.91 C 137.13 174.28 138.07 173.94 138.43 173.16 Z M 138.88 172.22 L 139.29 171.31 C 139.64 170.52 139.28 169.59 138.49 169.24 C 137.70 168.89 136.78 169.25 136.43 170.04 L 136.02 170.95 C 135.67 171.74 136.03 172.66 136.82 173.01 C 137.61 173.36 138.53 173.01 138.88 172.22 Z M 139.30 171.27 L 139.68 170.36 C 140.01 169.56 139.63 168.65 138.84 168.32 C 138.04 167.99 137.12 168.36 136.79 169.16 L 136.41 170.07 C 136.08 170.87 136.46 171.78 137.26 172.11 C 138.05 172.45 138.97 172.07 139.30 171.27 Z M 139.69 170.33 L 140.06 169.40 C 140.37 168.60 139.98 167.69 139.18 167.38 C 138.37 167.06 137.46 167.46 137.15 168.26 L 136.78 169.19 C 136.47 169.99 136.86 170.90 137.66 171.21 C 138.47 171.53 139.37 171.14 139.69 170.33 Z M 140.06 169.39 L 140.42 168.44 C 140.73 167.63 140.32 166.73 139.51 166.42 C 138.71 166.12 137.81 166.52 137.50 167.33 L 137.14 168.28 C 136.84 169.09 137.24 169.99 138.05 170.29 C 138.86 170.60 139.76 170.19 140.06 169.39 Z M 140.43 168.42 L 140.78 167.47 C 141.08 166.66 140.66 165.76 139.85 165.46 C 139.04 165.16 138.15 165.58 137.85 166.39 L 137.50 167.34 C 137.20 168.15 137.61 169.05 138.42 169.35 C 139.23 169.65 140.13 169.23 140.43 168.42 Z M 140.78 167.46 L 141.13 166.50 C 141.42 165.69 141.00 164.79 140.18 164.50 C 139.37 164.21 138.48 164.63 138.19 165.45 L 137.84 166.40 C 137.55 167.21 137.97 168.11 138.79 168.40 C 139.60 168.69 140.49 168.27 140.78 167.46 Z M 141.13 166.48 L 141.46 165.53 C 141.74 164.71 141.31 163.83 140.49 163.54 C 139.67 163.26 138.79 163.70 138.50 164.51 L 138.18 165.46 C 137.90 166.28 138.33 167.17 139.15 167.45 C 139.96 167.73 140.85 167.30 141.13 166.48 Z M 141.47 165.50 L 141.77 164.57 C 142.04 163.75 141.59 162.87 140.76 162.61 C 139.94 162.34 139.06 162.79 138.80 163.61 L 138.50 164.54 C 138.23 165.36 138.68 166.25 139.50 166.51 C 140.32 166.78 141.21 166.33 141.47 165.50 Z M 141.78 164.54 L 142.05 163.64 C 142.29 162.81 141.82 161.94 140.99 161.70 C 140.16 161.45 139.29 161.93 139.05 162.75 L 138.78 163.65 C 138.54 164.48 139.01 165.35 139.84 165.59 C 140.67 165.84 141.54 165.37 141.78 164.54 Z M 142.06 163.59 L 142.30 162.68 C 142.52 161.85 142.02 160.99 141.18 160.77 C 140.34 160.56 139.49 161.06 139.27 161.89 L 139.03 162.80 C 138.82 163.64 139.32 164.49 140.15 164.71 C 140.99 164.93 141.84 164.43 142.06 163.59 Z M 142.31 162.63 L 142.53 161.65 C 142.72 160.80 142.19 159.97 141.34 159.78 C 140.50 159.59 139.66 160.12 139.48 160.97 L 139.26 161.95 C 139.07 162.79 139.60 163.63 140.45 163.82 C 141.29 164.00 142.12 163.47 142.31 162.63 Z M 142.54 161.60 L 142.75 160.51 C 142.91 159.66 142.35 158.84 141.50 158.68 C 140.65 158.52 139.83 159.08 139.67 159.93 L 139.47 161.02 C 139.31 161.86 139.86 162.68 140.71 162.84 C 141.56 163.00 142.38 162.45 142.54 161.60 Z M 142.75 160.48 L 142.90 159.58 C 143.04 158.73 142.47 157.92 141.61 157.78 C 140.76 157.64 139.95 158.22 139.81 159.07 L 139.66 159.97 C 139.52 160.82 140.10 161.62 140.95 161.77 C 141.81 161.91 142.61 161.33 142.75 160.48 Z M 142.91 159.56 L 143.05 158.59 C 143.18 157.74 142.59 156.94 141.73 156.81 C 140.88 156.68 140.08 157.27 139.95 158.13 L 139.81 159.10 C 139.68 159.95 140.27 160.75 141.13 160.87 C 141.98 161.00 142.78 160.41 142.91 159.56 Z M 143.05 158.57 L 143.19 157.55 C 143.30 156.70 142.70 155.91 141.84 155.79 C 140.98 155.68 140.20 156.28 140.08 157.14 L 139.95 158.15 C 139.83 159.01 140.44 159.80 141.29 159.91 C 142.15 160.03 142.94 159.42 143.05 158.57 Z M 143.19 157.53 L 143.31 156.49 C 143.41 155.63 142.80 154.85 141.94 154.75 C 141.08 154.65 140.30 155.27 140.20 156.13 L 140.08 157.17 C 139.98 158.02 140.59 158.80 141.45 158.90 C 142.31 159.00 143.09 158.39 143.19 157.53 Z M 143.32 156.46 L 143.42 155.42 C 143.50 154.56 142.87 153.79 142.01 153.70 C 141.15 153.62 140.38 154.25 140.30 155.11 L 140.20 156.15 C 140.11 157.01 140.74 157.78 141.60 157.87 C 142.46 157.95 143.23 157.32 143.32 156.46 Z M 143.42 155.39 L 143.50 154.39 C 143.57 153.53 142.92 152.77 142.06 152.71 C 141.20 152.64 140.44 153.28 140.38 154.14 L 140.30 155.14 C 140.23 156.00 140.87 156.76 141.74 156.83 C 142.60 156.89 143.35 156.25 143.42 155.39 Z M 143.50 154.36 L 143.56 153.39 C 143.61 152.52 142.96 151.78 142.09 151.73 C 141.23 151.68 140.48 152.33 140.43 153.20 L 140.37 154.17 C 140.32 155.04 140.98 155.78 141.84 155.83 C 142.71 155.88 143.45 155.23 143.50 154.36 Z M 143.56 153.36 L 143.61 152.38 C 143.64 151.52 142.97 150.79 142.11 150.75 C 141.24 150.71 140.51 151.38 140.47 152.25 L 140.43 153.22 C 140.39 154.09 141.06 154.82 141.93 154.86 C 142.79 154.90 143.53 154.23 143.56 153.36 Z M 143.61 152.36 L 143.64 151.37 C 143.66 150.51 142.98 149.78 142.12 149.76 C 141.25 149.73 140.53 150.41 140.50 151.28 L 140.47 152.27 C 140.45 153.13 141.13 153.86 141.99 153.88 C 142.86 153.91 143.58 153.23 143.61 152.36 Z M 143.64 151.36 L 143.66 150.34 C 143.67 149.47 142.99 148.75 142.12 148.74 C 141.26 148.72 140.54 149.41 140.52 150.27 L 140.50 151.29 C 140.49 152.16 141.17 152.88 142.04 152.89 C 142.90 152.91 143.62 152.22 143.64 151.36 Z M 143.66 150.32 L 143.67 149.28 C 143.68 148.41 142.99 147.70 142.12 147.69 C 141.26 147.68 140.55 148.37 140.54 149.24 L 140.52 150.28 C 140.51 151.15 141.20 151.86 142.07 151.87 C 142.94 151.88 143.65 151.19 143.66 150.32 Z M 143.67 149.27 L 143.68 148.24 C 143.68 147.38 142.99 146.67 142.12 146.66 C 141.26 146.66 140.55 147.35 140.54 148.22 L 140.54 149.25 C 140.53 150.11 141.23 150.82 142.09 150.83 C 142.96 150.83 143.66 150.14 143.67 149.27 Z M 143.68 148.23 L 143.68 147.19 C 143.68 146.32 142.98 145.62 142.12 145.62 C 141.25 145.62 140.55 146.32 140.55 147.18 L 140.55 148.23 C 140.54 149.09 141.24 149.79 142.11 149.79 C 142.97 149.80 143.67 149.10 143.68 148.23 Z M 143.68 147.18 L 143.67 146.14 C 143.67 145.28 142.97 144.58 142.10 144.58 C 141.24 144.59 140.54 145.29 140.55 146.15 L 140.55 147.19 C 140.55 148.05 141.26 148.75 142.12 148.75 C 142.98 148.74 143.68 148.04 143.68 147.18 Z M 143.67 146.13 L 143.66 145.12 C 143.65 144.26 142.94 143.57 142.08 143.58 C 141.22 143.59 140.53 144.29 140.54 145.16 L 140.55 146.16 C 140.56 147.03 141.27 147.72 142.13 147.71 C 142.99 147.70 143.68 146.99 143.67 146.13 Z M 143.66 145.10 L 143.64 144.15 C 143.62 143.29 142.90 142.61 142.04 142.63 C 141.18 142.64 140.50 143.36 140.52 144.22 L 140.54 145.17 C 140.56 146.03 141.27 146.71 142.13 146.70 C 142.99 146.68 143.68 145.96 143.66 145.10 Z M 143.63 144.13 L 143.60 143.13 C 143.57 142.27 142.84 141.60 141.98 141.63 C 141.13 141.66 140.45 142.39 140.49 143.24 L 140.52 144.24 C 140.55 145.10 141.28 145.77 142.13 145.74 C 142.99 145.71 143.66 144.99 143.63 144.13 Z M 143.59 143.10 L 143.53 141.96 C 143.48 141.10 142.74 140.45 141.88 140.50 C 141.02 140.55 140.37 141.28 140.42 142.14 L 140.49 143.28 C 140.54 144.14 141.28 144.79 142.13 144.74 C 142.99 144.69 143.65 143.95 143.59 143.10 Z M 143.52 141.92 L 143.44 140.93 C 143.37 140.08 142.62 139.44 141.77 139.51 C 140.91 139.58 140.27 140.33 140.34 141.19 L 140.42 142.18 C 140.49 143.03 141.25 143.67 142.10 143.60 C 142.96 143.53 143.60 142.78 143.52 141.92 Z M 143.44 140.91 L 143.35 140.02 C 143.27 139.16 142.51 138.54 141.65 138.62 C 140.80 138.71 140.17 139.47 140.26 140.32 L 140.34 141.21 C 140.43 142.07 141.19 142.69 142.04 142.61 C 142.90 142.53 143.53 141.77 143.44 140.91 Z M 143.35 140.02 L 143.26 139.12 C 143.18 138.26 142.42 137.64 141.56 137.72 C 140.70 137.81 140.08 138.57 140.17 139.43 L 140.26 140.33 C 140.34 141.18 141.11 141.81 141.96 141.72 C 142.82 141.63 143.44 140.87 143.35 140.02 Z M 143.27 139.13 L 143.18 138.14 C 143.10 137.28 142.34 136.65 141.49 136.73 C 140.63 136.80 140.00 137.56 140.08 138.42 L 140.17 139.41 C 140.24 140.27 141.00 140.90 141.85 140.82 C 142.71 140.75 143.34 139.99 143.27 139.13 Z M 143.18 138.16 L 143.11 137.17 C 143.04 136.32 142.30 135.67 141.44 135.73 C 140.58 135.80 139.94 136.54 140.00 137.40 L 140.07 138.39 C 140.14 139.25 140.88 139.89 141.74 139.83 C 142.60 139.77 143.24 139.02 143.18 138.16 Z M 143.11 137.21 L 143.06 136.21 C 143.02 135.35 142.28 134.69 141.42 134.73 C 140.57 134.77 139.90 135.51 139.95 136.36 L 140.00 137.36 C 140.04 138.22 140.77 138.88 141.63 138.84 C 142.49 138.80 143.15 138.07 143.11 137.21 Z M 143.06 136.24 L 143.04 135.24 C 143.01 134.38 142.30 133.70 141.43 133.72 C 140.57 133.74 139.89 134.46 139.91 135.32 L 139.94 136.33 C 139.97 137.19 140.68 137.87 141.55 137.85 C 142.41 137.82 143.09 137.11 143.06 136.24 Z M 143.05 135.27 L 143.04 134.26 C 143.03 133.40 142.33 132.70 141.46 132.70 C 140.59 132.71 139.89 133.42 139.90 134.29 L 139.91 135.29 C 139.91 136.16 140.62 136.86 141.49 136.85 C 142.35 136.85 143.05 136.14 143.05 135.27 Z M 143.05 134.29 L 143.06 133.29 C 143.07 132.42 142.37 131.71 141.49 131.70 C 140.62 131.69 139.91 132.39 139.90 133.26 L 139.89 134.26 C 139.88 135.13 140.58 135.85 141.45 135.85 C 142.33 135.86 143.04 135.16 143.05 134.29 Z M 143.08 133.33 L 143.12 132.06 C 143.15 131.17 142.45 130.43 141.57 130.41 C 140.69 130.38 139.95 131.07 139.92 131.95 L 139.88 133.23 C 139.85 134.11 140.54 134.85 141.43 134.88 C 142.31 134.91 143.05 134.21 143.08 133.33 Z M 143.14 132.25 L 143.28 131.31 C 143.41 130.41 142.80 129.58 141.90 129.45 C 141.01 129.31 140.17 129.93 140.04 130.82 L 139.90 131.76 C 139.76 132.66 140.38 133.49 141.28 133.63 C 142.17 133.76 143.01 133.14 143.14 132.25 Z M 141.81 132.73 L 142.08 132.71 C 143.00 132.63 143.68 131.81 143.60 130.89 C 143.52 129.97 142.71 129.29 141.79 129.38 L 141.51 129.40 C 140.59 129.48 139.91 130.30 139.99 131.22 C 140.07 132.14 140.89 132.82 141.81 132.73 Z M 140.46 131.86 L 140.84 132.53 C 141.29 133.35 142.32 133.64 143.13 133.19 C 143.94 132.74 144.24 131.71 143.78 130.90 L 143.41 130.22 C 142.96 129.41 141.93 129.12 141.12 129.57 C 140.30 130.02 140.01 131.05 140.46 131.86 Z M 140.75 132.35 L 141.23 133.54 C 141.58 134.40 142.56 134.82 143.42 134.47 C 144.29 134.12 144.70 133.13 144.35 132.27 L 143.87 131.08 C 143.52 130.22 142.54 129.80 141.68 130.15 C 140.81 130.50 140.40 131.48 140.75 132.35 Z M 141.20 133.48 L 141.60 134.56 C 141.92 135.44 142.89 135.89 143.76 135.57 C 144.64 135.25 145.09 134.28 144.77 133.40 L 144.38 132.32 C 144.06 131.45 143.09 131.00 142.21 131.31 C 141.34 131.63 140.88 132.60 141.20 133.48 Z M 141.59 134.54 L 141.88 135.37 C 142.19 136.26 143.15 136.72 144.03 136.41 C 144.92 136.10 145.38 135.14 145.07 134.26 L 144.78 133.43 C 144.47 132.54 143.51 132.08 142.63 132.39 C 141.75 132.70 141.28 133.66 141.59 134.54 Z M 141.88 135.36 L 142.18 136.26 C 142.48 137.14 143.44 137.62 144.32 137.32 C 145.21 137.02 145.68 136.06 145.38 135.18 L 145.08 134.28 C 144.78 133.39 143.82 132.92 142.93 133.22 C 142.05 133.52 141.58 134.47 141.88 135.36 Z M 142.18 136.25 L 142.49 137.21 C 142.78 138.09 143.74 138.58 144.62 138.29 C 145.51 138.00 145.99 137.04 145.70 136.15 L 145.39 135.19 C 145.10 134.30 144.14 133.82 143.25 134.11 C 142.37 134.40 141.88 135.36 142.18 136.25 Z M 142.49 137.19 L 142.81 138.21 C 143.09 139.10 144.04 139.59 144.93 139.31 C 145.82 139.03 146.31 138.08 146.03 137.19 L 145.71 136.17 C 145.43 135.28 144.48 134.79 143.59 135.07 C 142.70 135.35 142.20 136.30 142.49 137.19 Z M 142.80 138.19 L 143.13 139.26 C 143.41 140.15 144.35 140.65 145.24 140.38 C 146.14 140.11 146.64 139.16 146.36 138.27 L 146.04 137.20 C 145.76 136.31 144.82 135.81 143.92 136.08 C 143.03 136.36 142.53 137.30 142.80 138.19 Z M 143.13 139.25 L 143.42 140.23 C 143.68 141.12 144.63 141.63 145.52 141.37 C 146.42 141.10 146.93 140.16 146.66 139.26 L 146.37 138.28 C 146.10 137.39 145.16 136.88 144.27 137.14 C 143.37 137.41 142.86 138.35 143.13 139.25 Z M 143.41 140.21 L 143.67 141.11 C 143.93 142.01 144.87 142.53 145.77 142.27 C 146.67 142.01 147.18 141.07 146.92 140.17 L 146.66 139.28 C 146.41 138.38 145.47 137.86 144.57 138.12 C 143.67 138.38 143.16 139.32 143.41 140.21 Z M 143.67 141.10 L 143.93 142.02 C 144.18 142.92 145.12 143.45 146.02 143.20 C 146.92 142.94 147.44 142.01 147.19 141.11 L 146.93 140.19 C 146.68 139.29 145.74 138.76 144.84 139.02 C 143.94 139.27 143.42 140.20 143.67 141.10 Z M 143.93 142.01 L 144.19 142.96 C 144.43 143.86 145.36 144.39 146.26 144.15 C 147.17 143.90 147.70 142.97 147.45 142.07 L 147.19 141.12 C 146.94 140.22 146.01 139.69 145.11 139.94 C 144.21 140.18 143.68 141.11 143.93 142.01 Z M 144.18 142.95 L 144.44 143.92 C 144.68 144.83 145.61 145.36 146.51 145.12 C 147.42 144.88 147.95 143.95 147.71 143.05 L 147.45 142.08 C 147.21 141.18 146.28 140.64 145.38 140.88 C 144.48 141.12 143.94 142.05 144.18 142.95 Z M 144.44 143.91 L 144.70 144.91 C 144.94 145.81 145.86 146.35 146.76 146.12 C 147.67 145.88 148.21 144.96 147.97 144.05 L 147.71 143.06 C 147.48 142.16 146.55 141.61 145.65 141.85 C 144.75 142.08 144.20 143.01 144.44 143.91 Z M 144.70 144.90 L 144.96 145.92 C 145.19 146.82 146.11 147.37 147.01 147.14 C 147.92 146.91 148.47 145.99 148.24 145.08 L 147.98 144.06 C 147.75 143.16 146.82 142.61 145.92 142.84 C 145.01 143.07 144.47 143.99 144.70 144.90 Z M 144.95 145.91 L 145.21 146.95 C 145.44 147.86 146.36 148.41 147.26 148.18 C 148.17 147.96 148.72 147.04 148.50 146.13 L 148.24 145.09 C 148.01 144.18 147.09 143.63 146.19 143.86 C 145.28 144.08 144.73 145.00 144.95 145.91 Z M 145.21 146.94 L 145.47 147.99 C 145.69 148.90 146.60 149.45 147.51 149.23 C 148.42 149.01 148.98 148.09 148.76 147.19 L 148.50 146.14 C 148.28 145.23 147.36 144.67 146.45 144.90 C 145.55 145.12 144.99 146.03 145.21 146.94 Z M 145.47 147.98 L 145.72 149.04 C 145.94 149.95 146.85 150.51 147.76 150.29 C 148.67 150.07 149.23 149.16 149.01 148.25 L 148.76 147.19 C 148.54 146.28 147.63 145.72 146.72 145.94 C 145.81 146.16 145.25 147.07 145.47 147.98 Z M 145.72 149.03 L 145.96 150.08 C 146.18 150.99 147.09 151.55 148.00 151.34 C 148.91 151.12 149.47 150.21 149.26 149.30 L 149.01 148.25 C 148.80 147.34 147.88 146.78 146.98 147.00 C 146.07 147.21 145.50 148.12 145.72 149.03 Z M 145.96 150.07 L 146.20 151.10 C 146.41 152.01 147.32 152.58 148.23 152.37 C 149.15 152.15 149.71 151.24 149.50 150.33 L 149.26 149.31 C 149.05 148.40 148.14 147.83 147.23 148.04 C 146.32 148.25 145.75 149.16 145.96 150.07 Z M 146.20 151.10 L 146.43 152.09 C 146.64 153.00 147.55 153.57 148.46 153.36 C 149.37 153.15 149.94 152.24 149.73 151.33 L 149.50 150.34 C 149.29 149.43 148.38 148.86 147.47 149.07 C 146.56 149.28 145.99 150.19 146.20 151.10 Z M 146.43 152.09 L 146.64 153.02 C 146.85 153.94 147.76 154.51 148.67 154.30 C 149.58 154.09 150.15 153.18 149.94 152.27 L 149.73 151.33 C 149.52 150.42 148.61 149.85 147.70 150.06 C 146.79 150.27 146.22 151.17 146.43 152.09 Z M 146.64 153.02 L 146.84 153.90 C 147.05 154.81 147.95 155.38 148.87 155.17 C 149.78 154.97 150.35 154.06 150.14 153.15 L 149.94 152.27 C 149.74 151.36 148.83 150.79 147.92 151.00 C 147.01 151.20 146.44 152.11 146.64 153.02 Z M 146.84 153.89 L 147.04 154.76 C 147.24 155.68 148.15 156.25 149.06 156.04 C 149.97 155.84 150.54 154.93 150.34 154.02 L 150.14 153.15 C 149.94 152.24 149.03 151.66 148.12 151.87 C 147.21 152.08 146.63 152.98 146.84 153.89 Z M 147.03 154.76 L 147.31 156.01 C 147.52 156.92 148.42 157.49 149.33 157.29 C 150.25 157.08 150.82 156.18 150.62 155.27 L 150.34 154.02 C 150.14 153.11 149.23 152.54 148.32 152.74 C 147.41 152.94 146.83 153.85 147.03 154.76 Z M 147.31 156.00 L 147.53 157.00 C 147.73 157.92 148.64 158.49 149.55 158.29 C 150.46 158.09 151.04 157.19 150.84 156.27 L 150.62 155.27 C 150.42 154.36 149.51 153.78 148.60 153.98 C 147.69 154.18 147.11 155.09 147.31 156.00 Z M 147.53 157.00 L 147.71 157.84 C 147.91 158.75 148.81 159.33 149.73 159.13 C 150.64 158.93 151.22 158.03 151.02 157.12 L 150.84 156.28 C 150.64 155.36 149.74 154.78 148.83 154.98 C 147.91 155.18 147.33 156.08 147.53 157.00 Z M 147.71 157.83 L 147.88 158.60 C 148.07 159.52 148.97 160.10 149.89 159.90 C 150.80 159.71 151.39 158.81 151.19 157.89 L 151.03 157.12 C 150.83 156.21 149.93 155.63 149.01 155.82 C 148.10 156.02 147.52 156.92 147.71 157.83 Z M 147.87 158.60 L 148.06 159.48 C 148.26 160.40 149.16 160.98 150.07 160.79 C 150.99 160.60 151.57 159.70 151.38 158.78 L 151.19 157.90 C 151.00 156.98 150.10 156.39 149.18 156.59 C 148.27 156.78 147.68 157.68 147.87 158.60 Z M 148.06 159.48 L 148.26 160.42 C 148.45 161.34 149.35 161.92 150.26 161.73 C 151.18 161.54 151.77 160.64 151.58 159.72 L 151.38 158.78 C 151.19 157.87 150.29 157.28 149.37 157.47 C 148.46 157.66 147.87 158.56 148.06 159.48 Z M 148.25 160.42 L 148.47 161.45 C 148.66 162.37 149.56 162.96 150.48 162.77 C 151.40 162.57 151.99 161.67 151.80 160.76 L 151.58 159.72 C 151.39 158.81 150.49 158.21 149.57 158.41 C 148.65 158.60 148.06 159.50 148.25 160.42 Z M 148.46 161.45 L 148.67 162.44 C 148.86 163.36 149.76 163.95 150.68 163.76 C 151.60 163.57 152.19 162.67 152.00 161.75 L 151.80 160.76 C 151.61 159.84 150.71 159.24 149.79 159.43 C 148.87 159.62 148.27 160.52 148.46 161.45 Z M 148.67 162.44 L 148.85 163.31 C 149.04 164.24 149.94 164.83 150.86 164.64 C 151.78 164.45 152.37 163.55 152.18 162.63 L 152.00 161.75 C 151.82 160.83 150.92 160.24 149.99 160.43 C 149.07 160.61 148.48 161.51 148.67 162.44 Z M 148.85 163.31 L 149.04 164.26 C 149.22 165.18 150.12 165.77 151.04 165.59 C 151.97 165.40 152.56 164.51 152.38 163.58 L 152.19 162.64 C 152.00 161.71 151.10 161.12 150.18 161.30 C 149.26 161.49 148.66 162.39 148.85 163.31 Z M 149.04 164.25 L 149.23 165.26 C 149.42 166.18 150.31 166.78 151.23 166.60 C 152.16 166.42 152.76 165.52 152.58 164.60 L 152.38 163.59 C 152.20 162.67 151.30 162.07 150.38 162.25 C 149.45 162.43 148.85 163.32 149.04 164.25 Z M 149.23 165.25 L 149.43 166.32 C 149.61 167.24 150.50 167.85 151.43 167.67 C 152.35 167.49 152.96 166.60 152.78 165.68 L 152.58 164.61 C 152.40 163.69 151.51 163.08 150.59 163.26 C 149.66 163.43 149.06 164.32 149.23 165.25 Z M 149.43 166.30 L 149.63 167.38 C 149.80 168.31 150.69 168.92 151.61 168.75 C 152.54 168.58 153.15 167.69 152.98 166.77 L 152.78 165.69 C 152.61 164.76 151.73 164.15 150.80 164.32 C 149.88 164.49 149.26 165.38 149.43 166.30 Z M 149.63 167.37 L 149.81 168.38 C 149.97 169.31 150.86 169.93 151.78 169.76 C 152.71 169.60 153.33 168.72 153.16 167.79 L 152.98 166.78 C 152.82 165.85 151.94 165.23 151.01 165.40 C 150.08 165.56 149.46 166.44 149.63 167.37 Z M 149.81 168.38 L 149.98 169.40 C 150.14 170.33 151.03 170.95 151.95 170.79 C 152.88 170.63 153.50 169.75 153.34 168.82 L 153.16 167.79 C 153.00 166.87 152.12 166.25 151.19 166.41 C 150.27 166.57 149.65 167.45 149.81 168.38 Z M 149.98 169.40 L 150.16 170.41 C 150.32 171.34 151.20 171.96 152.13 171.81 C 153.05 171.65 153.68 170.76 153.52 169.84 L 153.34 168.82 C 153.18 167.89 152.30 167.27 151.37 167.43 C 150.45 167.59 149.82 168.47 149.98 169.40 Z M 150.16 170.42 L 150.33 171.40 C 150.49 172.33 151.37 172.95 152.30 172.79 C 153.23 172.63 153.85 171.75 153.69 170.82 L 153.52 169.84 C 153.36 168.91 152.48 168.29 151.55 168.45 C 150.62 168.61 150.00 169.49 150.16 170.42 Z M 150.33 171.41 L 150.49 172.35 C 150.66 173.27 151.54 173.89 152.47 173.73 C 153.39 173.57 154.01 172.69 153.85 171.76 L 153.69 170.82 C 153.52 169.89 152.64 169.27 151.71 169.44 C 150.79 169.60 150.17 170.48 150.33 171.41 Z M 150.50 172.36 L 150.68 173.36 C 150.85 174.28 151.73 174.90 152.66 174.73 C 153.58 174.56 154.20 173.67 154.03 172.75 L 153.85 171.75 C 153.68 170.82 152.79 170.21 151.87 170.38 C 150.94 170.54 150.33 171.43 150.50 172.36 Z M 150.68 173.37 L 150.88 174.43 C 151.06 175.36 151.95 175.96 152.88 175.79 C 153.80 175.61 154.41 174.72 154.23 173.79 L 154.03 172.73 C 153.85 171.81 152.96 171.20 152.03 171.38 C 151.11 171.55 150.50 172.45 150.68 173.37 Z M 150.89 174.45 L 151.08 175.41 C 151.26 176.34 152.16 176.94 153.08 176.75 C 154.01 176.57 154.61 175.67 154.42 174.75 L 154.23 173.78 C 154.04 172.85 153.15 172.26 152.22 172.44 C 151.30 172.62 150.70 173.52 150.89 174.45 Z M 151.08 175.42 L 151.27 176.34 C 151.46 177.26 152.36 177.85 153.28 177.66 C 154.20 177.48 154.80 176.58 154.61 175.65 L 154.42 174.74 C 154.23 173.82 153.33 173.22 152.41 173.41 C 151.49 173.60 150.89 174.50 151.08 175.42 Z M 151.27 176.34 L 151.45 177.23 C 151.64 178.15 152.54 178.74 153.46 178.55 C 154.38 178.37 154.98 177.47 154.79 176.54 L 154.61 175.65 C 154.42 174.73 153.52 174.14 152.60 174.32 C 151.67 174.51 151.08 175.41 151.27 176.34 Z M 151.45 177.22 L 151.61 178.04 C 151.80 178.96 152.70 179.56 153.62 179.38 C 154.55 179.19 155.14 178.29 154.96 177.36 L 154.79 176.55 C 154.61 175.62 153.70 175.03 152.78 175.21 C 151.86 175.40 151.26 176.30 151.45 177.22 Z M 151.61 178.05 L 151.79 178.92 C 151.98 179.84 152.89 180.44 153.81 180.25 C 154.73 180.06 155.33 179.16 155.14 178.23 L 154.96 177.36 C 154.77 176.43 153.87 175.84 152.94 176.03 C 152.02 176.22 151.42 177.12 151.61 178.05 Z M 151.79 178.93 L 152.00 179.90 C 152.20 180.82 153.11 181.41 154.03 181.21 C 154.95 181.01 155.54 180.10 155.34 179.18 L 155.14 178.22 C 154.94 177.29 154.03 176.71 153.11 176.90 C 152.18 177.10 151.59 178.01 151.79 178.93 Z M 152.00 179.91 L 152.25 181.00 C 152.45 181.92 153.37 182.50 154.29 182.29 C 155.22 182.08 155.79 181.17 155.59 180.25 L 155.34 179.16 C 155.13 178.24 154.22 177.66 153.29 177.87 C 152.37 178.08 151.79 178.99 152.00 179.91 Z M 152.25 181.02 L 152.52 182.16 C 152.74 183.08 153.66 183.65 154.58 183.43 C 155.51 183.21 156.07 182.29 155.86 181.36 L 155.58 180.22 C 155.36 179.30 154.44 178.74 153.52 178.95 C 152.60 179.17 152.03 180.10 152.25 181.02 Z M 152.52 182.17 L 152.75 183.08 C 152.97 184.00 153.90 184.56 154.82 184.33 C 155.74 184.11 156.31 183.18 156.08 182.26 L 155.85 181.35 C 155.62 180.43 154.69 179.87 153.78 180.10 C 152.86 180.32 152.29 181.25 152.52 182.17 Z M 152.75 183.09 L 152.99 184.05 C 153.23 184.97 154.16 185.53 155.08 185.29 C 156.00 185.06 156.55 184.13 156.32 183.21 L 156.08 182.25 C 155.84 181.33 154.91 180.77 153.99 181.00 C 153.07 181.24 152.52 182.17 152.75 183.09 Z M 152.99 184.06 L 153.25 185.06 C 153.49 185.98 154.42 186.53 155.34 186.29 C 156.26 186.05 156.81 185.12 156.58 184.20 L 156.32 183.20 C 156.08 182.28 155.14 181.73 154.23 181.97 C 153.31 182.21 152.76 183.14 152.99 184.06 Z M 153.25 185.06 L 153.52 186.08 C 153.76 186.99 154.70 187.54 155.61 187.30 C 156.53 187.06 157.08 186.12 156.84 185.21 L 156.57 184.19 C 156.33 183.28 155.40 182.73 154.48 182.97 C 153.56 183.21 153.01 184.15 153.25 185.06 Z M 153.52 186.08 L 153.79 187.09 C 154.03 188.01 154.97 188.55 155.88 188.31 C 156.80 188.07 157.35 187.13 157.11 186.21 L 156.84 185.20 C 156.60 184.28 155.66 183.74 154.74 183.98 C 153.82 184.22 153.28 185.16 153.52 186.08 Z M 153.79 187.09 L 154.05 188.07 C 154.29 188.99 155.23 189.54 156.15 189.29 C 157.07 189.05 157.61 188.10 157.37 187.19 L 157.11 186.21 C 156.86 185.29 155.92 184.74 155.00 184.99 C 154.09 185.23 153.54 186.18 153.79 187.09 Z M 154.05 188.08 L 154.30 189.01 C 154.55 189.93 155.49 190.47 156.41 190.23 C 157.32 189.98 157.87 189.04 157.62 188.12 L 157.37 187.19 C 157.12 186.27 156.18 185.73 155.26 185.97 C 154.35 186.22 153.80 187.16 154.05 188.08 Z M 154.30 189.02 L 154.62 190.18 C 154.86 191.10 155.81 191.64 156.72 191.39 C 157.64 191.14 158.18 190.20 157.93 189.28 L 157.62 188.12 C 157.37 187.20 156.43 186.66 155.51 186.91 C 154.59 187.16 154.05 188.10 154.30 189.02 Z M 154.62 190.19 L 154.92 191.27 C 155.17 192.19 156.12 192.73 157.03 192.48 C 157.95 192.22 158.48 191.28 158.23 190.36 L 157.93 189.28 C 157.68 188.36 156.73 187.82 155.82 188.07 C 154.90 188.33 154.37 189.27 154.62 190.19 Z M 154.92 191.29 L 155.20 192.26 C 155.45 193.17 156.41 193.71 157.32 193.45 C 158.23 193.19 158.76 192.24 158.50 191.32 L 158.23 190.35 C 157.97 189.44 157.02 188.90 156.11 189.16 C 155.19 189.42 154.66 190.37 154.92 191.29 Z M 155.20 192.28 L 155.46 193.15 C 155.73 194.06 156.68 194.59 157.60 194.32 C 158.51 194.05 159.03 193.09 158.76 192.18 L 158.50 191.31 C 158.23 190.39 157.27 189.87 156.36 190.14 C 155.45 190.41 154.93 191.37 155.20 192.28 Z M 155.47 193.18 L 155.71 193.97 C 156.00 194.87 156.96 195.38 157.87 195.10 C 158.77 194.81 159.28 193.85 159.00 192.94 L 158.75 192.15 C 158.47 191.25 157.50 190.74 156.60 191.03 C 155.69 191.31 155.18 192.27 155.47 193.18 Z M 155.73 194.02 L 156.13 195.18 C 156.45 196.08 157.43 196.55 158.33 196.23 C 159.22 195.92 159.70 194.94 159.38 194.04 L 158.98 192.88 C 158.67 191.99 157.68 191.51 156.79 191.83 C 155.89 192.14 155.42 193.12 155.73 194.02 Z M 156.23 195.41 L 156.68 196.26 C 157.12 197.10 158.16 197.43 159.00 196.99 C 159.84 196.55 160.17 195.51 159.73 194.66 L 159.29 193.81 C 158.85 192.97 157.81 192.64 156.96 193.08 C 156.12 193.52 155.79 194.56 156.23 195.41 Z M 159.21 196.87 L 159.49 196.66 C 160.27 196.11 160.44 195.03 159.89 194.26 C 159.34 193.48 158.26 193.30 157.48 193.86 L 157.20 194.06 C 156.42 194.61 156.25 195.69 156.80 196.47 C 157.35 197.24 158.43 197.42 159.21 196.87 Z M 160.20 195.51 L 160.29 194.82 C 160.43 193.88 159.77 193.00 158.83 192.87 C 157.89 192.73 157.01 193.39 156.88 194.33 L 156.78 195.01 C 156.64 195.96 157.30 196.83 158.24 196.97 C 159.18 197.10 160.06 196.45 160.20 195.51 Z M 160.31 194.68 L 160.37 193.68 C 160.42 192.73 159.70 191.91 158.75 191.86 C 157.79 191.80 156.98 192.53 156.92 193.48 L 156.86 194.47 C 156.81 195.43 157.53 196.24 158.48 196.30 C 159.43 196.35 160.25 195.63 160.31 194.68 Z M 160.37 193.64 L 160.41 192.47 C 160.44 191.52 159.69 190.72 158.74 190.69 C 157.79 190.66 156.99 191.40 156.96 192.36 L 156.92 193.53 C 156.89 194.48 157.63 195.28 158.59 195.31 C 159.54 195.34 160.34 194.59 160.37 193.64 Z M 160.41 192.46 L 160.44 191.25 C 160.47 190.30 159.72 189.51 158.77 189.48 C 157.82 189.45 157.02 190.20 156.99 191.15 L 156.96 192.36 C 156.93 193.31 157.68 194.11 158.63 194.14 C 159.58 194.17 160.38 193.42 160.41 192.46 Z M 160.44 191.28 L 160.49 190.12 C 160.54 189.17 159.80 188.36 158.85 188.32 C 157.90 188.28 157.09 189.01 157.05 189.96 L 157.00 191.12 C 156.95 192.07 157.69 192.88 158.64 192.92 C 159.59 192.97 160.40 192.23 160.44 191.28 Z M 160.49 190.16 L 160.56 189.10 C 160.62 188.15 159.91 187.33 158.96 187.27 C 158.01 187.20 157.18 187.92 157.12 188.87 L 157.05 189.93 C 156.99 190.88 157.71 191.70 158.66 191.76 C 159.61 191.83 160.43 191.11 160.49 190.16 Z M 160.56 189.13 L 160.64 188.16 C 160.72 187.21 160.01 186.38 159.06 186.30 C 158.11 186.23 157.28 186.93 157.20 187.88 L 157.12 188.84 C 157.05 189.79 157.75 190.62 158.70 190.70 C 159.65 190.78 160.48 190.08 160.56 189.13 Z M 160.64 188.18 L 160.72 187.28 C 160.80 186.34 160.11 185.50 159.16 185.41 C 158.21 185.33 157.38 186.02 157.29 186.97 L 157.21 187.86 C 157.12 188.81 157.82 189.65 158.76 189.73 C 159.71 189.82 160.55 189.12 160.64 188.18 Z M 160.72 187.28 L 160.80 186.38 C 160.89 185.44 160.19 184.60 159.24 184.51 C 158.30 184.43 157.46 185.12 157.37 186.07 L 157.29 186.97 C 157.20 187.92 157.90 188.75 158.85 188.84 C 159.79 188.93 160.63 188.23 160.72 187.28 Z M 160.80 186.37 L 160.88 185.44 C 160.96 184.50 160.26 183.67 159.31 183.59 C 158.36 183.51 157.53 184.21 157.45 185.15 L 157.37 186.08 C 157.29 187.03 157.99 187.86 158.94 187.94 C 159.89 188.02 160.72 187.32 160.80 186.37 Z M 160.88 185.43 L 160.95 184.45 C 161.02 183.50 160.31 182.68 159.37 182.61 C 158.42 182.54 157.60 183.25 157.53 184.19 L 157.45 185.17 C 157.38 186.12 158.09 186.94 159.04 187.01 C 159.98 187.08 160.81 186.37 160.88 185.43 Z M 160.95 184.43 L 161.02 183.34 C 161.08 182.39 160.37 181.58 159.42 181.52 C 158.47 181.45 157.66 182.17 157.60 183.12 L 157.53 184.21 C 157.46 185.16 158.18 185.97 159.13 186.03 C 160.07 186.10 160.89 185.38 160.95 184.43 Z M 161.02 183.32 L 161.07 182.44 C 161.12 181.49 160.40 180.68 159.46 180.63 C 158.51 180.58 157.70 181.30 157.65 182.25 L 157.60 183.13 C 157.54 184.08 158.27 184.89 159.21 184.94 C 160.16 184.99 160.97 184.27 161.02 183.32 Z M 161.07 182.43 L 161.12 181.54 C 161.16 180.59 160.44 179.79 159.49 179.74 C 158.55 179.69 157.74 180.42 157.69 181.36 L 157.65 182.26 C 157.60 183.20 158.33 184.01 159.27 184.06 C 160.22 184.10 161.02 183.38 161.07 182.43 Z M 161.12 181.53 L 161.16 180.57 C 161.21 179.62 160.48 178.82 159.53 178.78 C 158.59 178.73 157.78 179.46 157.74 180.41 L 157.69 181.37 C 157.65 182.32 158.38 183.12 159.32 183.16 C 160.27 183.21 161.07 182.48 161.12 181.53 Z M 161.16 180.56 L 161.21 179.53 C 161.25 178.58 160.52 177.78 159.57 177.74 C 158.63 177.70 157.83 178.43 157.78 179.38 L 157.74 180.41 C 157.70 181.36 158.43 182.16 159.37 182.20 C 160.32 182.24 161.12 181.51 161.16 180.56 Z M 161.21 179.52 L 161.25 178.43 C 161.29 177.48 160.56 176.68 159.61 176.64 C 158.67 176.61 157.87 177.34 157.83 178.28 L 157.78 179.38 C 157.74 180.33 158.48 181.13 159.42 181.16 C 160.37 181.20 161.17 180.47 161.21 179.52 Z M 161.25 178.42 L 161.30 177.27 C 161.33 176.32 160.60 175.53 159.65 175.49 C 158.71 175.45 157.91 176.19 157.88 177.13 L 157.83 178.29 C 157.79 179.23 158.53 180.03 159.47 180.07 C 160.42 180.10 161.21 179.37 161.25 178.42 Z M 161.30 177.27 L 161.34 176.23 C 161.37 175.28 160.63 174.49 159.69 174.45 C 158.75 174.42 157.95 175.16 157.92 176.10 L 157.88 177.14 C 157.84 178.08 158.58 178.87 159.52 178.91 C 160.47 178.95 161.26 178.21 161.30 177.27 Z M 161.33 176.23 L 161.37 175.17 C 161.41 174.23 160.67 173.43 159.73 173.40 C 158.78 173.36 157.99 174.10 157.96 175.05 L 157.92 176.10 C 157.88 177.05 158.62 177.84 159.56 177.87 C 160.51 177.91 161.30 177.17 161.33 176.23 Z M 161.37 175.17 L 161.41 174.11 C 161.44 173.17 160.71 172.38 159.76 172.35 C 158.82 172.31 158.03 173.05 157.99 173.99 L 157.96 175.05 C 157.92 175.99 158.66 176.78 159.60 176.82 C 160.55 176.85 161.34 176.11 161.37 175.17 Z M 161.41 174.11 L 161.45 173.08 C 161.48 172.14 160.74 171.35 159.80 171.31 C 158.86 171.28 158.06 172.02 158.03 172.96 L 157.99 173.99 C 157.96 174.94 158.70 175.73 159.64 175.76 C 160.58 175.79 161.38 175.06 161.41 174.11 Z M 161.44 173.08 L 161.48 172.09 C 161.51 171.15 160.78 170.36 159.83 170.32 C 158.89 170.29 158.10 171.03 158.07 171.97 L 158.03 172.96 C 158.00 173.90 158.74 174.69 159.68 174.73 C 160.62 174.76 161.41 174.02 161.44 173.08 Z M 161.48 172.09 L 161.51 171.16 C 161.54 170.22 160.81 169.43 159.87 169.40 C 158.92 169.36 158.13 170.10 158.10 171.04 L 158.07 171.97 C 158.04 172.91 158.77 173.70 159.71 173.73 C 160.65 173.77 161.44 173.03 161.48 172.09 Z M 161.51 171.16 L 161.54 170.17 C 161.58 169.23 160.84 168.44 159.90 168.41 C 158.96 168.38 158.17 169.11 158.14 170.05 L 158.10 171.04 C 158.07 171.98 158.80 172.77 159.75 172.80 C 160.69 172.84 161.48 172.10 161.51 171.16 Z M 161.54 170.17 L 161.59 168.98 C 161.62 168.04 160.89 167.25 159.95 167.22 C 159.01 167.18 158.22 167.92 158.18 168.86 L 158.14 170.05 C 158.10 170.99 158.84 171.78 159.78 171.81 C 160.72 171.85 161.51 171.11 161.54 170.17 Z M 161.58 168.98 L 161.62 167.98 C 161.65 167.05 160.92 166.26 159.98 166.22 C 159.04 166.19 158.25 166.93 158.22 167.87 L 158.18 168.86 C 158.15 169.80 158.89 170.59 159.82 170.62 C 160.76 170.65 161.55 169.92 161.58 168.98 Z M 161.62 167.98 L 161.65 167.11 C 161.67 166.17 160.94 165.39 160.00 165.36 C 159.06 165.33 158.28 166.07 158.25 167.01 L 158.22 167.87 C 158.19 168.81 158.93 169.60 159.87 169.62 C 160.81 169.65 161.59 168.92 161.62 167.98 Z M 161.64 167.10 L 161.66 166.24 C 161.68 165.30 160.94 164.52 160.00 164.50 C 159.07 164.48 158.29 165.22 158.27 166.16 L 158.25 167.02 C 158.23 167.96 158.97 168.74 159.91 168.76 C 160.84 168.78 161.62 168.04 161.64 167.10 Z M 161.66 166.22 L 161.68 165.21 C 161.69 164.28 160.94 163.51 160.00 163.49 C 159.07 163.48 158.29 164.23 158.28 165.17 L 158.27 166.18 C 158.26 167.12 159.00 167.89 159.94 167.90 C 160.88 167.91 161.65 167.16 161.66 166.22 Z M 161.68 165.21 L 161.69 164.22 C 161.70 163.28 160.95 162.51 160.01 162.50 C 159.07 162.49 158.30 163.24 158.29 164.18 L 158.28 165.17 C 158.27 166.11 159.02 166.88 159.96 166.89 C 160.90 166.90 161.66 166.15 161.68 165.21 Z M 161.69 164.23 L 161.70 163.24 C 161.72 162.30 160.97 161.53 160.04 161.51 C 159.10 161.50 158.33 162.24 158.31 163.18 L 158.30 164.17 C 158.28 165.10 159.02 165.88 159.96 165.89 C 160.90 165.91 161.67 165.16 161.69 164.23 Z M 161.70 163.26 L 161.73 162.26 C 161.76 161.32 161.02 160.54 160.09 160.51 C 159.15 160.49 158.37 161.22 158.34 162.16 L 158.31 163.16 C 158.29 164.09 159.02 164.87 159.96 164.90 C 160.89 164.93 161.67 164.19 161.70 163.26 Z M 161.73 162.27 L 161.77 161.28 C 161.81 160.34 161.08 159.55 160.14 159.52 C 159.21 159.48 158.42 160.21 158.38 161.14 L 158.35 162.14 C 158.31 163.08 159.04 163.87 159.97 163.90 C 160.91 163.94 161.69 163.21 161.73 162.27 Z M 161.77 161.28 L 161.81 160.28 C 161.85 159.35 161.13 158.56 160.19 158.52 C 159.26 158.48 158.47 159.20 158.43 160.14 L 158.39 161.14 C 158.35 162.07 159.07 162.86 160.00 162.90 C 160.94 162.94 161.73 162.22 161.77 161.28 Z M 161.81 160.28 L 161.85 159.28 C 161.89 158.35 161.17 157.56 160.23 157.52 C 159.30 157.48 158.51 158.21 158.47 159.14 L 158.43 160.14 C 158.39 161.07 159.11 161.86 160.05 161.90 C 160.98 161.94 161.77 161.22 161.81 160.28 Z M 161.85 159.27 L 161.89 158.27 C 161.92 157.34 161.20 156.56 160.26 156.52 C 159.33 156.49 158.54 157.22 158.51 158.15 L 158.47 159.15 C 158.44 160.08 159.17 160.87 160.10 160.90 C 161.03 160.94 161.82 160.21 161.85 159.27 Z M 161.89 158.26 L 161.92 157.27 C 161.94 156.34 161.21 155.56 160.27 155.53 C 159.34 155.51 158.56 156.24 158.54 157.18 L 158.51 158.17 C 158.48 159.10 159.22 159.88 160.15 159.90 C 161.09 159.93 161.86 159.19 161.89 158.26 Z M 161.92 157.25 L 161.93 156.39 C 161.95 155.45 161.20 154.68 160.27 154.67 C 159.34 154.65 158.57 155.40 158.55 156.33 L 158.54 157.20 C 158.52 158.13 159.26 158.90 160.20 158.91 C 161.13 158.93 161.90 158.18 161.92 157.25 Z M 161.93 156.38 L 161.94 155.44 C 161.96 154.51 161.21 153.74 160.28 153.73 C 159.34 153.71 158.58 154.46 158.56 155.39 L 158.55 156.33 C 158.54 157.27 159.28 158.03 160.22 158.05 C 161.15 158.06 161.92 157.31 161.93 156.38 Z M 161.94 155.45 L 161.96 154.36 C 161.98 153.43 161.24 152.66 160.31 152.64 C 159.38 152.62 158.60 153.37 158.59 154.30 L 158.56 155.38 C 158.55 156.32 159.29 157.09 160.22 157.11 C 161.15 157.12 161.92 156.38 161.94 155.45 Z M 161.96 154.38 L 161.99 153.35 C 162.02 152.42 161.28 151.65 160.35 151.62 C 159.42 151.59 158.64 152.33 158.62 153.26 L 158.59 154.28 C 158.56 155.22 159.30 155.99 160.23 156.02 C 161.16 156.04 161.94 155.31 161.96 154.38 Z M 161.99 153.37 L 162.02 152.49 C 162.05 151.56 161.32 150.78 160.39 150.74 C 159.46 150.71 158.68 151.44 158.65 152.37 L 158.62 153.25 C 158.58 154.18 159.31 154.96 160.25 155.00 C 161.18 155.03 161.96 154.30 161.99 153.37 Z M 162.02 152.50 L 162.06 151.55 C 162.09 150.61 161.37 149.83 160.43 149.79 C 159.50 149.76 158.72 150.48 158.68 151.42 L 158.65 152.37 C 158.61 153.30 159.34 154.08 160.27 154.12 C 161.20 154.15 161.98 153.43 162.02 152.50 Z M 162.06 151.55 L 162.10 150.53 C 162.14 149.60 161.41 148.82 160.48 148.78 C 159.55 148.74 158.77 149.46 158.73 150.39 L 158.68 151.41 C 158.64 152.34 159.37 153.13 160.30 153.17 C 161.23 153.21 162.02 152.48 162.06 151.55 Z M 162.10 150.54 L 162.15 149.46 C 162.19 148.53 161.47 147.75 160.54 147.70 C 159.60 147.66 158.82 148.38 158.77 149.31 L 158.73 150.39 C 158.69 151.32 159.41 152.11 160.34 152.15 C 161.27 152.19 162.06 151.47 162.10 150.54 Z M 162.15 149.47 L 162.20 148.35 C 162.24 147.42 161.52 146.63 160.59 146.59 C 159.66 146.54 158.87 147.26 158.83 148.19 L 158.78 149.31 C 158.73 150.24 159.45 151.03 160.38 151.07 C 161.31 151.12 162.10 150.40 162.15 149.47 Z M 162.20 148.35 L 162.25 147.28 C 162.30 146.35 161.58 145.56 160.65 145.51 C 159.72 145.47 158.93 146.18 158.88 147.11 L 158.83 148.19 C 158.78 149.12 159.50 149.91 160.43 149.96 C 161.36 150.00 162.15 149.28 162.20 148.35 Z M 162.25 147.28 L 162.30 146.24 C 162.35 145.31 161.64 144.51 160.71 144.47 C 159.78 144.42 158.98 145.13 158.94 146.06 L 158.88 147.11 C 158.83 148.04 159.55 148.83 160.48 148.88 C 161.41 148.93 162.20 148.21 162.25 147.28 Z M 162.30 146.24 L 162.36 145.20 C 162.41 144.27 161.70 143.47 160.77 143.42 C 159.84 143.37 159.04 144.08 158.99 145.01 L 158.94 146.06 C 158.89 146.99 159.60 147.78 160.53 147.83 C 161.46 147.88 162.25 147.17 162.30 146.24 Z M 162.36 145.20 L 162.42 144.17 C 162.47 143.25 161.76 142.45 160.84 142.39 C 159.91 142.34 159.11 143.05 159.05 143.98 L 158.99 145.01 C 158.94 145.94 159.65 146.73 160.58 146.79 C 161.51 146.84 162.30 146.13 162.36 145.20 Z M 162.42 144.18 L 162.48 143.19 C 162.54 142.26 161.84 141.46 160.91 141.40 C 159.98 141.34 159.18 142.04 159.12 142.97 L 159.06 143.97 C 159.00 144.90 159.70 145.70 160.63 145.76 C 161.56 145.82 162.36 145.11 162.42 144.18 Z M 162.48 143.20 L 162.55 142.25 C 162.61 141.32 161.91 140.51 160.98 140.45 C 160.06 140.38 159.25 141.08 159.19 142.01 L 159.12 142.96 C 159.06 143.89 159.76 144.69 160.68 144.76 C 161.61 144.82 162.42 144.12 162.48 143.20 Z M 162.54 142.26 L 162.62 141.34 C 162.69 140.42 162.00 139.61 161.07 139.53 C 160.14 139.46 159.33 140.15 159.26 141.08 L 159.19 142.00 C 159.12 142.92 159.81 143.73 160.74 143.81 C 161.66 143.88 162.47 143.19 162.54 142.26 Z M 162.61 141.37 L 162.72 140.21 C 162.81 139.28 162.12 138.46 161.20 138.38 C 160.27 138.29 159.45 138.97 159.37 139.90 L 159.26 141.06 C 159.18 141.98 159.86 142.80 160.78 142.89 C 161.71 142.97 162.53 142.29 162.61 141.37 Z M 162.72 140.24 L 162.83 139.21 C 162.93 138.28 162.27 137.45 161.34 137.35 C 160.42 137.25 159.59 137.91 159.49 138.83 L 159.37 139.87 C 159.27 140.79 159.94 141.62 160.86 141.72 C 161.78 141.83 162.61 141.16 162.72 140.24 Z M 162.83 139.24 L 162.95 138.30 C 163.07 137.38 162.42 136.54 161.50 136.41 C 160.58 136.29 159.74 136.94 159.62 137.86 L 159.49 138.80 C 159.37 139.72 160.02 140.56 160.94 140.69 C 161.86 140.81 162.70 140.16 162.83 139.24 Z M 162.94 138.34 L 163.08 137.46 C 163.22 136.54 162.59 135.68 161.67 135.54 C 160.76 135.40 159.90 136.03 159.76 136.95 L 159.62 137.83 C 159.48 138.74 160.11 139.60 161.03 139.74 C 161.95 139.88 162.80 139.25 162.94 138.34 Z M 163.07 137.49 L 163.24 136.55 C 163.40 135.64 162.79 134.77 161.87 134.61 C 160.96 134.45 160.09 135.06 159.93 135.98 L 159.76 136.91 C 159.60 137.83 160.22 138.70 161.13 138.86 C 162.04 139.02 162.91 138.40 163.07 137.49 Z M 163.23 136.59 L 163.43 135.60 C 163.61 134.69 163.02 133.81 162.11 133.63 C 161.20 133.45 160.32 134.04 160.13 134.95 L 159.94 135.94 C 159.75 136.84 160.34 137.73 161.25 137.91 C 162.16 138.09 163.05 137.50 163.23 136.59 Z M 163.41 135.66 L 163.64 134.69 C 163.85 133.78 163.29 132.88 162.39 132.67 C 161.49 132.46 160.58 133.02 160.37 133.92 L 160.15 134.89 C 159.93 135.80 160.49 136.70 161.40 136.91 C 162.30 137.12 163.20 136.56 163.41 135.66 Z M 163.62 134.75 L 163.89 133.80 C 164.13 132.91 163.61 131.98 162.72 131.74 C 161.83 131.49 160.90 132.01 160.65 132.90 L 160.39 133.86 C 160.14 134.75 160.67 135.67 161.56 135.92 C 162.45 136.17 163.38 135.65 163.62 134.75 Z M 163.86 133.88 L 164.18 132.91 C 164.47 132.03 164.00 131.08 163.12 130.79 C 162.24 130.50 161.29 130.98 161.00 131.85 L 160.68 132.83 C 160.39 133.71 160.87 134.65 161.74 134.94 C 162.62 135.24 163.57 134.76 163.86 133.88 Z M 164.15 133.00 L 164.53 132.05 C 164.87 131.19 164.45 130.21 163.59 129.87 C 162.72 129.53 161.75 129.95 161.41 130.81 L 161.03 131.76 C 160.69 132.62 161.11 133.60 161.97 133.94 C 162.84 134.28 163.81 133.86 164.15 133.00 Z M 164.48 132.15 L 164.91 131.26 C 165.30 130.42 164.95 129.43 164.12 129.03 C 163.28 128.63 162.28 128.98 161.88 129.82 L 161.46 130.71 C 161.06 131.54 161.41 132.54 162.25 132.94 C 163.08 133.34 164.08 132.99 164.48 132.15 Z M 164.84 131.38 L 165.33 130.54 C 165.80 129.75 165.53 128.72 164.73 128.26 C 163.93 127.79 162.91 128.06 162.44 128.86 L 161.95 129.69 C 161.48 130.49 161.75 131.51 162.55 131.98 C 163.35 132.45 164.37 132.18 164.84 131.38 Z M 165.21 130.71 L 165.84 129.89 C 166.40 129.16 166.25 128.11 165.52 127.55 C 164.79 126.99 163.74 127.14 163.18 127.87 L 162.56 128.69 C 162.00 129.42 162.14 130.47 162.87 131.03 C 163.61 131.59 164.65 131.45 165.21 130.71 Z M 165.61 130.13 L 166.35 129.48 C 167.03 128.87 167.10 127.82 166.49 127.13 C 165.88 126.44 164.82 126.38 164.14 126.99 L 163.40 127.63 C 162.71 128.24 162.65 129.30 163.26 129.99 C 163.87 130.68 164.92 130.74 165.61 130.13 Z M 165.98 129.73 L 166.85 129.29 C 167.67 128.89 168.01 127.89 167.60 127.06 C 167.19 126.24 166.20 125.90 165.37 126.31 L 164.50 126.74 C 163.68 127.15 163.34 128.15 163.75 128.97 C 164.16 129.80 165.16 130.13 165.98 129.73 Z M 166.43 129.43 L 167.35 129.25 C 168.25 129.07 168.83 128.20 168.65 127.30 C 168.47 126.40 167.60 125.81 166.70 125.99 L 165.79 126.17 C 164.89 126.35 164.30 127.23 164.48 128.13 C 164.66 129.02 165.53 129.61 166.43 129.43 Z M 167.04 129.28 L 168.04 129.27 C 168.95 129.26 169.68 128.51 169.68 127.60 C 169.67 126.69 168.92 125.95 168.01 125.96 L 167.01 125.97 C 166.10 125.97 165.36 126.72 165.37 127.63 C 165.38 128.55 166.12 129.28 167.04 129.28 Z M 167.81 129.25 L 168.84 129.38 C 169.75 129.50 170.57 128.86 170.69 127.96 C 170.81 127.06 170.17 126.23 169.27 126.11 L 168.23 125.98 C 167.33 125.86 166.51 126.50 166.39 127.40 C 166.27 128.30 166.91 129.13 167.81 129.25 Z M 168.67 129.34 L 169.66 129.58 C 170.54 129.79 171.42 129.24 171.63 128.36 C 171.84 127.48 171.30 126.60 170.42 126.39 L 169.44 126.15 C 168.56 125.94 167.67 126.49 167.46 127.37 C 167.25 128.25 167.79 129.13 168.67 129.34 Z M 169.54 129.52 L 170.47 129.82 C 171.32 130.10 172.23 129.63 172.50 128.78 C 172.78 127.93 172.31 127.02 171.46 126.74 L 170.54 126.44 C 169.69 126.17 168.78 126.63 168.50 127.48 C 168.22 128.33 168.69 129.25 169.54 129.52 Z M 170.41 129.77 L 171.34 130.12 C 172.16 130.43 173.08 130.01 173.39 129.18 C 173.69 128.36 173.27 127.44 172.45 127.14 L 171.52 126.79 C 170.70 126.48 169.78 126.90 169.47 127.73 C 169.17 128.55 169.59 129.47 170.41 129.77 Z M 171.34 130.09 L 172.30 130.46 C 173.11 130.77 174.01 130.37 174.32 129.56 C 174.63 128.75 174.22 127.84 173.42 127.53 L 172.46 127.17 C 171.65 126.86 170.74 127.26 170.43 128.07 C 170.12 128.88 170.53 129.78 171.34 130.09 Z M 172.33 130.45 L 173.23 130.77 C 174.04 131.06 174.92 130.65 175.21 129.85 C 175.50 129.05 175.09 128.16 174.28 127.87 L 173.38 127.55 C 172.58 127.26 171.70 127.67 171.41 128.47 C 171.12 129.27 171.53 130.16 172.33 130.45 Z M 173.28 130.77 L 174.19 131.07 C 174.99 131.34 175.85 130.91 176.12 130.11 C 176.38 129.31 175.95 128.45 175.16 128.19 L 174.24 127.88 C 173.44 127.61 172.58 128.04 172.32 128.84 C 172.05 129.64 172.48 130.50 173.28 130.77 Z M 174.23 131.06 L 175.19 131.36 C 175.98 131.60 176.82 131.16 177.07 130.37 C 177.31 129.57 176.87 128.73 176.07 128.49 L 175.12 128.19 C 174.32 127.95 173.48 128.39 173.24 129.19 C 172.99 129.98 173.44 130.82 174.23 131.06 Z M 175.23 131.35 L 176.23 131.64 C 177.02 131.86 177.84 131.40 178.06 130.61 C 178.28 129.83 177.83 129.01 177.04 128.78 L 176.04 128.50 C 175.25 128.28 174.43 128.73 174.21 129.52 C 173.98 130.31 174.44 131.13 175.23 131.35 Z M 176.26 131.63 L 177.26 131.89 C 178.05 132.09 178.85 131.62 179.05 130.84 C 179.25 130.06 178.79 129.26 178.00 129.05 L 177.00 128.79 C 176.22 128.59 175.42 129.06 175.22 129.84 C 175.01 130.62 175.48 131.42 176.26 131.63 Z M 177.29 131.88 L 178.24 132.11 C 179.02 132.30 179.80 131.82 179.99 131.04 C 180.18 130.26 179.70 129.48 178.92 129.29 L 177.97 129.06 C 177.19 128.87 176.41 129.35 176.22 130.13 C 176.03 130.91 176.51 131.69 177.29 131.88 Z M 178.26 132.11 L 179.23 132.33 C 180.01 132.51 180.78 132.02 180.96 131.24 C 181.14 130.46 180.65 129.69 179.87 129.51 L 178.90 129.29 C 178.12 129.11 177.35 129.60 177.17 130.38 C 176.99 131.16 177.48 131.93 178.26 132.11 Z M 179.24 132.33 L 180.23 132.54 C 181.01 132.71 181.77 132.22 181.94 131.45 C 182.11 130.67 181.62 129.90 180.84 129.73 L 179.86 129.51 C 179.08 129.34 178.31 129.84 178.14 130.61 C 177.97 131.39 178.46 132.16 179.24 132.33 Z M 180.24 132.54 L 181.23 132.75 C 182.01 132.92 182.77 132.42 182.94 131.65 C 183.10 130.87 182.61 130.11 181.83 129.95 L 180.83 129.74 C 180.06 129.57 179.30 130.06 179.13 130.84 C 178.97 131.61 179.46 132.37 180.24 132.54 Z M 181.24 132.75 L 181.91 132.89 C 182.68 133.05 183.44 132.56 183.60 131.79 C 183.77 131.01 183.27 130.26 182.50 130.09 L 181.83 129.95 C 181.06 129.79 180.30 130.28 180.14 131.06 C 179.97 131.83 180.47 132.58 181.24 132.75 Z"
      fill="black"
      fill-rule="nonzero" /><path d="M 192.20 141.95 L 191.66 141.07 C 191.22 140.38 190.30 140.17 189.60 140.60 C 188.90 141.04 188.69 141.96 189.13 142.66 L 189.68 143.53 C 190.11 144.22 191.03 144.44 191.73 144.00 C 192.43 143.56 192.64 142.64 192.20 141.95 Z M 191.69 141.13 L 191.20 140.25 C 190.79 139.53 189.88 139.28 189.16 139.69 C 188.44 140.09 188.19 141.00 188.60 141.72 L 189.09 142.60 C 189.50 143.32 190.41 143.57 191.13 143.17 C 191.85 142.76 192.10 141.85 191.69 141.13 Z M 191.27 140.38 L 190.87 139.49 C 190.53 138.73 189.65 138.39 188.89 138.73 C 188.14 139.06 187.80 139.95 188.13 140.70 L 188.53 141.60 C 188.87 142.35 189.75 142.69 190.51 142.36 C 191.26 142.02 191.60 141.13 191.27 140.38 Z M 190.95 139.71 L 190.69 138.71 C 190.48 137.91 189.66 137.43 188.86 137.64 C 188.05 137.85 187.57 138.67 187.78 139.47 L 188.05 140.48 C 188.26 141.28 189.08 141.76 189.88 141.55 C 190.68 141.34 191.16 140.52 190.95 139.71 Z M 190.74 139.08 L 190.74 138.07 C 190.73 137.24 190.06 136.57 189.22 136.57 C 188.39 136.58 187.72 137.25 187.73 138.09 L 187.73 139.10 C 187.74 139.93 188.41 140.60 189.24 140.59 C 190.07 140.59 190.75 139.91 190.74 139.08 Z M 190.62 138.66 L 190.98 137.81 C 191.30 137.04 190.94 136.16 190.17 135.84 C 189.40 135.51 188.52 135.88 188.20 136.64 L 187.84 137.50 C 187.52 138.26 187.88 139.15 188.65 139.47 C 189.42 139.79 190.30 139.43 190.62 138.66 Z M 190.53 138.41 L 191.19 137.88 C 191.85 137.36 191.95 136.41 191.43 135.75 C 190.91 135.10 189.96 134.99 189.31 135.52 L 188.64 136.05 C 187.99 136.57 187.89 137.52 188.41 138.17 C 188.93 138.82 189.88 138.93 190.53 138.41 Z M 190.76 138.12 L 191.66 137.80 C 192.45 137.51 192.85 136.65 192.57 135.86 C 192.29 135.07 191.42 134.67 190.63 134.95 L 189.74 135.27 C 188.95 135.56 188.54 136.42 188.83 137.21 C 189.11 138.00 189.98 138.40 190.76 138.12 Z M 191.41 137.87 L 192.47 137.68 C 193.29 137.54 193.84 136.75 193.70 135.93 C 193.56 135.10 192.77 134.55 191.95 134.70 L 190.89 134.88 C 190.06 135.03 189.51 135.81 189.65 136.63 C 189.80 137.46 190.58 138.01 191.41 137.87 Z M 192.33 137.70 L 193.41 137.61 C 194.24 137.55 194.87 136.82 194.80 135.98 C 194.73 135.15 194.00 134.52 193.17 134.59 L 192.09 134.68 C 191.25 134.74 190.63 135.48 190.69 136.31 C 190.76 137.15 191.49 137.77 192.33 137.70 Z M 193.31 137.62 L 194.31 137.61 C 195.14 137.60 195.82 136.91 195.80 136.07 C 195.79 135.23 195.10 134.56 194.26 134.57 L 193.27 134.58 C 192.43 134.59 191.76 135.28 191.77 136.12 C 191.78 136.96 192.47 137.63 193.31 137.62 Z M 194.17 137.61 L 195.17 137.68 C 196.01 137.74 196.74 137.11 196.80 136.27 C 196.86 135.43 196.23 134.70 195.39 134.64 L 194.40 134.57 C 193.56 134.51 192.83 135.14 192.77 135.98 C 192.70 136.82 193.33 137.55 194.17 137.61 Z M 194.99 137.66 L 195.98 137.85 C 196.80 138.00 197.60 137.46 197.76 136.63 C 197.92 135.80 197.37 135.00 196.54 134.85 L 195.56 134.66 C 194.73 134.50 193.93 135.05 193.78 135.88 C 193.62 136.71 194.17 137.51 194.99 137.66 Z M 195.77 137.80 L 196.71 138.11 C 197.51 138.38 198.38 137.95 198.65 137.15 C 198.92 136.35 198.49 135.48 197.68 135.21 L 196.75 134.89 C 195.94 134.63 195.08 135.06 194.81 135.86 C 194.54 136.66 194.97 137.53 195.77 137.80 Z M 196.52 138.04 L 197.39 138.47 C 198.15 138.85 199.07 138.54 199.45 137.78 C 199.83 137.02 199.52 136.09 198.75 135.72 L 197.88 135.28 C 197.12 134.91 196.20 135.22 195.82 135.98 C 195.44 136.74 195.75 137.66 196.52 138.04 Z M 197.23 138.39 L 198.07 138.94 C 198.78 139.40 199.74 139.20 200.20 138.49 C 200.67 137.77 200.47 136.81 199.75 136.35 L 198.92 135.80 C 198.20 135.33 197.24 135.54 196.78 136.25 C 196.31 136.97 196.51 137.92 197.23 138.39 Z M 197.93 138.84 L 198.72 139.49 C 199.38 140.03 200.36 139.93 200.90 139.27 C 201.44 138.60 201.35 137.62 200.68 137.08 L 199.89 136.44 C 199.23 135.89 198.25 135.99 197.71 136.66 C 197.16 137.32 197.26 138.30 197.93 138.84 Z M 198.60 139.39 L 199.32 140.11 C 199.94 140.72 200.92 140.71 201.53 140.10 C 202.14 139.49 202.13 138.50 201.52 137.89 L 200.80 137.18 C 200.19 136.57 199.20 136.57 198.59 137.18 C 197.98 137.80 197.99 138.78 198.60 139.39 Z M 199.22 140.01 L 199.86 140.78 C 200.41 141.44 201.40 141.53 202.07 140.97 C 202.74 140.42 202.82 139.43 202.27 138.76 L 201.63 137.99 C 201.07 137.33 200.08 137.24 199.42 137.80 C 198.75 138.35 198.66 139.34 199.22 140.01 Z M 199.76 140.66 L 200.32 141.49 C 200.82 142.21 201.80 142.39 202.52 141.90 C 203.24 141.40 203.42 140.42 202.93 139.70 L 202.37 138.88 C 201.87 138.16 200.89 137.97 200.17 138.46 C 199.45 138.96 199.27 139.94 199.76 140.66 Z M 200.23 141.35 L 200.71 142.23 C 201.13 143.00 202.10 143.29 202.87 142.87 C 203.64 142.45 203.92 141.48 203.50 140.71 L 203.02 139.83 C 202.60 139.06 201.64 138.78 200.87 139.20 C 200.10 139.62 199.81 140.58 200.23 141.35 Z M 200.63 142.08 L 201.01 143.01 C 201.35 143.82 202.28 144.21 203.10 143.87 C 203.92 143.54 204.30 142.60 203.97 141.78 L 203.58 140.86 C 203.25 140.04 202.31 139.65 201.49 139.99 C 200.68 140.33 200.29 141.26 200.63 142.08 Z M 200.94 142.84 L 201.23 143.83 C 201.47 144.68 202.36 145.18 203.22 144.93 C 204.07 144.68 204.56 143.79 204.32 142.94 L 204.03 141.95 C 203.79 141.10 202.90 140.60 202.04 140.85 C 201.19 141.09 200.70 141.99 200.94 142.84 Z M 201.18 143.68 L 201.37 144.69 C 201.53 145.56 202.37 146.15 203.25 145.98 C 204.13 145.82 204.71 144.98 204.55 144.10 L 204.36 143.09 C 204.20 142.21 203.36 141.63 202.48 141.79 C 201.60 141.95 201.02 142.80 201.18 143.68 Z M 201.34 144.56 L 201.44 145.56 C 201.53 146.45 202.33 147.10 203.22 147.01 C 204.12 146.92 204.77 146.12 204.68 145.23 L 204.58 144.23 C 204.49 143.34 203.69 142.68 202.79 142.77 C 201.90 142.86 201.25 143.66 201.34 144.56 Z M 201.43 145.44 L 201.46 146.40 C 201.48 147.31 202.24 148.01 203.14 147.99 C 204.04 147.96 204.75 147.20 204.72 146.30 L 204.69 145.34 C 204.66 144.44 203.91 143.73 203.01 143.76 C 202.11 143.79 201.40 144.54 201.43 145.44 Z M 201.45 146.29 L 201.41 147.32 C 201.38 148.23 202.09 148.99 203.00 149.02 C 203.90 149.05 204.66 148.34 204.69 147.44 L 204.73 146.41 C 204.76 145.50 204.05 144.74 203.15 144.71 C 202.24 144.68 201.48 145.39 201.45 146.29 Z M 201.42 147.17 L 201.30 148.17 C 201.18 149.07 201.82 149.89 202.73 150.01 C 203.63 150.12 204.45 149.48 204.56 148.58 L 204.69 147.58 C 204.80 146.68 204.16 145.86 203.26 145.75 C 202.36 145.63 201.53 146.27 201.42 147.17 Z M 201.33 147.98 L 201.10 148.92 C 200.88 149.81 201.43 150.70 202.31 150.92 C 203.20 151.13 204.09 150.59 204.30 149.70 L 204.53 148.76 C 204.75 147.88 204.20 146.98 203.32 146.77 C 202.43 146.56 201.54 147.10 201.33 147.98 Z M 201.15 148.73 L 200.82 149.62 C 200.50 150.47 200.93 151.42 201.78 151.75 C 202.64 152.07 203.59 151.64 203.91 150.78 L 204.25 149.90 C 204.57 149.04 204.14 148.09 203.28 147.77 C 202.43 147.44 201.48 147.88 201.15 148.73 Z M 200.90 149.44 L 200.49 150.23 C 200.07 151.04 200.39 152.04 201.20 152.46 C 202.01 152.88 203.01 152.56 203.43 151.75 L 203.84 150.96 C 204.26 150.15 203.94 149.15 203.13 148.73 C 202.32 148.31 201.32 148.63 200.90 149.44 Z M 200.59 150.06 L 200.05 150.85 C 199.54 151.61 199.74 152.64 200.50 153.15 C 201.26 153.66 202.29 153.46 202.80 152.70 L 203.34 151.91 C 203.85 151.15 203.65 150.12 202.89 149.61 C 202.13 149.10 201.10 149.30 200.59 150.06 Z M 200.17 150.70 L 199.48 151.50 C 198.88 152.20 198.97 153.25 199.66 153.84 C 200.36 154.44 201.41 154.36 202.00 153.66 L 202.69 152.86 C 203.28 152.16 203.20 151.11 202.51 150.52 C 201.81 149.92 200.76 150.00 200.17 150.70 Z M 199.60 151.38 L 198.79 152.14 C 198.12 152.78 198.10 153.83 198.73 154.50 C 199.36 155.16 200.41 155.19 201.08 154.55 L 201.89 153.78 C 202.55 153.15 202.58 152.10 201.95 151.43 C 201.31 150.77 200.26 150.74 199.60 151.38 Z M 198.88 152.06 L 198.15 152.66 C 197.44 153.24 197.33 154.29 197.91 155.00 C 198.50 155.71 199.54 155.82 200.26 155.23 L 200.99 154.64 C 201.70 154.06 201.80 153.01 201.22 152.30 C 200.64 151.59 199.59 151.48 198.88 152.06 Z M 198.22 152.60 L 197.42 153.19 C 196.67 153.73 196.51 154.78 197.05 155.52 C 197.60 156.26 198.64 156.42 199.38 155.88 L 200.19 155.29 C 200.93 154.75 201.09 153.70 200.55 152.96 C 200.00 152.22 198.96 152.06 198.22 152.60 Z M 197.48 153.15 L 196.62 153.72 C 195.85 154.22 195.64 155.26 196.15 156.02 C 196.66 156.79 197.70 157.00 198.46 156.49 L 199.32 155.92 C 200.09 155.41 200.29 154.38 199.79 153.61 C 199.28 152.85 198.24 152.64 197.48 153.15 Z M 196.68 153.68 L 195.79 154.21 C 195.01 154.69 194.75 155.71 195.23 156.50 C 195.71 157.29 196.73 157.54 197.52 157.07 L 198.40 156.53 C 199.19 156.05 199.44 155.03 198.97 154.24 C 198.49 153.45 197.47 153.20 196.68 153.68 Z M 195.85 154.18 L 194.96 154.67 C 194.15 155.11 193.86 156.12 194.30 156.93 C 194.75 157.74 195.76 158.03 196.57 157.59 L 197.46 157.10 C 198.27 156.66 198.56 155.64 198.12 154.84 C 197.67 154.03 196.66 153.73 195.85 154.18 Z M 195.03 154.63 L 194.08 155.10 C 193.25 155.50 192.91 156.50 193.31 157.33 C 193.72 158.16 194.72 158.50 195.54 158.09 L 196.50 157.63 C 197.32 157.22 197.67 156.22 197.26 155.40 C 196.86 154.57 195.86 154.23 195.03 154.63 Z M 194.16 155.06 L 193.19 155.47 C 192.34 155.83 191.94 156.81 192.30 157.66 C 192.66 158.51 193.64 158.90 194.49 158.54 L 195.46 158.13 C 196.31 157.77 196.70 156.79 196.34 155.95 C 195.98 155.10 195.01 154.70 194.16 155.06 Z M 193.28 155.44 L 192.33 155.78 C 191.46 156.09 191.01 157.04 191.32 157.91 C 191.63 158.78 192.59 159.23 193.45 158.92 L 194.40 158.58 C 195.27 158.27 195.72 157.32 195.41 156.45 C 195.10 155.58 194.14 155.13 193.28 155.44 Z M 192.43 155.75 L 191.50 156.02 C 190.62 156.27 190.11 157.20 190.37 158.08 C 190.62 158.97 191.55 159.47 192.43 159.22 L 193.36 158.95 C 194.24 158.69 194.75 157.77 194.49 156.88 C 194.24 156.00 193.31 155.49 192.43 155.75 Z M 191.60 155.99 L 190.69 156.20 C 189.79 156.40 189.23 157.29 189.43 158.19 C 189.64 159.09 190.53 159.65 191.43 159.45 L 192.34 159.24 C 193.23 159.04 193.80 158.15 193.59 157.25 C 193.39 156.35 192.50 155.79 191.60 155.99 Z M 190.79 156.18 L 189.79 156.34 C 188.89 156.49 188.27 157.35 188.42 158.25 C 188.57 159.16 189.42 159.78 190.33 159.63 L 191.33 159.47 C 192.24 159.32 192.85 158.46 192.70 157.55 C 192.56 156.65 191.70 156.03 190.79 156.18 Z M 189.89 156.33 L 188.88 156.44 C 187.96 156.54 187.30 157.35 187.40 158.27 C 187.49 159.18 188.31 159.84 189.23 159.75 L 190.24 159.64 C 191.15 159.54 191.81 158.72 191.72 157.81 C 191.62 156.90 190.80 156.23 189.89 156.33 Z M 188.95 156.44 L 187.96 156.50 C 187.04 156.55 186.34 157.34 186.40 158.26 C 186.46 159.17 187.24 159.87 188.16 159.81 L 189.15 159.75 C 190.07 159.69 190.76 158.91 190.71 157.99 C 190.65 157.08 189.86 156.38 188.95 156.44 Z M 188.01 156.50 L 187.03 156.53 C 186.12 156.56 185.40 157.32 185.43 158.24 C 185.46 159.15 186.22 159.87 187.14 159.84 L 188.11 159.81 C 189.02 159.78 189.74 159.02 189.71 158.10 C 189.68 157.19 188.92 156.47 188.01 156.50 Z M 187.06 156.53 L 186.06 156.55 C 185.15 156.56 184.42 157.31 184.44 158.22 C 184.45 159.14 185.20 159.86 186.11 159.85 L 187.11 159.84 C 188.02 159.82 188.75 159.07 188.73 158.16 C 188.72 157.25 187.97 156.52 187.06 156.53 Z M 186.12 156.56 L 185.11 156.54 C 184.21 156.52 183.46 157.25 183.44 158.15 C 183.43 159.06 184.15 159.81 185.05 159.82 L 186.06 159.84 C 186.97 159.86 187.72 159.14 187.73 158.23 C 187.75 157.32 187.03 156.57 186.12 156.56 Z M 185.24 156.56 L 184.26 156.46 C 183.36 156.38 182.56 157.03 182.48 157.93 C 182.39 158.83 183.05 159.63 183.94 159.71 L 184.93 159.81 C 185.83 159.89 186.62 159.23 186.71 158.34 C 186.79 157.44 186.14 156.64 185.24 156.56 Z M 184.45 156.50 L 183.49 156.29 C 182.62 156.09 181.75 156.64 181.55 157.52 C 181.36 158.39 181.91 159.26 182.78 159.46 L 183.75 159.67 C 184.62 159.87 185.49 159.32 185.68 158.44 C 185.88 157.57 185.33 156.70 184.45 156.50 Z M 183.73 156.38 L 182.81 156.01 C 181.99 155.68 181.05 156.09 180.72 156.91 C 180.39 157.74 180.80 158.68 181.62 159.00 L 182.54 159.37 C 183.37 159.70 184.31 159.29 184.64 158.47 C 184.96 157.64 184.56 156.70 183.73 156.38 Z M 183.04 156.14 L 182.18 155.62 C 181.42 155.17 180.44 155.41 179.99 156.17 C 179.53 156.93 179.78 157.91 180.54 158.36 L 181.40 158.88 C 182.15 159.33 183.14 159.08 183.59 158.33 C 184.04 157.57 183.80 156.59 183.04 156.14 Z M 182.38 155.78 L 181.61 155.13 C 180.94 154.57 179.94 154.65 179.38 155.32 C 178.81 155.99 178.90 156.99 179.57 157.55 L 180.34 158.20 C 181.01 158.76 182.00 158.68 182.57 158.01 C 183.13 157.34 183.05 156.35 182.38 155.78 Z M 181.79 155.34 L 181.15 154.57 C 180.60 153.91 179.61 153.82 178.95 154.37 C 178.28 154.92 178.19 155.91 178.74 156.57 L 179.38 157.34 C 179.93 158.01 180.92 158.10 181.59 157.54 C 182.25 156.99 182.34 156.00 181.79 155.34 Z M 181.32 154.85 L 180.85 153.97 C 180.45 153.21 179.51 152.92 178.75 153.33 C 178.00 153.73 177.71 154.67 178.11 155.42 L 178.58 156.30 C 178.98 157.06 179.92 157.34 180.68 156.94 C 181.43 156.54 181.72 155.60 181.32 154.85 Z M 180.95 154.27 L 180.68 153.31 C 180.44 152.50 179.60 152.03 178.79 152.26 C 177.97 152.49 177.50 153.34 177.74 154.15 L 178.01 155.11 C 178.24 155.93 179.09 156.40 179.90 156.16 C 180.71 155.93 181.18 155.09 180.95 154.27 Z M 180.71 153.59 L 180.61 152.59 C 180.54 151.77 179.80 151.16 178.97 151.23 C 178.15 151.31 177.54 152.05 177.61 152.87 L 177.71 153.87 C 177.78 154.70 178.52 155.31 179.35 155.23 C 180.17 155.15 180.78 154.42 180.71 153.59 Z M 180.59 152.84 L 180.66 151.85 C 180.72 151.03 180.11 150.32 179.29 150.26 C 178.47 150.20 177.76 150.82 177.70 151.64 L 177.63 152.63 C 177.57 153.45 178.19 154.16 179.01 154.22 C 179.83 154.27 180.54 153.66 180.59 152.84 Z M 180.61 152.07 L 180.83 151.10 C 181.01 150.31 180.52 149.52 179.73 149.35 C 178.94 149.17 178.15 149.66 177.97 150.45 L 177.75 151.42 C 177.57 152.21 178.07 152.99 178.86 153.17 C 179.65 153.35 180.43 152.86 180.61 152.07 Z M 180.76 151.31 L 181.12 150.39 C 181.41 149.64 181.05 148.80 180.30 148.50 C 179.55 148.21 178.71 148.57 178.41 149.32 L 178.05 150.24 C 177.76 150.99 178.12 151.83 178.87 152.13 C 179.62 152.42 180.46 152.05 180.76 151.31 Z M 181.02 150.57 L 181.51 149.71 C 181.91 149.02 181.67 148.14 180.98 147.74 C 180.28 147.35 179.40 147.59 179.01 148.28 L 178.51 149.14 C 178.12 149.83 178.36 150.71 179.05 151.11 C 179.74 151.50 180.62 151.26 181.02 150.57 Z M 181.40 149.86 L 182.01 149.06 C 182.49 148.43 182.37 147.53 181.74 147.05 C 181.11 146.57 180.21 146.69 179.73 147.32 L 179.12 148.12 C 178.64 148.75 178.76 149.65 179.39 150.13 C 180.02 150.61 180.92 150.49 181.40 149.86 Z M 181.90 149.18 L 182.58 148.48 C 183.12 147.91 183.10 147.00 182.53 146.46 C 181.97 145.91 181.06 145.93 180.52 146.50 L 179.84 147.20 C 179.30 147.77 179.31 148.68 179.88 149.22 C 180.45 149.77 181.36 149.75 181.90 149.18 Z M 182.49 148.56 L 183.23 147.90 C 183.82 147.38 183.88 146.48 183.35 145.89 C 182.83 145.30 181.93 145.25 181.34 145.77 L 180.60 146.42 C 180.01 146.94 179.96 147.84 180.48 148.43 C 181.00 149.02 181.90 149.08 182.49 148.56 Z M 183.17 147.95 L 183.96 147.33 C 184.58 146.84 184.68 145.94 184.19 145.32 C 183.71 144.71 182.81 144.60 182.19 145.09 L 181.40 145.72 C 180.78 146.21 180.68 147.10 181.17 147.72 C 181.66 148.34 182.55 148.44 183.17 147.95 Z M 183.93 147.35 L 184.75 146.74 C 185.38 146.27 185.51 145.38 185.04 144.75 C 184.57 144.11 183.68 143.98 183.05 144.45 L 182.23 145.07 C 181.59 145.54 181.46 146.43 181.93 147.06 C 182.40 147.69 183.30 147.82 183.93 147.35 Z M 184.74 146.75 L 185.03 146.53 C 185.67 146.07 185.81 145.18 185.34 144.54 C 184.88 143.91 183.99 143.77 183.35 144.23 L 183.06 144.45 C 182.42 144.91 182.28 145.80 182.75 146.44 C 183.21 147.07 184.10 147.21 184.74 146.75 Z"
      fill="black"
      fill-rule="nonzero" /><path d="M 183.92 185.78 L 182.67 185.35 C 181.82 185.06 180.90 185.52 180.61 186.37 C 180.32 187.22 180.77 188.14 181.62 188.43 L 182.87 188.86 C 183.72 189.15 184.65 188.69 184.94 187.84 C 185.23 186.99 184.77 186.07 183.92 185.78 Z M 183.12 185.59 L 182.67 185.25 C 181.95 184.71 180.93 184.86 180.39 185.58 C 179.85 186.30 180.00 187.32 180.72 187.86 L 181.17 188.20 C 181.89 188.73 182.91 188.59 183.45 187.87 C 183.99 187.15 183.84 186.13 183.12 185.59 Z M 182.19 188.10 L 182.60 187.97 C 183.45 187.70 183.93 186.78 183.65 185.93 C 183.38 185.07 182.47 184.60 181.61 184.87 L 181.20 185.00 C 180.34 185.27 179.87 186.19 180.14 187.05 C 180.41 187.90 181.33 188.38 182.19 188.10 Z M 182.25 188.04 L 183.08 187.97 C 183.98 187.89 184.64 187.10 184.56 186.20 C 184.48 185.31 183.69 184.65 182.80 184.73 L 181.96 184.80 C 181.06 184.88 180.40 185.67 180.48 186.57 C 180.56 187.46 181.35 188.12 182.25 188.04 Z M 183.00 187.97 L 184.20 187.93 C 185.10 187.90 185.80 187.14 185.77 186.25 C 185.73 185.35 184.98 184.65 184.08 184.68 L 182.88 184.72 C 181.99 184.75 181.28 185.51 181.32 186.40 C 181.35 187.30 182.10 188.00 183.00 187.97 Z M 184.17 187.93 L 185.61 187.91 C 186.51 187.89 187.22 187.15 187.21 186.26 C 187.19 185.36 186.46 184.64 185.56 184.66 L 184.12 184.68 C 183.22 184.69 182.50 185.43 182.52 186.33 C 182.53 187.23 183.27 187.94 184.17 187.93 Z M 185.60 187.90 L 186.58 187.89 C 187.48 187.89 188.19 187.15 188.19 186.26 C 188.18 185.36 187.45 184.65 186.55 184.65 L 185.57 184.66 C 184.67 184.67 183.96 185.40 183.96 186.30 C 183.97 187.19 184.70 187.91 185.60 187.90 Z M 186.58 187.89 L 187.61 187.88 C 188.50 187.87 189.21 187.15 189.21 186.26 C 189.20 185.37 188.48 184.65 187.59 184.65 L 186.56 184.66 C 185.67 184.67 184.95 185.39 184.95 186.28 C 184.96 187.17 185.69 187.89 186.58 187.89 Z M 187.60 187.87 L 188.65 187.87 C 189.54 187.86 190.25 187.14 190.25 186.26 C 190.25 185.37 189.53 184.66 188.64 184.66 L 187.59 184.66 C 186.71 184.67 185.99 185.39 185.99 186.27 C 186.00 187.16 186.72 187.87 187.60 187.87 Z M 188.65 187.86 L 189.69 187.86 C 190.57 187.86 191.28 187.14 191.28 186.26 C 191.28 185.38 190.57 184.66 189.68 184.67 L 188.64 184.67 C 187.76 184.67 187.05 185.39 187.05 186.27 C 187.05 187.15 187.77 187.86 188.65 187.86 Z M 189.69 187.85 L 190.69 187.85 C 191.57 187.85 192.28 187.14 192.28 186.26 C 192.28 185.38 191.57 184.67 190.69 184.67 L 189.69 184.67 C 188.81 184.67 188.10 185.39 188.10 186.26 C 188.10 187.14 188.81 187.85 189.69 187.85 Z M 190.69 187.84 L 191.63 187.84 C 192.50 187.84 193.21 187.13 193.21 186.26 C 193.21 185.39 192.50 184.68 191.63 184.68 L 190.69 184.68 C 189.82 184.68 189.11 185.39 189.11 186.26 C 189.11 187.13 189.82 187.84 190.69 187.84 Z M 191.63 187.83 L 192.74 187.83 C 193.61 187.83 194.31 187.13 194.31 186.26 C 194.31 185.40 193.61 184.69 192.74 184.69 L 191.63 184.69 C 190.77 184.69 190.06 185.40 190.06 186.26 C 190.06 187.13 190.77 187.83 191.63 187.83 Z M 192.74 187.80 L 193.84 187.80 C 194.69 187.80 195.38 187.11 195.38 186.26 C 195.38 185.41 194.69 184.72 193.84 184.72 L 192.74 184.72 C 191.89 184.72 191.20 185.41 191.20 186.26 C 191.20 187.11 191.89 187.80 192.74 187.80 Z M 193.84 187.78 L 194.79 187.78 C 195.63 187.78 196.31 187.10 196.31 186.26 C 196.31 185.42 195.63 184.74 194.79 184.74 L 193.84 184.74 C 193.00 184.74 192.32 185.42 192.32 186.26 C 192.32 187.10 193.00 187.78 193.84 187.78 Z M 194.79 187.75 L 195.67 187.75 C 196.49 187.75 197.16 187.08 197.16 186.26 C 197.16 185.44 196.49 184.77 195.67 184.77 L 194.79 184.77 C 193.97 184.77 193.30 185.44 193.30 186.26 C 193.30 187.08 193.97 187.75 194.79 187.75 Z M 195.67 187.73 L 196.56 187.73 C 197.37 187.73 198.03 187.07 198.03 186.26 C 198.03 185.45 197.37 184.79 196.56 184.79 L 195.67 184.79 C 194.86 184.79 194.20 185.45 194.20 186.26 C 194.20 187.07 194.86 187.73 195.67 187.73 Z M 196.57 187.72 L 197.53 187.71 C 198.33 187.71 198.98 187.06 198.98 186.26 C 198.98 185.45 198.33 184.80 197.52 184.80 L 196.56 184.81 C 195.76 184.81 195.11 185.46 195.11 186.26 C 195.11 187.07 195.76 187.72 196.57 187.72 Z M 197.54 187.71 L 198.54 187.70 C 199.34 187.69 199.98 187.04 199.97 186.24 C 199.96 185.44 199.31 184.79 198.51 184.80 L 197.51 184.81 C 196.71 184.82 196.07 185.47 196.08 186.27 C 196.09 187.07 196.74 187.71 197.54 187.71 Z M 198.55 187.69 L 199.58 187.67 C 200.38 187.66 201.01 187.00 201.00 186.20 C 200.98 185.41 200.33 184.77 199.53 184.79 L 198.50 184.81 C 197.70 184.82 197.07 185.48 197.08 186.28 C 197.10 187.07 197.75 187.71 198.55 187.69 Z M 199.60 187.67 L 200.61 187.63 C 201.40 187.61 202.02 186.94 202.00 186.15 C 201.97 185.36 201.31 184.74 200.51 184.76 L 199.51 184.79 C 198.72 184.82 198.10 185.48 198.12 186.28 C 198.15 187.07 198.81 187.69 199.60 187.67 Z M 200.63 187.63 L 201.60 187.59 C 202.39 187.55 203.00 186.88 202.97 186.09 C 202.93 185.30 202.26 184.69 201.47 184.72 L 200.50 184.77 C 199.71 184.80 199.09 185.47 199.13 186.26 C 199.16 187.05 199.83 187.67 200.63 187.63 Z M 201.62 187.58 L 202.62 187.53 C 203.41 187.48 204.01 186.80 203.96 186.01 C 203.92 185.22 203.24 184.62 202.45 184.67 L 201.45 184.73 C 200.66 184.77 200.06 185.45 200.11 186.24 C 200.15 187.03 200.83 187.63 201.62 187.58 Z M 202.63 187.52 L 203.65 187.45 C 204.44 187.40 205.03 186.71 204.98 185.93 C 204.92 185.14 204.24 184.54 203.45 184.60 L 202.44 184.67 C 201.65 184.73 201.05 185.41 201.11 186.20 C 201.16 186.98 201.85 187.58 202.63 187.52 Z M 203.67 187.45 L 204.69 187.36 C 205.48 187.30 206.06 186.61 206.00 185.82 C 205.93 185.04 205.24 184.45 204.46 184.52 L 203.44 184.60 C 202.65 184.67 202.06 185.36 202.13 186.14 C 202.19 186.93 202.88 187.51 203.67 187.45 Z M 204.71 187.36 L 205.68 187.27 C 206.47 187.20 207.04 186.50 206.97 185.72 C 206.90 184.93 206.20 184.36 205.42 184.43 L 204.44 184.52 C 203.66 184.59 203.08 185.29 203.15 186.07 C 203.23 186.86 203.92 187.44 204.71 187.36 Z M 205.69 187.27 L 206.68 187.17 C 207.46 187.09 208.03 186.39 207.95 185.60 C 207.87 184.82 207.17 184.25 206.39 184.33 L 205.41 184.43 C 204.62 184.51 204.05 185.21 204.13 185.99 C 204.21 186.78 204.91 187.35 205.69 187.27 Z M 206.69 187.17 L 207.68 187.06 C 208.47 186.98 209.03 186.27 208.95 185.49 C 208.86 184.71 208.16 184.14 207.38 184.22 L 206.38 184.33 C 205.60 184.42 205.03 185.12 205.12 185.90 C 205.20 186.68 205.90 187.25 206.69 187.17 Z M 207.69 187.06 L 208.70 186.95 C 209.48 186.86 210.04 186.16 209.96 185.38 C 209.87 184.59 209.17 184.03 208.38 184.11 L 207.37 184.23 C 206.59 184.31 206.03 185.02 206.11 185.80 C 206.20 186.58 206.90 187.15 207.69 187.06 Z M 208.70 186.95 L 209.70 186.84 C 210.48 186.75 211.04 186.05 210.96 185.27 C 210.87 184.48 210.17 183.92 209.39 184.00 L 208.38 184.11 C 207.60 184.20 207.04 184.90 207.12 185.69 C 207.21 186.47 207.91 187.03 208.70 186.95 Z M 209.69 186.84 L 210.67 186.73 C 211.46 186.65 212.02 185.94 211.94 185.16 C 211.85 184.38 211.15 183.81 210.37 183.90 L 209.39 184.00 C 208.60 184.09 208.04 184.79 208.12 185.57 C 208.21 186.36 208.91 186.92 209.69 186.84 Z M 210.67 186.73 L 211.67 186.63 C 212.45 186.54 213.01 185.84 212.93 185.06 C 212.85 184.28 212.15 183.71 211.36 183.79 L 210.37 183.90 C 209.59 183.98 209.02 184.68 209.10 185.47 C 209.19 186.25 209.89 186.82 210.67 186.73 Z M 211.66 186.63 L 212.67 186.52 C 213.45 186.44 214.01 185.74 213.93 184.95 C 213.85 184.17 213.15 183.60 212.36 183.69 L 211.36 183.79 C 210.58 183.88 210.01 184.58 210.10 185.36 C 210.18 186.14 210.88 186.71 211.66 186.63 Z M 212.66 186.52 L 213.67 186.41 C 214.45 186.33 215.02 185.63 214.94 184.85 C 214.86 184.07 214.15 183.50 213.37 183.58 L 212.37 183.69 C 211.58 183.77 211.01 184.47 211.10 185.25 C 211.18 186.04 211.88 186.60 212.66 186.52 Z M 213.67 186.41 L 214.24 186.35 C 215.02 186.27 215.59 185.57 215.51 184.79 C 215.42 184.01 214.72 183.44 213.94 183.52 L 213.37 183.58 C 212.59 183.66 212.02 184.36 212.10 185.15 C 212.19 185.93 212.89 186.50 213.67 186.41 Z"
      fill="black"
      fill-rule="nonzero" /></svg>