<svg xmlns="http://www.w3.org/2000/svg" width="300" height="300" viewBox="0 0 300 300">
<path d="M 110.56 138.08 L 110.44 137.02 C 110.36 136.19 109.61 135.59 108.78 135.68 C 107.95 135.76 107.34 136.51 107.43 137.34 L 107.54 138.40 C 107.63 139.23 108.38 139.83 109.21 139.74 C 110.04 139.66 110.64 138.91 110.56 138.08 Z M 110.44 137.04 L 110.35 136.00 C 110.27 135.17 109.53 134.56 108.70 134.64 C 107.87 134.72 107.26 135.45 107.33 136.29 L 107.43 137.32 C 107.51 138.16 108.25 138.77 109.08 138.69 C 109.91 138.61 110.52 137.87 110.44 137.04 Z M 110.35 136.04 L 110.28 135.04 C 110.22 134.21 109.50 133.58 108.67 133.63 C 107.84 133.69 107.21 134.41 107.27 135.24 L 107.33 136.25 C 107.39 137.08 108.11 137.71 108.94 137.65 C 109.78 137.60 110.40 136.87 110.35 136.04 Z M 110.28 135.10 L 110.26 134.15 C 110.24 133.32 109.55 132.66 108.71 132.68 C 107.88 132.70 107.22 133.39 107.24 134.23 L 107.26 135.18 C 107.28 136.01 107.98 136.67 108.81 136.65 C 109.64 136.63 110.30 135.94 110.28 135.10 Z M 110.26 134.25 L 110.30 133.31 C 110.33 132.48 109.69 131.78 108.85 131.74 C 108.02 131.71 107.32 132.35 107.28 133.18 L 107.24 134.12 C 107.21 134.96 107.85 135.66 108.68 135.70 C 109.52 135.73 110.22 135.09 110.26 134.25 Z M 110.28 133.47 L 110.42 132.51 C 110.54 131.69 109.98 130.92 109.15 130.80 C 108.33 130.68 107.56 131.25 107.44 132.07 L 107.30 133.03 C 107.18 133.85 107.74 134.62 108.57 134.74 C 109.39 134.86 110.16 134.29 110.28 133.47 Z M 110.38 132.70 L 110.64 131.79 C 110.87 130.99 110.41 130.15 109.61 129.92 C 108.81 129.70 107.97 130.16 107.75 130.96 L 107.48 131.88 C 107.26 132.68 107.72 133.51 108.52 133.74 C 109.32 133.97 110.15 133.50 110.38 132.70 Z M 110.58 131.97 L 110.98 131.03 C 111.31 130.27 110.95 129.38 110.19 129.06 C 109.42 128.73 108.54 129.08 108.21 129.85 L 107.81 130.78 C 107.48 131.54 107.84 132.43 108.60 132.75 C 109.36 133.08 110.25 132.73 110.58 131.97 Z M 110.91 131.16 L 111.40 130.28 C 111.80 129.55 111.54 128.63 110.81 128.23 C 110.08 127.83 109.17 128.10 108.77 128.82 L 108.28 129.71 C 107.88 130.44 108.14 131.36 108.87 131.76 C 109.60 132.16 110.51 131.89 110.91 131.16 Z M 111.36 130.35 L 111.88 129.53 C 112.32 128.83 112.11 127.90 111.41 127.45 C 110.70 127.01 109.77 127.22 109.33 127.92 L 108.81 128.75 C 108.37 129.45 108.58 130.38 109.28 130.82 C 109.98 131.27 110.91 131.06 111.36 130.35 Z M 111.85 129.58 L 112.43 128.74 C 112.90 128.05 112.72 127.11 112.04 126.64 C 111.35 126.17 110.41 126.34 109.94 127.03 L 109.36 127.87 C 108.89 128.56 109.06 129.50 109.75 129.97 C 110.44 130.44 111.38 130.27 111.85 129.58 Z M 112.40 128.78 L 113.02 127.94 C 113.51 127.26 113.36 126.32 112.68 125.82 C 112.01 125.33 111.06 125.48 110.57 126.15 L 109.96 126.99 C 109.47 127.67 109.62 128.61 110.29 129.11 C 110.97 129.60 111.91 129.45 112.40 128.78 Z M 113.00 127.96 L 113.62 127.15 C 114.12 126.49 113.99 125.54 113.33 125.03 C 112.66 124.52 111.71 124.65 111.21 125.32 L 110.59 126.13 C 110.08 126.79 110.21 127.74 110.88 128.25 C 111.54 128.76 112.49 128.63 113.00 127.96 Z M 113.60 127.18 L 114.25 126.36 C 114.77 125.70 114.66 124.74 114.00 124.22 C 113.34 123.70 112.39 123.82 111.87 124.47 L 111.22 125.30 C 110.70 125.95 110.81 126.91 111.47 127.43 C 112.13 127.95 113.08 127.83 113.60 127.18 Z M 114.23 126.38 L 114.90 125.56 C 115.44 124.91 115.34 123.95 114.69 123.42 C 114.04 122.89 113.09 122.98 112.55 123.63 L 111.88 124.45 C 111.35 125.10 111.45 126.06 112.10 126.59 C 112.74 127.12 113.70 127.03 114.23 126.38 Z M 114.88 125.59 L 115.53 124.84 C 116.08 124.20 116.00 123.24 115.37 122.70 C 114.73 122.15 113.77 122.22 113.22 122.86 L 112.58 123.60 C 112.03 124.24 112.10 125.20 112.74 125.75 C 113.37 126.30 114.33 126.23 114.88 125.59 Z M 115.50 124.87 L 116.14 124.17 C 116.70 123.55 116.66 122.59 116.04 122.02 C 115.41 121.46 114.45 121.50 113.88 122.12 L 113.25 122.82 C 112.68 123.45 112.73 124.41 113.35 124.98 C 113.97 125.54 114.93 125.50 115.50 124.87 Z M 116.11 124.21 L 116.76 123.53 C 117.35 122.93 117.33 121.96 116.72 121.38 C 116.11 120.79 115.15 120.81 114.56 121.41 L 113.91 122.09 C 113.33 122.70 113.34 123.66 113.95 124.25 C 114.56 124.83 115.52 124.81 116.11 124.21 Z M 116.73 123.56 L 117.42 122.89 C 118.03 122.30 118.04 121.33 117.45 120.73 C 116.86 120.12 115.89 120.11 115.29 120.70 L 114.59 121.38 C 113.99 121.97 113.98 122.94 114.57 123.54 C 115.16 124.14 116.13 124.15 116.73 123.56 Z M 117.39 122.92 L 118.12 122.25 C 118.74 121.67 118.77 120.70 118.20 120.09 C 117.63 119.47 116.66 119.43 116.04 120.00 L 115.31 120.67 C 114.70 121.25 114.66 122.22 115.23 122.84 C 115.81 123.45 116.77 123.49 117.39 122.92 Z M 118.09 122.27 L 118.85 121.60 C 119.49 121.04 119.55 120.07 118.99 119.44 C 118.43 118.80 117.46 118.74 116.83 119.30 L 116.06 119.98 C 115.43 120.54 115.37 121.50 115.93 122.14 C 116.49 122.77 117.46 122.83 118.09 122.27 Z M 118.83 121.62 L 119.61 120.96 C 120.26 120.41 120.34 119.44 119.79 118.80 C 119.24 118.15 118.27 118.07 117.63 118.62 L 116.85 119.28 C 116.20 119.83 116.12 120.80 116.67 121.44 C 117.22 122.09 118.19 122.17 118.83 121.62 Z M 119.59 120.98 L 120.33 120.37 C 120.98 119.83 121.08 118.87 120.54 118.21 C 120.01 117.56 119.04 117.46 118.38 118.00 L 117.65 118.60 C 116.99 119.14 116.90 120.11 117.43 120.76 C 117.97 121.42 118.94 121.51 119.59 120.98 Z M 120.31 120.39 L 121.08 119.78 C 121.75 119.25 121.86 118.28 121.33 117.62 C 120.81 116.96 119.84 116.84 119.18 117.37 L 118.40 117.98 C 117.74 118.51 117.63 119.47 118.15 120.14 C 118.68 120.80 119.65 120.91 120.31 120.39 Z M 121.06 119.79 L 121.87 119.18 C 122.54 118.66 122.67 117.70 122.16 117.03 C 121.64 116.35 120.68 116.22 120.00 116.74 L 119.20 117.35 C 118.52 117.87 118.40 118.83 118.91 119.50 C 119.42 120.18 120.39 120.31 121.06 119.79 Z M 121.84 119.20 L 122.68 118.58 C 123.37 118.08 123.51 117.12 123.01 116.43 C 122.51 115.75 121.55 115.60 120.87 116.10 L 120.03 116.72 C 119.34 117.22 119.20 118.18 119.70 118.87 C 120.20 119.55 121.16 119.70 121.84 119.20 Z M 122.66 118.60 L 123.48 118.02 C 124.17 117.53 124.34 116.58 123.85 115.88 C 123.37 115.19 122.41 115.02 121.71 115.51 L 120.89 116.09 C 120.20 116.57 120.03 117.53 120.52 118.23 C 121.01 118.92 121.96 119.09 122.66 118.60 Z M 123.46 118.04 L 124.27 117.49 C 124.97 117.01 125.16 116.06 124.68 115.35 C 124.21 114.65 123.25 114.47 122.55 114.94 L 121.74 115.49 C 121.03 115.97 120.85 116.92 121.32 117.63 C 121.80 118.33 122.75 118.51 123.46 118.04 Z M 124.25 117.50 L 125.09 116.96 C 125.80 116.49 126.00 115.54 125.53 114.83 C 125.07 114.12 124.11 113.92 123.40 114.38 L 122.57 114.93 C 121.86 115.39 121.66 116.35 122.12 117.06 C 122.59 117.77 123.54 117.97 124.25 117.50 Z M 125.07 116.97 L 125.92 116.43 C 126.64 115.98 126.85 115.02 126.40 114.31 C 125.94 113.59 124.99 113.37 124.27 113.83 L 123.42 114.37 C 122.70 114.83 122.49 115.78 122.94 116.49 C 123.40 117.21 124.35 117.43 125.07 116.97 Z M 125.91 116.44 L 126.77 115.91 C 127.50 115.46 127.72 114.51 127.27 113.79 C 126.83 113.06 125.88 112.84 125.15 113.28 L 124.29 113.82 C 123.56 114.27 123.34 115.22 123.79 115.94 C 124.23 116.66 125.18 116.89 125.91 116.44 Z M 126.76 115.92 L 127.62 115.39 C 128.35 114.95 128.59 114.01 128.15 113.28 C 127.71 112.55 126.76 112.31 126.03 112.75 L 125.17 113.28 C 124.44 113.72 124.20 114.66 124.64 115.39 C 125.08 116.12 126.03 116.36 126.76 115.92 Z M 127.61 115.40 L 128.47 114.90 C 129.20 114.47 129.44 113.52 129.01 112.79 C 128.58 112.05 127.63 111.81 126.90 112.24 L 126.04 112.75 C 125.31 113.18 125.06 114.12 125.50 114.86 C 125.93 115.59 126.88 115.84 127.61 115.40 Z M 128.45 114.91 L 129.32 114.41 C 130.06 113.98 130.31 113.04 129.89 112.30 C 129.46 111.56 128.52 111.31 127.78 111.73 L 126.91 112.23 C 126.17 112.66 125.92 113.60 126.34 114.34 C 126.77 115.08 127.71 115.33 128.45 114.91 Z M 129.30 114.42 L 130.18 113.93 C 130.92 113.52 131.19 112.57 130.77 111.83 C 130.35 111.09 129.41 110.82 128.67 111.24 L 127.79 111.72 C 127.05 112.14 126.78 113.08 127.20 113.83 C 127.62 114.57 128.56 114.84 129.30 114.42 Z M 130.16 113.94 L 131.04 113.46 C 131.79 113.06 132.07 112.12 131.66 111.37 C 131.26 110.62 130.32 110.34 129.57 110.75 L 128.69 111.22 C 127.94 111.63 127.66 112.57 128.06 113.32 C 128.47 114.07 129.41 114.35 130.16 113.94 Z M 131.02 113.48 L 131.91 113.01 C 132.67 112.62 132.96 111.68 132.57 110.93 C 132.17 110.17 131.24 109.88 130.48 110.27 L 129.59 110.73 C 128.83 111.13 128.54 112.06 128.93 112.82 C 129.33 113.58 130.26 113.87 131.02 113.48 Z M 131.89 113.02 L 132.77 112.58 C 133.53 112.20 133.84 111.27 133.46 110.51 C 133.08 109.74 132.15 109.44 131.39 109.82 L 130.50 110.26 C 129.74 110.64 129.43 111.57 129.81 112.33 C 130.20 113.10 131.12 113.41 131.89 113.02 Z M 132.75 112.59 L 133.64 112.17 C 134.41 111.80 134.73 110.87 134.36 110.10 C 134.00 109.33 133.07 109.01 132.30 109.38 L 131.41 109.81 C 130.64 110.18 130.31 111.10 130.68 111.87 C 131.05 112.64 131.98 112.96 132.75 112.59 Z M 133.62 112.18 L 134.52 111.76 C 135.30 111.40 135.64 110.48 135.28 109.71 C 134.92 108.93 134.00 108.59 133.23 108.95 L 132.32 109.37 C 131.55 109.72 131.21 110.64 131.57 111.42 C 131.92 112.19 132.84 112.53 133.62 112.18 Z M 134.50 111.77 L 135.42 111.36 C 136.20 111.02 136.56 110.10 136.21 109.32 C 135.87 108.54 134.95 108.19 134.17 108.53 L 133.25 108.94 C 132.47 109.28 132.12 110.20 132.46 110.98 C 132.81 111.76 133.72 112.11 134.50 111.77 Z M 135.40 111.37 L 136.34 110.97 C 137.12 110.64 137.49 109.73 137.16 108.95 C 136.82 108.16 135.91 107.79 135.13 108.13 L 134.19 108.52 C 133.41 108.86 133.04 109.76 133.37 110.55 C 133.71 111.34 134.61 111.70 135.40 111.37 Z M 136.31 110.98 L 137.26 110.60 C 138.06 110.28 138.44 109.37 138.11 108.58 C 137.79 107.79 136.89 107.41 136.10 107.73 L 135.15 108.12 C 134.36 108.44 133.98 109.34 134.30 110.13 C 134.62 110.92 135.52 111.31 136.31 110.98 Z M 137.24 110.61 L 138.20 110.24 C 139.00 109.93 139.39 109.03 139.08 108.23 C 138.77 107.44 137.88 107.04 137.08 107.35 L 136.12 107.72 C 135.32 108.03 134.93 108.93 135.24 109.73 C 135.55 110.52 136.45 110.92 137.24 110.61 Z M 138.18 110.25 L 139.14 109.89 C 139.94 109.60 140.35 108.70 140.05 107.90 C 139.76 107.10 138.87 106.69 138.06 106.99 L 137.10 107.34 C 136.30 107.64 135.89 108.53 136.19 109.33 C 136.48 110.13 137.37 110.54 138.18 110.25 Z M 139.11 109.90 L 140.06 109.57 C 140.86 109.29 141.29 108.41 141.01 107.60 C 140.73 106.79 139.85 106.36 139.04 106.65 L 138.09 106.98 C 137.28 107.26 136.85 108.14 137.14 108.95 C 137.42 109.76 138.30 110.18 139.11 109.90 Z M 140.02 109.58 L 140.95 109.29 C 141.76 109.02 142.21 108.15 141.95 107.33 C 141.68 106.52 140.81 106.07 140.00 106.33 L 139.07 106.63 C 138.25 106.90 137.81 107.77 138.07 108.59 C 138.33 109.40 139.21 109.85 140.02 109.58 Z M 140.91 109.30 L 141.85 109.02 C 142.68 108.78 143.15 107.92 142.90 107.09 C 142.66 106.27 141.80 105.80 140.98 106.04 L 140.03 106.32 C 139.21 106.56 138.74 107.43 138.98 108.25 C 139.23 109.07 140.09 109.54 140.91 109.30 Z M 141.80 109.04 L 142.84 108.77 C 143.67 108.56 144.17 107.71 143.95 106.88 C 143.74 106.05 142.89 105.55 142.06 105.76 L 141.03 106.03 C 140.20 106.24 139.70 107.09 139.91 107.92 C 140.13 108.75 140.97 109.25 141.80 109.04 Z M 142.78 108.78 L 143.77 108.57 C 144.61 108.38 145.14 107.55 144.96 106.72 C 144.77 105.88 143.95 105.35 143.11 105.53 L 142.12 105.75 C 141.28 105.93 140.75 106.76 140.93 107.60 C 141.12 108.44 141.95 108.97 142.78 108.78 Z M 143.72 108.58 L 144.67 108.40 C 145.52 108.25 146.08 107.44 145.92 106.59 C 145.77 105.75 144.96 105.19 144.11 105.34 L 143.16 105.52 C 142.31 105.67 141.75 106.48 141.91 107.33 C 142.06 108.17 142.87 108.73 143.72 108.58 Z M 144.62 108.41 L 145.55 108.28 C 146.40 108.15 146.99 107.35 146.86 106.50 C 146.73 105.65 145.94 105.07 145.09 105.20 L 144.16 105.33 C 143.31 105.46 142.72 106.25 142.85 107.11 C 142.98 107.96 143.77 108.54 144.62 108.41 Z M 145.51 108.28 L 146.51 108.16 C 147.37 108.06 147.98 107.28 147.88 106.43 C 147.77 105.57 147.00 104.96 146.14 105.07 L 145.13 105.19 C 144.28 105.29 143.67 106.07 143.77 106.92 C 143.87 107.78 144.65 108.39 145.51 108.28 Z M 146.47 108.17 L 147.49 108.07 C 148.35 107.99 148.98 107.23 148.90 106.38 C 148.82 105.52 148.06 104.89 147.20 104.96 L 146.18 105.06 C 145.33 105.14 144.69 105.90 144.77 106.76 C 144.85 107.62 145.61 108.25 146.47 108.17 Z M 147.45 108.08 L 148.44 108.01 C 149.30 107.95 149.95 107.21 149.89 106.34 C 149.84 105.48 149.09 104.83 148.23 104.89 L 147.24 104.96 C 146.38 105.02 145.72 105.76 145.78 106.63 C 145.84 107.49 146.59 108.14 147.45 108.08 Z M 148.41 108.02 L 149.37 107.97 C 150.24 107.93 150.90 107.20 150.86 106.33 C 150.82 105.47 150.09 104.80 149.22 104.84 L 148.26 104.89 C 147.40 104.93 146.73 105.66 146.77 106.53 C 146.81 107.39 147.55 108.06 148.41 108.02 Z M 149.34 107.97 L 150.37 107.94 C 151.24 107.92 151.92 107.20 151.90 106.33 C 151.87 105.47 151.15 104.79 150.29 104.81 L 149.25 104.84 C 148.39 104.86 147.71 105.58 147.73 106.45 C 147.75 107.31 148.47 108.00 149.34 107.97 Z M 150.32 107.94 L 151.34 107.95 C 152.20 107.95 152.91 107.25 152.91 106.39 C 152.91 105.52 152.21 104.82 151.35 104.81 L 150.34 104.81 C 149.47 104.81 148.77 105.51 148.76 106.37 C 148.76 107.24 149.46 107.94 150.32 107.94 Z M 151.26 107.94 L 152.24 107.99 C 153.10 108.04 153.84 107.37 153.88 106.51 C 153.92 105.64 153.26 104.91 152.40 104.87 L 151.42 104.82 C 150.56 104.77 149.82 105.44 149.78 106.30 C 149.74 107.17 150.40 107.90 151.26 107.94 Z M 152.14 107.98 L 153.11 108.10 C 153.97 108.20 154.74 107.58 154.84 106.72 C 154.94 105.86 154.32 105.09 153.47 104.99 L 152.50 104.87 C 151.64 104.78 150.86 105.39 150.76 106.25 C 150.66 107.11 151.28 107.89 152.14 107.98 Z M 152.98 108.08 L 153.96 108.27 C 154.81 108.44 155.64 107.89 155.80 107.04 C 155.97 106.20 155.42 105.37 154.58 105.20 L 153.59 105.01 C 152.74 104.84 151.92 105.39 151.75 106.23 C 151.58 107.08 152.13 107.91 152.98 108.08 Z M 153.82 108.24 L 154.77 108.52 C 155.60 108.77 156.47 108.30 156.72 107.47 C 156.97 106.65 156.50 105.77 155.67 105.52 L 154.72 105.24 C 153.89 104.99 153.02 105.46 152.77 106.29 C 152.52 107.11 152.99 107.99 153.82 108.24 Z M 154.62 108.47 L 155.53 108.85 C 156.33 109.18 157.25 108.80 157.58 108.00 C 157.91 107.20 157.53 106.29 156.73 105.96 L 155.82 105.58 C 155.02 105.25 154.11 105.62 153.77 106.42 C 153.44 107.22 153.82 108.14 154.62 108.47 Z M 155.40 108.79 L 156.24 109.24 C 157.01 109.64 157.96 109.35 158.36 108.59 C 158.77 107.82 158.48 106.87 157.71 106.47 L 156.87 106.02 C 156.10 105.61 155.15 105.90 154.75 106.67 C 154.34 107.43 154.63 108.38 155.40 108.79 Z M 156.15 109.19 L 156.99 109.71 C 157.73 110.17 158.70 109.94 159.16 109.21 C 159.62 108.47 159.39 107.50 158.65 107.04 L 157.81 106.52 C 157.07 106.06 156.10 106.28 155.64 107.02 C 155.19 107.76 155.41 108.73 156.15 109.19 Z M 156.93 109.68 L 157.79 110.26 C 158.51 110.76 159.49 110.57 159.98 109.86 C 160.47 109.14 160.29 108.16 159.57 107.67 L 158.71 107.08 C 157.99 106.59 157.01 106.77 156.52 107.49 C 156.03 108.20 156.22 109.18 156.93 109.68 Z M 157.76 110.25 L 158.58 110.83 C 159.28 111.34 160.27 111.18 160.78 110.47 C 161.29 109.76 161.12 108.78 160.42 108.27 L 159.60 107.68 C 158.89 107.18 157.91 107.34 157.40 108.04 C 156.89 108.75 157.05 109.74 157.76 110.25 Z M 158.55 110.81 L 159.36 111.42 C 160.05 111.94 161.04 111.80 161.57 111.10 C 162.09 110.41 161.95 109.42 161.25 108.89 L 160.44 108.29 C 159.75 107.77 158.76 107.91 158.23 108.60 C 157.71 109.30 157.85 110.29 158.55 110.81 Z M 159.32 111.39 L 160.11 112.02 C 160.79 112.57 161.79 112.45 162.33 111.77 C 162.87 111.09 162.76 110.09 162.08 109.55 L 161.29 108.92 C 160.61 108.38 159.61 108.49 159.07 109.17 C 158.52 109.85 158.64 110.85 159.32 111.39 Z M 160.06 111.98 L 160.81 112.63 C 161.47 113.20 162.47 113.13 163.04 112.47 C 163.61 111.81 163.54 110.81 162.88 110.24 L 162.13 109.59 C 161.47 109.02 160.47 109.09 159.90 109.75 C 159.33 110.41 159.40 111.41 160.06 111.98 Z M 160.75 112.58 L 161.48 113.28 C 162.11 113.89 163.12 113.87 163.72 113.24 C 164.33 112.60 164.31 111.60 163.68 110.99 L 162.94 110.29 C 162.31 109.68 161.31 109.71 160.70 110.34 C 160.09 110.97 160.12 111.97 160.75 112.58 Z M 161.42 113.23 L 162.10 113.95 C 162.70 114.59 163.70 114.62 164.34 114.02 C 164.99 113.42 165.02 112.42 164.42 111.78 L 163.74 111.05 C 163.14 110.41 162.13 110.38 161.49 110.98 C 160.85 111.58 160.82 112.58 161.42 113.23 Z M 162.04 113.90 L 162.68 114.65 C 163.25 115.32 164.26 115.40 164.93 114.83 C 165.60 114.26 165.68 113.25 165.11 112.58 L 164.47 111.83 C 163.90 111.16 162.90 111.08 162.22 111.65 C 161.55 112.22 161.47 113.22 162.04 113.90 Z M 162.64 114.60 L 163.25 115.38 C 163.80 116.07 164.80 116.19 165.49 115.65 C 166.19 115.10 166.31 114.10 165.76 113.40 L 165.16 112.63 C 164.61 111.93 163.61 111.81 162.91 112.36 C 162.22 112.90 162.10 113.91 162.64 114.60 Z M 163.22 115.35 L 163.81 116.14 C 164.34 116.85 165.34 117.00 166.05 116.48 C 166.76 115.95 166.91 114.95 166.39 114.23 L 165.80 113.44 C 165.27 112.73 164.27 112.58 163.55 113.10 C 162.84 113.63 162.69 114.63 163.22 115.35 Z M 163.79 116.12 L 164.37 116.94 C 164.89 117.66 165.89 117.83 166.61 117.32 C 167.34 116.80 167.50 115.80 166.99 115.07 L 166.41 114.26 C 165.89 113.53 164.89 113.36 164.16 113.88 C 163.44 114.39 163.27 115.40 163.79 116.12 Z M 164.36 116.93 L 164.94 117.76 C 165.45 118.49 166.46 118.67 167.18 118.16 C 167.91 117.65 168.09 116.65 167.58 115.92 L 167.00 115.08 C 166.49 114.36 165.49 114.18 164.76 114.69 C 164.03 115.20 163.85 116.20 164.36 116.93 Z M 164.94 117.76 L 165.51 118.58 C 166.02 119.31 167.02 119.50 167.75 118.99 C 168.49 118.48 168.67 117.47 168.16 116.74 L 167.59 115.92 C 167.08 115.18 166.07 115.00 165.34 115.51 C 164.61 116.02 164.43 117.03 164.94 117.76 Z M 165.50 118.58 L 166.07 119.40 C 166.58 120.14 167.58 120.32 168.32 119.81 C 169.06 119.31 169.24 118.30 168.73 117.56 L 168.17 116.74 C 167.66 116.01 166.65 115.82 165.91 116.33 C 165.18 116.84 164.99 117.84 165.50 118.58 Z M 166.06 119.40 L 166.62 120.22 C 167.13 120.96 168.14 121.16 168.88 120.65 C 169.62 120.15 169.81 119.14 169.30 118.40 L 168.74 117.57 C 168.24 116.83 167.23 116.64 166.49 117.14 C 165.75 117.65 165.56 118.65 166.06 119.40 Z M 166.61 120.21 L 167.17 121.04 C 167.66 121.79 168.67 122.00 169.42 121.50 C 170.17 121.00 170.37 119.99 169.87 119.24 L 169.32 118.41 C 168.82 117.66 167.81 117.46 167.06 117.96 C 166.32 118.45 166.11 119.46 166.61 120.21 Z M 167.15 121.03 L 167.70 121.87 C 168.19 122.63 169.20 122.84 169.95 122.35 C 170.71 121.86 170.92 120.85 170.43 120.10 L 169.89 119.26 C 169.40 118.50 168.39 118.29 167.63 118.78 C 166.88 119.27 166.66 120.28 167.15 121.03 Z M 167.69 121.86 L 168.23 122.71 C 168.71 123.47 169.72 123.69 170.48 123.21 C 171.24 122.72 171.47 121.71 170.98 120.95 L 170.44 120.11 C 169.96 119.35 168.95 119.12 168.19 119.61 C 167.43 120.09 167.20 121.10 167.69 121.86 Z M 168.22 122.71 L 168.76 123.55 C 169.24 124.31 170.25 124.54 171.02 124.05 C 171.78 123.57 172.00 122.56 171.52 121.80 L 170.99 120.95 C 170.50 120.19 169.49 119.96 168.73 120.45 C 167.96 120.93 167.74 121.94 168.22 122.71 Z M 168.76 123.55 L 169.29 124.39 C 169.78 125.16 170.79 125.38 171.56 124.89 C 172.32 124.41 172.54 123.39 172.06 122.63 L 171.52 121.79 C 171.03 121.03 170.02 120.80 169.26 121.29 C 168.49 121.78 168.27 122.79 168.76 123.55 Z M 169.30 124.41 L 169.84 125.24 C 170.33 126.00 171.35 126.22 172.11 125.73 C 172.87 125.23 173.09 124.21 172.59 123.45 L 172.05 122.62 C 171.56 121.86 170.54 121.64 169.78 122.13 C 169.02 122.63 168.80 123.65 169.30 124.41 Z M 169.85 125.26 L 170.40 126.09 C 170.91 126.85 171.93 127.05 172.68 126.54 C 173.44 126.04 173.64 125.02 173.14 124.26 L 172.59 123.43 C 172.08 122.68 171.06 122.47 170.30 122.98 C 169.55 123.48 169.34 124.50 169.85 125.26 Z M 170.42 126.12 L 170.99 126.94 C 171.51 127.69 172.53 127.88 173.28 127.36 C 174.03 126.84 174.22 125.81 173.70 125.06 L 173.12 124.24 C 172.61 123.49 171.58 123.30 170.83 123.82 C 170.08 124.34 169.90 125.37 170.42 126.12 Z M 171.01 126.97 L 171.56 127.73 C 172.09 128.47 173.13 128.64 173.86 128.10 C 174.60 127.56 174.77 126.53 174.23 125.79 L 173.68 125.03 C 173.14 124.29 172.11 124.13 171.37 124.67 C 170.63 125.20 170.47 126.23 171.01 126.97 Z M 171.58 127.77 L 172.15 128.52 C 172.71 129.24 173.74 129.38 174.47 128.83 C 175.20 128.28 175.34 127.24 174.78 126.51 L 174.21 125.76 C 173.66 125.04 172.62 124.89 171.89 125.45 C 171.17 126.00 171.03 127.04 171.58 127.77 Z M 172.17 128.55 L 172.80 129.33 C 173.37 130.04 174.41 130.16 175.13 129.59 C 175.84 129.02 175.96 127.98 175.38 127.26 L 174.76 126.48 C 174.19 125.77 173.15 125.65 172.43 126.22 C 171.72 126.79 171.60 127.84 172.17 128.55 Z M 172.82 129.36 L 173.51 130.18 C 174.10 130.88 175.14 130.98 175.85 130.39 C 176.55 129.80 176.64 128.75 176.05 128.05 L 175.36 127.23 C 174.77 126.53 173.73 126.44 173.03 127.02 C 172.32 127.61 172.23 128.66 172.82 129.36 Z M 173.53 130.21 L 174.19 130.97 C 174.80 131.66 175.85 131.73 176.54 131.13 C 177.23 130.52 177.30 129.47 176.69 128.78 L 176.03 128.02 C 175.43 127.33 174.38 127.26 173.69 127.87 C 173.00 128.47 172.93 129.52 173.53 130.21 Z M 174.22 130.99 L 174.88 131.72 C 175.50 132.40 176.55 132.45 177.22 131.83 C 177.90 131.21 177.95 130.16 177.33 129.49 L 176.67 128.76 C 176.06 128.08 175.00 128.03 174.33 128.65 C 173.65 129.27 173.60 130.32 174.22 130.99 Z M 174.90 131.75 L 175.61 132.49 C 176.24 133.15 177.29 133.17 177.96 132.54 C 178.62 131.90 178.64 130.85 178.01 130.19 L 177.31 129.46 C 176.67 128.79 175.62 128.77 174.96 129.40 C 174.29 130.04 174.27 131.09 174.90 131.75 Z M 175.64 132.52 L 176.37 133.24 C 177.02 133.89 178.08 133.88 178.72 133.22 C 179.37 132.57 179.36 131.52 178.70 130.87 L 177.97 130.15 C 177.32 129.51 176.27 129.52 175.62 130.17 C 174.98 130.82 174.99 131.88 175.64 132.52 Z M 176.42 133.29 L 177.17 133.97 C 177.84 134.59 178.90 134.54 179.52 133.86 C 180.14 133.18 180.09 132.13 179.41 131.51 L 178.66 130.83 C 177.98 130.21 176.93 130.26 176.31 130.93 C 175.69 131.61 175.74 132.67 176.42 133.29 Z M 177.23 134.02 L 178.02 134.68 C 178.73 135.27 179.78 135.17 180.36 134.46 C 180.95 133.75 180.85 132.70 180.14 132.11 L 179.35 131.46 C 178.64 130.87 177.59 130.97 177.00 131.68 C 176.42 132.39 176.52 133.44 177.23 134.02 Z M 178.10 134.74 L 178.93 135.35 C 179.68 135.89 180.72 135.73 181.26 134.99 C 181.80 134.24 181.64 133.20 180.90 132.66 L 180.06 132.05 C 179.32 131.51 178.28 131.67 177.73 132.42 C 177.19 133.16 177.36 134.20 178.10 134.74 Z M 179.03 135.42 L 179.88 135.95 C 180.66 136.44 181.69 136.20 182.17 135.42 C 182.66 134.64 182.43 133.61 181.65 133.12 L 180.80 132.59 C 180.02 132.11 178.99 132.34 178.50 133.12 C 178.01 133.90 178.25 134.93 179.03 135.42 Z M 179.99 136.01 L 180.85 136.47 C 181.67 136.89 182.68 136.58 183.10 135.76 C 183.53 134.95 183.22 133.94 182.40 133.51 L 181.54 133.06 C 180.72 132.63 179.71 132.95 179.29 133.76 C 178.86 134.58 179.17 135.58 179.99 136.01 Z M 180.98 136.52 L 181.87 136.90 C 182.71 137.26 183.69 136.86 184.05 136.02 C 184.41 135.17 184.02 134.19 183.17 133.83 L 182.28 133.45 C 181.43 133.10 180.45 133.49 180.09 134.34 C 179.73 135.19 180.13 136.17 180.98 136.52 Z M 182.00 136.95 L 182.95 137.26 C 183.82 137.55 184.76 137.07 185.05 136.19 C 185.34 135.32 184.86 134.38 183.98 134.09 L 183.03 133.78 C 182.16 133.50 181.22 133.97 180.93 134.85 C 180.65 135.72 181.13 136.67 182.00 136.95 Z M 183.08 137.30 L 184.06 137.53 C 184.95 137.74 185.85 137.19 186.06 136.30 C 186.28 135.40 185.73 134.50 184.83 134.29 L 183.85 134.05 C 182.96 133.84 182.06 134.39 181.84 135.29 C 181.63 136.18 182.18 137.08 183.08 137.30 Z M 184.17 137.55 L 185.16 137.72 C 186.07 137.87 186.93 137.25 187.08 136.34 C 187.23 135.44 186.61 134.58 185.71 134.43 L 184.71 134.27 C 183.81 134.12 182.95 134.73 182.80 135.64 C 182.65 136.55 183.26 137.40 184.17 137.55 Z M 185.27 137.73 L 186.26 137.83 C 187.17 137.92 187.99 137.25 188.08 136.34 C 188.17 135.42 187.51 134.61 186.59 134.52 L 185.60 134.42 C 184.69 134.32 183.87 134.99 183.78 135.91 C 183.69 136.82 184.35 137.64 185.27 137.73 Z M 186.35 137.84 L 187.34 137.88 C 188.26 137.92 189.04 137.21 189.08 136.29 C 189.12 135.37 188.40 134.59 187.49 134.55 L 186.50 134.51 C 185.58 134.47 184.80 135.18 184.76 136.10 C 184.72 137.02 185.43 137.80 186.35 137.84 Z M 187.44 137.88 L 188.44 137.86 C 189.36 137.84 190.09 137.08 190.07 136.17 C 190.06 135.25 189.30 134.52 188.38 134.54 L 187.38 134.55 C 186.47 134.57 185.74 135.33 185.75 136.25 C 185.77 137.16 186.53 137.89 187.44 137.88 Z M 188.58 137.85 L 189.56 137.74 C 190.47 137.65 191.13 136.83 191.04 135.92 C 190.94 135.01 190.13 134.35 189.22 134.45 L 188.24 134.55 C 187.33 134.64 186.67 135.46 186.76 136.37 C 186.86 137.28 187.67 137.94 188.58 137.85 Z M 189.74 137.71 L 190.71 137.50 C 191.60 137.30 192.17 136.42 191.97 135.53 C 191.78 134.64 190.90 134.07 190.01 134.27 L 189.04 134.48 C 188.15 134.67 187.58 135.56 187.78 136.45 C 187.97 137.34 188.85 137.90 189.74 137.71 Z M 190.91 137.44 L 191.87 137.09 C 192.73 136.79 193.17 135.84 192.87 134.99 C 192.56 134.13 191.62 133.68 190.76 133.99 L 189.80 134.33 C 188.95 134.64 188.50 135.58 188.81 136.44 C 189.11 137.30 190.06 137.74 190.91 137.44 Z M 192.06 137.00 L 192.96 136.54 C 193.76 136.13 194.08 135.14 193.67 134.33 C 193.25 133.53 192.26 133.21 191.46 133.62 L 190.56 134.08 C 189.76 134.49 189.44 135.48 189.85 136.29 C 190.27 137.10 191.26 137.42 192.06 137.00 Z M 193.09 136.45 L 193.95 135.90 C 194.71 135.41 194.93 134.40 194.44 133.64 C 193.95 132.88 192.94 132.67 192.18 133.16 L 191.32 133.71 C 190.56 134.20 190.35 135.21 190.84 135.97 C 191.32 136.73 192.34 136.94 193.09 136.45 Z M 194.04 135.82 L 194.87 135.20 C 195.58 134.67 195.73 133.65 195.19 132.93 C 194.65 132.22 193.63 132.07 192.92 132.61 L 192.09 133.23 C 191.38 133.77 191.23 134.79 191.77 135.50 C 192.31 136.22 193.33 136.36 194.04 135.82 Z M 194.92 135.14 L 195.69 134.51 C 196.37 133.93 196.46 132.92 195.89 132.23 C 195.32 131.55 194.31 131.46 193.62 132.03 L 192.86 132.67 C 192.17 133.24 192.08 134.26 192.65 134.94 C 193.22 135.62 194.24 135.72 194.92 135.14 Z M 195.73 134.46 L 196.45 133.81 C 197.11 133.22 197.16 132.20 196.57 131.55 C 195.98 130.89 194.97 130.84 194.31 131.43 L 193.59 132.08 C 192.93 132.67 192.87 133.68 193.47 134.34 C 194.06 135.00 195.07 135.05 195.73 134.46 Z M 196.47 133.76 L 197.26 133.02 C 197.89 132.41 197.91 131.41 197.31 130.78 C 196.71 130.14 195.70 130.12 195.07 130.72 L 194.29 131.47 C 193.65 132.08 193.63 133.08 194.23 133.71 C 194.84 134.34 195.84 134.37 196.47 133.76 Z M 197.28 132.96 L 197.96 132.27 C 198.57 131.65 198.56 130.66 197.94 130.06 C 197.33 129.45 196.34 129.46 195.73 130.08 L 195.05 130.78 C 194.44 131.39 194.45 132.38 195.07 132.99 C 195.69 133.59 196.68 133.58 197.28 132.96 Z M 197.98 132.22 L 198.62 131.53 C 199.19 130.91 199.16 129.93 198.53 129.35 C 197.91 128.78 196.93 128.81 196.35 129.44 L 195.72 130.12 C 195.14 130.75 195.17 131.73 195.80 132.30 C 196.42 132.88 197.40 132.85 197.98 132.22 Z M 198.62 131.50 L 199.26 130.78 C 199.82 130.16 199.77 129.19 199.14 128.63 C 198.51 128.07 197.55 128.13 196.99 128.75 L 196.35 129.47 C 195.78 130.10 195.84 131.06 196.47 131.62 C 197.10 132.18 198.06 132.13 198.62 131.50 Z M 199.27 130.76 L 199.92 130.00 C 200.47 129.37 200.40 128.41 199.76 127.87 C 199.13 127.32 198.18 127.39 197.63 128.02 L 196.98 128.78 C 196.43 129.41 196.50 130.37 197.14 130.91 C 197.77 131.46 198.72 131.39 199.27 130.76 Z M 199.93 129.97 L 200.58 129.19 C 201.11 128.55 201.02 127.60 200.38 127.08 C 199.74 126.55 198.79 126.64 198.26 127.28 L 197.62 128.06 C 197.09 128.69 197.18 129.64 197.82 130.17 C 198.46 130.70 199.40 130.61 199.93 129.97 Z M 200.60 129.15 L 201.22 128.36 C 201.72 127.71 201.61 126.77 200.96 126.27 C 200.31 125.76 199.38 125.87 198.87 126.52 L 198.25 127.31 C 197.74 127.96 197.86 128.90 198.50 129.41 C 199.15 129.91 200.09 129.80 200.60 129.15 Z M 201.24 128.31 L 201.83 127.49 C 202.32 126.83 202.17 125.91 201.51 125.43 C 200.85 124.94 199.93 125.09 199.45 125.75 L 198.85 126.57 C 198.37 127.23 198.51 128.15 199.17 128.63 C 199.83 129.12 200.75 128.97 201.24 128.31 Z M 201.85 127.45 L 202.42 126.63 C 202.87 125.96 202.70 125.04 202.03 124.59 C 201.36 124.13 200.45 124.30 199.99 124.97 L 199.43 125.79 C 198.97 126.46 199.14 127.37 199.81 127.83 C 200.48 128.29 201.39 128.12 201.85 127.45 Z M 202.43 126.59 L 202.97 125.76 C 203.40 125.09 203.21 124.18 202.54 123.74 C 201.86 123.31 200.96 123.50 200.52 124.17 L 199.98 125.00 C 199.54 125.68 199.73 126.58 200.41 127.02 C 201.08 127.46 201.99 127.27 202.43 126.59 Z M 202.97 125.74 L 203.50 124.89 C 203.92 124.21 203.72 123.32 203.04 122.89 C 202.36 122.47 201.46 122.68 201.04 123.36 L 200.51 124.20 C 200.09 124.88 200.29 125.77 200.97 126.20 C 201.65 126.62 202.55 126.41 202.97 125.74 Z M 203.50 124.88 L 204.02 124.02 C 204.44 123.34 204.22 122.45 203.54 122.04 C 202.86 121.62 201.98 121.84 201.56 122.52 L 201.04 123.37 C 200.62 124.05 200.84 124.94 201.52 125.35 C 202.20 125.77 203.08 125.56 203.50 124.88 Z M 204.02 124.02 L 204.54 123.17 C 204.95 122.49 204.74 121.60 204.06 121.19 C 203.39 120.78 202.50 120.99 202.09 121.67 L 201.57 122.52 C 201.15 123.20 201.36 124.08 202.04 124.50 C 202.72 124.91 203.60 124.70 204.02 124.02 Z M 204.53 123.17 L 205.04 122.36 C 205.46 121.69 205.25 120.80 204.58 120.38 C 203.91 119.97 203.03 120.17 202.61 120.84 L 202.10 121.66 C 201.68 122.33 201.88 123.21 202.55 123.63 C 203.23 124.05 204.11 123.84 204.53 123.17 Z M 205.03 122.36 L 205.52 121.59 C 205.94 120.93 205.74 120.05 205.07 119.62 C 204.40 119.20 203.52 119.40 203.10 120.07 L 202.61 120.84 C 202.19 121.50 202.39 122.39 203.06 122.81 C 203.73 123.23 204.61 123.03 205.03 122.36 Z M 205.53 121.57 L 206.03 120.75 C 206.44 120.07 206.23 119.19 205.55 118.78 C 204.88 118.37 204.00 118.59 203.59 119.26 L 203.09 120.09 C 202.68 120.76 202.89 121.64 203.56 122.05 C 204.24 122.46 205.12 122.25 205.53 121.57 Z M 206.05 120.71 L 206.58 119.77 C 206.97 119.08 206.73 118.21 206.04 117.82 C 205.36 117.43 204.49 117.68 204.10 118.36 L 203.57 119.30 C 203.18 119.99 203.42 120.86 204.11 121.25 C 204.80 121.63 205.67 121.39 206.05 120.71 Z M 206.61 119.72 L 207.07 118.83 C 207.43 118.13 207.16 117.27 206.46 116.91 C 205.76 116.54 204.90 116.82 204.54 117.52 L 204.07 118.41 C 203.71 119.11 203.99 119.97 204.69 120.33 C 205.39 120.69 206.25 120.42 206.61 119.72 Z M 207.09 118.79 L 207.49 117.96 C 207.83 117.25 207.54 116.40 206.83 116.06 C 206.12 115.71 205.26 116.01 204.92 116.72 L 204.52 117.55 C 204.18 118.26 204.47 119.11 205.18 119.46 C 205.89 119.80 206.74 119.50 207.09 118.79 Z M 207.50 117.94 L 207.91 117.05 C 208.25 116.33 207.93 115.49 207.22 115.15 C 206.51 114.82 205.66 115.13 205.33 115.85 L 204.91 116.74 C 204.58 117.46 204.89 118.30 205.60 118.63 C 206.32 118.97 207.17 118.66 207.50 117.94 Z M 207.92 117.03 L 208.34 116.09 C 208.67 115.37 208.35 114.53 207.63 114.21 C 206.91 113.88 206.07 114.20 205.75 114.92 L 205.32 115.86 C 205.00 116.58 205.32 117.42 206.03 117.75 C 206.75 118.07 207.60 117.75 207.92 117.03 Z M 208.35 116.08 L 208.78 115.11 C 209.10 114.39 208.77 113.55 208.05 113.23 C 207.33 112.91 206.49 113.24 206.17 113.96 L 205.74 114.93 C 205.42 115.65 205.75 116.49 206.47 116.81 C 207.19 117.13 208.03 116.80 208.35 116.08 Z M 208.78 115.11 L 209.18 114.21 C 209.49 113.49 209.17 112.64 208.45 112.33 C 207.72 112.01 206.88 112.34 206.57 113.06 L 206.17 113.96 C 205.85 114.68 206.18 115.52 206.90 115.84 C 207.62 116.16 208.46 115.83 208.78 115.11 Z"
      fill="black"
      fill-rule="nonzero" /><path d="M 111.37 184.41 L 111.11 183.44 C 110.89 182.60 110.03 182.09 109.19 182.31 C 108.35 182.53 107.85 183.39 108.07 184.24 L 108.32 185.20 C 108.54 186.05 109.40 186.55 110.24 186.33 C 111.08 186.11 111.59 185.25 111.37 184.41 Z M 111.12 183.45 L 110.87 182.48 C 110.66 181.64 109.81 181.13 108.96 181.34 C 108.12 181.55 107.61 182.41 107.82 183.25 L 108.06 184.22 C 108.28 185.06 109.13 185.57 109.97 185.36 C 110.82 185.15 111.33 184.30 111.12 183.45 Z M 110.88 182.51 L 110.65 181.54 C 110.46 180.69 109.61 180.17 108.77 180.36 C 107.92 180.56 107.40 181.40 107.59 182.25 L 107.82 183.22 C 108.01 184.07 108.85 184.59 109.70 184.40 C 110.55 184.20 111.07 183.36 110.88 182.51 Z M 110.66 181.58 L 110.46 180.61 C 110.29 179.76 109.47 179.21 108.62 179.38 C 107.77 179.55 107.22 180.37 107.39 181.22 L 107.58 182.20 C 107.75 183.05 108.58 183.60 109.43 183.43 C 110.28 183.26 110.83 182.43 110.66 181.58 Z M 110.47 180.67 L 110.31 179.68 C 110.18 178.82 109.37 178.24 108.52 178.38 C 107.66 178.52 107.08 179.32 107.22 180.18 L 107.38 181.16 C 107.52 182.02 108.32 182.60 109.17 182.46 C 110.03 182.32 110.61 181.52 110.47 180.67 Z M 110.32 179.75 L 110.21 178.74 C 110.11 177.89 109.34 177.27 108.48 177.37 C 107.62 177.46 107.00 178.24 107.10 179.09 L 107.21 180.10 C 107.31 180.96 108.08 181.58 108.94 181.48 C 109.80 181.38 110.42 180.61 110.32 179.75 Z M 110.21 178.83 L 110.15 177.81 C 110.10 176.95 109.36 176.30 108.50 176.35 C 107.64 176.40 106.99 177.14 107.04 178.00 L 107.10 179.01 C 107.15 179.87 107.89 180.53 108.75 180.48 C 109.61 180.43 110.26 179.69 110.21 178.83 Z M 110.15 177.90 L 110.15 176.89 C 110.14 176.04 109.45 175.34 108.59 175.34 C 107.73 175.34 107.04 176.04 107.04 176.90 L 107.04 177.91 C 107.04 178.77 107.74 179.46 108.60 179.46 C 109.46 179.46 110.15 178.76 110.15 177.90 Z M 110.14 176.99 L 110.20 176.00 C 110.25 175.14 109.60 174.41 108.74 174.36 C 107.89 174.31 107.16 174.96 107.10 175.81 L 107.04 176.80 C 106.99 177.66 107.64 178.39 108.50 178.44 C 109.35 178.50 110.09 177.84 110.14 176.99 Z M 110.18 176.10 L 110.31 175.13 C 110.42 174.29 109.82 173.51 108.97 173.40 C 108.13 173.29 107.35 173.89 107.24 174.74 L 107.12 175.71 C 107.01 176.55 107.61 177.33 108.45 177.44 C 109.30 177.55 110.07 176.95 110.18 176.10 Z M 110.29 175.25 L 110.49 174.29 C 110.66 173.46 110.12 172.64 109.29 172.47 C 108.46 172.29 107.64 172.83 107.46 173.66 L 107.27 174.62 C 107.09 175.45 107.63 176.27 108.46 176.45 C 109.30 176.62 110.11 176.08 110.29 175.25 Z M 110.46 174.41 L 110.73 173.48 C 110.97 172.66 110.50 171.80 109.68 171.56 C 108.86 171.32 108.01 171.79 107.77 172.61 L 107.49 173.54 C 107.25 174.36 107.72 175.22 108.54 175.46 C 109.36 175.70 110.22 175.23 110.46 174.41 Z M 110.70 173.59 L 111.04 172.67 C 111.34 171.87 110.94 170.98 110.14 170.68 C 109.34 170.38 108.45 170.78 108.14 171.58 L 107.80 172.50 C 107.50 173.30 107.90 174.19 108.70 174.49 C 109.51 174.79 110.40 174.39 110.70 173.59 Z M 111.01 172.77 L 111.42 171.86 C 111.78 171.08 111.43 170.16 110.65 169.80 C 109.87 169.45 108.95 169.79 108.60 170.57 L 108.18 171.48 C 107.83 172.27 108.17 173.19 108.95 173.54 C 109.73 173.89 110.65 173.55 111.01 172.77 Z M 111.39 171.94 L 111.87 171.02 C 112.27 170.26 111.97 169.32 111.21 168.92 C 110.45 168.52 109.51 168.81 109.11 169.57 L 108.63 170.49 C 108.23 171.25 108.53 172.19 109.29 172.59 C 110.05 172.99 110.99 172.70 111.39 171.94 Z M 111.84 171.08 L 112.35 170.19 C 112.79 169.45 112.53 168.49 111.79 168.06 C 111.04 167.63 110.09 167.88 109.66 168.62 L 109.14 169.51 C 108.71 170.26 108.96 171.21 109.71 171.64 C 110.45 172.08 111.40 171.82 111.84 171.08 Z M 112.33 170.24 L 112.88 169.36 C 113.34 168.63 113.12 167.67 112.38 167.21 C 111.65 166.75 110.69 166.97 110.23 167.70 L 109.68 168.58 C 109.22 169.31 109.44 170.27 110.17 170.73 C 110.91 171.19 111.87 170.97 112.33 170.24 Z M 112.86 169.40 L 113.43 168.54 C 113.91 167.82 113.72 166.84 113.00 166.36 C 112.27 165.89 111.30 166.08 110.82 166.80 L 110.25 167.67 C 109.77 168.39 109.97 169.36 110.69 169.84 C 111.41 170.32 112.38 170.12 112.86 169.40 Z M 113.42 168.57 L 114.00 167.74 C 114.49 167.03 114.32 166.05 113.61 165.55 C 112.89 165.05 111.91 165.23 111.42 165.94 L 110.84 166.77 C 110.34 167.48 110.52 168.46 111.23 168.96 C 111.94 169.46 112.92 169.28 113.42 168.57 Z M 113.98 167.76 L 114.55 166.98 C 115.06 166.28 114.90 165.29 114.20 164.78 C 113.49 164.27 112.51 164.43 112.00 165.13 L 111.43 165.91 C 110.92 166.62 111.08 167.60 111.78 168.12 C 112.49 168.63 113.47 168.47 113.98 167.76 Z M 114.54 167.01 L 115.15 166.19 C 115.67 165.50 115.53 164.51 114.84 163.98 C 114.14 163.46 113.15 163.60 112.62 164.29 L 112.01 165.11 C 111.49 165.80 111.63 166.80 112.32 167.32 C 113.02 167.85 114.01 167.71 114.54 167.01 Z M 115.13 166.22 L 115.81 165.36 C 116.35 164.68 116.23 163.68 115.55 163.14 C 114.86 162.60 113.87 162.71 113.32 163.40 L 112.64 164.26 C 112.10 164.95 112.22 165.94 112.91 166.49 C 113.59 167.03 114.59 166.91 115.13 166.22 Z M 115.78 165.40 L 116.41 164.65 C 116.97 163.98 116.89 162.98 116.22 162.42 C 115.55 161.85 114.55 161.94 113.99 162.61 L 113.35 163.36 C 112.79 164.03 112.88 165.03 113.55 165.59 C 114.22 166.16 115.22 166.07 115.78 165.40 Z M 116.38 164.69 L 116.98 164.02 C 117.57 163.37 117.52 162.37 116.87 161.78 C 116.22 161.20 115.22 161.25 114.63 161.90 L 114.02 162.57 C 113.43 163.22 113.48 164.22 114.13 164.81 C 114.78 165.39 115.79 165.34 116.38 164.69 Z M 116.94 164.07 L 117.61 163.39 C 118.22 162.76 118.21 161.76 117.58 161.14 C 116.95 160.53 115.95 160.54 115.34 161.17 L 114.67 161.85 C 114.06 162.48 114.07 163.48 114.69 164.09 C 115.32 164.71 116.33 164.70 116.94 164.07 Z M 117.56 163.44 L 118.29 162.76 C 118.93 162.16 118.96 161.15 118.36 160.51 C 117.76 159.87 116.76 159.83 116.12 160.43 L 115.38 161.12 C 114.74 161.72 114.71 162.72 115.31 163.37 C 115.91 164.01 116.91 164.04 117.56 163.44 Z M 118.23 162.81 L 118.99 162.17 C 119.66 161.60 119.74 160.60 119.18 159.93 C 118.61 159.25 117.60 159.17 116.93 159.74 L 116.18 160.38 C 115.50 160.95 115.42 161.95 115.99 162.62 C 116.56 163.29 117.56 163.38 118.23 162.81 Z M 118.92 162.22 L 119.71 161.62 C 120.41 161.09 120.55 160.09 120.02 159.39 C 119.49 158.69 118.49 158.55 117.79 159.09 L 117.00 159.69 C 116.30 160.22 116.16 161.22 116.69 161.92 C 117.22 162.62 118.22 162.75 118.92 162.22 Z M 119.65 161.67 L 120.47 161.11 C 121.20 160.61 121.38 159.62 120.89 158.89 C 120.39 158.16 119.40 157.98 118.67 158.48 L 117.85 159.04 C 117.12 159.53 116.94 160.53 117.43 161.25 C 117.93 161.98 118.92 162.17 119.65 161.67 Z M 120.42 161.14 L 121.27 160.61 C 122.01 160.15 122.24 159.17 121.78 158.42 C 121.31 157.67 120.33 157.44 119.58 157.91 L 118.73 158.44 C 117.98 158.90 117.75 159.89 118.22 160.63 C 118.68 161.38 119.67 161.61 120.42 161.14 Z M 121.22 160.64 L 122.09 160.14 C 122.85 159.70 123.11 158.73 122.68 157.96 C 122.24 157.20 121.26 156.94 120.50 157.38 L 119.63 157.88 C 118.86 158.32 118.60 159.29 119.04 160.06 C 119.48 160.82 120.46 161.08 121.22 160.64 Z M 122.04 160.17 L 122.93 159.69 C 123.70 159.28 124.00 158.31 123.58 157.54 C 123.17 156.76 122.20 156.47 121.42 156.88 L 120.54 157.35 C 119.76 157.77 119.47 158.74 119.89 159.51 C 120.30 160.29 121.27 160.58 122.04 160.17 Z M 122.87 159.72 L 123.77 159.28 C 124.56 158.90 124.89 157.95 124.51 157.16 C 124.12 156.37 123.17 156.04 122.38 156.42 L 121.48 156.86 C 120.69 157.24 120.36 158.19 120.74 158.98 C 121.13 159.77 122.08 160.10 122.87 159.72 Z M 123.69 159.31 L 124.61 158.93 C 125.42 158.59 125.80 157.66 125.46 156.85 C 125.12 156.05 124.19 155.67 123.38 156.00 L 122.46 156.39 C 121.65 156.73 121.27 157.66 121.61 158.47 C 121.95 159.27 122.88 159.65 123.69 159.31 Z M 124.52 158.96 L 125.46 158.63 C 126.29 158.35 126.72 157.45 126.44 156.62 C 126.15 155.79 125.25 155.36 124.42 155.64 L 123.48 155.97 C 122.65 156.26 122.21 157.16 122.50 157.99 C 122.79 158.81 123.69 159.25 124.52 158.96 Z M 125.37 158.66 L 126.33 158.39 C 127.18 158.16 127.67 157.28 127.43 156.44 C 127.19 155.59 126.32 155.10 125.47 155.34 L 124.51 155.61 C 123.67 155.85 123.18 156.73 123.42 157.57 C 123.65 158.41 124.53 158.90 125.37 158.66 Z M 126.26 158.41 L 127.23 158.19 C 128.09 158.00 128.62 157.15 128.43 156.29 C 128.23 155.44 127.38 154.90 126.53 155.10 L 125.55 155.32 C 124.70 155.52 124.16 156.37 124.36 157.22 C 124.55 158.07 125.40 158.61 126.26 158.41 Z M 127.17 158.21 L 128.08 158.04 C 128.94 157.88 129.51 157.05 129.35 156.18 C 129.19 155.32 128.36 154.75 127.50 154.91 L 126.59 155.08 C 125.73 155.24 125.16 156.07 125.32 156.94 C 125.48 157.80 126.31 158.37 127.17 158.21 Z M 128.02 158.05 L 128.91 157.92 C 129.78 157.79 130.38 156.98 130.26 156.11 C 130.13 155.24 129.32 154.64 128.45 154.77 L 127.56 154.90 C 126.69 155.03 126.09 155.84 126.22 156.71 C 126.35 157.58 127.15 158.18 128.02 158.05 Z M 128.85 157.93 L 129.84 157.82 C 130.71 157.72 131.35 156.94 131.25 156.07 C 131.16 155.19 130.37 154.56 129.50 154.65 L 128.51 154.76 C 127.64 154.86 127.01 155.64 127.10 156.51 C 127.19 157.39 127.98 158.02 128.85 157.93 Z M 129.79 157.83 L 130.92 157.74 C 131.80 157.68 132.46 156.91 132.40 156.03 C 132.33 155.16 131.57 154.50 130.69 154.56 L 129.55 154.65 C 128.67 154.71 128.01 155.48 128.08 156.35 C 128.14 157.23 128.91 157.89 129.79 157.83 Z M 130.89 157.75 L 131.89 157.70 C 132.77 157.65 133.44 156.90 133.40 156.02 C 133.36 155.14 132.61 154.46 131.73 154.51 L 130.73 154.56 C 129.85 154.60 129.17 155.35 129.21 156.23 C 129.26 157.11 130.01 157.79 130.89 157.75 Z M 131.85 157.70 L 132.88 157.67 C 133.76 157.65 134.45 156.91 134.43 156.02 C 134.40 155.14 133.66 154.45 132.78 154.47 L 131.76 154.50 C 130.87 154.53 130.18 155.27 130.21 156.15 C 130.23 157.03 130.97 157.73 131.85 157.70 Z M 132.84 157.68 L 133.89 157.67 C 134.77 157.67 135.49 156.94 135.48 156.06 C 135.48 155.17 134.76 154.46 133.87 154.46 L 132.82 154.47 C 131.93 154.47 131.22 155.20 131.22 156.08 C 131.23 156.97 131.95 157.68 132.84 157.68 Z M 133.84 157.67 L 134.87 157.70 C 135.75 157.72 136.49 157.02 136.52 156.13 C 136.54 155.24 135.84 154.51 134.95 154.48 L 133.92 154.46 C 133.03 154.44 132.29 155.14 132.27 156.03 C 132.25 156.91 132.95 157.65 133.84 157.67 Z M 134.80 157.70 L 135.76 157.77 C 136.65 157.83 137.42 157.16 137.48 156.27 C 137.54 155.38 136.87 154.61 135.98 154.55 L 135.02 154.48 C 134.13 154.42 133.36 155.09 133.30 155.98 C 133.24 156.87 133.91 157.64 134.80 157.70 Z M 135.63 157.76 L 136.74 157.92 C 137.62 158.05 138.44 157.44 138.57 156.55 C 138.70 155.67 138.09 154.85 137.20 154.72 L 136.10 154.56 C 135.22 154.43 134.40 155.04 134.27 155.92 C 134.14 156.81 134.75 157.63 135.63 157.76 Z M 136.55 157.89 L 137.55 158.15 C 138.42 158.39 139.31 157.87 139.54 157.01 C 139.77 156.15 139.26 155.26 138.39 155.02 L 137.39 154.75 C 136.53 154.52 135.64 155.03 135.41 155.90 C 135.17 156.76 135.69 157.65 136.55 157.89 Z M 137.35 158.09 L 138.20 158.44 C 139.03 158.78 139.98 158.39 140.32 157.56 C 140.66 156.73 140.27 155.78 139.44 155.44 L 138.59 155.09 C 137.76 154.74 136.81 155.14 136.47 155.97 C 136.13 156.80 136.52 157.75 137.35 158.09 Z M 138.04 158.37 L 138.83 158.80 C 139.62 159.23 140.61 158.94 141.04 158.15 C 141.47 157.36 141.18 156.37 140.38 155.94 L 139.60 155.51 C 138.81 155.08 137.82 155.37 137.39 156.16 C 136.96 156.95 137.25 157.94 138.04 158.37 Z M 138.72 158.74 L 139.55 159.28 C 140.31 159.76 141.32 159.54 141.81 158.78 C 142.30 158.02 142.08 157.01 141.32 156.53 L 140.49 155.99 C 139.73 155.50 138.72 155.73 138.23 156.48 C 137.74 157.24 137.96 158.25 138.72 158.74 Z M 139.47 159.22 L 140.28 159.81 C 141.01 160.35 142.03 160.19 142.57 159.46 C 143.10 158.73 142.94 157.70 142.21 157.17 L 141.40 156.58 C 140.67 156.04 139.65 156.20 139.11 156.93 C 138.58 157.66 138.74 158.69 139.47 159.22 Z M 140.21 159.77 L 141.00 160.41 C 141.71 160.98 142.74 160.87 143.31 160.16 C 143.88 159.46 143.77 158.42 143.07 157.85 L 142.28 157.21 C 141.57 156.64 140.54 156.75 139.97 157.46 C 139.40 158.16 139.51 159.20 140.21 159.77 Z M 140.95 160.37 L 141.69 161.02 C 142.37 161.61 143.42 161.54 144.01 160.86 C 144.61 160.17 144.54 159.13 143.86 158.53 L 143.12 157.89 C 142.43 157.29 141.39 157.36 140.79 158.04 C 140.19 158.73 140.26 159.77 140.95 160.37 Z M 141.65 160.99 L 142.38 161.66 C 143.05 162.29 144.10 162.25 144.72 161.58 C 145.34 160.91 145.30 159.86 144.63 159.24 L 143.90 158.56 C 143.23 157.94 142.18 157.98 141.56 158.65 C 140.94 159.32 140.98 160.36 141.65 160.99 Z M 142.35 161.64 L 143.08 162.35 C 143.73 162.99 144.78 162.97 145.42 162.32 C 146.06 161.66 146.04 160.61 145.39 159.98 L 144.66 159.27 C 144.00 158.63 142.96 158.64 142.32 159.30 C 141.68 159.95 141.69 161.00 142.35 161.64 Z M 143.05 162.33 L 143.75 163.03 C 144.39 163.68 145.44 163.69 146.09 163.04 C 146.74 162.40 146.75 161.34 146.10 160.69 L 145.41 159.99 C 144.77 159.34 143.72 159.34 143.06 159.98 C 142.41 160.63 142.41 161.68 143.05 162.33 Z M 143.73 163.02 L 144.42 163.73 C 145.05 164.39 146.11 164.41 146.77 163.77 C 147.43 163.14 147.45 162.08 146.81 161.42 L 146.12 160.71 C 145.49 160.05 144.43 160.03 143.77 160.66 C 143.11 161.30 143.09 162.35 143.73 163.02 Z M 144.40 163.72 L 145.09 164.45 C 145.72 165.12 146.78 165.15 147.45 164.52 C 148.12 163.89 148.15 162.84 147.52 162.17 L 146.83 161.43 C 146.19 160.76 145.14 160.73 144.47 161.36 C 143.80 161.99 143.77 163.05 144.40 163.72 Z M 145.08 164.45 L 145.78 165.20 C 146.40 165.87 147.46 165.91 148.14 165.28 C 148.81 164.66 148.85 163.60 148.23 162.92 L 147.53 162.17 C 146.90 161.50 145.85 161.46 145.17 162.09 C 144.49 162.71 144.45 163.77 145.08 164.45 Z M 145.76 165.19 L 146.45 165.94 C 147.07 166.62 148.13 166.67 148.81 166.04 C 149.49 165.42 149.54 164.36 148.92 163.68 L 148.24 162.93 C 147.61 162.25 146.56 162.20 145.87 162.82 C 145.19 163.45 145.14 164.50 145.76 165.19 Z M 146.43 165.92 L 147.10 166.68 C 147.72 167.37 148.78 167.43 149.47 166.82 C 150.16 166.20 150.22 165.14 149.61 164.45 L 148.94 163.69 C 148.32 163.00 147.26 162.94 146.57 163.56 C 145.88 164.17 145.82 165.23 146.43 165.92 Z M 147.08 166.65 L 147.72 167.40 C 148.32 168.11 149.38 168.19 150.09 167.59 C 150.79 166.98 150.87 165.92 150.27 165.22 L 149.63 164.47 C 149.03 163.77 147.97 163.68 147.26 164.29 C 146.56 164.89 146.48 165.95 147.08 166.65 Z M 147.69 167.37 L 148.34 168.16 C 148.92 168.88 149.98 168.99 150.70 168.41 C 151.42 167.82 151.53 166.76 150.94 166.04 L 150.30 165.25 C 149.71 164.53 148.66 164.42 147.93 165.01 C 147.21 165.59 147.11 166.65 147.69 167.37 Z M 148.31 168.13 L 148.92 168.93 C 149.49 169.66 150.55 169.80 151.28 169.23 C 152.02 168.66 152.15 167.61 151.59 166.87 L 150.97 166.07 C 150.40 165.34 149.35 165.20 148.61 165.77 C 147.87 166.34 147.74 167.40 148.31 168.13 Z M 148.90 168.91 L 149.49 169.69 C 150.04 170.44 151.10 170.59 151.85 170.03 C 152.59 169.48 152.75 168.42 152.19 167.67 L 151.60 166.89 C 151.05 166.14 149.99 165.99 149.25 166.55 C 148.50 167.10 148.35 168.16 148.90 168.91 Z M 149.48 169.68 L 150.03 170.42 C 150.58 171.17 151.64 171.33 152.39 170.78 C 153.14 170.23 153.30 169.17 152.74 168.42 L 152.20 167.68 C 151.64 166.93 150.59 166.77 149.84 167.32 C 149.09 167.88 148.93 168.93 149.48 169.68 Z M 150.03 170.43 L 150.57 171.16 C 151.13 171.90 152.19 172.06 152.94 171.50 C 153.68 170.94 153.84 169.88 153.28 169.13 L 152.74 168.41 C 152.18 167.66 151.12 167.51 150.37 168.07 C 149.62 168.63 149.47 169.69 150.03 170.43 Z M 150.59 171.18 L 151.19 171.97 C 151.77 172.70 152.83 172.84 153.57 172.27 C 154.31 171.70 154.44 170.63 153.87 169.89 L 153.26 169.11 C 152.69 168.37 151.63 168.23 150.89 168.81 C 150.15 169.38 150.01 170.44 150.59 171.18 Z M 151.21 172.00 L 151.94 172.89 C 152.53 173.62 153.59 173.73 154.32 173.14 C 155.05 172.55 155.16 171.49 154.57 170.76 L 153.85 169.86 C 153.26 169.14 152.19 169.02 151.47 169.61 C 150.74 170.20 150.63 171.27 151.21 172.00 Z M 151.96 172.91 L 152.53 173.60 C 153.13 174.31 154.20 174.41 154.92 173.80 C 155.64 173.20 155.73 172.13 155.13 171.41 L 154.55 170.73 C 153.95 170.01 152.88 169.92 152.16 170.53 C 151.45 171.13 151.35 172.20 151.96 172.91 Z M 152.55 173.63 L 153.17 174.33 C 153.79 175.03 154.86 175.10 155.56 174.48 C 156.27 173.86 156.34 172.79 155.72 172.09 L 155.10 171.39 C 154.49 170.68 153.41 170.61 152.71 171.23 C 152.00 171.85 151.93 172.92 152.55 173.63 Z M 153.20 174.36 L 153.87 175.09 C 154.51 175.78 155.59 175.82 156.28 175.18 C 156.96 174.55 157.00 173.47 156.37 172.78 L 155.69 172.05 C 155.05 171.36 153.98 171.32 153.29 171.96 C 152.60 172.60 152.56 173.67 153.20 174.36 Z M 153.91 175.13 L 154.65 175.88 C 155.31 176.54 156.39 176.55 157.05 175.89 C 157.72 175.23 157.73 174.15 157.07 173.48 L 156.33 172.74 C 155.67 172.07 154.59 172.07 153.92 172.73 C 153.26 173.39 153.25 174.47 153.91 175.13 Z M 154.70 175.93 L 155.49 176.66 C 156.18 177.31 157.25 177.27 157.89 176.58 C 158.54 175.89 158.50 174.82 157.81 174.17 L 157.02 173.44 C 156.33 172.80 155.25 172.83 154.61 173.52 C 153.97 174.21 154.01 175.28 154.70 175.93 Z M 155.55 176.72 L 156.38 177.42 C 157.10 178.03 158.17 177.94 158.78 177.23 C 159.39 176.51 159.30 175.43 158.58 174.83 L 157.75 174.12 C 157.03 173.51 155.96 173.60 155.35 174.32 C 154.74 175.04 154.83 176.11 155.55 176.72 Z M 156.44 177.48 L 157.29 178.12 C 158.03 178.70 159.10 178.56 159.68 177.81 C 160.25 177.07 160.11 176.00 159.37 175.42 L 158.52 174.77 C 157.77 174.20 156.70 174.34 156.13 175.09 C 155.56 175.83 155.70 176.90 156.44 177.48 Z M 157.34 178.17 L 158.21 178.78 C 158.98 179.32 160.04 179.14 160.58 178.37 C 161.12 177.60 160.94 176.54 160.17 175.99 L 159.31 175.38 C 158.54 174.84 157.48 175.02 156.93 175.79 C 156.39 176.56 156.57 177.62 157.34 178.17 Z M 158.26 178.81 L 159.12 179.37 C 159.91 179.89 160.96 179.67 161.48 178.88 C 161.99 178.09 161.77 177.04 160.98 176.52 L 160.12 175.96 C 159.33 175.44 158.28 175.66 157.76 176.45 C 157.25 177.24 157.47 178.30 158.26 178.81 Z M 159.17 179.40 L 160.01 179.92 C 160.81 180.40 161.86 180.15 162.35 179.34 C 162.84 178.54 162.58 177.49 161.78 177.00 L 160.94 176.49 C 160.13 176.00 159.08 176.26 158.60 177.06 C 158.11 177.87 158.36 178.92 159.17 179.40 Z M 160.05 179.94 L 160.85 180.39 C 161.67 180.86 162.71 180.57 163.17 179.75 C 163.64 178.93 163.35 177.89 162.53 177.43 L 161.73 176.98 C 160.91 176.51 159.87 176.80 159.41 177.62 C 158.95 178.44 159.23 179.48 160.05 179.94 Z M 160.91 180.42 L 161.82 180.90 C 162.66 181.33 163.68 181.00 164.12 180.17 C 164.55 179.33 164.22 178.30 163.39 177.87 L 162.47 177.40 C 161.64 176.96 160.61 177.29 160.18 178.13 C 159.74 178.96 160.07 179.99 160.91 180.42 Z M 161.90 180.94 L 162.89 181.38 C 163.75 181.77 164.75 181.39 165.14 180.53 C 165.53 179.67 165.15 178.66 164.29 178.27 L 163.30 177.83 C 162.45 177.44 161.44 177.83 161.05 178.68 C 160.66 179.54 161.05 180.55 161.90 180.94 Z M 163.01 181.43 L 163.90 181.75 C 164.78 182.07 165.76 181.62 166.08 180.74 C 166.41 179.85 165.95 178.88 165.07 178.55 L 164.17 178.23 C 163.29 177.91 162.31 178.36 161.99 179.24 C 161.67 180.13 162.12 181.11 163.01 181.43 Z M 164.03 181.79 L 164.89 182.03 C 165.80 182.28 166.74 181.75 166.99 180.85 C 167.24 179.94 166.71 179.01 165.80 178.75 L 164.94 178.51 C 164.03 178.26 163.10 178.79 162.84 179.70 C 162.59 180.60 163.12 181.54 164.03 181.79 Z M 165.01 182.06 L 165.91 182.24 C 166.83 182.43 167.73 181.84 167.92 180.92 C 168.11 180.00 167.52 179.11 166.60 178.92 L 165.69 178.73 C 164.77 178.54 163.87 179.13 163.69 180.05 C 163.50 180.97 164.09 181.87 165.01 182.06 Z M 166.01 182.26 L 166.97 182.40 C 167.89 182.54 168.76 181.90 168.90 180.98 C 169.04 180.05 168.40 179.19 167.47 179.05 L 166.51 178.90 C 165.58 178.76 164.72 179.40 164.58 180.33 C 164.44 181.26 165.08 182.12 166.01 182.26 Z M 167.04 182.41 L 168.05 182.51 C 168.98 182.61 169.81 181.93 169.91 181.00 C 170.01 180.07 169.33 179.24 168.40 179.15 L 167.39 179.04 C 166.46 178.94 165.63 179.62 165.54 180.55 C 165.44 181.48 166.11 182.31 167.04 182.41 Z M 168.11 182.51 L 169.16 182.59 C 170.09 182.65 170.90 181.94 170.96 181.01 C 171.02 180.08 170.32 179.28 169.39 179.21 L 168.34 179.14 C 167.41 179.08 166.60 179.78 166.54 180.72 C 166.48 181.65 167.18 182.45 168.11 182.51 Z M 169.21 182.58 L 170.16 182.62 C 171.09 182.66 171.88 181.94 171.91 181.00 C 171.95 180.07 171.23 179.29 170.30 179.25 L 169.34 179.22 C 168.41 179.18 167.62 179.90 167.59 180.83 C 167.55 181.76 168.27 182.55 169.21 182.58 Z M 170.19 182.62 L 171.17 182.64 C 172.10 182.66 172.87 181.92 172.89 180.99 C 172.91 180.06 172.17 179.30 171.25 179.28 L 170.27 179.26 C 169.34 179.24 168.57 179.97 168.55 180.90 C 168.53 181.83 169.27 182.60 170.19 182.62 Z M 171.20 182.64 L 172.20 182.64 C 173.13 182.65 173.89 181.91 173.90 180.98 C 173.90 180.05 173.16 179.30 172.23 179.29 L 171.22 179.28 C 170.30 179.27 169.54 180.02 169.53 180.94 C 169.52 181.87 170.27 182.63 171.20 182.64 Z M 172.22 182.64 L 173.26 182.64 C 174.18 182.64 174.93 181.90 174.93 180.97 C 174.93 180.05 174.19 179.30 173.26 179.29 L 172.22 179.29 C 171.30 179.29 170.55 180.04 170.55 180.96 C 170.54 181.89 171.29 182.64 172.22 182.64 Z M 173.26 182.64 L 174.24 182.64 C 175.16 182.64 175.91 181.89 175.91 180.97 C 175.91 180.05 175.16 179.30 174.24 179.30 L 173.26 179.30 C 172.34 179.30 171.59 180.05 171.59 180.97 C 171.59 181.89 172.34 182.64 173.26 182.64 Z M 174.25 182.63 L 175.23 182.62 C 176.14 182.62 176.88 181.86 176.88 180.95 C 176.87 180.03 176.12 179.29 175.20 179.30 L 174.23 179.30 C 173.31 179.31 172.57 180.06 172.58 180.98 C 172.58 181.90 173.34 182.64 174.25 182.63 Z M 175.26 182.62 L 176.25 182.59 C 177.17 182.56 177.89 181.80 177.86 180.89 C 177.84 179.97 177.08 179.25 176.16 179.27 L 175.17 179.30 C 174.25 179.33 173.53 180.09 173.55 181.01 C 173.58 181.92 174.34 182.64 175.26 182.62 Z M 176.30 182.58 L 177.32 182.53 C 178.23 182.47 178.92 181.69 178.87 180.78 C 178.82 179.87 178.04 179.17 177.13 179.23 L 176.11 179.28 C 175.20 179.33 174.50 180.11 174.56 181.02 C 174.61 181.94 175.39 182.63 176.30 182.58 Z M 177.38 182.52 L 178.42 182.42 C 179.32 182.33 179.99 181.53 179.90 180.62 C 179.82 179.72 179.02 179.05 178.11 179.14 L 177.07 179.24 C 176.16 179.32 175.50 180.12 175.58 181.03 C 175.67 181.93 176.47 182.60 177.38 182.52 Z M 178.48 182.40 L 179.42 182.28 C 180.32 182.15 180.95 181.33 180.83 180.43 C 180.71 179.53 179.88 178.90 178.98 179.02 L 178.04 179.15 C 177.14 179.27 176.52 180.10 176.64 181.00 C 176.76 181.90 177.59 182.53 178.48 182.40 Z M 179.48 182.26 L 180.43 182.10 C 181.32 181.94 181.92 181.09 181.76 180.20 C 181.61 179.31 180.76 178.72 179.87 178.87 L 178.92 179.04 C 178.03 179.19 177.44 180.04 177.59 180.93 C 177.75 181.82 178.59 182.42 179.48 182.26 Z M 180.49 182.08 L 181.46 181.88 C 182.34 181.69 182.90 180.83 182.72 179.95 C 182.53 179.07 181.67 178.50 180.79 178.69 L 179.82 178.89 C 178.94 179.07 178.37 179.94 178.56 180.82 C 178.74 181.70 179.61 182.26 180.49 182.08 Z M 181.50 181.86 L 182.49 181.62 C 183.36 181.41 183.90 180.54 183.69 179.66 C 183.48 178.79 182.61 178.26 181.73 178.47 L 180.74 178.70 C 179.87 178.91 179.33 179.79 179.54 180.66 C 179.75 181.53 180.63 182.07 181.50 181.86 Z M 182.53 181.61 L 183.54 181.33 C 184.41 181.10 184.92 180.22 184.69 179.35 C 184.46 178.49 183.57 177.98 182.70 178.21 L 181.69 178.48 C 180.83 178.71 180.32 179.60 180.55 180.46 C 180.78 181.33 181.67 181.84 182.53 181.61 Z M 183.58 181.32 L 184.56 181.03 C 185.41 180.78 185.90 179.89 185.65 179.03 C 185.40 178.18 184.50 177.69 183.65 177.94 L 182.67 178.23 C 181.82 178.48 181.33 179.37 181.58 180.23 C 181.83 181.08 182.72 181.57 183.58 181.32 Z M 184.59 181.02 L 185.53 180.72 C 186.37 180.45 186.84 179.55 186.57 178.71 C 186.31 177.86 185.40 177.39 184.56 177.66 L 183.62 177.95 C 182.77 178.22 182.31 179.12 182.57 179.97 C 182.84 180.81 183.74 181.28 184.59 181.02 Z M 185.55 180.70 L 186.50 180.38 C 187.34 180.10 187.79 179.19 187.50 178.36 C 187.22 177.52 186.31 177.07 185.48 177.35 L 184.53 177.67 C 183.69 177.96 183.25 178.86 183.53 179.70 C 183.81 180.54 184.72 180.99 185.55 180.70 Z M 186.53 180.37 L 187.48 180.03 C 188.31 179.73 188.73 178.82 188.44 177.99 C 188.14 177.16 187.23 176.73 186.40 177.03 L 185.45 177.37 C 184.62 177.67 184.19 178.58 184.49 179.41 C 184.79 180.24 185.70 180.67 186.53 180.37 Z M 187.51 180.01 L 188.45 179.64 C 189.27 179.33 189.68 178.41 189.36 177.60 C 189.05 176.78 188.13 176.37 187.31 176.68 L 186.37 177.05 C 185.55 177.36 185.14 178.28 185.46 179.10 C 185.77 179.91 186.69 180.32 187.51 180.01 Z M 188.48 179.63 L 189.41 179.24 C 190.22 178.91 190.61 177.99 190.28 177.18 C 189.95 176.38 189.02 175.99 188.22 176.32 L 187.28 176.70 C 186.48 177.03 186.09 177.96 186.42 178.76 C 186.75 179.57 187.68 179.96 188.48 179.63 Z M 189.45 179.22 L 190.37 178.82 C 191.16 178.47 191.52 177.54 191.18 176.75 C 190.83 175.95 189.90 175.59 189.11 175.94 L 188.19 176.34 C 187.39 176.69 187.03 177.62 187.38 178.41 C 187.72 179.21 188.65 179.57 189.45 179.22 Z M 190.40 178.80 L 191.31 178.37 C 192.09 178.01 192.43 177.07 192.06 176.29 C 191.70 175.51 190.76 175.17 189.98 175.54 L 189.07 175.96 C 188.29 176.33 187.95 177.26 188.32 178.04 C 188.69 178.83 189.62 179.16 190.40 178.80 Z M 191.34 178.35 L 192.23 177.91 C 193.00 177.52 193.31 176.59 192.93 175.82 C 192.55 175.05 191.61 174.73 190.84 175.12 L 189.95 175.56 C 189.18 175.94 188.87 176.88 189.25 177.65 C 189.63 178.42 190.57 178.73 191.34 178.35 Z M 192.26 177.89 L 193.14 177.42 C 193.90 177.03 194.19 176.09 193.79 175.33 C 193.39 174.57 192.45 174.28 191.70 174.68 L 190.82 175.14 C 190.06 175.53 189.76 176.47 190.16 177.23 C 190.56 177.99 191.50 178.28 192.26 177.89 Z M 193.16 177.40 L 194.03 176.92 C 194.78 176.51 195.05 175.57 194.64 174.83 C 194.23 174.08 193.29 173.80 192.54 174.22 L 191.67 174.70 C 190.92 175.11 190.65 176.05 191.06 176.79 C 191.47 177.54 192.41 177.81 193.16 177.40 Z M 194.05 176.90 L 194.92 176.41 C 195.66 175.98 195.92 175.04 195.49 174.31 C 195.07 173.57 194.13 173.31 193.39 173.74 L 192.52 174.24 C 191.79 174.66 191.53 175.60 191.95 176.33 C 192.38 177.07 193.32 177.33 194.05 176.90 Z M 194.94 176.39 L 195.79 175.88 C 196.52 175.45 196.76 174.51 196.33 173.78 C 195.90 173.06 194.96 172.82 194.23 173.25 L 193.38 173.75 C 192.65 174.19 192.41 175.13 192.84 175.85 C 193.27 176.58 194.21 176.82 194.94 176.39 Z M 195.81 175.87 L 196.64 175.36 C 197.36 174.92 197.58 173.98 197.15 173.26 C 196.71 172.54 195.77 172.32 195.05 172.76 L 194.22 173.26 C 193.50 173.70 193.27 174.64 193.71 175.36 C 194.15 176.08 195.09 176.31 195.81 175.87 Z M 196.65 175.35 L 197.48 174.83 C 198.20 174.38 198.41 173.45 197.97 172.73 C 197.52 172.02 196.59 171.80 195.87 172.25 L 195.04 172.77 C 194.33 173.21 194.11 174.15 194.55 174.86 C 195.00 175.58 195.93 175.79 196.65 175.35 Z M 197.49 174.82 L 198.33 174.28 C 199.04 173.83 199.25 172.90 198.80 172.19 C 198.35 171.49 197.42 171.28 196.71 171.72 L 195.87 172.26 C 195.16 172.71 194.95 173.64 195.40 174.35 C 195.85 175.06 196.78 175.26 197.49 174.82 Z M 198.34 174.27 L 199.19 173.73 C 199.89 173.28 200.09 172.34 199.64 171.64 C 199.19 170.94 198.26 170.74 197.55 171.19 L 196.70 171.73 C 196.00 172.18 195.80 173.12 196.25 173.82 C 196.70 174.52 197.64 174.72 198.34 174.27 Z M 199.19 173.72 L 200.04 173.17 C 200.74 172.71 200.94 171.78 200.49 171.09 C 200.04 170.39 199.11 170.19 198.41 170.64 L 197.55 171.20 C 196.85 171.65 196.66 172.58 197.11 173.28 C 197.56 173.97 198.49 174.17 199.19 173.72 Z M 200.04 173.16 L 200.90 172.60 C 201.60 172.15 201.79 171.22 201.34 170.53 C 200.89 169.83 199.96 169.64 199.27 170.09 L 198.41 170.65 C 197.72 171.10 197.52 172.03 197.97 172.72 C 198.42 173.41 199.35 173.61 200.04 173.16 Z M 200.90 172.60 L 201.72 172.06 C 202.41 171.62 202.60 170.69 202.15 170.00 C 201.70 169.31 200.78 169.11 200.09 169.56 L 199.27 170.09 C 198.58 170.54 198.38 171.47 198.83 172.16 C 199.28 172.85 200.21 173.05 200.90 172.60 Z M 201.71 172.06 L 202.54 171.52 C 203.22 171.08 203.42 170.16 202.97 169.47 C 202.52 168.78 201.60 168.58 200.91 169.03 L 200.09 169.57 C 199.40 170.01 199.21 170.94 199.65 171.62 C 200.10 172.31 201.02 172.51 201.71 172.06 Z M 202.53 171.52 L 203.37 170.98 C 204.05 170.53 204.25 169.62 203.80 168.93 C 203.36 168.24 202.44 168.05 201.75 168.49 L 200.92 169.04 C 200.23 169.48 200.04 170.40 200.48 171.08 C 200.93 171.77 201.85 171.97 202.53 171.52 Z M 203.36 170.98 L 204.20 170.43 C 204.89 169.99 205.08 169.07 204.64 168.39 C 204.20 167.71 203.28 167.51 202.60 167.95 L 201.76 168.50 C 201.07 168.94 200.88 169.86 201.32 170.54 C 201.76 171.22 202.68 171.42 203.36 170.98 Z M 204.20 170.43 L 205.05 169.88 C 205.73 169.44 205.93 168.53 205.48 167.84 C 205.04 167.16 204.13 166.97 203.45 167.41 L 202.60 167.96 C 201.92 168.40 201.72 169.31 202.16 169.99 C 202.60 170.67 203.52 170.87 204.20 170.43 Z M 205.04 169.88 L 205.90 169.32 C 206.58 168.88 206.78 167.98 206.34 167.30 C 205.90 166.62 205.00 166.42 204.31 166.86 L 203.46 167.41 C 202.78 167.85 202.58 168.76 203.02 169.44 C 203.46 170.12 204.36 170.31 205.04 169.88 Z M 205.90 169.32 L 206.75 168.77 C 207.43 168.34 207.63 167.43 207.19 166.76 C 206.76 166.08 205.85 165.88 205.17 166.31 L 204.32 166.86 C 203.64 167.30 203.44 168.20 203.88 168.88 C 204.31 169.56 205.22 169.75 205.90 169.32 Z M 206.74 168.77 L 207.58 168.24 C 208.25 167.81 208.45 166.91 208.02 166.23 C 207.59 165.55 206.69 165.35 206.01 165.78 L 205.18 166.32 C 204.50 166.75 204.30 167.65 204.73 168.33 C 205.17 169.01 206.07 169.20 206.74 168.77 Z M 207.57 168.24 L 208.41 167.71 C 209.09 167.28 209.29 166.38 208.86 165.70 C 208.43 165.02 207.53 164.82 206.85 165.25 L 206.01 165.78 C 205.33 166.22 205.13 167.11 205.56 167.79 C 205.99 168.47 206.89 168.67 207.57 168.24 Z M 208.41 167.71 L 209.25 167.18 C 209.93 166.75 210.13 165.85 209.70 165.17 C 209.28 164.49 208.38 164.29 207.70 164.72 L 206.86 165.25 C 206.18 165.68 205.97 166.58 206.40 167.26 C 206.83 167.93 207.73 168.14 208.41 167.71 Z M 209.25 167.18 L 210.10 166.64 C 210.77 166.22 210.98 165.32 210.55 164.64 C 210.13 163.97 209.23 163.76 208.55 164.19 L 207.70 164.72 C 207.03 165.15 206.82 166.04 207.25 166.72 C 207.67 167.40 208.57 167.60 209.25 167.18 Z M 210.09 166.64 L 210.95 166.11 C 211.62 165.69 211.83 164.80 211.41 164.12 C 210.99 163.44 210.09 163.23 209.41 163.65 L 208.56 164.19 C 207.88 164.61 207.67 165.50 208.10 166.18 C 208.52 166.86 209.41 167.07 210.09 166.64 Z M 210.94 166.11 L 211.80 165.58 C 212.48 165.16 212.69 164.27 212.27 163.59 C 211.85 162.91 210.96 162.70 210.28 163.12 L 209.42 163.65 C 208.74 164.07 208.53 164.96 208.95 165.64 C 209.37 166.32 210.26 166.53 210.94 166.11 Z M 211.79 165.58 L 212.65 165.05 C 213.33 164.64 213.54 163.75 213.13 163.07 C 212.71 162.39 211.82 162.18 211.14 162.59 L 210.28 163.12 C 209.60 163.54 209.39 164.43 209.81 165.11 C 210.23 165.79 211.11 166.00 211.79 165.58 Z M 212.65 165.06 L 213.49 164.54 C 214.17 164.13 214.39 163.24 213.97 162.56 C 213.56 161.88 212.67 161.66 211.99 162.08 L 211.14 162.59 C 210.46 163.01 210.25 163.89 210.66 164.57 C 211.08 165.26 211.97 165.47 212.65 165.06 Z M 213.49 164.54 L 214.33 164.03 C 215.02 163.62 215.23 162.73 214.82 162.05 C 214.41 161.37 213.52 161.15 212.84 161.56 L 211.99 162.07 C 211.31 162.49 211.09 163.37 211.50 164.06 C 211.92 164.74 212.80 164.96 213.49 164.54 Z M 214.33 164.04 L 215.18 163.52 C 215.86 163.12 216.09 162.23 215.68 161.55 C 215.27 160.86 214.38 160.64 213.70 161.05 L 212.85 161.56 C 212.16 161.97 211.94 162.86 212.35 163.54 C 212.76 164.22 213.64 164.44 214.33 164.04 Z M 215.18 163.53 L 216.03 163.02 C 216.72 162.61 216.95 161.73 216.54 161.04 C 216.13 160.36 215.25 160.13 214.56 160.54 L 213.70 161.05 C 213.02 161.45 212.79 162.34 213.20 163.02 C 213.61 163.71 214.49 163.93 215.18 163.53 Z M 216.03 163.02 L 216.89 162.51 C 217.58 162.11 217.81 161.23 217.41 160.54 C 217.00 159.85 216.12 159.62 215.43 160.02 L 214.57 160.53 C 213.88 160.94 213.65 161.82 214.05 162.51 C 214.46 163.20 215.34 163.43 216.03 163.02 Z M 216.89 162.52 L 217.76 162.01 C 218.45 161.61 218.68 160.73 218.28 160.04 C 217.88 159.35 217.00 159.11 216.31 159.51 L 215.44 160.02 C 214.75 160.42 214.51 161.31 214.91 161.99 C 215.32 162.68 216.20 162.92 216.89 162.52 Z M 217.76 162.01 L 218.64 161.51 C 219.33 161.11 219.57 160.23 219.17 159.53 C 218.77 158.84 217.89 158.61 217.20 159.00 L 216.32 159.51 C 215.62 159.91 215.39 160.79 215.78 161.48 C 216.18 162.17 217.06 162.41 217.76 162.01 Z M 218.63 161.51 L 219.52 161.00 C 220.22 160.61 220.46 159.73 220.06 159.03 C 219.67 158.34 218.79 158.10 218.09 158.49 L 217.20 159.00 C 216.51 159.39 216.27 160.28 216.66 160.97 C 217.06 161.66 217.94 161.90 218.63 161.51 Z M 219.52 161.01 L 220.41 160.50 C 221.11 160.11 221.36 159.23 220.96 158.53 C 220.57 157.84 219.69 157.59 218.99 157.98 L 218.10 158.49 C 217.40 158.88 217.16 159.76 217.55 160.46 C 217.94 161.15 218.82 161.40 219.52 161.01 Z M 220.41 160.51 L 221.30 160.01 C 222.00 159.62 222.25 158.74 221.86 158.04 C 221.47 157.34 220.59 157.09 219.89 157.48 L 219.00 157.98 C 218.30 158.37 218.05 159.25 218.44 159.95 C 218.83 160.65 219.71 160.90 220.41 160.51 Z M 221.30 160.01 L 222.19 159.52 C 222.89 159.14 223.15 158.25 222.76 157.55 C 222.37 156.85 221.49 156.60 220.79 156.98 L 219.90 157.47 C 219.20 157.86 218.94 158.74 219.33 159.45 C 219.72 160.15 220.60 160.40 221.30 160.01 Z M 222.19 159.53 L 223.07 159.05 C 223.77 158.66 224.03 157.78 223.64 157.07 C 223.26 156.37 222.37 156.11 221.67 156.50 L 220.79 156.98 C 220.09 157.36 219.83 158.25 220.21 158.95 C 220.60 159.65 221.48 159.91 222.19 159.53 Z M 223.06 159.05 L 223.92 158.58 C 224.63 158.20 224.89 157.32 224.51 156.61 C 224.13 155.90 223.24 155.64 222.54 156.03 L 221.67 156.49 C 220.97 156.88 220.71 157.76 221.09 158.47 C 221.47 159.17 222.35 159.43 223.06 159.05 Z M 223.92 158.59 L 224.76 158.14 C 225.47 157.75 225.73 156.87 225.35 156.16 C 224.97 155.45 224.09 155.19 223.38 155.57 L 222.54 156.02 C 221.83 156.40 221.56 157.29 221.95 157.99 C 222.33 158.70 223.21 158.97 223.92 158.59 Z M 224.76 158.14 L 225.66 157.66 C 226.37 157.28 226.64 156.40 226.26 155.68 C 225.88 154.97 225.00 154.70 224.29 155.08 L 223.38 155.56 C 222.67 155.94 222.40 156.83 222.78 157.54 C 223.16 158.25 224.04 158.52 224.76 158.14 Z M 225.65 157.66 L 226.59 157.17 C 227.30 156.80 227.58 155.91 227.20 155.20 C 226.82 154.48 225.94 154.21 225.22 154.59 L 224.29 155.08 C 223.58 155.45 223.30 156.34 223.68 157.05 C 224.06 157.77 224.94 158.04 225.65 157.66 Z M 226.58 157.18 L 227.48 156.71 C 228.20 156.33 228.48 155.45 228.10 154.73 C 227.73 154.01 226.84 153.74 226.13 154.11 L 225.23 154.58 C 224.51 154.96 224.23 155.84 224.61 156.56 C 224.98 157.28 225.87 157.55 226.58 157.18 Z M 227.48 156.71 L 228.36 156.26 C 229.08 155.89 229.36 155.00 228.98 154.28 C 228.61 153.56 227.73 153.28 227.01 153.65 L 226.13 154.11 C 225.41 154.48 225.13 155.37 225.50 156.09 C 225.87 156.81 226.76 157.09 227.48 156.71 Z M 228.36 156.26 L 229.21 155.82 C 229.94 155.45 230.22 154.56 229.85 153.84 C 229.48 153.12 228.59 152.83 227.87 153.20 L 227.01 153.65 C 226.28 154.02 226.00 154.91 226.37 155.63 C 226.75 156.35 227.63 156.64 228.36 156.26 Z M 229.21 155.82 L 230.06 155.39 C 230.79 155.02 231.07 154.13 230.70 153.40 C 230.33 152.68 229.44 152.39 228.71 152.77 L 227.87 153.20 C 227.14 153.57 226.86 154.46 227.23 155.19 C 227.60 155.91 228.49 156.20 229.21 155.82 Z M 230.06 155.39 L 230.51 155.16 C 231.23 154.79 231.52 153.90 231.15 153.17 C 230.77 152.45 229.88 152.16 229.16 152.53 L 228.71 152.76 C 227.99 153.14 227.70 154.03 228.07 154.75 C 228.45 155.48 229.34 155.76 230.06 155.39 Z"
      fill="black"
      fill-rule="nonzero" /></svg>