<svg xmlns="http://www.w3.org/2000/svg" width="300" height="300" viewBox="0 0 300 300">
<path d="M 146.35 110.74 L 145.29 110.74 C 144.42 110.74 143.72 111.45 143.72 112.31 C 143.73 113.18 144.43 113.88 145.29 113.88 L 146.36 113.88 C 147.22 113.88 147.93 113.17 147.92 112.31 C 147.92 111.44 147.22 110.74 146.35 110.74 Z M 145.27 110.73 L 144.23 110.74 C 143.35 110.75 142.65 111.47 142.66 112.34 C 142.67 113.21 143.39 113.91 144.26 113.90 L 145.31 113.89 C 146.18 113.88 146.88 113.17 146.87 112.29 C 146.86 111.42 146.15 110.72 145.27 110.73 Z M 144.19 110.73 L 143.18 110.77 C 142.30 110.79 141.61 111.53 141.64 112.40 C 141.67 113.28 142.40 113.97 143.28 113.94 L 144.29 113.91 C 145.17 113.88 145.86 113.15 145.83 112.27 C 145.80 111.40 145.07 110.71 144.19 110.73 Z M 143.12 110.76 L 142.16 110.82 C 141.27 110.88 140.61 111.64 140.66 112.52 C 140.72 113.40 141.48 114.07 142.36 114.01 L 143.33 113.95 C 144.21 113.89 144.88 113.13 144.82 112.25 C 144.77 111.37 144.01 110.70 143.12 110.76 Z M 142.08 110.82 L 141.17 110.92 C 140.29 111.02 139.65 111.82 139.76 112.70 C 139.86 113.59 140.65 114.22 141.54 114.12 L 142.44 114.02 C 143.32 113.92 143.96 113.12 143.86 112.24 C 143.76 111.35 142.96 110.72 142.08 110.82 Z M 141.02 110.94 L 139.72 111.21 C 138.85 111.40 138.29 112.26 138.47 113.13 C 138.66 114.01 139.52 114.56 140.39 114.38 L 141.69 114.10 C 142.57 113.92 143.13 113.06 142.94 112.18 C 142.75 111.31 141.89 110.75 141.02 110.94 Z M 139.41 111.31 L 138.48 111.71 C 137.66 112.07 137.29 113.03 137.65 113.85 C 138.01 114.67 138.97 115.05 139.79 114.69 L 140.71 114.28 C 141.53 113.92 141.91 112.96 141.55 112.14 C 141.19 111.32 140.23 110.95 139.41 111.31 Z M 137.74 112.36 L 137.44 112.85 C 136.97 113.62 137.22 114.63 137.99 115.09 C 138.76 115.56 139.76 115.31 140.23 114.54 L 140.53 114.04 C 140.99 113.27 140.75 112.27 139.98 111.81 C 139.21 111.34 138.21 111.59 137.74 112.36 Z M 137.53 114.68 L 137.90 115.17 C 138.44 115.89 139.47 116.03 140.18 115.49 C 140.90 114.95 141.05 113.92 140.50 113.20 L 140.14 112.72 C 139.59 112.00 138.57 111.85 137.85 112.40 C 137.13 112.94 136.99 113.96 137.53 114.68 Z M 138.40 115.61 L 139.25 116.08 C 140.03 116.53 141.02 116.25 141.47 115.47 C 141.91 114.69 141.64 113.69 140.85 113.25 L 140.01 112.77 C 139.22 112.32 138.23 112.60 137.78 113.38 C 137.34 114.17 137.62 115.16 138.40 115.61 Z M 139.49 116.20 L 140.65 116.61 C 141.49 116.92 142.43 116.48 142.73 115.64 C 143.04 114.79 142.60 113.86 141.76 113.55 L 140.60 113.14 C 139.76 112.83 138.82 113.27 138.52 114.11 C 138.21 114.96 138.65 115.89 139.49 116.20 Z M 140.81 116.66 L 141.86 116.92 C 142.74 117.14 143.62 116.60 143.83 115.73 C 144.05 114.85 143.51 113.97 142.64 113.76 L 141.59 113.50 C 140.71 113.29 139.83 113.82 139.62 114.70 C 139.41 115.57 139.94 116.45 140.81 116.66 Z M 141.99 116.95 L 142.93 117.10 C 143.81 117.24 144.65 116.64 144.79 115.76 C 144.94 114.87 144.34 114.03 143.45 113.89 L 142.51 113.73 C 141.63 113.59 140.79 114.19 140.64 115.08 C 140.50 115.97 141.10 116.80 141.99 116.95 Z M 143.02 117.11 L 143.99 117.22 C 144.89 117.31 145.69 116.66 145.78 115.77 C 145.88 114.87 145.23 114.07 144.33 113.98 L 143.36 113.88 C 142.46 113.78 141.66 114.43 141.57 115.32 C 141.47 116.22 142.12 117.02 143.02 117.11 Z M 144.06 117.22 L 145.08 117.29 C 145.98 117.34 146.75 116.66 146.81 115.76 C 146.86 114.87 146.18 114.09 145.28 114.04 L 144.27 113.97 C 143.37 113.92 142.59 114.60 142.54 115.49 C 142.48 116.39 143.16 117.16 144.06 117.22 Z M 145.12 117.29 L 146.19 117.33 C 147.09 117.36 147.85 116.66 147.88 115.76 C 147.91 114.86 147.21 114.11 146.31 114.07 L 145.24 114.03 C 144.34 114.00 143.59 114.70 143.56 115.60 C 143.52 116.50 144.22 117.25 145.12 117.29 Z M 146.22 117.33 L 147.25 117.35 C 148.15 117.37 148.89 116.66 148.91 115.76 C 148.93 114.86 148.22 114.11 147.32 114.10 L 146.29 114.07 C 145.39 114.05 144.65 114.77 144.63 115.66 C 144.61 116.56 145.32 117.31 146.22 117.33 Z M 147.26 117.35 L 148.30 117.36 C 149.20 117.38 149.94 116.66 149.95 115.76 C 149.96 114.86 149.24 114.12 148.34 114.11 L 147.31 114.09 C 146.41 114.08 145.67 114.80 145.66 115.70 C 145.64 116.60 146.36 117.34 147.26 117.35 Z M 148.31 117.36 L 149.35 117.37 C 150.25 117.38 150.98 116.66 150.99 115.76 C 150.99 114.86 150.27 114.12 149.37 114.12 L 148.33 114.11 C 147.44 114.10 146.70 114.82 146.69 115.72 C 146.69 116.62 147.41 117.36 148.31 117.36 Z M 149.35 117.37 L 150.36 117.38 C 151.26 117.38 151.99 116.65 151.99 115.75 C 152.00 114.85 151.27 114.12 150.37 114.12 L 149.36 114.12 C 148.46 114.11 147.73 114.84 147.73 115.74 C 147.73 116.64 148.45 117.37 149.35 117.37 Z M 150.36 117.38 L 151.32 117.38 C 152.22 117.38 152.95 116.65 152.95 115.75 C 152.95 114.85 152.22 114.12 151.32 114.12 L 150.37 114.12 C 149.47 114.12 148.74 114.85 148.74 115.75 C 148.74 116.65 149.46 117.38 150.36 117.38 Z M 151.32 117.38 L 152.36 117.38 C 153.26 117.38 153.99 116.65 153.99 115.75 C 153.99 114.85 153.26 114.12 152.36 114.12 L 151.32 114.12 C 150.42 114.12 149.69 114.85 149.69 115.75 C 149.69 116.65 150.42 117.38 151.32 117.38 Z M 152.36 117.38 L 153.42 117.38 C 154.32 117.38 155.05 116.65 155.05 115.75 C 155.05 114.85 154.32 114.12 153.42 114.12 L 152.36 114.12 C 151.46 114.12 150.73 114.85 150.73 115.75 C 150.73 116.65 151.46 117.38 152.36 117.38 Z M 153.42 117.38 L 154.38 117.38 C 155.28 117.38 156.01 116.65 156.01 115.75 C 156.01 114.85 155.28 114.12 154.38 114.12 L 153.42 114.12 C 152.52 114.12 151.79 114.85 151.79 115.75 C 151.79 116.65 152.52 117.38 153.42 117.38 Z M 154.38 117.38 L 155.29 117.38 C 156.19 117.38 156.92 116.65 156.92 115.75 C 156.92 114.85 156.19 114.12 155.29 114.12 L 154.38 114.12 C 153.48 114.12 152.75 114.85 152.75 115.75 C 152.75 116.65 153.48 117.38 154.38 117.38 Z M 155.29 117.38 L 156.25 117.38 C 157.15 117.38 157.88 116.65 157.88 115.75 C 157.88 114.85 157.15 114.12 156.25 114.12 L 155.29 114.12 C 154.39 114.12 153.66 114.85 153.66 115.75 C 153.66 116.65 154.39 117.38 155.29 117.38 Z M 156.25 117.38 L 157.25 117.38 C 158.15 117.38 158.88 116.64 158.88 115.74 C 158.87 114.84 158.14 114.11 157.24 114.12 L 156.25 114.12 C 155.35 114.12 154.62 114.85 154.62 115.75 C 154.62 116.65 155.35 117.38 156.25 117.38 Z M 157.26 117.38 L 158.27 117.37 C 159.17 117.37 159.89 116.63 159.89 115.73 C 159.88 114.83 159.14 114.10 158.24 114.11 L 157.23 114.11 C 156.33 114.12 155.61 114.86 155.61 115.76 C 155.62 116.66 156.35 117.38 157.26 117.38 Z M 158.28 117.37 L 159.29 117.36 C 160.19 117.35 160.91 116.60 160.90 115.70 C 160.89 114.80 160.15 114.08 159.25 114.09 L 158.23 114.11 C 157.33 114.12 156.61 114.86 156.62 115.76 C 156.63 116.66 157.38 117.38 158.28 117.37 Z M 159.31 117.36 L 160.30 117.33 C 161.20 117.31 161.91 116.57 161.89 115.66 C 161.87 114.76 161.12 114.05 160.22 114.07 L 159.23 114.09 C 158.33 114.11 157.62 114.86 157.64 115.76 C 157.66 116.67 158.41 117.38 159.31 117.36 Z M 160.31 117.33 L 161.30 117.30 C 162.21 117.27 162.91 116.52 162.88 115.62 C 162.85 114.72 162.10 114.01 161.20 114.04 L 160.20 114.07 C 159.30 114.10 158.60 114.85 158.63 115.76 C 158.66 116.66 159.41 117.36 160.31 117.33 Z M 161.32 117.30 L 162.32 117.26 C 163.22 117.22 163.92 116.46 163.89 115.56 C 163.85 114.66 163.09 113.96 162.19 114.00 L 161.18 114.04 C 160.28 114.08 159.58 114.84 159.62 115.74 C 159.66 116.64 160.42 117.34 161.32 117.30 Z M 162.34 117.26 L 163.34 117.21 C 164.24 117.16 164.93 116.40 164.89 115.50 C 164.84 114.60 164.08 113.90 163.18 113.95 L 162.17 114.00 C 161.27 114.04 160.58 114.81 160.63 115.71 C 160.67 116.61 161.44 117.30 162.34 117.26 Z M 163.35 117.21 L 164.34 117.15 C 165.24 117.10 165.92 116.33 165.87 115.43 C 165.82 114.53 165.05 113.84 164.15 113.89 L 163.16 113.95 C 162.26 114.00 161.58 114.77 161.63 115.67 C 161.68 116.57 162.45 117.26 163.35 117.21 Z M 164.35 117.15 L 165.35 117.09 C 166.25 117.03 166.93 116.25 166.87 115.35 C 166.81 114.45 166.03 113.76 165.13 113.82 L 164.13 113.89 C 163.23 113.95 162.55 114.73 162.61 115.63 C 162.67 116.53 163.45 117.21 164.35 117.15 Z M 165.36 117.09 L 166.37 117.01 C 167.27 116.95 167.95 116.16 167.88 115.26 C 167.81 114.36 167.03 113.68 166.13 113.75 L 165.12 113.82 C 164.22 113.89 163.54 114.67 163.61 115.57 C 163.67 116.48 164.46 117.15 165.36 117.09 Z M 166.38 117.01 L 167.40 116.93 C 168.30 116.86 168.97 116.07 168.90 115.17 C 168.82 114.26 168.03 113.59 167.13 113.67 L 166.12 113.75 C 165.21 113.82 164.54 114.61 164.62 115.51 C 164.69 116.41 165.48 117.09 166.38 117.01 Z M 167.41 116.93 L 168.42 116.84 C 169.32 116.76 169.99 115.97 169.91 115.07 C 169.83 114.16 169.04 113.50 168.13 113.58 L 167.12 113.67 C 166.22 113.75 165.55 114.54 165.63 115.44 C 165.71 116.34 166.51 117.01 167.41 116.93 Z M 168.43 116.84 L 169.44 116.75 C 170.34 116.66 171.00 115.86 170.92 114.96 C 170.83 114.06 170.03 113.40 169.13 113.48 L 168.12 113.58 C 167.22 113.66 166.56 114.46 166.64 115.36 C 166.73 116.26 167.53 116.93 168.43 116.84 Z M 169.45 116.75 L 170.43 116.65 C 171.33 116.56 171.99 115.76 171.90 114.85 C 171.81 113.95 171.01 113.29 170.10 113.38 L 169.12 113.48 C 168.22 113.57 167.56 114.38 167.65 115.28 C 167.74 116.18 168.54 116.84 169.45 116.75 Z M 170.44 116.65 L 171.43 116.54 C 172.34 116.45 172.99 115.64 172.90 114.74 C 172.80 113.84 171.99 113.18 171.09 113.28 L 170.10 113.38 C 169.19 113.48 168.54 114.29 168.63 115.19 C 168.73 116.09 169.54 116.74 170.44 116.65 Z M 171.44 116.54 L 172.47 116.43 C 173.37 116.34 174.02 115.53 173.92 114.62 C 173.83 113.72 173.01 113.07 172.11 113.17 L 171.09 113.28 C 170.18 113.38 169.53 114.19 169.63 115.09 C 169.73 115.99 170.54 116.64 171.44 116.54 Z M 172.47 116.43 L 173.45 116.33 C 174.35 116.23 175.01 115.42 174.91 114.52 C 174.81 113.61 174.00 112.96 173.10 113.06 L 172.11 113.17 C 171.21 113.26 170.56 114.08 170.66 114.98 C 170.75 115.88 171.57 116.53 172.47 116.43 Z M 173.45 116.33 L 174.40 116.23 C 175.30 116.13 175.96 115.32 175.86 114.42 C 175.77 113.52 174.96 112.86 174.06 112.96 L 173.10 113.06 C 172.20 113.15 171.55 113.96 171.64 114.86 C 171.74 115.77 172.54 116.42 173.45 116.33 Z M 174.39 116.23 L 175.32 116.14 C 176.23 116.05 176.89 115.25 176.80 114.35 C 176.71 113.44 175.91 112.78 175.01 112.87 L 174.07 112.96 C 173.17 113.04 172.51 113.85 172.59 114.75 C 172.68 115.65 173.48 116.32 174.39 116.23 Z M 175.31 116.14 L 176.26 116.06 C 177.17 115.98 177.84 115.18 177.76 114.28 C 177.68 113.37 176.89 112.70 175.98 112.78 L 175.02 112.86 C 174.12 112.94 173.45 113.74 173.53 114.64 C 173.61 115.55 174.40 116.22 175.31 116.14 Z M 176.25 116.06 L 177.26 115.98 C 178.17 115.92 178.85 115.12 178.78 114.22 C 178.71 113.31 177.92 112.63 177.02 112.70 L 176.00 112.78 C 175.09 112.85 174.41 113.64 174.48 114.55 C 174.55 115.45 175.34 116.13 176.25 116.06 Z M 177.25 115.99 L 178.29 115.92 C 179.20 115.86 179.89 115.07 179.83 114.16 C 179.77 113.25 178.98 112.57 178.07 112.63 L 177.03 112.70 C 176.12 112.76 175.44 113.55 175.50 114.45 C 175.56 115.36 176.34 116.05 177.25 115.99 Z M 178.28 115.92 L 179.26 115.86 C 180.17 115.81 180.86 115.03 180.81 114.12 C 180.75 113.21 179.97 112.51 179.06 112.57 L 178.08 112.63 C 177.17 112.68 176.48 113.46 176.54 114.37 C 176.59 115.28 177.37 115.98 178.28 115.92 Z M 179.25 115.87 L 180.27 115.81 C 181.18 115.76 181.88 114.98 181.83 114.07 C 181.78 113.16 181.00 112.46 180.09 112.51 L 179.07 112.56 C 178.16 112.61 177.46 113.39 177.51 114.30 C 177.56 115.22 178.33 115.92 179.25 115.87 Z M 180.25 115.82 L 181.28 115.77 C 182.19 115.73 182.90 114.95 182.86 114.04 C 182.82 113.12 182.04 112.41 181.13 112.46 L 180.10 112.50 C 179.18 112.54 178.48 113.32 178.52 114.24 C 178.56 115.15 179.34 115.86 180.25 115.82 Z M 181.26 115.77 L 182.27 115.74 C 183.18 115.70 183.90 114.93 183.87 114.01 C 183.83 113.10 183.06 112.38 182.14 112.41 L 181.14 112.45 C 180.22 112.48 179.51 113.26 179.54 114.17 C 179.58 115.09 180.35 115.81 181.26 115.77 Z M 182.23 115.75 L 183.56 115.74 C 184.49 115.72 185.23 114.96 185.21 114.04 C 185.20 113.11 184.44 112.37 183.52 112.38 L 182.18 112.40 C 181.26 112.41 180.52 113.17 180.53 114.10 C 180.54 115.02 181.30 115.76 182.23 115.75 Z M 183.36 115.75 L 184.37 115.86 C 185.31 115.96 186.15 115.28 186.25 114.35 C 186.34 113.41 185.67 112.57 184.73 112.47 L 183.72 112.37 C 182.78 112.27 181.94 112.94 181.84 113.88 C 181.75 114.81 182.42 115.65 183.36 115.75 Z M 183.49 115.53 L 183.92 115.87 C 184.67 116.45 185.76 116.32 186.35 115.57 C 186.93 114.81 186.80 113.73 186.05 113.14 L 185.62 112.80 C 184.86 112.22 183.78 112.35 183.19 113.10 C 182.60 113.86 182.74 114.94 183.49 115.53 Z M 183.40 113.79 L 183.13 114.37 C 182.74 115.24 183.13 116.28 184.00 116.67 C 184.88 117.07 185.91 116.68 186.31 115.80 L 186.57 115.22 C 186.97 114.34 186.58 113.31 185.70 112.92 C 184.83 112.52 183.79 112.91 183.40 113.79 Z M 183.49 113.85 L 182.75 114.58 C 182.07 115.26 182.07 116.37 182.75 117.05 C 183.43 117.74 184.54 117.74 185.22 117.06 L 185.96 116.32 C 186.64 115.64 186.64 114.53 185.96 113.85 C 185.28 113.17 184.17 113.16 183.49 113.85 Z M 182.91 114.44 L 181.94 115.19 C 181.18 115.79 181.05 116.89 181.64 117.65 C 182.24 118.41 183.34 118.55 184.10 117.95 L 185.07 117.20 C 185.83 116.60 185.96 115.50 185.37 114.74 C 184.77 113.98 183.67 113.84 182.91 114.44 Z M 182.04 115.12 L 181.14 115.72 C 180.34 116.27 180.12 117.36 180.67 118.16 C 181.21 118.97 182.30 119.18 183.10 118.63 L 184.00 118.03 C 184.81 117.48 185.02 116.39 184.48 115.59 C 183.94 114.79 182.84 114.57 182.04 115.12 Z M 181.22 115.67 L 180.37 116.18 C 179.54 116.68 179.26 117.76 179.76 118.59 C 180.26 119.42 181.33 119.69 182.17 119.20 L 183.02 118.69 C 183.85 118.19 184.13 117.11 183.63 116.28 C 183.13 115.45 182.06 115.17 181.22 115.67 Z M 180.43 116.15 L 179.58 116.61 C 178.73 117.07 178.41 118.14 178.88 118.99 C 179.34 119.84 180.41 120.16 181.26 119.69 L 182.11 119.23 C 182.96 118.77 183.27 117.70 182.81 116.85 C 182.35 116.00 181.28 115.68 180.43 116.15 Z M 179.60 116.60 L 178.75 117.04 C 177.89 117.49 177.56 118.55 178.01 119.41 C 178.46 120.27 179.52 120.60 180.38 120.15 L 181.23 119.71 C 182.09 119.26 182.42 118.20 181.97 117.34 C 181.52 116.48 180.46 116.15 179.60 116.60 Z M 178.75 117.04 L 177.90 117.48 C 177.04 117.93 176.71 118.99 177.15 119.85 C 177.60 120.71 178.66 121.05 179.52 120.60 L 180.37 120.16 C 181.23 119.71 181.57 118.65 181.12 117.79 C 180.68 116.93 179.62 116.59 178.75 117.04 Z M 177.91 117.48 L 177.02 117.94 C 176.16 118.38 175.82 119.44 176.26 120.30 C 176.71 121.17 177.76 121.50 178.63 121.06 L 179.52 120.60 C 180.38 120.16 180.72 119.10 180.27 118.24 C 179.83 117.37 178.77 117.04 177.91 117.48 Z M 177.03 117.93 L 176.10 118.40 C 175.23 118.84 174.89 119.90 175.33 120.77 C 175.77 121.63 176.82 121.98 177.69 121.54 L 178.62 121.07 C 179.48 120.63 179.83 119.57 179.39 118.70 C 178.95 117.84 177.89 117.49 177.03 117.93 Z M 176.11 118.40 L 175.22 118.84 C 174.36 119.27 174.00 120.33 174.44 121.20 C 174.87 122.06 175.92 122.42 176.79 121.98 L 177.68 121.54 C 178.55 121.11 178.90 120.05 178.47 119.19 C 178.03 118.32 176.98 117.97 176.11 118.40 Z M 175.23 118.84 L 174.36 119.27 C 173.49 119.70 173.13 120.75 173.56 121.62 C 173.99 122.49 175.04 122.85 175.91 122.42 L 176.78 121.99 C 177.65 121.56 178.01 120.51 177.58 119.64 C 177.15 118.77 176.10 118.41 175.23 118.84 Z M 174.36 119.27 L 173.46 119.71 C 172.59 120.13 172.23 121.18 172.66 122.05 C 173.09 122.92 174.14 123.29 175.01 122.86 L 175.91 122.42 C 176.78 121.99 177.14 120.94 176.71 120.07 C 176.29 119.20 175.23 118.84 174.36 119.27 Z M 173.46 119.71 L 172.54 120.16 C 171.67 120.58 171.31 121.63 171.74 122.51 C 172.16 123.38 173.21 123.74 174.08 123.31 L 175.01 122.86 C 175.88 122.43 176.24 121.38 175.81 120.51 C 175.39 119.64 174.34 119.28 173.46 119.71 Z M 172.54 120.16 L 171.62 120.61 C 170.75 121.04 170.40 122.09 170.82 122.96 C 171.25 123.83 172.30 124.19 173.17 123.76 L 174.09 123.31 C 174.95 122.88 175.31 121.83 174.89 120.96 C 174.46 120.09 173.41 119.73 172.54 120.16 Z M 171.62 120.61 L 170.74 121.05 C 169.87 121.48 169.52 122.53 169.94 123.40 C 170.37 124.27 171.43 124.62 172.29 124.19 L 173.18 123.76 C 174.04 123.33 174.40 122.27 173.97 121.41 C 173.54 120.54 172.49 120.18 171.62 120.61 Z M 170.74 121.05 L 169.84 121.49 C 168.97 121.93 168.62 122.98 169.05 123.84 C 169.48 124.71 170.54 125.06 171.40 124.63 L 172.30 124.19 C 173.16 123.76 173.52 122.71 173.09 121.84 C 172.65 120.97 171.60 120.62 170.74 121.05 Z M 169.84 121.50 L 168.94 121.95 C 168.07 122.38 167.72 123.43 168.15 124.30 C 168.58 125.16 169.63 125.51 170.50 125.08 L 171.40 124.63 C 172.27 124.20 172.62 123.15 172.19 122.28 C 171.76 121.42 170.71 121.06 169.84 121.50 Z M 168.94 121.95 L 168.03 122.40 C 167.16 122.83 166.81 123.89 167.24 124.75 C 167.68 125.62 168.73 125.97 169.59 125.54 L 170.50 125.08 C 171.37 124.65 171.72 123.60 171.28 122.73 C 170.85 121.87 169.80 121.52 168.94 121.95 Z M 168.03 122.40 L 167.13 122.85 C 166.26 123.29 165.91 124.34 166.34 125.20 C 166.78 126.07 167.83 126.42 168.69 125.98 L 169.59 125.53 C 170.46 125.10 170.81 124.05 170.38 123.19 C 169.94 122.32 168.89 121.97 168.03 122.40 Z M 167.13 122.85 L 166.23 123.30 C 165.37 123.73 165.02 124.78 165.45 125.65 C 165.88 126.51 166.93 126.86 167.79 126.43 L 168.69 125.98 C 169.56 125.55 169.91 124.50 169.48 123.64 C 169.04 122.77 167.99 122.42 167.13 122.85 Z M 166.24 123.30 L 165.34 123.75 C 164.48 124.17 164.12 125.22 164.55 126.09 C 164.98 126.95 166.03 127.30 166.89 126.88 L 167.79 126.43 C 168.66 126.00 169.01 124.95 168.58 124.09 C 168.15 123.22 167.10 122.87 166.24 123.30 Z M 165.35 123.74 L 164.45 124.19 C 163.59 124.61 163.23 125.66 163.66 126.52 C 164.08 127.39 165.13 127.74 165.99 127.32 L 166.89 126.88 C 167.75 126.45 168.11 125.40 167.68 124.54 C 167.26 123.67 166.21 123.32 165.35 123.74 Z M 164.46 124.18 L 163.56 124.62 C 162.70 125.04 162.34 126.09 162.76 126.95 C 163.18 127.82 164.22 128.18 165.09 127.76 L 165.99 127.32 C 166.85 126.90 167.21 125.85 166.79 124.99 C 166.37 124.12 165.32 123.76 164.46 124.18 Z M 163.57 124.62 L 162.68 125.05 C 161.81 125.47 161.45 126.51 161.86 127.37 C 162.28 128.24 163.32 128.61 164.19 128.19 L 165.08 127.76 C 165.95 127.34 166.31 126.30 165.89 125.43 C 165.48 124.57 164.44 124.20 163.57 124.62 Z M 162.68 125.05 L 161.79 125.48 C 160.92 125.89 160.55 126.93 160.97 127.80 C 161.38 128.66 162.42 129.03 163.29 128.62 L 164.18 128.19 C 165.05 127.77 165.42 126.74 165.00 125.87 C 164.59 125.00 163.55 124.63 162.68 125.05 Z M 161.79 125.48 L 160.89 125.91 C 160.02 126.32 159.66 127.36 160.07 128.22 C 160.48 129.09 161.52 129.46 162.38 129.04 L 163.28 128.61 C 164.15 128.20 164.52 127.16 164.11 126.30 C 163.69 125.43 162.66 125.07 161.79 125.48 Z M 160.89 125.91 L 159.98 126.35 C 159.12 126.76 158.75 127.80 159.16 128.66 C 159.58 129.52 160.61 129.89 161.48 129.48 L 162.39 129.04 C 163.25 128.63 163.62 127.59 163.20 126.73 C 162.79 125.86 161.75 125.50 160.89 125.91 Z M 159.97 126.35 L 159.06 126.79 C 158.20 127.21 157.84 128.25 158.25 129.11 C 158.67 129.97 159.71 130.33 160.57 129.91 L 161.48 129.47 C 162.34 129.05 162.71 128.02 162.29 127.16 C 161.87 126.29 160.84 125.93 159.97 126.35 Z M 159.05 126.80 L 158.13 127.25 C 157.27 127.67 156.92 128.71 157.34 129.56 C 157.76 130.42 158.80 130.78 159.65 130.36 L 160.57 129.91 C 161.43 129.49 161.79 128.45 161.37 127.59 C 160.95 126.74 159.91 126.38 159.05 126.80 Z M 158.13 127.26 L 157.21 127.71 C 156.36 128.13 156.01 129.17 156.43 130.02 C 156.85 130.88 157.89 131.23 158.74 130.80 L 159.66 130.35 C 160.51 129.93 160.86 128.89 160.44 128.04 C 160.02 127.18 158.98 126.83 158.13 127.26 Z M 157.21 127.71 L 156.31 128.16 C 155.46 128.58 155.11 129.62 155.53 130.47 C 155.96 131.32 156.99 131.67 157.85 131.25 L 158.74 130.80 C 159.60 130.38 159.94 129.34 159.52 128.49 C 159.10 127.64 158.06 127.29 157.21 127.71 Z M 156.31 128.16 L 155.44 128.60 C 154.59 129.02 154.24 130.06 154.67 130.91 C 155.09 131.76 156.12 132.10 156.98 131.68 L 157.85 131.24 C 158.70 130.82 159.04 129.79 158.62 128.93 C 158.19 128.08 157.16 127.74 156.31 128.16 Z M 155.44 128.60 L 154.53 129.06 C 153.68 129.48 153.33 130.51 153.76 131.36 C 154.18 132.21 155.21 132.56 156.06 132.13 L 156.97 131.68 C 157.82 131.25 158.17 130.22 157.74 129.37 C 157.32 128.52 156.29 128.18 155.44 128.60 Z M 154.53 129.06 L 153.59 129.53 C 152.75 129.95 152.40 130.98 152.82 131.83 C 153.25 132.67 154.28 133.02 155.12 132.60 L 156.06 132.13 C 156.91 131.71 157.25 130.68 156.83 129.83 C 156.41 128.98 155.38 128.64 154.53 129.06 Z M 153.60 129.53 L 152.71 129.97 C 151.87 130.39 151.52 131.41 151.94 132.26 C 152.36 133.11 153.38 133.45 154.23 133.03 L 155.12 132.59 C 155.96 132.17 156.31 131.15 155.89 130.30 C 155.47 129.46 154.45 129.11 153.60 129.53 Z M 152.72 129.97 L 151.87 130.39 C 151.02 130.80 150.67 131.82 151.08 132.67 C 151.50 133.51 152.52 133.86 153.37 133.45 L 154.22 133.03 C 155.07 132.62 155.42 131.60 155.00 130.75 C 154.59 129.91 153.57 129.55 152.72 129.97 Z M 151.88 130.38 L 151.05 130.78 C 150.20 131.19 149.84 132.21 150.25 133.05 C 150.66 133.90 151.67 134.26 152.52 133.85 L 153.35 133.45 C 154.20 133.05 154.56 132.03 154.15 131.18 C 153.74 130.34 152.73 129.98 151.88 130.38 Z M 151.06 130.78 L 150.22 131.18 C 149.37 131.58 149.01 132.59 149.41 133.43 C 149.80 134.28 150.81 134.65 151.66 134.25 L 152.50 133.85 C 153.35 133.46 153.72 132.45 153.32 131.60 C 152.92 130.75 151.91 130.39 151.06 130.78 Z M 150.24 131.18 L 149.35 131.59 C 148.50 131.97 148.13 132.98 148.52 133.82 C 148.91 134.67 149.91 135.04 150.76 134.65 L 151.65 134.25 C 152.49 133.86 152.87 132.86 152.48 132.01 C 152.09 131.16 151.08 130.79 150.24 131.18 Z M 149.36 131.59 L 148.39 132.03 C 147.54 132.41 147.17 133.40 147.55 134.25 C 147.93 135.10 148.93 135.47 149.77 135.09 L 150.75 134.65 C 151.59 134.27 151.97 133.27 151.59 132.43 C 151.21 131.58 150.21 131.20 149.36 131.59 Z M 148.40 132.03 L 147.46 132.45 C 146.61 132.83 146.23 133.82 146.61 134.66 C 146.99 135.51 147.98 135.89 148.82 135.51 L 149.77 135.09 C 150.61 134.71 150.99 133.72 150.61 132.88 C 150.24 132.03 149.25 131.65 148.40 132.03 Z M 147.47 132.45 L 146.56 132.85 C 145.72 133.22 145.34 134.21 145.71 135.05 C 146.08 135.89 147.06 136.28 147.91 135.91 L 148.81 135.51 C 149.66 135.14 150.04 134.15 149.67 133.31 C 149.30 132.46 148.31 132.08 147.47 132.45 Z M 146.58 132.85 L 145.63 133.26 C 144.79 133.62 144.40 134.60 144.76 135.44 C 145.12 136.28 146.10 136.67 146.95 136.31 L 147.89 135.91 C 148.74 135.54 149.13 134.57 148.76 133.72 C 148.40 132.88 147.42 132.49 146.58 132.85 Z M 145.65 133.25 L 144.70 133.65 C 143.85 134.00 143.45 134.97 143.80 135.81 C 144.15 136.66 145.12 137.06 145.97 136.71 L 146.92 136.31 C 147.77 135.96 148.17 134.99 147.82 134.15 C 147.47 133.30 146.50 132.90 145.65 133.25 Z M 144.73 133.64 L 143.79 134.01 C 142.94 134.35 142.53 135.31 142.86 136.15 C 143.20 137.00 144.16 137.42 145.00 137.08 L 145.94 136.72 C 146.79 136.38 147.20 135.42 146.87 134.57 C 146.54 133.73 145.58 133.31 144.73 133.64 Z M 143.84 134.01 L 142.86 134.36 C 142.01 134.67 141.57 135.61 141.88 136.46 C 142.19 137.32 143.13 137.76 143.99 137.45 L 144.96 137.09 C 145.81 136.78 146.25 135.84 145.94 134.99 C 145.63 134.14 144.69 133.70 143.84 134.01 Z M 142.92 134.36 L 141.91 134.69 C 141.05 134.96 140.58 135.88 140.86 136.73 C 141.14 137.59 142.06 138.06 142.91 137.78 L 143.93 137.45 C 144.78 137.17 145.25 136.25 144.97 135.40 C 144.69 134.55 143.78 134.08 142.92 134.36 Z M 141.96 134.69 L 141.01 134.96 C 140.16 135.21 139.67 136.10 139.91 136.95 C 140.16 137.80 141.05 138.30 141.90 138.05 L 142.85 137.78 C 143.70 137.53 144.20 136.64 143.95 135.79 C 143.70 134.94 142.81 134.44 141.96 134.69 Z M 141.05 134.97 L 140.14 135.21 C 139.30 135.44 138.79 136.30 139.01 137.15 C 139.23 138.00 140.10 138.50 140.95 138.28 L 141.86 138.04 C 142.71 137.82 143.21 136.95 142.99 136.10 C 142.77 135.26 141.90 134.75 141.05 134.97 Z M 140.16 135.23 L 139.49 135.39 C 138.65 135.61 138.14 136.46 138.35 137.30 C 138.56 138.14 139.42 138.65 140.26 138.44 L 140.93 138.27 C 141.77 138.06 142.28 137.20 142.07 136.36 C 141.85 135.52 141.00 135.01 140.16 135.23 Z"
      fill="black"
      fill-rule="nonzero" /><path d="M 147.94 158.23 L 146.58 158.23 C 145.71 158.23 145.01 158.93 145.01 159.80 C 145.01 160.67 145.71 161.38 146.58 161.38 L 147.94 161.38 C 148.81 161.38 149.52 160.67 149.52 159.80 C 149.52 158.93 148.81 158.23 147.94 158.23 Z M 146.58 158.23 L 145.40 158.23 C 144.53 158.23 143.83 158.93 143.83 159.80 C 143.83 160.67 144.53 161.38 145.40 161.38 L 146.58 161.38 C 147.45 161.38 148.16 160.67 148.16 159.80 C 148.16 158.93 147.45 158.23 146.58 158.23 Z M 145.40 158.23 L 144.58 158.23 C 143.71 158.23 143.00 158.93 143.00 159.80 C 143.00 160.67 143.71 161.38 144.58 161.38 L 145.40 161.38 C 146.27 161.38 146.98 160.67 146.98 159.80 C 146.98 158.93 146.27 158.23 145.40 158.23 Z M 144.58 158.23 L 144.31 158.23 C 143.44 158.22 142.73 158.93 142.73 159.80 C 142.73 160.67 143.43 161.38 144.30 161.38 L 144.58 161.38 C 145.45 161.38 146.15 160.67 146.15 159.80 C 146.16 158.93 145.45 158.23 144.58 158.23 Z M 144.34 161.38 L 145.07 161.36 C 145.94 161.34 146.63 160.62 146.61 159.75 C 146.59 158.88 145.87 158.19 145.00 158.21 L 144.27 158.23 C 143.40 158.25 142.71 158.97 142.73 159.84 C 142.75 160.71 143.47 161.40 144.34 161.38 Z M 145.11 161.36 L 146.52 161.29 C 147.39 161.24 148.06 160.50 148.02 159.63 C 147.97 158.77 147.23 158.10 146.37 158.14 L 144.96 158.21 C 144.09 158.26 143.42 159.00 143.46 159.86 C 143.51 160.73 144.25 161.40 145.11 161.36 Z M 146.58 161.28 L 147.48 161.20 C 148.35 161.12 148.99 160.36 148.91 159.50 C 148.83 158.63 148.07 157.99 147.21 158.07 L 146.31 158.15 C 145.44 158.23 144.80 158.99 144.88 159.85 C 144.96 160.72 145.72 161.35 146.58 161.28 Z M 147.53 161.19 L 148.48 161.07 C 149.34 160.97 149.95 160.19 149.84 159.33 C 149.74 158.47 148.96 157.86 148.10 157.97 L 147.16 158.08 C 146.30 158.19 145.69 158.97 145.79 159.82 C 145.90 160.68 146.68 161.29 147.53 161.19 Z M 148.53 161.06 L 149.53 160.90 C 150.38 160.77 150.97 159.98 150.84 159.13 C 150.70 158.28 149.91 157.69 149.06 157.83 L 148.05 157.98 C 147.20 158.11 146.62 158.91 146.75 159.76 C 146.88 160.61 147.68 161.19 148.53 161.06 Z M 149.58 160.89 L 150.66 160.69 C 151.50 160.53 152.06 159.72 151.90 158.88 C 151.74 158.04 150.93 157.48 150.09 157.64 L 149.01 157.84 C 148.17 158.00 147.62 158.81 147.77 159.65 C 147.93 160.49 148.74 161.05 149.58 160.89 Z M 150.70 160.67 L 151.69 160.46 C 152.52 160.28 153.05 159.46 152.87 158.63 C 152.69 157.79 151.87 157.26 151.04 157.44 L 150.05 157.65 C 149.22 157.83 148.69 158.65 148.87 159.49 C 149.04 160.32 149.87 160.85 150.70 160.67 Z M 151.72 160.44 L 152.71 160.21 C 153.53 160.02 154.04 159.19 153.85 158.37 C 153.66 157.54 152.83 157.03 152.00 157.22 L 151.01 157.46 C 150.19 157.65 149.68 158.48 149.87 159.30 C 150.06 160.13 150.89 160.64 151.72 160.44 Z M 152.72 160.20 L 153.73 159.95 C 154.54 159.74 155.04 158.92 154.84 158.10 C 154.63 157.28 153.80 156.78 152.98 156.99 L 151.98 157.24 C 151.17 157.44 150.67 158.27 150.87 159.09 C 151.08 159.91 151.91 160.40 152.72 160.20 Z M 153.74 159.94 L 154.72 159.68 C 155.54 159.47 156.02 158.64 155.81 157.82 C 155.60 157.01 154.76 156.53 153.95 156.74 L 152.97 157.00 C 152.16 157.21 151.67 158.04 151.89 158.85 C 152.10 159.66 152.93 160.15 153.74 159.94 Z M 154.74 159.67 L 155.67 159.41 C 156.48 159.19 156.95 158.36 156.73 157.56 C 156.52 156.75 155.68 156.28 154.88 156.50 L 153.94 156.75 C 153.14 156.97 152.66 157.80 152.88 158.61 C 153.10 159.41 153.93 159.89 154.74 159.67 Z M 155.68 159.40 L 156.72 159.11 C 157.52 158.88 157.98 158.05 157.76 157.25 C 157.53 156.46 156.70 155.99 155.91 156.22 L 154.87 156.51 C 154.07 156.73 153.60 157.56 153.83 158.36 C 154.05 159.16 154.88 159.63 155.68 159.40 Z M 156.73 159.09 L 157.73 158.80 C 158.52 158.57 158.98 157.75 158.75 156.96 C 158.52 156.16 157.69 155.71 156.90 155.94 L 155.90 156.23 C 155.11 156.46 154.65 157.29 154.88 158.08 C 155.11 158.87 155.94 159.32 156.73 159.09 Z M 157.73 158.79 L 158.66 158.52 C 159.44 158.29 159.89 157.46 159.66 156.68 C 159.42 155.90 158.60 155.45 157.82 155.68 L 156.89 155.95 C 156.11 156.18 155.66 157.01 155.89 157.79 C 156.13 158.57 156.95 159.02 157.73 158.79 Z M 158.65 158.51 L 159.53 158.25 C 160.31 158.02 160.75 157.20 160.53 156.43 C 160.30 155.65 159.48 155.20 158.71 155.43 L 157.82 155.69 C 157.05 155.92 156.60 156.73 156.83 157.51 C 157.06 158.29 157.87 158.73 158.65 158.51 Z M 159.52 158.24 L 160.45 157.97 C 161.23 157.75 161.67 156.95 161.45 156.17 C 161.23 155.40 160.43 154.95 159.65 155.17 L 158.72 155.44 C 157.94 155.66 157.50 156.47 157.72 157.24 C 157.94 158.01 158.75 158.46 159.52 158.24 Z M 160.44 157.97 L 161.40 157.71 C 162.17 157.49 162.62 156.69 162.41 155.92 C 162.19 155.15 161.39 154.69 160.62 154.91 L 159.66 155.17 C 158.89 155.39 158.44 156.19 158.65 156.96 C 158.87 157.74 159.67 158.19 160.44 157.97 Z M 161.39 157.70 L 162.36 157.44 C 163.13 157.22 163.58 156.43 163.37 155.66 C 163.16 154.89 162.36 154.43 161.59 154.65 L 160.62 154.91 C 159.85 155.12 159.40 155.92 159.61 156.69 C 159.83 157.46 160.62 157.91 161.39 157.70 Z M 162.36 157.43 L 163.33 157.16 C 164.10 156.95 164.55 156.15 164.34 155.39 C 164.12 154.62 163.33 154.17 162.56 154.38 L 161.59 154.65 C 160.82 154.86 160.37 155.66 160.58 156.43 C 160.80 157.19 161.59 157.64 162.36 157.43 Z M 163.34 157.16 L 164.28 156.89 C 165.05 156.68 165.50 155.88 165.28 155.12 C 165.07 154.35 164.27 153.91 163.51 154.12 L 162.56 154.39 C 161.79 154.60 161.35 155.40 161.56 156.16 C 161.78 156.92 162.57 157.37 163.34 157.16 Z M 164.29 156.89 L 165.25 156.61 C 166.01 156.40 166.46 155.60 166.24 154.84 C 166.02 154.08 165.23 153.64 164.47 153.85 L 163.51 154.12 C 162.74 154.34 162.30 155.13 162.52 155.90 C 162.73 156.66 163.53 157.10 164.29 156.89 Z M 165.25 156.61 L 166.22 156.33 C 166.98 156.12 167.42 155.32 167.21 154.56 C 166.99 153.80 166.20 153.36 165.44 153.58 L 164.47 153.86 C 163.71 154.07 163.27 154.86 163.48 155.63 C 163.70 156.39 164.49 156.83 165.25 156.61 Z M 166.22 156.33 L 167.19 156.05 C 167.95 155.84 168.39 155.05 168.18 154.29 C 167.96 153.53 167.17 153.09 166.41 153.30 L 165.44 153.58 C 164.68 153.80 164.24 154.59 164.45 155.35 C 164.67 156.11 165.46 156.55 166.22 156.33 Z M 167.19 156.05 L 168.16 155.78 C 168.92 155.56 169.36 154.77 169.14 154.01 C 168.92 153.25 168.13 152.81 167.37 153.03 L 166.41 153.31 C 165.65 153.52 165.21 154.31 165.43 155.07 C 165.64 155.83 166.44 156.27 167.19 156.05 Z M 168.16 155.77 L 169.12 155.50 C 169.88 155.28 170.32 154.49 170.10 153.73 C 169.88 152.98 169.09 152.54 168.34 152.75 L 167.37 153.03 C 166.62 153.25 166.18 154.04 166.39 154.80 C 166.61 155.55 167.40 155.99 168.16 155.77 Z M 169.12 155.50 L 170.08 155.22 C 170.84 155.00 171.28 154.21 171.06 153.45 C 170.84 152.70 170.05 152.26 169.29 152.48 L 168.33 152.76 C 167.58 152.97 167.14 153.77 167.36 154.52 C 167.58 155.28 168.37 155.72 169.12 155.50 Z M 170.08 155.22 L 171.05 154.94 C 171.80 154.72 172.24 153.93 172.02 153.17 C 171.80 152.42 171.01 151.98 170.25 152.20 L 169.29 152.48 C 168.53 152.70 168.10 153.49 168.32 154.25 C 168.54 155.00 169.33 155.44 170.08 155.22 Z M 171.05 154.94 L 172.01 154.66 C 172.77 154.44 173.20 153.65 172.98 152.89 C 172.76 152.13 171.97 151.70 171.21 151.92 L 170.25 152.20 C 169.49 152.42 169.06 153.21 169.28 153.97 C 169.50 154.73 170.29 155.16 171.05 154.94 Z M 172.01 154.66 L 172.97 154.38 C 173.72 154.16 174.16 153.37 173.94 152.61 C 173.72 151.86 172.93 151.42 172.17 151.64 L 171.22 151.92 C 170.46 152.14 170.02 152.93 170.24 153.69 C 170.46 154.44 171.25 154.88 172.01 154.66 Z M 172.96 154.38 L 173.92 154.11 C 174.67 153.90 175.11 153.11 174.90 152.35 C 174.68 151.59 173.89 151.15 173.14 151.37 L 172.18 151.64 C 171.42 151.86 170.99 152.64 171.20 153.40 C 171.42 154.16 172.20 154.60 172.96 154.38 Z M 173.90 154.11 L 174.86 153.85 C 175.62 153.64 176.07 152.86 175.86 152.10 C 175.65 151.34 174.86 150.89 174.10 151.10 L 173.15 151.37 C 172.39 151.57 171.94 152.36 172.15 153.12 C 172.36 153.88 173.15 154.32 173.90 154.11 Z M 174.85 153.85 L 175.81 153.60 C 176.57 153.40 177.02 152.62 176.82 151.85 C 176.62 151.09 175.84 150.64 175.08 150.84 L 174.12 151.10 C 173.36 151.30 172.90 152.08 173.11 152.84 C 173.31 153.60 174.09 154.06 174.85 153.85 Z M 175.80 153.60 L 176.77 153.35 C 177.53 153.15 177.99 152.38 177.79 151.61 C 177.59 150.85 176.82 150.39 176.05 150.59 L 175.09 150.84 C 174.32 151.04 173.87 151.82 174.06 152.58 C 174.26 153.34 175.04 153.80 175.80 153.60 Z M 176.76 153.35 L 177.74 153.11 C 178.50 152.91 178.97 152.14 178.77 151.37 C 178.58 150.61 177.81 150.15 177.04 150.34 L 176.06 150.59 C 175.30 150.78 174.84 151.56 175.03 152.32 C 175.22 153.08 176.00 153.55 176.76 153.35 Z M 177.74 153.11 L 178.69 152.87 C 179.46 152.68 179.92 151.91 179.73 151.14 C 179.54 150.38 178.77 149.91 178.01 150.10 L 177.05 150.34 C 176.29 150.53 175.82 151.30 176.01 152.07 C 176.20 152.83 176.97 153.30 177.74 153.11 Z M 178.69 152.87 L 179.66 152.63 C 180.42 152.45 180.89 151.67 180.70 150.91 C 180.52 150.15 179.75 149.68 178.98 149.86 L 178.01 150.10 C 177.25 150.29 176.78 151.06 176.97 151.82 C 177.15 152.59 177.92 153.06 178.69 152.87 Z M 179.66 152.63 L 180.63 152.40 C 181.40 152.21 181.87 151.44 181.68 150.68 C 181.50 149.91 180.73 149.44 179.96 149.63 L 178.98 149.86 C 178.22 150.05 177.75 150.82 177.93 151.58 C 178.12 152.35 178.89 152.82 179.66 152.63 Z M 180.63 152.40 L 181.48 152.19 C 182.25 152.01 182.72 151.24 182.53 150.47 C 182.35 149.71 181.58 149.24 180.81 149.42 L 179.96 149.63 C 179.20 149.81 178.73 150.58 178.91 151.35 C 179.10 152.11 179.87 152.58 180.63 152.40 Z"
      fill="black"
      fill-rule="nonzero" /><path d="M 148.57 177.54 L 147.17 177.57 C 146.30 177.59 145.61 178.31 145.63 179.19 C 145.65 180.06 146.37 180.75 147.25 180.73 L 148.64 180.70 C 149.52 180.68 150.21 179.95 150.19 179.08 C 150.17 178.21 149.44 177.52 148.57 177.54 Z M 147.17 177.55 L 145.93 177.59 C 145.05 177.61 144.35 178.34 144.37 179.23 C 144.40 180.11 145.13 180.80 146.01 180.78 L 147.25 180.75 C 148.13 180.72 148.83 179.99 148.80 179.11 C 148.78 178.23 148.05 177.53 147.17 177.55 Z M 145.91 177.57 L 144.99 177.60 C 144.10 177.64 143.41 178.38 143.44 179.27 C 143.47 180.16 144.22 180.86 145.11 180.83 L 146.03 180.80 C 146.92 180.76 147.61 180.02 147.58 179.12 C 147.55 178.23 146.80 177.54 145.91 177.57 Z M 144.93 177.59 L 144.49 177.62 C 143.59 177.69 142.92 178.47 142.99 179.37 C 143.06 180.27 143.84 180.94 144.74 180.87 L 145.18 180.84 C 146.07 180.77 146.75 179.99 146.68 179.09 C 146.61 178.20 145.83 177.52 144.93 177.59 Z M 144.38 180.87 L 144.67 180.91 C 145.57 181.04 146.40 180.42 146.53 179.53 C 146.66 178.63 146.03 177.80 145.14 177.67 L 144.85 177.63 C 143.95 177.50 143.12 178.12 142.99 179.01 C 142.86 179.91 143.48 180.74 144.38 180.87 Z M 144.84 180.93 L 145.87 180.97 C 146.78 181.00 147.54 180.29 147.57 179.39 C 147.61 178.48 146.90 177.72 145.99 177.69 L 144.96 177.65 C 144.06 177.62 143.30 178.33 143.26 179.23 C 143.23 180.14 143.94 180.90 144.84 180.93 Z M 145.90 180.97 L 147.34 181.00 C 148.25 181.02 149.00 180.30 149.02 179.39 C 149.03 178.48 148.31 177.73 147.40 177.71 L 145.97 177.68 C 145.06 177.67 144.31 178.39 144.29 179.30 C 144.27 180.20 144.99 180.96 145.90 180.97 Z M 147.35 181.00 L 148.43 181.01 C 149.34 181.02 150.08 180.30 150.09 179.39 C 150.10 178.48 149.38 177.74 148.47 177.73 L 147.39 177.71 C 146.48 177.70 145.74 178.43 145.73 179.34 C 145.72 180.25 146.45 180.99 147.35 181.00 Z M 148.45 181.01 L 149.48 181.01 C 150.39 181.01 151.13 180.28 151.13 179.38 C 151.13 178.47 150.40 177.74 149.49 177.73 L 148.45 177.73 C 147.55 177.73 146.81 178.46 146.81 179.36 C 146.81 180.27 147.54 181.01 148.45 181.01 Z M 149.50 181.01 L 150.52 181.00 C 151.42 180.99 152.15 180.25 152.14 179.35 C 152.13 178.45 151.39 177.72 150.49 177.73 L 149.48 177.74 C 148.57 177.75 147.85 178.48 147.85 179.39 C 147.86 180.29 148.60 181.01 149.50 181.01 Z M 150.54 180.99 L 151.52 180.97 C 152.42 180.95 153.13 180.20 153.11 179.30 C 153.09 178.40 152.34 177.69 151.44 177.71 L 150.47 177.73 C 149.57 177.76 148.86 178.50 148.88 179.40 C 148.90 180.30 149.64 181.01 150.54 180.99 Z M 151.55 180.96 L 152.52 180.92 C 153.42 180.88 154.11 180.12 154.07 179.23 C 154.03 178.33 153.27 177.64 152.38 177.68 L 151.41 177.72 C 150.51 177.76 149.82 178.52 149.86 179.41 C 149.90 180.31 150.65 181.00 151.55 180.96 Z M 152.57 180.91 L 153.62 180.83 C 154.51 180.76 155.17 179.99 155.10 179.10 C 155.04 178.21 154.26 177.54 153.37 177.61 L 152.33 177.69 C 151.44 177.76 150.78 178.53 150.84 179.42 C 150.91 180.31 151.68 180.97 152.57 180.91 Z M 153.68 180.81 L 154.65 180.70 C 155.52 180.60 156.15 179.81 156.05 178.93 C 155.95 178.05 155.16 177.42 154.28 177.52 L 153.32 177.63 C 152.44 177.73 151.81 178.52 151.91 179.40 C 152.01 180.28 152.80 180.91 153.68 180.81 Z M 154.70 180.68 L 155.64 180.53 C 156.51 180.41 157.10 179.60 156.97 178.73 C 156.84 177.87 156.04 177.27 155.17 177.40 L 154.23 177.54 C 153.37 177.67 152.77 178.48 152.90 179.34 C 153.03 180.21 153.83 180.80 154.70 180.68 Z M 155.68 180.51 L 156.61 180.35 C 157.46 180.20 158.03 179.39 157.88 178.53 C 157.73 177.68 156.92 177.11 156.06 177.26 L 155.13 177.42 C 154.28 177.57 153.71 178.39 153.86 179.24 C 154.01 180.10 154.83 180.67 155.68 180.51 Z M 156.63 180.33 L 157.58 180.15 C 158.43 179.99 158.98 179.17 158.82 178.32 C 158.65 177.48 157.84 176.93 156.99 177.09 L 156.04 177.28 C 155.20 177.44 154.64 178.26 154.81 179.10 C 154.97 179.95 155.79 180.50 156.63 180.33 Z M 157.59 180.14 L 158.58 179.94 C 159.42 179.77 159.96 178.95 159.80 178.12 C 159.63 177.28 158.81 176.74 157.97 176.91 L 156.98 177.10 C 156.15 177.27 155.60 178.09 155.77 178.92 C 155.94 179.76 156.75 180.30 157.59 180.14 Z M 158.58 179.93 L 159.62 179.72 C 160.45 179.55 160.99 178.74 160.82 177.91 C 160.65 177.08 159.84 176.54 159.01 176.71 L 157.98 176.92 C 157.15 177.08 156.61 177.89 156.77 178.72 C 156.94 179.55 157.75 180.09 158.58 179.93 Z M 159.61 179.71 L 160.55 179.53 C 161.38 179.36 161.92 178.57 161.76 177.74 C 161.60 176.91 160.80 176.37 159.97 176.53 L 159.02 176.72 C 158.20 176.88 157.66 177.68 157.82 178.50 C 157.98 179.33 158.78 179.87 159.61 179.71 Z M 160.54 179.52 L 161.50 179.33 C 162.33 179.18 162.87 178.39 162.71 177.57 C 162.55 176.75 161.76 176.21 160.94 176.36 L 159.98 176.54 C 159.16 176.70 158.62 177.49 158.77 178.31 C 158.93 179.13 159.72 179.67 160.54 179.52 Z M 161.50 179.33 L 162.49 179.14 C 163.31 178.99 163.84 178.20 163.69 177.39 C 163.54 176.57 162.75 176.03 161.94 176.19 L 160.95 176.37 C 160.13 176.52 159.59 177.31 159.75 178.12 C 159.90 178.94 160.68 179.48 161.50 179.33 Z M 162.49 179.13 L 163.50 178.94 C 164.31 178.79 164.85 178.01 164.70 177.20 C 164.54 176.39 163.77 175.85 162.95 176.01 L 161.94 176.19 C 161.13 176.35 160.59 177.13 160.75 177.94 C 160.90 178.75 161.68 179.28 162.49 179.13 Z M 163.50 178.93 L 164.49 178.74 C 165.30 178.59 165.83 177.82 165.68 177.01 C 165.52 176.21 164.75 175.68 163.94 175.83 L 162.95 176.02 C 162.15 176.17 161.62 176.94 161.77 177.75 C 161.92 178.55 162.70 179.08 163.50 178.93 Z M 164.49 178.74 L 165.45 178.55 C 166.25 178.40 166.78 177.63 166.63 176.83 C 166.47 176.03 165.70 175.50 164.90 175.66 L 163.94 175.84 C 163.14 175.99 162.62 176.76 162.77 177.56 C 162.92 178.36 163.69 178.89 164.49 178.74 Z M 165.45 178.55 L 166.43 178.36 C 167.22 178.21 167.74 177.44 167.59 176.64 C 167.44 175.85 166.67 175.33 165.88 175.48 L 164.90 175.66 C 164.11 175.82 163.58 176.58 163.74 177.38 C 163.89 178.18 164.66 178.70 165.45 178.55 Z M 166.42 178.35 L 167.42 178.16 C 168.21 178.01 168.73 177.25 168.58 176.46 C 168.43 175.67 167.66 175.15 166.87 175.30 L 165.88 175.49 C 165.09 175.64 164.57 176.40 164.72 177.19 C 164.87 177.98 165.63 178.50 166.42 178.35 Z M 167.41 178.15 L 168.42 177.96 C 169.21 177.81 169.73 177.06 169.58 176.27 C 169.43 175.48 168.67 174.97 167.88 175.11 L 166.87 175.30 C 166.09 175.45 165.57 176.21 165.72 177.00 C 165.87 177.79 166.63 178.30 167.41 178.15 Z M 168.42 177.96 L 169.38 177.78 C 170.17 177.63 170.69 176.88 170.54 176.09 C 170.39 175.31 169.64 174.79 168.86 174.94 L 167.89 175.12 C 167.10 175.27 166.59 176.02 166.73 176.80 C 166.88 177.59 167.63 178.10 168.42 177.96 Z M 169.38 177.77 L 170.33 177.60 C 171.11 177.45 171.63 176.70 171.49 175.92 C 171.34 175.14 170.59 174.62 169.81 174.77 L 168.86 174.94 C 168.08 175.09 167.56 175.84 167.70 176.62 C 167.85 177.40 168.60 177.92 169.38 177.77 Z M 170.33 177.60 L 171.30 177.42 C 172.08 177.27 172.60 176.52 172.45 175.74 C 172.31 174.96 171.56 174.45 170.78 174.59 L 169.81 174.77 C 169.03 174.91 168.52 175.66 168.66 176.44 C 168.80 177.22 169.55 177.74 170.33 177.60 Z M 171.30 177.41 L 172.29 177.23 C 173.07 177.09 173.58 176.34 173.44 175.56 C 173.30 174.78 172.55 174.27 171.77 174.41 L 170.78 174.60 C 170.00 174.74 169.49 175.49 169.63 176.26 C 169.78 177.04 170.52 177.56 171.30 177.41 Z M 172.29 177.23 L 173.31 177.04 C 174.08 176.89 174.60 176.15 174.45 175.37 C 174.31 174.59 173.56 174.08 172.78 174.23 L 171.77 174.42 C 170.99 174.56 170.48 175.31 170.63 176.08 C 170.77 176.86 171.52 177.37 172.29 177.23 Z M 173.31 177.03 L 174.32 176.84 C 175.09 176.70 175.60 175.95 175.45 175.18 C 175.31 174.40 174.56 173.89 173.78 174.04 L 172.78 174.23 C 172.01 174.38 171.50 175.12 171.64 175.90 C 171.79 176.67 172.54 177.18 173.31 177.03 Z M 174.32 176.84 L 175.27 176.66 C 176.05 176.51 176.55 175.76 176.40 174.99 C 176.26 174.21 175.51 173.71 174.73 173.86 L 173.78 174.04 C 173.01 174.19 172.50 174.94 172.65 175.71 C 172.80 176.49 173.55 176.99 174.32 176.84 Z M 175.28 176.66 L 176.25 176.47 C 177.02 176.32 177.53 175.57 177.38 174.79 C 177.22 174.02 176.48 173.52 175.70 173.67 L 174.73 173.86 C 173.96 174.01 173.45 174.76 173.61 175.53 C 173.76 176.30 174.51 176.81 175.28 176.66 Z M 176.25 176.47 L 177.24 176.27 C 178.01 176.12 178.51 175.37 178.36 174.60 C 178.21 173.82 177.46 173.32 176.68 173.47 L 175.70 173.67 C 174.93 173.82 174.42 174.57 174.58 175.34 C 174.73 176.12 175.48 176.62 176.25 176.47 Z M 177.24 176.27 L 178.23 176.07 C 179.01 175.92 179.51 175.17 179.35 174.40 C 179.20 173.62 178.45 173.12 177.68 173.28 L 176.68 173.47 C 175.91 173.63 175.41 174.38 175.56 175.15 C 175.72 175.92 176.47 176.42 177.24 176.27 Z M 178.23 176.07 L 179.24 175.87 C 180.01 175.72 180.51 174.97 180.35 174.20 C 180.20 173.42 179.45 172.92 178.68 173.08 L 177.68 173.28 C 176.90 173.43 176.40 174.18 176.56 174.95 C 176.71 175.73 177.46 176.23 178.23 176.07 Z M 179.24 175.87 L 179.84 175.75 C 180.61 175.60 181.11 174.85 180.96 174.07 C 180.80 173.30 180.05 172.80 179.28 172.96 L 178.68 173.08 C 177.91 173.23 177.40 173.98 177.56 174.75 C 177.71 175.53 178.46 176.03 179.24 175.87 Z"
      fill="black"
      fill-rule="nonzero" /></svg>