<svg xmlns="http://www.w3.org/2000/svg" width="300" height="300" viewBox="0 0 300 300">
<path d="M 133.77 116.01 L 132.40 116.14 C 131.52 116.23 130.88 117.01 130.96 117.89 C 131.05 118.77 131.83 119.41 132.71 119.33 L 134.08 119.19 C 134.96 119.11 135.60 118.32 135.51 117.45 C 135.43 116.57 134.64 115.92 133.77 116.01 Z M 132.40 116.14 L 131.19 116.26 C 130.31 116.34 129.66 117.13 129.75 118.01 C 129.84 118.90 130.62 119.54 131.51 119.45 L 132.72 119.33 C 133.60 119.24 134.24 118.46 134.15 117.58 C 134.07 116.69 133.28 116.05 132.40 116.14 Z M 131.18 116.25 L 130.28 116.34 C 129.40 116.44 128.76 117.23 128.85 118.11 C 128.94 119.00 129.73 119.64 130.62 119.55 L 131.51 119.46 C 132.40 119.37 133.04 118.57 132.95 117.69 C 132.86 116.80 132.07 116.16 131.18 116.25 Z M 130.25 116.34 L 129.82 116.40 C 128.93 116.51 128.30 117.32 128.41 118.20 C 128.52 119.09 129.33 119.72 130.22 119.61 L 130.65 119.55 C 131.54 119.44 132.17 118.63 132.06 117.75 C 131.95 116.86 131.14 116.23 130.25 116.34 Z M 130.11 119.62 L 130.48 119.60 C 131.38 119.54 132.06 118.78 132.01 117.88 C 131.95 116.99 131.18 116.31 130.29 116.36 L 129.92 116.38 C 129.03 116.44 128.35 117.21 128.40 118.10 C 128.45 118.99 129.22 119.67 130.11 119.62 Z M 130.61 119.59 L 131.77 119.43 C 132.66 119.30 133.28 118.48 133.15 117.60 C 133.03 116.71 132.21 116.09 131.32 116.21 L 130.17 116.37 C 129.28 116.50 128.66 117.32 128.78 118.20 C 128.90 119.09 129.72 119.71 130.61 119.59 Z M 131.87 119.41 L 133.12 119.15 C 134.00 118.97 134.56 118.11 134.38 117.24 C 134.20 116.36 133.35 115.79 132.47 115.97 L 131.22 116.23 C 130.34 116.41 129.78 117.27 129.96 118.15 C 130.14 119.02 131.00 119.59 131.87 119.41 Z M 133.22 119.13 L 134.13 118.88 C 134.99 118.65 135.50 117.76 135.27 116.89 C 135.03 116.03 134.14 115.52 133.28 115.75 L 132.37 116.00 C 131.51 116.23 131.00 117.12 131.23 117.99 C 131.47 118.85 132.36 119.36 133.22 119.13 Z M 134.19 118.86 L 135.13 118.57 C 135.98 118.30 136.45 117.39 136.18 116.53 C 135.91 115.68 135.00 115.21 134.15 115.48 L 133.21 115.77 C 132.36 116.04 131.89 116.95 132.16 117.81 C 132.43 118.66 133.34 119.13 134.19 118.86 Z M 135.17 118.55 L 136.14 118.21 C 136.98 117.91 137.43 116.99 137.13 116.14 C 136.83 115.30 135.91 114.86 135.06 115.15 L 134.10 115.49 C 133.26 115.79 132.81 116.72 133.11 117.56 C 133.41 118.40 134.33 118.85 135.17 118.55 Z M 136.18 118.19 L 137.17 117.82 C 138.01 117.50 138.43 116.57 138.11 115.73 C 137.79 114.89 136.86 114.47 136.02 114.79 L 135.03 115.17 C 134.19 115.49 133.77 116.42 134.09 117.26 C 134.41 118.09 135.34 118.51 136.18 118.19 Z M 137.19 117.81 L 138.07 117.46 C 138.90 117.13 139.30 116.19 138.97 115.36 C 138.64 114.53 137.70 114.12 136.87 114.45 L 136.00 114.80 C 135.17 115.13 134.76 116.07 135.09 116.90 C 135.42 117.73 136.36 118.14 137.19 117.81 Z M 138.09 117.45 L 138.91 117.11 C 139.74 116.76 140.13 115.82 139.79 115.00 C 139.45 114.17 138.50 113.78 137.68 114.12 L 136.85 114.46 C 136.03 114.80 135.64 115.75 135.98 116.57 C 136.32 117.40 137.26 117.79 138.09 117.45 Z M 138.93 117.10 L 139.79 116.73 C 140.61 116.38 140.99 115.43 140.64 114.61 C 140.29 113.79 139.34 113.41 138.52 113.76 L 137.66 114.13 C 136.84 114.48 136.46 115.43 136.81 116.25 C 137.16 117.07 138.11 117.45 138.93 117.10 Z M 139.81 116.72 L 140.72 116.31 C 141.53 115.95 141.89 115.00 141.53 114.18 C 141.17 113.37 140.22 113.01 139.40 113.37 L 138.50 113.77 C 137.68 114.13 137.32 115.09 137.68 115.90 C 138.04 116.71 139.00 117.08 139.81 116.72 Z M 140.73 116.30 L 141.69 115.86 C 142.50 115.49 142.85 114.53 142.48 113.72 C 142.11 112.92 141.15 112.56 140.34 112.94 L 139.38 113.38 C 138.58 113.75 138.22 114.71 138.60 115.52 C 138.97 116.32 139.93 116.68 140.73 116.30 Z M 141.71 115.85 L 142.73 115.36 C 143.54 114.98 143.88 114.02 143.49 113.22 C 143.11 112.41 142.15 112.07 141.35 112.46 L 140.32 112.95 C 139.52 113.33 139.18 114.29 139.57 115.09 C 139.95 115.89 140.91 116.23 141.71 115.85 Z M 142.75 115.35 L 143.71 114.88 C 144.51 114.49 144.84 113.53 144.45 112.73 C 144.06 111.93 143.09 111.60 142.30 111.99 L 141.33 112.47 C 140.54 112.86 140.21 113.82 140.60 114.62 C 140.99 115.41 141.95 115.74 142.75 115.35 Z M 143.72 114.87 L 144.64 114.41 C 145.43 114.02 145.75 113.05 145.36 112.26 C 144.96 111.47 144.00 111.15 143.20 111.54 L 142.29 112.00 C 141.49 112.40 141.17 113.36 141.57 114.16 C 141.97 114.95 142.93 115.27 143.72 114.87 Z M 144.65 114.41 L 145.58 113.93 C 146.37 113.53 146.69 112.57 146.29 111.78 C 145.89 110.99 144.92 110.67 144.13 111.07 L 143.20 111.55 C 142.41 111.95 142.09 112.92 142.49 113.70 C 142.89 114.49 143.86 114.81 144.65 114.41 Z M 145.59 113.93 L 146.53 113.44 C 147.32 113.04 147.63 112.08 147.22 111.29 C 146.82 110.50 145.85 110.19 145.07 110.60 L 144.13 111.08 C 143.34 111.48 143.03 112.45 143.43 113.23 C 143.84 114.02 144.80 114.33 145.59 113.93 Z M 146.53 113.44 L 147.46 112.96 C 148.24 112.55 148.55 111.59 148.14 110.81 C 147.74 110.02 146.77 109.72 145.99 110.12 L 145.06 110.60 C 144.28 111.01 143.97 111.97 144.38 112.75 C 144.79 113.54 145.75 113.84 146.53 113.44 Z M 147.46 112.96 L 148.35 112.49 C 149.14 112.08 149.44 111.12 149.03 110.34 C 148.63 109.56 147.66 109.25 146.88 109.66 L 145.99 110.13 C 145.21 110.53 144.90 111.50 145.31 112.28 C 145.72 113.06 146.68 113.36 147.46 112.96 Z M 148.36 112.49 L 149.20 112.05 C 149.98 111.64 150.28 110.68 149.87 109.90 C 149.46 109.12 148.50 108.82 147.72 109.22 L 146.88 109.66 C 146.10 110.07 145.80 111.03 146.21 111.81 C 146.61 112.59 147.58 112.90 148.36 112.49 Z M 149.20 112.04 L 149.98 111.64 C 150.75 111.23 151.05 110.27 150.65 109.49 C 150.24 108.71 149.28 108.41 148.50 108.82 L 147.72 109.23 C 146.94 109.64 146.64 110.60 147.05 111.37 C 147.46 112.15 148.42 112.45 149.20 112.04 Z M 149.97 111.63 L 151.03 111.08 C 151.80 110.67 152.10 109.72 151.70 108.94 C 151.29 108.17 150.34 107.87 149.56 108.27 L 148.50 108.83 C 147.73 109.23 147.43 110.19 147.84 110.96 C 148.24 111.74 149.20 112.04 149.97 111.63 Z M 151.02 111.07 L 151.93 110.59 C 152.70 110.19 153.00 109.24 152.60 108.48 C 152.19 107.71 151.25 107.41 150.48 107.81 L 149.57 108.28 C 148.80 108.68 148.50 109.63 148.90 110.40 C 149.31 111.17 150.25 111.47 151.02 111.07 Z M 151.92 110.58 L 152.74 110.16 C 153.50 109.76 153.80 108.82 153.41 108.06 C 153.01 107.30 152.07 107.00 151.31 107.39 L 150.49 107.82 C 149.72 108.21 149.42 109.15 149.82 109.92 C 150.22 110.68 151.16 110.98 151.92 110.58 Z M 152.73 110.15 L 153.53 109.74 C 154.29 109.35 154.59 108.42 154.20 107.66 C 153.81 106.90 152.88 106.60 152.12 106.99 L 151.32 107.40 C 150.56 107.79 150.26 108.72 150.65 109.48 C 151.04 110.24 151.97 110.54 152.73 110.15 Z M 153.52 109.73 L 154.33 109.32 C 155.09 108.93 155.39 108.01 155.00 107.26 C 154.62 106.50 153.70 106.20 152.94 106.58 L 152.13 107.00 C 151.37 107.38 151.07 108.31 151.46 109.06 C 151.84 109.82 152.77 110.12 153.52 109.73 Z M 154.32 109.31 L 155.09 108.93 C 155.84 108.55 156.14 107.63 155.76 106.88 C 155.38 106.13 154.46 105.82 153.71 106.20 L 152.95 106.59 C 152.20 106.97 151.89 107.89 152.27 108.64 C 152.65 109.39 153.57 109.69 154.32 109.31 Z M 155.08 108.93 L 155.91 108.52 C 156.66 108.14 156.96 107.23 156.59 106.48 C 156.21 105.72 155.30 105.42 154.55 105.79 L 153.72 106.20 C 152.97 106.58 152.66 107.49 153.04 108.25 C 153.41 109.00 154.33 109.30 155.08 108.93 Z M 155.89 108.52 L 156.78 108.08 C 157.54 107.72 157.85 106.81 157.48 106.05 C 157.11 105.30 156.20 104.99 155.45 105.36 L 154.56 105.79 C 153.81 106.16 153.49 107.07 153.86 107.82 C 154.23 108.58 155.14 108.89 155.89 108.52 Z M 156.77 108.09 L 157.72 107.63 C 158.48 107.27 158.80 106.36 158.43 105.61 C 158.07 104.85 157.17 104.54 156.41 104.90 L 155.46 105.35 C 154.71 105.71 154.39 106.62 154.75 107.37 C 155.11 108.13 156.02 108.45 156.77 108.09 Z M 157.71 107.63 L 158.72 107.16 C 159.48 106.81 159.80 105.91 159.45 105.15 C 159.10 104.40 158.20 104.07 157.44 104.42 L 156.43 104.89 C 155.67 105.25 155.35 106.15 155.70 106.90 C 156.05 107.66 156.95 107.99 157.71 107.63 Z M 158.70 107.16 L 159.71 106.71 C 160.47 106.36 160.80 105.47 160.46 104.71 C 160.11 103.95 159.22 103.62 158.46 103.96 L 157.46 104.42 C 156.70 104.76 156.37 105.66 156.71 106.41 C 157.05 107.17 157.95 107.51 158.70 107.16 Z M 159.69 106.71 L 160.63 106.29 C 161.39 105.96 161.73 105.07 161.39 104.31 C 161.06 103.55 160.17 103.21 159.41 103.55 L 158.48 103.96 C 157.72 104.30 157.38 105.18 157.71 105.94 C 158.05 106.70 158.93 107.04 159.69 106.71 Z M 160.61 106.29 L 161.57 105.88 C 162.33 105.55 162.68 104.67 162.35 103.91 C 162.02 103.16 161.14 102.81 160.39 103.13 L 159.43 103.55 C 158.67 103.88 158.32 104.75 158.65 105.51 C 158.98 106.27 159.86 106.62 160.61 106.29 Z M 161.56 105.88 L 162.52 105.47 C 163.27 105.15 163.63 104.28 163.31 103.52 C 162.99 102.77 162.12 102.41 161.36 102.73 L 160.40 103.13 C 159.64 103.45 159.29 104.33 159.61 105.08 C 159.93 105.84 160.80 106.20 161.56 105.88 Z M 162.50 105.47 L 163.45 105.08 C 164.21 104.77 164.57 103.91 164.26 103.15 C 163.95 102.39 163.08 102.03 162.33 102.34 L 161.38 102.73 C 160.62 103.04 160.26 103.91 160.57 104.66 C 160.88 105.42 161.74 105.78 162.50 105.47 Z M 163.43 105.08 L 164.35 104.72 C 165.11 104.42 165.48 103.56 165.18 102.80 C 164.88 102.05 164.02 101.68 163.26 101.98 L 162.34 102.34 C 161.59 102.64 161.22 103.50 161.52 104.26 C 161.82 105.01 162.67 105.38 163.43 105.08 Z M 164.33 104.72 L 165.21 104.38 C 165.96 104.09 166.34 103.25 166.05 102.49 C 165.76 101.73 164.91 101.35 164.16 101.64 L 163.28 101.98 C 162.52 102.27 162.14 103.12 162.43 103.87 C 162.72 104.63 163.57 105.01 164.33 104.72 Z M 165.18 104.39 L 166.16 104.04 C 166.93 103.76 167.32 102.92 167.04 102.15 C 166.77 101.39 165.92 101.00 165.16 101.28 L 164.18 101.63 C 163.42 101.91 163.02 102.75 163.30 103.51 C 163.58 104.28 164.42 104.67 165.18 104.39 Z M 166.14 104.06 L 167.20 103.70 C 167.97 103.44 168.39 102.60 168.13 101.83 C 167.87 101.05 167.03 100.63 166.25 100.89 L 165.19 101.25 C 164.41 101.51 164.00 102.35 164.26 103.13 C 164.52 103.90 165.36 104.32 166.14 104.06 Z M 167.17 103.74 L 168.13 103.44 C 168.92 103.20 169.37 102.35 169.12 101.56 C 168.88 100.77 168.03 100.32 167.24 100.57 L 166.28 100.86 C 165.49 101.11 165.04 101.95 165.29 102.74 C 165.53 103.54 166.37 103.98 167.17 103.74 Z M 168.10 103.47 L 168.99 103.22 C 169.80 102.99 170.27 102.14 170.04 101.33 C 169.81 100.52 168.96 100.05 168.15 100.28 L 167.26 100.54 C 166.45 100.77 165.99 101.61 166.22 102.42 C 166.45 103.23 167.29 103.70 168.10 103.47 Z M 168.98 103.24 L 169.83 103.01 C 170.65 102.79 171.14 101.94 170.91 101.12 C 170.69 100.29 169.84 99.80 169.02 100.03 L 168.17 100.26 C 167.34 100.48 166.86 101.33 167.08 102.15 C 167.30 102.98 168.15 103.47 168.98 103.24 Z M 169.82 103.03 L 170.04 102.97 C 170.87 102.75 171.37 101.89 171.15 101.06 C 170.93 100.23 170.07 99.73 169.24 99.95 L 169.02 100.01 C 168.19 100.23 167.69 101.09 167.91 101.92 C 168.14 102.75 168.99 103.25 169.82 103.03 Z"
      fill="black"
      fill-rule="nonzero" /><path d="M 136.32 134.08 L 137.28 134.15 C 138.12 134.22 138.86 133.58 138.92 132.74 C 138.98 131.89 138.35 131.16 137.51 131.09 L 136.55 131.02 C 135.70 130.96 134.97 131.59 134.90 132.43 C 134.84 133.28 135.47 134.02 136.32 134.08 Z M 137.32 134.15 L 138.30 134.20 C 139.14 134.24 139.86 133.59 139.90 132.74 C 139.94 131.90 139.29 131.18 138.44 131.14 L 137.46 131.09 C 136.62 131.05 135.90 131.70 135.86 132.55 C 135.82 133.40 136.47 134.11 137.32 134.15 Z M 138.38 134.20 L 139.40 134.20 C 140.25 134.20 140.93 133.51 140.93 132.66 C 140.93 131.81 140.24 131.13 139.39 131.13 L 138.37 131.14 C 137.52 131.14 136.83 131.83 136.84 132.67 C 136.84 133.52 137.53 134.21 138.38 134.20 Z M 139.50 134.19 L 140.48 134.13 C 141.33 134.07 141.96 133.34 141.91 132.49 C 141.85 131.65 141.11 131.01 140.27 131.07 L 139.29 131.13 C 138.44 131.19 137.81 131.93 137.87 132.77 C 137.92 133.62 138.66 134.25 139.50 134.19 Z M 140.57 134.12 L 141.51 133.99 C 142.35 133.88 142.94 133.11 142.83 132.27 C 142.72 131.44 141.95 130.84 141.11 130.95 L 140.18 131.08 C 139.34 131.19 138.75 131.96 138.86 132.80 C 138.97 133.64 139.74 134.23 140.57 134.12 Z M 141.59 133.98 L 142.57 133.80 C 143.40 133.65 143.95 132.85 143.80 132.01 C 143.65 131.18 142.85 130.63 142.01 130.79 L 141.03 130.97 C 140.20 131.12 139.65 131.92 139.81 132.75 C 139.96 133.58 140.76 134.13 141.59 133.98 Z M 142.64 133.78 L 143.66 133.54 C 144.49 133.35 145.00 132.52 144.80 131.70 C 144.61 130.88 143.78 130.37 142.96 130.56 L 141.94 130.80 C 141.12 131.00 140.61 131.82 140.80 132.64 C 141.00 133.47 141.82 133.98 142.64 133.78 Z M 143.73 133.52 L 144.73 133.24 C 145.54 133.01 146.02 132.17 145.79 131.35 C 145.56 130.54 144.71 130.07 143.90 130.30 L 142.90 130.58 C 142.08 130.81 141.61 131.66 141.84 132.47 C 142.07 133.28 142.91 133.75 143.73 133.52 Z M 144.78 133.22 L 145.69 132.93 C 146.49 132.67 146.93 131.81 146.67 131.01 C 146.41 130.20 145.55 129.76 144.75 130.02 L 143.84 130.32 C 143.04 130.58 142.60 131.44 142.86 132.24 C 143.12 133.04 143.98 133.48 144.78 133.22 Z M 145.73 132.91 L 146.65 132.58 C 147.44 132.30 147.86 131.42 147.57 130.63 C 147.29 129.84 146.41 129.43 145.62 129.71 L 144.70 130.04 C 143.91 130.33 143.50 131.20 143.78 131.99 C 144.06 132.79 144.94 133.20 145.73 132.91 Z M 146.69 132.57 L 147.63 132.20 C 148.41 131.89 148.80 131.01 148.49 130.23 C 148.19 129.44 147.30 129.06 146.52 129.36 L 145.58 129.73 C 144.80 130.03 144.41 130.92 144.72 131.70 C 145.02 132.48 145.91 132.87 146.69 132.57 Z M 147.66 132.18 L 148.62 131.78 C 149.39 131.46 149.76 130.56 149.43 129.79 C 149.11 129.02 148.22 128.65 147.44 128.98 L 146.49 129.38 C 145.71 129.70 145.35 130.59 145.67 131.37 C 146.00 132.14 146.89 132.51 147.66 132.18 Z M 148.65 131.77 L 149.62 131.33 C 150.38 130.99 150.73 130.10 150.38 129.33 C 150.04 128.56 149.15 128.22 148.38 128.56 L 147.41 128.99 C 146.65 129.33 146.30 130.23 146.65 131.00 C 146.99 131.76 147.88 132.11 148.65 131.77 Z M 149.64 131.32 L 150.59 130.87 C 151.35 130.52 151.67 129.62 151.32 128.86 C 150.96 128.10 150.06 127.78 149.31 128.13 L 148.36 128.58 C 147.60 128.93 147.27 129.83 147.63 130.59 C 147.98 131.35 148.88 131.67 149.64 131.32 Z M 150.61 130.86 L 151.55 130.40 C 152.30 130.03 152.61 129.13 152.24 128.38 C 151.88 127.64 150.98 127.32 150.23 127.69 L 149.29 128.15 C 148.54 128.51 148.23 129.41 148.59 130.16 C 148.96 130.91 149.86 131.22 150.61 130.86 Z M 151.56 130.39 L 152.48 129.93 C 153.22 129.55 153.52 128.65 153.14 127.91 C 152.77 127.17 151.87 126.87 151.13 127.24 L 150.21 127.70 C 149.47 128.08 149.18 128.98 149.55 129.72 C 149.92 130.46 150.82 130.76 151.56 130.39 Z M 152.49 129.91 L 153.35 129.47 C 154.09 129.09 154.38 128.19 154.00 127.45 C 153.62 126.72 152.72 126.43 151.98 126.81 L 151.12 127.26 C 150.38 127.64 150.10 128.54 150.47 129.27 C 150.85 130.00 151.75 130.29 152.49 129.91 Z M 153.36 129.46 L 154.16 129.03 C 154.89 128.65 155.17 127.75 154.79 127.02 C 154.40 126.29 153.50 126.02 152.77 126.40 L 151.97 126.82 C 151.25 127.20 150.97 128.11 151.35 128.83 C 151.74 129.56 152.64 129.84 153.36 129.46 Z M 154.17 129.02 L 154.98 128.58 C 155.70 128.19 155.97 127.30 155.58 126.58 C 155.19 125.86 154.29 125.59 153.57 125.98 L 152.76 126.41 C 152.04 126.80 151.78 127.70 152.16 128.42 C 152.55 129.14 153.45 129.41 154.17 129.02 Z M 154.99 128.57 L 155.77 128.13 C 156.48 127.74 156.73 126.84 156.34 126.13 C 155.94 125.42 155.05 125.17 154.34 125.56 L 153.56 125.99 C 152.85 126.39 152.60 127.29 152.99 128.00 C 153.39 128.71 154.28 128.96 154.99 128.57 Z M 155.78 128.12 L 156.59 127.65 C 157.30 127.24 157.54 126.35 157.13 125.65 C 156.73 124.95 155.84 124.71 155.14 125.11 L 154.32 125.58 C 153.62 125.98 153.38 126.88 153.79 127.58 C 154.19 128.28 155.08 128.52 155.78 128.12 Z M 156.61 127.63 L 157.53 127.08 C 158.22 126.68 158.45 125.78 158.04 125.09 C 157.63 124.40 156.74 124.17 156.05 124.58 L 155.12 125.13 C 154.43 125.54 154.21 126.43 154.61 127.12 C 155.02 127.81 155.92 128.04 156.61 127.63 Z M 157.53 127.07 L 158.48 126.50 C 159.17 126.09 159.39 125.20 158.97 124.52 C 158.56 123.83 157.67 123.61 156.99 124.02 L 156.04 124.60 C 155.36 125.01 155.14 125.90 155.55 126.58 C 155.96 127.26 156.85 127.48 157.53 127.07 Z M 158.48 126.49 L 159.19 126.07 C 159.87 125.65 160.08 124.77 159.67 124.09 C 159.26 123.41 158.37 123.19 157.69 123.60 L 156.99 124.03 C 156.31 124.44 156.09 125.33 156.50 126.01 C 156.92 126.69 157.80 126.91 158.48 126.49 Z M 159.19 126.06 L 159.95 125.60 C 160.63 125.18 160.85 124.30 160.43 123.62 C 160.02 122.94 159.13 122.73 158.45 123.14 L 157.69 123.61 C 157.01 124.02 156.79 124.91 157.21 125.59 C 157.62 126.26 158.51 126.48 159.19 126.06 Z M 159.95 125.59 L 160.77 125.09 C 161.45 124.68 161.66 123.79 161.25 123.12 C 160.83 122.44 159.95 122.23 159.27 122.64 L 158.45 123.14 C 157.77 123.56 157.56 124.44 157.98 125.12 C 158.39 125.80 159.28 126.01 159.95 125.59 Z M 160.77 125.09 L 161.64 124.56 C 162.31 124.14 162.53 123.26 162.11 122.58 C 161.70 121.91 160.81 121.70 160.13 122.11 L 159.27 122.64 C 158.59 123.06 158.38 123.94 158.80 124.62 C 159.21 125.29 160.10 125.51 160.77 125.09 Z M 161.64 124.56 L 162.54 124.00 C 163.21 123.59 163.42 122.71 163.01 122.03 C 162.59 121.36 161.71 121.15 161.04 121.56 L 160.13 122.11 C 159.46 122.53 159.25 123.41 159.66 124.09 C 160.08 124.76 160.96 124.97 161.64 124.56 Z M 162.54 124.00 L 163.47 123.43 C 164.14 123.02 164.35 122.13 163.93 121.46 C 163.52 120.79 162.64 120.58 161.96 120.99 L 161.04 121.56 C 160.36 121.98 160.15 122.86 160.57 123.53 C 160.98 124.21 161.86 124.42 162.54 124.00 Z M 163.47 123.43 L 164.41 122.85 C 165.08 122.43 165.29 121.55 164.88 120.88 C 164.46 120.20 163.58 119.99 162.91 120.41 L 161.96 120.99 C 161.29 121.41 161.08 122.29 161.50 122.96 C 161.91 123.64 162.79 123.84 163.47 123.43 Z M 164.41 122.85 L 165.36 122.26 C 166.04 121.84 166.24 120.96 165.83 120.29 C 165.42 119.62 164.53 119.41 163.86 119.82 L 162.91 120.41 C 162.24 120.83 162.03 121.71 162.44 122.38 C 162.86 123.05 163.74 123.26 164.41 122.85 Z"
      fill="black"
      fill-rule="nonzero" /><path d="M 109.73 153.14 L 108.41 153.36 C 107.58 153.49 107.01 154.28 107.15 155.11 C 107.29 155.94 108.07 156.50 108.90 156.36 L 110.22 156.15 C 111.05 156.01 111.62 155.23 111.48 154.40 C 111.34 153.57 110.56 153.00 109.73 153.14 Z M 108.40 153.34 L 107.17 153.55 C 106.33 153.69 105.76 154.48 105.90 155.32 C 106.04 156.16 106.84 156.72 107.67 156.58 L 108.91 156.38 C 109.74 156.24 110.31 155.44 110.17 154.61 C 110.03 153.77 109.24 153.20 108.40 153.34 Z M 107.15 153.54 L 106.10 153.72 C 105.25 153.87 104.69 154.68 104.84 155.52 C 104.99 156.37 105.79 156.93 106.64 156.78 L 107.69 156.60 C 108.54 156.45 109.10 155.64 108.95 154.80 C 108.80 153.95 108.00 153.39 107.15 153.54 Z M 106.06 153.71 L 105.29 153.87 C 104.44 154.03 103.88 154.86 104.05 155.71 C 104.22 156.56 105.05 157.11 105.90 156.94 L 106.67 156.79 C 107.52 156.62 108.08 155.80 107.91 154.95 C 107.74 154.10 106.92 153.54 106.06 153.71 Z M 105.17 153.88 L 104.74 154.00 C 103.90 154.23 103.40 155.10 103.64 155.94 C 103.87 156.79 104.74 157.28 105.58 157.05 L 106.01 156.93 C 106.85 156.70 107.35 155.83 107.12 154.99 C 106.89 154.14 106.01 153.65 105.17 153.88 Z M 104.56 157.00 L 104.72 157.06 C 105.53 157.39 106.46 157.00 106.79 156.19 C 107.13 155.37 106.73 154.44 105.92 154.11 L 105.76 154.04 C 104.95 153.71 104.02 154.11 103.69 154.92 C 103.35 155.74 103.75 156.67 104.56 157.00 Z M 105.44 157.18 L 106.31 157.12 C 107.19 157.05 107.85 156.28 107.79 155.39 C 107.72 154.51 106.95 153.85 106.06 153.92 L 105.19 153.99 C 104.31 154.05 103.65 154.82 103.72 155.71 C 103.79 156.59 104.56 157.25 105.44 157.18 Z M 106.43 157.11 L 107.89 156.89 C 108.77 156.76 109.38 155.93 109.24 155.05 C 109.11 154.17 108.29 153.57 107.41 153.70 L 105.94 153.92 C 105.06 154.06 104.46 154.88 104.59 155.76 C 104.73 156.64 105.55 157.24 106.43 157.11 Z M 107.96 156.88 L 109.12 156.66 C 109.99 156.48 110.56 155.63 110.39 154.76 C 110.22 153.88 109.37 153.31 108.49 153.48 L 107.34 153.71 C 106.46 153.88 105.89 154.73 106.06 155.61 C 106.23 156.48 107.08 157.05 107.96 156.88 Z M 109.15 156.65 L 110.10 156.44 C 110.97 156.25 111.52 155.39 111.33 154.51 C 111.14 153.64 110.27 153.09 109.40 153.28 L 108.46 153.49 C 107.58 153.68 107.03 154.54 107.22 155.42 C 107.42 156.29 108.28 156.84 109.15 156.65 Z M 110.12 156.44 L 111.11 156.21 C 111.98 156.00 112.52 155.13 112.32 154.25 C 112.11 153.38 111.24 152.84 110.37 153.05 L 109.37 153.28 C 108.50 153.49 107.96 154.36 108.17 155.23 C 108.37 156.10 109.25 156.64 110.12 156.44 Z M 111.13 156.20 L 112.15 155.95 C 113.02 155.74 113.55 154.86 113.33 153.99 C 113.12 153.12 112.24 152.58 111.37 152.80 L 110.35 153.05 C 109.48 153.27 108.95 154.15 109.16 155.02 C 109.38 155.89 110.26 156.42 111.13 156.20 Z M 112.16 155.95 L 113.18 155.69 C 114.05 155.47 114.58 154.58 114.36 153.71 C 114.13 152.84 113.25 152.32 112.38 152.54 L 111.36 152.80 C 110.49 153.02 109.96 153.91 110.18 154.78 C 110.41 155.65 111.29 156.17 112.16 155.95 Z M 113.20 155.69 L 114.20 155.42 C 115.07 155.19 115.59 154.31 115.36 153.44 C 115.13 152.57 114.24 152.05 113.37 152.28 L 112.37 152.54 C 111.50 152.77 110.98 153.66 111.21 154.53 C 111.44 155.39 112.33 155.91 113.20 155.69 Z M 114.21 155.42 L 115.17 155.16 C 116.04 154.93 116.55 154.04 116.32 153.17 C 116.09 152.30 115.20 151.79 114.33 152.02 L 113.37 152.28 C 112.50 152.51 111.98 153.40 112.22 154.27 C 112.45 155.14 113.34 155.65 114.21 155.42 Z M 115.18 155.16 L 116.13 154.91 C 117.00 154.67 117.51 153.77 117.27 152.91 C 117.04 152.04 116.14 151.53 115.28 151.76 L 114.32 152.02 C 113.45 152.26 112.94 153.15 113.18 154.02 C 113.41 154.89 114.31 155.40 115.18 155.16 Z M 116.14 154.90 L 117.28 154.59 C 118.15 154.35 118.66 153.45 118.42 152.59 C 118.18 151.72 117.28 151.21 116.41 151.45 L 115.27 151.76 C 114.40 152.00 113.89 152.90 114.13 153.77 C 114.37 154.63 115.27 155.14 116.14 154.90 Z M 117.28 154.59 L 118.29 154.31 C 119.16 154.06 119.67 153.17 119.43 152.30 C 119.18 151.43 118.28 150.92 117.42 151.17 L 116.41 151.45 C 115.54 151.69 115.03 152.59 115.28 153.46 C 115.52 154.32 116.42 154.83 117.28 154.59 Z M 118.30 154.31 L 119.21 154.05 C 120.08 153.80 120.59 152.90 120.34 152.04 C 120.10 151.17 119.20 150.67 118.33 150.91 L 117.41 151.17 C 116.55 151.41 116.04 152.31 116.29 153.18 C 116.53 154.05 117.43 154.55 118.30 154.31 Z M 119.22 154.05 L 120.08 153.80 C 120.95 153.56 121.45 152.66 121.20 151.79 C 120.96 150.92 120.06 150.42 119.19 150.67 L 118.33 150.91 C 117.46 151.15 116.96 152.06 117.20 152.92 C 117.45 153.79 118.35 154.29 119.22 154.05 Z M 120.08 153.80 L 120.93 153.57 C 121.79 153.32 122.30 152.42 122.05 151.55 C 121.81 150.69 120.91 150.18 120.04 150.43 L 119.19 150.66 C 118.33 150.91 117.82 151.81 118.07 152.68 C 118.31 153.54 119.21 154.05 120.08 153.80 Z M 120.92 153.57 L 121.84 153.31 C 122.71 153.07 123.22 152.17 122.98 151.30 C 122.74 150.43 121.84 149.93 120.97 150.17 L 120.05 150.42 C 119.18 150.67 118.67 151.56 118.91 152.43 C 119.15 153.30 120.05 153.81 120.92 153.57 Z M 121.84 153.31 L 122.79 153.05 C 123.66 152.81 124.17 151.91 123.93 151.04 C 123.69 150.17 122.79 149.66 121.92 149.90 L 120.97 150.17 C 120.10 150.41 119.59 151.31 119.83 152.17 C 120.07 153.04 120.97 153.55 121.84 153.31 Z M 122.79 153.05 L 123.76 152.78 C 124.63 152.54 125.14 151.64 124.90 150.77 C 124.66 149.90 123.76 149.39 122.89 149.63 L 121.92 149.90 C 121.05 150.14 120.55 151.04 120.79 151.91 C 121.03 152.78 121.93 153.29 122.79 153.05 Z M 123.77 152.78 L 124.75 152.51 C 125.62 152.26 126.12 151.36 125.88 150.49 C 125.64 149.63 124.74 149.12 123.87 149.36 L 122.89 149.64 C 122.02 149.88 121.51 150.78 121.76 151.65 C 122.00 152.52 122.90 153.02 123.77 152.78 Z M 124.76 152.50 L 125.74 152.23 C 126.61 151.98 127.11 151.08 126.86 150.21 C 126.62 149.34 125.71 148.84 124.84 149.08 L 123.86 149.36 C 122.99 149.61 122.49 150.51 122.74 151.38 C 122.98 152.25 123.89 152.75 124.76 152.50 Z M 125.75 152.22 L 126.70 151.94 C 127.57 151.69 128.07 150.79 127.82 149.92 C 127.57 149.05 126.66 148.56 125.79 148.81 L 124.84 149.09 C 123.97 149.34 123.47 150.24 123.72 151.11 C 123.97 151.98 124.88 152.48 125.75 152.22 Z M 126.71 151.94 L 127.67 151.66 C 128.53 151.40 129.03 150.50 128.77 149.63 C 128.51 148.76 127.60 148.27 126.74 148.53 L 125.78 148.81 C 124.92 149.07 124.43 149.97 124.68 150.84 C 124.94 151.71 125.85 152.20 126.71 151.94 Z M 127.67 151.66 L 128.63 151.37 C 129.49 151.12 129.98 150.21 129.72 149.34 C 129.47 148.48 128.56 147.98 127.69 148.24 L 126.73 148.53 C 125.87 148.79 125.38 149.70 125.64 150.56 C 125.89 151.43 126.81 151.92 127.67 151.66 Z M 128.63 151.37 L 129.59 151.09 C 130.45 150.83 130.94 149.92 130.68 149.05 C 130.42 148.19 129.51 147.69 128.65 147.95 L 127.69 148.24 C 126.82 148.50 126.33 149.41 126.59 150.28 C 126.85 151.14 127.76 151.63 128.63 151.37 Z M 129.59 151.09 L 130.55 150.80 C 131.42 150.54 131.91 149.63 131.65 148.76 C 131.39 147.90 130.48 147.41 129.62 147.66 L 128.65 147.95 C 127.78 148.21 127.29 149.12 127.55 149.99 C 127.81 150.85 128.72 151.35 129.59 151.09 Z M 130.55 150.80 L 131.49 150.52 C 132.36 150.27 132.85 149.36 132.59 148.49 C 132.34 147.62 131.43 147.13 130.56 147.38 L 129.62 147.66 C 128.75 147.92 128.26 148.83 128.52 149.70 C 128.77 150.56 129.68 151.06 130.55 150.80 Z M 131.49 150.52 L 132.43 150.24 C 133.30 149.99 133.80 149.08 133.54 148.22 C 133.29 147.35 132.38 146.85 131.52 147.11 L 130.57 147.38 C 129.70 147.64 129.20 148.55 129.46 149.41 C 129.71 150.28 130.62 150.78 131.49 150.52 Z M 132.43 150.25 L 133.39 149.97 C 134.26 149.72 134.76 148.81 134.50 147.94 C 134.25 147.07 133.35 146.58 132.48 146.83 L 131.52 147.11 C 130.65 147.36 130.15 148.26 130.40 149.13 C 130.66 150.00 131.56 150.50 132.43 150.25 Z M 133.38 149.97 L 134.35 149.69 C 135.22 149.44 135.72 148.54 135.47 147.67 C 135.22 146.80 134.32 146.30 133.45 146.55 L 132.48 146.83 C 131.62 147.08 131.11 147.98 131.36 148.85 C 131.61 149.72 132.52 150.22 133.38 149.97 Z M 134.35 149.69 L 135.33 149.41 C 136.20 149.17 136.70 148.26 136.45 147.39 C 136.21 146.53 135.30 146.02 134.43 146.27 L 133.46 146.55 C 132.59 146.79 132.08 147.70 132.33 148.57 C 132.58 149.43 133.48 149.94 134.35 149.69 Z M 135.32 149.41 L 136.28 149.14 C 137.15 148.90 137.65 148.00 137.41 147.13 C 137.16 146.26 136.26 145.76 135.39 146.00 L 134.44 146.27 C 133.57 146.51 133.06 147.42 133.31 148.28 C 133.55 149.15 134.46 149.66 135.32 149.41 Z M 136.27 149.14 L 137.22 148.88 C 138.09 148.64 138.60 147.73 138.36 146.87 C 138.11 146.00 137.21 145.49 136.34 145.73 L 135.39 146.00 C 134.53 146.24 134.02 147.14 134.26 148.01 C 134.51 148.88 135.41 149.39 136.27 149.14 Z M 137.22 148.88 L 138.18 148.61 C 139.05 148.37 139.56 147.47 139.31 146.60 C 139.07 145.73 138.17 145.22 137.30 145.47 L 136.34 145.74 C 135.47 145.98 134.97 146.88 135.21 147.75 C 135.45 148.62 136.36 149.12 137.22 148.88 Z M 138.18 148.61 L 139.15 148.34 C 140.02 148.09 140.52 147.19 140.28 146.32 C 140.03 145.45 139.13 144.95 138.26 145.20 L 137.30 145.47 C 136.43 145.71 135.93 146.61 136.17 147.48 C 136.42 148.35 137.32 148.85 138.18 148.61 Z M 139.16 148.33 L 140.13 148.05 C 141.00 147.81 141.50 146.90 141.25 146.04 C 141.00 145.17 140.10 144.67 139.23 144.92 L 138.26 145.20 C 137.39 145.44 136.89 146.35 137.14 147.21 C 137.39 148.08 138.29 148.58 139.16 148.33 Z M 140.14 148.05 L 141.11 147.77 C 141.97 147.52 142.47 146.61 142.22 145.75 C 141.97 144.88 141.06 144.39 140.20 144.64 L 139.23 144.92 C 138.36 145.17 137.86 146.08 138.12 146.94 C 138.37 147.81 139.27 148.30 140.14 148.05 Z M 141.12 147.76 L 142.06 147.49 C 142.92 147.23 143.41 146.32 143.16 145.46 C 142.90 144.60 141.99 144.11 141.13 144.36 L 140.19 144.64 C 139.33 144.90 138.84 145.80 139.09 146.67 C 139.35 147.53 140.25 148.02 141.12 147.76 Z M 142.06 147.48 L 143.01 147.20 C 143.87 146.94 144.36 146.03 144.10 145.17 C 143.84 144.31 142.93 143.82 142.07 144.08 L 141.13 144.37 C 140.27 144.63 139.78 145.53 140.04 146.39 C 140.30 147.25 141.20 147.74 142.06 147.48 Z M 143.01 147.19 L 143.97 146.90 C 144.83 146.64 145.31 145.74 145.05 144.88 C 144.79 144.02 143.89 143.54 143.03 143.80 L 142.07 144.09 C 141.21 144.35 140.73 145.25 140.99 146.11 C 141.25 146.97 142.16 147.45 143.01 147.19 Z M 143.97 146.90 L 144.93 146.61 C 145.79 146.35 146.27 145.44 146.01 144.59 C 145.75 143.73 144.85 143.25 143.99 143.51 L 143.03 143.80 C 142.17 144.06 141.69 144.97 141.95 145.82 C 142.21 146.68 143.11 147.16 143.97 146.90 Z M 144.93 146.60 L 145.90 146.31 C 146.76 146.05 147.24 145.14 146.98 144.29 C 146.72 143.44 145.82 142.96 144.96 143.21 L 143.99 143.51 C 143.14 143.77 142.66 144.67 142.92 145.53 C 143.18 146.38 144.08 146.86 144.93 146.60 Z M 145.90 146.31 L 146.86 146.02 C 147.71 145.76 148.19 144.86 147.93 144.00 C 147.68 143.15 146.78 142.67 145.92 142.93 L 144.97 143.22 C 144.11 143.47 143.63 144.38 143.89 145.23 C 144.15 146.08 145.05 146.56 145.90 146.31 Z M 146.85 146.01 L 147.79 145.73 C 148.64 145.48 149.12 144.58 148.87 143.73 C 148.61 142.88 147.71 142.39 146.86 142.65 L 145.93 142.93 C 145.08 143.19 144.59 144.08 144.85 144.94 C 145.10 145.79 146.00 146.27 146.85 146.01 Z M 147.78 145.73 L 148.73 145.45 C 149.58 145.19 150.06 144.30 149.80 143.45 C 149.55 142.60 148.66 142.12 147.81 142.37 L 146.86 142.65 C 146.01 142.91 145.53 143.80 145.78 144.65 C 146.04 145.50 146.93 145.98 147.78 145.73 Z M 148.72 145.45 L 149.68 145.16 C 150.53 144.91 151.01 144.01 150.76 143.17 C 150.50 142.32 149.61 141.83 148.76 142.09 L 147.81 142.37 C 146.96 142.63 146.48 143.52 146.73 144.37 C 146.98 145.22 147.88 145.70 148.72 145.45 Z M 149.68 145.16 L 150.64 144.87 C 151.49 144.62 151.97 143.72 151.72 142.88 C 151.47 142.03 150.57 141.55 149.73 141.80 L 148.76 142.09 C 147.91 142.34 147.43 143.24 147.69 144.08 C 147.94 144.93 148.83 145.41 149.68 145.16 Z M 150.64 144.87 L 151.62 144.57 C 152.47 144.32 152.95 143.43 152.70 142.58 C 152.44 141.74 151.55 141.26 150.71 141.51 L 149.73 141.81 C 148.88 142.06 148.40 142.95 148.66 143.79 C 148.91 144.64 149.80 145.12 150.64 144.87 Z M 151.63 144.57 L 152.61 144.27 C 153.45 144.02 153.93 143.13 153.68 142.29 C 153.42 141.44 152.53 140.97 151.69 141.22 L 150.71 141.52 C 149.86 141.77 149.39 142.66 149.64 143.50 C 149.89 144.34 150.78 144.82 151.63 144.57 Z M 152.61 144.27 L 153.57 143.98 C 154.41 143.72 154.89 142.84 154.64 142.00 C 154.38 141.16 153.50 140.68 152.66 140.93 L 151.69 141.22 C 150.85 141.48 150.38 142.37 150.63 143.21 C 150.88 144.05 151.77 144.52 152.61 144.27 Z M 153.57 143.97 L 154.55 143.68 C 155.38 143.43 155.86 142.54 155.60 141.70 C 155.35 140.86 154.47 140.39 153.63 140.64 L 152.66 140.94 C 151.82 141.19 151.34 142.08 151.60 142.91 C 151.85 143.75 152.74 144.23 153.57 143.97 Z M 154.54 143.68 L 155.52 143.38 C 156.35 143.13 156.83 142.25 156.57 141.41 C 156.32 140.57 155.44 140.10 154.60 140.35 L 153.63 140.65 C 152.79 140.90 152.32 141.78 152.57 142.62 C 152.82 143.45 153.71 143.93 154.54 143.68 Z M 155.51 143.38 L 156.48 143.09 C 157.31 142.84 157.79 141.96 157.53 141.12 C 157.28 140.29 156.40 139.82 155.57 140.07 L 154.60 140.36 C 153.77 140.61 153.30 141.49 153.55 142.32 C 153.80 143.16 154.68 143.63 155.51 143.38 Z M 156.47 143.09 L 157.42 142.80 C 158.26 142.55 158.73 141.68 158.48 140.84 C 158.23 140.01 157.36 139.54 156.52 139.79 L 155.57 140.07 C 154.74 140.32 154.27 141.19 154.51 142.03 C 154.76 142.86 155.64 143.33 156.47 143.09 Z M 157.42 142.80 L 158.35 142.53 C 159.18 142.28 159.66 141.41 159.41 140.57 C 159.17 139.74 158.29 139.27 157.46 139.51 L 156.53 139.79 C 155.70 140.03 155.22 140.91 155.47 141.74 C 155.71 142.57 156.59 143.05 157.42 142.80 Z M 158.34 142.52 L 159.35 142.23 C 160.18 141.99 160.65 141.12 160.41 140.29 C 160.17 139.46 159.30 138.98 158.47 139.22 L 157.47 139.51 C 156.64 139.76 156.16 140.63 156.40 141.46 C 156.64 142.29 157.51 142.76 158.34 142.52 Z M 159.34 142.23 L 160.33 141.95 C 161.16 141.71 161.64 140.84 161.40 140.02 C 161.17 139.19 160.30 138.71 159.47 138.94 L 158.48 139.23 C 157.65 139.46 157.17 140.33 157.41 141.16 C 157.64 141.99 158.51 142.47 159.34 142.23 Z M 160.32 141.94 L 161.29 141.67 C 162.12 141.44 162.60 140.58 162.37 139.75 C 162.13 138.92 161.27 138.44 160.44 138.67 L 159.48 138.95 C 158.65 139.18 158.17 140.04 158.40 140.87 C 158.64 141.69 159.50 142.18 160.32 141.94 Z M 161.28 141.67 L 162.23 141.40 C 163.06 141.17 163.54 140.32 163.31 139.49 C 163.08 138.66 162.22 138.18 161.39 138.41 L 160.45 138.68 C 159.62 138.91 159.14 139.76 159.37 140.59 C 159.60 141.42 160.46 141.90 161.28 141.67 Z M 162.23 141.40 L 163.16 141.14 C 163.98 140.91 164.46 140.06 164.23 139.23 C 164.01 138.41 163.15 137.93 162.33 138.16 L 161.40 138.42 C 160.57 138.65 160.09 139.50 160.32 140.32 C 160.55 141.15 161.40 141.63 162.23 141.40 Z M 163.16 141.14 L 164.09 140.88 C 164.91 140.65 165.39 139.80 165.16 138.98 C 164.93 138.15 164.08 137.67 163.26 137.90 L 162.33 138.16 C 161.51 138.39 161.03 139.24 161.26 140.06 C 161.49 140.88 162.34 141.36 163.16 141.14 Z M 164.09 140.87 L 165.07 140.60 C 165.89 140.37 166.37 139.52 166.14 138.70 C 165.91 137.88 165.06 137.40 164.25 137.63 L 163.26 137.91 C 162.44 138.14 161.96 138.98 162.19 139.80 C 162.42 140.62 163.27 141.10 164.09 140.87 Z M 165.07 140.59 L 166.05 140.32 C 166.86 140.09 167.34 139.24 167.11 138.43 C 166.88 137.61 166.04 137.14 165.22 137.36 L 164.24 137.64 C 163.43 137.87 162.95 138.71 163.18 139.53 C 163.41 140.34 164.26 140.82 165.07 140.59 Z M 166.05 140.31 L 167.01 140.04 C 167.83 139.81 168.30 138.97 168.07 138.15 C 167.84 137.34 167.00 136.87 166.19 137.10 L 165.22 137.37 C 164.41 137.60 163.94 138.44 164.16 139.25 C 164.39 140.07 165.24 140.54 166.05 140.31 Z M 167.01 140.03 L 167.97 139.77 C 168.78 139.54 169.25 138.70 169.02 137.89 C 168.79 137.08 167.95 136.61 167.14 136.83 L 166.19 137.10 C 165.38 137.33 164.91 138.17 165.14 138.98 C 165.36 139.79 166.21 140.26 167.01 140.03 Z M 167.97 139.76 L 168.90 139.49 C 169.71 139.27 170.18 138.43 169.95 137.62 C 169.72 136.81 168.88 136.35 168.08 136.57 L 167.14 136.84 C 166.33 137.07 165.86 137.91 166.09 138.71 C 166.32 139.52 167.16 139.99 167.97 139.76 Z M 168.90 139.49 L 169.90 139.21 C 170.71 138.98 171.17 138.14 170.94 137.34 C 170.71 136.53 169.88 136.07 169.08 136.30 L 168.08 136.58 C 167.27 136.81 166.81 137.64 167.04 138.45 C 167.26 139.25 168.10 139.72 168.90 139.49 Z M 169.90 139.20 L 170.89 138.92 C 171.69 138.69 172.15 137.86 171.93 137.06 C 171.70 136.26 170.86 135.79 170.06 136.02 L 169.08 136.30 C 168.28 136.53 167.81 137.36 168.04 138.16 C 168.27 138.96 169.10 139.43 169.90 139.20 Z M 170.89 138.91 L 171.85 138.64 C 172.65 138.41 173.11 137.58 172.88 136.78 C 172.65 135.98 171.82 135.52 171.03 135.75 L 170.06 136.03 C 169.27 136.25 168.81 137.09 169.03 137.88 C 169.26 138.68 170.09 139.14 170.89 138.91 Z M 171.86 138.63 L 172.79 138.36 C 173.59 138.13 174.04 137.30 173.81 136.51 C 173.59 135.71 172.76 135.26 171.96 135.49 L 171.03 135.76 C 170.23 135.98 169.77 136.81 170.00 137.61 C 170.23 138.40 171.06 138.86 171.86 138.63 Z M 172.79 138.35 L 173.71 138.09 C 174.50 137.86 174.96 137.03 174.73 136.24 C 174.50 135.45 173.67 134.99 172.88 135.22 L 171.96 135.49 C 171.17 135.72 170.72 136.55 170.95 137.34 C 171.18 138.13 172.00 138.58 172.79 138.35 Z M 173.71 138.08 L 174.73 137.78 C 175.52 137.55 175.97 136.72 175.74 135.94 C 175.50 135.15 174.68 134.70 173.89 134.93 L 172.88 135.23 C 172.09 135.46 171.64 136.29 171.87 137.07 C 172.10 137.86 172.93 138.31 173.71 138.08 Z M 174.73 137.77 L 175.71 137.48 C 176.49 137.25 176.94 136.43 176.71 135.64 C 176.47 134.86 175.65 134.41 174.87 134.65 L 173.89 134.94 C 173.11 135.17 172.66 136.00 172.89 136.78 C 173.13 137.56 173.95 138.01 174.73 137.77 Z M 175.71 137.47 L 176.65 137.19 C 177.43 136.96 177.87 136.13 177.64 135.36 C 177.40 134.58 176.58 134.14 175.80 134.37 L 174.86 134.66 C 174.08 134.89 173.64 135.71 173.88 136.49 C 174.11 137.27 174.94 137.71 175.71 137.47 Z M 176.66 137.18 L 177.56 136.91 C 178.33 136.67 178.77 135.85 178.53 135.08 C 178.29 134.30 177.47 133.87 176.70 134.10 L 175.80 134.38 C 175.02 134.62 174.59 135.44 174.83 136.21 C 175.06 136.99 175.88 137.42 176.66 137.18 Z M 177.56 136.90 L 178.45 136.63 C 179.22 136.39 179.65 135.57 179.41 134.79 C 179.17 134.02 178.35 133.59 177.57 133.83 L 176.69 134.11 C 175.92 134.35 175.49 135.17 175.73 135.94 C 175.97 136.71 176.79 137.14 177.56 136.90 Z M 178.46 136.62 L 179.35 136.33 C 180.12 136.08 180.54 135.26 180.29 134.49 C 180.04 133.73 179.22 133.30 178.45 133.55 L 177.56 133.84 C 176.79 134.09 176.37 134.91 176.62 135.68 C 176.87 136.45 177.69 136.87 178.46 136.62 Z M 179.37 136.33 L 180.31 136.00 C 181.07 135.74 181.48 134.92 181.22 134.15 C 180.96 133.39 180.13 132.98 179.37 133.24 L 178.43 133.56 C 177.66 133.82 177.26 134.65 177.52 135.41 C 177.78 136.18 178.61 136.58 179.37 136.33 Z M 180.33 136.00 L 181.38 135.62 C 182.14 135.35 182.53 134.51 182.26 133.75 C 181.98 133.00 181.15 132.60 180.39 132.87 L 179.35 133.25 C 178.59 133.52 178.19 134.36 178.47 135.12 C 178.74 135.87 179.57 136.27 180.33 136.00 Z M 181.40 135.61 L 182.26 135.29 C 183.01 135.01 183.39 134.17 183.11 133.41 C 182.83 132.66 181.99 132.28 181.23 132.56 L 180.37 132.88 C 179.62 133.16 179.24 134.00 179.52 134.76 C 179.80 135.51 180.64 135.89 181.40 135.61 Z M 182.27 135.28 L 183.14 134.95 C 183.89 134.66 184.26 133.82 183.98 133.07 C 183.69 132.32 182.85 131.94 182.09 132.23 L 181.22 132.57 C 180.47 132.85 180.10 133.70 180.39 134.45 C 180.68 135.20 181.52 135.57 182.27 135.28 Z M 183.15 134.94 L 184.07 134.58 C 184.82 134.29 185.19 133.45 184.89 132.70 C 184.60 131.95 183.76 131.58 183.01 131.87 L 182.09 132.23 C 181.34 132.53 180.97 133.37 181.26 134.12 C 181.56 134.87 182.40 135.24 183.15 134.94 Z M 184.07 134.58 L 185.04 134.20 C 185.78 133.90 186.15 133.06 185.85 132.31 C 185.56 131.57 184.71 131.20 183.97 131.50 L 183.01 131.88 C 182.26 132.17 181.90 133.02 182.19 133.76 C 182.49 134.51 183.33 134.87 184.07 134.58 Z M 185.04 134.19 L 186.03 133.80 C 186.77 133.50 187.14 132.66 186.84 131.92 C 186.54 131.17 185.70 130.81 184.96 131.11 L 183.97 131.50 C 183.22 131.80 182.86 132.64 183.16 133.38 C 183.45 134.13 184.30 134.49 185.04 134.19 Z M 186.03 133.80 L 187.03 133.40 C 187.78 133.10 188.14 132.26 187.84 131.51 C 187.54 130.77 186.70 130.41 185.96 130.71 L 184.95 131.11 C 184.21 131.40 183.85 132.25 184.15 132.99 C 184.44 133.73 185.29 134.10 186.03 133.80 Z M 187.03 133.40 L 187.11 133.37 C 187.85 133.07 188.21 132.23 187.92 131.48 C 187.62 130.74 186.78 130.38 186.04 130.68 L 185.96 130.71 C 185.21 131.00 184.85 131.85 185.15 132.59 C 185.45 133.33 186.29 133.69 187.03 133.40 Z"
      fill="black"
      fill-rule="nonzero" /><path d="M 140.32 109.58 L 140.35 110.63 C 140.38 111.48 141.09 112.15 141.94 112.13 C 142.79 112.10 143.45 111.39 143.43 110.54 L 143.40 109.49 C 143.37 108.64 142.66 107.97 141.81 107.99 C 140.96 108.02 140.29 108.73 140.32 109.58 Z M 140.34 110.66 L 140.38 111.70 C 140.42 112.56 141.15 113.22 142.01 113.18 C 142.87 113.14 143.53 112.41 143.49 111.56 L 143.44 110.52 C 143.40 109.66 142.68 109.00 141.82 109.04 C 140.96 109.08 140.30 109.80 140.34 110.66 Z M 140.37 111.75 L 140.45 112.75 C 140.52 113.62 141.28 114.26 142.14 114.19 C 143.01 114.13 143.65 113.37 143.58 112.50 L 143.50 111.50 C 143.43 110.64 142.68 109.99 141.81 110.06 C 140.95 110.13 140.30 110.89 140.37 111.75 Z M 140.45 112.84 L 140.57 113.79 C 140.69 114.66 141.49 115.26 142.36 115.15 C 143.23 115.03 143.83 114.23 143.72 113.36 L 143.59 112.42 C 143.47 111.55 142.67 110.94 141.80 111.06 C 140.94 111.18 140.33 111.98 140.45 112.84 Z M 140.59 113.93 L 140.80 114.86 C 140.99 115.72 141.85 116.26 142.71 116.06 C 143.57 115.87 144.11 115.01 143.91 114.15 L 143.71 113.22 C 143.51 112.36 142.66 111.82 141.79 112.01 C 140.93 112.21 140.39 113.06 140.59 113.93 Z M 140.83 115.03 L 141.16 115.96 C 141.44 116.80 142.36 117.25 143.20 116.96 C 144.04 116.67 144.49 115.76 144.20 114.92 L 143.88 113.98 C 143.59 113.14 142.67 112.69 141.83 112.98 C 140.99 113.27 140.55 114.19 140.83 115.03 Z M 141.20 116.10 L 141.60 116.98 C 141.96 117.80 142.91 118.16 143.73 117.80 C 144.54 117.44 144.91 116.48 144.55 115.67 L 144.15 114.78 C 143.79 113.97 142.83 113.60 142.02 113.96 C 141.21 114.33 140.84 115.28 141.20 116.10 Z M 141.62 117.05 L 142.07 117.94 C 142.47 118.75 143.44 119.07 144.24 118.67 C 145.04 118.27 145.37 117.30 144.97 116.50 L 144.52 115.60 C 144.12 114.80 143.15 114.48 142.35 114.88 C 141.55 115.28 141.22 116.25 141.62 117.05 Z M 142.06 117.95 L 142.50 118.82 C 142.90 119.62 143.88 119.95 144.68 119.55 C 145.48 119.14 145.81 118.17 145.41 117.36 L 144.97 116.49 C 144.57 115.69 143.59 115.36 142.79 115.77 C 141.99 116.17 141.66 117.15 142.06 117.95 Z M 142.48 118.80 L 142.89 119.65 C 143.28 120.46 144.26 120.80 145.07 120.41 C 145.88 120.02 146.22 119.04 145.83 118.23 L 145.42 117.38 C 145.03 116.57 144.06 116.23 143.25 116.62 C 142.43 117.01 142.09 117.99 142.48 118.80 Z M 142.88 119.63 L 143.30 120.53 C 143.68 121.35 144.66 121.70 145.48 121.32 C 146.29 120.94 146.65 119.96 146.26 119.14 L 145.84 118.25 C 145.46 117.43 144.49 117.07 143.67 117.46 C 142.85 117.84 142.50 118.82 142.88 119.63 Z M 143.29 120.52 L 143.72 121.46 C 144.10 122.29 145.08 122.65 145.90 122.27 C 146.73 121.89 147.09 120.91 146.71 120.09 L 146.27 119.15 C 145.89 118.33 144.92 117.97 144.09 118.35 C 143.27 118.72 142.91 119.70 143.29 120.52 Z M 143.72 121.46 L 144.16 122.43 C 144.54 123.26 145.52 123.62 146.34 123.25 C 147.17 122.87 147.54 121.89 147.16 121.06 L 146.71 120.09 C 146.33 119.26 145.36 118.90 144.53 119.28 C 143.70 119.66 143.34 120.63 143.72 121.46 Z M 144.16 122.43 L 144.56 123.32 C 144.94 124.15 145.92 124.52 146.75 124.14 C 147.58 123.76 147.95 122.78 147.57 121.95 L 147.16 121.06 C 146.78 120.23 145.80 119.86 144.97 120.24 C 144.14 120.62 143.78 121.60 144.16 122.43 Z M 144.56 123.32 L 144.96 124.20 C 145.34 125.04 146.32 125.40 147.15 125.02 C 147.98 124.65 148.35 123.66 147.97 122.83 L 147.57 121.95 C 147.19 121.12 146.21 120.75 145.38 121.13 C 144.55 121.50 144.18 122.49 144.56 123.32 Z M 144.95 124.20 L 145.36 125.10 C 145.73 125.94 146.72 126.31 147.55 125.94 C 148.39 125.56 148.76 124.58 148.39 123.74 L 147.98 122.84 C 147.60 122.00 146.62 121.63 145.79 122.00 C 144.95 122.38 144.57 123.36 144.95 124.20 Z M 145.35 125.09 L 145.76 126.02 C 146.13 126.86 147.11 127.24 147.95 126.87 C 148.79 126.50 149.17 125.52 148.80 124.68 L 148.40 123.75 C 148.03 122.91 147.04 122.53 146.20 122.90 C 145.36 123.27 144.98 124.25 145.35 125.09 Z M 145.75 126.01 L 146.15 126.96 C 146.52 127.80 147.50 128.20 148.34 127.83 C 149.19 127.47 149.58 126.49 149.22 125.64 L 148.81 124.69 C 148.45 123.84 147.47 123.45 146.62 123.81 C 145.78 124.18 145.38 125.16 145.75 126.01 Z M 146.14 126.94 L 146.53 127.87 C 146.88 128.73 147.86 129.13 148.71 128.78 C 149.57 128.42 149.97 127.45 149.62 126.59 L 149.23 125.66 C 148.88 124.81 147.90 124.40 147.05 124.75 C 146.19 125.11 145.79 126.09 146.14 126.94 Z M 146.52 127.85 L 146.88 128.75 C 147.22 129.61 148.19 130.02 149.05 129.68 C 149.91 129.34 150.33 128.36 149.99 127.50 L 149.63 126.61 C 149.28 125.75 148.31 125.33 147.45 125.68 C 146.59 126.02 146.17 127.00 146.52 127.85 Z M 146.87 128.73 L 147.22 129.64 C 147.56 130.51 148.53 130.94 149.39 130.60 C 150.26 130.26 150.68 129.29 150.35 128.43 L 149.99 127.52 C 149.66 126.65 148.69 126.23 147.82 126.56 C 146.96 126.90 146.53 127.87 146.87 128.73 Z M 147.22 129.63 L 147.57 130.57 C 147.90 131.43 148.87 131.87 149.74 131.54 C 150.60 131.21 151.04 130.24 150.71 129.37 L 150.35 128.44 C 150.03 127.57 149.06 127.14 148.19 127.47 C 147.32 127.80 146.89 128.77 147.22 129.63 Z M 147.57 130.56 L 147.92 131.51 C 148.24 132.38 149.21 132.82 150.08 132.50 C 150.95 132.17 151.39 131.21 151.07 130.34 L 150.71 129.38 C 150.39 128.51 149.42 128.07 148.55 128.40 C 147.68 128.72 147.24 129.69 147.57 130.56 Z M 147.92 131.50 L 148.27 132.47 C 148.59 133.35 149.56 133.79 150.43 133.47 C 151.30 133.15 151.75 132.19 151.43 131.31 L 151.07 130.34 C 150.75 129.47 149.79 129.02 148.92 129.34 C 148.04 129.66 147.60 130.63 147.92 131.50 Z M 148.27 132.47 L 148.62 133.42 C 148.93 134.30 149.90 134.75 150.77 134.43 C 151.65 134.11 152.10 133.15 151.78 132.27 L 151.43 131.32 C 151.12 130.44 150.15 129.99 149.28 130.31 C 148.40 130.63 147.95 131.59 148.27 132.47 Z M 148.61 133.42 L 148.94 134.33 C 149.25 135.21 150.22 135.66 151.10 135.35 C 151.97 135.03 152.43 134.06 152.11 133.19 L 151.79 132.28 C 151.47 131.40 150.50 130.95 149.63 131.26 C 148.75 131.58 148.30 132.54 148.61 133.42 Z M 148.93 134.32 L 149.26 135.25 C 149.57 136.13 150.54 136.59 151.42 136.27 C 152.30 135.96 152.76 135.00 152.45 134.12 L 152.12 133.19 C 151.81 132.31 150.84 131.85 149.96 132.17 C 149.08 132.48 148.62 133.44 148.93 134.32 Z M 149.26 135.24 L 149.58 136.18 C 149.89 137.06 150.86 137.53 151.74 137.22 C 152.62 136.91 153.09 135.94 152.78 135.06 L 152.45 134.12 C 152.14 133.24 151.18 132.77 150.30 133.08 C 149.41 133.39 148.95 134.36 149.26 135.24 Z M 149.58 136.17 L 149.90 137.12 C 150.21 138.01 151.17 138.48 152.06 138.18 C 152.94 137.87 153.42 136.91 153.11 136.02 L 152.79 135.07 C 152.48 134.18 151.52 133.71 150.63 134.02 C 149.75 134.32 149.27 135.28 149.58 136.17 Z M 149.90 137.11 L 150.22 138.08 C 150.52 138.97 151.48 139.45 152.37 139.15 C 153.26 138.85 153.74 137.89 153.44 137.00 L 153.12 136.03 C 152.82 135.14 151.86 134.66 150.97 134.96 C 150.08 135.26 149.60 136.22 149.90 137.11 Z M 150.21 138.07 L 150.53 139.05 C 150.82 139.94 151.78 140.43 152.68 140.14 C 153.57 139.85 154.06 138.89 153.77 138.00 L 153.45 137.01 C 153.16 136.12 152.20 135.63 151.31 135.92 C 150.41 136.21 149.92 137.17 150.21 138.07 Z M 150.53 139.04 L 150.82 139.98 C 151.11 140.88 152.07 141.38 152.96 141.10 C 153.86 140.81 154.36 139.86 154.08 138.96 L 153.78 138.01 C 153.50 137.11 152.54 136.61 151.64 136.90 C 150.74 137.18 150.24 138.14 150.53 139.04 Z M 150.82 139.97 L 151.10 140.90 C 151.38 141.81 152.33 142.31 153.24 142.04 C 154.14 141.76 154.65 140.81 154.37 139.90 L 154.09 138.97 C 153.81 138.07 152.85 137.56 151.95 137.84 C 151.05 138.11 150.54 139.07 150.82 139.97 Z M 151.10 140.89 L 151.38 141.84 C 151.65 142.74 152.60 143.26 153.50 142.99 C 154.41 142.72 154.93 141.77 154.66 140.86 L 154.38 139.92 C 154.11 139.01 153.16 138.49 152.25 138.76 C 151.34 139.03 150.83 139.98 151.10 140.89 Z M 151.37 141.82 L 151.65 142.78 C 151.91 143.69 152.86 144.22 153.77 143.95 C 154.68 143.69 155.20 142.74 154.94 141.83 L 154.66 140.88 C 154.40 139.97 153.45 139.44 152.54 139.70 C 151.63 139.96 151.11 140.91 151.37 141.82 Z M 151.64 142.77 L 151.91 143.74 C 152.16 144.65 153.11 145.18 154.03 144.93 C 154.94 144.67 155.47 143.73 155.22 142.81 L 154.95 141.84 C 154.69 140.93 153.74 140.40 152.83 140.65 C 151.92 140.91 151.38 141.86 151.64 142.77 Z M 151.90 143.72 L 152.17 144.70 C 152.42 145.62 153.36 146.16 154.28 145.91 C 155.20 145.67 155.74 144.72 155.49 143.80 L 155.22 142.82 C 154.97 141.91 154.03 141.37 153.11 141.61 C 152.20 141.86 151.65 142.81 151.90 143.72 Z M 152.16 144.69 L 152.42 145.68 C 152.67 146.60 153.61 147.15 154.53 146.91 C 155.45 146.67 156.00 145.73 155.76 144.81 L 155.50 143.82 C 155.25 142.90 154.31 142.35 153.39 142.59 C 152.47 142.83 151.92 143.77 152.16 144.69 Z M 152.42 145.67 L 152.67 146.64 C 152.90 147.57 153.84 148.12 154.77 147.89 C 155.69 147.65 156.25 146.71 156.01 145.79 L 155.76 144.82 C 155.53 143.89 154.59 143.34 153.66 143.57 C 152.74 143.81 152.18 144.75 152.42 145.67 Z M 152.66 146.63 L 152.89 147.57 C 153.12 148.49 154.06 149.06 154.99 148.83 C 155.91 148.60 156.48 147.66 156.25 146.74 L 156.01 145.80 C 155.78 144.87 154.85 144.31 153.92 144.54 C 153.00 144.77 152.43 145.71 152.66 146.63 Z M 152.89 147.56 L 153.12 148.50 C 153.34 149.43 154.27 150.00 155.20 149.78 C 156.13 149.56 156.70 148.62 156.48 147.70 L 156.25 146.75 C 156.03 145.82 155.09 145.25 154.17 145.47 C 153.24 145.69 152.67 146.63 152.89 147.56 Z M 153.11 148.49 L 153.33 149.45 C 153.55 150.38 154.48 150.96 155.41 150.74 C 156.34 150.53 156.92 149.60 156.71 148.67 L 156.48 147.71 C 156.27 146.78 155.34 146.20 154.41 146.41 C 153.48 146.63 152.90 147.56 153.11 148.49 Z M 153.33 149.44 L 153.55 150.41 C 153.76 151.34 154.68 151.93 155.62 151.72 C 156.55 151.51 157.14 150.59 156.93 149.65 L 156.71 148.68 C 156.50 147.75 155.58 147.16 154.64 147.37 C 153.71 147.58 153.12 148.50 153.33 149.44 Z M 153.54 150.39 L 153.75 151.38 C 153.96 152.32 154.88 152.91 155.81 152.71 C 156.75 152.51 157.35 151.59 157.15 150.65 L 156.93 149.67 C 156.73 148.73 155.81 148.13 154.87 148.33 C 153.94 148.54 153.34 149.46 153.54 150.39 Z M 153.75 151.37 L 153.96 152.37 C 154.15 153.31 155.07 153.91 156.01 153.72 C 156.95 153.53 157.55 152.61 157.36 151.67 L 157.15 150.67 C 156.96 149.73 156.04 149.12 155.10 149.32 C 154.16 149.51 153.56 150.43 153.75 151.37 Z M 153.95 152.35 L 154.15 153.37 C 154.34 154.32 155.25 154.93 156.19 154.75 C 157.13 154.56 157.75 153.65 157.56 152.70 L 157.36 151.68 C 157.18 150.74 156.26 150.13 155.32 150.31 C 154.38 150.50 153.77 151.41 153.95 152.35 Z M 154.15 153.36 L 154.33 154.36 C 154.51 155.30 155.42 155.92 156.36 155.75 C 157.31 155.57 157.93 154.66 157.75 153.72 L 157.57 152.72 C 157.39 151.78 156.48 151.15 155.54 151.33 C 154.59 151.51 153.97 152.41 154.15 153.36 Z M 154.33 154.34 L 154.50 155.32 C 154.67 156.26 155.57 156.89 156.52 156.73 C 157.47 156.56 158.10 155.65 157.93 154.71 L 157.76 153.73 C 157.59 152.78 156.68 152.15 155.74 152.32 C 154.79 152.49 154.16 153.39 154.33 154.34 Z M 154.50 155.30 L 154.67 156.29 C 154.83 157.24 155.73 157.88 156.68 157.72 C 157.62 157.55 158.26 156.65 158.10 155.71 L 157.93 154.72 C 157.77 153.77 156.87 153.13 155.92 153.29 C 154.98 153.45 154.34 154.35 154.50 155.30 Z M 154.66 156.28 L 154.82 157.27 C 154.98 158.22 155.87 158.87 156.82 158.71 C 157.77 158.56 158.42 157.66 158.27 156.71 L 158.11 155.72 C 157.95 154.77 157.06 154.12 156.11 154.28 C 155.15 154.43 154.51 155.32 154.66 156.28 Z M 154.82 157.26 L 154.97 158.25 C 155.12 159.21 156.01 159.86 156.96 159.71 C 157.92 159.57 158.57 158.68 158.42 157.72 L 158.27 156.73 C 158.12 155.77 157.23 155.12 156.28 155.27 C 155.33 155.41 154.67 156.30 154.82 157.26 Z M 154.97 158.24 L 155.12 159.24 C 155.26 160.20 156.14 160.86 157.10 160.72 C 158.05 160.58 158.71 159.69 158.57 158.74 L 158.43 157.74 C 158.29 156.78 157.40 156.12 156.45 156.26 C 155.49 156.40 154.83 157.29 154.97 158.24 Z M 155.11 159.23 L 155.25 160.22 C 155.38 161.18 156.27 161.85 157.22 161.72 C 158.18 161.58 158.85 160.70 158.71 159.74 L 158.58 158.75 C 158.44 157.79 157.56 157.12 156.60 157.26 C 155.65 157.39 154.98 158.27 155.11 159.23 Z M 155.25 160.21 L 155.38 161.20 C 155.50 162.16 156.38 162.83 157.34 162.71 C 158.30 162.58 158.97 161.70 158.85 160.75 L 158.72 159.76 C 158.59 158.80 157.71 158.12 156.75 158.25 C 155.80 158.38 155.12 159.25 155.25 160.21 Z M 155.38 161.19 L 155.50 162.17 C 155.62 163.13 156.49 163.81 157.45 163.70 C 158.41 163.58 159.09 162.70 158.97 161.74 L 158.85 160.76 C 158.73 159.80 157.86 159.12 156.90 159.24 C 155.94 159.36 155.26 160.23 155.38 161.19 Z M 155.49 162.16 L 155.61 163.18 C 155.72 164.14 156.59 164.83 157.55 164.72 C 158.51 164.61 159.20 163.74 159.09 162.78 L 158.97 161.76 C 158.86 160.80 157.99 160.11 157.03 160.22 C 156.07 160.33 155.38 161.20 155.49 162.16 Z M 155.61 163.17 L 155.72 164.18 C 155.82 165.14 156.68 165.84 157.65 165.74 C 158.61 165.64 159.31 164.77 159.20 163.81 L 159.10 162.80 C 158.99 161.83 158.13 161.14 157.17 161.24 C 156.20 161.34 155.50 162.21 155.61 163.17 Z M 155.71 164.17 L 155.81 165.17 C 155.90 166.13 156.76 166.84 157.73 166.75 C 158.70 166.65 159.40 165.79 159.31 164.83 L 159.21 163.82 C 159.11 162.86 158.25 162.15 157.29 162.25 C 156.32 162.34 155.62 163.20 155.71 164.17 Z M 155.81 165.15 L 155.89 166.15 C 155.98 167.11 156.84 167.83 157.80 167.74 C 158.77 167.66 159.49 166.80 159.40 165.83 L 159.31 164.84 C 159.22 163.87 158.37 163.16 157.40 163.24 C 156.43 163.33 155.72 164.19 155.81 165.15 Z M 155.89 166.13 L 155.97 167.12 C 156.05 168.09 156.90 168.81 157.87 168.73 C 158.84 168.66 159.56 167.81 159.48 166.84 L 159.40 165.85 C 159.32 164.88 158.48 164.16 157.51 164.23 C 156.54 164.31 155.81 165.16 155.89 166.13 Z M 155.97 167.10 L 156.04 168.09 C 156.11 169.06 156.95 169.79 157.92 169.72 C 158.90 169.65 159.63 168.81 159.56 167.84 L 159.49 166.85 C 159.42 165.88 158.57 165.15 157.60 165.22 C 156.63 165.29 155.90 166.13 155.97 167.10 Z M 156.03 168.07 L 156.10 169.05 C 156.16 170.03 157.00 170.77 157.97 170.71 C 158.94 170.65 159.68 169.81 159.62 168.83 L 159.56 167.85 C 159.50 166.88 158.66 166.14 157.69 166.20 C 156.71 166.26 155.97 167.10 156.03 168.07 Z M 156.09 169.04 L 156.15 170.02 C 156.20 171.00 157.03 171.75 158.01 171.69 C 158.98 171.64 159.73 170.81 159.68 169.83 L 159.63 168.85 C 159.57 167.87 158.74 167.12 157.76 167.18 C 156.79 167.23 156.04 168.06 156.09 169.04 Z M 156.14 170.01 L 156.19 171.02 C 156.23 171.99 157.06 172.75 158.04 172.71 C 159.02 172.66 159.77 171.83 159.73 170.85 L 159.68 169.85 C 159.64 168.87 158.81 168.11 157.83 168.16 C 156.85 168.20 156.10 169.03 156.14 170.01 Z M 156.18 171.00 L 156.22 172.01 C 156.26 172.99 157.08 173.76 158.06 173.72 C 159.04 173.68 159.81 172.86 159.77 171.88 L 159.73 170.87 C 159.69 169.89 158.87 169.12 157.89 169.16 C 156.91 169.20 156.15 170.02 156.18 171.00 Z M 156.22 172.00 L 156.25 173.01 C 156.28 173.99 157.10 174.76 158.08 174.73 C 159.07 174.70 159.84 173.88 159.81 172.90 L 159.77 171.89 C 159.74 170.91 158.92 170.14 157.94 170.17 C 156.96 170.20 156.19 171.02 156.22 172.00 Z M 156.25 173.00 L 156.27 174.00 C 156.30 174.99 157.12 175.76 158.10 175.74 C 159.08 175.71 159.86 174.90 159.83 173.91 L 159.81 172.91 C 159.78 171.92 158.97 171.15 157.98 171.17 C 157.00 171.20 156.22 172.01 156.25 173.00 Z M 156.27 173.99 L 156.29 174.99 C 156.31 175.98 157.12 176.76 158.11 176.74 C 159.09 176.72 159.88 175.91 159.86 174.92 L 159.84 173.92 C 159.82 172.94 159.00 172.15 158.02 172.17 C 157.03 172.19 156.25 173.01 156.27 173.99 Z M 156.29 174.99 L 156.30 175.98 C 156.32 176.97 157.13 177.75 158.12 177.74 C 159.10 177.72 159.89 176.91 159.88 175.92 L 159.86 174.93 C 159.84 173.94 159.03 173.16 158.05 173.17 C 157.06 173.19 156.27 174.00 156.29 174.99 Z M 156.30 175.97 L 156.31 176.96 C 156.32 177.95 157.13 178.74 158.12 178.73 C 159.11 178.72 159.90 177.91 159.89 176.92 L 159.88 175.93 C 159.87 174.94 159.06 174.15 158.07 174.16 C 157.08 174.18 156.29 174.99 156.30 175.97 Z M 156.31 176.96 L 156.32 177.95 C 156.33 178.94 157.14 179.74 158.13 179.73 C 159.12 179.72 159.91 178.91 159.90 177.92 L 159.89 176.92 C 159.88 175.93 159.07 175.14 158.08 175.15 C 157.09 175.16 156.30 175.97 156.31 176.96 Z M 156.32 177.95 L 156.32 178.98 C 156.33 179.98 157.14 180.77 158.13 180.77 C 159.12 180.76 159.92 179.95 159.91 178.96 L 159.90 177.92 C 159.90 176.93 159.09 176.13 158.10 176.14 C 157.11 176.15 156.31 176.95 156.32 177.95 Z M 156.32 178.98 L 156.33 180.00 C 156.33 181.00 157.13 181.80 158.13 181.79 C 159.12 181.79 159.92 180.99 159.92 179.99 L 159.91 178.97 C 159.91 177.98 159.10 177.17 158.11 177.18 C 157.12 177.18 156.32 177.99 156.32 178.98 Z M 156.32 180.00 L 156.32 181.01 C 156.32 182.00 157.12 182.81 158.12 182.81 C 159.11 182.81 159.91 182.01 159.91 181.01 L 159.92 180.00 C 159.92 179.01 159.12 178.20 158.12 178.20 C 157.13 178.20 156.33 179.00 156.32 180.00 Z M 156.32 181.00 L 156.31 182.00 C 156.31 182.99 157.10 183.80 158.10 183.81 C 159.09 183.82 159.90 183.02 159.91 182.02 L 159.92 181.03 C 159.92 180.03 159.12 179.22 158.13 179.21 C 157.14 179.21 156.33 180.01 156.32 181.00 Z M 156.31 181.98 L 156.30 182.97 C 156.28 183.96 157.08 184.78 158.07 184.79 C 159.06 184.81 159.88 184.02 159.89 183.02 L 159.91 182.04 C 159.92 181.04 159.13 180.23 158.14 180.21 C 157.14 180.20 156.33 180.99 156.31 181.98 Z M 156.30 182.95 L 156.28 183.92 C 156.25 184.92 157.04 185.74 158.03 185.77 C 159.03 185.79 159.85 185.00 159.87 184.01 L 159.90 183.04 C 159.92 182.04 159.13 181.22 158.14 181.20 C 157.14 181.17 156.32 181.96 156.30 182.95 Z M 156.27 183.91 L 156.24 184.86 C 156.21 185.86 156.99 186.69 157.98 186.72 C 158.98 186.75 159.81 185.98 159.84 184.98 L 159.87 184.03 C 159.91 183.03 159.13 182.20 158.13 182.17 C 157.14 182.13 156.31 182.91 156.27 183.91 Z M 156.24 184.84 L 156.20 185.89 C 156.15 186.89 156.92 187.73 157.92 187.77 C 158.91 187.82 159.75 187.05 159.79 186.05 L 159.84 185.00 C 159.89 184.01 159.12 183.17 158.12 183.12 C 157.13 183.08 156.29 183.85 156.24 184.84 Z M 156.20 185.87 L 156.14 186.90 C 156.08 187.89 156.84 188.74 157.83 188.80 C 158.82 188.86 159.68 188.10 159.73 187.11 L 159.79 186.08 C 159.85 185.08 159.09 184.23 158.10 184.17 C 157.11 184.12 156.26 184.87 156.20 185.87 Z M 156.14 186.87 L 156.07 187.89 C 155.99 188.88 156.74 189.74 157.73 189.81 C 158.72 189.88 159.59 189.14 159.66 188.15 L 159.73 187.13 C 159.80 186.14 159.06 185.28 158.07 185.21 C 157.07 185.14 156.21 185.88 156.14 186.87 Z M 156.07 187.86 L 155.98 188.85 C 155.89 189.84 156.63 190.71 157.62 190.80 C 158.61 190.89 159.48 190.16 159.57 189.17 L 159.66 188.17 C 159.74 187.18 159.01 186.31 158.02 186.22 C 157.03 186.13 156.16 186.87 156.07 187.86 Z M 155.98 188.82 L 155.88 189.79 C 155.78 190.78 156.50 191.67 157.48 191.77 C 158.47 191.87 159.36 191.16 159.46 190.17 L 159.57 189.20 C 159.67 188.21 158.95 187.32 157.96 187.22 C 156.97 187.11 156.09 187.83 155.98 188.82 Z M 155.89 189.76 L 155.77 190.71 C 155.65 191.70 156.35 192.59 157.34 192.72 C 158.32 192.84 159.22 192.14 159.34 191.15 L 159.46 190.20 C 159.58 189.21 158.88 188.31 157.89 188.19 C 156.91 188.07 156.01 188.77 155.89 189.76 Z M 155.77 190.67 L 155.63 191.66 C 155.49 192.64 156.17 193.56 157.16 193.70 C 158.14 193.84 159.06 193.15 159.20 192.17 L 159.34 191.18 C 159.48 190.20 158.80 189.29 157.81 189.15 C 156.83 189.00 155.91 189.69 155.77 190.67 Z M 155.64 191.62 L 155.47 192.64 C 155.31 193.62 155.97 194.55 156.95 194.71 C 157.93 194.87 158.86 194.21 159.02 193.23 L 159.19 192.21 C 159.35 191.23 158.69 190.30 157.71 190.14 C 156.73 189.98 155.80 190.64 155.64 191.62 Z M 155.48 192.61 L 155.29 193.60 C 155.11 194.58 155.76 195.52 156.74 195.70 C 157.71 195.88 158.65 195.24 158.83 194.26 L 159.02 193.26 C 159.20 192.28 158.55 191.34 157.57 191.16 C 156.59 190.98 155.66 191.63 155.48 192.61 Z M 155.30 193.57 L 155.10 194.55 C 154.90 195.52 155.54 196.47 156.51 196.67 C 157.48 196.87 158.43 196.24 158.63 195.26 L 158.83 194.29 C 159.02 193.31 158.39 192.36 157.42 192.17 C 156.44 191.97 155.49 192.60 155.30 193.57 Z M 155.11 194.53 L 154.90 195.48 C 154.69 196.45 155.31 197.41 156.28 197.62 C 157.25 197.83 158.21 197.21 158.42 196.24 L 158.62 195.29 C 158.83 194.31 158.22 193.36 157.25 193.15 C 156.27 192.94 155.32 193.55 155.11 194.53 Z M 154.90 195.46 L 154.69 196.40 C 154.47 197.37 155.08 198.34 156.04 198.56 C 157.01 198.78 157.98 198.17 158.20 197.20 L 158.41 196.26 C 158.63 195.29 158.03 194.33 157.06 194.11 C 156.09 193.89 155.12 194.49 154.90 195.46 Z M 154.69 196.39 L 154.45 197.41 C 154.22 198.38 154.82 199.35 155.79 199.58 C 156.75 199.81 157.72 199.21 157.95 198.24 L 158.19 197.22 C 158.42 196.25 157.83 195.28 156.86 195.05 C 155.89 194.82 154.92 195.42 154.69 196.39 Z M 154.45 197.40 L 154.20 198.43 C 153.96 199.40 154.55 200.37 155.52 200.61 C 156.48 200.85 157.46 200.26 157.69 199.29 L 157.95 198.26 C 158.19 197.29 157.60 196.32 156.63 196.08 C 155.67 195.84 154.69 196.43 154.45 197.40 Z M 154.21 198.41 L 153.95 199.41 C 153.70 200.37 154.28 201.35 155.24 201.60 C 156.20 201.84 157.19 201.27 157.43 200.30 L 157.69 199.31 C 157.94 198.35 157.36 197.37 156.40 197.12 C 155.43 196.87 154.45 197.45 154.21 198.41 Z M 153.96 199.38 L 153.70 200.33 C 153.44 201.28 154.01 202.27 154.97 202.53 C 155.92 202.79 156.91 202.23 157.17 201.27 L 157.43 200.33 C 157.69 199.37 157.12 198.38 156.16 198.12 C 155.20 197.86 154.22 198.43 153.96 199.38 Z M 153.71 200.30 L 153.46 201.17 C 153.18 202.13 153.73 203.12 154.68 203.40 C 155.64 203.67 156.63 203.12 156.91 202.17 L 157.16 201.30 C 157.44 200.34 156.89 199.35 155.93 199.07 C 154.98 198.79 153.98 199.34 153.71 200.30 Z M 153.47 201.13 L 153.16 202.10 C 152.87 203.05 153.39 204.06 154.34 204.35 C 155.28 204.65 156.29 204.13 156.59 203.18 L 156.90 202.21 C 157.19 201.27 156.67 200.26 155.72 199.96 C 154.78 199.66 153.77 200.19 153.47 201.13 Z M 153.19 202.04 L 152.85 202.98 C 152.52 203.91 153.01 204.94 153.94 205.27 C 154.88 205.60 155.90 205.12 156.23 204.18 L 156.57 203.24 C 156.90 202.31 156.41 201.28 155.48 200.95 C 154.55 200.62 153.52 201.10 153.19 202.04 Z M 152.88 202.91 L 152.52 203.79 C 152.15 204.71 152.59 205.76 153.50 206.13 C 154.42 206.51 155.47 206.06 155.84 205.15 L 156.20 204.26 C 156.58 203.34 156.14 202.29 155.22 201.92 C 154.30 201.55 153.26 201.99 152.88 202.91 Z M 152.55 203.72 L 152.14 204.61 C 151.73 205.51 152.12 206.58 153.02 206.99 C 153.92 207.40 154.98 207.01 155.40 206.11 L 155.81 205.22 C 156.22 204.32 155.83 203.26 154.93 202.84 C 154.03 202.43 152.97 202.82 152.55 203.72 Z M 152.17 204.55 L 151.73 205.44 C 151.28 206.32 151.63 207.40 152.51 207.84 C 153.39 208.29 154.47 207.94 154.92 207.06 L 155.37 206.17 C 155.81 205.29 155.46 204.22 154.58 203.77 C 153.70 203.32 152.62 203.67 152.17 204.55 Z M 151.76 205.38 L 151.26 206.27 C 150.78 207.14 151.09 208.23 151.96 208.71 C 152.82 209.18 153.91 208.87 154.39 208.01 L 154.88 207.12 C 155.36 206.25 155.05 205.16 154.19 204.69 C 153.33 204.21 152.24 204.52 151.76 205.38 Z M 151.30 206.21 L 150.77 207.08 C 150.25 207.92 150.51 209.02 151.35 209.53 C 152.19 210.05 153.29 209.79 153.81 208.95 L 154.34 208.08 C 154.86 207.24 154.60 206.14 153.76 205.62 C 152.92 205.11 151.82 205.37 151.30 206.21 Z M 150.83 206.99 L 150.27 207.79 C 149.70 208.60 149.90 209.71 150.71 210.27 C 151.52 210.84 152.63 210.64 153.19 209.83 L 153.75 209.03 C 154.31 208.23 154.12 207.11 153.31 206.55 C 152.50 205.99 151.39 206.18 150.83 206.99 Z M 150.37 207.67 L 149.68 208.49 C 149.05 209.24 149.14 210.36 149.89 210.99 C 150.64 211.62 151.76 211.53 152.40 210.78 L 153.09 209.96 C 153.72 209.21 153.62 208.09 152.87 207.45 C 152.12 206.82 151.00 206.92 150.37 207.67 Z M 149.86 208.33 L 149.11 209.00 C 148.39 209.66 148.33 210.77 148.99 211.49 C 149.64 212.21 150.75 212.27 151.47 211.62 L 152.22 210.94 C 152.94 210.29 153.00 209.17 152.34 208.45 C 151.69 207.73 150.58 207.68 149.86 208.33 Z M 149.36 208.83 L 148.56 209.33 C 147.75 209.85 147.50 210.93 148.02 211.75 C 148.54 212.56 149.62 212.80 150.43 212.29 L 151.23 211.79 C 152.04 211.27 152.29 210.19 151.77 209.38 C 151.25 208.56 150.17 208.32 149.36 208.83 Z M 148.87 209.20 L 148.02 209.53 C 147.13 209.88 146.69 210.88 147.04 211.77 C 147.38 212.66 148.39 213.10 149.28 212.75 L 150.13 212.42 C 151.02 212.08 151.46 211.07 151.11 210.18 C 150.76 209.29 149.76 208.85 148.87 209.20 Z M 148.37 209.46 L 147.45 209.61 C 146.52 209.76 145.89 210.64 146.04 211.57 C 146.19 212.50 147.07 213.13 148.00 212.98 L 148.92 212.83 C 149.85 212.67 150.48 211.80 150.33 210.87 C 150.18 209.94 149.30 209.31 148.37 209.46 Z M 147.83 209.62 L 146.82 209.56 C 145.89 209.50 145.10 210.20 145.04 211.12 C 144.98 212.05 145.68 212.85 146.61 212.90 L 147.62 212.97 C 148.54 213.02 149.34 212.32 149.40 211.40 C 149.46 210.47 148.75 209.68 147.83 209.62 Z M 147.15 209.64 L 146.12 209.36 C 145.24 209.11 144.33 209.63 144.09 210.51 C 143.85 211.39 144.37 212.30 145.24 212.54 L 146.28 212.82 C 147.16 213.06 148.06 212.54 148.30 211.67 C 148.55 210.79 148.03 209.88 147.15 209.64 Z M 146.33 209.46 L 145.46 209.08 C 144.64 208.72 143.68 209.10 143.32 209.92 C 142.97 210.74 143.34 211.70 144.16 212.06 L 145.03 212.43 C 145.85 212.79 146.81 212.42 147.17 211.59 C 147.53 210.77 147.15 209.82 146.33 209.46 Z M 145.57 209.16 L 144.68 208.68 C 143.90 208.26 142.93 208.55 142.51 209.33 C 142.10 210.11 142.39 211.07 143.16 211.49 L 144.05 211.97 C 144.83 212.39 145.80 212.10 146.22 211.33 C 146.64 210.55 146.35 209.58 145.57 209.16 Z M 144.74 208.75 L 143.86 208.20 C 143.12 207.75 142.15 207.98 141.70 208.72 C 141.24 209.46 141.47 210.42 142.21 210.88 L 143.10 211.42 C 143.83 211.88 144.80 211.65 145.26 210.91 C 145.71 210.17 145.48 209.21 144.74 208.75 Z M 143.90 208.26 L 143.05 207.69 C 142.34 207.21 141.38 207.40 140.90 208.10 C 140.43 208.81 140.61 209.77 141.32 210.25 L 142.17 210.82 C 142.88 211.30 143.84 211.11 144.32 210.41 C 144.79 209.70 144.61 208.74 143.90 208.26 Z M 143.07 207.73 L 142.23 207.12 C 141.54 206.63 140.59 206.79 140.10 207.47 C 139.61 208.15 139.77 209.10 140.45 209.59 L 141.30 210.20 C 141.98 210.69 142.93 210.54 143.42 209.86 C 143.91 209.17 143.76 208.22 143.07 207.73 Z M 142.24 207.16 L 141.44 206.55 C 140.78 206.05 139.84 206.18 139.34 206.84 C 138.84 207.50 138.97 208.44 139.62 208.94 L 140.43 209.55 C 141.09 210.05 142.03 209.93 142.53 209.27 C 143.03 208.61 142.90 207.67 142.24 207.16 Z M 141.45 206.59 L 140.69 205.98 C 140.05 205.47 139.12 205.58 138.61 206.22 C 138.10 206.86 138.21 207.79 138.85 208.30 L 139.61 208.90 C 140.25 209.41 141.18 209.31 141.69 208.67 C 142.20 208.03 142.09 207.10 141.45 206.59 Z M 140.69 206.01 L 139.94 205.40 C 139.32 204.88 138.40 204.98 137.89 205.60 C 137.38 206.22 137.47 207.14 138.09 207.65 L 138.84 208.27 C 139.47 208.78 140.39 208.69 140.90 208.06 C 141.41 207.44 141.31 206.52 140.69 206.01 Z M 139.94 205.41 L 139.21 204.80 C 138.59 204.30 137.68 204.38 137.17 204.99 C 136.66 205.61 136.75 206.52 137.36 207.03 L 138.09 207.63 C 138.71 208.14 139.62 208.06 140.13 207.45 C 140.64 206.83 140.55 205.92 139.94 205.41 Z M 139.20 204.81 L 138.47 204.20 C 137.86 203.69 136.95 203.77 136.44 204.38 C 135.93 204.99 136.02 205.89 136.62 206.40 L 137.36 207.02 C 137.97 207.53 138.88 207.45 139.39 206.84 C 139.90 206.23 139.81 205.32 139.20 204.81 Z M 138.47 204.20 L 137.70 203.56 C 137.09 203.05 136.19 203.13 135.68 203.74 C 135.17 204.35 135.25 205.25 135.86 205.76 L 136.63 206.40 C 137.23 206.91 138.14 206.83 138.65 206.22 C 139.15 205.61 139.07 204.71 138.47 204.20 Z M 137.70 203.56 L 136.91 202.90 C 136.30 202.39 135.40 202.47 134.89 203.08 C 134.38 203.68 134.46 204.59 135.07 205.09 L 135.86 205.76 C 136.47 206.27 137.37 206.19 137.88 205.58 C 138.39 204.97 138.31 204.07 137.70 203.56 Z M 136.91 202.90 L 136.11 202.23 C 135.51 201.73 134.60 201.81 134.10 202.41 C 133.59 203.02 133.67 203.92 134.28 204.43 L 135.07 205.09 C 135.68 205.60 136.58 205.52 137.08 204.91 C 137.59 204.31 137.51 203.41 136.91 202.90 Z M 136.11 202.24 L 135.37 201.61 C 134.76 201.11 133.86 201.19 133.35 201.80 C 132.85 202.40 132.93 203.30 133.54 203.81 L 134.28 204.43 C 134.88 204.93 135.78 204.85 136.29 204.25 C 136.80 203.64 136.71 202.74 136.11 202.24 Z M 135.37 201.62 L 134.60 200.98 C 134.00 200.47 133.10 200.56 132.59 201.16 C 132.09 201.77 132.17 202.67 132.77 203.17 L 133.54 203.81 C 134.14 204.31 135.04 204.23 135.55 203.63 C 136.05 203.02 135.97 202.12 135.37 201.62 Z M 134.60 200.98 L 133.83 200.33 C 133.22 199.83 132.32 199.91 131.82 200.51 C 131.31 201.12 131.39 202.02 132.00 202.52 L 132.77 203.17 C 133.38 203.68 134.28 203.59 134.78 202.99 C 135.29 202.38 135.21 201.48 134.60 200.98 Z M 133.83 200.33 L 133.04 199.68 C 132.43 199.17 131.54 199.25 131.03 199.86 C 130.53 200.46 130.61 201.36 131.21 201.87 L 132.00 202.52 C 132.60 203.03 133.50 202.95 134.01 202.34 C 134.51 201.74 134.43 200.84 133.83 200.33 Z M 133.04 199.68 L 132.45 199.19 C 131.85 198.68 130.95 198.77 130.44 199.37 C 129.94 199.98 130.02 200.87 130.63 201.38 L 131.21 201.87 C 131.82 202.37 132.72 202.29 133.22 201.69 C 133.73 201.08 133.64 200.18 133.04 199.68 Z"
      fill="black"
      fill-rule="nonzero" /></svg>