<svg xmlns="http://www.w3.org/2000/svg" width="300" height="300" viewBox="0 0 300 300">
<path d="M 148.97 110.07 L 148.33 110.84 C 147.82 111.45 147.90 112.35 148.51 112.85 C 149.11 113.35 150.01 113.27 150.52 112.67 L 151.16 111.90 C 151.66 111.29 151.58 110.40 150.97 109.89 C 150.37 109.39 149.47 109.47 148.97 110.07 Z M 148.33 110.84 L 147.69 111.61 C 147.18 112.22 147.26 113.11 147.87 113.62 C 148.47 114.12 149.37 114.04 149.87 113.44 L 150.52 112.67 C 151.02 112.06 150.94 111.16 150.33 110.66 C 149.73 110.16 148.83 110.24 148.33 110.84 Z M 147.69 111.61 L 147.05 112.38 C 146.54 112.98 146.62 113.88 147.23 114.39 C 147.83 114.89 148.73 114.81 149.23 114.20 L 149.87 113.44 C 150.38 112.83 150.30 111.93 149.69 111.43 C 149.09 110.92 148.19 111.01 147.69 111.61 Z M 147.05 112.38 L 146.98 112.46 C 146.48 113.06 146.56 113.96 147.16 114.46 C 147.77 114.97 148.67 114.88 149.17 114.28 L 149.23 114.20 C 149.74 113.60 149.66 112.70 149.05 112.20 C 148.45 111.69 147.55 111.77 147.05 112.38 Z"
      fill="black"
      fill-rule="nonzero" /><path d="M 156.71 95.45 L 156.76 94.45 C 156.80 93.63 156.16 92.93 155.34 92.89 C 154.52 92.85 153.82 93.49 153.78 94.31 L 153.73 95.30 C 153.69 96.13 154.33 96.83 155.15 96.86 C 155.97 96.90 156.67 96.27 156.71 95.45 Z M 156.76 94.49 L 156.84 93.50 C 156.90 92.67 156.28 91.95 155.46 91.89 C 154.63 91.83 153.91 92.45 153.85 93.27 L 153.77 94.27 C 153.71 95.09 154.33 95.81 155.15 95.87 C 155.98 95.94 156.70 95.32 156.76 94.49 Z M 156.84 93.58 L 156.97 92.59 C 157.08 91.76 156.50 91.01 155.67 90.90 C 154.85 90.79 154.09 91.37 153.98 92.19 L 153.85 93.19 C 153.74 94.01 154.32 94.77 155.15 94.88 C 155.97 94.99 156.73 94.41 156.84 93.58 Z M 156.99 92.70 L 157.26 91.39 C 157.43 90.55 156.90 89.74 156.06 89.56 C 155.23 89.39 154.41 89.93 154.24 90.76 L 153.96 92.08 C 153.79 92.91 154.33 93.73 155.16 93.90 C 156.00 94.08 156.81 93.54 156.99 92.70 Z M 157.35 91.32 L 157.44 90.69 C 157.58 89.80 156.97 88.98 156.08 88.84 C 155.20 88.71 154.38 89.32 154.24 90.20 L 154.15 90.83 C 154.02 91.72 154.62 92.54 155.51 92.67 C 156.39 92.81 157.21 92.20 157.35 91.32 Z M 154.48 89.49 L 154.29 89.77 C 153.76 90.52 153.94 91.55 154.69 92.08 C 155.44 92.61 156.48 92.43 157.01 91.68 L 157.20 91.40 C 157.73 90.65 157.55 89.61 156.80 89.08 C 156.05 88.56 155.01 88.74 154.48 89.49 Z M 154.17 89.94 L 153.80 90.64 C 153.37 91.45 153.68 92.46 154.49 92.90 C 155.30 93.33 156.31 93.02 156.75 92.21 L 157.12 91.51 C 157.55 90.69 157.25 89.68 156.43 89.25 C 155.62 88.82 154.61 89.12 154.17 89.94 Z M 153.80 90.64 L 153.24 91.70 C 152.81 92.52 153.12 93.53 153.94 93.96 C 154.75 94.39 155.76 94.08 156.19 93.26 L 156.75 92.20 C 157.18 91.39 156.87 90.38 156.05 89.94 C 155.24 89.51 154.23 89.83 153.80 90.64 Z M 153.25 91.67 L 152.51 93.02 C 152.07 93.82 152.36 94.84 153.17 95.29 C 153.98 95.73 155.00 95.44 155.45 94.63 L 156.18 93.29 C 156.63 92.48 156.33 91.46 155.52 91.01 C 154.71 90.57 153.69 90.86 153.25 91.67 Z M 152.53 92.99 L 152.05 93.83 C 151.59 94.63 151.86 95.65 152.66 96.11 C 153.47 96.57 154.49 96.29 154.95 95.49 L 155.43 94.65 C 155.89 93.85 155.61 92.83 154.81 92.37 C 154.01 91.91 152.99 92.19 152.53 92.99 Z M 152.06 93.81 L 151.54 94.69 C 151.07 95.49 151.33 96.51 152.13 96.98 C 152.93 97.45 153.95 97.19 154.42 96.39 L 154.94 95.51 C 155.41 94.71 155.14 93.69 154.35 93.22 C 153.55 92.75 152.52 93.01 152.06 93.81 Z M 151.54 94.68 L 151.00 95.58 C 150.52 96.37 150.78 97.40 151.57 97.88 C 152.37 98.36 153.39 98.10 153.87 97.31 L 154.41 96.40 C 154.89 95.61 154.63 94.58 153.84 94.11 C 153.05 93.63 152.02 93.89 151.54 94.68 Z M 151.01 95.57 L 150.46 96.47 C 149.97 97.26 150.22 98.29 151.01 98.77 C 151.80 99.26 152.83 99.01 153.31 98.22 L 153.86 97.32 C 154.35 96.53 154.10 95.50 153.31 95.02 C 152.52 94.53 151.49 94.78 151.01 95.57 Z M 150.46 96.46 L 149.92 97.34 C 149.43 98.12 149.68 99.16 150.46 99.64 C 151.25 100.13 152.28 99.89 152.77 99.10 L 153.31 98.23 C 153.80 97.44 153.55 96.41 152.77 95.92 C 151.98 95.43 150.95 95.68 150.46 96.46 Z M 149.93 97.33 L 149.41 98.15 C 148.92 98.94 149.15 99.97 149.94 100.46 C 150.72 100.96 151.75 100.72 152.24 99.94 L 152.76 99.11 C 153.25 98.33 153.02 97.29 152.23 96.80 C 151.45 96.31 150.42 96.55 149.93 97.33 Z M 149.41 98.15 L 148.92 98.92 C 148.42 99.70 148.65 100.74 149.43 101.23 C 150.21 101.73 151.25 101.50 151.75 100.72 L 152.24 99.94 C 152.74 99.16 152.51 98.13 151.73 97.63 C 150.94 97.13 149.91 97.37 149.41 98.15 Z M 148.93 98.91 L 148.23 99.98 C 147.73 100.75 147.95 101.79 148.73 102.29 C 149.50 102.80 150.54 102.58 151.05 101.80 L 151.74 100.73 C 152.24 99.96 152.02 98.92 151.24 98.41 C 150.47 97.91 149.43 98.13 148.93 98.91 Z M 148.25 99.96 L 147.67 100.82 C 147.16 101.59 147.36 102.63 148.13 103.15 C 148.90 103.66 149.94 103.45 150.46 102.68 L 151.03 101.82 C 151.55 101.05 151.34 100.01 150.57 99.50 C 149.80 98.98 148.76 99.19 148.25 99.96 Z M 147.68 100.81 L 147.18 101.53 C 146.66 102.30 146.86 103.34 147.62 103.86 C 148.38 104.38 149.42 104.19 149.95 103.43 L 150.44 102.70 C 150.97 101.94 150.77 100.89 150.01 100.37 C 149.25 99.85 148.20 100.04 147.68 100.81 Z M 147.19 101.52 L 146.73 102.18 C 146.21 102.94 146.39 103.98 147.15 104.51 C 147.91 105.04 148.95 104.85 149.48 104.09 L 149.94 103.44 C 150.47 102.68 150.28 101.64 149.52 101.11 C 148.76 100.58 147.72 100.77 147.19 101.52 Z M 146.74 102.18 L 146.17 102.98 C 145.65 103.74 145.83 104.78 146.58 105.31 C 147.34 105.84 148.38 105.66 148.91 104.90 L 149.48 104.10 C 150.01 103.34 149.82 102.30 149.07 101.77 C 148.31 101.24 147.27 101.42 146.74 102.18 Z M 146.18 102.98 L 145.60 103.80 C 145.07 104.55 145.25 105.59 146.01 106.12 C 146.76 106.65 147.80 106.47 148.33 105.72 L 148.91 104.90 C 149.44 104.15 149.26 103.11 148.51 102.58 C 147.75 102.05 146.71 102.23 146.18 102.98 Z M 145.61 103.79 L 145.03 104.60 C 144.50 105.35 144.67 106.39 145.42 106.93 C 146.17 107.46 147.21 107.29 147.74 106.54 L 148.32 105.72 C 148.86 104.98 148.69 103.94 147.94 103.40 C 147.19 102.87 146.15 103.04 145.61 103.79 Z M 145.04 104.59 L 144.45 105.41 C 143.91 106.15 144.07 107.19 144.82 107.73 C 145.56 108.27 146.60 108.11 147.14 107.36 L 147.73 106.55 C 148.27 105.81 148.11 104.77 147.36 104.23 C 146.62 103.69 145.58 103.85 145.04 104.59 Z M 144.46 105.40 L 143.86 106.21 C 143.32 106.94 143.47 107.98 144.21 108.53 C 144.95 109.07 145.99 108.92 146.53 108.18 L 147.13 107.37 C 147.67 106.63 147.52 105.59 146.78 105.05 C 146.04 104.51 145.00 104.66 144.46 105.40 Z M 143.87 106.20 L 143.27 107.01 C 142.73 107.74 142.88 108.78 143.61 109.32 C 144.35 109.87 145.38 109.72 145.93 108.98 L 146.53 108.18 C 147.07 107.45 146.92 106.41 146.19 105.86 C 145.45 105.32 144.42 105.47 143.87 106.20 Z M 143.28 107.01 L 142.71 107.77 C 142.17 108.50 142.32 109.53 143.05 110.08 C 143.78 110.62 144.82 110.47 145.36 109.74 L 145.93 108.98 C 146.47 108.25 146.32 107.21 145.59 106.67 C 144.86 106.12 143.82 106.28 143.28 107.01 Z M 142.72 107.77 L 142.18 108.50 C 141.63 109.22 141.78 110.26 142.51 110.80 C 143.24 111.34 144.27 111.19 144.82 110.46 L 145.36 109.74 C 145.90 109.01 145.75 107.98 145.02 107.43 C 144.29 106.89 143.26 107.04 142.72 107.77 Z M 142.19 108.49 L 141.60 109.27 C 141.05 110.00 141.20 111.03 141.92 111.57 C 142.64 112.12 143.67 111.97 144.22 111.25 L 144.81 110.47 C 145.35 109.74 145.21 108.71 144.48 108.17 C 143.76 107.62 142.73 107.77 142.19 108.49 Z M 141.61 109.27 L 140.93 110.15 C 140.38 110.87 140.51 111.90 141.23 112.45 C 141.95 113.00 142.97 112.86 143.52 112.14 L 144.20 111.26 C 144.75 110.54 144.62 109.51 143.90 108.96 C 143.19 108.41 142.16 108.55 141.61 109.27 Z M 140.94 110.15 L 140.34 110.92 C 139.79 111.62 139.92 112.65 140.62 113.20 C 141.33 113.76 142.36 113.63 142.91 112.92 L 143.51 112.15 C 144.06 111.44 143.94 110.42 143.23 109.87 C 142.52 109.31 141.50 109.44 140.94 110.15 Z M 140.36 110.91 L 139.75 111.68 C 139.19 112.38 139.31 113.40 140.01 113.96 C 140.71 114.51 141.73 114.40 142.29 113.69 L 142.90 112.92 C 143.45 112.22 143.33 111.20 142.63 110.65 C 141.93 110.09 140.91 110.21 140.36 110.91 Z M 139.76 111.68 L 139.12 112.48 C 138.56 113.18 138.67 114.19 139.37 114.75 C 140.06 115.31 141.08 115.19 141.63 114.50 L 142.28 113.69 C 142.83 113.00 142.72 111.99 142.02 111.43 C 141.33 110.87 140.31 110.99 139.76 111.68 Z M 139.13 112.48 L 138.47 113.29 C 137.92 113.98 138.02 114.99 138.71 115.55 C 139.40 116.10 140.41 116.00 140.97 115.31 L 141.62 114.50 C 142.18 113.81 142.07 112.80 141.38 112.24 C 140.70 111.69 139.69 111.79 139.13 112.48 Z M 138.49 113.29 L 137.84 114.08 C 137.28 114.76 137.38 115.77 138.06 116.32 C 138.74 116.88 139.75 116.78 140.31 116.10 L 140.95 115.31 C 141.51 114.63 141.41 113.62 140.73 113.07 C 140.05 112.51 139.04 112.61 138.49 113.29 Z M 137.85 114.08 L 137.17 114.90 C 136.61 115.57 136.70 116.57 137.37 117.13 C 138.05 117.69 139.05 117.60 139.61 116.93 L 140.29 116.11 C 140.85 115.43 140.76 114.43 140.09 113.87 C 139.41 113.31 138.41 113.40 137.85 114.08 Z M 137.19 114.89 L 136.51 115.69 C 135.94 116.35 136.02 117.35 136.68 117.91 C 137.35 118.48 138.34 118.40 138.91 117.74 L 139.59 116.93 C 140.16 116.27 140.08 115.27 139.41 114.71 C 138.75 114.14 137.75 114.22 137.19 114.89 Z M 136.52 115.68 L 135.87 116.43 C 135.30 117.08 135.37 118.07 136.02 118.64 C 136.68 119.21 137.67 119.14 138.24 118.49 L 138.89 117.74 C 139.46 117.09 139.39 116.10 138.74 115.53 C 138.09 114.96 137.09 115.03 136.52 115.68 Z M 135.89 116.42 L 135.26 117.12 C 134.68 117.77 134.74 118.75 135.38 119.33 C 136.02 119.90 137.01 119.85 137.58 119.21 L 138.22 118.50 C 138.79 117.86 138.74 116.87 138.10 116.30 C 137.45 115.72 136.47 115.78 135.89 116.42 Z M 135.28 117.11 L 134.60 117.85 C 134.02 118.47 134.06 119.46 134.69 120.04 C 135.32 120.62 136.30 120.58 136.88 119.95 L 137.56 119.22 C 138.14 118.59 138.10 117.61 137.47 117.03 C 136.85 116.45 135.86 116.48 135.28 117.11 Z M 134.61 117.85 L 133.75 118.79 C 133.17 119.42 133.21 120.39 133.83 120.97 C 134.46 121.54 135.43 121.51 136.01 120.88 L 136.87 119.94 C 137.45 119.32 137.41 118.35 136.79 117.77 C 136.16 117.19 135.19 117.23 134.61 117.85 Z M 133.67 118.91 L 133.07 119.68 C 132.56 120.35 132.68 121.30 133.35 121.82 C 134.02 122.33 134.98 122.21 135.49 121.54 L 136.09 120.77 C 136.60 120.10 136.47 119.14 135.81 118.63 C 135.14 118.11 134.18 118.24 133.67 118.91 Z M 132.78 120.39 L 132.71 120.90 C 132.58 121.73 133.15 122.50 133.98 122.62 C 134.81 122.75 135.58 122.17 135.71 121.35 L 135.78 120.83 C 135.91 120.00 135.33 119.23 134.51 119.11 C 133.68 118.99 132.91 119.56 132.78 120.39 Z M 133.67 122.56 L 134.37 122.82 C 135.17 123.11 136.05 122.71 136.34 121.92 C 136.63 121.12 136.23 120.24 135.44 119.95 L 134.74 119.69 C 133.95 119.40 133.07 119.80 132.77 120.59 C 132.48 121.38 132.88 122.26 133.67 122.56 Z M 134.47 122.88 L 135.58 123.20 C 136.41 123.44 137.27 122.96 137.51 122.13 C 137.75 121.31 137.27 120.44 136.45 120.20 L 135.34 119.89 C 134.51 119.65 133.65 120.12 133.41 120.95 C 133.17 121.78 133.65 122.64 134.47 122.88 Z M 135.09 122.99 L 135.89 123.56 C 136.60 124.07 137.59 123.91 138.10 123.19 C 138.61 122.48 138.44 121.49 137.73 120.98 L 136.94 120.41 C 136.22 119.91 135.24 120.07 134.73 120.78 C 134.22 121.49 134.38 122.48 135.09 122.99 Z M 135.53 123.24 L 136.12 124.01 C 136.66 124.72 137.66 124.85 138.37 124.32 C 139.07 123.78 139.21 122.77 138.67 122.07 L 138.08 121.30 C 137.55 120.60 136.54 120.46 135.84 121.00 C 135.13 121.53 135.00 122.54 135.53 123.24 Z M 135.95 123.79 L 136.43 124.71 C 136.85 125.51 137.83 125.82 138.62 125.41 C 139.42 125.00 139.73 124.02 139.32 123.22 L 138.84 122.29 C 138.42 121.50 137.44 121.19 136.65 121.60 C 135.85 122.01 135.54 122.99 135.95 123.79 Z M 136.34 124.56 L 136.72 125.54 C 137.05 126.39 138.00 126.81 138.84 126.49 C 139.69 126.16 140.11 125.21 139.79 124.37 L 139.41 123.38 C 139.08 122.53 138.13 122.11 137.29 122.44 C 136.44 122.76 136.02 123.71 136.34 124.56 Z M 136.67 125.43 L 136.95 126.36 C 137.21 127.23 138.13 127.73 139.00 127.47 C 139.88 127.21 140.38 126.29 140.12 125.41 L 139.84 124.48 C 139.58 123.61 138.66 123.11 137.78 123.37 C 136.91 123.63 136.41 124.55 136.67 125.43 Z M 136.92 126.26 L 137.13 127.21 C 137.34 128.10 138.23 128.66 139.12 128.45 C 140.01 128.25 140.57 127.36 140.37 126.47 L 140.15 125.52 C 139.95 124.62 139.06 124.07 138.16 124.27 C 137.27 124.47 136.71 125.36 136.92 126.26 Z M 137.11 127.12 L 137.28 128.11 C 137.44 129.02 138.30 129.63 139.20 129.47 C 140.11 129.31 140.72 128.45 140.56 127.54 L 140.39 126.55 C 140.23 125.65 139.37 125.04 138.47 125.20 C 137.56 125.35 136.95 126.21 137.11 127.12 Z M 137.26 128.05 L 137.40 129.07 C 137.53 129.99 138.37 130.63 139.28 130.51 C 140.20 130.38 140.84 129.54 140.71 128.63 L 140.58 127.61 C 140.45 126.69 139.61 126.05 138.70 126.17 C 137.78 126.29 137.14 127.14 137.26 128.05 Z M 137.39 129.04 L 137.50 129.97 C 137.60 130.89 138.43 131.55 139.35 131.45 C 140.27 131.35 140.93 130.52 140.83 129.60 L 140.72 128.66 C 140.62 127.74 139.79 127.08 138.87 127.18 C 137.95 127.29 137.29 128.12 137.39 129.04 Z M 137.49 129.95 L 137.59 130.93 C 137.67 131.85 138.49 132.53 139.42 132.44 C 140.34 132.35 141.02 131.53 140.93 130.61 L 140.83 129.63 C 140.75 128.70 139.93 128.03 139.00 128.12 C 138.08 128.20 137.40 129.02 137.49 129.95 Z M 137.58 130.91 L 137.67 131.92 C 137.74 132.85 138.56 133.54 139.48 133.46 C 140.41 133.38 141.09 132.57 141.02 131.64 L 140.93 130.63 C 140.85 129.70 140.04 129.02 139.12 129.09 C 138.19 129.17 137.50 129.98 137.58 130.91 Z M 137.66 131.91 L 137.74 132.95 C 137.81 133.88 138.61 134.57 139.54 134.50 C 140.47 134.43 141.17 133.63 141.10 132.70 L 141.02 131.66 C 140.95 130.73 140.14 130.04 139.22 130.10 C 138.29 130.17 137.59 130.98 137.66 131.91 Z M 137.74 132.94 L 137.80 133.95 C 137.87 134.88 138.67 135.59 139.60 135.52 C 140.53 135.46 141.23 134.66 141.17 133.73 L 141.10 132.71 C 141.04 131.78 140.23 131.08 139.31 131.14 C 138.38 131.20 137.67 132.01 137.74 132.94 Z M 137.80 133.94 L 137.86 134.93 C 137.92 135.86 138.72 136.57 139.65 136.51 C 140.58 136.46 141.29 135.66 141.23 134.73 L 141.17 133.74 C 141.11 132.81 140.31 132.10 139.38 132.16 C 138.45 132.21 137.74 133.01 137.80 133.94 Z M 137.86 134.92 L 137.92 135.92 C 137.97 136.85 138.76 137.56 139.70 137.51 C 140.63 137.46 141.34 136.66 141.29 135.73 L 141.23 134.73 C 141.18 133.80 140.38 133.09 139.45 133.14 C 138.52 133.19 137.81 133.99 137.86 134.92 Z M 137.92 135.91 L 137.97 136.91 C 138.01 137.84 138.80 138.56 139.74 138.51 C 140.67 138.46 141.38 137.67 141.34 136.74 L 141.29 135.74 C 141.24 134.81 140.45 134.09 139.52 134.14 C 138.59 134.18 137.87 134.97 137.92 135.91 Z M 137.96 136.90 L 138.01 137.91 C 138.05 138.84 138.84 139.56 139.77 139.52 C 140.70 139.48 141.43 138.69 141.38 137.76 L 141.34 136.75 C 141.30 135.82 140.51 135.09 139.58 135.14 C 138.64 135.18 137.92 135.97 137.96 136.90 Z M 138.01 137.90 L 138.05 138.90 C 138.08 139.83 138.87 140.56 139.80 140.52 C 140.73 140.49 141.46 139.70 141.42 138.77 L 141.38 137.77 C 141.35 136.83 140.56 136.11 139.63 136.15 C 138.70 136.18 137.97 136.97 138.01 137.90 Z M 138.05 138.89 L 138.08 139.88 C 138.12 140.81 138.90 141.54 139.83 141.51 C 140.76 141.48 141.49 140.69 141.46 139.76 L 141.42 138.78 C 141.39 137.84 140.61 137.12 139.68 137.15 C 138.75 137.18 138.02 137.96 138.05 138.89 Z M 138.09 139.88 L 138.12 140.87 C 138.15 141.80 138.93 142.53 139.86 142.50 C 140.79 142.47 141.51 141.69 141.49 140.76 L 141.45 139.77 C 141.42 138.84 140.65 138.11 139.72 138.14 C 138.79 138.17 138.06 138.95 138.09 139.88 Z M 138.12 140.87 L 138.15 141.87 C 138.18 142.80 138.96 143.53 139.89 143.50 C 140.81 143.47 141.54 142.69 141.51 141.77 L 141.48 140.76 C 141.45 139.83 140.68 139.11 139.75 139.13 C 138.82 139.16 138.09 139.94 138.12 140.87 Z M 138.15 141.87 L 138.19 142.88 C 138.22 143.81 138.99 144.54 139.92 144.51 C 140.85 144.48 141.57 143.70 141.54 142.77 L 141.51 141.76 C 141.48 140.84 140.71 140.11 139.78 140.14 C 138.85 140.17 138.12 140.95 138.15 141.87 Z M 138.19 142.89 L 138.23 143.90 C 138.26 144.82 139.04 145.55 139.96 145.51 C 140.89 145.48 141.61 144.70 141.58 143.78 L 141.54 142.77 C 141.51 141.84 140.73 141.12 139.81 141.15 C 138.88 141.18 138.16 141.96 138.19 142.89 Z M 138.23 143.91 L 138.27 144.90 C 138.31 145.83 139.09 146.54 140.01 146.51 C 140.93 146.47 141.65 145.69 141.61 144.77 L 141.57 143.77 C 141.54 142.85 140.76 142.13 139.84 142.17 C 138.91 142.20 138.19 142.98 138.23 143.91 Z M 138.28 144.91 L 138.32 145.91 C 138.36 146.83 139.14 147.54 140.06 147.50 C 140.98 147.46 141.69 146.68 141.65 145.76 L 141.61 144.76 C 141.57 143.84 140.79 143.13 139.87 143.17 C 138.95 143.21 138.24 143.99 138.28 144.91 Z M 138.33 145.92 L 138.38 146.92 C 138.42 147.83 139.20 148.54 140.12 148.50 C 141.03 148.45 141.74 147.67 141.69 146.76 L 141.65 145.75 C 141.60 144.84 140.82 144.13 139.90 144.18 C 138.99 144.22 138.28 145.00 138.33 145.92 Z M 138.38 146.93 L 138.43 147.93 C 138.48 148.84 139.26 149.54 140.18 149.49 C 141.09 149.44 141.79 148.66 141.74 147.75 L 141.69 146.75 C 141.64 145.83 140.86 145.13 139.95 145.18 C 139.03 145.23 138.33 146.01 138.38 146.93 Z M 138.44 147.93 L 138.50 148.93 C 138.55 149.84 139.33 150.53 140.24 150.48 C 141.15 150.43 141.85 149.65 141.79 148.74 L 141.74 147.74 C 141.68 146.83 140.90 146.14 139.99 146.19 C 139.08 146.24 138.39 147.02 138.44 147.93 Z M 138.51 148.94 L 138.58 150.00 C 138.63 150.91 139.41 151.59 140.32 151.54 C 141.22 151.48 141.91 150.70 141.85 149.79 L 141.79 148.73 C 141.73 147.82 140.95 147.14 140.04 147.20 C 139.14 147.25 138.45 148.03 138.51 148.94 Z M 138.59 150.02 L 138.67 151.09 C 138.74 151.99 139.53 152.66 140.42 152.59 C 141.32 152.52 141.99 151.73 141.92 150.84 L 141.84 149.77 C 141.77 148.88 140.99 148.20 140.09 148.27 C 139.19 148.34 138.52 149.13 138.59 150.02 Z M 138.69 151.13 L 138.80 152.15 C 138.89 153.04 139.68 153.68 140.57 153.59 C 141.46 153.50 142.10 152.71 142.01 151.82 L 141.90 150.80 C 141.81 149.91 141.02 149.26 140.13 149.36 C 139.24 149.45 138.60 150.24 138.69 151.13 Z M 138.82 152.21 L 138.96 153.17 C 139.08 154.05 139.90 154.65 140.77 154.53 C 141.65 154.40 142.25 153.59 142.13 152.71 L 141.99 151.75 C 141.86 150.88 141.05 150.27 140.17 150.40 C 139.30 150.53 138.69 151.34 138.82 152.21 Z M 138.99 153.27 L 139.17 154.14 C 139.35 155.00 140.19 155.55 141.05 155.37 C 141.91 155.19 142.46 154.35 142.28 153.49 L 142.10 152.62 C 141.92 151.76 141.08 151.21 140.22 151.39 C 139.36 151.57 138.81 152.41 138.99 153.27 Z M 139.23 154.29 L 139.56 155.32 C 139.83 156.14 140.71 156.60 141.53 156.33 C 142.36 156.07 142.81 155.19 142.54 154.36 L 142.22 153.34 C 141.95 152.51 141.07 152.06 140.25 152.32 C 139.42 152.59 138.97 153.47 139.23 154.29 Z M 139.66 155.49 L 140.09 156.40 C 140.45 157.17 141.36 157.50 142.13 157.14 C 142.90 156.78 143.23 155.87 142.87 155.10 L 142.44 154.19 C 142.08 153.42 141.17 153.09 140.40 153.45 C 139.64 153.81 139.30 154.72 139.66 155.49 Z M 140.19 156.52 L 140.66 157.32 C 141.09 158.04 142.01 158.28 142.72 157.85 C 143.43 157.43 143.67 156.51 143.25 155.80 L 142.77 154.99 C 142.35 154.27 141.43 154.04 140.72 154.46 C 140.00 154.88 139.76 155.80 140.19 156.52 Z M 140.72 157.36 L 141.01 157.82 C 141.46 158.51 142.37 158.71 143.05 158.26 C 143.74 157.82 143.94 156.91 143.50 156.22 L 143.20 155.76 C 142.76 155.08 141.84 154.88 141.16 155.32 C 140.47 155.76 140.27 156.67 140.72 157.36 Z"
      fill="black"
      fill-rule="nonzero" /><path d="M 143.15 122.09 L 142.19 121.26 C 141.53 120.69 140.53 120.76 139.96 121.42 C 139.39 122.09 139.46 123.08 140.12 123.65 L 141.09 124.49 C 141.75 125.06 142.75 124.98 143.32 124.32 C 143.89 123.66 143.82 122.66 143.15 122.09 Z M 142.28 121.31 L 141.49 120.54 C 140.85 119.92 139.84 119.93 139.22 120.56 C 138.60 121.20 138.61 122.21 139.24 122.83 L 140.04 123.60 C 140.67 124.22 141.68 124.21 142.30 123.58 C 142.92 122.94 142.91 121.93 142.28 121.31 Z M 141.72 120.78 L 141.28 120.13 C 140.78 119.38 139.77 119.18 139.02 119.68 C 138.28 120.18 138.08 121.19 138.58 121.94 L 139.02 122.59 C 139.52 123.34 140.53 123.53 141.27 123.03 C 142.02 122.53 142.22 121.52 141.72 120.78 Z M 141.52 121.42 L 141.65 120.92 C 141.86 120.04 141.32 119.15 140.44 118.93 C 139.56 118.72 138.67 119.26 138.46 120.14 L 138.33 120.65 C 138.12 121.53 138.66 122.42 139.54 122.63 C 140.42 122.84 141.31 122.30 141.52 121.42 Z M 140.67 122.05 L 141.46 121.74 C 142.30 121.39 142.70 120.43 142.36 119.59 C 142.01 118.75 141.05 118.34 140.21 118.69 L 139.43 119.01 C 138.59 119.35 138.18 120.31 138.53 121.15 C 138.87 121.99 139.83 122.40 140.67 122.05 Z M 141.09 121.84 L 142.27 121.65 C 143.17 121.50 143.78 120.66 143.64 119.76 C 143.49 118.86 142.65 118.25 141.75 118.40 L 140.57 118.59 C 139.67 118.73 139.06 119.57 139.21 120.47 C 139.35 121.37 140.20 121.98 141.09 121.84 Z M 142.21 121.66 L 143.25 121.53 C 144.15 121.42 144.80 120.60 144.69 119.69 C 144.58 118.79 143.75 118.15 142.85 118.26 L 141.81 118.39 C 140.91 118.50 140.27 119.32 140.38 120.22 C 140.49 121.12 141.31 121.77 142.21 121.66 Z M 143.27 121.52 L 144.16 121.40 C 145.06 121.29 145.70 120.46 145.58 119.56 C 145.46 118.66 144.63 118.03 143.73 118.15 L 142.84 118.27 C 141.94 118.38 141.30 119.21 141.42 120.11 C 141.54 121.01 142.37 121.64 143.27 121.52 Z M 144.19 121.40 L 145.14 121.26 C 146.04 121.13 146.66 120.29 146.53 119.39 C 146.39 118.50 145.56 117.88 144.66 118.01 L 143.71 118.15 C 142.81 118.28 142.19 119.12 142.33 120.02 C 142.46 120.91 143.29 121.53 144.19 121.40 Z M 145.17 121.25 L 146.22 121.08 C 147.11 120.93 147.71 120.09 147.57 119.20 C 147.42 118.30 146.58 117.70 145.68 117.85 L 144.64 118.02 C 143.74 118.16 143.14 119.01 143.29 119.90 C 143.43 120.79 144.28 121.40 145.17 121.25 Z M 146.24 121.07 L 147.34 120.87 C 148.23 120.71 148.82 119.86 148.66 118.97 C 148.50 118.08 147.65 117.49 146.76 117.65 L 145.66 117.85 C 144.77 118.01 144.18 118.86 144.34 119.75 C 144.50 120.64 145.35 121.23 146.24 121.07 Z M 147.36 120.87 L 148.27 120.70 C 149.16 120.52 149.74 119.67 149.57 118.78 C 149.40 117.89 148.54 117.31 147.65 117.48 L 146.74 117.66 C 145.85 117.83 145.27 118.69 145.44 119.57 C 145.61 120.46 146.47 121.04 147.36 120.87 Z M 148.28 120.69 L 149.25 120.50 C 150.14 120.32 150.71 119.46 150.53 118.57 C 150.36 117.69 149.49 117.11 148.61 117.29 L 147.64 117.48 C 146.75 117.66 146.18 118.52 146.36 119.41 C 146.53 120.30 147.40 120.87 148.28 120.69 Z M 149.26 120.50 L 150.26 120.29 C 151.15 120.11 151.72 119.24 151.53 118.35 C 151.35 117.47 150.48 116.90 149.60 117.08 L 148.59 117.29 C 147.71 117.47 147.14 118.34 147.32 119.23 C 147.51 120.11 148.37 120.68 149.26 120.50 Z M 150.27 120.29 L 151.29 120.07 C 152.18 119.88 152.74 119.01 152.55 118.12 C 152.36 117.24 151.49 116.67 150.60 116.86 L 149.58 117.08 C 148.70 117.27 148.13 118.14 148.32 119.03 C 148.51 119.92 149.39 120.48 150.27 120.29 Z M 151.30 120.07 L 152.31 119.85 C 153.20 119.65 153.76 118.78 153.56 117.89 C 153.37 117.01 152.49 116.45 151.60 116.64 L 150.59 116.86 C 149.71 117.06 149.15 117.94 149.34 118.82 C 149.54 119.71 150.41 120.27 151.30 120.07 Z M 152.32 119.85 L 153.31 119.62 C 154.19 119.42 154.75 118.54 154.55 117.66 C 154.35 116.77 153.46 116.22 152.58 116.42 L 151.59 116.64 C 150.71 116.84 150.15 117.72 150.35 118.61 C 150.55 119.50 151.44 120.05 152.32 119.85 Z M 153.32 119.62 L 154.30 119.39 C 155.18 119.19 155.73 118.30 155.53 117.42 C 155.32 116.53 154.43 115.98 153.55 116.19 L 152.57 116.42 C 151.68 116.63 151.13 117.51 151.34 118.40 C 151.55 119.28 152.43 119.83 153.32 119.62 Z M 154.31 119.39 L 155.26 119.17 C 156.15 118.95 156.69 118.06 156.48 117.18 C 156.27 116.29 155.38 115.75 154.49 115.96 L 153.54 116.19 C 152.65 116.40 152.11 117.29 152.32 118.18 C 152.53 119.06 153.42 119.61 154.31 119.39 Z M 155.27 119.17 L 156.21 118.94 C 157.09 118.72 157.64 117.83 157.42 116.94 C 157.21 116.06 156.31 115.51 155.43 115.73 L 154.49 115.96 C 153.60 116.18 153.06 117.07 153.27 117.95 C 153.49 118.84 154.38 119.38 155.27 119.17 Z M 156.21 118.94 L 157.16 118.70 C 158.05 118.49 158.59 117.59 158.37 116.71 C 158.16 115.82 157.26 115.28 156.38 115.50 L 155.43 115.73 C 154.54 115.95 154.00 116.84 154.21 117.73 C 154.43 118.61 155.33 119.16 156.21 118.94 Z M 157.16 118.71 L 158.14 118.47 C 159.03 118.25 159.57 117.36 159.36 116.47 C 159.14 115.58 158.24 115.04 157.36 115.25 L 156.38 115.49 C 155.49 115.71 154.95 116.61 155.16 117.49 C 155.38 118.38 156.28 118.92 157.16 118.71 Z M 158.14 118.47 L 159.16 118.22 C 160.05 118.01 160.60 117.11 160.38 116.22 C 160.17 115.33 159.27 114.79 158.39 115.00 L 157.36 115.25 C 156.47 115.47 155.92 116.36 156.14 117.25 C 156.35 118.14 157.25 118.69 158.14 118.47 Z M 159.16 118.23 L 160.08 118.01 C 160.97 117.80 161.52 116.90 161.31 116.01 C 161.10 115.12 160.21 114.57 159.31 114.78 L 158.39 115.00 C 157.50 115.21 156.95 116.11 157.16 117.00 C 157.37 117.89 158.27 118.44 159.16 118.23 Z M 160.08 118.01 L 161.04 117.79 C 161.93 117.58 162.48 116.68 162.27 115.79 C 162.06 114.89 161.17 114.34 160.28 114.55 L 159.32 114.77 C 158.42 114.98 157.87 115.88 158.08 116.77 C 158.29 117.67 159.18 118.22 160.08 118.01 Z M 161.03 117.79 L 162.02 117.56 C 162.91 117.36 163.47 116.46 163.26 115.56 C 163.05 114.67 162.16 114.11 161.26 114.32 L 160.28 114.54 C 159.38 114.75 158.82 115.65 159.03 116.55 C 159.24 117.44 160.14 118.00 161.03 117.79 Z M 162.01 117.57 L 163.01 117.34 C 163.91 117.13 164.47 116.24 164.26 115.34 C 164.06 114.44 163.16 113.88 162.26 114.08 L 161.26 114.31 C 160.36 114.52 159.80 115.42 160.01 116.32 C 160.22 117.21 161.11 117.78 162.01 117.57 Z M 163.01 117.34 L 164.01 117.12 C 164.91 116.91 165.47 116.01 165.27 115.11 C 165.06 114.21 164.16 113.64 163.26 113.85 L 162.26 114.08 C 161.36 114.28 160.80 115.18 161.00 116.08 C 161.21 116.99 162.11 117.55 163.01 117.34 Z M 164.01 117.12 L 165.00 116.89 C 165.90 116.69 166.47 115.79 166.26 114.89 C 166.06 113.98 165.16 113.41 164.25 113.62 L 163.26 113.85 C 162.36 114.05 161.79 114.95 162.00 115.85 C 162.20 116.76 163.10 117.33 164.01 117.12 Z M 165.00 116.90 L 165.97 116.68 C 166.88 116.47 167.44 115.57 167.24 114.67 C 167.03 113.76 166.13 113.19 165.23 113.40 L 164.26 113.62 C 163.35 113.82 162.78 114.72 162.98 115.63 C 163.19 116.54 164.09 117.10 165.00 116.90 Z M 165.96 116.70 L 167.26 116.41 C 168.18 116.21 168.76 115.30 168.56 114.39 C 168.35 113.47 167.45 112.89 166.53 113.09 L 165.23 113.38 C 164.32 113.58 163.74 114.49 163.94 115.40 C 164.14 116.32 165.05 116.90 165.96 116.70 Z M 167.20 116.46 L 168.40 116.24 C 169.34 116.07 169.97 115.17 169.80 114.23 C 169.63 113.29 168.73 112.66 167.79 112.83 L 166.59 113.05 C 165.65 113.22 165.02 114.12 165.19 115.06 C 165.36 116.00 166.26 116.63 167.20 116.46 Z M 168.22 116.30 L 169.22 116.22 C 170.19 116.15 170.92 115.31 170.85 114.34 C 170.78 113.37 169.94 112.64 168.97 112.71 L 167.97 112.78 C 167.00 112.85 166.27 113.69 166.34 114.66 C 166.41 115.64 167.25 116.37 168.22 116.30 Z M 168.76 116.23 L 169.49 116.37 C 170.47 116.55 171.40 115.91 171.59 114.93 C 171.77 113.96 171.13 113.02 170.15 112.84 L 169.43 112.70 C 168.45 112.52 167.51 113.16 167.33 114.13 C 167.15 115.11 167.79 116.05 168.76 116.23 Z M 168.49 115.85 L 168.88 116.27 C 169.57 117.00 170.73 117.04 171.46 116.34 C 172.20 115.65 172.23 114.49 171.54 113.76 L 171.15 113.35 C 170.46 112.61 169.30 112.58 168.57 113.27 C 167.83 113.96 167.80 115.12 168.49 115.85 Z M 168.37 115.09 L 168.39 115.70 C 168.43 116.72 169.29 117.51 170.31 117.47 C 171.33 117.43 172.12 116.57 172.08 115.55 L 172.05 114.94 C 172.01 113.92 171.16 113.13 170.14 113.17 C 169.12 113.21 168.33 114.07 168.37 115.09 Z M 168.45 115.15 L 168.23 115.95 C 167.97 116.94 168.55 117.95 169.54 118.22 C 170.52 118.48 171.54 117.90 171.80 116.91 L 172.02 116.10 C 172.28 115.12 171.70 114.10 170.71 113.84 C 169.73 113.57 168.71 114.16 168.45 115.15 Z M 168.31 115.73 L 167.92 116.68 C 167.53 117.62 167.98 118.70 168.92 119.09 C 169.87 119.48 170.95 119.03 171.34 118.08 L 171.73 117.14 C 172.12 116.19 171.67 115.11 170.72 114.72 C 169.78 114.33 168.69 114.78 168.31 115.73 Z M 167.96 116.58 L 167.46 117.61 C 167.02 118.53 167.40 119.64 168.33 120.08 C 169.25 120.53 170.36 120.14 170.80 119.22 L 171.30 118.18 C 171.74 117.26 171.35 116.16 170.43 115.71 C 169.51 115.27 168.40 115.66 167.96 116.58 Z M 167.48 117.58 L 166.94 118.63 C 166.48 119.55 166.84 120.66 167.75 121.13 C 168.67 121.59 169.78 121.23 170.25 120.31 L 170.78 119.25 C 171.25 118.34 170.88 117.22 169.97 116.76 C 169.06 116.30 167.94 116.66 167.48 117.58 Z M 166.93 118.65 L 166.42 119.69 C 165.96 120.61 166.34 121.72 167.25 122.17 C 168.17 122.63 169.29 122.25 169.74 121.34 L 170.26 120.30 C 170.71 119.38 170.34 118.27 169.42 117.81 C 168.50 117.35 167.39 117.73 166.93 118.65 Z M 166.39 119.74 L 165.93 120.74 C 165.51 121.67 165.92 122.77 166.85 123.20 C 167.78 123.62 168.89 123.21 169.31 122.28 L 169.77 121.28 C 170.19 120.35 169.78 119.25 168.85 118.82 C 167.92 118.40 166.82 118.81 166.39 119.74 Z M 165.91 120.81 L 165.52 121.75 C 165.13 122.70 165.58 123.78 166.53 124.17 C 167.48 124.56 168.56 124.11 168.95 123.16 L 169.34 122.21 C 169.72 121.27 169.27 120.19 168.33 119.80 C 167.38 119.41 166.30 119.86 165.91 120.81 Z M 165.50 121.82 L 165.16 122.74 C 164.81 123.70 165.31 124.76 166.27 125.11 C 167.23 125.46 168.29 124.96 168.64 124.00 L 168.97 123.09 C 169.32 122.13 168.83 121.07 167.87 120.72 C 166.91 120.37 165.85 120.86 165.50 121.82 Z M 165.14 122.80 L 164.85 123.70 C 164.54 124.67 165.08 125.71 166.05 126.03 C 167.02 126.34 168.06 125.80 168.37 124.83 L 168.66 123.93 C 168.97 122.96 168.44 121.92 167.47 121.61 C 166.50 121.30 165.46 121.83 165.14 122.80 Z M 164.84 123.76 L 164.58 124.67 C 164.30 125.65 164.87 126.67 165.85 126.94 C 166.83 127.22 167.85 126.65 168.13 125.67 L 168.39 124.77 C 168.66 123.79 168.10 122.77 167.12 122.49 C 166.14 122.22 165.12 122.78 164.84 123.76 Z M 164.57 124.72 L 164.34 125.63 C 164.09 126.62 164.68 127.62 165.67 127.87 C 166.66 128.12 167.66 127.53 167.91 126.54 L 168.14 125.62 C 168.39 124.64 167.80 123.64 166.81 123.39 C 165.82 123.13 164.82 123.73 164.57 124.72 Z M 164.33 125.68 L 164.11 126.62 C 163.89 127.61 164.51 128.60 165.50 128.83 C 166.49 129.05 167.48 128.43 167.71 127.44 L 167.92 126.50 C 168.15 125.51 167.52 124.52 166.53 124.29 C 165.54 124.07 164.55 124.69 164.33 125.68 Z M 164.10 126.66 L 163.91 127.63 C 163.70 128.63 164.35 129.60 165.35 129.81 C 166.34 130.01 167.32 129.36 167.52 128.37 L 167.72 127.40 C 167.92 126.40 167.27 125.43 166.27 125.22 C 165.28 125.02 164.30 125.67 164.10 126.66 Z M 163.90 127.67 L 163.72 128.67 C 163.54 129.67 164.21 130.63 165.21 130.81 C 166.21 130.99 167.17 130.32 167.35 129.32 L 167.53 128.32 C 167.71 127.32 167.04 126.36 166.04 126.18 C 165.03 126.00 164.08 126.67 163.90 127.67 Z M 163.71 128.71 L 163.55 129.73 C 163.40 130.74 164.09 131.68 165.09 131.84 C 166.10 131.99 167.04 131.30 167.20 130.29 L 167.36 129.28 C 167.51 128.27 166.82 127.33 165.82 127.17 C 164.81 127.01 163.87 127.70 163.71 128.71 Z M 163.55 129.77 L 163.41 130.81 C 163.27 131.82 163.99 132.75 165.00 132.88 C 166.01 133.01 166.93 132.30 167.07 131.29 L 167.21 130.25 C 167.34 129.24 166.63 128.32 165.62 128.18 C 164.61 128.05 163.68 128.76 163.55 129.77 Z M 163.40 130.85 L 163.29 131.89 C 163.17 132.90 163.91 133.82 164.92 133.93 C 165.93 134.04 166.85 133.31 166.96 132.30 L 167.07 131.25 C 167.19 130.24 166.46 129.33 165.44 129.22 C 164.43 129.10 163.52 129.83 163.40 130.85 Z M 163.28 131.92 L 163.19 132.97 C 163.09 133.98 163.84 134.88 164.85 134.98 C 165.87 135.07 166.77 134.33 166.86 133.31 L 166.96 132.27 C 167.06 131.25 166.31 130.35 165.29 130.26 C 164.28 130.16 163.38 130.91 163.28 131.92 Z M 163.18 133.00 L 163.10 134.02 C 163.03 135.04 163.79 135.93 164.80 136.01 C 165.82 136.09 166.71 135.33 166.79 134.31 L 166.87 133.28 C 166.95 132.26 166.19 131.38 165.17 131.30 C 164.15 131.22 163.26 131.98 163.18 133.00 Z M 163.10 134.05 L 163.04 135.04 C 162.97 136.06 163.75 136.94 164.76 137.00 C 165.78 137.07 166.66 136.29 166.73 135.28 L 166.79 134.28 C 166.86 133.27 166.08 132.39 165.06 132.32 C 164.05 132.26 163.17 133.03 163.10 134.05 Z M 163.04 135.06 L 162.99 136.00 C 162.93 137.02 163.72 137.89 164.74 137.94 C 165.76 137.99 166.63 137.21 166.68 136.19 L 166.73 135.25 C 166.78 134.23 166.00 133.37 164.98 133.31 C 163.96 133.26 163.09 134.04 163.04 135.06 Z M 162.99 136.02 L 162.95 137.02 C 162.90 138.04 163.70 138.90 164.72 138.94 C 165.74 138.98 166.60 138.19 166.64 137.17 L 166.68 136.17 C 166.72 135.15 165.93 134.29 164.91 134.25 C 163.89 134.21 163.03 135.00 162.99 136.02 Z M 162.94 137.05 L 162.91 138.12 C 162.89 139.14 163.69 139.99 164.71 140.01 C 165.73 140.04 166.58 139.24 166.61 138.22 L 166.64 137.15 C 166.67 136.13 165.86 135.28 164.84 135.25 C 163.82 135.22 162.97 136.02 162.94 137.05 Z M 162.91 138.14 L 162.90 139.12 C 162.88 140.14 163.70 140.98 164.72 140.99 C 165.75 141.01 166.59 140.19 166.60 139.17 L 166.61 138.19 C 166.63 137.17 165.81 136.33 164.79 136.32 C 163.77 136.30 162.93 137.12 162.91 138.14 Z M 162.90 139.14 L 162.89 140.07 C 162.89 141.09 163.71 141.92 164.74 141.93 C 165.76 141.93 166.59 141.11 166.60 140.08 L 166.60 139.15 C 166.61 138.13 165.78 137.30 164.76 137.29 C 163.74 137.29 162.90 138.11 162.90 139.14 Z M 162.89 140.08 L 162.89 141.00 C 162.89 142.03 163.72 142.86 164.74 142.86 C 165.77 142.86 166.60 142.03 166.60 141.01 L 166.60 140.08 C 166.60 139.05 165.77 138.22 164.75 138.22 C 163.72 138.22 162.89 139.05 162.89 140.08 Z M 162.89 141.01 L 162.89 141.96 C 162.89 142.98 163.72 143.81 164.75 143.81 C 165.77 143.81 166.60 142.98 166.60 141.96 L 166.60 141.00 C 166.60 139.98 165.77 139.15 164.74 139.15 C 163.72 139.15 162.89 139.98 162.89 141.01 Z M 162.89 141.96 L 162.89 142.95 C 162.89 143.98 163.73 144.81 164.75 144.80 C 165.78 144.80 166.61 143.97 166.61 142.94 L 166.61 141.95 C 166.60 140.92 165.77 140.09 164.74 140.10 C 163.71 140.10 162.88 140.94 162.89 141.96 Z M 162.89 142.96 L 162.89 143.99 C 162.90 145.01 163.74 145.84 164.77 145.84 C 165.80 145.83 166.63 144.99 166.62 143.96 L 166.61 142.93 C 166.60 141.90 165.76 141.07 164.74 141.08 C 163.71 141.09 162.88 141.93 162.89 142.96 Z M 162.89 144.00 L 162.90 145.04 C 162.92 146.07 163.76 146.90 164.79 146.89 C 165.82 146.87 166.65 146.03 166.64 145.00 L 166.62 143.95 C 166.61 142.92 165.76 142.09 164.73 142.11 C 163.70 142.12 162.88 142.97 162.89 144.00 Z M 162.90 145.06 L 162.92 146.03 C 162.94 147.07 163.79 147.89 164.82 147.87 C 165.86 147.85 166.68 146.99 166.66 145.96 L 166.64 144.98 C 166.62 143.95 165.77 143.13 164.73 143.15 C 163.70 143.17 162.88 144.02 162.90 145.06 Z M 162.92 146.05 L 162.95 147.05 C 162.97 148.08 163.84 148.90 164.87 148.87 C 165.90 148.84 166.71 147.98 166.69 146.95 L 166.66 145.95 C 166.63 144.91 165.77 144.10 164.74 144.13 C 163.70 144.16 162.89 145.02 162.92 146.05 Z M 162.95 147.07 L 162.98 148.08 C 163.02 149.12 163.89 149.92 164.93 149.88 C 165.96 149.84 166.77 148.97 166.73 147.94 L 166.69 146.93 C 166.65 145.89 165.78 145.09 164.74 145.13 C 163.71 145.17 162.91 146.04 162.95 147.07 Z M 162.98 148.11 L 163.04 149.12 C 163.09 150.15 163.97 150.95 165.01 150.89 C 166.04 150.84 166.83 149.96 166.78 148.92 L 166.73 147.91 C 166.67 146.88 165.79 146.08 164.76 146.14 C 163.72 146.19 162.93 147.08 162.98 148.11 Z M 163.04 149.15 L 163.11 150.16 C 163.18 151.19 164.08 151.97 165.11 151.90 C 166.14 151.83 166.92 150.93 166.85 149.90 L 166.78 148.89 C 166.71 147.86 165.81 147.08 164.78 147.15 C 163.74 147.22 162.97 148.12 163.04 149.15 Z M 163.11 150.19 L 163.20 151.20 C 163.29 152.23 164.20 152.99 165.23 152.90 C 166.27 152.81 167.03 151.90 166.94 150.87 L 166.85 149.86 C 166.76 148.83 165.85 148.07 164.81 148.16 C 163.78 148.25 163.02 149.16 163.11 150.19 Z M 163.20 151.23 L 163.30 152.22 C 163.41 153.25 164.33 154.00 165.37 153.89 C 166.40 153.79 167.15 152.86 167.04 151.83 L 166.94 150.84 C 166.83 149.81 165.91 149.06 164.87 149.16 C 163.84 149.27 163.09 150.20 163.20 151.23 Z M 163.30 152.24 L 163.42 153.23 C 163.54 154.26 164.47 155.00 165.50 154.88 C 166.53 154.76 167.27 153.82 167.15 152.79 L 167.04 151.81 C 166.92 150.78 165.98 150.04 164.95 150.16 C 163.92 150.28 163.18 151.21 163.30 152.24 Z M 163.42 153.25 L 163.54 154.23 C 163.67 155.26 164.62 155.99 165.65 155.86 C 166.68 155.73 167.41 154.79 167.28 153.76 L 167.15 152.78 C 167.02 151.75 166.08 151.02 165.05 151.15 C 164.02 151.28 163.29 152.22 163.42 153.25 Z M 163.54 154.24 L 163.67 155.22 C 163.81 156.25 164.76 156.98 165.79 156.84 C 166.82 156.70 167.54 155.76 167.41 154.73 L 167.28 153.75 C 167.14 152.72 166.19 152.00 165.16 152.13 C 164.13 152.27 163.41 153.21 163.54 154.24 Z M 163.67 155.23 L 163.81 156.21 C 163.95 157.24 164.90 157.96 165.93 157.82 C 166.96 157.68 167.68 156.73 167.54 155.70 L 167.41 154.72 C 167.27 153.69 166.32 152.97 165.29 153.11 C 164.25 153.25 163.53 154.20 163.67 155.23 Z M 163.81 156.22 L 163.94 157.20 C 164.09 158.24 165.04 158.96 166.07 158.81 C 167.10 158.67 167.82 157.72 167.68 156.69 L 167.54 155.70 C 167.40 154.67 166.45 153.95 165.41 154.09 C 164.38 154.23 163.66 155.18 163.81 156.22 Z M 163.94 157.21 L 164.08 158.21 C 164.23 159.24 165.18 159.96 166.21 159.81 C 167.24 159.67 167.96 158.72 167.82 157.68 L 167.68 156.68 C 167.53 155.65 166.58 154.93 165.55 155.08 C 164.52 155.22 163.80 156.18 163.94 157.21 Z M 164.08 158.21 L 164.22 159.21 C 164.36 160.24 165.32 160.96 166.35 160.82 C 167.38 160.67 168.10 159.72 167.96 158.69 L 167.82 157.68 C 167.68 156.65 166.72 155.93 165.69 156.08 C 164.66 156.22 163.94 157.17 164.08 158.21 Z M 164.22 159.21 L 164.35 160.19 C 164.50 161.22 165.45 161.94 166.48 161.80 C 167.52 161.66 168.24 160.70 168.10 159.67 L 167.96 158.69 C 167.82 157.66 166.87 156.94 165.83 157.08 C 164.80 157.22 164.08 158.17 164.22 159.21 Z M 164.35 160.18 L 164.49 161.17 C 164.63 162.21 165.58 162.93 166.62 162.79 C 167.65 162.65 168.37 161.69 168.23 160.66 L 168.10 159.67 C 167.96 158.64 167.00 157.91 165.97 158.06 C 164.93 158.20 164.21 159.15 164.35 160.18 Z M 164.49 161.17 L 164.62 162.17 C 164.76 163.20 165.71 163.93 166.75 163.78 C 167.79 163.64 168.51 162.69 168.37 161.66 L 168.23 160.66 C 168.09 159.63 167.14 158.90 166.11 159.04 C 165.07 159.18 164.35 160.14 164.49 161.17 Z M 164.62 162.16 L 164.75 163.16 C 164.89 164.20 165.85 164.92 166.88 164.78 C 167.92 164.64 168.65 163.69 168.51 162.65 L 168.37 161.66 C 168.23 160.62 167.28 159.89 166.24 160.03 C 165.21 160.17 164.48 161.13 164.62 162.16 Z M 164.75 163.16 L 164.89 164.16 C 165.03 165.20 165.98 165.92 167.02 165.78 C 168.06 165.64 168.78 164.69 168.64 163.65 L 168.51 162.65 C 168.37 161.62 167.41 160.89 166.38 161.03 C 165.34 161.17 164.61 162.12 164.75 163.16 Z M 164.89 164.16 L 165.02 165.16 C 165.16 166.19 166.12 166.92 167.15 166.78 C 168.19 166.64 168.92 165.69 168.78 164.65 L 168.64 163.65 C 168.50 162.62 167.55 161.89 166.51 162.03 C 165.47 162.17 164.75 163.12 164.89 164.16 Z M 165.02 165.15 L 165.15 166.15 C 165.29 167.19 166.24 167.92 167.28 167.78 C 168.32 167.64 169.05 166.68 168.91 165.65 L 168.78 164.65 C 168.64 163.61 167.69 162.88 166.65 163.02 C 165.61 163.16 164.88 164.11 165.02 165.15 Z M 165.15 166.14 L 165.28 167.14 C 165.42 168.18 166.37 168.91 167.41 168.77 C 168.45 168.63 169.18 167.68 169.05 166.64 L 168.92 165.65 C 168.78 164.61 167.83 163.88 166.79 164.01 C 165.75 164.15 165.01 165.10 165.15 166.14 Z M 165.28 167.13 L 165.40 168.12 C 165.54 169.16 166.49 169.90 167.53 169.76 C 168.57 169.63 169.31 168.68 169.17 167.63 L 169.05 166.65 C 168.91 165.61 167.96 164.87 166.92 165.00 C 165.88 165.14 165.14 166.09 165.28 167.13 Z M 165.40 168.11 L 165.52 169.10 C 165.65 170.14 166.60 170.88 167.65 170.75 C 168.69 170.62 169.43 169.67 169.30 168.63 L 169.18 167.64 C 169.05 166.60 168.10 165.86 167.06 165.99 C 166.01 166.12 165.27 167.07 165.40 168.11 Z M 165.52 169.09 L 165.64 170.07 C 165.76 171.12 166.71 171.86 167.75 171.74 C 168.80 171.61 169.54 170.67 169.42 169.62 L 169.30 168.64 C 169.18 167.59 168.23 166.85 167.19 166.97 C 166.14 167.10 165.40 168.04 165.52 169.09 Z M 165.64 170.07 L 165.75 171.05 C 165.87 172.10 166.82 172.85 167.86 172.73 C 168.91 172.61 169.66 171.66 169.53 170.62 L 169.42 169.63 C 169.30 168.59 168.36 167.84 167.31 167.96 C 166.27 168.08 165.52 169.02 165.64 170.07 Z M 165.75 171.05 L 165.86 172.04 C 165.98 173.08 166.92 173.84 167.97 173.72 C 169.01 173.60 169.76 172.66 169.65 171.62 L 169.54 170.62 C 169.42 169.58 168.48 168.82 167.43 168.94 C 166.39 169.06 165.63 170.00 165.75 171.05 Z M 165.86 172.03 L 165.97 173.04 C 166.08 174.08 167.02 174.84 168.07 174.72 C 169.12 174.61 169.87 173.67 169.76 172.62 L 169.65 171.62 C 169.54 170.57 168.59 169.82 167.55 169.93 C 166.50 170.05 165.74 170.99 165.86 172.03 Z M 165.97 173.03 L 166.07 174.05 C 166.19 175.10 167.13 175.85 168.17 175.74 C 169.22 175.63 169.98 174.69 169.87 173.64 L 169.76 172.63 C 169.65 171.58 168.71 170.82 167.66 170.93 C 166.61 171.04 165.85 171.98 165.97 173.03 Z M 166.07 174.04 L 166.18 175.07 C 166.29 176.12 167.23 176.88 168.28 176.77 C 169.33 176.66 170.09 175.72 169.98 174.67 L 169.87 173.65 C 169.76 172.60 168.82 171.84 167.77 171.95 C 166.72 172.06 165.96 173.00 166.07 174.04 Z M 166.18 175.06 L 166.28 176.08 C 166.39 177.13 167.33 177.90 168.38 177.79 C 169.43 177.68 170.19 176.74 170.08 175.70 L 169.98 174.68 C 169.87 173.63 168.93 172.86 167.88 172.97 C 166.84 173.08 166.07 174.02 166.18 175.06 Z M 166.28 176.08 L 166.38 177.07 C 166.48 178.12 167.42 178.89 168.47 178.79 C 169.52 178.68 170.29 177.75 170.18 176.70 L 170.08 175.70 C 169.98 174.65 169.05 173.88 167.99 173.99 C 166.94 174.09 166.18 175.03 166.28 176.08 Z M 166.38 177.07 L 166.47 178.02 C 166.57 179.07 167.50 179.85 168.55 179.75 C 169.60 179.65 170.37 178.71 170.27 177.66 L 170.18 176.71 C 170.09 175.65 169.15 174.88 168.10 174.98 C 167.05 175.08 166.28 176.01 166.38 177.07 Z M 166.47 178.01 L 166.56 179.05 C 166.65 180.10 167.58 180.88 168.63 180.78 C 169.68 180.69 170.46 179.76 170.37 178.71 L 170.28 177.67 C 170.18 176.62 169.25 175.84 168.20 175.94 C 167.15 176.03 166.37 176.96 166.47 178.01 Z M 166.56 179.03 L 166.64 180.08 C 166.73 181.13 167.65 181.91 168.70 181.83 C 169.76 181.74 170.54 180.82 170.46 179.77 L 170.37 178.72 C 170.28 177.67 169.36 176.88 168.31 176.97 C 167.25 177.06 166.47 177.98 166.56 179.03 Z M 166.64 180.07 L 166.72 181.05 C 166.80 182.10 167.72 182.89 168.77 182.81 C 169.83 182.73 170.61 181.81 170.53 180.75 L 170.46 179.77 C 170.38 178.72 169.46 177.93 168.40 178.01 C 167.35 178.09 166.56 179.01 166.64 180.07 Z M 166.71 181.04 L 166.78 181.97 C 166.86 183.02 167.78 183.81 168.84 183.74 C 169.89 183.66 170.68 182.74 170.60 181.68 L 170.53 180.76 C 170.45 179.70 169.54 178.91 168.48 178.99 C 167.43 179.07 166.64 179.99 166.71 181.04 Z M 166.78 181.97 L 166.85 182.90 C 166.93 183.95 167.85 184.74 168.91 184.66 C 169.96 184.58 170.75 183.66 170.67 182.61 L 170.60 181.68 C 170.52 180.63 169.60 179.84 168.55 179.92 C 167.49 180.00 166.70 180.92 166.78 181.97 Z M 166.85 182.90 L 166.92 183.84 C 167.00 184.90 167.92 185.69 168.98 185.61 C 170.03 185.53 170.82 184.61 170.75 183.56 L 170.67 182.61 C 170.59 181.56 169.67 180.76 168.62 180.84 C 167.56 180.92 166.77 181.84 166.85 182.90 Z M 166.92 183.84 L 166.99 184.83 C 167.07 185.89 167.99 186.68 169.04 186.61 C 170.10 186.53 170.89 185.61 170.82 184.56 L 170.75 183.56 C 170.67 182.51 169.75 181.71 168.70 181.79 C 167.64 181.86 166.85 182.78 166.92 183.84 Z M 166.99 184.82 L 167.06 185.91 C 167.13 186.97 168.05 187.77 169.10 187.70 C 170.16 187.63 170.96 186.72 170.89 185.66 L 170.82 184.57 C 170.75 183.51 169.84 182.71 168.78 182.78 C 167.73 182.85 166.92 183.76 166.99 184.82 Z M 167.06 185.90 L 167.12 186.84 C 167.18 187.89 168.09 188.70 169.14 188.64 C 170.20 188.58 171.01 187.67 170.95 186.61 L 170.89 185.68 C 170.83 184.62 169.92 183.81 168.87 183.87 C 167.81 183.94 167.00 184.84 167.06 185.90 Z M 167.12 186.83 L 167.17 187.82 C 167.23 188.88 168.13 189.69 169.19 189.63 C 170.24 189.58 171.05 188.68 171.00 187.62 L 170.95 186.62 C 170.89 185.57 169.99 184.76 168.93 184.81 C 167.87 184.87 167.06 185.77 167.12 186.83 Z M 167.17 187.81 L 167.22 188.84 C 167.27 189.89 168.16 190.71 169.22 190.66 C 170.28 190.61 171.10 189.71 171.05 188.66 L 171.00 187.63 C 170.95 186.57 170.05 185.76 169.00 185.81 C 167.94 185.85 167.12 186.75 167.17 187.81 Z M 167.22 188.82 L 167.26 189.85 C 167.30 190.91 168.19 191.73 169.25 191.69 C 170.31 191.65 171.13 190.76 171.09 189.70 L 171.05 188.67 C 171.01 187.61 170.12 186.79 169.06 186.83 C 168.00 186.87 167.18 187.76 167.22 188.82 Z M 167.26 189.83 L 167.29 190.89 C 167.32 191.95 168.21 192.78 169.26 192.75 C 170.32 192.72 171.15 191.84 171.12 190.78 L 171.09 189.72 C 171.06 188.66 170.17 187.83 169.12 187.86 C 168.06 187.89 167.23 188.78 167.26 189.83 Z M 167.29 190.84 L 167.30 192.04 C 167.30 193.10 168.16 193.95 169.22 193.95 C 170.28 193.94 171.13 193.08 171.13 192.03 L 171.12 190.83 C 171.12 189.77 170.26 188.92 169.20 188.92 C 168.14 188.93 167.29 189.79 167.29 190.84 Z M 167.30 191.88 L 167.22 192.91 C 167.13 193.97 167.91 194.89 168.96 194.98 C 170.02 195.07 170.94 194.28 171.03 193.23 L 171.12 192.19 C 171.20 191.14 170.42 190.22 169.37 190.13 C 168.32 190.04 167.39 190.82 167.30 191.88 Z M 167.29 192.53 L 167.05 193.34 C 166.75 194.35 167.33 195.41 168.34 195.71 C 169.36 196.01 170.42 195.43 170.72 194.42 L 170.96 193.61 C 171.25 192.60 170.68 191.54 169.66 191.24 C 168.65 190.94 167.59 191.52 167.29 192.53 Z M 167.49 192.57 L 166.98 193.12 C 166.26 193.89 166.30 195.10 167.07 195.82 C 167.84 196.54 169.05 196.50 169.77 195.73 L 170.28 195.19 C 171.00 194.42 170.96 193.21 170.19 192.49 C 169.42 191.76 168.21 191.80 167.49 192.57 Z M 167.99 192.55 L 167.12 192.73 C 166.09 192.95 165.42 193.96 165.64 194.99 C 165.85 196.03 166.86 196.69 167.90 196.48 L 168.76 196.30 C 169.80 196.08 170.46 195.07 170.25 194.04 C 170.03 193.00 169.02 192.34 167.99 192.55 Z M 167.79 192.71 L 166.73 192.55 C 165.68 192.40 164.71 193.12 164.56 194.17 C 164.40 195.22 165.13 196.19 166.18 196.34 L 167.23 196.50 C 168.28 196.65 169.25 195.93 169.40 194.88 C 169.56 193.84 168.83 192.86 167.79 192.71 Z M 167.03 192.62 L 166.02 192.30 C 165.02 191.98 163.94 192.54 163.62 193.55 C 163.30 194.56 163.86 195.64 164.87 195.96 L 165.87 196.28 C 166.88 196.60 167.96 196.04 168.28 195.03 C 168.60 194.02 168.04 192.94 167.03 192.62 Z M 166.19 192.37 L 165.32 192.00 C 164.35 191.59 163.23 192.04 162.82 193.02 C 162.41 193.99 162.86 195.11 163.83 195.52 L 164.70 195.89 C 165.67 196.30 166.79 195.85 167.20 194.87 C 167.61 193.90 167.16 192.78 166.19 192.37 Z M 165.45 192.08 L 164.58 191.62 C 163.65 191.14 162.50 191.50 162.02 192.42 C 161.53 193.35 161.89 194.50 162.82 194.99 L 163.70 195.44 C 164.63 195.93 165.77 195.57 166.26 194.64 C 166.74 193.71 166.38 192.56 165.45 192.08 Z M 164.69 191.70 L 163.80 191.14 C 162.91 190.60 161.75 190.87 161.20 191.76 C 160.65 192.64 160.92 193.81 161.81 194.35 L 162.71 194.91 C 163.59 195.46 164.76 195.18 165.30 194.30 C 165.85 193.41 165.58 192.25 164.69 191.70 Z M 163.89 191.22 L 163.04 190.62 C 162.19 190.02 161.02 190.22 160.42 191.07 C 159.83 191.92 160.03 193.09 160.88 193.68 L 161.72 194.28 C 162.57 194.88 163.74 194.68 164.34 193.83 C 164.93 192.98 164.73 191.81 163.89 191.22 Z M 163.10 190.68 L 162.29 190.06 C 161.48 189.43 160.31 189.58 159.68 190.39 C 159.05 191.20 159.20 192.37 160.01 193.00 L 160.82 193.62 C 161.63 194.25 162.80 194.10 163.43 193.29 C 164.06 192.48 163.91 191.31 163.10 190.68 Z M 162.33 190.11 L 161.54 189.45 C 160.75 188.80 159.59 188.91 158.94 189.70 C 158.29 190.48 158.40 191.65 159.18 192.30 L 159.98 192.95 C 160.76 193.61 161.93 193.50 162.58 192.71 C 163.23 191.92 163.12 190.76 162.33 190.11 Z M 161.57 189.49 L 160.81 188.83 C 160.05 188.16 158.89 188.24 158.22 189.00 C 157.56 189.77 157.63 190.93 158.40 191.59 L 159.16 192.26 C 159.92 192.92 161.08 192.84 161.74 192.08 C 162.41 191.32 162.33 190.16 161.57 189.49 Z M 160.83 188.87 L 160.12 188.22 C 159.38 187.54 158.23 187.59 157.55 188.33 C 156.87 189.07 156.92 190.22 157.66 190.90 L 158.37 191.55 C 159.11 192.23 160.27 192.18 160.94 191.44 C 161.62 190.70 161.57 189.55 160.83 188.87 Z M 160.13 188.27 L 159.34 187.51 C 158.63 186.82 157.50 186.84 156.82 187.56 C 156.13 188.27 156.15 189.40 156.86 190.08 L 157.65 190.85 C 158.36 191.53 159.49 191.51 160.18 190.80 C 160.86 190.09 160.84 188.96 160.13 188.27 Z M 159.36 187.59 L 158.67 186.87 C 158.00 186.18 156.90 186.16 156.20 186.82 C 155.51 187.49 155.49 188.59 156.16 189.29 L 156.85 190.00 C 157.51 190.70 158.62 190.72 159.31 190.05 C 160.00 189.39 160.02 188.28 159.36 187.59 Z M 158.68 186.96 L 158.06 186.25 C 157.44 185.55 156.37 185.48 155.67 186.10 C 154.97 186.72 154.90 187.79 155.52 188.49 L 156.14 189.20 C 156.76 189.90 157.83 189.97 158.53 189.35 C 159.23 188.73 159.30 187.66 158.68 186.96 Z M 158.08 186.34 L 157.49 185.59 C 156.92 184.88 155.88 184.76 155.16 185.33 C 154.45 185.90 154.33 186.94 154.90 187.66 L 155.50 188.40 C 156.07 189.12 157.11 189.23 157.82 188.67 C 158.53 188.10 158.65 187.06 158.08 186.34 Z M 157.51 185.67 L 156.92 184.86 C 156.39 184.14 155.37 183.98 154.65 184.51 C 153.92 185.04 153.77 186.05 154.30 186.78 L 154.88 187.58 C 155.41 188.31 156.43 188.47 157.15 187.94 C 157.88 187.41 158.04 186.39 157.51 185.67 Z M 156.93 184.91 L 156.36 184.09 C 155.86 183.36 154.86 183.17 154.13 183.68 C 153.40 184.18 153.22 185.17 153.72 185.90 L 154.29 186.73 C 154.79 187.45 155.79 187.64 156.51 187.14 C 157.24 186.64 157.43 185.64 156.93 184.91 Z M 156.35 184.12 L 155.87 183.40 C 155.39 182.67 154.40 182.48 153.68 182.96 C 152.96 183.45 152.76 184.43 153.25 185.15 L 153.73 185.87 C 154.21 186.60 155.19 186.79 155.92 186.31 C 156.64 185.82 156.84 184.84 156.35 184.12 Z"
      fill="black"
      fill-rule="nonzero" /><path d="M 146.02 140.05 L 146.77 139.48 C 147.48 138.94 147.61 137.92 147.07 137.21 C 146.52 136.50 145.51 136.36 144.80 136.91 L 144.05 137.48 C 143.34 138.03 143.20 139.04 143.75 139.75 C 144.29 140.46 145.31 140.60 146.02 140.05 Z M 146.72 139.52 L 147.52 138.96 C 148.25 138.45 148.43 137.43 147.91 136.70 C 147.40 135.96 146.38 135.79 145.65 136.30 L 144.85 136.86 C 144.11 137.38 143.94 138.39 144.45 139.13 C 144.97 139.86 145.98 140.04 146.72 139.52 Z M 147.42 139.03 L 148.32 138.49 C 149.09 138.03 149.35 137.03 148.89 136.26 C 148.43 135.49 147.43 135.24 146.65 135.70 L 145.75 136.23 C 144.98 136.69 144.72 137.69 145.18 138.47 C 145.64 139.24 146.64 139.49 147.42 139.03 Z M 148.19 138.55 L 149.09 138.11 C 149.89 137.72 150.23 136.75 149.84 135.95 C 149.44 135.15 148.48 134.81 147.67 135.20 L 146.78 135.64 C 145.97 136.03 145.64 137.00 146.03 137.80 C 146.42 138.61 147.39 138.94 148.19 138.55 Z M 148.99 138.13 L 149.92 137.74 C 150.73 137.40 151.12 136.47 150.78 135.66 C 150.44 134.85 149.51 134.47 148.70 134.80 L 147.77 135.19 C 146.96 135.53 146.57 136.46 146.91 137.27 C 147.25 138.08 148.18 138.47 148.99 138.13 Z M 149.86 137.73 L 150.82 137.38 C 151.62 137.08 152.04 136.18 151.74 135.37 C 151.44 134.56 150.54 134.15 149.73 134.45 L 148.77 134.81 C 147.96 135.11 147.55 136.01 147.85 136.82 C 148.15 137.62 149.05 138.03 149.86 137.73 Z M 150.77 137.36 L 151.72 137.03 C 152.51 136.76 152.94 135.89 152.66 135.09 C 152.39 134.29 151.52 133.87 150.72 134.14 L 149.78 134.47 C 148.98 134.74 148.55 135.61 148.83 136.41 C 149.10 137.21 149.97 137.63 150.77 137.36 Z M 151.68 137.02 L 152.67 136.70 C 153.46 136.44 153.89 135.59 153.64 134.80 C 153.38 134.02 152.53 133.58 151.74 133.84 L 150.76 134.16 C 149.97 134.42 149.53 135.26 149.79 136.05 C 150.05 136.84 150.89 137.27 151.68 137.02 Z M 152.61 136.69 L 153.56 136.43 C 154.35 136.20 154.81 135.39 154.59 134.60 C 154.37 133.81 153.55 133.35 152.76 133.57 L 151.81 133.84 C 151.02 134.06 150.56 134.88 150.78 135.67 C 151.00 136.45 151.82 136.91 152.61 136.69 Z M 153.46 136.43 L 154.41 136.24 C 155.20 136.07 155.70 135.30 155.54 134.51 C 155.38 133.72 154.61 133.22 153.82 133.38 L 152.87 133.57 C 152.08 133.73 151.57 134.50 151.73 135.29 C 151.90 136.08 152.67 136.59 153.46 136.43 Z M 154.27 136.24 L 155.23 136.14 C 156.02 136.05 156.59 135.34 156.51 134.55 C 156.42 133.76 155.71 133.19 154.92 133.27 L 153.96 133.37 C 153.17 133.46 152.60 134.17 152.68 134.96 C 152.77 135.75 153.48 136.32 154.27 136.24 Z M 155.11 136.14 L 156.08 136.11 C 156.87 136.10 157.50 135.44 157.48 134.65 C 157.46 133.86 156.81 133.23 156.02 133.25 L 155.04 133.27 C 154.25 133.29 153.63 133.94 153.64 134.73 C 153.66 135.53 154.32 136.15 155.11 136.14 Z M 156.00 136.11 L 157.01 136.14 C 157.80 136.17 158.46 135.55 158.49 134.76 C 158.51 133.97 157.89 133.31 157.10 133.29 L 156.09 133.25 C 155.30 133.23 154.64 133.85 154.62 134.64 C 154.59 135.43 155.21 136.09 156.00 136.11 Z M 156.97 136.14 L 158.00 136.20 C 158.78 136.25 159.46 135.65 159.51 134.86 C 159.56 134.08 158.96 133.40 158.17 133.35 L 157.14 133.29 C 156.36 133.24 155.68 133.84 155.63 134.63 C 155.58 135.41 156.18 136.09 156.97 136.14 Z M 157.99 136.20 L 158.30 136.22 C 159.08 136.28 159.76 135.68 159.82 134.90 C 159.87 134.11 159.28 133.43 158.49 133.38 L 158.18 133.36 C 157.40 133.30 156.72 133.89 156.66 134.68 C 156.61 135.47 157.20 136.15 157.99 136.20 Z"
      fill="black"
      fill-rule="nonzero" /><path d="M 144.46 144.41 L 143.45 144.53 C 142.63 144.63 142.03 145.37 142.13 146.20 C 142.22 147.03 142.97 147.62 143.80 147.52 L 144.81 147.41 C 145.64 147.31 146.23 146.56 146.13 145.74 C 146.04 144.91 145.29 144.32 144.46 144.41 Z M 143.45 144.52 L 142.45 144.63 C 141.61 144.73 141.01 145.49 141.11 146.32 C 141.21 147.16 141.97 147.76 142.80 147.66 L 143.80 147.54 C 144.64 147.44 145.24 146.69 145.14 145.85 C 145.04 145.02 144.28 144.42 143.45 144.52 Z M 142.44 144.62 L 141.46 144.73 C 140.62 144.83 140.01 145.60 140.11 146.44 C 140.22 147.29 140.98 147.89 141.83 147.79 L 142.81 147.67 C 143.65 147.57 144.25 146.81 144.15 145.96 C 144.05 145.12 143.29 144.51 142.44 144.62 Z M 141.46 144.72 L 140.20 144.87 C 139.34 144.97 138.74 145.75 138.84 146.60 C 138.94 147.46 139.72 148.07 140.58 147.96 L 141.83 147.81 C 142.69 147.70 143.29 146.93 143.19 146.07 C 143.09 145.22 142.31 144.61 141.46 144.72 Z M 140.24 144.85 L 139.21 144.94 C 138.34 145.03 137.70 145.79 137.78 146.66 C 137.87 147.53 138.64 148.16 139.50 148.08 L 140.54 147.98 C 141.40 147.90 142.04 147.13 141.96 146.27 C 141.87 145.40 141.11 144.76 140.24 144.85 Z M 140.66 145.60 L 140.59 145.51 C 140.09 144.79 139.10 144.61 138.38 145.12 C 137.66 145.62 137.48 146.61 137.99 147.33 L 138.05 147.43 C 138.56 148.15 139.55 148.32 140.27 147.82 C 140.99 147.31 141.16 146.32 140.66 145.60 Z M 139.84 147.92 L 140.58 147.65 C 141.41 147.34 141.84 146.43 141.53 145.60 C 141.23 144.77 140.31 144.35 139.48 144.65 L 138.74 144.92 C 137.91 145.22 137.49 146.14 137.79 146.97 C 138.09 147.80 139.01 148.22 139.84 147.92 Z M 140.56 147.65 L 141.86 147.20 C 142.69 146.91 143.13 146.00 142.84 145.17 C 142.55 144.34 141.64 143.90 140.81 144.19 L 139.51 144.64 C 138.67 144.93 138.24 145.84 138.53 146.67 C 138.82 147.51 139.73 147.94 140.56 147.65 Z M 141.89 147.19 L 142.92 146.81 C 143.74 146.50 144.16 145.58 143.86 144.75 C 143.55 143.93 142.63 143.51 141.80 143.82 L 140.78 144.20 C 139.95 144.51 139.53 145.42 139.84 146.25 C 140.15 147.08 141.07 147.50 141.89 147.19 Z M 142.94 146.79 L 143.86 146.43 C 144.68 146.11 145.08 145.19 144.76 144.37 C 144.44 143.55 143.51 143.15 142.70 143.47 L 141.78 143.83 C 140.96 144.15 140.56 145.07 140.88 145.89 C 141.20 146.71 142.12 147.11 142.94 146.79 Z M 143.87 146.43 L 144.82 146.04 C 145.64 145.71 146.03 144.79 145.70 143.97 C 145.37 143.16 144.45 142.77 143.63 143.09 L 142.68 143.48 C 141.87 143.81 141.47 144.73 141.80 145.55 C 142.13 146.36 143.06 146.75 143.87 146.43 Z M 144.84 146.03 L 145.79 145.64 C 146.60 145.30 146.99 144.37 146.65 143.56 C 146.32 142.75 145.39 142.37 144.58 142.71 L 143.62 143.10 C 142.81 143.44 142.43 144.37 142.76 145.17 C 143.10 145.98 144.03 146.37 144.84 146.03 Z M 145.80 145.63 L 146.74 145.23 C 147.55 144.89 147.92 143.96 147.58 143.16 C 147.24 142.35 146.31 141.98 145.51 142.32 L 144.57 142.71 C 143.77 143.05 143.39 143.98 143.73 144.79 C 144.07 145.59 145.00 145.97 145.80 145.63 Z M 146.75 145.22 L 147.71 144.81 C 148.51 144.47 148.88 143.54 148.54 142.74 C 148.19 141.94 147.26 141.57 146.46 141.91 L 145.50 142.32 C 144.70 142.67 144.33 143.60 144.67 144.40 C 145.02 145.20 145.95 145.57 146.75 145.22 Z M 147.71 144.80 L 148.66 144.39 C 149.45 144.04 149.82 143.12 149.47 142.32 C 149.13 141.53 148.20 141.17 147.41 141.51 L 146.46 141.92 C 145.67 142.27 145.30 143.19 145.65 143.99 C 145.99 144.78 146.92 145.15 147.71 144.80 Z M 148.66 144.38 L 149.56 143.98 C 150.35 143.64 150.71 142.72 150.37 141.93 C 150.02 141.14 149.10 140.78 148.32 141.13 L 147.41 141.52 C 146.62 141.87 146.26 142.78 146.61 143.57 C 146.95 144.36 147.87 144.72 148.66 144.38 Z M 149.56 143.97 L 150.44 143.59 C 151.22 143.25 151.58 142.33 151.24 141.55 C 150.90 140.77 149.99 140.41 149.20 140.75 L 148.32 141.13 C 147.54 141.48 147.18 142.39 147.52 143.17 C 147.86 143.96 148.77 144.31 149.56 143.97 Z M 150.43 143.58 L 151.31 143.20 C 152.09 142.87 152.45 141.96 152.12 141.18 C 151.78 140.40 150.88 140.04 150.10 140.38 L 149.22 140.76 C 148.44 141.09 148.08 142.00 148.41 142.78 C 148.75 143.56 149.65 143.92 150.43 143.58 Z M 151.30 143.20 L 152.21 142.81 C 152.99 142.48 153.36 141.59 153.03 140.81 C 152.70 140.03 151.81 139.67 151.03 140.00 L 150.11 140.38 C 149.34 140.71 148.97 141.60 149.30 142.38 C 149.63 143.16 150.52 143.52 151.30 143.20 Z M 152.20 142.81 L 153.13 142.42 C 153.90 142.10 154.27 141.21 153.95 140.44 C 153.63 139.66 152.74 139.30 151.97 139.62 L 151.04 140.00 C 150.26 140.32 149.90 141.21 150.22 141.98 C 150.54 142.76 151.43 143.13 152.20 142.81 Z M 153.12 142.42 L 154.05 142.04 C 154.82 141.72 155.19 140.84 154.88 140.07 C 154.56 139.30 153.68 138.93 152.91 139.24 L 151.98 139.62 C 151.20 139.94 150.83 140.82 151.15 141.59 C 151.47 142.36 152.35 142.73 153.12 142.42 Z M 154.04 142.03 L 154.97 141.65 C 155.74 141.34 156.11 140.47 155.80 139.70 C 155.49 138.93 154.61 138.56 153.84 138.87 L 152.92 139.25 C 152.15 139.56 151.78 140.43 152.09 141.20 C 152.40 141.97 153.27 142.34 154.04 142.03 Z M 154.96 141.65 L 155.91 141.27 C 156.67 140.96 157.04 140.09 156.73 139.32 C 156.43 138.56 155.56 138.19 154.79 138.50 L 153.85 138.88 C 153.09 139.19 152.72 140.06 153.02 140.82 C 153.33 141.58 154.20 141.95 154.96 141.65 Z M 155.90 141.26 L 156.85 140.88 C 157.61 140.58 157.98 139.71 157.67 138.96 C 157.37 138.20 156.51 137.83 155.75 138.13 L 154.80 138.51 C 154.04 138.81 153.67 139.67 153.98 140.43 C 154.28 141.19 155.14 141.56 155.90 141.26 Z M 156.83 140.87 L 157.77 140.51 C 158.52 140.21 158.90 139.36 158.60 138.60 C 158.30 137.85 157.45 137.47 156.69 137.77 L 155.76 138.13 C 155.01 138.43 154.63 139.28 154.93 140.04 C 155.23 140.80 156.08 141.17 156.83 140.87 Z M 157.75 140.50 L 158.67 140.16 C 159.42 139.87 159.80 139.02 159.51 138.27 C 159.23 137.52 158.38 137.14 157.63 137.42 L 156.71 137.77 C 155.96 138.06 155.58 138.90 155.87 139.66 C 156.15 140.41 157.00 140.79 157.75 140.50 Z M 158.65 140.15 L 159.56 139.82 C 160.31 139.55 160.70 138.71 160.42 137.96 C 160.15 137.21 159.32 136.82 158.56 137.09 L 157.65 137.43 C 156.90 137.70 156.51 138.53 156.78 139.29 C 157.06 140.04 157.89 140.43 158.65 140.15 Z M 159.53 139.82 L 160.45 139.50 C 161.21 139.24 161.61 138.42 161.35 137.67 C 161.09 136.91 160.26 136.51 159.51 136.77 L 158.59 137.09 C 157.83 137.35 157.43 138.17 157.69 138.93 C 157.96 139.68 158.78 140.08 159.53 139.82 Z M 160.43 139.51 L 161.36 139.21 C 162.11 138.96 162.53 138.15 162.28 137.39 C 162.04 136.64 161.23 136.22 160.47 136.47 L 159.54 136.77 C 158.78 137.01 158.37 137.83 158.61 138.58 C 158.86 139.34 159.67 139.75 160.43 139.51 Z M 161.33 139.21 L 162.30 138.92 C 163.05 138.69 163.48 137.89 163.25 137.13 C 163.02 136.37 162.22 135.94 161.46 136.17 L 160.50 136.46 C 159.74 136.69 159.31 137.49 159.54 138.25 C 159.77 139.01 160.57 139.44 161.33 139.21 Z M 162.27 138.92 L 163.26 138.64 C 164.02 138.42 164.46 137.63 164.24 136.88 C 164.03 136.12 163.24 135.67 162.48 135.89 L 161.49 136.17 C 160.73 136.38 160.29 137.17 160.50 137.93 C 160.72 138.69 161.51 139.13 162.27 138.92 Z M 163.24 138.64 L 164.16 138.40 C 164.92 138.19 165.37 137.41 165.17 136.65 C 164.96 135.89 164.18 135.44 163.42 135.64 L 162.50 135.89 C 161.74 136.09 161.29 136.87 161.49 137.63 C 161.69 138.39 162.48 138.85 163.24 138.64 Z M 164.14 138.40 L 165.10 138.15 C 165.86 137.96 166.32 137.18 166.13 136.42 C 165.93 135.66 165.15 135.20 164.39 135.39 L 163.43 135.64 C 162.67 135.83 162.21 136.61 162.41 137.37 C 162.60 138.14 163.38 138.60 164.14 138.40 Z M 165.09 138.16 L 166.08 137.91 C 166.84 137.72 167.31 136.95 167.12 136.18 C 166.93 135.42 166.15 134.95 165.39 135.14 L 164.40 135.39 C 163.64 135.58 163.17 136.35 163.36 137.12 C 163.55 137.88 164.33 138.35 165.09 138.16 Z M 166.07 137.91 L 167.07 137.67 C 167.84 137.48 168.31 136.71 168.12 135.94 C 167.93 135.18 167.16 134.71 166.40 134.90 L 165.39 135.14 C 164.63 135.33 164.16 136.10 164.35 136.87 C 164.53 137.63 165.31 138.10 166.07 137.91 Z M 167.07 137.67 L 167.73 137.51 C 168.49 137.32 168.96 136.55 168.78 135.78 C 168.59 135.02 167.82 134.55 167.05 134.74 L 166.40 134.90 C 165.63 135.08 165.16 135.85 165.35 136.62 C 165.54 137.38 166.31 137.85 167.07 137.67 Z"
      fill="black"
      fill-rule="nonzero" /><path d="M 116.39 162.79 L 115.22 162.33 C 114.38 162.01 113.44 162.41 113.12 163.25 C 112.79 164.08 113.20 165.02 114.03 165.35 L 115.20 165.81 C 116.04 166.13 116.98 165.72 117.30 164.89 C 117.63 164.06 117.22 163.12 116.39 162.79 Z M 115.62 162.48 L 114.96 161.99 C 114.21 161.44 113.15 161.61 112.60 162.36 C 112.05 163.11 112.22 164.17 112.97 164.72 L 113.63 165.20 C 114.38 165.75 115.44 165.59 115.99 164.84 C 116.54 164.08 116.37 163.03 115.62 162.48 Z M 115.56 164.04 L 115.74 163.61 C 116.12 162.73 115.71 161.71 114.83 161.34 C 113.95 160.96 112.93 161.37 112.55 162.25 L 112.37 162.67 C 111.99 163.55 112.40 164.57 113.28 164.95 C 114.16 165.33 115.18 164.92 115.56 164.04 Z M 114.99 164.46 L 115.74 164.05 C 116.58 163.59 116.89 162.53 116.43 161.68 C 115.96 160.83 114.90 160.52 114.05 160.99 L 113.31 161.40 C 112.46 161.86 112.15 162.93 112.61 163.77 C 113.08 164.62 114.14 164.93 114.99 164.46 Z M 115.51 164.16 L 116.68 163.73 C 117.58 163.39 118.04 162.38 117.70 161.47 C 117.36 160.56 116.35 160.10 115.45 160.44 L 114.28 160.88 C 113.37 161.22 112.91 162.23 113.25 163.14 C 113.59 164.04 114.60 164.50 115.51 164.16 Z M 116.60 163.76 L 117.73 163.39 C 118.65 163.10 119.16 162.11 118.86 161.18 C 118.57 160.26 117.58 159.75 116.65 160.05 L 115.53 160.41 C 114.60 160.71 114.09 161.70 114.39 162.62 C 114.69 163.54 115.68 164.05 116.60 163.76 Z M 117.70 163.40 L 118.65 163.11 C 119.58 162.83 120.11 161.85 119.83 160.92 C 119.55 159.99 118.57 159.47 117.64 159.75 L 116.68 160.04 C 115.75 160.32 115.23 161.30 115.51 162.23 C 115.79 163.16 116.77 163.68 117.70 163.40 Z M 118.64 163.12 L 119.62 162.83 C 120.56 162.56 121.09 161.59 120.82 160.65 C 120.55 159.72 119.57 159.19 118.64 159.46 L 117.65 159.74 C 116.72 160.02 116.19 160.99 116.46 161.92 C 116.73 162.86 117.70 163.39 118.64 163.12 Z M 119.61 162.84 L 120.60 162.56 C 121.54 162.29 122.08 161.32 121.82 160.39 C 121.55 159.45 120.58 158.91 119.65 159.17 L 118.66 159.45 C 117.72 159.72 117.18 160.69 117.44 161.62 C 117.71 162.56 118.68 163.10 119.61 162.84 Z M 120.59 162.56 L 121.56 162.29 C 122.49 162.03 123.04 161.06 122.78 160.13 C 122.53 159.19 121.56 158.64 120.62 158.90 L 119.66 159.17 C 118.72 159.43 118.17 160.40 118.43 161.33 C 118.69 162.27 119.66 162.82 120.59 162.56 Z M 121.55 162.29 L 122.54 162.03 C 123.47 161.77 124.03 160.81 123.77 159.87 C 123.52 158.93 122.55 158.38 121.61 158.63 L 120.63 158.90 C 119.69 159.16 119.14 160.12 119.39 161.06 C 119.65 162.00 120.61 162.55 121.55 162.29 Z M 122.53 162.03 L 123.55 161.75 C 124.49 161.50 125.05 160.54 124.80 159.60 C 124.54 158.66 123.58 158.11 122.64 158.36 L 121.62 158.63 C 120.68 158.88 120.12 159.85 120.38 160.79 C 120.63 161.72 121.59 162.28 122.53 162.03 Z M 123.55 161.75 L 124.50 161.50 C 125.44 161.25 126.00 160.29 125.75 159.35 C 125.50 158.41 124.53 157.85 123.59 158.10 L 122.64 158.36 C 121.71 158.61 121.15 159.57 121.40 160.51 C 121.65 161.45 122.61 162.00 123.55 161.75 Z M 124.50 161.50 L 125.42 161.25 C 126.36 161.00 126.91 160.04 126.66 159.10 C 126.41 158.16 125.44 157.61 124.51 157.86 L 123.59 158.10 C 122.65 158.36 122.10 159.32 122.35 160.26 C 122.60 161.20 123.57 161.75 124.50 161.50 Z M 125.43 161.25 L 126.34 161.00 C 127.28 160.74 127.83 159.78 127.57 158.84 C 127.32 157.90 126.35 157.35 125.41 157.61 L 124.50 157.86 C 123.56 158.12 123.01 159.08 123.27 160.02 C 123.52 160.96 124.49 161.51 125.43 161.25 Z M 126.35 161.00 L 127.28 160.74 C 128.21 160.48 128.76 159.51 128.49 158.57 C 128.23 157.64 127.26 157.09 126.33 157.35 L 125.40 157.61 C 124.47 157.88 123.92 158.85 124.18 159.78 C 124.45 160.71 125.42 161.26 126.35 161.00 Z M 127.28 160.73 L 128.24 160.46 C 129.17 160.20 129.71 159.22 129.44 158.29 C 129.18 157.36 128.20 156.82 127.27 157.08 L 126.32 157.36 C 125.39 157.62 124.85 158.60 125.11 159.53 C 125.38 160.46 126.35 161.00 127.28 160.73 Z M 128.24 160.46 L 129.22 160.18 C 130.15 159.91 130.69 158.93 130.42 158.00 C 130.15 157.07 129.17 156.53 128.24 156.80 L 127.27 157.09 C 126.33 157.36 125.80 158.33 126.07 159.26 C 126.34 160.19 127.31 160.73 128.24 160.46 Z M 129.22 160.18 L 130.22 159.88 C 131.15 159.61 131.69 158.64 131.42 157.71 C 131.15 156.78 130.17 156.24 129.24 156.51 L 128.24 156.81 C 127.31 157.08 126.77 158.05 127.05 158.98 C 127.32 159.91 128.29 160.45 129.22 160.18 Z M 130.23 159.88 L 131.17 159.61 C 132.10 159.33 132.63 158.36 132.36 157.43 C 132.09 156.50 131.12 155.97 130.19 156.24 L 129.24 156.52 C 128.31 156.79 127.78 157.76 128.05 158.69 C 128.32 159.62 129.30 160.15 130.23 159.88 Z M 131.17 159.60 L 132.13 159.32 C 133.06 159.05 133.59 158.08 133.32 157.15 C 133.05 156.22 132.07 155.69 131.15 155.96 L 130.19 156.24 C 129.26 156.51 128.73 157.48 129.00 158.41 C 129.27 159.34 130.24 159.88 131.17 159.60 Z M 132.13 159.32 L 133.09 159.04 C 134.02 158.77 134.55 157.80 134.28 156.87 C 134.01 155.94 133.04 155.41 132.11 155.68 L 131.15 155.96 C 130.22 156.23 129.69 157.20 129.96 158.13 C 130.23 159.06 131.20 159.59 132.13 159.32 Z M 133.09 159.04 L 134.06 158.76 C 134.98 158.49 135.52 157.53 135.25 156.60 C 134.98 155.67 134.02 155.14 133.09 155.40 L 132.12 155.68 C 131.19 155.95 130.66 156.92 130.92 157.84 C 131.19 158.77 132.16 159.31 133.09 159.04 Z M 134.05 158.76 L 135.02 158.49 C 135.94 158.22 136.48 157.26 136.22 156.33 C 135.96 155.40 134.99 154.86 134.06 155.13 L 133.09 155.40 C 132.17 155.67 131.63 156.63 131.89 157.56 C 132.16 158.49 133.12 159.02 134.05 158.76 Z M 135.01 158.48 L 135.98 158.21 C 136.90 157.95 137.45 156.99 137.19 156.07 C 136.93 155.14 135.97 154.60 135.04 154.86 L 134.07 155.13 C 133.14 155.39 132.60 156.35 132.86 157.28 C 133.12 158.20 134.08 158.74 135.01 158.48 Z M 135.97 158.21 L 136.94 157.94 C 137.86 157.69 138.40 156.73 138.15 155.81 C 137.89 154.88 136.93 154.34 136.01 154.59 L 135.05 154.86 C 134.12 155.12 133.58 156.07 133.83 157.00 C 134.09 157.92 135.05 158.47 135.97 158.21 Z M 136.93 157.94 L 137.89 157.68 C 138.82 157.43 139.36 156.47 139.11 155.55 C 138.85 154.62 137.90 154.08 136.98 154.33 L 136.01 154.60 C 135.09 154.85 134.55 155.80 134.80 156.73 C 135.05 157.65 136.01 158.20 136.93 157.94 Z M 137.89 157.68 L 138.85 157.41 C 139.77 157.16 140.31 156.21 140.06 155.29 C 139.81 154.37 138.86 153.82 137.94 154.07 L 136.98 154.34 C 136.06 154.59 135.51 155.54 135.76 156.46 C 136.02 157.38 136.97 157.93 137.89 157.68 Z M 138.85 157.41 L 139.81 157.15 C 140.73 156.89 141.28 155.95 141.02 155.03 C 140.77 154.11 139.82 153.56 138.91 153.82 L 137.94 154.08 C 137.02 154.33 136.48 155.28 136.73 156.20 C 136.98 157.12 137.93 157.66 138.85 157.41 Z M 139.82 157.14 L 140.78 156.87 C 141.70 156.62 142.24 155.68 141.99 154.76 C 141.73 153.84 140.79 153.30 139.87 153.56 L 138.90 153.82 C 137.99 154.07 137.45 155.02 137.70 155.94 C 137.95 156.85 138.90 157.39 139.82 157.14 Z M 140.79 156.87 L 141.75 156.60 C 142.66 156.35 143.20 155.40 142.94 154.49 C 142.69 153.58 141.74 153.04 140.83 153.29 L 139.87 153.56 C 138.95 153.82 138.42 154.76 138.67 155.67 C 138.93 156.59 139.87 157.12 140.79 156.87 Z M 141.76 156.59 L 142.72 156.32 C 143.62 156.06 144.15 155.12 143.89 154.21 C 143.64 153.30 142.69 152.77 141.78 153.03 L 140.82 153.30 C 139.92 153.56 139.39 154.50 139.65 155.41 C 139.90 156.32 140.85 156.85 141.76 156.59 Z M 142.73 156.31 L 143.69 156.03 C 144.59 155.77 145.11 154.82 144.85 153.92 C 144.59 153.02 143.64 152.50 142.74 152.76 L 141.77 153.04 C 140.87 153.30 140.35 154.25 140.61 155.15 C 140.88 156.05 141.82 156.57 142.73 156.31 Z M 143.70 156.02 L 144.67 155.73 C 145.57 155.46 146.08 154.52 145.81 153.62 C 145.55 152.72 144.60 152.21 143.70 152.48 L 142.73 152.77 C 141.83 153.04 141.32 153.98 141.59 154.88 C 141.85 155.78 142.80 156.29 143.70 156.02 Z M 144.67 155.72 L 145.64 155.44 C 146.53 155.17 147.04 154.23 146.77 153.33 C 146.50 152.44 145.56 151.93 144.67 152.20 L 143.70 152.49 C 142.81 152.75 142.30 153.69 142.57 154.59 C 142.83 155.48 143.78 155.99 144.67 155.72 Z M 145.63 155.43 L 146.58 155.15 C 147.47 154.89 147.98 153.95 147.72 153.06 C 147.46 152.17 146.52 151.66 145.63 151.92 L 144.68 152.20 C 143.78 152.46 143.27 153.40 143.54 154.29 C 143.80 155.18 144.73 155.69 145.63 155.43 Z M 146.56 155.15 L 147.50 154.88 C 148.39 154.63 148.91 153.70 148.66 152.81 C 148.41 151.92 147.48 151.41 146.59 151.66 L 145.65 151.92 C 144.76 152.18 144.24 153.10 144.49 153.99 C 144.74 154.88 145.67 155.40 146.56 155.15 Z M 147.48 154.88 L 148.47 154.62 C 149.36 154.38 149.89 153.47 149.66 152.58 C 149.42 151.69 148.50 151.16 147.62 151.39 L 146.62 151.66 C 145.73 151.90 145.20 152.81 145.44 153.70 C 145.67 154.59 146.59 155.12 147.48 154.88 Z M 148.45 154.61 L 149.43 154.37 C 150.32 154.14 150.86 153.24 150.63 152.36 C 150.41 151.47 149.51 150.93 148.63 151.15 L 147.64 151.40 C 146.75 151.62 146.21 152.52 146.44 153.41 C 146.66 154.29 147.56 154.83 148.45 154.61 Z M 149.41 154.36 L 150.37 154.13 C 151.26 153.92 151.80 153.03 151.59 152.15 C 151.38 151.26 150.49 150.72 149.61 150.93 L 148.65 151.16 C 147.76 151.37 147.22 152.26 147.43 153.14 C 147.64 154.02 148.53 154.57 149.41 154.36 Z M 150.36 154.12 L 151.30 153.90 C 152.18 153.70 152.73 152.82 152.53 151.94 C 152.32 151.06 151.45 150.51 150.57 150.72 L 149.62 150.93 C 148.74 151.14 148.20 152.02 148.40 152.90 C 148.60 153.78 149.48 154.32 150.36 154.12 Z M 151.29 153.89 L 152.20 153.69 C 153.08 153.49 153.62 152.62 153.43 151.75 C 153.23 150.87 152.36 150.32 151.48 150.52 L 150.58 150.73 C 149.70 150.92 149.15 151.79 149.35 152.67 C 149.55 153.54 150.42 154.09 151.29 153.89 Z M 152.19 153.68 L 153.10 153.48 C 153.97 153.29 154.53 152.43 154.34 151.56 C 154.15 150.69 153.29 150.14 152.42 150.33 L 151.50 150.53 C 150.63 150.72 150.08 151.58 150.27 152.45 C 150.46 153.32 151.32 153.87 152.19 153.68 Z M 153.08 153.47 L 154.06 153.27 C 154.92 153.09 155.48 152.25 155.30 151.38 C 155.12 150.52 154.28 149.96 153.41 150.14 L 152.44 150.34 C 151.57 150.52 151.02 151.36 151.19 152.23 C 151.37 153.09 152.22 153.65 153.08 153.47 Z M 154.03 153.26 L 155.10 153.06 C 155.96 152.90 156.52 152.07 156.36 151.20 C 156.20 150.34 155.36 149.78 154.50 149.94 L 153.44 150.14 C 152.57 150.31 152.01 151.14 152.17 152.00 C 152.34 152.86 153.17 153.43 154.03 153.26 Z M 155.07 153.05 L 156.06 152.88 C 156.92 152.73 157.49 151.91 157.34 151.05 C 157.19 150.20 156.37 149.62 155.52 149.77 L 154.53 149.95 C 153.67 150.10 153.10 150.92 153.25 151.77 C 153.40 152.63 154.21 153.20 155.07 153.05 Z M 156.04 152.87 L 157.03 152.71 C 157.88 152.57 158.46 151.77 158.32 150.91 C 158.18 150.06 157.38 149.48 156.52 149.62 L 155.54 149.78 C 154.68 149.92 154.10 150.73 154.24 151.58 C 154.38 152.43 155.19 153.01 156.04 152.87 Z M 157.01 152.70 L 158.03 152.55 C 158.88 152.42 159.46 151.62 159.33 150.78 C 159.20 149.93 158.41 149.34 157.56 149.47 L 156.54 149.63 C 155.69 149.76 155.11 150.55 155.24 151.40 C 155.37 152.25 156.16 152.83 157.01 152.70 Z M 158.01 152.54 L 159.03 152.40 C 159.88 152.28 160.47 151.50 160.35 150.65 C 160.23 149.81 159.45 149.22 158.60 149.34 L 157.58 149.48 C 156.74 149.60 156.15 150.38 156.27 151.23 C 156.38 152.07 157.17 152.66 158.01 152.54 Z M 159.01 152.39 L 160.01 152.26 C 160.85 152.16 161.44 151.39 161.33 150.55 C 161.23 149.71 160.46 149.11 159.62 149.22 L 158.63 149.34 C 157.78 149.45 157.19 150.22 157.30 151.06 C 157.40 151.90 158.17 152.49 159.01 152.39 Z M 159.98 152.25 L 161.00 152.14 C 161.84 152.05 162.44 151.30 162.35 150.47 C 162.26 149.63 161.51 149.03 160.68 149.12 L 159.65 149.23 C 158.81 149.32 158.21 150.07 158.30 150.90 C 158.39 151.74 159.14 152.34 159.98 152.25 Z M 160.97 152.13 L 162.04 152.04 C 162.87 151.97 163.49 151.24 163.42 150.41 C 163.35 149.58 162.62 148.97 161.79 149.04 L 160.71 149.13 C 159.89 149.20 159.27 149.93 159.34 150.76 C 159.41 151.58 160.14 152.20 160.97 152.13 Z M 162.01 152.02 L 163.00 151.96 C 163.82 151.91 164.44 151.21 164.39 150.39 C 164.34 149.57 163.64 148.95 162.82 149.00 L 161.83 149.06 C 161.01 149.11 160.38 149.81 160.43 150.63 C 160.48 151.45 161.19 152.07 162.01 152.02 Z M 162.97 151.94 L 163.91 151.90 C 164.72 151.87 165.35 151.18 165.31 150.37 C 165.27 149.56 164.59 148.94 163.78 148.97 L 162.84 149.01 C 162.04 149.05 161.41 149.73 161.44 150.54 C 161.48 151.35 162.16 151.98 162.97 151.94 Z M 163.90 151.88 L 164.66 151.86 C 165.46 151.83 166.09 151.16 166.06 150.36 C 166.03 149.56 165.36 148.93 164.56 148.96 L 163.79 148.99 C 163.00 149.02 162.37 149.69 162.40 150.49 C 162.43 151.29 163.10 151.91 163.90 151.88 Z"
      fill="black"
      fill-rule="nonzero" /><path d="M 175.37 138.15 L 174.77 139.02 C 174.29 139.73 174.47 140.70 175.18 141.18 C 175.88 141.67 176.85 141.49 177.33 140.78 L 177.93 139.91 C 178.42 139.20 178.24 138.24 177.53 137.75 C 176.82 137.27 175.86 137.45 175.37 138.15 Z M 174.72 138.98 L 174.13 139.84 C 173.63 140.58 173.81 141.58 174.54 142.09 C 175.28 142.60 176.29 142.41 176.79 141.68 L 177.38 140.82 C 177.89 140.08 177.71 139.08 176.97 138.57 C 176.24 138.06 175.23 138.25 174.72 138.98 Z M 174.09 139.80 L 173.50 140.63 C 172.97 141.39 173.16 142.44 173.92 142.97 C 174.68 143.50 175.72 143.32 176.26 142.56 L 176.84 141.72 C 177.37 140.96 177.18 139.91 176.42 139.38 C 175.66 138.85 174.62 139.04 174.09 139.80 Z M 173.46 140.58 L 172.89 141.38 C 172.33 142.17 172.52 143.25 173.30 143.81 C 174.08 144.37 175.17 144.19 175.73 143.40 L 176.30 142.60 C 176.86 141.82 176.67 140.73 175.89 140.18 C 175.11 139.62 174.02 139.80 173.46 140.58 Z M 172.85 141.33 L 172.30 142.08 C 171.71 142.89 171.89 144.02 172.69 144.60 C 173.49 145.19 174.62 145.02 175.21 144.21 L 175.77 143.46 C 176.35 142.66 176.18 141.53 175.38 140.94 C 174.57 140.35 173.44 140.52 172.85 141.33 Z M 172.29 142.03 L 171.68 142.83 C 171.06 143.64 171.22 144.80 172.03 145.42 C 172.84 146.04 173.99 145.88 174.61 145.07 L 175.22 144.27 C 175.84 143.46 175.69 142.30 174.88 141.68 C 174.07 141.06 172.91 141.22 172.29 142.03 Z M 171.70 142.79 L 171.07 143.57 C 170.43 144.37 170.56 145.54 171.36 146.18 C 172.16 146.82 173.32 146.70 173.97 145.90 L 174.59 145.11 C 175.23 144.31 175.11 143.14 174.31 142.50 C 173.51 141.86 172.34 141.99 171.70 142.79 Z M 171.10 143.54 L 170.47 144.28 C 169.81 145.07 169.91 146.24 170.70 146.90 C 171.48 147.56 172.65 147.46 173.31 146.67 L 173.94 145.93 C 174.60 145.14 174.50 143.97 173.71 143.31 C 172.93 142.65 171.76 142.75 171.10 143.54 Z M 170.49 144.26 L 169.85 144.99 C 169.17 145.76 169.25 146.94 170.02 147.61 C 170.80 148.29 171.97 148.21 172.65 147.44 L 173.29 146.70 C 173.96 145.93 173.89 144.76 173.11 144.08 C 172.34 143.41 171.17 143.48 170.49 144.26 Z M 169.86 144.97 L 169.22 145.70 C 168.53 146.46 168.59 147.64 169.36 148.32 C 170.12 149.01 171.30 148.94 171.98 148.18 L 172.63 147.45 C 173.32 146.69 173.25 145.52 172.49 144.83 C 171.72 144.15 170.55 144.21 169.86 144.97 Z M 169.22 145.69 L 168.59 146.38 C 167.90 147.14 167.96 148.31 168.72 149.01 C 169.48 149.70 170.65 149.64 171.34 148.88 L 171.97 148.19 C 172.66 147.43 172.61 146.25 171.85 145.56 C 171.09 144.87 169.91 144.93 169.22 145.69 Z M 168.60 146.38 L 167.94 147.10 C 167.24 147.85 167.30 149.03 168.05 149.72 C 168.81 150.42 169.98 150.36 170.68 149.61 L 171.34 148.89 C 172.03 148.13 171.98 146.95 171.22 146.26 C 170.47 145.57 169.29 145.62 168.60 146.38 Z M 167.94 147.10 L 167.25 147.84 C 166.56 148.60 166.61 149.77 167.36 150.47 C 168.12 151.16 169.29 151.11 169.99 150.36 L 170.67 149.61 C 171.37 148.85 171.32 147.68 170.56 146.99 C 169.81 146.29 168.63 146.34 167.94 147.10 Z M 167.25 147.84 L 166.54 148.62 C 165.84 149.37 165.89 150.55 166.65 151.24 C 167.40 151.94 168.58 151.89 169.27 151.13 L 169.99 150.36 C 170.68 149.60 170.63 148.43 169.88 147.73 C 169.12 147.04 167.95 147.09 167.25 147.84 Z M 166.54 148.62 L 165.85 149.37 C 165.16 150.13 165.21 151.30 165.96 152.00 C 166.72 152.69 167.89 152.64 168.59 151.88 L 169.27 151.13 C 169.97 150.38 169.92 149.20 169.16 148.51 C 168.41 147.81 167.23 147.86 166.54 148.62 Z M 165.85 149.37 L 165.21 150.07 C 164.52 150.82 164.57 152.00 165.33 152.69 C 166.09 153.38 167.26 153.33 167.96 152.57 L 168.59 151.88 C 169.28 151.12 169.23 149.95 168.47 149.26 C 167.71 148.56 166.54 148.62 165.85 149.37 Z M 165.21 150.07 L 164.56 150.78 C 163.87 151.54 163.93 152.71 164.68 153.40 C 165.44 154.09 166.62 154.04 167.31 153.28 L 167.96 152.57 C 168.65 151.81 168.59 150.64 167.84 149.95 C 167.08 149.26 165.90 149.31 165.21 150.07 Z M 164.56 150.78 L 163.89 151.51 C 163.20 152.27 163.26 153.45 164.02 154.14 C 164.77 154.83 165.95 154.77 166.64 154.02 L 167.31 153.28 C 168.00 152.52 167.94 151.35 167.19 150.66 C 166.43 149.97 165.25 150.02 164.56 150.78 Z M 163.90 151.51 L 163.20 152.27 C 162.51 153.03 162.57 154.20 163.32 154.89 C 164.08 155.58 165.25 155.53 165.95 154.77 L 166.64 154.02 C 167.33 153.26 167.27 152.08 166.52 151.39 C 165.76 150.70 164.59 150.76 163.90 151.51 Z M 163.20 152.27 L 162.49 153.06 C 161.80 153.81 161.85 154.99 162.61 155.68 C 163.36 156.37 164.54 156.32 165.23 155.56 L 165.94 154.77 C 166.64 154.02 166.58 152.84 165.83 152.15 C 165.07 151.46 163.90 151.51 163.20 152.27 Z M 162.49 153.05 L 161.82 153.79 C 161.13 154.54 161.18 155.72 161.93 156.41 C 162.69 157.10 163.86 157.05 164.55 156.29 L 165.22 155.56 C 165.92 154.81 165.87 153.63 165.11 152.94 C 164.36 152.25 163.18 152.30 162.49 153.05 Z M 161.82 153.79 L 161.19 154.47 C 160.50 155.22 160.55 156.40 161.30 157.09 C 162.06 157.78 163.23 157.73 163.92 156.98 L 164.55 156.30 C 165.24 155.54 165.19 154.37 164.44 153.68 C 163.69 152.98 162.51 153.03 161.82 153.79 Z M 161.19 154.47 L 160.55 155.17 C 159.85 155.93 159.90 157.10 160.65 157.79 C 161.41 158.48 162.58 158.44 163.27 157.68 L 163.92 156.98 C 164.61 156.23 164.57 155.05 163.81 154.36 C 163.06 153.67 161.89 153.72 161.19 154.47 Z M 160.55 155.17 L 159.88 155.90 C 159.19 156.65 159.24 157.82 159.99 158.51 C 160.74 159.21 161.91 159.16 162.60 158.41 L 163.27 157.68 C 163.96 156.93 163.92 155.76 163.16 155.07 C 162.41 154.37 161.24 154.42 160.55 155.17 Z M 159.88 155.90 L 159.20 156.64 C 158.50 157.39 158.55 158.56 159.30 159.26 C 160.05 159.95 161.22 159.90 161.92 159.15 L 162.60 158.41 C 163.30 157.65 163.25 156.48 162.50 155.79 C 161.75 155.10 160.57 155.15 159.88 155.90 Z M 159.20 156.64 L 158.49 157.41 C 157.80 158.16 157.85 159.33 158.60 160.02 C 159.35 160.71 160.52 160.67 161.21 159.92 L 161.92 159.15 C 162.61 158.40 162.56 157.23 161.81 156.54 C 161.06 155.84 159.89 155.89 159.20 156.64 Z M 158.49 157.41 L 157.77 158.19 C 157.08 158.94 157.12 160.11 157.87 160.81 C 158.63 161.50 159.79 161.45 160.49 160.70 L 161.21 159.91 C 161.90 159.16 161.85 157.99 161.10 157.30 C 160.35 156.61 159.18 156.66 158.49 157.41 Z M 157.77 158.20 L 157.07 158.96 C 156.38 159.71 156.42 160.88 157.17 161.57 C 157.93 162.26 159.09 162.21 159.79 161.46 L 160.49 160.70 C 161.18 159.95 161.13 158.78 160.38 158.09 C 159.63 157.40 158.46 157.44 157.77 158.20 Z M 157.07 158.96 L 156.43 159.65 C 155.74 160.40 155.79 161.57 156.54 162.26 C 157.29 162.95 158.46 162.90 159.15 162.15 L 159.78 161.46 C 160.48 160.71 160.43 159.54 159.68 158.85 C 158.93 158.16 157.76 158.21 157.07 158.96 Z M 156.43 159.65 L 155.79 160.35 C 155.10 161.10 155.14 162.27 155.89 162.96 C 156.64 163.65 157.81 163.60 158.50 162.85 L 159.15 162.15 C 159.84 161.40 159.79 160.23 159.04 159.54 C 158.29 158.85 157.12 158.90 156.43 159.65 Z M 155.79 160.35 L 155.13 161.07 C 154.44 161.82 154.48 162.98 155.23 163.67 C 155.98 164.36 157.15 164.32 157.84 163.57 L 158.50 162.85 C 159.19 162.10 159.14 160.94 158.39 160.25 C 157.64 159.56 156.48 159.60 155.79 160.35 Z M 155.13 161.07 L 154.46 161.80 C 153.76 162.54 153.81 163.71 154.56 164.40 C 155.30 165.09 156.47 165.05 157.16 164.30 L 157.83 163.57 C 158.53 162.82 158.48 161.66 157.73 160.97 C 156.99 160.28 155.82 160.32 155.13 161.07 Z M 154.46 161.79 L 153.77 162.54 C 153.08 163.28 153.12 164.44 153.87 165.14 C 154.61 165.83 155.78 165.79 156.47 165.04 L 157.16 164.30 C 157.85 163.56 157.81 162.39 157.06 161.70 C 156.32 161.01 155.15 161.05 154.46 161.79 Z M 153.78 162.53 L 153.07 163.28 C 152.38 164.03 152.42 165.19 153.16 165.88 C 153.91 166.58 155.07 166.54 155.76 165.79 L 156.47 165.04 C 157.16 164.30 157.12 163.14 156.38 162.44 C 155.63 161.75 154.47 161.79 153.78 162.53 Z M 153.08 163.28 L 152.36 164.04 C 151.67 164.78 151.71 165.95 152.45 166.64 C 153.19 167.34 154.35 167.30 155.04 166.56 L 155.76 165.80 C 156.45 165.06 156.42 163.89 155.68 163.20 C 154.94 162.50 153.77 162.54 153.08 163.28 Z M 152.37 164.04 L 151.64 164.81 C 150.94 165.55 150.98 166.71 151.71 167.41 C 152.45 168.10 153.61 168.07 154.31 167.33 L 155.04 166.56 C 155.74 165.83 155.70 164.66 154.97 163.97 C 154.23 163.27 153.07 163.30 152.37 164.04 Z M 151.64 164.81 L 150.97 165.52 C 150.27 166.25 150.30 167.41 151.03 168.11 C 151.77 168.81 152.93 168.78 153.63 168.05 L 154.30 167.34 C 155.00 166.60 154.97 165.44 154.24 164.74 C 153.51 164.04 152.34 164.07 151.64 164.81 Z M 150.97 165.51 L 150.31 166.20 C 149.61 166.94 149.63 168.10 150.36 168.80 C 151.10 169.50 152.26 169.48 152.96 168.74 L 153.62 168.05 C 154.33 167.32 154.30 166.16 153.57 165.46 C 152.84 164.76 151.68 164.78 150.97 165.51 Z M 150.32 166.20 L 149.64 166.90 C 148.94 167.63 148.96 168.79 149.69 169.49 C 150.41 170.20 151.57 170.18 152.28 169.45 L 152.95 168.75 C 153.66 168.02 153.64 166.86 152.91 166.16 C 152.18 165.45 151.02 165.47 150.32 166.20 Z M 149.65 166.89 L 148.96 167.60 C 148.25 168.33 148.27 169.49 148.99 170.19 C 149.72 170.90 150.88 170.88 151.59 170.16 L 152.27 169.45 C 152.98 168.73 152.96 167.57 152.24 166.86 C 151.51 166.15 150.35 166.17 149.65 166.89 Z M 148.97 167.60 L 148.27 168.31 C 147.56 169.03 147.57 170.19 148.29 170.90 C 149.02 171.61 150.18 171.59 150.89 170.87 L 151.58 170.16 C 152.29 169.44 152.28 168.28 151.56 167.57 C 150.83 166.86 149.67 166.87 148.97 167.60 Z M 148.27 168.30 L 147.57 169.02 C 146.86 169.74 146.86 170.90 147.58 171.61 C 148.30 172.32 149.46 172.31 150.17 171.59 L 150.88 170.88 C 151.59 170.16 151.58 169.00 150.87 168.29 C 150.15 167.57 148.99 167.58 148.27 168.30 Z M 147.57 169.01 L 146.86 169.73 C 146.14 170.45 146.14 171.61 146.86 172.32 C 147.58 173.03 148.74 173.03 149.45 172.32 L 150.17 171.60 C 150.88 170.88 150.88 169.72 150.16 169.01 C 149.45 168.29 148.29 168.29 147.57 169.01 Z M 146.86 169.73 L 146.13 170.45 C 145.42 171.16 145.41 172.32 146.13 173.04 C 146.84 173.75 148.00 173.76 148.72 173.04 L 149.44 172.32 C 150.16 171.61 150.16 170.45 149.45 169.73 C 148.74 169.02 147.58 169.01 146.86 169.73 Z M 146.14 170.44 L 145.40 171.17 C 144.68 171.88 144.68 173.04 145.38 173.76 C 146.09 174.48 147.25 174.49 147.97 173.78 L 148.71 173.05 C 149.43 172.34 149.44 171.18 148.73 170.46 C 148.02 169.74 146.86 169.73 146.14 170.44 Z M 145.41 171.17 L 144.66 171.90 C 143.94 172.60 143.93 173.76 144.63 174.48 C 145.34 175.21 146.50 175.22 147.22 174.51 L 147.97 173.78 C 148.69 173.08 148.70 171.92 148.00 171.20 C 147.29 170.47 146.13 170.46 145.41 171.17 Z M 144.67 171.89 L 143.98 172.56 C 143.25 173.26 143.24 174.42 143.94 175.14 C 144.64 175.87 145.80 175.89 146.52 175.19 L 147.21 174.52 C 147.94 173.82 147.96 172.66 147.25 171.93 C 146.55 171.21 145.39 171.19 144.67 171.89 Z M 143.99 172.55 L 143.29 173.22 C 142.56 173.92 142.54 175.08 143.24 175.81 C 143.94 176.54 145.09 176.56 145.82 175.86 L 146.52 175.19 C 147.25 174.49 147.27 173.33 146.57 172.61 C 145.87 171.88 144.71 171.86 143.99 172.55 Z M 143.29 173.22 L 142.59 173.89 C 141.86 174.59 141.83 175.74 142.52 176.47 C 143.22 177.20 144.38 177.23 145.11 176.54 L 145.81 175.87 C 146.54 175.17 146.57 174.01 145.88 173.28 C 145.18 172.55 144.03 172.52 143.29 173.22 Z M 142.60 173.89 L 141.88 174.56 C 141.15 175.25 141.11 176.41 141.80 177.14 C 142.50 177.88 143.65 177.91 144.39 177.22 L 145.10 176.54 C 145.83 175.85 145.87 174.70 145.18 173.96 C 144.48 173.23 143.33 173.19 142.60 173.89 Z M 141.89 174.56 L 141.16 175.23 C 140.43 175.92 140.39 177.07 141.07 177.81 C 141.76 178.55 142.92 178.59 143.65 177.90 L 144.38 177.22 C 145.12 176.53 145.15 175.38 144.47 174.64 C 143.78 173.91 142.62 173.87 141.89 174.56 Z M 141.17 175.23 L 140.44 175.91 C 139.70 176.59 139.65 177.74 140.34 178.48 C 141.02 179.22 142.17 179.27 142.91 178.58 L 143.65 177.90 C 144.39 177.22 144.43 176.07 143.75 175.33 C 143.06 174.59 141.91 174.54 141.17 175.23 Z M 140.44 175.90 L 139.70 176.58 C 138.96 177.26 138.91 178.41 139.59 179.16 C 140.27 179.90 141.42 179.95 142.16 179.27 L 142.91 178.59 C 143.65 177.91 143.70 176.76 143.02 176.01 C 142.34 175.27 141.19 175.22 140.44 175.90 Z M 139.71 176.58 L 138.95 177.26 C 138.21 177.93 138.15 179.09 138.83 179.83 C 139.50 180.58 140.65 180.64 141.40 179.96 L 142.15 179.28 C 142.90 178.60 142.96 177.45 142.28 176.70 C 141.61 175.96 140.45 175.90 139.71 176.58 Z M 138.96 177.25 L 138.19 177.94 C 137.45 178.61 137.38 179.76 138.05 180.51 C 138.73 181.26 139.88 181.32 140.63 180.65 L 141.39 179.97 C 142.14 179.29 142.20 178.14 141.53 177.39 C 140.86 176.64 139.71 176.58 138.96 177.25 Z M 138.20 177.93 L 137.43 178.62 C 136.67 179.29 136.61 180.44 137.27 181.19 C 137.94 181.94 139.09 182.01 139.84 181.35 L 140.62 180.66 C 141.37 179.99 141.44 178.84 140.77 178.09 C 140.11 177.33 138.96 177.27 138.20 177.93 Z M 137.44 178.62 L 136.66 179.30 C 135.90 179.96 135.83 181.11 136.49 181.86 C 137.15 182.62 138.30 182.70 139.06 182.03 L 139.84 181.35 C 140.59 180.69 140.67 179.54 140.00 178.78 C 139.34 178.03 138.19 177.95 137.44 178.62 Z M 136.67 179.29 L 135.91 179.95 C 135.15 180.61 135.07 181.76 135.73 182.51 C 136.39 183.27 137.54 183.35 138.29 182.70 L 139.05 182.04 C 139.81 181.38 139.89 180.23 139.23 179.47 C 138.57 178.71 137.43 178.63 136.67 179.29 Z M 135.92 179.94 L 135.15 180.60 C 134.39 181.26 134.31 182.40 134.96 183.16 C 135.61 183.92 136.76 184.01 137.52 183.36 L 138.29 182.70 C 139.05 182.05 139.13 180.90 138.48 180.14 C 137.83 179.38 136.68 179.29 135.92 179.94 Z M 135.16 180.60 L 134.39 181.25 C 133.63 181.90 133.53 183.05 134.18 183.81 C 134.83 184.57 135.98 184.67 136.74 184.02 L 137.51 183.36 C 138.28 182.71 138.37 181.57 137.72 180.80 C 137.07 180.04 135.92 179.95 135.16 180.60 Z M 134.40 181.25 L 133.62 181.90 C 132.86 182.55 132.76 183.69 133.40 184.46 C 134.05 185.22 135.19 185.32 135.96 184.68 L 136.73 184.02 C 137.50 183.38 137.60 182.23 136.95 181.47 C 136.31 180.70 135.16 180.61 134.40 181.25 Z M 133.63 181.90 L 132.85 182.55 C 132.08 183.19 131.98 184.33 132.62 185.10 C 133.26 185.87 134.40 185.97 135.17 185.33 L 135.95 184.68 C 136.72 184.04 136.82 182.90 136.18 182.13 C 135.54 181.36 134.40 181.26 133.63 181.90 Z M 132.86 182.55 L 132.08 183.19 C 131.31 183.83 131.20 184.97 131.84 185.74 C 132.48 186.51 133.62 186.62 134.38 185.98 L 135.16 185.33 C 135.93 184.70 136.04 183.56 135.40 182.79 C 134.77 182.02 133.63 181.91 132.86 182.55 Z M 132.09 183.19 L 131.31 183.83 C 130.54 184.46 130.42 185.60 131.06 186.37 C 131.69 187.14 132.83 187.25 133.60 186.62 L 134.38 185.98 C 135.15 185.35 135.26 184.21 134.63 183.44 C 133.99 182.67 132.86 182.56 132.09 183.19 Z M 131.31 183.82 L 130.54 184.46 C 129.77 185.08 129.65 186.22 130.28 186.99 C 130.91 187.77 132.04 187.88 132.82 187.25 L 133.59 186.62 C 134.37 185.99 134.48 184.86 133.85 184.09 C 133.22 183.31 132.09 183.20 131.31 183.82 Z M 130.55 184.45 L 129.78 185.07 C 129.00 185.70 128.88 186.83 129.51 187.61 C 130.13 188.38 131.27 188.50 132.04 187.88 L 132.81 187.26 C 133.58 186.63 133.71 185.50 133.08 184.72 C 132.46 183.95 131.32 183.83 130.55 184.45 Z M 129.78 185.07 L 129.02 185.68 C 128.24 186.30 128.12 187.43 128.74 188.21 C 129.36 188.99 130.49 189.11 131.27 188.49 L 132.03 187.88 C 132.81 187.26 132.94 186.13 132.31 185.35 C 131.69 184.57 130.56 184.45 129.78 185.07 Z M 129.03 185.68 L 128.27 186.28 C 127.49 186.89 127.36 188.02 127.98 188.80 C 128.60 189.58 129.73 189.71 130.51 189.09 L 131.26 188.50 C 132.04 187.88 132.17 186.75 131.55 185.97 C 130.94 185.19 129.81 185.06 129.03 185.68 Z M 128.28 186.27 L 127.43 186.94 C 126.65 187.55 126.52 188.68 127.13 189.46 C 127.74 190.24 128.87 190.37 129.65 189.76 L 130.50 189.10 C 131.28 188.48 131.41 187.36 130.80 186.58 C 130.19 185.80 129.06 185.66 128.28 186.27 Z M 127.44 186.93 L 126.61 187.58 C 125.83 188.19 125.69 189.32 126.29 190.10 C 126.90 190.88 128.03 191.02 128.81 190.41 L 129.64 189.76 C 130.43 189.16 130.57 188.03 129.96 187.25 C 129.35 186.47 128.23 186.33 127.44 186.93 Z M 126.62 187.58 L 125.79 188.21 C 125.01 188.82 124.86 189.94 125.47 190.72 C 126.07 191.51 127.19 191.65 127.98 191.05 L 128.80 190.42 C 129.58 189.81 129.73 188.69 129.13 187.91 C 128.52 187.12 127.40 186.98 126.62 187.58 Z M 125.80 188.21 L 124.99 188.83 C 124.21 189.43 124.05 190.55 124.65 191.33 C 125.25 192.12 126.37 192.27 127.15 191.67 L 127.97 191.05 C 128.75 190.46 128.90 189.33 128.31 188.55 C 127.71 187.77 126.59 187.61 125.80 188.21 Z M 125.00 188.83 L 124.20 189.43 C 123.41 190.02 123.25 191.14 123.85 191.93 C 124.44 192.71 125.56 192.87 126.34 192.28 L 127.15 191.67 C 127.93 191.08 128.09 189.96 127.50 189.18 C 126.90 188.39 125.79 188.23 125.00 188.83 Z M 124.21 189.43 L 123.42 190.02 C 122.63 190.61 122.47 191.72 123.05 192.51 C 123.64 193.30 124.76 193.46 125.55 192.87 L 126.34 192.28 C 127.12 191.69 127.29 190.58 126.70 189.79 C 126.11 189.00 124.99 188.84 124.21 189.43 Z M 123.42 190.02 L 122.64 190.59 C 121.85 191.18 121.69 192.29 122.27 193.08 C 122.85 193.87 123.97 194.04 124.76 193.45 L 125.54 192.87 C 126.33 192.29 126.49 191.18 125.91 190.39 C 125.33 189.60 124.21 189.43 123.42 190.02 Z M 122.65 190.59 L 121.88 191.16 C 121.09 191.74 120.92 192.85 121.49 193.64 C 122.07 194.43 123.18 194.60 123.97 194.02 L 124.75 193.45 C 125.54 192.88 125.71 191.77 125.13 190.98 C 124.55 190.18 123.44 190.01 122.65 190.59 Z M 121.89 191.16 L 121.12 191.71 C 120.33 192.29 120.15 193.39 120.73 194.18 C 121.30 194.98 122.41 195.15 123.20 194.58 L 123.97 194.02 C 124.76 193.45 124.93 192.34 124.36 191.55 C 123.78 190.76 122.68 190.58 121.89 191.16 Z M 121.13 191.71 L 120.36 192.26 C 119.57 192.83 119.39 193.94 119.96 194.73 C 120.53 195.52 121.63 195.70 122.43 195.13 L 123.19 194.58 C 123.99 194.01 124.17 192.91 123.60 192.11 C 123.03 191.32 121.92 191.14 121.13 191.71 Z M 120.37 192.26 L 119.51 192.88 C 118.71 193.44 118.53 194.54 119.09 195.34 C 119.66 196.13 120.76 196.31 121.55 195.75 L 122.42 195.13 C 123.21 194.57 123.40 193.47 122.83 192.67 C 122.26 191.88 121.16 191.69 120.37 192.26 Z M 119.51 192.88 L 118.66 193.48 C 117.87 194.04 117.68 195.14 118.24 195.93 C 118.80 196.73 119.90 196.91 120.69 196.35 L 121.54 195.75 C 122.34 195.19 122.53 194.09 121.97 193.30 C 121.41 192.50 120.31 192.32 119.51 192.88 Z M 118.67 193.48 L 117.82 194.07 C 117.03 194.63 116.84 195.72 117.39 196.52 C 117.95 197.31 119.04 197.50 119.84 196.95 L 120.68 196.35 C 121.47 195.80 121.67 194.70 121.11 193.91 C 120.55 193.12 119.46 192.92 118.67 193.48 Z M 117.83 194.07 L 117.00 194.65 C 116.20 195.20 116.01 196.29 116.56 197.09 C 117.11 197.88 118.20 198.08 119.00 197.52 L 119.83 196.95 C 120.62 196.39 120.82 195.30 120.27 194.51 C 119.71 193.72 118.62 193.52 117.83 194.07 Z M 117.01 194.65 L 116.18 195.22 C 115.39 195.77 115.19 196.85 115.74 197.65 C 116.29 198.44 117.37 198.64 118.17 198.09 L 118.99 197.52 C 119.78 196.98 119.98 195.89 119.43 195.10 C 118.89 194.30 117.80 194.10 117.01 194.65 Z M 116.19 195.22 L 115.38 195.77 C 114.59 196.32 114.39 197.40 114.93 198.19 C 115.48 198.99 116.56 199.19 117.35 198.64 L 118.16 198.09 C 118.95 197.55 119.16 196.46 118.61 195.67 C 118.07 194.88 116.98 194.67 116.19 195.22 Z M 115.39 195.77 L 114.60 196.32 C 113.80 196.86 113.60 197.94 114.14 198.73 C 114.68 199.52 115.76 199.72 116.55 199.18 L 117.35 198.64 C 118.14 198.10 118.34 197.02 117.80 196.23 C 117.26 195.44 116.18 195.23 115.39 195.77 Z M 114.60 196.32 L 113.82 196.85 C 113.03 197.38 112.83 198.46 113.36 199.25 C 113.90 200.04 114.98 200.25 115.77 199.71 L 116.55 199.18 C 117.34 198.64 117.55 197.57 117.01 196.78 C 116.47 195.99 115.39 195.78 114.60 196.32 Z M 113.83 196.85 L 112.99 197.41 C 112.20 197.95 112.00 199.02 112.53 199.81 C 113.06 200.60 114.14 200.81 114.93 200.27 L 115.76 199.71 C 116.55 199.17 116.76 198.10 116.23 197.31 C 115.69 196.52 114.62 196.31 113.83 196.85 Z M 113.00 197.42 L 112.11 198.02 C 111.32 198.55 111.11 199.62 111.64 200.41 C 112.17 201.20 113.24 201.40 114.03 200.87 L 114.92 200.27 C 115.71 199.74 115.92 198.67 115.39 197.88 C 114.86 197.09 113.79 196.89 113.00 197.42 Z M 112.11 198.02 L 111.24 198.60 C 110.46 199.13 110.24 200.19 110.77 200.98 C 111.30 201.77 112.36 201.98 113.15 201.45 L 114.02 200.87 C 114.81 200.34 115.02 199.28 114.49 198.49 C 113.97 197.71 112.90 197.49 112.11 198.02 Z M 111.25 198.60 L 110.40 199.17 C 109.62 199.69 109.40 200.75 109.92 201.54 C 110.45 202.32 111.51 202.54 112.29 202.01 L 113.14 201.45 C 113.93 200.93 114.14 199.87 113.62 199.08 C 113.10 198.30 112.04 198.08 111.25 198.60 Z M 110.41 199.17 L 109.59 199.71 C 108.80 200.22 108.58 201.28 109.10 202.07 C 109.62 202.85 110.67 203.07 111.46 202.56 L 112.28 202.01 C 113.07 201.50 113.29 200.44 112.77 199.66 C 112.26 198.87 111.20 198.65 110.41 199.17 Z M 109.60 199.71 L 108.80 200.23 C 108.01 200.74 107.79 201.79 108.29 202.57 C 108.80 203.36 109.85 203.59 110.64 203.08 L 111.44 202.56 C 112.23 202.05 112.46 201.00 111.95 200.21 C 111.44 199.42 110.39 199.20 109.60 199.71 Z M 108.81 200.23 L 108.03 200.73 C 107.24 201.23 107.01 202.27 107.51 203.06 C 108.01 203.85 109.06 204.08 109.84 203.58 L 110.63 203.08 C 111.41 202.58 111.65 201.53 111.14 200.75 C 110.64 199.96 109.60 199.73 108.81 200.23 Z M 108.05 200.72 L 107.22 201.24 C 106.43 201.73 106.19 202.77 106.68 203.56 C 107.17 204.35 108.21 204.59 109.00 204.10 L 109.83 203.58 C 110.62 203.09 110.86 202.05 110.36 201.26 C 109.87 200.47 108.83 200.23 108.05 200.72 Z M 107.24 201.24 L 106.31 201.80 C 105.52 202.28 105.27 203.31 105.75 204.10 C 106.23 204.89 107.26 205.14 108.05 204.66 L 108.98 204.10 C 109.77 203.62 110.02 202.59 109.54 201.80 C 109.06 201.01 108.03 200.75 107.24 201.24 Z M 106.33 201.80 L 105.44 202.33 C 104.64 202.79 104.38 203.82 104.85 204.61 C 105.32 205.40 106.34 205.67 107.13 205.20 L 108.03 204.67 C 108.82 204.20 109.08 203.18 108.62 202.38 C 108.15 201.59 107.12 201.33 106.33 201.80 Z M 105.46 202.32 L 104.59 202.82 C 103.80 203.28 103.52 204.29 103.98 205.09 C 104.44 205.88 105.45 206.15 106.25 205.70 L 107.11 205.20 C 107.91 204.74 108.18 203.73 107.72 202.93 C 107.27 202.14 106.25 201.86 105.46 202.32 Z M 104.61 202.82 L 103.78 203.29 C 102.98 203.73 102.70 204.74 103.15 205.54 C 103.59 206.33 104.60 206.61 105.39 206.17 L 106.23 205.70 C 107.02 205.25 107.31 204.25 106.86 203.45 C 106.41 202.65 105.41 202.37 104.61 202.82 Z M 103.80 203.28 L 102.99 203.73 C 102.20 204.16 101.90 205.16 102.34 205.96 C 102.78 206.75 103.77 207.05 104.57 206.61 L 105.38 206.17 C 106.17 205.73 106.46 204.73 106.03 203.94 C 105.59 203.14 104.59 202.85 103.80 203.28 Z M 103.01 203.72 L 102.17 204.17 C 101.37 204.60 101.07 205.59 101.50 206.39 C 101.92 207.19 102.91 207.49 103.71 207.06 L 104.55 206.61 C 105.35 206.18 105.65 205.19 105.23 204.40 C 104.80 203.60 103.81 203.30 103.01 203.72 Z M 102.19 204.17 L 101.34 204.61 C 100.53 205.02 100.22 206.00 100.63 206.80 C 101.04 207.61 102.03 207.92 102.83 207.51 L 103.69 207.07 C 104.49 206.66 104.80 205.67 104.39 204.87 C 103.98 204.07 103.00 203.75 102.19 204.17 Z M 101.37 204.59 L 100.51 205.01 C 99.70 205.40 99.36 206.38 99.75 207.19 C 100.14 208.00 101.11 208.33 101.92 207.94 L 102.79 207.52 C 103.60 207.13 103.94 206.16 103.55 205.35 C 103.16 204.54 102.18 204.20 101.37 204.59 Z M 100.55 205.00 L 99.65 205.40 C 98.83 205.77 98.46 206.73 98.83 207.55 C 99.19 208.36 100.15 208.73 100.97 208.36 L 101.88 207.96 C 102.70 207.59 103.06 206.63 102.70 205.82 C 102.33 205.00 101.37 204.63 100.55 205.00 Z M 99.70 205.39 L 98.73 205.78 C 97.90 206.12 97.50 207.06 97.84 207.89 C 98.18 208.72 99.12 209.12 99.95 208.78 L 100.92 208.38 C 101.75 208.04 102.14 207.10 101.81 206.27 C 101.47 205.44 100.52 205.05 99.70 205.39 Z M 98.77 205.75 L 97.86 206.09 C 97.02 206.41 96.59 207.35 96.90 208.19 C 97.22 209.03 98.16 209.46 99.00 209.15 L 99.91 208.81 C 100.75 208.49 101.18 207.55 100.86 206.71 C 100.55 205.87 99.61 205.44 98.77 205.75 Z M 97.88 206.04 L 97.00 206.35 C 96.13 206.65 95.67 207.60 95.97 208.47 C 96.28 209.34 97.23 209.80 98.10 209.50 L 98.98 209.19 C 99.85 208.89 100.31 207.94 100.00 207.07 C 99.70 206.20 98.75 205.74 97.88 206.04 Z M 97.01 206.29 L 96.08 206.60 C 95.18 206.90 94.69 207.87 94.99 208.77 C 95.29 209.67 96.26 210.16 97.16 209.86 L 98.09 209.55 C 98.99 209.26 99.48 208.29 99.18 207.39 C 98.88 206.49 97.91 206.00 97.01 206.29 Z M 96.09 206.55 L 95.12 206.85 C 94.19 207.15 93.68 208.14 93.98 209.07 C 94.27 210.00 95.26 210.51 96.19 210.22 L 97.15 209.91 C 98.08 209.62 98.60 208.63 98.30 207.70 C 98.01 206.77 97.02 206.25 96.09 206.55 Z M 95.12 206.80 L 94.13 207.11 C 93.17 207.41 92.64 208.42 92.93 209.38 C 93.23 210.33 94.24 210.87 95.20 210.57 L 96.19 210.27 C 97.15 209.97 97.68 208.96 97.39 208.00 C 97.09 207.05 96.08 206.51 95.12 206.80 Z M 94.13 207.06 L 93.11 207.37 C 92.13 207.67 91.58 208.70 91.87 209.69 C 92.17 210.67 93.21 211.23 94.19 210.93 L 95.20 210.62 C 96.19 210.33 96.74 209.29 96.45 208.30 C 96.15 207.32 95.11 206.76 94.13 207.06 Z M 93.11 207.32 L 92.23 207.59 C 91.22 207.89 90.65 208.95 90.95 209.96 C 91.26 210.97 92.32 211.54 93.33 211.24 L 94.20 210.97 C 95.21 210.67 95.78 209.61 95.48 208.60 C 95.18 207.59 94.11 207.02 93.11 207.32 Z"
      fill="black"
      fill-rule="nonzero" /></svg>