<svg xmlns="http://www.w3.org/2000/svg" width="300" height="300" viewBox="0 0 300 300">
<path d="M 133.79 97.46 L 132.43 97.24 C 131.53 97.09 130.69 97.70 130.54 98.59 C 130.40 99.48 131.00 100.33 131.90 100.47 L 133.26 100.70 C 134.15 100.84 134.99 100.24 135.14 99.35 C 135.29 98.45 134.68 97.61 133.79 97.46 Z M 132.44 97.23 L 131.22 97.02 C 130.33 96.86 129.47 97.47 129.32 98.37 C 129.16 99.26 129.76 100.12 130.66 100.27 L 131.88 100.48 C 132.78 100.64 133.63 100.04 133.79 99.14 C 133.94 98.24 133.34 97.38 132.44 97.23 Z M 131.27 97.01 L 130.34 96.83 C 129.44 96.65 128.56 97.24 128.38 98.14 C 128.21 99.04 128.79 99.92 129.69 100.10 L 130.62 100.28 C 131.52 100.46 132.40 99.87 132.58 98.97 C 132.76 98.07 132.17 97.19 131.27 97.01 Z M 130.49 96.85 L 130.00 96.71 C 129.11 96.45 128.18 96.96 127.92 97.85 C 127.66 98.74 128.17 99.67 129.06 99.93 L 129.54 100.07 C 130.43 100.33 131.37 99.83 131.63 98.94 C 131.89 98.05 131.38 97.11 130.49 96.85 Z M 130.42 99.75 L 130.60 99.64 C 131.39 99.15 131.63 98.11 131.14 97.32 C 130.66 96.53 129.62 96.28 128.83 96.77 L 128.64 96.89 C 127.85 97.38 127.61 98.41 128.10 99.21 C 128.59 100.00 129.62 100.24 130.42 99.75 Z M 129.80 99.89 L 130.75 99.84 C 131.68 99.79 132.39 99.00 132.34 98.07 C 132.30 97.14 131.50 96.43 130.57 96.48 L 129.62 96.53 C 128.69 96.58 127.98 97.37 128.03 98.30 C 128.08 99.23 128.87 99.94 129.80 99.89 Z M 130.69 99.84 L 132.10 99.82 C 133.03 99.80 133.77 99.04 133.75 98.11 C 133.74 97.18 132.98 96.44 132.05 96.45 L 130.64 96.48 C 129.71 96.49 128.97 97.25 128.98 98.18 C 129.00 99.11 129.76 99.85 130.69 99.84 Z M 132.10 99.81 L 133.13 99.80 C 134.05 99.78 134.79 99.02 134.78 98.09 C 134.76 97.17 134.00 96.43 133.07 96.44 L 132.05 96.46 C 131.12 96.47 130.38 97.24 130.40 98.16 C 130.41 99.09 131.17 99.83 132.10 99.81 Z M 133.14 99.78 L 134.09 99.76 C 135.01 99.74 135.74 98.97 135.72 98.05 C 135.69 97.13 134.93 96.41 134.01 96.43 L 133.06 96.45 C 132.14 96.48 131.41 97.24 131.43 98.16 C 131.46 99.08 132.22 99.81 133.14 99.78 Z M 134.12 99.75 L 135.10 99.71 C 136.02 99.67 136.73 98.90 136.69 97.99 C 136.65 97.08 135.88 96.37 134.97 96.40 L 133.99 96.44 C 133.07 96.48 132.36 97.25 132.40 98.16 C 132.43 99.07 133.20 99.79 134.12 99.75 Z M 135.13 99.70 L 136.15 99.64 C 137.06 99.58 137.75 98.81 137.70 97.90 C 137.65 96.99 136.87 96.30 135.96 96.36 L 134.94 96.41 C 134.03 96.47 133.34 97.25 133.39 98.15 C 133.45 99.06 134.23 99.75 135.13 99.70 Z M 136.19 99.62 L 137.25 99.54 C 138.15 99.47 138.82 98.68 138.75 97.78 C 138.67 96.88 137.89 96.21 136.99 96.28 L 135.93 96.37 C 135.03 96.44 134.36 97.23 134.43 98.13 C 134.50 99.03 135.29 99.70 136.19 99.62 Z M 137.29 99.52 L 138.34 99.41 C 139.23 99.32 139.88 98.52 139.78 97.63 C 139.69 96.74 138.89 96.09 138.00 96.19 L 136.95 96.30 C 136.06 96.39 135.41 97.19 135.51 98.08 C 135.60 98.97 136.40 99.62 137.29 99.52 Z M 138.37 99.40 L 139.41 99.27 C 140.29 99.16 140.92 98.35 140.81 97.46 C 140.69 96.58 139.89 95.95 139.00 96.07 L 137.96 96.20 C 137.08 96.31 136.45 97.12 136.57 98.00 C 136.68 98.89 137.49 99.51 138.37 99.40 Z M 139.44 99.26 L 140.47 99.11 C 141.35 98.98 141.96 98.17 141.83 97.29 C 141.70 96.41 140.89 95.80 140.01 95.93 L 138.97 96.08 C 138.10 96.21 137.49 97.02 137.62 97.90 C 137.74 98.78 138.56 99.39 139.44 99.26 Z M 140.49 99.10 L 141.50 98.93 C 142.38 98.79 142.97 97.97 142.83 97.10 C 142.69 96.23 141.87 95.64 141.00 95.78 L 139.99 95.94 C 139.12 96.08 138.52 96.90 138.66 97.77 C 138.80 98.64 139.62 99.24 140.49 99.10 Z M 141.52 98.92 L 142.49 98.76 C 143.35 98.60 143.93 97.78 143.78 96.92 C 143.63 96.05 142.81 95.47 141.94 95.62 L 140.98 95.79 C 140.11 95.94 139.53 96.76 139.68 97.63 C 139.84 98.49 140.66 99.07 141.52 98.92 Z M 142.50 98.74 L 143.39 98.58 C 144.25 98.42 144.82 97.59 144.66 96.73 C 144.50 95.87 143.67 95.31 142.81 95.47 L 141.92 95.63 C 141.06 95.79 140.50 96.62 140.66 97.48 C 140.82 98.34 141.64 98.90 142.50 98.74 Z M 143.41 98.56 L 144.55 98.33 C 145.40 98.16 145.95 97.33 145.77 96.48 C 145.60 95.63 144.77 95.08 143.92 95.26 L 142.79 95.49 C 141.94 95.66 141.39 96.49 141.57 97.33 C 141.74 98.18 142.57 98.73 143.41 98.56 Z M 144.57 98.31 L 145.58 98.08 C 146.41 97.90 146.94 97.07 146.75 96.23 C 146.57 95.40 145.74 94.87 144.90 95.06 L 143.90 95.28 C 143.06 95.47 142.54 96.29 142.72 97.13 C 142.91 97.97 143.74 98.49 144.57 98.31 Z M 145.60 98.06 L 146.49 97.85 C 147.31 97.65 147.82 96.82 147.62 96.00 C 147.43 95.18 146.60 94.67 145.78 94.87 L 144.88 95.08 C 144.06 95.28 143.55 96.10 143.75 96.93 C 143.95 97.75 144.77 98.26 145.60 98.06 Z M 146.50 97.83 L 147.36 97.61 C 148.17 97.41 148.66 96.59 148.46 95.78 C 148.26 94.97 147.44 94.47 146.63 94.67 L 145.77 94.89 C 144.96 95.09 144.46 95.91 144.66 96.72 C 144.87 97.53 145.69 98.03 146.50 97.83 Z M 147.35 97.60 L 148.33 97.36 C 149.13 97.16 149.62 96.34 149.42 95.54 C 149.22 94.73 148.40 94.24 147.60 94.45 L 146.63 94.69 C 145.82 94.89 145.33 95.70 145.54 96.51 C 145.74 97.31 146.55 97.80 147.35 97.60 Z M 148.32 97.35 L 149.29 97.10 C 150.09 96.91 150.58 96.10 150.38 95.30 C 150.18 94.50 149.37 94.01 148.57 94.21 L 147.60 94.45 C 146.80 94.65 146.31 95.46 146.51 96.26 C 146.71 97.06 147.52 97.55 148.32 97.35 Z M 149.29 97.10 L 150.26 96.85 C 151.05 96.65 151.54 95.85 151.34 95.06 C 151.14 94.26 150.34 93.78 149.54 93.98 L 148.57 94.22 C 147.78 94.42 147.30 95.22 147.49 96.02 C 147.69 96.81 148.50 97.29 149.29 97.10 Z M 150.26 96.85 L 151.23 96.60 C 152.02 96.41 152.50 95.61 152.30 94.82 C 152.10 94.03 151.30 93.55 150.51 93.74 L 149.54 93.99 C 148.75 94.18 148.27 94.98 148.47 95.77 C 148.67 96.56 149.47 97.04 150.26 96.85 Z M 151.23 96.60 L 152.20 96.35 C 152.98 96.16 153.46 95.36 153.26 94.58 C 153.07 93.79 152.27 93.31 151.49 93.51 L 150.52 93.75 C 149.73 93.95 149.25 94.74 149.45 95.53 C 149.65 96.31 150.44 96.79 151.23 96.60 Z M 152.20 96.35 L 153.17 96.10 C 153.95 95.91 154.42 95.12 154.23 94.33 C 154.03 93.55 153.24 93.08 152.46 93.27 L 151.49 93.52 C 150.71 93.71 150.23 94.50 150.43 95.28 C 150.62 96.07 151.41 96.54 152.20 96.35 Z M 153.16 96.10 L 154.14 95.85 C 154.91 95.66 155.39 94.87 155.19 94.09 C 155.00 93.32 154.21 92.84 153.43 93.04 L 152.46 93.28 C 151.68 93.47 151.21 94.26 151.40 95.04 C 151.60 95.82 152.39 96.29 153.16 96.10 Z M 154.13 95.85 L 155.10 95.61 C 155.88 95.42 156.35 94.64 156.16 93.86 C 155.97 93.09 155.19 92.61 154.41 92.80 L 153.44 93.04 C 152.66 93.23 152.19 94.01 152.38 94.79 C 152.57 95.56 153.35 96.04 154.13 95.85 Z M 155.08 95.61 L 156.06 95.38 C 156.83 95.20 157.31 94.43 157.13 93.65 C 156.95 92.88 156.18 92.40 155.40 92.58 L 154.43 92.80 C 153.66 92.98 153.17 93.76 153.35 94.53 C 153.54 95.31 154.31 95.79 155.08 95.61 Z M 156.03 95.38 L 157.01 95.18 C 157.78 95.01 158.27 94.25 158.11 93.47 C 157.94 92.70 157.18 92.20 156.41 92.37 L 155.43 92.58 C 154.66 92.74 154.16 93.50 154.33 94.28 C 154.49 95.05 155.25 95.55 156.03 95.38 Z M 156.98 95.18 L 157.96 94.99 C 158.74 94.84 159.24 94.09 159.09 93.31 C 158.95 92.54 158.20 92.03 157.42 92.18 L 156.44 92.37 C 155.66 92.52 155.15 93.27 155.30 94.04 C 155.45 94.82 156.20 95.33 156.98 95.18 Z M 157.94 94.99 L 158.93 94.81 C 159.70 94.67 160.22 93.93 160.08 93.15 C 159.94 92.37 159.19 91.86 158.42 92.00 L 157.43 92.18 C 156.66 92.32 156.14 93.06 156.28 93.84 C 156.42 94.62 157.17 95.13 157.94 94.99 Z M 158.93 94.81 L 159.91 94.63 C 160.68 94.49 161.20 93.74 161.05 92.97 C 160.91 92.19 160.17 91.68 159.39 91.82 L 158.41 92.00 C 157.64 92.14 157.13 92.89 157.27 93.66 C 157.41 94.44 158.15 94.95 158.93 94.81 Z M 159.92 94.63 L 160.86 94.45 C 161.63 94.30 162.14 93.55 161.99 92.78 C 161.85 92.01 161.10 91.50 160.33 91.65 L 159.39 91.82 C 158.61 91.97 158.10 92.72 158.25 93.49 C 158.40 94.26 159.14 94.77 159.92 94.63 Z M 160.84 94.45 L 161.81 94.28 C 162.58 94.14 163.10 93.40 162.96 92.63 C 162.83 91.85 162.09 91.33 161.31 91.47 L 160.34 91.64 C 159.57 91.78 159.05 92.52 159.19 93.30 C 159.32 94.07 160.06 94.59 160.84 94.45 Z M 161.76 94.29 L 162.79 94.14 C 163.57 94.02 164.11 93.30 164.00 92.52 C 163.88 91.74 163.16 91.20 162.38 91.32 L 161.36 91.46 C 160.58 91.58 160.04 92.30 160.15 93.08 C 160.26 93.86 160.98 94.40 161.76 94.29 Z M 162.73 94.14 L 163.71 94.05 C 164.49 93.97 165.06 93.27 164.98 92.48 C 164.90 91.70 164.20 91.13 163.42 91.21 L 162.44 91.31 C 161.66 91.39 161.09 92.09 161.17 92.87 C 161.25 93.65 161.95 94.22 162.73 94.14 Z M 163.66 94.05 L 164.63 93.98 C 165.42 93.93 166.01 93.25 165.96 92.47 C 165.91 91.68 165.23 91.09 164.44 91.14 L 163.47 91.21 C 162.68 91.26 162.09 91.94 162.14 92.72 C 162.19 93.51 162.87 94.10 163.66 94.05 Z M 164.60 93.99 L 165.62 93.94 C 166.40 93.90 167.01 93.23 166.97 92.45 C 166.94 91.66 166.27 91.05 165.49 91.09 L 164.47 91.14 C 163.69 91.17 163.08 91.84 163.11 92.63 C 163.15 93.41 163.82 94.02 164.60 93.99 Z M 165.60 93.94 L 166.64 93.90 C 167.42 93.88 168.04 93.22 168.01 92.43 C 167.98 91.64 167.32 91.03 166.54 91.05 L 165.50 91.09 C 164.71 91.12 164.10 91.78 164.13 92.56 C 164.15 93.35 164.81 93.97 165.60 93.94 Z M 166.63 93.90 L 167.04 93.89 C 167.83 93.87 168.44 93.21 168.42 92.42 C 168.39 91.63 167.74 91.02 166.95 91.04 L 166.54 91.05 C 165.75 91.08 165.14 91.74 165.16 92.52 C 165.19 93.31 165.84 93.93 166.63 93.90 Z"
      fill="black"
      fill-rule="nonzero" /><path d="M 146.81 98.74 L 146.18 99.66 C 145.70 100.36 145.88 101.32 146.58 101.80 C 147.28 102.28 148.24 102.10 148.72 101.40 L 149.34 100.48 C 149.82 99.78 149.64 98.82 148.94 98.34 C 148.24 97.86 147.29 98.04 146.81 98.74 Z M 146.17 99.65 L 145.55 100.56 C 145.07 101.27 145.25 102.23 145.95 102.71 C 146.66 103.20 147.62 103.02 148.10 102.31 L 148.72 101.40 C 149.21 100.70 149.03 99.73 148.32 99.25 C 147.62 98.77 146.65 98.95 146.17 99.65 Z M 145.54 100.56 L 144.93 101.45 C 144.44 102.16 144.62 103.13 145.33 103.61 C 146.04 104.10 147.01 103.92 147.50 103.21 L 148.11 102.32 C 148.59 101.61 148.41 100.64 147.70 100.15 C 147.00 99.67 146.03 99.85 145.54 100.56 Z M 144.92 101.44 L 144.33 102.31 C 143.84 103.02 144.02 104.00 144.73 104.49 C 145.44 104.98 146.42 104.80 146.91 104.08 L 147.50 103.22 C 147.99 102.50 147.81 101.53 147.10 101.04 C 146.39 100.55 145.41 100.73 144.92 101.44 Z M 144.32 102.30 L 143.75 103.14 C 143.25 103.85 143.43 104.83 144.15 105.33 C 144.87 105.82 145.85 105.64 146.34 104.92 L 146.91 104.09 C 147.41 103.37 147.23 102.39 146.51 101.90 C 145.79 101.41 144.81 101.59 144.32 102.30 Z M 143.74 103.13 L 143.19 103.92 C 142.70 104.64 142.88 105.62 143.60 106.12 C 144.32 106.62 145.30 106.44 145.80 105.72 L 146.35 104.93 C 146.85 104.21 146.67 103.22 145.95 102.73 C 145.23 102.23 144.24 102.41 143.74 103.13 Z M 143.19 103.91 L 142.68 104.64 C 142.17 105.37 142.35 106.36 143.07 106.87 C 143.80 107.37 144.79 107.19 145.29 106.47 L 145.81 105.73 C 146.31 105.01 146.13 104.01 145.41 103.51 C 144.69 103.01 143.69 103.18 143.19 103.91 Z M 142.67 104.63 L 142.20 105.31 C 141.69 106.04 141.86 107.04 142.59 107.55 C 143.32 108.06 144.32 107.88 144.83 107.15 L 145.30 106.48 C 145.81 105.75 145.63 104.75 144.91 104.24 C 144.18 103.73 143.18 103.91 142.67 104.63 Z M 142.20 105.30 L 141.50 106.29 C 140.99 107.01 141.16 108.01 141.88 108.53 C 142.61 109.04 143.61 108.87 144.12 108.15 L 144.82 107.16 C 145.34 106.44 145.17 105.44 144.44 104.92 C 143.72 104.41 142.71 104.58 142.20 105.30 Z M 141.52 106.28 L 140.87 107.17 C 140.35 107.89 140.51 108.89 141.23 109.41 C 141.94 109.92 142.94 109.76 143.46 109.05 L 144.11 108.15 C 144.63 107.44 144.47 106.44 143.75 105.92 C 143.03 105.40 142.04 105.56 141.52 106.28 Z M 140.89 107.17 L 140.33 107.92 C 139.81 108.63 139.96 109.62 140.67 110.15 C 141.37 110.67 142.37 110.52 142.89 109.81 L 143.44 109.05 C 143.96 108.35 143.81 107.35 143.11 106.83 C 142.40 106.31 141.41 106.46 140.89 107.17 Z M 140.34 107.92 L 139.84 108.59 C 139.32 109.29 139.47 110.28 140.16 110.80 C 140.86 111.32 141.85 111.18 142.37 110.48 L 142.87 109.81 C 143.40 109.11 143.25 108.12 142.55 107.60 C 141.85 107.08 140.86 107.22 140.34 107.92 Z M 139.85 108.60 L 139.33 109.30 C 138.81 109.99 138.96 110.98 139.65 111.49 C 140.35 112.01 141.33 111.87 141.85 111.17 L 142.37 110.47 C 142.89 109.78 142.74 108.79 142.05 108.28 C 141.35 107.76 140.37 107.90 139.85 108.60 Z M 139.33 109.31 L 138.74 110.11 C 138.22 110.80 138.37 111.78 139.07 112.30 C 139.76 112.81 140.74 112.66 141.25 111.97 L 141.85 111.16 C 142.36 110.47 142.21 109.49 141.52 108.98 C 140.82 108.46 139.84 108.61 139.33 109.31 Z M 138.74 110.11 L 138.15 110.92 C 137.64 111.62 137.78 112.59 138.48 113.10 C 139.17 113.61 140.15 113.46 140.66 112.77 L 141.25 111.96 C 141.76 111.27 141.61 110.29 140.92 109.78 C 140.23 109.27 139.25 109.42 138.74 110.11 Z M 138.15 110.92 L 137.56 111.73 C 137.05 112.42 137.19 113.39 137.88 113.90 C 138.57 114.41 139.55 114.26 140.06 113.57 L 140.65 112.77 C 141.16 112.08 141.02 111.11 140.32 110.60 C 139.63 110.09 138.66 110.23 138.15 110.92 Z M 137.57 111.72 L 136.97 112.52 C 136.45 113.21 136.60 114.18 137.28 114.69 C 137.97 115.21 138.94 115.06 139.45 114.38 L 140.05 113.58 C 140.56 112.89 140.42 111.92 139.73 111.41 C 139.05 110.90 138.08 111.04 137.57 111.72 Z M 136.98 112.52 L 136.37 113.32 C 135.86 114.00 135.99 114.96 136.67 115.48 C 137.35 115.99 138.32 115.86 138.83 115.18 L 139.44 114.38 C 139.95 113.71 139.82 112.74 139.14 112.22 C 138.46 111.71 137.49 111.84 136.98 112.52 Z M 136.39 113.31 L 135.78 114.10 C 135.26 114.77 135.38 115.74 136.06 116.26 C 136.73 116.78 137.70 116.65 138.21 115.98 L 138.82 115.19 C 139.34 114.51 139.22 113.55 138.54 113.03 C 137.87 112.51 136.90 112.64 136.39 113.31 Z M 135.79 114.09 L 135.17 114.89 C 134.65 115.55 134.77 116.52 135.43 117.04 C 136.10 117.56 137.06 117.44 137.58 116.77 L 138.20 115.98 C 138.72 115.32 138.61 114.35 137.94 113.83 C 137.27 113.31 136.31 113.43 135.79 114.09 Z M 135.18 114.88 L 134.55 115.67 C 134.02 116.33 134.13 117.30 134.79 117.82 C 135.45 118.35 136.41 118.24 136.94 117.58 L 137.57 116.78 C 138.10 116.12 137.99 115.16 137.33 114.64 C 136.67 114.11 135.71 114.22 135.18 114.88 Z M 134.56 115.67 L 133.93 116.45 C 133.40 117.11 133.50 118.07 134.16 118.59 C 134.81 119.12 135.77 119.02 136.30 118.36 L 136.93 117.58 C 137.46 116.93 137.35 115.97 136.70 115.44 C 136.04 114.91 135.09 115.02 134.56 115.67 Z M 133.94 116.45 L 133.32 117.21 C 132.79 117.86 132.89 118.82 133.53 119.34 C 134.18 119.87 135.14 119.78 135.67 119.13 L 136.29 118.37 C 136.82 117.72 136.72 116.76 136.07 116.23 C 135.42 115.70 134.47 115.80 133.94 116.45 Z M 133.33 117.21 L 132.73 117.94 C 132.20 118.58 132.29 119.53 132.94 120.06 C 133.58 120.59 134.53 120.50 135.06 119.86 L 135.66 119.13 C 136.19 118.48 136.10 117.53 135.45 117.00 C 134.81 116.47 133.86 116.57 133.33 117.21 Z M 132.74 117.93 L 132.13 118.66 C 131.60 119.30 131.69 120.25 132.33 120.78 C 132.97 121.31 133.92 121.22 134.45 120.59 L 135.05 119.86 C 135.58 119.22 135.50 118.27 134.86 117.74 C 134.22 117.21 133.27 117.29 132.74 117.93 Z M 132.14 118.66 L 131.49 119.43 C 130.96 120.07 131.04 121.01 131.67 121.55 C 132.30 122.08 133.25 122.00 133.78 121.37 L 134.44 120.59 C 134.97 119.96 134.89 119.01 134.26 118.48 C 133.62 117.94 132.68 118.02 132.14 118.66 Z M 131.50 119.43 L 130.80 120.25 C 130.27 120.88 130.34 121.82 130.97 122.35 C 131.60 122.89 132.54 122.81 133.08 122.19 L 133.77 121.37 C 134.31 120.74 134.23 119.80 133.61 119.26 C 132.98 118.73 132.03 118.80 131.50 119.43 Z M 130.81 120.24 L 130.17 120.99 C 129.64 121.61 129.71 122.55 130.33 123.09 C 130.95 123.62 131.90 123.55 132.43 122.93 L 133.07 122.19 C 133.61 121.56 133.54 120.62 132.91 120.09 C 132.29 119.55 131.35 119.62 130.81 120.24 Z M 130.18 120.98 L 129.51 121.76 C 128.97 122.37 129.03 123.31 129.65 123.85 C 130.27 124.39 131.21 124.33 131.75 123.71 L 132.42 122.94 C 132.96 122.32 132.90 121.38 132.28 120.84 C 131.66 120.30 130.72 120.36 130.18 120.98 Z M 129.52 121.75 L 128.83 122.52 C 128.29 123.13 128.34 124.07 128.96 124.62 C 129.57 125.16 130.51 125.10 131.05 124.49 L 131.74 123.72 C 132.28 123.10 132.22 122.17 131.61 121.62 C 131.00 121.08 130.06 121.13 129.52 121.75 Z M 128.85 122.51 L 128.18 123.24 C 127.63 123.85 127.67 124.79 128.28 125.34 C 128.88 125.89 129.82 125.84 130.37 125.24 L 131.04 124.50 C 131.59 123.90 131.54 122.96 130.94 122.41 C 130.33 121.86 129.40 121.90 128.85 122.51 Z M 128.19 123.22 L 127.31 124.15 C 126.75 124.75 126.78 125.69 127.37 126.26 C 127.97 126.82 128.92 126.79 129.48 126.19 L 130.36 125.26 C 130.92 124.66 130.89 123.72 130.29 123.16 C 129.69 122.59 128.75 122.62 128.19 123.22 Z M 127.25 124.18 L 126.53 125.01 C 125.98 125.64 126.05 126.60 126.68 127.15 C 127.32 127.70 128.28 127.63 128.82 126.99 L 129.54 126.16 C 130.09 125.53 130.02 124.57 129.39 124.02 C 128.76 123.48 127.80 123.55 127.25 124.18 Z M 126.23 125.46 L 126.02 126.01 C 125.72 126.81 126.12 127.71 126.92 128.01 C 127.72 128.31 128.62 127.91 128.92 127.10 L 129.13 126.55 C 129.43 125.75 129.03 124.85 128.22 124.55 C 127.42 124.25 126.53 124.65 126.23 125.46 Z M 126.60 127.88 L 127.07 128.18 C 127.80 128.66 128.78 128.46 129.25 127.73 C 129.73 127.00 129.53 126.03 128.80 125.55 L 128.33 125.24 C 127.60 124.77 126.63 124.97 126.15 125.70 C 125.67 126.42 125.88 127.40 126.60 127.88 Z M 127.38 128.36 L 128.33 128.71 C 129.15 129.01 130.07 128.59 130.37 127.77 C 130.68 126.95 130.26 126.03 129.44 125.73 L 128.49 125.38 C 127.67 125.07 126.75 125.49 126.45 126.31 C 126.14 127.14 126.56 128.05 127.38 128.36 Z M 127.95 128.52 L 128.92 129.21 C 129.64 129.73 130.64 129.56 131.16 128.84 C 131.67 128.12 131.50 127.12 130.78 126.60 L 129.81 125.91 C 129.09 125.40 128.09 125.57 127.58 126.29 C 127.06 127.01 127.23 128.01 127.95 128.52 Z M 128.59 128.91 L 129.09 129.54 C 129.65 130.24 130.66 130.35 131.36 129.80 C 132.05 129.25 132.17 128.23 131.61 127.54 L 131.11 126.91 C 130.56 126.21 129.55 126.10 128.85 126.65 C 128.16 127.20 128.04 128.21 128.59 128.91 Z M 128.96 129.36 L 129.43 130.15 C 129.88 130.92 130.87 131.17 131.64 130.72 C 132.41 130.27 132.66 129.28 132.21 128.51 L 131.75 127.72 C 131.29 126.95 130.30 126.70 129.54 127.15 C 128.77 127.60 128.51 128.59 128.96 129.36 Z M 129.35 130.02 L 129.79 130.94 C 130.17 131.75 131.13 132.10 131.94 131.72 C 132.75 131.34 133.10 130.37 132.72 129.56 L 132.28 128.64 C 131.90 127.83 130.94 127.48 130.13 127.86 C 129.32 128.24 128.97 129.21 129.35 130.02 Z M 129.74 130.85 L 130.15 131.87 C 130.48 132.71 131.42 133.12 132.26 132.79 C 133.09 132.45 133.50 131.51 133.17 130.68 L 132.76 129.65 C 132.43 128.82 131.49 128.41 130.65 128.74 C 129.82 129.07 129.41 130.02 129.74 130.85 Z M 130.12 131.81 L 130.50 132.91 C 130.80 133.76 131.73 134.20 132.58 133.91 C 133.43 133.61 133.87 132.68 133.58 131.83 L 133.19 130.74 C 132.90 129.89 131.97 129.44 131.12 129.74 C 130.27 130.03 129.82 130.96 130.12 131.81 Z M 130.49 132.87 L 130.80 133.86 C 131.08 134.71 131.99 135.19 132.85 134.91 C 133.71 134.64 134.18 133.72 133.91 132.86 L 133.59 131.87 C 133.32 131.02 132.40 130.54 131.54 130.82 C 130.68 131.09 130.21 132.01 130.49 132.87 Z M 130.79 133.83 L 131.08 134.80 C 131.34 135.66 132.25 136.15 133.11 135.89 C 133.98 135.64 134.47 134.73 134.21 133.86 L 133.92 132.89 C 133.66 132.03 132.75 131.54 131.89 131.80 C 131.02 132.05 130.53 132.96 130.79 133.83 Z M 131.07 134.77 L 131.35 135.75 C 131.59 136.62 132.49 137.13 133.36 136.88 C 134.23 136.64 134.74 135.74 134.49 134.87 L 134.22 133.89 C 133.97 133.02 133.07 132.51 132.21 132.76 C 131.34 133.00 130.83 133.90 131.07 134.77 Z M 131.34 135.73 L 131.60 136.71 C 131.83 137.58 132.72 138.10 133.59 137.87 C 134.47 137.64 134.99 136.75 134.76 135.88 L 134.50 134.89 C 134.27 134.02 133.38 133.50 132.51 133.73 C 131.63 133.96 131.11 134.85 131.34 135.73 Z M 131.59 136.68 L 131.83 137.65 C 132.05 138.53 132.93 139.07 133.81 138.85 C 134.69 138.63 135.22 137.75 135.00 136.87 L 134.77 135.90 C 134.55 135.02 133.66 134.49 132.79 134.70 C 131.91 134.92 131.38 135.81 131.59 136.68 Z M 131.83 137.63 L 132.05 138.58 C 132.25 139.46 133.12 140.01 134.00 139.81 C 134.88 139.61 135.43 138.73 135.23 137.85 L 135.01 136.90 C 134.81 136.02 133.93 135.47 133.05 135.67 C 132.17 135.87 131.62 136.75 131.83 137.63 Z M 132.04 138.56 L 132.24 139.48 C 132.43 140.37 133.29 140.93 134.18 140.74 C 135.06 140.55 135.62 139.69 135.43 138.80 L 135.24 137.88 C 135.05 136.99 134.18 136.43 133.30 136.62 C 132.41 136.81 131.85 137.68 132.04 138.56 Z M 132.23 139.46 L 132.41 140.35 C 132.58 141.24 133.44 141.82 134.32 141.64 C 135.21 141.47 135.79 140.61 135.61 139.73 L 135.44 138.83 C 135.27 137.94 134.41 137.37 133.52 137.54 C 132.64 137.71 132.06 138.57 132.23 139.46 Z M 132.40 140.32 L 132.56 141.22 C 132.72 142.11 133.56 142.71 134.45 142.55 C 135.34 142.39 135.93 141.55 135.78 140.66 L 135.62 139.76 C 135.46 138.87 134.62 138.28 133.73 138.43 C 132.84 138.59 132.25 139.44 132.40 140.32 Z M 132.56 141.19 L 132.70 142.12 C 132.84 143.01 133.67 143.62 134.56 143.48 C 135.45 143.34 136.06 142.51 135.93 141.62 L 135.78 140.69 C 135.64 139.80 134.81 139.19 133.92 139.33 C 133.03 139.47 132.42 140.30 132.56 141.19 Z M 132.70 142.09 L 132.83 143.07 C 132.95 143.96 133.78 144.59 134.67 144.47 C 135.56 144.34 136.18 143.52 136.06 142.63 L 135.93 141.65 C 135.81 140.76 134.99 140.13 134.09 140.25 C 133.20 140.38 132.58 141.20 132.70 142.09 Z M 132.83 143.04 L 132.96 144.10 C 133.06 145.00 133.87 145.63 134.77 145.53 C 135.66 145.42 136.30 144.61 136.19 143.72 L 136.07 142.66 C 135.96 141.76 135.15 141.13 134.25 141.23 C 133.36 141.34 132.72 142.15 132.83 143.04 Z M 132.95 144.08 L 133.08 145.24 C 133.17 146.14 133.97 146.78 134.87 146.69 C 135.76 146.60 136.41 145.79 136.32 144.90 L 136.19 143.74 C 136.10 142.84 135.30 142.19 134.40 142.29 C 133.51 142.38 132.86 143.19 132.95 144.08 Z M 133.08 145.23 L 133.17 146.21 C 133.26 147.11 134.05 147.76 134.95 147.68 C 135.84 147.59 136.50 146.80 136.41 145.90 L 136.32 144.91 C 136.23 144.02 135.44 143.36 134.54 143.45 C 133.65 143.54 132.99 144.33 133.08 145.23 Z M 133.17 146.20 L 133.26 147.20 C 133.34 148.10 134.13 148.76 135.03 148.68 C 135.92 148.60 136.58 147.81 136.50 146.91 L 136.41 145.91 C 136.33 145.02 135.54 144.36 134.65 144.44 C 133.75 144.52 133.09 145.31 133.17 146.20 Z M 133.26 147.19 L 133.35 148.23 C 133.43 149.12 134.21 149.79 135.11 149.71 C 136.00 149.64 136.66 148.85 136.59 147.96 L 136.50 146.92 C 136.42 146.03 135.64 145.36 134.74 145.44 C 133.85 145.52 133.19 146.30 133.26 147.19 Z M 133.35 148.22 L 133.44 149.28 C 133.51 150.17 134.29 150.84 135.18 150.77 C 136.08 150.69 136.74 149.91 136.67 149.02 L 136.58 147.96 C 136.51 147.07 135.73 146.41 134.84 146.48 C 133.95 146.55 133.28 147.33 133.35 148.22 Z M 133.44 149.27 L 133.52 150.33 C 133.59 151.22 134.37 151.89 135.26 151.82 C 136.15 151.75 136.82 150.97 136.75 150.08 L 136.67 149.03 C 136.60 148.13 135.82 147.47 134.93 147.54 C 134.04 147.60 133.37 148.38 133.44 149.27 Z M 133.52 150.32 L 133.60 151.36 C 133.66 152.25 134.44 152.92 135.33 152.86 C 136.22 152.79 136.89 152.02 136.82 151.13 L 136.75 150.09 C 136.68 149.20 135.91 148.53 135.02 148.59 C 134.13 148.66 133.46 149.43 133.52 150.32 Z M 133.60 151.36 L 133.67 152.36 C 133.73 153.25 134.51 153.92 135.40 153.86 C 136.29 153.79 136.96 153.02 136.89 152.13 L 136.82 151.13 C 136.76 150.24 135.99 149.57 135.10 149.63 C 134.21 149.70 133.54 150.47 133.60 151.36 Z M 133.67 152.35 L 133.74 153.30 C 133.80 154.19 134.57 154.86 135.45 154.80 C 136.34 154.74 137.01 153.97 136.95 153.08 L 136.89 152.14 C 136.83 151.25 136.06 150.58 135.17 150.64 C 134.28 150.70 133.61 151.47 133.67 152.35 Z M 133.74 153.30 L 133.80 154.21 C 133.86 155.10 134.62 155.77 135.51 155.72 C 136.40 155.66 137.07 154.89 137.01 154.01 L 136.95 153.09 C 136.90 152.20 136.13 151.53 135.24 151.59 C 134.35 151.64 133.68 152.41 133.74 153.30 Z M 133.81 154.20 L 133.89 155.51 C 133.94 156.39 134.70 157.06 135.58 157.01 C 136.46 156.96 137.13 156.20 137.08 155.32 L 137.00 154.01 C 136.95 153.13 136.19 152.46 135.31 152.51 C 134.43 152.57 133.76 153.32 133.81 154.20 Z M 133.90 155.50 L 133.96 156.59 C 134.01 157.46 134.75 158.13 135.63 158.09 C 136.50 158.04 137.17 157.29 137.12 156.42 L 137.06 155.33 C 137.01 154.46 136.27 153.79 135.40 153.84 C 134.53 153.88 133.86 154.63 133.90 155.50 Z M 133.98 156.58 L 134.03 157.52 C 134.07 158.38 134.80 159.04 135.66 159.00 C 136.52 158.96 137.19 158.23 137.15 157.37 L 137.10 156.43 C 137.06 155.57 136.33 154.91 135.47 154.95 C 134.60 154.99 133.94 155.72 133.98 156.58 Z M 134.05 157.51 L 134.08 158.35 C 134.12 159.20 134.85 159.86 135.70 159.82 C 136.55 159.78 137.21 159.06 137.17 158.21 L 137.13 157.37 C 137.09 156.52 136.37 155.86 135.52 155.90 C 134.66 155.94 134.01 156.66 134.05 157.51 Z M 134.10 158.35 L 134.14 159.14 C 134.18 159.98 134.90 160.63 135.74 160.59 C 136.58 160.55 137.23 159.84 137.19 159.00 L 137.15 158.20 C 137.11 157.36 136.39 156.71 135.55 156.75 C 134.71 156.79 134.06 157.51 134.10 158.35 Z M 134.16 159.15 L 134.21 160.13 C 134.25 160.97 134.96 161.60 135.80 161.56 C 136.63 161.51 137.27 160.80 137.22 159.97 L 137.17 158.99 C 137.12 158.16 136.41 157.52 135.58 157.56 C 134.75 157.61 134.11 158.32 134.16 159.15 Z M 134.22 160.14 L 134.28 161.14 C 134.33 161.96 135.04 162.59 135.86 162.54 C 136.69 162.49 137.31 161.79 137.27 160.96 L 137.21 159.97 C 137.16 159.14 136.45 158.51 135.63 158.56 C 134.80 158.61 134.18 159.32 134.22 160.14 Z M 134.30 161.14 L 134.36 162.15 C 134.41 162.96 135.11 163.58 135.93 163.53 C 136.75 163.48 137.37 162.78 137.31 161.96 L 137.25 160.96 C 137.20 160.14 136.50 159.52 135.68 159.57 C 134.87 159.62 134.25 160.33 134.30 161.14 Z M 134.37 162.15 L 134.44 163.16 C 134.49 163.96 135.19 164.58 136.00 164.52 C 136.80 164.47 137.42 163.78 137.37 162.97 L 137.30 161.96 C 137.25 161.15 136.55 160.54 135.74 160.59 C 134.94 160.64 134.32 161.34 134.37 162.15 Z"
      fill="black"
      fill-rule="nonzero" /><path d="M 133.20 124.03 L 132.22 123.25 C 131.54 122.69 130.53 122.80 129.98 123.49 C 129.43 124.17 129.54 125.17 130.22 125.73 L 131.20 126.51 C 131.89 127.07 132.89 126.96 133.44 126.27 C 133.99 125.59 133.89 124.59 133.20 124.03 Z M 132.30 123.28 L 131.46 122.53 C 130.80 121.94 129.78 121.99 129.18 122.66 C 128.59 123.32 128.64 124.34 129.31 124.93 L 130.15 125.69 C 130.81 126.28 131.83 126.23 132.42 125.56 C 133.02 124.90 132.96 123.88 132.30 123.28 Z M 131.64 122.69 L 131.08 122.01 C 130.51 121.32 129.48 121.22 128.78 121.79 C 128.09 122.36 127.99 123.39 128.56 124.09 L 129.12 124.77 C 129.70 125.47 130.72 125.57 131.42 124.99 C 132.12 124.42 132.22 123.39 131.64 122.69 Z M 131.43 122.66 L 131.28 122.07 C 131.07 121.19 130.18 120.64 129.29 120.86 C 128.40 121.07 127.86 121.96 128.07 122.85 L 128.22 123.44 C 128.43 124.33 129.32 124.87 130.21 124.66 C 131.10 124.44 131.64 123.55 131.43 122.66 Z M 130.94 123.54 L 131.37 123.04 C 131.97 122.34 131.89 121.29 131.19 120.69 C 130.50 120.10 129.45 120.18 128.85 120.87 L 128.42 121.38 C 127.82 122.08 127.90 123.12 128.60 123.72 C 129.29 124.32 130.34 124.24 130.94 123.54 Z M 130.77 123.48 L 131.68 123.09 C 132.53 122.73 132.92 121.75 132.55 120.91 C 132.19 120.06 131.22 119.67 130.37 120.04 L 129.46 120.43 C 128.62 120.79 128.22 121.77 128.59 122.61 C 128.95 123.45 129.92 123.84 130.77 123.48 Z M 131.46 123.17 L 132.68 122.84 C 133.56 122.60 134.08 121.68 133.84 120.80 C 133.60 119.91 132.69 119.39 131.80 119.63 L 130.59 119.96 C 129.71 120.20 129.18 121.11 129.42 122.00 C 129.66 122.88 130.58 123.41 131.46 123.17 Z M 132.62 122.85 L 133.67 122.60 C 134.56 122.39 135.11 121.50 134.90 120.60 C 134.69 119.71 133.80 119.16 132.90 119.37 L 131.86 119.61 C 130.96 119.83 130.41 120.72 130.62 121.61 C 130.83 122.51 131.73 123.06 132.62 122.85 Z M 133.66 122.60 L 134.66 122.37 C 135.55 122.17 136.11 121.28 135.91 120.38 C 135.70 119.49 134.81 118.93 133.92 119.14 L 132.91 119.37 C 132.02 119.57 131.46 120.46 131.67 121.36 C 131.87 122.25 132.76 122.81 133.66 122.60 Z M 134.66 122.37 L 135.65 122.15 C 136.55 121.94 137.11 121.05 136.90 120.16 C 136.70 119.26 135.81 118.70 134.91 118.91 L 133.92 119.14 C 133.02 119.34 132.46 120.23 132.67 121.13 C 132.87 122.02 133.76 122.58 134.66 122.37 Z M 135.66 122.14 L 136.62 121.92 C 137.52 121.71 138.07 120.82 137.86 119.93 C 137.66 119.03 136.76 118.48 135.87 118.69 L 134.91 118.91 C 134.02 119.12 133.46 120.01 133.67 120.90 C 133.87 121.80 134.77 122.35 135.66 122.14 Z M 136.64 121.92 L 137.60 121.68 C 138.49 121.47 139.04 120.57 138.82 119.68 C 138.60 118.79 137.71 118.24 136.82 118.46 L 135.86 118.69 C 134.97 118.91 134.42 119.80 134.63 120.70 C 134.85 121.59 135.75 122.13 136.64 121.92 Z M 137.62 121.67 L 138.67 121.40 C 139.55 121.17 140.08 120.27 139.86 119.38 C 139.63 118.50 138.72 117.97 137.83 118.20 L 136.79 118.47 C 135.90 118.70 135.37 119.60 135.60 120.49 C 135.83 121.37 136.74 121.90 137.62 121.67 Z M 138.69 121.40 L 139.64 121.14 C 140.52 120.89 141.04 119.98 140.80 119.10 C 140.56 118.22 139.65 117.70 138.77 117.94 L 137.81 118.20 C 136.93 118.44 136.41 119.36 136.65 120.24 C 136.90 121.12 137.81 121.64 138.69 121.40 Z M 139.65 121.13 L 140.54 120.88 C 141.42 120.64 141.93 119.72 141.69 118.84 C 141.44 117.97 140.53 117.45 139.65 117.70 L 138.76 117.95 C 137.88 118.19 137.36 119.11 137.61 119.98 C 137.86 120.86 138.77 121.38 139.65 121.13 Z M 140.54 120.88 L 141.47 120.62 C 142.35 120.38 142.87 119.47 142.63 118.59 C 142.38 117.71 141.47 117.20 140.60 117.44 L 139.66 117.70 C 138.78 117.94 138.26 118.85 138.51 119.73 C 138.75 120.61 139.66 121.12 140.54 120.88 Z M 141.47 120.62 L 142.43 120.36 C 143.31 120.12 143.83 119.21 143.59 118.34 C 143.35 117.46 142.44 116.94 141.56 117.18 L 140.60 117.44 C 139.72 117.68 139.20 118.59 139.44 119.47 C 139.68 120.34 140.59 120.86 141.47 120.62 Z M 142.44 120.36 L 143.40 120.09 C 144.28 119.84 144.79 118.93 144.54 118.06 C 144.30 117.18 143.39 116.67 142.51 116.91 L 141.55 117.18 C 140.67 117.43 140.16 118.34 140.41 119.21 C 140.65 120.09 141.56 120.60 142.44 120.36 Z M 143.43 120.08 L 144.38 119.80 C 145.25 119.54 145.75 118.62 145.49 117.75 C 145.23 116.88 144.31 116.38 143.44 116.64 L 142.49 116.92 C 141.61 117.18 141.12 118.10 141.38 118.97 C 141.64 119.84 142.55 120.34 143.43 120.08 Z M 144.40 119.79 L 145.35 119.49 C 146.21 119.22 146.70 118.29 146.42 117.43 C 146.15 116.56 145.23 116.08 144.36 116.35 L 143.41 116.65 C 142.55 116.92 142.07 117.84 142.34 118.71 C 142.61 119.58 143.54 120.06 144.40 119.79 Z M 145.36 119.48 L 146.32 119.17 C 147.18 118.89 147.65 117.97 147.37 117.10 C 147.09 116.24 146.16 115.76 145.30 116.04 L 144.34 116.36 C 143.48 116.64 143.01 117.56 143.29 118.43 C 143.57 119.29 144.50 119.77 145.36 119.48 Z M 146.32 119.17 L 147.28 118.86 C 148.15 118.57 148.62 117.65 148.33 116.78 C 148.05 115.92 147.12 115.45 146.26 115.73 L 145.30 116.05 C 144.43 116.33 143.96 117.26 144.25 118.12 C 144.53 118.98 145.46 119.45 146.32 119.17 Z M 147.28 118.86 L 148.22 118.55 C 149.08 118.27 149.55 117.35 149.28 116.48 C 149.00 115.62 148.07 115.15 147.21 115.43 L 146.26 115.73 C 145.40 116.01 144.93 116.94 145.21 117.80 C 145.49 118.66 146.41 119.14 147.28 118.86 Z M 148.21 118.55 L 149.16 118.25 C 150.03 117.97 150.50 117.05 150.23 116.18 C 149.95 115.32 149.03 114.84 148.16 115.12 L 147.21 115.43 C 146.35 115.70 145.87 116.63 146.15 117.49 C 146.42 118.35 147.35 118.83 148.21 118.55 Z M 149.16 118.25 L 150.12 117.95 C 150.99 117.67 151.46 116.75 151.19 115.88 C 150.92 115.02 149.99 114.54 149.13 114.82 L 148.17 115.12 C 147.30 115.39 146.82 116.32 147.10 117.18 C 147.37 118.05 148.29 118.52 149.16 118.25 Z M 150.12 117.95 L 151.07 117.65 C 151.93 117.38 152.41 116.46 152.14 115.59 C 151.87 114.73 150.95 114.25 150.08 114.52 L 149.13 114.81 C 148.27 115.09 147.79 116.01 148.06 116.87 C 148.33 117.74 149.25 118.22 150.12 117.95 Z M 151.06 117.65 L 152.01 117.35 C 152.88 117.08 153.36 116.16 153.09 115.30 C 152.82 114.43 151.90 113.95 151.03 114.22 L 150.09 114.52 C 149.22 114.79 148.74 115.71 149.01 116.57 C 149.28 117.44 150.20 117.92 151.06 117.65 Z M 152.01 117.35 L 152.97 117.05 C 153.83 116.78 154.32 115.86 154.04 115.00 C 153.77 114.13 152.85 113.65 151.99 113.92 L 151.03 114.22 C 150.17 114.49 149.69 115.41 149.96 116.28 C 150.23 117.14 151.15 117.62 152.01 117.35 Z M 152.98 117.05 L 153.94 116.74 C 154.80 116.47 155.28 115.55 155.01 114.68 C 154.73 113.82 153.81 113.34 152.95 113.62 L 151.98 113.93 C 151.12 114.20 150.64 115.12 150.92 115.98 C 151.19 116.85 152.11 117.32 152.98 117.05 Z M 153.95 116.74 L 154.88 116.43 C 155.74 116.15 156.21 115.23 155.93 114.37 C 155.66 113.52 154.73 113.04 153.88 113.32 L 152.94 113.62 C 152.08 113.90 151.61 114.82 151.89 115.68 C 152.17 116.54 153.09 117.01 153.95 116.74 Z M 154.88 116.42 L 155.83 116.12 C 156.68 115.84 157.15 114.92 156.87 114.06 C 156.59 113.21 155.67 112.74 154.82 113.02 L 153.87 113.33 C 153.02 113.61 152.55 114.53 152.83 115.38 C 153.11 116.24 154.03 116.70 154.88 116.42 Z M 155.83 116.11 L 156.79 115.80 C 157.64 115.52 158.10 114.60 157.82 113.75 C 157.55 112.90 156.63 112.44 155.78 112.71 L 154.82 113.03 C 153.97 113.31 153.51 114.22 153.78 115.07 C 154.06 115.92 154.98 116.39 155.83 116.11 Z M 156.78 115.79 L 157.75 115.48 C 158.60 115.21 159.07 114.29 158.79 113.45 C 158.52 112.60 157.61 112.13 156.76 112.41 L 155.79 112.72 C 154.94 112.99 154.47 113.90 154.75 114.75 C 155.02 115.60 155.93 116.07 156.78 115.79 Z M 157.74 115.48 L 158.72 115.17 C 159.57 114.90 160.04 114.00 159.77 113.15 C 159.50 112.30 158.59 111.83 157.74 112.10 L 156.77 112.40 C 155.92 112.67 155.45 113.58 155.72 114.43 C 155.99 115.28 156.89 115.75 157.74 115.48 Z M 158.71 115.17 L 159.68 114.87 C 160.53 114.61 161.00 113.71 160.74 112.86 C 160.48 112.01 159.57 111.53 158.72 111.79 L 157.75 112.09 C 156.90 112.36 156.43 113.26 156.69 114.11 C 156.95 114.96 157.86 115.44 158.71 115.17 Z M 159.66 114.88 L 160.61 114.59 C 161.46 114.34 161.94 113.44 161.69 112.59 C 161.43 111.74 160.53 111.25 159.68 111.51 L 158.74 111.79 C 157.88 112.05 157.40 112.94 157.66 113.80 C 157.91 114.65 158.81 115.13 159.66 114.88 Z M 160.59 114.60 L 161.52 114.33 C 162.37 114.08 162.86 113.19 162.62 112.34 C 162.37 111.48 161.48 110.99 160.62 111.24 L 159.70 111.50 C 158.84 111.75 158.35 112.64 158.60 113.50 C 158.84 114.35 159.74 114.85 160.59 114.60 Z M 161.50 114.34 L 162.42 114.08 C 163.28 113.85 163.78 112.96 163.55 112.10 C 163.31 111.24 162.42 110.74 161.57 110.98 L 160.64 111.23 C 159.78 111.47 159.28 112.35 159.52 113.21 C 159.75 114.07 160.64 114.57 161.50 114.34 Z M 162.40 114.09 L 163.35 113.84 C 164.21 113.61 164.72 112.73 164.50 111.87 C 164.27 111.01 163.39 110.49 162.53 110.72 L 161.58 110.97 C 160.72 111.20 160.21 112.08 160.43 112.94 C 160.66 113.80 161.54 114.31 162.40 114.09 Z M 163.34 113.84 L 164.36 113.58 C 165.22 113.36 165.74 112.49 165.52 111.62 C 165.30 110.76 164.43 110.24 163.56 110.46 L 162.54 110.72 C 161.68 110.94 161.16 111.81 161.38 112.68 C 161.59 113.54 162.47 114.06 163.34 113.84 Z M 164.35 113.59 L 165.29 113.35 C 166.16 113.14 166.68 112.26 166.47 111.40 C 166.25 110.53 165.38 110.01 164.51 110.22 L 163.57 110.45 C 162.71 110.67 162.18 111.54 162.39 112.41 C 162.61 113.27 163.48 113.80 164.35 113.59 Z M 165.28 113.36 L 166.26 113.12 C 167.12 112.91 167.65 112.04 167.44 111.17 C 167.23 110.30 166.36 109.77 165.50 109.98 L 164.52 110.22 C 163.66 110.43 163.12 111.30 163.33 112.17 C 163.54 113.03 164.42 113.57 165.28 113.36 Z M 166.24 113.12 L 167.25 112.89 C 168.11 112.69 168.65 111.82 168.45 110.95 C 168.25 110.08 167.38 109.54 166.51 109.74 L 165.51 109.98 C 164.64 110.18 164.10 111.05 164.30 111.92 C 164.50 112.79 165.37 113.33 166.24 113.12 Z M 167.23 112.90 L 168.23 112.68 C 169.10 112.48 169.65 111.62 169.46 110.75 C 169.26 109.88 168.40 109.32 167.53 109.52 L 166.53 109.74 C 165.66 109.93 165.11 110.79 165.30 111.67 C 165.49 112.54 166.35 113.09 167.23 112.90 Z M 168.20 112.69 L 169.33 112.46 C 170.21 112.29 170.78 111.43 170.60 110.55 C 170.42 109.67 169.56 109.10 168.68 109.28 L 167.56 109.50 C 166.68 109.68 166.11 110.54 166.28 111.42 C 166.46 112.30 167.32 112.87 168.20 112.69 Z M 169.26 112.51 L 170.52 112.31 C 171.43 112.17 172.05 111.32 171.90 110.42 C 171.76 109.51 170.92 108.89 170.01 109.04 L 168.75 109.23 C 167.85 109.37 167.23 110.22 167.37 111.12 C 167.51 112.03 168.36 112.65 169.26 112.51 Z M 170.30 112.37 L 171.17 112.36 C 172.11 112.34 172.85 111.56 172.83 110.62 C 172.81 109.68 172.04 108.93 171.10 108.95 L 170.23 108.97 C 169.29 108.99 168.55 109.77 168.56 110.71 C 168.58 111.65 169.36 112.39 170.30 112.37 Z M 169.91 111.89 L 170.18 112.16 C 170.86 112.84 171.96 112.83 172.64 112.15 C 173.32 111.47 173.31 110.36 172.63 109.69 L 172.36 109.42 C 171.67 108.74 170.57 108.75 169.90 109.43 C 169.22 110.11 169.22 111.21 169.91 111.89 Z M 169.98 109.88 L 169.50 110.54 C 168.92 111.33 169.09 112.43 169.87 113.01 C 170.66 113.58 171.76 113.41 172.34 112.63 L 172.82 111.97 C 173.40 111.18 173.23 110.08 172.45 109.50 C 171.66 108.93 170.56 109.10 169.98 109.88 Z M 169.65 110.34 L 168.74 111.27 C 168.05 111.97 168.06 113.10 168.76 113.78 C 169.46 114.47 170.58 114.46 171.27 113.76 L 172.18 112.83 C 172.87 112.13 172.86 111.01 172.16 110.32 C 171.46 109.63 170.34 109.64 169.65 110.34 Z M 168.68 111.32 L 168.03 112.04 C 167.37 112.77 167.43 113.90 168.16 114.55 C 168.89 115.21 170.02 115.16 170.68 114.43 L 171.33 113.71 C 171.99 112.98 171.93 111.85 171.20 111.19 C 170.47 110.53 169.34 110.59 168.68 111.32 Z M 167.97 112.10 L 167.36 112.86 C 166.73 113.62 166.85 114.75 167.61 115.37 C 168.37 116.00 169.50 115.88 170.12 115.12 L 170.74 114.36 C 171.36 113.60 171.25 112.47 170.48 111.85 C 169.72 111.23 168.60 111.34 167.97 112.10 Z M 167.31 112.92 L 166.69 113.74 C 166.10 114.53 166.26 115.65 167.05 116.24 C 167.84 116.83 168.96 116.67 169.55 115.88 L 170.17 115.06 C 170.76 114.27 170.60 113.15 169.81 112.56 C 169.02 111.97 167.90 112.13 167.31 112.92 Z M 166.66 113.78 L 166.06 114.63 C 165.49 115.44 165.69 116.56 166.50 117.13 C 167.31 117.69 168.43 117.50 169.00 116.69 L 169.59 115.83 C 170.16 115.02 169.96 113.91 169.15 113.34 C 168.34 112.77 167.22 112.97 166.66 113.78 Z M 166.03 114.67 L 165.51 115.46 C 164.97 116.28 165.19 117.39 166.02 117.94 C 166.84 118.49 167.95 118.26 168.50 117.44 L 169.02 116.65 C 169.57 115.83 169.34 114.71 168.52 114.17 C 167.69 113.62 166.58 113.84 166.03 114.67 Z M 165.49 115.49 L 164.97 116.32 C 164.44 117.16 164.69 118.26 165.53 118.79 C 166.36 119.32 167.47 119.07 168.00 118.23 L 168.52 117.40 C 169.05 116.57 168.80 115.46 167.96 114.93 C 167.13 114.40 166.02 114.65 165.49 115.49 Z M 164.94 116.35 L 164.42 117.23 C 163.91 118.08 164.18 119.18 165.03 119.69 C 165.88 120.20 166.99 119.92 167.50 119.07 L 168.02 118.20 C 168.53 117.35 168.26 116.25 167.41 115.74 C 166.56 115.23 165.45 115.50 164.94 116.35 Z M 164.40 117.26 L 163.88 118.17 C 163.38 119.04 163.68 120.13 164.55 120.63 C 165.41 121.12 166.51 120.82 167.00 119.95 L 167.52 119.04 C 168.01 118.18 167.71 117.08 166.85 116.59 C 165.99 116.10 164.89 116.40 164.40 117.26 Z M 163.86 118.21 L 163.38 119.08 C 162.91 119.96 163.23 121.05 164.11 121.52 C 164.98 122.00 166.07 121.67 166.54 120.80 L 167.02 119.92 C 167.49 119.05 167.17 117.96 166.29 117.48 C 165.42 117.01 164.33 117.34 163.86 118.21 Z M 163.36 119.12 L 162.91 119.99 C 162.46 120.88 162.81 121.96 163.69 122.42 C 164.57 122.87 165.66 122.52 166.11 121.64 L 166.56 120.76 C 167.02 119.88 166.67 118.79 165.79 118.34 C 164.90 117.89 163.82 118.24 163.36 119.12 Z M 162.89 120.03 L 162.46 120.93 C 162.02 121.82 162.39 122.90 163.29 123.34 C 164.18 123.77 165.26 123.40 165.69 122.50 L 166.13 121.60 C 166.56 120.71 166.19 119.63 165.30 119.20 C 164.41 118.76 163.33 119.14 162.89 120.03 Z M 162.44 120.97 L 162.02 121.89 C 161.60 122.79 162.00 123.86 162.90 124.27 C 163.81 124.69 164.88 124.29 165.29 123.39 L 165.71 122.47 C 166.12 121.56 165.73 120.50 164.82 120.08 C 163.92 119.67 162.85 120.07 162.44 120.97 Z M 162.00 121.93 L 161.60 122.87 C 161.21 123.78 161.63 124.84 162.54 125.23 C 163.46 125.62 164.52 125.20 164.91 124.28 L 165.31 123.35 C 165.70 122.43 165.27 121.37 164.36 120.98 C 163.45 120.59 162.39 121.02 162.00 121.93 Z M 161.58 122.91 L 161.21 123.84 C 160.84 124.76 161.30 125.81 162.22 126.18 C 163.14 126.54 164.19 126.09 164.56 125.17 L 164.93 124.24 C 165.29 123.31 164.84 122.27 163.92 121.90 C 162.99 121.54 161.95 121.99 161.58 122.91 Z M 161.19 123.88 L 160.85 124.81 C 160.51 125.75 160.99 126.78 161.92 127.12 C 162.85 127.47 163.89 126.99 164.23 126.06 L 164.57 125.12 C 164.92 124.19 164.44 123.16 163.50 122.81 C 162.57 122.47 161.54 122.95 161.19 123.88 Z M 160.84 124.86 L 160.52 125.80 C 160.20 126.74 160.70 127.76 161.64 128.08 C 162.58 128.40 163.60 127.90 163.92 126.96 L 164.25 126.01 C 164.57 125.07 164.06 124.05 163.12 123.73 C 162.18 123.41 161.16 123.91 160.84 124.86 Z M 160.51 125.84 L 160.20 126.79 C 159.91 127.74 160.43 128.75 161.38 129.05 C 162.33 129.35 163.34 128.82 163.64 127.87 L 163.94 126.92 C 164.24 125.97 163.71 124.96 162.76 124.66 C 161.81 124.36 160.80 124.89 160.51 125.84 Z M 160.19 126.83 L 159.91 127.80 C 159.63 128.75 160.18 129.75 161.13 130.03 C 162.08 130.31 163.08 129.76 163.36 128.81 L 163.65 127.84 C 163.93 126.88 163.38 125.89 162.43 125.61 C 161.47 125.33 160.47 125.87 160.19 126.83 Z M 159.90 127.83 L 159.64 128.78 C 159.38 129.74 159.94 130.73 160.90 130.99 C 161.86 131.25 162.85 130.68 163.11 129.73 L 163.37 128.77 C 163.63 127.82 163.07 126.83 162.11 126.57 C 161.15 126.30 160.16 126.87 159.90 127.83 Z M 159.63 128.81 L 159.39 129.74 C 159.15 130.71 159.73 131.69 160.69 131.93 C 161.65 132.18 162.63 131.60 162.88 130.63 L 163.12 129.70 C 163.37 128.74 162.78 127.76 161.82 127.51 C 160.86 127.26 159.88 127.85 159.63 128.81 Z M 159.39 129.77 L 159.16 130.72 C 158.93 131.69 159.52 132.66 160.49 132.89 C 161.45 133.12 162.42 132.53 162.65 131.57 L 162.88 130.61 C 163.12 129.65 162.52 128.67 161.56 128.44 C 160.59 128.21 159.62 128.80 159.39 129.77 Z M 159.16 130.74 L 158.93 131.72 C 158.71 132.69 159.32 133.65 160.28 133.87 C 161.25 134.09 162.21 133.49 162.44 132.52 L 162.66 131.54 C 162.88 130.58 162.27 129.61 161.31 129.39 C 160.34 129.17 159.38 129.78 159.16 130.74 Z M 158.93 131.74 L 158.71 132.74 C 158.50 133.70 159.11 134.66 160.08 134.87 C 161.05 135.08 162.01 134.47 162.22 133.50 L 162.44 132.50 C 162.65 131.53 162.04 130.58 161.07 130.36 C 160.10 130.15 159.14 130.77 158.93 131.74 Z M 158.71 132.75 L 158.49 133.78 C 158.29 134.75 158.91 135.70 159.88 135.90 C 160.85 136.11 161.80 135.48 162.01 134.51 L 162.22 133.49 C 162.43 132.52 161.81 131.57 160.84 131.36 C 159.87 131.16 158.91 131.78 158.71 132.75 Z M 158.49 133.79 L 158.31 134.68 C 158.11 135.65 158.74 136.60 159.71 136.80 C 160.68 136.99 161.63 136.37 161.83 135.40 L 162.01 134.50 C 162.21 133.53 161.58 132.59 160.61 132.39 C 159.64 132.19 158.69 132.82 158.49 133.79 Z M 158.31 134.69 L 158.13 135.61 C 157.94 136.58 158.57 137.52 159.54 137.72 C 160.51 137.91 161.45 137.27 161.65 136.30 L 161.83 135.38 C 162.02 134.41 161.38 133.47 160.41 133.28 C 159.44 133.09 158.50 133.72 158.31 134.69 Z M 158.13 135.63 L 157.95 136.58 C 157.77 137.55 158.41 138.48 159.38 138.67 C 160.35 138.85 161.29 138.21 161.47 137.24 L 161.65 136.29 C 161.83 135.31 161.19 134.38 160.22 134.20 C 159.24 134.01 158.31 134.65 158.13 135.63 Z M 157.95 136.60 L 157.77 137.58 C 157.60 138.55 158.25 139.48 159.23 139.65 C 160.20 139.82 161.13 139.17 161.30 138.20 L 161.47 137.22 C 161.64 136.24 160.99 135.31 160.02 135.14 C 159.05 134.97 158.12 135.62 157.95 136.60 Z M 157.77 137.60 L 157.60 138.63 C 157.44 139.60 158.10 140.52 159.08 140.68 C 160.05 140.84 160.97 140.18 161.13 139.20 L 161.30 138.18 C 161.46 137.20 160.80 136.29 159.82 136.13 C 158.85 135.97 157.93 136.63 157.77 137.60 Z M 157.60 138.65 L 157.44 139.72 C 157.29 140.70 157.97 141.61 158.94 141.75 C 159.92 141.90 160.83 141.23 160.97 140.25 L 161.13 139.18 C 161.28 138.20 160.61 137.30 159.63 137.15 C 158.66 137.00 157.75 137.67 157.60 138.65 Z M 157.44 139.74 L 157.30 140.77 C 157.17 141.74 157.85 142.64 158.83 142.78 C 159.80 142.91 160.70 142.23 160.84 141.25 L 160.98 140.23 C 161.11 139.25 160.43 138.35 159.45 138.22 C 158.47 138.08 157.57 138.77 157.44 139.74 Z M 157.30 140.79 L 157.18 141.72 C 157.06 142.70 157.75 143.59 158.73 143.71 C 159.71 143.83 160.60 143.14 160.72 142.16 L 160.84 141.23 C 160.96 140.25 160.27 139.36 159.29 139.24 C 158.31 139.12 157.42 139.81 157.30 140.79 Z M 157.18 141.74 L 157.07 142.70 C 156.96 143.68 157.66 144.56 158.64 144.68 C 159.62 144.79 160.50 144.09 160.61 143.11 L 160.72 142.15 C 160.83 141.17 160.13 140.29 159.15 140.17 C 158.18 140.06 157.29 140.76 157.18 141.74 Z M 157.07 142.72 L 156.97 143.70 C 156.86 144.68 157.57 145.56 158.55 145.66 C 159.53 145.77 160.40 145.06 160.51 144.08 L 160.61 143.09 C 160.71 142.12 160.01 141.24 159.03 141.14 C 158.05 141.03 157.18 141.74 157.07 142.72 Z M 156.97 143.72 L 156.87 144.72 C 156.77 145.70 157.49 146.57 158.46 146.67 C 159.44 146.76 160.31 146.05 160.41 145.07 L 160.51 144.07 C 160.60 143.09 159.89 142.22 158.91 142.12 C 157.93 142.03 157.06 142.74 156.97 143.72 Z M 156.87 144.74 L 156.78 145.76 C 156.69 146.73 157.41 147.60 158.39 147.69 C 159.36 147.77 160.22 147.05 160.31 146.08 L 160.41 145.06 C 160.49 144.08 159.77 143.22 158.80 143.13 C 157.82 143.04 156.96 143.76 156.87 144.74 Z M 156.78 145.77 L 156.69 146.80 C 156.61 147.77 157.33 148.63 158.31 148.71 C 159.29 148.80 160.14 148.07 160.23 147.10 L 160.31 146.07 C 160.39 145.09 159.67 144.23 158.69 144.15 C 157.72 144.07 156.86 144.79 156.78 145.77 Z M 156.69 146.81 L 156.61 147.84 C 156.54 148.82 157.27 149.67 158.24 149.75 C 159.22 149.82 160.07 149.09 160.14 148.12 L 160.22 147.08 C 160.30 146.11 159.57 145.26 158.60 145.18 C 157.62 145.11 156.77 145.83 156.69 146.81 Z M 156.61 147.86 L 156.54 148.92 C 156.47 149.89 157.20 150.74 158.18 150.81 C 159.15 150.88 160.00 150.14 160.07 149.17 L 160.14 148.11 C 160.21 147.13 159.48 146.29 158.51 146.22 C 157.53 146.15 156.68 146.88 156.61 147.86 Z M 156.54 148.93 L 156.47 150.03 C 156.41 151.00 157.14 151.84 158.11 151.90 C 159.09 151.97 159.93 151.23 159.99 150.26 L 160.06 149.16 C 160.13 148.19 159.39 147.35 158.42 147.28 C 157.45 147.22 156.61 147.95 156.54 148.93 Z M 156.48 150.04 L 156.41 151.12 C 156.35 152.09 157.09 152.92 158.06 152.98 C 159.03 153.04 159.86 152.30 159.92 151.33 L 159.98 150.25 C 160.04 149.28 159.31 148.45 158.34 148.39 C 157.37 148.33 156.53 149.07 156.48 150.04 Z M 156.41 151.13 L 156.36 152.19 C 156.30 153.15 157.04 153.98 158.01 154.03 C 158.97 154.09 159.80 153.35 159.85 152.38 L 159.91 151.32 C 159.97 150.36 159.23 149.53 158.26 149.48 C 157.30 149.42 156.47 150.16 156.41 151.13 Z M 156.36 152.19 L 156.31 153.22 C 156.26 154.18 157.00 155.00 157.96 155.05 C 158.93 155.10 159.75 154.36 159.80 153.39 L 159.85 152.37 C 159.90 151.41 159.16 150.59 158.19 150.54 C 157.23 150.49 156.41 151.23 156.36 152.19 Z M 156.31 153.22 L 156.27 154.20 C 156.23 155.16 156.97 155.97 157.93 156.02 C 158.89 156.06 159.70 155.32 159.75 154.36 L 159.79 153.38 C 159.84 152.42 159.09 151.61 158.13 151.57 C 157.17 151.52 156.36 152.26 156.31 153.22 Z M 156.28 154.21 L 156.24 155.12 C 156.20 156.08 156.94 156.89 157.90 156.93 C 158.85 156.97 159.66 156.23 159.70 155.27 L 159.74 154.35 C 159.78 153.39 159.04 152.59 158.08 152.55 C 157.12 152.51 156.32 153.25 156.28 154.21 Z M 156.24 155.13 L 156.21 155.98 C 156.18 156.94 156.92 157.74 157.87 157.77 C 158.83 157.81 159.63 157.06 159.67 156.11 L 159.70 155.26 C 159.73 154.31 158.99 153.50 158.03 153.47 C 157.08 153.43 156.28 154.18 156.24 155.13 Z M 156.22 155.99 L 156.19 157.13 C 156.16 158.08 156.91 158.87 157.85 158.90 C 158.80 158.92 159.59 158.18 159.62 157.23 L 159.66 156.10 C 159.68 155.15 158.94 154.36 157.99 154.33 C 157.04 154.30 156.25 155.05 156.22 155.99 Z M 156.20 157.15 L 156.19 158.24 C 156.17 159.18 156.92 159.96 157.86 159.97 C 158.80 159.98 159.58 159.23 159.59 158.29 L 159.61 157.20 C 159.62 156.26 158.87 155.49 157.93 155.48 C 156.99 155.46 156.22 156.21 156.20 157.15 Z M 156.20 158.28 L 156.21 159.24 C 156.22 160.17 156.99 160.92 157.92 160.91 C 158.85 160.90 159.59 160.14 159.58 159.21 L 159.57 158.25 C 159.56 157.32 158.80 156.57 157.87 156.58 C 156.94 156.59 156.19 157.35 156.20 158.28 Z M 156.23 159.30 L 156.27 160.18 C 156.32 161.10 157.10 161.82 158.02 161.77 C 158.94 161.73 159.65 160.95 159.61 160.03 L 159.56 159.15 C 159.52 158.23 158.74 157.52 157.82 157.56 C 156.90 157.60 156.19 158.38 156.23 159.30 Z M 156.30 160.25 L 156.37 161.13 C 156.45 162.04 157.26 162.71 158.16 162.63 C 159.07 162.55 159.74 161.74 159.66 160.84 L 159.58 159.96 C 159.50 159.05 158.70 158.38 157.79 158.46 C 156.89 158.54 156.21 159.34 156.30 160.25 Z M 156.40 161.19 L 156.53 162.16 C 156.64 163.06 157.46 163.69 158.36 163.57 C 159.25 163.45 159.88 162.63 159.76 161.74 L 159.64 160.77 C 159.52 159.88 158.70 159.25 157.81 159.36 C 156.91 159.48 156.28 160.30 156.40 161.19 Z M 156.55 162.21 L 156.71 163.20 C 156.85 164.08 157.68 164.67 158.56 164.53 C 159.44 164.39 160.04 163.56 159.90 162.68 L 159.74 161.69 C 159.60 160.81 158.77 160.21 157.89 160.36 C 157.00 160.50 156.41 161.33 156.55 162.21 Z M 156.73 163.22 L 156.92 164.22 C 157.07 165.09 157.91 165.66 158.77 165.50 C 159.64 165.35 160.22 164.51 160.06 163.65 L 159.88 162.65 C 159.72 161.78 158.89 161.21 158.02 161.37 C 157.15 161.52 156.58 162.36 156.73 163.22 Z M 156.94 164.23 L 157.11 165.13 C 157.27 165.98 158.10 166.55 158.96 166.38 C 159.81 166.22 160.38 165.39 160.21 164.53 L 160.04 163.64 C 159.87 162.78 159.05 162.22 158.19 162.38 C 157.33 162.55 156.77 163.37 156.94 164.23 Z"
      fill="black"
      fill-rule="nonzero" /><path d="M 134.49 137.34 L 135.47 137.40 C 136.36 137.45 137.13 136.76 137.18 135.87 C 137.23 134.97 136.54 134.21 135.65 134.16 L 134.67 134.11 C 133.78 134.06 133.01 134.74 132.96 135.64 C 132.92 136.53 133.60 137.29 134.49 137.34 Z M 135.48 137.40 L 136.46 137.45 C 137.35 137.49 138.11 136.80 138.16 135.91 C 138.21 135.02 137.52 134.26 136.63 134.21 L 135.64 134.16 C 134.75 134.12 133.99 134.80 133.94 135.70 C 133.90 136.59 134.58 137.35 135.48 137.40 Z M 136.47 137.44 L 137.47 137.49 C 138.36 137.53 139.11 136.84 139.15 135.94 C 139.19 135.05 138.50 134.30 137.61 134.26 L 136.61 134.21 C 135.72 134.17 134.97 134.87 134.93 135.76 C 134.89 136.65 135.58 137.41 136.47 137.44 Z M 137.48 137.49 L 138.50 137.52 C 139.39 137.55 140.13 136.85 140.16 135.96 C 140.19 135.07 139.49 134.32 138.60 134.29 L 137.59 134.26 C 136.70 134.23 135.95 134.93 135.92 135.82 C 135.89 136.71 136.59 137.46 137.48 137.49 Z M 138.52 137.52 L 139.54 137.54 C 140.43 137.56 141.17 136.85 141.18 135.96 C 141.20 135.06 140.49 134.33 139.60 134.31 L 138.58 134.29 C 137.69 134.28 136.95 134.98 136.94 135.87 C 136.92 136.77 137.63 137.50 138.52 137.52 Z M 139.57 137.53 L 140.53 137.53 C 141.41 137.53 142.13 136.82 142.13 135.93 C 142.13 135.05 141.42 134.33 140.53 134.32 L 139.57 134.32 C 138.69 134.32 137.97 135.04 137.97 135.92 C 137.97 136.81 138.68 137.53 139.57 137.53 Z M 140.56 137.51 L 141.54 137.49 C 142.41 137.48 143.11 136.75 143.09 135.88 C 143.08 135.00 142.35 134.31 141.48 134.32 L 140.50 134.34 C 139.62 134.36 138.93 135.08 138.94 135.96 C 138.96 136.83 139.68 137.53 140.56 137.51 Z M 141.58 137.47 L 142.58 137.43 C 143.44 137.39 144.11 136.65 144.07 135.79 C 144.03 134.92 143.30 134.25 142.43 134.29 L 141.43 134.34 C 140.57 134.38 139.90 135.12 139.94 135.98 C 139.98 136.85 140.72 137.52 141.58 137.47 Z M 142.63 137.41 L 143.64 137.32 C 144.50 137.26 145.13 136.51 145.07 135.66 C 145.00 134.80 144.25 134.17 143.40 134.23 L 142.38 134.32 C 141.53 134.38 140.89 135.13 140.96 135.99 C 141.03 136.84 141.78 137.48 142.63 137.41 Z M 143.70 137.30 L 144.73 137.18 C 145.57 137.08 146.17 136.32 146.07 135.47 C 145.97 134.63 145.21 134.03 144.37 134.13 L 143.34 134.26 C 142.50 134.36 141.90 135.12 142.00 135.96 C 142.10 136.80 142.86 137.40 143.70 137.30 Z M 144.79 137.15 L 145.83 136.99 C 146.66 136.85 147.22 136.07 147.08 135.24 C 146.95 134.42 146.17 133.86 145.34 133.99 L 144.31 134.16 C 143.48 134.29 142.92 135.07 143.05 135.90 C 143.19 136.73 143.97 137.29 144.79 137.15 Z M 145.88 136.97 L 146.91 136.76 C 147.73 136.60 148.26 135.80 148.10 134.98 C 147.93 134.17 147.14 133.64 146.32 133.80 L 145.29 134.01 C 144.47 134.17 143.94 134.97 144.11 135.79 C 144.27 136.60 145.07 137.13 145.88 136.97 Z M 146.95 136.74 L 147.97 136.51 C 148.77 136.32 149.28 135.52 149.09 134.71 C 148.90 133.90 148.10 133.40 147.29 133.59 L 146.28 133.82 C 145.47 134.01 144.97 134.81 145.16 135.62 C 145.34 136.42 146.15 136.93 146.95 136.74 Z M 148.00 136.49 L 148.97 136.25 C 149.77 136.04 150.25 135.23 150.05 134.44 C 149.85 133.64 149.04 133.15 148.24 133.36 L 147.26 133.60 C 146.47 133.81 145.98 134.62 146.19 135.41 C 146.39 136.21 147.20 136.69 148.00 136.49 Z M 148.99 136.23 L 149.91 135.98 C 150.70 135.77 151.17 134.96 150.95 134.17 C 150.74 133.38 149.93 132.91 149.14 133.12 L 148.22 133.37 C 147.43 133.58 146.96 134.40 147.17 135.19 C 147.39 135.98 148.20 136.44 148.99 136.23 Z M 149.92 135.97 L 150.86 135.71 C 151.64 135.49 152.10 134.68 151.88 133.90 C 151.66 133.11 150.85 132.66 150.07 132.87 L 149.13 133.14 C 148.35 133.35 147.89 134.17 148.11 134.95 C 148.32 135.73 149.13 136.19 149.92 135.97 Z M 150.86 135.70 L 151.93 135.39 C 152.71 135.17 153.16 134.36 152.94 133.59 C 152.72 132.81 151.91 132.36 151.14 132.58 L 150.06 132.89 C 149.29 133.11 148.84 133.91 149.06 134.69 C 149.28 135.47 150.09 135.92 150.86 135.70 Z M 151.94 135.38 L 152.89 135.10 C 153.66 134.88 154.10 134.07 153.87 133.30 C 153.65 132.53 152.84 132.09 152.07 132.32 L 151.13 132.59 C 150.36 132.82 149.92 133.63 150.14 134.40 C 150.37 135.17 151.17 135.61 151.94 135.38 Z M 152.90 135.09 L 153.76 134.83 C 154.53 134.59 154.95 133.79 154.72 133.03 C 154.49 132.27 153.68 131.84 152.92 132.07 L 152.06 132.33 C 151.30 132.56 150.87 133.37 151.10 134.13 C 151.33 134.89 152.14 135.32 152.90 135.09 Z M 153.78 134.81 L 154.68 134.53 C 155.43 134.29 155.85 133.48 155.60 132.72 C 155.36 131.97 154.56 131.55 153.80 131.80 L 152.91 132.08 C 152.15 132.32 151.74 133.13 151.98 133.88 C 152.22 134.64 153.03 135.06 153.78 134.81 Z M 154.69 134.52 L 155.64 134.20 C 156.39 133.95 156.79 133.14 156.54 132.39 C 156.29 131.64 155.48 131.24 154.73 131.49 L 153.79 131.80 C 153.04 132.05 152.63 132.86 152.88 133.61 C 153.13 134.36 153.94 134.77 154.69 134.52 Z M 155.65 134.20 L 156.59 133.88 C 157.34 133.62 157.74 132.81 157.48 132.06 C 157.23 131.32 156.42 130.92 155.67 131.17 L 154.72 131.49 C 153.98 131.75 153.58 132.56 153.83 133.31 C 154.09 134.05 154.90 134.45 155.65 134.20 Z M 156.59 133.87 L 157.52 133.56 C 158.26 133.30 158.66 132.49 158.41 131.75 C 158.15 131.00 157.34 130.60 156.60 130.86 L 155.67 131.17 C 154.92 131.43 154.53 132.24 154.78 132.98 C 155.03 133.73 155.84 134.13 156.59 133.87 Z M 157.51 133.56 L 158.39 133.27 C 159.14 133.02 159.54 132.21 159.29 131.46 C 159.04 130.71 158.23 130.31 157.49 130.56 L 156.61 130.86 C 155.86 131.11 155.46 131.91 155.71 132.66 C 155.96 133.41 156.76 133.81 157.51 133.56 Z M 158.37 133.27 L 159.31 132.97 C 160.06 132.73 160.47 131.93 160.23 131.18 C 159.99 130.43 159.19 130.02 158.44 130.26 L 157.51 130.56 C 156.76 130.79 156.34 131.60 156.58 132.35 C 156.82 133.10 157.62 133.51 158.37 133.27 Z M 159.28 132.98 L 160.30 132.68 C 161.06 132.45 161.49 131.66 161.26 130.90 C 161.04 130.15 160.24 129.72 159.49 129.94 L 158.47 130.25 C 157.71 130.47 157.28 131.27 157.51 132.02 C 157.73 132.78 158.53 133.21 159.28 132.98 Z M 160.28 132.69 L 161.23 132.43 C 161.99 132.21 162.43 131.43 162.22 130.67 C 162.01 129.91 161.22 129.46 160.46 129.67 L 159.51 129.93 C 158.75 130.14 158.31 130.93 158.52 131.69 C 158.73 132.45 159.52 132.90 160.28 132.69 Z M 161.21 132.44 L 162.13 132.20 C 162.90 132.00 163.36 131.21 163.16 130.44 C 162.96 129.67 162.17 129.21 161.40 129.41 L 160.48 129.66 C 159.71 129.86 159.25 130.64 159.45 131.41 C 159.65 132.18 160.44 132.64 161.21 132.44 Z M 162.12 132.21 L 163.10 131.96 C 163.88 131.77 164.35 130.98 164.15 130.20 C 163.95 129.43 163.17 128.96 162.39 129.15 L 161.41 129.40 C 160.64 129.60 160.17 130.38 160.36 131.16 C 160.56 131.94 161.35 132.41 162.12 132.21 Z M 163.09 131.98 L 164.10 131.73 C 164.89 131.53 165.36 130.74 165.17 129.96 C 164.98 129.18 164.19 128.70 163.40 128.89 L 162.39 129.14 C 161.61 129.33 161.13 130.13 161.33 130.91 C 161.52 131.69 162.31 132.17 163.09 131.98 Z M 164.10 131.74 L 165.13 131.49 C 165.92 131.30 166.40 130.50 166.21 129.71 C 166.02 128.92 165.22 128.44 164.43 128.63 L 163.40 128.88 C 162.61 129.07 162.13 129.87 162.32 130.66 C 162.52 131.45 163.31 131.93 164.10 131.74 Z M 165.13 131.50 L 165.23 131.47 C 166.02 131.28 166.51 130.48 166.31 129.69 C 166.12 128.89 165.32 128.41 164.53 128.60 L 164.43 128.63 C 163.64 128.82 163.15 129.62 163.34 130.41 C 163.54 131.20 164.34 131.69 165.13 131.50 Z"
      fill="black"
      fill-rule="nonzero" /><path d="M 142.39 142.89 L 141.04 142.89 C 140.18 142.89 139.48 143.59 139.48 144.46 C 139.48 145.32 140.18 146.02 141.04 146.02 L 142.39 146.02 C 143.25 146.02 143.95 145.32 143.95 144.46 C 143.95 143.59 143.25 142.89 142.39 142.89 Z M 141.04 142.89 L 139.80 142.89 C 138.94 142.89 138.24 143.59 138.24 144.46 C 138.24 145.32 138.94 146.02 139.80 146.02 L 141.04 146.02 C 141.91 146.02 142.61 145.32 142.61 144.46 C 142.61 143.59 141.91 142.89 141.04 142.89 Z M 139.80 142.89 L 138.77 142.89 C 137.90 142.89 137.20 143.59 137.20 144.46 C 137.20 145.32 137.90 146.02 138.77 146.02 L 139.80 146.02 C 140.67 146.02 141.37 145.32 141.37 144.46 C 141.37 143.59 140.67 142.89 139.80 142.89 Z M 138.77 142.88 L 138.05 142.88 C 137.18 142.88 136.48 143.59 136.48 144.46 C 136.48 145.32 137.18 146.03 138.05 146.03 L 138.77 146.03 C 139.64 146.03 140.34 145.32 140.34 144.46 C 140.34 143.59 139.64 142.88 138.77 142.88 Z M 138.05 142.88 L 137.75 142.88 C 136.88 142.88 136.17 143.59 136.17 144.46 C 136.17 145.33 136.88 146.03 137.75 146.03 L 138.05 146.03 C 138.92 146.03 139.63 145.33 139.63 144.46 C 139.63 143.59 138.92 142.88 138.05 142.88 Z M 137.75 146.03 L 138.44 146.03 C 139.31 146.03 140.02 145.32 140.02 144.46 C 140.02 143.59 139.31 142.88 138.44 142.88 L 137.75 142.88 C 136.88 142.88 136.17 143.59 136.17 144.46 C 136.17 145.32 136.88 146.03 137.75 146.03 Z M 138.44 146.03 L 139.82 146.03 C 140.69 146.03 141.39 145.32 141.39 144.46 C 141.39 143.59 140.69 142.89 139.82 142.89 L 138.44 142.89 C 137.58 142.89 136.88 143.59 136.88 144.46 C 136.88 145.32 137.58 146.03 138.44 146.03 Z M 139.83 146.02 L 140.82 146.02 C 141.68 146.02 142.38 145.32 142.38 144.45 C 142.38 143.59 141.68 142.89 140.82 142.89 L 139.82 142.90 C 138.96 142.90 138.26 143.60 138.26 144.46 C 138.26 145.32 138.96 146.02 139.83 146.02 Z M 140.83 146.00 L 141.82 146.00 C 142.67 145.99 143.36 145.29 143.35 144.43 C 143.35 143.58 142.65 142.89 141.79 142.90 L 140.81 142.91 C 139.95 142.91 139.26 143.61 139.27 144.47 C 139.28 145.32 139.98 146.01 140.83 146.00 Z M 141.84 145.98 L 142.85 145.96 C 143.69 145.94 144.37 145.24 144.35 144.39 C 144.33 143.54 143.63 142.87 142.78 142.89 L 141.77 142.91 C 140.92 142.93 140.25 143.63 140.27 144.48 C 140.29 145.33 140.99 146.00 141.84 145.98 Z M 142.88 145.95 L 143.89 145.90 C 144.73 145.87 145.39 145.16 145.35 144.32 C 145.32 143.48 144.61 142.82 143.77 142.86 L 142.75 142.90 C 141.91 142.94 141.26 143.65 141.29 144.49 C 141.33 145.33 142.04 145.98 142.88 145.95 Z M 143.93 145.89 L 144.89 145.83 C 145.72 145.77 146.35 145.05 146.30 144.22 C 146.25 143.39 145.53 142.76 144.69 142.81 L 143.73 142.87 C 142.90 142.93 142.27 143.65 142.32 144.48 C 142.38 145.31 143.09 145.94 143.93 145.89 Z M 144.92 145.81 L 145.91 145.73 C 146.73 145.66 147.34 144.93 147.27 144.11 C 147.20 143.28 146.48 142.67 145.65 142.74 L 144.66 142.82 C 143.84 142.90 143.23 143.62 143.30 144.45 C 143.37 145.27 144.09 145.88 144.92 145.81 Z M 145.94 145.72 L 146.95 145.61 C 147.76 145.52 148.36 144.79 148.27 143.97 C 148.18 143.15 147.45 142.56 146.63 142.65 L 145.62 142.75 C 144.80 142.84 144.21 143.57 144.30 144.39 C 144.39 145.21 145.12 145.80 145.94 145.72 Z M 146.97 145.59 L 148.00 145.46 C 148.81 145.36 149.39 144.62 149.28 143.81 C 149.18 143.00 148.44 142.43 147.63 142.53 L 146.60 142.66 C 145.80 142.76 145.22 143.50 145.32 144.31 C 145.43 145.12 146.16 145.70 146.97 145.59 Z M 148.03 145.45 L 149.01 145.31 C 149.81 145.19 150.37 144.45 150.25 143.65 C 150.13 142.84 149.39 142.29 148.59 142.40 L 147.61 142.55 C 146.81 142.66 146.25 143.41 146.36 144.21 C 146.48 145.01 147.23 145.57 148.03 145.45 Z M 149.03 145.30 L 150.01 145.14 C 150.81 145.02 151.35 144.27 151.23 143.47 C 151.10 142.68 150.35 142.13 149.56 142.26 L 148.57 142.42 C 147.77 142.54 147.23 143.29 147.36 144.09 C 147.48 144.88 148.23 145.42 149.03 145.30 Z M 150.03 145.13 L 151.02 144.96 C 151.81 144.83 152.34 144.08 152.21 143.29 C 152.07 142.50 151.32 141.97 150.53 142.10 L 149.54 142.27 C 148.75 142.40 148.22 143.15 148.35 143.94 C 148.49 144.73 149.24 145.26 150.03 145.13 Z M 151.02 144.95 L 152.02 144.78 C 152.80 144.64 153.32 143.89 153.19 143.11 C 153.05 142.32 152.30 141.80 151.52 141.94 L 150.53 142.11 C 149.74 142.25 149.22 143.00 149.35 143.78 C 149.49 144.57 150.24 145.09 151.02 144.95 Z M 152.02 144.77 L 153.03 144.59 C 153.81 144.45 154.33 143.71 154.19 142.93 C 154.05 142.14 153.30 141.63 152.52 141.77 L 151.51 141.95 C 150.73 142.09 150.21 142.83 150.35 143.61 C 150.49 144.39 151.24 144.91 152.02 144.77 Z M 153.03 144.59 L 154.05 144.40 C 154.83 144.27 155.35 143.52 155.21 142.74 C 155.07 141.96 154.33 141.45 153.55 141.59 L 152.52 141.77 C 151.75 141.91 151.23 142.65 151.37 143.43 C 151.51 144.21 152.25 144.73 153.03 144.59 Z M 154.05 144.40 L 155.05 144.23 C 155.82 144.09 156.34 143.35 156.21 142.57 C 156.07 141.79 155.33 141.27 154.55 141.41 L 153.55 141.59 C 152.77 141.72 152.25 142.46 152.39 143.24 C 152.53 144.02 153.27 144.54 154.05 144.40 Z M 155.04 144.23 L 156.00 144.06 C 156.78 143.93 157.30 143.20 157.17 142.42 C 157.04 141.64 156.30 141.12 155.52 141.25 L 154.56 141.41 C 153.78 141.54 153.26 142.28 153.39 143.06 C 153.52 143.84 154.26 144.36 155.04 144.23 Z M 155.99 144.06 L 156.94 143.91 C 157.72 143.79 158.25 143.06 158.12 142.28 C 158.00 141.50 157.27 140.97 156.49 141.10 L 155.54 141.25 C 154.76 141.37 154.23 142.10 154.35 142.88 C 154.48 143.66 155.21 144.19 155.99 144.06 Z M 156.92 143.92 L 157.96 143.77 C 158.73 143.65 159.28 142.93 159.16 142.15 C 159.05 141.37 158.33 140.83 157.55 140.94 L 156.51 141.09 C 155.73 141.21 155.19 141.93 155.30 142.71 C 155.41 143.49 156.14 144.03 156.92 143.92 Z M 157.94 143.77 L 158.92 143.64 C 159.70 143.54 160.25 142.82 160.15 142.04 C 160.05 141.26 159.33 140.71 158.55 140.81 L 157.57 140.94 C 156.79 141.04 156.24 141.76 156.34 142.54 C 156.44 143.32 157.16 143.87 157.94 143.77 Z M 158.91 143.64 L 159.86 143.53 C 160.64 143.43 161.19 142.72 161.10 141.94 C 161.00 141.16 160.29 140.60 159.51 140.70 L 158.56 140.81 C 157.78 140.91 157.22 141.62 157.32 142.40 C 157.42 143.18 158.13 143.74 158.91 143.64 Z M 159.85 143.53 L 160.15 143.49 C 160.93 143.40 161.49 142.69 161.40 141.91 C 161.30 141.12 160.59 140.57 159.81 140.66 L 159.51 140.70 C 158.73 140.79 158.18 141.50 158.27 142.28 C 158.36 143.06 159.07 143.62 159.85 143.53 Z"
      fill="black"
      fill-rule="nonzero" /><path d="M 137.80 158.67 L 136.50 158.97 C 135.65 159.16 135.12 160.00 135.32 160.85 C 135.51 161.69 136.35 162.22 137.20 162.03 L 138.51 161.73 C 139.35 161.54 139.88 160.69 139.68 159.85 C 139.49 159.00 138.65 158.47 137.80 158.67 Z M 136.45 158.98 L 135.30 159.28 C 134.46 159.50 133.95 160.35 134.17 161.19 C 134.39 162.03 135.25 162.54 136.09 162.32 L 137.24 162.02 C 138.08 161.80 138.58 160.94 138.37 160.10 C 138.15 159.27 137.29 158.76 136.45 158.98 Z M 135.17 159.32 L 134.32 159.62 C 133.50 159.91 133.07 160.80 133.36 161.62 C 133.65 162.44 134.54 162.87 135.36 162.58 L 136.21 162.28 C 137.03 161.99 137.46 161.09 137.17 160.28 C 136.88 159.46 135.99 159.03 135.17 159.32 Z M 133.89 159.85 L 133.49 160.15 C 132.80 160.68 132.67 161.67 133.20 162.35 C 133.73 163.04 134.71 163.17 135.40 162.65 L 135.79 162.35 C 136.48 161.82 136.61 160.83 136.09 160.14 C 135.56 159.46 134.58 159.32 133.89 159.85 Z M 133.21 162.37 L 133.51 162.75 C 134.05 163.43 135.03 163.54 135.71 163.01 C 136.39 162.47 136.51 161.49 135.97 160.81 L 135.68 160.43 C 135.14 159.75 134.15 159.63 133.47 160.17 C 132.80 160.71 132.68 161.69 133.21 162.37 Z M 134.23 163.25 L 135.19 163.59 C 136.01 163.87 136.90 163.44 137.18 162.63 C 137.47 161.81 137.04 160.92 136.22 160.64 L 135.26 160.30 C 134.44 160.02 133.55 160.45 133.27 161.26 C 132.98 162.08 133.41 162.97 134.23 163.25 Z M 135.41 163.64 L 136.73 163.90 C 137.57 164.06 138.39 163.51 138.55 162.66 C 138.72 161.82 138.17 161.00 137.32 160.84 L 136.00 160.58 C 135.16 160.42 134.34 160.97 134.18 161.82 C 134.02 162.66 134.57 163.48 135.41 163.64 Z M 136.85 163.91 L 137.85 164.02 C 138.70 164.12 139.47 163.51 139.56 162.66 C 139.66 161.81 139.05 161.04 138.20 160.94 L 137.20 160.83 C 136.35 160.73 135.58 161.34 135.49 162.19 C 135.39 163.04 136.00 163.81 136.85 163.91 Z M 137.93 164.02 L 138.91 164.08 C 139.76 164.13 140.49 163.48 140.54 162.64 C 140.59 161.79 139.95 161.06 139.10 161.01 L 138.12 160.95 C 137.27 160.90 136.54 161.54 136.49 162.39 C 136.44 163.24 137.08 163.96 137.93 164.02 Z M 138.97 164.07 L 139.97 164.09 C 140.81 164.11 141.51 163.44 141.53 162.60 C 141.55 161.76 140.88 161.06 140.04 161.04 L 139.04 161.02 C 138.20 161.00 137.50 161.67 137.48 162.51 C 137.46 163.35 138.13 164.05 138.97 164.07 Z M 140.01 164.08 L 141.03 164.08 C 141.86 164.08 142.54 163.40 142.54 162.56 C 142.53 161.73 141.86 161.05 141.02 161.05 L 140.00 161.05 C 139.17 161.06 138.49 161.73 138.49 162.57 C 138.49 163.40 139.17 164.08 140.01 164.08 Z M 141.04 164.06 L 142.05 164.05 C 142.88 164.04 143.54 163.36 143.53 162.53 C 143.52 161.70 142.84 161.04 142.01 161.05 L 141.00 161.06 C 140.17 161.08 139.51 161.76 139.52 162.59 C 139.54 163.41 140.22 164.08 141.04 164.06 Z M 142.06 164.04 L 143.05 164.02 C 143.87 164.00 144.52 163.31 144.50 162.49 C 144.48 161.67 143.80 161.02 142.98 161.04 L 141.99 161.06 C 141.17 161.08 140.52 161.76 140.54 162.59 C 140.56 163.41 141.24 164.06 142.06 164.04 Z M 143.08 164.01 L 144.07 163.96 C 144.89 163.93 145.53 163.24 145.49 162.42 C 145.46 161.60 144.77 160.97 143.95 161.00 L 142.95 161.05 C 142.13 161.08 141.50 161.77 141.53 162.59 C 141.57 163.41 142.26 164.04 143.08 164.01 Z M 144.11 163.95 L 145.12 163.88 C 145.93 163.83 146.54 163.13 146.49 162.31 C 146.43 161.50 145.73 160.89 144.92 160.95 L 143.91 161.02 C 143.10 161.07 142.49 161.77 142.54 162.58 C 142.60 163.40 143.30 164.01 144.11 163.95 Z M 145.17 163.87 L 146.18 163.77 C 146.98 163.68 147.57 162.97 147.48 162.16 C 147.40 161.36 146.68 160.77 145.88 160.86 L 144.87 160.96 C 144.06 161.04 143.48 161.76 143.56 162.57 C 143.65 163.37 144.36 163.95 145.17 163.87 Z M 146.24 163.75 L 147.19 163.61 C 147.99 163.50 148.54 162.76 148.42 161.96 C 148.31 161.17 147.57 160.62 146.77 160.73 L 145.82 160.87 C 145.02 160.99 144.47 161.72 144.59 162.52 C 144.70 163.32 145.44 163.87 146.24 163.75 Z M 147.25 163.60 L 148.18 163.42 C 148.97 163.27 149.49 162.51 149.34 161.73 C 149.19 160.94 148.43 160.42 147.65 160.57 L 146.71 160.75 C 145.93 160.90 145.41 161.66 145.56 162.44 C 145.71 163.23 146.46 163.75 147.25 163.60 Z M 148.24 163.40 L 149.19 163.18 C 149.97 163.01 150.45 162.23 150.27 161.45 C 150.09 160.68 149.32 160.19 148.54 160.37 L 147.59 160.59 C 146.81 160.77 146.33 161.54 146.51 162.32 C 146.69 163.10 147.46 163.58 148.24 163.40 Z M 149.24 163.17 L 150.21 162.90 C 150.98 162.70 151.43 161.91 151.23 161.14 C 151.02 160.37 150.23 159.92 149.46 160.13 L 148.49 160.39 C 147.72 160.60 147.27 161.39 147.48 162.15 C 147.68 162.92 148.47 163.37 149.24 163.17 Z M 150.26 162.88 L 151.27 162.57 C 152.03 162.34 152.45 161.54 152.22 160.79 C 151.99 160.03 151.19 159.60 150.43 159.84 L 149.42 160.15 C 148.66 160.38 148.24 161.18 148.47 161.93 C 148.70 162.69 149.50 163.12 150.26 162.88 Z M 151.30 162.56 L 152.26 162.24 C 153.01 161.99 153.41 161.18 153.16 160.43 C 152.91 159.68 152.10 159.28 151.35 159.53 L 150.40 159.85 C 149.65 160.10 149.25 160.91 149.50 161.66 C 149.75 162.41 150.56 162.81 151.30 162.56 Z M 152.29 162.23 L 153.18 161.91 C 153.92 161.64 154.30 160.83 154.04 160.08 C 153.77 159.34 152.96 158.96 152.21 159.22 L 151.32 159.54 C 150.58 159.81 150.20 160.62 150.46 161.37 C 150.73 162.11 151.54 162.49 152.29 162.23 Z M 153.20 161.90 L 154.11 161.56 C 154.85 161.28 155.22 160.46 154.95 159.72 C 154.67 158.98 153.85 158.61 153.11 158.89 L 152.19 159.23 C 151.46 159.51 151.08 160.33 151.36 161.07 C 151.64 161.80 152.46 162.18 153.20 161.90 Z M 154.13 161.55 L 155.07 161.19 C 155.80 160.90 156.17 160.08 155.88 159.34 C 155.60 158.61 154.77 158.24 154.04 158.53 L 153.10 158.89 C 152.36 159.18 152.00 160.00 152.28 160.74 C 152.57 161.47 153.39 161.84 154.13 161.55 Z M 155.08 161.18 L 156.03 160.81 C 156.76 160.52 157.12 159.69 156.83 158.96 C 156.54 158.22 155.71 157.86 154.98 158.15 L 154.03 158.53 C 153.29 158.82 152.94 159.65 153.23 160.38 C 153.52 161.11 154.34 161.47 155.08 161.18 Z M 156.04 160.80 L 157.00 160.42 C 157.73 160.12 158.09 159.29 157.80 158.56 C 157.50 157.83 156.67 157.48 155.94 157.77 L 154.98 158.16 C 154.25 158.45 153.89 159.28 154.18 160.01 C 154.48 160.74 155.31 161.10 156.04 160.80 Z M 157.01 160.41 L 157.87 160.07 C 158.60 159.77 158.95 158.94 158.66 158.21 C 158.36 157.48 157.53 157.13 156.80 157.42 L 155.94 157.77 C 155.21 158.07 154.86 158.90 155.15 159.63 C 155.45 160.36 156.28 160.71 157.01 160.41 Z"
      fill="black"
      fill-rule="nonzero" /><path d="M 150.43 153.51 L 149.44 153.70 C 148.59 153.86 148.04 154.68 148.20 155.52 C 148.36 156.37 149.18 156.92 150.03 156.76 L 151.02 156.57 C 151.86 156.41 152.42 155.59 152.25 154.75 C 152.09 153.90 151.27 153.34 150.43 153.51 Z M 149.38 153.71 L 148.40 153.93 C 147.56 154.13 147.04 154.97 147.24 155.81 C 147.43 156.65 148.27 157.17 149.11 156.98 L 150.09 156.75 C 150.93 156.56 151.45 155.72 151.25 154.88 C 151.06 154.04 150.22 153.51 149.38 153.71 Z M 148.29 153.97 L 147.34 154.27 C 146.52 154.53 146.06 155.41 146.32 156.23 C 146.58 157.05 147.46 157.51 148.28 157.25 L 149.23 156.95 C 150.05 156.69 150.51 155.81 150.25 154.98 C 149.99 154.16 149.11 153.70 148.29 153.97 Z M 147.16 154.33 L 146.26 154.74 C 145.47 155.10 145.12 156.03 145.48 156.82 C 145.83 157.60 146.76 157.95 147.55 157.60 L 148.46 157.18 C 149.25 156.83 149.60 155.90 149.24 155.11 C 148.88 154.32 147.95 153.97 147.16 154.33 Z M 146.07 154.83 L 145.21 155.36 C 144.47 155.82 144.25 156.80 144.71 157.54 C 145.17 158.27 146.14 158.50 146.88 158.04 L 147.74 157.51 C 148.48 157.05 148.70 156.07 148.24 155.33 C 147.78 154.60 146.81 154.37 146.07 154.83 Z M 145.06 155.46 L 144.27 156.08 C 143.58 156.63 143.47 157.62 144.01 158.31 C 144.55 159.00 145.55 159.12 146.24 158.57 L 147.03 157.95 C 147.72 157.40 147.84 156.40 147.29 155.72 C 146.75 155.03 145.75 154.91 145.06 155.46 Z M 144.14 156.17 L 143.44 156.86 C 142.80 157.47 142.78 158.48 143.39 159.12 C 144.01 159.76 145.02 159.78 145.66 159.16 L 146.37 158.48 C 147.00 157.87 147.02 156.85 146.41 156.22 C 145.80 155.58 144.78 155.56 144.14 156.17 Z M 143.33 156.95 L 142.69 157.69 C 142.10 158.37 142.17 159.39 142.85 159.97 C 143.52 160.55 144.54 160.48 145.12 159.81 L 145.76 159.07 C 146.35 158.39 146.28 157.38 145.60 156.79 C 144.93 156.21 143.91 156.28 143.33 156.95 Z M 142.60 157.79 L 142.02 158.58 C 141.49 159.30 141.65 160.32 142.37 160.84 C 143.09 161.37 144.10 161.22 144.63 160.50 L 145.21 159.71 C 145.74 158.99 145.58 157.97 144.86 157.45 C 144.14 156.92 143.13 157.07 142.60 157.79 Z M 141.96 158.66 L 141.41 159.51 C 140.93 160.26 141.15 161.27 141.91 161.75 C 142.66 162.24 143.67 162.02 144.16 161.26 L 144.70 160.42 C 145.18 159.66 144.96 158.65 144.20 158.17 C 143.45 157.68 142.44 157.90 141.96 158.66 Z M 141.38 159.56 L 140.88 160.40 C 140.42 161.18 140.68 162.18 141.46 162.64 C 142.24 163.09 143.24 162.83 143.70 162.06 L 144.19 161.21 C 144.65 160.43 144.39 159.43 143.61 158.98 C 142.84 158.52 141.83 158.78 141.38 159.56 Z M 140.86 160.43 L 140.41 161.23 C 139.97 162.02 140.25 163.02 141.04 163.46 C 141.83 163.90 142.83 163.62 143.27 162.83 L 143.72 162.03 C 144.16 161.24 143.88 160.24 143.09 159.80 C 142.30 159.36 141.30 159.64 140.86 160.43 Z M 140.39 161.26 L 139.93 162.13 C 139.50 162.93 139.80 163.92 140.60 164.35 C 141.40 164.78 142.39 164.47 142.82 163.68 L 143.28 162.81 C 143.71 162.01 143.41 161.01 142.61 160.59 C 141.81 160.16 140.82 160.46 140.39 161.26 Z M 139.91 162.15 L 139.43 163.09 C 139.02 163.89 139.34 164.88 140.14 165.30 C 140.95 165.71 141.94 165.39 142.36 164.59 L 142.84 163.65 C 143.25 162.84 142.93 161.85 142.12 161.44 C 141.32 161.02 140.33 161.34 139.91 162.15 Z M 139.42 163.11 L 138.94 164.08 C 138.54 164.89 138.88 165.88 139.69 166.28 C 140.51 166.68 141.49 166.35 141.90 165.53 L 142.37 164.56 C 142.77 163.75 142.44 162.76 141.62 162.36 C 140.80 161.96 139.82 162.29 139.42 163.11 Z M 138.93 164.10 L 138.53 164.94 C 138.14 165.77 138.49 166.75 139.31 167.14 C 140.13 167.53 141.11 167.18 141.50 166.36 L 141.91 165.51 C 142.30 164.69 141.95 163.71 141.13 163.32 C 140.30 162.92 139.32 163.27 138.93 164.10 Z M 138.52 164.96 L 138.11 165.84 C 137.73 166.67 138.09 167.65 138.91 168.03 C 139.74 168.42 140.72 168.06 141.10 167.23 L 141.51 166.34 C 141.89 165.52 141.54 164.54 140.71 164.16 C 139.88 163.77 138.90 164.13 138.52 164.96 Z M 138.10 165.85 L 137.69 166.77 C 137.31 167.60 137.67 168.58 138.50 168.95 C 139.33 169.33 140.31 168.97 140.69 168.14 L 141.11 167.22 C 141.48 166.39 141.12 165.41 140.29 165.04 C 139.46 164.66 138.48 165.02 138.10 165.85 Z M 137.68 166.78 L 137.26 167.72 C 136.88 168.55 137.25 169.52 138.08 169.90 C 138.91 170.27 139.89 169.90 140.27 169.07 L 140.69 168.13 C 141.06 167.30 140.70 166.33 139.87 165.95 C 139.03 165.58 138.06 165.95 137.68 166.78 Z M 137.26 167.72 L 136.83 168.68 C 136.45 169.51 136.82 170.49 137.66 170.86 C 138.49 171.23 139.46 170.86 139.84 170.03 L 140.27 169.07 C 140.64 168.24 140.27 167.26 139.44 166.89 C 138.61 166.52 137.63 166.89 137.26 167.72 Z M 136.83 168.68 L 136.39 169.65 C 136.02 170.48 136.39 171.46 137.22 171.83 C 138.05 172.20 139.03 171.83 139.40 171.00 L 139.84 170.03 C 140.21 169.20 139.84 168.22 139.01 167.85 C 138.18 167.48 137.20 167.85 136.83 168.68 Z M 136.39 169.65 L 135.96 170.61 C 135.58 171.45 135.95 172.42 136.79 172.80 C 137.62 173.17 138.59 172.80 138.97 171.97 L 139.40 171.00 C 139.77 170.17 139.40 169.19 138.57 168.82 C 137.74 168.45 136.76 168.82 136.39 169.65 Z M 135.96 170.61 L 135.53 171.56 C 135.16 172.39 135.53 173.36 136.36 173.74 C 137.19 174.11 138.17 173.74 138.54 172.91 L 138.97 171.97 C 139.34 171.14 138.97 170.16 138.14 169.79 C 137.31 169.41 136.33 169.78 135.96 170.61 Z M 135.53 171.56 L 135.13 172.46 C 134.75 173.29 135.12 174.27 135.95 174.64 C 136.78 175.01 137.76 174.64 138.13 173.81 L 138.54 172.91 C 138.91 172.08 138.54 171.10 137.71 170.73 C 136.88 170.36 135.91 170.73 135.53 171.56 Z M 135.13 172.46 L 134.75 173.30 C 134.37 174.13 134.74 175.11 135.57 175.48 C 136.40 175.86 137.38 175.49 137.75 174.66 L 138.13 173.81 C 138.51 172.98 138.14 172.01 137.31 171.63 C 136.48 171.26 135.50 171.63 135.13 172.46 Z M 134.75 173.30 L 134.33 174.24 C 133.95 175.07 134.32 176.04 135.15 176.42 C 135.98 176.79 136.95 176.42 137.33 175.59 L 137.75 174.66 C 138.13 173.83 137.76 172.85 136.93 172.48 C 136.10 172.10 135.12 172.47 134.75 173.30 Z M 134.33 174.24 L 133.90 175.20 C 133.52 176.02 133.89 177.00 134.71 177.37 C 135.54 177.75 136.51 177.38 136.89 176.56 L 137.32 175.60 C 137.70 174.77 137.33 173.80 136.51 173.42 C 135.68 173.05 134.71 173.41 134.33 174.24 Z M 133.90 175.19 L 133.50 176.06 C 133.13 176.88 133.49 177.85 134.31 178.23 C 135.13 178.61 136.10 178.25 136.48 177.43 L 136.88 176.56 C 137.25 175.74 136.90 174.77 136.08 174.39 C 135.25 174.01 134.28 174.37 133.90 175.19 Z M 133.52 176.05 L 133.13 176.88 C 132.74 177.69 133.09 178.66 133.91 179.05 C 134.72 179.43 135.69 179.08 136.08 178.27 L 136.47 177.44 C 136.85 176.62 136.50 175.65 135.68 175.27 C 134.87 174.89 133.90 175.24 133.52 176.05 Z M 133.14 176.87 L 132.73 177.71 C 132.34 178.52 132.68 179.49 133.49 179.88 C 134.30 180.27 135.27 179.93 135.66 179.12 L 136.07 178.28 C 136.46 177.47 136.12 176.50 135.31 176.11 C 134.50 175.72 133.53 176.06 133.14 176.87 Z M 132.75 177.70 L 132.32 178.57 C 131.92 179.37 132.25 180.34 133.05 180.74 C 133.86 181.13 134.82 180.80 135.22 180.00 L 135.65 179.13 C 136.04 178.33 135.71 177.36 134.91 176.96 C 134.11 176.57 133.14 176.90 132.75 177.70 Z M 132.33 178.57 L 131.87 179.48 C 131.48 180.28 131.80 181.25 132.60 181.64 C 133.39 182.04 134.36 181.71 134.75 180.92 L 135.21 180.00 C 135.60 179.21 135.28 178.24 134.48 177.85 C 133.69 177.45 132.72 177.77 132.33 178.57 Z M 131.88 179.48 L 131.41 180.42 C 131.02 181.21 131.34 182.18 132.13 182.57 C 132.92 182.97 133.88 182.65 134.28 181.85 L 134.75 180.92 C 135.14 180.12 134.82 179.16 134.03 178.77 C 133.24 178.37 132.28 178.69 131.88 179.48 Z M 131.42 180.42 L 130.98 181.30 C 130.59 182.08 130.90 183.04 131.69 183.44 C 132.48 183.83 133.44 183.51 133.83 182.73 L 134.27 181.85 C 134.66 181.06 134.35 180.11 133.56 179.71 C 132.77 179.32 131.81 179.64 131.42 180.42 Z M 130.99 181.30 L 130.54 182.19 C 130.14 182.98 130.45 183.93 131.24 184.33 C 132.02 184.72 132.97 184.41 133.37 183.63 L 133.82 182.73 C 134.22 181.95 133.90 180.99 133.12 180.60 C 132.34 180.20 131.39 180.51 130.99 181.30 Z M 130.55 182.19 L 130.08 183.09 C 129.68 183.87 129.99 184.82 130.76 185.22 C 131.54 185.62 132.49 185.31 132.89 184.54 L 133.36 183.63 C 133.76 182.86 133.45 181.90 132.67 181.51 C 131.90 181.11 130.95 181.41 130.55 182.19 Z M 130.10 183.08 L 129.63 183.97 C 129.22 184.74 129.51 185.69 130.28 186.10 C 131.05 186.50 132.00 186.21 132.41 185.44 L 132.88 184.55 C 133.28 183.78 132.99 182.83 132.22 182.42 C 131.45 182.02 130.50 182.31 130.10 183.08 Z M 129.64 183.96 L 129.15 184.86 C 128.74 185.62 129.02 186.57 129.78 186.99 C 130.53 187.40 131.48 187.12 131.90 186.36 L 132.39 185.45 C 132.80 184.69 132.52 183.74 131.76 183.33 C 131.01 182.92 130.06 183.20 129.64 183.96 Z M 129.16 184.85 L 128.67 185.73 C 128.25 186.48 128.52 187.43 129.27 187.85 C 130.02 188.27 130.97 188.00 131.39 187.25 L 131.88 186.37 C 132.30 185.62 132.03 184.67 131.28 184.25 C 130.53 183.84 129.58 184.10 129.16 184.85 Z M 128.69 185.73 L 128.20 186.59 C 127.78 187.33 128.04 188.28 128.78 188.70 C 129.52 189.12 130.47 188.86 130.89 188.12 L 131.38 187.26 C 131.80 186.51 131.54 185.57 130.79 185.15 C 130.05 184.73 129.11 184.99 128.69 185.73 Z M 128.21 186.59 L 127.73 187.44 C 127.31 188.17 127.56 189.11 128.30 189.53 C 129.04 189.95 129.98 189.70 130.40 188.96 L 130.88 188.11 C 131.30 187.38 131.04 186.44 130.31 186.02 C 129.57 185.60 128.63 185.85 128.21 186.59 Z M 127.73 187.44 L 127.22 188.35 C 126.80 189.08 127.06 190.01 127.80 190.43 C 128.53 190.85 129.46 190.59 129.88 189.85 L 130.39 188.95 C 130.81 188.22 130.55 187.28 129.82 186.87 C 129.08 186.45 128.15 186.71 127.73 187.44 Z M 127.23 188.35 L 126.73 189.24 C 126.31 189.97 126.57 190.89 127.30 191.31 C 128.03 191.72 128.96 191.46 129.37 190.73 L 129.87 189.85 C 130.29 189.12 130.03 188.19 129.30 187.78 C 128.57 187.36 127.64 187.62 127.23 188.35 Z M 126.74 189.24 L 126.25 190.09 C 125.84 190.82 126.09 191.74 126.82 192.15 C 127.54 192.56 128.46 192.31 128.88 191.59 L 129.36 190.73 C 129.77 190.01 129.52 189.09 128.80 188.67 C 128.07 188.26 127.15 188.51 126.74 189.24 Z M 126.26 190.09 L 125.78 190.93 C 125.37 191.65 125.61 192.57 126.33 192.98 C 127.05 193.39 127.97 193.15 128.38 192.43 L 128.86 191.59 C 129.28 190.87 129.03 189.95 128.31 189.54 C 127.59 189.13 126.68 189.37 126.26 190.09 Z M 125.79 190.93 L 125.29 191.80 C 124.87 192.51 125.11 193.42 125.82 193.84 C 126.53 194.25 127.44 194.01 127.86 193.30 L 128.36 192.43 C 128.78 191.72 128.54 190.81 127.83 190.40 C 127.12 189.98 126.21 190.22 125.79 190.93 Z M 125.30 191.80 L 124.80 192.65 C 124.39 193.36 124.62 194.26 125.33 194.68 C 126.03 195.09 126.94 194.85 127.35 194.15 L 127.85 193.30 C 128.26 192.59 128.02 191.69 127.32 191.27 C 126.61 190.86 125.71 191.10 125.30 191.80 Z M 124.80 192.67 L 124.31 193.53 C 123.90 194.24 124.14 195.13 124.84 195.54 C 125.55 195.94 126.44 195.70 126.85 195.00 L 127.35 194.13 C 127.75 193.43 127.51 192.53 126.81 192.13 C 126.10 191.73 125.21 191.97 124.80 192.67 Z M 124.31 193.55 L 123.83 194.40 C 123.44 195.10 123.69 195.99 124.39 196.38 C 125.09 196.78 125.98 196.53 126.37 195.82 L 126.85 194.98 C 127.24 194.28 126.99 193.39 126.29 192.99 C 125.59 192.60 124.70 192.85 124.31 193.55 Z M 123.83 194.41 L 123.35 195.29 C 122.96 195.99 123.22 196.87 123.92 197.26 C 124.62 197.64 125.50 197.39 125.89 196.69 L 126.37 195.81 C 126.76 195.11 126.50 194.23 125.80 193.84 C 125.10 193.45 124.22 193.71 123.83 194.41 Z M 123.35 195.30 L 122.86 196.19 C 122.48 196.89 122.74 197.77 123.44 198.15 C 124.14 198.53 125.02 198.27 125.40 197.57 L 125.89 196.68 C 126.27 195.98 126.01 195.10 125.31 194.72 C 124.61 194.34 123.73 194.60 123.35 195.30 Z M 122.87 196.20 L 122.60 196.69 C 122.22 197.39 122.48 198.26 123.18 198.64 C 123.88 199.02 124.75 198.76 125.13 198.06 L 125.40 197.57 C 125.78 196.87 125.52 195.99 124.82 195.62 C 124.12 195.24 123.25 195.50 122.87 196.20 Z"
      fill="black"
      fill-rule="nonzero" /><path d="M 150.67 171.20 L 151.67 171.23 C 152.55 171.26 153.30 170.57 153.33 169.68 C 153.36 168.79 152.66 168.05 151.77 168.02 L 150.78 167.98 C 149.89 167.95 149.14 168.65 149.11 169.54 C 149.08 170.43 149.78 171.17 150.67 171.20 Z M 151.62 171.24 L 152.61 171.31 C 153.50 171.37 154.27 170.69 154.33 169.79 C 154.39 168.90 153.71 168.13 152.82 168.07 L 151.82 168.01 C 150.93 167.95 150.16 168.63 150.10 169.52 C 150.04 170.41 150.72 171.19 151.62 171.24 Z M 152.51 171.31 L 153.49 171.44 C 154.39 171.55 155.21 170.92 155.32 170.02 C 155.44 169.12 154.80 168.31 153.91 168.19 L 152.92 168.07 C 152.02 167.95 151.21 168.59 151.09 169.48 C 150.98 170.38 151.61 171.20 152.51 171.31 Z M 153.34 171.42 L 154.32 171.64 C 155.20 171.84 156.08 171.28 156.28 170.39 C 156.48 169.50 155.92 168.62 155.03 168.42 L 154.06 168.21 C 153.17 168.01 152.29 168.57 152.09 169.46 C 151.89 170.35 152.45 171.23 153.34 171.42 Z M 154.12 171.60 L 155.06 171.93 C 155.93 172.23 156.88 171.78 157.18 170.91 C 157.48 170.05 157.03 169.10 156.16 168.79 L 155.22 168.46 C 154.36 168.16 153.41 168.61 153.11 169.48 C 152.80 170.35 153.26 171.29 154.12 171.60 Z M 154.88 171.87 L 155.76 172.30 C 156.60 172.71 157.60 172.36 158.01 171.53 C 158.41 170.70 158.07 169.70 157.24 169.29 L 156.35 168.86 C 155.52 168.45 154.51 168.79 154.11 169.63 C 153.70 170.46 154.05 171.46 154.88 171.87 Z M 155.63 172.25 L 156.50 172.76 C 157.30 173.24 158.33 172.99 158.82 172.18 C 159.30 171.38 159.04 170.34 158.24 169.86 L 157.37 169.35 C 156.57 168.86 155.53 169.12 155.05 169.93 C 154.57 170.73 154.83 171.76 155.63 172.25 Z M 156.40 172.72 L 157.24 173.30 C 158.02 173.83 159.08 173.63 159.61 172.85 C 160.14 172.08 159.94 171.01 159.17 170.48 L 158.33 169.91 C 157.55 169.37 156.49 169.57 155.96 170.35 C 155.43 171.13 155.62 172.19 156.40 172.72 Z M 157.18 173.27 L 157.98 173.87 C 158.75 174.44 159.82 174.28 160.39 173.51 C 160.96 172.75 160.80 171.67 160.04 171.10 L 159.23 170.51 C 158.47 169.94 157.39 170.10 156.82 170.86 C 156.25 171.63 156.41 172.70 157.18 173.27 Z M 157.95 173.86 L 158.75 174.47 C 159.51 175.06 160.59 174.92 161.18 174.16 C 161.76 173.40 161.62 172.31 160.86 171.73 L 160.07 171.11 C 159.31 170.53 158.22 170.67 157.64 171.43 C 157.05 172.19 157.19 173.28 157.95 173.86 Z M 158.73 174.47 L 159.52 175.09 C 160.28 175.68 161.37 175.55 161.97 174.79 C 162.56 174.04 162.43 172.94 161.67 172.35 L 160.88 171.73 C 160.12 171.14 159.03 171.27 158.44 172.03 C 157.84 172.78 157.98 173.88 158.73 174.47 Z M 159.51 175.08 L 160.28 175.70 C 161.03 176.30 162.13 176.18 162.73 175.43 C 163.33 174.67 163.21 173.58 162.45 172.98 L 161.69 172.36 C 160.93 171.76 159.84 171.88 159.24 172.63 C 158.63 173.38 158.76 174.48 159.51 175.08 Z M 160.26 175.69 L 161.02 176.31 C 161.77 176.92 162.87 176.81 163.48 176.07 C 164.09 175.32 163.98 174.22 163.23 173.61 L 162.47 172.99 C 161.73 172.37 160.63 172.48 160.01 173.23 C 159.40 173.98 159.51 175.08 160.26 175.69 Z M 161.00 176.30 L 161.77 176.95 C 162.51 177.57 163.62 177.47 164.24 176.73 C 164.86 175.99 164.76 174.89 164.02 174.27 L 163.25 173.62 C 162.51 173.00 161.41 173.10 160.79 173.84 C 160.17 174.58 160.26 175.68 161.00 176.30 Z M 161.76 176.94 L 162.47 177.54 C 163.20 178.17 164.31 178.09 164.94 177.36 C 165.57 176.62 165.48 175.52 164.75 174.89 L 164.04 174.28 C 163.31 173.65 162.20 173.73 161.57 174.47 C 160.94 175.20 161.02 176.31 161.76 176.94 Z M 162.46 177.54 L 163.18 178.16 C 163.90 178.80 165.01 178.73 165.65 178.00 C 166.28 177.27 166.21 176.16 165.48 175.52 L 164.76 174.90 C 164.03 174.26 162.92 174.33 162.29 175.06 C 161.65 175.79 161.73 176.90 162.46 177.54 Z M 163.17 178.16 L 163.91 178.81 C 164.64 179.45 165.74 179.39 166.38 178.66 C 167.03 177.94 166.96 176.83 166.23 176.19 L 165.49 175.53 C 164.76 174.89 163.65 174.96 163.01 175.68 C 162.37 176.41 162.44 177.52 163.17 178.16 Z M 163.91 178.81 L 164.68 179.49 C 165.40 180.14 166.51 180.07 167.15 179.35 C 167.79 178.63 167.73 177.52 167.00 176.87 L 166.24 176.19 C 165.51 175.55 164.40 175.61 163.76 176.34 C 163.12 177.06 163.18 178.17 163.91 178.81 Z M 164.67 179.49 L 165.47 180.20 C 166.19 180.85 167.30 180.78 167.95 180.06 C 168.59 179.34 168.53 178.23 167.80 177.59 L 167.01 176.88 C 166.28 176.23 165.18 176.30 164.53 177.02 C 163.89 177.74 163.95 178.85 164.67 179.49 Z M 165.47 180.20 L 166.20 180.85 C 166.92 181.50 168.03 181.43 168.67 180.71 C 169.32 179.99 169.25 178.88 168.53 178.23 L 167.80 177.59 C 167.08 176.94 165.97 177.01 165.33 177.73 C 164.68 178.45 164.75 179.56 165.47 180.20 Z M 166.20 180.85 L 166.91 181.49 C 167.64 182.13 168.74 182.06 169.39 181.34 C 170.03 180.62 169.96 179.51 169.24 178.87 L 168.53 178.23 C 167.81 177.59 166.70 177.66 166.06 178.38 C 165.41 179.10 165.48 180.21 166.20 180.85 Z M 166.91 181.48 L 167.65 182.14 C 168.37 182.78 169.47 182.71 170.12 181.99 C 170.76 181.27 170.70 180.16 169.97 179.52 L 169.24 178.87 C 168.52 178.23 167.41 178.29 166.77 179.01 C 166.13 179.74 166.19 180.84 166.91 181.48 Z M 167.65 182.13 L 168.40 182.80 C 169.12 183.45 170.22 183.38 170.86 182.66 C 171.51 181.94 171.44 180.84 170.72 180.19 L 169.97 179.52 C 169.25 178.88 168.15 178.94 167.51 179.66 C 166.86 180.38 166.93 181.49 167.65 182.13 Z M 168.39 182.80 L 169.16 183.49 C 169.88 184.13 170.98 184.07 171.63 183.35 C 172.27 182.63 172.21 181.53 171.49 180.88 L 170.73 180.20 C 170.01 179.55 168.90 179.61 168.26 180.33 C 167.61 181.05 167.68 182.16 168.39 182.80 Z M 169.16 183.48 L 169.94 184.19 C 170.66 184.83 171.76 184.77 172.41 184.06 C 173.05 183.34 172.99 182.24 172.28 181.59 L 171.49 180.89 C 170.78 180.24 169.67 180.30 169.03 181.02 C 168.38 181.73 168.44 182.84 169.16 183.48 Z M 169.94 184.18 L 170.69 184.87 C 171.41 185.51 172.51 185.46 173.16 184.74 C 173.80 184.03 173.75 182.93 173.04 182.28 L 172.28 181.60 C 171.56 180.95 170.46 181.00 169.82 181.72 C 169.17 182.43 169.22 183.53 169.94 184.18 Z M 170.69 184.86 L 171.43 185.53 C 172.14 186.18 173.24 186.13 173.89 185.42 C 174.54 184.71 174.49 183.60 173.77 182.96 L 173.04 182.29 C 172.33 181.64 171.22 181.69 170.58 182.40 C 169.93 183.11 169.98 184.21 170.69 184.86 Z M 171.43 185.53 L 172.17 186.21 C 172.88 186.86 173.98 186.81 174.63 186.10 C 175.28 185.39 175.23 184.29 174.52 183.64 L 173.78 182.96 C 173.07 182.31 171.97 182.36 171.32 183.07 C 170.67 183.78 170.72 184.88 171.43 185.53 Z M 172.16 186.20 L 172.91 186.89 C 173.62 187.54 174.72 187.49 175.37 186.78 C 176.02 186.08 175.97 184.98 175.26 184.33 L 174.52 183.64 C 173.81 182.99 172.71 183.04 172.06 183.75 C 171.41 184.45 171.46 185.55 172.16 186.20 Z M 172.91 186.88 L 173.65 187.57 C 174.35 188.22 175.45 188.18 176.10 187.47 C 176.75 186.77 176.71 185.67 176.01 185.01 L 175.26 184.33 C 174.56 183.68 173.46 183.72 172.81 184.43 C 172.16 185.13 172.20 186.23 172.91 186.88 Z M 173.65 187.57 L 174.38 188.25 C 175.09 188.90 176.18 188.86 176.84 188.15 C 177.49 187.45 177.45 186.35 176.74 185.70 L 176.01 185.02 C 175.30 184.37 174.21 184.41 173.55 185.11 C 172.90 185.81 172.94 186.91 173.65 187.57 Z M 174.38 188.24 L 175.11 188.92 C 175.81 189.57 176.91 189.53 177.56 188.83 C 178.21 188.13 178.17 187.03 177.47 186.38 L 176.74 185.70 C 176.04 185.05 174.94 185.09 174.29 185.79 C 173.64 186.49 173.68 187.59 174.38 188.24 Z M 175.10 188.91 L 175.86 189.62 C 176.56 190.27 177.66 190.23 178.31 189.53 C 178.96 188.83 178.92 187.73 178.22 187.08 L 177.47 186.38 C 176.77 185.73 175.67 185.76 175.02 186.46 C 174.37 187.16 174.40 188.26 175.10 188.91 Z M 175.86 189.61 L 176.61 190.31 C 177.30 190.97 178.40 190.93 179.05 190.23 C 179.71 189.53 179.67 188.44 178.97 187.78 L 178.22 187.08 C 177.52 186.43 176.43 186.47 175.78 187.17 C 175.12 187.87 175.16 188.96 175.86 189.61 Z M 176.61 190.31 L 177.34 191.00 C 178.04 191.65 179.13 191.62 179.79 190.92 C 180.44 190.22 180.40 189.13 179.71 188.47 L 178.97 187.79 C 178.27 187.13 177.18 187.17 176.53 187.87 C 175.87 188.56 175.91 189.66 176.61 190.31 Z M 177.34 191.00 L 178.06 191.68 C 178.76 192.33 179.85 192.30 180.51 191.60 C 181.16 190.90 181.13 189.81 180.43 189.16 L 179.71 188.48 C 179.01 187.82 177.92 187.86 177.26 188.55 C 176.61 189.25 176.64 190.34 177.34 191.00 Z M 178.07 191.68 L 178.78 192.35 C 179.48 193.00 180.57 192.97 181.22 192.27 C 181.88 191.58 181.84 190.48 181.15 189.83 L 180.43 189.16 C 179.74 188.51 178.64 188.54 177.99 189.23 C 177.34 189.93 177.37 191.02 178.07 191.68 Z M 178.78 192.35 L 179.49 193.01 C 180.19 193.67 181.28 193.63 181.93 192.94 C 182.58 192.24 182.55 191.15 181.85 190.50 L 181.15 189.83 C 180.45 189.18 179.36 189.21 178.71 189.91 C 178.05 190.60 178.09 191.69 178.78 192.35 Z M 179.49 193.01 L 180.22 193.70 C 180.91 194.35 182.00 194.31 182.66 193.62 C 183.31 192.93 183.27 191.84 182.58 191.19 L 181.85 190.50 C 181.16 189.85 180.07 189.88 179.42 190.58 C 178.77 191.27 178.80 192.36 179.49 193.01 Z M 180.22 193.69 L 180.97 194.39 C 181.66 195.04 182.75 195.01 183.40 194.32 C 184.05 193.62 184.01 192.54 183.32 191.89 L 182.58 191.19 C 181.89 190.54 180.80 190.57 180.15 191.27 C 179.50 191.96 179.53 193.04 180.22 193.69 Z M 180.97 194.39 L 181.71 195.08 C 182.40 195.73 183.49 195.69 184.13 195.00 C 184.78 194.31 184.74 193.23 184.05 192.58 L 183.31 191.89 C 182.62 191.24 181.54 191.28 180.89 191.97 C 180.25 192.66 180.28 193.74 180.97 194.39 Z M 181.72 195.08 L 182.45 195.76 C 183.14 196.40 184.22 196.37 184.86 195.68 C 185.51 194.99 185.47 193.91 184.78 193.26 L 184.05 192.58 C 183.36 191.94 182.28 191.98 181.63 192.67 C 180.99 193.36 181.03 194.44 181.72 195.08 Z M 182.46 195.76 L 183.19 196.43 C 183.88 197.07 184.95 197.03 185.59 196.34 C 186.23 195.65 186.19 194.57 185.50 193.94 L 184.77 193.26 C 184.08 192.63 183.00 192.67 182.37 193.36 C 181.73 194.05 181.77 195.12 182.46 195.76 Z M 183.20 196.44 L 183.92 197.10 C 184.61 197.73 185.68 197.68 186.31 196.99 C 186.95 196.30 186.90 195.23 186.21 194.59 L 185.49 193.93 C 184.80 193.30 183.72 193.35 183.09 194.04 C 182.46 194.73 182.51 195.80 183.20 196.44 Z M 183.93 197.10 L 184.68 197.78 C 185.37 198.40 186.44 198.35 187.07 197.66 C 187.69 196.97 187.64 195.90 186.95 195.27 L 186.20 194.59 C 185.50 193.97 184.44 194.02 183.81 194.71 C 183.18 195.40 183.24 196.47 183.93 197.10 Z M 184.70 197.78 L 185.47 198.46 C 186.16 199.08 187.22 199.02 187.84 198.33 C 188.45 197.64 188.39 196.58 187.70 195.96 L 186.93 195.27 C 186.24 194.65 185.18 194.71 184.56 195.41 C 183.95 196.10 184.01 197.16 184.70 197.78 Z M 185.48 198.46 L 186.24 199.13 C 186.93 199.74 187.98 199.68 188.59 198.99 C 189.20 198.30 189.14 197.24 188.45 196.63 L 187.69 195.96 C 187.00 195.35 185.94 195.42 185.33 196.11 C 184.72 196.80 184.79 197.85 185.48 198.46 Z M 186.25 199.13 L 187.00 199.78 C 187.69 200.39 188.73 200.32 189.34 199.63 C 189.94 198.94 189.87 197.89 189.18 197.29 L 188.43 196.63 C 187.75 196.03 186.70 196.10 186.09 196.79 C 185.49 197.48 185.56 198.53 186.25 199.13 Z M 187.01 199.78 L 187.74 200.42 C 188.43 201.01 189.47 200.94 190.07 200.26 C 190.66 199.57 190.59 198.53 189.90 197.93 L 189.17 197.29 C 188.48 196.69 187.44 196.77 186.84 197.45 C 186.25 198.14 186.32 199.18 187.01 199.78 Z M 187.75 200.41 L 188.49 201.05 C 189.17 201.64 190.21 201.57 190.80 200.88 C 191.39 200.20 191.32 199.17 190.63 198.57 L 189.89 197.94 C 189.21 197.34 188.18 197.42 187.59 198.10 C 186.99 198.79 187.07 199.82 187.75 200.41 Z M 188.50 201.04 L 189.29 201.72 C 189.97 202.31 191.00 202.23 191.58 201.55 C 192.17 200.87 192.09 199.84 191.41 199.26 L 190.62 198.58 C 189.94 198.00 188.91 198.07 188.33 198.75 C 187.74 199.43 187.82 200.46 188.50 201.04 Z M 189.31 201.72 L 190.09 202.38 C 190.77 202.95 191.78 202.86 192.36 202.19 C 192.93 201.51 192.84 200.49 192.17 199.92 L 191.39 199.26 C 190.71 198.69 189.70 198.78 189.12 199.45 C 188.55 200.13 188.63 201.15 189.31 201.72 Z M 190.12 202.38 L 190.89 203.01 C 191.57 203.57 192.57 203.47 193.13 202.79 C 193.68 202.11 193.59 201.11 192.91 200.55 L 192.14 199.92 C 191.46 199.36 190.46 199.46 189.90 200.14 C 189.34 200.82 189.44 201.82 190.12 202.38 Z M 190.92 203.02 L 191.68 203.62 C 192.37 204.16 193.36 204.04 193.90 203.35 C 194.44 202.67 194.32 201.68 193.63 201.14 L 192.87 200.54 C 192.19 200.00 191.20 200.12 190.66 200.81 C 190.12 201.49 190.24 202.48 190.92 203.02 Z M 191.73 203.63 L 192.51 204.21 C 193.20 204.72 194.18 204.58 194.69 203.88 C 195.20 203.19 195.06 202.22 194.37 201.70 L 193.59 201.13 C 192.90 200.61 191.92 200.76 191.41 201.45 C 190.89 202.14 191.04 203.12 191.73 203.63 Z M 192.56 204.23 L 193.39 204.79 C 194.09 205.28 195.05 205.10 195.53 204.40 C 196.02 203.70 195.84 202.74 195.14 202.25 L 194.31 201.69 C 193.61 201.20 192.65 201.38 192.17 202.08 C 191.68 202.78 191.86 203.74 192.56 204.23 Z M 193.44 204.81 L 194.28 205.34 C 194.99 205.79 195.93 205.58 196.39 204.87 C 196.84 204.16 196.63 203.22 195.92 202.77 L 195.08 202.24 C 194.37 201.78 193.43 201.99 192.98 202.71 C 192.52 203.42 192.73 204.36 193.44 204.81 Z M 194.34 205.35 L 195.19 205.86 C 195.91 206.28 196.83 206.04 197.25 205.32 C 197.68 204.60 197.44 203.68 196.72 203.26 L 195.86 202.76 C 195.14 202.33 194.22 202.57 193.80 203.29 C 193.38 204.01 193.62 204.93 194.34 205.35 Z M 195.24 205.87 L 196.13 206.35 C 196.85 206.74 197.76 206.47 198.15 205.75 C 198.54 205.03 198.27 204.12 197.55 203.73 L 196.67 203.25 C 195.94 202.86 195.04 203.12 194.65 203.85 C 194.25 204.57 194.52 205.47 195.24 205.87 Z M 196.17 206.35 L 197.07 206.81 C 197.79 207.17 198.68 206.88 199.05 206.15 C 199.42 205.43 199.12 204.54 198.40 204.17 L 197.50 203.72 C 196.78 203.35 195.89 203.65 195.52 204.37 C 195.16 205.10 195.45 205.99 196.17 206.35 Z M 197.11 206.82 L 198.03 207.24 C 198.76 207.58 199.63 207.26 199.97 206.53 C 200.31 205.79 200.00 204.92 199.26 204.58 L 198.35 204.16 C 197.61 203.82 196.74 204.14 196.40 204.87 C 196.06 205.61 196.38 206.48 197.11 206.82 Z M 198.09 207.26 L 199.02 207.65 C 199.76 207.95 200.62 207.60 200.92 206.85 C 201.23 206.11 200.88 205.26 200.13 204.95 L 199.20 204.56 C 198.46 204.26 197.60 204.61 197.30 205.35 C 196.99 206.10 197.34 206.95 198.09 207.26 Z M 199.09 207.66 L 200.04 208.00 C 200.79 208.27 201.62 207.87 201.89 207.12 C 202.16 206.36 201.76 205.53 201.01 205.26 L 200.06 204.93 C 199.31 204.66 198.48 205.06 198.21 205.81 C 197.94 206.57 198.34 207.40 199.09 207.66 Z M 200.13 208.02 L 201.08 208.29 C 201.84 208.51 202.64 208.06 202.86 207.30 C 203.08 206.53 202.63 205.73 201.87 205.51 L 200.92 205.24 C 200.15 205.03 199.35 205.47 199.13 206.24 C 198.92 207.00 199.36 207.80 200.13 208.02 Z M 201.18 208.31 L 202.16 208.51 C 202.94 208.67 203.70 208.17 203.86 207.39 C 204.02 206.62 203.52 205.86 202.74 205.70 L 201.76 205.49 C 200.98 205.33 200.22 205.83 200.06 206.61 C 199.90 207.39 200.40 208.15 201.18 208.31 Z M 202.26 208.52 L 203.24 208.66 C 204.02 208.77 204.74 208.22 204.85 207.43 C 204.96 206.65 204.41 205.92 203.63 205.82 L 202.65 205.68 C 201.86 205.57 201.14 206.12 201.03 206.91 C 200.92 207.69 201.47 208.42 202.26 208.52 Z M 203.31 208.66 L 204.30 208.75 C 205.09 208.81 205.78 208.23 205.85 207.44 C 205.91 206.65 205.33 205.96 204.54 205.89 L 203.55 205.81 C 202.76 205.74 202.07 206.33 202.00 207.12 C 201.94 207.91 202.52 208.60 203.31 208.66 Z M 204.35 208.75 L 205.36 208.80 C 206.15 208.83 206.81 208.23 206.85 207.44 C 206.89 206.65 206.28 205.98 205.49 205.94 L 204.49 205.89 C 203.70 205.86 203.03 206.46 202.99 207.25 C 202.96 208.04 203.56 208.71 204.35 208.75 Z M 205.39 208.80 L 206.38 208.82 C 207.16 208.85 207.82 208.22 207.84 207.44 C 207.86 206.65 207.24 205.99 206.46 205.97 L 205.47 205.94 C 204.68 205.92 204.02 206.54 204.00 207.33 C 203.98 208.12 204.60 208.77 205.39 208.80 Z M 206.39 208.82 L 207.38 208.84 C 208.17 208.85 208.82 208.23 208.83 207.44 C 208.84 206.65 208.21 206.00 207.43 205.99 L 206.44 205.97 C 205.65 205.96 205.00 206.59 204.99 207.37 C 204.98 208.16 205.60 208.81 206.39 208.82 Z M 207.39 208.84 L 208.39 208.85 C 209.18 208.86 209.82 208.22 209.83 207.44 C 209.84 206.65 209.20 206.00 208.41 205.99 L 207.41 205.99 C 206.62 205.98 205.98 206.61 205.97 207.40 C 205.97 208.19 206.60 208.84 207.39 208.84 Z M 208.40 208.85 L 209.41 208.86 C 210.20 208.86 210.84 208.22 210.84 207.43 C 210.85 206.64 210.21 206.00 209.42 206.00 L 208.41 205.99 C 207.62 205.99 206.97 206.63 206.97 207.42 C 206.97 208.21 207.61 208.85 208.40 208.85 Z M 209.41 208.86 L 210.43 208.86 C 211.22 208.86 211.86 208.22 211.86 207.43 C 211.86 206.64 211.22 206.00 210.43 206.00 L 209.41 206.00 C 208.62 205.99 207.98 206.63 207.98 207.43 C 207.98 208.22 208.62 208.86 209.41 208.86 Z M 210.43 208.86 L 210.65 208.86 C 211.44 208.86 212.08 208.22 212.08 207.43 C 212.08 206.64 211.44 206.00 210.65 206.00 L 210.43 206.00 C 209.64 206.00 209.00 206.64 209.00 207.43 C 209.00 208.22 209.64 208.86 210.43 208.86 Z"
      fill="black"
      fill-rule="nonzero" /></svg>