<svg xmlns="http://www.w3.org/2000/svg" width="300" height="300" viewBox="0 0 300 300">
<path d="M 157.44 97.29 L 157.69 96.11 C 157.88 95.24 157.33 94.40 156.46 94.21 C 155.60 94.03 154.76 94.58 154.57 95.44 L 154.32 96.63 C 154.14 97.49 154.69 98.34 155.55 98.52 C 156.41 98.71 157.26 98.16 157.44 97.29 Z M 157.76 95.76 L 157.76 94.83 C 157.75 93.93 157.01 93.21 156.11 93.22 C 155.21 93.22 154.49 93.96 154.50 94.86 L 154.50 95.79 C 154.51 96.69 155.25 97.41 156.15 97.40 C 157.05 97.40 157.77 96.66 157.76 95.76 Z M 157.23 93.61 L 156.78 93.21 C 156.09 92.60 155.05 92.66 154.44 93.34 C 153.83 94.03 153.89 95.08 154.57 95.68 L 155.02 96.09 C 155.71 96.69 156.76 96.63 157.37 95.95 C 157.97 95.26 157.91 94.22 157.23 93.61 Z M 155.54 92.78 L 154.82 92.84 C 153.90 92.91 153.22 93.72 153.29 94.64 C 153.37 95.57 154.18 96.25 155.10 96.17 L 155.81 96.11 C 156.74 96.04 157.42 95.23 157.34 94.31 C 157.27 93.38 156.46 92.70 155.54 92.78 Z M 154.38 92.93 L 153.44 93.27 C 152.57 93.59 152.12 94.56 152.44 95.43 C 152.75 96.30 153.72 96.75 154.59 96.43 L 155.54 96.08 C 156.41 95.76 156.86 94.80 156.54 93.93 C 156.22 93.06 155.26 92.61 154.38 92.93 Z M 153.22 93.37 L 152.13 93.95 C 151.31 94.38 151.00 95.40 151.44 96.23 C 151.87 97.05 152.89 97.36 153.72 96.92 L 154.81 96.34 C 155.63 95.90 155.94 94.88 155.50 94.06 C 155.06 93.24 154.04 92.93 153.22 93.37 Z M 152.00 94.02 L 151.04 94.65 C 150.26 95.17 150.04 96.21 150.56 96.99 C 151.07 97.77 152.12 97.98 152.89 97.47 L 153.85 96.84 C 154.63 96.33 154.84 95.28 154.33 94.51 C 153.82 93.73 152.77 93.51 152.00 94.02 Z M 150.95 94.72 L 150.14 95.32 C 149.40 95.88 149.25 96.94 149.81 97.68 C 150.37 98.43 151.43 98.58 152.17 98.02 L 152.98 97.41 C 153.72 96.85 153.87 95.79 153.31 95.05 C 152.75 94.31 151.70 94.16 150.95 94.72 Z M 150.09 95.37 L 149.30 96.02 C 148.58 96.61 148.47 97.67 149.06 98.39 C 149.65 99.11 150.71 99.21 151.43 98.62 L 152.22 97.97 C 152.94 97.38 153.05 96.32 152.46 95.60 C 151.87 94.89 150.81 94.78 150.09 95.37 Z M 149.26 96.06 L 148.49 96.73 C 147.79 97.34 147.72 98.40 148.33 99.10 C 148.95 99.80 150.01 99.87 150.70 99.26 L 151.47 98.58 C 152.17 97.97 152.24 96.91 151.62 96.22 C 151.01 95.52 149.95 95.45 149.26 96.06 Z M 148.46 96.76 L 147.73 97.43 C 147.05 98.06 147.01 99.12 147.64 99.80 C 148.26 100.48 149.32 100.52 150.00 99.90 L 150.73 99.23 C 151.41 98.60 151.45 97.54 150.83 96.86 C 150.20 96.18 149.14 96.14 148.46 96.76 Z M 147.71 97.46 L 147.00 98.14 C 146.33 98.78 146.31 99.84 146.95 100.50 C 147.58 101.17 148.64 101.19 149.31 100.56 L 150.02 99.87 C 150.69 99.24 150.71 98.18 150.08 97.51 C 149.44 96.84 148.38 96.82 147.71 97.46 Z M 146.99 98.17 L 146.23 98.91 C 145.58 99.55 145.57 100.61 146.22 101.26 C 146.86 101.91 147.91 101.92 148.56 101.28 L 149.32 100.53 C 149.97 99.89 149.98 98.84 149.34 98.18 C 148.69 97.53 147.64 97.52 146.99 98.17 Z M 146.22 98.94 L 145.53 99.65 C 144.89 100.29 144.90 101.34 145.55 101.98 C 146.20 102.61 147.24 102.61 147.88 101.96 L 148.57 101.25 C 149.21 100.60 149.20 99.56 148.55 98.92 C 147.90 98.28 146.86 98.29 146.22 98.94 Z M 145.52 99.67 L 144.86 100.36 C 144.23 101.01 144.26 102.05 144.91 102.67 C 145.56 103.30 146.60 103.28 147.22 102.62 L 147.88 101.93 C 148.51 101.28 148.49 100.24 147.83 99.62 C 147.18 98.99 146.15 99.02 145.52 99.67 Z M 144.86 100.38 L 144.20 101.08 C 143.59 101.73 143.62 102.76 144.27 103.37 C 144.92 103.99 145.95 103.96 146.57 103.30 L 147.22 102.60 C 147.84 101.95 147.80 100.92 147.15 100.31 C 146.50 99.70 145.47 99.73 144.86 100.38 Z M 144.20 101.09 L 143.57 101.77 C 142.96 102.43 143.00 103.45 143.65 104.05 C 144.30 104.66 145.32 104.62 145.93 103.97 L 146.56 103.29 C 147.17 102.64 147.13 101.62 146.48 101.01 C 145.83 100.40 144.81 100.44 144.20 101.09 Z M 143.57 101.78 L 142.92 102.49 C 142.31 103.14 142.35 104.16 143.00 104.76 C 143.65 105.36 144.67 105.32 145.27 104.67 L 145.92 103.96 C 146.53 103.31 146.49 102.30 145.84 101.70 C 145.19 101.09 144.17 101.13 143.57 101.78 Z M 142.92 102.50 L 142.24 103.24 C 141.64 103.89 141.69 104.90 142.33 105.49 C 142.98 106.09 143.99 106.05 144.59 105.40 L 145.27 104.66 C 145.86 104.01 145.82 103.00 145.17 102.41 C 144.52 101.81 143.52 101.85 142.92 102.50 Z M 142.24 103.25 L 141.54 104.02 C 140.94 104.67 140.99 105.67 141.64 106.26 C 142.28 106.85 143.28 106.81 143.87 106.16 L 144.58 105.39 C 145.17 104.74 145.13 103.74 144.48 103.15 C 143.84 102.56 142.83 102.60 142.24 103.25 Z M 141.54 104.03 L 140.85 104.79 C 140.26 105.43 140.31 106.43 140.95 107.02 C 141.60 107.60 142.59 107.56 143.18 106.91 L 143.87 106.16 C 144.46 105.51 144.41 104.51 143.77 103.93 C 143.12 103.34 142.13 103.39 141.54 104.03 Z M 140.85 104.80 L 140.21 105.51 C 139.62 106.15 139.67 107.14 140.31 107.73 C 140.96 108.31 141.95 108.26 142.53 107.62 L 143.18 106.90 C 143.76 106.26 143.71 105.27 143.07 104.69 C 142.43 104.11 141.43 104.16 140.85 104.80 Z M 140.21 105.52 L 139.55 106.26 C 138.97 106.90 139.02 107.88 139.66 108.46 C 140.30 109.04 141.29 108.98 141.87 108.34 L 142.53 107.61 C 143.10 106.97 143.05 105.98 142.41 105.40 C 141.77 104.83 140.78 104.88 140.21 105.52 Z M 139.55 106.27 L 138.87 107.02 C 138.30 107.66 138.36 108.64 139.00 109.21 C 139.64 109.79 140.62 109.73 141.19 109.09 L 141.87 108.33 C 142.44 107.69 142.38 106.71 141.74 106.14 C 141.10 105.57 140.12 105.63 139.55 106.27 Z M 138.87 107.03 L 138.19 107.80 C 137.63 108.45 137.69 109.42 138.33 109.99 C 138.97 110.55 139.95 110.49 140.52 109.85 L 141.19 109.08 C 141.76 108.44 141.69 107.46 141.05 106.89 C 140.41 106.33 139.44 106.39 138.87 107.03 Z M 138.19 107.82 L 137.52 108.60 C 136.96 109.24 137.03 110.21 137.67 110.77 C 138.31 111.33 139.28 111.26 139.84 110.61 L 140.52 109.83 C 141.07 109.19 141.00 108.22 140.36 107.66 C 139.72 107.11 138.75 107.18 138.19 107.82 Z M 137.51 108.61 L 136.87 109.37 C 136.32 110.01 136.40 110.98 137.05 111.52 C 137.69 112.07 138.66 112.00 139.20 111.35 L 139.84 110.60 C 140.39 109.96 140.31 108.99 139.67 108.44 C 139.03 107.89 138.06 107.97 137.51 108.61 Z M 136.87 109.38 L 136.23 110.14 C 135.69 110.78 135.78 111.74 136.42 112.29 C 137.07 112.83 138.03 112.74 138.57 112.10 L 139.21 111.34 C 139.75 110.69 139.66 109.73 139.02 109.19 C 138.37 108.65 137.41 108.73 136.87 109.38 Z M 136.23 110.15 L 135.60 110.92 C 135.06 111.56 135.15 112.52 135.80 113.06 C 136.44 113.59 137.40 113.50 137.93 112.85 L 138.57 112.09 C 139.11 111.44 139.02 110.48 138.37 109.95 C 137.72 109.41 136.77 109.50 136.23 110.15 Z M 135.60 110.93 L 134.96 111.70 C 134.43 112.35 134.52 113.30 135.17 113.83 C 135.82 114.36 136.77 114.27 137.30 113.62 L 137.93 112.84 C 138.46 112.20 138.37 111.25 137.72 110.72 C 137.08 110.19 136.13 110.28 135.60 110.93 Z M 134.96 111.71 L 134.32 112.50 C 133.80 113.14 133.89 114.09 134.54 114.61 C 135.19 115.14 136.13 115.04 136.66 114.40 L 137.30 113.61 C 137.82 112.97 137.72 112.02 137.08 111.49 C 136.43 110.97 135.49 111.07 134.96 111.71 Z M 134.32 112.50 L 133.69 113.28 C 133.17 113.93 133.27 114.87 133.91 115.39 C 134.56 115.91 135.50 115.81 136.02 115.17 L 136.66 114.39 C 137.18 113.75 137.08 112.80 136.43 112.28 C 135.79 111.76 134.85 111.86 134.32 112.50 Z M 133.69 113.29 L 133.07 114.06 C 132.56 114.70 132.66 115.64 133.30 116.16 C 133.94 116.68 134.88 116.58 135.40 115.94 L 136.02 115.16 C 136.54 114.52 136.44 113.58 135.80 113.06 C 135.15 112.55 134.21 112.65 133.69 113.29 Z M 133.08 114.07 L 132.45 114.84 C 131.94 115.49 132.04 116.42 132.68 116.94 C 133.32 117.45 134.26 117.35 134.78 116.71 L 135.40 115.93 C 135.91 115.29 135.81 114.35 135.17 113.84 C 134.53 113.32 133.59 113.43 133.08 114.07 Z M 132.45 114.85 L 131.83 115.64 C 131.32 116.28 131.43 117.21 132.07 117.72 C 132.71 118.23 133.64 118.12 134.15 117.48 L 134.77 116.70 C 135.28 116.06 135.18 115.13 134.54 114.62 C 133.90 114.11 132.96 114.21 132.45 114.85 Z M 131.83 115.64 L 131.21 116.43 C 130.70 117.07 130.81 118.00 131.45 118.51 C 132.09 119.01 133.02 118.90 133.53 118.26 L 134.15 117.47 C 134.65 116.83 134.55 115.91 133.91 115.40 C 133.27 114.90 132.34 115.00 131.83 115.64 Z M 131.21 116.44 L 130.59 117.24 C 130.09 117.87 130.20 118.80 130.84 119.30 C 131.48 119.80 132.40 119.69 132.90 119.05 L 133.53 118.25 C 134.03 117.61 133.91 116.69 133.27 116.19 C 132.63 115.69 131.71 115.80 131.21 116.44 Z M 130.59 117.24 L 129.97 118.04 C 129.47 118.68 129.59 119.60 130.23 120.10 C 130.87 120.59 131.79 120.48 132.29 119.84 L 132.90 119.04 C 133.40 118.40 133.28 117.48 132.64 116.98 C 132.00 116.49 131.08 116.61 130.59 117.24 Z M 129.97 118.05 L 129.36 118.85 C 128.87 119.49 128.99 120.41 129.63 120.90 C 130.27 121.39 131.18 121.27 131.67 120.63 L 132.29 119.83 C 132.78 119.19 132.66 118.27 132.02 117.78 C 131.38 117.29 130.46 117.41 129.97 118.05 Z M 129.35 118.86 L 128.75 119.66 C 128.26 120.30 128.39 121.22 129.03 121.70 C 129.67 122.19 130.58 122.06 131.07 121.42 L 131.68 120.62 C 132.16 119.98 132.03 119.06 131.39 118.58 C 130.75 118.09 129.84 118.22 129.35 118.86 Z M 128.75 119.67 L 128.15 120.48 C 127.67 121.12 127.80 122.03 128.44 122.51 C 129.08 122.99 129.99 122.85 130.47 122.21 L 131.07 121.41 C 131.55 120.77 131.42 119.86 130.78 119.38 C 130.13 118.90 129.23 119.03 128.75 119.67 Z M 128.14 120.49 L 127.55 121.29 C 127.08 121.93 127.21 122.84 127.86 123.31 C 128.50 123.78 129.40 123.65 129.88 123.00 L 130.47 122.20 C 130.95 121.56 130.81 120.66 130.17 120.18 C 129.52 119.71 128.62 119.84 128.14 120.49 Z M 127.55 121.30 L 126.97 122.10 C 126.50 122.74 126.64 123.64 127.28 124.11 C 127.93 124.58 128.83 124.44 129.30 123.79 L 129.88 122.99 C 130.35 122.35 130.21 121.45 129.56 120.98 C 128.92 120.51 128.02 120.65 127.55 121.30 Z M 126.96 122.11 L 126.37 122.94 C 125.91 123.58 126.06 124.48 126.70 124.94 C 127.35 125.41 128.24 125.26 128.71 124.61 L 129.30 123.78 C 129.76 123.14 129.62 122.24 128.97 121.78 C 128.33 121.32 127.43 121.46 126.96 122.11 Z M 126.37 122.95 L 125.77 123.79 C 125.31 124.44 125.47 125.33 126.12 125.79 C 126.77 126.25 127.66 126.09 128.12 125.45 L 128.71 124.60 C 129.17 123.95 129.01 123.06 128.37 122.60 C 127.72 122.14 126.82 122.30 126.37 122.95 Z M 125.77 123.80 L 125.19 124.64 C 124.74 125.29 124.90 126.18 125.55 126.63 C 126.20 127.08 127.09 126.92 127.54 126.27 L 128.12 125.43 C 128.57 124.78 128.41 123.89 127.76 123.44 C 127.11 122.99 126.22 123.15 125.77 123.80 Z M 125.18 124.65 L 124.62 125.48 C 124.18 126.13 124.35 127.02 125.00 127.47 C 125.66 127.91 126.55 127.74 126.99 127.08 L 127.55 126.26 C 127.99 125.60 127.82 124.71 127.17 124.27 C 126.51 123.83 125.62 124.00 125.18 124.65 Z M 124.61 125.49 L 124.08 126.30 C 123.64 126.96 123.82 127.85 124.48 128.29 C 125.14 128.72 126.03 128.54 126.46 127.88 L 127.00 127.07 C 127.44 126.41 127.25 125.52 126.60 125.09 C 125.94 124.65 125.05 124.83 124.61 125.49 Z M 124.07 126.32 L 123.55 127.12 C 123.12 127.79 123.31 128.67 123.98 129.10 C 124.64 129.53 125.52 129.33 125.95 128.67 L 126.47 127.87 C 126.90 127.20 126.71 126.32 126.04 125.89 C 125.38 125.46 124.50 125.66 124.07 126.32 Z M 123.54 127.14 L 122.99 128.02 C 122.57 128.69 122.77 129.57 123.44 129.99 C 124.11 130.41 124.99 130.20 125.41 129.54 L 125.96 128.65 C 126.38 127.99 126.18 127.11 125.51 126.69 C 124.84 126.27 123.96 126.47 123.54 127.14 Z M 122.98 128.04 L 122.46 128.90 C 122.05 129.58 122.26 130.45 122.93 130.86 C 123.61 131.27 124.49 131.06 124.89 130.38 L 125.42 129.52 C 125.83 128.85 125.61 127.97 124.94 127.56 C 124.27 127.15 123.39 127.37 122.98 128.04 Z M 122.45 128.92 L 121.94 129.77 C 121.54 130.44 121.76 131.32 122.44 131.72 C 123.12 132.12 123.99 131.90 124.40 131.22 L 124.90 130.37 C 125.30 129.70 125.08 128.82 124.40 128.42 C 123.73 128.02 122.85 128.24 122.45 128.92 Z M 121.94 129.78 L 121.44 130.62 C 121.05 131.30 121.28 132.17 121.96 132.57 C 122.63 132.97 123.51 132.74 123.91 132.06 L 124.40 131.22 C 124.80 130.54 124.57 129.66 123.89 129.26 C 123.21 128.87 122.34 129.10 121.94 129.78 Z M 121.44 130.62 L 121.05 131.30 C 120.65 131.99 120.88 132.86 121.56 133.25 C 122.24 133.65 123.12 133.42 123.51 132.74 L 123.91 132.06 C 124.30 131.37 124.07 130.50 123.39 130.11 C 122.71 129.71 121.84 129.94 121.44 130.62 Z"
      fill="black"
      fill-rule="nonzero" /><path d="M 109.45 150.71 L 108.10 150.71 C 107.17 150.71 106.42 151.46 106.41 152.39 C 106.41 153.32 107.17 154.07 108.09 154.08 L 109.44 154.08 C 110.37 154.08 111.13 153.33 111.13 152.40 C 111.13 151.47 110.38 150.71 109.45 150.71 Z M 108.12 150.70 L 106.96 150.69 C 106.03 150.68 105.27 151.42 105.25 152.35 C 105.24 153.29 105.99 154.05 106.92 154.07 L 108.08 154.08 C 109.01 154.09 109.77 153.35 109.79 152.41 C 109.80 151.48 109.05 150.71 108.12 150.70 Z M 107.03 150.68 L 106.26 150.64 C 105.33 150.59 104.53 151.31 104.48 152.25 C 104.43 153.18 105.15 153.98 106.08 154.03 L 106.85 154.07 C 107.79 154.12 108.58 153.40 108.63 152.47 C 108.68 151.53 107.97 150.73 107.03 150.68 Z M 107.05 150.88 L 106.89 150.78 C 106.08 150.29 105.04 150.55 104.55 151.36 C 104.07 152.16 104.33 153.21 105.13 153.69 L 105.30 153.79 C 106.10 154.28 107.15 154.02 107.63 153.21 C 108.12 152.41 107.86 151.36 107.05 150.88 Z M 106.47 153.88 L 107.21 153.67 C 108.12 153.42 108.65 152.48 108.40 151.57 C 108.15 150.66 107.21 150.13 106.30 150.38 L 105.55 150.59 C 104.64 150.84 104.11 151.79 104.36 152.69 C 104.62 153.60 105.56 154.13 106.47 153.88 Z M 107.16 153.70 L 108.58 153.35 C 109.51 153.13 110.07 152.20 109.85 151.28 C 109.63 150.36 108.70 149.80 107.78 150.02 L 106.35 150.36 C 105.43 150.58 104.87 151.51 105.09 152.43 C 105.31 153.35 106.23 153.92 107.16 153.70 Z M 108.63 153.34 L 109.56 153.09 C 110.48 152.85 111.02 151.91 110.78 150.99 C 110.53 150.07 109.59 149.53 108.67 149.77 L 107.74 150.02 C 106.82 150.27 106.28 151.21 106.52 152.13 C 106.77 153.05 107.71 153.59 108.63 153.34 Z M 109.59 153.09 L 110.55 152.81 C 111.47 152.55 112.00 151.60 111.73 150.69 C 111.47 149.77 110.52 149.25 109.61 149.51 L 108.65 149.78 C 107.73 150.04 107.21 150.99 107.47 151.91 C 107.73 152.82 108.68 153.35 109.59 153.09 Z M 110.57 152.81 L 111.57 152.51 C 112.47 152.24 112.99 151.28 112.72 150.37 C 112.45 149.46 111.49 148.94 110.58 149.22 L 109.59 149.51 C 108.68 149.78 108.16 150.74 108.43 151.65 C 108.71 152.56 109.66 153.08 110.57 152.81 Z M 111.58 152.51 L 112.57 152.20 C 113.47 151.92 113.98 150.96 113.70 150.06 C 113.43 149.15 112.46 148.64 111.56 148.92 L 110.57 149.22 C 109.66 149.50 109.15 150.46 109.43 151.37 C 109.71 152.27 110.67 152.78 111.58 152.51 Z M 112.57 152.20 L 113.53 151.90 C 114.43 151.62 114.94 150.66 114.65 149.75 C 114.37 148.84 113.41 148.34 112.50 148.62 L 111.55 148.92 C 110.64 149.20 110.14 150.17 110.42 151.07 C 110.70 151.98 111.67 152.48 112.57 152.20 Z M 113.53 151.90 L 114.55 151.58 C 115.45 151.30 115.96 150.33 115.67 149.42 C 115.39 148.52 114.42 148.02 113.52 148.30 L 112.50 148.62 C 111.59 148.91 111.09 149.87 111.37 150.78 C 111.66 151.68 112.62 152.19 113.53 151.90 Z M 114.55 151.58 L 115.52 151.27 C 116.42 150.99 116.92 150.02 116.63 149.12 C 116.35 148.21 115.38 147.71 114.48 148.00 L 113.51 148.30 C 112.61 148.59 112.11 149.56 112.39 150.46 C 112.68 151.36 113.65 151.87 114.55 151.58 Z M 115.51 151.27 L 116.44 150.98 C 117.34 150.69 117.84 149.73 117.56 148.82 C 117.27 147.92 116.31 147.42 115.40 147.71 L 114.48 148.00 C 113.57 148.29 113.07 149.25 113.36 150.15 C 113.65 151.06 114.61 151.56 115.51 151.27 Z M 116.44 150.98 L 117.35 150.69 C 118.25 150.41 118.76 149.44 118.47 148.54 C 118.19 147.64 117.22 147.13 116.32 147.42 L 115.41 147.71 C 114.50 147.99 114.00 148.95 114.28 149.86 C 114.57 150.76 115.53 151.27 116.44 150.98 Z M 117.35 150.69 L 118.25 150.41 C 119.16 150.13 119.66 149.17 119.38 148.26 C 119.10 147.36 118.14 146.85 117.24 147.13 L 116.33 147.42 C 115.42 147.70 114.92 148.66 115.20 149.57 C 115.48 150.47 116.44 150.97 117.35 150.69 Z M 118.25 150.41 L 119.17 150.13 C 120.08 149.85 120.58 148.89 120.30 147.98 C 120.02 147.08 119.07 146.57 118.16 146.85 L 117.24 147.13 C 116.33 147.41 115.83 148.37 116.11 149.28 C 116.39 150.18 117.35 150.69 118.25 150.41 Z M 119.17 150.13 L 120.12 149.83 C 121.02 149.55 121.53 148.60 121.25 147.69 C 120.98 146.79 120.02 146.28 119.11 146.56 L 118.16 146.85 C 117.26 147.13 116.75 148.09 117.03 148.99 C 117.31 149.90 118.27 150.40 119.17 150.13 Z M 120.12 149.83 L 121.10 149.53 C 122.00 149.25 122.51 148.29 122.23 147.39 C 121.95 146.48 120.99 145.98 120.09 146.26 L 119.11 146.56 C 118.21 146.84 117.70 147.80 117.98 148.70 C 118.26 149.60 119.22 150.11 120.12 149.83 Z M 121.11 149.53 L 122.11 149.21 C 123.01 148.93 123.51 147.97 123.23 147.07 C 122.95 146.17 121.99 145.66 121.09 145.95 L 120.09 146.26 C 119.18 146.54 118.68 147.50 118.96 148.40 C 119.24 149.30 120.20 149.81 121.11 149.53 Z M 122.11 149.21 L 123.05 148.91 C 123.95 148.63 124.45 147.67 124.16 146.77 C 123.88 145.87 122.92 145.37 122.02 145.65 L 121.08 145.95 C 120.18 146.23 119.68 147.19 119.97 148.09 C 120.25 148.99 121.21 149.49 122.11 149.21 Z M 123.05 148.91 L 124.00 148.61 C 124.90 148.33 125.39 147.37 125.11 146.47 C 124.82 145.57 123.86 145.07 122.97 145.36 L 122.02 145.66 C 121.12 145.94 120.62 146.90 120.90 147.80 C 121.19 148.70 122.15 149.20 123.05 148.91 Z M 124.00 148.61 L 124.96 148.31 C 125.85 148.02 126.35 147.06 126.07 146.17 C 125.78 145.27 124.83 144.77 123.93 145.05 L 122.97 145.36 C 122.07 145.64 121.57 146.60 121.86 147.50 C 122.14 148.40 123.10 148.89 124.00 148.61 Z M 124.95 148.31 L 125.91 148.01 C 126.81 147.73 127.31 146.77 127.03 145.87 C 126.75 144.97 125.80 144.47 124.90 144.75 L 123.93 145.05 C 123.04 145.33 122.53 146.29 122.81 147.19 C 123.09 148.09 124.05 148.59 124.95 148.31 Z M 125.90 148.01 L 126.87 147.71 C 127.77 147.44 128.27 146.49 128.00 145.59 C 127.72 144.69 126.77 144.18 125.87 144.46 L 124.91 144.75 C 124.01 145.03 123.50 145.98 123.78 146.88 C 124.05 147.78 125.00 148.28 125.90 148.01 Z M 126.86 147.71 L 127.82 147.43 C 128.72 147.16 129.23 146.21 128.96 145.31 C 128.69 144.41 127.75 143.90 126.85 144.17 L 125.89 144.45 C 124.99 144.72 124.47 145.67 124.74 146.57 C 125.01 147.47 125.96 147.98 126.86 147.71 Z M 127.81 147.43 L 128.77 147.15 C 129.67 146.89 130.18 145.94 129.92 145.04 C 129.66 144.14 128.72 143.63 127.82 143.89 L 126.86 144.17 C 125.96 144.43 125.44 145.37 125.70 146.27 C 125.96 147.17 126.91 147.69 127.81 147.43 Z M 128.76 147.15 L 129.72 146.87 C 130.62 146.61 131.14 145.67 130.88 144.77 C 130.62 143.87 129.68 143.35 128.78 143.61 L 127.82 143.89 C 126.92 144.15 126.40 145.09 126.66 145.99 C 126.92 146.89 127.86 147.41 128.76 147.15 Z M 129.72 146.87 L 130.68 146.59 C 131.58 146.33 132.09 145.39 131.83 144.49 C 131.57 143.59 130.63 143.07 129.73 143.34 L 128.77 143.62 C 127.88 143.88 127.36 144.82 127.62 145.72 C 127.88 146.61 128.82 147.13 129.72 146.87 Z M 130.69 146.58 L 131.65 146.30 C 132.55 146.03 133.06 145.09 132.79 144.19 C 132.52 143.30 131.58 142.79 130.69 143.05 L 129.72 143.34 C 128.83 143.61 128.32 144.55 128.59 145.44 C 128.85 146.34 129.79 146.85 130.69 146.58 Z M 131.66 146.29 L 132.60 146.00 C 133.50 145.73 134.00 144.79 133.73 143.89 C 133.45 143.00 132.51 142.50 131.62 142.77 L 130.67 143.06 C 129.78 143.33 129.28 144.28 129.55 145.17 C 129.83 146.06 130.77 146.56 131.66 146.29 Z M 132.61 145.99 L 133.56 145.70 C 134.45 145.42 134.94 144.48 134.67 143.59 C 134.39 142.70 133.45 142.21 132.56 142.48 L 131.61 142.78 C 130.72 143.06 130.23 144.00 130.50 144.89 C 130.78 145.78 131.73 146.27 132.61 145.99 Z M 133.57 145.69 L 134.52 145.39 C 135.41 145.11 135.89 144.16 135.61 143.28 C 135.33 142.40 134.39 141.91 133.51 142.19 L 132.55 142.49 C 131.67 142.77 131.18 143.71 131.46 144.60 C 131.74 145.48 132.68 145.97 133.57 145.69 Z M 134.52 145.38 L 135.48 145.08 C 136.36 144.80 136.85 143.85 136.57 142.97 C 136.29 142.09 135.34 141.60 134.46 141.89 L 133.50 142.19 C 132.62 142.48 132.14 143.42 132.42 144.30 C 132.70 145.18 133.64 145.67 134.52 145.38 Z M 135.48 145.07 L 136.45 144.76 C 137.32 144.48 137.81 143.54 137.53 142.66 C 137.24 141.78 136.30 141.30 135.43 141.58 L 134.46 141.89 C 133.58 142.17 133.10 143.11 133.38 143.99 C 133.66 144.87 134.60 145.35 135.48 145.07 Z M 136.44 144.76 L 137.39 144.46 C 138.27 144.18 138.75 143.24 138.47 142.36 C 138.19 141.49 137.26 141.00 136.38 141.28 L 135.43 141.59 C 134.55 141.87 134.07 142.80 134.35 143.68 C 134.63 144.56 135.57 145.04 136.44 144.76 Z M 137.39 144.45 L 138.34 144.15 C 139.21 143.87 139.70 142.94 139.42 142.07 C 139.14 141.19 138.21 140.71 137.34 140.99 L 136.38 141.29 C 135.51 141.56 135.03 142.50 135.30 143.37 C 135.58 144.25 136.51 144.73 137.39 144.45 Z M 138.33 144.15 L 139.29 143.85 C 140.16 143.57 140.65 142.64 140.37 141.77 C 140.10 140.90 139.17 140.41 138.30 140.69 L 137.34 140.99 C 136.47 141.26 135.98 142.19 136.26 143.06 C 136.53 143.94 137.46 144.42 138.33 144.15 Z M 139.28 143.84 L 140.24 143.55 C 141.11 143.28 141.59 142.35 141.32 141.48 C 141.05 140.61 140.13 140.12 139.26 140.39 L 138.30 140.69 C 137.43 140.96 136.95 141.89 137.22 142.76 C 137.49 143.63 138.41 144.11 139.28 143.84 Z M 140.23 143.54 L 141.19 143.25 C 142.06 142.98 142.55 142.06 142.28 141.19 C 142.01 140.33 141.09 139.84 140.22 140.10 L 139.27 140.40 C 138.40 140.66 137.91 141.58 138.18 142.45 C 138.44 143.32 139.36 143.81 140.23 143.54 Z M 141.18 143.25 L 142.15 142.95 C 143.01 142.69 143.50 141.78 143.24 140.91 C 142.98 140.04 142.07 139.55 141.20 139.82 L 140.23 140.11 C 139.37 140.37 138.88 141.28 139.14 142.15 C 139.40 143.02 140.31 143.51 141.18 143.25 Z M 142.14 142.95 L 143.11 142.66 C 143.97 142.40 144.46 141.49 144.21 140.63 C 143.95 139.76 143.04 139.27 142.17 139.53 L 141.20 139.82 C 140.34 140.08 139.85 140.99 140.11 141.85 C 140.37 142.72 141.28 143.21 142.14 142.95 Z M 143.11 142.66 L 144.07 142.37 C 144.93 142.11 145.42 141.20 145.16 140.34 C 144.91 139.48 144.00 138.99 143.14 139.25 L 142.18 139.54 C 141.31 139.79 140.82 140.70 141.08 141.56 C 141.34 142.42 142.24 142.91 143.11 142.66 Z M 144.07 142.36 L 145.03 142.07 C 145.89 141.82 146.37 140.91 146.11 140.05 C 145.86 139.20 144.95 138.71 144.09 138.97 L 143.14 139.25 C 142.28 139.51 141.79 140.42 142.05 141.28 C 142.31 142.13 143.21 142.62 144.07 142.36 Z M 145.03 142.07 L 145.98 141.78 C 146.83 141.52 147.31 140.61 147.05 139.76 C 146.79 138.90 145.89 138.42 145.03 138.69 L 144.09 138.97 C 143.23 139.24 142.75 140.14 143.01 140.99 C 143.28 141.85 144.18 142.33 145.03 142.07 Z M 145.99 141.77 L 146.94 141.47 C 147.78 141.20 148.26 140.30 147.99 139.45 C 147.72 138.60 146.82 138.13 145.97 138.40 L 145.02 138.69 C 144.17 138.96 143.70 139.87 143.97 140.71 C 144.24 141.56 145.14 142.03 145.99 141.77 Z M 146.95 141.46 L 147.90 141.15 C 148.74 140.88 149.20 139.98 148.93 139.13 C 148.66 138.29 147.76 137.83 146.91 138.10 L 145.96 138.41 C 145.12 138.68 144.65 139.58 144.93 140.43 C 145.20 141.27 146.10 141.73 146.95 141.46 Z M 147.90 141.14 L 148.85 140.83 C 149.69 140.56 150.15 139.66 149.87 138.82 C 149.60 137.98 148.69 137.52 147.85 137.80 L 146.91 138.11 C 146.07 138.38 145.61 139.28 145.89 140.12 C 146.16 140.96 147.06 141.42 147.90 141.14 Z M 148.85 140.83 L 149.79 140.52 C 150.63 140.24 151.08 139.34 150.81 138.51 C 150.54 137.67 149.64 137.22 148.80 137.49 L 147.85 137.80 C 147.02 138.08 146.56 138.98 146.84 139.81 C 147.11 140.65 148.01 141.10 148.85 140.83 Z M 149.79 140.51 L 150.74 140.21 C 151.57 139.94 152.03 139.04 151.76 138.21 C 151.49 137.37 150.59 136.92 149.76 137.19 L 148.81 137.50 C 147.97 137.77 147.52 138.66 147.79 139.49 C 148.06 140.33 148.95 140.78 149.79 140.51 Z M 150.72 140.20 L 151.69 139.90 C 152.52 139.63 152.99 138.75 152.72 137.92 C 152.46 137.08 151.57 136.62 150.74 136.88 L 149.77 137.19 C 148.94 137.45 148.48 138.34 148.74 139.17 C 149.00 140.00 149.89 140.47 150.72 140.20 Z M 151.68 139.89 L 152.66 139.59 C 153.49 139.34 153.96 138.46 153.71 137.63 C 153.45 136.80 152.57 136.33 151.74 136.59 L 150.76 136.89 C 149.93 137.14 149.46 138.02 149.71 138.85 C 149.97 139.68 150.85 140.15 151.68 139.89 Z M 152.65 139.59 L 153.63 139.30 C 154.46 139.05 154.93 138.18 154.68 137.35 C 154.44 136.53 153.57 136.05 152.74 136.30 L 151.76 136.59 C 150.93 136.84 150.46 137.71 150.70 138.53 C 150.95 139.36 151.82 139.83 152.65 139.59 Z M 153.62 139.29 L 154.58 139.01 C 155.40 138.78 155.88 137.92 155.64 137.09 C 155.40 136.27 154.54 135.79 153.72 136.03 L 152.75 136.30 C 151.93 136.54 151.45 137.40 151.69 138.23 C 151.93 139.05 152.79 139.53 153.62 139.29 Z M 154.57 139.01 L 155.50 138.75 C 156.32 138.52 156.80 137.66 156.57 136.84 C 156.34 136.02 155.48 135.54 154.66 135.77 L 153.73 136.03 C 152.91 136.26 152.43 137.12 152.66 137.94 C 152.89 138.76 153.74 139.24 154.57 139.01 Z M 155.48 138.74 L 156.47 138.47 C 157.29 138.25 157.77 137.41 157.55 136.59 C 157.32 135.77 156.48 135.29 155.66 135.51 L 154.67 135.78 C 153.86 136.00 153.37 136.84 153.60 137.66 C 153.82 138.48 154.66 138.97 155.48 138.74 Z M 156.45 138.47 L 157.47 138.20 C 158.29 137.98 158.77 137.15 158.56 136.33 C 158.34 135.52 157.51 135.03 156.69 135.25 L 155.67 135.52 C 154.86 135.73 154.37 136.57 154.59 137.38 C 154.80 138.20 155.64 138.68 156.45 138.47 Z M 157.46 138.19 L 158.42 137.94 C 159.23 137.73 159.72 136.90 159.51 136.09 C 159.30 135.28 158.47 134.79 157.66 135.01 L 156.70 135.25 C 155.89 135.46 155.40 136.29 155.61 137.10 C 155.83 137.91 156.65 138.40 157.46 138.19 Z M 158.42 137.93 L 159.33 137.69 C 160.13 137.49 160.62 136.66 160.41 135.86 C 160.20 135.05 159.38 134.57 158.57 134.78 L 157.66 135.02 C 156.86 135.22 156.37 136.05 156.58 136.85 C 156.79 137.66 157.61 138.14 158.42 137.93 Z M 159.33 137.68 L 160.20 137.45 C 161.00 137.24 161.47 136.43 161.26 135.63 C 161.05 134.83 160.23 134.35 159.43 134.56 L 158.57 134.79 C 157.77 135.00 157.29 135.82 157.50 136.62 C 157.72 137.42 158.53 137.89 159.33 137.68 Z M 160.20 137.44 L 161.05 137.22 C 161.85 137.00 162.32 136.19 162.11 135.40 C 161.89 134.60 161.08 134.13 160.29 134.34 L 159.43 134.57 C 158.64 134.78 158.17 135.60 158.38 136.39 C 158.59 137.19 159.41 137.66 160.20 137.44 Z M 161.05 137.21 L 161.97 136.97 C 162.76 136.76 163.23 135.95 163.02 135.16 C 162.81 134.37 162.01 133.90 161.22 134.11 L 160.29 134.35 C 159.50 134.56 159.03 135.37 159.24 136.16 C 159.45 136.95 160.26 137.42 161.05 137.21 Z M 161.95 136.96 L 163.00 136.70 C 163.79 136.50 164.26 135.70 164.06 134.91 C 163.86 134.12 163.06 133.65 162.28 133.85 L 161.23 134.11 C 160.44 134.31 159.97 135.11 160.17 135.90 C 160.37 136.69 161.17 137.16 161.95 136.96 Z M 162.98 136.69 L 164.03 136.44 C 164.82 136.25 165.30 135.46 165.11 134.67 C 164.92 133.89 164.13 133.41 163.35 133.60 L 162.29 133.85 C 161.51 134.04 161.03 134.83 161.22 135.62 C 161.41 136.40 162.20 136.88 162.98 136.69 Z M 164.02 136.43 L 164.88 136.23 C 165.66 136.05 166.14 135.27 165.96 134.48 C 165.78 133.70 164.99 133.21 164.21 133.40 L 163.36 133.60 C 162.57 133.78 162.09 134.57 162.27 135.35 C 162.46 136.13 163.24 136.62 164.02 136.43 Z M 164.87 136.23 L 165.79 136.02 C 166.57 135.84 167.06 135.06 166.88 134.28 C 166.70 133.50 165.92 133.01 165.14 133.19 L 164.22 133.40 C 163.43 133.58 162.95 134.36 163.13 135.14 C 163.31 135.92 164.09 136.41 164.87 136.23 Z M 165.78 136.02 L 166.76 135.79 C 167.54 135.62 168.03 134.84 167.85 134.06 C 167.68 133.28 166.90 132.79 166.12 132.97 L 165.14 133.19 C 164.36 133.37 163.87 134.14 164.05 134.92 C 164.23 135.70 165.00 136.19 165.78 136.02 Z M 166.76 135.79 L 167.78 135.56 C 168.56 135.39 169.04 134.61 168.87 133.84 C 168.69 133.06 167.92 132.57 167.14 132.74 L 166.12 132.97 C 165.35 133.15 164.86 133.92 165.03 134.70 C 165.21 135.48 165.98 135.97 166.76 135.79 Z M 167.77 135.56 L 168.82 135.33 C 169.60 135.15 170.09 134.38 169.92 133.60 C 169.74 132.83 168.97 132.34 168.20 132.51 L 167.15 132.75 C 166.37 132.92 165.88 133.69 166.05 134.47 C 166.23 135.24 167.00 135.73 167.77 135.56 Z M 168.82 135.32 L 169.89 135.08 C 170.66 134.91 171.15 134.14 170.98 133.37 C 170.81 132.59 170.04 132.11 169.26 132.28 L 168.20 132.52 C 167.42 132.69 166.93 133.46 167.11 134.23 C 167.28 135.01 168.05 135.49 168.82 135.32 Z M 169.89 135.08 L 170.22 135.01 C 170.99 134.84 171.48 134.07 171.30 133.30 C 171.13 132.52 170.37 132.04 169.59 132.21 L 169.26 132.28 C 168.49 132.45 168.00 133.22 168.17 133.99 C 168.35 134.77 169.11 135.25 169.89 135.08 Z"
      fill="black"
      fill-rule="nonzero" /><path d="M 151.97 109.73 L 151.53 110.58 C 151.13 111.35 151.44 112.30 152.21 112.70 C 152.98 113.10 153.93 112.80 154.33 112.03 L 154.76 111.18 C 155.16 110.41 154.86 109.46 154.09 109.06 C 153.32 108.66 152.37 108.96 151.97 109.73 Z M 151.51 110.62 L 151.08 111.51 C 150.71 112.29 151.04 113.24 151.82 113.61 C 152.61 113.99 153.55 113.66 153.93 112.87 L 154.35 111.99 C 154.73 111.20 154.39 110.26 153.61 109.88 C 152.83 109.51 151.88 109.84 151.51 110.62 Z M 151.05 111.59 L 150.65 112.55 C 150.32 113.35 150.70 114.28 151.51 114.61 C 152.32 114.94 153.24 114.56 153.57 113.75 L 153.97 112.79 C 154.30 111.98 153.91 111.06 153.11 110.73 C 152.30 110.40 151.38 110.78 151.05 111.59 Z M 150.61 112.65 L 150.29 113.60 C 150.01 114.43 150.46 115.33 151.29 115.61 C 152.12 115.88 153.02 115.43 153.30 114.60 L 153.62 113.65 C 153.89 112.82 153.44 111.92 152.61 111.64 C 151.78 111.37 150.88 111.82 150.61 112.65 Z M 150.25 113.68 L 149.98 114.65 C 149.75 115.50 150.25 116.38 151.10 116.61 C 151.95 116.85 152.83 116.35 153.07 115.50 L 153.33 114.53 C 153.57 113.68 153.07 112.80 152.22 112.56 C 151.37 112.33 150.49 112.82 150.25 113.68 Z M 149.96 114.70 L 149.72 115.69 C 149.51 116.56 150.05 117.43 150.91 117.63 C 151.78 117.84 152.65 117.31 152.86 116.44 L 153.09 115.45 C 153.30 114.58 152.76 113.71 151.90 113.50 C 151.03 113.30 150.16 113.83 149.96 114.70 Z M 149.70 115.73 L 149.49 116.70 C 149.30 117.58 149.86 118.45 150.74 118.63 C 151.62 118.82 152.49 118.26 152.67 117.38 L 152.88 116.40 C 153.07 115.52 152.50 114.66 151.63 114.47 C 150.75 114.29 149.88 114.85 149.70 115.73 Z M 149.47 116.73 L 149.28 117.74 C 149.11 118.63 149.69 119.49 150.57 119.66 C 151.46 119.83 152.32 119.25 152.49 118.36 L 152.69 117.35 C 152.86 116.46 152.28 115.61 151.39 115.43 C 150.50 115.26 149.64 115.84 149.47 116.73 Z M 149.26 117.77 L 149.09 118.75 C 148.94 119.65 149.54 120.50 150.44 120.66 C 151.33 120.81 152.19 120.21 152.34 119.31 L 152.51 118.33 C 152.66 117.44 152.06 116.58 151.16 116.43 C 150.27 116.28 149.42 116.88 149.26 117.77 Z M 149.08 118.79 L 148.94 119.76 C 148.81 120.67 149.43 121.51 150.34 121.64 C 151.24 121.77 152.08 121.14 152.21 120.24 L 152.35 119.27 C 152.49 118.37 151.86 117.53 150.96 117.40 C 150.05 117.26 149.21 117.89 149.08 118.79 Z M 148.92 119.80 L 148.81 120.76 C 148.70 121.67 149.35 122.50 150.27 122.61 C 151.18 122.72 152.00 122.07 152.11 121.15 L 152.23 120.20 C 152.33 119.28 151.68 118.46 150.77 118.35 C 149.86 118.24 149.03 118.89 148.92 119.80 Z M 148.80 120.80 L 148.71 121.75 C 148.62 122.67 149.29 123.48 150.21 123.57 C 151.13 123.66 151.95 122.99 152.03 122.07 L 152.12 121.12 C 152.21 120.20 151.54 119.38 150.62 119.30 C 149.70 119.21 148.89 119.88 148.80 120.80 Z M 148.70 121.78 L 148.62 122.77 C 148.55 123.69 149.23 124.50 150.16 124.58 C 151.08 124.65 151.89 123.96 151.96 123.04 L 152.04 122.04 C 152.12 121.12 151.43 120.31 150.50 120.24 C 149.58 120.16 148.77 120.85 148.70 121.78 Z M 148.61 122.79 L 148.54 123.83 C 148.47 124.76 149.17 125.56 150.10 125.63 C 151.03 125.69 151.84 124.99 151.90 124.06 L 151.97 123.02 C 152.04 122.09 151.34 121.29 150.41 121.22 C 149.48 121.16 148.67 121.86 148.61 122.79 Z M 148.53 123.84 L 148.47 124.82 C 148.41 125.75 149.11 126.56 150.05 126.62 C 150.98 126.68 151.78 125.97 151.84 125.04 L 151.91 124.05 C 151.97 123.12 151.26 122.32 150.33 122.26 C 149.39 122.20 148.59 122.90 148.53 123.84 Z M 148.46 124.82 L 148.40 125.78 C 148.35 126.71 149.06 127.52 149.99 127.57 C 150.93 127.63 151.73 126.92 151.79 125.99 L 151.85 125.03 C 151.91 124.10 151.20 123.29 150.26 123.23 C 149.32 123.18 148.52 123.89 148.46 124.82 Z M 148.40 125.78 L 148.34 126.77 C 148.29 127.71 149.00 128.52 149.94 128.57 C 150.88 128.63 151.68 127.91 151.74 126.98 L 151.79 125.98 C 151.85 125.04 151.14 124.24 150.20 124.18 C 149.26 124.13 148.45 124.84 148.40 125.78 Z M 148.34 126.78 L 148.28 127.81 C 148.22 128.75 148.94 129.56 149.88 129.61 C 150.82 129.66 151.63 128.94 151.68 128.00 L 151.74 126.97 C 151.79 126.03 151.08 125.23 150.14 125.17 C 149.20 125.12 148.39 125.84 148.34 126.78 Z M 148.27 127.81 L 148.22 128.86 C 148.16 129.81 148.89 130.61 149.83 130.66 C 150.77 130.72 151.58 129.99 151.63 129.05 L 151.69 128.00 C 151.74 127.06 151.02 126.25 150.07 126.20 C 149.13 126.15 148.33 126.87 148.27 127.81 Z M 148.21 128.87 L 148.16 129.80 C 148.11 130.75 148.84 131.56 149.78 131.61 C 150.73 131.66 151.53 130.93 151.58 129.99 L 151.63 129.05 C 151.68 128.11 150.96 127.30 150.01 127.25 C 149.07 127.20 148.26 127.92 148.21 128.87 Z M 148.16 129.81 L 148.11 130.77 C 148.06 131.72 148.79 132.53 149.73 132.58 C 150.68 132.62 151.48 131.90 151.53 130.95 L 151.58 129.99 C 151.63 129.04 150.91 128.23 149.96 128.18 C 149.02 128.13 148.21 128.86 148.16 129.81 Z M 148.11 130.77 L 148.05 131.77 C 148.00 132.72 148.73 133.52 149.68 133.57 C 150.63 133.62 151.43 132.90 151.48 131.95 L 151.54 130.95 C 151.59 130.01 150.86 129.20 149.91 129.15 C 148.96 129.10 148.16 129.82 148.11 130.77 Z M 148.05 131.77 L 147.99 132.79 C 147.94 133.74 148.67 134.55 149.62 134.60 C 150.57 134.66 151.38 133.93 151.43 132.98 L 151.49 131.95 C 151.54 131.00 150.81 130.19 149.86 130.14 C 148.91 130.09 148.10 130.82 148.05 131.77 Z M 147.99 132.79 L 147.93 133.85 C 147.88 134.80 148.61 135.61 149.56 135.67 C 150.51 135.72 151.32 134.99 151.38 134.04 L 151.43 132.98 C 151.49 132.03 150.76 131.22 149.81 131.16 C 148.86 131.11 148.04 131.84 147.99 132.79 Z M 147.93 133.84 L 147.87 134.81 C 147.82 135.76 148.55 136.58 149.50 136.64 C 150.45 136.69 151.27 135.96 151.32 135.01 L 151.38 134.04 C 151.43 133.09 150.71 132.28 149.75 132.22 C 148.80 132.17 147.99 132.89 147.93 133.84 Z M 147.87 134.81 L 147.81 135.77 C 147.76 136.72 148.48 137.54 149.44 137.60 C 150.39 137.66 151.21 136.93 151.27 135.98 L 151.32 135.02 C 151.38 134.06 150.65 133.24 149.70 133.19 C 148.75 133.13 147.93 133.86 147.87 134.81 Z M 147.81 135.77 L 147.75 136.75 C 147.69 137.71 148.42 138.53 149.37 138.58 C 150.33 138.64 151.15 137.92 151.21 136.96 L 151.27 135.98 C 151.33 135.02 150.60 134.20 149.65 134.15 C 148.69 134.09 147.87 134.81 147.81 135.77 Z M 147.75 136.75 L 147.69 137.75 C 147.63 138.71 148.36 139.53 149.31 139.59 C 150.27 139.65 151.09 138.92 151.15 137.97 L 151.21 136.96 C 151.27 136.01 150.54 135.19 149.59 135.13 C 148.63 135.07 147.81 135.79 147.75 136.75 Z M 147.69 137.75 L 147.62 138.78 C 147.57 139.73 148.29 140.56 149.25 140.62 C 150.20 140.67 151.03 139.95 151.09 138.99 L 151.15 137.97 C 151.21 137.01 150.48 136.19 149.53 136.13 C 148.57 136.07 147.75 136.80 147.69 137.75 Z M 147.62 138.78 L 147.56 139.82 C 147.50 140.78 148.23 141.60 149.19 141.66 C 150.14 141.72 150.97 140.99 151.02 140.03 L 151.09 138.99 C 151.15 138.03 150.42 137.21 149.46 137.15 C 148.50 137.09 147.68 137.82 147.62 138.78 Z M 147.56 139.82 L 147.50 140.81 C 147.44 141.77 148.17 142.59 149.13 142.65 C 150.08 142.71 150.91 141.98 150.97 141.02 L 151.03 140.03 C 151.08 139.07 150.35 138.25 149.40 138.19 C 148.44 138.14 147.61 138.86 147.56 139.82 Z M 147.50 140.81 L 147.44 141.77 C 147.38 142.73 148.11 143.55 149.07 143.61 C 150.03 143.67 150.85 142.94 150.91 141.98 L 150.97 141.02 C 151.02 140.06 150.29 139.24 149.34 139.18 C 148.38 139.12 147.55 139.85 147.50 140.81 Z M 147.44 141.77 L 147.38 142.74 C 147.32 143.70 148.05 144.52 149.01 144.58 C 149.97 144.64 150.80 143.91 150.85 142.95 L 150.91 141.98 C 150.97 141.02 150.24 140.19 149.28 140.14 C 148.32 140.08 147.49 140.81 147.44 141.77 Z M 147.38 142.74 L 147.32 143.73 C 147.26 144.69 147.99 145.52 148.95 145.57 C 149.91 145.63 150.74 144.90 150.80 143.94 L 150.85 142.95 C 150.91 141.99 150.18 141.16 149.22 141.11 C 148.26 141.05 147.44 141.78 147.38 142.74 Z M 147.32 143.73 L 147.26 144.74 C 147.20 145.70 147.93 146.52 148.89 146.58 C 149.85 146.64 150.68 145.91 150.74 144.95 L 150.80 143.94 C 150.85 142.98 150.12 142.15 149.16 142.10 C 148.20 142.04 147.38 142.77 147.32 143.73 Z M 147.26 144.74 L 147.20 145.76 C 147.14 146.72 147.87 147.55 148.83 147.61 C 149.79 147.67 150.62 146.93 150.67 145.97 L 150.74 144.95 C 150.79 143.99 150.06 143.16 149.10 143.10 C 148.14 143.04 147.32 143.78 147.26 144.74 Z M 147.19 145.76 L 147.13 146.81 C 147.07 147.77 147.80 148.60 148.76 148.66 C 149.72 148.72 150.55 147.98 150.61 147.02 L 150.68 145.98 C 150.73 145.01 150.00 144.19 149.04 144.13 C 148.08 144.07 147.25 144.80 147.19 145.76 Z M 147.13 146.81 L 147.07 147.81 C 147.01 148.77 147.74 149.60 148.70 149.66 C 149.66 149.72 150.49 148.99 150.55 148.03 L 150.61 147.02 C 150.67 146.06 149.94 145.23 148.98 145.17 C 148.02 145.11 147.19 145.84 147.13 146.81 Z M 147.07 147.81 L 147.00 148.79 C 146.94 149.75 147.67 150.58 148.63 150.64 C 149.60 150.70 150.42 149.97 150.49 149.01 L 150.55 148.03 C 150.61 147.07 149.88 146.24 148.92 146.18 C 147.96 146.12 147.13 146.85 147.07 147.81 Z M 147.00 148.79 L 146.94 149.79 C 146.88 150.75 147.61 151.58 148.57 151.64 C 149.53 151.70 150.36 150.97 150.42 150.01 L 150.49 149.01 C 150.55 148.05 149.82 147.22 148.86 147.16 C 147.90 147.10 147.07 147.83 147.00 148.79 Z M 146.94 149.78 L 146.87 150.79 C 146.81 151.75 147.54 152.58 148.50 152.64 C 149.46 152.71 150.29 151.98 150.36 151.02 L 150.42 150.01 C 150.48 149.05 149.76 148.22 148.79 148.16 C 147.83 148.09 147.00 148.82 146.94 149.78 Z M 146.87 150.79 L 146.81 151.79 C 146.74 152.76 147.47 153.59 148.43 153.65 C 149.39 153.71 150.22 152.99 150.29 152.03 L 150.36 151.02 C 150.42 150.06 149.69 149.23 148.73 149.16 C 147.77 149.10 146.94 149.82 146.87 150.79 Z M 146.81 151.79 L 146.74 152.80 C 146.67 153.76 147.40 154.59 148.36 154.66 C 149.32 154.72 150.15 154.00 150.22 153.04 L 150.29 152.03 C 150.35 151.07 149.63 150.23 148.66 150.17 C 147.70 150.10 146.87 150.83 146.81 151.79 Z M 146.74 152.80 L 146.67 153.80 C 146.60 154.76 147.33 155.60 148.29 155.66 C 149.25 155.73 150.09 155.00 150.15 154.04 L 150.22 153.04 C 150.29 152.08 149.56 151.24 148.60 151.18 C 147.64 151.11 146.80 151.84 146.74 152.80 Z M 146.67 153.80 L 146.60 154.80 C 146.53 155.76 147.26 156.59 148.22 156.66 C 149.18 156.73 150.02 156.00 150.08 155.04 L 150.15 154.04 C 150.22 153.08 149.49 152.25 148.53 152.18 C 147.57 152.12 146.74 152.84 146.67 153.80 Z M 146.60 154.80 L 146.53 155.81 C 146.46 156.77 147.19 157.60 148.15 157.67 C 149.11 157.74 149.94 157.01 150.01 156.05 L 150.08 155.04 C 150.15 154.08 149.42 153.25 148.46 153.18 C 147.50 153.11 146.67 153.84 146.60 154.80 Z M 146.53 155.81 L 146.46 156.81 C 146.39 157.77 147.12 158.60 148.08 158.67 C 149.04 158.74 149.87 158.01 149.94 157.05 L 150.01 156.05 C 150.08 155.09 149.35 154.26 148.39 154.19 C 147.43 154.12 146.60 154.85 146.53 155.81 Z M 146.46 156.81 L 146.39 157.80 C 146.32 158.76 147.05 159.60 148.01 159.66 C 148.97 159.73 149.80 159.01 149.87 158.05 L 149.94 157.05 C 150.01 156.09 149.28 155.26 148.32 155.19 C 147.36 155.12 146.53 155.85 146.46 156.81 Z M 146.39 157.80 L 146.32 158.79 C 146.25 159.75 146.97 160.59 147.93 160.65 C 148.90 160.72 149.73 160.00 149.80 159.04 L 149.87 158.05 C 149.94 157.09 149.21 156.25 148.25 156.19 C 147.29 156.12 146.46 156.84 146.39 157.80 Z M 146.32 158.79 L 146.25 159.78 C 146.18 160.74 146.90 161.58 147.86 161.64 C 148.82 161.71 149.66 160.99 149.73 160.03 L 149.80 159.04 C 149.86 158.08 149.14 157.25 148.18 157.18 C 147.22 157.11 146.39 157.83 146.32 158.79 Z M 146.25 159.78 L 146.18 160.78 C 146.11 161.74 146.83 162.57 147.79 162.64 C 148.75 162.71 149.59 161.98 149.65 161.02 L 149.73 160.03 C 149.79 159.07 149.07 158.24 148.11 158.17 C 147.15 158.10 146.32 158.82 146.25 159.78 Z M 146.18 160.78 L 146.11 161.78 C 146.04 162.73 146.76 163.57 147.72 163.64 C 148.68 163.70 149.52 162.98 149.58 162.02 L 149.65 161.02 C 149.72 160.06 149.00 159.23 148.04 159.16 C 147.08 159.10 146.25 159.82 146.18 160.78 Z M 146.11 161.78 L 146.04 162.77 C 145.97 163.73 146.70 164.56 147.66 164.63 C 148.61 164.69 149.45 163.97 149.51 163.01 L 149.58 162.02 C 149.65 161.06 148.93 160.23 147.97 160.16 C 147.01 160.10 146.18 160.82 146.11 161.78 Z M 146.04 162.77 L 145.97 163.76 C 145.91 164.71 146.63 165.54 147.59 165.61 C 148.55 165.68 149.38 164.96 149.44 164.00 L 149.51 163.01 C 149.58 162.05 148.86 161.22 147.90 161.16 C 146.94 161.09 146.11 161.81 146.04 162.77 Z M 145.98 163.76 L 145.91 164.75 C 145.84 165.71 146.57 166.54 147.52 166.60 C 148.48 166.67 149.31 165.95 149.37 164.99 L 149.44 164.00 C 149.51 163.04 148.78 162.21 147.83 162.14 C 146.87 162.08 146.04 162.80 145.98 163.76 Z M 145.91 164.75 L 145.84 165.75 C 145.78 166.71 146.50 167.53 147.46 167.60 C 148.41 167.66 149.24 166.94 149.30 165.98 L 149.37 164.99 C 149.44 164.03 148.71 163.20 147.76 163.14 C 146.80 163.07 145.97 163.80 145.91 164.75 Z M 145.84 165.75 L 145.78 166.75 C 145.71 167.71 146.44 168.54 147.39 168.60 C 148.35 168.66 149.17 167.94 149.24 166.98 L 149.30 165.98 C 149.37 165.03 148.64 164.20 147.69 164.14 C 146.73 164.07 145.91 164.80 145.84 165.75 Z M 145.78 166.76 L 145.71 167.76 C 145.65 168.72 146.38 169.54 147.33 169.60 C 148.28 169.66 149.11 168.94 149.17 167.99 L 149.24 166.98 C 149.30 166.03 148.57 165.20 147.62 165.14 C 146.66 165.08 145.84 165.80 145.78 166.76 Z M 145.72 167.76 L 145.65 168.77 C 145.59 169.72 146.32 170.54 147.27 170.60 C 148.22 170.67 149.05 169.94 149.11 168.99 L 149.17 167.98 C 149.23 167.03 148.50 166.21 147.55 166.15 C 146.60 166.09 145.78 166.81 145.72 167.76 Z M 145.65 168.77 L 145.59 169.78 C 145.53 170.73 146.26 171.55 147.21 171.61 C 148.16 171.67 148.98 170.94 149.04 169.99 L 149.10 168.98 C 149.16 168.03 148.44 167.21 147.48 167.15 C 146.53 167.10 145.71 167.82 145.65 168.77 Z M 145.59 169.78 L 145.53 170.79 C 145.48 171.74 146.20 172.56 147.16 172.62 C 148.11 172.67 148.92 171.95 148.98 171.00 L 149.04 169.99 C 149.10 169.03 148.37 168.22 147.42 168.16 C 146.47 168.10 145.65 168.83 145.59 169.78 Z M 145.54 170.80 L 145.48 171.80 C 145.42 172.76 146.15 173.57 147.10 173.62 C 148.05 173.68 148.87 172.95 148.92 172.00 L 148.98 170.99 C 149.03 170.04 148.31 169.23 147.36 169.17 C 146.41 169.12 145.59 169.84 145.54 170.80 Z M 145.48 171.81 L 145.43 172.81 C 145.37 173.76 146.10 174.58 147.05 174.63 C 148.00 174.68 148.81 173.95 148.86 173.00 L 148.92 172.00 C 148.97 171.05 148.24 170.24 147.29 170.18 C 146.35 170.13 145.53 170.86 145.48 171.81 Z M 145.43 172.82 L 145.38 173.82 C 145.32 174.77 146.05 175.58 147.00 175.63 C 147.95 175.68 148.76 174.95 148.81 174.00 L 148.86 173.00 C 148.91 172.05 148.18 171.24 147.24 171.19 C 146.29 171.14 145.48 171.87 145.43 172.82 Z M 145.38 173.82 L 145.33 174.82 C 145.28 175.77 146.01 176.58 146.95 176.62 C 147.90 176.67 148.71 175.94 148.75 175.00 L 148.80 174.00 C 148.85 173.05 148.12 172.25 147.18 172.20 C 146.23 172.15 145.43 172.88 145.38 173.82 Z M 145.33 174.83 L 145.28 175.82 C 145.23 176.76 145.96 177.57 146.91 177.61 C 147.85 177.66 148.66 176.93 148.70 175.99 L 148.75 174.99 C 148.80 174.05 148.07 173.24 147.12 173.20 C 146.18 173.15 145.38 173.88 145.33 174.83 Z M 145.28 175.82 L 145.24 176.81 C 145.19 177.75 145.92 178.55 146.86 178.60 C 147.81 178.64 148.61 177.91 148.65 176.97 L 148.70 175.98 C 148.74 175.04 148.02 174.24 147.07 174.19 C 146.13 174.15 145.33 174.88 145.28 175.82 Z M 145.24 176.81 L 145.19 177.80 C 145.15 178.74 145.88 179.54 146.82 179.58 C 147.77 179.63 148.56 178.90 148.61 177.96 L 148.65 176.97 C 148.69 176.02 147.96 175.23 147.02 175.18 C 146.08 175.14 145.28 175.87 145.24 176.81 Z M 145.20 177.81 L 145.15 178.83 C 145.11 179.77 145.84 180.57 146.78 180.61 C 147.72 180.65 148.52 179.92 148.56 178.98 L 148.60 177.95 C 148.64 177.01 147.91 176.22 146.97 176.18 C 146.03 176.14 145.24 176.86 145.20 177.81 Z M 145.16 178.84 L 145.12 179.86 C 145.08 180.79 145.81 181.59 146.75 181.62 C 147.68 181.66 148.48 180.93 148.51 179.99 L 148.56 178.98 C 148.59 178.04 147.86 177.25 146.93 177.21 C 145.99 177.17 145.20 177.90 145.16 178.84 Z M 145.12 179.86 L 145.08 180.87 C 145.05 181.81 145.77 182.59 146.71 182.63 C 147.65 182.67 148.43 181.94 148.47 181.00 L 148.51 179.99 C 148.55 179.05 147.82 178.27 146.88 178.23 C 145.94 178.19 145.16 178.92 145.12 179.86 Z M 145.09 180.87 L 145.05 181.87 C 145.01 182.81 145.74 183.59 146.68 183.63 C 147.61 183.66 148.40 182.93 148.43 182.00 L 148.47 181.00 C 148.50 180.06 147.77 179.28 146.84 179.24 C 145.90 179.21 145.12 179.94 145.09 180.87 Z M 145.05 181.88 L 145.02 182.87 C 144.99 183.80 145.72 184.58 146.65 184.61 C 147.58 184.65 148.36 183.92 148.39 182.98 L 148.43 181.99 C 148.46 181.06 147.73 180.28 146.80 180.25 C 145.87 180.22 145.08 180.95 145.05 181.88 Z M 145.02 182.87 L 144.99 183.85 C 144.96 184.78 145.69 185.56 146.62 185.59 C 147.55 185.62 148.33 184.89 148.36 183.96 L 148.39 182.98 C 148.42 182.05 147.69 181.27 146.76 181.24 C 145.83 181.21 145.05 181.94 145.02 182.87 Z M 145.00 183.86 L 144.97 184.82 C 144.94 185.75 145.67 186.52 146.60 186.55 C 147.52 186.58 148.30 185.85 148.32 184.92 L 148.35 183.96 C 148.38 183.03 147.65 182.25 146.72 182.23 C 145.80 182.20 145.02 182.93 145.00 183.86 Z M 144.97 184.83 L 144.94 185.85 C 144.92 186.77 145.65 187.54 146.57 187.57 C 147.50 187.60 148.27 186.87 148.29 185.94 L 148.32 184.92 C 148.35 183.99 147.62 183.22 146.69 183.20 C 145.77 183.17 145.00 183.90 144.97 184.83 Z M 144.95 185.85 L 144.92 186.87 C 144.90 187.79 145.63 188.56 146.55 188.58 C 147.47 188.61 148.24 187.88 148.26 186.95 L 148.29 185.94 C 148.31 185.01 147.58 184.25 146.66 184.22 C 145.74 184.20 144.97 184.93 144.95 185.85 Z M 144.92 186.88 L 144.90 187.88 C 144.88 188.80 145.61 189.56 146.53 189.59 C 147.45 189.61 148.22 188.88 148.24 187.96 L 148.26 186.95 C 148.28 186.03 147.55 185.27 146.63 185.25 C 145.71 185.22 144.95 185.95 144.92 186.88 Z M 144.91 187.89 L 144.89 188.88 C 144.87 189.80 145.60 190.56 146.52 190.58 C 147.44 190.60 148.19 189.87 148.21 188.95 L 148.23 187.95 C 148.25 187.03 147.52 186.27 146.60 186.25 C 145.68 186.24 144.92 186.97 144.91 187.89 Z M 144.89 188.89 L 144.87 189.87 C 144.86 190.79 145.59 191.55 146.51 191.56 C 147.42 191.58 148.18 190.85 148.19 189.93 L 148.21 188.94 C 148.22 188.03 147.49 187.27 146.58 187.25 C 145.66 187.24 144.91 187.97 144.89 188.89 Z M 144.88 189.88 L 144.86 190.86 C 144.85 191.78 145.58 192.53 146.50 192.54 C 147.41 192.55 148.16 191.82 148.17 190.91 L 148.19 189.93 C 148.20 189.01 147.47 188.26 146.56 188.25 C 145.64 188.23 144.89 188.97 144.88 189.88 Z M 144.87 190.87 L 144.86 191.86 C 144.85 192.78 145.58 193.52 146.49 193.53 C 147.40 193.54 148.15 192.81 148.16 191.90 L 148.17 190.90 C 148.18 189.99 147.45 189.24 146.54 189.23 C 145.63 189.22 144.88 189.95 144.87 190.87 Z M 144.86 191.87 L 144.85 192.94 C 144.85 193.85 145.58 194.59 146.49 194.60 C 147.40 194.60 148.14 193.87 148.15 192.96 L 148.16 191.90 C 148.16 190.99 147.43 190.24 146.52 190.24 C 145.61 190.23 144.87 190.96 144.86 191.87 Z M 144.86 192.94 L 144.85 193.99 C 144.85 194.90 145.58 195.64 146.49 195.64 C 147.39 195.65 148.13 194.92 148.14 194.01 L 148.14 192.96 C 148.15 192.05 147.42 191.31 146.51 191.31 C 145.60 191.30 144.86 192.03 144.86 192.94 Z M 144.86 193.99 L 144.85 195.02 C 144.85 195.92 145.58 196.66 146.49 196.66 C 147.39 196.67 148.12 195.94 148.13 195.03 L 148.13 194.01 C 148.13 193.10 147.40 192.37 146.50 192.36 C 145.60 192.36 144.86 193.09 144.86 193.99 Z M 144.86 195.02 L 144.86 196.01 C 144.86 196.91 145.59 197.65 146.49 197.65 C 147.39 197.65 148.12 196.92 148.12 196.02 L 148.12 195.03 C 148.12 194.13 147.39 193.40 146.49 193.40 C 145.59 193.39 144.86 194.12 144.86 195.02 Z M 144.86 196.02 L 144.86 196.96 C 144.86 197.86 145.59 198.59 146.49 198.59 C 147.39 198.59 148.11 197.86 148.11 196.96 L 148.11 196.02 C 148.12 195.12 147.39 194.39 146.49 194.39 C 145.59 194.39 144.86 195.12 144.86 196.02 Z M 144.87 196.96 L 144.87 197.89 C 144.87 198.78 145.59 199.51 146.49 199.51 C 147.38 199.51 148.11 198.78 148.11 197.89 L 148.11 196.96 C 148.11 196.07 147.38 195.34 146.49 195.34 C 145.59 195.34 144.87 196.07 144.87 196.96 Z M 144.88 197.89 L 144.88 199.04 C 144.88 199.93 145.60 200.65 146.49 200.65 C 147.38 200.65 148.10 199.92 148.10 199.03 L 148.10 197.89 C 148.10 197.00 147.38 196.28 146.49 196.28 C 145.60 196.28 144.88 197.00 144.88 197.89 Z M 144.89 199.04 L 144.89 200.08 C 144.89 200.97 145.61 201.68 146.50 201.68 C 147.39 201.67 148.10 200.95 148.10 200.07 L 148.09 199.03 C 148.09 198.14 147.37 197.43 146.48 197.43 C 145.60 197.43 144.88 198.16 144.89 199.04 Z M 144.90 200.09 L 144.91 201.04 C 144.92 201.92 145.64 202.63 146.52 202.62 C 147.40 202.61 148.11 201.89 148.10 201.01 L 148.09 200.06 C 148.08 199.18 147.36 198.47 146.48 198.48 C 145.59 198.49 144.89 199.21 144.90 200.09 Z M 144.92 201.06 L 144.94 201.94 C 144.96 202.82 145.69 203.51 146.56 203.49 C 147.44 203.47 148.13 202.74 148.11 201.87 L 148.09 200.99 C 148.07 200.11 147.34 199.42 146.47 199.44 C 145.59 199.46 144.90 200.19 144.92 201.06 Z M 144.95 201.98 L 145.00 202.95 C 145.03 203.82 145.77 204.49 146.64 204.46 C 147.51 204.42 148.18 203.68 148.14 202.81 L 148.10 201.83 C 148.06 200.97 147.32 200.29 146.45 200.33 C 145.59 200.37 144.91 201.11 144.95 201.98 Z M 145.01 203.02 L 145.10 204.00 C 145.18 204.86 145.94 205.50 146.80 205.42 C 147.66 205.34 148.29 204.58 148.22 203.72 L 148.13 202.74 C 148.05 201.88 147.29 201.25 146.43 201.32 C 145.57 201.40 144.93 202.16 145.01 203.02 Z M 145.13 204.12 L 145.29 205.09 C 145.43 205.93 146.22 206.51 147.07 206.37 C 147.92 206.23 148.49 205.43 148.35 204.58 L 148.19 203.61 C 148.05 202.76 147.25 202.19 146.41 202.33 C 145.56 202.47 144.99 203.27 145.13 204.12 Z M 145.33 205.22 L 145.58 206.20 C 145.79 207.02 146.63 207.52 147.46 207.30 C 148.28 207.09 148.78 206.25 148.57 205.42 L 148.31 204.45 C 148.10 203.62 147.26 203.13 146.43 203.34 C 145.61 203.55 145.11 204.40 145.33 205.22 Z M 145.63 206.33 L 145.97 207.28 C 146.26 208.08 147.14 208.49 147.93 208.21 C 148.73 207.92 149.14 207.04 148.86 206.24 L 148.51 205.29 C 148.23 204.50 147.35 204.08 146.55 204.37 C 145.76 204.65 145.34 205.53 145.63 206.33 Z M 146.04 207.41 L 146.47 208.34 C 146.83 209.10 147.74 209.43 148.50 209.07 C 149.26 208.71 149.59 207.80 149.23 207.04 L 148.79 206.11 C 148.43 205.35 147.53 205.03 146.76 205.39 C 146.00 205.74 145.68 206.65 146.04 207.41 Z M 146.57 208.49 L 147.09 209.33 C 147.53 210.04 148.46 210.26 149.17 209.82 C 149.88 209.37 150.10 208.44 149.66 207.73 L 149.14 206.89 C 148.70 206.18 147.76 205.96 147.05 206.40 C 146.34 206.84 146.12 207.78 146.57 208.49 Z M 147.24 209.52 L 147.90 210.27 C 148.44 210.90 149.39 210.96 150.02 210.42 C 150.64 209.87 150.71 208.93 150.16 208.30 L 149.51 207.54 C 148.96 206.92 148.01 206.85 147.39 207.40 C 146.76 207.94 146.70 208.89 147.24 209.52 Z M 148.10 210.45 L 148.89 211.08 C 149.53 211.59 150.47 211.48 150.98 210.84 C 151.49 210.20 151.39 209.26 150.74 208.75 L 149.96 208.12 C 149.32 207.61 148.38 207.71 147.87 208.36 C 147.35 209.00 147.46 209.94 148.10 210.45 Z M 149.06 211.17 L 149.89 211.68 C 150.59 212.10 151.50 211.88 151.92 211.18 C 152.34 210.48 152.11 209.57 151.42 209.15 L 150.58 208.65 C 149.88 208.23 148.97 208.45 148.55 209.15 C 148.13 209.85 148.36 210.75 149.06 211.17 Z M 149.97 211.71 L 150.56 212.02 C 151.28 212.40 152.16 212.13 152.54 211.42 C 152.92 210.71 152.65 209.82 151.94 209.44 L 151.34 209.13 C 150.63 208.75 149.74 209.02 149.36 209.73 C 148.99 210.44 149.26 211.33 149.97 211.71 Z"
      fill="black"
      fill-rule="nonzero" /><path d="M 119.47 137.16 L 119.46 138.15 C 119.45 139.05 120.17 139.78 121.06 139.79 C 121.96 139.80 122.69 139.08 122.70 138.18 L 122.71 137.20 C 122.72 136.30 122.00 135.57 121.10 135.56 C 120.21 135.55 119.47 136.27 119.47 137.16 Z M 119.49 138.49 L 119.68 139.43 C 119.86 140.30 120.72 140.87 121.59 140.69 C 122.47 140.51 123.04 139.65 122.86 138.78 L 122.67 137.84 C 122.49 136.96 121.63 136.40 120.75 136.58 C 119.88 136.76 119.31 137.62 119.49 138.49 Z M 119.95 140.05 L 120.54 140.87 C 121.07 141.60 122.08 141.76 122.81 141.24 C 123.54 140.71 123.70 139.70 123.18 138.97 L 122.59 138.15 C 122.06 137.42 121.05 137.26 120.32 137.78 C 119.59 138.31 119.43 139.32 119.95 140.05 Z M 120.97 141.27 L 121.65 141.72 C 122.40 142.21 123.40 142.00 123.89 141.26 C 124.38 140.52 124.17 139.52 123.43 139.03 L 122.75 138.57 C 122.01 138.08 121.01 138.29 120.51 139.03 C 120.02 139.78 120.23 140.78 120.97 141.27 Z M 121.91 141.83 L 122.77 142.20 C 123.58 142.55 124.51 142.18 124.86 141.37 C 125.21 140.57 124.84 139.63 124.03 139.28 L 123.17 138.91 C 122.37 138.56 121.43 138.93 121.08 139.74 C 120.73 140.55 121.10 141.48 121.91 141.83 Z M 122.94 142.24 L 123.93 142.55 C 124.76 142.80 125.64 142.34 125.89 141.51 C 126.15 140.68 125.69 139.80 124.86 139.55 L 123.86 139.24 C 123.03 138.98 122.15 139.45 121.90 140.28 C 121.64 141.11 122.11 141.99 122.94 142.24 Z M 124.05 142.56 L 125.12 142.80 C 125.96 142.99 126.79 142.47 126.98 141.64 C 127.17 140.80 126.65 139.97 125.81 139.78 L 124.74 139.54 C 123.90 139.35 123.07 139.87 122.88 140.70 C 122.69 141.54 123.22 142.37 124.05 142.56 Z M 125.21 142.80 L 126.31 142.98 C 127.14 143.12 127.93 142.56 128.07 141.73 C 128.21 140.90 127.65 140.11 126.82 139.97 L 125.72 139.79 C 124.89 139.65 124.10 140.21 123.96 141.04 C 123.82 141.87 124.38 142.66 125.21 142.80 Z M 126.38 142.97 L 127.40 143.10 C 128.22 143.20 128.98 142.61 129.08 141.79 C 129.18 140.96 128.59 140.21 127.76 140.11 L 126.74 139.98 C 125.92 139.88 125.17 140.47 125.06 141.29 C 124.96 142.12 125.55 142.87 126.38 142.97 Z M 127.45 143.09 L 128.46 143.17 C 129.28 143.24 130.00 142.64 130.07 141.82 C 130.14 141.00 129.53 140.27 128.71 140.20 L 127.71 140.12 C 126.89 140.05 126.17 140.66 126.10 141.48 C 126.02 142.30 126.63 143.02 127.45 143.09 Z M 128.50 143.16 L 129.49 143.22 C 130.30 143.26 131.00 142.64 131.05 141.83 C 131.09 141.02 130.47 140.32 129.66 140.28 L 128.67 140.22 C 127.86 140.17 127.16 140.79 127.11 141.60 C 127.07 142.42 127.69 143.11 128.50 143.16 Z M 129.52 143.20 L 130.51 143.24 C 131.31 143.27 131.98 142.64 132.01 141.84 C 132.04 141.03 131.42 140.36 130.62 140.33 L 129.63 140.29 C 128.83 140.26 128.15 140.89 128.12 141.69 C 128.09 142.49 128.72 143.17 129.52 143.20 Z M 130.52 143.22 L 131.50 143.25 C 132.29 143.27 132.95 142.64 132.98 141.85 C 133.00 141.06 132.37 140.40 131.58 140.37 L 130.60 140.35 C 129.81 140.32 129.15 140.95 129.12 141.74 C 129.10 142.54 129.73 143.20 130.52 143.22 Z"
      fill="black"
      fill-rule="nonzero" /><path d="M 172.19 117.08 L 171.38 117.54 C 170.65 117.96 170.40 118.88 170.82 119.61 C 171.23 120.34 172.16 120.60 172.89 120.18 L 173.70 119.71 C 174.43 119.30 174.68 118.37 174.27 117.64 C 173.85 116.91 172.92 116.66 172.19 117.08 Z M 171.33 117.55 L 170.51 118.06 C 169.79 118.50 169.57 119.44 170.01 120.16 C 170.45 120.89 171.40 121.11 172.12 120.67 L 172.94 120.17 C 173.66 119.72 173.89 118.78 173.44 118.06 C 173.00 117.33 172.06 117.11 171.33 117.55 Z M 170.43 118.09 L 169.59 118.67 C 168.89 119.16 168.72 120.12 169.21 120.83 C 169.69 121.53 170.66 121.70 171.36 121.22 L 172.20 120.63 C 172.90 120.15 173.07 119.18 172.59 118.48 C 172.10 117.78 171.14 117.60 170.43 118.09 Z M 169.50 118.73 L 168.68 119.39 C 168.01 119.93 167.90 120.91 168.44 121.58 C 168.98 122.25 169.96 122.36 170.63 121.82 L 171.45 121.16 C 172.12 120.62 172.23 119.64 171.69 118.97 C 171.15 118.30 170.17 118.19 169.50 118.73 Z M 168.60 119.45 L 167.92 120.07 C 167.28 120.66 167.23 121.64 167.82 122.28 C 168.40 122.92 169.39 122.96 170.02 122.38 L 170.71 121.76 C 171.35 121.18 171.39 120.19 170.81 119.55 C 170.23 118.91 169.24 118.87 168.60 119.45 Z M 167.87 120.13 L 167.17 120.82 C 166.56 121.43 166.56 122.42 167.17 123.03 C 167.78 123.64 168.77 123.64 169.38 123.03 L 170.08 122.33 C 170.69 121.72 170.68 120.73 170.07 120.12 C 169.46 119.51 168.47 119.51 167.87 120.13 Z M 167.13 120.87 L 166.43 121.62 C 165.85 122.25 165.89 123.24 166.52 123.83 C 167.16 124.41 168.15 124.37 168.73 123.74 L 169.42 122.98 C 170.01 122.35 169.97 121.36 169.33 120.78 C 168.70 120.19 167.71 120.23 167.13 120.87 Z M 166.40 121.66 L 165.71 122.46 C 165.15 123.11 165.23 124.10 165.88 124.66 C 166.54 125.22 167.52 125.15 168.08 124.49 L 168.77 123.69 C 169.33 123.04 169.25 122.05 168.60 121.49 C 167.94 120.93 166.96 121.01 166.40 121.66 Z M 165.68 122.50 L 165.02 123.33 C 164.48 124.00 164.59 124.98 165.26 125.52 C 165.93 126.06 166.92 125.95 167.45 125.28 L 168.12 124.45 C 168.66 123.78 168.55 122.80 167.87 122.26 C 167.20 121.72 166.22 121.83 165.68 122.50 Z M 164.99 123.37 L 164.35 124.21 C 163.83 124.90 163.97 125.88 164.66 126.40 C 165.35 126.92 166.33 126.78 166.85 126.09 L 167.48 125.24 C 168.00 124.55 167.86 123.58 167.17 123.06 C 166.48 122.54 165.51 122.68 164.99 123.37 Z M 164.33 124.25 L 163.73 125.09 C 163.23 125.79 163.39 126.76 164.09 127.26 C 164.79 127.76 165.76 127.60 166.26 126.90 L 166.87 126.06 C 167.36 125.36 167.20 124.38 166.50 123.88 C 165.80 123.39 164.83 123.55 164.33 124.25 Z M 163.71 125.12 L 163.15 125.95 C 162.66 126.65 162.85 127.62 163.55 128.10 C 164.26 128.59 165.23 128.41 165.71 127.70 L 166.28 126.87 C 166.76 126.17 166.58 125.20 165.87 124.71 C 165.17 124.23 164.20 124.41 163.71 125.12 Z M 163.14 125.97 L 162.62 126.75 C 162.14 127.47 162.34 128.43 163.05 128.90 C 163.76 129.38 164.73 129.18 165.20 128.47 L 165.72 127.68 C 166.20 126.97 166.00 126.00 165.29 125.53 C 164.57 125.06 163.61 125.25 163.14 125.97 Z M 162.61 126.77 L 162.07 127.60 C 161.61 128.32 161.81 129.27 162.53 129.74 C 163.24 130.20 164.20 130.00 164.67 129.28 L 165.20 128.45 C 165.67 127.74 165.46 126.78 164.75 126.31 C 164.03 125.85 163.08 126.05 162.61 126.77 Z M 162.08 127.62 L 161.51 128.50 C 161.06 129.22 161.27 130.17 161.98 130.62 C 162.70 131.07 163.64 130.86 164.10 130.15 L 164.66 129.26 C 165.12 128.55 164.91 127.60 164.19 127.15 C 163.48 126.69 162.53 126.90 162.08 127.62 Z M 161.52 128.53 L 161.01 129.35 C 160.56 130.06 160.78 131.00 161.49 131.44 C 162.20 131.88 163.14 131.66 163.58 130.95 L 164.09 130.13 C 164.54 129.42 164.32 128.48 163.61 128.04 C 162.90 127.60 161.96 127.81 161.52 128.53 Z M 161.01 129.37 L 160.52 130.17 C 160.09 130.88 160.32 131.80 161.02 132.24 C 161.73 132.67 162.66 132.44 163.09 131.73 L 163.58 130.93 C 164.01 130.22 163.78 129.30 163.07 128.87 C 162.37 128.44 161.44 128.66 161.01 129.37 Z M 160.53 130.19 L 160.04 131.02 C 159.61 131.72 159.84 132.63 160.55 133.05 C 161.25 133.48 162.17 133.25 162.59 132.54 L 163.08 131.72 C 163.50 131.01 163.27 130.10 162.57 129.68 C 161.86 129.26 160.95 129.49 160.53 130.19 Z M 160.04 131.02 L 159.54 131.87 C 159.12 132.57 159.35 133.48 160.05 133.90 C 160.75 134.32 161.66 134.09 162.07 133.38 L 162.58 132.53 C 163.00 131.83 162.77 130.93 162.07 130.51 C 161.37 130.09 160.46 130.32 160.04 131.02 Z M 159.55 131.87 L 159.03 132.74 C 158.61 133.43 158.83 134.33 159.53 134.75 C 160.22 135.17 161.12 134.95 161.54 134.25 L 162.06 133.39 C 162.48 132.69 162.26 131.79 161.56 131.37 C 160.87 130.95 159.97 131.18 159.55 131.87 Z M 159.04 132.73 L 158.51 133.60 C 158.08 134.28 158.30 135.18 158.98 135.60 C 159.67 136.03 160.57 135.81 160.99 135.13 L 161.52 134.26 C 161.95 133.58 161.73 132.68 161.05 132.25 C 160.36 131.83 159.47 132.04 159.04 132.73 Z M 158.52 133.58 L 158.00 134.40 C 157.57 135.08 157.77 135.97 158.45 136.40 C 159.13 136.83 160.02 136.63 160.45 135.96 L 160.97 135.14 C 161.40 134.46 161.20 133.57 160.53 133.14 C 159.85 132.71 158.95 132.91 158.52 133.58 Z M 158.01 134.40 L 157.48 135.23 C 157.05 135.90 157.24 136.79 157.91 137.22 C 158.58 137.66 159.48 137.46 159.91 136.79 L 160.44 135.96 C 160.88 135.29 160.68 134.40 160.01 133.96 C 159.34 133.53 158.45 133.73 158.01 134.40 Z M 157.48 135.23 L 156.94 136.09 C 156.51 136.76 156.70 137.65 157.37 138.07 C 158.04 138.50 158.93 138.31 159.36 137.64 L 159.91 136.79 C 160.33 136.12 160.14 135.23 159.47 134.80 C 158.80 134.37 157.91 134.56 157.48 135.23 Z M 156.93 136.10 L 156.38 136.98 C 155.96 137.65 156.17 138.53 156.84 138.95 C 157.51 139.37 158.39 139.17 158.81 138.50 L 159.36 137.63 C 159.78 136.95 159.58 136.07 158.91 135.65 C 158.24 135.23 157.35 135.43 156.93 136.10 Z M 156.38 136.99 L 155.85 137.85 C 155.44 138.52 155.65 139.40 156.33 139.81 C 157.00 140.23 157.88 140.01 158.29 139.34 L 158.82 138.48 C 159.23 137.81 159.02 136.93 158.34 136.52 C 157.67 136.10 156.79 136.32 156.38 136.99 Z M 155.85 137.86 L 155.33 138.73 C 154.92 139.41 155.14 140.28 155.82 140.69 C 156.49 141.10 157.37 140.88 157.78 140.20 L 158.30 139.33 C 158.71 138.65 158.49 137.78 157.81 137.37 C 157.13 136.96 156.26 137.18 155.85 137.86 Z M 155.33 138.74 L 154.81 139.60 C 154.41 140.28 154.63 141.15 155.31 141.56 C 155.99 141.96 156.86 141.74 157.26 141.06 L 157.78 140.19 C 158.18 139.52 157.96 138.64 157.28 138.24 C 156.60 137.84 155.73 138.06 155.33 138.74 Z M 154.81 139.60 L 154.31 140.44 C 153.91 141.12 154.13 141.99 154.81 142.40 C 155.49 142.80 156.36 142.58 156.76 141.90 L 157.26 141.06 C 157.67 140.38 157.44 139.51 156.77 139.10 C 156.09 138.70 155.21 138.92 154.81 139.60 Z M 154.32 140.44 L 153.78 141.34 C 153.37 142.01 153.59 142.89 154.27 143.29 C 154.94 143.70 155.82 143.48 156.22 142.80 L 156.76 141.90 C 157.16 141.23 156.95 140.35 156.27 139.95 C 155.59 139.54 154.72 139.76 154.32 140.44 Z M 153.78 141.33 L 153.26 142.19 C 152.85 142.87 153.07 143.74 153.74 144.15 C 154.42 144.56 155.29 144.34 155.70 143.67 L 156.22 142.81 C 156.63 142.13 156.41 141.26 155.74 140.85 C 155.06 140.44 154.19 140.66 153.78 141.33 Z M 153.26 142.19 L 152.76 143.02 C 152.35 143.69 152.56 144.57 153.24 144.98 C 153.91 145.39 154.78 145.17 155.19 144.50 L 155.70 143.67 C 156.11 143.00 155.89 142.12 155.22 141.71 C 154.55 141.30 153.67 141.52 153.26 142.19 Z M 152.76 143.02 L 152.41 143.58 C 152.01 144.26 152.22 145.13 152.89 145.54 C 153.56 145.95 154.44 145.74 154.85 145.06 L 155.19 144.50 C 155.60 143.83 155.39 142.95 154.72 142.54 C 154.04 142.13 153.17 142.35 152.76 143.02 Z"
      fill="black"
      fill-rule="nonzero" /><path d="M 145.72 146.39 L 145.06 147.07 C 144.45 147.72 144.47 148.74 145.12 149.35 C 145.76 149.97 146.79 149.94 147.40 149.30 L 148.05 148.61 C 148.67 147.97 148.64 146.94 148.00 146.33 C 147.35 145.71 146.33 145.74 145.72 146.39 Z M 145.02 147.07 L 144.37 147.78 C 143.75 148.45 143.80 149.49 144.47 150.11 C 145.14 150.72 146.18 150.68 146.80 150.01 L 147.45 149.30 C 148.06 148.63 148.02 147.59 147.35 146.97 C 146.68 146.36 145.63 146.40 145.02 147.07 Z M 144.30 147.80 L 143.66 148.55 C 143.05 149.26 143.14 150.32 143.84 150.92 C 144.55 151.53 145.61 151.45 146.21 150.74 L 146.86 149.99 C 147.46 149.28 147.38 148.22 146.68 147.62 C 145.97 147.01 144.91 147.09 144.30 147.80 Z M 143.58 148.59 L 142.94 149.41 C 142.36 150.16 142.50 151.24 143.25 151.82 C 143.99 152.40 145.07 152.27 145.65 151.52 L 146.29 150.70 C 146.87 149.95 146.74 148.87 145.99 148.29 C 145.24 147.71 144.16 147.84 143.58 148.59 Z M 142.86 149.47 L 142.27 150.33 C 141.72 151.12 141.92 152.21 142.71 152.76 C 143.50 153.30 144.59 153.11 145.14 152.32 L 145.73 151.46 C 146.28 150.67 146.08 149.58 145.29 149.03 C 144.50 148.48 143.41 148.68 142.86 149.47 Z M 142.22 150.39 L 141.70 151.23 C 141.18 152.05 141.43 153.13 142.26 153.64 C 143.08 154.16 144.16 153.91 144.67 153.08 L 145.19 152.25 C 145.71 151.43 145.46 150.35 144.63 149.83 C 143.81 149.32 142.73 149.57 142.22 150.39 Z M 141.67 151.27 L 141.16 152.15 C 140.67 152.99 140.96 154.06 141.79 154.55 C 142.63 155.04 143.71 154.75 144.19 153.91 L 144.70 153.04 C 145.19 152.20 144.91 151.12 144.07 150.64 C 143.23 150.15 142.15 150.44 141.67 151.27 Z M 141.14 152.18 L 140.64 153.08 C 140.17 153.93 140.48 154.99 141.33 155.46 C 142.18 155.93 143.25 155.63 143.72 154.78 L 144.21 153.88 C 144.68 153.03 144.38 151.97 143.53 151.50 C 142.68 151.03 141.61 151.33 141.14 152.18 Z M 140.63 153.09 L 140.15 153.99 C 139.69 154.84 140.01 155.91 140.86 156.37 C 141.72 156.83 142.78 156.51 143.24 155.66 L 143.72 154.76 C 144.19 153.91 143.87 152.84 143.01 152.38 C 142.16 151.92 141.10 152.24 140.63 153.09 Z M 140.15 153.99 L 139.68 154.86 C 139.22 155.71 139.54 156.78 140.40 157.24 C 141.25 157.70 142.32 157.38 142.78 156.52 L 143.24 155.65 C 143.70 154.80 143.38 153.73 142.53 153.28 C 141.67 152.82 140.61 153.14 140.15 153.99 Z M 139.69 154.85 L 139.19 155.77 C 138.72 156.62 139.03 157.68 139.88 158.15 C 140.73 158.62 141.80 158.30 142.27 157.45 L 142.77 156.53 C 143.24 155.68 142.92 154.62 142.07 154.15 C 141.22 153.69 140.16 154.00 139.69 154.85 Z M 139.20 155.75 L 138.70 156.64 C 138.22 157.48 138.53 158.55 139.37 159.03 C 140.22 159.50 141.28 159.20 141.76 158.36 L 142.26 157.47 C 142.73 156.62 142.43 155.55 141.58 155.08 C 140.74 154.61 139.67 154.91 139.20 155.75 Z M 138.71 156.63 L 138.22 157.48 C 137.74 158.32 138.03 159.39 138.87 159.87 C 139.71 160.35 140.78 160.06 141.26 159.22 L 141.75 158.37 C 142.23 157.53 141.94 156.46 141.10 155.98 C 140.26 155.50 139.19 155.79 138.71 156.63 Z M 138.23 157.47 L 137.74 158.31 C 137.26 159.15 137.54 160.22 138.38 160.71 C 139.22 161.19 140.29 160.90 140.77 160.07 L 141.26 159.23 C 141.74 158.39 141.45 157.32 140.62 156.84 C 139.78 156.35 138.71 156.64 138.23 157.47 Z M 137.74 158.31 L 137.25 159.15 C 136.77 159.99 137.05 161.06 137.89 161.54 C 138.72 162.03 139.79 161.75 140.28 160.91 L 140.77 160.07 C 141.25 159.23 140.97 158.16 140.13 157.68 C 139.30 157.19 138.23 157.48 137.74 158.31 Z M 137.26 159.16 L 136.79 159.96 C 136.30 160.80 136.59 161.87 137.42 162.35 C 138.25 162.84 139.32 162.55 139.81 161.72 L 140.28 160.91 C 140.76 160.07 140.48 159.01 139.64 158.52 C 138.81 158.04 137.74 158.32 137.26 159.16 Z M 136.79 159.97 L 136.31 160.80 C 135.82 161.63 136.11 162.70 136.94 163.18 C 137.77 163.66 138.84 163.38 139.32 162.55 L 139.80 161.72 C 140.29 160.88 140.01 159.82 139.17 159.33 C 138.34 158.85 137.27 159.13 136.79 159.97 Z M 136.31 160.79 L 135.81 161.65 C 135.32 162.48 135.60 163.55 136.43 164.03 C 137.26 164.52 138.33 164.24 138.82 163.41 L 139.32 162.55 C 139.80 161.72 139.52 160.65 138.69 160.17 C 137.86 159.68 136.80 159.96 136.31 160.79 Z M 135.82 161.65 L 135.29 162.53 C 134.81 163.36 135.08 164.43 135.91 164.91 C 136.73 165.40 137.80 165.13 138.29 164.30 L 138.81 163.41 C 139.30 162.59 139.02 161.52 138.20 161.03 C 137.37 160.55 136.30 160.82 135.82 161.65 Z M 135.30 162.53 L 134.75 163.45 C 134.26 164.27 134.53 165.33 135.35 165.82 C 136.17 166.32 137.24 166.05 137.73 165.22 L 138.28 164.31 C 138.77 163.48 138.50 162.42 137.68 161.93 C 136.86 161.44 135.79 161.70 135.30 162.53 Z M 134.76 163.44 L 134.27 164.25 C 133.77 165.07 134.04 166.13 134.85 166.63 C 135.67 167.12 136.74 166.86 137.23 166.04 L 137.72 165.23 C 138.22 164.41 137.96 163.35 137.14 162.85 C 136.32 162.36 135.26 162.62 134.76 163.44 Z M 134.28 164.24 L 133.78 165.05 C 133.28 165.87 133.54 166.93 134.35 167.43 C 135.16 167.93 136.22 167.67 136.72 166.86 L 137.22 166.05 C 137.72 165.24 137.47 164.17 136.66 163.67 C 135.84 163.17 134.78 163.43 134.28 164.24 Z M 133.79 165.05 L 133.27 165.88 C 132.77 166.69 133.01 167.75 133.82 168.25 C 134.63 168.76 135.69 168.51 136.19 167.70 L 136.71 166.87 C 137.22 166.06 136.97 165.00 136.16 164.50 C 135.36 163.99 134.29 164.24 133.79 165.05 Z M 133.28 165.87 L 132.74 166.72 C 132.23 167.52 132.47 168.59 133.27 169.09 C 134.07 169.60 135.13 169.36 135.64 168.56 L 136.18 167.71 C 136.69 166.91 136.45 165.85 135.65 165.34 C 134.85 164.83 133.79 165.07 133.28 165.87 Z M 132.75 166.71 L 132.19 167.59 C 131.68 168.38 131.91 169.44 132.70 169.95 C 133.50 170.47 134.56 170.24 135.07 169.44 L 135.63 168.57 C 136.15 167.78 135.92 166.72 135.12 166.20 C 134.32 165.69 133.26 165.92 132.75 166.71 Z M 132.20 167.58 L 131.62 168.46 C 131.10 169.25 131.32 170.31 132.11 170.83 C 132.90 171.35 133.96 171.13 134.48 170.34 L 135.06 169.45 C 135.58 168.66 135.36 167.60 134.57 167.08 C 133.78 166.57 132.72 166.79 132.20 167.58 Z M 131.63 168.45 L 131.08 169.27 C 130.56 170.06 130.77 171.12 131.55 171.64 C 132.33 172.16 133.39 171.95 133.92 171.17 L 134.47 170.35 C 134.99 169.57 134.78 168.51 134.00 167.98 C 133.21 167.46 132.15 167.67 131.63 168.45 Z M 131.09 169.27 L 130.55 170.06 C 130.03 170.84 130.23 171.90 131.00 172.42 C 131.78 172.95 132.84 172.75 133.37 171.97 L 133.91 171.18 C 134.43 170.40 134.23 169.34 133.45 168.81 C 132.68 168.29 131.62 168.49 131.09 169.27 Z M 130.56 170.06 L 130.01 170.86 C 129.48 171.63 129.67 172.69 130.44 173.22 C 131.21 173.75 132.27 173.55 132.80 172.78 L 133.36 171.98 C 133.89 171.21 133.69 170.15 132.92 169.62 C 132.15 169.09 131.09 169.28 130.56 170.06 Z M 130.02 170.86 L 129.45 171.67 C 128.92 172.44 129.10 173.49 129.87 174.03 C 130.64 174.56 131.69 174.37 132.22 173.60 L 132.79 172.79 C 133.32 172.02 133.14 170.97 132.37 170.44 C 131.60 169.90 130.55 170.09 130.02 170.86 Z M 129.46 171.67 L 128.88 172.50 C 128.34 173.26 128.52 174.31 129.29 174.84 C 130.05 175.38 131.10 175.20 131.63 174.44 L 132.21 173.61 C 132.75 172.85 132.57 171.80 131.80 171.26 C 131.04 170.73 129.99 170.91 129.46 171.67 Z M 128.88 172.50 L 128.29 173.33 C 127.75 174.09 127.93 175.14 128.69 175.67 C 129.45 176.21 130.49 176.03 131.03 175.28 L 131.62 174.44 C 132.16 173.68 131.98 172.63 131.23 172.10 C 130.47 171.56 129.42 171.74 128.88 172.50 Z M 128.30 173.33 L 127.69 174.18 C 127.16 174.93 127.33 175.98 128.08 176.51 C 128.84 177.05 129.88 176.88 130.42 176.12 L 131.02 175.28 C 131.56 174.52 131.39 173.48 130.63 172.94 C 129.88 172.40 128.84 172.58 128.30 173.33 Z M 127.70 174.18 L 127.11 175.00 C 126.58 175.74 126.75 176.79 127.50 177.32 C 128.25 177.86 129.29 177.69 129.83 176.94 L 130.41 176.13 C 130.95 175.38 130.78 174.33 130.03 173.80 C 129.28 173.26 128.24 173.43 127.70 174.18 Z M 127.12 175.00 L 126.55 175.79 C 126.01 176.54 126.18 177.58 126.92 178.11 C 127.67 178.65 128.71 178.48 129.24 177.74 L 129.82 176.94 C 130.36 176.20 130.19 175.16 129.44 174.62 C 128.70 174.08 127.66 174.25 127.12 175.00 Z M 126.55 175.79 L 125.97 176.59 C 125.44 177.34 125.60 178.37 126.34 178.91 C 127.08 179.45 128.12 179.28 128.66 178.54 L 129.24 177.74 C 129.77 177.00 129.61 175.96 128.87 175.42 C 128.13 174.89 127.09 175.05 126.55 175.79 Z M 125.98 176.60 L 125.39 177.40 C 124.85 178.14 125.02 179.17 125.75 179.71 C 126.49 180.25 127.52 180.08 128.06 179.35 L 128.65 178.54 C 129.19 177.80 129.02 176.77 128.29 176.23 C 127.55 175.70 126.52 175.86 125.98 176.60 Z M 125.40 177.40 L 124.80 178.21 C 124.27 178.95 124.43 179.98 125.16 180.51 C 125.89 181.05 126.92 180.89 127.46 180.16 L 128.05 179.35 C 128.59 178.61 128.43 177.58 127.70 177.05 C 126.96 176.51 125.93 176.67 125.40 177.40 Z M 124.81 178.21 L 124.21 179.03 C 123.68 179.76 123.83 180.78 124.56 181.32 C 125.29 181.86 126.32 181.70 126.86 180.97 L 127.45 180.16 C 127.99 179.43 127.83 178.40 127.10 177.86 C 126.37 177.33 125.35 177.48 124.81 178.21 Z M 124.22 179.03 L 123.62 179.84 C 123.08 180.57 123.23 181.59 123.96 182.13 C 124.68 182.67 125.71 182.51 126.25 181.79 L 126.85 180.97 C 127.38 180.25 127.23 179.22 126.51 178.69 C 125.78 178.15 124.76 178.30 124.22 179.03 Z M 123.62 179.84 L 123.02 180.66 C 122.48 181.38 122.63 182.40 123.35 182.93 C 124.07 183.47 125.09 183.32 125.63 182.60 L 126.24 181.79 C 126.77 181.07 126.63 180.04 125.90 179.51 C 125.18 178.97 124.16 179.12 123.62 179.84 Z M 123.03 180.66 L 122.43 181.46 C 121.89 182.17 122.03 183.19 122.75 183.73 C 123.47 184.27 124.49 184.12 125.02 183.40 L 125.62 182.60 C 126.16 181.88 126.02 180.87 125.30 180.33 C 124.58 179.79 123.56 179.94 123.03 180.66 Z M 122.43 181.46 L 121.83 182.25 C 121.29 182.97 121.44 183.98 122.15 184.52 C 122.86 185.06 123.88 184.91 124.41 184.20 L 125.02 183.40 C 125.55 182.69 125.41 181.68 124.70 181.14 C 123.99 180.60 122.97 180.74 122.43 181.46 Z M 121.84 182.25 L 121.24 183.05 C 120.70 183.76 120.84 184.77 121.54 185.31 C 122.25 185.84 123.26 185.71 123.80 185.00 L 124.41 184.20 C 124.94 183.49 124.81 182.48 124.10 181.95 C 123.39 181.41 122.38 181.55 121.84 182.25 Z M 121.24 183.05 L 120.64 183.84 C 120.10 184.55 120.23 185.55 120.94 186.09 C 121.64 186.63 122.65 186.50 123.19 185.79 L 123.79 185.00 C 124.33 184.30 124.20 183.29 123.49 182.75 C 122.79 182.21 121.78 182.34 121.24 183.05 Z M 120.65 183.84 L 120.03 184.63 C 119.50 185.33 119.63 186.34 120.32 186.87 C 121.02 187.41 122.03 187.28 122.57 186.59 L 123.18 185.79 C 123.72 185.09 123.59 184.09 122.89 183.55 C 122.19 183.01 121.18 183.14 120.65 183.84 Z M 120.04 184.63 L 119.43 185.42 C 118.89 186.11 119.01 187.12 119.71 187.66 C 120.40 188.20 121.40 188.07 121.94 187.38 L 122.56 186.59 C 123.10 185.89 122.97 184.89 122.28 184.35 C 121.58 183.81 120.58 183.94 120.04 184.63 Z M 119.44 185.42 L 118.82 186.21 C 118.28 186.90 118.40 187.89 119.09 188.43 C 119.78 188.97 120.78 188.85 121.32 188.17 L 121.93 187.38 C 122.48 186.69 122.36 185.69 121.67 185.15 C 120.98 184.61 119.98 184.73 119.44 185.42 Z M 118.83 186.20 L 118.21 186.99 C 117.67 187.67 117.78 188.67 118.47 189.21 C 119.15 189.75 120.14 189.64 120.69 188.95 L 121.31 188.17 C 121.85 187.48 121.73 186.49 121.05 185.95 C 120.37 185.40 119.37 185.52 118.83 186.20 Z M 118.22 186.99 L 117.56 187.81 C 117.02 188.49 117.13 189.48 117.81 190.02 C 118.49 190.56 119.48 190.45 120.02 189.78 L 120.68 188.95 C 121.22 188.28 121.11 187.28 120.43 186.74 C 119.75 186.20 118.76 186.31 118.22 186.99 Z M 117.57 187.81 L 116.91 188.62 C 116.37 189.30 116.47 190.28 117.15 190.83 C 117.82 191.37 118.81 191.26 119.35 190.59 L 120.01 189.78 C 120.55 189.10 120.45 188.12 119.77 187.57 C 119.10 187.03 118.11 187.13 117.57 187.81 Z M 116.92 188.62 L 116.27 189.42 C 115.72 190.09 115.83 191.08 116.49 191.62 C 117.16 192.16 118.14 192.06 118.69 191.39 L 119.34 190.59 C 119.89 189.92 119.79 188.94 119.12 188.40 C 118.45 187.85 117.47 187.95 116.92 188.62 Z M 116.28 189.42 L 115.63 190.21 C 115.09 190.87 115.18 191.85 115.85 192.40 C 116.51 192.94 117.49 192.85 118.03 192.18 L 118.68 191.40 C 119.22 190.73 119.13 189.75 118.46 189.21 C 117.80 188.66 116.82 188.76 116.28 189.42 Z M 115.64 190.21 L 115.01 190.98 C 114.46 191.64 114.55 192.61 115.21 193.16 C 115.87 193.70 116.85 193.61 117.39 192.95 L 118.02 192.18 C 118.57 191.52 118.48 190.55 117.82 190.01 C 117.16 189.46 116.19 189.55 115.64 190.21 Z M 115.02 190.98 L 114.40 191.72 C 113.85 192.37 113.94 193.35 114.59 193.89 C 115.25 194.43 116.22 194.35 116.76 193.69 L 117.38 192.95 C 117.93 192.30 117.84 191.33 117.18 190.78 C 116.53 190.24 115.56 190.33 115.02 190.98 Z M 114.41 191.72 L 113.81 192.43 C 113.26 193.08 113.35 194.05 114.00 194.59 C 114.65 195.14 115.61 195.05 116.16 194.40 L 116.75 193.69 C 117.30 193.04 117.21 192.08 116.57 191.53 C 115.92 190.99 114.95 191.07 114.41 191.72 Z M 113.82 192.44 L 113.14 193.23 C 112.60 193.88 112.68 194.84 113.32 195.38 C 113.97 195.93 114.93 195.85 115.47 195.20 L 116.15 194.40 C 116.69 193.76 116.61 192.80 115.97 192.25 C 115.32 191.71 114.36 191.79 113.82 192.44 Z M 113.15 193.23 L 112.43 194.08 C 111.89 194.72 111.96 195.67 112.60 196.22 C 113.24 196.76 114.20 196.69 114.74 196.05 L 115.46 195.20 C 116.01 194.57 115.93 193.61 115.29 193.06 C 114.65 192.52 113.70 192.60 113.15 193.23 Z M 112.45 194.08 L 111.76 194.86 C 111.22 195.49 111.29 196.45 111.92 196.99 C 112.55 197.54 113.50 197.47 114.05 196.84 L 114.73 196.05 C 115.27 195.42 115.20 194.47 114.57 193.92 C 113.94 193.38 112.99 193.44 112.45 194.08 Z M 111.78 194.86 L 111.13 195.59 C 110.58 196.21 110.64 197.16 111.27 197.71 C 111.89 198.26 112.84 198.20 113.38 197.58 L 114.03 196.84 C 114.58 196.22 114.52 195.27 113.90 194.72 C 113.28 194.18 112.33 194.24 111.78 194.86 Z M 111.15 195.58 L 110.53 196.27 C 109.98 196.88 110.03 197.82 110.64 198.38 C 111.25 198.93 112.20 198.88 112.75 198.27 L 113.37 197.58 C 113.92 196.97 113.87 196.03 113.26 195.48 C 112.64 194.92 111.70 194.97 111.15 195.58 Z M 110.55 196.26 L 109.96 196.90 C 109.40 197.50 109.44 198.44 110.04 198.99 C 110.64 199.55 111.58 199.52 112.14 198.91 L 112.73 198.28 C 113.29 197.67 113.25 196.74 112.65 196.18 C 112.05 195.62 111.11 195.66 110.55 196.26 Z M 109.99 196.88 L 109.26 197.64 C 108.69 198.23 108.71 199.16 109.30 199.73 C 109.88 200.29 110.82 200.28 111.38 199.69 L 112.11 198.93 C 112.68 198.34 112.66 197.41 112.07 196.84 C 111.49 196.28 110.55 196.29 109.99 196.88 Z M 109.30 197.61 L 108.57 198.32 C 107.99 198.88 107.98 199.81 108.54 200.40 C 109.11 200.98 110.04 200.99 110.62 200.42 L 111.34 199.72 C 111.92 199.15 111.94 198.22 111.37 197.64 C 110.81 197.06 109.88 197.05 109.30 197.61 Z M 108.62 198.28 L 107.89 198.93 C 107.29 199.46 107.24 200.39 107.77 200.99 C 108.31 201.59 109.23 201.65 109.83 201.11 L 110.56 200.46 C 111.16 199.93 111.22 199.01 110.68 198.40 C 110.15 197.80 109.23 197.75 108.62 198.28 Z M 107.96 198.88 L 107.21 199.48 C 106.58 199.97 106.48 200.89 106.97 201.51 C 107.47 202.14 108.38 202.25 109.01 201.75 L 109.76 201.16 C 110.39 200.66 110.50 199.75 110.00 199.12 C 109.50 198.49 108.59 198.38 107.96 198.88 Z M 107.29 199.43 L 106.49 199.98 C 105.84 200.43 105.67 201.33 106.13 201.99 C 106.58 202.64 107.48 202.81 108.13 202.35 L 108.93 201.80 C 109.59 201.35 109.75 200.45 109.30 199.79 C 108.84 199.14 107.95 198.97 107.29 199.43 Z M 106.56 199.94 L 105.72 200.46 C 105.04 200.87 104.83 201.76 105.24 202.44 C 105.66 203.11 106.54 203.33 107.22 202.91 L 108.06 202.39 C 108.74 201.98 108.96 201.09 108.54 200.41 C 108.12 199.74 107.24 199.52 106.56 199.94 Z M 105.77 200.43 L 104.89 200.92 C 104.20 201.31 103.95 202.18 104.34 202.88 C 104.73 203.57 105.60 203.82 106.30 203.43 L 107.17 202.94 C 107.86 202.55 108.11 201.67 107.72 200.98 C 107.33 200.29 106.46 200.04 105.77 200.43 Z M 104.92 200.91 L 104.03 201.38 C 103.33 201.75 103.06 202.62 103.43 203.32 C 103.80 204.02 104.67 204.28 105.37 203.91 L 106.26 203.44 C 106.96 203.07 107.23 202.20 106.86 201.50 C 106.49 200.80 105.62 200.54 104.92 200.91 Z M 104.04 201.38 L 103.50 201.66 C 102.79 202.02 102.52 202.89 102.88 203.59 C 103.25 204.29 104.11 204.56 104.81 204.20 L 105.36 203.92 C 106.06 203.55 106.33 202.69 105.97 201.99 C 105.61 201.29 104.74 201.01 104.04 201.38 Z"
      fill="black"
      fill-rule="nonzero" /><path d="M 141.89 164.32 L 142.92 164.30 C 143.81 164.28 144.51 163.55 144.50 162.66 C 144.48 161.77 143.74 161.07 142.86 161.09 L 141.83 161.11 C 140.94 161.12 140.23 161.86 140.25 162.74 C 140.27 163.63 141.00 164.34 141.89 164.32 Z M 142.92 164.30 L 143.94 164.29 C 144.83 164.27 145.54 163.54 145.52 162.65 C 145.51 161.76 144.78 161.05 143.89 161.06 L 142.86 161.08 C 141.97 161.10 141.26 161.83 141.28 162.72 C 141.29 163.61 142.03 164.32 142.92 164.30 Z M 143.93 164.29 L 144.95 164.28 C 145.84 164.27 146.56 163.53 146.55 162.64 C 146.53 161.75 145.80 161.04 144.91 161.05 L 143.89 161.06 C 143.00 161.07 142.29 161.80 142.30 162.69 C 142.31 163.59 143.04 164.30 143.93 164.29 Z M 144.94 164.28 L 145.94 164.28 C 146.84 164.27 147.56 163.54 147.55 162.65 C 147.55 161.75 146.82 161.03 145.92 161.04 L 144.92 161.04 C 144.03 161.05 143.31 161.78 143.31 162.67 C 143.32 163.56 144.04 164.29 144.94 164.28 Z M 145.93 164.28 L 146.91 164.29 C 147.81 164.29 148.54 163.57 148.54 162.67 C 148.55 161.77 147.82 161.04 146.93 161.04 L 145.94 161.03 C 145.04 161.03 144.31 161.75 144.31 162.65 C 144.31 163.55 145.03 164.28 145.93 164.28 Z M 146.89 164.29 L 147.85 164.31 C 148.75 164.32 149.49 163.61 149.51 162.71 C 149.52 161.81 148.81 161.07 147.91 161.05 L 146.95 161.03 C 146.05 161.02 145.31 161.73 145.29 162.63 C 145.27 163.53 145.99 164.27 146.89 164.29 Z M 147.82 164.31 L 148.87 164.35 C 149.77 164.38 150.53 163.68 150.57 162.77 C 150.60 161.87 149.89 161.11 148.99 161.08 L 147.94 161.04 C 147.04 161.01 146.28 161.72 146.25 162.62 C 146.21 163.52 146.92 164.28 147.82 164.31 Z M 148.83 164.37 L 149.92 164.43 C 150.83 164.48 151.61 163.79 151.67 162.88 C 151.72 161.97 151.03 161.19 150.12 161.13 L 149.03 161.07 C 148.12 161.01 147.34 161.71 147.28 162.62 C 147.23 163.53 147.92 164.31 148.83 164.37 Z M 149.87 164.44 L 150.90 164.54 C 151.82 164.62 152.63 163.94 152.71 163.02 C 152.80 162.10 152.12 161.29 151.20 161.21 L 150.17 161.12 C 149.25 161.04 148.44 161.71 148.35 162.63 C 148.27 163.55 148.95 164.36 149.87 164.44 Z M 150.84 164.55 L 151.81 164.67 C 152.74 164.79 153.58 164.13 153.70 163.21 C 153.82 162.28 153.16 161.44 152.24 161.32 L 151.26 161.20 C 150.34 161.08 149.49 161.74 149.38 162.66 C 149.26 163.59 149.91 164.43 150.84 164.55 Z M 151.73 164.68 L 152.64 164.84 C 153.56 165.00 154.45 164.37 154.61 163.44 C 154.77 162.52 154.15 161.63 153.22 161.47 L 152.31 161.32 C 151.39 161.15 150.50 161.78 150.34 162.71 C 150.18 163.63 150.80 164.52 151.73 164.68 Z M 152.53 164.83 L 153.44 165.04 C 154.37 165.26 155.29 164.69 155.51 163.76 C 155.73 162.84 155.16 161.91 154.23 161.69 L 153.32 161.48 C 152.40 161.26 151.47 161.83 151.25 162.76 C 151.03 163.69 151.61 164.61 152.53 164.83 Z M 153.30 165.02 L 154.30 165.34 C 155.21 165.63 156.19 165.13 156.48 164.22 C 156.77 163.30 156.27 162.33 155.36 162.04 L 154.37 161.72 C 153.45 161.42 152.48 161.93 152.18 162.84 C 151.89 163.75 152.39 164.72 153.30 165.02 Z M 154.17 165.29 L 155.07 165.67 C 155.96 166.03 156.98 165.61 157.34 164.72 C 157.71 163.83 157.28 162.82 156.40 162.45 L 155.49 162.08 C 154.60 161.71 153.58 162.14 153.22 163.02 C 152.85 163.91 153.28 164.93 154.17 165.29 Z M 154.98 165.63 L 155.84 166.05 C 156.71 166.47 157.76 166.10 158.17 165.23 C 158.59 164.36 158.23 163.32 157.36 162.90 L 156.49 162.49 C 155.62 162.07 154.58 162.43 154.16 163.30 C 153.74 164.17 154.11 165.21 154.98 165.63 Z M 155.80 166.03 L 156.65 166.47 C 157.51 166.92 158.57 166.58 159.01 165.72 C 159.46 164.86 159.12 163.80 158.26 163.36 L 157.40 162.92 C 156.54 162.48 155.49 162.81 155.04 163.67 C 154.60 164.53 154.94 165.59 155.80 166.03 Z M 156.64 166.47 L 157.49 166.92 C 158.35 167.38 159.42 167.04 159.87 166.18 C 160.32 165.32 159.99 164.26 159.13 163.81 L 158.27 163.36 C 157.41 162.91 156.35 163.24 155.90 164.10 C 155.45 164.96 155.78 166.02 156.64 166.47 Z M 157.48 166.93 L 158.36 167.39 C 159.23 167.85 160.30 167.52 160.75 166.66 C 161.21 165.80 160.88 164.73 160.02 164.27 L 159.14 163.80 C 158.28 163.35 157.21 163.68 156.75 164.54 C 156.29 165.40 156.62 166.47 157.48 166.93 Z M 158.36 167.40 L 159.26 167.88 C 160.12 168.34 161.20 168.02 161.66 167.15 C 162.12 166.29 161.80 165.21 160.93 164.75 L 160.03 164.27 C 159.16 163.81 158.09 164.13 157.62 165.00 C 157.16 165.86 157.49 166.94 158.36 167.40 Z M 159.25 167.89 L 160.16 168.37 C 161.03 168.84 162.11 168.51 162.57 167.64 C 163.04 166.77 162.71 165.69 161.84 165.23 L 160.94 164.74 C 160.07 164.28 158.99 164.61 158.52 165.47 C 158.06 166.34 158.38 167.42 159.25 167.89 Z M 160.15 168.38 L 161.01 168.83 C 161.88 169.30 162.97 168.97 163.43 168.10 C 163.90 167.23 163.57 166.14 162.70 165.68 L 161.84 165.22 C 160.97 164.75 159.89 165.08 159.42 165.95 C 158.95 166.83 159.28 167.91 160.15 168.38 Z M 161.00 168.84 L 161.87 169.30 C 162.75 169.77 163.84 169.45 164.30 168.57 C 164.77 167.70 164.45 166.61 163.57 166.14 L 162.70 165.67 C 161.83 165.21 160.74 165.53 160.27 166.41 C 159.80 167.28 160.13 168.37 161.00 168.84 Z M 161.87 169.31 L 162.75 169.79 C 163.63 170.26 164.72 169.93 165.19 169.06 C 165.66 168.19 165.34 167.09 164.47 166.62 L 163.58 166.14 C 162.71 165.67 161.61 165.99 161.14 166.87 C 160.67 167.74 160.99 168.83 161.87 169.31 Z M 162.74 169.79 L 163.64 170.28 C 164.52 170.76 165.61 170.44 166.09 169.57 C 166.57 168.69 166.25 167.59 165.38 167.12 L 164.48 166.62 C 163.60 166.14 162.51 166.46 162.03 167.33 C 161.55 168.21 161.87 169.31 162.74 169.79 Z M 163.63 170.28 L 164.49 170.76 C 165.36 171.24 166.46 170.93 166.95 170.05 C 167.43 169.18 167.12 168.08 166.25 167.59 L 165.39 167.12 C 164.52 166.63 163.42 166.94 162.93 167.82 C 162.44 168.69 162.76 169.79 163.63 170.28 Z M 164.48 170.75 L 165.32 171.23 C 166.19 171.72 167.30 171.41 167.79 170.54 C 168.28 169.66 167.97 168.56 167.10 168.07 L 166.26 167.59 C 165.38 167.10 164.28 167.41 163.78 168.28 C 163.29 169.16 163.60 170.26 164.48 170.75 Z M 165.31 171.23 L 166.17 171.72 C 167.05 172.21 168.15 171.90 168.65 171.03 C 169.14 170.15 168.84 169.04 167.96 168.55 L 167.10 168.06 C 166.23 167.57 165.12 167.88 164.62 168.75 C 164.13 169.63 164.44 170.74 165.31 171.23 Z M 166.17 171.72 L 167.05 172.22 C 167.93 172.71 169.04 172.40 169.54 171.53 C 170.03 170.65 169.72 169.54 168.85 169.04 L 167.96 168.55 C 167.09 168.05 165.97 168.36 165.48 169.24 C 164.98 170.11 165.29 171.22 166.17 171.72 Z M 167.06 172.22 L 167.97 172.74 C 168.85 173.23 169.96 172.92 170.45 172.04 C 170.95 171.16 170.63 170.04 169.75 169.55 L 168.84 169.04 C 167.96 168.54 166.85 168.86 166.36 169.74 C 165.86 170.62 166.18 171.73 167.06 172.22 Z M 167.97 172.74 L 168.86 173.24 C 169.74 173.73 170.86 173.41 171.35 172.52 C 171.84 171.64 171.52 170.52 170.64 170.03 L 169.75 169.54 C 168.86 169.05 167.75 169.37 167.26 170.25 C 166.77 171.14 167.09 172.25 167.97 172.74 Z M 168.86 173.24 L 169.74 173.72 C 170.62 174.21 171.74 173.88 172.23 173.00 C 172.71 172.11 172.39 170.99 171.50 170.51 L 170.63 170.03 C 169.74 169.54 168.63 169.86 168.14 170.75 C 167.65 171.64 167.98 172.75 168.86 173.24 Z M 169.74 173.73 L 170.62 174.21 C 171.51 174.70 172.63 174.37 173.11 173.48 C 173.60 172.59 173.27 171.47 172.38 170.99 L 171.50 170.50 C 170.61 170.02 169.49 170.34 169.01 171.23 C 168.52 172.12 168.85 173.24 169.74 173.73 Z M 170.62 174.21 L 171.51 174.70 C 172.40 175.18 173.52 174.85 174.01 173.96 C 174.49 173.07 174.16 171.95 173.27 171.47 L 172.38 170.98 C 171.49 170.50 170.37 170.82 169.89 171.72 C 169.40 172.61 169.73 173.73 170.62 174.21 Z M 171.51 174.70 L 172.39 175.18 C 173.29 175.67 174.41 175.34 174.89 174.44 C 175.38 173.55 175.05 172.43 174.16 171.94 L 173.27 171.46 C 172.38 170.98 171.26 171.31 170.77 172.20 C 170.29 173.09 170.62 174.21 171.51 174.70 Z M 172.39 175.18 L 173.26 175.66 C 174.16 176.15 175.28 175.82 175.77 174.92 C 176.25 174.03 175.92 172.91 175.03 172.42 L 174.16 171.94 C 173.27 171.45 172.14 171.78 171.66 172.68 C 171.17 173.57 171.50 174.69 172.39 175.18 Z M 173.26 175.66 L 174.15 176.15 C 175.05 176.64 176.17 176.32 176.66 175.42 C 177.16 174.53 176.83 173.40 175.94 172.91 L 175.04 172.42 C 174.14 171.93 173.02 172.25 172.53 173.15 C 172.03 174.04 172.36 175.17 173.26 175.66 Z M 174.15 176.15 L 175.03 176.64 C 175.93 177.13 177.05 176.81 177.55 175.92 C 178.04 175.02 177.72 173.90 176.82 173.40 L 175.94 172.91 C 175.05 172.42 173.92 172.74 173.43 173.64 C 172.93 174.53 173.25 175.66 174.15 176.15 Z M 175.03 176.64 L 175.89 177.12 C 176.79 177.62 177.92 177.30 178.42 176.41 C 178.91 175.51 178.59 174.38 177.70 173.89 L 176.83 173.40 C 175.93 172.90 174.81 173.22 174.31 174.12 C 173.81 175.01 174.13 176.14 175.03 176.64 Z M 175.89 177.12 L 176.75 177.61 C 177.65 178.11 178.78 177.79 179.28 176.89 C 179.78 176.00 179.46 174.87 178.57 174.37 L 177.70 173.89 C 176.81 173.39 175.68 173.70 175.18 174.60 C 174.68 175.49 175.00 176.62 175.89 177.12 Z M 176.75 177.61 L 177.61 178.09 C 178.50 178.59 179.63 178.28 180.14 177.38 C 180.64 176.49 180.32 175.36 179.43 174.85 L 178.57 174.37 C 177.68 173.87 176.54 174.18 176.04 175.08 C 175.54 175.97 175.85 177.10 176.75 177.61 Z M 177.60 178.09 L 178.46 178.58 C 179.36 179.08 180.49 178.77 181.00 177.87 C 181.50 176.98 181.19 175.85 180.30 175.34 L 179.43 174.85 C 178.54 174.35 177.40 174.66 176.90 175.56 C 176.39 176.45 176.71 177.58 177.60 178.09 Z M 178.46 178.58 L 179.33 179.07 C 180.22 179.57 181.36 179.26 181.86 178.37 C 182.37 177.47 182.06 176.34 181.16 175.83 L 180.30 175.34 C 179.40 174.84 178.27 175.15 177.76 176.04 C 177.26 176.94 177.57 178.07 178.46 178.58 Z M 179.33 179.07 L 180.20 179.56 C 181.09 180.07 182.23 179.75 182.73 178.86 C 183.24 177.97 182.93 176.83 182.03 176.33 L 181.16 175.84 C 180.27 175.33 179.14 175.64 178.63 176.54 C 178.13 177.43 178.44 178.56 179.33 179.07 Z M 180.21 179.56 L 181.08 180.05 C 181.97 180.56 183.10 180.24 183.61 179.35 C 184.11 178.46 183.80 177.33 182.90 176.82 L 182.03 176.33 C 181.14 175.82 180.01 176.14 179.50 177.03 C 179.00 177.92 179.31 179.06 180.21 179.56 Z M 181.08 180.05 L 181.96 180.55 C 182.85 181.05 183.98 180.73 184.48 179.84 C 184.98 178.95 184.67 177.81 183.77 177.31 L 182.90 176.82 C 182.01 176.32 180.88 176.64 180.37 177.53 C 179.87 178.42 180.19 179.55 181.08 180.05 Z M 181.96 180.55 L 182.84 181.04 C 183.74 181.54 184.86 181.22 185.36 180.32 C 185.86 179.43 185.54 178.30 184.65 177.80 L 183.77 177.31 C 182.87 176.81 181.75 177.13 181.25 178.03 C 180.75 178.92 181.07 180.05 181.96 180.55 Z M 182.85 181.04 L 183.73 181.53 C 184.63 182.02 185.75 181.70 186.25 180.80 C 186.74 179.91 186.42 178.78 185.52 178.29 L 184.64 177.80 C 183.75 177.30 182.62 177.63 182.12 178.52 C 181.63 179.42 181.95 180.55 182.85 181.04 Z M 183.74 181.53 L 184.62 182.01 C 185.52 182.51 186.64 182.18 187.13 181.28 C 187.62 180.39 187.30 179.26 186.40 178.77 L 185.52 178.29 C 184.62 177.80 183.50 178.12 183.01 179.02 C 182.52 179.91 182.84 181.04 183.74 181.53 Z M 184.63 182.01 L 185.50 182.49 C 186.40 182.98 187.52 182.65 188.01 181.76 C 188.50 180.86 188.17 179.74 187.27 179.25 L 186.40 178.77 C 185.50 178.28 184.38 178.61 183.89 179.51 C 183.40 180.40 183.73 181.52 184.63 182.01 Z M 185.51 182.49 L 186.38 182.97 C 187.27 183.45 188.39 183.12 188.88 182.23 C 189.37 181.33 189.04 180.21 188.14 179.73 L 187.27 179.25 C 186.38 178.76 185.26 179.09 184.77 179.99 C 184.28 180.88 184.61 182.01 185.51 182.49 Z M 186.38 182.97 L 187.25 183.44 C 188.14 183.93 189.26 183.59 189.75 182.70 C 190.24 181.81 189.91 180.69 189.01 180.20 L 188.14 179.73 C 187.25 179.24 186.13 179.57 185.64 180.47 C 185.15 181.36 185.48 182.48 186.38 182.97 Z M 187.25 183.43 L 188.15 183.92 C 189.04 184.41 190.16 184.08 190.64 183.19 C 191.13 182.30 190.80 181.18 189.91 180.69 L 189.01 180.21 C 188.12 179.72 187.00 180.05 186.52 180.94 C 186.03 181.83 186.36 182.95 187.25 183.43 Z M 188.15 183.92 L 189.04 184.40 C 189.93 184.88 191.04 184.56 191.52 183.67 C 192.01 182.78 191.68 181.67 190.79 181.18 L 189.90 180.70 C 189.02 180.22 187.90 180.54 187.42 181.43 C 186.93 182.32 187.26 183.43 188.15 183.92 Z M 189.04 184.39 L 189.92 184.87 C 190.80 185.36 191.91 185.03 192.39 184.14 C 192.88 183.26 192.55 182.15 191.66 181.67 L 190.79 181.19 C 189.90 180.71 188.79 181.03 188.31 181.92 C 187.83 182.80 188.15 183.91 189.04 184.39 Z M 189.92 184.87 L 190.78 185.34 C 191.67 185.82 192.77 185.50 193.25 184.61 C 193.73 183.73 193.41 182.63 192.53 182.15 L 191.66 181.67 C 190.78 181.19 189.68 181.52 189.19 182.40 C 188.71 183.28 189.04 184.38 189.92 184.87 Z M 190.79 185.33 L 191.65 185.80 C 192.52 186.28 193.63 185.96 194.11 185.08 C 194.59 184.20 194.26 183.10 193.38 182.62 L 192.53 182.15 C 191.65 181.67 190.55 181.99 190.06 182.87 C 189.58 183.75 189.91 184.85 190.79 185.33 Z M 191.65 185.80 L 192.52 186.27 C 193.39 186.75 194.49 186.43 194.97 185.56 C 195.45 184.68 195.13 183.58 194.25 183.11 L 193.38 182.63 C 192.51 182.15 191.41 182.47 190.93 183.35 C 190.45 184.22 190.77 185.32 191.65 185.80 Z M 192.52 186.27 L 193.39 186.74 C 194.26 187.22 195.36 186.90 195.83 186.03 C 196.31 185.16 195.99 184.06 195.12 183.59 L 194.25 183.11 C 193.38 182.64 192.29 182.96 191.81 183.83 C 191.33 184.70 191.65 185.79 192.52 186.27 Z M 193.40 186.73 L 194.27 187.21 C 195.14 187.69 196.22 187.37 196.70 186.50 C 197.17 185.63 196.85 184.55 195.99 184.07 L 195.11 183.59 C 194.25 183.12 193.16 183.44 192.69 184.31 C 192.21 185.17 192.53 186.26 193.40 186.73 Z M 194.27 187.21 L 195.16 187.69 C 196.02 188.16 197.10 187.84 197.58 186.98 C 198.05 186.12 197.73 185.03 196.87 184.56 L 195.98 184.08 C 195.12 183.61 194.04 183.92 193.56 184.79 C 193.09 185.65 193.41 186.73 194.27 187.21 Z M 195.16 187.68 L 196.05 188.17 C 196.91 188.64 197.99 188.32 198.46 187.46 C 198.93 186.60 198.61 185.52 197.75 185.05 L 196.86 184.57 C 196.00 184.10 194.92 184.42 194.45 185.28 C 193.99 186.14 194.30 187.21 195.16 187.68 Z M 196.06 188.16 L 196.95 188.64 C 197.81 189.11 198.88 188.79 199.34 187.94 C 199.81 187.08 199.49 186.01 198.64 185.54 L 197.74 185.06 C 196.89 184.60 195.82 184.91 195.35 185.77 C 194.89 186.63 195.21 187.70 196.06 188.16 Z M 196.97 188.64 L 197.86 189.12 C 198.72 189.58 199.78 189.26 200.24 188.40 C 200.69 187.55 200.37 186.49 199.52 186.03 L 198.62 185.55 C 197.77 185.09 196.71 185.41 196.25 186.27 C 195.79 187.12 196.11 188.18 196.97 188.64 Z M 197.88 189.12 L 198.77 189.59 C 199.63 190.04 200.68 189.71 201.13 188.85 C 201.58 188.00 201.25 186.95 200.39 186.50 L 199.50 186.03 C 198.65 185.58 197.59 185.91 197.15 186.77 C 196.70 187.62 197.03 188.67 197.88 189.12 Z M 198.80 189.59 L 199.68 190.04 C 200.53 190.47 201.57 190.13 202.01 189.28 C 202.44 188.42 202.10 187.38 201.25 186.95 L 200.37 186.50 C 199.52 186.07 198.47 186.41 198.04 187.26 C 197.61 188.11 197.94 189.15 198.80 189.59 Z M 199.71 190.04 L 200.61 190.48 C 201.46 190.89 202.49 190.54 202.91 189.68 C 203.33 188.83 202.97 187.80 202.11 187.38 L 201.22 186.94 C 200.36 186.53 199.33 186.88 198.91 187.74 C 198.50 188.59 198.85 189.62 199.71 190.04 Z M 200.65 190.48 L 201.58 190.91 C 202.44 191.31 203.46 190.93 203.85 190.07 C 204.25 189.21 203.87 188.20 203.01 187.80 L 202.07 187.37 C 201.22 186.98 200.20 187.36 199.81 188.21 C 199.41 189.07 199.79 190.09 200.65 190.48 Z M 201.62 190.92 L 202.54 191.31 C 203.40 191.69 204.40 191.29 204.77 190.43 C 205.14 189.57 204.75 188.57 203.89 188.20 L 202.97 187.80 C 202.11 187.43 201.11 187.82 200.74 188.68 C 200.37 189.55 200.76 190.55 201.62 190.92 Z M 202.57 191.31 L 203.48 191.68 C 204.34 192.04 205.32 191.62 205.68 190.76 C 206.03 189.90 205.62 188.92 204.75 188.56 L 203.85 188.19 C 202.99 187.84 202.01 188.25 201.65 189.12 C 201.30 189.98 201.71 190.96 202.57 191.31 Z M 203.51 191.68 L 204.41 192.04 C 205.27 192.37 206.24 191.95 206.58 191.09 C 206.91 190.23 206.49 189.25 205.63 188.92 L 204.72 188.57 C 203.86 188.23 202.89 188.65 202.56 189.51 C 202.22 190.38 202.65 191.35 203.51 191.68 Z M 204.44 192.03 L 205.36 192.38 C 206.22 192.70 207.17 192.26 207.49 191.41 C 207.82 190.55 207.38 189.59 206.53 189.27 L 205.60 188.92 C 204.75 188.60 203.79 189.04 203.47 189.89 C 203.14 190.75 203.58 191.71 204.44 192.03 Z M 205.39 192.37 L 206.32 192.71 C 207.18 193.01 208.12 192.57 208.42 191.72 C 208.73 190.86 208.29 189.92 207.43 189.61 L 206.50 189.28 C 205.64 188.97 204.70 189.41 204.40 190.27 C 204.09 191.12 204.53 192.06 205.39 192.37 Z M 206.36 192.70 L 207.31 193.02 C 208.16 193.31 209.08 192.86 209.37 192.01 C 209.66 191.15 209.20 190.23 208.35 189.94 L 207.40 189.62 C 206.55 189.33 205.63 189.79 205.34 190.64 C 205.05 191.49 205.50 192.41 206.36 192.70 Z M 207.34 193.02 L 208.31 193.32 C 209.15 193.59 210.06 193.12 210.33 192.27 C 210.60 191.43 210.13 190.52 209.28 190.25 L 208.31 189.95 C 207.47 189.68 206.56 190.15 206.29 191.00 C 206.02 191.84 206.49 192.75 207.34 193.02 Z M 208.34 193.32 L 209.29 193.60 C 210.14 193.84 211.02 193.36 211.27 192.51 C 211.52 191.67 211.03 190.78 210.19 190.54 L 209.24 190.26 C 208.40 190.01 207.51 190.50 207.26 191.34 C 207.02 192.19 207.50 193.07 208.34 193.32 Z M 209.33 193.59 L 210.28 193.85 C 211.13 194.07 211.99 193.57 212.22 192.73 C 212.44 191.89 211.94 191.02 211.10 190.79 L 210.15 190.54 C 209.31 190.32 208.44 190.82 208.22 191.66 C 207.99 192.50 208.49 193.37 209.33 193.59 Z M 210.32 193.84 L 211.29 194.08 C 212.13 194.28 212.98 193.76 213.18 192.92 C 213.38 192.08 212.87 191.24 212.03 191.04 L 211.06 190.80 C 210.22 190.60 209.38 191.11 209.17 191.95 C 208.97 192.79 209.48 193.64 210.32 193.84 Z M 211.33 194.07 L 212.32 194.29 C 213.15 194.47 213.98 193.94 214.16 193.10 C 214.34 192.27 213.82 191.44 212.98 191.26 L 211.99 191.04 C 211.15 190.86 210.33 191.39 210.15 192.22 C 209.96 193.06 210.49 193.89 211.33 194.07 Z M 212.36 194.28 L 213.36 194.47 C 214.19 194.63 215.00 194.09 215.16 193.26 C 215.32 192.43 214.78 191.62 213.94 191.46 L 212.94 191.26 C 212.11 191.10 211.30 191.65 211.14 192.48 C 210.98 193.31 211.52 194.12 212.36 194.28 Z M 213.39 194.47 L 214.36 194.63 C 215.19 194.77 215.98 194.22 216.12 193.39 C 216.26 192.56 215.70 191.77 214.88 191.63 L 213.91 191.47 C 213.08 191.32 212.29 191.88 212.15 192.71 C 212.01 193.54 212.56 194.32 213.39 194.47 Z M 214.39 194.62 L 215.38 194.77 C 216.20 194.89 216.97 194.33 217.09 193.50 C 217.22 192.68 216.65 191.91 215.83 191.79 L 214.84 191.64 C 214.02 191.52 213.25 192.08 213.13 192.91 C 213.00 193.73 213.57 194.50 214.39 194.62 Z M 215.41 194.76 L 216.41 194.89 C 217.23 195.00 217.98 194.42 218.08 193.60 C 218.19 192.78 217.61 192.03 216.79 191.93 L 215.79 191.80 C 214.98 191.69 214.23 192.27 214.12 193.09 C 214.02 193.91 214.59 194.66 215.41 194.76 Z M 216.44 194.88 L 217.45 194.99 C 218.26 195.08 218.99 194.49 219.08 193.68 C 219.17 192.86 218.58 192.13 217.76 192.04 L 216.76 191.94 C 215.95 191.85 215.22 192.44 215.13 193.25 C 215.04 194.06 215.63 194.79 216.44 194.88 Z M 217.48 194.98 L 218.48 195.07 C 219.29 195.13 220.00 194.54 220.07 193.73 C 220.14 192.92 219.54 192.21 218.73 192.14 L 217.73 192.05 C 216.92 191.98 216.21 192.58 216.14 193.39 C 216.07 194.20 216.67 194.91 217.48 194.98 Z M 218.51 195.06 L 219.48 195.12 C 220.29 195.17 220.98 194.56 221.03 193.76 C 221.09 192.96 220.48 192.26 219.67 192.21 L 218.70 192.15 C 217.90 192.09 217.20 192.70 217.15 193.51 C 217.10 194.31 217.71 195.01 218.51 195.06 Z M 219.51 195.12 L 220.49 195.16 C 221.29 195.20 221.97 194.58 222.01 193.78 C 222.05 192.98 221.43 192.30 220.63 192.26 L 219.65 192.22 C 218.85 192.18 218.17 192.80 218.13 193.60 C 218.09 194.40 218.71 195.08 219.51 195.12 Z M 220.51 195.16 L 221.51 195.19 C 222.31 195.22 222.98 194.59 223.00 193.79 C 223.03 193.00 222.40 192.33 221.61 192.30 L 220.61 192.27 C 219.81 192.24 219.14 192.87 219.12 193.67 C 219.09 194.46 219.72 195.13 220.51 195.16 Z M 221.53 195.18 L 222.55 195.20 C 223.34 195.22 224.00 194.59 224.01 193.80 C 224.03 193.01 223.40 192.35 222.61 192.33 L 221.59 192.31 C 220.80 192.29 220.14 192.92 220.12 193.71 C 220.10 194.51 220.73 195.17 221.53 195.18 Z M 222.56 195.20 L 223.58 195.21 C 224.37 195.22 225.02 194.59 225.03 193.80 C 225.04 193.01 224.41 192.36 223.62 192.35 L 222.60 192.34 C 221.81 192.33 221.16 192.96 221.15 193.75 C 221.13 194.54 221.77 195.19 222.56 195.20 Z M 223.58 195.21 L 224.55 195.22 C 225.34 195.23 225.99 194.59 225.99 193.80 C 226.00 193.02 225.37 192.37 224.58 192.36 L 223.61 192.35 C 222.82 192.35 222.17 192.98 222.17 193.77 C 222.16 194.56 222.79 195.20 223.58 195.21 Z M 224.56 195.22 L 225.55 195.22 C 226.34 195.23 226.98 194.59 226.98 193.80 C 226.99 193.02 226.35 192.37 225.56 192.37 L 224.57 192.36 C 223.79 192.36 223.14 192.99 223.14 193.78 C 223.13 194.57 223.77 195.21 224.56 195.22 Z M 225.55 195.22 L 226.56 195.23 C 227.35 195.23 227.99 194.59 227.99 193.80 C 227.99 193.02 227.35 192.37 226.57 192.37 L 225.56 192.37 C 224.77 192.37 224.13 193.00 224.13 193.79 C 224.13 194.58 224.76 195.22 225.55 195.22 Z M 226.56 195.23 L 227.58 195.23 C 228.36 195.23 229.00 194.59 229.00 193.80 C 229.01 193.01 228.37 192.37 227.58 192.37 L 226.56 192.37 C 225.78 192.37 225.14 193.01 225.13 193.80 C 225.13 194.59 225.77 195.23 226.56 195.23 Z M 227.58 195.23 L 228.60 195.23 C 229.39 195.23 230.03 194.59 230.03 193.80 C 230.03 193.01 229.39 192.37 228.60 192.37 L 227.58 192.37 C 226.79 192.37 226.15 193.01 226.15 193.80 C 226.15 194.59 226.79 195.23 227.58 195.23 Z M 228.60 195.23 L 228.91 195.23 C 229.69 195.23 230.33 194.59 230.33 193.80 C 230.33 193.01 229.69 192.37 228.91 192.37 L 228.60 192.37 C 227.81 192.37 227.17 193.01 227.17 193.80 C 227.17 194.59 227.81 195.23 228.60 195.23 Z"
      fill="black"
      fill-rule="nonzero" /></svg>