<svg xmlns="http://www.w3.org/2000/svg" width="300" height="300" viewBox="0 0 300 300">
<path d="M 133.09 133.93 L 132.09 133.78 C 131.25 133.65 130.46 134.23 130.33 135.08 C 130.20 135.93 130.79 136.72 131.64 136.85 L 132.63 137.00 C 133.48 137.12 134.27 136.54 134.40 135.69 C 134.52 134.84 133.94 134.05 133.09 133.93 Z M 132.10 133.77 L 131.11 133.61 C 130.26 133.48 129.46 134.06 129.33 134.92 C 129.20 135.77 129.78 136.57 130.63 136.70 L 131.62 136.85 C 132.48 136.99 133.27 136.40 133.41 135.55 C 133.54 134.70 132.96 133.90 132.10 133.77 Z M 131.13 133.61 L 130.15 133.44 C 129.30 133.30 128.49 133.87 128.34 134.73 C 128.20 135.58 128.77 136.39 129.63 136.54 L 130.61 136.70 C 131.46 136.85 132.27 136.27 132.42 135.42 C 132.56 134.56 131.99 133.75 131.13 133.61 Z M 130.19 133.44 L 129.03 133.22 C 128.17 133.05 127.35 133.61 127.18 134.46 C 127.02 135.32 127.57 136.15 128.43 136.31 L 129.59 136.54 C 130.45 136.70 131.27 136.14 131.44 135.29 C 131.60 134.44 131.04 133.61 130.19 133.44 Z M 129.12 133.24 L 127.97 132.94 C 127.12 132.72 126.26 133.23 126.05 134.08 C 125.83 134.92 126.34 135.78 127.18 136.00 L 128.34 136.29 C 129.18 136.51 130.04 136.00 130.26 135.16 C 130.47 134.31 129.96 133.45 129.12 133.24 Z M 128.54 133.22 L 128.21 132.97 C 127.52 132.43 126.53 132.56 126.00 133.26 C 125.47 133.95 125.59 134.94 126.29 135.47 L 126.61 135.72 C 127.30 136.25 128.30 136.12 128.83 135.43 C 129.36 134.74 129.23 133.75 128.54 133.22 Z M 127.71 135.73 L 128.11 135.61 C 128.94 135.35 129.41 134.46 129.15 133.63 C 128.90 132.80 128.01 132.33 127.18 132.59 L 126.78 132.71 C 125.95 132.97 125.48 133.85 125.74 134.68 C 126.00 135.52 126.88 135.98 127.71 135.73 Z M 127.85 135.66 L 128.70 135.55 C 129.57 135.44 130.18 134.65 130.06 133.78 C 129.95 132.92 129.16 132.30 128.29 132.42 L 127.44 132.53 C 126.57 132.64 125.96 133.43 126.07 134.30 C 126.19 135.17 126.98 135.78 127.85 135.66 Z M 128.65 135.56 L 129.91 135.44 C 130.79 135.35 131.42 134.58 131.34 133.71 C 131.25 132.84 130.48 132.20 129.61 132.29 L 128.34 132.41 C 127.47 132.49 126.84 133.27 126.92 134.14 C 127.01 135.01 127.78 135.65 128.65 135.56 Z M 129.91 135.44 L 131.36 135.30 C 132.23 135.22 132.87 134.44 132.79 133.57 C 132.71 132.70 131.93 132.06 131.06 132.15 L 129.61 132.28 C 128.74 132.37 128.10 133.14 128.18 134.01 C 128.27 134.89 129.04 135.52 129.91 135.44 Z M 131.37 135.30 L 132.29 135.21 C 133.17 135.12 133.80 134.34 133.71 133.47 C 133.62 132.59 132.84 131.96 131.97 132.05 L 131.05 132.14 C 130.18 132.23 129.54 133.01 129.63 133.89 C 129.72 134.76 130.50 135.39 131.37 135.30 Z M 132.30 135.21 L 133.28 135.10 C 134.15 135.01 134.78 134.23 134.69 133.35 C 134.60 132.48 133.81 131.85 132.94 131.94 L 131.96 132.05 C 131.09 132.14 130.46 132.93 130.55 133.80 C 130.65 134.67 131.43 135.30 132.30 135.21 Z M 133.29 135.10 L 134.31 134.99 C 135.18 134.89 135.81 134.11 135.71 133.23 C 135.61 132.36 134.83 131.73 133.95 131.83 L 132.93 131.94 C 132.06 132.04 131.43 132.83 131.53 133.70 C 131.63 134.57 132.41 135.20 133.29 135.10 Z M 134.31 134.99 L 135.35 134.87 C 136.23 134.77 136.85 133.98 136.75 133.11 C 136.65 132.23 135.86 131.61 134.99 131.71 L 133.95 131.83 C 133.07 131.93 132.45 132.72 132.55 133.59 C 132.65 134.47 133.44 135.09 134.31 134.99 Z M 135.36 134.87 L 136.40 134.75 C 137.27 134.65 137.90 133.85 137.79 132.98 C 137.69 132.10 136.90 131.48 136.02 131.58 L 134.98 131.71 C 134.11 131.81 133.48 132.60 133.58 133.48 C 133.69 134.35 134.48 134.98 135.36 134.87 Z M 136.40 134.75 L 137.42 134.63 C 138.30 134.52 138.92 133.73 138.82 132.85 C 138.71 131.97 137.91 131.35 137.04 131.46 L 136.02 131.58 C 135.14 131.69 134.52 132.48 134.62 133.36 C 134.73 134.24 135.53 134.86 136.40 134.75 Z M 137.43 134.63 L 138.41 134.51 C 139.29 134.40 139.91 133.60 139.80 132.72 C 139.69 131.84 138.89 131.22 138.02 131.33 L 137.03 131.45 C 136.15 131.56 135.53 132.36 135.64 133.24 C 135.75 134.12 136.55 134.74 137.43 134.63 Z M 138.42 134.51 L 139.49 134.37 C 140.37 134.25 140.99 133.45 140.87 132.57 C 140.76 131.70 139.96 131.08 139.08 131.19 L 138.01 131.33 C 137.13 131.44 136.51 132.25 136.63 133.13 C 136.74 134.00 137.54 134.62 138.42 134.51 Z M 139.50 134.37 L 140.62 134.22 C 141.49 134.10 142.11 133.29 141.99 132.41 C 141.87 131.53 141.06 130.92 140.18 131.04 L 139.07 131.19 C 138.19 131.31 137.58 132.12 137.69 133.00 C 137.81 133.87 138.62 134.49 139.50 134.37 Z M 140.63 134.22 L 141.66 134.07 C 142.53 133.94 143.14 133.13 143.02 132.25 C 142.89 131.38 142.08 130.77 141.20 130.89 L 140.17 131.04 C 139.30 131.16 138.69 131.98 138.81 132.86 C 138.94 133.73 139.75 134.34 140.63 134.22 Z M 141.67 134.07 L 142.63 133.93 C 143.50 133.79 144.11 132.97 143.98 132.10 C 143.84 131.22 143.03 130.62 142.15 130.75 L 141.19 130.89 C 140.31 131.02 139.71 131.84 139.84 132.72 C 139.97 133.60 140.79 134.20 141.67 134.07 Z M 142.64 133.93 L 143.55 133.78 C 144.42 133.64 145.02 132.82 144.88 131.94 C 144.74 131.06 143.92 130.47 143.04 130.60 L 142.14 130.75 C 141.26 130.89 140.66 131.71 140.80 132.59 C 140.94 133.47 141.76 134.06 142.64 133.93 Z M 143.56 133.78 L 144.43 133.64 C 145.31 133.49 145.90 132.66 145.76 131.79 C 145.61 130.91 144.78 130.31 143.91 130.46 L 143.03 130.60 C 142.15 130.75 141.56 131.58 141.71 132.46 C 141.85 133.33 142.68 133.93 143.56 133.78 Z M 144.44 133.64 L 145.35 133.48 C 146.23 133.33 146.82 132.50 146.67 131.62 C 146.52 130.74 145.68 130.15 144.80 130.30 L 143.90 130.46 C 143.02 130.61 142.43 131.44 142.58 132.32 C 142.73 133.20 143.56 133.79 144.44 133.64 Z M 145.36 133.48 L 146.30 133.32 C 147.17 133.16 147.76 132.32 147.60 131.44 C 147.45 130.57 146.61 129.98 145.73 130.14 L 144.80 130.30 C 143.92 130.46 143.33 131.30 143.49 132.17 C 143.64 133.05 144.48 133.64 145.36 133.48 Z M 146.30 133.32 L 147.25 133.15 C 148.13 132.99 148.72 132.15 148.56 131.27 C 148.40 130.39 147.56 129.80 146.68 129.96 L 145.73 130.13 C 144.85 130.29 144.26 131.13 144.42 132.01 C 144.58 132.89 145.42 133.48 146.30 133.32 Z M 147.26 133.15 L 148.24 132.97 C 149.12 132.81 149.70 131.97 149.54 131.09 C 149.38 130.20 148.54 129.62 147.66 129.78 L 146.68 129.96 C 145.79 130.12 145.21 130.96 145.37 131.84 C 145.53 132.72 146.37 133.31 147.26 133.15 Z M 148.24 132.97 L 149.27 132.79 C 150.15 132.63 150.74 131.78 150.58 130.90 C 150.42 130.02 149.57 129.43 148.69 129.59 L 147.66 129.78 C 146.78 129.94 146.19 130.78 146.35 131.66 C 146.51 132.55 147.35 133.13 148.24 132.97 Z M 149.26 132.79 L 150.32 132.60 C 151.20 132.45 151.79 131.60 151.63 130.71 C 151.48 129.83 150.63 129.24 149.75 129.40 L 148.69 129.59 C 147.81 129.74 147.22 130.59 147.38 131.47 C 147.53 132.36 148.38 132.95 149.26 132.79 Z M 150.31 132.61 L 151.32 132.43 C 152.21 132.28 152.80 131.43 152.65 130.54 C 152.49 129.65 151.65 129.06 150.76 129.22 L 149.75 129.39 C 148.86 129.55 148.27 130.39 148.42 131.28 C 148.58 132.17 149.43 132.76 150.31 132.61 Z M 151.32 132.44 L 152.35 132.26 C 153.24 132.11 153.84 131.26 153.69 130.37 C 153.53 129.48 152.68 128.88 151.79 129.03 L 150.76 129.21 C 149.87 129.36 149.27 130.21 149.42 131.10 C 149.58 131.99 150.43 132.59 151.32 132.44 Z M 152.34 132.27 L 153.37 132.09 C 154.27 131.94 154.87 131.09 154.72 130.20 C 154.57 129.30 153.72 128.70 152.83 128.85 L 151.80 129.03 C 150.90 129.18 150.30 130.03 150.45 130.92 C 150.60 131.82 151.45 132.42 152.34 132.27 Z M 153.37 132.10 L 154.37 131.93 C 155.27 131.79 155.88 130.94 155.73 130.04 C 155.58 129.14 154.73 128.53 153.83 128.68 L 152.83 128.84 C 151.93 128.99 151.32 129.84 151.47 130.74 C 151.62 131.64 152.47 132.25 153.37 132.10 Z M 154.37 131.94 L 155.32 131.79 C 156.22 131.64 156.83 130.79 156.69 129.89 C 156.54 128.99 155.69 128.37 154.79 128.52 L 153.84 128.67 C 152.94 128.82 152.32 129.67 152.47 130.57 C 152.61 131.47 153.46 132.09 154.37 131.94 Z M 155.31 131.80 L 156.31 131.64 C 157.22 131.50 157.84 130.65 157.70 129.74 C 157.56 128.83 156.71 128.21 155.80 128.35 L 154.80 128.51 C 153.89 128.65 153.27 129.50 153.41 130.41 C 153.55 131.32 154.40 131.94 155.31 131.80 Z M 156.28 131.66 L 157.69 131.47 C 158.61 131.35 159.26 130.50 159.13 129.58 C 159.01 128.66 158.16 128.01 157.24 128.14 L 155.83 128.33 C 154.91 128.45 154.26 129.30 154.39 130.22 C 154.51 131.14 155.36 131.79 156.28 131.66 Z M 157.55 131.52 L 158.48 131.47 C 159.43 131.42 160.15 130.62 160.11 129.67 C 160.06 128.73 159.26 128.00 158.31 128.05 L 157.38 128.10 C 156.44 128.14 155.71 128.95 155.75 129.89 C 155.80 130.84 156.61 131.56 157.55 131.52 Z M 157.74 131.37 L 158.13 131.53 C 159.02 131.89 160.03 131.46 160.40 130.57 C 160.76 129.68 160.33 128.67 159.44 128.31 L 159.05 128.15 C 158.16 127.78 157.15 128.21 156.78 129.10 C 156.42 129.99 156.85 131.01 157.74 131.37 Z M 157.29 129.00 L 156.94 129.57 C 156.43 130.40 156.69 131.48 157.51 131.99 C 158.34 132.49 159.42 132.23 159.93 131.41 L 160.28 130.84 C 160.79 130.01 160.53 128.93 159.70 128.42 C 158.88 127.92 157.80 128.17 157.29 129.00 Z M 157.16 129.28 L 156.30 130.19 C 155.63 130.89 155.65 132.00 156.36 132.67 C 157.06 133.34 158.17 133.31 158.83 132.61 L 159.70 131.70 C 160.37 131.00 160.34 129.89 159.64 129.22 C 158.94 128.55 157.83 128.58 157.16 129.28 Z M 156.20 130.31 L 155.59 131.07 C 154.98 131.82 155.10 132.92 155.86 133.53 C 156.61 134.13 157.71 134.01 158.32 133.26 L 158.93 132.50 C 159.54 131.74 159.42 130.64 158.66 130.03 C 157.91 129.43 156.80 129.55 156.20 130.31 Z M 155.50 131.20 L 154.97 132.01 C 154.44 132.81 154.66 133.90 155.46 134.43 C 156.27 134.96 157.35 134.73 157.88 133.93 L 158.41 133.12 C 158.94 132.32 158.72 131.24 157.91 130.71 C 157.11 130.18 156.03 130.40 155.50 131.20 Z M 154.91 132.11 L 154.40 133.02 C 153.93 133.85 154.22 134.91 155.06 135.39 C 155.89 135.86 156.95 135.56 157.42 134.73 L 157.94 133.82 C 158.41 132.99 158.11 131.93 157.28 131.46 C 156.44 130.98 155.38 131.28 154.91 132.11 Z M 154.37 133.09 L 153.91 134.00 C 153.47 134.85 153.81 135.89 154.67 136.33 C 155.52 136.76 156.56 136.42 156.99 135.57 L 157.46 134.66 C 157.89 133.81 157.55 132.76 156.70 132.33 C 155.84 131.90 154.80 132.24 154.37 133.09 Z M 153.89 134.04 L 153.50 134.86 C 153.09 135.72 153.46 136.75 154.32 137.16 C 155.18 137.57 156.21 137.20 156.62 136.34 L 157.01 135.52 C 157.42 134.66 157.05 133.63 156.19 133.23 C 155.33 132.82 154.30 133.18 153.89 134.04 Z M 153.50 134.90 L 153.10 135.78 C 152.70 136.64 153.09 137.66 153.95 138.05 C 154.82 138.44 155.84 138.06 156.23 137.19 L 156.63 136.31 C 157.02 135.45 156.63 134.43 155.77 134.04 C 154.90 133.65 153.89 134.03 153.50 134.90 Z M 153.09 135.80 L 152.68 136.75 C 152.30 137.62 152.70 138.63 153.57 139.00 C 154.43 139.38 155.44 138.98 155.82 138.12 L 156.23 137.17 C 156.61 136.30 156.21 135.29 155.34 134.92 C 154.48 134.54 153.47 134.94 153.09 135.80 Z M 152.68 136.77 L 152.25 137.78 C 151.89 138.65 152.29 139.65 153.16 140.02 C 154.03 140.38 155.03 139.98 155.39 139.11 L 155.82 138.10 C 156.19 137.23 155.78 136.23 154.91 135.86 C 154.04 135.50 153.04 135.90 152.68 136.77 Z M 152.25 137.80 L 151.85 138.77 C 151.50 139.63 151.91 140.63 152.78 140.98 C 153.64 141.34 154.64 140.93 154.99 140.06 L 155.39 139.09 C 155.75 138.23 155.34 137.23 154.47 136.88 C 153.60 136.52 152.61 136.93 152.25 137.80 Z M 151.86 138.78 L 151.47 139.74 C 151.12 140.60 151.54 141.59 152.40 141.94 C 153.27 142.29 154.25 141.87 154.60 141.01 L 154.99 140.05 C 155.34 139.18 154.92 138.20 154.06 137.85 C 153.19 137.50 152.21 137.91 151.86 138.78 Z M 151.47 139.75 L 151.09 140.72 C 150.74 141.58 151.17 142.56 152.03 142.90 C 152.89 143.25 153.87 142.82 154.22 141.96 L 154.60 141.00 C 154.94 140.13 154.52 139.15 153.66 138.81 C 152.79 138.47 151.82 138.89 151.47 139.75 Z M 151.09 140.73 L 150.72 141.67 C 150.38 142.54 150.81 143.51 151.67 143.85 C 152.53 144.18 153.50 143.76 153.84 142.90 L 154.21 141.95 C 154.55 141.09 154.12 140.12 153.26 139.78 C 152.40 139.44 151.43 139.87 151.09 140.73 Z M 150.72 141.69 L 150.38 142.59 C 150.05 143.45 150.48 144.42 151.34 144.75 C 152.20 145.08 153.16 144.65 153.49 143.79 L 153.84 142.88 C 154.17 142.02 153.74 141.06 152.88 140.73 C 152.02 140.40 151.05 140.83 150.72 141.69 Z M 150.38 142.61 L 150.03 143.54 C 149.71 144.40 150.14 145.36 151.00 145.68 C 151.86 146.00 152.82 145.56 153.14 144.70 L 153.49 143.77 C 153.81 142.91 153.37 141.96 152.52 141.64 C 151.66 141.31 150.70 141.75 150.38 142.61 Z M 150.04 143.56 L 149.66 144.60 C 149.35 145.45 149.80 146.40 150.65 146.70 C 151.51 147.01 152.45 146.57 152.76 145.71 L 153.13 144.68 C 153.44 143.83 153.00 142.88 152.14 142.57 C 151.29 142.27 150.34 142.71 150.04 143.56 Z M 149.67 144.62 L 149.35 145.55 C 149.06 146.40 149.51 147.33 150.36 147.62 C 151.21 147.92 152.14 147.46 152.44 146.61 L 152.75 145.69 C 153.05 144.83 152.60 143.91 151.74 143.61 C 150.89 143.32 149.96 143.77 149.67 144.62 Z M 149.36 145.57 L 149.07 146.44 C 148.79 147.29 149.25 148.20 150.10 148.48 C 150.95 148.76 151.86 148.30 152.14 147.46 L 152.43 146.59 C 152.71 145.74 152.25 144.83 151.40 144.55 C 150.55 144.27 149.64 144.73 149.36 145.57 Z M 149.08 146.46 L 148.79 147.35 C 148.52 148.20 148.99 149.10 149.83 149.37 C 150.67 149.64 151.58 149.17 151.85 148.33 L 152.13 147.44 C 152.40 146.60 151.94 145.69 151.09 145.42 C 150.25 145.15 149.35 145.62 149.08 146.46 Z M 148.80 147.36 L 148.50 148.31 C 148.24 149.15 148.71 150.04 149.55 150.31 C 150.38 150.57 151.28 150.11 151.54 149.27 L 151.84 148.32 C 152.10 147.48 151.64 146.59 150.80 146.32 C 149.96 146.06 149.06 146.53 148.80 147.36 Z M 148.51 148.32 L 148.21 149.28 C 147.95 150.11 148.42 151.00 149.26 151.26 C 150.09 151.52 150.98 151.05 151.24 150.22 L 151.53 149.26 C 151.79 148.42 151.33 147.54 150.49 147.28 C 149.66 147.02 148.77 147.49 148.51 148.32 Z M 148.22 149.29 L 147.92 150.25 C 147.67 151.08 148.13 151.96 148.96 152.22 C 149.79 152.47 150.68 152.01 150.93 151.18 L 151.23 150.21 C 151.48 149.38 151.02 148.50 150.19 148.24 C 149.36 147.99 148.48 148.45 148.22 149.29 Z M 147.93 150.25 L 147.64 151.21 C 147.38 152.03 147.85 152.91 148.67 153.16 C 149.50 153.42 150.38 152.95 150.63 152.13 L 150.92 151.17 C 151.18 150.35 150.71 149.47 149.89 149.22 C 149.06 148.96 148.19 149.43 147.93 150.25 Z M 147.65 151.22 L 147.36 152.17 C 147.11 152.99 147.57 153.86 148.39 154.11 C 149.21 154.36 150.08 153.90 150.33 153.07 L 150.62 152.12 C 150.87 151.30 150.41 150.43 149.59 150.18 C 148.76 149.93 147.90 150.39 147.65 151.22 Z M 147.36 152.18 L 147.08 153.14 C 146.83 153.96 147.30 154.82 148.12 155.07 C 148.94 155.31 149.80 154.84 150.04 154.02 L 150.33 153.06 C 150.57 152.24 150.10 151.38 149.28 151.14 C 148.46 150.90 147.60 151.36 147.36 152.18 Z M 147.08 153.16 L 146.81 154.12 C 146.57 154.94 147.05 155.79 147.86 156.02 C 148.68 156.26 149.53 155.78 149.76 154.97 L 150.04 154.01 C 150.27 153.19 149.80 152.34 148.98 152.10 C 148.17 151.87 147.31 152.34 147.08 153.16 Z M 146.81 154.14 L 146.55 155.09 C 146.33 155.91 146.81 156.75 147.62 156.97 C 148.44 157.19 149.28 156.71 149.50 155.90 L 149.76 154.95 C 149.98 154.13 149.50 153.29 148.69 153.07 C 147.87 152.84 147.03 153.32 146.81 154.14 Z M 146.55 155.11 L 146.30 156.07 C 146.09 156.88 146.57 157.72 147.38 157.93 C 148.20 158.14 149.03 157.66 149.24 156.85 L 149.50 155.88 C 149.71 155.07 149.22 154.24 148.41 154.02 C 147.60 153.81 146.77 154.29 146.55 155.11 Z M 146.31 156.08 L 146.05 157.06 C 145.85 157.87 146.34 158.70 147.15 158.91 C 147.96 159.11 148.78 158.62 148.99 157.81 L 149.24 156.83 C 149.44 156.02 148.96 155.20 148.15 154.99 C 147.34 154.79 146.51 155.28 146.31 156.08 Z M 146.06 157.07 L 145.83 158.00 C 145.63 158.81 146.12 159.62 146.93 159.82 C 147.73 160.03 148.55 159.53 148.75 158.73 L 148.98 157.80 C 149.18 157.00 148.69 156.18 147.89 155.98 C 147.08 155.78 146.26 156.27 146.06 157.07 Z M 145.83 158.01 L 145.62 158.91 C 145.42 159.72 145.92 160.52 146.72 160.72 C 147.53 160.91 148.34 160.42 148.53 159.61 L 148.75 158.71 C 148.94 157.91 148.45 157.10 147.64 156.91 C 146.84 156.71 146.03 157.21 145.83 158.01 Z M 145.62 158.93 L 145.40 159.89 C 145.22 160.69 145.72 161.49 146.53 161.67 C 147.33 161.85 148.13 161.35 148.31 160.55 L 148.53 159.59 C 148.71 158.79 148.21 157.99 147.40 157.81 C 146.60 157.63 145.80 158.13 145.62 158.93 Z M 145.40 159.91 L 145.19 160.94 C 145.02 161.75 145.53 162.53 146.33 162.70 C 147.14 162.87 147.92 162.36 148.09 161.55 L 148.31 160.52 C 148.48 159.72 147.96 158.93 147.16 158.76 C 146.36 158.59 145.57 159.11 145.40 159.91 Z M 145.19 160.97 L 144.99 162.03 C 144.83 162.83 145.36 163.60 146.16 163.76 C 146.96 163.91 147.74 163.38 147.89 162.58 L 148.09 161.53 C 148.25 160.72 147.72 159.95 146.92 159.80 C 146.11 159.64 145.34 160.17 145.19 160.97 Z M 144.99 162.05 L 144.82 162.99 C 144.68 163.79 145.22 164.56 146.02 164.70 C 146.82 164.84 147.59 164.30 147.73 163.50 L 147.89 162.56 C 148.03 161.76 147.49 160.99 146.69 160.85 C 145.89 160.71 145.13 161.25 144.99 162.05 Z M 144.82 163.01 L 144.66 164.00 C 144.53 164.80 145.08 165.56 145.88 165.69 C 146.68 165.81 147.44 165.27 147.57 164.47 L 147.73 163.48 C 147.85 162.68 147.31 161.92 146.51 161.79 C 145.70 161.66 144.95 162.21 144.82 163.01 Z M 144.66 164.02 L 144.52 165.04 C 144.40 165.84 144.95 166.58 145.76 166.70 C 146.56 166.82 147.30 166.26 147.42 165.46 L 147.57 164.45 C 147.68 163.64 147.13 162.90 146.33 162.78 C 145.52 162.66 144.78 163.22 144.66 164.02 Z M 144.52 165.06 L 144.38 166.08 C 144.28 166.88 144.84 167.62 145.65 167.72 C 146.45 167.82 147.18 167.26 147.28 166.46 L 147.42 165.44 C 147.52 164.64 146.96 163.90 146.16 163.80 C 145.35 163.69 144.62 164.26 144.52 165.06 Z M 144.38 166.11 L 144.27 167.12 C 144.18 167.92 144.76 168.64 145.56 168.73 C 146.36 168.82 147.08 168.24 147.17 167.44 L 147.28 166.43 C 147.37 165.63 146.80 164.91 146.00 164.82 C 145.20 164.73 144.47 165.31 144.38 166.11 Z M 144.27 167.15 L 144.18 168.21 C 144.10 169.01 144.69 169.72 145.49 169.79 C 146.29 169.86 147.00 169.27 147.07 168.47 L 147.17 167.41 C 147.24 166.61 146.65 165.90 145.85 165.83 C 145.05 165.76 144.34 166.35 144.27 167.15 Z M 144.18 168.24 L 144.11 169.29 C 144.05 170.09 144.66 170.78 145.46 170.83 C 146.25 170.89 146.95 170.28 147.00 169.49 L 147.07 168.44 C 147.13 167.64 146.52 166.95 145.72 166.89 C 144.92 166.84 144.23 167.44 144.18 168.24 Z M 144.11 169.32 L 144.06 170.32 C 144.02 171.12 144.64 171.80 145.44 171.84 C 146.23 171.87 146.91 171.26 146.95 170.46 L 147.00 169.46 C 147.04 168.66 146.42 167.98 145.62 167.94 C 144.83 167.91 144.15 168.52 144.11 169.32 Z M 144.07 170.35 L 144.04 171.31 C 144.01 172.11 144.63 172.77 145.43 172.80 C 146.22 172.82 146.89 172.20 146.91 171.41 L 146.94 170.44 C 146.97 169.64 146.35 168.98 145.55 168.95 C 144.76 168.93 144.09 169.55 144.07 170.35 Z M 144.04 171.33 L 144.02 172.26 C 144.00 173.05 144.63 173.71 145.43 173.72 C 146.22 173.74 146.87 173.11 146.89 172.32 L 146.91 171.39 C 146.93 170.60 146.30 169.94 145.50 169.92 C 144.71 169.91 144.06 170.54 144.04 171.33 Z M 144.02 172.27 L 144.01 173.28 C 144.00 174.08 144.63 174.72 145.42 174.73 C 146.21 174.74 146.86 174.11 146.87 173.32 L 146.89 172.31 C 146.90 171.52 146.26 170.87 145.47 170.86 C 144.68 170.85 144.03 171.48 144.02 172.27 Z M 144.01 173.29 L 144.01 174.31 C 144.00 175.10 144.63 175.74 145.42 175.75 C 146.21 175.75 146.86 175.12 146.86 174.33 L 146.87 173.31 C 146.88 172.52 146.24 171.88 145.45 171.87 C 144.66 171.87 144.02 172.50 144.01 173.29 Z M 144.01 174.31 L 144.00 175.30 C 144.00 176.09 144.64 176.73 145.43 176.74 C 146.21 176.74 146.86 176.10 146.86 175.31 L 146.86 174.32 C 146.87 173.53 146.23 172.89 145.44 172.89 C 144.65 172.89 144.01 173.52 144.01 174.31 Z M 144.00 175.31 L 144.00 176.28 C 144.00 177.07 144.64 177.71 145.43 177.71 C 146.22 177.71 146.86 177.07 146.86 176.28 L 146.86 175.31 C 146.86 174.52 146.22 173.88 145.43 173.88 C 144.64 173.88 144.01 174.52 144.00 175.31 Z M 144.00 176.28 L 144.00 176.74 C 144.00 177.52 144.64 178.16 145.43 178.16 C 146.22 178.16 146.86 177.52 146.86 176.74 L 146.86 176.28 C 146.86 175.49 146.22 174.86 145.43 174.86 C 144.64 174.86 144.00 175.49 144.00 176.28 Z"
      fill="black"
      fill-rule="nonzero" /><path d="M 104.39 185.78 L 103.52 184.90 C 102.89 184.26 101.86 184.26 101.22 184.89 C 100.58 185.52 100.58 186.55 101.21 187.19 L 102.07 188.07 C 102.70 188.70 103.73 188.71 104.37 188.08 C 105.01 187.45 105.02 186.42 104.39 185.78 Z M 103.57 184.93 L 102.79 184.09 C 102.18 183.42 101.14 183.38 100.47 183.99 C 99.80 184.61 99.76 185.65 100.37 186.31 L 101.16 187.16 C 101.77 187.83 102.81 187.87 103.48 187.26 C 104.15 186.64 104.19 185.60 103.57 184.93 Z M 102.90 184.18 L 102.28 183.39 C 101.72 182.66 100.68 182.53 99.95 183.09 C 99.23 183.65 99.09 184.69 99.65 185.42 L 100.27 186.21 C 100.83 186.94 101.87 187.07 102.60 186.51 C 103.32 185.95 103.46 184.91 102.90 184.18 Z M 102.46 183.64 L 102.10 182.92 C 101.68 182.10 100.67 181.77 99.84 182.19 C 99.02 182.61 98.69 183.62 99.11 184.45 L 99.47 185.16 C 99.89 185.99 100.90 186.32 101.73 185.90 C 102.55 185.48 102.88 184.47 102.46 183.64 Z M 102.30 183.63 L 102.27 182.98 C 102.24 182.04 101.46 181.31 100.52 181.34 C 99.59 181.37 98.86 182.16 98.89 183.09 L 98.91 183.74 C 98.94 184.68 99.73 185.41 100.66 185.38 C 101.60 185.35 102.33 184.56 102.30 183.63 Z M 101.93 184.08 L 102.38 183.49 C 102.96 182.75 102.82 181.67 102.07 181.10 C 101.33 180.52 100.25 180.66 99.68 181.41 L 99.23 181.99 C 98.65 182.74 98.79 183.81 99.54 184.39 C 100.29 184.96 101.36 184.82 101.93 184.08 Z M 101.86 183.96 L 102.70 183.49 C 103.53 183.04 103.84 181.99 103.38 181.16 C 102.92 180.33 101.87 180.02 101.04 180.48 L 100.20 180.94 C 99.37 181.40 99.07 182.45 99.52 183.28 C 99.98 184.11 101.03 184.41 101.86 183.96 Z M 102.44 183.62 L 103.54 183.24 C 104.45 182.93 104.93 181.94 104.61 181.04 C 104.30 180.14 103.32 179.66 102.41 179.97 L 101.31 180.35 C 100.40 180.66 99.92 181.65 100.24 182.55 C 100.55 183.46 101.53 183.94 102.44 183.62 Z M 103.44 183.28 L 104.55 182.98 C 105.48 182.72 106.02 181.76 105.77 180.84 C 105.51 179.91 104.55 179.36 103.63 179.62 L 102.52 179.93 C 101.59 180.18 101.04 181.14 101.30 182.07 C 101.56 182.99 102.51 183.54 103.44 183.28 Z M 104.52 182.99 L 105.50 182.74 C 106.43 182.51 107.00 181.56 106.76 180.62 C 106.53 179.69 105.58 179.12 104.64 179.36 L 103.66 179.60 C 102.73 179.84 102.16 180.79 102.40 181.73 C 102.63 182.66 103.58 183.23 104.52 182.99 Z M 105.48 182.75 L 106.47 182.52 C 107.41 182.29 107.99 181.35 107.77 180.41 C 107.54 179.47 106.60 178.89 105.66 179.11 L 104.67 179.35 C 103.73 179.57 103.15 180.51 103.37 181.45 C 103.59 182.39 104.54 182.98 105.48 182.75 Z M 106.45 182.52 L 107.44 182.30 C 108.39 182.09 108.98 181.15 108.76 180.20 C 108.55 179.26 107.61 178.67 106.67 178.88 L 105.68 179.11 C 104.74 179.32 104.14 180.26 104.36 181.20 C 104.57 182.15 105.51 182.74 106.45 182.52 Z M 107.43 182.31 L 108.39 182.10 C 109.34 181.89 109.94 180.95 109.74 180.01 C 109.53 179.06 108.59 178.46 107.65 178.67 L 106.68 178.88 C 105.73 179.08 105.13 180.02 105.34 180.96 C 105.55 181.91 106.48 182.51 107.43 182.31 Z M 108.39 182.10 L 109.36 181.89 C 110.31 181.69 110.91 180.76 110.71 179.81 C 110.51 178.86 109.58 178.25 108.63 178.45 L 107.66 178.66 C 106.71 178.86 106.10 179.80 106.30 180.75 C 106.50 181.70 107.44 182.30 108.39 182.10 Z M 109.35 181.90 L 110.37 181.69 C 111.33 181.49 111.94 180.56 111.74 179.60 C 111.54 178.65 110.61 178.04 109.65 178.24 L 108.63 178.45 C 107.68 178.65 107.07 179.58 107.27 180.53 C 107.47 181.49 108.40 182.10 109.35 181.90 Z M 110.37 181.69 L 111.34 181.49 C 112.30 181.29 112.91 180.36 112.72 179.41 C 112.52 178.45 111.59 177.84 110.63 178.03 L 109.66 178.23 C 108.70 178.43 108.09 179.36 108.28 180.32 C 108.48 181.27 109.41 181.89 110.37 181.69 Z M 111.34 181.49 L 112.29 181.30 C 113.25 181.10 113.87 180.17 113.67 179.21 C 113.48 178.26 112.54 177.64 111.58 177.83 L 110.63 178.03 C 109.68 178.22 109.06 179.16 109.26 180.12 C 109.45 181.07 110.39 181.69 111.34 181.49 Z M 112.30 181.30 L 113.24 181.11 C 114.20 180.91 114.82 179.98 114.62 179.02 C 114.43 178.06 113.49 177.44 112.53 177.64 L 111.58 177.83 C 110.62 178.03 110.01 178.96 110.20 179.92 C 110.40 180.88 111.34 181.50 112.30 181.30 Z M 113.25 181.11 L 114.17 180.92 C 115.13 180.72 115.75 179.78 115.55 178.82 C 115.35 177.86 114.41 177.24 113.45 177.44 L 112.53 177.63 C 111.57 177.83 110.95 178.77 111.15 179.73 C 111.35 180.69 112.29 181.31 113.25 181.11 Z M 114.17 180.92 L 115.12 180.73 C 116.08 180.53 116.70 179.59 116.50 178.63 C 116.30 177.66 115.36 177.05 114.40 177.24 L 113.45 177.44 C 112.49 177.64 111.87 178.58 112.07 179.54 C 112.27 180.50 113.21 181.12 114.17 180.92 Z M 115.11 180.73 L 116.09 180.53 C 117.06 180.34 117.68 179.39 117.48 178.43 C 117.29 177.47 116.35 176.84 115.38 177.04 L 114.40 177.24 C 113.44 177.44 112.82 178.38 113.01 179.34 C 113.21 180.31 114.15 180.93 115.11 180.73 Z M 116.08 180.54 L 117.10 180.34 C 118.07 180.14 118.70 179.20 118.51 178.24 C 118.32 177.27 117.38 176.64 116.41 176.83 L 115.39 177.04 C 114.42 177.23 113.79 178.17 113.99 179.13 C 114.18 180.10 115.12 180.73 116.08 180.54 Z M 117.09 180.34 L 118.09 180.15 C 119.06 179.96 119.70 179.03 119.51 178.06 C 119.33 177.09 118.39 176.45 117.42 176.64 L 116.42 176.83 C 115.45 177.01 114.82 177.95 115.00 178.92 C 115.18 179.89 116.12 180.53 117.09 180.34 Z M 118.08 180.15 L 119.01 179.98 C 119.98 179.81 120.62 178.87 120.44 177.90 C 120.26 176.93 119.33 176.28 118.36 176.46 L 117.43 176.63 C 116.46 176.81 115.82 177.74 116.00 178.72 C 116.17 179.69 117.11 180.33 118.08 180.15 Z M 119.00 179.99 L 119.96 179.82 C 120.93 179.64 121.58 178.71 121.41 177.74 C 121.23 176.76 120.30 176.11 119.33 176.29 L 118.37 176.46 C 117.39 176.63 116.74 177.56 116.92 178.54 C 117.09 179.51 118.02 180.16 119.00 179.99 Z M 119.95 179.82 L 120.94 179.65 C 121.92 179.48 122.57 178.55 122.40 177.57 C 122.23 176.60 121.30 175.94 120.32 176.11 L 119.33 176.28 C 118.36 176.46 117.70 177.38 117.87 178.36 C 118.04 179.34 118.97 179.99 119.95 179.82 Z M 120.94 179.65 L 121.96 179.48 C 122.94 179.31 123.59 178.38 123.42 177.40 C 123.26 176.42 122.33 175.77 121.35 175.93 L 120.33 176.11 C 119.35 176.28 118.69 177.21 118.86 178.18 C 119.03 179.16 119.96 179.82 120.94 179.65 Z M 121.96 179.48 L 123.01 179.30 C 123.98 179.13 124.64 178.20 124.48 177.22 C 124.31 176.24 123.38 175.58 122.40 175.75 L 121.35 175.93 C 120.37 176.10 119.71 177.03 119.88 178.01 C 120.05 178.99 120.98 179.65 121.96 179.48 Z M 123.01 179.30 L 123.95 179.14 C 124.93 178.97 125.59 178.04 125.42 177.06 C 125.25 176.08 124.32 175.42 123.34 175.59 L 122.40 175.75 C 121.42 175.92 120.76 176.85 120.93 177.83 C 121.09 178.81 122.02 179.47 123.01 179.30 Z M 123.95 179.14 L 124.90 178.98 C 125.88 178.81 126.54 177.88 126.37 176.90 C 126.20 175.92 125.27 175.26 124.29 175.43 L 123.34 175.59 C 122.36 175.75 121.70 176.69 121.87 177.67 C 122.03 178.65 122.97 179.31 123.95 179.14 Z M 124.90 178.98 L 125.86 178.82 C 126.85 178.65 127.51 177.72 127.34 176.74 C 127.17 175.75 126.24 175.09 125.26 175.26 L 124.29 175.42 C 123.31 175.59 122.65 176.52 122.81 177.51 C 122.98 178.49 123.91 179.15 124.90 178.98 Z M 125.86 178.82 L 126.85 178.65 C 127.84 178.48 128.50 177.55 128.33 176.57 C 128.17 175.59 127.23 174.92 126.25 175.09 L 125.26 175.26 C 124.28 175.43 123.61 176.36 123.78 177.34 C 123.95 178.32 124.88 178.99 125.86 178.82 Z M 126.85 178.65 L 127.87 178.48 C 128.85 178.31 129.51 177.38 129.35 176.40 C 129.18 175.41 128.25 174.75 127.26 174.92 L 126.25 175.09 C 125.27 175.26 124.60 176.19 124.77 177.17 C 124.94 178.16 125.87 178.82 126.85 178.65 Z M 127.86 178.48 L 128.90 178.31 C 129.88 178.14 130.55 177.21 130.38 176.22 C 130.22 175.24 129.28 174.57 128.30 174.74 L 127.26 174.92 C 126.28 175.08 125.61 176.02 125.78 177.00 C 125.95 177.99 126.88 178.65 127.86 178.48 Z M 128.90 178.31 L 129.88 178.14 C 130.87 177.98 131.53 177.04 131.37 176.06 C 131.20 175.07 130.27 174.41 129.28 174.57 L 128.30 174.74 C 127.31 174.91 126.65 175.84 126.81 176.83 C 126.98 177.81 127.91 178.48 128.90 178.31 Z M 129.88 178.15 L 130.83 177.99 C 131.81 177.82 132.48 176.89 132.31 175.90 C 132.15 174.91 131.21 174.25 130.23 174.41 L 129.28 174.57 C 128.30 174.74 127.63 175.67 127.80 176.66 C 127.96 177.65 128.90 178.31 129.88 178.15 Z M 130.83 177.99 L 131.79 177.83 C 132.78 177.66 133.44 176.73 133.28 175.74 C 133.11 174.75 132.18 174.09 131.19 174.25 L 130.23 174.41 C 129.24 174.58 128.58 175.51 128.74 176.50 C 128.91 177.49 129.84 178.15 130.83 177.99 Z M 131.79 177.83 L 132.77 177.66 C 133.76 177.50 134.42 176.56 134.26 175.58 C 134.09 174.59 133.16 173.92 132.17 174.09 L 131.19 174.25 C 130.21 174.42 129.54 175.35 129.70 176.34 C 129.87 177.33 130.80 177.99 131.79 177.83 Z M 132.77 177.66 L 133.77 177.50 C 134.75 177.33 135.42 176.40 135.25 175.41 C 135.09 174.42 134.15 173.75 133.17 173.92 L 132.17 174.09 C 131.18 174.25 130.52 175.19 130.68 176.17 C 130.85 177.16 131.78 177.83 132.77 177.66 Z M 133.77 177.50 L 134.78 177.33 C 135.76 177.16 136.43 176.23 136.27 175.24 C 136.10 174.25 135.16 173.58 134.18 173.75 L 133.17 173.92 C 132.18 174.08 131.51 175.02 131.68 176.01 C 131.84 177.00 132.78 177.66 133.77 177.50 Z M 134.78 177.33 L 135.80 177.16 C 136.79 176.99 137.46 176.06 137.29 175.07 C 137.12 174.08 136.19 173.41 135.20 173.58 L 134.18 173.75 C 133.19 173.91 132.52 174.85 132.69 175.84 C 132.85 176.83 133.79 177.49 134.78 177.33 Z M 135.80 177.16 L 136.80 176.99 C 137.79 176.82 138.46 175.89 138.29 174.90 C 138.12 173.91 137.19 173.24 136.20 173.41 L 135.20 173.58 C 134.21 173.74 133.54 174.68 133.71 175.67 C 133.87 176.66 134.81 177.32 135.80 177.16 Z M 136.80 176.99 L 137.75 176.83 C 138.74 176.66 139.40 175.73 139.24 174.74 C 139.07 173.75 138.13 173.08 137.14 173.25 L 136.20 173.41 C 135.21 173.57 134.54 174.51 134.71 175.50 C 134.87 176.49 135.81 177.16 136.80 176.99 Z M 137.75 176.83 L 138.71 176.67 C 139.70 176.50 140.36 175.56 140.20 174.57 C 140.03 173.59 139.09 172.92 138.10 173.09 L 137.14 173.25 C 136.15 173.42 135.49 174.35 135.66 175.34 C 135.82 176.33 136.76 177.00 137.75 176.83 Z M 138.71 176.67 L 139.68 176.50 C 140.67 176.34 141.34 175.40 141.17 174.41 C 141.00 173.42 140.06 172.75 139.07 172.92 L 138.10 173.09 C 137.11 173.25 136.45 174.19 136.61 175.18 C 136.78 176.17 137.72 176.84 138.71 176.67 Z M 139.68 176.50 L 140.66 176.34 C 141.65 176.17 142.32 175.23 142.15 174.24 C 141.98 173.25 141.04 172.58 140.05 172.75 L 139.07 172.92 C 138.08 173.09 137.42 174.03 137.59 175.02 C 137.75 176.01 138.69 176.67 139.68 176.50 Z M 140.67 176.34 L 141.66 176.16 C 142.65 175.99 143.32 175.05 143.15 174.07 C 142.98 173.08 142.04 172.41 141.05 172.58 L 140.05 172.75 C 139.06 172.92 138.40 173.86 138.57 174.85 C 138.74 175.84 139.68 176.51 140.67 176.34 Z M 141.66 176.16 L 142.67 175.99 C 143.66 175.82 144.33 174.88 144.15 173.89 C 143.98 172.90 143.04 172.24 142.05 172.41 L 141.04 172.58 C 140.06 172.75 139.39 173.69 139.56 174.68 C 139.74 175.67 140.68 176.34 141.66 176.16 Z M 142.68 175.99 L 143.70 175.81 C 144.69 175.64 145.35 174.70 145.18 173.71 C 145.00 172.72 144.06 172.06 143.07 172.23 L 142.05 172.41 C 141.06 172.58 140.40 173.52 140.57 174.51 C 140.75 175.50 141.69 176.16 142.68 175.99 Z M 143.70 175.81 L 144.71 175.63 C 145.69 175.46 146.35 174.52 146.18 173.53 C 146.01 172.54 145.06 171.88 144.08 172.05 L 143.07 172.23 C 142.08 172.40 141.42 173.35 141.60 174.34 C 141.77 175.32 142.71 175.98 143.70 175.81 Z M 144.71 175.63 L 145.68 175.46 C 146.67 175.29 147.32 174.34 147.15 173.35 C 146.97 172.37 146.03 171.71 145.04 171.88 L 144.07 172.05 C 143.08 172.23 142.43 173.17 142.60 174.16 C 142.78 175.15 143.72 175.81 144.71 175.63 Z M 145.68 175.46 L 146.66 175.29 C 147.65 175.11 148.30 174.17 148.13 173.18 C 147.95 172.19 147.01 171.53 146.02 171.71 L 145.04 171.88 C 144.05 172.06 143.39 173.00 143.57 173.99 C 143.75 174.98 144.69 175.64 145.68 175.46 Z M 146.66 175.29 L 147.64 175.11 C 148.63 174.93 149.29 173.99 149.11 173.00 C 148.94 172.01 147.99 171.35 147.00 171.53 L 146.02 171.71 C 145.03 171.88 144.37 172.83 144.55 173.82 C 144.72 174.81 145.67 175.46 146.66 175.29 Z M 147.64 175.11 L 148.63 174.93 C 149.62 174.76 150.28 173.81 150.10 172.82 C 149.93 171.83 148.98 171.18 147.99 171.35 L 147.00 171.53 C 146.01 171.71 145.36 172.65 145.53 173.64 C 145.71 174.63 146.66 175.29 147.64 175.11 Z M 148.64 174.93 L 149.63 174.75 C 150.62 174.58 151.27 173.63 151.10 172.64 C 150.92 171.65 149.97 171.00 148.98 171.17 L 147.99 171.35 C 147.00 171.53 146.34 172.48 146.52 173.47 C 146.70 174.45 147.65 175.11 148.64 174.93 Z M 149.63 174.75 L 150.62 174.58 C 151.61 174.40 152.27 173.45 152.09 172.46 C 151.91 171.47 150.96 170.82 149.98 171.00 L 148.98 171.17 C 147.99 171.35 147.34 172.30 147.52 173.29 C 147.69 174.28 148.64 174.93 149.63 174.75 Z M 150.62 174.58 L 151.61 174.40 C 152.60 174.22 153.26 173.27 153.08 172.28 C 152.90 171.30 151.95 170.64 150.97 170.82 L 149.98 171.00 C 148.99 171.17 148.33 172.12 148.51 173.11 C 148.69 174.10 149.63 174.75 150.62 174.58 Z M 151.61 174.40 L 152.60 174.22 C 153.59 174.04 154.24 173.10 154.07 172.11 C 153.89 171.12 152.94 170.46 151.95 170.64 L 150.97 170.82 C 149.98 170.99 149.32 171.94 149.50 172.93 C 149.68 173.92 150.62 174.58 151.61 174.40 Z M 152.60 174.22 L 153.59 174.04 C 154.58 173.86 155.24 172.92 155.06 171.93 C 154.88 170.94 153.94 170.28 152.95 170.46 L 151.95 170.64 C 150.96 170.82 150.31 171.76 150.48 172.75 C 150.66 173.74 151.61 174.40 152.60 174.22 Z M 153.59 174.04 L 154.58 173.87 C 155.57 173.69 156.23 172.74 156.05 171.75 C 155.88 170.76 154.93 170.11 153.94 170.28 L 152.95 170.46 C 151.96 170.64 151.30 171.58 151.48 172.57 C 151.65 173.56 152.60 174.22 153.59 174.04 Z M 154.58 173.87 L 155.57 173.69 C 156.56 173.51 157.22 172.57 157.04 171.58 C 156.87 170.59 155.92 169.93 154.93 170.11 L 153.94 170.28 C 152.95 170.46 152.29 171.40 152.47 172.39 C 152.65 173.38 153.59 174.04 154.58 173.87 Z M 155.57 173.69 L 156.55 173.52 C 157.54 173.34 158.20 172.40 158.03 171.41 C 157.85 170.42 156.91 169.76 155.92 169.93 L 154.93 170.11 C 153.94 170.28 153.28 171.22 153.46 172.21 C 153.63 173.20 154.58 173.87 155.57 173.69 Z M 156.55 173.52 L 157.53 173.35 C 158.52 173.17 159.18 172.23 159.01 171.24 C 158.83 170.25 157.89 169.59 156.90 169.76 L 155.92 169.93 C 154.93 170.10 154.27 171.05 154.44 172.04 C 154.61 173.03 155.56 173.69 156.55 173.52 Z M 157.53 173.35 L 158.51 173.18 C 159.50 173.00 160.16 172.06 159.99 171.07 C 159.82 170.08 158.87 169.42 157.88 169.59 L 156.90 169.76 C 155.91 169.93 155.25 170.87 155.42 171.86 C 155.59 172.85 156.53 173.52 157.53 173.35 Z M 158.50 173.18 L 159.48 173.01 C 160.47 172.84 161.14 171.90 160.97 170.91 C 160.80 169.92 159.86 169.25 158.87 169.42 L 157.89 169.59 C 156.89 169.76 156.23 170.70 156.40 171.69 C 156.57 172.68 157.51 173.35 158.50 173.18 Z M 159.48 173.01 L 160.46 172.84 C 161.45 172.68 162.12 171.74 161.95 170.74 C 161.78 169.75 160.84 169.08 159.85 169.25 L 158.87 169.42 C 157.88 169.59 157.21 170.53 157.38 171.52 C 157.55 172.51 158.49 173.18 159.48 173.01 Z M 160.46 172.84 L 161.44 172.68 C 162.43 172.51 163.10 171.58 162.93 170.58 C 162.77 169.59 161.83 168.92 160.84 169.09 L 159.86 169.25 C 158.86 169.42 158.19 170.36 158.36 171.35 C 158.53 172.34 159.46 173.01 160.46 172.84 Z M 161.43 172.68 L 162.41 172.52 C 163.41 172.36 164.08 171.42 163.91 170.43 C 163.75 169.43 162.81 168.76 161.82 168.92 L 160.84 169.09 C 159.85 169.25 159.18 170.19 159.34 171.18 C 159.50 172.17 160.44 172.84 161.43 172.68 Z M 162.41 172.52 L 163.39 172.36 C 164.39 172.20 165.06 171.26 164.90 170.27 C 164.74 169.28 163.80 168.60 162.81 168.76 L 161.82 168.92 C 160.83 169.09 160.16 170.02 160.32 171.02 C 160.48 172.01 161.42 172.68 162.41 172.52 Z M 163.39 172.36 L 164.38 172.20 C 165.37 172.04 166.04 171.11 165.88 170.11 C 165.72 169.12 164.79 168.44 163.79 168.60 L 162.81 168.76 C 161.82 168.92 161.14 169.86 161.30 170.85 C 161.46 171.85 162.40 172.52 163.39 172.36 Z M 164.37 172.20 L 165.36 172.04 C 166.36 171.88 167.03 170.95 166.87 169.95 C 166.71 168.96 165.78 168.28 164.78 168.44 L 163.80 168.60 C 162.80 168.76 162.13 169.70 162.29 170.69 C 162.45 171.69 163.38 172.36 164.37 172.20 Z M 165.36 172.04 L 166.35 171.88 C 167.35 171.73 168.02 170.79 167.86 169.80 C 167.70 168.80 166.77 168.13 165.77 168.28 L 164.78 168.44 C 163.79 168.60 163.11 169.54 163.27 170.53 C 163.43 171.53 164.37 172.20 165.36 172.04 Z M 166.35 171.89 L 167.34 171.73 C 168.34 171.57 169.01 170.63 168.85 169.64 C 168.69 168.64 167.76 167.97 166.76 168.13 L 165.77 168.28 C 164.78 168.44 164.10 169.38 164.26 170.37 C 164.42 171.37 165.36 172.05 166.35 171.89 Z M 167.34 171.73 L 168.34 171.57 C 169.33 171.40 170.01 170.47 169.84 169.47 C 169.68 168.48 168.75 167.80 167.75 167.96 L 166.76 168.13 C 165.77 168.29 165.09 169.22 165.25 170.22 C 165.41 171.21 166.35 171.89 167.34 171.73 Z M 168.34 171.57 L 169.33 171.40 C 170.32 171.24 171.00 170.30 170.84 169.31 C 170.67 168.32 169.74 167.64 168.74 167.80 L 167.75 167.96 C 166.76 168.13 166.08 169.06 166.24 170.06 C 166.41 171.05 167.34 171.73 168.34 171.57 Z M 169.33 171.40 L 170.33 171.24 C 171.32 171.08 172.00 170.14 171.83 169.14 C 171.67 168.15 170.73 167.48 169.74 167.64 L 168.74 167.80 C 167.75 167.97 167.07 168.91 167.24 169.90 C 167.40 170.89 168.34 171.57 169.33 171.40 Z M 170.33 171.24 L 171.33 171.07 C 172.33 170.91 173.00 169.97 172.83 168.97 C 172.67 167.98 171.73 167.31 170.73 167.47 L 169.74 167.64 C 168.74 167.80 168.07 168.74 168.23 169.74 C 168.40 170.73 169.34 171.40 170.33 171.24 Z M 171.33 171.07 L 172.33 170.91 C 173.32 170.74 174.00 169.80 173.83 168.81 C 173.66 167.81 172.72 167.14 171.73 167.31 L 170.73 167.47 C 169.74 167.64 169.07 168.58 169.23 169.57 C 169.40 170.57 170.34 171.24 171.33 171.07 Z M 172.33 170.91 L 173.32 170.74 C 174.32 170.57 174.99 169.63 174.82 168.64 C 174.66 167.64 173.72 166.97 172.72 167.14 L 171.73 167.31 C 170.73 167.47 170.06 168.41 170.23 169.41 C 170.40 170.40 171.34 171.07 172.33 170.91 Z M 173.32 170.74 L 174.31 170.58 C 175.31 170.41 175.98 169.47 175.81 168.47 C 175.65 167.48 174.70 166.81 173.71 166.97 L 172.72 167.14 C 171.73 167.31 171.05 168.25 171.22 169.24 C 171.39 170.24 172.33 170.91 173.32 170.74 Z M 174.31 170.58 L 175.30 170.41 C 176.29 170.25 176.96 169.30 176.80 168.31 C 176.63 167.31 175.69 166.64 174.70 166.81 L 173.71 166.97 C 172.72 167.14 172.04 168.08 172.21 169.08 C 172.38 170.07 173.32 170.74 174.31 170.58 Z M 175.30 170.41 L 176.27 170.25 C 177.27 170.08 177.94 169.14 177.78 168.15 C 177.61 167.15 176.67 166.48 175.67 166.65 L 174.70 166.81 C 173.70 166.97 173.03 167.91 173.19 168.91 C 173.36 169.91 174.30 170.58 175.30 170.41 Z M 176.27 170.25 L 177.24 170.09 C 178.24 169.93 178.91 168.99 178.75 167.99 C 178.58 166.99 177.64 166.32 176.65 166.48 L 175.68 166.64 C 174.68 166.81 174.01 167.75 174.17 168.74 C 174.34 169.74 175.28 170.41 176.27 170.25 Z M 177.24 170.09 L 178.22 169.93 C 179.22 169.77 179.90 168.83 179.73 167.83 C 179.57 166.84 178.63 166.16 177.64 166.32 L 176.65 166.48 C 175.65 166.65 174.98 167.59 175.14 168.58 C 175.30 169.58 176.24 170.25 177.24 170.09 Z M 178.22 169.93 L 179.25 169.77 C 180.24 169.61 180.92 168.67 180.76 167.67 C 180.60 166.67 179.66 166.00 178.67 166.16 L 177.64 166.32 C 176.64 166.48 175.97 167.42 176.13 168.42 C 176.29 169.41 177.22 170.09 178.22 169.93 Z M 179.24 169.77 L 180.26 169.61 C 181.26 169.45 181.94 168.51 181.78 167.51 C 181.62 166.52 180.68 165.84 179.69 165.99 L 178.67 166.16 C 177.67 166.31 176.99 167.25 177.15 168.25 C 177.31 169.25 178.25 169.93 179.24 169.77 Z M 180.26 169.61 L 181.26 169.45 C 182.26 169.29 182.94 168.36 182.78 167.36 C 182.63 166.36 181.69 165.68 180.69 165.84 L 179.69 165.99 C 178.69 166.15 178.01 167.09 178.17 168.08 C 178.32 169.08 179.26 169.76 180.26 169.61 Z M 181.26 169.45 L 182.25 169.30 C 183.25 169.14 183.93 168.21 183.77 167.21 C 183.62 166.21 182.68 165.53 181.69 165.68 L 180.70 165.84 C 179.70 165.99 179.01 166.93 179.17 167.92 C 179.32 168.92 180.26 169.61 181.26 169.45 Z M 182.25 169.30 L 183.22 169.15 C 184.22 168.99 184.91 168.06 184.75 167.06 C 184.60 166.06 183.66 165.38 182.67 165.53 L 181.69 165.68 C 180.69 165.84 180.01 166.77 180.16 167.77 C 180.31 168.77 181.25 169.45 182.25 169.30 Z M 183.22 169.15 L 184.19 169.00 C 185.18 168.84 185.87 167.91 185.72 166.91 C 185.56 165.91 184.63 165.23 183.63 165.38 L 182.67 165.53 C 181.67 165.68 180.98 166.62 181.14 167.62 C 181.29 168.61 182.22 169.30 183.22 169.15 Z M 184.19 169.00 L 185.14 168.85 C 186.13 168.70 186.82 167.77 186.67 166.77 C 186.51 165.77 185.58 165.08 184.58 165.24 L 183.63 165.38 C 182.63 165.54 181.95 166.47 182.10 167.47 C 182.25 168.47 183.19 169.15 184.19 169.00 Z M 185.14 168.85 L 186.12 168.70 C 187.12 168.55 187.80 167.62 187.65 166.62 C 187.50 165.62 186.56 164.93 185.56 165.09 L 184.58 165.24 C 183.58 165.39 182.90 166.32 183.05 167.32 C 183.20 168.32 184.14 169.01 185.14 168.85 Z M 186.12 168.70 L 187.14 168.55 C 188.14 168.39 188.82 167.46 188.67 166.46 C 188.52 165.46 187.58 164.78 186.59 164.93 L 185.56 165.09 C 184.57 165.24 183.88 166.17 184.03 167.17 C 184.19 168.17 185.12 168.85 186.12 168.70 Z M 187.14 168.55 L 188.15 168.39 C 189.14 168.24 189.83 167.31 189.68 166.31 C 189.52 165.31 188.59 164.62 187.59 164.78 L 186.59 164.93 C 185.59 165.08 184.90 166.02 185.06 167.01 C 185.21 168.01 186.14 168.70 187.14 168.55 Z M 188.14 168.39 L 189.14 168.24 C 190.14 168.09 190.82 167.16 190.67 166.16 C 190.52 165.16 189.58 164.47 188.59 164.62 L 187.59 164.78 C 186.60 164.93 185.91 165.86 186.06 166.86 C 186.21 167.86 187.15 168.54 188.14 168.39 Z M 189.14 168.24 L 190.12 168.09 C 191.11 167.94 191.80 167.01 191.65 166.01 C 191.50 165.01 190.57 164.33 189.57 164.48 L 188.59 164.62 C 187.59 164.78 186.90 165.71 187.05 166.71 C 187.21 167.70 188.14 168.39 189.14 168.24 Z M 190.11 168.09 L 191.08 167.95 C 192.08 167.80 192.77 166.86 192.62 165.87 C 192.47 164.87 191.54 164.18 190.54 164.33 L 189.57 164.48 C 188.57 164.63 187.88 165.56 188.03 166.56 C 188.18 167.55 189.11 168.24 190.11 168.09 Z M 191.08 167.95 L 192.04 167.80 C 193.04 167.65 193.73 166.72 193.58 165.73 C 193.43 164.73 192.50 164.04 191.50 164.19 L 190.54 164.33 C 189.54 164.48 188.85 165.41 189.00 166.41 C 189.15 167.41 190.08 168.09 191.08 167.95 Z M 192.04 167.80 L 193.04 167.66 C 194.04 167.51 194.73 166.58 194.58 165.58 C 194.43 164.58 193.51 163.89 192.51 164.04 L 191.51 164.19 C 190.51 164.33 189.82 165.26 189.96 166.26 C 190.11 167.26 191.04 167.95 192.04 167.80 Z M 193.04 167.66 L 194.10 167.50 C 195.10 167.36 195.79 166.43 195.64 165.43 C 195.50 164.43 194.57 163.74 193.57 163.89 L 192.51 164.04 C 191.51 164.18 190.82 165.11 190.97 166.11 C 191.11 167.11 192.04 167.80 193.04 167.66 Z M 194.09 167.50 L 195.13 167.35 C 196.13 167.21 196.83 166.29 196.69 165.29 C 196.54 164.29 195.62 163.59 194.62 163.74 L 193.58 163.88 C 192.58 164.03 191.88 164.95 192.03 165.95 C 192.17 166.95 193.09 167.64 194.09 167.50 Z M 195.13 167.35 L 196.14 167.21 C 197.14 167.07 197.84 166.15 197.70 165.15 C 197.56 164.15 196.64 163.46 195.64 163.59 L 194.62 163.74 C 193.63 163.88 192.93 164.80 193.07 165.80 C 193.21 166.80 194.13 167.49 195.13 167.35 Z M 196.14 167.21 L 197.11 167.08 C 198.11 166.95 198.81 166.03 198.68 165.03 C 198.54 164.03 197.62 163.33 196.62 163.46 L 195.64 163.59 C 194.65 163.73 193.94 164.65 194.08 165.65 C 194.22 166.65 195.14 167.35 196.14 167.21 Z M 197.10 167.08 L 198.03 166.96 C 199.03 166.83 199.74 165.91 199.61 164.91 C 199.48 163.91 198.56 163.21 197.56 163.34 L 196.63 163.46 C 195.63 163.59 194.92 164.51 195.06 165.51 C 195.19 166.51 196.10 167.21 197.10 167.08 Z M 198.02 166.96 L 198.93 166.85 C 199.93 166.72 200.64 165.81 200.52 164.81 C 200.39 163.81 199.48 163.10 198.48 163.22 L 197.57 163.34 C 196.57 163.46 195.86 164.38 195.99 165.38 C 196.11 166.38 197.02 167.09 198.02 166.96 Z M 198.92 166.85 L 200.05 166.72 C 201.05 166.60 201.77 165.69 201.65 164.69 C 201.53 163.69 200.63 162.97 199.62 163.09 L 198.49 163.22 C 197.49 163.34 196.78 164.25 196.89 165.25 C 197.01 166.25 197.92 166.97 198.92 166.85 Z M 200.03 166.72 L 201.06 166.61 C 202.06 166.50 202.79 165.60 202.68 164.60 C 202.58 163.60 201.68 162.87 200.67 162.98 L 199.64 163.09 C 198.64 163.19 197.92 164.09 198.02 165.10 C 198.13 166.10 199.03 166.82 200.03 166.72 Z M 201.04 166.61 L 201.99 166.52 C 202.99 166.43 203.73 165.54 203.64 164.53 C 203.54 163.53 202.65 162.79 201.65 162.89 L 200.70 162.98 C 199.69 163.07 198.96 163.96 199.05 164.96 C 199.15 165.97 200.04 166.70 201.04 166.61 Z M 201.97 166.52 L 202.86 166.45 C 203.86 166.37 204.61 165.49 204.53 164.48 C 204.45 163.48 203.57 162.73 202.57 162.81 L 201.67 162.88 C 200.67 162.97 199.92 163.85 200.00 164.85 C 200.08 165.85 200.96 166.60 201.97 166.52 Z M 202.83 166.45 L 203.74 166.39 C 204.75 166.32 205.51 165.45 205.44 164.45 C 205.37 163.44 204.51 162.68 203.50 162.75 L 202.59 162.81 C 201.59 162.88 200.82 163.75 200.89 164.75 C 200.96 165.76 201.83 166.52 202.83 166.45 Z M 203.71 166.39 L 204.65 166.34 C 205.66 166.29 206.43 165.43 206.38 164.43 C 206.33 163.42 205.47 162.65 204.46 162.70 L 203.53 162.75 C 202.52 162.80 201.75 163.66 201.80 164.66 C 201.85 165.67 202.71 166.44 203.71 166.39 Z M 204.62 166.34 L 205.60 166.31 C 206.60 166.27 207.39 165.43 207.35 164.42 C 207.32 163.41 206.47 162.63 205.47 162.66 L 204.49 162.70 C 203.48 162.74 202.70 163.58 202.73 164.59 C 202.77 165.59 203.62 166.38 204.62 166.34 Z M 205.57 166.31 L 206.64 166.29 C 207.64 166.26 208.44 165.43 208.42 164.42 C 208.39 163.41 207.56 162.62 206.55 162.64 L 205.49 162.66 C 204.48 162.69 203.69 163.52 203.71 164.53 C 203.73 165.54 204.57 166.33 205.57 166.31 Z M 206.62 166.29 L 207.63 166.27 C 208.64 166.26 209.44 165.43 209.43 164.42 C 209.42 163.42 208.59 162.61 207.58 162.62 L 206.57 162.64 C 205.56 162.65 204.76 163.48 204.77 164.49 C 204.79 165.49 205.61 166.30 206.62 166.29 Z M 207.62 166.27 L 208.57 166.26 C 209.58 166.26 210.39 165.43 210.38 164.43 C 210.38 163.42 209.55 162.61 208.55 162.62 L 207.59 162.62 C 206.58 162.63 205.77 163.46 205.78 164.46 C 205.79 165.47 206.61 166.28 207.62 166.27 Z M 208.57 166.26 L 209.57 166.26 C 210.58 166.26 211.39 165.44 211.39 164.43 C 211.39 163.43 210.57 162.61 209.56 162.61 L 208.56 162.62 C 207.55 162.62 206.73 163.44 206.74 164.45 C 206.74 165.45 207.56 166.27 208.57 166.26 Z M 209.56 166.26 L 210.60 166.26 C 211.60 166.26 212.42 165.45 212.42 164.44 C 212.42 163.43 211.61 162.62 210.60 162.62 L 209.57 162.61 C 208.56 162.61 207.74 163.43 207.74 164.44 C 207.74 165.44 208.56 166.26 209.56 166.26 Z M 210.59 166.26 L 211.63 166.27 C 212.63 166.27 213.46 165.46 213.46 164.46 C 213.47 163.45 212.65 162.63 211.65 162.62 L 210.61 162.62 C 209.60 162.61 208.78 163.42 208.77 164.43 C 208.77 165.44 209.58 166.26 210.59 166.26 Z M 211.62 166.27 L 212.65 166.28 C 213.66 166.29 214.48 165.48 214.49 164.47 C 214.50 163.47 213.69 162.64 212.69 162.63 L 211.66 162.62 C 210.65 162.61 209.82 163.42 209.81 164.43 C 209.80 165.43 210.61 166.26 211.62 166.27 Z M 212.64 166.28 L 213.72 166.30 C 214.73 166.31 215.56 165.51 215.58 164.50 C 215.59 163.50 214.79 162.67 213.79 162.65 L 212.70 162.63 C 211.69 162.62 210.86 163.42 210.85 164.42 C 210.83 165.43 211.63 166.26 212.64 166.28 Z M 213.70 166.29 L 214.74 166.33 C 215.74 166.36 216.59 165.57 216.62 164.57 C 216.65 163.56 215.86 162.72 214.86 162.69 L 213.81 162.65 C 212.81 162.62 211.97 163.41 211.93 164.41 C 211.90 165.42 212.69 166.26 213.70 166.29 Z M 214.69 166.32 L 215.69 166.38 C 216.69 166.44 217.55 165.68 217.61 164.67 C 217.67 163.67 216.90 162.81 215.90 162.75 L 214.90 162.69 C 213.90 162.63 213.04 163.40 212.98 164.40 C 212.92 165.40 213.69 166.27 214.69 166.32 Z M 215.61 166.38 L 216.56 166.47 C 217.56 166.57 218.45 165.84 218.55 164.84 C 218.65 163.84 217.92 162.95 216.92 162.85 L 215.97 162.76 C 214.97 162.66 214.08 163.39 213.98 164.39 C 213.88 165.39 214.61 166.28 215.61 166.38 Z M 216.46 166.46 L 217.39 166.60 C 218.38 166.75 219.31 166.07 219.46 165.08 C 219.62 164.09 218.94 163.16 217.94 163.01 L 217.02 162.86 C 216.02 162.71 215.10 163.39 214.94 164.38 C 214.79 165.37 215.47 166.30 216.46 166.46 Z M 217.23 166.56 L 218.48 166.87 C 219.45 167.12 220.43 166.52 220.67 165.55 C 220.92 164.58 220.32 163.59 219.35 163.35 L 218.11 163.04 C 217.13 162.80 216.15 163.39 215.91 164.36 C 215.66 165.34 216.26 166.32 217.23 166.56 Z M 218.22 166.78 L 219.18 167.18 C 220.11 167.57 221.16 167.13 221.55 166.20 C 221.93 165.28 221.49 164.22 220.57 163.84 L 219.61 163.44 C 218.68 163.06 217.63 163.50 217.24 164.42 C 216.86 165.34 217.30 166.40 218.22 166.78 Z M 218.70 166.88 L 219.23 167.33 C 219.99 167.98 221.13 167.89 221.77 167.14 C 222.42 166.38 222.33 165.24 221.58 164.59 L 221.05 164.14 C 220.29 163.49 219.15 163.58 218.51 164.34 C 217.86 165.10 217.95 166.23 218.70 166.88 Z M 218.64 165.69 L 218.55 166.26 C 218.40 167.23 219.07 168.15 220.04 168.30 C 221.02 168.45 221.93 167.78 222.08 166.80 L 222.17 166.24 C 222.32 165.26 221.65 164.35 220.68 164.20 C 219.70 164.05 218.79 164.72 218.64 165.69 Z M 219.21 165.17 L 218.45 165.79 C 217.70 166.41 217.58 167.51 218.20 168.26 C 218.81 169.01 219.92 169.12 220.67 168.51 L 221.43 167.89 C 222.18 167.28 222.29 166.17 221.67 165.42 C 221.06 164.67 219.96 164.56 219.21 165.17 Z M 218.69 165.67 L 217.62 166.29 C 216.80 166.77 216.53 167.82 217.01 168.64 C 217.48 169.46 218.54 169.74 219.35 169.26 L 220.42 168.64 C 221.24 168.16 221.52 167.11 221.04 166.29 C 220.56 165.47 219.51 165.19 218.69 165.67 Z M 217.68 166.32 L 216.91 166.74 C 216.10 167.19 215.81 168.20 216.26 169.01 C 216.70 169.82 217.72 170.11 218.53 169.66 L 219.30 169.23 C 220.10 168.79 220.40 167.77 219.95 166.97 C 219.50 166.16 218.49 165.87 217.68 166.32 Z M 216.94 166.79 L 216.11 167.25 C 215.33 167.68 215.04 168.66 215.47 169.44 C 215.90 170.22 216.88 170.50 217.66 170.07 L 218.50 169.61 C 219.27 169.18 219.56 168.20 219.13 167.42 C 218.70 166.65 217.72 166.36 216.94 166.79 Z M 216.13 167.31 L 215.23 167.81 C 214.48 168.23 214.21 169.17 214.63 169.92 C 215.05 170.67 215.99 170.94 216.74 170.52 L 217.64 170.02 C 218.39 169.60 218.66 168.65 218.24 167.91 C 217.82 167.16 216.88 166.89 216.13 167.31 Z M 215.24 167.87 L 214.28 168.42 C 213.57 168.83 213.32 169.74 213.73 170.45 C 214.13 171.17 215.05 171.42 215.76 171.01 L 216.72 170.46 C 217.44 170.05 217.69 169.14 217.28 168.42 C 216.87 167.71 215.96 167.46 215.24 167.87 Z M 214.29 168.46 L 213.38 168.99 C 212.69 169.40 212.46 170.29 212.87 170.98 C 213.27 171.67 214.16 171.90 214.85 171.50 L 215.76 170.97 C 216.45 170.56 216.68 169.67 216.27 168.98 C 215.87 168.29 214.98 168.05 214.29 168.46 Z M 213.38 169.01 L 212.51 169.53 C 211.83 169.94 211.61 170.83 212.02 171.51 C 212.42 172.19 213.31 172.41 213.99 172.00 L 214.86 171.48 C 215.54 171.07 215.76 170.18 215.35 169.50 C 214.94 168.82 214.06 168.60 213.38 169.01 Z M 212.50 169.54 L 211.62 170.08 C 210.94 170.49 210.73 171.37 211.14 172.05 C 211.55 172.73 212.44 172.94 213.12 172.53 L 214.00 171.99 C 214.67 171.58 214.89 170.70 214.47 170.02 C 214.06 169.34 213.18 169.13 212.50 169.54 Z M 211.62 170.08 L 210.74 170.62 C 210.07 171.03 209.86 171.92 210.27 172.59 C 210.69 173.26 211.57 173.48 212.25 173.06 L 213.12 172.52 C 213.79 172.11 214.00 171.23 213.59 170.55 C 213.17 169.88 212.29 169.67 211.62 170.08 Z M 210.74 170.62 L 209.90 171.15 C 209.23 171.56 209.02 172.44 209.43 173.11 C 209.85 173.78 210.73 173.99 211.40 173.58 L 212.25 173.06 C 212.92 172.64 213.13 171.76 212.71 171.09 C 212.30 170.42 211.42 170.21 210.74 170.62 Z M 209.90 171.15 L 209.08 171.65 C 208.41 172.07 208.20 172.95 208.62 173.62 C 209.03 174.29 209.91 174.50 210.58 174.08 L 211.40 173.58 C 212.07 173.16 212.28 172.28 211.86 171.61 C 211.45 170.94 210.57 170.73 209.90 171.15 Z M 209.09 171.65 L 208.13 172.23 C 207.46 172.65 207.25 173.52 207.66 174.19 C 208.07 174.87 208.95 175.08 209.62 174.67 L 210.57 174.08 C 211.25 173.67 211.46 172.79 211.05 172.12 C 210.63 171.45 209.76 171.24 209.09 171.65 Z M 208.14 172.23 L 207.27 172.76 C 206.60 173.17 206.38 174.04 206.79 174.72 C 207.20 175.39 208.08 175.60 208.75 175.20 L 209.62 174.67 C 210.29 174.26 210.51 173.38 210.10 172.71 C 209.69 172.04 208.81 171.82 208.14 172.23 Z M 207.27 172.76 L 206.46 173.25 C 205.78 173.65 205.57 174.53 205.97 175.20 C 206.38 175.88 207.26 176.10 207.93 175.69 L 208.74 175.20 C 209.42 174.79 209.64 173.92 209.23 173.24 C 208.82 172.57 207.95 172.35 207.27 172.76 Z M 206.46 173.25 L 205.68 173.72 C 205.00 174.12 204.78 175.00 205.19 175.67 C 205.59 176.35 206.47 176.57 207.14 176.16 L 207.93 175.69 C 208.60 175.29 208.82 174.41 208.42 173.74 C 208.01 173.06 207.14 172.84 206.46 173.25 Z M 205.68 173.72 L 205.55 173.79 C 204.88 174.20 204.66 175.07 205.06 175.75 C 205.47 176.42 206.34 176.64 207.02 176.24 L 207.14 176.16 C 207.82 175.76 208.04 174.88 207.63 174.21 C 207.23 173.53 206.35 173.31 205.68 173.72 Z"
      fill="black"
      fill-rule="nonzero" /></svg>