<svg xmlns="http://www.w3.org/2000/svg" width="300" height="300" viewBox="0 0 300 300">
<path d="M 143.18 103.12 L 142.19 103.12 C 141.35 103.12 140.67 103.80 140.67 104.64 C 140.67 105.48 141.35 106.16 142.19 106.16 L 143.18 106.16 C 144.02 106.16 144.70 105.48 144.70 104.64 C 144.70 103.80 144.02 103.12 143.18 103.12 Z M 142.19 103.11 L 141.20 103.11 C 140.36 103.11 139.67 103.79 139.67 104.64 C 139.67 105.48 140.36 106.16 141.20 106.16 L 142.19 106.16 C 143.03 106.16 143.72 105.48 143.72 104.64 C 143.72 103.79 143.03 103.11 142.19 103.11 Z M 141.20 103.11 L 140.19 103.11 C 139.35 103.11 138.66 103.79 138.66 104.64 C 138.66 105.48 139.35 106.17 140.19 106.17 L 141.20 106.17 C 142.04 106.17 142.73 105.48 142.73 104.64 C 142.73 103.79 142.04 103.11 141.20 103.11 Z M 140.19 103.09 L 139.18 103.09 C 138.33 103.09 137.64 103.78 137.64 104.64 C 137.64 105.49 138.33 106.18 139.18 106.18 L 140.19 106.18 C 141.04 106.18 141.73 105.49 141.73 104.64 C 141.73 103.78 141.04 103.09 140.19 103.09 Z M 139.18 103.07 L 138.17 103.07 C 137.30 103.07 136.60 103.77 136.60 104.64 C 136.60 105.50 137.30 106.20 138.17 106.20 L 139.18 106.20 C 140.04 106.20 140.74 105.50 140.74 104.64 C 140.74 103.77 140.04 103.07 139.18 103.07 Z M 138.17 103.04 L 137.16 103.04 C 136.28 103.04 135.57 103.76 135.57 104.64 C 135.57 105.52 136.28 106.23 137.16 106.23 L 138.17 106.23 C 139.05 106.23 139.76 105.52 139.76 104.64 C 139.76 103.76 139.05 103.04 138.17 103.04 Z M 137.16 103.02 L 136.18 103.02 C 135.28 103.02 134.56 103.74 134.56 104.64 C 134.56 105.53 135.28 106.26 136.18 106.26 L 137.16 106.26 C 138.06 106.26 138.78 105.53 138.78 104.64 C 138.78 103.74 138.06 103.02 137.16 103.02 Z M 136.18 103.00 L 134.79 103.00 C 133.89 103.00 133.15 103.73 133.15 104.64 C 133.15 105.54 133.89 106.27 134.79 106.27 L 136.18 106.27 C 137.08 106.27 137.82 105.54 137.82 104.64 C 137.82 103.73 137.08 103.00 136.18 103.00 Z M 134.79 102.99 L 134.08 102.99 C 133.18 102.99 132.44 103.73 132.44 104.64 C 132.44 105.55 133.18 106.28 134.08 106.28 L 134.79 106.28 C 135.70 106.28 136.44 105.55 136.44 104.64 C 136.44 103.73 135.70 102.99 134.79 102.99 Z M 134.09 106.28 L 134.43 106.28 C 135.34 106.28 136.08 105.54 136.07 104.63 C 136.07 103.72 135.33 102.98 134.42 102.99 L 134.08 102.99 C 133.17 102.99 132.43 103.73 132.44 104.64 C 132.44 105.55 133.18 106.29 134.09 106.28 Z M 134.46 106.28 L 135.41 106.26 C 136.32 106.24 137.04 105.49 137.02 104.58 C 137.00 103.68 136.25 102.95 135.34 102.97 L 134.39 102.99 C 133.48 103.01 132.76 103.76 132.78 104.67 C 132.80 105.58 133.55 106.30 134.46 106.28 Z M 135.45 106.26 L 136.76 106.20 C 137.67 106.16 138.37 105.39 138.33 104.49 C 138.29 103.58 137.52 102.88 136.62 102.92 L 135.30 102.98 C 134.40 103.02 133.70 103.78 133.74 104.69 C 133.78 105.59 134.54 106.30 135.45 106.26 Z M 136.82 106.19 L 137.93 106.11 C 138.83 106.04 139.50 105.25 139.43 104.35 C 139.37 103.44 138.58 102.77 137.68 102.84 L 136.57 102.92 C 135.66 102.99 134.99 103.78 135.06 104.68 C 135.13 105.59 135.92 106.26 136.82 106.19 Z M 137.97 106.10 L 138.94 106.00 C 139.84 105.90 140.49 105.10 140.40 104.20 C 140.30 103.30 139.50 102.65 138.60 102.74 L 137.63 102.85 C 136.73 102.94 136.08 103.75 136.17 104.64 C 136.27 105.54 137.07 106.19 137.97 106.10 Z M 138.97 105.99 L 139.96 105.87 C 140.85 105.76 141.49 104.94 141.38 104.04 C 141.27 103.15 140.45 102.51 139.55 102.63 L 138.57 102.75 C 137.67 102.86 137.04 103.68 137.15 104.57 C 137.26 105.47 138.08 106.10 138.97 105.99 Z M 139.98 105.86 L 140.99 105.72 C 141.88 105.60 142.50 104.78 142.38 103.88 C 142.26 102.99 141.43 102.37 140.54 102.49 L 139.53 102.63 C 138.64 102.75 138.02 103.58 138.14 104.47 C 138.26 105.36 139.09 105.99 139.98 105.86 Z M 141.00 105.72 L 142.03 105.57 C 142.92 105.44 143.54 104.61 143.41 103.72 C 143.28 102.83 142.45 102.21 141.56 102.34 L 140.53 102.49 C 139.64 102.62 139.02 103.45 139.15 104.34 C 139.28 105.23 140.11 105.85 141.00 105.72 Z M 142.04 105.56 L 142.91 105.43 C 143.80 105.30 144.42 104.47 144.28 103.58 C 144.15 102.69 143.32 102.08 142.43 102.21 L 141.56 102.35 C 140.67 102.48 140.05 103.31 140.19 104.20 C 140.32 105.09 141.15 105.70 142.04 105.56 Z M 142.92 105.43 L 143.82 105.29 C 144.71 105.16 145.32 104.33 145.18 103.44 C 145.05 102.55 144.22 101.94 143.33 102.08 L 142.43 102.22 C 141.54 102.35 140.93 103.18 141.07 104.07 C 141.20 104.96 142.03 105.57 142.92 105.43 Z M 143.83 105.29 L 144.78 105.14 C 145.66 105.00 146.27 104.18 146.13 103.29 C 145.99 102.40 145.16 101.80 144.28 101.94 L 143.33 102.08 C 142.44 102.22 141.84 103.05 141.97 103.94 C 142.11 104.82 142.94 105.43 143.83 105.29 Z M 144.78 105.14 L 145.79 104.98 C 146.68 104.84 147.28 104.01 147.14 103.12 C 147.00 102.24 146.17 101.64 145.28 101.78 L 144.27 101.94 C 143.39 102.08 142.79 102.91 142.93 103.79 C 143.07 104.68 143.90 105.28 144.78 105.14 Z M 145.80 104.98 L 146.88 104.80 C 147.76 104.66 148.36 103.83 148.22 102.94 C 148.07 102.06 147.24 101.46 146.36 101.60 L 145.28 101.78 C 144.39 101.92 143.80 102.76 143.94 103.64 C 144.08 104.52 144.91 105.12 145.80 104.98 Z M 146.89 104.80 L 147.98 104.61 C 148.86 104.47 149.46 103.64 149.31 102.76 C 149.17 101.88 148.33 101.28 147.45 101.43 L 146.36 101.61 C 145.48 101.75 144.88 102.59 145.03 103.47 C 145.17 104.35 146.00 104.94 146.89 104.80 Z M 147.99 104.61 L 148.99 104.44 C 149.87 104.29 150.46 103.46 150.31 102.58 C 150.16 101.70 149.33 101.11 148.45 101.26 L 147.45 101.43 C 146.57 101.58 145.98 102.41 146.13 103.29 C 146.28 104.17 147.11 104.76 147.99 104.61 Z M 148.99 104.44 L 150.02 104.26 C 150.90 104.11 151.49 103.28 151.34 102.40 C 151.19 101.53 150.36 100.94 149.48 101.09 L 148.45 101.26 C 147.57 101.41 146.98 102.25 147.13 103.12 C 147.28 104.00 148.11 104.59 148.99 104.44 Z M 150.02 104.26 L 151.07 104.08 C 151.94 103.93 152.53 103.10 152.38 102.22 C 152.23 101.35 151.40 100.76 150.52 100.91 L 149.48 101.09 C 148.60 101.24 148.02 102.07 148.17 102.95 C 148.32 103.82 149.15 104.41 150.02 104.26 Z M 151.07 104.08 L 152.09 103.90 C 152.97 103.75 153.55 102.92 153.40 102.05 C 153.25 101.17 152.42 100.59 151.55 100.74 L 150.52 100.91 C 149.65 101.07 149.06 101.90 149.21 102.77 C 149.36 103.64 150.19 104.23 151.07 104.08 Z M 152.09 103.90 L 153.08 103.73 C 153.95 103.58 154.54 102.75 154.39 101.88 C 154.24 101.00 153.41 100.42 152.54 100.57 L 151.55 100.74 C 150.68 100.89 150.09 101.72 150.24 102.59 C 150.39 103.46 151.22 104.05 152.09 103.90 Z M 153.08 103.72 L 154.01 103.56 C 154.88 103.41 155.46 102.59 155.31 101.72 C 155.16 100.84 154.33 100.26 153.46 100.41 L 152.54 100.57 C 151.67 100.72 151.08 101.55 151.23 102.42 C 151.38 103.29 152.21 103.88 153.08 103.72 Z M 154.01 103.56 L 154.94 103.40 C 155.81 103.25 156.39 102.43 156.24 101.56 C 156.09 100.69 155.26 100.10 154.39 100.25 L 153.46 100.42 C 152.59 100.57 152.01 101.39 152.16 102.26 C 152.31 103.13 153.14 103.71 154.01 103.56 Z M 154.94 103.39 L 155.97 103.22 C 156.84 103.07 157.42 102.24 157.27 101.38 C 157.12 100.51 156.30 99.93 155.43 100.08 L 154.40 100.26 C 153.53 100.41 152.95 101.23 153.10 102.10 C 153.25 102.96 154.07 103.54 154.94 103.39 Z M 155.97 103.21 L 156.90 103.05 C 157.76 102.90 158.34 102.08 158.19 101.22 C 158.04 100.36 157.22 99.78 156.36 99.93 L 155.43 100.09 C 154.57 100.24 154.00 101.06 154.15 101.92 C 154.29 102.78 155.11 103.36 155.97 103.21 Z M 156.91 103.04 L 157.81 102.87 C 158.67 102.72 159.24 101.91 159.08 101.05 C 158.93 100.20 158.12 99.63 157.26 99.78 L 156.36 99.94 C 155.50 100.09 154.93 100.91 155.08 101.76 C 155.24 102.62 156.05 103.19 156.91 103.04 Z M 157.82 102.86 L 158.79 102.69 C 159.63 102.53 160.20 101.72 160.04 100.87 C 159.88 100.02 159.07 99.46 158.22 99.61 L 157.26 99.79 C 156.41 99.95 155.84 100.76 156.00 101.61 C 156.16 102.46 156.97 103.02 157.82 102.86 Z M 158.79 102.68 L 159.76 102.49 C 160.61 102.33 161.16 101.52 161.00 100.68 C 160.84 99.83 160.03 99.28 159.19 99.44 L 158.21 99.62 C 157.37 99.78 156.82 100.60 156.98 101.44 C 157.13 102.28 157.95 102.84 158.79 102.68 Z M 159.77 102.49 L 160.62 102.32 C 161.46 102.16 162.01 101.35 161.85 100.51 C 161.69 99.67 160.87 99.12 160.03 99.28 L 159.18 99.44 C 158.34 99.61 157.79 100.42 157.95 101.26 C 158.12 102.10 158.93 102.65 159.77 102.49 Z M 160.62 102.32 L 161.54 102.14 C 162.38 101.98 162.93 101.16 162.77 100.33 C 162.60 99.49 161.79 98.94 160.95 99.10 L 160.03 99.28 C 159.19 99.45 158.64 100.26 158.81 101.10 C 158.97 101.94 159.78 102.48 160.62 102.32 Z M 161.54 102.14 L 162.52 101.95 C 163.36 101.78 163.91 100.97 163.74 100.13 C 163.58 99.30 162.77 98.75 161.93 98.91 L 160.95 99.11 C 160.11 99.27 159.57 100.08 159.73 100.92 C 159.89 101.76 160.71 102.30 161.54 102.14 Z M 162.52 101.94 L 163.55 101.74 C 164.38 101.58 164.93 100.77 164.76 99.93 C 164.60 99.10 163.79 98.55 162.95 98.72 L 161.93 98.92 C 161.09 99.08 160.55 99.89 160.71 100.73 C 160.88 101.56 161.69 102.11 162.52 101.94 Z M 163.55 101.74 L 164.60 101.54 C 165.43 101.37 165.98 100.56 165.81 99.73 C 165.65 98.89 164.84 98.35 164.01 98.51 L 162.95 98.72 C 162.12 98.88 161.57 99.69 161.74 100.52 C 161.90 101.36 162.71 101.91 163.55 101.74 Z M 164.59 101.53 L 165.66 101.33 C 166.49 101.17 167.04 100.36 166.88 99.52 C 166.72 98.69 165.91 98.15 165.07 98.31 L 164.01 98.51 C 163.17 98.68 162.63 99.48 162.79 100.32 C 162.95 101.15 163.76 101.70 164.59 101.53 Z M 165.66 101.33 L 166.73 101.12 C 167.56 100.96 168.11 100.16 167.95 99.32 C 167.79 98.49 166.98 97.94 166.15 98.10 L 165.08 98.31 C 164.24 98.47 163.70 99.27 163.86 100.11 C 164.02 100.94 164.82 101.49 165.66 101.33 Z M 166.72 101.12 L 167.80 100.91 C 168.63 100.75 169.18 99.95 169.02 99.12 C 168.86 98.29 168.06 97.75 167.23 97.90 L 166.15 98.11 C 165.32 98.27 164.78 99.07 164.93 99.90 C 165.09 100.73 165.89 101.27 166.72 101.12 Z M 167.80 100.90 L 168.86 100.70 C 169.69 100.55 170.23 99.75 170.07 98.93 C 169.92 98.10 169.12 97.56 168.30 97.71 L 167.24 97.91 C 166.41 98.07 165.87 98.86 166.02 99.69 C 166.18 100.51 166.97 101.06 167.80 100.90 Z M 168.86 100.70 L 169.88 100.50 C 170.71 100.35 171.25 99.56 171.09 98.74 C 170.94 97.91 170.15 97.37 169.33 97.53 L 168.30 97.72 C 167.48 97.87 166.94 98.67 167.09 99.49 C 167.24 100.31 168.04 100.85 168.86 100.70 Z M 169.88 100.49 L 170.87 100.31 C 171.69 100.15 172.23 99.37 172.07 98.55 C 171.92 97.73 171.13 97.19 170.31 97.35 L 169.33 97.53 C 168.51 97.69 167.97 98.48 168.12 99.29 C 168.28 100.11 169.07 100.65 169.88 100.49 Z M 170.87 100.30 L 171.82 100.12 C 172.63 99.97 173.16 99.18 173.01 98.37 C 172.85 97.56 172.07 97.02 171.26 97.18 L 170.31 97.36 C 169.50 97.51 168.97 98.30 169.12 99.11 C 169.28 99.92 170.06 100.45 170.87 100.30 Z M 171.82 100.11 L 172.71 99.94 C 173.51 99.78 174.04 99.00 173.89 98.19 C 173.73 97.39 172.95 96.86 172.14 97.01 L 171.25 97.19 C 170.44 97.34 169.92 98.12 170.07 98.93 C 170.23 99.74 171.01 100.27 171.82 100.11 Z M 172.71 99.93 L 173.73 99.73 C 174.53 99.57 175.05 98.79 174.89 97.99 C 174.73 97.18 173.95 96.66 173.15 96.82 L 172.13 97.02 C 171.33 97.18 170.81 97.96 170.97 98.77 C 171.13 99.57 171.91 100.09 172.71 99.93 Z M 173.74 99.71 L 175.14 99.42 C 175.93 99.25 176.44 98.47 176.27 97.68 C 176.10 96.88 175.32 96.37 174.53 96.54 L 173.13 96.84 C 172.34 97.00 171.83 97.79 172.00 98.58 C 172.17 99.37 172.95 99.88 173.74 99.71 Z M 175.17 99.40 L 176.18 99.16 C 176.96 98.98 177.44 98.19 177.26 97.41 C 177.07 96.62 176.29 96.14 175.50 96.32 L 174.50 96.56 C 173.72 96.75 173.23 97.53 173.42 98.32 C 173.60 99.10 174.39 99.58 175.17 99.40 Z M 176.26 99.12 L 176.79 98.96 C 177.55 98.73 177.98 97.92 177.75 97.16 C 177.51 96.40 176.71 95.97 175.94 96.20 L 175.42 96.36 C 174.66 96.60 174.23 97.40 174.46 98.17 C 174.69 98.93 175.50 99.36 176.26 99.12 Z M 176.80 96.21 L 176.57 96.14 C 175.81 95.90 175.01 96.32 174.77 97.08 C 174.53 97.83 174.95 98.64 175.70 98.88 L 175.94 98.95 C 176.69 99.19 177.50 98.77 177.73 98.01 C 177.97 97.26 177.55 96.45 176.80 96.21 Z M 176.04 96.08 L 174.82 96.17 C 174.04 96.22 173.44 96.90 173.50 97.69 C 173.55 98.48 174.23 99.07 175.02 99.02 L 176.23 98.93 C 177.02 98.88 177.61 98.20 177.56 97.41 C 177.51 96.62 176.82 96.03 176.04 96.08 Z M 174.80 96.17 L 174.41 96.20 C 173.63 96.27 173.05 96.96 173.11 97.75 C 173.18 98.53 173.87 99.11 174.66 99.05 L 175.04 99.01 C 175.83 98.94 176.41 98.25 176.34 97.47 C 176.27 96.68 175.58 96.10 174.80 96.17 Z"
      fill="black"
      fill-rule="nonzero" /><path d="M 150.30 99.45 L 150.12 100.37 C 149.96 101.19 150.49 101.98 151.31 102.14 C 152.12 102.30 152.91 101.77 153.07 100.95 L 153.26 100.03 C 153.42 99.22 152.89 98.43 152.07 98.27 C 151.26 98.11 150.47 98.64 150.30 99.45 Z M 150.09 100.39 L 149.92 101.34 C 149.77 102.17 150.33 102.97 151.16 103.12 C 152.00 103.27 152.79 102.71 152.94 101.88 L 153.11 100.93 C 153.26 100.10 152.70 99.30 151.87 99.15 C 151.03 99.00 150.24 99.56 150.09 100.39 Z M 149.88 101.38 L 149.74 102.37 C 149.61 103.23 150.21 104.03 151.07 104.15 C 151.92 104.27 152.72 103.68 152.84 102.82 L 152.98 101.83 C 153.11 100.97 152.51 100.18 151.65 100.05 C 150.80 99.93 150.00 100.53 149.88 101.38 Z M 149.69 102.44 L 149.59 103.50 C 149.51 104.38 150.15 105.16 151.03 105.25 C 151.91 105.33 152.69 104.69 152.78 103.81 L 152.88 102.75 C 152.97 101.87 152.32 101.09 151.44 101.00 C 150.56 100.92 149.78 101.56 149.69 102.44 Z M 149.56 103.58 L 149.52 104.58 C 149.47 105.48 150.16 106.24 151.06 106.28 C 151.95 106.32 152.72 105.63 152.76 104.74 L 152.81 103.73 C 152.85 102.84 152.16 102.08 151.26 102.03 C 150.37 101.99 149.61 102.68 149.56 103.58 Z M 149.51 104.64 L 149.50 105.63 C 149.49 106.53 150.21 107.27 151.11 107.28 C 152.01 107.29 152.75 106.56 152.76 105.66 L 152.77 104.67 C 152.78 103.77 152.05 103.04 151.15 103.03 C 150.25 103.02 149.52 103.74 149.51 104.64 Z M 149.49 105.68 L 149.51 106.69 C 149.53 107.60 150.27 108.31 151.17 108.30 C 152.07 108.28 152.79 107.54 152.78 106.64 L 152.76 105.62 C 152.75 104.72 152.00 104.00 151.10 104.01 C 150.20 104.03 149.48 104.77 149.49 105.68 Z M 149.51 106.73 L 149.55 107.75 C 149.58 108.66 150.34 109.36 151.24 109.33 C 152.15 109.29 152.85 108.53 152.82 107.63 L 152.78 106.60 C 152.75 105.70 151.99 105.00 151.08 105.03 C 150.18 105.07 149.48 105.82 149.51 106.73 Z M 149.55 107.78 L 149.60 108.79 C 149.65 109.69 150.42 110.38 151.32 110.34 C 152.23 110.29 152.92 109.52 152.87 108.61 L 152.82 107.60 C 152.77 106.70 152.00 106.01 151.10 106.05 C 150.19 106.10 149.50 106.87 149.55 107.78 Z M 149.60 108.80 L 149.66 109.81 C 149.72 110.71 150.50 111.40 151.41 111.34 C 152.31 111.28 153.00 110.50 152.94 109.60 L 152.87 108.59 C 152.82 107.69 152.04 107.00 151.13 107.06 C 150.23 107.12 149.54 107.90 149.60 108.80 Z M 149.66 109.82 L 149.74 110.83 C 149.80 111.73 150.59 112.41 151.49 112.35 C 152.39 112.28 153.07 111.50 153.01 110.59 L 152.94 109.59 C 152.87 108.68 152.09 108.00 151.18 108.07 C 150.28 108.13 149.60 108.92 149.66 109.82 Z M 149.74 110.84 L 149.81 111.81 C 149.88 112.72 150.67 113.39 151.57 113.33 C 152.48 113.26 153.15 112.47 153.08 111.57 L 153.01 110.59 C 152.94 109.68 152.15 109.01 151.25 109.07 C 150.34 109.14 149.67 109.93 149.74 110.84 Z M 149.81 111.82 L 149.89 112.79 C 149.96 113.69 150.74 114.37 151.65 114.30 C 152.55 114.23 153.23 113.44 153.16 112.54 L 153.08 111.56 C 153.01 110.66 152.23 109.98 151.32 110.05 C 150.42 110.12 149.74 110.91 149.81 111.82 Z M 149.89 112.78 L 149.96 113.78 C 150.02 114.69 150.81 115.36 151.71 115.30 C 152.62 115.23 153.30 114.45 153.23 113.54 L 153.16 112.55 C 153.09 111.64 152.31 110.96 151.40 111.03 C 150.50 111.10 149.82 111.88 149.89 112.78 Z M 149.96 113.77 L 150.02 114.73 C 150.08 115.64 150.86 116.32 151.77 116.26 C 152.67 116.21 153.35 115.42 153.30 114.52 L 153.23 113.56 C 153.17 112.65 152.39 111.97 151.49 112.03 C 150.58 112.08 149.90 112.87 149.96 113.77 Z M 150.02 114.72 L 150.07 115.67 C 150.13 116.57 150.90 117.26 151.81 117.21 C 152.71 117.16 153.40 116.38 153.35 115.48 L 153.30 114.53 C 153.24 113.63 152.47 112.94 151.56 112.99 C 150.66 113.04 149.97 113.82 150.02 114.72 Z M 150.07 115.66 L 150.12 116.64 C 150.17 117.55 150.94 118.24 151.85 118.19 C 152.75 118.15 153.45 117.38 153.40 116.47 L 153.35 115.49 C 153.31 114.58 152.53 113.89 151.63 113.93 C 150.72 113.98 150.03 114.75 150.07 115.66 Z M 150.12 116.63 L 150.17 117.64 C 150.21 118.55 150.98 119.25 151.89 119.21 C 152.79 119.17 153.49 118.40 153.45 117.49 L 153.40 116.48 C 153.36 115.57 152.60 114.87 151.69 114.91 C 150.78 114.96 150.08 115.72 150.12 116.63 Z M 150.17 117.63 L 150.21 118.67 C 150.25 119.58 151.01 120.29 151.92 120.25 C 152.83 120.21 153.53 119.45 153.49 118.54 L 153.45 117.50 C 153.42 116.59 152.65 115.89 151.74 115.93 C 150.84 115.96 150.13 116.73 150.17 117.63 Z M 150.21 118.67 L 150.25 119.73 C 150.28 120.63 151.04 121.34 151.95 121.31 C 152.86 121.28 153.57 120.52 153.53 119.61 L 153.50 118.55 C 153.46 117.64 152.70 116.93 151.79 116.96 C 150.89 117.00 150.18 117.76 150.21 118.67 Z M 150.25 119.72 L 150.28 120.68 C 150.30 121.59 151.06 122.30 151.97 122.27 C 152.88 122.24 153.59 121.49 153.56 120.58 L 153.53 119.62 C 153.51 118.71 152.75 117.99 151.84 118.02 C 150.93 118.05 150.22 118.81 150.25 119.72 Z M 150.27 120.67 L 150.30 121.65 C 150.33 122.56 151.08 123.28 151.99 123.25 C 152.90 123.23 153.62 122.47 153.59 121.56 L 153.57 120.58 C 153.54 119.67 152.78 118.96 151.88 118.98 C 150.97 119.01 150.25 119.76 150.27 120.67 Z M 150.30 121.64 L 150.32 122.63 C 150.34 123.54 151.10 124.26 152.01 124.24 C 152.92 124.22 153.64 123.46 153.62 122.55 L 153.60 121.56 C 153.57 120.65 152.82 119.93 151.91 119.95 C 151.00 119.98 150.28 120.73 150.30 121.64 Z M 150.32 122.63 L 150.34 123.63 C 150.36 124.54 151.11 125.27 152.02 125.25 C 152.93 125.23 153.66 124.48 153.64 123.57 L 153.62 122.56 C 153.60 121.65 152.85 120.92 151.94 120.94 C 151.03 120.96 150.30 121.71 150.32 122.63 Z M 150.34 123.62 L 150.35 124.64 C 150.37 125.56 151.12 126.29 152.03 126.27 C 152.95 126.26 153.67 125.50 153.66 124.59 L 153.64 123.57 C 153.63 122.66 152.88 121.93 151.96 121.94 C 151.05 121.96 150.32 122.71 150.34 123.62 Z M 150.35 124.64 L 150.36 125.68 C 150.38 126.59 151.13 127.32 152.04 127.31 C 152.96 127.30 153.69 126.55 153.68 125.63 L 153.66 124.60 C 153.65 123.68 152.90 122.95 151.99 122.96 C 151.07 122.97 150.34 123.72 150.35 124.64 Z M 150.36 125.67 L 150.37 126.65 C 150.38 127.57 151.13 128.30 152.04 128.30 C 152.96 128.29 153.69 127.54 153.69 126.62 L 153.68 125.64 C 153.67 124.72 152.92 123.99 152.00 124.00 C 151.09 124.01 150.35 124.76 150.36 125.67 Z M 150.37 126.65 L 150.38 127.63 C 150.38 128.54 151.13 129.28 152.05 129.27 C 152.96 129.27 153.70 128.52 153.69 127.60 L 153.69 126.63 C 153.68 125.71 152.93 124.97 152.02 124.98 C 151.10 124.99 150.36 125.73 150.37 126.65 Z M 150.38 127.62 L 150.38 128.61 C 150.38 129.53 151.13 130.27 152.05 130.26 C 152.96 130.26 153.70 129.51 153.70 128.59 L 153.70 127.61 C 153.69 126.69 152.94 125.95 152.03 125.95 C 151.11 125.96 150.37 126.70 150.38 127.62 Z M 150.38 128.61 L 150.38 129.61 C 150.38 130.52 151.13 131.26 152.05 131.26 C 152.96 131.26 153.71 130.51 153.70 129.60 L 153.70 128.60 C 153.70 127.68 152.95 126.94 152.04 126.94 C 151.12 126.94 150.38 127.69 150.38 128.61 Z M 150.38 129.60 L 150.38 130.61 C 150.38 131.53 151.13 132.27 152.05 132.27 C 152.96 132.27 153.71 131.53 153.71 130.61 L 153.70 129.60 C 153.70 128.68 152.96 127.94 152.04 127.94 C 151.12 127.94 150.38 128.69 150.38 129.60 Z M 150.38 130.61 L 150.38 131.63 C 150.38 132.55 151.13 133.30 152.05 133.30 C 152.96 133.30 153.71 132.55 153.71 131.63 L 153.71 130.61 C 153.71 129.69 152.96 128.95 152.04 128.95 C 151.13 128.95 150.38 129.70 150.38 130.61 Z M 150.38 131.63 L 150.38 132.66 C 150.38 133.58 151.13 134.33 152.04 134.33 C 152.96 134.33 153.71 133.58 153.71 132.66 L 153.71 131.63 C 153.71 130.71 152.96 129.97 152.04 129.97 C 151.13 129.97 150.38 130.71 150.38 131.63 Z M 150.38 132.66 L 150.38 133.66 C 150.38 134.58 151.13 135.32 152.04 135.32 C 152.96 135.32 153.71 134.58 153.71 133.66 L 153.71 132.66 C 153.71 131.74 152.96 131.00 152.04 131.00 C 151.13 131.00 150.38 131.74 150.38 132.66 Z M 150.38 133.66 L 150.38 134.65 C 150.38 135.57 151.13 136.32 152.04 136.32 C 152.96 136.32 153.71 135.57 153.71 134.65 L 153.71 133.66 C 153.71 132.74 152.96 131.99 152.04 131.99 C 151.13 131.99 150.38 132.74 150.38 133.66 Z M 150.38 134.65 L 150.38 135.66 C 150.38 136.57 151.13 137.32 152.04 137.32 C 152.96 137.32 153.71 136.57 153.71 135.66 L 153.71 134.65 C 153.71 133.74 152.96 132.99 152.04 132.99 C 151.13 132.99 150.38 133.74 150.38 134.65 Z M 150.38 135.66 L 150.38 136.66 C 150.38 137.58 151.13 138.32 152.04 138.32 C 152.96 138.32 153.71 137.58 153.71 136.66 L 153.71 135.66 C 153.71 134.74 152.96 133.99 152.04 133.99 C 151.13 133.99 150.38 134.74 150.38 135.66 Z M 150.38 136.66 L 150.38 137.66 C 150.38 138.58 151.13 139.33 152.04 139.33 C 152.96 139.33 153.71 138.58 153.71 137.66 L 153.71 136.66 C 153.71 135.74 152.96 135.00 152.04 135.00 C 151.13 135.00 150.38 135.74 150.38 136.66 Z M 150.38 137.66 L 150.38 138.67 C 150.38 139.59 151.13 140.33 152.04 140.33 C 152.96 140.33 153.71 139.59 153.71 138.67 L 153.71 137.66 C 153.71 136.75 152.96 136.00 152.04 136.00 C 151.13 136.00 150.38 136.75 150.38 137.66 Z M 150.38 138.67 L 150.38 139.67 C 150.38 140.59 151.13 141.33 152.04 141.33 C 152.96 141.33 153.71 140.59 153.71 139.67 L 153.71 138.67 C 153.71 137.75 152.96 137.00 152.04 137.00 C 151.13 137.00 150.38 137.75 150.38 138.67 Z M 150.38 139.67 L 150.38 140.68 C 150.38 141.60 151.13 142.34 152.04 142.34 C 152.96 142.34 153.71 141.60 153.71 140.68 L 153.71 139.67 C 153.71 138.75 152.96 138.01 152.04 138.01 C 151.13 138.01 150.38 138.75 150.38 139.67 Z M 150.38 140.68 L 150.38 141.69 C 150.38 142.61 151.12 143.35 152.04 143.35 C 152.96 143.35 153.70 142.61 153.70 141.69 L 153.71 140.68 C 153.71 139.76 152.96 139.02 152.05 139.02 C 151.13 139.02 150.38 139.76 150.38 140.68 Z M 150.38 141.68 L 150.38 142.69 C 150.38 143.61 151.12 144.35 152.03 144.36 C 152.95 144.36 153.70 143.62 153.70 142.70 L 153.70 141.70 C 153.71 140.78 152.97 140.03 152.05 140.03 C 151.13 140.03 150.39 140.77 150.38 141.68 Z M 150.38 142.68 L 150.37 143.69 C 150.36 144.60 151.10 145.35 152.02 145.36 C 152.93 145.37 153.68 144.63 153.69 143.71 L 153.70 142.71 C 153.71 141.79 152.97 141.05 152.05 141.04 C 151.14 141.03 150.39 141.77 150.38 142.68 Z M 150.37 143.68 L 150.36 144.67 C 150.35 145.59 151.08 146.34 151.99 146.35 C 152.91 146.37 153.66 145.63 153.68 144.72 L 153.69 143.72 C 153.70 142.81 152.97 142.05 152.05 142.04 C 151.14 142.03 150.38 142.76 150.37 143.68 Z M 150.36 144.66 L 150.34 145.65 C 150.32 146.57 151.04 147.32 151.96 147.34 C 152.88 147.36 153.64 146.64 153.65 145.72 L 153.68 144.73 C 153.70 143.81 152.97 143.06 152.05 143.04 C 151.14 143.02 150.38 143.74 150.36 144.66 Z M 150.34 145.63 L 150.31 146.62 C 150.28 147.53 151.00 148.30 151.92 148.33 C 152.83 148.36 153.60 147.64 153.62 146.72 L 153.65 145.74 C 153.68 144.82 152.96 144.06 152.05 144.03 C 151.13 144.00 150.37 144.72 150.34 145.63 Z M 150.31 146.60 L 150.27 147.60 C 150.23 148.52 150.94 149.29 151.86 149.33 C 152.77 149.36 153.54 148.65 153.58 147.74 L 153.62 146.74 C 153.66 145.82 152.95 145.05 152.03 145.01 C 151.12 144.98 150.35 145.69 150.31 146.60 Z M 150.27 147.58 L 150.22 148.58 C 150.17 149.50 150.87 150.28 151.79 150.32 C 152.70 150.37 153.48 149.67 153.53 148.76 L 153.58 147.75 C 153.63 146.84 152.92 146.06 152.01 146.02 C 151.10 145.97 150.32 146.67 150.27 147.58 Z M 150.22 148.57 L 150.16 149.57 C 150.10 150.48 150.80 151.26 151.71 151.32 C 152.62 151.38 153.41 150.68 153.46 149.77 L 153.53 148.77 C 153.58 147.86 152.89 147.07 151.97 147.02 C 151.06 146.96 150.28 147.66 150.22 148.57 Z M 150.16 149.55 L 150.09 150.55 C 150.03 151.46 150.72 152.25 151.63 152.31 C 152.54 152.38 153.33 151.69 153.39 150.78 L 153.46 149.78 C 153.53 148.87 152.84 148.08 151.93 148.02 C 151.02 147.96 150.23 148.64 150.16 149.55 Z M 150.10 150.54 L 150.02 151.53 C 149.95 152.44 150.63 153.24 151.54 153.31 C 152.45 153.38 153.25 152.69 153.32 151.78 L 153.39 150.79 C 153.46 149.88 152.78 149.08 151.87 149.02 C 150.96 148.95 150.16 149.63 150.10 150.54 Z M 150.02 151.52 L 149.94 152.52 C 149.87 153.43 150.54 154.22 151.45 154.30 C 152.36 154.37 153.16 153.70 153.23 152.79 L 153.31 151.79 C 153.39 150.88 152.71 150.09 151.80 150.01 C 150.89 149.94 150.10 150.62 150.02 151.52 Z M 149.94 152.51 L 149.86 153.51 C 149.78 154.42 150.45 155.22 151.36 155.29 C 152.27 155.37 153.07 154.70 153.15 153.79 L 153.23 152.79 C 153.31 151.89 152.64 151.09 151.73 151.01 C 150.82 150.93 150.02 151.60 149.94 152.51 Z M 149.86 153.50 L 149.77 154.54 C 149.69 155.44 150.36 156.24 151.26 156.32 C 152.17 156.40 152.97 155.73 153.05 154.83 L 153.14 153.79 C 153.22 152.89 152.55 152.09 151.65 152.01 C 150.74 151.93 149.94 152.60 149.86 153.50 Z M 149.77 154.53 L 149.68 155.57 C 149.59 156.47 150.26 157.27 151.17 157.35 C 152.07 157.44 152.87 156.77 152.96 155.86 L 153.05 154.83 C 153.13 153.93 152.46 153.12 151.56 153.04 C 150.65 152.96 149.85 153.63 149.77 154.53 Z M 149.68 155.56 L 149.58 156.58 C 149.50 157.49 150.16 158.29 151.07 158.38 C 151.97 158.46 152.77 157.79 152.86 156.89 L 152.95 155.87 C 153.04 154.96 152.37 154.16 151.47 154.08 C 150.56 153.99 149.76 154.66 149.68 155.56 Z M 149.59 156.58 L 149.49 157.59 C 149.40 158.49 150.07 159.29 150.97 159.38 C 151.87 159.46 152.68 158.80 152.76 157.90 L 152.86 156.89 C 152.94 155.99 152.28 155.19 151.38 155.10 C 150.47 155.02 149.67 155.68 149.59 156.58 Z M 149.49 157.58 L 149.40 158.57 C 149.31 159.47 149.97 160.27 150.87 160.36 C 151.77 160.44 152.58 159.78 152.66 158.88 L 152.76 157.90 C 152.85 157.00 152.19 156.20 151.28 156.11 C 150.38 156.02 149.58 156.68 149.49 157.58 Z M 149.40 158.56 L 149.31 159.51 C 149.22 160.41 149.88 161.22 150.78 161.31 C 151.68 161.39 152.48 160.74 152.57 159.83 L 152.66 158.88 C 152.75 157.98 152.09 157.18 151.19 157.09 C 150.29 157.00 149.49 157.66 149.40 158.56 Z M 149.31 159.51 L 149.21 160.50 C 149.12 161.40 149.78 162.20 150.68 162.29 C 151.58 162.38 152.38 161.72 152.47 160.82 L 152.57 159.84 C 152.66 158.94 152.00 158.13 151.10 158.04 C 150.20 157.96 149.40 158.61 149.31 159.51 Z M 149.21 160.50 L 149.10 161.58 C 149.01 162.47 149.67 163.28 150.57 163.37 C 151.46 163.46 152.26 162.80 152.36 161.91 L 152.46 160.82 C 152.56 159.93 151.90 159.13 151.00 159.03 C 150.11 158.94 149.30 159.60 149.21 160.50 Z M 149.11 161.58 L 149.00 162.60 C 148.91 163.50 149.56 164.30 150.46 164.39 C 151.36 164.48 152.16 163.83 152.25 162.93 L 152.35 161.91 C 152.44 161.01 151.79 160.21 150.89 160.12 C 150.00 160.03 149.20 160.68 149.11 161.58 Z M 149.01 162.60 L 148.91 163.58 C 148.82 164.47 149.47 165.27 150.36 165.36 C 151.25 165.45 152.05 164.80 152.14 163.91 L 152.24 162.93 C 152.33 162.04 151.68 161.24 150.79 161.15 C 149.90 161.06 149.10 161.71 149.01 162.60 Z M 148.91 163.58 L 148.82 164.52 C 148.73 165.41 149.38 166.20 150.27 166.29 C 151.16 166.38 151.95 165.73 152.04 164.84 L 152.14 163.91 C 152.23 163.01 151.58 162.22 150.69 162.13 C 149.80 162.04 149.00 162.69 148.91 163.58 Z M 148.82 164.52 L 148.73 165.43 C 148.64 166.32 149.29 167.11 150.18 167.20 C 151.07 167.29 151.86 166.64 151.95 165.75 L 152.04 164.84 C 152.13 163.95 151.48 163.16 150.59 163.07 C 149.70 162.98 148.91 163.63 148.82 164.52 Z M 148.73 165.44 L 148.64 166.41 C 148.55 167.29 149.20 168.08 150.09 168.17 C 150.98 168.25 151.77 167.60 151.85 166.72 L 151.95 165.75 C 152.03 164.86 151.38 164.07 150.49 163.99 C 149.61 163.90 148.82 164.55 148.73 165.44 Z M 148.64 166.41 L 148.55 167.38 C 148.47 168.26 149.12 169.05 150.01 169.13 C 150.89 169.21 151.68 168.56 151.76 167.67 L 151.85 166.71 C 151.93 165.83 151.28 165.04 150.39 164.96 C 149.51 164.88 148.73 165.53 148.64 166.41 Z M 148.56 167.39 L 148.47 168.37 C 148.40 169.25 149.05 170.03 149.93 170.10 C 150.81 170.18 151.59 169.53 151.67 168.65 L 151.75 167.67 C 151.83 166.78 151.18 166.01 150.30 165.93 C 149.41 165.85 148.64 166.50 148.56 167.39 Z M 148.48 168.38 L 148.39 169.40 C 148.32 170.28 148.98 171.05 149.86 171.12 C 150.73 171.19 151.51 170.54 151.58 169.66 L 151.66 168.64 C 151.74 167.76 151.08 166.99 150.20 166.91 C 149.32 166.84 148.55 167.50 148.48 168.38 Z M 148.40 169.40 L 148.32 170.45 C 148.25 171.32 148.91 172.09 149.78 172.16 C 150.66 172.23 151.43 171.57 151.49 170.69 L 151.57 169.65 C 151.64 168.77 150.99 168.01 150.11 167.94 C 149.23 167.87 148.47 168.53 148.40 169.40 Z M 148.32 170.46 L 148.25 171.47 C 148.19 172.34 148.84 173.10 149.72 173.16 C 150.59 173.23 151.35 172.57 151.42 171.69 L 151.49 170.68 C 151.55 169.81 150.89 169.05 150.02 168.99 C 149.15 168.92 148.39 169.58 148.32 170.46 Z M 148.25 171.48 L 148.19 172.51 C 148.13 173.38 148.79 174.14 149.66 174.19 C 150.53 174.25 151.29 173.59 151.34 172.72 L 151.41 171.68 C 151.47 170.81 150.81 170.06 149.94 170.00 C 149.07 169.94 148.31 170.60 148.25 171.48 Z M 148.19 172.52 L 148.13 173.55 C 148.08 174.42 148.74 175.17 149.61 175.22 C 150.48 175.27 151.23 174.60 151.28 173.74 L 151.34 172.71 C 151.39 171.84 150.73 171.09 149.86 171.04 C 148.99 170.99 148.24 171.65 148.19 172.52 Z M 148.14 173.57 L 148.09 174.56 C 148.04 175.43 148.71 176.16 149.58 176.21 C 150.44 176.25 151.18 175.58 151.22 174.72 L 151.27 173.72 C 151.32 172.85 150.65 172.12 149.78 172.07 C 148.92 172.03 148.18 172.70 148.14 173.57 Z M 148.09 174.58 L 148.06 175.51 C 148.03 176.38 148.70 177.10 149.56 177.14 C 150.43 177.17 151.15 176.49 151.19 175.63 L 151.22 174.70 C 151.25 173.83 150.58 173.11 149.71 173.07 C 148.85 173.04 148.12 173.72 148.09 174.58 Z M 148.07 175.57 L 148.07 176.93 C 148.07 177.79 148.76 178.49 149.62 178.49 C 150.47 178.49 151.17 177.80 151.17 176.94 L 151.17 175.57 C 151.17 174.72 150.48 174.02 149.62 174.02 C 148.77 174.02 148.07 174.71 148.07 175.57 Z M 148.11 177.19 L 148.27 178.15 C 148.41 178.99 149.20 179.55 150.03 179.41 C 150.86 179.27 151.43 178.48 151.29 177.65 L 151.13 176.69 C 150.99 175.85 150.20 175.29 149.37 175.43 C 148.54 175.57 147.97 176.36 148.11 177.19 Z M 148.85 179.09 L 149.29 179.43 C 149.95 179.94 150.90 179.83 151.41 179.17 C 151.92 178.52 151.80 177.57 151.15 177.06 L 150.71 176.71 C 150.05 176.20 149.10 176.32 148.59 176.98 C 148.08 177.63 148.20 178.58 148.85 179.09 Z M 150.78 179.62 L 151.32 179.40 C 152.08 179.09 152.45 178.23 152.14 177.47 C 151.84 176.71 150.97 176.34 150.21 176.65 L 149.66 176.87 C 148.90 177.17 148.53 178.04 148.84 178.80 C 149.15 179.56 150.02 179.93 150.78 179.62 Z M 151.67 179.19 L 152.34 178.66 C 152.98 178.16 153.10 177.24 152.60 176.60 C 152.10 175.95 151.18 175.84 150.53 176.34 L 149.86 176.86 C 149.22 177.36 149.11 178.29 149.60 178.93 C 150.10 179.57 151.03 179.68 151.67 179.19 Z M 152.44 178.56 L 153.23 177.81 C 153.81 177.26 153.83 176.34 153.28 175.75 C 152.72 175.17 151.80 175.14 151.22 175.70 L 150.43 176.44 C 149.85 177.00 149.83 177.92 150.38 178.51 C 150.94 179.09 151.86 179.11 152.44 178.56 Z M 153.26 177.76 L 154.11 176.88 C 154.67 176.30 154.65 175.39 154.08 174.84 C 153.50 174.28 152.59 174.30 152.03 174.87 L 151.18 175.75 C 150.63 176.33 150.64 177.24 151.22 177.79 C 151.79 178.35 152.71 178.33 153.26 177.76 Z M 154.12 176.86 L 154.68 176.26 C 155.22 175.69 155.19 174.78 154.61 174.24 C 154.04 173.69 153.13 173.72 152.59 174.30 L 152.03 174.89 C 151.49 175.47 151.52 176.38 152.09 176.92 C 152.67 177.46 153.58 177.43 154.12 176.86 Z"
      fill="black"
      fill-rule="nonzero" /><path d="M 171.75 102.37 L 171.43 103.24 C 171.13 104.04 171.53 104.94 172.34 105.24 C 173.14 105.54 174.04 105.14 174.34 104.33 L 174.67 103.46 C 174.97 102.66 174.56 101.76 173.76 101.46 C 172.95 101.16 172.06 101.56 171.75 102.37 Z M 171.38 103.25 L 171.06 104.14 C 170.77 104.97 171.20 105.89 172.03 106.18 C 172.86 106.48 173.78 106.04 174.07 105.21 L 174.39 104.32 C 174.69 103.49 174.25 102.58 173.42 102.28 C 172.59 101.98 171.68 102.42 171.38 103.25 Z M 171.01 104.18 L 170.71 105.13 C 170.43 105.99 170.90 106.91 171.77 107.18 C 172.63 107.46 173.55 106.99 173.82 106.13 L 174.13 105.18 C 174.40 104.32 173.93 103.40 173.07 103.12 C 172.20 102.84 171.28 103.32 171.01 104.18 Z M 170.65 105.19 L 170.37 106.22 C 170.12 107.11 170.65 108.03 171.54 108.27 C 172.43 108.52 173.36 107.99 173.60 107.10 L 173.88 106.07 C 174.12 105.17 173.60 104.25 172.70 104.01 C 171.81 103.77 170.89 104.29 170.65 105.19 Z M 170.32 106.28 L 170.09 107.29 C 169.89 108.21 170.47 109.12 171.39 109.32 C 172.30 109.53 173.22 108.95 173.42 108.03 L 173.65 107.03 C 173.85 106.11 173.27 105.20 172.36 104.99 C 171.44 104.79 170.53 105.37 170.32 106.28 Z M 170.07 107.35 L 169.89 108.32 C 169.72 109.25 170.33 110.14 171.26 110.32 C 172.19 110.49 173.09 109.88 173.26 108.95 L 173.44 107.97 C 173.62 107.04 173.00 106.15 172.07 105.98 C 171.14 105.80 170.25 106.42 170.07 107.35 Z M 169.88 108.36 L 169.72 109.37 C 169.57 110.30 170.21 111.18 171.14 111.33 C 172.08 111.48 172.96 110.85 173.11 109.91 L 173.27 108.90 C 173.42 107.97 172.78 107.09 171.85 106.94 C 170.91 106.79 170.03 107.42 169.88 108.36 Z M 169.72 109.40 L 169.57 110.42 C 169.44 111.36 170.09 112.23 171.03 112.36 C 171.97 112.49 172.84 111.84 172.97 110.90 L 173.12 109.88 C 173.25 108.94 172.59 108.07 171.66 107.94 C 170.72 107.81 169.85 108.46 169.72 109.40 Z M 169.57 110.44 L 169.44 111.45 C 169.32 112.39 169.98 113.25 170.93 113.37 C 171.87 113.49 172.73 112.83 172.85 111.89 L 172.98 110.88 C 173.10 109.94 172.43 109.08 171.49 108.96 C 170.55 108.84 169.69 109.50 169.57 110.44 Z M 169.43 111.47 L 169.32 112.44 C 169.21 113.38 169.88 114.23 170.83 114.34 C 171.77 114.46 172.63 113.78 172.74 112.84 L 172.85 111.87 C 172.96 110.93 172.29 110.07 171.34 109.96 C 170.40 109.85 169.55 110.52 169.43 111.47 Z M 169.32 112.45 L 169.20 113.51 C 169.10 114.45 169.78 115.30 170.72 115.41 C 171.67 115.51 172.52 114.83 172.62 113.89 L 172.74 112.83 C 172.84 111.88 172.16 111.03 171.22 110.93 C 170.27 110.82 169.42 111.50 169.32 112.45 Z M 169.20 113.52 L 169.09 114.52 C 169.00 115.47 169.68 116.31 170.63 116.41 C 171.57 116.51 172.42 115.82 172.52 114.88 L 172.62 113.88 C 172.72 112.93 172.04 112.08 171.09 111.99 C 170.15 111.89 169.30 112.57 169.20 113.52 Z M 169.09 114.53 L 169.00 115.50 C 168.90 116.44 169.59 117.29 170.54 117.38 C 171.48 117.48 172.33 116.79 172.42 115.84 L 172.52 114.87 C 172.62 113.93 171.93 113.08 170.98 112.99 C 170.03 112.89 169.19 113.58 169.09 114.53 Z M 168.99 115.50 L 168.90 116.46 C 168.81 117.41 169.50 118.25 170.45 118.34 C 171.39 118.44 172.24 117.74 172.33 116.80 L 172.42 115.84 C 172.52 114.89 171.83 114.05 170.88 113.95 C 169.93 113.86 169.09 114.55 168.99 115.50 Z M 168.90 116.46 L 168.80 117.42 C 168.71 118.37 169.40 119.22 170.35 119.31 C 171.30 119.40 172.14 118.71 172.24 117.76 L 172.33 116.80 C 172.42 115.85 171.73 115.01 170.78 114.91 C 169.84 114.82 168.99 115.51 168.90 116.46 Z M 168.80 117.42 L 168.71 118.37 C 168.62 119.32 169.31 120.17 170.25 120.26 C 171.20 120.35 172.05 119.66 172.14 118.72 L 172.24 117.76 C 172.33 116.82 171.64 115.97 170.69 115.88 C 169.74 115.78 168.90 116.48 168.80 117.42 Z M 168.71 118.37 L 168.61 119.35 C 168.52 120.30 169.21 121.15 170.15 121.24 C 171.10 121.34 171.95 120.65 172.04 119.70 L 172.14 118.72 C 172.24 117.77 171.55 116.92 170.60 116.83 C 169.65 116.73 168.81 117.42 168.71 118.37 Z M 168.61 119.35 L 168.51 120.36 C 168.41 121.30 169.10 122.15 170.05 122.25 C 171.00 122.34 171.85 121.65 171.94 120.70 L 172.04 119.70 C 172.14 118.75 171.45 117.90 170.50 117.81 C 169.55 117.71 168.71 118.40 168.61 119.35 Z M 168.51 120.36 L 168.41 121.38 C 168.31 122.33 169.00 123.18 169.95 123.27 C 170.90 123.37 171.74 122.68 171.84 121.73 L 171.94 120.70 C 172.04 119.76 171.35 118.91 170.40 118.81 C 169.45 118.72 168.60 119.41 168.51 120.36 Z M 168.41 121.38 L 168.30 122.41 C 168.21 123.36 168.90 124.20 169.85 124.30 C 170.80 124.39 171.64 123.70 171.74 122.75 L 171.84 121.73 C 171.93 120.78 171.24 119.93 170.29 119.84 C 169.35 119.74 168.50 120.43 168.41 121.38 Z M 168.30 122.41 L 168.21 123.38 C 168.11 124.33 168.80 125.17 169.75 125.27 C 170.70 125.36 171.55 124.67 171.64 123.72 L 171.74 122.75 C 171.83 121.80 171.14 120.96 170.19 120.86 C 169.24 120.77 168.40 121.46 168.30 122.41 Z M 168.21 123.38 L 168.11 124.35 C 168.01 125.30 168.70 126.15 169.65 126.24 C 170.60 126.34 171.45 125.65 171.54 124.70 L 171.64 123.72 C 171.74 122.77 171.04 121.93 170.10 121.83 C 169.15 121.74 168.30 122.43 168.21 123.38 Z M 168.11 124.35 L 168.01 125.34 C 167.91 126.29 168.60 127.14 169.55 127.24 C 170.49 127.33 171.34 126.64 171.44 125.70 L 171.54 124.70 C 171.64 123.76 170.95 122.91 170.00 122.81 C 169.05 122.71 168.20 123.40 168.11 124.35 Z M 168.01 125.34 L 167.90 126.34 C 167.80 127.29 168.48 128.14 169.43 128.24 C 170.38 128.34 171.23 127.66 171.33 126.71 L 171.44 125.70 C 171.54 124.75 170.85 123.90 169.90 123.80 C 168.96 123.70 168.11 124.39 168.01 125.34 Z M 167.90 126.33 L 167.79 127.35 C 167.68 128.30 168.36 129.16 169.31 129.26 C 170.26 129.37 171.11 128.68 171.22 127.74 L 171.33 126.72 C 171.44 125.77 170.75 124.91 169.81 124.81 C 168.86 124.70 168.00 125.39 167.90 126.33 Z M 167.79 127.34 L 167.67 128.33 C 167.56 129.27 168.24 130.13 169.19 130.24 C 170.13 130.35 170.99 129.67 171.10 128.73 L 171.22 127.75 C 171.33 126.80 170.65 125.94 169.70 125.83 C 168.76 125.72 167.90 126.40 167.79 127.34 Z M 167.67 128.32 L 167.55 129.29 C 167.44 130.23 168.11 131.09 169.06 131.21 C 170.01 131.32 170.87 130.65 170.98 129.70 L 171.10 128.74 C 171.22 127.79 170.54 126.93 169.60 126.81 C 168.65 126.70 167.79 127.37 167.67 128.32 Z M 167.56 129.28 L 167.43 130.27 C 167.32 131.21 167.99 132.07 168.93 132.19 C 169.88 132.31 170.74 131.64 170.86 130.69 L 170.98 129.71 C 171.10 128.76 170.43 127.90 169.48 127.78 C 168.54 127.66 167.67 128.34 167.56 129.28 Z M 167.43 130.26 L 167.31 131.26 C 167.19 132.21 167.86 133.07 168.81 133.19 C 169.75 133.31 170.62 132.63 170.73 131.69 L 170.86 130.69 C 170.98 129.75 170.31 128.88 169.36 128.77 C 168.41 128.65 167.55 129.32 167.43 130.26 Z M 167.31 131.26 L 167.18 132.27 C 167.07 133.22 167.74 134.08 168.68 134.20 C 169.63 134.31 170.49 133.64 170.61 132.70 L 170.73 131.69 C 170.85 130.74 170.18 129.88 169.23 129.76 C 168.29 129.64 167.43 130.32 167.31 131.26 Z M 167.18 132.27 L 167.06 133.29 C 166.94 134.24 167.62 135.10 168.56 135.22 C 169.51 135.33 170.37 134.66 170.48 133.71 L 170.61 132.69 C 170.72 131.74 170.05 130.88 169.10 130.77 C 168.16 130.65 167.30 131.33 167.18 132.27 Z M 167.06 133.30 L 166.94 134.29 C 166.83 135.24 167.51 136.09 168.45 136.21 C 169.40 136.32 170.26 135.64 170.37 134.69 L 170.49 133.70 C 170.60 132.76 169.92 131.90 168.97 131.79 C 168.03 131.68 167.17 132.36 167.06 133.30 Z M 166.94 134.30 L 166.83 135.28 C 166.72 136.22 167.40 137.08 168.35 137.19 C 169.30 137.29 170.15 136.61 170.26 135.67 L 170.37 134.69 C 170.48 133.74 169.80 132.89 168.85 132.78 C 167.90 132.67 167.05 133.35 166.94 134.30 Z M 166.83 135.28 L 166.72 136.27 C 166.61 137.22 167.30 138.07 168.24 138.18 C 169.19 138.28 170.04 137.60 170.15 136.65 L 170.26 135.66 C 170.36 134.72 169.68 133.86 168.73 133.76 C 167.79 133.65 166.94 134.34 166.83 135.28 Z M 166.72 136.27 L 166.61 137.27 C 166.51 138.22 167.19 139.07 168.14 139.17 C 169.08 139.28 169.93 138.59 170.04 137.65 L 170.15 136.65 C 170.25 135.70 169.57 134.85 168.62 134.75 C 167.68 134.64 166.82 135.33 166.72 136.27 Z M 166.61 137.27 L 166.50 138.27 C 166.40 139.22 167.08 140.07 168.03 140.17 C 168.97 140.28 169.82 139.59 169.93 138.65 L 170.04 137.65 C 170.14 136.70 169.46 135.85 168.51 135.74 C 167.57 135.64 166.71 136.32 166.61 137.27 Z M 166.50 138.27 L 166.39 139.28 C 166.28 140.22 166.97 141.07 167.91 141.18 C 168.86 141.28 169.71 140.60 169.82 139.66 L 169.93 138.65 C 170.03 137.70 169.35 136.85 168.40 136.75 C 167.46 136.64 166.61 137.32 166.50 138.27 Z M 166.39 139.27 L 166.28 140.27 C 166.17 141.22 166.85 142.07 167.80 142.18 C 168.74 142.29 169.60 141.61 169.70 140.66 L 169.82 139.66 C 169.92 138.71 169.24 137.86 168.30 137.75 C 167.35 137.65 166.50 138.33 166.39 139.27 Z M 166.28 140.27 L 166.16 141.26 C 166.05 142.21 166.73 143.06 167.68 143.17 C 168.62 143.28 169.48 142.60 169.59 141.66 L 169.70 140.67 C 169.81 139.72 169.13 138.87 168.19 138.76 C 167.24 138.65 166.39 139.33 166.28 140.27 Z M 166.16 141.26 L 166.05 142.25 C 165.94 143.20 166.61 144.05 167.56 144.16 C 168.50 144.28 169.36 143.60 169.47 142.66 L 169.59 141.66 C 169.70 140.72 169.02 139.86 168.08 139.75 C 167.13 139.64 166.28 140.31 166.16 141.26 Z M 166.05 142.25 L 165.93 143.24 C 165.82 144.19 166.49 145.04 167.43 145.16 C 168.38 145.27 169.23 144.60 169.35 143.65 L 169.47 142.66 C 169.58 141.71 168.91 140.86 167.96 140.74 C 167.02 140.63 166.16 141.30 166.05 142.25 Z M 165.93 143.24 L 165.81 144.24 C 165.69 145.18 166.37 146.04 167.31 146.15 C 168.25 146.27 169.11 145.59 169.23 144.65 L 169.35 143.66 C 169.46 142.71 168.79 141.85 167.85 141.74 C 166.90 141.63 166.04 142.30 165.93 143.24 Z M 165.81 144.23 L 165.69 145.23 C 165.57 146.17 166.24 147.03 167.19 147.14 C 168.13 147.26 168.99 146.59 169.10 145.65 L 169.23 144.65 C 169.34 143.71 168.67 142.85 167.73 142.73 C 166.78 142.62 165.93 143.29 165.81 144.23 Z M 165.69 145.23 L 165.57 146.22 C 165.45 147.16 166.12 148.02 167.06 148.13 C 168.01 148.25 168.86 147.58 168.98 146.64 L 169.10 145.65 C 169.22 144.70 168.55 143.85 167.61 143.73 C 166.66 143.61 165.81 144.28 165.69 145.23 Z M 165.57 146.22 L 165.45 147.20 C 165.33 148.15 166.00 149.01 166.94 149.12 C 167.88 149.24 168.74 148.57 168.86 147.63 L 168.98 146.64 C 169.10 145.70 168.43 144.84 167.48 144.72 C 166.54 144.60 165.68 145.27 165.57 146.22 Z M 165.45 147.20 L 165.32 148.19 C 165.21 149.13 165.88 149.99 166.82 150.11 C 167.76 150.22 168.62 149.56 168.73 148.61 L 168.86 147.63 C 168.97 146.68 168.30 145.83 167.36 145.71 C 166.42 145.59 165.56 146.26 165.45 147.20 Z M 165.33 148.19 L 165.20 149.18 C 165.09 150.12 165.76 150.98 166.70 151.09 C 167.64 151.21 168.50 150.54 168.61 149.60 L 168.73 148.61 C 168.85 147.67 168.18 146.81 167.24 146.70 C 166.30 146.58 165.44 147.25 165.33 148.19 Z M 165.20 149.18 L 165.09 150.17 C 164.97 151.12 165.64 151.97 166.58 152.08 C 167.52 152.20 168.38 151.53 168.49 150.59 L 168.61 149.60 C 168.73 148.66 168.06 147.80 167.11 147.69 C 166.17 147.57 165.32 148.24 165.20 149.18 Z M 165.09 150.18 L 164.97 151.17 C 164.86 152.11 165.53 152.97 166.47 153.08 C 167.41 153.19 168.26 152.52 168.37 151.58 L 168.49 150.58 C 168.60 149.64 167.93 148.79 166.99 148.68 C 166.05 148.57 165.20 149.24 165.09 150.18 Z M 164.97 151.18 L 164.85 152.18 C 164.74 153.12 165.42 153.97 166.36 154.08 C 167.30 154.19 168.15 153.51 168.26 152.57 L 168.37 151.57 C 168.48 150.63 167.81 149.78 166.87 149.67 C 165.93 149.56 165.08 150.24 164.97 151.18 Z M 164.85 152.19 L 164.74 153.20 C 164.64 154.14 165.31 154.98 166.25 155.09 C 167.19 155.19 168.04 154.52 168.14 153.58 L 168.26 152.57 C 168.36 151.63 167.69 150.78 166.75 150.67 C 165.81 150.57 164.96 151.25 164.85 152.19 Z M 164.74 153.20 L 164.63 154.22 C 164.53 155.16 165.21 156.01 166.15 156.11 C 167.09 156.21 167.93 155.53 168.03 154.59 L 168.14 153.57 C 168.24 152.63 167.57 151.79 166.63 151.69 C 165.69 151.58 164.84 152.26 164.74 153.20 Z M 164.63 154.23 L 164.53 155.25 C 164.43 156.19 165.11 157.03 166.05 157.13 C 166.99 157.22 167.83 156.54 167.93 155.60 L 168.03 154.58 C 168.13 153.65 167.45 152.81 166.51 152.71 C 165.57 152.61 164.73 153.29 164.63 154.23 Z M 164.53 155.25 L 164.42 156.26 C 164.33 157.20 165.01 158.04 165.95 158.14 C 166.89 158.23 167.72 157.55 167.82 156.61 L 167.92 155.60 C 168.02 154.66 167.34 153.82 166.40 153.73 C 165.46 153.63 164.62 154.31 164.53 155.25 Z M 164.43 156.27 L 164.33 157.26 C 164.23 158.20 164.91 159.04 165.85 159.13 C 166.79 159.22 167.62 158.54 167.72 157.61 L 167.82 156.61 C 167.91 155.67 167.23 154.84 166.29 154.74 C 165.36 154.65 164.52 155.33 164.43 156.27 Z M 164.33 157.26 L 164.23 158.24 C 164.14 159.17 164.82 160.01 165.76 160.10 C 166.69 160.19 167.53 159.51 167.62 158.58 L 167.72 157.60 C 167.81 156.67 167.13 155.83 166.19 155.74 C 165.26 155.65 164.42 156.33 164.33 157.26 Z M 164.23 158.24 L 164.14 159.18 C 164.05 160.12 164.73 160.95 165.66 161.04 C 166.60 161.14 167.43 160.45 167.52 159.52 L 167.62 158.58 C 167.71 157.64 167.03 156.81 166.09 156.72 C 165.16 156.62 164.33 157.30 164.23 158.24 Z M 164.14 159.18 L 164.03 160.25 C 163.94 161.19 164.62 162.02 165.55 162.11 C 166.49 162.20 167.32 161.52 167.41 160.59 L 167.52 159.52 C 167.61 158.59 166.93 157.75 166.00 157.66 C 165.07 157.57 164.24 158.25 164.14 159.18 Z M 164.04 160.25 L 163.93 161.29 C 163.84 162.22 164.52 163.05 165.45 163.14 C 166.38 163.24 167.21 162.56 167.31 161.63 L 167.41 160.59 C 167.50 159.66 166.82 158.83 165.89 158.74 C 164.96 158.64 164.13 159.32 164.04 160.25 Z M 163.94 161.29 L 163.84 162.29 C 163.75 163.22 164.43 164.05 165.36 164.14 C 166.29 164.23 167.12 163.55 167.21 162.62 L 167.30 161.62 C 167.39 160.69 166.71 159.87 165.78 159.77 C 164.85 159.68 164.03 160.36 163.94 161.29 Z M 163.84 162.30 L 163.75 163.26 C 163.67 164.19 164.35 165.01 165.28 165.10 C 166.20 165.18 167.03 164.50 167.11 163.57 L 167.20 162.61 C 167.29 161.68 166.61 160.86 165.68 160.77 C 164.75 160.69 163.93 161.37 163.84 162.30 Z M 163.76 163.27 L 163.67 164.21 C 163.59 165.13 164.28 165.95 165.20 166.03 C 166.13 166.11 166.95 165.43 167.03 164.50 L 167.11 163.56 C 167.19 162.64 166.51 161.82 165.58 161.74 C 164.65 161.66 163.84 162.34 163.76 163.27 Z M 163.68 164.22 L 163.60 165.22 C 163.52 166.14 164.22 166.95 165.14 167.03 C 166.06 167.10 166.87 166.41 166.95 165.48 L 167.03 164.49 C 167.10 163.56 166.41 162.75 165.48 162.68 C 164.56 162.61 163.75 163.30 163.68 164.22 Z M 163.60 165.23 L 163.53 166.27 C 163.46 167.19 164.16 167.99 165.08 168.06 C 166.01 168.12 166.81 167.43 166.87 166.51 L 166.94 165.47 C 167.01 164.55 166.31 163.75 165.39 163.68 C 164.47 163.62 163.67 164.31 163.60 165.23 Z M 163.53 166.29 L 163.47 167.30 C 163.41 168.22 164.11 169.01 165.03 169.07 C 165.95 169.12 166.75 168.42 166.80 167.50 L 166.87 166.49 C 166.92 165.57 166.22 164.78 165.30 164.72 C 164.38 164.67 163.59 165.36 163.53 166.29 Z M 163.48 167.31 L 163.42 168.29 C 163.37 169.21 164.07 169.99 164.99 170.04 C 165.91 170.09 166.69 169.39 166.74 168.47 L 166.80 167.49 C 166.85 166.57 166.15 165.79 165.23 165.74 C 164.31 165.69 163.53 166.39 163.48 167.31 Z M 163.43 168.30 L 163.38 169.24 C 163.33 170.16 164.04 170.93 164.96 170.98 C 165.87 171.02 166.65 170.32 166.69 169.40 L 166.74 168.46 C 166.79 167.55 166.08 166.77 165.16 166.72 C 164.25 166.68 163.47 167.38 163.43 168.30 Z M 163.39 169.25 L 163.34 170.31 C 163.30 171.22 164.01 171.99 164.92 172.03 C 165.83 172.07 166.60 171.37 166.64 170.46 L 166.69 169.40 C 166.73 168.48 166.02 167.71 165.11 167.67 C 164.20 167.63 163.43 168.34 163.39 169.25 Z M 163.35 170.32 L 163.31 171.35 C 163.27 172.26 163.98 173.02 164.89 173.05 C 165.80 173.09 166.56 172.38 166.59 171.47 L 166.63 170.45 C 166.67 169.54 165.96 168.77 165.05 168.74 C 164.14 168.71 163.38 169.41 163.35 170.32 Z M 163.31 171.36 L 163.28 172.33 C 163.26 173.24 163.97 173.99 164.87 174.02 C 165.77 174.05 166.53 173.34 166.56 172.44 L 166.59 171.46 C 166.62 170.56 165.91 169.80 165.00 169.77 C 164.10 169.75 163.34 170.46 163.31 171.36 Z M 163.29 172.35 L 163.27 173.27 C 163.25 174.17 163.96 174.92 164.86 174.94 C 165.76 174.96 166.51 174.25 166.53 173.35 L 166.55 172.42 C 166.57 171.52 165.86 170.78 164.96 170.76 C 164.06 170.74 163.31 171.45 163.29 172.35 Z M 163.28 173.29 L 163.27 174.27 C 163.25 175.16 163.97 175.90 164.86 175.91 C 165.76 175.92 166.49 175.21 166.50 174.31 L 166.52 173.33 C 166.53 172.44 165.82 171.70 164.92 171.69 C 164.03 171.68 163.29 172.39 163.28 173.29 Z M 163.28 174.28 L 163.27 175.25 C 163.26 176.14 163.98 176.87 164.87 176.87 C 165.76 176.88 166.48 176.16 166.49 175.27 L 166.49 174.30 C 166.50 173.41 165.78 172.69 164.90 172.68 C 164.01 172.68 163.28 173.39 163.28 174.28 Z M 163.28 175.26 L 163.28 176.27 C 163.28 177.16 163.99 177.87 164.87 177.87 C 165.76 177.88 166.47 177.16 166.48 176.28 L 166.48 175.27 C 166.48 174.38 165.76 173.67 164.88 173.66 C 164.00 173.66 163.28 174.38 163.28 175.26 Z M 163.29 176.28 L 163.29 177.31 C 163.29 178.19 164.00 178.90 164.88 178.90 C 165.76 178.90 166.47 178.18 166.47 177.31 L 166.47 176.27 C 166.47 175.40 165.75 174.69 164.88 174.69 C 164.00 174.69 163.29 175.40 163.29 176.28 Z M 163.30 177.35 L 163.33 178.38 C 163.35 179.25 164.08 179.94 164.95 179.91 C 165.82 179.89 166.51 179.16 166.49 178.29 L 166.46 177.26 C 166.43 176.39 165.71 175.71 164.83 175.73 C 163.96 175.75 163.28 176.48 163.30 177.35 Z M 163.35 178.51 L 163.46 179.52 C 163.55 180.38 164.32 181.01 165.19 180.91 C 166.05 180.82 166.67 180.04 166.58 179.18 L 166.47 178.17 C 166.37 177.30 165.60 176.68 164.74 176.78 C 163.88 176.87 163.25 177.64 163.35 178.51 Z M 163.51 179.75 L 163.75 180.69 C 163.97 181.52 164.83 182.02 165.66 181.80 C 166.49 181.58 166.99 180.73 166.77 179.89 L 166.53 178.96 C 166.31 178.12 165.45 177.62 164.62 177.84 C 163.79 178.06 163.29 178.91 163.51 179.75 Z M 163.91 181.04 L 164.36 181.87 C 164.78 182.62 165.72 182.89 166.47 182.48 C 167.22 182.06 167.49 181.12 167.08 180.37 L 166.62 179.54 C 166.21 178.79 165.27 178.52 164.52 178.93 C 163.77 179.35 163.50 180.29 163.91 181.04 Z M 164.62 182.19 L 165.30 182.88 C 165.89 183.49 166.86 183.50 167.47 182.91 C 168.07 182.32 168.08 181.35 167.49 180.74 L 166.82 180.05 C 166.23 179.44 165.26 179.43 164.65 180.02 C 164.05 180.61 164.03 181.58 164.62 182.19 Z M 165.52 183.05 L 166.34 183.62 C 167.02 184.11 167.96 183.94 168.45 183.26 C 168.93 182.58 168.77 181.64 168.09 181.15 L 167.27 180.58 C 166.59 180.09 165.64 180.26 165.16 180.94 C 164.68 181.62 164.84 182.56 165.52 183.05 Z M 166.46 183.68 L 167.35 184.20 C 168.06 184.61 168.98 184.37 169.39 183.66 C 169.81 182.95 169.57 182.03 168.85 181.62 L 167.96 181.10 C 167.25 180.68 166.34 180.92 165.92 181.64 C 165.51 182.35 165.75 183.26 166.46 183.68 Z M 167.38 184.20 L 167.46 184.25 C 168.17 184.65 169.08 184.39 169.48 183.68 C 169.88 182.96 169.62 182.06 168.91 181.66 L 168.83 181.61 C 168.11 181.21 167.21 181.47 166.81 182.18 C 166.41 182.90 166.66 183.80 167.38 184.20 Z"
      fill="black"
      fill-rule="nonzero" /><path d="M 131.24 186.76 L 130.02 186.24 C 129.20 185.89 128.26 186.27 127.91 187.09 C 127.56 187.91 127.94 188.85 128.76 189.20 L 129.98 189.72 C 130.80 190.07 131.75 189.69 132.09 188.88 C 132.44 188.06 132.06 187.11 131.24 186.76 Z M 130.10 186.23 L 129.10 185.75 C 128.28 185.36 127.29 185.70 126.90 186.53 C 126.50 187.35 126.85 188.34 127.67 188.73 L 128.67 189.21 C 129.50 189.61 130.48 189.26 130.88 188.44 C 131.27 187.61 130.92 186.63 130.10 186.23 Z M 129.37 185.86 L 128.82 185.47 C 128.06 184.92 127.00 185.10 126.45 185.86 C 125.91 186.62 126.09 187.68 126.85 188.23 L 127.40 188.62 C 128.16 189.17 129.22 188.99 129.77 188.23 C 130.31 187.47 130.13 186.41 129.37 185.86 Z M 129.37 187.62 L 129.53 187.32 C 129.96 186.47 129.61 185.43 128.76 185.00 C 127.91 184.58 126.87 184.92 126.44 185.77 L 126.29 186.07 C 125.86 186.92 126.20 187.96 127.06 188.39 C 127.91 188.82 128.95 188.48 129.37 187.62 Z M 128.30 188.26 L 129.22 188.08 C 130.17 187.91 130.79 187.00 130.62 186.05 C 130.44 185.11 129.53 184.49 128.59 184.66 L 127.66 184.84 C 126.72 185.01 126.10 185.92 126.27 186.87 C 126.45 187.81 127.36 188.43 128.30 188.26 Z M 129.02 188.12 L 130.42 188.03 C 131.38 187.97 132.11 187.13 132.05 186.17 C 131.99 185.20 131.15 184.47 130.19 184.54 L 128.79 184.63 C 127.83 184.69 127.10 185.52 127.16 186.49 C 127.22 187.45 128.05 188.18 129.02 188.12 Z M 130.38 188.04 L 131.38 187.99 C 132.34 187.95 133.10 187.14 133.06 186.17 C 133.01 185.20 132.20 184.45 131.23 184.49 L 130.23 184.53 C 129.26 184.57 128.51 185.39 128.55 186.36 C 128.59 187.32 129.41 188.08 130.38 188.04 Z M 131.36 187.99 L 132.39 187.96 C 133.36 187.93 134.12 187.11 134.08 186.15 C 134.05 185.18 133.24 184.42 132.27 184.45 L 131.24 184.49 C 130.27 184.52 129.52 185.33 129.55 186.30 C 129.58 187.27 130.39 188.03 131.36 187.99 Z M 132.38 187.96 L 133.40 187.93 C 134.37 187.90 135.13 187.10 135.11 186.13 C 135.08 185.16 134.27 184.40 133.30 184.42 L 132.28 184.45 C 131.31 184.48 130.55 185.29 130.58 186.25 C 130.60 187.22 131.41 187.99 132.38 187.96 Z M 133.39 187.93 L 134.37 187.91 C 135.34 187.89 136.10 187.09 136.08 186.12 C 136.06 185.15 135.26 184.38 134.29 184.40 L 133.31 184.42 C 132.35 184.44 131.58 185.25 131.60 186.22 C 131.62 187.18 132.42 187.95 133.39 187.93 Z M 134.36 187.91 L 135.40 187.89 C 136.37 187.88 137.14 187.08 137.13 186.11 C 137.11 185.14 136.32 184.37 135.35 184.39 L 134.30 184.40 C 133.33 184.42 132.56 185.22 132.58 186.18 C 132.59 187.15 133.39 187.92 134.36 187.91 Z M 135.39 187.89 L 136.41 187.88 C 137.38 187.87 138.15 187.08 138.14 186.11 C 138.13 185.14 137.34 184.37 136.38 184.38 L 135.36 184.39 C 134.39 184.40 133.61 185.19 133.63 186.16 C 133.64 187.13 134.43 187.90 135.39 187.89 Z M 136.41 187.87 L 137.37 187.86 C 138.33 187.85 139.10 187.06 139.09 186.10 C 139.08 185.13 138.29 184.36 137.33 184.37 L 136.38 184.38 C 135.41 184.39 134.64 185.18 134.65 186.15 C 134.66 187.11 135.45 187.89 136.41 187.87 Z M 137.38 187.86 L 138.32 187.84 C 139.29 187.83 140.05 187.03 140.04 186.07 C 140.02 185.11 139.23 184.34 138.26 184.36 L 137.32 184.38 C 136.36 184.39 135.59 185.19 135.61 186.15 C 135.62 187.11 136.42 187.88 137.38 187.86 Z M 138.34 187.84 L 139.32 187.81 C 140.28 187.79 141.04 186.99 141.01 186.03 C 140.99 185.07 140.19 184.31 139.23 184.34 L 138.25 184.36 C 137.29 184.39 136.53 185.19 136.56 186.15 C 136.58 187.11 137.38 187.86 138.34 187.84 Z M 139.33 187.81 L 140.33 187.78 C 141.29 187.75 142.04 186.95 142.01 186.00 C 141.98 185.04 141.19 184.29 140.23 184.32 L 139.23 184.34 C 138.27 184.37 137.52 185.17 137.54 186.13 C 137.57 187.08 138.37 187.84 139.33 187.81 Z M 140.32 187.77 L 141.34 187.75 C 142.29 187.72 143.05 186.93 143.02 185.98 C 143.00 185.02 142.21 184.27 141.25 184.29 L 140.24 184.32 C 139.28 184.34 138.53 185.14 138.55 186.09 C 138.58 187.04 139.37 187.80 140.32 187.77 Z M 141.33 187.74 L 142.31 187.73 C 143.26 187.71 144.02 186.93 144.00 185.98 C 143.99 185.03 143.20 184.27 142.25 184.28 L 141.27 184.30 C 140.32 184.32 139.56 185.10 139.58 186.05 C 139.59 187.00 140.37 187.76 141.33 187.74 Z M 142.30 187.72 L 143.28 187.71 C 144.23 187.70 144.99 186.92 144.98 185.98 C 144.97 185.03 144.20 184.27 143.25 184.28 L 142.26 184.29 C 141.32 184.30 140.56 185.08 140.57 186.02 C 140.58 186.97 141.35 187.73 142.30 187.72 Z M 143.28 187.70 L 144.29 187.69 C 145.24 187.68 145.99 186.91 145.98 185.97 C 145.97 185.02 145.20 184.27 144.26 184.28 L 143.25 184.29 C 142.31 184.30 141.55 185.07 141.56 186.01 C 141.57 186.96 142.34 187.71 143.28 187.70 Z M 144.30 187.68 L 145.32 187.67 C 146.26 187.65 147.00 186.88 146.99 185.94 C 146.97 185.00 146.20 184.26 145.26 184.27 L 144.25 184.29 C 143.31 184.30 142.56 185.07 142.58 186.01 C 142.59 186.95 143.37 187.70 144.30 187.68 Z M 145.33 187.66 L 146.32 187.63 C 147.25 187.61 147.99 186.84 147.97 185.90 C 147.95 184.97 147.17 184.23 146.24 184.26 L 145.25 184.28 C 144.32 184.30 143.58 185.08 143.60 186.01 C 143.63 186.94 144.40 187.68 145.33 187.66 Z M 146.33 187.62 L 147.34 187.59 C 148.26 187.57 148.99 186.79 148.96 185.87 C 148.94 184.94 148.16 184.21 147.24 184.24 L 146.23 184.27 C 145.30 184.29 144.57 185.07 144.60 185.99 C 144.63 186.92 145.40 187.65 146.33 187.62 Z M 147.34 187.58 L 148.35 187.55 C 149.27 187.52 150.00 186.75 149.97 185.83 C 149.93 184.91 149.16 184.18 148.24 184.21 L 147.23 184.25 C 146.31 184.28 145.59 185.05 145.62 185.97 C 145.65 186.89 146.42 187.61 147.34 187.58 Z M 148.35 187.54 L 149.36 187.51 C 150.27 187.47 150.99 186.71 150.96 185.79 C 150.93 184.87 150.16 184.16 149.24 184.19 L 148.24 184.22 C 147.32 184.25 146.61 185.02 146.64 185.94 C 146.67 186.85 147.44 187.57 148.35 187.54 Z M 149.36 187.49 L 150.35 187.46 C 151.26 187.43 151.97 186.66 151.94 185.75 C 151.91 184.84 151.14 184.13 150.23 184.16 L 149.24 184.20 C 148.33 184.23 147.62 185.00 147.65 185.91 C 147.68 186.82 148.45 187.53 149.36 187.49 Z M 150.36 187.45 L 151.35 187.41 C 152.25 187.37 152.96 186.61 152.92 185.71 C 152.88 184.80 152.12 184.10 151.22 184.14 L 150.23 184.18 C 149.32 184.21 148.62 184.97 148.66 185.88 C 148.69 186.78 149.45 187.48 150.36 187.45 Z M 151.36 187.40 L 152.36 187.35 C 153.26 187.31 153.95 186.55 153.91 185.65 C 153.87 184.76 153.11 184.06 152.22 184.10 L 151.21 184.15 C 150.32 184.19 149.62 184.95 149.66 185.85 C 149.70 186.74 150.46 187.44 151.36 187.40 Z M 152.37 187.34 L 153.36 187.29 C 154.25 187.24 154.93 186.48 154.89 185.59 C 154.84 184.70 154.08 184.02 153.19 184.06 L 152.21 184.12 C 151.32 184.16 150.63 184.92 150.68 185.81 C 150.72 186.70 151.48 187.38 152.37 187.34 Z M 153.37 187.27 L 154.35 187.22 C 155.24 187.16 155.91 186.41 155.86 185.52 C 155.81 184.64 155.05 183.97 154.16 184.02 L 153.18 184.08 C 152.30 184.13 151.62 184.89 151.68 185.77 C 151.73 186.65 152.49 187.33 153.37 187.27 Z M 154.36 187.20 L 155.37 187.14 C 156.24 187.08 156.90 186.32 156.85 185.45 C 156.79 184.57 156.03 183.91 155.16 183.97 L 154.15 184.03 C 153.28 184.09 152.62 184.85 152.67 185.72 C 152.73 186.60 153.49 187.26 154.36 187.20 Z M 155.38 187.12 L 156.39 187.05 C 157.26 186.99 157.91 186.23 157.85 185.36 C 157.79 184.49 157.03 183.84 156.16 183.91 L 155.15 183.98 C 154.28 184.04 153.63 184.80 153.69 185.67 C 153.75 186.53 154.51 187.19 155.38 187.12 Z M 156.40 187.04 L 157.40 186.96 C 158.26 186.89 158.90 186.13 158.83 185.27 C 158.76 184.41 158.01 183.77 157.15 183.84 L 156.15 183.92 C 155.29 183.99 154.65 184.74 154.72 185.60 C 154.79 186.46 155.54 187.11 156.40 187.04 Z M 157.40 186.94 L 158.38 186.86 C 159.24 186.79 159.87 186.04 159.80 185.18 C 159.73 184.33 158.98 183.70 158.12 183.77 L 157.14 183.85 C 156.29 183.92 155.65 184.67 155.72 185.53 C 155.80 186.38 156.55 187.02 157.40 186.94 Z M 158.38 186.85 L 159.38 186.76 C 160.22 186.69 160.85 185.95 160.78 185.10 C 160.71 184.25 159.96 183.62 159.11 183.70 L 158.12 183.78 C 157.27 183.85 156.65 184.60 156.72 185.45 C 156.79 186.29 157.54 186.92 158.38 186.85 Z M 159.37 186.75 L 160.38 186.67 C 161.22 186.60 161.85 185.86 161.78 185.02 C 161.71 184.18 160.97 183.56 160.13 183.63 L 159.12 183.71 C 158.28 183.78 157.65 184.52 157.72 185.36 C 157.79 186.20 158.53 186.82 159.37 186.75 Z M 160.37 186.66 L 161.38 186.58 C 162.21 186.52 162.84 185.79 162.77 184.96 C 162.71 184.12 161.98 183.50 161.15 183.56 L 160.14 183.64 C 159.30 183.70 158.68 184.43 158.74 185.26 C 158.81 186.10 159.53 186.72 160.37 186.66 Z M 161.37 186.57 L 162.34 186.50 C 163.17 186.45 163.80 185.73 163.74 184.90 C 163.68 184.07 162.96 183.44 162.13 183.50 L 161.16 183.57 C 160.33 183.63 159.70 184.35 159.76 185.18 C 159.82 186.00 160.54 186.63 161.37 186.57 Z M 162.34 186.49 L 163.33 186.43 C 164.16 186.37 164.78 185.66 164.72 184.83 C 164.67 184.01 163.96 183.39 163.13 183.44 L 162.14 183.51 C 161.32 183.57 160.69 184.28 160.75 185.10 C 160.81 185.93 161.52 186.55 162.34 186.49 Z M 163.34 186.42 L 164.34 186.34 C 165.16 186.29 165.78 185.58 165.72 184.76 C 165.66 183.94 164.95 183.33 164.13 183.38 L 163.13 183.45 C 162.31 183.51 161.70 184.22 161.75 185.04 C 161.81 185.86 162.52 186.47 163.34 186.42 Z M 164.35 186.33 L 165.37 186.26 C 166.18 186.19 166.79 185.49 166.72 184.67 C 166.66 183.86 165.95 183.26 165.14 183.32 L 164.13 183.40 C 163.31 183.46 162.71 184.17 162.77 184.98 C 162.83 185.79 163.54 186.40 164.35 186.33 Z M 165.38 186.25 L 166.37 186.16 C 167.17 186.09 167.77 185.38 167.70 184.57 C 167.63 183.77 166.92 183.17 166.12 183.24 L 165.13 183.33 C 164.32 183.40 163.73 184.11 163.79 184.91 C 163.86 185.72 164.57 186.32 165.38 186.25 Z M 166.38 186.15 L 167.36 186.06 C 168.16 185.98 168.75 185.27 168.67 184.47 C 168.60 183.67 167.88 183.08 167.08 183.16 L 166.10 183.25 C 165.30 183.33 164.71 184.04 164.79 184.84 C 164.87 185.64 165.58 186.23 166.38 186.15 Z M 167.37 186.05 L 168.36 185.95 C 169.16 185.87 169.74 185.16 169.66 184.36 C 169.57 183.56 168.86 182.98 168.07 183.06 L 167.08 183.16 C 166.28 183.25 165.70 183.96 165.78 184.75 C 165.86 185.55 166.57 186.13 167.37 186.05 Z M 168.37 185.94 L 169.37 185.84 C 170.16 185.75 170.74 185.04 170.65 184.25 C 170.57 183.45 169.86 182.88 169.06 182.96 L 168.06 183.07 C 167.27 183.15 166.69 183.87 166.78 184.66 C 166.86 185.45 167.57 186.03 168.37 185.94 Z M 169.37 185.83 L 170.39 185.72 C 171.17 185.63 171.75 184.93 171.66 184.14 C 171.58 183.35 170.87 182.78 170.08 182.86 L 169.06 182.97 C 168.27 183.06 167.70 183.76 167.79 184.55 C 167.87 185.34 168.58 185.91 169.37 185.83 Z M 170.38 185.72 L 171.39 185.61 C 172.17 185.53 172.74 184.82 172.66 184.03 C 172.58 183.25 171.87 182.68 171.08 182.76 L 170.08 182.87 C 169.29 182.95 168.72 183.65 168.81 184.44 C 168.89 185.23 169.60 185.80 170.38 185.72 Z M 171.39 185.61 L 172.39 185.50 C 173.18 185.42 173.75 184.71 173.67 183.93 C 173.58 183.14 172.88 182.57 172.09 182.65 L 171.09 182.76 C 170.30 182.84 169.73 183.55 169.81 184.33 C 169.90 185.12 170.60 185.69 171.39 185.61 Z M 172.39 185.50 L 173.40 185.39 C 174.18 185.31 174.75 184.61 174.67 183.82 C 174.59 183.04 173.88 182.47 173.10 182.55 L 172.09 182.66 C 171.31 182.74 170.74 183.44 170.82 184.23 C 170.90 185.01 171.61 185.58 172.39 185.50 Z M 173.40 185.39 L 174.39 185.29 C 175.18 185.20 175.74 184.50 175.66 183.71 C 175.58 182.93 174.87 182.36 174.09 182.45 L 173.10 182.55 C 172.31 182.64 171.74 183.34 171.83 184.12 C 171.91 184.91 172.61 185.48 173.40 185.39 Z M 174.40 185.28 L 175.37 185.18 C 176.15 185.09 176.72 184.39 176.63 183.60 C 176.55 182.82 175.84 182.26 175.06 182.34 L 174.09 182.45 C 173.30 182.53 172.74 183.24 172.82 184.02 C 172.91 184.80 173.61 185.37 174.40 185.28 Z M 175.37 185.18 L 176.41 185.06 C 177.19 184.97 177.75 184.27 177.66 183.48 C 177.58 182.70 176.87 182.14 176.09 182.23 L 175.05 182.34 C 174.27 182.43 173.71 183.14 173.80 183.92 C 173.88 184.70 174.59 185.26 175.37 185.18 Z M 176.41 185.06 L 177.43 184.94 C 178.21 184.85 178.77 184.14 178.67 183.36 C 178.58 182.57 177.87 182.02 177.09 182.11 L 176.08 182.23 C 175.30 182.32 174.74 183.03 174.83 183.81 C 174.92 184.59 175.63 185.15 176.41 185.06 Z M 177.43 184.94 L 178.42 184.82 C 179.20 184.72 179.75 184.01 179.66 183.23 C 179.56 182.44 178.85 181.89 178.07 181.99 L 177.08 182.11 C 176.30 182.21 175.75 182.92 175.84 183.70 C 175.94 184.48 176.65 185.04 177.43 184.94 Z M 178.43 184.81 L 179.39 184.69 C 180.17 184.59 180.72 183.87 180.62 183.09 C 180.52 182.31 179.80 181.76 179.02 181.86 L 178.06 181.99 C 177.28 182.09 176.73 182.81 176.83 183.59 C 176.93 184.37 177.65 184.92 178.43 184.81 Z M 179.40 184.69 L 180.37 184.55 C 181.15 184.44 181.70 183.72 181.59 182.94 C 181.48 182.16 180.76 181.62 179.98 181.73 L 179.01 181.86 C 178.23 181.97 177.68 182.69 177.79 183.47 C 177.90 184.25 178.62 184.80 179.40 184.69 Z M 180.38 184.55 L 181.38 184.40 C 182.16 184.29 182.70 183.56 182.58 182.78 C 182.47 182.00 181.74 181.47 180.96 181.58 L 179.97 181.73 C 179.19 181.85 178.65 182.57 178.77 183.35 C 178.88 184.13 179.61 184.66 180.38 184.55 Z M 181.39 184.40 L 182.38 184.25 C 183.16 184.13 183.69 183.40 183.57 182.62 C 183.45 181.84 182.72 181.31 181.94 181.43 L 180.96 181.58 C 180.18 181.70 179.64 182.43 179.76 183.21 C 179.89 183.99 180.61 184.52 181.39 184.40 Z M 182.38 184.25 L 183.37 184.09 C 184.14 183.97 184.67 183.24 184.55 182.46 C 184.43 181.68 183.69 181.15 182.92 181.28 L 181.94 181.43 C 181.16 181.56 180.63 182.29 180.75 183.06 C 180.88 183.84 181.61 184.37 182.38 184.25 Z M 183.37 184.09 L 184.15 183.96 C 184.93 183.84 185.46 183.11 185.33 182.33 C 185.21 181.55 184.48 181.02 183.70 181.15 L 182.92 181.28 C 182.14 181.40 181.61 182.13 181.73 182.91 C 181.86 183.69 182.59 184.21 183.37 184.09 Z"
      fill="black"
      fill-rule="nonzero" /></svg>