<svg xmlns="http://www.w3.org/2000/svg" width="300" height="300" viewBox="0 0 300 300">
<path d="M 138.14 108.69 L 138.44 109.58 C 138.70 110.39 139.57 110.83 140.38 110.57 C 141.19 110.31 141.63 109.44 141.37 108.63 L 141.07 107.73 C 140.81 106.92 139.94 106.48 139.13 106.74 C 138.32 107.01 137.88 107.88 138.14 108.69 Z M 138.43 109.58 L 138.73 110.49 C 138.99 111.30 139.86 111.74 140.67 111.48 C 141.48 111.22 141.93 110.35 141.66 109.54 L 141.37 108.63 C 141.11 107.82 140.24 107.37 139.42 107.64 C 138.61 107.90 138.17 108.77 138.43 109.58 Z M 138.72 110.49 L 139.02 111.41 C 139.28 112.23 140.16 112.67 140.97 112.41 C 141.78 112.15 142.23 111.27 141.97 110.46 L 141.67 109.54 C 141.41 108.72 140.53 108.28 139.72 108.54 C 138.91 108.80 138.46 109.68 138.72 110.49 Z M 139.02 111.41 L 139.32 112.36 C 139.58 113.17 140.46 113.62 141.27 113.36 C 142.09 113.10 142.54 112.22 142.28 111.41 L 141.97 110.46 C 141.71 109.64 140.84 109.20 140.02 109.46 C 139.20 109.72 138.75 110.59 139.02 111.41 Z M 139.32 112.36 L 139.63 113.34 C 139.89 114.16 140.77 114.61 141.59 114.35 C 142.40 114.08 142.86 113.21 142.59 112.39 L 142.28 111.41 C 142.02 110.59 141.14 110.14 140.33 110.40 C 139.51 110.66 139.06 111.54 139.32 112.36 Z M 139.62 113.33 L 139.95 114.36 C 140.21 115.18 141.08 115.63 141.91 115.37 C 142.73 115.11 143.18 114.24 142.92 113.42 L 142.60 112.39 C 142.34 111.57 141.46 111.12 140.64 111.38 C 139.82 111.64 139.36 112.51 139.62 113.33 Z M 139.95 114.35 L 140.26 115.34 C 140.51 116.16 141.39 116.62 142.21 116.36 C 143.03 116.10 143.49 115.23 143.23 114.41 L 142.92 113.42 C 142.67 112.60 141.79 112.14 140.97 112.40 C 140.15 112.66 139.69 113.53 139.95 114.35 Z M 140.27 115.33 L 140.57 116.31 C 140.82 117.13 141.69 117.58 142.51 117.33 C 143.33 117.08 143.78 116.21 143.53 115.39 L 143.22 114.41 C 142.97 113.60 142.10 113.14 141.28 113.39 C 140.47 113.65 140.01 114.52 140.27 115.33 Z M 140.58 116.30 L 140.89 117.30 C 141.14 118.11 142.00 118.56 142.81 118.31 C 143.62 118.06 144.07 117.20 143.82 116.39 L 143.52 115.40 C 143.27 114.59 142.41 114.13 141.59 114.38 C 140.78 114.63 140.33 115.49 140.58 116.30 Z M 140.90 117.29 L 141.20 118.28 C 141.45 119.09 142.31 119.54 143.11 119.29 C 143.91 119.04 144.37 118.19 144.12 117.39 L 143.81 116.39 C 143.56 115.59 142.71 115.14 141.91 115.39 C 141.10 115.63 140.65 116.49 140.90 117.29 Z M 141.22 118.28 L 141.52 119.26 C 141.76 120.05 142.61 120.50 143.41 120.26 C 144.20 120.01 144.65 119.17 144.41 118.37 L 144.11 117.39 C 143.86 116.59 143.02 116.14 142.22 116.39 C 141.42 116.63 140.97 117.48 141.22 118.28 Z M 141.53 119.25 L 141.82 120.20 C 142.06 120.99 142.90 121.44 143.69 121.19 C 144.48 120.95 144.93 120.11 144.69 119.32 L 144.40 118.37 C 144.15 117.58 143.31 117.14 142.52 117.38 C 141.73 117.62 141.29 118.46 141.53 119.25 Z M 141.83 120.20 L 142.11 121.10 C 142.35 121.88 143.18 122.32 143.97 122.08 C 144.75 121.84 145.19 121.01 144.95 120.22 L 144.67 119.32 C 144.43 118.54 143.60 118.10 142.82 118.34 C 142.03 118.58 141.59 119.41 141.83 120.20 Z M 142.12 121.09 L 142.43 122.09 C 142.67 122.87 143.49 123.31 144.27 123.07 C 145.05 122.83 145.49 122.01 145.25 121.23 L 144.94 120.23 C 144.70 119.45 143.87 119.01 143.09 119.25 C 142.32 119.49 141.88 120.32 142.12 121.09 Z M 142.44 122.09 L 142.77 123.16 C 143.01 123.93 143.83 124.37 144.60 124.13 C 145.37 123.89 145.81 123.07 145.57 122.30 L 145.24 121.23 C 145.00 120.46 144.18 120.02 143.40 120.26 C 142.63 120.50 142.20 121.32 142.44 122.09 Z M 142.78 123.16 L 143.08 124.13 C 143.32 124.90 144.13 125.33 144.90 125.09 C 145.67 124.85 146.10 124.03 145.86 123.27 L 145.56 122.30 C 145.32 121.53 144.50 121.10 143.74 121.34 C 142.97 121.58 142.54 122.39 142.78 123.16 Z M 143.09 124.13 L 143.37 125.03 C 143.60 125.79 144.41 126.21 145.18 125.98 C 145.94 125.74 146.37 124.93 146.13 124.17 L 145.85 123.27 C 145.61 122.51 144.80 122.08 144.04 122.32 C 143.28 122.56 142.85 123.37 143.09 124.13 Z M 143.38 125.02 L 143.64 125.88 C 143.88 126.64 144.68 127.06 145.44 126.82 C 146.20 126.59 146.62 125.78 146.38 125.02 L 146.12 124.17 C 145.88 123.41 145.08 122.99 144.32 123.23 C 143.56 123.46 143.14 124.27 143.38 125.02 Z M 143.65 125.88 L 143.80 126.36 C 144.04 127.11 144.84 127.53 145.59 127.30 C 146.34 127.06 146.76 126.26 146.53 125.51 L 146.38 125.02 C 146.14 124.27 145.34 123.85 144.59 124.09 C 143.84 124.32 143.42 125.12 143.65 125.88 Z"
      fill="black"
      fill-rule="nonzero" /><path d="M 111.37 134.50 L 110.35 133.67 C 109.68 133.11 108.68 133.21 108.13 133.89 C 107.58 134.57 107.68 135.56 108.35 136.11 L 109.37 136.95 C 110.05 137.50 111.04 137.40 111.60 136.73 C 112.15 136.05 112.05 135.05 111.37 134.50 Z M 110.41 133.67 L 109.49 132.87 C 108.81 132.29 107.79 132.37 107.21 133.04 C 106.63 133.71 106.70 134.73 107.38 135.31 L 108.30 136.11 C 108.97 136.69 109.99 136.62 110.57 135.95 C 111.15 135.27 111.08 134.25 110.41 133.67 Z M 109.59 132.93 L 108.87 132.21 C 108.23 131.57 107.19 131.57 106.55 132.21 C 105.90 132.85 105.90 133.89 106.55 134.54 L 107.27 135.26 C 107.91 135.90 108.95 135.90 109.60 135.26 C 110.24 134.61 110.24 133.57 109.59 132.93 Z M 109.08 132.41 L 108.66 131.81 C 108.13 131.05 107.09 130.86 106.33 131.39 C 105.57 131.92 105.38 132.96 105.91 133.72 L 106.33 134.33 C 106.86 135.09 107.91 135.28 108.67 134.75 C 109.43 134.22 109.61 133.17 109.08 132.41 Z M 108.99 132.69 L 108.97 132.22 C 108.93 131.28 108.14 130.55 107.19 130.59 C 106.25 130.63 105.52 131.42 105.56 132.36 L 105.58 132.84 C 105.62 133.78 106.42 134.51 107.36 134.47 C 108.30 134.43 109.03 133.63 108.99 132.69 Z M 108.19 133.75 L 108.69 133.43 C 109.50 132.92 109.73 131.85 109.22 131.05 C 108.71 130.25 107.65 130.01 106.84 130.52 L 106.34 130.84 C 105.54 131.35 105.30 132.41 105.81 133.22 C 106.32 134.02 107.39 134.26 108.19 133.75 Z M 108.08 133.68 L 109.00 133.51 C 109.94 133.34 110.57 132.44 110.40 131.50 C 110.23 130.56 109.33 129.93 108.38 130.10 L 107.46 130.27 C 106.52 130.44 105.89 131.34 106.06 132.28 C 106.23 133.22 107.13 133.85 108.08 133.68 Z M 108.80 133.55 L 110.00 133.47 C 110.97 133.41 111.70 132.58 111.63 131.62 C 111.57 130.66 110.75 129.93 109.78 129.99 L 108.58 130.07 C 107.62 130.13 106.89 130.96 106.95 131.92 C 107.01 132.88 107.84 133.61 108.80 133.55 Z M 109.95 133.48 L 111.25 133.44 C 112.22 133.40 112.98 132.59 112.94 131.63 C 112.91 130.66 112.10 129.90 111.13 129.93 L 109.83 129.98 C 108.87 130.01 108.11 130.82 108.14 131.79 C 108.18 132.76 108.99 133.52 109.95 133.48 Z M 111.27 133.44 L 112.32 133.40 C 113.29 133.36 114.05 132.54 114.01 131.56 C 113.96 130.59 113.14 129.84 112.17 129.88 L 111.12 129.93 C 110.14 129.97 109.39 130.79 109.43 131.76 C 109.48 132.73 110.30 133.49 111.27 133.44 Z M 112.34 133.40 L 113.39 133.34 C 114.36 133.29 115.10 132.46 115.05 131.49 C 115.00 130.52 114.17 129.77 113.19 129.82 L 112.15 129.88 C 111.18 129.93 110.43 130.76 110.49 131.74 C 110.54 132.71 111.37 133.45 112.34 133.40 Z M 113.40 133.35 L 114.42 133.28 C 115.39 133.22 116.13 132.38 116.07 131.41 C 116.01 130.43 115.17 129.69 114.19 129.75 L 113.18 129.82 C 112.20 129.88 111.46 130.72 111.53 131.70 C 111.59 132.67 112.43 133.41 113.40 133.35 Z M 114.43 133.29 L 115.41 133.21 C 116.38 133.14 117.12 132.30 117.05 131.32 C 116.98 130.34 116.13 129.61 115.15 129.68 L 114.18 129.75 C 113.20 129.82 112.47 130.67 112.54 131.65 C 112.61 132.62 113.46 133.36 114.43 133.29 Z M 115.42 133.22 L 116.34 133.14 C 117.32 133.07 118.05 132.21 117.97 131.23 C 117.89 130.25 117.03 129.53 116.06 129.60 L 115.14 129.68 C 114.16 129.76 113.43 130.61 113.51 131.59 C 113.59 132.57 114.45 133.30 115.42 133.22 Z M 116.36 133.15 L 117.42 133.05 C 118.39 132.96 119.12 132.10 119.03 131.12 C 118.94 130.14 118.08 129.42 117.10 129.51 L 116.04 129.60 C 115.06 129.69 114.34 130.55 114.43 131.53 C 114.51 132.51 115.38 133.23 116.36 133.15 Z M 117.43 133.05 L 118.45 132.95 C 119.43 132.85 120.14 131.98 120.05 131.00 C 119.95 130.03 119.08 129.31 118.10 129.41 L 117.08 129.51 C 116.10 129.60 115.39 130.48 115.49 131.46 C 115.58 132.43 116.46 133.15 117.43 133.05 Z M 118.47 132.95 L 119.42 132.85 C 120.40 132.74 121.11 131.86 121.00 130.88 C 120.90 129.90 120.02 129.20 119.04 129.30 L 118.08 129.41 C 117.10 129.51 116.40 130.39 116.50 131.37 C 116.61 132.35 117.49 133.06 118.47 132.95 Z M 119.44 132.85 L 120.37 132.74 C 121.35 132.62 122.05 131.73 121.94 130.76 C 121.82 129.78 120.93 129.08 119.96 129.19 L 119.02 129.30 C 118.04 129.42 117.34 130.31 117.46 131.28 C 117.58 132.26 118.46 132.96 119.44 132.85 Z M 120.39 132.74 L 121.33 132.62 C 122.31 132.50 123.01 131.60 122.88 130.63 C 122.76 129.65 121.87 128.95 120.89 129.07 L 119.94 129.19 C 118.97 129.31 118.27 130.21 118.39 131.18 C 118.51 132.16 119.41 132.86 120.39 132.74 Z M 121.34 132.62 L 122.32 132.49 C 123.30 132.37 123.99 131.47 123.86 130.49 C 123.73 129.51 122.84 128.82 121.86 128.95 L 120.88 129.07 C 119.90 129.20 119.21 130.10 119.34 131.08 C 119.47 132.05 120.36 132.75 121.34 132.62 Z M 122.33 132.49 L 123.32 132.36 C 124.30 132.23 124.99 131.33 124.86 130.35 C 124.73 129.37 123.83 128.68 122.85 128.81 L 121.85 128.95 C 120.87 129.08 120.18 129.98 120.31 130.96 C 120.45 131.94 121.35 132.62 122.33 132.49 Z M 123.33 132.36 L 124.36 132.22 C 125.33 132.08 126.02 131.17 125.88 130.20 C 125.74 129.22 124.84 128.53 123.86 128.67 L 122.84 128.81 C 121.86 128.95 121.18 129.85 121.31 130.83 C 121.45 131.81 122.35 132.49 123.33 132.36 Z M 124.36 132.22 L 125.34 132.07 C 126.32 131.93 127.00 131.03 126.86 130.05 C 126.72 129.07 125.81 128.39 124.83 128.53 L 123.85 128.67 C 122.87 128.81 122.19 129.72 122.34 130.70 C 122.48 131.68 123.38 132.36 124.36 132.22 Z M 125.35 132.07 L 126.32 131.93 C 127.30 131.79 127.98 130.88 127.84 129.90 C 127.69 128.92 126.78 128.24 125.80 128.39 L 124.83 128.53 C 123.85 128.67 123.17 129.58 123.31 130.56 C 123.46 131.54 124.37 132.22 125.35 132.07 Z M 126.33 131.93 L 127.32 131.78 C 128.30 131.64 128.97 130.72 128.83 129.75 C 128.68 128.77 127.77 128.09 126.79 128.24 L 125.80 128.39 C 124.82 128.53 124.15 129.44 124.29 130.42 C 124.44 131.40 125.35 132.08 126.33 131.93 Z M 127.32 131.78 L 128.33 131.63 C 129.31 131.49 129.98 130.57 129.83 129.59 C 129.69 128.62 128.78 127.94 127.80 128.09 L 126.79 128.24 C 125.81 128.39 125.14 129.30 125.29 130.28 C 125.43 131.25 126.34 131.93 127.32 131.78 Z M 128.33 131.63 L 129.31 131.48 C 130.29 131.34 130.97 130.43 130.82 129.45 C 130.67 128.47 129.76 127.79 128.78 127.94 L 127.80 128.09 C 126.82 128.23 126.14 129.15 126.29 130.12 C 126.44 131.10 127.35 131.78 128.33 131.63 Z M 129.31 131.48 L 130.27 131.34 C 131.25 131.20 131.92 130.28 131.77 129.31 C 131.63 128.33 130.72 127.65 129.74 127.80 L 128.78 127.94 C 127.80 128.09 127.13 129.00 127.28 129.98 C 127.42 130.96 128.33 131.63 129.31 131.48 Z M 130.27 131.34 L 131.24 131.20 C 132.22 131.05 132.89 130.14 132.75 129.16 C 132.60 128.18 131.69 127.51 130.71 127.65 L 129.74 127.80 C 128.76 127.95 128.08 128.86 128.23 129.84 C 128.38 130.82 129.29 131.49 130.27 131.34 Z M 131.25 131.20 L 132.24 131.04 C 133.22 130.89 133.89 129.98 133.74 129.00 C 133.59 128.02 132.68 127.35 131.70 127.50 L 130.70 127.65 C 129.73 127.80 129.05 128.72 129.20 129.69 C 129.35 130.67 130.27 131.34 131.25 131.20 Z M 132.25 131.04 L 133.28 130.88 C 134.26 130.73 134.92 129.81 134.77 128.83 C 134.62 127.86 133.70 127.19 132.72 127.34 L 131.70 127.50 C 130.72 127.66 130.05 128.57 130.20 129.55 C 130.36 130.53 131.27 131.20 132.25 131.04 Z M 133.29 130.88 L 134.27 130.72 C 135.24 130.56 135.91 129.64 135.75 128.67 C 135.59 127.69 134.67 127.03 133.70 127.18 L 132.72 127.34 C 131.74 127.50 131.08 128.42 131.23 129.40 C 131.39 130.37 132.31 131.04 133.29 130.88 Z M 134.28 130.72 L 135.25 130.56 C 136.23 130.40 136.89 129.47 136.72 128.50 C 136.56 127.52 135.64 126.86 134.67 127.03 L 133.69 127.19 C 132.71 127.35 132.05 128.27 132.22 129.25 C 132.38 130.22 133.30 130.88 134.28 130.72 Z M 135.26 130.55 L 136.25 130.38 C 137.23 130.22 137.88 129.29 137.71 128.32 C 137.55 127.35 136.62 126.69 135.65 126.86 L 134.66 127.03 C 133.68 127.19 133.03 128.12 133.20 129.09 C 133.36 130.07 134.29 130.72 135.26 130.55 Z M 136.26 130.38 L 137.26 130.20 C 138.23 130.03 138.88 129.10 138.71 128.13 C 138.54 127.16 137.61 126.51 136.64 126.68 L 135.64 126.86 C 134.67 127.03 134.02 127.96 134.19 128.93 C 134.36 129.91 135.29 130.55 136.26 130.38 Z M 137.27 130.20 L 138.27 130.02 C 139.24 129.84 139.88 128.91 139.70 127.94 C 139.52 126.97 138.59 126.33 137.62 126.50 L 136.63 126.69 C 135.66 126.87 135.01 127.80 135.19 128.77 C 135.37 129.74 136.30 130.38 137.27 130.20 Z M 138.28 130.01 L 139.28 129.82 C 140.25 129.64 140.88 128.70 140.70 127.73 C 140.51 126.76 139.57 126.13 138.61 126.32 L 137.61 126.51 C 136.64 126.69 136.01 127.63 136.19 128.60 C 136.38 129.57 137.31 130.20 138.28 130.01 Z M 139.29 129.82 L 140.29 129.62 C 141.26 129.42 141.88 128.48 141.69 127.52 C 141.50 126.55 140.56 125.93 139.59 126.12 L 138.59 126.32 C 137.63 126.51 137.00 127.45 137.19 128.42 C 137.39 129.39 138.33 130.01 139.29 129.82 Z M 140.31 129.61 L 141.29 129.41 C 142.25 129.21 142.87 128.26 142.67 127.30 C 142.47 126.33 141.52 125.72 140.56 125.92 L 139.58 126.12 C 138.61 126.33 138.00 127.27 138.20 128.23 C 138.40 129.20 139.34 129.81 140.31 129.61 Z M 141.30 129.40 L 142.27 129.19 C 143.23 128.98 143.84 128.03 143.63 127.07 C 143.42 126.11 142.48 125.50 141.52 125.71 L 140.55 125.92 C 139.58 126.13 138.98 127.08 139.18 128.04 C 139.39 129.00 140.34 129.61 141.30 129.40 Z M 142.28 129.19 L 143.24 128.97 C 144.20 128.76 144.80 127.80 144.59 126.84 C 144.37 125.89 143.42 125.28 142.46 125.50 L 141.50 125.72 C 140.54 125.93 139.94 126.88 140.16 127.84 C 140.37 128.80 141.33 129.40 142.28 129.19 Z M 143.26 128.97 L 144.22 128.74 C 145.18 128.52 145.77 127.57 145.55 126.61 C 145.33 125.65 144.37 125.06 143.42 125.28 L 142.45 125.50 C 141.49 125.73 140.90 126.68 141.12 127.64 C 141.34 128.59 142.30 129.19 143.26 128.97 Z M 144.23 128.74 L 145.21 128.51 C 146.16 128.28 146.75 127.32 146.52 126.37 C 146.29 125.41 145.34 124.83 144.38 125.05 L 143.41 125.28 C 142.45 125.51 141.86 126.47 142.09 127.42 C 142.32 128.38 143.27 128.97 144.23 128.74 Z M 145.21 128.50 L 146.18 128.27 C 147.14 128.04 147.72 127.08 147.49 126.13 C 147.26 125.18 146.30 124.59 145.35 124.82 L 144.38 125.06 C 143.43 125.29 142.84 126.24 143.07 127.20 C 143.30 128.15 144.26 128.73 145.21 128.50 Z M 146.18 128.27 L 147.15 128.03 C 148.10 127.80 148.69 126.84 148.46 125.89 C 148.23 124.94 147.27 124.36 146.32 124.59 L 145.35 124.82 C 144.40 125.05 143.82 126.01 144.05 126.96 C 144.28 127.91 145.23 128.50 146.18 128.27 Z M 147.15 128.03 L 148.12 127.80 C 149.07 127.57 149.65 126.61 149.43 125.66 C 149.20 124.71 148.24 124.13 147.29 124.36 L 146.32 124.59 C 145.38 124.82 144.79 125.77 145.02 126.72 C 145.25 127.67 146.20 128.26 147.15 128.03 Z M 148.11 127.79 L 149.09 127.56 C 150.04 127.34 150.62 126.39 150.40 125.44 C 150.18 124.49 149.22 123.90 148.28 124.13 L 147.30 124.36 C 146.35 124.58 145.76 125.53 145.99 126.48 C 146.21 127.43 147.16 128.02 148.11 127.79 Z M 149.08 127.56 L 150.06 127.34 C 151.01 127.12 151.60 126.17 151.38 125.22 C 151.16 124.27 150.21 123.68 149.26 123.90 L 148.28 124.13 C 147.34 124.35 146.74 125.30 146.96 126.24 C 147.18 127.19 148.13 127.78 149.08 127.56 Z M 150.06 127.33 L 151.04 127.11 C 151.98 126.89 152.57 125.94 152.36 125.00 C 152.14 124.05 151.19 123.46 150.25 123.68 L 149.27 123.90 C 148.32 124.12 147.73 125.07 147.95 126.01 C 148.17 126.96 149.11 127.55 150.06 127.33 Z M 151.04 127.10 L 152.01 126.88 C 152.96 126.66 153.54 125.72 153.32 124.77 C 153.11 123.83 152.16 123.24 151.22 123.46 L 150.24 123.68 C 149.30 123.90 148.71 124.85 148.93 125.79 C 149.15 126.74 150.09 127.32 151.04 127.10 Z M 152.02 126.87 L 152.98 126.65 C 153.92 126.42 154.51 125.48 154.28 124.54 C 154.06 123.59 153.12 123.01 152.17 123.23 L 151.21 123.46 C 150.27 123.68 149.68 124.63 149.91 125.57 C 150.13 126.51 151.08 127.10 152.02 126.87 Z M 152.99 126.64 L 153.97 126.40 C 154.91 126.17 155.48 125.22 155.26 124.29 C 155.03 123.35 154.08 122.77 153.14 123.00 L 152.16 123.24 C 151.22 123.47 150.65 124.42 150.88 125.35 C 151.11 126.29 152.05 126.87 152.99 126.64 Z M 153.98 126.39 L 154.96 126.15 C 155.90 125.91 156.46 124.96 156.23 124.03 C 155.99 123.09 155.05 122.53 154.11 122.76 L 153.13 123.01 C 152.20 123.24 151.63 124.19 151.86 125.13 C 152.10 126.06 153.05 126.63 153.98 126.39 Z M 154.97 126.14 L 155.94 125.89 C 156.87 125.65 157.43 124.71 157.19 123.78 C 156.95 122.85 156.01 122.28 155.07 122.52 L 154.10 122.77 C 153.17 123.01 152.61 123.95 152.85 124.89 C 153.09 125.82 154.04 126.38 154.97 126.14 Z M 155.94 125.88 L 156.90 125.64 C 157.83 125.40 158.38 124.45 158.15 123.53 C 157.91 122.60 156.96 122.04 156.04 122.28 L 155.07 122.53 C 154.15 122.77 153.59 123.71 153.83 124.64 C 154.07 125.56 155.01 126.12 155.94 125.88 Z M 156.89 125.63 L 157.85 125.39 C 158.77 125.15 159.33 124.21 159.09 123.29 C 158.86 122.36 157.92 121.81 156.99 122.04 L 156.04 122.29 C 155.12 122.52 154.56 123.46 154.79 124.39 C 155.03 125.31 155.97 125.87 156.89 125.63 Z M 157.84 125.38 L 158.81 125.14 C 159.73 124.91 160.29 123.97 160.06 123.05 C 159.83 122.13 158.90 121.57 157.97 121.80 L 157.00 122.05 C 156.08 122.28 155.52 123.21 155.75 124.13 C 155.98 125.06 156.92 125.62 157.84 125.38 Z M 158.80 125.13 L 159.77 124.89 C 160.69 124.67 161.25 123.74 161.03 122.82 C 160.80 121.90 159.87 121.34 158.95 121.57 L 157.98 121.81 C 157.06 122.03 156.50 122.96 156.73 123.88 C 156.96 124.80 157.89 125.36 158.80 125.13 Z M 159.77 124.89 L 160.74 124.65 C 161.65 124.43 162.21 123.51 161.99 122.59 C 161.77 121.67 160.84 121.11 159.93 121.34 L 158.96 121.57 C 158.04 121.80 157.48 122.72 157.71 123.63 C 157.93 124.55 158.85 125.11 159.77 124.89 Z M 160.73 124.65 L 161.70 124.41 C 162.61 124.19 163.18 123.27 162.96 122.36 C 162.74 121.45 161.82 120.89 160.91 121.11 L 159.93 121.34 C 159.02 121.56 158.46 122.48 158.68 123.39 C 158.90 124.30 159.82 124.87 160.73 124.65 Z M 161.70 124.41 L 162.64 124.18 C 163.55 123.96 164.11 123.05 163.90 122.14 C 163.68 121.23 162.77 120.67 161.86 120.89 L 160.91 121.11 C 160.00 121.33 159.44 122.24 159.66 123.15 C 159.87 124.06 160.79 124.62 161.70 124.41 Z M 162.64 124.17 L 163.56 123.96 C 164.47 123.74 165.03 122.83 164.81 121.93 C 164.60 121.02 163.69 120.46 162.79 120.68 L 161.86 120.89 C 160.96 121.11 160.40 122.02 160.61 122.92 C 160.83 123.83 161.73 124.39 162.64 124.17 Z M 163.55 123.95 L 164.50 123.73 C 165.40 123.52 165.97 122.62 165.76 121.72 C 165.55 120.81 164.64 120.25 163.74 120.46 L 162.79 120.68 C 161.89 120.89 161.33 121.79 161.54 122.70 C 161.75 123.60 162.65 124.16 163.55 123.95 Z M 164.49 123.73 L 165.47 123.50 C 166.37 123.30 166.94 122.40 166.73 121.50 C 166.53 120.60 165.63 120.04 164.73 120.24 L 163.75 120.46 C 162.85 120.67 162.29 121.56 162.49 122.47 C 162.69 123.37 163.59 123.93 164.49 123.73 Z M 165.46 123.50 L 166.49 123.27 C 167.39 123.08 167.96 122.19 167.76 121.29 C 167.57 120.39 166.68 119.82 165.78 120.02 L 164.75 120.25 C 163.85 120.44 163.28 121.33 163.48 122.23 C 163.67 123.13 164.56 123.70 165.46 123.50 Z M 166.48 123.27 L 167.49 123.06 C 168.38 122.87 168.96 121.99 168.77 121.09 C 168.58 120.19 167.70 119.62 166.80 119.81 L 165.79 120.02 C 164.89 120.21 164.32 121.09 164.51 121.99 C 164.70 122.89 165.58 123.46 166.48 123.27 Z M 167.47 123.05 L 168.46 122.85 C 169.35 122.67 169.93 121.80 169.75 120.90 C 169.57 120.01 168.69 119.43 167.80 119.61 L 166.81 119.81 C 165.92 120.00 165.34 120.87 165.52 121.76 C 165.71 122.66 166.58 123.24 167.47 123.05 Z M 168.44 122.85 L 169.45 122.65 C 170.34 122.48 170.93 121.61 170.75 120.72 C 170.58 119.83 169.71 119.24 168.82 119.42 L 167.81 119.61 C 166.92 119.79 166.34 120.65 166.51 121.55 C 166.69 122.44 167.55 123.02 168.44 122.85 Z M 169.43 122.65 L 170.44 122.47 C 171.33 122.30 171.92 121.45 171.76 120.55 C 171.59 119.66 170.74 119.07 169.84 119.23 L 168.84 119.42 C 167.95 119.58 167.36 120.44 167.52 121.33 C 167.68 122.22 168.54 122.81 169.43 122.65 Z M 170.42 122.46 L 171.40 122.30 C 172.29 122.14 172.89 121.30 172.74 120.41 C 172.59 119.52 171.75 118.92 170.85 119.07 L 169.87 119.24 C 168.98 119.39 168.38 120.23 168.53 121.12 C 168.68 122.02 169.52 122.62 170.42 122.46 Z M 171.37 122.30 L 172.32 122.15 C 173.21 122.01 173.82 121.18 173.69 120.29 C 173.55 119.40 172.72 118.79 171.83 118.93 L 170.88 119.07 C 169.99 119.21 169.38 120.04 169.52 120.93 C 169.65 121.82 170.48 122.43 171.37 122.30 Z M 172.28 122.15 L 173.41 122.00 C 174.29 121.89 174.92 121.08 174.81 120.19 C 174.70 119.30 173.89 118.68 173.00 118.79 L 171.87 118.93 C 170.98 119.04 170.36 119.85 170.47 120.74 C 170.58 121.63 171.39 122.26 172.28 122.15 Z M 173.35 122.00 L 174.39 121.90 C 175.28 121.82 175.93 121.04 175.85 120.15 C 175.77 119.27 174.99 118.62 174.10 118.70 L 173.06 118.80 C 172.17 118.88 171.52 119.66 171.60 120.54 C 171.68 121.43 172.46 122.08 173.35 122.00 Z M 174.33 121.89 L 175.29 121.84 C 176.17 121.80 176.85 121.05 176.81 120.18 C 176.76 119.30 176.02 118.62 175.14 118.66 L 174.17 118.71 C 173.29 118.75 172.62 119.50 172.66 120.38 C 172.70 121.26 173.45 121.93 174.33 121.89 Z M 175.22 121.83 L 176.12 121.83 C 176.99 121.83 177.69 121.13 177.70 120.26 C 177.70 119.39 176.99 118.68 176.12 118.68 L 175.22 118.68 C 174.35 118.68 173.64 119.38 173.64 120.25 C 173.64 121.12 174.34 121.83 175.22 121.83 Z M 176.00 121.81 L 177.11 121.89 C 177.97 121.96 178.72 121.31 178.78 120.45 C 178.84 119.59 178.20 118.84 177.34 118.78 L 176.23 118.70 C 175.37 118.63 174.63 119.28 174.56 120.14 C 174.50 121.00 175.14 121.75 176.00 121.81 Z M 176.78 121.81 L 177.76 122.10 C 178.57 122.35 179.43 121.88 179.67 121.07 C 179.92 120.26 179.45 119.40 178.64 119.15 L 177.67 118.86 C 176.85 118.62 175.99 119.08 175.75 119.89 C 175.51 120.71 175.97 121.57 176.78 121.81 Z M 176.81 121.25 L 177.10 121.88 C 177.44 122.65 178.34 122.99 179.10 122.65 C 179.87 122.30 180.21 121.41 179.87 120.64 L 179.58 120.01 C 179.24 119.24 178.34 118.90 177.58 119.24 C 176.81 119.59 176.47 120.48 176.81 121.25 Z M 177.14 120.60 L 176.85 121.19 C 176.48 121.93 176.79 122.83 177.53 123.20 C 178.28 123.56 179.17 123.25 179.54 122.51 L 179.83 121.92 C 180.19 121.18 179.89 120.28 179.14 119.92 C 178.40 119.55 177.50 119.86 177.14 120.60 Z M 177.04 120.91 L 176.54 121.54 C 176.02 122.17 176.11 123.11 176.75 123.63 C 177.38 124.14 178.32 124.05 178.84 123.41 L 179.34 122.79 C 179.86 122.15 179.77 121.22 179.13 120.70 C 178.50 120.18 177.56 120.28 177.04 120.91 Z M 176.64 121.45 L 175.94 122.16 C 175.37 122.74 175.38 123.67 175.96 124.24 C 176.54 124.80 177.47 124.79 178.04 124.21 L 178.74 123.50 C 179.30 122.92 179.29 121.99 178.71 121.42 C 178.13 120.86 177.20 120.87 176.64 121.45 Z M 176.00 122.12 L 175.17 122.89 C 174.58 123.44 174.55 124.36 175.09 124.95 C 175.64 125.54 176.56 125.57 177.15 125.02 L 177.98 124.25 C 178.57 123.70 178.60 122.78 178.06 122.19 C 177.51 121.61 176.59 121.57 176.00 122.12 Z M 175.20 122.88 L 174.29 123.69 C 173.69 124.22 173.64 125.13 174.17 125.73 C 174.69 126.32 175.61 126.38 176.20 125.85 L 177.12 125.04 C 177.71 124.51 177.77 123.60 177.24 123.00 C 176.71 122.41 175.80 122.35 175.20 122.88 Z M 174.30 123.69 L 173.73 124.20 C 173.13 124.72 173.07 125.62 173.59 126.21 C 174.11 126.81 175.01 126.87 175.61 126.35 L 176.19 125.85 C 176.78 125.33 176.84 124.42 176.32 123.83 C 175.80 123.23 174.90 123.17 174.30 123.69 Z"
      fill="black"
      fill-rule="nonzero" /><path d="M 132.39 157.65 L 132.08 156.59 C 131.84 155.75 130.97 155.27 130.14 155.51 C 129.31 155.75 128.82 156.62 129.06 157.46 L 129.37 158.52 C 129.61 159.35 130.48 159.83 131.31 159.59 C 132.15 159.35 132.63 158.48 132.39 157.65 Z M 132.14 156.70 L 131.92 155.68 C 131.74 154.82 130.90 154.26 130.04 154.44 C 129.17 154.62 128.62 155.47 128.80 156.33 L 129.01 157.35 C 129.19 158.21 130.04 158.77 130.90 158.59 C 131.76 158.41 132.32 157.56 132.14 156.70 Z M 131.98 155.96 L 131.95 155.02 C 131.93 154.13 131.18 153.42 130.29 153.45 C 129.39 153.48 128.69 154.22 128.71 155.12 L 128.74 156.05 C 128.77 156.95 129.51 157.65 130.41 157.63 C 131.30 157.60 132.01 156.85 131.98 155.96 Z M 131.90 155.55 L 132.16 154.73 C 132.42 153.87 131.94 152.95 131.07 152.68 C 130.20 152.41 129.28 152.90 129.02 153.77 L 128.76 154.59 C 128.50 155.45 128.98 156.37 129.85 156.64 C 130.72 156.91 131.64 156.42 131.90 155.55 Z M 131.85 155.32 L 132.43 154.63 C 133.02 153.93 132.93 152.88 132.23 152.29 C 131.53 151.70 130.49 151.79 129.90 152.49 L 129.32 153.18 C 128.73 153.88 128.82 154.93 129.52 155.52 C 130.22 156.11 131.26 156.02 131.85 155.32 Z M 132.11 154.93 L 132.93 154.37 C 133.69 153.85 133.88 152.82 133.37 152.06 C 132.85 151.30 131.81 151.10 131.05 151.62 L 130.23 152.19 C 129.47 152.70 129.27 153.74 129.79 154.50 C 130.31 155.26 131.35 155.45 132.11 154.93 Z M 132.71 154.51 L 133.69 154.04 C 134.52 153.64 134.87 152.64 134.47 151.81 C 134.07 150.98 133.08 150.62 132.24 151.02 L 131.27 151.49 C 130.44 151.89 130.08 152.88 130.48 153.72 C 130.88 154.55 131.88 154.90 132.71 154.51 Z M 133.57 154.10 L 134.52 153.73 C 135.38 153.40 135.82 152.43 135.48 151.56 C 135.15 150.70 134.18 150.27 133.31 150.60 L 132.36 150.97 C 131.50 151.30 131.07 152.27 131.40 153.13 C 131.73 154.00 132.70 154.43 133.57 154.10 Z M 134.44 153.76 L 135.38 153.45 C 136.26 153.16 136.74 152.21 136.45 151.33 C 136.16 150.45 135.21 149.97 134.33 150.26 L 133.39 150.57 C 132.51 150.86 132.03 151.81 132.32 152.69 C 132.61 153.57 133.56 154.05 134.44 153.76 Z M 135.31 153.47 L 136.27 153.20 C 137.16 152.94 137.68 152.01 137.43 151.12 C 137.17 150.23 136.24 149.71 135.35 149.97 L 134.39 150.24 C 133.50 150.50 132.99 151.42 133.24 152.32 C 133.49 153.21 134.42 153.72 135.31 153.47 Z M 136.22 153.21 L 137.20 152.96 C 138.10 152.74 138.65 151.83 138.43 150.93 C 138.20 150.03 137.29 149.48 136.39 149.71 L 135.41 149.96 C 134.51 150.18 133.96 151.09 134.19 151.99 C 134.41 152.89 135.32 153.43 136.22 153.21 Z M 137.17 152.97 L 138.07 152.77 C 138.97 152.57 139.54 151.67 139.34 150.77 C 139.14 149.86 138.24 149.29 137.34 149.50 L 136.43 149.70 C 135.53 149.90 134.96 150.80 135.16 151.70 C 135.37 152.61 136.26 153.17 137.17 152.97 Z M 138.04 152.77 L 138.92 152.59 C 139.82 152.41 140.41 151.53 140.22 150.62 C 140.04 149.71 139.15 149.13 138.25 149.31 L 137.37 149.49 C 136.46 149.68 135.88 150.56 136.06 151.47 C 136.25 152.37 137.13 152.96 138.04 152.77 Z M 138.88 152.60 L 139.82 152.42 C 140.73 152.26 141.33 151.38 141.16 150.48 C 140.99 149.57 140.12 148.97 139.21 149.14 L 138.28 149.31 C 137.37 149.48 136.77 150.35 136.94 151.26 C 137.11 152.17 137.98 152.76 138.88 152.60 Z M 139.79 152.43 L 140.81 152.25 C 141.72 152.10 142.33 151.24 142.18 150.33 C 142.03 149.43 141.17 148.81 140.26 148.97 L 139.24 149.14 C 138.33 149.29 137.72 150.15 137.87 151.06 C 138.02 151.96 138.88 152.58 139.79 152.43 Z M 140.79 152.26 L 141.91 152.08 C 142.82 151.94 143.45 151.10 143.31 150.19 C 143.17 149.28 142.32 148.65 141.41 148.79 L 140.29 148.96 C 139.38 149.10 138.75 149.95 138.89 150.86 C 139.03 151.77 139.88 152.39 140.79 152.26 Z M 141.90 152.08 L 142.89 151.94 C 143.79 151.81 144.43 150.97 144.30 150.06 C 144.17 149.16 143.33 148.52 142.42 148.65 L 141.43 148.79 C 140.52 148.92 139.89 149.76 140.02 150.67 C 140.15 151.58 140.99 152.21 141.90 152.08 Z M 142.87 151.94 L 143.82 151.81 C 144.73 151.69 145.37 150.86 145.24 149.95 C 145.12 149.04 144.29 148.41 143.38 148.53 L 142.43 148.66 C 141.53 148.78 140.89 149.61 141.01 150.52 C 141.13 151.42 141.97 152.06 142.87 151.94 Z M 143.81 151.81 L 144.80 151.68 C 145.71 151.57 146.35 150.74 146.23 149.84 C 146.12 148.93 145.29 148.29 144.39 148.41 L 143.39 148.53 C 142.49 148.65 141.85 149.47 141.96 150.38 C 142.08 151.28 142.91 151.92 143.81 151.81 Z M 144.79 151.68 L 145.81 151.56 C 146.72 151.45 147.36 150.63 147.25 149.72 C 147.14 148.82 146.32 148.18 145.42 148.28 L 144.40 148.41 C 143.49 148.52 142.85 149.34 142.96 150.24 C 143.07 151.15 143.89 151.79 144.79 151.68 Z M 145.80 151.55 L 146.83 151.43 C 147.74 151.33 148.38 150.51 148.28 149.61 C 148.17 148.71 147.36 148.07 146.46 148.17 L 145.43 148.29 C 144.53 148.39 143.88 149.21 143.98 150.11 C 144.09 151.01 144.90 151.66 145.80 151.55 Z M 146.82 151.43 L 147.85 151.32 C 148.75 151.22 149.40 150.41 149.30 149.51 C 149.20 148.61 148.39 147.96 147.49 148.06 L 146.47 148.17 C 145.57 148.27 144.92 149.08 145.02 149.98 C 145.12 150.88 145.92 151.53 146.82 151.43 Z M 147.84 151.32 L 148.84 151.21 C 149.74 151.12 150.39 150.32 150.30 149.42 C 150.21 148.52 149.41 147.87 148.51 147.96 L 147.50 148.06 C 146.61 148.16 145.95 148.96 146.05 149.86 C 146.14 150.75 146.94 151.41 147.84 151.32 Z M 148.83 151.20 L 149.89 151.10 C 150.79 151.02 151.44 150.22 151.36 149.33 C 151.27 148.44 150.48 147.78 149.59 147.87 L 148.52 147.97 C 147.63 148.05 146.97 148.85 147.06 149.74 C 147.14 150.63 147.94 151.29 148.83 151.20 Z M 149.88 151.09 L 150.92 151.00 C 151.80 150.92 152.46 150.14 152.38 149.26 C 152.30 148.37 151.53 147.72 150.64 147.79 L 149.60 147.88 C 148.72 147.96 148.06 148.74 148.14 149.62 C 148.22 150.51 148.99 151.16 149.88 151.09 Z M 150.90 150.98 L 151.91 150.90 C 152.78 150.84 153.44 150.07 153.37 149.20 C 153.30 148.32 152.54 147.67 151.66 147.74 L 150.66 147.81 C 149.78 147.88 149.13 148.64 149.20 149.52 C 149.26 150.39 150.03 151.05 150.90 150.98 Z M 151.89 150.89 L 152.87 150.82 C 153.73 150.77 154.39 150.02 154.33 149.15 C 154.27 148.29 153.53 147.63 152.66 147.69 L 151.68 147.75 C 150.82 147.81 150.16 148.56 150.22 149.42 C 150.27 150.29 151.02 150.94 151.89 150.89 Z M 152.85 150.81 L 153.81 150.75 C 154.66 150.71 155.32 149.98 155.27 149.12 C 155.23 148.26 154.50 147.61 153.64 147.65 L 152.68 147.71 C 151.82 147.75 151.17 148.48 151.21 149.34 C 151.26 150.20 151.99 150.85 152.85 150.81 Z M 153.79 150.74 L 154.74 150.70 C 155.59 150.66 156.24 149.94 156.21 149.10 C 156.17 148.25 155.46 147.59 154.61 147.63 L 153.66 147.67 C 152.81 147.71 152.15 148.42 152.19 149.27 C 152.23 150.12 152.94 150.77 153.79 150.74 Z M 154.72 150.68 L 155.71 150.65 C 156.55 150.62 157.20 149.92 157.18 149.08 C 157.15 148.25 156.45 147.59 155.61 147.61 L 154.63 147.64 C 153.79 147.67 153.13 148.37 153.16 149.21 C 153.18 150.05 153.88 150.71 154.72 150.68 Z M 155.69 150.64 L 156.69 150.62 C 157.52 150.60 158.18 149.91 158.16 149.08 C 158.15 148.25 157.46 147.59 156.63 147.61 L 155.63 147.63 C 154.80 147.64 154.14 148.33 154.15 149.16 C 154.17 149.99 154.86 150.65 155.69 150.64 Z M 156.68 150.60 L 157.68 150.59 C 158.50 150.58 159.16 149.91 159.15 149.08 C 159.14 148.26 158.47 147.60 157.64 147.61 L 156.64 147.62 C 155.82 147.63 155.16 148.30 155.17 149.13 C 155.18 149.95 155.85 150.61 156.68 150.60 Z M 157.66 150.58 L 158.66 150.57 C 159.48 150.57 160.14 149.91 160.14 149.09 C 160.14 148.27 159.47 147.61 158.65 147.62 L 157.65 147.62 C 156.84 147.62 156.18 148.29 156.18 149.10 C 156.18 149.92 156.85 150.58 157.66 150.58 Z M 158.65 150.56 L 159.65 150.57 C 160.46 150.57 161.12 149.91 161.13 149.10 C 161.13 148.29 160.47 147.63 159.66 147.63 L 158.66 147.63 C 157.85 147.63 157.19 148.28 157.19 149.09 C 157.19 149.90 157.84 150.56 158.65 150.56 Z M 159.65 150.55 L 160.65 150.56 C 161.45 150.57 162.11 149.92 162.11 149.12 C 162.12 148.32 161.47 147.66 160.67 147.65 L 159.67 147.64 C 158.87 147.64 158.21 148.28 158.20 149.09 C 158.20 149.89 158.84 150.55 159.65 150.55 Z M 160.64 150.55 L 161.71 150.57 C 162.51 150.58 163.16 149.94 163.17 149.14 C 163.18 148.34 162.55 147.69 161.75 147.68 L 160.68 147.66 C 159.88 147.65 159.22 148.29 159.21 149.09 C 159.20 149.89 159.84 150.54 160.64 150.55 Z M 161.70 150.56 L 162.77 150.58 C 163.56 150.60 164.22 149.96 164.23 149.17 C 164.25 148.37 163.61 147.71 162.82 147.70 L 161.75 147.68 C 160.96 147.67 160.30 148.30 160.29 149.09 C 160.27 149.89 160.91 150.55 161.70 150.56 Z M 162.76 150.58 L 163.79 150.60 C 164.58 150.62 165.24 150.00 165.26 149.20 C 165.28 148.41 164.65 147.75 163.86 147.73 L 162.83 147.70 C 162.03 147.68 161.38 148.31 161.36 149.11 C 161.34 149.90 161.96 150.56 162.76 150.58 Z M 163.78 150.60 L 164.76 150.63 C 165.55 150.66 166.21 150.04 166.24 149.25 C 166.27 148.46 165.65 147.79 164.86 147.77 L 163.87 147.73 C 163.08 147.71 162.42 148.33 162.39 149.12 C 162.37 149.91 162.99 150.57 163.78 150.60 Z M 164.75 150.63 L 165.66 150.67 C 166.45 150.70 167.12 150.09 167.15 149.30 C 167.19 148.51 166.58 147.85 165.79 147.81 L 164.87 147.77 C 164.08 147.74 163.42 148.35 163.38 149.14 C 163.35 149.92 163.96 150.59 164.75 150.63 Z M 165.64 150.66 L 166.66 150.73 C 167.45 150.77 168.13 150.17 168.17 149.39 C 168.22 148.60 167.62 147.93 166.84 147.88 L 165.81 147.82 C 165.03 147.77 164.35 148.37 164.30 149.15 C 164.26 149.94 164.85 150.62 165.64 150.66 Z M 166.63 150.72 L 167.70 150.81 C 168.48 150.88 169.17 150.30 169.24 149.51 C 169.30 148.73 168.72 148.04 167.94 147.97 L 166.87 147.88 C 166.09 147.82 165.40 148.40 165.33 149.18 C 165.26 149.97 165.85 150.66 166.63 150.72 Z M 167.67 150.81 L 168.62 150.91 C 169.40 150.99 170.10 150.43 170.18 149.64 C 170.27 148.86 169.70 148.16 168.92 148.08 L 167.97 147.97 C 167.19 147.89 166.48 148.46 166.40 149.24 C 166.32 150.02 166.88 150.72 167.67 150.81 Z M 168.60 150.91 L 169.48 151.02 C 170.26 151.11 170.97 150.55 171.07 149.77 C 171.16 148.99 170.61 148.28 169.83 148.19 L 168.94 148.08 C 168.16 147.98 167.45 148.54 167.35 149.32 C 167.26 150.10 167.81 150.81 168.60 150.91 Z M 169.48 151.02 L 169.60 151.03 C 170.38 151.13 171.09 150.57 171.19 149.79 C 171.28 149.01 170.73 148.30 169.95 148.20 L 169.83 148.19 C 169.05 148.09 168.34 148.64 168.24 149.42 C 168.14 150.21 168.70 150.92 169.48 151.02 Z"
      fill="black"
      fill-rule="nonzero" /></svg>