<svg xmlns="http://www.w3.org/2000/svg" width="300" height="300" viewBox="0 0 300 300">
<path d="M 145.82 112.35 L 146.10 113.31 C 146.35 114.12 147.20 114.58 148.01 114.33 C 148.82 114.09 149.28 113.23 149.04 112.42 L 148.75 111.47 C 148.50 110.66 147.65 110.20 146.84 110.45 C 146.03 110.69 145.57 111.55 145.82 112.35 Z M 146.10 113.30 L 146.38 114.26 C 146.62 115.07 147.47 115.54 148.29 115.30 C 149.10 115.06 149.57 114.20 149.33 113.39 L 149.04 112.43 C 148.80 111.62 147.95 111.15 147.13 111.39 C 146.32 111.63 145.85 112.49 146.10 113.30 Z M 146.37 114.24 L 146.64 115.20 C 146.87 116.02 147.72 116.50 148.54 116.27 C 149.36 116.04 149.84 115.19 149.61 114.36 L 149.34 113.40 C 149.11 112.58 148.25 112.10 147.43 112.34 C 146.61 112.57 146.13 113.42 146.37 114.24 Z M 146.62 115.18 L 146.88 116.15 C 147.10 116.98 147.94 117.47 148.77 117.26 C 149.60 117.04 150.10 116.19 149.88 115.36 L 149.62 114.39 C 149.41 113.56 148.56 113.07 147.73 113.28 C 146.90 113.50 146.41 114.35 146.62 115.18 Z M 146.87 116.11 L 147.09 117.05 C 147.29 117.89 148.13 118.40 148.96 118.20 C 149.80 118.00 150.31 117.17 150.11 116.33 L 149.89 115.39 C 149.69 114.56 148.85 114.04 148.02 114.24 C 147.18 114.44 146.67 115.28 146.87 116.11 Z M 147.09 117.01 L 147.28 117.91 C 147.46 118.74 148.28 119.27 149.12 119.10 C 149.95 118.92 150.48 118.09 150.31 117.26 L 150.11 116.37 C 149.94 115.53 149.11 115.00 148.28 115.18 C 147.44 115.36 146.91 116.18 147.09 117.01 Z M 147.29 117.88 L 147.47 118.81 C 147.63 119.64 148.44 120.18 149.27 120.02 C 150.10 119.85 150.64 119.05 150.48 118.22 L 150.30 117.29 C 150.14 116.46 149.33 115.91 148.50 116.08 C 147.67 116.24 147.12 117.05 147.29 117.88 Z M 147.48 118.79 L 147.66 119.77 C 147.81 120.60 148.60 121.14 149.43 120.99 C 150.26 120.84 150.80 120.05 150.65 119.22 L 150.47 118.24 C 150.32 117.41 149.53 116.86 148.70 117.02 C 147.87 117.17 147.33 117.96 147.48 118.79 Z M 147.67 119.76 L 147.86 120.82 C 148.00 121.64 148.79 122.18 149.61 122.04 C 150.43 121.89 150.97 121.11 150.83 120.29 L 150.64 119.23 C 150.49 118.41 149.71 117.86 148.89 118.01 C 148.07 118.16 147.53 118.94 147.67 119.76 Z M 147.87 120.81 L 148.06 121.89 C 148.20 122.70 148.98 123.25 149.79 123.10 C 150.61 122.96 151.15 122.18 151.01 121.37 L 150.82 120.29 C 150.67 119.48 149.90 118.94 149.08 119.08 C 148.27 119.22 147.73 120.00 147.87 120.81 Z M 148.07 121.89 L 148.24 122.85 C 148.38 123.66 149.15 124.20 149.96 124.06 C 150.77 123.91 151.31 123.14 151.17 122.33 L 151.00 121.37 C 150.85 120.56 150.08 120.02 149.27 120.16 C 148.46 120.31 147.92 121.08 148.07 121.89 Z M 148.24 122.85 L 148.42 123.85 C 148.57 124.66 149.34 125.20 150.14 125.05 C 150.95 124.91 151.48 124.14 151.34 123.33 L 151.16 122.33 C 151.02 121.53 150.25 120.99 149.44 121.13 C 148.64 121.28 148.10 122.05 148.24 122.85 Z M 148.43 123.85 L 148.61 124.87 C 148.76 125.68 149.52 126.21 150.33 126.07 C 151.13 125.92 151.66 125.15 151.52 124.35 L 151.33 123.33 C 151.19 122.53 150.42 122.00 149.62 122.14 C 148.82 122.28 148.28 123.05 148.43 123.85 Z M 148.62 124.88 L 148.80 125.89 C 148.95 126.69 149.71 127.22 150.51 127.08 C 151.31 126.93 151.84 126.16 151.70 125.37 L 151.51 124.35 C 151.37 123.55 150.60 123.02 149.80 123.17 C 149.00 123.31 148.47 124.08 148.62 124.88 Z M 148.81 125.89 L 148.99 126.89 C 149.14 127.68 149.90 128.21 150.70 128.06 C 151.49 127.91 152.02 127.15 151.87 126.35 L 151.69 125.36 C 151.54 124.57 150.78 124.04 149.98 124.19 C 149.19 124.33 148.66 125.10 148.81 125.89 Z M 149.00 126.89 L 149.18 127.84 C 149.32 128.63 150.09 129.15 150.88 129.00 C 151.67 128.85 152.19 128.09 152.04 127.30 L 151.87 126.35 C 151.72 125.56 150.95 125.04 150.16 125.19 C 149.37 125.33 148.85 126.10 149.00 126.89 Z M 149.18 127.84 L 149.38 128.89 C 149.54 129.68 150.30 130.20 151.09 130.05 C 151.87 129.89 152.39 129.13 152.24 128.34 L 152.04 127.29 C 151.89 126.50 151.12 125.99 150.34 126.14 C 149.55 126.29 149.03 127.05 149.18 127.84 Z M 149.39 128.90 L 149.59 129.92 C 149.75 130.71 150.51 131.22 151.29 131.06 C 152.08 130.91 152.59 130.15 152.43 129.36 L 152.23 128.34 C 152.08 127.55 151.32 127.04 150.53 127.20 C 149.75 127.35 149.24 128.11 149.39 128.90 Z M 149.60 129.92 L 149.79 130.88 C 149.94 131.66 150.70 132.17 151.48 132.02 C 152.26 131.87 152.77 131.11 152.62 130.33 L 152.43 129.36 C 152.27 128.58 151.52 128.07 150.73 128.23 C 149.95 128.38 149.44 129.14 149.60 129.92 Z M 149.79 130.88 L 149.97 131.81 C 150.12 132.59 150.87 133.10 151.65 132.95 C 152.43 132.80 152.94 132.05 152.79 131.27 L 152.61 130.33 C 152.46 129.55 151.71 129.04 150.93 129.19 C 150.15 129.34 149.64 130.10 149.79 130.88 Z M 149.97 131.80 L 150.15 132.73 C 150.29 133.51 151.04 134.02 151.81 133.88 C 152.59 133.74 153.10 132.99 152.96 132.21 L 152.79 131.28 C 152.65 130.50 151.90 129.99 151.12 130.13 C 150.35 130.27 149.83 131.02 149.97 131.80 Z M 150.15 132.71 L 150.31 133.65 C 150.44 134.43 151.18 134.95 151.96 134.82 C 152.74 134.68 153.26 133.94 153.12 133.17 L 152.96 132.23 C 152.83 131.45 152.09 130.93 151.31 131.07 C 150.53 131.20 150.01 131.94 150.15 132.71 Z M 150.31 133.64 L 150.46 134.59 C 150.59 135.37 151.32 135.90 152.10 135.77 C 152.88 135.65 153.40 134.91 153.28 134.14 L 153.12 133.18 C 153.00 132.40 152.27 131.88 151.49 132.00 C 150.71 132.13 150.18 132.86 150.31 133.64 Z M 150.46 134.58 L 150.61 135.56 C 150.73 136.34 151.46 136.88 152.24 136.76 C 153.02 136.64 153.55 135.91 153.43 135.13 L 153.28 134.15 C 153.16 133.37 152.43 132.83 151.65 132.95 C 150.88 133.07 150.34 133.80 150.46 134.58 Z M 150.61 135.56 L 150.76 136.56 C 150.88 137.34 151.60 137.88 152.38 137.76 C 153.16 137.65 153.70 136.92 153.58 136.14 L 153.43 135.14 C 153.32 134.36 152.59 133.82 151.81 133.94 C 151.03 134.05 150.50 134.78 150.61 135.56 Z M 150.76 136.55 L 150.91 137.57 C 151.02 138.35 151.74 138.89 152.52 138.78 C 153.30 138.67 153.84 137.94 153.73 137.16 L 153.58 136.15 C 153.47 135.37 152.75 134.83 151.97 134.94 C 151.19 135.05 150.65 135.78 150.76 136.55 Z M 150.91 137.57 L 151.03 138.44 C 151.14 139.22 151.86 139.76 152.64 139.65 C 153.42 139.54 153.96 138.82 153.85 138.04 L 153.73 137.17 C 153.62 136.39 152.89 135.85 152.12 135.96 C 151.34 136.07 150.79 136.79 150.91 137.57 Z"
      fill="black"
      fill-rule="nonzero" /><path d="M 117.27 141.53 L 116.31 141.26 C 115.50 141.04 114.65 141.51 114.43 142.32 C 114.20 143.13 114.67 143.97 115.48 144.20 L 116.44 144.47 C 117.25 144.70 118.09 144.22 118.32 143.41 C 118.55 142.60 118.08 141.76 117.27 141.53 Z M 116.31 141.26 L 115.35 140.98 C 114.54 140.75 113.69 141.23 113.46 142.04 C 113.23 142.85 113.70 143.70 114.52 143.93 L 115.48 144.20 C 116.29 144.43 117.14 143.96 117.37 143.15 C 117.60 142.33 117.12 141.49 116.31 141.26 Z M 115.36 140.98 L 114.39 140.70 C 113.58 140.47 112.73 140.94 112.49 141.76 C 112.26 142.58 112.73 143.43 113.55 143.66 L 114.51 143.94 C 115.33 144.17 116.18 143.70 116.41 142.88 C 116.65 142.06 116.17 141.21 115.36 140.98 Z M 114.40 140.70 L 113.44 140.42 C 112.62 140.18 111.76 140.65 111.53 141.47 C 111.29 142.29 111.76 143.15 112.58 143.39 L 113.54 143.67 C 114.36 143.91 115.22 143.43 115.46 142.62 C 115.69 141.80 115.22 140.94 114.40 140.70 Z M 113.46 140.41 L 112.28 140.05 C 111.45 139.80 110.58 140.27 110.33 141.09 C 110.08 141.92 110.55 142.79 111.37 143.04 L 112.56 143.40 C 113.38 143.65 114.26 143.18 114.50 142.35 C 114.75 141.53 114.29 140.66 113.46 140.41 Z M 112.38 140.06 L 111.29 139.65 C 110.47 139.34 109.55 139.75 109.24 140.58 C 108.93 141.40 109.35 142.32 110.17 142.62 L 111.27 143.03 C 112.09 143.34 113.01 142.93 113.31 142.10 C 113.62 141.28 113.21 140.36 112.38 140.06 Z M 111.83 139.94 L 111.40 139.54 C 110.74 138.93 109.71 138.97 109.10 139.63 C 108.49 140.29 108.53 141.32 109.19 141.92 L 109.63 142.33 C 110.28 142.94 111.31 142.90 111.92 142.24 C 112.53 141.58 112.49 140.55 111.83 139.94 Z M 111.31 142.04 L 111.70 141.73 C 112.42 141.17 112.55 140.13 111.99 139.41 C 111.43 138.69 110.39 138.56 109.67 139.12 L 109.28 139.43 C 108.56 139.99 108.43 141.03 108.99 141.75 C 109.55 142.47 110.59 142.60 111.31 142.04 Z M 111.15 142.03 L 111.87 141.82 C 112.76 141.57 113.27 140.64 113.01 139.75 C 112.76 138.87 111.83 138.36 110.94 138.61 L 110.22 138.82 C 109.33 139.08 108.82 140.00 109.08 140.89 C 109.34 141.78 110.26 142.29 111.15 142.03 Z M 111.74 141.87 L 112.72 141.67 C 113.63 141.48 114.22 140.60 114.04 139.69 C 113.86 138.78 112.97 138.19 112.06 138.37 L 111.08 138.57 C 110.17 138.75 109.58 139.64 109.76 140.55 C 109.94 141.46 110.83 142.05 111.74 141.87 Z M 112.66 141.69 L 113.80 141.50 C 114.72 141.35 115.35 140.48 115.20 139.56 C 115.05 138.64 114.18 138.01 113.26 138.16 L 112.12 138.35 C 111.20 138.50 110.57 139.37 110.72 140.29 C 110.87 141.21 111.74 141.84 112.66 141.69 Z M 113.77 141.52 L 114.95 141.35 C 115.88 141.22 116.53 140.35 116.39 139.42 C 116.26 138.49 115.40 137.84 114.47 137.98 L 113.28 138.15 C 112.35 138.28 111.71 139.15 111.84 140.08 C 111.98 141.01 112.84 141.65 113.77 141.52 Z M 114.94 141.36 L 116.07 141.21 C 117.01 141.08 117.67 140.21 117.54 139.27 C 117.41 138.34 116.54 137.68 115.61 137.81 L 114.47 137.97 C 113.54 138.10 112.88 138.96 113.01 139.90 C 113.14 140.83 114.00 141.49 114.94 141.36 Z M 116.08 141.21 L 117.30 141.04 C 118.24 140.91 118.89 140.04 118.76 139.10 C 118.63 138.16 117.76 137.50 116.82 137.63 L 115.60 137.81 C 114.66 137.94 114.01 138.81 114.14 139.75 C 114.27 140.69 115.14 141.34 116.08 141.21 Z M 117.30 141.04 L 118.33 140.89 C 119.27 140.76 119.92 139.88 119.78 138.94 C 119.65 138.00 118.77 137.35 117.83 137.49 L 116.81 137.63 C 115.87 137.77 115.22 138.64 115.36 139.58 C 115.49 140.52 116.36 141.18 117.30 141.04 Z M 118.33 140.89 L 119.22 140.76 C 120.16 140.63 120.82 139.76 120.68 138.81 C 120.54 137.87 119.67 137.22 118.73 137.36 L 117.83 137.48 C 116.89 137.62 116.24 138.49 116.38 139.43 C 116.51 140.38 117.38 141.03 118.33 140.89 Z M 119.21 140.77 L 120.05 140.65 C 120.99 140.52 121.65 139.65 121.52 138.71 C 121.39 137.77 120.52 137.11 119.58 137.24 L 118.74 137.35 C 117.80 137.48 117.14 138.35 117.27 139.29 C 117.40 140.24 118.27 140.90 119.21 140.77 Z M 120.03 140.66 L 120.94 140.54 C 121.89 140.42 122.56 139.56 122.44 138.61 C 122.32 137.67 121.46 137.00 120.51 137.12 L 119.60 137.23 C 118.65 137.35 117.98 138.21 118.10 139.16 C 118.22 140.11 119.08 140.78 120.03 140.66 Z M 120.93 140.54 L 121.90 140.43 C 122.84 140.32 123.52 139.46 123.41 138.51 C 123.30 137.57 122.44 136.89 121.49 137.00 L 120.53 137.11 C 119.58 137.23 118.90 138.08 119.01 139.03 C 119.12 139.98 119.98 140.66 120.93 140.54 Z M 121.89 140.43 L 122.90 140.32 C 123.85 140.21 124.53 139.35 124.42 138.40 C 124.31 137.45 123.45 136.77 122.50 136.88 L 121.49 137.00 C 120.55 137.11 119.87 137.97 119.98 138.92 C 120.09 139.86 120.95 140.54 121.89 140.43 Z M 122.91 140.32 L 123.96 140.19 C 124.91 140.07 125.58 139.21 125.47 138.26 C 125.35 137.31 124.49 136.64 123.54 136.75 L 122.49 136.88 C 121.54 137.00 120.87 137.86 120.98 138.81 C 121.10 139.76 121.96 140.43 122.91 140.32 Z M 123.97 140.19 L 124.94 140.06 C 125.89 139.94 126.56 139.07 126.44 138.12 C 126.31 137.17 125.44 136.50 124.49 136.63 L 123.52 136.75 C 122.57 136.88 121.90 137.75 122.03 138.70 C 122.15 139.64 123.02 140.31 123.97 140.19 Z M 124.95 140.06 L 125.94 139.93 C 126.89 139.80 127.55 138.92 127.42 137.98 C 127.29 137.03 126.42 136.36 125.47 136.49 L 124.48 136.63 C 123.53 136.76 122.87 137.63 123.00 138.58 C 123.13 139.53 124.00 140.19 124.95 140.06 Z M 125.94 139.93 L 126.94 139.79 C 127.89 139.66 128.55 138.78 128.42 137.83 C 128.29 136.88 127.41 136.22 126.46 136.35 L 125.46 136.49 C 124.51 136.62 123.85 137.50 123.98 138.45 C 124.11 139.40 124.99 140.06 125.94 139.93 Z M 126.94 139.79 L 127.95 139.65 C 128.90 139.52 129.56 138.64 129.43 137.69 C 129.30 136.74 128.42 136.08 127.47 136.21 L 126.46 136.35 C 125.51 136.48 124.85 137.36 124.98 138.31 C 125.11 139.26 125.99 139.93 126.94 139.79 Z M 127.94 139.66 L 128.94 139.52 C 129.90 139.39 130.56 138.52 130.44 137.57 C 130.31 136.61 129.43 135.94 128.48 136.07 L 127.48 136.21 C 126.52 136.33 125.86 137.21 125.98 138.16 C 126.11 139.12 126.99 139.79 127.94 139.66 Z M 128.93 139.53 L 129.93 139.40 C 130.88 139.27 131.55 138.40 131.43 137.45 C 131.31 136.49 130.43 135.82 129.48 135.94 L 128.49 136.07 C 127.53 136.19 126.86 137.07 126.98 138.02 C 127.11 138.97 127.98 139.65 128.93 139.53 Z M 129.92 139.40 L 130.91 139.28 C 131.87 139.16 132.54 138.29 132.42 137.33 C 132.30 136.37 131.43 135.70 130.48 135.81 L 129.49 135.94 C 128.53 136.06 127.85 136.93 127.97 137.89 C 128.09 138.84 128.96 139.52 129.92 139.40 Z M 130.90 139.28 L 131.90 139.16 C 132.85 139.04 133.53 138.17 133.42 137.21 C 133.30 136.26 132.43 135.58 131.47 135.69 L 130.48 135.81 C 129.53 135.93 128.84 136.80 128.96 137.76 C 129.08 138.71 129.95 139.39 130.90 139.28 Z M 131.89 139.16 L 132.89 139.04 C 133.84 138.93 134.53 138.06 134.41 137.10 C 134.30 136.14 133.43 135.46 132.47 135.57 L 131.48 135.69 C 130.52 135.81 129.83 136.67 129.95 137.63 C 130.06 138.59 130.93 139.27 131.89 139.16 Z M 132.88 139.04 L 133.87 138.92 C 134.83 138.81 135.51 137.94 135.40 136.98 C 135.29 136.02 134.42 135.34 133.46 135.45 L 132.47 135.57 C 131.51 135.68 130.83 136.55 130.94 137.51 C 131.06 138.47 131.93 139.16 132.88 139.04 Z M 133.87 138.92 L 134.86 138.81 C 135.82 138.69 136.51 137.82 136.39 136.86 C 136.28 135.90 135.41 135.22 134.45 135.33 L 133.46 135.45 C 132.50 135.57 131.81 136.44 131.93 137.40 C 132.04 138.36 132.91 139.04 133.87 138.92 Z M 134.87 138.81 L 135.86 138.68 C 136.82 138.57 137.50 137.69 137.39 136.73 C 137.27 135.77 136.40 135.09 135.44 135.21 L 134.44 135.33 C 133.48 135.45 132.80 136.32 132.92 137.28 C 133.04 138.24 133.91 138.92 134.87 138.81 Z M 135.87 138.68 L 136.87 138.56 C 137.83 138.43 138.50 137.56 138.38 136.60 C 138.26 135.64 137.38 134.96 136.43 135.08 L 135.43 135.21 C 134.47 135.33 133.79 136.21 133.91 137.17 C 134.04 138.13 134.91 138.80 135.87 138.68 Z M 136.88 138.56 L 137.87 138.42 C 138.83 138.30 139.50 137.42 139.37 136.46 C 139.25 135.50 138.37 134.83 137.41 134.95 L 136.42 135.09 C 135.46 135.21 134.78 136.09 134.91 137.05 C 135.04 138.01 135.92 138.68 136.88 138.56 Z M 137.88 138.42 L 138.87 138.28 C 139.83 138.15 140.50 137.27 140.36 136.31 C 140.23 135.35 139.35 134.69 138.39 134.82 L 137.40 134.95 C 136.44 135.09 135.77 135.97 135.91 136.93 C 136.04 137.89 136.92 138.55 137.88 138.42 Z M 138.88 138.28 L 139.87 138.14 C 140.82 138.01 141.49 137.12 141.35 136.16 C 141.22 135.21 140.33 134.54 139.37 134.68 L 138.38 134.82 C 137.43 134.96 136.76 135.84 136.90 136.80 C 137.03 137.75 137.92 138.42 138.88 138.28 Z M 139.87 138.14 L 140.86 138.00 C 141.82 137.86 142.48 136.97 142.34 136.01 C 142.20 135.06 141.31 134.40 140.36 134.54 L 139.37 134.68 C 138.41 134.82 137.75 135.71 137.89 136.66 C 138.03 137.62 138.92 138.28 139.87 138.14 Z M 140.86 138.00 L 141.85 137.85 C 142.81 137.71 143.47 136.82 143.33 135.87 C 143.19 134.91 142.30 134.25 141.35 134.39 L 140.36 134.54 C 139.40 134.68 138.74 135.57 138.88 136.52 C 139.02 137.48 139.91 138.14 140.86 138.00 Z M 141.85 137.85 L 142.84 137.70 C 143.80 137.56 144.46 136.68 144.32 135.72 C 144.18 134.77 143.29 134.11 142.33 134.25 L 141.35 134.39 C 140.39 134.53 139.73 135.42 139.87 136.38 C 140.01 137.33 140.90 137.99 141.85 137.85 Z M 142.84 137.70 L 143.83 137.56 C 144.79 137.42 145.45 136.53 145.31 135.58 C 145.17 134.62 144.28 133.96 143.32 134.10 L 142.33 134.25 C 141.38 134.39 140.72 135.28 140.86 136.23 C 141.00 137.18 141.89 137.84 142.84 137.70 Z M 143.83 137.56 L 144.82 137.41 C 145.77 137.27 146.43 136.38 146.29 135.43 C 146.15 134.48 145.27 133.82 144.31 133.96 L 143.32 134.10 C 142.37 134.24 141.71 135.13 141.85 136.08 C 141.99 137.04 142.88 137.70 143.83 137.56 Z M 144.82 137.41 L 145.81 137.26 C 146.76 137.12 147.42 136.24 147.28 135.29 C 147.14 134.33 146.26 133.67 145.30 133.81 L 144.31 133.96 C 143.36 134.10 142.70 134.99 142.84 135.94 C 142.98 136.89 143.87 137.55 144.82 137.41 Z M 145.81 137.26 L 146.79 137.12 C 147.74 136.98 148.40 136.09 148.26 135.14 C 148.12 134.19 147.24 133.53 146.28 133.67 L 145.30 133.82 C 144.35 133.96 143.69 134.84 143.83 135.79 C 143.97 136.74 144.86 137.40 145.81 137.26 Z M 146.79 137.12 L 147.76 136.97 C 148.71 136.83 149.37 135.95 149.23 135.00 C 149.09 134.05 148.21 133.39 147.26 133.53 L 146.28 133.67 C 145.33 133.81 144.68 134.70 144.82 135.65 C 144.96 136.60 145.84 137.26 146.79 137.12 Z M 147.76 136.97 L 148.75 136.82 C 149.69 136.68 150.35 135.80 150.21 134.85 C 150.07 133.90 149.19 133.25 148.24 133.39 L 147.26 133.53 C 146.31 133.67 145.65 134.56 145.79 135.51 C 145.93 136.46 146.82 137.11 147.76 136.97 Z M 148.75 136.82 L 149.74 136.67 C 150.69 136.53 151.34 135.65 151.20 134.70 C 151.06 133.75 150.18 133.10 149.23 133.24 L 148.23 133.39 C 147.29 133.53 146.63 134.42 146.78 135.36 C 146.92 136.31 147.80 136.96 148.75 136.82 Z M 149.74 136.67 L 150.76 136.52 C 151.70 136.37 152.35 135.49 152.21 134.55 C 152.07 133.60 151.18 132.95 150.24 133.09 L 149.23 133.25 C 148.28 133.39 147.63 134.27 147.77 135.22 C 147.91 136.16 148.80 136.81 149.74 136.67 Z M 150.76 136.51 L 151.76 136.36 C 152.70 136.22 153.35 135.33 153.20 134.39 C 153.06 133.45 152.18 132.80 151.23 132.94 L 150.23 133.10 C 149.29 133.24 148.64 134.12 148.79 135.07 C 148.93 136.01 149.81 136.66 150.76 136.51 Z M 151.76 136.36 L 152.76 136.20 C 153.70 136.06 154.35 135.18 154.20 134.23 C 154.06 133.29 153.18 132.65 152.23 132.79 L 151.23 132.95 C 150.29 133.09 149.64 133.97 149.79 134.91 C 149.93 135.86 150.82 136.50 151.76 136.36 Z M 152.76 136.20 L 153.76 136.05 C 154.70 135.90 155.34 135.02 155.20 134.08 C 155.06 133.14 154.18 132.50 153.24 132.64 L 152.23 132.79 C 151.29 132.94 150.65 133.82 150.79 134.76 C 150.94 135.70 151.82 136.34 152.76 136.20 Z M 153.76 136.04 L 154.74 135.89 C 155.68 135.75 156.33 134.87 156.18 133.94 C 156.04 133.00 155.17 132.35 154.23 132.49 L 153.24 132.64 C 152.30 132.79 151.66 133.66 151.80 134.60 C 151.94 135.54 152.82 136.18 153.76 136.04 Z M 154.74 135.89 L 155.70 135.75 C 156.63 135.61 157.28 134.74 157.14 133.80 C 157.01 132.86 156.13 132.22 155.20 132.35 L 154.23 132.50 C 153.30 132.63 152.65 133.51 152.79 134.44 C 152.93 135.38 153.80 136.03 154.74 135.89 Z M 155.69 135.75 L 156.74 135.60 C 157.67 135.46 158.32 134.60 158.19 133.66 C 158.06 132.73 157.19 132.08 156.26 132.21 L 155.21 132.36 C 154.27 132.49 153.62 133.36 153.75 134.29 C 153.89 135.23 154.75 135.88 155.69 135.75 Z M 156.72 135.59 L 157.73 135.46 C 158.66 135.33 159.32 134.47 159.19 133.54 C 159.07 132.61 158.21 131.95 157.28 132.08 L 156.27 132.21 C 155.33 132.34 154.68 133.20 154.81 134.13 C 154.93 135.06 155.79 135.72 156.72 135.59 Z M 157.72 135.45 L 158.69 135.33 C 159.62 135.21 160.28 134.36 160.16 133.43 C 160.04 132.50 159.19 131.84 158.26 131.96 L 157.29 132.08 C 156.36 132.20 155.70 133.05 155.82 133.98 C 155.94 134.91 156.79 135.57 157.72 135.45 Z M 158.68 135.32 L 159.63 135.21 C 160.56 135.10 161.22 134.25 161.11 133.32 C 160.99 132.39 160.15 131.73 159.22 131.85 L 158.27 131.96 C 157.35 132.07 156.68 132.92 156.80 133.85 C 156.91 134.77 157.75 135.44 158.68 135.32 Z M 159.62 135.20 L 160.62 135.09 C 161.55 134.98 162.21 134.14 162.11 133.22 C 162.00 132.29 161.16 131.63 160.24 131.74 L 159.23 131.85 C 158.31 131.96 157.64 132.79 157.75 133.72 C 157.86 134.64 158.69 135.31 159.62 135.20 Z M 160.61 135.08 L 161.62 134.97 C 162.54 134.87 163.21 134.05 163.11 133.13 C 163.01 132.20 162.19 131.54 161.26 131.64 L 160.25 131.74 C 159.33 131.84 158.66 132.67 158.76 133.59 C 158.86 134.51 159.69 135.18 160.61 135.08 Z M 161.60 134.97 L 162.59 134.87 C 163.51 134.78 164.18 133.97 164.09 133.05 C 164.01 132.13 163.19 131.46 162.27 131.55 L 161.28 131.64 C 160.36 131.73 159.69 132.55 159.78 133.46 C 159.87 134.38 160.68 135.05 161.60 134.97 Z M 162.57 134.87 L 163.53 134.79 C 164.45 134.71 165.13 133.91 165.05 132.99 C 164.98 132.08 164.17 131.40 163.26 131.47 L 162.29 131.55 C 161.38 131.63 160.70 132.43 160.77 133.35 C 160.85 134.26 161.65 134.94 162.57 134.87 Z M 163.50 134.78 L 164.43 134.72 C 165.34 134.66 166.03 133.87 165.97 132.96 C 165.91 132.05 165.13 131.36 164.21 131.42 L 163.29 131.48 C 162.38 131.54 161.69 132.33 161.75 133.24 C 161.81 134.15 162.59 134.84 163.50 134.78 Z M 164.41 134.71 L 165.35 134.66 C 166.26 134.62 166.95 133.84 166.91 132.94 C 166.86 132.03 166.09 131.33 165.18 131.38 L 164.24 131.43 C 163.33 131.47 162.64 132.25 162.68 133.15 C 162.73 134.06 163.50 134.76 164.41 134.71 Z M 165.33 134.65 L 166.33 134.61 C 167.24 134.58 167.94 133.82 167.90 132.92 C 167.87 132.02 167.11 131.31 166.21 131.35 L 165.20 131.39 C 164.30 131.42 163.60 132.18 163.63 133.08 C 163.67 133.99 164.43 134.69 165.33 134.65 Z M 166.32 134.60 L 167.44 134.57 C 168.33 134.54 169.04 133.79 169.01 132.90 C 168.98 132.00 168.23 131.30 167.34 131.32 L 166.22 131.36 C 165.32 131.39 164.62 132.14 164.65 133.03 C 164.68 133.93 165.43 134.63 166.32 134.60 Z M 167.43 134.56 L 168.36 134.54 C 169.25 134.51 169.95 133.77 169.93 132.88 C 169.91 131.99 169.16 131.28 168.27 131.31 L 167.34 131.33 C 166.45 131.36 165.75 132.10 165.77 132.99 C 165.80 133.88 166.54 134.58 167.43 134.56 Z M 168.35 134.53 L 169.34 134.51 C 170.23 134.49 170.93 133.75 170.91 132.86 C 170.89 131.98 170.16 131.27 169.27 131.29 L 168.28 131.32 C 167.39 131.34 166.69 132.07 166.71 132.96 C 166.73 133.84 167.47 134.55 168.35 134.53 Z M 169.33 134.50 L 170.36 134.48 C 171.24 134.47 171.94 133.74 171.93 132.86 C 171.92 131.98 171.19 131.27 170.31 131.29 L 169.28 131.30 C 168.40 131.32 167.69 132.04 167.71 132.93 C 167.72 133.81 168.45 134.51 169.33 134.50 Z M 170.35 134.47 L 171.38 134.46 C 172.26 134.46 172.96 133.74 172.96 132.86 C 172.95 131.99 172.23 131.28 171.36 131.29 L 170.32 131.29 C 169.44 131.30 168.74 132.02 168.74 132.90 C 168.75 133.77 169.47 134.48 170.35 134.47 Z M 171.36 134.46 L 172.38 134.46 C 173.25 134.46 173.96 133.76 173.97 132.88 C 173.97 132.01 173.26 131.30 172.39 131.30 L 171.37 131.29 C 170.50 131.29 169.79 132.00 169.79 132.87 C 169.78 133.74 170.49 134.45 171.36 134.46 Z M 172.36 134.45 L 173.47 134.47 C 174.34 134.49 175.05 133.80 175.07 132.93 C 175.09 132.07 174.40 131.35 173.54 131.33 L 172.42 131.31 C 171.55 131.29 170.84 131.98 170.82 132.85 C 170.80 133.71 171.49 134.43 172.36 134.45 Z M 173.42 134.45 L 174.50 134.51 C 175.35 134.55 176.08 133.90 176.13 133.04 C 176.18 132.19 175.52 131.46 174.67 131.41 L 173.59 131.35 C 172.73 131.31 172.00 131.96 171.96 132.82 C 171.91 133.67 172.57 134.40 173.42 134.45 Z M 174.41 134.48 L 175.40 134.59 C 176.23 134.69 176.99 134.09 177.09 133.25 C 177.18 132.41 176.58 131.65 175.74 131.55 L 174.76 131.44 C 173.92 131.34 173.16 131.95 173.06 132.79 C 172.97 133.62 173.57 134.38 174.41 134.48 Z M 175.26 134.55 L 176.14 134.73 C 176.96 134.91 177.76 134.39 177.93 133.57 C 178.10 132.76 177.58 131.96 176.76 131.78 L 175.88 131.60 C 175.07 131.42 174.27 131.95 174.09 132.76 C 173.92 133.58 174.44 134.38 175.26 134.55 Z M 175.92 134.65 L 176.80 134.98 C 177.57 135.27 178.43 134.89 178.72 134.12 C 179.01 133.35 178.62 132.49 177.85 132.20 L 176.98 131.87 C 176.21 131.58 175.35 131.96 175.06 132.73 C 174.77 133.50 175.16 134.36 175.92 134.65 Z M 176.51 134.81 L 177.34 135.37 C 178.02 135.83 178.93 135.65 179.38 134.97 C 179.84 134.30 179.66 133.38 178.98 132.93 L 178.15 132.37 C 177.47 131.92 176.56 132.09 176.10 132.77 C 175.65 133.44 175.83 134.36 176.51 134.81 Z M 177.08 135.12 L 177.72 135.84 C 178.25 136.44 179.17 136.50 179.77 135.96 C 180.37 135.43 180.43 134.51 179.89 133.91 L 179.25 133.19 C 178.72 132.59 177.80 132.53 177.20 133.06 C 176.60 133.60 176.54 134.52 177.08 135.12 Z M 177.55 135.58 L 178.02 136.42 C 178.41 137.12 179.28 137.37 179.98 136.98 C 180.67 136.59 180.92 135.72 180.54 135.02 L 180.06 134.17 C 179.68 133.48 178.80 133.23 178.11 133.62 C 177.41 134.00 177.16 134.88 177.55 135.58 Z M 177.93 136.21 L 178.26 137.12 C 178.53 137.86 179.35 138.25 180.10 137.98 C 180.84 137.71 181.22 136.89 180.95 136.14 L 180.62 135.23 C 180.35 134.49 179.53 134.11 178.79 134.38 C 178.05 134.65 177.66 135.47 177.93 136.21 Z M 178.22 136.98 L 178.47 137.96 C 178.67 138.72 179.44 139.19 180.21 138.99 C 180.97 138.80 181.44 138.02 181.24 137.25 L 180.99 136.28 C 180.80 135.51 180.02 135.05 179.25 135.25 C 178.49 135.44 178.03 136.22 178.22 136.98 Z M 178.46 137.89 L 178.66 138.90 C 178.82 139.67 179.57 140.17 180.35 140.02 C 181.12 139.86 181.62 139.11 181.46 138.33 L 181.25 137.32 C 181.10 136.55 180.34 136.05 179.57 136.21 C 178.80 136.37 178.30 137.12 178.46 137.89 Z M 178.66 138.89 L 178.69 139.04 C 178.84 139.81 179.59 140.32 180.36 140.17 C 181.13 140.02 181.64 139.27 181.49 138.50 L 181.46 138.35 C 181.31 137.58 180.57 137.07 179.79 137.22 C 179.02 137.37 178.51 138.11 178.66 138.89 Z"
      fill="black"
      fill-rule="nonzero" /></svg>