<svg xmlns="http://www.w3.org/2000/svg" width="300" height="300" viewBox="0 0 300 300">
<path d="M 140.22 98.79 L 140.82 99.60 C 141.31 100.29 142.27 100.44 142.95 99.94 C 143.64 99.45 143.79 98.49 143.29 97.81 L 142.70 96.99 C 142.20 96.31 141.25 96.16 140.56 96.65 C 139.88 97.15 139.73 98.10 140.22 98.79 Z M 140.75 99.57 L 141.30 100.41 C 141.78 101.13 142.75 101.33 143.47 100.85 C 144.20 100.37 144.39 99.40 143.92 98.67 L 143.36 97.84 C 142.88 97.12 141.91 96.92 141.19 97.40 C 140.46 97.88 140.27 98.85 140.75 99.57 Z M 141.19 100.31 L 141.66 101.18 C 142.09 101.96 143.06 102.25 143.84 101.83 C 144.63 101.40 144.92 100.43 144.49 99.64 L 144.02 98.77 C 143.60 97.99 142.62 97.70 141.84 98.12 C 141.06 98.55 140.77 99.53 141.19 100.31 Z M 141.56 101.01 L 141.91 101.91 C 142.24 102.75 143.19 103.16 144.03 102.83 C 144.87 102.50 145.28 101.56 144.95 100.72 L 144.60 99.81 C 144.27 98.97 143.32 98.56 142.48 98.89 C 141.64 99.22 141.23 100.17 141.56 101.01 Z M 141.85 101.75 L 142.11 102.70 C 142.36 103.57 143.26 104.09 144.13 103.84 C 145.01 103.60 145.52 102.70 145.28 101.83 L 145.01 100.87 C 144.77 100.00 143.87 99.49 142.99 99.73 C 142.12 99.97 141.61 100.88 141.85 101.75 Z M 142.09 102.60 L 142.29 103.60 C 142.48 104.49 143.35 105.06 144.24 104.88 C 145.13 104.69 145.70 103.82 145.51 102.93 L 145.31 101.93 C 145.12 101.04 144.25 100.47 143.36 100.65 C 142.47 100.84 141.90 101.71 142.09 102.60 Z M 142.28 103.55 L 142.45 104.50 C 142.61 105.40 143.46 106.00 144.36 105.84 C 145.25 105.68 145.85 104.83 145.70 103.93 L 145.53 102.98 C 145.37 102.09 144.52 101.49 143.62 101.64 C 142.72 101.80 142.12 102.66 142.28 103.55 Z M 142.44 104.48 L 142.59 105.44 C 142.74 106.34 143.58 106.95 144.48 106.81 C 145.39 106.66 146.00 105.82 145.86 104.92 L 145.70 103.96 C 145.56 103.06 144.71 102.44 143.81 102.59 C 142.91 102.73 142.30 103.58 142.44 104.48 Z M 142.59 105.42 L 142.73 106.42 C 142.87 107.33 143.71 107.95 144.61 107.82 C 145.52 107.69 146.14 106.85 146.01 105.94 L 145.86 104.94 C 145.73 104.03 144.89 103.41 143.98 103.54 C 143.08 103.67 142.45 104.51 142.59 105.42 Z M 142.73 106.41 L 142.87 107.45 C 143.00 108.36 143.83 108.99 144.74 108.87 C 145.65 108.75 146.28 107.91 146.16 107.00 L 146.01 105.96 C 145.89 105.05 145.05 104.42 144.15 104.54 C 143.24 104.66 142.60 105.50 142.73 106.41 Z M 142.87 107.44 L 142.99 108.36 C 143.10 109.27 143.94 109.92 144.85 109.80 C 145.76 109.68 146.40 108.85 146.28 107.94 L 146.16 107.01 C 146.04 106.10 145.21 105.46 144.30 105.58 C 143.39 105.70 142.75 106.53 142.87 107.44 Z M 142.98 108.35 L 143.10 109.32 C 143.21 110.23 144.04 110.88 144.95 110.77 C 145.87 110.66 146.51 109.83 146.40 108.91 L 146.29 107.95 C 146.17 107.04 145.34 106.39 144.43 106.50 C 143.52 106.61 142.87 107.44 142.98 108.35 Z M 143.10 109.30 L 143.21 110.31 C 143.31 111.23 144.14 111.88 145.05 111.78 C 145.97 111.68 146.63 110.85 146.52 109.94 L 146.41 108.93 C 146.30 108.01 145.48 107.36 144.56 107.46 C 143.65 107.56 142.99 108.39 143.10 109.30 Z M 143.21 110.30 L 143.32 111.35 C 143.41 112.27 144.23 112.93 145.15 112.84 C 146.07 112.74 146.73 111.92 146.64 111.01 L 146.53 109.95 C 146.43 109.03 145.61 108.37 144.69 108.46 C 143.78 108.56 143.11 109.38 143.21 110.30 Z M 143.31 111.34 L 143.41 112.33 C 143.49 113.25 144.31 113.92 145.23 113.83 C 146.15 113.75 146.82 112.93 146.73 112.01 L 146.64 111.02 C 146.55 110.10 145.74 109.43 144.82 109.51 C 143.90 109.60 143.22 110.42 143.31 111.34 Z M 143.40 112.31 L 143.49 113.28 C 143.56 114.20 144.37 114.89 145.30 114.81 C 146.22 114.73 146.90 113.92 146.82 113.00 L 146.74 112.03 C 146.66 111.11 145.85 110.42 144.93 110.50 C 144.01 110.58 143.32 111.39 143.40 112.31 Z M 143.48 113.27 L 143.56 114.26 C 143.63 115.19 144.44 115.88 145.36 115.80 C 146.28 115.73 146.97 114.93 146.90 114.01 L 146.82 113.01 C 146.75 112.09 145.95 111.40 145.02 111.47 C 144.10 111.54 143.41 112.35 143.48 113.27 Z M 143.56 114.25 L 143.62 115.26 C 143.69 116.19 144.49 116.88 145.41 116.82 C 146.34 116.76 147.04 115.96 146.97 115.03 L 146.90 114.02 C 146.84 113.10 146.04 112.40 145.12 112.46 C 144.19 112.52 143.49 113.32 143.56 114.25 Z M 143.62 115.25 L 143.68 116.27 C 143.74 117.20 144.53 117.91 145.46 117.85 C 146.38 117.80 147.09 117.00 147.04 116.08 L 146.98 115.05 C 146.92 114.12 146.13 113.42 145.20 113.47 C 144.27 113.53 143.57 114.32 143.62 115.25 Z M 143.68 116.26 L 143.73 117.26 C 143.78 118.19 144.56 118.90 145.49 118.86 C 146.42 118.81 147.13 118.02 147.09 117.10 L 147.04 116.09 C 146.99 115.16 146.20 114.45 145.28 114.50 C 144.35 114.54 143.63 115.33 143.68 116.26 Z M 143.73 117.25 L 143.77 118.23 C 143.80 119.15 144.59 119.88 145.52 119.84 C 146.45 119.80 147.17 119.02 147.13 118.09 L 147.09 117.11 C 147.05 116.18 146.27 115.46 145.34 115.50 C 144.41 115.53 143.69 116.32 143.73 117.25 Z M 143.76 118.21 L 143.80 119.20 C 143.83 120.13 144.60 120.86 145.54 120.83 C 146.47 120.80 147.20 120.02 147.17 119.09 L 147.13 118.10 C 147.10 117.17 146.32 116.44 145.39 116.47 C 144.46 116.50 143.73 117.28 143.76 118.21 Z M 143.79 119.19 L 143.82 120.19 C 143.84 121.12 144.62 121.86 145.55 121.83 C 146.48 121.81 147.22 121.03 147.20 120.10 L 147.17 119.10 C 147.15 118.17 146.37 117.43 145.44 117.45 C 144.50 117.48 143.77 118.25 143.79 119.19 Z M 143.81 120.18 L 143.83 121.19 C 143.85 122.12 144.62 122.87 145.56 122.85 C 146.49 122.83 147.24 122.06 147.22 121.12 L 147.20 120.11 C 147.18 119.18 146.41 118.43 145.47 118.45 C 144.54 118.47 143.80 119.24 143.81 120.18 Z M 143.83 121.18 L 143.85 122.21 C 143.86 123.15 144.63 123.90 145.56 123.88 C 146.50 123.87 147.25 123.10 147.23 122.17 L 147.22 121.13 C 147.21 120.20 146.44 119.45 145.50 119.46 C 144.57 119.48 143.82 120.24 143.83 121.18 Z M 143.84 122.21 L 143.85 123.17 C 143.86 124.10 144.63 124.86 145.57 124.85 C 146.50 124.84 147.26 124.07 147.25 123.13 L 147.24 122.17 C 147.23 121.24 146.46 120.48 145.52 120.49 C 144.59 120.50 143.83 121.27 143.84 122.21 Z M 143.85 123.16 L 143.86 124.13 C 143.86 125.07 144.63 125.83 145.57 125.82 C 146.51 125.82 147.26 125.05 147.26 124.11 L 147.25 123.14 C 147.24 122.20 146.48 121.44 145.54 121.45 C 144.60 121.45 143.84 122.22 143.85 123.16 Z M 143.85 124.13 L 143.86 125.12 C 143.86 126.06 144.63 126.82 145.57 126.82 C 146.51 126.82 147.27 126.05 147.26 125.11 L 147.26 124.12 C 147.26 123.18 146.49 122.42 145.55 122.42 C 144.61 122.42 143.85 123.19 143.85 124.13 Z M 143.85 125.12 L 143.86 126.13 C 143.86 127.07 144.62 127.83 145.56 127.83 C 146.51 127.83 147.27 127.06 147.27 126.12 L 147.27 125.11 C 147.26 124.17 146.50 123.41 145.56 123.41 C 144.61 123.41 143.85 124.18 143.85 125.12 Z M 143.85 126.13 L 143.85 127.15 C 143.85 128.09 144.62 128.86 145.56 128.86 C 146.51 128.86 147.27 128.09 147.27 127.15 L 147.27 126.12 C 147.27 125.18 146.50 124.41 145.56 124.42 C 144.62 124.42 143.85 125.18 143.85 126.13 Z M 143.85 127.15 L 143.85 128.19 C 143.85 129.13 144.62 129.90 145.56 129.90 C 146.51 129.90 147.27 129.13 147.27 128.19 L 147.27 127.15 C 147.27 126.20 146.51 125.44 145.56 125.44 C 144.62 125.44 143.85 126.20 143.85 127.15 Z M 143.85 128.19 L 143.85 129.16 C 143.85 130.11 144.62 130.88 145.56 130.88 C 146.51 130.88 147.28 130.11 147.28 129.16 L 147.28 128.19 C 147.28 127.24 146.51 126.47 145.56 126.47 C 144.62 126.47 143.85 127.24 143.85 128.19 Z M 143.85 129.16 L 143.84 130.14 C 143.84 131.09 144.61 131.86 145.56 131.86 C 146.51 131.86 147.28 131.09 147.28 130.14 L 147.28 129.16 C 147.28 128.22 146.51 127.45 145.56 127.44 C 144.62 127.44 143.85 128.21 143.85 129.16 Z M 143.84 130.14 L 143.84 131.13 C 143.84 132.08 144.60 132.85 145.55 132.85 C 146.50 132.85 147.28 132.09 147.28 131.14 L 147.28 130.15 C 147.28 129.20 146.52 128.42 145.57 128.42 C 144.62 128.42 143.84 129.19 143.84 130.14 Z M 143.84 131.12 L 143.83 132.13 C 143.83 133.08 144.59 133.85 145.54 133.86 C 146.49 133.86 147.27 133.09 147.27 132.14 L 147.28 131.14 C 147.29 130.19 146.52 129.42 145.57 129.41 C 144.62 129.41 143.84 130.17 143.84 131.12 Z M 143.83 132.12 L 143.82 133.13 C 143.81 134.08 144.58 134.86 145.53 134.87 C 146.48 134.88 147.26 134.11 147.27 133.16 L 147.28 132.15 C 147.29 131.20 146.52 130.42 145.57 130.41 C 144.62 130.40 143.84 131.17 143.83 132.12 Z M 143.82 133.12 L 143.80 134.15 C 143.79 135.10 144.55 135.88 145.51 135.90 C 146.46 135.91 147.24 135.15 147.26 134.19 L 147.27 133.17 C 147.28 132.22 146.52 131.43 145.57 131.42 C 144.61 131.41 143.83 132.17 143.82 133.12 Z M 143.80 134.14 L 143.78 135.15 C 143.77 136.11 144.53 136.90 145.48 136.91 C 146.43 136.93 147.22 136.17 147.24 135.22 L 147.26 134.20 C 147.28 133.25 146.52 132.46 145.56 132.44 C 144.61 132.42 143.82 133.18 143.80 134.14 Z M 143.78 135.14 L 143.76 136.13 C 143.73 137.09 144.49 137.88 145.45 137.90 C 146.40 137.93 147.19 137.17 147.22 136.22 L 147.24 135.23 C 147.27 134.27 146.51 133.48 145.55 133.45 C 144.60 133.43 143.80 134.19 143.78 135.14 Z M 143.76 136.12 L 143.72 137.11 C 143.69 138.07 144.44 138.87 145.40 138.90 C 146.36 138.93 147.16 138.18 147.19 137.22 L 147.22 136.23 C 147.25 135.27 146.50 134.47 145.54 134.44 C 144.59 134.41 143.79 135.16 143.76 136.12 Z M 143.72 137.10 L 143.68 138.10 C 143.64 139.05 144.39 139.86 145.34 139.90 C 146.30 139.94 147.11 139.20 147.15 138.24 L 147.19 137.24 C 147.23 136.28 146.48 135.47 145.53 135.43 C 144.57 135.40 143.76 136.14 143.72 137.10 Z M 143.68 138.08 L 143.63 139.08 C 143.58 140.04 144.31 140.86 145.27 140.91 C 146.23 140.96 147.05 140.22 147.10 139.26 L 147.15 138.26 C 147.20 137.30 146.46 136.48 145.50 136.43 C 144.55 136.38 143.73 137.12 143.68 138.08 Z M 143.63 139.06 L 143.56 140.06 C 143.50 141.02 144.23 141.85 145.19 141.91 C 146.15 141.97 146.97 141.24 147.04 140.29 L 147.10 139.28 C 147.16 138.32 146.43 137.50 145.47 137.43 C 144.52 137.37 143.69 138.10 143.63 139.06 Z M 143.56 140.04 L 143.48 141.04 C 143.41 142.00 144.13 142.84 145.09 142.91 C 146.04 142.99 146.88 142.27 146.96 141.31 L 147.04 140.31 C 147.11 139.35 146.39 138.51 145.43 138.44 C 144.47 138.36 143.64 139.08 143.56 140.04 Z M 143.48 141.02 L 143.39 142.01 C 143.30 142.97 144.01 143.82 144.97 143.91 C 145.92 144.00 146.77 143.29 146.86 142.33 L 146.96 141.34 C 147.05 140.38 146.34 139.53 145.38 139.44 C 144.42 139.35 143.57 140.06 143.48 141.02 Z M 143.39 141.98 L 143.28 142.96 C 143.18 143.92 143.87 144.79 144.83 144.89 C 145.79 145.00 146.65 144.30 146.76 143.34 L 146.86 142.36 C 146.97 141.40 146.28 140.54 145.32 140.44 C 144.36 140.33 143.50 141.02 143.39 141.98 Z M 143.29 142.94 L 143.16 143.92 C 143.05 144.88 143.73 145.75 144.68 145.87 C 145.64 145.99 146.52 145.31 146.63 144.35 L 146.76 143.37 C 146.87 142.41 146.19 141.54 145.24 141.42 C 144.28 141.30 143.40 141.98 143.29 142.94 Z M 143.16 143.90 L 143.03 144.88 C 142.90 145.84 143.57 146.72 144.53 146.85 C 145.48 146.99 146.37 146.32 146.50 145.36 L 146.63 144.37 C 146.76 143.42 146.09 142.53 145.14 142.40 C 144.18 142.27 143.30 142.94 143.16 143.90 Z M 143.03 144.86 L 142.88 145.85 C 142.74 146.81 143.40 147.70 144.36 147.84 C 145.32 147.98 146.21 147.32 146.35 146.37 L 146.50 145.38 C 146.64 144.42 145.98 143.53 145.02 143.39 C 144.06 143.24 143.17 143.91 143.03 144.86 Z M 142.88 145.83 L 142.73 146.83 C 142.57 147.78 143.23 148.68 144.18 148.83 C 145.14 148.99 146.04 148.33 146.19 147.38 L 146.35 146.38 C 146.50 145.43 145.85 144.53 144.89 144.38 C 143.94 144.22 143.04 144.88 142.88 145.83 Z M 142.73 146.81 L 142.56 147.81 C 142.40 148.77 143.04 149.67 144.00 149.83 C 144.96 149.99 145.86 149.35 146.02 148.39 L 146.19 147.39 C 146.35 146.43 145.71 145.53 144.75 145.37 C 143.79 145.21 142.89 145.85 142.73 146.81 Z M 142.56 147.80 L 142.38 148.80 C 142.22 149.76 142.86 150.67 143.81 150.84 C 144.77 151.01 145.68 150.37 145.85 149.41 L 146.02 148.40 C 146.19 147.45 145.55 146.54 144.59 146.37 C 143.64 146.20 142.73 146.84 142.56 147.80 Z M 142.38 148.79 L 142.20 149.80 C 142.03 150.75 142.66 151.67 143.62 151.84 C 144.58 152.01 145.49 151.38 145.67 150.42 L 145.85 149.42 C 146.02 148.46 145.39 147.55 144.43 147.37 C 143.47 147.20 142.56 147.84 142.38 148.79 Z M 142.20 149.79 L 142.01 150.79 C 141.84 151.75 142.47 152.67 143.42 152.85 C 144.38 153.02 145.30 152.39 145.48 151.44 L 145.67 150.43 C 145.84 149.48 145.21 148.56 144.26 148.38 C 143.30 148.20 142.38 148.83 142.20 149.79 Z M 142.01 150.78 L 141.82 151.78 C 141.64 152.74 142.26 153.66 143.22 153.85 C 144.18 154.03 145.10 153.40 145.29 152.45 L 145.48 151.45 C 145.66 150.49 145.04 149.57 144.08 149.38 C 143.12 149.20 142.20 149.82 142.01 150.78 Z M 141.82 151.77 L 141.62 152.76 C 141.43 153.72 142.06 154.65 143.01 154.84 C 143.97 155.03 144.90 154.41 145.09 153.45 L 145.29 152.46 C 145.48 151.50 144.85 150.57 143.90 150.38 C 142.94 150.19 142.01 150.81 141.82 151.77 Z M 141.63 152.75 L 141.43 153.72 C 141.23 154.68 141.85 155.62 142.80 155.81 C 143.76 156.01 144.69 155.39 144.89 154.44 L 145.09 153.46 C 145.28 152.50 144.67 151.57 143.71 151.37 C 142.76 151.18 141.82 151.79 141.63 152.75 Z M 141.43 153.71 L 141.22 154.67 C 141.02 155.62 141.63 156.56 142.59 156.76 C 143.54 156.97 144.48 156.36 144.69 155.40 L 144.89 154.45 C 145.09 153.49 144.48 152.55 143.52 152.35 C 142.57 152.15 141.63 152.76 141.43 153.71 Z M 141.22 154.65 L 141.02 155.60 C 140.81 156.56 141.41 157.50 142.37 157.71 C 143.32 157.92 144.27 157.32 144.48 156.36 L 144.69 155.41 C 144.90 154.46 144.29 153.51 143.33 153.30 C 142.38 153.09 141.43 153.70 141.22 154.65 Z M 141.02 155.59 L 140.78 156.64 C 140.56 157.59 141.16 158.54 142.11 158.76 C 143.07 158.98 144.02 158.38 144.24 157.42 L 144.48 156.38 C 144.69 155.42 144.10 154.47 143.14 154.25 C 142.19 154.04 141.24 154.63 141.02 155.59 Z M 140.78 156.62 L 140.54 157.63 C 140.32 158.58 140.91 159.54 141.86 159.77 C 142.81 159.99 143.77 159.40 144.00 158.45 L 144.23 157.44 C 144.46 156.48 143.87 155.53 142.92 155.30 C 141.96 155.08 141.01 155.67 140.78 156.62 Z M 140.54 157.62 L 140.30 158.59 C 140.07 159.55 140.66 160.51 141.61 160.74 C 142.56 160.97 143.53 160.39 143.76 159.43 L 144.00 158.46 C 144.23 157.50 143.64 156.54 142.69 156.31 C 141.74 156.08 140.77 156.66 140.54 157.62 Z M 140.30 158.58 L 140.07 159.53 C 139.83 160.48 140.41 161.45 141.37 161.69 C 142.32 161.92 143.29 161.34 143.52 160.39 L 143.76 159.44 C 144.00 158.49 143.41 157.52 142.46 157.29 C 141.51 157.05 140.54 157.63 140.30 158.58 Z M 140.07 159.52 L 139.84 160.45 C 139.60 161.40 140.17 162.37 141.13 162.61 C 142.08 162.85 143.05 162.27 143.29 161.32 L 143.52 160.39 C 143.76 159.44 143.19 158.47 142.23 158.23 C 141.28 157.99 140.31 158.57 140.07 159.52 Z M 139.83 160.45 L 139.60 161.36 C 139.36 162.32 139.94 163.29 140.89 163.53 C 141.85 163.77 142.82 163.19 143.06 162.24 L 143.29 161.32 C 143.53 160.37 142.96 159.40 142.00 159.15 C 141.05 158.91 140.08 159.49 139.83 160.45 Z M 139.60 161.36 L 139.35 162.37 C 139.10 163.32 139.68 164.29 140.64 164.54 C 141.60 164.78 142.57 164.20 142.81 163.24 L 143.06 162.24 C 143.30 161.28 142.72 160.31 141.77 160.07 C 140.81 159.83 139.84 160.41 139.60 161.36 Z M 139.34 162.37 L 139.09 163.36 C 138.85 164.31 139.43 165.29 140.39 165.53 C 141.35 165.77 142.32 165.19 142.56 164.23 L 142.81 163.24 C 143.05 162.29 142.47 161.31 141.52 161.07 C 140.56 160.83 139.59 161.41 139.34 162.37 Z M 139.09 163.35 L 138.85 164.33 C 138.60 165.28 139.18 166.26 140.14 166.50 C 141.10 166.75 142.07 166.17 142.31 165.21 L 142.56 164.24 C 142.80 163.28 142.23 162.31 141.27 162.06 C 140.31 161.82 139.34 162.40 139.09 163.35 Z M 138.84 164.32 L 138.60 165.28 C 138.35 166.23 138.93 167.21 139.89 167.46 C 140.84 167.70 141.82 167.13 142.07 166.17 L 142.31 165.21 C 142.56 164.26 141.98 163.28 141.03 163.03 C 140.07 162.79 139.09 163.36 138.84 164.32 Z M 138.60 165.27 L 138.35 166.20 C 138.10 167.16 138.68 168.14 139.63 168.39 C 140.59 168.64 141.57 168.07 141.82 167.11 L 142.07 166.18 C 142.32 165.22 141.75 164.24 140.79 163.99 C 139.83 163.74 138.85 164.31 138.60 165.27 Z M 138.36 166.19 L 138.09 167.18 C 137.83 168.14 138.40 169.12 139.36 169.38 C 140.32 169.63 141.30 169.07 141.56 168.11 L 141.82 167.12 C 142.08 166.16 141.51 165.18 140.55 164.92 C 139.60 164.67 138.61 165.23 138.36 166.19 Z M 138.09 167.17 L 137.82 168.17 C 137.56 169.12 138.12 170.11 139.07 170.37 C 140.03 170.64 141.02 170.07 141.28 169.12 L 141.56 168.12 C 141.82 167.16 141.26 166.17 140.30 165.91 C 139.34 165.65 138.35 166.21 138.09 167.17 Z M 137.82 168.16 L 137.55 169.13 C 137.28 170.08 137.84 171.07 138.79 171.34 C 139.75 171.61 140.74 171.05 141.01 170.10 L 141.28 169.13 C 141.55 168.17 140.99 167.18 140.04 166.91 C 139.08 166.64 138.09 167.20 137.82 168.16 Z M 137.55 169.12 L 137.28 170.06 C 137.01 171.01 137.56 172.01 138.51 172.28 C 139.47 172.56 140.47 172.00 140.74 171.05 L 141.01 170.11 C 141.28 169.15 140.73 168.15 139.77 167.88 C 138.82 167.61 137.82 168.16 137.55 169.12 Z M 137.28 170.05 L 137.01 170.96 C 136.74 171.92 137.29 172.92 138.24 173.20 C 139.20 173.47 140.20 172.92 140.47 171.97 L 140.74 171.05 C 141.02 170.10 140.47 169.10 139.51 168.82 C 138.56 168.55 137.56 169.10 137.28 170.05 Z M 137.01 170.96 L 136.72 171.97 C 136.44 172.92 136.99 173.92 137.94 174.20 C 138.90 174.48 139.90 173.94 140.18 172.98 L 140.47 171.97 C 140.75 171.02 140.21 170.02 139.25 169.74 C 138.30 169.46 137.29 170.00 137.01 170.96 Z M 136.72 171.97 L 136.43 172.96 C 136.14 173.91 136.69 174.92 137.65 175.20 C 138.60 175.48 139.61 174.93 139.89 173.98 L 140.18 172.98 C 140.46 172.03 139.91 171.03 138.96 170.74 C 138.00 170.46 137.00 171.01 136.72 171.97 Z M 136.42 172.96 L 136.15 173.91 C 135.87 174.87 136.42 175.87 137.37 176.15 C 138.33 176.43 139.33 175.88 139.61 174.92 L 139.89 173.97 C 140.17 173.01 139.62 172.01 138.66 171.73 C 137.70 171.45 136.70 172.00 136.42 172.96 Z M 136.14 173.92 L 135.88 174.82 C 135.61 175.78 136.17 176.78 137.13 177.06 C 138.09 177.33 139.09 176.77 139.36 175.81 L 139.62 174.91 C 139.89 173.95 139.33 172.95 138.38 172.68 C 137.42 172.40 136.42 172.96 136.14 173.92 Z M 135.88 174.84 L 135.62 175.77 C 135.36 176.73 135.93 177.73 136.89 177.99 C 137.85 178.26 138.85 177.69 139.11 176.73 L 139.37 175.80 C 139.63 174.83 139.06 173.84 138.10 173.58 C 137.14 173.31 136.14 173.88 135.88 174.84 Z M 135.62 175.80 L 135.38 176.73 C 135.13 177.70 135.71 178.68 136.68 178.93 C 137.64 179.18 138.63 178.60 138.88 177.63 L 139.12 176.70 C 139.37 175.73 138.79 174.75 137.82 174.50 C 136.85 174.25 135.87 174.83 135.62 175.80 Z M 135.37 176.76 L 135.14 177.72 C 134.91 178.69 135.50 179.67 136.48 179.90 C 137.45 180.14 138.42 179.54 138.66 178.56 L 138.89 177.60 C 139.12 176.63 138.52 175.65 137.55 175.42 C 136.58 175.19 135.60 175.79 135.37 176.76 Z M 135.13 177.75 L 134.90 178.79 C 134.69 179.77 135.30 180.73 136.28 180.95 C 137.25 181.16 138.22 180.55 138.44 179.57 L 138.66 178.53 C 138.88 177.56 138.26 176.59 137.29 176.38 C 136.31 176.16 135.34 176.78 135.13 177.75 Z M 134.89 178.83 L 134.67 179.93 C 134.48 180.92 135.12 181.87 136.10 182.06 C 137.08 182.25 138.03 181.62 138.23 180.63 L 138.44 179.53 C 138.64 178.55 138.00 177.60 137.02 177.41 C 136.04 177.21 135.08 177.85 134.89 178.83 Z M 134.66 180.04 L 134.51 181.13 C 134.37 182.12 135.07 183.03 136.06 183.17 C 137.05 183.30 137.96 182.61 138.10 181.62 L 138.24 180.53 C 138.38 179.54 137.69 178.63 136.70 178.49 C 135.70 178.36 134.79 179.05 134.66 180.04 Z M 134.49 181.36 L 134.49 182.31 C 134.48 183.31 135.29 184.12 136.29 184.13 C 137.29 184.14 138.10 183.33 138.11 182.33 L 138.11 181.38 C 138.12 180.38 137.31 179.57 136.31 179.56 C 135.31 179.56 134.50 180.36 134.49 181.36 Z M 134.58 182.91 L 134.83 183.64 C 135.16 184.58 136.19 185.09 137.13 184.76 C 138.08 184.44 138.58 183.41 138.26 182.46 L 138.01 181.73 C 137.68 180.79 136.65 180.28 135.71 180.61 C 134.76 180.93 134.26 181.96 134.58 182.91 Z M 135.75 184.67 L 136.50 185.04 C 137.40 185.48 138.48 185.11 138.92 184.21 C 139.36 183.31 138.99 182.23 138.09 181.79 L 137.34 181.42 C 136.44 180.99 135.36 181.36 134.92 182.25 C 134.48 183.15 134.86 184.23 135.75 184.67 Z M 137.44 185.21 L 138.49 185.13 C 139.49 185.05 140.23 184.17 140.15 183.18 C 140.06 182.19 139.19 181.45 138.20 181.53 L 137.15 181.62 C 136.15 181.70 135.42 182.57 135.50 183.56 C 135.58 184.56 136.45 185.30 137.44 185.21 Z M 138.80 185.07 L 139.78 184.82 C 140.75 184.57 141.32 183.58 141.07 182.62 C 140.82 181.65 139.84 181.08 138.87 181.33 L 137.89 181.58 C 136.93 181.83 136.35 182.82 136.60 183.78 C 136.85 184.75 137.84 185.32 138.80 185.07 Z M 139.92 184.78 L 140.80 184.47 C 141.75 184.14 142.24 183.12 141.92 182.18 C 141.59 181.23 140.57 180.74 139.63 181.06 L 138.74 181.37 C 137.80 181.69 137.30 182.72 137.62 183.66 C 137.95 184.60 138.98 185.10 139.92 184.78 Z M 140.92 184.42 L 141.85 184.03 C 142.77 183.64 143.19 182.58 142.80 181.66 C 142.41 180.75 141.36 180.32 140.44 180.71 L 139.51 181.11 C 138.59 181.50 138.17 182.56 138.56 183.47 C 138.95 184.39 140.00 184.81 140.92 184.42 Z M 141.95 183.98 L 142.93 183.50 C 143.82 183.05 144.18 181.97 143.74 181.08 C 143.29 180.19 142.21 179.82 141.32 180.27 L 140.34 180.76 C 139.45 181.20 139.09 182.28 139.53 183.17 C 139.98 184.06 141.06 184.43 141.95 183.98 Z M 143.00 183.46 L 143.76 183.03 C 144.63 182.55 144.95 181.45 144.46 180.58 C 143.98 179.71 142.88 179.40 142.01 179.88 L 141.25 180.31 C 140.38 180.79 140.06 181.89 140.55 182.76 C 141.03 183.63 142.13 183.94 143.00 183.46 Z M 143.82 183.00 L 144.63 182.51 C 145.48 182.00 145.75 180.89 145.24 180.04 C 144.73 179.19 143.62 178.91 142.77 179.43 L 141.96 179.91 C 141.11 180.43 140.83 181.53 141.34 182.39 C 141.86 183.24 142.96 183.51 143.82 183.00 Z M 144.68 182.48 L 145.53 181.93 C 146.36 181.38 146.59 180.27 146.05 179.44 C 145.51 178.60 144.39 178.37 143.56 178.91 L 142.71 179.46 C 141.88 180.01 141.64 181.12 142.19 181.95 C 142.73 182.79 143.85 183.02 144.68 182.48 Z M 145.58 181.89 L 146.46 181.27 C 147.27 180.70 147.46 179.58 146.89 178.76 C 146.32 177.95 145.20 177.76 144.38 178.33 L 143.51 178.95 C 142.69 179.52 142.50 180.64 143.07 181.46 C 143.64 182.27 144.77 182.46 145.58 181.89 Z M 146.51 181.23 L 147.39 180.56 C 148.18 179.96 148.34 178.83 147.74 178.04 C 147.14 177.25 146.01 177.10 145.22 177.70 L 144.33 178.37 C 143.54 178.97 143.39 180.10 143.99 180.89 C 144.59 181.68 145.72 181.83 146.51 181.23 Z M 147.43 180.53 L 148.22 179.89 C 148.99 179.27 149.11 178.14 148.48 177.36 C 147.86 176.59 146.73 176.48 145.95 177.10 L 145.17 177.73 C 144.40 178.36 144.28 179.49 144.91 180.26 C 145.53 181.03 146.66 181.15 147.43 180.53 Z M 148.25 179.86 L 149.03 179.19 C 149.79 178.55 149.88 177.42 149.23 176.66 C 148.59 175.91 147.46 175.82 146.70 176.46 L 145.92 177.13 C 145.17 177.77 145.08 178.91 145.72 179.66 C 146.36 180.41 147.50 180.50 148.25 179.86 Z M 149.06 179.17 L 149.83 178.48 C 150.57 177.82 150.63 176.69 149.98 175.95 C 149.32 175.21 148.19 175.15 147.45 175.81 L 146.68 176.49 C 145.94 177.15 145.87 178.28 146.53 179.02 C 147.19 179.76 148.32 179.82 149.06 179.17 Z M 149.85 178.46 L 150.59 177.77 C 151.32 177.10 151.36 175.97 150.69 175.24 C 150.02 174.52 148.89 174.47 148.16 175.14 L 147.42 175.83 C 146.70 176.50 146.65 177.63 147.33 178.36 C 148.00 179.08 149.13 179.13 149.85 178.46 Z M 150.62 177.75 L 151.32 177.07 C 152.03 176.39 152.05 175.26 151.37 174.55 C 150.69 173.84 149.56 173.81 148.84 174.50 L 148.14 175.17 C 147.43 175.85 147.41 176.98 148.09 177.69 C 148.77 178.41 149.90 178.43 150.62 177.75 Z M 151.34 177.05 L 152.05 176.34 C 152.75 175.64 152.75 174.51 152.05 173.82 C 151.36 173.12 150.23 173.12 149.53 173.81 L 148.82 174.52 C 148.13 175.22 148.12 176.34 148.82 177.04 C 149.51 177.74 150.64 177.74 151.34 177.05 Z M 152.07 176.31 L 152.82 175.53 C 153.50 174.83 153.47 173.70 152.77 173.02 C 152.06 172.34 150.93 172.36 150.25 173.07 L 149.51 173.84 C 148.83 174.55 148.85 175.68 149.56 176.36 C 150.27 177.04 151.39 177.02 152.07 176.31 Z M 152.84 175.50 L 153.51 174.77 C 154.17 174.05 154.13 172.93 153.41 172.26 C 152.69 171.60 151.56 171.65 150.90 172.37 L 150.23 173.10 C 149.57 173.83 149.61 174.95 150.33 175.61 C 151.06 176.27 152.18 176.22 152.84 175.50 Z M 153.53 174.74 L 154.16 174.03 C 154.81 173.30 154.74 172.18 154.01 171.53 C 153.28 170.89 152.16 170.96 151.52 171.69 L 150.88 172.40 C 150.24 173.13 150.31 174.25 151.04 174.89 C 151.77 175.54 152.88 175.47 153.53 174.74 Z M 154.17 174.01 L 154.78 173.30 C 155.42 172.56 155.34 171.45 154.60 170.81 C 153.87 170.18 152.76 170.26 152.12 171.00 L 151.51 171.71 C 150.87 172.44 150.95 173.55 151.69 174.19 C 152.42 174.83 153.53 174.74 154.17 174.01 Z M 154.79 173.29 L 155.40 172.57 C 156.03 171.83 155.94 170.73 155.21 170.10 C 154.47 169.47 153.36 169.55 152.73 170.29 L 152.12 171.01 C 151.49 171.74 151.57 172.85 152.31 173.48 C 153.05 174.11 154.16 174.02 154.79 173.29 Z M 155.40 172.56 L 156.03 171.83 C 156.65 171.09 156.56 169.98 155.83 169.36 C 155.09 168.73 153.99 168.82 153.36 169.56 L 152.73 170.29 C 152.11 171.03 152.20 172.14 152.93 172.76 C 153.67 173.39 154.77 173.30 155.40 172.56 Z M 156.03 171.82 L 156.67 171.06 C 157.29 170.32 157.20 169.22 156.47 168.60 C 155.73 167.97 154.63 168.07 154.01 168.80 L 153.36 169.56 C 152.74 170.30 152.83 171.40 153.57 172.02 C 154.30 172.65 155.40 172.55 156.03 171.82 Z M 156.67 171.05 L 157.34 170.26 C 157.96 169.53 157.86 168.43 157.13 167.81 C 156.39 167.19 155.30 167.28 154.68 168.02 L 154.01 168.81 C 153.39 169.54 153.48 170.64 154.22 171.26 C 154.95 171.88 156.05 171.79 156.67 171.05 Z M 157.33 170.26 L 158.00 169.47 C 158.62 168.73 158.52 167.64 157.79 167.02 C 157.06 166.40 155.96 166.50 155.35 167.23 L 154.68 168.02 C 154.06 168.75 154.16 169.85 154.89 170.47 C 155.62 171.08 156.72 170.99 157.33 170.26 Z M 158.00 169.46 L 158.63 168.71 C 159.24 167.98 159.15 166.89 158.42 166.27 C 157.69 165.66 156.60 165.75 155.98 166.48 L 155.35 167.23 C 154.74 167.96 154.83 169.06 155.56 169.67 C 156.29 170.28 157.38 170.19 158.00 169.46 Z M 158.62 168.70 L 159.27 167.94 C 159.88 167.21 159.79 166.12 159.06 165.51 C 158.33 164.90 157.25 164.99 156.63 165.72 L 155.99 166.49 C 155.38 167.22 155.47 168.30 156.20 168.91 C 156.93 169.53 158.01 169.43 158.62 168.70 Z M 159.26 167.93 L 159.91 167.16 C 160.52 166.44 160.43 165.35 159.71 164.74 C 158.98 164.13 157.90 164.23 157.29 164.95 L 156.64 165.72 C 156.03 166.45 156.12 167.53 156.85 168.14 C 157.57 168.75 158.65 168.66 159.26 167.93 Z M 159.91 167.16 L 160.56 166.38 C 161.17 165.66 161.08 164.58 160.36 163.98 C 159.64 163.37 158.56 163.46 157.95 164.18 L 157.30 164.95 C 156.69 165.67 156.78 166.75 157.50 167.36 C 158.22 167.97 159.30 167.88 159.91 167.16 Z M 160.55 166.38 L 161.20 165.61 C 161.81 164.90 161.72 163.82 161.00 163.21 C 160.29 162.61 159.21 162.70 158.61 163.41 L 157.96 164.18 C 157.35 164.90 157.44 165.97 158.16 166.58 C 158.87 167.19 159.95 167.10 160.55 166.38 Z M 161.20 165.61 L 161.85 164.83 C 162.46 164.12 162.37 163.05 161.66 162.45 C 160.95 161.84 159.88 161.93 159.27 162.64 L 158.61 163.42 C 158.01 164.13 158.10 165.20 158.81 165.80 C 159.52 166.41 160.59 166.32 161.20 165.61 Z M 161.85 164.83 L 162.50 164.07 C 163.10 163.36 163.01 162.29 162.31 161.69 C 161.60 161.09 160.53 161.17 159.93 161.88 L 159.28 162.65 C 158.68 163.36 158.76 164.42 159.47 165.02 C 160.18 165.62 161.24 165.54 161.85 164.83 Z M 162.49 164.06 L 163.13 163.30 C 163.73 162.60 163.65 161.54 162.94 160.94 C 162.24 160.34 161.18 160.43 160.58 161.13 L 159.94 161.89 C 159.34 162.59 159.42 163.65 160.13 164.25 C 160.83 164.85 161.89 164.77 162.49 164.06 Z M 163.13 163.30 L 163.77 162.54 C 164.37 161.84 164.28 160.79 163.58 160.19 C 162.87 159.60 161.82 159.68 161.23 160.38 L 160.59 161.14 C 159.99 161.84 160.08 162.89 160.78 163.49 C 161.48 164.08 162.53 164.00 163.13 163.30 Z M 163.77 162.53 L 164.40 161.77 C 165.00 161.07 164.91 160.03 164.21 159.44 C 163.51 158.85 162.46 158.94 161.87 159.64 L 161.23 160.39 C 160.64 161.09 160.73 162.14 161.43 162.73 C 162.13 163.32 163.18 163.23 163.77 162.53 Z M 164.40 161.76 L 165.04 161.00 C 165.63 160.30 165.53 159.26 164.84 158.68 C 164.14 158.09 163.10 158.19 162.51 158.88 L 161.87 159.65 C 161.29 160.34 161.38 161.38 162.08 161.97 C 162.77 162.55 163.81 162.46 164.40 161.76 Z M 165.03 160.99 L 165.67 160.23 C 166.26 159.53 166.16 158.50 165.47 157.92 C 164.78 157.34 163.74 157.43 163.16 158.12 L 162.52 158.89 C 161.94 159.58 162.03 160.62 162.73 161.20 C 163.42 161.78 164.45 161.69 165.03 160.99 Z M 165.66 160.22 L 166.31 159.46 C 166.89 158.77 166.80 157.74 166.11 157.16 C 165.42 156.59 164.40 156.67 163.82 157.36 L 163.17 158.13 C 162.60 158.82 162.68 159.84 163.37 160.42 C 164.06 161.00 165.09 160.91 165.66 160.22 Z M 166.30 159.45 L 166.94 158.69 C 167.52 158.01 167.44 156.99 166.75 156.41 C 166.07 155.83 165.05 155.92 164.48 156.60 L 163.83 157.37 C 163.25 158.05 163.34 159.07 164.02 159.64 C 164.70 160.22 165.72 160.13 166.30 159.45 Z M 166.93 158.69 L 167.58 157.93 C 168.16 157.25 168.08 156.24 167.41 155.66 C 166.73 155.08 165.72 155.16 165.14 155.84 L 164.49 156.60 C 163.91 157.27 163.99 158.29 164.67 158.86 C 165.34 159.44 166.35 159.36 166.93 158.69 Z M 167.57 157.93 L 168.23 157.16 C 168.81 156.50 168.74 155.49 168.07 154.91 C 167.41 154.34 166.40 154.41 165.82 155.07 L 165.16 155.83 C 164.58 156.50 164.65 157.51 165.32 158.08 C 165.98 158.66 166.99 158.59 167.57 157.93 Z M 168.22 157.16 L 168.88 156.41 C 169.46 155.75 169.40 154.75 168.74 154.17 C 168.09 153.59 167.09 153.66 166.51 154.31 L 165.84 155.07 C 165.26 155.72 165.33 156.73 165.98 157.30 C 166.64 157.88 167.64 157.82 168.22 157.16 Z M 168.87 156.41 L 169.53 155.66 C 170.11 155.02 170.06 154.02 169.41 153.44 C 168.76 152.86 167.77 152.92 167.19 153.57 L 166.52 154.31 C 165.94 154.96 166.00 155.95 166.65 156.53 C 167.29 157.11 168.29 157.06 168.87 156.41 Z M 169.52 155.66 L 170.18 154.93 C 170.76 154.29 170.72 153.31 170.08 152.73 C 169.44 152.15 168.45 152.19 167.87 152.83 L 167.21 153.57 C 166.63 154.20 166.68 155.19 167.31 155.77 C 167.95 156.35 168.94 156.30 169.52 155.66 Z M 170.17 154.93 L 170.84 154.20 C 171.42 153.57 171.38 152.59 170.75 152.01 C 170.13 151.43 169.15 151.47 168.56 152.10 L 167.89 152.83 C 167.31 153.46 167.35 154.44 167.98 155.02 C 168.61 155.60 169.59 155.56 170.17 154.93 Z M 170.83 154.20 L 171.53 153.45 C 172.11 152.83 172.07 151.86 171.45 151.28 C 170.83 150.70 169.86 150.73 169.28 151.35 L 168.58 152.10 C 168.00 152.72 168.03 153.69 168.65 154.27 C 169.27 154.85 170.25 154.82 170.83 154.20 Z M 171.51 153.45 L 172.20 152.72 C 172.78 152.10 172.75 151.14 172.14 150.56 C 171.53 149.98 170.56 150.01 169.98 150.62 L 169.29 151.35 C 168.71 151.97 168.74 152.93 169.36 153.51 C 169.97 154.09 170.94 154.06 171.51 153.45 Z M 172.19 152.71 L 172.88 151.99 C 173.45 151.38 173.42 150.42 172.82 149.85 C 172.21 149.27 171.25 149.30 170.67 149.91 L 169.99 150.63 C 169.42 151.24 169.44 152.20 170.05 152.77 C 170.66 153.35 171.62 153.32 172.19 152.71 Z M 172.87 151.98 L 173.54 151.27 C 174.11 150.67 174.08 149.72 173.48 149.15 C 172.87 148.58 171.92 148.60 171.35 149.21 L 170.68 149.92 C 170.11 150.52 170.14 151.47 170.74 152.04 C 171.35 152.61 172.30 152.59 172.87 151.98 Z M 173.54 151.26 L 174.22 150.53 C 174.78 149.93 174.75 148.98 174.15 148.42 C 173.55 147.86 172.60 147.89 172.04 148.49 L 171.36 149.22 C 170.79 149.82 170.82 150.77 171.42 151.33 C 172.03 151.89 172.97 151.86 173.54 151.26 Z M 174.22 150.52 L 174.90 149.79 C 175.46 149.19 175.42 148.25 174.82 147.69 C 174.22 147.13 173.28 147.16 172.73 147.76 L 172.04 148.50 C 171.48 149.10 171.52 150.04 172.12 150.60 C 172.72 151.15 173.66 151.12 174.22 150.52 Z M 174.89 149.78 L 175.57 149.05 C 176.13 148.45 176.09 147.52 175.49 146.96 C 174.90 146.41 173.96 146.44 173.41 147.04 L 172.73 147.77 C 172.18 148.37 172.21 149.30 172.81 149.86 C 173.41 150.41 174.34 150.38 174.89 149.78 Z M 175.56 149.04 L 176.24 148.31 C 176.79 147.72 176.76 146.79 176.17 146.24 C 175.57 145.69 174.64 145.73 174.09 146.32 L 173.42 147.05 C 172.87 147.64 172.90 148.57 173.49 149.12 C 174.09 149.67 175.01 149.64 175.56 149.04 Z M 176.23 148.31 L 176.91 147.59 C 177.46 147.00 177.43 146.08 176.84 145.53 C 176.25 144.98 175.33 145.01 174.78 145.60 L 174.10 146.32 C 173.55 146.91 173.58 147.83 174.17 148.38 C 174.76 148.93 175.68 148.90 176.23 148.31 Z M 176.89 147.60 L 177.57 146.88 C 178.12 146.30 178.10 145.39 177.52 144.83 C 176.94 144.28 176.02 144.30 175.47 144.88 L 174.79 145.59 C 174.24 146.17 174.26 147.09 174.84 147.65 C 175.42 148.20 176.34 148.18 176.89 147.60 Z M 177.55 146.90 L 178.25 146.19 C 178.81 145.62 178.80 144.71 178.23 144.15 C 177.66 143.59 176.74 143.59 176.18 144.16 L 175.49 144.87 C 174.93 145.44 174.94 146.35 175.51 146.91 C 176.07 147.47 176.99 147.47 177.55 146.90 Z M 178.22 146.21 L 178.94 145.51 C 179.51 144.96 179.53 144.05 178.97 143.48 C 178.42 142.90 177.51 142.89 176.93 143.44 L 176.21 144.14 C 175.64 144.70 175.63 145.61 176.18 146.18 C 176.73 146.75 177.64 146.77 178.22 146.21 Z M 178.90 145.54 L 179.66 144.85 C 180.25 144.32 180.29 143.41 179.76 142.82 C 179.23 142.24 178.32 142.19 177.73 142.73 L 176.97 143.42 C 176.38 143.95 176.34 144.86 176.87 145.44 C 177.41 146.03 178.32 146.07 178.90 145.54 Z M 179.62 144.88 L 180.37 144.25 C 180.97 143.74 181.05 142.83 180.54 142.23 C 180.03 141.63 179.12 141.55 178.52 142.06 L 177.77 142.70 C 177.17 143.21 177.09 144.11 177.60 144.71 C 178.11 145.32 179.02 145.39 179.62 144.88 Z M 180.34 144.27 L 181.11 143.66 C 181.73 143.16 181.83 142.26 181.33 141.65 C 180.84 141.03 179.94 140.93 179.32 141.42 L 178.55 142.04 C 177.93 142.53 177.83 143.43 178.33 144.05 C 178.82 144.67 179.72 144.77 180.34 144.27 Z M 181.08 143.67 L 181.88 143.06 C 182.51 142.58 182.63 141.69 182.15 141.06 C 181.67 140.43 180.77 140.31 180.15 140.79 L 179.35 141.40 C 178.72 141.88 178.60 142.78 179.08 143.41 C 179.56 144.03 180.46 144.15 181.08 143.67 Z M 181.87 143.07 L 182.68 142.47 C 183.31 142.00 183.44 141.10 182.97 140.47 C 182.50 139.84 181.61 139.71 180.97 140.18 L 180.16 140.78 C 179.53 141.25 179.40 142.15 179.87 142.78 C 180.34 143.41 181.23 143.54 181.87 143.07 Z M 182.67 142.47 L 183.45 141.90 C 184.08 141.44 184.22 140.54 183.75 139.91 C 183.29 139.27 182.39 139.14 181.76 139.60 L 180.98 140.17 C 180.35 140.64 180.21 141.53 180.68 142.17 C 181.14 142.80 182.04 142.94 182.67 142.47 Z"
      fill="black"
      fill-rule="nonzero" /></svg>