<svg xmlns="http://www.w3.org/2000/svg" width="300" height="300" viewBox="0 0 300 300">
<path d="M 147.02 107.94 L 145.61 107.94 C 144.73 107.94 144.02 108.65 144.02 109.53 C 144.02 110.41 144.73 111.12 145.61 111.12 L 147.02 111.12 C 147.89 111.12 148.60 110.41 148.60 109.53 C 148.60 108.66 147.89 107.95 147.02 107.94 Z M 145.61 107.93 L 144.38 107.93 C 143.50 107.93 142.78 108.64 142.78 109.52 C 142.78 110.41 143.49 111.12 144.37 111.13 L 145.60 111.13 C 146.49 111.13 147.20 110.42 147.20 109.53 C 147.21 108.65 146.49 107.94 145.61 107.93 Z M 144.39 107.92 L 143.51 107.91 C 142.62 107.91 141.90 108.62 141.89 109.51 C 141.88 110.40 142.60 111.12 143.48 111.13 L 144.36 111.14 C 145.25 111.14 145.97 110.43 145.98 109.54 C 145.99 108.65 145.28 107.93 144.39 107.92 Z M 143.56 107.91 L 143.22 107.89 C 142.32 107.85 141.57 108.55 141.53 109.44 C 141.50 110.33 142.19 111.08 143.08 111.12 L 143.43 111.14 C 144.32 111.17 145.07 110.48 145.11 109.59 C 145.15 108.70 144.46 107.94 143.56 107.91 Z M 143.29 111.12 L 143.65 111.09 C 144.54 111.01 145.20 110.23 145.12 109.33 C 145.05 108.44 144.26 107.78 143.37 107.86 L 143.01 107.89 C 142.12 107.97 141.46 108.76 141.53 109.65 C 141.61 110.54 142.40 111.20 143.29 111.12 Z M 143.62 111.09 L 144.61 111.02 C 145.50 110.96 146.17 110.19 146.11 109.30 C 146.05 108.41 145.28 107.73 144.39 107.79 L 143.40 107.86 C 142.51 107.92 141.83 108.69 141.90 109.59 C 141.96 110.48 142.73 111.15 143.62 111.09 Z M 144.64 111.02 L 146.07 110.89 C 146.95 110.81 147.61 110.03 147.53 109.14 C 147.45 108.25 146.67 107.59 145.78 107.67 L 144.36 107.80 C 143.47 107.88 142.81 108.66 142.89 109.55 C 142.97 110.44 143.75 111.09 144.64 111.02 Z M 146.11 110.88 L 147.28 110.75 C 148.16 110.65 148.80 109.85 148.69 108.96 C 148.59 108.08 147.79 107.44 146.91 107.54 L 145.74 107.68 C 144.85 107.78 144.22 108.58 144.32 109.47 C 144.42 110.35 145.22 110.99 146.11 110.88 Z M 147.31 110.75 L 148.29 110.61 C 149.17 110.49 149.79 109.68 149.67 108.79 C 149.54 107.91 148.73 107.29 147.85 107.41 L 146.87 107.55 C 145.99 107.67 145.37 108.48 145.49 109.37 C 145.61 110.25 146.43 110.87 147.31 110.75 Z M 148.31 110.61 L 149.31 110.46 C 150.19 110.33 150.80 109.50 150.67 108.62 C 150.53 107.74 149.71 107.13 148.83 107.26 L 147.83 107.42 C 146.94 107.55 146.34 108.37 146.47 109.25 C 146.60 110.14 147.43 110.74 148.31 110.61 Z M 149.33 110.46 L 150.34 110.29 C 151.22 110.15 151.82 109.32 151.68 108.44 C 151.54 107.56 150.71 106.96 149.83 107.10 L 148.81 107.27 C 147.93 107.41 147.33 108.24 147.47 109.12 C 147.62 110.00 148.45 110.60 149.33 110.46 Z M 150.36 110.29 L 151.37 110.12 C 152.25 109.97 152.84 109.14 152.69 108.25 C 152.54 107.37 151.70 106.78 150.82 106.93 L 149.81 107.10 C 148.93 107.25 148.34 108.09 148.49 108.97 C 148.64 109.85 149.48 110.44 150.36 110.29 Z M 151.37 110.12 L 152.36 109.95 C 153.24 109.79 153.83 108.95 153.67 108.07 C 153.52 107.19 152.68 106.60 151.80 106.76 L 150.81 106.93 C 149.93 107.09 149.35 107.93 149.50 108.81 C 149.66 109.69 150.49 110.27 151.37 110.12 Z M 152.37 109.95 L 153.35 109.77 C 154.23 109.61 154.81 108.77 154.65 107.89 C 154.50 107.01 153.65 106.43 152.77 106.58 L 151.79 106.76 C 150.91 106.92 150.33 107.76 150.49 108.64 C 150.65 109.52 151.49 110.10 152.37 109.95 Z M 153.35 109.77 L 154.33 109.59 C 155.21 109.43 155.79 108.59 155.63 107.71 C 155.47 106.83 154.63 106.25 153.75 106.41 L 152.77 106.58 C 151.89 106.74 151.31 107.59 151.47 108.47 C 151.63 109.35 152.47 109.93 153.35 109.77 Z M 154.33 109.59 L 155.28 109.42 C 156.16 109.26 156.75 108.42 156.59 107.54 C 156.43 106.66 155.59 106.07 154.71 106.23 L 153.75 106.41 C 152.87 106.56 152.29 107.41 152.45 108.29 C 152.60 109.17 153.45 109.75 154.33 109.59 Z M 155.28 109.42 L 156.23 109.25 C 157.11 109.10 157.70 108.25 157.54 107.37 C 157.38 106.49 156.54 105.90 155.66 106.06 L 154.71 106.23 C 153.83 106.39 153.24 107.23 153.40 108.11 C 153.56 108.99 154.40 109.58 155.28 109.42 Z M 156.22 109.25 L 157.20 109.09 C 158.08 108.93 158.67 108.09 158.52 107.21 C 158.37 106.33 157.53 105.74 156.65 105.89 L 155.67 106.06 C 154.79 106.21 154.20 107.05 154.35 107.93 C 154.50 108.82 155.34 109.41 156.22 109.25 Z M 157.19 109.09 L 158.21 108.92 C 159.09 108.77 159.69 107.94 159.54 107.05 C 159.40 106.17 158.56 105.57 157.68 105.72 L 156.66 105.89 C 155.77 106.04 155.18 106.87 155.32 107.75 C 155.47 108.64 156.30 109.23 157.19 109.09 Z M 158.20 108.92 L 159.22 108.76 C 160.10 108.62 160.71 107.79 160.57 106.90 C 160.43 106.02 159.59 105.41 158.71 105.55 L 157.69 105.71 C 156.81 105.86 156.20 106.69 156.34 107.57 C 156.48 108.46 157.31 109.06 158.20 108.92 Z M 159.21 108.77 L 160.23 108.61 C 161.12 108.48 161.73 107.65 161.60 106.76 C 161.46 105.87 160.63 105.26 159.74 105.39 L 158.72 105.55 C 157.83 105.68 157.22 106.51 157.35 107.40 C 157.49 108.29 158.32 108.90 159.21 108.77 Z M 160.22 108.62 L 161.27 108.47 C 162.16 108.34 162.78 107.51 162.65 106.62 C 162.52 105.73 161.70 105.11 160.80 105.23 L 159.76 105.38 C 158.86 105.51 158.24 106.34 158.37 107.23 C 158.50 108.13 159.33 108.75 160.22 108.62 Z M 161.25 108.48 L 162.29 108.34 C 163.19 108.22 163.82 107.39 163.70 106.49 C 163.58 105.60 162.75 104.96 161.85 105.09 L 160.81 105.23 C 159.92 105.35 159.29 106.17 159.41 107.07 C 159.53 107.97 160.35 108.60 161.25 108.48 Z M 162.27 108.35 L 163.28 108.22 C 164.18 108.11 164.82 107.29 164.71 106.39 C 164.60 105.48 163.77 104.84 162.87 104.95 L 161.87 105.08 C 160.96 105.19 160.32 106.01 160.44 106.92 C 160.55 107.82 161.37 108.46 162.27 108.35 Z M 163.26 108.23 L 164.20 108.13 C 165.10 108.03 165.76 107.21 165.66 106.30 C 165.56 105.39 164.74 104.74 163.83 104.84 L 162.89 104.94 C 161.98 105.04 161.33 105.86 161.43 106.77 C 161.53 107.68 162.35 108.33 163.26 108.23 Z M 164.16 108.14 L 165.22 108.04 C 166.14 107.96 166.81 107.15 166.73 106.24 C 166.65 105.33 165.84 104.65 164.93 104.73 L 163.86 104.83 C 162.95 104.91 162.28 105.72 162.36 106.63 C 162.44 107.55 163.25 108.22 164.16 108.14 Z M 165.12 108.07 L 166.45 108.04 C 167.37 108.01 168.11 107.24 168.09 106.32 C 168.06 105.39 167.29 104.66 166.37 104.68 L 165.04 104.71 C 164.11 104.73 163.38 105.50 163.40 106.43 C 163.42 107.36 164.19 108.09 165.12 108.07 Z M 166.03 108.01 L 166.83 108.20 C 167.74 108.41 168.66 107.84 168.87 106.92 C 169.08 106.01 168.51 105.10 167.59 104.89 L 166.79 104.70 C 165.87 104.49 164.96 105.06 164.75 105.98 C 164.54 106.89 165.11 107.80 166.03 108.01 Z M 165.66 107.29 L 165.88 107.75 C 166.29 108.60 167.32 108.96 168.18 108.55 C 169.03 108.14 169.39 107.11 168.98 106.25 L 168.76 105.79 C 168.35 104.94 167.32 104.58 166.46 104.99 C 165.61 105.40 165.25 106.43 165.66 107.29 Z M 165.82 106.36 L 165.57 106.98 C 165.22 107.87 165.65 108.88 166.54 109.23 C 167.43 109.59 168.44 109.15 168.79 108.27 L 169.04 107.64 C 169.39 106.75 168.96 105.75 168.07 105.39 C 167.18 105.04 166.18 105.47 165.82 106.36 Z M 165.78 106.61 L 165.21 107.39 C 164.64 108.17 164.82 109.25 165.59 109.82 C 166.37 110.38 167.46 110.21 168.02 109.43 L 168.59 108.64 C 169.15 107.87 168.98 106.78 168.20 106.22 C 167.42 105.66 166.34 105.83 165.78 106.61 Z M 165.33 107.24 L 164.52 108.13 C 163.87 108.84 163.93 109.94 164.64 110.58 C 165.35 111.23 166.45 111.18 167.09 110.47 L 167.90 109.58 C 168.55 108.87 168.49 107.77 167.78 107.12 C 167.07 106.48 165.97 106.53 165.33 107.24 Z M 164.59 108.04 L 163.74 108.87 C 163.05 109.54 163.03 110.64 163.70 111.34 C 164.37 112.03 165.48 112.04 166.17 111.37 L 167.02 110.55 C 167.71 109.88 167.73 108.77 167.06 108.08 C 166.39 107.39 165.29 107.37 164.59 108.04 Z M 163.79 108.82 L 163.07 109.46 C 162.35 110.11 162.29 111.21 162.94 111.93 C 163.58 112.65 164.68 112.71 165.40 112.07 L 166.12 111.42 C 166.84 110.78 166.90 109.68 166.25 108.96 C 165.61 108.24 164.51 108.18 163.79 108.82 Z M 163.11 109.43 L 162.35 110.07 C 161.62 110.69 161.52 111.80 162.15 112.53 C 162.77 113.27 163.87 113.36 164.61 112.74 L 165.36 112.10 C 166.10 111.48 166.19 110.37 165.57 109.64 C 164.95 108.90 163.84 108.81 163.11 109.43 Z M 162.38 110.04 L 161.60 110.68 C 160.85 111.28 160.73 112.39 161.34 113.14 C 161.95 113.89 163.05 114.01 163.80 113.40 L 164.58 112.76 C 165.33 112.16 165.45 111.06 164.84 110.30 C 164.23 109.55 163.13 109.44 162.38 110.04 Z M 161.62 110.66 L 160.81 111.29 C 160.05 111.88 159.92 112.98 160.51 113.74 C 161.11 114.51 162.21 114.64 162.97 114.05 L 163.78 113.42 C 164.54 112.82 164.67 111.72 164.08 110.96 C 163.48 110.20 162.38 110.06 161.62 110.66 Z M 160.83 111.27 L 160.01 111.90 C 159.24 112.48 159.09 113.58 159.67 114.35 C 160.26 115.12 161.36 115.27 162.13 114.69 L 162.95 114.06 C 163.72 113.48 163.87 112.38 163.29 111.61 C 162.70 110.84 161.60 110.68 160.83 111.27 Z M 160.02 111.88 L 159.21 112.49 C 158.43 113.07 158.27 114.17 158.85 114.94 C 159.43 115.72 160.53 115.88 161.31 115.30 L 162.12 114.70 C 162.89 114.12 163.06 113.02 162.48 112.24 C 161.90 111.47 160.80 111.31 160.02 111.88 Z M 159.22 112.48 L 158.40 113.08 C 157.62 113.65 157.45 114.75 158.03 115.53 C 158.60 116.32 159.70 116.48 160.48 115.91 L 161.30 115.31 C 162.08 114.74 162.25 113.64 161.67 112.86 C 161.10 112.08 160.00 111.91 159.22 112.48 Z M 158.41 113.08 L 157.59 113.67 C 156.81 114.24 156.64 115.34 157.21 116.12 C 157.78 116.91 158.88 117.08 159.66 116.51 L 160.48 115.91 C 161.26 115.34 161.43 114.25 160.86 113.46 C 160.29 112.68 159.19 112.50 158.41 113.08 Z M 157.60 113.67 L 156.79 114.25 C 156.00 114.82 155.83 115.92 156.40 116.71 C 156.96 117.49 158.06 117.67 158.85 117.10 L 159.66 116.51 C 160.44 115.94 160.62 114.84 160.05 114.06 C 159.48 113.27 158.38 113.10 157.60 113.67 Z M 156.79 114.25 L 155.99 114.83 C 155.20 115.40 155.02 116.50 155.59 117.28 C 156.16 118.07 157.26 118.25 158.05 117.68 L 158.85 117.10 C 159.63 116.53 159.81 115.43 159.24 114.64 C 158.67 113.86 157.57 113.68 156.79 114.25 Z M 155.98 114.83 L 155.19 115.41 C 154.40 115.98 154.23 117.08 154.80 117.87 C 155.37 118.65 156.47 118.83 157.26 118.25 L 158.05 117.68 C 158.84 117.11 159.01 116.01 158.44 115.22 C 157.87 114.44 156.77 114.26 155.98 114.83 Z M 155.18 115.41 L 154.38 116.00 C 153.60 116.57 153.43 117.67 154.00 118.45 C 154.58 119.24 155.68 119.41 156.46 118.84 L 157.26 118.25 C 158.04 117.68 158.21 116.58 157.64 115.79 C 157.07 115.01 155.97 114.84 155.18 115.41 Z M 154.38 116.00 L 153.59 116.58 C 152.80 117.15 152.64 118.26 153.21 119.04 C 153.78 119.82 154.88 119.99 155.67 119.42 L 156.46 118.84 C 157.25 118.26 157.41 117.16 156.84 116.38 C 156.27 115.59 155.17 115.42 154.38 116.00 Z M 153.59 116.58 L 152.79 117.17 C 152.01 117.74 151.84 118.84 152.41 119.62 C 152.99 120.41 154.09 120.58 154.87 120.00 L 155.67 119.42 C 156.45 118.84 156.62 117.74 156.05 116.96 C 155.47 116.18 154.37 116.01 153.59 116.58 Z M 152.79 117.16 L 151.98 117.76 C 151.20 118.33 151.03 119.43 151.60 120.22 C 152.17 121.00 153.27 121.17 154.06 120.60 L 154.87 120.00 C 155.65 119.43 155.82 118.33 155.25 117.55 C 154.68 116.76 153.58 116.59 152.79 117.16 Z M 151.99 117.75 L 151.15 118.36 C 150.37 118.93 150.19 120.03 150.76 120.82 C 151.34 121.60 152.44 121.78 153.22 121.21 L 154.06 120.60 C 154.84 120.03 155.01 118.93 154.44 118.14 C 153.87 117.36 152.77 117.18 151.99 117.75 Z M 151.16 118.36 L 150.32 118.96 C 149.53 119.53 149.35 120.63 149.92 121.42 C 150.49 122.21 151.59 122.38 152.38 121.81 L 153.22 121.21 C 154.00 120.64 154.18 119.54 153.61 118.75 C 153.05 117.96 151.95 117.79 151.16 118.36 Z M 150.33 118.96 L 149.47 119.57 C 148.68 120.13 148.50 121.23 149.07 122.02 C 149.63 122.81 150.73 122.99 151.52 122.43 L 152.37 121.82 C 153.16 121.25 153.35 120.15 152.78 119.36 C 152.21 118.57 151.12 118.39 150.33 118.96 Z M 149.48 119.56 L 148.64 120.16 C 147.84 120.72 147.66 121.82 148.22 122.61 C 148.78 123.40 149.88 123.59 150.67 123.03 L 151.51 122.43 C 152.31 121.87 152.50 120.77 151.93 119.98 C 151.37 119.19 150.28 119.00 149.48 119.56 Z M 148.65 120.15 L 147.82 120.72 C 147.03 121.28 146.83 122.38 147.39 123.17 C 147.94 123.97 149.04 124.17 149.84 123.61 L 150.66 123.04 C 151.46 122.48 151.65 121.38 151.10 120.59 C 150.54 119.79 149.44 119.59 148.65 120.15 Z M 147.84 120.72 L 147.06 121.25 C 146.25 121.80 146.05 122.89 146.60 123.70 C 147.15 124.50 148.24 124.70 149.04 124.15 L 149.82 123.62 C 150.63 123.07 150.83 121.98 150.28 121.17 C 149.73 120.37 148.64 120.17 147.84 120.72 Z M 147.07 121.24 L 146.09 121.89 C 145.28 122.43 145.06 123.52 145.60 124.33 C 146.14 125.14 147.23 125.36 148.04 124.82 L 149.02 124.17 C 149.83 123.63 150.05 122.54 149.51 121.73 C 148.98 120.92 147.88 120.70 147.07 121.24 Z M 146.08 121.90 L 145.04 122.60 C 144.24 123.15 144.02 124.24 144.57 125.05 C 145.11 125.85 146.21 126.06 147.01 125.52 L 148.05 124.81 C 148.86 124.27 149.07 123.17 148.52 122.37 C 147.98 121.57 146.89 121.35 146.08 121.90 Z M 144.84 122.76 L 144.29 123.27 C 143.57 123.92 143.52 125.03 144.17 125.75 C 144.83 126.47 145.94 126.52 146.66 125.87 L 147.21 125.36 C 147.93 124.71 147.98 123.59 147.32 122.88 C 146.67 122.16 145.56 122.11 144.84 122.76 Z M 143.84 125.22 L 143.98 125.56 C 144.34 126.46 145.37 126.90 146.27 126.53 C 147.16 126.17 147.60 125.15 147.24 124.25 L 147.10 123.91 C 146.74 123.01 145.72 122.58 144.82 122.94 C 143.92 123.30 143.48 124.32 143.84 125.22 Z M 145.20 126.61 L 146.10 126.83 C 147.04 127.05 147.99 126.48 148.22 125.54 C 148.44 124.60 147.87 123.65 146.93 123.42 L 146.02 123.20 C 145.08 122.98 144.13 123.56 143.91 124.49 C 143.68 125.43 144.26 126.38 145.20 126.61 Z M 146.18 126.83 L 147.42 127.08 C 148.37 127.27 149.29 126.66 149.47 125.71 C 149.66 124.77 149.05 123.85 148.10 123.66 L 146.85 123.42 C 145.91 123.23 144.99 123.84 144.81 124.79 C 144.62 125.73 145.23 126.65 146.18 126.83 Z M 147.23 127.03 L 148.19 127.34 C 149.10 127.63 150.08 127.13 150.37 126.21 C 150.67 125.30 150.16 124.32 149.25 124.02 L 148.29 123.72 C 147.38 123.42 146.40 123.93 146.11 124.84 C 145.81 125.76 146.32 126.74 147.23 127.03 Z M 148.03 127.28 L 148.94 127.67 C 149.83 128.05 150.85 127.65 151.23 126.76 C 151.61 125.88 151.21 124.86 150.32 124.48 L 149.41 124.08 C 148.53 123.70 147.50 124.11 147.12 124.99 C 146.74 125.87 147.14 126.89 148.03 127.28 Z M 148.85 127.63 L 149.74 128.08 C 150.59 128.51 151.64 128.17 152.08 127.31 C 152.51 126.45 152.17 125.41 151.31 124.97 L 150.42 124.52 C 149.56 124.09 148.51 124.43 148.08 125.29 C 147.65 126.15 147.99 127.19 148.85 127.63 Z M 149.70 128.06 L 150.54 128.51 C 151.38 128.97 152.44 128.65 152.90 127.80 C 153.35 126.96 153.04 125.90 152.19 125.45 L 151.35 124.99 C 150.50 124.54 149.45 124.85 148.99 125.70 C 148.54 126.54 148.85 127.60 149.70 128.06 Z M 150.53 128.50 L 151.38 128.97 C 152.22 129.43 153.28 129.11 153.74 128.27 C 154.20 127.43 153.89 126.37 153.04 125.91 L 152.20 125.45 C 151.35 124.99 150.30 125.30 149.84 126.15 C 149.38 126.99 149.69 128.05 150.53 128.50 Z M 151.40 128.97 L 152.30 129.45 C 153.15 129.90 154.20 129.58 154.65 128.73 C 155.10 127.89 154.78 126.84 153.93 126.39 L 153.03 125.91 C 152.18 125.46 151.13 125.78 150.68 126.63 C 150.23 127.47 150.55 128.52 151.40 128.97 Z M 152.33 129.47 L 153.25 129.93 C 154.11 130.36 155.15 130.02 155.58 129.16 C 156.01 128.31 155.67 127.27 154.81 126.84 L 153.90 126.37 C 153.04 125.94 152.00 126.28 151.57 127.14 C 151.14 127.99 151.48 129.04 152.33 129.47 Z M 153.29 129.94 L 154.17 130.36 C 155.03 130.77 156.06 130.41 156.47 129.54 C 156.88 128.68 156.51 127.65 155.65 127.24 L 154.78 126.82 C 153.92 126.41 152.89 126.78 152.47 127.64 C 152.06 128.50 152.43 129.53 153.29 129.94 Z M 154.20 130.37 L 155.13 130.78 C 155.99 131.17 157.01 130.79 157.40 129.92 C 157.79 129.06 157.40 128.04 156.54 127.65 L 155.62 127.23 C 154.75 126.84 153.73 127.23 153.34 128.09 C 152.95 128.96 153.34 129.98 154.20 130.37 Z M 155.16 130.79 L 156.11 131.19 C 156.98 131.56 157.99 131.16 158.35 130.28 C 158.72 129.41 158.32 128.41 157.45 128.04 L 156.50 127.64 C 155.63 127.27 154.62 127.68 154.26 128.55 C 153.89 129.42 154.29 130.42 155.16 130.79 Z M 156.15 131.20 L 157.11 131.58 C 157.98 131.92 158.97 131.49 159.32 130.62 C 159.66 129.74 159.23 128.75 158.36 128.41 L 157.40 128.03 C 156.53 127.69 155.54 128.12 155.19 128.99 C 154.85 129.87 155.28 130.86 156.15 131.20 Z M 157.16 131.58 L 158.14 131.93 C 159.01 132.24 159.98 131.79 160.29 130.92 C 160.61 130.04 160.15 129.07 159.28 128.76 L 158.30 128.41 C 157.43 128.09 156.46 128.55 156.15 129.42 C 155.83 130.30 156.29 131.26 157.16 131.58 Z M 158.19 131.92 L 159.14 132.24 C 160.02 132.52 160.95 132.05 161.24 131.18 C 161.53 130.31 161.05 129.37 160.18 129.08 L 159.23 128.77 C 158.35 128.48 157.42 128.95 157.13 129.83 C 156.84 130.70 157.32 131.63 158.19 131.92 Z M 159.19 132.22 L 160.13 132.51 C 161.00 132.77 161.91 132.28 162.17 131.41 C 162.43 130.55 161.94 129.64 161.07 129.38 L 160.13 129.09 C 159.27 128.83 158.36 129.32 158.10 130.19 C 157.84 131.05 158.33 131.96 159.19 132.22 Z M 160.18 132.49 L 161.11 132.75 C 161.97 132.99 162.85 132.48 163.09 131.63 C 163.33 130.77 162.82 129.89 161.97 129.65 L 161.03 129.39 C 160.18 129.16 159.29 129.66 159.05 130.51 C 158.82 131.37 159.32 132.26 160.18 132.49 Z M 161.15 132.73 L 162.14 132.98 C 162.98 133.20 163.84 132.68 164.06 131.84 C 164.27 130.99 163.76 130.13 162.91 129.92 L 161.93 129.67 C 161.08 129.46 160.22 129.97 160.01 130.81 C 159.80 131.66 160.31 132.52 161.15 132.73 Z M 162.17 132.96 L 163.14 133.19 C 163.97 133.38 164.81 132.87 165.00 132.04 C 165.20 131.21 164.69 130.37 163.85 130.18 L 162.88 129.95 C 162.05 129.75 161.22 130.26 161.02 131.09 C 160.82 131.92 161.34 132.76 162.17 132.96 Z M 163.16 133.16 L 164.13 133.38 C 164.94 133.56 165.75 133.05 165.94 132.23 C 166.12 131.42 165.61 130.61 164.80 130.42 L 163.83 130.20 C 163.02 130.02 162.21 130.53 162.02 131.35 C 161.84 132.16 162.35 132.97 163.16 133.16 Z M 164.14 133.35 L 164.69 133.47 C 165.49 133.65 166.28 133.15 166.46 132.34 C 166.64 131.54 166.14 130.75 165.33 130.57 L 164.78 130.45 C 163.98 130.27 163.19 130.77 163.01 131.58 C 162.83 132.38 163.34 133.17 164.14 133.35 Z"
      fill="black"
      fill-rule="nonzero" /><path d="M 132.20 137.07 L 131.17 137.07 C 130.30 137.07 129.60 137.77 129.60 138.64 C 129.60 139.50 130.30 140.20 131.17 140.20 L 132.20 140.20 C 133.07 140.20 133.77 139.50 133.77 138.64 C 133.77 137.77 133.07 137.07 132.20 137.07 Z M 131.17 137.07 L 130.15 137.07 C 129.28 137.07 128.58 137.77 128.58 138.64 C 128.58 139.50 129.28 140.20 130.15 140.20 L 131.17 140.20 C 132.04 140.20 132.74 139.50 132.74 138.64 C 132.74 137.77 132.04 137.07 131.17 137.07 Z M 130.15 137.06 L 129.14 137.06 C 128.27 137.06 127.57 137.77 127.57 138.64 C 127.57 139.50 128.27 140.21 129.14 140.21 L 130.15 140.21 C 131.02 140.21 131.72 139.50 131.72 138.64 C 131.72 137.77 131.02 137.06 130.15 137.06 Z M 129.14 137.06 L 128.17 137.06 C 127.30 137.06 126.59 137.77 126.59 138.64 C 126.59 139.51 127.30 140.21 128.17 140.21 L 129.14 140.21 C 130.01 140.21 130.72 139.51 130.72 138.64 C 130.72 137.77 130.01 137.06 129.14 137.06 Z M 128.17 137.05 L 127.17 137.05 C 126.30 137.05 125.59 137.76 125.59 138.64 C 125.59 139.51 126.30 140.22 127.17 140.22 L 128.17 140.22 C 129.04 140.22 129.75 139.51 129.75 138.64 C 129.75 137.76 129.04 137.05 128.17 137.05 Z M 127.17 137.04 L 126.13 137.05 C 125.25 137.05 124.54 137.76 124.54 138.64 C 124.54 139.52 125.25 140.23 126.13 140.23 L 127.17 140.23 C 128.05 140.23 128.76 139.51 128.76 138.63 C 128.76 137.76 128.05 137.04 127.17 137.04 Z M 126.12 137.03 L 125.13 137.04 C 124.24 137.04 123.52 137.76 123.53 138.65 C 123.53 139.53 124.25 140.25 125.14 140.24 L 126.14 140.24 C 127.02 140.24 127.74 139.52 127.73 138.63 C 127.73 137.74 127.01 137.03 126.12 137.03 Z M 125.12 137.02 L 124.15 137.03 C 123.26 137.04 122.54 137.77 122.55 138.66 C 122.56 139.56 123.29 140.28 124.19 140.27 L 125.15 140.26 C 126.04 140.25 126.76 139.52 126.75 138.63 C 126.74 137.73 126.01 137.01 125.12 137.02 Z M 124.14 137.02 L 123.18 137.04 C 122.28 137.05 121.56 137.79 121.58 138.70 C 121.59 139.60 122.34 140.31 123.24 140.30 L 124.20 140.28 C 125.10 140.26 125.82 139.52 125.80 138.62 C 125.78 137.72 125.04 137.00 124.14 137.02 Z M 123.15 137.02 L 122.17 137.06 C 121.26 137.09 120.55 137.85 120.58 138.76 C 120.62 139.67 121.38 140.38 122.29 140.34 L 123.27 140.31 C 124.17 140.28 124.88 139.51 124.85 138.61 C 124.82 137.70 124.06 136.99 123.15 137.02 Z M 122.11 137.05 L 121.12 137.12 C 120.21 137.18 119.52 137.98 119.59 138.89 C 119.65 139.80 120.44 140.49 121.36 140.43 L 122.34 140.36 C 123.26 140.29 123.94 139.50 123.88 138.58 C 123.81 137.67 123.02 136.98 122.11 137.05 Z M 121.04 137.11 L 120.03 137.24 C 119.11 137.35 118.46 138.18 118.57 139.10 C 118.68 140.01 119.51 140.66 120.43 140.55 L 121.44 140.43 C 122.36 140.32 123.01 139.49 122.90 138.57 C 122.79 137.65 121.95 137.00 121.04 137.11 Z M 119.91 137.24 L 118.65 137.48 C 117.74 137.65 117.13 138.53 117.31 139.45 C 117.48 140.36 118.36 140.96 119.28 140.79 L 120.54 140.55 C 121.45 140.38 122.06 139.50 121.88 138.58 C 121.71 137.67 120.83 137.07 119.91 137.24 Z M 118.50 137.50 L 117.39 137.82 C 116.49 138.07 115.96 139.01 116.22 139.91 C 116.48 140.81 117.42 141.34 118.32 141.08 L 119.43 140.77 C 120.33 140.51 120.85 139.57 120.60 138.67 C 120.34 137.77 119.40 137.24 118.50 137.50 Z M 116.86 138.06 L 116.47 138.34 C 115.70 138.89 115.52 139.96 116.07 140.73 C 116.62 141.49 117.69 141.67 118.46 141.12 L 118.85 140.84 C 119.62 140.29 119.80 139.22 119.24 138.45 C 118.69 137.68 117.62 137.51 116.86 138.06 Z M 116.97 141.38 L 117.43 141.51 C 118.34 141.79 119.30 141.27 119.57 140.36 C 119.84 139.45 119.32 138.49 118.41 138.22 L 117.96 138.08 C 117.04 137.81 116.09 138.33 115.82 139.24 C 115.54 140.15 116.06 141.11 116.97 141.38 Z M 117.82 141.59 L 118.77 141.64 C 119.72 141.70 120.54 140.97 120.60 140.02 C 120.65 139.07 119.93 138.26 118.98 138.20 L 118.02 138.14 C 117.07 138.09 116.26 138.81 116.20 139.76 C 116.14 140.71 116.87 141.53 117.82 141.59 Z M 118.88 141.65 L 120.09 141.64 C 121.05 141.64 121.82 140.87 121.82 139.91 C 121.81 138.96 121.04 138.19 120.08 138.19 L 118.87 138.19 C 117.92 138.20 117.14 138.97 117.15 139.93 C 117.15 140.88 117.93 141.65 118.88 141.65 Z M 120.16 141.65 L 121.40 141.59 C 122.36 141.55 123.10 140.75 123.06 139.79 C 123.02 138.84 122.21 138.10 121.26 138.14 L 120.02 138.19 C 119.06 138.23 118.32 139.04 118.36 139.99 C 118.40 140.94 119.21 141.69 120.16 141.65 Z M 121.47 141.59 L 122.59 141.50 C 123.54 141.42 124.25 140.58 124.17 139.63 C 124.09 138.68 123.26 137.97 122.30 138.05 L 121.19 138.14 C 120.23 138.22 119.53 139.06 119.60 140.01 C 119.68 140.96 120.52 141.67 121.47 141.59 Z M 122.68 141.49 L 123.65 141.36 C 124.60 141.24 125.27 140.37 125.14 139.42 C 125.02 138.47 124.15 137.80 123.20 137.93 L 122.22 138.06 C 121.27 138.18 120.61 139.05 120.73 140.00 C 120.86 140.95 121.73 141.62 122.68 141.49 Z M 123.73 141.35 L 124.64 141.19 C 125.59 141.02 126.21 140.12 126.04 139.18 C 125.87 138.23 124.97 137.61 124.03 137.77 L 123.12 137.94 C 122.18 138.11 121.55 139.01 121.72 139.95 C 121.89 140.89 122.79 141.52 123.73 141.35 Z M 124.70 141.18 L 125.60 140.99 C 126.54 140.79 127.13 139.87 126.94 138.93 C 126.74 137.99 125.82 137.39 124.88 137.59 L 123.98 137.78 C 123.04 137.98 122.44 138.90 122.64 139.84 C 122.84 140.78 123.76 141.38 124.70 141.18 Z M 125.63 140.98 L 126.55 140.77 C 127.49 140.55 128.07 139.62 127.86 138.69 C 127.64 137.75 126.71 137.17 125.78 137.39 L 124.85 137.60 C 123.92 137.81 123.33 138.74 123.55 139.68 C 123.76 140.61 124.69 141.19 125.63 140.98 Z M 126.57 140.76 L 127.54 140.53 C 128.47 140.31 129.05 139.37 128.82 138.44 C 128.60 137.50 127.66 136.93 126.73 137.16 L 125.76 137.39 C 124.83 137.61 124.25 138.55 124.48 139.48 C 124.70 140.41 125.64 140.99 126.57 140.76 Z M 127.55 140.53 L 128.57 140.28 C 129.50 140.05 130.07 139.11 129.84 138.18 C 129.61 137.25 128.67 136.68 127.74 136.91 L 126.72 137.16 C 125.79 137.39 125.22 138.33 125.45 139.26 C 125.68 140.19 126.62 140.76 127.55 140.53 Z M 128.57 140.28 L 129.54 140.04 C 130.48 139.81 131.05 138.87 130.82 137.94 C 130.59 137.01 129.65 136.44 128.72 136.67 L 127.74 136.91 C 126.81 137.14 126.24 138.08 126.47 139.01 C 126.70 139.94 127.64 140.51 128.57 140.28 Z M 129.54 140.04 L 130.49 139.81 C 131.42 139.58 131.99 138.64 131.76 137.71 C 131.53 136.78 130.59 136.21 129.66 136.43 L 128.72 136.67 C 127.79 136.89 127.22 137.83 127.44 138.77 C 127.67 139.70 128.61 140.27 129.54 140.04 Z M 130.49 139.81 L 131.46 139.57 C 132.39 139.34 132.96 138.40 132.73 137.47 C 132.50 136.54 131.56 135.97 130.63 136.20 L 129.66 136.44 C 128.73 136.66 128.16 137.60 128.39 138.53 C 128.62 139.47 129.56 140.04 130.49 139.81 Z M 131.46 139.57 L 132.45 139.32 C 133.39 139.09 133.95 138.15 133.72 137.22 C 133.50 136.29 132.55 135.72 131.62 135.95 L 130.63 136.20 C 129.70 136.43 129.13 137.37 129.36 138.30 C 129.59 139.23 130.53 139.80 131.46 139.57 Z M 132.46 139.32 L 133.46 139.07 C 134.39 138.84 134.96 137.90 134.72 136.97 C 134.49 136.04 133.55 135.47 132.62 135.70 L 131.62 135.95 C 130.69 136.19 130.12 137.13 130.35 138.06 C 130.59 138.99 131.53 139.56 132.46 139.32 Z M 133.46 139.07 L 134.41 138.83 C 135.34 138.60 135.91 137.66 135.67 136.73 C 135.44 135.80 134.49 135.23 133.56 135.47 L 132.61 135.71 C 131.68 135.94 131.12 136.88 131.36 137.81 C 131.59 138.74 132.53 139.31 133.46 139.07 Z M 134.42 138.83 L 135.38 138.59 C 136.31 138.35 136.87 137.41 136.63 136.48 C 136.39 135.55 135.45 134.99 134.52 135.22 L 133.56 135.47 C 132.63 135.70 132.07 136.65 132.30 137.58 C 132.54 138.51 133.49 139.07 134.42 138.83 Z M 135.38 138.59 L 136.35 138.34 C 137.28 138.10 137.84 137.15 137.60 136.22 C 137.36 135.29 136.41 134.73 135.48 134.97 L 134.51 135.22 C 133.58 135.46 133.03 136.41 133.26 137.34 C 133.50 138.27 134.45 138.83 135.38 138.59 Z M 136.36 138.34 L 137.34 138.08 C 138.27 137.84 138.82 136.89 138.58 135.96 C 138.34 135.03 137.39 134.48 136.46 134.72 L 135.48 134.97 C 134.55 135.22 134.00 136.17 134.24 137.09 C 134.48 138.02 135.43 138.58 136.36 138.34 Z M 137.34 138.08 L 138.32 137.82 C 139.24 137.58 139.80 136.63 139.55 135.70 C 139.31 134.77 138.36 134.22 137.43 134.46 L 136.46 134.72 C 135.53 134.96 134.98 135.91 135.22 136.84 C 135.47 137.77 136.42 138.32 137.34 138.08 Z M 138.32 137.82 L 139.26 137.57 C 140.19 137.32 140.74 136.37 140.50 135.44 C 140.25 134.52 139.30 133.97 138.37 134.21 L 137.43 134.46 C 136.50 134.71 135.95 135.66 136.19 136.59 C 136.44 137.52 137.39 138.07 138.32 137.82 Z M 139.27 137.57 L 140.22 137.31 C 141.15 137.06 141.70 136.11 141.45 135.18 C 141.20 134.25 140.25 133.71 139.32 133.96 L 138.36 134.21 C 137.44 134.46 136.89 135.42 137.14 136.34 C 137.39 137.27 138.34 137.82 139.27 137.57 Z M 140.23 137.31 L 141.20 137.05 C 142.13 136.79 142.67 135.84 142.42 134.91 C 142.16 133.98 141.21 133.44 140.28 133.69 L 139.31 133.96 C 138.39 134.21 137.84 135.17 138.09 136.09 C 138.35 137.02 139.31 137.57 140.23 137.31 Z M 141.21 137.04 L 142.19 136.77 C 143.11 136.51 143.65 135.55 143.40 134.63 C 143.14 133.70 142.18 133.16 141.25 133.42 L 140.27 133.69 C 139.35 133.95 138.81 134.91 139.06 135.84 C 139.32 136.76 140.28 137.30 141.21 137.04 Z M 142.20 136.77 L 143.18 136.49 C 144.10 136.23 144.64 135.26 144.38 134.34 C 144.12 133.41 143.15 132.88 142.23 133.14 L 141.24 133.42 C 140.32 133.68 139.78 134.65 140.05 135.57 C 140.31 136.50 141.27 137.03 142.20 136.77 Z M 143.19 136.49 L 144.15 136.21 C 145.08 135.94 145.61 134.98 145.34 134.05 C 145.07 133.13 144.11 132.60 143.18 132.86 L 142.22 133.14 C 141.30 133.41 140.76 134.38 141.03 135.30 C 141.30 136.22 142.26 136.75 143.19 136.49 Z M 144.16 136.21 L 145.13 135.92 C 146.05 135.65 146.58 134.69 146.31 133.76 C 146.04 132.84 145.07 132.31 144.15 132.58 L 143.18 132.87 C 142.26 133.14 141.73 134.10 142.00 135.03 C 142.27 135.95 143.23 136.48 144.16 136.21 Z M 145.13 135.92 L 146.10 135.64 C 147.02 135.37 147.55 134.40 147.27 133.47 C 147.00 132.55 146.03 132.02 145.11 132.30 L 144.14 132.58 C 143.22 132.85 142.69 133.82 142.97 134.75 C 143.24 135.67 144.21 136.20 145.13 135.92 Z M 146.10 135.64 L 147.06 135.35 C 147.98 135.08 148.51 134.11 148.23 133.19 C 147.96 132.27 146.99 131.74 146.07 132.01 L 145.11 132.30 C 144.19 132.57 143.66 133.54 143.93 134.46 C 144.21 135.38 145.18 135.91 146.10 135.64 Z M 147.06 135.36 L 148.00 135.08 C 148.92 134.81 149.45 133.84 149.18 132.91 C 148.90 131.99 147.94 131.46 147.01 131.73 L 146.07 132.01 C 145.15 132.28 144.62 133.25 144.89 134.18 C 145.16 135.10 146.13 135.63 147.06 135.36 Z M 147.99 135.08 L 148.98 134.79 C 149.90 134.52 150.43 133.55 150.16 132.63 C 149.89 131.71 148.93 131.18 148.00 131.45 L 147.02 131.73 C 146.09 132.00 145.56 132.97 145.83 133.90 C 146.10 134.82 147.07 135.35 147.99 135.08 Z M 148.98 134.79 L 149.95 134.51 C 150.87 134.25 151.40 133.28 151.14 132.35 C 150.87 131.43 149.90 130.90 148.98 131.16 L 148.01 131.44 C 147.08 131.71 146.55 132.68 146.82 133.60 C 147.08 134.53 148.05 135.06 148.98 134.79 Z M 149.94 134.51 L 150.90 134.24 C 151.82 133.97 152.36 133.01 152.09 132.08 C 151.83 131.16 150.86 130.62 149.93 130.89 L 148.98 131.16 C 148.05 131.43 147.52 132.39 147.78 133.32 C 148.05 134.24 149.02 134.78 149.94 134.51 Z M 150.89 134.24 L 151.84 133.97 C 152.77 133.71 153.30 132.74 153.04 131.82 C 152.78 130.89 151.81 130.35 150.89 130.62 L 149.94 130.89 C 149.01 131.15 148.47 132.11 148.74 133.04 C 149.00 133.97 149.97 134.51 150.89 134.24 Z M 151.84 133.97 L 152.78 133.71 C 153.71 133.44 154.25 132.48 153.99 131.55 C 153.73 130.63 152.76 130.09 151.83 130.35 L 150.89 130.62 C 149.96 130.88 149.42 131.84 149.68 132.77 C 149.95 133.70 150.91 134.24 151.84 133.97 Z M 152.78 133.71 L 153.74 133.44 C 154.67 133.18 155.21 132.21 154.95 131.29 C 154.68 130.36 153.72 129.82 152.79 130.08 L 151.84 130.35 C 150.91 130.61 150.37 131.57 150.63 132.50 C 150.89 133.43 151.85 133.97 152.78 133.71 Z M 153.74 133.44 L 154.70 133.17 C 155.62 132.91 156.17 131.95 155.91 131.02 C 155.65 130.09 154.68 129.55 153.76 129.81 L 152.80 130.08 C 151.87 130.34 151.33 131.30 151.59 132.23 C 151.85 133.16 152.81 133.70 153.74 133.44 Z M 154.70 133.17 L 155.66 132.90 C 156.59 132.64 157.13 131.68 156.87 130.75 C 156.61 129.82 155.65 129.28 154.72 129.54 L 153.76 129.81 C 152.83 130.07 152.29 131.03 152.55 131.96 C 152.80 132.89 153.77 133.43 154.70 133.17 Z M 155.66 132.90 L 156.63 132.63 C 157.55 132.38 158.10 131.41 157.84 130.48 C 157.58 129.56 156.62 129.01 155.69 129.27 L 154.72 129.54 C 153.79 129.80 153.25 130.76 153.51 131.69 C 153.77 132.62 154.73 133.16 155.66 132.90 Z M 156.62 132.63 L 157.59 132.36 C 158.52 132.11 159.06 131.14 158.81 130.22 C 158.55 129.29 157.59 128.74 156.66 129.00 L 155.69 129.27 C 154.76 129.53 154.22 130.49 154.48 131.42 C 154.73 132.35 155.70 132.89 156.62 132.63 Z M 157.59 132.36 L 158.56 132.10 C 159.48 131.84 160.03 130.88 159.77 129.95 C 159.51 129.02 158.55 128.48 157.62 128.73 L 156.66 129.00 C 155.73 129.26 155.19 130.22 155.44 131.15 C 155.70 132.08 156.66 132.62 157.59 132.36 Z M 158.56 132.10 L 159.52 131.83 C 160.45 131.57 160.99 130.61 160.73 129.68 C 160.48 128.75 159.51 128.21 158.58 128.47 L 157.62 128.73 C 156.69 128.99 156.15 129.95 156.41 130.88 C 156.66 131.81 157.63 132.36 158.56 132.10 Z M 159.52 131.83 L 160.48 131.56 C 161.41 131.30 161.96 130.34 161.70 129.41 C 161.44 128.48 160.48 127.94 159.55 128.20 L 158.58 128.47 C 157.66 128.72 157.11 129.69 157.37 130.62 C 157.63 131.54 158.59 132.09 159.52 131.83 Z M 160.48 131.56 L 161.45 131.29 C 162.38 131.04 162.92 130.07 162.66 129.15 C 162.40 128.22 161.44 127.67 160.51 127.93 L 159.55 128.20 C 158.62 128.46 158.08 129.42 158.33 130.35 C 158.59 131.28 159.55 131.82 160.48 131.56 Z M 161.45 131.29 L 162.41 131.03 C 163.34 130.77 163.88 129.81 163.62 128.88 C 163.37 127.95 162.40 127.41 161.48 127.66 L 160.51 127.93 C 159.58 128.19 159.04 129.15 159.30 130.08 C 159.56 131.01 160.52 131.55 161.45 131.29 Z M 162.41 131.03 L 163.37 130.76 C 164.30 130.50 164.84 129.54 164.59 128.61 C 164.33 127.68 163.37 127.14 162.44 127.40 L 161.48 127.66 C 160.55 127.92 160.00 128.88 160.26 129.81 C 160.52 130.74 161.48 131.28 162.41 131.03 Z M 163.37 130.76 L 164.33 130.50 C 165.26 130.24 165.81 129.28 165.55 128.35 C 165.30 127.42 164.34 126.88 163.41 127.13 L 162.44 127.40 C 161.51 127.65 160.97 128.61 161.22 129.54 C 161.48 130.47 162.44 131.02 163.37 130.76 Z M 164.32 130.50 L 165.29 130.24 C 166.22 129.99 166.77 129.03 166.52 128.10 C 166.27 127.17 165.31 126.62 164.38 126.87 L 163.41 127.13 C 162.48 127.38 161.93 128.34 162.18 129.27 C 162.43 130.20 163.39 130.75 164.32 130.50 Z M 165.27 130.24 L 166.24 129.99 C 167.17 129.75 167.73 128.79 167.49 127.86 C 167.25 126.93 166.29 126.37 165.36 126.61 L 164.39 126.87 C 163.46 127.11 162.90 128.06 163.14 129.00 C 163.39 129.93 164.34 130.49 165.27 130.24 Z M 166.23 129.99 L 167.20 129.75 C 168.13 129.52 168.70 128.57 168.47 127.63 C 168.23 126.70 167.28 126.13 166.35 126.37 L 165.38 126.61 C 164.44 126.84 163.87 127.79 164.11 128.73 C 164.34 129.66 165.29 130.23 166.23 129.99 Z M 167.18 129.76 L 168.14 129.53 C 169.08 129.30 169.66 128.36 169.44 127.42 C 169.21 126.48 168.27 125.91 167.33 126.13 L 166.37 126.36 C 165.43 126.58 164.85 127.53 165.07 128.46 C 165.30 129.40 166.24 129.98 167.18 129.76 Z M 168.13 129.53 L 169.10 129.31 C 170.04 129.09 170.63 128.15 170.41 127.21 C 170.19 126.27 169.26 125.69 168.32 125.90 L 167.35 126.13 C 166.41 126.34 165.82 127.28 166.04 128.22 C 166.25 129.16 167.19 129.74 168.13 129.53 Z M 169.09 129.31 L 170.06 129.09 C 171.01 128.88 171.60 127.95 171.39 127.01 C 171.18 126.07 170.25 125.47 169.31 125.68 L 168.33 125.90 C 167.39 126.11 166.80 127.04 167.01 127.98 C 167.21 128.92 168.15 129.52 169.09 129.31 Z M 170.06 129.09 L 171.04 128.88 C 171.98 128.68 172.58 127.75 172.37 126.80 C 172.17 125.86 171.24 125.26 170.30 125.47 L 169.32 125.68 C 168.37 125.89 167.78 126.82 167.98 127.76 C 168.18 128.70 169.11 129.30 170.06 129.09 Z M 171.03 128.88 L 172.02 128.67 C 172.97 128.47 173.57 127.54 173.36 126.60 C 173.16 125.66 172.24 125.05 171.29 125.26 L 170.30 125.47 C 169.36 125.67 168.76 126.60 168.96 127.54 C 169.16 128.48 170.09 129.08 171.03 128.88 Z M 172.02 128.67 L 173.04 128.45 C 173.98 128.25 174.58 127.33 174.38 126.39 C 174.18 125.44 173.26 124.84 172.31 125.04 L 171.30 125.26 C 170.35 125.46 169.75 126.38 169.95 127.33 C 170.15 128.27 171.08 128.87 172.02 128.67 Z M 173.03 128.46 L 174.04 128.25 C 174.98 128.05 175.59 127.12 175.39 126.18 C 175.19 125.24 174.27 124.63 173.33 124.83 L 172.32 125.04 C 171.37 125.24 170.77 126.16 170.97 127.10 C 171.16 128.05 172.09 128.65 173.03 128.46 Z M 174.03 128.25 L 175.02 128.05 C 175.96 127.85 176.57 126.93 176.38 125.99 C 176.19 125.04 175.27 124.43 174.32 124.63 L 173.33 124.83 C 172.39 125.02 171.78 125.94 171.97 126.88 C 172.16 127.83 173.09 128.44 174.03 128.25 Z M 175.00 128.05 L 175.96 127.86 C 176.90 127.68 177.52 126.76 177.33 125.81 C 177.15 124.87 176.23 124.25 175.29 124.44 L 174.33 124.62 C 173.39 124.81 172.77 125.73 172.96 126.67 C 173.14 127.62 174.06 128.23 175.00 128.05 Z M 175.94 127.87 L 176.91 127.69 C 177.85 127.51 178.48 126.60 178.31 125.65 C 178.13 124.71 177.22 124.08 176.27 124.26 L 175.31 124.43 C 174.36 124.61 173.73 125.52 173.91 126.47 C 174.08 127.41 174.99 128.04 175.94 127.87 Z M 176.88 127.69 L 177.95 127.51 C 178.90 127.35 179.54 126.45 179.38 125.50 C 179.22 124.55 178.32 123.91 177.37 124.07 L 176.30 124.25 C 175.35 124.41 174.71 125.31 174.87 126.26 C 175.03 127.21 175.93 127.85 176.88 127.69 Z M 177.92 127.52 L 178.91 127.37 C 179.86 127.22 180.52 126.33 180.38 125.38 C 180.23 124.43 179.34 123.77 178.39 123.92 L 177.40 124.07 C 176.44 124.21 175.79 125.10 175.93 126.05 C 176.08 127.00 176.97 127.66 177.92 127.52 Z M 178.88 127.37 L 179.81 127.24 C 180.77 127.12 181.44 126.24 181.31 125.28 C 181.18 124.33 180.30 123.66 179.35 123.79 L 178.42 123.91 C 177.46 124.04 176.79 124.92 176.92 125.87 C 177.05 126.83 177.93 127.50 178.88 127.37 Z M 179.79 127.25 L 180.71 127.14 C 181.67 127.02 182.35 126.16 182.24 125.20 C 182.12 124.24 181.26 123.56 180.30 123.67 L 179.38 123.78 C 178.42 123.90 177.74 124.76 177.85 125.72 C 177.96 126.68 178.83 127.36 179.79 127.25 Z M 180.67 127.14 L 181.63 127.05 C 182.58 126.96 183.29 126.11 183.20 125.15 C 183.11 124.20 182.26 123.49 181.30 123.58 L 180.34 123.67 C 179.38 123.76 178.68 124.61 178.77 125.57 C 178.86 126.53 179.71 127.23 180.67 127.14 Z M 181.55 127.06 L 182.53 127.01 C 183.49 126.96 184.23 126.14 184.19 125.18 C 184.14 124.22 183.32 123.48 182.36 123.53 L 181.38 123.57 C 180.42 123.62 179.67 124.44 179.72 125.40 C 179.77 126.36 180.59 127.11 181.55 127.06 Z M 182.44 127.01 L 183.49 127.02 C 184.46 127.02 185.24 126.24 185.25 125.28 C 185.25 124.32 184.48 123.53 183.51 123.53 L 182.45 123.52 C 181.49 123.52 180.71 124.30 180.70 125.26 C 180.70 126.22 181.47 127.01 182.44 127.01 Z M 183.39 127.01 L 184.52 127.09 C 185.49 127.15 186.32 126.42 186.38 125.46 C 186.44 124.50 185.71 123.67 184.75 123.61 L 183.62 123.53 C 182.66 123.47 181.82 124.20 181.76 125.16 C 181.70 126.12 182.43 126.95 183.39 127.01 Z M 184.36 127.08 L 185.44 127.25 C 186.40 127.40 187.30 126.75 187.45 125.80 C 187.60 124.84 186.95 123.95 186.00 123.79 L 184.92 123.62 C 183.96 123.47 183.06 124.12 182.91 125.07 C 182.76 126.02 183.41 126.92 184.36 127.08 Z M 185.12 127.17 L 185.96 127.48 C 186.87 127.81 187.88 127.34 188.21 126.43 C 188.54 125.52 188.07 124.51 187.16 124.18 L 186.32 123.87 C 185.41 123.54 184.41 124.01 184.07 124.92 C 183.74 125.83 184.21 126.84 185.12 127.17 Z M 185.23 126.98 L 185.65 127.47 C 186.29 128.20 187.40 128.28 188.13 127.65 C 188.87 127.02 188.95 125.91 188.32 125.17 L 187.89 124.68 C 187.26 123.95 186.15 123.86 185.42 124.50 C 184.68 125.13 184.60 126.24 185.23 126.98 Z M 185.25 126.06 L 185.14 126.76 C 185.00 127.72 185.66 128.62 186.62 128.76 C 187.58 128.90 188.48 128.24 188.62 127.28 L 188.72 126.58 C 188.87 125.62 188.20 124.72 187.24 124.58 C 186.28 124.44 185.39 125.10 185.25 126.06 Z M 185.41 126.05 L 184.82 126.94 C 184.29 127.75 184.51 128.85 185.32 129.38 C 186.13 129.92 187.22 129.69 187.76 128.88 L 188.35 127.99 C 188.88 127.18 188.66 126.09 187.85 125.55 C 187.04 125.02 185.95 125.24 185.41 126.05 Z M 185.00 126.72 L 184.11 127.68 C 183.45 128.39 183.49 129.50 184.20 130.16 C 184.91 130.82 186.02 130.78 186.68 130.07 L 187.58 129.11 C 188.24 128.40 188.20 127.29 187.49 126.63 C 186.78 125.97 185.67 126.00 185.00 126.72 Z M 184.19 127.60 L 183.54 128.21 C 182.84 128.88 182.81 129.99 183.48 130.69 C 184.14 131.40 185.25 131.43 185.96 130.76 L 186.60 130.15 C 187.31 129.48 187.34 128.37 186.67 127.67 C 186.00 126.96 184.89 126.93 184.19 127.60 Z M 183.58 128.18 L 182.86 128.82 C 182.14 129.46 182.08 130.57 182.72 131.29 C 183.37 132.02 184.48 132.08 185.20 131.44 L 185.92 130.79 C 186.64 130.15 186.71 129.04 186.06 128.32 C 185.42 127.59 184.31 127.53 183.58 128.18 Z M 182.89 128.80 L 182.12 129.46 C 181.39 130.09 181.30 131.19 181.93 131.93 C 182.56 132.66 183.66 132.75 184.40 132.12 L 185.17 131.46 C 185.91 130.83 185.99 129.72 185.36 128.99 C 184.74 128.25 183.63 128.17 182.89 128.80 Z M 182.14 129.44 L 181.34 130.11 C 180.59 130.73 180.49 131.83 181.10 132.57 C 181.72 133.32 182.82 133.42 183.56 132.81 L 184.37 132.14 C 185.12 131.52 185.22 130.42 184.61 129.67 C 183.99 128.93 182.89 128.83 182.14 129.44 Z M 181.35 130.10 L 180.53 130.76 C 179.78 131.37 179.66 132.47 180.26 133.22 C 180.87 133.97 181.97 134.09 182.72 133.48 L 183.55 132.82 C 184.30 132.21 184.41 131.11 183.81 130.36 C 183.20 129.61 182.10 129.49 181.35 130.10 Z M 180.54 130.76 L 179.72 131.41 C 178.97 132.00 178.84 133.10 179.43 133.85 C 180.03 134.61 181.13 134.74 181.88 134.14 L 182.70 133.49 C 183.46 132.89 183.59 131.80 182.99 131.04 C 182.39 130.29 181.30 130.16 180.54 130.76 Z M 179.74 131.40 L 178.84 132.10 C 178.08 132.69 177.95 133.78 178.54 134.53 C 179.13 135.29 180.22 135.43 180.97 134.84 L 181.87 134.14 C 182.63 133.56 182.76 132.46 182.17 131.71 C 181.58 130.95 180.49 130.81 179.74 131.40 Z M 178.86 132.10 L 177.98 132.77 C 177.23 133.35 177.08 134.43 177.66 135.19 C 178.24 135.95 179.33 136.09 180.08 135.51 L 180.96 134.84 C 181.72 134.26 181.86 133.18 181.28 132.42 C 180.70 131.66 179.61 131.52 178.86 132.10 Z M 178.00 132.77 L 177.17 133.39 C 176.41 133.97 176.26 135.04 176.83 135.80 C 177.41 136.56 178.48 136.71 179.24 136.13 L 180.07 135.51 C 180.82 134.94 180.97 133.86 180.40 133.10 C 179.83 132.35 178.76 132.20 178.00 132.77 Z M 177.19 133.40 L 176.41 133.98 C 175.65 134.54 175.49 135.61 176.06 136.36 C 176.62 137.12 177.69 137.27 178.44 136.71 L 179.22 136.13 C 179.98 135.57 180.13 134.50 179.57 133.75 C 179.01 132.99 177.94 132.83 177.19 133.40 Z M 176.42 133.98 L 175.70 134.51 C 174.95 135.06 174.78 136.12 175.34 136.88 C 175.89 137.63 176.95 137.79 177.71 137.24 L 178.43 136.71 C 179.18 136.16 179.35 135.09 178.79 134.34 C 178.24 133.59 177.18 133.42 176.42 133.98 Z M 175.72 134.51 L 174.97 135.05 C 174.21 135.60 174.05 136.65 174.59 137.40 C 175.14 138.16 176.19 138.32 176.94 137.78 L 177.69 137.24 C 178.45 136.69 178.61 135.64 178.07 134.89 C 177.52 134.13 176.47 133.96 175.72 134.51 Z M 174.99 135.06 L 174.08 135.70 C 173.33 136.23 173.16 137.28 173.69 138.03 C 174.23 138.78 175.27 138.95 176.02 138.42 L 176.92 137.77 C 177.67 137.24 177.85 136.20 177.31 135.45 C 176.78 134.70 175.74 134.52 174.99 135.06 Z M 174.10 135.71 L 173.31 136.27 C 172.57 136.79 172.39 137.82 172.91 138.56 C 173.43 139.31 174.46 139.49 175.21 138.97 L 176.00 138.41 C 176.75 137.88 176.92 136.86 176.40 136.11 C 175.88 135.37 174.85 135.19 174.10 135.71 Z M 173.32 136.28 L 172.59 136.80 C 171.85 137.31 171.68 138.33 172.19 139.07 C 172.71 139.81 173.73 139.98 174.46 139.46 L 175.20 138.95 C 175.93 138.43 176.11 137.42 175.59 136.68 C 175.07 135.94 174.06 135.76 173.32 136.28 Z M 172.59 136.82 L 171.80 137.38 C 171.08 137.90 170.91 138.91 171.43 139.63 C 171.94 140.36 172.95 140.53 173.68 140.01 L 174.47 139.44 C 175.19 138.93 175.36 137.92 174.84 137.19 C 174.32 136.47 173.31 136.30 172.59 136.82 Z M 171.80 137.40 L 170.99 137.98 C 170.27 138.50 170.11 139.50 170.63 140.22 C 171.15 140.93 172.15 141.10 172.87 140.58 L 173.68 139.99 C 174.39 139.47 174.56 138.47 174.04 137.76 C 173.52 137.04 172.52 136.88 171.80 137.40 Z M 171.00 137.99 L 170.19 138.58 C 169.47 139.09 169.31 140.08 169.83 140.79 C 170.34 141.51 171.33 141.67 172.05 141.15 L 172.86 140.57 C 173.57 140.06 173.73 139.06 173.22 138.35 C 172.70 137.64 171.71 137.48 171.00 137.99 Z M 170.20 138.58 L 169.46 139.10 C 168.75 139.61 168.58 140.59 169.09 141.31 C 169.59 142.02 170.58 142.18 171.29 141.68 L 172.03 141.15 C 172.74 140.65 172.91 139.66 172.40 138.95 C 171.90 138.24 170.91 138.07 170.20 138.58 Z M 169.46 139.11 L 168.73 139.64 C 168.02 140.14 167.86 141.12 168.36 141.82 C 168.86 142.53 169.84 142.69 170.55 142.19 L 171.28 141.67 C 171.99 141.17 172.15 140.19 171.65 139.48 C 171.15 138.78 170.17 138.61 169.46 139.11 Z M 168.72 139.66 L 167.90 140.26 C 167.21 140.77 167.06 141.74 167.56 142.43 C 168.07 143.13 169.05 143.28 169.74 142.77 L 170.56 142.17 C 171.25 141.66 171.40 140.69 170.89 139.99 C 170.39 139.30 169.41 139.15 168.72 139.66 Z M 167.88 140.28 L 166.96 140.99 C 166.28 141.51 166.15 142.48 166.67 143.16 C 167.19 143.84 168.16 143.97 168.84 143.45 L 169.76 142.74 C 170.44 142.22 170.57 141.25 170.05 140.57 C 169.53 139.89 168.56 139.77 167.88 140.28 Z M 166.94 141.01 L 166.24 141.57 C 165.58 142.10 165.47 143.07 165.99 143.73 C 166.52 144.40 167.49 144.51 168.16 143.98 L 168.86 143.42 C 169.52 142.90 169.63 141.93 169.10 141.26 C 168.57 140.60 167.61 140.49 166.94 141.01 Z M 166.23 141.59 L 165.48 142.20 C 164.82 142.73 164.72 143.70 165.26 144.35 C 165.79 145.01 166.76 145.11 167.41 144.58 L 168.17 143.96 C 168.82 143.43 168.92 142.46 168.39 141.81 C 167.85 141.15 166.89 141.05 166.23 141.59 Z M 165.47 142.21 L 164.69 142.87 C 164.04 143.40 163.95 144.37 164.49 145.01 C 165.03 145.66 165.99 145.75 166.64 145.21 L 167.42 144.56 C 168.07 144.02 168.16 143.06 167.62 142.41 C 167.08 141.76 166.12 141.67 165.47 142.21 Z M 164.68 142.88 L 163.88 143.56 C 163.24 144.10 163.16 145.06 163.70 145.70 C 164.24 146.34 165.20 146.42 165.84 145.88 L 166.64 145.20 C 167.28 144.66 167.36 143.70 166.82 143.06 C 166.28 142.42 165.32 142.34 164.68 142.88 Z M 163.87 143.57 L 163.07 144.26 C 162.44 144.81 162.37 145.76 162.91 146.39 C 163.46 147.03 164.41 147.10 165.04 146.55 L 165.84 145.86 C 166.48 145.32 166.55 144.37 166.00 143.73 C 165.46 143.10 164.50 143.03 163.87 143.57 Z M 163.07 144.28 L 162.27 144.98 C 161.64 145.53 161.58 146.48 162.13 147.10 C 162.68 147.73 163.63 147.79 164.25 147.24 L 165.05 146.54 C 165.67 145.99 165.74 145.04 165.19 144.42 C 164.64 143.79 163.69 143.73 163.07 144.28 Z M 162.26 145.00 L 161.48 145.70 C 160.87 146.25 160.81 147.20 161.37 147.81 C 161.92 148.42 162.86 148.47 163.48 147.92 L 164.26 147.22 C 164.87 146.67 164.92 145.72 164.37 145.11 C 163.82 144.50 162.88 144.45 162.26 145.00 Z M 161.47 145.72 L 160.72 146.41 C 160.12 146.97 160.08 147.90 160.64 148.51 C 161.19 149.11 162.13 149.15 162.73 148.59 L 163.48 147.90 C 164.08 147.35 164.12 146.41 163.57 145.81 C 163.01 145.21 162.08 145.17 161.47 145.72 Z M 160.72 146.43 L 160.00 147.11 C 159.41 147.67 159.39 148.60 159.95 149.19 C 160.50 149.78 161.43 149.81 162.02 149.25 L 162.74 148.57 C 163.33 148.01 163.36 147.08 162.80 146.49 C 162.24 145.90 161.31 145.87 160.72 146.43 Z M 159.99 147.13 L 159.31 147.80 C 158.73 148.36 158.72 149.29 159.29 149.86 C 159.85 150.44 160.77 150.45 161.35 149.89 L 162.03 149.22 C 162.61 148.66 162.62 147.73 162.06 147.16 C 161.49 146.58 160.57 146.57 159.99 147.13 Z M 159.30 147.82 L 158.62 148.51 C 158.05 149.08 158.06 150.00 158.63 150.57 C 159.20 151.13 160.12 151.12 160.69 150.55 L 161.37 149.87 C 161.93 149.29 161.92 148.37 161.35 147.81 C 160.78 147.25 159.86 147.25 159.30 147.82 Z M 158.59 148.52 L 157.88 149.27 C 157.32 149.86 157.35 150.78 157.93 151.34 C 158.52 151.90 159.45 151.88 160.01 151.29 L 160.72 150.54 C 161.27 149.95 161.25 149.03 160.66 148.47 C 160.08 147.91 159.15 147.93 158.59 148.52 Z M 157.84 149.27 L 157.17 150.01 C 156.61 150.62 156.65 151.56 157.26 152.12 C 157.86 152.67 158.81 152.63 159.36 152.03 L 160.04 151.29 C 160.60 150.68 160.56 149.74 159.95 149.18 C 159.34 148.62 158.40 148.66 157.84 149.27 Z M 157.14 150.01 L 156.48 150.74 C 155.92 151.36 155.97 152.32 156.60 152.88 C 157.22 153.44 158.18 153.39 158.74 152.76 L 159.39 152.03 C 159.95 151.41 159.90 150.45 159.28 149.89 C 158.65 149.33 157.69 149.38 157.14 150.01 Z M 156.45 150.73 L 155.81 151.46 C 155.25 152.10 155.31 153.07 155.94 153.63 C 156.58 154.20 157.56 154.14 158.12 153.50 L 158.76 152.77 C 159.33 152.13 159.27 151.16 158.63 150.60 C 157.99 150.03 157.02 150.09 156.45 150.73 Z M 155.80 151.45 L 155.64 151.63 C 155.07 152.28 155.13 153.26 155.78 153.83 C 156.42 154.39 157.41 154.33 157.98 153.69 L 158.13 153.51 C 158.70 152.86 158.64 151.88 157.99 151.31 C 157.35 150.74 156.36 150.81 155.80 151.45 Z"
      fill="black"
      fill-rule="nonzero" /><path d="M 150.23 138.58 L 150.37 139.62 C 150.49 140.48 151.28 141.08 152.13 140.96 C 152.99 140.85 153.59 140.06 153.47 139.20 L 153.33 138.16 C 153.21 137.30 152.43 136.71 151.57 136.82 C 150.71 136.94 150.11 137.73 150.23 138.58 Z M 150.33 139.64 L 150.47 140.66 C 150.60 141.54 151.41 142.16 152.29 142.03 C 153.17 141.91 153.78 141.10 153.66 140.22 L 153.51 139.19 C 153.39 138.31 152.58 137.70 151.70 137.82 C 150.82 137.94 150.21 138.76 150.33 139.64 Z M 150.43 140.69 L 150.58 141.68 C 150.72 142.58 151.56 143.20 152.46 143.07 C 153.36 142.93 153.98 142.09 153.85 141.19 L 153.70 140.20 C 153.56 139.29 152.72 138.67 151.82 138.81 C 150.92 138.94 150.30 139.78 150.43 140.69 Z M 150.54 141.71 L 150.70 142.66 C 150.85 143.59 151.73 144.21 152.65 144.06 C 153.57 143.91 154.20 143.03 154.05 142.11 L 153.89 141.16 C 153.74 140.24 152.86 139.61 151.94 139.76 C 151.01 139.92 150.39 140.79 150.54 141.71 Z M 150.67 142.71 L 150.85 143.67 C 151.03 144.61 151.94 145.23 152.88 145.05 C 153.82 144.87 154.44 143.96 154.26 143.02 L 154.08 142.06 C 153.90 141.12 152.99 140.50 152.05 140.68 C 151.11 140.86 150.49 141.77 150.67 142.71 Z M 150.85 143.72 L 151.07 144.74 C 151.28 145.69 152.21 146.28 153.16 146.08 C 154.10 145.87 154.70 144.93 154.49 143.99 L 154.26 142.97 C 154.05 142.02 153.12 141.43 152.18 141.63 C 151.23 141.84 150.64 142.78 150.85 143.72 Z M 151.08 144.79 L 151.31 145.74 C 151.55 146.68 152.49 147.25 153.43 147.02 C 154.37 146.79 154.95 145.84 154.72 144.90 L 154.48 143.95 C 154.25 143.01 153.30 142.43 152.36 142.67 C 151.42 142.90 150.85 143.85 151.08 144.79 Z M 151.32 145.76 L 151.55 146.68 C 151.79 147.62 152.75 148.18 153.69 147.94 C 154.62 147.70 155.19 146.75 154.95 145.81 L 154.71 144.89 C 154.47 143.95 153.52 143.38 152.58 143.62 C 151.64 143.86 151.08 144.82 151.32 145.76 Z M 151.55 146.67 L 151.78 147.60 C 152.01 148.54 152.97 149.12 153.91 148.88 C 154.85 148.65 155.42 147.70 155.19 146.76 L 154.96 145.82 C 154.72 144.88 153.77 144.31 152.83 144.54 C 151.89 144.78 151.32 145.73 151.55 146.67 Z M 151.77 147.58 L 152.00 148.54 C 152.22 149.48 153.16 150.07 154.11 149.85 C 155.05 149.62 155.64 148.68 155.42 147.73 L 155.19 146.78 C 154.97 145.83 154.03 145.25 153.08 145.47 C 152.14 145.69 151.55 146.63 151.77 147.58 Z M 151.99 148.52 L 152.21 149.50 C 152.42 150.45 153.36 151.04 154.31 150.83 C 155.26 150.62 155.85 149.68 155.64 148.73 L 155.42 147.75 C 155.21 146.80 154.27 146.21 153.32 146.42 C 152.38 146.63 151.78 147.57 151.99 148.52 Z M 152.21 149.48 L 152.42 150.49 C 152.62 151.44 153.56 152.05 154.51 151.84 C 155.46 151.64 156.07 150.70 155.86 149.75 L 155.65 148.75 C 155.44 147.79 154.51 147.19 153.56 147.39 C 152.61 147.60 152.00 148.53 152.21 149.48 Z M 152.42 150.48 L 152.61 151.43 C 152.81 152.38 153.75 153.00 154.70 152.80 C 155.65 152.60 156.27 151.66 156.07 150.71 L 155.87 149.76 C 155.67 148.81 154.74 148.20 153.78 148.39 C 152.83 148.59 152.22 149.53 152.42 150.48 Z M 152.61 151.42 L 152.81 152.39 C 153.00 153.34 153.93 153.96 154.89 153.77 C 155.84 153.57 156.46 152.64 156.27 151.68 L 156.07 150.72 C 155.88 149.76 154.94 149.15 153.99 149.34 C 153.03 149.53 152.42 150.47 152.61 151.42 Z M 152.80 152.38 L 153.00 153.37 C 153.19 154.33 154.12 154.95 155.08 154.76 C 156.04 154.57 156.66 153.64 156.47 152.68 L 156.27 151.69 C 156.08 150.73 155.15 150.11 154.19 150.30 C 153.23 150.49 152.61 151.42 152.80 152.38 Z M 152.99 153.36 L 153.19 154.38 C 153.37 155.34 154.30 155.97 155.27 155.78 C 156.23 155.60 156.86 154.67 156.67 153.70 L 156.47 152.69 C 156.29 151.73 155.36 151.10 154.40 151.29 C 153.43 151.47 152.81 152.40 152.99 153.36 Z M 153.18 154.37 L 153.37 155.33 C 153.55 156.29 154.48 156.93 155.44 156.74 C 156.40 156.56 157.04 155.63 156.85 154.67 L 156.67 153.71 C 156.49 152.75 155.56 152.11 154.60 152.30 C 153.64 152.48 153.00 153.41 153.18 154.37 Z M 153.36 155.32 L 153.54 156.29 C 153.72 157.26 154.65 157.89 155.61 157.71 C 156.58 157.54 157.22 156.61 157.04 155.64 L 156.86 154.68 C 156.68 153.71 155.75 153.07 154.79 153.25 C 153.82 153.43 153.18 154.36 153.36 155.32 Z M 153.54 156.28 L 153.71 157.27 C 153.89 158.24 154.82 158.88 155.79 158.71 C 156.75 158.53 157.40 157.60 157.22 156.63 L 157.04 155.65 C 156.87 154.68 155.94 154.04 154.97 154.21 C 154.00 154.39 153.36 155.32 153.54 156.28 Z M 153.71 157.26 L 153.89 158.27 C 154.06 159.24 154.99 159.89 155.96 159.72 C 156.93 159.54 157.58 158.62 157.40 157.65 L 157.22 156.64 C 157.05 155.67 156.13 155.02 155.16 155.20 C 154.19 155.37 153.54 156.29 153.71 157.26 Z M 153.89 158.27 L 154.06 159.26 C 154.23 160.23 155.15 160.88 156.13 160.71 C 157.10 160.54 157.75 159.62 157.58 158.65 L 157.41 157.65 C 157.24 156.68 156.31 156.03 155.34 156.20 C 154.37 156.37 153.72 157.29 153.89 158.27 Z M 154.05 159.25 L 154.22 160.22 C 154.39 161.19 155.31 161.85 156.29 161.68 C 157.26 161.52 157.92 160.59 157.75 159.62 L 157.58 158.65 C 157.42 157.68 156.49 157.02 155.52 157.19 C 154.54 157.35 153.89 158.28 154.05 159.25 Z M 154.22 160.21 L 154.38 161.19 C 154.54 162.17 155.46 162.83 156.44 162.67 C 157.42 162.51 158.08 161.58 157.92 160.61 L 157.75 159.62 C 157.59 158.65 156.67 157.99 155.69 158.15 C 154.71 158.31 154.05 159.24 154.22 160.21 Z M 154.37 161.18 L 154.53 162.18 C 154.69 163.16 155.61 163.83 156.59 163.67 C 157.57 163.51 158.24 162.59 158.08 161.61 L 157.92 160.61 C 157.76 159.64 156.84 158.97 155.86 159.13 C 154.88 159.28 154.22 160.21 154.37 161.18 Z M 154.53 162.17 L 154.69 163.18 C 154.84 164.16 155.76 164.83 156.74 164.68 C 157.72 164.53 158.39 163.61 158.24 162.63 L 158.08 161.62 C 157.93 160.64 157.01 159.97 156.03 160.12 C 155.05 160.27 154.38 161.19 154.53 162.17 Z M 154.68 163.17 L 154.83 164.15 C 154.97 165.13 155.89 165.81 156.87 165.67 C 157.86 165.52 158.54 164.60 158.39 163.62 L 158.25 162.64 C 158.10 161.66 157.18 160.98 156.20 161.12 C 155.22 161.27 154.54 162.18 154.68 163.17 Z M 154.82 164.13 L 154.96 165.10 C 155.10 166.09 156.01 166.77 157.00 166.64 C 157.98 166.50 158.67 165.58 158.53 164.60 L 158.39 163.63 C 158.26 162.64 157.34 161.96 156.36 162.10 C 155.37 162.24 154.68 163.15 154.82 164.13 Z M 154.95 165.09 L 155.08 166.07 C 155.22 167.06 156.13 167.75 157.11 167.62 C 158.10 167.49 158.80 166.58 158.67 165.59 L 158.53 164.61 C 158.40 163.62 157.49 162.93 156.51 163.06 C 155.52 163.19 154.82 164.10 154.95 165.09 Z M 155.08 166.06 L 155.21 167.06 C 155.33 168.05 156.24 168.75 157.23 168.62 C 158.22 168.50 158.92 167.59 158.80 166.60 L 158.67 165.60 C 158.55 164.61 157.64 163.91 156.65 164.04 C 155.66 164.16 154.96 165.07 155.08 166.06 Z M 155.20 167.04 L 155.32 168.06 C 155.44 169.06 156.34 169.77 157.34 169.65 C 158.33 169.53 159.04 168.63 158.92 167.63 L 158.80 166.62 C 158.68 165.62 157.78 164.91 156.79 165.03 C 155.79 165.15 155.08 166.05 155.20 167.04 Z M 155.32 168.05 L 155.43 169.06 C 155.54 170.06 156.44 170.77 157.44 170.66 C 158.43 170.55 159.15 169.65 159.04 168.66 L 158.93 167.65 C 158.81 166.65 157.92 165.93 156.92 166.05 C 155.93 166.16 155.21 167.05 155.32 168.05 Z M 155.43 169.05 L 155.53 170.04 C 155.64 171.04 156.53 171.77 157.53 171.66 C 158.53 171.56 159.25 170.67 159.15 169.67 L 159.04 168.67 C 158.94 167.67 158.04 166.95 157.05 167.05 C 156.05 167.16 155.32 168.05 155.43 169.05 Z M 155.53 170.03 L 155.63 171.04 C 155.72 172.04 156.61 172.77 157.61 172.67 C 158.61 172.57 159.35 171.68 159.25 170.68 L 159.15 169.68 C 159.05 168.68 158.16 167.95 157.16 168.05 C 156.16 168.14 155.43 169.03 155.53 170.03 Z M 155.62 171.03 L 155.71 172.03 C 155.81 173.04 156.69 173.77 157.70 173.68 C 158.70 173.59 159.44 172.70 159.34 171.70 L 159.25 170.70 C 159.16 169.69 158.27 168.96 157.27 169.05 C 156.27 169.14 155.53 170.03 155.62 171.03 Z M 155.71 172.02 L 155.80 173.02 C 155.88 174.02 156.76 174.77 157.77 174.68 C 158.77 174.60 159.52 173.71 159.43 172.71 L 159.35 171.71 C 159.26 170.71 158.38 169.96 157.37 170.05 C 156.37 170.13 155.63 171.02 155.71 172.02 Z M 155.79 173.01 L 155.87 173.99 C 155.95 174.99 156.83 175.74 157.83 175.67 C 158.84 175.59 159.59 174.71 159.51 173.70 L 159.44 172.72 C 159.36 171.72 158.48 170.96 157.47 171.04 C 156.47 171.12 155.71 172.00 155.79 173.01 Z M 155.87 173.97 L 155.94 175.01 C 156.01 176.02 156.89 176.78 157.89 176.70 C 158.90 176.63 159.66 175.76 159.59 174.75 L 159.52 173.71 C 159.44 172.71 158.57 171.95 157.56 172.02 C 156.55 172.09 155.79 172.97 155.87 173.97 Z M 155.94 174.99 L 156.00 176.01 C 156.06 177.01 156.93 177.78 157.94 177.72 C 158.95 177.66 159.72 176.79 159.65 175.78 L 159.59 174.77 C 159.53 173.76 158.66 172.99 157.65 173.05 C 156.64 173.12 155.87 173.98 155.94 174.99 Z M 156.00 175.99 L 156.05 176.98 C 156.10 177.99 156.97 178.77 157.98 178.71 C 158.99 178.66 159.76 177.80 159.71 176.79 L 159.66 175.79 C 159.60 174.78 158.74 174.01 157.73 174.06 C 156.72 174.11 155.94 174.98 156.00 175.99 Z M 156.05 176.96 L 156.09 177.94 C 156.13 178.95 156.99 179.74 158.00 179.70 C 159.01 179.65 159.80 178.80 159.76 177.78 L 159.71 176.80 C 159.67 175.79 158.81 175.01 157.80 175.05 C 156.79 175.09 156.00 175.95 156.05 176.96 Z M 156.08 177.92 L 156.12 178.90 C 156.15 179.91 157.00 180.71 158.01 180.67 C 159.03 180.64 159.82 179.79 159.79 178.78 L 159.76 177.80 C 159.73 176.79 158.88 175.99 157.86 176.03 C 156.85 176.06 156.05 176.91 156.08 177.92 Z M 156.11 178.88 L 156.14 179.89 C 156.16 180.91 157.00 181.71 158.02 181.69 C 159.03 181.67 159.84 180.82 159.82 179.81 L 159.79 178.80 C 159.77 177.78 158.93 176.97 157.91 177.00 C 156.90 177.02 156.09 177.86 156.11 178.88 Z M 156.13 179.87 L 156.15 180.88 C 156.16 181.90 157.00 182.71 158.01 182.70 C 159.03 182.69 159.84 181.85 159.83 180.83 L 159.82 179.82 C 159.80 178.81 158.97 177.99 157.95 178.01 C 156.93 178.02 156.12 178.86 156.13 179.87 Z M 156.15 180.87 L 156.15 181.87 C 156.16 182.89 156.99 183.71 158.01 183.70 C 159.03 183.70 159.84 182.87 159.84 181.85 L 159.83 180.85 C 159.83 179.83 158.99 179.01 157.98 179.02 C 156.96 179.02 156.14 179.85 156.15 180.87 Z M 156.15 181.86 L 156.15 182.86 C 156.16 183.88 156.98 184.70 158.00 184.70 C 159.02 184.69 159.84 183.87 159.84 182.85 L 159.84 181.86 C 159.84 180.84 159.01 180.01 157.99 180.02 C 156.97 180.02 156.15 180.85 156.15 181.86 Z M 156.15 182.85 L 156.15 183.84 C 156.15 184.86 156.98 185.69 158.00 185.69 C 159.02 185.69 159.84 184.86 159.84 183.84 L 159.84 182.85 C 159.84 181.83 159.02 181.01 158.00 181.01 C 156.98 181.01 156.15 181.83 156.15 182.85 Z M 156.15 183.84 L 156.15 184.87 C 156.15 185.89 156.98 186.72 158.00 186.72 C 159.02 186.72 159.85 185.89 159.85 184.87 L 159.85 183.84 C 159.85 182.82 159.02 181.99 158.00 181.99 C 156.98 181.99 156.15 182.82 156.15 183.84 Z M 156.15 184.87 L 156.15 185.88 C 156.15 186.90 156.98 187.73 158.00 187.73 C 159.02 187.73 159.85 186.90 159.85 185.88 L 159.85 184.87 C 159.85 183.85 159.02 183.02 158.00 183.02 C 156.98 183.02 156.15 183.85 156.15 184.87 Z M 156.15 185.88 L 156.15 186.87 C 156.15 187.89 156.98 188.72 158.00 188.72 C 159.02 188.72 159.85 187.89 159.85 186.87 L 159.85 185.88 C 159.85 184.86 159.02 184.03 158.00 184.03 C 156.98 184.03 156.15 184.86 156.15 185.88 Z M 156.15 186.87 L 156.15 187.85 C 156.15 188.87 156.98 189.70 158.00 189.70 C 159.02 189.70 159.85 188.87 159.85 187.85 L 159.85 186.87 C 159.85 185.85 159.02 185.02 158.00 185.02 C 156.98 185.02 156.15 185.85 156.15 186.87 Z M 156.15 187.85 L 156.15 188.86 C 156.15 189.88 156.97 190.71 158.00 190.71 C 159.02 190.71 159.85 189.89 159.85 188.86 L 159.85 187.85 C 159.85 186.82 159.02 186.00 158.00 186.00 C 156.98 185.99 156.15 186.82 156.15 187.85 Z M 156.15 188.86 L 156.14 189.88 C 156.14 190.91 156.97 191.74 157.99 191.74 C 159.01 191.74 159.85 190.92 159.85 189.89 L 159.85 188.87 C 159.85 187.84 159.03 187.01 158.00 187.01 C 156.98 187.01 156.15 187.83 156.15 188.86 Z M 156.14 189.87 L 156.13 190.88 C 156.12 191.90 156.95 192.74 157.97 192.74 C 158.99 192.75 159.83 191.93 159.84 190.91 L 159.85 189.90 C 159.86 188.88 159.03 188.04 158.01 188.04 C 156.99 188.03 156.15 188.85 156.14 189.87 Z M 156.13 190.86 L 156.11 191.83 C 156.10 192.85 156.91 193.70 157.93 193.72 C 158.96 193.74 159.80 192.92 159.82 191.90 L 159.84 190.93 C 159.86 189.90 159.05 189.06 158.02 189.04 C 157.00 189.02 156.15 189.83 156.13 190.86 Z M 156.11 191.80 L 156.08 192.75 C 156.05 193.78 156.85 194.63 157.87 194.67 C 158.90 194.70 159.76 193.90 159.79 192.88 L 159.82 191.93 C 159.86 190.90 159.06 190.04 158.03 190.01 C 157.01 189.98 156.15 190.78 156.11 191.80 Z M 156.08 192.70 L 156.03 193.65 C 155.97 194.67 156.75 195.55 157.77 195.61 C 158.79 195.68 159.67 194.90 159.73 193.87 L 159.79 192.93 C 159.85 191.90 159.07 191.02 158.05 190.96 C 157.02 190.90 156.15 191.68 156.08 192.70 Z M 156.03 193.58 L 155.94 194.54 C 155.84 195.56 156.58 196.47 157.60 196.57 C 158.62 196.68 159.53 195.93 159.63 194.91 L 159.73 193.95 C 159.83 192.93 159.08 192.02 158.06 191.91 C 157.04 191.81 156.13 192.56 156.03 193.58 Z M 155.95 194.45 L 155.80 195.48 C 155.64 196.49 156.34 197.44 157.36 197.59 C 158.37 197.74 159.32 197.04 159.47 196.02 L 159.62 195.00 C 159.77 193.99 159.07 193.04 158.06 192.89 C 157.04 192.74 156.10 193.44 155.95 194.45 Z M 155.81 195.39 L 155.61 196.42 C 155.41 197.42 156.06 198.40 157.07 198.60 C 158.08 198.80 159.05 198.14 159.25 197.14 L 159.45 196.11 C 159.65 195.10 159.00 194.13 157.99 193.93 C 156.99 193.73 156.01 194.38 155.81 195.39 Z M 155.62 196.34 L 155.39 197.31 C 155.15 198.31 155.77 199.31 156.76 199.55 C 157.76 199.79 158.76 199.18 159.00 198.18 L 159.23 197.21 C 159.47 196.21 158.86 195.21 157.86 194.97 C 156.87 194.73 155.86 195.34 155.62 196.34 Z M 155.41 197.24 L 155.13 198.23 C 154.85 199.22 155.42 200.24 156.41 200.52 C 157.39 200.80 158.42 200.23 158.70 199.24 L 158.98 198.25 C 159.26 197.26 158.69 196.24 157.70 195.96 C 156.72 195.68 155.69 196.25 155.41 197.24 Z M 155.15 198.15 L 154.83 199.13 C 154.50 200.10 155.03 201.15 156.00 201.48 C 156.97 201.80 158.02 201.28 158.35 200.30 L 158.68 199.33 C 159.00 198.35 158.48 197.30 157.50 196.98 C 156.53 196.65 155.48 197.18 155.15 198.15 Z M 154.86 199.02 L 154.49 199.95 C 154.11 200.90 154.58 201.98 155.53 202.36 C 156.48 202.74 157.56 202.28 157.94 201.33 L 158.31 200.40 C 158.69 199.45 158.23 198.37 157.28 197.99 C 156.33 197.61 155.25 198.07 154.86 199.02 Z M 154.56 199.81 L 154.09 200.75 C 153.63 201.66 154.00 202.78 154.92 203.24 C 155.83 203.70 156.95 203.33 157.41 202.41 L 157.88 201.47 C 158.34 200.55 157.97 199.44 157.05 198.98 C 156.13 198.52 155.02 198.89 154.56 199.81 Z M 154.21 200.54 L 153.60 201.45 C 153.02 202.30 153.25 203.45 154.10 204.03 C 154.95 204.60 156.10 204.37 156.68 203.52 L 157.29 202.61 C 157.86 201.76 157.63 200.61 156.78 200.04 C 155.93 199.47 154.78 199.69 154.21 200.54 Z M 153.79 201.21 L 153.12 201.92 C 152.42 202.66 152.45 203.83 153.19 204.54 C 153.93 205.24 155.11 205.21 155.81 204.47 L 156.48 203.76 C 157.19 203.02 157.16 201.85 156.41 201.14 C 155.67 200.44 154.50 200.47 153.79 201.21 Z M 153.40 201.68 L 152.68 202.18 C 151.84 202.77 151.64 203.93 152.22 204.76 C 152.81 205.60 153.97 205.80 154.80 205.22 L 155.53 204.71 C 156.37 204.12 156.57 202.97 155.98 202.13 C 155.40 201.29 154.24 201.09 153.40 201.68 Z M 153.07 201.98 L 152.19 202.33 C 151.24 202.70 150.77 203.77 151.14 204.72 C 151.51 205.67 152.58 206.14 153.53 205.77 L 154.41 205.42 C 155.36 205.05 155.83 203.98 155.46 203.03 C 155.09 202.08 154.02 201.61 153.07 201.98 Z M 152.65 202.22 L 151.68 202.34 C 150.67 202.45 149.95 203.36 150.06 204.37 C 150.18 205.37 151.09 206.09 152.09 205.98 L 153.07 205.87 C 154.07 205.75 154.80 204.84 154.68 203.84 C 154.56 202.83 153.66 202.11 152.65 202.22 Z M 152.11 202.35 L 151.11 202.23 C 150.11 202.11 149.20 202.81 149.08 203.81 C 148.96 204.81 149.67 205.72 150.66 205.84 L 151.66 205.96 C 152.66 206.09 153.57 205.38 153.69 204.38 C 153.81 203.38 153.10 202.47 152.11 202.35 Z M 151.44 202.33 L 150.55 202.04 C 149.61 201.73 148.60 202.24 148.29 203.19 C 147.98 204.13 148.50 205.14 149.44 205.45 L 150.33 205.74 C 151.27 206.05 152.28 205.53 152.59 204.59 C 152.90 203.65 152.39 202.64 151.44 202.33 Z M 150.77 202.17 L 149.95 201.76 C 149.09 201.33 148.03 201.69 147.60 202.55 C 147.17 203.42 147.53 204.47 148.39 204.90 L 149.22 205.31 C 150.08 205.74 151.13 205.39 151.57 204.52 C 152.00 203.66 151.64 202.60 150.77 202.17 Z M 150.09 201.90 L 149.24 201.36 C 148.44 200.85 147.39 201.09 146.89 201.88 C 146.38 202.68 146.62 203.73 147.41 204.23 L 148.26 204.77 C 149.05 205.28 150.11 205.04 150.61 204.25 C 151.12 203.45 150.88 202.40 150.09 201.90 Z M 149.31 201.47 L 148.42 200.80 C 147.68 200.26 146.65 200.41 146.10 201.15 C 145.56 201.88 145.71 202.92 146.45 203.46 L 147.34 204.13 C 148.07 204.67 149.11 204.52 149.66 203.78 C 150.20 203.05 150.05 202.01 149.31 201.47 Z M 148.45 200.88 L 147.66 200.24 C 146.97 199.68 145.95 199.79 145.39 200.48 C 144.83 201.18 144.94 202.19 145.63 202.76 L 146.42 203.39 C 147.11 203.95 148.13 203.84 148.69 203.15 C 149.25 202.46 149.14 201.44 148.45 200.88 Z M 147.67 200.29 L 146.90 199.64 C 146.24 199.07 145.24 199.15 144.67 199.82 C 144.10 200.49 144.19 201.49 144.85 202.05 L 145.62 202.71 C 146.29 203.27 147.29 203.19 147.85 202.53 C 148.42 201.86 148.34 200.86 147.67 200.29 Z M 146.91 199.68 L 146.13 199.00 C 145.49 198.43 144.50 198.49 143.93 199.14 C 143.37 199.79 143.43 200.77 144.08 201.34 L 144.85 202.02 C 145.50 202.58 146.48 202.52 147.05 201.87 C 147.62 201.23 147.55 200.24 146.91 199.68 Z M 146.13 199.03 L 145.37 198.35 C 144.74 197.78 143.77 197.83 143.21 198.46 C 142.64 199.09 142.70 200.06 143.32 200.62 L 144.08 201.30 C 144.71 201.87 145.68 201.82 146.24 201.19 C 146.81 200.56 146.75 199.59 146.13 199.03 Z M 145.36 198.38 L 144.64 197.72 C 144.03 197.16 143.08 197.20 142.52 197.81 C 141.96 198.42 142.00 199.37 142.61 199.93 L 143.33 200.59 C 143.94 201.15 144.89 201.11 145.45 200.50 C 146.01 199.89 145.97 198.94 145.36 198.38 Z M 144.63 197.74 L 143.83 197.00 C 143.23 196.44 142.29 196.48 141.74 197.07 C 141.18 197.67 141.22 198.61 141.82 199.16 L 142.62 199.91 C 143.22 200.46 144.15 200.43 144.71 199.83 C 145.26 199.23 145.23 198.30 144.63 197.74 Z M 143.83 197.02 L 143.09 196.31 C 142.50 195.76 141.58 195.78 141.02 196.37 C 140.46 196.95 140.48 197.88 141.07 198.44 L 141.81 199.14 C 142.40 199.70 143.33 199.67 143.88 199.09 C 144.44 198.50 144.42 197.58 143.83 197.02 Z M 143.10 196.34 L 142.42 195.67 C 141.85 195.11 140.93 195.11 140.37 195.68 C 139.80 196.25 139.81 197.17 140.38 197.73 L 141.06 198.41 C 141.63 198.97 142.55 198.96 143.11 198.39 C 143.67 197.83 143.67 196.91 143.10 196.34 Z M 142.44 195.71 L 141.80 195.04 C 141.25 194.47 140.34 194.45 139.77 195.00 C 139.20 195.55 139.18 196.46 139.72 197.03 L 140.36 197.69 C 140.91 198.27 141.82 198.29 142.39 197.74 C 142.96 197.19 142.98 196.28 142.44 195.71 Z M 141.86 195.05 L 141.19 194.31 C 140.65 193.70 139.72 193.65 139.11 194.20 C 138.51 194.74 138.46 195.67 139.00 196.27 L 139.67 197.02 C 140.21 197.62 141.14 197.67 141.74 197.13 C 142.35 196.59 142.40 195.66 141.86 195.05 Z M 141.28 194.28 L 140.63 193.52 C 140.08 192.87 139.09 192.79 138.44 193.34 C 137.78 193.90 137.70 194.88 138.26 195.54 L 138.91 196.30 C 139.46 196.96 140.45 197.04 141.10 196.48 C 141.76 195.92 141.84 194.94 141.28 194.28 Z M 140.72 193.49 L 140.09 192.71 C 139.51 192.01 138.47 191.91 137.77 192.49 C 137.07 193.06 136.96 194.10 137.54 194.80 L 138.17 195.57 C 138.75 196.28 139.79 196.38 140.49 195.80 C 141.19 195.22 141.30 194.19 140.72 193.49 Z M 140.15 192.68 L 139.75 192.19 C 139.16 191.45 138.07 191.34 137.34 191.94 C 136.60 192.53 136.49 193.62 137.08 194.35 L 137.48 194.84 C 138.08 195.58 139.16 195.69 139.90 195.09 C 140.63 194.50 140.75 193.41 140.15 192.68 Z"
      fill="black"
      fill-rule="nonzero" /></svg>