<svg xmlns="http://www.w3.org/2000/svg" width="300" height="300" viewBox="0 0 300 300">
<path d="M 141.87 104.64 L 140.89 104.39 C 140.01 104.17 139.12 104.69 138.90 105.57 C 138.67 106.44 139.20 107.33 140.07 107.55 L 141.06 107.81 C 141.93 108.03 142.82 107.50 143.04 106.63 C 143.27 105.76 142.74 104.87 141.87 104.64 Z M 140.77 104.33 L 139.79 104.15 C 138.88 103.99 138.02 104.60 137.85 105.51 C 137.69 106.41 138.30 107.28 139.21 107.44 L 140.19 107.62 C 141.09 107.78 141.96 107.17 142.12 106.26 C 142.28 105.36 141.68 104.49 140.77 104.33 Z M 139.53 104.09 L 138.55 104.07 C 137.61 104.05 136.83 104.80 136.81 105.74 C 136.79 106.68 137.54 107.46 138.48 107.48 L 139.46 107.50 C 140.40 107.52 141.18 106.77 141.20 105.83 C 141.22 104.89 140.47 104.11 139.53 104.09 Z M 138.18 104.08 L 137.27 104.26 C 136.33 104.45 135.73 105.36 135.92 106.30 C 136.10 107.24 137.01 107.84 137.95 107.65 L 138.86 107.47 C 139.79 107.28 140.40 106.37 140.21 105.44 C 140.02 104.50 139.11 103.89 138.18 104.08 Z M 136.95 104.36 L 136.11 104.71 C 135.23 105.07 134.81 106.08 135.18 106.97 C 135.54 107.85 136.55 108.27 137.43 107.90 L 138.27 107.56 C 139.15 107.19 139.57 106.18 139.21 105.30 C 138.84 104.42 137.83 104.00 136.95 104.36 Z M 135.93 104.81 L 135.07 105.29 C 134.25 105.75 133.95 106.80 134.41 107.63 C 134.88 108.45 135.92 108.75 136.75 108.29 L 137.61 107.80 C 138.44 107.34 138.74 106.29 138.27 105.47 C 137.81 104.64 136.76 104.34 135.93 104.81 Z M 134.99 105.35 L 134.09 105.94 C 133.29 106.45 133.07 107.50 133.58 108.29 C 134.09 109.09 135.14 109.31 135.93 108.80 L 136.84 108.22 C 137.63 107.71 137.86 106.66 137.35 105.86 C 136.84 105.07 135.78 104.84 134.99 105.35 Z M 134.06 105.96 L 133.16 106.57 C 132.38 107.09 132.17 108.15 132.69 108.92 C 133.21 109.70 134.27 109.91 135.04 109.39 L 135.95 108.78 C 136.73 108.26 136.94 107.20 136.42 106.43 C 135.89 105.65 134.84 105.44 134.06 105.96 Z M 133.16 106.58 L 132.31 107.15 C 131.53 107.66 131.33 108.71 131.84 109.49 C 132.36 110.26 133.41 110.47 134.18 109.95 L 135.04 109.38 C 135.81 108.87 136.02 107.82 135.50 107.04 C 134.99 106.27 133.94 106.06 133.16 106.58 Z M 132.32 107.15 L 131.45 107.73 C 130.68 108.24 130.47 109.28 130.98 110.05 C 131.49 110.83 132.54 111.04 133.31 110.53 L 134.17 109.95 C 134.95 109.44 135.16 108.39 134.65 107.62 C 134.13 106.85 133.09 106.64 132.32 107.15 Z M 131.45 107.73 L 130.60 108.29 C 129.83 108.80 129.62 109.84 130.13 110.61 C 130.64 111.38 131.68 111.59 132.45 111.08 L 133.30 110.52 C 134.07 110.01 134.28 108.97 133.77 108.20 C 133.26 107.43 132.23 107.22 131.45 107.73 Z M 130.61 108.30 L 129.80 108.83 C 129.04 109.34 128.83 110.38 129.33 111.14 C 129.84 111.91 130.88 112.12 131.64 111.61 L 132.45 111.08 C 133.22 110.57 133.43 109.53 132.92 108.77 C 132.41 108.00 131.38 107.79 130.61 108.30 Z M 129.80 108.84 L 128.94 109.41 C 128.18 109.92 127.98 110.95 128.48 111.72 C 128.99 112.48 130.02 112.68 130.79 112.18 L 131.64 111.60 C 132.41 111.10 132.61 110.06 132.10 109.30 C 131.60 108.54 130.57 108.33 129.80 108.84 Z M 128.94 109.42 L 128.06 110.02 C 127.30 110.53 127.10 111.56 127.61 112.31 C 128.12 113.07 129.14 113.27 129.90 112.76 L 130.79 112.17 C 131.55 111.66 131.75 110.63 131.24 109.87 C 130.73 109.11 129.70 108.91 128.94 109.42 Z M 128.06 110.03 L 127.27 110.56 C 126.51 111.07 126.32 112.09 126.82 112.84 C 127.33 113.60 128.36 113.80 129.11 113.29 L 129.90 112.76 C 130.65 112.25 130.85 111.22 130.34 110.47 C 129.84 109.72 128.81 109.52 128.06 110.03 Z M 127.28 110.56 L 126.53 111.06 C 125.78 111.57 125.58 112.59 126.08 113.34 C 126.59 114.09 127.60 114.29 128.36 113.79 L 129.10 113.29 C 129.85 112.78 130.05 111.76 129.55 111.01 C 129.05 110.26 128.03 110.06 127.28 110.56 Z M 126.54 111.06 L 125.80 111.56 C 125.04 112.05 124.84 113.07 125.34 113.82 C 125.84 114.57 126.85 114.78 127.60 114.28 L 128.35 113.79 C 129.10 113.29 129.30 112.27 128.81 111.52 C 128.31 110.77 127.29 110.56 126.54 111.06 Z M 125.80 111.56 L 125.01 112.08 C 124.26 112.57 124.05 113.59 124.54 114.34 C 125.04 115.09 126.05 115.30 126.80 114.80 L 127.60 114.28 C 128.35 113.78 128.56 112.77 128.06 112.02 C 127.56 111.27 126.55 111.06 125.80 111.56 Z M 125.01 112.08 L 124.13 112.66 C 123.38 113.16 123.17 114.17 123.67 114.92 C 124.16 115.67 125.17 115.88 125.92 115.38 L 126.80 114.80 C 127.55 114.30 127.76 113.29 127.26 112.54 C 126.77 111.79 125.76 111.59 125.01 112.08 Z M 124.12 112.67 L 123.25 113.25 C 122.50 113.75 122.30 114.76 122.79 115.51 C 123.29 116.26 124.30 116.46 125.05 115.96 L 125.92 115.38 C 126.67 114.88 126.87 113.87 126.38 113.12 C 125.88 112.38 124.87 112.17 124.12 112.67 Z M 123.24 113.26 L 122.44 113.79 C 121.70 114.29 121.50 115.30 122.00 116.05 C 122.50 116.79 123.51 116.99 124.25 116.49 L 125.05 115.96 C 125.80 115.46 125.99 114.45 125.50 113.70 C 125.00 112.96 123.99 112.76 123.24 113.26 Z M 122.44 113.79 L 121.60 114.36 C 120.86 114.86 120.66 115.87 121.16 116.61 C 121.66 117.35 122.66 117.55 123.41 117.05 L 124.25 116.49 C 125.00 115.99 125.19 114.98 124.70 114.24 C 124.20 113.49 123.19 113.30 122.44 113.79 Z M 121.60 114.36 L 120.74 114.93 C 120.00 115.43 119.80 116.44 120.29 117.18 C 120.79 117.93 121.80 118.13 122.54 117.63 L 123.41 117.06 C 124.15 116.56 124.35 115.55 123.85 114.81 C 123.36 114.06 122.35 113.86 121.60 114.36 Z M 120.75 114.93 L 119.89 115.50 C 119.15 115.99 118.94 117.00 119.44 117.74 C 119.93 118.49 120.94 118.69 121.68 118.20 L 122.54 117.63 C 123.28 117.14 123.49 116.13 122.99 115.39 C 122.50 114.64 121.49 114.44 120.75 114.93 Z M 119.90 115.50 L 119.01 116.08 C 118.26 116.57 118.06 117.57 118.54 118.32 C 119.03 119.06 120.03 119.27 120.78 118.78 L 121.67 118.20 C 122.42 117.71 122.63 116.71 122.14 115.97 C 121.65 115.22 120.65 115.01 119.90 115.50 Z M 119.02 116.08 L 118.14 116.65 C 117.39 117.14 117.18 118.13 117.66 118.88 C 118.14 119.62 119.13 119.84 119.88 119.36 L 120.77 118.78 C 121.51 118.30 121.73 117.31 121.25 116.56 C 120.77 115.82 119.77 115.60 119.02 116.08 Z M 118.15 116.66 L 117.31 117.20 C 116.56 117.67 116.35 118.66 116.82 119.40 C 117.30 120.15 118.28 120.36 119.03 119.89 L 119.87 119.35 C 120.61 118.88 120.83 117.89 120.36 117.15 C 119.88 116.40 118.89 116.18 118.15 116.66 Z M 117.32 117.20 L 116.52 117.71 C 115.78 118.18 115.56 119.16 116.03 119.90 C 116.50 120.64 117.48 120.86 118.22 120.39 L 119.02 119.88 C 119.76 119.41 119.98 118.43 119.51 117.69 C 119.04 116.95 118.06 116.73 117.32 117.20 Z M 116.52 117.72 L 115.61 118.29 C 114.87 118.76 114.65 119.74 115.12 120.47 C 115.58 121.21 116.56 121.43 117.30 120.96 L 118.21 120.38 C 118.95 119.92 119.17 118.94 118.70 118.20 C 118.23 117.47 117.26 117.25 116.52 117.72 Z M 115.58 118.32 L 114.52 119.02 C 113.79 119.50 113.59 120.48 114.07 121.20 C 114.55 121.93 115.53 122.13 116.25 121.65 L 117.32 120.94 C 118.04 120.46 118.24 119.49 117.76 118.76 C 117.28 118.04 116.31 117.84 115.58 118.32 Z M 114.34 119.16 L 113.82 119.63 C 113.17 120.21 113.11 121.20 113.69 121.84 C 114.26 122.49 115.25 122.55 115.90 121.97 L 116.42 121.51 C 117.07 120.93 117.13 119.94 116.56 119.30 C 115.98 118.65 114.99 118.59 114.34 119.16 Z M 114.36 122.29 L 114.70 122.41 C 115.52 122.68 116.41 122.24 116.68 121.41 C 116.96 120.59 116.52 119.70 115.69 119.42 L 115.36 119.31 C 114.53 119.04 113.64 119.48 113.37 120.30 C 113.09 121.13 113.54 122.02 114.36 122.29 Z M 115.45 122.49 L 116.53 122.31 C 117.40 122.17 117.99 121.35 117.85 120.48 C 117.71 119.61 116.89 119.03 116.02 119.17 L 114.94 119.34 C 114.07 119.48 113.48 120.30 113.62 121.17 C 113.76 122.04 114.58 122.63 115.45 122.49 Z M 116.56 122.33 L 117.83 122.11 C 118.71 121.95 119.29 121.11 119.14 120.22 C 118.98 119.34 118.13 118.76 117.25 118.92 L 115.99 119.14 C 115.11 119.30 114.52 120.15 114.68 121.03 C 114.84 121.91 115.68 122.49 116.56 122.33 Z M 117.70 122.16 L 118.75 122.06 C 119.66 121.97 120.33 121.16 120.24 120.25 C 120.15 119.33 119.34 118.67 118.43 118.76 L 117.38 118.86 C 116.47 118.95 115.80 119.76 115.89 120.67 C 115.98 121.59 116.79 122.25 117.70 122.16 Z M 118.40 122.10 L 119.36 122.21 C 120.30 122.31 121.14 121.64 121.24 120.70 C 121.34 119.76 120.67 118.92 119.73 118.82 L 118.77 118.71 C 117.84 118.61 117.00 119.29 116.89 120.22 C 116.79 121.16 117.47 122.00 118.40 122.10 Z M 118.72 122.06 L 119.48 122.46 C 120.34 122.92 121.39 122.59 121.85 121.74 C 122.30 120.89 121.98 119.83 121.13 119.38 L 120.37 118.97 C 119.52 118.52 118.46 118.84 118.01 119.69 C 117.55 120.54 117.87 121.60 118.72 122.06 Z M 118.91 122.02 L 119.40 122.63 C 120.01 123.40 121.12 123.54 121.89 122.93 C 122.66 122.32 122.79 121.21 122.19 120.44 L 121.70 119.82 C 121.09 119.05 119.98 118.92 119.21 119.53 C 118.44 120.13 118.31 121.25 118.91 122.02 Z M 119.15 122.25 L 119.53 123.11 C 119.92 124.01 120.97 124.43 121.88 124.03 C 122.78 123.64 123.20 122.59 122.81 121.68 L 122.43 120.82 C 122.04 119.92 120.99 119.50 120.08 119.90 C 119.17 120.29 118.76 121.34 119.15 122.25 Z M 119.42 122.85 L 119.70 123.93 C 119.96 124.89 120.94 125.47 121.90 125.21 C 122.87 124.96 123.44 123.98 123.19 123.01 L 122.91 121.94 C 122.66 120.97 121.67 120.40 120.71 120.65 C 119.75 120.90 119.17 121.89 119.42 122.85 Z M 119.66 123.77 L 119.86 124.96 C 120.03 125.95 120.97 126.61 121.95 126.44 C 122.94 126.28 123.61 125.34 123.44 124.35 L 123.24 123.17 C 123.07 122.18 122.13 121.51 121.14 121.68 C 120.15 121.85 119.49 122.79 119.66 123.77 Z M 119.84 124.88 L 119.96 125.87 C 120.09 126.87 121.00 127.58 122.00 127.45 C 123.00 127.33 123.71 126.42 123.58 125.42 L 123.46 124.43 C 123.34 123.43 122.42 122.72 121.42 122.84 C 120.42 122.97 119.71 123.88 119.84 124.88 Z M 119.95 125.82 L 120.05 126.85 C 120.15 127.86 121.04 128.60 122.05 128.50 C 123.06 128.40 123.79 127.51 123.69 126.50 L 123.59 125.47 C 123.49 124.46 122.60 123.72 121.59 123.82 C 120.59 123.92 119.85 124.81 119.95 125.82 Z M 120.04 126.82 L 120.12 127.86 C 120.20 128.87 121.09 129.63 122.09 129.55 C 123.10 129.47 123.86 128.59 123.78 127.58 L 123.70 126.54 C 123.62 125.53 122.74 124.77 121.73 124.85 C 120.72 124.93 119.97 125.81 120.04 126.82 Z M 120.12 127.84 L 120.18 128.85 C 120.24 129.87 121.12 130.64 122.13 130.57 C 123.14 130.51 123.91 129.64 123.85 128.62 L 123.79 127.61 C 123.73 126.59 122.85 125.82 121.84 125.89 C 120.83 125.95 120.06 126.82 120.12 127.84 Z M 120.18 128.83 L 120.22 129.79 C 120.27 130.80 121.14 131.59 122.16 131.53 C 123.17 131.48 123.96 130.62 123.91 129.60 L 123.86 128.65 C 123.81 127.63 122.94 126.85 121.92 126.90 C 120.91 126.95 120.12 127.81 120.18 128.83 Z M 120.22 129.76 L 120.26 130.85 C 120.30 131.87 121.16 132.66 122.18 132.62 C 123.20 132.58 123.99 131.72 123.95 130.71 L 123.91 129.62 C 123.87 128.60 123.01 127.81 121.99 127.85 C 120.97 127.89 120.18 128.75 120.22 129.76 Z M 120.26 130.82 L 120.29 131.90 C 120.31 132.92 121.16 133.73 122.18 133.70 C 123.20 133.67 124.01 132.82 123.98 131.80 L 123.95 130.73 C 123.93 129.71 123.08 128.90 122.06 128.93 C 121.04 128.96 120.23 129.80 120.26 130.82 Z M 120.28 131.87 L 120.30 132.81 C 120.31 133.83 121.15 134.65 122.17 134.64 C 123.19 134.62 124.01 133.79 123.99 132.77 L 123.98 131.83 C 123.97 130.81 123.13 129.99 122.11 130.00 C 121.09 130.01 120.27 130.85 120.28 131.87 Z M 120.29 132.79 L 120.30 133.67 C 120.30 134.69 121.13 135.52 122.15 135.52 C 123.17 135.51 124.00 134.68 124.00 133.66 L 124.00 132.78 C 123.99 131.76 123.16 130.93 122.14 130.94 C 121.12 130.94 120.29 131.77 120.29 132.79 Z M 120.30 133.67 L 120.30 134.63 C 120.30 135.65 121.12 136.48 122.15 136.48 C 123.17 136.48 124.00 135.65 124.00 134.63 L 124.00 133.67 C 124.00 132.64 123.17 131.81 122.15 131.81 C 121.12 131.81 120.30 132.64 120.30 133.67 Z M 120.30 134.63 L 120.30 135.63 C 120.30 136.65 121.12 137.48 122.15 137.48 C 123.17 137.48 124.00 136.65 124.00 135.63 L 124.00 134.63 C 124.00 133.60 123.17 132.77 122.15 132.77 C 121.12 132.77 120.30 133.60 120.30 134.63 Z M 120.30 135.63 L 120.30 136.64 C 120.30 137.66 121.12 138.49 122.15 138.49 C 123.17 138.49 124.00 137.66 124.00 136.64 L 124.00 135.63 C 124.00 134.61 123.17 133.78 122.15 133.78 C 121.12 133.78 120.30 134.61 120.30 135.63 Z M 120.30 136.64 L 120.30 137.65 C 120.30 138.67 121.12 139.50 122.15 139.50 C 123.17 139.50 124.00 138.67 124.00 137.65 L 124.00 136.64 C 124.00 135.62 123.17 134.79 122.15 134.79 C 121.12 134.79 120.30 135.62 120.30 136.64 Z M 120.30 137.65 L 120.30 138.66 C 120.30 139.68 121.12 140.51 122.15 140.51 C 123.17 140.51 124.00 139.68 124.00 138.66 L 124.00 137.65 C 124.00 136.63 123.17 135.80 122.15 135.80 C 121.12 135.80 120.30 136.63 120.30 137.65 Z M 120.30 138.66 L 120.30 139.66 C 120.30 140.68 121.13 141.50 122.15 141.50 C 123.17 141.50 124.00 140.68 124.00 139.66 L 124.00 138.66 C 124.00 137.64 123.17 136.81 122.15 136.81 C 121.13 136.81 120.30 137.64 120.30 138.66 Z M 120.30 139.66 L 120.30 140.64 C 120.30 141.66 121.13 142.49 122.15 142.49 C 123.17 142.49 124.00 141.66 124.00 140.64 L 124.00 139.66 C 124.00 138.63 123.17 137.81 122.15 137.81 C 121.13 137.81 120.30 138.63 120.30 139.66 Z M 120.30 140.64 L 120.30 141.64 C 120.30 142.66 121.13 143.49 122.15 143.49 C 123.17 143.49 123.99 142.66 123.99 141.64 L 123.99 140.64 C 123.99 139.62 123.17 138.80 122.15 138.80 C 121.13 138.80 120.30 139.62 120.30 140.64 Z M 120.30 141.64 L 120.30 142.64 C 120.30 143.66 121.13 144.49 122.15 144.49 C 123.17 144.49 123.99 143.66 123.99 142.64 L 123.99 141.64 C 123.99 140.62 123.17 139.80 122.15 139.80 C 121.13 139.80 120.30 140.62 120.30 141.64 Z M 120.30 142.64 L 120.30 143.64 C 120.30 144.66 121.13 145.49 122.15 145.49 C 123.16 145.49 123.99 144.66 123.99 143.64 L 123.99 142.64 C 123.99 141.63 123.16 140.80 122.15 140.80 C 121.13 140.80 120.30 141.63 120.30 142.64 Z M 120.31 143.64 L 120.31 144.58 C 120.31 145.59 121.13 146.42 122.15 146.42 C 123.16 146.42 123.99 145.59 123.99 144.58 L 123.99 143.64 C 123.99 142.63 123.16 141.80 122.15 141.80 C 121.13 141.80 120.31 142.63 120.31 143.64 Z M 120.31 144.58 L 120.31 145.51 C 120.31 146.53 121.13 147.35 122.15 147.35 C 123.16 147.35 123.98 146.53 123.98 145.51 L 123.98 144.58 C 123.98 143.56 123.16 142.74 122.15 142.74 C 121.13 142.74 120.31 143.56 120.31 144.58 Z M 120.32 145.51 L 120.32 146.53 C 120.32 147.54 121.14 148.36 122.15 148.36 C 123.16 148.36 123.98 147.54 123.98 146.53 L 123.98 145.51 C 123.98 144.50 123.16 143.68 122.15 143.68 C 121.14 143.68 120.32 144.50 120.32 145.51 Z M 120.32 146.53 L 120.32 147.64 C 120.32 148.65 121.14 149.47 122.15 149.47 C 123.16 149.47 123.98 148.65 123.98 147.64 L 123.98 146.53 C 123.98 145.52 123.16 144.70 122.15 144.70 C 121.14 144.70 120.32 145.52 120.32 146.53 Z M 120.32 147.64 L 120.32 148.56 C 120.32 149.57 121.14 150.39 122.15 150.39 C 123.15 150.39 123.97 149.57 123.97 148.56 L 123.97 147.64 C 123.97 146.63 123.15 145.81 122.15 145.81 C 121.14 145.81 120.32 146.63 120.32 147.64 Z M 120.33 148.56 L 120.33 149.55 C 120.33 150.56 121.14 151.37 122.15 151.37 C 123.15 151.37 123.97 150.56 123.97 149.55 L 123.97 148.56 C 123.97 147.56 123.15 146.75 122.15 146.75 C 121.14 146.75 120.33 147.56 120.33 148.56 Z M 120.33 149.55 L 120.33 150.58 C 120.33 151.58 121.14 152.39 122.15 152.39 C 123.15 152.39 123.96 151.58 123.96 150.58 L 123.96 149.55 C 123.96 148.55 123.15 147.74 122.15 147.74 C 121.14 147.74 120.33 148.55 120.33 149.55 Z M 120.34 150.58 L 120.34 151.62 C 120.34 152.62 121.15 153.43 122.15 153.43 C 123.15 153.43 123.96 152.62 123.96 151.62 L 123.96 150.58 C 123.96 149.58 123.15 148.77 122.15 148.77 C 121.15 148.77 120.34 149.58 120.34 150.58 Z M 120.34 151.62 L 120.34 152.65 C 120.34 153.65 121.15 154.45 122.15 154.45 C 123.14 154.45 123.95 153.65 123.95 152.65 L 123.95 151.62 C 123.95 150.62 123.14 149.81 122.15 149.81 C 121.15 149.81 120.34 150.62 120.34 151.62 Z M 120.35 152.65 L 120.35 153.69 C 120.35 154.68 121.15 155.48 122.15 155.48 C 123.14 155.48 123.94 154.68 123.94 153.69 L 123.94 152.65 C 123.94 151.66 123.14 150.85 122.15 150.85 C 121.15 150.85 120.35 151.66 120.35 152.65 Z M 120.36 153.69 L 120.36 154.69 C 120.36 155.68 121.16 156.48 122.15 156.48 C 123.13 156.48 123.93 155.68 123.93 154.69 L 123.93 153.69 C 123.93 152.70 123.13 151.90 122.15 151.90 C 121.16 151.90 120.36 152.70 120.36 153.69 Z M 120.38 154.69 L 120.38 155.68 C 120.38 156.66 121.17 157.46 122.15 157.46 C 123.13 157.46 123.92 156.66 123.92 155.68 L 123.92 154.69 C 123.92 153.72 123.13 152.92 122.15 152.92 C 121.17 152.92 120.38 153.72 120.38 154.69 Z M 120.39 155.68 L 120.39 156.66 C 120.39 157.63 121.18 158.42 122.15 158.42 C 123.12 158.42 123.91 157.63 123.91 156.66 L 123.91 155.68 C 123.91 154.71 123.12 153.92 122.15 153.92 C 121.18 153.92 120.39 154.71 120.39 155.68 Z M 120.40 156.66 L 120.40 157.29 C 120.40 158.25 121.18 159.04 122.15 159.04 C 123.11 159.04 123.90 158.25 123.90 157.29 L 123.90 156.66 C 123.90 155.69 123.11 154.91 122.15 154.91 C 121.18 154.91 120.40 155.69 120.40 156.66 Z"
      fill="black"
      fill-rule="nonzero" /><path d="M 126.35 133.98 L 125.40 133.17 C 124.66 132.52 123.53 132.61 122.89 133.36 C 122.25 134.10 122.34 135.22 123.08 135.87 L 124.03 136.68 C 124.78 137.32 125.90 137.23 126.54 136.49 C 127.18 135.74 127.10 134.62 126.35 133.98 Z M 125.58 133.27 L 124.87 132.51 C 124.18 131.77 123.02 131.73 122.29 132.41 C 121.55 133.10 121.51 134.26 122.20 134.99 L 122.91 135.76 C 123.60 136.50 124.75 136.54 125.49 135.85 C 126.23 135.16 126.27 134.01 125.58 133.27 Z M 125.29 133.10 L 125.04 132.43 C 124.68 131.46 123.61 130.97 122.64 131.32 C 121.67 131.68 121.17 132.76 121.53 133.73 L 121.78 134.40 C 122.13 135.37 123.21 135.86 124.18 135.51 C 125.15 135.15 125.64 134.07 125.29 133.10 Z M 124.84 134.17 L 125.18 133.68 C 125.78 132.82 125.57 131.64 124.72 131.04 C 123.86 130.44 122.67 130.64 122.07 131.50 L 121.73 131.99 C 121.13 132.85 121.33 134.03 122.19 134.63 C 123.05 135.24 124.24 135.03 124.84 134.17 Z M 124.47 134.30 L 125.25 133.91 C 126.19 133.45 126.58 132.31 126.12 131.36 C 125.65 130.42 124.51 130.03 123.57 130.50 L 122.78 130.89 C 121.84 131.35 121.45 132.49 121.92 133.43 C 122.38 134.38 123.52 134.76 124.47 134.30 Z M 124.99 134.01 L 126.07 133.67 C 127.07 133.35 127.62 132.28 127.30 131.28 C 126.98 130.28 125.91 129.73 124.91 130.05 L 123.83 130.39 C 122.83 130.72 122.28 131.79 122.60 132.79 C 122.92 133.78 123.99 134.33 124.99 134.01 Z M 126.01 133.68 L 127.20 133.34 C 128.21 133.06 128.79 132.01 128.51 131.00 C 128.22 129.99 127.17 129.41 126.16 129.69 L 124.97 130.03 C 123.96 130.32 123.37 131.37 123.66 132.38 C 123.95 133.39 125.00 133.97 126.01 133.68 Z M 127.23 133.32 L 128.16 133.04 C 129.16 132.74 129.72 131.68 129.42 130.69 C 129.12 129.69 128.06 129.13 127.07 129.43 L 126.13 129.71 C 125.13 130.02 124.57 131.07 124.88 132.07 C 125.18 133.06 126.23 133.63 127.23 133.32 Z M 128.20 133.01 L 129.13 132.70 C 130.11 132.38 130.65 131.33 130.33 130.35 C 130.00 129.37 128.95 128.83 127.97 129.15 L 127.03 129.46 C 126.05 129.78 125.52 130.84 125.84 131.82 C 126.16 132.80 127.22 133.33 128.20 133.01 Z M 129.16 132.67 L 130.10 132.35 C 131.06 132.01 131.57 130.96 131.24 129.99 C 130.90 129.03 129.85 128.52 128.88 128.86 L 127.94 129.18 C 126.98 129.52 126.47 130.57 126.80 131.54 C 127.14 132.50 128.20 133.01 129.16 132.67 Z M 130.12 132.32 L 131.08 131.97 C 132.02 131.62 132.51 130.57 132.16 129.62 C 131.81 128.67 130.76 128.18 129.81 128.53 L 128.86 128.88 C 127.91 129.23 127.43 130.28 127.77 131.23 C 128.12 132.18 129.17 132.67 130.12 132.32 Z M 131.09 131.94 L 132.04 131.57 C 132.98 131.21 133.44 130.17 133.08 129.24 C 132.73 128.30 131.68 127.84 130.75 128.19 L 129.79 128.56 C 128.86 128.92 128.40 129.97 128.75 130.90 C 129.11 131.83 130.16 132.30 131.09 131.94 Z M 132.06 131.55 L 132.95 131.19 C 133.87 130.83 134.32 129.79 133.95 128.87 C 133.59 127.95 132.54 127.50 131.63 127.87 L 130.73 128.22 C 129.81 128.59 129.37 129.63 129.73 130.55 C 130.10 131.46 131.14 131.91 132.06 131.55 Z M 132.96 131.17 L 133.87 130.80 C 134.77 130.43 135.21 129.39 134.83 128.48 C 134.46 127.58 133.43 127.15 132.52 127.52 L 131.61 127.89 C 130.71 128.26 130.28 129.30 130.65 130.20 C 131.02 131.11 132.05 131.54 132.96 131.17 Z M 133.88 130.77 L 134.80 130.38 C 135.69 130.00 136.11 128.97 135.73 128.08 C 135.35 127.19 134.32 126.77 133.43 127.15 L 132.51 127.54 C 131.62 127.92 131.20 128.95 131.58 129.84 C 131.96 130.73 132.99 131.15 133.88 130.77 Z M 134.81 130.36 L 135.75 129.95 C 136.62 129.56 137.02 128.54 136.64 127.66 C 136.26 126.78 135.23 126.38 134.36 126.77 L 133.42 127.18 C 132.54 127.56 132.14 128.58 132.53 129.46 C 132.91 130.34 133.93 130.74 134.81 130.36 Z M 135.76 129.92 L 136.70 129.50 C 137.57 129.11 137.95 128.09 137.56 127.23 C 137.17 126.36 136.16 125.98 135.29 126.37 L 134.35 126.79 C 133.48 127.18 133.10 128.20 133.49 129.06 C 133.88 129.93 134.89 130.31 135.76 129.92 Z M 136.71 129.47 L 137.67 129.02 C 138.52 128.63 138.89 127.62 138.49 126.77 C 138.10 125.92 137.09 125.55 136.24 125.95 L 135.28 126.39 C 134.43 126.79 134.06 127.80 134.46 128.65 C 134.85 129.50 135.86 129.87 136.71 129.47 Z M 137.68 129.00 L 138.63 128.54 C 139.47 128.14 139.82 127.14 139.42 126.31 C 139.02 125.47 138.02 125.12 137.19 125.52 L 136.23 125.97 C 135.40 126.37 135.04 127.37 135.44 128.21 C 135.84 129.04 136.84 129.40 137.68 129.00 Z M 138.64 128.52 L 139.57 128.06 C 140.39 127.66 140.73 126.66 140.33 125.84 C 139.93 125.02 138.93 124.68 138.11 125.08 L 137.18 125.54 C 136.36 125.94 136.02 126.94 136.42 127.76 C 136.83 128.58 137.82 128.92 138.64 128.52 Z M 139.57 128.03 L 140.47 127.59 C 141.27 127.18 141.60 126.20 141.20 125.39 C 140.79 124.58 139.81 124.26 139.00 124.66 L 138.11 125.11 C 137.30 125.51 136.98 126.50 137.38 127.30 C 137.78 128.11 138.77 128.44 139.57 128.03 Z M 140.47 127.56 L 141.30 127.13 C 142.10 126.73 142.41 125.76 142.00 124.96 C 141.60 124.17 140.63 123.85 139.83 124.26 L 139.00 124.69 C 138.20 125.09 137.89 126.07 138.30 126.86 C 138.70 127.65 139.68 127.97 140.47 127.56 Z M 141.31 127.11 L 142.15 126.67 C 142.93 126.26 143.23 125.30 142.82 124.52 C 142.41 123.74 141.45 123.44 140.67 123.85 L 139.83 124.29 C 139.05 124.70 138.75 125.66 139.16 126.44 C 139.57 127.22 140.53 127.52 141.31 127.11 Z M 142.16 126.64 L 143.03 126.16 C 143.80 125.75 144.08 124.80 143.67 124.04 C 143.26 123.27 142.30 122.99 141.54 123.40 L 140.66 123.88 C 139.90 124.29 139.62 125.24 140.03 126.00 C 140.44 126.76 141.39 127.05 142.16 126.64 Z M 143.04 126.13 L 143.87 125.66 C 144.61 125.25 144.88 124.30 144.46 123.56 C 144.04 122.82 143.10 122.55 142.36 122.97 L 141.53 123.44 C 140.79 123.85 140.52 124.79 140.94 125.54 C 141.36 126.28 142.30 126.55 143.04 126.13 Z M 143.88 125.63 L 144.72 125.14 C 145.45 124.72 145.69 123.79 145.27 123.06 C 144.85 122.34 143.92 122.09 143.19 122.51 L 142.35 123.00 C 141.62 123.43 141.38 124.36 141.80 125.08 C 142.22 125.81 143.15 126.05 143.88 125.63 Z M 144.73 125.11 L 145.60 124.59 C 146.31 124.17 146.54 123.25 146.12 122.54 C 145.69 121.83 144.77 121.60 144.06 122.02 L 143.19 122.54 C 142.48 122.96 142.25 123.88 142.67 124.59 C 143.10 125.30 144.02 125.53 144.73 125.11 Z M 145.60 124.57 L 146.40 124.09 C 147.10 123.67 147.32 122.75 146.90 122.05 C 146.47 121.35 145.56 121.13 144.86 121.55 L 144.06 122.04 C 143.36 122.46 143.14 123.37 143.56 124.07 C 143.99 124.77 144.90 125.00 145.60 124.57 Z M 146.40 124.08 L 147.25 123.56 C 147.94 123.13 148.16 122.22 147.73 121.53 C 147.31 120.83 146.40 120.62 145.70 121.04 L 144.85 121.56 C 144.16 121.99 143.94 122.90 144.37 123.60 C 144.80 124.29 145.71 124.51 146.40 124.08 Z M 147.25 123.55 L 148.13 123.00 C 148.82 122.57 149.03 121.66 148.60 120.98 C 148.17 120.29 147.26 120.08 146.57 120.51 L 145.70 121.05 C 145.01 121.48 144.80 122.39 145.23 123.08 C 145.66 123.77 146.57 123.98 147.25 123.55 Z M 148.14 122.99 L 149.02 122.43 C 149.70 121.99 149.90 121.09 149.47 120.41 C 149.03 119.73 148.13 119.53 147.45 119.96 L 146.57 120.52 C 145.89 120.95 145.68 121.86 146.12 122.54 C 146.55 123.22 147.46 123.42 148.14 122.99 Z M 149.03 122.41 L 149.89 121.85 C 150.56 121.41 150.75 120.51 150.32 119.84 C 149.88 119.16 148.97 118.97 148.30 119.41 L 147.44 119.97 C 146.76 120.41 146.57 121.31 147.01 121.99 C 147.45 122.66 148.35 122.85 149.03 122.41 Z M 149.90 121.84 L 150.78 121.25 C 151.45 120.80 151.63 119.90 151.18 119.24 C 150.73 118.57 149.83 118.39 149.17 118.84 L 148.29 119.43 C 147.62 119.87 147.44 120.77 147.89 121.44 C 148.34 122.11 149.24 122.28 149.90 121.84 Z M 150.80 121.23 L 151.64 120.65 C 152.30 120.20 152.46 119.30 152.01 118.64 C 151.56 117.98 150.66 117.82 150.00 118.27 L 149.16 118.85 C 148.50 119.31 148.33 120.21 148.79 120.86 C 149.24 121.52 150.14 121.68 150.80 121.23 Z M 151.65 120.64 L 152.46 120.07 C 153.11 119.61 153.26 118.71 152.80 118.06 C 152.35 117.41 151.45 117.26 150.80 117.71 L 149.99 118.29 C 149.34 118.74 149.18 119.64 149.64 120.29 C 150.10 120.94 151.00 121.10 151.65 120.64 Z M 152.46 120.06 L 153.25 119.49 C 153.90 119.03 154.04 118.13 153.58 117.49 C 153.12 116.85 152.22 116.70 151.58 117.16 L 150.79 117.72 C 150.15 118.19 150.00 119.08 150.46 119.73 C 150.92 120.37 151.82 120.52 152.46 120.06 Z M 153.25 119.48 L 154.03 118.92 C 154.67 118.46 154.81 117.57 154.35 116.93 C 153.89 116.29 153.00 116.14 152.36 116.61 L 151.58 117.17 C 150.94 117.63 150.80 118.52 151.26 119.16 C 151.72 119.80 152.61 119.94 153.25 119.48 Z M 154.03 118.92 L 154.07 118.89 C 154.71 118.43 154.85 117.53 154.39 116.90 C 153.93 116.26 153.04 116.12 152.40 116.58 L 152.36 116.61 C 151.72 117.07 151.58 117.96 152.04 118.60 C 152.50 119.24 153.39 119.38 154.03 118.92 Z"
      fill="black"
      fill-rule="nonzero" /><path d="M 110.49 172.72 L 110.54 171.75 C 110.59 170.81 109.86 170.01 108.92 169.96 C 107.98 169.91 107.18 170.64 107.13 171.58 L 107.08 172.55 C 107.03 173.49 107.76 174.29 108.70 174.34 C 109.64 174.39 110.44 173.66 110.49 172.72 Z M 110.56 171.91 L 110.70 170.96 C 110.84 170.00 110.17 169.11 109.22 168.98 C 108.26 168.84 107.38 169.51 107.24 170.46 L 107.10 171.42 C 106.97 172.37 107.63 173.26 108.59 173.40 C 109.54 173.53 110.43 172.87 110.56 171.91 Z M 110.67 171.27 L 110.98 170.33 C 111.29 169.40 110.78 168.39 109.85 168.07 C 108.91 167.76 107.90 168.27 107.59 169.21 L 107.28 170.14 C 106.97 171.08 107.47 172.09 108.41 172.40 C 109.34 172.71 110.36 172.21 110.67 171.27 Z M 110.83 170.73 L 111.37 169.86 C 111.90 169.01 111.64 167.88 110.79 167.35 C 109.94 166.82 108.81 167.08 108.28 167.93 L 107.74 168.81 C 107.21 169.66 107.47 170.78 108.32 171.31 C 109.17 171.85 110.30 171.59 110.83 170.73 Z M 111.16 170.16 L 111.79 169.50 C 112.48 168.76 112.45 167.60 111.71 166.90 C 110.97 166.21 109.81 166.24 109.11 166.98 L 108.49 167.64 C 107.80 168.38 107.83 169.54 108.57 170.23 C 109.31 170.93 110.47 170.89 111.16 170.16 Z M 111.63 169.64 L 112.39 169.00 C 113.16 168.35 113.26 167.19 112.61 166.42 C 111.95 165.64 110.80 165.54 110.02 166.20 L 109.27 166.83 C 108.49 167.49 108.39 168.65 109.05 169.42 C 109.70 170.19 110.86 170.29 111.63 169.64 Z M 112.28 169.09 L 113.12 168.48 C 113.94 167.88 114.12 166.73 113.53 165.91 C 112.93 165.09 111.79 164.91 110.97 165.51 L 110.13 166.12 C 109.31 166.71 109.12 167.86 109.72 168.68 C 110.31 169.50 111.46 169.68 112.28 169.09 Z M 113.05 168.52 L 113.93 167.94 C 114.78 167.38 115.01 166.25 114.46 165.40 C 113.90 164.56 112.76 164.32 111.92 164.88 L 111.04 165.46 C 110.19 166.02 109.96 167.15 110.51 168.00 C 111.07 168.84 112.21 169.08 113.05 168.52 Z M 113.90 167.96 L 114.78 167.41 C 115.63 166.87 115.89 165.74 115.35 164.89 C 114.82 164.03 113.69 163.77 112.83 164.31 L 111.95 164.86 C 111.10 165.40 110.84 166.53 111.37 167.38 C 111.91 168.24 113.04 168.50 113.90 167.96 Z M 114.76 167.41 L 115.66 166.86 C 116.51 166.33 116.78 165.21 116.25 164.35 C 115.72 163.49 114.59 163.23 113.74 163.76 L 112.84 164.31 C 111.98 164.84 111.72 165.96 112.25 166.82 C 112.78 167.68 113.90 167.94 114.76 167.41 Z M 115.64 166.86 L 116.50 166.34 C 117.36 165.82 117.63 164.70 117.11 163.84 C 116.58 162.98 115.46 162.71 114.61 163.23 L 113.75 163.76 C 112.89 164.28 112.62 165.40 113.14 166.26 C 113.66 167.11 114.78 167.39 115.64 166.86 Z M 116.48 166.34 L 117.32 165.84 C 118.18 165.33 118.46 164.22 117.95 163.36 C 117.43 162.50 116.32 162.22 115.46 162.73 L 114.62 163.23 C 113.76 163.75 113.48 164.86 114.00 165.72 C 114.51 166.58 115.62 166.86 116.48 166.34 Z M 117.30 165.85 L 118.14 165.36 C 119.00 164.86 119.29 163.75 118.79 162.89 C 118.29 162.03 117.18 161.74 116.32 162.24 L 115.48 162.73 C 114.62 163.23 114.33 164.33 114.83 165.20 C 115.33 166.06 116.44 166.35 117.30 165.85 Z M 118.12 165.36 L 118.96 164.88 C 119.82 164.39 120.13 163.30 119.64 162.43 C 119.15 161.57 118.05 161.27 117.19 161.76 L 116.34 162.23 C 115.48 162.72 115.18 163.82 115.67 164.68 C 116.16 165.55 117.25 165.85 118.12 165.36 Z M 118.94 164.89 L 119.78 164.42 C 120.64 163.95 120.96 162.86 120.48 161.99 C 120.00 161.13 118.91 160.81 118.04 161.29 L 117.21 161.75 C 116.34 162.23 116.03 163.32 116.51 164.19 C 116.99 165.05 118.07 165.37 118.94 164.89 Z M 119.76 164.43 L 120.62 163.96 C 121.49 163.49 121.81 162.40 121.34 161.54 C 120.87 160.67 119.79 160.35 118.92 160.82 L 118.06 161.29 C 117.19 161.76 116.87 162.84 117.34 163.71 C 117.81 164.57 118.89 164.90 119.76 164.43 Z M 120.61 163.96 L 121.50 163.48 C 122.37 163.02 122.69 161.94 122.23 161.07 C 121.77 160.21 120.69 159.88 119.83 160.35 L 118.94 160.82 C 118.07 161.29 117.74 162.36 118.21 163.23 C 118.67 164.09 119.75 164.42 120.61 163.96 Z M 121.49 163.48 L 122.41 162.99 C 123.27 162.53 123.60 161.46 123.14 160.60 C 122.68 159.73 121.61 159.41 120.75 159.86 L 119.84 160.35 C 118.97 160.81 118.64 161.88 119.10 162.74 C 119.56 163.61 120.63 163.93 121.49 163.48 Z M 122.40 162.99 L 123.31 162.51 C 124.17 162.05 124.50 160.99 124.04 160.13 C 123.59 159.27 122.52 158.94 121.66 159.39 L 120.76 159.87 C 119.90 160.32 119.57 161.39 120.02 162.25 C 120.47 163.11 121.54 163.44 122.40 162.99 Z M 123.30 162.50 L 124.14 162.06 C 125.00 161.61 125.33 160.54 124.88 159.69 C 124.43 158.83 123.36 158.50 122.51 158.95 L 121.66 159.40 C 120.81 159.85 120.48 160.91 120.93 161.77 C 121.38 162.63 122.44 162.95 123.30 162.50 Z M 124.14 162.05 L 125.00 161.60 C 125.86 161.15 126.18 160.09 125.73 159.24 C 125.28 158.38 124.22 158.06 123.37 158.51 L 122.51 158.96 C 121.66 159.41 121.33 160.47 121.78 161.32 C 122.23 162.17 123.29 162.50 124.14 162.05 Z M 125.00 161.59 L 125.88 161.12 C 126.73 160.67 127.05 159.62 126.60 158.77 C 126.15 157.92 125.10 157.60 124.25 158.05 L 123.37 158.51 C 122.52 158.96 122.20 160.02 122.65 160.86 C 123.10 161.71 124.15 162.04 125.00 161.59 Z M 125.88 161.11 L 126.78 160.64 C 127.62 160.19 127.94 159.14 127.50 158.29 C 127.05 157.45 126.00 157.13 125.15 157.58 L 124.25 158.06 C 123.41 158.50 123.09 159.55 123.54 160.40 C 123.99 161.24 125.03 161.56 125.88 161.11 Z M 126.78 160.63 L 127.70 160.13 C 128.54 159.69 128.86 158.64 128.41 157.80 C 127.96 156.96 126.92 156.65 126.08 157.09 L 125.16 157.59 C 124.32 158.03 124.00 159.08 124.45 159.92 C 124.89 160.76 125.94 161.08 126.78 160.63 Z M 127.70 160.12 L 128.59 159.65 C 129.43 159.20 129.74 158.16 129.29 157.32 C 128.84 156.49 127.81 156.18 126.97 156.62 L 126.08 157.10 C 125.24 157.55 124.93 158.59 125.38 159.42 C 125.83 160.26 126.87 160.57 127.70 160.12 Z M 128.59 159.64 L 129.46 159.17 C 130.29 158.72 130.59 157.69 130.15 156.86 C 129.70 156.03 128.67 155.72 127.84 156.17 L 126.97 156.64 C 126.14 157.08 125.83 158.12 126.28 158.94 C 126.73 159.77 127.76 160.08 128.59 159.64 Z M 129.45 159.16 L 130.33 158.68 C 131.15 158.24 131.46 157.21 131.02 156.39 C 130.57 155.56 129.54 155.26 128.72 155.70 L 127.84 156.18 C 127.02 156.62 126.71 157.65 127.16 158.47 C 127.60 159.30 128.63 159.60 129.45 159.16 Z M 130.33 158.67 L 131.21 158.19 C 132.03 157.75 132.33 156.73 131.89 155.91 C 131.45 155.09 130.43 154.79 129.61 155.23 L 128.72 155.71 C 127.91 156.16 127.60 157.18 128.05 157.99 C 128.49 158.81 129.51 159.11 130.33 158.67 Z M 131.21 158.18 L 132.10 157.70 C 132.91 157.26 133.21 156.24 132.77 155.43 C 132.33 154.62 131.32 154.32 130.51 154.76 L 129.62 155.24 C 128.80 155.68 128.50 156.70 128.94 157.51 C 129.38 158.32 130.40 158.62 131.21 158.18 Z M 132.09 157.69 L 132.98 157.21 C 133.79 156.77 134.09 155.76 133.65 154.96 C 133.21 154.15 132.20 153.85 131.40 154.29 L 130.51 154.77 C 129.70 155.21 129.41 156.22 129.84 157.02 C 130.28 157.83 131.29 158.13 132.09 157.69 Z M 132.98 157.20 L 133.86 156.72 C 134.66 156.28 134.96 155.28 134.53 154.48 C 134.09 153.68 133.09 153.38 132.29 153.82 L 131.41 154.30 C 130.60 154.73 130.31 155.73 130.74 156.53 C 131.17 157.33 132.17 157.63 132.98 157.20 Z M 133.85 156.71 L 134.75 156.23 C 135.55 155.80 135.84 154.80 135.41 154.01 C 134.98 153.21 133.99 152.91 133.19 153.34 L 132.30 153.83 C 131.50 154.26 131.21 155.25 131.64 156.05 C 132.07 156.84 133.06 157.14 133.85 156.71 Z M 134.74 156.22 L 135.63 155.74 C 136.42 155.31 136.72 154.33 136.29 153.53 C 135.86 152.74 134.88 152.45 134.09 152.88 L 133.20 153.35 C 132.41 153.78 132.11 154.77 132.54 155.56 C 132.97 156.35 133.95 156.64 134.74 156.22 Z M 135.62 155.73 L 136.50 155.25 C 137.29 154.83 137.58 153.85 137.16 153.07 C 136.74 152.28 135.76 151.99 134.97 152.41 L 134.09 152.88 C 133.31 153.31 133.01 154.29 133.44 155.07 C 133.86 155.86 134.84 156.15 135.62 155.73 Z M 136.50 155.24 L 137.37 154.77 C 138.15 154.35 138.45 153.38 138.03 152.60 C 137.61 151.82 136.64 151.53 135.86 151.95 L 134.98 152.42 C 134.20 152.84 133.91 153.81 134.33 154.59 C 134.75 155.37 135.72 155.66 136.50 155.24 Z M 137.37 154.76 L 138.24 154.30 C 139.01 153.88 139.30 152.92 138.89 152.14 C 138.47 151.37 137.51 151.08 136.73 151.49 L 135.86 151.96 C 135.09 152.38 134.80 153.34 135.21 154.11 C 135.63 154.89 136.59 155.18 137.37 154.76 Z M 138.23 154.29 L 139.10 153.82 C 139.87 153.41 140.16 152.45 139.75 151.68 C 139.34 150.91 138.38 150.62 137.61 151.04 L 136.74 151.50 C 135.97 151.91 135.68 152.87 136.10 153.64 C 136.51 154.41 137.47 154.70 138.23 154.29 Z M 139.10 153.81 L 139.99 153.33 C 140.75 152.92 141.04 151.97 140.63 151.21 C 140.22 150.45 139.27 150.16 138.50 150.57 L 137.62 151.05 C 136.85 151.45 136.57 152.41 136.98 153.17 C 137.39 153.93 138.34 154.22 139.10 153.81 Z M 139.98 153.32 L 140.87 152.84 C 141.63 152.44 141.91 151.49 141.50 150.74 C 141.10 149.98 140.15 149.69 139.40 150.10 L 138.51 150.58 C 137.75 150.99 137.47 151.93 137.87 152.69 C 138.28 153.44 139.23 153.73 139.98 153.32 Z M 140.87 152.83 L 141.75 152.36 C 142.50 151.95 142.78 151.01 142.38 150.26 C 141.97 149.51 141.03 149.23 140.28 149.64 L 139.40 150.11 C 138.65 150.52 138.37 151.46 138.77 152.21 C 139.18 152.96 140.12 153.24 140.87 152.83 Z M 141.75 152.34 L 142.63 151.87 C 143.37 151.46 143.65 150.53 143.24 149.79 C 142.84 149.04 141.91 148.77 141.16 149.17 L 140.29 149.65 C 139.54 150.05 139.26 150.98 139.67 151.73 C 140.07 152.47 141.00 152.75 141.75 152.34 Z M 142.63 151.85 L 143.50 151.38 C 144.24 150.97 144.51 150.05 144.11 149.31 C 143.70 148.57 142.78 148.30 142.04 148.70 L 141.17 149.18 C 140.43 149.59 140.16 150.51 140.56 151.25 C 140.96 151.99 141.89 152.26 142.63 151.85 Z M 143.50 151.36 L 144.36 150.89 C 145.09 150.48 145.36 149.56 144.96 148.83 C 144.55 148.10 143.63 147.84 142.90 148.24 L 142.04 148.72 C 141.31 149.12 141.04 150.04 141.45 150.77 C 141.85 151.50 142.77 151.77 143.50 151.36 Z M 144.37 150.87 L 145.26 150.37 C 145.98 149.97 146.24 149.05 145.84 148.33 C 145.43 147.61 144.52 147.35 143.79 147.75 L 142.90 148.25 C 142.18 148.66 141.92 149.57 142.32 150.30 C 142.73 151.02 143.64 151.28 144.37 150.87 Z M 145.26 150.36 L 146.15 149.86 C 146.87 149.45 147.12 148.54 146.72 147.82 C 146.31 147.11 145.40 146.85 144.68 147.26 L 143.79 147.76 C 143.07 148.17 142.82 149.08 143.23 149.80 C 143.63 150.52 144.54 150.77 145.26 150.36 Z M 146.15 149.85 L 147.03 149.35 C 147.74 148.94 147.99 148.04 147.59 147.32 C 147.18 146.61 146.27 146.36 145.56 146.77 L 144.68 147.27 C 143.97 147.67 143.72 148.58 144.13 149.29 C 144.53 150.01 145.44 150.26 146.15 149.85 Z M 147.03 149.34 L 147.89 148.85 C 148.60 148.44 148.85 147.54 148.44 146.83 C 148.04 146.12 147.14 145.88 146.43 146.28 L 145.56 146.78 C 144.86 147.18 144.61 148.08 145.01 148.79 C 145.42 149.50 146.32 149.75 147.03 149.34 Z M 147.89 148.84 L 148.74 148.35 C 149.44 147.95 149.69 147.05 149.28 146.35 C 148.88 145.65 147.98 145.40 147.28 145.81 L 146.43 146.29 C 145.73 146.69 145.48 147.59 145.89 148.29 C 146.29 149.00 147.19 149.24 147.89 148.84 Z M 148.73 148.35 L 149.57 147.87 C 150.27 147.47 150.52 146.58 150.12 145.88 C 149.72 145.18 148.83 144.93 148.13 145.33 L 147.29 145.81 C 146.59 146.21 146.34 147.10 146.74 147.80 C 147.14 148.50 148.03 148.75 148.73 148.35 Z M 149.57 147.86 L 150.48 147.35 C 151.17 146.95 151.42 146.06 151.02 145.37 C 150.63 144.67 149.74 144.42 149.04 144.82 L 148.13 145.34 C 147.44 145.73 147.19 146.62 147.59 147.32 C 147.98 148.01 148.87 148.26 149.57 147.86 Z M 150.47 147.34 L 151.36 146.84 C 152.06 146.45 152.30 145.56 151.91 144.87 C 151.52 144.17 150.63 143.93 149.94 144.32 L 149.05 144.82 C 148.35 145.22 148.11 146.10 148.50 146.80 C 148.89 147.49 149.78 147.74 150.47 147.34 Z M 151.36 146.84 L 152.23 146.34 C 152.92 145.95 153.17 145.07 152.77 144.38 C 152.38 143.68 151.50 143.44 150.81 143.83 L 149.94 144.32 C 149.24 144.72 149.00 145.60 149.39 146.29 C 149.79 146.99 150.67 147.23 151.36 146.84 Z M 152.23 146.34 L 153.08 145.86 C 153.77 145.46 154.01 144.58 153.62 143.89 C 153.23 143.20 152.35 142.96 151.66 143.35 L 150.81 143.84 C 150.12 144.23 149.88 145.11 150.27 145.80 C 150.66 146.49 151.54 146.73 152.23 146.34 Z M 153.08 145.85 L 153.91 145.37 C 154.60 144.98 154.84 144.10 154.44 143.41 C 154.05 142.73 153.17 142.49 152.48 142.88 L 151.65 143.36 C 150.97 143.76 150.73 144.63 151.12 145.32 C 151.52 146.01 152.40 146.24 153.08 145.85 Z M 153.92 145.37 L 154.73 144.89 C 155.41 144.50 155.65 143.62 155.25 142.94 C 154.85 142.25 153.98 142.02 153.29 142.42 L 152.48 142.89 C 151.80 143.29 151.56 144.16 151.96 144.85 C 152.36 145.53 153.23 145.76 153.92 145.37 Z M 154.74 144.89 L 155.55 144.41 C 156.23 144.01 156.45 143.13 156.05 142.45 C 155.65 141.77 154.78 141.54 154.10 141.95 L 153.28 142.42 C 152.60 142.83 152.38 143.70 152.78 144.38 C 153.18 145.06 154.06 145.29 154.74 144.89 Z M 155.56 144.40 L 156.39 143.90 C 157.06 143.50 157.28 142.62 156.88 141.94 C 156.47 141.27 155.59 141.05 154.92 141.45 L 154.09 141.95 C 153.41 142.36 153.19 143.24 153.60 143.91 C 154.00 144.59 154.88 144.81 155.56 144.40 Z M 156.39 143.90 L 157.26 143.37 C 157.94 142.96 158.15 142.08 157.74 141.41 C 157.33 140.74 156.45 140.52 155.78 140.93 L 154.91 141.46 C 154.24 141.87 154.02 142.75 154.43 143.42 C 154.84 144.09 155.72 144.31 156.39 143.90 Z M 157.27 143.36 L 158.20 142.79 C 158.87 142.38 159.07 141.50 158.66 140.83 C 158.25 140.16 157.37 139.95 156.70 140.37 L 155.77 140.94 C 155.10 141.35 154.89 142.23 155.31 142.90 C 155.72 143.57 156.60 143.78 157.27 143.36 Z M 158.20 142.79 L 159.01 142.28 C 159.68 141.86 159.88 140.98 159.47 140.32 C 159.05 139.65 158.17 139.45 157.50 139.86 L 156.69 140.37 C 156.02 140.79 155.82 141.67 156.24 142.33 C 156.65 143.00 157.53 143.20 158.20 142.79 Z M 159.02 142.28 L 159.81 141.78 C 160.47 141.36 160.67 140.48 160.25 139.82 C 159.84 139.15 158.96 138.95 158.29 139.37 L 157.50 139.86 C 156.83 140.28 156.63 141.16 157.05 141.83 C 157.47 142.50 158.35 142.70 159.02 142.28 Z M 159.81 141.78 L 160.63 141.26 C 161.30 140.84 161.50 139.96 161.08 139.29 C 160.66 138.63 159.78 138.43 159.11 138.85 L 158.29 139.37 C 157.62 139.79 157.42 140.67 157.84 141.34 C 158.26 142.00 159.14 142.20 159.81 141.78 Z M 160.63 141.26 L 161.49 140.72 C 162.15 140.30 162.35 139.41 161.93 138.75 C 161.51 138.09 160.62 137.89 159.96 138.31 L 159.11 138.85 C 158.44 139.27 158.25 140.15 158.67 140.82 C 159.09 141.48 159.97 141.68 160.63 141.26 Z M 161.49 140.72 L 162.36 140.16 C 163.03 139.74 163.22 138.86 162.80 138.19 C 162.38 137.53 161.50 137.33 160.83 137.76 L 159.96 138.31 C 159.29 138.73 159.10 139.61 159.52 140.28 C 159.94 140.94 160.82 141.14 161.49 140.72 Z M 162.36 140.16 L 163.25 139.59 C 163.92 139.17 164.11 138.29 163.69 137.62 C 163.26 136.96 162.38 136.77 161.72 137.19 L 160.83 137.76 C 160.17 138.18 159.97 139.06 160.40 139.72 C 160.82 140.39 161.70 140.58 162.36 140.16 Z M 163.25 139.59 L 164.15 139.02 C 164.81 138.60 165.01 137.72 164.58 137.05 C 164.16 136.39 163.28 136.19 162.62 136.62 L 161.72 137.19 C 161.06 137.61 160.86 138.49 161.28 139.16 C 161.71 139.82 162.59 140.02 163.25 139.59 Z M 164.15 139.02 L 164.32 138.91 C 164.98 138.49 165.18 137.61 164.76 136.94 C 164.33 136.28 163.45 136.08 162.79 136.51 L 162.62 136.62 C 161.95 137.04 161.76 137.92 162.18 138.59 C 162.61 139.25 163.49 139.44 164.15 139.02 Z"
      fill="black"
      fill-rule="nonzero" /><path d="M 160.76 111.04 L 160.69 109.64 C 160.64 108.77 159.91 108.10 159.04 108.15 C 158.17 108.19 157.50 108.93 157.55 109.80 L 157.62 111.20 C 157.66 112.07 158.40 112.73 159.27 112.69 C 160.13 112.64 160.80 111.91 160.76 111.04 Z M 160.77 109.63 L 160.71 108.42 C 160.66 107.50 159.88 106.80 158.96 106.85 C 158.05 106.90 157.35 107.68 157.40 108.60 L 157.46 109.81 C 157.51 110.72 158.29 111.42 159.21 111.37 C 160.12 111.32 160.82 110.54 160.77 109.63 Z M 160.79 108.39 L 160.74 107.57 C 160.67 106.60 159.84 105.88 158.88 105.94 C 157.92 106.00 157.19 106.84 157.26 107.80 L 157.31 108.62 C 157.38 109.58 158.21 110.31 159.17 110.25 C 160.13 110.18 160.86 109.35 160.79 108.39 Z M 160.79 107.36 L 160.75 107.12 C 160.57 106.13 159.63 105.47 158.64 105.65 C 157.65 105.83 156.99 106.77 157.16 107.76 L 157.20 108.00 C 157.38 108.99 158.33 109.65 159.32 109.48 C 160.31 109.30 160.97 108.35 160.79 107.36 Z M 157.09 107.38 L 157.07 108.06 C 157.03 109.09 157.83 109.95 158.86 109.99 C 159.89 110.03 160.76 109.22 160.79 108.19 L 160.82 107.51 C 160.86 106.48 160.05 105.62 159.02 105.58 C 157.99 105.54 157.13 106.35 157.09 107.38 Z M 157.04 108.12 L 157.04 109.40 C 157.03 110.44 157.87 111.29 158.92 111.30 C 159.96 111.30 160.81 110.46 160.81 109.42 L 160.82 108.13 C 160.82 107.09 159.98 106.24 158.94 106.24 C 157.90 106.23 157.05 107.07 157.04 108.12 Z M 157.02 109.41 L 157.02 110.60 C 157.02 111.65 157.87 112.50 158.92 112.50 C 159.97 112.50 160.83 111.65 160.83 110.60 L 160.83 109.41 C 160.83 108.36 159.97 107.51 158.92 107.51 C 157.87 107.51 157.02 108.36 157.02 109.41 Z M 157.01 110.60 L 157.01 111.59 C 157.01 112.64 157.87 113.50 158.92 113.50 C 159.98 113.50 160.83 112.64 160.83 111.59 L 160.83 110.60 C 160.83 109.55 159.98 108.69 158.92 108.69 C 157.87 108.69 157.01 109.55 157.01 110.60 Z M 157.01 111.59 L 157.01 112.57 C 157.01 113.62 157.87 114.48 158.92 114.48 C 159.98 114.48 160.84 113.62 160.84 112.57 L 160.84 111.59 C 160.84 110.53 159.98 109.67 158.92 109.67 C 157.87 109.67 157.01 110.53 157.01 111.59 Z M 157.01 112.57 L 157.01 113.58 C 157.01 114.64 157.87 115.50 158.92 115.50 C 159.98 115.50 160.84 114.64 160.84 113.58 L 160.84 112.57 C 160.84 111.51 159.98 110.65 158.92 110.65 C 157.87 110.65 157.01 111.51 157.01 112.57 Z M 157.00 113.58 L 157.00 114.51 C 157.00 115.57 157.86 116.43 158.92 116.43 C 159.98 116.43 160.84 115.57 160.84 114.51 L 160.84 113.58 C 160.84 112.52 159.98 111.66 158.92 111.66 C 157.86 111.66 157.00 112.52 157.00 113.58 Z M 157.00 114.51 L 157.00 115.47 C 157.00 116.53 157.86 117.39 158.92 117.39 C 159.99 117.39 160.85 116.53 160.85 115.47 L 160.85 114.51 C 160.85 113.44 159.99 112.58 158.92 112.58 C 157.86 112.58 157.00 113.44 157.00 114.51 Z M 157.00 115.47 L 157.00 116.48 C 157.00 117.54 157.86 118.40 158.92 118.40 C 159.99 118.40 160.85 117.54 160.85 116.48 L 160.85 115.47 C 160.85 114.40 159.99 113.54 158.92 113.54 C 157.86 113.54 157.00 114.40 157.00 115.47 Z M 157.00 116.48 L 157.00 117.54 C 157.00 118.60 157.86 119.47 158.92 119.47 C 159.99 119.47 160.85 118.60 160.85 117.54 L 160.85 116.48 C 160.85 115.41 159.99 114.55 158.92 114.55 C 157.86 114.55 157.00 115.41 157.00 116.48 Z M 156.99 117.54 L 156.99 118.56 C 156.99 119.62 157.86 120.49 158.92 120.49 C 159.99 120.49 160.85 119.62 160.85 118.56 L 160.85 117.54 C 160.85 116.47 159.99 115.61 158.92 115.61 C 157.86 115.61 156.99 116.47 156.99 117.54 Z M 156.99 118.55 L 156.99 119.50 C 156.99 120.57 157.86 121.43 158.92 121.43 C 159.99 121.43 160.85 120.57 160.85 119.50 L 160.85 118.56 C 160.85 117.49 159.99 116.63 158.92 116.63 C 157.86 116.62 156.99 117.49 156.99 118.55 Z M 157.00 119.50 L 156.99 120.48 C 156.99 121.54 157.85 122.41 158.92 122.41 C 159.98 122.41 160.85 121.55 160.85 120.48 L 160.85 119.51 C 160.85 118.44 159.99 117.58 158.93 117.58 C 157.86 117.57 157.00 118.44 157.00 119.50 Z M 157.00 120.47 L 156.99 121.48 C 156.99 122.55 157.85 123.41 158.91 123.42 C 159.97 123.42 160.84 122.56 160.84 121.50 L 160.85 120.49 C 160.85 119.43 159.99 118.56 158.93 118.56 C 157.87 118.55 157.00 119.41 157.00 120.47 Z M 156.99 121.48 L 156.99 122.52 C 156.98 123.58 157.84 124.45 158.90 124.45 C 159.96 124.46 160.83 123.60 160.84 122.54 L 160.84 121.50 C 160.85 120.44 159.99 119.57 158.93 119.57 C 157.87 119.56 157.00 120.41 156.99 121.48 Z M 156.99 122.51 L 156.98 123.56 C 156.97 124.62 157.82 125.49 158.88 125.50 C 159.94 125.51 160.81 124.66 160.82 123.60 L 160.83 122.55 C 160.84 121.49 159.99 120.62 158.93 120.61 C 157.87 120.60 157.00 121.45 156.99 122.51 Z M 156.98 123.55 L 156.96 124.50 C 156.95 125.56 157.80 126.44 158.86 126.45 C 159.92 126.47 160.79 125.62 160.81 124.56 L 160.82 123.61 C 160.84 122.54 159.99 121.67 158.93 121.66 C 157.87 121.64 156.99 122.49 156.98 123.55 Z M 156.96 124.49 L 156.95 125.47 C 156.93 126.53 157.77 127.41 158.83 127.43 C 159.90 127.45 160.77 126.60 160.79 125.54 L 160.81 124.57 C 160.83 123.50 159.99 122.63 158.92 122.61 C 157.86 122.59 156.98 123.43 156.96 124.49 Z M 156.94 125.46 L 156.92 126.45 C 156.89 127.51 157.74 128.39 158.80 128.42 C 159.86 128.45 160.74 127.61 160.77 126.54 L 160.79 125.55 C 160.82 124.49 159.98 123.60 158.92 123.58 C 157.85 123.55 156.97 124.39 156.94 125.46 Z M 156.92 126.44 L 156.89 127.45 C 156.86 128.51 157.69 129.40 158.75 129.43 C 159.82 129.47 160.71 128.63 160.74 127.57 L 160.77 126.56 C 160.80 125.49 159.97 124.60 158.90 124.57 C 157.84 124.54 156.95 125.37 156.92 126.44 Z M 156.89 127.44 L 156.85 128.47 C 156.81 129.53 157.64 130.42 158.70 130.47 C 159.77 130.51 160.66 129.68 160.70 128.61 L 160.74 127.58 C 160.78 126.52 159.95 125.62 158.89 125.58 C 157.82 125.54 156.93 126.37 156.89 127.44 Z M 156.85 128.45 L 156.80 129.50 C 156.75 130.56 157.57 131.46 158.64 131.51 C 159.70 131.56 160.60 130.74 160.65 129.67 L 160.70 128.63 C 160.75 127.56 159.93 126.66 158.86 126.61 C 157.80 126.56 156.90 127.39 156.85 128.45 Z M 156.80 129.48 L 156.75 130.43 C 156.69 131.50 157.50 132.41 158.57 132.47 C 159.63 132.53 160.54 131.71 160.60 130.65 L 160.65 129.69 C 160.71 128.63 159.90 127.72 158.83 127.66 C 157.77 127.60 156.86 128.41 156.80 129.48 Z M 156.75 130.42 L 156.69 131.39 C 156.62 132.45 157.43 133.37 158.49 133.43 C 159.56 133.50 160.47 132.69 160.54 131.63 L 160.60 130.66 C 160.67 129.60 159.86 128.68 158.79 128.61 C 157.73 128.55 156.81 129.36 156.75 130.42 Z M 156.69 131.37 L 156.62 132.35 C 156.55 133.42 157.35 134.34 158.41 134.41 C 159.47 134.49 160.40 133.69 160.47 132.62 L 160.54 131.64 C 160.61 130.58 159.81 129.66 158.75 129.58 C 157.68 129.51 156.76 130.31 156.69 131.37 Z M 156.62 132.34 L 156.55 133.34 C 156.46 134.40 157.26 135.33 158.32 135.41 C 159.39 135.49 160.31 134.69 160.39 133.63 L 160.47 132.63 C 160.55 131.57 159.75 130.64 158.69 130.56 C 157.63 130.48 156.70 131.28 156.62 132.34 Z M 156.55 133.33 L 156.46 134.34 C 156.38 135.40 157.17 136.33 158.23 136.42 C 159.29 136.51 160.22 135.72 160.31 134.65 L 160.39 133.64 C 160.48 132.58 159.69 131.65 158.63 131.56 C 157.56 131.47 156.63 132.27 156.55 133.33 Z M 156.46 134.33 L 156.38 135.36 C 156.28 136.42 157.07 137.36 158.13 137.45 C 159.19 137.54 160.13 136.75 160.22 135.69 L 160.31 134.66 C 160.40 133.60 159.61 132.67 158.55 132.57 C 157.49 132.48 156.56 133.27 156.46 134.33 Z M 156.38 135.35 L 156.28 136.38 C 156.19 137.45 156.97 138.38 158.03 138.48 C 159.09 138.58 160.03 137.79 160.13 136.73 L 160.22 135.70 C 160.32 134.64 159.53 133.70 158.47 133.60 C 157.41 133.51 156.47 134.29 156.38 135.35 Z M 156.28 136.38 L 156.19 137.34 C 156.09 138.40 156.87 139.34 157.93 139.44 C 159.00 139.54 159.94 138.76 160.04 137.70 L 160.13 136.74 C 160.23 135.68 159.45 134.74 158.38 134.64 C 157.32 134.54 156.38 135.32 156.28 136.38 Z M 156.19 137.33 L 156.10 138.31 C 156.00 139.37 156.77 140.31 157.84 140.42 C 158.90 140.52 159.84 139.74 159.94 138.68 L 160.04 137.71 C 160.14 136.64 159.36 135.70 158.30 135.60 C 157.24 135.50 156.30 136.27 156.19 137.33 Z M 156.10 138.31 L 156.00 139.29 C 155.90 140.35 156.67 141.30 157.73 141.40 C 158.79 141.51 159.74 140.73 159.84 139.67 L 159.94 138.68 C 160.05 137.62 159.27 136.68 158.21 136.57 C 157.15 136.47 156.20 137.25 156.10 138.31 Z M 156.00 139.29 L 155.90 140.29 C 155.80 141.35 156.57 142.30 157.63 142.40 C 158.69 142.51 159.64 141.73 159.74 140.67 L 159.84 139.68 C 159.95 138.62 159.18 137.67 158.12 137.56 C 157.05 137.46 156.11 138.23 156.00 139.29 Z M 155.90 140.29 L 155.80 141.29 C 155.69 142.35 156.47 143.30 157.53 143.41 C 158.59 143.52 159.53 142.74 159.64 141.68 L 159.74 140.68 C 159.85 139.62 159.08 138.67 158.02 138.56 C 156.96 138.45 156.01 139.23 155.90 140.29 Z M 155.80 141.29 L 155.70 142.31 C 155.59 143.37 156.36 144.31 157.42 144.42 C 158.48 144.53 159.43 143.76 159.54 142.70 L 159.64 141.68 C 159.75 140.62 158.98 139.68 157.92 139.57 C 156.86 139.46 155.91 140.23 155.80 141.29 Z M 155.70 142.30 L 155.59 143.32 C 155.48 144.38 156.25 145.33 157.32 145.44 C 158.38 145.55 159.32 144.78 159.43 143.72 L 159.54 142.70 C 159.65 141.64 158.88 140.69 157.81 140.58 C 156.75 140.47 155.81 141.24 155.70 142.30 Z M 155.59 143.32 L 155.49 144.32 C 155.38 145.38 156.15 146.33 157.21 146.43 C 158.28 146.54 159.22 145.77 159.33 144.71 L 159.43 143.72 C 159.54 142.66 158.77 141.71 157.71 141.60 C 156.65 141.49 155.70 142.26 155.59 143.32 Z M 155.49 144.32 L 155.39 145.29 C 155.28 146.35 156.05 147.30 157.11 147.41 C 158.18 147.52 159.12 146.75 159.23 145.69 L 159.33 144.71 C 159.44 143.65 158.67 142.70 157.61 142.59 C 156.55 142.48 155.60 143.25 155.49 144.32 Z M 155.39 145.29 L 155.29 146.27 C 155.18 147.33 155.95 148.28 157.01 148.39 C 158.08 148.50 159.02 147.73 159.13 146.67 L 159.23 145.69 C 159.34 144.62 158.57 143.67 157.51 143.57 C 156.45 143.46 155.50 144.23 155.39 145.29 Z M 155.29 146.27 L 155.19 147.26 C 155.08 148.32 155.85 149.27 156.91 149.38 C 157.97 149.49 158.92 148.71 159.03 147.65 L 159.13 146.67 C 159.24 145.60 158.47 144.65 157.41 144.54 C 156.35 144.44 155.40 145.21 155.29 146.27 Z M 155.19 147.26 L 155.08 148.25 C 154.97 149.31 155.75 150.26 156.81 150.37 C 157.87 150.48 158.82 149.71 158.93 148.64 L 159.03 147.65 C 159.14 146.59 158.37 145.64 157.31 145.53 C 156.24 145.42 155.29 146.19 155.19 147.26 Z M 155.08 148.25 L 154.98 149.25 C 154.87 150.31 155.64 151.26 156.71 151.37 C 157.77 151.48 158.72 150.71 158.83 149.64 L 158.93 148.64 C 159.04 147.58 158.27 146.63 157.21 146.52 C 156.14 146.41 155.19 147.18 155.08 148.25 Z M 154.98 149.25 L 154.87 150.26 C 154.76 151.32 155.54 152.27 156.60 152.38 C 157.66 152.49 158.62 151.72 158.73 150.66 L 158.83 149.65 C 158.94 148.58 158.17 147.63 157.10 147.52 C 156.04 147.41 155.09 148.18 154.98 149.25 Z M 154.87 150.25 L 154.77 151.28 C 154.66 152.34 155.43 153.29 156.49 153.40 C 157.56 153.51 158.51 152.74 158.62 151.68 L 158.73 150.66 C 158.84 149.59 158.06 148.64 157.00 148.53 C 155.94 148.42 154.98 149.19 154.87 150.25 Z M 154.77 151.27 L 154.66 152.26 C 154.55 153.33 155.32 154.28 156.39 154.39 C 157.45 154.50 158.41 153.73 158.52 152.67 L 158.62 151.68 C 158.73 150.61 157.96 149.66 156.90 149.55 C 155.83 149.44 154.88 150.21 154.77 151.27 Z M 154.66 152.26 L 154.56 153.23 C 154.45 154.30 155.22 155.25 156.28 155.36 C 157.35 155.48 158.30 154.70 158.41 153.64 L 158.52 152.67 C 158.63 151.60 157.86 150.65 156.79 150.54 C 155.73 150.42 154.78 151.20 154.66 152.26 Z M 154.56 153.23 L 154.46 154.21 C 154.34 155.28 155.11 156.23 156.18 156.35 C 157.24 156.46 158.20 155.69 158.31 154.62 L 158.41 153.64 C 158.53 152.58 157.76 151.62 156.69 151.51 C 155.63 151.40 154.67 152.17 154.56 153.23 Z M 154.46 154.21 L 154.35 155.20 C 154.24 156.27 155.01 157.22 156.07 157.34 C 157.14 157.45 158.09 156.68 158.21 155.61 L 158.31 154.62 C 158.42 153.56 157.65 152.60 156.59 152.49 C 155.52 152.38 154.57 153.15 154.46 154.21 Z M 154.35 155.20 L 154.24 156.20 C 154.13 157.26 154.90 158.22 155.97 158.33 C 157.03 158.45 157.99 157.68 158.10 156.61 L 158.21 155.61 C 158.32 154.55 157.55 153.59 156.48 153.48 C 155.42 153.37 154.46 154.14 154.35 155.20 Z M 154.24 156.20 L 154.14 157.20 C 154.02 158.27 154.79 159.22 155.86 159.34 C 156.92 159.45 157.88 158.68 157.99 157.61 L 158.10 156.61 C 158.21 155.55 157.44 154.59 156.38 154.48 C 155.31 154.36 154.36 155.13 154.24 156.20 Z M 154.14 157.20 L 154.03 158.21 C 153.91 159.27 154.68 160.23 155.75 160.34 C 156.82 160.46 157.77 159.69 157.88 158.62 L 157.99 157.61 C 158.11 156.55 157.34 155.59 156.27 155.48 C 155.21 155.36 154.25 156.14 154.14 157.20 Z M 154.03 158.21 L 153.92 159.22 C 153.81 160.28 154.58 161.24 155.64 161.35 C 156.71 161.47 157.66 160.70 157.78 159.63 L 157.89 158.62 C 158.00 157.56 157.23 156.60 156.16 156.49 C 155.10 156.37 154.14 157.14 154.03 158.21 Z M 153.92 159.22 L 153.81 160.23 C 153.70 161.30 154.47 162.25 155.53 162.37 C 156.60 162.48 157.55 161.71 157.67 160.65 L 157.78 159.63 C 157.89 158.57 157.12 157.61 156.05 157.50 C 154.99 157.38 154.03 158.15 153.92 159.22 Z M 153.81 160.23 L 153.70 161.23 C 153.59 162.30 154.36 163.25 155.43 163.37 C 156.49 163.48 157.45 162.71 157.56 161.64 L 157.67 160.64 C 157.78 159.58 157.01 158.62 155.95 158.51 C 154.88 158.40 153.92 159.17 153.81 160.23 Z M 153.70 161.23 L 153.60 162.23 C 153.48 163.30 154.26 164.25 155.32 164.37 C 156.39 164.48 157.34 163.71 157.45 162.65 L 157.56 161.64 C 157.68 160.58 156.90 159.62 155.84 159.51 C 154.77 159.40 153.82 160.17 153.70 161.23 Z M 153.60 162.23 L 153.49 163.23 C 153.38 164.30 154.15 165.25 155.21 165.37 C 156.28 165.48 157.23 164.71 157.35 163.65 L 157.45 162.65 C 157.57 161.58 156.80 160.63 155.73 160.51 C 154.67 160.40 153.71 161.17 153.60 162.23 Z M 153.49 163.23 L 153.39 164.23 C 153.27 165.30 154.04 166.25 155.11 166.37 C 156.17 166.48 157.13 165.71 157.24 164.65 L 157.35 163.65 C 157.46 162.58 156.69 161.63 155.63 161.51 C 154.56 161.40 153.61 162.17 153.49 163.23 Z M 153.39 164.23 L 153.28 165.23 C 153.16 166.29 153.94 167.25 155.00 167.36 C 156.06 167.48 157.02 166.71 157.13 165.64 L 157.24 164.65 C 157.35 163.58 156.58 162.63 155.52 162.51 C 154.45 162.40 153.50 163.17 153.39 164.23 Z M 153.28 165.23 L 153.17 166.22 C 153.06 167.29 153.83 168.24 154.89 168.36 C 155.96 168.47 156.91 167.70 157.03 166.64 L 157.13 165.64 C 157.25 164.58 156.48 163.62 155.41 163.51 C 154.35 163.40 153.39 164.16 153.28 165.23 Z M 153.17 166.22 L 153.07 167.21 C 152.95 168.27 153.72 169.23 154.78 169.34 C 155.85 169.46 156.80 168.69 156.92 167.63 L 157.03 166.64 C 157.14 165.57 156.37 164.62 155.31 164.50 C 154.24 164.39 153.29 165.16 153.17 166.22 Z M 153.07 167.21 L 152.96 168.19 C 152.84 169.26 153.61 170.21 154.68 170.33 C 155.74 170.44 156.70 169.67 156.81 168.61 L 156.92 167.63 C 157.03 166.56 156.26 165.61 155.20 165.49 C 154.14 165.38 153.18 166.15 153.07 167.21 Z M 152.96 168.19 L 152.85 169.19 C 152.74 170.25 153.50 171.21 154.57 171.33 C 155.63 171.44 156.58 170.68 156.70 169.61 L 156.81 168.61 C 156.93 167.55 156.16 166.59 155.10 166.48 C 154.03 166.36 153.08 167.13 152.96 168.19 Z M 152.85 169.19 L 152.74 170.21 C 152.62 171.28 153.39 172.23 154.45 172.35 C 155.51 172.47 156.47 171.70 156.59 170.64 L 156.70 169.61 C 156.82 168.55 156.05 167.59 154.99 167.48 C 153.93 167.36 152.97 168.13 152.85 169.19 Z M 152.74 170.21 L 152.63 171.23 C 152.51 172.29 153.28 173.25 154.34 173.36 C 155.40 173.48 156.36 172.72 156.47 171.65 L 156.59 170.64 C 156.70 169.58 155.94 168.62 154.88 168.50 C 153.81 168.39 152.86 169.15 152.74 170.21 Z M 152.63 171.23 L 152.52 172.24 C 152.40 173.30 153.17 174.25 154.23 174.37 C 155.29 174.49 156.25 173.72 156.36 172.66 L 156.47 171.65 C 156.59 170.59 155.82 169.64 154.76 169.52 C 153.70 169.40 152.75 170.17 152.63 171.23 Z M 152.52 172.24 L 152.41 173.24 C 152.29 174.30 153.06 175.25 154.12 175.37 C 155.18 175.48 156.14 174.72 156.25 173.66 L 156.36 172.66 C 156.48 171.60 155.71 170.64 154.65 170.53 C 153.59 170.41 152.64 171.18 152.52 172.24 Z M 152.41 173.24 L 152.30 174.23 C 152.19 175.29 152.96 176.24 154.02 176.35 C 155.08 176.47 156.03 175.70 156.14 174.64 L 156.25 173.65 C 156.37 172.59 155.60 171.64 154.54 171.53 C 153.48 171.41 152.53 172.18 152.41 173.24 Z M 152.30 174.23 L 152.20 175.21 C 152.09 176.27 152.85 177.22 153.91 177.33 C 154.98 177.44 155.93 176.68 156.04 175.62 L 156.14 174.64 C 156.26 173.58 155.49 172.63 154.43 172.51 C 153.37 172.40 152.42 173.17 152.30 174.23 Z M 152.20 175.21 L 152.10 176.18 C 151.99 177.24 152.76 178.18 153.82 178.30 C 154.88 178.41 155.83 177.64 155.94 176.58 L 156.04 175.61 C 156.15 174.55 155.38 173.60 154.32 173.49 C 153.26 173.38 152.31 174.15 152.20 175.21 Z M 152.10 176.18 L 152.00 177.15 C 151.89 178.21 152.66 179.16 153.72 179.27 C 154.78 179.38 155.73 178.60 155.84 177.54 L 155.94 176.57 C 156.05 175.51 155.27 174.57 154.22 174.46 C 153.16 174.35 152.21 175.12 152.10 176.18 Z M 152.00 177.16 L 151.90 178.18 C 151.79 179.24 152.57 180.18 153.63 180.29 C 154.69 180.40 155.63 179.62 155.73 178.56 L 155.84 177.54 C 155.94 176.48 155.17 175.54 154.11 175.43 C 153.05 175.33 152.11 176.10 152.00 177.16 Z M 151.90 178.19 L 151.80 179.20 C 151.70 180.26 152.48 181.20 153.53 181.30 C 154.59 181.40 155.53 180.63 155.64 179.57 L 155.73 178.56 C 155.84 177.50 155.06 176.56 154.00 176.46 C 152.94 176.35 152.00 177.13 151.90 178.19 Z M 151.81 179.21 L 151.71 180.21 C 151.61 181.27 152.39 182.20 153.45 182.30 C 154.50 182.40 155.44 181.62 155.54 180.57 L 155.63 179.56 C 155.73 178.51 154.96 177.57 153.90 177.47 C 152.84 177.37 151.90 178.15 151.81 179.21 Z M 151.71 180.21 L 151.62 181.21 C 151.53 182.26 152.31 183.20 153.36 183.29 C 154.42 183.39 155.35 182.61 155.45 181.55 L 155.54 180.56 C 155.63 179.50 154.86 178.57 153.80 178.47 C 152.74 178.38 151.81 179.16 151.71 180.21 Z M 151.63 181.21 L 151.54 182.20 C 151.45 183.25 152.23 184.18 153.28 184.28 C 154.34 184.37 155.27 183.59 155.36 182.53 L 155.45 181.55 C 155.54 180.49 154.76 179.56 153.70 179.47 C 152.65 179.38 151.72 180.16 151.63 181.21 Z M 151.54 182.20 L 151.46 183.18 C 151.37 184.24 152.15 185.16 153.20 185.25 C 154.26 185.34 155.18 184.56 155.27 183.51 L 155.36 182.53 C 155.45 181.47 154.67 180.55 153.61 180.46 C 152.56 180.37 151.63 181.15 151.54 182.20 Z M 151.46 183.19 L 151.38 184.16 C 151.29 185.21 152.07 186.14 153.13 186.23 C 154.18 186.31 155.10 185.53 155.19 184.48 L 155.27 183.50 C 155.36 182.45 154.58 181.52 153.52 181.44 C 152.47 181.35 151.55 182.13 151.46 183.19 Z M 151.38 184.17 L 151.30 185.21 C 151.21 186.26 152.00 187.18 153.05 187.26 C 154.10 187.35 155.02 186.56 155.11 185.51 L 155.19 184.47 C 155.27 183.42 154.49 182.50 153.44 182.42 C 152.39 182.33 151.46 183.11 151.38 184.17 Z M 151.30 185.21 L 151.22 186.28 C 151.13 187.33 151.92 188.24 152.97 188.33 C 154.02 188.41 154.94 187.62 155.02 186.57 L 155.10 185.51 C 155.18 184.46 154.40 183.54 153.35 183.46 C 152.30 183.38 151.38 184.16 151.30 185.21 Z M 151.22 186.28 L 151.14 187.33 C 151.06 188.38 151.85 189.29 152.90 189.37 C 153.94 189.45 154.86 188.66 154.94 187.62 L 155.02 186.57 C 155.09 185.52 154.31 184.61 153.26 184.53 C 152.21 184.45 151.30 185.23 151.22 186.28 Z M 151.14 187.34 L 151.07 188.36 C 150.99 189.40 151.78 190.31 152.83 190.39 C 153.87 190.47 154.78 189.68 154.86 188.63 L 154.93 187.61 C 155.01 186.56 154.22 185.65 153.18 185.58 C 152.13 185.50 151.22 186.29 151.14 187.34 Z M 151.07 188.36 L 151.00 189.35 C 150.93 190.40 151.72 191.30 152.77 191.37 C 153.81 191.45 154.72 190.66 154.79 189.61 L 154.86 188.63 C 154.93 187.58 154.14 186.67 153.09 186.60 C 152.05 186.53 151.14 187.32 151.07 188.36 Z M 151.01 189.36 L 150.95 190.30 C 150.88 191.35 151.67 192.25 152.71 192.31 C 153.75 192.38 154.66 191.59 154.72 190.55 L 154.78 189.60 C 154.85 188.56 154.06 187.66 153.02 187.59 C 151.98 187.53 151.08 188.32 151.01 189.36 Z M 150.95 190.31 L 150.90 191.20 C 150.83 192.24 151.63 193.14 152.67 193.20 C 153.71 193.27 154.60 192.47 154.67 191.43 L 154.72 190.54 C 154.78 189.50 153.99 188.60 152.95 188.54 C 151.91 188.48 151.01 189.27 150.95 190.31 Z M 150.90 191.22 L 150.84 192.35 C 150.78 193.39 151.58 194.28 152.62 194.33 C 153.66 194.39 154.54 193.59 154.60 192.55 L 154.66 191.42 C 154.72 190.38 153.92 189.49 152.88 189.44 C 151.84 189.38 150.96 190.18 150.90 191.22 Z M 150.85 192.37 L 150.80 193.45 C 150.75 194.49 151.55 195.36 152.59 195.41 C 153.62 195.46 154.50 194.65 154.54 193.62 L 154.59 192.54 C 154.64 191.50 153.84 190.63 152.80 190.58 C 151.77 190.53 150.89 191.33 150.85 192.37 Z M 150.81 193.47 L 150.77 194.45 C 150.73 195.48 151.54 196.35 152.57 196.38 C 153.60 196.42 154.46 195.62 154.50 194.59 L 154.54 193.60 C 154.57 192.57 153.77 191.71 152.74 191.67 C 151.71 191.63 150.84 192.44 150.81 193.47 Z M 150.78 194.47 L 150.75 195.37 C 150.73 196.40 151.53 197.25 152.56 197.28 C 153.58 197.31 154.44 196.50 154.47 195.47 L 154.49 194.57 C 154.52 193.55 153.71 192.69 152.69 192.66 C 151.66 192.64 150.81 193.44 150.78 194.47 Z M 150.76 195.39 L 150.75 196.27 C 150.73 197.29 151.54 198.13 152.56 198.15 C 153.58 198.17 154.42 197.36 154.44 196.34 L 154.46 195.46 C 154.48 194.44 153.67 193.60 152.65 193.58 C 151.63 193.56 150.78 194.37 150.76 195.39 Z M 150.76 196.28 L 150.75 197.33 C 150.73 198.35 151.55 199.18 152.56 199.19 C 153.57 199.20 154.41 198.39 154.42 197.38 L 154.43 196.32 C 154.44 195.31 153.63 194.48 152.61 194.47 C 151.60 194.46 150.77 195.27 150.76 196.28 Z M 150.76 197.35 L 150.76 198.35 C 150.76 199.35 151.57 200.17 152.58 200.17 C 153.58 200.17 154.40 199.35 154.40 198.35 L 154.40 197.36 C 154.40 196.35 153.59 195.53 152.58 195.53 C 151.58 195.53 150.76 196.35 150.76 197.35 Z M 150.77 198.37 L 150.78 199.32 C 150.79 200.32 151.61 201.12 152.61 201.11 C 153.61 201.10 154.41 200.29 154.40 199.29 L 154.39 198.33 C 154.38 197.33 153.56 196.53 152.56 196.54 C 151.56 196.55 150.76 197.37 150.77 198.37 Z M 150.80 199.36 L 150.83 200.43 C 150.86 201.41 151.68 202.19 152.67 202.17 C 153.66 202.14 154.44 201.31 154.41 200.32 L 154.38 199.26 C 154.35 198.27 153.53 197.49 152.54 197.52 C 151.55 197.54 150.77 198.37 150.80 199.36 Z M 150.86 200.59 L 150.99 201.63 C 151.11 202.60 151.99 203.29 152.96 203.17 C 153.93 203.06 154.62 202.17 154.51 201.20 L 154.38 200.16 C 154.26 199.19 153.38 198.50 152.41 198.62 C 151.43 198.73 150.74 199.62 150.86 200.59 Z M 151.13 202.09 L 151.47 202.91 C 151.84 203.80 152.87 204.22 153.76 203.85 C 154.66 203.48 155.08 202.45 154.70 201.56 L 154.36 200.74 C 153.99 199.85 152.97 199.43 152.07 199.80 C 151.18 200.17 150.76 201.20 151.13 202.09 Z M 152.12 203.65 L 152.83 204.14 C 153.61 204.68 154.69 204.47 155.22 203.69 C 155.76 202.90 155.56 201.83 154.77 201.29 L 154.06 200.81 C 153.27 200.27 152.20 200.47 151.67 201.26 C 151.13 202.05 151.33 203.12 152.12 203.65 Z M 153.75 204.40 L 154.73 204.43 C 155.66 204.45 156.43 203.72 156.46 202.79 C 156.48 201.87 155.75 201.09 154.82 201.07 L 153.85 201.04 C 152.92 201.01 152.15 201.74 152.12 202.67 C 152.09 203.60 152.82 204.37 153.75 204.40 Z M 155.43 204.25 L 156.39 203.83 C 157.22 203.46 157.60 202.50 157.24 201.67 C 156.88 200.84 155.91 200.46 155.08 200.83 L 154.12 201.25 C 153.29 201.61 152.91 202.57 153.28 203.40 C 153.64 204.23 154.60 204.61 155.43 204.25 Z M 156.83 203.49 L 157.43 202.92 C 158.07 202.32 158.10 201.32 157.50 200.67 C 156.90 200.03 155.89 200.00 155.25 200.60 L 154.65 201.16 C 154.01 201.76 153.97 202.77 154.57 203.41 C 155.18 204.06 156.18 204.09 156.83 203.49 Z M 157.61 202.65 L 158.15 201.88 C 158.64 201.18 158.47 200.21 157.77 199.72 C 157.07 199.23 156.10 199.40 155.61 200.10 L 155.07 200.87 C 154.58 201.57 154.75 202.54 155.45 203.03 C 156.15 203.52 157.12 203.35 157.61 202.65 Z M 158.22 201.68 L 158.72 200.72 C 159.10 199.98 158.81 199.07 158.07 198.69 C 157.33 198.31 156.43 198.59 156.04 199.33 L 155.54 200.30 C 155.16 201.04 155.45 201.94 156.19 202.33 C 156.93 202.71 157.83 202.42 158.22 201.68 Z M 158.73 200.60 L 159.18 199.54 C 159.49 198.79 159.14 197.93 158.40 197.62 C 157.65 197.30 156.79 197.65 156.48 198.40 L 156.03 199.45 C 155.71 200.20 156.06 201.06 156.81 201.37 C 157.55 201.69 158.41 201.34 158.73 200.60 Z M 159.18 199.48 L 159.53 198.55 C 159.81 197.81 159.43 196.97 158.69 196.69 C 157.94 196.41 157.10 196.78 156.82 197.53 L 156.47 198.46 C 156.19 199.20 156.57 200.04 157.32 200.32 C 158.07 200.60 158.90 200.23 159.18 199.48 Z M 159.54 198.51 L 159.88 197.54 C 160.14 196.79 159.74 195.97 158.99 195.71 C 158.23 195.45 157.41 195.85 157.15 196.60 L 156.81 197.57 C 156.55 198.32 156.95 199.14 157.70 199.41 C 158.46 199.67 159.28 199.27 159.54 198.51 Z M 159.88 197.51 L 160.20 196.52 C 160.44 195.77 160.02 194.96 159.27 194.71 C 158.51 194.47 157.70 194.89 157.46 195.64 L 157.14 196.63 C 156.90 197.39 157.32 198.20 158.07 198.44 C 158.83 198.68 159.64 198.26 159.88 197.51 Z M 160.20 196.49 L 160.49 195.52 C 160.72 194.76 160.28 193.96 159.52 193.74 C 158.77 193.52 157.97 193.95 157.74 194.71 L 157.46 195.68 C 157.23 196.43 157.66 197.23 158.42 197.46 C 159.18 197.68 159.98 197.25 160.20 196.49 Z M 160.50 195.49 L 160.74 194.57 C 160.95 193.81 160.50 193.03 159.74 192.82 C 158.98 192.61 158.19 193.06 157.99 193.82 L 157.74 194.74 C 157.53 195.50 157.98 196.29 158.74 196.49 C 159.50 196.70 160.29 196.25 160.50 195.49 Z M 160.75 194.53 L 161.02 193.42 C 161.20 192.65 160.73 191.88 159.96 191.70 C 159.19 191.52 158.43 191.99 158.24 192.75 L 157.98 193.87 C 157.80 194.63 158.27 195.40 159.03 195.58 C 159.80 195.77 160.57 195.29 160.75 194.53 Z M 161.03 193.37 L 161.23 192.37 C 161.38 191.60 160.88 190.85 160.11 190.69 C 159.34 190.54 158.59 191.04 158.43 191.81 L 158.23 192.80 C 158.08 193.58 158.58 194.33 159.35 194.48 C 160.12 194.64 160.87 194.14 161.03 193.37 Z M 161.24 192.33 L 161.39 191.41 C 161.53 190.63 161.01 189.90 160.23 189.76 C 159.45 189.63 158.72 190.15 158.58 190.93 L 158.43 191.85 C 158.29 192.62 158.81 193.36 159.59 193.49 C 160.36 193.63 161.10 193.11 161.24 192.33 Z M 161.40 191.39 L 161.52 190.58 C 161.64 189.80 161.11 189.07 160.33 188.95 C 159.56 188.83 158.83 189.36 158.71 190.14 L 158.58 190.95 C 158.46 191.73 158.99 192.45 159.77 192.58 C 160.55 192.70 161.28 192.17 161.40 191.39 Z"
      fill="black"
      fill-rule="nonzero" /><path d="M 162.61 108.36 L 161.56 107.62 C 160.84 107.12 159.85 107.30 159.35 108.02 C 158.84 108.74 159.02 109.73 159.74 110.23 L 160.79 110.97 C 161.51 111.47 162.50 111.29 163.00 110.57 C 163.51 109.85 163.33 108.86 162.61 108.36 Z M 161.69 107.70 L 160.91 107.03 C 160.23 106.45 159.21 106.53 158.64 107.20 C 158.06 107.88 158.14 108.90 158.81 109.48 L 159.60 110.15 C 160.28 110.73 161.29 110.65 161.87 109.97 C 162.45 109.30 162.37 108.28 161.69 107.70 Z M 161.34 107.57 L 161.09 107.02 C 160.71 106.20 159.74 105.84 158.92 106.22 C 158.10 106.60 157.75 107.57 158.12 108.39 L 158.37 108.94 C 158.75 109.76 159.72 110.11 160.54 109.74 C 161.36 109.36 161.72 108.39 161.34 107.57 Z M 160.67 108.96 L 161.10 108.60 C 161.80 108.01 161.88 106.97 161.30 106.28 C 160.71 105.58 159.67 105.49 158.98 106.08 L 158.54 106.45 C 157.85 107.03 157.76 108.07 158.35 108.77 C 158.94 109.46 159.97 109.55 160.67 108.96 Z M 160.46 108.93 L 161.42 108.67 C 162.30 108.44 162.83 107.54 162.59 106.66 C 162.36 105.78 161.46 105.26 160.58 105.49 L 159.62 105.75 C 158.74 105.98 158.22 106.88 158.45 107.76 C 158.68 108.64 159.58 109.16 160.46 108.93 Z M 161.27 108.71 L 162.55 108.50 C 163.44 108.35 164.05 107.51 163.91 106.61 C 163.76 105.71 162.92 105.10 162.02 105.25 L 160.74 105.46 C 159.84 105.60 159.23 106.45 159.38 107.35 C 159.52 108.24 160.37 108.85 161.27 108.71 Z M 162.53 108.50 L 163.51 108.35 C 164.41 108.21 165.03 107.37 164.89 106.47 C 164.75 105.57 163.91 104.96 163.01 105.10 L 162.03 105.25 C 161.13 105.38 160.52 106.23 160.66 107.12 C 160.79 108.02 161.63 108.64 162.53 108.50 Z M 163.53 108.35 L 164.47 108.19 C 165.37 108.05 165.98 107.20 165.83 106.30 C 165.68 105.41 164.84 104.80 163.94 104.94 L 163.00 105.10 C 162.10 105.24 161.49 106.09 161.64 106.99 C 161.78 107.89 162.63 108.49 163.53 108.35 Z M 164.49 108.19 L 165.47 108.02 C 166.36 107.86 166.96 107.01 166.81 106.11 C 166.65 105.22 165.80 104.62 164.90 104.77 L 163.92 104.95 C 163.02 105.10 162.42 105.96 162.58 106.85 C 162.74 107.75 163.59 108.35 164.49 108.19 Z M 165.49 108.02 L 166.51 107.83 C 167.40 107.66 167.99 106.80 167.82 105.90 C 167.65 105.01 166.79 104.42 165.90 104.59 L 164.88 104.78 C 163.98 104.95 163.39 105.81 163.56 106.70 C 163.73 107.60 164.59 108.19 165.49 108.02 Z M 166.53 107.82 L 167.59 107.61 C 168.48 107.43 169.06 106.55 168.88 105.66 C 168.70 104.77 167.82 104.19 166.93 104.37 L 165.87 104.59 C 164.98 104.77 164.40 105.64 164.58 106.54 C 164.77 107.43 165.64 108.01 166.53 107.82 Z M 167.61 107.60 L 168.63 107.38 C 169.52 107.19 170.08 106.31 169.89 105.41 C 169.69 104.52 168.81 103.96 167.92 104.15 L 166.91 104.38 C 166.02 104.57 165.45 105.45 165.65 106.34 C 165.84 107.23 166.72 107.80 167.61 107.60 Z M 168.65 107.38 L 169.67 107.14 C 170.56 106.94 171.12 106.05 170.91 105.16 C 170.70 104.27 169.82 103.71 168.93 103.92 L 167.90 104.16 C 167.01 104.36 166.46 105.25 166.66 106.14 C 166.87 107.03 167.76 107.59 168.65 107.38 Z M 169.69 107.14 L 170.69 106.90 C 171.58 106.69 172.13 105.79 171.92 104.90 C 171.70 104.01 170.81 103.47 169.92 103.68 L 168.91 103.92 C 168.02 104.14 167.47 105.03 167.69 105.92 C 167.90 106.81 168.80 107.36 169.69 107.14 Z M 170.71 106.90 L 171.67 106.66 C 172.56 106.44 173.10 105.54 172.88 104.65 C 172.66 103.76 171.76 103.22 170.87 103.44 L 169.91 103.68 C 169.02 103.90 168.48 104.80 168.70 105.69 C 168.92 106.58 169.82 107.12 170.71 106.90 Z M 171.68 106.66 L 172.58 106.43 C 173.47 106.20 174.01 105.30 173.78 104.41 C 173.56 103.52 172.65 102.99 171.76 103.21 L 170.87 103.44 C 169.98 103.67 169.44 104.57 169.66 105.46 C 169.89 106.35 170.79 106.88 171.68 106.66 Z M 172.59 106.43 L 173.46 106.20 C 174.35 105.97 174.88 105.07 174.65 104.18 C 174.42 103.29 173.52 102.76 172.63 102.99 L 171.76 103.21 C 170.87 103.44 170.33 104.35 170.56 105.24 C 170.79 106.13 171.70 106.66 172.59 106.43 Z M 173.47 106.20 L 174.31 105.98 C 175.20 105.74 175.73 104.83 175.49 103.94 C 175.26 103.06 174.35 102.53 173.46 102.76 L 172.62 102.99 C 171.73 103.22 171.20 104.14 171.44 105.02 C 171.67 105.91 172.59 106.44 173.47 106.20 Z M 174.33 105.98 L 175.19 105.74 C 176.08 105.49 176.60 104.57 176.35 103.69 C 176.11 102.80 175.19 102.28 174.30 102.53 L 173.44 102.77 C 172.55 103.01 172.03 103.93 172.28 104.82 C 172.53 105.70 173.44 106.22 174.33 105.98 Z M 175.21 105.73 L 176.19 105.45 C 177.08 105.19 177.59 104.27 177.33 103.39 C 177.07 102.50 176.15 101.99 175.27 102.25 L 174.29 102.53 C 173.40 102.79 172.89 103.71 173.15 104.60 C 173.40 105.48 174.33 105.99 175.21 105.73 Z M 176.21 105.45 L 177.40 105.09 C 178.28 104.83 178.78 103.90 178.52 103.02 C 178.26 102.13 177.33 101.63 176.44 101.89 L 175.25 102.25 C 174.37 102.51 173.87 103.44 174.13 104.33 C 174.39 105.21 175.32 105.71 176.21 105.45 Z M 177.41 105.09 L 178.27 104.83 C 179.15 104.56 179.65 103.63 179.38 102.75 C 179.11 101.86 178.18 101.36 177.30 101.63 L 176.43 101.89 C 175.55 102.16 175.05 103.09 175.32 103.98 C 175.59 104.86 176.52 105.36 177.41 105.09 Z M 178.27 104.84 L 179.18 104.56 C 180.07 104.29 180.57 103.35 180.29 102.46 C 180.02 101.58 179.09 101.08 178.20 101.35 L 177.29 101.63 C 176.40 101.90 175.91 102.84 176.18 103.72 C 176.45 104.61 177.39 105.11 178.27 104.84 Z M 179.19 104.56 L 180.15 104.26 C 181.04 103.99 181.54 103.05 181.27 102.16 C 180.99 101.27 180.05 100.77 179.16 101.05 L 178.20 101.35 C 177.31 101.62 176.81 102.56 177.08 103.45 C 177.36 104.34 178.30 104.84 179.19 104.56 Z M 180.16 104.27 L 181.17 103.96 C 182.06 103.68 182.55 102.74 182.28 101.84 C 182.00 100.95 181.06 100.46 180.17 100.73 L 179.16 101.04 C 178.27 101.32 177.77 102.26 178.05 103.15 C 178.32 104.05 179.27 104.54 180.16 104.27 Z M 181.17 103.96 L 182.19 103.64 C 183.08 103.37 183.58 102.42 183.30 101.52 C 183.03 100.63 182.08 100.13 181.18 100.41 L 180.16 100.73 C 179.27 101.00 178.77 101.95 179.05 102.85 C 179.33 103.74 180.28 104.24 181.17 103.96 Z M 182.19 103.65 L 183.20 103.33 C 184.10 103.05 184.60 102.10 184.32 101.20 C 184.04 100.31 183.08 99.81 182.19 100.09 L 181.18 100.40 C 180.28 100.68 179.78 101.64 180.06 102.53 C 180.34 103.43 181.30 103.93 182.19 103.65 Z M 183.21 103.34 L 184.19 103.03 C 185.08 102.75 185.58 101.79 185.30 100.89 C 185.02 99.99 184.06 99.49 183.16 99.78 L 182.18 100.08 C 181.29 100.37 180.79 101.32 181.07 102.22 C 181.35 103.12 182.31 103.62 183.21 103.34 Z M 184.19 103.03 L 185.11 102.74 C 186.01 102.46 186.51 101.50 186.23 100.60 C 185.94 99.69 184.98 99.19 184.08 99.48 L 183.16 99.77 C 182.26 100.06 181.76 101.02 182.04 101.92 C 182.33 102.82 183.29 103.32 184.19 103.03 Z M 185.12 102.76 L 186.44 102.34 C 187.34 102.05 187.85 101.08 187.56 100.17 C 187.27 99.27 186.31 98.76 185.40 99.05 L 184.08 99.47 C 183.17 99.75 182.67 100.72 182.95 101.63 C 183.24 102.54 184.21 103.04 185.12 102.76 Z M 186.40 102.37 L 187.59 102.03 C 188.52 101.76 189.05 100.79 188.78 99.86 C 188.51 98.93 187.54 98.40 186.62 98.67 L 185.43 99.02 C 184.50 99.29 183.97 100.26 184.24 101.18 C 184.51 102.11 185.48 102.64 186.40 102.37 Z M 187.46 102.08 L 188.42 101.88 C 189.37 101.69 189.99 100.75 189.79 99.79 C 189.59 98.83 188.65 98.22 187.70 98.42 L 186.75 98.61 C 185.79 98.81 185.17 99.75 185.37 100.71 C 185.57 101.66 186.51 102.28 187.46 102.08 Z M 188.08 101.94 L 188.80 101.94 C 189.79 101.92 190.58 101.11 190.57 100.12 C 190.56 99.13 189.75 98.34 188.76 98.35 L 188.04 98.36 C 187.05 98.37 186.25 99.18 186.26 100.17 C 186.27 101.16 187.09 101.96 188.08 101.94 Z M 188.02 101.79 L 188.54 102.03 C 189.45 102.45 190.53 102.05 190.95 101.13 C 191.36 100.22 190.96 99.14 190.05 98.73 L 189.54 98.49 C 188.62 98.07 187.54 98.47 187.13 99.39 C 186.71 100.30 187.11 101.38 188.02 101.79 Z M 187.66 101.21 L 187.99 101.85 C 188.45 102.76 189.56 103.11 190.46 102.65 C 191.36 102.19 191.72 101.08 191.25 100.18 L 190.93 99.54 C 190.47 98.64 189.36 98.28 188.46 98.75 C 187.56 99.21 187.20 100.31 187.66 101.21 Z M 187.78 101.15 L 187.85 102.10 C 187.92 103.11 188.80 103.88 189.82 103.81 C 190.83 103.74 191.60 102.86 191.53 101.84 L 191.46 100.89 C 191.39 99.87 190.51 99.11 189.49 99.18 C 188.48 99.25 187.71 100.13 187.78 101.15 Z M 187.84 101.77 L 187.72 102.93 C 187.61 103.95 188.35 104.87 189.37 104.97 C 190.39 105.08 191.30 104.34 191.41 103.32 L 191.54 102.16 C 191.64 101.14 190.90 100.23 189.89 100.12 C 188.87 100.01 187.95 100.75 187.84 101.77 Z M 187.73 102.79 L 187.52 103.93 C 187.33 104.94 188.00 105.92 189.01 106.11 C 190.02 106.29 191.00 105.63 191.19 104.61 L 191.40 103.47 C 191.59 102.46 190.92 101.48 189.91 101.29 C 188.90 101.11 187.92 101.77 187.73 102.79 Z M 187.53 103.86 L 187.30 104.87 C 187.08 105.87 187.71 106.87 188.72 107.10 C 189.72 107.33 190.72 106.69 190.95 105.69 L 191.18 104.68 C 191.40 103.67 190.77 102.67 189.76 102.45 C 188.76 102.22 187.76 102.85 187.53 103.86 Z M 187.31 104.83 L 187.06 105.83 C 186.82 106.83 187.43 107.85 188.43 108.10 C 189.43 108.34 190.45 107.73 190.69 106.73 L 190.94 105.72 C 191.19 104.72 190.58 103.71 189.57 103.46 C 188.57 103.21 187.56 103.83 187.31 104.83 Z M 187.07 105.81 L 186.81 106.79 C 186.56 107.79 187.16 108.81 188.16 109.07 C 189.16 109.33 190.18 108.73 190.44 107.73 L 190.69 106.75 C 190.95 105.75 190.35 104.73 189.35 104.47 C 188.35 104.21 187.33 104.81 187.07 105.81 Z M 186.81 106.79 L 186.57 107.71 C 186.31 108.71 186.91 109.74 187.91 110.00 C 188.91 110.26 189.93 109.66 190.19 108.66 L 190.44 107.73 C 190.70 106.73 190.10 105.71 189.10 105.45 C 188.10 105.19 187.08 105.78 186.81 106.79 Z M 186.57 107.73 L 186.31 108.75 C 186.06 109.76 186.67 110.77 187.67 111.03 C 188.67 111.28 189.69 110.67 189.94 109.67 L 190.20 108.64 C 190.45 107.64 189.84 106.62 188.84 106.37 C 187.84 106.12 186.82 106.73 186.57 107.73 Z M 186.30 108.78 L 186.06 109.80 C 185.83 110.81 186.45 111.82 187.46 112.06 C 188.47 112.29 189.48 111.67 189.71 110.66 L 189.95 109.64 C 190.19 108.63 189.56 107.62 188.55 107.38 C 187.55 107.15 186.54 107.77 186.30 108.78 Z M 186.05 109.83 L 185.85 110.76 C 185.63 111.77 186.27 112.77 187.28 113.00 C 188.29 113.22 189.29 112.58 189.52 111.57 L 189.72 110.63 C 189.94 109.62 189.30 108.62 188.29 108.40 C 187.28 108.17 186.28 108.82 186.05 109.83 Z M 185.84 110.77 L 185.66 111.65 C 185.44 112.67 186.09 113.67 187.10 113.88 C 188.12 114.10 189.12 113.45 189.33 112.44 L 189.52 111.55 C 189.74 110.54 189.09 109.54 188.07 109.32 C 187.06 109.11 186.06 109.76 185.84 110.77 Z M 185.65 111.65 L 185.44 112.63 C 185.23 113.65 185.88 114.65 186.89 114.87 C 187.91 115.08 188.91 114.44 189.13 113.42 L 189.33 112.44 C 189.55 111.42 188.90 110.42 187.89 110.21 C 186.87 109.99 185.87 110.64 185.65 111.65 Z M 185.44 112.64 L 185.24 113.62 C 185.02 114.63 185.67 115.63 186.69 115.85 C 187.71 116.06 188.71 115.41 188.92 114.39 L 189.13 113.41 C 189.34 112.40 188.69 111.40 187.67 111.18 C 186.65 110.97 185.65 111.62 185.44 112.64 Z M 185.23 113.63 L 185.03 114.61 C 184.83 115.63 185.49 116.63 186.51 116.83 C 187.54 117.04 188.53 116.38 188.73 115.35 L 188.93 114.37 C 189.13 113.35 188.47 112.36 187.45 112.15 C 186.43 111.95 185.43 112.61 185.23 113.63 Z M 185.03 114.64 L 184.85 115.60 C 184.66 116.63 185.33 117.62 186.36 117.81 C 187.38 118.00 188.37 117.32 188.56 116.30 L 188.74 115.33 C 188.93 114.30 188.26 113.32 187.23 113.12 C 186.20 112.93 185.22 113.61 185.03 114.64 Z M 184.84 115.63 L 184.67 116.61 C 184.49 117.64 185.18 118.62 186.21 118.79 C 187.24 118.97 188.22 118.28 188.40 117.25 L 188.57 116.27 C 188.75 115.24 188.06 114.26 187.03 114.08 C 186.00 113.91 185.02 114.60 184.84 115.63 Z M 184.66 116.62 L 184.50 117.62 C 184.33 118.65 185.03 119.63 186.06 119.80 C 187.09 119.97 188.07 119.27 188.24 118.24 L 188.41 117.24 C 188.58 116.20 187.88 115.23 186.84 115.06 C 185.81 114.89 184.83 115.59 184.66 116.62 Z M 184.49 117.63 L 184.34 118.61 C 184.17 119.65 184.88 120.62 185.91 120.79 C 186.95 120.95 187.92 120.25 188.09 119.21 L 188.25 118.23 C 188.41 117.19 187.70 116.22 186.67 116.05 C 185.63 115.89 184.66 116.59 184.49 117.63 Z M 184.33 118.62 L 184.18 119.60 C 184.02 120.63 184.73 121.61 185.77 121.77 C 186.80 121.93 187.78 121.22 187.94 120.18 L 188.09 119.20 C 188.25 118.17 187.54 117.19 186.51 117.03 C 185.47 116.87 184.49 117.58 184.33 118.62 Z M 184.18 119.60 L 184.02 120.60 C 183.86 121.64 184.58 122.61 185.62 122.77 C 186.66 122.93 187.63 122.22 187.79 121.18 L 187.94 120.18 C 188.10 119.14 187.39 118.17 186.35 118.01 C 185.31 117.85 184.34 118.56 184.18 119.60 Z M 184.02 120.60 L 183.87 121.60 C 183.71 122.65 184.43 123.62 185.47 123.78 C 186.51 123.93 187.48 123.22 187.64 122.18 L 187.79 121.17 C 187.95 120.13 187.23 119.16 186.19 119.00 C 185.15 118.84 184.18 119.56 184.02 120.60 Z M 183.86 121.61 L 183.72 122.59 C 183.56 123.64 184.28 124.61 185.33 124.76 C 186.37 124.92 187.34 124.20 187.50 123.16 L 187.64 122.17 C 187.80 121.13 187.08 120.15 186.04 120.00 C 184.99 119.84 184.02 120.56 183.86 121.61 Z M 183.71 122.60 L 183.57 123.59 C 183.42 124.64 184.14 125.61 185.19 125.76 C 186.24 125.91 187.21 125.18 187.36 124.14 L 187.50 123.15 C 187.65 122.10 186.93 121.13 185.88 120.98 C 184.84 120.83 183.86 121.55 183.71 122.60 Z M 183.57 123.60 L 183.43 124.60 C 183.28 125.65 184.02 126.61 185.06 126.76 C 186.11 126.90 187.08 126.17 187.23 125.12 L 187.36 124.13 C 187.51 123.08 186.77 122.11 185.73 121.97 C 184.68 121.82 183.71 122.55 183.57 123.60 Z M 183.42 124.61 L 183.30 125.60 C 183.16 126.65 183.90 127.61 184.95 127.75 C 186.01 127.89 186.97 127.14 187.10 126.09 L 187.23 125.10 C 187.37 124.05 186.62 123.09 185.57 122.95 C 184.52 122.82 183.56 123.56 183.42 124.61 Z M 183.29 125.62 L 183.17 126.60 C 183.05 127.66 183.80 128.61 184.85 128.74 C 185.91 128.87 186.86 128.11 186.99 127.06 L 187.11 126.07 C 187.23 125.02 186.48 124.06 185.43 123.94 C 184.37 123.81 183.42 124.56 183.29 125.62 Z M 183.17 126.61 L 183.06 127.61 C 182.94 128.66 183.70 129.62 184.75 129.74 C 185.81 129.86 186.76 129.10 186.88 128.04 L 186.99 127.05 C 187.11 125.99 186.35 125.04 185.30 124.92 C 184.24 124.80 183.29 125.56 183.17 126.61 Z M 183.05 127.62 L 182.94 128.62 C 182.83 129.68 183.59 130.63 184.65 130.75 C 185.71 130.86 186.66 130.10 186.77 129.04 L 186.88 128.03 C 187.00 126.97 186.23 126.02 185.18 125.91 C 184.12 125.79 183.17 126.56 183.05 127.62 Z M 182.94 128.63 L 182.84 129.55 C 182.73 130.61 183.50 131.56 184.56 131.67 C 185.62 131.79 186.57 131.02 186.68 129.96 L 186.78 129.04 C 186.89 127.98 186.12 127.03 185.06 126.91 C 184.00 126.80 183.06 127.57 182.94 128.63 Z M 182.84 129.56 L 182.74 130.51 C 182.63 131.57 183.40 132.52 184.46 132.63 C 185.52 132.74 186.47 131.97 186.58 130.91 L 186.68 129.96 C 186.79 128.90 186.02 127.95 184.96 127.84 C 183.90 127.73 182.95 128.50 182.84 129.56 Z M 182.74 130.51 L 182.64 131.52 C 182.53 132.58 183.30 133.53 184.36 133.63 C 185.42 133.74 186.37 132.97 186.48 131.91 L 186.58 130.91 C 186.69 129.84 185.92 128.90 184.86 128.79 C 183.80 128.68 182.85 129.45 182.74 130.51 Z M 182.64 131.52 L 182.53 132.60 C 182.42 133.66 183.19 134.61 184.26 134.72 C 185.32 134.82 186.26 134.05 186.37 132.99 L 186.48 131.91 C 186.59 130.85 185.81 129.90 184.75 129.79 C 183.69 129.68 182.74 130.46 182.64 131.52 Z M 182.53 132.60 L 182.43 133.58 C 182.32 134.65 183.10 135.59 184.16 135.70 C 185.22 135.80 186.17 135.03 186.28 133.97 L 186.37 132.99 C 186.48 131.92 185.70 130.98 184.64 130.87 C 183.58 130.76 182.63 131.54 182.53 132.60 Z M 182.43 133.59 L 182.33 134.59 C 182.22 135.65 183.00 136.60 184.07 136.70 C 185.13 136.80 186.08 136.03 186.18 134.96 L 186.28 133.96 C 186.38 132.90 185.60 131.95 184.54 131.85 C 183.48 131.74 182.53 132.52 182.43 133.59 Z M 182.33 134.59 L 182.23 135.61 C 182.13 136.67 182.91 137.62 183.97 137.72 C 185.04 137.82 185.98 137.04 186.09 135.97 L 186.18 134.96 C 186.28 133.89 185.50 132.95 184.44 132.84 C 183.37 132.74 182.43 133.52 182.33 134.59 Z M 182.23 135.61 L 182.13 136.63 C 182.04 137.70 182.82 138.64 183.89 138.74 C 184.95 138.83 185.90 138.05 186.00 136.98 L 186.09 135.97 C 186.19 134.90 185.40 133.96 184.33 133.86 C 183.27 133.76 182.32 134.55 182.23 135.61 Z M 182.13 136.64 L 182.05 137.63 C 181.95 138.69 182.74 139.63 183.81 139.73 C 184.88 139.82 185.82 139.03 185.91 137.96 L 186.00 136.97 C 186.09 135.91 185.30 134.97 184.23 134.87 C 183.16 134.78 182.22 135.57 182.13 136.64 Z M 182.04 137.64 L 181.96 138.71 C 181.87 139.78 182.67 140.72 183.74 140.81 C 184.81 140.89 185.74 140.10 185.83 139.03 L 185.91 137.95 C 186.00 136.88 185.20 135.94 184.14 135.86 C 183.07 135.77 182.13 136.57 182.04 137.64 Z M 181.95 138.72 L 181.88 139.75 C 181.80 140.82 182.60 141.76 183.67 141.84 C 184.74 141.92 185.67 141.12 185.75 140.05 L 185.83 139.02 C 185.91 137.95 185.11 137.01 184.04 136.93 C 182.97 136.85 182.04 137.65 181.95 138.72 Z M 181.88 139.75 L 181.80 140.73 C 181.72 141.80 182.52 142.73 183.59 142.81 C 184.67 142.89 185.60 142.09 185.68 141.02 L 185.75 140.05 C 185.83 138.98 185.03 138.04 183.96 137.96 C 182.89 137.88 181.96 138.68 181.88 139.75 Z M 181.80 140.72 L 181.73 141.65 C 181.64 142.72 182.44 143.66 183.51 143.75 C 184.58 143.83 185.52 143.03 185.61 141.96 L 185.68 141.03 C 185.76 139.96 184.96 139.02 183.89 138.94 C 182.82 138.85 181.89 139.65 181.80 140.72 Z M 181.73 141.63 L 181.63 142.73 C 181.53 143.80 182.31 144.74 183.38 144.84 C 184.45 144.94 185.40 144.16 185.50 143.09 L 185.60 141.99 C 185.70 140.92 184.92 139.97 183.85 139.87 C 182.78 139.77 181.83 140.56 181.73 141.63 Z M 181.65 142.59 L 181.47 143.66 C 181.29 144.72 182.00 145.72 183.06 145.90 C 184.12 146.08 185.13 145.36 185.30 144.30 L 185.48 143.23 C 185.66 142.17 184.94 141.17 183.88 140.99 C 182.83 140.81 181.82 141.53 181.65 142.59 Z M 181.58 143.25 L 181.25 144.06 C 180.85 145.06 181.33 146.19 182.33 146.60 C 183.32 147.00 184.46 146.52 184.86 145.52 L 185.19 144.71 C 185.59 143.71 185.11 142.58 184.11 142.18 C 183.12 141.78 181.98 142.26 181.58 143.25 Z M 181.88 143.25 L 181.31 143.69 C 180.45 144.34 180.29 145.56 180.94 146.41 C 181.59 147.26 182.81 147.43 183.66 146.77 L 184.24 146.34 C 185.09 145.69 185.25 144.47 184.60 143.61 C 183.95 142.76 182.73 142.60 181.88 143.25 Z M 182.45 143.29 L 181.61 143.31 C 180.54 143.32 179.69 144.21 179.70 145.28 C 179.72 146.35 180.60 147.20 181.67 147.18 L 182.52 147.17 C 183.59 147.15 184.44 146.27 184.42 145.20 C 184.40 144.13 183.52 143.27 182.45 143.29 Z M 182.23 143.41 L 181.17 143.06 C 180.16 142.74 179.07 143.29 178.74 144.31 C 178.42 145.32 178.97 146.41 179.99 146.74 L 181.05 147.08 C 182.06 147.41 183.15 146.85 183.48 145.84 C 183.81 144.82 183.25 143.73 182.23 143.41 Z M 181.42 143.17 L 180.49 142.72 C 179.54 142.26 178.39 142.66 177.92 143.61 C 177.46 144.57 177.86 145.72 178.81 146.18 L 179.74 146.63 C 180.69 147.09 181.84 146.69 182.31 145.74 C 182.77 144.79 182.37 143.64 181.42 143.17 Z M 180.59 142.79 L 179.88 142.39 C 178.96 141.87 177.80 142.19 177.28 143.10 C 176.76 144.02 177.08 145.18 177.99 145.70 L 178.71 146.11 C 179.63 146.63 180.79 146.31 181.31 145.39 C 181.83 144.48 181.51 143.31 180.59 142.79 Z M 179.94 142.44 L 179.17 141.96 C 178.29 141.40 177.12 141.67 176.56 142.55 C 176.01 143.44 176.27 144.61 177.16 145.16 L 177.93 145.65 C 178.81 146.20 179.98 145.94 180.54 145.05 C 181.10 144.17 180.83 143.00 179.94 142.44 Z M 179.22 142.01 L 178.39 141.44 C 177.53 140.86 176.36 141.08 175.78 141.93 C 175.20 142.79 175.42 143.96 176.27 144.54 L 177.11 145.11 C 177.97 145.70 179.13 145.47 179.72 144.62 C 180.30 143.76 180.08 142.59 179.22 142.01 Z M 178.43 141.48 L 177.52 140.82 C 176.68 140.22 175.52 140.41 174.92 141.24 C 174.31 142.07 174.50 143.24 175.33 143.84 L 176.24 144.50 C 177.07 145.10 178.23 144.92 178.84 144.09 C 179.44 143.25 179.26 142.09 178.43 141.48 Z M 177.54 140.86 L 176.56 140.11 C 175.74 139.49 174.59 139.64 173.97 140.46 C 173.35 141.27 173.50 142.43 174.31 143.05 L 175.30 143.80 C 176.11 144.42 177.27 144.26 177.89 143.45 C 178.51 142.64 178.36 141.48 177.54 140.86 Z M 176.57 140.14 L 175.88 139.59 C 175.08 138.96 173.93 139.09 173.30 139.89 C 172.67 140.69 172.81 141.84 173.60 142.47 L 174.30 143.02 C 175.09 143.65 176.25 143.51 176.88 142.72 C 177.51 141.92 177.37 140.76 176.57 140.14 Z M 175.89 139.60 L 175.18 139.03 C 174.39 138.39 173.24 138.52 172.60 139.31 C 171.97 140.09 172.09 141.25 172.88 141.88 L 173.59 142.46 C 174.38 143.09 175.53 142.97 176.17 142.18 C 176.80 141.39 176.68 140.24 175.89 139.60 Z M 175.19 139.04 L 174.45 138.44 C 173.67 137.80 172.52 137.91 171.88 138.69 C 171.24 139.47 171.35 140.62 172.13 141.26 L 172.87 141.87 C 173.65 142.51 174.80 142.39 175.44 141.61 C 176.08 140.83 175.97 139.68 175.19 139.04 Z M 174.45 138.45 L 173.69 137.81 C 172.92 137.17 171.77 137.28 171.12 138.05 C 170.48 138.83 170.59 139.98 171.36 140.62 L 172.13 141.25 C 172.90 141.89 174.05 141.79 174.69 141.01 C 175.33 140.24 175.23 139.09 174.45 138.45 Z M 173.69 137.82 L 172.91 137.17 C 172.14 136.52 170.99 136.62 170.35 137.39 C 169.71 138.16 169.81 139.31 170.58 139.95 L 171.36 140.61 C 172.13 141.25 173.27 141.15 173.92 140.38 C 174.56 139.61 174.46 138.47 173.69 137.82 Z M 172.91 137.17 L 172.11 136.50 C 171.35 135.85 170.20 135.95 169.56 136.72 C 168.91 137.48 169.01 138.62 169.77 139.27 L 170.57 139.94 C 171.34 140.59 172.48 140.49 173.13 139.73 C 173.77 138.96 173.68 137.82 172.91 137.17 Z M 172.11 136.51 L 171.30 135.82 C 170.54 135.17 169.40 135.27 168.75 136.03 C 168.11 136.79 168.20 137.93 168.96 138.57 L 169.77 139.26 C 170.53 139.91 171.67 139.81 172.32 139.05 C 172.97 138.29 172.87 137.15 172.11 136.51 Z M 171.30 135.82 L 170.48 135.13 C 169.72 134.48 168.58 134.57 167.94 135.33 C 167.30 136.09 167.39 137.23 168.15 137.87 L 168.96 138.57 C 169.72 139.21 170.86 139.12 171.50 138.36 C 172.15 137.61 172.06 136.47 171.30 135.82 Z M 170.48 135.13 L 169.88 134.62 C 169.12 133.98 167.99 134.07 167.35 134.82 C 166.70 135.58 166.79 136.71 167.55 137.36 L 168.15 137.87 C 168.90 138.51 170.04 138.42 170.68 137.66 C 171.32 136.91 171.23 135.78 170.48 135.13 Z"
      fill="black"
      fill-rule="nonzero" /></svg>