<svg xmlns="http://www.w3.org/2000/svg" width="300" height="300" viewBox="0 0 300 300">
<path d="M 162.64 111.70 L 162.09 112.53 C 161.60 113.25 161.79 114.23 162.52 114.71 C 163.24 115.20 164.22 115.00 164.70 114.28 L 165.26 113.45 C 165.74 112.73 165.55 111.75 164.83 111.26 C 164.11 110.78 163.13 110.97 162.64 111.70 Z M 162.04 112.57 L 161.52 113.42 C 161.06 114.17 161.29 115.15 162.04 115.61 C 162.79 116.07 163.77 115.83 164.23 115.08 L 164.75 114.24 C 165.21 113.49 164.97 112.51 164.23 112.05 C 163.48 111.59 162.50 111.83 162.04 112.57 Z M 161.45 113.53 L 161.00 114.41 C 160.59 115.20 160.91 116.17 161.70 116.57 C 162.48 116.97 163.45 116.65 163.85 115.87 L 164.30 114.98 C 164.70 114.19 164.39 113.23 163.60 112.83 C 162.81 112.43 161.85 112.74 161.45 113.53 Z M 160.91 114.58 L 160.56 115.53 C 160.26 116.36 160.68 117.29 161.52 117.60 C 162.36 117.90 163.28 117.47 163.59 116.64 L 163.94 115.70 C 164.24 114.86 163.81 113.93 162.98 113.63 C 162.14 113.32 161.21 113.75 160.91 114.58 Z M 160.50 115.74 L 160.28 116.72 C 160.09 117.60 160.65 118.46 161.52 118.65 C 162.39 118.83 163.26 118.28 163.44 117.41 L 163.66 116.42 C 163.85 115.55 163.29 114.69 162.42 114.50 C 161.55 114.31 160.68 114.87 160.50 115.74 Z M 160.26 116.89 L 160.15 117.90 C 160.05 118.79 160.69 119.59 161.58 119.68 C 162.46 119.78 163.26 119.14 163.36 118.26 L 163.47 117.24 C 163.56 116.36 162.92 115.56 162.04 115.46 C 161.15 115.36 160.36 116.00 160.26 116.89 Z M 160.14 118.01 L 160.10 119.02 C 160.06 119.91 160.75 120.66 161.64 120.70 C 162.53 120.73 163.28 120.05 163.32 119.16 L 163.36 118.15 C 163.40 117.26 162.71 116.51 161.82 116.47 C 160.93 116.44 160.18 117.12 160.14 118.01 Z M 160.10 119.08 L 160.10 120.04 C 160.09 120.93 160.80 121.65 161.69 121.66 C 162.58 121.66 163.30 120.95 163.31 120.07 L 163.31 119.10 C 163.32 118.21 162.61 117.49 161.72 117.48 C 160.83 117.48 160.11 118.19 160.10 119.08 Z M 160.10 120.05 L 160.10 121.11 C 160.11 122.00 160.82 122.71 161.70 122.71 C 162.59 122.71 163.30 121.99 163.30 121.11 L 163.30 120.05 C 163.30 119.17 162.58 118.45 161.70 118.46 C 160.82 118.46 160.10 119.17 160.10 120.05 Z M 160.11 121.12 L 160.12 122.12 C 160.13 123.00 160.84 123.70 161.72 123.70 C 162.60 123.69 163.31 122.97 163.30 122.09 L 163.29 121.10 C 163.29 120.22 162.57 119.52 161.69 119.52 C 160.81 119.53 160.11 120.25 160.11 121.12 Z M 160.13 122.14 L 160.15 123.10 C 160.17 123.97 160.89 124.66 161.77 124.64 C 162.64 124.62 163.33 123.90 163.31 123.03 L 163.29 122.07 C 163.27 121.20 162.55 120.51 161.68 120.53 C 160.80 120.55 160.11 121.27 160.13 122.14 Z M 160.16 123.13 L 160.20 124.08 C 160.24 124.95 160.97 125.62 161.84 125.59 C 162.70 125.55 163.38 124.82 163.34 123.95 L 163.30 123.00 C 163.26 122.13 162.53 121.46 161.67 121.49 C 160.80 121.53 160.12 122.26 160.16 123.13 Z M 160.21 124.11 L 160.27 125.09 C 160.32 125.95 161.06 126.61 161.93 126.55 C 162.79 126.50 163.45 125.76 163.39 124.90 L 163.33 123.92 C 163.28 123.06 162.54 122.40 161.68 122.46 C 160.81 122.51 160.16 123.25 160.21 124.11 Z M 160.28 125.11 L 160.36 126.12 C 160.42 126.98 161.17 127.62 162.03 127.55 C 162.88 127.49 163.53 126.74 163.46 125.88 L 163.38 124.87 C 163.32 124.02 162.57 123.37 161.71 123.44 C 160.85 123.51 160.21 124.25 160.28 125.11 Z M 160.36 126.14 L 160.45 127.17 C 160.53 128.02 161.28 128.65 162.13 128.58 C 162.99 128.50 163.62 127.75 163.54 126.90 L 163.45 125.87 C 163.38 125.01 162.63 124.38 161.77 124.46 C 160.92 124.53 160.29 125.28 160.36 126.14 Z M 160.46 127.18 L 160.55 128.16 C 160.63 129.01 161.39 129.63 162.24 129.55 C 163.09 129.47 163.71 128.72 163.63 127.87 L 163.54 126.89 C 163.46 126.04 162.70 125.42 161.85 125.50 C 161.00 125.58 160.38 126.33 160.46 127.18 Z M 160.56 128.17 L 160.66 129.16 C 160.74 130.01 161.50 130.63 162.34 130.54 C 163.19 130.46 163.81 129.70 163.72 128.86 L 163.62 127.86 C 163.54 127.02 162.78 126.40 161.94 126.48 C 161.09 126.57 160.48 127.32 160.56 128.17 Z M 160.67 129.17 L 160.77 130.17 C 160.86 131.01 161.61 131.63 162.45 131.54 C 163.29 131.45 163.90 130.70 163.82 129.86 L 163.71 128.85 C 163.63 128.01 162.87 127.40 162.03 127.49 C 161.19 127.58 160.58 128.33 160.67 129.17 Z M 160.78 130.18 L 160.88 131.18 C 160.97 132.02 161.72 132.63 162.56 132.54 C 163.40 132.45 164.00 131.70 163.92 130.86 L 163.81 129.86 C 163.72 129.02 162.97 128.41 162.14 128.50 C 161.30 128.59 160.69 129.34 160.78 130.18 Z M 160.89 131.18 L 161.00 132.19 C 161.08 133.02 161.83 133.63 162.67 133.54 C 163.50 133.45 164.11 132.70 164.02 131.87 L 163.91 130.86 C 163.82 130.03 163.07 129.42 162.24 129.51 C 161.41 129.60 160.80 130.35 160.89 131.18 Z M 161.00 132.19 L 161.11 133.18 C 161.20 134.01 161.94 134.61 162.77 134.53 C 163.61 134.44 164.21 133.69 164.12 132.86 L 164.01 131.87 C 163.92 131.03 163.18 130.43 162.35 130.52 C 161.51 130.61 160.91 131.36 161.00 132.19 Z M 161.11 133.18 L 161.22 134.17 C 161.31 135.00 162.05 135.59 162.88 135.50 C 163.71 135.42 164.31 134.67 164.22 133.84 L 164.11 132.86 C 164.02 132.03 163.28 131.43 162.45 131.52 C 161.62 131.61 161.02 132.36 161.11 133.18 Z M 161.23 134.17 L 161.33 135.16 C 161.42 135.99 162.17 136.58 162.99 136.49 C 163.82 136.40 164.41 135.66 164.32 134.84 L 164.21 133.84 C 164.12 133.02 163.38 132.42 162.56 132.51 C 161.73 132.60 161.14 133.34 161.23 134.17 Z M 161.34 135.16 L 161.45 136.16 C 161.54 136.98 162.28 137.57 163.10 137.49 C 163.92 137.40 164.51 136.66 164.42 135.84 L 164.32 134.84 C 164.23 134.02 163.49 133.42 162.67 133.51 C 161.85 133.60 161.25 134.34 161.34 135.16 Z M 161.45 136.15 L 161.56 137.14 C 161.64 137.96 162.37 138.56 163.19 138.47 C 164.01 138.39 164.61 137.65 164.52 136.83 L 164.42 135.84 C 164.33 135.02 163.60 134.43 162.78 134.51 C 161.96 134.60 161.37 135.33 161.45 136.15 Z M 161.56 137.13 L 161.66 138.12 C 161.74 138.94 162.46 139.54 163.28 139.46 C 164.10 139.38 164.69 138.65 164.62 137.83 L 164.52 136.85 C 164.44 136.03 163.71 135.43 162.90 135.51 C 162.08 135.59 161.48 136.32 161.56 137.13 Z M 161.66 138.11 L 161.75 139.10 C 161.82 139.92 162.54 140.52 163.35 140.45 C 164.17 140.38 164.77 139.66 164.70 138.85 L 164.61 137.85 C 164.54 137.03 163.82 136.43 163.01 136.50 C 162.19 136.57 161.59 137.29 161.66 138.11 Z M 161.75 139.09 L 161.83 140.09 C 161.89 140.90 162.60 141.51 163.41 141.44 C 164.22 141.38 164.83 140.67 164.77 139.86 L 164.69 138.86 C 164.63 138.05 163.92 137.44 163.11 137.50 C 162.30 137.57 161.69 138.28 161.75 139.09 Z M 161.83 140.07 L 161.90 141.07 C 161.96 141.88 162.65 142.49 163.46 142.43 C 164.27 142.38 164.88 141.68 164.83 140.87 L 164.76 139.87 C 164.71 139.07 164.01 138.45 163.20 138.51 C 162.39 138.56 161.78 139.26 161.83 140.07 Z M 161.91 141.05 L 161.96 142.06 C 162.01 142.86 162.70 143.48 163.51 143.44 C 164.31 143.39 164.93 142.70 164.88 141.89 L 164.83 140.89 C 164.78 140.08 164.09 139.46 163.28 139.51 C 162.48 139.56 161.86 140.25 161.91 141.05 Z M 161.97 142.04 L 162.02 143.06 C 162.05 143.86 162.74 144.48 163.54 144.44 C 164.34 144.41 164.96 143.72 164.93 142.92 L 164.88 141.91 C 164.84 141.10 164.16 140.48 163.35 140.52 C 162.55 140.56 161.93 141.24 161.97 142.04 Z M 162.02 143.05 L 162.06 144.05 C 162.10 144.85 162.77 145.47 163.57 145.44 C 164.37 145.41 165.00 144.73 164.96 143.93 L 164.92 142.93 C 164.89 142.13 164.21 141.51 163.41 141.54 C 162.61 141.57 161.99 142.25 162.02 143.05 Z M 162.07 144.05 L 162.11 145.02 C 162.14 145.82 162.81 146.44 163.61 146.41 C 164.40 146.38 165.03 145.71 164.99 144.91 L 164.96 143.93 C 164.93 143.14 164.25 142.51 163.46 142.55 C 162.66 142.58 162.04 143.25 162.07 144.05 Z M 162.11 145.02 L 162.15 145.94 C 162.18 146.74 162.85 147.36 163.64 147.33 C 164.44 147.30 165.06 146.63 165.03 145.83 L 164.99 144.91 C 164.96 144.12 164.29 143.50 163.49 143.53 C 162.70 143.56 162.08 144.23 162.11 145.02 Z M 162.15 145.94 L 162.18 146.88 C 162.21 147.67 162.88 148.29 163.67 148.27 C 164.46 148.24 165.08 147.57 165.06 146.78 L 165.02 145.84 C 165.00 145.04 164.33 144.42 163.54 144.45 C 162.74 144.48 162.12 145.15 162.15 145.94 Z M 162.19 146.87 L 162.21 147.89 C 162.24 148.68 162.90 149.31 163.69 149.29 C 164.48 149.27 165.10 148.61 165.08 147.81 L 165.05 146.79 C 165.03 146.00 164.37 145.37 163.58 145.40 C 162.79 145.42 162.16 146.08 162.19 146.87 Z M 162.22 147.88 L 162.24 148.95 C 162.25 149.74 162.90 150.37 163.69 150.36 C 164.48 150.34 165.11 149.69 165.10 148.90 L 165.08 147.83 C 165.07 147.04 164.41 146.41 163.62 146.42 C 162.83 146.44 162.20 147.09 162.22 147.88 Z M 162.24 148.94 L 162.25 149.84 C 162.26 150.63 162.90 151.27 163.69 151.26 C 164.48 151.25 165.11 150.60 165.11 149.81 L 165.10 148.91 C 165.09 148.12 164.44 147.49 163.65 147.50 C 162.86 147.50 162.23 148.15 162.24 148.94 Z M 162.25 149.84 L 162.25 150.81 C 162.26 151.60 162.90 152.23 163.69 152.23 C 164.48 152.23 165.12 151.58 165.11 150.79 L 165.11 149.82 C 165.10 149.03 164.46 148.40 163.67 148.40 C 162.88 148.40 162.24 149.05 162.25 149.84 Z M 162.25 150.81 L 162.26 151.83 C 162.26 152.62 162.90 153.26 163.69 153.25 C 164.48 153.25 165.12 152.61 165.11 151.82 L 165.11 150.80 C 165.11 150.01 164.47 149.37 163.68 149.37 C 162.89 149.38 162.25 150.02 162.25 150.81 Z M 162.26 151.83 L 162.26 152.89 C 162.26 153.67 162.90 154.31 163.69 154.31 C 164.48 154.31 165.11 153.67 165.11 152.88 L 165.11 151.82 C 165.11 151.04 164.47 150.40 163.68 150.40 C 162.90 150.40 162.26 151.04 162.26 151.83 Z M 162.26 152.88 L 162.26 153.96 C 162.26 154.75 162.90 155.39 163.69 155.39 C 164.47 155.39 165.11 154.75 165.11 153.96 L 165.11 152.88 C 165.11 152.10 164.47 151.46 163.69 151.46 C 162.90 151.46 162.26 152.10 162.26 152.88 Z"
      fill="black"
      fill-rule="nonzero" /><path d="M 152.84 136.45 L 151.86 136.70 C 151.02 136.92 150.51 137.78 150.72 138.62 C 150.94 139.46 151.80 139.97 152.65 139.75 L 153.63 139.50 C 154.47 139.28 154.98 138.42 154.76 137.58 C 154.55 136.74 153.69 136.23 152.84 136.45 Z M 151.79 136.71 L 150.83 137.00 C 149.99 137.26 149.51 138.15 149.77 138.99 C 150.03 139.83 150.92 140.30 151.76 140.04 L 152.72 139.75 C 153.56 139.49 154.03 138.60 153.77 137.76 C 153.52 136.92 152.63 136.45 151.79 136.71 Z M 150.69 137.04 L 149.77 137.41 C 148.95 137.74 148.56 138.68 148.89 139.50 C 149.23 140.32 150.16 140.71 150.98 140.38 L 151.90 140.01 C 152.72 139.67 153.11 138.74 152.78 137.92 C 152.44 137.09 151.51 136.70 150.69 137.04 Z M 149.57 137.50 L 148.74 137.97 C 147.97 138.42 147.70 139.41 148.15 140.18 C 148.60 140.95 149.59 141.22 150.36 140.77 L 151.19 140.29 C 151.96 139.85 152.22 138.86 151.77 138.08 C 151.33 137.31 150.34 137.05 149.57 137.50 Z M 148.53 138.10 L 147.84 138.66 C 147.14 139.22 147.03 140.25 147.59 140.95 C 148.15 141.65 149.17 141.76 149.87 141.20 L 150.57 140.64 C 151.27 140.08 151.38 139.05 150.82 138.35 C 150.26 137.65 149.23 137.54 148.53 138.10 Z M 147.69 138.79 L 147.03 139.46 C 146.40 140.11 146.41 141.14 147.05 141.77 C 147.69 142.40 148.73 142.39 149.36 141.75 L 150.02 141.07 C 150.65 140.43 150.64 139.40 150.00 138.76 C 149.36 138.13 148.32 138.14 147.69 138.79 Z M 146.93 139.56 L 146.27 140.36 C 145.69 141.05 145.79 142.08 146.48 142.66 C 147.18 143.24 148.21 143.15 148.79 142.45 L 149.45 141.65 C 150.03 140.96 149.94 139.92 149.24 139.35 C 148.54 138.77 147.51 138.86 146.93 139.56 Z M 146.22 140.42 L 145.52 141.34 C 144.98 142.06 145.12 143.09 145.85 143.64 C 146.57 144.18 147.60 144.04 148.15 143.31 L 148.84 142.39 C 149.39 141.67 149.24 140.64 148.52 140.09 C 147.79 139.55 146.76 139.69 146.22 140.42 Z M 145.50 141.36 L 144.96 142.11 C 144.43 142.85 144.60 143.88 145.34 144.41 C 146.08 144.94 147.11 144.77 147.64 144.03 L 148.17 143.29 C 148.70 142.55 148.54 141.52 147.80 140.99 C 147.06 140.46 146.03 140.62 145.50 141.36 Z M 144.95 142.12 L 144.39 142.92 C 143.87 143.66 144.05 144.69 144.79 145.21 C 145.54 145.74 146.56 145.56 147.09 144.81 L 147.65 144.02 C 148.17 143.27 147.99 142.25 147.25 141.72 C 146.50 141.20 145.48 141.38 144.95 142.12 Z M 144.39 142.93 L 143.81 143.76 C 143.29 144.51 143.48 145.53 144.23 146.05 C 144.97 146.57 146.00 146.38 146.52 145.64 L 147.09 144.80 C 147.61 144.06 147.43 143.03 146.68 142.51 C 145.93 142.00 144.90 142.18 144.39 142.93 Z M 143.81 143.77 L 143.22 144.62 C 142.71 145.37 142.90 146.39 143.64 146.91 C 144.39 147.42 145.42 147.23 145.93 146.48 L 146.52 145.63 C 147.04 144.88 146.85 143.86 146.10 143.34 C 145.35 142.83 144.32 143.02 143.81 143.77 Z M 143.22 144.62 L 142.63 145.48 C 142.12 146.23 142.31 147.25 143.06 147.76 C 143.81 148.28 144.83 148.09 145.35 147.34 L 145.94 146.48 C 146.45 145.73 146.26 144.71 145.51 144.19 C 144.76 143.68 143.73 143.87 143.22 144.62 Z M 142.63 145.47 L 142.04 146.34 C 141.53 147.08 141.72 148.11 142.46 148.62 C 143.21 149.14 144.24 148.95 144.75 148.20 L 145.35 147.34 C 145.86 146.59 145.67 145.57 144.92 145.05 C 144.17 144.54 143.15 144.73 142.63 145.47 Z M 142.05 146.33 L 141.42 147.24 C 140.90 147.99 141.09 149.01 141.83 149.53 C 142.58 150.04 143.60 149.86 144.12 149.11 L 144.75 148.20 C 145.26 147.46 145.08 146.44 144.33 145.92 C 143.59 145.40 142.56 145.59 142.05 146.33 Z M 141.43 147.25 L 140.82 148.12 C 140.31 148.86 140.49 149.87 141.23 150.39 C 141.97 150.90 142.99 150.72 143.50 149.98 L 144.11 149.11 C 144.62 148.37 144.44 147.35 143.70 146.84 C 142.96 146.32 141.94 146.51 141.43 147.25 Z M 140.83 148.12 L 140.25 148.95 C 139.74 149.68 139.92 150.70 140.66 151.21 C 141.39 151.72 142.40 151.54 142.92 150.80 L 143.49 149.98 C 144.00 149.24 143.82 148.23 143.09 147.72 C 142.35 147.21 141.34 147.39 140.83 148.12 Z M 140.26 148.96 L 139.72 149.73 C 139.21 150.46 139.39 151.47 140.12 151.98 C 140.86 152.49 141.86 152.31 142.37 151.57 L 142.91 150.80 C 143.42 150.07 143.24 149.06 142.51 148.55 C 141.77 148.04 140.77 148.22 140.26 148.96 Z M 139.72 149.74 L 139.23 150.46 C 138.73 151.19 138.91 152.19 139.64 152.69 C 140.37 153.19 141.37 153.01 141.87 152.28 L 142.37 151.56 C 142.87 150.83 142.69 149.83 141.96 149.33 C 141.23 148.83 140.23 149.01 139.72 149.74 Z M 139.23 150.47 L 138.65 151.34 C 138.16 152.06 138.34 153.05 139.07 153.55 C 139.80 154.04 140.79 153.85 141.28 153.13 L 141.87 152.26 C 142.36 151.54 142.17 150.55 141.45 150.05 C 140.72 149.56 139.73 149.75 139.23 150.47 Z M 138.65 151.36 L 138.12 152.17 C 137.63 152.90 137.83 153.87 138.56 154.35 C 139.28 154.84 140.26 154.64 140.74 153.91 L 141.28 153.10 C 141.76 152.38 141.56 151.40 140.84 150.92 C 140.11 150.44 139.14 150.64 138.65 151.36 Z M 138.12 152.20 L 137.60 153.00 C 137.13 153.72 137.34 154.68 138.06 155.15 C 138.78 155.62 139.74 155.41 140.21 154.69 L 140.73 153.89 C 141.20 153.17 140.99 152.21 140.27 151.74 C 139.55 151.27 138.59 151.48 138.12 152.20 Z M 137.61 153.02 L 137.07 153.87 C 136.61 154.58 136.82 155.53 137.54 155.99 C 138.25 156.44 139.20 156.23 139.66 155.52 L 140.20 154.67 C 140.66 153.96 140.45 153.01 139.73 152.55 C 139.01 152.10 138.07 152.31 137.61 153.02 Z M 137.08 153.88 L 136.57 154.68 C 136.13 155.39 136.34 156.33 137.05 156.78 C 137.76 157.23 138.70 157.01 139.15 156.30 L 139.65 155.50 C 140.10 154.79 139.89 153.85 139.18 153.40 C 138.46 152.96 137.52 153.17 137.08 153.88 Z M 136.57 154.70 L 136.05 155.56 C 135.61 156.27 135.84 157.20 136.55 157.64 C 137.27 158.07 138.20 157.85 138.64 157.13 L 139.16 156.28 C 139.59 155.57 139.37 154.63 138.65 154.20 C 137.94 153.76 137.01 153.99 136.57 154.70 Z M 136.04 155.59 L 135.52 156.48 C 135.10 157.20 135.35 158.12 136.07 158.54 C 136.79 158.96 137.71 158.71 138.13 157.99 L 138.65 157.10 C 139.06 156.38 138.82 155.46 138.10 155.04 C 137.38 154.62 136.46 154.87 136.04 155.59 Z M 135.51 156.52 L 135.02 157.43 C 134.63 158.16 134.90 159.07 135.63 159.46 C 136.36 159.85 137.27 159.58 137.66 158.85 L 138.15 157.94 C 138.54 157.22 138.26 156.31 137.54 155.91 C 136.81 155.52 135.90 155.80 135.51 156.52 Z M 135.00 157.49 L 134.55 158.42 C 134.19 159.16 134.50 160.05 135.25 160.41 C 135.99 160.77 136.88 160.46 137.23 159.72 L 137.68 158.79 C 138.04 158.05 137.73 157.16 136.98 156.80 C 136.24 156.44 135.35 156.75 135.00 157.49 Z M 134.53 158.49 L 134.13 159.43 C 133.82 160.19 134.17 161.05 134.92 161.37 C 135.67 161.69 136.54 161.34 136.86 160.58 L 137.25 159.64 C 137.57 158.89 137.22 158.03 136.47 157.71 C 135.71 157.39 134.85 157.74 134.53 158.49 Z M 134.12 159.49 L 133.77 160.42 C 133.49 161.18 133.87 162.03 134.63 162.31 C 135.38 162.60 136.23 162.21 136.51 161.46 L 136.86 160.53 C 137.15 159.77 136.77 158.93 136.01 158.64 C 135.25 158.35 134.41 158.74 134.12 159.49 Z M 133.77 160.46 L 133.45 161.39 C 133.19 162.15 133.59 162.97 134.35 163.24 C 135.10 163.50 135.93 163.10 136.19 162.34 L 136.51 161.42 C 136.78 160.66 136.38 159.83 135.62 159.57 C 134.86 159.31 134.04 159.71 133.77 160.46 Z M 133.46 161.41 L 133.22 162.12 C 132.97 162.88 133.37 163.69 134.13 163.94 C 134.88 164.20 135.69 163.79 135.95 163.04 L 136.19 162.32 C 136.44 161.57 136.03 160.75 135.28 160.50 C 134.53 160.25 133.71 160.66 133.46 161.41 Z"
      fill="black"
      fill-rule="nonzero" /><path d="M 182.42 134.47 L 183.29 134.73 C 184.13 134.98 185.01 134.50 185.26 133.66 C 185.51 132.82 185.03 131.93 184.19 131.68 L 183.32 131.42 C 182.48 131.17 181.59 131.65 181.35 132.50 C 181.10 133.34 181.58 134.22 182.42 134.47 Z M 183.28 134.74 L 184.19 135.01 C 185.03 135.27 185.93 134.78 186.18 133.93 C 186.44 133.09 185.95 132.19 185.10 131.94 L 184.20 131.67 C 183.35 131.41 182.46 131.90 182.20 132.75 C 181.95 133.60 182.43 134.49 183.28 134.74 Z M 184.18 135.03 L 185.14 135.32 C 186.00 135.58 186.90 135.09 187.16 134.24 C 187.42 133.38 186.94 132.48 186.08 132.22 L 185.11 131.92 C 184.26 131.67 183.35 132.15 183.09 133.01 C 182.84 133.86 183.32 134.77 184.18 135.03 Z M 185.13 135.33 L 186.20 135.66 C 187.06 135.92 187.98 135.44 188.24 134.57 C 188.51 133.71 188.02 132.80 187.16 132.53 L 186.09 132.20 C 185.23 131.94 184.31 132.42 184.05 133.29 C 183.78 134.15 184.27 135.07 185.13 135.33 Z M 186.19 135.66 L 187.09 135.94 C 187.96 136.21 188.88 135.73 189.14 134.86 C 189.41 134.00 188.93 133.08 188.07 132.81 L 187.16 132.53 C 186.30 132.26 185.38 132.74 185.11 133.61 C 184.84 134.47 185.33 135.39 186.19 135.66 Z M 187.09 135.93 L 188.01 136.22 C 188.87 136.49 189.79 136.02 190.06 135.16 C 190.33 134.30 189.85 133.38 188.99 133.11 L 188.07 132.82 C 187.21 132.55 186.30 133.03 186.02 133.89 C 185.75 134.74 186.23 135.66 187.09 135.93 Z M 188.01 136.21 L 188.97 136.52 C 189.82 136.79 190.73 136.32 191.01 135.47 C 191.28 134.62 190.81 133.71 189.96 133.43 L 189.00 133.13 C 188.14 132.85 187.23 133.32 186.96 134.17 C 186.69 135.02 187.16 135.94 188.01 136.21 Z M 188.97 136.50 L 189.95 136.82 C 190.79 137.10 191.70 136.64 191.98 135.79 C 192.25 134.95 191.79 134.04 190.95 133.77 L 189.96 133.45 C 189.12 133.17 188.21 133.63 187.94 134.48 C 187.66 135.32 188.12 136.23 188.97 136.50 Z M 189.95 136.81 L 190.93 137.14 C 191.77 137.42 192.67 136.96 192.95 136.13 C 193.23 135.29 192.78 134.39 191.94 134.11 L 190.95 133.78 C 190.11 133.50 189.21 133.96 188.93 134.79 C 188.66 135.63 189.11 136.53 189.95 136.81 Z M 190.93 137.12 L 191.91 137.45 C 192.74 137.74 193.63 137.29 193.92 136.47 C 194.20 135.64 193.75 134.74 192.93 134.46 L 191.95 134.12 C 191.12 133.84 190.22 134.29 189.94 135.11 C 189.66 135.94 190.10 136.84 190.93 137.12 Z M 191.90 137.43 L 192.87 137.77 C 193.69 138.05 194.58 137.62 194.86 136.81 C 195.15 135.99 194.72 135.10 193.90 134.82 L 192.93 134.48 C 192.12 134.20 191.23 134.63 190.94 135.44 C 190.66 136.26 191.09 137.15 191.90 137.43 Z M 192.87 137.74 L 193.82 138.08 C 194.62 138.36 195.50 137.95 195.79 137.15 C 196.07 136.35 195.65 135.47 194.85 135.18 L 193.90 134.85 C 193.10 134.56 192.22 134.98 191.94 135.78 C 191.66 136.58 192.07 137.46 192.87 137.74 Z M 193.82 138.05 L 194.76 138.39 C 195.54 138.67 196.41 138.27 196.69 137.48 C 196.98 136.70 196.57 135.83 195.79 135.55 L 194.85 135.21 C 194.07 134.93 193.20 135.33 192.92 136.12 C 192.63 136.90 193.04 137.77 193.82 138.05 Z M 194.76 138.36 L 195.69 138.70 C 196.46 138.98 197.31 138.59 197.59 137.82 C 197.87 137.05 197.48 136.19 196.71 135.91 L 195.78 135.57 C 195.01 135.29 194.16 135.69 193.88 136.46 C 193.60 137.23 193.99 138.08 194.76 138.36 Z M 195.69 138.68 L 196.61 139.01 C 197.37 139.29 198.21 138.91 198.48 138.15 C 198.76 137.39 198.37 136.55 197.62 136.28 L 196.70 135.94 C 195.94 135.66 195.10 136.05 194.83 136.80 C 194.55 137.56 194.94 138.40 195.69 138.68 Z M 196.62 139.00 L 196.79 139.06 C 197.54 139.34 198.37 138.96 198.64 138.21 C 198.92 137.46 198.54 136.63 197.79 136.35 L 197.61 136.29 C 196.87 136.01 196.04 136.40 195.76 137.15 C 195.48 137.89 195.87 138.72 196.62 139.00 Z"
      fill="black"
      fill-rule="nonzero" /><path d="M 183.36 150.72 L 182.66 151.39 C 182.02 152.00 182.00 153.00 182.61 153.63 C 183.21 154.27 184.22 154.29 184.85 153.68 L 185.55 153.01 C 186.19 152.40 186.21 151.40 185.60 150.77 C 185.00 150.13 183.99 150.11 183.36 150.72 Z M 182.58 151.43 L 181.90 152.15 C 181.29 152.80 181.31 153.82 181.96 154.43 C 182.61 155.05 183.64 155.02 184.25 154.37 L 184.93 153.65 C 185.54 153.00 185.51 151.98 184.86 151.36 C 184.21 150.75 183.19 150.78 182.58 151.43 Z M 181.77 152.24 L 181.14 153.05 C 180.59 153.77 180.72 154.81 181.43 155.37 C 182.15 155.92 183.19 155.80 183.75 155.08 L 184.38 154.27 C 184.93 153.55 184.80 152.51 184.09 151.96 C 183.37 151.40 182.33 151.53 181.77 152.24 Z M 181.02 153.19 L 180.56 153.94 C 180.08 154.73 180.33 155.76 181.12 156.24 C 181.91 156.72 182.93 156.47 183.42 155.68 L 183.87 154.94 C 184.35 154.15 184.10 153.12 183.32 152.64 C 182.53 152.16 181.50 152.41 181.02 153.19 Z M 180.48 154.06 L 180.08 154.87 C 179.66 155.70 180.00 156.71 180.83 157.13 C 181.67 157.55 182.68 157.21 183.09 156.37 L 183.50 155.57 C 183.91 154.73 183.58 153.72 182.74 153.30 C 181.91 152.89 180.90 153.23 180.48 154.06 Z M 180.02 154.95 L 179.63 155.88 C 179.26 156.74 179.65 157.74 180.52 158.11 C 181.38 158.48 182.38 158.08 182.75 157.22 L 183.15 156.29 C 183.52 155.43 183.12 154.43 182.26 154.06 C 181.39 153.69 180.40 154.09 180.02 154.95 Z M 179.59 155.92 L 179.18 156.98 C 178.84 157.86 179.27 158.86 180.15 159.20 C 181.03 159.54 182.02 159.11 182.37 158.23 L 182.78 157.17 C 183.13 156.29 182.69 155.30 181.81 154.95 C 180.93 154.61 179.94 155.04 179.59 155.92 Z M 179.16 157.00 L 178.80 157.97 C 178.47 158.86 178.92 159.86 179.81 160.19 C 180.70 160.52 181.69 160.07 182.03 159.18 L 182.39 158.21 C 182.72 157.32 182.27 156.32 181.38 155.99 C 180.48 155.66 179.49 156.11 179.16 157.00 Z M 178.79 157.98 L 178.45 158.90 C 178.13 159.79 178.59 160.79 179.48 161.11 C 180.38 161.44 181.37 160.98 181.70 160.08 L 182.04 159.17 C 182.37 158.27 181.90 157.28 181.01 156.95 C 180.11 156.62 179.12 157.08 178.79 157.98 Z M 178.45 158.90 L 178.10 159.86 C 177.77 160.76 178.24 161.75 179.14 162.08 C 180.04 162.41 181.04 161.94 181.37 161.04 L 181.71 160.08 C 182.04 159.18 181.57 158.18 180.67 157.86 C 179.77 157.53 178.77 158.00 178.45 158.90 Z M 178.09 159.86 L 177.74 160.83 C 177.42 161.74 177.89 162.74 178.79 163.06 C 179.70 163.39 180.70 162.92 181.02 162.01 L 181.37 161.04 C 181.70 160.13 181.23 159.13 180.32 158.81 C 179.41 158.48 178.42 158.95 178.09 159.86 Z M 177.74 160.83 L 177.39 161.80 C 177.06 162.71 177.54 163.71 178.45 164.04 C 179.36 164.36 180.36 163.89 180.68 162.98 L 181.03 162.01 C 181.35 161.10 180.88 160.10 179.97 159.77 C 179.06 159.45 178.06 159.92 177.74 160.83 Z M 177.38 161.80 L 177.05 162.74 C 176.72 163.66 177.20 164.66 178.11 164.99 C 179.02 165.31 180.03 164.84 180.35 163.92 L 180.69 162.98 C 181.01 162.07 180.54 161.06 179.63 160.74 C 178.71 160.41 177.71 160.89 177.38 161.80 Z M 177.04 162.74 L 176.68 163.74 C 176.36 164.65 176.83 165.66 177.75 165.99 C 178.66 166.32 179.67 165.84 180.00 164.92 L 180.36 163.93 C 180.68 163.01 180.21 162.01 179.29 161.68 C 178.38 161.35 177.37 161.82 177.04 162.74 Z M 176.68 163.73 L 176.33 164.70 C 176.00 165.61 176.47 166.63 177.39 166.96 C 178.30 167.29 179.31 166.82 179.65 165.90 L 180.00 164.93 C 180.33 164.02 179.86 163.01 178.94 162.67 C 178.03 162.34 177.02 162.81 176.68 163.73 Z M 176.33 164.69 L 175.99 165.61 C 175.65 166.53 176.11 167.54 177.03 167.88 C 177.94 168.22 178.96 167.76 179.30 166.84 L 179.64 165.92 C 179.98 165.00 179.52 163.99 178.60 163.65 C 177.69 163.31 176.67 163.77 176.33 164.69 Z M 175.99 165.59 L 175.65 166.49 C 175.30 167.40 175.75 168.43 176.66 168.78 C 177.57 169.13 178.59 168.67 178.95 167.76 L 179.29 166.86 C 179.64 165.95 179.19 164.93 178.28 164.58 C 177.37 164.23 176.35 164.68 175.99 165.59 Z M 175.65 166.47 L 175.30 167.36 C 174.93 168.26 175.37 169.29 176.28 169.66 C 177.18 170.03 178.21 169.59 178.58 168.68 L 178.94 167.79 C 179.30 166.88 178.87 165.85 177.96 165.48 C 177.05 165.12 176.02 165.56 175.65 166.47 Z M 175.30 167.33 L 174.93 168.20 C 174.55 169.11 174.97 170.15 175.88 170.53 C 176.78 170.91 177.82 170.49 178.20 169.59 L 178.57 168.71 C 178.95 167.81 178.53 166.77 177.63 166.38 C 176.73 166.00 175.69 166.42 175.30 167.33 Z M 174.94 168.18 L 174.55 169.05 C 174.16 169.95 174.56 171.00 175.46 171.40 C 176.35 171.79 177.40 171.39 177.80 170.49 L 178.19 169.61 C 178.59 168.72 178.18 167.67 177.29 167.27 C 176.39 166.87 175.34 167.28 174.94 168.18 Z M 174.56 169.03 L 174.15 169.92 C 173.74 170.82 174.13 171.87 175.02 172.28 C 175.91 172.70 176.97 172.31 177.38 171.42 L 177.79 170.52 C 178.20 169.63 177.81 168.57 176.92 168.16 C 176.03 167.75 174.97 168.14 174.56 169.03 Z M 174.16 169.90 L 173.72 170.81 C 173.30 171.70 173.67 172.76 174.56 173.19 C 175.44 173.61 176.51 173.24 176.93 172.35 L 177.37 171.44 C 177.79 170.55 177.42 169.49 176.53 169.06 C 175.65 168.64 174.58 169.01 174.16 169.90 Z M 173.73 170.79 L 173.27 171.72 C 172.83 172.60 173.19 173.67 174.07 174.11 C 174.96 174.55 176.03 174.19 176.46 173.30 L 176.92 172.37 C 177.36 171.49 177.00 170.42 176.12 169.98 C 175.24 169.55 174.17 169.91 173.73 170.79 Z M 173.28 171.70 L 172.81 172.60 C 172.36 173.48 172.71 174.56 173.59 175.01 C 174.47 175.46 175.54 175.11 175.99 174.23 L 176.46 173.32 C 176.90 172.45 176.56 171.37 175.68 170.92 C 174.80 170.47 173.72 170.82 173.28 171.70 Z M 172.82 172.59 L 172.38 173.43 C 171.92 174.31 172.26 175.39 173.13 175.84 C 174.01 176.30 175.09 175.96 175.54 175.09 L 175.99 174.25 C 176.44 173.37 176.11 172.29 175.23 171.83 C 174.36 171.38 173.28 171.71 172.82 172.59 Z M 172.38 173.42 L 171.93 174.28 C 171.46 175.15 171.79 176.23 172.66 176.70 C 173.53 177.16 174.61 176.83 175.08 175.96 L 175.54 175.10 C 176.00 174.23 175.67 173.15 174.80 172.68 C 173.93 172.22 172.85 172.55 172.38 173.42 Z M 171.93 174.27 L 171.46 175.14 C 170.98 176.01 171.30 177.09 172.17 177.57 C 173.04 178.04 174.13 177.72 174.60 176.85 L 175.07 175.97 C 175.55 175.11 175.22 174.02 174.36 173.55 C 173.49 173.08 172.40 173.40 171.93 174.27 Z M 171.46 175.13 L 170.97 176.02 C 170.49 176.89 170.81 177.98 171.67 178.45 C 172.54 178.93 173.62 178.62 174.10 177.75 L 174.59 176.86 C 175.07 175.99 174.76 174.90 173.89 174.43 C 173.03 173.95 171.94 174.26 171.46 175.13 Z M 170.97 176.01 L 170.46 176.92 C 169.98 177.78 170.29 178.88 171.15 179.36 C 172.02 179.84 173.11 179.53 173.59 178.67 L 174.10 177.76 C 174.58 176.90 174.27 175.80 173.41 175.32 C 172.54 174.84 171.45 175.15 170.97 176.01 Z M 170.47 176.91 L 169.96 177.81 C 169.47 178.68 169.78 179.77 170.64 180.25 C 171.50 180.74 172.60 180.44 173.08 179.57 L 173.59 178.67 C 174.07 177.81 173.77 176.72 172.91 176.23 C 172.05 175.75 170.95 176.05 170.47 176.91 Z M 169.96 177.81 L 169.48 178.66 C 168.99 179.52 169.29 180.62 170.15 181.11 C 171.01 181.60 172.10 181.30 172.59 180.44 L 173.08 179.58 C 173.57 178.72 173.27 177.63 172.41 177.14 C 171.55 176.65 170.45 176.95 169.96 177.81 Z M 169.48 178.66 L 168.98 179.52 C 168.49 180.38 168.79 181.48 169.65 181.97 C 170.50 182.46 171.60 182.16 172.09 181.31 L 172.59 180.44 C 173.08 179.58 172.78 178.49 171.93 178.00 C 171.07 177.50 169.97 177.80 169.48 178.66 Z M 168.99 179.51 L 168.48 180.38 C 167.99 181.24 168.28 182.34 169.13 182.83 C 169.99 183.33 171.08 183.04 171.58 182.18 L 172.09 181.32 C 172.58 180.46 172.29 179.36 171.44 178.87 C 170.58 178.37 169.49 178.66 168.99 179.51 Z M 168.49 180.37 L 167.98 181.24 C 167.47 182.09 167.76 183.19 168.61 183.70 C 169.46 184.20 170.56 183.92 171.06 183.06 L 171.57 182.19 C 172.08 181.34 171.79 180.24 170.94 179.74 C 170.09 179.24 168.99 179.52 168.49 180.37 Z M 167.98 181.23 L 167.46 182.10 C 166.95 182.94 167.23 184.05 168.08 184.55 C 168.93 185.06 170.03 184.79 170.54 183.94 L 171.05 183.08 C 171.56 182.23 171.29 181.13 170.44 180.62 C 169.59 180.11 168.49 180.38 167.98 181.23 Z M 167.47 182.08 L 166.95 182.94 C 166.43 183.78 166.70 184.89 167.54 185.40 C 168.38 185.92 169.49 185.65 170.00 184.81 L 170.53 183.95 C 171.04 183.11 170.78 182.01 169.93 181.49 C 169.09 180.97 167.99 181.24 167.47 182.08 Z M 166.96 182.92 L 166.42 183.78 C 165.90 184.62 166.15 185.72 166.99 186.25 C 167.83 186.77 168.93 186.52 169.46 185.68 L 169.99 184.82 C 170.52 183.99 170.26 182.88 169.43 182.36 C 168.59 181.83 167.48 182.09 166.96 182.92 Z M 166.43 183.76 L 165.89 184.61 C 165.35 185.44 165.60 186.55 166.43 187.09 C 167.26 187.62 168.37 187.38 168.90 186.54 L 169.45 185.70 C 169.98 184.86 169.74 183.76 168.91 183.22 C 168.07 182.69 166.97 182.93 166.43 183.76 Z M 165.90 184.60 L 165.35 185.43 C 164.81 186.26 165.04 187.37 165.87 187.91 C 166.69 188.46 167.80 188.22 168.35 187.40 L 168.89 186.56 C 169.44 185.73 169.21 184.62 168.38 184.08 C 167.55 183.54 166.44 183.77 165.90 184.60 Z M 165.36 185.42 L 164.81 186.25 C 164.26 187.07 164.48 188.18 165.30 188.73 C 166.12 189.28 167.23 189.06 167.78 188.24 L 168.34 187.41 C 168.89 186.59 168.67 185.48 167.84 184.93 C 167.02 184.38 165.91 184.60 165.36 185.42 Z M 164.82 186.23 L 164.26 187.05 C 163.70 187.87 163.91 188.98 164.72 189.54 C 165.54 190.10 166.65 189.89 167.21 189.07 L 167.77 188.25 C 168.33 187.44 168.12 186.32 167.30 185.76 C 166.49 185.21 165.37 185.42 164.82 186.23 Z M 164.26 187.04 L 163.70 187.86 C 163.13 188.67 163.33 189.78 164.14 190.35 C 164.95 190.91 166.07 190.71 166.63 189.90 L 167.20 189.09 C 167.77 188.27 167.57 187.16 166.76 186.59 C 165.95 186.03 164.83 186.23 164.26 187.04 Z M 163.71 187.84 L 163.13 188.66 C 162.56 189.46 162.75 190.58 163.56 191.15 C 164.36 191.72 165.48 191.53 166.05 190.73 L 166.63 189.91 C 167.20 189.11 167.01 187.99 166.20 187.42 C 165.39 186.85 164.28 187.04 163.71 187.84 Z M 163.14 188.65 L 162.56 189.45 C 161.98 190.25 162.16 191.37 162.97 191.95 C 163.77 192.53 164.89 192.34 165.46 191.54 L 166.04 190.74 C 166.62 189.94 166.44 188.82 165.64 188.24 C 164.83 187.66 163.72 187.85 163.14 188.65 Z M 162.57 189.44 L 161.98 190.25 C 161.40 191.04 161.57 192.16 162.37 192.75 C 163.17 193.33 164.28 193.15 164.87 192.36 L 165.45 191.55 C 166.04 190.75 165.86 189.64 165.07 189.05 C 164.27 188.47 163.15 188.64 162.57 189.44 Z M 161.99 190.24 L 161.39 191.04 C 160.80 191.84 160.97 192.96 161.76 193.54 C 162.56 194.13 163.68 193.96 164.26 193.17 L 164.86 192.37 C 165.45 191.57 165.28 190.45 164.49 189.87 C 163.69 189.28 162.57 189.44 161.99 190.24 Z M 161.40 191.03 L 160.80 191.84 C 160.21 192.63 160.37 193.75 161.16 194.34 C 161.94 194.93 163.06 194.77 163.66 193.98 L 164.26 193.18 C 164.85 192.39 164.69 191.27 163.90 190.68 C 163.11 190.08 161.99 190.24 161.40 191.03 Z M 160.80 191.83 L 160.20 192.63 C 159.60 193.42 159.76 194.54 160.54 195.13 C 161.33 195.73 162.45 195.57 163.04 194.79 L 163.65 193.99 C 164.25 193.20 164.09 192.08 163.31 191.48 C 162.52 190.89 161.40 191.04 160.80 191.83 Z M 160.20 192.62 L 159.59 193.42 C 158.99 194.20 159.14 195.32 159.92 195.92 C 160.71 196.52 161.83 196.37 162.43 195.59 L 163.04 194.79 C 163.64 194.01 163.49 192.89 162.71 192.29 C 161.92 191.69 160.80 191.84 160.20 192.62 Z M 159.60 193.42 L 158.98 194.21 C 158.38 194.99 158.52 196.11 159.30 196.71 C 160.08 197.32 161.20 197.17 161.81 196.39 L 162.42 195.60 C 163.02 194.82 162.88 193.70 162.10 193.09 C 161.32 192.49 160.20 192.64 159.60 193.42 Z M 158.99 194.21 L 158.37 195.00 C 157.76 195.78 157.90 196.90 158.68 197.50 C 159.46 198.11 160.58 197.97 161.18 197.19 L 161.80 196.40 C 162.41 195.62 162.27 194.50 161.49 193.90 C 160.71 193.29 159.59 193.43 158.99 194.21 Z M 158.37 195.00 L 157.75 195.79 C 157.15 196.56 157.28 197.68 158.05 198.29 C 158.83 198.90 159.95 198.76 160.55 197.99 L 161.18 197.20 C 161.78 196.42 161.65 195.30 160.87 194.70 C 160.10 194.09 158.98 194.22 158.37 195.00 Z M 157.76 195.79 L 157.14 196.57 C 156.53 197.34 156.66 198.46 157.43 199.07 C 158.20 199.68 159.32 199.55 159.93 198.78 L 160.55 197.99 C 161.16 197.22 161.03 196.10 160.26 195.49 C 159.49 194.88 158.37 195.01 157.76 195.79 Z M 157.14 196.57 L 156.52 197.35 C 155.91 198.12 156.04 199.24 156.81 199.85 C 157.57 200.46 158.69 200.33 159.30 199.56 L 159.92 198.78 C 160.53 198.01 160.41 196.89 159.64 196.28 C 158.87 195.67 157.75 195.80 157.14 196.57 Z M 156.52 197.35 L 155.90 198.12 C 155.29 198.89 155.42 200.01 156.18 200.62 C 156.95 201.23 158.07 201.11 158.68 200.34 L 159.30 199.56 C 159.91 198.80 159.79 197.68 159.02 197.07 C 158.25 196.46 157.14 196.58 156.52 197.35 Z M 155.91 198.12 L 155.29 198.90 C 154.68 199.66 154.80 200.78 155.56 201.39 C 156.33 202.00 157.44 201.88 158.06 201.11 L 158.68 200.34 C 159.29 199.58 159.17 198.46 158.40 197.85 C 157.64 197.24 156.52 197.36 155.91 198.12 Z M 155.29 198.89 L 154.66 199.68 C 154.04 200.45 154.17 201.56 154.93 202.18 C 155.69 202.79 156.81 202.67 157.42 201.90 L 158.05 201.11 C 158.67 200.35 158.55 199.24 157.78 198.62 C 157.02 198.01 155.91 198.13 155.29 198.89 Z M 154.66 199.68 L 154.03 200.47 C 153.42 201.23 153.53 202.34 154.29 202.96 C 155.05 203.57 156.17 203.45 156.78 202.69 L 157.41 201.91 C 158.03 201.14 157.91 200.03 157.15 199.42 C 156.39 198.81 155.27 198.92 154.66 199.68 Z M 154.03 200.47 L 153.40 201.25 C 152.79 202.00 152.91 203.12 153.66 203.73 C 154.42 204.34 155.53 204.23 156.15 203.47 L 156.78 202.69 C 157.39 201.93 157.27 200.82 156.52 200.21 C 155.76 199.59 154.65 199.71 154.03 200.47 Z M 153.41 201.25 L 152.78 202.02 C 152.16 202.78 152.28 203.89 153.03 204.50 C 153.79 205.11 154.90 205.00 155.51 204.24 L 156.14 203.47 C 156.76 202.71 156.64 201.60 155.89 200.99 C 155.13 200.38 154.02 200.49 153.41 201.25 Z M 152.78 202.02 L 152.15 202.79 C 151.54 203.54 151.65 204.65 152.41 205.26 C 153.16 205.88 154.27 205.77 154.88 205.01 L 155.51 204.24 C 156.12 203.49 156.01 202.38 155.26 201.77 C 154.51 201.15 153.40 201.27 152.78 202.02 Z M 152.16 202.79 L 151.53 203.55 C 150.92 204.30 151.03 205.41 151.78 206.03 C 152.53 206.64 153.64 206.53 154.25 205.78 L 154.88 205.01 C 155.49 204.26 155.38 203.16 154.63 202.54 C 153.88 201.93 152.77 202.04 152.16 202.79 Z M 151.54 203.55 L 150.91 204.32 C 150.29 205.07 150.40 206.17 151.15 206.79 C 151.89 207.40 153.00 207.30 153.62 206.55 L 154.25 205.78 C 154.86 205.03 154.75 203.93 154.01 203.31 C 153.26 202.70 152.15 202.80 151.54 203.55 Z M 150.91 204.32 L 150.28 205.08 C 149.66 205.83 149.77 206.93 150.51 207.55 C 151.26 208.17 152.36 208.06 152.98 207.32 L 153.61 206.55 C 154.23 205.80 154.12 204.70 153.38 204.08 C 152.63 203.47 151.53 203.57 150.91 204.32 Z M 150.28 205.08 L 149.65 205.85 C 149.03 206.59 149.13 207.69 149.87 208.31 C 150.61 208.93 151.72 208.82 152.33 208.08 L 152.97 207.32 C 153.59 206.58 153.49 205.47 152.75 204.86 C 152.00 204.24 150.90 204.34 150.28 205.08 Z M 149.65 205.84 L 149.01 206.61 C 148.39 207.35 148.49 208.45 149.23 209.07 C 149.97 209.68 151.07 209.59 151.69 208.85 L 152.33 208.08 C 152.95 207.35 152.85 206.25 152.11 205.63 C 151.37 205.01 150.27 205.10 149.65 205.84 Z M 149.02 206.60 L 148.37 207.37 C 147.75 208.10 147.84 209.20 148.58 209.82 C 149.31 210.44 150.41 210.35 151.03 209.62 L 151.68 208.85 C 152.30 208.12 152.21 207.02 151.47 206.40 C 150.74 205.78 149.64 205.87 149.02 206.60 Z M 148.38 207.36 L 147.73 208.13 C 147.10 208.86 147.19 209.96 147.92 210.58 C 148.65 211.21 149.75 211.12 150.37 210.39 L 151.03 209.62 C 151.65 208.89 151.56 207.79 150.83 207.17 C 150.10 206.55 149.00 206.63 148.38 207.36 Z M 147.74 208.13 L 147.07 208.90 C 146.45 209.62 146.53 210.72 147.25 211.34 C 147.98 211.97 149.07 211.89 149.70 211.16 L 150.36 210.39 C 150.99 209.67 150.91 208.57 150.18 207.95 C 149.46 207.32 148.36 207.40 147.74 208.13 Z M 147.08 208.89 L 146.41 209.67 C 145.78 210.39 145.85 211.48 146.57 212.11 C 147.29 212.73 148.38 212.66 149.01 211.94 L 149.69 211.17 C 150.31 210.45 150.24 209.36 149.52 208.73 C 148.80 208.10 147.71 208.17 147.08 208.89 Z M 146.42 209.66 L 145.74 210.43 C 145.11 211.14 145.18 212.23 145.89 212.86 C 146.60 213.49 147.69 213.42 148.32 212.71 L 149.00 211.94 C 149.63 211.23 149.56 210.14 148.85 209.51 C 148.14 208.88 147.05 208.95 146.42 209.66 Z M 145.76 210.43 L 145.08 211.18 C 144.45 211.88 144.50 212.97 145.21 213.60 C 145.91 214.23 146.99 214.17 147.63 213.47 L 148.31 212.72 C 148.94 212.01 148.88 210.93 148.18 210.30 C 147.47 209.66 146.39 209.72 145.76 210.43 Z M 145.09 211.17 L 144.42 211.91 C 143.78 212.60 143.83 213.68 144.53 214.32 C 145.22 214.96 146.30 214.91 146.94 214.21 L 147.61 213.48 C 148.25 212.78 148.20 211.70 147.50 211.07 C 146.81 210.43 145.73 210.48 145.09 211.17 Z M 144.44 211.90 L 143.77 212.61 C 143.13 213.30 143.17 214.37 143.85 215.01 C 144.54 215.65 145.61 215.62 146.26 214.93 L 146.92 214.22 C 147.56 213.54 147.52 212.46 146.84 211.82 C 146.15 211.18 145.08 211.22 144.44 211.90 Z M 143.79 212.60 L 143.12 213.30 C 142.48 213.97 142.50 215.04 143.17 215.69 C 143.85 216.34 144.92 216.32 145.56 215.64 L 146.23 214.94 C 146.88 214.27 146.86 213.20 146.19 212.55 C 145.51 211.91 144.44 211.93 143.79 212.60 Z M 143.15 213.29 L 142.40 214.04 C 141.75 214.70 141.75 215.76 142.41 216.42 C 143.07 217.07 144.13 217.07 144.79 216.41 L 145.54 215.66 C 146.19 215.00 146.19 213.93 145.53 213.28 C 144.87 212.62 143.80 212.63 143.15 213.29 Z M 142.44 214.02 L 141.71 214.72 C 141.04 215.36 141.02 216.42 141.66 217.09 C 142.30 217.75 143.36 217.77 144.02 217.13 L 144.76 216.43 C 145.42 215.79 145.44 214.73 144.80 214.06 C 144.16 213.40 143.10 213.38 142.44 214.02 Z M 141.74 214.70 L 141.02 215.37 C 140.34 215.99 140.29 217.04 140.91 217.71 C 141.53 218.39 142.58 218.44 143.25 217.82 L 143.98 217.15 C 144.66 216.54 144.71 215.49 144.09 214.81 C 143.47 214.13 142.42 214.08 141.74 214.70 Z M 141.06 215.34 L 140.33 215.97 C 139.64 216.57 139.56 217.61 140.15 218.30 C 140.74 218.99 141.79 219.07 142.48 218.47 L 143.21 217.84 C 143.90 217.25 143.98 216.21 143.38 215.52 C 142.79 214.83 141.75 214.75 141.06 215.34 Z M 140.37 215.95 L 139.63 216.55 C 138.92 217.12 138.81 218.15 139.38 218.85 C 139.95 219.56 140.98 219.67 141.68 219.10 L 142.43 218.50 C 143.13 217.93 143.24 216.90 142.68 216.20 C 142.11 215.49 141.08 215.38 140.37 215.95 Z M 139.68 216.52 L 138.89 217.12 C 138.17 217.66 138.02 218.68 138.56 219.40 C 139.10 220.11 140.12 220.26 140.84 219.72 L 141.63 219.13 C 142.35 218.59 142.49 217.57 141.96 216.85 C 141.42 216.13 140.40 215.99 139.68 216.52 Z M 138.93 217.10 L 138.12 217.67 C 137.39 218.18 137.21 219.19 137.72 219.92 C 138.24 220.65 139.24 220.83 139.97 220.31 L 140.79 219.74 C 141.52 219.23 141.70 218.22 141.18 217.49 C 140.67 216.76 139.66 216.59 138.93 217.10 Z M 138.16 217.66 L 137.33 218.21 C 136.59 218.70 136.38 219.69 136.87 220.43 C 137.36 221.17 138.35 221.37 139.09 220.88 L 139.93 220.33 C 140.67 219.84 140.87 218.85 140.38 218.11 C 139.89 217.37 138.90 217.17 138.16 217.66 Z M 137.36 218.20 L 136.51 218.73 C 135.77 219.20 135.55 220.18 136.01 220.92 C 136.48 221.67 137.46 221.89 138.21 221.43 L 139.05 220.89 C 139.80 220.43 140.02 219.44 139.56 218.70 C 139.09 217.96 138.11 217.73 137.36 218.20 Z M 136.55 218.72 L 135.69 219.24 C 134.94 219.69 134.70 220.66 135.15 221.41 C 135.59 222.15 136.57 222.40 137.31 221.95 L 138.17 221.43 C 138.92 220.98 139.16 220.01 138.71 219.27 C 138.27 218.52 137.30 218.27 136.55 218.72 Z M 135.72 219.23 L 134.85 219.73 C 134.10 220.17 133.85 221.12 134.28 221.88 C 134.71 222.63 135.67 222.88 136.42 222.45 L 137.28 221.95 C 138.04 221.52 138.29 220.56 137.86 219.81 C 137.43 219.06 136.47 218.80 135.72 219.23 Z M 134.88 219.73 L 134.01 220.21 C 133.26 220.63 132.99 221.58 133.40 222.33 C 133.82 223.08 134.77 223.35 135.52 222.94 L 136.39 222.46 C 137.15 222.04 137.42 221.09 137.00 220.34 C 136.58 219.58 135.63 219.31 134.88 219.73 Z M 134.04 220.20 L 133.16 220.67 C 132.40 221.07 132.12 222.01 132.52 222.76 C 132.92 223.52 133.85 223.81 134.61 223.41 L 135.49 222.94 C 136.25 222.54 136.54 221.61 136.14 220.85 C 135.74 220.09 134.80 219.80 134.04 220.20 Z M 133.20 220.66 L 132.30 221.11 C 131.54 221.49 131.23 222.42 131.61 223.18 C 132.00 223.94 132.92 224.25 133.68 223.86 L 134.58 223.42 C 135.34 223.04 135.64 222.11 135.26 221.35 C 134.88 220.59 133.96 220.28 133.20 220.66 Z M 132.34 221.10 L 131.43 221.53 C 130.66 221.89 130.34 222.81 130.70 223.57 C 131.06 224.33 131.97 224.66 132.73 224.30 L 133.64 223.87 C 134.41 223.51 134.74 222.60 134.38 221.83 C 134.01 221.07 133.10 220.74 132.34 221.10 Z M 131.47 221.52 L 130.56 221.93 C 129.79 222.27 129.44 223.16 129.78 223.93 C 130.12 224.70 131.02 225.05 131.79 224.71 L 132.70 224.31 C 133.47 223.97 133.81 223.07 133.47 222.30 C 133.13 221.53 132.24 221.19 131.47 221.52 Z M 130.59 221.92 L 129.68 222.30 C 128.90 222.62 128.53 223.50 128.85 224.28 C 129.17 225.05 130.06 225.42 130.83 225.10 L 131.75 224.72 C 132.52 224.40 132.89 223.51 132.57 222.74 C 132.25 221.97 131.37 221.60 130.59 221.92 Z M 129.71 222.29 L 128.78 222.65 C 128.00 222.95 127.62 223.83 127.92 224.60 C 128.22 225.38 129.09 225.77 129.87 225.46 L 130.80 225.10 C 131.58 224.80 131.96 223.93 131.66 223.15 C 131.36 222.38 130.48 221.99 129.71 222.29 Z M 128.81 222.65 L 127.86 222.99 C 127.09 223.28 126.69 224.14 126.97 224.92 C 127.25 225.70 128.12 226.10 128.90 225.81 L 129.84 225.47 C 130.62 225.18 131.02 224.32 130.73 223.54 C 130.45 222.77 129.59 222.36 128.81 222.65 Z M 127.89 222.99 L 126.94 223.32 C 126.16 223.59 125.75 224.44 126.02 225.22 C 126.28 226.00 127.14 226.42 127.92 226.15 L 128.87 225.82 C 129.65 225.55 130.06 224.70 129.79 223.92 C 129.52 223.14 128.67 222.72 127.89 222.99 Z M 126.96 223.32 L 126.01 223.63 C 125.23 223.89 124.81 224.73 125.06 225.51 C 125.32 226.29 126.16 226.72 126.94 226.46 L 127.89 226.15 C 128.67 225.89 129.10 225.05 128.84 224.27 C 128.59 223.49 127.74 223.06 126.96 223.32 Z M 126.04 223.63 L 125.11 223.92 C 124.32 224.16 123.89 225.00 124.13 225.78 C 124.37 226.56 125.21 227.00 125.99 226.75 L 126.92 226.46 C 127.70 226.22 128.14 225.39 127.90 224.60 C 127.65 223.82 126.82 223.38 126.04 223.63 Z M 125.13 223.91 L 124.18 224.19 C 123.40 224.43 122.95 225.25 123.18 226.04 C 123.42 226.82 124.24 227.27 125.03 227.04 L 125.97 226.76 C 126.76 226.52 127.20 225.70 126.97 224.91 C 126.74 224.13 125.91 223.68 125.13 223.91 Z M 124.20 224.19 L 123.25 224.46 C 122.46 224.68 122.00 225.50 122.22 226.29 C 122.44 227.08 123.26 227.54 124.05 227.31 L 125.01 227.04 C 125.80 226.82 126.26 226.00 126.03 225.21 C 125.81 224.42 124.99 223.97 124.20 224.19 Z M 123.26 224.45 L 122.29 224.72 C 121.50 224.93 121.03 225.74 121.24 226.53 C 121.45 227.32 122.27 227.79 123.06 227.58 L 124.03 227.32 C 124.82 227.10 125.29 226.29 125.08 225.50 C 124.87 224.71 124.06 224.24 123.26 224.45 Z M 122.31 224.71 L 121.30 224.97 C 120.51 225.17 120.03 225.98 120.24 226.77 C 120.44 227.56 121.24 228.04 122.04 227.84 L 123.04 227.58 C 123.83 227.38 124.31 226.57 124.11 225.78 C 123.90 224.99 123.10 224.51 122.31 224.71 Z M 121.32 224.97 L 120.37 225.20 C 119.57 225.39 119.09 226.19 119.28 226.99 C 119.48 227.78 120.28 228.27 121.07 228.07 L 122.02 227.84 C 122.82 227.65 123.30 226.85 123.11 226.05 C 122.91 225.26 122.11 224.77 121.32 224.97 Z M 120.38 225.20 L 119.43 225.42 C 118.63 225.61 118.14 226.40 118.33 227.20 C 118.51 227.99 119.31 228.49 120.10 228.30 L 121.06 228.08 C 121.85 227.89 122.35 227.09 122.16 226.30 C 121.97 225.50 121.18 225.01 120.38 225.20 Z M 119.44 225.42 L 118.47 225.64 C 117.67 225.82 117.17 226.62 117.35 227.41 C 117.54 228.21 118.33 228.70 119.12 228.52 L 120.09 228.30 C 120.89 228.12 121.39 227.33 121.21 226.53 C 121.03 225.74 120.23 225.24 119.44 225.42 Z M 118.47 225.64 L 117.49 225.86 C 116.69 226.04 116.19 226.83 116.37 227.62 C 116.55 228.42 117.34 228.92 118.13 228.74 L 119.12 228.52 C 119.91 228.35 120.41 227.56 120.24 226.76 C 120.06 225.96 119.27 225.46 118.47 225.64 Z M 117.49 225.86 L 116.50 226.08 C 115.70 226.25 115.20 227.04 115.37 227.84 C 115.55 228.63 116.34 229.14 117.13 228.96 L 118.13 228.74 C 118.92 228.57 119.43 227.78 119.25 226.98 C 119.08 226.19 118.29 225.68 117.49 225.86 Z M 116.50 226.08 L 115.50 226.30 C 114.71 226.47 114.20 227.26 114.38 228.05 C 114.55 228.85 115.34 229.35 116.13 229.18 L 117.13 228.96 C 117.93 228.79 118.43 228.00 118.26 227.21 C 118.09 226.41 117.30 225.90 116.50 226.08 Z M 115.50 226.30 L 115.22 226.36 C 114.42 226.53 113.92 227.32 114.09 228.11 C 114.26 228.91 115.05 229.42 115.85 229.24 L 116.13 229.18 C 116.93 229.01 117.43 228.22 117.26 227.42 C 117.09 226.63 116.30 226.12 115.50 226.30 Z"
      fill="black"
      fill-rule="nonzero" /></svg>