<svg xmlns="http://www.w3.org/2000/svg" width="300" height="300" viewBox="0 0 300 300">
<path d="M 118.78 109.87 L 119.61 110.21 C 120.38 110.54 121.27 110.17 121.59 109.40 C 121.91 108.64 121.55 107.75 120.78 107.43 L 119.95 107.08 C 119.18 106.76 118.30 107.12 117.98 107.89 C 117.65 108.66 118.02 109.54 118.78 109.87 Z M 119.53 110.21 L 120.39 110.62 C 121.15 110.98 122.07 110.66 122.44 109.90 C 122.81 109.13 122.48 108.21 121.72 107.84 L 120.86 107.43 C 120.10 107.07 119.18 107.39 118.81 108.16 C 118.44 108.92 118.77 109.84 119.53 110.21 Z M 120.26 110.58 L 121.17 111.11 C 121.91 111.55 122.87 111.31 123.31 110.56 C 123.75 109.82 123.50 108.86 122.76 108.42 L 121.85 107.88 C 121.10 107.44 120.14 107.69 119.70 108.44 C 119.26 109.18 119.51 110.14 120.26 110.58 Z M 121.03 111.05 L 121.89 111.67 C 122.60 112.18 123.59 112.02 124.10 111.31 C 124.62 110.60 124.46 109.61 123.75 109.10 L 122.89 108.48 C 122.18 107.97 121.19 108.13 120.67 108.84 C 120.16 109.55 120.32 110.54 121.03 111.05 Z M 121.80 111.61 L 122.56 112.24 C 123.24 112.80 124.24 112.71 124.80 112.03 C 125.36 111.35 125.27 110.35 124.59 109.79 L 123.84 109.16 C 123.16 108.60 122.15 108.69 121.59 109.37 C 121.03 110.05 121.12 111.05 121.80 111.61 Z M 122.51 112.20 L 123.27 112.89 C 123.93 113.48 124.93 113.43 125.52 112.77 C 126.11 112.12 126.06 111.11 125.41 110.52 L 124.64 109.83 C 123.99 109.24 122.98 109.29 122.39 109.94 C 121.80 110.60 121.85 111.61 122.51 112.20 Z M 123.23 112.85 L 123.98 113.57 C 124.62 114.18 125.63 114.17 126.24 113.53 C 126.85 112.90 126.83 111.89 126.20 111.28 L 125.45 110.56 C 124.81 109.94 123.80 109.96 123.19 110.60 C 122.58 111.23 122.60 112.24 123.23 112.85 Z M 123.95 113.54 L 124.65 114.26 C 125.27 114.89 126.28 114.89 126.91 114.28 C 127.54 113.66 127.55 112.65 126.93 112.02 L 126.23 111.31 C 125.61 110.68 124.60 110.67 123.97 111.29 C 123.34 111.91 123.33 112.91 123.95 113.54 Z M 124.62 114.23 L 125.35 115.01 C 125.95 115.65 126.96 115.69 127.61 115.09 C 128.25 114.49 128.29 113.48 127.69 112.83 L 126.96 112.05 C 126.36 111.41 125.35 111.37 124.70 111.97 C 124.06 112.57 124.02 113.58 124.62 114.23 Z M 125.32 114.97 L 126.00 115.75 C 126.58 116.42 127.59 116.49 128.25 115.91 C 128.91 115.33 128.98 114.32 128.41 113.66 L 127.72 112.87 C 127.14 112.21 126.14 112.14 125.47 112.72 C 124.81 113.30 124.74 114.30 125.32 114.97 Z M 125.96 115.71 L 126.56 116.45 C 127.11 117.14 128.12 117.25 128.80 116.70 C 129.49 116.15 129.60 115.14 129.05 114.46 L 128.45 113.71 C 127.89 113.02 126.89 112.91 126.20 113.46 C 125.52 114.01 125.41 115.02 125.96 115.71 Z M 126.52 116.41 L 127.08 117.15 C 127.60 117.86 128.60 118.01 129.31 117.48 C 130.02 116.96 130.16 115.96 129.64 115.25 L 129.09 114.50 C 128.56 113.80 127.56 113.65 126.85 114.17 C 126.15 114.70 126.00 115.70 126.52 116.41 Z M 127.04 117.11 L 127.59 117.90 C 128.09 118.62 129.09 118.81 129.81 118.30 C 130.54 117.80 130.72 116.81 130.22 116.08 L 129.67 115.29 C 129.17 114.57 128.17 114.39 127.45 114.89 C 126.72 115.39 126.54 116.38 127.04 117.11 Z M 127.57 117.86 L 128.11 118.69 C 128.59 119.43 129.57 119.64 130.31 119.16 C 131.05 118.68 131.26 117.70 130.78 116.96 L 130.24 116.12 C 129.76 115.38 128.78 115.17 128.04 115.65 C 127.30 116.13 127.09 117.12 127.57 117.86 Z M 128.08 118.66 L 128.61 119.52 C 129.07 120.27 130.05 120.51 130.80 120.05 C 131.55 119.59 131.79 118.61 131.33 117.85 L 130.81 116.99 C 130.35 116.24 129.37 116.00 128.61 116.46 C 127.86 116.92 127.62 117.90 128.08 118.66 Z M 128.59 119.48 L 129.09 120.36 C 129.53 121.13 130.51 121.39 131.27 120.95 C 132.04 120.51 132.30 119.54 131.86 118.77 L 131.35 117.89 C 130.92 117.13 129.94 116.86 129.18 117.30 C 128.41 117.74 128.15 118.72 128.59 119.48 Z M 129.07 120.33 L 129.53 121.18 C 129.95 121.95 130.92 122.24 131.70 121.82 C 132.47 121.40 132.76 120.43 132.34 119.65 L 131.88 118.81 C 131.46 118.03 130.49 117.74 129.71 118.16 C 128.94 118.58 128.65 119.55 129.07 120.33 Z M 129.52 121.15 L 129.97 122.02 C 130.37 122.81 131.33 123.11 132.12 122.71 C 132.90 122.31 133.21 121.34 132.81 120.56 L 132.36 119.68 C 131.95 118.90 130.99 118.59 130.20 118.99 C 129.42 119.40 129.11 120.36 129.52 121.15 Z M 129.95 121.99 L 130.40 122.90 C 130.79 123.70 131.74 124.02 132.54 123.63 C 133.33 123.24 133.66 122.29 133.27 121.49 L 132.82 120.58 C 132.43 119.79 131.47 119.47 130.68 119.85 C 129.89 120.24 129.56 121.20 129.95 121.99 Z M 130.39 122.88 L 130.83 123.82 C 131.20 124.62 132.16 124.96 132.96 124.58 C 133.76 124.20 134.10 123.25 133.72 122.45 L 133.28 121.52 C 132.90 120.72 131.95 120.37 131.15 120.75 C 130.35 121.13 130.01 122.08 130.39 122.88 Z M 130.82 123.80 L 131.22 124.68 C 131.58 125.48 132.53 125.83 133.34 125.47 C 134.14 125.10 134.50 124.15 134.13 123.35 L 133.73 122.47 C 133.36 121.67 132.41 121.31 131.61 121.68 C 130.81 122.05 130.45 122.99 130.82 123.80 Z M 131.21 124.65 L 131.60 125.56 C 131.96 126.37 132.90 126.74 133.71 126.39 C 134.52 126.03 134.89 125.09 134.54 124.28 L 134.14 123.37 C 133.79 122.56 132.84 122.19 132.03 122.54 C 131.22 122.90 130.85 123.84 131.21 124.65 Z M 131.59 125.54 L 131.98 126.47 C 132.32 127.29 133.26 127.68 134.08 127.34 C 134.89 127.00 135.28 126.06 134.94 125.24 L 134.55 124.31 C 134.21 123.49 133.27 123.10 132.46 123.44 C 131.64 123.78 131.25 124.72 131.59 125.54 Z M 131.97 126.44 L 132.34 127.40 C 132.66 128.22 133.59 128.63 134.42 128.31 C 135.24 127.99 135.65 127.06 135.33 126.23 L 134.96 125.27 C 134.63 124.45 133.70 124.04 132.88 124.36 C 132.05 124.68 131.64 125.61 131.97 126.44 Z M 132.32 127.36 L 132.66 128.30 C 132.96 129.14 133.88 129.57 134.72 129.27 C 135.55 128.97 135.98 128.05 135.68 127.22 L 135.34 126.27 C 135.04 125.43 134.12 125.00 133.29 125.30 C 132.45 125.60 132.02 126.52 132.32 127.36 Z M 132.65 128.26 L 132.96 129.21 C 133.24 130.05 134.15 130.51 134.99 130.23 C 135.83 129.95 136.29 129.04 136.01 128.20 L 135.70 127.26 C 135.42 126.41 134.51 125.96 133.67 126.23 C 132.83 126.51 132.37 127.42 132.65 128.26 Z M 132.94 129.17 L 133.23 130.12 C 133.49 130.97 134.38 131.46 135.23 131.20 C 136.09 130.94 136.57 130.05 136.31 129.20 L 136.02 128.24 C 135.77 127.39 134.87 126.91 134.02 127.16 C 133.17 127.42 132.69 128.32 132.94 129.17 Z M 133.22 130.08 L 133.48 131.05 C 133.72 131.91 134.60 132.41 135.46 132.18 C 136.31 131.95 136.82 131.06 136.59 130.21 L 136.32 129.24 C 136.09 128.38 135.21 127.87 134.35 128.11 C 133.49 128.34 132.99 129.22 133.22 130.08 Z M 133.47 131.01 L 133.71 131.99 C 133.92 132.85 134.79 133.38 135.66 133.17 C 136.52 132.96 137.05 132.09 136.84 131.23 L 136.60 130.25 C 136.39 129.38 135.52 128.85 134.65 129.06 C 133.79 129.27 133.26 130.15 133.47 131.01 Z M 133.70 131.95 L 133.91 132.91 C 134.10 133.78 134.96 134.33 135.82 134.14 C 136.69 133.95 137.25 133.10 137.06 132.23 L 136.85 131.27 C 136.66 130.40 135.80 129.85 134.93 130.03 C 134.06 130.22 133.51 131.08 133.70 131.95 Z M 133.90 132.87 L 134.09 133.84 C 134.26 134.72 135.10 135.29 135.97 135.12 C 136.85 134.95 137.42 134.11 137.25 133.24 L 137.07 132.26 C 136.90 131.39 136.05 130.82 135.18 130.99 C 134.30 131.15 133.73 132.00 133.90 132.87 Z M 134.08 133.81 L 134.25 134.79 C 134.40 135.67 135.23 136.26 136.11 136.11 C 136.98 135.97 137.57 135.13 137.43 134.26 L 137.26 133.27 C 137.11 132.39 136.28 131.80 135.40 131.95 C 134.52 132.10 133.93 132.93 134.08 133.81 Z M 134.24 134.76 L 134.39 135.76 C 134.52 136.64 135.34 137.25 136.22 137.12 C 137.10 136.99 137.71 136.17 137.58 135.29 L 137.43 134.29 C 137.30 133.41 136.48 132.80 135.60 132.93 C 134.72 133.06 134.11 133.88 134.24 134.76 Z M 134.38 135.73 L 134.51 136.74 C 134.63 137.62 135.43 138.25 136.32 138.13 C 137.20 138.02 137.83 137.21 137.71 136.33 L 137.58 135.32 C 137.47 134.43 136.66 133.81 135.78 133.92 C 134.90 134.04 134.27 134.84 134.38 135.73 Z M 134.51 136.71 L 134.62 137.68 C 134.71 138.57 135.51 139.21 136.40 139.11 C 137.28 139.01 137.92 138.21 137.82 137.33 L 137.72 136.36 C 137.62 135.47 136.82 134.83 135.94 134.93 C 135.05 135.03 134.41 135.82 134.51 136.71 Z M 134.61 137.65 L 134.70 138.64 C 134.79 139.53 135.57 140.18 136.46 140.10 C 137.35 140.01 138.00 139.23 137.92 138.34 L 137.83 137.35 C 137.75 136.47 136.96 135.81 136.07 135.90 C 135.18 135.98 134.53 136.77 134.61 137.65 Z M 134.70 138.61 L 134.78 139.61 C 134.85 140.50 135.62 141.17 136.51 141.10 C 137.40 141.03 138.07 140.25 138.00 139.36 L 137.92 138.37 C 137.85 137.48 137.08 136.81 136.19 136.88 C 135.30 136.95 134.63 137.72 134.70 138.61 Z M 134.78 139.59 L 134.84 140.60 C 134.89 141.49 135.66 142.16 136.55 142.11 C 137.44 142.05 138.12 141.29 138.06 140.40 L 138.00 139.39 C 137.95 138.50 137.18 137.82 136.29 137.87 C 135.40 137.93 134.72 138.70 134.78 139.59 Z M 134.84 140.57 L 134.88 141.59 C 134.92 142.48 135.68 143.17 136.57 143.13 C 137.46 143.09 138.15 142.33 138.11 141.44 L 138.07 140.42 C 138.02 139.53 137.27 138.84 136.38 138.88 C 135.48 138.92 134.80 139.68 134.84 140.57 Z M 134.88 141.57 L 134.91 142.56 C 134.94 143.45 135.69 144.15 136.58 144.12 C 137.47 144.10 138.17 143.35 138.14 142.46 L 138.11 141.47 C 138.09 140.57 137.34 139.87 136.45 139.90 C 135.55 139.93 134.85 140.68 134.88 141.57 Z M 134.91 142.54 L 134.93 143.53 C 134.95 144.43 135.69 145.14 136.58 145.12 C 137.47 145.10 138.18 144.36 138.16 143.47 L 138.15 142.48 C 138.13 141.58 137.39 140.87 136.50 140.89 C 135.61 140.91 134.90 141.65 134.91 142.54 Z M 134.93 143.52 L 134.94 144.52 C 134.95 145.41 135.68 146.13 136.57 146.12 C 137.46 146.11 138.18 145.38 138.17 144.49 L 138.16 143.49 C 138.16 142.60 137.43 141.88 136.53 141.89 C 135.64 141.89 134.92 142.62 134.93 143.52 Z M 134.94 144.50 L 134.94 145.51 C 134.94 146.40 135.66 147.12 136.56 147.12 C 137.45 147.12 138.17 146.40 138.17 145.51 L 138.17 144.50 C 138.17 143.61 137.45 142.89 136.56 142.89 C 135.66 142.89 134.94 143.61 134.94 144.50 Z M 134.94 145.50 L 134.93 146.50 C 134.93 147.40 135.65 148.13 136.54 148.13 C 137.43 148.14 138.16 147.42 138.17 146.53 L 138.17 145.52 C 138.18 144.63 137.46 143.90 136.57 143.89 C 135.68 143.88 134.95 144.60 134.94 145.50 Z M 134.93 146.49 L 134.92 147.49 C 134.91 148.38 135.62 149.11 136.52 149.13 C 137.41 149.14 138.14 148.42 138.15 147.53 L 138.17 146.54 C 138.18 145.64 137.46 144.91 136.57 144.90 C 135.68 144.89 134.94 145.60 134.93 146.49 Z M 134.92 147.48 L 134.90 148.46 C 134.88 149.35 135.59 150.09 136.48 150.11 C 137.38 150.13 138.12 149.42 138.13 148.53 L 138.15 147.54 C 138.17 146.65 137.46 145.91 136.57 145.89 C 135.68 145.87 134.94 146.58 134.92 147.48 Z M 134.90 148.44 L 134.87 149.43 C 134.84 150.32 135.54 151.07 136.43 151.10 C 137.32 151.13 138.07 150.43 138.10 149.54 L 138.13 148.55 C 138.16 147.65 137.46 146.91 136.57 146.88 C 135.68 146.85 134.93 147.55 134.90 148.44 Z M 134.87 149.40 L 134.82 150.40 C 134.77 151.29 135.46 152.05 136.35 152.09 C 137.24 152.14 138.00 151.45 138.05 150.56 L 138.10 149.56 C 138.15 148.67 137.46 147.91 136.57 147.87 C 135.68 147.82 134.91 148.51 134.87 149.40 Z M 134.82 150.36 L 134.75 151.37 C 134.68 152.26 135.35 153.03 136.24 153.10 C 137.13 153.17 137.91 152.50 137.97 151.61 L 138.05 150.60 C 138.11 149.71 137.44 148.93 136.55 148.87 C 135.66 148.80 134.89 149.47 134.82 150.36 Z M 134.75 151.32 L 134.65 152.34 C 134.55 153.23 135.20 154.03 136.09 154.12 C 136.98 154.21 137.77 153.56 137.86 152.67 L 137.97 151.65 C 138.06 150.76 137.41 149.97 136.52 149.88 C 135.63 149.79 134.84 150.43 134.75 151.32 Z M 134.65 152.30 L 134.52 153.28 C 134.40 154.17 135.03 154.98 135.91 155.09 C 136.80 155.21 137.61 154.59 137.73 153.70 L 137.86 152.72 C 137.98 151.83 137.35 151.02 136.47 150.90 C 135.58 150.79 134.77 151.41 134.65 152.30 Z M 134.53 153.24 L 134.37 154.23 C 134.23 155.11 134.83 155.94 135.71 156.08 C 136.59 156.22 137.42 155.62 137.56 154.74 L 137.72 153.75 C 137.86 152.86 137.26 152.03 136.38 151.89 C 135.50 151.75 134.67 152.35 134.53 153.24 Z M 134.38 154.18 L 134.19 155.18 C 134.03 156.05 134.60 156.90 135.48 157.06 C 136.36 157.23 137.21 156.65 137.37 155.77 L 137.56 154.78 C 137.72 153.90 137.14 153.06 136.26 152.89 C 135.39 152.73 134.54 153.31 134.38 154.18 Z M 134.20 155.14 L 133.99 156.12 C 133.80 156.99 134.36 157.85 135.23 158.04 C 136.11 158.23 136.96 157.67 137.15 156.80 L 137.36 155.81 C 137.55 154.94 136.99 154.08 136.12 153.89 C 135.25 153.71 134.39 154.26 134.20 155.14 Z M 134.00 156.08 L 133.76 157.05 C 133.55 157.92 134.09 158.79 134.96 159.00 C 135.83 159.21 136.70 158.68 136.91 157.81 L 137.14 156.84 C 137.35 155.97 136.82 155.10 135.95 154.89 C 135.08 154.68 134.21 155.21 134.00 156.08 Z M 133.77 157.01 L 133.51 157.97 C 133.28 158.84 133.79 159.72 134.66 159.96 C 135.52 160.19 136.41 159.68 136.64 158.81 L 136.90 157.85 C 137.13 156.99 136.62 156.10 135.76 155.87 C 134.89 155.64 134.01 156.15 133.77 157.01 Z M 133.53 157.93 L 133.23 158.92 C 132.98 159.78 133.46 160.68 134.32 160.93 C 135.18 161.19 136.08 160.70 136.33 159.84 L 136.63 158.86 C 136.88 158.00 136.40 157.10 135.54 156.84 C 134.68 156.59 133.78 157.08 133.53 157.93 Z M 133.24 158.88 L 132.93 159.84 C 132.65 160.69 133.12 161.60 133.97 161.88 C 134.82 162.16 135.73 161.70 136.01 160.85 L 136.32 159.88 C 136.60 159.03 136.13 158.12 135.28 157.84 C 134.44 157.57 133.52 158.03 133.24 158.88 Z M 132.94 159.81 L 132.61 160.75 C 132.32 161.59 132.76 162.51 133.60 162.81 C 134.44 163.11 135.37 162.66 135.66 161.82 L 135.99 160.88 C 136.29 160.04 135.85 159.11 135.01 158.82 C 134.16 158.52 133.24 158.96 132.94 159.81 Z M 132.62 160.72 L 132.28 161.64 C 131.96 162.47 132.39 163.41 133.23 163.72 C 134.06 164.03 134.99 163.61 135.31 162.77 L 135.65 161.85 C 135.97 161.01 135.54 160.08 134.71 159.77 C 133.87 159.46 132.94 159.88 132.62 160.72 Z M 132.29 161.61 L 131.93 162.52 C 131.60 163.35 132.01 164.29 132.84 164.62 C 133.67 164.94 134.61 164.54 134.94 163.70 L 135.30 162.80 C 135.62 161.97 135.22 161.03 134.39 160.70 C 133.55 160.37 132.61 160.78 132.29 161.61 Z M 131.94 162.50 L 131.56 163.42 C 131.22 164.25 131.62 165.19 132.44 165.53 C 133.27 165.87 134.22 165.48 134.55 164.65 L 134.93 163.72 C 135.27 162.90 134.87 161.95 134.05 161.62 C 133.22 161.28 132.28 161.67 131.94 162.50 Z M 131.57 163.41 L 131.18 164.33 C 130.83 165.15 131.21 166.10 132.04 166.45 C 132.86 166.80 133.81 166.41 134.15 165.59 L 134.55 164.67 C 134.89 163.84 134.51 162.90 133.69 162.55 C 132.87 162.20 131.92 162.58 131.57 163.41 Z M 131.18 164.31 L 130.78 165.23 C 130.43 166.05 130.80 167.00 131.62 167.36 C 132.43 167.72 133.39 167.34 133.75 166.52 L 134.15 165.61 C 134.51 164.79 134.13 163.84 133.31 163.48 C 132.50 163.12 131.54 163.49 131.18 164.31 Z M 130.79 165.21 L 130.38 166.12 C 130.01 166.93 130.37 167.89 131.19 168.26 C 132.00 168.63 132.96 168.26 133.33 167.45 L 133.74 166.54 C 134.11 165.73 133.74 164.77 132.93 164.40 C 132.12 164.04 131.16 164.40 130.79 165.21 Z M 130.39 166.10 L 129.97 167.01 C 129.59 167.81 129.94 168.78 130.75 169.15 C 131.56 169.53 132.52 169.18 132.90 168.37 L 133.32 167.47 C 133.70 166.66 133.35 165.70 132.54 165.32 C 131.73 164.94 130.77 165.29 130.39 166.10 Z M 129.98 166.99 L 129.54 167.90 C 129.16 168.70 129.50 169.67 130.30 170.05 C 131.11 170.44 132.07 170.10 132.46 169.29 L 132.89 168.39 C 133.28 167.58 132.94 166.62 132.13 166.23 C 131.33 165.85 130.36 166.18 129.98 166.99 Z M 129.55 167.88 L 129.10 168.79 C 128.71 169.59 129.04 170.56 129.84 170.95 C 130.64 171.35 131.61 171.02 132.00 170.22 L 132.45 169.31 C 132.84 168.51 132.51 167.54 131.71 167.15 C 130.91 166.75 129.94 167.08 129.55 167.88 Z M 129.11 168.78 L 128.66 169.67 C 128.25 170.47 128.57 171.44 129.37 171.84 C 130.16 172.25 131.13 171.93 131.54 171.13 L 131.99 170.23 C 132.39 169.44 132.08 168.47 131.28 168.06 C 130.48 167.66 129.51 167.98 129.11 168.78 Z M 128.66 169.66 L 128.20 170.55 C 127.79 171.34 128.10 172.31 128.89 172.72 C 129.68 173.13 130.66 172.82 131.07 172.03 L 131.53 171.15 C 131.94 170.35 131.63 169.38 130.84 168.97 C 130.05 168.56 129.07 168.87 128.66 169.66 Z M 128.21 170.53 L 127.75 171.41 C 127.33 172.19 127.63 173.17 128.42 173.59 C 129.20 174.00 130.18 173.71 130.60 172.92 L 131.06 172.05 C 131.48 171.26 131.18 170.28 130.39 169.87 C 129.61 169.45 128.63 169.75 128.21 170.53 Z M 127.76 171.39 L 127.28 172.27 C 126.85 173.05 127.14 174.03 127.92 174.46 C 128.71 174.88 129.69 174.59 130.11 173.81 L 130.59 172.93 C 131.02 172.15 130.73 171.17 129.94 170.75 C 129.16 170.32 128.18 170.61 127.76 171.39 Z M 127.29 172.26 L 126.79 173.15 C 126.36 173.93 126.63 174.91 127.41 175.34 C 128.19 175.78 129.17 175.50 129.60 174.72 L 130.10 173.83 C 130.54 173.05 130.26 172.07 129.48 171.63 C 128.70 171.20 127.72 171.48 127.29 172.26 Z M 126.80 173.14 L 126.30 174.01 C 125.86 174.79 126.13 175.77 126.90 176.21 C 127.67 176.65 128.65 176.38 129.09 175.61 L 129.59 174.74 C 130.03 173.96 129.76 172.98 128.99 172.54 C 128.22 172.10 127.24 172.37 126.80 173.14 Z M 126.31 174.00 L 125.81 174.85 C 125.36 175.62 125.62 176.61 126.38 177.05 C 127.15 177.50 128.13 177.24 128.58 176.48 L 129.08 175.62 C 129.53 174.86 129.27 173.87 128.51 173.43 C 127.74 172.98 126.76 173.23 126.31 174.00 Z M 125.82 174.84 L 125.32 175.68 C 124.86 176.44 125.11 177.42 125.87 177.88 C 126.63 178.33 127.62 178.09 128.07 177.33 L 128.57 176.49 C 129.03 175.73 128.78 174.74 128.02 174.29 C 127.26 173.83 126.27 174.08 125.82 174.84 Z M 125.33 175.66 L 124.81 176.51 C 124.35 177.27 124.58 178.25 125.34 178.72 C 126.10 179.18 127.08 178.94 127.54 178.18 L 128.06 177.34 C 128.52 176.58 128.29 175.60 127.53 175.13 C 126.78 174.67 125.79 174.91 125.33 175.66 Z M 124.82 176.50 L 124.29 177.35 C 123.82 178.10 124.05 179.09 124.80 179.55 C 125.55 180.02 126.54 179.79 127.01 179.04 L 127.53 178.20 C 128.00 177.45 127.77 176.46 127.02 175.99 C 126.27 175.52 125.29 175.75 124.82 176.50 Z M 124.30 177.34 L 123.77 178.18 C 123.29 178.93 123.52 179.92 124.26 180.39 C 125.01 180.86 126.00 180.64 126.47 179.89 L 127.00 179.05 C 127.47 178.30 127.25 177.32 126.50 176.85 C 125.76 176.37 124.77 176.60 124.30 177.34 Z M 123.77 178.18 L 123.24 179.02 C 122.76 179.76 122.98 180.75 123.72 181.22 C 124.47 181.70 125.45 181.48 125.93 180.73 L 126.46 179.89 C 126.93 179.15 126.72 178.17 125.97 177.69 C 125.23 177.22 124.24 177.44 123.77 178.18 Z M 123.24 179.02 L 122.70 179.87 C 122.22 180.61 122.44 181.60 123.18 182.07 C 123.92 182.54 124.91 182.33 125.38 181.58 L 125.92 180.73 C 126.40 179.99 126.18 179.01 125.44 178.53 C 124.70 178.06 123.71 178.28 123.24 179.02 Z M 122.70 179.87 L 122.14 180.76 C 121.66 181.49 121.88 182.48 122.62 182.95 C 123.36 183.42 124.34 183.20 124.82 182.46 L 125.38 181.58 C 125.85 180.84 125.63 179.86 124.89 179.39 C 124.15 178.92 123.17 179.13 122.70 179.87 Z M 122.14 180.75 L 121.58 181.62 C 121.11 182.36 121.32 183.34 122.06 183.81 C 122.80 184.29 123.78 184.07 124.25 183.34 L 124.81 182.47 C 125.28 181.73 125.07 180.75 124.33 180.28 C 123.59 179.80 122.61 180.02 122.14 180.75 Z M 121.59 181.62 L 121.05 182.45 C 120.57 183.19 120.78 184.17 121.51 184.64 C 122.24 185.12 123.22 184.91 123.70 184.18 L 124.24 183.34 C 124.72 182.61 124.51 181.63 123.78 181.16 C 123.05 180.68 122.07 180.89 121.59 181.62 Z M 121.06 182.44 L 120.54 183.22 C 120.05 183.95 120.25 184.93 120.97 185.41 C 121.70 185.89 122.68 185.70 123.16 184.98 L 123.68 184.19 C 124.17 183.47 123.97 182.49 123.25 182.01 C 122.52 181.52 121.54 181.72 121.06 182.44 Z M 120.56 183.20 L 119.99 184.01 C 119.49 184.73 119.67 185.71 120.38 186.20 C 121.09 186.70 122.07 186.53 122.57 185.82 L 123.14 185.00 C 123.63 184.29 123.46 183.31 122.75 182.81 C 122.04 182.31 121.06 182.49 120.56 183.20 Z M 120.03 183.97 L 119.44 184.75 C 118.92 185.44 119.06 186.42 119.75 186.94 C 120.45 187.46 121.43 187.32 121.95 186.63 L 122.53 185.86 C 123.05 185.16 122.91 184.18 122.22 183.66 C 121.53 183.14 120.55 183.28 120.03 183.97 Z M 119.49 184.70 L 118.87 185.45 C 118.33 186.12 118.42 187.10 119.09 187.65 C 119.76 188.20 120.74 188.10 121.29 187.43 L 121.90 186.68 C 122.45 186.01 122.35 185.03 121.68 184.48 C 121.02 183.94 120.03 184.04 119.49 184.70 Z M 118.92 185.41 L 118.24 186.18 C 117.67 186.82 117.72 187.80 118.37 188.37 C 119.01 188.94 119.99 188.88 120.56 188.24 L 121.24 187.48 C 121.81 186.83 121.75 185.85 121.11 185.28 C 120.47 184.71 119.49 184.77 118.92 185.41 Z M 118.27 186.14 L 117.60 186.86 C 117.01 187.48 117.04 188.46 117.66 189.05 C 118.28 189.63 119.26 189.61 119.85 188.99 L 120.52 188.28 C 121.11 187.65 121.09 186.67 120.46 186.09 C 119.84 185.50 118.86 185.52 118.27 186.14 Z M 117.65 186.82 L 116.91 187.54 C 116.30 188.13 116.29 189.11 116.89 189.72 C 117.49 190.33 118.46 190.34 119.07 189.74 L 119.81 189.02 C 120.41 188.43 120.43 187.45 119.83 186.84 C 119.23 186.23 118.26 186.22 117.65 186.82 Z M 116.97 187.49 L 116.20 188.17 C 115.57 188.73 115.51 189.70 116.07 190.34 C 116.63 190.97 117.61 191.03 118.24 190.47 L 119.01 189.79 C 119.65 189.23 119.71 188.26 119.15 187.62 C 118.58 186.98 117.61 186.92 116.97 187.49 Z M 116.29 188.10 L 115.51 188.70 C 114.84 189.21 114.71 190.17 115.22 190.85 C 115.74 191.52 116.70 191.65 117.37 191.13 L 118.15 190.54 C 118.83 190.02 118.96 189.06 118.44 188.39 C 117.93 187.71 116.96 187.59 116.29 188.10 Z M 115.65 188.61 L 114.74 189.17 C 114.02 189.60 113.79 190.54 114.23 191.26 C 114.67 191.98 115.61 192.21 116.33 191.77 L 117.24 191.22 C 117.95 190.78 118.18 189.84 117.75 189.12 C 117.31 188.40 116.37 188.17 115.65 188.61 Z M 114.89 189.10 L 113.99 189.52 C 113.23 189.87 112.90 190.77 113.25 191.53 C 113.60 192.29 114.50 192.62 115.26 192.26 L 116.17 191.84 C 116.93 191.49 117.26 190.59 116.91 189.83 C 116.55 189.07 115.65 188.74 114.89 189.10 Z M 114.10 189.48 L 113.20 189.82 C 112.42 190.11 112.03 190.97 112.32 191.75 C 112.61 192.53 113.47 192.92 114.25 192.63 L 115.15 192.30 C 115.93 192.01 116.32 191.14 116.03 190.37 C 115.74 189.59 114.88 189.19 114.10 189.48 Z M 113.25 189.81 L 112.67 190.01 C 111.89 190.27 111.47 191.12 111.74 191.90 C 112.00 192.68 112.85 193.10 113.63 192.83 L 114.20 192.64 C 114.98 192.38 115.40 191.53 115.14 190.75 C 114.88 189.97 114.03 189.55 113.25 189.81 Z"
      fill="black"
      fill-rule="nonzero" /><path d="M 154.48 120.06 L 154.12 120.93 C 153.79 121.70 154.16 122.59 154.94 122.92 C 155.71 123.24 156.60 122.87 156.93 122.10 L 157.29 121.23 C 157.61 120.45 157.24 119.56 156.47 119.24 C 155.69 118.92 154.80 119.28 154.48 120.06 Z M 154.09 120.97 L 153.75 121.87 C 153.45 122.66 153.85 123.55 154.65 123.84 C 155.44 124.14 156.32 123.74 156.62 122.95 L 156.95 122.05 C 157.25 121.26 156.85 120.37 156.06 120.08 C 155.27 119.78 154.39 120.18 154.09 120.97 Z M 153.71 121.97 L 153.42 122.93 C 153.17 123.74 153.63 124.60 154.45 124.85 C 155.26 125.09 156.12 124.63 156.36 123.82 L 156.65 122.85 C 156.90 122.04 156.44 121.18 155.63 120.94 C 154.82 120.69 153.96 121.15 153.71 121.97 Z M 153.38 123.06 L 153.16 124.12 C 152.98 124.96 153.52 125.78 154.35 125.95 C 155.19 126.13 156.00 125.59 156.18 124.76 L 156.40 123.69 C 156.58 122.86 156.04 122.04 155.21 121.86 C 154.37 121.69 153.55 122.22 153.38 123.06 Z M 153.13 124.25 L 153.01 125.21 C 152.91 126.05 153.51 126.83 154.35 126.93 C 155.20 127.04 155.98 126.44 156.08 125.59 L 156.20 124.63 C 156.31 123.79 155.71 123.01 154.86 122.91 C 154.01 122.80 153.24 123.40 153.13 124.25 Z M 153.01 125.29 L 152.94 126.30 C 152.87 127.15 153.51 127.89 154.36 127.95 C 155.21 128.01 155.95 127.37 156.01 126.52 L 156.09 125.51 C 156.15 124.66 155.51 123.92 154.66 123.86 C 153.81 123.80 153.07 124.44 153.01 125.29 Z M 152.94 126.35 L 152.90 127.38 C 152.87 128.23 153.53 128.95 154.38 128.98 C 155.22 129.01 155.94 128.35 155.97 127.50 L 156.01 126.47 C 156.04 125.62 155.38 124.91 154.53 124.88 C 153.68 124.84 152.97 125.51 152.94 126.35 Z M 152.90 127.41 L 152.88 128.43 C 152.87 129.27 153.54 129.97 154.39 129.99 C 155.23 130.01 155.93 129.33 155.95 128.49 L 155.97 127.47 C 155.98 126.63 155.31 125.93 154.46 125.91 C 153.62 125.89 152.92 126.57 152.90 127.41 Z M 152.89 128.44 L 152.87 129.42 C 152.86 130.27 153.54 130.96 154.38 130.97 C 155.23 130.98 155.92 130.31 155.93 129.46 L 155.94 128.48 C 155.96 127.63 155.28 126.94 154.44 126.93 C 153.59 126.92 152.90 127.59 152.89 128.44 Z M 152.88 129.41 L 152.86 130.48 C 152.84 131.32 153.51 132.01 154.35 132.03 C 155.19 132.05 155.89 131.38 155.90 130.54 L 155.92 129.47 C 155.94 128.63 155.27 127.94 154.43 127.92 C 153.59 127.90 152.90 128.57 152.88 129.41 Z M 152.87 130.47 L 152.84 131.46 C 152.82 132.30 153.48 132.99 154.32 133.01 C 155.16 133.03 155.85 132.37 155.87 131.54 L 155.90 130.54 C 155.92 129.71 155.26 129.01 154.42 128.99 C 153.58 128.97 152.89 129.63 152.87 130.47 Z M 152.85 131.46 L 152.83 132.42 C 152.81 133.25 153.46 133.94 154.30 133.96 C 155.13 133.99 155.82 133.33 155.84 132.49 L 155.87 131.54 C 155.89 130.70 155.23 130.01 154.39 129.99 C 153.56 129.97 152.87 130.63 152.85 131.46 Z M 152.83 132.43 L 152.81 133.39 C 152.80 134.22 153.46 134.91 154.28 134.92 C 155.11 134.94 155.80 134.28 155.82 133.45 L 155.83 132.49 C 155.85 131.66 155.19 130.97 154.36 130.96 C 153.53 130.94 152.85 131.60 152.83 132.43 Z M 152.82 133.40 L 152.81 134.37 C 152.80 135.20 153.46 135.88 154.28 135.89 C 155.11 135.90 155.79 135.24 155.80 134.41 L 155.81 133.44 C 155.82 132.62 155.16 131.94 154.33 131.93 C 153.51 131.92 152.83 132.58 152.82 133.40 Z M 152.81 134.38 L 152.80 135.38 C 152.80 136.20 153.46 136.88 154.28 136.88 C 155.10 136.89 155.78 136.23 155.78 135.41 L 155.79 134.41 C 155.80 133.58 155.14 132.91 154.32 132.90 C 153.49 132.90 152.82 133.56 152.81 134.38 Z M 152.81 135.38 L 152.80 136.40 C 152.79 137.22 153.45 137.89 154.27 137.90 C 155.09 137.90 155.76 137.24 155.77 136.42 L 155.78 135.41 C 155.79 134.58 155.13 133.91 154.31 133.91 C 153.49 133.90 152.81 134.56 152.81 135.38 Z M 152.80 136.39 L 152.79 137.41 C 152.78 138.23 153.44 138.90 154.26 138.91 C 155.07 138.92 155.75 138.26 155.76 137.44 L 155.77 136.43 C 155.78 135.61 155.12 134.94 154.30 134.93 C 153.48 134.92 152.81 135.57 152.80 136.39 Z M 152.80 137.40 L 152.78 138.40 C 152.76 139.22 153.41 139.89 154.23 139.91 C 155.04 139.92 155.72 139.27 155.73 138.46 L 155.75 137.45 C 155.77 136.64 155.12 135.96 154.30 135.95 C 153.48 135.93 152.81 136.58 152.80 137.40 Z M 152.78 138.40 L 152.76 139.39 C 152.74 140.21 153.39 140.88 154.20 140.90 C 155.01 140.92 155.69 140.27 155.71 139.46 L 155.73 138.46 C 155.75 137.65 155.10 136.98 154.29 136.96 C 153.48 136.94 152.80 137.58 152.78 138.40 Z M 152.76 139.39 L 152.74 140.39 C 152.72 141.20 153.36 141.87 154.17 141.89 C 154.99 141.91 155.66 141.27 155.68 140.46 L 155.70 139.46 C 155.72 138.65 155.08 137.98 154.27 137.96 C 153.46 137.94 152.78 138.58 152.76 139.39 Z M 152.74 140.39 L 152.72 141.39 C 152.71 142.20 153.35 142.87 154.16 142.89 C 154.97 142.90 155.64 142.26 155.65 141.45 L 155.67 140.45 C 155.69 139.64 155.05 138.97 154.24 138.96 C 153.43 138.94 152.76 139.58 152.74 140.39 Z M 152.73 141.40 L 152.71 142.40 C 152.70 143.21 153.35 143.87 154.15 143.88 C 154.96 143.89 155.62 143.25 155.64 142.44 L 155.65 141.44 C 155.66 140.64 155.02 139.97 154.21 139.96 C 153.40 139.95 152.74 140.60 152.73 141.40 Z M 152.72 142.41 L 152.71 143.41 C 152.70 144.22 153.35 144.87 154.15 144.88 C 154.96 144.89 155.62 144.24 155.62 143.43 L 155.63 142.43 C 155.64 141.63 154.99 140.97 154.19 140.96 C 153.38 140.96 152.72 141.60 152.72 142.41 Z M 152.71 143.42 L 152.71 144.42 C 152.71 145.23 153.35 145.88 154.16 145.88 C 154.96 145.88 155.61 145.24 155.62 144.43 L 155.62 143.43 C 155.62 142.63 154.97 141.97 154.17 141.97 C 153.37 141.97 152.72 142.61 152.71 143.42 Z M 152.71 144.43 L 152.71 145.43 C 152.71 146.23 153.36 146.88 154.16 146.88 C 154.96 146.88 155.61 146.23 155.61 145.43 L 155.61 144.43 C 155.61 143.63 154.97 142.98 154.16 142.98 C 153.36 142.98 152.71 143.63 152.71 144.43 Z M 152.71 145.43 L 152.71 146.44 C 152.71 147.24 153.36 147.89 154.16 147.89 C 154.96 147.89 155.61 147.24 155.61 146.44 L 155.61 145.43 C 155.61 144.63 154.96 143.98 154.16 143.98 C 153.36 143.98 152.71 144.63 152.71 145.43 Z M 152.72 146.44 L 152.72 147.46 C 152.72 148.26 153.36 148.91 154.16 148.91 C 154.96 148.91 155.61 148.26 155.61 147.46 L 155.61 146.44 C 155.61 145.64 154.96 145.00 154.16 145.00 C 153.36 145.00 152.72 145.64 152.72 146.44 Z M 152.72 147.46 L 152.72 148.47 C 152.72 149.26 153.37 149.91 154.16 149.91 C 154.96 149.91 155.60 149.26 155.60 148.47 L 155.60 147.46 C 155.60 146.67 154.96 146.02 154.16 146.02 C 153.37 146.02 152.72 146.67 152.72 147.46 Z M 152.72 148.47 L 152.72 149.45 C 152.72 150.24 153.37 150.89 154.16 150.89 C 154.96 150.89 155.60 150.24 155.60 149.45 L 155.60 148.47 C 155.60 147.67 154.96 147.03 154.16 147.03 C 153.37 147.03 152.72 147.67 152.72 148.47 Z M 152.73 149.45 L 152.73 150.44 C 152.73 151.23 153.37 151.88 154.16 151.88 C 154.95 151.88 155.60 151.23 155.60 150.44 L 155.60 149.45 C 155.60 148.66 154.95 148.01 154.16 148.01 C 153.37 148.01 152.73 148.66 152.73 149.45 Z M 152.73 150.44 L 152.73 151.47 C 152.73 152.26 153.37 152.90 154.16 152.90 C 154.95 152.90 155.59 152.26 155.59 151.47 L 155.59 150.44 C 155.59 149.65 154.95 149.01 154.16 149.01 C 153.37 149.01 152.73 149.65 152.73 150.44 Z M 152.73 151.47 L 152.73 152.47 C 152.73 153.26 153.37 153.90 154.16 153.90 C 154.95 153.90 155.59 153.26 155.59 152.47 L 155.59 151.47 C 155.59 150.68 154.95 150.04 154.16 150.04 C 153.37 150.04 152.73 150.68 152.73 151.47 Z M 152.73 152.47 L 152.73 153.44 C 152.73 154.23 153.37 154.87 154.16 154.87 C 154.95 154.87 155.59 154.23 155.59 153.44 L 155.59 152.47 C 155.59 151.68 154.95 151.04 154.16 151.04 C 153.37 151.04 152.73 151.68 152.73 152.47 Z M 152.73 153.44 L 152.73 154.45 C 152.73 155.24 153.37 155.88 154.16 155.88 C 154.95 155.88 155.59 155.24 155.59 154.45 L 155.59 153.44 C 155.59 152.65 154.95 152.02 154.16 152.02 C 153.37 152.02 152.73 152.65 152.73 153.44 Z M 152.74 154.45 L 152.74 155.47 C 152.74 156.25 153.37 156.89 154.16 156.89 C 154.95 156.89 155.59 156.25 155.59 155.47 L 155.59 154.45 C 155.59 153.66 154.95 153.03 154.16 153.03 C 153.37 153.03 152.74 153.66 152.74 154.45 Z M 152.74 155.47 L 152.74 156.45 C 152.74 157.24 153.37 157.88 154.16 157.88 C 154.95 157.88 155.59 157.24 155.59 156.45 L 155.59 155.47 C 155.59 154.68 154.95 154.04 154.16 154.04 C 153.37 154.04 152.74 154.68 152.74 155.47 Z M 152.74 156.45 L 152.74 157.43 C 152.74 158.22 153.37 158.86 154.16 158.86 C 154.95 158.86 155.59 158.22 155.59 157.43 L 155.59 156.45 C 155.59 155.66 154.95 155.03 154.16 155.03 C 153.37 155.03 152.74 155.66 152.74 156.45 Z M 152.74 157.43 L 152.74 158.44 C 152.74 159.23 153.37 159.87 154.16 159.87 C 154.95 159.87 155.59 159.23 155.59 158.44 L 155.59 157.43 C 155.59 156.65 154.95 156.01 154.16 156.01 C 153.37 156.01 152.74 156.65 152.74 157.43 Z M 152.74 158.44 L 152.74 159.44 C 152.74 160.22 153.37 160.86 154.16 160.86 C 154.95 160.86 155.59 160.22 155.59 159.44 L 155.59 158.44 C 155.59 157.65 154.95 157.02 154.16 157.02 C 153.37 157.02 152.74 157.65 152.74 158.44 Z M 152.74 159.44 L 152.74 160.20 C 152.74 160.99 153.37 161.62 154.16 161.62 C 154.95 161.62 155.59 160.99 155.59 160.20 L 155.59 159.44 C 155.59 158.65 154.95 158.01 154.16 158.01 C 153.37 158.01 152.74 158.65 152.74 159.44 Z"
      fill="black"
      fill-rule="nonzero" /><path d="M 183.94 95.08 L 183.42 95.90 C 182.96 96.62 183.18 97.58 183.90 98.04 C 184.63 98.50 185.59 98.28 186.04 97.55 L 186.56 96.73 C 187.02 96.01 186.80 95.05 186.08 94.59 C 185.35 94.14 184.40 94.35 183.94 95.08 Z M 183.39 95.95 L 182.90 96.80 C 182.47 97.54 182.72 98.49 183.46 98.92 C 184.21 99.35 185.15 99.09 185.58 98.35 L 186.07 97.50 C 186.50 96.76 186.25 95.81 185.51 95.39 C 184.77 94.96 183.82 95.21 183.39 95.95 Z M 182.84 96.90 L 182.41 97.80 C 182.04 98.57 182.36 99.50 183.13 99.87 C 183.90 100.25 184.83 99.92 185.20 99.15 L 185.64 98.25 C 186.01 97.48 185.69 96.55 184.91 96.18 C 184.14 95.81 183.22 96.13 182.84 96.90 Z M 182.35 97.95 L 182.00 98.93 C 181.71 99.74 182.13 100.63 182.93 100.91 C 183.74 101.20 184.63 100.78 184.91 99.98 L 185.26 99.00 C 185.55 98.19 185.13 97.31 184.33 97.02 C 183.52 96.73 182.63 97.15 182.35 97.95 Z M 181.94 99.10 L 181.71 100.05 C 181.52 100.89 182.04 101.73 182.87 101.93 C 183.71 102.12 184.55 101.60 184.75 100.77 L 184.97 99.81 C 185.17 98.97 184.65 98.14 183.81 97.94 C 182.97 97.74 182.14 98.26 181.94 99.10 Z M 181.68 100.18 L 181.53 101.18 C 181.40 102.04 181.99 102.84 182.85 102.97 C 183.71 103.10 184.51 102.50 184.63 101.64 L 184.78 100.64 C 184.91 99.78 184.32 98.98 183.46 98.86 C 182.60 98.73 181.80 99.32 181.68 100.18 Z M 181.50 101.27 L 181.41 102.29 C 181.33 103.16 181.97 103.93 182.84 104.01 C 183.71 104.09 184.49 103.45 184.57 102.58 L 184.66 101.56 C 184.74 100.68 184.10 99.91 183.22 99.83 C 182.35 99.75 181.58 100.39 181.50 101.27 Z M 181.39 102.34 L 181.33 103.35 C 181.29 104.23 181.96 104.98 182.85 105.03 C 183.73 105.08 184.48 104.40 184.53 103.52 L 184.59 102.52 C 184.63 101.63 183.96 100.88 183.07 100.83 C 182.19 100.78 181.43 101.46 181.39 102.34 Z M 181.32 103.38 L 181.29 104.38 C 181.26 105.28 181.96 106.02 182.85 106.05 C 183.74 106.08 184.49 105.38 184.52 104.49 L 184.55 103.48 C 184.58 102.59 183.88 101.85 182.98 101.82 C 182.09 101.79 181.35 102.49 181.32 103.38 Z M 181.27 104.41 L 181.25 105.42 C 181.24 106.32 181.95 107.06 182.85 107.08 C 183.75 107.09 184.49 106.38 184.51 105.48 L 184.53 104.47 C 184.54 103.57 183.83 102.83 182.93 102.81 C 182.03 102.79 181.29 103.51 181.27 104.41 Z M 181.24 105.44 L 181.24 106.42 C 181.23 107.32 181.96 108.06 182.87 108.06 C 183.77 108.07 184.51 107.34 184.51 106.43 L 184.52 105.46 C 184.52 104.55 183.79 103.82 182.89 103.81 C 181.99 103.81 181.25 104.54 181.24 105.44 Z M 181.23 106.44 L 181.24 107.42 C 181.24 108.33 181.98 109.06 182.89 109.05 C 183.80 109.05 184.54 108.30 184.53 107.39 L 184.52 106.41 C 184.52 105.50 183.78 104.77 182.87 104.78 C 181.96 104.78 181.22 105.53 181.23 106.44 Z M 181.23 107.43 L 181.24 108.39 C 181.26 109.30 182.01 110.03 182.92 110.02 C 183.84 110.01 184.57 109.25 184.55 108.34 L 184.54 107.38 C 184.52 106.47 183.77 105.74 182.86 105.75 C 181.94 105.76 181.21 106.52 181.23 107.43 Z M 181.24 108.41 L 181.26 109.33 C 181.29 110.25 182.05 110.97 182.96 110.95 C 183.88 110.93 184.60 110.16 184.58 109.25 L 184.56 108.32 C 184.53 107.41 183.77 106.68 182.86 106.71 C 181.94 106.73 181.22 107.49 181.24 108.41 Z M 181.26 109.36 L 181.30 110.33 C 181.34 111.25 182.11 111.96 183.03 111.93 C 183.95 111.89 184.66 111.11 184.62 110.20 L 184.58 109.22 C 184.54 108.30 183.77 107.59 182.85 107.63 C 181.94 107.67 181.22 108.44 181.26 109.36 Z M 181.30 110.37 L 181.37 111.40 C 181.43 112.32 182.22 113.01 183.13 112.95 C 184.05 112.89 184.75 112.10 184.69 111.19 L 184.62 110.16 C 184.56 109.24 183.77 108.55 182.86 108.61 C 181.94 108.67 181.24 109.46 181.30 110.37 Z M 181.37 111.44 L 181.47 112.53 C 181.55 113.44 182.36 114.11 183.28 114.03 C 184.19 113.95 184.87 113.14 184.78 112.22 L 184.68 111.14 C 184.60 110.23 183.79 109.55 182.88 109.64 C 181.96 109.72 181.29 110.53 181.37 111.44 Z M 181.47 112.57 L 181.59 113.52 C 181.69 114.43 182.52 115.08 183.44 114.98 C 184.35 114.87 185.00 114.04 184.89 113.12 L 184.78 112.18 C 184.67 111.26 183.84 110.61 182.93 110.72 C 182.02 110.83 181.36 111.66 181.47 112.57 Z M 181.59 113.56 L 181.72 114.48 C 181.85 115.39 182.69 116.03 183.60 115.90 C 184.51 115.77 185.15 114.93 185.02 114.02 L 184.89 113.09 C 184.76 112.18 183.92 111.54 183.01 111.67 C 182.09 111.80 181.46 112.64 181.59 113.56 Z M 181.72 114.51 L 181.87 115.47 C 182.01 116.38 182.87 117.00 183.78 116.86 C 184.69 116.72 185.31 115.86 185.17 114.95 L 185.02 113.99 C 184.88 113.08 184.02 112.46 183.11 112.60 C 182.20 112.74 181.58 113.60 181.72 114.51 Z M 181.87 115.49 L 182.04 116.48 C 182.19 117.39 183.05 118.01 183.96 117.86 C 184.87 117.70 185.49 116.84 185.34 115.93 L 185.17 114.94 C 185.02 114.03 184.16 113.41 183.25 113.56 C 182.34 113.71 181.72 114.58 181.87 115.49 Z M 182.04 116.49 L 182.22 117.53 C 182.37 118.44 183.24 119.05 184.15 118.89 C 185.06 118.73 185.67 117.87 185.51 116.96 L 185.34 115.92 C 185.18 115.01 184.31 114.40 183.40 114.56 C 182.49 114.72 181.88 115.58 182.04 116.49 Z M 182.22 117.53 L 182.40 118.60 C 182.56 119.51 183.43 120.12 184.34 119.96 C 185.25 119.80 185.86 118.94 185.70 118.03 L 185.52 116.95 C 185.36 116.04 184.49 115.43 183.58 115.59 C 182.67 115.75 182.06 116.62 182.22 117.53 Z M 182.40 118.60 L 182.56 119.54 C 182.72 120.45 183.59 121.07 184.50 120.91 C 185.41 120.75 186.02 119.88 185.87 118.97 L 185.70 118.03 C 185.55 117.12 184.68 116.50 183.77 116.66 C 182.85 116.82 182.24 117.69 182.40 118.60 Z M 182.56 119.54 L 182.72 120.48 C 182.88 121.39 183.75 122.00 184.66 121.85 C 185.57 121.69 186.18 120.83 186.03 119.92 L 185.87 118.98 C 185.71 118.06 184.85 117.45 183.93 117.61 C 183.02 117.76 182.41 118.63 182.56 119.54 Z M 182.72 120.48 L 182.89 121.44 C 183.04 122.35 183.90 122.97 184.82 122.81 C 185.73 122.66 186.34 121.79 186.19 120.88 L 186.03 119.92 C 185.87 119.01 185.01 118.39 184.10 118.55 C 183.19 118.70 182.57 119.56 182.72 120.48 Z M 182.89 121.43 L 183.05 122.42 C 183.20 123.33 184.06 123.95 184.98 123.80 C 185.89 123.64 186.51 122.78 186.35 121.87 L 186.19 120.89 C 186.04 119.97 185.18 119.36 184.26 119.51 C 183.35 119.66 182.73 120.52 182.89 121.43 Z M 183.05 122.42 L 183.21 123.42 C 183.36 124.33 184.23 124.95 185.14 124.80 C 186.05 124.65 186.67 123.79 186.52 122.88 L 186.35 121.87 C 186.20 120.96 185.34 120.34 184.43 120.49 C 183.52 120.64 182.90 121.50 183.05 122.42 Z M 183.21 123.42 L 183.38 124.44 C 183.53 125.35 184.39 125.97 185.30 125.83 C 186.21 125.68 186.83 124.82 186.68 123.91 L 186.52 122.88 C 186.37 121.97 185.51 121.35 184.60 121.50 C 183.69 121.65 183.07 122.51 183.21 123.42 Z M 183.38 124.44 L 183.55 125.48 C 183.69 126.39 184.55 127.01 185.46 126.87 C 186.38 126.72 187.00 125.86 186.85 124.95 L 186.68 123.91 C 186.54 123.00 185.68 122.38 184.77 122.52 C 183.86 122.67 183.23 123.53 183.38 124.44 Z M 183.55 125.48 L 183.70 126.44 C 183.84 127.36 184.70 127.98 185.61 127.84 C 186.52 127.69 187.15 126.84 187.00 125.92 L 186.85 124.95 C 186.71 124.04 185.85 123.42 184.94 123.56 C 184.03 123.71 183.40 124.56 183.55 125.48 Z M 183.70 126.44 L 183.84 127.38 C 183.99 128.30 184.84 128.92 185.75 128.78 C 186.67 128.64 187.29 127.78 187.15 126.87 L 187.00 125.93 C 186.86 125.01 186.01 124.39 185.09 124.53 C 184.18 124.67 183.56 125.53 183.70 126.44 Z M 183.84 127.38 L 183.99 128.33 C 184.13 129.25 184.98 129.87 185.90 129.73 C 186.81 129.60 187.44 128.74 187.30 127.83 L 187.15 126.87 C 187.01 125.96 186.16 125.33 185.24 125.47 C 184.33 125.61 183.70 126.47 183.84 127.38 Z M 183.99 128.33 L 184.14 129.30 C 184.27 130.22 185.13 130.84 186.04 130.71 C 186.95 130.57 187.58 129.72 187.44 128.80 L 187.30 127.83 C 187.16 126.92 186.31 126.29 185.39 126.43 C 184.48 126.57 183.85 127.42 183.99 128.33 Z M 184.14 129.30 L 184.28 130.29 C 184.42 131.20 185.27 131.83 186.18 131.70 C 187.10 131.56 187.73 130.71 187.59 129.80 L 187.44 128.81 C 187.31 127.89 186.46 127.26 185.55 127.40 C 184.63 127.53 184.00 128.38 184.14 129.30 Z M 184.28 130.28 L 184.43 131.29 C 184.56 132.20 185.41 132.83 186.32 132.70 C 187.24 132.57 187.87 131.72 187.74 130.81 L 187.59 129.80 C 187.46 128.89 186.61 128.25 185.70 128.39 C 184.78 128.52 184.15 129.37 184.28 130.28 Z M 184.43 131.28 L 184.57 132.31 C 184.70 133.22 185.55 133.86 186.47 133.73 C 187.38 133.60 188.02 132.75 187.88 131.84 L 187.74 130.81 C 187.61 129.90 186.76 129.26 185.85 129.39 C 184.93 129.52 184.30 130.37 184.43 131.28 Z M 184.57 132.30 L 184.72 133.35 C 184.85 134.26 185.69 134.90 186.61 134.77 C 187.52 134.64 188.16 133.80 188.03 132.88 L 187.89 131.84 C 187.76 130.93 186.91 130.29 186.00 130.42 C 185.08 130.54 184.45 131.39 184.57 132.30 Z M 184.72 133.34 L 184.86 134.35 C 184.98 135.26 185.83 135.90 186.74 135.77 C 187.66 135.65 188.30 134.81 188.17 133.89 L 188.03 132.89 C 187.91 131.97 187.06 131.33 186.15 131.46 C 185.23 131.59 184.59 132.43 184.72 133.34 Z M 184.86 134.34 L 184.99 135.31 C 185.11 136.22 185.95 136.87 186.87 136.74 C 187.78 136.62 188.42 135.78 188.30 134.86 L 188.17 133.89 C 188.05 132.98 187.20 132.34 186.29 132.46 C 185.38 132.59 184.73 133.43 184.86 134.34 Z M 184.99 135.31 L 185.12 136.29 C 185.24 137.20 186.08 137.84 186.99 137.72 C 187.91 137.60 188.55 136.76 188.43 135.85 L 188.30 134.87 C 188.18 133.95 187.34 133.31 186.42 133.43 C 185.51 133.55 184.87 134.39 184.99 135.31 Z M 185.12 136.28 L 185.25 137.27 C 185.37 138.19 186.21 138.83 187.12 138.71 C 188.04 138.59 188.68 137.76 188.56 136.84 L 188.43 135.85 C 188.31 134.94 187.47 134.29 186.56 134.41 C 185.64 134.53 185.00 135.37 185.12 136.28 Z M 185.25 137.27 L 185.38 138.27 C 185.50 139.18 186.33 139.83 187.25 139.71 C 188.16 139.59 188.81 138.76 188.69 137.84 L 188.56 136.84 C 188.44 135.93 187.60 135.28 186.69 135.40 C 185.78 135.52 185.13 136.36 185.25 137.27 Z M 185.38 138.27 L 185.51 139.27 C 185.62 140.19 186.46 140.83 187.37 140.71 C 188.29 140.60 188.93 139.76 188.82 138.85 L 188.69 137.84 C 188.57 136.93 187.74 136.28 186.82 136.40 C 185.91 136.52 185.26 137.35 185.38 138.27 Z M 185.51 139.27 L 185.63 140.27 C 185.75 141.19 186.58 141.84 187.50 141.72 C 188.41 141.60 189.06 140.77 188.94 139.85 L 188.82 138.85 C 188.70 137.94 187.87 137.29 186.95 137.40 C 186.04 137.52 185.39 138.36 185.51 139.27 Z M 185.63 140.27 L 185.76 141.28 C 185.88 142.19 186.71 142.84 187.62 142.72 C 188.54 142.61 189.18 141.78 189.07 140.86 L 188.94 139.86 C 188.83 138.94 187.99 138.30 187.08 138.41 C 186.17 138.52 185.52 139.36 185.63 140.27 Z M 185.76 141.28 L 185.89 142.28 C 186.00 143.19 186.83 143.84 187.75 143.72 C 188.66 143.61 189.31 142.78 189.19 141.86 L 189.07 140.86 C 188.96 139.95 188.12 139.30 187.21 139.42 C 186.30 139.53 185.65 140.36 185.76 141.28 Z M 185.89 142.28 L 186.01 143.27 C 186.12 144.19 186.96 144.84 187.87 144.72 C 188.78 144.61 189.43 143.78 189.32 142.86 L 189.19 141.86 C 189.08 140.95 188.25 140.30 187.33 140.42 C 186.42 140.53 185.77 141.36 185.89 142.28 Z M 186.01 143.27 L 186.13 144.27 C 186.25 145.19 187.08 145.83 187.99 145.72 C 188.90 145.61 189.55 144.78 189.44 143.86 L 189.32 142.87 C 189.21 141.95 188.37 141.30 187.46 141.42 C 186.55 141.53 185.90 142.36 186.01 143.27 Z M 186.13 144.27 L 186.26 145.26 C 186.37 146.18 187.20 146.83 188.11 146.72 C 189.02 146.60 189.67 145.77 189.56 144.86 L 189.44 143.87 C 189.33 142.95 188.50 142.30 187.59 142.42 C 186.67 142.53 186.02 143.36 186.13 144.27 Z M 186.26 145.26 L 186.37 146.25 C 186.48 147.16 187.31 147.81 188.23 147.70 C 189.14 147.59 189.79 146.77 189.68 145.85 L 189.56 144.86 C 189.45 143.95 188.62 143.30 187.71 143.41 C 186.80 143.52 186.15 144.35 186.26 145.26 Z M 186.37 146.25 L 186.49 147.23 C 186.60 148.15 187.43 148.80 188.34 148.69 C 189.25 148.58 189.91 147.76 189.80 146.84 L 189.68 145.86 C 189.57 144.94 188.75 144.29 187.83 144.40 C 186.92 144.51 186.27 145.33 186.37 146.25 Z M 186.49 147.23 L 186.61 148.22 C 186.71 149.13 187.54 149.79 188.45 149.68 C 189.36 149.57 190.02 148.75 189.91 147.83 L 189.80 146.85 C 189.69 145.93 188.87 145.28 187.95 145.39 C 187.04 145.49 186.39 146.32 186.49 147.23 Z M 186.61 148.21 L 186.72 149.20 C 186.82 150.12 187.64 150.77 188.56 150.67 C 189.47 150.57 190.13 149.74 190.03 148.83 L 189.91 147.84 C 189.81 146.93 188.99 146.27 188.07 146.37 C 187.16 146.48 186.50 147.30 186.61 148.21 Z M 186.72 149.20 L 186.83 150.19 C 186.93 151.10 187.75 151.76 188.66 151.66 C 189.58 151.56 190.23 150.74 190.13 149.83 L 190.03 148.83 C 189.92 147.92 189.10 147.26 188.19 147.36 C 187.28 147.46 186.62 148.28 186.72 149.20 Z M 186.83 150.18 L 186.93 151.18 C 187.03 152.10 187.85 152.76 188.76 152.66 C 189.68 152.56 190.34 151.74 190.24 150.83 L 190.13 149.83 C 190.04 148.92 189.22 148.26 188.30 148.35 C 187.39 148.45 186.73 149.27 186.83 150.18 Z M 186.93 151.18 L 187.03 152.16 C 187.13 153.08 187.94 153.74 188.86 153.65 C 189.77 153.56 190.44 152.74 190.34 151.83 L 190.24 150.84 C 190.15 149.92 189.33 149.26 188.42 149.35 C 187.50 149.45 186.84 150.26 186.93 151.18 Z M 187.03 152.16 L 187.13 153.13 C 187.22 154.05 188.03 154.71 188.95 154.62 C 189.86 154.53 190.53 153.72 190.44 152.81 L 190.34 151.83 C 190.25 150.92 189.44 150.25 188.52 150.34 C 187.61 150.43 186.94 151.24 187.03 152.16 Z M 187.13 153.13 L 187.22 154.11 C 187.31 155.02 188.12 155.69 189.03 155.61 C 189.95 155.52 190.62 154.71 190.53 153.80 L 190.44 152.81 C 190.35 151.90 189.54 151.23 188.63 151.32 C 187.71 151.40 187.04 152.21 187.13 153.13 Z M 187.22 154.10 L 187.31 155.09 C 187.39 156.00 188.20 156.68 189.12 156.59 C 190.03 156.51 190.70 155.70 190.62 154.79 L 190.53 153.80 C 190.45 152.89 189.64 152.21 188.73 152.30 C 187.81 152.38 187.14 153.19 187.22 154.10 Z M 187.31 155.08 L 187.40 156.08 C 187.48 156.99 188.28 157.67 189.19 157.59 C 190.11 157.51 190.79 156.71 190.71 155.79 L 190.62 154.80 C 190.54 153.88 189.74 153.21 188.82 153.29 C 187.91 153.36 187.23 154.17 187.31 155.08 Z M 187.40 156.07 L 187.48 157.07 C 187.55 157.98 188.36 158.66 189.27 158.59 C 190.18 158.51 190.86 157.71 190.79 156.80 L 190.71 155.80 C 190.63 154.88 189.83 154.21 188.92 154.28 C 188.00 154.36 187.32 155.16 187.40 156.07 Z M 187.48 157.06 L 187.56 158.07 C 187.63 158.98 188.43 159.66 189.34 159.59 C 190.25 159.52 190.94 158.72 190.87 157.81 L 190.79 156.81 C 190.72 155.89 189.92 155.21 189.01 155.28 C 188.09 155.35 187.41 156.15 187.48 157.06 Z M 187.56 158.06 L 187.63 159.07 C 187.70 159.98 188.49 160.67 189.41 160.60 C 190.32 160.53 191.01 159.74 190.94 158.83 L 190.87 157.82 C 190.80 156.90 190.00 156.22 189.09 156.28 C 188.18 156.35 187.49 157.15 187.56 158.06 Z M 187.63 159.06 L 187.70 160.07 C 187.77 160.99 188.56 161.68 189.47 161.61 C 190.38 161.55 191.07 160.76 191.01 159.85 L 190.94 158.83 C 190.88 157.92 190.09 157.23 189.17 157.29 C 188.26 157.36 187.57 158.15 187.63 159.06 Z M 187.70 160.07 L 187.77 161.08 C 187.83 161.99 188.62 162.69 189.53 162.63 C 190.44 162.57 191.13 161.78 191.08 160.87 L 191.01 159.85 C 190.95 158.94 190.16 158.25 189.25 158.31 C 188.34 158.37 187.64 159.15 187.70 160.07 Z M 187.77 161.07 L 187.83 162.07 C 187.88 162.98 188.67 163.67 189.58 163.62 C 190.49 163.56 191.19 162.78 191.13 161.87 L 191.07 160.88 C 191.02 159.96 190.24 159.27 189.32 159.32 C 188.41 159.38 187.71 160.16 187.77 161.07 Z M 187.83 162.06 L 187.89 163.05 C 187.94 163.96 188.72 164.66 189.63 164.61 C 190.54 164.56 191.24 163.78 191.19 162.87 L 191.13 161.87 C 191.08 160.96 190.30 160.26 189.39 160.31 C 188.48 160.37 187.78 161.15 187.83 162.06 Z M 187.89 163.05 L 187.94 164.04 C 187.99 164.95 188.76 165.65 189.67 165.61 C 190.59 165.56 191.29 164.78 191.24 163.87 L 191.19 162.87 C 191.14 161.96 190.36 161.26 189.45 161.31 C 188.54 161.36 187.84 162.13 187.89 163.05 Z M 187.94 164.04 L 187.99 165.03 C 188.03 165.94 188.81 166.65 189.72 166.60 C 190.63 166.56 191.33 165.78 191.29 164.87 L 191.24 163.88 C 191.19 162.97 190.42 162.26 189.51 162.31 C 188.60 162.35 187.90 163.13 187.94 164.04 Z M 187.99 165.03 L 188.04 166.03 C 188.08 166.94 188.85 167.64 189.76 167.60 C 190.67 167.56 191.37 166.79 191.33 165.88 L 191.28 164.88 C 191.24 163.97 190.47 163.27 189.56 163.31 C 188.65 163.35 187.95 164.12 187.99 165.03 Z M 188.04 166.02 L 188.08 167.02 C 188.12 167.93 188.89 168.64 189.79 168.60 C 190.70 168.56 191.41 167.79 191.37 166.88 L 191.33 165.88 C 191.29 164.98 190.52 164.27 189.61 164.31 C 188.70 164.35 188.00 165.12 188.04 166.02 Z M 188.08 167.02 L 188.12 168.02 C 188.16 168.93 188.92 169.64 189.83 169.60 C 190.74 169.56 191.44 168.80 191.41 167.89 L 191.37 166.89 C 191.33 165.98 190.57 165.28 189.66 165.31 C 188.75 165.35 188.05 166.11 188.08 167.02 Z M 188.12 168.02 L 188.16 169.02 C 188.20 169.93 188.96 170.64 189.87 170.60 C 190.77 170.57 191.48 169.80 191.44 168.90 L 191.41 167.89 C 191.37 166.99 190.61 166.28 189.70 166.32 C 188.80 166.35 188.09 167.11 188.12 168.02 Z M 188.16 169.02 L 188.20 170.02 C 188.23 170.93 188.99 171.64 189.90 171.60 C 190.80 171.57 191.51 170.81 191.48 169.90 L 191.44 168.90 C 191.41 168.00 190.65 167.29 189.74 167.32 C 188.84 167.35 188.13 168.11 188.16 169.02 Z M 188.20 170.02 L 188.24 171.02 C 188.27 171.93 189.02 172.64 189.93 172.61 C 190.83 172.58 191.54 171.82 191.51 170.91 L 191.48 169.91 C 191.45 169.00 190.69 168.29 189.78 168.32 C 188.88 168.36 188.17 169.11 188.20 170.02 Z M 188.24 171.02 L 188.27 172.03 C 188.30 172.93 189.06 173.64 189.96 173.61 C 190.86 173.58 191.57 172.82 191.54 171.92 L 191.51 170.91 C 191.48 170.01 190.72 169.30 189.82 169.33 C 188.92 169.36 188.21 170.12 188.24 171.02 Z M 188.27 172.03 L 188.30 173.03 C 188.33 173.93 189.09 174.64 189.99 174.61 C 190.89 174.59 191.60 173.83 191.57 172.93 L 191.54 171.92 C 191.51 171.02 190.76 170.31 189.86 170.34 C 188.95 170.37 188.24 171.12 188.27 172.03 Z M 188.31 173.03 L 188.34 174.03 C 188.36 174.94 189.12 175.64 190.02 175.62 C 190.92 175.59 191.63 174.84 191.60 173.94 L 191.57 172.93 C 191.54 172.03 190.79 171.32 189.89 171.35 C 188.99 171.37 188.28 172.13 188.31 173.03 Z M 188.34 174.03 L 188.37 175.03 C 188.39 175.93 189.14 176.64 190.04 176.62 C 190.94 176.59 191.65 175.84 191.63 174.94 L 191.60 173.94 C 191.57 173.04 190.82 172.33 189.92 172.35 C 189.02 172.38 188.31 173.13 188.34 174.03 Z M 188.37 175.03 L 188.40 176.03 C 188.42 176.93 189.17 177.64 190.07 177.62 C 190.97 177.59 191.68 176.84 191.65 175.94 L 191.63 174.94 C 191.60 174.04 190.85 173.33 189.95 173.36 C 189.05 173.38 188.34 174.13 188.37 175.03 Z M 188.40 176.03 L 188.42 177.03 C 188.45 177.93 189.19 178.64 190.09 178.61 C 190.99 178.59 191.70 177.84 191.68 176.94 L 191.65 175.95 C 191.63 175.05 190.88 174.34 189.98 174.36 C 189.08 174.39 188.38 175.13 188.40 176.03 Z M 188.43 177.03 L 188.45 178.02 C 188.47 178.92 189.22 179.63 190.11 179.61 C 191.01 179.58 191.72 178.84 191.70 177.94 L 191.67 176.95 C 191.65 176.05 190.91 175.34 190.01 175.36 C 189.11 175.38 188.40 176.13 188.43 177.03 Z M 188.45 178.02 L 188.48 179.01 C 188.50 179.91 189.24 180.62 190.14 180.60 C 191.03 180.58 191.74 179.83 191.72 178.94 L 191.70 177.94 C 191.68 177.05 190.93 176.34 190.04 176.36 C 189.14 176.38 188.43 177.12 188.45 178.02 Z M 188.48 179.01 L 188.50 180.00 C 188.52 180.89 189.26 181.60 190.16 181.58 C 191.05 181.56 191.76 180.82 191.74 179.93 L 191.72 178.94 C 191.70 178.04 190.96 177.34 190.06 177.35 C 189.17 177.37 188.46 178.12 188.48 179.01 Z M 188.50 180.00 L 188.52 180.99 C 188.54 181.89 189.28 182.60 190.17 182.58 C 191.07 182.56 191.78 181.82 191.76 180.93 L 191.74 179.93 C 191.72 179.04 190.98 178.33 190.09 178.35 C 189.19 178.36 188.48 179.10 188.50 180.00 Z M 188.52 180.99 L 188.54 181.99 C 188.56 182.88 189.30 183.59 190.19 183.58 C 191.08 183.56 191.79 182.82 191.78 181.93 L 191.76 180.93 C 191.74 180.04 191.00 179.33 190.11 179.35 C 189.22 179.36 188.51 180.10 188.52 180.99 Z M 188.54 181.99 L 188.56 182.98 C 188.58 183.87 189.31 184.58 190.21 184.57 C 191.10 184.55 191.81 183.82 191.79 182.93 L 191.77 181.93 C 191.76 181.04 191.02 180.33 190.13 180.34 C 189.24 180.36 188.53 181.10 188.54 181.99 Z M 188.56 182.98 L 188.58 183.97 C 188.59 184.87 189.33 185.58 190.22 185.56 C 191.11 185.55 191.82 184.81 191.81 183.92 L 191.79 182.93 C 191.77 182.04 191.04 181.33 190.15 181.34 C 189.26 181.36 188.55 182.09 188.56 182.98 Z M 188.58 183.97 L 188.60 184.97 C 188.61 185.86 189.34 186.57 190.23 186.55 C 191.12 186.54 191.83 185.81 191.82 184.92 L 191.80 183.93 C 191.79 183.04 191.06 182.33 190.17 182.34 C 189.28 182.35 188.57 183.08 188.58 183.97 Z M 188.60 184.96 L 188.61 185.96 C 188.62 186.85 189.35 187.56 190.24 187.55 C 191.13 187.54 191.84 186.81 191.83 185.92 L 191.82 184.92 C 191.80 184.03 191.07 183.32 190.19 183.33 C 189.30 183.35 188.59 184.08 188.60 184.96 Z M 188.61 185.96 L 188.62 186.96 C 188.64 187.85 189.36 188.56 190.25 188.55 C 191.14 188.54 191.85 187.81 191.84 186.92 L 191.83 185.92 C 191.82 185.03 191.09 184.32 190.20 184.33 C 189.31 184.34 188.60 185.07 188.61 185.96 Z M 188.63 186.96 L 188.64 187.96 C 188.65 188.85 189.37 189.56 190.26 189.55 C 191.14 189.54 191.86 188.81 191.85 187.93 L 191.84 186.92 C 191.83 186.04 191.10 185.33 190.22 185.33 C 189.33 185.34 188.62 186.07 188.63 186.96 Z M 188.64 187.96 L 188.65 188.97 C 188.65 189.85 189.38 190.56 190.26 190.56 C 191.15 190.55 191.86 189.82 191.85 188.94 L 191.85 187.93 C 191.84 187.04 191.11 186.33 190.23 186.34 C 189.34 186.35 188.63 187.07 188.64 187.96 Z M 188.65 188.96 L 188.66 189.98 C 188.66 190.86 189.38 191.58 190.27 191.57 C 191.15 191.56 191.87 190.84 191.86 189.96 L 191.85 188.94 C 191.85 188.06 191.12 187.34 190.24 187.35 C 189.35 187.36 188.64 188.08 188.65 188.96 Z M 188.66 189.98 L 188.66 191.00 C 188.67 191.89 189.39 192.60 190.27 192.59 C 191.16 192.59 191.87 191.87 191.86 190.98 L 191.86 189.96 C 191.85 189.08 191.13 188.36 190.25 188.37 C 189.36 188.37 188.65 189.09 188.66 189.98 Z M 188.66 191.00 L 188.67 192.03 C 188.67 192.91 189.39 193.62 190.27 193.62 C 191.16 193.62 191.87 192.90 191.87 192.01 L 191.86 190.99 C 191.86 190.10 191.14 189.39 190.26 189.39 C 189.37 189.40 188.66 190.12 188.66 191.00 Z M 188.67 192.02 L 188.67 193.05 C 188.67 193.93 189.39 194.65 190.28 194.64 C 191.16 194.64 191.87 193.92 191.87 193.04 L 191.87 192.01 C 191.86 191.13 191.15 190.42 190.26 190.42 C 189.38 190.42 188.67 191.14 188.67 192.02 Z M 188.67 193.05 L 188.67 194.07 C 188.68 194.95 189.39 195.66 190.28 195.66 C 191.16 195.66 191.87 194.94 191.87 194.06 L 191.87 193.04 C 191.87 192.16 191.15 191.44 190.27 191.44 C 189.38 191.45 188.67 192.16 188.67 193.05 Z M 188.68 194.07 L 188.68 195.08 C 188.68 195.96 189.40 196.67 190.28 196.67 C 191.16 196.67 191.88 195.95 191.87 195.07 L 191.87 194.06 C 191.87 193.18 191.15 192.46 190.27 192.47 C 189.39 192.47 188.67 193.18 188.68 194.07 Z M 188.68 195.08 L 188.68 196.08 C 188.68 196.96 189.40 197.67 190.28 197.67 C 191.16 197.67 191.87 196.95 191.87 196.07 L 191.87 195.07 C 191.87 194.19 191.16 193.48 190.27 193.48 C 189.39 193.48 188.68 194.19 188.68 195.08 Z M 188.68 196.07 L 188.68 197.06 C 188.68 197.94 189.40 198.65 190.28 198.65 C 191.16 198.65 191.87 197.94 191.87 197.06 L 191.87 196.07 C 191.87 195.19 191.16 194.48 190.28 194.48 C 189.39 194.48 188.68 195.19 188.68 196.07 Z M 188.68 197.06 L 188.68 198.02 C 188.68 198.90 189.40 199.62 190.28 199.62 C 191.16 199.62 191.87 198.90 191.87 198.02 L 191.87 197.06 C 191.87 196.17 191.16 195.46 190.28 195.46 C 189.39 195.46 188.68 196.18 188.68 197.06 Z M 188.68 198.02 L 188.68 198.96 C 188.68 199.84 189.40 200.56 190.28 200.56 C 191.16 200.56 191.87 199.84 191.87 198.96 L 191.87 198.02 C 191.87 197.14 191.16 196.42 190.28 196.42 C 189.40 196.42 188.68 197.14 188.68 198.02 Z M 188.68 198.96 L 188.68 200.05 C 188.68 200.93 189.40 201.64 190.28 201.64 C 191.16 201.64 191.87 200.93 191.87 200.05 L 191.87 198.96 C 191.87 198.08 191.16 197.36 190.28 197.36 C 189.40 197.36 188.68 198.08 188.68 198.96 Z M 188.68 200.05 L 188.68 201.10 C 188.68 201.98 189.39 202.69 190.28 202.69 C 191.16 202.69 191.87 201.98 191.87 201.10 L 191.87 200.05 C 191.87 199.16 191.16 198.45 190.28 198.45 C 189.39 198.45 188.68 199.16 188.68 200.05 Z M 188.68 201.10 L 188.68 202.12 C 188.68 203.00 189.39 203.72 190.28 203.72 C 191.16 203.72 191.88 203.00 191.88 202.12 L 191.88 201.10 C 191.88 200.21 191.16 199.50 190.28 199.50 C 189.39 199.50 188.68 200.21 188.68 201.10 Z M 188.68 202.12 L 188.68 203.12 C 188.68 204.00 189.39 204.72 190.28 204.72 C 191.16 204.72 191.88 204.00 191.88 203.12 L 191.88 202.12 C 191.88 201.24 191.16 200.52 190.28 200.52 C 189.39 200.52 188.68 201.24 188.68 202.12 Z M 188.68 203.12 L 188.68 204.10 C 188.68 204.98 189.39 205.70 190.28 205.70 C 191.16 205.70 191.88 204.98 191.88 204.10 L 191.88 203.12 C 191.88 202.23 191.16 201.52 190.28 201.52 C 189.39 201.52 188.68 202.23 188.68 203.12 Z M 188.67 204.10 L 188.67 205.06 C 188.67 205.94 189.39 206.66 190.28 206.66 C 191.16 206.66 191.88 205.94 191.88 205.06 L 191.88 204.10 C 191.88 203.21 191.16 202.49 190.28 202.49 C 189.39 202.49 188.67 203.21 188.67 204.10 Z M 188.67 205.06 L 188.67 206.01 C 188.67 206.90 189.39 207.61 190.28 207.61 C 191.16 207.61 191.88 206.90 191.88 206.01 L 191.88 205.06 C 191.88 204.17 191.16 203.45 190.28 203.45 C 189.39 203.45 188.67 204.17 188.67 205.06 Z M 188.67 206.01 L 188.67 206.96 C 188.67 207.85 189.39 208.57 190.28 208.57 C 191.16 208.57 191.88 207.85 191.88 206.96 L 191.88 206.01 C 191.88 205.12 191.16 204.40 190.28 204.40 C 189.39 204.40 188.67 205.12 188.67 206.01 Z M 188.67 206.96 L 188.67 207.97 C 188.67 208.85 189.39 209.57 190.28 209.57 C 191.16 209.57 191.88 208.85 191.88 207.97 L 191.88 206.96 C 191.88 206.07 191.16 205.35 190.28 205.35 C 189.39 205.35 188.67 206.07 188.67 206.96 Z M 188.67 207.97 L 188.67 208.97 C 188.67 209.86 189.39 210.58 190.28 210.58 C 191.17 210.58 191.89 209.86 191.89 208.97 L 191.89 207.97 C 191.89 207.08 191.17 206.36 190.28 206.36 C 189.39 206.36 188.67 207.08 188.67 207.97 Z M 188.67 208.97 L 188.67 209.97 C 188.67 210.86 189.39 211.58 190.28 211.58 C 191.17 211.58 191.89 210.86 191.89 209.97 L 191.89 208.97 C 191.89 208.08 191.17 207.36 190.28 207.36 C 189.39 207.36 188.67 208.08 188.67 208.97 Z M 188.66 209.97 L 188.66 210.97 C 188.66 211.86 189.39 212.58 190.28 212.58 C 191.17 212.58 191.89 211.86 191.89 210.97 L 191.89 209.97 C 191.89 209.08 191.17 208.36 190.28 208.36 C 189.39 208.36 188.66 209.08 188.66 209.97 Z M 188.66 210.97 L 188.66 211.97 C 188.66 212.86 189.39 213.58 190.28 213.58 C 191.17 213.58 191.89 212.86 191.89 211.97 L 191.89 210.97 C 191.89 210.08 191.17 209.35 190.28 209.35 C 189.39 209.35 188.66 210.08 188.66 210.97 Z M 188.66 211.97 L 188.66 212.96 C 188.66 213.86 189.38 214.58 190.28 214.58 C 191.17 214.58 191.89 213.86 191.89 212.96 L 191.89 211.97 C 191.89 211.07 191.17 210.35 190.28 210.35 C 189.38 210.35 188.66 211.07 188.66 211.97 Z M 188.66 212.96 L 188.66 213.96 C 188.66 214.86 189.38 215.58 190.28 215.58 C 191.17 215.58 191.90 214.86 191.90 213.96 L 191.90 212.96 C 191.90 212.07 191.17 211.35 190.28 211.35 C 189.38 211.35 188.66 212.07 188.66 212.96 Z M 188.66 213.96 L 188.66 214.31 C 188.66 215.20 189.38 215.93 190.28 215.93 C 191.17 215.93 191.90 215.20 191.90 214.31 L 191.90 213.96 C 191.90 213.07 191.17 212.34 190.28 212.34 C 189.38 212.34 188.66 213.07 188.66 213.96 Z"
      fill="black"
      fill-rule="nonzero" /></svg>