<svg xmlns="http://www.w3.org/2000/svg" width="300" height="300" viewBox="0 0 300 300">
<path d="M 116.75 129.91 L 116.88 128.54 C 116.96 127.72 116.36 126.99 115.53 126.91 C 114.71 126.84 113.99 127.44 113.91 128.26 L 113.78 129.63 C 113.71 130.45 114.31 131.18 115.13 131.26 C 115.95 131.33 116.68 130.73 116.75 129.91 Z M 116.93 128.52 L 117.03 127.31 C 117.09 126.46 116.46 125.72 115.62 125.65 C 114.77 125.58 114.03 126.21 113.96 127.06 L 113.87 128.28 C 113.80 129.12 114.43 129.86 115.27 129.93 C 116.12 130.00 116.86 129.37 116.93 128.52 Z M 117.07 127.25 L 117.11 126.34 C 117.15 125.47 116.47 124.73 115.60 124.69 C 114.73 124.66 114.00 125.33 113.96 126.20 L 113.92 127.11 C 113.88 127.98 114.55 128.72 115.43 128.76 C 116.30 128.80 117.03 128.12 117.07 127.25 Z M 117.15 126.09 L 117.10 125.64 C 117.00 124.75 116.20 124.11 115.31 124.21 C 114.42 124.31 113.78 125.11 113.87 126.00 L 113.92 126.45 C 114.02 127.34 114.82 127.98 115.71 127.88 C 116.60 127.79 117.24 126.98 117.15 126.09 Z M 114.38 124.61 L 114.18 124.79 C 113.51 125.40 113.46 126.44 114.07 127.11 C 114.69 127.78 115.73 127.83 116.40 127.21 L 116.60 127.03 C 117.27 126.42 117.31 125.38 116.70 124.71 C 116.09 124.04 115.05 123.99 114.38 124.61 Z M 113.78 125.32 L 113.42 126.13 C 113.05 126.96 113.42 127.94 114.25 128.31 C 115.08 128.68 116.06 128.31 116.43 127.48 L 116.79 126.68 C 117.17 125.85 116.79 124.87 115.96 124.50 C 115.13 124.12 114.16 124.49 113.78 125.32 Z M 113.41 126.16 L 112.87 127.43 C 112.51 128.26 112.90 129.24 113.74 129.59 C 114.58 129.95 115.55 129.56 115.91 128.72 L 116.45 127.46 C 116.80 126.62 116.41 125.64 115.57 125.29 C 114.74 124.93 113.76 125.32 113.41 126.16 Z M 112.88 127.38 L 112.35 128.54 C 111.97 129.37 112.33 130.35 113.16 130.74 C 113.99 131.12 114.98 130.75 115.36 129.92 L 115.89 128.77 C 116.27 127.93 115.91 126.95 115.08 126.57 C 114.25 126.19 113.26 126.55 112.88 127.38 Z M 112.37 128.50 L 111.92 129.41 C 111.52 130.23 111.85 131.22 112.67 131.62 C 113.49 132.03 114.49 131.69 114.89 130.87 L 115.34 129.96 C 115.74 129.14 115.41 128.15 114.59 127.75 C 113.76 127.34 112.77 127.68 112.37 128.50 Z M 111.93 129.38 L 111.45 130.31 C 111.04 131.13 111.36 132.13 112.17 132.54 C 112.98 132.96 113.98 132.64 114.40 131.83 L 114.88 130.90 C 115.30 130.08 114.98 129.08 114.16 128.67 C 113.35 128.25 112.35 128.57 111.93 129.38 Z M 111.46 130.29 L 110.97 131.23 C 110.54 132.03 110.85 133.04 111.66 133.46 C 112.47 133.89 113.47 133.58 113.90 132.78 L 114.39 131.85 C 114.82 131.04 114.51 130.04 113.70 129.61 C 112.89 129.18 111.89 129.49 111.46 130.29 Z M 110.98 131.21 L 110.49 132.11 C 110.05 132.92 110.35 133.92 111.15 134.36 C 111.96 134.79 112.96 134.50 113.40 133.69 L 113.89 132.79 C 114.33 131.99 114.03 130.98 113.22 130.55 C 112.42 130.11 111.42 130.41 110.98 131.21 Z M 110.50 132.10 L 110.03 132.95 C 109.58 133.75 109.87 134.76 110.67 135.20 C 111.47 135.64 112.48 135.35 112.92 134.55 L 113.39 133.70 C 113.84 132.90 113.55 131.90 112.75 131.45 C 111.95 131.01 110.94 131.30 110.50 132.10 Z M 110.03 132.94 L 109.55 133.80 C 109.10 134.60 109.39 135.60 110.18 136.05 C 110.98 136.50 111.99 136.22 112.44 135.42 L 112.92 134.56 C 113.36 133.77 113.08 132.76 112.28 132.31 C 111.49 131.86 110.48 132.14 110.03 132.94 Z M 109.56 133.79 L 108.96 134.84 C 108.51 135.63 108.79 136.64 109.58 137.09 C 110.37 137.54 111.38 137.27 111.83 136.47 L 112.43 135.43 C 112.88 134.64 112.60 133.63 111.81 133.18 C 111.02 132.72 110.01 133.00 109.56 133.79 Z M 108.98 134.83 L 108.48 135.69 C 108.02 136.47 108.29 137.47 109.07 137.93 C 109.85 138.39 110.86 138.12 111.31 137.34 L 111.81 136.48 C 112.27 135.70 112.00 134.70 111.22 134.24 C 110.44 133.78 109.43 134.05 108.98 134.83 Z M 108.49 135.68 L 108.05 136.42 C 107.59 137.19 107.85 138.19 108.62 138.65 C 109.40 139.11 110.40 138.86 110.86 138.09 L 111.30 137.35 C 111.76 136.57 111.50 135.57 110.73 135.11 C 109.95 134.65 108.95 134.91 108.49 135.68 Z M 108.06 136.42 L 107.62 137.16 C 107.16 137.93 107.41 138.93 108.18 139.39 C 108.95 139.85 109.94 139.60 110.40 138.83 L 110.85 138.09 C 111.31 137.32 111.06 136.32 110.29 135.86 C 109.52 135.40 108.53 135.65 108.06 136.42 Z M 107.63 137.16 L 107.12 138.01 C 106.66 138.78 106.91 139.77 107.67 140.23 C 108.44 140.69 109.43 140.44 109.89 139.67 L 110.40 138.83 C 110.85 138.06 110.61 137.07 109.84 136.61 C 109.08 136.15 108.08 136.40 107.63 137.16 Z M 107.12 138.02 L 106.61 138.88 C 106.16 139.64 106.40 140.62 107.16 141.08 C 107.93 141.53 108.91 141.29 109.37 140.53 L 109.88 139.67 C 110.34 138.91 110.09 137.92 109.33 137.46 C 108.57 137.01 107.58 137.26 107.12 138.02 Z M 106.62 138.88 L 106.12 139.72 C 105.67 140.48 105.91 141.46 106.67 141.91 C 107.43 142.36 108.41 142.11 108.86 141.36 L 109.36 140.52 C 109.81 139.76 109.56 138.78 108.81 138.33 C 108.05 137.88 107.07 138.13 106.62 138.88 Z M 106.12 139.73 L 105.70 140.44 C 105.25 141.19 105.50 142.17 106.26 142.61 C 107.01 143.06 107.98 142.82 108.43 142.06 L 108.86 141.35 C 109.30 140.60 109.06 139.62 108.30 139.17 C 107.55 138.72 106.57 138.97 106.12 139.73 Z M 105.71 140.44 L 105.24 141.22 C 104.79 141.97 105.04 142.94 105.79 143.39 C 106.54 143.84 107.51 143.60 107.95 142.85 L 108.42 142.06 C 108.87 141.31 108.63 140.34 107.88 139.89 C 107.13 139.44 106.16 139.69 105.71 140.44 Z M 105.25 141.22 L 104.70 142.14 C 104.25 142.88 104.49 143.85 105.23 144.30 C 105.98 144.75 106.94 144.51 107.39 143.76 L 107.94 142.85 C 108.39 142.10 108.15 141.14 107.41 140.69 C 106.67 140.24 105.70 140.48 105.25 141.22 Z M 104.71 142.14 L 104.08 143.17 C 103.63 143.91 103.86 144.87 104.60 145.32 C 105.34 145.77 106.30 145.54 106.75 144.80 L 107.38 143.77 C 107.83 143.03 107.60 142.06 106.86 141.62 C 106.12 141.17 105.16 141.40 104.71 142.14 Z M 104.09 143.17 L 103.61 143.95 C 103.16 144.69 103.39 145.65 104.12 146.10 C 104.86 146.55 105.82 146.31 106.26 145.58 L 106.74 144.80 C 107.19 144.07 106.96 143.11 106.23 142.66 C 105.50 142.21 104.54 142.44 104.09 143.17 Z M 103.61 143.96 L 103.10 144.80 C 102.65 145.53 102.88 146.49 103.61 146.93 C 104.34 147.38 105.30 147.15 105.74 146.42 L 106.26 145.58 C 106.71 144.85 106.48 143.89 105.75 143.44 C 105.02 143.00 104.06 143.23 103.61 143.96 Z M 103.10 144.81 L 102.56 145.69 C 102.12 146.42 102.35 147.37 103.08 147.81 C 103.81 148.26 104.76 148.03 105.20 147.30 L 105.74 146.42 C 106.18 145.69 105.95 144.73 105.22 144.29 C 104.50 143.85 103.54 144.08 103.10 144.81 Z M 102.56 145.70 L 102.02 146.60 C 101.58 147.33 101.81 148.27 102.54 148.71 C 103.27 149.15 104.22 148.92 104.66 148.19 L 105.20 147.29 C 105.64 146.56 105.41 145.61 104.68 145.18 C 103.95 144.74 103.00 144.97 102.56 145.70 Z M 102.02 146.61 L 101.49 147.50 C 101.05 148.23 101.29 149.17 102.02 149.61 C 102.75 150.04 103.69 149.80 104.13 149.07 L 104.66 148.18 C 105.09 147.45 104.85 146.51 104.12 146.07 C 103.39 145.64 102.45 145.88 102.02 146.61 Z M 101.49 147.52 L 100.98 148.38 C 100.56 149.11 100.80 150.05 101.53 150.48 C 102.26 150.90 103.20 150.65 103.62 149.92 L 104.13 149.06 C 104.55 148.33 104.31 147.39 103.58 146.97 C 102.85 146.54 101.91 146.79 101.49 147.52 Z M 100.97 148.40 L 100.43 149.35 C 100.01 150.09 100.28 151.03 101.01 151.44 C 101.75 151.86 102.69 151.60 103.10 150.86 L 103.64 149.91 C 104.05 149.17 103.79 148.23 103.06 147.82 C 102.32 147.40 101.38 147.66 100.97 148.40 Z M 100.40 149.37 L 99.89 150.33 C 99.48 151.08 99.76 152.02 100.51 152.43 C 101.27 152.83 102.21 152.55 102.61 151.80 L 103.13 150.84 C 103.54 150.09 103.26 149.15 102.50 148.74 C 101.75 148.34 100.81 148.62 100.40 149.37 Z M 99.85 150.34 L 99.39 151.23 C 98.99 152.00 99.29 152.95 100.07 153.35 C 100.84 153.75 101.79 153.45 102.18 152.68 L 102.65 151.79 C 103.05 151.01 102.74 150.07 101.97 149.67 C 101.20 149.27 100.25 149.57 99.85 150.34 Z M 99.36 151.24 L 98.94 152.08 C 98.55 152.87 98.87 153.83 99.65 154.22 C 100.44 154.62 101.40 154.30 101.79 153.51 L 102.22 152.67 C 102.61 151.88 102.29 150.92 101.50 150.53 C 100.71 150.13 99.76 150.45 99.36 151.24 Z M 98.91 152.09 L 98.52 152.90 C 98.12 153.70 98.46 154.67 99.26 155.06 C 100.06 155.46 101.03 155.12 101.42 154.32 L 101.82 153.51 C 102.21 152.70 101.88 151.73 101.08 151.34 C 100.27 150.95 99.30 151.28 98.91 152.09 Z M 98.50 152.90 L 98.32 153.27 C 97.93 154.08 98.27 155.06 99.08 155.45 C 99.89 155.85 100.87 155.51 101.26 154.69 L 101.44 154.32 C 101.83 153.51 101.49 152.53 100.68 152.14 C 99.87 151.75 98.89 152.09 98.50 152.90 Z"
      fill="black"
      fill-rule="nonzero" /><path d="M 124.44 96.30 L 124.89 97.26 C 125.26 98.04 126.18 98.37 126.96 98.01 C 127.74 97.64 128.07 96.72 127.71 95.94 L 127.26 94.98 C 126.89 94.20 125.97 93.87 125.19 94.23 C 124.41 94.60 124.08 95.52 124.44 96.30 Z M 124.84 97.27 L 125.28 98.21 C 125.64 99.02 126.60 99.37 127.40 99.00 C 128.21 98.63 128.56 97.68 128.19 96.88 L 127.76 95.93 C 127.39 95.13 126.44 94.77 125.63 95.14 C 124.83 95.51 124.47 96.46 124.84 97.27 Z M 125.22 98.21 L 125.62 99.13 C 125.99 99.97 126.96 100.35 127.80 99.98 C 128.64 99.62 129.02 98.64 128.65 97.81 L 128.25 96.88 C 127.88 96.05 126.91 95.66 126.07 96.03 C 125.24 96.39 124.85 97.37 125.22 98.21 Z M 125.56 99.10 L 125.91 99.99 C 126.26 100.87 127.25 101.29 128.13 100.94 C 129.00 100.59 129.43 99.60 129.07 98.72 L 128.72 97.83 C 128.37 96.96 127.38 96.54 126.50 96.89 C 125.63 97.24 125.21 98.23 125.56 99.10 Z M 125.84 99.93 L 126.16 100.84 C 126.48 101.75 127.47 102.23 128.38 101.92 C 129.29 101.60 129.78 100.60 129.46 99.69 L 129.14 98.78 C 128.83 97.87 127.83 97.39 126.92 97.71 C 126.01 98.03 125.53 99.02 125.84 99.93 Z M 126.11 100.73 L 126.38 101.73 C 126.64 102.66 127.61 103.22 128.55 102.96 C 129.49 102.70 130.04 101.73 129.78 100.79 L 129.51 99.80 C 129.25 98.86 128.28 98.31 127.34 98.57 C 126.40 98.82 125.85 99.79 126.11 100.73 Z M 126.35 101.61 L 126.55 102.57 C 126.74 103.52 127.67 104.14 128.63 103.94 C 129.59 103.75 130.20 102.82 130.01 101.86 L 129.81 100.91 C 129.62 99.95 128.68 99.33 127.73 99.53 C 126.77 99.72 126.16 100.66 126.35 101.61 Z M 126.53 102.48 L 126.67 103.44 C 126.82 104.40 127.72 105.07 128.69 104.92 C 129.65 104.78 130.32 103.87 130.17 102.91 L 130.02 101.95 C 129.88 100.98 128.98 100.32 128.01 100.47 C 127.05 100.61 126.38 101.51 126.53 102.48 Z M 126.67 103.39 L 126.78 104.33 C 126.90 105.30 127.79 105.99 128.76 105.87 C 129.73 105.75 130.42 104.86 130.30 103.89 L 130.18 102.96 C 130.06 101.99 129.17 101.30 128.20 101.42 C 127.23 101.54 126.55 102.42 126.67 103.39 Z M 126.78 104.31 L 126.88 105.25 C 126.99 106.22 127.87 106.92 128.84 106.81 C 129.81 106.70 130.51 105.83 130.41 104.85 L 130.30 103.91 C 130.19 102.94 129.32 102.24 128.34 102.35 C 127.37 102.46 126.67 103.33 126.78 104.31 Z M 126.88 105.23 L 126.98 106.23 C 127.08 107.20 127.96 107.91 128.93 107.81 C 129.91 107.71 130.61 106.83 130.51 105.86 L 130.41 104.87 C 130.31 103.89 129.44 103.18 128.46 103.29 C 127.49 103.39 126.78 104.26 126.88 105.23 Z M 126.98 106.22 L 127.08 107.27 C 127.18 108.24 128.05 108.96 129.03 108.86 C 130.01 108.76 130.72 107.89 130.62 106.91 L 130.52 105.86 C 130.42 104.89 129.55 104.18 128.57 104.27 C 127.59 104.37 126.88 105.24 126.98 106.22 Z M 127.08 107.27 L 127.18 108.28 C 127.28 109.26 128.15 109.97 129.13 109.88 C 130.11 109.78 130.82 108.91 130.72 107.93 L 130.62 106.91 C 130.53 105.93 129.65 105.22 128.68 105.32 C 127.70 105.42 126.98 106.29 127.08 107.27 Z M 127.18 108.28 L 127.27 109.22 C 127.37 110.20 128.24 110.91 129.22 110.82 C 130.20 110.72 130.92 109.85 130.82 108.87 L 130.73 107.93 C 130.63 106.95 129.76 106.23 128.78 106.33 C 127.80 106.43 127.08 107.30 127.18 108.28 Z M 127.27 109.21 L 127.36 110.19 C 127.45 111.17 128.33 111.89 129.31 111.80 C 130.29 111.70 131.01 110.83 130.92 109.85 L 130.83 108.87 C 130.73 107.89 129.86 107.17 128.88 107.27 C 127.90 107.36 127.18 108.23 127.27 109.21 Z M 127.36 110.17 L 127.44 111.18 C 127.53 112.17 128.40 112.90 129.38 112.81 C 130.37 112.73 131.10 111.86 131.01 110.87 L 130.92 109.86 C 130.84 108.88 129.97 108.15 128.98 108.24 C 128.00 108.32 127.27 109.19 127.36 110.17 Z M 127.44 111.17 L 127.52 112.21 C 127.59 113.20 128.46 113.94 129.44 113.86 C 130.43 113.79 131.17 112.92 131.10 111.94 L 131.02 110.89 C 130.94 109.91 130.08 109.17 129.09 109.24 C 128.10 109.32 127.36 110.18 127.44 111.17 Z M 127.51 112.19 L 127.58 113.22 C 127.64 114.21 128.49 114.96 129.49 114.90 C 130.48 114.84 131.23 113.98 131.17 112.99 L 131.10 111.96 C 131.04 110.97 130.18 110.22 129.19 110.28 C 128.20 110.34 127.45 111.20 127.51 112.19 Z M 127.58 113.19 L 127.62 114.14 C 127.67 115.13 128.52 115.90 129.51 115.85 C 130.50 115.80 131.27 114.95 131.22 113.96 L 131.17 113.02 C 131.12 112.02 130.28 111.26 129.28 111.31 C 128.29 111.36 127.53 112.20 127.58 113.19 Z M 127.62 114.12 L 127.66 115.09 C 127.70 116.09 128.53 116.86 129.53 116.82 C 130.52 116.78 131.30 115.95 131.26 114.95 L 131.22 113.98 C 131.18 112.99 130.34 112.21 129.35 112.25 C 128.36 112.29 127.58 113.13 127.62 114.12 Z M 127.65 115.07 L 127.68 116.07 C 127.71 117.06 128.54 117.85 129.54 117.82 C 130.53 117.79 131.32 116.96 131.29 115.96 L 131.26 114.97 C 131.23 113.97 130.40 113.19 129.40 113.22 C 128.41 113.25 127.62 114.08 127.65 115.07 Z M 127.68 116.05 L 127.70 117.07 C 127.72 118.07 128.55 118.86 129.55 118.84 C 130.54 118.82 131.34 117.99 131.31 116.99 L 131.29 115.98 C 131.27 114.98 130.44 114.19 129.45 114.21 C 128.45 114.23 127.66 115.06 127.68 116.05 Z M 127.70 117.06 L 127.72 118.10 C 127.73 119.10 128.55 119.90 129.55 119.88 C 130.55 119.87 131.35 119.05 131.33 118.05 L 131.32 117.00 C 131.30 116.01 130.48 115.21 129.48 115.23 C 128.48 115.24 127.68 116.06 127.70 117.06 Z M 127.71 118.10 L 127.73 119.12 C 127.74 120.12 128.56 120.92 129.56 120.91 C 130.56 120.90 131.36 120.08 131.35 119.08 L 131.33 118.06 C 131.32 117.06 130.50 116.26 129.50 116.27 C 128.50 116.28 127.70 117.10 127.71 118.10 Z M 127.72 119.12 L 127.73 120.07 C 127.74 121.07 128.56 121.88 129.56 121.87 C 130.56 121.86 131.36 121.04 131.36 120.04 L 131.35 119.09 C 131.34 118.09 130.52 117.28 129.52 117.29 C 128.52 117.30 127.72 118.12 127.72 119.12 Z M 127.73 120.07 L 127.74 121.04 C 127.74 122.04 128.56 122.85 129.56 122.84 C 130.56 122.84 131.37 122.02 131.36 121.02 L 131.36 120.05 C 131.35 119.05 130.53 118.24 129.53 118.24 C 128.53 118.25 127.73 119.07 127.73 120.07 Z M 127.74 121.04 L 127.74 122.03 C 127.74 123.03 128.56 123.84 129.56 123.84 C 130.56 123.83 131.37 123.02 131.37 122.02 L 131.36 121.02 C 131.36 120.02 130.54 119.21 129.54 119.22 C 128.54 119.22 127.73 120.03 127.74 121.04 Z M 127.74 122.02 L 127.74 123.03 C 127.74 124.04 128.56 124.85 129.56 124.84 C 130.56 124.84 131.37 124.03 131.37 123.03 L 131.37 122.02 C 131.37 121.02 130.55 120.20 129.55 120.21 C 128.55 120.21 127.74 121.02 127.74 122.02 Z M 127.74 123.03 L 127.74 124.06 C 127.74 125.06 128.55 125.87 129.56 125.87 C 130.56 125.87 131.37 125.06 131.37 124.05 L 131.37 123.03 C 131.37 122.03 130.56 121.21 129.55 121.21 C 128.55 121.21 127.74 122.03 127.74 123.03 Z M 127.74 124.05 L 127.74 125.09 C 127.74 126.10 128.55 126.91 129.56 126.91 C 130.56 126.91 131.37 126.10 131.37 125.09 L 131.37 124.05 C 131.37 123.05 130.56 122.24 129.55 122.24 C 128.55 122.24 127.74 123.05 127.74 124.05 Z M 127.74 125.09 L 127.74 126.10 C 127.74 127.11 128.55 127.92 129.56 127.92 C 130.56 127.92 131.37 127.11 131.37 126.10 L 131.37 125.09 C 131.37 124.09 130.56 123.28 129.56 123.28 C 128.55 123.28 127.74 124.09 127.74 125.09 Z M 127.74 126.10 L 127.74 127.08 C 127.74 128.08 128.55 128.90 129.55 128.90 C 130.56 128.90 131.37 128.08 131.37 127.08 L 131.37 126.10 C 131.37 125.10 130.56 124.29 129.56 124.29 C 128.55 124.29 127.74 125.10 127.74 126.10 Z M 127.74 127.08 L 127.74 128.06 C 127.73 129.06 128.55 129.88 129.55 129.88 C 130.56 129.88 131.37 129.07 131.37 128.06 L 131.37 127.08 C 131.37 126.07 130.56 125.26 129.56 125.26 C 128.55 125.26 127.74 126.07 127.74 127.08 Z M 127.73 128.06 L 127.73 129.05 C 127.73 130.06 128.55 130.87 129.55 130.87 C 130.56 130.88 131.37 130.06 131.37 129.06 L 131.37 128.06 C 131.38 127.06 130.56 126.24 129.56 126.24 C 128.55 126.24 127.74 127.05 127.73 128.06 Z M 127.73 129.05 L 127.73 130.05 C 127.73 131.06 128.54 131.88 129.55 131.88 C 130.55 131.88 131.37 131.07 131.37 130.06 L 131.37 129.06 C 131.38 128.05 130.56 127.24 129.56 127.23 C 128.55 127.23 127.74 128.04 127.73 129.05 Z M 127.73 130.05 L 127.73 131.06 C 127.72 132.07 128.53 132.89 129.54 132.89 C 130.55 132.90 131.36 132.08 131.37 131.08 L 131.37 130.06 C 131.38 129.06 130.56 128.24 129.56 128.24 C 128.55 128.23 127.73 129.05 127.73 130.05 Z M 127.73 131.06 L 127.72 132.08 C 127.71 133.09 128.53 133.91 129.53 133.91 C 130.54 133.92 131.36 133.11 131.36 132.10 L 131.37 131.08 C 131.37 130.07 130.56 129.25 129.56 129.25 C 128.55 129.24 127.73 130.05 127.73 131.06 Z M 127.72 132.08 L 127.71 133.11 C 127.70 134.11 128.51 134.93 129.52 134.94 C 130.53 134.95 131.35 134.14 131.36 133.13 L 131.36 132.10 C 131.37 131.10 130.56 130.28 129.55 130.27 C 128.55 130.26 127.73 131.07 127.72 132.08 Z M 127.71 133.10 L 127.70 134.09 C 127.69 135.10 128.50 135.92 129.51 135.93 C 130.51 135.94 131.34 135.13 131.35 134.13 L 131.36 133.14 C 131.37 132.13 130.56 131.31 129.55 131.30 C 128.54 131.29 127.72 132.10 127.71 133.10 Z M 127.70 134.08 L 127.69 135.08 C 127.67 136.08 128.48 136.91 129.49 136.92 C 130.49 136.94 131.32 136.13 131.33 135.13 L 131.35 134.13 C 131.36 133.13 130.55 132.30 129.55 132.29 C 128.54 132.27 127.72 133.08 127.70 134.08 Z M 127.69 135.07 L 127.67 136.07 C 127.65 137.07 128.45 137.90 129.46 137.92 C 130.46 137.94 131.29 137.14 131.31 136.13 L 131.33 135.14 C 131.35 134.13 130.55 133.30 129.54 133.28 C 128.54 133.26 127.71 134.06 127.69 135.07 Z M 127.67 136.05 L 127.64 137.05 C 127.62 138.06 128.41 138.90 129.42 138.92 C 130.42 138.95 131.26 138.15 131.29 137.15 L 131.31 136.15 C 131.34 135.14 130.54 134.30 129.54 134.28 C 128.53 134.25 127.70 135.05 127.67 136.05 Z M 127.64 137.04 L 127.61 138.04 C 127.57 139.05 128.36 139.89 129.37 139.93 C 130.37 139.96 131.22 139.17 131.25 138.17 L 131.29 137.16 C 131.32 136.16 130.53 135.31 129.53 135.28 C 128.52 135.24 127.68 136.03 127.64 137.04 Z M 127.61 138.02 L 127.57 139.03 C 127.52 140.03 128.30 140.88 129.31 140.93 C 130.31 140.97 131.16 140.20 131.21 139.19 L 131.25 138.19 C 131.30 137.18 130.52 136.33 129.51 136.28 C 128.51 136.24 127.65 137.02 127.61 138.02 Z M 127.57 139.01 L 127.51 140.01 C 127.45 141.01 128.22 141.88 129.23 141.93 C 130.23 141.99 131.09 141.22 131.15 140.21 L 131.21 139.21 C 131.26 138.21 130.49 137.34 129.49 137.29 C 128.48 137.23 127.62 138.00 127.57 139.01 Z M 127.51 139.98 L 127.44 140.99 C 127.37 141.99 128.13 142.86 129.13 142.93 C 130.14 143.00 131.01 142.24 131.08 141.24 L 131.15 140.24 C 131.22 139.23 130.46 138.36 129.46 138.29 C 128.45 138.22 127.58 138.98 127.51 139.98 Z M 127.44 140.96 L 127.36 141.94 C 127.27 142.95 128.02 143.83 129.02 143.91 C 130.03 144.00 130.91 143.25 130.99 142.25 L 131.08 141.27 C 131.16 140.26 130.42 139.38 129.41 139.30 C 128.41 139.21 127.53 139.96 127.44 140.96 Z M 127.36 141.92 L 127.27 142.90 C 127.17 143.90 127.90 144.80 128.90 144.89 C 129.91 144.99 130.80 144.26 130.90 143.26 L 130.99 142.27 C 131.09 141.27 130.36 140.38 129.35 140.28 C 128.35 140.18 127.46 140.92 127.36 141.92 Z M 127.27 142.88 L 127.16 143.86 C 127.05 144.87 127.77 145.77 128.77 145.88 C 129.77 145.99 130.68 145.26 130.79 144.26 L 130.89 143.28 C 131.00 142.28 130.28 141.38 129.28 141.27 C 128.28 141.16 127.38 141.88 127.27 142.88 Z M 127.16 143.85 L 127.04 144.83 C 126.92 145.83 127.64 146.74 128.64 146.86 C 129.64 146.98 130.54 146.27 130.66 145.27 L 130.78 144.28 C 130.90 143.28 130.19 142.37 129.19 142.25 C 128.19 142.13 127.28 142.85 127.16 143.85 Z M 127.04 144.82 L 126.92 145.81 C 126.79 146.81 127.49 147.72 128.49 147.85 C 129.49 147.98 130.41 147.27 130.54 146.27 L 130.66 145.28 C 130.79 144.28 130.09 143.37 129.09 143.24 C 128.09 143.11 127.17 143.82 127.04 144.82 Z M 126.92 145.80 L 126.78 146.79 C 126.65 147.79 127.35 148.71 128.35 148.85 C 129.34 148.98 130.26 148.28 130.40 147.28 L 130.53 146.29 C 130.67 145.29 129.97 144.37 128.97 144.23 C 127.97 144.10 127.05 144.80 126.92 145.80 Z M 126.78 146.78 L 126.64 147.79 C 126.50 148.79 127.20 149.71 128.19 149.85 C 129.19 149.99 130.11 149.30 130.26 148.30 L 130.40 147.29 C 130.54 146.30 129.84 145.37 128.85 145.23 C 127.85 145.09 126.93 145.79 126.78 146.78 Z M 126.64 147.78 L 126.50 148.79 C 126.35 149.79 127.04 150.72 128.04 150.86 C 129.04 151.01 129.96 150.31 130.11 149.32 L 130.25 148.31 C 130.40 147.31 129.71 146.38 128.71 146.24 C 127.71 146.09 126.79 146.79 126.64 147.78 Z M 126.50 148.79 L 126.35 149.79 C 126.20 150.79 126.89 151.71 127.89 151.86 C 128.88 152.01 129.81 151.32 129.96 150.32 L 130.11 149.32 C 130.25 148.33 129.57 147.40 128.57 147.25 C 127.57 147.10 126.65 147.79 126.50 148.79 Z M 126.35 149.78 L 126.20 150.79 C 126.05 151.79 126.73 152.72 127.73 152.87 C 128.73 153.02 129.66 152.33 129.81 151.33 L 129.96 150.33 C 130.11 149.33 129.42 148.40 128.43 148.25 C 127.43 148.10 126.50 148.79 126.35 149.78 Z M 126.20 150.79 L 126.05 151.79 C 125.89 152.79 126.58 153.72 127.57 153.87 C 128.57 154.02 129.50 153.34 129.65 152.35 L 129.81 151.34 C 129.96 150.34 129.28 149.41 128.28 149.26 C 127.28 149.11 126.35 149.79 126.20 150.79 Z M 126.05 151.79 L 125.89 152.79 C 125.73 153.79 126.41 154.72 127.41 154.87 C 128.40 155.03 129.34 154.35 129.49 153.35 L 129.65 152.35 C 129.81 151.36 129.13 150.42 128.13 150.27 C 127.13 150.11 126.20 150.79 126.05 151.79 Z M 125.89 152.78 L 125.73 153.78 C 125.57 154.77 126.25 155.71 127.25 155.87 C 128.24 156.03 129.18 155.35 129.33 154.35 L 129.49 153.36 C 129.65 152.36 128.97 151.43 127.98 151.27 C 126.98 151.11 126.05 151.79 125.89 152.78 Z M 125.73 153.77 L 125.57 154.75 C 125.41 155.75 126.08 156.69 127.08 156.85 C 128.07 157.01 129.01 156.34 129.17 155.34 L 129.33 154.36 C 129.50 153.37 128.82 152.43 127.83 152.27 C 126.83 152.10 125.89 152.78 125.73 153.77 Z M 125.57 154.75 L 125.41 155.71 C 125.25 156.71 125.92 157.65 126.91 157.81 C 127.90 157.98 128.84 157.31 129.01 156.31 L 129.17 155.35 C 129.34 154.36 128.67 153.42 127.67 153.25 C 126.68 153.08 125.74 153.75 125.57 154.75 Z M 125.41 155.71 L 125.25 156.65 C 125.08 157.64 125.75 158.59 126.74 158.76 C 127.73 158.93 128.68 158.26 128.85 157.27 L 129.01 156.32 C 129.18 155.33 128.51 154.39 127.52 154.22 C 126.53 154.05 125.58 154.71 125.41 155.71 Z M 125.25 156.64 L 125.07 157.69 C 124.89 158.68 125.56 159.63 126.55 159.80 C 127.54 159.98 128.49 159.32 128.66 158.32 L 128.85 157.27 C 129.02 156.28 128.36 155.34 127.37 155.16 C 126.37 154.99 125.43 155.65 125.25 156.64 Z M 125.07 157.68 L 124.88 158.71 C 124.70 159.70 125.36 160.65 126.35 160.83 C 127.35 161.01 128.29 160.35 128.47 159.36 L 128.66 158.33 C 128.84 157.34 128.18 156.39 127.19 156.21 C 126.20 156.03 125.25 156.69 125.07 157.68 Z M 124.89 158.70 L 124.70 159.70 C 124.52 160.69 125.17 161.64 126.16 161.83 C 127.16 162.01 128.11 161.35 128.29 160.36 L 128.47 159.36 C 128.65 158.37 128.00 157.42 127.01 157.24 C 126.02 157.06 125.07 157.71 124.89 158.70 Z M 124.70 159.70 L 124.52 160.68 C 124.34 161.67 124.99 162.62 125.98 162.80 C 126.97 162.99 127.92 162.33 128.11 161.34 L 128.29 160.37 C 128.47 159.38 127.82 158.42 126.83 158.24 C 125.84 158.06 124.89 158.71 124.70 159.70 Z M 124.52 160.68 L 124.34 161.63 C 124.16 162.62 124.81 163.58 125.80 163.76 C 126.79 163.95 127.74 163.29 127.93 162.30 L 128.11 161.34 C 128.29 160.35 127.64 159.40 126.65 159.22 C 125.66 159.03 124.71 159.69 124.52 160.68 Z M 124.34 161.64 L 124.17 162.58 C 123.98 163.57 124.64 164.52 125.63 164.71 C 126.62 164.89 127.57 164.24 127.75 163.25 L 127.93 162.30 C 128.11 161.31 127.46 160.36 126.47 160.18 C 125.48 159.99 124.53 160.65 124.34 161.64 Z M 124.17 162.59 L 123.99 163.52 C 123.81 164.51 124.47 165.46 125.46 165.64 C 126.45 165.82 127.40 165.17 127.58 164.18 L 127.75 163.24 C 127.93 162.25 127.28 161.30 126.29 161.12 C 125.30 160.94 124.35 161.60 124.17 162.59 Z M 123.99 163.53 L 123.82 164.53 C 123.64 165.52 124.30 166.47 125.29 166.64 C 126.28 166.82 127.23 166.16 127.40 165.17 L 127.58 164.17 C 127.76 163.18 127.10 162.23 126.11 162.05 C 125.12 161.88 124.17 162.54 123.99 163.53 Z M 123.81 164.54 L 123.64 165.54 C 123.47 166.53 124.13 167.48 125.12 167.65 C 126.11 167.82 127.06 167.16 127.23 166.17 L 127.41 165.16 C 127.58 164.17 126.91 163.23 125.92 163.06 C 124.93 162.88 123.99 163.55 123.81 164.54 Z M 123.64 165.55 L 123.47 166.55 C 123.30 167.54 123.96 168.48 124.96 168.65 C 125.95 168.82 126.89 168.15 127.06 167.16 L 127.23 166.16 C 127.40 165.17 126.73 164.23 125.74 164.06 C 124.75 163.89 123.81 164.56 123.64 165.55 Z M 123.47 166.55 L 123.30 167.54 C 123.13 168.53 123.80 169.47 124.79 169.64 C 125.78 169.80 126.72 169.14 126.89 168.15 L 127.06 167.16 C 127.23 166.17 126.56 165.23 125.57 165.06 C 124.58 164.89 123.64 165.56 123.47 166.55 Z M 123.30 167.54 L 123.14 168.51 C 122.97 169.50 123.64 170.44 124.63 170.61 C 125.62 170.78 126.56 170.11 126.73 169.12 L 126.89 168.14 C 127.06 167.15 126.39 166.21 125.40 166.05 C 124.41 165.88 123.47 166.55 123.30 167.54 Z M 123.14 168.51 L 122.97 169.47 C 122.81 170.46 123.47 171.40 124.46 171.57 C 125.45 171.74 126.39 171.07 126.56 170.08 L 126.73 169.12 C 126.89 168.13 126.23 167.19 125.24 167.02 C 124.25 166.85 123.31 167.52 123.14 168.51 Z M 122.98 169.47 L 122.81 170.45 C 122.64 171.44 123.30 172.38 124.29 172.55 C 125.28 172.72 126.22 172.06 126.39 171.07 L 126.56 170.09 C 126.73 169.10 126.07 168.16 125.08 167.99 C 124.09 167.82 123.15 168.48 122.98 169.47 Z M 122.81 170.45 L 122.63 171.48 C 122.46 172.46 123.12 173.41 124.11 173.58 C 125.10 173.75 126.04 173.09 126.21 172.10 L 126.39 171.07 C 126.56 170.08 125.90 169.14 124.91 168.97 C 123.92 168.80 122.98 169.46 122.81 170.45 Z M 122.63 171.47 L 122.45 172.48 C 122.28 173.47 122.94 174.41 123.93 174.58 C 124.92 174.76 125.86 174.10 126.03 173.11 L 126.21 172.10 C 126.38 171.11 125.72 170.17 124.74 170.00 C 123.75 169.83 122.81 170.49 122.63 171.47 Z M 122.46 172.48 L 122.28 173.47 C 122.11 174.46 122.77 175.40 123.75 175.57 C 124.74 175.75 125.68 175.09 125.86 174.10 L 126.03 173.11 C 126.20 172.13 125.55 171.18 124.56 171.01 C 123.57 170.84 122.63 171.49 122.46 172.48 Z M 122.28 173.47 L 122.11 174.44 C 121.94 175.42 122.60 176.36 123.58 176.54 C 124.57 176.71 125.51 176.05 125.68 175.07 L 125.85 174.10 C 126.03 173.11 125.37 172.17 124.38 172.00 C 123.40 171.83 122.46 172.48 122.28 173.47 Z M 122.11 174.44 L 121.95 175.39 C 121.78 176.37 122.44 177.31 123.42 177.48 C 124.41 177.65 125.35 176.99 125.52 176.01 L 125.68 175.06 C 125.85 174.08 125.19 173.14 124.21 172.97 C 123.22 172.80 122.29 173.46 122.11 174.44 Z M 121.95 175.39 L 121.78 176.38 C 121.61 177.37 122.28 178.30 123.26 178.47 C 124.25 178.64 125.18 177.98 125.35 176.99 L 125.52 176.00 C 125.69 175.02 125.02 174.08 124.04 173.91 C 123.05 173.74 122.12 174.41 121.95 175.39 Z M 121.78 176.39 L 121.61 177.44 C 121.45 178.42 122.11 179.35 123.10 179.51 C 124.08 179.68 125.01 179.01 125.17 178.03 L 125.35 176.98 C 125.51 176.00 124.84 175.07 123.86 174.91 C 122.88 174.74 121.95 175.41 121.78 176.39 Z M 121.61 177.45 L 121.45 178.46 C 121.29 179.44 121.96 180.37 122.95 180.52 C 123.93 180.68 124.85 180.01 125.01 179.03 L 125.17 178.02 C 125.33 177.03 124.66 176.11 123.68 175.95 C 122.69 175.80 121.77 176.47 121.61 177.45 Z M 121.45 178.47 L 121.30 179.45 C 121.15 180.43 121.83 181.35 122.81 181.50 C 123.79 181.65 124.71 180.97 124.86 179.99 L 125.01 179.01 C 125.16 178.03 124.48 177.11 123.50 176.97 C 122.52 176.82 121.60 177.49 121.45 178.47 Z M 121.31 179.46 L 121.17 180.40 C 121.03 181.38 121.71 182.29 122.69 182.43 C 123.67 182.57 124.58 181.89 124.72 180.91 L 124.86 179.97 C 125.00 178.99 124.32 178.08 123.34 177.94 C 122.36 177.80 121.45 178.48 121.31 179.46 Z M 121.17 180.42 L 121.05 181.35 C 120.92 182.33 121.61 183.23 122.59 183.36 C 123.57 183.49 124.47 182.81 124.60 181.83 L 124.72 180.89 C 124.85 179.91 124.16 179.01 123.18 178.88 C 122.20 178.75 121.30 179.44 121.17 180.42 Z M 121.05 181.38 L 120.94 182.34 C 120.82 183.32 121.52 184.21 122.50 184.32 C 123.48 184.44 124.36 183.74 124.48 182.76 L 124.60 181.80 C 124.71 180.82 124.01 179.93 123.03 179.82 C 122.05 179.70 121.17 180.40 121.05 181.38 Z M 120.94 182.37 L 120.84 183.33 C 120.74 184.31 121.45 185.18 122.43 185.28 C 123.41 185.38 124.28 184.66 124.38 183.69 L 124.48 182.73 C 124.58 181.75 123.86 180.88 122.89 180.78 C 121.91 180.68 121.04 181.39 120.94 182.37 Z M 120.84 183.36 L 120.76 184.36 C 120.68 185.33 121.41 186.19 122.39 186.27 C 123.36 186.35 124.22 185.62 124.30 184.64 L 124.38 183.65 C 124.46 182.68 123.73 181.82 122.76 181.74 C 121.78 181.66 120.92 182.39 120.84 183.36 Z M 120.77 184.39 L 120.70 185.45 C 120.64 186.42 121.38 187.26 122.35 187.32 C 123.33 187.39 124.17 186.65 124.23 185.67 L 124.29 184.61 C 124.35 183.64 123.61 182.80 122.64 182.74 C 121.67 182.68 120.83 183.42 120.77 184.39 Z M 120.71 185.49 L 120.66 186.59 C 120.62 187.57 121.37 188.39 122.34 188.43 C 123.31 188.47 124.13 187.72 124.17 186.75 L 124.22 185.64 C 124.26 184.67 123.51 183.85 122.54 183.80 C 121.57 183.76 120.75 184.51 120.71 185.49 Z M 120.67 186.66 L 120.66 187.79 C 120.66 188.76 121.44 189.54 122.40 189.55 C 123.37 189.55 124.16 188.77 124.16 187.80 L 124.17 186.68 C 124.17 185.71 123.39 184.92 122.42 184.92 C 121.46 184.92 120.67 185.70 120.67 186.66 Z M 120.67 187.92 L 120.75 188.97 C 120.82 189.93 121.65 190.66 122.61 190.59 C 123.57 190.52 124.29 189.69 124.22 188.73 L 124.15 187.67 C 124.08 186.71 123.25 185.99 122.29 186.06 C 121.33 186.13 120.61 186.96 120.67 187.92 Z M 120.79 189.21 L 120.98 190.11 C 121.18 191.04 122.10 191.64 123.04 191.44 C 123.97 191.24 124.57 190.32 124.37 189.38 L 124.18 188.49 C 123.98 187.55 123.06 186.96 122.12 187.16 C 121.19 187.36 120.59 188.28 120.79 189.21 Z M 121.17 190.57 L 121.53 191.24 C 121.99 192.07 123.04 192.38 123.87 191.92 C 124.70 191.46 125.01 190.42 124.55 189.59 L 124.19 188.92 C 123.73 188.08 122.68 187.78 121.85 188.24 C 121.02 188.69 120.71 189.74 121.17 190.57 Z M 122.32 191.94 L 123.07 192.30 C 123.92 192.70 124.93 192.34 125.33 191.50 C 125.73 190.65 125.37 189.65 124.52 189.25 L 123.77 188.89 C 122.92 188.49 121.92 188.84 121.52 189.69 C 121.12 190.53 121.48 191.54 122.32 191.94 Z M 124.08 192.39 L 125.01 192.23 C 125.91 192.08 126.51 191.23 126.35 190.33 C 126.20 189.44 125.35 188.84 124.46 188.99 L 123.52 189.15 C 122.63 189.31 122.03 190.15 122.18 191.05 C 122.33 191.94 123.18 192.54 124.08 192.39 Z M 125.55 191.98 L 126.50 191.42 C 127.26 190.97 127.51 189.99 127.07 189.23 C 126.62 188.48 125.64 188.22 124.88 188.67 L 123.92 189.24 C 123.17 189.69 122.92 190.66 123.36 191.42 C 123.81 192.18 124.79 192.43 125.55 191.98 Z M 126.79 191.15 L 127.52 190.42 C 128.13 189.82 128.13 188.83 127.52 188.22 C 126.92 187.62 125.94 187.61 125.33 188.22 L 124.60 188.94 C 123.99 189.55 123.99 190.53 124.59 191.14 C 125.20 191.75 126.18 191.75 126.79 191.15 Z M 127.66 190.20 L 128.25 189.38 C 128.73 188.69 128.57 187.74 127.88 187.26 C 127.20 186.77 126.25 186.93 125.76 187.62 L 125.18 188.44 C 124.70 189.13 124.86 190.08 125.54 190.56 C 126.23 191.05 127.18 190.88 127.66 190.20 Z M 128.31 189.21 L 128.80 188.32 C 129.20 187.60 128.93 186.69 128.21 186.30 C 127.49 185.90 126.58 186.16 126.19 186.89 L 125.70 187.78 C 125.30 188.50 125.57 189.41 126.29 189.81 C 127.01 190.20 127.92 189.94 128.31 189.21 Z M 128.83 188.20 L 129.24 187.30 C 129.57 186.56 129.24 185.69 128.51 185.36 C 127.77 185.03 126.91 185.36 126.57 186.09 L 126.16 187.00 C 125.83 187.74 126.16 188.60 126.89 188.93 C 127.63 189.27 128.49 188.94 128.83 188.20 Z M 129.24 187.22 L 129.62 186.26 C 129.92 185.52 129.55 184.68 128.82 184.39 C 128.08 184.10 127.24 184.46 126.95 185.20 L 126.57 186.16 C 126.28 186.90 126.64 187.74 127.38 188.03 C 128.12 188.32 128.95 187.96 129.24 187.22 Z M 129.64 186.20 L 129.97 185.24 C 130.24 184.50 129.84 183.68 129.10 183.42 C 128.35 183.16 127.53 183.55 127.27 184.30 L 126.94 185.26 C 126.67 186.00 127.07 186.82 127.81 187.08 C 128.56 187.34 129.38 186.95 129.64 186.20 Z M 129.99 185.19 L 130.27 184.27 C 130.51 183.51 130.08 182.71 129.33 182.48 C 128.57 182.25 127.78 182.67 127.54 183.42 L 127.26 184.35 C 127.03 185.10 127.45 185.90 128.20 186.13 C 128.96 186.37 129.76 185.94 129.99 185.19 Z M 130.28 184.22 L 130.54 183.30 C 130.75 182.54 130.30 181.76 129.54 181.55 C 128.78 181.34 128.00 181.78 127.79 182.54 L 127.53 183.47 C 127.32 184.23 127.77 185.01 128.53 185.22 C 129.29 185.43 130.07 184.98 130.28 184.22 Z M 130.54 183.27 L 130.79 182.32 C 130.98 181.56 130.52 180.78 129.75 180.59 C 128.99 180.40 128.22 180.86 128.02 181.62 L 127.78 182.57 C 127.59 183.33 128.05 184.11 128.81 184.30 C 129.57 184.50 130.35 184.04 130.54 183.27 Z M 130.79 182.30 L 131.02 181.33 C 131.21 180.56 130.74 179.79 129.97 179.61 C 129.21 179.43 128.44 179.90 128.25 180.66 L 128.02 181.64 C 127.83 182.40 128.31 183.17 129.07 183.36 C 129.84 183.54 130.61 183.07 130.79 182.30 Z M 131.03 181.32 L 131.26 180.33 C 131.43 179.57 130.96 178.80 130.19 178.62 C 129.43 178.44 128.66 178.92 128.48 179.69 L 128.25 180.67 C 128.07 181.44 128.55 182.21 129.31 182.38 C 130.08 182.56 130.85 182.09 131.03 181.32 Z M 131.26 180.33 L 131.34 179.97 C 131.52 179.20 131.04 178.43 130.27 178.26 C 129.51 178.08 128.74 178.56 128.56 179.33 L 128.48 179.69 C 128.30 180.46 128.78 181.22 129.55 181.40 C 130.31 181.58 131.08 181.10 131.26 180.33 Z"
      fill="black"
      fill-rule="nonzero" /><path d="M 125.76 141.59 L 126.67 142.08 C 127.42 142.50 128.37 142.22 128.78 141.47 C 129.20 140.72 128.92 139.77 128.17 139.36 L 127.26 138.86 C 126.51 138.44 125.56 138.72 125.15 139.47 C 124.73 140.23 125.01 141.17 125.76 141.59 Z M 126.67 142.10 L 127.57 142.59 C 128.33 143.01 129.28 142.73 129.70 141.97 C 130.11 141.20 129.83 140.25 129.07 139.83 L 128.17 139.34 C 127.41 138.93 126.45 139.21 126.04 139.97 C 125.62 140.73 125.90 141.68 126.67 142.10 Z M 127.57 142.61 L 128.46 143.09 C 129.23 143.51 130.19 143.22 130.61 142.45 C 131.02 141.68 130.74 140.71 129.97 140.30 L 129.07 139.82 C 128.30 139.40 127.34 139.69 126.92 140.46 C 126.51 141.23 126.80 142.19 127.57 142.61 Z M 128.47 143.11 L 129.35 143.58 C 130.13 143.99 131.10 143.69 131.51 142.91 C 131.92 142.13 131.62 141.16 130.84 140.74 L 129.96 140.28 C 129.18 139.87 128.21 140.16 127.80 140.95 C 127.38 141.73 127.68 142.70 128.47 143.11 Z M 129.36 143.60 L 130.22 144.04 C 131.02 144.45 131.99 144.14 132.40 143.34 C 132.81 142.55 132.49 141.57 131.70 141.17 L 130.83 140.72 C 130.04 140.31 129.06 140.63 128.66 141.42 C 128.25 142.22 128.56 143.19 129.36 143.60 Z M 130.24 144.06 L 131.10 144.49 C 131.91 144.89 132.89 144.56 133.28 143.75 C 133.68 142.95 133.35 141.97 132.54 141.57 L 131.68 141.14 C 130.87 140.75 129.90 141.08 129.50 141.88 C 129.10 142.69 129.43 143.67 130.24 144.06 Z M 131.14 144.50 L 132.07 144.94 C 132.88 145.32 133.85 144.97 134.23 144.16 C 134.61 143.34 134.26 142.38 133.45 142.00 L 132.51 141.56 C 131.70 141.18 130.73 141.53 130.36 142.34 C 129.98 143.15 130.33 144.12 131.14 144.50 Z M 132.12 144.93 L 133.03 145.34 C 133.84 145.69 134.79 145.32 135.14 144.51 C 135.50 143.70 135.13 142.76 134.32 142.40 L 133.40 142.00 C 132.59 141.65 131.65 142.02 131.29 142.83 C 130.94 143.64 131.31 144.58 132.12 144.93 Z M 133.08 145.33 L 134.00 145.70 C 134.80 146.03 135.73 145.64 136.05 144.83 C 136.38 144.03 135.99 143.10 135.18 142.78 L 134.27 142.41 C 133.46 142.08 132.54 142.47 132.21 143.28 C 131.88 144.08 132.27 145.01 133.08 145.33 Z M 134.04 145.70 L 134.96 146.04 C 135.77 146.34 136.67 145.93 136.97 145.13 C 137.27 144.32 136.86 143.42 136.05 143.12 L 135.13 142.78 C 134.33 142.48 133.43 142.89 133.13 143.70 C 132.83 144.50 133.24 145.40 134.04 145.70 Z M 135.01 146.04 L 135.95 146.36 C 136.76 146.63 137.63 146.20 137.90 145.40 C 138.18 144.59 137.75 143.72 136.94 143.45 L 136.00 143.13 C 135.20 142.85 134.33 143.28 134.05 144.09 C 133.78 144.89 134.21 145.77 135.01 146.04 Z M 136.00 146.35 L 136.92 146.64 C 137.73 146.89 138.58 146.44 138.83 145.64 C 139.07 144.83 138.62 143.98 137.82 143.73 L 136.90 143.45 C 136.09 143.20 135.24 143.65 134.99 144.45 C 134.75 145.25 135.19 146.11 136.00 146.35 Z M 136.97 146.64 L 137.92 146.91 C 138.72 147.13 139.55 146.66 139.78 145.86 C 140.00 145.06 139.53 144.23 138.73 144.00 L 137.78 143.74 C 136.98 143.51 136.15 143.98 135.92 144.78 C 135.70 145.58 136.16 146.41 136.97 146.64 Z M 137.96 146.90 L 138.93 147.15 C 139.73 147.35 140.54 146.86 140.74 146.06 C 140.95 145.26 140.46 144.45 139.66 144.25 L 138.69 144.00 C 137.89 143.80 137.08 144.29 136.87 145.09 C 136.67 145.89 137.16 146.70 137.96 146.90 Z M 138.97 147.14 L 139.96 147.36 C 140.76 147.54 141.55 147.04 141.73 146.24 C 141.91 145.44 141.40 144.65 140.61 144.47 L 139.62 144.25 C 138.82 144.07 138.03 144.58 137.85 145.37 C 137.67 146.17 138.17 146.97 138.97 147.14 Z M 140.00 147.36 L 141.00 147.56 C 141.80 147.71 142.57 147.19 142.73 146.40 C 142.88 145.60 142.36 144.83 141.57 144.67 L 140.56 144.48 C 139.77 144.32 139.00 144.84 138.84 145.64 C 138.69 146.43 139.21 147.20 140.00 147.36 Z M 141.04 147.55 L 142.03 147.72 C 142.83 147.85 143.58 147.31 143.71 146.52 C 143.85 145.73 143.31 144.97 142.51 144.84 L 141.52 144.68 C 140.73 144.54 139.98 145.08 139.85 145.87 C 139.71 146.67 140.25 147.42 141.04 147.55 Z M 142.07 147.72 L 143.06 147.86 C 143.85 147.97 144.58 147.42 144.70 146.62 C 144.81 145.83 144.26 145.10 143.47 144.98 L 142.48 144.84 C 141.69 144.73 140.95 145.28 140.84 146.07 C 140.73 146.87 141.28 147.60 142.07 147.72 Z M 143.08 147.85 L 144.07 147.98 C 144.87 148.07 145.59 147.51 145.69 146.72 C 145.78 145.93 145.22 145.20 144.43 145.11 L 143.44 144.98 C 142.64 144.89 141.92 145.45 141.83 146.24 C 141.73 147.04 142.29 147.76 143.08 147.85 Z M 144.10 147.97 L 145.09 148.08 C 145.88 148.17 146.59 147.60 146.68 146.81 C 146.77 146.02 146.20 145.31 145.40 145.22 L 144.41 145.11 C 143.62 145.02 142.91 145.59 142.82 146.39 C 142.73 147.18 143.30 147.89 144.10 147.97 Z M 145.10 148.08 L 146.10 148.18 C 146.89 148.26 147.60 147.68 147.67 146.89 C 147.75 146.11 147.18 145.40 146.39 145.32 L 145.39 145.22 C 144.60 145.14 143.90 145.72 143.82 146.51 C 143.74 147.30 144.32 148.00 145.10 148.08 Z M 146.11 148.17 L 147.01 148.26 C 147.80 148.34 148.50 147.76 148.57 146.97 C 148.65 146.19 148.07 145.49 147.29 145.41 L 146.38 145.33 C 145.60 145.25 144.90 145.83 144.82 146.61 C 144.75 147.40 145.32 148.10 146.11 148.17 Z"
      fill="black"
      fill-rule="nonzero" /><path d="M 163.77 96.74 L 163.16 97.49 C 162.60 98.17 162.70 99.18 163.39 99.74 C 164.07 100.30 165.08 100.20 165.64 99.51 L 166.25 98.77 C 166.81 98.09 166.71 97.08 166.02 96.52 C 165.34 95.96 164.33 96.06 163.77 96.74 Z M 163.12 97.48 L 162.52 98.24 C 161.96 98.94 162.07 99.97 162.78 100.54 C 163.48 101.10 164.51 100.98 165.07 100.28 L 165.68 99.52 C 166.24 98.81 166.13 97.79 165.42 97.22 C 164.72 96.66 163.69 96.78 163.12 97.48 Z M 162.47 98.25 L 161.87 99.04 C 161.32 99.77 161.46 100.82 162.19 101.37 C 162.92 101.93 163.97 101.79 164.52 101.05 L 165.12 100.27 C 165.68 99.53 165.54 98.49 164.80 97.93 C 164.07 97.38 163.03 97.52 162.47 98.25 Z M 161.81 99.07 L 161.22 99.90 C 160.68 100.66 160.86 101.72 161.63 102.26 C 162.39 102.80 163.45 102.62 164.00 101.86 L 164.58 101.03 C 165.13 100.26 164.94 99.20 164.18 98.66 C 163.41 98.12 162.35 98.30 161.81 99.07 Z M 161.16 99.94 L 160.58 100.83 C 160.06 101.63 160.29 102.70 161.09 103.22 C 161.90 103.74 162.97 103.51 163.49 102.71 L 164.06 101.82 C 164.58 101.01 164.35 99.94 163.55 99.43 C 162.75 98.91 161.68 99.14 161.16 99.94 Z M 160.53 100.88 L 160.02 101.74 C 159.54 102.57 159.81 103.64 160.65 104.13 C 161.48 104.62 162.55 104.34 163.03 103.51 L 163.54 102.65 C 164.03 101.82 163.75 100.75 162.92 100.26 C 162.09 99.78 161.02 100.05 160.53 100.88 Z M 160.00 101.79 L 159.51 102.69 C 159.05 103.54 159.36 104.60 160.21 105.06 C 161.05 105.52 162.11 105.20 162.57 104.36 L 163.06 103.46 C 163.52 102.62 163.21 101.56 162.36 101.09 C 161.52 100.63 160.46 100.95 160.00 101.79 Z M 159.49 102.73 L 159.02 103.64 C 158.58 104.50 158.92 105.55 159.77 105.99 C 160.63 106.43 161.68 106.09 162.12 105.23 L 162.59 104.32 C 163.03 103.46 162.70 102.41 161.84 101.97 C 160.98 101.53 159.93 101.87 159.49 102.73 Z M 159.01 103.67 L 158.56 104.57 C 158.13 105.44 158.49 106.49 159.35 106.91 C 160.22 107.34 161.26 106.98 161.69 106.12 L 162.14 105.21 C 162.56 104.34 162.21 103.30 161.34 102.87 C 160.48 102.44 159.43 102.80 159.01 103.67 Z M 158.55 104.59 L 158.13 105.47 C 157.71 106.34 158.08 107.39 158.95 107.80 C 159.82 108.22 160.86 107.85 161.28 106.98 L 161.70 106.10 C 162.12 105.23 161.75 104.19 160.88 103.77 C 160.01 103.35 158.97 103.72 158.55 104.59 Z M 158.12 105.48 L 157.69 106.41 C 157.28 107.28 157.65 108.32 158.52 108.73 C 159.39 109.14 160.43 108.77 160.85 107.90 L 161.28 106.97 C 161.69 106.10 161.32 105.06 160.45 104.65 C 159.58 104.24 158.54 104.61 158.12 105.48 Z M 157.69 106.41 L 157.24 107.38 C 156.83 108.25 157.20 109.29 158.08 109.70 C 158.95 110.11 159.99 109.73 160.39 108.86 L 160.85 107.89 C 161.25 107.02 160.88 105.98 160.01 105.57 C 159.13 105.16 158.10 105.54 157.69 106.41 Z M 157.23 107.39 L 156.82 108.29 C 156.41 109.16 156.79 110.20 157.67 110.60 C 158.54 111.01 159.57 110.63 159.98 109.75 L 160.39 108.85 C 160.80 107.98 160.42 106.94 159.55 106.54 C 158.67 106.13 157.64 106.51 157.23 107.39 Z M 156.81 108.30 L 156.42 109.17 C 156.02 110.04 156.41 111.07 157.28 111.47 C 158.16 111.87 159.19 111.48 159.59 110.61 L 159.98 109.74 C 160.38 108.87 159.99 107.84 159.12 107.44 C 158.24 107.04 157.21 107.43 156.81 108.30 Z M 156.42 109.18 L 156.04 110.03 C 155.65 110.91 156.04 111.94 156.92 112.32 C 157.80 112.71 158.82 112.32 159.21 111.44 L 159.59 110.59 C 159.98 109.72 159.58 108.69 158.71 108.30 C 157.83 107.91 156.81 108.31 156.42 109.18 Z M 156.04 110.05 L 155.64 110.95 C 155.26 111.83 155.67 112.85 156.55 113.23 C 157.42 113.61 158.44 113.21 158.82 112.33 L 159.22 111.43 C 159.60 110.55 159.19 109.53 158.31 109.15 C 157.44 108.77 156.42 109.17 156.04 110.05 Z M 155.64 110.97 L 155.26 111.88 C 154.88 112.76 155.29 113.77 156.17 114.15 C 157.05 114.52 158.06 114.11 158.44 113.23 L 158.83 112.32 C 159.20 111.44 158.79 110.42 157.91 110.05 C 157.03 109.68 156.02 110.09 155.64 110.97 Z M 155.26 111.89 L 154.87 112.81 C 154.50 113.69 154.91 114.70 155.79 115.07 C 156.67 115.44 157.68 115.02 158.05 114.15 L 158.44 113.22 C 158.80 112.34 158.39 111.33 157.51 110.96 C 156.63 110.60 155.62 111.01 155.26 111.89 Z M 154.87 112.82 L 154.48 113.76 C 154.12 114.63 154.53 115.64 155.41 116.00 C 156.28 116.37 157.29 115.95 157.66 115.08 L 158.05 114.14 C 158.41 113.26 158.00 112.26 157.12 111.89 C 156.24 111.53 155.24 111.94 154.87 112.82 Z M 154.49 113.76 L 154.10 114.67 C 153.74 115.55 154.15 116.55 155.03 116.91 C 155.90 117.28 156.91 116.87 157.27 115.99 L 157.65 115.08 C 158.02 114.20 157.60 113.20 156.73 112.83 C 155.85 112.47 154.85 112.88 154.49 113.76 Z M 154.11 114.67 L 153.73 115.59 C 153.36 116.46 153.77 117.46 154.64 117.83 C 155.52 118.19 156.52 117.78 156.88 116.91 L 157.26 115.99 C 157.63 115.12 157.22 114.12 156.35 113.76 C 155.48 113.39 154.47 113.80 154.11 114.67 Z M 153.73 115.59 L 153.35 116.52 C 152.98 117.38 153.39 118.38 154.26 118.74 C 155.13 119.11 156.12 118.70 156.49 117.83 L 156.87 116.91 C 157.24 116.04 156.83 115.04 155.96 114.68 C 155.09 114.32 154.10 114.73 153.73 115.59 Z M 153.35 116.52 L 152.96 117.45 C 152.60 118.31 153.01 119.31 153.87 119.67 C 154.73 120.03 155.73 119.62 156.09 118.76 L 156.48 117.83 C 156.84 116.97 156.44 115.97 155.57 115.61 C 154.71 115.25 153.71 115.66 153.35 116.52 Z M 152.97 117.45 L 152.58 118.39 C 152.22 119.25 152.62 120.24 153.48 120.60 C 154.34 120.96 155.33 120.55 155.69 119.69 L 156.08 118.76 C 156.44 117.90 156.04 116.91 155.18 116.55 C 154.32 116.19 153.33 116.59 152.97 117.45 Z M 152.58 118.39 L 152.19 119.32 C 151.84 120.18 152.24 121.16 153.10 121.52 C 153.95 121.88 154.94 121.48 155.29 120.62 L 155.69 119.69 C 156.04 118.83 155.64 117.85 154.78 117.49 C 153.93 117.13 152.94 117.53 152.58 118.39 Z M 152.20 119.33 L 151.81 120.26 C 151.46 121.11 151.86 122.09 152.72 122.44 C 153.57 122.80 154.55 122.39 154.90 121.54 L 155.29 120.61 C 155.64 119.76 155.24 118.78 154.39 118.43 C 153.53 118.07 152.55 118.48 152.20 119.33 Z M 151.82 120.27 L 151.44 121.19 C 151.09 122.04 151.50 123.01 152.35 123.36 C 153.20 123.71 154.17 123.30 154.52 122.45 L 154.90 121.53 C 155.25 120.68 154.84 119.71 153.99 119.36 C 153.14 119.01 152.17 119.42 151.82 120.27 Z M 151.45 121.20 L 151.08 122.11 C 150.73 122.96 151.14 123.92 151.99 124.27 C 152.84 124.61 153.80 124.20 154.15 123.35 L 154.51 122.44 C 154.86 121.59 154.45 120.63 153.60 120.29 C 152.75 119.94 151.79 120.35 151.45 121.20 Z M 151.08 122.13 L 150.70 123.10 C 150.37 123.94 150.78 124.90 151.62 125.23 C 152.47 125.57 153.42 125.15 153.76 124.31 L 154.14 123.34 C 154.47 122.49 154.06 121.54 153.22 121.20 C 152.37 120.87 151.42 121.28 151.08 122.13 Z M 150.70 123.12 L 150.34 124.07 C 150.02 124.91 150.44 125.85 151.28 126.18 C 152.12 126.50 153.06 126.08 153.39 125.24 L 153.75 124.29 C 154.08 123.45 153.66 122.50 152.81 122.18 C 151.97 121.85 151.03 122.28 150.70 123.12 Z M 150.35 124.09 L 150.00 125.01 C 149.69 125.85 150.12 126.78 150.95 127.10 C 151.79 127.41 152.73 126.98 153.04 126.14 L 153.38 125.22 C 153.69 124.38 153.27 123.45 152.43 123.13 C 151.59 122.82 150.66 123.25 150.35 124.09 Z M 150.01 125.03 L 149.68 125.93 C 149.38 126.77 149.82 127.69 150.65 127.99 C 151.49 128.29 152.41 127.86 152.71 127.02 L 153.03 126.12 C 153.33 125.29 152.90 124.36 152.06 124.06 C 151.23 123.76 150.31 124.20 150.01 125.03 Z M 149.69 125.96 L 149.38 126.86 C 149.09 127.69 149.54 128.60 150.37 128.88 C 151.20 129.17 152.11 128.73 152.40 127.89 L 152.71 126.99 C 152.99 126.16 152.55 125.25 151.72 124.97 C 150.88 124.68 149.97 125.12 149.69 125.96 Z M 149.38 126.89 L 149.09 127.80 C 148.82 128.63 149.28 129.52 150.11 129.79 C 150.94 130.06 151.83 129.60 152.10 128.77 L 152.39 127.86 C 152.66 127.03 152.20 126.14 151.37 125.87 C 150.54 125.60 149.65 126.06 149.38 126.89 Z M 149.09 127.84 L 148.81 128.80 C 148.56 129.63 149.04 130.50 149.87 130.75 C 150.70 130.99 151.57 130.52 151.81 129.69 L 152.10 128.73 C 152.34 127.90 151.87 127.03 151.04 126.78 C 150.21 126.54 149.34 127.01 149.09 127.84 Z M 148.81 128.84 L 148.53 129.90 C 148.30 130.73 148.79 131.58 149.62 131.80 C 150.45 132.02 151.30 131.53 151.53 130.71 L 151.81 129.65 C 152.03 128.82 151.54 127.97 150.71 127.75 C 149.89 127.52 149.03 128.01 148.81 128.84 Z M 148.53 129.94 L 148.26 131.07 C 148.06 131.90 148.57 132.73 149.39 132.93 C 150.22 133.13 151.05 132.62 151.25 131.80 L 151.52 130.66 C 151.72 129.83 151.21 129.00 150.39 128.80 C 149.56 128.60 148.73 129.11 148.53 129.94 Z M 148.25 131.15 L 148.04 132.27 C 147.88 133.10 148.42 133.90 149.25 134.06 C 150.08 134.21 150.88 133.67 151.04 132.84 L 151.25 131.72 C 151.41 130.89 150.87 130.09 150.04 129.93 C 149.21 129.77 148.41 130.32 148.25 131.15 Z M 148.03 132.41 L 147.94 133.38 C 147.86 134.21 148.47 134.95 149.30 135.03 C 150.13 135.11 150.87 134.50 150.95 133.67 L 151.05 132.70 C 151.13 131.87 150.52 131.13 149.69 131.05 C 148.85 130.96 148.11 131.58 148.03 132.41 Z M 147.96 133.73 L 148.05 134.41 C 148.17 135.23 148.93 135.81 149.75 135.69 C 150.57 135.58 151.14 134.82 151.03 134.00 L 150.93 133.31 C 150.82 132.49 150.06 131.92 149.24 132.03 C 148.42 132.15 147.84 132.91 147.96 133.73 Z M 148.91 135.55 L 149.53 135.84 C 150.27 136.18 151.15 135.87 151.50 135.12 C 151.85 134.38 151.53 133.50 150.79 133.15 L 150.17 132.86 C 149.43 132.51 148.55 132.83 148.20 133.57 C 147.85 134.32 148.17 135.20 148.91 135.55 Z M 150.66 135.86 L 151.66 135.49 C 152.41 135.21 152.80 134.38 152.52 133.62 C 152.24 132.87 151.41 132.49 150.65 132.76 L 149.66 133.13 C 148.90 133.41 148.52 134.24 148.79 135.00 C 149.07 135.75 149.91 136.14 150.66 135.86 Z M 151.81 135.40 L 152.30 135.15 C 153.01 134.78 153.28 133.92 152.92 133.22 C 152.56 132.51 151.70 132.24 150.99 132.60 L 150.50 132.85 C 149.80 133.21 149.52 134.08 149.88 134.78 C 150.24 135.49 151.11 135.76 151.81 135.40 Z"
      fill="black"
      fill-rule="nonzero" /><path d="M 174.68 110.66 L 175.53 111.18 C 176.23 111.61 177.14 111.40 177.57 110.70 C 178.00 110.01 177.78 109.10 177.09 108.67 L 176.24 108.14 C 175.54 107.71 174.63 107.93 174.20 108.62 C 173.77 109.32 173.99 110.23 174.68 110.66 Z M 175.53 111.18 L 176.38 111.71 C 177.08 112.14 177.99 111.92 178.42 111.23 C 178.85 110.54 178.63 109.63 177.94 109.20 L 177.09 108.67 C 176.39 108.24 175.48 108.45 175.05 109.15 C 174.63 109.84 174.84 110.75 175.53 111.18 Z M 176.38 111.71 L 177.23 112.23 C 177.93 112.66 178.84 112.45 179.27 111.76 C 179.70 111.06 179.48 110.15 178.79 109.72 L 177.94 109.20 C 177.24 108.77 176.33 108.98 175.90 109.67 C 175.48 110.37 175.69 111.28 176.38 111.71 Z M 177.23 112.23 L 177.46 112.37 C 178.15 112.80 179.07 112.59 179.49 111.90 C 179.92 111.20 179.71 110.29 179.02 109.86 L 178.79 109.72 C 178.10 109.29 177.18 109.51 176.76 110.20 C 176.33 110.89 176.54 111.80 177.23 112.23 Z"
      fill="black"
      fill-rule="nonzero" /><path d="M 156.06 131.27 L 155.92 132.29 C 155.80 133.14 156.39 133.92 157.24 134.04 C 158.09 134.16 158.87 133.57 158.99 132.72 L 159.14 131.71 C 159.26 130.86 158.67 130.08 157.82 129.96 C 156.97 129.83 156.18 130.43 156.06 131.27 Z M 155.91 132.30 L 155.77 133.30 C 155.66 134.15 156.26 134.94 157.11 135.06 C 157.97 135.17 158.75 134.57 158.87 133.72 L 159.00 132.71 C 159.12 131.86 158.52 131.07 157.67 130.96 C 156.81 130.84 156.03 131.44 155.91 132.30 Z M 155.76 133.32 L 155.64 134.30 C 155.54 135.16 156.15 135.94 157.01 136.05 C 157.87 136.15 158.66 135.54 158.76 134.68 L 158.88 133.70 C 158.99 132.84 158.37 132.05 157.51 131.95 C 156.65 131.85 155.87 132.46 155.76 133.32 Z M 155.63 134.33 L 155.53 135.32 C 155.45 136.19 156.08 136.96 156.95 137.05 C 157.82 137.14 158.59 136.50 158.68 135.63 L 158.77 134.65 C 158.86 133.78 158.23 133.00 157.36 132.92 C 156.49 132.83 155.72 133.47 155.63 134.33 Z M 155.52 135.36 L 155.45 136.38 C 155.38 137.26 156.04 138.02 156.92 138.08 C 157.79 138.14 158.56 137.48 158.62 136.61 L 158.69 135.59 C 158.75 134.71 158.09 133.95 157.22 133.89 C 156.34 133.83 155.58 134.49 155.52 135.36 Z M 155.43 136.42 L 155.39 137.41 C 155.35 138.29 156.03 139.04 156.91 139.08 C 157.80 139.12 158.55 138.44 158.59 137.55 L 158.63 136.57 C 158.67 135.68 157.99 134.93 157.11 134.89 C 156.22 134.85 155.47 135.54 155.43 136.42 Z M 155.37 137.44 L 155.35 138.41 C 155.32 139.30 156.03 140.04 156.92 140.07 C 157.81 140.09 158.55 139.39 158.57 138.50 L 158.60 137.52 C 158.62 136.63 157.92 135.89 157.03 135.87 C 156.14 135.84 155.40 136.55 155.37 137.44 Z M 155.34 138.43 L 155.33 139.40 C 155.32 140.30 156.03 141.03 156.93 141.04 C 157.82 141.05 158.55 140.34 158.57 139.45 L 158.58 138.47 C 158.59 137.58 157.88 136.85 156.98 136.83 C 156.09 136.82 155.35 137.54 155.34 138.43 Z M 155.33 139.42 L 155.33 140.41 C 155.32 141.31 156.05 142.03 156.95 142.04 C 157.84 142.04 158.57 141.31 158.57 140.42 L 158.57 139.42 C 158.57 138.53 157.84 137.80 156.95 137.80 C 156.05 137.80 155.33 138.53 155.33 139.42 Z M 155.32 140.43 L 155.33 141.46 C 155.35 142.36 156.08 143.08 156.98 143.07 C 157.87 143.06 158.59 142.32 158.58 141.43 L 158.57 140.40 C 158.56 139.50 157.82 138.78 156.93 138.79 C 156.03 138.80 155.31 139.54 155.32 140.43 Z M 155.34 141.49 L 155.36 142.53 C 155.39 143.42 156.13 144.13 157.03 144.10 C 157.92 144.08 158.63 143.34 158.61 142.44 L 158.58 141.40 C 158.56 140.50 157.81 139.80 156.91 139.82 C 156.02 139.85 155.31 140.59 155.34 141.49 Z M 155.37 142.61 L 155.45 143.64 C 155.52 144.53 156.31 145.20 157.20 145.13 C 158.09 145.06 158.75 144.28 158.68 143.38 L 158.60 142.35 C 158.53 141.46 157.75 140.80 156.86 140.87 C 155.96 140.94 155.30 141.72 155.37 142.61 Z M 155.48 143.83 L 155.67 144.79 C 155.85 145.67 156.70 146.24 157.58 146.06 C 158.45 145.89 159.02 145.04 158.85 144.16 L 158.65 143.20 C 158.48 142.32 157.63 141.75 156.75 141.93 C 155.87 142.10 155.31 142.95 155.48 143.83 Z M 155.79 145.15 L 156.22 146.09 C 156.59 146.90 157.55 147.26 158.36 146.89 C 159.17 146.52 159.53 145.56 159.16 144.75 L 158.73 143.81 C 158.36 143.00 157.40 142.64 156.59 143.01 C 155.78 143.38 155.42 144.34 155.79 145.15 Z M 156.58 146.57 L 157.35 147.32 C 157.99 147.94 159.00 147.93 159.62 147.29 C 160.23 146.66 160.22 145.64 159.59 145.03 L 158.81 144.27 C 158.17 143.66 157.16 143.67 156.54 144.30 C 155.93 144.94 155.94 145.95 156.58 146.57 Z M 158.27 147.75 L 159.03 147.85 C 159.90 147.96 160.69 147.35 160.80 146.48 C 160.92 145.61 160.30 144.82 159.44 144.70 L 158.67 144.61 C 157.81 144.49 157.01 145.11 156.90 145.97 C 156.79 146.84 157.40 147.63 158.27 147.75 Z M 160.47 147.23 L 160.93 146.64 C 161.46 145.96 161.33 144.97 160.65 144.44 C 159.96 143.91 158.98 144.04 158.45 144.72 L 157.99 145.32 C 157.46 146.00 157.59 146.99 158.27 147.52 C 158.96 148.05 159.94 147.92 160.47 147.23 Z M 161.20 146.05 L 161.45 145.01 C 161.65 144.18 161.14 143.34 160.30 143.14 C 159.46 142.94 158.62 143.45 158.42 144.29 L 158.17 145.32 C 157.97 146.16 158.49 147.00 159.33 147.20 C 160.16 147.40 161.00 146.88 161.20 146.05 Z M 161.48 144.81 L 161.59 143.67 C 161.68 142.82 161.06 142.06 160.21 141.97 C 159.35 141.89 158.59 142.51 158.51 143.36 L 158.39 144.50 C 158.31 145.35 158.93 146.11 159.78 146.19 C 160.63 146.28 161.39 145.66 161.48 144.81 Z M 161.60 143.59 L 161.65 142.58 C 161.69 141.72 161.03 141.00 160.17 140.96 C 159.32 140.92 158.59 141.58 158.55 142.43 L 158.50 143.44 C 158.46 144.30 159.12 145.02 159.98 145.06 C 160.83 145.10 161.56 144.44 161.60 143.59 Z M 161.65 142.53 L 161.67 141.54 C 161.68 140.68 161.00 139.97 160.14 139.96 C 159.28 139.94 158.57 140.63 158.56 141.49 L 158.54 142.48 C 158.53 143.34 159.21 144.05 160.07 144.06 C 160.93 144.07 161.64 143.39 161.65 142.53 Z M 161.68 141.52 L 161.68 140.53 C 161.68 139.67 160.98 138.97 160.12 138.97 C 159.25 138.97 158.55 139.67 158.55 140.53 L 158.55 141.51 C 158.55 142.37 159.25 143.07 160.11 143.08 C 160.97 143.08 161.67 142.38 161.68 141.52 Z M 161.68 140.53 L 161.68 139.55 C 161.68 138.69 160.98 137.98 160.11 137.98 C 159.25 137.98 158.55 138.69 158.55 139.55 L 158.55 140.53 C 158.55 141.40 159.25 142.10 160.11 142.10 C 160.98 142.10 161.68 141.40 161.68 140.53 Z M 161.69 139.55 L 161.69 138.56 C 161.69 137.68 160.99 136.98 160.11 136.98 C 159.24 136.98 158.54 137.68 158.54 138.56 L 158.54 139.55 C 158.54 140.42 159.24 141.13 160.11 141.13 C 160.99 141.13 161.69 140.42 161.69 139.55 Z M 161.70 138.56 L 161.70 137.53 C 161.70 136.65 160.99 135.94 160.11 135.94 C 159.24 135.94 158.53 136.65 158.53 137.53 L 158.53 138.56 C 158.53 139.43 159.24 140.14 160.11 140.14 C 160.99 140.14 161.70 139.43 161.70 138.56 Z M 161.71 137.53 L 161.71 136.56 C 161.71 135.68 161.00 134.97 160.12 134.97 C 159.24 134.97 158.52 135.68 158.52 136.56 L 158.52 137.53 C 158.52 138.41 159.23 139.12 160.11 139.12 C 160.99 139.12 161.71 138.41 161.71 137.53 Z M 161.71 136.57 L 161.72 135.57 C 161.72 134.69 161.01 133.97 160.13 133.96 C 159.24 133.96 158.52 134.67 158.52 135.56 L 158.52 136.56 C 158.51 137.44 159.23 138.16 160.11 138.16 C 160.99 138.16 161.71 137.45 161.71 136.57 Z M 161.72 135.58 L 161.73 134.56 C 161.74 133.67 161.03 132.94 160.15 132.93 C 159.26 132.93 158.54 133.64 158.53 134.52 L 158.52 135.55 C 158.51 136.43 159.22 137.16 160.10 137.17 C 160.99 137.18 161.71 136.46 161.72 135.58 Z M 161.74 134.57 L 161.76 133.56 C 161.78 132.67 161.07 131.93 160.18 131.91 C 159.30 131.90 158.56 132.60 158.54 133.49 L 158.52 134.50 C 158.50 135.39 159.21 136.13 160.10 136.15 C 160.98 136.17 161.72 135.46 161.74 134.57 Z M 161.76 133.63 L 161.83 132.63 C 161.89 131.74 161.21 130.97 160.32 130.91 C 159.43 130.85 158.67 131.53 158.61 132.42 L 158.54 133.42 C 158.48 134.31 159.16 135.07 160.04 135.13 C 160.93 135.19 161.70 134.52 161.76 133.63 Z M 161.81 132.80 L 161.98 131.82 C 162.13 130.94 161.54 130.10 160.66 129.95 C 159.78 129.80 158.94 130.39 158.79 131.27 L 158.62 132.25 C 158.47 133.13 159.06 133.97 159.94 134.12 C 160.82 134.27 161.66 133.68 161.81 132.80 Z M 161.92 132.08 L 162.24 131.14 C 162.54 130.29 162.09 129.37 161.25 129.07 C 160.40 128.78 159.48 129.22 159.18 130.07 L 158.85 131.01 C 158.56 131.86 159.00 132.78 159.85 133.08 C 160.70 133.37 161.62 132.93 161.92 132.08 Z M 162.11 131.44 L 162.61 130.59 C 163.07 129.82 162.82 128.82 162.05 128.36 C 161.28 127.90 160.28 128.16 159.82 128.93 L 159.32 129.77 C 158.86 130.55 159.11 131.54 159.88 132.00 C 160.65 132.46 161.65 132.21 162.11 131.44 Z M 162.46 130.81 L 163.11 130.03 C 163.69 129.35 163.60 128.32 162.92 127.74 C 162.23 127.16 161.21 127.25 160.63 127.94 L 159.98 128.71 C 159.40 129.40 159.48 130.42 160.17 131.00 C 160.86 131.58 161.88 131.49 162.46 130.81 Z M 162.97 130.18 L 163.71 129.50 C 164.38 128.89 164.42 127.86 163.81 127.20 C 163.21 126.54 162.18 126.50 161.52 127.10 L 160.77 127.79 C 160.11 128.40 160.07 129.42 160.67 130.08 C 161.28 130.75 162.31 130.79 162.97 130.18 Z M 163.58 129.61 L 164.36 129.03 C 165.08 128.50 165.23 127.48 164.70 126.76 C 164.17 126.04 163.15 125.88 162.43 126.42 L 161.65 126.99 C 160.93 127.53 160.78 128.55 161.31 129.27 C 161.84 129.99 162.86 130.14 163.58 129.61 Z M 164.22 129.12 L 165.00 128.66 C 165.77 128.20 166.02 127.21 165.56 126.44 C 165.11 125.67 164.11 125.41 163.34 125.87 L 162.57 126.33 C 161.80 126.79 161.54 127.78 162.00 128.55 C 162.46 129.32 163.45 129.58 164.22 129.12 Z M 164.84 128.73 L 165.69 128.35 C 166.50 127.97 166.85 127.01 166.48 126.20 C 166.11 125.39 165.15 125.03 164.33 125.41 L 163.49 125.79 C 162.68 126.17 162.32 127.13 162.70 127.94 C 163.07 128.75 164.03 129.11 164.84 128.73 Z M 165.56 128.40 L 166.53 128.04 C 167.37 127.74 167.81 126.82 167.51 125.98 C 167.20 125.14 166.28 124.70 165.44 125.01 L 164.46 125.36 C 163.63 125.66 163.19 126.58 163.49 127.42 C 163.79 128.26 164.72 128.70 165.56 128.40 Z M 166.45 128.07 L 167.51 127.75 C 168.36 127.49 168.84 126.60 168.59 125.74 C 168.33 124.89 167.43 124.41 166.58 124.67 L 165.52 124.98 C 164.67 125.24 164.19 126.14 164.45 126.99 C 164.70 127.84 165.60 128.32 166.45 128.07 Z M 167.46 127.76 L 168.31 127.53 C 169.17 127.30 169.68 126.41 169.45 125.56 C 169.21 124.70 168.33 124.19 167.47 124.42 L 166.62 124.65 C 165.77 124.89 165.26 125.77 165.49 126.63 C 165.72 127.49 166.61 127.99 167.46 127.76 Z M 168.29 127.54 L 169.21 127.31 C 170.07 127.09 170.60 126.21 170.38 125.35 C 170.17 124.49 169.29 123.97 168.43 124.18 L 167.50 124.42 C 166.64 124.63 166.12 125.51 166.33 126.37 C 166.55 127.23 167.42 127.75 168.29 127.54 Z M 169.19 127.31 L 170.17 127.08 C 171.04 126.88 171.58 126.02 171.37 125.15 C 171.17 124.29 170.31 123.75 169.44 123.95 L 168.46 124.18 C 167.59 124.38 167.05 125.24 167.25 126.11 C 167.46 126.97 168.32 127.51 169.19 127.31 Z M 170.14 127.09 L 171.17 126.87 C 172.04 126.68 172.60 125.83 172.41 124.96 C 172.22 124.09 171.37 123.54 170.50 123.72 L 169.47 123.94 C 168.60 124.13 168.05 124.98 168.24 125.85 C 168.42 126.72 169.28 127.27 170.14 127.09 Z M 171.14 126.87 L 172.20 126.67 C 173.07 126.50 173.64 125.66 173.47 124.79 C 173.30 123.91 172.46 123.34 171.58 123.51 L 170.53 123.72 C 169.66 123.89 169.09 124.73 169.26 125.60 C 169.43 126.47 170.27 127.04 171.14 126.87 Z M 172.16 126.68 L 173.22 126.49 C 174.10 126.34 174.69 125.51 174.54 124.64 C 174.39 123.76 173.56 123.17 172.68 123.33 L 171.62 123.51 C 170.74 123.66 170.16 124.49 170.31 125.36 C 170.46 126.24 171.29 126.83 172.16 126.68 Z M 173.19 126.50 L 174.28 126.34 C 175.16 126.21 175.76 125.39 175.63 124.51 C 175.50 123.63 174.69 123.03 173.81 123.16 L 172.72 123.32 C 171.84 123.45 171.23 124.27 171.36 125.14 C 171.49 126.02 172.31 126.63 173.19 126.50 Z M 174.24 126.35 L 175.31 126.22 C 176.19 126.11 176.82 125.30 176.71 124.42 C 176.60 123.53 175.79 122.91 174.91 123.02 L 173.84 123.15 C 172.96 123.26 172.33 124.06 172.44 124.95 C 172.55 125.83 173.36 126.46 174.24 126.35 Z M 175.27 126.22 L 176.30 126.12 C 177.19 126.03 177.83 125.23 177.74 124.35 C 177.65 123.46 176.86 122.81 175.97 122.91 L 174.94 123.01 C 174.06 123.10 173.41 123.89 173.50 124.78 C 173.59 125.67 174.39 126.31 175.27 126.22 Z M 176.27 126.12 L 177.25 126.04 C 178.14 125.97 178.80 125.19 178.73 124.30 C 178.66 123.41 177.88 122.75 176.99 122.82 L 176.01 122.90 C 175.12 122.97 174.45 123.75 174.53 124.64 C 174.60 125.53 175.38 126.19 176.27 126.12 Z M 177.22 126.05 L 178.14 125.99 C 179.03 125.94 179.71 125.17 179.66 124.28 C 179.61 123.39 178.84 122.71 177.95 122.76 L 177.02 122.82 C 176.13 122.87 175.45 123.63 175.50 124.53 C 175.56 125.42 176.32 126.10 177.22 126.05 Z M 178.10 126.00 L 179.01 125.97 C 179.91 125.93 180.61 125.18 180.58 124.29 C 180.54 123.39 179.79 122.69 178.90 122.72 L 177.99 122.76 C 177.09 122.79 176.39 123.54 176.42 124.43 C 176.45 125.33 177.21 126.03 178.10 126.00 Z M 178.93 125.97 L 180.19 125.99 C 181.09 126.01 181.83 125.29 181.84 124.39 C 181.86 123.49 181.14 122.75 180.24 122.74 L 178.98 122.72 C 178.08 122.70 177.34 123.42 177.33 124.32 C 177.31 125.22 178.03 125.96 178.93 125.97 Z M 179.93 125.98 L 180.90 126.15 C 181.79 126.31 182.64 125.71 182.80 124.82 C 182.96 123.93 182.36 123.08 181.47 122.92 L 180.50 122.75 C 179.61 122.59 178.76 123.19 178.60 124.08 C 178.44 124.97 179.04 125.82 179.93 125.98 Z M 180.31 125.93 L 180.97 126.34 C 181.74 126.82 182.75 126.59 183.23 125.82 C 183.72 125.05 183.48 124.03 182.71 123.55 L 182.06 123.14 C 181.29 122.66 180.27 122.89 179.79 123.66 C 179.31 124.44 179.54 125.45 180.31 125.93 Z M 180.32 125.61 L 180.61 126.26 C 180.97 127.10 181.95 127.48 182.79 127.11 C 183.62 126.75 184.01 125.77 183.64 124.93 L 183.36 124.28 C 182.99 123.44 182.01 123.06 181.18 123.43 C 180.34 123.79 179.96 124.77 180.32 125.61 Z M 180.46 125.57 L 180.45 126.43 C 180.44 127.34 181.17 128.10 182.09 128.11 C 183.01 128.12 183.76 127.39 183.77 126.47 L 183.79 125.62 C 183.80 124.70 183.06 123.94 182.15 123.93 C 181.23 123.92 180.47 124.65 180.46 125.57 Z M 180.49 126.03 L 180.23 127.04 C 180.00 127.94 180.54 128.85 181.43 129.08 C 182.33 129.31 183.24 128.77 183.47 127.88 L 183.73 126.87 C 183.96 125.97 183.42 125.06 182.53 124.83 C 181.63 124.60 180.72 125.14 180.49 126.03 Z M 180.31 126.79 L 179.83 127.88 C 179.46 128.73 179.85 129.72 180.70 130.09 C 181.55 130.47 182.54 130.08 182.91 129.23 L 183.39 128.13 C 183.76 127.28 183.37 126.29 182.52 125.92 C 181.67 125.55 180.68 125.94 180.31 126.79 Z M 179.92 127.71 L 179.38 128.62 C 178.91 129.43 179.18 130.46 179.99 130.93 C 180.79 131.40 181.82 131.13 182.29 130.32 L 182.83 129.41 C 183.30 128.60 183.03 127.57 182.22 127.10 C 181.42 126.63 180.39 126.90 179.92 127.71 Z M 179.45 128.51 L 178.87 129.35 C 178.34 130.12 178.53 131.17 179.29 131.70 C 180.06 132.23 181.11 132.04 181.64 131.28 L 182.22 130.44 C 182.75 129.67 182.56 128.62 181.80 128.09 C 181.03 127.56 179.98 127.75 179.45 128.51 Z M 178.92 129.28 L 178.29 130.09 C 177.71 130.83 177.85 131.89 178.58 132.46 C 179.32 133.04 180.38 132.90 180.96 132.16 L 181.59 131.35 C 182.16 130.61 182.03 129.55 181.29 128.98 C 180.55 128.40 179.49 128.54 178.92 129.28 Z M 178.32 130.04 L 177.67 130.82 C 177.07 131.53 177.16 132.60 177.88 133.20 C 178.60 133.80 179.67 133.71 180.27 132.99 L 180.92 132.22 C 181.52 131.50 181.43 130.43 180.71 129.83 C 179.99 129.23 178.93 129.32 178.32 130.04 Z M 177.70 130.78 L 177.06 131.51 C 176.44 132.21 176.50 133.28 177.21 133.90 C 177.91 134.52 178.98 134.46 179.60 133.75 L 180.24 133.03 C 180.86 132.32 180.79 131.25 180.09 130.63 C 179.39 130.01 178.32 130.08 177.70 130.78 Z M 177.07 131.49 L 176.35 132.29 C 175.72 132.98 175.77 134.05 176.47 134.68 C 177.16 135.31 178.24 135.26 178.87 134.57 L 179.59 133.77 C 180.22 133.08 180.16 132.00 179.47 131.37 C 178.77 130.74 177.70 130.80 177.07 131.49 Z M 176.36 132.27 L 175.64 133.05 C 175.00 133.74 175.05 134.82 175.73 135.46 C 176.42 136.09 177.50 136.05 178.14 135.36 L 178.86 134.58 C 179.49 133.89 179.45 132.81 178.76 132.18 C 178.07 131.54 177.00 131.58 176.36 132.27 Z M 175.65 133.04 L 174.99 133.74 C 174.35 134.42 174.38 135.50 175.06 136.14 C 175.75 136.79 176.82 136.76 177.46 136.07 L 178.12 135.37 C 178.77 134.69 178.74 133.61 178.05 132.97 C 177.37 132.33 176.29 132.36 175.65 133.04 Z M 175.00 133.73 L 174.38 134.37 C 173.73 135.05 173.75 136.13 174.43 136.78 C 175.11 137.43 176.18 137.41 176.83 136.73 L 177.45 136.08 C 178.11 135.41 178.08 134.33 177.41 133.68 C 176.73 133.03 175.65 133.05 175.00 133.73 Z M 174.39 134.36 L 173.70 135.07 C 173.04 135.75 173.05 136.82 173.72 137.48 C 174.39 138.14 175.47 138.12 176.13 137.45 L 176.82 136.74 C 177.48 136.07 177.47 134.99 176.80 134.34 C 176.12 133.68 175.05 133.69 174.39 134.36 Z M 173.71 135.06 L 173.00 135.78 C 172.34 136.44 172.34 137.52 173.01 138.18 C 173.67 138.84 174.75 138.84 175.41 138.17 L 176.12 137.46 C 176.78 136.80 176.78 135.72 176.11 135.06 C 175.45 134.40 174.37 134.40 173.71 135.06 Z M 173.01 135.77 L 172.31 136.46 C 171.64 137.12 171.63 138.19 172.29 138.86 C 172.95 139.53 174.03 139.54 174.70 138.88 L 175.40 138.18 C 176.07 137.53 176.07 136.45 175.41 135.78 C 174.75 135.11 173.68 135.11 173.01 135.77 Z M 172.32 136.45 L 171.69 137.06 C 171.02 137.71 171.00 138.79 171.65 139.46 C 172.31 140.14 173.38 140.15 174.06 139.50 L 174.69 138.89 C 175.36 138.23 175.38 137.16 174.72 136.49 C 174.07 135.81 172.99 135.80 172.32 136.45 Z M 171.69 137.06 L 171.08 137.64 C 170.41 138.29 170.39 139.37 171.04 140.05 C 171.69 140.72 172.76 140.74 173.44 140.09 L 174.05 139.50 C 174.73 138.85 174.75 137.78 174.10 137.10 C 173.45 136.43 172.37 136.40 171.69 137.06 Z M 171.08 137.65 L 170.38 138.32 C 169.71 138.97 169.69 140.05 170.34 140.72 C 170.99 141.40 172.06 141.42 172.74 140.77 L 173.44 140.09 C 174.11 139.44 174.13 138.36 173.48 137.69 C 172.83 137.01 171.76 136.99 171.08 137.65 Z M 170.38 138.33 L 169.53 139.15 C 168.86 139.80 168.84 140.88 169.50 141.55 C 170.15 142.22 171.23 142.24 171.90 141.58 L 172.74 140.76 C 173.42 140.11 173.43 139.03 172.78 138.36 C 172.12 137.69 171.05 137.67 170.38 138.33 Z M 169.53 139.16 L 168.78 139.89 C 168.11 140.55 168.10 141.63 168.76 142.29 C 169.41 142.96 170.49 142.97 171.16 142.31 L 171.90 141.58 C 172.57 140.92 172.58 139.84 171.92 139.18 C 171.27 138.51 170.19 138.50 169.53 139.16 Z M 168.77 139.90 L 168.07 140.59 C 167.41 141.25 167.40 142.33 168.06 142.99 C 168.72 143.66 169.79 143.66 170.46 143.00 L 171.16 142.31 C 171.82 141.65 171.83 140.58 171.17 139.91 C 170.51 139.25 169.44 139.24 168.77 139.90 Z M 168.07 140.60 L 167.33 141.33 C 166.67 141.99 166.66 143.06 167.32 143.73 C 167.98 144.39 169.05 144.39 169.71 143.74 L 170.46 143.00 C 171.12 142.34 171.12 141.27 170.47 140.61 C 169.81 139.94 168.73 139.94 168.07 140.60 Z M 167.33 141.33 L 166.58 142.08 C 165.91 142.74 165.91 143.81 166.57 144.47 C 167.23 145.14 168.30 145.14 168.96 144.48 L 169.71 143.73 C 170.38 143.08 170.38 142.01 169.72 141.34 C 169.06 140.68 167.99 140.68 167.33 141.33 Z M 166.58 142.08 L 165.84 142.82 C 165.18 143.47 165.17 144.54 165.83 145.20 C 166.49 145.87 167.56 145.87 168.22 145.21 L 168.96 144.48 C 169.62 143.82 169.62 142.75 168.97 142.09 C 168.31 141.43 167.24 141.43 166.58 142.08 Z M 165.84 142.81 L 165.15 143.50 C 164.48 144.16 164.48 145.23 165.13 145.89 C 165.79 146.55 166.86 146.56 167.52 145.90 L 168.22 145.21 C 168.88 144.56 168.89 143.49 168.23 142.83 C 167.57 142.17 166.51 142.16 165.84 142.81 Z M 165.15 143.50 L 164.38 144.27 C 163.71 144.92 163.70 145.98 164.36 146.65 C 165.01 147.31 166.07 147.32 166.73 146.67 L 167.51 145.90 C 168.17 145.25 168.18 144.19 167.53 143.53 C 166.88 142.86 165.82 142.85 165.15 143.50 Z M 164.39 144.27 L 163.57 145.08 C 162.91 145.72 162.89 146.77 163.53 147.43 C 164.17 148.09 165.23 148.11 165.89 147.47 L 166.72 146.66 C 167.38 146.02 167.39 144.97 166.75 144.31 C 166.11 143.65 165.05 143.63 164.39 144.27 Z M 163.59 145.09 L 162.90 145.75 C 162.24 146.38 162.22 147.42 162.85 148.07 C 163.48 148.73 164.52 148.75 165.17 148.12 L 165.86 147.46 C 166.52 146.83 166.54 145.79 165.91 145.14 C 165.29 144.48 164.24 144.46 163.59 145.09 Z M 162.92 145.76 L 162.31 146.33 C 161.66 146.95 161.63 147.97 162.25 148.62 C 162.86 149.27 163.89 149.30 164.54 148.69 L 165.15 148.11 C 165.80 147.50 165.83 146.47 165.21 145.82 C 164.60 145.17 163.57 145.14 162.92 145.76 Z M 162.33 146.34 L 162.06 146.59 C 161.41 147.20 161.38 148.22 161.99 148.86 C 162.60 149.51 163.61 149.54 164.26 148.93 L 164.53 148.68 C 165.17 148.07 165.20 147.05 164.60 146.41 C 163.99 145.76 162.97 145.73 162.33 146.34 Z"
      fill="black"
      fill-rule="nonzero" /><path d="M 164.46 138.04 L 163.76 138.71 C 163.14 139.31 163.13 140.30 163.72 140.92 C 164.32 141.54 165.31 141.55 165.93 140.96 L 166.62 140.29 C 167.24 139.69 167.26 138.70 166.66 138.08 C 166.06 137.46 165.08 137.45 164.46 138.04 Z M 163.69 138.70 L 163.01 139.40 C 162.38 140.03 162.39 141.06 163.03 141.68 C 163.67 142.31 164.69 142.30 165.31 141.66 L 166.00 140.97 C 166.62 140.33 166.61 139.31 165.98 138.68 C 165.34 138.06 164.32 138.06 163.69 138.70 Z M 162.91 139.42 L 162.25 140.16 C 161.63 140.86 161.70 141.92 162.39 142.53 C 163.08 143.15 164.14 143.08 164.76 142.39 L 165.42 141.64 C 166.03 140.95 165.97 139.89 165.27 139.28 C 164.58 138.66 163.52 138.72 162.91 139.42 Z M 162.12 140.22 L 161.49 141.04 C 160.91 141.81 161.06 142.90 161.82 143.48 C 162.58 144.06 163.67 143.91 164.25 143.15 L 164.88 142.33 C 165.46 141.57 165.32 140.48 164.55 139.90 C 163.79 139.31 162.70 139.46 162.12 140.22 Z M 161.37 141.14 L 160.83 142.00 C 160.30 142.82 160.54 143.92 161.37 144.45 C 162.20 144.98 163.30 144.74 163.83 143.91 L 164.37 143.05 C 164.90 142.23 164.66 141.13 163.83 140.60 C 163.00 140.07 161.90 140.31 161.37 141.14 Z M 160.75 142.09 L 160.27 142.98 C 159.80 143.85 160.12 144.94 160.98 145.41 C 161.85 145.89 162.94 145.57 163.41 144.70 L 163.90 143.81 C 164.37 142.94 164.05 141.86 163.18 141.38 C 162.32 140.91 161.23 141.23 160.75 142.09 Z M 160.23 143.06 L 159.78 143.98 C 159.35 144.87 159.72 145.94 160.61 146.37 C 161.50 146.81 162.57 146.44 163.00 145.55 L 163.45 144.63 C 163.89 143.74 163.52 142.66 162.63 142.23 C 161.74 141.79 160.66 142.16 160.23 143.06 Z M 159.76 144.03 L 159.34 144.95 C 158.93 145.85 159.33 146.92 160.24 147.32 C 161.14 147.73 162.20 147.33 162.61 146.43 L 163.03 145.50 C 163.44 144.60 163.03 143.53 162.13 143.13 C 161.23 142.72 160.16 143.12 159.76 144.03 Z M 159.33 144.98 L 158.94 145.87 C 158.55 146.78 158.96 147.84 159.88 148.23 C 160.79 148.63 161.85 148.21 162.24 147.30 L 162.63 146.40 C 163.02 145.49 162.60 144.43 161.69 144.04 C 160.78 143.64 159.72 144.06 159.33 144.98 Z M 158.94 145.87 L 158.53 146.83 C 158.13 147.74 158.55 148.80 159.47 149.19 C 160.38 149.58 161.44 149.16 161.83 148.25 L 162.24 147.29 C 162.63 146.38 162.21 145.32 161.30 144.93 C 160.39 144.54 159.33 144.96 158.94 145.87 Z M 158.53 146.82 L 158.12 147.75 C 157.73 148.67 158.15 149.72 159.06 150.12 C 159.97 150.51 161.03 150.09 161.43 149.18 L 161.83 148.25 C 162.23 147.34 161.81 146.28 160.89 145.89 C 159.98 145.49 158.92 145.91 158.53 146.82 Z M 158.12 147.75 L 157.74 148.64 C 157.34 149.55 157.76 150.61 158.67 151.01 C 159.59 151.40 160.65 150.99 161.04 150.07 L 161.43 149.18 C 161.82 148.27 161.41 147.21 160.49 146.81 C 159.58 146.42 158.52 146.84 158.12 147.75 Z M 157.74 148.64 L 157.35 149.53 C 156.96 150.44 157.38 151.50 158.29 151.90 C 159.21 152.29 160.27 151.87 160.66 150.96 L 161.05 150.07 C 161.44 149.16 161.02 148.10 160.11 147.70 C 159.19 147.31 158.13 147.73 157.74 148.64 Z M 157.35 149.53 L 156.97 150.41 C 156.58 151.33 157.01 152.39 157.92 152.78 C 158.84 153.17 159.90 152.75 160.29 151.83 L 160.67 150.95 C 161.06 150.04 160.63 148.98 159.72 148.59 C 158.80 148.19 157.74 148.62 157.35 149.53 Z M 156.97 150.42 L 156.59 151.32 C 156.21 152.23 156.63 153.29 157.55 153.68 C 158.47 154.07 159.53 153.64 159.91 152.72 L 160.29 151.82 C 160.68 150.91 160.25 149.85 159.33 149.46 C 158.42 149.07 157.36 149.50 156.97 150.42 Z M 156.59 151.32 L 156.20 152.25 C 155.82 153.17 156.25 154.22 157.17 154.61 C 158.09 154.99 159.14 154.56 159.53 153.64 L 159.92 152.71 C 160.30 151.80 159.87 150.74 158.95 150.36 C 158.03 149.97 156.97 150.41 156.59 151.32 Z M 156.20 152.26 L 155.81 153.21 C 155.43 154.13 155.87 155.18 156.78 155.56 C 157.70 155.94 158.76 155.50 159.14 154.59 L 159.53 153.63 C 159.91 152.71 159.47 151.66 158.55 151.28 C 157.63 150.90 156.58 151.34 156.20 152.26 Z M 155.80 153.22 L 155.42 154.16 C 155.04 155.09 155.49 156.14 156.41 156.51 C 157.33 156.89 158.38 156.44 158.75 155.52 L 159.14 154.58 C 159.51 153.66 159.07 152.61 158.15 152.23 C 157.23 151.86 156.18 152.30 155.80 153.22 Z M 155.42 154.17 L 155.05 155.08 C 154.68 156.00 155.13 157.05 156.05 157.42 C 156.97 157.79 158.02 157.34 158.39 156.42 L 158.76 155.52 C 159.13 154.59 158.68 153.55 157.76 153.17 C 156.84 152.80 155.79 153.25 155.42 154.17 Z M 155.05 155.09 L 154.69 156.01 C 154.32 156.93 154.77 157.97 155.69 158.34 C 156.61 158.71 157.66 158.26 158.03 157.34 L 158.39 156.42 C 158.76 155.49 158.31 154.45 157.39 154.08 C 156.46 153.71 155.42 154.16 155.05 155.09 Z M 154.68 156.01 L 154.32 156.95 C 153.95 157.87 154.40 158.91 155.33 159.28 C 156.25 159.64 157.29 159.19 157.66 158.27 L 158.03 157.33 C 158.39 156.41 157.94 155.36 157.02 155.00 C 156.09 154.64 155.05 155.09 154.68 156.01 Z M 154.32 156.95 L 153.94 157.90 C 153.58 158.82 154.03 159.87 154.96 160.23 C 155.88 160.59 156.92 160.14 157.28 159.21 L 157.66 158.26 C 158.02 157.34 157.56 156.30 156.64 155.94 C 155.72 155.57 154.68 156.03 154.32 156.95 Z M 153.94 157.90 L 153.58 158.84 C 153.22 159.76 153.67 160.80 154.60 161.16 C 155.52 161.52 156.56 161.07 156.92 160.14 L 157.28 159.21 C 157.64 158.29 157.19 157.25 156.27 156.89 C 155.34 156.53 154.30 156.98 153.94 157.90 Z M 153.58 158.84 L 153.22 159.76 C 152.86 160.68 153.32 161.72 154.24 162.08 C 155.16 162.44 156.20 161.98 156.56 161.06 L 156.92 160.14 C 157.27 159.22 156.82 158.18 155.90 157.82 C 154.98 157.46 153.94 157.92 153.58 158.84 Z M 153.22 159.77 L 152.86 160.70 C 152.51 161.62 152.96 162.65 153.88 163.01 C 154.80 163.37 155.84 162.91 156.19 161.99 L 156.56 161.06 C 156.91 160.14 156.45 159.10 155.53 158.75 C 154.61 158.39 153.58 158.85 153.22 159.77 Z M 152.86 160.71 L 152.50 161.65 C 152.15 162.57 152.61 163.60 153.53 163.95 C 154.45 164.30 155.48 163.84 155.83 162.92 L 156.19 161.98 C 156.55 161.06 156.09 160.03 155.17 159.68 C 154.25 159.33 153.22 159.79 152.86 160.71 Z M 152.50 161.65 L 152.14 162.60 C 151.79 163.52 152.26 164.55 153.18 164.89 C 154.10 165.24 155.12 164.78 155.47 163.86 L 155.83 162.92 C 156.18 162.00 155.72 160.97 154.80 160.62 C 153.88 160.27 152.85 160.73 152.50 161.65 Z M 152.14 162.61 L 151.79 163.55 C 151.45 164.47 151.91 165.50 152.83 165.84 C 153.75 166.19 154.77 165.72 155.12 164.80 L 155.47 163.85 C 155.82 162.93 155.35 161.91 154.43 161.57 C 153.51 161.22 152.49 161.69 152.14 162.61 Z M 151.79 163.56 L 151.44 164.51 C 151.10 165.43 151.57 166.45 152.49 166.79 C 153.41 167.13 154.43 166.66 154.77 165.74 L 155.12 164.79 C 155.45 163.87 154.99 162.85 154.07 162.52 C 153.15 162.18 152.13 162.65 151.79 163.56 Z M 151.44 164.52 L 151.10 165.46 C 150.76 166.38 151.24 167.39 152.15 167.73 C 153.07 168.06 154.08 167.59 154.42 166.67 L 154.76 165.73 C 155.10 164.81 154.63 163.80 153.71 163.46 C 152.79 163.13 151.78 163.60 151.44 164.52 Z M 151.10 165.47 L 150.76 166.41 C 150.43 167.32 150.90 168.33 151.82 168.66 C 152.73 169.00 153.74 168.52 154.08 167.61 L 154.42 166.67 C 154.75 165.75 154.27 164.74 153.36 164.41 C 152.44 164.08 151.43 164.55 151.10 165.47 Z M 150.76 166.41 L 150.43 167.34 C 150.10 168.26 150.58 169.26 151.49 169.59 C 152.40 169.92 153.41 169.45 153.74 168.53 L 154.07 167.60 C 154.40 166.69 153.93 165.68 153.01 165.35 C 152.10 165.03 151.09 165.50 150.76 166.41 Z M 150.43 167.35 L 150.09 168.30 C 149.77 169.21 150.24 170.21 151.16 170.54 C 152.07 170.86 153.07 170.39 153.39 169.48 L 153.73 168.53 C 154.06 167.62 153.58 166.61 152.67 166.29 C 151.76 165.96 150.76 166.44 150.43 167.35 Z M 150.10 168.31 L 149.76 169.27 C 149.44 170.18 149.91 171.18 150.82 171.50 C 151.73 171.82 152.73 171.35 153.05 170.44 L 153.39 169.47 C 153.71 168.56 153.24 167.57 152.33 167.24 C 151.42 166.92 150.42 167.40 150.10 168.31 Z M 149.76 169.28 L 149.43 170.23 C 149.11 171.14 149.59 172.13 150.50 172.45 C 151.41 172.76 152.40 172.28 152.71 171.38 L 153.04 170.43 C 153.36 169.52 152.88 168.53 151.98 168.21 C 151.07 167.90 150.08 168.38 149.76 169.28 Z M 149.43 170.25 L 149.11 171.18 C 148.80 172.09 149.29 173.07 150.19 173.38 C 151.10 173.69 152.08 173.21 152.39 172.30 L 152.71 171.37 C 153.02 170.46 152.54 169.48 151.63 169.17 C 150.73 168.86 149.74 169.34 149.43 170.25 Z M 149.11 171.20 L 148.81 172.12 C 148.51 173.02 149.00 174.00 149.90 174.30 C 150.81 174.60 151.78 174.11 152.08 173.20 L 152.39 172.28 C 152.69 171.38 152.20 170.40 151.29 170.10 C 150.39 169.80 149.41 170.30 149.11 171.20 Z M 148.81 172.14 L 148.50 173.11 C 148.21 174.02 148.71 174.98 149.61 175.27 C 150.52 175.56 151.48 175.06 151.77 174.16 L 152.08 173.18 C 152.37 172.28 151.87 171.31 150.97 171.03 C 150.06 170.74 149.10 171.24 148.81 172.14 Z M 148.50 173.13 L 148.20 174.10 C 147.93 175.01 148.43 175.96 149.34 176.24 C 150.24 176.52 151.19 176.01 151.47 175.11 L 151.77 174.14 C 152.05 173.24 151.54 172.28 150.64 172.00 C 149.74 171.73 148.78 172.23 148.50 173.13 Z M 148.21 174.12 L 147.92 175.07 C 147.65 175.97 148.16 176.92 149.06 177.19 C 149.96 177.46 150.91 176.95 151.18 176.05 L 151.46 175.10 C 151.73 174.20 151.23 173.25 150.33 172.98 C 149.43 172.71 148.48 173.22 148.21 174.12 Z M 147.93 175.08 L 147.65 176.01 C 147.39 176.91 147.90 177.85 148.79 178.11 C 149.68 178.38 150.63 177.87 150.89 176.98 L 151.17 176.04 C 151.44 175.15 150.93 174.21 150.03 173.94 C 149.14 173.67 148.20 174.18 147.93 175.08 Z M 147.66 176.01 L 147.38 176.95 C 147.12 177.84 147.62 178.77 148.51 179.04 C 149.40 179.31 150.33 178.80 150.60 177.91 L 150.88 176.98 C 151.15 176.09 150.64 175.15 149.75 174.89 C 148.87 174.62 147.93 175.12 147.66 176.01 Z M 147.39 176.96 L 147.11 177.91 C 146.85 178.79 147.36 179.72 148.24 179.98 C 149.13 180.24 150.05 179.73 150.31 178.85 L 150.59 177.90 C 150.85 177.02 150.35 176.09 149.46 175.83 C 148.58 175.57 147.65 176.08 147.39 176.96 Z M 147.11 177.94 L 146.85 178.90 C 146.61 179.78 147.14 180.69 148.02 180.93 C 148.90 181.17 149.81 180.65 150.05 179.77 L 150.31 178.81 C 150.55 177.93 150.03 177.02 149.15 176.78 C 148.26 176.54 147.35 177.06 147.11 177.94 Z M 146.85 178.96 L 146.62 179.94 C 146.42 180.83 146.97 181.71 147.85 181.92 C 148.74 182.12 149.62 181.57 149.83 180.68 L 150.06 179.70 C 150.26 178.82 149.71 177.93 148.83 177.73 C 147.94 177.52 147.06 178.08 146.85 178.96 Z M 146.62 180.03 L 146.43 181.09 C 146.27 181.98 146.86 182.83 147.75 182.99 C 148.64 183.14 149.49 182.55 149.64 181.66 L 149.83 180.60 C 149.99 179.71 149.40 178.86 148.51 178.71 C 147.62 178.55 146.78 179.14 146.62 180.03 Z M 146.43 181.21 L 146.31 182.38 C 146.21 183.27 146.86 184.06 147.75 184.16 C 148.64 184.25 149.43 183.60 149.53 182.71 L 149.65 181.55 C 149.74 180.66 149.09 179.86 148.20 179.77 C 147.32 179.68 146.52 180.32 146.43 181.21 Z M 146.31 182.56 L 146.33 183.61 C 146.34 184.50 147.06 185.21 147.95 185.20 C 148.83 185.19 149.54 184.46 149.53 183.57 L 149.52 182.53 C 149.51 181.64 148.78 180.93 147.90 180.94 C 147.01 180.95 146.30 181.68 146.31 182.56 Z M 146.39 183.98 L 146.58 184.77 C 146.79 185.62 147.66 186.14 148.51 185.93 C 149.36 185.72 149.88 184.86 149.67 184.00 L 149.47 183.21 C 149.26 182.36 148.40 181.84 147.55 182.05 C 146.69 182.26 146.18 183.13 146.39 183.98 Z M 147.13 185.59 L 147.65 186.03 C 148.32 186.58 149.30 186.49 149.85 185.82 C 150.41 185.16 150.31 184.17 149.65 183.62 L 149.12 183.18 C 148.46 182.63 147.47 182.72 146.92 183.39 C 146.37 184.05 146.46 185.04 147.13 185.59 Z M 148.88 186.33 L 149.74 186.20 C 150.57 186.07 151.14 185.30 151.02 184.46 C 150.89 183.63 150.11 183.06 149.28 183.19 L 148.42 183.32 C 147.59 183.44 147.02 184.22 147.14 185.05 C 147.27 185.88 148.05 186.46 148.88 186.33 Z M 150.29 185.95 L 151.28 185.34 C 151.97 184.91 152.19 184.00 151.76 183.31 C 151.34 182.61 150.42 182.39 149.73 182.82 L 148.74 183.43 C 148.04 183.86 147.82 184.77 148.25 185.47 C 148.68 186.16 149.59 186.38 150.29 185.95 Z M 151.49 185.14 L 152.21 184.47 C 152.80 183.93 152.83 183.01 152.29 182.43 C 151.74 181.84 150.83 181.81 150.24 182.35 L 149.52 183.02 C 148.93 183.56 148.90 184.48 149.44 185.07 C 149.99 185.65 150.90 185.69 151.49 185.14 Z M 152.32 184.35 L 152.93 183.64 C 153.45 183.03 153.38 182.13 152.77 181.61 C 152.17 181.09 151.26 181.16 150.75 181.76 L 150.13 182.47 C 149.62 183.08 149.69 183.99 150.29 184.50 C 150.89 185.02 151.80 184.95 152.32 184.35 Z M 152.99 183.55 L 153.59 182.74 C 154.06 182.11 153.92 181.21 153.29 180.74 C 152.65 180.27 151.75 180.40 151.28 181.04 L 150.68 181.85 C 150.21 182.48 150.35 183.38 150.98 183.85 C 151.62 184.32 152.52 184.19 152.99 183.55 Z M 153.62 182.69 L 154.22 181.80 C 154.65 181.14 154.48 180.25 153.82 179.81 C 153.16 179.38 152.28 179.55 151.84 180.21 L 151.24 181.10 C 150.81 181.75 150.98 182.64 151.64 183.08 C 152.30 183.52 153.19 183.34 153.62 182.69 Z M 154.23 181.76 L 154.80 180.87 C 155.22 180.21 155.02 179.32 154.35 178.90 C 153.68 178.48 152.80 178.68 152.38 179.35 L 151.82 180.24 C 151.40 180.91 151.60 181.79 152.27 182.21 C 152.93 182.63 153.81 182.43 154.23 181.76 Z M 154.81 180.86 L 155.31 180.04 C 155.72 179.36 155.51 178.48 154.84 178.07 C 154.16 177.66 153.28 177.87 152.87 178.54 L 152.37 179.37 C 151.96 180.04 152.17 180.92 152.84 181.33 C 153.52 181.74 154.40 181.53 154.81 180.86 Z M 155.32 180.03 L 155.83 179.18 C 156.24 178.50 156.02 177.62 155.34 177.21 C 154.66 176.81 153.78 177.03 153.37 177.70 L 152.86 178.55 C 152.46 179.23 152.68 180.11 153.35 180.52 C 154.03 180.92 154.91 180.70 155.32 180.03 Z M 155.84 179.17 L 156.35 178.30 C 156.75 177.62 156.53 176.74 155.85 176.34 C 155.16 175.93 154.28 176.16 153.88 176.84 L 153.37 177.71 C 152.96 178.39 153.19 179.27 153.87 179.68 C 154.55 180.08 155.43 179.85 155.84 179.17 Z M 156.36 178.30 L 156.87 177.41 C 157.28 176.73 157.05 175.85 156.36 175.45 C 155.68 175.04 154.79 175.27 154.39 175.96 L 153.87 176.84 C 153.47 177.53 153.70 178.41 154.39 178.81 C 155.07 179.21 155.95 178.98 156.36 178.30 Z M 156.88 177.41 L 157.39 176.54 C 157.79 175.85 157.56 174.97 156.87 174.56 C 156.19 174.16 155.30 174.39 154.90 175.08 L 154.39 175.96 C 153.99 176.65 154.22 177.53 154.91 177.93 C 155.59 178.33 156.48 178.10 156.88 177.41 Z"
      fill="black"
      fill-rule="nonzero" /><path d="M 164.79 159.96 L 165.39 160.67 C 165.91 161.31 166.85 161.39 167.48 160.86 C 168.12 160.33 168.20 159.40 167.67 158.76 L 167.08 158.05 C 166.55 157.42 165.61 157.34 164.98 157.87 C 164.35 158.39 164.27 159.33 164.79 159.96 Z M 165.27 160.67 L 165.85 161.43 C 166.37 162.13 167.36 162.27 168.06 161.74 C 168.75 161.22 168.89 160.23 168.36 159.53 L 167.79 158.77 C 167.26 158.07 166.27 157.94 165.58 158.46 C 164.88 158.99 164.75 159.98 165.27 160.67 Z M 165.69 161.37 L 166.24 162.23 C 166.72 163.01 167.75 163.25 168.53 162.76 C 169.31 162.27 169.55 161.25 169.06 160.47 L 168.52 159.60 C 168.03 158.82 167.00 158.58 166.22 159.07 C 165.44 159.56 165.21 160.59 165.69 161.37 Z M 166.08 162.11 L 166.54 163.08 C 166.96 163.94 168.01 164.31 168.87 163.89 C 169.74 163.47 170.11 162.43 169.69 161.56 L 169.22 160.59 C 168.80 159.72 167.76 159.36 166.89 159.78 C 166.02 160.20 165.66 161.24 166.08 162.11 Z M 166.45 162.95 L 166.79 163.86 C 167.14 164.78 168.17 165.25 169.09 164.90 C 170.01 164.56 170.48 163.53 170.13 162.60 L 169.79 161.69 C 169.44 160.76 168.41 160.30 167.49 160.65 C 166.56 160.99 166.10 162.02 166.45 162.95 Z M 166.75 163.78 L 167.06 164.76 C 167.36 165.70 168.37 166.22 169.32 165.92 C 170.26 165.62 170.78 164.61 170.48 163.67 L 170.17 162.69 C 169.87 161.74 168.86 161.22 167.92 161.52 C 166.97 161.82 166.45 162.83 166.75 163.78 Z M 167.04 164.71 L 167.32 165.71 C 167.60 166.66 168.60 167.22 169.56 166.94 C 170.51 166.67 171.07 165.67 170.79 164.71 L 170.51 163.72 C 170.23 162.76 169.23 162.20 168.28 162.48 C 167.32 162.75 166.76 163.75 167.04 164.71 Z M 167.31 165.69 L 167.57 166.65 C 167.84 167.62 168.83 168.19 169.80 167.93 C 170.77 167.66 171.34 166.66 171.07 165.69 L 170.81 164.73 C 170.55 163.76 169.55 163.19 168.58 163.46 C 167.61 163.72 167.04 164.72 167.31 165.69 Z M 167.57 166.67 L 167.85 167.68 C 168.12 168.65 169.13 169.21 170.10 168.94 C 171.07 168.66 171.64 167.66 171.36 166.68 L 171.08 165.68 C 170.81 164.71 169.80 164.14 168.83 164.42 C 167.86 164.69 167.29 165.70 167.57 166.67 Z M 167.86 167.72 L 168.17 168.74 C 168.47 169.71 169.49 170.25 170.46 169.95 C 171.43 169.65 171.97 168.63 171.67 167.66 L 171.36 166.64 C 171.06 165.67 170.03 165.13 169.07 165.43 C 168.10 165.73 167.56 166.75 167.86 167.72 Z M 168.18 168.79 L 168.49 169.70 C 168.82 170.66 169.86 171.18 170.82 170.85 C 171.78 170.52 172.30 169.48 171.97 168.52 L 171.66 167.61 C 171.33 166.65 170.29 166.14 169.33 166.46 C 168.37 166.79 167.86 167.83 168.18 168.79 Z M 168.51 169.76 L 168.82 170.61 C 169.18 171.56 170.24 172.05 171.19 171.69 C 172.14 171.34 172.63 170.28 172.27 169.32 L 171.96 168.47 C 171.60 167.52 170.54 167.03 169.59 167.39 C 168.64 167.74 168.15 168.80 168.51 169.76 Z M 168.84 170.65 L 169.20 171.55 C 169.58 172.50 170.65 172.96 171.59 172.58 C 172.54 172.20 173.00 171.13 172.62 170.18 L 172.26 169.28 C 171.88 168.34 170.81 167.88 169.86 168.25 C 168.92 168.63 168.46 169.70 168.84 170.65 Z M 169.21 171.59 L 169.61 172.51 C 170.01 173.44 171.09 173.88 172.03 173.47 C 172.97 173.07 173.40 171.99 173.00 171.05 L 172.60 170.14 C 172.20 169.20 171.12 168.77 170.18 169.17 C 169.25 169.57 168.81 170.66 169.21 171.59 Z M 169.63 172.55 L 170.05 173.47 C 170.48 174.39 171.57 174.80 172.50 174.37 C 173.42 173.94 173.83 172.84 173.40 171.92 L 172.98 171.01 C 172.55 170.08 171.45 169.68 170.53 170.11 C 169.60 170.53 169.20 171.63 169.63 172.55 Z M 170.08 173.52 L 170.52 174.41 C 170.98 175.32 172.08 175.69 172.99 175.24 C 173.90 174.78 174.27 173.67 173.82 172.76 L 173.37 171.87 C 172.92 170.96 171.81 170.59 170.90 171.05 C 169.99 171.50 169.62 172.61 170.08 173.52 Z M 170.55 174.46 L 171.02 175.33 C 171.50 176.22 172.61 176.56 173.51 176.08 C 174.40 175.60 174.74 174.48 174.26 173.59 L 173.79 172.72 C 173.31 171.82 172.20 171.49 171.30 171.97 C 170.41 172.45 170.07 173.56 170.55 174.46 Z M 171.05 175.37 L 171.55 176.24 C 172.05 177.12 173.17 177.42 174.05 176.92 C 174.93 176.41 175.23 175.29 174.73 174.41 L 174.23 173.54 C 173.72 172.67 172.60 172.36 171.72 172.87 C 170.85 173.37 170.54 174.49 171.05 175.37 Z M 171.58 176.28 L 172.11 177.15 C 172.64 178.01 173.76 178.29 174.62 177.76 C 175.49 177.23 175.76 176.11 175.23 175.24 L 174.70 174.37 C 174.17 173.51 173.04 173.24 172.18 173.77 C 171.32 174.29 171.05 175.42 171.58 176.28 Z M 172.14 177.19 L 172.67 178.02 C 173.22 178.86 174.35 179.10 175.20 178.56 C 176.05 178.01 176.29 176.87 175.74 176.03 L 175.20 175.20 C 174.65 174.36 173.52 174.12 172.67 174.67 C 171.83 175.21 171.59 176.35 172.14 177.19 Z M 172.70 178.06 L 173.27 178.88 C 173.84 179.71 174.98 179.92 175.81 179.34 C 176.64 178.77 176.85 177.63 176.27 176.80 L 175.71 175.98 C 175.13 175.15 173.99 174.95 173.17 175.52 C 172.34 176.09 172.13 177.23 172.70 178.06 Z M 173.31 178.93 L 173.91 179.74 C 174.51 180.55 175.65 180.72 176.46 180.12 C 177.27 179.52 177.44 178.37 176.84 177.56 L 176.24 176.75 C 175.64 175.94 174.49 175.77 173.68 176.38 C 172.87 176.98 172.70 178.12 173.31 178.93 Z M 173.95 179.80 L 174.58 180.58 C 175.21 181.36 176.36 181.49 177.15 180.86 C 177.93 180.22 178.06 179.07 177.42 178.29 L 176.80 177.51 C 176.16 176.72 175.01 176.60 174.23 177.23 C 173.44 177.86 173.32 179.01 173.95 179.80 Z M 174.62 180.63 L 175.27 181.37 C 175.93 182.13 177.08 182.21 177.84 181.55 C 178.60 180.88 178.68 179.73 178.02 178.97 L 177.38 178.23 C 176.72 177.47 175.56 177.39 174.80 178.06 C 174.04 178.72 173.96 179.87 174.62 180.63 Z M 175.31 181.42 L 175.99 182.14 C 176.68 182.88 177.84 182.92 178.57 182.23 C 179.31 181.54 179.34 180.38 178.65 179.64 L 177.98 178.92 C 177.29 178.18 176.13 178.15 175.39 178.84 C 174.66 179.53 174.62 180.68 175.31 181.42 Z M 176.03 182.19 L 176.75 182.90 C 177.47 183.62 178.62 183.61 179.34 182.90 C 180.05 182.19 180.05 181.03 179.33 180.32 L 178.61 179.60 C 177.90 178.89 176.74 178.89 176.03 179.60 C 175.32 180.32 175.32 181.47 176.03 182.19 Z M 176.79 182.94 L 177.54 183.64 C 178.27 184.33 179.43 184.29 180.12 183.56 C 180.81 182.82 180.77 181.67 180.04 180.98 L 179.29 180.28 C 178.56 179.59 177.40 179.63 176.71 180.36 C 176.02 181.10 176.06 182.25 176.79 182.94 Z M 177.58 183.67 L 178.34 184.34 C 179.09 185.01 180.24 184.94 180.91 184.19 C 181.58 183.43 181.51 182.28 180.75 181.62 L 179.99 180.95 C 179.24 180.28 178.09 180.35 177.43 181.10 C 176.76 181.86 176.83 183.01 177.58 183.67 Z M 178.39 184.38 L 179.17 185.03 C 179.94 185.66 181.09 185.56 181.73 184.78 C 182.36 184.01 182.26 182.87 181.48 182.23 L 180.70 181.58 C 179.93 180.94 178.79 181.05 178.15 181.82 C 177.51 182.60 177.62 183.74 178.39 184.38 Z M 179.23 185.07 L 180.02 185.67 C 180.82 186.28 181.95 186.12 182.56 185.33 C 183.16 184.53 183.01 183.40 182.22 182.79 L 181.42 182.19 C 180.63 181.58 179.49 181.74 178.89 182.53 C 178.28 183.32 178.44 184.46 179.23 185.07 Z M 180.10 185.72 L 180.92 186.28 C 181.74 186.84 182.86 186.64 183.43 185.81 C 183.99 184.99 183.78 183.87 182.96 183.31 L 182.14 182.74 C 181.32 182.18 180.20 182.39 179.63 183.21 C 179.07 184.03 179.28 185.15 180.10 185.72 Z M 181.02 186.33 L 181.89 186.86 C 182.74 187.37 183.84 187.09 184.35 186.24 C 184.86 185.39 184.59 184.29 183.74 183.78 L 182.86 183.25 C 182.01 182.74 180.91 183.02 180.40 183.87 C 179.89 184.72 180.17 185.82 181.02 186.33 Z M 181.99 186.90 L 182.87 187.36 C 183.75 187.81 184.83 187.47 185.28 186.59 C 185.73 185.72 185.39 184.64 184.52 184.19 L 183.64 183.73 C 182.76 183.28 181.68 183.62 181.23 184.50 C 180.78 185.37 181.12 186.45 181.99 186.90 Z M 182.97 187.40 L 183.87 187.79 C 184.76 188.19 185.81 187.79 186.21 186.89 C 186.61 186.00 186.21 184.95 185.31 184.55 L 184.42 184.15 C 183.52 183.75 182.47 184.15 182.07 185.05 C 181.67 185.95 182.08 187.00 182.97 187.40 Z M 183.96 187.82 L 184.88 188.17 C 185.79 188.52 186.81 188.07 187.16 187.16 C 187.51 186.25 187.06 185.23 186.15 184.88 L 185.22 184.52 C 184.31 184.17 183.29 184.63 182.94 185.54 C 182.59 186.45 183.05 187.47 183.96 187.82 Z M 184.97 188.19 L 185.92 188.50 C 186.83 188.80 187.82 188.31 188.13 187.39 C 188.43 186.47 187.93 185.48 187.01 185.18 L 186.06 184.86 C 185.14 184.56 184.15 185.06 183.85 185.98 C 183.55 186.90 184.05 187.89 184.97 188.19 Z M 186.01 188.51 L 186.97 188.78 C 187.90 189.03 188.85 188.49 189.10 187.56 C 189.36 186.64 188.81 185.69 187.89 185.43 L 186.92 185.17 C 186.00 184.92 185.05 185.46 184.79 186.38 C 184.54 187.31 185.08 188.26 186.01 188.51 Z M 187.07 188.78 L 188.04 188.99 C 188.97 189.19 189.89 188.60 190.09 187.68 C 190.29 186.75 189.70 185.84 188.77 185.64 L 187.79 185.43 C 186.87 185.23 185.95 185.82 185.75 186.74 C 185.55 187.67 186.14 188.58 187.07 188.78 Z M 188.14 188.99 L 189.13 189.15 C 190.06 189.29 190.93 188.66 191.07 187.73 C 191.22 186.81 190.59 185.94 189.66 185.79 L 188.67 185.64 C 187.74 185.49 186.88 186.13 186.73 187.05 C 186.58 187.98 187.22 188.85 188.14 188.99 Z M 189.22 189.14 L 190.21 189.25 C 191.13 189.34 191.96 188.68 192.06 187.75 C 192.15 186.83 191.49 186.01 190.57 185.91 L 189.57 185.80 C 188.65 185.70 187.82 186.37 187.73 187.29 C 187.63 188.21 188.30 189.04 189.22 189.14 Z M 190.28 189.23 L 191.27 189.30 C 192.19 189.36 192.98 188.67 193.04 187.76 C 193.10 186.84 192.41 186.05 191.50 185.99 L 190.50 185.92 C 189.58 185.86 188.79 186.55 188.73 187.47 C 188.67 188.38 189.36 189.17 190.28 189.23 Z M 191.32 189.28 L 192.32 189.32 C 193.22 189.36 193.98 188.65 194.02 187.75 C 194.06 186.84 193.35 186.08 192.45 186.05 L 191.45 186.01 C 190.54 185.97 189.78 186.67 189.75 187.58 C 189.71 188.48 190.41 189.25 191.32 189.28 Z M 192.36 189.30 L 193.35 189.32 C 194.24 189.33 194.98 188.62 194.99 187.72 C 195.01 186.83 194.30 186.09 193.40 186.08 L 192.41 186.07 C 191.51 186.05 190.78 186.76 190.76 187.66 C 190.75 188.55 191.46 189.29 192.36 189.30 Z M 193.40 189.30 L 194.40 189.28 C 195.28 189.27 195.99 188.54 195.97 187.66 C 195.96 186.78 195.24 186.07 194.35 186.09 L 193.35 186.10 C 192.47 186.12 191.77 186.84 191.78 187.72 C 191.79 188.60 192.52 189.31 193.40 189.30 Z M 194.46 189.26 L 195.46 189.20 C 196.33 189.16 197.00 188.42 196.95 187.55 C 196.91 186.68 196.17 186.01 195.30 186.06 L 194.29 186.11 C 193.43 186.16 192.76 186.90 192.80 187.77 C 192.85 188.64 193.59 189.30 194.46 189.26 Z M 195.53 189.18 L 196.51 189.08 C 197.36 189.00 197.99 188.24 197.90 187.39 C 197.82 186.53 197.06 185.90 196.20 185.99 L 195.23 186.08 C 194.38 186.17 193.75 186.93 193.83 187.78 C 193.92 188.64 194.68 189.26 195.53 189.18 Z M 196.58 189.06 L 197.54 188.91 C 198.38 188.79 198.96 188.00 198.84 187.16 C 198.71 186.33 197.93 185.75 197.09 185.87 L 196.13 186.02 C 195.29 186.14 194.71 186.92 194.83 187.76 C 194.96 188.60 195.74 189.18 196.58 189.06 Z M 197.63 188.88 L 198.60 188.68 C 199.43 188.50 199.95 187.70 199.78 186.88 C 199.61 186.06 198.81 185.53 197.99 185.70 L 197.01 185.91 C 196.19 186.08 195.66 186.88 195.83 187.70 C 196.00 188.52 196.80 189.05 197.63 188.88 Z M 198.69 188.64 L 199.69 188.36 C 200.49 188.15 200.96 187.32 200.75 186.52 C 200.53 185.72 199.70 185.25 198.90 185.47 L 197.90 185.74 C 197.10 185.96 196.63 186.78 196.85 187.58 C 197.06 188.38 197.89 188.85 198.69 188.64 Z M 199.77 188.33 L 200.70 188.02 C 201.48 187.76 201.90 186.91 201.64 186.14 C 201.38 185.36 200.54 184.94 199.76 185.20 L 198.83 185.51 C 198.05 185.77 197.63 186.61 197.89 187.39 C 198.15 188.16 198.99 188.59 199.77 188.33 Z M 200.76 187.98 L 201.69 187.62 C 202.44 187.32 202.82 186.47 202.52 185.71 C 202.23 184.95 201.37 184.58 200.62 184.87 L 199.69 185.23 C 198.94 185.53 198.56 186.38 198.86 187.14 C 199.15 187.90 200.00 188.27 200.76 187.98 Z M 201.74 187.58 L 202.67 187.17 C 203.41 186.85 203.74 185.98 203.41 185.24 C 203.09 184.51 202.22 184.17 201.48 184.50 L 200.56 184.91 C 199.82 185.24 199.49 186.10 199.81 186.84 C 200.14 187.58 201.00 187.91 201.74 187.58 Z M 202.72 187.14 L 203.63 186.68 C 204.35 186.33 204.65 185.46 204.29 184.74 C 203.93 184.02 203.06 183.73 202.34 184.08 L 201.43 184.54 C 200.71 184.89 200.42 185.76 200.78 186.48 C 201.13 187.20 202.00 187.49 202.72 187.14 Z M 203.69 186.65 L 204.57 186.16 C 205.27 185.77 205.52 184.89 205.14 184.20 C 204.75 183.50 203.87 183.25 203.18 183.63 L 202.29 184.12 C 201.59 184.51 201.34 185.38 201.73 186.08 C 202.11 186.78 202.99 187.03 203.69 186.65 Z M 204.62 186.12 L 205.47 185.60 C 206.15 185.19 206.36 184.30 205.95 183.63 C 205.54 182.95 204.65 182.74 203.98 183.15 L 203.13 183.67 C 202.45 184.08 202.24 184.97 202.65 185.64 C 203.06 186.32 203.95 186.53 204.62 186.12 Z M 205.52 185.57 L 206.35 185.02 C 207.01 184.58 207.18 183.69 206.74 183.03 C 206.31 182.37 205.42 182.19 204.76 182.63 L 203.93 183.18 C 203.27 183.62 203.09 184.51 203.53 185.17 C 203.97 185.83 204.86 186.01 205.52 185.57 Z M 206.38 184.99 L 207.20 184.41 C 207.84 183.95 207.99 183.05 207.53 182.41 C 207.07 181.77 206.17 181.62 205.53 182.08 L 204.72 182.66 C 204.08 183.12 203.93 184.01 204.39 184.66 C 204.85 185.30 205.74 185.45 206.38 184.99 Z M 207.23 184.38 L 208.03 183.77 C 208.66 183.29 208.78 182.40 208.31 181.77 C 207.83 181.14 206.93 181.02 206.31 181.50 L 205.50 182.11 C 204.87 182.58 204.75 183.48 205.23 184.10 C 205.70 184.73 206.60 184.86 207.23 184.38 Z M 208.05 183.75 L 208.82 183.14 C 209.44 182.65 209.55 181.76 209.06 181.14 C 208.57 180.52 207.67 180.42 207.06 180.90 L 206.28 181.52 C 205.67 182.00 205.56 182.90 206.05 183.52 C 206.54 184.13 207.43 184.24 208.05 183.75 Z M 208.84 183.13 L 209.61 182.50 C 210.22 182.00 210.31 181.10 209.81 180.49 C 209.32 179.88 208.42 179.79 207.81 180.29 L 207.04 180.92 C 206.43 181.42 206.34 182.31 206.84 182.92 C 207.33 183.53 208.23 183.62 208.84 183.13 Z M 209.62 182.49 L 210.39 181.84 C 211.00 181.34 211.08 180.44 210.57 179.84 C 210.07 179.23 209.17 179.15 208.57 179.66 L 207.80 180.30 C 207.19 180.80 207.11 181.70 207.62 182.31 C 208.12 182.91 209.02 182.99 209.62 182.49 Z M 210.40 181.84 L 211.17 181.19 C 211.77 180.68 211.85 179.78 211.34 179.18 C 210.83 178.58 209.93 178.50 209.33 179.01 L 208.56 179.66 C 207.96 180.17 207.88 181.07 208.39 181.67 C 208.90 182.27 209.80 182.35 210.40 181.84 Z M 211.18 181.18 L 211.71 180.73 C 212.31 180.22 212.38 179.32 211.87 178.72 C 211.36 178.12 210.46 178.05 209.86 178.56 L 209.33 179.01 C 208.73 179.52 208.66 180.42 209.17 181.02 C 209.68 181.62 210.58 181.69 211.18 181.18 Z"
      fill="black"
      fill-rule="nonzero" /></svg>