<svg xmlns="http://www.w3.org/2000/svg" width="300" height="300" viewBox="0 0 300 300">
<path d="M 106.87 117.90 L 107.48 118.69 C 108.01 119.38 109.00 119.51 109.69 118.99 C 110.38 118.46 110.51 117.47 109.98 116.78 L 109.38 115.98 C 108.85 115.29 107.86 115.16 107.17 115.69 C 106.48 116.22 106.34 117.21 106.87 117.90 Z M 107.47 118.70 L 108.08 119.49 C 108.61 120.18 109.61 120.32 110.30 119.79 C 110.99 119.25 111.13 118.26 110.60 117.57 L 109.99 116.77 C 109.46 116.08 108.46 115.95 107.77 116.48 C 107.08 117.01 106.94 118.00 107.47 118.70 Z M 108.08 119.49 L 108.68 120.29 C 109.22 120.99 110.21 121.12 110.91 120.59 C 111.61 120.05 111.74 119.05 111.21 118.36 L 110.60 117.56 C 110.07 116.86 109.07 116.73 108.37 117.27 C 107.68 117.80 107.54 118.80 108.08 119.49 Z M 108.68 120.29 L 109.28 121.09 C 109.82 121.79 110.82 121.92 111.52 121.39 C 112.22 120.85 112.36 119.85 111.82 119.15 L 111.22 118.35 C 110.68 117.65 109.68 117.52 108.98 118.05 C 108.28 118.59 108.14 119.59 108.68 120.29 Z M 109.28 121.09 L 109.89 121.89 C 110.42 122.59 111.43 122.72 112.14 122.19 C 112.84 121.65 112.97 120.64 112.44 119.94 L 111.83 119.14 C 111.29 118.44 110.28 118.30 109.58 118.84 C 108.88 119.38 108.74 120.39 109.28 121.09 Z M 109.88 121.89 L 110.28 122.42 C 110.82 123.12 111.84 123.26 112.54 122.72 C 113.25 122.18 113.38 121.17 112.84 120.46 L 112.44 119.93 C 111.90 119.23 110.89 119.09 110.18 119.63 C 109.48 120.17 109.34 121.18 109.88 121.89 Z"
      fill="black"
      fill-rule="nonzero" /><path d="M 111.22 140.69 L 110.03 140.55 C 109.19 140.45 108.43 141.04 108.33 141.88 C 108.23 142.72 108.83 143.48 109.66 143.58 L 110.85 143.73 C 111.69 143.83 112.45 143.23 112.55 142.39 C 112.65 141.55 112.06 140.79 111.22 140.69 Z M 109.83 140.53 L 108.81 140.54 C 107.96 140.55 107.29 141.24 107.29 142.09 C 107.30 142.93 107.99 143.61 108.84 143.60 L 109.86 143.60 C 110.71 143.59 111.38 142.90 111.38 142.05 C 111.37 141.21 110.68 140.53 109.83 140.53 Z M 108.20 140.68 L 107.50 140.99 C 106.73 141.33 106.38 142.24 106.73 143.01 C 107.07 143.78 107.98 144.13 108.75 143.78 L 109.45 143.47 C 110.22 143.13 110.57 142.22 110.22 141.45 C 109.88 140.68 108.97 140.33 108.20 140.68 Z M 106.68 141.88 L 106.45 142.55 C 106.17 143.35 106.59 144.22 107.39 144.50 C 108.19 144.78 109.06 144.36 109.34 143.56 L 109.57 142.89 C 109.85 142.09 109.43 141.22 108.63 140.94 C 107.83 140.66 106.96 141.08 106.68 141.88 Z M 106.37 143.23 L 106.48 144.18 C 106.58 145.02 107.34 145.62 108.18 145.52 C 109.02 145.42 109.62 144.66 109.52 143.82 L 109.41 142.88 C 109.32 142.04 108.56 141.44 107.72 141.53 C 106.88 141.63 106.27 142.39 106.37 143.23 Z M 106.54 144.45 L 106.87 145.53 C 107.12 146.34 107.97 146.80 108.78 146.55 C 109.59 146.30 110.04 145.45 109.80 144.64 L 109.47 143.55 C 109.22 142.75 108.36 142.29 107.56 142.54 C 106.75 142.79 106.29 143.64 106.54 144.45 Z M 106.92 145.65 L 107.33 146.69 C 107.65 147.47 108.54 147.85 109.32 147.54 C 110.10 147.22 110.48 146.33 110.17 145.55 L 109.75 144.52 C 109.44 143.74 108.55 143.36 107.77 143.67 C 106.99 143.98 106.61 144.87 106.92 145.65 Z M 107.37 146.75 L 107.79 147.65 C 108.13 148.41 109.03 148.75 109.79 148.40 C 110.55 148.05 110.89 147.16 110.54 146.40 L 110.13 145.49 C 109.78 144.73 108.88 144.39 108.12 144.74 C 107.36 145.09 107.02 145.99 107.37 146.75 Z M 107.82 147.68 L 108.25 148.57 C 108.62 149.31 109.51 149.62 110.26 149.25 C 111.00 148.89 111.30 147.99 110.94 147.25 L 110.51 146.36 C 110.14 145.62 109.24 145.31 108.50 145.68 C 107.76 146.04 107.45 146.94 107.82 147.68 Z M 108.27 148.57 L 108.72 149.46 C 109.09 150.20 109.98 150.49 110.71 150.12 C 111.44 149.76 111.74 148.87 111.37 148.13 L 110.92 147.24 C 110.55 146.51 109.66 146.21 108.93 146.58 C 108.20 146.95 107.90 147.84 108.27 148.57 Z M 108.73 149.45 L 109.15 150.32 C 109.51 151.05 110.39 151.35 111.12 150.99 C 111.85 150.63 112.15 149.75 111.79 149.02 L 111.36 148.15 C 111.01 147.42 110.13 147.12 109.40 147.48 C 108.67 147.84 108.37 148.72 108.73 149.45 Z M 109.15 150.29 L 109.55 151.15 C 109.90 151.88 110.77 152.19 111.50 151.85 C 112.23 151.51 112.54 150.64 112.20 149.91 L 111.79 149.05 C 111.45 148.32 110.58 148.01 109.85 148.35 C 109.12 148.69 108.81 149.56 109.15 150.29 Z M 109.55 151.12 L 109.95 152.03 C 110.28 152.76 111.14 153.09 111.88 152.76 C 112.61 152.43 112.94 151.57 112.61 150.84 L 112.20 149.93 C 111.87 149.20 111.01 148.87 110.28 149.20 C 109.55 149.53 109.22 150.39 109.55 151.12 Z M 109.95 152.00 L 110.35 152.95 C 110.66 153.69 111.52 154.03 112.25 153.72 C 112.99 153.41 113.33 152.55 113.02 151.82 L 112.61 150.87 C 112.30 150.13 111.45 149.79 110.71 150.10 C 109.98 150.41 109.63 151.26 109.95 152.00 Z M 110.34 152.92 L 110.74 153.92 C 111.04 154.66 111.88 155.02 112.62 154.72 C 113.36 154.42 113.72 153.58 113.43 152.84 L 113.03 151.85 C 112.73 151.10 111.89 150.75 111.15 151.04 C 110.41 151.34 110.05 152.18 110.34 152.92 Z M 110.74 153.89 L 111.11 154.86 C 111.39 155.60 112.22 155.98 112.97 155.69 C 113.71 155.41 114.08 154.58 113.80 153.84 L 113.43 152.87 C 113.15 152.12 112.32 151.75 111.57 152.03 C 110.83 152.31 110.46 153.15 110.74 153.89 Z M 111.10 154.84 L 111.46 155.82 C 111.73 156.56 112.55 156.95 113.30 156.68 C 114.04 156.41 114.43 155.59 114.16 154.84 L 113.81 153.86 C 113.54 153.11 112.71 152.72 111.96 153.00 C 111.22 153.27 110.83 154.09 111.10 154.84 Z M 111.45 155.80 L 111.79 156.76 C 112.05 157.51 112.86 157.91 113.61 157.65 C 114.36 157.39 114.76 156.57 114.50 155.82 L 114.16 154.86 C 113.90 154.11 113.09 153.71 112.34 153.97 C 111.59 154.23 111.19 155.05 111.45 155.80 Z M 111.78 156.75 L 112.09 157.67 C 112.34 158.42 113.15 158.82 113.90 158.57 C 114.65 158.32 115.06 157.51 114.81 156.76 L 114.50 155.84 C 114.25 155.09 113.44 154.68 112.69 154.93 C 111.94 155.18 111.53 156.00 111.78 156.75 Z M 112.09 157.65 L 112.38 158.58 C 112.62 159.33 113.43 159.74 114.18 159.50 C 114.93 159.26 115.35 158.46 115.11 157.71 L 114.81 156.78 C 114.57 156.03 113.77 155.61 113.01 155.85 C 112.26 156.09 111.85 156.90 112.09 157.65 Z M 112.38 158.55 L 112.69 159.59 C 112.92 160.35 113.72 160.78 114.47 160.55 C 115.23 160.32 115.65 159.53 115.43 158.77 L 115.11 157.73 C 114.89 156.97 114.09 156.55 113.33 156.77 C 112.58 157.00 112.15 157.80 112.38 158.55 Z M 112.68 159.56 L 112.94 160.50 C 113.15 161.26 113.94 161.70 114.70 161.49 C 115.46 161.28 115.91 160.49 115.69 159.73 L 115.43 158.80 C 115.22 158.04 114.44 157.60 113.68 157.81 C 112.92 158.02 112.47 158.80 112.68 159.56 Z M 112.94 160.47 L 113.16 161.35 C 113.36 162.12 114.13 162.58 114.89 162.39 C 115.66 162.19 116.12 161.42 115.93 160.65 L 115.70 159.77 C 115.51 159.00 114.73 158.54 113.97 158.73 C 113.20 158.93 112.74 159.70 112.94 160.47 Z M 113.16 161.33 L 113.37 162.26 C 113.55 163.02 114.32 163.50 115.08 163.32 C 115.85 163.14 116.33 162.38 116.15 161.61 L 115.93 160.68 C 115.75 159.91 114.99 159.44 114.22 159.61 C 113.45 159.79 112.98 160.56 113.16 161.33 Z M 113.37 162.24 L 113.58 163.20 C 113.74 163.97 114.50 164.46 115.27 164.29 C 116.04 164.13 116.53 163.37 116.36 162.60 L 116.15 161.63 C 115.99 160.86 115.23 160.37 114.46 160.54 C 113.69 160.71 113.20 161.47 113.37 162.24 Z M 113.57 163.19 L 113.78 164.18 C 113.94 164.95 114.69 165.45 115.46 165.29 C 116.23 165.14 116.73 164.38 116.57 163.61 L 116.37 162.61 C 116.21 161.84 115.46 161.35 114.69 161.50 C 113.91 161.66 113.42 162.41 113.57 163.19 Z M 113.78 164.17 L 113.97 165.17 C 114.12 165.94 114.87 166.44 115.64 166.29 C 116.42 166.14 116.92 165.39 116.77 164.62 L 116.57 163.62 C 116.42 162.85 115.67 162.35 114.90 162.50 C 114.13 162.65 113.62 163.40 113.78 164.17 Z M 113.97 165.16 L 114.15 166.14 C 114.30 166.92 115.04 167.43 115.81 167.29 C 116.59 167.14 117.10 166.40 116.96 165.62 L 116.77 164.63 C 116.63 163.86 115.88 163.35 115.11 163.49 C 114.34 163.64 113.82 164.38 113.97 165.16 Z M 114.15 166.12 L 114.32 167.12 C 114.45 167.89 115.19 168.41 115.96 168.28 C 116.74 168.15 117.26 167.41 117.13 166.64 L 116.96 165.64 C 116.83 164.87 116.09 164.35 115.31 164.48 C 114.54 164.61 114.02 165.35 114.15 166.12 Z M 114.31 167.09 L 114.46 168.07 C 114.58 168.85 115.30 169.38 116.08 169.27 C 116.86 169.15 117.40 168.43 117.28 167.65 L 117.13 166.67 C 117.02 165.89 116.29 165.35 115.51 165.47 C 114.74 165.58 114.20 166.31 114.31 167.09 Z M 114.46 168.03 L 114.58 169.05 C 114.67 169.84 115.39 170.39 116.17 170.30 C 116.95 170.20 117.50 169.49 117.41 168.71 L 117.29 167.69 C 117.19 166.91 116.48 166.35 115.70 166.44 C 114.92 166.54 114.36 167.25 114.46 168.03 Z M 114.58 169.02 L 114.68 170.02 C 114.75 170.80 115.45 171.37 116.23 171.29 C 117.02 171.22 117.59 170.52 117.51 169.73 L 117.41 168.74 C 117.33 167.96 116.64 167.39 115.85 167.46 C 115.07 167.54 114.50 168.24 114.58 169.02 Z M 114.67 170.00 L 114.76 170.97 C 114.83 171.75 115.52 172.33 116.30 172.27 C 117.09 172.20 117.67 171.51 117.60 170.72 L 117.51 169.75 C 117.44 168.97 116.75 168.39 115.97 168.46 C 115.19 168.52 114.61 169.22 114.67 170.00 Z M 114.76 170.97 L 114.83 171.86 C 114.90 172.65 115.59 173.23 116.37 173.16 C 117.16 173.10 117.74 172.41 117.67 171.62 L 117.60 170.73 C 117.53 169.94 116.84 169.36 116.06 169.43 C 115.27 169.49 114.69 170.18 114.76 170.97 Z M 114.83 171.85 L 114.91 172.78 C 114.97 173.56 115.65 174.15 116.44 174.09 C 117.22 174.03 117.81 173.34 117.75 172.56 L 117.68 171.63 C 117.61 170.85 116.93 170.26 116.14 170.32 C 115.36 170.38 114.77 171.07 114.83 171.85 Z M 114.90 172.76 L 114.97 173.79 C 115.02 174.58 115.70 175.17 116.49 175.12 C 117.27 175.07 117.87 174.40 117.82 173.61 L 117.75 172.58 C 117.70 171.79 117.02 171.19 116.23 171.25 C 115.45 171.30 114.85 171.97 114.90 172.76 Z M 114.97 173.77 L 115.02 174.86 C 115.06 175.65 115.73 176.25 116.52 176.21 C 117.30 176.18 117.91 175.51 117.87 174.72 L 117.82 173.63 C 117.78 172.85 117.11 172.24 116.32 172.28 C 115.54 172.32 114.93 172.99 114.97 173.77 Z M 115.02 174.84 L 115.06 175.75 C 115.09 176.54 115.75 177.15 116.53 177.13 C 117.32 177.10 117.93 176.43 117.91 175.65 L 117.87 174.74 C 117.84 173.95 117.18 173.34 116.39 173.37 C 115.61 173.39 114.99 174.06 115.02 174.84 Z M 115.06 175.74 L 115.08 176.73 C 115.11 177.51 115.76 178.13 116.55 178.11 C 117.34 178.08 117.96 177.43 117.94 176.64 L 117.91 175.66 C 117.88 174.87 117.23 174.25 116.44 174.28 C 115.65 174.30 115.03 174.96 115.06 175.74 Z M 115.08 176.72 L 115.11 177.75 C 115.13 178.53 115.78 179.16 116.57 179.14 C 117.36 179.12 117.98 178.47 117.96 177.68 L 117.94 176.65 C 117.92 175.86 117.26 175.24 116.48 175.26 C 115.69 175.28 115.07 175.93 115.08 176.72 Z M 115.11 177.74 L 115.13 178.80 C 115.14 179.58 115.79 180.21 116.58 180.20 C 117.37 180.18 117.99 179.53 117.98 178.74 L 117.96 177.69 C 117.95 176.90 117.30 176.27 116.51 176.29 C 115.72 176.30 115.09 176.95 115.11 177.74 Z M 115.13 178.79 L 115.14 179.85 C 115.15 180.64 115.80 181.27 116.59 181.26 C 117.38 181.25 118.01 180.60 118.00 179.81 L 117.98 178.75 C 117.97 177.96 117.32 177.33 116.53 177.34 C 115.75 177.35 115.12 178.00 115.13 178.79 Z M 115.14 179.84 L 115.15 180.92 C 115.16 181.71 115.80 182.34 116.59 182.33 C 117.38 182.33 118.01 181.68 118.01 180.89 L 118.00 179.82 C 117.99 179.03 117.35 178.40 116.56 178.40 C 115.77 178.41 115.13 179.05 115.14 179.84 Z M 115.15 180.90 L 115.14 181.95 C 115.14 182.74 115.78 183.38 116.57 183.38 C 117.36 183.39 118.00 182.75 118.00 181.96 L 118.01 180.91 C 118.01 180.12 117.37 179.48 116.58 179.48 C 115.79 179.47 115.15 180.11 115.15 180.90 Z M 115.14 181.92 L 115.12 182.93 C 115.10 183.72 115.72 184.37 116.51 184.39 C 117.30 184.41 117.96 183.79 117.98 183.00 L 118.00 181.99 C 118.02 181.20 117.40 180.54 116.61 180.52 C 115.82 180.50 115.16 181.13 115.14 181.92 Z M 115.12 182.88 L 115.06 183.85 C 115.02 184.64 115.62 185.31 116.41 185.36 C 117.20 185.40 117.88 184.80 117.92 184.01 L 117.98 183.04 C 118.02 182.26 117.42 181.58 116.63 181.53 C 115.84 181.49 115.16 182.09 115.12 182.88 Z M 115.07 183.78 L 114.98 184.69 C 114.90 185.48 115.47 186.18 116.26 186.26 C 117.05 186.34 117.75 185.76 117.83 184.98 L 117.92 184.07 C 118.00 183.28 117.43 182.58 116.64 182.50 C 115.85 182.42 115.15 183.00 115.07 183.78 Z M 114.99 184.59 L 114.81 185.65 C 114.68 186.43 115.20 187.17 115.98 187.30 C 116.77 187.44 117.51 186.91 117.64 186.13 L 117.82 185.07 C 117.95 184.29 117.43 183.55 116.64 183.42 C 115.86 183.28 115.12 183.81 114.99 184.59 Z M 114.83 185.52 L 114.57 186.50 C 114.37 187.27 114.83 188.06 115.59 188.26 C 116.36 188.47 117.15 188.01 117.36 187.24 L 117.62 186.26 C 117.82 185.49 117.36 184.70 116.59 184.50 C 115.82 184.29 115.04 184.75 114.83 185.52 Z M 114.61 186.36 L 114.27 187.26 C 113.99 188.01 114.37 188.84 115.11 189.12 C 115.86 189.41 116.69 189.03 116.97 188.29 L 117.31 187.38 C 117.60 186.64 117.22 185.80 116.47 185.52 C 115.73 185.24 114.90 185.62 114.61 186.36 Z M 114.33 187.12 L 113.91 187.95 C 113.55 188.67 113.83 189.54 114.54 189.90 C 115.26 190.26 116.13 189.98 116.49 189.26 L 116.91 188.43 C 117.27 187.72 116.99 186.85 116.28 186.48 C 115.56 186.12 114.69 186.41 114.33 187.12 Z M 113.99 187.81 L 113.43 188.65 C 112.99 189.32 113.17 190.22 113.84 190.66 C 114.51 191.11 115.41 190.92 115.85 190.25 L 116.41 189.41 C 116.85 188.74 116.67 187.84 116.00 187.40 C 115.33 186.96 114.43 187.14 113.99 187.81 Z M 113.54 188.49 L 112.88 189.25 C 112.35 189.85 112.42 190.78 113.02 191.31 C 113.63 191.84 114.55 191.77 115.08 191.17 L 115.74 190.41 C 116.27 189.80 116.21 188.88 115.60 188.35 C 114.99 187.82 114.07 187.88 113.54 188.49 Z M 113.04 189.08 L 112.28 189.71 C 111.66 190.23 111.58 191.16 112.10 191.78 C 112.61 192.40 113.54 192.48 114.16 191.97 L 114.92 191.33 C 115.54 190.81 115.63 189.89 115.11 189.27 C 114.59 188.65 113.67 188.56 113.04 189.08 Z M 112.50 189.55 L 111.64 190.04 C 110.93 190.43 110.67 191.33 111.07 192.05 C 111.47 192.76 112.37 193.01 113.08 192.61 L 113.94 192.13 C 114.65 191.73 114.91 190.83 114.51 190.12 C 114.11 189.41 113.21 189.15 112.50 189.55 Z M 111.90 189.90 L 110.95 190.20 C 110.17 190.45 109.73 191.30 109.98 192.08 C 110.24 192.87 111.08 193.30 111.86 193.05 L 112.81 192.75 C 113.60 192.50 114.03 191.66 113.78 190.87 C 113.53 190.08 112.69 189.65 111.90 189.90 Z M 111.26 190.11 L 110.27 190.21 C 109.44 190.29 108.82 191.03 108.90 191.87 C 108.98 192.70 109.73 193.32 110.56 193.24 L 111.55 193.14 C 112.39 193.06 113.00 192.32 112.92 191.48 C 112.84 190.65 112.10 190.03 111.26 190.11 Z M 110.63 190.19 L 109.64 190.05 C 108.80 189.93 108.02 190.52 107.90 191.37 C 107.78 192.22 108.37 193.00 109.22 193.12 L 110.20 193.25 C 111.05 193.37 111.83 192.78 111.95 191.94 C 112.07 191.09 111.48 190.31 110.63 190.19 Z M 110.04 190.14 L 109.06 189.72 C 108.27 189.38 107.34 189.75 107.00 190.55 C 106.66 191.35 107.04 192.27 107.83 192.61 L 108.81 193.03 C 109.61 193.37 110.53 193.00 110.87 192.20 C 111.21 191.40 110.84 190.48 110.04 190.14 Z M 109.43 189.91 L 108.60 189.26 C 107.91 188.72 106.91 188.84 106.36 189.53 C 105.82 190.22 105.94 191.22 106.63 191.77 L 107.47 192.42 C 108.16 192.96 109.16 192.84 109.70 192.15 C 110.24 191.46 110.12 190.46 109.43 189.91 Z M 108.94 189.60 L 108.41 188.82 C 107.91 188.09 106.90 187.90 106.17 188.40 C 105.44 188.91 105.25 189.91 105.75 190.64 L 106.29 191.42 C 106.79 192.16 107.79 192.35 108.53 191.84 C 109.26 191.34 109.45 190.34 108.94 189.60 Z M 108.69 189.51 L 108.58 188.70 C 108.46 187.81 107.64 187.19 106.75 187.31 C 105.86 187.43 105.24 188.25 105.36 189.14 L 105.47 189.95 C 105.59 190.84 106.41 191.47 107.30 191.34 C 108.19 191.22 108.81 190.40 108.69 189.51 Z M 108.47 189.58 L 108.81 188.80 C 109.17 187.97 108.79 187.01 107.97 186.65 C 107.14 186.29 106.18 186.66 105.81 187.49 L 105.47 188.27 C 105.11 189.10 105.49 190.06 106.31 190.42 C 107.14 190.78 108.10 190.41 108.47 189.58 Z M 108.52 189.25 L 109.21 188.50 C 109.81 187.83 109.77 186.80 109.10 186.19 C 108.44 185.58 107.40 185.62 106.79 186.29 L 106.10 187.04 C 105.50 187.71 105.54 188.74 106.21 189.35 C 106.87 189.96 107.91 189.91 108.52 189.25 Z M 109.02 188.67 L 109.93 187.94 C 110.64 187.38 110.76 186.35 110.20 185.65 C 109.64 184.94 108.61 184.82 107.90 185.38 L 106.98 186.11 C 106.28 186.67 106.16 187.70 106.72 188.41 C 107.28 189.12 108.31 189.23 109.02 188.67 Z M 109.84 188.00 L 110.64 187.46 C 111.38 186.95 111.56 185.93 111.05 185.19 C 110.54 184.45 109.53 184.26 108.79 184.77 L 107.99 185.32 C 107.25 185.83 107.07 186.85 107.58 187.59 C 108.09 188.33 109.10 188.51 109.84 188.00 Z M 110.59 187.48 L 111.43 186.94 C 112.18 186.45 112.40 185.45 111.92 184.70 C 111.43 183.95 110.43 183.73 109.68 184.21 L 108.84 184.75 C 108.09 185.24 107.87 186.24 108.35 186.99 C 108.83 187.74 109.83 187.96 110.59 187.48 Z M 111.40 186.94 L 112.26 186.41 C 113.02 185.94 113.25 184.95 112.79 184.20 C 112.33 183.44 111.34 183.21 110.58 183.67 L 109.71 184.21 C 108.96 184.67 108.72 185.66 109.19 186.42 C 109.65 187.17 110.64 187.41 111.40 186.94 Z M 112.25 186.40 L 113.12 185.88 C 113.87 185.42 114.11 184.44 113.65 183.69 C 113.20 182.93 112.22 182.69 111.46 183.15 L 110.60 183.68 C 109.84 184.14 109.60 185.12 110.06 185.87 C 110.52 186.62 111.50 186.86 112.25 186.40 Z M 113.12 185.86 L 113.98 185.33 C 114.72 184.87 114.95 183.90 114.50 183.16 C 114.04 182.41 113.07 182.18 112.32 182.64 L 111.46 183.17 C 110.72 183.63 110.49 184.60 110.94 185.34 C 111.40 186.09 112.38 186.32 113.12 185.86 Z M 113.98 185.31 L 114.83 184.78 C 115.56 184.32 115.78 183.35 115.32 182.62 C 114.86 181.89 113.90 181.67 113.16 182.13 L 112.32 182.66 C 111.59 183.12 111.37 184.08 111.83 184.82 C 112.29 185.55 113.25 185.77 113.98 185.31 Z M 114.82 184.76 L 115.66 184.23 C 116.38 183.78 116.60 182.82 116.14 182.10 C 115.68 181.38 114.73 181.16 114.00 181.62 L 113.17 182.15 C 112.45 182.60 112.23 183.56 112.69 184.28 C 113.14 185.00 114.10 185.22 114.82 184.76 Z M 115.65 184.22 L 116.49 183.69 C 117.20 183.24 117.42 182.30 116.97 181.58 C 116.52 180.86 115.57 180.65 114.86 181.10 L 114.02 181.63 C 113.30 182.08 113.08 183.03 113.53 183.74 C 113.99 184.46 114.93 184.67 115.65 184.22 Z M 116.47 183.69 L 117.29 183.18 C 118.00 182.74 118.22 181.81 117.78 181.09 C 117.34 180.38 116.41 180.16 115.69 180.60 L 114.88 181.11 C 114.16 181.55 113.94 182.48 114.38 183.19 C 114.82 183.90 115.76 184.13 116.47 183.69 Z M 117.27 183.18 L 117.99 182.74 C 118.70 182.31 118.92 181.39 118.49 180.68 C 118.06 179.97 117.14 179.74 116.43 180.17 L 115.71 180.60 C 115.00 181.03 114.77 181.96 115.20 182.67 C 115.63 183.38 116.56 183.61 117.27 183.18 Z M 117.98 182.74 L 118.74 182.28 C 119.45 181.85 119.68 180.93 119.26 180.23 C 118.83 179.52 117.91 179.29 117.20 179.71 L 116.44 180.17 C 115.73 180.60 115.50 181.52 115.92 182.23 C 116.35 182.94 117.27 183.16 117.98 182.74 Z M 118.74 182.27 L 119.57 181.77 C 120.28 181.35 120.51 180.43 120.08 179.73 C 119.66 179.02 118.74 178.80 118.04 179.22 L 117.21 179.72 C 116.50 180.14 116.27 181.06 116.70 181.76 C 117.12 182.47 118.03 182.70 118.74 182.27 Z M 119.57 181.76 L 120.50 181.20 C 121.20 180.78 121.42 179.87 121.00 179.17 C 120.57 178.47 119.66 178.25 118.96 178.67 L 118.04 179.23 C 117.34 179.65 117.12 180.56 117.54 181.26 C 117.96 181.96 118.87 182.18 119.57 181.76 Z M 120.50 181.19 L 121.53 180.56 C 122.23 180.13 122.44 179.22 122.02 178.53 C 121.59 177.84 120.69 177.62 119.99 178.05 L 118.96 178.68 C 118.27 179.11 118.05 180.01 118.48 180.71 C 118.90 181.40 119.81 181.62 120.50 181.19 Z M 121.54 180.55 L 122.32 180.06 C 123.01 179.63 123.22 178.73 122.79 178.04 C 122.36 177.35 121.46 177.14 120.77 177.57 L 119.99 178.06 C 119.30 178.48 119.09 179.39 119.52 180.07 C 119.95 180.76 120.85 180.97 121.54 180.55 Z M 122.32 180.05 L 123.08 179.58 C 123.76 179.15 123.97 178.25 123.54 177.57 C 123.11 176.88 122.21 176.68 121.53 177.10 L 120.77 177.58 C 120.09 178.01 119.88 178.91 120.31 179.59 C 120.74 180.28 121.64 180.48 122.32 180.05 Z M 123.08 179.57 L 123.88 179.07 C 124.56 178.64 124.76 177.74 124.33 177.06 C 123.90 176.38 123.01 176.18 122.32 176.61 L 121.53 177.11 C 120.85 177.54 120.64 178.44 121.07 179.12 C 121.50 179.80 122.40 180.00 123.08 179.57 Z M 123.88 179.07 L 124.71 178.54 C 125.39 178.11 125.59 177.21 125.16 176.53 C 124.73 175.86 123.83 175.65 123.16 176.08 L 122.32 176.61 C 121.65 177.04 121.44 177.94 121.87 178.62 C 122.30 179.29 123.20 179.50 123.88 179.07 Z M 124.71 178.54 L 125.57 177.99 C 126.25 177.56 126.45 176.66 126.02 175.99 C 125.59 175.31 124.69 175.11 124.02 175.54 L 123.16 176.09 C 122.48 176.52 122.28 177.41 122.71 178.09 C 123.14 178.77 124.04 178.96 124.71 178.54 Z M 125.57 177.98 L 126.46 177.42 C 127.13 176.99 127.33 176.10 126.90 175.42 C 126.47 174.75 125.58 174.55 124.90 174.98 L 124.02 175.55 C 123.35 175.97 123.15 176.87 123.58 177.54 C 124.00 178.21 124.90 178.41 125.57 177.98 Z M 126.46 177.42 L 127.36 176.84 C 128.03 176.41 128.23 175.52 127.80 174.85 C 127.37 174.18 126.48 173.98 125.81 174.41 L 124.90 174.99 C 124.23 175.41 124.04 176.31 124.46 176.98 C 124.89 177.65 125.78 177.84 126.46 177.42 Z M 127.36 176.84 L 128.27 176.25 C 128.94 175.83 129.13 174.94 128.71 174.27 C 128.28 173.60 127.39 173.40 126.72 173.83 L 125.81 174.41 C 125.14 174.84 124.94 175.73 125.37 176.40 C 125.80 177.07 126.69 177.26 127.36 176.84 Z M 128.27 176.25 L 129.14 175.69 C 129.80 175.27 130.00 174.38 129.57 173.71 C 129.15 173.05 128.26 172.85 127.59 173.28 L 126.72 173.83 C 126.06 174.26 125.86 175.15 126.29 175.81 C 126.71 176.48 127.60 176.68 128.27 176.25 Z"
      fill="black"
      fill-rule="nonzero" /><path d="M 149.98 112.58 L 148.77 112.10 C 147.97 111.78 147.06 112.17 146.74 112.97 C 146.42 113.77 146.81 114.68 147.62 115.00 L 148.82 115.48 C 149.62 115.80 150.53 115.41 150.85 114.61 C 151.17 113.81 150.78 112.90 149.98 112.58 Z M 148.88 112.14 L 147.90 111.66 C 147.12 111.28 146.18 111.61 145.80 112.39 C 145.43 113.17 145.75 114.11 146.53 114.48 L 147.51 114.96 C 148.29 115.34 149.23 115.01 149.61 114.23 C 149.98 113.46 149.66 112.52 148.88 112.14 Z M 148.25 111.89 L 147.72 111.42 C 147.07 110.85 146.07 110.91 145.50 111.56 C 144.93 112.22 144.99 113.21 145.64 113.79 L 146.18 114.25 C 146.83 114.83 147.82 114.77 148.40 114.11 C 148.97 113.46 148.91 112.47 148.25 111.89 Z M 148.23 112.89 L 148.31 112.48 C 148.47 111.62 147.90 110.80 147.05 110.64 C 146.19 110.48 145.37 111.05 145.21 111.90 L 145.13 112.32 C 144.97 113.17 145.54 114.00 146.39 114.16 C 147.25 114.31 148.07 113.75 148.23 112.89 Z M 147.62 113.51 L 148.21 113.13 C 148.94 112.65 149.14 111.68 148.67 110.95 C 148.19 110.21 147.21 110.01 146.48 110.49 L 145.90 110.87 C 145.17 111.35 144.96 112.32 145.44 113.05 C 145.91 113.78 146.89 113.99 147.62 113.51 Z M 147.88 113.29 L 148.91 112.93 C 149.73 112.63 150.15 111.72 149.86 110.90 C 149.56 110.08 148.65 109.66 147.83 109.95 L 146.81 110.32 C 145.99 110.62 145.56 111.52 145.86 112.35 C 146.16 113.17 147.06 113.59 147.88 113.29 Z M 148.76 112.97 L 150.16 112.62 C 151.00 112.40 151.52 111.54 151.30 110.70 C 151.09 109.85 150.23 109.34 149.38 109.55 L 147.98 109.91 C 147.13 110.12 146.62 110.98 146.84 111.83 C 147.05 112.67 147.91 113.19 148.76 112.97 Z M 150.09 112.63 L 151.05 112.44 C 151.90 112.26 152.45 111.42 152.28 110.57 C 152.10 109.71 151.26 109.16 150.41 109.34 L 149.45 109.54 C 148.60 109.71 148.04 110.55 148.22 111.40 C 148.40 112.26 149.23 112.81 150.09 112.63 Z M 151.01 112.44 L 151.91 112.27 C 152.77 112.12 153.34 111.29 153.18 110.43 C 153.02 109.58 152.20 109.01 151.34 109.17 L 150.44 109.33 C 149.58 109.49 149.02 110.31 149.17 111.17 C 149.33 112.03 150.15 112.60 151.01 112.44 Z M 151.89 112.28 L 152.85 112.12 C 153.71 111.97 154.29 111.16 154.14 110.30 C 154.00 109.44 153.18 108.86 152.32 109.00 L 151.37 109.16 C 150.51 109.31 149.93 110.12 150.07 110.98 C 150.22 111.84 151.03 112.42 151.89 112.28 Z M 152.83 112.12 L 153.83 111.96 C 154.69 111.83 155.28 111.02 155.14 110.16 C 155.01 109.30 154.20 108.71 153.34 108.85 L 152.34 109.00 C 151.48 109.14 150.89 109.94 151.03 110.80 C 151.16 111.66 151.97 112.25 152.83 112.12 Z M 153.81 111.96 L 154.84 111.81 C 155.70 111.69 156.30 110.89 156.17 110.03 C 156.05 109.17 155.25 108.57 154.39 108.70 L 153.36 108.85 C 152.50 108.97 151.90 109.77 152.03 110.63 C 152.15 111.49 152.95 112.09 153.81 111.96 Z M 154.83 111.81 L 155.88 111.67 C 156.74 111.55 157.34 110.76 157.22 109.90 C 157.11 109.03 156.31 108.43 155.45 108.55 L 154.40 108.69 C 153.54 108.81 152.94 109.61 153.06 110.47 C 153.17 111.33 153.97 111.93 154.83 111.81 Z M 155.87 111.67 L 156.93 111.53 C 157.79 111.42 158.39 110.63 158.28 109.77 C 158.17 108.91 157.38 108.30 156.52 108.41 L 155.46 108.55 C 154.60 108.66 153.99 109.45 154.11 110.31 C 154.22 111.17 155.01 111.78 155.87 111.67 Z M 156.92 111.53 L 157.98 111.40 C 158.84 111.29 159.45 110.51 159.34 109.65 C 159.24 108.79 158.45 108.17 157.59 108.28 L 156.53 108.41 C 155.67 108.52 155.06 109.31 155.17 110.17 C 155.27 111.03 156.06 111.64 156.92 111.53 Z M 157.97 111.39 L 159.05 111.26 C 159.91 111.16 160.52 110.38 160.42 109.52 C 160.32 108.67 159.54 108.06 158.68 108.16 L 157.60 108.29 C 156.74 108.39 156.13 109.17 156.23 110.03 C 156.34 110.88 157.11 111.49 157.97 111.39 Z M 159.04 111.25 L 160.11 111.13 C 160.96 111.03 161.57 110.26 161.47 109.41 C 161.37 108.56 160.60 107.95 159.75 108.05 L 158.69 108.17 C 157.84 108.26 157.23 109.03 157.32 109.89 C 157.42 110.74 158.19 111.35 159.04 111.25 Z M 160.10 111.12 L 161.13 111.01 C 161.98 110.92 162.59 110.15 162.50 109.31 C 162.41 108.46 161.64 107.85 160.80 107.94 L 159.76 108.05 C 158.91 108.15 158.30 108.91 158.39 109.76 C 158.49 110.60 159.25 111.21 160.10 111.12 Z M 161.12 111.00 L 162.13 110.89 C 162.97 110.81 163.58 110.05 163.50 109.21 C 163.41 108.37 162.65 107.76 161.81 107.84 L 160.81 107.95 C 159.96 108.04 159.35 108.79 159.44 109.63 C 159.53 110.48 160.28 111.09 161.12 111.00 Z M 162.12 110.88 L 163.09 110.79 C 163.93 110.70 164.54 109.96 164.46 109.12 C 164.37 108.28 163.63 107.67 162.79 107.76 L 161.82 107.85 C 160.98 107.94 160.37 108.68 160.46 109.52 C 160.54 110.36 161.29 110.97 162.12 110.88 Z M 163.08 110.78 L 164.02 110.69 C 164.85 110.61 165.46 109.87 165.38 109.04 C 165.30 108.21 164.56 107.60 163.73 107.68 L 162.80 107.77 C 161.97 107.84 161.36 108.58 161.44 109.41 C 161.51 110.25 162.25 110.86 163.08 110.78 Z M 164.01 110.68 L 164.89 110.60 C 165.72 110.53 166.33 109.80 166.26 108.97 C 166.18 108.15 165.45 107.54 164.63 107.61 L 163.74 107.69 C 162.91 107.76 162.30 108.49 162.38 109.32 C 162.45 110.14 163.18 110.75 164.01 110.68 Z M 164.88 110.59 L 165.96 110.51 C 166.78 110.44 167.39 109.72 167.32 108.90 C 167.26 108.08 166.54 107.46 165.72 107.53 L 164.64 107.62 C 163.82 107.69 163.21 108.41 163.27 109.23 C 163.34 110.05 164.06 110.66 164.88 110.59 Z M 165.95 110.50 L 167.01 110.42 C 167.83 110.36 168.44 109.65 168.38 108.83 C 168.32 108.02 167.61 107.40 166.80 107.46 L 165.73 107.54 C 164.91 107.60 164.30 108.31 164.36 109.13 C 164.42 109.94 165.13 110.55 165.95 110.50 Z M 167.00 110.41 L 168.00 110.34 C 168.81 110.29 169.42 109.59 169.37 108.78 C 169.32 107.97 168.62 107.36 167.81 107.41 L 166.81 107.47 C 166.00 107.52 165.38 108.22 165.44 109.03 C 165.49 109.84 166.19 110.46 167.00 110.41 Z M 167.98 110.33 L 168.93 110.28 C 169.74 110.24 170.35 109.55 170.31 108.74 C 170.27 107.94 169.58 107.32 168.77 107.37 L 167.82 107.42 C 167.02 107.46 166.40 108.15 166.44 108.96 C 166.49 109.76 167.18 110.38 167.98 110.33 Z M 168.92 110.27 L 169.84 110.23 C 170.64 110.19 171.26 109.51 171.22 108.71 C 171.18 107.91 170.50 107.30 169.70 107.33 L 168.78 107.38 C 167.98 107.42 167.37 108.09 167.40 108.89 C 167.44 109.69 168.12 110.31 168.92 110.27 Z M 169.83 110.22 L 170.78 110.18 C 171.58 110.15 172.19 109.48 172.16 108.68 C 172.13 107.89 171.46 107.27 170.66 107.30 L 169.71 107.34 C 168.92 107.37 168.30 108.05 168.33 108.84 C 168.36 109.64 169.04 110.25 169.83 110.22 Z M 170.77 110.18 L 171.78 110.14 C 172.57 110.11 173.19 109.45 173.16 108.65 C 173.13 107.86 172.46 107.24 171.67 107.27 L 170.67 107.31 C 169.88 107.34 169.26 108.00 169.29 108.79 C 169.32 109.59 169.98 110.21 170.77 110.18 Z M 171.77 110.14 L 172.77 110.10 C 173.56 110.08 174.18 109.42 174.16 108.63 C 174.13 107.84 173.47 107.21 172.68 107.24 L 171.68 107.27 C 170.89 107.30 170.27 107.96 170.29 108.75 C 170.32 109.54 170.98 110.16 171.77 110.14 Z M 172.77 110.10 L 173.76 110.07 C 174.55 110.05 175.17 109.39 175.15 108.60 C 175.13 107.81 174.47 107.19 173.68 107.21 L 172.68 107.24 C 171.89 107.27 171.27 107.93 171.30 108.72 C 171.32 109.50 171.98 110.13 172.77 110.10 Z M 173.76 110.07 L 174.76 110.04 C 175.55 110.02 176.17 109.36 176.14 108.57 C 176.12 107.79 175.46 107.17 174.68 107.19 L 173.68 107.22 C 172.89 107.24 172.27 107.90 172.29 108.68 C 172.32 109.47 172.97 110.09 173.76 110.07 Z M 174.76 110.04 L 175.10 110.03 C 175.89 110.01 176.51 109.35 176.49 108.57 C 176.47 107.78 175.81 107.16 175.02 107.18 L 174.68 107.19 C 173.89 107.21 173.27 107.87 173.29 108.65 C 173.31 109.44 173.97 110.06 174.76 110.04 Z"
      fill="black"
      fill-rule="nonzero" /><path d="M 142.34 133.75 L 141.68 134.45 C 141.11 135.06 141.13 136.03 141.75 136.60 C 142.36 137.18 143.32 137.15 143.90 136.54 L 144.56 135.84 C 145.13 135.23 145.10 134.27 144.49 133.69 C 143.88 133.11 142.91 133.14 142.34 133.75 Z M 141.66 134.47 L 141.01 135.19 C 140.44 135.81 140.49 136.78 141.11 137.34 C 141.73 137.91 142.70 137.86 143.26 137.24 L 143.92 136.52 C 144.49 135.90 144.44 134.93 143.82 134.37 C 143.19 133.80 142.23 133.85 141.66 134.47 Z M 140.98 135.23 L 140.31 136.00 C 139.77 136.64 139.84 137.61 140.48 138.15 C 141.12 138.70 142.09 138.62 142.63 137.98 L 143.29 137.20 C 143.84 136.56 143.76 135.60 143.12 135.06 C 142.48 134.51 141.52 134.59 140.98 135.23 Z M 140.27 136.05 L 139.64 136.86 C 139.12 137.52 139.24 138.48 139.90 139.00 C 140.56 139.52 141.52 139.40 142.04 138.74 L 142.67 137.93 C 143.19 137.27 143.07 136.31 142.41 135.79 C 141.75 135.27 140.79 135.39 140.27 136.05 Z M 139.60 136.92 L 139.04 137.71 C 138.55 138.39 138.71 139.34 139.40 139.83 C 140.08 140.32 141.03 140.16 141.52 139.47 L 142.08 138.68 C 142.57 138.00 142.41 137.05 141.72 136.56 C 141.04 136.07 140.09 136.23 139.60 136.92 Z M 139.00 137.78 L 138.46 138.62 C 138.01 139.33 138.22 140.27 138.92 140.72 C 139.63 141.17 140.57 140.96 141.02 140.25 L 141.56 139.40 C 142.01 138.70 141.80 137.76 141.09 137.31 C 140.38 136.86 139.44 137.07 139.00 137.78 Z M 138.41 138.71 L 137.92 139.61 C 137.52 140.34 137.78 141.26 138.52 141.66 C 139.25 142.07 140.17 141.80 140.58 141.06 L 141.07 140.17 C 141.47 139.43 141.20 138.51 140.47 138.11 C 139.73 137.71 138.81 137.98 138.41 138.71 Z M 137.87 139.71 L 137.45 140.64 C 137.10 141.40 137.44 142.30 138.20 142.64 C 138.96 142.99 139.86 142.65 140.21 141.89 L 140.63 140.96 C 140.97 140.20 140.63 139.30 139.87 138.96 C 139.11 138.61 138.21 138.95 137.87 139.71 Z M 137.40 140.76 L 137.09 141.65 C 136.81 142.44 137.23 143.30 138.01 143.58 C 138.80 143.85 139.66 143.44 139.94 142.65 L 140.25 141.77 C 140.53 140.98 140.11 140.12 139.33 139.84 C 138.54 139.56 137.68 139.98 137.40 140.76 Z M 137.06 141.77 L 136.81 142.69 C 136.60 143.50 137.08 144.32 137.89 144.54 C 138.69 144.75 139.52 144.27 139.73 143.46 L 139.97 142.54 C 140.18 141.73 139.70 140.91 138.90 140.69 C 138.09 140.48 137.27 140.96 137.06 141.77 Z M 136.79 142.80 L 136.61 143.77 C 136.45 144.59 136.99 145.38 137.81 145.53 C 138.63 145.69 139.41 145.15 139.57 144.33 L 139.75 143.36 C 139.90 142.54 139.37 141.75 138.55 141.60 C 137.73 141.44 136.95 141.98 136.79 142.80 Z M 136.60 143.86 L 136.46 144.90 C 136.36 145.72 136.94 146.47 137.76 146.58 C 138.59 146.68 139.34 146.10 139.45 145.28 L 139.58 144.24 C 139.68 143.42 139.10 142.67 138.28 142.56 C 137.45 142.45 136.70 143.04 136.60 143.86 Z M 136.46 144.96 L 136.37 146.02 C 136.30 146.85 136.92 147.57 137.74 147.64 C 138.57 147.71 139.30 147.09 139.36 146.27 L 139.45 145.21 C 139.52 144.39 138.90 143.66 138.08 143.59 C 137.25 143.52 136.53 144.14 136.46 144.96 Z M 136.37 146.07 L 136.32 147.08 C 136.28 147.90 136.92 148.61 137.75 148.65 C 138.58 148.68 139.28 148.04 139.32 147.22 L 139.37 146.21 C 139.40 145.39 138.76 144.68 137.94 144.65 C 137.11 144.61 136.41 145.25 136.37 146.07 Z M 136.32 147.14 L 136.31 148.16 C 136.31 148.99 136.97 149.67 137.80 149.67 C 138.63 149.68 139.31 149.01 139.31 148.19 L 139.32 147.16 C 139.33 146.33 138.66 145.65 137.83 145.65 C 137.00 145.64 136.33 146.31 136.32 147.14 Z M 136.32 148.24 L 136.36 149.26 C 136.39 150.09 137.09 150.73 137.91 150.70 C 138.74 150.67 139.38 149.97 139.35 149.14 L 139.31 148.12 C 139.28 147.29 138.58 146.65 137.75 146.68 C 136.93 146.71 136.28 147.41 136.32 148.24 Z M 136.36 149.35 L 136.46 150.35 C 136.54 151.17 137.28 151.77 138.10 151.69 C 138.92 151.61 139.52 150.87 139.44 150.05 L 139.34 149.05 C 139.26 148.23 138.53 147.63 137.71 147.71 C 136.88 147.79 136.28 148.53 136.36 149.35 Z M 136.48 150.46 L 136.65 151.40 C 136.79 152.21 137.57 152.76 138.38 152.61 C 139.19 152.47 139.74 151.69 139.59 150.88 L 139.43 149.94 C 139.28 149.13 138.51 148.58 137.69 148.73 C 136.88 148.87 136.34 149.65 136.48 150.46 Z M 136.69 151.56 L 136.99 152.59 C 137.22 153.39 138.05 153.84 138.84 153.61 C 139.63 153.37 140.09 152.55 139.85 151.75 L 139.55 150.72 C 139.32 149.93 138.49 149.48 137.70 149.71 C 136.91 149.94 136.46 150.77 136.69 151.56 Z M 137.07 152.79 L 137.49 153.73 C 137.83 154.48 138.71 154.81 139.46 154.47 C 140.21 154.13 140.54 153.25 140.20 152.50 L 139.78 151.56 C 139.44 150.81 138.56 150.48 137.81 150.82 C 137.06 151.16 136.73 152.04 137.07 152.79 Z M 137.60 153.92 L 138.13 154.74 C 138.57 155.43 139.48 155.63 140.17 155.19 C 140.86 154.74 141.06 153.83 140.62 153.14 L 140.09 152.32 C 139.65 151.63 138.74 151.43 138.05 151.87 C 137.36 152.31 137.16 153.23 137.60 153.92 Z M 138.26 154.90 L 138.87 155.61 C 139.41 156.23 140.34 156.30 140.95 155.76 C 141.57 155.23 141.64 154.30 141.10 153.68 L 140.49 152.97 C 139.96 152.36 139.02 152.29 138.41 152.82 C 137.79 153.36 137.72 154.29 138.26 154.90 Z M 139.02 155.75 L 139.75 156.39 C 140.36 156.93 141.29 156.87 141.82 156.26 C 142.36 155.65 142.30 154.72 141.69 154.18 L 140.96 153.54 C 140.35 153.01 139.42 153.07 138.88 153.68 C 138.35 154.29 138.41 155.22 139.02 155.75 Z M 139.91 156.51 L 140.76 157.07 C 141.43 157.51 142.34 157.33 142.78 156.66 C 143.23 155.99 143.05 155.08 142.37 154.63 L 141.53 154.07 C 140.85 153.62 139.95 153.81 139.50 154.48 C 139.05 155.15 139.24 156.06 139.91 156.51 Z M 140.92 157.15 L 141.82 157.60 C 142.54 157.95 143.41 157.66 143.77 156.94 C 144.12 156.22 143.83 155.35 143.11 154.99 L 142.21 154.55 C 141.49 154.19 140.62 154.49 140.26 155.21 C 139.91 155.93 140.20 156.80 140.92 157.15 Z M 141.98 157.66 L 142.91 157.99 C 143.66 158.25 144.48 157.86 144.75 157.11 C 145.02 156.36 144.63 155.53 143.87 155.26 L 142.95 154.93 C 142.20 154.66 141.37 155.06 141.10 155.81 C 140.83 156.56 141.23 157.39 141.98 157.66 Z M 143.07 158.03 L 144.04 158.25 C 144.81 158.43 145.58 157.95 145.76 157.17 C 145.94 156.40 145.46 155.62 144.68 155.44 L 143.71 155.22 C 142.94 155.04 142.17 155.53 141.99 156.30 C 141.81 157.08 142.29 157.85 143.07 158.03 Z M 144.18 158.27 L 145.18 158.39 C 145.97 158.49 146.68 157.93 146.78 157.14 C 146.88 156.36 146.32 155.64 145.53 155.55 L 144.53 155.42 C 143.75 155.33 143.03 155.89 142.94 156.67 C 142.84 157.46 143.40 158.17 144.18 158.27 Z M 145.29 158.40 L 146.28 158.45 C 147.07 158.48 147.74 157.87 147.78 157.08 C 147.81 156.29 147.21 155.62 146.42 155.59 L 145.42 155.54 C 144.63 155.50 143.96 156.11 143.93 156.90 C 143.89 157.69 144.50 158.36 145.29 158.40 Z M 146.34 158.44 L 147.33 158.45 C 148.11 158.46 148.76 157.82 148.76 157.03 C 148.77 156.25 148.14 155.60 147.35 155.60 L 146.36 155.59 C 145.57 155.58 144.93 156.22 144.92 157.01 C 144.91 157.79 145.55 158.44 146.34 158.44 Z M 147.34 158.45 L 147.41 158.45 C 148.20 158.45 148.84 157.81 148.84 157.02 C 148.84 156.24 148.20 155.60 147.41 155.60 L 147.34 155.60 C 146.55 155.60 145.91 156.24 145.91 157.02 C 145.91 157.81 146.55 158.45 147.34 158.45 Z"
      fill="black"
      fill-rule="nonzero" /><path d="M 146.97 149.05 L 145.94 148.90 C 145.12 148.79 144.36 149.36 144.24 150.18 C 144.12 151.00 144.69 151.77 145.52 151.88 L 146.54 152.03 C 147.36 152.15 148.12 151.58 148.24 150.76 C 148.36 149.93 147.79 149.17 146.97 149.05 Z M 145.96 148.90 L 144.94 148.75 C 144.12 148.62 143.35 149.19 143.23 150.02 C 143.10 150.84 143.67 151.61 144.49 151.73 L 145.50 151.89 C 146.33 152.01 147.10 151.44 147.22 150.62 C 147.35 149.80 146.78 149.03 145.96 148.90 Z M 144.97 148.75 L 143.98 148.58 C 143.15 148.45 142.38 149.00 142.24 149.83 C 142.10 150.65 142.66 151.43 143.48 151.57 L 144.47 151.73 C 145.29 151.87 146.07 151.31 146.21 150.49 C 146.35 149.67 145.79 148.89 144.97 148.75 Z M 144.01 148.59 L 143.06 148.41 C 142.24 148.25 141.44 148.79 141.29 149.61 C 141.13 150.43 141.67 151.23 142.49 151.38 L 143.45 151.57 C 144.27 151.72 145.06 151.18 145.22 150.36 C 145.38 149.54 144.84 148.74 144.01 148.59 Z M 143.11 148.41 L 142.10 148.18 C 141.29 147.99 140.47 148.51 140.28 149.33 C 140.10 150.14 140.61 150.96 141.43 151.15 L 142.44 151.38 C 143.26 151.56 144.07 151.05 144.26 150.23 C 144.45 149.41 143.93 148.60 143.11 148.41 Z M 142.21 148.20 L 141.18 147.89 C 140.37 147.65 139.51 148.10 139.27 148.91 C 139.03 149.72 139.49 150.58 140.29 150.82 L 141.33 151.13 C 142.13 151.37 142.99 150.91 143.23 150.10 C 143.47 149.30 143.02 148.44 142.21 148.20 Z M 141.36 147.94 L 140.46 147.55 C 139.68 147.21 138.77 147.56 138.43 148.34 C 138.08 149.12 138.44 150.03 139.22 150.37 L 140.11 150.76 C 140.89 151.11 141.80 150.75 142.14 149.97 C 142.49 149.20 142.13 148.29 141.36 147.94 Z M 140.73 147.69 L 140.00 147.18 C 139.30 146.69 138.33 146.86 137.84 147.56 C 137.35 148.26 137.52 149.23 138.22 149.72 L 138.95 150.23 C 139.65 150.72 140.62 150.55 141.11 149.85 C 141.60 149.15 141.43 148.18 140.73 147.69 Z M 140.34 147.49 L 139.78 146.77 C 139.25 146.09 138.27 145.97 137.59 146.49 C 136.91 147.02 136.79 148.00 137.32 148.68 L 137.88 149.40 C 138.41 150.08 139.38 150.21 140.06 149.68 C 140.74 149.15 140.87 148.17 140.34 147.49 Z M 140.05 147.30 L 139.80 146.41 C 139.56 145.58 138.70 145.09 137.87 145.33 C 137.04 145.56 136.56 146.42 136.79 147.25 L 137.04 148.15 C 137.28 148.98 138.14 149.46 138.97 149.23 C 139.80 148.99 140.28 148.13 140.05 147.30 Z M 139.84 147.04 L 139.98 146.01 C 140.10 145.16 139.50 144.37 138.65 144.25 C 137.79 144.14 137.01 144.74 136.89 145.59 L 136.75 146.62 C 136.63 147.47 137.23 148.26 138.08 148.38 C 138.94 148.49 139.73 147.89 139.84 147.04 Z M 139.84 146.48 L 140.24 145.65 C 140.62 144.87 140.29 143.93 139.51 143.56 C 138.73 143.19 137.80 143.51 137.43 144.29 L 137.03 145.13 C 136.65 145.90 136.98 146.84 137.76 147.21 C 138.54 147.58 139.47 147.26 139.84 146.48 Z M 140.10 145.88 L 140.59 145.21 C 141.09 144.50 140.93 143.53 140.23 143.02 C 139.53 142.52 138.55 142.68 138.05 143.38 L 137.57 144.06 C 137.06 144.76 137.22 145.73 137.92 146.24 C 138.62 146.74 139.60 146.58 140.10 145.88 Z M 140.49 145.33 L 141.11 144.63 C 141.68 143.99 141.63 143.00 140.98 142.43 C 140.34 141.85 139.35 141.91 138.77 142.56 L 138.15 143.26 C 137.58 143.90 137.64 144.89 138.28 145.46 C 138.93 146.04 139.91 145.98 140.49 145.33 Z M 141.03 144.72 L 141.77 144.00 C 142.39 143.40 142.41 142.41 141.81 141.79 C 141.21 141.17 140.22 141.15 139.60 141.75 L 138.85 142.47 C 138.23 143.07 138.22 144.06 138.82 144.68 C 139.42 145.30 140.41 145.32 141.03 144.72 Z M 141.71 144.05 L 142.56 143.32 C 143.21 142.75 143.28 141.76 142.72 141.11 C 142.15 140.46 141.16 140.39 140.51 140.96 L 139.66 141.69 C 139.01 142.26 138.94 143.25 139.51 143.90 C 140.07 144.55 141.06 144.62 141.71 144.05 Z M 142.51 143.36 L 143.45 142.60 C 144.13 142.06 144.24 141.08 143.70 140.40 C 143.16 139.73 142.17 139.62 141.50 140.16 L 140.56 140.92 C 139.88 141.46 139.78 142.44 140.32 143.11 C 140.86 143.79 141.84 143.90 142.51 143.36 Z M 143.42 142.63 L 144.25 142.00 C 144.94 141.47 145.08 140.49 144.56 139.80 C 144.03 139.12 143.05 138.98 142.37 139.50 L 141.53 140.14 C 140.84 140.66 140.71 141.64 141.23 142.33 C 141.75 143.01 142.73 143.15 143.42 142.63 Z M 144.23 142.01 L 145.09 141.39 C 145.79 140.88 145.94 139.90 145.43 139.20 C 144.92 138.51 143.94 138.35 143.25 138.86 L 142.39 139.49 C 141.69 139.99 141.54 140.97 142.05 141.67 C 142.55 142.37 143.53 142.52 144.23 142.01 Z M 145.07 141.40 L 145.94 140.79 C 146.64 140.29 146.81 139.32 146.31 138.61 C 145.82 137.91 144.84 137.74 144.13 138.23 L 143.27 138.85 C 142.56 139.34 142.39 140.32 142.89 141.03 C 143.39 141.73 144.36 141.90 145.07 141.40 Z M 145.92 140.80 L 146.78 140.21 C 147.49 139.73 147.67 138.75 147.19 138.04 C 146.70 137.33 145.72 137.15 145.01 137.63 L 144.15 138.22 C 143.44 138.71 143.26 139.68 143.75 140.40 C 144.23 141.11 145.21 141.29 145.92 140.80 Z M 146.76 140.22 L 147.60 139.67 C 148.31 139.19 148.51 138.22 148.03 137.50 C 147.55 136.78 146.58 136.59 145.86 137.07 L 145.03 137.62 C 144.31 138.10 144.12 139.08 144.60 139.79 C 145.08 140.51 146.05 140.70 146.76 140.22 Z M 147.58 139.68 L 148.37 139.16 C 149.09 138.69 149.29 137.72 148.82 137.00 C 148.35 136.28 147.38 136.07 146.66 136.55 L 145.87 137.06 C 145.15 137.53 144.95 138.50 145.42 139.22 C 145.89 139.95 146.86 140.15 147.58 139.68 Z M 148.35 139.17 L 149.10 138.69 C 149.83 138.23 150.04 137.26 149.58 136.53 C 149.11 135.81 148.14 135.59 147.42 136.06 L 146.67 136.54 C 145.94 137.00 145.73 137.97 146.19 138.70 C 146.66 139.43 147.63 139.64 148.35 139.17 Z M 149.08 138.71 L 150.15 138.04 C 150.89 137.59 151.11 136.62 150.66 135.89 C 150.20 135.16 149.24 134.93 148.51 135.38 L 147.43 136.05 C 146.70 136.50 146.47 137.47 146.93 138.20 C 147.38 138.94 148.35 139.16 149.08 138.71 Z M 150.13 138.06 L 151.00 137.54 C 151.75 137.10 151.99 136.15 151.55 135.40 C 151.11 134.66 150.15 134.41 149.41 134.85 L 148.53 135.37 C 147.79 135.81 147.54 136.76 147.98 137.51 C 148.42 138.25 149.38 138.50 150.13 138.06 Z M 150.97 137.56 L 151.72 137.14 C 152.48 136.72 152.75 135.76 152.32 135.01 C 151.90 134.25 150.95 133.99 150.19 134.41 L 149.44 134.83 C 148.69 135.25 148.42 136.21 148.84 136.96 C 149.26 137.72 150.22 137.98 150.97 137.56 Z M 151.70 137.15 L 152.43 136.76 C 153.19 136.35 153.48 135.40 153.06 134.64 C 152.65 133.88 151.70 133.59 150.94 134.00 L 150.21 134.40 C 149.45 134.81 149.17 135.76 149.58 136.52 C 149.99 137.28 150.94 137.56 151.70 137.15 Z M 152.42 136.77 L 153.28 136.31 C 154.05 135.91 154.34 134.96 153.93 134.19 C 153.53 133.43 152.58 133.14 151.81 133.54 L 150.95 134.00 C 150.19 134.40 149.90 135.35 150.30 136.11 C 150.71 136.88 151.65 137.17 152.42 136.77 Z M 153.26 136.32 L 154.15 135.87 C 154.92 135.47 155.23 134.52 154.83 133.75 C 154.44 132.98 153.49 132.68 152.72 133.07 L 151.83 133.53 C 151.06 133.92 150.76 134.87 151.15 135.64 C 151.55 136.41 152.49 136.72 153.26 136.32 Z M 154.13 135.88 L 155.06 135.42 C 155.83 135.04 156.15 134.10 155.77 133.32 C 155.39 132.54 154.45 132.22 153.67 132.60 L 152.74 133.06 C 151.97 133.44 151.64 134.38 152.03 135.16 C 152.41 135.94 153.35 136.26 154.13 135.88 Z M 155.03 135.44 L 155.83 135.06 C 156.62 134.70 156.96 133.76 156.60 132.97 C 156.23 132.19 155.29 131.85 154.51 132.21 L 153.70 132.59 C 152.91 132.96 152.57 133.89 152.94 134.68 C 153.31 135.46 154.24 135.81 155.03 135.44 Z M 155.80 135.08 L 156.66 134.70 C 157.46 134.36 157.83 133.43 157.48 132.63 C 157.13 131.84 156.21 131.47 155.41 131.82 L 154.54 132.20 C 153.75 132.54 153.38 133.47 153.73 134.26 C 154.07 135.06 155.00 135.43 155.80 135.08 Z M 156.62 134.72 L 157.58 134.34 C 158.39 134.02 158.78 133.11 158.46 132.30 C 158.14 131.49 157.23 131.10 156.42 131.42 L 155.46 131.80 C 154.65 132.12 154.25 133.03 154.57 133.84 C 154.90 134.65 155.81 135.05 156.62 134.72 Z M 157.53 134.36 L 158.59 133.98 C 159.40 133.69 159.83 132.79 159.54 131.97 C 159.24 131.15 158.34 130.72 157.52 131.02 L 156.47 131.40 C 155.65 131.69 155.22 132.59 155.52 133.41 C 155.81 134.23 156.71 134.66 157.53 134.36 Z M 158.54 134.00 L 159.42 133.71 C 160.25 133.44 160.70 132.55 160.43 131.72 C 160.16 130.89 159.27 130.44 158.44 130.71 L 157.56 131.00 C 156.73 131.27 156.28 132.16 156.55 132.99 C 156.83 133.82 157.72 134.27 158.54 134.00 Z M 159.39 133.73 L 160.33 133.44 C 161.16 133.19 161.64 132.31 161.38 131.47 C 161.13 130.64 160.25 130.17 159.42 130.42 L 158.48 130.70 C 157.64 130.95 157.17 131.84 157.42 132.67 C 157.67 133.51 158.55 133.98 159.39 133.73 Z M 160.29 133.45 L 161.28 133.18 C 162.12 132.95 162.61 132.08 162.38 131.24 C 162.14 130.39 161.27 129.90 160.43 130.13 L 159.45 130.41 C 158.61 130.64 158.12 131.51 158.35 132.35 C 158.58 133.19 159.45 133.69 160.29 133.45 Z M 161.24 133.19 L 162.25 132.94 C 163.09 132.73 163.61 131.87 163.40 131.02 C 163.18 130.17 162.33 129.66 161.48 129.87 L 160.47 130.12 C 159.62 130.33 159.11 131.19 159.32 132.04 C 159.53 132.89 160.39 133.41 161.24 133.19 Z M 162.20 132.95 L 163.22 132.73 C 164.07 132.54 164.61 131.70 164.42 130.84 C 164.23 129.99 163.39 129.45 162.53 129.63 L 161.52 129.86 C 160.67 130.05 160.13 130.89 160.31 131.75 C 160.50 132.60 161.35 133.14 162.20 132.95 Z M 163.17 132.74 L 164.20 132.55 C 165.06 132.39 165.62 131.56 165.46 130.70 C 165.30 129.84 164.47 129.27 163.61 129.43 L 162.58 129.62 C 161.72 129.78 161.16 130.61 161.32 131.47 C 161.48 132.33 162.31 132.90 163.17 132.74 Z M 164.15 132.56 L 165.16 132.40 C 166.03 132.27 166.62 131.46 166.49 130.59 C 166.36 129.73 165.55 129.13 164.68 129.27 L 163.66 129.42 C 162.80 129.55 162.20 130.36 162.34 131.23 C 162.47 132.10 163.28 132.69 164.15 132.56 Z M 165.12 132.41 L 166.12 132.29 C 166.99 132.18 167.60 131.39 167.50 130.52 C 167.39 129.65 166.60 129.03 165.73 129.14 L 164.73 129.26 C 163.86 129.36 163.24 130.15 163.35 131.02 C 163.45 131.89 164.25 132.51 165.12 132.41 Z M 166.07 132.29 L 167.05 132.20 C 167.92 132.12 168.56 131.35 168.48 130.48 C 168.40 129.60 167.63 128.96 166.76 129.04 L 165.78 129.13 C 164.91 129.21 164.26 129.98 164.34 130.86 C 164.42 131.73 165.20 132.37 166.07 132.29 Z M 167.00 132.20 L 167.96 132.14 C 168.84 132.09 169.50 131.33 169.44 130.46 C 169.39 129.58 168.63 128.92 167.76 128.98 L 166.80 129.04 C 165.93 129.09 165.26 129.85 165.32 130.72 C 165.38 131.60 166.13 132.26 167.00 132.20 Z M 167.92 132.15 L 168.97 132.11 C 169.84 132.08 170.53 131.34 170.50 130.47 C 170.47 129.59 169.73 128.90 168.85 128.93 L 167.80 128.97 C 166.93 129.00 166.24 129.74 166.27 130.62 C 166.30 131.49 167.04 132.18 167.92 132.15 Z M 168.89 132.12 L 169.96 132.13 C 170.84 132.14 171.56 131.43 171.57 130.55 C 171.58 129.67 170.88 128.95 170.00 128.94 L 168.93 128.93 C 168.05 128.92 167.33 129.63 167.32 130.51 C 167.31 131.39 168.01 132.11 168.89 132.12 Z M 169.84 132.13 L 170.84 132.22 C 171.72 132.29 172.50 131.64 172.57 130.76 C 172.65 129.88 172.00 129.11 171.12 129.03 L 170.12 128.94 C 169.24 128.86 168.46 129.51 168.39 130.39 C 168.31 131.27 168.96 132.05 169.84 132.13 Z M 170.65 132.19 L 171.57 132.38 C 172.43 132.56 173.28 132.01 173.46 131.14 C 173.64 130.27 173.09 129.42 172.22 129.24 L 171.31 129.05 C 170.44 128.87 169.59 129.43 169.41 130.30 C 169.23 131.16 169.79 132.01 170.65 132.19 Z M 171.29 132.31 L 172.15 132.65 C 172.97 132.98 173.91 132.58 174.24 131.75 C 174.57 130.93 174.17 129.99 173.35 129.66 L 172.49 129.32 C 171.67 128.99 170.73 129.39 170.40 130.21 C 170.07 131.04 170.47 131.97 171.29 132.31 Z M 171.81 132.47 L 172.61 133.04 C 173.34 133.56 174.35 133.39 174.86 132.66 C 175.38 131.94 175.21 130.93 174.49 130.41 L 173.68 129.84 C 172.96 129.32 171.95 129.49 171.43 130.22 C 170.92 130.94 171.08 131.95 171.81 132.47 Z M 172.32 132.78 L 172.96 133.52 C 173.54 134.20 174.56 134.28 175.24 133.70 C 175.92 133.12 176.00 132.10 175.42 131.42 L 174.78 130.68 C 174.20 130.00 173.18 129.92 172.50 130.50 C 171.82 131.08 171.74 132.10 172.32 132.78 Z M 172.76 133.24 L 173.24 134.13 C 173.66 134.92 174.65 135.22 175.43 134.79 C 176.22 134.37 176.52 133.38 176.09 132.59 L 175.61 131.70 C 175.19 130.91 174.21 130.62 173.42 131.04 C 172.63 131.47 172.33 132.45 172.76 133.24 Z M 173.13 133.89 L 173.43 134.77 C 173.72 135.62 174.64 136.08 175.49 135.79 C 176.34 135.50 176.79 134.58 176.51 133.73 L 176.20 132.84 C 175.92 131.99 174.99 131.54 174.14 131.82 C 173.29 132.11 172.84 133.04 173.13 133.89 Z M 173.37 134.58 L 173.57 135.51 C 173.75 136.39 174.61 136.95 175.50 136.77 C 176.38 136.58 176.94 135.72 176.75 134.84 L 176.56 133.91 C 176.38 133.03 175.51 132.47 174.63 132.65 C 173.75 132.84 173.19 133.70 173.37 134.58 Z M 173.54 135.37 L 173.66 136.37 C 173.77 137.26 174.58 137.90 175.47 137.79 C 176.37 137.69 177.01 136.88 176.90 135.98 L 176.78 134.98 C 176.67 134.09 175.86 133.45 174.97 133.55 C 174.07 133.66 173.43 134.47 173.54 135.37 Z M 173.65 136.26 L 173.71 137.33 C 173.76 138.23 174.53 138.92 175.43 138.87 C 176.33 138.82 177.02 138.05 176.97 137.15 L 176.91 136.08 C 176.86 135.18 176.09 134.49 175.19 134.54 C 174.29 134.59 173.60 135.36 173.65 136.26 Z M 173.70 137.26 L 173.72 138.29 C 173.73 139.19 174.47 139.91 175.38 139.90 C 176.28 139.89 177.00 139.14 176.99 138.24 L 176.98 137.22 C 176.96 136.31 176.22 135.59 175.32 135.60 C 174.41 135.62 173.69 136.36 173.70 137.26 Z M 173.71 138.23 L 173.69 139.20 C 173.68 140.11 174.39 140.85 175.30 140.87 C 176.21 140.89 176.95 140.17 176.97 139.27 L 176.99 138.30 C 177.01 137.39 176.29 136.64 175.39 136.62 C 174.48 136.60 173.73 137.32 173.71 138.23 Z M 173.70 139.13 L 173.63 140.13 C 173.58 141.03 174.26 141.81 175.17 141.87 C 176.07 141.92 176.85 141.24 176.91 140.33 L 176.97 139.34 C 177.03 138.43 176.34 137.65 175.44 137.60 C 174.53 137.54 173.75 138.23 173.70 139.13 Z M 173.64 140.04 L 173.52 141.05 C 173.42 141.95 174.07 142.77 174.97 142.87 C 175.87 142.97 176.68 142.33 176.79 141.43 L 176.90 140.42 C 177.01 139.52 176.36 138.70 175.46 138.60 C 174.56 138.49 173.74 139.14 173.64 140.04 Z M 173.54 140.95 L 173.36 141.96 C 173.20 142.85 173.79 143.71 174.69 143.87 C 175.58 144.03 176.43 143.43 176.59 142.54 L 176.77 141.53 C 176.93 140.63 176.34 139.78 175.44 139.62 C 174.55 139.46 173.70 140.05 173.54 140.95 Z M 173.38 141.84 L 173.13 142.82 C 172.91 143.70 173.44 144.60 174.32 144.82 C 175.20 145.05 176.10 144.52 176.32 143.63 L 176.57 142.65 C 176.79 141.77 176.26 140.88 175.38 140.65 C 174.50 140.43 173.60 140.96 173.38 141.84 Z M 173.16 142.71 L 172.85 143.65 C 172.56 144.52 173.03 145.45 173.89 145.73 C 174.76 146.02 175.69 145.55 175.97 144.69 L 176.29 143.75 C 176.57 142.88 176.11 141.95 175.24 141.67 C 174.38 141.38 173.45 141.85 173.16 142.71 Z M 172.88 143.56 L 172.51 144.49 C 172.18 145.34 172.59 146.29 173.43 146.63 C 174.28 146.97 175.24 146.55 175.57 145.71 L 175.94 144.78 C 176.28 143.93 175.87 142.98 175.02 142.64 C 174.18 142.30 173.22 142.72 172.88 143.56 Z M 172.54 144.42 L 172.13 145.33 C 171.75 146.16 172.12 147.14 172.95 147.51 C 173.78 147.89 174.75 147.52 175.13 146.69 L 175.54 145.78 C 175.92 144.95 175.55 143.97 174.72 143.60 C 173.89 143.22 172.92 143.59 172.54 144.42 Z M 172.15 145.28 L 171.71 146.18 C 171.30 147.00 171.64 147.99 172.45 148.39 C 173.27 148.79 174.25 148.46 174.66 147.65 L 175.10 146.75 C 175.51 145.93 175.17 144.94 174.36 144.54 C 173.55 144.13 172.56 144.47 172.15 145.28 Z M 171.72 146.15 L 171.26 147.03 C 170.83 147.84 171.14 148.83 171.95 149.26 C 172.75 149.68 173.75 149.37 174.17 148.57 L 174.64 147.68 C 175.06 146.88 174.75 145.88 173.95 145.46 C 173.14 145.03 172.15 145.34 171.72 146.15 Z M 171.27 147.01 L 170.79 147.88 C 170.35 148.68 170.64 149.68 171.44 150.12 C 172.23 150.56 173.23 150.27 173.67 149.47 L 174.16 148.60 C 174.60 147.80 174.31 146.80 173.51 146.36 C 172.71 145.92 171.71 146.21 171.27 147.01 Z M 170.82 147.84 L 170.31 148.69 C 169.84 149.47 170.10 150.48 170.88 150.95 C 171.66 151.41 172.67 151.15 173.14 150.37 L 173.65 149.52 C 174.11 148.74 173.85 147.73 173.07 147.26 C 172.29 146.80 171.28 147.05 170.82 147.84 Z M 170.35 148.62 L 169.80 149.45 C 169.30 150.21 169.51 151.23 170.27 151.73 C 171.02 152.23 172.04 152.02 172.55 151.27 L 173.09 150.44 C 173.60 149.68 173.39 148.66 172.63 148.16 C 171.87 147.66 170.85 147.87 170.35 148.62 Z M 169.87 149.37 L 169.26 150.16 C 168.72 150.88 168.86 151.91 169.58 152.46 C 170.30 153.01 171.33 152.87 171.88 152.15 L 172.48 151.35 C 173.03 150.63 172.89 149.60 172.17 149.05 C 171.44 148.50 170.41 148.64 169.87 149.37 Z M 169.35 150.06 L 168.68 150.82 C 168.07 151.50 168.13 152.53 168.81 153.14 C 169.49 153.74 170.53 153.68 171.13 153.00 L 171.80 152.24 C 172.40 151.57 172.34 150.53 171.66 149.93 C 170.99 149.32 169.95 149.38 169.35 150.06 Z M 168.77 150.72 L 168.07 151.39 C 167.42 152.01 167.39 153.05 168.02 153.70 C 168.64 154.36 169.68 154.38 170.34 153.76 L 171.03 153.09 C 171.69 152.47 171.72 151.43 171.09 150.78 C 170.47 150.12 169.43 150.10 168.77 150.72 Z M 168.16 151.31 L 167.41 151.93 C 166.72 152.51 166.62 153.54 167.20 154.23 C 167.77 154.93 168.80 155.03 169.50 154.45 L 170.25 153.83 C 170.94 153.26 171.04 152.23 170.46 151.53 C 169.89 150.83 168.86 150.74 168.16 151.31 Z M 167.48 151.88 L 166.69 152.48 C 165.96 153.01 165.81 154.03 166.35 154.76 C 166.88 155.48 167.91 155.63 168.63 155.09 L 169.43 154.50 C 170.15 153.97 170.30 152.94 169.76 152.22 C 169.23 151.50 168.21 151.35 167.48 151.88 Z M 166.74 152.44 L 165.90 153.02 C 165.16 153.52 164.97 154.54 165.48 155.28 C 165.99 156.02 167.00 156.21 167.74 155.70 L 168.58 155.13 C 169.32 154.62 169.50 153.61 169.00 152.87 C 168.49 152.13 167.48 151.94 166.74 152.44 Z M 165.94 153.00 L 165.08 153.56 C 164.33 154.05 164.11 155.05 164.60 155.80 C 165.09 156.55 166.09 156.76 166.84 156.28 L 167.70 155.72 C 168.45 155.23 168.67 154.22 168.18 153.47 C 167.69 152.72 166.69 152.51 165.94 153.00 Z M 165.10 153.55 L 164.28 154.07 C 163.52 154.55 163.30 155.55 163.78 156.30 C 164.26 157.06 165.25 157.28 166.01 156.80 L 166.83 156.28 C 167.58 155.80 167.80 154.81 167.33 154.05 C 166.85 153.30 165.85 153.07 165.10 153.55 Z"
      fill="black"
      fill-rule="nonzero" /><path d="M 151.81 96.07 L 151.49 96.97 C 151.22 97.76 151.63 98.62 152.42 98.89 C 153.21 99.17 154.07 98.76 154.34 97.97 L 154.66 97.07 C 154.94 96.28 154.52 95.42 153.74 95.14 C 152.95 94.87 152.09 95.28 151.81 96.07 Z M 151.46 97.00 L 151.16 97.92 C 150.90 98.72 151.34 99.59 152.15 99.85 C 152.95 100.11 153.81 99.67 154.08 98.86 L 154.38 97.94 C 154.64 97.14 154.20 96.27 153.39 96.01 C 152.59 95.75 151.72 96.19 151.46 97.00 Z M 151.12 97.97 L 150.86 98.93 C 150.63 99.76 151.11 100.61 151.94 100.84 C 152.76 101.07 153.62 100.59 153.85 99.76 L 154.12 98.81 C 154.35 97.98 153.86 97.12 153.04 96.89 C 152.21 96.66 151.35 97.15 151.12 97.97 Z M 150.81 99.02 L 150.60 100.03 C 150.42 100.88 150.96 101.72 151.81 101.90 C 152.66 102.08 153.50 101.54 153.68 100.69 L 153.89 99.68 C 154.07 98.83 153.53 97.99 152.68 97.81 C 151.83 97.63 150.99 98.17 150.81 99.02 Z M 150.56 100.14 L 150.42 101.15 C 150.30 102.03 150.90 102.83 151.77 102.95 C 152.64 103.07 153.45 102.47 153.57 101.60 L 153.71 100.58 C 153.84 99.71 153.23 98.90 152.36 98.78 C 151.49 98.66 150.68 99.27 150.56 100.14 Z M 150.40 101.25 L 150.32 102.24 C 150.26 103.12 150.92 103.89 151.80 103.96 C 152.68 104.03 153.45 103.37 153.52 102.48 L 153.59 101.50 C 153.66 100.62 153.00 99.85 152.12 99.78 C 151.24 99.71 150.47 100.37 150.40 101.25 Z M 150.32 102.31 L 150.29 103.33 C 150.26 104.22 150.96 104.96 151.84 104.98 C 152.73 105.01 153.47 104.31 153.49 103.43 L 153.52 102.41 C 153.55 101.52 152.85 100.79 151.97 100.76 C 151.08 100.73 150.34 101.43 150.32 102.31 Z M 150.28 103.39 L 150.29 104.41 C 150.29 105.30 151.02 106.02 151.91 106.01 C 152.80 106.00 153.51 105.28 153.50 104.39 L 153.50 103.37 C 153.49 102.48 152.77 101.76 151.88 101.77 C 150.99 101.78 150.27 102.50 150.28 103.39 Z M 150.28 104.46 L 150.32 105.47 C 150.35 106.36 151.10 107.05 151.99 107.02 C 152.88 106.99 153.57 106.24 153.54 105.35 L 153.51 104.34 C 153.48 103.45 152.73 102.76 151.84 102.79 C 150.95 102.82 150.25 103.57 150.28 104.46 Z M 150.32 105.50 L 150.38 106.50 C 150.43 107.39 151.20 108.07 152.09 108.01 C 152.98 107.96 153.66 107.20 153.60 106.30 L 153.54 105.31 C 153.49 104.42 152.73 103.74 151.84 103.80 C 150.95 103.85 150.27 104.61 150.32 105.50 Z M 150.38 106.53 L 150.46 107.57 C 150.53 108.46 151.31 109.13 152.20 109.05 C 153.09 108.98 153.76 108.20 153.69 107.31 L 153.60 106.27 C 153.53 105.38 152.75 104.72 151.86 104.79 C 150.97 104.86 150.31 105.64 150.38 106.53 Z M 150.46 107.60 L 150.56 108.59 C 150.65 109.48 151.44 110.13 152.33 110.05 C 153.22 109.96 153.87 109.17 153.78 108.28 L 153.68 107.29 C 153.60 106.40 152.81 105.74 151.92 105.83 C 151.03 105.92 150.38 106.71 150.46 107.60 Z M 150.56 108.61 L 150.67 109.58 C 150.76 110.47 151.56 111.11 152.45 111.02 C 153.34 110.92 153.98 110.12 153.89 109.23 L 153.78 108.26 C 153.68 107.37 152.88 106.73 151.99 106.83 C 151.10 106.92 150.46 107.72 150.56 108.61 Z M 150.67 109.59 L 150.78 110.56 C 150.88 111.45 151.69 112.09 152.57 111.98 C 153.46 111.88 154.10 111.07 154.00 110.19 L 153.89 109.22 C 153.78 108.33 152.98 107.69 152.09 107.80 C 151.20 107.90 150.56 108.70 150.67 109.59 Z M 150.78 110.56 L 150.89 111.51 C 150.99 112.40 151.80 113.04 152.68 112.94 C 153.57 112.83 154.21 112.03 154.11 111.14 L 154.00 110.19 C 153.90 109.30 153.09 108.66 152.20 108.76 C 151.31 108.87 150.67 109.67 150.78 110.56 Z M 150.89 111.51 L 150.99 112.46 C 151.10 113.35 151.90 113.99 152.79 113.89 C 153.68 113.79 154.32 112.98 154.22 112.09 L 154.11 111.14 C 154.01 110.25 153.21 109.61 152.32 109.71 C 151.43 109.81 150.79 110.62 150.89 111.51 Z M 150.99 112.46 L 151.10 113.44 C 151.20 114.33 152.00 114.97 152.90 114.87 C 153.79 114.77 154.43 113.97 154.33 113.08 L 154.22 112.10 C 154.12 111.21 153.32 110.56 152.43 110.66 C 151.54 110.76 150.89 111.57 150.99 112.46 Z M 151.10 113.44 L 151.21 114.44 C 151.31 115.34 152.12 115.98 153.01 115.88 C 153.90 115.78 154.54 114.98 154.44 114.09 L 154.33 113.08 C 154.23 112.19 153.43 111.54 152.54 111.64 C 151.65 111.74 151.00 112.54 151.10 113.44 Z M 151.21 114.45 L 151.33 115.49 C 151.43 116.38 152.23 117.02 153.12 116.92 C 154.01 116.82 154.66 116.02 154.56 115.13 L 154.44 114.09 C 154.34 113.19 153.54 112.55 152.65 112.65 C 151.76 112.75 151.11 113.55 151.21 114.45 Z M 151.33 115.49 L 151.44 116.47 C 151.54 117.37 152.34 118.01 153.24 117.91 C 154.13 117.81 154.77 117.00 154.67 116.11 L 154.56 115.12 C 154.46 114.23 153.65 113.59 152.76 113.69 C 151.87 113.79 151.23 114.60 151.33 115.49 Z M 151.44 116.47 L 151.55 117.43 C 151.65 118.32 152.45 118.96 153.34 118.86 C 154.24 118.76 154.88 117.95 154.78 117.06 L 154.67 116.11 C 154.57 115.22 153.76 114.58 152.87 114.68 C 151.98 114.78 151.34 115.58 151.44 116.47 Z M 151.54 117.42 L 151.65 118.40 C 151.75 119.29 152.55 119.94 153.45 119.84 C 154.34 119.74 154.98 118.93 154.89 118.04 L 154.78 117.07 C 154.68 116.17 153.88 115.53 152.98 115.63 C 152.09 115.73 151.45 116.53 151.54 117.42 Z M 151.65 118.39 L 151.76 119.39 C 151.85 120.29 152.65 120.93 153.55 120.84 C 154.44 120.74 155.09 119.94 154.99 119.05 L 154.89 118.05 C 154.79 117.15 153.99 116.51 153.10 116.60 C 152.20 116.70 151.56 117.50 151.65 118.39 Z M 151.75 119.38 L 151.86 120.41 C 151.95 121.30 152.75 121.95 153.64 121.86 C 154.54 121.77 155.19 120.98 155.10 120.08 L 155.00 119.06 C 154.91 118.16 154.11 117.51 153.21 117.60 C 152.32 117.69 151.66 118.49 151.75 119.38 Z M 151.86 120.39 L 151.95 121.44 C 152.04 122.34 152.83 123.00 153.73 122.92 C 154.62 122.83 155.28 122.04 155.20 121.14 L 155.10 120.09 C 155.02 119.20 154.22 118.54 153.33 118.62 C 152.43 118.70 151.77 119.50 151.86 120.39 Z M 151.95 121.43 L 152.03 122.40 C 152.11 123.30 152.90 123.96 153.79 123.89 C 154.69 123.81 155.36 123.02 155.28 122.12 L 155.20 121.16 C 155.13 120.26 154.34 119.59 153.44 119.67 C 152.54 119.74 151.87 120.53 151.95 121.43 Z M 152.03 122.39 L 152.10 123.36 C 152.17 124.26 152.96 124.93 153.86 124.86 C 154.76 124.79 155.43 124.01 155.36 123.11 L 155.28 122.14 C 155.22 121.24 154.43 120.57 153.53 120.63 C 152.63 120.70 151.96 121.49 152.03 122.39 Z M 152.10 123.35 L 152.17 124.33 C 152.24 125.23 153.02 125.91 153.92 125.85 C 154.82 125.78 155.49 125.00 155.43 124.10 L 155.36 123.12 C 155.30 122.22 154.52 121.54 153.62 121.60 C 152.72 121.67 152.04 122.45 152.10 123.35 Z M 152.17 124.33 L 152.24 125.33 C 152.30 126.23 153.08 126.91 153.98 126.85 C 154.88 126.79 155.56 126.01 155.50 125.11 L 155.43 124.11 C 155.37 123.21 154.59 122.53 153.69 122.59 C 152.79 122.65 152.11 123.43 152.17 124.33 Z M 152.24 125.32 L 152.30 126.34 C 152.36 127.24 153.13 127.93 154.03 127.87 C 154.94 127.81 155.62 127.04 155.56 126.13 L 155.50 125.12 C 155.44 124.22 154.67 123.53 153.77 123.59 C 152.86 123.65 152.18 124.42 152.24 125.32 Z M 152.30 126.34 L 152.36 127.36 C 152.42 128.27 153.19 128.95 154.09 128.90 C 154.99 128.84 155.68 128.07 155.63 127.17 L 155.56 126.14 C 155.51 125.24 154.73 124.55 153.83 124.61 C 152.93 124.66 152.24 125.43 152.30 126.34 Z M 152.36 127.36 L 152.42 128.37 C 152.47 129.27 153.25 129.96 154.15 129.91 C 155.05 129.85 155.74 129.08 155.69 128.18 L 155.63 127.17 C 155.57 126.27 154.80 125.58 153.90 125.63 C 153.00 125.69 152.31 126.46 152.36 127.36 Z M 152.42 128.37 L 152.48 129.35 C 152.53 130.25 153.30 130.94 154.21 130.88 C 155.11 130.83 155.80 130.06 155.74 129.16 L 155.69 128.18 C 155.63 127.28 154.86 126.59 153.96 126.64 C 153.06 126.69 152.37 127.47 152.42 128.37 Z M 152.48 129.34 L 152.53 130.33 C 152.59 131.23 153.36 131.92 154.26 131.87 C 155.16 131.82 155.85 131.05 155.80 130.14 L 155.74 129.16 C 155.69 128.26 154.92 127.57 154.02 127.62 C 153.12 127.67 152.43 128.44 152.48 129.34 Z M 152.53 130.33 L 152.59 131.32 C 152.64 132.22 153.41 132.91 154.31 132.87 C 155.21 132.82 155.90 132.04 155.86 131.14 L 155.80 130.15 C 155.75 129.25 154.98 128.55 154.08 128.60 C 153.18 128.65 152.48 129.42 152.53 130.33 Z M 152.59 131.31 L 152.64 132.32 C 152.68 133.22 153.45 133.91 154.36 133.87 C 155.26 133.82 155.95 133.05 155.91 132.15 L 155.86 131.15 C 155.81 130.25 155.04 129.55 154.14 129.60 C 153.24 129.64 152.54 130.41 152.59 131.31 Z M 152.64 132.31 L 152.69 133.32 C 152.73 134.23 153.49 134.92 154.40 134.88 C 155.30 134.84 156.00 134.07 155.96 133.17 L 155.91 132.16 C 155.86 131.25 155.10 130.56 154.20 130.60 C 153.29 130.64 152.60 131.41 152.64 132.31 Z M 152.69 133.31 L 152.73 134.33 C 152.77 135.24 153.53 135.94 154.43 135.90 C 155.34 135.86 156.04 135.10 156.00 134.20 L 155.96 133.18 C 155.92 132.27 155.15 131.57 154.25 131.61 C 153.35 131.65 152.65 132.41 152.69 133.31 Z M 152.73 134.33 L 152.77 135.32 C 152.80 136.22 153.56 136.93 154.46 136.89 C 155.37 136.86 156.07 136.10 156.04 135.20 L 156.00 134.20 C 155.97 133.30 155.21 132.60 154.30 132.63 C 153.40 132.66 152.69 133.42 152.73 134.33 Z M 152.76 135.31 L 152.80 136.29 C 152.83 137.19 153.58 137.90 154.48 137.87 C 155.39 137.84 156.10 137.08 156.07 136.18 L 156.04 135.21 C 156.01 134.30 155.25 133.59 154.35 133.62 C 153.44 133.65 152.74 134.41 152.76 135.31 Z M 152.80 136.28 L 152.82 137.26 C 152.85 138.17 153.60 138.88 154.51 138.85 C 155.41 138.83 156.12 138.07 156.10 137.17 L 156.07 136.19 C 156.04 135.28 155.29 134.57 154.39 134.60 C 153.48 134.62 152.77 135.38 152.80 136.28 Z M 152.82 137.26 L 152.85 138.25 C 152.87 139.15 153.62 139.87 154.52 139.85 C 155.43 139.82 156.14 139.07 156.12 138.17 L 156.10 137.18 C 156.07 136.27 155.32 135.56 154.42 135.58 C 153.52 135.60 152.80 136.35 152.82 137.26 Z M 152.85 138.24 L 152.87 139.25 C 152.89 140.15 153.64 140.87 154.54 140.85 C 155.45 140.83 156.16 140.08 156.14 139.18 L 156.12 138.17 C 156.10 137.27 155.35 136.55 154.45 136.57 C 153.54 136.59 152.83 137.34 152.85 138.24 Z M 152.87 139.24 L 152.89 140.26 C 152.91 141.16 153.65 141.88 154.56 141.86 C 155.46 141.84 156.18 141.10 156.16 140.19 L 156.14 139.18 C 156.12 138.28 155.38 137.56 154.47 137.57 C 153.57 137.59 152.85 138.34 152.87 139.24 Z M 152.89 140.25 L 152.91 141.28 C 152.92 142.18 153.67 142.90 154.57 142.88 C 155.48 142.87 156.20 142.12 156.18 141.22 L 156.16 140.19 C 156.15 139.29 155.40 138.57 154.50 138.59 C 153.59 138.60 152.87 139.35 152.89 140.25 Z M 152.91 141.28 L 152.93 142.30 C 152.94 143.21 153.69 143.93 154.59 143.91 C 155.49 143.90 156.21 143.15 156.20 142.25 L 156.18 141.22 C 156.17 140.31 155.42 139.59 154.52 139.61 C 153.61 139.63 152.89 140.37 152.91 141.28 Z M 152.93 142.30 L 152.94 143.31 C 152.96 144.21 153.70 144.93 154.61 144.92 C 155.51 144.90 156.23 144.16 156.22 143.25 L 156.20 142.25 C 156.18 141.34 155.44 140.62 154.53 140.64 C 153.63 140.65 152.91 141.40 152.93 142.30 Z M 152.94 143.31 L 152.96 144.32 C 152.97 145.22 153.72 145.95 154.62 145.93 C 155.53 145.92 156.25 145.17 156.23 144.27 L 156.22 143.25 C 156.20 142.35 155.46 141.63 154.55 141.64 C 153.65 141.66 152.93 142.40 152.94 143.31 Z M 152.96 144.32 L 152.98 145.33 C 152.99 146.24 153.74 146.96 154.64 146.94 C 155.54 146.93 156.26 146.19 156.25 145.28 L 156.23 144.27 C 156.22 143.36 155.47 142.64 154.57 142.66 C 153.67 142.67 152.95 143.42 152.96 144.32 Z M 152.98 145.33 L 152.99 146.34 C 153.01 147.25 153.75 147.97 154.65 147.96 C 155.56 147.94 156.28 147.20 156.26 146.29 L 156.25 145.28 C 156.24 144.38 155.49 143.66 154.59 143.67 C 153.68 143.69 152.96 144.43 152.98 145.33 Z M 152.99 146.34 L 153.01 147.35 C 153.02 148.25 153.76 148.97 154.66 148.96 C 155.57 148.95 156.29 148.20 156.28 147.30 L 156.26 146.30 C 156.25 145.39 155.51 144.67 154.61 144.68 C 153.70 144.70 152.98 145.44 152.99 146.34 Z M 153.01 147.34 L 153.02 148.33 C 153.03 149.24 153.77 149.96 154.68 149.95 C 155.58 149.94 156.30 149.20 156.29 148.29 L 156.28 147.30 C 156.27 146.40 155.52 145.67 154.62 145.69 C 153.72 145.70 152.99 146.44 153.01 147.34 Z M 153.02 148.33 L 153.03 149.31 C 153.04 150.21 153.78 150.93 154.68 150.92 C 155.59 150.91 156.31 150.17 156.30 149.27 L 156.29 148.30 C 156.28 147.39 155.54 146.67 154.64 146.68 C 153.73 146.69 153.01 147.43 153.02 148.33 Z M 153.03 149.30 L 153.04 150.32 C 153.05 151.23 153.79 151.95 154.69 151.94 C 155.59 151.94 156.32 151.20 156.31 150.29 L 156.30 149.27 C 156.29 148.37 155.55 147.64 154.65 147.65 C 153.75 147.66 153.02 148.40 153.03 149.30 Z M 153.04 150.32 L 153.05 151.35 C 153.05 152.26 153.79 152.98 154.69 152.98 C 155.59 152.97 156.32 152.24 156.32 151.33 L 156.31 150.30 C 156.30 149.39 155.57 148.67 154.66 148.67 C 153.76 148.68 153.03 149.42 153.04 150.32 Z M 153.05 151.35 L 153.05 152.36 C 153.05 153.27 153.79 154.00 154.69 153.99 C 155.60 153.99 156.32 153.25 156.32 152.35 L 156.32 151.34 C 156.31 150.43 155.58 149.70 154.67 149.71 C 153.77 149.71 153.04 150.45 153.05 151.35 Z M 153.05 152.36 L 153.05 153.36 C 153.06 154.26 153.79 154.99 154.69 154.99 C 155.60 154.99 156.33 154.25 156.32 153.35 L 156.32 152.35 C 156.32 151.45 155.58 150.72 154.68 150.72 C 153.78 150.73 153.05 151.46 153.05 152.36 Z M 153.05 153.36 L 153.06 154.34 C 153.06 155.24 153.79 155.97 154.69 155.97 C 155.59 155.97 156.33 155.24 156.32 154.33 L 156.32 153.35 C 156.32 152.45 155.59 151.72 154.69 151.72 C 153.78 151.72 153.05 152.45 153.05 153.36 Z M 153.06 154.34 L 153.06 155.31 C 153.06 156.21 153.79 156.95 154.69 156.95 C 155.59 156.94 156.32 156.21 156.32 155.31 L 156.32 154.34 C 156.32 153.43 155.59 152.70 154.69 152.70 C 153.79 152.70 153.06 153.44 153.06 154.34 Z M 153.06 155.31 L 153.06 156.28 C 153.06 157.18 153.79 157.91 154.69 157.91 C 155.59 157.91 156.32 157.18 156.32 156.28 L 156.32 155.31 C 156.32 154.41 155.59 153.68 154.69 153.68 C 153.79 153.68 153.06 154.41 153.06 155.31 Z M 153.06 156.28 L 153.06 157.28 C 153.06 158.18 153.79 158.91 154.69 158.91 C 155.59 158.91 156.32 158.18 156.32 157.28 L 156.32 156.28 C 156.32 155.38 155.59 154.65 154.69 154.65 C 153.79 154.65 153.06 155.38 153.06 156.28 Z M 153.06 157.28 L 153.06 158.28 C 153.06 159.18 153.79 159.91 154.69 159.92 C 155.59 159.92 156.32 159.19 156.32 158.28 L 156.32 157.28 C 156.32 156.38 155.59 155.65 154.69 155.65 C 153.79 155.65 153.06 156.38 153.06 157.28 Z M 153.06 158.28 L 153.06 159.29 C 153.06 160.19 153.79 160.92 154.69 160.92 C 155.59 160.92 156.32 160.19 156.32 159.29 L 156.32 158.29 C 156.32 157.39 155.59 156.66 154.69 156.65 C 153.79 156.65 153.06 157.38 153.06 158.28 Z M 153.06 159.28 L 153.06 160.29 C 153.06 161.19 153.78 161.92 154.68 161.92 C 155.58 161.92 156.31 161.19 156.31 160.29 L 156.32 159.29 C 156.32 158.39 155.59 157.66 154.69 157.66 C 153.79 157.66 153.06 158.38 153.06 159.28 Z M 153.06 160.28 L 153.06 161.28 C 153.05 162.18 153.78 162.91 154.68 162.91 C 155.57 162.92 156.30 162.19 156.31 161.30 L 156.31 160.30 C 156.32 159.40 155.59 158.67 154.69 158.66 C 153.80 158.66 153.06 159.38 153.06 160.28 Z M 153.06 161.28 L 153.05 162.27 C 153.04 163.17 153.77 163.90 154.66 163.91 C 155.56 163.91 156.29 163.19 156.30 162.29 L 156.31 161.30 C 156.31 160.40 155.59 159.67 154.69 159.66 C 153.80 159.66 153.06 160.38 153.06 161.28 Z M 153.05 162.27 L 153.04 163.26 C 153.03 164.16 153.75 164.89 154.65 164.90 C 155.55 164.91 156.28 164.19 156.29 163.29 L 156.30 162.30 C 156.31 161.40 155.59 160.67 154.69 160.66 C 153.79 160.65 153.06 161.37 153.05 162.27 Z M 153.04 163.26 L 153.03 164.27 C 153.02 165.17 153.74 165.90 154.63 165.91 C 155.53 165.93 156.26 165.21 156.28 164.31 L 156.29 163.30 C 156.30 162.40 155.58 161.67 154.69 161.66 C 153.79 161.64 153.06 162.36 153.04 163.26 Z M 153.03 164.27 L 153.02 165.28 C 153.00 166.17 153.72 166.91 154.61 166.92 C 155.51 166.94 156.24 166.22 156.26 165.33 L 156.27 164.32 C 156.29 163.42 155.57 162.69 154.68 162.67 C 153.78 162.66 153.05 163.37 153.03 164.27 Z M 153.02 165.27 L 153.00 166.27 C 152.98 167.17 153.69 167.91 154.59 167.92 C 155.48 167.94 156.22 167.23 156.24 166.34 L 156.26 165.33 C 156.27 164.44 155.56 163.70 154.67 163.68 C 153.78 163.67 153.04 164.38 153.02 165.27 Z M 153.00 166.27 L 152.98 167.26 C 152.96 168.16 153.67 168.90 154.56 168.92 C 155.45 168.94 156.19 168.23 156.21 167.34 L 156.23 166.34 C 156.25 165.45 155.55 164.71 154.65 164.69 C 153.76 164.67 153.02 165.38 153.00 166.27 Z M 152.98 167.26 L 152.96 168.25 C 152.93 169.14 153.64 169.88 154.53 169.90 C 155.42 169.93 156.16 169.22 156.18 168.33 L 156.21 167.34 C 156.23 166.45 155.53 165.71 154.64 165.69 C 153.75 165.66 153.01 166.37 152.98 167.26 Z M 152.96 168.24 L 152.93 169.23 C 152.90 170.12 153.60 170.86 154.49 170.89 C 155.38 170.91 156.13 170.21 156.15 169.32 L 156.18 168.34 C 156.21 167.45 155.51 166.71 154.62 166.68 C 153.73 166.65 152.98 167.35 152.96 168.24 Z M 152.93 169.22 L 152.90 170.24 C 152.87 171.12 153.56 171.87 154.45 171.90 C 155.34 171.93 156.09 171.23 156.12 170.34 L 156.15 169.33 C 156.18 168.44 155.48 167.69 154.59 167.66 C 153.71 167.64 152.96 168.33 152.93 169.22 Z M 152.90 170.23 L 152.86 171.24 C 152.83 172.13 153.52 172.88 154.41 172.91 C 155.30 172.94 156.04 172.25 156.08 171.36 L 156.11 170.35 C 156.15 169.46 155.45 168.72 154.57 168.68 C 153.68 168.65 152.93 169.34 152.90 170.23 Z M 152.86 171.24 L 152.82 172.24 C 152.78 173.13 153.47 173.88 154.36 173.91 C 155.24 173.95 155.99 173.26 156.03 172.38 L 156.07 171.37 C 156.11 170.49 155.42 169.74 154.54 169.70 C 153.65 169.66 152.90 170.35 152.86 171.24 Z M 152.82 172.23 L 152.78 173.23 C 152.73 174.11 153.42 174.87 154.30 174.91 C 155.19 174.95 155.94 174.27 155.98 173.38 L 156.03 172.39 C 156.07 171.50 155.39 170.75 154.50 170.71 C 153.62 170.66 152.87 171.35 152.82 172.23 Z M 152.78 173.22 L 152.72 174.21 C 152.68 175.09 153.35 175.84 154.24 175.89 C 155.12 175.94 155.88 175.26 155.92 174.38 L 155.98 173.39 C 156.03 172.51 155.35 171.75 154.47 171.71 C 153.58 171.66 152.83 172.34 152.78 173.22 Z M 152.73 174.19 L 152.67 175.17 C 152.61 176.05 153.28 176.81 154.16 176.87 C 155.05 176.92 155.81 176.25 155.86 175.37 L 155.92 174.39 C 155.98 173.51 155.30 172.75 154.42 172.70 C 153.54 172.64 152.78 173.31 152.73 174.19 Z M 152.67 175.16 L 152.60 176.16 C 152.54 177.04 153.20 177.81 154.08 177.87 C 154.96 177.93 155.73 177.26 155.79 176.38 L 155.86 175.38 C 155.92 174.50 155.25 173.74 154.37 173.68 C 153.49 173.62 152.73 174.28 152.67 175.16 Z M 152.60 176.15 L 152.53 177.15 C 152.46 178.03 153.12 178.80 153.99 178.87 C 154.87 178.93 155.64 178.28 155.71 177.40 L 155.78 176.40 C 155.85 175.52 155.19 174.75 154.32 174.68 C 153.44 174.61 152.67 175.27 152.60 176.15 Z M 152.53 177.15 L 152.45 178.14 C 152.38 179.02 153.03 179.79 153.91 179.86 C 154.78 179.93 155.55 179.28 155.62 178.40 L 155.71 177.41 C 155.78 176.53 155.12 175.76 154.25 175.69 C 153.37 175.62 152.60 176.27 152.53 177.15 Z M 152.45 178.14 L 152.37 179.13 C 152.29 180.01 152.94 180.78 153.82 180.85 C 154.70 180.92 155.46 180.27 155.54 179.40 L 155.62 178.41 C 155.70 177.53 155.04 176.76 154.17 176.69 C 153.29 176.61 152.52 177.26 152.45 178.14 Z M 152.37 179.13 L 152.29 180.12 C 152.21 181.00 152.86 181.76 153.74 181.84 C 154.61 181.91 155.38 181.26 155.45 180.39 L 155.54 179.40 C 155.61 178.52 154.96 177.75 154.09 177.68 C 153.21 177.61 152.44 178.26 152.37 179.13 Z M 152.29 180.12 L 152.21 181.12 C 152.13 181.99 152.78 182.76 153.66 182.83 C 154.53 182.90 155.30 182.25 155.37 181.38 L 155.45 180.38 C 155.52 179.51 154.87 178.74 154.00 178.67 C 153.13 178.60 152.36 179.25 152.29 180.12 Z M 152.21 181.12 L 152.13 182.17 C 152.06 183.04 152.71 183.80 153.58 183.87 C 154.45 183.94 155.22 183.29 155.29 182.41 L 155.37 181.37 C 155.44 180.50 154.78 179.73 153.91 179.67 C 153.04 179.60 152.28 180.25 152.21 181.12 Z M 152.13 182.17 L 152.05 183.21 C 151.99 184.08 152.64 184.84 153.51 184.91 C 154.38 184.97 155.14 184.32 155.21 183.45 L 155.28 182.41 C 155.35 181.54 154.69 180.78 153.82 180.71 C 152.95 180.65 152.19 181.30 152.13 182.17 Z M 152.05 183.22 L 151.98 184.23 C 151.92 185.10 152.57 185.86 153.44 185.92 C 154.31 185.99 155.07 185.33 155.13 184.46 L 155.20 183.44 C 155.27 182.57 154.61 181.82 153.74 181.75 C 152.87 181.69 152.12 182.35 152.05 183.22 Z M 151.98 184.24 L 151.91 185.23 C 151.85 186.09 152.51 186.85 153.38 186.91 C 154.24 186.97 155.00 186.31 155.06 185.45 L 155.13 184.46 C 155.19 183.59 154.53 182.84 153.66 182.78 C 152.80 182.72 152.04 183.37 151.98 184.24 Z M 151.92 185.23 L 151.85 186.17 C 151.79 187.04 152.45 187.79 153.31 187.85 C 154.18 187.91 154.93 187.25 154.99 186.39 L 155.06 185.44 C 155.11 184.58 154.46 183.83 153.59 183.77 C 152.73 183.71 151.98 184.36 151.92 185.23 Z M 151.85 186.17 L 151.79 187.19 C 151.73 188.05 152.38 188.80 153.25 188.86 C 154.11 188.92 154.86 188.26 154.92 187.40 L 154.99 186.39 C 155.05 185.52 154.39 184.77 153.53 184.71 C 152.66 184.66 151.91 185.31 151.85 186.17 Z M 151.79 187.19 L 151.72 188.25 C 151.66 189.11 152.32 189.85 153.18 189.91 C 154.04 189.97 154.79 189.32 154.84 188.45 L 154.91 187.40 C 154.97 186.53 154.32 185.79 153.46 185.73 C 152.59 185.67 151.85 186.33 151.79 187.19 Z M 151.73 188.25 L 151.66 189.24 C 151.61 190.10 152.26 190.84 153.12 190.90 C 153.98 190.95 154.72 190.30 154.77 189.44 L 154.84 188.45 C 154.89 187.59 154.24 186.85 153.38 186.80 C 152.52 186.74 151.78 187.39 151.73 188.25 Z M 151.67 189.25 L 151.61 190.19 C 151.56 191.05 152.22 191.78 153.07 191.83 C 153.93 191.89 154.66 191.23 154.71 190.38 L 154.77 189.43 C 154.82 188.58 154.17 187.84 153.31 187.79 C 152.46 187.74 151.72 188.39 151.67 189.25 Z M 151.62 190.20 L 151.57 191.15 C 151.52 192.00 152.18 192.73 153.03 192.77 C 153.89 192.82 154.61 192.16 154.66 191.31 L 154.71 190.37 C 154.75 189.51 154.10 188.79 153.25 188.74 C 152.39 188.70 151.66 189.35 151.62 190.20 Z M 151.58 191.16 L 151.53 192.18 C 151.49 193.03 152.15 193.75 153.00 193.79 C 153.85 193.83 154.57 193.17 154.60 192.32 L 154.65 191.30 C 154.69 190.45 154.03 189.73 153.18 189.69 C 152.33 189.65 151.61 190.31 151.58 191.16 Z M 151.54 192.19 L 151.50 193.19 C 151.46 194.04 152.12 194.75 152.97 194.78 C 153.81 194.82 154.52 194.16 154.56 193.32 L 154.60 192.31 C 154.63 191.47 153.97 190.75 153.13 190.72 C 152.28 190.69 151.57 191.34 151.54 192.19 Z M 151.51 193.20 L 151.47 194.18 C 151.44 195.02 152.09 195.73 152.93 195.76 C 153.78 195.79 154.48 195.14 154.51 194.30 L 154.55 193.31 C 154.58 192.47 153.92 191.76 153.08 191.73 C 152.24 191.70 151.54 192.36 151.51 193.20 Z M 151.48 194.18 L 151.44 195.18 C 151.41 196.02 152.06 196.72 152.90 196.75 C 153.74 196.78 154.44 196.13 154.47 195.29 L 154.50 194.29 C 154.53 193.46 153.88 192.76 153.05 192.73 C 152.21 192.70 151.51 193.35 151.48 194.18 Z M 151.45 195.18 L 151.41 196.20 C 151.38 197.03 152.03 197.73 152.86 197.76 C 153.69 197.79 154.39 197.14 154.42 196.31 L 154.46 195.29 C 154.49 194.46 153.84 193.76 153.01 193.73 C 152.18 193.70 151.48 194.35 151.45 195.18 Z M 151.42 196.19 L 151.38 197.19 C 151.35 198.01 152.00 198.71 152.82 198.74 C 153.65 198.77 154.34 198.13 154.37 197.30 L 154.41 196.31 C 154.44 195.48 153.80 194.79 152.97 194.76 C 152.15 194.72 151.45 195.37 151.42 196.19 Z M 151.39 197.19 L 151.35 198.16 C 151.32 198.98 151.96 199.67 152.78 199.71 C 153.60 199.74 154.30 199.10 154.33 198.28 L 154.37 197.30 C 154.40 196.48 153.76 195.79 152.94 195.76 C 152.12 195.73 151.42 196.37 151.39 197.19 Z M 151.36 198.16 L 151.32 199.17 C 151.29 199.99 151.93 200.68 152.74 200.71 C 153.56 200.74 154.25 200.10 154.28 199.29 L 154.32 198.28 C 154.35 197.46 153.72 196.77 152.90 196.74 C 152.08 196.71 151.40 197.34 151.36 198.16 Z M 151.33 199.17 L 151.29 200.17 C 151.26 200.98 151.89 201.67 152.70 201.70 C 153.51 201.73 154.20 201.10 154.23 200.29 L 154.27 199.29 C 154.30 198.48 153.67 197.79 152.86 197.76 C 152.05 197.73 151.36 198.36 151.33 199.17 Z M 151.30 200.17 L 151.26 201.16 C 151.23 201.97 151.86 202.65 152.66 202.68 C 153.47 202.72 154.15 202.09 154.18 201.28 L 154.22 200.29 C 154.25 199.48 153.63 198.80 152.82 198.77 C 152.01 198.74 151.33 199.37 151.30 200.17 Z M 151.27 201.16 L 151.23 202.15 C 151.20 202.95 151.82 203.62 152.62 203.66 C 153.42 203.69 154.10 203.07 154.13 202.26 L 154.17 201.28 C 154.21 200.48 153.58 199.80 152.78 199.77 C 151.98 199.74 151.30 200.36 151.27 201.16 Z M 151.23 202.15 L 151.20 203.13 C 151.17 203.93 151.79 204.61 152.59 204.64 C 153.39 204.67 154.06 204.04 154.09 203.24 L 154.13 202.26 C 154.16 201.46 153.54 200.79 152.74 200.76 C 151.94 200.73 151.26 201.35 151.23 202.15 Z M 151.20 203.14 L 151.17 204.15 C 151.15 204.94 151.77 205.61 152.57 205.63 C 153.36 205.66 154.03 205.03 154.05 204.24 L 154.08 203.23 C 154.11 202.44 153.48 201.77 152.69 201.75 C 151.89 201.72 151.23 202.35 151.20 203.14 Z M 151.18 204.16 L 151.15 205.17 C 151.14 205.96 151.77 206.62 152.56 206.63 C 153.35 206.65 154.01 206.02 154.03 205.23 L 154.05 204.22 C 154.06 203.43 153.44 202.77 152.64 202.76 C 151.85 202.74 151.19 203.37 151.18 204.16 Z M 151.16 205.18 L 151.15 206.16 C 151.14 206.95 151.77 207.60 152.56 207.61 C 153.35 207.62 154.00 206.99 154.01 206.20 L 154.02 205.21 C 154.03 204.42 153.40 203.77 152.61 203.77 C 151.81 203.76 151.17 204.39 151.16 205.18 Z M 151.15 206.17 L 151.14 207.18 C 151.14 207.97 151.78 208.61 152.57 208.62 C 153.36 208.62 154.00 207.98 154.01 207.19 L 154.01 206.19 C 154.01 205.40 153.38 204.75 152.59 204.75 C 151.80 204.75 151.15 205.38 151.15 206.17 Z M 151.15 207.18 L 151.15 208.20 C 151.15 208.99 151.78 209.63 152.57 209.63 C 153.36 209.63 154.00 209.00 154.00 208.21 L 154.00 207.19 C 154.00 206.40 153.36 205.76 152.58 205.76 C 151.79 205.76 151.15 206.40 151.15 207.18 Z M 151.15 208.21 L 151.15 208.49 C 151.15 209.27 151.79 209.91 152.57 209.91 C 153.36 209.91 154.00 209.27 154.00 208.49 L 154.00 208.21 C 154.00 207.42 153.36 206.78 152.57 206.78 C 151.79 206.78 151.15 207.42 151.15 208.21 Z"
      fill="black"
      fill-rule="nonzero" /></svg>