<svg xmlns="http://www.w3.org/2000/svg" width="300" height="300" viewBox="0 0 300 300">
<path d="M 122.68 99.41 L 121.28 99.41 C 120.37 99.41 119.63 100.15 119.63 101.06 C 119.63 101.97 120.37 102.71 121.28 102.71 L 122.67 102.71 C 123.58 102.72 124.32 101.98 124.33 101.07 C 124.33 100.16 123.59 99.42 122.68 99.41 Z M 121.31 99.40 L 120.55 99.39 C 119.64 99.38 118.88 100.11 118.87 101.02 C 118.85 101.94 119.58 102.69 120.50 102.71 L 121.25 102.72 C 122.17 102.74 122.93 102.01 122.94 101.09 C 122.96 100.17 122.23 99.42 121.31 99.40 Z M 120.69 102.71 L 120.97 102.68 C 121.89 102.59 122.56 101.77 122.47 100.86 C 122.38 99.94 121.56 99.28 120.65 99.37 L 120.36 99.39 C 119.45 99.48 118.78 100.30 118.87 101.21 C 118.96 102.13 119.77 102.80 120.69 102.71 Z M 120.91 102.68 L 121.87 102.63 C 122.79 102.57 123.49 101.79 123.43 100.87 C 123.38 99.95 122.59 99.25 121.67 99.30 L 120.71 99.36 C 119.80 99.41 119.10 100.20 119.15 101.12 C 119.20 102.04 119.99 102.74 120.91 102.68 Z M 121.90 102.62 L 123.23 102.52 C 124.15 102.44 124.83 101.64 124.76 100.73 C 124.69 99.81 123.89 99.13 122.97 99.20 L 121.64 99.31 C 120.72 99.38 120.04 100.18 120.11 101.10 C 120.19 102.01 120.99 102.70 121.90 102.62 Z M 123.29 102.51 L 124.30 102.39 C 125.21 102.29 125.87 101.46 125.76 100.56 C 125.66 99.65 124.83 98.99 123.93 99.10 L 122.91 99.21 C 122.00 99.32 121.35 100.14 121.46 101.05 C 121.56 101.96 122.38 102.61 123.29 102.51 Z M 124.36 102.37 L 125.25 102.24 C 126.15 102.11 126.77 101.27 126.63 100.37 C 126.50 99.47 125.66 98.85 124.76 98.98 L 123.87 99.11 C 122.97 99.25 122.35 100.09 122.48 100.99 C 122.62 101.89 123.46 102.51 124.36 102.37 Z M 125.29 102.22 L 126.23 102.05 C 127.12 101.89 127.71 101.04 127.56 100.15 C 127.40 99.27 126.55 98.67 125.66 98.83 L 124.72 99.00 C 123.83 99.16 123.23 100.01 123.39 100.90 C 123.55 101.79 124.40 102.38 125.29 102.22 Z M 126.27 102.03 L 127.29 101.83 C 128.17 101.65 128.74 100.79 128.56 99.91 C 128.38 99.03 127.52 98.46 126.64 98.64 L 125.62 98.85 C 124.74 99.03 124.17 99.89 124.35 100.77 C 124.53 101.65 125.39 102.21 126.27 102.03 Z M 127.32 101.81 L 128.45 101.56 C 129.32 101.36 129.87 100.50 129.67 99.63 C 129.48 98.76 128.62 98.21 127.75 98.41 L 126.61 98.66 C 125.74 98.85 125.20 99.72 125.39 100.59 C 125.59 101.46 126.45 102.00 127.32 101.81 Z M 128.47 101.54 L 129.41 101.32 C 130.27 101.12 130.80 100.25 130.60 99.39 C 130.40 98.53 129.53 98.00 128.67 98.20 L 127.73 98.42 C 126.87 98.62 126.33 99.49 126.54 100.35 C 126.74 101.21 127.60 101.75 128.47 101.54 Z M 129.42 101.31 L 130.36 101.08 C 131.22 100.87 131.74 100.01 131.54 99.15 C 131.33 98.29 130.46 97.77 129.61 97.98 L 128.66 98.21 C 127.80 98.42 127.28 99.28 127.49 100.14 C 127.70 100.99 128.56 101.52 129.42 101.31 Z M 130.37 101.07 L 131.36 100.82 C 132.21 100.61 132.72 99.75 132.51 98.90 C 132.30 98.05 131.44 97.53 130.59 97.74 L 129.60 97.99 C 128.75 98.20 128.23 99.06 128.45 99.91 C 128.66 100.76 129.52 101.28 130.37 101.07 Z M 131.36 100.81 L 132.37 100.56 C 133.21 100.34 133.72 99.48 133.51 98.63 C 133.29 97.79 132.43 97.28 131.58 97.49 L 130.58 97.75 C 129.73 97.97 129.22 98.83 129.44 99.67 C 129.66 100.52 130.52 101.03 131.36 100.81 Z M 132.37 100.55 L 133.38 100.28 C 134.22 100.07 134.72 99.21 134.50 98.37 C 134.28 97.53 133.42 97.02 132.58 97.24 L 131.58 97.50 C 130.74 97.72 130.24 98.58 130.45 99.42 C 130.67 100.26 131.53 100.76 132.37 100.55 Z M 133.38 100.28 L 134.37 100.01 C 135.20 99.79 135.70 98.94 135.48 98.10 C 135.26 97.27 134.40 96.77 133.57 96.99 L 132.58 97.25 C 131.75 97.47 131.25 98.33 131.47 99.16 C 131.69 100.00 132.54 100.50 133.38 100.28 Z M 134.37 100.01 L 135.32 99.75 C 136.15 99.53 136.64 98.67 136.42 97.84 C 136.20 97.01 135.34 96.52 134.51 96.74 L 133.56 97.00 C 132.73 97.22 132.24 98.08 132.46 98.91 C 132.69 99.74 133.54 100.23 134.37 100.01 Z M 135.32 99.74 L 136.43 99.43 C 137.26 99.21 137.74 98.36 137.52 97.54 C 137.29 96.71 136.44 96.23 135.62 96.45 L 134.51 96.76 C 133.69 96.98 133.20 97.83 133.43 98.65 C 133.65 99.48 134.50 99.96 135.32 99.74 Z M 136.44 99.42 L 137.47 99.13 C 138.29 98.90 138.76 98.06 138.54 97.24 C 138.31 96.43 137.47 95.95 136.65 96.18 L 135.62 96.47 C 134.80 96.70 134.32 97.54 134.55 98.35 C 134.78 99.17 135.62 99.65 136.44 99.42 Z M 137.48 99.11 L 138.44 98.84 C 139.25 98.61 139.72 97.77 139.49 96.97 C 139.26 96.16 138.42 95.69 137.62 95.92 L 136.65 96.20 C 135.84 96.43 135.37 97.26 135.60 98.07 C 135.83 98.87 136.67 99.34 137.48 99.11 Z M 138.44 98.82 L 139.35 98.56 C 140.15 98.33 140.61 97.50 140.38 96.70 C 140.15 95.91 139.32 95.45 138.52 95.68 L 137.61 95.94 C 136.82 96.17 136.36 97.00 136.59 97.80 C 136.82 98.59 137.65 99.05 138.44 98.82 Z M 139.35 98.55 L 140.21 98.30 C 141.00 98.07 141.45 97.24 141.22 96.45 C 140.99 95.66 140.17 95.21 139.38 95.44 L 138.52 95.69 C 137.73 95.92 137.28 96.75 137.51 97.54 C 137.74 98.32 138.57 98.78 139.35 98.55 Z M 140.21 98.28 L 141.13 98.01 C 141.91 97.78 142.36 96.97 142.13 96.18 C 141.90 95.40 141.08 94.96 140.30 95.19 L 139.38 95.46 C 138.60 95.68 138.15 96.50 138.38 97.29 C 138.61 98.07 139.43 98.51 140.21 98.28 Z M 141.13 98.00 L 142.11 97.71 C 142.88 97.49 143.33 96.67 143.10 95.90 C 142.87 95.12 142.05 94.68 141.28 94.91 L 140.30 95.20 C 139.52 95.42 139.08 96.24 139.31 97.01 C 139.54 97.79 140.35 98.23 141.13 98.00 Z M 142.10 97.71 L 143.06 97.43 C 143.83 97.20 144.27 96.39 144.04 95.62 C 143.81 94.85 143.00 94.41 142.23 94.63 L 141.28 94.91 C 140.51 95.14 140.07 95.95 140.30 96.72 C 140.52 97.49 141.33 97.93 142.10 97.71 Z M 143.05 97.42 L 143.99 97.15 C 144.76 96.92 145.20 96.12 144.97 95.35 C 144.75 94.58 143.94 94.14 143.17 94.37 L 142.24 94.64 C 141.47 94.86 141.03 95.67 141.25 96.44 C 141.48 97.20 142.28 97.64 143.05 97.42 Z M 143.98 97.14 L 144.92 96.87 C 145.69 96.65 146.13 95.85 145.91 95.09 C 145.69 94.32 144.89 93.88 144.12 94.10 L 143.18 94.37 C 142.42 94.59 141.98 95.39 142.20 96.15 C 142.42 96.92 143.22 97.36 143.98 97.14 Z M 144.91 96.87 L 145.86 96.60 C 146.62 96.38 147.07 95.59 146.85 94.83 C 146.63 94.06 145.84 93.62 145.08 93.84 L 144.13 94.10 C 143.37 94.32 142.93 95.11 143.14 95.87 C 143.36 96.64 144.15 97.08 144.91 96.87 Z M 145.85 96.60 L 146.81 96.33 C 147.57 96.12 148.02 95.33 147.81 94.57 C 147.60 93.80 146.81 93.36 146.04 93.57 L 145.08 93.84 C 144.32 94.05 143.88 94.84 144.09 95.60 C 144.30 96.36 145.09 96.81 145.85 96.60 Z M 146.81 96.33 L 147.78 96.06 C 148.54 95.85 148.99 95.07 148.78 94.30 C 148.57 93.54 147.78 93.09 147.02 93.30 L 146.05 93.57 C 145.29 93.78 144.84 94.57 145.05 95.33 C 145.26 96.09 146.05 96.54 146.81 96.33 Z M 147.78 96.06 L 148.75 95.79 C 149.51 95.59 149.96 94.80 149.75 94.04 C 149.55 93.28 148.76 92.83 148.00 93.04 L 147.02 93.31 C 146.26 93.51 145.81 94.30 146.02 95.06 C 146.23 95.82 147.01 96.27 147.78 96.06 Z M 148.75 95.79 L 149.11 95.69 C 149.87 95.49 150.32 94.70 150.11 93.94 C 149.91 93.18 149.12 92.73 148.36 92.94 L 148.00 93.04 C 147.24 93.25 146.79 94.03 147.00 94.79 C 147.21 95.55 147.99 96.00 148.75 95.79 Z"
      fill="black"
      fill-rule="nonzero" /><path d="M 131.47 97.68 L 130.98 98.39 C 130.50 99.09 130.67 100.04 131.36 100.52 C 132.06 101.00 133.01 100.83 133.49 100.14 L 133.99 99.42 C 134.47 98.73 134.30 97.78 133.60 97.30 C 132.91 96.81 131.96 96.98 131.47 97.68 Z M 130.95 98.38 L 130.43 99.13 C 129.94 99.84 130.12 100.81 130.83 101.30 C 131.54 101.79 132.51 101.61 133.00 100.90 L 133.52 100.15 C 134.01 99.44 133.83 98.47 133.12 97.98 C 132.41 97.49 131.44 97.67 130.95 98.38 Z M 130.40 99.12 L 129.84 99.95 C 129.34 100.68 129.53 101.66 130.25 102.16 C 130.98 102.65 131.97 102.47 132.46 101.74 L 133.03 100.91 C 133.52 100.19 133.33 99.20 132.61 98.71 C 131.89 98.21 130.90 98.40 130.40 99.12 Z M 129.81 99.94 L 129.17 100.89 C 128.67 101.63 128.87 102.63 129.61 103.13 C 130.35 103.63 131.35 103.44 131.85 102.69 L 132.49 101.75 C 132.99 101.01 132.79 100.00 132.05 99.50 C 131.31 99.01 130.31 99.20 129.81 99.94 Z M 129.15 100.88 L 128.58 101.74 C 128.08 102.49 128.28 103.51 129.03 104.01 C 129.79 104.51 130.80 104.31 131.30 103.56 L 131.88 102.70 C 132.38 101.94 132.17 100.93 131.42 100.43 C 130.67 99.93 129.65 100.13 129.15 100.88 Z M 128.57 101.74 L 128.02 102.58 C 127.52 103.34 127.73 104.35 128.48 104.85 C 129.24 105.35 130.26 105.15 130.76 104.39 L 131.31 103.55 C 131.81 102.80 131.60 101.78 130.85 101.28 C 130.09 100.78 129.07 100.99 128.57 101.74 Z M 128.02 102.58 L 127.44 103.45 C 126.95 104.21 127.16 105.23 127.92 105.73 C 128.67 106.23 129.69 106.01 130.19 105.26 L 130.76 104.39 C 131.26 103.63 131.05 102.61 130.29 102.11 C 129.53 101.61 128.51 101.82 128.02 102.58 Z M 127.44 103.46 L 126.87 104.33 C 126.37 105.09 126.59 106.11 127.34 106.61 C 128.10 107.10 129.12 106.89 129.62 106.13 L 130.19 105.25 C 130.69 104.49 130.48 103.48 129.72 102.98 C 128.96 102.48 127.94 102.70 127.44 103.46 Z M 126.87 104.34 L 126.31 105.19 C 125.81 105.95 126.03 106.97 126.79 107.47 C 127.55 107.96 128.57 107.75 129.06 106.98 L 129.62 106.13 C 130.12 105.37 129.90 104.35 129.14 103.86 C 128.38 103.36 127.36 103.58 126.87 104.34 Z M 126.31 105.19 L 125.78 106.00 C 125.29 106.76 125.51 107.78 126.27 108.27 C 127.03 108.77 128.05 108.55 128.54 107.79 L 129.06 106.98 C 129.56 106.22 129.34 105.20 128.58 104.71 C 127.82 104.22 126.80 104.43 126.31 105.19 Z M 125.78 106.00 L 125.17 106.95 C 124.68 107.71 124.90 108.73 125.66 109.22 C 126.42 109.71 127.44 109.49 127.93 108.73 L 128.54 107.79 C 129.03 107.03 128.82 106.01 128.05 105.52 C 127.29 105.02 126.28 105.24 125.78 106.00 Z M 125.17 106.95 L 124.59 107.86 C 124.10 108.62 124.31 109.64 125.08 110.13 C 125.84 110.62 126.85 110.40 127.34 109.64 L 127.93 108.73 C 128.42 107.97 128.20 106.95 127.44 106.46 C 126.68 105.97 125.66 106.19 125.17 106.95 Z M 124.59 107.86 L 124.07 108.66 C 123.58 109.42 123.80 110.43 124.56 110.93 C 125.32 111.42 126.33 111.20 126.83 110.44 L 127.34 109.64 C 127.83 108.88 127.61 107.87 126.85 107.37 C 126.09 106.88 125.08 107.10 124.59 107.86 Z M 124.08 108.66 L 123.60 109.39 C 123.11 110.15 123.32 111.16 124.08 111.65 C 124.84 112.14 125.85 111.93 126.34 111.17 L 126.82 110.44 C 127.31 109.68 127.10 108.67 126.34 108.18 C 125.58 107.69 124.57 107.90 124.08 108.66 Z M 123.61 109.38 L 123.10 110.16 C 122.60 110.91 122.81 111.92 123.56 112.42 C 124.32 112.91 125.33 112.71 125.82 111.95 L 126.34 111.18 C 126.83 110.43 126.62 109.42 125.87 108.92 C 125.12 108.42 124.11 108.63 123.61 109.38 Z M 123.11 110.15 L 122.56 110.97 C 122.06 111.72 122.26 112.74 123.01 113.23 C 123.76 113.73 124.77 113.53 125.27 112.78 L 125.82 111.96 C 126.32 111.21 126.12 110.20 125.37 109.70 C 124.62 109.20 123.61 109.40 123.11 110.15 Z M 122.56 110.98 L 122.00 111.81 C 121.50 112.56 121.71 113.57 122.45 114.07 C 123.20 114.56 124.21 114.36 124.71 113.62 L 125.27 112.78 C 125.76 112.03 125.56 111.02 124.82 110.53 C 124.07 110.03 123.06 110.23 122.56 110.98 Z M 122.00 111.82 L 121.44 112.67 C 120.95 113.42 121.15 114.42 121.90 114.92 C 122.65 115.41 123.66 115.20 124.15 114.45 L 124.71 113.61 C 125.21 112.86 125.00 111.85 124.25 111.36 C 123.50 110.86 122.49 111.07 122.00 111.82 Z M 121.44 112.68 L 120.90 113.51 C 120.41 114.26 120.63 115.27 121.38 115.75 C 122.13 116.24 123.14 116.02 123.62 115.27 L 124.16 114.44 C 124.65 113.69 124.43 112.68 123.68 112.20 C 122.93 111.71 121.92 111.93 121.44 112.68 Z M 120.90 113.52 L 120.36 114.36 C 119.88 115.11 120.10 116.11 120.85 116.60 C 121.60 117.08 122.60 116.86 123.08 116.11 L 123.62 115.26 C 124.11 114.51 123.89 113.51 123.13 113.03 C 122.38 112.55 121.38 112.77 120.90 113.52 Z M 120.36 114.36 L 119.82 115.21 C 119.34 115.96 119.55 116.95 120.30 117.44 C 121.05 117.92 122.05 117.70 122.53 116.95 L 123.08 116.11 C 123.56 115.36 123.35 114.36 122.60 113.88 C 121.85 113.39 120.85 113.61 120.36 114.36 Z M 119.83 115.20 L 119.28 116.04 C 118.79 116.78 118.99 117.78 119.74 118.27 C 120.48 118.76 121.48 118.55 121.97 117.81 L 122.52 116.96 C 123.01 116.22 122.80 115.22 122.06 114.73 C 121.32 114.24 120.32 114.45 119.83 115.20 Z M 119.29 116.03 L 118.72 116.87 C 118.23 117.61 118.42 118.61 119.16 119.10 C 119.89 119.60 120.89 119.40 121.39 118.66 L 121.96 117.82 C 122.45 117.09 122.26 116.09 121.52 115.59 C 120.78 115.10 119.78 115.29 119.29 116.03 Z M 118.73 116.86 L 118.17 117.69 C 117.67 118.42 117.85 119.42 118.59 119.92 C 119.32 120.42 120.31 120.23 120.81 119.50 L 121.38 118.67 C 121.88 117.94 121.69 116.94 120.96 116.44 C 120.23 115.94 119.23 116.13 118.73 116.86 Z M 118.17 117.69 L 117.61 118.51 C 117.11 119.23 117.30 120.23 118.03 120.73 C 118.76 121.23 119.75 121.04 120.25 120.31 L 120.81 119.50 C 121.31 118.77 121.12 117.78 120.39 117.28 C 119.66 116.78 118.67 116.96 118.17 117.69 Z M 117.61 118.51 L 117.08 119.29 C 116.59 120.02 116.78 121.01 117.51 121.50 C 118.23 122.00 119.23 121.81 119.72 121.08 L 120.25 120.31 C 120.75 119.58 120.56 118.59 119.83 118.09 C 119.10 117.60 118.11 117.78 117.61 118.51 Z M 117.09 119.30 L 116.56 120.07 C 116.07 120.80 116.26 121.79 116.99 122.28 C 117.72 122.77 118.70 122.58 119.20 121.85 L 119.72 121.08 C 120.21 120.35 120.02 119.36 119.29 118.87 C 118.57 118.38 117.58 118.57 117.09 119.30 Z M 116.56 120.08 L 116.01 120.90 C 115.52 121.63 115.71 122.61 116.44 123.10 C 117.16 123.59 118.15 123.40 118.64 122.67 L 119.19 121.85 C 119.68 121.12 119.49 120.14 118.76 119.65 C 118.04 119.16 117.05 119.35 116.56 120.08 Z M 116.01 120.90 L 115.40 121.81 C 114.91 122.54 115.10 123.52 115.82 124.01 C 116.55 124.49 117.53 124.31 118.02 123.58 L 118.63 122.67 C 119.12 121.95 118.93 120.97 118.21 120.48 C 117.48 119.99 116.50 120.18 116.01 120.90 Z M 115.41 121.81 L 114.72 122.82 C 114.23 123.53 114.42 124.51 115.13 125.00 C 115.85 125.49 116.83 125.31 117.32 124.59 L 118.01 123.58 C 118.50 122.87 118.31 121.89 117.59 121.40 C 116.88 120.91 115.90 121.09 115.41 121.81 Z M 114.75 122.80 L 114.06 123.78 C 113.56 124.48 113.73 125.46 114.43 125.96 C 115.13 126.45 116.11 126.28 116.61 125.58 L 117.30 124.60 C 117.79 123.90 117.63 122.93 116.92 122.43 C 116.22 121.93 115.24 122.10 114.75 122.80 Z M 114.10 123.73 L 113.51 124.51 C 112.99 125.18 113.11 126.16 113.79 126.68 C 114.47 127.20 115.44 127.08 115.96 126.40 L 116.56 125.63 C 117.08 124.95 116.95 123.97 116.28 123.45 C 115.60 122.93 114.63 123.06 114.10 123.73 Z M 113.67 124.34 L 113.26 124.74 C 112.64 125.32 112.62 126.30 113.21 126.91 C 113.79 127.53 114.77 127.55 115.38 126.96 L 115.80 126.56 C 116.41 125.98 116.44 125.00 115.85 124.39 C 115.26 123.78 114.29 123.75 113.67 124.34 Z M 115.82 125.57 L 115.74 125.13 C 115.59 124.30 114.79 123.75 113.96 123.90 C 113.13 124.06 112.58 124.85 112.74 125.68 L 112.82 126.13 C 112.97 126.95 113.77 127.50 114.60 127.35 C 115.43 127.20 115.97 126.40 115.82 125.57 Z M 115.67 125.89 L 116.08 124.68 C 116.34 123.89 115.91 123.03 115.12 122.77 C 114.33 122.50 113.47 122.93 113.20 123.72 L 112.80 124.92 C 112.54 125.72 112.96 126.58 113.76 126.84 C 114.55 127.11 115.41 126.68 115.67 125.89 Z M 116.02 124.82 L 116.44 123.88 C 116.78 123.12 116.44 122.23 115.68 121.88 C 114.91 121.54 114.02 121.88 113.68 122.65 L 113.26 123.58 C 112.92 124.35 113.26 125.24 114.02 125.58 C 114.78 125.92 115.68 125.58 116.02 124.82 Z M 116.41 123.97 L 116.86 123.10 C 117.25 122.35 116.95 121.44 116.21 121.05 C 115.46 120.66 114.55 120.95 114.16 121.70 L 113.71 122.57 C 113.32 123.31 113.61 124.23 114.36 124.62 C 115.10 125.00 116.02 124.71 116.41 123.97 Z M 116.84 123.15 L 117.34 122.26 C 117.76 121.52 117.50 120.59 116.76 120.18 C 116.03 119.76 115.09 120.02 114.68 120.76 L 114.18 121.65 C 113.76 122.38 114.02 123.32 114.76 123.73 C 115.49 124.15 116.43 123.89 116.84 123.15 Z M 117.34 122.28 L 117.86 121.40 C 118.29 120.66 118.04 119.72 117.30 119.29 C 116.57 118.86 115.62 119.11 115.20 119.85 L 114.68 120.73 C 114.25 121.47 114.50 122.41 115.23 122.84 C 115.97 123.27 116.91 123.02 117.34 122.28 Z M 117.87 121.41 L 118.38 120.54 C 118.82 119.80 118.58 118.85 117.84 118.41 C 117.10 117.97 116.14 118.22 115.71 118.96 L 115.19 119.83 C 114.75 120.57 115.00 121.52 115.73 121.96 C 116.47 122.40 117.43 122.15 117.87 121.41 Z M 118.39 120.57 L 118.92 119.70 C 119.37 118.96 119.13 117.99 118.39 117.54 C 117.65 117.08 116.68 117.32 116.23 118.06 L 115.70 118.93 C 115.25 119.67 115.48 120.64 116.23 121.09 C 116.97 121.54 117.93 121.31 118.39 120.57 Z M 118.91 119.73 L 119.45 118.89 C 119.92 118.15 119.70 117.17 118.96 116.70 C 118.22 116.23 117.24 116.45 116.77 117.19 L 116.23 118.03 C 115.76 118.77 115.98 119.75 116.72 120.22 C 117.46 120.69 118.44 120.47 118.91 119.73 Z M 119.43 118.95 L 120.02 118.08 C 120.52 117.35 120.34 116.35 119.61 115.85 C 118.87 115.35 117.88 115.54 117.38 116.27 L 116.78 117.14 C 116.28 117.87 116.47 118.87 117.20 119.37 C 117.93 119.87 118.93 119.68 119.43 118.95 Z M 119.96 118.18 L 120.60 117.39 C 121.16 116.69 121.04 115.67 120.35 115.12 C 119.65 114.56 118.63 114.67 118.07 115.37 L 117.44 116.16 C 116.88 116.86 116.99 117.88 117.69 118.44 C 118.39 118.99 119.41 118.88 119.96 118.18 Z M 120.46 117.56 L 121.14 116.91 C 121.80 116.29 121.83 115.26 121.21 114.61 C 120.58 113.95 119.55 113.92 118.90 114.54 L 118.21 115.20 C 117.56 115.82 117.53 116.85 118.15 117.50 C 118.77 118.16 119.80 118.18 120.46 117.56 Z M 120.90 117.12 L 121.69 116.62 C 122.46 116.13 122.69 115.11 122.20 114.35 C 121.72 113.58 120.70 113.35 119.93 113.84 L 119.14 114.34 C 118.37 114.83 118.15 115.84 118.63 116.61 C 119.12 117.37 120.13 117.60 120.90 117.12 Z M 121.42 116.76 L 122.33 116.40 C 123.18 116.07 123.59 115.11 123.26 114.26 C 122.92 113.41 121.96 113.00 121.12 113.33 L 120.21 113.69 C 119.36 114.03 118.94 114.98 119.28 115.83 C 119.61 116.68 120.57 117.10 121.42 116.76 Z M 122.11 116.48 L 123.10 116.24 C 123.99 116.02 124.54 115.13 124.32 114.24 C 124.11 113.35 123.21 112.80 122.32 113.02 L 121.33 113.26 C 120.44 113.47 119.89 114.37 120.11 115.26 C 120.33 116.15 121.22 116.70 122.11 116.48 Z M 122.96 116.27 L 123.96 116.12 C 124.87 115.99 125.50 115.14 125.36 114.23 C 125.23 113.33 124.38 112.70 123.47 112.83 L 122.47 112.98 C 121.56 113.12 120.93 113.96 121.07 114.87 C 121.20 115.78 122.05 116.41 122.96 116.27 Z M 123.87 116.14 L 124.86 116.04 C 125.77 115.96 126.45 115.14 126.36 114.23 C 126.27 113.31 125.46 112.64 124.54 112.73 L 123.56 112.82 C 122.64 112.91 121.97 113.72 122.06 114.64 C 122.14 115.55 122.96 116.22 123.87 116.14 Z M 124.82 116.05 L 125.82 115.98 C 126.74 115.92 127.44 115.12 127.37 114.20 C 127.31 113.28 126.51 112.59 125.59 112.65 L 124.58 112.72 C 123.67 112.79 122.97 113.58 123.04 114.50 C 123.10 115.42 123.90 116.11 124.82 116.05 Z M 125.82 115.98 L 126.83 115.91 C 127.75 115.85 128.44 115.05 128.38 114.13 C 128.31 113.21 127.52 112.51 126.60 112.58 L 125.59 112.65 C 124.67 112.71 123.98 113.51 124.04 114.43 C 124.10 115.35 124.90 116.05 125.82 115.98 Z M 126.86 115.91 L 127.77 115.83 C 128.69 115.75 129.37 114.94 129.29 114.02 C 129.21 113.10 128.40 112.42 127.49 112.50 L 126.57 112.58 C 125.65 112.66 124.97 113.47 125.05 114.39 C 125.13 115.31 125.94 115.99 126.86 115.91 Z M 127.78 115.83 L 128.74 115.74 C 129.66 115.65 130.33 114.84 130.25 113.92 C 130.16 113.00 129.35 112.33 128.43 112.41 L 127.47 112.50 C 126.55 112.59 125.88 113.40 125.97 114.32 C 126.05 115.24 126.87 115.91 127.78 115.83 Z M 128.73 115.74 L 129.77 115.65 C 130.68 115.56 131.36 114.75 131.28 113.83 C 131.20 112.91 130.38 112.24 129.47 112.32 L 128.43 112.41 C 127.52 112.50 126.84 113.31 126.92 114.23 C 127.00 115.14 127.82 115.82 128.73 115.74 Z M 129.75 115.65 L 130.79 115.57 C 131.71 115.49 132.40 114.69 132.32 113.77 C 132.25 112.85 131.45 112.16 130.53 112.24 L 129.49 112.32 C 128.57 112.39 127.88 113.19 127.95 114.11 C 128.02 115.03 128.83 115.72 129.75 115.65 Z M 130.77 115.57 L 131.66 115.51 C 132.58 115.45 133.27 114.65 133.21 113.73 C 133.15 112.81 132.36 112.12 131.44 112.18 L 130.55 112.23 C 129.63 112.29 128.93 113.09 128.99 114.01 C 129.05 114.93 129.85 115.63 130.77 115.57 Z M 131.64 115.51 L 132.59 115.46 C 133.51 115.41 134.22 114.62 134.17 113.70 C 134.12 112.78 133.33 112.07 132.41 112.12 L 131.45 112.17 C 130.53 112.22 129.83 113.01 129.88 113.93 C 129.93 114.86 130.72 115.56 131.64 115.51 Z M 132.57 115.46 L 133.58 115.42 C 134.51 115.37 135.22 114.59 135.18 113.67 C 135.14 112.75 134.36 112.03 133.43 112.07 L 132.42 112.12 C 131.50 112.16 130.78 112.94 130.83 113.87 C 130.87 114.79 131.65 115.50 132.57 115.46 Z M 133.57 115.42 L 134.64 115.38 C 135.56 115.35 136.28 114.57 136.25 113.65 C 136.22 112.72 135.44 112.00 134.52 112.03 L 133.45 112.07 C 132.52 112.10 131.80 112.88 131.83 113.80 C 131.87 114.73 132.64 115.45 133.57 115.42 Z M 134.62 115.38 L 135.74 115.35 C 136.66 115.33 137.39 114.56 137.37 113.63 C 137.35 112.71 136.58 111.98 135.65 112.00 L 134.53 112.03 C 133.61 112.06 132.88 112.83 132.90 113.75 C 132.92 114.68 133.69 115.41 134.62 115.38 Z M 135.72 115.36 L 136.75 115.34 C 137.68 115.32 138.41 114.56 138.40 113.63 C 138.38 112.70 137.62 111.96 136.69 111.98 L 135.66 112.00 C 134.74 112.02 134.00 112.78 134.02 113.71 C 134.03 114.63 134.80 115.37 135.72 115.36 Z M 136.74 115.34 L 137.78 115.33 C 138.70 115.32 139.45 114.56 139.44 113.63 C 139.43 112.70 138.67 111.96 137.74 111.97 L 136.70 111.98 C 135.77 111.99 135.03 112.75 135.04 113.68 C 135.05 114.60 135.81 115.35 136.74 115.34 Z M 137.76 115.33 L 138.80 115.33 C 139.73 115.33 140.48 114.57 140.48 113.64 C 140.48 112.71 139.72 111.96 138.79 111.96 L 137.75 111.96 C 136.82 111.97 136.07 112.72 136.07 113.65 C 136.08 114.58 136.83 115.33 137.76 115.33 Z M 138.78 115.33 L 139.80 115.34 C 140.73 115.35 141.49 114.60 141.50 113.66 C 141.51 112.73 140.76 111.97 139.82 111.97 L 138.81 111.96 C 137.88 111.95 137.11 112.70 137.11 113.63 C 137.10 114.57 137.85 115.33 138.78 115.33 Z M 139.78 115.34 L 140.76 115.36 C 141.69 115.37 142.46 114.63 142.48 113.70 C 142.49 112.76 141.75 112.00 140.82 111.98 L 139.84 111.96 C 138.91 111.95 138.14 112.69 138.12 113.62 C 138.11 114.56 138.85 115.33 139.78 115.34 Z M 140.74 115.36 L 141.66 115.39 C 142.59 115.42 143.37 114.68 143.40 113.75 C 143.43 112.81 142.69 112.03 141.76 112.00 L 140.84 111.98 C 139.90 111.95 139.12 112.69 139.10 113.62 C 139.07 114.55 139.81 115.33 140.74 115.36 Z M 141.61 115.39 L 142.84 115.46 C 143.78 115.51 144.58 114.79 144.63 113.85 C 144.68 112.92 143.96 112.12 143.02 112.07 L 141.80 112.00 C 140.86 111.95 140.06 112.67 140.01 113.60 C 139.96 114.54 140.68 115.34 141.61 115.39 Z M 142.71 115.46 L 143.77 115.60 C 144.71 115.72 145.57 115.06 145.69 114.12 C 145.81 113.19 145.15 112.33 144.22 112.21 L 143.15 112.07 C 142.22 111.95 141.36 112.61 141.24 113.54 C 141.11 114.48 141.77 115.34 142.71 115.46 Z M 143.50 115.55 L 144.36 115.81 C 145.27 116.08 146.23 115.57 146.50 114.66 C 146.78 113.75 146.26 112.79 145.35 112.51 L 144.49 112.25 C 143.58 111.98 142.62 112.50 142.35 113.41 C 142.07 114.32 142.59 115.27 143.50 115.55 Z M 143.90 115.60 L 144.55 116.03 C 145.35 116.56 146.42 116.34 146.95 115.54 C 147.47 114.74 147.26 113.67 146.46 113.15 L 145.81 112.72 C 145.01 112.19 143.94 112.41 143.41 113.21 C 142.89 114.00 143.11 115.08 143.90 115.60 Z M 144.05 115.54 L 144.54 116.29 C 145.06 117.09 146.14 117.31 146.95 116.79 C 147.75 116.26 147.97 115.18 147.45 114.38 L 146.96 113.64 C 146.43 112.83 145.35 112.61 144.55 113.14 C 143.75 113.66 143.52 114.74 144.05 115.54 Z M 144.31 115.79 L 144.56 116.74 C 144.81 117.67 145.77 118.22 146.70 117.97 C 147.63 117.71 148.19 116.76 147.93 115.82 L 147.68 114.88 C 147.43 113.95 146.47 113.39 145.54 113.65 C 144.61 113.90 144.05 114.86 144.31 115.79 Z M 144.50 116.42 L 144.59 117.48 C 144.66 118.45 145.51 119.17 146.48 119.09 C 147.44 119.01 148.16 118.16 148.08 117.20 L 148.00 116.14 C 147.92 115.17 147.07 114.45 146.11 114.53 C 145.14 114.61 144.42 115.46 144.50 116.42 Z M 144.57 117.31 L 144.55 118.33 C 144.53 119.30 145.31 120.10 146.28 120.12 C 147.25 120.14 148.06 119.37 148.07 118.40 L 148.09 117.37 C 148.11 116.40 147.34 115.60 146.37 115.58 C 145.40 115.56 144.59 116.33 144.57 117.31 Z M 144.56 118.20 L 144.47 119.16 C 144.37 120.13 145.09 121.00 146.06 121.09 C 147.03 121.18 147.89 120.47 147.98 119.50 L 148.07 118.53 C 148.16 117.56 147.45 116.70 146.48 116.60 C 145.51 116.51 144.65 117.23 144.56 118.20 Z M 144.48 119.02 L 144.31 120.00 C 144.14 120.96 144.78 121.88 145.75 122.05 C 146.71 122.22 147.63 121.57 147.80 120.61 L 147.97 119.63 C 148.13 118.67 147.49 117.76 146.53 117.59 C 145.57 117.42 144.65 118.06 144.48 119.02 Z M 144.34 119.86 L 144.08 120.86 C 143.83 121.81 144.40 122.78 145.35 123.02 C 146.29 123.27 147.26 122.70 147.51 121.75 L 147.77 120.75 C 148.01 119.80 147.45 118.84 146.50 118.59 C 145.55 118.34 144.58 118.91 144.34 119.86 Z M 144.11 120.74 L 143.83 121.57 C 143.52 122.50 144.02 123.50 144.95 123.81 C 145.88 124.13 146.89 123.63 147.20 122.70 L 147.48 121.87 C 147.79 120.94 147.29 119.93 146.36 119.62 C 145.43 119.31 144.42 119.81 144.11 120.74 Z M 143.86 121.48 L 143.54 122.28 C 143.18 123.19 143.63 124.22 144.54 124.58 C 145.46 124.95 146.49 124.50 146.85 123.58 L 147.17 122.79 C 147.53 121.87 147.08 120.84 146.17 120.48 C 145.26 120.11 144.22 120.56 143.86 121.48 Z M 143.57 122.20 L 143.19 123.07 C 142.79 123.96 143.19 125.02 144.09 125.42 C 144.99 125.82 146.04 125.41 146.44 124.52 L 146.83 123.66 C 147.23 122.76 146.82 121.70 145.92 121.30 C 145.03 120.90 143.97 121.31 143.57 122.20 Z M 143.21 123.01 L 142.75 123.95 C 142.32 124.84 142.69 125.91 143.58 126.34 C 144.46 126.77 145.53 126.40 145.96 125.51 L 146.42 124.57 C 146.85 123.68 146.48 122.62 145.60 122.19 C 144.71 121.76 143.64 122.12 143.21 123.01 Z M 142.77 123.91 L 142.23 124.96 C 141.78 125.83 142.12 126.91 143.00 127.36 C 143.87 127.82 144.95 127.47 145.40 126.60 L 145.94 125.55 C 146.40 124.68 146.05 123.60 145.18 123.15 C 144.30 122.69 143.22 123.04 142.77 123.91 Z M 142.24 124.93 L 141.73 125.89 C 141.26 126.76 141.58 127.84 142.45 128.31 C 143.32 128.78 144.41 128.45 144.88 127.58 L 145.39 126.62 C 145.86 125.76 145.53 124.67 144.66 124.20 C 143.79 123.73 142.71 124.06 142.24 124.93 Z M 141.73 125.87 L 141.25 126.74 C 140.78 127.61 141.09 128.70 141.96 129.18 C 142.82 129.65 143.91 129.34 144.39 128.47 L 144.87 127.60 C 145.35 126.73 145.03 125.65 144.16 125.17 C 143.30 124.69 142.21 125.01 141.73 125.87 Z M 141.26 126.73 L 140.75 127.64 C 140.27 128.50 140.58 129.59 141.44 130.07 C 142.31 130.56 143.40 130.25 143.88 129.39 L 144.38 128.48 C 144.87 127.62 144.56 126.53 143.70 126.04 C 142.83 125.56 141.74 125.87 141.26 126.73 Z M 140.76 127.63 L 140.24 128.54 C 139.75 129.40 140.05 130.50 140.91 130.99 C 141.77 131.47 142.87 131.17 143.36 130.31 L 143.88 129.39 C 144.36 128.53 144.06 127.44 143.20 126.95 C 142.34 126.46 141.24 126.77 140.76 127.63 Z M 140.24 128.54 L 139.72 129.45 C 139.23 130.31 139.52 131.40 140.38 131.89 C 141.24 132.39 142.34 132.09 142.83 131.23 L 143.35 130.32 C 143.85 129.46 143.55 128.36 142.69 127.87 C 141.83 127.38 140.73 127.68 140.24 128.54 Z M 139.72 129.44 L 139.21 130.32 C 138.72 131.18 139.01 132.28 139.87 132.77 C 140.72 133.27 141.82 132.98 142.32 132.12 L 142.83 131.24 C 143.33 130.38 143.03 129.28 142.17 128.78 C 141.32 128.29 140.22 128.58 139.72 129.44 Z M 139.21 130.31 L 138.73 131.15 C 138.23 132.01 138.52 133.11 139.37 133.61 C 140.23 134.11 141.33 133.82 141.83 132.96 L 142.32 132.12 C 142.82 131.27 142.53 130.17 141.67 129.67 C 140.81 129.17 139.71 129.46 139.21 130.31 Z M 138.73 131.14 L 138.23 131.98 C 137.73 132.84 138.02 133.94 138.87 134.44 C 139.73 134.95 140.83 134.66 141.33 133.81 L 141.83 132.97 C 142.33 132.11 142.05 131.01 141.19 130.51 C 140.33 130.00 139.23 130.29 138.73 131.14 Z M 138.24 131.97 L 137.60 133.04 C 137.09 133.90 137.37 135.00 138.22 135.51 C 139.08 136.02 140.18 135.74 140.69 134.89 L 141.33 133.82 C 141.84 132.96 141.56 131.86 140.70 131.35 C 139.85 130.84 138.75 131.12 138.24 131.97 Z M 137.61 133.03 L 137.06 133.93 C 136.55 134.78 136.82 135.88 137.66 136.40 C 138.51 136.92 139.62 136.65 140.13 135.80 L 140.68 134.90 C 141.20 134.05 140.93 132.95 140.08 132.43 C 139.23 131.91 138.12 132.18 137.61 133.03 Z M 137.07 133.92 L 136.59 134.69 C 136.07 135.53 136.33 136.64 137.17 137.16 C 138.01 137.69 139.12 137.43 139.65 136.59 L 140.13 135.81 C 140.65 134.97 140.39 133.86 139.55 133.34 C 138.70 132.81 137.59 133.07 137.07 133.92 Z M 136.60 134.67 L 136.16 135.36 C 135.63 136.20 135.88 137.31 136.72 137.85 C 137.56 138.38 138.67 138.13 139.20 137.29 L 139.64 136.60 C 140.17 135.76 139.92 134.65 139.08 134.12 C 138.24 133.59 137.13 133.83 136.60 134.67 Z M 136.17 135.35 L 135.67 136.13 C 135.13 136.96 135.37 138.08 136.20 138.61 C 137.04 139.15 138.15 138.92 138.69 138.08 L 139.19 137.30 C 139.73 136.47 139.49 135.36 138.66 134.82 C 137.82 134.28 136.71 134.52 136.17 135.35 Z M 135.68 136.11 L 135.13 136.95 C 134.58 137.78 134.81 138.89 135.64 139.44 C 136.47 139.99 137.58 139.76 138.13 138.93 L 138.68 138.09 C 139.23 137.26 139.00 136.15 138.17 135.60 C 137.34 135.06 136.22 135.28 135.68 136.11 Z M 135.14 136.93 L 134.58 137.75 C 134.03 138.58 134.24 139.70 135.07 140.25 C 135.89 140.81 137.01 140.59 137.56 139.77 L 138.12 138.94 C 138.68 138.12 138.46 137.00 137.63 136.45 C 136.81 135.89 135.69 136.11 135.14 136.93 Z M 134.59 137.74 L 134.03 138.56 C 133.46 139.37 133.67 140.49 134.48 141.06 C 135.30 141.63 136.42 141.42 136.99 140.60 L 137.55 139.78 C 138.12 138.97 137.91 137.85 137.10 137.28 C 136.28 136.72 135.16 136.92 134.59 137.74 Z M 134.04 138.54 L 133.46 139.36 C 132.89 140.17 133.08 141.29 133.89 141.86 C 134.70 142.44 135.82 142.25 136.40 141.44 L 136.97 140.62 C 137.55 139.81 137.36 138.69 136.55 138.11 C 135.74 137.54 134.61 137.73 134.04 138.54 Z M 133.47 139.34 L 132.88 140.16 C 132.30 140.97 132.48 142.09 133.29 142.67 C 134.09 143.25 135.22 143.07 135.80 142.26 L 136.39 141.45 C 136.97 140.64 136.79 139.52 135.98 138.94 C 135.18 138.36 134.05 138.54 133.47 139.34 Z M 132.89 140.15 L 132.30 140.96 C 131.71 141.76 131.89 142.88 132.69 143.47 C 133.49 144.06 134.61 143.88 135.20 143.08 L 135.79 142.27 C 136.38 141.47 136.20 140.35 135.40 139.76 C 134.60 139.17 133.47 139.35 132.89 140.15 Z M 132.30 140.95 L 131.71 141.76 C 131.12 142.56 131.28 143.68 132.08 144.27 C 132.88 144.86 134.01 144.70 134.60 143.90 L 135.19 143.09 C 135.78 142.29 135.62 141.16 134.82 140.57 C 134.02 139.98 132.89 140.15 132.30 140.95 Z M 131.71 141.75 L 131.11 142.56 C 130.52 143.35 130.68 144.48 131.48 145.07 C 132.27 145.66 133.39 145.50 133.99 144.71 L 134.59 143.90 C 135.18 143.11 135.02 141.99 134.23 141.39 C 133.43 140.80 132.31 140.96 131.71 141.75 Z M 131.12 142.55 L 130.52 143.34 C 129.93 144.13 130.08 145.25 130.87 145.85 C 131.66 146.45 132.78 146.29 133.38 145.50 L 133.98 144.71 C 134.58 143.93 134.42 142.80 133.63 142.20 C 132.85 141.61 131.72 141.76 131.12 142.55 Z M 130.54 143.33 L 129.93 144.12 C 129.32 144.90 129.47 146.02 130.25 146.63 C 131.03 147.23 132.15 147.08 132.76 146.30 L 133.37 145.51 C 133.97 144.73 133.83 143.61 133.04 143.01 C 132.26 142.40 131.14 142.55 130.54 143.33 Z M 129.94 144.11 L 129.32 144.90 C 128.71 145.68 128.84 146.80 129.62 147.41 C 130.39 148.02 131.51 147.88 132.12 147.11 L 132.74 146.31 C 133.35 145.54 133.22 144.42 132.44 143.81 C 131.67 143.20 130.55 143.33 129.94 144.11 Z M 129.33 144.89 L 128.70 145.68 C 128.09 146.44 128.21 147.56 128.98 148.18 C 129.75 148.79 130.87 148.67 131.48 147.90 L 132.11 147.11 C 132.72 146.35 132.60 145.23 131.83 144.61 C 131.06 144.00 129.94 144.12 129.33 144.89 Z M 128.71 145.67 L 128.09 146.44 C 127.47 147.20 127.59 148.32 128.35 148.93 C 129.12 149.55 130.23 149.43 130.85 148.67 L 131.47 147.91 C 132.09 147.14 131.97 146.02 131.21 145.41 C 130.45 144.79 129.33 144.91 128.71 145.67 Z M 128.10 146.43 L 127.52 147.14 C 126.90 147.89 127.01 149.01 127.77 149.63 C 128.52 150.25 129.64 150.14 130.26 149.38 L 130.84 148.68 C 131.46 147.92 131.35 146.81 130.60 146.19 C 129.84 145.57 128.72 145.68 128.10 146.43 Z M 127.54 147.13 L 126.93 147.86 C 126.31 148.60 126.40 149.71 127.15 150.34 C 127.90 150.97 129.01 150.87 129.64 150.12 L 130.24 149.39 C 130.87 148.65 130.77 147.53 130.02 146.91 C 129.28 146.28 128.16 146.38 127.54 147.13 Z M 126.95 147.84 L 126.27 148.64 C 125.64 149.37 125.72 150.48 126.46 151.11 C 127.20 151.75 128.31 151.66 128.94 150.92 L 129.62 150.13 C 130.25 149.39 130.16 148.28 129.43 147.65 C 128.69 147.02 127.58 147.11 126.95 147.84 Z M 126.29 148.63 L 125.59 149.43 C 124.95 150.15 125.02 151.26 125.75 151.90 C 126.48 152.53 127.59 152.46 128.22 151.73 L 128.92 150.93 C 129.56 150.20 129.49 149.10 128.76 148.46 C 128.03 147.82 126.92 147.90 126.29 148.63 Z M 125.60 149.42 L 124.95 150.15 C 124.31 150.87 124.37 151.97 125.09 152.61 C 125.81 153.26 126.91 153.19 127.55 152.47 L 128.21 151.74 C 128.85 151.02 128.79 149.92 128.07 149.28 C 127.35 148.64 126.24 148.70 125.60 149.42 Z M 124.97 150.14 L 124.27 150.90 C 123.63 151.61 123.67 152.71 124.38 153.35 C 125.09 154.00 126.19 153.95 126.84 153.24 L 127.54 152.49 C 128.18 151.78 128.13 150.68 127.43 150.03 C 126.72 149.38 125.62 149.43 124.97 150.14 Z M 124.30 150.88 L 123.59 151.63 C 122.93 152.33 122.96 153.43 123.66 154.08 C 124.35 154.74 125.45 154.71 126.11 154.01 L 126.82 153.26 C 127.47 152.57 127.44 151.47 126.75 150.81 C 126.05 150.15 124.95 150.18 124.30 150.88 Z M 123.62 151.61 L 122.91 152.32 C 122.24 153.00 122.25 154.09 122.93 154.77 C 123.61 155.44 124.70 155.43 125.37 154.75 L 126.07 154.04 C 126.75 153.36 126.74 152.27 126.06 151.60 C 125.38 150.92 124.29 150.93 123.62 151.61 Z M 122.96 152.29 L 122.19 153.02 C 121.50 153.67 121.46 154.76 122.12 155.45 C 122.77 156.14 123.85 156.17 124.54 155.52 L 125.32 154.79 C 126.01 154.14 126.04 153.05 125.39 152.36 C 124.74 151.67 123.65 151.64 122.96 152.29 Z M 122.28 152.97 L 121.48 153.63 C 120.76 154.23 120.66 155.30 121.26 156.02 C 121.86 156.74 122.93 156.84 123.65 156.24 L 124.45 155.57 C 125.17 154.97 125.27 153.90 124.67 153.18 C 124.07 152.46 123.00 152.36 122.28 152.97 Z M 121.61 153.56 L 120.82 154.10 C 120.06 154.63 119.87 155.67 120.39 156.44 C 120.92 157.20 121.96 157.39 122.73 156.86 L 123.52 156.32 C 124.28 155.79 124.47 154.75 123.94 153.98 C 123.42 153.22 122.37 153.03 121.61 153.56 Z M 120.99 154.02 L 120.18 154.46 C 119.37 154.89 119.07 155.89 119.50 156.70 C 119.93 157.50 120.93 157.81 121.74 157.38 L 122.55 156.94 C 123.36 156.51 123.66 155.51 123.23 154.70 C 122.80 153.90 121.80 153.59 120.99 154.02 Z M 120.40 154.39 L 119.41 154.75 C 118.56 155.06 118.13 156.00 118.44 156.84 C 118.75 157.69 119.69 158.12 120.53 157.81 L 121.52 157.45 C 122.36 157.14 122.80 156.20 122.49 155.36 C 122.18 154.51 121.24 154.08 120.40 154.39 Z M 119.72 154.70 L 118.71 154.86 C 117.84 155.00 117.24 155.82 117.38 156.69 C 117.51 157.56 118.33 158.16 119.20 158.02 L 120.22 157.86 C 121.09 157.72 121.69 156.91 121.55 156.03 C 121.41 155.16 120.60 154.56 119.72 154.70 Z M 119.21 154.89 L 118.30 154.74 C 117.44 154.60 116.63 155.18 116.49 156.03 C 116.35 156.89 116.93 157.70 117.79 157.84 L 118.70 157.99 C 119.56 158.13 120.36 157.55 120.50 156.70 C 120.64 155.84 120.07 155.03 119.21 154.89 Z M 118.95 155.05 L 118.28 154.55 C 117.60 154.05 116.63 154.19 116.13 154.88 C 115.62 155.56 115.77 156.52 116.45 157.03 L 117.13 157.53 C 117.81 158.03 118.77 157.89 119.28 157.20 C 119.78 156.52 119.64 155.56 118.95 155.05 Z M 118.65 155.01 L 118.18 154.24 C 117.75 153.53 116.82 153.30 116.11 153.73 C 115.40 154.17 115.18 155.09 115.61 155.80 L 116.08 156.57 C 116.51 157.28 117.44 157.51 118.15 157.08 C 118.86 156.64 119.08 155.72 118.65 155.01 Z M 118.28 154.51 L 117.92 153.54 C 117.64 152.77 116.79 152.38 116.03 152.66 C 115.26 152.94 114.87 153.79 115.15 154.56 L 115.51 155.53 C 115.79 156.29 116.64 156.69 117.41 156.40 C 118.17 156.12 118.56 155.27 118.28 154.51 Z M 117.93 153.66 L 117.63 152.58 C 117.42 151.81 116.62 151.36 115.85 151.57 C 115.08 151.79 114.63 152.58 114.85 153.35 L 115.14 154.43 C 115.36 155.20 116.15 155.65 116.92 155.44 C 117.69 155.23 118.14 154.43 117.93 153.66 Z M 117.62 152.61 L 117.58 152.43 C 117.38 151.67 116.60 151.21 115.84 151.41 C 115.07 151.60 114.61 152.38 114.81 153.15 L 114.86 153.33 C 115.05 154.09 115.83 154.55 116.60 154.35 C 117.36 154.15 117.82 153.38 117.62 152.61 Z"
      fill="black"
      fill-rule="nonzero" /><path d="M 120.18 128.06 L 120.19 129.11 C 120.19 129.98 120.90 130.68 121.77 130.67 C 122.63 130.67 123.33 129.96 123.32 129.09 L 123.32 128.04 C 123.31 127.18 122.61 126.48 121.74 126.48 C 120.87 126.49 120.18 127.20 120.18 128.06 Z M 120.18 129.17 L 120.22 130.20 C 120.26 131.07 121.00 131.74 121.87 131.71 C 122.75 131.67 123.42 130.93 123.38 130.05 L 123.34 129.03 C 123.30 128.16 122.56 127.48 121.68 127.52 C 120.81 127.56 120.14 128.30 120.18 129.17 Z M 120.22 130.33 L 120.35 131.30 C 120.46 132.17 121.26 132.79 122.13 132.68 C 123.01 132.56 123.62 131.76 123.51 130.89 L 123.38 129.92 C 123.27 129.05 122.47 128.43 121.60 128.54 C 120.72 128.66 120.11 129.46 120.22 130.33 Z M 120.38 131.52 L 120.63 132.43 C 120.87 133.28 121.75 133.78 122.61 133.54 C 123.47 133.31 123.97 132.42 123.73 131.56 L 123.48 130.66 C 123.24 129.81 122.35 129.31 121.50 129.55 C 120.64 129.78 120.14 130.67 120.38 131.52 Z M 120.74 132.72 L 121.17 133.57 C 121.57 134.37 122.54 134.69 123.33 134.28 C 124.13 133.88 124.45 132.91 124.05 132.12 L 123.62 131.27 C 123.22 130.47 122.25 130.15 121.45 130.55 C 120.66 130.96 120.34 131.93 120.74 132.72 Z M 121.33 133.83 L 121.92 134.60 C 122.46 135.31 123.48 135.44 124.18 134.90 C 124.89 134.35 125.02 133.34 124.48 132.63 L 123.89 131.86 C 123.34 131.16 122.33 131.02 121.62 131.57 C 120.92 132.11 120.79 133.12 121.33 133.83 Z M 122.08 134.78 L 122.83 135.51 C 123.47 136.13 124.49 136.11 125.11 135.47 C 125.73 134.83 125.72 133.81 125.08 133.19 L 124.32 132.46 C 123.68 131.84 122.66 131.85 122.04 132.49 C 121.42 133.13 121.44 134.16 122.08 134.78 Z M 122.95 135.60 L 123.73 136.23 C 124.42 136.79 125.43 136.68 125.99 135.98 C 126.55 135.29 126.44 134.27 125.74 133.72 L 124.96 133.09 C 124.27 132.53 123.25 132.64 122.70 133.34 C 122.14 134.03 122.25 135.05 122.95 135.60 Z M 123.81 136.29 L 124.63 136.87 C 125.36 137.38 126.36 137.20 126.87 136.48 C 127.38 135.75 127.21 134.75 126.48 134.24 L 125.66 133.66 C 124.93 133.15 123.93 133.32 123.42 134.05 C 122.91 134.77 123.08 135.77 123.81 136.29 Z M 124.70 136.91 L 125.57 137.45 C 126.32 137.92 127.31 137.70 127.78 136.95 C 128.25 136.20 128.02 135.22 127.28 134.74 L 126.41 134.20 C 125.66 133.73 124.67 133.95 124.20 134.70 C 123.73 135.45 123.96 136.44 124.70 136.91 Z M 125.65 137.49 L 126.53 137.98 C 127.29 138.41 128.26 138.14 128.69 137.37 C 129.12 136.60 128.85 135.63 128.08 135.20 L 127.20 134.71 C 126.44 134.28 125.46 134.55 125.03 135.32 C 124.60 136.09 124.88 137.06 125.65 137.49 Z M 126.61 138.01 L 127.50 138.44 C 128.28 138.83 129.23 138.50 129.61 137.72 C 129.99 136.93 129.67 135.99 128.88 135.60 L 128.00 135.17 C 127.21 134.79 126.27 135.11 125.88 135.90 C 125.50 136.68 125.83 137.63 126.61 138.01 Z M 127.60 138.47 L 128.50 138.83 C 129.29 139.15 130.20 138.77 130.53 137.97 C 130.85 137.17 130.46 136.26 129.66 135.94 L 128.77 135.58 C 127.97 135.25 127.07 135.64 126.74 136.44 C 126.42 137.24 126.81 138.15 127.60 138.47 Z M 128.62 138.85 L 129.54 139.14 C 130.35 139.39 131.21 138.94 131.47 138.13 C 131.72 137.32 131.27 136.46 130.46 136.21 L 129.54 135.92 C 128.73 135.67 127.87 136.12 127.62 136.93 C 127.36 137.73 127.81 138.59 128.62 138.85 Z M 129.67 139.14 L 130.66 139.37 C 131.48 139.56 132.29 139.05 132.47 138.24 C 132.66 137.43 132.15 136.62 131.34 136.43 L 130.34 136.20 C 129.53 136.02 128.72 136.52 128.53 137.34 C 128.35 138.15 128.85 138.96 129.67 139.14 Z M 130.76 139.37 L 131.73 139.53 C 132.54 139.66 133.31 139.11 133.44 138.30 C 133.58 137.49 133.03 136.73 132.22 136.60 L 131.24 136.43 C 130.43 136.30 129.67 136.85 129.53 137.66 C 129.40 138.47 129.95 139.23 130.76 139.37 Z M 131.79 139.52 L 132.71 139.64 C 133.52 139.74 134.26 139.17 134.36 138.36 C 134.46 137.55 133.89 136.82 133.08 136.72 L 132.16 136.60 C 131.35 136.50 130.62 137.07 130.52 137.88 C 130.41 138.69 130.99 139.42 131.79 139.52 Z M 132.75 139.63 L 133.73 139.73 C 134.54 139.81 135.26 139.23 135.34 138.42 C 135.42 137.62 134.83 136.90 134.03 136.82 L 133.05 136.72 C 132.24 136.64 131.52 137.23 131.44 138.03 C 131.36 138.84 131.95 139.55 132.75 139.63 Z M 133.76 139.72 L 134.79 139.81 C 135.58 139.88 136.29 139.29 136.36 138.49 C 136.42 137.69 135.83 136.98 135.03 136.92 L 134.00 136.83 C 133.20 136.76 132.50 137.36 132.43 138.15 C 132.37 138.95 132.96 139.66 133.76 139.72 Z M 134.80 139.80 L 135.86 139.88 C 136.65 139.94 137.34 139.34 137.40 138.55 C 137.46 137.75 136.86 137.06 136.07 137.00 L 135.01 136.92 C 134.22 136.86 133.53 137.46 133.47 138.26 C 133.41 139.05 134.01 139.74 134.80 139.80 Z M 135.86 139.87 L 136.73 139.93 C 137.52 139.99 138.21 139.39 138.26 138.60 C 138.32 137.81 137.72 137.13 136.93 137.07 L 136.06 137.01 C 135.27 136.96 134.59 137.55 134.53 138.34 C 134.48 139.13 135.07 139.82 135.86 139.87 Z"
      fill="black"
      fill-rule="nonzero" /><path d="M 151.95 107.70 L 151.89 108.66 C 151.83 109.52 152.47 110.26 153.32 110.32 C 154.18 110.38 154.92 109.74 154.98 108.88 L 155.05 107.92 C 155.11 107.07 154.46 106.33 153.61 106.27 C 152.76 106.21 152.01 106.85 151.95 107.70 Z M 151.88 108.67 L 151.81 109.65 C 151.76 110.51 152.41 111.25 153.27 111.31 C 154.13 111.36 154.87 110.71 154.93 109.85 L 154.99 108.87 C 155.04 108.01 154.39 107.27 153.53 107.22 C 152.67 107.16 151.93 107.81 151.88 108.67 Z M 151.80 109.67 L 151.75 110.67 C 151.70 111.54 152.37 112.28 153.23 112.33 C 154.10 112.37 154.84 111.71 154.88 110.84 L 154.94 109.83 C 154.98 108.97 154.32 108.23 153.45 108.18 C 152.59 108.14 151.85 108.80 151.80 109.67 Z M 151.74 110.70 L 151.70 111.74 C 151.67 112.61 152.34 113.35 153.22 113.38 C 154.09 113.41 154.82 112.73 154.85 111.86 L 154.89 110.82 C 154.92 109.95 154.25 109.22 153.38 109.18 C 152.50 109.15 151.77 109.83 151.74 110.70 Z M 151.70 111.77 L 151.68 112.78 C 151.66 113.65 152.35 114.37 153.22 114.39 C 154.09 114.41 154.81 113.72 154.83 112.85 L 154.85 111.84 C 154.87 110.97 154.18 110.25 153.31 110.23 C 152.44 110.21 151.72 110.90 151.70 111.77 Z M 151.69 112.80 L 151.68 113.82 C 151.67 114.69 152.36 115.39 153.23 115.40 C 154.09 115.41 154.80 114.72 154.81 113.85 L 154.82 112.83 C 154.83 111.96 154.13 111.26 153.27 111.25 C 152.40 111.24 151.70 111.93 151.69 112.80 Z M 151.69 113.84 L 151.69 114.85 C 151.69 115.71 152.39 116.40 153.25 116.40 C 154.11 116.40 154.80 115.70 154.80 114.85 L 154.80 113.84 C 154.80 112.98 154.10 112.28 153.24 112.28 C 152.38 112.29 151.69 112.98 151.69 113.84 Z M 151.70 114.87 L 151.71 115.83 C 151.72 116.68 152.42 117.36 153.27 117.35 C 154.13 117.34 154.81 116.65 154.80 115.79 L 154.79 114.83 C 154.78 113.98 154.08 113.30 153.23 113.31 C 152.38 113.32 151.69 114.01 151.70 114.87 Z M 151.73 115.85 L 151.75 116.89 C 151.77 117.73 152.47 118.40 153.32 118.38 C 154.16 118.36 154.83 117.66 154.81 116.82 L 154.78 115.78 C 154.76 114.93 154.06 114.27 153.22 114.29 C 152.38 114.31 151.71 115.00 151.73 115.85 Z M 151.78 116.93 L 151.83 117.92 C 151.87 118.75 152.57 119.39 153.40 119.35 C 154.23 119.30 154.87 118.60 154.83 117.77 L 154.78 116.78 C 154.74 115.95 154.04 115.31 153.21 115.35 C 152.38 115.40 151.74 116.10 151.78 116.93 Z M 151.86 117.98 L 151.94 118.94 C 152.02 119.76 152.74 120.35 153.55 120.28 C 154.36 120.21 154.96 119.49 154.89 118.67 L 154.80 117.71 C 154.73 116.90 154.01 116.30 153.20 116.37 C 152.38 116.45 151.78 117.17 151.86 117.98 Z M 151.97 119.01 L 152.11 119.97 C 152.22 120.77 152.96 121.32 153.76 121.21 C 154.56 121.10 155.11 120.36 155.00 119.56 L 154.86 118.60 C 154.75 117.80 154.01 117.25 153.21 117.36 C 152.41 117.48 151.86 118.22 151.97 119.01 Z M 152.13 120.03 L 152.31 120.99 C 152.46 121.77 153.22 122.29 154.00 122.14 C 154.79 121.99 155.30 121.24 155.15 120.45 L 154.97 119.50 C 154.83 118.71 154.07 118.20 153.29 118.35 C 152.50 118.49 151.99 119.25 152.13 120.03 Z M 152.33 121.03 L 152.54 122.01 C 152.71 122.79 153.48 123.28 154.26 123.11 C 155.03 122.94 155.52 122.17 155.35 121.40 L 155.14 120.41 C 154.97 119.64 154.20 119.15 153.43 119.32 C 152.65 119.49 152.16 120.25 152.33 121.03 Z M 152.56 122.03 L 152.79 123.03 C 152.97 123.80 153.74 124.28 154.51 124.10 C 155.28 123.92 155.76 123.15 155.58 122.38 L 155.34 121.38 C 155.16 120.61 154.39 120.13 153.62 120.31 C 152.85 120.49 152.37 121.26 152.56 122.03 Z M 152.80 123.04 L 152.91 123.49 C 153.09 124.26 153.86 124.73 154.63 124.54 C 155.39 124.36 155.87 123.59 155.68 122.82 L 155.57 122.37 C 155.39 121.60 154.62 121.13 153.85 121.32 C 153.08 121.50 152.61 122.27 152.80 123.04 Z"
      fill="black"
      fill-rule="nonzero" /><path d="M 166.01 90.55 L 165.88 91.52 C 165.78 92.36 166.37 93.12 167.21 93.23 C 168.04 93.33 168.81 92.74 168.92 91.90 L 169.04 90.94 C 169.14 90.10 168.55 89.34 167.72 89.23 C 166.88 89.12 166.11 89.72 166.01 90.55 Z M 165.85 91.53 L 165.74 92.51 C 165.64 93.37 166.25 94.14 167.11 94.24 C 167.97 94.34 168.74 93.72 168.84 92.87 L 168.95 91.89 C 169.05 91.03 168.44 90.26 167.58 90.16 C 166.72 90.06 165.95 90.68 165.85 91.53 Z M 165.70 92.54 L 165.61 93.54 C 165.53 94.42 166.17 95.19 167.05 95.27 C 167.93 95.36 168.71 94.71 168.79 93.83 L 168.88 92.83 C 168.96 91.96 168.31 91.18 167.43 91.10 C 166.56 91.02 165.78 91.66 165.70 92.54 Z M 165.57 93.59 L 165.51 94.62 C 165.45 95.51 166.14 96.29 167.04 96.34 C 167.94 96.39 168.71 95.71 168.76 94.81 L 168.82 93.78 C 168.88 92.88 168.19 92.11 167.29 92.06 C 166.39 92.00 165.62 92.69 165.57 93.59 Z M 165.48 94.68 L 165.46 95.71 C 165.44 96.62 166.17 97.38 167.08 97.40 C 168.00 97.41 168.75 96.69 168.77 95.77 L 168.79 94.75 C 168.81 93.83 168.08 93.07 167.17 93.06 C 166.25 93.04 165.50 93.76 165.48 94.68 Z M 165.45 95.76 L 165.46 96.80 C 165.47 97.72 166.23 98.46 167.15 98.44 C 168.08 98.43 168.81 97.67 168.80 96.75 L 168.78 95.72 C 168.77 94.79 168.01 94.06 167.09 94.07 C 166.17 94.08 165.43 94.84 165.45 95.76 Z M 165.45 96.85 L 165.50 97.87 C 165.54 98.80 166.32 99.51 167.25 99.47 C 168.17 99.43 168.89 98.65 168.85 97.72 L 168.81 96.70 C 168.77 95.77 167.98 95.06 167.06 95.10 C 166.13 95.14 165.41 95.92 165.45 96.85 Z M 165.49 97.91 L 165.56 98.89 C 165.62 99.82 166.43 100.52 167.36 100.46 C 168.29 100.40 168.99 99.59 168.93 98.66 L 168.86 97.68 C 168.79 96.75 167.99 96.05 167.06 96.11 C 166.13 96.18 165.42 96.98 165.49 97.91 Z M 165.55 98.94 L 165.65 99.91 C 165.73 100.85 166.56 101.53 167.50 101.44 C 168.43 101.35 169.12 100.52 169.03 99.59 L 168.93 98.61 C 168.84 97.68 168.02 97.00 167.08 97.08 C 166.15 97.17 165.46 98.00 165.55 98.94 Z M 165.64 99.96 L 165.77 101.00 C 165.89 101.93 166.74 102.60 167.68 102.48 C 168.61 102.36 169.27 101.51 169.16 100.58 L 169.03 99.54 C 168.91 98.61 168.06 97.94 167.12 98.06 C 166.19 98.18 165.53 99.03 165.64 99.96 Z M 165.77 101.05 L 165.92 102.01 C 166.06 102.94 166.94 103.58 167.87 103.44 C 168.80 103.29 169.45 102.42 169.30 101.49 L 169.16 100.53 C 169.01 99.59 168.14 98.95 167.21 99.10 C 166.27 99.24 165.63 100.11 165.77 101.05 Z M 165.92 102.04 L 166.08 102.98 C 166.24 103.91 167.13 104.54 168.06 104.38 C 169.00 104.22 169.62 103.33 169.46 102.40 L 169.30 101.46 C 169.14 100.52 168.26 99.90 167.32 100.06 C 166.39 100.22 165.76 101.10 165.92 102.04 Z M 166.08 102.99 L 166.24 103.92 C 166.41 104.86 167.30 105.48 168.24 105.32 C 169.17 105.15 169.80 104.26 169.63 103.32 L 169.47 102.39 C 169.30 101.45 168.41 100.83 167.47 100.99 C 166.54 101.16 165.91 102.05 166.08 102.99 Z M 166.24 103.93 L 166.41 104.89 C 166.58 105.83 167.48 106.45 168.41 106.28 C 169.35 106.12 169.98 105.22 169.81 104.28 L 169.64 103.32 C 169.47 102.38 168.57 101.75 167.63 101.92 C 166.70 102.09 166.07 102.99 166.24 103.93 Z M 166.41 104.89 L 166.59 105.90 C 166.76 106.84 167.66 107.46 168.60 107.29 C 169.54 107.12 170.17 106.22 170.00 105.28 L 169.81 104.28 C 169.64 103.34 168.74 102.71 167.80 102.88 C 166.86 103.05 166.24 103.95 166.41 104.89 Z M 166.58 105.90 L 166.77 106.93 C 166.95 107.88 167.85 108.50 168.80 108.33 C 169.74 108.15 170.37 107.24 170.19 106.30 L 170.00 105.27 C 169.83 104.33 168.92 103.70 167.98 103.88 C 167.03 104.05 166.41 104.96 166.58 105.90 Z M 166.77 106.94 L 166.95 107.88 C 167.12 108.83 168.04 109.45 168.98 109.27 C 169.93 109.10 170.55 108.18 170.37 107.24 L 170.20 106.29 C 170.02 105.35 169.11 104.73 168.16 104.90 C 167.21 105.08 166.59 105.99 166.77 106.94 Z M 166.94 107.88 L 167.13 108.85 C 167.30 109.80 168.22 110.42 169.17 110.25 C 170.12 110.07 170.74 109.15 170.56 108.20 L 170.38 107.24 C 170.20 106.29 169.28 105.66 168.34 105.84 C 167.39 106.02 166.76 106.94 166.94 107.88 Z M 167.12 108.85 L 167.31 109.85 C 167.49 110.80 168.40 111.42 169.35 111.24 C 170.30 111.07 170.93 110.15 170.75 109.20 L 170.57 108.20 C 170.39 107.25 169.47 106.63 168.52 106.81 C 167.57 106.98 166.94 107.90 167.12 108.85 Z M 167.30 109.84 L 167.49 110.86 C 167.67 111.82 168.58 112.45 169.54 112.27 C 170.49 112.10 171.12 111.18 170.95 110.23 L 170.76 109.20 C 170.58 108.25 169.66 107.62 168.71 107.79 C 167.76 107.97 167.13 108.89 167.30 109.84 Z M 167.49 110.86 L 167.66 111.82 C 167.83 112.77 168.75 113.41 169.70 113.24 C 170.66 113.06 171.30 112.15 171.12 111.19 L 170.95 110.23 C 170.78 109.28 169.86 108.64 168.91 108.81 C 167.95 108.98 167.31 109.90 167.49 110.86 Z M 167.65 111.81 L 167.82 112.78 C 167.99 113.74 168.91 114.38 169.87 114.21 C 170.83 114.04 171.47 113.13 171.30 112.17 L 171.13 111.20 C 170.96 110.24 170.05 109.60 169.09 109.77 C 168.13 109.94 167.48 110.85 167.65 111.81 Z M 167.82 112.77 L 167.99 113.76 C 168.16 114.72 169.07 115.37 170.03 115.20 C 171.00 115.04 171.64 114.12 171.47 113.16 L 171.30 112.17 C 171.14 111.21 170.22 110.57 169.26 110.73 C 168.30 110.90 167.65 111.81 167.82 112.77 Z M 167.99 113.76 L 168.16 114.76 C 168.32 115.73 169.23 116.38 170.20 116.21 C 171.16 116.05 171.81 115.14 171.65 114.17 L 171.48 113.17 C 171.32 112.20 170.40 111.55 169.44 111.72 C 168.47 111.88 167.82 112.79 167.99 113.76 Z M 168.15 114.76 L 168.32 115.76 C 168.48 116.73 169.40 117.38 170.36 117.22 C 171.33 117.06 171.98 116.14 171.82 115.18 L 171.65 114.17 C 171.49 113.21 170.58 112.55 169.61 112.72 C 168.64 112.88 167.99 113.79 168.15 114.76 Z M 168.32 115.76 L 168.47 116.71 C 168.63 117.68 169.55 118.34 170.52 118.18 C 171.49 118.02 172.14 117.10 171.98 116.13 L 171.82 115.18 C 171.66 114.21 170.75 113.56 169.78 113.72 C 168.81 113.88 168.16 114.79 168.32 115.76 Z M 168.47 116.71 L 168.63 117.68 C 168.79 118.65 169.70 119.31 170.67 119.15 C 171.64 118.99 172.30 118.07 172.14 117.10 L 171.99 116.14 C 171.83 115.17 170.91 114.51 169.94 114.66 C 168.97 114.82 168.31 115.74 168.47 116.71 Z M 168.62 117.67 L 168.78 118.66 C 168.94 119.63 169.85 120.29 170.82 120.14 C 171.80 119.98 172.46 119.07 172.30 118.10 L 172.15 117.11 C 171.99 116.14 171.08 115.47 170.10 115.63 C 169.13 115.78 168.47 116.70 168.62 117.67 Z M 168.78 118.65 L 168.93 119.66 C 169.09 120.64 170.00 121.31 170.97 121.15 C 171.95 121.00 172.62 120.09 172.47 119.11 L 172.31 118.10 C 172.16 117.13 171.24 116.46 170.27 116.61 C 169.29 116.76 168.63 117.68 168.78 118.65 Z M 168.93 119.66 L 169.09 120.68 C 169.23 121.66 170.15 122.33 171.12 122.18 C 172.10 122.03 172.77 121.12 172.62 120.14 L 172.47 119.12 C 172.32 118.14 171.41 117.47 170.43 117.62 C 169.45 117.77 168.78 118.68 168.93 119.66 Z M 169.08 120.67 L 169.23 121.66 C 169.37 122.63 170.28 123.31 171.26 123.17 C 172.24 123.02 172.92 122.11 172.77 121.13 L 172.63 120.15 C 172.48 119.17 171.57 118.50 170.59 118.64 C 169.61 118.78 168.94 119.70 169.08 120.67 Z M 169.22 121.65 L 169.37 122.65 C 169.51 123.63 170.42 124.31 171.40 124.17 C 172.38 124.02 173.06 123.11 172.92 122.13 L 172.78 121.14 C 172.63 120.16 171.72 119.48 170.74 119.62 C 169.76 119.76 169.08 120.67 169.22 121.65 Z M 169.36 122.64 L 169.51 123.64 C 169.65 124.63 170.56 125.31 171.54 125.17 C 172.52 125.03 173.20 124.12 173.06 123.14 L 172.92 122.14 C 172.78 121.16 171.87 120.47 170.89 120.61 C 169.91 120.75 169.23 121.66 169.36 122.64 Z M 169.50 123.64 L 169.64 124.64 C 169.78 125.62 170.69 126.31 171.67 126.17 C 172.66 126.03 173.34 125.12 173.21 124.14 L 173.07 123.14 C 172.93 122.16 172.02 121.47 171.04 121.61 C 170.05 121.75 169.37 122.66 169.50 123.64 Z M 169.64 124.64 L 169.78 125.62 C 169.91 126.60 170.82 127.29 171.81 127.16 C 172.79 127.02 173.48 126.11 173.34 125.13 L 173.21 124.14 C 173.07 123.16 172.16 122.47 171.18 122.61 C 170.19 122.74 169.50 123.65 169.64 124.64 Z M 169.77 125.62 L 169.91 126.63 C 170.05 127.62 170.96 128.31 171.95 128.18 C 172.93 128.04 173.62 127.13 173.49 126.14 L 173.35 125.13 C 173.21 124.14 172.30 123.45 171.32 123.59 C 170.33 123.72 169.64 124.63 169.77 125.62 Z M 169.91 126.63 L 170.05 127.65 C 170.18 128.64 171.09 129.33 172.08 129.19 C 173.07 129.06 173.76 128.15 173.63 127.16 L 173.49 126.15 C 173.35 125.16 172.45 124.47 171.46 124.60 C 170.47 124.74 169.78 125.65 169.91 126.63 Z M 170.05 127.64 L 170.18 128.64 C 170.31 129.63 171.22 130.32 172.21 130.19 C 173.20 130.06 173.89 129.15 173.76 128.16 L 173.63 127.17 C 173.50 126.18 172.59 125.48 171.60 125.61 C 170.61 125.75 169.92 126.66 170.05 127.64 Z M 170.18 128.63 L 170.30 129.61 C 170.43 130.60 171.34 131.30 172.33 131.17 C 173.32 131.04 174.02 130.13 173.89 129.14 L 173.76 128.16 C 173.64 127.17 172.73 126.47 171.74 126.60 C 170.75 126.73 170.05 127.64 170.18 128.63 Z M 170.30 129.60 L 170.42 130.56 C 170.55 131.56 171.46 132.26 172.45 132.13 C 173.44 132.01 174.14 131.10 174.02 130.11 L 173.90 129.14 C 173.77 128.15 172.86 127.45 171.87 127.58 C 170.88 127.70 170.18 128.61 170.30 129.60 Z M 170.42 130.56 L 170.54 131.55 C 170.66 132.54 171.57 133.25 172.56 133.13 C 173.56 133.00 174.26 132.10 174.14 131.11 L 174.02 130.11 C 173.90 129.12 172.99 128.41 172.00 128.54 C 171.01 128.66 170.30 129.56 170.42 130.56 Z M 170.54 131.54 L 170.66 132.54 C 170.77 133.54 171.67 134.25 172.67 134.13 C 173.67 134.02 174.38 133.12 174.26 132.12 L 174.15 131.12 C 174.03 130.12 173.13 129.41 172.13 129.52 C 171.14 129.64 170.42 130.54 170.54 131.54 Z M 170.65 132.53 L 170.76 133.53 C 170.87 134.53 171.77 135.24 172.77 135.14 C 173.77 135.03 174.48 134.13 174.38 133.13 L 174.27 132.13 C 174.16 131.14 173.26 130.42 172.26 130.53 C 171.26 130.64 170.54 131.53 170.65 132.53 Z M 170.76 133.51 L 170.86 134.50 C 170.96 135.50 171.85 136.23 172.85 136.13 C 173.85 136.03 174.58 135.13 174.48 134.13 L 174.38 133.15 C 174.28 132.15 173.38 131.42 172.39 131.52 C 171.39 131.62 170.66 132.51 170.76 133.51 Z M 170.86 134.49 L 170.95 135.46 C 171.04 136.46 171.93 137.20 172.93 137.11 C 173.93 137.02 174.66 136.13 174.57 135.13 L 174.48 134.15 C 174.39 133.15 173.50 132.41 172.50 132.51 C 171.50 132.60 170.77 133.48 170.86 134.49 Z M 170.94 135.44 L 171.03 136.46 C 171.11 137.46 171.99 138.21 172.99 138.13 C 173.99 138.05 174.74 137.17 174.66 136.16 L 174.58 135.15 C 174.49 134.15 173.61 133.40 172.61 133.48 C 171.61 133.56 170.86 134.44 170.94 135.44 Z M 171.02 136.44 L 171.10 137.45 C 171.17 138.46 172.04 139.21 173.05 139.14 C 174.05 139.07 174.81 138.19 174.73 137.19 L 174.66 136.18 C 174.59 135.18 173.72 134.42 172.71 134.49 C 171.71 134.57 170.95 135.44 171.02 136.44 Z M 171.10 137.44 L 171.16 138.44 C 171.23 139.44 172.10 140.20 173.10 140.14 C 174.11 140.07 174.87 139.20 174.80 138.20 L 174.74 137.20 C 174.67 136.20 173.80 135.43 172.80 135.50 C 171.79 135.57 171.03 136.43 171.10 137.44 Z M 171.16 138.43 L 171.22 139.41 C 171.28 140.42 172.15 141.18 173.15 141.12 C 174.16 141.06 174.93 140.19 174.86 139.19 L 174.80 138.20 C 174.74 137.20 173.88 136.43 172.87 136.49 C 171.86 136.56 171.10 137.42 171.16 138.43 Z M 171.22 139.41 L 171.28 140.41 C 171.34 141.41 172.21 142.18 173.21 142.12 C 174.22 142.06 174.99 141.19 174.93 140.19 L 174.87 139.19 C 174.80 138.18 173.94 137.42 172.93 137.48 C 171.92 137.54 171.16 138.40 171.22 139.41 Z M 171.28 140.41 L 171.34 141.43 C 171.40 142.44 172.27 143.21 173.28 143.15 C 174.28 143.08 175.05 142.22 174.99 141.21 L 174.93 140.18 C 174.87 139.18 174.00 138.41 172.99 138.47 C 171.98 138.53 171.22 139.40 171.28 140.41 Z M 171.34 141.43 L 171.40 142.44 C 171.46 143.44 172.33 144.21 173.33 144.15 C 174.34 144.09 175.11 143.23 175.05 142.22 L 174.99 141.21 C 174.93 140.21 174.06 139.44 173.06 139.50 C 172.05 139.56 171.28 140.42 171.34 141.43 Z M 171.40 142.43 L 171.45 143.41 C 171.51 144.42 172.38 145.19 173.38 145.14 C 174.39 145.08 175.16 144.21 175.11 143.21 L 175.05 142.22 C 174.99 141.22 174.13 140.44 173.12 140.50 C 172.11 140.56 171.34 141.42 171.40 142.43 Z M 171.45 143.40 L 171.50 144.38 C 171.56 145.39 172.42 146.16 173.43 146.11 C 174.43 146.06 175.21 145.20 175.16 144.19 L 175.11 143.22 C 175.06 142.21 174.19 141.43 173.19 141.48 C 172.18 141.53 171.40 142.40 171.45 143.40 Z M 171.50 144.37 L 171.55 145.39 C 171.60 146.40 172.45 147.18 173.46 147.13 C 174.47 147.09 175.25 146.23 175.21 145.22 L 175.16 144.20 C 175.11 143.19 174.26 142.41 173.25 142.45 C 172.24 142.50 171.46 143.36 171.50 144.37 Z M 171.55 145.38 L 171.59 146.38 C 171.63 147.39 172.48 148.17 173.49 148.13 C 174.50 148.09 175.29 147.24 175.25 146.23 L 175.21 145.23 C 175.17 144.22 174.31 143.44 173.30 143.48 C 172.29 143.52 171.51 144.37 171.55 145.38 Z M 171.59 146.37 L 171.62 147.35 C 171.66 148.36 172.51 149.15 173.52 149.12 C 174.53 149.08 175.32 148.23 175.28 147.22 L 175.25 146.24 C 175.21 145.23 174.36 144.44 173.35 144.47 C 172.34 144.51 171.55 145.36 171.59 146.37 Z M 171.62 147.35 L 171.66 148.30 C 171.69 149.31 172.54 150.10 173.55 150.07 C 174.56 150.03 175.35 149.18 175.32 148.17 L 175.28 147.22 C 175.25 146.21 174.40 145.42 173.39 145.46 C 172.38 145.49 171.59 146.34 171.62 147.35 Z M 171.66 148.30 L 171.69 149.22 C 171.72 150.23 172.57 151.02 173.58 150.98 C 174.59 150.95 175.38 150.10 175.35 149.09 L 175.32 148.17 C 175.28 147.16 174.44 146.37 173.43 146.41 C 172.41 146.44 171.62 147.29 171.66 148.30 Z M 171.69 149.21 L 171.72 150.17 C 171.75 151.18 172.59 151.98 173.60 151.95 C 174.61 151.92 175.41 151.07 175.38 150.06 L 175.35 149.10 C 175.32 148.09 174.48 147.29 173.47 147.32 C 172.45 147.35 171.66 148.20 171.69 149.21 Z M 171.72 150.16 L 171.74 151.21 C 171.77 152.22 172.60 153.02 173.61 153.00 C 174.63 152.97 175.43 152.13 175.40 151.12 L 175.38 150.08 C 175.36 149.06 174.52 148.26 173.51 148.29 C 172.49 148.31 171.69 149.15 171.72 150.16 Z M 171.74 151.19 L 171.76 152.34 C 171.77 153.35 172.61 154.16 173.62 154.14 C 174.63 154.13 175.44 153.30 175.42 152.28 L 175.40 151.14 C 175.39 150.13 174.56 149.32 173.54 149.33 C 172.53 149.35 171.73 150.18 171.74 151.19 Z M 171.76 152.31 L 171.76 153.50 C 171.76 154.51 172.58 155.33 173.59 155.33 C 174.60 155.33 175.42 154.51 175.42 153.50 L 175.42 152.31 C 175.42 151.30 174.60 150.48 173.59 150.48 C 172.58 150.48 171.76 151.30 171.76 152.31 Z M 171.76 153.42 L 171.71 154.56 C 171.67 155.57 172.45 156.43 173.46 156.47 C 174.47 156.51 175.33 155.73 175.37 154.72 L 175.42 153.58 C 175.46 152.57 174.68 151.72 173.67 151.67 C 172.66 151.63 171.80 152.42 171.76 153.42 Z M 171.73 154.40 L 171.60 155.34 C 171.47 156.34 172.17 157.26 173.17 157.40 C 174.17 157.53 175.09 156.83 175.23 155.83 L 175.35 154.89 C 175.49 153.88 174.79 152.96 173.78 152.83 C 172.78 152.69 171.86 153.40 171.73 154.40 Z M 171.71 154.92 L 171.47 155.54 C 171.11 156.48 171.57 157.53 172.51 157.90 C 173.45 158.27 174.51 157.80 174.88 156.86 L 175.12 156.25 C 175.48 155.31 175.02 154.25 174.08 153.88 C 173.14 153.52 172.08 153.98 171.71 154.92 Z M 172.76 154.44 L 172.21 154.57 C 171.24 154.81 170.64 155.78 170.87 156.75 C 171.10 157.71 172.07 158.31 173.04 158.08 L 173.59 157.95 C 174.56 157.72 175.16 156.75 174.93 155.78 C 174.70 154.81 173.73 154.21 172.76 154.44 Z M 173.63 154.89 L 172.87 154.36 C 172.07 153.80 170.98 153.99 170.42 154.78 C 169.87 155.58 170.06 156.67 170.85 157.23 L 171.62 157.77 C 172.41 158.32 173.50 158.13 174.06 157.34 C 174.62 156.54 174.43 155.45 173.63 154.89 Z M 173.08 154.60 L 172.18 153.68 C 171.52 153.00 170.44 152.98 169.77 153.64 C 169.09 154.30 169.08 155.38 169.73 156.06 L 170.64 156.98 C 171.29 157.66 172.37 157.67 173.05 157.02 C 173.73 156.36 173.74 155.28 173.08 154.60 Z M 172.19 153.75 L 171.54 153.04 C 170.92 152.36 169.87 152.31 169.19 152.93 C 168.51 153.55 168.46 154.60 169.08 155.28 L 169.73 155.99 C 170.35 156.66 171.40 156.71 172.08 156.09 C 172.76 155.48 172.80 154.42 172.19 153.75 Z M 171.52 153.07 L 170.87 152.36 C 170.27 151.70 169.25 151.64 168.58 152.24 C 167.92 152.84 167.87 153.87 168.47 154.53 L 169.11 155.24 C 169.71 155.91 170.73 155.96 171.40 155.36 C 172.06 154.76 172.11 153.74 171.52 153.07 Z M 170.85 152.39 L 170.18 151.65 C 169.60 151.00 168.60 150.94 167.95 151.52 C 167.30 152.10 167.24 153.10 167.83 153.75 L 168.49 154.50 C 169.07 155.15 170.07 155.21 170.72 154.62 C 171.37 154.04 171.43 153.04 170.85 152.39 Z M 170.15 151.68 L 169.46 150.90 C 168.90 150.26 167.92 150.20 167.29 150.77 C 166.65 151.33 166.60 152.31 167.16 152.94 L 167.85 153.72 C 168.42 154.36 169.39 154.42 170.03 153.85 C 170.66 153.29 170.72 152.31 170.15 151.68 Z M 169.43 150.93 L 168.72 150.12 C 168.17 149.50 167.23 149.44 166.60 149.99 C 165.98 150.54 165.93 151.49 166.47 152.11 L 167.19 152.91 C 167.74 153.53 168.68 153.59 169.30 153.04 C 169.93 152.49 169.98 151.55 169.43 150.93 Z M 168.71 150.14 L 168.03 149.37 C 167.49 148.76 166.55 148.70 165.94 149.24 C 165.33 149.78 165.27 150.71 165.81 151.32 L 166.49 152.09 C 167.03 152.70 167.96 152.76 168.58 152.22 C 169.19 151.68 169.24 150.75 168.71 150.14 Z M 168.02 149.37 L 167.33 148.59 C 166.79 147.99 165.87 147.93 165.26 148.47 C 164.65 149.00 164.60 149.93 165.13 150.54 L 165.82 151.31 C 166.36 151.92 167.28 151.98 167.89 151.44 C 168.50 150.91 168.55 149.98 168.02 149.37 Z M 167.32 148.60 L 166.64 147.83 C 166.11 147.23 165.19 147.17 164.59 147.71 C 163.98 148.24 163.93 149.16 164.46 149.76 L 165.14 150.53 C 165.67 151.13 166.59 151.19 167.20 150.66 C 167.80 150.12 167.86 149.20 167.32 148.60 Z M 166.63 147.84 L 165.97 147.10 C 165.44 146.50 164.53 146.45 163.93 146.98 C 163.33 147.51 163.28 148.42 163.81 149.02 L 164.47 149.76 C 165.00 150.36 165.92 150.41 166.51 149.88 C 167.11 149.35 167.16 148.43 166.63 147.84 Z M 165.96 147.10 L 165.34 146.40 C 164.81 145.81 163.90 145.76 163.31 146.29 C 162.72 146.82 162.67 147.73 163.20 148.32 L 163.82 149.02 C 164.35 149.61 165.26 149.66 165.85 149.13 C 166.44 148.60 166.49 147.69 165.96 147.10 Z M 165.33 146.40 L 164.58 145.58 C 164.05 145.00 163.15 144.95 162.56 145.49 C 161.98 146.02 161.94 146.92 162.47 147.51 L 163.21 148.33 C 163.74 148.91 164.65 148.95 165.23 148.42 C 165.82 147.89 165.86 146.99 165.33 146.40 Z M 164.57 145.57 L 163.88 144.82 C 163.34 144.24 162.44 144.21 161.86 144.74 C 161.28 145.28 161.24 146.18 161.78 146.76 L 162.48 147.52 C 163.01 148.10 163.92 148.13 164.50 147.59 C 165.08 147.06 165.11 146.15 164.57 145.57 Z M 163.87 144.82 L 163.22 144.13 C 162.68 143.55 161.78 143.52 161.20 144.06 C 160.63 144.60 160.60 145.50 161.14 146.08 L 161.79 146.77 C 162.33 147.34 163.23 147.37 163.81 146.83 C 164.38 146.29 164.41 145.39 163.87 144.82 Z M 163.22 144.12 L 162.61 143.48 C 162.06 142.90 161.16 142.88 160.59 143.42 C 160.02 143.96 159.99 144.86 160.53 145.44 L 161.15 146.08 C 161.69 146.65 162.59 146.68 163.16 146.14 C 163.73 145.60 163.76 144.69 163.22 144.12 Z"
      fill="black"
      fill-rule="nonzero" /><path d="M 115.65 166.08 L 114.97 166.73 C 114.35 167.33 114.33 168.31 114.92 168.93 C 115.51 169.55 116.50 169.58 117.12 168.98 L 117.80 168.34 C 118.42 167.74 118.44 166.76 117.85 166.14 C 117.26 165.51 116.27 165.49 115.65 166.08 Z M 114.94 166.76 L 114.26 167.45 C 113.65 168.07 113.66 169.05 114.27 169.65 C 114.88 170.26 115.87 170.25 116.47 169.64 L 117.15 168.95 C 117.76 168.34 117.75 167.35 117.14 166.75 C 116.53 166.15 115.54 166.15 114.94 166.76 Z M 114.20 167.51 L 113.51 168.29 C 112.94 168.93 113.00 169.92 113.64 170.49 C 114.29 171.06 115.27 171.00 115.84 170.35 L 116.53 169.58 C 117.10 168.94 117.04 167.95 116.40 167.38 C 115.75 166.81 114.77 166.87 114.20 167.51 Z M 113.45 168.36 L 112.85 169.14 C 112.32 169.81 112.44 170.79 113.12 171.32 C 113.80 171.85 114.77 171.73 115.30 171.05 L 115.91 170.28 C 116.43 169.60 116.31 168.62 115.63 168.09 C 114.96 167.56 113.98 167.69 113.45 168.36 Z M 112.79 169.20 L 112.28 169.94 C 111.79 170.64 111.97 171.62 112.68 172.11 C 113.38 172.60 114.36 172.42 114.85 171.72 L 115.36 170.98 C 115.85 170.28 115.67 169.30 114.97 168.81 C 114.26 168.32 113.28 168.50 112.79 169.20 Z M 112.24 169.99 L 111.73 170.81 C 111.27 171.54 111.49 172.51 112.22 172.97 C 112.95 173.43 113.92 173.21 114.38 172.47 L 114.89 171.66 C 115.35 170.93 115.13 169.96 114.40 169.50 C 113.67 169.04 112.70 169.26 112.24 169.99 Z M 111.69 170.86 L 111.18 171.77 C 110.75 172.52 111.01 173.48 111.76 173.91 C 112.52 174.34 113.47 174.07 113.90 173.32 L 114.42 172.42 C 114.85 171.67 114.59 170.71 113.83 170.28 C 113.08 169.85 112.12 170.11 111.69 170.86 Z M 111.14 171.82 L 110.63 172.81 C 110.23 173.58 110.53 174.53 111.30 174.93 C 112.07 175.33 113.02 175.03 113.42 174.26 L 113.94 173.27 C 114.34 172.50 114.04 171.55 113.27 171.15 C 112.50 170.75 111.55 171.05 111.14 171.82 Z M 110.60 172.85 L 110.15 173.80 C 109.77 174.58 110.11 175.52 110.89 175.90 C 111.68 176.28 112.62 175.94 112.99 175.16 L 113.45 174.22 C 113.82 173.43 113.49 172.49 112.70 172.11 C 111.92 171.74 110.98 172.07 110.60 172.85 Z M 110.13 173.83 L 109.72 174.75 C 109.37 175.54 109.72 176.48 110.52 176.83 C 111.31 177.19 112.25 176.83 112.60 176.04 L 113.01 175.12 C 113.37 174.33 113.01 173.40 112.22 173.04 C 111.42 172.68 110.49 173.04 110.13 173.83 Z M 109.71 174.78 L 109.31 175.72 C 108.97 176.52 109.35 177.45 110.15 177.79 C 110.95 178.13 111.88 177.75 112.22 176.95 L 112.62 176.01 C 112.96 175.20 112.58 174.28 111.78 173.94 C 110.98 173.60 110.05 173.97 109.71 174.78 Z M 109.30 175.75 L 108.92 176.70 C 108.59 177.51 108.98 178.43 109.79 178.75 C 110.60 179.08 111.52 178.69 111.84 177.88 L 112.23 176.92 C 112.55 176.11 112.16 175.20 111.35 174.87 C 110.54 174.55 109.63 174.94 109.30 175.75 Z M 108.91 176.72 L 108.55 177.67 C 108.23 178.49 108.64 179.40 109.45 179.71 C 110.27 180.02 111.18 179.61 111.49 178.80 L 111.85 177.85 C 112.17 177.04 111.76 176.13 110.94 175.82 C 110.13 175.50 109.22 175.91 108.91 176.72 Z M 108.54 177.70 L 108.20 178.62 C 107.90 179.44 108.32 180.34 109.14 180.64 C 109.96 180.94 110.87 180.52 111.17 179.70 L 111.50 178.78 C 111.80 177.96 111.38 177.05 110.56 176.75 C 109.74 176.46 108.83 176.88 108.54 177.70 Z M 108.19 178.64 L 107.85 179.64 C 107.57 180.47 108.00 181.36 108.83 181.65 C 109.65 181.93 110.55 181.49 110.83 180.67 L 111.17 179.67 C 111.46 178.85 111.02 177.95 110.20 177.67 C 109.37 177.38 108.48 177.82 108.19 178.64 Z M 107.84 179.68 L 107.51 180.71 C 107.24 181.54 107.70 182.42 108.53 182.69 C 109.35 182.96 110.24 182.50 110.50 181.67 L 110.84 180.64 C 111.10 179.81 110.65 178.93 109.82 178.66 C 108.99 178.39 108.11 178.85 107.84 179.68 Z M 107.51 180.74 L 107.22 181.71 C 106.97 182.54 107.44 183.42 108.27 183.66 C 109.10 183.91 109.97 183.44 110.22 182.61 L 110.51 181.64 C 110.75 180.81 110.28 179.94 109.46 179.69 C 108.63 179.44 107.75 179.92 107.51 180.74 Z M 107.21 181.74 L 106.96 182.65 C 106.72 183.48 107.21 184.34 108.04 184.58 C 108.87 184.81 109.73 184.33 109.96 183.50 L 110.22 182.59 C 110.45 181.76 109.97 180.89 109.14 180.66 C 108.31 180.43 107.45 180.91 107.21 181.74 Z M 106.96 182.67 L 106.72 183.54 C 106.50 184.37 106.99 185.22 107.82 185.45 C 108.65 185.67 109.51 185.18 109.73 184.35 L 109.96 183.48 C 110.18 182.65 109.69 181.80 108.86 181.57 C 108.03 181.35 107.18 181.84 106.96 182.67 Z M 106.73 183.56 L 106.47 184.54 C 106.26 185.37 106.75 186.21 107.58 186.43 C 108.41 186.64 109.25 186.15 109.47 185.32 L 109.72 184.33 C 109.94 183.51 109.44 182.66 108.62 182.45 C 107.79 182.23 106.94 182.73 106.73 183.56 Z M 106.48 184.56 L 106.23 185.56 C 106.03 186.39 106.53 187.22 107.35 187.42 C 108.17 187.63 109.01 187.13 109.21 186.30 L 109.46 185.30 C 109.66 184.48 109.16 183.65 108.34 183.44 C 107.52 183.24 106.68 183.74 106.48 184.56 Z M 106.24 185.60 L 106.02 186.56 C 105.83 187.38 106.35 188.19 107.17 188.38 C 107.98 188.56 108.80 188.05 108.99 187.23 L 109.20 186.27 C 109.39 185.45 108.88 184.64 108.06 184.45 C 107.24 184.26 106.42 184.78 106.24 185.60 Z M 106.02 186.60 L 105.84 187.52 C 105.68 188.34 106.21 189.13 107.03 189.29 C 107.85 189.45 108.64 188.92 108.80 188.10 L 108.98 187.18 C 109.14 186.37 108.61 185.57 107.79 185.41 C 106.98 185.25 106.18 185.79 106.02 186.60 Z M 105.85 187.59 L 105.69 188.60 C 105.56 189.42 106.12 190.18 106.94 190.31 C 107.75 190.43 108.52 189.87 108.64 189.06 L 108.80 188.04 C 108.92 187.23 108.36 186.46 107.55 186.34 C 106.73 186.21 105.97 186.77 105.85 187.59 Z M 105.70 188.66 L 105.59 189.65 C 105.49 190.46 106.07 191.20 106.88 191.29 C 107.69 191.38 108.42 190.80 108.52 189.99 L 108.63 189.00 C 108.72 188.19 108.14 187.46 107.33 187.36 C 106.52 187.27 105.79 187.85 105.70 188.66 Z M 105.60 189.69 L 105.51 190.66 C 105.44 191.46 106.03 192.17 106.83 192.25 C 107.63 192.32 108.34 191.73 108.41 190.93 L 108.50 189.95 C 108.58 189.15 107.99 188.44 107.18 188.37 C 106.38 188.30 105.67 188.89 105.60 189.69 Z M 105.52 190.67 L 105.49 191.03 C 105.43 191.83 106.02 192.53 106.81 192.59 C 107.61 192.66 108.31 192.07 108.37 191.28 L 108.40 190.92 C 108.47 190.12 107.88 189.42 107.08 189.36 C 106.29 189.29 105.59 189.88 105.52 190.67 Z"
      fill="black"
      fill-rule="nonzero" /><path d="M 126.05 170.23 L 126.12 171.25 C 126.19 172.09 126.92 172.72 127.76 172.66 C 128.60 172.59 129.23 171.86 129.17 171.02 L 129.09 170.01 C 129.03 169.17 128.30 168.54 127.46 168.60 C 126.62 168.66 125.99 169.39 126.05 170.23 Z M 126.13 171.30 L 126.23 172.30 C 126.32 173.14 127.08 173.74 127.92 173.65 C 128.76 173.56 129.36 172.81 129.27 171.97 L 129.17 170.97 C 129.08 170.13 128.32 169.53 127.48 169.61 C 126.64 169.70 126.04 170.46 126.13 171.30 Z M 126.25 172.40 L 126.42 173.38 C 126.56 174.21 127.36 174.76 128.19 174.62 C 129.02 174.47 129.58 173.68 129.43 172.85 L 129.26 171.87 C 129.11 171.04 128.32 170.48 127.49 170.63 C 126.66 170.77 126.10 171.57 126.25 172.40 Z M 126.45 173.53 L 126.72 174.48 C 126.95 175.29 127.80 175.76 128.61 175.53 C 129.43 175.30 129.90 174.46 129.67 173.64 L 129.40 172.69 C 129.17 171.88 128.32 171.41 127.51 171.64 C 126.69 171.87 126.22 172.72 126.45 173.53 Z M 126.78 174.66 L 127.18 175.59 C 127.51 176.37 128.41 176.74 129.19 176.40 C 129.97 176.07 130.33 175.17 130.00 174.40 L 129.60 173.46 C 129.27 172.68 128.37 172.32 127.60 172.65 C 126.82 172.98 126.45 173.88 126.78 174.66 Z M 127.25 175.74 L 127.74 176.62 C 128.15 177.36 129.08 177.63 129.82 177.22 C 130.56 176.81 130.83 175.87 130.42 175.13 L 129.93 174.25 C 129.52 173.51 128.59 173.24 127.85 173.65 C 127.11 174.06 126.84 175.00 127.25 175.74 Z M 127.80 176.72 L 128.34 177.54 C 128.81 178.25 129.76 178.45 130.47 177.98 C 131.18 177.51 131.37 176.56 130.90 175.85 L 130.36 175.03 C 129.89 174.32 128.94 174.12 128.23 174.59 C 127.52 175.06 127.33 176.01 127.80 176.72 Z M 128.39 177.62 L 128.99 178.42 C 129.50 179.10 130.46 179.24 131.14 178.73 C 131.82 178.22 131.96 177.26 131.45 176.58 L 130.85 175.78 C 130.35 175.10 129.38 174.96 128.70 175.47 C 128.02 175.97 127.88 176.94 128.39 177.62 Z M 129.04 178.48 L 129.68 179.25 C 130.22 179.90 131.19 179.99 131.84 179.45 C 132.50 178.90 132.59 177.93 132.04 177.28 L 131.40 176.51 C 130.86 175.86 129.89 175.77 129.24 176.32 C 128.58 176.86 128.50 177.83 129.04 178.48 Z M 129.73 179.31 L 130.41 180.04 C 130.99 180.66 131.96 180.69 132.58 180.11 C 133.20 179.53 133.24 178.56 132.66 177.94 L 131.99 177.22 C 131.41 176.59 130.43 176.56 129.81 177.14 C 129.19 177.72 129.15 178.69 129.73 179.31 Z M 130.46 180.09 L 131.18 180.78 C 131.79 181.37 132.76 181.36 133.35 180.75 C 133.94 180.14 133.93 179.16 133.32 178.57 L 132.60 177.88 C 131.99 177.29 131.02 177.31 130.43 177.92 C 129.84 178.53 129.85 179.50 130.46 180.09 Z M 131.23 180.83 L 131.98 181.49 C 132.62 182.05 133.59 181.98 134.14 181.35 C 134.70 180.71 134.64 179.74 134.00 179.18 L 133.26 178.52 C 132.62 177.97 131.65 178.03 131.09 178.67 C 130.53 179.30 130.60 180.27 131.23 180.83 Z M 132.04 181.53 L 132.82 182.16 C 133.49 182.68 134.45 182.58 134.98 181.91 C 135.50 181.25 135.39 180.29 134.73 179.76 L 133.95 179.13 C 133.28 178.61 132.32 178.72 131.79 179.38 C 131.27 180.04 131.38 181.00 132.04 181.53 Z M 132.89 182.20 L 133.71 182.79 C 134.40 183.28 135.35 183.12 135.84 182.44 C 136.33 181.75 136.17 180.79 135.49 180.30 L 134.67 179.72 C 133.98 179.22 133.03 179.38 132.54 180.07 C 132.04 180.76 132.20 181.71 132.89 182.20 Z M 133.78 182.83 L 134.63 183.37 C 135.34 183.82 136.28 183.61 136.73 182.90 C 137.18 182.19 136.97 181.25 136.26 180.80 L 135.41 180.26 C 134.70 179.81 133.76 180.02 133.31 180.73 C 132.86 181.44 133.08 182.38 133.78 182.83 Z M 134.72 183.40 L 135.59 183.89 C 136.32 184.29 137.24 184.02 137.64 183.29 C 138.04 182.57 137.78 181.65 137.05 181.24 L 136.18 180.76 C 135.45 180.36 134.53 180.62 134.13 181.35 C 133.72 182.08 133.99 183.00 134.72 183.40 Z M 135.68 183.92 L 136.58 184.34 C 137.33 184.70 138.22 184.38 138.57 183.63 C 138.93 182.89 138.61 181.99 137.86 181.64 L 136.96 181.21 C 136.21 180.86 135.32 181.18 134.97 181.92 C 134.61 182.67 134.93 183.56 135.68 183.92 Z M 136.67 184.37 L 137.60 184.74 C 138.36 185.04 139.22 184.67 139.52 183.91 C 139.83 183.15 139.46 182.29 138.69 181.98 L 137.77 181.62 C 137.01 181.31 136.15 181.68 135.84 182.44 C 135.54 183.20 135.91 184.07 136.67 184.37 Z M 137.68 184.76 L 138.62 185.07 C 139.39 185.32 140.22 184.90 140.48 184.13 C 140.73 183.36 140.32 182.53 139.55 182.28 L 138.61 181.97 C 137.84 181.71 137.01 182.13 136.75 182.90 C 136.50 183.67 136.91 184.50 137.68 184.76 Z M 138.70 185.08 L 139.67 185.34 C 140.44 185.55 141.24 185.09 141.45 184.31 C 141.66 183.54 141.21 182.74 140.43 182.53 L 139.46 182.27 C 138.69 182.06 137.89 182.51 137.68 183.29 C 137.47 184.07 137.93 184.87 138.70 185.08 Z M 139.74 185.34 L 140.73 185.56 C 141.51 185.73 142.28 185.24 142.45 184.46 C 142.62 183.68 142.13 182.91 141.35 182.74 L 140.36 182.52 C 139.58 182.35 138.81 182.85 138.64 183.63 C 138.47 184.40 138.96 185.17 139.74 185.34 Z M 140.79 185.56 L 141.77 185.73 C 142.55 185.87 143.30 185.34 143.43 184.56 C 143.57 183.78 143.04 183.04 142.26 182.91 L 141.28 182.74 C 140.50 182.60 139.76 183.13 139.63 183.90 C 139.49 184.68 140.01 185.43 140.79 185.56 Z M 141.82 185.74 L 142.81 185.87 C 143.59 185.98 144.31 185.44 144.42 184.66 C 144.53 183.87 143.99 183.15 143.21 183.04 L 142.22 182.90 C 141.44 182.79 140.71 183.34 140.60 184.12 C 140.49 184.90 141.04 185.63 141.82 185.74 Z M 142.84 185.88 L 143.84 185.99 C 144.62 186.09 145.33 185.53 145.42 184.74 C 145.52 183.96 144.96 183.25 144.17 183.16 L 143.18 183.04 C 142.39 182.95 141.68 183.51 141.59 184.29 C 141.50 185.07 142.06 185.78 142.84 185.88 Z M 143.85 185.99 L 144.75 186.09 C 145.53 186.18 146.23 185.61 146.32 184.83 C 146.40 184.04 145.84 183.34 145.05 183.26 L 144.16 183.16 C 143.38 183.07 142.67 183.64 142.59 184.42 C 142.50 185.20 143.07 185.91 143.85 185.99 Z"
      fill="black"
      fill-rule="nonzero" /><path d="M 150.59 164.60 L 150.26 165.57 C 149.99 166.37 150.41 167.24 151.21 167.52 C 152.01 167.79 152.89 167.36 153.16 166.56 L 153.50 165.59 C 153.77 164.79 153.34 163.92 152.54 163.64 C 151.74 163.37 150.87 163.80 150.59 164.60 Z M 150.25 165.59 L 149.93 166.55 C 149.67 167.36 150.12 168.23 150.92 168.49 C 151.73 168.76 152.60 168.31 152.86 167.50 L 153.17 166.54 C 153.44 165.73 152.99 164.86 152.19 164.60 C 151.38 164.34 150.51 164.78 150.25 165.59 Z M 149.91 166.60 L 149.64 167.55 C 149.41 168.37 149.88 169.23 150.70 169.46 C 151.52 169.69 152.38 169.22 152.61 168.40 L 152.88 167.45 C 153.12 166.63 152.64 165.78 151.82 165.54 C 151.00 165.31 150.15 165.78 149.91 166.60 Z M 149.62 167.63 L 149.40 168.59 C 149.21 169.42 149.74 170.25 150.57 170.44 C 151.41 170.63 152.24 170.10 152.43 169.27 L 152.64 168.32 C 152.83 167.48 152.30 166.65 151.47 166.46 C 150.63 166.28 149.80 166.80 149.62 167.63 Z M 149.38 168.69 L 149.23 169.66 C 149.10 170.51 149.68 171.30 150.53 171.43 C 151.38 171.56 152.17 170.98 152.30 170.13 L 152.45 169.16 C 152.58 168.31 152.00 167.52 151.15 167.39 C 150.30 167.26 149.51 167.84 149.38 168.69 Z M 149.22 169.75 L 149.13 170.74 C 149.05 171.60 149.68 172.35 150.54 172.43 C 151.39 172.51 152.15 171.88 152.23 171.02 L 152.32 170.03 C 152.39 169.18 151.76 168.42 150.91 168.35 C 150.05 168.27 149.29 168.90 149.22 169.75 Z M 149.12 170.81 L 149.07 171.82 C 149.03 172.68 149.69 173.41 150.55 173.45 C 151.41 173.49 152.14 172.83 152.18 171.97 L 152.23 170.96 C 152.27 170.10 151.61 169.37 150.75 169.32 C 149.89 169.28 149.16 169.95 149.12 170.81 Z M 149.07 171.86 L 149.05 172.79 C 149.03 173.65 149.71 174.37 150.57 174.39 C 151.43 174.41 152.14 173.73 152.16 172.87 L 152.19 171.93 C 152.21 171.07 151.53 170.35 150.66 170.33 C 149.80 170.31 149.09 170.99 149.07 171.86 Z M 149.05 172.82 L 149.04 173.81 C 149.04 174.67 149.73 175.38 150.59 175.38 C 151.45 175.38 152.16 174.69 152.16 173.83 L 152.17 172.84 C 152.17 171.98 151.47 171.27 150.61 171.27 C 149.75 171.27 149.05 171.96 149.05 172.82 Z M 149.04 173.84 L 149.05 174.88 C 149.06 175.74 149.77 176.43 150.63 176.42 C 151.49 176.41 152.18 175.70 152.17 174.84 L 152.16 173.80 C 152.15 172.94 151.44 172.25 150.58 172.26 C 149.72 172.27 149.03 172.98 149.04 173.84 Z M 149.05 174.90 L 149.08 175.94 C 149.11 176.80 149.82 177.48 150.69 177.46 C 151.55 177.43 152.23 176.72 152.20 175.85 L 152.17 174.81 C 152.15 173.95 151.43 173.27 150.57 173.30 C 149.71 173.32 149.03 174.04 149.05 174.90 Z M 149.08 175.97 L 149.13 176.95 C 149.17 177.81 149.90 178.47 150.76 178.43 C 151.62 178.39 152.28 177.66 152.25 176.80 L 152.20 175.83 C 152.16 174.97 151.43 174.30 150.57 174.34 C 149.71 174.38 149.05 175.11 149.08 175.97 Z M 149.13 176.99 L 149.21 177.98 C 149.27 178.84 150.02 179.49 150.88 179.42 C 151.74 179.36 152.38 178.61 152.32 177.75 L 152.24 176.76 C 152.18 175.90 151.43 175.26 150.57 175.32 C 149.71 175.38 149.07 176.13 149.13 176.99 Z M 149.21 178.05 L 149.33 179.05 C 149.43 179.91 150.20 180.52 151.05 180.42 C 151.91 180.32 152.52 179.55 152.42 178.70 L 152.31 177.69 C 152.21 176.84 151.44 176.22 150.58 176.32 C 149.73 176.42 149.11 177.19 149.21 178.05 Z M 149.34 179.13 L 149.51 180.14 C 149.65 180.99 150.46 181.56 151.30 181.42 C 152.15 181.27 152.72 180.47 152.58 179.62 L 152.41 178.61 C 152.27 177.77 151.47 177.19 150.62 177.34 C 149.77 177.48 149.20 178.28 149.34 179.13 Z M 149.53 180.23 L 149.76 181.20 C 149.95 182.04 150.79 182.56 151.62 182.37 C 152.46 182.17 152.98 181.34 152.79 180.50 L 152.56 179.53 C 152.37 178.69 151.53 178.17 150.69 178.37 C 149.86 178.56 149.34 179.39 149.53 180.23 Z M 149.79 181.29 L 150.07 182.25 C 150.31 183.07 151.17 183.54 151.99 183.30 C 152.81 183.06 153.28 182.20 153.04 181.38 L 152.76 180.42 C 152.52 179.60 151.66 179.13 150.84 179.37 C 150.02 179.61 149.55 180.47 149.79 181.29 Z M 150.10 182.32 L 150.43 183.26 C 150.70 184.07 151.58 184.49 152.39 184.21 C 153.19 183.93 153.61 183.06 153.34 182.25 L 153.01 181.31 C 152.73 180.50 151.85 180.08 151.05 180.36 C 150.24 180.63 149.82 181.51 150.10 182.32 Z M 150.46 183.32 L 150.82 184.25 C 151.13 185.04 152.02 185.43 152.81 185.12 C 153.60 184.81 153.99 183.91 153.67 183.13 L 153.31 182.19 C 153.00 181.41 152.11 181.02 151.32 181.33 C 150.53 181.64 150.14 182.53 150.46 183.32 Z M 150.85 184.30 L 151.26 185.23 C 151.60 186.00 152.49 186.36 153.27 186.02 C 154.04 185.68 154.39 184.78 154.05 184.01 L 153.65 183.08 C 153.31 182.31 152.41 181.96 151.64 182.29 C 150.87 182.63 150.52 183.53 150.85 184.30 Z M 151.29 185.28 L 151.75 186.22 C 152.11 186.97 153.01 187.29 153.76 186.93 C 154.51 186.57 154.83 185.67 154.47 184.92 L 154.02 183.97 C 153.66 183.22 152.76 182.90 152.00 183.26 C 151.25 183.62 150.93 184.52 151.29 185.28 Z M 151.79 186.27 L 152.28 187.17 C 152.67 187.90 153.57 188.17 154.30 187.79 C 155.02 187.40 155.30 186.49 154.91 185.77 L 154.43 184.87 C 154.04 184.14 153.13 183.86 152.41 184.25 C 151.68 184.64 151.41 185.55 151.79 186.27 Z M 152.33 187.24 L 152.84 188.08 C 153.27 188.77 154.18 188.99 154.87 188.57 C 155.57 188.14 155.79 187.24 155.36 186.54 L 154.85 185.70 C 154.43 185.01 153.52 184.79 152.82 185.21 C 152.13 185.64 151.91 186.54 152.33 187.24 Z M 152.92 188.15 L 153.46 188.91 C 153.93 189.57 154.84 189.72 155.49 189.25 C 156.14 188.78 156.30 187.87 155.83 187.22 L 155.29 186.46 C 154.82 185.81 153.91 185.66 153.26 186.12 C 152.60 186.59 152.45 187.50 152.92 188.15 Z M 153.55 189.01 L 154.25 189.81 C 154.77 190.41 155.68 190.47 156.28 189.95 C 156.89 189.42 156.95 188.51 156.42 187.91 L 155.73 187.11 C 155.21 186.51 154.30 186.45 153.69 186.98 C 153.09 187.50 153.03 188.41 153.55 189.01 Z M 154.34 189.90 L 155.07 190.59 C 155.64 191.13 156.55 191.11 157.10 190.54 C 157.65 189.96 157.62 189.05 157.05 188.50 L 156.33 187.82 C 155.75 187.27 154.84 187.29 154.29 187.87 C 153.75 188.44 153.77 189.35 154.34 189.90 Z M 155.14 190.64 L 155.88 191.26 C 156.48 191.77 157.39 191.69 157.90 191.09 C 158.40 190.48 158.33 189.58 157.72 189.07 L 156.98 188.45 C 156.37 187.94 155.47 188.02 154.96 188.62 C 154.45 189.23 154.53 190.13 155.14 190.64 Z M 155.91 191.28 L 156.31 191.61 C 156.92 192.10 157.82 192.00 158.32 191.39 C 158.81 190.77 158.71 189.87 158.10 189.38 L 157.69 189.06 C 157.08 188.56 156.18 188.66 155.69 189.27 C 155.19 189.89 155.29 190.79 155.91 191.28 Z"
      fill="black"
      fill-rule="nonzero" /><path d="M 180.79 161.75 L 180.76 162.79 C 180.74 163.64 181.42 164.36 182.28 164.38 C 183.14 164.39 183.85 163.71 183.87 162.86 L 183.89 161.82 C 183.91 160.96 183.23 160.25 182.37 160.23 C 181.52 160.21 180.81 160.89 180.79 161.75 Z M 180.76 162.79 L 180.74 163.82 C 180.72 164.68 181.41 165.39 182.27 165.41 C 183.13 165.42 183.84 164.74 183.85 163.88 L 183.87 162.85 C 183.89 161.99 183.21 161.28 182.35 161.26 C 181.49 161.25 180.77 161.93 180.76 162.79 Z M 180.73 163.83 L 180.72 164.84 C 180.71 165.71 181.40 166.41 182.27 166.42 C 183.13 166.43 183.84 165.74 183.85 164.88 L 183.86 163.87 C 183.87 163.00 183.18 162.30 182.31 162.29 C 181.45 162.28 180.74 162.97 180.73 163.83 Z M 180.72 164.86 L 180.72 165.85 C 180.72 166.72 181.42 167.42 182.29 167.42 C 183.15 167.42 183.85 166.72 183.85 165.85 L 183.85 164.86 C 183.85 164.00 183.15 163.29 182.28 163.30 C 181.42 163.30 180.72 164.00 180.72 164.86 Z M 180.72 165.88 L 180.73 166.84 C 180.75 167.71 181.46 168.40 182.33 168.39 C 183.20 168.37 183.89 167.66 183.87 166.79 L 183.86 165.83 C 183.84 164.96 183.13 164.27 182.26 164.28 C 181.39 164.30 180.70 165.01 180.72 165.88 Z M 180.73 166.88 L 180.77 167.87 C 180.80 168.74 181.54 169.41 182.41 169.38 C 183.27 169.34 183.95 168.61 183.91 167.74 L 183.87 166.75 C 183.84 165.88 183.11 165.21 182.24 165.24 C 181.37 165.28 180.69 166.01 180.73 166.88 Z M 180.77 167.92 L 180.84 168.93 C 180.91 169.80 181.66 170.45 182.53 170.38 C 183.40 170.32 184.05 169.57 183.99 168.70 L 183.91 167.69 C 183.85 166.82 183.09 166.17 182.23 166.23 C 181.36 166.30 180.71 167.05 180.77 167.92 Z M 180.85 169.00 L 180.96 169.98 C 181.07 170.84 181.85 171.46 182.71 171.36 C 183.58 171.26 184.20 170.48 184.10 169.61 L 183.98 168.63 C 183.88 167.77 183.10 167.15 182.23 167.25 C 181.37 167.35 180.75 168.13 180.85 169.00 Z M 180.98 170.06 L 181.14 171.02 C 181.28 171.88 182.10 172.46 182.96 172.32 C 183.81 172.17 184.39 171.36 184.25 170.50 L 184.09 169.53 C 183.94 168.67 183.13 168.09 182.27 168.24 C 181.41 168.38 180.83 169.20 180.98 170.06 Z M 181.15 171.11 L 181.37 172.08 C 181.57 172.93 182.41 173.46 183.26 173.27 C 184.11 173.08 184.64 172.23 184.45 171.38 L 184.23 170.41 C 184.04 169.56 183.19 169.03 182.34 169.22 C 181.49 169.42 180.96 170.26 181.15 171.11 Z M 181.40 172.17 L 181.66 173.09 C 181.90 173.93 182.77 174.41 183.61 174.17 C 184.45 173.93 184.93 173.06 184.70 172.22 L 184.43 171.30 C 184.19 170.46 183.32 169.98 182.48 170.21 C 181.64 170.45 181.16 171.33 181.40 172.17 Z M 181.68 173.16 L 181.99 174.08 C 182.27 174.90 183.17 175.34 183.99 175.06 C 184.82 174.78 185.26 173.89 184.98 173.06 L 184.67 172.15 C 184.39 171.33 183.50 170.88 182.67 171.16 C 181.85 171.44 181.40 172.34 181.68 173.16 Z M 182.02 174.14 L 182.38 175.06 C 182.69 175.87 183.60 176.27 184.41 175.96 C 185.22 175.65 185.63 174.73 185.31 173.92 L 184.96 173.00 C 184.64 172.19 183.73 171.79 182.92 172.10 C 182.11 172.41 181.70 173.33 182.02 174.14 Z M 182.40 175.11 L 182.80 176.05 C 183.15 176.85 184.07 177.21 184.87 176.87 C 185.67 176.53 186.04 175.60 185.69 174.80 L 185.29 173.87 C 184.95 173.07 184.02 172.70 183.22 173.05 C 182.42 173.39 182.06 174.32 182.40 175.11 Z M 182.83 176.09 L 183.27 177.03 C 183.64 177.82 184.57 178.15 185.36 177.79 C 186.14 177.42 186.48 176.48 186.11 175.69 L 185.67 174.76 C 185.30 173.97 184.36 173.63 183.58 174.00 C 182.79 174.37 182.46 175.31 182.83 176.09 Z M 183.29 177.07 L 183.77 178.01 C 184.16 178.79 185.10 179.09 185.87 178.70 C 186.65 178.31 186.96 177.37 186.56 176.59 L 186.09 175.65 C 185.70 174.88 184.75 174.57 183.98 174.97 C 183.21 175.36 182.90 176.30 183.29 177.07 Z M 183.79 178.05 L 184.29 178.98 C 184.70 179.74 185.65 180.02 186.41 179.61 C 187.17 179.20 187.45 178.25 187.04 177.49 L 186.54 176.56 C 186.13 175.80 185.18 175.52 184.42 175.93 C 183.66 176.34 183.38 177.29 183.79 178.05 Z M 184.32 179.01 L 184.84 179.92 C 185.26 180.66 186.21 180.92 186.96 180.49 C 187.70 180.07 187.96 179.12 187.54 178.37 L 187.02 177.46 C 186.59 176.72 185.64 176.46 184.90 176.89 C 184.15 177.31 183.89 178.26 184.32 179.01 Z M 184.86 179.94 L 185.39 180.81 C 185.83 181.54 186.78 181.78 187.51 181.34 C 188.24 180.90 188.48 179.95 188.04 179.22 L 187.51 178.35 C 187.07 177.62 186.12 177.38 185.39 177.82 C 184.66 178.26 184.42 179.21 184.86 179.94 Z M 185.41 180.84 L 185.93 181.66 C 186.38 182.37 187.33 182.59 188.05 182.14 C 188.77 181.68 188.98 180.73 188.53 180.01 L 188.01 179.20 C 187.56 178.48 186.61 178.26 185.89 178.72 C 185.17 179.17 184.96 180.12 185.41 180.84 Z M 185.95 181.68 L 186.45 182.43 C 186.92 183.13 187.87 183.32 188.57 182.86 C 189.27 182.39 189.47 181.44 189.00 180.74 L 188.50 179.99 C 188.03 179.28 187.08 179.09 186.38 179.56 C 185.68 180.03 185.49 180.98 185.95 181.68 Z M 186.49 182.46 L 187.09 183.31 C 187.58 183.99 188.52 184.15 189.21 183.66 C 189.89 183.18 190.05 182.23 189.56 181.55 L 188.96 180.70 C 188.47 180.02 187.52 179.86 186.84 180.35 C 186.16 180.83 186.00 181.78 186.49 182.46 Z M 187.15 183.37 L 187.76 184.12 C 188.27 184.77 189.22 184.87 189.87 184.35 C 190.52 183.83 190.62 182.89 190.10 182.24 L 189.50 181.49 C 188.98 180.84 188.03 180.73 187.39 181.25 C 186.74 181.77 186.63 182.72 187.15 183.37 Z M 187.84 184.19 L 188.48 184.89 C 189.04 185.50 189.98 185.53 190.59 184.97 C 191.19 184.42 191.23 183.47 190.67 182.87 L 190.02 182.17 C 189.46 181.57 188.52 181.53 187.92 182.09 C 187.32 182.65 187.28 183.59 187.84 184.19 Z M 188.57 184.96 L 189.31 185.66 C 189.91 186.21 190.84 186.18 191.40 185.59 C 191.95 185.00 191.92 184.06 191.33 183.51 L 190.59 182.81 C 189.99 182.25 189.06 182.28 188.50 182.87 C 187.95 183.47 187.98 184.40 188.57 184.96 Z M 189.38 185.70 L 190.13 186.33 C 190.75 186.85 191.67 186.77 192.19 186.15 C 192.71 185.53 192.63 184.61 192.01 184.09 L 191.26 183.46 C 190.65 182.94 189.72 183.02 189.20 183.64 C 188.68 184.26 188.76 185.18 189.38 185.70 Z M 190.18 186.36 L 190.98 186.98 C 191.61 187.48 192.53 187.37 193.02 186.73 C 193.52 186.10 193.40 185.18 192.77 184.69 L 191.97 184.06 C 191.33 183.57 190.42 183.68 189.92 184.31 C 189.43 184.95 189.54 185.86 190.18 186.36 Z M 191.02 187.01 L 191.86 187.62 C 192.51 188.09 193.41 187.95 193.89 187.31 C 194.36 186.66 194.22 185.75 193.57 185.28 L 192.73 184.66 C 192.08 184.19 191.17 184.33 190.70 184.98 C 190.23 185.63 190.37 186.53 191.02 187.01 Z M 191.90 187.64 L 192.74 188.22 C 193.40 188.67 194.30 188.51 194.75 187.85 C 195.20 187.19 195.04 186.29 194.38 185.84 L 193.53 185.26 C 192.87 184.81 191.97 184.98 191.52 185.63 C 191.07 186.29 191.24 187.19 191.90 187.64 Z M 192.79 188.24 L 193.60 188.76 C 194.27 189.19 195.16 188.99 195.59 188.32 C 196.01 187.65 195.82 186.76 195.15 186.33 L 194.33 185.82 C 193.66 185.39 192.77 185.59 192.35 186.26 C 191.92 186.93 192.12 187.82 192.79 188.24 Z M 193.66 188.79 L 194.64 189.36 C 195.33 189.75 196.21 189.51 196.60 188.82 C 196.99 188.14 196.76 187.26 196.07 186.87 L 195.08 186.30 C 194.40 185.91 193.52 186.15 193.13 186.84 C 192.73 187.52 192.97 188.40 193.66 188.79 Z M 194.72 189.39 L 195.63 189.85 C 196.34 190.20 197.20 189.91 197.55 189.20 C 197.90 188.49 197.61 187.63 196.90 187.28 L 195.99 186.83 C 195.28 186.48 194.42 186.77 194.07 187.47 C 193.72 188.18 194.01 189.04 194.72 189.39 Z M 195.69 189.87 L 196.54 190.24 C 197.26 190.56 198.10 190.23 198.42 189.51 C 198.73 188.78 198.41 187.94 197.68 187.62 L 196.84 187.26 C 196.12 186.94 195.27 187.27 194.96 187.99 C 194.64 188.71 194.97 189.56 195.69 189.87 Z M 196.57 190.25 L 197.14 190.49 C 197.87 190.79 198.70 190.44 199.00 189.71 C 199.30 188.99 198.96 188.15 198.23 187.85 L 197.65 187.61 C 196.92 187.31 196.09 187.66 195.79 188.39 C 195.49 189.12 195.84 189.95 196.57 190.25 Z"
      fill="black"
      fill-rule="nonzero" /></svg>