<svg xmlns="http://www.w3.org/2000/svg" width="300" height="300" viewBox="0 0 300 300">
<path d="M 142.45 107.90 L 142.99 106.70 C 143.33 105.94 142.99 105.04 142.22 104.70 C 141.46 104.35 140.56 104.70 140.22 105.46 L 139.68 106.66 C 139.34 107.43 139.68 108.33 140.44 108.67 C 141.21 109.01 142.11 108.67 142.45 107.90 Z M 142.91 107.00 L 143.32 106.42 C 143.83 105.70 143.66 104.70 142.94 104.19 C 142.22 103.68 141.22 103.85 140.71 104.57 L 140.30 105.16 C 139.79 105.88 139.96 106.88 140.68 107.39 C 141.40 107.90 142.40 107.73 142.91 107.00 Z M 140.50 106.15 L 140.68 106.55 C 141.04 107.39 142.01 107.77 142.85 107.41 C 143.68 107.05 144.07 106.07 143.70 105.24 L 143.53 104.84 C 143.17 104.00 142.20 103.62 141.36 103.98 C 140.53 104.34 140.14 105.32 140.50 106.15 Z M 140.52 105.83 L 140.48 106.93 C 140.45 107.86 141.17 108.63 142.09 108.67 C 143.01 108.70 143.79 107.98 143.82 107.06 L 143.86 105.96 C 143.89 105.03 143.17 104.26 142.25 104.22 C 141.33 104.19 140.55 104.91 140.52 105.83 Z M 140.49 106.72 L 140.28 107.98 C 140.13 108.89 140.75 109.76 141.66 109.92 C 142.58 110.07 143.45 109.45 143.60 108.53 L 143.81 107.27 C 143.97 106.35 143.34 105.49 142.43 105.33 C 141.51 105.18 140.64 105.80 140.49 106.72 Z M 140.30 107.85 L 140.06 108.81 C 139.84 109.72 140.40 110.64 141.30 110.86 C 142.21 111.08 143.13 110.53 143.35 109.62 L 143.59 108.65 C 143.81 107.74 143.25 106.83 142.34 106.61 C 141.43 106.38 140.52 106.94 140.30 107.85 Z M 140.07 108.75 L 139.79 109.73 C 139.53 110.64 140.05 111.58 140.95 111.83 C 141.86 112.09 142.80 111.57 143.05 110.67 L 143.34 109.68 C 143.60 108.78 143.08 107.84 142.17 107.58 C 141.27 107.33 140.33 107.85 140.07 108.75 Z M 139.80 109.69 L 139.49 110.66 C 139.21 111.56 139.71 112.52 140.61 112.80 C 141.50 113.08 142.46 112.58 142.74 111.69 L 143.05 110.71 C 143.33 109.82 142.83 108.86 141.93 108.58 C 141.04 108.30 140.08 108.80 139.80 109.69 Z M 139.50 110.64 L 139.18 111.59 C 138.89 112.48 139.37 113.45 140.27 113.74 C 141.16 114.04 142.13 113.56 142.42 112.66 L 142.74 111.71 C 143.03 110.82 142.55 109.85 141.65 109.56 C 140.76 109.26 139.79 109.75 139.50 110.64 Z M 139.18 111.58 L 138.85 112.57 C 138.55 113.47 139.02 114.44 139.92 114.74 C 140.81 115.04 141.78 114.56 142.08 113.67 L 142.42 112.67 C 142.72 111.78 142.24 110.81 141.35 110.51 C 140.46 110.21 139.49 110.68 139.18 111.58 Z M 138.85 112.56 L 138.53 113.49 C 138.22 114.38 138.69 115.35 139.58 115.66 C 140.47 115.97 141.45 115.50 141.76 114.61 L 142.08 113.68 C 142.39 112.79 141.92 111.82 141.03 111.51 C 140.14 111.20 139.16 111.67 138.85 112.56 Z M 138.53 113.47 L 138.21 114.38 C 137.89 115.26 138.35 116.24 139.24 116.56 C 140.13 116.88 141.11 116.42 141.43 115.53 L 141.75 114.63 C 142.07 113.74 141.61 112.76 140.72 112.44 C 139.83 112.12 138.85 112.58 138.53 113.47 Z M 138.21 114.36 L 137.88 115.26 C 137.56 116.14 138.01 117.13 138.90 117.45 C 139.78 117.78 140.77 117.33 141.10 116.44 L 141.43 115.54 C 141.75 114.66 141.30 113.67 140.41 113.34 C 139.52 113.02 138.54 113.47 138.21 114.36 Z M 137.89 115.24 L 137.54 116.15 C 137.21 117.04 137.65 118.03 138.54 118.36 C 139.42 118.70 140.41 118.25 140.75 117.37 L 141.09 116.45 C 141.43 115.57 140.98 114.58 140.10 114.24 C 139.21 113.91 138.22 114.36 137.89 115.24 Z M 137.54 116.14 L 137.18 117.08 C 136.84 117.97 137.28 118.96 138.16 119.30 C 139.04 119.64 140.04 119.20 140.38 118.32 L 140.74 117.38 C 141.09 116.50 140.65 115.50 139.76 115.16 C 138.88 114.82 137.89 115.26 137.54 116.14 Z M 137.18 117.07 L 136.80 118.04 C 136.45 118.92 136.88 119.92 137.76 120.27 C 138.65 120.62 139.64 120.19 139.99 119.30 L 140.38 118.33 C 140.72 117.45 140.29 116.45 139.41 116.11 C 138.53 115.76 137.53 116.19 137.18 117.07 Z M 136.80 118.03 L 136.44 118.92 C 136.09 119.80 136.52 120.80 137.40 121.15 C 138.28 121.51 139.28 121.08 139.63 120.20 L 139.99 119.32 C 140.34 118.44 139.92 117.43 139.04 117.08 C 138.16 116.73 137.16 117.15 136.80 118.03 Z M 136.45 118.91 L 136.08 119.82 C 135.72 120.70 136.14 121.70 137.02 122.06 C 137.90 122.42 138.90 122.00 139.26 121.12 L 139.63 120.21 C 139.99 119.33 139.57 118.33 138.69 117.97 C 137.81 117.61 136.81 118.03 136.45 118.91 Z M 136.08 119.81 L 135.69 120.74 C 135.33 121.62 135.75 122.63 136.62 122.99 C 137.50 123.35 138.51 122.94 138.87 122.06 L 139.26 121.13 C 139.62 120.25 139.20 119.24 138.32 118.88 C 137.45 118.52 136.44 118.93 136.08 119.81 Z M 135.69 120.74 L 135.29 121.70 C 134.93 122.58 135.34 123.58 136.22 123.95 C 137.09 124.32 138.10 123.90 138.47 123.03 L 138.87 122.06 C 139.23 121.19 138.82 120.18 137.94 119.81 C 137.07 119.45 136.06 119.86 135.69 120.74 Z M 135.29 121.70 L 134.91 122.62 C 134.54 123.50 134.95 124.51 135.83 124.87 C 136.70 125.24 137.71 124.83 138.08 123.95 L 138.47 123.03 C 138.83 122.15 138.42 121.14 137.55 120.78 C 136.67 120.41 135.66 120.82 135.29 121.70 Z M 134.91 122.62 L 134.52 123.54 C 134.15 124.41 134.55 125.42 135.43 125.79 C 136.30 126.16 137.31 125.76 137.69 124.88 L 138.08 123.96 C 138.45 123.08 138.04 122.07 137.16 121.70 C 136.29 121.33 135.28 121.74 134.91 122.62 Z M 134.52 123.53 L 134.12 124.46 C 133.75 125.33 134.15 126.34 135.02 126.72 C 135.90 127.09 136.91 126.69 137.28 125.82 L 137.68 124.89 C 138.06 124.01 137.65 123.00 136.78 122.63 C 135.91 122.25 134.90 122.66 134.52 123.53 Z M 134.13 124.45 L 133.72 125.37 C 133.34 126.24 133.74 127.25 134.61 127.63 C 135.48 128.02 136.49 127.62 136.88 126.75 L 137.28 125.83 C 137.66 124.96 137.26 123.94 136.39 123.56 C 135.52 123.18 134.51 123.57 134.13 124.45 Z M 133.73 125.35 L 133.32 126.27 C 132.93 127.13 133.32 128.15 134.19 128.54 C 135.05 128.93 136.07 128.54 136.46 127.67 L 136.87 126.76 C 137.26 125.89 136.87 124.88 136.00 124.49 C 135.14 124.10 134.12 124.49 133.73 125.35 Z M 133.33 126.25 L 132.90 127.17 C 132.51 128.03 132.88 129.05 133.75 129.45 C 134.61 129.85 135.63 129.47 136.03 128.61 L 136.45 127.69 C 136.85 126.83 136.47 125.80 135.61 125.41 C 134.75 125.01 133.72 125.39 133.33 126.25 Z M 132.91 127.15 L 132.49 128.05 C 132.08 128.91 132.45 129.93 133.31 130.34 C 134.17 130.75 135.19 130.38 135.60 129.52 L 136.02 128.62 C 136.43 127.76 136.06 126.74 135.20 126.33 C 134.35 125.92 133.32 126.29 132.91 127.15 Z M 132.49 128.03 L 132.06 128.93 C 131.65 129.78 132.00 130.81 132.86 131.23 C 133.71 131.64 134.74 131.28 135.16 130.43 L 135.59 129.54 C 136.00 128.68 135.65 127.65 134.79 127.24 C 133.94 126.82 132.91 127.18 132.49 128.03 Z M 132.07 128.92 L 131.63 129.81 C 131.20 130.66 131.55 131.69 132.41 132.12 C 133.26 132.54 134.29 132.19 134.71 131.34 L 135.15 130.44 C 135.57 129.59 135.22 128.56 134.37 128.14 C 133.52 127.72 132.49 128.06 132.07 128.92 Z M 131.63 129.80 L 131.19 130.68 C 130.76 131.53 131.11 132.56 131.96 132.99 C 132.80 133.41 133.84 133.07 134.26 132.22 L 134.70 131.34 C 135.13 130.50 134.79 129.46 133.94 129.04 C 133.09 128.61 132.06 128.95 131.63 129.80 Z M 131.19 130.67 L 130.75 131.56 C 130.32 132.40 130.66 133.44 131.50 133.87 C 132.35 134.29 133.38 133.96 133.81 133.11 L 134.26 132.23 C 134.69 131.38 134.35 130.35 133.50 129.92 C 132.66 129.49 131.62 129.83 131.19 130.67 Z M 130.75 131.55 L 130.29 132.45 C 129.86 133.29 130.20 134.32 131.04 134.76 C 131.89 135.19 132.92 134.85 133.35 134.01 L 133.81 133.11 C 134.24 132.27 133.90 131.24 133.06 130.81 C 132.21 130.37 131.18 130.71 130.75 131.55 Z M 130.30 132.45 L 129.84 133.35 C 129.41 134.19 129.74 135.22 130.58 135.66 C 131.43 136.09 132.46 135.75 132.89 134.91 L 133.35 134.01 C 133.78 133.16 133.45 132.13 132.60 131.70 C 131.76 131.27 130.73 131.60 130.30 132.45 Z M 129.84 133.35 L 129.38 134.26 C 128.95 135.10 129.28 136.13 130.13 136.56 C 130.97 136.99 132.00 136.65 132.43 135.81 L 132.89 134.91 C 133.32 134.06 132.98 133.03 132.14 132.60 C 131.30 132.17 130.27 132.51 129.84 133.35 Z M 129.38 134.26 L 128.93 135.15 C 128.50 136.00 128.84 137.02 129.68 137.45 C 130.52 137.88 131.55 137.54 131.98 136.70 L 132.43 135.81 C 132.86 134.96 132.52 133.93 131.68 133.51 C 130.83 133.08 129.80 133.42 129.38 134.26 Z M 128.93 135.15 L 128.47 136.05 C 128.05 136.89 128.38 137.92 129.22 138.34 C 130.06 138.77 131.09 138.43 131.52 137.59 L 131.97 136.70 C 132.40 135.86 132.06 134.83 131.22 134.40 C 130.38 133.98 129.35 134.31 128.93 135.15 Z M 128.48 136.04 L 128.02 136.93 C 127.59 137.77 127.92 138.80 128.76 139.23 C 129.60 139.66 130.63 139.33 131.06 138.49 L 131.51 137.60 C 131.94 136.76 131.61 135.73 130.77 135.30 C 129.94 134.87 128.91 135.20 128.48 136.04 Z M 128.03 136.92 L 127.57 137.81 C 127.14 138.64 127.46 139.67 128.29 140.11 C 129.13 140.54 130.15 140.22 130.59 139.38 L 131.05 138.50 C 131.48 137.66 131.16 136.64 130.33 136.20 C 129.49 135.77 128.46 136.09 128.03 136.92 Z M 127.58 137.80 L 127.11 138.68 C 126.67 139.51 126.98 140.54 127.81 140.98 C 128.64 141.42 129.66 141.11 130.11 140.28 L 130.58 139.40 C 131.02 138.57 130.71 137.54 129.88 137.10 C 129.05 136.66 128.02 136.97 127.58 137.80 Z M 127.12 138.67 L 126.64 139.56 C 126.19 140.38 126.49 141.41 127.31 141.85 C 128.13 142.30 129.16 142.00 129.61 141.18 L 130.09 140.30 C 130.54 139.47 130.24 138.44 129.42 138.00 C 128.60 137.55 127.57 137.85 127.12 138.67 Z M 126.65 139.54 L 126.16 140.42 C 125.70 141.23 126.00 142.26 126.81 142.72 C 127.63 143.17 128.66 142.88 129.11 142.07 L 129.60 141.19 C 130.05 140.38 129.76 139.35 128.95 138.89 C 128.13 138.44 127.10 138.73 126.65 139.54 Z M 126.17 140.41 L 125.68 141.28 C 125.22 142.09 125.50 143.11 126.31 143.57 C 127.12 144.03 128.15 143.75 128.61 142.94 L 129.10 142.07 C 129.56 141.26 129.28 140.23 128.47 139.78 C 127.66 139.32 126.63 139.60 126.17 140.41 Z M 125.69 141.27 L 125.20 142.13 C 124.73 142.93 125.01 143.96 125.82 144.42 C 126.62 144.88 127.65 144.61 128.11 143.80 L 128.60 142.94 C 129.06 142.14 128.79 141.11 127.98 140.65 C 127.18 140.19 126.15 140.47 125.69 141.27 Z M 125.20 142.13 L 124.70 142.99 C 124.24 143.79 124.51 144.82 125.31 145.28 C 126.12 145.74 127.14 145.47 127.60 144.67 L 128.10 143.80 C 128.57 143.00 128.29 141.98 127.49 141.51 C 126.69 141.05 125.67 141.33 125.20 142.13 Z M 124.71 142.99 L 124.21 143.85 C 123.75 144.65 124.01 145.67 124.81 146.13 C 125.61 146.60 126.63 146.33 127.09 145.53 L 127.59 144.67 C 128.06 143.87 127.79 142.85 126.99 142.39 C 126.20 141.92 125.17 142.19 124.71 142.99 Z M 124.22 143.85 L 123.71 144.71 C 123.25 145.50 123.51 146.52 124.31 146.99 C 125.10 147.45 126.12 147.18 126.58 146.39 L 127.09 145.53 C 127.55 144.74 127.28 143.72 126.49 143.26 C 125.70 142.79 124.68 143.06 124.22 143.85 Z M 123.72 144.71 L 123.21 145.57 C 122.75 146.36 123.01 147.38 123.80 147.84 C 124.58 148.31 125.60 148.04 126.06 147.26 L 126.57 146.39 C 127.04 145.61 126.78 144.59 125.99 144.13 C 125.20 143.66 124.18 143.92 123.72 144.71 Z M 123.22 145.57 L 122.70 146.45 C 122.23 147.24 122.49 148.25 123.27 148.71 C 124.06 149.18 125.07 148.92 125.53 148.14 L 126.06 147.26 C 126.52 146.47 126.26 145.46 125.48 145.00 C 124.70 144.53 123.68 144.79 123.22 145.57 Z M 122.70 146.46 L 122.17 147.35 C 121.71 148.13 121.96 149.14 122.74 149.60 C 123.52 150.06 124.53 149.81 124.99 149.03 L 125.53 148.14 C 125.99 147.36 125.73 146.35 124.95 145.89 C 124.18 145.42 123.17 145.68 122.70 146.46 Z M 122.18 147.35 L 121.66 148.23 C 121.19 149.01 121.45 150.01 122.22 150.47 C 123.00 150.93 124.00 150.68 124.46 149.90 L 124.99 149.03 C 125.45 148.25 125.19 147.25 124.42 146.79 C 123.64 146.32 122.64 146.58 122.18 147.35 Z M 121.66 148.24 L 121.16 149.08 C 120.70 149.85 120.96 150.85 121.73 151.31 C 122.50 151.77 123.50 151.51 123.96 150.74 L 124.46 149.90 C 124.92 149.12 124.66 148.13 123.89 147.67 C 123.12 147.21 122.12 147.46 121.66 148.24 Z M 121.17 149.09 L 120.69 149.90 C 120.23 150.67 120.49 151.66 121.26 152.12 C 122.03 152.57 123.02 152.32 123.47 151.55 L 123.95 150.73 C 124.41 149.96 124.15 148.97 123.38 148.52 C 122.61 148.06 121.62 148.32 121.17 149.09 Z M 120.69 149.91 L 120.18 150.78 C 119.73 151.55 119.98 152.53 120.75 152.98 C 121.51 153.43 122.50 153.18 122.95 152.42 L 123.46 151.54 C 123.91 150.78 123.66 149.79 122.90 149.34 C 122.13 148.89 121.14 149.14 120.69 149.91 Z M 120.20 150.76 L 119.69 151.59 C 119.23 152.34 119.47 153.33 120.22 153.79 C 120.97 154.25 121.95 154.01 122.42 153.26 L 122.92 152.43 C 123.38 151.68 123.15 150.70 122.40 150.24 C 121.65 149.78 120.66 150.01 120.20 150.76 Z M 119.73 151.55 L 119.19 152.37 C 118.70 153.10 118.90 154.08 119.63 154.57 C 120.36 155.05 121.34 154.86 121.83 154.13 L 122.37 153.31 C 122.86 152.58 122.66 151.59 121.93 151.11 C 121.21 150.62 120.22 150.82 119.73 151.55 Z M 119.24 152.31 L 118.66 153.10 C 118.14 153.79 118.29 154.78 118.99 155.30 C 119.69 155.81 120.68 155.67 121.19 154.97 L 121.77 154.18 C 122.29 153.48 122.14 152.50 121.44 151.98 C 120.74 151.46 119.76 151.61 119.24 152.31 Z M 118.71 153.05 L 118.11 153.80 C 117.57 154.47 117.68 155.45 118.35 156.00 C 119.03 156.54 120.01 156.43 120.55 155.75 L 121.15 155.01 C 121.69 154.34 121.58 153.35 120.91 152.81 C 120.23 152.27 119.25 152.38 118.71 153.05 Z M 118.14 153.77 L 117.50 154.54 C 116.94 155.20 117.02 156.18 117.68 156.73 C 118.34 157.28 119.32 157.20 119.87 156.55 L 120.52 155.78 C 121.07 155.12 120.99 154.14 120.33 153.59 C 119.68 153.03 118.70 153.12 118.14 153.77 Z M 117.52 154.53 L 116.84 155.31 C 116.28 155.95 116.34 156.93 116.99 157.49 C 117.63 158.05 118.61 157.98 119.17 157.34 L 119.85 156.56 C 120.41 155.91 120.34 154.94 119.70 154.38 C 119.05 153.82 118.08 153.89 117.52 154.53 Z M 116.85 155.31 L 116.23 156.01 C 115.67 156.64 115.73 157.61 116.37 158.17 C 117.00 158.74 117.97 158.67 118.53 158.04 L 119.15 157.34 C 119.71 156.71 119.65 155.74 119.02 155.17 C 118.38 154.61 117.41 154.67 116.85 155.31 Z"
      fill="black"
      fill-rule="nonzero" /><path d="M 140.70 133.31 L 141.60 132.96 C 142.39 132.65 142.77 131.76 142.46 130.98 C 142.15 130.19 141.27 129.80 140.48 130.11 L 139.58 130.47 C 138.79 130.77 138.41 131.66 138.71 132.45 C 139.02 133.23 139.91 133.62 140.70 133.31 Z M 141.60 132.98 L 142.52 132.62 C 143.31 132.31 143.71 131.41 143.39 130.61 C 143.08 129.82 142.18 129.42 141.39 129.74 L 140.47 130.09 C 139.68 130.41 139.29 131.30 139.60 132.10 C 139.91 132.90 140.81 133.29 141.60 132.98 Z M 142.52 132.64 L 143.46 132.27 C 144.26 131.96 144.66 131.05 144.35 130.24 C 144.03 129.44 143.12 129.04 142.32 129.35 L 141.38 129.72 C 140.58 130.03 140.18 130.94 140.49 131.75 C 140.81 132.55 141.72 132.95 142.52 132.64 Z M 143.46 132.29 L 144.43 131.91 C 145.25 131.60 145.65 130.68 145.34 129.86 C 145.02 129.04 144.10 128.64 143.28 128.96 L 142.31 129.33 C 141.50 129.65 141.09 130.57 141.41 131.39 C 141.73 132.20 142.65 132.61 143.46 132.29 Z M 144.43 131.92 L 145.21 131.62 C 146.03 131.30 146.44 130.38 146.13 129.56 C 145.81 128.73 144.88 128.33 144.06 128.64 L 143.28 128.95 C 142.46 129.26 142.05 130.19 142.37 131.01 C 142.69 131.83 143.61 132.24 144.43 131.92 Z M 145.22 131.62 L 146.01 131.31 C 146.83 130.99 147.24 130.07 146.92 129.24 C 146.60 128.42 145.67 128.01 144.85 128.34 L 144.06 128.64 C 143.23 128.97 142.83 129.89 143.15 130.71 C 143.47 131.54 144.39 131.94 145.22 131.62 Z M 146.02 131.31 L 146.88 130.97 C 147.70 130.64 148.10 129.71 147.78 128.89 C 147.45 128.07 146.52 127.67 145.70 128.00 L 144.84 128.34 C 144.02 128.66 143.62 129.59 143.95 130.41 C 144.27 131.23 145.20 131.63 146.02 131.31 Z M 146.90 130.96 L 147.85 130.57 C 148.67 130.24 149.06 129.31 148.73 128.49 C 148.40 127.67 147.46 127.28 146.65 127.61 L 145.69 128.00 C 144.88 128.33 144.48 129.27 144.81 130.08 C 145.15 130.90 146.08 131.29 146.90 130.96 Z M 147.87 130.57 L 148.94 130.12 C 149.75 129.78 150.13 128.84 149.79 128.03 C 149.45 127.21 148.52 126.83 147.70 127.17 L 146.63 127.62 C 145.82 127.96 145.44 128.89 145.78 129.71 C 146.12 130.52 147.05 130.91 147.87 130.57 Z M 148.95 130.11 L 150.01 129.66 C 150.82 129.31 151.19 128.37 150.84 127.56 C 150.50 126.75 149.56 126.37 148.75 126.72 L 147.69 127.18 C 146.88 127.53 146.50 128.46 146.85 129.27 C 147.20 130.08 148.14 130.46 148.95 130.11 Z M 150.02 129.65 L 150.83 129.29 C 151.63 128.94 152.00 128.00 151.65 127.19 C 151.29 126.39 150.35 126.02 149.55 126.37 L 148.74 126.73 C 147.93 127.08 147.56 128.02 147.92 128.83 C 148.27 129.64 149.21 130.00 150.02 129.65 Z M 150.83 129.29 L 151.69 128.91 C 152.49 128.55 152.86 127.61 152.50 126.81 C 152.14 126.01 151.21 125.64 150.40 126.00 L 149.54 126.38 C 148.74 126.74 148.38 127.68 148.73 128.48 C 149.09 129.28 150.03 129.64 150.83 129.29 Z M 151.69 128.90 L 152.59 128.50 C 153.39 128.14 153.75 127.20 153.39 126.40 C 153.03 125.60 152.10 125.25 151.30 125.60 L 150.40 126.01 C 149.60 126.36 149.24 127.30 149.60 128.10 C 149.96 128.90 150.89 129.26 151.69 128.90 Z M 152.59 128.50 L 153.52 128.08 C 154.32 127.72 154.67 126.78 154.31 125.98 C 153.96 125.19 153.02 124.83 152.22 125.19 L 151.29 125.61 C 150.50 125.97 150.14 126.91 150.50 127.70 C 150.86 128.50 151.80 128.85 152.59 128.50 Z M 153.52 128.07 L 154.47 127.64 C 155.26 127.28 155.62 126.35 155.26 125.55 C 154.90 124.76 153.96 124.41 153.17 124.77 L 152.22 125.20 C 151.43 125.56 151.07 126.49 151.43 127.29 C 151.79 128.08 152.73 128.43 153.52 128.07 Z M 154.47 127.64 L 155.43 127.20 C 156.22 126.84 156.57 125.91 156.21 125.12 C 155.85 124.33 154.92 123.98 154.13 124.34 L 153.17 124.77 C 152.38 125.13 152.02 126.07 152.38 126.86 C 152.74 127.65 153.68 128.00 154.47 127.64 Z M 155.43 127.20 L 156.39 126.76 C 157.18 126.40 157.53 125.47 157.17 124.68 C 156.81 123.89 155.88 123.54 155.09 123.90 L 154.13 124.34 C 153.34 124.70 152.99 125.63 153.35 126.42 C 153.71 127.21 154.64 127.56 155.43 127.20 Z M 156.39 126.76 L 157.34 126.32 C 158.13 125.96 158.48 125.03 158.12 124.25 C 157.76 123.46 156.83 123.11 156.04 123.47 L 155.09 123.91 C 154.30 124.27 153.95 125.20 154.31 125.98 C 154.67 126.77 155.60 127.12 156.39 126.76 Z M 157.34 126.32 L 158.32 125.87 C 159.10 125.51 159.45 124.59 159.09 123.80 C 158.73 123.02 157.81 122.67 157.02 123.03 L 156.04 123.48 C 155.26 123.83 154.91 124.76 155.27 125.54 C 155.63 126.33 156.56 126.68 157.34 126.32 Z M 158.31 125.86 L 159.34 125.40 C 160.12 125.04 160.46 124.12 160.10 123.34 C 159.75 122.56 158.83 122.22 158.05 122.57 L 157.03 123.04 C 156.25 123.39 155.90 124.31 156.26 125.09 C 156.61 125.87 157.53 126.22 158.31 125.86 Z M 159.33 125.39 L 160.32 124.93 C 161.10 124.58 161.44 123.67 161.09 122.90 C 160.73 122.12 159.82 121.78 159.05 122.13 L 158.05 122.58 C 157.28 122.93 156.94 123.85 157.29 124.62 C 157.64 125.40 158.55 125.74 159.33 125.39 Z M 160.31 124.93 L 161.27 124.49 C 162.04 124.14 162.38 123.24 162.04 122.47 C 161.69 121.70 160.78 121.36 160.02 121.71 L 159.05 122.14 C 158.29 122.49 157.94 123.39 158.29 124.16 C 158.64 124.93 159.54 125.27 160.31 124.93 Z M 161.26 124.48 L 162.19 124.07 C 162.96 123.72 163.30 122.83 162.95 122.06 C 162.61 121.30 161.71 120.96 160.95 121.30 L 160.02 121.71 C 159.26 122.06 158.92 122.95 159.26 123.72 C 159.60 124.48 160.50 124.82 161.26 124.48 Z M 162.18 124.06 L 163.07 123.66 C 163.83 123.33 164.17 122.44 163.84 121.68 C 163.50 120.92 162.61 120.58 161.85 120.91 L 160.96 121.31 C 160.20 121.64 159.86 122.53 160.20 123.29 C 160.53 124.05 161.42 124.40 162.18 124.06 Z M 163.06 123.66 L 163.91 123.29 C 164.66 122.96 165.01 122.08 164.68 121.32 C 164.35 120.57 163.47 120.22 162.71 120.55 L 161.86 120.92 C 161.11 121.25 160.76 122.13 161.09 122.89 C 161.42 123.64 162.30 123.99 163.06 123.66 Z M 163.89 123.28 L 164.70 122.93 C 165.45 122.61 165.80 121.74 165.48 120.99 C 165.16 120.24 164.29 119.89 163.54 120.21 L 162.73 120.56 C 161.98 120.88 161.63 121.75 161.95 122.50 C 162.27 123.25 163.14 123.60 163.89 123.28 Z M 164.68 122.93 L 165.56 122.57 C 166.31 122.26 166.66 121.40 166.35 120.65 C 166.04 119.90 165.18 119.54 164.43 119.85 L 163.56 120.22 C 162.81 120.53 162.45 121.39 162.76 122.14 C 163.07 122.88 163.93 123.24 164.68 122.93 Z M 165.53 122.57 L 166.58 122.15 C 167.32 121.86 167.69 121.01 167.39 120.26 C 167.10 119.51 166.25 119.14 165.50 119.44 L 164.45 119.85 C 163.70 120.15 163.34 121.00 163.64 121.75 C 163.93 122.50 164.78 122.87 165.53 122.57 Z M 166.55 122.15 L 167.52 121.79 C 168.27 121.50 168.65 120.66 168.36 119.91 C 168.08 119.16 167.24 118.79 166.49 119.07 L 165.52 119.44 C 164.77 119.72 164.39 120.56 164.68 121.31 C 164.96 122.06 165.80 122.44 166.55 122.15 Z M 167.50 121.79 L 168.41 121.46 C 169.16 121.18 169.55 120.35 169.28 119.60 C 169.00 118.85 168.17 118.47 167.42 118.74 L 166.51 119.07 C 165.76 119.34 165.37 120.17 165.65 120.92 C 165.92 121.67 166.75 122.06 167.50 121.79 Z M 168.39 121.46 L 169.27 121.15 C 170.02 120.88 170.41 120.06 170.15 119.31 C 169.89 118.56 169.06 118.17 168.31 118.43 L 167.44 118.74 C 166.69 119.00 166.30 119.82 166.56 120.57 C 166.82 121.32 167.64 121.72 168.39 121.46 Z M 169.26 121.14 L 170.11 120.85 C 170.86 120.59 171.26 119.78 171.00 119.03 C 170.74 118.28 169.93 117.89 169.18 118.14 L 168.32 118.44 C 167.58 118.69 167.18 119.51 167.44 120.26 C 167.69 121.00 168.51 121.40 169.26 121.14 Z M 170.11 120.85 L 170.24 120.80 C 170.98 120.55 171.38 119.74 171.12 118.99 C 170.87 118.24 170.05 117.85 169.31 118.10 L 169.18 118.15 C 168.44 118.40 168.04 119.21 168.29 119.96 C 168.55 120.71 169.36 121.10 170.11 120.85 Z"
      fill="black"
      fill-rule="nonzero" /><path d="M 128.64 152.80 L 127.23 152.80 C 126.36 152.79 125.65 153.50 125.65 154.37 C 125.64 155.23 126.34 155.94 127.21 155.95 L 128.62 155.95 C 129.49 155.96 130.20 155.25 130.20 154.38 C 130.21 153.52 129.51 152.81 128.64 152.80 Z M 127.28 152.77 L 126.19 152.73 C 125.30 152.69 124.56 153.38 124.52 154.27 C 124.49 155.15 125.18 155.90 126.06 155.93 L 127.16 155.97 C 128.04 156.01 128.79 155.32 128.82 154.43 C 128.86 153.55 128.17 152.81 127.28 152.77 Z M 126.51 152.75 L 126.04 152.63 C 125.17 152.42 124.28 152.95 124.07 153.83 C 123.86 154.70 124.39 155.58 125.27 155.80 L 125.74 155.91 C 126.61 156.13 127.49 155.59 127.71 154.72 C 127.92 153.84 127.39 152.96 126.51 152.75 Z M 126.50 155.63 L 126.83 155.43 C 127.61 154.97 127.86 153.96 127.40 153.18 C 126.93 152.40 125.92 152.14 125.14 152.60 L 124.81 152.80 C 124.03 153.27 123.77 154.28 124.24 155.06 C 124.70 155.84 125.71 156.09 126.50 155.63 Z M 126.46 155.60 L 127.38 155.32 C 128.26 155.06 128.75 154.14 128.49 153.27 C 128.23 152.39 127.31 151.90 126.44 152.16 L 125.51 152.44 C 124.64 152.70 124.14 153.62 124.40 154.49 C 124.66 155.37 125.58 155.86 126.46 155.60 Z M 127.34 155.34 L 128.62 155.00 C 129.51 154.76 130.03 153.85 129.80 152.97 C 129.56 152.09 128.65 151.56 127.77 151.80 L 126.48 152.14 C 125.60 152.38 125.07 153.29 125.31 154.17 C 125.55 155.05 126.45 155.58 127.34 155.34 Z M 128.64 155.00 L 129.82 154.67 C 130.70 154.42 131.22 153.51 130.98 152.63 C 130.73 151.74 129.82 151.23 128.93 151.47 L 127.75 151.80 C 126.87 152.04 126.35 152.96 126.60 153.84 C 126.84 154.72 127.76 155.24 128.64 155.00 Z M 129.85 154.66 L 130.86 154.36 C 131.74 154.10 132.24 153.18 131.98 152.30 C 131.72 151.42 130.79 150.92 129.91 151.18 L 128.91 151.48 C 128.03 151.74 127.52 152.66 127.79 153.54 C 128.05 154.42 128.97 154.92 129.85 154.66 Z M 130.88 154.36 L 131.86 154.06 C 132.74 153.79 133.23 152.85 132.96 151.98 C 132.69 151.10 131.76 150.61 130.88 150.88 L 129.89 151.18 C 129.02 151.45 128.53 152.38 128.80 153.26 C 129.07 154.14 130.00 154.63 130.88 154.36 Z M 131.87 154.05 L 132.82 153.75 C 133.69 153.48 134.18 152.54 133.90 151.67 C 133.62 150.79 132.69 150.30 131.81 150.58 L 130.87 150.88 C 129.99 151.16 129.51 152.09 129.78 152.97 C 130.06 153.85 131.00 154.33 131.87 154.05 Z M 132.82 153.75 L 133.70 153.47 C 134.58 153.19 135.06 152.25 134.78 151.38 C 134.50 150.50 133.56 150.02 132.68 150.30 L 131.80 150.58 C 130.93 150.86 130.44 151.80 130.73 152.68 C 131.01 153.55 131.95 154.04 132.82 153.75 Z M 133.70 153.47 L 134.74 153.14 C 135.61 152.86 136.10 151.92 135.81 151.04 C 135.53 150.17 134.59 149.68 133.72 149.97 L 132.68 150.30 C 131.80 150.58 131.32 151.52 131.60 152.40 C 131.89 153.27 132.82 153.76 133.70 153.47 Z M 134.73 153.14 L 135.70 152.84 C 136.57 152.56 137.06 151.62 136.78 150.74 C 136.50 149.86 135.56 149.38 134.68 149.66 L 133.72 149.96 C 132.84 150.24 132.36 151.18 132.64 152.06 C 132.92 152.94 133.86 153.42 134.73 153.14 Z M 135.69 152.84 L 136.58 152.56 C 137.46 152.28 137.95 151.34 137.67 150.46 C 137.40 149.58 136.46 149.09 135.58 149.37 L 134.69 149.65 C 133.81 149.93 133.32 150.87 133.60 151.75 C 133.87 152.63 134.81 153.12 135.69 152.84 Z M 136.58 152.56 L 137.48 152.28 C 138.36 152.01 138.85 151.07 138.58 150.19 C 138.30 149.31 137.36 148.81 136.48 149.09 L 135.58 149.37 C 134.70 149.64 134.21 150.58 134.48 151.46 C 134.76 152.34 135.70 152.84 136.58 152.56 Z M 137.47 152.28 L 138.42 151.99 C 139.31 151.72 139.80 150.78 139.53 149.90 C 139.26 149.02 138.32 148.52 137.44 148.79 L 136.49 149.09 C 135.60 149.36 135.11 150.29 135.38 151.18 C 135.65 152.06 136.59 152.56 137.47 152.28 Z M 138.42 151.99 L 139.38 151.70 C 140.27 151.43 140.76 150.49 140.49 149.61 C 140.22 148.72 139.29 148.23 138.40 148.50 L 137.44 148.79 C 136.56 149.06 136.06 150.00 136.33 150.88 C 136.60 151.77 137.54 152.26 138.42 151.99 Z M 139.38 151.70 L 140.34 151.41 C 141.23 151.14 141.73 150.20 141.46 149.32 C 141.19 148.43 140.25 147.93 139.36 148.20 L 138.40 148.49 C 137.52 148.76 137.02 149.70 137.29 150.59 C 137.56 151.47 138.49 151.97 139.38 151.70 Z M 140.34 151.41 L 141.29 151.12 C 142.18 150.85 142.68 149.92 142.41 149.03 C 142.14 148.14 141.20 147.64 140.32 147.91 L 139.36 148.20 C 138.48 148.47 137.98 149.41 138.25 150.29 C 138.52 151.18 139.45 151.68 140.34 151.41 Z M 141.29 151.13 L 142.25 150.84 C 143.13 150.57 143.64 149.63 143.37 148.74 C 143.10 147.85 142.16 147.35 141.27 147.62 L 140.32 147.91 C 139.43 148.18 138.93 149.12 139.20 150.00 C 139.46 150.89 140.40 151.39 141.29 151.13 Z M 142.24 150.84 L 143.21 150.55 C 144.10 150.28 144.60 149.35 144.34 148.46 C 144.07 147.57 143.13 147.06 142.24 147.33 L 141.28 147.62 C 140.39 147.88 139.88 148.82 140.15 149.71 C 140.42 150.60 141.35 151.11 142.24 150.84 Z M 143.20 150.55 L 144.15 150.27 C 145.04 150.01 145.55 149.07 145.29 148.18 C 145.02 147.29 144.09 146.78 143.20 147.04 L 142.25 147.33 C 141.35 147.59 140.85 148.53 141.11 149.42 C 141.38 150.31 142.31 150.82 143.20 150.55 Z M 144.16 150.27 L 145.11 149.98 C 146.01 149.72 146.51 148.78 146.25 147.89 C 145.98 147.00 145.04 146.49 144.15 146.76 L 143.19 147.04 C 142.30 147.31 141.80 148.25 142.06 149.14 C 142.33 150.03 143.26 150.54 144.16 150.27 Z M 145.12 149.98 L 146.09 149.69 C 146.98 149.42 147.48 148.48 147.21 147.59 C 146.94 146.70 146.00 146.20 145.11 146.47 L 144.14 146.76 C 143.25 147.03 142.75 147.97 143.02 148.86 C 143.29 149.75 144.23 150.25 145.12 149.98 Z M 146.10 149.68 L 147.05 149.38 C 147.94 149.11 148.43 148.16 148.15 147.27 C 147.87 146.38 146.93 145.89 146.04 146.17 L 145.09 146.47 C 144.20 146.75 143.71 147.70 143.99 148.58 C 144.27 149.47 145.22 149.96 146.10 149.68 Z M 147.06 149.38 L 148.01 149.08 C 148.90 148.79 149.39 147.84 149.10 146.96 C 148.82 146.07 147.87 145.58 146.98 145.87 L 146.03 146.17 C 145.15 146.46 144.66 147.41 144.94 148.29 C 145.23 149.18 146.18 149.67 147.06 149.38 Z M 148.01 149.08 L 148.96 148.77 C 149.85 148.49 150.34 147.54 150.06 146.66 C 149.78 145.77 148.83 145.28 147.94 145.56 L 146.99 145.87 C 146.10 146.15 145.61 147.10 145.89 147.98 C 146.17 148.87 147.12 149.36 148.01 149.08 Z M 148.95 148.78 L 149.89 148.49 C 150.78 148.22 151.28 147.27 151.01 146.38 C 150.73 145.49 149.79 144.99 148.90 145.27 L 147.96 145.56 C 147.07 145.83 146.57 146.77 146.84 147.66 C 147.12 148.55 148.06 149.05 148.95 148.78 Z M 149.87 148.50 L 150.80 148.22 C 151.69 147.96 152.20 147.03 151.94 146.13 C 151.68 145.24 150.74 144.73 149.85 144.99 L 148.92 145.26 C 148.03 145.52 147.52 146.46 147.78 147.35 C 148.04 148.25 148.98 148.76 149.87 148.50 Z M 150.78 148.23 L 151.74 147.96 C 152.64 147.71 153.16 146.78 152.91 145.88 C 152.65 144.98 151.72 144.46 150.83 144.71 L 149.87 144.98 C 148.97 145.24 148.45 146.17 148.70 147.06 C 148.96 147.96 149.89 148.48 150.78 148.23 Z M 151.73 147.96 L 152.73 147.69 C 153.63 147.44 154.16 146.52 153.92 145.62 C 153.67 144.72 152.74 144.19 151.85 144.44 L 150.84 144.71 C 149.94 144.96 149.41 145.88 149.66 146.78 C 149.90 147.68 150.83 148.21 151.73 147.96 Z M 152.72 147.69 L 153.68 147.44 C 154.58 147.20 155.11 146.27 154.87 145.37 C 154.63 144.48 153.71 143.94 152.81 144.18 L 151.86 144.44 C 150.96 144.67 150.42 145.60 150.66 146.50 C 150.90 147.39 151.82 147.93 152.72 147.69 Z M 153.68 147.44 L 154.64 147.18 C 155.54 146.94 156.08 146.02 155.84 145.12 C 155.60 144.22 154.68 143.69 153.78 143.92 L 152.81 144.18 C 151.92 144.42 151.38 145.34 151.62 146.24 C 151.86 147.14 152.78 147.67 153.68 147.44 Z M 154.65 147.18 L 155.63 146.92 C 156.53 146.68 157.06 145.76 156.82 144.86 C 156.58 143.96 155.66 143.43 154.76 143.67 L 153.78 143.93 C 152.88 144.16 152.35 145.09 152.59 145.98 C 152.83 146.88 153.75 147.42 154.65 147.18 Z M 155.63 146.91 L 156.61 146.65 C 157.50 146.41 158.03 145.49 157.79 144.59 C 157.55 143.69 156.62 143.16 155.73 143.40 L 154.76 143.67 C 153.86 143.91 153.33 144.83 153.57 145.73 C 153.81 146.63 154.74 147.16 155.63 146.91 Z M 156.62 146.65 L 157.60 146.37 C 158.49 146.13 159.01 145.20 158.77 144.30 C 158.52 143.41 157.59 142.89 156.70 143.14 L 155.72 143.41 C 154.82 143.66 154.30 144.59 154.55 145.48 C 154.80 146.37 155.72 146.90 156.62 146.65 Z M 157.60 146.37 L 158.57 146.10 C 159.46 145.84 159.98 144.92 159.72 144.02 C 159.47 143.13 158.54 142.61 157.65 142.87 L 156.69 143.14 C 155.80 143.39 155.28 144.32 155.53 145.21 C 155.78 146.11 156.71 146.62 157.60 146.37 Z M 158.56 146.10 L 159.52 145.83 C 160.41 145.58 160.93 144.65 160.67 143.76 C 160.42 142.87 159.50 142.35 158.61 142.60 L 157.65 142.87 C 156.76 143.12 156.24 144.05 156.50 144.94 C 156.75 145.83 157.67 146.35 158.56 146.10 Z M 159.50 145.83 L 160.46 145.57 C 161.35 145.32 161.88 144.40 161.63 143.51 C 161.39 142.62 160.47 142.09 159.57 142.34 L 158.62 142.60 C 157.73 142.84 157.20 143.76 157.45 144.66 C 157.69 145.55 158.61 146.07 159.50 145.83 Z M 160.44 145.57 L 161.39 145.32 C 162.28 145.09 162.82 144.17 162.58 143.28 C 162.35 142.39 161.44 141.85 160.54 142.09 L 159.59 142.33 C 158.70 142.57 158.17 143.48 158.40 144.38 C 158.63 145.27 159.55 145.80 160.44 145.57 Z M 161.38 145.32 L 162.34 145.08 C 163.23 144.85 163.78 143.94 163.55 143.05 C 163.32 142.15 162.41 141.61 161.52 141.84 L 160.56 142.08 C 159.66 142.31 159.12 143.22 159.35 144.11 C 159.58 145.01 160.48 145.55 161.38 145.32 Z M 162.34 145.08 L 163.31 144.83 C 164.21 144.61 164.75 143.70 164.52 142.81 C 164.30 141.92 163.40 141.37 162.50 141.60 L 161.53 141.84 C 160.63 142.06 160.09 142.97 160.31 143.86 C 160.54 144.76 161.44 145.30 162.34 145.08 Z M 163.31 144.83 L 164.30 144.58 C 165.19 144.35 165.73 143.45 165.51 142.56 C 165.28 141.67 164.38 141.13 163.49 141.35 L 162.50 141.60 C 161.61 141.82 161.07 142.73 161.29 143.62 C 161.52 144.51 162.42 145.05 163.31 144.83 Z M 164.31 144.57 L 165.26 144.33 C 166.15 144.10 166.69 143.20 166.46 142.31 C 166.23 141.42 165.33 140.88 164.44 141.11 L 163.48 141.36 C 162.59 141.58 162.06 142.49 162.28 143.38 C 162.51 144.27 163.42 144.80 164.31 144.57 Z M 165.27 144.32 L 166.23 144.08 C 167.12 143.85 167.65 142.94 167.42 142.05 C 167.19 141.17 166.29 140.64 165.40 140.87 L 164.43 141.11 C 163.55 141.34 163.02 142.25 163.25 143.14 C 163.47 144.02 164.38 144.55 165.27 144.32 Z M 166.23 144.07 L 167.20 143.82 C 168.08 143.60 168.62 142.69 168.39 141.81 C 168.16 140.92 167.26 140.39 166.38 140.62 L 165.40 140.87 C 164.52 141.09 163.99 142.00 164.21 142.88 C 164.44 143.77 165.34 144.30 166.23 144.07 Z M 167.19 143.82 L 168.17 143.58 C 169.05 143.35 169.59 142.46 169.37 141.57 C 169.15 140.69 168.25 140.15 167.37 140.37 L 166.39 140.62 C 165.50 140.84 164.96 141.74 165.19 142.62 C 165.41 143.51 166.30 144.04 167.19 143.82 Z M 168.16 143.58 L 169.13 143.34 C 170.02 143.13 170.56 142.24 170.35 141.35 C 170.13 140.47 169.24 139.92 168.36 140.14 L 167.38 140.37 C 166.50 140.59 165.95 141.48 166.17 142.36 C 166.38 143.25 167.27 143.79 168.16 143.58 Z M 169.12 143.34 L 170.10 143.11 C 170.98 142.90 171.53 142.02 171.32 141.13 C 171.12 140.25 170.23 139.70 169.35 139.91 L 168.37 140.14 C 167.49 140.35 166.94 141.23 167.15 142.11 C 167.35 143.00 168.24 143.55 169.12 143.34 Z M 170.09 143.11 L 171.07 142.88 C 171.95 142.67 172.50 141.79 172.30 140.91 C 172.09 140.03 171.21 139.48 170.33 139.69 L 169.35 139.91 C 168.47 140.12 167.92 141.00 168.13 141.88 C 168.33 142.76 169.21 143.31 170.09 143.11 Z M 171.07 142.88 L 172.03 142.65 C 172.91 142.45 173.46 141.57 173.26 140.69 C 173.06 139.81 172.18 139.26 171.30 139.47 L 170.33 139.69 C 169.45 139.89 168.90 140.77 169.11 141.65 C 169.31 142.53 170.19 143.08 171.07 142.88 Z M 172.04 142.65 L 173.01 142.42 C 173.89 142.21 174.43 141.34 174.22 140.46 C 174.02 139.58 173.14 139.04 172.26 139.24 L 171.29 139.47 C 170.42 139.68 169.87 140.55 170.08 141.43 C 170.28 142.31 171.16 142.85 172.04 142.65 Z M 173.01 142.41 L 173.98 142.18 C 174.85 141.98 175.39 141.10 175.18 140.23 C 174.98 139.36 174.10 138.81 173.23 139.02 L 172.26 139.25 C 171.39 139.46 170.85 140.33 171.05 141.20 C 171.26 142.08 172.14 142.62 173.01 142.41 Z M 173.98 142.18 L 174.94 141.95 C 175.81 141.74 176.35 140.87 176.15 140.00 C 175.94 139.13 175.07 138.59 174.20 138.80 L 173.23 139.03 C 172.36 139.23 171.82 140.10 172.03 140.97 C 172.23 141.84 173.10 142.38 173.98 142.18 Z M 174.94 141.95 L 175.92 141.72 C 176.79 141.52 177.33 140.65 177.12 139.78 C 176.92 138.91 176.05 138.37 175.19 138.57 L 174.21 138.80 C 173.34 139.00 172.80 139.87 173.00 140.74 C 173.20 141.61 174.07 142.15 174.94 141.95 Z M 175.91 141.71 L 176.90 141.49 C 177.77 141.29 178.31 140.43 178.11 139.56 C 177.92 138.70 177.05 138.15 176.19 138.35 L 175.20 138.58 C 174.33 138.78 173.79 139.64 173.99 140.50 C 174.18 141.37 175.04 141.91 175.91 141.71 Z M 176.90 141.48 L 177.90 141.26 C 178.76 141.07 179.30 140.21 179.11 139.35 C 178.92 138.48 178.06 137.94 177.20 138.13 L 176.20 138.36 C 175.33 138.55 174.79 139.40 174.98 140.27 C 175.18 141.13 176.03 141.67 176.90 141.48 Z M 177.89 141.25 L 178.87 141.04 C 179.73 140.85 180.28 140.00 180.09 139.14 C 179.90 138.28 179.05 137.73 178.19 137.92 L 177.20 138.14 C 176.34 138.33 175.80 139.18 175.99 140.04 C 176.18 140.90 177.03 141.44 177.89 141.25 Z M 178.87 141.03 L 179.82 140.83 C 180.68 140.64 181.22 139.79 181.03 138.94 C 180.85 138.08 180.00 137.54 179.15 137.72 L 178.20 137.93 C 177.34 138.11 176.79 138.96 176.98 139.82 C 177.16 140.67 178.01 141.22 178.87 141.03 Z M 179.81 140.82 L 180.75 140.62 C 181.61 140.44 182.15 139.60 181.97 138.74 C 181.79 137.89 180.95 137.34 180.09 137.53 L 179.15 137.73 C 178.30 137.91 177.75 138.75 177.94 139.60 C 178.12 140.46 178.96 141.00 179.81 140.82 Z M 180.75 140.61 L 181.68 140.42 C 182.53 140.24 183.07 139.40 182.89 138.55 C 182.72 137.70 181.88 137.16 181.03 137.34 L 180.10 137.53 C 179.25 137.71 178.71 138.55 178.88 139.40 C 179.06 140.25 179.90 140.79 180.75 140.61 Z M 181.67 140.41 L 182.63 140.21 C 183.48 140.04 184.02 139.21 183.85 138.36 C 183.67 137.52 182.84 136.97 182.00 137.15 L 181.04 137.34 C 180.19 137.52 179.65 138.35 179.82 139.19 C 180.00 140.04 180.82 140.58 181.67 140.41 Z M 182.62 140.20 L 183.67 139.99 C 184.51 139.82 185.05 139.00 184.88 138.16 C 184.71 137.32 183.89 136.77 183.05 136.94 L 182.01 137.15 C 181.16 137.32 180.62 138.14 180.79 138.99 C 180.96 139.83 181.78 140.37 182.62 140.20 Z M 183.66 139.99 L 184.54 139.81 C 185.38 139.64 185.93 138.83 185.76 137.99 C 185.59 137.15 184.78 136.61 183.94 136.77 L 183.06 136.95 C 182.22 137.12 181.67 137.93 181.84 138.77 C 182.01 139.61 182.82 140.15 183.66 139.99 Z M 184.54 139.80 L 185.45 139.62 C 186.29 139.46 186.83 138.64 186.66 137.81 C 186.50 136.97 185.68 136.43 184.85 136.60 L 183.94 136.78 C 183.10 136.95 182.56 137.76 182.73 138.59 C 182.89 139.43 183.71 139.97 184.54 139.80 Z M 185.45 139.62 L 186.43 139.42 C 187.26 139.25 187.80 138.44 187.63 137.61 C 187.46 136.78 186.65 136.24 185.82 136.41 L 184.85 136.60 C 184.02 136.77 183.48 137.58 183.64 138.41 C 183.81 139.24 184.62 139.78 185.45 139.62 Z M 186.43 139.41 L 187.46 139.20 C 188.28 139.04 188.82 138.23 188.65 137.40 C 188.48 136.57 187.67 136.04 186.85 136.21 L 185.82 136.42 C 184.99 136.58 184.45 137.39 184.62 138.22 C 184.79 139.05 185.60 139.58 186.43 139.41 Z M 187.46 139.20 L 188.53 138.97 C 189.36 138.80 189.89 138.00 189.72 137.17 C 189.54 136.35 188.74 135.82 187.91 135.99 L 186.84 136.21 C 186.02 136.38 185.49 137.19 185.66 138.02 C 185.83 138.84 186.64 139.37 187.46 139.20 Z M 188.54 138.97 L 189.55 138.75 C 190.37 138.58 190.89 137.77 190.72 136.95 C 190.54 136.13 189.73 135.61 188.91 135.78 L 187.91 136.00 C 187.09 136.17 186.57 136.98 186.74 137.80 C 186.92 138.62 187.72 139.14 188.54 138.97 Z M 189.55 138.74 L 190.50 138.53 C 191.32 138.36 191.83 137.55 191.65 136.74 C 191.48 135.92 190.67 135.41 189.86 135.59 L 188.91 135.79 C 188.10 135.97 187.58 136.77 187.76 137.59 C 187.94 138.40 188.74 138.92 189.55 138.74 Z M 190.51 138.52 L 191.47 138.31 C 192.28 138.13 192.79 137.33 192.61 136.52 C 192.43 135.71 191.63 135.20 190.82 135.38 L 189.86 135.60 C 189.05 135.78 188.54 136.58 188.72 137.38 C 188.90 138.19 189.70 138.70 190.51 138.52 Z M 191.47 138.30 L 192.46 138.08 C 193.26 137.90 193.76 137.10 193.58 136.30 C 193.40 135.49 192.60 134.99 191.80 135.17 L 190.82 135.39 C 190.02 135.57 189.51 136.37 189.69 137.17 C 189.87 137.98 190.67 138.48 191.47 138.30 Z M 192.46 138.07 L 193.45 137.84 C 194.24 137.66 194.74 136.87 194.56 136.07 C 194.38 135.27 193.59 134.77 192.79 134.95 L 191.80 135.18 C 191.00 135.36 190.50 136.15 190.68 136.95 C 190.86 137.75 191.66 138.25 192.46 138.07 Z M 193.45 137.83 L 194.44 137.61 C 195.24 137.43 195.73 136.64 195.55 135.84 C 195.37 135.05 194.58 134.55 193.79 134.74 L 192.79 134.96 C 192.00 135.14 191.50 135.93 191.68 136.73 C 191.86 137.52 192.65 138.02 193.45 137.83 Z M 194.44 137.60 L 195.23 137.42 C 196.02 137.24 196.51 136.45 196.33 135.66 C 196.15 134.87 195.37 134.38 194.58 134.56 L 193.79 134.74 C 193.00 134.92 192.51 135.71 192.69 136.50 C 192.87 137.29 193.65 137.78 194.44 137.60 Z"
      fill="black"
      fill-rule="nonzero" /><path d="M 155.01 97.74 L 154.65 98.66 C 154.34 99.43 154.72 100.31 155.50 100.61 C 156.28 100.92 157.15 100.53 157.45 99.76 L 157.81 98.84 C 158.12 98.06 157.74 97.19 156.96 96.88 C 156.18 96.58 155.31 96.96 155.01 97.74 Z M 154.56 98.70 L 154.24 99.64 C 153.96 100.46 154.40 101.35 155.22 101.63 C 156.04 101.91 156.93 101.47 157.21 100.65 L 157.54 99.72 C 157.82 98.90 157.38 98.00 156.56 97.72 C 155.74 97.44 154.84 97.88 154.56 98.70 Z M 154.14 99.75 L 153.90 100.72 C 153.69 101.60 154.22 102.48 155.09 102.70 C 155.97 102.92 156.85 102.39 157.07 101.51 L 157.31 100.54 C 157.53 99.66 157.00 98.78 156.12 98.56 C 155.25 98.34 154.36 98.88 154.14 99.75 Z M 153.82 100.91 L 153.70 101.87 C 153.58 102.80 154.24 103.64 155.16 103.75 C 156.08 103.87 156.92 103.21 157.04 102.29 L 157.16 101.33 C 157.27 100.40 156.62 99.56 155.70 99.45 C 154.77 99.33 153.93 99.99 153.82 100.91 Z M 153.66 102.06 L 153.65 102.99 C 153.64 103.93 154.40 104.70 155.34 104.71 C 156.28 104.72 157.05 103.97 157.06 103.03 L 157.07 102.10 C 157.08 101.16 156.33 100.39 155.39 100.38 C 154.44 100.37 153.67 101.12 153.66 102.06 Z M 153.65 103.12 L 153.72 104.10 C 153.78 105.04 154.59 105.75 155.53 105.69 C 156.47 105.63 157.18 104.82 157.12 103.88 L 157.06 102.90 C 157.00 101.96 156.19 101.25 155.25 101.31 C 154.31 101.37 153.59 102.18 153.65 103.12 Z M 153.72 104.17 L 153.83 105.21 C 153.93 106.15 154.78 106.83 155.71 106.73 C 156.65 106.63 157.33 105.79 157.23 104.85 L 157.12 103.81 C 157.02 102.87 156.17 102.19 155.24 102.29 C 154.30 102.39 153.62 103.24 153.72 104.17 Z M 153.83 105.24 L 153.96 106.29 C 154.08 107.23 154.94 107.90 155.88 107.78 C 156.81 107.66 157.48 106.81 157.36 105.87 L 157.23 104.82 C 157.11 103.88 156.26 103.21 155.32 103.33 C 154.38 103.45 153.71 104.30 153.83 105.24 Z M 153.96 106.30 L 154.08 107.21 C 154.20 108.15 155.05 108.82 155.99 108.70 C 156.93 108.58 157.60 107.72 157.48 106.78 L 157.36 105.87 C 157.25 104.93 156.39 104.26 155.45 104.38 C 154.51 104.50 153.84 105.36 153.96 106.30 Z M 154.07 107.21 L 154.19 108.16 C 154.31 109.10 155.16 109.77 156.10 109.66 C 157.05 109.54 157.71 108.68 157.60 107.74 L 157.48 106.79 C 157.37 105.85 156.51 105.18 155.57 105.29 C 154.63 105.41 153.96 106.27 154.07 107.21 Z M 154.19 108.16 L 154.31 109.15 C 154.42 110.09 155.27 110.77 156.22 110.66 C 157.16 110.54 157.83 109.69 157.72 108.75 L 157.60 107.75 C 157.49 106.81 156.63 106.14 155.69 106.25 C 154.75 106.36 154.08 107.21 154.19 108.16 Z M 154.31 109.14 L 154.42 110.18 C 154.53 111.12 155.38 111.80 156.32 111.69 C 157.27 111.59 157.95 110.74 157.84 109.79 L 157.72 108.76 C 157.62 107.81 156.76 107.13 155.82 107.24 C 154.88 107.35 154.20 108.20 154.31 109.14 Z M 154.42 110.17 L 154.53 111.24 C 154.63 112.19 155.48 112.87 156.43 112.77 C 157.37 112.67 158.06 111.82 157.96 110.88 L 157.84 109.80 C 157.74 108.86 156.89 108.17 155.95 108.27 C 155.00 108.38 154.32 109.22 154.42 110.17 Z M 154.53 111.23 L 154.63 112.18 C 154.72 113.12 155.56 113.81 156.51 113.72 C 157.46 113.62 158.15 112.78 158.05 111.83 L 157.96 110.89 C 157.87 109.94 157.02 109.25 156.07 109.35 C 155.13 109.44 154.44 110.29 154.53 111.23 Z M 154.62 112.17 L 154.71 113.12 C 154.80 114.07 155.65 114.76 156.59 114.67 C 157.54 114.58 158.23 113.74 158.15 112.79 L 158.06 111.84 C 157.97 110.89 157.12 110.20 156.18 110.29 C 155.23 110.38 154.53 111.22 154.62 112.17 Z M 154.71 113.11 L 154.80 114.09 C 154.89 115.04 155.73 115.74 156.67 115.65 C 157.62 115.56 158.32 114.73 158.23 113.78 L 158.15 112.80 C 158.06 111.85 157.22 111.15 156.27 111.24 C 155.33 111.33 154.63 112.16 154.71 113.11 Z M 154.80 114.09 L 154.89 115.09 C 154.97 116.04 155.81 116.74 156.76 116.65 C 157.71 116.57 158.41 115.73 158.32 114.79 L 158.24 113.78 C 158.15 112.83 157.32 112.13 156.37 112.22 C 155.42 112.30 154.72 113.14 154.80 114.09 Z M 154.89 115.09 L 154.98 116.11 C 155.06 117.06 155.90 117.76 156.85 117.68 C 157.79 117.60 158.50 116.76 158.41 115.81 L 158.32 114.79 C 158.24 113.84 157.41 113.14 156.46 113.22 C 155.51 113.30 154.81 114.14 154.89 115.09 Z M 154.98 116.11 L 155.07 117.16 C 155.15 118.11 155.99 118.81 156.94 118.73 C 157.89 118.65 158.59 117.81 158.51 116.86 L 158.41 115.81 C 158.33 114.87 157.50 114.16 156.55 114.25 C 155.60 114.33 154.90 115.16 154.98 116.11 Z M 155.07 117.16 L 155.16 118.16 C 155.24 119.11 156.08 119.81 157.02 119.73 C 157.97 119.64 158.68 118.81 158.59 117.86 L 158.51 116.86 C 158.42 115.91 157.59 115.21 156.64 115.30 C 155.69 115.38 154.99 116.21 155.07 117.16 Z M 155.16 118.16 L 155.24 119.11 C 155.32 120.06 156.16 120.76 157.11 120.67 C 158.06 120.59 158.76 119.75 158.68 118.80 L 158.59 117.86 C 158.51 116.91 157.67 116.21 156.72 116.29 C 155.77 116.37 155.07 117.21 155.16 118.16 Z M 155.24 119.11 L 155.32 120.07 C 155.41 121.02 156.24 121.72 157.19 121.64 C 158.14 121.56 158.84 120.72 158.76 119.77 L 158.68 118.81 C 158.59 117.86 157.76 117.15 156.81 117.24 C 155.86 117.32 155.16 118.16 155.24 119.11 Z M 155.32 120.07 L 155.41 121.06 C 155.49 122.01 156.33 122.71 157.28 122.63 C 158.23 122.54 158.93 121.71 158.85 120.76 L 158.76 119.77 C 158.68 118.82 157.84 118.12 156.89 118.20 C 155.94 118.29 155.24 119.12 155.32 120.07 Z M 155.41 121.05 L 155.50 122.06 C 155.58 123.01 156.41 123.71 157.36 123.63 C 158.31 123.55 159.01 122.71 158.93 121.76 L 158.85 120.76 C 158.77 119.81 157.93 119.11 156.98 119.19 C 156.03 119.27 155.33 120.10 155.41 121.05 Z M 155.49 122.05 L 155.58 123.07 C 155.66 124.02 156.49 124.73 157.44 124.65 C 158.39 124.57 159.10 123.74 159.02 122.79 L 158.93 121.77 C 158.85 120.82 158.02 120.11 157.07 120.19 C 156.12 120.27 155.42 121.10 155.49 122.05 Z M 155.58 123.07 L 155.66 124.11 C 155.74 125.06 156.57 125.77 157.52 125.69 C 158.47 125.62 159.18 124.78 159.10 123.83 L 159.02 122.79 C 158.94 121.84 158.11 121.14 157.16 121.21 C 156.21 121.29 155.50 122.12 155.58 123.07 Z M 155.66 124.11 L 155.74 125.14 C 155.82 126.09 156.65 126.80 157.60 126.72 C 158.55 126.65 159.26 125.82 159.18 124.87 L 159.10 123.84 C 159.03 122.89 158.20 122.18 157.25 122.25 C 156.30 122.33 155.59 123.16 155.66 124.11 Z M 155.74 125.13 L 155.81 126.08 C 155.88 127.03 156.71 127.75 157.66 127.68 C 158.61 127.61 159.32 126.78 159.25 125.83 L 159.18 124.88 C 159.11 123.93 158.29 123.21 157.34 123.28 C 156.39 123.35 155.67 124.18 155.74 125.13 Z M 155.81 126.08 L 155.88 127.04 C 155.95 127.99 156.77 128.71 157.72 128.64 C 158.67 128.57 159.39 127.75 159.32 126.80 L 159.25 125.83 C 159.19 124.88 158.36 124.17 157.41 124.23 C 156.46 124.30 155.74 125.13 155.81 126.08 Z M 155.88 127.04 L 155.95 128.02 C 156.01 128.97 156.83 129.69 157.78 129.62 C 158.73 129.56 159.45 128.74 159.39 127.78 L 159.32 126.81 C 159.26 125.85 158.44 125.13 157.49 125.20 C 156.54 125.26 155.82 126.08 155.88 127.04 Z M 155.94 128.01 L 156.01 129.00 C 156.07 129.95 156.89 130.68 157.84 130.62 C 158.79 130.56 159.51 129.74 159.45 128.78 L 159.39 127.79 C 159.33 126.84 158.51 126.12 157.56 126.18 C 156.61 126.24 155.88 127.06 155.94 128.01 Z M 156.01 129.00 L 156.07 130.00 C 156.12 130.95 156.94 131.68 157.89 131.62 C 158.84 131.57 159.57 130.75 159.51 129.80 L 159.45 128.79 C 159.40 127.84 158.58 127.11 157.63 127.17 C 156.68 127.23 155.95 128.05 156.01 129.00 Z M 156.07 130.00 L 156.12 131.02 C 156.18 131.97 156.99 132.70 157.94 132.64 C 158.89 132.59 159.62 131.78 159.57 130.82 L 159.51 129.80 C 159.46 128.85 158.64 128.13 157.69 128.18 C 156.74 128.23 156.01 129.05 156.07 130.00 Z M 156.12 131.01 L 156.18 132.04 C 156.23 132.99 157.04 133.73 157.99 133.68 C 158.94 133.63 159.67 132.82 159.62 131.86 L 159.57 130.83 C 159.52 129.88 158.71 129.15 157.76 129.20 C 156.81 129.25 156.07 130.06 156.12 131.01 Z M 156.18 132.04 L 156.23 133.08 C 156.27 134.03 157.08 134.77 158.03 134.72 C 158.98 134.67 159.72 133.87 159.67 132.92 L 159.62 131.87 C 159.58 130.92 158.77 130.18 157.82 130.23 C 156.87 130.28 156.13 131.08 156.18 132.04 Z M 156.23 133.07 L 156.27 134.04 C 156.31 134.99 157.12 135.73 158.07 135.68 C 159.02 135.64 159.76 134.84 159.72 133.89 L 159.67 132.92 C 159.63 131.97 158.83 131.23 157.87 131.27 C 156.92 131.32 156.19 132.12 156.23 133.07 Z M 156.27 134.03 L 156.31 135.00 C 156.35 135.95 157.15 136.69 158.10 136.65 C 159.05 136.61 159.79 135.81 159.75 134.86 L 159.72 133.89 C 159.68 132.94 158.87 132.20 157.92 132.24 C 156.97 132.28 156.23 133.08 156.27 134.03 Z M 156.31 134.99 L 156.34 135.97 C 156.38 136.92 157.18 137.66 158.13 137.62 C 159.08 137.59 159.83 136.79 159.79 135.84 L 159.75 134.86 C 159.72 133.91 158.92 133.17 157.97 133.20 C 157.02 133.24 156.27 134.04 156.31 134.99 Z M 156.34 135.96 L 156.38 136.95 C 156.41 137.90 157.21 138.64 158.16 138.61 C 159.11 138.58 159.86 137.78 159.82 136.83 L 159.79 135.84 C 159.76 134.89 158.96 134.15 158.01 134.18 C 157.06 134.21 156.31 135.01 156.34 135.96 Z M 156.38 136.94 L 156.41 137.94 C 156.44 138.89 157.23 139.64 158.19 139.61 C 159.14 139.58 159.89 138.78 159.86 137.83 L 159.82 136.83 C 159.80 135.88 159.00 135.13 158.05 135.16 C 157.10 135.19 156.35 135.99 156.38 136.94 Z M 156.41 137.93 L 156.44 138.94 C 156.46 139.89 157.26 140.64 158.21 140.62 C 159.16 140.59 159.91 139.79 159.88 138.84 L 159.86 137.83 C 159.83 136.88 159.04 136.13 158.08 136.16 C 157.13 136.19 156.38 136.98 156.41 137.93 Z M 156.44 138.94 L 156.46 139.96 C 156.49 140.91 157.28 141.66 158.23 141.63 C 159.18 141.61 159.94 140.82 159.91 139.87 L 159.88 138.85 C 159.86 137.89 159.07 137.14 158.12 137.17 C 157.16 137.19 156.41 137.98 156.44 138.94 Z M 156.46 139.95 L 156.49 140.98 C 156.51 141.93 157.30 142.69 158.25 142.67 C 159.21 142.64 159.96 141.85 159.94 140.90 L 159.91 139.87 C 159.89 138.92 159.10 138.16 158.15 138.19 C 157.19 138.21 156.44 139.00 156.46 139.95 Z M 156.49 140.98 L 156.51 142.02 C 156.53 142.97 157.32 143.73 158.27 143.71 C 159.23 143.69 159.98 142.90 159.96 141.95 L 159.94 140.90 C 159.92 139.95 159.13 139.20 158.17 139.22 C 157.22 139.24 156.47 140.03 156.49 140.98 Z M 156.51 142.02 L 156.53 143.02 C 156.55 143.98 157.34 144.73 158.29 144.71 C 159.24 144.69 160.00 143.91 159.98 142.95 L 159.96 141.95 C 159.94 141.00 159.15 140.24 158.20 140.26 C 157.25 140.28 156.49 141.07 156.51 142.02 Z M 156.53 143.02 L 156.55 144.02 C 156.57 144.97 157.35 145.73 158.31 145.71 C 159.26 145.69 160.02 144.90 160.00 143.95 L 159.98 142.96 C 159.96 142.00 159.18 141.24 158.22 141.26 C 157.27 141.28 156.51 142.07 156.53 143.02 Z M 156.55 144.01 L 156.56 145.02 C 156.58 145.97 157.37 146.73 158.32 146.71 C 159.27 146.70 160.03 145.91 160.02 144.96 L 160.00 143.95 C 159.98 143.00 159.20 142.24 158.24 142.26 C 157.29 142.27 156.53 143.06 156.55 144.01 Z M 156.56 145.01 L 156.58 146.02 C 156.59 146.97 157.38 147.74 158.33 147.72 C 159.29 147.71 160.05 146.92 160.03 145.97 L 160.02 144.96 C 160.00 144.01 159.22 143.24 158.26 143.26 C 157.31 143.27 156.55 144.06 156.56 145.01 Z M 156.58 146.02 L 156.59 147.03 C 156.61 147.98 157.39 148.74 158.35 148.73 C 159.30 148.72 160.06 147.93 160.05 146.98 L 160.03 145.97 C 160.02 145.01 159.24 144.25 158.28 144.27 C 157.33 144.28 156.56 145.06 156.58 146.02 Z M 156.59 147.03 L 156.61 148.03 C 156.62 148.99 157.40 149.75 158.36 149.74 C 159.31 149.73 160.08 148.94 160.06 147.99 L 160.05 146.98 C 160.04 146.03 159.25 145.26 158.30 145.27 C 157.34 145.29 156.58 146.07 156.59 147.03 Z M 156.60 148.03 L 156.62 149.04 C 156.63 149.99 157.41 150.76 158.37 150.75 C 159.32 150.74 160.09 149.95 160.08 149.00 L 160.06 147.99 C 160.05 147.04 159.27 146.27 158.31 146.28 C 157.36 146.29 156.59 147.08 156.60 148.03 Z M 156.62 149.04 L 156.63 150.04 C 156.64 150.99 157.42 151.76 158.37 151.75 C 159.33 151.74 160.10 150.96 160.09 150.00 L 160.08 149.00 C 160.07 148.04 159.28 147.28 158.33 147.29 C 157.37 147.30 156.61 148.08 156.62 149.04 Z M 156.62 150.04 L 156.63 151.03 C 156.64 151.99 157.42 152.75 158.38 152.74 C 159.34 152.74 160.10 151.95 160.10 151.00 L 160.09 150.00 C 160.08 149.05 159.30 148.28 158.34 148.29 C 157.38 148.30 156.62 149.08 156.62 150.04 Z M 156.63 151.03 L 156.64 152.01 C 156.65 152.97 157.43 153.74 158.39 153.73 C 159.34 153.72 160.11 152.94 160.10 151.98 L 160.10 151.00 C 160.09 150.04 159.31 149.27 158.35 149.28 C 157.39 149.29 156.63 150.07 156.63 151.03 Z M 156.64 152.01 L 156.65 153.04 C 156.65 154.00 157.43 154.77 158.39 154.77 C 159.35 154.76 160.12 153.98 160.11 153.02 L 160.11 151.99 C 160.10 151.03 159.32 150.26 158.36 150.26 C 157.40 150.27 156.63 151.05 156.64 152.01 Z M 156.64 153.04 L 156.65 154.07 C 156.65 155.03 157.43 155.80 158.39 155.79 C 159.35 155.79 160.12 155.01 160.12 154.05 L 160.11 153.02 C 160.11 152.07 159.33 151.29 158.37 151.30 C 157.41 151.30 156.64 152.08 156.64 153.04 Z M 156.65 154.07 L 156.65 155.08 C 156.66 156.04 157.44 156.81 158.39 156.81 C 159.35 156.81 160.13 156.03 160.12 155.07 L 160.12 154.05 C 160.11 153.09 159.34 152.32 158.38 152.32 C 157.42 152.33 156.65 153.11 156.65 154.07 Z M 156.65 155.08 L 156.66 156.08 C 156.66 157.04 157.44 157.82 158.40 157.82 C 159.35 157.81 160.13 157.03 160.13 156.08 L 160.12 155.07 C 160.12 154.11 159.34 153.34 158.38 153.34 C 157.42 153.34 156.65 154.12 156.65 155.08 Z M 156.65 156.08 L 156.66 157.08 C 156.66 158.04 157.44 158.81 158.40 158.81 C 159.35 158.81 160.13 158.03 160.13 157.07 L 160.13 156.08 C 160.12 155.12 159.35 154.34 158.39 154.34 C 157.43 154.35 156.65 155.12 156.65 156.08 Z M 156.66 157.08 L 156.66 158.07 C 156.66 159.03 157.44 159.80 158.40 159.80 C 159.36 159.80 160.13 159.02 160.13 158.06 L 160.13 157.07 C 160.13 156.11 159.35 155.34 158.39 155.34 C 157.43 155.34 156.65 156.12 156.66 157.08 Z M 156.66 158.07 L 156.66 159.05 C 156.66 160.01 157.44 160.79 158.40 160.79 C 159.36 160.79 160.13 160.01 160.13 159.05 L 160.13 158.06 C 160.13 157.10 159.35 156.33 158.39 156.33 C 157.43 156.33 156.66 157.11 156.66 158.07 Z M 156.66 159.05 L 156.66 160.03 C 156.66 160.99 157.43 161.77 158.40 161.77 C 159.36 161.77 160.13 160.99 160.13 160.03 L 160.13 159.05 C 160.13 158.09 159.35 157.31 158.39 157.31 C 157.43 157.31 156.66 158.09 156.66 159.05 Z M 156.66 160.03 L 156.66 161.00 C 156.66 161.96 157.43 162.74 158.39 162.74 C 159.36 162.74 160.13 161.96 160.13 161.00 L 160.13 160.03 C 160.13 159.07 159.36 158.29 158.39 158.29 C 157.43 158.29 156.66 159.07 156.66 160.03 Z M 156.65 161.00 L 156.65 162.01 C 156.65 162.97 157.43 163.75 158.39 163.75 C 159.36 163.75 160.13 162.97 160.13 162.01 L 160.13 161.00 C 160.13 160.04 159.36 159.26 158.39 159.26 C 157.43 159.26 156.65 160.04 156.65 161.00 Z M 156.65 162.01 L 156.65 163.02 C 156.65 163.98 157.43 164.76 158.39 164.76 C 159.35 164.76 160.13 163.99 160.13 163.02 L 160.13 162.01 C 160.14 161.05 159.36 160.27 158.40 160.27 C 157.43 160.27 156.66 161.05 156.65 162.01 Z M 156.65 163.02 L 156.65 164.03 C 156.65 164.99 157.43 165.77 158.39 165.77 C 159.35 165.78 160.13 165.00 160.13 164.04 L 160.13 163.03 C 160.14 162.07 159.36 161.29 158.40 161.28 C 157.44 161.28 156.66 162.06 156.65 163.02 Z M 156.65 164.03 L 156.65 165.04 C 156.64 166.00 157.42 166.78 158.38 166.78 C 159.34 166.79 160.12 166.01 160.13 165.05 L 160.13 164.04 C 160.14 163.08 159.36 162.30 158.40 162.29 C 157.44 162.29 156.66 163.07 156.65 164.03 Z M 156.65 165.03 L 156.64 166.03 C 156.63 166.99 157.41 167.78 158.37 167.79 C 159.33 167.79 160.11 167.02 160.12 166.06 L 160.13 165.05 C 160.13 164.09 159.36 163.31 158.40 163.30 C 157.44 163.30 156.65 164.07 156.65 165.03 Z M 156.64 166.03 L 156.63 167.02 C 156.62 167.99 157.39 168.77 158.35 168.78 C 159.31 168.79 160.10 168.02 160.11 167.06 L 160.12 166.06 C 160.13 165.10 159.36 164.32 158.40 164.31 C 157.44 164.29 156.65 165.07 156.64 166.03 Z M 156.63 167.02 L 156.61 168.01 C 156.60 168.97 157.37 169.76 158.33 169.77 C 159.29 169.79 160.08 169.02 160.09 168.06 L 160.11 167.07 C 160.12 166.11 159.36 165.32 158.40 165.30 C 157.44 165.29 156.64 166.06 156.63 167.02 Z M 156.61 168.00 L 156.59 168.98 C 156.57 169.94 157.34 170.74 158.30 170.76 C 159.26 170.78 160.05 170.02 160.07 169.06 L 160.09 168.07 C 160.11 167.11 159.35 166.31 158.39 166.29 C 157.43 166.27 156.63 167.04 156.61 168.00 Z M 156.59 168.97 L 156.57 169.95 C 156.54 170.91 157.30 171.71 158.26 171.74 C 159.22 171.76 160.02 171.00 160.05 170.04 L 160.07 169.07 C 160.10 168.11 159.34 167.31 158.38 167.28 C 157.42 167.25 156.62 168.01 156.59 168.97 Z M 156.57 169.93 L 156.53 170.97 C 156.50 171.93 157.25 172.74 158.21 172.77 C 159.17 172.80 159.98 172.05 160.01 171.09 L 160.05 170.06 C 160.08 169.10 159.33 168.29 158.37 168.26 C 157.41 168.22 156.60 168.97 156.57 169.93 Z M 156.53 170.96 L 156.49 171.98 C 156.45 172.94 157.19 173.76 158.15 173.80 C 159.11 173.84 159.93 173.09 159.97 172.13 L 160.01 171.10 C 160.05 170.14 159.30 169.33 158.34 169.29 C 157.38 169.25 156.57 170.00 156.53 170.96 Z M 156.49 171.97 L 156.44 172.99 C 156.39 173.95 157.13 174.76 158.09 174.81 C 159.05 174.86 159.87 174.12 159.92 173.16 L 159.97 172.14 C 160.01 171.18 159.27 170.37 158.31 170.32 C 157.35 170.27 156.54 171.01 156.49 171.97 Z M 156.44 172.98 L 156.39 173.98 C 156.33 174.94 157.07 175.76 158.03 175.82 C 158.99 175.87 159.81 175.13 159.86 174.17 L 159.92 173.17 C 159.97 172.21 159.23 171.39 158.27 171.34 C 157.31 171.28 156.49 172.02 156.44 172.98 Z M 156.39 173.97 L 156.33 174.97 C 156.27 175.93 157.00 176.75 157.96 176.81 C 158.92 176.87 159.74 176.14 159.80 175.18 L 159.86 174.18 C 159.92 173.23 159.19 172.40 158.23 172.34 C 157.27 172.28 156.44 173.01 156.39 173.97 Z M 156.33 174.96 L 156.26 175.94 C 156.20 176.90 156.93 177.73 157.88 177.79 C 158.84 177.86 159.67 177.13 159.73 176.17 L 159.80 175.19 C 159.86 174.23 159.14 173.40 158.18 173.34 C 157.22 173.27 156.39 174.00 156.33 174.96 Z M 156.26 175.94 L 156.19 176.91 C 156.13 177.87 156.85 178.70 157.81 178.77 C 158.77 178.83 159.60 178.11 159.66 177.15 L 159.73 176.18 C 159.80 175.22 159.08 174.39 158.12 174.32 C 157.16 174.26 156.33 174.98 156.26 175.94 Z M 156.20 176.90 L 156.12 177.86 C 156.05 178.82 156.77 179.65 157.73 179.73 C 158.69 179.80 159.52 179.08 159.59 178.12 L 159.66 177.16 C 159.74 176.20 159.02 175.37 158.06 175.30 C 157.10 175.22 156.27 175.94 156.20 176.90 Z M 156.13 177.86 L 156.05 178.89 C 155.97 179.85 156.69 180.68 157.65 180.76 C 158.60 180.83 159.44 180.11 159.51 179.16 L 159.59 178.12 C 159.67 177.17 158.95 176.33 157.99 176.26 C 157.04 176.18 156.20 176.90 156.13 177.86 Z M 156.05 178.88 L 155.96 179.92 C 155.89 180.88 156.60 181.72 157.56 181.79 C 158.51 181.87 159.35 181.16 159.43 180.20 L 159.51 179.16 C 159.59 178.21 158.87 177.37 157.92 177.29 C 156.96 177.22 156.12 177.93 156.05 178.88 Z M 155.97 179.92 L 155.88 180.94 C 155.80 181.90 156.51 182.74 157.47 182.82 C 158.42 182.89 159.26 182.18 159.34 181.23 L 159.43 180.21 C 159.50 179.25 158.79 178.41 157.84 178.33 C 156.88 178.25 156.04 178.96 155.97 179.92 Z M 155.88 180.94 L 155.80 181.95 C 155.72 182.90 156.43 183.74 157.38 183.82 C 158.33 183.90 159.17 183.19 159.25 182.24 L 159.34 181.23 C 159.42 180.28 158.71 179.44 157.76 179.36 C 156.80 179.28 155.96 179.99 155.88 180.94 Z M 155.80 181.94 L 155.71 182.93 C 155.63 183.88 156.34 184.72 157.29 184.81 C 158.24 184.89 159.08 184.18 159.17 183.23 L 159.25 182.24 C 159.33 181.29 158.63 180.45 157.67 180.37 C 156.72 180.28 155.88 180.99 155.80 181.94 Z M 155.72 182.93 L 155.63 183.90 C 155.55 184.85 156.25 185.69 157.21 185.77 C 158.16 185.85 159.00 185.15 159.08 184.20 L 159.16 183.23 C 159.25 182.28 158.54 181.44 157.59 181.36 C 156.64 181.27 155.80 181.98 155.72 182.93 Z M 155.63 183.90 L 155.55 184.84 C 155.47 185.80 156.17 186.63 157.12 186.72 C 158.07 186.80 158.91 186.10 159.00 185.15 L 159.08 184.20 C 159.16 183.25 158.46 182.41 157.51 182.32 C 156.56 182.24 155.72 182.95 155.63 183.90 Z M 155.55 184.84 L 155.47 185.83 C 155.38 186.78 156.09 187.62 157.04 187.70 C 157.99 187.78 158.83 187.08 158.91 186.13 L 158.99 185.15 C 159.08 184.20 158.37 183.36 157.42 183.27 C 156.47 183.19 155.64 183.89 155.55 184.84 Z M 155.47 185.83 L 155.38 186.87 C 155.30 187.82 156.00 188.65 156.95 188.73 C 157.90 188.82 158.73 188.11 158.82 187.16 L 158.91 186.13 C 158.99 185.18 158.29 184.34 157.34 184.26 C 156.39 184.18 155.55 184.88 155.47 185.83 Z M 155.38 186.87 L 155.29 187.88 C 155.21 188.83 155.91 189.66 156.86 189.75 C 157.81 189.83 158.64 189.13 158.73 188.18 L 158.81 187.16 C 158.90 186.22 158.19 185.38 157.25 185.30 C 156.30 185.22 155.46 185.92 155.38 186.87 Z M 155.29 187.88 L 155.21 188.88 C 155.13 189.82 155.83 190.66 156.78 190.74 C 157.72 190.82 158.56 190.12 158.64 189.17 L 158.72 188.18 C 158.81 187.23 158.10 186.40 157.16 186.31 C 156.21 186.23 155.38 186.93 155.29 187.88 Z M 155.21 188.88 L 155.13 189.86 C 155.05 190.80 155.75 191.63 156.69 191.72 C 157.64 191.80 158.47 191.10 158.55 190.15 L 158.64 189.17 C 158.72 188.22 158.02 187.39 157.07 187.31 C 156.13 187.23 155.29 187.93 155.21 188.88 Z M 155.13 189.86 L 155.05 190.82 C 154.97 191.77 155.67 192.60 156.61 192.68 C 157.56 192.76 158.39 192.06 158.47 191.12 L 158.55 190.15 C 158.63 189.20 157.93 188.37 156.99 188.29 C 156.04 188.21 155.21 188.91 155.13 189.86 Z M 155.05 190.82 L 154.97 191.79 C 154.88 192.73 155.58 193.56 156.53 193.64 C 157.47 193.72 158.30 193.02 158.38 192.08 L 158.47 191.12 C 158.55 190.17 157.85 189.34 156.90 189.26 C 155.96 189.18 155.13 189.88 155.05 190.82 Z M 154.97 191.79 L 154.88 192.86 C 154.80 193.80 155.49 194.63 156.44 194.71 C 157.38 194.80 158.21 194.10 158.29 193.16 L 158.38 192.08 C 158.46 191.14 157.76 190.31 156.82 190.23 C 155.88 190.15 155.05 190.84 154.97 191.79 Z M 154.88 192.86 L 154.79 193.92 C 154.71 194.86 155.41 195.69 156.35 195.77 C 157.29 195.85 158.11 195.15 158.19 194.21 L 158.28 193.15 C 158.36 192.21 157.67 191.39 156.73 191.31 C 155.79 191.23 154.96 191.92 154.88 192.86 Z M 154.79 193.93 L 154.71 194.96 C 154.63 195.89 155.32 196.72 156.26 196.80 C 157.20 196.87 158.02 196.18 158.10 195.24 L 158.19 194.21 C 158.27 193.27 157.57 192.45 156.63 192.37 C 155.70 192.29 154.87 192.99 154.79 193.93 Z M 154.71 194.96 L 154.63 195.94 C 154.55 196.88 155.25 197.70 156.19 197.78 C 157.12 197.85 157.94 197.15 158.02 196.22 L 158.10 195.23 C 158.18 194.30 157.48 193.48 156.54 193.40 C 155.61 193.33 154.79 194.02 154.71 194.96 Z M 154.63 195.95 L 154.56 196.87 C 154.49 197.81 155.19 198.62 156.12 198.70 C 157.06 198.77 157.87 198.07 157.95 197.13 L 158.02 196.21 C 158.09 195.28 157.39 194.46 156.46 194.39 C 155.52 194.32 154.71 195.02 154.63 195.95 Z M 154.57 196.89 L 154.50 197.81 C 154.44 198.74 155.14 199.55 156.07 199.61 C 157.00 199.68 157.81 198.98 157.88 198.05 L 157.94 197.12 C 158.01 196.19 157.31 195.38 156.37 195.32 C 155.44 195.25 154.63 195.95 154.57 196.89 Z M 154.51 197.83 L 154.45 198.81 C 154.39 199.74 155.10 200.53 156.03 200.59 C 156.96 200.65 157.76 199.94 157.81 199.01 L 157.87 198.03 C 157.93 197.10 157.22 196.30 156.29 196.24 C 155.36 196.19 154.56 196.90 154.51 197.83 Z M 154.46 198.83 L 154.41 199.77 C 154.37 200.70 155.09 201.48 156.01 201.52 C 156.94 201.56 157.72 200.85 157.76 199.92 L 157.81 198.98 C 157.85 198.06 157.13 197.27 156.21 197.23 C 155.28 197.19 154.50 197.91 154.46 198.83 Z M 154.42 199.80 L 154.39 200.77 C 154.36 201.69 155.09 202.46 156.01 202.48 C 156.93 202.51 157.70 201.79 157.72 200.87 L 157.75 199.90 C 157.78 198.98 157.06 198.21 156.14 198.18 C 155.22 198.15 154.45 198.88 154.42 199.80 Z M 154.40 200.79 L 154.38 201.85 C 154.36 202.77 155.09 203.53 156.01 203.54 C 156.92 203.56 157.68 202.83 157.70 201.91 L 157.72 200.85 C 157.73 199.93 157.00 199.18 156.09 199.16 C 155.17 199.14 154.42 199.87 154.40 200.79 Z M 154.39 201.87 L 154.38 202.76 C 154.37 203.67 155.10 204.42 156.01 204.43 C 156.92 204.44 157.67 203.71 157.68 202.80 L 157.69 201.90 C 157.70 200.99 156.97 200.24 156.06 200.23 C 155.14 200.22 154.40 200.95 154.39 201.87 Z M 154.38 202.77 L 154.38 203.69 C 154.37 204.60 155.10 205.34 156.01 205.34 C 156.92 205.35 157.66 204.62 157.66 203.71 L 157.67 202.79 C 157.68 201.89 156.95 201.15 156.04 201.14 C 155.13 201.13 154.39 201.86 154.38 202.77 Z M 154.39 203.69 L 154.38 204.67 C 154.38 205.58 155.11 206.31 156.01 206.32 C 156.91 206.32 157.65 205.59 157.65 204.69 L 157.66 203.71 C 157.66 202.80 156.93 202.07 156.03 202.06 C 155.13 202.06 154.39 202.79 154.39 203.69 Z M 154.39 204.68 L 154.39 205.70 C 154.38 206.60 155.11 207.33 156.01 207.34 C 156.91 207.34 157.64 206.61 157.64 205.71 L 157.65 204.68 C 157.65 203.78 156.92 203.05 156.02 203.05 C 155.12 203.05 154.39 203.78 154.39 204.68 Z M 154.39 205.71 L 154.39 206.77 C 154.39 207.66 155.12 208.39 156.01 208.39 C 156.91 208.39 157.63 207.67 157.63 206.77 L 157.64 205.71 C 157.64 204.81 156.91 204.09 156.02 204.09 C 155.12 204.09 154.40 204.81 154.39 205.71 Z M 154.40 206.77 L 154.40 207.85 C 154.40 208.75 155.12 209.47 156.01 209.47 C 156.90 209.47 157.63 208.75 157.63 207.86 L 157.63 206.77 C 157.63 205.88 156.90 205.16 156.01 205.16 C 155.12 205.16 154.40 205.88 154.40 206.77 Z M 154.41 207.86 L 154.41 208.49 C 154.41 209.37 155.13 210.09 156.01 210.09 C 156.90 210.09 157.62 209.37 157.62 208.49 L 157.62 207.86 C 157.62 206.97 156.90 206.25 156.01 206.25 C 155.13 206.25 154.41 206.97 154.41 207.86 Z"
      fill="black"
      fill-rule="nonzero" /></svg>