<svg xmlns="http://www.w3.org/2000/svg" width="300" height="300" viewBox="0 0 300 300">
<path d="M 146.26 91.98 L 145.59 92.75 C 145.03 93.38 145.09 94.35 145.73 94.91 C 146.37 95.47 147.34 95.41 147.90 94.77 L 148.57 94.01 C 149.13 93.37 149.06 92.40 148.43 91.84 C 147.79 91.28 146.82 91.35 146.26 91.98 Z M 145.50 92.79 L 144.88 93.58 C 144.35 94.27 144.47 95.26 145.16 95.79 C 145.84 96.33 146.84 96.21 147.37 95.52 L 147.99 94.73 C 148.52 94.04 148.40 93.05 147.71 92.51 C 147.03 91.98 146.03 92.10 145.50 92.79 Z M 144.74 93.71 L 144.23 94.55 C 143.77 95.32 144.02 96.32 144.78 96.78 C 145.55 97.24 146.55 97.00 147.01 96.23 L 147.52 95.39 C 147.98 94.62 147.73 93.62 146.96 93.16 C 146.20 92.70 145.20 92.94 144.74 93.71 Z M 144.08 94.80 L 143.74 95.67 C 143.41 96.53 143.84 97.48 144.69 97.81 C 145.54 98.14 146.50 97.71 146.83 96.86 L 147.16 95.98 C 147.49 95.13 147.07 94.17 146.21 93.85 C 145.36 93.52 144.40 93.95 144.08 94.80 Z M 143.66 95.91 L 143.45 96.84 C 143.25 97.74 143.82 98.63 144.72 98.83 C 145.61 99.03 146.50 98.46 146.70 97.56 L 146.91 96.63 C 147.11 95.73 146.54 94.84 145.64 94.64 C 144.75 94.44 143.86 95.01 143.66 95.91 Z M 143.42 96.97 L 143.28 97.98 C 143.16 98.90 143.80 99.74 144.71 99.87 C 145.62 99.99 146.47 99.35 146.59 98.44 L 146.73 97.43 C 146.86 96.52 146.22 95.68 145.31 95.55 C 144.39 95.42 143.55 96.06 143.42 96.97 Z M 143.28 98.02 L 143.15 99.07 C 143.05 99.99 143.70 100.82 144.62 100.92 C 145.54 101.03 146.37 100.37 146.48 99.45 L 146.60 98.41 C 146.71 97.49 146.05 96.66 145.13 96.55 C 144.21 96.44 143.38 97.10 143.28 98.02 Z M 143.15 99.04 L 143.03 99.98 C 142.91 100.90 143.56 101.74 144.48 101.86 C 145.40 101.98 146.24 101.33 146.36 100.41 L 146.48 99.48 C 146.60 98.56 145.95 97.72 145.03 97.60 C 144.11 97.48 143.27 98.13 143.15 99.04 Z M 143.03 99.95 L 142.89 100.93 C 142.75 101.84 143.38 102.70 144.30 102.84 C 145.22 102.97 146.07 102.34 146.21 101.42 L 146.36 100.45 C 146.49 99.53 145.86 98.67 144.94 98.54 C 144.02 98.40 143.17 99.03 143.03 99.95 Z M 142.89 100.89 L 142.72 101.90 C 142.56 102.82 143.18 103.69 144.10 103.84 C 145.01 104.00 145.88 103.38 146.04 102.46 L 146.21 101.45 C 146.36 100.54 145.75 99.67 144.83 99.51 C 143.91 99.36 143.04 99.98 142.89 100.89 Z M 142.72 101.87 L 142.52 102.90 C 142.35 103.81 142.95 104.70 143.86 104.87 C 144.78 105.05 145.66 104.45 145.84 103.53 L 146.03 102.50 C 146.21 101.58 145.61 100.70 144.69 100.53 C 143.78 100.35 142.90 100.95 142.72 101.87 Z M 142.53 102.86 L 142.33 103.81 C 142.13 104.72 142.71 105.62 143.63 105.81 C 144.54 106.01 145.43 105.43 145.63 104.51 L 145.83 103.57 C 146.03 102.66 145.45 101.76 144.53 101.56 C 143.62 101.37 142.72 101.95 142.53 102.86 Z M 142.33 103.77 L 142.11 104.72 C 141.90 105.63 142.46 106.54 143.37 106.75 C 144.27 106.97 145.18 106.40 145.40 105.49 L 145.62 104.55 C 145.84 103.64 145.28 102.73 144.37 102.52 C 143.46 102.30 142.55 102.86 142.33 103.77 Z M 142.12 104.68 L 141.87 105.64 C 141.63 106.55 142.18 107.47 143.08 107.70 C 143.98 107.94 144.91 107.40 145.14 106.49 L 145.39 105.53 C 145.63 104.63 145.08 103.70 144.18 103.47 C 143.28 103.23 142.35 103.78 142.12 104.68 Z M 141.88 105.61 L 141.60 106.59 C 141.34 107.49 141.86 108.42 142.76 108.68 C 143.66 108.93 144.60 108.41 144.85 107.51 L 145.13 106.53 C 145.39 105.63 144.87 104.70 143.97 104.44 C 143.07 104.18 142.13 104.71 141.88 105.61 Z M 141.61 106.55 L 141.30 107.56 C 141.02 108.45 141.52 109.40 142.42 109.68 C 143.31 109.95 144.26 109.45 144.53 108.56 L 144.84 107.55 C 145.12 106.66 144.62 105.71 143.72 105.43 C 142.83 105.16 141.88 105.66 141.61 106.55 Z M 141.31 107.53 L 140.98 108.50 C 140.69 109.39 141.17 110.35 142.06 110.64 C 142.95 110.93 143.91 110.45 144.20 109.56 L 144.52 108.59 C 144.82 107.70 144.34 106.74 143.45 106.45 C 142.56 106.16 141.60 106.64 141.31 107.53 Z M 140.99 108.47 L 140.65 109.45 C 140.34 110.33 140.81 111.30 141.69 111.61 C 142.57 111.92 143.54 111.45 143.85 110.57 L 144.19 109.59 C 144.50 108.71 144.04 107.74 143.15 107.43 C 142.27 107.12 141.30 107.59 140.99 108.47 Z M 140.66 109.43 L 140.31 110.39 C 139.98 111.27 140.44 112.24 141.31 112.56 C 142.19 112.89 143.17 112.44 143.49 111.56 L 143.84 110.59 C 144.16 109.72 143.71 108.74 142.83 108.42 C 141.96 108.10 140.98 108.55 140.66 109.43 Z M 140.31 110.37 L 139.96 111.30 C 139.63 112.17 140.06 113.15 140.94 113.48 C 141.81 113.82 142.79 113.38 143.13 112.50 L 143.48 111.58 C 143.81 110.70 143.38 109.72 142.50 109.39 C 141.63 109.06 140.65 109.49 140.31 110.37 Z M 139.97 111.27 L 139.62 112.14 C 139.28 113.01 139.70 114.00 140.57 114.34 C 141.44 114.69 142.43 114.26 142.77 113.39 L 143.12 112.52 C 143.46 111.65 143.04 110.67 142.17 110.32 C 141.30 109.98 140.31 110.41 139.97 111.27 Z M 139.63 112.12 L 139.22 113.11 C 138.87 113.97 139.28 114.97 140.14 115.32 C 141.01 115.68 142.00 115.27 142.36 114.41 L 142.76 113.42 C 143.12 112.55 142.71 111.56 141.85 111.20 C 140.98 110.85 139.99 111.26 139.63 112.12 Z M 139.24 113.08 L 138.83 114.00 C 138.46 114.86 138.85 115.86 139.71 116.24 C 140.56 116.61 141.56 116.22 141.94 115.36 L 142.34 114.44 C 142.72 113.58 142.33 112.58 141.47 112.20 C 140.61 111.83 139.61 112.22 139.24 113.08 Z M 138.85 113.97 L 138.45 114.84 C 138.05 115.69 138.42 116.70 139.27 117.09 C 140.12 117.48 141.13 117.11 141.52 116.26 L 141.92 115.39 C 142.32 114.54 141.95 113.54 141.10 113.14 C 140.25 112.75 139.24 113.12 138.85 113.97 Z M 138.46 114.81 L 138.04 115.67 C 137.63 116.51 137.98 117.52 138.82 117.93 C 139.67 118.34 140.68 117.99 141.09 117.15 L 141.51 116.29 C 141.92 115.45 141.57 114.44 140.73 114.03 C 139.88 113.62 138.87 113.97 138.46 114.81 Z M 138.06 115.64 L 137.62 116.49 C 137.20 117.33 137.53 118.34 138.37 118.77 C 139.20 119.19 140.22 118.86 140.65 118.02 L 141.08 117.17 C 141.50 116.34 141.17 115.32 140.33 114.90 C 139.50 114.47 138.48 114.81 138.06 115.64 Z M 137.64 116.47 L 137.18 117.34 C 136.74 118.17 137.06 119.20 137.89 119.63 C 138.72 120.06 139.75 119.74 140.18 118.91 L 140.64 118.04 C 141.07 117.21 140.75 116.19 139.92 115.76 C 139.09 115.32 138.07 115.64 137.64 116.47 Z M 137.19 117.33 L 136.71 118.22 C 136.26 119.04 136.57 120.07 137.40 120.51 C 138.22 120.96 139.25 120.65 139.69 119.82 L 140.17 118.93 C 140.61 118.11 140.31 117.08 139.48 116.64 C 138.66 116.19 137.63 116.50 137.19 117.33 Z M 136.72 118.20 L 136.21 119.11 C 135.76 119.93 136.06 120.96 136.88 121.41 C 137.70 121.86 138.73 121.57 139.18 120.75 L 139.68 119.84 C 140.13 119.02 139.84 117.99 139.02 117.54 C 138.20 117.09 137.17 117.38 136.72 118.20 Z M 136.22 119.10 L 135.74 119.95 C 135.28 120.77 135.57 121.80 136.38 122.26 C 137.20 122.72 138.23 122.43 138.69 121.62 L 139.17 120.76 C 139.63 119.95 139.34 118.91 138.53 118.45 C 137.72 117.99 136.68 118.28 136.22 119.10 Z M 135.75 119.94 L 135.26 120.79 C 134.79 121.60 135.07 122.63 135.88 123.10 C 136.69 123.57 137.72 123.29 138.19 122.48 L 138.68 121.63 C 139.15 120.82 138.87 119.79 138.06 119.32 C 137.25 118.85 136.21 119.13 135.75 119.94 Z M 135.27 120.77 L 134.76 121.63 C 134.28 122.44 134.55 123.47 135.35 123.95 C 136.15 124.43 137.19 124.16 137.67 123.36 L 138.18 122.50 C 138.66 121.70 138.39 120.66 137.59 120.18 C 136.78 119.70 135.74 119.97 135.27 120.77 Z M 134.77 121.61 L 134.24 122.48 C 133.75 123.28 134.00 124.32 134.80 124.81 C 135.60 125.30 136.64 125.04 137.13 124.25 L 137.66 123.38 C 138.14 122.58 137.89 121.54 137.09 121.05 C 136.30 120.56 135.26 120.82 134.77 121.61 Z M 134.25 122.46 L 133.71 123.32 C 133.21 124.11 133.45 125.16 134.24 125.65 C 135.03 126.15 136.08 125.91 136.58 125.12 L 137.12 124.26 C 137.61 123.47 137.37 122.43 136.58 121.93 C 135.79 121.43 134.75 121.67 134.25 122.46 Z M 133.72 123.30 L 133.20 124.12 C 132.69 124.90 132.92 125.95 133.70 126.45 C 134.48 126.96 135.53 126.74 136.04 125.95 L 136.56 125.14 C 137.07 124.36 136.85 123.31 136.06 122.80 C 135.28 122.30 134.23 122.52 133.72 123.30 Z M 133.21 124.10 L 132.66 124.92 C 132.15 125.70 132.36 126.75 133.14 127.26 C 133.92 127.78 134.96 127.57 135.48 126.79 L 136.03 125.97 C 136.54 125.19 136.33 124.14 135.55 123.63 C 134.77 123.11 133.73 123.32 133.21 124.10 Z M 132.67 124.91 L 132.11 125.74 C 131.59 126.51 131.79 127.56 132.56 128.09 C 133.33 128.61 134.38 128.41 134.91 127.64 L 135.47 126.80 C 135.99 126.03 135.79 124.98 135.02 124.46 C 134.25 123.94 133.20 124.14 132.67 124.91 Z M 132.12 125.73 L 131.54 126.58 C 131.01 127.34 131.20 128.39 131.97 128.92 C 132.73 129.45 133.78 129.26 134.31 128.49 L 134.90 127.65 C 135.43 126.88 135.23 125.83 134.47 125.30 C 133.70 124.77 132.65 124.96 132.12 125.73 Z M 131.54 126.57 L 130.96 127.40 C 130.43 128.16 130.61 129.21 131.37 129.75 C 132.14 130.28 133.19 130.10 133.72 129.33 L 134.31 128.50 C 134.84 127.74 134.66 126.69 133.89 126.15 C 133.13 125.62 132.08 125.80 131.54 126.57 Z M 130.97 127.39 L 130.41 128.18 C 129.87 128.94 130.04 129.99 130.80 130.53 C 131.56 131.07 132.61 130.89 133.15 130.14 L 133.72 129.34 C 134.25 128.58 134.08 127.53 133.32 126.99 C 132.56 126.45 131.51 126.63 130.97 127.39 Z M 130.41 128.18 L 129.83 128.98 C 129.29 129.73 129.46 130.78 130.22 131.33 C 130.97 131.87 132.02 131.70 132.56 130.95 L 133.14 130.14 C 133.69 129.39 133.52 128.34 132.76 127.79 C 132.01 127.25 130.96 127.42 130.41 128.18 Z M 129.84 128.97 L 129.25 129.78 C 128.70 130.53 128.87 131.58 129.61 132.13 C 130.36 132.67 131.42 132.51 131.96 131.76 L 132.56 130.95 C 133.10 130.20 132.94 129.15 132.19 128.61 C 131.44 128.06 130.39 128.22 129.84 128.97 Z M 129.26 129.77 L 128.65 130.59 C 128.10 131.33 128.26 132.38 129.00 132.93 C 129.74 133.49 130.80 133.33 131.35 132.59 L 131.95 131.77 C 132.51 131.03 132.35 129.98 131.61 129.42 C 130.86 128.87 129.81 129.03 129.26 129.77 Z M 128.66 130.58 L 128.04 131.40 C 127.49 132.14 127.63 133.19 128.37 133.75 C 129.11 134.30 130.16 134.16 130.72 133.42 L 131.34 132.60 C 131.90 131.86 131.75 130.81 131.01 130.25 C 130.27 129.69 129.22 129.84 128.66 130.58 Z M 128.05 131.39 L 127.45 132.17 C 126.89 132.90 127.03 133.95 127.76 134.52 C 128.50 135.08 129.55 134.94 130.11 134.21 L 130.71 133.43 C 131.27 132.69 131.13 131.64 130.40 131.08 C 129.67 130.52 128.62 130.65 128.05 131.39 Z M 127.46 132.16 L 126.86 132.95 C 126.29 133.67 126.42 134.72 127.15 135.29 C 127.88 135.86 128.93 135.73 129.49 135.00 L 130.10 134.21 C 130.67 133.48 130.54 132.43 129.81 131.87 C 129.08 131.30 128.03 131.43 127.46 132.16 Z M 126.86 132.94 L 126.25 133.73 C 125.68 134.45 125.80 135.50 126.53 136.07 C 127.25 136.64 128.30 136.51 128.87 135.79 L 129.49 135.00 C 130.06 134.28 129.93 133.23 129.21 132.66 C 128.48 132.09 127.43 132.22 126.86 132.94 Z M 126.25 133.72 L 125.63 134.51 C 125.06 135.23 125.18 136.28 125.90 136.85 C 126.62 137.42 127.66 137.30 128.24 136.58 L 128.86 135.79 C 129.43 135.07 129.31 134.02 128.59 133.45 C 127.87 132.88 126.83 133.00 126.25 133.72 Z M 125.63 134.50 L 125.00 135.29 C 124.43 136.01 124.54 137.06 125.26 137.63 C 125.98 138.20 127.02 138.09 127.60 137.37 L 128.23 136.58 C 128.80 135.87 128.69 134.82 127.97 134.25 C 127.26 133.67 126.21 133.79 125.63 134.50 Z M 125.01 135.29 L 124.38 136.07 C 123.80 136.79 123.91 137.83 124.63 138.41 C 125.34 138.98 126.38 138.87 126.96 138.16 L 127.59 137.37 C 128.17 136.66 128.06 135.62 127.34 135.04 C 126.63 134.47 125.58 134.58 125.01 135.29 Z M 124.38 136.07 L 123.76 136.84 C 123.19 137.54 123.29 138.59 124.00 139.16 C 124.71 139.74 125.76 139.63 126.33 138.92 L 126.95 138.16 C 127.53 137.45 127.42 136.41 126.71 135.83 C 126.00 135.25 124.96 135.36 124.38 136.07 Z M 123.77 136.84 L 123.14 137.60 C 122.57 138.31 122.67 139.35 123.38 139.93 C 124.08 140.50 125.13 140.40 125.70 139.69 L 126.33 138.92 C 126.90 138.22 126.80 137.18 126.09 136.60 C 125.38 136.02 124.34 136.13 123.77 136.84 Z M 123.15 137.60 L 122.52 138.37 C 121.94 139.08 122.04 140.12 122.75 140.69 C 123.45 141.27 124.49 141.16 125.07 140.46 L 125.70 139.69 C 126.27 138.98 126.17 137.95 125.46 137.37 C 124.76 136.79 123.72 136.90 123.15 137.60 Z M 122.52 138.38 L 121.88 139.15 C 121.31 139.85 121.41 140.89 122.11 141.46 C 122.82 142.04 123.85 141.94 124.43 141.23 L 125.06 140.46 C 125.64 139.76 125.53 138.72 124.83 138.15 C 124.13 137.57 123.10 137.67 122.52 138.38 Z M 121.89 139.16 L 121.24 139.94 C 120.67 140.64 120.77 141.67 121.47 142.25 C 122.17 142.82 123.21 142.72 123.78 142.02 L 124.42 141.23 C 125.00 140.53 124.89 139.50 124.19 138.93 C 123.49 138.35 122.46 138.46 121.89 139.16 Z M 121.25 139.94 L 120.60 140.74 C 120.03 141.44 120.13 142.47 120.83 143.04 C 121.53 143.61 122.56 143.50 123.13 142.81 L 123.78 142.01 C 124.35 141.31 124.25 140.28 123.55 139.71 C 122.85 139.14 121.82 139.25 121.25 139.94 Z M 120.60 140.74 L 119.95 141.54 C 119.38 142.23 119.49 143.26 120.19 143.83 C 120.88 144.40 121.91 144.29 122.48 143.60 L 123.13 142.80 C 123.70 142.10 123.59 141.08 122.89 140.51 C 122.20 139.94 121.17 140.04 120.60 140.74 Z M 119.96 141.54 L 119.31 142.34 C 118.74 143.03 118.85 144.05 119.54 144.62 C 120.24 145.19 121.26 145.08 121.83 144.39 L 122.48 143.59 C 123.04 142.90 122.94 141.87 122.24 141.31 C 121.55 140.74 120.52 140.84 119.96 141.54 Z M 119.31 142.34 L 118.67 143.12 C 118.11 143.82 118.21 144.84 118.90 145.40 C 119.59 145.97 120.61 145.87 121.18 145.17 L 121.82 144.39 C 122.39 143.69 122.28 142.67 121.59 142.11 C 120.90 141.54 119.88 141.64 119.31 142.34 Z M 118.68 143.13 L 118.05 143.90 C 117.48 144.59 117.58 145.60 118.27 146.17 C 118.96 146.73 119.98 146.63 120.54 145.94 L 121.17 145.17 C 121.74 144.48 121.64 143.46 120.95 142.90 C 120.26 142.33 119.24 142.44 118.68 143.13 Z M 118.05 143.90 L 117.44 144.64 C 116.87 145.33 116.97 146.34 117.66 146.91 C 118.35 147.47 119.36 147.37 119.92 146.69 L 120.54 145.94 C 121.10 145.25 121.00 144.24 120.32 143.68 C 119.63 143.11 118.62 143.21 118.05 143.90 Z M 117.45 144.64 L 116.80 145.42 C 116.24 146.10 116.33 147.11 117.01 147.68 C 117.70 148.24 118.71 148.15 119.27 147.47 L 119.92 146.69 C 120.48 146.01 120.39 145.00 119.70 144.43 C 119.02 143.87 118.01 143.96 117.45 144.64 Z M 116.81 145.42 L 116.12 146.24 C 115.56 146.92 115.65 147.93 116.33 148.49 C 117.00 149.06 118.01 148.97 118.58 148.29 L 119.26 147.47 C 119.83 146.79 119.74 145.78 119.06 145.22 C 118.38 144.65 117.38 144.74 116.81 145.42 Z M 116.13 146.24 L 115.48 147.02 C 114.91 147.69 115.00 148.70 115.67 149.26 C 116.35 149.83 117.35 149.74 117.91 149.07 L 118.57 148.29 C 119.13 147.62 119.05 146.61 118.37 146.05 C 117.70 145.48 116.70 145.57 116.13 146.24 Z M 115.49 147.02 L 114.86 147.76 C 114.30 148.43 114.38 149.43 115.05 150.00 C 115.72 150.56 116.72 150.47 117.28 149.81 L 117.91 149.07 C 118.47 148.40 118.39 147.40 117.72 146.83 C 117.05 146.27 116.05 146.36 115.49 147.02 Z M 114.87 147.77 L 114.26 148.48 C 113.70 149.15 113.79 150.14 114.45 150.70 C 115.12 151.26 116.11 151.18 116.67 150.52 L 117.27 149.80 C 117.84 149.14 117.75 148.14 117.09 147.58 C 116.42 147.02 115.43 147.10 114.87 147.77 Z M 114.27 148.49 L 113.62 149.25 C 113.06 149.92 113.15 150.91 113.81 151.46 C 114.47 152.02 115.46 151.94 116.02 151.28 L 116.67 150.51 C 117.22 149.85 117.14 148.86 116.48 148.30 C 115.82 147.74 114.83 147.83 114.27 148.49 Z M 113.63 149.26 L 112.96 150.06 C 112.40 150.72 112.49 151.71 113.15 152.26 C 113.81 152.81 114.79 152.73 115.34 152.07 L 116.02 151.27 C 116.57 150.61 116.48 149.62 115.83 149.07 C 115.17 148.52 114.18 148.60 113.63 149.26 Z M 112.96 150.07 L 112.32 150.83 C 111.77 151.49 111.85 152.47 112.51 153.02 C 113.16 153.57 114.14 153.49 114.69 152.83 L 115.34 152.06 C 115.89 151.41 115.80 150.43 115.15 149.88 C 114.49 149.33 113.51 149.41 112.96 150.07 Z M 112.33 150.84 L 111.71 151.57 C 111.16 152.21 111.24 153.19 111.89 153.74 C 112.54 154.29 113.51 154.21 114.06 153.56 L 114.68 152.83 C 115.23 152.18 115.15 151.21 114.50 150.66 C 113.85 150.11 112.88 150.19 112.33 150.84 Z M 111.72 151.56 L 111.08 152.31 C 110.53 152.95 110.61 153.92 111.25 154.47 C 111.89 155.02 112.86 154.95 113.41 154.31 L 114.05 153.56 C 114.60 152.92 114.53 151.95 113.88 151.40 C 113.24 150.85 112.27 150.92 111.72 151.56 Z M 111.10 152.31 L 110.43 153.08 C 109.88 153.71 109.95 154.67 110.58 155.22 C 111.22 155.77 112.18 155.71 112.73 155.07 L 113.39 154.31 C 113.95 153.67 113.88 152.71 113.24 152.16 C 112.61 151.61 111.65 151.68 111.10 152.31 Z M 110.44 153.08 L 109.80 153.82 C 109.25 154.44 109.31 155.40 109.94 155.95 C 110.57 156.50 111.52 156.43 112.07 155.81 L 112.72 155.07 C 113.27 154.44 113.20 153.49 112.58 152.94 C 111.95 152.39 110.99 152.45 110.44 153.08 Z M 109.80 153.82 L 109.16 154.56 C 108.62 155.18 108.68 156.13 109.31 156.68 C 109.93 157.22 110.88 157.16 111.43 156.53 L 112.07 155.80 C 112.61 155.17 112.55 154.22 111.92 153.68 C 111.30 153.14 110.35 153.20 109.80 153.82 Z M 109.17 154.57 L 108.52 155.32 C 107.98 155.94 108.05 156.88 108.68 157.42 C 109.30 157.96 110.24 157.89 110.78 157.27 L 111.42 156.52 C 111.96 155.90 111.89 154.95 111.27 154.42 C 110.64 153.88 109.70 153.95 109.17 154.57 Z M 108.53 155.33 L 107.87 156.09 C 107.34 156.71 107.42 157.65 108.04 158.18 C 108.66 158.71 109.59 158.64 110.13 158.02 L 110.78 157.25 C 111.31 156.63 111.24 155.70 110.61 155.17 C 109.99 154.63 109.06 154.71 108.53 155.33 Z M 107.88 156.10 L 107.22 156.87 C 106.70 157.49 106.77 158.42 107.39 158.94 C 108.01 159.47 108.94 159.39 109.46 158.78 L 110.12 158.01 C 110.65 157.39 110.57 156.46 109.95 155.93 C 109.33 155.41 108.41 155.48 107.88 156.10 Z M 107.23 156.87 L 107.01 157.13 C 106.48 157.75 106.56 158.67 107.18 159.20 C 107.79 159.72 108.72 159.65 109.24 159.03 L 109.46 158.77 C 109.98 158.15 109.91 157.23 109.29 156.71 C 108.68 156.18 107.75 156.26 107.23 156.87 Z"
      fill="black"
      fill-rule="nonzero" /><path d="M 136.70 119.73 L 137.68 119.73 C 138.56 119.73 139.28 119.01 139.28 118.13 C 139.28 117.24 138.56 116.52 137.67 116.53 L 136.70 116.53 C 135.81 116.53 135.09 117.25 135.10 118.13 C 135.10 119.02 135.82 119.74 136.70 119.73 Z M 137.69 119.74 L 138.68 119.73 C 139.56 119.72 140.28 118.99 140.27 118.10 C 140.26 117.21 139.53 116.50 138.64 116.51 L 137.66 116.52 C 136.77 116.53 136.05 117.26 136.06 118.15 C 136.07 119.04 136.80 119.75 137.69 119.74 Z M 138.71 119.73 L 139.71 119.70 C 140.60 119.67 141.30 118.93 141.27 118.04 C 141.24 117.15 140.50 116.44 139.61 116.47 L 138.61 116.50 C 137.72 116.53 137.02 117.27 137.04 118.17 C 137.07 119.06 137.81 119.76 138.71 119.73 Z M 139.75 119.71 L 140.77 119.65 C 141.67 119.59 142.35 118.83 142.30 117.93 C 142.25 117.04 141.48 116.36 140.59 116.41 L 139.56 116.47 C 138.67 116.52 137.99 117.29 138.04 118.18 C 138.09 119.08 138.86 119.76 139.75 119.71 Z M 140.83 119.64 L 141.85 119.55 C 142.75 119.47 143.40 118.68 143.32 117.78 C 143.24 116.89 142.45 116.24 141.56 116.32 L 140.53 116.41 C 139.64 116.49 138.98 117.28 139.06 118.18 C 139.15 119.07 139.94 119.72 140.83 119.64 Z M 141.90 119.54 L 142.93 119.41 C 143.82 119.30 144.44 118.49 144.34 117.61 C 144.23 116.72 143.42 116.09 142.54 116.20 L 141.51 116.33 C 140.62 116.44 139.99 117.24 140.10 118.13 C 140.21 119.02 141.02 119.64 141.90 119.54 Z M 142.97 119.39 L 143.98 119.24 C 144.86 119.11 145.46 118.30 145.33 117.42 C 145.20 116.54 144.39 115.94 143.51 116.07 L 142.50 116.22 C 141.62 116.35 141.01 117.17 141.14 118.04 C 141.28 118.92 142.09 119.52 142.97 119.39 Z M 144.02 119.23 L 144.99 119.06 C 145.86 118.91 146.44 118.09 146.29 117.22 C 146.14 116.35 145.32 115.77 144.45 115.92 L 143.48 116.08 C 142.61 116.23 142.03 117.06 142.17 117.93 C 142.32 118.79 143.15 119.38 144.02 119.23 Z M 145.02 119.05 L 145.96 118.86 C 146.82 118.70 147.38 117.87 147.22 117.01 C 147.05 116.15 146.22 115.59 145.36 115.75 L 144.42 115.93 C 143.56 116.10 143.00 116.93 143.16 117.79 C 143.33 118.65 144.16 119.21 145.02 119.05 Z M 145.99 118.85 L 147.03 118.62 C 147.88 118.44 148.42 117.60 148.24 116.75 C 148.06 115.90 147.22 115.36 146.37 115.55 L 145.33 115.77 C 144.48 115.95 143.94 116.79 144.12 117.64 C 144.30 118.49 145.14 119.03 145.99 118.85 Z M 147.06 118.60 L 148.02 118.38 C 148.85 118.18 149.37 117.34 149.18 116.50 C 148.98 115.66 148.14 115.15 147.30 115.34 L 146.35 115.57 C 145.51 115.76 144.99 116.60 145.19 117.44 C 145.38 118.28 146.22 118.80 147.06 118.60 Z M 148.02 118.36 L 148.95 118.13 C 149.78 117.93 150.28 117.10 150.08 116.27 C 149.88 115.44 149.04 114.93 148.22 115.13 L 147.29 115.36 C 146.47 115.56 145.96 116.40 146.16 117.22 C 146.36 118.05 147.20 118.56 148.02 118.36 Z M 148.94 118.12 L 149.86 117.90 C 150.68 117.71 151.19 116.88 150.99 116.06 C 150.80 115.23 149.97 114.73 149.15 114.92 L 148.23 115.14 C 147.40 115.34 146.90 116.17 147.09 116.99 C 147.29 117.81 148.12 118.32 148.94 118.12 Z M 149.85 117.90 L 150.80 117.67 C 151.62 117.48 152.13 116.66 151.94 115.85 C 151.74 115.03 150.93 114.52 150.11 114.71 L 149.16 114.93 C 148.34 115.12 147.83 115.94 148.02 116.76 C 148.21 117.58 149.03 118.09 149.85 117.90 Z M 150.80 117.67 L 151.78 117.44 C 152.60 117.25 153.10 116.43 152.91 115.62 C 152.72 114.80 151.91 114.30 151.09 114.49 L 150.11 114.72 C 149.29 114.91 148.79 115.72 148.98 116.54 C 149.17 117.35 149.98 117.86 150.80 117.67 Z M 151.79 117.43 L 152.81 117.18 C 153.61 116.99 154.11 116.18 153.92 115.37 C 153.72 114.56 152.91 114.06 152.10 114.25 L 151.09 114.50 C 150.28 114.69 149.78 115.50 149.97 116.31 C 150.17 117.12 150.98 117.62 151.79 117.43 Z M 152.82 117.17 L 153.76 116.94 C 154.56 116.74 155.05 115.92 154.85 115.12 C 154.65 114.32 153.83 113.83 153.03 114.03 L 152.09 114.26 C 151.29 114.46 150.80 115.28 151.00 116.08 C 151.20 116.89 152.01 117.37 152.82 117.17 Z M 153.77 116.93 L 154.72 116.68 C 155.52 116.47 156.00 115.66 155.79 114.86 C 155.59 114.06 154.77 113.58 153.98 113.79 L 153.02 114.04 C 152.22 114.25 151.74 115.06 151.95 115.86 C 152.16 116.65 152.97 117.13 153.77 116.93 Z M 154.73 116.67 L 155.71 116.41 C 156.50 116.20 156.97 115.39 156.76 114.59 C 156.55 113.80 155.74 113.33 154.94 113.54 L 153.97 113.80 C 153.18 114.01 152.70 114.82 152.92 115.62 C 153.13 116.41 153.94 116.88 154.73 116.67 Z M 155.71 116.40 L 156.71 116.13 C 157.50 115.92 157.96 115.11 157.75 114.32 C 157.53 113.53 156.72 113.07 155.93 113.28 L 154.94 113.55 C 154.15 113.76 153.69 114.57 153.90 115.36 C 154.11 116.15 154.93 116.61 155.71 116.40 Z M 156.71 116.12 L 157.66 115.86 C 158.44 115.65 158.90 114.84 158.68 114.06 C 158.47 113.27 157.66 112.81 156.88 113.03 L 155.93 113.29 C 155.15 113.50 154.69 114.31 154.90 115.10 C 155.12 115.88 155.93 116.34 156.71 116.12 Z M 157.66 115.86 L 158.61 115.59 C 159.39 115.38 159.84 114.57 159.63 113.79 C 159.41 113.01 158.60 112.55 157.82 112.77 L 156.88 113.03 C 156.10 113.25 155.64 114.06 155.85 114.84 C 156.07 115.62 156.88 116.07 157.66 115.86 Z M 158.60 115.59 L 159.57 115.32 C 160.35 115.11 160.80 114.30 160.59 113.53 C 160.37 112.75 159.57 112.29 158.79 112.51 L 157.83 112.78 C 157.05 112.99 156.59 113.79 156.81 114.57 C 157.02 115.35 157.83 115.80 158.60 115.59 Z M 159.56 115.32 L 160.55 115.05 C 161.32 114.84 161.78 114.04 161.57 113.26 C 161.36 112.49 160.56 112.03 159.78 112.24 L 158.80 112.51 C 158.02 112.73 157.57 113.52 157.78 114.30 C 157.99 115.07 158.79 115.53 159.56 115.32 Z M 160.54 115.05 L 161.52 114.78 C 162.29 114.58 162.75 113.78 162.54 113.01 C 162.34 112.23 161.54 111.78 160.77 111.98 L 159.79 112.25 C 159.02 112.46 158.56 113.25 158.77 114.02 C 158.97 114.80 159.77 115.25 160.54 115.05 Z M 161.51 114.78 L 162.48 114.52 C 163.25 114.32 163.71 113.53 163.51 112.76 C 163.31 111.99 162.51 111.53 161.74 111.73 L 160.78 111.99 C 160.00 112.19 159.54 112.98 159.75 113.75 C 159.95 114.52 160.74 114.98 161.51 114.78 Z M 162.48 114.52 L 163.45 114.27 C 164.22 114.07 164.68 113.28 164.48 112.51 C 164.28 111.74 163.49 111.28 162.72 111.48 L 161.75 111.73 C 160.98 111.93 160.52 112.72 160.72 113.49 C 160.92 114.26 161.70 114.72 162.48 114.52 Z M 163.44 114.27 L 164.42 114.02 C 165.19 113.82 165.65 113.03 165.45 112.27 C 165.25 111.50 164.47 111.03 163.70 111.23 L 162.73 111.48 C 161.96 111.68 161.50 112.46 161.69 113.23 C 161.89 114.00 162.68 114.46 163.44 114.27 Z M 164.41 114.01 L 165.38 113.77 C 166.15 113.57 166.61 112.79 166.41 112.02 C 166.22 111.26 165.44 110.79 164.67 110.99 L 163.70 111.23 C 162.94 111.43 162.47 112.21 162.67 112.98 C 162.87 113.75 163.65 114.21 164.41 114.01 Z M 165.37 113.77 L 166.37 113.51 C 167.14 113.32 167.60 112.54 167.41 111.77 C 167.22 111.01 166.44 110.54 165.67 110.74 L 164.67 110.99 C 163.91 111.18 163.44 111.96 163.64 112.73 C 163.83 113.50 164.61 113.96 165.37 113.77 Z M 166.37 113.51 L 167.36 113.27 C 168.12 113.07 168.59 112.30 168.40 111.53 C 168.21 110.77 167.43 110.30 166.66 110.49 L 165.67 110.74 C 164.91 110.93 164.44 111.71 164.63 112.47 C 164.83 113.24 165.60 113.70 166.37 113.51 Z M 167.35 113.27 L 168.32 113.03 C 169.09 112.84 169.55 112.07 169.37 111.30 C 169.18 110.53 168.41 110.07 167.64 110.25 L 166.67 110.49 C 165.90 110.68 165.44 111.45 165.62 112.22 C 165.81 112.98 166.59 113.45 167.35 113.27 Z M 168.31 113.03 L 169.26 112.80 C 170.03 112.62 170.50 111.85 170.32 111.08 C 170.13 110.32 169.36 109.84 168.60 110.03 L 167.65 110.25 C 166.88 110.44 166.41 111.21 166.59 111.97 C 166.77 112.74 167.54 113.21 168.31 113.03 Z M 169.25 112.80 L 170.22 112.58 C 170.99 112.40 171.47 111.64 171.29 110.87 C 171.11 110.10 170.35 109.63 169.58 109.80 L 168.61 110.02 C 167.84 110.20 167.36 110.97 167.54 111.73 C 167.71 112.50 168.48 112.98 169.25 112.80 Z M 170.21 112.58 L 171.21 112.36 C 171.98 112.19 172.47 111.43 172.30 110.66 C 172.13 109.90 171.37 109.41 170.60 109.58 L 169.59 109.80 C 168.83 109.97 168.34 110.73 168.51 111.50 C 168.68 112.27 169.44 112.75 170.21 112.58 Z M 171.20 112.36 L 172.18 112.16 C 172.95 111.99 173.44 111.24 173.28 110.47 C 173.11 109.70 172.36 109.21 171.59 109.37 L 170.61 109.58 C 169.84 109.74 169.35 110.49 169.51 111.26 C 169.67 112.03 170.43 112.53 171.20 112.36 Z M 172.17 112.16 L 173.12 111.96 C 173.89 111.81 174.39 111.05 174.23 110.28 C 174.07 109.51 173.32 109.01 172.55 109.17 L 171.60 109.37 C 170.83 109.52 170.33 110.28 170.49 111.05 C 170.64 111.82 171.40 112.32 172.17 112.16 Z M 173.11 111.97 L 174.09 111.77 C 174.86 111.62 175.36 110.87 175.21 110.09 C 175.05 109.32 174.30 108.82 173.53 108.98 L 172.56 109.17 C 171.78 109.32 171.28 110.08 171.44 110.85 C 171.59 111.62 172.34 112.12 173.11 111.97 Z M 174.08 111.77 L 175.08 111.58 C 175.85 111.43 176.35 110.68 176.20 109.90 C 176.05 109.13 175.30 108.63 174.53 108.78 L 173.53 108.98 C 172.76 109.13 172.26 109.88 172.41 110.65 C 172.56 111.42 173.31 111.92 174.08 111.77 Z M 175.07 111.58 L 176.05 111.39 C 176.82 111.24 177.32 110.49 177.17 109.72 C 177.02 108.95 176.28 108.44 175.50 108.59 L 174.53 108.78 C 173.76 108.93 173.25 109.68 173.40 110.45 C 173.55 111.22 174.30 111.73 175.07 111.58 Z M 176.04 111.39 L 177.01 111.20 C 177.78 111.05 178.29 110.31 178.14 109.53 C 177.99 108.76 177.24 108.26 176.47 108.40 L 175.51 108.59 C 174.73 108.74 174.23 109.49 174.38 110.26 C 174.52 111.03 175.27 111.54 176.04 111.39 Z"
      fill="black"
      fill-rule="nonzero" /><path d="M 130.22 153.83 L 129.26 153.83 C 128.37 153.83 127.65 154.55 127.65 155.44 C 127.65 156.32 128.37 157.04 129.26 157.04 L 130.22 157.04 C 131.10 157.04 131.82 156.32 131.82 155.44 C 131.82 154.55 131.10 153.83 130.22 153.83 Z M 129.25 153.83 L 128.27 153.84 C 127.38 153.84 126.67 154.56 126.67 155.45 C 126.68 156.33 127.40 157.05 128.28 157.05 L 129.26 157.04 C 130.15 157.04 130.87 156.32 130.86 155.43 C 130.86 154.54 130.14 153.83 129.25 153.83 Z M 128.26 153.84 L 127.23 153.85 C 126.35 153.86 125.64 154.58 125.65 155.47 C 125.66 156.35 126.38 157.06 127.27 157.05 L 128.29 157.04 C 129.18 157.04 129.89 156.31 129.88 155.42 C 129.87 154.54 129.15 153.83 128.26 153.84 Z M 127.22 153.85 L 125.98 153.87 C 125.09 153.89 124.39 154.62 124.40 155.50 C 124.42 156.39 125.15 157.09 126.03 157.08 L 127.28 157.05 C 128.16 157.04 128.87 156.31 128.85 155.42 C 128.84 154.54 128.11 153.83 127.22 153.85 Z M 125.98 153.87 L 124.73 153.89 C 123.84 153.90 123.14 154.63 123.15 155.52 C 123.16 156.41 123.89 157.11 124.78 157.10 L 126.03 157.08 C 126.92 157.07 127.63 156.33 127.61 155.45 C 127.60 154.56 126.87 153.85 125.98 153.87 Z M 124.81 153.88 L 124.12 153.86 C 123.24 153.83 122.49 154.53 122.46 155.42 C 122.43 156.31 123.13 157.05 124.02 157.08 L 124.70 157.10 C 125.59 157.13 126.34 156.43 126.37 155.55 C 126.39 154.66 125.70 153.91 124.81 153.88 Z M 124.73 156.95 L 124.93 156.86 C 125.75 156.49 126.12 155.54 125.76 154.72 C 125.40 153.91 124.44 153.54 123.63 153.90 L 123.42 153.99 C 122.60 154.36 122.23 155.31 122.60 156.12 C 122.96 156.94 123.91 157.31 124.73 156.95 Z M 124.61 156.97 L 125.53 156.78 C 126.40 156.59 126.97 155.74 126.78 154.86 C 126.60 153.98 125.75 153.42 124.87 153.60 L 123.95 153.79 C 123.07 153.97 122.51 154.83 122.69 155.71 C 122.87 156.58 123.73 157.15 124.61 156.97 Z M 125.57 156.77 L 126.96 156.45 C 127.83 156.25 128.38 155.37 128.17 154.50 C 127.97 153.62 127.10 153.08 126.22 153.28 L 124.83 153.61 C 123.96 153.81 123.41 154.68 123.61 155.56 C 123.82 156.43 124.69 156.98 125.57 156.77 Z M 127.03 156.43 L 128.10 156.13 C 128.97 155.89 129.47 154.99 129.23 154.12 C 128.98 153.26 128.08 152.75 127.22 153.00 L 126.15 153.30 C 125.28 153.54 124.78 154.44 125.02 155.31 C 125.27 156.17 126.17 156.68 127.03 156.43 Z M 128.16 156.12 L 129.12 155.81 C 129.98 155.53 130.45 154.62 130.18 153.76 C 129.91 152.90 128.99 152.43 128.13 152.70 L 127.17 153.01 C 126.31 153.28 125.84 154.20 126.11 155.06 C 126.38 155.92 127.30 156.39 128.16 156.12 Z M 129.16 155.80 L 130.14 155.46 C 130.99 155.17 131.44 154.24 131.15 153.39 C 130.86 152.54 129.93 152.08 129.08 152.38 L 128.10 152.71 C 127.25 153.01 126.79 153.93 127.09 154.78 C 127.38 155.64 128.31 156.09 129.16 155.80 Z M 130.16 155.45 L 131.13 155.10 C 131.97 154.80 132.41 153.86 132.10 153.02 C 131.80 152.17 130.86 151.73 130.02 152.04 L 129.05 152.39 C 128.21 152.69 127.77 153.63 128.08 154.47 C 128.38 155.32 129.32 155.76 130.16 155.45 Z M 131.14 155.10 L 132.06 154.75 C 132.90 154.44 133.33 153.50 133.02 152.65 C 132.70 151.81 131.76 151.38 130.92 151.70 L 130.00 152.04 C 129.16 152.36 128.73 153.30 129.04 154.14 C 129.36 154.98 130.30 155.41 131.14 155.10 Z M 132.07 154.75 L 133.04 154.37 C 133.89 154.05 134.31 153.11 133.98 152.27 C 133.66 151.43 132.72 151.01 131.88 151.33 L 130.91 151.70 C 130.07 152.02 129.65 152.97 129.97 153.81 C 130.29 154.65 131.23 155.07 132.07 154.75 Z M 133.05 154.37 L 134.04 153.99 C 134.88 153.66 135.30 152.72 134.97 151.88 C 134.65 151.04 133.70 150.63 132.87 150.95 L 131.87 151.33 C 131.04 151.66 130.62 152.60 130.94 153.44 C 131.27 154.28 132.21 154.70 133.05 154.37 Z M 134.04 153.99 L 134.95 153.63 C 135.79 153.31 136.20 152.36 135.88 151.53 C 135.55 150.69 134.61 150.27 133.77 150.60 L 132.86 150.95 C 132.03 151.28 131.61 152.22 131.94 153.06 C 132.26 153.90 133.21 154.31 134.04 153.99 Z M 134.95 153.63 L 135.81 153.30 C 136.65 152.98 137.07 152.03 136.75 151.20 C 136.42 150.36 135.48 149.94 134.64 150.26 L 133.78 150.60 C 132.94 150.92 132.52 151.86 132.84 152.70 C 133.17 153.54 134.11 153.96 134.95 153.63 Z M 135.80 153.30 L 136.69 152.97 C 137.53 152.65 137.95 151.71 137.63 150.87 C 137.31 150.03 136.38 149.61 135.54 149.93 L 134.65 150.26 C 133.81 150.58 133.39 151.52 133.71 152.36 C 134.03 153.20 134.96 153.62 135.80 153.30 Z M 136.68 152.97 L 137.60 152.63 C 138.44 152.32 138.87 151.38 138.56 150.54 C 138.25 149.70 137.31 149.27 136.47 149.58 L 135.55 149.93 C 134.71 150.24 134.28 151.17 134.59 152.01 C 134.90 152.85 135.84 153.28 136.68 152.97 Z M 137.60 152.63 L 138.54 152.28 C 139.38 151.97 139.81 151.03 139.50 150.19 C 139.18 149.35 138.25 148.92 137.41 149.24 L 136.47 149.58 C 135.63 149.90 135.20 150.83 135.51 151.67 C 135.83 152.51 136.76 152.94 137.60 152.63 Z M 138.55 152.27 L 139.50 151.91 C 140.34 151.59 140.76 150.66 140.44 149.82 C 140.12 148.98 139.19 148.56 138.35 148.88 L 137.40 149.24 C 136.56 149.56 136.14 150.49 136.46 151.33 C 136.78 152.17 137.71 152.59 138.55 152.27 Z M 139.52 151.90 L 140.45 151.54 C 141.28 151.21 141.69 150.27 141.37 149.44 C 141.04 148.60 140.10 148.19 139.27 148.52 L 138.33 148.89 C 137.50 149.22 137.09 150.16 137.42 150.99 C 137.75 151.82 138.69 152.23 139.52 151.90 Z M 140.47 151.53 L 141.39 151.15 C 142.22 150.81 142.61 149.87 142.28 149.04 C 141.94 148.22 140.99 147.82 140.17 148.16 L 139.25 148.53 C 138.42 148.87 138.02 149.81 138.36 150.64 C 138.70 151.47 139.64 151.86 140.47 151.53 Z M 141.40 151.14 L 142.32 150.76 C 143.15 150.41 143.53 149.47 143.19 148.65 C 142.85 147.82 141.90 147.43 141.08 147.78 L 140.16 148.16 C 139.33 148.51 138.95 149.45 139.29 150.28 C 139.63 151.10 140.58 151.49 141.40 151.14 Z M 142.33 150.75 L 143.26 150.36 C 144.08 150.01 144.46 149.07 144.11 148.25 C 143.77 147.43 142.82 147.05 142.00 147.39 L 141.07 147.78 C 140.25 148.13 139.87 149.07 140.22 149.89 C 140.56 150.71 141.51 151.10 142.33 150.75 Z M 143.25 150.36 L 144.17 149.97 C 144.99 149.63 145.38 148.68 145.03 147.86 C 144.69 147.05 143.74 146.66 142.92 147.01 L 142.00 147.39 C 141.19 147.74 140.80 148.68 141.15 149.50 C 141.49 150.32 142.43 150.70 143.25 150.36 Z M 144.17 149.97 L 145.08 149.59 C 145.90 149.24 146.29 148.30 145.94 147.49 C 145.60 146.67 144.66 146.28 143.84 146.62 L 142.93 147.01 C 142.11 147.35 141.73 148.29 142.07 149.11 C 142.41 149.93 143.35 150.31 144.17 149.97 Z M 145.08 149.58 L 146.00 149.20 C 146.82 148.86 147.20 147.92 146.86 147.10 C 146.52 146.29 145.58 145.90 144.77 146.24 L 143.84 146.63 C 143.03 146.97 142.64 147.91 142.98 148.72 C 143.33 149.54 144.26 149.93 145.08 149.58 Z M 146.00 149.20 L 146.93 148.81 C 147.75 148.46 148.13 147.53 147.79 146.71 C 147.45 145.90 146.51 145.51 145.70 145.86 L 144.77 146.25 C 143.95 146.59 143.57 147.53 143.91 148.34 C 144.25 149.15 145.19 149.54 146.00 149.20 Z M 146.94 148.80 L 147.85 148.41 C 148.67 148.07 149.05 147.13 148.70 146.32 C 148.36 145.51 147.42 145.13 146.61 145.47 L 145.69 145.86 C 144.88 146.20 144.50 147.14 144.84 147.95 C 145.19 148.76 146.12 149.14 146.94 148.80 Z M 147.86 148.41 L 148.75 148.02 C 149.56 147.68 149.94 146.74 149.59 145.93 C 149.25 145.13 148.31 144.75 147.50 145.10 L 146.61 145.48 C 145.80 145.82 145.42 146.76 145.77 147.57 C 146.11 148.38 147.05 148.75 147.86 148.41 Z M 148.76 148.02 L 149.67 147.63 C 150.47 147.28 150.84 146.34 150.50 145.54 C 150.15 144.73 149.21 144.36 148.41 144.71 L 147.50 145.10 C 146.69 145.45 146.32 146.38 146.67 147.19 C 147.02 147.99 147.95 148.36 148.76 148.02 Z M 149.67 147.62 L 150.60 147.22 C 151.40 146.87 151.77 145.94 151.42 145.13 C 151.07 144.33 150.14 143.96 149.33 144.31 L 148.41 144.71 C 147.60 145.06 147.24 146.00 147.58 146.80 C 147.93 147.60 148.87 147.97 149.67 147.62 Z M 150.60 147.21 L 151.55 146.80 C 152.35 146.45 152.71 145.52 152.36 144.72 C 152.01 143.92 151.08 143.55 150.28 143.90 L 149.33 144.32 C 148.53 144.67 148.17 145.60 148.52 146.40 C 148.87 147.20 149.80 147.56 150.60 147.21 Z M 151.55 146.79 L 152.45 146.40 C 153.25 146.05 153.61 145.12 153.26 144.32 C 152.91 143.52 151.98 143.16 151.19 143.51 L 150.28 143.91 C 149.48 144.26 149.12 145.19 149.47 145.98 C 149.82 146.78 150.75 147.14 151.55 146.79 Z M 152.45 146.39 L 153.37 145.99 C 154.16 145.64 154.53 144.72 154.18 143.92 C 153.83 143.13 152.90 142.76 152.11 143.11 L 151.19 143.51 C 150.39 143.86 150.03 144.79 150.38 145.59 C 150.73 146.38 151.66 146.74 152.45 146.39 Z M 153.37 145.99 L 154.29 145.58 C 155.08 145.24 155.44 144.31 155.10 143.52 C 154.75 142.73 153.83 142.36 153.03 142.71 L 152.11 143.12 C 151.32 143.46 150.95 144.39 151.30 145.18 C 151.65 145.97 152.57 146.33 153.37 145.99 Z M 154.29 145.58 L 155.21 145.18 C 156.00 144.83 156.36 143.91 156.02 143.12 C 155.67 142.33 154.75 141.97 153.96 142.31 L 153.04 142.71 C 152.25 143.06 151.88 143.98 152.23 144.77 C 152.57 145.56 153.49 145.92 154.29 145.58 Z M 155.20 145.18 L 156.12 144.78 C 156.91 144.44 157.27 143.52 156.93 142.73 C 156.59 141.94 155.67 141.58 154.88 141.92 L 153.97 142.31 C 153.18 142.66 152.81 143.57 153.15 144.36 C 153.49 145.15 154.41 145.52 155.20 145.18 Z M 156.11 144.78 L 157.04 144.38 C 157.83 144.05 158.19 143.13 157.86 142.34 C 157.52 141.55 156.61 141.19 155.82 141.52 L 154.89 141.92 C 154.10 142.26 153.74 143.17 154.07 143.96 C 154.41 144.75 155.32 145.12 156.11 144.78 Z M 157.03 144.38 L 157.95 143.99 C 158.73 143.66 159.10 142.75 158.77 141.96 C 158.44 141.17 157.53 140.81 156.74 141.14 L 155.82 141.53 C 155.03 141.86 154.67 142.77 155.00 143.56 C 155.33 144.35 156.24 144.71 157.03 144.38 Z M 157.94 143.99 L 158.86 143.61 C 159.64 143.28 160.01 142.37 159.68 141.58 C 159.35 140.80 158.45 140.43 157.66 140.76 L 156.74 141.14 C 155.96 141.47 155.59 142.38 155.92 143.16 C 156.25 143.95 157.15 144.32 157.94 143.99 Z M 158.85 143.60 L 159.77 143.22 C 160.56 142.89 160.93 141.99 160.60 141.20 C 160.27 140.42 159.37 140.05 158.59 140.38 L 157.66 140.76 C 156.88 141.09 156.51 141.99 156.84 142.77 C 157.16 143.56 158.07 143.93 158.85 143.60 Z M 159.77 143.21 L 160.68 142.84 C 161.46 142.51 161.83 141.61 161.51 140.83 C 161.18 140.05 160.28 139.68 159.50 140.00 L 158.59 140.38 C 157.81 140.70 157.44 141.60 157.76 142.39 C 158.09 143.17 158.99 143.54 159.77 143.21 Z M 160.67 142.83 L 161.58 142.46 C 162.36 142.14 162.73 141.24 162.41 140.46 C 162.09 139.68 161.19 139.31 160.41 139.63 L 159.50 140.01 C 158.72 140.33 158.35 141.22 158.67 142.00 C 159.00 142.79 159.89 143.16 160.67 142.83 Z M 161.58 142.46 L 162.50 142.08 C 163.28 141.76 163.65 140.87 163.33 140.09 C 163.01 139.31 162.12 138.93 161.34 139.25 L 160.42 139.63 C 159.64 139.95 159.27 140.84 159.59 141.62 C 159.91 142.40 160.80 142.78 161.58 142.46 Z M 162.49 142.07 L 163.43 141.69 C 164.21 141.38 164.58 140.49 164.26 139.71 C 163.95 138.93 163.06 138.56 162.28 138.88 L 161.35 139.26 C 160.57 139.57 160.19 140.46 160.51 141.24 C 160.83 142.02 161.71 142.39 162.49 142.07 Z M 163.42 141.69 L 164.37 141.31 C 165.15 141.00 165.52 140.11 165.21 139.34 C 164.90 138.56 164.01 138.18 163.24 138.50 L 162.29 138.88 C 161.51 139.19 161.14 140.08 161.45 140.85 C 161.76 141.63 162.65 142.00 163.42 141.69 Z M 164.36 141.31 L 165.29 140.94 C 166.06 140.63 166.44 139.75 166.13 138.97 C 165.82 138.20 164.94 137.82 164.17 138.13 L 163.25 138.50 C 162.47 138.81 162.09 139.69 162.40 140.46 C 162.71 141.24 163.59 141.62 164.36 141.31 Z M 165.28 140.94 L 166.20 140.57 C 166.98 140.27 167.36 139.39 167.05 138.62 C 166.75 137.84 165.87 137.46 165.10 137.77 L 164.18 138.13 C 163.40 138.44 163.02 139.31 163.33 140.09 C 163.63 140.86 164.51 141.24 165.28 140.94 Z M 166.20 140.57 L 167.13 140.21 C 167.90 139.91 168.28 139.04 167.98 138.27 C 167.68 137.49 166.81 137.11 166.04 137.41 L 165.11 137.77 C 164.34 138.07 163.95 138.94 164.25 139.71 C 164.55 140.49 165.42 140.87 166.20 140.57 Z M 167.12 140.21 L 168.06 139.85 C 168.83 139.55 169.22 138.69 168.92 137.92 C 168.63 137.14 167.76 136.76 166.99 137.05 L 166.05 137.41 C 165.28 137.70 164.89 138.57 165.19 139.34 C 165.48 140.12 166.35 140.50 167.12 140.21 Z M 168.05 139.85 L 168.99 139.49 C 169.77 139.20 170.16 138.34 169.87 137.57 C 169.58 136.80 168.72 136.41 167.94 136.70 L 167.00 137.05 C 166.23 137.34 165.84 138.20 166.13 138.97 C 166.42 139.75 167.28 140.14 168.05 139.85 Z M 168.98 139.49 L 169.93 139.14 C 170.70 138.86 171.10 138.00 170.81 137.23 C 170.53 136.46 169.67 136.06 168.90 136.35 L 167.96 136.70 C 167.18 136.98 166.79 137.84 167.07 138.61 C 167.36 139.38 168.21 139.78 168.98 139.49 Z M 169.92 139.14 L 170.87 138.80 C 171.64 138.52 172.04 137.67 171.76 136.90 C 171.48 136.13 170.63 135.73 169.86 136.01 L 168.91 136.35 C 168.14 136.63 167.74 137.48 168.02 138.25 C 168.30 139.02 169.15 139.42 169.92 139.14 Z M 170.86 138.79 L 171.81 138.46 C 172.58 138.18 172.98 137.33 172.71 136.57 C 172.43 135.80 171.58 135.40 170.82 135.67 L 169.87 136.01 C 169.10 136.28 168.70 137.13 168.97 137.90 C 169.25 138.67 170.09 139.07 170.86 138.79 Z M 171.81 138.45 L 172.75 138.12 C 173.52 137.85 173.92 137.01 173.65 136.24 C 173.37 135.47 172.53 135.07 171.76 135.34 L 170.82 135.67 C 170.05 135.95 169.65 136.79 169.92 137.56 C 170.20 138.32 171.04 138.73 171.81 138.45 Z M 172.74 138.12 L 173.68 137.79 C 174.44 137.52 174.84 136.68 174.57 135.91 C 174.30 135.15 173.46 134.74 172.70 135.01 L 171.77 135.34 C 171.00 135.61 170.60 136.45 170.87 137.22 C 171.14 137.98 171.98 138.39 172.74 138.12 Z M 173.67 137.78 L 174.62 137.45 C 175.38 137.18 175.78 136.35 175.51 135.58 C 175.24 134.82 174.41 134.42 173.64 134.69 L 172.70 135.02 C 171.94 135.29 171.53 136.12 171.80 136.89 C 172.07 137.65 172.91 138.05 173.67 137.78 Z M 174.62 137.45 L 175.56 137.11 C 176.32 136.85 176.72 136.01 176.45 135.25 C 176.19 134.49 175.35 134.09 174.59 134.36 L 173.64 134.69 C 172.88 134.96 172.48 135.79 172.75 136.56 C 173.02 137.32 173.85 137.72 174.62 137.45 Z M 175.56 137.11 L 176.50 136.78 C 177.26 136.51 177.66 135.68 177.39 134.92 C 177.12 134.16 176.29 133.76 175.53 134.03 L 174.59 134.36 C 173.83 134.63 173.43 135.46 173.70 136.22 C 173.97 136.98 174.80 137.38 175.56 137.11 Z M 176.50 136.78 L 177.44 136.44 C 178.19 136.17 178.59 135.34 178.32 134.59 C 178.05 133.83 177.22 133.43 176.46 133.70 L 175.53 134.03 C 174.77 134.30 174.37 135.13 174.64 135.89 C 174.91 136.65 175.74 137.04 176.50 136.78 Z M 177.44 136.44 L 178.38 136.10 C 179.13 135.84 179.53 135.01 179.26 134.25 C 178.99 133.50 178.16 133.10 177.40 133.37 L 176.46 133.70 C 175.71 133.97 175.31 134.80 175.58 135.56 C 175.85 136.31 176.68 136.71 177.44 136.44 Z M 178.38 136.10 L 179.28 135.78 C 180.04 135.51 180.43 134.68 180.16 133.93 C 179.89 133.17 179.06 132.78 178.31 133.05 L 177.40 133.37 C 176.65 133.64 176.26 134.47 176.53 135.22 C 176.80 135.98 177.63 136.37 178.38 136.10 Z M 179.28 135.77 L 180.18 135.45 C 180.94 135.18 181.33 134.36 181.06 133.61 C 180.79 132.85 179.97 132.46 179.21 132.73 L 178.31 133.05 C 177.56 133.32 177.17 134.15 177.44 134.90 C 177.70 135.65 178.53 136.04 179.28 135.77 Z M 180.18 135.45 L 181.11 135.12 C 181.86 134.86 182.25 134.04 181.99 133.28 C 181.72 132.53 180.90 132.14 180.14 132.40 L 179.22 132.73 C 178.47 133.00 178.07 133.82 178.34 134.57 C 178.60 135.32 179.43 135.72 180.18 135.45 Z M 181.10 135.13 L 182.05 134.79 C 182.80 134.53 183.20 133.71 182.94 132.96 C 182.68 132.21 181.86 131.81 181.11 132.07 L 180.15 132.40 C 179.40 132.67 179.00 133.49 179.26 134.24 C 179.53 134.99 180.35 135.39 181.10 135.13 Z M 182.04 134.79 L 183.03 134.46 C 183.79 134.20 184.19 133.39 183.93 132.63 C 183.68 131.88 182.86 131.48 182.11 131.73 L 181.12 132.07 C 180.37 132.33 179.96 133.14 180.22 133.89 C 180.47 134.65 181.29 135.05 182.04 134.79 Z M 183.02 134.46 L 184.02 134.13 C 184.77 133.88 185.18 133.07 184.93 132.32 C 184.69 131.57 183.87 131.16 183.12 131.40 L 182.12 131.73 C 181.37 131.98 180.96 132.79 181.21 133.55 C 181.46 134.30 182.27 134.71 183.02 134.46 Z M 184.01 134.13 L 185.00 133.82 C 185.75 133.58 186.17 132.77 185.93 132.01 C 185.69 131.26 184.88 130.84 184.12 131.09 L 183.13 131.40 C 182.38 131.64 181.96 132.45 182.20 133.20 C 182.45 133.96 183.25 134.37 184.01 134.13 Z M 184.99 133.82 L 185.98 133.51 C 186.74 133.27 187.16 132.47 186.93 131.72 C 186.69 130.96 185.89 130.54 185.13 130.77 L 184.14 131.08 C 183.38 131.32 182.96 132.12 183.19 132.88 C 183.43 133.63 184.23 134.05 184.99 133.82 Z M 185.97 133.51 L 186.95 133.22 C 187.71 132.99 188.14 132.19 187.91 131.43 C 187.68 130.68 186.89 130.25 186.13 130.47 L 185.15 130.77 C 184.39 131.00 183.96 131.80 184.19 132.55 C 184.42 133.31 185.21 133.74 185.97 133.51 Z M 186.94 133.22 L 187.88 132.95 C 188.64 132.72 189.08 131.93 188.86 131.17 C 188.64 130.41 187.84 129.98 187.09 130.20 L 186.14 130.47 C 185.38 130.69 184.95 131.49 185.17 132.24 C 185.39 133.00 186.18 133.44 186.94 133.22 Z M 187.87 132.95 L 188.75 132.70 C 189.51 132.49 189.96 131.70 189.74 130.94 C 189.53 130.18 188.75 129.74 187.99 129.95 L 187.10 130.19 C 186.34 130.41 185.90 131.19 186.11 131.95 C 186.32 132.71 187.11 133.16 187.87 132.95 Z M 188.72 132.71 L 189.82 132.43 C 190.58 132.23 191.04 131.45 190.85 130.69 C 190.65 129.92 189.87 129.46 189.11 129.66 L 188.01 129.94 C 187.25 130.14 186.79 130.92 186.98 131.68 C 187.18 132.45 187.96 132.91 188.72 132.71 Z M 189.79 132.43 L 190.80 132.20 C 191.57 132.02 192.04 131.25 191.86 130.48 C 191.68 129.71 190.91 129.24 190.15 129.42 L 189.14 129.65 C 188.37 129.83 187.89 130.60 188.07 131.37 C 188.25 132.14 189.02 132.61 189.79 132.43 Z M 190.77 132.20 L 191.68 132.01 C 192.45 131.84 192.94 131.08 192.78 130.31 C 192.61 129.54 191.86 129.05 191.09 129.22 L 190.17 129.41 C 189.40 129.58 188.91 130.33 189.08 131.11 C 189.24 131.88 190.00 132.37 190.77 132.20 Z M 191.67 132.01 L 192.53 131.83 C 193.30 131.68 193.80 130.93 193.65 130.15 C 193.49 129.38 192.74 128.88 191.97 129.04 L 191.10 129.21 C 190.33 129.37 189.83 130.12 189.99 130.89 C 190.14 131.66 190.90 132.16 191.67 132.01 Z"
      fill="black"
      fill-rule="nonzero" /><path d="M 156.88 115.55 L 156.50 116.43 C 156.18 117.19 156.53 118.08 157.29 118.40 C 158.06 118.73 158.94 118.38 159.27 117.61 L 159.65 116.74 C 159.97 115.97 159.62 115.09 158.86 114.76 C 158.09 114.43 157.21 114.79 156.88 115.55 Z M 156.45 116.46 L 156.09 117.36 C 155.78 118.16 156.17 119.06 156.97 119.37 C 157.76 119.68 158.66 119.29 158.97 118.50 L 159.33 117.59 C 159.64 116.79 159.25 115.89 158.45 115.58 C 157.66 115.27 156.76 115.66 156.45 116.46 Z M 156.02 117.43 L 155.70 118.41 C 155.42 119.25 155.88 120.15 156.72 120.42 C 157.55 120.69 158.45 120.24 158.73 119.40 L 159.05 118.42 C 159.32 117.59 158.86 116.69 158.03 116.42 C 157.19 116.14 156.29 116.60 156.02 117.43 Z M 155.63 118.51 L 155.38 119.51 C 155.17 120.38 155.70 121.27 156.57 121.48 C 157.44 121.70 158.33 121.17 158.54 120.30 L 158.79 119.30 C 159.01 118.43 158.48 117.54 157.60 117.33 C 156.73 117.11 155.85 117.64 155.63 118.51 Z M 155.35 119.60 L 155.16 120.59 C 155.00 121.49 155.58 122.35 156.48 122.51 C 157.37 122.68 158.23 122.09 158.39 121.20 L 158.58 120.21 C 158.75 119.31 158.16 118.46 157.27 118.29 C 156.37 118.12 155.51 118.71 155.35 119.60 Z M 155.15 120.65 L 154.99 121.67 C 154.86 122.57 155.48 123.41 156.38 123.54 C 157.28 123.68 158.12 123.06 158.26 122.16 L 158.41 121.14 C 158.55 120.24 157.92 119.40 157.02 119.26 C 156.12 119.13 155.28 119.75 155.15 120.65 Z M 154.98 121.70 L 154.85 122.69 C 154.74 123.60 155.38 124.43 156.29 124.55 C 157.19 124.67 158.03 124.03 158.14 123.12 L 158.27 122.12 C 158.39 121.22 157.75 120.38 156.84 120.27 C 155.93 120.15 155.10 120.79 154.98 121.70 Z M 154.85 122.70 L 154.72 123.71 C 154.61 124.62 155.26 125.45 156.17 125.57 C 157.08 125.68 157.91 125.03 158.03 124.12 L 158.15 123.11 C 158.26 122.20 157.61 121.37 156.70 121.25 C 155.79 121.14 154.96 121.79 154.85 122.70 Z M 154.72 123.71 L 154.59 124.73 C 154.47 125.64 155.12 126.47 156.03 126.59 C 156.95 126.71 157.78 126.06 157.90 125.15 L 158.03 124.13 C 158.14 123.21 157.50 122.38 156.58 122.26 C 155.67 122.15 154.84 122.79 154.72 123.71 Z M 154.59 124.72 L 154.46 125.68 C 154.34 126.59 154.98 127.43 155.90 127.55 C 156.81 127.67 157.65 127.03 157.77 126.12 L 157.90 125.16 C 158.02 124.24 157.38 123.40 156.46 123.28 C 155.55 123.16 154.71 123.80 154.59 124.72 Z M 154.46 125.66 L 154.33 126.61 C 154.20 127.53 154.84 128.37 155.75 128.50 C 156.67 128.63 157.51 127.99 157.64 127.08 L 157.77 126.13 C 157.90 125.21 157.26 124.37 156.35 124.24 C 155.43 124.11 154.59 124.75 154.46 125.66 Z M 154.33 126.60 L 154.19 127.54 C 154.05 128.45 154.69 129.30 155.60 129.44 C 156.52 129.57 157.37 128.94 157.50 128.03 L 157.64 127.09 C 157.78 126.17 157.14 125.32 156.23 125.19 C 155.31 125.05 154.46 125.68 154.33 126.60 Z M 154.19 127.52 L 154.04 128.50 C 153.90 129.42 154.52 130.27 155.44 130.42 C 156.35 130.56 157.21 129.93 157.35 129.01 L 157.50 128.04 C 157.65 127.12 157.02 126.27 156.10 126.12 C 155.19 125.98 154.33 126.61 154.19 127.52 Z M 154.04 128.48 L 153.87 129.50 C 153.72 130.42 154.34 131.28 155.25 131.43 C 156.17 131.59 157.03 130.97 157.18 130.05 L 157.35 129.03 C 157.50 128.12 156.88 127.25 155.97 127.10 C 155.05 126.95 154.19 127.57 154.04 128.48 Z M 153.87 129.49 L 153.70 130.48 C 153.54 131.40 154.15 132.27 155.06 132.43 C 155.98 132.59 156.85 131.98 157.01 131.06 L 157.18 130.07 C 157.34 129.15 156.73 128.28 155.82 128.12 C 154.90 127.96 154.03 128.57 153.87 129.49 Z M 153.70 130.47 L 153.52 131.43 C 153.35 132.35 153.96 133.22 154.87 133.39 C 155.79 133.56 156.66 132.95 156.83 132.04 L 157.01 131.08 C 157.18 130.16 156.57 129.28 155.66 129.12 C 154.74 128.95 153.87 129.55 153.70 130.47 Z M 153.52 131.42 L 153.33 132.41 C 153.16 133.33 153.76 134.21 154.68 134.38 C 155.59 134.55 156.47 133.95 156.64 133.04 L 156.83 132.05 C 157.00 131.14 156.40 130.25 155.49 130.08 C 154.57 129.91 153.69 130.51 153.52 131.42 Z M 153.33 132.41 L 153.14 133.41 C 152.96 134.33 153.56 135.21 154.48 135.39 C 155.39 135.56 156.28 134.96 156.45 134.05 L 156.64 133.04 C 156.82 132.13 156.22 131.25 155.31 131.07 C 154.39 130.89 153.51 131.49 153.33 132.41 Z M 153.14 133.41 L 152.95 134.40 C 152.77 135.32 153.37 136.20 154.28 136.38 C 155.20 136.56 156.08 135.96 156.26 135.04 L 156.45 134.05 C 156.63 133.14 156.03 132.25 155.12 132.07 C 154.20 131.90 153.32 132.49 153.14 133.41 Z M 152.95 134.40 L 152.76 135.37 C 152.58 136.29 153.18 137.17 154.09 137.35 C 155.01 137.53 155.89 136.93 156.07 136.02 L 156.26 135.04 C 156.44 134.13 155.84 133.24 154.93 133.06 C 154.01 132.89 153.12 133.48 152.95 134.40 Z M 152.76 135.37 L 152.56 136.35 C 152.38 137.26 152.98 138.15 153.90 138.33 C 154.81 138.51 155.70 137.91 155.88 137.00 L 156.07 136.02 C 156.25 135.10 155.66 134.21 154.74 134.03 C 153.82 133.86 152.93 134.45 152.76 135.37 Z M 152.56 136.34 L 152.37 137.33 C 152.19 138.24 152.78 139.14 153.70 139.32 C 154.61 139.50 155.50 138.90 155.69 137.99 L 155.88 137.00 C 156.06 136.08 155.47 135.19 154.55 135.01 C 153.64 134.83 152.75 135.43 152.56 136.34 Z M 152.37 137.32 L 152.17 138.31 C 151.98 139.23 152.58 140.12 153.49 140.30 C 154.41 140.49 155.30 139.90 155.49 138.98 L 155.69 137.99 C 155.87 137.08 155.28 136.18 154.36 136.00 C 153.45 135.81 152.55 136.41 152.37 137.32 Z M 152.17 138.30 L 151.97 139.26 C 151.78 140.18 152.37 141.08 153.29 141.26 C 154.20 141.45 155.10 140.87 155.29 139.95 L 155.49 138.99 C 155.68 138.07 155.09 137.17 154.17 136.98 C 153.25 136.80 152.36 137.38 152.17 138.30 Z M 151.97 139.25 L 151.76 140.23 C 151.57 141.14 152.15 142.04 153.07 142.24 C 153.98 142.43 154.89 141.85 155.08 140.93 L 155.29 139.96 C 155.48 139.04 154.90 138.14 153.98 137.95 C 153.07 137.75 152.17 138.34 151.97 139.25 Z M 151.76 140.21 L 151.55 141.20 C 151.34 142.11 151.92 143.02 152.84 143.22 C 153.75 143.42 154.66 142.84 154.86 141.93 L 155.08 140.95 C 155.28 140.03 154.70 139.12 153.79 138.92 C 152.87 138.72 151.97 139.30 151.76 140.21 Z M 151.55 141.18 L 151.32 142.17 C 151.11 143.09 151.68 144.00 152.59 144.21 C 153.51 144.42 154.42 143.85 154.63 142.94 L 154.86 141.94 C 155.07 141.03 154.50 140.12 153.59 139.91 C 152.67 139.70 151.76 140.27 151.55 141.18 Z M 151.32 142.15 L 151.09 143.12 C 150.87 144.03 151.43 144.95 152.34 145.17 C 153.25 145.39 154.17 144.83 154.39 143.92 L 154.63 142.95 C 154.85 142.04 154.29 141.12 153.38 140.90 C 152.46 140.68 151.54 141.24 151.32 142.15 Z M 151.09 143.10 L 150.85 144.06 C 150.62 144.97 151.17 145.89 152.08 146.13 C 152.99 146.36 153.92 145.80 154.15 144.89 L 154.39 143.93 C 154.62 143.02 154.07 142.10 153.16 141.87 C 152.25 141.64 151.32 142.19 151.09 143.10 Z M 150.86 144.04 L 150.60 145.01 C 150.36 145.92 150.90 146.85 151.81 147.09 C 152.72 147.33 153.65 146.79 153.89 145.88 L 154.14 144.91 C 154.38 144.00 153.84 143.07 152.93 142.83 C 152.03 142.59 151.10 143.13 150.86 144.04 Z M 150.60 144.99 L 150.34 145.96 C 150.09 146.87 150.62 147.81 151.52 148.06 C 152.43 148.30 153.37 147.77 153.62 146.87 L 153.88 145.89 C 154.13 144.99 153.60 144.05 152.69 143.80 C 151.79 143.55 150.85 144.09 150.60 144.99 Z M 150.34 145.95 L 150.06 146.92 C 149.80 147.83 150.33 148.77 151.23 149.02 C 152.13 149.28 153.07 148.76 153.33 147.86 L 153.61 146.88 C 153.87 145.98 153.35 145.04 152.44 144.78 C 151.54 144.52 150.60 145.05 150.34 145.95 Z M 150.07 146.91 L 149.79 147.86 C 149.52 148.76 150.03 149.70 150.93 149.97 C 151.83 150.24 152.78 149.72 153.05 148.82 L 153.33 147.87 C 153.59 146.97 153.08 146.03 152.18 145.76 C 151.28 145.49 150.33 146.01 150.07 146.91 Z M 149.79 147.84 L 149.50 148.80 C 149.22 149.69 149.73 150.64 150.63 150.92 C 151.53 151.19 152.48 150.69 152.75 149.79 L 153.04 148.84 C 153.32 147.94 152.81 146.99 151.91 146.71 C 151.01 146.44 150.06 146.94 149.79 147.84 Z M 149.50 148.78 L 149.20 149.74 C 148.92 150.64 149.42 151.59 150.32 151.87 C 151.21 152.15 152.17 151.65 152.45 150.76 L 152.75 149.80 C 153.03 148.90 152.53 147.95 151.63 147.67 C 150.74 147.39 149.78 147.89 149.50 148.78 Z M 149.21 149.73 L 148.90 150.69 C 148.61 151.58 149.10 152.54 150.00 152.83 C 150.89 153.11 151.85 152.62 152.14 151.73 L 152.44 150.77 C 152.73 149.87 152.24 148.92 151.34 148.63 C 150.45 148.34 149.49 148.84 149.21 149.73 Z M 148.90 150.68 L 148.59 151.63 C 148.30 152.52 148.79 153.48 149.68 153.77 C 150.57 154.06 151.53 153.58 151.82 152.69 L 152.13 151.74 C 152.42 150.84 151.94 149.88 151.05 149.59 C 150.15 149.30 149.19 149.79 148.90 150.68 Z M 148.60 151.62 L 148.29 152.55 C 147.99 153.44 148.47 154.40 149.36 154.70 C 150.25 155.00 151.21 154.51 151.51 153.62 L 151.82 152.69 C 152.11 151.80 151.63 150.84 150.74 150.55 C 149.85 150.25 148.89 150.73 148.60 151.62 Z M 148.29 152.54 L 147.97 153.48 C 147.67 154.37 148.15 155.33 149.04 155.63 C 149.92 155.93 150.89 155.46 151.19 154.57 L 151.50 153.63 C 151.81 152.74 151.33 151.78 150.44 151.48 C 149.55 151.18 148.59 151.66 148.29 152.54 Z M 147.98 153.47 L 147.65 154.42 C 147.35 155.30 147.82 156.27 148.71 156.57 C 149.59 156.88 150.56 156.41 150.86 155.52 L 151.18 154.57 C 151.49 153.69 151.02 152.72 150.13 152.42 C 149.24 152.11 148.28 152.59 147.98 153.47 Z M 147.65 154.41 L 147.32 155.37 C 147.01 156.26 147.48 157.22 148.37 157.53 C 149.25 157.84 150.22 157.37 150.52 156.48 L 150.86 155.52 C 151.16 154.64 150.70 153.67 149.81 153.37 C 148.93 153.06 147.96 153.53 147.65 154.41 Z M 147.32 155.37 L 146.99 156.33 C 146.68 157.21 147.14 158.18 148.02 158.49 C 148.91 158.80 149.87 158.34 150.18 157.45 L 150.52 156.49 C 150.83 155.61 150.37 154.64 149.48 154.33 C 148.60 154.02 147.63 154.49 147.32 155.37 Z M 146.99 156.33 L 146.65 157.28 C 146.34 158.16 146.80 159.12 147.68 159.44 C 148.56 159.75 149.53 159.29 149.84 158.41 L 150.18 157.46 C 150.49 156.58 150.03 155.61 149.15 155.30 C 148.27 154.99 147.30 155.45 146.99 156.33 Z M 146.66 157.27 L 146.31 158.22 C 146.00 159.10 146.45 160.07 147.33 160.39 C 148.21 160.70 149.18 160.25 149.49 159.37 L 149.84 158.42 C 150.15 157.54 149.70 156.57 148.82 156.25 C 147.94 155.94 146.97 156.39 146.66 157.27 Z M 146.32 158.21 L 145.97 159.16 C 145.65 160.04 146.09 161.01 146.97 161.33 C 147.84 161.65 148.82 161.20 149.14 160.33 L 149.49 159.38 C 149.81 158.51 149.36 157.54 148.49 157.21 C 147.61 156.89 146.64 157.34 146.32 158.21 Z M 145.98 159.15 L 145.62 160.08 C 145.29 160.95 145.73 161.92 146.60 162.25 C 147.47 162.58 148.45 162.14 148.78 161.27 L 149.13 160.34 C 149.46 159.47 149.02 158.50 148.15 158.17 C 147.28 157.84 146.31 158.27 145.98 159.15 Z M 145.63 160.06 L 145.27 160.97 C 144.93 161.84 145.36 162.81 146.22 163.16 C 147.09 163.50 148.07 163.07 148.41 162.20 L 148.77 161.29 C 149.11 160.43 148.68 159.45 147.82 159.11 C 146.95 158.77 145.97 159.19 145.63 160.06 Z M 145.29 160.95 L 144.89 161.91 C 144.53 162.77 144.94 163.75 145.80 164.11 C 146.66 164.46 147.65 164.05 148.00 163.19 L 148.40 162.23 C 148.75 161.37 148.34 160.38 147.48 160.03 C 146.62 159.68 145.64 160.09 145.29 160.95 Z M 144.90 161.89 L 144.50 162.82 C 144.14 163.67 144.53 164.66 145.38 165.02 C 146.24 165.39 147.22 164.99 147.59 164.14 L 147.99 163.21 C 148.35 162.36 147.96 161.37 147.11 161.01 C 146.26 160.64 145.27 161.04 144.90 161.89 Z M 144.52 162.80 L 144.11 163.70 C 143.74 164.54 144.12 165.53 144.96 165.91 C 145.81 166.29 146.80 165.91 147.18 165.06 L 147.58 164.16 C 147.95 163.31 147.57 162.32 146.73 161.95 C 145.88 161.57 144.89 161.95 144.52 162.80 Z M 144.13 163.68 L 143.72 164.57 C 143.34 165.41 143.70 166.40 144.54 166.78 C 145.38 167.17 146.38 166.80 146.76 165.96 L 147.17 165.08 C 147.55 164.24 147.18 163.24 146.34 162.86 C 145.50 162.47 144.51 162.84 144.13 163.68 Z M 143.73 164.56 L 143.31 165.45 C 142.92 166.28 143.28 167.28 144.12 167.67 C 144.95 168.06 145.94 167.70 146.33 166.86 L 146.75 165.97 C 147.14 165.13 146.78 164.14 145.95 163.75 C 145.11 163.36 144.12 163.72 143.73 164.56 Z M 143.32 165.44 L 142.89 166.35 C 142.49 167.18 142.85 168.17 143.68 168.57 C 144.51 168.96 145.50 168.61 145.90 167.78 L 146.33 166.87 C 146.72 166.04 146.37 165.05 145.54 164.65 C 144.71 164.26 143.71 164.61 143.32 165.44 Z M 142.90 166.34 L 142.46 167.25 C 142.06 168.07 142.41 169.07 143.24 169.46 C 144.06 169.86 145.05 169.51 145.45 168.69 L 145.89 167.78 C 146.29 166.96 145.94 165.97 145.11 165.57 C 144.29 165.17 143.29 165.52 142.90 166.34 Z M 142.47 167.24 L 142.03 168.14 C 141.63 168.96 141.97 169.95 142.79 170.35 C 143.61 170.76 144.60 170.41 145.01 169.59 L 145.44 168.70 C 145.85 167.87 145.51 166.88 144.68 166.48 C 143.86 166.08 142.87 166.42 142.47 167.24 Z M 142.04 168.13 L 141.60 169.02 C 141.19 169.84 141.53 170.83 142.34 171.23 C 143.16 171.64 144.15 171.30 144.56 170.49 L 145.00 169.60 C 145.40 168.78 145.07 167.79 144.25 167.39 C 143.43 166.98 142.44 167.32 142.04 168.13 Z M 141.61 169.01 L 141.15 169.93 C 140.74 170.74 141.07 171.73 141.88 172.14 C 142.69 172.55 143.68 172.22 144.09 171.41 L 144.55 170.49 C 144.96 169.68 144.63 168.69 143.82 168.28 C 143.01 167.87 142.02 168.20 141.61 169.01 Z M 141.16 169.92 L 140.70 170.82 C 140.29 171.63 140.60 172.61 141.41 173.03 C 142.21 173.44 143.20 173.12 143.61 172.32 L 144.08 171.41 C 144.49 170.61 144.17 169.62 143.37 169.21 C 142.56 168.80 141.57 169.11 141.16 169.92 Z M 140.71 170.81 L 140.25 171.70 C 139.83 172.49 140.14 173.48 140.94 173.90 C 141.74 174.31 142.72 174.01 143.14 173.21 L 143.60 172.32 C 144.02 171.52 143.71 170.54 142.91 170.12 C 142.11 169.70 141.13 170.01 140.71 170.81 Z M 140.26 171.69 L 139.80 172.55 C 139.38 173.34 139.68 174.32 140.47 174.75 C 141.26 175.17 142.24 174.87 142.67 174.08 L 143.13 173.22 C 143.55 172.43 143.25 171.44 142.46 171.02 C 141.67 170.60 140.69 170.89 140.26 171.69 Z M 139.82 172.54 L 139.33 173.43 C 138.90 174.21 139.19 175.20 139.97 175.62 C 140.75 176.05 141.73 175.77 142.16 174.98 L 142.65 174.09 C 143.08 173.31 142.79 172.33 142.01 171.90 C 141.23 171.47 140.24 171.76 139.82 172.54 Z M 139.34 173.42 L 138.84 174.31 C 138.41 175.08 138.68 176.07 139.46 176.50 C 140.23 176.94 141.21 176.66 141.65 175.89 L 142.15 174.99 C 142.58 174.22 142.31 173.24 141.53 172.80 C 140.76 172.37 139.78 172.64 139.34 173.42 Z M 138.86 174.30 L 138.36 175.16 C 137.92 175.93 138.18 176.91 138.95 177.35 C 139.71 177.79 140.69 177.53 141.13 176.76 L 141.63 175.90 C 142.07 175.13 141.81 174.15 141.04 173.71 C 140.28 173.27 139.30 173.53 138.86 174.30 Z M 138.38 175.15 L 137.88 175.98 C 137.43 176.74 137.68 177.72 138.44 178.16 C 139.20 178.61 140.17 178.36 140.62 177.61 L 141.12 176.77 C 141.56 176.02 141.31 175.04 140.56 174.59 C 139.80 174.14 138.82 174.39 138.38 175.15 Z M 137.90 175.97 L 137.41 176.78 C 136.96 177.53 137.19 178.50 137.94 178.95 C 138.69 179.41 139.66 179.17 140.12 178.42 L 140.61 177.62 C 141.06 176.87 140.82 175.89 140.07 175.44 C 139.33 174.99 138.35 175.23 137.90 175.97 Z M 137.43 176.77 L 136.93 177.57 C 136.47 178.31 136.70 179.28 137.43 179.74 C 138.17 180.20 139.14 179.97 139.60 179.23 L 140.10 178.43 C 140.56 177.69 140.33 176.72 139.60 176.26 C 138.86 175.80 137.89 176.03 137.43 176.77 Z M 136.95 177.56 L 136.42 178.39 C 135.95 179.12 136.16 180.09 136.89 180.55 C 137.62 181.02 138.59 180.80 139.06 180.07 L 139.59 179.24 C 140.05 178.51 139.84 177.54 139.11 177.08 C 138.38 176.61 137.41 176.83 136.95 177.56 Z M 136.43 178.38 L 135.84 179.29 C 135.37 180.01 135.58 180.97 136.30 181.44 C 137.02 181.91 137.99 181.70 138.45 180.98 L 139.04 180.08 C 139.51 179.36 139.30 178.39 138.58 177.93 C 137.86 177.46 136.90 177.66 136.43 178.38 Z M 135.85 179.28 L 135.32 180.10 C 134.85 180.82 135.04 181.78 135.76 182.25 C 136.47 182.72 137.43 182.52 137.90 181.81 L 138.44 180.99 C 138.91 180.27 138.71 179.31 138.00 178.84 C 137.29 178.37 136.32 178.57 135.85 179.28 Z M 135.33 180.09 L 134.78 180.91 C 134.30 181.62 134.49 182.57 135.20 183.05 C 135.90 183.53 136.86 183.34 137.34 182.64 L 137.89 181.82 C 138.36 181.11 138.18 180.15 137.47 179.68 C 136.77 179.20 135.81 179.39 135.33 180.09 Z M 134.80 180.89 L 134.21 181.72 C 133.72 182.41 133.89 183.37 134.58 183.86 C 135.27 184.35 136.23 184.19 136.72 183.49 L 137.31 182.66 C 137.80 181.97 137.64 181.01 136.94 180.52 C 136.25 180.03 135.29 180.19 134.80 180.89 Z M 134.25 181.69 L 133.63 182.51 C 133.12 183.18 133.25 184.14 133.92 184.65 C 134.60 185.16 135.56 185.03 136.07 184.35 L 136.69 183.53 C 137.20 182.86 137.06 181.90 136.39 181.39 C 135.71 180.88 134.76 181.01 134.25 181.69 Z M 133.67 182.46 L 133.03 183.24 C 132.49 183.89 132.58 184.85 133.23 185.39 C 133.88 185.92 134.84 185.83 135.37 185.18 L 136.02 184.40 C 136.56 183.75 136.46 182.79 135.82 182.26 C 135.17 181.72 134.21 181.81 133.67 182.46 Z M 133.09 183.18 L 132.38 183.94 C 131.81 184.55 131.84 185.51 132.45 186.08 C 133.06 186.65 134.02 186.62 134.59 186.01 L 135.31 185.25 C 135.88 184.64 135.85 183.68 135.23 183.11 C 134.62 182.54 133.67 182.57 133.09 183.18 Z M 132.46 183.88 L 131.71 184.58 C 131.11 185.14 131.07 186.09 131.64 186.70 C 132.21 187.31 133.16 187.34 133.77 186.77 L 134.52 186.07 C 135.12 185.50 135.15 184.55 134.59 183.95 C 134.02 183.34 133.07 183.31 132.46 183.88 Z M 131.78 184.53 L 131.02 185.17 C 130.39 185.70 130.31 186.64 130.84 187.27 C 131.37 187.90 132.31 187.98 132.94 187.45 L 133.70 186.82 C 134.33 186.29 134.41 185.35 133.88 184.72 C 133.35 184.08 132.41 184.00 131.78 184.53 Z M 131.07 185.14 L 130.30 185.74 C 129.66 186.24 129.54 187.17 130.04 187.81 C 130.54 188.46 131.47 188.58 132.12 188.08 L 132.89 187.48 C 133.53 186.98 133.65 186.05 133.15 185.40 C 132.65 184.76 131.72 184.64 131.07 185.14 Z M 130.33 185.73 L 129.60 186.27 C 128.95 186.76 128.82 187.68 129.30 188.33 C 129.79 188.98 130.71 189.11 131.36 188.63 L 132.09 188.08 C 132.74 187.60 132.88 186.68 132.39 186.03 C 131.90 185.38 130.98 185.24 130.33 185.73 Z"
      fill="black"
      fill-rule="nonzero" /><path d="M 152.63 162.67 L 153.55 162.71 C 154.40 162.75 155.12 162.09 155.16 161.24 C 155.20 160.39 154.54 159.67 153.69 159.62 L 152.78 159.58 C 151.93 159.54 151.20 160.20 151.16 161.05 C 151.12 161.90 151.78 162.63 152.63 162.67 Z M 153.47 162.72 L 154.41 162.81 C 155.27 162.90 156.04 162.27 156.12 161.41 C 156.20 160.55 155.57 159.79 154.71 159.71 L 153.77 159.61 C 152.91 159.53 152.15 160.16 152.06 161.02 C 151.98 161.88 152.61 162.64 153.47 162.72 Z M 154.27 162.81 L 155.28 163.00 C 156.14 163.16 156.96 162.60 157.12 161.74 C 157.28 160.88 156.72 160.06 155.86 159.90 L 154.86 159.71 C 154.00 159.55 153.17 160.11 153.01 160.97 C 152.85 161.83 153.42 162.65 154.27 162.81 Z M 155.11 162.98 L 156.14 163.28 C 156.98 163.54 157.87 163.06 158.13 162.21 C 158.38 161.37 157.90 160.48 157.05 160.23 L 156.03 159.92 C 155.19 159.67 154.30 160.15 154.04 160.99 C 153.79 161.84 154.27 162.72 155.11 162.98 Z M 156.01 163.25 L 156.82 163.57 C 157.65 163.90 158.58 163.49 158.90 162.66 C 159.23 161.84 158.82 160.91 158.00 160.58 L 157.19 160.26 C 156.36 159.94 155.43 160.34 155.10 161.17 C 154.78 161.99 155.18 162.92 156.01 163.25 Z M 156.74 163.54 L 157.60 163.94 C 158.41 164.31 159.37 163.95 159.74 163.14 C 160.11 162.33 159.75 161.37 158.94 161.00 L 158.08 160.61 C 157.27 160.24 156.31 160.59 155.94 161.40 C 155.57 162.22 155.93 163.17 156.74 163.54 Z M 157.54 163.92 L 158.44 164.37 C 159.24 164.77 160.21 164.45 160.62 163.65 C 161.02 162.85 160.70 161.88 159.90 161.48 L 159.00 161.02 C 158.20 160.62 157.23 160.94 156.82 161.74 C 156.42 162.54 156.74 163.51 157.54 163.92 Z M 158.39 164.36 L 159.33 164.86 C 160.12 165.29 161.11 165.00 161.53 164.20 C 161.96 163.41 161.67 162.42 160.88 162.00 L 159.94 161.49 C 159.15 161.06 158.17 161.36 157.74 162.15 C 157.31 162.94 157.60 163.93 158.39 164.36 Z M 159.29 164.85 L 160.25 165.40 C 161.04 165.84 162.04 165.57 162.48 164.78 C 162.93 164.00 162.66 163.00 161.87 162.55 L 160.91 162.01 C 160.13 161.56 159.13 161.83 158.68 162.62 C 158.23 163.41 158.51 164.40 159.29 164.85 Z M 160.23 165.39 L 161.14 165.93 C 161.93 166.39 162.93 166.13 163.39 165.34 C 163.85 164.56 163.59 163.55 162.81 163.10 L 161.89 162.56 C 161.11 162.10 160.10 162.36 159.65 163.14 C 159.19 163.93 159.45 164.93 160.23 165.39 Z M 161.13 165.92 L 162.02 166.46 C 162.80 166.92 163.81 166.67 164.28 165.89 C 164.74 165.11 164.49 164.10 163.71 163.63 L 162.82 163.10 C 162.04 162.63 161.03 162.89 160.56 163.67 C 160.10 164.45 160.35 165.46 161.13 165.92 Z M 162.01 166.45 L 162.89 166.99 C 163.67 167.46 164.69 167.22 165.16 166.44 C 165.63 165.66 165.38 164.64 164.61 164.17 L 163.72 163.63 C 162.94 163.16 161.93 163.41 161.45 164.19 C 160.98 164.97 161.23 165.98 162.01 166.45 Z M 162.89 166.99 L 163.76 167.52 C 164.53 168.00 165.55 167.76 166.03 166.98 C 166.51 166.20 166.26 165.18 165.48 164.70 L 164.61 164.17 C 163.83 163.70 162.82 163.94 162.34 164.72 C 161.86 165.50 162.11 166.51 162.89 166.99 Z M 163.75 167.53 L 164.60 168.04 C 165.38 168.52 166.40 168.28 166.88 167.50 C 167.35 166.72 167.11 165.70 166.33 165.22 L 165.49 164.70 C 164.71 164.22 163.69 164.47 163.21 165.25 C 162.73 166.03 162.97 167.05 163.75 167.53 Z M 164.60 168.05 L 165.41 168.54 C 166.19 169.02 167.21 168.78 167.69 167.99 C 168.17 167.21 167.92 166.19 167.14 165.71 L 166.33 165.22 C 165.55 164.74 164.53 164.99 164.05 165.77 C 163.57 166.55 163.82 167.57 164.60 168.05 Z M 165.41 168.55 L 166.28 169.08 C 167.07 169.55 168.09 169.30 168.57 168.52 C 169.04 167.73 168.79 166.71 168.00 166.23 L 167.13 165.71 C 166.35 165.23 165.33 165.48 164.85 166.27 C 164.38 167.05 164.63 168.07 165.41 168.55 Z M 166.29 169.08 L 167.21 169.63 C 168.00 170.10 169.02 169.84 169.49 169.05 C 169.96 168.26 169.70 167.24 168.91 166.77 L 168.00 166.23 C 167.21 165.76 166.19 166.02 165.72 166.80 C 165.25 167.59 165.50 168.61 166.29 169.08 Z M 167.22 169.63 L 168.08 170.14 C 168.87 170.60 169.89 170.34 170.35 169.55 C 170.82 168.75 170.55 167.73 169.76 167.27 L 168.90 166.77 C 168.11 166.30 167.09 166.57 166.63 167.36 C 166.16 168.15 166.42 169.17 167.22 169.63 Z M 168.08 170.14 L 168.90 170.62 C 169.70 171.08 170.72 170.82 171.18 170.02 C 171.64 169.23 171.37 168.21 170.58 167.75 L 169.76 167.27 C 168.96 166.80 167.94 167.07 167.48 167.87 C 167.02 168.66 167.29 169.68 168.08 170.14 Z M 168.90 170.62 L 169.71 171.09 C 170.50 171.56 171.52 171.29 171.99 170.49 C 172.45 169.70 172.18 168.68 171.39 168.22 L 170.58 167.75 C 169.79 167.28 168.77 167.55 168.30 168.35 C 167.84 169.14 168.11 170.16 168.90 170.62 Z M 169.71 171.09 L 170.53 171.57 C 171.32 172.04 172.34 171.77 172.81 170.98 C 173.27 170.19 173.01 169.17 172.22 168.70 L 171.39 168.22 C 170.60 167.75 169.58 168.02 169.11 168.81 C 168.65 169.60 168.91 170.62 169.71 171.09 Z M 170.53 171.57 L 171.37 172.07 C 172.16 172.53 173.18 172.27 173.65 171.48 C 174.11 170.69 173.85 169.67 173.06 169.20 L 172.22 168.70 C 171.42 168.24 170.40 168.50 169.94 169.29 C 169.47 170.09 169.74 171.11 170.53 171.57 Z M 171.37 172.07 L 172.23 172.57 C 173.03 173.04 174.05 172.77 174.51 171.98 C 174.97 171.18 174.71 170.16 173.91 169.70 L 173.05 169.20 C 172.26 168.73 171.24 169.00 170.78 169.79 C 170.31 170.59 170.58 171.61 171.37 172.07 Z M 172.25 172.58 L 173.13 173.09 C 173.92 173.54 174.94 173.27 175.40 172.47 C 175.86 171.68 175.58 170.66 174.79 170.20 L 173.90 169.70 C 173.11 169.24 172.09 169.51 171.63 170.31 C 171.18 171.10 171.45 172.12 172.25 172.58 Z M 173.14 173.09 L 174.05 173.60 C 174.85 174.05 175.86 173.76 176.31 172.96 C 176.76 172.16 176.47 171.15 175.67 170.70 L 174.77 170.20 C 173.97 169.75 172.96 170.03 172.51 170.83 C 172.06 171.63 172.34 172.65 173.14 173.09 Z M 174.07 173.61 L 174.94 174.08 C 175.74 174.52 176.75 174.22 177.19 173.42 C 177.63 172.61 177.33 171.61 176.52 171.17 L 175.65 170.69 C 174.85 170.26 173.84 170.55 173.40 171.36 C 172.96 172.16 173.26 173.17 174.07 173.61 Z M 174.95 174.09 L 175.84 174.56 C 176.65 174.99 177.65 174.68 178.08 173.87 C 178.51 173.06 178.20 172.06 177.39 171.63 L 176.51 171.16 C 175.70 170.73 174.70 171.04 174.27 171.85 C 173.84 172.66 174.14 173.66 174.95 174.09 Z M 175.85 174.56 L 176.74 175.03 C 177.55 175.45 178.56 175.14 178.98 174.33 C 179.40 173.52 179.09 172.52 178.28 172.09 L 177.38 171.63 C 176.57 171.20 175.57 171.52 175.15 172.33 C 174.72 173.14 175.04 174.14 175.85 174.56 Z M 176.75 175.03 L 177.65 175.49 C 178.46 175.91 179.46 175.59 179.88 174.78 C 180.29 173.97 179.97 172.97 179.16 172.55 L 178.27 172.09 C 177.45 171.67 176.46 171.99 176.04 172.81 C 175.62 173.62 175.94 174.62 176.75 175.03 Z M 177.65 175.49 L 178.54 175.95 C 179.36 176.36 180.35 176.04 180.77 175.22 C 181.18 174.41 180.86 173.42 180.04 173.00 L 179.15 172.55 C 178.34 172.13 177.35 172.46 176.93 173.27 C 176.52 174.09 176.84 175.08 177.65 175.49 Z M 178.55 175.95 L 179.47 176.41 C 180.28 176.82 181.27 176.50 181.69 175.68 C 182.10 174.87 181.77 173.88 180.96 173.47 L 180.04 173.00 C 179.22 172.59 178.23 172.92 177.82 173.73 C 177.41 174.54 177.74 175.54 178.55 175.95 Z M 179.48 176.41 L 180.38 176.87 C 181.19 177.27 182.18 176.94 182.59 176.13 C 183.00 175.32 182.67 174.33 181.86 173.92 L 180.95 173.47 C 180.14 173.06 179.15 173.39 178.74 174.20 C 178.33 175.01 178.66 176.00 179.48 176.41 Z M 180.39 176.87 L 181.28 177.31 C 182.09 177.71 183.08 177.38 183.48 176.56 C 183.89 175.75 183.55 174.76 182.74 174.36 L 181.85 173.92 C 181.03 173.51 180.05 173.85 179.64 174.66 C 179.24 175.48 179.57 176.46 180.39 176.87 Z M 181.29 177.31 L 182.17 177.74 C 182.99 178.14 183.97 177.80 184.37 176.98 C 184.76 176.17 184.43 175.18 183.61 174.79 L 182.73 174.36 C 181.91 173.96 180.93 174.30 180.53 175.11 C 180.14 175.93 180.47 176.91 181.29 177.31 Z M 182.18 177.74 L 183.08 178.17 C 183.89 178.56 184.87 178.21 185.26 177.40 C 185.65 176.58 185.31 175.60 184.49 175.21 L 183.60 174.78 C 182.78 174.39 181.80 174.74 181.41 175.56 C 181.02 176.37 181.37 177.35 182.18 177.74 Z M 183.09 178.17 L 184.01 178.60 C 184.83 178.98 185.80 178.63 186.19 177.81 C 186.57 176.99 186.21 176.02 185.40 175.64 L 184.47 175.21 C 183.66 174.83 182.68 175.18 182.30 176.00 C 181.92 176.82 182.27 177.79 183.09 178.17 Z M 184.03 178.60 L 184.95 179.02 C 185.77 179.39 186.73 179.03 187.10 178.21 C 187.47 177.39 187.11 176.42 186.29 176.05 L 185.38 175.64 C 184.56 175.27 183.59 175.63 183.22 176.45 C 182.85 177.27 183.21 178.23 184.03 178.60 Z M 184.97 179.02 L 185.88 179.42 C 186.70 179.78 187.66 179.41 188.02 178.59 C 188.38 177.77 188.00 176.81 187.18 176.45 L 186.27 176.05 C 185.45 175.69 184.50 176.06 184.14 176.88 C 183.77 177.70 184.15 178.66 184.97 179.02 Z M 185.90 179.42 L 186.80 179.81 C 187.63 180.15 188.57 179.77 188.92 178.95 C 189.27 178.12 188.88 177.17 188.06 176.83 L 187.16 176.45 C 186.34 176.10 185.39 176.48 185.04 177.31 C 184.69 178.13 185.08 179.08 185.90 179.42 Z M 186.83 179.81 L 187.77 180.19 C 188.60 180.52 189.54 180.12 189.87 179.30 C 190.20 178.48 189.80 177.54 188.98 177.21 L 188.04 176.82 C 187.21 176.49 186.27 176.89 185.94 177.71 C 185.61 178.54 186.01 179.48 186.83 179.81 Z M 187.80 180.19 L 188.75 180.56 C 189.57 180.87 190.50 180.46 190.82 179.64 C 191.13 178.81 190.72 177.89 189.90 177.57 L 188.95 177.20 C 188.13 176.89 187.20 177.30 186.88 178.12 C 186.57 178.95 186.98 179.87 187.80 180.19 Z M 188.77 180.55 L 189.71 180.90 C 190.53 181.21 191.45 180.78 191.75 179.96 C 192.06 179.14 191.63 178.22 190.81 177.92 L 189.87 177.57 C 189.05 177.26 188.13 177.69 187.83 178.51 C 187.53 179.34 187.95 180.25 188.77 180.55 Z M 189.73 180.90 L 190.65 181.23 C 191.47 181.52 192.38 181.09 192.67 180.27 C 192.96 179.44 192.53 178.54 191.71 178.25 L 190.79 177.92 C 189.96 177.62 189.06 178.05 188.77 178.88 C 188.47 179.70 188.90 180.61 189.73 180.90 Z M 190.67 181.22 L 191.62 181.55 C 192.44 181.83 193.34 181.39 193.62 180.57 C 193.90 179.75 193.46 178.86 192.64 178.58 L 191.69 178.25 C 190.87 177.97 189.98 178.40 189.69 179.23 C 189.41 180.05 189.85 180.94 190.67 181.22 Z M 191.64 181.54 L 192.61 181.86 C 193.43 182.13 194.31 181.69 194.58 180.87 C 194.85 180.05 194.40 179.17 193.59 178.90 L 192.62 178.58 C 191.80 178.31 190.92 178.76 190.65 179.57 C 190.38 180.39 190.82 181.27 191.64 181.54 Z M 192.63 181.86 L 193.59 182.16 C 194.40 182.41 195.27 181.96 195.52 181.14 C 195.78 180.33 195.32 179.46 194.51 179.20 L 193.56 178.90 C 192.74 178.65 191.88 179.10 191.62 179.92 C 191.37 180.73 191.82 181.60 192.63 181.86 Z M 193.62 182.15 L 194.56 182.43 C 195.37 182.66 196.22 182.20 196.46 181.38 C 196.70 180.57 196.23 179.72 195.42 179.48 L 194.48 179.21 C 193.66 178.97 192.81 179.44 192.57 180.25 C 192.34 181.06 192.80 181.91 193.62 182.15 Z M 194.59 182.42 L 195.54 182.68 C 196.35 182.89 197.19 182.41 197.40 181.60 C 197.62 180.79 197.14 179.96 196.33 179.74 L 195.38 179.48 C 194.57 179.27 193.73 179.75 193.52 180.56 C 193.30 181.37 193.78 182.21 194.59 182.42 Z M 195.58 182.67 L 196.54 182.90 C 197.35 183.10 198.16 182.60 198.36 181.79 C 198.55 180.99 198.06 180.17 197.25 179.97 L 196.29 179.74 C 195.48 179.55 194.67 180.04 194.47 180.85 C 194.27 181.66 194.77 182.48 195.58 182.67 Z M 196.57 182.90 L 197.55 183.11 C 198.35 183.29 199.15 182.78 199.33 181.97 C 199.50 181.17 198.99 180.37 198.18 180.19 L 197.21 179.98 C 196.41 179.80 195.61 180.31 195.43 181.12 C 195.26 181.93 195.77 182.72 196.57 182.90 Z M 197.58 183.10 L 198.58 183.30 C 199.38 183.46 200.16 182.94 200.32 182.14 C 200.48 181.34 199.96 180.56 199.16 180.40 L 198.15 180.20 C 197.35 180.04 196.57 180.56 196.41 181.36 C 196.25 182.17 196.78 182.95 197.58 183.10 Z M 198.61 183.30 L 199.59 183.47 C 200.39 183.62 201.15 183.09 201.30 182.29 C 201.44 181.49 200.91 180.73 200.11 180.58 L 199.13 180.40 C 198.33 180.26 197.57 180.79 197.42 181.59 C 197.28 182.39 197.81 183.15 198.61 183.30 Z M 199.61 183.47 L 200.61 183.63 C 201.41 183.77 202.16 183.23 202.29 182.43 C 202.42 181.63 201.88 180.88 201.08 180.75 L 200.09 180.59 C 199.29 180.45 198.54 180.99 198.41 181.79 C 198.28 182.59 198.82 183.34 199.61 183.47 Z M 200.63 183.63 L 201.63 183.78 C 202.43 183.90 203.17 183.35 203.28 182.55 C 203.40 181.76 202.85 181.02 202.06 180.90 L 201.06 180.75 C 200.27 180.64 199.53 181.18 199.41 181.98 C 199.29 182.77 199.84 183.51 200.63 183.63 Z M 201.66 183.77 L 202.64 183.90 C 203.43 184.01 204.16 183.45 204.26 182.66 C 204.37 181.87 203.81 181.14 203.02 181.04 L 202.03 180.91 C 201.24 180.80 200.52 181.36 200.41 182.15 C 200.31 182.94 200.87 183.67 201.66 183.77 Z M 202.67 183.90 L 203.69 184.01 C 204.48 184.10 205.19 183.53 205.28 182.74 C 205.37 181.95 204.80 181.24 204.01 181.15 L 202.99 181.04 C 202.20 180.95 201.49 181.52 201.40 182.31 C 201.31 183.10 201.88 183.81 202.67 183.90 Z M 203.72 184.01 L 204.72 184.10 C 205.51 184.17 206.21 183.59 206.28 182.80 C 206.35 182.01 205.77 181.31 204.98 181.24 L 203.98 181.15 C 203.19 181.08 202.49 181.67 202.42 182.46 C 202.35 183.25 202.93 183.94 203.72 184.01 Z M 204.76 184.10 L 205.74 184.17 C 206.53 184.22 207.21 183.62 207.26 182.83 C 207.31 182.04 206.72 181.36 205.93 181.31 L 204.94 181.24 C 204.16 181.19 203.47 181.79 203.42 182.58 C 203.37 183.37 203.97 184.05 204.76 184.10 Z M 205.77 184.16 L 206.75 184.21 C 207.53 184.24 208.20 183.63 208.24 182.84 C 208.27 182.06 207.66 181.39 206.87 181.35 L 205.90 181.31 C 205.11 181.28 204.44 181.89 204.41 182.67 C 204.37 183.46 204.98 184.13 205.77 184.16 Z M 206.77 184.21 L 207.77 184.23 C 208.55 184.25 209.21 183.63 209.23 182.84 C 209.25 182.05 208.63 181.40 207.84 181.38 L 206.85 181.35 C 206.06 181.33 205.40 181.96 205.38 182.74 C 205.36 183.53 205.99 184.19 206.77 184.21 Z M 207.79 184.23 L 208.79 184.24 C 209.57 184.25 210.22 183.62 210.23 182.83 C 210.24 182.05 209.61 181.40 208.82 181.39 L 207.82 181.38 C 207.03 181.37 206.39 182.00 206.38 182.79 C 206.37 183.58 207.00 184.22 207.79 184.23 Z M 208.80 184.24 L 209.80 184.25 C 210.59 184.25 211.23 183.61 211.23 182.83 C 211.24 182.04 210.60 181.40 209.81 181.40 L 208.81 181.39 C 208.02 181.39 207.38 182.03 207.38 182.81 C 207.37 183.60 208.01 184.24 208.80 184.24 Z M 209.81 184.25 L 210.38 184.25 C 211.17 184.25 211.81 183.61 211.81 182.82 C 211.81 182.03 211.17 181.40 210.39 181.40 L 209.81 181.40 C 209.02 181.40 208.38 182.03 208.38 182.82 C 208.38 183.61 209.02 184.25 209.81 184.25 Z"
      fill="black"
      fill-rule="nonzero" /></svg>