<svg xmlns="http://www.w3.org/2000/svg" width="300" height="300" viewBox="0 0 300 300">
<path d="M 159.31 114.13 L 160.24 113.07 C 160.81 112.41 160.75 111.43 160.09 110.86 C 159.44 110.29 158.45 110.35 157.89 111.00 L 156.95 112.07 C 156.38 112.72 156.45 113.71 157.10 114.28 C 157.75 114.85 158.74 114.78 159.31 114.13 Z M 160.27 113.14 L 160.94 112.40 C 161.55 111.74 161.51 110.71 160.84 110.10 C 160.18 109.49 159.14 109.53 158.53 110.20 L 157.86 110.93 C 157.25 111.60 157.29 112.63 157.96 113.24 C 158.62 113.85 159.66 113.81 160.27 113.14 Z M 160.55 112.79 L 160.71 112.70 C 161.53 112.25 161.84 111.23 161.39 110.40 C 160.95 109.58 159.92 109.28 159.09 109.72 L 158.93 109.81 C 158.11 110.26 157.80 111.29 158.25 112.11 C 158.69 112.93 159.72 113.24 160.55 112.79 Z M 158.44 110.30 L 158.13 110.80 C 157.63 111.60 157.87 112.67 158.68 113.17 C 159.48 113.67 160.55 113.43 161.05 112.62 L 161.36 112.12 C 161.87 111.32 161.62 110.26 160.82 109.75 C 160.01 109.25 158.95 109.49 158.44 110.30 Z M 158.18 110.71 L 157.53 111.62 C 156.98 112.40 157.16 113.48 157.94 114.03 C 158.71 114.58 159.79 114.40 160.34 113.63 L 161.00 112.71 C 161.55 111.94 161.37 110.86 160.59 110.30 C 159.82 109.75 158.74 109.93 158.18 110.71 Z M 157.55 111.58 L 156.66 112.77 C 156.09 113.54 156.24 114.62 157.00 115.20 C 157.77 115.77 158.85 115.62 159.43 114.86 L 160.32 113.67 C 160.90 112.90 160.74 111.82 159.98 111.24 C 159.21 110.67 158.13 110.82 157.55 111.58 Z M 156.67 112.75 L 156.11 113.48 C 155.52 114.24 155.66 115.33 156.41 115.92 C 157.17 116.50 158.26 116.37 158.85 115.61 L 159.41 114.88 C 160.00 114.12 159.86 113.03 159.11 112.44 C 158.35 111.86 157.26 111.99 156.67 112.75 Z M 156.11 113.47 L 155.53 114.21 C 154.94 114.96 155.07 116.05 155.82 116.65 C 156.57 117.24 157.66 117.11 158.26 116.36 L 158.84 115.62 C 159.43 114.87 159.30 113.78 158.55 113.18 C 157.80 112.59 156.71 112.72 156.11 113.47 Z M 155.54 114.20 L 154.92 114.97 C 154.32 115.72 154.45 116.81 155.20 117.41 C 155.95 118.01 157.04 117.89 157.64 117.14 L 158.25 116.37 C 158.85 115.62 158.73 114.52 157.98 113.93 C 157.23 113.33 156.14 113.45 155.54 114.20 Z M 154.93 114.96 L 154.29 115.76 C 153.69 116.51 153.80 117.60 154.55 118.20 C 155.30 118.80 156.40 118.68 157.00 117.94 L 157.64 117.14 C 158.24 116.39 158.12 115.30 157.37 114.70 C 156.62 114.09 155.53 114.21 154.93 114.96 Z M 154.29 115.76 L 153.63 116.58 C 153.02 117.32 153.14 118.42 153.89 119.02 C 154.64 119.63 155.73 119.51 156.34 118.76 L 157.00 117.94 C 157.60 117.19 157.48 116.09 156.73 115.49 C 155.99 114.89 154.89 115.01 154.29 115.76 Z M 153.63 116.57 L 152.95 117.42 C 152.35 118.17 152.46 119.26 153.21 119.86 C 153.96 120.47 155.06 120.35 155.66 119.60 L 156.34 118.76 C 156.94 118.01 156.82 116.91 156.07 116.31 C 155.33 115.71 154.23 115.83 153.63 116.57 Z M 152.95 117.42 L 152.29 118.24 C 151.69 118.99 151.81 120.09 152.56 120.69 C 153.31 121.29 154.40 121.17 155.01 120.42 L 155.67 119.60 C 156.27 118.85 156.15 117.75 155.40 117.15 C 154.64 116.55 153.55 116.67 152.95 117.42 Z M 152.29 118.24 L 151.64 119.05 C 151.04 119.80 151.16 120.90 151.91 121.50 C 152.66 122.10 153.76 121.98 154.36 121.23 L 155.01 120.42 C 155.61 119.67 155.49 118.57 154.74 117.97 C 153.98 117.37 152.89 117.49 152.29 118.24 Z M 151.64 119.05 L 150.99 119.86 C 150.39 120.62 150.51 121.71 151.26 122.31 C 152.01 122.91 153.11 122.79 153.71 122.04 L 154.36 121.23 C 154.96 120.48 154.84 119.38 154.09 118.78 C 153.33 118.18 152.24 118.30 151.64 119.05 Z M 150.99 119.86 L 150.35 120.66 C 149.75 121.41 149.87 122.51 150.62 123.11 C 151.37 123.71 152.47 123.59 153.07 122.84 L 153.71 122.04 C 154.31 121.29 154.19 120.19 153.44 119.59 C 152.69 118.99 151.59 119.11 150.99 119.86 Z M 150.35 120.66 L 149.73 121.44 C 149.12 122.19 149.24 123.28 149.99 123.89 C 150.74 124.49 151.84 124.37 152.44 123.62 L 153.07 122.84 C 153.67 122.09 153.55 121.00 152.80 120.39 C 152.05 119.79 150.96 119.91 150.35 120.66 Z M 149.73 121.43 L 149.12 122.18 C 148.52 122.93 148.63 124.02 149.38 124.63 C 150.13 125.24 151.23 125.12 151.83 124.37 L 152.44 123.63 C 153.05 122.88 152.93 121.78 152.18 121.17 C 151.43 120.57 150.34 120.68 149.73 121.43 Z M 149.13 122.17 L 148.55 122.88 C 147.94 123.62 148.05 124.72 148.79 125.33 C 149.54 125.94 150.63 125.84 151.24 125.09 L 151.83 124.38 C 152.44 123.64 152.33 122.54 151.58 121.93 C 150.84 121.32 149.74 121.42 149.13 122.17 Z M 148.56 122.87 L 147.83 123.73 C 147.22 124.47 147.32 125.57 148.05 126.19 C 148.79 126.81 149.89 126.71 150.51 125.97 L 151.24 125.10 C 151.85 124.36 151.75 123.26 151.01 122.65 C 150.28 122.03 149.18 122.13 148.56 122.87 Z M 147.85 123.72 L 147.17 124.51 C 146.54 125.25 146.63 126.35 147.36 126.97 C 148.10 127.60 149.20 127.51 149.82 126.78 L 150.50 125.98 C 151.12 125.25 151.04 124.15 150.30 123.52 C 149.57 122.90 148.47 122.99 147.85 123.72 Z M 147.18 124.50 L 146.54 125.24 C 145.90 125.97 145.98 127.07 146.71 127.70 C 147.43 128.33 148.54 128.26 149.17 127.53 L 149.81 126.79 C 150.44 126.06 150.37 124.96 149.64 124.33 C 148.91 123.70 147.81 123.77 147.18 124.50 Z M 146.55 125.23 L 145.93 125.93 C 145.29 126.65 145.35 127.75 146.08 128.39 C 146.80 129.03 147.90 128.96 148.54 128.24 L 149.16 127.54 C 149.80 126.82 149.73 125.72 149.01 125.08 C 148.29 124.44 147.19 124.51 146.55 125.23 Z M 145.93 125.92 L 145.33 126.60 C 144.68 127.31 144.74 128.42 145.46 129.06 C 146.18 129.70 147.28 129.64 147.92 128.93 L 148.53 128.25 C 149.17 127.53 149.11 126.43 148.40 125.79 C 147.68 125.14 146.58 125.20 145.93 125.92 Z M 145.33 126.59 L 144.63 127.37 C 143.98 128.08 144.04 129.18 144.75 129.83 C 145.46 130.48 146.57 130.42 147.21 129.71 L 147.92 128.93 C 148.56 128.22 148.51 127.12 147.80 126.47 C 147.08 125.82 145.98 125.88 145.33 126.59 Z M 144.64 127.36 L 143.94 128.12 C 143.29 128.83 143.34 129.93 144.05 130.58 C 144.76 131.23 145.86 131.18 146.51 130.47 L 147.21 129.71 C 147.86 129.00 147.81 127.90 147.10 127.25 C 146.39 126.60 145.29 126.65 144.64 127.36 Z M 143.95 128.11 L 143.27 128.84 C 142.62 129.55 142.66 130.65 143.36 131.31 C 144.07 131.96 145.17 131.92 145.83 131.21 L 146.51 130.48 C 147.16 129.77 147.12 128.67 146.41 128.02 C 145.71 127.36 144.60 127.40 143.95 128.11 Z M 143.28 128.83 L 142.63 129.53 C 141.97 130.23 142.00 131.33 142.70 131.99 C 143.40 132.65 144.51 132.62 145.17 131.92 L 145.82 131.22 C 146.48 130.52 146.44 129.42 145.74 128.76 C 145.04 128.10 143.94 128.13 143.28 128.83 Z M 142.64 129.52 L 141.93 130.26 C 141.26 130.95 141.29 132.06 141.98 132.72 C 142.68 133.39 143.78 133.36 144.44 132.67 L 145.15 131.93 C 145.82 131.23 145.80 130.13 145.10 129.46 C 144.41 128.80 143.30 128.82 142.64 129.52 Z M 141.94 130.24 L 141.23 130.97 C 140.55 131.66 140.56 132.76 141.25 133.43 C 141.94 134.11 143.04 134.10 143.71 133.41 L 144.43 132.68 C 145.10 132.00 145.09 130.89 144.41 130.22 C 143.72 129.55 142.62 129.56 141.94 130.24 Z M 141.25 130.95 L 140.56 131.63 C 139.87 132.31 139.86 133.41 140.54 134.10 C 141.22 134.78 142.32 134.79 143.00 134.11 L 143.70 133.43 C 144.38 132.75 144.39 131.65 143.71 130.97 C 143.03 130.28 141.93 130.27 141.25 130.95 Z M 140.58 131.62 L 139.88 132.29 C 139.18 132.95 139.16 134.05 139.82 134.75 C 140.49 135.44 141.59 135.47 142.28 134.80 L 142.98 134.13 C 143.68 133.47 143.70 132.36 143.04 131.67 C 142.37 130.97 141.27 130.95 140.58 131.62 Z M 139.87 132.30 L 139.09 133.06 C 138.40 133.73 138.38 134.83 139.05 135.51 C 139.72 136.20 140.82 136.22 141.51 135.55 L 142.29 134.79 C 142.98 134.12 142.99 133.02 142.33 132.33 C 141.66 131.65 140.56 131.63 139.87 132.30 Z M 138.96 133.20 L 138.33 133.97 C 137.72 134.71 137.83 135.80 138.56 136.41 C 139.30 137.02 140.39 136.91 141.00 136.17 L 141.63 135.40 C 142.24 134.67 142.13 133.58 141.40 132.97 C 140.66 132.36 139.57 132.47 138.96 133.20 Z M 138.07 134.41 L 137.74 135.20 C 137.37 136.08 137.79 137.09 138.66 137.46 C 139.54 137.83 140.55 137.41 140.92 136.53 L 141.25 135.74 C 141.62 134.86 141.21 133.85 140.33 133.48 C 139.45 133.11 138.44 133.53 138.07 134.41 Z M 137.61 135.96 L 137.66 136.82 C 137.71 137.77 138.52 138.50 139.47 138.45 C 140.42 138.40 141.15 137.58 141.10 136.63 L 141.05 135.77 C 141.00 134.83 140.19 134.10 139.24 134.15 C 138.29 134.20 137.56 135.01 137.61 135.96 Z M 137.73 137.22 L 138.01 138.18 C 138.29 139.09 139.25 139.61 140.16 139.33 C 141.07 139.06 141.59 138.10 141.31 137.19 L 141.03 136.23 C 140.75 135.32 139.79 134.81 138.88 135.08 C 137.97 135.35 137.45 136.31 137.73 137.22 Z M 138.02 138.19 L 138.34 139.25 C 138.62 140.16 139.59 140.67 140.50 140.39 C 141.41 140.11 141.92 139.15 141.64 138.24 L 141.31 137.18 C 141.03 136.27 140.07 135.76 139.16 136.04 C 138.25 136.32 137.74 137.28 138.02 138.19 Z M 138.30 139.10 L 138.50 140.03 C 138.70 140.97 139.61 141.56 140.54 141.36 C 141.48 141.17 142.07 140.25 141.88 139.32 L 141.68 138.39 C 141.48 137.45 140.57 136.86 139.63 137.06 C 138.70 137.25 138.11 138.17 138.30 139.10 Z M 138.48 139.93 L 138.62 140.92 C 138.76 141.87 139.64 142.52 140.58 142.38 C 141.53 142.25 142.18 141.37 142.04 140.42 L 141.90 139.43 C 141.76 138.48 140.88 137.83 139.94 137.96 C 138.99 138.10 138.34 138.98 138.48 139.93 Z M 138.61 140.86 L 138.72 141.88 C 138.82 142.83 139.67 143.52 140.63 143.42 C 141.58 143.32 142.27 142.47 142.17 141.51 L 142.06 140.49 C 141.96 139.54 141.10 138.85 140.15 138.95 C 139.20 139.05 138.51 139.90 138.61 140.86 Z M 138.71 141.85 L 138.80 142.85 C 138.88 143.80 139.72 144.51 140.68 144.43 C 141.63 144.35 142.34 143.50 142.26 142.55 L 142.17 141.55 C 142.09 140.59 141.25 139.88 140.29 139.96 C 139.34 140.05 138.63 140.89 138.71 141.85 Z M 138.79 142.83 L 138.87 143.75 C 138.94 144.71 139.78 145.42 140.74 145.35 C 141.70 145.27 142.41 144.43 142.34 143.47 L 142.26 142.56 C 142.19 141.60 141.35 140.89 140.39 140.96 C 139.43 141.04 138.72 141.88 138.79 142.83 Z M 138.86 143.74 L 138.93 144.67 C 139.00 145.63 139.83 146.35 140.79 146.29 C 141.75 146.22 142.47 145.38 142.40 144.43 L 142.34 143.49 C 142.27 142.53 141.44 141.81 140.48 141.87 C 139.52 141.94 138.80 142.78 138.86 143.74 Z M 138.93 144.66 L 138.99 145.67 C 139.05 146.63 139.88 147.36 140.84 147.30 C 141.80 147.24 142.53 146.41 142.47 145.45 L 142.41 144.44 C 142.35 143.48 141.52 142.75 140.56 142.81 C 139.60 142.87 138.87 143.70 138.93 144.66 Z M 138.99 145.65 L 139.05 146.78 C 139.11 147.74 139.93 148.47 140.89 148.42 C 141.85 148.37 142.59 147.55 142.53 146.58 L 142.47 145.46 C 142.42 144.50 141.60 143.76 140.64 143.82 C 139.67 143.87 138.94 144.69 138.99 145.65 Z M 139.05 146.77 L 139.10 147.67 C 139.14 148.64 139.96 149.38 140.92 149.33 C 141.89 149.28 142.63 148.46 142.58 147.50 L 142.54 146.60 C 142.49 145.63 141.67 144.89 140.71 144.94 C 139.75 144.99 139.00 145.80 139.05 146.77 Z M 139.09 147.67 L 139.14 148.60 C 139.18 149.56 140.00 150.31 140.96 150.26 C 141.92 150.22 142.67 149.40 142.62 148.44 L 142.58 147.51 C 142.54 146.55 141.72 145.80 140.76 145.84 C 139.80 145.89 139.05 146.70 139.09 147.67 Z M 139.13 148.60 L 139.18 149.58 C 139.22 150.55 140.03 151.29 141.00 151.25 C 141.96 151.21 142.71 150.40 142.67 149.43 L 142.63 148.45 C 142.58 147.48 141.77 146.73 140.81 146.77 C 139.84 146.82 139.09 147.63 139.13 148.60 Z M 139.18 149.58 L 139.22 150.61 C 139.26 151.57 140.07 152.32 141.04 152.28 C 142.00 152.24 142.75 151.43 142.71 150.46 L 142.67 149.43 C 142.63 148.47 141.82 147.72 140.85 147.76 C 139.89 147.80 139.14 148.61 139.18 149.58 Z M 139.22 150.61 L 139.26 151.66 C 139.30 152.63 140.11 153.38 141.08 153.34 C 142.04 153.30 142.79 152.49 142.76 151.52 L 142.71 150.47 C 142.68 149.50 141.86 148.75 140.89 148.79 C 139.93 148.83 139.18 149.64 139.22 150.61 Z M 139.26 151.66 L 139.30 152.74 C 139.34 153.70 140.15 154.46 141.12 154.42 C 142.09 154.38 142.84 153.57 142.80 152.60 L 142.76 151.52 C 142.72 150.56 141.90 149.81 140.94 149.84 C 139.97 149.88 139.22 150.70 139.26 151.66 Z M 139.30 152.74 L 139.34 153.82 C 139.38 154.79 140.19 155.55 141.16 155.51 C 142.13 155.47 142.88 154.65 142.84 153.69 L 142.80 152.60 C 142.76 151.63 141.95 150.88 140.98 150.92 C 140.01 150.96 139.26 151.77 139.30 152.74 Z M 139.34 153.83 L 139.38 154.91 C 139.42 155.88 140.24 156.63 141.20 156.59 C 142.17 156.55 142.93 155.74 142.89 154.77 L 142.85 153.69 C 142.81 152.72 141.99 151.96 141.02 152.00 C 140.05 152.04 139.30 152.86 139.34 153.83 Z M 139.38 154.91 L 139.42 155.97 C 139.46 156.94 140.28 157.69 141.25 157.65 C 142.22 157.61 142.97 156.79 142.93 155.82 L 142.89 154.77 C 142.85 153.80 142.03 153.04 141.06 153.08 C 140.10 153.12 139.34 153.94 139.38 154.91 Z M 139.42 155.97 L 139.47 156.99 C 139.51 157.96 140.33 158.71 141.29 158.67 C 142.26 158.63 143.02 157.81 142.98 156.84 L 142.93 155.82 C 142.89 154.85 142.07 154.10 141.10 154.14 C 140.13 154.18 139.38 155.00 139.42 155.97 Z M 139.46 156.99 L 139.51 157.96 C 139.55 158.93 140.37 159.68 141.34 159.64 C 142.31 159.59 143.06 158.77 143.02 157.80 L 142.98 156.84 C 142.93 155.87 142.11 155.12 141.14 155.16 C 140.17 155.20 139.42 156.02 139.46 156.99 Z M 139.51 157.96 L 139.55 158.86 C 139.60 159.83 140.42 160.58 141.39 160.54 C 142.36 160.49 143.11 159.67 143.06 158.70 L 143.02 157.80 C 142.97 156.83 142.15 156.08 141.18 156.12 C 140.21 156.17 139.46 156.99 139.51 157.96 Z M 139.55 158.87 L 139.60 159.88 C 139.65 160.85 140.48 161.59 141.45 161.54 C 142.42 161.49 143.17 160.66 143.12 159.69 L 143.06 158.69 C 143.01 157.72 142.18 156.97 141.21 157.02 C 140.24 157.07 139.50 157.90 139.55 158.87 Z M 139.60 159.90 L 139.68 160.98 C 139.74 161.95 140.58 162.68 141.55 162.61 C 142.52 162.55 143.25 161.71 143.19 160.74 L 143.12 159.67 C 143.05 158.70 142.21 157.96 141.24 158.03 C 140.27 158.09 139.54 158.93 139.60 159.90 Z M 139.68 161.03 L 139.77 161.99 C 139.87 162.95 140.73 163.66 141.70 163.57 C 142.66 163.47 143.37 162.61 143.28 161.64 L 143.18 160.69 C 143.09 159.72 142.23 159.01 141.26 159.11 C 140.29 159.20 139.59 160.06 139.68 161.03 Z M 139.78 162.06 L 139.91 162.97 C 140.05 163.93 140.94 164.60 141.90 164.46 C 142.86 164.33 143.53 163.44 143.40 162.47 L 143.27 161.57 C 143.13 160.61 142.24 159.94 141.28 160.07 C 140.32 160.21 139.65 161.10 139.78 162.06 Z M 139.93 163.06 L 140.13 164.09 C 140.32 165.05 141.24 165.67 142.20 165.48 C 143.15 165.29 143.77 164.37 143.58 163.41 L 143.38 162.38 C 143.19 161.43 142.27 160.80 141.31 160.99 C 140.36 161.18 139.74 162.11 139.93 163.06 Z M 140.17 164.27 L 140.51 165.38 C 140.79 166.31 141.78 166.84 142.71 166.56 C 143.64 166.27 144.17 165.29 143.88 164.36 L 143.55 163.24 C 143.26 162.31 142.28 161.78 141.34 162.06 C 140.41 162.35 139.88 163.33 140.17 164.27 Z M 140.72 165.85 L 141.20 166.57 C 141.74 167.38 142.84 167.61 143.65 167.07 C 144.47 166.53 144.69 165.43 144.15 164.61 L 143.67 163.89 C 143.13 163.07 142.03 162.85 141.22 163.39 C 140.40 163.93 140.18 165.03 140.72 165.85 Z M 142.56 167.36 L 143.14 167.40 C 144.12 167.47 144.96 166.73 145.03 165.75 C 145.09 164.77 144.35 163.92 143.37 163.86 L 142.79 163.82 C 141.81 163.75 140.97 164.50 140.90 165.47 C 140.84 166.45 141.58 167.30 142.56 167.36 Z M 144.38 167.00 L 144.94 166.55 C 145.70 165.93 145.81 164.81 145.19 164.05 C 144.57 163.29 143.45 163.18 142.69 163.80 L 142.13 164.25 C 141.37 164.88 141.26 166.00 141.88 166.76 C 142.50 167.51 143.62 167.63 144.38 167.00 Z M 145.20 166.29 L 145.82 165.52 C 146.43 164.75 146.31 163.63 145.55 163.02 C 144.78 162.40 143.66 162.52 143.05 163.29 L 142.43 164.06 C 141.81 164.82 141.94 165.94 142.70 166.56 C 143.46 167.17 144.58 167.05 145.20 166.29 Z M 145.90 165.41 L 146.56 164.44 C 147.11 163.63 146.91 162.53 146.10 161.97 C 145.29 161.42 144.18 161.63 143.63 162.44 L 142.97 163.40 C 142.41 164.21 142.62 165.31 143.43 165.87 C 144.24 166.42 145.35 166.22 145.90 165.41 Z M 146.58 164.41 L 147.25 163.38 C 147.79 162.56 147.56 161.46 146.73 160.92 C 145.91 160.39 144.81 160.62 144.28 161.44 L 143.60 162.47 C 143.07 163.29 143.30 164.39 144.12 164.93 C 144.94 165.46 146.04 165.23 146.58 164.41 Z M 147.23 163.39 L 147.81 162.53 C 148.35 161.72 148.13 160.62 147.32 160.08 C 146.51 159.54 145.41 159.76 144.87 160.57 L 144.30 161.43 C 143.75 162.24 143.97 163.34 144.78 163.88 C 145.59 164.42 146.69 164.20 147.23 163.39 Z M 147.77 162.54 L 148.34 161.72 C 148.89 160.92 148.69 159.84 147.90 159.29 C 147.11 158.75 146.02 158.94 145.48 159.73 L 144.91 160.56 C 144.36 161.35 144.56 162.43 145.35 162.98 C 146.14 163.53 147.22 163.33 147.77 162.54 Z M 148.31 161.73 L 148.88 160.92 C 149.43 160.15 149.25 159.08 148.48 158.53 C 147.71 157.97 146.64 158.15 146.09 158.92 L 145.51 159.73 C 144.96 160.50 145.14 161.57 145.91 162.12 C 146.68 162.67 147.75 162.50 148.31 161.73 Z M 148.85 160.93 L 149.43 160.14 C 149.99 159.39 149.83 158.33 149.07 157.77 C 148.32 157.21 147.26 157.37 146.71 158.13 L 146.12 158.92 C 145.56 159.67 145.72 160.73 146.48 161.29 C 147.23 161.84 148.29 161.68 148.85 160.93 Z M 149.40 160.14 L 150.00 159.35 C 150.56 158.61 150.42 157.57 149.68 157.01 C 148.95 156.45 147.90 156.59 147.34 157.33 L 146.74 158.12 C 146.18 158.86 146.32 159.90 147.06 160.46 C 147.79 161.02 148.84 160.88 149.40 160.14 Z M 149.97 159.35 L 150.59 158.55 C 151.14 157.84 151.02 156.80 150.30 156.25 C 149.58 155.69 148.55 155.82 147.99 156.53 L 147.37 157.33 C 146.82 158.05 146.94 159.08 147.66 159.64 C 148.38 160.19 149.41 160.06 149.97 159.35 Z M 150.56 158.55 L 151.19 157.75 C 151.74 157.05 151.63 156.03 150.93 155.48 C 150.22 154.92 149.21 155.04 148.65 155.74 L 148.02 156.54 C 147.47 157.24 147.58 158.26 148.29 158.81 C 148.99 159.37 150.00 159.25 150.56 158.55 Z M 151.16 157.74 L 151.80 156.95 C 152.35 156.26 152.24 155.26 151.55 154.71 C 150.87 154.16 149.87 154.27 149.32 154.96 L 148.68 155.75 C 148.13 156.43 148.24 157.43 148.93 157.98 C 149.61 158.53 150.61 158.42 151.16 157.74 Z M 151.77 156.94 L 152.40 156.16 C 152.95 155.49 152.84 154.50 152.17 153.96 C 151.50 153.42 150.52 153.52 149.97 154.19 L 149.34 154.97 C 148.80 155.64 148.90 156.62 149.57 157.16 C 150.24 157.71 151.23 157.61 151.77 156.94 Z M 152.38 156.15 L 152.99 155.40 C 153.53 154.74 153.43 153.77 152.77 153.24 C 152.12 152.70 151.15 152.80 150.61 153.45 L 150.00 154.20 C 149.46 154.86 149.56 155.83 150.22 156.36 C 150.87 156.90 151.84 156.80 152.38 156.15 Z M 152.97 155.39 L 153.62 154.59 C 154.16 153.94 154.06 152.99 153.42 152.46 C 152.77 151.93 151.82 152.02 151.29 152.67 L 150.63 153.46 C 150.10 154.11 150.20 155.06 150.84 155.59 C 151.49 156.12 152.44 156.03 152.97 155.39 Z M 153.61 154.58 L 154.25 153.80 C 154.78 153.16 154.68 152.22 154.05 151.70 C 153.41 151.17 152.47 151.26 151.95 151.90 L 151.31 152.68 C 150.78 153.31 150.87 154.26 151.51 154.78 C 152.14 155.30 153.08 155.21 153.61 154.58 Z M 154.24 153.79 L 154.86 153.03 C 155.38 152.40 155.29 151.47 154.66 150.95 C 154.03 150.44 153.10 150.53 152.58 151.15 L 151.96 151.91 C 151.44 152.54 151.53 153.47 152.16 153.99 C 152.79 154.51 153.72 154.42 154.24 153.79 Z M 154.85 153.01 L 155.47 152.26 C 155.98 151.64 155.88 150.72 155.26 150.21 C 154.64 149.70 153.72 149.79 153.21 150.42 L 152.60 151.17 C 152.09 151.79 152.18 152.71 152.80 153.22 C 153.42 153.73 154.34 153.64 154.85 153.01 Z M 155.46 152.24 L 156.07 151.48 C 156.58 150.86 156.48 149.96 155.86 149.46 C 155.24 148.96 154.34 149.05 153.84 149.67 L 153.22 150.43 C 152.72 151.05 152.82 151.96 153.43 152.46 C 154.05 152.96 154.96 152.86 155.46 152.24 Z M 156.07 151.47 L 156.69 150.71 C 157.18 150.09 157.08 149.19 156.46 148.69 C 155.84 148.20 154.94 148.30 154.45 148.92 L 153.84 149.68 C 153.34 150.30 153.44 151.20 154.06 151.70 C 154.68 152.19 155.58 152.09 156.07 151.47 Z M 156.69 150.70 L 157.31 149.92 C 157.80 149.30 157.70 148.40 157.08 147.91 C 156.46 147.42 155.56 147.52 155.07 148.14 L 154.45 148.92 C 153.95 149.54 154.06 150.44 154.68 150.93 C 155.30 151.42 156.20 151.32 156.69 150.70 Z M 157.31 149.91 L 157.94 149.12 C 158.42 148.50 158.32 147.60 157.70 147.11 C 157.08 146.63 156.18 146.73 155.69 147.35 L 155.07 148.15 C 154.58 148.76 154.68 149.66 155.30 150.15 C 155.92 150.64 156.82 150.53 157.31 149.91 Z M 157.94 149.12 L 158.57 148.32 C 159.05 147.70 158.95 146.80 158.33 146.31 C 157.71 145.83 156.81 145.93 156.32 146.55 L 155.69 147.35 C 155.21 147.97 155.31 148.87 155.93 149.36 C 156.55 149.84 157.45 149.74 157.94 149.12 Z M 158.56 148.32 L 158.72 148.12 C 159.21 147.50 159.10 146.60 158.48 146.11 C 157.86 145.63 156.97 145.73 156.48 146.35 L 156.32 146.55 C 155.84 147.17 155.94 148.07 156.56 148.56 C 157.18 149.04 158.08 148.93 158.56 148.32 Z"
      fill="black"
      fill-rule="nonzero" /><path d="M 166.58 125.30 L 166.10 126.12 C 165.68 126.86 165.93 127.81 166.68 128.24 C 167.42 128.66 168.37 128.41 168.79 127.66 L 169.26 126.84 C 169.69 126.10 169.43 125.15 168.69 124.72 C 167.95 124.30 167.00 124.55 166.58 125.30 Z M 166.00 126.20 L 165.58 127.07 C 165.20 127.87 165.54 128.83 166.34 129.21 C 167.14 129.59 168.09 129.25 168.48 128.46 L 168.89 127.58 C 169.28 126.78 168.94 125.83 168.14 125.44 C 167.34 125.06 166.38 125.40 166.00 126.20 Z M 165.45 127.27 L 165.14 128.24 C 164.87 129.11 165.35 130.04 166.22 130.31 C 167.10 130.59 168.03 130.11 168.30 129.23 L 168.61 128.26 C 168.88 127.39 168.40 126.46 167.53 126.18 C 166.66 125.91 165.73 126.39 165.45 127.27 Z M 165.04 128.51 L 164.90 129.52 C 164.78 130.45 165.43 131.30 166.36 131.43 C 167.29 131.56 168.14 130.91 168.27 129.98 L 168.41 128.96 C 168.53 128.03 167.88 127.18 166.95 127.05 C 166.02 126.93 165.17 127.58 165.04 128.51 Z M 164.87 129.74 L 164.87 130.72 C 164.86 131.67 165.63 132.44 166.58 132.44 C 167.53 132.45 168.30 131.68 168.30 130.73 L 168.30 129.75 C 168.31 128.80 167.54 128.03 166.59 128.03 C 165.64 128.03 164.87 128.79 164.87 129.74 Z M 164.87 130.85 L 164.94 131.88 C 165.01 132.83 165.84 133.54 166.79 133.47 C 167.73 133.40 168.45 132.57 168.38 131.62 L 168.30 130.60 C 168.23 129.65 167.40 128.94 166.46 129.01 C 165.51 129.08 164.80 129.90 164.87 130.85 Z M 164.94 131.95 L 165.07 132.98 C 165.18 133.93 166.04 134.60 166.99 134.49 C 167.93 134.38 168.61 133.52 168.50 132.57 L 168.37 131.55 C 168.26 130.60 167.40 129.92 166.45 130.04 C 165.51 130.15 164.83 131.01 164.94 131.95 Z M 165.07 133.02 L 165.20 134.00 C 165.34 134.95 166.21 135.61 167.16 135.47 C 168.10 135.34 168.76 134.47 168.63 133.52 L 168.50 132.54 C 168.36 131.59 167.49 130.93 166.54 131.06 C 165.60 131.19 164.93 132.07 165.07 133.02 Z M 165.20 133.99 L 165.35 135.07 C 165.48 136.02 166.35 136.68 167.30 136.55 C 168.25 136.42 168.91 135.55 168.78 134.60 L 168.64 133.52 C 168.51 132.58 167.63 131.91 166.68 132.04 C 165.73 132.17 165.07 133.05 165.20 133.99 Z M 165.34 135.05 L 165.47 136.05 C 165.59 137.00 166.46 137.67 167.41 137.55 C 168.36 137.43 169.04 136.56 168.92 135.61 L 168.79 134.61 C 168.67 133.66 167.80 132.99 166.84 133.11 C 165.89 133.23 165.22 134.10 165.34 135.05 Z M 165.47 136.04 L 165.58 136.98 C 165.69 137.94 166.56 138.62 167.51 138.50 C 168.47 138.39 169.15 137.52 169.03 136.57 L 168.92 135.62 C 168.80 134.67 167.94 133.99 166.98 134.10 C 166.03 134.22 165.35 135.08 165.47 136.04 Z M 165.58 136.97 L 165.68 137.91 C 165.79 138.86 166.66 139.55 167.61 139.44 C 168.57 139.33 169.25 138.47 169.14 137.51 L 169.04 136.58 C 168.93 135.62 168.06 134.94 167.11 135.05 C 166.15 135.15 165.47 136.02 165.58 136.97 Z M 165.68 137.90 L 165.78 138.84 C 165.89 139.80 166.75 140.49 167.71 140.38 C 168.66 140.28 169.35 139.42 169.25 138.46 L 169.15 137.52 C 169.04 136.56 168.18 135.87 167.22 135.98 C 166.27 136.08 165.58 136.94 165.68 137.90 Z M 165.78 138.83 L 165.88 139.81 C 165.98 140.77 166.84 141.47 167.79 141.37 C 168.75 141.27 169.45 140.41 169.35 139.46 L 169.25 138.47 C 169.15 137.52 168.30 136.82 167.34 136.92 C 166.38 137.02 165.68 137.87 165.78 138.83 Z M 165.88 139.79 L 165.97 140.82 C 166.06 141.78 166.91 142.49 167.87 142.40 C 168.83 142.31 169.54 141.46 169.45 140.50 L 169.35 139.47 C 169.27 138.51 168.42 137.81 167.46 137.90 C 166.50 137.98 165.79 138.83 165.88 139.79 Z M 165.97 140.80 L 166.05 141.83 C 166.13 142.79 166.97 143.50 167.94 143.43 C 168.90 143.35 169.61 142.51 169.54 141.54 L 169.45 140.52 C 169.37 139.56 168.53 138.85 167.57 138.92 C 166.61 139.00 165.89 139.84 165.97 140.80 Z M 166.05 141.81 L 166.12 142.78 C 166.19 143.74 167.02 144.47 167.99 144.40 C 168.95 144.33 169.67 143.50 169.61 142.53 L 169.54 141.56 C 169.47 140.60 168.63 139.87 167.67 139.94 C 166.71 140.01 165.98 140.84 166.05 141.81 Z M 166.12 142.76 L 166.18 143.76 C 166.24 144.73 167.07 145.46 168.03 145.40 C 168.99 145.34 169.73 144.51 169.67 143.55 L 169.61 142.55 C 169.55 141.59 168.72 140.85 167.76 140.91 C 166.79 140.97 166.06 141.80 166.12 142.76 Z M 166.18 143.75 L 166.23 144.77 C 166.29 145.73 167.11 146.47 168.07 146.42 C 169.04 146.37 169.78 145.54 169.72 144.58 L 169.67 143.56 C 169.62 142.60 168.79 141.86 167.83 141.91 C 166.87 141.96 166.13 142.79 166.18 143.75 Z M 166.23 144.76 L 166.28 145.78 C 166.33 146.74 167.15 147.49 168.11 147.44 C 169.07 147.40 169.82 146.58 169.77 145.62 L 169.73 144.59 C 169.68 143.63 168.86 142.88 167.90 142.93 C 166.93 142.97 166.19 143.79 166.23 144.76 Z M 166.28 145.77 L 166.32 146.76 C 166.36 147.73 167.17 148.48 168.14 148.44 C 169.10 148.40 169.85 147.59 169.81 146.62 L 169.77 145.63 C 169.73 144.66 168.92 143.91 167.96 143.95 C 166.99 143.99 166.24 144.81 166.28 145.77 Z M 166.32 146.75 L 166.36 147.74 C 166.39 148.71 167.20 149.46 168.16 149.43 C 169.13 149.40 169.88 148.59 169.85 147.62 L 169.81 146.63 C 169.78 145.67 168.97 144.91 168.01 144.95 C 167.04 144.98 166.29 145.79 166.32 146.75 Z M 166.36 147.73 L 166.38 148.73 C 166.41 149.69 167.21 150.45 168.18 150.43 C 169.14 150.40 169.90 149.60 169.88 148.63 L 169.85 147.64 C 169.82 146.67 169.02 145.91 168.05 145.94 C 167.09 145.96 166.33 146.77 166.36 147.73 Z M 166.38 148.72 L 166.40 149.72 C 166.43 150.69 167.22 151.45 168.19 151.43 C 169.15 151.41 169.92 150.61 169.90 149.65 L 169.88 148.64 C 169.86 147.68 169.06 146.91 168.09 146.93 C 167.13 146.95 166.36 147.75 166.38 148.72 Z M 166.40 149.71 L 166.42 150.71 C 166.43 151.68 167.23 152.45 168.19 152.43 C 169.16 152.42 169.93 151.62 169.91 150.66 L 169.90 149.66 C 169.88 148.69 169.09 147.92 168.13 147.94 C 167.16 147.95 166.39 148.75 166.40 149.71 Z M 166.42 150.70 L 166.43 151.68 C 166.44 152.65 167.23 153.42 168.19 153.41 C 169.16 153.40 169.93 152.61 169.92 151.65 L 169.91 150.67 C 169.90 149.70 169.12 148.93 168.15 148.94 C 167.19 148.95 166.41 149.74 166.42 150.70 Z M 166.43 151.67 L 166.43 152.67 C 166.44 153.63 167.23 154.41 168.19 154.40 C 169.16 154.40 169.93 153.61 169.93 152.65 L 169.92 151.65 C 169.92 150.69 169.13 149.91 168.17 149.92 C 167.20 149.92 166.42 150.71 166.43 151.67 Z M 166.43 152.66 L 166.44 153.67 C 166.44 154.63 167.22 155.41 168.19 155.41 C 169.15 155.41 169.93 154.62 169.93 153.66 L 169.93 152.65 C 169.93 151.69 169.14 150.91 168.18 150.91 C 167.21 150.91 166.43 151.70 166.43 152.66 Z M 166.44 153.66 L 166.44 154.68 C 166.44 155.65 167.22 156.43 168.19 156.43 C 169.15 156.43 169.93 155.65 169.93 154.68 L 169.93 153.66 C 169.93 152.70 169.15 151.92 168.18 151.92 C 167.22 151.92 166.44 152.70 166.44 153.66 Z M 166.44 154.68 L 166.44 155.69 C 166.44 156.65 167.22 157.44 168.18 157.44 C 169.15 157.44 169.93 156.65 169.93 155.69 L 169.93 154.68 C 169.93 153.72 169.15 152.94 168.18 152.94 C 167.22 152.94 166.44 153.72 166.44 154.68 Z M 166.44 155.69 L 166.44 156.68 C 166.44 157.65 167.22 158.43 168.18 158.43 C 169.15 158.43 169.93 157.65 169.93 156.68 L 169.93 155.69 C 169.93 154.73 169.15 153.95 168.18 153.95 C 167.22 153.95 166.44 154.73 166.44 155.69 Z M 166.44 156.68 L 166.44 157.68 C 166.44 158.64 167.22 159.43 168.18 159.43 C 169.15 159.43 169.93 158.64 169.93 157.68 L 169.93 156.68 C 169.93 155.72 169.15 154.94 168.18 154.94 C 167.22 154.94 166.44 155.72 166.44 156.68 Z M 166.44 157.68 L 166.44 158.68 C 166.44 159.65 167.22 160.43 168.18 160.43 C 169.15 160.43 169.93 159.65 169.93 158.68 L 169.93 157.68 C 169.93 156.72 169.15 155.94 168.18 155.94 C 167.22 155.94 166.44 156.72 166.44 157.68 Z M 166.44 158.68 L 166.44 159.69 C 166.44 160.65 167.22 161.44 168.18 161.44 C 169.15 161.44 169.93 160.65 169.93 159.69 L 169.93 158.68 C 169.93 157.72 169.15 156.94 168.18 156.94 C 167.22 156.94 166.44 157.72 166.44 158.68 Z M 166.44 159.69 L 166.44 160.70 C 166.44 161.66 167.22 162.44 168.18 162.44 C 169.15 162.44 169.93 161.66 169.93 160.70 L 169.93 159.69 C 169.93 158.73 169.15 157.95 168.18 157.95 C 167.22 157.95 166.44 158.73 166.44 159.69 Z M 166.44 160.70 L 166.44 161.71 C 166.44 162.67 167.22 163.45 168.18 163.45 C 169.14 163.45 169.92 162.68 169.92 161.71 L 169.92 160.70 C 169.93 159.74 169.15 158.96 168.19 158.96 C 167.22 158.96 166.44 159.74 166.44 160.70 Z M 166.45 161.71 L 166.44 162.72 C 166.44 163.68 167.22 164.46 168.18 164.46 C 169.14 164.46 169.92 163.68 169.92 162.72 L 169.92 161.72 C 169.92 160.76 169.15 159.98 168.19 159.98 C 167.23 159.97 166.45 160.75 166.45 161.71 Z M 166.45 162.71 L 166.44 163.71 C 166.44 164.67 167.21 165.45 168.17 165.46 C 169.13 165.46 169.91 164.69 169.91 163.73 L 169.92 162.73 C 169.92 161.77 169.15 160.99 168.19 160.99 C 167.23 160.98 166.45 161.76 166.45 162.71 Z M 166.44 163.71 L 166.44 164.70 C 166.43 165.66 167.20 166.44 168.16 166.45 C 169.11 166.45 169.90 165.68 169.90 164.73 L 169.91 163.74 C 169.92 162.78 169.15 162.00 168.19 161.99 C 167.23 161.98 166.45 162.75 166.44 163.71 Z M 166.44 164.69 L 166.43 165.68 C 166.42 166.64 167.18 167.42 168.14 167.43 C 169.09 167.44 169.88 166.68 169.89 165.72 L 169.90 164.73 C 169.91 163.78 169.15 162.99 168.19 162.98 C 167.24 162.97 166.45 163.74 166.44 164.69 Z M 166.43 165.67 L 166.41 166.68 C 166.40 167.63 167.15 168.42 168.11 168.44 C 169.06 168.45 169.85 167.69 169.87 166.74 L 169.89 165.73 C 169.90 164.78 169.14 163.99 168.19 163.97 C 167.24 163.96 166.45 164.72 166.43 165.67 Z M 166.42 166.66 L 166.39 167.66 C 166.37 168.61 167.12 169.41 168.07 169.43 C 169.02 169.45 169.81 168.70 169.84 167.75 L 169.86 166.75 C 169.89 165.80 169.14 165.01 168.18 164.98 C 167.23 164.96 166.44 165.71 166.42 166.66 Z M 166.40 167.65 L 166.36 168.64 C 166.33 169.59 167.07 170.39 168.02 170.42 C 168.97 170.45 169.77 169.71 169.80 168.76 L 169.83 167.76 C 169.87 166.81 169.12 166.02 168.17 165.99 C 167.22 165.95 166.43 166.70 166.40 167.65 Z M 166.37 168.63 L 166.32 169.62 C 166.28 170.57 167.02 171.37 167.97 171.41 C 168.91 171.45 169.71 170.72 169.75 169.77 L 169.80 168.77 C 169.84 167.83 169.10 167.02 168.16 166.98 C 167.21 166.94 166.41 167.68 166.37 168.63 Z M 166.33 169.60 L 166.28 170.58 C 166.23 171.53 166.95 172.33 167.90 172.38 C 168.84 172.43 169.65 171.71 169.70 170.76 L 169.75 169.78 C 169.80 168.84 169.07 168.03 168.13 167.98 C 167.18 167.93 166.38 168.66 166.33 169.60 Z M 166.28 170.57 L 166.22 171.52 C 166.16 172.46 166.88 173.27 167.82 173.33 C 168.76 173.39 169.57 172.67 169.63 171.73 L 169.69 170.78 C 169.75 169.84 169.03 169.03 168.09 168.97 C 167.15 168.91 166.34 169.62 166.28 170.57 Z M 166.23 171.51 L 166.16 172.48 C 166.10 173.42 166.80 174.23 167.74 174.30 C 168.68 174.36 169.49 173.66 169.56 172.72 L 169.63 171.74 C 169.69 170.81 168.98 169.99 168.05 169.93 C 167.11 169.86 166.29 170.57 166.23 171.51 Z M 166.17 172.47 L 166.09 173.47 C 166.02 174.41 166.72 175.22 167.66 175.29 C 168.59 175.36 169.41 174.66 169.48 173.73 L 169.55 172.73 C 169.62 171.79 168.92 170.98 167.99 170.91 C 167.05 170.84 166.24 171.54 166.17 172.47 Z M 166.10 173.46 L 166.02 174.49 C 165.94 175.43 166.64 176.24 167.57 176.32 C 168.50 176.39 169.32 175.69 169.39 174.76 L 169.47 173.73 C 169.55 172.80 168.85 171.98 167.92 171.91 C 166.99 171.84 166.17 172.53 166.10 173.46 Z M 166.02 174.49 L 165.94 175.54 C 165.86 176.47 166.55 177.28 167.48 177.36 C 168.41 177.44 169.22 176.74 169.30 175.82 L 169.38 174.77 C 169.46 173.84 168.77 173.02 167.84 172.95 C 166.91 172.87 166.10 173.56 166.02 174.49 Z M 165.94 175.54 L 165.86 176.54 C 165.78 177.47 166.47 178.28 167.40 178.36 C 168.32 178.43 169.13 177.74 169.21 176.82 L 169.29 175.82 C 169.37 174.89 168.68 174.08 167.75 174.00 C 166.83 173.93 166.02 174.62 165.94 175.54 Z M 165.86 176.55 L 165.78 177.57 C 165.71 178.49 166.40 179.30 167.32 179.37 C 168.24 179.44 169.05 178.76 169.12 177.83 L 169.20 176.81 C 169.28 175.89 168.59 175.08 167.67 175.01 C 166.74 174.94 165.94 175.63 165.86 176.55 Z M 165.79 177.58 L 165.72 178.60 C 165.65 179.52 166.34 180.32 167.26 180.39 C 168.18 180.45 168.98 179.76 169.05 178.84 L 169.12 177.82 C 169.19 176.90 168.49 176.10 167.57 176.04 C 166.65 175.97 165.86 176.66 165.79 177.58 Z M 165.72 178.62 L 165.66 179.62 C 165.60 180.54 166.30 181.33 167.22 181.39 C 168.13 181.44 168.92 180.75 168.98 179.83 L 169.04 178.82 C 169.10 177.91 168.40 177.12 167.48 177.06 C 166.57 177.00 165.78 177.70 165.72 178.62 Z M 165.66 179.65 L 165.62 180.62 C 165.58 181.54 166.28 182.31 167.20 182.36 C 168.11 182.40 168.89 181.69 168.93 180.78 L 168.97 179.80 C 169.02 178.89 168.31 178.11 167.40 178.07 C 166.48 178.03 165.71 178.74 165.66 179.65 Z M 165.63 180.67 L 165.60 181.87 C 165.58 182.77 166.30 183.53 167.21 183.55 C 168.12 183.57 168.88 182.84 168.89 181.93 L 168.92 180.73 C 168.94 179.82 168.22 179.07 167.31 179.05 C 166.40 179.03 165.65 179.76 165.63 180.67 Z M 165.62 181.96 L 165.67 183.25 C 165.71 184.14 166.46 184.84 167.36 184.81 C 168.26 184.78 168.96 184.02 168.92 183.12 L 168.87 181.84 C 168.84 180.94 168.08 180.24 167.19 180.28 C 166.29 180.31 165.59 181.06 165.62 181.96 Z M 165.73 183.51 L 165.90 184.37 C 166.08 185.24 166.93 185.80 167.79 185.62 C 168.66 185.44 169.22 184.60 169.04 183.73 L 168.87 182.87 C 168.69 182.00 167.84 181.44 166.98 181.62 C 166.11 181.79 165.55 182.64 165.73 183.51 Z M 166.51 185.30 L 166.85 185.56 C 167.54 186.10 168.53 185.97 169.06 185.29 C 169.60 184.60 169.47 183.61 168.78 183.07 L 168.44 182.81 C 167.75 182.27 166.76 182.40 166.23 183.09 C 165.69 183.77 165.82 184.76 166.51 185.30 Z M 168.74 185.58 L 169.17 185.26 C 169.87 184.75 170.02 183.78 169.51 183.08 C 169.00 182.39 168.02 182.23 167.33 182.74 L 166.90 183.06 C 166.20 183.57 166.05 184.54 166.56 185.24 C 167.07 185.93 168.04 186.09 168.74 185.58 Z M 169.49 184.94 L 170.03 184.22 C 170.55 183.54 170.41 182.56 169.73 182.05 C 169.04 181.53 168.07 181.67 167.55 182.35 L 167.01 183.07 C 166.49 183.75 166.63 184.73 167.31 185.24 C 168.00 185.76 168.97 185.62 169.49 184.94 Z M 170.10 184.10 L 170.72 183.11 C 171.17 182.39 170.95 181.43 170.22 180.98 C 169.50 180.53 168.54 180.75 168.09 181.48 L 167.48 182.47 C 167.03 183.20 167.25 184.15 167.97 184.60 C 168.70 185.05 169.65 184.83 170.10 184.10 Z M 170.74 183.07 L 171.40 181.93 C 171.82 181.19 171.57 180.25 170.83 179.82 C 170.09 179.40 169.15 179.65 168.73 180.39 L 168.07 181.53 C 167.65 182.26 167.90 183.21 168.64 183.63 C 169.37 184.06 170.32 183.80 170.74 183.07 Z M 171.40 181.92 L 171.51 181.73 C 171.92 180.99 171.67 180.05 170.93 179.63 C 170.19 179.21 169.25 179.47 168.83 180.21 L 168.72 180.40 C 168.31 181.14 168.56 182.08 169.30 182.50 C 170.04 182.91 170.98 182.66 171.40 181.92 Z"
      fill="black"
      fill-rule="nonzero" /><path d="M 172.37 128.63 L 171.39 127.95 C 170.68 127.46 169.72 127.64 169.23 128.34 C 168.75 129.04 168.92 130.01 169.62 130.49 L 170.61 131.18 C 171.31 131.66 172.28 131.49 172.76 130.79 C 173.25 130.08 173.08 129.12 172.37 128.63 Z M 171.43 127.96 L 170.52 127.29 C 169.82 126.78 168.85 126.93 168.33 127.62 C 167.82 128.31 167.97 129.29 168.66 129.80 L 169.58 130.48 C 170.27 130.99 171.25 130.84 171.76 130.15 C 172.27 129.45 172.12 128.48 171.43 127.96 Z M 170.61 127.35 L 169.84 126.69 C 169.18 126.13 168.19 126.21 167.63 126.87 C 167.06 127.53 167.14 128.52 167.80 129.09 L 168.57 129.74 C 169.23 130.31 170.22 130.23 170.79 129.57 C 171.35 128.91 171.27 127.91 170.61 127.35 Z M 170.02 126.85 L 169.47 126.22 C 168.89 125.56 167.89 125.49 167.23 126.07 C 166.57 126.64 166.50 127.65 167.08 128.31 L 167.63 128.93 C 168.20 129.59 169.21 129.66 169.87 129.08 C 170.53 128.51 170.59 127.51 170.02 126.85 Z M 169.76 126.69 L 169.49 125.99 C 169.18 125.17 168.25 124.76 167.43 125.08 C 166.61 125.39 166.20 126.31 166.52 127.14 L 166.79 127.84 C 167.10 128.66 168.03 129.07 168.85 128.75 C 169.67 128.43 170.08 127.51 169.76 126.69 Z M 169.53 127.05 L 169.79 126.24 C 170.05 125.39 169.59 124.50 168.74 124.23 C 167.90 123.96 167.00 124.43 166.74 125.27 L 166.48 126.08 C 166.21 126.92 166.68 127.82 167.52 128.09 C 168.37 128.35 169.26 127.89 169.53 127.05 Z M 169.40 126.88 L 170.12 126.15 C 170.74 125.52 170.73 124.51 170.10 123.89 C 169.48 123.27 168.46 123.27 167.84 123.90 L 167.12 124.63 C 166.50 125.26 166.51 126.27 167.14 126.89 C 167.77 127.51 168.78 127.51 169.40 126.88 Z M 169.90 126.33 L 170.79 125.71 C 171.51 125.20 171.69 124.21 171.18 123.49 C 170.68 122.76 169.68 122.59 168.96 123.09 L 168.07 123.72 C 167.34 124.22 167.17 125.22 167.67 125.94 C 168.18 126.66 169.17 126.84 169.90 126.33 Z M 170.70 125.77 L 171.53 125.26 C 172.28 124.81 172.52 123.82 172.07 123.07 C 171.61 122.32 170.63 122.08 169.87 122.53 L 169.04 123.04 C 168.29 123.49 168.05 124.48 168.51 125.23 C 168.97 125.98 169.95 126.22 170.70 125.77 Z M 171.48 125.29 L 172.35 124.81 C 173.12 124.38 173.40 123.40 172.97 122.63 C 172.54 121.86 171.56 121.59 170.79 122.02 L 169.92 122.50 C 169.15 122.93 168.88 123.91 169.31 124.68 C 169.74 125.45 170.71 125.72 171.48 125.29 Z M 172.32 124.82 L 173.23 124.34 C 174.01 123.92 174.30 122.96 173.89 122.18 C 173.47 121.40 172.50 121.11 171.73 121.52 L 170.82 122.00 C 170.04 122.42 169.75 123.39 170.16 124.16 C 170.58 124.94 171.55 125.24 172.32 124.82 Z M 173.22 124.34 L 174.11 123.87 C 174.89 123.46 175.19 122.49 174.77 121.72 C 174.36 120.94 173.40 120.64 172.62 121.05 L 171.73 121.52 C 170.95 121.93 170.65 122.90 171.07 123.68 C 171.48 124.46 172.44 124.75 173.22 124.34 Z M 174.11 123.87 L 174.98 123.41 C 175.76 123.00 176.06 122.03 175.64 121.25 C 175.23 120.47 174.26 120.17 173.48 120.59 L 172.61 121.05 C 171.83 121.46 171.54 122.43 171.95 123.21 C 172.36 123.99 173.33 124.29 174.11 123.87 Z M 174.98 123.41 L 175.87 122.94 C 176.65 122.53 176.95 121.56 176.53 120.78 C 176.12 120.00 175.15 119.70 174.37 120.11 L 173.48 120.59 C 172.70 121.00 172.40 121.97 172.82 122.75 C 173.23 123.53 174.20 123.83 174.98 123.41 Z M 175.87 122.95 L 176.77 122.47 C 177.55 122.06 177.85 121.08 177.43 120.30 C 177.02 119.52 176.05 119.22 175.26 119.63 L 174.37 120.11 C 173.58 120.53 173.28 121.50 173.70 122.28 C 174.11 123.06 175.09 123.36 175.87 122.95 Z M 176.77 122.48 L 177.64 122.01 C 178.43 121.60 178.73 120.63 178.32 119.84 C 177.90 119.06 176.93 118.75 176.14 119.17 L 175.27 119.63 C 174.48 120.04 174.18 121.02 174.59 121.80 C 175.01 122.59 175.98 122.89 176.77 122.48 Z M 177.64 122.02 L 178.48 121.58 C 179.27 121.16 179.57 120.19 179.16 119.40 C 178.75 118.61 177.77 118.31 176.99 118.72 L 176.14 119.16 C 175.36 119.58 175.05 120.55 175.47 121.34 C 175.88 122.13 176.85 122.43 177.64 122.02 Z M 178.48 121.58 L 179.35 121.13 C 180.14 120.71 180.44 119.74 180.03 118.95 C 179.62 118.16 178.64 117.85 177.85 118.27 L 176.99 118.72 C 176.20 119.13 175.89 120.11 176.31 120.90 C 176.72 121.69 177.69 121.99 178.48 121.58 Z M 179.35 121.13 L 180.25 120.65 C 181.04 120.24 181.35 119.26 180.93 118.47 C 180.51 117.68 179.53 117.38 178.74 117.79 L 177.84 118.27 C 177.05 118.68 176.75 119.66 177.17 120.45 C 177.59 121.24 178.56 121.54 179.35 121.13 Z M 180.26 120.65 L 181.20 120.15 C 181.99 119.73 182.29 118.75 181.87 117.96 C 181.45 117.17 180.47 116.87 179.68 117.29 L 178.74 117.79 C 177.95 118.21 177.65 119.19 178.07 119.98 C 178.49 120.77 179.47 121.07 180.26 120.65 Z M 181.21 120.15 L 182.09 119.68 C 182.88 119.25 183.17 118.27 182.75 117.48 C 182.32 116.69 181.33 116.39 180.54 116.82 L 179.67 117.29 C 178.88 117.72 178.59 118.70 179.01 119.49 C 179.44 120.28 180.42 120.58 181.21 120.15 Z M 182.10 119.68 L 182.98 119.20 C 183.77 118.77 184.07 117.78 183.64 116.99 C 183.20 116.19 182.21 115.90 181.42 116.33 L 180.54 116.82 C 179.75 117.25 179.45 118.24 179.88 119.03 C 180.31 119.82 181.30 120.11 182.10 119.68 Z M 182.99 119.20 L 183.89 118.71 C 184.68 118.28 184.97 117.28 184.54 116.49 C 184.10 115.70 183.11 115.40 182.31 115.84 L 181.42 116.33 C 180.62 116.76 180.33 117.76 180.77 118.55 C 181.20 119.34 182.20 119.64 182.99 119.20 Z M 183.89 118.72 L 184.78 118.23 C 185.58 117.79 185.87 116.79 185.43 116.00 C 185.00 115.20 184.00 114.91 183.20 115.35 L 182.31 115.83 C 181.51 116.27 181.22 117.27 181.66 118.06 C 182.10 118.86 183.09 119.15 183.89 118.72 Z M 184.78 118.23 L 185.65 117.76 C 186.45 117.32 186.74 116.32 186.30 115.52 C 185.87 114.72 184.86 114.43 184.06 114.87 L 183.20 115.34 C 182.40 115.78 182.11 116.78 182.54 117.58 C 182.98 118.38 183.98 118.67 184.78 118.23 Z M 185.65 117.78 L 186.72 117.20 C 187.53 116.76 187.83 115.75 187.39 114.94 C 186.95 114.14 185.94 113.83 185.13 114.27 L 184.07 114.85 C 183.26 115.28 182.95 116.29 183.39 117.10 C 183.83 117.91 184.84 118.21 185.65 117.78 Z M 186.64 117.27 L 187.71 116.77 C 188.56 116.38 188.92 115.37 188.53 114.52 C 188.13 113.67 187.12 113.31 186.27 113.70 L 185.21 114.20 C 184.36 114.60 183.99 115.60 184.39 116.45 C 184.79 117.30 185.79 117.67 186.64 117.27 Z M 187.36 116.93 L 188.19 116.75 C 189.12 116.55 189.71 115.62 189.51 114.69 C 189.31 113.75 188.38 113.16 187.45 113.37 L 186.62 113.55 C 185.69 113.75 185.09 114.67 185.30 115.61 C 185.50 116.54 186.42 117.13 187.36 116.93 Z M 186.96 116.60 L 187.47 116.88 C 188.33 117.36 189.40 117.05 189.87 116.19 C 190.34 115.34 190.04 114.27 189.18 113.79 L 188.67 113.51 C 187.82 113.04 186.74 113.35 186.27 114.20 C 185.80 115.06 186.11 116.13 186.96 116.60 Z M 186.60 115.76 L 186.76 116.45 C 186.99 117.41 187.96 118.00 188.91 117.77 C 189.87 117.54 190.46 116.57 190.23 115.62 L 190.06 114.92 C 189.83 113.96 188.87 113.38 187.91 113.61 C 186.95 113.84 186.36 114.80 186.60 115.76 Z M 186.71 115.98 L 186.68 116.97 C 186.65 117.96 187.42 118.78 188.41 118.81 C 189.39 118.84 190.22 118.07 190.25 117.08 L 190.28 116.09 C 190.31 115.11 189.54 114.28 188.55 114.25 C 187.57 114.22 186.74 114.99 186.71 115.98 Z M 186.69 116.80 L 186.55 117.94 C 186.42 118.92 187.12 119.82 188.09 119.94 C 189.07 120.07 189.97 119.37 190.09 118.39 L 190.24 117.25 C 190.36 116.27 189.67 115.38 188.69 115.26 C 187.71 115.13 186.82 115.82 186.69 116.80 Z M 186.55 117.90 L 186.38 119.05 C 186.23 120.02 186.90 120.94 187.88 121.08 C 188.85 121.23 189.76 120.56 189.91 119.59 L 190.09 118.44 C 190.24 117.46 189.57 116.55 188.59 116.40 C 187.61 116.25 186.70 116.92 186.55 117.90 Z M 186.37 119.08 L 186.23 120.19 C 186.10 121.17 186.78 122.07 187.76 122.20 C 188.74 122.32 189.64 121.64 189.77 120.66 L 189.92 119.55 C 190.05 118.57 189.36 117.67 188.38 117.54 C 187.40 117.41 186.50 118.10 186.37 119.08 Z M 186.22 120.24 L 186.12 121.24 C 186.02 122.22 186.74 123.09 187.72 123.19 C 188.70 123.29 189.58 122.58 189.68 121.59 L 189.78 120.60 C 189.88 119.62 189.16 118.74 188.18 118.64 C 187.20 118.54 186.32 119.26 186.22 120.24 Z M 186.11 121.29 L 186.05 122.22 C 185.98 123.20 186.73 124.06 187.71 124.13 C 188.70 124.19 189.55 123.45 189.62 122.46 L 189.68 121.54 C 189.75 120.55 189.01 119.70 188.02 119.63 C 187.04 119.56 186.18 120.31 186.11 121.29 Z M 186.05 122.27 L 186.01 123.20 C 185.97 124.19 186.73 125.02 187.72 125.06 C 188.71 125.10 189.54 124.34 189.58 123.35 L 189.62 122.42 C 189.66 121.43 188.90 120.60 187.91 120.55 C 186.92 120.51 186.09 121.28 186.05 122.27 Z M 186.01 123.24 L 185.98 124.23 C 185.96 125.21 186.75 126.03 187.73 126.05 C 188.72 126.08 189.54 125.29 189.56 124.31 L 189.58 123.31 C 189.61 122.33 188.82 121.51 187.83 121.49 C 186.85 121.47 186.03 122.25 186.01 123.24 Z M 185.98 124.25 L 185.98 125.25 C 185.97 126.24 186.76 127.05 187.75 127.06 C 188.74 127.07 189.55 126.27 189.55 125.28 L 189.56 124.28 C 189.57 123.29 188.78 122.48 187.79 122.48 C 186.80 122.47 185.99 123.26 185.98 124.25 Z M 185.97 125.26 L 185.97 126.28 C 185.97 127.27 186.77 128.07 187.76 128.07 C 188.75 128.07 189.55 127.27 189.55 126.28 L 189.56 125.27 C 189.56 124.28 188.76 123.48 187.77 123.48 C 186.78 123.48 185.98 124.28 185.97 125.26 Z M 185.97 126.28 L 185.97 127.27 C 185.97 128.26 186.77 129.06 187.76 129.06 C 188.75 129.06 189.56 128.26 189.56 127.27 L 189.56 126.28 C 189.56 125.29 188.75 124.49 187.76 124.49 C 186.77 124.49 185.97 125.29 185.97 126.28 Z M 185.97 127.27 L 185.97 128.26 C 185.97 129.26 186.77 130.06 187.76 130.06 C 188.76 130.06 189.56 129.26 189.56 128.26 L 189.56 127.27 C 189.56 126.28 188.76 125.47 187.76 125.47 C 186.77 125.47 185.97 126.28 185.97 127.27 Z M 185.96 128.26 L 185.96 129.27 C 185.96 130.27 186.77 131.07 187.76 131.07 C 188.76 131.07 189.56 130.27 189.56 129.27 L 189.56 128.26 C 189.56 127.27 188.76 126.46 187.76 126.46 C 186.77 126.46 185.96 127.27 185.96 128.26 Z M 185.96 129.27 L 185.96 130.28 C 185.96 131.27 186.77 132.08 187.76 132.08 C 188.76 132.08 189.57 131.27 189.57 130.28 L 189.57 129.27 C 189.57 128.28 188.76 127.47 187.76 127.47 C 186.77 127.47 185.96 128.28 185.96 129.27 Z M 185.96 130.28 L 185.96 131.28 C 185.96 132.28 186.77 133.08 187.77 133.08 C 188.77 133.08 189.58 132.26 189.57 131.27 L 189.57 130.27 C 189.57 129.27 188.76 128.47 187.76 128.47 C 186.76 128.47 185.95 129.29 185.96 130.28 Z M 185.96 131.30 L 185.97 132.30 C 185.98 133.30 186.81 134.10 187.81 134.09 C 188.81 134.07 189.61 133.25 189.59 132.25 L 189.58 131.25 C 189.56 130.25 188.74 129.45 187.74 129.46 C 186.74 129.47 185.94 130.30 185.96 131.30 Z M 185.97 132.33 L 186.00 133.34 C 186.03 134.34 186.87 135.13 187.87 135.09 C 188.88 135.06 189.66 134.22 189.63 133.22 L 189.60 132.21 C 189.56 131.21 188.72 130.43 187.72 130.46 C 186.72 130.49 185.93 131.33 185.97 132.33 Z M 186.00 133.38 L 186.05 134.38 C 186.11 135.39 186.97 136.15 187.98 136.09 C 188.98 136.04 189.75 135.17 189.69 134.17 L 189.63 133.17 C 189.57 132.17 188.71 131.40 187.71 131.46 C 186.70 131.52 185.94 132.38 186.00 133.38 Z M 186.05 134.43 L 186.14 135.42 C 186.22 136.43 187.10 137.17 188.11 137.09 C 189.11 137.01 189.86 136.12 189.77 135.12 L 189.69 134.12 C 189.61 133.12 188.72 132.37 187.72 132.46 C 186.72 132.54 185.97 133.42 186.05 134.43 Z M 186.14 135.46 L 186.24 136.46 C 186.34 137.46 187.24 138.19 188.25 138.09 C 189.25 137.98 189.98 137.08 189.88 136.08 L 189.77 135.08 C 189.67 134.08 188.77 133.35 187.77 133.45 C 186.76 133.56 186.03 134.46 186.14 135.46 Z M 186.24 136.48 L 186.35 137.48 C 186.47 138.48 187.39 139.20 188.39 139.08 C 189.40 138.96 190.12 138.05 190.00 137.05 L 189.88 136.05 C 189.76 135.05 188.85 134.33 187.84 134.45 C 186.84 134.57 186.12 135.48 186.24 136.48 Z M 186.35 137.50 L 186.48 138.47 C 186.61 139.48 187.53 140.19 188.54 140.06 C 189.54 139.93 190.26 139.01 190.13 138.00 L 190.00 137.03 C 189.87 136.02 188.95 135.31 187.94 135.44 C 186.93 135.57 186.22 136.49 186.35 137.50 Z M 186.47 138.48 L 186.60 139.46 C 186.73 140.47 187.66 141.19 188.67 141.05 C 189.68 140.92 190.40 139.99 190.26 138.98 L 190.13 138.00 C 190.00 136.99 189.07 136.27 188.06 136.41 C 187.05 136.54 186.34 137.47 186.47 138.48 Z M 186.59 139.46 L 186.72 140.46 C 186.85 141.47 187.78 142.19 188.80 142.06 C 189.82 141.92 190.53 140.99 190.40 139.98 L 190.27 138.98 C 190.14 137.97 189.21 137.25 188.19 137.38 C 187.18 137.51 186.46 138.44 186.59 139.46 Z M 186.71 140.44 L 186.84 141.45 C 186.96 142.47 187.89 143.20 188.91 143.07 C 189.93 142.95 190.66 142.02 190.53 141.00 L 190.41 139.99 C 190.28 138.97 189.36 138.25 188.33 138.37 C 187.31 138.49 186.59 139.42 186.71 140.44 Z M 186.83 141.43 L 186.94 142.39 C 187.05 143.42 187.97 144.16 189.00 144.04 C 190.02 143.93 190.76 143.00 190.65 141.98 L 190.54 141.02 C 190.43 139.99 189.50 139.25 188.48 139.37 C 187.45 139.48 186.72 140.41 186.83 141.43 Z M 186.93 142.37 L 187.03 143.36 C 187.13 144.38 188.04 145.13 189.07 145.03 C 190.10 144.93 190.85 144.02 190.75 142.99 L 190.65 142.00 C 190.55 140.98 189.64 140.22 188.61 140.33 C 187.58 140.43 186.83 141.34 186.93 142.37 Z M 187.02 143.33 L 187.11 144.34 C 187.19 145.37 188.10 146.14 189.13 146.05 C 190.16 145.96 190.93 145.06 190.84 144.02 L 190.75 143.02 C 190.67 141.98 189.76 141.22 188.73 141.31 C 187.70 141.39 186.93 142.30 187.02 143.33 Z M 187.10 144.31 L 187.17 145.34 C 187.24 146.38 188.14 147.16 189.17 147.08 C 190.21 147.01 190.99 146.12 190.92 145.08 L 190.84 144.05 C 190.77 143.02 189.88 142.24 188.84 142.31 C 187.81 142.38 187.03 143.28 187.10 144.31 Z M 187.17 145.31 L 187.22 146.31 C 187.28 147.35 188.16 148.14 189.20 148.09 C 190.23 148.03 191.03 147.15 190.97 146.11 L 190.92 145.11 C 190.86 144.08 189.98 143.28 188.94 143.34 C 187.91 143.39 187.11 144.28 187.17 145.31 Z M 187.22 146.28 L 187.25 147.29 C 187.29 148.32 188.16 149.13 189.20 149.10 C 190.24 149.06 191.05 148.19 191.01 147.15 L 190.97 146.15 C 190.94 145.11 190.07 144.30 189.03 144.33 C 187.99 144.37 187.18 145.24 187.22 146.28 Z M 187.25 147.25 L 187.27 148.25 C 187.28 149.29 188.14 150.12 189.18 150.11 C 190.21 150.09 191.04 149.24 191.03 148.20 L 191.01 147.19 C 191.00 146.15 190.14 145.32 189.10 145.34 C 188.07 145.36 187.24 146.21 187.25 147.25 Z M 187.27 148.21 L 187.26 149.20 C 187.25 150.24 188.08 151.09 189.12 151.10 C 190.16 151.11 191.01 150.27 191.02 149.23 L 191.03 148.24 C 191.04 147.20 190.20 146.35 189.16 146.34 C 188.13 146.34 187.28 147.17 187.27 148.21 Z M 187.26 149.14 L 187.22 150.22 C 187.17 151.26 187.98 152.14 189.02 152.18 C 190.06 152.22 190.93 151.41 190.97 150.38 L 191.02 149.29 C 191.06 148.26 190.25 147.38 189.22 147.34 C 188.18 147.30 187.30 148.10 187.26 149.14 Z M 187.22 150.10 L 187.11 151.17 C 187.01 152.20 187.76 153.13 188.79 153.23 C 189.82 153.34 190.75 152.59 190.85 151.56 L 190.97 150.49 C 191.07 149.46 190.32 148.54 189.29 148.43 C 188.26 148.32 187.33 149.07 187.22 150.10 Z M 187.15 150.95 L 186.94 151.89 C 186.70 152.90 187.34 153.91 188.35 154.14 C 189.36 154.37 190.37 153.74 190.60 152.73 L 190.82 151.78 C 191.05 150.77 190.41 149.76 189.40 149.53 C 188.39 149.30 187.38 149.93 187.15 150.95 Z M 187.06 151.52 L 186.70 152.30 C 186.27 153.25 186.68 154.36 187.62 154.80 C 188.56 155.23 189.68 154.82 190.11 153.88 L 190.47 153.10 C 190.91 152.16 190.50 151.04 189.56 150.60 C 188.61 150.17 187.50 150.58 187.06 151.52 Z M 187.07 151.79 L 186.41 152.46 C 185.69 153.20 185.71 154.39 186.45 155.11 C 187.19 155.83 188.37 155.81 189.09 155.07 L 189.75 154.40 C 190.47 153.66 190.45 152.47 189.71 151.75 C 188.97 151.03 187.79 151.05 187.07 151.79 Z M 186.93 152.11 L 186.06 152.54 C 185.14 153.00 184.77 154.11 185.22 155.02 C 185.68 155.94 186.79 156.31 187.70 155.86 L 188.57 155.43 C 189.49 154.97 189.86 153.86 189.41 152.94 C 188.95 152.03 187.84 151.65 186.93 152.11 Z M 186.44 152.42 L 185.42 152.67 C 184.43 152.91 183.83 153.90 184.07 154.89 C 184.31 155.87 185.30 156.47 186.29 156.23 L 187.32 155.98 C 188.30 155.74 188.90 154.75 188.66 153.76 C 188.42 152.78 187.43 152.18 186.44 152.42 Z M 185.65 152.66 L 184.66 152.78 C 183.67 152.89 182.97 153.79 183.08 154.77 C 183.19 155.76 184.09 156.47 185.07 156.35 L 186.06 156.24 C 187.05 156.12 187.75 155.23 187.64 154.24 C 187.52 153.26 186.63 152.55 185.65 152.66 Z M 184.84 152.82 L 183.84 152.83 C 182.87 152.84 182.10 153.64 182.11 154.60 C 182.12 155.56 182.91 156.33 183.88 156.32 L 184.89 156.31 C 185.85 156.30 186.62 155.51 186.61 154.54 C 186.60 153.58 185.81 152.81 184.84 152.82 Z M 184.03 152.90 L 183.03 152.79 C 182.10 152.70 181.27 153.37 181.17 154.30 C 181.08 155.22 181.75 156.05 182.68 156.15 L 183.68 156.26 C 184.61 156.35 185.44 155.68 185.54 154.75 C 185.63 153.83 184.96 153.00 184.03 152.90 Z M 183.25 152.89 L 182.30 152.65 C 181.42 152.43 180.53 152.96 180.31 153.84 C 180.10 154.71 180.63 155.60 181.50 155.82 L 182.46 156.06 C 183.33 156.28 184.22 155.74 184.44 154.87 C 184.66 153.99 184.13 153.11 183.25 152.89 Z M 182.52 152.77 L 181.63 152.40 C 180.82 152.06 179.89 152.44 179.55 153.25 C 179.21 154.05 179.59 154.98 180.40 155.32 L 181.28 155.70 C 182.09 156.04 183.02 155.66 183.36 154.85 C 183.70 154.04 183.32 153.11 182.52 152.77 Z M 181.79 152.53 L 180.94 152.03 C 180.20 151.60 179.26 151.85 178.83 152.59 C 178.40 153.33 178.65 154.27 179.39 154.70 L 180.24 155.20 C 180.98 155.62 181.92 155.37 182.35 154.64 C 182.78 153.90 182.53 152.96 181.79 152.53 Z M 181.03 152.14 L 180.19 151.54 C 179.51 151.06 178.58 151.22 178.09 151.89 C 177.61 152.56 177.77 153.50 178.44 153.98 L 179.29 154.59 C 179.97 155.07 180.90 154.91 181.38 154.24 C 181.86 153.56 181.71 152.63 181.03 152.14 Z M 180.23 151.61 L 179.47 151.00 C 178.84 150.50 177.91 150.60 177.41 151.23 C 176.90 151.87 177.00 152.79 177.64 153.30 L 178.40 153.91 C 179.03 154.41 179.95 154.31 180.46 153.68 C 180.97 153.05 180.87 152.12 180.23 151.61 Z M 179.50 151.04 L 178.76 150.41 C 178.14 149.89 177.23 149.96 176.70 150.57 C 176.18 151.18 176.25 152.10 176.87 152.62 L 177.61 153.26 C 178.22 153.78 179.14 153.71 179.66 153.10 C 180.18 152.49 180.11 151.57 179.50 151.04 Z M 178.77 150.44 L 178.02 149.76 C 177.42 149.23 176.51 149.28 175.97 149.88 C 175.44 150.48 175.50 151.39 176.09 151.92 L 176.85 152.60 C 177.45 153.13 178.36 153.07 178.89 152.48 C 179.42 151.88 179.37 150.97 178.77 150.44 Z M 178.02 149.78 L 177.26 149.08 C 176.67 148.55 175.76 148.59 175.23 149.18 C 174.69 149.76 174.74 150.67 175.32 151.21 L 176.09 151.91 C 176.67 152.44 177.58 152.40 178.12 151.81 C 178.65 151.22 178.61 150.32 178.02 149.78 Z M 177.26 149.09 L 176.83 148.69 C 176.24 148.16 175.34 148.20 174.80 148.78 C 174.27 149.36 174.31 150.27 174.89 150.80 L 175.32 151.20 C 175.90 151.73 176.81 151.70 177.34 151.11 C 177.88 150.53 177.84 149.63 177.26 149.09 Z"
      fill="black"
      fill-rule="nonzero" /><path d="M 125.89 115.22 L 125.54 116.16 C 125.25 116.94 125.64 117.81 126.43 118.10 C 127.21 118.39 128.08 118.00 128.37 117.22 L 128.72 116.28 C 129.01 115.50 128.62 114.63 127.84 114.34 C 127.06 114.04 126.19 114.44 125.89 115.22 Z M 125.53 116.15 L 125.18 117.09 C 124.89 117.87 125.28 118.75 126.07 119.05 C 126.86 119.34 127.73 118.94 128.03 118.16 L 128.38 117.22 C 128.67 116.43 128.28 115.56 127.49 115.26 C 126.70 114.97 125.83 115.37 125.53 116.15 Z M 125.17 117.08 L 124.82 118.02 C 124.52 118.81 124.92 119.69 125.72 119.99 C 126.51 120.29 127.39 119.89 127.69 119.10 L 128.04 118.16 C 128.33 117.37 127.93 116.48 127.14 116.19 C 126.35 115.89 125.47 116.29 125.17 117.08 Z M 124.81 118.02 L 124.46 118.95 C 124.16 119.75 124.56 120.64 125.36 120.94 C 126.16 121.24 127.05 120.83 127.35 120.04 L 127.70 119.10 C 128.00 118.30 127.59 117.41 126.79 117.11 C 126.00 116.81 125.11 117.22 124.81 118.02 Z M 124.45 118.95 L 124.27 119.44 C 123.97 120.24 124.37 121.13 125.17 121.43 C 125.98 121.73 126.87 121.33 127.17 120.53 L 127.35 120.04 C 127.65 119.24 127.25 118.34 126.45 118.04 C 125.64 117.74 124.75 118.15 124.45 118.95 Z"
      fill="black"
      fill-rule="nonzero" /><path d="M 118.86 151.54 L 119.73 151.93 C 120.49 152.29 121.40 151.95 121.76 151.18 C 122.11 150.41 121.77 149.50 121.00 149.15 L 120.14 148.75 C 119.37 148.40 118.46 148.74 118.11 149.51 C 117.76 150.27 118.09 151.18 118.86 151.54 Z M 119.74 151.94 L 120.63 152.33 C 121.40 152.68 122.30 152.33 122.65 151.56 C 122.99 150.79 122.64 149.88 121.87 149.54 L 120.99 149.14 C 120.21 148.80 119.31 149.15 118.97 149.92 C 118.62 150.69 118.97 151.59 119.74 151.94 Z M 120.66 152.34 L 121.59 152.73 C 122.37 153.06 123.26 152.69 123.59 151.92 C 123.91 151.14 123.55 150.24 122.77 149.92 L 121.84 149.53 C 121.06 149.20 120.17 149.57 119.84 150.35 C 119.52 151.12 119.88 152.02 120.66 152.34 Z M 121.63 152.75 L 122.63 153.13 C 123.42 153.43 124.30 153.04 124.60 152.26 C 124.91 151.47 124.51 150.59 123.73 150.29 L 122.73 149.90 C 121.94 149.60 121.06 149.99 120.76 150.78 C 120.46 151.56 120.85 152.45 121.63 152.75 Z M 122.67 153.15 L 123.61 153.48 C 124.41 153.76 125.28 153.35 125.56 152.55 C 125.84 151.75 125.42 150.88 124.63 150.60 L 123.69 150.27 C 122.89 149.99 122.02 150.40 121.74 151.20 C 121.46 152.00 121.88 152.87 122.67 153.15 Z M 123.61 153.49 L 124.58 153.83 C 125.38 154.11 126.26 153.69 126.54 152.88 C 126.82 152.08 126.40 151.21 125.59 150.93 L 124.63 150.59 C 123.82 150.31 122.95 150.73 122.67 151.53 C 122.39 152.34 122.81 153.21 123.61 153.49 Z M 124.55 153.83 L 125.51 154.19 C 126.31 154.48 127.20 154.08 127.50 153.27 C 127.80 152.47 127.39 151.58 126.59 151.28 L 125.63 150.93 C 124.83 150.63 123.94 151.04 123.64 151.84 C 123.34 152.64 123.75 153.53 124.55 153.83 Z M 125.44 154.17 L 126.34 154.55 C 127.13 154.89 128.05 154.52 128.39 153.73 C 128.72 152.94 128.36 152.03 127.57 151.69 L 126.66 151.30 C 125.87 150.96 124.95 151.33 124.61 152.12 C 124.28 152.91 124.64 153.83 125.44 154.17 Z M 126.22 154.50 L 127.12 154.99 C 127.89 155.40 128.84 155.11 129.24 154.35 C 129.65 153.58 129.36 152.63 128.60 152.22 L 127.69 151.74 C 126.93 151.33 125.98 151.62 125.57 152.38 C 125.16 153.15 125.45 154.10 126.22 154.50 Z M 126.93 154.88 L 127.80 155.51 C 128.50 156.03 129.49 155.87 130.00 155.16 C 130.52 154.46 130.36 153.47 129.66 152.96 L 128.79 152.33 C 128.08 151.82 127.10 151.97 126.58 152.68 C 126.07 153.38 126.23 154.37 126.93 154.88 Z M 127.58 155.34 L 128.26 156.04 C 128.87 156.67 129.88 156.69 130.51 156.08 C 131.14 155.47 131.16 154.46 130.55 153.83 L 129.87 153.13 C 129.26 152.50 128.25 152.48 127.62 153.09 C 126.99 153.70 126.97 154.71 127.58 155.34 Z M 128.06 155.81 L 128.55 156.57 C 129.03 157.31 130.02 157.52 130.77 157.04 C 131.51 156.56 131.73 155.57 131.24 154.83 L 130.75 154.06 C 130.27 153.32 129.28 153.11 128.53 153.59 C 127.79 154.07 127.58 155.06 128.06 155.81 Z M 128.38 156.25 L 128.71 157.17 C 129.02 158.00 129.94 158.44 130.78 158.13 C 131.62 157.83 132.05 156.90 131.75 156.06 L 131.41 155.15 C 131.11 154.31 130.18 153.87 129.35 154.18 C 128.51 154.48 128.07 155.41 128.38 156.25 Z M 128.62 156.82 L 128.75 157.80 C 128.86 158.69 129.67 159.32 130.56 159.21 C 131.45 159.09 132.08 158.28 131.96 157.39 L 131.84 156.41 C 131.72 155.52 130.91 154.89 130.02 155.01 C 129.14 155.12 128.51 155.93 128.62 156.82 Z M 128.73 157.51 L 128.67 158.51 C 128.62 159.41 129.31 160.18 130.21 160.23 C 131.11 160.28 131.87 159.59 131.92 158.69 L 131.98 157.69 C 132.03 156.79 131.34 156.02 130.45 155.97 C 129.55 155.92 128.78 156.61 128.73 157.51 Z M 128.70 158.29 L 128.52 159.17 C 128.35 160.06 128.93 160.92 129.81 161.09 C 130.69 161.27 131.55 160.69 131.73 159.80 L 131.90 158.92 C 132.07 158.03 131.50 157.17 130.61 157.00 C 129.73 156.83 128.87 157.40 128.70 158.29 Z M 128.57 159.00 L 128.29 159.88 C 128.02 160.74 128.50 161.65 129.36 161.92 C 130.22 162.20 131.14 161.72 131.41 160.85 L 131.68 159.98 C 131.95 159.12 131.47 158.20 130.61 157.93 C 129.75 157.66 128.84 158.14 128.57 159.00 Z M 128.34 159.75 L 127.95 160.69 C 127.61 161.53 128.01 162.48 128.84 162.83 C 129.68 163.17 130.63 162.77 130.97 161.93 L 131.36 160.99 C 131.71 160.15 131.31 159.20 130.47 158.85 C 129.63 158.51 128.68 158.91 128.34 159.75 Z M 127.98 160.61 L 127.49 161.64 C 127.10 162.46 127.44 163.43 128.26 163.82 C 129.08 164.21 130.05 163.87 130.44 163.05 L 130.94 162.02 C 131.33 161.20 130.98 160.23 130.17 159.84 C 129.35 159.45 128.38 159.79 127.98 160.61 Z M 127.51 161.59 L 127.07 162.45 C 126.66 163.25 126.97 164.24 127.77 164.65 C 128.58 165.07 129.57 164.76 129.98 163.95 L 130.42 163.10 C 130.84 162.29 130.52 161.31 129.72 160.89 C 128.91 160.48 127.93 160.79 127.51 161.59 Z M 127.08 162.42 L 126.60 163.32 C 126.17 164.12 126.47 165.11 127.27 165.54 C 128.06 165.97 129.06 165.67 129.48 164.87 L 129.97 163.98 C 130.40 163.18 130.10 162.19 129.30 161.76 C 128.50 161.33 127.51 161.63 127.08 162.42 Z M 126.61 163.31 L 126.10 164.22 C 125.67 165.01 125.95 166.01 126.75 166.44 C 127.54 166.88 128.53 166.59 128.97 165.80 L 129.48 164.89 C 129.91 164.10 129.63 163.10 128.83 162.67 C 128.04 162.23 127.05 162.52 126.61 163.31 Z M 126.11 164.21 L 125.61 165.10 C 125.17 165.88 125.45 166.88 126.23 167.33 C 127.02 167.77 128.02 167.49 128.46 166.70 L 128.97 165.81 C 129.41 165.03 129.13 164.03 128.34 163.58 C 127.55 163.14 126.56 163.42 126.11 164.21 Z M 125.62 165.09 L 125.13 165.93 C 124.68 166.72 124.96 167.72 125.74 168.17 C 126.53 168.61 127.53 168.34 127.98 167.56 L 128.46 166.71 C 128.91 165.93 128.63 164.93 127.85 164.48 C 127.06 164.03 126.06 164.30 125.62 165.09 Z M 125.14 165.93 L 124.58 166.90 C 124.13 167.68 124.40 168.68 125.18 169.13 C 125.96 169.58 126.96 169.31 127.41 168.53 L 127.97 167.56 C 128.42 166.78 128.15 165.78 127.37 165.33 C 126.59 164.88 125.59 165.15 125.14 165.93 Z M 124.58 166.91 L 124.09 167.78 C 123.64 168.56 123.91 169.55 124.69 170.00 C 125.47 170.44 126.46 170.17 126.91 169.39 L 127.41 168.52 C 127.86 167.74 127.59 166.75 126.81 166.30 C 126.03 165.85 125.03 166.12 124.58 166.91 Z M 124.08 167.79 L 123.63 168.61 C 123.19 169.39 123.47 170.38 124.25 170.82 C 125.03 171.26 126.02 170.98 126.46 170.19 L 126.92 169.37 C 127.35 168.59 127.07 167.60 126.29 167.17 C 125.51 166.73 124.52 167.01 124.08 167.79 Z M 123.61 168.64 L 123.18 169.47 C 122.76 170.26 123.06 171.24 123.85 171.66 C 124.63 172.07 125.61 171.77 126.03 170.99 L 126.47 170.16 C 126.89 169.37 126.59 168.39 125.80 167.97 C 125.01 167.56 124.03 167.86 123.61 168.64 Z M 123.16 169.52 L 122.71 170.43 C 122.32 171.23 122.65 172.19 123.44 172.58 C 124.24 172.98 125.21 172.65 125.60 171.85 L 126.05 170.94 C 126.44 170.14 126.11 169.18 125.31 168.78 C 124.52 168.39 123.55 168.72 123.16 169.52 Z M 122.69 170.50 L 122.28 171.43 C 121.93 172.24 122.30 173.19 123.11 173.54 C 123.92 173.89 124.87 173.52 125.22 172.71 L 125.62 171.78 C 125.98 170.97 125.61 170.02 124.79 169.67 C 123.98 169.32 123.04 169.69 122.69 170.50 Z M 122.25 171.54 L 121.92 172.46 C 121.62 173.29 122.05 174.21 122.88 174.50 C 123.71 174.80 124.63 174.36 124.92 173.53 L 125.25 172.61 C 125.55 171.78 125.12 170.86 124.29 170.57 C 123.46 170.27 122.54 170.71 122.25 171.54 Z M 121.88 172.62 L 121.63 173.62 C 121.42 174.48 121.94 175.34 122.80 175.55 C 123.65 175.76 124.51 175.23 124.72 174.38 L 124.96 173.38 C 125.17 172.52 124.65 171.66 123.80 171.45 C 122.94 171.25 122.08 171.77 121.88 172.62 Z M 121.59 173.89 L 121.52 174.90 C 121.45 175.78 122.11 176.54 122.99 176.60 C 123.86 176.66 124.62 176.01 124.68 175.13 L 124.76 174.12 C 124.82 173.24 124.16 172.48 123.29 172.42 C 122.41 172.36 121.65 173.01 121.59 173.89 Z M 121.54 175.31 L 121.71 176.24 C 121.87 177.10 122.70 177.67 123.56 177.51 C 124.42 177.35 124.99 176.52 124.83 175.66 L 124.66 174.73 C 124.50 173.87 123.67 173.30 122.81 173.46 C 121.95 173.62 121.38 174.44 121.54 175.31 Z M 121.89 176.72 L 122.35 177.55 C 122.78 178.32 123.75 178.59 124.51 178.16 C 125.28 177.73 125.55 176.76 125.12 175.99 L 124.66 175.17 C 124.23 174.40 123.26 174.13 122.50 174.56 C 121.73 174.99 121.46 175.96 121.89 176.72 Z M 122.52 177.82 L 123.18 178.58 C 123.76 179.25 124.77 179.32 125.44 178.74 C 126.11 178.16 126.18 177.15 125.60 176.48 L 124.95 175.72 C 124.37 175.05 123.36 174.98 122.69 175.56 C 122.02 176.14 121.94 177.15 122.52 177.82 Z M 123.15 178.57 L 123.79 179.34 C 124.36 180.03 125.39 180.12 126.07 179.54 C 126.76 178.97 126.85 177.95 126.28 177.26 L 125.63 176.49 C 125.06 175.80 124.04 175.71 123.35 176.28 C 122.66 176.86 122.57 177.88 123.15 178.57 Z M 123.58 179.04 L 124.01 179.89 C 124.41 180.69 125.40 181.01 126.20 180.61 C 127.01 180.20 127.33 179.21 126.92 178.41 L 126.49 177.56 C 126.08 176.75 125.10 176.43 124.29 176.84 C 123.49 177.25 123.17 178.23 123.58 179.04 Z M 123.84 179.38 L 123.97 180.32 C 124.10 181.22 124.94 181.84 125.84 181.71 C 126.73 181.58 127.36 180.75 127.23 179.85 L 127.09 178.91 C 126.96 178.01 126.13 177.39 125.23 177.52 C 124.33 177.65 123.71 178.48 123.84 179.38 Z M 123.97 179.83 L 123.81 180.84 C 123.67 181.74 124.29 182.58 125.19 182.72 C 126.08 182.86 126.93 182.25 127.07 181.35 L 127.23 180.34 C 127.37 179.44 126.75 178.60 125.86 178.46 C 124.96 178.32 124.11 178.93 123.97 179.83 Z M 123.92 180.45 L 123.53 181.39 C 123.17 182.22 123.56 183.19 124.40 183.55 C 125.24 183.91 126.21 183.51 126.57 182.67 L 126.96 181.74 C 127.32 180.90 126.93 179.93 126.09 179.58 C 125.25 179.22 124.28 179.61 123.92 180.45 Z M 123.65 181.14 L 123.13 181.95 C 122.64 182.72 122.87 183.75 123.64 184.24 C 124.41 184.73 125.43 184.50 125.92 183.73 L 126.44 182.92 C 126.93 182.15 126.71 181.13 125.94 180.63 C 125.16 180.14 124.14 180.37 123.65 181.14 Z M 123.23 181.81 L 122.60 182.61 C 122.03 183.32 122.14 184.37 122.86 184.94 C 123.58 185.51 124.62 185.39 125.19 184.67 L 125.82 183.87 C 126.39 183.16 126.28 182.12 125.56 181.55 C 124.84 180.98 123.80 181.09 123.23 181.81 Z M 122.67 182.51 L 121.97 183.28 C 121.35 183.95 121.39 185.00 122.06 185.62 C 122.74 186.25 123.79 186.20 124.41 185.53 L 125.11 184.76 C 125.73 184.09 125.69 183.04 125.02 182.42 C 124.34 181.80 123.29 181.84 122.67 182.51 Z M 122.03 183.22 L 121.29 183.94 C 120.63 184.58 120.62 185.63 121.27 186.29 C 121.91 186.94 122.96 186.95 123.62 186.31 L 124.35 185.59 C 125.01 184.95 125.02 183.90 124.38 183.24 C 123.73 182.58 122.68 182.57 122.03 183.22 Z M 121.34 183.89 L 120.59 184.56 C 119.91 185.18 119.85 186.23 120.47 186.91 C 121.08 187.59 122.14 187.65 122.82 187.03 L 123.57 186.36 C 124.25 185.74 124.30 184.69 123.69 184.01 C 123.07 183.33 122.02 183.27 121.34 183.89 Z M 120.64 184.52 L 119.88 185.15 C 119.17 185.74 119.08 186.79 119.67 187.50 C 120.25 188.20 121.30 188.30 122.01 187.71 L 122.77 187.08 C 123.48 186.49 123.57 185.44 122.98 184.73 C 122.40 184.03 121.35 183.93 120.64 184.52 Z M 119.93 185.12 L 119.14 185.72 C 118.42 186.28 118.28 187.33 118.85 188.06 C 119.41 188.78 120.45 188.92 121.18 188.35 L 121.96 187.75 C 122.69 187.18 122.82 186.14 122.26 185.41 C 121.70 184.69 120.65 184.55 119.93 185.12 Z M 119.18 185.69 L 118.38 186.28 C 117.64 186.82 117.47 187.86 118.01 188.60 C 118.55 189.34 119.59 189.51 120.33 188.97 L 121.14 188.38 C 121.88 187.84 122.05 186.80 121.51 186.06 C 120.97 185.32 119.93 185.15 119.18 185.69 Z M 118.42 186.26 L 117.59 186.82 C 116.83 187.34 116.64 188.38 117.16 189.13 C 117.68 189.89 118.71 190.08 119.47 189.56 L 120.29 188.99 C 121.05 188.47 121.24 187.44 120.72 186.68 C 120.20 185.93 119.17 185.74 118.42 186.26 Z M 117.63 186.80 L 116.78 187.35 C 116.02 187.85 115.80 188.87 116.29 189.64 C 116.79 190.40 117.81 190.62 118.58 190.13 L 119.43 189.58 C 120.19 189.08 120.41 188.06 119.92 187.29 C 119.42 186.53 118.40 186.31 117.63 186.80 Z M 116.83 187.33 L 115.97 187.85 C 115.20 188.32 114.95 189.33 115.42 190.11 C 115.89 190.89 116.91 191.14 117.68 190.67 L 118.54 190.15 C 119.31 189.68 119.56 188.66 119.09 187.88 C 118.62 187.11 117.60 186.86 116.83 187.33 Z M 116.02 187.82 L 115.13 188.33 C 114.34 188.77 114.06 189.78 114.50 190.57 C 114.95 191.36 115.95 191.64 116.74 191.19 L 117.64 190.69 C 118.43 190.24 118.71 189.24 118.26 188.45 C 117.82 187.66 116.81 187.38 116.02 187.82 Z M 115.18 188.30 L 114.26 188.77 C 113.46 189.19 113.14 190.19 113.56 190.99 C 113.98 191.80 114.98 192.11 115.78 191.69 L 116.69 191.22 C 117.50 190.80 117.81 189.81 117.40 189.00 C 116.98 188.19 115.98 187.88 115.18 188.30 Z M 114.31 188.75 L 113.42 189.18 C 112.60 189.57 112.25 190.56 112.64 191.38 C 113.04 192.20 114.02 192.54 114.84 192.15 L 115.74 191.72 C 116.56 191.33 116.90 190.34 116.51 189.52 C 116.12 188.70 115.13 188.35 114.31 188.75 Z M 113.46 189.15 L 112.59 189.54 C 111.76 189.91 111.38 190.89 111.75 191.72 C 112.12 192.55 113.10 192.93 113.93 192.56 L 114.80 192.17 C 115.63 191.80 116.01 190.83 115.64 189.99 C 115.27 189.16 114.29 188.78 113.46 189.15 Z M 112.64 189.52 L 111.76 189.88 C 110.91 190.22 110.51 191.18 110.85 192.03 C 111.19 192.87 112.16 193.28 113.00 192.94 L 113.88 192.58 C 114.73 192.24 115.13 191.27 114.79 190.43 C 114.45 189.58 113.48 189.17 112.64 189.52 Z M 111.83 189.85 L 110.93 190.16 C 110.07 190.47 109.61 191.41 109.92 192.27 C 110.22 193.14 111.17 193.59 112.03 193.29 L 112.93 192.97 C 113.79 192.66 114.25 191.72 113.94 190.86 C 113.64 189.99 112.69 189.54 111.83 189.85 Z M 111.02 190.13 L 110.04 190.41 C 109.16 190.66 108.65 191.58 108.90 192.46 C 109.15 193.34 110.07 193.85 110.95 193.60 L 111.93 193.32 C 112.81 193.07 113.32 192.15 113.07 191.27 C 112.82 190.39 111.90 189.88 111.02 190.13 Z M 110.14 190.38 L 108.97 190.64 C 108.07 190.84 107.51 191.72 107.70 192.62 C 107.90 193.51 108.79 194.08 109.68 193.88 L 110.85 193.63 C 111.74 193.43 112.31 192.55 112.12 191.65 C 111.92 190.75 111.03 190.19 110.14 190.38 Z M 109.04 190.61 L 107.78 190.84 C 106.87 191.00 106.26 191.87 106.42 192.78 C 106.58 193.68 107.45 194.29 108.36 194.13 L 109.62 193.91 C 110.53 193.75 111.13 192.88 110.97 191.97 C 110.81 191.06 109.95 190.45 109.04 190.61 Z M 107.79 190.82 L 106.81 190.98 C 105.89 191.13 105.27 192.00 105.42 192.92 C 105.57 193.84 106.44 194.46 107.35 194.31 L 108.34 194.15 C 109.26 194.00 109.88 193.13 109.73 192.21 C 109.58 191.29 108.71 190.67 107.79 190.82 Z M 106.70 190.99 L 106.32 191.07 C 105.40 191.28 104.83 192.20 105.04 193.11 C 105.25 194.03 106.16 194.60 107.08 194.39 L 107.46 194.31 C 108.38 194.10 108.95 193.18 108.74 192.27 C 108.53 191.35 107.62 190.78 106.70 190.99 Z M 106.69 194.46 L 107.25 194.46 C 108.20 194.47 108.97 193.70 108.98 192.74 C 108.98 191.79 108.21 191.02 107.26 191.01 L 106.71 191.01 C 105.75 191.00 104.98 191.77 104.97 192.73 C 104.97 193.68 105.74 194.45 106.69 194.46 Z M 107.31 194.49 L 108.56 194.45 C 109.53 194.41 110.29 193.60 110.26 192.63 C 110.22 191.67 109.41 190.91 108.44 190.94 L 107.19 190.98 C 106.23 191.02 105.47 191.83 105.50 192.80 C 105.53 193.76 106.35 194.52 107.31 194.49 Z M 108.54 194.47 L 109.73 194.45 C 110.71 194.43 111.49 193.62 111.47 192.64 C 111.46 191.66 110.65 190.88 109.67 190.90 L 108.47 190.92 C 107.49 190.94 106.71 191.75 106.73 192.73 C 106.75 193.71 107.56 194.49 108.54 194.47 Z M 109.69 194.46 L 110.62 194.46 C 111.61 194.47 112.41 193.68 112.42 192.69 C 112.42 191.70 111.63 190.90 110.64 190.89 L 109.71 190.89 C 108.73 190.88 107.92 191.67 107.91 192.66 C 107.91 193.65 108.70 194.45 109.69 194.46 Z M 110.58 194.47 L 111.56 194.49 C 112.54 194.52 113.37 193.74 113.39 192.76 C 113.42 191.77 112.65 190.95 111.66 190.92 L 110.68 190.89 C 109.70 190.86 108.87 191.64 108.85 192.63 C 108.82 193.61 109.59 194.44 110.58 194.47 Z M 111.52 194.50 L 112.55 194.55 C 113.54 194.60 114.38 193.83 114.43 192.85 C 114.48 191.86 113.71 191.02 112.73 190.97 L 111.70 190.92 C 110.71 190.87 109.87 191.63 109.82 192.62 C 109.77 193.61 110.53 194.45 111.52 194.50 Z M 112.51 194.55 L 113.62 194.62 C 114.60 194.69 115.46 193.94 115.53 192.95 C 115.60 191.97 114.85 191.11 113.86 191.04 L 112.76 190.97 C 111.77 190.90 110.91 191.64 110.85 192.63 C 110.78 193.62 111.52 194.48 112.51 194.55 Z M 113.59 194.62 L 114.56 194.71 C 115.55 194.79 116.42 194.05 116.50 193.06 C 116.59 192.07 115.85 191.20 114.86 191.12 L 113.89 191.04 C 112.90 190.96 112.03 191.69 111.95 192.68 C 111.86 193.67 112.60 194.54 113.59 194.62 Z M 114.54 194.71 L 115.56 194.80 C 116.55 194.89 117.42 194.17 117.52 193.18 C 117.61 192.19 116.88 191.31 115.89 191.22 L 114.88 191.12 C 113.89 191.03 113.01 191.76 112.92 192.75 C 112.83 193.74 113.55 194.61 114.54 194.71 Z M 115.54 194.80 L 116.57 194.91 C 117.56 195.01 118.44 194.29 118.54 193.30 C 118.64 192.31 117.92 191.42 116.93 191.32 L 115.91 191.22 C 114.92 191.11 114.03 191.84 113.93 192.83 C 113.83 193.82 114.55 194.70 115.54 194.80 Z M 116.55 194.91 L 117.57 195.02 C 118.56 195.12 119.45 194.41 119.56 193.42 C 119.66 192.43 118.95 191.54 117.96 191.43 L 116.94 191.32 C 115.95 191.21 115.06 191.93 114.95 192.92 C 114.85 193.91 115.56 194.80 116.55 194.91 Z M 117.56 195.02 L 118.53 195.13 C 119.52 195.24 120.42 194.53 120.53 193.54 C 120.65 192.55 119.93 191.65 118.94 191.54 L 117.97 191.43 C 116.97 191.32 116.08 192.03 115.97 193.02 C 115.85 194.01 116.57 194.90 117.56 195.02 Z M 118.52 195.13 L 119.56 195.25 C 120.55 195.37 121.45 194.66 121.56 193.67 C 121.68 192.68 120.97 191.78 119.98 191.66 L 118.95 191.54 C 117.96 191.42 117.06 192.13 116.94 193.12 C 116.82 194.11 117.53 195.01 118.52 195.13 Z M 119.55 195.25 L 120.58 195.38 C 121.58 195.50 122.48 194.80 122.60 193.80 C 122.72 192.81 122.02 191.91 121.03 191.79 L 119.99 191.66 C 119.00 191.54 118.09 192.24 117.97 193.24 C 117.85 194.23 118.56 195.13 119.55 195.25 Z M 120.58 195.38 L 121.56 195.50 C 122.55 195.63 123.46 194.92 123.58 193.93 C 123.70 192.93 123.00 192.03 122.00 191.90 L 121.03 191.78 C 120.03 191.66 119.13 192.37 119.00 193.36 C 118.88 194.36 119.59 195.26 120.58 195.38 Z M 121.56 195.51 L 122.51 195.62 C 123.51 195.74 124.41 195.03 124.53 194.03 C 124.65 193.04 123.94 192.13 122.94 192.01 L 122.00 191.90 C 121.00 191.78 120.10 192.49 119.98 193.49 C 119.86 194.48 120.57 195.39 121.56 195.51 Z M 122.52 195.63 L 123.47 195.73 C 124.47 195.85 125.37 195.13 125.48 194.13 C 125.59 193.13 124.87 192.23 123.88 192.11 L 122.93 192.01 C 121.93 191.90 121.03 192.61 120.92 193.61 C 120.81 194.61 121.52 195.51 122.52 195.63 Z M 123.48 195.74 L 124.44 195.84 C 125.44 195.94 126.33 195.21 126.44 194.21 C 126.54 193.21 125.81 192.31 124.81 192.21 L 123.86 192.11 C 122.86 192.01 121.96 192.73 121.86 193.74 C 121.75 194.74 122.48 195.63 123.48 195.74 Z M 124.45 195.84 L 125.43 195.94 C 126.43 196.03 127.32 195.30 127.42 194.30 C 127.52 193.29 126.78 192.40 125.78 192.30 L 124.80 192.21 C 123.80 192.11 122.91 192.84 122.81 193.84 C 122.71 194.85 123.44 195.74 124.45 195.84 Z M 125.43 195.94 L 126.43 196.03 C 127.44 196.13 128.33 195.39 128.43 194.39 C 128.52 193.38 127.79 192.49 126.78 192.39 L 125.78 192.30 C 124.77 192.20 123.88 192.94 123.78 193.95 C 123.69 194.95 124.43 195.84 125.43 195.94 Z M 126.43 196.04 L 127.46 196.13 C 128.47 196.23 129.36 195.49 129.46 194.49 C 129.56 193.48 128.82 192.59 127.81 192.49 L 126.78 192.39 C 125.77 192.30 124.88 193.03 124.79 194.04 C 124.69 195.05 125.43 195.94 126.43 196.04 Z M 127.46 196.14 L 128.44 196.23 C 129.45 196.33 130.34 195.59 130.44 194.59 C 130.54 193.58 129.80 192.68 128.79 192.58 L 127.82 192.49 C 126.81 192.39 125.91 193.13 125.81 194.13 C 125.72 195.14 126.45 196.04 127.46 196.14 Z M 128.43 196.23 L 129.39 196.33 C 130.39 196.43 131.29 195.69 131.39 194.68 C 131.49 193.68 130.76 192.78 129.75 192.68 L 128.80 192.58 C 127.79 192.48 126.89 193.22 126.79 194.23 C 126.69 195.23 127.43 196.13 128.43 196.23 Z M 129.38 196.33 L 130.36 196.43 C 131.37 196.53 132.27 195.79 132.37 194.78 C 132.47 193.78 131.74 192.88 130.73 192.77 L 129.75 192.68 C 128.74 192.57 127.84 193.31 127.74 194.32 C 127.64 195.33 128.38 196.23 129.38 196.33 Z M 130.36 196.43 L 131.37 196.53 C 132.38 196.63 133.28 195.89 133.38 194.88 C 133.48 193.87 132.75 192.97 131.74 192.87 L 130.73 192.77 C 129.72 192.67 128.82 193.41 128.72 194.42 C 128.62 195.43 129.35 196.33 130.36 196.43 Z M 131.37 196.53 L 132.41 196.63 C 133.43 196.73 134.33 196.00 134.43 194.98 C 134.52 193.97 133.79 193.07 132.77 192.97 L 131.73 192.87 C 130.72 192.77 129.82 193.51 129.72 194.52 C 129.62 195.53 130.36 196.43 131.37 196.53 Z M 132.42 196.64 L 133.44 196.73 C 134.45 196.83 135.35 196.09 135.44 195.08 C 135.54 194.06 134.80 193.16 133.79 193.07 L 132.77 192.97 C 131.76 192.87 130.86 193.62 130.76 194.63 C 130.66 195.64 131.41 196.54 132.42 196.64 Z M 133.44 196.74 L 134.41 196.83 C 135.43 196.92 136.33 196.17 136.42 195.16 C 136.51 194.15 135.77 193.25 134.75 193.16 L 133.78 193.07 C 132.77 192.97 131.87 193.72 131.78 194.73 C 131.68 195.74 132.43 196.64 133.44 196.74 Z M 134.42 196.83 L 135.41 196.92 C 136.42 197.01 137.32 196.26 137.41 195.25 C 137.51 194.23 136.76 193.34 135.74 193.24 L 134.75 193.15 C 133.74 193.06 132.84 193.81 132.75 194.82 C 132.66 195.84 133.40 196.74 134.42 196.83 Z M 135.41 196.92 L 136.42 197.01 C 137.43 197.10 138.33 196.35 138.42 195.34 C 138.51 194.32 137.76 193.42 136.75 193.33 L 135.74 193.24 C 134.73 193.15 133.83 193.90 133.74 194.92 C 133.65 195.93 134.40 196.83 135.41 196.92 Z M 136.42 197.01 L 137.43 197.10 C 138.45 197.19 139.34 196.44 139.44 195.43 C 139.53 194.41 138.78 193.51 137.76 193.42 L 136.75 193.33 C 135.73 193.24 134.83 193.99 134.74 195.01 C 134.65 196.02 135.40 196.92 136.42 197.01 Z M 137.43 197.10 L 138.44 197.19 C 139.46 197.28 140.36 196.53 140.45 195.52 C 140.54 194.50 139.79 193.60 138.77 193.51 L 137.76 193.42 C 136.74 193.33 135.85 194.08 135.75 195.10 C 135.66 196.11 136.41 197.01 137.43 197.10 Z M 138.44 197.19 L 139.45 197.28 C 140.46 197.38 141.36 196.63 141.46 195.61 C 141.55 194.59 140.80 193.69 139.78 193.60 L 138.77 193.51 C 137.75 193.42 136.86 194.17 136.76 195.19 C 136.67 196.20 137.42 197.10 138.44 197.19 Z M 139.45 197.29 L 140.45 197.38 C 141.46 197.47 142.36 196.72 142.46 195.70 C 142.55 194.68 141.80 193.78 140.78 193.69 L 139.78 193.60 C 138.76 193.51 137.86 194.26 137.77 195.28 C 137.68 196.29 138.43 197.19 139.45 197.29 Z M 140.45 197.38 L 141.44 197.47 C 142.46 197.56 143.36 196.81 143.45 195.79 C 143.54 194.77 142.79 193.87 141.77 193.78 L 140.78 193.69 C 139.76 193.60 138.86 194.35 138.77 195.37 C 138.68 196.39 139.43 197.28 140.45 197.38 Z M 141.45 197.47 L 142.44 197.55 C 143.45 197.64 144.35 196.89 144.44 195.87 C 144.53 194.85 143.78 193.96 142.76 193.87 L 141.77 193.78 C 140.75 193.69 139.85 194.44 139.76 195.46 C 139.67 196.48 140.43 197.38 141.45 197.47 Z M 142.44 197.56 L 143.43 197.64 C 144.45 197.73 145.35 196.97 145.44 195.95 C 145.52 194.94 144.77 194.04 143.75 193.95 L 142.76 193.87 C 141.74 193.78 140.84 194.53 140.75 195.55 C 140.67 196.57 141.42 197.47 142.44 197.56 Z M 143.44 197.64 L 144.43 197.72 C 145.45 197.81 146.35 197.05 146.43 196.03 C 146.52 195.01 145.76 194.12 144.74 194.03 L 143.74 193.95 C 142.72 193.87 141.83 194.62 141.75 195.64 C 141.66 196.66 142.42 197.56 143.44 197.64 Z M 144.44 197.72 L 145.42 197.80 C 146.44 197.88 147.33 197.12 147.41 196.10 C 147.49 195.08 146.73 194.19 145.71 194.11 L 144.73 194.03 C 143.71 193.95 142.82 194.71 142.74 195.73 C 142.66 196.75 143.42 197.64 144.44 197.72 Z M 145.43 197.80 L 146.41 197.88 C 147.43 197.95 148.32 197.19 148.40 196.17 C 148.47 195.14 147.71 194.26 146.69 194.18 L 145.70 194.11 C 144.68 194.03 143.79 194.80 143.72 195.82 C 143.64 196.84 144.41 197.73 145.43 197.80 Z M 146.42 197.88 L 147.41 197.95 C 148.43 198.02 149.31 197.25 149.39 196.23 C 149.46 195.21 148.69 194.32 147.67 194.25 L 146.68 194.18 C 145.66 194.11 144.77 194.87 144.70 195.90 C 144.63 196.92 145.40 197.80 146.42 197.88 Z M 147.41 197.95 L 148.41 198.02 C 149.43 198.09 150.32 197.31 150.39 196.29 C 150.46 195.27 149.69 194.39 148.66 194.32 L 147.67 194.25 C 146.64 194.18 145.76 194.95 145.69 195.97 C 145.62 196.99 146.39 197.88 147.41 197.95 Z M 148.41 198.02 L 149.42 198.08 C 150.45 198.15 151.33 197.38 151.40 196.36 C 151.46 195.34 150.69 194.45 149.67 194.38 L 148.66 194.32 C 147.64 194.25 146.76 195.02 146.69 196.04 C 146.62 197.07 147.39 197.95 148.41 198.02 Z M 149.43 198.08 L 150.45 198.15 C 151.47 198.22 152.35 197.44 152.42 196.42 C 152.48 195.40 151.71 194.52 150.69 194.45 L 149.67 194.38 C 148.65 194.32 147.76 195.09 147.70 196.11 C 147.63 197.14 148.40 198.02 149.43 198.08 Z M 150.45 198.15 L 151.43 198.21 C 152.45 198.28 153.34 197.50 153.40 196.48 C 153.47 195.46 152.69 194.58 151.67 194.51 L 150.68 194.45 C 149.66 194.38 148.78 195.16 148.71 196.18 C 148.65 197.20 149.42 198.09 150.45 198.15 Z M 151.43 198.21 L 152.42 198.28 C 153.44 198.34 154.32 197.57 154.38 196.54 C 154.45 195.52 153.67 194.64 152.65 194.57 L 151.67 194.51 C 150.65 194.45 149.76 195.22 149.70 196.25 C 149.63 197.27 150.41 198.15 151.43 198.21 Z M 152.42 198.28 L 153.41 198.34 C 154.43 198.41 155.31 197.63 155.38 196.61 C 155.44 195.58 154.66 194.70 153.64 194.64 L 152.65 194.57 C 151.63 194.51 150.75 195.29 150.68 196.31 C 150.62 197.33 151.39 198.21 152.42 198.28 Z M 153.41 198.34 L 154.41 198.40 C 155.43 198.47 156.31 197.69 156.38 196.67 C 156.44 195.64 155.66 194.76 154.64 194.70 L 153.64 194.64 C 152.62 194.57 151.74 195.35 151.67 196.37 C 151.61 197.40 152.39 198.28 153.41 198.34 Z M 154.41 198.40 L 155.42 198.47 C 156.44 198.53 157.32 197.75 157.38 196.73 C 157.45 195.71 156.67 194.83 155.65 194.76 L 154.64 194.70 C 153.62 194.64 152.74 195.41 152.67 196.44 C 152.61 197.46 153.39 198.34 154.41 198.40 Z M 155.42 198.47 L 156.43 198.53 C 157.46 198.59 158.34 197.81 158.40 196.79 C 158.46 195.77 157.69 194.89 156.66 194.82 L 155.65 194.76 C 154.62 194.70 153.74 195.48 153.68 196.50 C 153.62 197.52 154.40 198.40 155.42 198.47 Z M 156.43 198.53 L 157.44 198.59 C 158.46 198.65 159.34 197.87 159.40 196.85 C 159.47 195.83 158.69 194.95 157.66 194.89 L 156.66 194.82 C 155.64 194.76 154.76 195.54 154.69 196.56 C 154.63 197.59 155.41 198.47 156.43 198.53 Z M 157.44 198.59 L 158.43 198.65 C 159.45 198.71 160.33 197.93 160.39 196.91 C 160.45 195.89 159.67 195.01 158.65 194.94 L 157.66 194.89 C 156.64 194.82 155.76 195.60 155.70 196.63 C 155.64 197.65 156.42 198.53 157.44 198.59 Z M 158.43 198.65 L 159.42 198.71 C 160.44 198.77 161.32 197.99 161.38 196.97 C 161.45 195.94 160.67 195.07 159.64 195.00 L 158.65 194.95 C 157.63 194.88 156.75 195.66 156.69 196.69 C 156.62 197.71 157.40 198.59 158.43 198.65 Z M 159.42 198.71 L 160.42 198.77 C 161.44 198.83 162.32 198.05 162.38 197.02 C 162.44 196.00 161.66 195.12 160.64 195.06 L 159.64 195.00 C 158.62 194.94 157.74 195.73 157.68 196.75 C 157.62 197.77 158.40 198.65 159.42 198.71 Z M 160.42 198.77 L 161.43 198.82 C 162.45 198.88 163.33 198.10 163.38 197.08 C 163.44 196.05 162.66 195.18 161.64 195.12 L 160.63 195.06 C 159.61 195.00 158.73 195.79 158.68 196.81 C 158.62 197.83 159.40 198.71 160.42 198.77 Z M 161.43 198.83 L 162.44 198.88 C 163.46 198.93 164.33 198.15 164.39 197.13 C 164.45 196.10 163.66 195.23 162.64 195.17 L 161.63 195.12 C 160.61 195.06 159.73 195.85 159.68 196.87 C 159.62 197.89 160.41 198.77 161.43 198.83 Z M 162.44 198.88 L 163.45 198.93 C 164.47 198.98 165.35 198.20 165.40 197.17 C 165.45 196.15 164.67 195.28 163.64 195.22 L 162.63 195.17 C 161.61 195.12 160.74 195.91 160.68 196.93 C 160.63 197.95 161.42 198.83 162.44 198.88 Z M 163.46 198.93 L 164.43 198.98 C 165.46 199.03 166.33 198.24 166.38 197.22 C 166.43 196.19 165.64 195.32 164.61 195.27 L 163.64 195.23 C 162.61 195.18 161.74 195.96 161.69 196.99 C 161.64 198.01 162.43 198.88 163.46 198.93 Z M 164.44 198.98 L 165.41 199.02 C 166.44 199.07 167.30 198.28 167.35 197.26 C 167.40 196.23 166.61 195.37 165.59 195.32 L 164.61 195.27 C 163.59 195.23 162.72 196.02 162.67 197.04 C 162.63 198.06 163.42 198.93 164.44 198.98 Z M 165.42 199.02 L 166.40 199.07 C 167.42 199.11 168.29 198.32 168.33 197.30 C 168.38 196.28 167.59 195.41 166.57 195.37 L 165.58 195.32 C 164.56 195.27 163.70 196.06 163.65 197.09 C 163.60 198.11 164.39 198.97 165.42 199.02 Z M 166.40 199.06 L 167.39 199.11 C 168.41 199.16 169.28 198.37 169.33 197.35 C 169.37 196.33 168.58 195.46 167.56 195.41 L 166.57 195.37 C 165.55 195.32 164.68 196.11 164.63 197.13 C 164.59 198.15 165.38 199.02 166.40 199.06 Z M 167.39 199.11 L 168.39 199.16 C 169.41 199.20 170.28 198.42 170.33 197.40 C 170.38 196.38 169.59 195.51 168.57 195.46 L 167.56 195.41 C 166.54 195.37 165.68 196.15 165.63 197.17 C 165.58 198.19 166.37 199.06 167.39 199.11 Z M 168.39 199.15 L 169.41 199.20 C 170.43 199.26 171.30 198.47 171.35 197.45 C 171.40 196.43 170.61 195.56 169.59 195.51 L 168.57 195.46 C 167.55 195.41 166.69 196.20 166.64 197.22 C 166.59 198.24 167.37 199.10 168.39 199.15 Z M 169.40 199.20 L 170.44 199.26 C 171.46 199.31 172.33 198.53 172.38 197.51 C 172.44 196.49 171.65 195.62 170.64 195.57 L 169.60 195.52 C 168.58 195.46 167.71 196.24 167.66 197.26 C 167.60 198.28 168.39 199.15 169.40 199.20 Z M 170.43 199.26 L 171.44 199.31 C 172.45 199.37 173.32 198.59 173.38 197.58 C 173.44 196.56 172.66 195.69 171.64 195.63 L 170.64 195.57 C 169.63 195.51 168.75 196.29 168.70 197.31 C 168.64 198.33 169.42 199.20 170.43 199.26 Z M 171.43 199.31 L 172.44 199.37 C 173.46 199.43 174.33 198.66 174.39 197.64 C 174.45 196.63 173.68 195.75 172.66 195.69 L 171.65 195.63 C 170.63 195.57 169.76 196.34 169.70 197.36 C 169.64 198.38 170.41 199.25 171.43 199.31 Z M 172.44 199.37 L 173.45 199.43 C 174.47 199.50 175.34 198.72 175.40 197.71 C 175.47 196.69 174.69 195.82 173.68 195.76 L 172.66 195.69 C 171.65 195.63 170.77 196.40 170.71 197.42 C 170.65 198.43 171.42 199.31 172.44 199.37 Z M 173.45 199.43 L 174.46 199.50 C 175.48 199.56 176.35 198.79 176.42 197.77 C 176.48 196.76 175.71 195.88 174.69 195.82 L 173.68 195.76 C 172.67 195.69 171.79 196.46 171.73 197.48 C 171.66 198.49 172.44 199.37 173.45 199.43 Z M 174.46 199.49 L 175.47 199.56 C 176.48 199.62 177.36 198.85 177.42 197.84 C 177.48 196.82 176.71 195.95 175.70 195.88 L 174.69 195.82 C 173.68 195.76 172.81 196.53 172.74 197.54 C 172.68 198.56 173.45 199.43 174.46 199.49 Z M 175.47 199.56 L 176.46 199.62 C 177.47 199.68 178.35 198.91 178.41 197.90 C 178.47 196.88 177.70 196.01 176.69 195.95 L 175.70 195.89 C 174.68 195.82 173.81 196.59 173.75 197.61 C 173.69 198.62 174.46 199.49 175.47 199.56 Z M 176.46 199.62 L 177.43 199.67 C 178.45 199.74 179.32 198.96 179.38 197.95 C 179.44 196.94 178.67 196.07 177.65 196.01 L 176.68 195.95 C 175.67 195.89 174.80 196.66 174.74 197.67 C 174.68 198.69 175.45 199.56 176.46 199.62 Z M 177.44 199.67 L 178.48 199.73 C 179.49 199.79 180.36 199.02 180.41 198.00 C 180.47 196.99 179.70 196.12 178.69 196.07 L 177.65 196.01 C 176.63 195.95 175.77 196.72 175.71 197.74 C 175.65 198.75 176.43 199.62 177.44 199.67 Z M 178.48 199.73 L 179.53 199.78 C 180.55 199.84 181.41 199.06 181.46 198.05 C 181.51 197.04 180.74 196.18 179.73 196.13 L 178.68 196.07 C 177.67 196.02 176.81 196.79 176.75 197.80 C 176.70 198.81 177.47 199.68 178.48 199.73 Z M 179.54 199.78 L 180.56 199.83 C 181.57 199.88 182.43 199.10 182.48 198.09 C 182.52 197.09 181.75 196.23 180.74 196.18 L 179.72 196.13 C 178.71 196.08 177.85 196.86 177.81 197.87 C 177.76 198.87 178.53 199.73 179.54 199.78 Z M 180.57 199.83 L 181.56 199.87 C 182.56 199.92 183.42 199.14 183.46 198.13 C 183.51 197.12 182.73 196.27 181.72 196.23 L 180.73 196.18 C 179.72 196.14 178.87 196.92 178.83 197.92 C 178.78 198.93 179.56 199.78 180.57 199.83 Z M 181.56 199.87 L 182.53 199.91 C 183.54 199.95 184.38 199.17 184.43 198.16 C 184.47 197.16 183.69 196.31 182.68 196.27 L 181.71 196.23 C 180.71 196.19 179.86 196.97 179.82 197.97 C 179.78 198.98 180.56 199.83 181.56 199.87 Z M 182.54 199.90 L 183.49 199.94 C 184.49 199.98 185.34 199.20 185.37 198.19 C 185.41 197.19 184.63 196.35 183.62 196.31 L 182.67 196.27 C 181.67 196.24 180.83 197.02 180.79 198.02 C 180.75 199.02 181.54 199.87 182.54 199.90 Z M 183.50 199.94 L 184.47 199.97 C 185.47 200.00 186.31 199.22 186.35 198.22 C 186.38 197.22 185.60 196.38 184.60 196.35 L 183.62 196.31 C 182.62 196.28 181.78 197.06 181.75 198.06 C 181.71 199.06 182.49 199.90 183.50 199.94 Z M 184.48 199.97 L 185.51 200.00 C 186.50 200.03 187.34 199.24 187.37 198.25 C 187.40 197.25 186.62 196.41 185.62 196.38 L 184.59 196.35 C 183.59 196.32 182.76 197.10 182.73 198.10 C 182.70 199.10 183.48 199.94 184.48 199.97 Z M 185.51 199.99 L 186.52 200.02 C 187.52 200.05 188.35 199.27 188.38 198.27 C 188.41 197.27 187.62 196.44 186.63 196.41 L 185.61 196.39 C 184.62 196.36 183.79 197.14 183.76 198.14 C 183.73 199.13 184.51 199.97 185.51 199.99 Z M 186.53 200.02 L 187.53 200.04 C 188.52 200.07 189.35 199.29 189.37 198.29 C 189.40 197.30 188.62 196.47 187.62 196.45 L 186.62 196.42 C 185.63 196.39 184.80 197.18 184.78 198.17 C 184.75 199.16 185.53 199.99 186.53 200.02 Z M 187.53 200.04 L 188.52 200.06 C 189.51 200.09 190.33 199.30 190.35 198.31 C 190.38 197.32 189.60 196.50 188.60 196.47 L 187.62 196.45 C 186.63 196.43 185.81 197.21 185.78 198.20 C 185.76 199.19 186.54 200.01 187.53 200.04 Z M 188.52 200.06 L 189.49 200.08 C 190.47 200.11 191.30 199.32 191.32 198.34 C 191.34 197.35 190.56 196.53 189.57 196.50 L 188.60 196.48 C 187.61 196.46 186.79 197.24 186.77 198.23 C 186.75 199.21 187.53 200.03 188.52 200.06 Z M 189.49 200.08 L 190.51 200.10 C 191.49 200.13 192.31 199.35 192.33 198.36 C 192.36 197.38 191.58 196.56 190.59 196.53 L 189.57 196.51 C 188.59 196.49 187.77 197.26 187.75 198.25 C 187.72 199.23 188.50 200.05 189.49 200.08 Z M 190.51 200.09 L 191.53 200.12 C 192.51 200.14 193.33 199.37 193.35 198.39 C 193.37 197.41 192.60 196.59 191.62 196.57 L 190.59 196.54 C 189.61 196.52 188.80 197.29 188.78 198.27 C 188.75 199.25 189.53 200.07 190.51 200.09 Z M 191.54 200.11 L 192.54 200.13 C 193.52 200.15 194.33 199.38 194.35 198.41 C 194.37 197.43 193.60 196.62 192.62 196.60 L 191.62 196.58 C 190.64 196.55 189.83 197.33 189.81 198.30 C 189.79 199.28 190.56 200.08 191.54 200.11 Z M 192.55 200.12 L 193.53 200.14 C 194.50 200.16 195.31 199.39 195.33 198.42 C 195.35 197.45 194.58 196.65 193.61 196.63 L 192.62 196.61 C 191.65 196.59 190.85 197.36 190.83 198.33 C 190.81 199.30 191.58 200.10 192.55 200.12 Z M 193.54 200.13 L 194.51 200.15 C 195.47 200.17 196.27 199.40 196.28 198.43 C 196.30 197.47 195.53 196.67 194.57 196.66 L 193.60 196.64 C 192.64 196.62 191.84 197.39 191.82 198.36 C 191.81 199.32 192.58 200.12 193.54 200.13 Z M 194.51 200.14 L 195.51 200.15 C 196.47 200.16 197.26 199.40 197.27 198.44 C 197.28 197.48 196.52 196.69 195.56 196.68 L 194.56 196.67 C 193.60 196.66 192.81 197.42 192.80 198.38 C 192.79 199.34 193.56 200.13 194.51 200.14 Z M 195.52 200.14 L 196.54 200.15 C 197.49 200.16 198.27 199.39 198.28 198.44 C 198.29 197.49 197.52 196.71 196.57 196.70 L 195.55 196.69 C 194.60 196.69 193.82 197.45 193.81 198.40 C 193.81 199.35 194.57 200.13 195.52 200.14 Z M 196.55 200.13 L 197.55 200.14 C 198.49 200.14 199.26 199.38 199.27 198.44 C 199.27 197.49 198.51 196.72 197.56 196.72 L 196.56 196.72 C 195.62 196.71 194.85 197.47 194.85 198.42 C 194.84 199.36 195.60 200.13 196.55 200.13 Z M 197.55 200.12 L 198.54 200.13 C 199.48 200.13 200.24 199.37 200.24 198.43 C 200.24 197.50 199.48 196.74 198.55 196.74 L 197.56 196.73 C 196.62 196.73 195.86 197.49 195.86 198.43 C 195.86 199.36 196.62 200.12 197.55 200.12 Z M 198.54 200.11 L 199.52 200.11 C 200.45 200.11 201.20 199.36 201.20 198.43 C 201.20 197.50 200.45 196.75 199.52 196.75 L 198.54 196.75 C 197.62 196.75 196.86 197.50 196.86 198.43 C 196.86 199.36 197.61 200.11 198.54 200.11 Z M 199.52 200.10 L 200.51 200.10 C 201.43 200.10 202.17 199.35 202.17 198.43 C 202.17 197.51 201.43 196.76 200.51 196.76 L 199.52 196.76 C 198.60 196.76 197.85 197.51 197.85 198.43 C 197.85 199.35 198.60 200.10 199.52 200.10 Z M 200.51 200.08 L 201.50 200.08 C 202.41 200.08 203.15 199.34 203.15 198.43 C 203.15 197.52 202.41 196.78 201.50 196.78 L 200.51 196.78 C 199.60 196.78 198.86 197.52 198.86 198.43 C 198.86 199.34 199.60 200.08 200.51 200.08 Z M 201.50 200.06 L 202.49 200.06 C 203.39 200.06 204.12 199.33 204.12 198.43 C 204.12 197.53 203.39 196.80 202.49 196.80 L 201.50 196.80 C 200.59 196.80 199.86 197.53 199.86 198.43 C 199.86 199.33 200.59 200.06 201.50 200.06 Z M 202.49 200.05 L 203.50 200.05 C 204.39 200.05 205.11 199.32 205.11 198.43 C 205.11 197.54 204.39 196.82 203.50 196.82 L 202.49 196.82 C 201.60 196.82 200.87 197.54 200.87 198.43 C 200.87 199.32 201.60 200.05 202.49 200.05 Z M 203.50 200.03 L 204.52 200.03 C 205.40 200.03 206.12 199.31 206.12 198.43 C 206.12 197.55 205.40 196.83 204.52 196.83 L 203.50 196.83 C 202.62 196.83 201.90 197.55 201.90 198.43 C 201.90 199.31 202.62 200.03 203.50 200.03 Z M 204.52 200.01 L 205.54 200.01 C 206.41 200.01 207.12 199.30 207.12 198.43 C 207.12 197.55 206.41 196.85 205.53 196.85 L 204.52 196.85 C 203.64 196.85 202.93 197.56 202.94 198.43 C 202.94 199.31 203.65 200.02 204.52 200.01 Z M 205.54 200.00 L 206.56 199.99 C 207.43 199.99 208.13 199.28 208.12 198.41 C 208.12 197.55 207.41 196.85 206.55 196.86 L 205.53 196.86 C 204.66 196.87 203.96 197.57 203.97 198.44 C 203.97 199.30 204.68 200.00 205.54 200.00 Z M 206.58 199.98 L 207.59 199.96 C 208.44 199.95 209.13 199.24 209.12 198.39 C 209.10 197.53 208.40 196.85 207.54 196.86 L 206.53 196.87 C 205.68 196.88 204.99 197.59 205.00 198.45 C 205.02 199.30 205.72 199.99 206.58 199.98 Z M 207.60 199.95 L 208.58 199.92 C 209.43 199.90 210.10 199.19 210.08 198.34 C 210.05 197.49 209.35 196.82 208.50 196.85 L 207.52 196.87 C 206.67 196.90 206.00 197.60 206.03 198.45 C 206.05 199.30 206.76 199.97 207.60 199.95 Z M 208.61 199.90 L 209.62 199.86 C 210.46 199.82 211.11 199.11 211.07 198.27 C 211.03 197.43 210.32 196.78 209.48 196.82 L 208.47 196.86 C 207.63 196.90 206.98 197.61 207.02 198.45 C 207.06 199.29 207.77 199.94 208.61 199.90 Z M 209.66 199.84 L 210.68 199.77 C 211.51 199.71 212.13 198.98 212.07 198.15 C 212.01 197.32 211.29 196.70 210.46 196.76 L 209.44 196.83 C 208.61 196.89 207.98 197.62 208.04 198.45 C 208.10 199.28 208.83 199.90 209.66 199.84 Z M 210.72 199.75 L 211.71 199.65 C 212.53 199.56 213.12 198.82 213.04 198.00 C 212.95 197.18 212.21 196.58 211.39 196.67 L 210.41 196.77 C 209.59 196.86 208.99 197.60 209.08 198.42 C 209.17 199.24 209.90 199.84 210.72 199.75 Z M 211.76 199.63 L 212.72 199.49 C 213.53 199.38 214.10 198.62 213.98 197.81 C 213.86 197.00 213.11 196.44 212.30 196.55 L 211.34 196.69 C 210.53 196.80 209.96 197.56 210.08 198.37 C 210.19 199.18 210.94 199.74 211.76 199.63 Z M 212.77 199.47 L 213.73 199.30 C 214.53 199.16 215.07 198.39 214.92 197.59 C 214.78 196.79 214.01 196.25 213.21 196.40 L 212.25 196.57 C 211.45 196.71 210.91 197.48 211.06 198.28 C 211.20 199.08 211.97 199.62 212.77 199.47 Z M 213.78 199.28 L 214.74 199.08 C 215.53 198.91 216.04 198.13 215.87 197.34 C 215.70 196.55 214.92 196.04 214.13 196.21 L 213.16 196.41 C 212.37 196.58 211.87 197.36 212.03 198.15 C 212.20 198.95 212.98 199.45 213.78 199.28 Z M 214.77 199.07 L 215.75 198.84 C 216.53 198.65 217.02 197.86 216.83 197.08 C 216.65 196.29 215.86 195.80 215.07 195.99 L 214.10 196.22 C 213.31 196.40 212.82 197.19 213.01 197.98 C 213.20 198.77 213.98 199.25 214.77 199.07 Z M 215.77 198.83 L 216.75 198.58 C 217.53 198.39 218.00 197.59 217.81 196.81 C 217.61 196.03 216.82 195.55 216.03 195.75 L 215.05 196.00 C 214.27 196.19 213.80 196.99 213.99 197.77 C 214.19 198.55 214.98 199.03 215.77 198.83 Z M 216.75 198.58 L 217.50 198.39 C 218.27 198.19 218.74 197.39 218.54 196.61 C 218.34 195.83 217.55 195.36 216.77 195.56 L 216.03 195.76 C 215.25 195.96 214.78 196.75 214.98 197.53 C 215.18 198.31 215.97 198.78 216.75 198.58 Z"
      fill="black"
      fill-rule="nonzero" /></svg>