<svg xmlns="http://www.w3.org/2000/svg" width="300" height="300" viewBox="0 0 300 300">
<path d="M 117.69 209.79 L 117.99 208.84 C 118.27 207.94 117.77 206.99 116.87 206.70 C 115.97 206.42 115.02 206.92 114.73 207.82 L 114.44 208.77 C 114.15 209.66 114.65 210.62 115.55 210.91 C 116.45 211.19 117.40 210.69 117.69 209.79 Z M 118.00 208.80 L 118.28 207.84 C 118.53 206.94 118.01 205.99 117.10 205.73 C 116.20 205.47 115.25 206.00 114.99 206.90 L 114.72 207.86 C 114.46 208.77 114.98 209.71 115.89 209.97 C 116.80 210.23 117.74 209.71 118.00 208.80 Z M 118.30 207.75 L 118.52 206.78 C 118.73 205.86 118.16 204.94 117.24 204.73 C 116.32 204.52 115.41 205.09 115.19 206.01 L 114.97 206.99 C 114.76 207.91 115.33 208.83 116.25 209.04 C 117.17 209.25 118.09 208.67 118.30 207.75 Z M 118.55 206.65 L 118.69 205.70 C 118.83 204.76 118.19 203.89 117.26 203.75 C 116.33 203.61 115.46 204.25 115.32 205.18 L 115.17 206.14 C 115.03 207.07 115.67 207.94 116.60 208.08 C 117.53 208.23 118.40 207.58 118.55 206.65 Z M 118.70 205.58 L 118.78 204.63 C 118.85 203.69 118.15 202.87 117.22 202.80 C 116.28 202.72 115.46 203.42 115.39 204.35 L 115.31 205.30 C 115.23 206.24 115.93 207.06 116.87 207.13 C 117.80 207.21 118.62 206.51 118.70 205.58 Z M 118.77 204.56 L 118.81 203.56 C 118.84 202.63 118.11 201.85 117.18 201.81 C 116.25 201.78 115.47 202.50 115.43 203.44 L 115.39 204.43 C 115.36 205.36 116.09 206.15 117.02 206.18 C 117.95 206.21 118.73 205.49 118.77 204.56 Z M 118.80 203.53 L 118.81 202.47 C 118.83 201.54 118.09 200.78 117.16 200.76 C 116.24 200.75 115.47 201.49 115.46 202.41 L 115.44 203.47 C 115.42 204.40 116.16 205.16 117.09 205.18 C 118.02 205.19 118.78 204.45 118.80 203.53 Z M 118.81 202.47 L 118.82 201.50 C 118.84 200.58 118.10 199.82 117.18 199.80 C 116.26 199.79 115.50 200.52 115.48 201.44 L 115.47 202.41 C 115.45 203.34 116.19 204.10 117.11 204.11 C 118.03 204.13 118.79 203.39 118.81 202.47 Z M 118.82 201.52 L 118.85 200.58 C 118.87 199.66 118.15 198.89 117.22 198.86 C 116.30 198.84 115.54 199.56 115.51 200.49 L 115.48 201.43 C 115.46 202.35 116.18 203.12 117.11 203.14 C 118.03 203.17 118.80 202.44 118.82 201.52 Z M 118.85 200.61 L 118.89 199.62 C 118.93 198.70 118.22 197.92 117.30 197.88 C 116.38 197.83 115.60 198.55 115.56 199.47 L 115.51 200.46 C 115.47 201.38 116.18 202.16 117.10 202.20 C 118.02 202.24 118.80 201.53 118.85 200.61 Z M 118.89 199.66 L 118.96 198.63 C 119.02 197.71 118.33 196.91 117.41 196.85 C 116.49 196.78 115.70 197.48 115.63 198.40 L 115.56 199.43 C 115.50 200.35 116.19 201.14 117.11 201.21 C 118.03 201.27 118.82 200.58 118.89 199.66 Z M 118.95 198.68 L 119.06 197.60 C 119.15 196.69 118.48 195.87 117.57 195.78 C 116.65 195.69 115.83 196.36 115.74 197.27 L 115.64 198.35 C 115.54 199.26 116.21 200.08 117.13 200.17 C 118.05 200.26 118.86 199.59 118.95 198.68 Z M 119.06 197.66 L 119.18 196.68 C 119.30 195.77 118.66 194.93 117.75 194.81 C 116.84 194.69 116.00 195.33 115.88 196.25 L 115.75 197.22 C 115.63 198.13 116.27 198.97 117.18 199.09 C 118.10 199.21 118.93 198.57 119.06 197.66 Z M 119.18 196.72 L 119.33 195.76 C 119.47 194.85 118.85 194.00 117.94 193.85 C 117.03 193.71 116.18 194.33 116.04 195.24 L 115.88 196.20 C 115.74 197.11 116.36 197.97 117.27 198.11 C 118.18 198.25 119.03 197.63 119.18 196.72 Z M 119.32 195.79 L 119.50 194.81 C 119.66 193.90 119.06 193.04 118.15 192.87 C 117.25 192.71 116.38 193.32 116.22 194.22 L 116.04 195.20 C 115.88 196.11 116.48 196.98 117.39 197.14 C 118.30 197.30 119.16 196.70 119.32 195.79 Z M 119.50 194.83 L 119.69 193.84 C 119.87 192.94 119.28 192.06 118.37 191.88 C 117.47 191.71 116.59 192.30 116.42 193.20 L 116.22 194.20 C 116.05 195.10 116.64 195.98 117.54 196.15 C 118.44 196.33 119.32 195.74 119.50 194.83 Z M 119.69 193.86 L 119.89 192.86 C 120.08 191.96 119.50 191.07 118.60 190.89 C 117.70 190.70 116.82 191.28 116.63 192.18 L 116.42 193.18 C 116.23 194.08 116.81 194.97 117.71 195.15 C 118.62 195.34 119.50 194.76 119.69 193.86 Z M 119.89 192.87 L 120.11 191.87 C 120.30 190.97 119.73 190.08 118.83 189.88 C 117.93 189.69 117.04 190.26 116.85 191.16 L 116.63 192.17 C 116.44 193.07 117.01 193.95 117.91 194.15 C 118.81 194.34 119.70 193.77 119.89 192.87 Z M 120.11 191.87 L 120.33 190.86 C 120.53 189.96 119.96 189.07 119.06 188.88 C 118.16 188.68 117.27 189.24 117.07 190.14 L 116.85 191.15 C 116.65 192.05 117.22 192.94 118.12 193.14 C 119.02 193.34 119.91 192.77 120.11 191.87 Z M 120.33 190.87 L 120.56 189.87 C 120.76 188.97 120.19 188.08 119.29 187.88 C 118.40 187.67 117.50 188.24 117.30 189.14 L 117.07 190.14 C 116.87 191.04 117.43 191.93 118.33 192.13 C 119.23 192.34 120.13 191.77 120.33 190.87 Z M 120.56 189.88 L 120.78 188.89 C 120.99 187.99 120.43 187.10 119.53 186.89 C 118.63 186.68 117.73 187.24 117.53 188.14 L 117.30 189.13 C 117.09 190.03 117.65 190.93 118.55 191.13 C 119.45 191.34 120.35 190.78 120.56 189.88 Z M 120.78 188.90 L 121.01 187.93 C 121.22 187.03 120.66 186.13 119.76 185.92 C 118.86 185.71 117.96 186.27 117.75 187.17 L 117.53 188.14 C 117.31 189.04 117.87 189.94 118.77 190.15 C 119.67 190.36 120.57 189.80 120.78 188.90 Z M 121.01 187.94 L 121.23 187.00 C 121.45 186.10 120.89 185.20 119.99 184.98 C 119.09 184.77 118.19 185.32 117.98 186.22 L 117.75 187.16 C 117.54 188.06 118.09 188.97 118.99 189.18 C 119.89 189.40 120.79 188.84 121.01 187.94 Z M 121.23 187.01 L 121.47 186.02 C 121.69 185.12 121.14 184.22 120.24 184.00 C 119.34 183.78 118.43 184.33 118.21 185.23 L 117.98 186.21 C 117.76 187.11 118.31 188.02 119.21 188.24 C 120.11 188.46 121.02 187.91 121.23 187.01 Z M 121.48 186.03 L 121.74 184.98 C 121.96 184.08 121.41 183.16 120.51 182.94 C 119.61 182.72 118.70 183.27 118.47 184.17 L 118.21 185.22 C 117.99 186.13 118.54 187.04 119.44 187.26 C 120.34 187.48 121.25 186.93 121.48 186.03 Z M 121.74 184.98 L 121.99 183.98 C 122.22 183.08 121.67 182.16 120.76 181.93 C 119.86 181.71 118.94 182.26 118.72 183.16 L 118.47 184.17 C 118.24 185.07 118.79 185.99 119.70 186.21 C 120.60 186.44 121.52 185.89 121.74 184.98 Z M 122.00 183.98 L 122.23 183.04 C 122.46 182.13 121.90 181.21 121.00 180.98 C 120.09 180.76 119.17 181.31 118.94 182.22 L 118.71 183.16 C 118.48 184.07 119.04 184.99 119.95 185.22 C 120.85 185.44 121.77 184.89 122.00 183.98 Z M 122.24 183.03 L 122.46 182.15 C 122.68 181.24 122.12 180.32 121.21 180.09 C 120.29 179.87 119.37 180.43 119.15 181.34 L 118.94 182.23 C 118.71 183.14 119.27 184.06 120.19 184.28 C 121.10 184.50 122.02 183.94 122.24 183.03 Z M 122.47 182.15 L 122.74 181.04 C 122.96 180.12 122.39 179.19 121.47 178.97 C 120.55 178.75 119.62 179.32 119.40 180.24 L 119.14 181.35 C 118.91 182.27 119.48 183.19 120.40 183.41 C 121.32 183.64 122.25 183.07 122.47 182.15 Z M 122.73 181.16 L 123.05 180.14 C 123.34 179.22 122.83 178.24 121.91 177.96 C 120.99 177.67 120.01 178.18 119.73 179.10 L 119.41 180.12 C 119.12 181.04 119.63 182.02 120.55 182.30 C 121.47 182.59 122.44 182.08 122.73 181.16 Z M 122.87 180.59 L 123.31 179.92 C 123.85 179.10 123.63 178.00 122.81 177.46 C 121.99 176.92 120.89 177.15 120.36 177.97 L 119.91 178.64 C 119.37 179.46 119.60 180.56 120.41 181.10 C 121.23 181.64 122.33 181.41 122.87 180.59 Z M 122.44 180.63 L 123.10 180.39 C 124.03 180.06 124.52 179.03 124.18 178.10 C 123.85 177.17 122.83 176.68 121.90 177.02 L 121.23 177.25 C 120.30 177.59 119.82 178.61 120.15 179.54 C 120.48 180.47 121.51 180.96 122.44 180.63 Z M 122.28 180.49 L 123.17 180.60 C 124.16 180.72 125.06 180.02 125.18 179.03 C 125.30 178.05 124.60 177.15 123.61 177.03 L 122.72 176.92 C 121.73 176.80 120.84 177.50 120.71 178.48 C 120.59 179.47 121.29 180.37 122.28 180.49 Z M 122.96 180.56 L 124.06 180.83 C 125.03 181.07 126.00 180.48 126.24 179.51 C 126.47 178.55 125.88 177.57 124.92 177.34 L 123.82 177.07 C 122.86 176.83 121.88 177.42 121.65 178.39 C 121.41 179.35 122.00 180.32 122.96 180.56 Z M 124.13 180.85 L 125.18 181.06 C 126.15 181.26 127.10 180.63 127.30 179.66 C 127.50 178.68 126.87 177.73 125.90 177.53 L 124.85 177.32 C 123.88 177.12 122.93 177.75 122.73 178.72 C 122.53 179.70 123.16 180.65 124.13 180.85 Z M 125.30 181.08 L 126.26 181.21 C 127.24 181.34 128.15 180.65 128.28 179.67 C 128.41 178.68 127.72 177.77 126.74 177.64 L 125.78 177.51 C 124.79 177.38 123.89 178.07 123.75 179.06 C 123.62 180.04 124.31 180.95 125.30 181.08 Z M 126.34 181.22 L 127.34 181.31 C 128.33 181.40 129.21 180.66 129.30 179.67 C 129.38 178.68 128.65 177.81 127.66 177.72 L 126.65 177.63 C 125.66 177.54 124.79 178.28 124.70 179.27 C 124.61 180.26 125.35 181.13 126.34 181.22 Z M 127.40 181.31 L 128.43 181.37 C 129.43 181.43 130.28 180.67 130.33 179.67 C 130.39 178.68 129.63 177.83 128.63 177.77 L 127.60 177.71 C 126.61 177.66 125.75 178.42 125.70 179.41 C 125.64 180.41 126.41 181.26 127.40 181.31 Z M 128.47 181.37 L 129.50 181.41 C 130.49 181.44 131.33 180.66 131.36 179.67 C 131.40 178.67 130.62 177.84 129.62 177.80 L 128.59 177.77 C 127.60 177.73 126.76 178.51 126.73 179.51 C 126.69 180.50 127.47 181.34 128.47 181.37 Z M 129.52 181.41 L 130.49 181.43 C 131.49 181.45 132.31 180.66 132.34 179.67 C 132.36 178.67 131.57 177.84 130.57 177.82 L 129.60 177.80 C 128.60 177.78 127.78 178.57 127.76 179.57 C 127.73 180.56 128.53 181.39 129.52 181.41 Z M 130.51 181.43 L 131.49 181.44 C 132.48 181.46 133.30 180.66 133.31 179.66 C 133.33 178.66 132.53 177.85 131.53 177.83 L 130.55 177.82 C 129.56 177.81 128.74 178.61 128.73 179.61 C 128.71 180.60 129.51 181.42 130.51 181.43 Z M 131.50 181.44 L 132.50 181.45 C 133.49 181.46 134.31 180.65 134.31 179.65 C 134.32 178.66 133.51 177.84 132.52 177.84 L 131.52 177.83 C 130.52 177.83 129.71 178.63 129.70 179.63 C 129.70 180.63 130.50 181.44 131.50 181.44 Z M 132.50 181.45 L 133.53 181.45 C 134.53 181.45 135.34 180.65 135.34 179.65 C 135.34 178.65 134.53 177.84 133.54 177.84 L 132.51 177.84 C 131.51 177.84 130.70 178.64 130.70 179.64 C 130.70 180.64 131.51 181.45 132.50 181.45 Z M 133.53 181.45 L 134.57 181.45 C 135.57 181.45 136.38 180.64 136.38 179.65 C 136.38 178.65 135.57 177.84 134.57 177.84 L 133.53 177.84 C 132.54 177.84 131.73 178.65 131.73 179.65 C 131.73 180.64 132.54 181.45 133.53 181.45 Z M 134.57 181.45 L 135.60 181.45 C 136.59 181.45 137.40 180.64 137.40 179.65 C 137.40 178.65 136.59 177.84 135.60 177.84 L 134.57 177.84 C 133.57 177.84 132.76 178.65 132.76 179.65 C 132.76 180.64 133.57 181.45 134.57 181.45 Z M 135.60 181.45 L 136.63 181.45 C 137.63 181.45 138.44 180.64 138.44 179.65 C 138.44 178.65 137.63 177.84 136.63 177.84 L 135.60 177.84 C 134.60 177.84 133.79 178.65 133.79 179.65 C 133.79 180.64 134.60 181.45 135.60 181.45 Z M 136.63 181.45 L 137.64 181.45 C 138.64 181.45 139.45 180.64 139.45 179.65 C 139.45 178.65 138.64 177.84 137.64 177.84 L 136.63 177.84 C 135.63 177.84 134.82 178.65 134.82 179.65 C 134.82 180.64 135.63 181.45 136.63 181.45 Z M 137.64 181.45 L 138.61 181.45 C 139.61 181.45 140.42 180.64 140.42 179.65 C 140.42 178.65 139.61 177.84 138.61 177.84 L 137.64 177.84 C 136.64 177.84 135.84 178.65 135.84 179.65 C 135.84 180.64 136.64 181.45 137.64 181.45 Z M 138.61 181.45 L 139.64 181.45 C 140.64 181.45 141.45 180.64 141.45 179.65 C 141.45 178.65 140.64 177.84 139.64 177.84 L 138.61 177.84 C 137.61 177.84 136.80 178.65 136.80 179.65 C 136.80 180.64 137.61 181.45 138.61 181.45 Z M 139.64 181.45 L 140.72 181.45 C 141.71 181.45 142.52 180.64 142.52 179.64 C 142.52 178.64 141.71 177.84 140.71 177.84 L 139.64 177.84 C 138.64 177.84 137.83 178.65 137.83 179.65 C 137.83 180.65 138.64 181.46 139.64 181.45 Z M 140.72 181.45 L 141.70 181.45 C 142.70 181.44 143.50 180.63 143.50 179.63 C 143.49 178.63 142.68 177.83 141.68 177.83 L 140.70 177.84 C 139.71 177.84 138.90 178.65 138.91 179.65 C 138.91 180.65 139.72 181.46 140.72 181.45 Z M 141.71 181.45 L 142.62 181.44 C 143.62 181.43 144.42 180.61 144.41 179.61 C 144.40 178.61 143.58 177.81 142.58 177.82 L 141.67 177.83 C 140.67 177.84 139.87 178.66 139.88 179.66 C 139.89 180.66 140.71 181.46 141.71 181.45 Z M 142.64 181.44 L 143.62 181.41 C 144.62 181.39 145.41 180.56 145.39 179.56 C 145.36 178.57 144.53 177.78 143.54 177.80 L 142.56 177.82 C 141.56 177.84 140.77 178.67 140.79 179.67 C 140.81 180.67 141.64 181.46 142.64 181.44 Z M 143.65 181.41 L 144.65 181.38 C 145.65 181.34 146.42 180.50 146.39 179.50 C 146.35 178.50 145.51 177.72 144.51 177.76 L 143.51 177.80 C 142.51 177.84 141.73 178.68 141.77 179.68 C 141.81 180.67 142.65 181.45 143.65 181.41 Z M 144.68 181.37 L 145.67 181.32 C 146.67 181.26 147.43 180.40 147.37 179.40 C 147.32 178.41 146.46 177.64 145.46 177.70 L 144.47 177.76 C 143.47 177.82 142.71 178.68 142.77 179.67 C 142.83 180.67 143.69 181.43 144.68 181.37 Z M 145.72 181.31 L 146.70 181.23 C 147.70 181.15 148.44 180.28 148.36 179.28 C 148.28 178.28 147.40 177.54 146.41 177.62 L 145.42 177.71 C 144.42 177.79 143.68 178.66 143.76 179.66 C 143.85 180.65 144.72 181.40 145.72 181.31 Z M 146.75 181.23 L 147.73 181.12 C 148.73 181.02 149.45 180.13 149.34 179.13 C 149.24 178.14 148.35 177.42 147.35 177.52 L 146.36 177.63 C 145.37 177.73 144.65 178.62 144.75 179.62 C 144.86 180.61 145.75 181.34 146.75 181.23 Z M 147.77 181.12 L 148.76 181.00 C 149.76 180.87 150.46 179.97 150.34 178.97 C 150.21 177.98 149.30 177.27 148.31 177.40 L 147.32 177.52 C 146.32 177.65 145.62 178.56 145.74 179.55 C 145.87 180.54 146.77 181.25 147.77 181.12 Z M 148.79 181.00 L 149.78 180.86 C 150.77 180.72 151.47 179.80 151.33 178.81 C 151.19 177.82 150.27 177.12 149.28 177.26 L 148.28 177.40 C 147.29 177.54 146.60 178.46 146.74 179.45 C 146.88 180.44 147.79 181.14 148.79 181.00 Z M 149.80 180.85 L 150.78 180.71 C 151.77 180.56 152.45 179.64 152.30 178.65 C 152.15 177.65 151.23 176.97 150.24 177.12 L 149.26 177.26 C 148.27 177.41 147.59 178.34 147.74 179.33 C 147.88 180.32 148.81 181.00 149.80 180.85 Z M 150.79 180.71 L 151.78 180.55 C 152.76 180.40 153.44 179.47 153.29 178.48 C 153.14 177.49 152.21 176.82 151.22 176.97 L 150.23 177.12 C 149.24 177.28 148.56 178.20 148.72 179.19 C 148.87 180.18 149.80 180.86 150.79 180.71 Z M 151.78 180.55 L 152.78 180.39 C 153.77 180.24 154.44 179.31 154.29 178.32 C 154.13 177.33 153.21 176.66 152.22 176.81 L 151.22 176.97 C 150.23 177.13 149.55 178.05 149.71 179.04 C 149.86 180.03 150.79 180.70 151.78 180.55 Z M 152.78 180.39 L 153.75 180.24 C 154.74 180.09 155.41 179.16 155.26 178.17 C 155.11 177.18 154.18 176.51 153.19 176.66 L 152.22 176.81 C 151.23 176.97 150.56 177.89 150.71 178.88 C 150.86 179.87 151.79 180.55 152.78 180.39 Z M 153.75 180.24 L 154.73 180.09 C 155.72 179.94 156.39 179.01 156.24 178.02 C 156.09 177.04 155.17 176.36 154.18 176.51 L 153.20 176.66 C 152.21 176.81 151.53 177.74 151.68 178.73 C 151.83 179.72 152.76 180.39 153.75 180.24 Z M 154.72 180.09 L 155.72 179.94 C 156.71 179.79 157.39 178.87 157.24 177.88 C 157.09 176.89 156.17 176.21 155.18 176.36 L 154.18 176.51 C 153.19 176.66 152.51 177.58 152.66 178.57 C 152.81 179.56 153.73 180.24 154.72 180.09 Z M 155.72 179.94 L 156.70 179.80 C 157.69 179.65 158.38 178.73 158.23 177.74 C 158.08 176.75 157.16 176.06 156.17 176.21 L 155.18 176.36 C 154.19 176.50 153.51 177.42 153.66 178.42 C 153.80 179.41 154.73 180.09 155.72 179.94 Z M 156.70 179.80 L 157.66 179.66 C 158.65 179.51 159.34 178.59 159.19 177.60 C 159.05 176.61 158.13 175.92 157.14 176.07 L 156.17 176.21 C 155.18 176.35 154.50 177.27 154.64 178.26 C 154.79 179.26 155.71 179.94 156.70 179.80 Z M 157.66 179.66 L 158.65 179.51 C 159.64 179.37 160.33 178.45 160.18 177.46 C 160.04 176.46 159.12 175.78 158.12 175.92 L 157.14 176.07 C 156.15 176.21 155.46 177.13 155.60 178.12 C 155.75 179.12 156.67 179.80 157.66 179.66 Z M 158.65 179.51 L 159.67 179.36 C 160.66 179.22 161.35 178.29 161.20 177.30 C 161.05 176.31 160.13 175.62 159.14 175.77 L 158.12 175.92 C 157.13 176.07 156.44 176.99 156.59 177.98 C 156.74 178.97 157.66 179.66 158.65 179.51 Z M 159.67 179.36 L 160.68 179.21 C 161.67 179.06 162.35 178.14 162.20 177.15 C 162.05 176.15 161.13 175.47 160.14 175.62 L 159.13 175.77 C 158.14 175.92 157.46 176.84 157.61 177.84 C 157.76 178.83 158.68 179.51 159.67 179.36 Z M 160.68 179.21 L 161.68 179.06 C 162.67 178.91 163.35 177.98 163.20 176.99 C 163.05 176.00 162.12 175.32 161.13 175.47 L 160.13 175.62 C 159.14 175.77 158.46 176.70 158.61 177.69 C 158.76 178.68 159.69 179.37 160.68 179.21 Z M 161.68 179.06 L 162.68 178.91 C 163.67 178.76 164.35 177.83 164.20 176.83 C 164.05 175.84 163.12 175.16 162.13 175.31 L 161.13 175.47 C 160.13 175.62 159.45 176.55 159.60 177.54 C 159.76 178.53 160.69 179.22 161.68 179.06 Z M 162.68 178.91 L 163.66 178.76 C 164.66 178.61 165.34 177.68 165.19 176.68 C 165.03 175.69 164.11 175.01 163.11 175.16 L 162.13 175.31 C 161.13 175.46 160.45 176.39 160.60 177.39 C 160.76 178.38 161.69 179.06 162.68 178.91 Z M 163.66 178.76 L 164.66 178.61 C 165.66 178.46 166.34 177.53 166.19 176.53 C 166.04 175.54 165.11 174.85 164.11 175.01 L 163.11 175.16 C 162.12 175.31 161.44 176.24 161.59 177.23 C 161.74 178.23 162.67 178.91 163.66 178.76 Z M 164.66 178.61 L 165.66 178.46 C 166.66 178.31 167.34 177.38 167.19 176.38 C 167.04 175.39 166.11 174.70 165.12 174.85 L 164.12 175.00 C 163.12 175.15 162.44 176.08 162.59 177.08 C 162.74 178.07 163.66 178.76 164.66 178.61 Z M 165.66 178.46 L 166.64 178.31 C 167.63 178.17 168.32 177.24 168.17 176.24 C 168.02 175.25 167.10 174.56 166.10 174.71 L 165.12 174.85 C 164.13 175.00 163.44 175.93 163.59 176.92 C 163.73 177.92 164.66 178.61 165.66 178.46 Z M 166.63 178.32 L 167.60 178.17 C 168.60 178.03 169.29 177.10 169.14 176.10 C 169.00 175.11 168.07 174.42 167.07 174.56 L 166.10 174.71 C 165.11 174.85 164.42 175.78 164.56 176.78 C 164.71 177.77 165.64 178.46 166.63 178.32 Z M 167.60 178.18 L 168.58 178.03 C 169.58 177.89 170.27 176.96 170.13 175.96 C 169.98 174.97 169.06 174.28 168.06 174.42 L 167.08 174.56 C 166.08 174.71 165.39 175.63 165.53 176.63 C 165.68 177.63 166.60 178.32 167.60 178.18 Z M 168.58 178.03 L 169.57 177.89 C 170.57 177.75 171.26 176.82 171.12 175.82 C 170.98 174.82 170.05 174.13 169.05 174.28 L 168.06 174.42 C 167.06 174.56 166.37 175.49 166.51 176.49 C 166.66 177.48 167.58 178.18 168.58 178.03 Z M 169.57 177.89 L 170.57 177.75 C 171.56 177.60 172.26 176.68 172.11 175.68 C 171.97 174.68 171.04 173.99 170.04 174.13 L 169.05 174.28 C 168.05 174.42 167.36 175.35 167.50 176.34 C 167.65 177.34 168.57 178.03 169.57 177.89 Z M 170.57 177.75 L 171.56 177.60 C 172.55 177.46 173.25 176.53 173.10 175.53 C 172.96 174.54 172.03 173.84 171.03 173.99 L 170.04 174.13 C 169.04 174.28 168.35 175.20 168.50 176.20 C 168.64 177.20 169.57 177.89 170.57 177.75 Z M 171.56 177.61 L 172.56 177.46 C 173.56 177.31 174.25 176.38 174.10 175.39 C 173.96 174.39 173.03 173.69 172.03 173.84 L 171.03 173.99 C 170.03 174.13 169.34 175.06 169.48 176.06 C 169.63 177.06 170.56 177.75 171.56 177.61 Z M 172.56 177.46 L 173.55 177.31 C 174.55 177.16 175.24 176.24 175.10 175.24 C 174.95 174.24 174.02 173.55 173.02 173.69 L 172.03 173.84 C 171.03 173.99 170.34 174.92 170.49 175.92 C 170.63 176.92 171.56 177.61 172.56 177.46 Z M 173.56 177.31 L 174.54 177.17 C 175.54 177.02 176.23 176.09 176.08 175.09 C 175.93 174.09 175.00 173.40 174.00 173.55 L 173.02 173.69 C 172.02 173.84 171.33 174.77 171.48 175.77 C 171.63 176.77 172.56 177.46 173.56 177.31 Z M 174.54 177.17 L 175.54 177.02 C 176.53 176.87 177.22 175.93 177.07 174.93 C 176.92 173.93 175.99 173.25 174.99 173.40 L 173.99 173.55 C 173.00 173.70 172.31 174.63 172.46 175.63 C 172.61 176.63 173.54 177.32 174.54 177.17 Z M 175.54 177.02 L 176.54 176.86 C 177.54 176.71 178.23 175.78 178.08 174.78 C 177.92 173.78 176.99 173.09 175.99 173.24 L 174.98 173.40 C 173.99 173.55 173.30 174.48 173.45 175.48 C 173.61 176.48 174.54 177.17 175.54 177.02 Z M 176.55 176.86 L 177.54 176.71 C 178.54 176.55 179.22 175.62 179.06 174.62 C 178.91 173.62 177.97 172.93 176.97 173.09 L 175.98 173.24 C 174.99 173.40 174.30 174.34 174.46 175.34 C 174.61 176.34 175.55 177.02 176.55 176.86 Z M 177.54 176.71 L 178.50 176.55 C 179.50 176.39 180.18 175.45 180.02 174.45 C 179.86 173.46 178.92 172.78 177.92 172.94 L 176.96 173.09 C 175.96 173.25 175.28 174.19 175.44 175.19 C 175.60 176.19 176.54 176.87 177.54 176.71 Z M 178.51 176.55 L 179.41 176.40 C 180.41 176.24 181.08 175.30 180.92 174.30 C 180.75 173.30 179.81 172.62 178.81 172.79 L 177.91 172.94 C 176.91 173.10 176.24 174.05 176.40 175.04 C 176.57 176.04 177.51 176.72 178.51 176.55 Z M 179.41 176.40 L 180.35 176.25 C 181.35 176.08 182.02 175.14 181.86 174.14 C 181.69 173.14 180.75 172.47 179.75 172.63 L 178.81 172.79 C 177.81 172.95 177.14 173.90 177.30 174.90 C 177.47 175.89 178.41 176.57 179.41 176.40 Z M 180.34 176.25 L 181.38 176.08 C 182.38 175.92 183.06 174.98 182.90 173.98 C 182.73 172.98 181.79 172.30 180.79 172.46 L 179.76 172.63 C 178.76 172.79 178.08 173.73 178.24 174.73 C 178.40 175.73 179.34 176.41 180.34 176.25 Z M 181.36 176.09 L 182.41 175.93 C 183.41 175.77 184.10 174.83 183.94 173.83 C 183.79 172.83 182.85 172.14 181.85 172.30 L 180.80 172.46 C 179.80 172.62 179.12 173.55 179.27 174.55 C 179.43 175.56 180.36 176.24 181.36 176.09 Z M 182.40 175.93 L 183.38 175.78 C 184.38 175.63 185.07 174.70 184.92 173.69 C 184.77 172.69 183.83 172.00 182.83 172.15 L 181.85 172.30 C 180.85 172.45 180.16 173.38 180.31 174.39 C 180.46 175.39 181.40 176.08 182.40 175.93 Z M 183.37 175.78 L 184.40 175.63 C 185.40 175.48 186.09 174.54 185.94 173.54 C 185.79 172.54 184.86 171.85 183.85 172.00 L 182.83 172.15 C 181.83 172.30 181.14 173.23 181.29 174.24 C 181.44 175.24 182.37 175.93 183.37 175.78 Z M 184.40 175.63 L 185.42 175.47 C 186.43 175.32 187.12 174.39 186.96 173.38 C 186.81 172.38 185.88 171.69 184.87 171.84 L 183.85 172.00 C 182.85 172.15 182.16 173.09 182.31 174.09 C 182.46 175.09 183.40 175.78 184.40 175.63 Z M 185.43 175.47 L 186.42 175.32 C 187.42 175.16 188.11 174.22 187.95 173.22 C 187.79 172.22 186.85 171.53 185.85 171.69 L 184.86 171.84 C 183.86 172.00 183.18 172.94 183.33 173.94 C 183.49 174.95 184.43 175.63 185.43 175.47 Z M 186.43 175.33 L 187.46 175.16 C 188.46 175.00 189.15 174.05 188.98 173.04 C 188.82 172.04 187.87 171.35 186.87 171.51 L 185.84 171.68 C 184.83 171.84 184.15 172.79 184.31 173.80 C 184.47 174.81 185.42 175.49 186.43 175.33 Z M 187.35 175.20 L 188.34 175.09 C 189.37 174.99 190.11 174.07 190.01 173.04 C 189.90 172.02 188.98 171.27 187.95 171.38 L 186.97 171.48 C 185.94 171.58 185.19 172.50 185.30 173.53 C 185.41 174.56 186.33 175.30 187.35 175.20 Z M 187.99 175.12 L 188.92 175.20 C 189.96 175.28 190.87 174.51 190.96 173.46 C 191.04 172.42 190.27 171.50 189.22 171.42 L 188.30 171.35 C 187.26 171.26 186.34 172.04 186.26 173.08 C 186.17 174.13 186.95 175.04 187.99 175.12 Z M 188.37 175.10 L 189.27 175.45 C 190.26 175.84 191.37 175.35 191.76 174.37 C 192.15 173.38 191.66 172.26 190.67 171.87 L 189.77 171.52 C 188.78 171.13 187.67 171.62 187.28 172.61 C 186.89 173.60 187.38 174.71 188.37 175.10 Z M 188.81 175.22 L 189.56 175.77 C 190.42 176.41 191.63 176.23 192.27 175.37 C 192.91 174.52 192.73 173.30 191.87 172.66 L 191.13 172.11 C 190.27 171.47 189.06 171.65 188.42 172.51 C 187.78 173.36 187.96 174.58 188.81 175.22 Z M 189.34 175.58 L 190.02 176.26 C 190.77 177.02 191.99 177.02 192.75 176.27 C 193.51 175.52 193.51 174.29 192.76 173.54 L 192.09 172.86 C 191.34 172.10 190.11 172.09 189.35 172.84 C 188.59 173.60 188.59 174.82 189.34 175.58 Z M 189.91 176.13 L 190.58 176.93 C 191.26 177.74 192.48 177.85 193.29 177.17 C 194.11 176.49 194.21 175.27 193.53 174.46 L 192.86 173.66 C 192.18 172.85 190.97 172.74 190.15 173.42 C 189.34 174.10 189.23 175.32 189.91 176.13 Z M 190.52 176.84 L 191.16 177.70 C 191.80 178.54 193.00 178.72 193.85 178.08 C 194.69 177.45 194.86 176.24 194.23 175.40 L 193.59 174.54 C 192.95 173.70 191.75 173.53 190.91 174.16 C 190.06 174.80 189.89 176.00 190.52 176.84 Z M 191.14 177.64 L 191.73 178.50 C 192.34 179.36 193.53 179.57 194.39 178.97 C 195.25 178.36 195.46 177.17 194.86 176.31 L 194.26 175.45 C 193.65 174.59 192.47 174.38 191.60 174.99 C 190.74 175.59 190.53 176.78 191.14 177.64 Z M 191.72 178.47 L 192.30 179.32 C 192.89 180.19 194.07 180.41 194.93 179.83 C 195.80 179.24 196.03 178.06 195.44 177.20 L 194.87 176.34 C 194.28 175.47 193.10 175.25 192.23 175.83 C 191.37 176.42 191.14 177.60 191.72 178.47 Z M 192.31 179.30 L 192.94 180.25 C 193.52 181.11 194.68 181.35 195.55 180.77 C 196.41 180.20 196.64 179.03 196.07 178.17 L 195.44 177.22 C 194.86 176.35 193.69 176.12 192.83 176.69 C 191.97 177.27 191.73 178.43 192.31 179.30 Z M 192.95 180.22 L 193.49 181.05 C 194.05 181.91 195.20 182.15 196.06 181.59 C 196.92 181.03 197.16 179.88 196.60 179.02 L 196.06 178.19 C 195.50 177.34 194.35 177.09 193.49 177.65 C 192.63 178.21 192.39 179.36 192.95 180.22 Z M 193.49 181.01 L 193.98 181.78 C 194.52 182.63 195.65 182.89 196.51 182.34 C 197.36 181.80 197.62 180.67 197.07 179.81 L 196.59 179.05 C 196.05 178.20 194.92 177.94 194.06 178.48 C 193.21 179.03 192.95 180.16 193.49 181.01 Z M 193.98 181.74 L 194.45 182.50 C 194.97 183.36 196.09 183.62 196.94 183.10 C 197.79 182.58 198.06 181.46 197.54 180.61 L 197.07 179.85 C 196.55 179.00 195.43 178.73 194.58 179.25 C 193.73 179.77 193.46 180.89 193.98 181.74 Z M 194.45 182.47 L 194.93 183.27 C 195.44 184.12 196.54 184.40 197.39 183.89 C 198.24 183.38 198.51 182.28 198.01 181.43 L 197.53 180.64 C 197.02 179.79 195.92 179.51 195.07 180.02 C 194.23 180.53 193.95 181.62 194.45 182.47 Z M 194.94 183.25 L 195.43 184.10 C 195.93 184.94 197.02 185.23 197.86 184.73 C 198.71 184.23 198.99 183.15 198.50 182.30 L 198.00 181.46 C 197.50 180.61 196.42 180.33 195.57 180.82 C 194.73 181.32 194.44 182.40 194.94 183.25 Z M 195.45 184.08 L 195.97 184.98 C 196.45 185.82 197.53 186.11 198.37 185.62 C 199.21 185.13 199.49 184.06 199.01 183.22 L 198.48 182.32 C 198.00 181.48 196.92 181.19 196.08 181.68 C 195.25 182.17 194.96 183.24 195.45 184.08 Z M 195.98 184.97 L 196.51 185.88 C 196.99 186.72 198.05 187.00 198.88 186.52 C 199.71 186.04 200.00 184.98 199.52 184.15 L 198.99 183.23 C 198.51 182.40 197.45 182.12 196.62 182.60 C 195.79 183.07 195.50 184.14 195.98 184.97 Z M 196.52 185.87 L 196.99 186.69 C 197.47 187.51 198.52 187.80 199.34 187.32 C 200.17 186.85 200.45 185.80 199.98 184.97 L 199.51 184.16 C 199.03 183.33 197.98 183.05 197.16 183.52 C 196.33 184.00 196.05 185.05 196.52 185.87 Z M 197.00 186.68 L 197.49 187.53 C 197.96 188.35 199.00 188.63 199.82 188.16 C 200.64 187.69 200.92 186.65 200.45 185.83 L 199.96 184.98 C 199.49 184.17 198.45 183.88 197.64 184.35 C 196.82 184.82 196.54 185.86 197.00 186.68 Z M 197.50 187.52 L 198.00 188.40 C 198.47 189.21 199.50 189.49 200.31 189.03 C 201.12 188.57 201.40 187.53 200.94 186.72 L 200.44 185.84 C 199.98 185.03 198.95 184.75 198.13 185.21 C 197.32 185.67 197.04 186.71 197.50 187.52 Z M 198.02 188.38 L 198.53 189.29 C 198.98 190.09 200.00 190.38 200.81 189.92 C 201.61 189.47 201.89 188.45 201.44 187.64 L 200.93 186.74 C 200.47 185.93 199.45 185.65 198.65 186.10 C 197.85 186.56 197.56 187.58 198.02 188.38 Z M 198.54 189.27 L 199.04 190.17 C 199.49 190.97 200.50 191.26 201.29 190.81 C 202.09 190.37 202.38 189.36 201.93 188.56 L 201.43 187.66 C 200.98 186.86 199.98 186.58 199.18 187.02 C 198.38 187.47 198.09 188.48 198.54 189.27 Z M 199.05 190.16 L 199.51 191.00 C 199.95 191.79 200.95 192.08 201.74 191.64 C 202.53 191.20 202.82 190.20 202.38 189.41 L 201.92 188.57 C 201.48 187.78 200.49 187.49 199.69 187.93 C 198.90 188.37 198.61 189.37 199.05 190.16 Z M 199.52 190.98 L 199.99 191.84 C 200.42 192.63 201.41 192.92 202.20 192.49 C 202.98 192.06 203.27 191.07 202.84 190.28 L 202.37 189.43 C 201.94 188.64 200.96 188.35 200.17 188.78 C 199.38 189.21 199.09 190.20 199.52 190.98 Z M 200.00 191.83 L 200.48 192.70 C 200.90 193.48 201.88 193.78 202.66 193.35 C 203.44 192.93 203.73 191.96 203.31 191.18 L 202.83 190.30 C 202.41 189.52 201.43 189.23 200.65 189.65 C 199.87 190.07 199.58 191.05 200.00 191.83 Z M 200.49 192.69 L 200.97 193.59 C 201.38 194.36 202.35 194.66 203.12 194.24 C 203.90 193.83 204.19 192.86 203.78 192.09 L 203.30 191.19 C 202.88 190.41 201.92 190.12 201.14 190.54 C 200.37 190.95 200.07 191.91 200.49 192.69 Z M 200.98 193.58 L 201.47 194.50 C 201.88 195.27 202.83 195.56 203.60 195.15 C 204.37 194.75 204.66 193.79 204.25 193.02 L 203.77 192.10 C 203.36 191.33 202.40 191.04 201.64 191.45 C 200.87 191.85 200.57 192.81 200.98 193.58 Z M 201.48 194.49 L 201.93 195.36 C 202.33 196.12 203.28 196.41 204.04 196.01 C 204.81 195.61 205.10 194.67 204.70 193.91 L 204.24 193.04 C 203.84 192.27 202.90 191.98 202.14 192.38 C 201.37 192.78 201.08 193.72 201.48 194.49 Z M 201.94 195.35 L 202.39 196.20 C 202.78 196.96 203.72 197.25 204.48 196.86 C 205.23 196.46 205.53 195.53 205.13 194.77 L 204.69 193.92 C 204.30 193.16 203.36 192.86 202.60 193.26 C 201.84 193.65 201.55 194.59 201.94 195.35 Z M 202.40 196.19 L 202.85 197.06 C 203.24 197.81 204.16 198.11 204.92 197.72 C 205.67 197.33 205.97 196.40 205.58 195.65 L 205.12 194.78 C 204.73 194.02 203.81 193.73 203.05 194.12 C 202.30 194.51 202.01 195.44 202.40 196.19 Z M 202.86 197.05 L 203.32 197.94 C 203.70 198.69 204.62 198.98 205.37 198.60 C 206.12 198.21 206.41 197.29 206.02 196.54 L 205.57 195.65 C 205.18 194.91 204.26 194.61 203.51 195.00 C 202.76 195.38 202.47 196.30 202.86 197.05 Z M 203.33 197.93 L 203.79 198.84 C 204.18 199.58 205.09 199.87 205.83 199.49 C 206.57 199.11 206.86 198.20 206.48 197.46 L 206.01 196.55 C 205.63 195.81 204.72 195.52 203.98 195.90 C 203.23 196.28 202.94 197.19 203.33 197.93 Z M 203.80 198.84 L 204.28 199.76 C 204.66 200.49 205.56 200.78 206.30 200.40 C 207.04 200.03 207.33 199.12 206.95 198.38 L 206.47 197.46 C 206.09 196.72 205.19 196.44 204.45 196.81 C 203.71 197.19 203.42 198.10 203.80 198.84 Z M 204.29 199.75 L 204.76 200.67 C 205.14 201.40 206.04 201.68 206.77 201.31 C 207.50 200.93 207.78 200.03 207.41 199.30 L 206.94 198.39 C 206.56 197.66 205.66 197.37 204.93 197.75 C 204.20 198.13 203.91 199.02 204.29 199.75 Z M 204.77 200.66 L 205.21 201.52 C 205.59 202.25 206.48 202.53 207.21 202.16 C 207.93 201.78 208.22 200.89 207.84 200.16 L 207.40 199.30 C 207.02 198.58 206.13 198.29 205.40 198.67 C 204.68 199.04 204.39 199.94 204.77 200.66 Z M 205.22 201.52 L 205.67 202.39 C 206.05 203.11 206.94 203.39 207.66 203.02 C 208.38 202.65 208.66 201.76 208.29 201.03 L 207.84 200.16 C 207.46 199.44 206.57 199.16 205.85 199.54 C 205.13 199.91 204.85 200.80 205.22 201.52 Z M 205.68 202.39 L 206.14 203.27 C 206.51 203.99 207.40 204.27 208.12 203.89 C 208.83 203.52 209.11 202.64 208.74 201.92 L 208.28 201.04 C 207.91 200.32 207.02 200.04 206.30 200.41 C 205.59 200.79 205.31 201.67 205.68 202.39 Z M 206.15 203.27 L 206.61 204.16 C 206.99 204.87 207.87 205.15 208.58 204.78 C 209.29 204.40 209.57 203.52 209.20 202.81 L 208.73 201.92 C 208.36 201.20 207.48 200.93 206.76 201.30 C 206.05 201.67 205.77 202.56 206.15 203.27 Z M 206.62 204.16 L 207.09 205.06 C 207.46 205.77 208.34 206.04 209.05 205.67 C 209.76 205.30 210.03 204.42 209.66 203.71 L 209.19 202.81 C 208.82 202.10 207.94 201.83 207.23 202.20 C 206.52 202.57 206.25 203.45 206.62 204.16 Z M 207.10 205.06 L 207.58 205.96 C 207.95 206.67 208.82 206.94 209.53 206.57 C 210.23 206.20 210.50 205.32 210.13 204.62 L 209.65 203.71 C 209.28 203.01 208.41 202.73 207.70 203.11 C 207.00 203.48 206.73 204.35 207.10 205.06 Z M 207.58 205.96 L 208.06 206.87 C 208.43 207.57 209.30 207.84 210.01 207.46 C 210.71 207.09 210.98 206.22 210.60 205.52 L 210.13 204.62 C 209.75 203.92 208.88 203.65 208.18 204.02 C 207.48 204.39 207.21 205.26 207.58 205.96 Z M 208.07 206.87 L 208.53 207.74 C 208.90 208.44 209.77 208.71 210.47 208.33 C 211.17 207.96 211.44 207.09 211.06 206.39 L 210.60 205.52 C 210.23 204.82 209.36 204.56 208.66 204.93 C 207.96 205.30 207.70 206.17 208.07 206.87 Z M 208.54 207.74 L 209.00 208.62 C 209.38 209.32 210.25 209.58 210.94 209.21 C 211.64 208.83 211.90 207.97 211.53 207.27 L 211.06 206.39 C 210.69 205.69 209.82 205.43 209.12 205.80 C 208.42 206.18 208.16 207.05 208.54 207.74 Z M 209.01 208.62 L 209.48 209.50 C 209.86 210.20 210.72 210.46 211.42 210.08 C 212.12 209.71 212.38 208.84 212.00 208.15 L 211.53 207.27 C 211.15 206.57 210.29 206.31 209.59 206.68 C 208.89 207.06 208.63 207.93 209.01 208.62 Z M 209.48 209.50 L 209.96 210.39 C 210.34 211.08 211.20 211.34 211.90 210.96 C 212.59 210.59 212.85 209.72 212.48 209.02 L 212.00 208.14 C 211.62 207.45 210.75 207.19 210.06 207.57 C 209.37 207.94 209.11 208.81 209.48 209.50 Z M 209.96 210.39 L 210.44 211.27 C 210.82 211.96 211.69 212.22 212.38 211.84 C 213.08 211.46 213.33 210.60 212.95 209.90 L 212.47 209.02 C 212.10 208.33 211.23 208.07 210.53 208.45 C 209.84 208.83 209.59 209.70 209.96 210.39 Z M 210.45 211.27 L 210.93 212.16 C 211.31 212.85 212.18 213.10 212.87 212.72 C 213.56 212.34 213.81 211.47 213.43 210.78 L 212.95 209.90 C 212.57 209.21 211.70 208.96 211.01 209.34 C 210.32 209.71 210.07 210.58 210.45 211.27 Z M 210.93 212.16 L 211.42 213.04 C 211.80 213.73 212.67 213.98 213.36 213.60 C 214.05 213.22 214.30 212.35 213.92 211.66 L 213.43 210.78 C 213.05 210.09 212.18 209.84 211.49 210.22 C 210.80 210.60 210.55 211.47 210.93 212.16 Z M 211.42 213.04 L 211.91 213.92 C 212.29 214.61 213.16 214.85 213.85 214.47 C 214.54 214.09 214.79 213.22 214.40 212.53 L 213.91 211.66 C 213.53 210.97 212.66 210.72 211.98 211.10 C 211.29 211.49 211.04 212.35 211.42 213.04 Z M 211.91 213.92 L 212.40 214.80 C 212.79 215.48 213.66 215.73 214.34 215.34 C 215.03 214.96 215.27 214.09 214.89 213.40 L 214.40 212.53 C 214.02 211.84 213.15 211.60 212.46 211.98 C 211.77 212.37 211.53 213.24 211.91 213.92 Z M 212.41 214.80 L 212.90 215.67 C 213.28 216.36 214.15 216.60 214.84 216.21 C 215.52 215.83 215.77 214.96 215.38 214.27 L 214.89 213.40 C 214.50 212.71 213.63 212.47 212.95 212.86 C 212.26 213.24 212.02 214.11 212.41 214.80 Z M 212.90 215.67 L 213.39 216.54 C 213.78 217.23 214.65 217.47 215.33 217.08 C 216.02 216.69 216.26 215.82 215.87 215.14 L 215.38 214.27 C 214.99 213.58 214.12 213.34 213.44 213.73 C 212.75 214.12 212.51 214.99 212.90 215.67 Z M 213.39 216.55 L 213.89 217.41 C 214.27 218.10 215.14 218.34 215.83 217.95 C 216.51 217.56 216.75 216.69 216.36 216.01 L 215.87 215.14 C 215.48 214.45 214.61 214.21 213.93 214.60 C 213.24 214.99 213.00 215.86 213.39 216.55 Z M 213.89 217.42 L 214.38 218.28 C 214.77 218.97 215.64 219.21 216.33 218.82 C 217.01 218.43 217.25 217.56 216.86 216.87 L 216.36 216.00 C 215.97 215.32 215.10 215.08 214.42 215.47 C 213.74 215.86 213.50 216.73 213.89 217.42 Z M 214.38 218.28 L 214.88 219.15 C 215.27 219.84 216.14 220.07 216.82 219.68 C 217.50 219.29 217.74 218.42 217.35 217.74 L 216.86 216.87 C 216.47 216.19 215.60 215.95 214.91 216.34 C 214.23 216.73 213.99 217.60 214.38 218.28 Z M 214.88 219.15 L 215.23 219.78 C 215.62 220.46 216.49 220.70 217.18 220.31 C 217.86 219.92 218.10 219.05 217.71 218.36 L 217.35 217.74 C 216.96 217.06 216.09 216.82 215.41 217.21 C 214.72 217.60 214.49 218.47 214.88 219.15 Z"
      fill="black"
      fill-rule="nonzero" /></svg>