<svg xmlns="http://www.w3.org/2000/svg" width="300" height="300" viewBox="0 0 300 300">
<path d="M 161.58 110.28 L 162.10 111.21 C 162.52 111.93 163.44 112.19 164.17 111.77 C 164.90 111.36 165.15 110.43 164.74 109.71 L 164.21 108.78 C 163.79 108.05 162.87 107.80 162.14 108.22 C 161.42 108.63 161.16 109.55 161.58 110.28 Z M 161.99 111.09 L 162.40 112.01 C 162.75 112.79 163.67 113.15 164.46 112.80 C 165.25 112.45 165.60 111.53 165.25 110.74 L 164.85 109.82 C 164.50 109.04 163.57 108.68 162.79 109.03 C 162.00 109.38 161.64 110.30 161.99 111.09 Z M 162.25 111.67 L 162.42 112.58 C 162.58 113.45 163.42 114.03 164.29 113.86 C 165.16 113.70 165.74 112.86 165.57 111.99 L 165.40 111.08 C 165.24 110.21 164.40 109.64 163.53 109.80 C 162.66 109.96 162.09 110.80 162.25 111.67 Z M 162.39 112.00 L 162.23 112.88 C 162.08 113.77 162.67 114.61 163.55 114.77 C 164.44 114.93 165.29 114.34 165.45 113.45 L 165.60 112.57 C 165.76 111.69 165.17 110.84 164.28 110.68 C 163.40 110.52 162.55 111.11 162.39 112.00 Z M 162.37 112.43 L 161.94 113.30 C 161.53 114.11 161.86 115.09 162.67 115.50 C 163.48 115.91 164.47 115.58 164.87 114.77 L 165.31 113.90 C 165.71 113.09 165.39 112.11 164.58 111.70 C 163.77 111.29 162.78 111.62 162.37 112.43 Z M 162.07 113.07 L 161.45 113.93 C 160.92 114.67 161.08 115.70 161.82 116.23 C 162.56 116.76 163.58 116.60 164.12 115.86 L 164.74 115.00 C 165.27 114.26 165.11 113.23 164.37 112.70 C 163.63 112.17 162.60 112.33 162.07 113.07 Z M 161.52 113.84 L 160.86 114.62 C 160.28 115.32 160.37 116.36 161.07 116.94 C 161.76 117.53 162.80 117.44 163.39 116.74 L 164.05 115.96 C 164.63 115.26 164.54 114.22 163.84 113.63 C 163.14 113.05 162.10 113.14 161.52 113.84 Z M 160.90 114.58 L 160.23 115.31 C 159.63 115.99 159.68 117.04 160.36 117.65 C 161.04 118.26 162.08 118.20 162.69 117.52 L 163.36 116.78 C 163.96 116.10 163.91 115.06 163.23 114.45 C 162.55 113.84 161.51 113.90 160.90 114.58 Z M 160.26 115.28 L 159.57 116.01 C 158.94 116.68 158.97 117.73 159.64 118.35 C 160.30 118.98 161.35 118.95 161.98 118.29 L 162.67 117.55 C 163.29 116.89 163.26 115.84 162.60 115.21 C 161.94 114.59 160.89 114.62 160.26 115.28 Z M 159.59 115.99 L 158.88 116.72 C 158.24 117.37 158.25 118.42 158.90 119.06 C 159.55 119.70 160.60 119.69 161.24 119.04 L 161.95 118.31 C 162.60 117.66 162.59 116.61 161.93 115.97 C 161.28 115.33 160.23 115.34 159.59 115.99 Z M 158.89 116.70 L 158.17 117.41 C 157.52 118.06 157.51 119.11 158.16 119.76 C 158.80 120.41 159.85 120.42 160.50 119.77 L 161.23 119.06 C 161.88 118.41 161.88 117.36 161.24 116.71 C 160.59 116.06 159.54 116.05 158.89 116.70 Z M 158.18 117.40 L 157.45 118.10 C 156.79 118.73 156.77 119.79 157.41 120.45 C 158.04 121.11 159.10 121.13 159.76 120.49 L 160.49 119.79 C 161.15 119.16 161.17 118.10 160.53 117.44 C 159.90 116.78 158.85 116.76 158.18 117.40 Z M 157.47 118.08 L 156.74 118.75 C 156.07 119.38 156.03 120.43 156.66 121.11 C 157.28 121.78 158.34 121.82 159.01 121.19 L 159.74 120.51 C 160.41 119.89 160.45 118.83 159.83 118.16 C 159.20 117.49 158.15 117.45 157.47 118.08 Z M 156.77 118.73 L 156.03 119.38 C 155.35 120.00 155.29 121.05 155.90 121.74 C 156.51 122.42 157.57 122.48 158.25 121.87 L 158.99 121.22 C 159.67 120.60 159.73 119.55 159.12 118.86 C 158.51 118.18 157.45 118.12 156.77 118.73 Z M 156.07 119.35 L 155.27 120.03 C 154.57 120.62 154.48 121.67 155.08 122.38 C 155.67 123.08 156.73 123.17 157.43 122.57 L 158.22 121.90 C 158.93 121.30 159.01 120.25 158.42 119.55 C 157.82 118.85 156.77 118.76 156.07 119.35 Z M 155.32 119.99 L 154.53 120.60 C 153.81 121.17 153.68 122.22 154.25 122.95 C 154.82 123.67 155.87 123.80 156.59 123.23 L 157.38 122.61 C 158.11 122.04 158.23 120.99 157.67 120.27 C 157.10 119.54 156.05 119.42 155.32 119.99 Z M 154.60 120.55 L 153.81 121.11 C 153.06 121.64 152.88 122.68 153.41 123.44 C 153.94 124.19 154.98 124.37 155.74 123.84 L 156.53 123.28 C 157.28 122.75 157.46 121.71 156.93 120.95 C 156.40 120.20 155.35 120.02 154.60 120.55 Z M 153.91 121.04 L 153.01 121.59 C 152.22 122.06 151.96 123.09 152.44 123.88 C 152.92 124.67 153.94 124.92 154.73 124.45 L 155.63 123.91 C 156.42 123.43 156.68 122.40 156.20 121.61 C 155.73 120.82 154.70 120.57 153.91 121.04 Z M 153.22 121.48 L 152.28 121.88 C 151.43 122.24 151.03 123.22 151.39 124.06 C 151.75 124.91 152.73 125.31 153.58 124.95 L 154.52 124.56 C 155.37 124.20 155.77 123.22 155.41 122.37 C 155.05 121.52 154.07 121.12 153.22 121.48 Z M 152.73 121.76 L 151.82 121.87 C 150.90 121.99 150.25 122.82 150.37 123.73 C 150.48 124.65 151.31 125.29 152.23 125.18 L 153.13 125.07 C 154.05 124.96 154.70 124.13 154.58 123.21 C 154.47 122.30 153.64 121.65 152.73 121.76 Z M 152.53 121.95 L 151.65 121.67 C 150.78 121.39 149.85 121.87 149.57 122.74 C 149.29 123.61 149.77 124.54 150.64 124.82 L 151.51 125.10 C 152.38 125.38 153.32 124.90 153.60 124.03 C 153.88 123.17 153.40 122.23 152.53 121.95 Z M 152.22 122.02 L 151.48 121.37 C 150.80 120.78 149.77 120.84 149.18 121.52 C 148.58 122.20 148.65 123.23 149.33 123.82 L 150.07 124.47 C 150.75 125.07 151.78 125.00 152.37 124.32 C 152.97 123.64 152.90 122.61 152.22 122.02 Z M 151.80 121.80 L 151.27 120.89 C 150.83 120.12 149.85 119.86 149.09 120.30 C 148.32 120.74 148.05 121.72 148.49 122.49 L 149.01 123.39 C 149.45 124.16 150.43 124.43 151.20 123.99 C 151.97 123.55 152.24 122.57 151.80 121.80 Z M 151.42 121.30 L 151.19 120.39 C 150.98 119.54 150.11 119.02 149.26 119.24 C 148.41 119.46 147.89 120.32 148.11 121.17 L 148.34 122.08 C 148.56 122.93 149.42 123.45 150.28 123.23 C 151.13 123.01 151.64 122.15 151.42 121.30 Z M 151.24 120.68 L 151.17 119.68 C 151.12 118.81 150.36 118.15 149.49 118.20 C 148.61 118.26 147.95 119.01 148.00 119.89 L 148.07 120.88 C 148.12 121.75 148.88 122.42 149.75 122.36 C 150.63 122.31 151.29 121.55 151.24 120.68 Z M 151.17 119.89 L 151.24 118.84 C 151.29 117.97 150.63 117.21 149.76 117.16 C 148.89 117.10 148.13 117.76 148.08 118.63 L 148.01 119.68 C 147.95 120.56 148.61 121.31 149.49 121.37 C 150.36 121.42 151.11 120.76 151.17 119.89 Z M 151.22 118.97 L 151.37 117.97 C 151.50 117.11 150.91 116.30 150.05 116.17 C 149.18 116.04 148.38 116.63 148.25 117.50 L 148.09 118.50 C 147.96 119.36 148.56 120.17 149.42 120.30 C 150.28 120.43 151.09 119.84 151.22 118.97 Z M 151.35 118.08 L 151.57 117.09 C 151.76 116.24 151.22 115.40 150.37 115.21 C 149.52 115.02 148.67 115.55 148.49 116.41 L 148.27 117.39 C 148.08 118.24 148.61 119.09 149.47 119.28 C 150.32 119.47 151.16 118.93 151.35 118.08 Z M 151.54 117.19 L 151.83 116.23 C 152.07 115.39 151.59 114.52 150.75 114.27 C 149.92 114.03 149.04 114.51 148.79 115.34 L 148.51 116.31 C 148.27 117.14 148.75 118.02 149.58 118.27 C 150.42 118.51 151.30 118.03 151.54 117.19 Z M 151.79 116.33 L 152.13 115.41 C 152.43 114.59 152.01 113.68 151.19 113.38 C 150.37 113.08 149.46 113.50 149.16 114.32 L 148.83 115.24 C 148.53 116.06 148.95 116.97 149.77 117.27 C 150.59 117.57 151.49 117.15 151.79 116.33 Z M 152.09 115.51 L 152.48 114.64 C 152.84 113.84 152.48 112.90 151.69 112.54 C 150.89 112.19 149.95 112.54 149.59 113.34 L 149.20 114.22 C 148.84 115.02 149.20 115.95 150.00 116.31 C 150.80 116.67 151.74 116.31 152.09 115.51 Z M 152.44 114.74 L 152.90 113.88 C 153.32 113.10 153.02 112.14 152.25 111.72 C 151.47 111.31 150.51 111.60 150.09 112.38 L 149.63 113.24 C 149.22 114.02 149.51 114.98 150.29 115.39 C 151.06 115.81 152.03 115.52 152.44 114.74 Z M 152.86 113.97 L 153.40 113.09 C 153.87 112.33 153.64 111.35 152.88 110.88 C 152.13 110.42 151.14 110.65 150.68 111.41 L 150.14 112.29 C 149.67 113.04 149.91 114.03 150.66 114.49 C 151.41 114.95 152.40 114.72 152.86 113.97 Z M 153.37 113.16 L 153.99 112.27 C 154.49 111.53 154.31 110.53 153.58 110.03 C 152.85 109.52 151.84 109.70 151.34 110.43 L 150.72 111.33 C 150.21 112.06 150.40 113.06 151.13 113.57 C 151.86 114.08 152.86 113.89 153.37 113.16 Z M 153.91 112.38 L 154.60 111.54 C 155.17 110.85 155.08 109.83 154.39 109.26 C 153.69 108.69 152.67 108.79 152.10 109.48 L 151.41 110.32 C 150.84 111.01 150.94 112.03 151.63 112.60 C 152.32 113.17 153.34 113.07 153.91 112.38 Z M 154.41 111.75 L 155.17 111.11 C 155.85 110.53 155.93 109.50 155.35 108.81 C 154.76 108.12 153.73 108.04 153.05 108.63 L 152.29 109.27 C 151.61 109.85 151.53 110.89 152.11 111.57 C 152.70 112.26 153.73 112.34 154.41 111.75 Z M 154.67 111.41 L 155.47 111.12 C 156.32 110.81 156.76 109.87 156.44 109.01 C 156.13 108.16 155.19 107.72 154.33 108.04 L 153.54 108.33 C 152.69 108.64 152.25 109.58 152.56 110.44 C 152.87 111.29 153.82 111.73 154.67 111.41 Z M 154.57 111.20 L 155.32 111.35 C 156.22 111.53 157.09 110.95 157.27 110.06 C 157.45 109.16 156.87 108.29 155.98 108.11 L 155.23 107.96 C 154.33 107.78 153.46 108.36 153.28 109.25 C 153.10 110.15 153.68 111.02 154.57 111.20 Z M 154.74 111.12 L 155.50 111.62 C 156.26 112.12 157.29 111.90 157.80 111.14 C 158.30 110.37 158.08 109.34 157.32 108.84 L 156.56 108.34 C 155.79 107.84 154.76 108.05 154.26 108.82 C 153.76 109.59 153.97 110.62 154.74 111.12 Z M 155.25 111.43 L 156.01 112.16 C 156.68 112.80 157.74 112.78 158.37 112.11 C 159.01 111.45 158.99 110.39 158.32 109.75 L 157.56 109.02 C 156.90 108.38 155.84 108.41 155.20 109.07 C 154.56 109.74 154.59 110.79 155.25 111.43 Z M 155.92 112.07 L 156.69 112.93 C 157.30 113.63 158.36 113.69 159.05 113.07 C 159.74 112.46 159.80 111.40 159.19 110.71 L 158.42 109.84 C 157.81 109.15 156.75 109.09 156.06 109.70 C 155.36 110.32 155.30 111.38 155.92 112.07 Z M 156.66 112.91 L 156.86 113.14 C 157.46 113.84 158.52 113.92 159.22 113.32 C 159.93 112.72 160.01 111.65 159.41 110.95 L 159.21 110.73 C 158.61 110.02 157.55 109.94 156.84 110.55 C 156.14 111.15 156.06 112.21 156.66 112.91 Z"
      fill="black"
      fill-rule="nonzero" /><path d="M 154.08 190.36 L 153.44 191.13 C 152.85 191.83 152.95 192.87 153.65 193.46 C 154.35 194.05 155.40 193.95 155.98 193.25 L 156.62 192.48 C 157.21 191.78 157.11 190.73 156.41 190.15 C 155.71 189.56 154.67 189.66 154.08 190.36 Z"
      fill="black"
      fill-rule="nonzero" /></svg>