<svg xmlns="http://www.w3.org/2000/svg" width="300" height="300" viewBox="0 0 300 300">
<path d="M 107.74 197.52 L 107.12 196.70 C 106.62 196.04 105.67 195.90 105.01 196.40 C 104.34 196.91 104.21 197.85 104.71 198.52 L 105.33 199.34 C 105.83 200.00 106.78 200.14 107.44 199.64 C 108.11 199.13 108.24 198.19 107.74 197.52 Z M 107.15 196.72 L 106.56 195.90 C 106.07 195.21 105.12 195.06 104.44 195.54 C 103.76 196.03 103.60 196.98 104.09 197.67 L 104.68 198.49 C 105.17 199.18 106.12 199.33 106.80 198.84 C 107.48 198.36 107.64 197.41 107.15 196.72 Z M 106.62 195.95 L 106.08 195.12 C 105.62 194.41 104.68 194.20 103.96 194.66 C 103.25 195.11 103.04 196.06 103.50 196.77 L 104.03 197.61 C 104.49 198.32 105.44 198.53 106.15 198.07 C 106.86 197.62 107.07 196.67 106.62 195.95 Z M 106.15 195.22 L 105.71 194.37 C 105.31 193.62 104.37 193.33 103.62 193.73 C 102.86 194.13 102.58 195.07 102.98 195.82 L 103.42 196.67 C 103.82 197.42 104.76 197.71 105.51 197.31 C 106.27 196.91 106.55 195.98 106.15 195.22 Z M 105.78 194.53 L 105.43 193.64 C 105.12 192.85 104.22 192.46 103.42 192.77 C 102.63 193.08 102.24 193.98 102.55 194.78 L 102.90 195.67 C 103.21 196.46 104.11 196.85 104.91 196.54 C 105.70 196.23 106.10 195.33 105.78 194.53 Z M 105.49 193.81 L 105.24 192.88 C 105.02 192.06 104.17 191.57 103.34 191.79 C 102.52 192.01 102.03 192.86 102.25 193.69 L 102.50 194.61 C 102.72 195.44 103.57 195.93 104.39 195.71 C 105.22 195.49 105.71 194.64 105.49 193.81 Z M 105.27 193.03 L 105.10 192.04 C 104.96 191.19 104.16 190.63 103.32 190.77 C 102.48 190.91 101.91 191.71 102.05 192.55 L 102.22 193.54 C 102.36 194.38 103.16 194.95 104.00 194.81 C 104.84 194.67 105.41 193.87 105.27 193.03 Z M 105.11 192.14 L 105.00 191.07 C 104.92 190.22 104.16 189.60 103.32 189.69 C 102.47 189.77 101.85 190.53 101.93 191.37 L 102.04 192.45 C 102.12 193.29 102.88 193.91 103.73 193.83 C 104.57 193.75 105.19 192.99 105.11 192.14 Z M 105.01 191.14 L 104.96 190.17 C 104.91 189.31 104.18 188.66 103.33 188.71 C 102.48 188.76 101.83 189.48 101.88 190.33 L 101.93 191.31 C 101.97 192.16 102.70 192.81 103.55 192.76 C 104.40 192.72 105.06 191.99 105.01 191.14 Z M 104.96 190.22 L 104.94 189.20 C 104.92 188.35 104.22 187.67 103.37 187.69 C 102.51 187.70 101.84 188.41 101.85 189.26 L 101.87 190.28 C 101.89 191.13 102.59 191.81 103.45 191.79 C 104.30 191.78 104.98 191.07 104.96 190.22 Z M 104.94 189.26 L 104.96 188.23 C 104.97 187.38 104.29 186.67 103.44 186.66 C 102.59 186.64 101.88 187.33 101.87 188.18 L 101.85 189.21 C 101.83 190.06 102.52 190.76 103.37 190.78 C 104.22 190.79 104.93 190.11 104.94 189.26 Z M 104.96 188.30 L 105.02 187.29 C 105.07 186.44 104.42 185.71 103.56 185.66 C 102.71 185.61 101.98 186.26 101.93 187.11 L 101.87 188.12 C 101.82 188.97 102.47 189.70 103.32 189.75 C 104.18 189.80 104.91 189.15 104.96 188.30 Z M 105.01 187.37 L 105.12 186.38 C 105.22 185.53 104.60 184.76 103.75 184.67 C 102.90 184.57 102.14 185.19 102.04 186.04 L 101.93 187.03 C 101.84 187.88 102.45 188.65 103.30 188.74 C 104.15 188.84 104.92 188.22 105.01 187.37 Z M 105.11 186.48 L 105.29 185.47 C 105.44 184.63 104.88 183.82 104.03 183.67 C 103.19 183.52 102.38 184.08 102.23 184.93 L 102.05 185.94 C 101.90 186.78 102.47 187.59 103.31 187.74 C 104.16 187.88 104.96 187.32 105.11 186.48 Z M 105.27 185.57 L 105.51 184.62 C 105.71 183.79 105.20 182.95 104.37 182.74 C 103.54 182.53 102.70 183.04 102.49 183.87 L 102.25 184.82 C 102.05 185.66 102.55 186.50 103.39 186.71 C 104.22 186.91 105.06 186.41 105.27 185.57 Z M 105.48 184.71 L 105.77 183.78 C 106.03 182.96 105.57 182.09 104.75 181.83 C 103.93 181.58 103.06 182.03 102.80 182.85 L 102.51 183.78 C 102.26 184.60 102.71 185.47 103.53 185.73 C 104.35 185.99 105.23 185.53 105.48 184.71 Z M 105.75 183.85 L 106.08 182.93 C 106.37 182.12 105.96 181.23 105.15 180.94 C 104.34 180.65 103.45 181.06 103.16 181.87 L 102.82 182.79 C 102.53 183.60 102.95 184.49 103.76 184.78 C 104.57 185.07 105.46 184.65 105.75 183.85 Z M 106.07 182.97 L 106.40 182.11 C 106.72 181.31 106.32 180.41 105.52 180.09 C 104.72 179.78 103.82 180.18 103.50 180.98 L 103.17 181.83 C 102.86 182.63 103.25 183.54 104.05 183.85 C 104.85 184.16 105.75 183.77 106.07 182.97 Z M 106.39 182.14 L 106.76 181.25 C 107.09 180.45 106.71 179.54 105.92 179.21 C 105.12 178.88 104.21 179.26 103.88 180.06 L 103.51 180.95 C 103.19 181.75 103.56 182.66 104.36 182.98 C 105.15 183.31 106.07 182.93 106.39 182.14 Z M 106.76 181.26 L 107.16 180.33 C 107.49 179.54 107.13 178.62 106.33 178.29 C 105.54 177.95 104.63 178.31 104.29 179.11 L 103.89 180.04 C 103.55 180.83 103.92 181.75 104.71 182.09 C 105.50 182.42 106.42 182.06 106.76 181.26 Z M 107.15 180.34 L 107.58 179.36 C 107.92 178.57 107.56 177.65 106.77 177.31 C 105.98 176.96 105.06 177.33 104.72 178.12 L 104.29 179.10 C 103.95 179.89 104.31 180.80 105.10 181.15 C 105.89 181.49 106.81 181.13 107.15 180.34 Z M 107.58 179.36 L 107.99 178.44 C 108.33 177.65 107.97 176.73 107.18 176.38 C 106.39 176.03 105.47 176.39 105.13 177.18 L 104.72 178.11 C 104.37 178.90 104.73 179.82 105.52 180.17 C 106.31 180.51 107.23 180.15 107.58 179.36 Z M 107.99 178.44 L 108.37 177.57 C 108.72 176.78 108.36 175.86 107.57 175.51 C 106.78 175.16 105.86 175.52 105.51 176.31 L 105.13 177.18 C 104.78 177.97 105.14 178.89 105.93 179.24 C 106.71 179.59 107.64 179.23 107.99 178.44 Z M 108.37 177.58 L 108.77 176.68 C 109.12 175.89 108.77 174.97 107.98 174.61 C 107.19 174.26 106.27 174.61 105.92 175.40 L 105.51 176.30 C 105.16 177.09 105.51 178.01 106.30 178.37 C 107.09 178.72 108.01 178.37 108.37 177.58 Z M 108.76 176.69 L 109.19 175.78 C 109.55 174.99 109.20 174.06 108.42 173.70 C 107.63 173.34 106.70 173.68 106.34 174.47 L 105.92 175.39 C 105.56 176.17 105.90 177.10 106.69 177.46 C 107.47 177.82 108.40 177.48 108.76 176.69 Z M 109.18 175.80 L 109.62 174.86 C 109.99 174.08 109.66 173.15 108.88 172.78 C 108.10 172.41 107.16 172.74 106.79 173.52 L 106.35 174.45 C 105.98 175.23 106.31 176.17 107.09 176.54 C 107.87 176.91 108.81 176.58 109.18 175.80 Z M 109.61 174.89 L 110.08 173.95 C 110.46 173.17 110.14 172.23 109.37 171.85 C 108.59 171.46 107.65 171.78 107.27 172.56 L 106.80 173.50 C 106.42 174.27 106.74 175.21 107.51 175.60 C 108.29 175.98 109.23 175.66 109.61 174.89 Z M 110.07 173.97 L 110.52 173.09 C 110.92 172.33 110.62 171.38 109.85 170.98 C 109.08 170.58 108.13 170.88 107.74 171.65 L 107.28 172.53 C 106.88 173.30 107.18 174.25 107.95 174.65 C 108.72 175.04 109.67 174.74 110.07 173.97 Z M 110.51 173.12 L 110.98 172.26 C 111.39 171.50 111.10 170.54 110.34 170.13 C 109.58 169.72 108.63 170.00 108.21 170.77 L 107.75 171.63 C 107.33 172.39 107.62 173.34 108.38 173.75 C 109.14 174.17 110.10 173.88 110.51 173.12 Z M 110.96 172.28 L 111.45 171.42 C 111.88 170.67 111.61 169.71 110.85 169.28 C 110.10 168.86 109.14 169.12 108.71 169.88 L 108.22 170.74 C 107.80 171.50 108.07 172.46 108.82 172.88 C 109.58 173.31 110.54 173.04 110.96 172.28 Z M 111.44 171.45 L 111.94 170.58 C 112.38 169.83 112.13 168.87 111.38 168.43 C 110.63 167.99 109.67 168.24 109.23 168.99 L 108.72 169.86 C 108.28 170.61 108.53 171.57 109.28 172.01 C 110.03 172.45 111.00 172.20 111.44 171.45 Z M 111.93 170.61 L 112.46 169.74 C 112.91 169.00 112.67 168.03 111.93 167.58 C 111.19 167.13 110.22 167.36 109.76 168.11 L 109.24 168.97 C 108.79 169.71 109.02 170.68 109.77 171.13 C 110.51 171.59 111.48 171.35 111.93 170.61 Z M 112.45 169.76 L 112.99 168.90 C 113.46 168.16 113.23 167.18 112.50 166.72 C 111.76 166.26 110.79 166.48 110.32 167.22 L 109.78 168.08 C 109.31 168.82 109.53 169.79 110.27 170.26 C 111.01 170.72 111.98 170.50 112.45 169.76 Z M 112.98 168.92 L 113.53 168.08 C 114.00 167.34 113.79 166.37 113.06 165.89 C 112.33 165.42 111.35 165.63 110.88 166.36 L 110.33 167.20 C 109.86 167.93 110.07 168.91 110.80 169.38 C 111.53 169.86 112.51 169.65 112.98 168.92 Z M 113.52 168.09 L 114.05 167.29 C 114.54 166.56 114.35 165.58 113.62 165.10 C 112.90 164.61 111.91 164.81 111.43 165.53 L 110.89 166.34 C 110.40 167.06 110.60 168.04 111.32 168.53 C 112.05 169.01 113.03 168.82 113.52 168.09 Z M 114.04 167.31 L 114.60 166.50 C 115.10 165.78 114.91 164.79 114.20 164.30 C 113.48 163.80 112.49 163.98 112.00 164.70 L 111.44 165.51 C 110.95 166.23 111.13 167.22 111.85 167.71 C 112.56 168.21 113.55 168.02 114.04 167.31 Z M 114.59 166.52 L 115.16 165.70 C 115.67 164.99 115.50 164.01 114.79 163.50 C 114.08 162.99 113.09 163.16 112.59 163.87 L 112.01 164.69 C 111.50 165.40 111.67 166.38 112.38 166.89 C 113.10 167.39 114.08 167.23 114.59 166.52 Z M 115.15 165.72 L 115.75 164.91 C 116.26 164.21 116.11 163.22 115.40 162.70 C 114.70 162.18 113.71 162.34 113.19 163.04 L 112.60 163.86 C 112.08 164.56 112.24 165.55 112.94 166.07 C 113.65 166.58 114.64 166.43 115.15 165.72 Z M 115.73 164.93 L 116.35 164.12 C 116.87 163.42 116.73 162.43 116.03 161.90 C 115.34 161.37 114.34 161.51 113.82 162.21 L 113.21 163.02 C 112.68 163.72 112.82 164.71 113.52 165.24 C 114.21 165.77 115.21 165.63 115.73 164.93 Z M 116.33 164.13 L 116.96 163.32 C 117.50 162.63 117.38 161.64 116.69 161.10 C 115.99 160.56 115.00 160.69 114.46 161.38 L 113.83 162.19 C 113.30 162.88 113.42 163.88 114.11 164.41 C 114.80 164.95 115.80 164.83 116.33 164.13 Z M 116.95 163.34 L 117.57 162.56 C 118.12 161.88 118.01 160.88 117.32 160.34 C 116.64 159.79 115.65 159.90 115.10 160.58 L 114.48 161.36 C 113.93 162.04 114.04 163.04 114.72 163.59 C 115.41 164.13 116.40 164.02 116.95 163.34 Z M 117.56 162.58 L 118.18 161.83 C 118.74 161.15 118.64 160.15 117.96 159.60 C 117.29 159.04 116.29 159.14 115.73 159.81 L 115.11 160.57 C 114.56 161.24 114.65 162.24 115.33 162.80 C 116.00 163.35 117.00 163.26 117.56 162.58 Z M 118.17 161.84 L 118.80 161.09 C 119.37 160.42 119.29 159.42 118.62 158.86 C 117.95 158.29 116.95 158.37 116.39 159.04 L 115.75 159.80 C 115.18 160.46 115.27 161.46 115.93 162.03 C 116.60 162.59 117.60 162.51 118.17 161.84 Z M 118.79 161.11 L 119.44 160.35 C 120.02 159.69 119.95 158.69 119.29 158.12 C 118.63 157.54 117.63 157.61 117.05 158.27 L 116.40 159.03 C 115.82 159.69 115.89 160.69 116.55 161.26 C 117.21 161.84 118.22 161.77 118.79 161.11 Z M 119.43 160.37 L 120.10 159.62 C 120.68 158.97 120.63 157.97 119.98 157.38 C 119.32 156.80 118.32 156.85 117.74 157.51 L 117.07 158.26 C 116.48 158.91 116.54 159.91 117.19 160.50 C 117.84 161.08 118.85 161.02 119.43 160.37 Z M 120.09 159.64 L 120.77 158.89 C 121.37 158.25 121.32 157.24 120.68 156.65 C 120.03 156.06 119.03 156.10 118.44 156.75 L 117.75 157.49 C 117.16 158.14 117.20 159.14 117.85 159.73 C 118.49 160.33 119.49 160.28 120.09 159.64 Z M 120.76 158.91 L 121.46 158.17 C 122.06 157.53 122.03 156.52 121.39 155.92 C 120.76 155.32 119.75 155.35 119.15 155.99 L 118.45 156.73 C 117.85 157.37 117.88 158.37 118.51 158.97 C 119.15 159.57 120.16 159.55 120.76 158.91 Z M 121.44 158.18 L 122.15 157.45 C 122.76 156.82 122.75 155.82 122.12 155.21 C 121.49 154.60 120.48 154.61 119.87 155.24 L 119.17 155.97 C 118.55 156.60 118.57 157.61 119.20 158.22 C 119.83 158.83 120.83 158.81 121.44 158.18 Z M 122.14 157.47 L 122.83 156.77 C 123.45 156.15 123.45 155.14 122.83 154.52 C 122.20 153.90 121.20 153.91 120.58 154.53 L 119.89 155.23 C 119.27 155.85 119.27 156.85 119.89 157.47 C 120.51 158.09 121.52 158.09 122.14 157.47 Z M 122.82 156.78 L 123.53 156.09 C 124.15 155.48 124.16 154.47 123.55 153.84 C 122.94 153.22 121.93 153.21 121.30 153.82 L 120.59 154.51 C 119.97 155.13 119.96 156.13 120.57 156.76 C 121.18 157.39 122.19 157.40 122.82 156.78 Z M 123.51 156.11 L 124.23 155.42 C 124.87 154.81 124.89 153.81 124.29 153.17 C 123.68 152.54 122.67 152.51 122.04 153.12 L 121.32 153.81 C 120.68 154.41 120.66 155.42 121.26 156.05 C 121.87 156.69 122.88 156.71 123.51 156.11 Z M 124.22 155.43 L 124.95 154.75 C 125.59 154.15 125.63 153.15 125.03 152.50 C 124.44 151.86 123.43 151.82 122.78 152.42 L 122.05 153.10 C 121.41 153.70 121.37 154.71 121.97 155.35 C 122.57 156.00 123.57 156.03 124.22 155.43 Z M 124.94 154.77 L 125.68 154.09 C 126.33 153.50 126.38 152.50 125.79 151.85 C 125.20 151.19 124.20 151.14 123.54 151.73 L 122.80 152.41 C 122.15 153.00 122.10 154.00 122.69 154.66 C 123.28 155.31 124.28 155.36 124.94 154.77 Z M 125.67 154.11 L 126.42 153.44 C 127.08 152.86 127.15 151.85 126.56 151.19 C 125.98 150.53 124.98 150.47 124.32 151.05 L 123.56 151.72 C 122.90 152.30 122.84 153.31 123.42 153.97 C 124.00 154.63 125.01 154.69 125.67 154.11 Z M 126.41 153.46 L 127.18 152.80 C 127.84 152.22 127.92 151.22 127.35 150.55 C 126.77 149.88 125.77 149.80 125.10 150.38 L 124.33 151.04 C 123.66 151.61 123.59 152.62 124.16 153.28 C 124.73 153.95 125.74 154.03 126.41 153.46 Z M 127.16 152.81 L 127.93 152.17 C 128.60 151.61 128.69 150.60 128.13 149.93 C 127.56 149.25 126.56 149.16 125.88 149.72 L 125.12 150.36 C 124.44 150.93 124.35 151.93 124.91 152.61 C 125.48 153.29 126.48 153.38 127.16 152.81 Z M 127.91 152.19 L 128.68 151.56 C 129.36 151.01 129.47 150.00 128.91 149.32 C 128.35 148.64 127.35 148.53 126.67 149.09 L 125.90 149.71 C 125.21 150.27 125.11 151.27 125.67 151.95 C 126.22 152.64 127.23 152.74 127.91 152.19 Z M 128.66 151.58 L 129.44 150.96 C 130.13 150.41 130.25 149.41 129.70 148.72 C 129.15 148.03 128.15 147.91 127.46 148.46 L 126.68 149.07 C 125.99 149.62 125.87 150.63 126.42 151.32 C 126.97 152.01 127.97 152.12 128.66 151.58 Z M 129.42 150.97 L 130.21 150.37 C 130.91 149.83 131.04 148.82 130.50 148.13 C 129.96 147.43 128.96 147.30 128.26 147.84 L 127.47 148.45 C 126.77 148.99 126.64 149.99 127.18 150.69 C 127.72 151.39 128.73 151.51 129.42 150.97 Z M 130.20 150.38 L 131.00 149.78 C 131.70 149.25 131.84 148.24 131.31 147.54 C 130.78 146.83 129.78 146.69 129.07 147.22 L 128.27 147.83 C 127.57 148.36 127.43 149.36 127.96 150.06 C 128.49 150.77 129.49 150.91 130.20 150.38 Z M 130.98 149.79 L 131.79 149.19 C 132.50 148.67 132.65 147.67 132.13 146.96 C 131.60 146.24 130.60 146.09 129.89 146.62 L 129.08 147.21 C 128.37 147.74 128.22 148.74 128.75 149.45 C 129.27 150.16 130.27 150.31 130.98 149.79 Z M 131.78 149.20 L 132.60 148.61 C 133.31 148.10 133.48 147.10 132.96 146.38 C 132.44 145.66 131.44 145.50 130.72 146.02 L 129.90 146.61 C 129.19 147.12 129.03 148.12 129.54 148.84 C 130.06 149.56 131.06 149.72 131.78 149.20 Z M 132.58 148.62 L 133.41 148.04 C 134.14 147.53 134.31 146.53 133.80 145.81 C 133.29 145.08 132.29 144.91 131.56 145.42 L 130.74 146.01 C 130.01 146.52 129.84 147.52 130.35 148.24 C 130.86 148.96 131.86 149.13 132.58 148.62 Z M 133.40 148.05 L 134.24 147.46 C 134.97 146.96 135.15 145.96 134.65 145.23 C 134.15 144.51 133.15 144.32 132.42 144.83 L 131.58 145.41 C 130.85 145.92 130.67 146.91 131.17 147.64 C 131.67 148.37 132.67 148.55 133.40 148.05 Z M 134.23 147.47 L 135.08 146.89 C 135.82 146.40 136.01 145.40 135.51 144.67 C 135.01 143.94 134.02 143.74 133.28 144.24 L 132.43 144.82 C 131.70 145.32 131.51 146.31 132.00 147.05 C 132.50 147.78 133.50 147.97 134.23 147.47 Z M 135.07 146.90 L 135.93 146.33 C 136.67 145.84 136.87 144.85 136.38 144.11 C 135.89 143.37 134.89 143.17 134.16 143.66 L 133.30 144.23 C 132.56 144.72 132.36 145.72 132.85 146.45 C 133.34 147.19 134.33 147.39 135.07 146.90 Z M 135.92 146.34 L 136.77 145.79 C 137.52 145.30 137.73 144.31 137.25 143.57 C 136.76 142.82 135.77 142.61 135.03 143.10 L 134.17 143.65 C 133.43 144.14 133.21 145.13 133.70 145.87 C 134.18 146.62 135.17 146.83 135.92 146.34 Z M 136.76 145.80 L 137.61 145.26 C 138.36 144.78 138.58 143.79 138.11 143.04 C 137.64 142.29 136.64 142.07 135.89 142.54 L 135.04 143.09 C 134.29 143.56 134.07 144.55 134.54 145.30 C 135.02 146.05 136.01 146.27 136.76 145.80 Z M 137.60 145.27 L 138.44 144.74 C 139.20 144.28 139.43 143.29 138.97 142.53 C 138.50 141.78 137.51 141.55 136.76 142.01 L 135.91 142.53 C 135.16 143.00 134.92 143.99 135.39 144.74 C 135.85 145.50 136.84 145.73 137.60 145.27 Z M 138.43 144.76 L 139.26 144.26 C 140.02 143.80 140.27 142.81 139.81 142.05 C 139.36 141.29 138.37 141.04 137.61 141.50 L 136.77 142.00 C 136.01 142.46 135.77 143.44 136.22 144.20 C 136.68 144.96 137.67 145.21 138.43 144.76 Z M 139.24 144.27 L 140.06 143.79 C 140.83 143.35 141.09 142.36 140.64 141.60 C 140.20 140.83 139.21 140.57 138.45 141.01 L 137.63 141.49 C 136.86 141.93 136.60 142.92 137.05 143.68 C 137.49 144.45 138.47 144.71 139.24 144.27 Z M 140.04 143.81 L 140.96 143.29 C 141.73 142.86 142.01 141.88 141.58 141.11 C 141.14 140.33 140.17 140.05 139.39 140.49 L 138.47 141.00 C 137.70 141.43 137.42 142.41 137.85 143.19 C 138.28 143.96 139.26 144.24 140.04 143.81 Z M 140.93 143.31 L 141.88 142.81 C 142.66 142.39 142.96 141.42 142.55 140.63 C 142.13 139.85 141.15 139.55 140.37 139.96 L 139.42 140.47 C 138.63 140.89 138.34 141.86 138.75 142.64 C 139.17 143.43 140.14 143.73 140.93 143.31 Z M 141.85 142.82 L 142.77 142.36 C 143.57 141.96 143.89 140.99 143.49 140.20 C 143.09 139.40 142.12 139.08 141.32 139.48 L 140.40 139.95 C 139.61 140.35 139.29 141.32 139.69 142.11 C 140.09 142.90 141.05 143.22 141.85 142.82 Z M 142.74 142.38 L 143.64 141.95 C 144.44 141.56 144.78 140.60 144.40 139.80 C 144.02 138.99 143.06 138.65 142.25 139.04 L 141.35 139.47 C 140.55 139.85 140.21 140.81 140.59 141.61 C 140.98 142.42 141.94 142.76 142.74 142.38 Z M 143.61 141.96 L 144.48 141.57 C 145.30 141.20 145.66 140.25 145.29 139.43 C 144.93 138.62 143.97 138.26 143.16 138.63 L 142.28 139.02 C 141.47 139.39 141.11 140.34 141.48 141.16 C 141.84 141.97 142.80 142.33 143.61 141.96 Z M 144.45 141.58 L 145.31 141.22 C 146.13 140.87 146.51 139.92 146.16 139.10 C 145.81 138.28 144.86 137.90 144.04 138.25 L 143.19 138.61 C 142.37 138.96 141.99 139.91 142.34 140.73 C 142.68 141.55 143.63 141.93 144.45 141.58 Z M 145.28 141.23 L 146.16 140.88 C 146.98 140.55 147.39 139.61 147.05 138.78 C 146.72 137.95 145.78 137.55 144.95 137.88 L 144.07 138.23 C 143.25 138.57 142.84 139.51 143.18 140.33 C 143.51 141.16 144.45 141.57 145.28 141.23 Z M 146.12 140.90 L 147.11 140.52 C 147.95 140.21 148.38 139.28 148.06 138.44 C 147.75 137.61 146.82 137.18 145.98 137.49 L 144.99 137.87 C 144.15 138.18 143.73 139.11 144.04 139.95 C 144.35 140.79 145.28 141.21 146.12 140.90 Z M 147.08 140.54 L 148.05 140.20 C 148.89 139.91 149.34 138.99 149.05 138.15 C 148.76 137.30 147.83 136.85 146.99 137.14 L 146.02 137.48 C 145.17 137.77 144.73 138.69 145.02 139.54 C 145.31 140.38 146.23 140.83 147.08 140.54 Z M 148.01 140.22 L 148.96 139.92 C 149.81 139.65 150.28 138.74 150.01 137.89 C 149.74 137.03 148.83 136.56 147.98 136.83 L 147.03 137.13 C 146.18 137.40 145.70 138.31 145.97 139.16 C 146.24 140.02 147.15 140.49 148.01 140.22 Z M 148.91 139.93 L 149.84 139.67 C 150.70 139.42 151.20 138.53 150.96 137.67 C 150.71 136.80 149.81 136.31 148.95 136.55 L 148.02 136.82 C 147.16 137.06 146.66 137.96 146.91 138.82 C 147.15 139.68 148.05 140.18 148.91 139.93 Z M 149.80 139.68 L 150.70 139.45 C 151.57 139.23 152.10 138.35 151.88 137.48 C 151.66 136.61 150.77 136.09 149.91 136.31 L 149.00 136.54 C 148.13 136.76 147.60 137.64 147.82 138.51 C 148.04 139.38 148.93 139.90 149.80 139.68 Z M 150.65 139.47 L 151.68 139.24 C 152.56 139.05 153.11 138.18 152.92 137.30 C 152.73 136.43 151.86 135.87 150.98 136.07 L 149.96 136.29 C 149.08 136.48 148.52 137.35 148.72 138.23 C 148.91 139.11 149.78 139.66 150.65 139.47 Z M 151.63 139.26 L 152.64 139.07 C 153.53 138.91 154.11 138.06 153.95 137.17 C 153.78 136.28 152.93 135.70 152.05 135.86 L 151.04 136.05 C 150.15 136.21 149.57 137.06 149.73 137.95 C 149.89 138.83 150.74 139.42 151.63 139.26 Z M 152.59 139.08 L 153.57 138.94 C 154.46 138.80 155.08 137.97 154.95 137.08 C 154.81 136.18 153.98 135.57 153.09 135.70 L 152.10 135.85 C 151.21 135.98 150.59 136.81 150.73 137.71 C 150.86 138.60 151.69 139.22 152.59 139.08 Z M 153.52 138.95 L 154.47 138.84 C 155.37 138.73 156.02 137.92 155.91 137.02 C 155.81 136.12 154.99 135.47 154.09 135.58 L 153.14 135.69 C 152.24 135.79 151.59 136.61 151.70 137.51 C 151.80 138.41 152.62 139.05 153.52 138.95 Z M 154.42 138.85 L 155.40 138.77 C 156.30 138.70 156.98 137.90 156.90 136.99 C 156.83 136.09 156.03 135.41 155.13 135.49 L 154.15 135.57 C 153.24 135.64 152.57 136.44 152.64 137.34 C 152.71 138.25 153.51 138.92 154.42 138.85 Z M 155.34 138.78 L 156.37 138.73 C 157.28 138.69 157.99 137.91 157.94 137.00 C 157.90 136.09 157.13 135.38 156.21 135.43 L 155.18 135.48 C 154.27 135.52 153.57 136.29 153.61 137.21 C 153.65 138.12 154.43 138.82 155.34 138.78 Z M 156.32 138.74 L 157.31 138.72 C 158.23 138.71 158.96 137.96 158.95 137.04 C 158.94 136.12 158.18 135.39 157.26 135.40 L 156.27 135.42 C 155.35 135.43 154.62 136.19 154.63 137.10 C 154.65 138.02 155.40 138.75 156.32 138.74 Z M 157.27 138.73 L 158.24 138.74 C 159.16 138.76 159.91 138.02 159.93 137.10 C 159.94 136.18 159.20 135.42 158.28 135.41 L 157.31 135.40 C 156.39 135.39 155.63 136.12 155.62 137.04 C 155.61 137.96 156.35 138.72 157.27 138.73 Z M 158.20 138.75 L 159.18 138.78 C 160.10 138.82 160.87 138.10 160.91 137.17 C 160.94 136.25 160.22 135.47 159.30 135.44 L 158.32 135.41 C 157.40 135.37 156.62 136.09 156.59 137.02 C 156.55 137.94 157.28 138.72 158.20 138.75 Z M 159.12 138.79 L 160.11 138.86 C 161.03 138.92 161.84 138.22 161.90 137.30 C 161.97 136.37 161.27 135.57 160.34 135.51 L 159.35 135.44 C 158.43 135.37 157.63 136.07 157.56 137.00 C 157.50 137.92 158.19 138.72 159.12 138.79 Z M 160.01 138.85 L 160.99 138.98 C 161.92 139.10 162.76 138.45 162.88 137.53 C 163.00 136.61 162.35 135.76 161.43 135.64 L 160.44 135.51 C 159.52 135.39 158.68 136.04 158.56 136.96 C 158.44 137.89 159.09 138.73 160.01 138.85 Z M 160.85 138.96 L 161.84 139.17 C 162.75 139.37 163.65 138.79 163.85 137.88 C 164.04 136.97 163.46 136.07 162.55 135.87 L 161.57 135.66 C 160.66 135.46 159.76 136.04 159.56 136.95 C 159.36 137.86 159.94 138.76 160.85 138.96 Z M 161.67 139.14 L 162.62 139.44 C 163.51 139.73 164.46 139.24 164.75 138.35 C 165.04 137.46 164.55 136.50 163.66 136.22 L 162.71 135.91 C 161.82 135.62 160.87 136.11 160.58 137.00 C 160.29 137.89 160.78 138.85 161.67 139.14 Z M 162.47 139.39 L 163.40 139.79 C 164.26 140.15 165.26 139.75 165.63 138.89 C 166.00 138.03 165.60 137.03 164.73 136.66 L 163.81 136.27 C 162.94 135.90 161.94 136.30 161.58 137.16 C 161.21 138.03 161.61 139.02 162.47 139.39 Z M 163.27 139.73 L 164.17 140.20 C 165.00 140.64 166.03 140.32 166.47 139.49 C 166.91 138.66 166.59 137.63 165.75 137.19 L 164.86 136.72 C 164.03 136.28 163.00 136.60 162.56 137.43 C 162.12 138.26 162.44 139.29 163.27 139.73 Z M 164.05 140.14 L 164.89 140.67 C 165.68 141.17 166.74 140.94 167.24 140.14 C 167.75 139.34 167.51 138.29 166.71 137.78 L 165.87 137.25 C 165.08 136.75 164.02 136.98 163.52 137.78 C 163.01 138.58 163.25 139.63 164.05 140.14 Z M 164.77 140.59 L 165.58 141.20 C 166.33 141.77 167.40 141.63 167.97 140.87 C 168.54 140.12 168.40 139.05 167.64 138.48 L 166.83 137.86 C 166.08 137.29 165.01 137.44 164.44 138.19 C 163.87 138.95 164.01 140.02 164.77 140.59 Z M 165.47 141.12 L 166.21 141.78 C 166.92 142.41 168.00 142.35 168.63 141.64 C 169.26 140.94 169.20 139.85 168.50 139.22 L 167.75 138.56 C 167.05 137.93 165.96 137.99 165.33 138.70 C 164.70 139.41 164.76 140.49 165.47 141.12 Z M 166.13 141.70 L 166.82 142.41 C 167.48 143.09 168.57 143.10 169.24 142.44 C 169.92 141.78 169.94 140.69 169.27 140.01 L 168.58 139.30 C 167.92 138.63 166.83 138.61 166.15 139.27 C 165.48 139.94 165.46 141.02 166.13 141.70 Z M 166.75 142.34 L 167.40 143.09 C 168.03 143.80 169.11 143.87 169.83 143.25 C 170.54 142.62 170.61 141.53 169.99 140.82 L 169.34 140.08 C 168.71 139.36 167.62 139.29 166.91 139.92 C 166.20 140.54 166.13 141.63 166.75 142.34 Z M 167.36 143.03 L 167.97 143.79 C 168.56 144.53 169.65 144.65 170.39 144.05 C 171.13 143.45 171.24 142.37 170.65 141.63 L 170.03 140.87 C 169.44 140.13 168.35 140.02 167.61 140.61 C 166.87 141.21 166.76 142.29 167.36 143.03 Z M 167.92 143.74 L 168.52 144.54 C 169.09 145.30 170.17 145.46 170.93 144.89 C 171.69 144.32 171.85 143.24 171.28 142.48 L 170.69 141.68 C 170.12 140.92 169.04 140.76 168.28 141.33 C 167.52 141.90 167.36 142.98 167.92 143.74 Z M 168.48 144.48 L 169.05 145.32 C 169.59 146.11 170.67 146.31 171.45 145.77 C 172.24 145.23 172.44 144.16 171.90 143.37 L 171.32 142.53 C 170.78 141.75 169.71 141.55 168.93 142.09 C 168.14 142.62 167.94 143.70 168.48 144.48 Z M 169.02 145.27 L 169.55 146.12 C 170.06 146.93 171.13 147.17 171.93 146.66 C 172.74 146.15 172.98 145.08 172.47 144.28 L 171.94 143.43 C 171.43 142.62 170.36 142.38 169.56 142.89 C 168.75 143.40 168.51 144.46 169.02 145.27 Z M 169.52 146.07 L 170.02 146.92 C 170.50 147.74 171.56 148.01 172.38 147.53 C 173.20 147.05 173.48 145.99 173.00 145.17 L 172.50 144.33 C 172.02 143.50 170.96 143.23 170.14 143.71 C 169.32 144.19 169.04 145.25 169.52 146.07 Z M 170.00 146.88 L 170.48 147.75 C 170.94 148.59 171.99 148.89 172.83 148.43 C 173.66 147.97 173.96 146.92 173.50 146.09 L 173.02 145.21 C 172.56 144.38 171.51 144.07 170.67 144.53 C 169.84 144.99 169.54 146.04 170.00 146.88 Z M 170.46 147.72 L 170.93 148.62 C 171.38 149.47 172.42 149.79 173.27 149.35 C 174.11 148.91 174.44 147.86 173.99 147.02 L 173.52 146.12 C 173.08 145.27 172.03 144.95 171.19 145.39 C 170.35 145.83 170.02 146.88 170.46 147.72 Z M 170.92 148.60 L 171.38 149.50 C 171.81 150.35 172.84 150.69 173.70 150.27 C 174.55 149.84 174.89 148.80 174.46 147.95 L 174.01 147.04 C 173.58 146.19 172.54 145.85 171.69 146.28 C 170.84 146.71 170.49 147.75 170.92 148.60 Z M 171.37 149.48 L 171.80 150.36 C 172.21 151.22 173.25 151.57 174.10 151.16 C 174.96 150.74 175.32 149.71 174.90 148.85 L 174.47 147.97 C 174.05 147.11 173.02 146.75 172.16 147.17 C 171.31 147.59 170.95 148.62 171.37 149.48 Z M 171.79 150.33 L 172.21 151.23 C 172.61 152.10 173.64 152.47 174.50 152.07 C 175.36 151.66 175.73 150.64 175.33 149.77 L 174.91 148.88 C 174.51 148.01 173.48 147.64 172.62 148.04 C 171.76 148.45 171.38 149.47 171.79 150.33 Z M 172.19 151.21 L 172.60 152.12 C 172.99 152.99 174.01 153.38 174.88 153.00 C 175.75 152.61 176.14 151.59 175.75 150.72 L 175.34 149.80 C 174.95 148.93 173.94 148.54 173.07 148.93 C 172.20 149.32 171.81 150.34 172.19 151.21 Z M 172.59 152.09 L 172.99 153.04 C 173.36 153.91 174.37 154.32 175.24 153.95 C 176.12 153.58 176.53 152.57 176.16 151.70 L 175.76 150.76 C 175.39 149.88 174.38 149.47 173.51 149.84 C 172.63 150.21 172.22 151.22 172.59 152.09 Z M 172.98 153.00 L 173.34 153.90 C 173.69 154.79 174.69 155.22 175.57 154.87 C 176.45 154.51 176.88 153.51 176.53 152.63 L 176.17 151.73 C 175.82 150.85 174.82 150.42 173.94 150.77 C 173.06 151.12 172.63 152.12 172.98 153.00 Z M 173.32 153.87 L 173.67 154.79 C 174.00 155.68 174.99 156.13 175.88 155.79 C 176.77 155.46 177.22 154.47 176.89 153.58 L 176.54 152.66 C 176.21 151.77 175.22 151.32 174.33 151.66 C 173.44 151.99 172.99 152.98 173.32 153.87 Z M 173.66 154.76 L 173.99 155.70 C 174.31 156.59 175.29 157.06 176.19 156.74 C 177.08 156.42 177.55 155.44 177.23 154.55 L 176.90 153.61 C 176.58 152.71 175.60 152.25 174.70 152.56 C 173.81 152.88 173.34 153.86 173.66 154.76 Z M 173.98 155.67 L 174.31 156.64 C 174.61 157.54 175.59 158.02 176.49 157.72 C 177.39 157.41 177.87 156.44 177.57 155.54 L 177.24 154.57 C 176.94 153.67 175.96 153.19 175.06 153.50 C 174.16 153.80 173.68 154.77 173.98 155.67 Z M 174.30 156.61 L 174.62 157.60 C 174.91 158.51 175.88 159.00 176.78 158.71 C 177.68 158.42 178.18 157.45 177.89 156.55 L 177.57 155.56 C 177.28 154.66 176.32 154.16 175.41 154.45 C 174.51 154.74 174.01 155.71 174.30 156.61 Z M 174.62 157.58 L 174.91 158.52 C 175.18 159.43 176.14 159.94 177.05 159.66 C 177.95 159.38 178.46 158.42 178.18 157.52 L 177.90 156.57 C 177.62 155.67 176.66 155.16 175.75 155.44 C 174.85 155.72 174.34 156.68 174.62 157.58 Z M 174.90 158.50 L 175.18 159.46 C 175.45 160.37 176.40 160.89 177.31 160.62 C 178.22 160.36 178.74 159.40 178.47 158.50 L 178.19 157.54 C 177.92 156.63 176.97 156.11 176.06 156.38 C 175.16 156.64 174.64 157.59 174.90 158.50 Z M 175.18 159.44 L 175.45 160.41 C 175.70 161.32 176.65 161.85 177.56 161.60 C 178.47 161.34 179.00 160.40 178.74 159.49 L 178.47 158.52 C 178.22 157.61 177.28 157.08 176.37 157.33 C 175.46 157.59 174.93 158.53 175.18 159.44 Z M 175.45 160.38 L 175.70 161.36 C 175.94 162.27 176.88 162.81 177.79 162.57 C 178.70 162.33 179.24 161.40 179.00 160.49 L 178.75 159.51 C 178.51 158.60 177.57 158.06 176.66 158.30 C 175.75 158.54 175.21 159.47 175.45 160.38 Z M 175.70 161.33 L 175.94 162.31 C 176.17 163.22 177.09 163.78 178.00 163.55 C 178.92 163.32 179.47 162.40 179.25 161.49 L 179.01 160.51 C 178.78 159.60 177.86 159.04 176.95 159.27 C 176.03 159.50 175.48 160.42 175.70 161.33 Z M 175.94 162.28 L 176.17 163.26 C 176.38 164.18 177.29 164.75 178.20 164.54 C 179.12 164.33 179.69 163.42 179.48 162.50 L 179.25 161.52 C 179.04 160.60 178.13 160.03 177.21 160.24 C 176.30 160.45 175.73 161.36 175.94 162.28 Z M 176.16 163.24 L 176.38 164.22 C 176.57 165.13 177.47 165.72 178.39 165.52 C 179.30 165.32 179.89 164.42 179.69 163.51 L 179.48 162.53 C 179.28 161.61 178.38 161.03 177.47 161.23 C 176.55 161.42 175.97 162.32 176.16 163.24 Z M 176.38 164.20 L 176.57 165.18 C 176.76 166.09 177.65 166.68 178.57 166.50 C 179.48 166.31 180.07 165.42 179.89 164.51 L 179.69 163.53 C 179.50 162.61 178.61 162.02 177.70 162.21 C 176.78 162.39 176.19 163.28 176.38 164.20 Z M 176.58 165.16 L 176.76 166.14 C 176.94 167.05 177.83 167.65 178.74 167.47 C 179.65 167.29 180.25 166.41 180.07 165.50 L 179.88 164.52 C 179.71 163.61 178.82 163.01 177.91 163.19 C 177.00 163.36 176.40 164.25 176.58 165.16 Z M 176.77 166.13 L 176.95 167.10 C 177.12 168.02 178.00 168.62 178.91 168.44 C 179.83 168.27 180.43 167.39 180.25 166.48 L 180.07 165.51 C 179.90 164.59 179.02 163.99 178.11 164.16 C 177.20 164.34 176.60 165.22 176.77 166.13 Z M 176.96 167.10 L 177.14 168.07 C 177.31 168.98 178.18 169.58 179.09 169.41 C 180.00 169.24 180.60 168.37 180.43 167.46 L 180.25 166.49 C 180.08 165.58 179.21 164.98 178.30 165.15 C 177.39 165.32 176.79 166.19 176.96 167.10 Z M 177.14 168.07 L 177.33 169.05 C 177.49 169.95 178.36 170.55 179.27 170.38 C 180.17 170.22 180.77 169.35 180.60 168.44 L 180.42 167.47 C 180.26 166.56 179.39 165.96 178.48 166.13 C 177.58 166.30 176.98 167.16 177.14 168.07 Z M 177.33 169.04 L 177.51 170.03 C 177.67 170.93 178.54 171.52 179.44 171.36 C 180.34 171.20 180.94 170.33 180.78 169.43 L 180.60 168.45 C 180.43 167.55 179.57 166.95 178.67 167.11 C 177.77 167.28 177.17 168.14 177.33 169.04 Z M 177.52 170.02 L 177.69 171.01 C 177.85 171.90 178.71 172.50 179.61 172.34 C 180.51 172.18 181.11 171.33 180.95 170.43 L 180.77 169.44 C 180.61 168.54 179.75 167.94 178.85 168.10 C 177.96 168.26 177.36 169.12 177.52 170.02 Z M 177.70 171.00 L 177.87 171.99 C 178.03 172.88 178.88 173.48 179.77 173.33 C 180.67 173.17 181.27 172.32 181.11 171.43 L 180.94 170.44 C 180.78 169.54 179.93 168.94 179.04 169.10 C 178.14 169.25 177.54 170.10 177.70 171.00 Z M 177.88 171.98 L 178.04 172.97 C 178.19 173.86 179.04 174.46 179.93 174.31 C 180.82 174.16 181.42 173.32 181.27 172.43 L 181.10 171.44 C 180.96 170.55 180.11 169.95 179.22 170.10 C 178.33 170.25 177.73 171.09 177.88 171.98 Z M 178.05 172.96 L 178.21 173.95 C 178.36 174.84 179.19 175.44 180.08 175.30 C 180.97 175.15 181.57 174.32 181.43 173.43 L 181.26 172.44 C 181.12 171.55 180.28 170.95 179.39 171.09 C 178.51 171.24 177.91 172.08 178.05 172.96 Z M 178.22 173.95 L 178.38 174.94 C 178.52 175.82 179.36 176.42 180.24 176.28 C 181.12 176.14 181.72 175.31 181.58 174.42 L 181.42 173.43 C 181.27 172.55 180.44 171.95 179.56 172.09 C 178.68 172.24 178.08 173.07 178.22 173.95 Z M 178.39 174.94 L 178.55 175.93 C 178.69 176.80 179.52 177.40 180.40 177.26 C 181.28 177.11 181.87 176.29 181.73 175.41 L 181.57 174.42 C 181.43 173.55 180.60 172.95 179.72 173.09 C 178.84 173.24 178.25 174.06 178.39 174.94 Z M 178.56 175.93 L 178.72 176.91 C 178.87 177.78 179.69 178.37 180.56 178.23 C 181.44 178.09 182.03 177.26 181.88 176.39 L 181.72 175.41 C 181.57 174.53 180.75 173.95 179.88 174.09 C 179.01 174.23 178.42 175.06 178.56 175.93 Z M 178.73 176.92 L 178.90 177.91 C 179.05 178.77 179.88 179.36 180.74 179.21 C 181.61 179.06 182.19 178.24 182.04 177.37 L 181.87 176.38 C 181.72 175.52 180.90 174.93 180.03 175.08 C 179.17 175.23 178.59 176.05 178.73 176.92 Z M 178.92 177.92 L 179.09 178.91 C 179.25 179.77 180.07 180.34 180.93 180.19 C 181.78 180.03 182.36 179.21 182.20 178.35 L 182.03 177.36 C 181.88 176.50 181.06 175.93 180.20 176.08 C 179.34 176.24 178.76 177.06 178.92 177.92 Z M 179.11 178.91 L 179.28 179.90 C 179.44 180.75 180.26 181.31 181.11 181.16 C 181.96 181.00 182.53 180.19 182.37 179.33 L 182.19 178.35 C 182.04 177.50 181.22 176.93 180.37 177.09 C 179.51 177.24 178.95 178.06 179.11 178.91 Z M 179.30 179.90 L 179.48 180.88 C 179.64 181.72 180.45 182.28 181.30 182.13 C 182.14 181.97 182.70 181.15 182.54 180.31 L 182.36 179.33 C 182.20 178.48 181.39 177.93 180.54 178.08 C 179.70 178.24 179.14 179.05 179.30 179.90 Z M 179.49 180.88 L 179.67 181.86 C 179.83 182.70 180.64 183.25 181.48 183.09 C 182.32 182.93 182.87 182.12 182.71 181.28 L 182.53 180.31 C 182.37 179.47 181.56 178.92 180.72 179.07 C 179.89 179.23 179.33 180.04 179.49 180.88 Z M 179.69 181.86 L 179.87 182.82 C 180.03 183.66 180.83 184.21 181.66 184.05 C 182.50 183.89 183.04 183.09 182.89 182.25 L 182.70 181.28 C 182.55 180.45 181.74 179.90 180.91 180.06 C 180.08 180.22 179.53 181.02 179.69 181.86 Z M 179.88 182.82 L 180.06 183.79 C 180.22 184.62 181.02 185.16 181.85 185.00 C 182.67 184.85 183.22 184.05 183.06 183.22 L 182.88 182.25 C 182.72 181.43 181.92 180.88 181.09 181.04 C 180.27 181.20 179.72 182.00 179.88 182.82 Z M 180.07 183.79 L 180.26 184.76 C 180.42 185.59 181.21 186.12 182.03 185.97 C 182.86 185.81 183.39 185.01 183.24 184.19 L 183.05 183.22 C 182.89 182.40 182.10 181.86 181.28 182.02 C 180.45 182.18 179.92 182.97 180.07 183.79 Z M 180.27 184.77 L 180.46 185.75 C 180.62 186.56 181.41 187.10 182.23 186.94 C 183.04 186.78 183.58 185.99 183.42 185.17 L 183.22 184.19 C 183.07 183.38 182.28 182.84 181.46 183.00 C 180.65 183.16 180.11 183.95 180.27 184.77 Z M 180.48 185.75 L 180.67 186.75 C 180.84 187.56 181.62 188.08 182.43 187.92 C 183.24 187.76 183.76 186.98 183.60 186.17 L 183.40 185.17 C 183.24 184.36 182.46 183.84 181.65 184.00 C 180.84 184.16 180.31 184.94 180.48 185.75 Z M 180.69 186.76 L 180.89 187.75 C 181.05 188.55 181.84 189.07 182.64 188.91 C 183.44 188.74 183.96 187.96 183.80 187.16 L 183.59 186.16 C 183.43 185.36 182.64 184.84 181.84 185.00 C 181.04 185.17 180.52 185.95 180.69 186.76 Z M 180.90 187.76 L 181.11 188.74 C 181.27 189.54 182.06 190.05 182.85 189.88 C 183.65 189.72 184.16 188.93 183.99 188.14 L 183.79 187.15 C 183.62 186.35 182.84 185.84 182.04 186.01 C 181.24 186.18 180.73 186.96 180.90 187.76 Z M 181.11 188.75 L 181.33 189.74 C 181.50 190.53 182.28 191.04 183.07 190.87 C 183.86 190.70 184.37 189.92 184.20 189.12 L 183.99 188.13 C 183.82 187.34 183.03 186.83 182.24 187.00 C 181.45 187.17 180.94 187.96 181.11 188.75 Z M 181.34 189.74 L 181.55 190.73 C 181.72 191.52 182.50 192.02 183.29 191.84 C 184.08 191.67 184.58 190.89 184.41 190.10 L 184.19 189.12 C 184.02 188.33 183.24 187.83 182.45 188.00 C 181.66 188.18 181.16 188.96 181.34 189.74 Z M 181.56 190.73 L 181.78 191.70 C 181.95 192.49 182.73 192.98 183.51 192.81 C 184.29 192.63 184.79 191.86 184.61 191.07 L 184.40 190.10 C 184.22 189.32 183.45 188.82 182.66 189.00 C 181.88 189.17 181.39 189.95 181.56 190.73 Z M 181.78 191.71 L 182.00 192.67 C 182.18 193.45 182.95 193.94 183.73 193.76 C 184.51 193.58 185.00 192.81 184.82 192.03 L 184.61 191.07 C 184.43 190.29 183.66 189.80 182.88 189.98 C 182.10 190.15 181.61 190.93 181.78 191.71 Z M 182.01 192.67 L 182.24 193.68 C 182.42 194.46 183.19 194.94 183.97 194.77 C 184.74 194.59 185.23 193.82 185.05 193.04 L 184.82 192.03 C 184.64 191.25 183.87 190.77 183.09 190.94 C 182.31 191.12 181.83 191.89 182.01 192.67 Z M 182.24 193.69 L 182.47 194.67 C 182.65 195.44 183.43 195.92 184.20 195.74 C 184.97 195.56 185.45 194.79 185.27 194.02 L 185.04 193.04 C 184.86 192.26 184.09 191.78 183.32 191.96 C 182.54 192.14 182.06 192.92 182.24 193.69 Z M 182.48 194.68 L 182.71 195.64 C 182.89 196.41 183.66 196.88 184.43 196.70 C 185.20 196.52 185.68 195.74 185.50 194.97 L 185.27 194.01 C 185.08 193.24 184.31 192.77 183.54 192.95 C 182.77 193.13 182.29 193.91 182.48 194.68 Z M 182.71 195.64 L 182.94 196.59 C 183.13 197.36 183.90 197.83 184.67 197.64 C 185.44 197.45 185.91 196.68 185.72 195.91 L 185.49 194.97 C 185.30 194.20 184.53 193.73 183.76 193.92 C 183.00 194.10 182.53 194.88 182.71 195.64 Z M 182.95 196.60 L 183.18 197.55 C 183.37 198.31 184.15 198.78 184.91 198.59 C 185.68 198.40 186.14 197.62 185.95 196.86 L 185.72 195.91 C 185.53 195.14 184.75 194.68 183.99 194.87 C 183.22 195.06 182.76 195.83 182.95 196.60 Z M 183.19 197.55 L 183.43 198.52 C 183.63 199.29 184.40 199.75 185.17 199.55 C 185.93 199.36 186.39 198.58 186.20 197.82 L 185.95 196.85 C 185.76 196.09 184.98 195.63 184.22 195.82 C 183.45 196.02 182.99 196.79 183.19 197.55 Z M 183.44 198.53 L 183.69 199.50 C 183.88 200.26 184.66 200.72 185.42 200.52 C 186.19 200.32 186.64 199.54 186.45 198.78 L 186.19 197.81 C 186.00 197.05 185.22 196.59 184.46 196.79 C 183.70 196.99 183.24 197.77 183.44 198.53 Z M 183.69 199.50 L 183.94 200.47 C 184.14 201.23 184.92 201.68 185.68 201.48 C 186.44 201.29 186.90 200.51 186.70 199.74 L 186.44 198.78 C 186.25 198.02 185.47 197.56 184.70 197.76 C 183.94 197.96 183.49 198.74 183.69 199.50 Z M 183.94 200.47 L 184.20 201.44 C 184.40 202.20 185.18 202.65 185.94 202.45 C 186.70 202.25 187.16 201.47 186.95 200.71 L 186.70 199.74 C 186.50 198.98 185.72 198.53 184.96 198.73 C 184.20 198.93 183.74 199.71 183.94 200.47 Z M 184.20 201.44 L 184.27 201.71 C 184.47 202.47 185.25 202.92 186.01 202.72 C 186.77 202.52 187.23 201.74 187.02 200.98 L 186.95 200.71 C 186.75 199.95 185.97 199.50 185.21 199.70 C 184.45 199.90 184.00 200.68 184.20 201.44 Z"
      fill="black"
      fill-rule="nonzero" /></svg>