<svg xmlns="http://www.w3.org/2000/svg" width="300" height="300" viewBox="0 0 300 300">
<path d="M 144.68 121.36 L 144.17 120.33 C 143.76 119.50 142.76 119.16 141.94 119.57 C 141.11 119.97 140.77 120.97 141.18 121.80 L 141.68 122.83 C 142.09 123.66 143.09 124.00 143.92 123.60 C 144.74 123.19 145.08 122.19 144.68 121.36 Z M 144.21 120.39 L 143.77 119.38 C 143.39 118.53 142.40 118.14 141.55 118.52 C 140.70 118.89 140.32 119.88 140.69 120.73 L 141.13 121.74 C 141.51 122.59 142.50 122.98 143.35 122.60 C 144.20 122.23 144.59 121.24 144.21 120.39 Z M 143.84 119.53 L 143.53 118.58 C 143.24 117.69 142.28 117.20 141.39 117.49 C 140.50 117.78 140.02 118.74 140.31 119.63 L 140.62 120.58 C 140.91 121.47 141.87 121.96 142.76 121.67 C 143.65 121.38 144.13 120.42 143.84 119.53 Z M 143.61 118.88 L 143.49 118.00 C 143.37 117.07 142.51 116.41 141.58 116.54 C 140.64 116.66 139.98 117.52 140.11 118.46 L 140.22 119.33 C 140.35 120.26 141.21 120.92 142.14 120.80 C 143.08 120.67 143.73 119.81 143.61 118.88 Z M 143.49 118.56 L 143.64 117.78 C 143.82 116.85 143.21 115.94 142.28 115.77 C 141.34 115.59 140.44 116.20 140.26 117.13 L 140.11 117.90 C 139.93 118.84 140.54 119.74 141.48 119.92 C 142.41 120.10 143.31 119.49 143.49 118.56 Z M 143.35 118.45 L 143.85 117.76 C 144.40 116.98 144.22 115.91 143.44 115.36 C 142.67 114.80 141.59 114.99 141.04 115.76 L 140.55 116.46 C 140.00 117.23 140.18 118.31 140.95 118.86 C 141.73 119.41 142.80 119.23 143.35 118.45 Z M 143.47 118.13 L 144.23 117.56 C 144.99 116.99 145.15 115.92 144.58 115.16 C 144.01 114.40 142.94 114.25 142.18 114.81 L 141.42 115.39 C 140.66 115.95 140.50 117.03 141.07 117.79 C 141.64 118.54 142.71 118.70 143.47 118.13 Z M 143.97 117.72 L 144.91 117.24 C 145.76 116.82 146.10 115.79 145.67 114.95 C 145.25 114.11 144.22 113.77 143.38 114.19 L 142.44 114.66 C 141.60 115.08 141.26 116.11 141.68 116.95 C 142.10 117.80 143.13 118.14 143.97 117.72 Z M 144.76 117.30 L 145.79 116.91 C 146.66 116.56 147.10 115.58 146.76 114.70 C 146.42 113.83 145.43 113.39 144.55 113.73 L 143.53 114.13 C 142.65 114.47 142.22 115.46 142.56 116.33 C 142.90 117.21 143.89 117.64 144.76 117.30 Z M 145.72 116.92 L 146.68 116.59 C 147.56 116.29 148.03 115.33 147.73 114.44 C 147.43 113.56 146.47 113.09 145.58 113.39 L 144.62 113.72 C 143.74 114.02 143.27 114.98 143.57 115.87 C 143.87 116.75 144.84 117.22 145.72 116.92 Z M 146.64 116.58 L 147.56 116.29 C 148.44 116.01 148.92 115.07 148.64 114.19 C 148.37 113.31 147.43 112.83 146.55 113.11 L 145.63 113.40 C 144.75 113.68 144.26 114.62 144.54 115.50 C 144.82 116.37 145.76 116.86 146.64 116.58 Z M 147.52 116.28 L 148.45 116.00 C 149.33 115.74 149.82 114.83 149.57 113.96 C 149.31 113.08 148.39 112.59 147.52 112.84 L 146.59 113.12 C 145.72 113.38 145.22 114.29 145.48 115.16 C 145.73 116.03 146.65 116.53 147.52 116.28 Z M 148.42 115.99 L 149.39 115.72 C 150.25 115.48 150.76 114.59 150.52 113.72 C 150.28 112.86 149.39 112.35 148.52 112.59 L 147.56 112.86 C 146.69 113.10 146.18 113.99 146.42 114.85 C 146.66 115.72 147.56 116.23 148.42 115.99 Z M 149.36 115.70 L 150.38 115.43 C 151.24 115.21 151.75 114.33 151.52 113.48 C 151.30 112.62 150.42 112.11 149.57 112.34 L 148.55 112.61 C 147.69 112.83 147.18 113.71 147.41 114.56 C 147.63 115.42 148.51 115.93 149.36 115.70 Z M 150.36 115.42 L 151.31 115.18 C 152.16 114.96 152.67 114.10 152.46 113.26 C 152.24 112.41 151.38 111.90 150.54 112.11 L 149.59 112.35 C 148.74 112.57 148.23 113.43 148.44 114.27 C 148.66 115.12 149.52 115.63 150.36 115.42 Z M 151.30 115.17 L 152.27 114.93 C 153.11 114.72 153.62 113.87 153.42 113.04 C 153.21 112.20 152.37 111.68 151.53 111.89 L 150.55 112.12 C 149.71 112.33 149.20 113.18 149.40 114.02 C 149.61 114.86 150.46 115.37 151.30 115.17 Z M 152.25 114.92 L 153.25 114.68 C 154.08 114.49 154.60 113.65 154.40 112.82 C 154.21 111.99 153.38 111.47 152.54 111.67 L 151.55 111.90 C 150.71 112.09 150.20 112.93 150.39 113.76 C 150.58 114.59 151.42 115.11 152.25 114.92 Z M 153.23 114.67 L 154.22 114.45 C 155.05 114.27 155.58 113.45 155.39 112.62 C 155.21 111.80 154.39 111.27 153.57 111.46 L 152.57 111.68 C 151.74 111.86 151.22 112.68 151.40 113.50 C 151.58 114.33 152.40 114.85 153.23 114.67 Z M 154.20 114.44 L 155.18 114.24 C 156.00 114.08 156.53 113.27 156.37 112.45 C 156.20 111.63 155.40 111.10 154.58 111.27 L 153.59 111.47 C 152.77 111.63 152.24 112.43 152.41 113.26 C 152.57 114.08 153.38 114.61 154.20 114.44 Z M 155.15 114.23 L 156.13 114.05 C 156.95 113.91 157.49 113.12 157.34 112.31 C 157.20 111.49 156.41 110.95 155.60 111.10 L 154.61 111.28 C 153.79 111.42 153.25 112.21 153.40 113.02 C 153.55 113.84 154.33 114.38 155.15 114.23 Z M 156.09 114.05 L 157.15 113.88 C 157.96 113.76 158.52 113.00 158.39 112.19 C 158.27 111.37 157.51 110.82 156.70 110.94 L 155.64 111.10 C 154.83 111.23 154.27 111.99 154.39 112.80 C 154.52 113.61 155.28 114.17 156.09 114.05 Z M 157.11 113.87 L 158.11 113.75 C 158.92 113.64 159.49 112.91 159.39 112.10 C 159.29 111.29 158.55 110.72 157.74 110.82 L 156.73 110.95 C 155.93 111.05 155.36 111.79 155.46 112.60 C 155.56 113.41 156.30 113.98 157.11 113.87 Z M 158.08 113.74 L 159.05 113.63 C 159.85 113.55 160.43 112.83 160.35 112.03 C 160.26 111.22 159.54 110.64 158.74 110.73 L 157.77 110.83 C 156.97 110.92 156.39 111.64 156.48 112.44 C 156.56 113.24 157.28 113.82 158.08 113.74 Z M 159.03 113.62 L 159.98 113.53 C 160.77 113.46 161.35 112.75 161.28 111.96 C 161.21 111.16 160.50 110.58 159.71 110.65 L 158.76 110.74 C 157.97 110.82 157.38 111.52 157.46 112.32 C 157.53 113.11 158.24 113.69 159.03 113.62 Z M 159.97 113.52 L 160.51 113.47 C 161.29 113.40 161.88 112.71 161.81 111.92 C 161.74 111.13 161.04 110.55 160.25 110.62 L 159.72 110.67 C 158.93 110.73 158.34 111.43 158.41 112.22 C 158.48 113.01 159.18 113.59 159.97 113.52 Z"
      fill="black"
      fill-rule="nonzero" /><path d="M 125.36 139.04 L 124.03 138.79 C 123.16 138.62 122.32 139.19 122.15 140.06 C 121.98 140.93 122.55 141.77 123.42 141.94 L 124.75 142.19 C 125.62 142.36 126.46 141.79 126.63 140.92 C 126.80 140.05 126.23 139.21 125.36 139.04 Z M 124.06 138.75 L 122.84 138.49 C 121.94 138.31 121.07 138.88 120.89 139.78 C 120.70 140.67 121.28 141.54 122.17 141.73 L 123.39 141.98 C 124.28 142.16 125.16 141.59 125.34 140.70 C 125.53 139.80 124.95 138.93 124.06 138.75 Z M 122.90 138.46 L 121.90 138.22 C 120.99 138.00 120.07 138.56 119.85 139.47 C 119.63 140.38 120.19 141.30 121.10 141.52 L 122.11 141.76 C 123.02 141.98 123.93 141.42 124.15 140.51 C 124.37 139.60 123.81 138.68 122.90 138.46 Z M 122.05 138.22 L 121.38 137.99 C 120.47 137.68 119.48 138.18 119.17 139.09 C 118.87 140.00 119.36 140.99 120.27 141.30 L 120.95 141.52 C 121.86 141.83 122.85 141.33 123.15 140.42 C 123.46 139.51 122.97 138.52 122.05 138.22 Z M 122.10 138.40 L 121.87 138.16 C 121.19 137.46 120.06 137.44 119.35 138.13 C 118.65 138.82 118.63 139.95 119.32 140.65 L 119.55 140.89 C 120.24 141.59 121.37 141.61 122.07 140.92 C 122.78 140.23 122.79 139.10 122.10 138.40 Z M 121.37 141.04 L 121.89 140.79 C 122.79 140.37 123.18 139.29 122.75 138.39 C 122.32 137.49 121.24 137.10 120.34 137.53 L 119.82 137.78 C 118.92 138.20 118.54 139.28 118.96 140.18 C 119.39 141.08 120.47 141.47 121.37 141.04 Z M 121.45 140.95 L 122.58 140.74 C 123.57 140.55 124.22 139.60 124.03 138.61 C 123.85 137.63 122.90 136.98 121.91 137.16 L 120.78 137.37 C 119.79 137.56 119.14 138.51 119.33 139.50 C 119.51 140.49 120.46 141.14 121.45 140.95 Z M 122.48 140.77 L 123.85 140.59 C 124.85 140.45 125.56 139.53 125.43 138.53 C 125.29 137.53 124.37 136.82 123.37 136.95 L 122.01 137.13 C 121.00 137.27 120.30 138.19 120.43 139.19 C 120.56 140.19 121.48 140.90 122.48 140.77 Z M 123.82 140.60 L 124.86 140.47 C 125.86 140.36 126.58 139.44 126.47 138.43 C 126.35 137.43 125.43 136.70 124.43 136.82 L 123.40 136.94 C 122.39 137.06 121.67 137.98 121.78 138.98 C 121.90 139.99 122.82 140.71 123.82 140.60 Z M 124.84 140.48 L 125.87 140.36 C 126.88 140.25 127.61 139.34 127.50 138.33 C 127.39 137.32 126.48 136.60 125.47 136.71 L 124.44 136.82 C 123.43 136.93 122.70 137.84 122.81 138.85 C 122.92 139.86 123.83 140.59 124.84 140.48 Z M 125.86 140.36 L 126.87 140.26 C 127.88 140.15 128.61 139.25 128.51 138.24 C 128.40 137.23 127.50 136.49 126.49 136.60 L 125.48 136.71 C 124.47 136.81 123.74 137.72 123.84 138.73 C 123.95 139.74 124.85 140.47 125.86 140.36 Z M 126.86 140.26 L 127.82 140.16 C 128.83 140.06 129.57 139.16 129.47 138.15 C 129.37 137.14 128.47 136.40 127.45 136.50 L 126.50 136.60 C 125.48 136.70 124.75 137.60 124.85 138.61 C 124.95 139.62 125.85 140.36 126.86 140.26 Z M 127.81 140.17 L 128.81 140.07 C 129.82 139.97 130.57 139.08 130.47 138.06 C 130.37 137.05 129.47 136.31 128.46 136.41 L 127.46 136.50 C 126.45 136.60 125.71 137.50 125.80 138.51 C 125.90 139.52 126.80 140.26 127.81 140.17 Z M 128.80 140.07 L 129.85 139.98 C 130.87 139.89 131.61 138.99 131.52 137.98 C 131.43 136.96 130.53 136.22 129.52 136.31 L 128.47 136.40 C 127.46 136.50 126.71 137.39 126.80 138.40 C 126.90 139.42 127.79 140.16 128.80 140.07 Z M 129.84 139.98 L 130.81 139.90 C 131.82 139.81 132.57 138.92 132.48 137.90 C 132.40 136.89 131.51 136.14 130.49 136.23 L 129.53 136.31 C 128.52 136.40 127.77 137.29 127.85 138.30 C 127.94 139.31 128.83 140.06 129.84 139.98 Z M 130.80 139.90 L 131.73 139.82 C 132.74 139.74 133.50 138.85 133.41 137.84 C 133.33 136.82 132.44 136.07 131.43 136.15 L 130.50 136.23 C 129.49 136.31 128.73 137.20 128.81 138.21 C 128.90 139.22 129.79 139.98 130.80 139.90 Z M 131.72 139.82 L 132.69 139.74 C 133.70 139.66 134.46 138.78 134.38 137.76 C 134.30 136.75 133.41 135.99 132.40 136.07 L 131.43 136.15 C 130.42 136.23 129.66 137.12 129.74 138.13 C 129.82 139.15 130.71 139.90 131.72 139.82 Z M 132.69 139.74 L 133.68 139.66 C 134.70 139.58 135.45 138.69 135.37 137.68 C 135.29 136.67 134.40 135.91 133.39 135.99 L 132.40 136.07 C 131.38 136.15 130.63 137.04 130.71 138.06 C 130.79 139.07 131.68 139.83 132.69 139.74 Z M 133.69 139.66 L 134.70 139.58 C 135.71 139.49 136.47 138.60 136.38 137.58 C 136.29 136.57 135.40 135.82 134.39 135.91 L 133.38 135.99 C 132.36 136.08 131.61 136.97 131.70 137.98 C 131.79 139.00 132.68 139.75 133.69 139.66 Z M 134.71 139.58 L 135.72 139.48 C 136.73 139.39 137.47 138.49 137.38 137.48 C 137.28 136.46 136.39 135.72 135.37 135.81 L 134.37 135.91 C 133.36 136.00 132.62 136.90 132.71 137.91 C 132.80 138.93 133.70 139.67 134.71 139.58 Z M 135.73 139.48 L 136.72 139.38 C 137.73 139.28 138.46 138.38 138.36 137.37 C 138.26 136.35 137.36 135.62 136.35 135.72 L 135.36 135.82 C 134.35 135.92 133.61 136.82 133.71 137.83 C 133.81 138.84 134.72 139.58 135.73 139.48 Z M 136.72 139.38 L 137.71 139.28 C 138.72 139.18 139.46 138.27 139.36 137.26 C 139.26 136.25 138.35 135.51 137.34 135.62 L 136.35 135.72 C 135.33 135.82 134.60 136.72 134.70 137.73 C 134.80 138.75 135.71 139.48 136.72 139.38 Z M 137.71 139.28 L 138.71 139.18 C 139.72 139.08 140.46 138.18 140.37 137.17 C 140.27 136.16 139.37 135.42 138.36 135.52 L 137.35 135.62 C 136.34 135.71 135.60 136.61 135.70 137.63 C 135.79 138.64 136.69 139.38 137.71 139.28 Z M 138.70 139.18 L 139.68 139.10 C 140.69 139.01 141.44 138.11 141.35 137.10 C 141.26 136.09 140.37 135.34 139.36 135.43 L 138.37 135.52 C 137.36 135.61 136.61 136.50 136.70 137.51 C 136.79 138.52 137.68 139.27 138.70 139.18 Z M 139.67 139.10 L 140.66 139.01 C 141.67 138.93 142.42 138.05 142.34 137.03 C 142.25 136.02 141.37 135.27 140.36 135.35 L 139.37 135.43 C 138.36 135.51 137.60 136.40 137.69 137.41 C 137.77 138.42 138.66 139.18 139.67 139.10 Z M 140.65 139.01 L 141.65 138.93 C 142.67 138.85 143.42 137.97 143.34 136.96 C 143.26 135.95 142.37 135.19 141.36 135.27 L 140.36 135.35 C 139.35 135.43 138.59 136.32 138.68 137.33 C 138.76 138.34 139.64 139.09 140.65 139.01 Z M 141.66 138.93 L 142.68 138.85 C 143.69 138.76 144.44 137.87 144.35 136.86 C 144.27 135.86 143.38 135.10 142.37 135.19 L 141.35 135.27 C 140.34 135.36 139.59 136.25 139.68 137.26 C 139.76 138.27 140.65 139.02 141.66 138.93 Z M 142.69 138.84 L 143.69 138.75 C 144.69 138.66 145.44 137.77 145.35 136.76 C 145.25 135.76 144.36 135.01 143.36 135.10 L 142.36 135.19 C 141.35 135.28 140.61 136.17 140.70 137.18 C 140.79 138.19 141.68 138.93 142.69 138.84 Z M 143.70 138.75 L 144.70 138.65 C 145.70 138.55 146.44 137.66 146.34 136.66 C 146.25 135.65 145.35 134.92 144.35 135.01 L 143.35 135.11 C 142.34 135.20 141.60 136.10 141.70 137.10 C 141.80 138.11 142.69 138.84 143.70 138.75 Z M 144.71 138.65 L 145.70 138.55 C 146.70 138.44 147.44 137.55 147.33 136.55 C 147.23 135.55 146.34 134.82 145.34 134.92 L 144.34 135.02 C 143.34 135.12 142.61 136.01 142.71 137.01 C 142.81 138.02 143.70 138.75 144.71 138.65 Z M 145.71 138.54 L 146.70 138.44 C 147.70 138.33 148.43 137.44 148.32 136.44 C 148.22 135.44 147.32 134.71 146.32 134.82 L 145.33 134.92 C 144.33 135.03 143.61 135.92 143.71 136.92 C 143.81 137.92 144.71 138.64 145.71 138.54 Z M 146.70 138.43 L 147.72 138.32 C 148.71 138.22 149.43 137.32 149.33 136.33 C 149.22 135.33 148.33 134.61 147.33 134.72 L 146.32 134.82 C 145.32 134.93 144.60 135.82 144.71 136.82 C 144.81 137.82 145.71 138.54 146.70 138.43 Z M 147.72 138.32 L 148.71 138.21 C 149.70 138.10 150.42 137.21 150.31 136.21 C 150.20 135.22 149.31 134.50 148.32 134.61 L 147.33 134.72 C 146.33 134.83 145.62 135.72 145.73 136.72 C 145.83 137.71 146.73 138.43 147.72 138.32 Z M 148.71 138.20 L 149.69 138.09 C 150.68 137.98 151.40 137.09 151.29 136.10 C 151.18 135.11 150.29 134.40 149.30 134.51 L 148.32 134.62 C 147.33 134.73 146.61 135.62 146.72 136.61 C 146.83 137.60 147.72 138.31 148.71 138.20 Z M 149.69 138.09 L 150.67 137.98 C 151.66 137.87 152.37 136.98 152.26 136.00 C 152.15 135.01 151.26 134.30 150.28 134.41 L 149.30 134.52 C 148.31 134.63 147.60 135.51 147.71 136.50 C 147.82 137.49 148.71 138.20 149.69 138.09 Z M 150.67 137.97 L 151.66 137.86 C 152.64 137.75 153.35 136.87 153.24 135.89 C 153.13 134.90 152.24 134.20 151.26 134.31 L 150.28 134.41 C 149.29 134.52 148.59 135.41 148.70 136.39 C 148.80 137.37 149.69 138.08 150.67 137.97 Z M 151.65 137.86 L 152.65 137.75 C 153.63 137.64 154.33 136.76 154.22 135.78 C 154.12 134.80 153.24 134.10 152.26 134.20 L 151.26 134.31 C 150.29 134.42 149.58 135.30 149.69 136.28 C 149.80 137.26 150.68 137.96 151.65 137.86 Z M 152.64 137.74 L 153.65 137.63 C 154.63 137.53 155.33 136.65 155.23 135.68 C 155.12 134.70 154.24 134.00 153.27 134.10 L 152.26 134.21 C 151.29 134.32 150.58 135.19 150.69 136.17 C 150.79 137.14 151.67 137.85 152.64 137.74 Z M 153.65 137.62 L 154.63 137.52 C 155.60 137.42 156.30 136.55 156.20 135.58 C 156.09 134.61 155.22 133.90 154.25 134.01 L 153.27 134.11 C 152.30 134.21 151.60 135.08 151.70 136.05 C 151.81 137.02 152.68 137.73 153.65 137.62 Z M 154.62 137.51 L 155.61 137.41 C 156.58 137.31 157.28 136.44 157.18 135.48 C 157.08 134.51 156.21 133.81 155.24 133.91 L 154.26 134.01 C 153.29 134.11 152.59 134.98 152.69 135.95 C 152.79 136.91 153.66 137.61 154.62 137.51 Z M 155.61 137.40 L 156.61 137.30 C 157.57 137.20 158.27 136.34 158.17 135.38 C 158.07 134.41 157.21 133.72 156.25 133.81 L 155.25 133.92 C 154.29 134.02 153.59 134.88 153.69 135.84 C 153.79 136.80 154.65 137.50 155.61 137.40 Z M 156.61 137.29 L 157.62 137.19 C 158.57 137.09 159.27 136.23 159.17 135.28 C 159.08 134.32 158.22 133.62 157.26 133.72 L 156.25 133.82 C 155.30 133.92 154.60 134.78 154.70 135.73 C 154.79 136.69 155.65 137.39 156.61 137.29 Z M 157.62 137.18 L 158.61 137.07 C 159.56 136.98 160.25 136.13 160.16 135.18 C 160.06 134.23 159.21 133.53 158.26 133.63 L 157.27 133.73 C 156.31 133.82 155.62 134.67 155.72 135.63 C 155.81 136.58 156.66 137.27 157.62 137.18 Z M 158.61 137.06 L 159.60 136.96 C 160.55 136.87 161.24 136.02 161.14 135.08 C 161.05 134.13 160.20 133.44 159.26 133.54 L 158.26 133.64 C 157.32 133.73 156.63 134.58 156.72 135.52 C 156.82 136.47 157.66 137.16 158.61 137.06 Z M 159.60 136.95 L 160.60 136.85 C 161.54 136.76 162.23 135.92 162.13 134.98 C 162.04 134.04 161.20 133.35 160.26 133.45 L 159.26 133.55 C 158.32 133.64 157.63 134.48 157.73 135.42 C 157.82 136.36 158.66 137.05 159.60 136.95 Z M 160.60 136.84 L 161.59 136.74 C 162.53 136.65 163.21 135.81 163.11 134.88 C 163.02 133.94 162.18 133.26 161.25 133.36 L 160.26 133.46 C 159.32 133.55 158.64 134.39 158.74 135.32 C 158.83 136.26 159.67 136.94 160.60 136.84 Z M 161.59 136.73 L 162.57 136.63 C 163.50 136.53 164.18 135.70 164.08 134.78 C 163.98 133.85 163.15 133.17 162.23 133.27 L 161.25 133.37 C 160.32 133.47 159.64 134.29 159.74 135.22 C 159.83 136.15 160.66 136.83 161.59 136.73 Z M 162.58 136.62 L 163.56 136.51 C 164.48 136.41 165.15 135.58 165.05 134.66 C 164.95 133.74 164.12 133.08 163.20 133.17 L 162.22 133.28 C 161.30 133.38 160.63 134.21 160.73 135.13 C 160.83 136.05 161.66 136.72 162.58 136.62 Z M 163.57 136.50 L 164.57 136.38 C 165.49 136.28 166.14 135.45 166.04 134.54 C 165.93 133.62 165.10 132.97 164.19 133.07 L 163.19 133.19 C 162.28 133.29 161.62 134.12 161.73 135.03 C 161.83 135.95 162.66 136.60 163.57 136.50 Z M 164.59 136.37 L 165.60 136.24 C 166.51 136.13 167.15 135.30 167.04 134.40 C 166.92 133.49 166.10 132.85 165.19 132.96 L 164.17 133.09 C 163.27 133.20 162.62 134.03 162.74 134.93 C 162.85 135.84 163.68 136.48 164.59 136.37 Z M 165.61 136.23 L 166.61 136.10 C 167.51 135.97 168.14 135.15 168.02 134.25 C 167.90 133.35 167.07 132.72 166.17 132.84 L 165.17 132.97 C 164.27 133.09 163.64 133.92 163.77 134.82 C 163.89 135.72 164.71 136.35 165.61 136.23 Z M 166.62 136.08 L 167.62 135.94 C 168.51 135.82 169.14 134.99 169.01 134.10 C 168.88 133.21 168.06 132.58 167.17 132.71 L 166.16 132.85 C 165.27 132.98 164.65 133.80 164.77 134.69 C 164.90 135.59 165.72 136.21 166.62 136.08 Z M 167.62 135.93 L 168.62 135.79 C 169.50 135.66 170.12 134.84 169.99 133.96 C 169.87 133.07 169.05 132.45 168.16 132.58 L 167.17 132.72 C 166.28 132.85 165.66 133.67 165.79 134.55 C 165.91 135.44 166.73 136.06 167.62 135.93 Z M 168.61 135.78 L 169.58 135.65 C 170.46 135.52 171.07 134.71 170.95 133.83 C 170.83 132.95 170.02 132.34 169.14 132.46 L 168.17 132.59 C 167.29 132.71 166.67 133.52 166.80 134.40 C 166.92 135.28 167.73 135.90 168.61 135.78 Z M 169.56 135.64 L 170.62 135.50 C 171.49 135.39 172.11 134.59 171.99 133.71 C 171.88 132.84 171.08 132.22 170.21 132.33 L 169.15 132.47 C 168.28 132.58 167.66 133.38 167.77 134.26 C 167.89 135.13 168.69 135.75 169.56 135.64 Z M 170.61 135.49 L 171.61 135.36 C 172.48 135.26 173.09 134.46 172.99 133.60 C 172.88 132.73 172.09 132.11 171.22 132.22 L 170.22 132.34 C 169.35 132.45 168.73 133.24 168.84 134.11 C 168.95 134.98 169.74 135.60 170.61 135.49 Z M 171.61 135.35 L 172.57 135.23 C 173.43 135.12 174.04 134.34 173.93 133.48 C 173.83 132.61 173.04 132.00 172.18 132.11 L 171.22 132.23 C 170.36 132.34 169.75 133.13 169.86 133.99 C 169.96 134.85 170.75 135.46 171.61 135.35 Z M 172.58 135.21 L 173.51 135.09 C 174.37 134.97 174.96 134.19 174.85 133.34 C 174.73 132.48 173.95 131.89 173.10 132.00 L 172.17 132.13 C 171.31 132.24 170.72 133.03 170.83 133.88 C 170.95 134.73 171.73 135.33 172.58 135.21 Z M 173.53 135.07 L 174.46 134.94 C 175.30 134.81 175.89 134.02 175.76 133.18 C 175.63 132.33 174.85 131.75 174.00 131.88 L 173.08 132.02 C 172.23 132.14 171.65 132.93 171.78 133.77 C 171.90 134.62 172.69 135.20 173.53 135.07 Z M 174.48 134.92 L 175.44 134.76 C 176.27 134.63 176.84 133.84 176.71 133.01 C 176.57 132.17 175.79 131.60 174.95 131.74 L 173.99 131.89 C 173.15 132.03 172.58 132.82 172.72 133.65 C 172.85 134.49 173.64 135.06 174.48 134.92 Z M 175.45 134.75 L 176.50 134.57 C 177.33 134.43 177.88 133.64 177.74 132.82 C 177.60 131.99 176.81 131.43 175.99 131.57 L 174.94 131.75 C 174.11 131.89 173.56 132.68 173.70 133.51 C 173.84 134.33 174.62 134.89 175.45 134.75 Z M 176.50 134.56 L 177.48 134.39 C 178.31 134.24 178.85 133.46 178.71 132.64 C 178.57 131.82 177.78 131.27 176.96 131.41 L 175.98 131.59 C 175.16 131.73 174.61 132.51 174.76 133.33 C 174.90 134.15 175.68 134.70 176.50 134.56 Z M 177.49 134.38 L 178.46 134.20 C 179.28 134.06 179.82 133.28 179.67 132.46 C 179.53 131.65 178.75 131.10 177.93 131.25 L 176.96 131.42 C 176.14 131.57 175.60 132.35 175.75 133.17 C 175.89 133.98 176.67 134.52 177.49 134.38 Z M 178.47 134.19 L 179.48 134.00 C 180.29 133.85 180.82 133.07 180.67 132.26 C 180.52 131.45 179.74 130.92 178.93 131.07 L 177.92 131.26 C 177.11 131.41 176.58 132.19 176.73 133.00 C 176.88 133.81 177.66 134.34 178.47 134.19 Z M 179.49 133.99 L 180.50 133.79 C 181.31 133.63 181.83 132.85 181.67 132.05 C 181.51 131.25 180.73 130.72 179.93 130.88 L 178.92 131.08 C 178.11 131.24 177.59 132.02 177.75 132.82 C 177.91 133.63 178.69 134.15 179.49 133.99 Z M 180.52 133.78 L 181.50 133.57 C 182.30 133.40 182.81 132.62 182.64 131.82 C 182.47 131.03 181.69 130.52 180.89 130.69 L 179.91 130.89 C 179.11 131.06 178.60 131.85 178.77 132.64 C 178.94 133.44 179.72 133.95 180.52 133.78 Z M 181.53 133.56 L 182.57 133.32 C 183.36 133.14 183.85 132.35 183.67 131.56 C 183.48 130.77 182.70 130.28 181.91 130.46 L 180.87 130.70 C 180.08 130.88 179.59 131.67 179.77 132.46 C 179.95 133.25 180.74 133.74 181.53 133.56 Z M 182.59 133.30 L 183.57 133.06 C 184.35 132.86 184.83 132.07 184.63 131.29 C 184.44 130.51 183.64 130.04 182.86 130.23 L 181.88 130.48 C 181.10 130.67 180.63 131.46 180.83 132.24 C 181.02 133.02 181.81 133.50 182.59 133.30 Z M 183.59 133.04 L 184.53 132.79 C 185.30 132.59 185.76 131.79 185.56 131.02 C 185.35 130.25 184.56 129.79 183.79 130.00 L 182.85 130.25 C 182.08 130.45 181.62 131.24 181.82 132.01 C 182.03 132.79 182.82 133.25 183.59 133.04 Z M 184.54 132.78 L 185.46 132.53 C 186.23 132.32 186.68 131.53 186.47 130.76 C 186.26 130.00 185.47 129.55 184.70 129.76 L 183.78 130.01 C 183.02 130.22 182.57 131.01 182.78 131.77 C 182.99 132.54 183.78 132.99 184.54 132.78 Z M 185.46 132.52 L 185.63 132.47 C 186.39 132.26 186.84 131.48 186.63 130.71 C 186.42 129.95 185.63 129.51 184.87 129.72 L 184.70 129.76 C 183.94 129.97 183.49 130.76 183.70 131.52 C 183.91 132.28 184.70 132.73 185.46 132.52 Z"
      fill="black"
      fill-rule="nonzero" /><path d="M 149.94 136.06 L 149.91 136.90 C 149.88 137.76 150.56 138.49 151.43 138.53 C 152.30 138.56 153.03 137.88 153.06 137.01 L 153.09 136.18 C 153.12 135.31 152.44 134.58 151.57 134.55 C 150.70 134.52 149.97 135.20 149.94 136.06 Z M 149.86 136.91 L 149.84 137.81 C 149.82 138.70 150.53 139.44 151.43 139.47 C 152.32 139.49 153.06 138.78 153.09 137.88 L 153.11 136.99 C 153.13 136.10 152.42 135.35 151.52 135.33 C 150.63 135.31 149.89 136.02 149.86 136.91 Z M 149.80 137.84 L 149.79 138.85 C 149.79 139.78 150.53 140.52 151.46 140.53 C 152.38 140.53 153.13 139.79 153.13 138.86 L 153.13 137.85 C 153.14 136.93 152.39 136.18 151.47 136.18 C 150.55 136.17 149.80 136.92 149.80 137.84 Z M 149.75 138.89 L 149.77 140.09 C 149.79 141.04 150.57 141.79 151.52 141.77 C 152.47 141.75 153.22 140.97 153.20 140.02 L 153.18 138.83 C 153.16 137.88 152.37 137.12 151.43 137.14 C 150.48 137.16 149.73 137.95 149.75 138.89 Z M 149.74 140.12 L 149.78 141.13 C 149.82 142.09 150.63 142.84 151.59 142.81 C 152.55 142.77 153.30 141.96 153.27 141.00 L 153.23 139.99 C 153.19 139.03 152.38 138.28 151.42 138.31 C 150.46 138.35 149.70 139.16 149.74 140.12 Z M 149.77 141.15 L 149.82 142.15 C 149.87 143.11 150.69 143.86 151.66 143.81 C 152.62 143.77 153.37 142.95 153.32 141.98 L 153.27 140.98 C 153.23 140.01 152.41 139.27 151.44 139.31 C 150.47 139.36 149.73 140.18 149.77 141.15 Z M 149.82 142.16 L 149.88 143.20 C 149.93 144.17 150.75 144.91 151.72 144.86 C 152.69 144.81 153.43 143.98 153.38 143.02 L 153.32 141.97 C 153.27 141.00 152.45 140.26 151.48 140.31 C 150.51 140.36 149.77 141.19 149.82 142.16 Z M 149.87 143.21 L 149.93 144.26 C 149.99 145.23 150.82 145.97 151.79 145.92 C 152.75 145.87 153.50 145.04 153.44 144.07 L 153.38 143.01 C 153.33 142.04 152.50 141.30 151.53 141.36 C 150.56 141.41 149.82 142.24 149.87 143.21 Z M 149.93 144.27 L 149.99 145.30 C 150.04 146.27 150.87 147.01 151.84 146.96 C 152.81 146.90 153.56 146.07 153.50 145.10 L 153.44 144.07 C 153.39 143.10 152.56 142.36 151.59 142.41 C 150.62 142.46 149.88 143.30 149.93 144.27 Z M 149.99 145.29 L 150.04 146.27 C 150.09 147.24 150.92 147.98 151.89 147.93 C 152.86 147.88 153.61 147.05 153.56 146.08 L 153.50 145.10 C 153.45 144.13 152.62 143.39 151.65 143.44 C 150.68 143.49 149.93 144.32 149.99 145.29 Z M 150.04 146.25 L 150.09 147.32 C 150.13 148.30 150.96 149.05 151.93 149.00 C 152.90 148.96 153.66 148.13 153.61 147.16 L 153.56 146.09 C 153.51 145.12 152.69 144.36 151.71 144.41 C 150.74 144.46 149.99 145.28 150.04 146.25 Z M 150.09 147.30 L 150.13 148.45 C 150.16 149.42 150.98 150.18 151.95 150.15 C 152.92 150.11 153.68 149.30 153.65 148.33 L 153.61 147.18 C 153.57 146.21 152.76 145.45 151.79 145.48 C 150.82 145.52 150.06 146.33 150.09 147.30 Z M 150.13 148.42 L 150.15 149.39 C 150.17 150.36 150.97 151.13 151.94 151.11 C 152.91 151.09 153.68 150.29 153.66 149.32 L 153.64 148.35 C 153.62 147.39 152.82 146.62 151.85 146.63 C 150.89 146.65 150.12 147.45 150.13 148.42 Z M 150.16 149.36 L 150.16 150.23 C 150.17 151.19 150.96 151.97 151.92 151.96 C 152.89 151.96 153.67 151.17 153.66 150.20 L 153.66 149.34 C 153.65 148.38 152.86 147.60 151.90 147.60 C 150.93 147.61 150.15 148.40 150.16 149.36 Z M 150.17 150.22 L 150.17 151.08 C 150.17 152.05 150.95 152.83 151.91 152.83 C 152.88 152.83 153.66 152.05 153.66 151.08 L 153.66 150.21 C 153.66 149.25 152.87 148.47 151.91 148.47 C 150.95 148.47 150.17 149.25 150.17 150.22 Z M 150.18 151.07 L 150.17 152.02 C 150.16 152.98 150.94 153.77 151.90 153.77 C 152.86 153.78 153.64 153.00 153.64 152.04 L 153.65 151.09 C 153.65 150.13 152.88 149.35 151.92 149.35 C 150.96 149.34 150.18 150.11 150.18 151.07 Z M 150.18 151.99 L 150.15 152.99 C 150.13 153.94 150.89 154.74 151.84 154.76 C 152.80 154.78 153.59 154.03 153.61 153.07 L 153.64 152.08 C 153.66 151.12 152.90 150.33 151.95 150.31 C 150.99 150.28 150.20 151.04 150.18 151.99 Z M 150.16 152.94 L 150.11 153.99 C 150.06 154.94 150.79 155.75 151.74 155.80 C 152.68 155.85 153.50 155.12 153.55 154.17 L 153.60 153.12 C 153.65 152.17 152.92 151.36 151.97 151.31 C 151.02 151.26 150.21 151.99 150.16 152.94 Z M 150.12 153.93 L 150.03 154.90 C 149.95 155.85 150.65 156.68 151.59 156.76 C 152.53 156.84 153.37 156.15 153.45 155.20 L 153.53 154.23 C 153.62 153.29 152.92 152.46 151.98 152.37 C 151.03 152.29 150.20 152.99 150.12 153.93 Z M 150.05 154.85 L 149.93 155.81 C 149.82 156.75 150.49 157.60 151.43 157.71 C 152.36 157.82 153.21 157.15 153.32 156.22 L 153.43 155.26 C 153.55 154.32 152.88 153.47 151.94 153.36 C 151.01 153.25 150.16 153.92 150.05 154.85 Z M 149.95 155.77 L 149.80 156.76 C 149.67 157.69 150.31 158.55 151.24 158.69 C 152.16 158.82 153.03 158.18 153.16 157.25 L 153.31 156.26 C 153.44 155.33 152.80 154.47 151.87 154.34 C 150.95 154.20 150.08 154.84 149.95 155.77 Z M 149.82 156.73 L 149.65 157.75 C 149.49 158.66 150.11 159.54 151.02 159.69 C 151.94 159.85 152.81 159.23 152.97 158.31 L 153.15 157.29 C 153.30 156.38 152.68 155.50 151.77 155.35 C 150.85 155.19 149.98 155.81 149.82 156.73 Z M 149.66 157.71 L 149.47 158.72 C 149.29 159.63 149.88 160.51 150.79 160.69 C 151.70 160.86 152.58 160.27 152.76 159.36 L 152.95 158.35 C 153.13 157.44 152.54 156.56 151.63 156.38 C 150.72 156.21 149.84 156.80 149.66 157.71 Z M 149.48 158.69 L 149.28 159.63 C 149.08 160.53 149.66 161.42 150.56 161.61 C 151.46 161.81 152.34 161.24 152.54 160.34 L 152.74 159.39 C 152.94 158.49 152.36 157.61 151.46 157.41 C 150.56 157.22 149.68 157.79 149.48 158.69 Z M 149.29 159.61 L 149.07 160.56 C 148.86 161.45 149.41 162.35 150.30 162.56 C 151.19 162.76 152.09 162.21 152.30 161.32 L 152.52 160.36 C 152.73 159.47 152.18 158.58 151.29 158.37 C 150.40 158.16 149.50 158.71 149.29 159.61 Z M 149.09 160.54 L 148.84 161.51 C 148.62 162.39 149.15 163.29 150.03 163.51 C 150.91 163.73 151.81 163.20 152.03 162.32 L 152.28 161.35 C 152.50 160.47 151.97 159.57 151.09 159.35 C 150.21 159.12 149.31 159.66 149.09 160.54 Z M 148.86 161.49 L 148.59 162.48 C 148.35 163.35 148.87 164.25 149.74 164.49 C 150.61 164.72 151.51 164.21 151.75 163.33 L 152.02 162.34 C 152.25 161.47 151.74 160.57 150.86 160.34 C 149.99 160.10 149.09 160.62 148.86 161.49 Z M 148.60 162.46 L 148.32 163.44 C 148.08 164.30 148.58 165.20 149.44 165.45 C 150.30 165.69 151.20 165.20 151.45 164.33 L 151.73 163.35 C 151.98 162.49 151.48 161.59 150.62 161.34 C 149.75 161.10 148.85 161.60 148.60 162.46 Z M 148.34 163.42 L 148.06 164.34 C 147.81 165.20 148.29 166.10 149.15 166.36 C 150.00 166.61 150.90 166.13 151.16 165.27 L 151.43 164.35 C 151.69 163.49 151.21 162.59 150.35 162.34 C 149.50 162.08 148.60 162.57 148.34 163.42 Z M 148.08 164.33 L 147.78 165.27 C 147.52 166.12 147.99 167.02 148.84 167.28 C 149.68 167.55 150.58 167.07 150.85 166.23 L 151.14 165.29 C 151.41 164.44 150.93 163.54 150.09 163.28 C 149.24 163.01 148.34 163.48 148.08 164.33 Z M 147.80 165.26 L 147.49 166.21 C 147.22 167.05 147.68 167.95 148.51 168.22 C 149.35 168.49 150.25 168.03 150.52 167.20 L 150.83 166.24 C 151.10 165.40 150.65 164.51 149.81 164.23 C 148.97 163.96 148.07 164.42 147.80 165.26 Z M 147.51 166.20 L 147.18 167.17 C 146.90 167.99 147.35 168.89 148.18 169.17 C 149.01 169.45 149.90 169.00 150.18 168.17 L 150.51 167.21 C 150.79 166.38 150.34 165.48 149.51 165.20 C 148.68 164.92 147.78 165.37 147.51 166.20 Z M 147.20 167.15 L 146.86 168.13 C 146.57 168.95 147.01 169.85 147.83 170.13 C 148.65 170.42 149.55 169.98 149.83 169.16 L 150.17 168.18 C 150.45 167.36 150.02 166.47 149.20 166.18 C 148.38 165.90 147.48 166.33 147.20 167.15 Z M 146.87 168.12 L 146.54 169.06 C 146.25 169.87 146.67 170.76 147.49 171.05 C 148.30 171.34 149.19 170.92 149.48 170.10 L 149.82 169.17 C 150.11 168.36 149.68 167.46 148.87 167.17 C 148.06 166.88 147.16 167.31 146.87 168.12 Z M 146.55 169.05 L 146.21 169.97 C 145.92 170.78 146.33 171.67 147.14 171.97 C 147.94 172.26 148.83 171.85 149.13 171.04 L 149.47 170.11 C 149.76 169.31 149.35 168.42 148.54 168.12 C 147.74 167.83 146.85 168.24 146.55 169.05 Z M 146.23 169.96 L 145.87 170.90 C 145.57 171.69 145.98 172.58 146.78 172.88 C 147.57 173.19 148.46 172.78 148.77 171.98 L 149.12 171.05 C 149.42 170.25 149.01 169.36 148.22 169.06 C 147.42 168.76 146.53 169.17 146.23 169.96 Z M 145.89 170.89 L 145.53 171.82 C 145.22 172.61 145.61 173.50 146.40 173.81 C 147.19 174.11 148.08 173.72 148.39 172.93 L 148.75 171.99 C 149.06 171.20 148.66 170.31 147.87 170.01 C 147.08 169.70 146.19 170.10 145.89 170.89 Z M 145.54 171.81 L 145.17 172.75 C 144.85 173.53 145.24 174.42 146.02 174.73 C 146.80 175.04 147.69 174.66 148.00 173.88 L 148.38 172.94 C 148.69 172.16 148.30 171.27 147.52 170.96 C 146.74 170.65 145.85 171.03 145.54 171.81 Z M 145.18 172.74 L 144.80 173.68 C 144.48 174.46 144.85 175.34 145.62 175.66 C 146.40 175.98 147.28 175.61 147.60 174.83 L 147.99 173.89 C 148.30 173.11 147.93 172.23 147.16 171.91 C 146.38 171.59 145.50 171.97 145.18 172.74 Z M 144.81 173.67 L 144.42 174.59 C 144.10 175.35 144.46 176.24 145.23 176.56 C 146.00 176.88 146.88 176.52 147.20 175.76 L 147.59 174.84 C 147.91 174.07 147.55 173.19 146.78 172.87 C 146.02 172.54 145.13 172.90 144.81 173.67 Z M 144.44 174.58 L 144.04 175.49 C 143.71 176.25 144.06 177.13 144.82 177.46 C 145.58 177.79 146.47 177.44 146.80 176.68 L 147.19 175.77 C 147.52 175.01 147.17 174.12 146.41 173.79 C 145.65 173.47 144.76 173.82 144.44 174.58 Z M 144.05 175.48 L 143.65 176.39 C 143.32 177.15 143.66 178.03 144.41 178.36 C 145.16 178.69 146.05 178.35 146.38 177.60 L 146.78 176.69 C 147.12 175.93 146.78 175.05 146.02 174.72 C 145.27 174.38 144.39 174.73 144.05 175.48 Z M 143.66 176.38 L 143.25 177.30 C 142.91 178.04 143.24 178.92 143.99 179.26 C 144.74 179.60 145.62 179.27 145.95 178.52 L 146.37 177.61 C 146.71 176.86 146.37 175.98 145.63 175.64 C 144.88 175.30 144.00 175.64 143.66 176.38 Z M 143.26 177.29 L 142.84 178.20 C 142.50 178.94 142.82 179.82 143.56 180.16 C 144.30 180.50 145.18 180.18 145.52 179.44 L 145.94 178.53 C 146.29 177.79 145.96 176.91 145.22 176.57 C 144.48 176.22 143.60 176.55 143.26 177.29 Z M 142.85 178.19 L 142.42 179.11 C 142.07 179.84 142.39 180.72 143.12 181.06 C 143.86 181.41 144.74 181.09 145.08 180.36 L 145.51 179.45 C 145.86 178.71 145.54 177.84 144.81 177.49 C 144.07 177.14 143.20 177.46 142.85 178.19 Z M 142.43 179.10 L 142.00 179.99 C 141.65 180.72 141.96 181.60 142.69 181.95 C 143.42 182.29 144.30 181.99 144.65 181.26 L 145.07 180.37 C 145.42 179.64 145.11 178.76 144.38 178.41 C 143.65 178.06 142.78 178.37 142.43 179.10 Z M 142.01 179.99 L 141.58 180.87 C 141.23 181.60 141.53 182.47 142.25 182.82 C 142.98 183.18 143.85 182.87 144.21 182.15 L 144.64 181.26 C 144.99 180.54 144.69 179.66 143.96 179.31 C 143.24 178.96 142.36 179.26 142.01 179.99 Z M 141.59 180.87 L 141.15 181.75 C 140.79 182.47 141.09 183.35 141.81 183.70 C 142.53 184.06 143.40 183.77 143.76 183.05 L 144.20 182.16 C 144.55 181.44 144.26 180.56 143.54 180.21 C 142.82 179.85 141.95 180.14 141.59 180.87 Z M 141.16 181.75 L 140.71 182.64 C 140.35 183.35 140.63 184.23 141.35 184.59 C 142.06 184.95 142.94 184.66 143.30 183.95 L 143.75 183.05 C 144.11 182.34 143.82 181.47 143.11 181.10 C 142.39 180.74 141.52 181.03 141.16 181.75 Z M 140.72 182.63 L 140.25 183.53 C 139.89 184.24 140.17 185.11 140.88 185.47 C 141.59 185.84 142.46 185.56 142.83 184.85 L 143.29 183.95 C 143.65 183.24 143.37 182.37 142.66 182.01 C 141.95 181.64 141.08 181.92 140.72 182.63 Z M 140.26 183.52 L 139.79 184.42 C 139.42 185.12 139.69 186.00 140.40 186.37 C 141.10 186.74 141.98 186.46 142.35 185.76 L 142.82 184.86 C 143.19 184.15 142.92 183.28 142.21 182.91 C 141.51 182.54 140.63 182.81 140.26 183.52 Z M 139.80 184.41 L 139.32 185.31 C 138.95 186.01 139.21 186.88 139.91 187.25 C 140.61 187.63 141.48 187.36 141.86 186.66 L 142.34 185.77 C 142.71 185.07 142.45 184.20 141.75 183.82 C 141.05 183.45 140.18 183.71 139.80 184.41 Z M 139.33 185.30 L 138.84 186.19 C 138.46 186.89 138.72 187.76 139.42 188.14 C 140.11 188.52 140.98 188.26 141.36 187.56 L 141.85 186.67 C 142.23 185.98 141.97 185.10 141.28 184.72 C 140.58 184.34 139.71 184.60 139.33 185.30 Z M 138.85 186.18 L 138.36 187.07 C 137.97 187.76 138.22 188.64 138.91 189.02 C 139.61 189.40 140.48 189.15 140.86 188.46 L 141.36 187.57 C 141.74 186.88 141.49 186.01 140.80 185.62 C 140.11 185.24 139.23 185.49 138.85 186.18 Z M 138.36 187.06 L 137.86 187.94 C 137.48 188.63 137.72 189.51 138.41 189.89 C 139.10 190.28 139.97 190.04 140.36 189.35 L 140.86 188.47 C 141.25 187.78 141.00 186.91 140.31 186.52 C 139.62 186.13 138.75 186.37 138.36 187.06 Z M 137.87 187.94 L 137.37 188.80 C 136.98 189.49 137.22 190.36 137.90 190.76 C 138.59 191.15 139.46 190.91 139.85 190.23 L 140.35 189.36 C 140.75 188.67 140.51 187.80 139.82 187.41 C 139.14 187.01 138.26 187.25 137.87 187.94 Z M 137.38 188.80 L 136.88 189.65 C 136.49 190.33 136.72 191.20 137.40 191.60 C 138.08 192.00 138.96 191.77 139.35 191.08 L 139.85 190.23 C 140.25 189.55 140.01 188.68 139.33 188.28 C 138.65 187.88 137.78 188.11 137.38 188.80 Z M 136.89 189.64 L 136.39 190.48 C 135.99 191.16 136.22 192.03 136.90 192.43 C 137.57 192.83 138.45 192.61 138.85 191.93 L 139.35 191.09 C 139.75 190.41 139.52 189.54 138.85 189.14 C 138.17 188.74 137.29 188.96 136.89 189.64 Z M 136.40 190.47 L 135.86 191.37 C 135.45 192.04 135.67 192.92 136.35 193.33 C 137.02 193.73 137.90 193.51 138.30 192.84 L 138.84 191.94 C 139.25 191.26 139.03 190.39 138.36 189.98 C 137.68 189.58 136.81 189.79 136.40 190.47 Z M 135.86 191.36 L 135.33 192.23 C 134.92 192.90 135.14 193.78 135.81 194.19 C 136.48 194.60 137.36 194.39 137.77 193.72 L 138.30 192.85 C 138.71 192.17 138.50 191.30 137.82 190.89 C 137.15 190.48 136.27 190.69 135.86 191.36 Z M 135.34 192.22 L 134.81 193.07 C 134.40 193.74 134.61 194.62 135.28 195.03 C 135.95 195.45 136.83 195.24 137.24 194.57 L 137.76 193.72 C 138.18 193.05 137.97 192.17 137.30 191.76 C 136.63 191.35 135.75 191.55 135.34 192.22 Z M 134.82 193.07 L 134.30 193.90 C 133.88 194.56 134.09 195.44 134.76 195.86 C 135.42 196.28 136.30 196.07 136.72 195.41 L 137.24 194.58 C 137.65 193.91 137.45 193.03 136.78 192.61 C 136.11 192.19 135.23 192.40 134.82 193.07 Z M 134.30 193.89 L 133.79 194.71 C 133.37 195.38 133.57 196.26 134.24 196.68 C 134.90 197.10 135.78 196.90 136.20 196.23 L 136.72 195.41 C 137.14 194.74 136.93 193.86 136.27 193.44 C 135.60 193.03 134.72 193.23 134.30 193.89 Z M 133.79 194.71 L 133.51 195.16 C 133.09 195.83 133.29 196.71 133.96 197.12 C 134.62 197.54 135.50 197.34 135.92 196.68 L 136.20 196.23 C 136.62 195.56 136.42 194.68 135.75 194.26 C 135.09 193.85 134.21 194.05 133.79 194.71 Z"
      fill="black"
      fill-rule="nonzero" /></svg>