<svg xmlns="http://www.w3.org/2000/svg" width="300" height="300" viewBox="0 0 300 300">
<path d="M 133.00 117.06 L 132.07 117.52 C 131.33 117.89 131.03 118.78 131.39 119.52 C 131.76 120.25 132.65 120.55 133.39 120.19 L 134.32 119.73 C 135.05 119.36 135.35 118.47 134.99 117.73 C 134.62 117.00 133.73 116.70 133.00 117.06 Z M 131.94 117.56 L 131.08 118.09 C 130.37 118.52 130.14 119.46 130.58 120.17 C 131.02 120.88 131.95 121.11 132.66 120.67 L 133.52 120.15 C 134.23 119.71 134.46 118.78 134.02 118.06 C 133.58 117.35 132.65 117.13 131.94 117.56 Z M 130.83 118.24 L 130.12 118.89 C 129.50 119.47 129.45 120.45 130.03 121.07 C 130.61 121.70 131.58 121.74 132.21 121.16 L 132.92 120.51 C 133.54 119.94 133.58 118.96 133.01 118.33 C 132.43 117.71 131.46 117.67 130.83 118.24 Z M 129.83 119.21 L 129.38 119.97 C 128.93 120.70 129.16 121.66 129.89 122.11 C 130.63 122.56 131.59 122.33 132.04 121.59 L 132.50 120.84 C 132.95 120.11 132.72 119.14 131.98 118.70 C 131.24 118.25 130.28 118.48 129.83 119.21 Z M 129.22 120.29 L 128.93 121.17 C 128.66 122.00 129.11 122.88 129.93 123.15 C 130.75 123.42 131.64 122.97 131.91 122.15 L 132.20 121.27 C 132.47 120.44 132.02 119.56 131.20 119.29 C 130.37 119.02 129.49 119.47 129.22 120.29 Z M 128.87 121.39 L 128.69 122.41 C 128.54 123.26 129.11 124.08 129.96 124.23 C 130.82 124.38 131.63 123.81 131.79 122.96 L 131.97 121.94 C 132.12 121.08 131.55 120.27 130.70 120.11 C 129.84 119.96 129.02 120.53 128.87 121.39 Z M 128.67 122.52 L 128.55 123.63 C 128.46 124.49 129.09 125.27 129.95 125.36 C 130.82 125.45 131.59 124.82 131.69 123.96 L 131.80 122.85 C 131.90 121.98 131.27 121.21 130.40 121.12 C 129.54 121.02 128.76 121.65 128.67 122.52 Z M 128.54 123.67 L 128.47 124.56 C 128.40 125.43 129.05 126.19 129.92 126.26 C 130.79 126.33 131.55 125.68 131.62 124.81 L 131.69 123.92 C 131.76 123.05 131.12 122.29 130.25 122.22 C 129.37 122.15 128.61 122.80 128.54 123.67 Z M 128.47 124.58 L 128.41 125.53 C 128.35 126.41 129.01 127.16 129.88 127.22 C 130.76 127.27 131.51 126.61 131.57 125.74 L 131.63 124.79 C 131.68 123.91 131.02 123.16 130.15 123.10 C 129.28 123.05 128.52 123.71 128.47 124.58 Z M 128.40 125.56 L 128.35 126.56 C 128.31 127.44 128.98 128.18 129.85 128.23 C 130.73 128.27 131.48 127.60 131.52 126.72 L 131.57 125.72 C 131.62 124.84 130.94 124.10 130.07 124.05 C 129.19 124.01 128.45 124.68 128.40 125.56 Z M 128.35 126.58 L 128.31 127.64 C 128.27 128.51 128.96 129.25 129.83 129.29 C 130.71 129.32 131.45 128.64 131.48 127.76 L 131.52 126.70 C 131.56 125.83 130.87 125.09 130.00 125.05 C 129.12 125.02 128.38 125.70 128.35 126.58 Z M 128.30 127.65 L 128.27 128.76 C 128.25 129.64 128.94 130.37 129.82 130.39 C 130.70 130.42 131.43 129.73 131.46 128.85 L 131.49 127.74 C 131.51 126.86 130.82 126.13 129.94 126.11 C 129.06 126.08 128.33 126.77 128.30 127.65 Z M 128.27 128.77 L 128.25 129.79 C 128.23 130.68 128.93 131.40 129.81 131.42 C 130.70 131.44 131.42 130.74 131.44 129.85 L 131.46 128.83 C 131.47 127.95 130.77 127.22 129.89 127.21 C 129.01 127.19 128.28 127.89 128.27 128.77 Z M 128.25 129.81 L 128.23 130.84 C 128.22 131.73 128.93 132.45 129.81 132.46 C 130.69 132.47 131.42 131.76 131.43 130.88 L 131.44 129.84 C 131.45 128.96 130.75 128.24 129.86 128.23 C 128.98 128.22 128.26 128.92 128.25 129.81 Z M 128.23 130.85 L 128.22 131.89 C 128.22 132.77 128.93 133.49 129.81 133.50 C 130.70 133.50 131.42 132.79 131.42 131.91 L 131.43 130.87 C 131.44 129.99 130.73 129.27 129.84 129.26 C 128.96 129.26 128.24 129.97 128.23 130.85 Z M 128.22 131.89 L 128.22 132.90 C 128.21 133.78 128.93 134.50 129.82 134.51 C 130.70 134.51 131.42 133.80 131.42 132.91 L 131.43 131.90 C 131.43 131.02 130.72 130.30 129.83 130.29 C 128.94 130.29 128.22 131.01 128.22 131.89 Z M 128.22 132.90 L 128.21 133.86 C 128.21 134.75 128.93 135.47 129.82 135.47 C 130.70 135.47 131.42 134.75 131.43 133.87 L 131.43 132.91 C 131.43 132.02 130.71 131.30 129.82 131.30 C 128.94 131.30 128.22 132.02 128.22 132.90 Z M 128.21 133.87 L 128.21 134.86 C 128.21 135.75 128.93 136.47 129.82 136.47 C 130.71 136.47 131.43 135.75 131.43 134.86 L 131.43 133.87 C 131.43 132.98 130.71 132.26 129.82 132.26 C 128.93 132.26 128.21 132.98 128.21 133.87 Z M 128.21 134.86 L 128.21 135.97 C 128.21 136.86 128.93 137.58 129.82 137.58 C 130.71 137.58 131.43 136.86 131.43 135.97 L 131.43 134.86 C 131.43 133.97 130.71 133.25 129.82 133.25 C 128.93 133.25 128.21 133.97 128.21 134.86 Z M 128.21 135.97 L 128.21 136.97 C 128.21 137.86 128.93 138.59 129.82 138.59 C 130.71 138.59 131.43 137.86 131.43 136.97 L 131.43 135.97 C 131.43 135.09 130.71 134.36 129.82 134.36 C 128.93 134.36 128.21 135.09 128.21 135.97 Z M 128.21 136.97 L 128.21 137.90 C 128.21 138.79 128.93 139.51 129.82 139.51 C 130.71 139.51 131.43 138.79 131.43 137.90 L 131.43 136.97 C 131.43 136.08 130.71 135.36 129.82 135.36 C 128.93 135.36 128.21 136.08 128.21 136.97 Z M 128.21 137.90 L 128.21 138.81 C 128.21 139.70 128.93 140.42 129.82 140.42 C 130.71 140.42 131.43 139.70 131.43 138.81 L 131.43 137.90 C 131.43 137.00 130.71 136.28 129.82 136.28 C 128.93 136.28 128.21 137.00 128.21 137.90 Z M 128.20 138.81 L 128.20 139.82 C 128.20 140.71 128.93 141.43 129.82 141.43 C 130.71 141.43 131.44 140.71 131.44 139.82 L 131.44 138.81 C 131.44 137.91 130.71 137.19 129.82 137.19 C 128.93 137.19 128.20 137.91 128.20 138.81 Z M 128.20 139.82 L 128.20 140.82 C 128.20 141.71 128.93 142.43 129.82 142.43 C 130.71 142.43 131.44 141.71 131.44 140.82 L 131.44 139.82 C 131.44 138.93 130.71 138.20 129.82 138.20 C 128.93 138.20 128.20 138.93 128.20 139.82 Z M 128.20 140.82 L 128.20 141.80 C 128.20 142.70 128.93 143.42 129.82 143.42 C 130.71 143.42 131.44 142.70 131.44 141.80 L 131.44 140.82 C 131.44 139.92 130.71 139.20 129.82 139.20 C 128.93 139.20 128.20 139.92 128.20 140.82 Z M 128.20 141.81 L 128.20 142.81 C 128.20 143.70 128.93 144.43 129.82 144.43 C 130.71 144.43 131.44 143.70 131.44 142.81 L 131.44 141.80 C 131.44 140.91 130.71 140.19 129.82 140.19 C 128.93 140.19 128.20 140.91 128.20 141.81 Z M 128.20 142.82 L 128.21 143.83 C 128.21 144.72 128.94 145.44 129.83 145.44 C 130.73 145.43 131.45 144.70 131.44 143.81 L 131.44 142.80 C 131.43 141.91 130.71 141.19 129.81 141.19 C 128.92 141.20 128.20 141.92 128.20 142.82 Z M 128.21 143.85 L 128.22 144.84 C 128.24 145.74 128.98 146.45 129.87 146.43 C 130.76 146.42 131.48 145.68 131.46 144.79 L 131.44 143.79 C 131.43 142.90 130.69 142.18 129.80 142.20 C 128.90 142.21 128.19 142.95 128.21 143.85 Z M 128.22 144.87 L 128.26 145.83 C 128.29 146.72 129.04 147.42 129.94 147.39 C 130.83 147.36 131.53 146.61 131.50 145.71 L 131.46 144.75 C 131.43 143.86 130.68 143.16 129.78 143.19 C 128.89 143.23 128.19 143.98 128.22 144.87 Z M 128.26 145.87 L 128.32 146.79 C 128.38 147.68 129.15 148.36 130.04 148.30 C 130.93 148.24 131.61 147.47 131.55 146.58 L 131.49 145.67 C 131.44 144.77 130.67 144.10 129.77 144.15 C 128.88 144.21 128.20 144.98 128.26 145.87 Z M 128.32 146.84 L 128.42 147.81 C 128.51 148.70 129.30 149.35 130.19 149.26 C 131.08 149.17 131.73 148.38 131.64 147.49 L 131.55 146.52 C 131.46 145.63 130.66 144.98 129.77 145.07 C 128.88 145.16 128.24 145.95 128.32 146.84 Z M 128.43 147.87 L 128.58 148.95 C 128.70 149.83 129.52 150.45 130.40 150.33 C 131.29 150.21 131.91 149.39 131.78 148.50 L 131.64 147.43 C 131.51 146.54 130.70 145.92 129.81 146.05 C 128.92 146.17 128.31 146.99 128.43 147.87 Z M 128.58 149.00 L 128.75 149.98 C 128.90 150.86 129.74 151.46 130.62 151.31 C 131.50 151.16 132.09 150.32 131.94 149.44 L 131.78 148.45 C 131.63 147.57 130.79 146.98 129.91 147.13 C 129.03 147.28 128.43 148.11 128.58 149.00 Z M 128.76 150.02 L 128.94 150.98 C 129.11 151.85 129.96 152.43 130.84 152.26 C 131.72 152.09 132.29 151.24 132.12 150.36 L 131.94 149.40 C 131.77 148.52 130.92 147.95 130.04 148.12 C 129.16 148.29 128.59 149.14 128.76 150.02 Z M 128.95 151.01 L 129.17 152.01 C 129.35 152.88 130.22 153.44 131.09 153.25 C 131.96 153.06 132.52 152.20 132.33 151.33 L 132.11 150.33 C 131.93 149.45 131.07 148.90 130.19 149.09 C 129.32 149.27 128.76 150.13 128.95 151.01 Z M 129.17 152.04 L 129.42 153.05 C 129.62 153.92 130.50 154.46 131.36 154.25 C 132.23 154.04 132.77 153.17 132.56 152.30 L 132.32 151.29 C 132.11 150.42 131.24 149.89 130.37 150.09 C 129.50 150.30 128.97 151.17 129.17 152.04 Z M 129.43 153.09 L 129.69 154.08 C 129.92 154.94 130.80 155.46 131.67 155.23 C 132.53 155.00 133.04 154.12 132.81 153.25 L 132.55 152.26 C 132.32 151.40 131.44 150.89 130.57 151.11 C 129.71 151.34 129.20 152.23 129.43 153.09 Z M 129.70 154.13 L 130.02 155.17 C 130.27 156.03 131.17 156.51 132.03 156.25 C 132.88 156.00 133.37 155.10 133.11 154.24 L 132.80 153.20 C 132.54 152.35 131.64 151.86 130.79 152.12 C 129.93 152.38 129.45 153.28 129.70 154.13 Z M 130.04 155.25 L 130.40 156.25 C 130.70 157.09 131.62 157.53 132.46 157.23 C 133.30 156.93 133.74 156.01 133.44 155.17 L 133.08 154.17 C 132.79 153.33 131.86 152.89 131.02 153.19 C 130.18 153.48 129.74 154.41 130.04 155.25 Z M 130.44 156.36 L 130.84 157.27 C 131.20 158.08 132.15 158.45 132.96 158.10 C 133.78 157.74 134.15 156.79 133.80 155.97 L 133.40 155.06 C 133.04 154.25 132.09 153.88 131.27 154.23 C 130.46 154.59 130.09 155.54 130.44 156.36 Z M 130.91 157.40 L 131.36 158.21 C 131.79 158.99 132.77 159.27 133.55 158.84 C 134.33 158.40 134.61 157.42 134.18 156.65 L 133.73 155.84 C 133.29 155.06 132.31 154.78 131.54 155.21 C 130.76 155.64 130.48 156.62 130.91 157.40 Z M 131.48 158.38 L 132.04 159.15 C 132.57 159.87 133.58 160.02 134.29 159.49 C 135.01 158.96 135.16 157.95 134.63 157.24 L 134.06 156.47 C 133.53 155.76 132.53 155.61 131.81 156.14 C 131.10 156.66 130.95 157.67 131.48 158.38 Z M 132.22 159.35 L 132.96 160.07 C 133.60 160.69 134.62 160.67 135.24 160.03 C 135.85 159.39 135.83 158.37 135.19 157.76 L 134.45 157.04 C 133.81 156.42 132.80 156.44 132.18 157.08 C 131.56 157.72 131.58 158.74 132.22 159.35 Z M 133.20 160.26 L 134.03 160.80 C 134.77 161.28 135.76 161.07 136.25 160.33 C 136.73 159.59 136.52 158.60 135.78 158.11 L 134.96 157.57 C 134.22 157.09 133.22 157.29 132.74 158.03 C 132.25 158.78 132.46 159.77 133.20 160.26 Z M 134.30 160.94 L 135.19 161.30 C 136.01 161.63 136.94 161.23 137.27 160.41 C 137.61 159.59 137.21 158.65 136.39 158.32 L 135.50 157.97 C 134.68 157.64 133.75 158.03 133.42 158.85 C 133.09 159.68 133.48 160.61 134.30 160.94 Z M 135.52 161.39 L 136.51 161.56 C 137.39 161.71 138.22 161.12 138.36 160.25 C 138.51 159.38 137.93 158.55 137.06 158.40 L 136.06 158.23 C 135.19 158.08 134.36 158.67 134.21 159.54 C 134.06 160.41 134.64 161.24 135.52 161.39 Z M 136.88 161.58 L 137.88 161.52 C 138.76 161.46 139.43 160.71 139.38 159.82 C 139.33 158.94 138.57 158.27 137.68 158.32 L 136.69 158.38 C 135.80 158.44 135.13 159.20 135.19 160.08 C 135.24 160.96 136.00 161.63 136.88 161.58 Z M 138.27 161.45 L 139.20 161.15 C 140.04 160.88 140.51 159.98 140.24 159.13 C 139.97 158.29 139.07 157.83 138.23 158.10 L 137.29 158.39 C 136.45 158.66 135.99 159.56 136.26 160.41 C 136.52 161.25 137.42 161.71 138.27 161.45 Z M 139.56 160.98 L 140.29 160.52 C 141.04 160.05 141.27 159.07 140.80 158.32 C 140.33 157.57 139.35 157.34 138.60 157.81 L 137.87 158.26 C 137.12 158.73 136.89 159.72 137.36 160.47 C 137.83 161.22 138.81 161.45 139.56 160.98 Z M 140.55 160.32 L 141.20 159.70 C 141.84 159.09 141.86 158.07 141.25 157.44 C 140.64 156.80 139.62 156.78 138.99 157.39 L 138.34 158.01 C 137.70 158.62 137.68 159.63 138.29 160.27 C 138.90 160.91 139.91 160.93 140.55 160.32 Z M 141.35 159.53 L 141.99 158.71 C 142.53 158.02 142.41 157.01 141.71 156.47 C 141.02 155.93 140.02 156.05 139.47 156.74 L 138.84 157.56 C 138.29 158.25 138.42 159.26 139.11 159.80 C 139.80 160.34 140.81 160.22 141.35 159.53 Z M 142.07 158.60 L 142.72 157.60 C 143.20 156.87 142.99 155.88 142.25 155.40 C 141.52 154.91 140.53 155.12 140.05 155.86 L 139.40 156.86 C 138.91 157.59 139.12 158.58 139.86 159.06 C 140.60 159.55 141.58 159.34 142.07 158.60 Z M 142.75 157.55 L 143.22 156.76 C 143.68 156.00 143.43 155.02 142.67 154.57 C 141.92 154.12 140.94 154.36 140.49 155.12 L 140.01 155.91 C 139.56 156.67 139.81 157.65 140.56 158.10 C 141.32 158.55 142.30 158.31 142.75 157.55 Z M 143.24 156.72 L 143.73 155.86 C 144.16 155.09 143.90 154.12 143.13 153.69 C 142.36 153.25 141.39 153.52 140.96 154.29 L 140.47 155.15 C 140.04 155.92 140.31 156.89 141.07 157.32 C 141.84 157.76 142.81 157.49 143.24 156.72 Z M 143.75 155.83 L 144.24 154.92 C 144.65 154.15 144.36 153.18 143.59 152.76 C 142.82 152.35 141.85 152.64 141.43 153.41 L 140.94 154.32 C 140.53 155.09 140.82 156.06 141.59 156.47 C 142.37 156.89 143.33 156.60 143.75 155.83 Z M 144.25 154.89 L 144.72 153.96 C 145.12 153.18 144.82 152.22 144.03 151.82 C 143.25 151.42 142.29 151.73 141.89 152.51 L 141.42 153.44 C 141.02 154.22 141.33 155.18 142.11 155.58 C 142.89 155.98 143.85 155.67 144.25 154.89 Z M 144.74 153.93 L 145.18 153.01 C 145.57 152.22 145.24 151.27 144.45 150.89 C 143.66 150.51 142.71 150.84 142.33 151.63 L 141.88 152.55 C 141.50 153.33 141.83 154.29 142.62 154.67 C 143.41 155.05 144.36 154.72 144.74 153.93 Z M 145.20 152.97 L 145.63 152.02 C 146.00 151.22 145.64 150.28 144.84 149.92 C 144.05 149.56 143.10 149.91 142.74 150.71 L 142.31 151.66 C 141.95 152.46 142.30 153.40 143.10 153.76 C 143.90 154.13 144.84 153.77 145.20 152.97 Z M 145.65 151.97 L 146.06 150.99 C 146.39 150.18 146.01 149.25 145.21 148.92 C 144.40 148.58 143.47 148.96 143.14 149.77 L 142.73 150.75 C 142.39 151.56 142.77 152.49 143.58 152.82 C 144.39 153.16 145.31 152.78 145.65 151.97 Z M 146.07 150.94 L 146.43 150.00 C 146.74 149.19 146.33 148.28 145.52 147.97 C 144.70 147.66 143.79 148.07 143.48 148.88 L 143.12 149.82 C 142.81 150.63 143.22 151.54 144.04 151.85 C 144.85 152.16 145.76 151.76 146.07 150.94 Z M 146.44 149.96 L 146.76 149.05 C 147.04 148.23 146.61 147.34 145.79 147.05 C 144.97 146.76 144.08 147.19 143.79 148.01 L 143.47 148.92 C 143.18 149.74 143.62 150.64 144.44 150.93 C 145.25 151.21 146.15 150.78 146.44 149.96 Z M 146.76 149.02 L 147.05 148.13 C 147.32 147.31 146.87 146.42 146.05 146.15 C 145.23 145.89 144.34 146.34 144.07 147.16 L 143.78 148.05 C 143.51 148.87 143.96 149.76 144.79 150.02 C 145.61 150.29 146.49 149.84 146.76 149.02 Z M 147.06 148.11 L 147.35 147.17 C 147.60 146.34 147.14 145.47 146.32 145.21 C 145.49 144.96 144.62 145.42 144.36 146.24 L 144.07 147.18 C 143.81 148.01 144.28 148.88 145.10 149.14 C 145.93 149.39 146.80 148.93 147.06 148.11 Z M 147.35 147.15 L 147.64 146.19 C 147.88 145.36 147.41 144.49 146.58 144.25 C 145.76 144.00 144.89 144.47 144.64 145.30 L 144.36 146.26 C 144.11 147.09 144.58 147.96 145.41 148.20 C 146.24 148.45 147.11 147.98 147.35 147.15 Z M 147.64 146.17 L 147.92 145.21 C 148.15 144.38 147.67 143.52 146.84 143.28 C 146.01 143.04 145.15 143.53 144.91 144.36 L 144.64 145.32 C 144.40 146.15 144.88 147.01 145.71 147.25 C 146.54 147.48 147.41 147.00 147.64 146.17 Z M 147.92 145.20 L 148.18 144.24 C 148.41 143.41 147.93 142.55 147.09 142.32 C 146.26 142.09 145.40 142.58 145.17 143.41 L 144.91 144.37 C 144.68 145.20 145.17 146.06 146.00 146.29 C 146.83 146.52 147.69 146.03 147.92 145.20 Z M 148.19 144.23 L 148.44 143.27 C 148.67 142.44 148.17 141.58 147.34 141.36 C 146.50 141.14 145.65 141.63 145.42 142.47 L 145.17 143.42 C 144.95 144.25 145.44 145.11 146.27 145.33 C 147.11 145.56 147.97 145.06 148.19 144.23 Z M 148.45 143.26 L 148.69 142.32 C 148.91 141.49 148.40 140.64 147.57 140.42 C 146.73 140.20 145.88 140.70 145.66 141.54 L 145.42 142.48 C 145.20 143.31 145.71 144.17 146.54 144.38 C 147.38 144.60 148.23 144.10 148.45 143.26 Z M 148.69 142.31 L 148.93 141.36 C 149.14 140.52 148.63 139.67 147.79 139.46 C 146.95 139.26 146.10 139.77 145.90 140.60 L 145.66 141.56 C 145.45 142.39 145.96 143.24 146.80 143.45 C 147.64 143.66 148.48 143.15 148.69 142.31 Z M 148.93 141.34 L 149.16 140.36 C 149.36 139.52 148.84 138.68 148.00 138.48 C 147.16 138.28 146.32 138.80 146.12 139.64 L 145.89 140.62 C 145.69 141.46 146.21 142.30 147.05 142.50 C 147.89 142.70 148.74 142.18 148.93 141.34 Z M 149.17 140.34 L 149.39 139.32 C 149.58 138.48 149.05 137.65 148.20 137.46 C 147.36 137.27 146.53 137.81 146.34 138.65 L 146.12 139.67 C 145.93 140.51 146.46 141.34 147.31 141.53 C 148.15 141.71 148.98 141.18 149.17 140.34 Z M 149.40 139.30 L 149.60 138.29 C 149.78 137.45 149.23 136.62 148.39 136.45 C 147.54 136.28 146.71 136.82 146.54 137.67 L 146.33 138.67 C 146.16 139.52 146.71 140.35 147.55 140.52 C 148.40 140.69 149.22 140.15 149.40 139.30 Z M 149.61 138.28 L 149.80 137.26 C 149.97 136.41 149.41 135.59 148.56 135.43 C 147.71 135.27 146.89 135.82 146.73 136.67 L 146.54 137.69 C 146.37 138.54 146.93 139.36 147.78 139.52 C 148.63 139.68 149.45 139.12 149.61 138.28 Z M 149.81 137.25 L 149.99 136.23 C 150.14 135.38 149.58 134.57 148.73 134.41 C 147.88 134.26 147.06 134.83 146.91 135.68 L 146.73 136.69 C 146.57 137.54 147.14 138.35 147.99 138.51 C 148.84 138.66 149.65 138.10 149.81 137.25 Z M 149.99 136.22 L 150.16 135.23 C 150.31 134.38 149.73 133.57 148.88 133.43 C 148.03 133.28 147.22 133.85 147.07 134.71 L 146.90 135.69 C 146.76 136.55 147.33 137.35 148.19 137.50 C 149.04 137.65 149.85 137.07 149.99 136.22 Z M 150.17 135.22 L 150.31 134.29 C 150.45 133.43 149.87 132.63 149.01 132.49 C 148.16 132.36 147.35 132.94 147.22 133.79 L 147.07 134.72 C 146.93 135.58 147.51 136.38 148.37 136.52 C 149.22 136.66 150.03 136.07 150.17 135.22 Z M 150.32 134.27 L 150.48 133.18 C 150.61 132.33 150.01 131.53 149.16 131.40 C 148.30 131.27 147.50 131.87 147.37 132.72 L 147.21 133.81 C 147.09 134.67 147.68 135.47 148.54 135.59 C 149.39 135.72 150.19 135.13 150.32 134.27 Z M 150.49 133.16 L 150.62 132.15 C 150.74 131.29 150.13 130.50 149.27 130.39 C 148.41 130.27 147.62 130.88 147.50 131.74 L 147.37 132.75 C 147.25 133.61 147.86 134.40 148.72 134.51 C 149.58 134.63 150.37 134.02 150.49 133.16 Z M 150.63 132.13 L 150.74 131.19 C 150.84 130.33 150.22 129.54 149.35 129.44 C 148.49 129.34 147.71 129.96 147.60 130.83 L 147.49 131.76 C 147.39 132.63 148.01 133.41 148.88 133.51 C 149.74 133.61 150.53 132.99 150.63 132.13 Z M 150.74 131.17 L 150.84 130.27 C 150.92 129.41 150.29 128.63 149.43 128.54 C 148.56 128.45 147.78 129.08 147.69 129.95 L 147.60 130.85 C 147.51 131.72 148.14 132.49 149.01 132.58 C 149.88 132.67 150.65 132.04 150.74 131.17 Z M 150.84 130.25 L 150.92 129.37 C 151.00 128.50 150.36 127.73 149.48 127.65 C 148.61 127.57 147.84 128.21 147.77 129.08 L 147.69 129.97 C 147.61 130.84 148.25 131.61 149.12 131.69 C 149.99 131.77 150.76 131.12 150.84 130.25 Z M 150.93 129.34 L 151.00 128.39 C 151.06 127.51 150.40 126.75 149.52 126.69 C 148.65 126.63 147.89 127.29 147.83 128.16 L 147.76 129.11 C 147.70 129.99 148.36 130.75 149.23 130.81 C 150.11 130.87 150.87 130.21 150.93 129.34 Z M 151.00 128.35 L 151.06 127.29 C 151.10 126.41 150.42 125.66 149.54 125.62 C 148.66 125.57 147.92 126.25 147.87 127.13 L 147.82 128.20 C 147.78 129.07 148.45 129.82 149.33 129.87 C 150.21 129.91 150.96 129.23 151.00 128.35 Z M 151.07 127.25 L 151.10 126.01 C 151.13 125.13 150.43 124.39 149.55 124.37 C 148.66 124.34 147.92 125.04 147.90 125.92 L 147.86 127.16 C 147.84 128.04 148.53 128.78 149.42 128.81 C 150.30 128.84 151.04 128.14 151.07 127.25 Z M 151.13 125.99 L 151.15 124.67 C 151.16 123.77 150.44 123.03 149.55 123.02 C 148.65 123.00 147.91 123.72 147.89 124.62 L 147.87 125.94 C 147.86 126.84 148.58 127.58 149.48 127.59 C 150.37 127.61 151.11 126.89 151.13 125.99 Z M 151.18 124.66 L 151.19 123.52 C 151.19 122.60 150.46 121.85 149.54 121.85 C 148.63 121.84 147.88 122.58 147.87 123.49 L 147.86 124.63 C 147.86 125.55 148.59 126.29 149.51 126.30 C 150.42 126.31 151.17 125.57 151.18 124.66 Z M 151.22 123.51 L 151.22 122.82 C 151.22 121.89 150.47 121.14 149.54 121.13 C 148.60 121.13 147.85 121.88 147.84 122.81 L 147.84 123.50 C 147.84 124.43 148.59 125.19 149.52 125.19 C 150.46 125.19 151.21 124.44 151.22 123.51 Z M 147.81 122.87 L 147.82 123.60 C 147.83 124.55 148.62 125.31 149.57 125.30 C 150.52 125.28 151.28 124.50 151.27 123.55 L 151.26 122.82 C 151.24 121.87 150.46 121.11 149.51 121.12 C 148.55 121.14 147.79 121.92 147.81 122.87 Z M 147.81 123.62 L 147.84 124.83 C 147.87 125.78 148.67 126.54 149.63 126.51 C 150.59 126.48 151.34 125.68 151.31 124.72 L 151.28 123.52 C 151.25 122.56 150.45 121.81 149.49 121.84 C 148.53 121.87 147.78 122.67 147.81 123.62 Z M 147.84 124.87 L 147.91 126.32 C 147.96 127.28 148.78 128.02 149.75 127.97 C 150.71 127.92 151.45 127.10 151.40 126.14 L 151.32 124.68 C 151.27 123.72 150.45 122.98 149.49 123.03 C 148.52 123.08 147.78 123.90 147.84 124.87 Z M 147.91 126.37 L 148.00 127.47 C 148.08 128.43 148.92 129.15 149.88 129.07 C 150.85 129.00 151.57 128.15 151.49 127.19 L 151.40 126.09 C 151.32 125.12 150.48 124.40 149.51 124.48 C 148.55 124.56 147.83 125.40 147.91 126.37 Z M 148.00 127.51 L 148.11 128.56 C 148.21 129.52 149.07 130.22 150.03 130.12 C 151.00 130.02 151.70 129.16 151.60 128.20 L 151.49 127.15 C 151.39 126.19 150.53 125.49 149.56 125.58 C 148.60 125.68 147.90 126.55 148.00 127.51 Z M 148.11 128.59 L 148.24 129.61 C 148.35 130.58 149.23 131.26 150.19 131.14 C 151.15 131.02 151.84 130.15 151.72 129.19 L 151.59 128.17 C 151.47 127.21 150.60 126.52 149.64 126.64 C 148.68 126.76 147.99 127.63 148.11 128.59 Z M 148.24 129.64 L 148.38 130.62 C 148.51 131.58 149.39 132.25 150.35 132.11 C 151.31 131.98 151.98 131.09 151.85 130.13 L 151.71 129.16 C 151.58 128.20 150.70 127.53 149.74 127.66 C 148.78 127.80 148.11 128.68 148.24 129.64 Z M 148.38 130.64 L 148.52 131.55 C 148.66 132.51 149.56 133.16 150.52 133.02 C 151.47 132.87 152.13 131.98 151.99 131.02 L 151.85 130.11 C 151.70 129.15 150.80 128.49 149.85 128.64 C 148.89 128.79 148.23 129.68 148.38 130.64 Z M 148.52 131.57 L 148.69 132.61 C 148.85 133.56 149.76 134.21 150.71 134.05 C 151.67 133.89 152.31 132.99 152.16 132.03 L 151.98 130.99 C 151.82 130.04 150.92 129.39 149.96 129.55 C 149.01 129.71 148.36 130.62 148.52 131.57 Z M 148.70 132.64 L 148.89 133.66 C 149.06 134.62 149.98 135.25 150.93 135.07 C 151.88 134.89 152.51 133.98 152.34 133.03 L 152.15 132.00 C 151.97 131.05 151.06 130.42 150.11 130.59 C 149.15 130.77 148.52 131.68 148.70 132.64 Z M 148.90 133.69 L 149.08 134.62 C 149.27 135.57 150.20 136.19 151.15 135.99 C 152.10 135.80 152.71 134.88 152.52 133.93 L 152.33 133.00 C 152.14 132.05 151.22 131.44 150.27 131.63 C 149.32 131.82 148.70 132.74 148.90 133.69 Z M 149.09 134.65 L 149.28 135.54 C 149.48 136.48 150.42 137.08 151.36 136.88 C 152.31 136.68 152.91 135.75 152.70 134.80 L 152.51 133.91 C 152.31 132.96 151.38 132.36 150.43 132.57 C 149.49 132.77 148.89 133.70 149.09 134.65 Z M 149.29 135.55 L 149.50 136.50 C 149.71 137.44 150.64 138.03 151.58 137.82 C 152.53 137.61 153.12 136.68 152.91 135.74 L 152.70 134.79 C 152.49 133.85 151.56 133.25 150.61 133.46 C 149.67 133.67 149.08 134.61 149.29 135.55 Z M 149.50 136.51 L 149.72 137.48 C 149.94 138.42 150.88 139.01 151.82 138.79 C 152.76 138.57 153.35 137.64 153.13 136.70 L 152.91 135.73 C 152.69 134.79 151.75 134.20 150.81 134.41 C 149.87 134.63 149.29 135.57 149.50 136.51 Z M 149.73 137.49 L 149.96 138.47 C 150.18 139.41 151.12 139.99 152.06 139.77 C 153.00 139.55 153.58 138.61 153.36 137.67 L 153.12 136.69 C 152.90 135.75 151.96 135.17 151.02 135.39 C 150.09 135.61 149.51 136.55 149.73 137.49 Z M 149.97 138.49 L 150.21 139.47 C 150.44 140.40 151.38 140.97 152.31 140.75 C 153.25 140.52 153.82 139.57 153.59 138.64 L 153.35 137.66 C 153.12 136.72 152.18 136.15 151.25 136.38 C 150.31 136.61 149.74 137.55 149.97 138.49 Z M 150.22 139.48 L 150.46 140.44 C 150.69 141.37 151.64 141.94 152.57 141.70 C 153.50 141.47 154.06 140.53 153.83 139.59 L 153.58 138.63 C 153.35 137.70 152.41 137.13 151.48 137.37 C 150.55 137.60 149.98 138.55 150.22 139.48 Z M 150.47 140.45 L 150.71 141.42 C 150.95 142.34 151.89 142.90 152.82 142.67 C 153.75 142.43 154.31 141.49 154.07 140.56 L 153.82 139.59 C 153.58 138.66 152.64 138.10 151.71 138.34 C 150.79 138.58 150.23 139.52 150.47 140.45 Z M 150.72 141.42 L 150.97 142.40 C 151.21 143.32 152.15 143.87 153.08 143.63 C 154.00 143.40 154.55 142.45 154.31 141.53 L 154.06 140.56 C 153.82 139.63 152.88 139.08 151.96 139.32 C 151.04 139.56 150.48 140.50 150.72 141.42 Z M 150.98 142.39 L 151.23 143.35 C 151.47 144.27 152.40 144.82 153.32 144.58 C 154.24 144.35 154.79 143.41 154.56 142.49 L 154.31 141.53 C 154.07 140.61 153.13 140.06 152.21 140.30 C 151.29 140.54 150.74 141.48 150.98 142.39 Z M 151.23 143.35 L 151.48 144.31 C 151.72 145.22 152.65 145.77 153.57 145.53 C 154.49 145.30 155.03 144.36 154.80 143.45 L 154.55 142.49 C 154.31 141.57 153.38 141.03 152.46 141.26 C 151.55 141.50 151.00 142.44 151.23 143.35 Z M 151.49 144.31 L 151.74 145.28 C 151.98 146.19 152.91 146.73 153.82 146.50 C 154.73 146.26 155.28 145.33 155.04 144.42 L 154.79 143.45 C 154.55 142.54 153.62 141.99 152.71 142.23 C 151.80 142.46 151.25 143.40 151.49 144.31 Z M 151.75 145.28 L 152.01 146.27 C 152.25 147.17 153.18 147.72 154.08 147.48 C 154.99 147.24 155.53 146.31 155.29 145.40 L 155.03 144.42 C 154.80 143.51 153.87 142.97 152.96 143.20 C 152.05 143.44 151.51 144.37 151.75 145.28 Z M 152.02 146.27 L 152.28 147.23 C 152.52 148.14 153.44 148.67 154.34 148.43 C 155.24 148.19 155.78 147.27 155.54 146.37 L 155.28 145.40 C 155.04 144.50 154.12 143.97 153.22 144.20 C 152.32 144.44 151.78 145.37 152.02 146.27 Z M 152.29 147.24 L 152.56 148.22 C 152.80 149.11 153.72 149.64 154.62 149.39 C 155.51 149.15 156.04 148.23 155.79 147.33 L 155.52 146.36 C 155.28 145.47 154.36 144.94 153.47 145.19 C 152.57 145.43 152.05 146.35 152.29 147.24 Z M 152.58 148.24 L 152.86 149.20 C 153.11 150.09 154.03 150.59 154.92 150.34 C 155.80 150.08 156.31 149.16 156.05 148.28 L 155.77 147.31 C 155.52 146.43 154.59 145.92 153.71 146.18 C 152.83 146.43 152.32 147.36 152.58 148.24 Z M 152.88 149.24 L 153.17 150.18 C 153.45 151.05 154.37 151.53 155.24 151.26 C 156.11 150.99 156.60 150.06 156.33 149.19 L 156.03 148.25 C 155.76 147.38 154.83 146.89 153.96 147.17 C 153.09 147.44 152.61 148.36 152.88 149.24 Z M 153.20 150.22 L 153.54 151.19 C 153.83 152.04 154.77 152.50 155.62 152.20 C 156.48 151.91 156.93 150.97 156.63 150.12 L 156.30 149.15 C 156.00 148.29 155.07 147.84 154.21 148.14 C 153.36 148.43 152.91 149.36 153.20 150.22 Z M 153.57 151.23 L 153.92 152.16 C 154.24 153.00 155.17 153.42 156.01 153.11 C 156.85 152.79 157.27 151.85 156.96 151.02 L 156.60 150.08 C 156.29 149.24 155.35 148.82 154.51 149.14 C 153.67 149.45 153.25 150.39 153.57 151.23 Z M 153.95 152.19 L 154.31 153.10 C 154.64 153.92 155.58 154.32 156.40 153.99 C 157.23 153.66 157.63 152.73 157.30 151.90 L 156.93 150.99 C 156.60 150.17 155.66 149.77 154.84 150.10 C 154.02 150.43 153.62 151.36 153.95 152.19 Z M 154.34 153.12 L 154.72 154.03 C 155.06 154.84 155.99 155.22 156.80 154.88 C 157.61 154.54 157.99 153.61 157.65 152.80 L 157.27 151.89 C 156.93 151.08 156.00 150.69 155.19 151.03 C 154.38 151.37 154.00 152.31 154.34 153.12 Z M 154.74 154.04 L 155.14 154.95 C 155.48 155.75 156.41 156.12 157.21 155.78 C 158.01 155.43 158.37 154.50 158.03 153.70 L 157.63 152.79 C 157.29 151.99 156.36 151.62 155.56 151.96 C 154.76 152.31 154.39 153.24 154.74 154.04 Z M 155.16 154.97 L 155.57 155.88 C 155.92 156.67 156.85 157.02 157.63 156.66 C 158.42 156.31 158.77 155.39 158.41 154.60 L 158.00 153.69 C 157.65 152.90 156.73 152.55 155.94 152.91 C 155.16 153.26 154.81 154.18 155.16 154.97 Z M 155.60 155.90 L 156.02 156.81 C 156.39 157.58 157.31 157.91 158.08 157.54 C 158.85 157.18 159.18 156.26 158.81 155.49 L 158.39 154.58 C 158.02 153.81 157.11 153.48 156.33 153.85 C 155.56 154.21 155.23 155.13 155.60 155.90 Z M 156.05 156.83 L 156.50 157.73 C 156.88 158.48 157.79 158.79 158.55 158.41 C 159.30 158.04 159.61 157.12 159.23 156.36 L 158.79 155.47 C 158.41 154.71 157.49 154.40 156.74 154.78 C 155.98 155.16 155.68 156.07 156.05 156.83 Z M 156.53 157.76 L 157.01 158.64 C 157.40 159.38 158.32 159.66 159.05 159.26 C 159.79 158.87 160.07 157.95 159.67 157.21 L 159.20 156.33 C 158.81 155.60 157.89 155.32 157.15 155.71 C 156.42 156.11 156.14 157.02 156.53 157.76 Z M 157.05 158.68 L 157.55 159.55 C 157.97 160.26 158.88 160.50 159.60 160.08 C 160.31 159.67 160.55 158.75 160.14 158.04 L 159.63 157.17 C 159.22 156.46 158.30 156.22 157.58 156.63 C 156.87 157.05 156.63 157.97 157.05 158.68 Z M 157.60 159.59 L 158.14 160.43 C 158.58 161.12 159.50 161.32 160.19 160.88 C 160.88 160.43 161.07 159.51 160.63 158.83 L 160.09 157.99 C 159.64 157.30 158.73 157.10 158.04 157.54 C 157.35 157.99 157.15 158.91 157.60 159.59 Z M 158.19 160.49 L 158.77 161.30 C 159.25 161.96 160.17 162.12 160.83 161.64 C 161.49 161.17 161.64 160.25 161.16 159.59 L 160.58 158.77 C 160.10 158.11 159.19 157.96 158.53 158.43 C 157.87 158.91 157.71 159.83 158.19 160.49 Z M 158.82 161.35 L 159.45 162.14 C 159.95 162.77 160.86 162.88 161.50 162.38 C 162.13 161.88 162.24 160.96 161.74 160.33 L 161.12 159.54 C 160.61 158.91 159.70 158.80 159.06 159.30 C 158.43 159.80 158.32 160.72 158.82 161.35 Z M 159.49 162.18 L 160.14 162.93 C 160.67 163.54 161.58 163.61 162.19 163.08 C 162.79 162.56 162.86 161.64 162.34 161.04 L 161.69 160.28 C 161.17 159.68 160.25 159.61 159.64 160.13 C 159.04 160.66 158.97 161.57 159.49 162.18 Z M 160.19 162.97 L 160.86 163.69 C 161.40 164.27 162.32 164.30 162.90 163.76 C 163.48 163.22 163.51 162.30 162.97 161.72 L 162.30 161.00 C 161.75 160.42 160.84 160.39 160.26 160.93 C 159.67 161.47 159.64 162.39 160.19 162.97 Z M 160.91 163.73 L 161.61 164.42 C 162.17 164.98 163.08 164.97 163.64 164.40 C 164.20 163.84 164.19 162.93 163.62 162.37 L 162.92 161.68 C 162.35 161.13 161.45 161.13 160.89 161.70 C 160.33 162.26 160.34 163.17 160.91 163.73 Z M 161.66 164.47 L 162.41 165.13 C 163.00 165.66 163.91 165.60 164.43 165.01 C 164.96 164.42 164.90 163.52 164.31 162.99 L 163.57 162.33 C 162.98 161.80 162.07 161.85 161.55 162.45 C 161.02 163.04 161.07 163.94 161.66 164.47 Z M 162.47 165.18 L 163.28 165.81 C 163.89 166.30 164.79 166.20 165.28 165.58 C 165.77 164.97 165.67 164.07 165.05 163.58 L 164.25 162.94 C 163.63 162.45 162.74 162.55 162.24 163.17 C 161.75 163.79 161.86 164.69 162.47 165.18 Z M 163.33 165.86 L 164.12 166.42 C 164.76 166.88 165.65 166.73 166.11 166.09 C 166.57 165.45 166.42 164.56 165.78 164.10 L 164.99 163.54 C 164.35 163.08 163.46 163.23 163.00 163.87 C 162.55 164.51 162.69 165.40 163.33 165.86 Z M 164.16 166.45 L 165.00 167.00 C 165.65 167.43 166.54 167.25 166.97 166.60 C 167.41 165.94 167.23 165.06 166.57 164.62 L 165.74 164.07 C 165.08 163.64 164.20 163.82 163.76 164.47 C 163.33 165.13 163.51 166.01 164.16 166.45 Z M 165.02 167.01 L 165.88 167.56 C 166.55 167.98 167.43 167.78 167.85 167.11 C 168.27 166.45 168.07 165.57 167.40 165.15 L 166.54 164.60 C 165.88 164.18 165.00 164.38 164.58 165.05 C 164.16 165.71 164.36 166.59 165.02 167.01 Z M 165.89 167.56 L 166.64 168.03 C 167.31 168.44 168.19 168.23 168.60 167.56 C 169.02 166.89 168.81 166.01 168.14 165.60 L 167.39 165.14 C 166.72 164.73 165.84 164.93 165.43 165.60 C 165.02 166.27 165.22 167.15 165.89 167.56 Z"
      fill="black"
      fill-rule="nonzero" /></svg>