<svg xmlns="http://www.w3.org/2000/svg" width="300" height="300" viewBox="0 0 300 300">
<path d="M 139.49 148.90 L 138.55 148.65 C 137.71 148.42 136.86 148.92 136.63 149.75 C 136.41 150.58 136.90 151.44 137.73 151.66 L 138.67 151.92 C 139.51 152.14 140.36 151.65 140.59 150.82 C 140.81 149.98 140.32 149.13 139.49 148.90 Z M 138.56 148.64 L 137.61 148.37 C 136.77 148.14 135.90 148.64 135.67 149.47 C 135.44 150.31 135.93 151.18 136.77 151.41 L 137.72 151.67 C 138.56 151.91 139.43 151.41 139.66 150.57 C 139.89 149.74 139.40 148.87 138.56 148.64 Z M 137.63 148.37 L 136.65 148.09 C 135.81 147.85 134.93 148.33 134.69 149.18 C 134.45 150.02 134.94 150.90 135.78 151.14 L 136.75 151.42 C 137.60 151.66 138.48 151.17 138.72 150.33 C 138.96 149.49 138.47 148.61 137.63 148.37 Z M 136.68 148.08 L 135.73 147.80 C 134.88 147.54 133.99 148.02 133.73 148.87 C 133.48 149.72 133.96 150.61 134.81 150.86 L 135.76 151.15 C 136.60 151.40 137.50 150.92 137.75 150.08 C 138.00 149.23 137.52 148.34 136.68 148.08 Z M 135.74 147.79 L 134.87 147.52 C 134.02 147.26 133.12 147.73 132.85 148.58 C 132.59 149.43 133.07 150.34 133.92 150.60 L 134.79 150.87 C 135.64 151.13 136.54 150.66 136.81 149.81 C 137.07 148.96 136.59 148.05 135.74 147.79 Z M 134.86 147.51 L 133.94 147.23 C 133.08 146.97 132.18 147.45 131.92 148.31 C 131.66 149.16 132.14 150.07 133.00 150.33 L 133.92 150.61 C 134.78 150.87 135.68 150.39 135.94 149.53 C 136.20 148.67 135.72 147.77 134.86 147.51 Z M 133.91 147.21 L 132.92 146.93 C 132.06 146.68 131.15 147.18 130.91 148.05 C 130.66 148.91 131.16 149.82 132.03 150.06 L 133.02 150.35 C 133.89 150.59 134.79 150.09 135.03 149.23 C 135.28 148.36 134.78 147.46 133.91 147.21 Z M 132.88 146.91 L 131.80 146.63 C 130.93 146.41 130.04 146.93 129.81 147.81 C 129.58 148.69 130.11 149.58 130.99 149.80 L 132.07 150.08 C 132.94 150.31 133.84 149.78 134.06 148.90 C 134.29 148.03 133.76 147.13 132.88 146.91 Z M 131.76 146.61 L 130.53 146.33 C 129.64 146.13 128.76 146.68 128.56 147.57 C 128.35 148.46 128.91 149.35 129.80 149.55 L 131.03 149.83 C 131.92 150.03 132.80 149.47 133.01 148.58 C 133.21 147.69 132.65 146.81 131.76 146.61 Z M 130.51 146.31 L 129.32 146.05 C 128.42 145.86 127.53 146.44 127.34 147.34 C 127.15 148.24 127.73 149.13 128.63 149.32 L 129.82 149.57 C 130.72 149.76 131.61 149.18 131.80 148.28 C 131.99 147.38 131.41 146.50 130.51 146.31 Z M 129.33 146.04 L 128.34 145.83 C 127.43 145.63 126.54 146.21 126.34 147.12 C 126.15 148.03 126.73 148.93 127.64 149.12 L 128.62 149.33 C 129.53 149.53 130.43 148.95 130.62 148.04 C 130.82 147.13 130.24 146.23 129.33 146.04 Z M 128.41 145.83 L 127.80 145.67 C 126.89 145.44 125.96 145.99 125.73 146.90 C 125.50 147.81 126.05 148.74 126.96 148.97 L 127.57 149.13 C 128.48 149.36 129.41 148.81 129.64 147.90 C 129.87 146.99 129.32 146.06 128.41 145.83 Z M 129.04 147.73 L 129.07 147.62 C 129.30 146.70 128.74 145.77 127.82 145.55 C 126.90 145.32 125.97 145.88 125.75 146.80 L 125.72 146.91 C 125.49 147.83 126.05 148.76 126.97 148.98 C 127.89 149.21 128.82 148.65 129.04 147.73 Z M 127.39 148.92 L 128.37 148.94 C 129.31 148.95 130.09 148.19 130.10 147.24 C 130.11 146.30 129.36 145.52 128.41 145.51 L 127.43 145.50 C 126.48 145.48 125.71 146.24 125.70 147.19 C 125.68 148.13 126.44 148.91 127.39 148.92 Z M 128.27 148.93 L 129.63 149.02 C 130.58 149.09 131.40 148.37 131.46 147.43 C 131.52 146.49 130.81 145.67 129.87 145.61 L 128.50 145.51 C 127.56 145.45 126.74 146.16 126.68 147.11 C 126.61 148.05 127.33 148.87 128.27 148.93 Z M 129.60 149.02 L 130.53 149.10 C 131.47 149.19 132.30 148.49 132.38 147.55 C 132.47 146.60 131.77 145.77 130.83 145.69 L 129.90 145.61 C 128.96 145.53 128.13 146.22 128.04 147.16 C 127.96 148.11 128.66 148.94 129.60 149.02 Z M 130.52 149.10 L 131.49 149.19 C 132.43 149.28 133.26 148.59 133.35 147.65 C 133.44 146.70 132.75 145.87 131.81 145.78 L 130.84 145.69 C 129.89 145.60 129.06 146.30 128.97 147.24 C 128.88 148.18 129.58 149.01 130.52 149.10 Z M 131.49 149.19 L 132.50 149.28 C 133.45 149.37 134.28 148.67 134.36 147.73 C 134.45 146.79 133.75 145.96 132.81 145.87 L 131.80 145.78 C 130.86 145.70 130.03 146.39 129.94 147.33 C 129.86 148.27 130.55 149.11 131.49 149.19 Z M 132.52 149.29 L 133.58 149.37 C 134.52 149.45 135.34 148.74 135.42 147.80 C 135.50 146.86 134.79 146.03 133.85 145.96 L 132.80 145.87 C 131.85 145.80 131.03 146.50 130.95 147.44 C 130.88 148.38 131.58 149.21 132.52 149.29 Z M 133.60 149.37 L 134.66 149.44 C 135.60 149.50 136.42 148.78 136.48 147.84 C 136.54 146.90 135.82 146.08 134.88 146.02 L 133.82 145.95 C 132.88 145.89 132.06 146.61 132.00 147.55 C 131.94 148.50 132.66 149.31 133.60 149.37 Z M 134.69 149.44 L 135.73 149.49 C 136.67 149.54 137.48 148.81 137.52 147.87 C 137.57 146.92 136.84 146.12 135.90 146.07 L 134.85 146.02 C 133.91 145.98 133.10 146.70 133.06 147.65 C 133.01 148.59 133.74 149.39 134.69 149.44 Z M 135.75 149.49 L 136.79 149.53 C 137.73 149.56 138.53 148.83 138.56 147.88 C 138.60 146.94 137.86 146.15 136.91 146.11 L 135.88 146.07 C 134.93 146.04 134.14 146.78 134.10 147.72 C 134.07 148.66 134.81 149.46 135.75 149.49 Z M 136.80 149.53 L 137.81 149.56 C 138.75 149.58 139.54 148.84 139.56 147.90 C 139.59 146.95 138.85 146.16 137.90 146.14 L 136.90 146.11 C 135.95 146.09 135.17 146.83 135.14 147.77 C 135.12 148.72 135.86 149.50 136.80 149.53 Z M 137.82 149.56 L 138.76 149.58 C 139.71 149.60 140.49 148.85 140.51 147.90 C 140.53 146.96 139.78 146.18 138.83 146.16 L 137.89 146.14 C 136.95 146.12 136.17 146.87 136.15 147.81 C 136.13 148.76 136.88 149.54 137.82 149.56 Z M 138.77 149.57 L 139.83 149.59 C 140.77 149.60 141.55 148.85 141.56 147.91 C 141.57 146.97 140.82 146.19 139.88 146.18 L 138.82 146.16 C 137.88 146.15 137.11 146.90 137.09 147.84 C 137.08 148.78 137.83 149.56 138.77 149.57 Z M 139.84 149.59 L 140.89 149.60 C 141.83 149.60 142.60 148.85 142.61 147.91 C 142.62 146.97 141.86 146.20 140.92 146.19 L 139.87 146.18 C 138.93 146.17 138.16 146.93 138.15 147.87 C 138.14 148.81 138.90 149.58 139.84 149.59 Z M 140.90 149.59 L 141.84 149.59 C 142.78 149.60 143.55 148.84 143.55 147.90 C 143.55 146.96 142.79 146.20 141.86 146.20 L 140.91 146.19 C 139.98 146.19 139.21 146.95 139.21 147.89 C 139.21 148.82 139.96 149.59 140.90 149.59 Z M 141.85 149.59 L 142.75 149.59 C 143.68 149.59 144.44 148.83 144.44 147.90 C 144.44 146.96 143.68 146.20 142.75 146.20 L 141.85 146.20 C 140.92 146.20 140.16 146.96 140.16 147.89 C 140.16 148.83 140.91 149.59 141.85 149.59 Z M 142.75 149.59 L 143.75 149.58 C 144.68 149.58 145.44 148.83 145.44 147.89 C 145.44 146.96 144.68 146.20 143.75 146.20 L 142.75 146.21 C 141.81 146.21 141.06 146.96 141.06 147.90 C 141.06 148.83 141.82 149.59 142.75 149.59 Z M 143.76 149.58 L 144.76 149.57 C 145.69 149.57 146.44 148.81 146.43 147.88 C 146.43 146.95 145.67 146.20 144.74 146.20 L 143.74 146.21 C 142.81 146.21 142.06 146.97 142.06 147.91 C 142.07 148.84 142.83 149.59 143.76 149.58 Z M 144.77 149.57 L 145.77 149.55 C 146.70 149.54 147.44 148.77 147.43 147.85 C 147.41 146.92 146.65 146.18 145.72 146.19 L 144.72 146.21 C 143.79 146.22 143.05 146.99 143.07 147.92 C 143.08 148.84 143.85 149.58 144.77 149.57 Z M 145.80 149.55 L 146.79 149.52 C 147.71 149.49 148.44 148.71 148.41 147.79 C 148.38 146.86 147.61 146.14 146.68 146.17 L 145.69 146.20 C 144.77 146.23 144.04 147.00 144.07 147.92 C 144.10 148.85 144.87 149.58 145.80 149.55 Z M 146.82 149.51 L 147.82 149.45 C 148.74 149.40 149.44 148.62 149.39 147.70 C 149.34 146.78 148.56 146.07 147.64 146.12 L 146.64 146.18 C 145.72 146.23 145.02 147.01 145.07 147.93 C 145.12 148.85 145.90 149.56 146.82 149.51 Z M 147.87 149.44 L 148.88 149.36 C 149.80 149.28 150.48 148.48 150.40 147.56 C 150.32 146.65 149.52 145.97 148.60 146.04 L 147.59 146.13 C 146.67 146.21 145.99 147.01 146.07 147.93 C 146.15 148.84 146.95 149.52 147.87 149.44 Z M 148.94 149.35 L 149.82 149.24 C 150.73 149.13 151.38 148.31 151.27 147.40 C 151.16 146.49 150.34 145.84 149.43 145.95 L 148.55 146.06 C 147.64 146.17 146.99 146.99 147.10 147.90 C 147.20 148.81 148.03 149.45 148.94 149.35 Z M 149.88 149.23 L 150.81 149.08 C 151.71 148.95 152.33 148.11 152.20 147.21 C 152.06 146.31 151.22 145.69 150.32 145.82 L 149.38 145.96 C 148.48 146.10 147.86 146.94 148.00 147.84 C 148.13 148.74 148.97 149.36 149.88 149.23 Z M 150.86 149.07 L 151.89 148.88 C 152.78 148.72 153.37 147.86 153.21 146.97 C 153.05 146.08 152.19 145.49 151.30 145.65 L 150.27 145.84 C 149.38 146.00 148.78 146.86 148.95 147.75 C 149.11 148.64 149.97 149.23 150.86 149.07 Z M 151.93 148.87 L 152.98 148.65 C 153.87 148.47 154.44 147.60 154.25 146.72 C 154.07 145.83 153.20 145.26 152.32 145.44 L 151.26 145.66 C 150.38 145.85 149.81 146.71 149.99 147.60 C 150.17 148.48 151.04 149.05 151.93 148.87 Z M 153.00 148.64 L 153.91 148.44 C 154.79 148.24 155.34 147.37 155.14 146.49 C 154.95 145.61 154.08 145.06 153.20 145.26 L 152.29 145.46 C 151.42 145.65 150.86 146.52 151.06 147.40 C 151.25 148.28 152.12 148.84 153.00 148.64 Z M 153.92 148.43 L 154.88 148.21 C 155.75 148.00 156.30 147.13 156.09 146.26 C 155.89 145.38 155.02 144.84 154.14 145.04 L 153.18 145.26 C 152.31 145.47 151.76 146.34 151.97 147.22 C 152.17 148.09 153.05 148.63 153.92 148.43 Z M 154.89 148.20 L 155.89 147.96 C 156.76 147.75 157.29 146.88 157.08 146.01 C 156.87 145.14 156.00 144.60 155.13 144.81 L 154.13 145.05 C 153.26 145.26 152.73 146.13 152.93 147.00 C 153.14 147.87 154.02 148.41 154.89 148.20 Z M 155.89 147.95 L 156.91 147.70 C 157.78 147.49 158.31 146.62 158.10 145.75 C 157.88 144.88 157.01 144.35 156.14 144.57 L 155.12 144.82 C 154.26 145.03 153.73 145.90 153.94 146.77 C 154.15 147.63 155.03 148.16 155.89 147.95 Z M 156.92 147.69 L 157.94 147.44 C 158.80 147.23 159.33 146.35 159.11 145.49 C 158.90 144.63 158.02 144.10 157.16 144.32 L 156.14 144.57 C 155.28 144.79 154.75 145.66 154.97 146.52 C 155.18 147.38 156.06 147.91 156.92 147.69 Z M 157.94 147.43 L 158.92 147.18 C 159.78 146.97 160.30 146.10 160.08 145.24 C 159.87 144.39 159.00 143.87 158.14 144.08 L 157.16 144.33 C 156.30 144.54 155.78 145.41 156.00 146.27 C 156.22 147.13 157.08 147.65 157.94 147.43 Z M 158.93 147.17 L 159.90 146.92 C 160.75 146.71 161.26 145.84 161.05 144.99 C 160.83 144.14 159.97 143.63 159.12 143.84 L 158.14 144.09 C 157.29 144.31 156.78 145.17 156.99 146.02 C 157.21 146.88 158.08 147.39 158.93 147.17 Z M 159.90 146.91 L 160.87 146.66 C 161.71 146.44 162.22 145.58 162.00 144.74 C 161.78 143.90 160.92 143.39 160.08 143.61 L 159.11 143.86 C 158.27 144.07 157.76 144.94 157.98 145.78 C 158.20 146.62 159.06 147.13 159.90 146.91 Z M 160.87 146.65 L 161.84 146.40 C 162.67 146.18 163.17 145.32 162.95 144.48 C 162.73 143.65 161.87 143.15 161.04 143.37 L 160.08 143.62 C 159.24 143.84 158.74 144.70 158.96 145.53 C 159.18 146.37 160.04 146.87 160.87 146.65 Z M 161.84 146.38 L 162.79 146.13 C 163.62 145.91 164.12 145.05 163.89 144.22 C 163.67 143.39 162.82 142.90 161.99 143.12 L 161.03 143.38 C 160.20 143.60 159.71 144.45 159.93 145.28 C 160.16 146.11 161.01 146.61 161.84 146.38 Z M 162.80 146.11 L 163.81 145.84 C 164.63 145.61 165.11 144.76 164.89 143.94 C 164.66 143.12 163.81 142.63 162.99 142.86 L 161.98 143.13 C 161.16 143.36 160.68 144.21 160.90 145.03 C 161.13 145.86 161.98 146.34 162.80 146.11 Z M 163.81 145.83 L 164.82 145.54 C 165.64 145.31 166.11 144.46 165.88 143.65 C 165.65 142.83 164.81 142.36 163.99 142.59 L 162.98 142.87 C 162.17 143.10 161.69 143.95 161.92 144.76 C 162.15 145.58 163.00 146.05 163.81 145.83 Z M 164.83 145.53 L 165.81 145.24 C 166.62 145.01 167.08 144.17 166.85 143.36 C 166.62 142.55 165.77 142.08 164.96 142.32 L 163.98 142.60 C 163.18 142.84 162.71 143.68 162.94 144.49 C 163.18 145.30 164.02 145.76 164.83 145.53 Z M 165.82 145.23 L 166.76 144.95 C 167.56 144.71 168.01 143.87 167.77 143.07 C 167.54 142.27 166.69 141.81 165.89 142.05 L 164.96 142.33 C 164.15 142.57 163.70 143.41 163.94 144.21 C 164.18 145.01 165.02 145.47 165.82 145.23 Z M 166.77 144.93 L 167.65 144.66 C 168.45 144.42 168.89 143.58 168.64 142.78 C 168.40 141.99 167.56 141.55 166.77 141.79 L 165.88 142.07 C 165.09 142.31 164.65 143.15 164.89 143.94 C 165.14 144.74 165.98 145.18 166.77 144.93 Z M 167.67 144.64 L 168.70 144.31 C 169.49 144.05 169.92 143.21 169.66 142.43 C 169.41 141.65 168.57 141.22 167.78 141.47 L 166.75 141.81 C 165.97 142.07 165.54 142.91 165.79 143.69 C 166.05 144.47 166.89 144.90 167.67 144.64 Z M 168.74 144.28 L 169.72 143.93 C 170.49 143.66 170.89 142.81 170.61 142.05 C 170.34 141.28 169.49 140.88 168.72 141.15 L 167.75 141.50 C 166.98 141.77 166.58 142.62 166.85 143.39 C 167.13 144.16 167.97 144.56 168.74 144.28 Z M 169.78 143.90 L 170.66 143.53 C 171.41 143.23 171.76 142.37 171.45 141.62 C 171.14 140.87 170.29 140.52 169.54 140.82 L 168.66 141.19 C 167.91 141.50 167.56 142.35 167.87 143.10 C 168.17 143.85 169.03 144.21 169.78 143.90 Z M 170.75 143.48 L 171.56 143.08 C 172.28 142.72 172.57 141.85 172.22 141.13 C 171.86 140.41 170.99 140.12 170.27 140.47 L 169.45 140.88 C 168.73 141.23 168.44 142.11 168.80 142.83 C 169.15 143.55 170.03 143.84 170.75 143.48 Z M 171.67 143.01 L 172.54 142.48 C 173.22 142.06 173.43 141.17 173.02 140.49 C 172.60 139.81 171.71 139.59 171.03 140.01 L 170.16 140.54 C 169.48 140.96 169.26 141.85 169.68 142.53 C 170.10 143.21 170.98 143.42 171.67 143.01 Z M 172.62 142.42 L 173.43 141.84 C 174.07 141.38 174.22 140.48 173.76 139.83 C 173.30 139.19 172.40 139.04 171.76 139.50 L 170.95 140.07 C 170.30 140.53 170.15 141.43 170.61 142.08 C 171.07 142.73 171.97 142.88 172.62 142.42 Z M 173.46 141.80 L 174.22 141.23 C 174.84 140.74 174.96 139.85 174.48 139.22 C 174.00 138.59 173.10 138.47 172.47 138.96 L 171.72 139.53 C 171.09 140.02 170.98 140.91 171.46 141.54 C 171.94 142.17 172.84 142.28 173.46 141.80 Z"
      fill="black"
      fill-rule="nonzero" /><path d="M 166.47 132.19 L 165.86 131.38 C 165.36 130.72 164.43 130.59 163.77 131.08 C 163.12 131.57 162.98 132.51 163.48 133.16 L 164.08 133.97 C 164.58 134.63 165.51 134.76 166.17 134.27 C 166.83 133.78 166.96 132.84 166.47 132.19 Z M 165.86 131.37 L 165.26 130.57 C 164.76 129.91 163.82 129.77 163.16 130.27 C 162.50 130.77 162.37 131.70 162.87 132.36 L 163.47 133.17 C 163.97 133.83 164.91 133.96 165.57 133.47 C 166.23 132.97 166.36 132.03 165.86 131.37 Z M 165.26 130.56 L 164.66 129.77 C 164.16 129.10 163.22 128.97 162.56 129.47 C 161.90 129.97 161.76 130.91 162.26 131.57 L 162.86 132.37 C 163.36 133.03 164.30 133.16 164.97 132.66 C 165.63 132.16 165.76 131.22 165.26 130.56 Z M 164.66 129.76 L 164.07 128.98 C 163.57 128.32 162.62 128.19 161.96 128.69 C 161.30 129.19 161.17 130.14 161.67 130.80 L 162.26 131.58 C 162.76 132.24 163.71 132.37 164.37 131.87 C 165.04 131.37 165.17 130.42 164.66 129.76 Z M 164.08 128.98 L 163.53 128.26 C 163.02 127.59 162.08 127.46 161.41 127.97 C 160.74 128.47 160.61 129.42 161.12 130.09 L 161.67 130.81 C 162.17 131.47 163.12 131.60 163.79 131.10 C 164.45 130.59 164.58 129.64 164.08 128.98 Z M 163.54 128.26 L 162.99 127.52 C 162.49 126.84 161.53 126.70 160.86 127.20 C 160.19 127.71 160.05 128.66 160.55 129.33 L 161.11 130.08 C 161.61 130.75 162.56 130.89 163.23 130.39 C 163.91 129.89 164.05 128.94 163.54 128.26 Z M 163.01 127.54 L 162.42 126.72 C 161.93 126.03 160.98 125.87 160.29 126.36 C 159.61 126.85 159.45 127.80 159.94 128.49 L 160.53 129.31 C 161.02 130.00 161.97 130.16 162.65 129.67 C 163.34 129.18 163.50 128.22 163.01 127.54 Z M 162.45 126.74 L 161.82 125.81 C 161.34 125.11 160.39 124.92 159.69 125.40 C 158.99 125.87 158.80 126.83 159.28 127.53 L 159.91 128.46 C 160.39 129.16 161.34 129.35 162.04 128.87 C 162.74 128.40 162.93 127.44 162.45 126.74 Z M 161.84 125.83 L 161.32 125.02 C 160.86 124.30 159.90 124.09 159.19 124.55 C 158.47 125.01 158.27 125.97 158.73 126.68 L 159.25 127.50 C 159.71 128.22 160.67 128.42 161.38 127.96 C 162.10 127.50 162.31 126.55 161.84 125.83 Z M 161.34 125.03 L 160.81 124.19 C 160.36 123.47 159.41 123.24 158.68 123.70 C 157.95 124.15 157.73 125.10 158.19 125.83 L 158.71 126.67 C 159.16 127.40 160.12 127.62 160.84 127.16 C 161.57 126.71 161.79 125.76 161.34 125.03 Z M 160.83 124.20 L 160.29 123.32 C 159.85 122.59 158.89 122.36 158.15 122.80 C 157.42 123.25 157.19 124.21 157.63 124.95 L 158.17 125.82 C 158.62 126.56 159.58 126.79 160.31 126.34 C 161.05 125.89 161.28 124.93 160.83 124.20 Z M 160.31 123.33 L 159.77 122.43 C 159.32 121.69 158.36 121.45 157.62 121.90 C 156.88 122.35 156.64 123.31 157.09 124.05 L 157.62 124.94 C 158.07 125.68 159.03 125.92 159.77 125.48 C 160.51 125.03 160.75 124.07 160.31 123.33 Z M 159.78 122.43 L 159.26 121.56 C 158.81 120.81 157.84 120.56 157.09 121.01 C 156.35 121.46 156.10 122.43 156.55 123.17 L 157.08 124.05 C 157.52 124.80 158.49 125.04 159.24 124.60 C 159.98 124.15 160.23 123.18 159.78 122.43 Z M 159.26 121.55 L 158.76 120.71 C 158.31 119.96 157.34 119.71 156.59 120.16 C 155.84 120.61 155.59 121.58 156.04 122.33 L 156.54 123.18 C 156.99 123.93 157.96 124.17 158.71 123.72 C 159.47 123.28 159.71 122.30 159.26 121.55 Z M 158.76 120.70 L 158.18 119.73 C 157.73 118.98 156.76 118.74 156.00 119.19 C 155.25 119.64 155.00 120.61 155.45 121.37 L 156.03 122.34 C 156.49 123.09 157.46 123.34 158.22 122.89 C 158.97 122.43 159.22 121.46 158.76 120.70 Z M 158.19 119.73 L 157.65 118.84 C 157.20 118.08 156.22 117.84 155.47 118.29 C 154.71 118.75 154.47 119.72 154.92 120.48 L 155.45 121.37 C 155.91 122.13 156.88 122.37 157.64 121.92 C 158.39 121.47 158.64 120.49 158.19 119.73 Z M 157.66 118.84 L 157.16 118.01 C 156.70 117.25 155.72 117.00 154.97 117.45 C 154.21 117.91 153.96 118.89 154.41 119.64 L 154.91 120.48 C 155.37 121.24 156.35 121.48 157.10 121.03 C 157.86 120.58 158.11 119.60 157.66 118.84 Z M 157.16 118.01 L 156.69 117.21 C 156.24 116.45 155.26 116.20 154.50 116.65 C 153.74 117.10 153.49 118.08 153.94 118.84 L 154.41 119.64 C 154.86 120.40 155.84 120.65 156.60 120.20 C 157.36 119.75 157.61 118.77 157.16 118.01 Z M 156.70 117.22 L 156.22 116.41 C 155.78 115.64 154.80 115.38 154.03 115.83 C 153.26 116.27 153.01 117.26 153.45 118.02 L 153.93 118.84 C 154.38 119.60 155.36 119.86 156.12 119.41 C 156.89 118.97 157.15 117.99 156.70 117.22 Z M 156.23 116.41 L 155.72 115.52 C 155.28 114.75 154.30 114.49 153.53 114.93 C 152.76 115.37 152.49 116.36 152.93 117.13 L 153.44 118.02 C 153.89 118.79 154.87 119.05 155.64 118.61 C 156.41 118.17 156.68 117.18 156.23 116.41 Z M 155.73 115.52 L 155.23 114.65 C 154.79 113.88 153.80 113.61 153.03 114.05 C 152.25 114.49 151.99 115.48 152.43 116.25 L 152.93 117.13 C 153.37 117.90 154.36 118.17 155.13 117.72 C 155.90 117.28 156.17 116.30 155.73 115.52 Z M 155.23 114.64 L 154.73 113.79 C 154.29 113.02 153.30 112.75 152.52 113.20 C 151.75 113.65 151.49 114.64 151.93 115.41 L 152.43 116.26 C 152.88 117.03 153.87 117.30 154.64 116.85 C 155.41 116.40 155.68 115.41 155.23 114.64 Z M 154.73 113.77 L 154.22 112.92 C 153.76 112.15 152.77 111.90 152.00 112.35 C 151.23 112.81 150.98 113.81 151.43 114.58 L 151.94 115.43 C 152.40 116.20 153.39 116.45 154.16 115.99 C 154.93 115.54 155.19 114.54 154.73 113.77 Z M 154.21 112.88 L 153.65 112.00 C 153.17 111.24 152.17 111.01 151.41 111.48 C 150.65 111.96 150.42 112.97 150.89 113.73 L 151.45 114.61 C 151.93 115.37 152.93 115.60 153.69 115.13 C 154.45 114.65 154.68 113.64 154.21 112.88 Z M 153.62 111.94 L 153.05 111.11 C 152.54 110.37 151.52 110.18 150.78 110.69 C 150.04 111.20 149.85 112.21 150.36 112.96 L 150.93 113.78 C 151.44 114.53 152.45 114.72 153.19 114.21 C 153.94 113.70 154.13 112.68 153.62 111.94 Z M 153.00 111.03 L 152.41 110.27 C 151.85 109.56 150.83 109.43 150.11 109.99 C 149.40 110.54 149.27 111.57 149.83 112.29 L 150.41 113.04 C 150.97 113.75 152.00 113.88 152.71 113.33 C 153.42 112.77 153.55 111.74 153.00 111.03 Z M 152.30 110.15 L 151.51 109.31 C 150.88 108.66 149.84 108.63 149.19 109.26 C 148.53 109.89 148.51 110.92 149.13 111.58 L 149.93 112.41 C 150.56 113.07 151.60 113.09 152.25 112.47 C 152.91 111.84 152.93 110.80 152.30 110.15 Z M 151.23 109.08 L 150.39 108.51 C 149.63 108.01 148.61 108.21 148.10 108.97 C 147.60 109.73 147.81 110.75 148.56 111.25 L 149.41 111.82 C 150.17 112.32 151.19 112.12 151.69 111.36 C 152.20 110.60 151.99 109.58 151.23 109.08 Z M 149.31 108.24 L 148.65 108.31 C 147.74 108.40 147.08 109.21 147.18 110.12 C 147.27 111.03 148.08 111.69 148.99 111.59 L 149.64 111.53 C 150.55 111.43 151.21 110.62 151.12 109.71 C 151.02 108.81 150.21 108.15 149.31 108.24 Z M 147.36 109.16 L 146.98 109.87 C 146.54 110.67 146.84 111.68 147.65 112.11 C 148.45 112.55 149.46 112.25 149.89 111.45 L 150.27 110.74 C 150.71 109.94 150.41 108.93 149.61 108.49 C 148.80 108.06 147.80 108.36 147.36 109.16 Z M 146.81 110.33 L 146.59 111.42 C 146.41 112.32 146.99 113.20 147.89 113.38 C 148.79 113.56 149.67 112.97 149.85 112.07 L 150.06 110.98 C 150.25 110.08 149.66 109.21 148.76 109.03 C 147.86 108.85 146.99 109.43 146.81 110.33 Z M 146.56 111.57 L 146.44 112.67 C 146.35 113.59 147.01 114.41 147.93 114.50 C 148.84 114.60 149.66 113.94 149.76 113.02 L 149.87 111.92 C 149.97 111.01 149.31 110.19 148.39 110.09 C 147.48 109.99 146.66 110.66 146.56 111.57 Z M 146.43 112.73 L 146.37 113.70 C 146.30 114.62 147.00 115.41 147.92 115.48 C 148.84 115.54 149.63 114.85 149.70 113.93 L 149.77 112.96 C 149.83 112.04 149.14 111.24 148.22 111.18 C 147.30 111.12 146.50 111.81 146.43 112.73 Z M 146.36 113.74 L 146.32 114.73 C 146.28 115.66 146.99 116.44 147.92 116.48 C 148.84 116.52 149.62 115.80 149.66 114.88 L 149.70 113.89 C 149.74 112.96 149.03 112.18 148.11 112.14 C 147.18 112.10 146.40 112.82 146.36 113.74 Z M 146.31 114.77 L 146.29 115.81 C 146.27 116.73 147.00 117.50 147.92 117.52 C 148.85 117.54 149.62 116.81 149.64 115.89 L 149.67 114.85 C 149.69 113.92 148.96 113.15 148.03 113.13 C 147.11 113.11 146.34 113.84 146.31 114.77 Z M 146.29 115.82 L 146.27 116.73 C 146.26 117.65 147.00 118.42 147.93 118.43 C 148.86 118.44 149.62 117.70 149.63 116.77 L 149.64 115.87 C 149.66 114.94 148.91 114.18 147.99 114.17 C 147.06 114.16 146.30 114.90 146.29 115.82 Z M 146.27 116.74 L 146.26 117.70 C 146.25 118.63 147.00 119.39 147.93 119.40 C 148.86 119.40 149.62 118.66 149.63 117.73 L 149.63 116.77 C 149.64 115.84 148.90 115.08 147.97 115.07 C 147.04 115.06 146.28 115.81 146.27 116.74 Z M 146.26 117.70 L 146.25 118.73 C 146.24 119.66 146.99 120.42 147.92 120.42 C 148.85 120.43 149.61 119.68 149.62 118.75 L 149.63 117.73 C 149.64 116.80 148.89 116.04 147.96 116.03 C 147.03 116.02 146.27 116.77 146.26 117.70 Z M 146.25 118.72 L 146.24 119.81 C 146.23 120.74 146.98 121.51 147.91 121.52 C 148.84 121.53 149.60 120.78 149.61 119.85 L 149.62 118.76 C 149.63 117.83 148.89 117.06 147.95 117.05 C 147.02 117.04 146.26 117.79 146.25 118.72 Z M 146.24 119.80 L 146.22 120.77 C 146.21 121.70 146.95 122.47 147.89 122.48 C 148.82 122.50 149.59 121.75 149.60 120.82 L 149.61 119.85 C 149.63 118.92 148.88 118.15 147.95 118.14 C 147.02 118.13 146.25 118.87 146.24 119.80 Z M 146.22 120.76 L 146.20 121.72 C 146.18 122.66 146.93 123.43 147.86 123.44 C 148.80 123.46 149.57 122.72 149.58 121.78 L 149.60 120.83 C 149.62 119.89 148.88 119.12 147.94 119.10 C 147.01 119.09 146.24 119.83 146.22 120.76 Z M 146.20 121.72 L 146.18 122.71 C 146.16 123.65 146.90 124.42 147.84 124.44 C 148.77 124.46 149.54 123.72 149.56 122.78 L 149.59 121.79 C 149.60 120.85 148.86 120.08 147.93 120.06 C 146.99 120.04 146.22 120.78 146.20 121.72 Z M 146.18 122.71 L 146.15 123.73 C 146.13 124.67 146.87 125.44 147.81 125.47 C 148.75 125.49 149.52 124.75 149.54 123.81 L 149.57 122.79 C 149.59 121.85 148.85 121.07 147.91 121.05 C 146.97 121.03 146.20 121.77 146.18 122.71 Z M 146.15 123.73 L 146.13 124.78 C 146.11 125.72 146.85 126.49 147.78 126.52 C 148.72 126.54 149.50 125.80 149.52 124.86 L 149.55 123.81 C 149.57 122.87 148.82 122.10 147.89 122.07 C 146.95 122.05 146.17 122.79 146.15 123.73 Z M 146.13 124.78 L 146.10 125.79 C 146.08 126.73 146.82 127.51 147.76 127.53 C 148.70 127.55 149.48 126.81 149.50 125.87 L 149.52 124.86 C 149.54 123.92 148.80 123.14 147.86 123.12 C 146.93 123.10 146.15 123.84 146.13 124.78 Z M 146.10 125.79 L 146.08 126.76 C 146.06 127.70 146.80 128.48 147.74 128.50 C 148.68 128.52 149.46 127.78 149.48 126.84 L 149.50 125.87 C 149.52 124.93 148.78 124.15 147.84 124.13 C 146.90 124.11 146.12 124.85 146.10 125.79 Z M 146.08 126.76 L 146.05 127.74 C 146.03 128.68 146.78 129.46 147.72 129.48 C 148.66 129.50 149.44 128.76 149.46 127.82 L 149.48 126.84 C 149.50 125.90 148.76 125.12 147.82 125.10 C 146.88 125.07 146.10 125.82 146.08 126.76 Z M 146.05 127.74 L 146.03 128.74 C 146.01 129.68 146.75 130.46 147.70 130.48 C 148.64 130.51 149.42 129.76 149.44 128.82 L 149.46 127.82 C 149.48 126.88 148.74 126.10 147.79 126.08 C 146.85 126.05 146.07 126.80 146.05 127.74 Z M 146.03 128.74 L 146.01 129.76 C 145.98 130.70 146.73 131.48 147.67 131.50 C 148.62 131.52 149.40 130.78 149.42 129.83 L 149.44 128.82 C 149.46 127.87 148.71 127.09 147.77 127.07 C 146.83 127.05 146.05 127.80 146.03 128.74 Z M 146.00 129.76 L 145.98 130.79 C 145.96 131.74 146.71 132.52 147.65 132.54 C 148.60 132.56 149.38 131.81 149.40 130.87 L 149.42 129.83 C 149.44 128.89 148.69 128.11 147.75 128.09 C 146.80 128.07 146.02 128.81 146.00 129.76 Z M 145.98 130.79 L 145.96 131.80 C 145.94 132.74 146.69 133.52 147.63 133.54 C 148.58 133.56 149.36 132.81 149.38 131.87 L 149.40 130.86 C 149.42 129.92 148.67 129.14 147.73 129.12 C 146.78 129.10 146.00 129.85 145.98 130.79 Z M 145.96 131.80 L 145.94 132.77 C 145.92 133.72 146.67 134.50 147.61 134.52 C 148.56 134.54 149.34 133.79 149.36 132.84 L 149.38 131.87 C 149.40 130.92 148.65 130.14 147.70 130.12 C 146.76 130.10 145.98 130.85 145.96 131.80 Z M 145.93 132.77 L 145.91 133.76 C 145.89 134.70 146.64 135.49 147.59 135.51 C 148.54 135.53 149.32 134.78 149.34 133.83 L 149.36 132.84 C 149.38 131.90 148.63 131.11 147.69 131.09 C 146.74 131.07 145.95 131.82 145.93 132.77 Z M 145.91 133.76 L 145.89 134.76 C 145.87 135.70 146.62 136.49 147.57 136.51 C 148.51 136.53 149.30 135.78 149.32 134.83 L 149.34 133.83 C 149.37 132.88 148.61 132.10 147.67 132.08 C 146.72 132.06 145.93 132.81 145.91 133.76 Z M 145.89 134.75 L 145.86 135.76 C 145.84 136.71 146.59 137.50 147.54 137.52 C 148.49 137.55 149.28 136.79 149.30 135.84 L 149.32 134.83 C 149.35 133.89 148.60 133.10 147.65 133.07 C 146.70 133.05 145.91 133.80 145.89 134.75 Z M 145.86 135.76 L 145.83 136.78 C 145.81 137.73 146.56 138.52 147.51 138.54 C 148.46 138.57 149.25 137.82 149.28 136.87 L 149.30 135.85 C 149.33 134.90 148.58 134.11 147.62 134.08 C 146.67 134.06 145.88 134.81 145.86 135.76 Z M 145.83 136.77 L 145.80 137.80 C 145.78 138.75 146.53 139.54 147.48 139.57 C 148.43 139.60 149.22 138.85 149.25 137.90 L 149.28 136.87 C 149.30 135.92 148.55 135.13 147.60 135.10 C 146.65 135.07 145.86 135.82 145.83 136.77 Z M 145.80 137.80 L 145.77 138.78 C 145.74 139.73 146.49 140.53 147.44 140.56 C 148.40 140.59 149.19 139.84 149.22 138.89 L 149.25 137.90 C 149.28 136.95 148.53 136.15 147.58 136.12 C 146.63 136.09 145.83 136.84 145.80 137.80 Z M 145.77 138.78 L 145.74 139.76 C 145.71 140.72 146.45 141.52 147.41 141.55 C 148.36 141.58 149.16 140.83 149.19 139.88 L 149.22 138.89 C 149.25 137.94 148.51 137.14 147.55 137.11 C 146.60 137.08 145.80 137.82 145.77 138.78 Z M 145.74 139.76 L 145.70 140.76 C 145.67 141.71 146.41 142.51 147.37 142.54 C 148.32 142.58 149.12 141.83 149.16 140.88 L 149.19 139.88 C 149.22 138.93 148.48 138.13 147.52 138.09 C 146.57 138.06 145.77 138.81 145.74 139.76 Z M 145.70 140.75 L 145.66 141.75 C 145.63 142.71 146.38 143.51 147.33 143.54 C 148.29 143.58 149.09 142.83 149.12 141.88 L 149.16 140.88 C 149.19 139.92 148.45 139.12 147.49 139.09 C 146.54 139.05 145.73 139.80 145.70 140.75 Z M 145.66 141.75 L 145.62 142.76 C 145.59 143.71 146.34 144.52 147.29 144.55 C 148.25 144.59 149.05 143.84 149.09 142.88 L 149.12 141.88 C 149.16 140.92 148.41 140.12 147.46 140.08 C 146.50 140.05 145.70 140.79 145.66 141.75 Z M 145.62 142.75 L 145.58 143.77 C 145.55 144.72 146.30 145.53 147.25 145.56 C 148.21 145.60 149.01 144.85 149.05 143.90 L 149.09 142.89 C 149.12 141.93 148.38 141.12 147.42 141.09 C 146.46 141.05 145.66 141.80 145.62 142.75 Z M 145.58 143.77 L 145.54 144.78 C 145.51 145.74 146.26 146.54 147.21 146.58 C 148.17 146.61 148.98 145.87 149.01 144.91 L 149.05 143.90 C 149.09 142.94 148.34 142.13 147.38 142.10 C 146.43 142.06 145.62 142.81 145.58 143.77 Z M 145.54 144.78 L 145.51 145.76 C 145.47 146.72 146.22 147.52 147.18 147.56 C 148.14 147.60 148.94 146.85 148.98 145.89 L 149.02 144.91 C 149.05 143.95 148.30 143.14 147.34 143.11 C 146.39 143.07 145.58 143.82 145.54 144.78 Z M 145.50 145.76 L 145.47 146.75 C 145.43 147.71 146.18 148.51 147.14 148.55 C 148.10 148.58 148.91 147.84 148.94 146.88 L 148.98 145.89 C 149.02 144.93 148.27 144.12 147.31 144.09 C 146.35 144.05 145.54 144.80 145.50 145.76 Z M 145.47 146.75 L 145.43 147.74 C 145.39 148.70 146.14 149.51 147.10 149.54 C 148.06 149.58 148.87 148.83 148.91 147.87 L 148.95 146.88 C 148.98 145.91 148.23 145.11 147.27 145.07 C 146.31 145.04 145.50 145.79 145.47 146.75 Z M 145.43 147.74 L 145.39 148.74 C 145.35 149.70 146.11 150.51 147.07 150.54 C 148.03 150.58 148.84 149.83 148.87 148.87 L 148.91 147.87 C 148.95 146.91 148.19 146.10 147.23 146.06 C 146.27 146.03 145.46 146.78 145.43 147.74 Z M 145.39 148.74 L 145.35 149.74 C 145.32 150.71 146.07 151.51 147.03 151.55 C 147.99 151.59 148.80 150.83 148.84 149.87 L 148.87 148.87 C 148.91 147.90 148.16 147.09 147.20 147.06 C 146.23 147.02 145.42 147.78 145.39 148.74 Z M 145.35 149.74 L 145.31 150.76 C 145.28 151.72 146.03 152.53 146.99 152.56 C 147.96 152.60 148.77 151.85 148.80 150.88 L 148.84 149.87 C 148.87 148.91 148.12 148.10 147.16 148.06 C 146.19 148.03 145.39 148.78 145.35 149.74 Z M 145.31 150.76 L 145.27 151.78 C 145.24 152.74 145.99 153.55 146.96 153.58 C 147.92 153.62 148.73 152.87 148.77 151.90 L 148.80 150.88 C 148.84 149.92 148.09 149.11 147.12 149.07 C 146.16 149.04 145.35 149.79 145.31 150.76 Z M 145.27 151.78 L 145.24 152.74 C 145.20 153.70 145.96 154.51 146.92 154.55 C 147.89 154.58 148.70 153.83 148.73 152.86 L 148.77 151.90 C 148.80 150.94 148.05 150.13 147.08 150.09 C 146.12 150.06 145.31 150.81 145.27 151.78 Z M 145.24 152.74 L 145.20 153.70 C 145.17 154.67 145.92 155.48 146.89 155.52 C 147.85 155.55 148.67 154.80 148.70 153.83 L 148.74 152.86 C 148.77 151.90 148.02 151.09 147.05 151.05 C 146.08 151.02 145.27 151.77 145.24 152.74 Z M 145.20 153.70 L 145.17 154.68 C 145.13 155.64 145.88 156.46 146.85 156.49 C 147.82 156.53 148.63 155.77 148.67 154.81 L 148.70 153.83 C 148.74 152.86 147.98 152.05 147.02 152.02 C 146.05 151.98 145.24 152.73 145.20 153.70 Z M 145.16 154.67 L 145.13 155.66 C 145.09 156.63 145.84 157.44 146.81 157.48 C 147.78 157.52 148.59 156.76 148.63 155.80 L 148.67 154.81 C 148.70 153.84 147.95 153.03 146.98 152.99 C 146.01 152.95 145.20 153.71 145.16 154.67 Z M 145.12 155.66 L 145.08 156.66 C 145.05 157.63 145.80 158.45 146.77 158.49 C 147.74 158.52 148.55 157.77 148.59 156.80 L 148.63 155.80 C 148.67 154.83 147.92 154.02 146.95 153.98 C 145.98 153.94 145.16 154.69 145.12 155.66 Z M 145.08 156.66 L 145.04 157.68 C 145.00 158.65 145.75 159.47 146.72 159.51 C 147.69 159.55 148.51 158.79 148.55 157.83 L 148.59 156.81 C 148.63 155.84 147.88 155.02 146.91 154.98 C 145.94 154.94 145.12 155.69 145.08 156.66 Z M 145.04 157.67 L 144.99 158.71 C 144.95 159.68 145.70 160.50 146.67 160.54 C 147.64 160.59 148.46 159.84 148.50 158.87 L 148.55 157.83 C 148.59 156.86 147.84 156.04 146.87 156.00 C 145.90 155.95 145.08 156.70 145.04 157.67 Z M 144.99 158.71 L 144.94 159.74 C 144.90 160.71 145.65 161.54 146.62 161.58 C 147.59 161.63 148.41 160.88 148.46 159.91 L 148.50 158.87 C 148.55 157.90 147.80 157.08 146.83 157.03 C 145.86 156.99 145.04 157.74 144.99 158.71 Z M 144.94 159.74 L 144.89 160.72 C 144.84 161.69 145.59 162.52 146.56 162.56 C 147.53 162.61 148.36 161.87 148.41 160.90 L 148.46 159.92 C 148.51 158.95 147.76 158.12 146.79 158.07 C 145.82 158.02 144.99 158.77 144.94 159.74 Z M 144.89 160.71 L 144.84 161.71 C 144.79 162.68 145.53 163.51 146.50 163.56 C 147.48 163.61 148.30 162.86 148.36 161.89 L 148.41 160.90 C 148.46 159.93 147.71 159.10 146.74 159.05 C 145.77 159.00 144.94 159.74 144.89 160.71 Z M 144.84 161.70 L 144.78 162.71 C 144.73 163.68 145.47 164.51 146.45 164.56 C 147.42 164.61 148.25 163.87 148.30 162.90 L 148.36 161.90 C 148.41 160.92 147.67 160.09 146.69 160.04 C 145.72 159.99 144.89 160.73 144.84 161.70 Z M 144.78 162.70 L 144.72 163.71 C 144.67 164.68 145.41 165.52 146.38 165.57 C 147.36 165.63 148.19 164.88 148.25 163.91 L 148.30 162.90 C 148.36 161.93 147.61 161.10 146.64 161.04 C 145.67 160.99 144.84 161.73 144.78 162.70 Z M 144.72 163.71 L 144.66 164.72 C 144.61 165.69 145.35 166.52 146.32 166.58 C 147.30 166.64 148.13 165.90 148.19 164.92 L 148.25 163.91 C 148.30 162.94 147.56 162.11 146.59 162.05 C 145.62 161.99 144.78 162.73 144.72 163.71 Z M 144.66 164.71 L 144.60 165.72 C 144.54 166.70 145.29 167.53 146.26 167.59 C 147.23 167.65 148.07 166.91 148.13 165.94 L 148.19 164.93 C 148.25 163.95 147.51 163.12 146.53 163.06 C 145.56 163.00 144.72 163.74 144.66 164.71 Z M 144.60 165.72 L 144.54 166.72 C 144.48 167.70 145.22 168.54 146.19 168.60 C 147.17 168.65 148.01 167.91 148.07 166.94 L 148.13 165.94 C 148.19 164.96 147.45 164.13 146.47 164.07 C 145.50 164.01 144.66 164.75 144.60 165.72 Z M 144.54 166.72 L 144.48 167.71 C 144.42 168.69 145.16 169.53 146.13 169.59 C 147.10 169.65 147.94 168.91 148.01 167.94 L 148.07 166.94 C 148.13 165.97 147.39 165.13 146.41 165.07 C 145.44 165.01 144.60 165.75 144.54 166.72 Z M 144.48 167.71 L 144.41 168.73 C 144.35 169.71 145.09 170.55 146.06 170.61 C 147.04 170.67 147.88 169.93 147.94 168.96 L 148.01 167.94 C 148.07 166.96 147.33 166.12 146.35 166.06 C 145.38 166.00 144.54 166.74 144.48 167.71 Z M 144.41 168.73 L 144.34 169.75 C 144.28 170.73 145.02 171.57 146.00 171.63 C 146.97 171.69 147.81 170.96 147.88 169.98 L 147.94 168.96 C 148.01 167.98 147.27 167.14 146.29 167.08 C 145.31 167.02 144.47 167.75 144.41 168.73 Z M 144.34 169.75 L 144.28 170.76 C 144.21 171.73 144.95 172.58 145.93 172.64 C 146.90 172.70 147.75 171.97 147.81 170.99 L 147.88 169.98 C 147.94 169.00 147.20 168.16 146.23 168.10 C 145.25 168.03 144.41 168.77 144.34 169.75 Z M 144.28 170.76 L 144.21 171.75 C 144.14 172.73 144.88 173.58 145.86 173.64 C 146.84 173.70 147.68 172.97 147.75 171.99 L 147.81 170.99 C 147.88 170.01 147.14 169.17 146.16 169.10 C 145.18 169.04 144.34 169.78 144.28 170.76 Z M 144.21 171.75 L 144.14 172.74 C 144.08 173.72 144.82 174.57 145.79 174.63 C 146.77 174.70 147.62 173.96 147.68 172.98 L 147.75 171.99 C 147.81 171.01 147.07 170.17 146.10 170.10 C 145.12 170.04 144.27 170.78 144.21 171.75 Z M 144.14 172.74 L 144.08 173.73 C 144.01 174.71 144.75 175.55 145.73 175.62 C 146.71 175.68 147.55 174.94 147.62 173.97 L 147.68 172.98 C 147.75 172.00 147.01 171.16 146.03 171.09 C 145.05 171.03 144.21 171.77 144.14 172.74 Z M 144.07 173.73 L 144.01 174.71 C 143.94 175.69 144.68 176.53 145.66 176.60 C 146.64 176.67 147.49 175.93 147.55 174.95 L 147.62 173.97 C 147.68 172.99 146.94 172.14 145.97 172.07 C 144.99 172.01 144.14 172.75 144.07 173.73 Z M 144.01 174.71 L 143.94 175.69 C 143.88 176.67 144.62 177.52 145.59 177.58 C 146.57 177.65 147.42 176.91 147.49 175.93 L 147.55 174.95 C 147.62 173.97 146.88 173.12 145.90 173.05 C 144.92 172.99 144.07 173.73 144.01 174.71 Z M 143.94 175.69 L 143.87 176.68 C 143.81 177.66 144.55 178.51 145.53 178.58 C 146.51 178.64 147.36 177.90 147.42 176.92 L 147.49 175.93 C 147.55 174.95 146.81 174.10 145.83 174.03 C 144.85 173.97 144.01 174.71 143.94 175.69 Z M 143.87 176.68 L 143.80 177.69 C 143.74 178.67 144.48 179.51 145.46 179.58 C 146.44 179.65 147.29 178.91 147.35 177.93 L 147.42 176.92 C 147.49 175.94 146.75 175.09 145.77 175.03 C 144.79 174.96 143.94 175.70 143.87 176.68 Z M 143.80 177.68 L 143.74 178.69 C 143.67 179.67 144.41 180.52 145.39 180.58 C 146.37 180.65 147.22 179.91 147.29 178.93 L 147.35 177.93 C 147.42 176.95 146.68 176.10 145.70 176.03 C 144.72 175.96 143.87 176.70 143.80 177.68 Z M 143.74 178.68 L 143.67 179.68 C 143.60 180.67 144.34 181.52 145.32 181.58 C 146.30 181.65 147.15 180.91 147.22 179.93 L 147.29 178.93 C 147.36 177.95 146.62 177.10 145.64 177.03 C 144.65 176.96 143.80 177.70 143.74 178.68 Z M 143.67 179.68 L 143.59 180.68 C 143.52 181.66 144.26 182.51 145.24 182.58 C 146.22 182.65 147.07 181.92 147.14 180.94 L 147.22 179.94 C 147.29 178.96 146.55 178.10 145.57 178.03 C 144.59 177.96 143.74 178.70 143.67 179.68 Z M 143.59 180.68 L 143.52 181.67 C 143.44 182.65 144.18 183.51 145.16 183.58 C 146.14 183.65 147.00 182.92 147.07 181.94 L 147.14 180.94 C 147.22 179.96 146.48 179.11 145.50 179.03 C 144.52 178.96 143.67 179.69 143.59 180.68 Z M 143.52 181.67 L 143.44 182.66 C 143.36 183.64 144.10 184.50 145.08 184.57 C 146.06 184.65 146.92 183.92 146.99 182.94 L 147.07 181.94 C 147.15 180.96 146.41 180.11 145.43 180.03 C 144.45 179.95 143.59 180.68 143.52 181.67 Z M 143.44 182.65 L 143.36 183.64 C 143.28 184.62 144.01 185.48 144.99 185.56 C 145.97 185.64 146.83 184.91 146.91 183.93 L 146.99 182.94 C 147.07 181.96 146.34 181.10 145.36 181.02 C 144.38 180.94 143.52 181.67 143.44 182.65 Z M 143.36 183.63 L 143.27 184.64 C 143.19 185.62 143.91 186.49 144.89 186.57 C 145.87 186.66 146.74 185.93 146.82 184.95 L 146.91 183.94 C 147.00 182.96 146.27 182.09 145.29 182.01 C 144.31 181.92 143.44 182.65 143.36 183.63 Z M 143.27 184.63 L 143.18 185.65 C 143.09 186.63 143.81 187.50 144.79 187.59 C 145.77 187.68 146.64 186.95 146.73 185.97 L 146.82 184.96 C 146.91 183.98 146.19 183.11 145.21 183.02 C 144.23 182.93 143.36 183.65 143.27 184.63 Z M 143.18 185.64 L 143.08 186.65 C 142.99 187.63 143.71 188.50 144.69 188.59 C 145.67 188.68 146.54 187.96 146.63 186.98 L 146.73 185.98 C 146.82 185.00 146.10 184.13 145.12 184.03 C 144.14 183.94 143.27 184.66 143.18 185.64 Z M 143.08 186.64 L 142.99 187.64 C 142.89 188.62 143.61 189.49 144.59 189.59 C 145.57 189.68 146.44 188.97 146.54 187.99 L 146.63 186.99 C 146.73 186.01 146.01 185.14 145.03 185.04 C 144.05 184.94 143.18 185.66 143.08 186.64 Z M 142.99 187.64 L 142.89 188.63 C 142.79 189.61 143.51 190.48 144.49 190.58 C 145.47 190.68 146.34 189.96 146.44 188.98 L 146.54 187.99 C 146.63 187.01 145.92 186.14 144.94 186.04 C 143.96 185.94 143.08 186.66 142.99 187.64 Z M 142.89 188.63 L 142.79 189.61 C 142.69 190.59 143.40 191.47 144.39 191.57 C 145.37 191.66 146.24 190.95 146.34 189.97 L 146.44 188.98 C 146.54 188.00 145.82 187.13 144.84 187.03 C 143.86 186.93 142.99 187.65 142.89 188.63 Z M 142.79 189.61 L 142.69 190.59 C 142.59 191.57 143.31 192.45 144.29 192.54 C 145.27 192.64 146.14 191.93 146.24 190.95 L 146.34 189.97 C 146.44 188.99 145.72 188.11 144.74 188.01 C 143.76 187.92 142.89 188.63 142.79 189.61 Z M 142.69 190.59 L 142.59 191.58 C 142.49 192.56 143.21 193.43 144.19 193.53 C 145.17 193.63 146.05 192.91 146.14 191.93 L 146.24 190.94 C 146.34 189.96 145.62 189.09 144.64 188.99 C 143.66 188.89 142.79 189.61 142.69 190.59 Z M 142.59 191.58 L 142.49 192.60 C 142.39 193.58 143.11 194.46 144.09 194.55 C 145.08 194.65 145.95 193.93 146.05 192.95 L 146.15 191.93 C 146.24 190.95 145.52 190.07 144.54 189.98 C 143.56 189.88 142.69 190.60 142.59 191.58 Z M 142.49 192.60 L 142.39 193.61 C 142.30 194.60 143.02 195.47 144.00 195.56 C 144.98 195.66 145.85 194.94 145.95 193.96 L 146.05 192.95 C 146.14 191.96 145.42 191.09 144.44 190.99 C 143.46 190.90 142.58 191.62 142.49 192.60 Z M 142.39 193.62 L 142.29 194.62 C 142.20 195.60 142.92 196.48 143.90 196.57 C 144.89 196.66 145.76 195.94 145.85 194.96 L 145.95 193.96 C 146.04 192.97 145.32 192.10 144.34 192.00 C 143.36 191.91 142.48 192.63 142.39 193.62 Z M 142.29 194.62 L 142.20 195.61 C 142.10 196.60 142.83 197.47 143.81 197.57 C 144.79 197.66 145.67 196.94 145.76 195.95 L 145.86 194.96 C 145.95 193.97 145.23 193.10 144.24 193.01 C 143.26 192.91 142.39 193.64 142.29 194.62 Z M 142.20 195.61 L 142.10 196.60 C 142.01 197.58 142.73 198.46 143.72 198.55 C 144.70 198.65 145.58 197.92 145.67 196.94 L 145.76 195.95 C 145.86 194.97 145.13 194.09 144.15 194.00 C 143.16 193.91 142.29 194.63 142.20 195.61 Z M 142.10 196.60 L 142.01 197.57 C 141.92 198.56 142.64 199.43 143.62 199.53 C 144.61 199.62 145.48 198.90 145.58 197.91 L 145.67 196.94 C 145.76 195.95 145.04 195.08 144.06 194.98 C 143.07 194.89 142.20 195.61 142.10 196.60 Z M 142.01 197.57 L 141.91 198.54 C 141.82 199.53 142.54 200.41 143.53 200.50 C 144.51 200.60 145.39 199.87 145.49 198.89 L 145.58 197.92 C 145.67 196.93 144.95 196.05 143.96 195.96 C 142.98 195.86 142.10 196.59 142.01 197.57 Z M 141.91 198.54 L 141.82 199.55 C 141.72 200.54 142.44 201.41 143.43 201.51 C 144.42 201.60 145.29 200.88 145.39 199.90 L 145.49 198.89 C 145.58 197.90 144.86 197.03 143.87 196.93 C 142.89 196.83 142.01 197.56 141.91 198.54 Z M 141.82 199.55 L 141.72 200.55 C 141.62 201.54 142.35 202.41 143.33 202.51 C 144.32 202.60 145.19 201.88 145.29 200.90 L 145.39 199.90 C 145.48 198.91 144.76 198.03 143.78 197.94 C 142.79 197.84 141.91 198.57 141.82 199.55 Z M 141.72 200.55 L 141.62 201.55 C 141.53 202.53 142.25 203.41 143.24 203.50 C 144.22 203.60 145.10 202.88 145.19 201.89 L 145.29 200.90 C 145.39 199.91 144.66 199.03 143.68 198.94 C 142.69 198.84 141.82 199.57 141.72 200.55 Z M 141.62 201.55 L 141.53 202.54 C 141.44 203.52 142.16 204.40 143.14 204.49 C 144.13 204.59 145.00 203.86 145.10 202.88 L 145.19 201.89 C 145.29 200.90 144.57 200.03 143.58 199.93 C 142.59 199.84 141.72 200.56 141.62 201.55 Z M 141.53 202.54 L 141.44 203.53 C 141.34 204.51 142.07 205.39 143.05 205.48 C 144.04 205.57 144.91 204.85 145.01 203.87 L 145.10 202.88 C 145.19 201.89 144.47 201.02 143.48 200.92 C 142.50 200.83 141.62 201.55 141.53 202.54 Z M 141.44 203.53 L 141.35 204.52 C 141.26 205.51 141.98 206.38 142.97 206.47 C 143.95 206.56 144.82 205.84 144.92 204.85 L 145.01 203.86 C 145.10 202.88 144.37 202.00 143.39 201.91 C 142.40 201.82 141.53 202.55 141.44 203.53 Z M 141.35 204.53 L 141.26 205.54 C 141.17 206.52 141.90 207.39 142.88 207.48 C 143.87 207.57 144.74 206.84 144.83 205.85 L 144.91 204.85 C 145.00 203.86 144.27 202.99 143.29 202.90 C 142.30 202.82 141.43 203.54 141.35 204.53 Z M 141.26 205.54 L 141.17 206.58 C 141.09 207.57 141.82 208.43 142.80 208.52 C 143.78 208.60 144.65 207.87 144.74 206.89 L 144.82 205.85 C 144.91 204.86 144.18 204.00 143.19 203.91 C 142.21 203.83 141.34 204.56 141.26 205.54 Z M 141.17 206.59 L 141.09 207.62 C 141.01 208.61 141.74 209.47 142.72 209.55 C 143.70 209.63 144.57 208.90 144.65 207.92 L 144.73 206.88 C 144.81 205.90 144.08 205.04 143.10 204.96 C 142.12 204.87 141.25 205.61 141.17 206.59 Z M 141.09 207.63 L 141.01 208.65 C 140.93 209.63 141.66 210.49 142.65 210.57 C 143.63 210.65 144.49 209.91 144.56 208.93 L 144.65 207.91 C 144.72 206.93 143.99 206.07 143.01 205.99 C 142.03 205.91 141.17 206.65 141.09 207.63 Z M 141.01 208.66 L 140.93 209.65 C 140.86 210.63 141.59 211.49 142.58 211.56 C 143.56 211.64 144.41 210.90 144.49 209.92 L 144.56 208.93 C 144.64 207.94 143.90 207.09 142.92 207.01 C 141.94 206.94 141.09 207.67 141.01 208.66 Z M 140.94 209.66 L 140.87 210.62 C 140.79 211.60 141.53 212.46 142.51 212.53 C 143.49 212.60 144.34 211.86 144.41 210.88 L 144.48 209.92 C 144.56 208.94 143.82 208.09 142.84 208.01 C 141.86 207.94 141.01 208.68 140.94 209.66 Z M 140.87 210.63 L 140.80 211.56 C 140.73 212.53 141.47 213.38 142.45 213.45 C 143.43 213.52 144.28 212.78 144.35 211.81 L 144.41 210.88 C 144.48 209.90 143.74 209.05 142.76 208.98 C 141.79 208.91 140.94 209.65 140.87 210.63 Z M 140.81 211.56 L 140.73 212.65 C 140.67 213.63 141.41 214.47 142.38 214.54 C 143.36 214.60 144.20 213.86 144.27 212.89 L 144.34 211.80 C 144.41 210.82 143.67 209.98 142.69 209.91 C 141.72 209.85 140.87 210.59 140.81 211.56 Z M 140.74 212.66 L 140.67 213.72 C 140.61 214.70 141.35 215.53 142.33 215.59 C 143.30 215.65 144.14 214.91 144.20 213.94 L 144.27 212.88 C 144.33 211.90 143.58 211.07 142.61 211.01 C 141.64 210.95 140.80 211.69 140.74 212.66 Z M 140.68 213.73 L 140.62 214.73 C 140.57 215.70 141.31 216.53 142.29 216.59 C 143.26 216.64 144.09 215.89 144.14 214.92 L 144.20 213.93 C 144.25 212.95 143.50 212.12 142.53 212.07 C 141.56 212.02 140.73 212.76 140.68 213.73 Z M 140.63 214.74 L 140.58 215.69 C 140.54 216.66 141.29 217.48 142.26 217.53 C 143.22 217.57 144.05 216.82 144.09 215.85 L 144.14 214.91 C 144.18 213.94 143.43 213.12 142.46 213.07 C 141.50 213.03 140.67 213.78 140.63 214.74 Z M 140.59 215.71 L 140.55 216.61 C 140.52 217.58 141.27 218.39 142.24 218.43 C 143.21 218.46 144.02 217.71 144.05 216.74 L 144.09 215.84 C 144.12 214.87 143.37 214.06 142.40 214.02 C 141.44 213.99 140.62 214.74 140.59 215.71 Z M 140.56 216.63 L 140.54 217.59 C 140.51 218.56 141.27 219.36 142.23 219.38 C 143.20 219.41 144.00 218.65 144.02 217.69 L 144.05 216.72 C 144.07 215.76 143.31 214.96 142.35 214.93 C 141.39 214.91 140.59 215.67 140.56 216.63 Z M 140.55 217.61 L 140.53 218.58 C 140.52 219.54 141.28 220.33 142.24 220.34 C 143.20 220.36 143.98 219.59 144.00 218.64 L 144.01 217.67 C 144.03 216.71 143.26 215.92 142.31 215.91 C 141.35 215.89 140.56 216.66 140.55 217.61 Z M 140.54 218.60 L 140.53 219.58 C 140.53 220.53 141.29 221.31 142.25 221.32 C 143.20 221.32 143.97 220.56 143.98 219.60 L 143.99 218.62 C 144.00 217.67 143.23 216.89 142.28 216.88 C 141.32 216.88 140.55 217.64 140.54 218.60 Z M 140.54 219.59 L 140.54 220.61 C 140.54 221.55 141.30 222.32 142.25 222.32 C 143.20 222.33 143.97 221.56 143.97 220.61 L 143.97 219.59 C 143.97 218.65 143.21 217.88 142.26 217.88 C 141.31 217.87 140.54 218.64 140.54 219.59 Z M 140.55 220.61 L 140.55 221.65 C 140.55 222.59 141.31 223.35 142.26 223.35 C 143.20 223.35 143.96 222.59 143.96 221.65 L 143.96 220.61 C 143.96 219.67 143.20 218.91 142.26 218.91 C 141.31 218.91 140.55 219.67 140.55 220.61 Z M 140.56 221.66 L 140.57 222.67 C 140.57 223.60 141.34 224.36 142.27 224.35 C 143.21 224.35 143.96 223.58 143.96 222.65 L 143.95 221.64 C 143.94 220.70 143.18 219.95 142.24 219.95 C 141.31 219.96 140.55 220.72 140.56 221.66 Z M 140.58 222.70 L 140.61 223.73 C 140.63 224.66 141.41 225.40 142.34 225.37 C 143.27 225.35 144.00 224.57 143.97 223.64 L 143.95 222.61 C 143.92 221.68 143.15 220.95 142.22 220.97 C 141.29 221.00 140.55 221.77 140.58 222.70 Z M 140.62 223.80 L 140.69 224.82 C 140.75 225.74 141.54 226.44 142.47 226.38 C 143.39 226.32 144.09 225.52 144.03 224.60 L 143.96 223.58 C 143.90 222.65 143.10 221.96 142.18 222.02 C 141.26 222.08 140.56 222.87 140.62 223.80 Z M 140.71 224.91 L 140.83 225.89 C 140.94 226.80 141.77 227.45 142.68 227.34 C 143.60 227.22 144.24 226.39 144.13 225.48 L 144.01 224.50 C 143.90 223.59 143.06 222.94 142.15 223.06 C 141.24 223.17 140.59 224.00 140.71 224.91 Z M 140.87 226.04 L 141.08 227.02 C 141.27 227.91 142.15 228.48 143.04 228.29 C 143.93 228.09 144.50 227.21 144.31 226.32 L 144.09 225.34 C 143.90 224.45 143.02 223.88 142.13 224.07 C 141.24 224.27 140.67 225.15 140.87 226.04 Z M 141.17 227.23 L 141.55 228.28 C 141.86 229.12 142.79 229.55 143.63 229.24 C 144.48 228.93 144.91 228.00 144.60 227.16 L 144.22 226.11 C 143.91 225.27 142.98 224.84 142.13 225.15 C 141.29 225.45 140.86 226.39 141.17 227.23 Z M 141.69 228.51 L 142.19 229.38 C 142.63 230.14 143.61 230.41 144.37 229.97 C 145.13 229.53 145.39 228.56 144.95 227.79 L 144.46 226.92 C 144.02 226.16 143.04 225.90 142.28 226.34 C 141.52 226.77 141.26 227.75 141.69 228.51 Z M 142.40 229.61 L 142.99 230.29 C 143.56 230.94 144.54 231.01 145.19 230.45 C 145.84 229.88 145.91 228.90 145.35 228.25 L 144.75 227.56 C 144.19 226.91 143.20 226.85 142.55 227.41 C 141.90 227.97 141.83 228.96 142.40 229.61 Z M 143.28 230.51 L 144.02 231.04 C 144.71 231.54 145.66 231.38 146.15 230.69 C 146.64 230.01 146.49 229.05 145.80 228.56 L 145.06 228.03 C 144.37 227.54 143.42 227.70 142.93 228.38 C 142.44 229.07 142.59 230.02 143.28 230.51 Z M 144.39 231.21 L 145.29 231.55 C 146.07 231.84 146.93 231.44 147.22 230.67 C 147.51 229.89 147.12 229.03 146.34 228.74 L 145.44 228.40 C 144.66 228.11 143.80 228.50 143.51 229.28 C 143.22 230.05 143.61 230.92 144.39 231.21 Z M 145.61 231.60 L 146.60 231.74 C 147.40 231.85 148.15 231.29 148.26 230.48 C 148.37 229.68 147.81 228.94 147.01 228.82 L 146.02 228.69 C 145.21 228.57 144.47 229.13 144.36 229.94 C 144.25 230.74 144.81 231.49 145.61 231.60 Z M 146.80 231.73 L 147.81 231.73 C 148.61 231.73 149.26 231.09 149.27 230.29 C 149.27 229.49 148.62 228.84 147.82 228.83 L 146.81 228.83 C 146.01 228.83 145.36 229.48 145.35 230.28 C 145.35 231.08 146.00 231.73 146.80 231.73 Z M 147.92 231.72 L 148.89 231.65 C 149.68 231.59 150.27 230.90 150.22 230.11 C 150.16 229.32 149.48 228.73 148.68 228.78 L 147.72 228.85 C 146.92 228.91 146.33 229.59 146.38 230.38 C 146.44 231.18 147.13 231.77 147.92 231.72 Z M 148.95 231.64 L 149.95 231.52 C 150.73 231.43 151.30 230.72 151.21 229.94 C 151.12 229.15 150.41 228.59 149.63 228.68 L 148.62 228.79 C 147.84 228.88 147.27 229.59 147.36 230.38 C 147.45 231.16 148.16 231.73 148.95 231.64 Z M 149.98 231.52 L 151.00 231.38 C 151.78 231.27 152.33 230.55 152.22 229.77 C 152.11 228.99 151.39 228.44 150.61 228.55 L 149.59 228.69 C 148.81 228.79 148.27 229.51 148.37 230.29 C 148.48 231.08 149.20 231.62 149.98 231.52 Z M 151.01 231.37 L 151.32 231.33 C 152.10 231.22 152.64 230.49 152.53 229.72 C 152.42 228.94 151.70 228.39 150.92 228.51 L 150.60 228.55 C 149.83 228.66 149.28 229.38 149.39 230.16 C 149.51 230.94 150.23 231.48 151.01 231.37 Z"
      fill="black"
      fill-rule="nonzero" /></svg>