<svg xmlns="http://www.w3.org/2000/svg" width="300" height="300" viewBox="0 0 300 300">
<path d="M 162.80 107.81 L 162.80 106.36 C 162.80 105.53 162.13 104.87 161.31 104.87 C 160.48 104.87 159.81 105.53 159.81 106.36 L 159.81 107.81 C 159.81 108.64 160.48 109.30 161.31 109.30 C 162.13 109.30 162.80 108.64 162.80 107.81 Z M 162.84 106.36 L 162.84 105.19 C 162.84 104.34 162.15 103.65 161.31 103.65 C 160.46 103.65 159.77 104.34 159.77 105.19 L 159.77 106.36 C 159.77 107.21 160.46 107.90 161.31 107.90 C 162.15 107.90 162.84 107.21 162.84 106.36 Z M 162.88 105.19 L 162.88 104.59 C 162.88 103.72 162.18 103.01 161.31 103.01 C 160.43 103.01 159.73 103.72 159.73 104.59 L 159.73 105.19 C 159.73 106.06 160.43 106.77 161.31 106.77 C 162.18 106.77 162.88 106.06 162.88 105.19 Z M 159.69 104.59 L 159.69 104.78 C 159.69 105.67 160.42 106.39 161.31 106.39 C 162.20 106.39 162.92 105.67 162.92 104.78 L 162.92 104.59 C 162.92 103.70 162.19 102.98 161.30 102.98 C 160.41 102.98 159.69 103.70 159.69 104.59 Z M 159.68 104.79 L 159.68 105.59 C 159.68 106.49 160.42 107.22 161.32 107.22 C 162.22 107.21 162.94 106.48 162.94 105.58 L 162.94 104.77 C 162.93 103.87 162.20 103.14 161.30 103.15 C 160.40 103.15 159.67 103.88 159.68 104.79 Z M 159.67 105.60 L 159.68 106.81 C 159.69 107.72 160.43 108.44 161.34 108.44 C 162.24 108.43 162.97 107.68 162.96 106.78 L 162.95 105.57 C 162.94 104.66 162.20 103.94 161.29 103.95 C 160.39 103.95 159.66 104.70 159.67 105.60 Z M 159.67 106.82 L 159.69 108.21 C 159.71 109.12 160.46 109.85 161.38 109.83 C 162.29 109.82 163.02 109.06 163.00 108.15 L 162.97 106.76 C 162.96 105.85 162.20 105.12 161.29 105.14 C 160.38 105.16 159.65 105.91 159.67 106.82 Z M 159.69 108.23 L 159.72 109.36 C 159.75 110.28 160.51 111.00 161.43 110.97 C 162.35 110.94 163.07 110.18 163.04 109.26 L 163.01 108.13 C 162.98 107.21 162.21 106.49 161.30 106.52 C 160.38 106.55 159.66 107.31 159.69 108.23 Z M 159.71 109.38 L 159.76 110.43 C 159.79 111.35 160.57 112.07 161.49 112.03 C 162.41 111.99 163.12 111.22 163.09 110.30 L 163.04 109.25 C 163.01 108.33 162.23 107.61 161.31 107.65 C 160.39 107.68 159.68 108.46 159.71 109.38 Z M 159.75 110.44 L 159.80 111.44 C 159.84 112.36 160.62 113.08 161.54 113.03 C 162.46 112.99 163.18 112.21 163.13 111.29 L 163.09 110.29 C 163.05 109.37 162.26 108.66 161.34 108.70 C 160.42 108.74 159.71 109.52 159.75 110.44 Z M 159.80 111.45 L 159.84 112.39 C 159.89 113.31 160.67 114.02 161.60 113.98 C 162.52 113.93 163.23 113.14 163.18 112.22 L 163.14 111.28 C 163.09 110.36 162.31 109.65 161.38 109.70 C 160.46 109.74 159.75 110.53 159.80 111.45 Z M 159.84 112.39 L 159.89 113.32 C 159.93 114.25 160.72 114.96 161.65 114.91 C 162.57 114.87 163.28 114.08 163.24 113.15 L 163.19 112.22 C 163.14 111.30 162.35 110.58 161.43 110.63 C 160.50 110.68 159.79 111.46 159.84 112.39 Z M 159.88 113.32 L 159.93 114.35 C 159.98 115.28 160.76 115.99 161.69 115.95 C 162.62 115.91 163.33 115.12 163.29 114.19 L 163.24 113.16 C 163.19 112.23 162.41 111.52 161.48 111.56 C 160.56 111.60 159.84 112.39 159.88 113.32 Z M 159.93 114.34 L 159.97 115.32 C 160.01 116.25 160.80 116.97 161.72 116.93 C 162.65 116.89 163.37 116.10 163.33 115.17 L 163.29 114.20 C 163.25 113.27 162.46 112.55 161.54 112.59 C 160.61 112.63 159.89 113.42 159.93 114.34 Z M 159.97 115.31 L 160.01 116.28 C 160.04 117.21 160.83 117.93 161.76 117.90 C 162.68 117.86 163.41 117.08 163.37 116.15 L 163.33 115.18 C 163.30 114.25 162.51 113.53 161.59 113.56 C 160.66 113.60 159.93 114.38 159.97 115.31 Z M 160.01 116.28 L 160.04 117.24 C 160.08 118.17 160.86 118.89 161.79 118.86 C 162.72 118.83 163.44 118.04 163.41 117.11 L 163.37 116.15 C 163.34 115.22 162.56 114.50 161.63 114.53 C 160.70 114.56 159.97 115.35 160.01 116.28 Z M 160.04 117.23 L 160.07 118.22 C 160.10 119.15 160.88 119.88 161.81 119.84 C 162.74 119.81 163.47 119.03 163.44 118.10 L 163.41 117.12 C 163.38 116.19 162.60 115.46 161.67 115.49 C 160.74 115.52 160.01 116.30 160.04 117.23 Z M 160.07 118.21 L 160.10 119.22 C 160.13 120.15 160.90 120.89 161.83 120.86 C 162.77 120.83 163.50 120.06 163.47 119.13 L 163.44 118.11 C 163.42 117.18 162.64 116.45 161.71 116.47 C 160.78 116.50 160.04 117.28 160.07 118.21 Z M 160.10 119.21 L 160.12 120.24 C 160.14 121.17 160.91 121.91 161.85 121.89 C 162.78 121.87 163.52 121.10 163.50 120.17 L 163.48 119.14 C 163.45 118.20 162.68 117.46 161.75 117.48 C 160.82 117.50 160.08 118.28 160.10 119.21 Z M 160.12 120.23 L 160.13 121.21 C 160.15 122.15 160.91 122.89 161.85 122.88 C 162.78 122.86 163.53 122.10 163.51 121.16 L 163.50 120.18 C 163.49 119.25 162.72 118.50 161.79 118.51 C 160.85 118.53 160.11 119.29 160.12 120.23 Z M 160.13 121.20 L 160.14 122.18 C 160.15 123.12 160.91 123.87 161.84 123.86 C 162.78 123.86 163.53 123.09 163.52 122.16 L 163.52 121.17 C 163.51 120.24 162.75 119.49 161.81 119.50 C 160.88 119.50 160.12 120.27 160.13 121.20 Z M 160.14 122.17 L 160.14 123.17 C 160.14 124.11 160.90 124.87 161.84 124.86 C 162.77 124.86 163.53 124.10 163.53 123.16 L 163.53 122.16 C 163.52 121.23 162.76 120.47 161.83 120.48 C 160.89 120.48 160.13 121.24 160.14 122.17 Z M 160.14 123.17 L 160.14 124.20 C 160.14 125.13 160.90 125.89 161.84 125.89 C 162.77 125.89 163.53 125.13 163.53 124.20 L 163.53 123.17 C 163.53 122.23 162.77 121.47 161.83 121.47 C 160.90 121.47 160.14 122.23 160.14 123.17 Z M 160.14 124.20 L 160.14 125.17 C 160.14 126.11 160.90 126.87 161.83 126.87 C 162.77 126.87 163.53 126.11 163.53 125.17 L 163.53 124.20 C 163.53 123.26 162.77 122.50 161.83 122.50 C 160.90 122.50 160.14 123.26 160.14 124.20 Z M 160.14 125.17 L 160.14 126.14 C 160.14 127.08 160.90 127.84 161.83 127.84 C 162.77 127.84 163.53 127.08 163.53 126.14 L 163.53 125.17 C 163.53 124.23 162.77 123.47 161.83 123.47 C 160.90 123.47 160.14 124.23 160.14 125.17 Z M 160.13 126.14 L 160.13 127.14 C 160.13 128.08 160.90 128.84 161.83 128.84 C 162.77 128.84 163.53 128.08 163.53 127.14 L 163.53 126.14 C 163.53 125.20 162.77 124.44 161.83 124.44 C 160.90 124.44 160.13 125.20 160.13 126.14 Z M 160.13 127.14 L 160.13 128.16 C 160.13 129.10 160.90 129.87 161.83 129.87 C 162.77 129.87 163.53 129.10 163.53 128.16 L 163.53 127.14 C 163.53 126.20 162.77 125.44 161.83 125.44 C 160.90 125.44 160.13 126.20 160.13 127.14 Z M 160.13 128.16 L 160.13 129.20 C 160.13 130.14 160.89 130.90 161.83 130.90 C 162.77 130.90 163.54 130.14 163.54 129.20 L 163.54 128.16 C 163.54 127.23 162.77 126.46 161.83 126.46 C 160.89 126.46 160.13 127.23 160.13 128.16 Z M 160.13 129.20 L 160.13 130.17 C 160.13 131.11 160.89 131.87 161.83 131.87 C 162.77 131.87 163.54 131.11 163.54 130.17 L 163.54 129.20 C 163.54 128.26 162.77 127.50 161.83 127.50 C 160.89 127.50 160.13 128.26 160.13 129.20 Z M 160.13 130.17 L 160.13 131.16 C 160.13 132.10 160.89 132.86 161.83 132.86 C 162.78 132.86 163.54 132.10 163.54 131.16 L 163.54 130.17 C 163.54 129.23 162.78 128.47 161.83 128.47 C 160.89 128.47 160.13 129.23 160.13 130.17 Z M 160.13 131.16 L 160.13 132.16 C 160.13 133.10 160.89 133.87 161.83 133.87 C 162.78 133.87 163.54 133.10 163.54 132.16 L 163.54 131.16 C 163.54 130.22 162.78 129.46 161.83 129.46 C 160.89 129.46 160.13 130.22 160.13 131.16 Z M 160.13 132.16 L 160.13 133.18 C 160.13 134.12 160.89 134.89 161.83 134.89 C 162.78 134.89 163.54 134.12 163.54 133.18 L 163.54 132.16 C 163.54 131.22 162.78 130.46 161.83 130.46 C 160.89 130.46 160.13 131.22 160.13 132.16 Z M 160.13 133.18 L 160.13 134.21 C 160.13 135.15 160.89 135.91 161.83 135.91 C 162.78 135.91 163.54 135.15 163.54 134.21 L 163.54 133.18 C 163.54 132.24 162.78 131.47 161.83 131.47 C 160.89 131.47 160.13 132.24 160.13 133.18 Z M 160.13 134.21 L 160.13 135.19 C 160.13 136.14 160.89 136.90 161.83 136.90 C 162.78 136.90 163.54 136.14 163.54 135.19 L 163.54 134.21 C 163.54 133.27 162.78 132.50 161.83 132.50 C 160.89 132.50 160.13 133.27 160.13 134.21 Z M 160.13 135.19 L 160.13 136.19 C 160.13 137.13 160.89 137.89 161.83 137.89 C 162.78 137.89 163.54 137.13 163.54 136.19 L 163.54 135.19 C 163.54 134.25 162.78 133.49 161.83 133.49 C 160.89 133.49 160.13 134.25 160.13 135.19 Z M 160.13 136.19 L 160.13 137.18 C 160.13 138.13 160.89 138.89 161.83 138.89 C 162.78 138.89 163.54 138.13 163.54 137.18 L 163.54 136.19 C 163.54 135.24 162.78 134.48 161.83 134.48 C 160.89 134.48 160.13 135.24 160.13 136.19 Z M 160.13 137.18 L 160.13 138.19 C 160.13 139.13 160.89 139.90 161.83 139.90 C 162.78 139.90 163.54 139.13 163.54 138.19 L 163.54 137.18 C 163.54 136.24 162.78 135.48 161.83 135.48 C 160.89 135.48 160.13 136.24 160.13 137.18 Z M 160.13 138.19 L 160.13 139.20 C 160.13 140.15 160.89 140.91 161.83 140.91 C 162.78 140.91 163.54 140.15 163.54 139.20 L 163.54 138.19 C 163.54 137.25 162.78 136.48 161.83 136.48 C 160.89 136.48 160.13 137.25 160.13 138.19 Z M 160.13 139.20 L 160.13 140.19 C 160.13 141.14 160.89 141.90 161.83 141.90 C 162.78 141.90 163.54 141.14 163.54 140.19 L 163.54 139.20 C 163.54 138.26 162.78 137.49 161.83 137.49 C 160.89 137.49 160.13 138.26 160.13 139.20 Z M 160.12 140.19 L 160.12 141.17 C 160.12 142.11 160.89 142.88 161.83 142.88 C 162.77 142.88 163.54 142.12 163.54 141.17 L 163.54 140.20 C 163.54 139.25 162.78 138.48 161.84 138.48 C 160.89 138.48 160.13 139.25 160.12 140.19 Z M 160.12 141.16 L 160.12 142.15 C 160.11 143.10 160.87 143.86 161.82 143.87 C 162.76 143.87 163.53 143.11 163.54 142.17 L 163.54 141.18 C 163.55 140.24 162.79 139.47 161.84 139.46 C 160.90 139.46 160.13 140.22 160.12 141.16 Z M 160.12 142.14 L 160.11 143.14 C 160.10 144.09 160.85 144.86 161.80 144.87 C 162.74 144.88 163.52 144.12 163.53 143.18 L 163.54 142.18 C 163.55 141.23 162.79 140.46 161.85 140.45 C 160.90 140.44 160.13 141.20 160.12 142.14 Z M 160.11 143.13 L 160.09 144.14 C 160.07 145.09 160.82 145.87 161.77 145.89 C 162.71 145.90 163.49 145.15 163.51 144.21 L 163.53 143.19 C 163.54 142.25 162.79 141.47 161.85 141.45 C 160.90 141.43 160.12 142.18 160.11 143.13 Z M 160.09 144.13 L 160.06 145.16 C 160.03 146.10 160.78 146.89 161.72 146.92 C 162.67 146.94 163.45 146.20 163.48 145.26 L 163.51 144.22 C 163.53 143.28 162.79 142.49 161.85 142.46 C 160.90 142.44 160.11 143.18 160.09 144.13 Z M 160.06 145.14 L 160.02 146.14 C 159.98 147.09 160.72 147.88 161.66 147.92 C 162.61 147.95 163.40 147.22 163.44 146.27 L 163.48 145.27 C 163.52 144.33 162.78 143.53 161.83 143.50 C 160.89 143.46 160.10 144.20 160.06 145.14 Z M 160.02 146.12 L 159.97 147.13 C 159.93 148.08 160.66 148.88 161.60 148.93 C 162.54 148.97 163.35 148.24 163.39 147.30 L 163.44 146.29 C 163.48 145.35 162.76 144.54 161.81 144.50 C 160.87 144.45 160.07 145.18 160.02 146.12 Z M 159.97 147.12 L 159.92 148.13 C 159.86 149.07 160.58 149.88 161.53 149.94 C 162.47 149.99 163.28 149.27 163.33 148.32 L 163.39 147.31 C 163.44 146.37 162.72 145.56 161.78 145.51 C 160.83 145.45 160.03 146.18 159.97 147.12 Z M 159.92 148.12 L 159.85 149.12 C 159.79 150.07 160.51 150.88 161.45 150.94 C 162.39 151.00 163.21 150.29 163.27 149.34 L 163.33 148.34 C 163.39 147.39 162.68 146.58 161.73 146.52 C 160.79 146.46 159.98 147.17 159.92 148.12 Z M 159.85 149.11 L 159.78 150.10 C 159.71 151.05 160.42 151.87 161.37 151.93 C 162.31 152.00 163.13 151.29 163.20 150.35 L 163.27 149.36 C 163.33 148.41 162.62 147.59 161.68 147.53 C 160.74 147.46 159.92 148.17 159.85 149.11 Z M 159.78 150.09 L 159.71 151.07 C 159.63 152.01 160.34 152.83 161.28 152.91 C 162.22 152.98 163.04 152.28 163.12 151.33 L 163.19 150.36 C 163.27 149.42 162.56 148.59 161.62 148.52 C 160.68 148.45 159.86 149.15 159.78 150.09 Z M 159.71 151.05 L 159.62 152.10 C 159.54 153.04 160.24 153.87 161.18 153.95 C 162.12 154.03 162.95 153.33 163.03 152.39 L 163.12 151.34 C 163.20 150.40 162.50 149.57 161.56 149.49 C 160.62 149.41 159.79 150.11 159.71 151.05 Z M 159.62 152.09 L 159.52 153.10 C 159.44 154.05 160.13 154.88 161.07 154.97 C 162.01 155.05 162.85 154.36 162.93 153.42 L 163.03 152.40 C 163.11 151.46 162.42 150.63 161.48 150.54 C 160.54 150.45 159.71 151.15 159.62 152.09 Z M 159.53 153.09 L 159.43 154.08 C 159.33 155.02 160.02 155.86 160.96 155.96 C 161.90 156.05 162.74 155.36 162.83 154.42 L 162.93 153.43 C 163.03 152.49 162.34 151.65 161.40 151.56 C 160.46 151.47 159.62 152.15 159.53 153.09 Z M 159.43 154.07 L 159.33 155.04 C 159.23 155.98 159.91 156.83 160.85 156.93 C 161.79 157.03 162.63 156.35 162.73 155.41 L 162.83 154.43 C 162.93 153.49 162.25 152.65 161.31 152.55 C 160.37 152.45 159.53 153.13 159.43 154.07 Z M 159.33 155.03 L 159.22 155.99 C 159.11 156.93 159.79 157.78 160.73 157.89 C 161.67 157.99 162.52 157.31 162.62 156.38 L 162.73 155.42 C 162.83 154.48 162.16 153.63 161.22 153.52 C 160.28 153.42 159.43 154.09 159.33 155.03 Z M 159.22 155.98 L 159.10 156.97 C 158.99 157.91 159.66 158.76 160.60 158.87 C 161.54 158.98 162.39 158.31 162.50 157.37 L 162.62 156.38 C 162.73 155.45 162.06 154.60 161.12 154.48 C 160.18 154.37 159.33 155.05 159.22 155.98 Z M 159.10 156.96 L 158.98 157.96 C 158.87 158.90 159.53 159.75 160.47 159.87 C 161.41 159.99 162.26 159.32 162.38 158.38 L 162.50 157.38 C 162.62 156.44 161.95 155.59 161.01 155.47 C 160.07 155.36 159.22 156.03 159.10 156.96 Z M 158.98 157.96 L 158.86 158.95 C 158.74 159.89 159.40 160.74 160.34 160.86 C 161.28 160.98 162.13 160.32 162.25 159.38 L 162.38 158.39 C 162.50 157.45 161.83 156.59 160.90 156.47 C 159.96 156.36 159.10 157.02 158.98 157.96 Z M 158.86 158.94 L 158.73 159.93 C 158.61 160.87 159.27 161.73 160.20 161.85 C 161.14 161.97 162.00 161.31 162.12 160.37 L 162.25 159.39 C 162.37 158.45 161.71 157.59 160.77 157.47 C 159.84 157.35 158.98 158.01 158.86 158.94 Z M 158.73 159.93 L 158.60 160.91 C 158.48 161.85 159.13 162.71 160.07 162.83 C 161.01 162.96 161.87 162.30 161.99 161.36 L 162.12 160.38 C 162.24 159.44 161.59 158.58 160.65 158.46 C 159.71 158.33 158.85 158.99 158.73 159.93 Z M 158.60 160.91 L 158.47 161.91 C 158.34 162.85 159.00 163.71 159.94 163.83 C 160.87 163.96 161.73 163.30 161.86 162.37 L 161.99 161.36 C 162.11 160.43 161.46 159.57 160.52 159.44 C 159.59 159.32 158.73 159.98 158.60 160.91 Z M 158.47 161.91 L 158.33 162.92 C 158.20 163.85 158.86 164.72 159.80 164.84 C 160.73 164.97 161.59 164.31 161.72 163.38 L 161.86 162.37 C 161.98 161.43 161.33 160.57 160.39 160.45 C 159.46 160.32 158.59 160.98 158.47 161.91 Z M 158.33 162.91 L 158.19 163.91 C 158.06 164.85 158.72 165.71 159.65 165.84 C 160.59 165.97 161.45 165.32 161.58 164.38 L 161.72 163.38 C 161.85 162.45 161.19 161.59 160.26 161.46 C 159.32 161.33 158.46 161.98 158.33 162.91 Z M 158.20 163.90 L 158.05 164.89 C 157.92 165.82 158.57 166.69 159.50 166.82 C 160.44 166.95 161.30 166.31 161.44 165.37 L 161.58 164.39 C 161.71 163.45 161.06 162.59 160.13 162.45 C 159.20 162.32 158.33 162.97 158.20 163.90 Z M 158.06 164.87 L 157.91 165.84 C 157.77 166.77 158.41 167.64 159.35 167.78 C 160.28 167.92 161.15 167.28 161.29 166.35 L 161.43 165.38 C 161.57 164.45 160.93 163.58 160.00 163.44 C 159.07 163.30 158.20 163.94 158.06 164.87 Z M 157.91 165.82 L 157.75 166.84 C 157.60 167.77 158.24 168.64 159.17 168.79 C 160.10 168.94 160.98 168.31 161.12 167.37 L 161.29 166.36 C 161.43 165.43 160.80 164.56 159.87 164.41 C 158.94 164.26 158.06 164.89 157.91 165.82 Z M 157.76 166.82 L 157.59 167.83 C 157.43 168.76 158.06 169.64 158.99 169.80 C 159.92 169.95 160.80 169.32 160.95 168.39 L 161.12 167.39 C 161.28 166.46 160.65 165.58 159.72 165.42 C 158.79 165.27 157.91 165.90 157.76 166.82 Z M 157.59 167.83 L 157.42 168.81 C 157.27 169.74 157.89 170.62 158.82 170.78 C 159.75 170.94 160.63 170.31 160.78 169.38 L 160.95 168.40 C 161.11 167.47 160.48 166.59 159.56 166.43 C 158.63 166.28 157.75 166.90 157.59 167.83 Z M 157.42 168.82 L 157.26 169.78 C 157.11 170.71 157.73 171.58 158.66 171.74 C 159.59 171.89 160.46 171.27 160.62 170.34 L 160.78 169.38 C 160.94 168.45 160.31 167.58 159.38 167.42 C 158.46 167.26 157.58 167.89 157.42 168.82 Z M 157.26 169.79 L 157.11 170.73 C 156.96 171.66 157.59 172.53 158.52 172.68 C 159.45 172.83 160.32 172.19 160.47 171.27 L 160.62 170.33 C 160.77 169.40 160.14 168.53 159.21 168.38 C 158.28 168.23 157.41 168.86 157.26 169.79 Z M 157.11 170.75 L 156.97 171.67 C 156.83 172.59 157.47 173.46 158.40 173.60 C 159.33 173.74 160.19 173.10 160.33 172.17 L 160.47 171.25 C 160.61 170.32 159.97 169.46 159.04 169.32 C 158.12 169.18 157.25 169.82 157.11 170.75 Z M 156.97 171.68 L 156.84 172.62 C 156.70 173.55 157.35 174.41 158.28 174.54 C 159.20 174.68 160.06 174.03 160.20 173.11 L 160.33 172.16 C 160.46 171.23 159.82 170.37 158.89 170.24 C 157.97 170.11 157.11 170.75 156.97 171.68 Z M 156.84 172.63 L 156.70 173.63 C 156.57 174.56 157.22 175.41 158.14 175.54 C 159.07 175.67 159.93 175.02 160.06 174.10 L 160.19 173.10 C 160.32 172.17 159.68 171.32 158.75 171.19 C 157.82 171.06 156.97 171.70 156.84 172.63 Z M 156.70 173.63 L 156.55 174.71 C 156.42 175.64 157.07 176.49 158.00 176.62 C 158.92 176.75 159.78 176.10 159.90 175.18 L 160.05 174.09 C 160.18 173.17 159.54 172.32 158.61 172.19 C 157.68 172.06 156.83 172.71 156.70 173.63 Z M 156.55 174.71 L 156.41 175.72 C 156.29 176.64 156.93 177.49 157.85 177.62 C 158.78 177.75 159.63 177.11 159.76 176.18 L 159.90 175.18 C 160.03 174.26 159.39 173.40 158.46 173.27 C 157.54 173.14 156.68 173.79 156.55 174.71 Z M 156.42 175.72 L 156.27 176.73 C 156.15 177.65 156.79 178.50 157.71 178.63 C 158.63 178.76 159.48 178.12 159.61 177.20 L 159.76 176.18 C 159.89 175.26 159.24 174.41 158.32 174.28 C 157.40 174.15 156.55 174.79 156.42 175.72 Z M 156.28 176.73 L 156.13 177.76 C 156.00 178.69 156.64 179.54 157.56 179.67 C 158.48 179.80 159.34 179.15 159.47 178.23 L 159.61 177.20 C 159.74 176.28 159.10 175.43 158.18 175.30 C 157.26 175.17 156.41 175.81 156.28 176.73 Z M 156.14 177.77 L 155.99 178.79 C 155.86 179.71 156.50 180.56 157.42 180.68 C 158.34 180.81 159.19 180.17 159.32 179.25 L 159.46 178.23 C 159.59 177.31 158.95 176.46 158.03 176.34 C 157.11 176.21 156.26 176.85 156.14 177.77 Z M 155.99 178.79 L 155.86 179.76 C 155.73 180.68 156.37 181.53 157.29 181.66 C 158.21 181.78 159.05 181.14 159.18 180.23 L 159.32 179.25 C 159.44 178.34 158.80 177.49 157.89 177.36 C 156.97 177.23 156.12 177.87 155.99 178.79 Z M 155.86 179.77 L 155.72 180.78 C 155.60 181.70 156.24 182.54 157.15 182.66 C 158.07 182.79 158.91 182.15 159.04 181.24 L 159.18 180.22 C 159.30 179.31 158.66 178.46 157.75 178.34 C 156.83 178.21 155.99 178.85 155.86 179.77 Z M 155.73 180.82 L 155.59 182.01 C 155.49 182.93 156.14 183.75 157.05 183.86 C 157.96 183.96 158.79 183.31 158.89 182.39 L 159.03 181.20 C 159.14 180.29 158.48 179.46 157.57 179.36 C 156.66 179.25 155.83 179.91 155.73 180.82 Z M 155.60 182.18 L 155.58 183.14 C 155.56 184.05 156.29 184.80 157.20 184.82 C 158.11 184.83 158.86 184.11 158.87 183.20 L 158.89 182.23 C 158.90 181.32 158.18 180.57 157.27 180.56 C 156.36 180.54 155.61 181.27 155.60 182.18 Z M 155.63 183.52 L 155.80 184.29 C 155.99 185.17 156.86 185.73 157.74 185.53 C 158.62 185.34 159.18 184.47 158.99 183.59 L 158.82 182.82 C 158.63 181.94 157.76 181.39 156.88 181.58 C 156.00 181.77 155.44 182.64 155.63 183.52 Z M 156.08 184.87 L 156.58 185.57 C 157.09 186.30 158.10 186.47 158.82 185.96 C 159.55 185.44 159.72 184.44 159.21 183.71 L 158.71 183.01 C 158.19 182.28 157.19 182.11 156.46 182.63 C 155.74 183.14 155.56 184.15 156.08 184.87 Z M 156.97 185.94 L 157.77 186.51 C 158.49 187.01 159.48 186.85 159.99 186.13 C 160.49 185.42 160.33 184.43 159.61 183.92 L 158.81 183.35 C 158.10 182.84 157.11 183.01 156.60 183.72 C 156.09 184.44 156.26 185.43 156.97 185.94 Z M 157.98 186.60 L 158.93 187.09 C 159.70 187.48 160.64 187.17 161.03 186.40 C 161.43 185.63 161.12 184.69 160.35 184.30 L 159.40 183.82 C 158.63 183.43 157.69 183.74 157.30 184.50 C 156.91 185.27 157.21 186.21 157.98 186.60 Z M 158.98 187.09 L 159.05 187.13 C 159.82 187.50 160.75 187.17 161.12 186.40 C 161.48 185.63 161.16 184.70 160.38 184.33 L 160.31 184.30 C 159.54 183.93 158.61 184.26 158.24 185.03 C 157.88 185.80 158.20 186.73 158.98 187.09 Z"
      fill="black"
      fill-rule="nonzero" /><path d="M 161.01 143.68 L 160.30 142.97 C 159.72 142.40 158.79 142.40 158.22 142.98 C 157.65 143.56 157.66 144.49 158.23 145.06 L 158.95 145.76 C 159.53 146.33 160.45 146.33 161.03 145.75 C 161.60 145.18 161.59 144.25 161.01 143.68 Z M 160.27 142.93 L 159.54 142.25 C 158.95 141.70 158.01 141.73 157.46 142.32 C 156.90 142.92 156.93 143.85 157.53 144.41 L 158.26 145.09 C 158.86 145.65 159.79 145.61 160.35 145.02 C 160.90 144.42 160.87 143.49 160.27 142.93 Z M 159.48 142.19 L 158.71 141.56 C 158.08 141.03 157.15 141.12 156.63 141.75 C 156.11 142.38 156.20 143.32 156.83 143.84 L 157.59 144.47 C 158.22 144.99 159.16 144.90 159.68 144.27 C 160.20 143.64 160.11 142.71 159.48 142.19 Z M 158.61 141.47 L 157.82 140.92 C 157.15 140.46 156.22 140.63 155.75 141.31 C 155.28 141.99 155.46 142.92 156.13 143.38 L 156.92 143.93 C 157.60 144.39 158.53 144.22 159.00 143.54 C 159.47 142.86 159.29 141.94 158.61 141.47 Z M 157.70 140.83 L 156.85 140.37 C 156.12 139.97 155.21 140.23 154.81 140.96 C 154.41 141.69 154.67 142.60 155.40 143.00 L 156.25 143.47 C 156.98 143.87 157.90 143.61 158.30 142.88 C 158.70 142.15 158.43 141.24 157.70 140.83 Z M 156.72 140.29 L 155.78 139.88 C 155.00 139.56 154.11 139.91 153.78 140.69 C 153.45 141.46 153.81 142.35 154.58 142.68 L 155.53 143.08 C 156.30 143.41 157.19 143.05 157.52 142.28 C 157.85 141.51 157.49 140.62 156.72 140.29 Z M 155.65 139.83 L 154.70 139.52 C 153.90 139.25 153.03 139.69 152.77 140.50 C 152.51 141.30 152.95 142.17 153.76 142.43 L 154.71 142.74 C 155.51 143.00 156.38 142.56 156.64 141.76 C 156.90 140.95 156.46 140.09 155.65 139.83 Z M 154.61 139.48 L 153.66 139.24 C 152.83 139.03 152.00 139.53 151.79 140.35 C 151.58 141.18 152.08 142.02 152.90 142.23 L 153.85 142.47 C 154.68 142.68 155.52 142.18 155.72 141.35 C 155.93 140.53 155.43 139.69 154.61 139.48 Z M 153.58 139.21 L 152.59 139.01 C 151.75 138.85 150.93 139.39 150.76 140.23 C 150.60 141.07 151.14 141.89 151.98 142.06 L 152.98 142.25 C 153.82 142.42 154.64 141.87 154.80 141.03 C 154.97 140.19 154.42 139.38 153.58 139.21 Z M 152.52 138.99 L 151.50 138.84 C 150.65 138.71 149.85 139.30 149.72 140.15 C 149.59 141.00 150.18 141.79 151.03 141.92 L 152.05 142.08 C 152.90 142.21 153.70 141.62 153.83 140.77 C 153.96 139.92 153.37 139.12 152.52 138.99 Z M 151.44 138.82 L 150.45 138.71 C 149.59 138.62 148.81 139.24 148.72 140.10 C 148.62 140.96 149.24 141.73 150.10 141.83 L 151.09 141.94 C 151.95 142.03 152.73 141.41 152.82 140.55 C 152.92 139.69 152.30 138.92 151.44 138.82 Z M 150.39 138.70 L 149.41 138.63 C 148.55 138.57 147.80 139.22 147.73 140.09 C 147.67 140.96 148.32 141.71 149.19 141.77 L 150.16 141.84 C 151.03 141.90 151.78 141.25 151.84 140.38 C 151.91 139.52 151.25 138.77 150.39 138.70 Z M 149.36 138.63 L 148.37 138.59 C 147.50 138.56 146.77 139.24 146.74 140.11 C 146.71 140.98 147.39 141.71 148.26 141.74 L 149.25 141.78 C 150.12 141.81 150.85 141.13 150.88 140.26 C 150.91 139.39 150.23 138.66 149.36 138.63 Z M 148.31 138.59 L 147.29 138.59 C 146.42 138.59 145.71 139.29 145.71 140.16 C 145.71 141.04 146.42 141.75 147.29 141.75 L 148.31 141.75 C 149.18 141.75 149.89 141.04 149.89 140.17 C 149.89 139.30 149.19 138.59 148.31 138.59 Z M 147.25 138.58 L 146.26 138.61 C 145.39 138.64 144.70 139.36 144.72 140.24 C 144.75 141.11 145.48 141.80 146.35 141.78 L 147.34 141.75 C 148.21 141.72 148.90 141.00 148.88 140.12 C 148.85 139.25 148.12 138.56 147.25 138.58 Z M 146.21 138.61 L 145.27 138.66 C 144.40 138.72 143.73 139.47 143.78 140.35 C 143.84 141.22 144.59 141.89 145.47 141.84 L 146.40 141.78 C 147.28 141.73 147.95 140.97 147.89 140.10 C 147.84 139.22 147.09 138.56 146.21 138.61 Z M 145.20 138.67 L 144.23 138.77 C 143.36 138.86 142.72 139.65 142.81 140.52 C 142.91 141.40 143.69 142.03 144.57 141.94 L 145.54 141.84 C 146.41 141.74 147.05 140.96 146.96 140.08 C 146.86 139.21 146.08 138.57 145.20 138.67 Z M 144.14 138.77 L 143.14 138.94 C 142.26 139.08 141.67 139.91 141.82 140.78 C 141.96 141.65 142.78 142.24 143.66 142.10 L 144.66 141.93 C 145.53 141.79 146.12 140.96 145.98 140.09 C 145.83 139.22 145.01 138.63 144.14 138.77 Z M 143.03 138.96 L 141.99 139.20 C 141.13 139.41 140.60 140.27 140.80 141.13 C 141.00 142.00 141.87 142.53 142.73 142.33 L 143.77 142.08 C 144.63 141.88 145.16 141.01 144.96 140.15 C 144.75 139.29 143.89 138.75 143.03 138.96 Z M 141.87 139.23 L 140.88 139.55 C 140.03 139.81 139.56 140.72 139.83 141.57 C 140.10 142.41 141.01 142.88 141.85 142.61 L 142.85 142.30 C 143.70 142.03 144.17 141.12 143.90 140.28 C 143.63 139.43 142.72 138.96 141.87 139.23 Z M 140.78 139.58 L 139.83 139.95 C 139.00 140.27 138.59 141.21 138.91 142.04 C 139.23 142.87 140.17 143.28 141.00 142.95 L 141.95 142.58 C 142.78 142.26 143.19 141.32 142.87 140.49 C 142.55 139.66 141.61 139.25 140.78 139.58 Z M 139.76 139.97 L 138.81 140.40 C 137.99 140.76 137.63 141.72 137.99 142.53 C 138.36 143.35 139.31 143.71 140.13 143.35 L 141.07 142.93 C 141.89 142.56 142.25 141.61 141.89 140.79 C 141.53 139.98 140.57 139.61 139.76 139.97 Z M 138.75 140.42 L 137.83 140.87 C 137.03 141.26 136.70 142.24 137.10 143.04 C 137.49 143.84 138.46 144.17 139.26 143.78 L 140.18 143.33 C 140.99 142.93 141.32 141.96 140.92 141.16 C 140.53 140.35 139.56 140.02 138.75 140.42 Z M 137.79 140.89 L 136.92 141.35 C 136.12 141.77 135.82 142.75 136.24 143.54 C 136.66 144.34 137.64 144.64 138.43 144.22 L 139.31 143.76 C 140.10 143.34 140.40 142.36 139.99 141.57 C 139.57 140.77 138.58 140.47 137.79 140.89 Z M 136.88 141.36 L 136.07 141.82 C 135.29 142.25 135.00 143.25 135.44 144.03 C 135.88 144.82 136.87 145.10 137.65 144.66 L 138.47 144.21 C 139.25 143.77 139.53 142.78 139.10 141.99 C 138.66 141.21 137.67 140.93 136.88 141.36 Z M 136.04 141.83 L 135.08 142.39 C 134.30 142.85 134.04 143.84 134.49 144.62 C 134.95 145.40 135.94 145.66 136.72 145.21 L 137.68 144.65 C 138.46 144.19 138.72 143.19 138.27 142.42 C 137.82 141.64 136.82 141.38 136.04 141.83 Z M 135.04 142.41 L 134.18 142.94 C 133.42 143.41 133.18 144.42 133.65 145.19 C 134.12 145.95 135.13 146.19 135.89 145.72 L 136.75 145.19 C 137.52 144.72 137.76 143.71 137.29 142.95 C 136.82 142.18 135.81 141.94 135.04 142.41 Z M 134.15 142.96 L 133.35 143.48 C 132.60 143.97 132.38 144.98 132.87 145.74 C 133.36 146.49 134.37 146.71 135.13 146.22 L 135.92 145.70 C 136.68 145.21 136.90 144.20 136.41 143.44 C 135.92 142.69 134.91 142.47 134.15 142.96 Z M 133.33 143.50 L 132.55 144.02 C 131.81 144.53 131.61 145.54 132.12 146.29 C 132.62 147.03 133.64 147.23 134.38 146.72 L 135.16 146.20 C 135.90 145.69 136.10 144.68 135.59 143.93 C 135.08 143.19 134.07 142.99 133.33 143.50 Z M 132.53 144.04 L 131.75 144.59 C 131.01 145.10 130.83 146.12 131.35 146.86 C 131.86 147.60 132.88 147.78 133.62 147.26 L 134.40 146.71 C 135.14 146.19 135.32 145.17 134.80 144.44 C 134.29 143.70 133.27 143.52 132.53 144.04 Z M 131.72 144.60 L 130.92 145.18 C 130.19 145.71 130.03 146.73 130.56 147.46 C 131.09 148.19 132.11 148.35 132.84 147.83 L 133.64 147.24 C 134.37 146.72 134.53 145.70 134.00 144.97 C 133.47 144.24 132.45 144.07 131.72 144.60 Z M 130.89 145.20 L 130.09 145.81 C 129.37 146.36 129.23 147.38 129.77 148.10 C 130.31 148.82 131.34 148.96 132.06 148.42 L 132.86 147.81 C 133.58 147.26 133.72 146.24 133.18 145.52 C 132.64 144.80 131.61 144.66 130.89 145.20 Z M 130.06 145.84 L 129.26 146.47 C 128.55 147.03 128.44 148.06 129.00 148.77 C 129.56 149.47 130.59 149.59 131.29 149.03 L 132.09 148.39 C 132.80 147.83 132.91 146.80 132.35 146.10 C 131.79 145.39 130.76 145.27 130.06 145.84 Z M 129.22 146.50 L 128.45 147.15 C 127.76 147.73 127.68 148.76 128.26 149.45 C 128.84 150.14 129.88 150.23 130.56 149.65 L 131.33 149.00 C 132.02 148.41 132.11 147.38 131.52 146.69 C 130.94 146.00 129.91 145.92 129.22 146.50 Z M 128.41 147.18 L 127.67 147.84 C 127.00 148.45 126.95 149.48 127.55 150.16 C 128.15 150.83 129.19 150.89 129.86 150.28 L 130.60 149.62 C 131.28 149.01 131.33 147.98 130.73 147.30 C 130.12 146.63 129.09 146.57 128.41 147.18 Z M 127.64 147.87 L 126.91 148.56 C 126.26 149.18 126.23 150.22 126.85 150.88 C 127.48 151.54 128.52 151.56 129.18 150.94 L 129.90 150.25 C 130.56 149.63 130.59 148.59 129.96 147.93 C 129.34 147.27 128.30 147.25 127.64 147.87 Z M 126.88 148.58 L 126.17 149.29 C 125.53 149.93 125.53 150.98 126.17 151.62 C 126.81 152.26 127.85 152.27 128.50 151.62 L 129.21 150.91 C 129.85 150.27 129.85 149.23 129.21 148.59 C 128.57 147.94 127.53 147.94 126.88 148.58 Z M 126.14 149.31 L 125.45 150.04 C 124.82 150.69 124.84 151.74 125.50 152.37 C 126.15 153.00 127.20 152.98 127.83 152.32 L 128.52 151.60 C 129.16 150.94 129.13 149.90 128.48 149.27 C 127.82 148.63 126.77 148.66 126.14 149.31 Z M 125.42 150.06 L 124.75 150.79 C 124.13 151.46 124.17 152.51 124.84 153.13 C 125.52 153.75 126.56 153.70 127.18 153.03 L 127.86 152.30 C 128.48 151.63 128.43 150.58 127.76 149.96 C 127.09 149.34 126.04 149.39 125.42 150.06 Z M 124.72 150.81 L 124.06 151.56 C 123.45 152.25 123.52 153.30 124.20 153.90 C 124.89 154.51 125.94 154.45 126.54 153.76 L 127.21 153.01 C 127.81 152.32 127.75 151.28 127.06 150.67 C 126.38 150.06 125.33 150.13 124.72 150.81 Z M 124.03 151.59 L 123.38 152.35 C 122.79 153.06 122.88 154.10 123.58 154.70 C 124.28 155.29 125.33 155.20 125.92 154.50 L 126.57 153.73 C 127.16 153.03 127.08 151.98 126.38 151.39 C 125.67 150.80 124.63 150.89 124.03 151.59 Z M 123.36 152.38 L 122.73 153.16 C 122.15 153.88 122.26 154.93 122.98 155.51 C 123.70 156.08 124.74 155.97 125.32 155.25 L 125.95 154.47 C 126.53 153.76 126.42 152.71 125.70 152.13 C 124.98 151.55 123.93 151.67 123.36 152.38 Z M 122.70 153.20 L 122.09 153.99 C 121.53 154.72 121.67 155.77 122.40 156.33 C 123.13 156.89 124.18 156.75 124.74 156.02 L 125.35 155.22 C 125.91 154.49 125.77 153.45 125.04 152.89 C 124.31 152.33 123.26 152.46 122.70 153.20 Z M 122.07 154.02 L 121.48 154.83 C 120.94 155.57 121.10 156.61 121.84 157.16 C 122.59 157.70 123.63 157.54 124.18 156.79 L 124.77 155.99 C 125.31 155.24 125.15 154.20 124.40 153.65 C 123.66 153.11 122.61 153.27 122.07 154.02 Z M 121.46 154.85 L 120.89 155.67 C 120.36 156.43 120.54 157.47 121.30 158.00 C 122.06 158.53 123.10 158.34 123.63 157.58 L 124.20 156.76 C 124.73 156.01 124.54 154.97 123.78 154.44 C 123.03 153.91 121.98 154.10 121.46 154.85 Z M 120.86 155.70 L 120.31 156.54 C 119.80 157.31 120.01 158.34 120.77 158.86 C 121.54 159.37 122.58 159.16 123.09 158.39 L 123.65 157.56 C 124.16 156.79 123.95 155.75 123.18 155.24 C 122.41 154.73 121.38 154.93 120.86 155.70 Z M 120.29 156.56 L 119.75 157.41 C 119.25 158.19 119.48 159.22 120.26 159.72 C 121.04 160.22 122.08 159.99 122.57 159.21 L 123.11 158.36 C 123.61 157.58 123.38 156.55 122.60 156.05 C 121.82 155.55 120.79 155.78 120.29 156.56 Z M 119.73 157.44 L 119.21 158.30 C 118.73 159.09 118.98 160.12 119.77 160.60 C 120.56 161.08 121.59 160.83 122.07 160.04 L 122.59 159.18 C 123.07 158.39 122.82 157.36 122.03 156.88 C 121.24 156.40 120.21 156.65 119.73 157.44 Z M 119.19 158.33 L 118.69 159.20 C 118.22 160.00 118.50 161.03 119.30 161.49 C 120.11 161.95 121.13 161.67 121.59 160.87 L 122.09 160.00 C 122.56 159.20 122.28 158.18 121.48 157.71 C 120.67 157.25 119.65 157.53 119.19 158.33 Z M 118.66 159.24 L 118.19 160.12 C 117.75 160.93 118.05 161.95 118.87 162.39 C 119.68 162.83 120.70 162.53 121.14 161.71 L 121.62 160.83 C 122.06 160.02 121.75 159.00 120.94 158.56 C 120.12 158.12 119.10 158.42 118.66 159.24 Z M 118.16 160.16 L 117.72 161.05 C 117.30 161.88 117.64 162.89 118.47 163.31 C 119.30 163.72 120.31 163.38 120.72 162.56 L 121.17 161.66 C 121.58 160.83 121.25 159.83 120.42 159.41 C 119.59 159.00 118.58 159.33 118.16 160.16 Z M 117.69 161.10 L 117.28 162.01 C 116.89 162.86 117.26 163.85 118.10 164.24 C 118.94 164.63 119.94 164.26 120.33 163.42 L 120.75 162.51 C 121.13 161.66 120.76 160.67 119.92 160.28 C 119.08 159.89 118.08 160.26 117.69 161.10 Z M 117.26 162.06 L 116.86 162.97 C 116.50 163.83 116.90 164.81 117.75 165.18 C 118.60 165.54 119.59 165.15 119.95 164.29 L 120.34 163.37 C 120.71 162.52 120.31 161.54 119.46 161.17 C 118.61 160.81 117.62 161.20 117.26 162.06 Z M 116.85 163.01 L 116.48 163.93 C 116.13 164.79 116.55 165.77 117.41 166.12 C 118.27 166.46 119.25 166.04 119.59 165.18 L 119.97 164.26 C 120.31 163.40 119.89 162.42 119.03 162.08 C 118.17 161.73 117.20 162.15 116.85 163.01 Z M 116.47 163.96 L 116.11 164.89 C 115.78 165.76 116.21 166.73 117.08 167.06 C 117.94 167.39 118.91 166.96 119.25 166.09 L 119.60 165.16 C 119.94 164.30 119.50 163.32 118.64 162.99 C 117.77 162.66 116.80 163.09 116.47 163.96 Z M 116.11 164.91 L 115.74 165.89 C 115.42 166.76 115.86 167.72 116.73 168.05 C 117.60 168.37 118.57 167.92 118.89 167.06 L 119.25 166.07 C 119.57 165.21 119.13 164.24 118.26 163.92 C 117.39 163.60 116.43 164.04 116.11 164.91 Z M 115.73 165.92 L 115.39 166.89 C 115.09 167.77 115.55 168.72 116.42 169.03 C 117.29 169.34 118.25 168.88 118.56 168.00 L 118.90 167.03 C 119.20 166.15 118.74 165.20 117.87 164.89 C 117.00 164.58 116.04 165.05 115.73 165.92 Z M 115.38 166.94 L 115.07 167.88 C 114.79 168.77 115.28 169.71 116.16 169.99 C 117.04 170.27 117.98 169.79 118.27 168.91 L 118.57 167.96 C 118.85 167.08 118.37 166.13 117.48 165.85 C 116.60 165.57 115.66 166.05 115.38 166.94 Z M 115.06 167.95 L 114.81 168.85 C 114.56 169.75 115.08 170.67 115.97 170.91 C 116.87 171.16 117.79 170.64 118.04 169.75 L 118.29 168.84 C 118.53 167.95 118.01 167.03 117.12 166.78 C 116.23 166.53 115.30 167.06 115.06 167.95 Z M 114.78 168.95 L 114.57 169.94 C 114.38 170.85 114.96 171.73 115.87 171.92 C 116.77 172.12 117.66 171.54 117.85 170.63 L 118.06 169.65 C 118.25 168.74 117.67 167.85 116.77 167.66 C 115.86 167.47 114.97 168.05 114.78 168.95 Z M 114.55 170.07 L 114.43 171.04 C 114.31 171.96 114.96 172.79 115.87 172.91 C 116.79 173.03 117.63 172.38 117.74 171.47 L 117.87 170.50 C 117.99 169.59 117.34 168.75 116.43 168.63 C 115.51 168.51 114.67 169.16 114.55 170.07 Z M 114.42 171.17 L 114.37 172.15 C 114.33 173.07 115.03 173.86 115.96 173.90 C 116.88 173.95 117.66 173.24 117.70 172.32 L 117.75 171.34 C 117.80 170.42 117.09 169.64 116.17 169.59 C 115.25 169.54 114.47 170.25 114.42 171.17 Z M 114.37 172.26 L 114.39 173.26 C 114.40 174.18 115.15 174.92 116.07 174.90 C 116.99 174.89 117.73 174.14 117.72 173.22 L 117.70 172.22 C 117.69 171.30 116.94 170.56 116.02 170.57 C 115.10 170.58 114.36 171.34 114.37 172.26 Z M 114.39 173.37 L 114.47 174.36 C 114.55 175.28 115.35 175.96 116.26 175.89 C 117.18 175.82 117.86 175.02 117.79 174.10 L 117.71 173.11 C 117.64 172.19 116.83 171.51 115.92 171.58 C 115.00 171.65 114.32 172.45 114.39 173.37 Z M 114.50 174.54 L 114.68 175.53 C 114.85 176.44 115.72 177.03 116.62 176.86 C 117.52 176.69 118.12 175.82 117.95 174.92 L 117.76 173.93 C 117.59 173.03 116.73 172.43 115.82 172.60 C 114.92 172.77 114.33 173.64 114.50 174.54 Z M 114.76 175.79 L 115.10 176.73 C 115.41 177.59 116.36 178.04 117.22 177.73 C 118.08 177.42 118.53 176.47 118.22 175.61 L 117.88 174.67 C 117.57 173.81 116.62 173.36 115.76 173.67 C 114.89 173.98 114.45 174.93 114.76 175.79 Z M 115.26 177.05 L 115.76 177.86 C 116.25 178.63 117.27 178.86 118.05 178.37 C 118.82 177.88 119.05 176.86 118.56 176.09 L 118.05 175.28 C 117.57 174.51 116.54 174.28 115.77 174.77 C 115.00 175.26 114.77 176.28 115.26 177.05 Z M 115.99 178.14 L 116.66 178.80 C 117.30 179.45 118.35 179.45 119.00 178.81 C 119.64 178.16 119.64 177.11 119.00 176.47 L 118.33 175.80 C 117.69 175.16 116.64 175.16 115.99 175.80 C 115.35 176.45 115.35 177.49 115.99 178.14 Z M 116.88 178.99 L 117.70 179.56 C 118.44 180.08 119.47 179.90 119.99 179.15 C 120.51 178.40 120.33 177.37 119.59 176.85 L 118.77 176.28 C 118.03 175.76 117.00 175.94 116.47 176.69 C 115.95 177.44 116.14 178.47 116.88 178.99 Z M 117.89 179.67 L 118.82 180.15 C 119.63 180.57 120.63 180.25 121.04 179.44 C 121.46 178.63 121.14 177.63 120.33 177.22 L 119.39 176.74 C 118.58 176.32 117.59 176.64 117.17 177.45 C 116.76 178.26 117.08 179.25 117.89 179.67 Z M 118.97 180.22 L 119.96 180.60 C 120.81 180.94 121.76 180.52 122.09 179.67 C 122.43 178.83 122.01 177.87 121.16 177.54 L 120.18 177.15 C 119.33 176.82 118.38 177.24 118.05 178.08 C 117.71 178.93 118.13 179.88 118.97 180.22 Z M 120.07 180.64 L 121.06 180.95 C 121.92 181.22 122.84 180.73 123.11 179.87 C 123.38 179.00 122.90 178.08 122.04 177.81 L 121.05 177.51 C 120.19 177.24 119.27 177.72 119.00 178.58 C 118.73 179.45 119.21 180.37 120.07 180.64 Z M 121.14 180.97 L 122.15 181.22 C 123.02 181.44 123.91 180.91 124.13 180.03 C 124.36 179.16 123.83 178.27 122.95 178.05 L 121.95 177.79 C 121.07 177.57 120.18 178.10 119.96 178.98 C 119.74 179.86 120.27 180.75 121.14 180.97 Z M 122.22 181.23 L 123.21 181.43 C 124.09 181.61 124.95 181.04 125.13 180.16 C 125.31 179.27 124.74 178.41 123.86 178.23 L 122.87 178.03 C 121.99 177.85 121.13 178.42 120.95 179.31 C 120.77 180.19 121.34 181.05 122.22 181.23 Z M 123.27 181.44 L 124.21 181.59 C 125.09 181.73 125.93 181.13 126.07 180.24 C 126.21 179.35 125.61 178.51 124.72 178.37 L 123.79 178.22 C 122.90 178.08 122.06 178.69 121.92 179.58 C 121.78 180.47 122.39 181.30 123.27 181.44 Z M 124.28 181.59 L 125.36 181.71 C 126.25 181.81 127.06 181.17 127.15 180.28 C 127.25 179.39 126.61 178.58 125.72 178.49 L 124.64 178.37 C 123.75 178.27 122.95 178.91 122.85 179.80 C 122.75 180.69 123.39 181.50 124.28 181.59 Z M 125.45 181.71 L 126.45 181.77 C 127.34 181.82 128.10 181.14 128.16 180.25 C 128.21 179.36 127.53 178.60 126.64 178.55 L 125.63 178.49 C 124.74 178.44 123.98 179.12 123.93 180.01 C 123.88 180.90 124.56 181.66 125.45 181.71 Z M 126.52 181.76 L 127.45 181.78 C 128.34 181.79 129.07 181.09 129.09 180.20 C 129.10 179.32 128.39 178.58 127.51 178.57 L 126.57 178.55 C 125.68 178.54 124.95 179.24 124.94 180.13 C 124.92 181.02 125.63 181.75 126.52 181.76 Z M 127.48 181.77 L 128.42 181.77 C 129.30 181.77 130.02 181.06 130.02 180.18 C 130.02 179.29 129.30 178.58 128.42 178.58 L 127.48 178.58 C 126.60 178.58 125.89 179.29 125.88 180.17 C 125.88 181.05 126.60 181.77 127.48 181.77 Z M 128.43 181.76 L 129.42 181.75 C 130.29 181.75 131.00 181.03 130.99 180.15 C 130.98 179.28 130.27 178.57 129.39 178.58 L 128.41 178.59 C 127.53 178.59 126.83 179.31 126.83 180.19 C 126.84 181.07 127.56 181.77 128.43 181.76 Z M 129.46 181.75 L 130.46 181.71 C 131.33 181.68 132.02 180.95 131.99 180.08 C 131.96 179.20 131.23 178.52 130.35 178.55 L 129.35 178.59 C 128.48 178.62 127.79 179.35 127.82 180.22 C 127.85 181.09 128.58 181.78 129.46 181.75 Z M 130.53 181.70 L 131.55 181.62 C 132.41 181.56 133.06 180.80 133.00 179.93 C 132.93 179.07 132.17 178.42 131.31 178.48 L 130.29 178.56 C 129.42 178.63 128.77 179.38 128.84 180.25 C 128.90 181.12 129.66 181.77 130.53 181.70 Z M 131.63 181.61 L 132.59 181.49 C 133.45 181.38 134.05 180.59 133.94 179.73 C 133.84 178.88 133.05 178.27 132.19 178.38 L 131.23 178.50 C 130.37 178.61 129.76 179.39 129.87 180.25 C 129.98 181.11 130.77 181.72 131.63 181.61 Z M 132.66 181.47 L 133.64 181.29 C 134.49 181.14 135.06 180.34 134.91 179.49 C 134.76 178.64 133.95 178.07 133.10 178.22 L 132.12 178.40 C 131.27 178.55 130.70 179.35 130.85 180.20 C 131.00 181.05 131.81 181.62 132.66 181.47 Z M 133.71 181.27 L 134.71 181.05 C 135.54 180.86 136.07 180.03 135.88 179.19 C 135.69 178.36 134.86 177.83 134.02 178.02 L 133.03 178.24 C 132.19 178.43 131.67 179.26 131.86 180.10 C 132.04 180.94 132.87 181.46 133.71 181.27 Z M 134.77 181.03 L 135.73 180.77 C 136.55 180.54 137.04 179.69 136.82 178.87 C 136.59 178.05 135.74 177.56 134.92 177.78 L 133.96 178.04 C 133.14 178.27 132.65 179.12 132.87 179.94 C 133.10 180.76 133.95 181.25 134.77 181.03 Z M 135.78 180.74 L 136.71 180.45 C 137.52 180.20 137.97 179.34 137.72 178.53 C 137.47 177.72 136.60 177.27 135.79 177.52 L 134.87 177.81 C 134.06 178.06 133.61 178.92 133.86 179.73 C 134.11 180.54 134.97 180.99 135.78 180.74 Z M 136.75 180.43 L 137.69 180.11 C 138.49 179.83 138.91 178.96 138.64 178.17 C 138.36 177.37 137.49 176.94 136.70 177.22 L 135.75 177.54 C 134.96 177.81 134.53 178.68 134.80 179.48 C 135.08 180.28 135.95 180.71 136.75 180.43 Z M 137.72 180.09 L 138.68 179.73 C 139.47 179.44 139.88 178.57 139.59 177.78 C 139.30 176.99 138.42 176.59 137.64 176.88 L 136.67 177.23 C 135.88 177.52 135.48 178.40 135.77 179.19 C 136.06 179.97 136.93 180.38 137.72 180.09 Z M 138.70 179.72 L 139.65 179.35 C 140.43 179.06 140.82 178.18 140.52 177.40 C 140.22 176.62 139.35 176.23 138.57 176.53 L 137.62 176.89 C 136.84 177.19 136.45 178.07 136.75 178.85 C 137.05 179.63 137.92 180.02 138.70 179.72 Z M 139.66 179.34 L 140.59 178.97 C 141.36 178.67 141.74 177.79 141.43 177.02 C 141.13 176.25 140.25 175.87 139.48 176.18 L 138.55 176.54 C 137.78 176.85 137.40 177.73 137.71 178.50 C 138.02 179.27 138.89 179.65 139.66 179.34 Z M 140.61 178.96 L 141.54 178.57 C 142.31 178.26 142.67 177.38 142.35 176.62 C 142.04 175.85 141.16 175.49 140.40 175.81 L 139.46 176.19 C 138.70 176.51 138.34 177.38 138.65 178.15 C 138.97 178.91 139.84 179.28 140.61 178.96 Z M 141.56 178.56 L 142.49 178.15 C 143.24 177.82 143.59 176.95 143.26 176.19 C 142.93 175.44 142.05 175.09 141.30 175.42 L 140.37 175.82 C 139.62 176.15 139.27 177.03 139.60 177.78 C 139.93 178.54 140.81 178.88 141.56 178.56 Z M 142.52 178.13 L 143.42 177.71 C 144.17 177.37 144.49 176.49 144.15 175.74 C 143.80 175.00 142.92 174.68 142.18 175.02 L 141.27 175.44 C 140.53 175.78 140.20 176.67 140.55 177.41 C 140.89 178.15 141.77 178.48 142.52 178.13 Z M 143.46 177.69 L 144.37 177.23 C 145.10 176.87 145.40 175.99 145.04 175.25 C 144.67 174.52 143.79 174.23 143.06 174.59 L 142.14 175.04 C 141.41 175.41 141.12 176.29 141.48 177.02 C 141.84 177.75 142.73 178.05 143.46 177.69 Z M 144.41 177.21 L 145.29 176.74 C 146.00 176.36 146.28 175.47 145.89 174.75 C 145.51 174.03 144.62 173.76 143.90 174.14 L 143.02 174.62 C 142.31 175.00 142.03 175.89 142.42 176.60 C 142.80 177.32 143.69 177.59 144.41 177.21 Z M 145.32 176.71 L 146.18 176.22 C 146.88 175.82 147.13 174.93 146.73 174.23 C 146.33 173.53 145.43 173.28 144.73 173.68 L 143.87 174.17 C 143.17 174.57 142.92 175.46 143.32 176.17 C 143.72 176.87 144.62 177.11 145.32 176.71 Z M 146.21 176.20 L 147.05 175.69 C 147.74 175.27 147.96 174.38 147.55 173.69 C 147.13 173.00 146.24 172.78 145.55 173.19 L 144.70 173.70 C 144.01 174.12 143.79 175.02 144.21 175.71 C 144.63 176.39 145.52 176.62 146.21 176.20 Z M 147.08 175.67 L 147.91 175.13 C 148.59 174.70 148.79 173.81 148.36 173.13 C 147.93 172.45 147.03 172.25 146.35 172.69 L 145.52 173.22 C 144.84 173.65 144.65 174.55 145.08 175.22 C 145.51 175.90 146.40 176.10 147.08 175.67 Z M 147.94 175.11 L 148.77 174.56 C 149.43 174.12 149.61 173.22 149.17 172.56 C 148.72 171.89 147.82 171.71 147.16 172.15 L 146.33 172.71 C 145.67 173.15 145.49 174.05 145.93 174.71 C 146.37 175.38 147.27 175.56 147.94 175.11 Z M 148.78 174.54 L 149.61 173.97 C 150.26 173.52 150.43 172.62 149.97 171.96 C 149.52 171.31 148.62 171.15 147.96 171.60 L 147.14 172.17 C 146.49 172.63 146.32 173.53 146.78 174.18 C 147.23 174.83 148.13 175.00 148.78 174.54 Z M 149.62 173.96 L 150.44 173.37 C 151.09 172.91 151.24 172.01 150.78 171.36 C 150.31 170.72 149.42 170.57 148.77 171.03 L 147.95 171.62 C 147.30 172.08 147.15 172.98 147.62 173.62 C 148.08 174.27 148.98 174.42 149.62 173.96 Z M 150.46 173.35 L 151.25 172.77 C 151.89 172.30 152.03 171.40 151.56 170.76 C 151.09 170.13 150.19 169.99 149.55 170.46 L 148.76 171.04 C 148.12 171.51 147.98 172.41 148.45 173.05 C 148.92 173.69 149.82 173.82 150.46 173.35 Z M 151.26 172.76 L 152.05 172.16 C 152.68 171.69 152.81 170.79 152.33 170.16 C 151.86 169.53 150.96 169.40 150.33 169.88 L 149.54 170.47 C 148.91 170.95 148.78 171.84 149.26 172.48 C 149.73 173.11 150.63 173.23 151.26 172.76 Z M 152.06 172.15 L 152.86 171.54 C 153.48 171.06 153.60 170.16 153.11 169.53 C 152.63 168.91 151.73 168.79 151.11 169.28 L 150.32 169.89 C 149.69 170.37 149.57 171.27 150.06 171.89 C 150.54 172.52 151.44 172.64 152.06 172.15 Z M 152.87 171.53 L 153.66 170.90 C 154.28 170.41 154.39 169.51 153.90 168.89 C 153.41 168.27 152.51 168.17 151.89 168.66 L 151.10 169.29 C 150.48 169.78 150.37 170.68 150.86 171.30 C 151.35 171.91 152.25 172.02 152.87 171.53 Z M 153.67 170.89 L 154.46 170.26 C 155.07 169.76 155.17 168.86 154.67 168.25 C 154.17 167.64 153.28 167.54 152.66 168.04 L 151.88 168.67 C 151.27 169.17 151.17 170.07 151.67 170.68 C 152.16 171.29 153.06 171.39 153.67 170.89 Z M 154.47 170.25 L 155.23 169.62 C 155.84 169.12 155.92 168.22 155.42 167.61 C 154.92 167.00 154.02 166.92 153.41 167.42 L 152.65 168.05 C 152.04 168.55 151.96 169.45 152.46 170.05 C 152.96 170.66 153.86 170.75 154.47 170.25 Z M 155.24 169.61 L 156.00 168.97 C 156.61 168.46 156.69 167.56 156.18 166.96 C 155.68 166.36 154.78 166.28 154.17 166.78 L 153.41 167.42 C 152.80 167.93 152.72 168.83 153.23 169.43 C 153.73 170.04 154.63 170.12 155.24 169.61 Z M 156.01 168.96 L 156.78 168.31 C 157.38 167.81 157.45 166.91 156.95 166.30 C 156.44 165.70 155.54 165.63 154.94 166.14 L 154.17 166.79 C 153.57 167.30 153.49 168.20 154.00 168.80 C 154.51 169.40 155.41 169.47 156.01 168.96 Z M 156.78 168.31 L 157.55 167.66 C 158.15 167.15 158.22 166.25 157.71 165.65 C 157.20 165.05 156.30 164.97 155.70 165.48 L 154.93 166.14 C 154.33 166.65 154.26 167.55 154.77 168.15 C 155.28 168.75 156.18 168.82 156.78 168.31 Z M 157.55 167.65 L 157.73 167.50 C 158.33 166.99 158.40 166.09 157.89 165.49 C 157.38 164.89 156.48 164.82 155.88 165.33 L 155.70 165.49 C 155.10 166.00 155.03 166.89 155.54 167.49 C 156.05 168.09 156.95 168.17 157.55 167.65 Z"
      fill="black"
      fill-rule="nonzero" /></svg>