<svg xmlns="http://www.w3.org/2000/svg" width="300" height="300" viewBox="0 0 300 300">
<path d="M 149.44 83.17 L 149.51 84.19 C 149.56 85.04 150.30 85.69 151.15 85.64 C 152.01 85.58 152.65 84.84 152.60 83.99 L 152.53 82.97 C 152.48 82.12 151.74 81.47 150.89 81.53 C 150.03 81.58 149.39 82.32 149.44 83.17 Z M 149.49 84.20 L 149.56 85.21 C 149.62 86.07 150.36 86.72 151.23 86.66 C 152.09 86.61 152.74 85.86 152.68 85.00 L 152.62 83.99 C 152.56 83.12 151.81 82.47 150.95 82.53 C 150.08 82.59 149.43 83.33 149.49 84.20 Z M 149.54 85.22 L 149.61 86.21 C 149.68 87.08 150.43 87.74 151.31 87.68 C 152.18 87.61 152.84 86.85 152.77 85.98 L 152.70 84.99 C 152.64 84.11 151.88 83.46 151.01 83.52 C 150.13 83.58 149.48 84.34 149.54 85.22 Z M 149.59 86.22 L 149.67 87.19 C 149.74 88.08 150.52 88.73 151.40 88.66 C 152.28 88.59 152.94 87.82 152.87 86.93 L 152.79 85.97 C 152.72 85.08 151.95 84.42 151.06 84.50 C 150.18 84.57 149.52 85.34 149.59 86.22 Z M 149.66 87.21 L 149.75 88.20 C 149.83 89.09 150.62 89.74 151.51 89.66 C 152.40 89.58 153.05 88.79 152.97 87.90 L 152.88 86.92 C 152.80 86.03 152.01 85.37 151.12 85.45 C 150.23 85.54 149.58 86.32 149.66 87.21 Z M 149.75 88.21 L 149.85 89.19 C 149.94 90.08 150.73 90.73 151.63 90.64 C 152.52 90.55 153.17 89.75 153.07 88.86 L 152.97 87.89 C 152.88 86.99 152.09 86.35 151.20 86.44 C 150.31 86.53 149.66 87.32 149.75 88.21 Z M 149.84 89.20 L 149.95 90.19 C 150.05 91.09 150.85 91.73 151.75 91.63 C 152.64 91.54 153.28 90.73 153.19 89.84 L 153.08 88.85 C 152.98 87.96 152.18 87.31 151.28 87.41 C 150.39 87.51 149.75 88.31 149.84 89.20 Z M 149.95 90.20 L 150.06 91.21 C 150.17 92.11 150.97 92.75 151.87 92.65 C 152.76 92.55 153.41 91.74 153.31 90.84 L 153.19 89.83 C 153.09 88.94 152.28 88.30 151.39 88.40 C 150.49 88.50 149.85 89.31 149.95 90.20 Z M 150.06 91.21 L 150.17 92.14 C 150.27 93.04 151.08 93.68 151.98 93.58 C 152.88 93.47 153.52 92.66 153.42 91.77 L 153.31 90.84 C 153.21 89.94 152.40 89.30 151.50 89.40 C 150.60 89.51 149.96 90.32 150.06 91.21 Z M 150.16 92.14 L 150.27 93.11 C 150.37 94.01 151.18 94.65 152.08 94.55 C 152.98 94.45 153.63 93.64 153.53 92.74 L 153.42 91.77 C 153.32 90.87 152.51 90.22 151.61 90.32 C 150.71 90.42 150.06 91.24 150.16 92.14 Z M 150.26 93.10 L 150.37 94.11 C 150.47 95.01 151.28 95.67 152.19 95.57 C 153.09 95.47 153.74 94.66 153.65 93.76 L 153.54 92.74 C 153.44 91.84 152.63 91.19 151.72 91.29 C 150.82 91.38 150.17 92.20 150.26 93.10 Z M 150.37 94.10 L 150.48 95.15 C 150.57 96.06 151.38 96.72 152.28 96.63 C 153.19 96.54 153.85 95.73 153.76 94.82 L 153.65 93.77 C 153.56 92.86 152.75 92.20 151.84 92.29 C 150.94 92.38 150.28 93.19 150.37 94.10 Z M 150.47 95.14 L 150.56 96.11 C 150.65 97.02 151.45 97.69 152.36 97.61 C 153.27 97.52 153.94 96.71 153.86 95.80 L 153.76 94.83 C 153.68 93.92 152.87 93.25 151.96 93.34 C 151.05 93.43 150.39 94.23 150.47 95.14 Z M 150.56 96.10 L 150.64 97.04 C 150.72 97.95 151.52 98.63 152.43 98.55 C 153.34 98.47 154.02 97.67 153.94 96.75 L 153.86 95.82 C 153.78 94.90 152.98 94.23 152.07 94.31 C 151.15 94.39 150.48 95.19 150.56 96.10 Z M 150.63 97.03 L 150.71 98.00 C 150.78 98.91 151.59 99.60 152.50 99.52 C 153.41 99.45 154.10 98.65 154.02 97.73 L 153.95 96.76 C 153.87 95.85 153.07 95.17 152.16 95.24 C 151.24 95.31 150.56 96.11 150.63 97.03 Z M 150.71 97.99 L 150.78 99.00 C 150.85 99.92 151.65 100.61 152.57 100.54 C 153.48 100.47 154.17 99.67 154.10 98.75 L 154.03 97.74 C 153.96 96.83 153.16 96.14 152.24 96.21 C 151.33 96.27 150.64 97.07 150.71 97.99 Z M 150.78 98.99 L 150.85 100.04 C 150.92 100.96 151.71 101.66 152.63 101.59 C 153.55 101.53 154.25 100.73 154.18 99.81 L 154.11 98.76 C 154.04 97.84 153.25 97.15 152.33 97.21 C 151.41 97.28 150.71 98.07 150.78 98.99 Z M 150.85 100.04 L 150.92 101.09 C 150.98 102.01 151.78 102.71 152.70 102.65 C 153.62 102.59 154.32 101.79 154.26 100.87 L 154.19 99.82 C 154.12 98.89 153.33 98.20 152.41 98.26 C 151.48 98.32 150.79 99.12 150.85 100.04 Z M 150.91 101.09 L 150.97 102.01 C 151.03 102.94 151.83 103.64 152.75 103.58 C 153.68 103.52 154.38 102.72 154.32 101.80 L 154.26 100.87 C 154.20 99.95 153.40 99.25 152.48 99.31 C 151.56 99.37 150.86 100.16 150.91 101.09 Z M 150.97 102.01 L 151.03 102.97 C 151.09 103.89 151.88 104.60 152.81 104.54 C 153.73 104.49 154.44 103.69 154.38 102.76 L 154.32 101.81 C 154.27 100.88 153.47 100.18 152.54 100.23 C 151.62 100.29 150.91 101.08 150.97 102.01 Z M 151.03 102.96 L 151.08 103.95 C 151.14 104.88 151.93 105.58 152.86 105.53 C 153.78 105.48 154.49 104.68 154.44 103.76 L 154.38 102.77 C 154.33 101.84 153.54 101.14 152.61 101.19 C 151.68 101.24 150.97 102.04 151.03 102.96 Z M 151.08 103.94 L 151.13 104.95 C 151.18 105.88 151.97 106.60 152.90 106.55 C 153.83 106.50 154.55 105.71 154.50 104.78 L 154.44 103.76 C 154.39 102.84 153.60 102.12 152.67 102.17 C 151.74 102.22 151.03 103.01 151.08 103.94 Z M 151.13 104.95 L 151.18 105.98 C 151.22 106.91 152.01 107.63 152.95 107.59 C 153.88 107.54 154.59 106.75 154.55 105.82 L 154.50 104.79 C 154.45 103.86 153.66 103.14 152.73 103.18 C 151.80 103.23 151.09 104.02 151.13 104.95 Z M 151.18 105.97 L 151.22 107.03 C 151.26 107.96 152.05 108.69 152.98 108.65 C 153.91 108.61 154.64 107.82 154.60 106.89 L 154.55 105.83 C 154.51 104.90 153.72 104.18 152.79 104.22 C 151.86 104.25 151.14 105.04 151.18 105.97 Z M 151.22 107.02 L 151.26 108.02 C 151.29 108.96 152.07 109.68 153.01 109.65 C 153.94 109.62 154.67 108.83 154.64 107.90 L 154.60 106.90 C 154.56 105.96 153.78 105.24 152.85 105.27 C 151.91 105.30 151.19 106.09 151.22 107.02 Z M 151.25 108.01 L 151.28 108.97 C 151.31 109.91 152.09 110.64 153.03 110.61 C 153.96 110.58 154.70 109.80 154.67 108.87 L 154.64 107.91 C 154.61 106.97 153.83 106.24 152.89 106.27 C 151.96 106.30 151.22 107.08 151.25 108.01 Z M 151.28 108.96 L 151.31 109.94 C 151.33 110.87 152.11 111.61 153.05 111.59 C 153.98 111.56 154.72 110.78 154.70 109.85 L 154.67 108.87 C 154.65 107.94 153.87 107.20 152.93 107.22 C 151.99 107.25 151.26 108.03 151.28 108.96 Z M 151.30 109.93 L 151.33 110.92 C 151.35 111.86 152.13 112.60 153.06 112.58 C 154.00 112.56 154.74 111.78 154.72 110.84 L 154.70 109.85 C 154.68 108.92 153.90 108.17 152.96 108.20 C 152.03 108.22 151.28 108.99 151.30 109.93 Z M 151.32 110.91 L 151.34 111.92 C 151.36 112.86 152.14 113.60 153.07 113.58 C 154.01 113.57 154.76 112.79 154.74 111.85 L 154.72 110.85 C 154.71 109.91 153.93 109.16 152.99 109.18 C 152.05 109.20 151.31 109.97 151.32 110.91 Z M 151.34 111.91 L 151.36 112.93 C 151.37 113.87 152.14 114.62 153.08 114.61 C 154.02 114.59 154.78 113.82 154.76 112.88 L 154.75 111.86 C 154.73 110.92 153.96 110.17 153.02 110.18 C 152.08 110.20 151.33 110.97 151.34 111.91 Z M 151.35 112.92 L 151.37 113.96 C 151.38 114.90 152.15 115.65 153.09 115.64 C 154.03 115.63 154.79 114.86 154.78 113.92 L 154.76 112.88 C 154.75 111.94 153.98 111.19 153.04 111.20 C 152.10 111.21 151.34 111.98 151.35 112.92 Z M 151.36 113.95 L 151.37 115.00 C 151.38 115.95 152.15 116.70 153.10 116.69 C 154.04 116.69 154.80 115.91 154.79 114.97 L 154.78 113.92 C 154.77 112.98 154.00 112.22 153.06 112.23 C 152.11 112.24 151.36 113.01 151.36 113.95 Z M 151.37 115.00 L 151.38 115.96 C 151.39 116.90 152.16 117.66 153.10 117.65 C 154.04 117.65 154.80 116.88 154.80 115.93 L 154.79 114.97 C 154.78 114.03 154.01 113.27 153.07 113.28 C 152.13 113.29 151.37 114.06 151.37 115.00 Z M 151.38 115.96 L 151.39 116.93 C 151.39 117.87 152.16 118.63 153.10 118.63 C 154.05 118.62 154.81 117.85 154.80 116.91 L 154.80 115.94 C 154.79 114.99 154.02 114.23 153.08 114.24 C 152.14 114.24 151.37 115.01 151.38 115.96 Z M 151.38 116.92 L 151.39 117.91 C 151.39 118.85 152.16 119.61 153.10 119.61 C 154.05 119.61 154.81 118.84 154.81 117.90 L 154.80 116.91 C 154.80 115.97 154.03 115.21 153.09 115.21 C 152.14 115.21 151.38 115.98 151.38 116.92 Z M 151.39 117.91 L 151.39 118.90 C 151.39 119.84 152.16 120.61 153.10 120.61 C 154.05 120.60 154.81 119.84 154.81 118.89 L 154.81 117.90 C 154.80 116.95 154.04 116.19 153.09 116.19 C 152.15 116.20 151.39 116.96 151.39 117.91 Z M 151.39 118.90 L 151.39 119.90 C 151.39 120.85 152.16 121.61 153.10 121.61 C 154.05 121.61 154.81 120.84 154.81 119.90 L 154.81 118.89 C 154.81 117.95 154.04 117.19 153.10 117.19 C 152.15 117.19 151.39 117.96 151.39 118.90 Z M 151.39 119.90 L 151.39 120.92 C 151.39 121.86 152.16 122.63 153.10 122.63 C 154.05 122.63 154.81 121.86 154.81 120.91 L 154.81 119.90 C 154.81 118.96 154.04 118.19 153.10 118.19 C 152.16 118.19 151.39 118.96 151.39 119.90 Z M 151.39 120.92 L 151.39 121.94 C 151.39 122.89 152.16 123.65 153.10 123.65 C 154.05 123.65 154.81 122.88 154.81 121.94 L 154.81 120.92 C 154.81 119.97 154.05 119.21 153.10 119.21 C 152.16 119.21 151.39 119.97 151.39 120.92 Z M 151.39 121.94 L 151.39 122.97 C 151.39 123.92 152.16 124.68 153.10 124.68 C 154.05 124.68 154.81 123.92 154.81 122.97 L 154.81 121.94 C 154.81 121.00 154.05 120.23 153.10 120.23 C 152.16 120.23 151.39 121.00 151.39 121.94 Z M 151.39 122.97 L 151.39 123.98 C 151.39 124.92 152.16 125.69 153.10 125.69 C 154.05 125.69 154.81 124.92 154.81 123.98 L 154.81 122.97 C 154.81 122.03 154.05 121.26 153.10 121.26 C 152.16 121.26 151.39 122.03 151.39 122.97 Z M 151.39 123.98 L 151.39 124.96 C 151.39 125.91 152.16 126.68 153.10 126.68 C 154.05 126.68 154.82 125.91 154.82 124.96 L 154.82 123.98 C 154.82 123.03 154.05 122.26 153.10 122.26 C 152.16 122.26 151.39 123.03 151.39 123.98 Z M 151.39 124.96 L 151.39 125.96 C 151.39 126.90 152.16 127.67 153.10 127.67 C 154.05 127.67 154.82 126.90 154.82 125.96 L 154.82 124.96 C 154.82 124.02 154.05 123.25 153.10 123.25 C 152.16 123.25 151.39 124.02 151.39 124.96 Z M 151.39 125.96 L 151.39 126.95 C 151.39 127.90 152.16 128.67 153.10 128.67 C 154.05 128.67 154.82 127.90 154.82 126.95 L 154.82 125.96 C 154.82 125.01 154.05 124.24 153.10 124.24 C 152.16 124.24 151.39 125.01 151.39 125.96 Z M 151.39 126.95 L 151.39 127.95 C 151.39 128.90 152.15 129.67 153.10 129.67 C 154.05 129.67 154.82 128.90 154.82 127.95 L 154.82 126.95 C 154.82 126.00 154.05 125.24 153.10 125.24 C 152.15 125.24 151.39 126.00 151.39 126.95 Z M 151.38 127.95 L 151.38 128.96 C 151.38 129.91 152.15 130.68 153.10 130.68 C 154.05 130.68 154.82 129.91 154.82 128.96 L 154.82 127.95 C 154.82 127.01 154.05 126.24 153.10 126.24 C 152.15 126.24 151.38 127.01 151.38 127.95 Z M 151.38 128.96 L 151.38 129.97 C 151.38 130.92 152.15 131.69 153.10 131.69 C 154.05 131.69 154.82 130.92 154.82 129.97 L 154.82 128.96 C 154.82 128.01 154.05 127.24 153.10 127.24 C 152.15 127.24 151.38 128.01 151.38 128.96 Z M 151.38 129.97 L 151.38 130.98 C 151.38 131.93 152.15 132.70 153.10 132.70 C 154.05 132.70 154.83 131.93 154.83 130.98 L 154.83 129.97 C 154.83 129.01 154.05 128.24 153.10 128.24 C 152.15 128.24 151.38 129.01 151.38 129.97 Z M 151.38 130.98 L 151.38 131.98 C 151.38 132.94 152.15 133.71 153.10 133.71 C 154.06 133.71 154.83 132.94 154.83 131.98 L 154.83 130.98 C 154.83 130.02 154.06 129.25 153.10 129.25 C 152.15 129.25 151.38 130.02 151.38 130.98 Z M 151.38 131.98 L 151.38 132.99 C 151.38 133.94 152.15 134.72 153.10 134.72 C 154.06 134.72 154.83 133.94 154.83 132.99 L 154.83 131.98 C 154.83 131.03 154.06 130.26 153.10 130.26 C 152.15 130.26 151.38 131.03 151.38 131.98 Z M 151.37 132.99 L 151.37 133.99 C 151.37 134.95 152.15 135.72 153.10 135.73 C 154.06 135.73 154.83 134.95 154.83 134.00 L 154.83 132.99 C 154.83 132.04 154.06 131.26 153.10 131.26 C 152.15 131.26 151.37 132.03 151.37 132.99 Z M 151.37 133.99 L 151.37 135.00 C 151.37 135.95 152.14 136.73 153.10 136.73 C 154.05 136.73 154.83 135.96 154.83 135.00 L 154.84 134.00 C 154.84 133.04 154.06 132.26 153.11 132.26 C 152.15 132.26 151.37 133.03 151.37 133.99 Z M 151.36 134.99 L 151.36 135.99 C 151.36 136.95 152.13 137.73 153.09 137.74 C 154.05 137.74 154.83 136.97 154.83 136.01 L 154.84 135.01 C 154.84 134.05 154.07 133.27 153.11 133.26 C 152.15 133.26 151.37 134.03 151.36 134.99 Z M 151.36 135.99 L 151.35 136.99 C 151.34 137.95 152.11 138.73 153.07 138.74 C 154.03 138.75 154.82 137.98 154.83 137.02 L 154.83 136.02 C 154.84 135.06 154.07 134.27 153.11 134.26 C 152.15 134.26 151.36 135.03 151.36 135.99 Z M 151.35 136.98 L 151.33 137.98 C 151.32 138.94 152.09 139.73 153.05 139.74 C 154.01 139.76 154.80 138.99 154.82 138.03 L 154.83 137.03 C 154.84 136.06 154.07 135.27 153.11 135.26 C 152.15 135.25 151.36 136.02 151.35 136.98 Z M 151.33 137.97 L 151.31 138.97 C 151.30 139.93 152.06 140.73 153.03 140.74 C 153.99 140.76 154.78 140.00 154.80 139.03 L 154.82 138.03 C 154.84 137.07 154.07 136.28 153.11 136.26 C 152.14 136.24 151.35 137.01 151.33 137.97 Z M 151.31 138.96 L 151.29 139.95 C 151.26 140.92 152.03 141.72 152.99 141.74 C 153.96 141.77 154.76 141.00 154.78 140.04 L 154.80 139.04 C 154.83 138.08 154.06 137.28 153.10 137.25 C 152.13 137.23 151.33 137.99 151.31 138.96 Z M 151.28 139.94 L 151.25 140.93 C 151.22 141.90 151.98 142.71 152.95 142.74 C 153.91 142.77 154.72 142.01 154.75 141.04 L 154.78 140.05 C 154.81 139.09 154.05 138.28 153.09 138.25 C 152.12 138.22 151.31 138.98 151.28 139.94 Z M 151.25 140.92 L 151.21 141.92 C 151.17 142.88 151.93 143.70 152.89 143.74 C 153.86 143.77 154.68 143.02 154.71 142.05 L 154.75 141.06 C 154.79 140.09 154.04 139.28 153.07 139.24 C 152.10 139.20 151.29 139.95 151.25 140.92 Z M 151.21 141.90 L 151.16 142.90 C 151.12 143.87 151.86 144.69 152.83 144.74 C 153.80 144.78 154.62 144.03 154.67 143.07 L 154.72 142.07 C 154.76 141.10 154.01 140.28 153.05 140.23 C 152.08 140.19 151.26 140.93 151.21 141.90 Z M 151.16 142.89 L 151.11 143.88 C 151.05 144.85 151.80 145.68 152.77 145.73 C 153.73 145.79 154.56 145.04 154.62 144.07 L 154.67 143.08 C 154.72 142.11 153.98 141.28 153.01 141.23 C 152.04 141.17 151.21 141.92 151.16 142.89 Z M 151.10 143.87 L 151.04 144.86 C 150.98 145.84 151.72 146.67 152.69 146.73 C 153.66 146.79 154.50 146.05 154.56 145.08 L 154.62 144.08 C 154.68 143.11 153.94 142.28 152.97 142.22 C 152.00 142.16 151.16 142.90 151.10 143.87 Z M 151.04 144.85 L 150.97 145.85 C 150.91 146.82 151.65 147.66 152.62 147.73 C 153.59 147.79 154.43 147.06 154.49 146.08 L 154.56 145.09 C 154.62 144.12 153.89 143.28 152.92 143.21 C 151.95 143.15 151.11 143.88 151.04 144.85 Z M 150.97 145.84 L 150.90 146.84 C 150.83 147.81 151.56 148.65 152.54 148.72 C 153.51 148.79 154.36 148.06 154.43 147.09 L 154.50 146.09 C 154.57 145.12 153.83 144.27 152.86 144.20 C 151.89 144.14 151.04 144.87 150.97 145.84 Z M 150.90 146.83 L 150.82 147.83 C 150.75 148.80 151.48 149.65 152.46 149.72 C 153.43 149.80 154.28 149.07 154.35 148.09 L 154.43 147.10 C 154.50 146.12 153.77 145.27 152.80 145.20 C 151.82 145.12 150.97 145.86 150.90 146.83 Z M 150.82 147.82 L 150.74 148.82 C 150.67 149.80 151.40 150.65 152.37 150.73 C 153.35 150.80 154.20 150.08 154.28 149.10 L 154.35 148.10 C 154.43 147.12 153.70 146.27 152.73 146.19 C 151.75 146.12 150.90 146.85 150.82 147.82 Z M 150.74 148.82 L 150.66 149.82 C 150.58 150.80 151.31 151.66 152.29 151.74 C 153.26 151.81 154.12 151.09 154.20 150.11 L 154.28 149.10 C 154.36 148.13 153.63 147.27 152.65 147.19 C 151.68 147.11 150.82 147.84 150.74 148.82 Z M 150.66 149.82 L 150.57 150.84 C 150.49 151.82 151.22 152.68 152.20 152.76 C 153.18 152.84 154.04 152.11 154.12 151.13 L 154.20 150.11 C 154.28 149.13 153.55 148.27 152.57 148.19 C 151.60 148.11 150.74 148.84 150.66 149.82 Z M 150.57 150.84 L 150.49 151.86 C 150.41 152.84 151.13 153.70 152.11 153.78 C 153.09 153.87 153.95 153.14 154.03 152.16 L 154.12 151.14 C 154.20 150.16 153.47 149.30 152.49 149.21 C 151.51 149.13 150.65 149.86 150.57 150.84 Z M 150.49 151.86 L 150.40 152.88 C 150.32 153.86 151.04 154.73 152.02 154.81 C 153.00 154.89 153.86 154.17 153.95 153.19 L 154.03 152.16 C 154.12 151.18 153.39 150.32 152.41 150.24 C 151.43 150.15 150.57 150.88 150.49 151.86 Z M 150.40 152.88 L 150.31 153.90 C 150.22 154.88 150.95 155.74 151.93 155.83 C 152.91 155.91 153.78 155.19 153.86 154.21 L 153.95 153.19 C 154.03 152.21 153.31 151.34 152.33 151.26 C 151.35 151.17 150.48 151.90 150.40 152.88 Z M 150.31 153.90 L 150.22 154.90 C 150.13 155.88 150.86 156.75 151.84 156.84 C 152.82 156.92 153.69 156.20 153.77 155.22 L 153.86 154.21 C 153.95 153.23 153.22 152.36 152.24 152.27 C 151.26 152.19 150.39 152.91 150.31 153.90 Z M 150.22 154.90 L 150.13 155.89 C 150.04 156.88 150.76 157.74 151.75 157.83 C 152.73 157.92 153.60 157.20 153.69 156.21 L 153.77 155.22 C 153.86 154.24 153.14 153.37 152.16 153.28 C 151.17 153.19 150.31 153.92 150.22 154.90 Z M 150.13 155.89 L 150.04 156.87 C 149.95 157.85 150.67 158.72 151.65 158.81 C 152.64 158.90 153.51 158.18 153.60 157.20 L 153.69 156.22 C 153.78 155.24 153.05 154.36 152.07 154.27 C 151.09 154.18 150.22 154.91 150.13 155.89 Z M 150.03 156.86 L 149.94 157.82 C 149.85 158.80 150.57 159.68 151.56 159.77 C 152.54 159.86 153.41 159.14 153.51 158.16 L 153.60 157.20 C 153.69 156.22 152.97 155.34 151.98 155.25 C 151.00 155.16 150.13 155.88 150.03 156.86 Z M 149.94 157.82 L 149.85 158.77 C 149.75 159.76 150.47 160.63 151.46 160.73 C 152.44 160.82 153.32 160.10 153.42 159.12 L 153.51 158.16 C 153.60 157.18 152.88 156.30 151.90 156.21 C 150.91 156.11 150.04 156.83 149.94 157.82 Z M 149.85 158.77 L 149.74 159.84 C 149.64 160.82 150.36 161.70 151.35 161.80 C 152.33 161.90 153.21 161.18 153.31 160.20 L 153.42 159.13 C 153.52 158.14 152.80 157.26 151.81 157.16 C 150.83 157.06 149.95 157.78 149.85 158.77 Z M 149.74 159.83 L 149.63 160.87 C 149.53 161.86 150.25 162.74 151.23 162.84 C 152.22 162.94 153.10 162.23 153.20 161.24 L 153.31 160.20 C 153.41 159.22 152.70 158.33 151.71 158.23 C 150.72 158.13 149.84 158.85 149.74 159.83 Z M 149.63 160.87 L 149.52 161.87 C 149.42 162.86 150.13 163.75 151.12 163.85 C 152.10 163.96 152.99 163.24 153.10 162.26 L 153.20 161.25 C 153.31 160.26 152.59 159.37 151.61 159.27 C 150.62 159.16 149.74 159.88 149.63 160.87 Z M 149.52 161.87 L 149.41 162.85 C 149.30 163.84 150.02 164.73 151.01 164.84 C 151.99 164.95 152.88 164.23 152.99 163.25 L 153.10 162.26 C 153.21 161.27 152.49 160.39 151.50 160.28 C 150.52 160.17 149.63 160.88 149.52 161.87 Z M 149.41 162.85 L 149.30 163.81 C 149.19 164.80 149.91 165.69 150.89 165.80 C 151.88 165.91 152.77 165.20 152.88 164.21 L 152.99 163.25 C 153.10 162.26 152.39 161.37 151.40 161.26 C 150.41 161.15 149.52 161.86 149.41 162.85 Z M 149.30 163.81 L 149.19 164.76 C 149.08 165.75 149.79 166.64 150.78 166.76 C 151.77 166.87 152.66 166.16 152.78 165.17 L 152.88 164.22 C 153.00 163.23 152.29 162.34 151.30 162.22 C 150.31 162.11 149.41 162.82 149.30 163.81 Z M 149.19 164.76 L 149.09 165.70 C 148.97 166.69 149.68 167.58 150.67 167.70 C 151.66 167.81 152.56 167.10 152.67 166.11 L 152.78 165.17 C 152.89 164.18 152.18 163.29 151.19 163.17 C 150.20 163.06 149.31 163.77 149.19 164.76 Z M 149.08 165.70 L 148.97 166.70 C 148.85 167.69 149.56 168.59 150.55 168.71 C 151.55 168.82 152.44 168.11 152.56 167.12 L 152.67 166.11 C 152.79 165.12 152.08 164.22 151.09 164.11 C 150.09 163.99 149.20 164.71 149.08 165.70 Z M 148.97 166.70 L 148.85 167.72 C 148.73 168.71 149.44 169.61 150.43 169.73 C 151.43 169.84 152.32 169.13 152.44 168.14 L 152.56 167.12 C 152.67 166.13 151.96 165.23 150.97 165.11 C 149.98 165.00 149.08 165.71 148.97 166.70 Z M 148.84 167.72 L 148.73 168.73 C 148.61 169.72 149.32 170.62 150.32 170.74 C 151.31 170.85 152.21 170.14 152.32 169.15 L 152.44 168.14 C 152.56 167.15 151.85 166.25 150.85 166.13 C 149.86 166.02 148.96 166.73 148.84 167.72 Z M 148.73 168.73 L 148.61 169.73 C 148.49 170.72 149.20 171.62 150.20 171.74 C 151.19 171.86 152.09 171.14 152.21 170.15 L 152.33 169.15 C 152.44 168.16 151.73 167.26 150.74 167.14 C 149.74 167.03 148.84 167.74 148.73 168.73 Z M 148.61 169.73 L 148.49 170.71 C 148.38 171.71 149.09 172.61 150.08 172.72 C 151.08 172.84 151.98 172.13 152.10 171.13 L 152.21 170.15 C 152.33 169.15 151.61 168.25 150.62 168.14 C 149.62 168.02 148.72 168.73 148.61 169.73 Z M 148.49 170.71 L 148.38 171.68 C 148.26 172.68 148.98 173.58 149.97 173.69 C 150.97 173.81 151.87 173.10 151.99 172.10 L 152.10 171.13 C 152.21 170.14 151.50 169.24 150.50 169.12 C 149.51 169.00 148.61 169.72 148.49 170.71 Z M 148.38 171.68 L 148.26 172.64 C 148.15 173.64 148.86 174.54 149.86 174.66 C 150.86 174.77 151.76 174.06 151.88 173.06 L 151.99 172.10 C 152.10 171.10 151.39 170.20 150.39 170.08 C 149.39 169.97 148.49 170.68 148.38 171.68 Z M 148.26 172.64 L 148.14 173.69 C 148.03 174.69 148.74 175.59 149.74 175.71 C 150.74 175.82 151.64 175.11 151.76 174.11 L 151.88 173.06 C 151.99 172.06 151.28 171.16 150.28 171.04 C 149.28 170.93 148.38 171.64 148.26 172.64 Z M 148.14 173.69 L 148.02 174.72 C 147.91 175.72 148.62 176.62 149.62 176.73 C 150.62 176.85 151.53 176.13 151.64 175.13 L 151.76 174.11 C 151.87 173.11 151.16 172.20 150.16 172.09 C 149.16 171.97 148.25 172.69 148.14 173.69 Z M 148.02 174.72 L 147.91 175.72 C 147.79 176.72 148.51 177.62 149.51 177.74 C 150.51 177.85 151.42 177.13 151.53 176.13 L 151.65 175.13 C 151.76 174.13 151.04 173.22 150.04 173.11 C 149.04 173.00 148.13 173.72 148.02 174.72 Z M 147.90 175.72 L 147.79 176.70 C 147.68 177.70 148.40 178.61 149.41 178.72 C 150.41 178.83 151.31 178.11 151.43 177.11 L 151.53 176.13 C 151.65 175.12 150.93 174.22 149.92 174.11 C 148.92 174.00 148.01 174.72 147.90 175.72 Z M 147.79 176.70 L 147.68 177.66 C 147.57 178.66 148.30 179.57 149.30 179.68 C 150.31 179.79 151.21 179.06 151.32 178.06 L 151.43 177.10 C 151.54 176.10 150.81 175.19 149.81 175.08 C 148.81 174.97 147.90 175.70 147.79 176.70 Z M 147.68 177.66 L 147.58 178.62 C 147.47 179.63 148.19 180.53 149.20 180.64 C 150.21 180.75 151.11 180.03 151.22 179.02 L 151.32 178.06 C 151.43 177.05 150.71 176.15 149.70 176.04 C 148.70 175.93 147.79 176.65 147.68 177.66 Z M 147.57 178.63 L 147.46 179.69 C 147.35 180.69 148.08 181.60 149.09 181.70 C 150.10 181.81 151.00 181.08 151.11 180.08 L 151.22 179.02 C 151.33 178.01 150.60 177.11 149.59 177.00 C 148.59 176.89 147.68 177.62 147.57 178.63 Z M 147.46 179.69 L 147.35 180.72 C 147.25 181.73 147.98 182.63 148.99 182.73 C 150.00 182.84 150.90 182.11 151.00 181.10 L 151.11 180.07 C 151.22 179.06 150.48 178.16 149.47 178.05 C 148.47 177.95 147.56 178.68 147.46 179.69 Z M 147.35 180.73 L 147.25 181.72 C 147.15 182.73 147.89 183.63 148.90 183.73 C 149.91 183.83 150.81 183.10 150.91 182.09 L 151.01 181.09 C 151.11 180.08 150.37 179.18 149.36 179.08 C 148.35 178.98 147.45 179.72 147.35 180.73 Z M 147.25 181.73 L 147.16 182.68 C 147.06 183.69 147.80 184.59 148.81 184.69 C 149.82 184.79 150.72 184.04 150.82 183.03 L 150.91 182.08 C 151.01 181.07 150.26 180.17 149.25 180.07 C 148.24 179.98 147.34 180.72 147.25 181.73 Z M 147.15 182.69 L 147.07 183.63 C 146.98 184.64 147.73 185.54 148.74 185.63 C 149.75 185.72 150.65 184.97 150.74 183.96 L 150.82 183.02 C 150.91 182.01 150.16 181.12 149.15 181.02 C 148.14 180.93 147.25 181.68 147.15 182.69 Z M 147.07 183.64 L 146.98 184.71 C 146.90 185.73 147.65 186.62 148.67 186.70 C 149.68 186.78 150.57 186.03 150.65 185.01 L 150.74 183.94 C 150.82 182.93 150.07 182.04 149.05 181.96 C 148.04 181.87 147.15 182.63 147.07 183.64 Z M 146.98 184.73 L 146.90 185.74 C 146.83 186.76 147.59 187.64 148.61 187.72 C 149.62 187.79 150.51 187.03 150.58 186.01 L 150.66 185.00 C 150.73 183.98 149.97 183.10 148.95 183.02 C 147.94 182.95 147.05 183.71 146.98 184.73 Z M 146.90 185.76 L 146.84 186.72 C 146.77 187.74 147.54 188.62 148.56 188.68 C 149.58 188.75 150.46 187.98 150.52 186.96 L 150.58 185.99 C 150.65 184.98 149.88 184.10 148.86 184.03 C 147.84 183.97 146.97 184.74 146.90 185.76 Z M 146.84 186.74 L 146.78 187.67 C 146.73 188.69 147.50 189.56 148.52 189.62 C 149.54 189.68 150.42 188.90 150.47 187.88 L 150.53 186.95 C 150.58 185.93 149.80 185.05 148.78 185.00 C 147.77 184.94 146.89 185.72 146.84 186.74 Z M 146.78 187.68 L 146.73 188.71 C 146.68 189.73 147.47 190.60 148.49 190.65 C 149.51 190.70 150.38 189.91 150.43 188.89 L 150.47 187.86 C 150.52 186.84 149.74 185.97 148.72 185.93 C 147.70 185.88 146.83 186.66 146.78 187.68 Z M 146.73 188.74 L 146.70 189.74 C 146.66 190.76 147.46 191.62 148.48 191.65 C 149.50 191.69 150.36 190.89 150.39 189.86 L 150.43 188.86 C 150.46 187.84 149.66 186.99 148.64 186.95 C 147.62 186.92 146.76 187.72 146.73 188.74 Z M 146.70 189.78 L 146.68 190.76 C 146.67 191.79 147.49 192.62 148.51 192.64 C 149.53 192.65 150.37 191.83 150.38 190.81 L 150.40 189.83 C 150.41 188.80 149.59 187.97 148.57 187.95 C 147.55 187.94 146.71 188.76 146.70 189.78 Z M 146.68 190.82 L 146.70 191.93 C 146.72 192.95 147.57 193.77 148.59 193.75 C 149.61 193.73 150.42 192.89 150.40 191.86 L 150.38 190.75 C 150.37 189.73 149.52 188.92 148.50 188.94 C 147.48 188.96 146.66 189.80 146.68 190.82 Z M 146.71 192.08 L 146.83 193.26 C 146.93 194.28 147.84 195.02 148.86 194.92 C 149.88 194.81 150.62 193.91 150.51 192.89 L 150.40 191.71 C 150.29 190.69 149.39 189.95 148.37 190.05 C 147.35 190.16 146.61 191.07 146.71 192.08 Z M 147.00 193.88 L 147.32 194.53 C 147.76 195.45 148.87 195.84 149.79 195.39 C 150.71 194.94 151.10 193.84 150.65 192.92 L 150.34 192.27 C 149.89 191.35 148.79 190.96 147.87 191.41 C 146.94 191.85 146.56 192.96 147.00 193.88 Z M 149.38 195.54 L 149.83 195.44 C 150.83 195.22 151.47 194.24 151.25 193.24 C 151.04 192.23 150.05 191.60 149.05 191.81 L 148.60 191.91 C 147.59 192.13 146.96 193.11 147.17 194.11 C 147.39 195.11 148.37 195.75 149.38 195.54 Z M 150.78 194.90 L 151.35 194.31 C 152.06 193.56 152.03 192.39 151.29 191.68 C 150.54 190.97 149.37 191.00 148.66 191.75 L 148.09 192.35 C 147.39 193.09 147.42 194.26 148.16 194.97 C 148.90 195.68 150.08 195.65 150.78 194.90 Z M 151.56 194.05 L 152.23 193.04 C 152.79 192.18 152.56 191.03 151.70 190.46 C 150.84 189.90 149.69 190.13 149.12 190.99 L 148.46 192.00 C 147.89 192.86 148.13 194.01 148.98 194.58 C 149.84 195.14 150.99 194.91 151.56 194.05 Z M 152.31 192.91 L 152.94 191.76 C 153.43 190.85 153.09 189.72 152.19 189.23 C 151.28 188.74 150.15 189.07 149.66 189.98 L 149.04 191.13 C 148.55 192.03 148.88 193.16 149.79 193.65 C 150.69 194.14 151.82 193.81 152.31 192.91 Z M 152.98 191.68 L 153.41 190.79 C 153.86 189.86 153.47 188.75 152.55 188.30 C 151.62 187.85 150.50 188.24 150.06 189.16 L 149.62 190.05 C 149.17 190.98 149.56 192.09 150.49 192.54 C 151.41 192.99 152.53 192.61 152.98 191.68 Z M 153.43 190.75 L 153.85 189.80 C 154.28 188.87 153.87 187.76 152.93 187.34 C 152.00 186.91 150.89 187.33 150.47 188.26 L 150.04 189.21 C 149.61 190.14 150.03 191.24 150.96 191.67 C 151.90 192.09 153.00 191.68 153.43 190.75 Z M 153.87 189.77 L 154.28 188.81 C 154.69 187.87 154.26 186.77 153.32 186.37 C 152.37 185.96 151.28 186.39 150.87 187.33 L 150.46 188.29 C 150.05 189.24 150.48 190.33 151.42 190.74 C 152.36 191.15 153.46 190.71 153.87 189.77 Z M 154.29 188.79 L 154.68 187.84 C 155.08 186.90 154.63 185.81 153.69 185.41 C 152.74 185.02 151.66 185.46 151.26 186.41 L 150.87 187.36 C 150.47 188.30 150.92 189.39 151.86 189.78 C 152.81 190.18 153.89 189.73 154.29 188.79 Z M 154.69 187.83 L 155.05 186.93 C 155.44 185.98 154.99 184.90 154.04 184.51 C 153.09 184.13 152.01 184.58 151.62 185.53 L 151.26 186.42 C 150.87 187.37 151.33 188.45 152.27 188.84 C 153.22 189.23 154.30 188.77 154.69 187.83 Z M 155.05 186.92 L 155.45 185.93 C 155.83 184.98 155.37 183.91 154.43 183.53 C 153.48 183.15 152.40 183.60 152.02 184.55 L 151.63 185.54 C 151.25 186.48 151.70 187.56 152.65 187.94 C 153.60 188.32 154.67 187.86 155.05 186.92 Z M 155.44 185.92 L 155.85 184.89 C 156.23 183.95 155.77 182.89 154.83 182.51 C 153.89 182.14 152.82 182.59 152.44 183.53 L 152.03 184.56 C 151.66 185.50 152.12 186.57 153.06 186.94 C 154.00 187.32 155.06 186.86 155.44 185.92 Z M 155.84 184.88 L 156.19 183.99 C 156.56 183.06 156.10 182.00 155.17 181.63 C 154.24 181.26 153.18 181.72 152.81 182.65 L 152.46 183.54 C 152.09 184.48 152.55 185.53 153.48 185.90 C 154.41 186.27 155.47 185.82 155.84 184.88 Z M 156.17 183.98 L 156.50 183.16 C 156.86 182.24 156.41 181.19 155.49 180.83 C 154.56 180.46 153.52 180.91 153.15 181.84 L 152.83 182.66 C 152.46 183.58 152.92 184.63 153.84 184.99 C 154.76 185.36 155.81 184.91 156.17 183.98 Z M 156.48 183.16 L 156.82 182.30 C 157.19 181.39 156.74 180.35 155.82 179.99 C 154.90 179.62 153.87 180.07 153.51 180.99 L 153.17 181.84 C 152.80 182.76 153.25 183.80 154.17 184.16 C 155.08 184.52 156.12 184.07 156.48 183.16 Z M 156.81 182.30 L 157.17 181.38 C 157.54 180.48 157.09 179.45 156.19 179.08 C 155.28 178.72 154.25 179.16 153.88 180.07 L 153.52 180.99 C 153.16 181.90 153.60 182.93 154.51 183.29 C 155.42 183.65 156.45 183.21 156.81 182.30 Z M 157.16 181.39 L 157.54 180.45 C 157.90 179.55 157.47 178.53 156.56 178.16 C 155.66 177.80 154.64 178.24 154.27 179.14 L 153.90 180.07 C 153.53 180.97 153.97 182.00 154.87 182.36 C 155.77 182.72 156.80 182.29 157.16 181.39 Z M 157.53 180.46 L 157.91 179.51 C 158.28 178.62 157.85 177.59 156.95 177.23 C 156.06 176.86 155.04 177.29 154.67 178.19 L 154.29 179.13 C 153.92 180.03 154.35 181.05 155.24 181.41 C 156.14 181.78 157.16 181.35 157.53 180.46 Z M 157.90 179.51 L 158.27 178.63 C 158.63 177.74 158.21 176.72 157.33 176.36 C 156.44 175.99 155.42 176.41 155.05 177.30 L 154.69 178.18 C 154.32 179.07 154.74 180.09 155.63 180.45 C 156.51 180.82 157.53 180.40 157.90 179.51 Z M 158.25 178.63 L 158.63 177.73 C 159.00 176.85 158.59 175.84 157.71 175.47 C 156.83 175.09 155.82 175.51 155.45 176.39 L 155.07 177.29 C 154.70 178.17 155.11 179.18 155.99 179.55 C 156.87 179.92 157.88 179.51 158.25 178.63 Z M 158.62 177.73 L 159.02 176.80 C 159.39 175.93 158.99 174.92 158.12 174.55 C 157.25 174.17 156.24 174.58 155.86 175.45 L 155.46 176.38 C 155.09 177.25 155.49 178.26 156.37 178.63 C 157.24 179.01 158.25 178.60 158.62 177.73 Z M 159.00 176.81 L 159.42 175.85 C 159.80 174.99 159.40 173.99 158.54 173.61 C 157.67 173.23 156.67 173.63 156.29 174.49 L 155.88 175.44 C 155.50 176.31 155.90 177.31 156.76 177.69 C 157.62 178.06 158.63 177.67 159.00 176.81 Z M 159.40 175.86 L 159.80 174.96 C 160.18 174.11 159.80 173.11 158.94 172.73 C 158.09 172.35 157.09 172.73 156.71 173.59 L 156.31 174.49 C 155.93 175.34 156.31 176.34 157.17 176.72 C 158.03 177.10 159.03 176.71 159.40 175.86 Z M 159.79 174.97 L 160.20 174.05 C 160.58 173.20 160.21 172.21 159.36 171.83 C 158.51 171.44 157.52 171.82 157.14 172.67 L 156.72 173.58 C 156.34 174.43 156.72 175.43 157.56 175.81 C 158.41 176.19 159.41 175.81 159.79 174.97 Z M 160.18 174.06 L 160.61 173.14 C 161.00 172.30 160.63 171.31 159.79 170.92 C 158.95 170.53 157.96 170.90 157.58 171.74 L 157.15 172.66 C 156.76 173.50 157.13 174.49 157.97 174.87 C 158.81 175.26 159.80 174.90 160.18 174.06 Z M 160.59 173.15 L 161.02 172.24 C 161.41 171.41 161.06 170.42 160.23 170.03 C 159.40 169.64 158.42 169.99 158.02 170.82 L 157.59 171.73 C 157.20 172.56 157.55 173.55 158.38 173.94 C 159.21 174.33 160.20 173.98 160.59 173.15 Z M 161.00 172.25 L 161.45 171.33 C 161.85 170.51 161.51 169.53 160.70 169.13 C 159.88 168.73 158.89 169.07 158.49 169.88 L 158.04 170.81 C 157.64 171.62 157.98 172.61 158.80 173.01 C 159.62 173.41 160.60 173.07 161.00 172.25 Z M 161.43 171.34 L 161.89 170.44 C 162.29 169.63 161.97 168.65 161.16 168.24 C 160.35 167.84 159.37 168.16 158.97 168.97 L 158.51 169.87 C 158.11 170.68 158.43 171.66 159.24 172.07 C 160.05 172.47 161.03 172.15 161.43 171.34 Z M 161.87 170.45 L 162.32 169.57 C 162.73 168.77 162.42 167.79 161.62 167.38 C 160.83 166.97 159.85 167.28 159.44 168.08 L 158.99 168.96 C 158.58 169.76 158.89 170.74 159.68 171.15 C 160.48 171.56 161.46 171.24 161.87 170.45 Z M 162.31 169.57 L 162.76 168.70 C 163.17 167.92 162.87 166.94 162.08 166.53 C 161.29 166.12 160.32 166.42 159.91 167.21 L 159.46 168.08 C 159.04 168.86 159.35 169.84 160.13 170.25 C 160.92 170.66 161.89 170.36 162.31 169.57 Z M 162.74 168.70 L 163.22 167.81 C 163.63 167.04 163.33 166.07 162.55 165.66 C 161.77 165.24 160.81 165.54 160.40 166.32 L 159.92 167.21 C 159.51 167.99 159.81 168.95 160.59 169.37 C 161.37 169.78 162.33 169.48 162.74 168.70 Z M 163.20 167.82 L 163.68 166.93 C 164.09 166.16 163.80 165.20 163.03 164.78 C 162.26 164.37 161.30 164.66 160.89 165.43 L 160.41 166.32 C 160.00 167.09 160.29 168.05 161.06 168.46 C 161.83 168.88 162.79 168.59 163.20 167.82 Z M 163.66 166.93 L 164.14 166.05 C 164.55 165.29 164.27 164.34 163.51 163.92 C 162.75 163.51 161.79 163.79 161.38 164.55 L 160.90 165.43 C 160.49 166.19 160.77 167.14 161.53 167.56 C 162.29 167.97 163.25 167.69 163.66 166.93 Z M 164.12 166.06 L 164.60 165.19 C 165.01 164.44 164.74 163.50 163.99 163.08 C 163.24 162.67 162.29 162.94 161.87 163.69 L 161.40 164.55 C 160.98 165.30 161.25 166.25 162.01 166.66 C 162.76 167.08 163.70 166.81 164.12 166.06 Z M 164.58 165.20 L 165.07 164.32 C 165.49 163.58 165.23 162.64 164.49 162.22 C 163.75 161.80 162.81 162.06 162.39 162.80 L 161.89 163.68 C 161.47 164.42 161.74 165.37 162.48 165.78 C 163.22 166.20 164.16 165.94 164.58 165.20 Z M 165.06 164.33 L 165.56 163.46 C 165.98 162.73 165.73 161.79 165.00 161.37 C 164.27 160.95 163.33 161.20 162.91 161.93 L 162.41 162.80 C 161.99 163.53 162.24 164.46 162.97 164.88 C 163.70 165.31 164.63 165.06 165.06 164.33 Z M 165.54 163.47 L 166.05 162.61 C 166.47 161.89 166.24 160.96 165.52 160.54 C 164.80 160.11 163.87 160.34 163.44 161.06 L 162.93 161.92 C 162.50 162.64 162.74 163.57 163.46 164.00 C 164.18 164.42 165.11 164.19 165.54 163.47 Z M 166.03 162.62 L 166.54 161.77 C 166.98 161.07 166.75 160.14 166.05 159.71 C 165.34 159.27 164.41 159.50 163.98 160.21 L 163.46 161.05 C 163.03 161.76 163.25 162.69 163.96 163.12 C 164.67 163.56 165.59 163.33 166.03 162.62 Z M 166.52 161.79 L 167.07 160.92 C 167.51 160.22 167.30 159.30 166.60 158.86 C 165.90 158.42 164.98 158.63 164.54 159.33 L 164.00 160.19 C 163.56 160.89 163.77 161.81 164.46 162.25 C 165.16 162.69 166.08 162.48 166.52 161.79 Z M 167.05 160.93 L 167.60 160.09 C 168.04 159.40 167.85 158.48 167.16 158.04 C 166.48 157.59 165.56 157.79 165.11 158.47 L 164.56 159.32 C 164.12 160.00 164.31 160.92 165.00 161.37 C 165.68 161.81 166.60 161.62 167.05 160.93 Z M 167.58 160.10 L 168.12 159.29 C 168.58 158.61 168.40 157.70 167.72 157.24 C 167.05 156.79 166.13 156.97 165.68 157.65 L 165.13 158.46 C 164.68 159.14 164.86 160.05 165.53 160.50 C 166.21 160.96 167.12 160.78 167.58 160.10 Z M 168.10 159.30 L 168.63 158.54 C 169.09 157.88 168.93 156.96 168.26 156.50 C 167.60 156.04 166.69 156.21 166.23 156.87 L 165.70 157.63 C 165.24 158.30 165.40 159.21 166.07 159.67 C 166.73 160.13 167.64 159.96 168.10 159.30 Z M 168.61 158.56 L 169.15 157.82 C 169.62 157.17 169.48 156.26 168.83 155.79 C 168.18 155.31 167.26 155.46 166.79 156.11 L 166.25 156.85 C 165.78 157.50 165.92 158.41 166.57 158.88 C 167.22 159.36 168.13 159.21 168.61 158.56 Z M 169.11 157.85 L 169.72 157.07 C 170.21 156.44 170.10 155.52 169.46 155.03 C 168.83 154.54 167.92 154.66 167.43 155.29 L 166.82 156.08 C 166.33 156.71 166.45 157.62 167.08 158.11 C 167.71 158.60 168.62 158.49 169.11 157.85 Z M 169.69 157.10 L 170.41 156.22 C 170.92 155.61 170.83 154.70 170.21 154.19 C 169.60 153.68 168.69 153.77 168.18 154.39 L 167.46 155.26 C 166.95 155.88 167.04 156.79 167.66 157.30 C 168.27 157.80 169.18 157.71 169.69 157.10 Z M 170.38 156.25 L 171.01 155.52 C 171.53 154.92 171.46 154.01 170.86 153.49 C 170.26 152.97 169.35 153.04 168.83 153.64 L 168.21 154.37 C 167.69 154.97 167.75 155.88 168.36 156.39 C 168.96 156.91 169.87 156.85 170.38 156.25 Z M 170.99 155.54 L 171.66 154.80 C 172.19 154.21 172.15 153.30 171.56 152.77 C 170.97 152.24 170.06 152.28 169.53 152.87 L 168.85 153.62 C 168.32 154.21 168.37 155.12 168.96 155.65 C 169.55 156.18 170.46 156.13 170.99 155.54 Z M 171.63 154.82 L 172.35 154.07 C 172.90 153.50 172.88 152.59 172.30 152.04 C 171.73 151.50 170.82 151.52 170.27 152.09 L 169.56 152.84 C 169.01 153.42 169.03 154.33 169.61 154.87 C 170.18 155.42 171.09 155.40 171.63 154.82 Z M 172.31 154.11 L 173.05 153.38 C 173.62 152.83 173.63 151.92 173.08 151.36 C 172.52 150.79 171.62 150.78 171.05 151.33 L 170.31 152.06 C 169.75 152.61 169.74 153.52 170.29 154.08 C 170.84 154.65 171.75 154.66 172.31 154.11 Z M 173.00 153.43 L 173.74 152.77 C 174.33 152.25 174.39 151.34 173.86 150.75 C 173.34 150.16 172.43 150.11 171.84 150.63 L 171.10 151.29 C 170.51 151.81 170.46 152.72 170.98 153.31 C 171.51 153.90 172.41 153.95 173.00 153.43 Z M 173.66 152.83 L 174.52 152.18 C 175.15 151.70 175.27 150.80 174.79 150.17 C 174.31 149.55 173.41 149.43 172.78 149.91 L 171.92 150.57 C 171.30 151.05 171.18 151.94 171.66 152.57 C 172.14 153.20 173.04 153.31 173.66 152.83 Z M 174.42 152.25 L 175.29 151.69 C 175.96 151.26 176.15 150.38 175.73 149.72 C 175.30 149.05 174.42 148.86 173.76 149.28 L 172.89 149.84 C 172.22 150.26 172.03 151.15 172.45 151.81 C 172.87 152.47 173.76 152.67 174.42 152.25 Z M 175.20 151.74 L 176.05 151.28 C 176.75 150.91 177.01 150.04 176.63 149.35 C 176.26 148.66 175.39 148.40 174.70 148.77 L 173.85 149.23 C 173.15 149.60 172.90 150.47 173.27 151.16 C 173.64 151.86 174.51 152.11 175.20 151.74 Z M 175.99 151.31 L 176.83 150.91 C 177.54 150.57 177.84 149.72 177.50 149.01 C 177.16 148.30 176.31 148.00 175.60 148.34 L 174.76 148.74 C 174.05 149.08 173.75 149.93 174.09 150.64 C 174.43 151.35 175.28 151.65 175.99 151.31 Z M 176.81 150.92 L 177.12 150.78 C 177.83 150.45 178.14 149.60 177.81 148.88 C 177.48 148.17 176.63 147.86 175.92 148.19 L 175.62 148.33 C 174.90 148.66 174.59 149.51 174.92 150.22 C 175.25 150.94 176.10 151.25 176.81 150.92 Z"
      fill="black"
      fill-rule="nonzero" /><path d="M 158.55 180.68 L 157.58 180.74 C 156.68 180.81 156.01 181.58 156.07 182.47 C 156.14 183.36 156.91 184.04 157.80 183.97 L 158.77 183.91 C 159.66 183.84 160.34 183.07 160.27 182.18 C 160.21 181.29 159.44 180.62 158.55 180.68 Z M 157.57 180.75 L 156.59 180.82 C 155.70 180.88 155.03 181.66 155.09 182.55 C 155.16 183.44 155.93 184.11 156.83 184.04 L 157.81 183.97 C 158.70 183.91 159.37 183.13 159.30 182.24 C 159.24 181.35 158.46 180.68 157.57 180.75 Z M 156.58 180.82 L 155.58 180.90 C 154.68 180.97 154.02 181.75 154.09 182.64 C 154.16 183.53 154.94 184.20 155.83 184.12 L 156.84 184.04 C 157.73 183.97 158.39 183.19 158.32 182.30 C 158.25 181.41 157.47 180.75 156.58 180.82 Z M 155.56 180.90 L 154.53 180.99 C 153.64 181.07 152.98 181.86 153.06 182.75 C 153.14 183.64 153.93 184.29 154.82 184.21 L 155.85 184.12 C 156.74 184.04 157.40 183.26 157.32 182.37 C 157.24 181.48 156.45 180.82 155.56 180.90 Z M 154.51 181.00 L 153.56 181.09 C 152.67 181.18 152.02 181.97 152.11 182.86 C 152.20 183.75 152.99 184.40 153.88 184.31 L 154.83 184.21 C 155.72 184.12 156.37 183.33 156.28 182.44 C 156.19 181.56 155.40 180.91 154.51 181.00 Z M 153.56 181.09 L 152.58 181.19 C 151.69 181.28 151.04 182.07 151.13 182.96 C 151.22 183.85 152.01 184.49 152.90 184.41 L 153.88 184.31 C 154.77 184.22 155.42 183.43 155.33 182.54 C 155.24 181.65 154.45 181.00 153.56 181.09 Z M 152.59 181.19 L 151.58 181.28 C 150.69 181.37 150.04 182.15 150.12 183.04 C 150.21 183.93 150.99 184.58 151.88 184.50 L 152.89 184.41 C 153.78 184.32 154.43 183.54 154.35 182.65 C 154.26 181.76 153.48 181.11 152.59 181.19 Z M 151.61 181.28 L 150.58 181.36 C 149.69 181.43 149.03 182.21 149.10 183.10 C 149.16 183.98 149.94 184.65 150.83 184.58 L 151.86 184.50 C 152.75 184.43 153.41 183.66 153.34 182.77 C 153.27 181.88 152.50 181.21 151.61 181.28 Z M 150.62 181.36 L 149.58 181.42 C 148.69 181.46 148.00 182.22 148.05 183.11 C 148.10 184.00 148.86 184.69 149.75 184.64 L 150.79 184.58 C 151.68 184.53 152.37 183.77 152.32 182.88 C 152.27 181.99 151.51 181.31 150.62 181.36 Z M 149.63 181.41 L 148.59 181.43 C 147.70 181.45 146.99 182.19 147.00 183.08 C 147.02 183.97 147.76 184.68 148.65 184.66 L 149.69 184.64 C 150.59 184.63 151.29 183.89 151.28 183.00 C 151.26 182.10 150.52 181.40 149.63 181.41 Z M 148.67 181.43 L 147.66 181.40 C 146.76 181.37 146.02 182.07 145.99 182.96 C 145.96 183.85 146.66 184.60 147.55 184.63 L 148.57 184.66 C 149.46 184.69 150.21 183.99 150.24 183.10 C 150.26 182.21 149.57 181.46 148.67 181.43 Z M 147.77 181.40 L 146.81 181.30 C 145.92 181.21 145.12 181.85 145.02 182.74 C 144.93 183.63 145.57 184.42 146.46 184.52 L 147.43 184.62 C 148.32 184.72 149.11 184.07 149.21 183.19 C 149.31 182.30 148.66 181.50 147.77 181.40 Z M 146.97 181.33 L 146.06 181.13 C 145.18 180.94 144.32 181.50 144.13 182.37 C 143.95 183.25 144.50 184.11 145.38 184.30 L 146.29 184.49 C 147.17 184.68 148.03 184.12 148.22 183.25 C 148.40 182.38 147.85 181.51 146.97 181.33 Z M 146.28 181.20 L 145.35 180.85 C 144.51 180.53 143.58 180.96 143.26 181.80 C 142.95 182.63 143.38 183.57 144.21 183.88 L 145.15 184.23 C 145.99 184.54 146.92 184.12 147.23 183.28 C 147.54 182.44 147.12 181.51 146.28 181.20 Z M 145.57 180.95 L 144.72 180.48 C 143.94 180.04 142.96 180.32 142.52 181.10 C 142.08 181.88 142.36 182.86 143.14 183.30 L 143.99 183.77 C 144.77 184.21 145.75 183.93 146.19 183.15 C 146.63 182.37 146.35 181.39 145.57 180.95 Z M 144.89 180.59 L 144.10 180.00 C 143.38 179.46 142.37 179.61 141.83 180.33 C 141.30 181.05 141.45 182.06 142.17 182.59 L 142.97 183.19 C 143.68 183.72 144.70 183.57 145.23 182.85 C 145.76 182.13 145.61 181.12 144.89 180.59 Z M 144.20 180.09 L 143.47 179.43 C 142.80 178.84 141.78 178.90 141.19 179.57 C 140.59 180.23 140.65 181.25 141.32 181.85 L 142.06 182.50 C 142.73 183.09 143.75 183.03 144.34 182.37 C 144.93 181.70 144.87 180.68 144.20 180.09 Z M 143.53 179.50 L 142.88 178.84 C 142.25 178.21 141.23 178.21 140.60 178.84 C 139.97 179.46 139.97 180.48 140.59 181.11 L 141.25 181.77 C 141.88 182.40 142.90 182.41 143.53 181.78 C 144.16 181.15 144.16 180.13 143.53 179.50 Z M 142.94 178.92 L 142.29 178.18 C 141.70 177.52 140.69 177.45 140.03 178.04 C 139.36 178.62 139.30 179.64 139.88 180.30 L 140.53 181.04 C 141.12 181.70 142.13 181.77 142.80 181.18 C 143.46 180.59 143.52 179.58 142.94 178.92 Z M 142.35 178.26 L 141.72 177.45 C 141.18 176.75 140.18 176.62 139.48 177.16 C 138.78 177.70 138.65 178.71 139.19 179.40 L 139.82 180.22 C 140.36 180.92 141.36 181.05 142.06 180.51 C 142.76 179.97 142.89 178.96 142.35 178.26 Z M 141.78 177.54 L 141.18 176.65 C 140.70 175.92 139.71 175.72 138.98 176.21 C 138.25 176.70 138.05 177.69 138.54 178.42 L 139.13 179.31 C 139.62 180.04 140.61 180.24 141.34 179.75 C 142.07 179.26 142.27 178.28 141.78 177.54 Z M 141.23 176.75 L 140.72 175.86 C 140.29 175.10 139.32 174.84 138.56 175.27 C 137.81 175.70 137.54 176.67 137.98 177.43 L 138.49 178.32 C 138.92 179.08 139.89 179.34 140.65 178.91 C 141.40 178.47 141.67 177.51 141.23 176.75 Z M 140.75 175.94 L 140.29 175.02 C 139.90 174.25 138.96 173.94 138.19 174.32 C 137.42 174.71 137.10 175.65 137.49 176.42 L 137.95 177.34 C 138.34 178.12 139.28 178.43 140.05 178.04 C 140.82 177.66 141.14 176.72 140.75 175.94 Z M 140.30 175.09 L 139.89 174.15 C 139.54 173.37 138.63 173.02 137.85 173.37 C 137.06 173.71 136.71 174.63 137.06 175.41 L 137.47 176.35 C 137.82 177.13 138.73 177.48 139.52 177.14 C 140.30 176.79 140.65 175.88 140.30 175.09 Z M 139.90 174.22 L 139.53 173.29 C 139.22 172.50 138.33 172.12 137.54 172.43 C 136.76 172.74 136.37 173.63 136.68 174.41 L 137.05 175.34 C 137.36 176.13 138.25 176.52 139.04 176.21 C 139.82 175.90 140.21 175.01 139.90 174.22 Z M 139.53 173.35 L 139.22 172.45 C 138.94 171.66 138.08 171.25 137.29 171.53 C 136.50 171.81 136.08 172.67 136.36 173.46 L 136.68 174.35 C 136.95 175.14 137.82 175.56 138.61 175.28 C 139.40 175.00 139.81 174.14 139.53 173.35 Z M 139.22 172.52 L 138.91 171.50 C 138.67 170.71 137.83 170.26 137.04 170.51 C 136.25 170.75 135.81 171.59 136.05 172.38 L 136.36 173.39 C 136.60 174.18 137.44 174.63 138.23 174.39 C 139.02 174.15 139.46 173.31 139.22 172.52 Z M 138.91 171.57 L 138.66 170.59 C 138.46 169.80 137.65 169.32 136.86 169.52 C 136.07 169.72 135.59 170.53 135.80 171.32 L 136.05 172.30 C 136.25 173.09 137.05 173.57 137.84 173.37 C 138.63 173.17 139.11 172.36 138.91 171.57 Z M 138.66 170.66 L 138.46 169.72 C 138.30 168.93 137.52 168.42 136.74 168.59 C 135.95 168.75 135.44 169.52 135.60 170.31 L 135.80 171.25 C 135.96 172.04 136.74 172.55 137.53 172.38 C 138.31 172.22 138.82 171.45 138.66 170.66 Z M 138.45 169.77 L 138.29 168.83 C 138.15 168.05 137.41 167.53 136.62 167.66 C 135.84 167.80 135.32 168.54 135.45 169.33 L 135.61 170.26 C 135.75 171.04 136.50 171.57 137.28 171.43 C 138.06 171.30 138.59 170.55 138.45 169.77 Z M 138.28 168.86 L 138.13 167.90 C 138.01 167.13 137.28 166.59 136.50 166.71 C 135.72 166.83 135.19 167.56 135.31 168.34 L 135.46 169.30 C 135.58 170.08 136.31 170.61 137.09 170.49 C 137.87 170.37 138.40 169.64 138.28 168.86 Z M 138.13 167.92 L 137.99 166.94 C 137.88 166.16 137.16 165.62 136.38 165.73 C 135.60 165.84 135.05 166.56 135.17 167.34 L 135.31 168.33 C 135.42 169.11 136.15 169.65 136.93 169.54 C 137.71 169.42 138.25 168.70 138.13 167.92 Z M 137.99 166.95 L 137.86 165.94 C 137.75 165.16 137.03 164.62 136.25 164.73 C 135.47 164.83 134.92 165.55 135.03 166.33 L 135.17 167.33 C 135.27 168.11 135.99 168.66 136.77 168.55 C 137.55 168.45 138.10 167.73 137.99 166.95 Z M 137.85 165.95 L 137.72 164.94 C 137.61 164.16 136.90 163.61 136.12 163.71 C 135.34 163.82 134.79 164.54 134.89 165.32 L 135.03 166.33 C 135.13 167.11 135.85 167.66 136.63 167.55 C 137.41 167.45 137.96 166.73 137.85 165.95 Z"
      fill="black"
      fill-rule="nonzero" /></svg>