<svg xmlns="http://www.w3.org/2000/svg" width="300" height="300" viewBox="0 0 300 300">
<path d="M 131.63 133.07 L 131.47 133.96 C 131.32 134.79 131.86 135.58 132.69 135.73 C 133.52 135.88 134.31 135.34 134.46 134.51 L 134.62 133.62 C 134.78 132.79 134.23 132.00 133.40 131.85 C 132.57 131.70 131.78 132.24 131.63 133.07 Z M 131.44 133.97 L 131.28 134.90 C 131.13 135.75 131.70 136.55 132.54 136.69 C 133.39 136.84 134.19 136.27 134.33 135.42 L 134.49 134.50 C 134.64 133.65 134.07 132.85 133.23 132.71 C 132.38 132.56 131.58 133.13 131.44 133.97 Z M 131.24 134.93 L 131.09 135.93 C 130.96 136.80 131.56 137.60 132.42 137.73 C 133.28 137.86 134.09 137.26 134.22 136.40 L 134.37 135.40 C 134.50 134.54 133.90 133.73 133.04 133.60 C 132.18 133.47 131.37 134.07 131.24 134.93 Z M 131.06 135.97 L 130.92 137.09 C 130.81 137.97 131.44 138.77 132.32 138.88 C 133.20 138.99 134.00 138.37 134.11 137.49 L 134.25 136.37 C 134.36 135.49 133.73 134.68 132.85 134.57 C 131.97 134.46 131.17 135.09 131.06 135.97 Z M 130.90 137.12 L 130.80 138.09 C 130.71 138.98 131.36 139.78 132.25 139.87 C 133.15 139.96 133.94 139.31 134.03 138.42 L 134.13 137.45 C 134.22 136.56 133.57 135.76 132.68 135.67 C 131.79 135.58 130.99 136.23 130.90 137.12 Z M 130.80 138.11 L 130.71 139.12 C 130.64 140.02 131.30 140.80 132.19 140.88 C 133.08 140.96 133.87 140.30 133.95 139.40 L 134.03 138.39 C 134.11 137.50 133.45 136.71 132.56 136.63 C 131.66 136.56 130.88 137.22 130.80 138.11 Z M 130.71 139.14 L 130.63 140.17 C 130.56 141.07 131.23 141.85 132.13 141.92 C 133.02 141.99 133.80 141.32 133.87 140.42 L 133.95 139.39 C 134.02 138.49 133.35 137.71 132.45 137.64 C 131.56 137.58 130.78 138.24 130.71 139.14 Z M 130.63 140.18 L 130.56 141.21 C 130.49 142.10 131.17 142.88 132.06 142.94 C 132.96 143.00 133.73 142.33 133.80 141.44 L 133.87 140.41 C 133.93 139.52 133.26 138.74 132.37 138.68 C 131.47 138.61 130.69 139.29 130.63 140.18 Z M 130.56 141.21 L 130.49 142.19 C 130.43 143.08 131.10 143.86 132.00 143.92 C 132.89 143.98 133.67 143.30 133.73 142.41 L 133.80 141.43 C 133.86 140.54 133.18 139.76 132.29 139.70 C 131.39 139.64 130.62 140.32 130.56 141.21 Z M 130.49 142.19 L 130.42 143.25 C 130.35 144.15 131.03 144.92 131.93 144.99 C 132.82 145.05 133.60 144.37 133.66 143.48 L 133.73 142.41 C 133.79 141.52 133.12 140.74 132.22 140.68 C 131.33 140.62 130.55 141.29 130.49 142.19 Z M 130.42 143.25 L 130.34 144.28 C 130.28 145.18 130.96 145.95 131.85 146.02 C 132.74 146.08 133.52 145.41 133.58 144.51 L 133.66 143.48 C 133.72 142.58 133.05 141.81 132.15 141.75 C 131.26 141.68 130.48 142.36 130.42 143.25 Z M 130.34 144.28 L 130.28 145.24 C 130.21 146.14 130.89 146.91 131.78 146.98 C 132.68 147.04 133.45 146.37 133.52 145.47 L 133.58 144.51 C 133.65 143.62 132.97 142.84 132.08 142.78 C 131.18 142.71 130.41 143.39 130.34 144.28 Z M 130.28 145.24 L 130.21 146.18 C 130.15 147.07 130.82 147.85 131.72 147.91 C 132.61 147.97 133.39 147.30 133.45 146.40 L 133.52 145.47 C 133.58 144.58 132.90 143.80 132.01 143.74 C 131.11 143.67 130.34 144.35 130.28 145.24 Z M 130.21 146.18 L 130.15 147.13 C 130.09 148.03 130.76 148.80 131.66 148.86 C 132.55 148.92 133.33 148.25 133.39 147.35 L 133.45 146.40 C 133.51 145.51 132.84 144.73 131.94 144.67 C 131.05 144.61 130.27 145.29 130.21 146.18 Z M 130.15 147.13 L 130.08 148.11 C 130.02 149.01 130.70 149.78 131.59 149.84 C 132.49 149.90 133.26 149.23 133.32 148.33 L 133.39 147.35 C 133.45 146.46 132.77 145.68 131.88 145.62 C 130.98 145.56 130.21 146.24 130.15 147.13 Z M 130.08 148.10 L 130.01 149.11 C 129.94 150.00 130.62 150.78 131.51 150.84 C 132.41 150.91 133.18 150.24 133.25 149.34 L 133.32 148.34 C 133.38 147.44 132.71 146.67 131.82 146.60 C 130.92 146.54 130.15 147.21 130.08 148.10 Z M 130.01 149.09 L 129.93 150.11 C 129.86 151.01 130.52 151.79 131.42 151.86 C 132.31 151.93 133.09 151.27 133.16 150.37 L 133.25 149.36 C 133.32 148.46 132.65 147.68 131.76 147.61 C 130.86 147.53 130.08 148.20 130.01 149.09 Z M 129.93 150.09 L 129.84 151.10 C 129.75 151.99 130.41 152.78 131.30 152.87 C 132.19 152.95 132.99 152.29 133.07 151.40 L 133.16 150.39 C 133.25 149.50 132.59 148.71 131.70 148.63 C 130.80 148.54 130.01 149.20 129.93 150.09 Z M 129.84 151.08 L 129.73 152.07 C 129.64 152.96 130.29 153.76 131.18 153.85 C 132.07 153.95 132.87 153.30 132.96 152.41 L 133.07 151.42 C 133.16 150.53 132.51 149.73 131.62 149.64 C 130.73 149.54 129.93 150.19 129.84 151.08 Z M 129.74 152.05 L 129.62 153.05 C 129.52 153.94 130.16 154.74 131.05 154.84 C 131.94 154.94 132.74 154.31 132.84 153.42 L 132.96 152.43 C 133.06 151.54 132.42 150.73 131.53 150.63 C 130.64 150.53 129.84 151.16 129.74 152.05 Z M 129.63 153.04 L 129.50 154.03 C 129.40 154.92 130.03 155.73 130.92 155.84 C 131.81 155.94 132.61 155.31 132.72 154.42 L 132.84 153.43 C 132.95 152.54 132.32 151.73 131.43 151.62 C 130.54 151.52 129.73 152.15 129.63 153.04 Z M 129.51 154.03 L 129.38 155.03 C 129.27 155.91 129.91 156.72 130.79 156.83 C 131.68 156.94 132.49 156.31 132.60 155.42 L 132.72 154.43 C 132.83 153.54 132.20 152.73 131.31 152.62 C 130.42 152.51 129.62 153.14 129.51 154.03 Z M 129.38 155.03 L 129.26 156.01 C 129.16 156.90 129.79 157.70 130.67 157.81 C 131.56 157.92 132.37 157.29 132.48 156.40 L 132.60 155.42 C 132.71 154.53 132.07 153.73 131.19 153.62 C 130.30 153.51 129.49 154.14 129.38 155.03 Z M 129.27 156.01 L 129.14 157.00 C 129.04 157.89 129.67 158.69 130.55 158.80 C 131.44 158.91 132.25 158.28 132.35 157.39 L 132.48 156.40 C 132.58 155.52 131.95 154.71 131.07 154.60 C 130.18 154.49 129.37 155.13 129.27 156.01 Z M 129.15 157.00 L 129.03 158.00 C 128.92 158.88 129.55 159.69 130.44 159.80 C 131.32 159.90 132.13 159.27 132.23 158.39 L 132.35 157.39 C 132.46 156.50 131.83 155.70 130.94 155.59 C 130.06 155.49 129.25 156.12 129.15 157.00 Z M 129.03 158.00 L 128.91 159.00 C 128.80 159.89 129.43 160.69 130.32 160.80 C 131.20 160.90 132.01 160.27 132.11 159.39 L 132.23 158.38 C 132.34 157.50 131.71 156.70 130.82 156.59 C 129.94 156.48 129.13 157.11 129.03 158.00 Z M 128.91 159.00 L 128.79 160.00 C 128.68 160.89 129.31 161.69 130.20 161.79 C 131.08 161.90 131.89 161.27 131.99 160.38 L 132.11 159.39 C 132.22 158.50 131.58 157.70 130.70 157.59 C 129.82 157.49 129.01 158.12 128.91 159.00 Z M 128.79 160.00 L 128.67 161.00 C 128.57 161.88 129.20 162.68 130.08 162.79 C 130.96 162.89 131.77 162.26 131.87 161.38 L 131.99 160.38 C 132.09 159.50 131.46 158.70 130.58 158.59 C 129.70 158.49 128.90 159.12 128.79 160.00 Z M 128.68 161.00 L 128.56 162.00 C 128.45 162.88 129.08 163.68 129.96 163.78 C 130.84 163.89 131.64 163.26 131.75 162.38 L 131.87 161.38 C 131.97 160.50 131.34 159.70 130.46 159.59 C 129.58 159.49 128.78 160.12 128.68 161.00 Z M 128.56 162.00 L 128.44 162.99 C 128.34 163.87 128.96 164.66 129.84 164.77 C 130.72 164.88 131.52 164.25 131.63 163.37 L 131.75 162.38 C 131.85 161.50 131.22 160.70 130.34 160.59 C 129.46 160.49 128.67 161.12 128.56 162.00 Z M 128.44 162.98 L 128.32 163.98 C 128.22 164.86 128.84 165.66 129.72 165.76 C 130.60 165.87 131.40 165.24 131.50 164.37 L 131.62 163.37 C 131.73 162.49 131.10 161.69 130.23 161.59 C 129.35 161.48 128.55 162.11 128.44 162.98 Z M 128.33 163.98 L 128.20 165.00 C 128.10 165.87 128.72 166.67 129.60 166.78 C 130.47 166.88 131.27 166.26 131.38 165.38 L 131.50 164.37 C 131.61 163.49 130.98 162.69 130.11 162.59 C 129.23 162.48 128.43 163.10 128.33 163.98 Z M 128.21 165.00 L 128.09 166.00 C 127.98 166.87 128.60 167.67 129.48 167.77 C 130.35 167.88 131.14 167.26 131.25 166.38 L 131.37 165.38 C 131.48 164.51 130.86 163.71 129.98 163.61 C 129.11 163.50 128.31 164.12 128.21 165.00 Z M 128.09 166.00 L 127.97 166.98 C 127.87 167.85 128.49 168.65 129.36 168.75 C 130.23 168.85 131.02 168.23 131.13 167.36 L 131.25 166.38 C 131.35 165.51 130.73 164.71 129.86 164.61 C 128.99 164.51 128.19 165.13 128.09 166.00 Z M 127.97 166.99 L 127.86 167.95 C 127.76 168.82 128.38 169.61 129.25 169.71 C 130.12 169.81 130.91 169.19 131.01 168.32 L 131.13 167.35 C 131.23 166.48 130.60 165.70 129.73 165.59 C 128.86 165.49 128.08 166.12 127.97 166.99 Z M 127.87 167.96 L 127.75 168.98 C 127.65 169.85 128.28 170.64 129.15 170.73 C 130.01 170.83 130.80 170.21 130.89 169.34 L 131.01 168.31 C 131.11 167.45 130.48 166.66 129.61 166.56 C 128.75 166.47 127.96 167.09 127.87 167.96 Z M 127.76 168.99 L 127.64 169.99 C 127.55 170.85 128.17 171.63 129.04 171.73 C 129.90 171.82 130.68 171.20 130.78 170.34 L 130.89 169.34 C 130.98 168.47 130.36 167.69 129.50 167.60 C 128.63 167.50 127.85 168.12 127.76 168.99 Z M 127.65 169.98 L 127.54 170.96 C 127.44 171.82 128.06 172.60 128.92 172.70 C 129.78 172.80 130.56 172.18 130.66 171.32 L 130.77 170.34 C 130.87 169.48 130.25 168.70 129.39 168.60 C 128.53 168.50 127.75 169.12 127.65 169.98 Z M 127.55 170.95 L 127.43 171.91 C 127.33 172.77 127.94 173.55 128.79 173.65 C 129.65 173.76 130.43 173.15 130.53 172.29 L 130.65 171.33 C 130.75 170.47 130.14 169.69 129.29 169.59 C 128.43 169.49 127.65 170.10 127.55 170.95 Z M 127.44 171.90 L 127.32 172.85 C 127.20 173.71 127.81 174.49 128.66 174.60 C 129.51 174.71 130.29 174.11 130.40 173.26 L 130.53 172.30 C 130.64 171.45 130.03 170.67 129.18 170.56 C 128.33 170.45 127.55 171.05 127.44 171.90 Z M 127.32 172.86 L 127.20 173.83 C 127.09 174.67 127.69 175.45 128.54 175.56 C 129.38 175.67 130.16 175.07 130.27 174.22 L 130.39 173.25 C 130.50 172.40 129.90 171.63 129.06 171.52 C 128.21 171.41 127.43 172.01 127.32 172.86 Z M 127.20 173.84 L 127.08 174.86 C 126.98 175.70 127.59 176.47 128.44 176.57 C 129.28 176.67 130.05 176.06 130.15 175.21 L 130.27 174.20 C 130.36 173.36 129.76 172.59 128.91 172.49 C 128.07 172.39 127.30 173.00 127.20 173.84 Z M 127.09 174.89 L 126.97 176.05 C 126.89 176.90 127.51 177.65 128.35 177.73 C 129.20 177.81 129.95 177.19 130.03 176.35 L 130.14 175.18 C 130.22 174.34 129.61 173.59 128.76 173.51 C 127.92 173.43 127.17 174.04 127.09 174.89 Z M 126.98 176.10 L 126.89 177.43 C 126.83 178.27 127.46 179.00 128.30 179.06 C 129.15 179.12 129.87 178.48 129.93 177.64 L 130.02 176.31 C 130.08 175.47 129.45 174.74 128.61 174.68 C 127.77 174.62 127.04 175.26 126.98 176.10 Z M 126.89 177.51 L 126.88 178.48 C 126.86 179.32 127.53 180.01 128.36 180.03 C 129.20 180.04 129.89 179.37 129.91 178.54 L 129.93 177.57 C 129.94 176.73 129.28 176.04 128.44 176.02 C 127.60 176.01 126.91 176.67 126.89 177.51 Z M 127.00 179.07 L 127.09 179.30 C 127.40 180.07 128.28 180.44 129.05 180.13 C 129.82 179.82 130.19 178.94 129.88 178.17 L 129.79 177.94 C 129.48 177.17 128.60 176.80 127.83 177.11 C 127.06 177.42 126.68 178.30 127.00 179.07 Z M 129.90 179.18 L 130.10 178.56 C 130.34 177.78 129.91 176.94 129.13 176.70 C 128.34 176.45 127.51 176.88 127.26 177.67 L 127.06 178.28 C 126.82 179.07 127.25 179.90 128.03 180.15 C 128.82 180.40 129.65 179.96 129.90 179.18 Z M 130.11 178.43 L 130.36 177.30 C 130.54 176.51 130.04 175.73 129.25 175.55 C 128.47 175.37 127.68 175.87 127.51 176.66 L 127.25 177.79 C 127.07 178.58 127.57 179.37 128.36 179.54 C 129.15 179.72 129.93 179.22 130.11 178.43 Z M 130.34 177.26 L 130.61 175.96 C 130.76 175.18 130.26 174.42 129.48 174.26 C 128.70 174.11 127.94 174.61 127.78 175.39 L 127.52 176.69 C 127.37 177.47 127.87 178.23 128.65 178.39 C 129.43 178.54 130.19 178.04 130.34 177.26 Z M 130.60 175.94 L 130.81 174.83 C 130.95 174.05 130.45 173.30 129.67 173.16 C 128.90 173.01 128.15 173.52 128.00 174.29 L 127.79 175.41 C 127.65 176.18 128.15 176.93 128.93 177.08 C 129.70 177.22 130.45 176.72 130.60 175.94 Z M 130.81 174.81 L 130.99 173.83 C 131.13 173.05 130.62 172.31 129.84 172.17 C 129.07 172.03 128.32 172.54 128.18 173.32 L 128.00 174.30 C 127.86 175.08 128.38 175.82 129.15 175.96 C 129.93 176.10 130.67 175.59 130.81 174.81 Z M 130.99 173.82 L 131.15 172.91 C 131.29 172.14 130.77 171.40 129.99 171.26 C 129.22 171.12 128.48 171.64 128.34 172.42 L 128.18 173.33 C 128.04 174.10 128.56 174.84 129.34 174.98 C 130.11 175.11 130.85 174.60 130.99 173.82 Z M 131.15 172.91 L 131.22 172.48 C 131.36 171.71 130.84 170.97 130.06 170.83 C 129.29 170.70 128.55 171.22 128.42 171.99 L 128.34 172.42 C 128.21 173.20 128.73 173.93 129.50 174.07 C 130.28 174.20 131.01 173.69 131.15 172.91 Z"
      fill="black"
      fill-rule="nonzero" /><path d="M 130.69 127.05 L 130.73 128.02 C 130.76 128.85 131.46 129.51 132.29 129.47 C 133.13 129.44 133.78 128.74 133.75 127.91 L 133.71 126.94 C 133.68 126.10 132.98 125.45 132.14 125.48 C 131.31 125.51 130.66 126.22 130.69 127.05 Z M 130.69 128.07 L 130.76 129.05 C 130.82 129.90 131.56 130.54 132.41 130.48 C 133.27 130.43 133.91 129.68 133.85 128.83 L 133.78 127.85 C 133.73 127.00 132.98 126.36 132.13 126.42 C 131.28 126.47 130.63 127.22 130.69 128.07 Z M 130.73 129.14 L 130.86 130.13 C 130.98 131.00 131.77 131.62 132.64 131.50 C 133.51 131.39 134.12 130.59 134.01 129.72 L 133.88 128.73 C 133.77 127.86 132.97 127.25 132.10 127.36 C 131.23 127.48 130.62 128.28 130.73 129.14 Z M 130.85 130.28 L 131.07 131.29 C 131.27 132.17 132.13 132.72 133.01 132.52 C 133.89 132.33 134.44 131.46 134.25 130.59 L 134.02 129.58 C 133.83 128.70 132.96 128.15 132.08 128.34 C 131.21 128.53 130.65 129.40 130.85 130.28 Z M 131.09 131.45 L 131.41 132.42 C 131.69 133.28 132.62 133.75 133.49 133.47 C 134.36 133.19 134.83 132.25 134.54 131.39 L 134.23 130.42 C 133.94 129.56 133.01 129.08 132.14 129.37 C 131.28 129.65 130.81 130.59 131.09 131.45 Z M 131.44 132.54 L 131.83 133.48 C 132.19 134.33 133.16 134.73 134.00 134.38 C 134.85 134.03 135.25 133.06 134.90 132.21 L 134.51 131.27 C 134.16 130.42 133.19 130.02 132.34 130.37 C 131.49 130.72 131.09 131.69 131.44 132.54 Z M 131.86 133.56 L 132.30 134.49 C 132.70 135.32 133.69 135.68 134.52 135.29 C 135.35 134.89 135.71 133.90 135.31 133.07 L 134.87 132.14 C 134.48 131.31 133.49 130.95 132.66 131.34 C 131.83 131.74 131.47 132.73 131.86 133.56 Z M 132.32 134.54 L 132.77 135.43 C 133.19 136.25 134.20 136.58 135.02 136.16 C 135.84 135.74 136.17 134.74 135.75 133.92 L 135.30 133.02 C 134.88 132.20 133.87 131.87 133.05 132.29 C 132.23 132.71 131.90 133.72 132.32 134.54 Z M 132.78 135.44 L 133.22 136.30 C 133.65 137.12 134.66 137.44 135.48 137.01 C 136.30 136.59 136.62 135.57 136.19 134.75 L 135.75 133.90 C 135.32 133.08 134.31 132.76 133.49 133.19 C 132.67 133.61 132.35 134.62 132.78 135.44 Z M 133.21 136.29 L 133.71 137.27 C 134.13 138.10 135.14 138.43 135.96 138.01 C 136.79 137.59 137.12 136.58 136.70 135.75 L 136.20 134.77 C 135.78 133.94 134.77 133.61 133.95 134.03 C 133.12 134.45 132.79 135.46 133.21 136.29 Z M 133.70 137.25 L 134.13 138.14 C 134.54 138.97 135.55 139.31 136.39 138.90 C 137.22 138.49 137.56 137.48 137.15 136.65 L 136.71 135.77 C 136.30 134.93 135.29 134.59 134.46 135.00 C 133.63 135.41 133.29 136.42 133.70 137.25 Z M 134.13 138.13 L 134.53 138.96 C 134.94 139.80 135.95 140.15 136.78 139.74 C 137.62 139.33 137.97 138.32 137.56 137.49 L 137.16 136.66 C 136.75 135.82 135.74 135.47 134.90 135.88 C 134.07 136.29 133.72 137.30 134.13 138.13 Z M 134.53 138.97 L 134.95 139.82 C 135.36 140.65 136.37 141.00 137.20 140.59 C 138.04 140.18 138.39 139.17 137.98 138.33 L 137.56 137.48 C 137.15 136.65 136.14 136.30 135.30 136.71 C 134.47 137.12 134.12 138.13 134.53 138.97 Z M 134.95 139.83 L 135.39 140.71 C 135.80 141.55 136.82 141.89 137.65 141.47 C 138.49 141.06 138.83 140.04 138.41 139.20 L 137.98 138.32 C 137.56 137.49 136.54 137.15 135.71 137.56 C 134.87 137.98 134.53 138.99 134.95 139.83 Z M 135.39 140.73 L 135.85 141.63 C 136.27 142.46 137.29 142.79 138.13 142.37 C 138.96 141.95 139.29 140.93 138.87 140.09 L 138.41 139.19 C 137.99 138.36 136.97 138.02 136.13 138.45 C 135.30 138.87 134.97 139.89 135.39 140.73 Z M 135.85 141.64 L 136.32 142.54 C 136.75 143.37 137.77 143.69 138.61 143.26 C 139.44 142.83 139.76 141.80 139.33 140.97 L 138.87 140.08 C 138.43 139.24 137.41 138.92 136.58 139.35 C 135.74 139.79 135.42 140.81 135.85 141.64 Z M 136.32 142.55 L 136.77 143.41 C 137.21 144.24 138.24 144.56 139.07 144.12 C 139.90 143.68 140.22 142.65 139.78 141.82 L 139.33 140.96 C 138.89 140.13 137.86 139.81 137.03 140.25 C 136.20 140.69 135.88 141.72 136.32 142.55 Z M 136.77 143.41 L 137.24 144.30 C 137.68 145.13 138.71 145.45 139.54 145.01 C 140.37 144.57 140.69 143.54 140.25 142.70 L 139.79 141.82 C 139.35 140.99 138.31 140.67 137.48 141.11 C 136.65 141.55 136.33 142.58 136.77 143.41 Z M 137.23 144.29 L 137.71 145.20 C 138.14 146.04 139.17 146.36 140.01 145.93 C 140.84 145.49 141.17 144.46 140.74 143.62 L 140.26 142.71 C 139.83 141.87 138.79 141.55 137.96 141.98 C 137.12 142.42 136.80 143.45 137.23 144.29 Z M 137.69 145.18 L 138.14 146.06 C 138.57 146.91 139.60 147.24 140.44 146.82 C 141.28 146.39 141.62 145.36 141.19 144.52 L 140.75 143.64 C 140.32 142.80 139.29 142.46 138.45 142.89 C 137.60 143.31 137.27 144.34 137.69 145.18 Z M 138.13 146.05 L 138.57 146.93 C 138.99 147.78 140.01 148.13 140.86 147.71 C 141.71 147.29 142.06 146.26 141.64 145.42 L 141.20 144.53 C 140.78 143.68 139.75 143.34 138.91 143.76 C 138.06 144.18 137.71 145.20 138.13 146.05 Z M 138.56 146.93 L 139.00 147.83 C 139.42 148.68 140.44 149.04 141.29 148.62 C 142.15 148.21 142.50 147.18 142.09 146.33 L 141.65 145.42 C 141.23 144.57 140.20 144.22 139.35 144.63 C 138.50 145.05 138.15 146.07 138.56 146.93 Z M 139.00 147.83 L 139.44 148.75 C 139.85 149.61 140.88 149.96 141.74 149.55 C 142.59 149.14 142.95 148.11 142.54 147.26 L 142.09 146.33 C 141.68 145.48 140.65 145.12 139.80 145.53 C 138.94 145.94 138.58 146.97 139.00 147.83 Z M 139.44 148.75 L 139.86 149.63 C 140.28 150.49 141.31 150.85 142.16 150.43 C 143.02 150.02 143.38 148.99 142.96 148.14 L 142.54 147.26 C 142.13 146.40 141.10 146.04 140.24 146.45 C 139.39 146.87 139.03 147.89 139.44 148.75 Z M 139.86 149.63 L 140.29 150.51 C 140.70 151.37 141.73 151.73 142.59 151.32 C 143.44 150.90 143.80 149.87 143.39 149.02 L 142.97 148.14 C 142.55 147.28 141.52 146.92 140.67 147.33 C 139.81 147.75 139.45 148.78 139.86 149.63 Z M 140.29 150.51 L 140.72 151.42 C 141.14 152.27 142.17 152.63 143.02 152.22 C 143.88 151.80 144.24 150.77 143.83 149.92 L 143.39 149.01 C 142.98 148.16 141.95 147.80 141.09 148.21 C 140.23 148.63 139.87 149.66 140.29 150.51 Z M 140.72 151.42 L 141.17 152.34 C 141.58 153.20 142.61 153.56 143.47 153.14 C 144.33 152.73 144.69 151.70 144.27 150.84 L 143.83 149.91 C 143.41 149.06 142.38 148.70 141.52 149.11 C 140.66 149.53 140.31 150.56 140.72 151.42 Z M 141.17 152.34 L 141.61 153.25 C 142.02 154.11 143.06 154.47 143.91 154.06 C 144.77 153.64 145.13 152.61 144.72 151.75 L 144.28 150.84 C 143.86 149.98 142.83 149.62 141.97 150.03 C 141.11 150.45 140.75 151.48 141.17 152.34 Z M 141.61 153.25 L 142.03 154.14 C 142.45 155.00 143.48 155.36 144.34 154.94 C 145.20 154.53 145.56 153.49 145.15 152.64 L 144.72 151.75 C 144.30 150.89 143.27 150.53 142.41 150.94 C 141.55 151.36 141.19 152.39 141.61 153.25 Z M 142.03 154.14 L 142.47 155.04 C 142.88 155.90 143.92 156.26 144.78 155.85 C 145.64 155.43 146.00 154.40 145.59 153.54 L 145.15 152.64 C 144.73 151.77 143.70 151.41 142.84 151.83 C 141.98 152.25 141.62 153.28 142.03 154.14 Z M 142.47 155.04 L 142.91 155.95 C 143.32 156.81 144.36 157.18 145.22 156.76 C 146.08 156.35 146.44 155.31 146.03 154.45 L 145.59 153.54 C 145.17 152.68 144.14 152.32 143.28 152.73 C 142.41 153.15 142.05 154.18 142.47 155.04 Z M 142.90 155.95 L 143.34 156.86 C 143.75 157.73 144.79 158.09 145.65 157.68 C 146.52 157.26 146.88 156.23 146.47 155.36 L 146.03 154.45 C 145.62 153.59 144.58 153.22 143.72 153.64 C 142.85 154.05 142.49 155.09 142.90 155.95 Z M 143.34 156.86 L 143.77 157.77 C 144.18 158.64 145.22 159.01 146.08 158.59 C 146.95 158.18 147.32 157.15 146.90 156.28 L 146.47 155.37 C 146.06 154.50 145.02 154.14 144.16 154.55 C 143.29 154.96 142.93 155.99 143.34 156.86 Z M 143.77 157.77 L 144.20 158.68 C 144.61 159.54 145.64 159.92 146.51 159.51 C 147.37 159.10 147.75 158.06 147.34 157.20 L 146.91 156.29 C 146.50 155.42 145.46 155.05 144.60 155.46 C 143.73 155.87 143.36 156.90 143.77 157.77 Z M 144.19 158.67 L 144.62 159.58 C 145.02 160.45 146.06 160.82 146.93 160.42 C 147.79 160.01 148.17 158.98 147.76 158.11 L 147.34 157.20 C 146.93 156.33 145.90 155.96 145.03 156.36 C 144.16 156.77 143.79 157.80 144.19 158.67 Z M 144.61 159.57 L 145.03 160.47 C 145.43 161.34 146.47 161.72 147.34 161.32 C 148.21 160.92 148.59 159.89 148.18 159.02 L 147.77 158.11 C 147.37 157.24 146.33 156.86 145.46 157.26 C 144.59 157.67 144.21 158.70 144.61 159.57 Z M 145.03 160.47 L 145.44 161.37 C 145.84 162.24 146.87 162.63 147.74 162.23 C 148.61 161.83 149.00 160.80 148.60 159.93 L 148.19 159.02 C 147.79 158.15 146.76 157.76 145.89 158.16 C 145.01 158.56 144.63 159.59 145.03 160.47 Z M 145.43 161.36 L 145.85 162.28 C 146.24 163.16 147.27 163.55 148.15 163.15 C 149.02 162.76 149.41 161.73 149.02 160.85 L 148.61 159.93 C 148.21 159.06 147.18 158.67 146.31 159.06 C 145.43 159.46 145.04 160.48 145.43 161.36 Z M 145.84 162.27 L 146.25 163.19 C 146.64 164.07 147.67 164.46 148.55 164.07 C 149.43 163.68 149.82 162.65 149.43 161.77 L 149.02 160.86 C 148.63 159.98 147.60 159.59 146.72 159.98 C 145.85 160.37 145.45 161.40 145.84 162.27 Z M 146.25 163.19 L 146.65 164.10 C 147.04 164.98 148.07 165.38 148.95 164.99 C 149.83 164.60 150.23 163.57 149.84 162.69 L 149.43 161.78 C 149.04 160.90 148.01 160.50 147.14 160.89 C 146.26 161.28 145.86 162.31 146.25 163.19 Z M 146.65 164.10 L 147.05 165.01 C 147.44 165.89 148.47 166.29 149.35 165.90 C 150.23 165.51 150.63 164.48 150.24 163.60 L 149.84 162.69 C 149.45 161.81 148.42 161.41 147.54 161.80 C 146.66 162.19 146.26 163.22 146.65 164.10 Z M 147.06 165.01 L 147.46 165.93 C 147.85 166.81 148.88 167.20 149.76 166.81 C 150.64 166.42 151.04 165.39 150.65 164.51 L 150.24 163.60 C 149.85 162.72 148.82 162.32 147.94 162.71 C 147.06 163.10 146.66 164.13 147.06 165.01 Z M 147.46 165.93 L 147.87 166.85 C 148.27 167.73 149.30 168.13 150.18 167.73 C 151.06 167.34 151.45 166.31 151.06 165.43 L 150.65 164.51 C 150.25 163.63 149.22 163.24 148.34 163.63 C 147.46 164.02 147.07 165.05 147.46 165.93 Z M 147.87 166.85 L 148.28 167.77 C 148.68 168.65 149.71 169.04 150.59 168.65 C 151.47 168.26 151.86 167.22 151.47 166.35 L 151.06 165.43 C 150.66 164.55 149.63 164.16 148.75 164.55 C 147.87 164.94 147.48 165.98 147.87 166.85 Z M 148.28 167.77 L 148.69 168.68 C 149.08 169.56 150.11 169.95 150.99 169.56 C 151.87 169.17 152.27 168.13 151.87 167.26 L 151.47 166.35 C 151.07 165.47 150.04 165.07 149.16 165.47 C 148.28 165.86 147.89 166.89 148.28 167.77 Z M 148.69 168.67 L 149.09 169.58 C 149.48 170.46 150.51 170.85 151.39 170.46 C 152.27 170.07 152.67 169.04 152.28 168.16 L 151.88 167.26 C 151.48 166.38 150.45 165.98 149.57 166.37 C 148.69 166.76 148.30 167.79 148.69 168.67 Z M 149.09 169.57 L 149.50 170.51 C 149.89 171.39 150.92 171.79 151.80 171.40 C 152.68 171.01 153.08 169.98 152.69 169.10 L 152.28 168.16 C 151.89 167.28 150.86 166.88 149.98 167.27 C 149.10 167.66 148.70 168.69 149.09 169.57 Z M 149.50 170.51 L 149.91 171.44 C 150.30 172.32 151.33 172.72 152.21 172.33 C 153.09 171.94 153.49 170.91 153.10 170.03 L 152.69 169.10 C 152.30 168.22 151.27 167.82 150.39 168.21 C 149.51 168.60 149.11 169.63 149.50 170.51 Z M 149.91 171.44 L 150.32 172.35 C 150.71 173.24 151.74 173.63 152.62 173.24 C 153.50 172.85 153.90 171.82 153.51 170.94 L 153.10 170.02 C 152.71 169.14 151.68 168.75 150.80 169.14 C 149.92 169.53 149.52 170.56 149.91 171.44 Z M 150.32 172.37 L 150.72 173.25 C 151.12 174.13 152.16 174.52 153.03 174.12 C 153.91 173.73 154.30 172.69 153.90 171.81 L 153.50 170.92 C 153.10 170.05 152.07 169.66 151.19 170.06 C 150.31 170.45 149.92 171.49 150.32 172.37 Z M 150.73 173.27 L 151.16 174.18 C 151.57 175.06 152.61 175.44 153.48 175.03 C 154.35 174.62 154.73 173.58 154.32 172.71 L 153.90 171.79 C 153.49 170.92 152.45 170.54 151.57 170.95 C 150.70 171.36 150.32 172.40 150.73 173.27 Z M 151.17 174.21 L 151.61 175.11 C 152.03 175.98 153.07 176.34 153.94 175.92 C 154.81 175.51 155.17 174.46 154.75 173.59 L 154.31 172.69 C 153.89 171.82 152.85 171.45 151.98 171.87 C 151.11 172.29 150.75 173.34 151.17 174.21 Z M 151.62 175.13 L 152.06 176.02 C 152.49 176.88 153.54 177.23 154.40 176.80 C 155.26 176.37 155.61 175.33 155.18 174.46 L 154.74 173.57 C 154.31 172.71 153.26 172.36 152.40 172.79 C 151.54 173.22 151.19 174.27 151.62 175.13 Z M 152.07 176.04 L 152.51 176.91 C 152.95 177.77 154.00 178.11 154.86 177.67 C 155.72 177.23 156.06 176.18 155.62 175.32 L 155.18 174.45 C 154.74 173.59 153.69 173.25 152.83 173.69 C 151.97 174.12 151.63 175.18 152.07 176.04 Z M 152.52 176.93 L 152.97 177.78 C 153.41 178.64 154.47 178.97 155.33 178.52 C 156.18 178.07 156.51 177.02 156.06 176.16 L 155.62 175.31 C 155.17 174.45 154.12 174.12 153.26 174.57 C 152.40 175.02 152.07 176.07 152.52 176.93 Z M 152.98 177.81 L 153.44 178.66 C 153.91 179.51 154.97 179.82 155.81 179.36 C 156.66 178.90 156.98 177.84 156.51 176.99 L 156.05 176.14 C 155.59 175.29 154.53 174.98 153.68 175.44 C 152.83 175.90 152.52 176.96 152.98 177.81 Z M 153.47 178.70 L 153.97 179.57 C 154.45 180.40 155.52 180.69 156.35 180.20 C 157.19 179.72 157.47 178.65 156.99 177.82 L 156.49 176.95 C 156.01 176.12 154.94 175.83 154.11 176.31 C 153.27 176.80 152.98 177.87 153.47 178.70 Z M 154.00 179.62 L 154.55 180.50 C 155.06 181.32 156.14 181.56 156.96 181.05 C 157.78 180.54 158.02 179.46 157.51 178.64 L 156.96 177.76 C 156.45 176.95 155.37 176.70 154.55 177.21 C 153.73 177.72 153.49 178.80 154.00 179.62 Z M 154.59 180.56 L 155.17 181.40 C 155.71 182.20 156.80 182.41 157.60 181.86 C 158.39 181.32 158.60 180.23 158.05 179.43 L 157.47 178.59 C 156.93 177.79 155.84 177.58 155.04 178.13 C 154.25 178.67 154.04 179.76 154.59 180.56 Z M 155.21 181.46 L 155.82 182.29 C 156.40 183.06 157.49 183.22 158.27 182.64 C 159.04 182.07 159.20 180.97 158.62 180.20 L 158.01 179.38 C 157.44 178.60 156.34 178.44 155.57 179.02 C 154.79 179.59 154.63 180.69 155.21 181.46 Z M 155.87 182.34 L 156.51 183.14 C 157.12 183.89 158.22 184.00 158.97 183.39 C 159.72 182.79 159.83 181.69 159.22 180.94 L 158.58 180.14 C 157.97 179.39 156.87 179.28 156.12 179.89 C 155.37 180.49 155.26 181.59 155.87 182.34 Z M 156.57 183.20 L 157.23 183.94 C 157.87 184.66 158.98 184.72 159.69 184.08 C 160.41 183.43 160.47 182.33 159.83 181.61 L 159.17 180.87 C 158.53 180.15 157.42 180.09 156.70 180.74 C 155.98 181.38 155.92 182.48 156.57 183.20 Z M 157.30 184.02 L 158.00 184.71 C 158.69 185.38 159.79 185.37 160.47 184.68 C 161.15 184.00 161.14 182.89 160.45 182.21 L 159.75 181.53 C 159.06 180.85 157.96 180.86 157.28 181.55 C 156.61 182.24 156.61 183.35 157.30 184.02 Z M 158.12 184.82 L 158.92 185.46 C 159.67 186.07 160.77 185.95 161.38 185.20 C 161.99 184.45 161.87 183.35 161.12 182.75 L 160.33 182.10 C 159.58 181.49 158.47 181.61 157.87 182.36 C 157.26 183.11 157.37 184.21 158.12 184.82 Z M 159.11 185.59 L 159.93 186.10 C 160.76 186.60 161.83 186.35 162.34 185.52 C 162.84 184.70 162.58 183.62 161.76 183.12 L 160.93 182.61 C 160.11 182.11 159.03 182.37 158.53 183.19 C 158.02 184.01 158.28 185.09 159.11 185.59 Z M 160.16 186.22 L 161.06 186.60 C 161.94 186.98 162.97 186.57 163.35 185.68 C 163.73 184.79 163.32 183.77 162.43 183.39 L 161.53 183.00 C 160.65 182.62 159.62 183.03 159.24 183.92 C 158.86 184.81 159.27 185.84 160.16 186.22 Z M 161.28 186.68 L 162.23 186.94 C 163.16 187.20 164.12 186.66 164.38 185.73 C 164.64 184.80 164.10 183.83 163.17 183.57 L 162.21 183.31 C 161.28 183.05 160.32 183.59 160.06 184.52 C 159.80 185.46 160.34 186.42 161.28 186.68 Z M 162.44 186.99 L 163.44 187.14 C 164.40 187.28 165.29 186.62 165.43 185.66 C 165.57 184.70 164.91 183.81 163.95 183.67 L 162.95 183.53 C 162.00 183.39 161.11 184.05 160.97 185.00 C 160.82 185.96 161.49 186.85 162.44 186.99 Z M 163.70 187.16 L 164.71 187.16 C 165.68 187.16 166.46 186.37 166.46 185.40 C 166.46 184.44 165.68 183.65 164.71 183.65 L 163.69 183.65 C 162.73 183.65 161.94 184.44 161.94 185.41 C 161.94 186.38 162.73 187.16 163.70 187.16 Z M 165.04 187.13 L 166.02 186.94 C 166.97 186.76 167.59 185.84 167.41 184.88 C 167.22 183.93 166.30 183.31 165.35 183.49 L 164.38 183.68 C 163.42 183.87 162.80 184.79 162.99 185.74 C 163.17 186.69 164.09 187.31 165.04 187.13 Z M 166.42 186.81 L 167.28 186.41 C 168.17 186.00 168.55 184.96 168.14 184.08 C 167.73 183.20 166.69 182.82 165.81 183.22 L 164.94 183.62 C 164.06 184.03 163.68 185.08 164.09 185.96 C 164.50 186.84 165.54 187.22 166.42 186.81 Z M 167.64 186.19 L 168.39 185.60 C 169.15 184.99 169.27 183.88 168.67 183.12 C 168.06 182.36 166.95 182.24 166.19 182.85 L 165.45 183.44 C 164.69 184.05 164.56 185.16 165.17 185.92 C 165.78 186.68 166.89 186.80 167.64 186.19 Z M 168.63 185.36 L 169.28 184.60 C 169.91 183.86 169.82 182.75 169.08 182.12 C 168.34 181.49 167.23 181.58 166.60 182.32 L 165.95 183.08 C 165.32 183.82 165.41 184.93 166.15 185.56 C 166.89 186.19 168.00 186.10 168.63 185.36 Z M 169.43 184.40 L 169.99 183.51 C 170.50 182.69 170.25 181.60 169.42 181.08 C 168.60 180.57 167.51 180.82 166.99 181.64 L 166.44 182.53 C 165.92 183.36 166.18 184.44 167.00 184.96 C 167.83 185.48 168.92 185.22 169.43 184.40 Z M 170.08 183.34 L 170.52 182.43 C 170.94 181.55 170.57 180.50 169.69 180.07 C 168.81 179.65 167.76 180.02 167.34 180.90 L 166.90 181.81 C 166.48 182.69 166.85 183.75 167.72 184.17 C 168.60 184.59 169.66 184.22 170.08 183.34 Z M 170.58 182.30 L 170.92 181.39 C 171.27 180.48 170.82 179.46 169.91 179.11 C 169.00 178.76 167.98 179.22 167.63 180.13 L 167.28 181.03 C 166.93 181.94 167.39 182.96 168.30 183.31 C 169.21 183.66 170.23 183.21 170.58 182.30 Z M 170.96 181.29 L 171.26 180.34 C 171.55 179.41 171.03 178.42 170.10 178.13 C 169.17 177.84 168.18 178.35 167.89 179.28 L 167.59 180.23 C 167.30 181.16 167.82 182.15 168.75 182.45 C 169.68 182.74 170.67 182.22 170.96 181.29 Z M 171.28 180.26 L 171.54 179.28 C 171.78 178.33 171.22 177.37 170.28 177.12 C 169.33 176.87 168.37 177.44 168.12 178.38 L 167.86 179.37 C 167.62 180.31 168.18 181.27 169.13 181.52 C 170.07 181.77 171.03 181.20 171.28 180.26 Z M 171.55 179.22 L 171.78 178.21 C 171.99 177.26 171.39 176.31 170.44 176.10 C 169.49 175.88 168.55 176.48 168.33 177.43 L 168.11 178.44 C 167.89 179.40 168.49 180.34 169.44 180.55 C 170.39 180.77 171.34 180.17 171.55 179.22 Z M 171.79 178.17 L 171.99 177.15 C 172.18 176.20 171.56 175.27 170.60 175.08 C 169.65 174.89 168.72 175.51 168.53 176.46 L 168.32 177.47 C 168.13 178.43 168.75 179.36 169.71 179.55 C 170.67 179.74 171.60 179.12 171.79 178.17 Z M 171.99 177.12 L 172.18 176.11 C 172.35 175.15 171.72 174.23 170.76 174.06 C 169.80 173.88 168.88 174.52 168.71 175.48 L 168.52 176.49 C 168.35 177.45 168.98 178.37 169.94 178.55 C 170.90 178.72 171.82 178.08 171.99 177.12 Z M 172.18 176.09 L 172.35 175.08 C 172.51 174.12 171.86 173.21 170.90 173.05 C 169.94 172.89 169.03 173.54 168.87 174.50 L 168.70 175.51 C 168.54 176.47 169.19 177.38 170.15 177.54 C 171.11 177.70 172.02 177.05 172.18 176.09 Z M 172.35 175.06 L 172.50 174.08 C 172.65 173.12 171.99 172.22 171.03 172.07 C 170.07 171.92 169.16 172.59 169.02 173.55 L 168.87 174.52 C 168.72 175.49 169.38 176.39 170.34 176.54 C 171.30 176.68 172.21 176.02 172.35 175.06 Z M 172.51 174.06 L 172.64 173.13 C 172.78 172.16 172.10 171.27 171.14 171.14 C 170.18 171.00 169.28 171.67 169.15 172.63 L 169.01 173.57 C 168.88 174.53 169.55 175.42 170.51 175.56 C 171.48 175.70 172.37 175.03 172.51 174.06 Z M 172.64 173.11 L 172.78 172.05 C 172.90 171.08 172.22 170.20 171.26 170.07 C 170.30 169.95 169.41 170.63 169.29 171.59 L 169.15 172.65 C 169.02 173.62 169.70 174.50 170.66 174.63 C 171.63 174.75 172.51 174.07 172.64 173.11 Z M 172.78 172.03 L 172.90 171.02 C 173.01 170.06 172.33 169.18 171.36 169.07 C 170.40 168.95 169.52 169.64 169.41 170.60 L 169.29 171.61 C 169.17 172.57 169.86 173.45 170.82 173.56 C 171.79 173.68 172.66 172.99 172.78 172.03 Z M 172.90 171.01 L 173.00 170.05 C 173.11 169.08 172.42 168.22 171.46 168.11 C 170.49 168.00 169.62 168.69 169.52 169.66 L 169.41 170.62 C 169.30 171.58 169.99 172.45 170.96 172.56 C 171.92 172.67 172.79 171.97 172.90 171.01 Z M 173.00 170.04 L 173.10 169.10 C 173.21 168.14 172.51 167.27 171.55 167.17 C 170.59 167.07 169.72 167.76 169.62 168.72 L 169.52 169.66 C 169.41 170.63 170.11 171.49 171.07 171.59 C 172.03 171.70 172.90 171.00 173.00 170.04 Z M 173.10 169.10 L 173.20 168.12 C 173.31 167.16 172.61 166.30 171.65 166.20 C 170.69 166.10 169.83 166.79 169.73 167.75 L 169.62 168.73 C 169.52 169.69 170.22 170.55 171.18 170.65 C 172.14 170.75 173.00 170.06 173.10 169.10 Z M 173.20 168.12 L 173.30 167.13 C 173.40 166.17 172.70 165.32 171.75 165.22 C 170.79 165.12 169.93 165.82 169.83 166.78 L 169.73 167.76 C 169.63 168.72 170.33 169.57 171.29 169.67 C 172.25 169.77 173.10 169.07 173.20 168.12 Z M 173.30 167.12 L 173.40 166.12 C 173.49 165.16 172.79 164.31 171.83 164.22 C 170.87 164.13 170.02 164.83 169.93 165.78 L 169.83 166.79 C 169.74 167.74 170.44 168.60 171.40 168.69 C 172.36 168.78 173.21 168.08 173.30 167.12 Z M 173.39 166.10 L 173.48 165.09 C 173.56 164.13 172.86 163.29 171.90 163.21 C 170.94 163.13 170.10 163.83 170.02 164.79 L 169.93 165.80 C 169.85 166.76 170.56 167.60 171.51 167.68 C 172.47 167.77 173.31 167.06 173.39 166.10 Z M 173.48 165.07 L 173.55 164.11 C 173.63 163.15 172.91 162.32 171.96 162.25 C 171.00 162.17 170.17 162.89 170.10 163.84 L 170.02 164.81 C 169.95 165.76 170.66 166.59 171.62 166.67 C 172.57 166.74 173.41 166.03 173.48 165.07 Z M 173.55 164.10 L 173.62 163.11 C 173.69 162.16 172.97 161.33 172.02 161.26 C 171.07 161.19 170.24 161.91 170.17 162.86 L 170.10 163.85 C 170.03 164.80 170.75 165.63 171.70 165.70 C 172.65 165.77 173.48 165.05 173.55 164.10 Z M 173.62 163.11 L 173.69 162.09 C 173.76 161.14 173.04 160.32 172.09 160.25 C 171.14 160.18 170.31 160.90 170.25 161.85 L 170.18 162.86 C 170.11 163.81 170.82 164.64 171.77 164.70 C 172.72 164.77 173.55 164.06 173.62 163.11 Z M 173.68 162.10 L 173.76 161.07 C 173.83 160.12 173.12 159.29 172.17 159.22 C 171.22 159.15 170.40 159.87 170.33 160.81 L 170.25 161.85 C 170.18 162.79 170.89 163.62 171.84 163.69 C 172.79 163.76 173.61 163.04 173.68 162.10 Z M 173.75 161.07 L 173.83 160.11 C 173.90 159.16 173.20 158.34 172.25 158.26 C 171.31 158.19 170.48 158.90 170.41 159.84 L 170.33 160.81 C 170.26 161.75 170.96 162.58 171.91 162.65 C 172.85 162.73 173.68 162.02 173.75 161.07 Z M 173.82 160.11 L 173.90 159.13 C 173.98 158.19 173.28 157.36 172.33 157.29 C 171.39 157.21 170.57 157.92 170.49 158.86 L 170.41 159.84 C 170.34 160.78 171.04 161.61 171.98 161.68 C 172.92 161.76 173.75 161.05 173.82 160.11 Z M 173.90 159.13 L 173.98 158.13 C 174.05 157.19 173.35 156.37 172.41 156.29 C 171.47 156.22 170.65 156.92 170.58 157.86 L 170.50 158.86 C 170.42 159.80 171.12 160.62 172.06 160.70 C 173.00 160.77 173.82 160.07 173.90 159.13 Z M 173.97 158.12 L 174.05 157.10 C 174.12 156.17 173.42 155.35 172.48 155.28 C 171.55 155.21 170.73 155.91 170.66 156.85 L 170.58 157.87 C 170.51 158.80 171.21 159.62 172.15 159.69 C 173.09 159.76 173.90 159.06 173.97 158.12 Z M 174.05 157.09 L 174.12 156.10 C 174.18 155.16 173.48 154.35 172.54 154.29 C 171.61 154.22 170.80 154.93 170.73 155.86 L 170.66 156.86 C 170.60 157.79 171.30 158.60 172.24 158.67 C 173.17 158.73 173.98 158.03 174.05 157.09 Z M 174.11 156.09 L 174.17 155.13 C 174.23 154.20 173.52 153.39 172.59 153.33 C 171.66 153.28 170.86 153.98 170.80 154.92 L 170.74 155.87 C 170.68 156.81 171.39 157.61 172.32 157.67 C 173.25 157.73 174.05 157.02 174.11 156.09 Z M 174.17 155.12 L 174.22 154.14 C 174.28 153.21 173.57 152.41 172.64 152.36 C 171.71 152.30 170.91 153.01 170.86 153.94 L 170.80 154.92 C 170.75 155.85 171.46 156.65 172.39 156.70 C 173.32 156.76 174.11 156.05 174.17 155.12 Z M 174.22 154.13 L 174.27 153.12 C 174.32 152.20 173.61 151.41 172.69 151.36 C 171.76 151.31 170.97 152.02 170.92 152.94 L 170.86 153.95 C 170.81 154.88 171.53 155.67 172.45 155.72 C 173.38 155.77 174.17 155.06 174.22 154.13 Z M 174.27 153.12 L 174.32 152.08 C 174.37 151.16 173.66 150.37 172.73 150.33 C 171.81 150.28 171.02 150.99 170.98 151.91 L 170.92 152.95 C 170.88 153.87 171.59 154.66 172.51 154.71 C 173.44 154.75 174.22 154.04 174.27 153.12 Z M 174.32 152.08 L 174.37 151.07 C 174.41 150.15 173.70 149.37 172.78 149.32 C 171.86 149.28 171.08 149.99 171.03 150.91 L 170.98 151.92 C 170.94 152.84 171.65 153.62 172.57 153.67 C 173.49 153.71 174.27 153.00 174.32 152.08 Z M 174.36 151.07 L 174.41 150.13 C 174.45 149.21 173.74 148.43 172.82 148.39 C 171.91 148.34 171.13 149.05 171.08 149.97 L 171.04 150.91 C 170.99 151.83 171.70 152.61 172.62 152.65 C 173.54 152.70 174.32 151.99 174.36 151.07 Z M 174.40 150.13 L 174.45 149.16 C 174.49 148.24 173.78 147.47 172.87 147.43 C 171.95 147.38 171.17 148.09 171.13 149.01 L 171.09 149.97 C 171.04 150.89 171.75 151.66 172.67 151.71 C 173.58 151.75 174.36 151.04 174.40 150.13 Z M 174.44 149.16 L 174.49 148.16 C 174.53 147.25 173.82 146.48 172.91 146.44 C 172.00 146.40 171.22 147.10 171.18 148.01 L 171.14 149.01 C 171.10 149.92 171.80 150.69 172.71 150.73 C 173.63 150.78 174.40 150.07 174.44 149.16 Z M 174.48 148.16 L 174.53 147.14 C 174.57 146.23 173.86 145.46 172.95 145.42 C 172.04 145.38 171.27 146.08 171.23 146.99 L 171.19 148.02 C 171.15 148.93 171.85 149.70 172.76 149.74 C 173.67 149.77 174.44 149.07 174.48 148.16 Z M 174.52 147.13 L 174.57 146.08 C 174.60 145.17 173.90 144.41 172.99 144.37 C 172.09 144.33 171.32 145.03 171.28 145.94 L 171.24 146.99 C 171.20 147.90 171.90 148.67 172.81 148.71 C 173.72 148.75 174.48 148.04 174.52 147.13 Z M 174.56 146.08 L 174.60 145.06 C 174.64 144.16 173.94 143.39 173.03 143.36 C 172.13 143.32 171.37 144.02 171.33 144.92 L 171.29 145.94 C 171.25 146.85 171.95 147.61 172.86 147.65 C 173.76 147.68 174.52 146.98 174.56 146.08 Z M 174.60 145.06 L 174.64 144.09 C 174.67 143.19 173.97 142.43 173.07 142.39 C 172.17 142.36 171.41 143.06 171.37 143.96 L 171.33 144.93 C 171.30 145.83 172.00 146.59 172.90 146.62 C 173.80 146.66 174.56 145.96 174.60 145.06 Z M 174.63 144.09 L 174.67 143.10 C 174.70 142.20 174.00 141.44 173.10 141.41 C 172.20 141.38 171.45 142.08 171.41 142.98 L 171.38 143.96 C 171.34 144.86 172.04 145.62 172.94 145.65 C 173.84 145.69 174.60 144.98 174.63 144.09 Z M 174.66 143.09 L 174.70 142.09 C 174.73 141.20 174.03 140.44 173.13 140.41 C 172.24 140.38 171.49 141.08 171.45 141.98 L 171.42 142.98 C 171.39 143.88 172.09 144.63 172.98 144.66 C 173.88 144.69 174.63 143.99 174.66 143.09 Z M 174.69 142.09 L 174.73 141.07 C 174.76 140.18 174.05 139.43 173.16 139.40 C 172.27 139.38 171.52 140.08 171.49 140.97 L 171.46 141.98 C 171.43 142.88 172.13 143.63 173.02 143.65 C 173.92 143.68 174.67 142.98 174.69 142.09 Z M 174.72 141.07 L 174.75 140.05 C 174.78 139.16 174.07 138.41 173.18 138.39 C 172.29 138.36 171.55 139.07 171.52 139.96 L 171.50 140.98 C 171.47 141.87 172.17 142.61 173.06 142.64 C 173.95 142.66 174.70 141.96 174.72 141.07 Z M 174.75 140.04 L 174.77 139.02 C 174.79 138.13 174.09 137.39 173.20 137.37 C 172.31 137.35 171.57 138.05 171.55 138.94 L 171.53 139.96 C 171.51 140.85 172.21 141.59 173.10 141.61 C 173.99 141.63 174.73 140.93 174.75 140.04 Z M 174.77 139.01 L 174.78 138.01 C 174.80 137.12 174.09 136.39 173.21 136.37 C 172.32 136.36 171.59 137.06 171.57 137.95 L 171.56 138.95 C 171.54 139.84 172.25 140.57 173.13 140.58 C 174.02 140.60 174.75 139.89 174.77 139.01 Z M 174.78 138.00 L 174.79 137.01 C 174.80 136.12 174.10 135.40 173.21 135.39 C 172.33 135.37 171.60 136.08 171.59 136.96 L 171.58 137.96 C 171.57 138.84 172.27 139.56 173.16 139.58 C 174.04 139.59 174.77 138.88 174.78 138.00 Z M 174.79 137.00 L 174.80 136.01 C 174.80 135.13 174.10 134.41 173.22 134.40 C 172.33 134.39 171.61 135.10 171.61 135.98 L 171.60 136.97 C 171.59 137.85 172.30 138.57 173.18 138.58 C 174.06 138.59 174.78 137.88 174.79 137.00 Z M 174.79 136.00 L 174.80 135.01 C 174.80 134.13 174.09 133.41 173.22 133.41 C 172.34 133.40 171.62 134.11 171.62 134.99 L 171.61 135.98 C 171.61 136.86 172.31 137.58 173.19 137.58 C 174.07 137.59 174.79 136.88 174.79 136.00 Z M 174.79 135.00 L 174.80 134.00 C 174.80 133.13 174.09 132.42 173.21 132.41 C 172.34 132.41 171.63 133.12 171.62 133.99 L 171.62 134.99 C 171.62 135.87 172.33 136.58 173.20 136.58 C 174.08 136.59 174.79 135.88 174.79 135.00 Z M 174.79 134.00 L 174.79 132.99 C 174.79 132.12 174.09 131.41 173.21 131.41 C 172.34 131.41 171.63 132.12 171.63 132.99 L 171.63 134.00 C 171.63 134.87 172.33 135.58 173.21 135.58 C 174.08 135.58 174.79 134.87 174.79 134.00 Z M 174.79 132.99 L 174.79 131.98 C 174.79 131.11 174.08 130.40 173.21 130.40 C 172.34 130.40 171.64 131.11 171.64 131.98 L 171.64 132.99 C 171.64 133.86 172.34 134.57 173.21 134.57 C 174.08 134.57 174.79 133.86 174.79 132.99 Z M 174.78 131.98 L 174.78 130.99 C 174.78 130.12 174.08 129.42 173.21 129.42 C 172.34 129.42 171.64 130.12 171.64 130.99 L 171.64 131.98 C 171.64 132.85 172.34 133.55 173.21 133.55 C 174.08 133.55 174.78 132.85 174.78 131.98 Z M 174.78 130.99 L 174.78 130.00 C 174.78 129.13 174.08 128.43 173.21 128.43 C 172.35 128.43 171.65 129.13 171.65 130.00 L 171.65 130.99 C 171.65 131.85 172.35 132.55 173.21 132.55 C 174.08 132.55 174.78 131.85 174.78 130.99 Z M 174.77 130.00 L 174.77 129.01 C 174.77 128.14 174.07 127.44 173.21 127.44 C 172.35 127.44 171.65 128.14 171.65 129.01 L 171.65 130.00 C 171.65 130.86 172.35 131.56 173.21 131.56 C 174.07 131.56 174.77 130.86 174.77 130.00 Z M 174.77 129.01 L 174.77 128.01 C 174.77 127.15 174.07 126.45 173.21 126.45 C 172.35 126.45 171.65 127.15 171.65 128.01 L 171.65 129.01 C 171.65 129.87 172.35 130.56 173.21 130.56 C 174.07 130.56 174.77 129.87 174.77 129.01 Z M 174.76 128.01 L 174.76 127.00 C 174.76 126.14 174.07 125.45 173.21 125.45 C 172.35 125.45 171.66 126.14 171.66 127.00 L 171.66 128.01 C 171.66 128.86 172.35 129.56 173.21 129.56 C 174.07 129.56 174.76 128.86 174.76 128.01 Z M 174.76 127.00 L 174.76 125.99 C 174.76 125.14 174.07 124.44 173.21 124.44 C 172.36 124.44 171.66 125.14 171.66 125.99 L 171.66 127.00 C 171.66 127.85 172.36 128.55 173.21 128.55 C 174.07 128.55 174.76 127.85 174.76 127.00 Z M 174.75 125.99 L 174.75 124.98 C 174.75 124.13 174.06 123.44 173.21 123.44 C 172.36 123.44 171.67 124.13 171.67 124.98 L 171.67 125.99 C 171.67 126.84 172.36 127.53 173.21 127.53 C 174.06 127.53 174.75 126.84 174.75 125.99 Z M 174.75 124.98 L 174.75 123.97 C 174.75 123.12 174.06 122.43 173.21 122.43 C 172.36 122.43 171.67 123.12 171.67 123.97 L 171.67 124.98 C 171.67 125.83 172.36 126.52 173.21 126.52 C 174.06 126.52 174.75 125.83 174.75 124.98 Z M 174.74 123.97 L 174.74 122.96 C 174.74 122.11 174.06 121.43 173.21 121.43 C 172.36 121.43 171.68 122.11 171.68 122.96 L 171.68 123.97 C 171.68 124.82 172.37 125.50 173.21 125.50 C 174.06 125.50 174.74 124.81 174.74 123.97 Z M 174.74 122.96 L 174.74 121.95 C 174.74 121.11 174.05 120.42 173.21 120.42 C 172.36 120.43 171.68 121.11 171.68 121.95 L 171.68 122.96 C 171.68 123.81 172.37 124.49 173.21 124.49 C 174.06 124.49 174.74 123.80 174.74 122.96 Z M 174.73 121.95 L 174.73 120.94 C 174.73 120.10 174.04 119.42 173.20 119.42 C 172.36 119.43 171.68 120.11 171.68 120.95 L 171.69 121.96 C 171.69 122.80 172.37 123.48 173.21 123.48 C 174.06 123.47 174.74 122.79 174.73 121.95 Z M 174.73 120.94 L 174.72 119.94 C 174.72 119.10 174.03 118.42 173.19 118.43 C 172.36 118.43 171.68 119.12 171.68 119.95 L 171.69 120.96 C 171.69 121.79 172.38 122.47 173.21 122.47 C 174.05 122.46 174.73 121.78 174.73 120.94 Z M 174.72 119.93 L 174.71 118.94 C 174.70 118.10 174.02 117.43 173.18 117.44 C 172.35 117.44 171.67 118.13 171.68 118.96 L 171.69 119.96 C 171.69 120.80 172.38 121.47 173.21 121.46 C 174.05 121.45 174.72 120.77 174.72 119.93 Z M 174.70 118.93 L 174.69 117.94 C 174.68 117.11 174.00 116.44 173.16 116.45 C 172.33 116.46 171.66 117.14 171.67 117.98 L 171.68 118.97 C 171.69 119.80 172.38 120.47 173.21 120.46 C 174.05 120.45 174.71 119.77 174.70 118.93 Z M 174.69 117.93 L 174.67 116.95 C 174.66 116.12 173.97 115.45 173.14 115.47 C 172.31 115.48 171.65 116.16 171.66 117.00 L 171.68 117.98 C 171.69 118.81 172.38 119.48 173.21 119.46 C 174.04 119.45 174.70 118.77 174.69 117.93 Z M 174.67 116.94 L 174.65 115.91 C 174.63 115.08 173.94 114.43 173.11 114.44 C 172.28 114.46 171.63 115.15 171.64 115.98 L 171.67 117.00 C 171.68 117.83 172.37 118.49 173.20 118.47 C 174.03 118.45 174.69 117.77 174.67 116.94 Z M 174.64 115.90 L 174.61 114.89 C 174.59 114.06 173.90 113.41 173.07 113.43 C 172.25 113.45 171.59 114.14 171.62 114.97 L 171.65 115.99 C 171.67 116.82 172.36 117.47 173.19 117.44 C 174.01 117.42 174.67 116.73 174.64 115.90 Z M 174.61 114.87 L 174.57 113.87 C 174.54 113.04 173.85 112.40 173.03 112.43 C 172.20 112.46 171.56 113.15 171.58 113.97 L 171.62 114.98 C 171.65 115.81 172.34 116.45 173.17 116.42 C 174.00 116.39 174.64 115.70 174.61 114.87 Z M 174.57 113.85 L 174.53 112.85 C 174.49 112.03 173.79 111.39 172.97 111.43 C 172.14 111.47 171.51 112.16 171.54 112.99 L 171.59 113.99 C 171.63 114.81 172.32 115.45 173.15 115.41 C 173.97 115.37 174.61 114.68 174.57 113.85 Z M 174.52 112.84 L 174.47 111.85 C 174.42 111.03 173.72 110.40 172.90 110.44 C 172.07 110.49 171.45 111.19 171.49 112.01 L 171.55 113.00 C 171.59 113.83 172.30 114.45 173.12 114.41 C 173.94 114.36 174.57 113.66 174.52 112.84 Z M 174.46 111.83 L 174.40 110.85 C 174.34 110.03 173.63 109.41 172.81 109.47 C 171.99 109.52 171.37 110.23 171.43 111.05 L 171.50 112.03 C 171.55 112.85 172.26 113.47 173.08 113.42 C 173.90 113.36 174.52 112.65 174.46 111.83 Z M 174.39 110.83 L 174.31 109.86 C 174.25 109.04 173.53 108.44 172.71 108.50 C 171.90 108.57 171.29 109.28 171.35 110.10 L 171.43 111.07 C 171.50 111.89 172.22 112.50 173.03 112.43 C 173.85 112.36 174.46 111.65 174.39 110.83 Z M 174.31 109.84 L 174.21 108.82 C 174.13 108.01 173.41 107.41 172.59 107.49 C 171.78 107.57 171.18 108.29 171.26 109.11 L 171.36 110.12 C 171.44 110.94 172.16 111.53 172.98 111.46 C 173.79 111.38 174.39 110.65 174.31 109.84 Z M 174.21 108.80 L 174.09 107.80 C 174.00 106.99 173.27 106.40 172.46 106.49 C 171.65 106.58 171.06 107.31 171.15 108.13 L 171.27 109.13 C 171.36 109.94 172.09 110.53 172.90 110.44 C 173.71 110.35 174.30 109.61 174.21 108.80 Z M 174.09 107.78 L 173.97 106.78 C 173.86 105.97 173.13 105.40 172.32 105.50 C 171.51 105.60 170.93 106.34 171.03 107.15 L 171.16 108.14 C 171.26 108.95 172.00 109.53 172.81 109.43 C 173.62 109.33 174.19 108.59 174.09 107.78 Z M 173.96 106.77 L 173.83 105.78 C 173.72 104.97 172.97 104.41 172.16 104.52 C 171.36 104.63 170.79 105.37 170.90 106.18 L 171.04 107.17 C 171.15 107.97 171.89 108.54 172.70 108.43 C 173.51 108.32 174.07 107.57 173.96 106.77 Z M 173.82 105.76 L 173.68 104.78 C 173.56 103.98 172.81 103.42 172.01 103.54 C 171.20 103.66 170.64 104.41 170.76 105.21 L 170.91 106.19 C 171.03 107.00 171.77 107.56 172.58 107.44 C 173.38 107.32 173.94 106.57 173.82 105.76 Z M 173.67 104.77 L 173.52 103.80 C 173.39 102.99 172.64 102.44 171.84 102.57 C 171.04 102.70 170.49 103.45 170.61 104.25 L 170.77 105.23 C 170.89 106.03 171.65 106.58 172.45 106.45 C 173.25 106.33 173.80 105.57 173.67 104.77 Z M 173.52 103.79 L 173.35 102.78 C 173.22 101.98 172.46 101.44 171.66 101.57 C 170.86 101.70 170.32 102.46 170.45 103.26 L 170.62 104.26 C 170.75 105.06 171.50 105.61 172.31 105.47 C 173.11 105.34 173.65 104.59 173.52 103.79 Z M 173.35 102.77 L 173.17 101.73 C 173.03 100.93 172.27 100.39 171.47 100.53 C 170.67 100.67 170.14 101.43 170.27 102.23 L 170.45 103.27 C 170.59 104.07 171.35 104.60 172.15 104.47 C 172.95 104.33 173.49 103.57 173.35 102.77 Z M 173.17 101.71 L 172.98 100.69 C 172.84 99.89 172.07 99.36 171.27 99.51 C 170.48 99.65 169.95 100.41 170.09 101.21 L 170.28 102.24 C 170.42 103.04 171.19 103.57 171.98 103.42 C 172.78 103.28 173.31 102.51 173.17 101.71 Z M 172.98 100.67 L 172.79 99.68 C 172.64 98.88 171.87 98.36 171.07 98.51 C 170.27 98.66 169.75 99.43 169.90 100.23 L 170.09 101.23 C 170.25 102.02 171.02 102.55 171.81 102.39 C 172.61 102.24 173.13 101.47 172.98 100.67 Z M 172.79 99.66 L 172.59 98.69 C 172.43 97.90 171.65 97.39 170.86 97.55 C 170.06 97.71 169.55 98.49 169.71 99.28 L 169.91 100.25 C 170.07 101.04 170.84 101.55 171.64 101.39 C 172.43 101.23 172.95 100.45 172.79 99.66 Z M 172.58 98.67 L 172.38 97.75 C 172.21 96.96 171.43 96.46 170.63 96.63 C 169.84 96.81 169.34 97.59 169.51 98.38 L 169.71 99.30 C 169.89 100.09 170.67 100.60 171.46 100.42 C 172.26 100.25 172.76 99.47 172.58 98.67 Z M 172.38 97.73 L 172.15 96.77 C 171.96 95.98 171.17 95.49 170.38 95.68 C 169.59 95.86 169.10 96.66 169.29 97.45 L 169.51 98.41 C 169.70 99.20 170.50 99.69 171.29 99.50 C 172.08 99.31 172.57 98.52 172.38 97.73 Z M 172.16 96.73 L 171.87 95.65 C 171.66 94.86 170.85 94.39 170.05 94.60 C 169.26 94.81 168.79 95.62 169.00 96.41 L 169.28 97.49 C 169.49 98.28 170.31 98.76 171.10 98.55 C 171.89 98.34 172.37 97.52 172.16 96.73 Z M 171.88 95.60 L 171.59 94.62 C 171.35 93.83 170.51 93.37 169.72 93.61 C 168.92 93.84 168.46 94.68 168.70 95.48 L 168.99 96.46 C 169.23 97.26 170.07 97.72 170.86 97.48 C 171.66 97.24 172.12 96.40 171.88 95.60 Z M 171.59 94.57 L 171.30 93.67 C 171.03 92.87 170.17 92.44 169.37 92.70 C 168.57 92.97 168.13 93.83 168.40 94.63 L 168.69 95.53 C 168.96 96.33 169.82 96.77 170.62 96.50 C 171.42 96.24 171.86 95.37 171.59 94.57 Z M 171.30 93.62 L 171.00 92.79 C 170.70 91.98 169.81 91.57 169.01 91.86 C 168.21 92.16 167.79 93.05 168.09 93.85 L 168.39 94.68 C 168.69 95.49 169.57 95.90 170.38 95.61 C 171.18 95.31 171.59 94.42 171.30 93.62 Z M 170.99 92.74 L 170.61 91.79 C 170.28 90.99 169.38 90.61 168.58 90.93 C 167.78 91.25 167.39 92.16 167.72 92.95 L 168.10 93.90 C 168.42 94.70 169.33 95.09 170.12 94.76 C 170.92 94.44 171.31 93.54 170.99 92.74 Z M 170.58 91.75 L 170.18 90.82 C 169.83 90.04 168.92 89.68 168.13 90.03 C 167.35 90.37 166.99 91.29 167.33 92.07 L 167.74 93.00 C 168.08 93.78 169.00 94.14 169.79 93.79 C 170.57 93.45 170.93 92.53 170.58 91.75 Z M 170.16 90.80 L 169.75 89.91 C 169.39 89.14 168.47 88.80 167.69 89.17 C 166.92 89.53 166.58 90.44 166.94 91.22 L 167.35 92.10 C 167.71 92.87 168.63 93.21 169.41 92.85 C 170.18 92.49 170.52 91.57 170.16 90.80 Z M 169.73 89.90 L 169.44 89.29 C 169.08 88.52 168.16 88.20 167.39 88.56 C 166.62 88.93 166.30 89.85 166.66 90.61 L 166.96 91.23 C 167.32 92.00 168.24 92.32 169.01 91.96 C 169.77 91.59 170.10 90.67 169.73 89.90 Z"
      fill="black"
      fill-rule="nonzero" /></svg>