<svg xmlns="http://www.w3.org/2000/svg" width="300" height="300" viewBox="0 0 300 300">
<path d="M 140.04 128.63 L 138.96 127.92 C 138.26 127.46 137.31 127.66 136.85 128.36 C 136.39 129.06 136.59 130.00 137.29 130.46 L 138.38 131.18 C 139.08 131.64 140.02 131.44 140.48 130.74 C 140.94 130.03 140.75 129.09 140.04 128.63 Z M 139.10 128.01 L 138.38 127.41 C 137.73 126.87 136.76 126.97 136.22 127.62 C 135.68 128.27 135.77 129.24 136.43 129.78 L 137.15 130.37 C 137.80 130.91 138.77 130.82 139.31 130.17 C 139.85 129.52 139.76 128.55 139.10 128.01 Z M 138.94 128.70 L 138.97 128.31 C 139.03 127.46 138.39 126.72 137.54 126.66 C 136.69 126.61 135.95 127.25 135.89 128.10 L 135.86 128.49 C 135.81 129.34 136.45 130.08 137.30 130.13 C 138.15 130.19 138.89 129.55 138.94 128.70 Z M 137.67 129.74 L 138.60 129.59 C 139.45 129.46 140.02 128.66 139.89 127.82 C 139.76 126.97 138.96 126.39 138.12 126.53 L 137.19 126.67 C 136.34 126.81 135.77 127.60 135.90 128.45 C 136.03 129.29 136.83 129.87 137.67 129.74 Z M 138.40 129.61 L 139.63 129.58 C 140.49 129.56 141.17 128.84 141.15 127.98 C 141.12 127.12 140.41 126.45 139.55 126.47 L 138.32 126.50 C 137.46 126.53 136.78 127.24 136.80 128.10 C 136.83 128.96 137.54 129.64 138.40 129.61 Z M 139.65 129.58 L 140.62 129.54 C 141.48 129.51 142.15 128.79 142.12 127.93 C 142.08 127.07 141.36 126.40 140.50 126.43 L 139.53 126.47 C 138.67 126.50 138.00 127.22 138.03 128.08 C 138.07 128.95 138.79 129.62 139.65 129.58 Z M 140.68 129.54 L 141.68 129.47 C 142.54 129.40 143.18 128.65 143.11 127.79 C 143.04 126.93 142.29 126.29 141.43 126.35 L 140.44 126.43 C 139.58 126.50 138.94 127.25 139.00 128.11 C 139.07 128.97 139.82 129.61 140.68 129.54 Z M 141.76 129.46 L 142.79 129.33 C 143.64 129.21 144.25 128.43 144.13 127.57 C 144.02 126.71 143.24 126.11 142.38 126.22 L 141.35 126.36 C 140.49 126.47 139.89 127.26 140.00 128.11 C 140.12 128.97 140.90 129.57 141.76 129.46 Z M 142.87 129.32 L 143.83 129.14 C 144.68 128.98 145.24 128.16 145.08 127.30 C 144.92 126.45 144.10 125.89 143.25 126.05 L 142.29 126.23 C 141.44 126.39 140.88 127.21 141.04 128.06 C 141.20 128.92 142.02 129.48 142.87 129.32 Z M 143.90 129.13 L 144.88 128.89 C 145.72 128.70 146.24 127.85 146.05 127.00 C 145.85 126.16 145.00 125.63 144.15 125.83 L 143.18 126.06 C 142.33 126.26 141.81 127.11 142.01 127.95 C 142.20 128.80 143.05 129.32 143.90 129.13 Z M 144.94 128.88 L 145.92 128.61 C 146.76 128.38 147.25 127.51 147.02 126.67 C 146.78 125.83 145.91 125.34 145.08 125.57 L 144.09 125.85 C 143.25 126.08 142.76 126.95 143.00 127.79 C 143.23 128.62 144.10 129.12 144.94 128.88 Z M 145.98 128.60 L 146.90 128.30 C 147.73 128.04 148.19 127.15 147.93 126.32 C 147.66 125.49 146.78 125.03 145.94 125.29 L 145.02 125.59 C 144.19 125.85 143.73 126.74 143.99 127.57 C 144.26 128.40 145.15 128.86 145.98 128.60 Z M 146.95 128.29 L 147.82 127.98 C 148.65 127.69 149.08 126.78 148.79 125.96 C 148.49 125.13 147.59 124.70 146.76 124.99 L 145.89 125.30 C 145.07 125.60 144.64 126.50 144.93 127.33 C 145.22 128.15 146.13 128.58 146.95 128.29 Z M 147.86 127.97 L 148.77 127.62 C 149.59 127.31 150.00 126.39 149.68 125.57 C 149.37 124.75 148.45 124.34 147.63 124.66 L 146.72 125.00 C 145.90 125.32 145.49 126.24 145.81 127.06 C 146.12 127.88 147.04 128.29 147.86 127.97 Z M 148.80 127.62 L 149.78 127.22 C 150.59 126.89 150.99 125.96 150.66 125.14 C 150.33 124.33 149.40 123.93 148.58 124.26 L 147.60 124.66 C 146.78 124.99 146.39 125.92 146.72 126.74 C 147.05 127.56 147.98 127.95 148.80 127.62 Z M 149.80 127.22 L 150.77 126.81 C 151.59 126.47 151.98 125.53 151.64 124.72 C 151.29 123.90 150.36 123.52 149.54 123.86 L 148.56 124.26 C 147.75 124.60 147.36 125.54 147.70 126.36 C 148.04 127.17 148.98 127.56 149.80 127.22 Z M 150.79 126.82 L 151.70 126.43 C 152.52 126.08 152.90 125.14 152.55 124.32 C 152.20 123.50 151.26 123.12 150.44 123.47 L 149.53 123.85 C 148.71 124.20 148.33 125.14 148.68 125.96 C 149.02 126.78 149.97 127.16 150.79 126.82 Z M 151.71 126.43 L 152.66 126.02 C 153.48 125.67 153.86 124.72 153.50 123.89 C 153.15 123.07 152.19 122.70 151.37 123.05 L 150.43 123.46 C 149.61 123.82 149.23 124.77 149.58 125.59 C 149.94 126.41 150.89 126.79 151.71 126.43 Z M 152.68 126.03 L 153.62 125.61 C 154.45 125.24 154.82 124.28 154.45 123.45 C 154.09 122.63 153.12 122.26 152.30 122.63 L 151.35 123.05 C 150.53 123.41 150.16 124.38 150.53 125.20 C 150.89 126.02 151.86 126.39 152.68 126.03 Z M 153.65 125.61 L 154.56 125.18 C 155.39 124.81 155.75 123.83 155.37 123.01 C 154.99 122.19 154.01 121.83 153.19 122.21 L 152.28 122.63 C 151.45 123.01 151.09 123.98 151.47 124.80 C 151.85 125.63 152.83 125.99 153.65 125.61 Z M 154.60 125.18 L 155.58 124.70 C 156.41 124.30 156.75 123.31 156.35 122.49 C 155.95 121.67 154.96 121.33 154.14 121.73 L 153.15 122.21 C 152.33 122.61 151.99 123.60 152.39 124.42 C 152.79 125.24 153.78 125.58 154.60 125.18 Z M 155.63 124.71 L 156.84 124.10 C 157.66 123.67 157.99 122.66 157.57 121.83 C 157.14 121.01 156.13 120.68 155.30 121.10 L 154.09 121.72 C 153.27 122.14 152.94 123.16 153.36 123.98 C 153.79 124.81 154.80 125.14 155.63 124.71 Z M 156.77 124.17 L 157.60 123.80 C 158.46 123.41 158.85 122.39 158.46 121.52 C 158.07 120.66 157.05 120.27 156.19 120.66 L 155.36 121.03 C 154.50 121.42 154.11 122.44 154.50 123.30 C 154.89 124.17 155.91 124.56 156.77 124.17 Z M 156.67 123.97 L 157.03 124.01 C 157.99 124.13 158.87 123.45 158.99 122.49 C 159.11 121.53 158.43 120.65 157.46 120.53 L 157.11 120.49 C 156.15 120.37 155.27 121.05 155.15 122.01 C 155.03 122.97 155.71 123.85 156.67 123.97 Z M 155.55 121.78 L 155.36 122.41 C 155.09 123.35 155.63 124.33 156.57 124.61 C 157.51 124.88 158.49 124.34 158.76 123.40 L 158.95 122.77 C 159.22 121.83 158.68 120.85 157.74 120.57 C 156.80 120.30 155.82 120.84 155.55 121.78 Z M 155.48 122.11 L 154.92 123.23 C 154.48 124.11 154.84 125.17 155.71 125.61 C 156.59 126.04 157.65 125.69 158.09 124.81 L 158.65 123.70 C 159.08 122.82 158.73 121.76 157.85 121.32 C 156.98 120.88 155.91 121.24 155.48 122.11 Z M 154.91 123.25 L 154.41 124.29 C 153.99 125.17 154.36 126.23 155.24 126.65 C 156.12 127.08 157.18 126.71 157.60 125.83 L 158.10 124.79 C 158.53 123.91 158.15 122.85 157.27 122.43 C 156.39 122.00 155.33 122.37 154.91 123.25 Z M 154.38 124.35 L 153.99 125.25 C 153.60 126.15 154.00 127.19 154.90 127.58 C 155.80 127.98 156.84 127.57 157.23 126.67 L 157.63 125.77 C 158.02 124.87 157.61 123.83 156.72 123.44 C 155.82 123.04 154.78 123.45 154.38 124.35 Z M 153.97 125.29 L 153.58 126.24 C 153.22 127.14 153.65 128.18 154.56 128.55 C 155.46 128.92 156.50 128.48 156.87 127.57 L 157.25 126.63 C 157.62 125.72 157.18 124.69 156.28 124.32 C 155.37 123.95 154.34 124.39 153.97 125.29 Z M 153.57 126.28 L 153.20 127.24 C 152.86 128.15 153.32 129.17 154.23 129.52 C 155.14 129.87 156.17 129.41 156.51 128.50 L 156.88 127.54 C 157.23 126.62 156.77 125.60 155.85 125.25 C 154.94 124.90 153.92 125.36 153.57 126.28 Z M 153.19 127.28 L 152.85 128.23 C 152.53 129.15 153.01 130.17 153.93 130.49 C 154.85 130.82 155.86 130.34 156.19 129.41 L 156.53 128.46 C 156.85 127.54 156.37 126.52 155.45 126.20 C 154.53 125.87 153.52 126.35 153.19 127.28 Z M 152.84 128.27 L 152.52 129.26 C 152.21 130.19 152.72 131.19 153.65 131.49 C 154.58 131.80 155.58 131.29 155.88 130.36 L 156.20 129.37 C 156.51 128.44 156.00 127.44 155.07 127.14 C 154.14 126.84 153.14 127.35 152.84 128.27 Z M 152.50 129.30 L 152.22 130.26 C 151.94 131.20 152.47 132.18 153.40 132.46 C 154.34 132.74 155.33 132.21 155.61 131.28 L 155.89 130.32 C 156.17 129.38 155.64 128.40 154.71 128.12 C 153.77 127.84 152.78 128.37 152.50 129.30 Z M 152.21 130.30 L 151.95 131.24 C 151.69 132.18 152.24 133.16 153.18 133.42 C 154.12 133.68 155.09 133.13 155.35 132.18 L 155.61 131.24 C 155.87 130.30 155.32 129.33 154.38 129.07 C 153.44 128.81 152.47 129.36 152.21 130.30 Z M 151.94 131.27 L 151.70 132.22 C 151.45 133.16 152.02 134.12 152.97 134.37 C 153.91 134.61 154.87 134.04 155.12 133.10 L 155.36 132.16 C 155.60 131.21 155.04 130.25 154.09 130.00 C 153.15 129.76 152.18 130.33 151.94 131.27 Z M 151.69 132.24 L 151.48 133.09 C 151.25 134.04 151.83 135.00 152.78 135.23 C 153.72 135.46 154.68 134.88 154.91 133.94 L 155.12 133.08 C 155.35 132.13 154.77 131.18 153.83 130.94 C 152.88 130.71 151.93 131.29 151.69 132.24 Z M 151.48 133.11 L 151.27 134.00 C 151.05 134.95 151.64 135.90 152.59 136.12 C 153.53 136.34 154.48 135.75 154.70 134.81 L 154.91 133.92 C 155.14 132.97 154.55 132.02 153.60 131.80 C 152.65 131.58 151.70 132.16 151.48 133.11 Z M 151.27 134.02 L 151.06 134.97 C 150.84 135.92 151.44 136.86 152.39 137.08 C 153.34 137.29 154.28 136.69 154.49 135.74 L 154.71 134.79 C 154.92 133.84 154.32 132.90 153.37 132.68 C 152.42 132.47 151.48 133.07 151.27 134.02 Z M 151.05 134.99 L 150.83 136.04 C 150.62 136.99 151.23 137.92 152.18 138.13 C 153.13 138.33 154.06 137.73 154.27 136.78 L 154.49 135.73 C 154.70 134.78 154.10 133.84 153.15 133.64 C 152.20 133.43 151.26 134.04 151.05 134.99 Z M 150.83 136.05 L 150.60 137.16 C 150.40 138.11 151.01 139.04 151.96 139.24 C 152.91 139.43 153.84 138.83 154.04 137.87 L 154.27 136.77 C 154.47 135.82 153.86 134.89 152.91 134.69 C 151.96 134.49 151.02 135.10 150.83 136.05 Z M 150.60 137.16 L 150.41 138.09 C 150.21 139.04 150.82 139.97 151.78 140.16 C 152.73 140.35 153.65 139.74 153.85 138.79 L 154.04 137.87 C 154.23 136.92 153.62 135.99 152.67 135.79 C 151.72 135.60 150.79 136.21 150.60 137.16 Z M 150.41 138.09 L 150.21 139.07 C 150.02 140.02 150.63 140.94 151.58 141.14 C 152.53 141.33 153.46 140.71 153.65 139.76 L 153.85 138.79 C 154.04 137.84 153.43 136.91 152.48 136.72 C 151.52 136.53 150.60 137.14 150.41 138.09 Z M 150.21 139.07 L 150.01 140.08 C 149.82 141.03 150.43 141.95 151.38 142.14 C 152.33 142.33 153.26 141.72 153.45 140.77 L 153.65 139.76 C 153.84 138.81 153.22 137.89 152.28 137.70 C 151.33 137.51 150.40 138.12 150.21 139.07 Z M 150.01 140.08 L 149.81 141.10 C 149.62 142.05 150.23 142.97 151.18 143.16 C 152.13 143.35 153.05 142.73 153.24 141.79 L 153.45 140.77 C 153.64 139.82 153.02 138.90 152.07 138.70 C 151.12 138.51 150.20 139.13 150.01 140.08 Z M 149.81 141.10 L 149.60 142.10 C 149.41 143.05 150.03 143.98 150.98 144.17 C 151.92 144.36 152.85 143.74 153.04 142.79 L 153.24 141.79 C 153.43 140.84 152.82 139.92 151.87 139.72 C 150.92 139.53 150.00 140.15 149.81 141.10 Z M 149.61 142.10 L 149.41 143.08 C 149.22 144.03 149.83 144.95 150.78 145.14 C 151.72 145.33 152.65 144.72 152.84 143.77 L 153.04 142.80 C 153.23 141.85 152.61 140.93 151.67 140.74 C 150.72 140.54 149.80 141.16 149.61 142.10 Z M 149.41 143.08 L 149.20 144.12 C 149.00 145.07 149.61 145.99 150.56 146.18 C 151.50 146.38 152.43 145.77 152.62 144.82 L 152.83 143.78 C 153.03 142.83 152.42 141.91 151.47 141.72 C 150.53 141.52 149.61 142.13 149.41 143.08 Z M 149.20 144.12 L 148.99 145.16 C 148.79 146.10 149.40 147.03 150.34 147.22 C 151.28 147.42 152.20 146.81 152.40 145.87 L 152.61 144.83 C 152.81 143.89 152.20 142.97 151.26 142.77 C 150.32 142.57 149.40 143.18 149.20 144.12 Z M 148.99 145.16 L 148.79 146.14 C 148.59 147.08 149.19 148.00 150.13 148.20 C 151.06 148.40 151.98 147.80 152.18 146.86 L 152.39 145.87 C 152.59 144.94 151.99 144.02 151.05 143.82 C 150.11 143.62 149.19 144.22 148.99 145.16 Z M 148.79 146.14 L 148.59 147.09 C 148.39 148.02 148.99 148.94 149.92 149.14 C 150.86 149.34 151.78 148.74 151.97 147.81 L 152.17 146.86 C 152.37 145.93 151.78 145.01 150.84 144.81 C 149.91 144.61 148.99 145.21 148.79 146.14 Z M 148.60 147.09 L 148.40 148.01 C 148.20 148.94 148.80 149.85 149.73 150.05 C 150.66 150.25 151.57 149.66 151.77 148.73 L 151.97 147.81 C 152.17 146.88 151.57 145.96 150.64 145.76 C 149.71 145.56 148.80 146.16 148.60 147.09 Z M 148.41 148.01 L 148.21 148.93 C 148.01 149.85 148.60 150.77 149.53 150.96 C 150.46 151.16 151.37 150.57 151.57 149.64 L 151.77 148.72 C 151.96 147.80 151.37 146.88 150.45 146.69 C 149.52 146.49 148.61 147.08 148.41 148.01 Z M 148.22 148.93 L 148.01 149.90 C 147.81 150.82 148.40 151.73 149.33 151.93 C 150.25 152.13 151.16 151.54 151.36 150.61 L 151.56 149.64 C 151.76 148.72 151.17 147.81 150.25 147.61 C 149.32 147.42 148.41 148.00 148.22 148.93 Z M 148.02 149.90 L 147.81 150.87 C 147.61 151.79 148.19 152.70 149.11 152.89 C 150.03 153.09 150.94 152.51 151.14 151.59 L 151.35 150.62 C 151.55 149.70 150.96 148.79 150.04 148.59 C 149.12 148.39 148.22 148.98 148.02 149.90 Z M 147.82 150.86 L 147.60 151.84 C 147.40 152.75 147.97 153.66 148.89 153.86 C 149.80 154.07 150.71 153.49 150.91 152.57 L 151.13 151.60 C 151.33 150.68 150.76 149.78 149.84 149.57 C 148.93 149.37 148.02 149.95 147.82 150.86 Z M 147.61 151.83 L 147.38 152.80 C 147.17 153.71 147.74 154.62 148.65 154.83 C 149.56 155.04 150.47 154.48 150.68 153.57 L 150.90 152.59 C 151.11 151.68 150.55 150.77 149.64 150.56 C 148.73 150.35 147.82 150.92 147.61 151.83 Z M 147.39 152.79 L 147.15 153.77 C 146.93 154.67 147.49 155.58 148.39 155.80 C 149.30 156.02 150.21 155.47 150.43 154.56 L 150.67 153.58 C 150.89 152.68 150.33 151.77 149.43 151.55 C 148.52 151.33 147.61 151.88 147.39 152.79 Z M 147.17 153.75 L 146.91 154.74 C 146.68 155.63 147.22 156.55 148.12 156.78 C 149.01 157.01 149.93 156.47 150.16 155.58 L 150.41 154.58 C 150.64 153.69 150.11 152.77 149.21 152.54 C 148.31 152.31 147.40 152.85 147.17 153.75 Z M 146.93 154.72 L 146.66 155.71 C 146.42 156.59 146.94 157.51 147.83 157.75 C 148.72 157.99 149.63 157.47 149.88 156.58 L 150.14 155.59 C 150.38 154.71 149.86 153.79 148.97 153.55 C 148.08 153.31 147.17 153.83 146.93 154.72 Z M 146.67 155.69 L 146.40 156.66 C 146.15 157.54 146.66 158.46 147.54 158.71 C 148.42 158.95 149.34 158.44 149.59 157.56 L 149.86 156.59 C 150.11 155.71 149.60 154.80 148.72 154.55 C 147.84 154.30 146.92 154.81 146.67 155.69 Z M 146.41 156.65 L 146.13 157.60 C 145.88 158.47 146.38 159.38 147.25 159.64 C 148.13 159.90 149.04 159.40 149.30 158.52 L 149.57 157.57 C 149.83 156.70 149.33 155.79 148.46 155.53 C 147.58 155.28 146.67 155.78 146.41 156.65 Z M 146.15 157.59 L 145.87 158.51 C 145.61 159.37 146.10 160.29 146.97 160.55 C 147.83 160.81 148.75 160.32 149.01 159.45 L 149.28 158.53 C 149.54 157.67 149.05 156.75 148.19 156.49 C 147.32 156.23 146.41 156.72 146.15 157.59 Z M 145.89 158.50 L 145.58 159.48 C 145.32 160.34 145.80 161.25 146.66 161.51 C 147.52 161.78 148.43 161.30 148.69 160.44 L 148.99 159.46 C 149.26 158.60 148.78 157.69 147.92 157.42 C 147.06 157.16 146.15 157.64 145.89 158.50 Z M 145.60 159.46 L 145.30 160.41 C 145.02 161.26 145.49 162.17 146.34 162.44 C 147.18 162.71 148.09 162.25 148.37 161.40 L 148.67 160.45 C 148.94 159.60 148.48 158.70 147.63 158.42 C 146.78 158.15 145.88 158.61 145.60 159.46 Z M 145.32 160.39 L 145.00 161.32 C 144.71 162.16 145.16 163.06 145.99 163.35 C 146.83 163.64 147.74 163.19 148.02 162.36 L 148.34 161.42 C 148.63 160.59 148.18 159.68 147.35 159.39 C 146.51 159.11 145.60 159.55 145.32 160.39 Z M 145.02 161.29 L 144.68 162.22 C 144.38 163.04 144.80 163.95 145.62 164.25 C 146.45 164.56 147.36 164.14 147.66 163.31 L 148.00 162.38 C 148.30 161.56 147.88 160.65 147.06 160.35 C 146.24 160.05 145.33 160.47 145.02 161.29 Z M 144.71 162.19 L 144.34 163.11 C 144.02 163.92 144.42 164.83 145.22 165.15 C 146.03 165.47 146.94 165.08 147.26 164.27 L 147.63 163.35 C 147.95 162.54 147.56 161.63 146.75 161.31 C 145.94 160.99 145.03 161.38 144.71 162.19 Z M 144.37 163.08 L 143.98 163.99 C 143.64 164.78 144.00 165.70 144.79 166.04 C 145.58 166.38 146.49 166.02 146.84 165.23 L 147.23 164.31 C 147.57 163.52 147.21 162.61 146.42 162.26 C 145.63 161.92 144.71 162.29 144.37 163.08 Z M 144.01 163.95 L 143.58 164.86 C 143.21 165.63 143.54 166.55 144.31 166.92 C 145.08 167.28 146.00 166.95 146.37 166.19 L 146.80 165.27 C 147.17 164.50 146.84 163.58 146.07 163.22 C 145.30 162.85 144.38 163.18 144.01 163.95 Z M 143.62 164.81 L 143.15 165.70 C 142.75 166.44 143.04 167.37 143.78 167.76 C 144.53 168.16 145.45 167.87 145.85 167.13 L 146.32 166.24 C 146.72 165.49 146.43 164.57 145.69 164.17 C 144.94 163.78 144.02 164.06 143.62 164.81 Z M 143.20 165.63 L 142.69 166.49 C 142.26 167.20 142.49 168.13 143.21 168.56 C 143.92 168.99 144.86 168.76 145.29 168.04 L 145.80 167.19 C 146.23 166.48 146.00 165.55 145.28 165.11 C 144.56 164.68 143.63 164.92 143.20 165.63 Z M 142.75 166.41 L 142.18 167.24 C 141.71 167.92 141.88 168.86 142.56 169.33 C 143.24 169.80 144.17 169.63 144.64 168.95 L 145.22 168.12 C 145.69 167.44 145.52 166.50 144.84 166.03 C 144.16 165.56 143.23 165.73 142.75 166.41 Z M 142.25 167.18 L 141.62 167.97 C 141.11 168.61 141.22 169.55 141.87 170.05 C 142.51 170.56 143.44 170.45 143.95 169.81 L 144.58 169.02 C 145.08 168.37 144.98 167.44 144.33 166.93 C 143.69 166.42 142.75 166.53 142.25 167.18 Z M 141.68 167.92 L 141.02 168.67 C 140.49 169.28 140.55 170.21 141.17 170.75 C 141.78 171.28 142.71 171.22 143.24 170.60 L 143.89 169.85 C 144.43 169.24 144.36 168.31 143.75 167.78 C 143.14 167.25 142.21 167.31 141.68 167.92 Z M 141.07 168.65 L 140.39 169.37 C 139.85 169.96 139.88 170.88 140.47 171.43 C 141.06 171.97 141.98 171.94 142.53 171.35 L 143.20 170.63 C 143.74 170.04 143.71 169.12 143.12 168.57 C 142.53 168.03 141.61 168.06 141.07 168.65 Z M 140.42 169.37 L 139.89 169.92 C 139.34 170.50 139.36 171.41 139.94 171.96 C 140.51 172.51 141.42 172.49 141.97 171.91 L 142.50 171.36 C 143.05 170.78 143.03 169.87 142.45 169.32 C 141.88 168.77 140.97 168.79 140.42 169.37 Z"
      fill="black"
      fill-rule="nonzero" /><path d="M 138.34 162.94 L 138.92 163.66 C 139.48 164.37 140.51 164.48 141.21 163.92 C 141.91 163.36 142.03 162.33 141.46 161.63 L 140.88 160.90 C 140.32 160.20 139.29 160.08 138.59 160.65 C 137.89 161.21 137.78 162.23 138.34 162.94 Z M 138.94 163.73 L 139.58 164.46 C 140.18 165.15 141.22 165.22 141.91 164.63 C 142.60 164.03 142.67 162.98 142.07 162.30 L 141.44 161.56 C 140.84 160.88 139.80 160.80 139.11 161.40 C 138.42 162.00 138.35 163.04 138.94 163.73 Z M 139.64 164.56 L 140.38 165.30 C 141.03 165.95 142.09 165.95 142.75 165.30 C 143.40 164.65 143.40 163.59 142.75 162.93 L 142.01 162.19 C 141.36 161.54 140.30 161.54 139.64 162.19 C 138.99 162.85 138.99 163.91 139.64 164.56 Z M 140.47 165.40 L 141.22 166.04 C 141.93 166.64 142.99 166.56 143.60 165.85 C 144.20 165.14 144.12 164.07 143.41 163.47 L 142.66 162.83 C 141.95 162.23 140.88 162.31 140.28 163.02 C 139.67 163.73 139.76 164.80 140.47 165.40 Z M 141.30 166.10 L 142.04 166.66 C 142.79 167.21 143.84 167.06 144.40 166.32 C 144.96 165.57 144.81 164.51 144.06 163.96 L 143.32 163.40 C 142.58 162.85 141.52 163.00 140.96 163.74 C 140.40 164.49 140.56 165.54 141.30 166.10 Z M 142.11 166.69 L 142.92 167.25 C 143.69 167.77 144.73 167.57 145.25 166.81 C 145.77 166.04 145.58 165.00 144.81 164.48 L 143.99 163.92 C 143.23 163.40 142.19 163.60 141.67 164.36 C 141.15 165.13 141.34 166.17 142.11 166.69 Z M 142.98 167.27 L 143.86 167.83 C 144.64 168.32 145.66 168.09 146.16 167.32 C 146.65 166.54 146.42 165.51 145.64 165.02 L 144.76 164.46 C 143.98 163.97 142.95 164.20 142.46 164.97 C 141.97 165.75 142.20 166.78 142.98 167.27 Z M 143.90 167.84 L 144.84 168.40 C 145.62 168.87 146.64 168.62 147.11 167.83 C 147.58 167.05 147.32 166.03 146.54 165.57 L 145.60 165.00 C 144.82 164.53 143.80 164.79 143.33 165.57 C 142.86 166.36 143.12 167.37 143.90 167.84 Z M 144.87 168.41 L 145.79 168.94 C 146.58 169.39 147.58 169.11 148.03 168.33 C 148.48 167.54 148.21 166.53 147.42 166.08 L 146.51 165.56 C 145.72 165.11 144.71 165.38 144.26 166.17 C 143.81 166.96 144.08 167.96 144.87 168.41 Z M 145.81 168.94 L 146.73 169.45 C 147.52 169.88 148.51 169.60 148.95 168.81 C 149.39 168.02 149.10 167.03 148.31 166.59 L 147.40 166.08 C 146.61 165.64 145.61 165.93 145.18 166.72 C 144.74 167.51 145.02 168.50 145.81 168.94 Z M 146.75 169.45 L 147.66 169.94 C 148.45 170.36 149.44 170.07 149.86 169.28 C 150.28 168.49 149.99 167.51 149.20 167.08 L 148.29 166.59 C 147.50 166.17 146.52 166.46 146.10 167.25 C 145.67 168.04 145.97 169.02 146.75 169.45 Z M 147.68 169.93 L 148.56 170.39 C 149.35 170.81 150.32 170.51 150.74 169.72 C 151.15 168.93 150.85 167.96 150.06 167.55 L 149.18 167.08 C 148.40 166.67 147.42 166.97 147.01 167.76 C 146.59 168.54 146.90 169.52 147.68 169.93 Z M 148.58 170.39 L 149.40 170.82 C 150.18 171.22 151.15 170.91 151.55 170.13 C 151.96 169.34 151.65 168.38 150.87 167.97 L 150.04 167.55 C 149.26 167.14 148.29 167.45 147.89 168.24 C 147.49 169.02 147.79 169.99 148.58 170.39 Z M 149.42 170.81 L 150.38 171.29 C 151.16 171.69 152.11 171.37 152.51 170.59 C 152.90 169.81 152.59 168.86 151.81 168.47 L 150.85 167.98 C 150.07 167.59 149.11 167.90 148.72 168.68 C 148.33 169.46 148.64 170.41 149.42 170.81 Z M 150.41 171.28 L 151.33 171.73 C 152.11 172.11 153.04 171.79 153.42 171.02 C 153.80 170.24 153.48 169.31 152.70 168.93 L 151.78 168.48 C 151.01 168.10 150.07 168.42 149.69 169.19 C 149.32 169.97 149.64 170.90 150.41 171.28 Z M 151.37 171.72 L 152.21 172.12 C 152.98 172.48 153.89 172.15 154.26 171.38 C 154.62 170.62 154.29 169.70 153.52 169.34 L 152.67 168.94 C 151.90 168.58 150.99 168.91 150.63 169.68 C 150.27 170.45 150.60 171.36 151.37 171.72 Z M 152.24 172.11 L 153.08 172.48 C 153.84 172.83 154.73 172.49 155.08 171.73 C 155.42 170.96 155.08 170.07 154.32 169.73 L 153.49 169.35 C 152.73 169.01 151.83 169.35 151.49 170.11 C 151.14 170.87 151.48 171.77 152.24 172.11 Z M 153.10 172.48 L 153.97 172.86 C 154.73 173.19 155.61 172.84 155.94 172.08 C 156.27 171.32 155.92 170.44 155.17 170.11 L 154.29 169.73 C 153.54 169.40 152.65 169.75 152.33 170.51 C 152.00 171.27 152.34 172.15 153.10 172.48 Z M 153.99 172.85 L 154.91 173.24 C 155.66 173.56 156.53 173.20 156.85 172.45 C 157.17 171.70 156.82 170.83 156.06 170.51 L 155.15 170.12 C 154.40 169.80 153.52 170.15 153.20 170.91 C 152.89 171.66 153.24 172.53 153.99 172.85 Z M 154.92 173.23 L 155.88 173.63 C 156.63 173.94 157.49 173.59 157.80 172.84 C 158.11 172.09 157.76 171.23 157.01 170.91 L 156.05 170.51 C 155.30 170.20 154.44 170.56 154.13 171.31 C 153.81 172.06 154.17 172.92 154.92 173.23 Z M 155.88 173.62 L 156.81 174.01 C 157.55 174.32 158.41 173.96 158.72 173.22 C 159.03 172.47 158.67 171.62 157.93 171.31 L 157.00 170.92 C 156.26 170.61 155.40 170.97 155.09 171.71 C 154.78 172.46 155.14 173.31 155.88 173.62 Z M 156.82 174.00 L 157.73 174.38 C 158.47 174.68 159.32 174.33 159.63 173.59 C 159.94 172.84 159.58 171.99 158.84 171.69 L 157.92 171.31 C 157.18 171.01 156.33 171.36 156.02 172.10 C 155.72 172.84 156.07 173.69 156.82 174.00 Z M 157.74 174.38 L 158.68 174.76 C 159.42 175.06 160.26 174.70 160.56 173.96 C 160.86 173.22 160.51 172.37 159.77 172.07 L 158.83 171.69 C 158.09 171.39 157.24 171.75 156.94 172.49 C 156.64 173.23 157.00 174.07 157.74 174.38 Z M 158.69 174.75 L 159.64 175.13 C 160.38 175.42 161.21 175.06 161.51 174.32 C 161.80 173.58 161.44 172.74 160.70 172.45 L 159.75 172.07 C 159.01 171.78 158.18 172.14 157.88 172.88 C 157.59 173.62 157.95 174.46 158.69 174.75 Z M 159.65 175.13 L 160.59 175.49 C 161.33 175.77 162.16 175.40 162.45 174.66 C 162.73 173.92 162.36 173.09 161.62 172.81 L 160.68 172.45 C 159.94 172.16 159.11 172.53 158.83 173.27 C 158.54 174.01 158.91 174.85 159.65 175.13 Z M 160.61 175.49 L 161.54 175.84 C 162.28 176.12 163.11 175.74 163.38 175.00 C 163.66 174.25 163.28 173.43 162.54 173.15 L 161.61 172.81 C 160.87 172.53 160.04 172.91 159.76 173.65 C 159.49 174.39 159.86 175.22 160.61 175.49 Z M 161.55 175.84 L 162.48 176.18 C 163.23 176.45 164.05 176.07 164.32 175.33 C 164.59 174.59 164.21 173.76 163.47 173.49 L 162.53 173.15 C 161.79 172.88 160.97 173.26 160.70 174.01 C 160.42 174.75 160.81 175.57 161.55 175.84 Z M 162.49 176.18 L 163.43 176.52 C 164.17 176.79 164.99 176.41 165.26 175.66 C 165.53 174.92 165.15 174.10 164.40 173.84 L 163.46 173.49 C 162.72 173.23 161.90 173.61 161.63 174.35 C 161.36 175.09 161.75 175.91 162.49 176.18 Z M 163.43 176.52 L 164.37 176.86 C 165.11 177.13 165.92 176.74 166.19 176.00 C 166.46 175.26 166.08 174.44 165.34 174.18 L 164.40 173.84 C 163.66 173.57 162.85 173.95 162.58 174.69 C 162.31 175.43 162.69 176.25 163.43 176.52 Z M 164.36 176.86 L 165.30 177.20 C 166.04 177.47 166.86 177.09 167.12 176.34 C 167.39 175.60 167.01 174.79 166.27 174.52 L 165.34 174.18 C 164.60 173.91 163.78 174.29 163.51 175.03 C 163.24 175.77 163.62 176.59 164.36 176.86 Z M 165.30 177.20 L 166.24 177.54 C 166.98 177.81 167.80 177.43 168.07 176.69 C 168.34 175.95 167.96 175.13 167.22 174.86 L 166.27 174.52 C 165.53 174.25 164.72 174.63 164.45 175.37 C 164.18 176.11 164.56 176.93 165.30 177.20 Z M 166.24 177.54 L 167.18 177.89 C 167.92 178.16 168.74 177.78 169.01 177.04 C 169.28 176.30 168.90 175.48 168.17 175.21 L 167.22 174.86 C 166.48 174.59 165.66 174.97 165.39 175.71 C 165.12 176.45 165.50 177.27 166.24 177.54 Z M 167.18 177.89 L 167.69 178.07 C 168.43 178.34 169.25 177.97 169.52 177.23 C 169.79 176.49 169.41 175.67 168.68 175.40 L 168.17 175.21 C 167.43 174.94 166.61 175.32 166.34 176.06 C 166.07 176.80 166.45 177.62 167.18 177.89 Z"
      fill="black"
      fill-rule="nonzero" /></svg>