<svg xmlns="http://www.w3.org/2000/svg" width="300" height="300" viewBox="0 0 300 300">
<path d="M 155.86 116.09 L 154.84 115.62 C 154.08 115.26 153.17 115.60 152.82 116.36 C 152.47 117.12 152.80 118.03 153.56 118.38 L 154.58 118.85 C 155.34 119.20 156.25 118.87 156.60 118.11 C 156.95 117.34 156.62 116.44 155.86 116.09 Z M 154.70 115.53 L 153.72 115.20 C 152.91 114.93 152.03 115.36 151.76 116.17 C 151.49 116.98 151.92 117.86 152.73 118.13 L 153.71 118.46 C 154.52 118.74 155.39 118.30 155.67 117.49 C 155.94 116.68 155.51 115.81 154.70 115.53 Z M 153.31 115.10 L 152.42 115.05 C 151.56 115.01 150.82 115.67 150.77 116.54 C 150.72 117.40 151.39 118.14 152.26 118.19 L 153.14 118.24 C 154.01 118.28 154.75 117.62 154.80 116.75 C 154.84 115.89 154.18 115.15 153.31 115.10 Z M 151.65 115.18 L 150.92 115.54 C 150.12 115.91 149.79 116.87 150.16 117.66 C 150.54 118.45 151.50 118.79 152.29 118.41 L 153.03 118.06 C 153.82 117.68 154.16 116.73 153.78 115.94 C 153.40 115.14 152.45 114.80 151.65 115.18 Z M 150.36 115.95 L 149.78 116.65 C 149.21 117.34 149.30 118.35 149.99 118.92 C 150.67 119.49 151.69 119.39 152.25 118.71 L 152.84 118.00 C 153.41 117.32 153.31 116.30 152.63 115.74 C 151.95 115.17 150.93 115.26 150.36 115.95 Z M 149.57 116.95 L 149.10 117.88 C 148.69 118.68 149.01 119.65 149.80 120.06 C 150.60 120.47 151.58 120.15 151.98 119.35 L 152.46 118.42 C 152.87 117.62 152.55 116.64 151.75 116.24 C 150.95 115.83 149.98 116.15 149.57 116.95 Z M 149.01 118.05 L 148.63 119.07 C 148.32 119.91 148.75 120.85 149.59 121.16 C 150.44 121.48 151.38 121.05 151.69 120.20 L 152.07 119.18 C 152.38 118.34 151.95 117.40 151.11 117.09 C 150.26 116.77 149.32 117.20 149.01 118.05 Z M 148.59 119.16 L 148.29 120.16 C 148.02 121.03 148.51 121.95 149.38 122.21 C 150.25 122.47 151.16 121.98 151.42 121.12 L 151.73 120.11 C 151.99 119.24 151.50 118.33 150.64 118.06 C 149.77 117.80 148.85 118.29 148.59 119.16 Z M 148.26 120.24 L 148.02 121.20 C 147.80 122.08 148.33 122.97 149.21 123.20 C 150.09 123.42 150.99 122.88 151.21 122.00 L 151.45 121.04 C 151.67 120.16 151.14 119.27 150.26 119.05 C 149.37 118.82 148.48 119.36 148.26 120.24 Z M 148.00 121.27 L 147.81 122.22 C 147.62 123.11 148.20 123.98 149.09 124.17 C 149.98 124.35 150.85 123.78 151.03 122.89 L 151.23 121.93 C 151.41 121.04 150.84 120.17 149.94 119.99 C 149.05 119.81 148.18 120.38 148.00 121.27 Z M 147.79 122.27 L 147.63 123.23 C 147.47 124.13 148.07 124.98 148.97 125.14 C 149.87 125.29 150.72 124.69 150.88 123.79 L 151.04 122.84 C 151.20 121.94 150.60 121.09 149.70 120.93 C 148.80 120.78 147.95 121.38 147.79 122.27 Z M 147.62 123.26 L 147.48 124.19 C 147.34 125.09 147.96 125.93 148.86 126.07 C 149.76 126.21 150.60 125.59 150.74 124.69 L 150.88 123.76 C 151.02 122.86 150.40 122.02 149.50 121.88 C 148.60 121.74 147.76 122.36 147.62 123.26 Z M 147.47 124.22 L 147.34 125.20 C 147.21 126.10 147.85 126.93 148.75 127.06 C 149.65 127.18 150.49 126.55 150.61 125.64 L 150.75 124.67 C 150.87 123.76 150.24 122.93 149.33 122.81 C 148.43 122.68 147.60 123.31 147.47 124.22 Z M 147.33 125.22 L 147.21 126.25 C 147.10 127.15 147.74 127.98 148.65 128.09 C 149.55 128.20 150.38 127.56 150.49 126.65 L 150.62 125.62 C 150.73 124.71 150.08 123.89 149.18 123.78 C 148.27 123.67 147.45 124.31 147.33 125.22 Z M 147.20 126.27 L 147.09 127.31 C 146.99 128.22 147.65 129.03 148.56 129.13 C 149.46 129.23 150.28 128.58 150.38 127.67 L 150.50 126.63 C 150.59 125.72 149.94 124.90 149.03 124.80 C 148.12 124.70 147.30 125.36 147.20 126.27 Z M 147.09 127.32 L 146.99 128.28 C 146.90 129.19 147.57 130.00 148.48 130.09 C 149.39 130.18 150.20 129.52 150.29 128.61 L 150.38 127.65 C 150.48 126.74 149.81 125.93 148.90 125.84 C 147.99 125.75 147.18 126.41 147.09 127.32 Z M 146.99 128.29 L 146.90 129.27 C 146.81 130.18 147.48 130.99 148.39 131.08 C 149.31 131.16 150.12 130.49 150.20 129.58 L 150.29 128.60 C 150.38 127.68 149.71 126.87 148.80 126.79 C 147.88 126.70 147.07 127.37 146.99 128.29 Z M 146.89 129.28 L 146.80 130.28 C 146.72 131.20 147.39 132.01 148.31 132.09 C 149.22 132.17 150.03 131.50 150.11 130.59 L 150.20 129.58 C 150.29 128.66 149.61 127.86 148.70 127.77 C 147.79 127.69 146.98 128.36 146.89 129.28 Z M 146.80 130.28 L 146.71 131.31 C 146.62 132.23 147.30 133.04 148.21 133.12 C 149.13 133.20 149.93 132.53 150.02 131.62 L 150.11 130.59 C 150.20 129.67 149.52 128.86 148.61 128.78 C 147.69 128.70 146.88 129.37 146.80 130.28 Z M 146.71 131.31 L 146.61 132.30 C 146.52 133.22 147.20 134.03 148.11 134.12 C 149.03 134.20 149.84 133.53 149.92 132.62 L 150.02 131.62 C 150.11 130.71 149.43 129.89 148.52 129.81 C 147.60 129.72 146.79 130.39 146.71 131.31 Z M 146.61 132.30 L 146.52 133.27 C 146.43 134.18 147.10 135.00 148.01 135.09 C 148.93 135.18 149.74 134.51 149.83 133.59 L 149.93 132.62 C 150.02 131.71 149.35 130.89 148.43 130.80 C 147.51 130.71 146.70 131.38 146.61 132.30 Z M 146.51 133.27 L 146.42 134.25 C 146.33 135.17 147.00 135.98 147.91 136.07 C 148.83 136.16 149.65 135.49 149.74 134.58 L 149.83 133.59 C 149.92 132.68 149.25 131.86 148.34 131.77 C 147.42 131.68 146.60 132.35 146.51 133.27 Z M 146.42 134.25 L 146.32 135.25 C 146.23 136.17 146.90 136.99 147.82 137.07 C 148.74 137.16 149.55 136.49 149.64 135.57 L 149.74 134.57 C 149.83 133.66 149.15 132.84 148.24 132.75 C 147.32 132.66 146.50 133.33 146.42 134.25 Z M 146.32 135.26 L 146.22 136.28 C 146.14 137.20 146.81 138.01 147.73 138.10 C 148.65 138.18 149.46 137.51 149.55 136.59 L 149.64 135.57 C 149.73 134.65 149.05 133.84 148.13 133.75 C 147.22 133.67 146.40 134.34 146.32 135.26 Z M 146.22 136.29 L 146.13 137.29 C 146.05 138.21 146.73 139.02 147.65 139.10 C 148.57 139.18 149.38 138.50 149.46 137.58 L 149.55 136.58 C 149.63 135.66 148.95 134.85 148.03 134.77 C 147.11 134.69 146.30 135.37 146.22 136.29 Z M 146.13 137.31 L 146.05 138.27 C 145.98 139.19 146.67 140.00 147.59 140.07 C 148.51 140.15 149.31 139.46 149.39 138.54 L 149.47 137.57 C 149.54 136.65 148.85 135.85 147.93 135.77 C 147.01 135.70 146.21 136.38 146.13 137.31 Z M 146.05 138.29 L 145.98 139.27 C 145.91 140.19 146.60 141.00 147.52 141.06 C 148.45 141.13 149.25 140.44 149.32 139.52 L 149.39 138.53 C 149.46 137.61 148.76 136.81 147.84 136.74 C 146.92 136.67 146.12 137.36 146.05 138.29 Z M 145.98 139.28 L 145.91 140.29 C 145.85 141.21 146.55 142.01 147.47 142.07 C 148.39 142.13 149.19 141.43 149.25 140.51 L 149.32 139.51 C 149.38 138.58 148.68 137.79 147.76 137.72 C 146.84 137.66 146.04 138.36 145.98 139.28 Z M 145.91 140.30 L 145.85 141.31 C 145.79 142.24 146.50 143.03 147.42 143.08 C 148.35 143.14 149.14 142.43 149.19 141.51 L 149.25 140.50 C 149.31 139.57 148.60 138.78 147.68 138.73 C 146.76 138.67 145.96 139.37 145.91 140.30 Z M 145.85 141.33 L 145.79 142.35 C 145.75 143.28 146.46 144.07 147.38 144.11 C 148.31 144.16 149.09 143.45 149.14 142.52 L 149.19 141.50 C 149.24 140.57 148.53 139.79 147.61 139.74 C 146.68 139.69 145.89 140.40 145.85 141.33 Z M 145.79 142.37 L 145.75 143.36 C 145.71 144.28 146.43 145.07 147.35 145.11 C 148.28 145.15 149.06 144.43 149.10 143.50 L 149.14 142.51 C 149.18 141.59 148.47 140.80 147.54 140.76 C 146.62 140.72 145.83 141.44 145.79 142.37 Z M 145.75 143.37 L 145.71 144.36 C 145.68 145.28 146.40 146.06 147.33 146.09 C 148.25 146.13 149.03 145.40 149.07 144.48 L 149.10 143.49 C 149.14 142.56 148.41 141.79 147.49 141.75 C 146.56 141.72 145.78 142.44 145.75 143.37 Z M 145.71 144.37 L 145.68 145.36 C 145.65 146.29 146.38 147.06 147.31 147.09 C 148.23 147.12 149.01 146.39 149.04 145.46 L 149.07 144.47 C 149.10 143.54 148.37 142.77 147.44 142.74 C 146.51 142.71 145.74 143.44 145.71 144.37 Z M 145.68 145.37 L 145.65 146.37 C 145.63 147.30 146.36 148.07 147.29 148.09 C 148.21 148.12 148.99 147.38 149.01 146.46 L 149.04 145.46 C 149.06 144.53 148.33 143.76 147.40 143.73 C 146.48 143.71 145.71 144.44 145.68 145.37 Z M 145.65 146.37 L 145.63 147.38 C 145.61 148.31 146.34 149.08 147.27 149.10 C 148.20 149.12 148.97 148.39 148.99 147.46 L 149.01 146.45 C 149.03 145.53 148.30 144.76 147.37 144.73 C 146.44 144.71 145.67 145.45 145.65 146.37 Z M 145.63 147.39 L 145.61 148.40 C 145.59 149.33 146.32 150.10 147.25 150.12 C 148.18 150.14 148.95 149.40 148.97 148.48 L 148.99 147.46 C 149.01 146.53 148.27 145.76 147.35 145.74 C 146.42 145.72 145.65 146.46 145.63 147.39 Z M 145.61 148.40 L 145.58 149.43 C 145.56 150.36 146.30 151.13 147.23 151.15 C 148.16 151.17 148.92 150.43 148.94 149.50 L 148.97 148.48 C 148.99 147.55 148.25 146.78 147.32 146.76 C 146.39 146.74 145.63 147.47 145.61 148.40 Z M 145.58 149.43 L 145.56 150.46 C 145.54 151.39 146.28 152.16 147.21 152.18 C 148.13 152.19 148.90 151.46 148.92 150.53 L 148.94 149.50 C 148.96 148.57 148.23 147.81 147.30 147.79 C 146.37 147.77 145.60 148.50 145.58 149.43 Z M 145.56 150.46 L 145.54 151.48 C 145.52 152.41 146.26 153.18 147.19 153.20 C 148.12 153.21 148.88 152.48 148.90 151.55 L 148.92 150.53 C 148.94 149.60 148.20 148.83 147.28 148.81 C 146.35 148.80 145.58 149.53 145.56 150.46 Z M 145.54 151.48 L 145.52 152.49 C 145.50 153.42 146.24 154.18 147.17 154.20 C 148.10 154.22 148.87 153.48 148.88 152.55 L 148.90 151.55 C 148.92 150.62 148.18 149.85 147.25 149.83 C 146.32 149.82 145.56 150.56 145.54 151.48 Z M 145.52 152.49 L 145.51 153.47 C 145.49 154.40 146.23 155.17 147.16 155.18 C 148.09 155.20 148.85 154.46 148.87 153.53 L 148.88 152.55 C 148.90 151.62 148.16 150.85 147.23 150.84 C 146.30 150.82 145.54 151.56 145.52 152.49 Z M 145.51 153.48 L 145.49 154.42 C 145.48 155.35 146.22 156.12 147.15 156.13 C 148.08 156.14 148.84 155.40 148.85 154.47 L 148.87 153.52 C 148.88 152.60 148.14 151.83 147.21 151.82 C 146.28 151.81 145.52 152.55 145.51 153.48 Z M 145.49 154.43 L 145.48 155.51 C 145.47 156.43 146.22 157.20 147.14 157.20 C 148.07 157.21 148.83 156.47 148.84 155.54 L 148.85 154.47 C 148.86 153.54 148.12 152.78 147.19 152.77 C 146.26 152.76 145.50 153.50 145.49 154.43 Z M 145.48 155.51 L 145.47 156.55 C 145.47 157.48 146.22 158.24 147.14 158.24 C 148.07 158.25 148.83 157.50 148.84 156.57 L 148.84 155.53 C 148.85 154.61 148.10 153.85 147.17 153.84 C 146.24 153.84 145.49 154.58 145.48 155.51 Z M 145.47 156.56 L 145.47 157.55 C 145.47 158.48 146.22 159.24 147.15 159.24 C 148.07 159.24 148.83 158.49 148.83 157.56 L 148.84 156.57 C 148.84 155.64 148.09 154.89 147.16 154.88 C 146.23 154.88 145.48 155.63 145.47 156.56 Z M 145.47 157.56 L 145.47 158.51 C 145.47 159.44 146.22 160.19 147.15 160.20 C 148.08 160.20 148.83 159.45 148.83 158.52 L 148.83 157.56 C 148.83 156.63 148.08 155.88 147.15 155.88 C 146.23 155.88 145.47 156.63 145.47 157.56 Z M 145.47 158.51 L 145.47 159.44 C 145.47 160.37 146.22 161.12 147.15 161.12 C 148.08 161.12 148.83 160.37 148.83 159.44 L 148.83 158.52 C 148.83 157.59 148.08 156.83 147.15 156.83 C 146.22 156.83 145.47 157.59 145.47 158.51 Z M 145.47 159.44 L 145.47 160.51 C 145.47 161.44 146.22 162.19 147.15 162.19 C 148.08 162.19 148.83 161.44 148.83 160.51 L 148.83 159.44 C 148.83 158.51 148.08 157.76 147.15 157.76 C 146.22 157.76 145.47 158.52 145.47 159.44 Z M 145.47 160.52 L 145.48 161.55 C 145.49 162.48 146.24 163.22 147.17 163.22 C 148.09 163.21 148.84 162.46 148.84 161.53 L 148.83 160.50 C 148.82 159.57 148.07 158.83 147.14 158.83 C 146.21 158.84 145.47 159.59 145.47 160.52 Z M 145.48 161.57 L 145.50 162.55 C 145.52 163.48 146.28 164.22 147.20 164.20 C 148.13 164.18 148.87 163.42 148.85 162.49 L 148.83 161.51 C 148.82 160.58 148.05 159.85 147.13 159.86 C 146.20 159.88 145.46 160.64 145.48 161.57 Z M 145.50 162.59 L 145.54 163.52 C 145.57 164.44 146.35 165.16 147.27 165.13 C 148.19 165.10 148.92 164.32 148.88 163.39 L 148.85 162.46 C 148.81 161.54 148.04 160.82 147.11 160.85 C 146.19 160.88 145.47 161.66 145.50 162.59 Z M 145.54 163.57 L 145.61 164.58 C 145.68 165.50 146.48 166.19 147.40 166.13 C 148.32 166.06 149.01 165.27 148.95 164.34 L 148.88 163.34 C 148.81 162.42 148.01 161.72 147.09 161.79 C 146.17 161.85 145.48 162.65 145.54 163.57 Z M 145.62 164.70 L 145.76 165.67 C 145.89 166.58 146.74 167.22 147.65 167.09 C 148.57 166.96 149.20 166.11 149.07 165.20 L 148.93 164.23 C 148.80 163.31 147.96 162.68 147.05 162.81 C 146.13 162.94 145.50 163.78 145.62 164.70 Z M 145.80 165.85 L 146.04 166.80 C 146.27 167.69 147.18 168.23 148.08 168.00 C 148.97 167.77 149.51 166.86 149.28 165.97 L 149.03 165.02 C 148.80 164.12 147.89 163.59 147.00 163.82 C 146.11 164.05 145.57 164.96 145.80 165.85 Z M 146.11 167.01 L 146.49 167.93 C 146.83 168.78 147.80 169.19 148.66 168.85 C 149.51 168.50 149.92 167.53 149.58 166.68 L 149.21 165.76 C 148.86 164.90 147.89 164.49 147.04 164.84 C 146.18 165.18 145.77 166.15 146.11 167.01 Z M 146.58 168.12 L 147.05 168.97 C 147.50 169.77 148.52 170.06 149.32 169.61 C 150.13 169.16 150.41 168.15 149.96 167.34 L 149.49 166.49 C 149.04 165.69 148.02 165.40 147.22 165.85 C 146.42 166.30 146.13 167.31 146.58 168.12 Z M 147.17 169.15 L 147.77 169.96 C 148.32 170.70 149.36 170.86 150.10 170.31 C 150.84 169.76 151.00 168.72 150.45 167.98 L 149.85 167.17 C 149.30 166.43 148.26 166.27 147.52 166.82 C 146.78 167.36 146.62 168.41 147.17 169.15 Z M 147.93 170.14 L 148.64 170.86 C 149.29 171.52 150.34 171.52 151.00 170.88 C 151.65 170.23 151.66 169.18 151.01 168.52 L 150.29 167.80 C 149.65 167.14 148.59 167.14 147.94 167.79 C 147.29 168.43 147.28 169.49 147.93 170.14 Z M 148.86 171.05 L 149.66 171.62 C 150.41 172.16 151.45 171.98 151.98 171.24 C 152.52 170.49 152.35 169.45 151.60 168.92 L 150.79 168.34 C 150.05 167.81 149.01 167.98 148.47 168.72 C 147.94 169.47 148.11 170.51 148.86 171.05 Z M 149.94 171.78 L 150.80 172.17 C 151.64 172.56 152.63 172.19 153.01 171.35 C 153.39 170.51 153.02 169.53 152.18 169.15 L 151.32 168.76 C 150.48 168.37 149.50 168.74 149.12 169.58 C 148.74 170.42 149.10 171.40 149.94 171.78 Z M 151.13 172.28 L 152.08 172.49 C 152.97 172.69 153.86 172.12 154.06 171.23 C 154.26 170.33 153.69 169.45 152.80 169.25 L 151.85 169.04 C 150.96 168.84 150.07 169.41 149.87 170.30 C 149.67 171.20 150.24 172.09 151.13 172.28 Z M 152.44 172.53 L 153.45 172.53 C 154.37 172.53 155.11 171.78 155.11 170.87 C 155.11 169.95 154.37 169.21 153.45 169.21 L 152.44 169.21 C 151.52 169.21 150.78 169.95 150.78 170.87 C 150.78 171.79 151.52 172.53 152.44 172.53 Z M 153.80 172.49 L 154.84 172.27 C 155.73 172.08 156.31 171.20 156.11 170.30 C 155.92 169.41 155.04 168.83 154.15 169.03 L 153.11 169.25 C 152.21 169.44 151.64 170.32 151.83 171.21 C 152.02 172.11 152.90 172.68 153.80 172.49 Z M 155.09 172.19 L 155.97 171.85 C 156.82 171.52 157.25 170.56 156.91 169.70 C 156.58 168.85 155.62 168.43 154.77 168.76 L 153.89 169.10 C 153.04 169.44 152.61 170.40 152.95 171.25 C 153.28 172.10 154.24 172.53 155.09 172.19 Z M 156.13 171.78 L 157.02 171.32 C 157.83 170.90 158.15 169.90 157.73 169.08 C 157.31 168.27 156.31 167.95 155.50 168.37 L 154.61 168.83 C 153.79 169.26 153.48 170.26 153.90 171.07 C 154.32 171.88 155.32 172.20 156.13 171.78 Z M 157.13 171.25 L 158.01 170.71 C 158.79 170.22 159.02 169.20 158.54 168.42 C 158.06 167.65 157.03 167.41 156.26 167.89 L 155.38 168.44 C 154.60 168.92 154.37 169.95 154.85 170.72 C 155.34 171.50 156.36 171.74 157.13 171.25 Z M 158.10 170.65 L 158.94 170.05 C 159.68 169.51 159.86 168.48 159.32 167.74 C 158.79 166.99 157.76 166.82 157.02 167.35 L 156.17 167.95 C 155.43 168.48 155.26 169.52 155.79 170.26 C 156.32 171.01 157.35 171.18 158.10 170.65 Z M 159.01 169.99 L 159.79 169.37 C 160.51 168.80 160.63 167.76 160.06 167.04 C 159.49 166.33 158.45 166.21 157.74 166.78 L 156.95 167.40 C 156.23 167.97 156.11 169.01 156.68 169.73 C 157.25 170.44 158.29 170.56 159.01 169.99 Z M 159.86 169.32 L 160.66 168.61 C 161.35 168.01 161.41 166.96 160.81 166.28 C 160.21 165.59 159.17 165.52 158.48 166.12 L 157.67 166.83 C 156.99 167.43 156.92 168.48 157.52 169.16 C 158.12 169.85 159.17 169.92 159.86 169.32 Z M 160.72 168.55 L 161.46 167.84 C 162.11 167.20 162.13 166.15 161.49 165.50 C 160.86 164.84 159.81 164.83 159.16 165.46 L 158.42 166.18 C 157.76 166.82 157.75 167.86 158.38 168.52 C 159.02 169.17 160.06 169.19 160.72 168.55 Z M 161.51 167.78 L 162.18 167.07 C 162.81 166.40 162.77 165.35 162.11 164.73 C 161.44 164.11 160.39 164.14 159.77 164.81 L 159.10 165.52 C 158.48 166.19 158.51 167.23 159.18 167.86 C 159.84 168.48 160.89 168.45 161.51 167.78 Z M 162.23 167.02 L 162.85 166.30 C 163.45 165.61 163.37 164.56 162.68 163.96 C 161.99 163.37 160.95 163.44 160.35 164.13 L 159.73 164.85 C 159.13 165.54 159.20 166.59 159.89 167.19 C 160.58 167.78 161.63 167.71 162.23 167.02 Z M 162.88 166.26 L 163.48 165.52 C 164.06 164.82 163.96 163.78 163.25 163.20 C 162.54 162.62 161.50 162.72 160.93 163.43 L 160.32 164.17 C 159.74 164.87 159.85 165.92 160.55 166.49 C 161.26 167.07 162.30 166.97 162.88 166.26 Z M 163.50 165.50 L 164.09 164.76 C 164.66 164.04 164.54 163.00 163.82 162.43 C 163.10 161.87 162.06 161.99 161.50 162.71 L 160.91 163.45 C 160.34 164.17 160.46 165.21 161.18 165.77 C 161.90 166.34 162.94 166.22 163.50 165.50 Z M 164.11 164.73 L 164.70 163.96 C 165.26 163.23 165.12 162.20 164.39 161.64 C 163.67 161.09 162.63 161.23 162.08 161.95 L 161.48 162.73 C 160.93 163.45 161.07 164.49 161.79 165.04 C 162.52 165.60 163.55 165.46 164.11 164.73 Z M 164.72 163.94 L 165.31 163.13 C 165.86 162.40 165.70 161.36 164.97 160.82 C 164.24 160.28 163.20 160.43 162.66 161.16 L 162.06 161.97 C 161.52 162.70 161.67 163.74 162.40 164.28 C 163.14 164.83 164.17 164.67 164.72 163.94 Z M 165.33 163.11 L 165.94 162.27 C 166.47 161.53 166.30 160.50 165.56 159.96 C 164.82 159.43 163.79 159.60 163.25 160.34 L 162.65 161.18 C 162.11 161.92 162.28 162.96 163.02 163.49 C 163.76 164.02 164.80 163.85 165.33 163.11 Z M 165.95 162.25 L 166.53 161.42 C 167.05 160.67 166.87 159.64 166.12 159.12 C 165.38 158.59 164.35 158.77 163.82 159.52 L 163.24 160.36 C 162.72 161.10 162.90 162.13 163.65 162.66 C 164.39 163.18 165.42 163.00 165.95 162.25 Z M 166.54 161.40 L 167.10 160.59 C 167.61 159.83 167.41 158.81 166.66 158.29 C 165.91 157.78 164.88 157.97 164.36 158.73 L 163.81 159.54 C 163.30 160.29 163.49 161.32 164.25 161.83 C 165.00 162.35 166.03 162.15 166.54 161.40 Z M 167.11 160.57 L 167.66 159.74 C 168.16 158.98 167.95 157.95 167.19 157.45 C 166.43 156.94 165.41 157.15 164.91 157.91 L 164.35 158.75 C 163.85 159.51 164.06 160.53 164.82 161.04 C 165.58 161.54 166.60 161.33 167.11 160.57 Z M 167.67 159.72 L 168.22 158.86 C 168.71 158.10 168.49 157.08 167.72 156.58 C 166.95 156.09 165.93 156.31 165.44 157.08 L 164.89 157.93 C 164.40 158.70 164.62 159.72 165.39 160.21 C 166.16 160.71 167.18 160.48 167.67 159.72 Z M 168.23 158.84 L 168.77 157.98 C 169.25 157.20 169.01 156.19 168.23 155.71 C 167.46 155.23 166.44 155.46 165.96 156.24 L 165.43 157.10 C 164.94 157.88 165.18 158.90 165.96 159.38 C 166.73 159.86 167.75 159.62 168.23 158.84 Z M 168.78 157.95 L 169.30 157.09 C 169.77 156.30 169.51 155.29 168.72 154.82 C 167.94 154.36 166.93 154.61 166.46 155.40 L 165.94 156.27 C 165.48 157.05 165.74 158.06 166.52 158.53 C 167.30 158.99 168.32 158.74 168.78 157.95 Z M 169.32 157.06 L 169.81 156.19 C 170.26 155.39 169.98 154.39 169.19 153.93 C 168.40 153.48 167.39 153.76 166.94 154.55 L 166.45 155.43 C 166.00 156.22 166.27 157.23 167.06 157.68 C 167.86 158.13 168.86 157.85 169.32 157.06 Z M 169.83 156.16 L 170.30 155.28 C 170.74 154.48 170.44 153.48 169.64 153.04 C 168.84 152.61 167.84 152.91 167.40 153.71 L 166.93 154.58 C 166.49 155.38 166.79 156.39 167.59 156.82 C 168.39 157.25 169.39 156.96 169.83 156.16 Z M 170.32 155.25 L 170.77 154.37 C 171.19 153.56 170.88 152.57 170.07 152.15 C 169.26 151.73 168.26 152.04 167.84 152.85 L 167.39 153.74 C 166.97 154.54 167.28 155.54 168.09 155.96 C 168.90 156.38 169.90 156.06 170.32 155.25 Z M 170.79 154.34 L 171.23 153.45 C 171.63 152.63 171.30 151.64 170.48 151.24 C 169.67 150.83 168.68 151.17 168.27 151.99 L 167.83 152.88 C 167.43 153.70 167.76 154.69 168.58 155.09 C 169.39 155.49 170.38 155.16 170.79 154.34 Z M 171.24 153.42 L 171.67 152.51 C 172.06 151.69 171.71 150.71 170.89 150.32 C 170.06 149.93 169.08 150.28 168.69 151.10 L 168.26 152.01 C 167.87 152.83 168.22 153.82 169.05 154.21 C 169.87 154.60 170.85 154.24 171.24 153.42 Z M 171.68 152.49 L 172.09 151.59 C 172.47 150.76 172.10 149.78 171.27 149.40 C 170.44 149.03 169.47 149.40 169.09 150.22 L 168.68 151.13 C 168.30 151.96 168.67 152.93 169.50 153.31 C 170.33 153.68 171.31 153.32 171.68 152.49 Z M 172.10 151.56 L 172.50 150.65 C 172.86 149.82 172.48 148.85 171.65 148.48 C 170.81 148.12 169.84 148.50 169.48 149.34 L 169.08 150.25 C 168.72 151.08 169.10 152.05 169.93 152.42 C 170.77 152.78 171.74 152.40 172.10 151.56 Z M 172.51 150.63 L 172.89 149.71 C 173.25 148.87 172.85 147.90 172.01 147.55 C 171.17 147.20 170.21 147.59 169.86 148.43 L 169.47 149.36 C 169.12 150.20 169.51 151.16 170.35 151.51 C 171.19 151.86 172.16 151.47 172.51 150.63 Z M 172.90 149.69 L 173.28 148.75 C 173.62 147.91 173.21 146.95 172.37 146.61 C 171.52 146.27 170.57 146.68 170.23 147.52 L 169.85 148.45 C 169.51 149.30 169.92 150.26 170.76 150.60 C 171.60 150.94 172.56 150.53 172.90 149.69 Z M 173.28 148.73 L 173.65 147.79 C 173.98 146.95 173.56 145.99 172.71 145.67 C 171.86 145.34 170.91 145.76 170.58 146.60 L 170.22 147.54 C 169.89 148.39 170.31 149.34 171.16 149.67 C 172.00 150.00 172.96 149.58 173.28 148.73 Z M 173.66 147.78 L 174.01 146.83 C 174.33 145.98 173.89 145.04 173.04 144.72 C 172.19 144.40 171.25 144.83 170.93 145.68 L 170.58 146.62 C 170.26 147.47 170.69 148.42 171.54 148.74 C 172.39 149.06 173.34 148.63 173.66 147.78 Z M 174.01 146.81 L 174.36 145.87 C 174.66 145.01 174.22 144.07 173.36 143.76 C 172.51 143.46 171.57 143.90 171.26 144.75 L 170.92 145.70 C 170.61 146.56 171.06 147.50 171.91 147.80 C 172.77 148.11 173.71 147.67 174.01 146.81 Z M 174.36 145.85 L 174.69 144.90 C 174.98 144.04 174.53 143.11 173.67 142.81 C 172.81 142.51 171.88 142.97 171.58 143.83 L 171.25 144.78 C 170.96 145.63 171.42 146.57 172.27 146.86 C 173.13 147.16 174.07 146.70 174.36 145.85 Z M 174.70 144.87 L 175.01 143.92 C 175.29 143.06 174.82 142.14 173.96 141.85 C 173.09 141.57 172.17 142.04 171.88 142.90 L 171.57 143.85 C 171.29 144.71 171.76 145.64 172.62 145.92 C 173.49 146.21 174.41 145.74 174.70 144.87 Z M 175.01 143.90 L 175.31 142.95 C 175.58 142.08 175.09 141.16 174.22 140.89 C 173.36 140.63 172.44 141.11 172.17 141.98 L 171.88 142.93 C 171.61 143.80 172.09 144.71 172.96 144.98 C 173.83 145.25 174.75 144.77 175.01 143.90 Z M 175.32 142.92 L 175.59 141.96 C 175.85 141.09 175.35 140.18 174.47 139.93 C 173.60 139.68 172.69 140.18 172.44 141.05 L 172.16 142.00 C 171.91 142.87 172.41 143.79 173.28 144.04 C 174.15 144.29 175.06 143.79 175.32 142.92 Z M 175.60 141.94 L 175.86 140.96 C 176.10 140.09 175.58 139.19 174.71 138.95 C 173.84 138.71 172.93 139.23 172.70 140.10 L 172.43 141.08 C 172.20 141.95 172.71 142.85 173.59 143.09 C 174.46 143.33 175.36 142.81 175.60 141.94 Z M 175.87 140.93 L 176.12 139.95 C 176.34 139.08 175.81 138.18 174.93 137.96 C 174.05 137.74 173.16 138.28 172.94 139.15 L 172.69 140.13 C 172.47 141.01 173.00 141.90 173.88 142.12 C 174.76 142.34 175.65 141.81 175.87 140.93 Z M 176.12 139.93 L 176.35 138.95 C 176.56 138.07 176.01 137.18 175.13 136.98 C 174.24 136.77 173.36 137.32 173.16 138.20 L 172.93 139.18 C 172.72 140.06 173.27 140.95 174.16 141.15 C 175.04 141.36 175.92 140.81 176.12 139.93 Z M 176.36 138.92 L 176.57 137.94 C 176.76 137.06 176.19 136.19 175.31 136.00 C 174.42 135.81 173.55 136.37 173.36 137.26 L 173.15 138.23 C 172.96 139.12 173.53 139.99 174.41 140.18 C 175.30 140.37 176.17 139.81 176.36 138.92 Z M 176.57 137.92 L 176.76 136.95 C 176.94 136.06 176.36 135.20 175.47 135.02 C 174.58 134.85 173.72 135.43 173.55 136.31 L 173.36 137.28 C 173.18 138.17 173.76 139.03 174.65 139.21 C 175.54 139.38 176.40 138.81 176.57 137.92 Z M 176.77 136.92 L 176.94 135.94 C 177.10 135.05 176.51 134.20 175.62 134.04 C 174.73 133.88 173.88 134.48 173.72 135.37 L 173.54 136.34 C 173.38 137.23 173.97 138.08 174.87 138.24 C 175.76 138.40 176.61 137.81 176.77 136.92 Z M 176.95 135.92 L 177.11 134.94 C 177.25 134.04 176.64 133.20 175.75 133.06 C 174.85 132.91 174.01 133.52 173.87 134.41 L 173.71 135.40 C 173.57 136.29 174.17 137.13 175.07 137.27 C 175.96 137.42 176.80 136.81 176.95 135.92 Z M 177.11 134.91 L 177.25 133.93 C 177.38 133.03 176.75 132.20 175.86 132.07 C 174.96 131.94 174.13 132.57 174.00 133.46 L 173.86 134.44 C 173.74 135.34 174.36 136.17 175.26 136.30 C 176.15 136.43 176.98 135.80 177.11 134.91 Z M 177.25 133.90 L 177.38 132.91 C 177.49 132.01 176.85 131.19 175.95 131.08 C 175.05 130.97 174.24 131.61 174.12 132.50 L 174.00 133.49 C 173.89 134.39 174.53 135.21 175.42 135.32 C 176.32 135.43 177.14 134.79 177.25 133.90 Z M 177.38 132.88 L 177.49 131.88 C 177.58 130.98 176.93 130.17 176.03 130.08 C 175.13 129.98 174.32 130.63 174.23 131.53 L 174.12 132.53 C 174.02 133.43 174.68 134.24 175.58 134.34 C 176.48 134.43 177.28 133.78 177.38 132.88 Z M 177.49 131.85 L 177.58 130.84 C 177.66 129.94 177.00 129.14 176.09 129.06 C 175.19 128.98 174.40 129.65 174.32 130.55 L 174.23 131.56 C 174.14 132.46 174.81 133.26 175.71 133.34 C 176.61 133.42 177.41 132.75 177.49 131.85 Z M 177.58 130.82 L 177.66 129.80 C 177.72 128.90 177.05 128.12 176.15 128.05 C 175.24 127.98 174.46 128.66 174.39 129.56 L 174.31 130.57 C 174.25 131.47 174.92 132.26 175.83 132.33 C 176.73 132.39 177.51 131.72 177.58 130.82 Z M 177.66 129.78 L 177.72 128.76 C 177.78 127.86 177.09 127.09 176.19 127.03 C 175.29 126.97 174.51 127.66 174.45 128.56 L 174.39 129.58 C 174.33 130.48 175.02 131.26 175.92 131.32 C 176.83 131.37 177.60 130.69 177.66 129.78 Z M 177.72 128.75 L 177.77 127.73 C 177.82 126.83 177.12 126.06 176.22 126.02 C 175.32 125.97 174.55 126.67 174.50 127.57 L 174.45 128.58 C 174.41 129.48 175.10 130.25 176.00 130.30 C 176.91 130.34 177.68 129.65 177.72 128.75 Z M 177.77 127.72 L 177.81 126.73 C 177.85 125.82 177.15 125.06 176.24 125.02 C 175.34 124.99 174.58 125.69 174.54 126.59 L 174.50 127.59 C 174.47 128.49 175.17 129.25 176.07 129.29 C 176.97 129.32 177.74 128.62 177.77 127.72 Z M 177.81 126.71 L 177.84 125.75 C 177.87 124.85 177.16 124.09 176.26 124.06 C 175.36 124.03 174.60 124.74 174.57 125.65 L 174.54 126.61 C 174.51 127.51 175.22 128.27 176.13 128.29 C 177.03 128.32 177.79 127.61 177.81 126.71 Z M 177.84 125.73 L 177.87 124.66 C 177.88 123.76 177.17 123.01 176.26 122.99 C 175.36 122.97 174.61 123.69 174.59 124.60 L 174.57 125.67 C 174.55 126.57 175.27 127.32 176.18 127.33 C 177.08 127.35 177.83 126.63 177.84 125.73 Z M 177.87 124.62 L 177.86 123.60 C 177.86 122.69 177.13 121.96 176.22 121.97 C 175.32 121.97 174.59 122.70 174.59 123.60 L 174.59 124.63 C 174.60 125.54 175.33 126.27 176.23 126.26 C 177.14 126.26 177.87 125.53 177.87 124.62 Z M 177.86 123.53 L 177.82 122.55 C 177.78 121.65 177.02 120.95 176.12 120.98 C 175.22 121.02 174.52 121.78 174.55 122.68 L 174.59 123.67 C 174.63 124.57 175.39 125.27 176.29 125.23 C 177.20 125.20 177.90 124.44 177.86 123.53 Z M 177.81 122.46 L 177.72 121.52 C 177.64 120.62 176.84 119.96 175.94 120.04 C 175.04 120.13 174.38 120.93 174.47 121.83 L 174.56 122.77 C 174.65 123.67 175.44 124.33 176.34 124.24 C 177.24 124.16 177.90 123.36 177.81 122.46 Z M 177.71 121.40 L 177.55 120.44 C 177.40 119.56 176.56 118.96 175.67 119.10 C 174.78 119.25 174.18 120.10 174.33 120.98 L 174.49 121.94 C 174.64 122.83 175.48 123.43 176.37 123.28 C 177.26 123.13 177.86 122.29 177.71 121.40 Z M 177.52 120.32 L 177.27 119.33 C 177.05 118.46 176.17 117.93 175.29 118.15 C 174.42 118.37 173.89 119.25 174.11 120.13 L 174.35 121.11 C 174.57 121.99 175.46 122.52 176.33 122.30 C 177.21 122.08 177.74 121.19 177.52 120.32 Z M 177.24 119.22 L 176.92 118.26 C 176.64 117.41 175.71 116.95 174.86 117.23 C 174.01 117.51 173.54 118.44 173.83 119.29 L 174.14 120.24 C 174.43 121.10 175.35 121.56 176.20 121.28 C 177.06 120.99 177.52 120.07 177.24 119.22 Z M 176.88 118.16 L 176.51 117.24 C 176.17 116.41 175.22 116.01 174.38 116.35 C 173.55 116.69 173.15 117.64 173.49 118.48 L 173.87 119.39 C 174.21 120.22 175.16 120.62 175.99 120.28 C 176.82 119.94 177.22 118.99 176.88 118.16 Z M 176.46 117.15 L 176.03 116.26 C 175.64 115.45 174.67 115.11 173.86 115.50 C 173.05 115.89 172.71 116.87 173.10 117.67 L 173.53 118.57 C 173.92 119.38 174.90 119.71 175.71 119.32 C 176.51 118.93 176.85 117.96 176.46 117.15 Z M 175.99 116.17 L 175.48 115.28 C 175.05 114.50 174.06 114.22 173.27 114.65 C 172.49 115.09 172.21 116.08 172.65 116.86 L 173.15 117.76 C 173.59 118.54 174.58 118.82 175.36 118.38 C 176.14 117.95 176.42 116.96 175.99 116.17 Z M 175.43 115.20 L 174.89 114.35 C 174.41 113.60 173.41 113.38 172.65 113.86 C 171.90 114.35 171.68 115.35 172.16 116.10 L 172.70 116.95 C 173.18 117.70 174.19 117.92 174.94 117.44 C 175.70 116.95 175.92 115.95 175.43 115.20 Z M 174.84 114.28 L 174.26 113.49 C 173.74 112.76 172.73 112.60 172.00 113.12 C 171.28 113.65 171.12 114.66 171.64 115.38 L 172.22 116.18 C 172.74 116.90 173.75 117.06 174.48 116.54 C 175.20 116.02 175.36 115.00 174.84 114.28 Z M 174.21 113.42 L 173.58 112.64 C 173.02 111.95 172.00 111.84 171.31 112.40 C 170.62 112.97 170.51 113.98 171.07 114.68 L 171.70 115.45 C 172.26 116.14 173.28 116.25 173.97 115.69 C 174.66 115.13 174.77 114.11 174.21 113.42 Z M 173.52 112.58 L 172.83 111.82 C 172.24 111.16 171.22 111.12 170.56 111.71 C 169.90 112.31 169.85 113.33 170.45 113.99 L 171.13 114.74 C 171.73 115.40 172.75 115.45 173.41 114.85 C 174.07 114.26 174.12 113.24 173.52 112.58 Z M 172.76 111.76 L 172.05 111.06 C 171.42 110.44 170.40 110.45 169.78 111.09 C 169.16 111.72 169.17 112.73 169.81 113.35 L 170.52 114.05 C 171.15 114.67 172.17 114.66 172.79 114.03 C 173.41 113.39 173.40 112.38 172.76 111.76 Z M 171.98 111.00 L 171.24 110.36 C 170.57 109.78 169.56 109.86 168.98 110.53 C 168.41 111.19 168.48 112.20 169.15 112.78 L 169.88 113.42 C 170.55 114.00 171.56 113.92 172.14 113.25 C 172.72 112.59 172.64 111.58 171.98 111.00 Z M 171.15 110.30 L 170.35 109.70 C 169.65 109.17 168.65 109.30 168.12 110.01 C 167.59 110.71 167.73 111.71 168.43 112.24 L 169.23 112.84 C 169.93 113.37 170.93 113.23 171.46 112.53 C 171.99 111.83 171.86 110.83 171.15 110.30 Z M 170.27 109.65 L 169.45 109.09 C 168.72 108.61 167.73 108.80 167.25 109.53 C 166.76 110.26 166.96 111.24 167.68 111.73 L 168.51 112.28 C 169.24 112.77 170.23 112.58 170.71 111.85 C 171.20 111.12 171.00 110.13 170.27 109.65 Z M 169.38 109.06 L 168.53 108.55 C 167.79 108.10 166.82 108.33 166.36 109.08 C 165.91 109.83 166.15 110.80 166.90 111.25 L 167.75 111.76 C 168.49 112.21 169.46 111.98 169.92 111.23 C 170.37 110.48 170.13 109.51 169.38 109.06 Z M 168.49 108.53 L 167.66 108.06 C 166.90 107.63 165.95 107.90 165.52 108.66 C 165.09 109.41 165.36 110.37 166.11 110.80 L 166.94 111.26 C 167.70 111.69 168.65 111.42 169.08 110.67 C 169.51 109.91 169.24 108.96 168.49 108.53 Z M 167.59 108.03 L 166.75 107.61 C 165.98 107.22 165.04 107.53 164.65 108.30 C 164.26 109.07 164.57 110.01 165.34 110.40 L 166.18 110.82 C 166.95 111.21 167.89 110.90 168.28 110.13 C 168.67 109.36 168.36 108.42 167.59 108.03 Z M 166.63 107.57 L 165.70 107.19 C 164.90 106.88 164.00 107.26 163.68 108.06 C 163.36 108.85 163.75 109.76 164.54 110.08 L 165.47 110.45 C 166.27 110.77 167.17 110.38 167.49 109.58 C 167.81 108.79 167.42 107.88 166.63 107.57 Z M 165.54 107.15 L 164.48 106.86 C 163.66 106.63 162.81 107.11 162.58 107.93 C 162.35 108.75 162.83 109.60 163.66 109.83 L 164.71 110.12 C 165.53 110.35 166.38 109.87 166.61 109.05 C 166.84 108.23 166.36 107.38 165.54 107.15 Z M 164.32 106.83 L 163.41 106.67 C 162.58 106.53 161.78 107.10 161.64 107.93 C 161.50 108.77 162.06 109.56 162.90 109.70 L 163.81 109.86 C 164.65 110.00 165.44 109.44 165.58 108.60 C 165.72 107.76 165.16 106.97 164.32 106.83 Z M 163.28 106.67 L 162.33 106.58 C 161.49 106.51 160.75 107.14 160.68 107.98 C 160.60 108.82 161.23 109.56 162.07 109.63 L 163.03 109.71 C 163.87 109.78 164.61 109.16 164.68 108.32 C 164.75 107.48 164.13 106.74 163.28 106.67 Z M 162.21 106.59 L 161.19 106.58 C 160.35 106.58 159.67 107.26 159.67 108.10 C 159.66 108.94 160.34 109.62 161.18 109.62 L 162.19 109.63 C 163.03 109.63 163.72 108.95 163.72 108.11 C 163.72 107.27 163.05 106.59 162.21 106.59 Z M 161.07 106.59 L 160.03 106.68 C 159.19 106.74 158.57 107.47 158.64 108.30 C 158.70 109.14 159.43 109.76 160.26 109.69 L 161.31 109.61 C 162.14 109.55 162.76 108.82 162.70 107.99 C 162.63 107.15 161.90 106.53 161.07 106.59 Z M 159.90 106.70 L 158.85 106.88 C 158.03 107.01 157.47 107.79 157.61 108.61 C 157.75 109.43 158.53 109.98 159.35 109.85 L 160.40 109.67 C 161.22 109.53 161.77 108.76 161.63 107.93 C 161.49 107.11 160.72 106.56 159.90 106.70 Z M 158.71 106.91 L 157.69 107.19 C 156.89 107.40 156.42 108.22 156.63 109.02 C 156.85 109.82 157.67 110.29 158.46 110.08 L 159.48 109.81 C 160.28 109.59 160.76 108.77 160.54 107.97 C 160.33 107.18 159.51 106.70 158.71 106.91 Z M 157.57 107.24 L 156.59 107.59 C 155.82 107.87 155.42 108.72 155.70 109.49 C 155.98 110.26 156.83 110.66 157.60 110.38 L 158.58 110.03 C 159.35 109.75 159.75 108.90 159.47 108.13 C 159.20 107.36 158.35 106.96 157.57 107.24 Z M 156.49 107.64 L 155.56 108.06 C 154.81 108.40 154.48 109.27 154.82 110.01 C 155.15 110.75 156.02 111.08 156.76 110.75 L 157.70 110.33 C 158.44 110.00 158.77 109.13 158.44 108.39 C 158.10 107.64 157.23 107.31 156.49 107.64 Z M 155.47 108.12 L 154.60 108.58 C 153.89 108.96 153.62 109.85 154.00 110.56 C 154.38 111.27 155.27 111.54 155.98 111.16 L 156.85 110.69 C 157.56 110.32 157.83 109.43 157.45 108.72 C 157.07 108.01 156.18 107.74 155.47 108.12 Z M 154.53 108.64 L 153.74 109.13 C 153.07 109.55 152.86 110.44 153.28 111.12 C 153.70 111.80 154.59 112.01 155.27 111.59 L 156.05 111.10 C 156.73 110.68 156.94 109.78 156.52 109.11 C 156.10 108.43 155.21 108.22 154.53 108.64 Z M 153.66 109.20 L 152.79 109.84 C 152.15 110.31 152.01 111.21 152.48 111.85 C 152.95 112.49 153.85 112.63 154.49 112.15 L 155.36 111.51 C 156.00 111.04 156.14 110.14 155.67 109.50 C 155.20 108.86 154.29 108.73 153.66 109.20 Z M 152.69 109.92 L 151.92 110.60 C 151.33 111.12 151.27 112.03 151.80 112.62 C 152.32 113.22 153.23 113.27 153.82 112.75 L 154.59 112.07 C 155.18 111.55 155.24 110.64 154.71 110.05 C 154.19 109.45 153.28 109.40 152.69 109.92 Z M 151.85 110.67 L 151.19 111.35 C 150.63 111.92 150.64 112.82 151.21 113.37 C 151.77 113.93 152.68 113.92 153.23 113.35 L 153.89 112.67 C 154.45 112.11 154.44 111.20 153.87 110.65 C 153.31 110.10 152.40 110.11 151.85 110.67 Z M 151.15 111.39 L 150.59 112.01 C 150.06 112.60 150.11 113.50 150.69 114.03 C 151.27 114.56 152.18 114.51 152.71 113.93 L 153.27 113.31 C 153.80 112.73 153.75 111.82 153.17 111.29 C 152.58 110.76 151.68 110.81 151.15 111.39 Z"
      fill="black"
      fill-rule="nonzero" /></svg>