<svg xmlns="http://www.w3.org/2000/svg" width="300" height="300" viewBox="0 0 300 300">
<path d="M 122.37 127.52 L 121.42 127.23 C 120.55 126.97 119.62 127.46 119.35 128.34 C 119.08 129.22 119.58 130.15 120.46 130.41 L 121.40 130.70 C 122.28 130.97 123.20 130.47 123.47 129.59 C 123.74 128.72 123.25 127.79 122.37 127.52 Z M 121.40 127.22 L 120.45 126.95 C 119.56 126.70 118.64 127.21 118.39 128.09 C 118.13 128.97 118.64 129.90 119.53 130.15 L 120.48 130.42 C 121.36 130.68 122.29 130.17 122.54 129.28 C 122.79 128.40 122.28 127.48 121.40 127.22 Z M 120.39 126.93 L 119.42 126.69 C 118.53 126.46 117.62 127.00 117.39 127.89 C 117.17 128.79 117.71 129.69 118.60 129.92 L 119.58 130.17 C 120.47 130.39 121.38 129.85 121.60 128.96 C 121.83 128.07 121.29 127.16 120.39 126.93 Z M 119.35 126.66 L 118.35 126.46 C 117.44 126.27 116.56 126.86 116.37 127.76 C 116.19 128.67 116.77 129.55 117.68 129.74 L 118.68 129.94 C 119.58 130.13 120.46 129.54 120.65 128.64 C 120.83 127.73 120.25 126.85 119.35 126.66 Z M 118.26 126.43 L 117.25 126.28 C 116.33 126.14 115.48 126.77 115.34 127.69 C 115.20 128.61 115.83 129.47 116.75 129.61 L 117.76 129.76 C 118.68 129.90 119.54 129.27 119.68 128.35 C 119.82 127.43 119.18 126.57 118.26 126.43 Z M 117.17 126.25 L 116.16 126.15 C 115.22 126.06 114.39 126.75 114.30 127.68 C 114.21 128.62 114.89 129.45 115.83 129.54 L 116.84 129.64 C 117.77 129.73 118.61 129.05 118.70 128.11 C 118.79 127.18 118.10 126.34 117.17 126.25 Z M 116.06 126.13 L 115.08 126.09 C 114.13 126.05 113.33 126.79 113.29 127.74 C 113.25 128.69 113.99 129.49 114.94 129.53 L 115.92 129.57 C 116.87 129.61 117.68 128.87 117.71 127.92 C 117.75 126.97 117.01 126.17 116.06 126.13 Z M 114.95 126.07 L 113.80 126.11 C 112.84 126.15 112.09 126.96 112.13 127.92 C 112.17 128.88 112.97 129.62 113.93 129.59 L 115.08 129.54 C 116.04 129.51 116.79 128.70 116.75 127.74 C 116.71 126.78 115.91 126.03 114.95 126.07 Z M 113.49 126.14 L 112.46 126.37 C 111.51 126.58 110.91 127.51 111.12 128.46 C 111.33 129.40 112.27 130.00 113.21 129.79 L 114.24 129.56 C 115.19 129.35 115.79 128.42 115.58 127.47 C 115.37 126.53 114.43 125.93 113.49 126.14 Z M 111.60 126.82 L 111.09 127.32 C 110.39 128.00 110.37 129.11 111.05 129.81 C 111.73 130.51 112.85 130.53 113.55 129.85 L 114.07 129.34 C 114.76 128.66 114.78 127.55 114.10 126.85 C 113.42 126.15 112.30 126.13 111.60 126.82 Z M 110.57 128.87 L 110.68 129.54 C 110.84 130.51 111.75 131.16 112.71 131.00 C 113.68 130.85 114.34 129.93 114.18 128.97 L 114.07 128.30 C 113.91 127.33 113.00 126.67 112.03 126.83 C 111.07 126.99 110.41 127.90 110.57 128.87 Z M 110.97 130.27 L 111.54 131.07 C 112.10 131.88 113.20 132.07 114.00 131.51 C 114.81 130.95 115.00 129.85 114.44 129.04 L 113.88 128.24 C 113.32 127.44 112.22 127.24 111.41 127.80 C 110.61 128.36 110.41 129.47 110.97 130.27 Z M 111.81 131.39 L 112.74 132.20 C 113.47 132.85 114.59 132.78 115.24 132.05 C 115.89 131.32 115.82 130.20 115.09 129.55 L 114.17 128.73 C 113.43 128.08 112.31 128.15 111.66 128.88 C 111.01 129.62 111.08 130.74 111.81 131.39 Z M 112.97 132.38 L 113.84 132.93 C 114.67 133.45 115.76 133.20 116.29 132.37 C 116.81 131.54 116.56 130.44 115.73 129.92 L 114.86 129.37 C 114.03 128.85 112.93 129.10 112.41 129.93 C 111.89 130.76 112.14 131.85 112.97 132.38 Z M 114.00 133.01 L 114.90 133.46 C 115.78 133.90 116.85 133.54 117.28 132.66 C 117.72 131.78 117.35 130.71 116.48 130.28 L 115.57 129.83 C 114.69 129.40 113.63 129.76 113.19 130.64 C 112.76 131.52 113.12 132.58 114.00 133.01 Z M 115.02 133.51 L 115.97 133.90 C 116.87 134.27 117.91 133.84 118.28 132.93 C 118.65 132.03 118.22 130.99 117.31 130.62 L 116.36 130.23 C 115.46 129.86 114.42 130.29 114.05 131.20 C 113.68 132.10 114.11 133.14 115.02 133.51 Z M 116.05 133.93 L 117.00 134.27 C 117.92 134.60 118.94 134.11 119.26 133.19 C 119.59 132.26 119.11 131.25 118.18 130.92 L 117.23 130.59 C 116.31 130.26 115.29 130.74 114.97 131.67 C 114.64 132.59 115.12 133.61 116.05 133.93 Z M 117.06 134.29 L 118.02 134.59 C 118.96 134.89 119.96 134.37 120.25 133.44 C 120.55 132.50 120.03 131.51 119.09 131.21 L 118.13 130.90 C 117.19 130.61 116.19 131.13 115.90 132.06 C 115.60 133.00 116.12 133.99 117.06 134.29 Z M 118.07 134.61 L 119.08 134.90 C 120.02 135.16 121.00 134.62 121.27 133.68 C 121.54 132.74 120.99 131.75 120.05 131.48 L 119.05 131.20 C 118.10 130.93 117.12 131.47 116.85 132.41 C 116.58 133.36 117.13 134.34 118.07 134.61 Z M 119.12 134.91 L 120.07 135.15 C 121.02 135.40 121.99 134.83 122.23 133.88 C 122.47 132.93 121.90 131.96 120.96 131.72 L 120.01 131.47 C 119.06 131.23 118.09 131.80 117.85 132.75 C 117.60 133.69 118.17 134.66 119.12 134.91 Z M 120.10 135.16 L 121.03 135.38 C 121.98 135.61 122.94 135.02 123.17 134.06 C 123.39 133.11 122.80 132.16 121.85 131.93 L 120.92 131.71 C 119.97 131.48 119.01 132.07 118.79 133.03 C 118.56 133.98 119.15 134.93 120.10 135.16 Z M 121.05 135.38 L 121.97 135.59 C 122.93 135.81 123.88 135.21 124.09 134.25 C 124.31 133.30 123.71 132.35 122.75 132.13 L 121.83 131.93 C 120.88 131.71 119.93 132.31 119.71 133.26 C 119.50 134.22 120.10 135.17 121.05 135.38 Z M 121.98 135.59 L 122.92 135.80 C 123.88 136.01 124.82 135.40 125.03 134.45 C 125.24 133.49 124.64 132.55 123.68 132.34 L 122.74 132.13 C 121.78 131.92 120.84 132.53 120.63 133.49 C 120.42 134.44 121.03 135.39 121.98 135.59 Z M 122.94 135.80 L 123.92 136.01 C 124.88 136.21 125.82 135.59 126.02 134.64 C 126.22 133.68 125.60 132.74 124.64 132.54 L 123.66 132.33 C 122.71 132.13 121.77 132.75 121.57 133.71 C 121.37 134.66 121.98 135.60 122.94 135.80 Z M 123.94 136.01 L 124.97 136.22 C 125.93 136.41 126.86 135.78 127.05 134.82 C 127.24 133.86 126.62 132.93 125.66 132.74 L 124.63 132.54 C 123.67 132.34 122.74 132.97 122.54 133.93 C 122.35 134.89 122.98 135.82 123.94 136.01 Z M 124.98 136.22 L 125.96 136.40 C 126.92 136.58 127.85 135.95 128.03 134.99 C 128.21 134.03 127.58 133.10 126.62 132.92 L 125.64 132.74 C 124.68 132.56 123.75 133.19 123.57 134.15 C 123.39 135.11 124.02 136.04 124.98 136.22 Z M 125.98 136.41 L 126.95 136.58 C 127.92 136.75 128.84 136.11 129.01 135.15 C 129.18 134.18 128.54 133.26 127.57 133.09 L 126.60 132.92 C 125.64 132.75 124.72 133.39 124.55 134.35 C 124.38 135.31 125.02 136.23 125.98 136.41 Z M 126.97 136.58 L 127.97 136.75 C 128.93 136.91 129.85 136.26 130.01 135.29 C 130.17 134.33 129.52 133.41 128.55 133.25 L 127.55 133.09 C 126.59 132.93 125.68 133.58 125.52 134.54 C 125.36 135.51 126.01 136.42 126.97 136.58 Z M 127.99 136.75 L 129.00 136.90 C 129.97 137.05 130.87 136.39 131.02 135.42 C 131.17 134.46 130.50 133.55 129.53 133.40 L 128.53 133.25 C 127.56 133.10 126.66 133.77 126.51 134.73 C 126.36 135.70 127.03 136.60 127.99 136.75 Z M 129.03 136.91 L 130.03 137.05 C 131.00 137.18 131.89 136.50 132.02 135.53 C 132.16 134.56 131.48 133.67 130.51 133.54 L 129.51 133.40 C 128.54 133.27 127.65 133.95 127.51 134.91 C 127.38 135.88 128.06 136.78 129.03 136.91 Z M 130.06 137.05 L 131.05 137.17 C 132.02 137.29 132.90 136.59 133.02 135.62 C 133.14 134.65 132.45 133.77 131.47 133.65 L 130.48 133.54 C 129.51 133.42 128.63 134.11 128.51 135.08 C 128.40 136.05 129.09 136.93 130.06 137.05 Z M 131.07 137.17 L 132.06 137.28 C 133.03 137.38 133.90 136.68 134.01 135.71 C 134.11 134.74 133.41 133.87 132.44 133.76 L 131.45 133.65 C 130.48 133.55 129.61 134.25 129.50 135.22 C 129.40 136.19 130.10 137.07 131.07 137.17 Z M 132.07 137.28 L 133.06 137.38 C 134.03 137.48 134.90 136.77 135.00 135.80 C 135.10 134.83 134.39 133.96 133.42 133.86 L 132.43 133.76 C 131.46 133.66 130.59 134.37 130.49 135.34 C 130.39 136.31 131.10 137.18 132.07 137.28 Z M 133.07 137.38 L 134.07 137.48 C 135.04 137.58 135.91 136.87 136.00 135.89 C 136.10 134.92 135.39 134.06 134.42 133.96 L 133.42 133.86 C 132.44 133.76 131.58 134.47 131.48 135.44 C 131.38 136.42 132.09 137.28 133.07 137.38 Z M 134.06 137.48 L 135.05 137.58 C 136.02 137.68 136.89 136.97 136.99 136.00 C 137.08 135.03 136.38 134.16 135.41 134.06 L 134.42 133.96 C 133.45 133.86 132.58 134.57 132.48 135.54 C 132.38 136.51 133.09 137.38 134.06 137.48 Z M 135.04 137.58 L 136.03 137.68 C 137.00 137.78 137.87 137.08 137.97 136.11 C 138.07 135.13 137.37 134.26 136.39 134.16 L 135.41 134.06 C 134.44 133.96 133.57 134.67 133.47 135.64 C 133.37 136.61 134.07 137.48 135.04 137.58 Z M 136.03 137.68 L 137.03 137.78 C 138.00 137.88 138.87 137.18 138.97 136.20 C 139.07 135.23 138.36 134.36 137.39 134.26 L 136.39 134.16 C 135.42 134.06 134.55 134.77 134.45 135.74 C 134.35 136.71 135.06 137.58 136.03 137.68 Z M 137.04 137.78 L 138.04 137.88 C 139.02 137.98 139.88 137.26 139.97 136.29 C 140.07 135.32 139.36 134.46 138.38 134.36 L 137.38 134.26 C 136.41 134.17 135.54 134.88 135.45 135.85 C 135.35 136.83 136.07 137.69 137.04 137.78 Z M 138.06 137.88 L 139.07 137.97 C 140.04 138.06 140.90 137.34 140.98 136.37 C 141.07 135.39 140.35 134.54 139.38 134.45 L 138.37 134.36 C 137.40 134.27 136.54 134.99 136.45 135.97 C 136.37 136.94 137.08 137.80 138.06 137.88 Z M 139.08 137.97 L 140.09 138.05 C 141.06 138.13 141.91 137.40 141.99 136.43 C 142.06 135.45 141.34 134.60 140.36 134.53 L 139.36 134.45 C 138.39 134.37 137.53 135.10 137.46 136.07 C 137.38 137.05 138.11 137.90 139.08 137.97 Z M 140.10 138.05 L 141.10 138.12 C 142.08 138.19 142.92 137.45 142.99 136.48 C 143.06 135.50 142.32 134.66 141.35 134.59 L 140.35 134.52 C 139.37 134.46 138.53 135.19 138.46 136.17 C 138.39 137.14 139.13 137.99 140.10 138.05 Z M 141.12 138.12 L 142.11 138.19 C 143.09 138.25 143.93 137.50 143.99 136.53 C 144.05 135.55 143.31 134.71 142.33 134.65 L 141.34 134.59 C 140.36 134.53 139.52 135.27 139.46 136.25 C 139.40 137.22 140.14 138.06 141.12 138.12 Z M 142.12 138.19 L 143.12 138.24 C 144.09 138.30 144.93 137.56 144.98 136.58 C 145.04 135.60 144.30 134.77 143.32 134.71 L 142.33 134.65 C 141.35 134.60 140.51 135.34 140.46 136.32 C 140.40 137.29 141.15 138.13 142.12 138.19 Z M 143.12 138.24 L 144.11 138.30 C 145.09 138.35 145.92 137.61 145.98 136.63 C 146.03 135.66 145.29 134.82 144.31 134.77 L 143.32 134.71 C 142.34 134.66 141.51 135.40 141.45 136.38 C 141.40 137.35 142.14 138.19 143.12 138.24 Z M 144.11 138.30 L 145.10 138.36 C 146.08 138.41 146.91 137.66 146.97 136.69 C 147.02 135.71 146.28 134.88 145.30 134.82 L 144.31 134.77 C 143.33 134.71 142.50 135.46 142.44 136.43 C 142.39 137.41 143.14 138.24 144.11 138.30 Z M 145.11 138.36 L 146.10 138.41 C 147.07 138.46 147.91 137.71 147.96 136.74 C 148.01 135.76 147.26 134.93 146.29 134.88 L 145.30 134.82 C 144.32 134.77 143.49 135.52 143.43 136.49 C 143.38 137.47 144.13 138.30 145.11 138.36 Z M 146.10 138.41 L 147.10 138.46 C 148.07 138.51 148.91 137.76 148.96 136.78 C 149.01 135.81 148.26 134.98 147.28 134.93 L 146.28 134.88 C 145.31 134.83 144.48 135.58 144.43 136.55 C 144.38 137.53 145.13 138.36 146.10 138.41 Z M 147.11 138.46 L 148.11 138.51 C 149.09 138.55 149.92 137.80 149.96 136.82 C 150.01 135.85 149.26 135.02 148.28 134.97 L 147.27 134.93 C 146.30 134.88 145.47 135.64 145.42 136.61 C 145.38 137.59 146.13 138.42 147.11 138.46 Z M 148.12 138.51 L 149.11 138.55 C 150.09 138.59 150.91 137.83 150.95 136.85 C 150.99 135.88 150.23 135.05 149.25 135.01 L 148.27 134.97 C 147.29 134.93 146.47 135.69 146.43 136.67 C 146.39 137.65 147.15 138.47 148.12 138.51 Z M 149.12 138.55 L 150.09 138.58 C 151.06 138.62 151.89 137.86 151.92 136.88 C 151.95 135.90 151.19 135.08 150.21 135.05 L 149.24 135.01 C 148.27 134.98 147.45 135.74 147.41 136.72 C 147.38 137.70 148.14 138.52 149.12 138.55 Z M 150.10 138.59 L 151.08 138.62 C 152.06 138.65 152.88 137.88 152.91 136.90 C 152.94 135.92 152.17 135.11 151.19 135.08 L 150.21 135.05 C 149.23 135.02 148.41 135.78 148.38 136.76 C 148.35 137.74 149.12 138.55 150.10 138.59 Z M 151.09 138.62 L 152.10 138.64 C 153.07 138.67 153.89 137.90 153.92 136.92 C 153.94 135.95 153.17 135.13 152.20 135.11 L 151.19 135.08 C 150.21 135.05 149.40 135.82 149.37 136.80 C 149.34 137.77 150.11 138.59 151.09 138.62 Z M 152.10 138.64 L 153.13 138.67 C 154.11 138.70 154.92 137.92 154.95 136.95 C 154.97 135.97 154.20 135.16 153.22 135.13 L 152.19 135.10 C 151.21 135.08 150.40 135.85 150.38 136.83 C 150.35 137.81 151.12 138.62 152.10 138.64 Z M 153.13 138.67 L 154.16 138.70 C 155.14 138.72 155.95 137.95 155.97 136.97 C 156.00 135.99 155.22 135.18 154.25 135.16 L 153.22 135.13 C 152.24 135.11 151.43 135.88 151.41 136.86 C 151.38 137.84 152.15 138.65 153.13 138.67 Z M 154.16 138.70 L 155.17 138.72 C 156.14 138.75 156.96 137.97 156.98 136.99 C 157.00 136.02 156.23 135.20 155.25 135.18 L 154.24 135.16 C 153.27 135.13 152.45 135.91 152.43 136.88 C 152.41 137.86 153.18 138.67 154.16 138.70 Z M 155.17 138.72 L 156.18 138.75 C 157.16 138.77 157.97 138.00 158.00 137.02 C 158.02 136.04 157.25 135.23 156.27 135.20 L 155.25 135.18 C 154.27 135.15 153.46 135.93 153.44 136.91 C 153.41 137.89 154.19 138.70 155.17 138.72 Z M 156.18 138.75 L 157.19 138.78 C 158.17 138.80 158.99 138.02 159.01 137.04 C 159.03 136.06 158.26 135.25 157.28 135.23 L 156.27 135.20 C 155.29 135.18 154.47 135.95 154.45 136.93 C 154.43 137.91 155.20 138.73 156.18 138.75 Z M 157.19 138.78 L 158.19 138.80 C 159.17 138.83 159.98 138.05 160.01 137.07 C 160.03 136.09 159.25 135.27 158.27 135.25 L 157.28 135.22 C 156.30 135.20 155.48 135.98 155.46 136.96 C 155.43 137.94 156.21 138.75 157.19 138.78 Z M 158.18 138.80 L 159.16 138.83 C 160.14 138.85 160.96 138.08 160.98 137.09 C 161.01 136.11 160.23 135.30 159.25 135.27 L 158.27 135.25 C 157.29 135.22 156.48 136.00 156.45 136.98 C 156.43 137.96 157.20 138.78 158.18 138.80 Z M 159.16 138.83 L 160.22 138.86 C 161.21 138.88 162.02 138.11 162.05 137.12 C 162.07 136.14 161.30 135.32 160.32 135.30 L 159.25 135.27 C 158.27 135.24 157.45 136.02 157.43 137.00 C 157.40 137.99 158.18 138.80 159.16 138.83 Z M 160.22 138.86 L 161.24 138.89 C 162.23 138.91 163.04 138.14 163.07 137.15 C 163.10 136.17 162.32 135.35 161.34 135.33 L 160.32 135.30 C 159.34 135.27 158.52 136.05 158.49 137.03 C 158.46 138.01 159.24 138.83 160.22 138.86 Z M 161.24 138.89 L 162.23 138.91 C 163.21 138.94 164.03 138.17 164.06 137.18 C 164.09 136.20 163.31 135.38 162.33 135.35 L 161.34 135.32 C 160.36 135.30 159.54 136.07 159.51 137.06 C 159.48 138.04 160.26 138.86 161.24 138.89 Z M 162.23 138.91 L 163.19 138.94 C 164.17 138.97 164.99 138.20 165.02 137.21 C 165.05 136.23 164.28 135.41 163.29 135.38 L 162.33 135.35 C 161.35 135.32 160.53 136.10 160.50 137.08 C 160.47 138.07 161.24 138.89 162.23 138.91 Z M 163.19 138.94 L 164.13 138.97 C 165.11 139.00 165.93 138.23 165.96 137.24 C 165.99 136.26 165.22 135.44 164.24 135.41 L 163.29 135.38 C 162.31 135.35 161.49 136.12 161.46 137.11 C 161.43 138.09 162.20 138.91 163.19 138.94 Z M 164.13 138.97 L 165.07 139.00 C 166.05 139.03 166.88 138.26 166.91 137.28 C 166.94 136.29 166.17 135.47 165.18 135.44 L 164.24 135.41 C 163.25 135.37 162.43 136.15 162.40 137.13 C 162.37 138.12 163.14 138.94 164.13 138.97 Z M 165.06 139.00 L 166.01 139.04 C 167.00 139.08 167.83 138.31 167.87 137.33 C 167.90 136.34 167.14 135.51 166.15 135.47 L 165.19 135.44 C 164.21 135.40 163.38 136.17 163.34 137.15 C 163.30 138.14 164.07 138.97 165.06 139.00 Z M 165.99 139.04 L 166.99 139.09 C 167.98 139.14 168.82 138.38 168.87 137.39 C 168.91 136.41 168.15 135.57 167.17 135.52 L 166.17 135.47 C 165.18 135.42 164.35 136.18 164.30 137.17 C 164.25 138.15 165.01 138.99 165.99 139.04 Z M 166.97 139.09 L 168.04 139.16 C 169.02 139.22 169.87 138.47 169.93 137.48 C 169.99 136.50 169.24 135.65 168.26 135.59 L 167.19 135.52 C 166.21 135.46 165.36 136.21 165.30 137.19 C 165.24 138.18 165.99 139.03 166.97 139.09 Z M 168.01 139.16 L 169.04 139.23 C 170.02 139.31 170.88 138.57 170.96 137.58 C 171.03 136.60 170.29 135.74 169.31 135.66 L 168.28 135.59 C 167.30 135.51 166.44 136.25 166.36 137.24 C 166.29 138.22 167.03 139.08 168.01 139.16 Z M 169.01 139.24 L 170.02 139.33 C 171.01 139.41 171.88 138.68 171.97 137.70 C 172.05 136.71 171.32 135.84 170.34 135.75 L 169.33 135.66 C 168.34 135.57 167.47 136.30 167.38 137.29 C 167.30 138.28 168.03 139.15 169.01 139.24 Z M 169.99 139.33 L 171.02 139.43 C 172.01 139.54 172.89 138.82 173.00 137.83 C 173.10 136.84 172.38 135.96 171.39 135.85 L 170.36 135.75 C 169.37 135.64 168.49 136.36 168.39 137.35 C 168.28 138.34 169.00 139.23 169.99 139.33 Z M 170.99 139.44 L 172.01 139.56 C 173.00 139.68 173.90 138.98 174.02 137.99 C 174.14 137.00 173.44 136.10 172.45 135.98 L 171.43 135.85 C 170.44 135.73 169.54 136.44 169.42 137.43 C 169.29 138.41 170.00 139.32 170.99 139.44 Z M 171.97 139.56 L 172.96 139.71 C 173.95 139.85 174.87 139.16 175.01 138.18 C 175.16 137.19 174.47 136.27 173.48 136.12 L 172.49 135.98 C 171.50 135.83 170.58 136.52 170.44 137.51 C 170.30 138.50 170.98 139.42 171.97 139.56 Z M 172.91 139.70 L 173.84 139.87 C 174.82 140.04 175.77 139.38 175.94 138.39 C 176.11 137.41 175.46 136.47 174.47 136.29 L 173.54 136.13 C 172.55 135.95 171.61 136.61 171.44 137.60 C 171.26 138.59 171.92 139.53 172.91 139.70 Z M 173.73 139.85 L 174.96 140.14 C 175.94 140.38 176.92 139.77 177.15 138.79 C 177.38 137.81 176.78 136.82 175.80 136.59 L 174.57 136.30 C 173.59 136.07 172.61 136.68 172.38 137.66 C 172.15 138.64 172.75 139.62 173.73 139.85 Z M 174.72 140.09 L 175.71 140.46 C 176.66 140.82 177.72 140.35 178.08 139.40 C 178.44 138.45 177.97 137.39 177.02 137.03 L 176.03 136.65 C 175.08 136.29 174.02 136.76 173.66 137.71 C 173.30 138.66 173.77 139.72 174.72 140.09 Z M 175.28 140.25 L 175.97 140.75 C 176.80 141.34 177.96 141.16 178.56 140.33 C 179.16 139.50 178.97 138.34 178.14 137.74 L 177.45 137.24 C 176.62 136.64 175.46 136.83 174.86 137.66 C 174.26 138.49 174.45 139.65 175.28 140.25 Z M 175.40 140.11 L 175.75 140.78 C 176.23 141.69 177.36 142.04 178.27 141.56 C 179.19 141.08 179.54 139.95 179.06 139.04 L 178.71 138.37 C 178.23 137.46 177.10 137.11 176.18 137.59 C 175.27 138.07 174.92 139.20 175.40 140.11 Z M 175.52 139.87 L 175.51 140.75 C 175.49 141.79 176.31 142.65 177.35 142.67 C 178.39 142.69 179.25 141.86 179.27 140.82 L 179.29 139.95 C 179.31 138.91 178.48 138.05 177.44 138.03 C 176.40 138.01 175.54 138.84 175.52 139.87 Z M 175.59 140.18 L 175.27 141.15 C 174.93 142.14 175.46 143.21 176.45 143.55 C 177.44 143.88 178.52 143.35 178.85 142.36 L 179.18 141.40 C 179.52 140.41 178.99 139.33 178.00 138.99 C 177.00 138.66 175.93 139.19 175.59 140.18 Z M 175.40 140.81 L 174.86 141.76 C 174.34 142.68 174.66 143.84 175.58 144.36 C 176.49 144.88 177.66 144.56 178.18 143.65 L 178.72 142.70 C 179.24 141.78 178.92 140.62 178.00 140.10 C 177.09 139.58 175.92 139.90 175.40 140.81 Z M 175.01 141.52 L 174.38 142.33 C 173.73 143.16 173.88 144.37 174.71 145.02 C 175.55 145.67 176.75 145.52 177.40 144.69 L 178.03 143.88 C 178.68 143.05 178.53 141.85 177.70 141.19 C 176.87 140.54 175.66 140.69 175.01 141.52 Z M 174.53 142.16 L 173.84 142.85 C 173.10 143.60 173.10 144.81 173.85 145.56 C 174.60 146.31 175.81 146.31 176.56 145.56 L 177.25 144.86 C 178.00 144.11 178.00 142.90 177.25 142.15 C 176.50 141.40 175.28 141.40 174.53 142.16 Z M 173.96 142.74 L 173.20 143.38 C 172.40 144.07 172.30 145.28 172.99 146.09 C 173.68 146.90 174.89 146.99 175.70 146.30 L 176.45 145.66 C 177.26 144.97 177.35 143.76 176.66 142.96 C 175.98 142.15 174.76 142.05 173.96 142.74 Z M 173.26 143.34 L 172.45 143.98 C 171.62 144.64 171.48 145.85 172.14 146.68 C 172.79 147.51 174.00 147.65 174.83 146.99 L 175.64 146.35 C 176.47 145.69 176.61 144.48 175.96 143.65 C 175.30 142.82 174.09 142.68 173.26 143.34 Z M 172.45 143.98 L 171.73 144.54 C 170.90 145.20 170.76 146.41 171.42 147.24 C 172.08 148.07 173.29 148.22 174.12 147.56 L 174.83 146.99 C 175.67 146.33 175.81 145.12 175.15 144.29 C 174.49 143.46 173.28 143.32 172.45 143.98 Z M 171.73 144.55 L 170.98 145.15 C 170.15 145.81 170.01 147.02 170.68 147.85 C 171.34 148.68 172.55 148.81 173.38 148.15 L 174.13 147.55 C 174.96 146.89 175.09 145.68 174.43 144.85 C 173.77 144.02 172.56 143.88 171.73 144.55 Z M 170.97 145.15 L 170.19 145.78 C 169.36 146.45 169.23 147.66 169.89 148.49 C 170.56 149.32 171.77 149.45 172.60 148.78 L 173.39 148.15 C 174.21 147.48 174.34 146.27 173.68 145.44 C 173.01 144.61 171.80 144.48 170.97 145.15 Z M 170.18 145.79 L 169.35 146.46 C 168.53 147.13 168.40 148.34 169.07 149.17 C 169.74 149.99 170.95 150.12 171.77 149.45 L 172.60 148.78 C 173.43 148.11 173.56 146.90 172.89 146.07 C 172.22 145.25 171.01 145.12 170.18 145.79 Z M 169.35 146.46 L 168.56 147.10 C 167.73 147.77 167.61 148.99 168.28 149.81 C 168.95 150.64 170.16 150.76 170.99 150.09 L 171.78 149.45 C 172.60 148.78 172.73 147.56 172.06 146.74 C 171.39 145.92 170.17 145.79 169.35 146.46 Z M 168.56 147.10 L 167.82 147.71 C 166.99 148.38 166.87 149.59 167.54 150.42 C 168.21 151.24 169.42 151.36 170.25 150.69 L 170.99 150.09 C 171.81 149.42 171.94 148.21 171.27 147.38 C 170.60 146.56 169.38 146.43 168.56 147.10 Z M 167.82 147.71 L 167.05 148.33 C 166.23 149.00 166.10 150.21 166.77 151.04 C 167.44 151.86 168.65 151.99 169.48 151.32 L 170.25 150.69 C 171.07 150.02 171.20 148.81 170.53 147.99 C 169.85 147.16 168.64 147.04 167.82 147.71 Z M 167.05 148.33 L 166.26 148.97 C 165.44 149.64 165.31 150.85 165.98 151.67 C 166.65 152.50 167.86 152.63 168.69 151.96 L 169.48 151.32 C 170.30 150.65 170.43 149.44 169.76 148.61 C 169.09 147.79 167.88 147.66 167.05 148.33 Z M 166.27 148.96 L 165.46 149.61 C 164.64 150.28 164.50 151.49 165.17 152.32 C 165.84 153.15 167.05 153.28 167.88 152.61 L 168.68 151.96 C 169.51 151.30 169.64 150.08 168.98 149.26 C 168.31 148.43 167.10 148.30 166.27 148.96 Z M 165.47 149.60 L 164.66 150.25 C 163.83 150.92 163.69 152.13 164.35 152.96 C 165.01 153.79 166.23 153.93 167.06 153.26 L 167.87 152.61 C 168.70 151.95 168.84 150.74 168.18 149.91 C 167.51 149.08 166.30 148.94 165.47 149.60 Z M 164.66 150.25 L 163.90 150.85 C 163.07 151.51 162.92 152.72 163.58 153.56 C 164.24 154.39 165.45 154.53 166.29 153.87 L 167.05 153.27 C 167.89 152.61 168.03 151.40 167.37 150.57 C 166.71 149.73 165.50 149.59 164.66 150.25 Z M 163.90 150.85 L 163.13 151.46 C 162.30 152.12 162.15 153.33 162.81 154.16 C 163.47 155.00 164.68 155.14 165.52 154.48 L 166.29 153.87 C 167.12 153.22 167.26 152.01 166.61 151.17 C 165.95 150.34 164.74 150.19 163.90 150.85 Z M 163.13 151.46 L 162.35 152.07 C 161.52 152.73 161.38 153.94 162.04 154.78 C 162.70 155.61 163.91 155.75 164.74 155.09 L 165.52 154.48 C 166.35 153.82 166.49 152.61 165.83 151.78 C 165.17 150.94 163.96 150.80 163.13 151.46 Z M 162.35 152.08 L 161.56 152.71 C 160.73 153.37 160.59 154.58 161.26 155.41 C 161.92 156.24 163.13 156.38 163.96 155.72 L 164.75 155.09 C 165.58 154.43 165.71 153.22 165.05 152.38 C 164.39 151.55 163.18 151.42 162.35 152.08 Z M 161.55 152.71 L 160.76 153.36 C 159.93 154.03 159.80 155.24 160.47 156.06 C 161.14 156.89 162.35 157.02 163.18 156.35 L 163.97 155.71 C 164.80 155.04 164.93 153.83 164.26 153.00 C 163.59 152.17 162.38 152.05 161.55 152.71 Z M 160.74 153.37 L 159.95 154.02 C 159.13 154.70 159.02 155.91 159.69 156.73 C 160.37 157.55 161.58 157.67 162.40 156.99 L 163.19 156.34 C 164.01 155.66 164.13 154.45 163.45 153.63 C 162.78 152.81 161.56 152.69 160.74 153.37 Z M 159.94 154.04 L 159.20 154.66 C 158.39 155.34 158.29 156.56 158.97 157.37 C 159.66 158.18 160.87 158.28 161.68 157.60 L 162.42 156.98 C 163.23 156.29 163.33 155.08 162.65 154.27 C 161.96 153.45 160.75 153.35 159.94 154.04 Z M 159.19 154.67 L 158.45 155.31 C 157.64 156.00 157.55 157.21 158.24 158.02 C 158.94 158.83 160.15 158.92 160.96 158.22 L 161.70 157.59 C 162.50 156.89 162.59 155.68 161.90 154.87 C 161.21 154.07 159.99 153.98 159.19 154.67 Z M 158.43 155.32 L 157.69 155.97 C 156.89 156.67 156.81 157.88 157.51 158.68 C 158.20 159.48 159.42 159.57 160.22 158.87 L 160.97 158.21 C 161.77 157.51 161.85 156.30 161.15 155.50 C 160.45 154.70 159.23 154.62 158.43 155.32 Z M 157.68 155.98 L 156.92 156.65 C 156.13 157.35 156.06 158.56 156.76 159.36 C 157.46 160.16 158.68 160.23 159.48 159.52 L 160.23 158.86 C 161.02 158.15 161.10 156.94 160.39 156.14 C 159.69 155.35 158.47 155.27 157.68 155.98 Z M 156.92 156.65 L 156.16 157.33 C 155.37 158.04 155.30 159.26 156.01 160.05 C 156.72 160.84 157.93 160.91 158.72 160.20 L 159.48 159.52 C 160.27 158.81 160.34 157.59 159.63 156.80 C 158.92 156.01 157.71 155.94 156.92 156.65 Z M 156.15 157.34 L 155.39 158.03 C 154.60 158.74 154.54 159.96 155.25 160.74 C 155.96 161.53 157.17 161.60 157.96 160.88 L 158.73 160.19 C 159.52 159.48 159.58 158.26 158.87 157.48 C 158.16 156.69 156.94 156.63 156.15 157.34 Z M 155.38 158.03 L 154.65 158.70 C 153.86 159.42 153.80 160.63 154.52 161.42 C 155.23 162.20 156.44 162.26 157.23 161.55 L 157.97 160.88 C 158.75 160.17 158.81 158.95 158.10 158.16 C 157.38 157.38 156.17 157.32 155.38 158.03 Z M 154.64 158.71 L 153.92 159.36 C 153.14 160.08 153.08 161.29 153.80 162.08 C 154.52 162.86 155.73 162.92 156.51 162.20 L 157.23 161.54 C 158.02 160.83 158.07 159.61 157.36 158.83 C 156.64 158.05 155.43 157.99 154.64 158.71 Z M 153.92 159.37 L 153.20 160.03 C 152.42 160.75 152.36 161.96 153.08 162.74 C 153.80 163.53 155.01 163.58 155.79 162.86 L 156.52 162.20 C 157.30 161.48 157.35 160.27 156.63 159.48 C 155.92 158.70 154.70 158.65 153.92 159.37 Z M 153.19 160.04 L 152.46 160.71 C 151.68 161.43 151.63 162.64 152.35 163.42 C 153.07 164.20 154.28 164.25 155.06 163.53 L 155.79 162.86 C 156.57 162.14 156.62 160.93 155.90 160.15 C 155.19 159.37 153.97 159.32 153.19 160.04 Z M 152.46 160.71 L 151.72 161.40 C 150.95 162.12 150.90 163.33 151.62 164.11 C 152.34 164.88 153.55 164.93 154.33 164.21 L 155.07 163.53 C 155.84 162.81 155.89 161.59 155.17 160.82 C 154.45 160.04 153.24 159.99 152.46 160.71 Z M 151.72 161.40 L 150.98 162.09 C 150.20 162.81 150.16 164.03 150.88 164.80 C 151.60 165.58 152.81 165.62 153.58 164.90 L 154.33 164.21 C 155.10 163.49 155.15 162.27 154.43 161.50 C 153.71 160.72 152.50 160.68 151.72 161.40 Z M 150.97 162.10 L 150.22 162.80 C 149.45 163.52 149.41 164.73 150.13 165.51 C 150.85 166.28 152.06 166.32 152.83 165.60 L 153.59 164.89 C 154.36 164.17 154.40 162.96 153.68 162.19 C 152.96 161.42 151.75 161.38 150.97 162.10 Z M 150.22 162.80 L 149.49 163.49 C 148.72 164.21 148.68 165.42 149.40 166.19 C 150.13 166.96 151.34 167.00 152.11 166.28 L 152.84 165.59 C 153.61 164.87 153.65 163.66 152.92 162.89 C 152.20 162.12 150.99 162.08 150.22 162.80 Z M 149.49 163.49 L 148.78 164.16 C 148.01 164.89 147.97 166.09 148.70 166.86 C 149.42 167.63 150.63 167.67 151.40 166.94 L 152.11 166.27 C 152.88 165.55 152.91 164.34 152.19 163.57 C 151.47 162.81 150.26 162.77 149.49 163.49 Z M 148.78 164.17 L 148.06 164.84 C 147.29 165.57 147.26 166.77 147.98 167.54 C 148.71 168.31 149.91 168.34 150.68 167.62 L 151.40 166.94 C 152.16 166.22 152.20 165.01 151.48 164.24 C 150.75 163.48 149.54 163.44 148.78 164.17 Z M 148.06 164.85 L 147.34 165.53 C 146.57 166.25 146.54 167.46 147.26 168.22 C 147.99 168.99 149.19 169.02 149.96 168.30 L 150.68 167.61 C 151.44 166.89 151.48 165.69 150.76 164.92 C 150.03 164.16 148.83 164.12 148.06 164.85 Z M 147.34 165.53 L 146.61 166.22 C 145.85 166.94 145.81 168.15 146.54 168.91 C 147.26 169.68 148.46 169.71 149.23 168.99 L 149.96 168.30 C 150.72 167.57 150.75 166.37 150.03 165.61 C 149.31 164.84 148.10 164.81 147.34 165.53 Z M 146.61 166.22 L 145.88 166.92 C 145.11 167.64 145.08 168.84 145.80 169.61 C 146.52 170.37 147.73 170.40 148.49 169.68 L 149.22 168.99 C 149.99 168.26 150.02 167.06 149.30 166.30 C 148.58 165.54 147.37 165.50 146.61 166.22 Z M 145.88 166.92 L 145.14 167.62 C 144.38 168.34 144.34 169.54 145.06 170.30 C 145.78 171.06 146.99 171.10 147.75 170.38 L 148.49 169.68 C 149.25 168.96 149.28 167.76 148.56 167.00 C 147.84 166.23 146.64 166.20 145.88 166.92 Z M 145.14 167.62 L 144.40 168.32 C 143.64 169.04 143.60 170.24 144.32 171.00 C 145.04 171.76 146.24 171.80 147.00 171.08 L 147.74 170.38 C 148.51 169.66 148.54 168.46 147.82 167.70 C 147.10 166.94 145.90 166.90 145.14 167.62 Z M 144.40 168.32 L 143.69 168.99 C 142.93 169.71 142.89 170.90 143.61 171.67 C 144.33 172.43 145.52 172.46 146.29 171.75 L 147.00 171.08 C 147.76 170.36 147.79 169.17 147.08 168.40 C 146.36 167.64 145.16 167.61 144.40 168.32 Z M 143.70 168.99 L 142.98 169.66 C 142.22 170.37 142.18 171.57 142.90 172.33 C 143.61 173.09 144.81 173.13 145.57 172.42 L 146.28 171.75 C 147.04 171.03 147.08 169.84 146.37 169.08 C 145.65 168.31 144.46 168.28 143.70 168.99 Z M 142.99 169.66 L 142.27 170.33 C 141.51 171.04 141.47 172.24 142.18 173.00 C 142.89 173.76 144.09 173.80 144.85 173.09 L 145.57 172.42 C 146.33 171.70 146.37 170.51 145.66 169.75 C 144.94 168.99 143.75 168.95 142.99 169.66 Z M 142.27 170.33 L 141.55 171.01 C 140.79 171.71 140.74 172.91 141.45 173.67 C 142.16 174.43 143.36 174.47 144.12 173.76 L 144.84 173.09 C 145.60 172.38 145.65 171.18 144.94 170.42 C 144.23 169.66 143.04 169.62 142.27 170.33 Z M 141.55 171.01 L 140.82 171.69 C 140.06 172.39 140.01 173.58 140.72 174.34 C 141.43 175.11 142.62 175.15 143.38 174.44 L 144.11 173.76 C 144.87 173.06 144.92 171.87 144.21 171.10 C 143.50 170.34 142.31 170.30 141.55 171.01 Z M 140.82 171.69 L 140.08 172.37 C 139.32 173.08 139.27 174.26 139.98 175.03 C 140.68 175.79 141.87 175.83 142.63 175.13 L 143.38 174.44 C 144.14 173.74 144.18 172.55 143.48 171.79 C 142.77 171.03 141.59 170.98 140.82 171.69 Z M 140.09 172.37 L 139.33 173.06 C 138.57 173.77 138.52 174.95 139.23 175.71 C 139.93 176.48 141.11 176.53 141.88 175.82 L 142.63 175.13 C 143.39 174.43 143.44 173.24 142.74 172.48 C 142.04 171.72 140.85 171.67 140.09 172.37 Z M 139.34 173.06 L 138.58 173.76 C 137.81 174.46 137.76 175.65 138.46 176.41 C 139.16 177.17 140.35 177.22 141.11 176.52 L 141.87 175.82 C 142.63 175.12 142.68 173.94 141.98 173.18 C 141.29 172.42 140.10 172.37 139.34 173.06 Z M 138.58 173.77 L 137.84 174.44 C 137.08 175.13 137.03 176.32 137.73 177.08 C 138.42 177.84 139.60 177.89 140.36 177.20 L 141.10 176.52 C 141.86 175.83 141.92 174.65 141.22 173.88 C 140.53 173.12 139.34 173.07 138.58 173.77 Z M 137.85 174.44 L 137.11 175.11 C 136.35 175.81 136.29 176.98 136.99 177.75 C 137.68 178.51 138.86 178.56 139.62 177.87 L 140.36 177.20 C 141.12 176.50 141.18 175.33 140.48 174.56 C 139.79 173.80 138.61 173.75 137.85 174.44 Z M 137.12 175.12 L 136.37 175.79 C 135.61 176.48 135.55 177.66 136.24 178.42 C 136.93 179.18 138.10 179.23 138.87 178.55 L 139.61 177.87 C 140.37 177.18 140.43 176.00 139.74 175.24 C 139.05 174.48 137.88 174.43 137.12 175.12 Z M 136.38 175.79 L 135.63 176.47 C 134.87 177.16 134.81 178.33 135.49 179.09 C 136.18 179.85 137.35 179.91 138.11 179.22 L 138.86 178.54 C 139.62 177.86 139.68 176.69 138.99 175.93 C 138.31 175.17 137.14 175.11 136.38 175.79 Z M 135.63 176.47 L 134.88 177.15 C 134.12 177.83 134.06 179.00 134.74 179.76 C 135.42 180.52 136.59 180.58 137.35 179.89 L 138.10 179.22 C 138.86 178.54 138.92 177.37 138.24 176.61 C 137.56 175.85 136.39 175.79 135.63 176.47 Z M 134.89 177.15 L 134.14 177.82 C 133.38 178.50 133.32 179.66 133.99 180.42 C 134.67 181.18 135.84 181.24 136.60 180.56 L 137.35 179.89 C 138.10 179.21 138.17 178.05 137.49 177.29 C 136.81 176.53 135.65 176.47 134.89 177.15 Z M 134.14 177.82 L 133.40 178.49 C 132.64 179.16 132.57 180.32 133.25 181.08 C 133.92 181.84 135.09 181.90 135.84 181.23 L 136.59 180.56 C 137.35 179.89 137.41 178.73 136.74 177.97 C 136.06 177.21 134.90 177.15 134.14 177.82 Z M 133.40 178.49 L 132.67 179.14 C 131.91 179.81 131.84 180.97 132.51 181.73 C 133.18 182.49 134.34 182.55 135.10 181.88 L 135.84 181.23 C 136.59 180.56 136.66 179.40 135.99 178.64 C 135.32 177.88 134.16 177.82 133.40 178.49 Z M 132.67 179.14 L 131.92 179.81 C 131.17 180.48 131.09 181.63 131.76 182.39 C 132.43 183.14 133.59 183.21 134.34 182.54 L 135.09 181.88 C 135.85 181.21 135.92 180.06 135.25 179.30 C 134.58 178.55 133.43 178.48 132.67 179.14 Z M 131.93 179.81 L 131.15 180.50 C 130.39 181.16 130.32 182.31 130.98 183.06 C 131.65 183.82 132.80 183.89 133.55 183.23 L 134.33 182.54 C 135.09 181.88 135.16 180.73 134.50 179.97 C 133.83 179.22 132.68 179.15 131.93 179.81 Z M 131.16 180.50 L 130.39 181.17 C 129.63 181.83 129.56 182.98 130.22 183.73 C 130.88 184.48 132.02 184.56 132.77 183.90 L 133.54 183.23 C 134.30 182.57 134.37 181.42 133.71 180.67 C 133.06 179.92 131.91 179.84 131.16 180.50 Z M 130.39 181.18 L 129.63 181.84 C 128.88 182.49 128.81 183.63 129.46 184.39 C 130.12 185.14 131.26 185.21 132.01 184.56 L 132.77 183.90 C 133.52 183.24 133.60 182.10 132.94 181.35 C 132.29 180.60 131.15 180.52 130.39 181.18 Z M 129.64 181.84 L 128.89 182.50 C 128.14 183.15 128.06 184.28 128.71 185.03 C 129.36 185.78 130.50 185.86 131.25 185.21 L 132.00 184.56 C 132.75 183.91 132.83 182.77 132.18 182.02 C 131.53 181.27 130.39 181.19 129.64 181.84 Z M 128.90 182.50 L 128.15 183.14 C 127.40 183.79 127.32 184.92 127.97 185.67 C 128.62 186.42 129.75 186.50 130.50 185.85 L 131.24 185.21 C 131.99 184.56 132.07 183.43 131.42 182.68 C 130.78 181.93 129.64 181.85 128.90 182.50 Z M 128.16 183.15 L 127.42 183.79 C 126.67 184.43 126.59 185.56 127.24 186.30 C 127.88 187.05 129.01 187.13 129.75 186.49 L 130.49 185.85 C 131.24 185.20 131.32 184.08 130.67 183.33 C 130.03 182.59 128.90 182.50 128.16 183.15 Z M 127.42 183.79 L 126.69 184.43 C 125.95 185.07 125.86 186.19 126.51 186.93 C 127.15 187.67 128.27 187.76 129.01 187.11 L 129.75 186.48 C 130.49 185.84 130.57 184.72 129.93 183.98 C 129.29 183.23 128.17 183.15 127.42 183.79 Z M 126.70 184.43 L 125.94 185.08 C 125.21 185.72 125.12 186.83 125.76 187.57 C 126.40 188.31 127.51 188.39 128.25 187.76 L 129.00 187.11 C 129.74 186.47 129.83 185.36 129.19 184.62 C 128.55 183.88 127.44 183.79 126.70 184.43 Z M 125.95 185.08 L 125.18 185.75 C 124.45 186.38 124.36 187.49 125.00 188.23 C 125.63 188.97 126.74 189.05 127.48 188.41 L 128.25 187.75 C 128.98 187.12 129.07 186.01 128.43 185.27 C 127.80 184.53 126.69 184.45 125.95 185.08 Z M 125.19 185.75 L 124.42 186.41 C 123.69 187.05 123.61 188.15 124.24 188.88 C 124.87 189.62 125.97 189.70 126.71 189.07 L 127.47 188.41 C 128.21 187.78 128.29 186.67 127.66 185.94 C 127.03 185.21 125.92 185.12 125.19 185.75 Z M 124.43 186.42 L 123.67 187.08 C 122.94 187.71 122.86 188.81 123.48 189.53 C 124.11 190.26 125.21 190.34 125.94 189.72 L 126.70 189.06 C 127.43 188.43 127.51 187.33 126.88 186.60 C 126.26 185.87 125.16 185.79 124.43 186.42 Z M 123.67 187.09 L 122.91 187.74 C 122.19 188.36 122.11 189.46 122.73 190.18 C 123.36 190.91 124.45 190.99 125.18 190.36 L 125.93 189.71 C 126.66 189.08 126.74 187.99 126.11 187.27 C 125.49 186.54 124.40 186.46 123.67 187.09 Z M 122.92 187.75 L 122.17 188.40 C 121.45 189.02 121.37 190.11 121.99 190.83 C 122.61 191.55 123.70 191.63 124.42 191.00 L 125.17 190.36 C 125.89 189.73 125.97 188.64 125.35 187.92 C 124.73 187.20 123.64 187.12 122.92 187.75 Z M 122.17 188.40 L 121.43 189.05 C 120.71 189.67 120.63 190.75 121.25 191.47 C 121.87 192.18 122.95 192.26 123.67 191.64 L 124.42 191.00 C 125.13 190.38 125.21 189.29 124.59 188.58 C 123.97 187.86 122.89 187.78 122.17 188.40 Z M 121.43 189.06 L 120.69 189.70 C 119.98 190.31 119.90 191.39 120.52 192.10 C 121.13 192.82 122.21 192.89 122.92 192.28 L 123.66 191.63 C 124.38 191.02 124.45 189.94 123.84 189.23 C 123.22 188.52 122.14 188.44 121.43 189.06 Z M 120.69 189.71 L 119.91 190.39 C 119.20 191.00 119.13 192.07 119.74 192.78 C 120.36 193.49 121.43 193.56 122.14 192.95 L 122.92 192.27 C 123.63 191.65 123.70 190.58 123.09 189.87 C 122.47 189.17 121.40 189.09 120.69 189.71 Z M 119.92 190.40 L 119.14 191.07 C 118.44 191.68 118.37 192.75 118.98 193.45 C 119.59 194.15 120.66 194.23 121.36 193.61 L 122.13 192.94 C 122.83 192.33 122.91 191.26 122.29 190.56 C 121.68 189.86 120.62 189.78 119.92 190.40 Z M 119.14 191.08 L 118.38 191.75 C 117.68 192.36 117.61 193.42 118.22 194.12 C 118.83 194.81 119.89 194.88 120.59 194.27 L 121.35 193.60 C 122.05 192.99 122.12 191.93 121.51 191.24 C 120.90 190.54 119.84 190.47 119.14 191.08 Z M 118.38 191.76 L 117.63 192.42 C 116.94 193.03 116.87 194.08 117.48 194.77 C 118.09 195.47 119.14 195.53 119.83 194.92 L 120.59 194.26 C 121.28 193.65 121.34 192.60 120.74 191.91 C 120.13 191.22 119.07 191.15 118.38 191.76 Z M 117.63 192.43 L 116.90 193.09 C 116.21 193.70 116.15 194.74 116.75 195.43 C 117.36 196.11 118.41 196.17 119.09 195.57 L 119.83 194.91 C 120.52 194.31 120.58 193.26 119.97 192.57 C 119.37 191.89 118.32 191.83 117.63 192.43 Z M 116.90 193.10 L 116.17 193.75 C 115.49 194.35 115.44 195.39 116.04 196.07 C 116.65 196.75 117.69 196.81 118.37 196.20 L 119.09 195.56 C 119.77 194.95 119.83 193.91 119.22 193.23 C 118.62 192.55 117.58 192.49 116.90 193.10 Z M 116.17 193.76 L 115.46 194.40 C 114.79 195.01 114.73 196.04 115.34 196.71 C 115.94 197.39 116.98 197.44 117.65 196.83 L 118.36 196.19 C 119.04 195.59 119.09 194.55 118.48 193.88 C 117.88 193.21 116.84 193.16 116.17 193.76 Z M 115.46 194.42 L 114.67 195.14 C 114.01 195.74 113.96 196.77 114.56 197.44 C 115.17 198.10 116.20 198.15 116.86 197.54 L 117.65 196.82 C 118.31 196.22 118.36 195.19 117.76 194.52 C 117.15 193.86 116.12 193.81 115.46 194.42 Z M 114.67 195.15 L 113.90 195.86 C 113.25 196.47 113.20 197.49 113.81 198.14 C 114.42 198.80 115.44 198.84 116.09 198.24 L 116.86 197.53 C 117.52 196.92 117.56 195.90 116.95 195.24 C 116.35 194.59 115.32 194.55 114.67 195.15 Z M 113.90 195.88 L 113.16 196.57 C 112.51 197.18 112.48 198.19 113.08 198.84 C 113.69 199.49 114.70 199.52 115.35 198.92 L 116.09 198.22 C 116.74 197.61 116.77 196.60 116.17 195.95 C 115.56 195.30 114.55 195.27 113.90 195.88 Z M 113.15 196.59 L 112.44 197.27 C 111.80 197.88 111.78 198.89 112.38 199.53 C 112.99 200.16 114.00 200.19 114.64 199.58 L 115.35 198.90 C 115.99 198.29 116.02 197.28 115.41 196.64 C 114.80 196.01 113.79 195.98 113.15 196.59 Z M 112.44 197.29 L 111.75 197.95 C 111.12 198.56 111.10 199.57 111.71 200.19 C 112.32 200.82 113.33 200.84 113.95 200.23 L 114.64 199.56 C 115.27 198.95 115.29 197.95 114.68 197.32 C 114.07 196.69 113.06 196.68 112.44 197.29 Z M 111.74 197.97 L 111.09 198.62 C 110.47 199.23 110.46 200.23 111.07 200.85 C 111.69 201.47 112.68 201.47 113.30 200.86 L 113.96 200.21 C 114.58 199.60 114.58 198.60 113.97 197.99 C 113.36 197.37 112.36 197.36 111.74 197.97 Z M 111.08 198.64 L 110.34 199.40 C 109.73 200.01 109.73 201.00 110.35 201.61 C 110.96 202.22 111.96 202.21 112.56 201.60 L 113.31 200.84 C 113.92 200.23 113.91 199.24 113.29 198.63 C 112.68 198.02 111.69 198.03 111.08 198.64 Z M 110.32 199.42 L 109.61 200.16 C 109.02 200.78 109.04 201.77 109.66 202.36 C 110.28 202.96 111.27 202.94 111.86 202.32 L 112.57 201.57 C 113.17 200.95 113.15 199.97 112.53 199.37 C 111.91 198.77 110.92 198.79 110.32 199.42 Z M 109.60 200.18 L 108.92 200.91 C 108.34 201.53 108.38 202.52 109.00 203.10 C 109.63 203.68 110.61 203.65 111.20 203.02 L 111.87 202.29 C 112.46 201.67 112.42 200.68 111.80 200.10 C 111.17 199.52 110.19 199.55 109.60 200.18 Z M 108.91 200.93 L 108.26 201.65 C 107.69 202.28 107.74 203.26 108.38 203.83 C 109.01 204.40 109.99 204.35 110.56 203.72 L 111.21 203.00 C 111.78 202.36 111.73 201.39 111.10 200.82 C 110.46 200.24 109.48 200.29 108.91 200.93 Z M 108.25 201.67 L 107.63 202.39 C 107.07 203.03 107.13 204.00 107.78 204.56 C 108.42 205.12 109.39 205.05 109.95 204.41 L 110.57 203.69 C 111.13 203.05 111.07 202.08 110.42 201.52 C 109.78 200.96 108.81 201.03 108.25 201.67 Z M 107.61 202.41 L 106.97 203.18 C 106.42 203.82 106.50 204.79 107.15 205.34 C 107.80 205.89 108.77 205.80 109.32 205.16 L 109.96 204.39 C 110.51 203.74 110.43 202.77 109.78 202.23 C 109.13 201.68 108.16 201.76 107.61 202.41 Z M 106.96 203.19 L 106.32 203.97 C 105.78 204.62 105.88 205.59 106.53 206.13 C 107.19 206.66 108.15 206.57 108.69 205.91 L 109.33 205.14 C 109.86 204.48 109.77 203.52 109.11 202.98 C 108.46 202.44 107.49 202.54 106.96 203.19 Z M 106.31 203.98 L 105.69 204.76 C 105.16 205.42 105.26 206.38 105.92 206.91 C 106.58 207.44 107.55 207.34 108.08 206.68 L 108.70 205.90 C 109.23 205.24 109.12 204.28 108.47 203.75 C 107.81 203.22 106.84 203.32 106.31 203.98 Z M 105.68 204.77 L 105.06 205.55 C 104.54 206.21 104.65 207.18 105.31 207.70 C 105.98 208.23 106.94 208.11 107.46 207.45 L 108.08 206.67 C 108.61 206.01 108.49 205.04 107.83 204.52 C 107.17 204.00 106.21 204.11 105.68 204.77 Z M 105.06 205.56 L 104.54 206.22 C 104.02 206.88 104.13 207.84 104.80 208.36 C 105.46 208.89 106.42 208.77 106.94 208.11 L 107.46 207.45 C 107.99 206.78 107.87 205.82 107.21 205.30 C 106.54 204.78 105.58 204.89 105.06 205.56 Z"
      fill="black"
      fill-rule="nonzero" /></svg>