<svg xmlns="http://www.w3.org/2000/svg" width="300" height="300" viewBox="0 0 300 300">
<path d="M 147.46 127.45 L 148.41 127.59 C 149.25 127.72 150.03 127.14 150.15 126.30 C 150.28 125.46 149.70 124.68 148.86 124.56 L 147.90 124.42 C 147.07 124.30 146.29 124.88 146.16 125.71 C 146.04 126.55 146.62 127.33 147.46 127.45 Z M 148.26 127.59 L 149.21 127.83 C 150.05 128.04 150.90 127.53 151.10 126.69 C 151.31 125.85 150.80 125.01 149.97 124.80 L 149.02 124.56 C 148.18 124.35 147.33 124.86 147.12 125.70 C 146.91 126.54 147.42 127.38 148.26 127.59 Z M 148.92 127.76 L 149.86 128.19 C 150.66 128.56 151.60 128.20 151.97 127.40 C 152.34 126.60 151.98 125.66 151.19 125.29 L 150.25 124.87 C 149.45 124.50 148.51 124.85 148.14 125.65 C 147.77 126.45 148.13 127.39 148.92 127.76 Z M 149.56 128.04 L 150.31 128.60 C 151.03 129.13 152.04 128.98 152.57 128.26 C 153.10 127.54 152.95 126.53 152.23 126.00 L 151.48 125.44 C 150.77 124.91 149.75 125.06 149.22 125.78 C 148.69 126.50 148.84 127.51 149.56 128.04 Z M 150.13 128.45 L 150.82 129.14 C 151.46 129.78 152.49 129.77 153.13 129.13 C 153.76 128.49 153.75 127.46 153.12 126.83 L 152.42 126.14 C 151.78 125.51 150.75 125.51 150.12 126.15 C 149.48 126.79 149.49 127.82 150.13 128.45 Z M 150.71 129.03 L 151.37 129.83 C 151.94 130.53 152.98 130.62 153.68 130.04 C 154.37 129.47 154.47 128.43 153.89 127.73 L 153.23 126.94 C 152.65 126.24 151.62 126.14 150.92 126.72 C 150.22 127.30 150.13 128.34 150.71 129.03 Z M 151.28 129.74 L 151.90 130.60 C 152.43 131.34 153.46 131.51 154.20 130.98 C 154.95 130.45 155.12 129.42 154.59 128.68 L 153.97 127.82 C 153.44 127.08 152.41 126.91 151.67 127.44 C 150.92 127.97 150.75 129.00 151.28 129.74 Z M 151.84 130.53 L 152.39 131.38 C 152.88 132.16 153.91 132.38 154.68 131.89 C 155.45 131.40 155.68 130.37 155.19 129.60 L 154.64 128.75 C 154.15 127.97 153.12 127.75 152.35 128.24 C 151.58 128.73 151.35 129.76 151.84 130.53 Z M 152.34 131.31 L 152.83 132.18 C 153.28 132.97 154.30 133.25 155.10 132.80 C 155.90 132.35 156.17 131.33 155.72 130.53 L 155.23 129.67 C 154.78 128.87 153.76 128.59 152.97 129.05 C 152.17 129.50 151.89 130.51 152.34 131.31 Z M 152.79 132.10 L 153.23 132.99 C 153.64 133.81 154.64 134.14 155.46 133.73 C 156.28 133.32 156.62 132.32 156.21 131.50 L 155.76 130.61 C 155.35 129.79 154.36 129.46 153.53 129.87 C 152.71 130.28 152.38 131.28 152.79 132.10 Z M 153.19 132.91 L 153.59 133.83 C 153.96 134.67 154.94 135.06 155.78 134.69 C 156.62 134.33 157.01 133.35 156.65 132.50 L 156.25 131.58 C 155.88 130.74 154.90 130.35 154.06 130.72 C 153.21 131.08 152.83 132.06 153.19 132.91 Z M 153.56 133.75 L 153.90 134.64 C 154.22 135.50 155.18 135.94 156.04 135.61 C 156.90 135.29 157.33 134.33 157.01 133.47 L 156.68 132.58 C 156.35 131.72 155.40 131.28 154.54 131.61 C 153.67 131.93 153.24 132.89 153.56 133.75 Z M 153.87 134.57 L 154.16 135.47 C 154.44 136.34 155.38 136.82 156.25 136.54 C 157.13 136.26 157.61 135.32 157.33 134.45 L 157.04 133.55 C 156.76 132.67 155.82 132.19 154.95 132.48 C 154.07 132.76 153.59 133.69 153.87 134.57 Z M 154.14 135.39 L 154.40 136.34 C 154.64 137.23 155.55 137.75 156.44 137.51 C 157.32 137.27 157.84 136.36 157.60 135.48 L 157.35 134.52 C 157.11 133.64 156.20 133.12 155.31 133.36 C 154.43 133.60 153.90 134.51 154.14 135.39 Z M 154.38 136.27 L 154.61 137.28 C 154.80 138.17 155.69 138.73 156.58 138.54 C 157.48 138.34 158.04 137.45 157.84 136.56 L 157.62 135.55 C 157.42 134.66 156.54 134.09 155.64 134.29 C 154.75 134.49 154.19 135.37 154.38 136.27 Z M 154.59 137.20 L 154.78 138.27 C 154.94 139.18 155.80 139.78 156.70 139.62 C 157.60 139.46 158.20 138.60 158.04 137.70 L 157.86 136.63 C 157.70 135.73 156.84 135.13 155.94 135.29 C 155.04 135.44 154.44 136.30 154.59 137.20 Z M 154.78 138.21 L 154.91 139.21 C 155.04 140.12 155.87 140.75 156.77 140.63 C 157.67 140.50 158.31 139.67 158.18 138.77 L 158.05 137.77 C 157.92 136.86 157.09 136.23 156.19 136.35 C 155.29 136.48 154.66 137.31 154.78 138.21 Z M 154.92 139.17 L 155.03 140.20 C 155.12 141.10 155.93 141.75 156.83 141.66 C 157.74 141.56 158.39 140.75 158.29 139.85 L 158.18 138.82 C 158.08 137.92 157.28 137.26 156.37 137.36 C 155.47 137.46 154.82 138.27 154.92 139.17 Z M 155.03 140.16 L 155.12 141.19 C 155.20 142.09 155.99 142.76 156.89 142.68 C 157.78 142.60 158.45 141.81 158.37 140.92 L 158.29 139.89 C 158.21 138.99 157.42 138.32 156.52 138.40 C 155.62 138.47 154.96 139.26 155.03 140.16 Z M 155.13 141.16 L 155.19 142.16 C 155.25 143.06 156.03 143.73 156.92 143.67 C 157.82 143.61 158.49 142.84 158.43 141.94 L 158.37 140.95 C 158.31 140.05 157.53 139.37 156.64 139.43 C 155.74 139.49 155.07 140.27 155.13 141.16 Z M 155.20 142.14 L 155.25 143.08 C 155.30 143.97 156.06 144.65 156.95 144.61 C 157.84 144.56 158.52 143.80 158.48 142.91 L 158.43 141.97 C 158.38 141.08 157.62 140.39 156.73 140.44 C 155.84 140.49 155.15 141.25 155.20 142.14 Z M 155.26 143.05 L 155.30 144.13 C 155.34 145.01 156.08 145.70 156.96 145.67 C 157.85 145.64 158.54 144.90 158.50 144.01 L 158.46 142.94 C 158.43 142.05 157.69 141.36 156.80 141.40 C 155.92 141.43 155.23 142.17 155.26 143.05 Z M 155.32 144.08 L 155.33 145.11 C 155.33 145.98 156.04 146.68 156.92 146.68 C 157.79 146.67 158.49 145.96 158.49 145.09 L 158.48 144.06 C 158.48 143.19 157.77 142.49 156.90 142.49 C 156.02 142.50 155.32 143.21 155.32 144.08 Z M 155.36 145.02 L 155.31 145.96 C 155.26 146.82 155.92 147.55 156.78 147.60 C 157.63 147.64 158.36 146.98 158.41 146.13 L 158.46 145.18 C 158.51 144.32 157.85 143.59 156.99 143.55 C 156.13 143.50 155.40 144.16 155.36 145.02 Z M 155.34 145.84 L 155.22 146.76 C 155.11 147.60 155.70 148.37 156.54 148.48 C 157.37 148.59 158.14 148.00 158.25 147.16 L 158.38 146.24 C 158.49 145.41 157.90 144.64 157.06 144.53 C 156.22 144.41 155.45 145.00 155.34 145.84 Z M 155.26 146.64 L 155.06 147.55 C 154.89 148.36 155.40 149.17 156.22 149.34 C 157.04 149.52 157.84 149.00 158.02 148.19 L 158.21 147.28 C 158.39 146.47 157.87 145.66 157.06 145.48 C 156.24 145.31 155.44 145.83 155.26 146.64 Z M 155.10 147.46 L 154.83 148.39 C 154.60 149.19 155.07 150.02 155.86 150.24 C 156.66 150.47 157.49 150.01 157.72 149.21 L 157.98 148.28 C 158.21 147.48 157.75 146.65 156.95 146.42 C 156.15 146.20 155.32 146.66 155.10 147.46 Z M 154.86 148.33 L 154.54 149.29 C 154.28 150.07 154.70 150.92 155.48 151.18 C 156.25 151.44 157.10 151.02 157.36 150.24 L 157.69 149.27 C 157.95 148.50 157.53 147.65 156.75 147.39 C 155.97 147.13 155.13 147.55 154.86 148.33 Z M 154.57 149.25 L 154.19 150.25 C 153.91 151.02 154.30 151.87 155.06 152.15 C 155.83 152.43 156.68 152.04 156.96 151.28 L 157.33 150.28 C 157.62 149.52 157.23 148.67 156.46 148.38 C 155.70 148.10 154.85 148.49 154.57 149.25 Z M 154.21 150.23 L 153.86 151.12 C 153.57 151.87 153.94 152.73 154.69 153.02 C 155.45 153.32 156.30 152.95 156.59 152.19 L 156.94 151.30 C 157.24 150.55 156.87 149.70 156.12 149.40 C 155.36 149.10 154.51 149.47 154.21 150.23 Z M 153.88 151.10 L 153.51 152.00 C 153.20 152.74 153.56 153.60 154.31 153.90 C 155.05 154.21 155.91 153.85 156.21 153.11 L 156.58 152.21 C 156.89 151.47 156.53 150.61 155.78 150.31 C 155.04 150.00 154.18 150.36 153.88 151.10 Z M 153.52 151.98 L 153.13 152.90 C 152.81 153.64 153.16 154.49 153.89 154.81 C 154.63 155.12 155.49 154.78 155.80 154.04 L 156.20 153.12 C 156.51 152.39 156.17 151.53 155.43 151.21 C 154.69 150.90 153.84 151.24 153.52 151.98 Z M 153.14 152.88 L 152.72 153.82 C 152.40 154.55 152.73 155.41 153.46 155.74 C 154.19 156.06 155.04 155.73 155.37 155.00 L 155.79 154.06 C 156.12 153.33 155.79 152.47 155.06 152.15 C 154.33 151.82 153.47 152.15 153.14 152.88 Z M 152.74 153.81 L 152.30 154.75 C 151.96 155.48 152.28 156.33 153.00 156.67 C 153.72 157.00 154.58 156.69 154.91 155.97 L 155.35 155.02 C 155.69 154.30 155.38 153.44 154.65 153.10 C 153.93 152.77 153.07 153.08 152.74 153.81 Z M 152.31 154.74 L 151.91 155.58 C 151.56 156.29 151.86 157.15 152.58 157.50 C 153.30 157.84 154.15 157.54 154.50 156.82 L 154.90 155.98 C 155.25 155.27 154.95 154.41 154.23 154.06 C 153.51 153.72 152.66 154.02 152.31 154.74 Z M 151.92 155.56 L 151.49 156.42 C 151.14 157.13 151.43 157.99 152.14 158.35 C 152.85 158.70 153.71 158.41 154.06 157.70 L 154.49 156.84 C 154.84 156.13 154.55 155.27 153.84 154.91 C 153.13 154.56 152.27 154.85 151.92 155.56 Z M 151.50 156.41 L 151.05 157.29 C 150.69 158.00 150.97 158.86 151.68 159.22 C 152.39 159.58 153.25 159.30 153.61 158.59 L 154.06 157.71 C 154.41 157.00 154.13 156.14 153.43 155.78 C 152.72 155.42 151.86 155.70 151.50 156.41 Z M 151.06 157.28 L 150.59 158.19 C 150.22 158.89 150.50 159.76 151.20 160.12 C 151.90 160.48 152.76 160.21 153.13 159.51 L 153.60 158.60 C 153.96 157.90 153.69 157.04 152.99 156.67 C 152.29 156.31 151.42 156.58 151.06 157.28 Z M 150.59 158.18 L 150.10 159.12 C 149.73 159.82 150.00 160.68 150.69 161.05 C 151.39 161.42 152.25 161.15 152.62 160.46 L 153.12 159.52 C 153.49 158.82 153.22 157.96 152.52 157.59 C 151.83 157.22 150.96 157.49 150.59 158.18 Z M 150.10 159.12 L 149.63 160.01 C 149.25 160.70 149.51 161.57 150.21 161.94 C 150.90 162.31 151.77 162.05 152.14 161.36 L 152.62 160.46 C 152.99 159.77 152.73 158.91 152.04 158.53 C 151.34 158.16 150.48 158.42 150.10 159.12 Z M 149.63 160.00 L 149.17 160.85 C 148.80 161.54 149.05 162.41 149.74 162.78 C 150.44 163.16 151.30 162.90 151.68 162.21 L 152.14 161.36 C 152.51 160.67 152.25 159.80 151.56 159.43 C 150.87 159.05 150.00 159.31 149.63 160.00 Z M 149.17 160.84 L 148.70 161.71 C 148.32 162.40 148.58 163.27 149.27 163.64 C 149.96 164.02 150.82 163.77 151.20 163.08 L 151.67 162.21 C 152.05 161.52 151.80 160.65 151.11 160.28 C 150.42 159.90 149.55 160.15 149.17 160.84 Z M 148.70 161.71 L 148.22 162.58 C 147.84 163.27 148.09 164.14 148.78 164.52 C 149.47 164.90 150.34 164.65 150.72 163.96 L 151.20 163.08 C 151.58 162.39 151.33 161.52 150.64 161.14 C 149.95 160.76 149.08 161.02 148.70 161.71 Z M 148.22 162.58 L 147.73 163.47 C 147.35 164.16 147.60 165.03 148.28 165.41 C 148.97 165.79 149.84 165.54 150.22 164.85 L 150.71 163.96 C 151.10 163.27 150.85 162.41 150.16 162.02 C 149.47 161.64 148.60 161.89 148.22 162.58 Z M 147.73 163.47 L 147.23 164.37 C 146.85 165.06 147.10 165.93 147.79 166.31 C 148.47 166.69 149.34 166.44 149.72 165.75 L 150.22 164.85 C 150.60 164.17 150.35 163.30 149.67 162.92 C 148.98 162.53 148.11 162.78 147.73 163.47 Z M 147.23 164.37 L 146.73 165.27 C 146.35 165.96 146.60 166.83 147.28 167.21 C 147.97 167.59 148.84 167.34 149.22 166.66 L 149.72 165.75 C 150.10 165.06 149.86 164.20 149.17 163.82 C 148.48 163.43 147.61 163.68 147.23 164.37 Z M 146.73 165.27 L 146.70 165.33 C 146.32 166.02 146.56 166.88 147.25 167.27 C 147.94 167.65 148.81 167.40 149.19 166.71 L 149.22 166.66 C 149.60 165.97 149.36 165.10 148.67 164.72 C 147.98 164.34 147.11 164.58 146.73 165.27 Z"
      fill="black"
      fill-rule="nonzero" /></svg>