<svg xmlns="http://www.w3.org/2000/svg" width="300" height="300" viewBox="0 0 300 300">
<path d="M 153.94 122.66 L 153.63 121.71 C 153.35 120.88 152.45 120.43 151.63 120.71 C 150.80 120.98 150.35 121.88 150.63 122.71 L 150.94 123.66 C 151.22 124.49 152.11 124.93 152.94 124.66 C 153.77 124.38 154.22 123.49 153.94 122.66 Z M 153.66 121.70 L 153.35 120.75 C 153.06 119.90 152.15 119.44 151.30 119.72 C 150.45 120.00 149.99 120.92 150.27 121.77 L 150.59 122.72 C 150.87 123.57 151.79 124.03 152.64 123.75 C 153.49 123.46 153.95 122.55 153.66 121.70 Z M 153.37 120.74 L 153.34 120.65 C 153.05 119.79 152.12 119.33 151.26 119.61 C 150.40 119.90 149.93 120.83 150.22 121.69 L 150.25 121.78 C 150.54 122.64 151.47 123.11 152.33 122.82 C 153.19 122.53 153.66 121.60 153.37 120.74 Z"
      fill="black"
      fill-rule="nonzero" /><path d="M 152.30 198.02 L 153.05 197.36 C 153.70 196.78 153.75 195.78 153.18 195.13 C 152.60 194.48 151.60 194.42 150.95 195.00 L 150.20 195.67 C 149.55 196.24 149.49 197.24 150.07 197.89 C 150.65 198.54 151.65 198.60 152.30 198.02 Z M 153.05 197.36 L 153.79 196.69 C 154.44 196.11 154.50 195.12 153.92 194.47 C 153.35 193.82 152.35 193.76 151.70 194.34 L 150.95 195.00 C 150.30 195.58 150.24 196.58 150.82 197.23 C 151.40 197.88 152.40 197.94 153.05 197.36 Z M 153.79 196.69 L 154.54 196.03 C 155.19 195.45 155.25 194.45 154.67 193.80 C 154.09 193.15 153.10 193.09 152.45 193.67 L 151.70 194.34 C 151.05 194.92 150.99 195.91 151.57 196.56 C 152.15 197.21 153.14 197.27 153.79 196.69 Z M 154.54 196.03 L 154.68 195.91 C 155.33 195.33 155.39 194.33 154.81 193.68 C 154.23 193.03 153.24 192.97 152.59 193.55 L 152.45 193.67 C 151.80 194.25 151.74 195.25 152.32 195.90 C 152.89 196.55 153.89 196.61 154.54 196.03 Z"
      fill="black"
      fill-rule="nonzero" /></svg>