<svg xmlns="http://www.w3.org/2000/svg" width="300" height="300" viewBox="0 0 300 300">
<path d="M 156.76 124.18 L 156.73 125.19 C 156.71 126.02 157.37 126.71 158.20 126.73 C 159.03 126.75 159.72 126.10 159.74 125.26 L 159.77 124.25 C 159.79 123.42 159.13 122.73 158.30 122.71 C 157.47 122.69 156.78 123.35 156.76 124.18 Z M 156.72 125.18 L 156.68 126.19 C 156.66 127.03 157.31 127.73 158.15 127.76 C 158.99 127.78 159.70 127.13 159.72 126.29 L 159.76 125.28 C 159.79 124.44 159.13 123.74 158.29 123.71 C 157.45 123.68 156.75 124.34 156.72 125.18 Z M 156.67 126.16 L 156.62 127.16 C 156.58 128.01 157.23 128.73 158.08 128.77 C 158.93 128.81 159.65 128.16 159.69 127.32 L 159.74 126.31 C 159.78 125.47 159.13 124.75 158.28 124.70 C 157.43 124.66 156.71 125.31 156.67 126.16 Z M 156.61 127.12 L 156.54 128.12 C 156.47 128.97 157.11 129.72 157.97 129.78 C 158.82 129.84 159.56 129.20 159.63 128.35 L 159.70 127.35 C 159.76 126.50 159.12 125.76 158.27 125.69 C 157.42 125.63 156.67 126.27 156.61 127.12 Z M 156.53 128.06 L 156.42 129.05 C 156.33 129.91 156.95 130.68 157.80 130.77 C 158.66 130.86 159.43 130.24 159.53 129.39 L 159.64 128.40 C 159.73 127.54 159.11 126.77 158.25 126.68 C 157.39 126.59 156.62 127.21 156.53 128.06 Z M 156.42 128.98 L 156.26 129.98 C 156.13 130.84 156.72 131.65 157.58 131.78 C 158.44 131.91 159.24 131.32 159.38 130.46 L 159.53 129.46 C 159.66 128.60 159.07 127.79 158.21 127.66 C 157.35 127.53 156.55 128.12 156.42 128.98 Z M 156.27 129.91 L 156.06 130.96 C 155.88 131.81 156.43 132.65 157.29 132.82 C 158.15 133.00 158.98 132.44 159.16 131.59 L 159.37 130.54 C 159.54 129.68 158.99 128.85 158.13 128.67 C 157.28 128.50 156.44 129.05 156.27 129.91 Z M 156.07 130.89 L 155.82 131.90 C 155.61 132.75 156.13 133.61 156.98 133.82 C 157.83 134.03 158.68 133.51 158.89 132.66 L 159.14 131.65 C 159.35 130.80 158.83 129.94 157.98 129.73 C 157.13 129.52 156.28 130.04 156.07 130.89 Z M 155.83 131.85 L 155.56 132.82 C 155.32 133.66 155.81 134.53 156.66 134.77 C 157.50 135.01 158.38 134.52 158.61 133.67 L 158.88 132.71 C 159.12 131.87 158.63 130.99 157.78 130.76 C 156.94 130.52 156.07 131.01 155.83 131.85 Z M 155.57 132.78 L 155.29 133.68 C 155.04 134.52 155.51 135.41 156.35 135.66 C 157.19 135.92 158.08 135.45 158.33 134.61 L 158.61 133.71 C 158.86 132.87 158.39 131.98 157.55 131.72 C 156.71 131.47 155.82 131.94 155.57 132.78 Z M 155.30 133.66 L 155.00 134.58 C 154.73 135.42 155.19 136.31 156.03 136.58 C 156.87 136.85 157.76 136.39 158.03 135.55 L 158.33 134.63 C 158.60 133.79 158.14 132.90 157.30 132.63 C 156.46 132.36 155.57 132.82 155.30 133.66 Z M 155.00 134.57 L 154.67 135.58 C 154.39 136.42 154.84 137.32 155.68 137.59 C 156.51 137.87 157.41 137.42 157.69 136.58 L 158.03 135.57 C 158.30 134.73 157.85 133.83 157.02 133.55 C 156.18 133.28 155.28 133.73 155.00 134.57 Z M 154.67 135.57 L 154.36 136.49 C 154.07 137.32 154.52 138.23 155.35 138.51 C 156.18 138.80 157.09 138.35 157.37 137.52 L 157.69 136.60 C 157.97 135.76 157.53 134.86 156.69 134.57 C 155.86 134.29 154.96 134.73 154.67 135.57 Z M 154.36 136.48 L 154.05 137.35 C 153.76 138.18 154.20 139.09 155.03 139.38 C 155.86 139.67 156.77 139.24 157.06 138.41 L 157.37 137.53 C 157.66 136.70 157.22 135.79 156.39 135.50 C 155.56 135.21 154.65 135.65 154.36 136.48 Z M 154.06 137.35 L 153.74 138.24 C 153.44 139.07 153.88 139.99 154.71 140.28 C 155.54 140.58 156.45 140.14 156.74 139.31 L 157.06 138.41 C 157.36 137.58 156.92 136.67 156.09 136.38 C 155.26 136.08 154.35 136.52 154.06 137.35 Z M 153.74 138.24 L 153.40 139.17 C 153.11 140.00 153.54 140.91 154.37 141.21 C 155.20 141.51 156.11 141.07 156.41 140.24 L 156.74 139.32 C 157.04 138.49 156.61 137.57 155.78 137.28 C 154.95 136.98 154.03 137.41 153.74 138.24 Z M 153.41 139.16 L 153.06 140.11 C 152.76 140.94 153.19 141.86 154.02 142.16 C 154.85 142.46 155.77 142.03 156.07 141.20 L 156.41 140.25 C 156.71 139.42 156.28 138.50 155.45 138.20 C 154.62 137.91 153.70 138.33 153.41 139.16 Z M 153.06 140.11 L 152.71 141.07 C 152.41 141.90 152.84 142.81 153.67 143.12 C 154.50 143.42 155.41 142.99 155.72 142.16 L 156.06 141.20 C 156.37 140.37 155.94 139.46 155.11 139.16 C 154.28 138.85 153.36 139.28 153.06 140.11 Z M 152.71 141.06 L 152.38 141.98 C 152.07 142.80 152.50 143.72 153.33 144.03 C 154.15 144.33 155.07 143.91 155.38 143.08 L 155.71 142.17 C 156.02 141.34 155.59 140.42 154.77 140.12 C 153.94 139.81 153.02 140.23 152.71 141.06 Z M 152.38 141.97 L 152.03 142.90 C 151.73 143.73 152.14 144.65 152.97 144.96 C 153.80 145.26 154.72 144.85 155.03 144.02 L 155.38 143.09 C 155.68 142.26 155.26 141.34 154.44 141.03 C 153.61 140.72 152.69 141.14 152.38 141.97 Z M 152.04 142.89 L 151.68 143.84 C 151.36 144.66 151.77 145.59 152.60 145.90 C 153.42 146.22 154.35 145.80 154.66 144.98 L 155.02 144.03 C 155.34 143.20 154.92 142.28 154.10 141.97 C 153.28 141.65 152.35 142.07 152.04 142.89 Z M 151.68 143.83 L 151.31 144.77 C 150.99 145.59 151.40 146.52 152.22 146.84 C 153.04 147.16 153.97 146.76 154.29 145.93 L 154.66 144.99 C 154.98 144.17 154.57 143.24 153.75 142.92 C 152.93 142.60 152.00 143.01 151.68 143.83 Z M 151.32 144.76 L 150.95 145.67 C 150.62 146.49 151.02 147.42 151.84 147.75 C 152.66 148.08 153.59 147.68 153.91 146.86 L 154.28 145.95 C 154.61 145.13 154.21 144.20 153.39 143.87 C 152.58 143.54 151.65 143.94 151.32 144.76 Z M 150.95 145.66 L 150.57 146.59 C 150.24 147.40 150.63 148.33 151.44 148.67 C 152.26 149.01 153.19 148.62 153.53 147.80 L 153.91 146.88 C 154.24 146.06 153.86 145.13 153.04 144.79 C 152.22 144.45 151.29 144.84 150.95 145.66 Z M 150.58 146.57 L 150.19 147.51 C 149.85 148.32 150.23 149.26 151.04 149.60 C 151.85 149.94 152.79 149.56 153.13 148.74 L 153.52 147.81 C 153.87 147.00 153.48 146.06 152.67 145.72 C 151.86 145.38 150.92 145.76 150.58 146.57 Z M 150.19 147.50 L 149.79 148.42 C 149.45 149.23 149.82 150.17 150.63 150.52 C 151.44 150.87 152.38 150.49 152.73 149.68 L 153.13 148.75 C 153.48 147.94 153.10 147.00 152.29 146.66 C 151.48 146.31 150.54 146.68 150.19 147.50 Z M 149.80 148.41 L 149.41 149.31 C 149.05 150.12 149.42 151.06 150.23 151.42 C 151.04 151.77 151.98 151.40 152.33 150.59 L 152.73 149.69 C 153.08 148.88 152.71 147.94 151.90 147.59 C 151.09 147.23 150.15 147.60 149.80 148.41 Z M 149.41 149.31 L 149.01 150.22 C 148.65 151.02 149.02 151.96 149.82 152.32 C 150.63 152.68 151.57 152.31 151.93 151.50 L 152.33 150.60 C 152.69 149.79 152.32 148.85 151.51 148.49 C 150.71 148.14 149.77 148.50 149.41 149.31 Z M 149.01 150.21 L 148.60 151.13 C 148.25 151.94 148.61 152.88 149.41 153.24 C 150.22 153.59 151.16 153.23 151.52 152.43 L 151.93 151.51 C 152.28 150.70 151.92 149.76 151.12 149.40 C 150.31 149.04 149.37 149.41 149.01 150.21 Z M 148.60 151.13 L 148.19 152.07 C 147.83 152.87 148.19 153.81 149.00 154.17 C 149.80 154.53 150.75 154.17 151.10 153.36 L 151.52 152.42 C 151.88 151.62 151.51 150.68 150.71 150.32 C 149.90 149.96 148.96 150.33 148.60 151.13 Z M 148.19 152.07 L 147.78 152.98 C 147.43 153.79 147.79 154.73 148.60 155.09 C 149.40 155.44 150.34 155.08 150.70 154.27 L 151.10 153.36 C 151.46 152.55 151.10 151.61 150.29 151.26 C 149.49 150.90 148.54 151.27 148.19 152.07 Z M 147.79 152.98 L 147.38 153.91 C 147.02 154.71 147.38 155.65 148.19 156.01 C 148.99 156.36 149.93 156.00 150.29 155.20 L 150.70 154.28 C 151.05 153.47 150.69 152.53 149.89 152.17 C 149.08 151.82 148.14 152.18 147.79 152.98 Z M 147.38 153.90 L 146.97 154.82 C 146.61 155.62 146.96 156.56 147.77 156.92 C 148.57 157.28 149.51 156.92 149.87 156.12 L 150.28 155.20 C 150.64 154.40 150.29 153.46 149.48 153.10 C 148.68 152.74 147.74 153.10 147.38 153.90 Z M 146.97 154.81 L 146.56 155.71 C 146.19 156.51 146.54 157.45 147.34 157.82 C 148.14 158.19 149.08 157.84 149.45 157.04 L 149.86 156.14 C 150.23 155.34 149.88 154.39 149.08 154.03 C 148.29 153.66 147.34 154.01 146.97 154.81 Z M 146.57 155.69 L 146.13 156.61 C 145.75 157.40 146.09 158.35 146.88 158.73 C 147.68 159.10 148.62 158.77 149.00 157.97 L 149.44 157.06 C 149.82 156.26 149.48 155.32 148.69 154.94 C 147.89 154.56 146.95 154.90 146.57 155.69 Z M 146.14 156.59 L 145.69 157.51 C 145.30 158.30 145.62 159.25 146.41 159.64 C 147.20 160.02 148.15 159.70 148.54 158.91 L 148.99 157.99 C 149.38 157.21 149.05 156.26 148.27 155.87 C 147.48 155.48 146.53 155.80 146.14 156.59 Z M 145.70 157.50 L 145.25 158.38 C 144.85 159.17 145.16 160.12 145.95 160.52 C 146.73 160.91 147.68 160.60 148.08 159.82 L 148.53 158.93 C 148.92 158.15 148.61 157.19 147.83 156.80 C 147.05 156.40 146.09 156.71 145.70 157.50 Z M 145.26 158.38 L 144.81 159.24 C 144.41 160.02 144.71 160.97 145.49 161.37 C 146.27 161.77 147.22 161.47 147.62 160.69 L 148.07 159.83 C 148.47 159.05 148.17 158.09 147.39 157.69 C 146.61 157.29 145.66 157.60 145.26 158.38 Z M 144.81 159.24 L 144.36 160.12 C 143.95 160.89 144.26 161.85 145.03 162.25 C 145.81 162.65 146.76 162.35 147.16 161.57 L 147.62 160.69 C 148.02 159.92 147.72 158.96 146.95 158.56 C 146.17 158.16 145.22 158.46 144.81 159.24 Z M 144.36 160.12 L 143.89 161.02 C 143.49 161.79 143.79 162.75 144.56 163.15 C 145.33 163.55 146.29 163.25 146.69 162.48 L 147.16 161.58 C 147.56 160.80 147.26 159.85 146.49 159.45 C 145.72 159.04 144.76 159.34 144.36 160.12 Z M 143.89 161.01 L 143.43 161.90 C 143.03 162.67 143.32 163.62 144.09 164.03 C 144.86 164.43 145.82 164.13 146.22 163.36 L 146.69 162.48 C 147.09 161.71 146.79 160.76 146.02 160.35 C 145.25 159.95 144.30 160.24 143.89 161.01 Z M 143.44 161.89 L 142.98 162.75 C 142.57 163.52 142.86 164.47 143.62 164.88 C 144.39 165.29 145.34 165.00 145.75 164.24 L 146.21 163.37 C 146.62 162.60 146.33 161.65 145.57 161.24 C 144.80 160.83 143.85 161.12 143.44 161.89 Z M 142.99 162.74 L 142.50 163.63 C 142.09 164.39 142.37 165.34 143.13 165.76 C 143.89 166.17 144.85 165.89 145.26 165.13 L 145.74 164.25 C 146.16 163.48 145.88 162.53 145.12 162.12 C 144.35 161.70 143.40 161.98 142.99 162.74 Z M 142.51 163.62 L 142.03 164.51 C 141.61 165.26 141.88 166.21 142.64 166.63 C 143.39 167.05 144.34 166.78 144.76 166.02 L 145.25 165.14 C 145.67 164.38 145.40 163.43 144.64 163.01 C 143.88 162.59 142.93 162.87 142.51 163.62 Z M 142.03 164.50 L 141.55 165.37 C 141.13 166.12 141.40 167.07 142.15 167.49 C 142.90 167.91 143.85 167.64 144.27 166.89 L 144.76 166.02 C 145.18 165.27 144.91 164.32 144.15 163.90 C 143.40 163.48 142.45 163.75 142.03 164.50 Z M 141.55 165.37 L 141.07 166.24 C 140.66 166.99 140.93 167.93 141.68 168.35 C 142.42 168.77 143.37 168.50 143.79 167.75 L 144.27 166.88 C 144.69 166.13 144.42 165.19 143.67 164.77 C 142.92 164.35 141.97 164.62 141.55 165.37 Z M 141.08 166.24 L 140.59 167.13 C 140.17 167.88 140.44 168.82 141.19 169.23 C 141.94 169.65 142.88 169.37 143.30 168.63 L 143.79 167.74 C 144.20 166.99 143.93 166.05 143.18 165.64 C 142.43 165.22 141.49 165.50 141.08 166.24 Z M 140.59 167.13 L 140.11 168.01 C 139.70 168.75 139.97 169.69 140.71 170.10 C 141.46 170.51 142.40 170.24 142.81 169.50 L 143.29 168.62 C 143.70 167.88 143.43 166.94 142.69 166.53 C 141.94 166.12 141.00 166.39 140.59 167.13 Z M 140.12 168.01 L 139.64 168.87 C 139.23 169.61 139.49 170.55 140.24 170.96 C 140.98 171.37 141.91 171.10 142.32 170.36 L 142.80 169.50 C 143.21 168.76 142.94 167.82 142.20 167.41 C 141.46 167.00 140.53 167.27 140.12 168.01 Z M 139.65 168.87 L 139.16 169.74 C 138.75 170.48 139.01 171.41 139.74 171.82 C 140.48 172.23 141.41 171.97 141.82 171.23 L 142.31 170.36 C 142.73 169.63 142.46 168.69 141.73 168.28 C 140.99 167.87 140.06 168.13 139.65 168.87 Z M 139.17 169.74 L 138.68 170.61 C 138.26 171.34 138.52 172.27 139.25 172.68 C 139.99 173.09 140.91 172.83 141.33 172.10 L 141.82 171.23 C 142.23 170.50 141.97 169.58 141.24 169.16 C 140.51 168.75 139.58 169.01 139.17 169.74 Z M 138.68 170.61 L 138.19 171.48 C 137.78 172.21 138.04 173.13 138.77 173.54 C 139.50 173.95 140.42 173.70 140.83 172.97 L 141.32 172.10 C 141.73 171.37 141.47 170.45 140.74 170.04 C 140.02 169.63 139.09 169.89 138.68 170.61 Z M 138.20 171.49 L 137.72 172.34 C 137.32 173.07 137.58 173.98 138.31 174.39 C 139.03 174.79 139.95 174.53 140.35 173.81 L 140.83 172.96 C 141.23 172.23 140.97 171.32 140.24 170.91 C 139.52 170.51 138.60 170.77 138.20 171.49 Z M 137.73 172.34 L 137.26 173.19 C 136.85 173.91 137.11 174.82 137.83 175.23 C 138.55 175.63 139.46 175.37 139.87 174.65 L 140.34 173.81 C 140.75 173.09 140.49 172.17 139.77 171.77 C 139.05 171.36 138.14 171.62 137.73 172.34 Z M 137.27 173.17 L 136.77 174.05 C 136.35 174.76 136.59 175.67 137.31 176.08 C 138.02 176.50 138.93 176.26 139.34 175.54 L 139.85 174.67 C 140.27 173.96 140.02 173.05 139.31 172.63 C 138.60 172.22 137.69 172.46 137.27 173.17 Z M 136.79 174.02 L 136.25 174.91 C 135.82 175.60 136.04 176.52 136.73 176.95 C 137.43 177.38 138.35 177.16 138.78 176.46 L 139.32 175.57 C 139.75 174.87 139.53 173.96 138.83 173.53 C 138.13 173.10 137.22 173.32 136.79 174.02 Z M 136.27 174.87 L 135.73 175.70 C 135.28 176.39 135.48 177.30 136.16 177.75 C 136.84 178.20 137.76 178.00 138.20 177.32 L 138.75 176.49 C 139.19 175.81 139.00 174.89 138.32 174.45 C 137.64 174.00 136.72 174.19 136.27 174.87 Z M 135.76 175.66 L 135.18 176.49 C 134.71 177.16 134.87 178.08 135.53 178.54 C 136.20 179.01 137.12 178.85 137.59 178.19 L 138.17 177.36 C 138.64 176.70 138.48 175.78 137.82 175.31 C 137.15 174.84 136.23 175.00 135.76 175.66 Z M 135.22 176.45 L 134.60 177.24 C 134.11 177.89 134.23 178.81 134.87 179.30 C 135.51 179.80 136.43 179.68 136.93 179.04 L 137.54 178.24 C 138.04 177.60 137.92 176.67 137.28 176.18 C 136.64 175.68 135.72 175.80 135.22 176.45 Z M 134.66 177.18 L 134.00 177.95 C 133.47 178.56 133.54 179.48 134.15 180.01 C 134.76 180.54 135.68 180.47 136.21 179.86 L 136.87 179.10 C 137.40 178.49 137.33 177.56 136.72 177.04 C 136.11 176.51 135.19 176.57 134.66 177.18 Z M 134.07 177.88 L 133.35 178.61 C 132.79 179.18 132.80 180.10 133.37 180.67 C 133.94 181.23 134.86 181.22 135.43 180.65 L 136.14 179.92 C 136.71 179.35 136.70 178.43 136.13 177.87 C 135.55 177.30 134.63 177.31 134.07 177.88 Z M 133.41 178.57 L 132.68 179.24 C 132.09 179.78 132.05 180.69 132.59 181.28 C 133.13 181.87 134.05 181.91 134.64 181.37 L 135.37 180.70 C 135.96 180.16 135.99 179.24 135.46 178.65 C 134.92 178.07 134.00 178.03 133.41 178.57 Z M 132.72 179.21 L 131.98 179.85 C 131.38 180.37 131.31 181.28 131.83 181.88 C 132.35 182.48 133.26 182.55 133.86 182.03 L 134.60 181.39 C 135.20 180.87 135.27 179.96 134.75 179.36 C 134.23 178.76 133.32 178.69 132.72 179.21 Z M 131.99 179.85 L 131.80 180.01 C 131.20 180.52 131.13 181.43 131.64 182.03 C 132.15 182.63 133.06 182.71 133.66 182.19 L 133.85 182.03 C 134.45 181.52 134.53 180.61 134.01 180.01 C 133.50 179.41 132.59 179.33 131.99 179.85 Z"
      fill="black"
      fill-rule="nonzero" /><path d="M 136.03 145.95 L 136.52 145.02 C 136.91 144.29 136.64 143.39 135.91 143.00 C 135.19 142.62 134.29 142.89 133.90 143.62 L 133.40 144.55 C 133.02 145.27 133.29 146.17 134.01 146.56 C 134.74 146.95 135.64 146.67 136.03 145.95 Z M 136.40 145.25 L 137.00 144.48 C 137.51 143.83 137.40 142.88 136.75 142.37 C 136.10 141.85 135.15 141.96 134.64 142.62 L 134.03 143.38 C 133.52 144.04 133.63 144.98 134.28 145.50 C 134.94 146.01 135.88 145.90 136.40 145.25 Z M 136.53 144.89 L 137.35 144.46 C 138.09 144.07 138.37 143.15 137.98 142.40 C 137.58 141.66 136.66 141.38 135.92 141.77 L 135.10 142.20 C 134.36 142.60 134.08 143.52 134.47 144.26 C 134.87 145.01 135.79 145.29 136.53 144.89 Z M 136.67 144.65 L 137.48 144.64 C 138.33 144.62 139.01 143.91 138.99 143.06 C 138.97 142.21 138.26 141.54 137.41 141.56 L 136.60 141.58 C 135.75 141.60 135.07 142.30 135.09 143.15 C 135.11 144.00 135.82 144.67 136.67 144.65 Z M 137.08 144.60 L 138.01 144.83 C 138.84 145.04 139.68 144.53 139.89 143.70 C 140.09 142.86 139.58 142.02 138.75 141.82 L 137.82 141.59 C 136.99 141.39 136.15 141.90 135.94 142.73 C 135.74 143.56 136.25 144.40 137.08 144.60 Z M 137.76 144.76 L 138.75 145.19 C 139.54 145.53 140.46 145.16 140.80 144.37 C 141.14 143.58 140.78 142.66 139.99 142.32 L 139.00 141.89 C 138.21 141.55 137.29 141.91 136.95 142.71 C 136.60 143.50 136.97 144.42 137.76 144.76 Z M 138.57 145.11 L 139.54 145.68 C 140.29 146.12 141.26 145.87 141.70 145.13 C 142.14 144.38 141.89 143.41 141.14 142.97 L 140.17 142.40 C 139.42 141.96 138.45 142.20 138.01 142.95 C 137.57 143.70 137.82 144.67 138.57 145.11 Z M 139.41 145.60 L 140.19 146.17 C 140.89 146.69 141.88 146.54 142.40 145.83 C 142.91 145.13 142.76 144.14 142.06 143.63 L 141.28 143.05 C 140.57 142.54 139.58 142.69 139.07 143.39 C 138.55 144.10 138.70 145.08 139.41 145.60 Z M 140.09 146.10 L 140.83 146.74 C 141.49 147.30 142.49 147.23 143.06 146.57 C 143.63 145.91 143.56 144.91 142.89 144.34 L 142.15 143.70 C 141.49 143.13 140.49 143.21 139.92 143.87 C 139.35 144.53 139.43 145.53 140.09 146.10 Z M 140.76 146.67 L 141.47 147.37 C 142.10 147.98 143.10 147.96 143.71 147.33 C 144.32 146.71 144.31 145.70 143.68 145.10 L 142.97 144.40 C 142.34 143.79 141.34 143.81 140.73 144.43 C 140.12 145.06 140.13 146.06 140.76 146.67 Z M 141.43 147.32 L 142.13 148.06 C 142.73 148.70 143.73 148.73 144.37 148.13 C 145.00 147.52 145.03 146.52 144.43 145.89 L 143.73 145.14 C 143.13 144.51 142.12 144.48 141.49 145.08 C 140.85 145.68 140.83 146.68 141.43 147.32 Z M 142.10 148.03 L 142.78 148.79 C 143.36 149.44 144.37 149.49 145.02 148.91 C 145.67 148.32 145.72 147.32 145.14 146.67 L 144.46 145.91 C 143.87 145.26 142.87 145.21 142.22 145.80 C 141.57 146.38 141.52 147.38 142.10 148.03 Z M 142.77 148.77 L 143.39 149.49 C 143.97 150.15 144.97 150.22 145.63 149.64 C 146.29 149.06 146.36 148.06 145.78 147.40 L 145.15 146.68 C 144.57 146.02 143.57 145.96 142.91 146.54 C 142.26 147.11 142.19 148.11 142.77 148.77 Z M 143.39 149.48 L 144.02 150.22 C 144.59 150.89 145.59 150.96 146.26 150.39 C 146.92 149.82 147.00 148.82 146.43 148.16 L 145.79 147.41 C 145.22 146.75 144.22 146.67 143.56 147.24 C 142.89 147.81 142.82 148.81 143.39 149.48 Z M 144.02 150.21 L 144.66 150.98 C 145.23 151.65 146.23 151.73 146.90 151.17 C 147.56 150.61 147.65 149.61 147.08 148.94 L 146.44 148.17 C 145.87 147.50 144.87 147.42 144.21 147.98 C 143.54 148.54 143.45 149.54 144.02 150.21 Z M 144.66 150.97 L 145.32 151.76 C 145.87 152.43 146.87 152.53 147.54 151.97 C 148.22 151.41 148.31 150.41 147.75 149.74 L 147.09 148.95 C 146.53 148.28 145.53 148.18 144.86 148.74 C 144.19 149.30 144.10 150.30 144.66 150.97 Z M 145.31 151.76 L 145.98 152.57 C 146.53 153.24 147.53 153.34 148.20 152.78 C 148.88 152.23 148.98 151.23 148.42 150.56 L 147.75 149.75 C 147.20 149.07 146.20 148.97 145.53 149.53 C 144.85 150.08 144.76 151.08 145.31 151.76 Z M 145.97 152.56 L 146.60 153.32 C 147.15 154.00 148.14 154.10 148.82 153.55 C 149.49 153.00 149.59 152.00 149.04 151.33 L 148.42 150.56 C 147.87 149.89 146.88 149.79 146.20 150.34 C 145.52 150.89 145.42 151.88 145.97 152.56 Z M 146.60 153.32 L 147.23 154.09 C 147.77 154.76 148.77 154.87 149.44 154.32 C 150.12 153.77 150.22 152.78 149.67 152.10 L 149.04 151.33 C 148.49 150.66 147.50 150.55 146.83 151.10 C 146.15 151.65 146.05 152.64 146.60 153.32 Z M 147.23 154.09 L 147.86 154.87 C 148.41 155.54 149.40 155.64 150.07 155.09 C 150.74 154.55 150.85 153.56 150.30 152.89 L 149.67 152.11 C 149.12 151.44 148.13 151.33 147.46 151.88 C 146.79 152.43 146.68 153.41 147.23 154.09 Z M 147.87 154.86 L 148.51 155.65 C 149.05 156.31 150.04 156.41 150.71 155.87 C 151.38 155.32 151.48 154.34 150.93 153.67 L 150.29 152.89 C 149.75 152.22 148.76 152.12 148.09 152.66 C 147.42 153.21 147.32 154.20 147.87 154.86 Z M 148.51 155.65 L 149.15 156.42 C 149.70 157.09 150.68 157.19 151.35 156.64 C 152.01 156.09 152.11 155.11 151.56 154.44 L 150.92 153.67 C 150.38 153.00 149.39 152.91 148.73 153.45 C 148.06 154.00 147.97 154.98 148.51 155.65 Z M 149.16 156.43 L 149.82 157.22 C 150.37 157.87 151.35 157.96 152.01 157.41 C 152.67 156.87 152.76 155.89 152.21 155.23 L 151.55 154.44 C 151.00 153.78 150.02 153.69 149.36 154.24 C 148.71 154.79 148.62 155.77 149.16 156.43 Z M 149.83 157.22 L 150.54 158.05 C 151.09 158.70 152.06 158.78 152.71 158.23 C 153.36 157.68 153.45 156.71 152.89 156.05 L 152.19 155.22 C 151.64 154.57 150.67 154.49 150.02 155.04 C 149.36 155.59 149.28 156.57 149.83 157.22 Z M 150.55 158.05 L 151.24 158.85 C 151.79 159.50 152.76 159.57 153.40 159.02 C 154.05 158.47 154.12 157.50 153.57 156.85 L 152.88 156.05 C 152.33 155.41 151.36 155.34 150.72 155.89 C 150.07 156.44 150.00 157.41 150.55 158.05 Z M 151.25 158.85 L 151.92 159.62 C 152.47 160.25 153.43 160.32 154.07 159.77 C 154.70 159.21 154.77 158.25 154.22 157.62 L 153.55 156.85 C 153.00 156.22 152.04 156.15 151.40 156.70 C 150.77 157.26 150.70 158.22 151.25 158.85 Z M 151.93 159.62 L 152.56 160.33 C 153.11 160.96 154.07 161.02 154.70 160.47 C 155.32 159.91 155.38 158.96 154.83 158.33 L 154.20 157.62 C 153.65 156.99 152.69 156.93 152.07 157.48 C 151.44 158.03 151.38 158.99 151.93 159.62 Z M 152.57 160.33 L 153.16 160.98 C 153.71 161.60 154.66 161.66 155.28 161.11 C 155.90 160.55 155.95 159.60 155.40 158.98 L 154.82 158.33 C 154.27 157.71 153.32 157.66 152.70 158.21 C 152.08 158.76 152.02 159.71 152.57 160.33 Z M 153.18 160.99 L 153.94 161.83 C 154.49 162.44 155.43 162.48 156.04 161.93 C 156.65 161.38 156.70 160.43 156.15 159.82 L 155.38 158.98 C 154.83 158.37 153.89 158.33 153.28 158.88 C 152.67 159.43 152.62 160.38 153.18 160.99 Z M 153.97 161.83 L 154.65 162.56 C 155.21 163.16 156.14 163.19 156.73 162.63 C 157.33 162.08 157.36 161.15 156.80 160.55 L 156.12 159.82 C 155.56 159.23 154.63 159.19 154.04 159.75 C 153.44 160.31 153.41 161.24 153.97 161.83 Z M 154.69 162.58 L 155.33 163.23 C 155.89 163.81 156.81 163.82 157.39 163.25 C 157.96 162.69 157.97 161.77 157.41 161.20 L 156.77 160.54 C 156.21 159.97 155.29 159.95 154.71 160.52 C 154.14 161.08 154.12 162.00 154.69 162.58 Z M 155.36 163.25 L 156.03 163.90 C 156.60 164.45 157.51 164.44 158.07 163.87 C 158.63 163.30 158.61 162.38 158.04 161.83 L 157.37 161.18 C 156.80 160.62 155.89 160.64 155.33 161.21 C 154.78 161.78 154.79 162.69 155.36 163.25 Z M 156.06 163.91 L 156.78 164.59 C 157.37 165.13 158.27 165.09 158.81 164.51 C 159.35 163.93 159.32 163.02 158.74 162.49 L 158.01 161.81 C 157.43 161.27 156.52 161.31 155.99 161.89 C 155.45 162.47 155.48 163.37 156.06 163.91 Z M 156.80 164.60 L 157.55 165.27 C 158.13 165.80 159.04 165.76 159.57 165.17 C 160.10 164.58 160.05 163.68 159.47 163.15 L 158.72 162.47 C 158.13 161.94 157.23 161.99 156.70 162.58 C 156.17 163.16 156.22 164.07 156.80 164.60 Z M 157.56 165.27 L 158.31 165.95 C 158.90 166.47 159.80 166.42 160.33 165.83 C 160.85 165.24 160.80 164.34 160.21 163.82 L 159.46 163.14 C 158.87 162.62 157.97 162.67 157.44 163.26 C 156.92 163.85 156.97 164.75 157.56 165.27 Z M 158.31 165.95 L 159.05 166.61 C 159.64 167.13 160.54 167.08 161.06 166.49 C 161.59 165.90 161.54 165.00 160.95 164.48 L 160.21 163.82 C 159.62 163.29 158.72 163.34 158.20 163.93 C 157.67 164.52 157.72 165.42 158.31 165.95 Z M 159.05 166.61 L 159.80 167.27 C 160.38 167.80 161.29 167.75 161.81 167.16 C 162.34 166.57 162.29 165.67 161.70 165.15 L 160.95 164.48 C 160.36 163.95 159.46 164.00 158.94 164.59 C 158.41 165.18 158.46 166.08 159.05 166.61 Z M 159.80 167.27 L 160.55 167.95 C 161.14 168.47 162.04 168.42 162.56 167.83 C 163.09 167.25 163.04 166.35 162.45 165.82 L 161.70 165.15 C 161.11 164.62 160.21 164.67 159.69 165.26 C 159.16 165.85 159.21 166.75 159.80 167.27 Z M 160.55 167.95 L 160.62 168.01 C 161.21 168.53 162.11 168.48 162.63 167.90 C 163.16 167.31 163.11 166.41 162.52 165.88 L 162.45 165.82 C 161.86 165.30 160.96 165.35 160.44 165.93 C 159.91 166.52 159.96 167.42 160.55 167.95 Z"
      fill="black"
      fill-rule="nonzero" /></svg>