<svg xmlns="http://www.w3.org/2000/svg" width="300" height="300" viewBox="0 0 300 300">
<path d="M 146.30 105.97 L 145.49 106.64 C 144.84 107.18 144.75 108.15 145.29 108.80 C 145.83 109.46 146.80 109.55 147.45 109.01 L 148.26 108.33 C 148.92 107.79 149.01 106.82 148.47 106.17 C 147.92 105.52 146.96 105.43 146.30 105.97 Z M 145.47 106.62 L 144.67 107.29 C 144.01 107.84 143.92 108.83 144.47 109.49 C 145.03 110.16 146.01 110.25 146.68 109.69 L 147.47 109.02 C 148.14 108.47 148.22 107.48 147.67 106.82 C 147.12 106.16 146.13 106.07 145.47 106.62 Z M 144.64 107.28 L 143.87 107.93 C 143.20 108.50 143.12 109.51 143.69 110.18 C 144.27 110.85 145.27 110.93 145.94 110.36 L 146.71 109.70 C 147.38 109.13 147.46 108.13 146.88 107.46 C 146.31 106.79 145.31 106.71 144.64 107.28 Z M 143.83 107.93 L 143.11 108.56 C 142.44 109.16 142.38 110.18 142.97 110.85 C 143.56 111.52 144.58 111.59 145.26 111.00 L 145.98 110.36 C 146.65 109.77 146.72 108.74 146.12 108.07 C 145.53 107.40 144.51 107.34 143.83 107.93 Z M 143.07 108.57 L 142.36 109.23 C 141.69 109.85 141.65 110.89 142.27 111.55 C 142.89 112.22 143.93 112.26 144.59 111.64 L 145.30 110.99 C 145.97 110.37 146.01 109.33 145.39 108.66 C 144.78 107.99 143.73 107.95 143.07 108.57 Z M 142.31 109.26 L 141.57 109.99 C 140.92 110.64 140.92 111.68 141.56 112.33 C 142.20 112.98 143.25 112.99 143.90 112.34 L 144.64 111.61 C 145.29 110.97 145.30 109.92 144.65 109.27 C 144.01 108.62 142.96 108.62 142.31 109.26 Z M 141.54 110.03 L 140.86 110.74 C 140.23 111.40 140.26 112.45 140.92 113.08 C 141.59 113.71 142.63 113.68 143.26 113.02 L 143.94 112.31 C 144.57 111.64 144.54 110.60 143.88 109.97 C 143.21 109.34 142.17 109.37 141.54 110.03 Z M 140.84 110.77 L 140.19 111.48 C 139.58 112.15 139.63 113.20 140.30 113.81 C 140.98 114.43 142.02 114.38 142.64 113.70 L 143.28 112.99 C 143.90 112.32 143.85 111.27 143.18 110.66 C 142.50 110.04 141.46 110.09 140.84 110.77 Z M 140.19 111.48 L 139.56 112.19 C 138.95 112.86 139.00 113.91 139.68 114.52 C 140.35 115.13 141.40 115.07 142.01 114.40 L 142.64 113.70 C 143.25 113.02 143.20 111.98 142.52 111.36 C 141.84 110.75 140.80 110.81 140.19 111.48 Z M 139.56 112.18 L 138.92 112.89 C 138.31 113.57 138.36 114.61 139.03 115.22 C 139.71 115.83 140.75 115.78 141.36 115.11 L 142.00 114.40 C 142.61 113.72 142.56 112.68 141.89 112.07 C 141.21 111.46 140.17 111.51 139.56 112.18 Z M 138.92 112.89 L 138.25 113.63 C 137.64 114.30 137.69 115.34 138.36 115.96 C 139.03 116.57 140.07 116.52 140.68 115.85 L 141.36 115.11 C 141.97 114.44 141.92 113.39 141.25 112.78 C 140.58 112.17 139.53 112.22 138.92 112.89 Z M 138.25 113.63 L 137.54 114.40 C 136.93 115.07 136.98 116.11 137.65 116.73 C 138.32 117.34 139.36 117.29 139.97 116.62 L 140.68 115.85 C 141.29 115.18 141.25 114.14 140.58 113.52 C 139.91 112.91 138.87 112.96 138.25 113.63 Z M 137.55 114.40 L 136.88 115.13 C 136.26 115.80 136.31 116.84 136.98 117.45 C 137.64 118.07 138.68 118.02 139.30 117.36 L 139.97 116.62 C 140.58 115.96 140.54 114.92 139.87 114.30 C 139.20 113.69 138.16 113.73 137.55 114.40 Z M 136.88 115.13 L 136.24 115.83 C 135.62 116.50 135.66 117.54 136.33 118.15 C 137.00 118.76 138.03 118.72 138.65 118.06 L 139.29 117.36 C 139.91 116.69 139.86 115.65 139.20 115.04 C 138.53 114.42 137.49 114.47 136.88 115.13 Z M 136.24 115.83 L 135.57 116.56 C 134.95 117.22 134.99 118.26 135.66 118.87 C 136.32 119.49 137.36 119.45 137.97 118.78 L 138.64 118.06 C 139.26 117.39 139.22 116.36 138.55 115.74 C 137.89 115.13 136.85 115.17 136.24 115.83 Z M 135.57 116.56 L 134.87 117.31 C 134.26 117.97 134.30 119.01 134.96 119.62 C 135.62 120.24 136.66 120.20 137.27 119.53 L 137.97 118.78 C 138.58 118.12 138.55 117.08 137.88 116.47 C 137.22 115.86 136.18 115.90 135.57 116.56 Z M 134.88 117.31 L 134.16 118.08 C 133.54 118.75 133.58 119.78 134.24 120.39 C 134.90 121.01 135.94 120.97 136.55 120.31 L 137.27 119.53 C 137.88 118.87 137.85 117.84 137.19 117.22 C 136.53 116.61 135.49 116.65 134.88 117.31 Z M 134.16 118.08 L 133.49 118.80 C 132.88 119.46 132.91 120.50 133.57 121.11 C 134.23 121.72 135.26 121.69 135.88 121.03 L 136.55 120.31 C 137.16 119.65 137.12 118.62 136.47 118.00 C 135.81 117.39 134.77 117.43 134.16 118.08 Z M 133.49 118.80 L 132.83 119.51 C 132.22 120.17 132.25 121.20 132.91 121.81 C 133.57 122.43 134.60 122.39 135.21 121.73 L 135.87 121.03 C 136.49 120.37 136.45 119.34 135.79 118.72 C 135.14 118.11 134.11 118.15 133.49 118.80 Z M 132.83 119.51 L 132.16 120.24 C 131.55 120.89 131.58 121.92 132.24 122.53 C 132.89 123.15 133.92 123.11 134.54 122.46 L 135.21 121.73 C 135.83 121.08 135.79 120.05 135.13 119.43 C 134.48 118.82 133.45 118.86 132.83 119.51 Z M 132.16 120.24 L 131.47 120.97 C 130.86 121.63 130.89 122.66 131.55 123.27 C 132.20 123.88 133.23 123.85 133.84 123.19 L 134.53 122.46 C 135.15 121.80 135.11 120.77 134.46 120.16 C 133.80 119.55 132.77 119.58 132.16 120.24 Z M 131.47 120.98 L 130.77 121.73 C 130.16 122.38 130.19 123.41 130.84 124.02 C 131.50 124.63 132.52 124.60 133.14 123.94 L 133.84 123.19 C 134.45 122.54 134.42 121.51 133.77 120.90 C 133.11 120.29 132.09 120.32 131.47 120.98 Z M 130.77 121.73 L 130.06 122.48 C 129.45 123.14 129.48 124.16 130.14 124.77 C 130.79 125.38 131.81 125.35 132.43 124.70 L 133.13 123.94 C 133.75 123.29 133.71 122.27 133.06 121.66 C 132.41 121.04 131.38 121.08 130.77 121.73 Z M 130.07 122.48 L 129.40 123.19 C 128.79 123.84 128.82 124.86 129.47 125.48 C 130.13 126.09 131.15 126.05 131.76 125.40 L 132.42 124.70 C 133.03 124.05 133.00 123.02 132.35 122.41 C 131.70 121.80 130.68 121.83 130.07 122.48 Z M 129.41 123.19 L 128.73 123.91 C 128.12 124.56 128.15 125.58 128.80 126.19 C 129.45 126.80 130.47 126.77 131.08 126.12 L 131.76 125.40 C 132.37 124.75 132.34 123.73 131.69 123.12 C 131.04 122.51 130.02 122.54 129.41 123.19 Z M 128.74 123.91 L 128.05 124.64 C 127.44 125.28 127.48 126.30 128.12 126.91 C 128.77 127.52 129.79 127.49 130.40 126.84 L 131.08 126.12 C 131.69 125.47 131.66 124.45 131.01 123.84 C 130.36 123.23 129.34 123.26 128.74 123.91 Z M 128.06 124.64 L 127.37 125.37 C 126.76 126.02 126.79 127.03 127.43 127.64 C 128.08 128.25 129.10 128.22 129.70 127.57 L 130.40 126.84 C 131.00 126.19 130.97 125.18 130.33 124.57 C 129.68 123.96 128.66 123.99 128.06 124.64 Z M 127.37 125.37 L 126.67 126.12 C 126.06 126.76 126.09 127.78 126.74 128.38 C 127.38 128.99 128.40 128.96 129.00 128.31 L 129.70 127.57 C 130.31 126.93 130.28 125.91 129.63 125.31 C 128.99 124.70 127.97 124.73 127.37 125.37 Z M 126.67 126.12 L 125.96 126.87 C 125.36 127.51 125.39 128.52 126.03 129.13 C 126.67 129.74 127.69 129.71 128.29 129.06 L 129.00 128.31 C 129.61 127.67 129.58 126.66 128.93 126.05 C 128.29 125.44 127.28 125.47 126.67 126.12 Z M 125.97 126.87 L 125.30 127.58 C 124.70 128.22 124.73 129.23 125.37 129.83 C 126.01 130.44 127.02 130.41 127.62 129.77 L 128.29 129.06 C 128.90 128.42 128.87 127.41 128.22 126.80 C 127.58 126.20 126.57 126.23 125.97 126.87 Z M 125.30 127.58 L 124.63 128.29 C 124.03 128.93 124.06 129.94 124.70 130.54 C 125.34 131.15 126.34 131.12 126.95 130.48 L 127.62 129.76 C 128.23 129.12 128.20 128.12 127.56 127.51 C 126.92 126.91 125.91 126.94 125.30 127.58 Z M 124.63 128.29 L 123.95 129.01 C 123.35 129.65 123.38 130.66 124.02 131.26 C 124.66 131.86 125.66 131.83 126.27 131.20 L 126.95 130.48 C 127.55 129.84 127.52 128.83 126.88 128.23 C 126.24 127.63 125.24 127.66 124.63 128.29 Z M 123.96 129.02 L 123.27 129.74 C 122.67 130.38 122.70 131.38 123.33 131.99 C 123.97 132.59 124.97 132.56 125.57 131.92 L 126.26 131.19 C 126.86 130.56 126.84 129.55 126.20 128.95 C 125.56 128.35 124.56 128.38 123.96 129.02 Z M 123.27 129.75 L 122.58 130.48 C 121.98 131.12 122.00 132.12 122.64 132.72 C 123.27 133.32 124.28 133.29 124.88 132.66 L 125.57 131.92 C 126.17 131.28 126.14 130.28 125.51 129.68 C 124.87 129.08 123.87 129.11 123.27 129.75 Z M 122.58 130.48 L 121.88 131.23 C 121.28 131.86 121.30 132.86 121.94 133.46 C 122.57 134.06 123.57 134.03 124.17 133.40 L 124.87 132.65 C 125.47 132.02 125.44 131.02 124.81 130.42 C 124.18 129.82 123.18 129.85 122.58 130.48 Z M 121.88 131.23 L 121.18 131.97 C 120.58 132.60 120.60 133.60 121.24 134.20 C 121.87 134.80 122.86 134.77 123.46 134.14 L 124.17 133.40 C 124.76 132.76 124.74 131.77 124.11 131.17 C 123.47 130.57 122.48 130.60 121.88 131.23 Z M 121.18 131.98 L 120.48 132.71 C 119.88 133.34 119.91 134.34 120.54 134.93 C 121.17 135.53 122.17 135.50 122.76 134.87 L 123.46 134.14 C 124.06 133.51 124.03 132.51 123.40 131.91 C 122.77 131.32 121.77 131.35 121.18 131.98 Z M 120.48 132.72 L 119.78 133.46 C 119.19 134.08 119.22 135.08 119.84 135.67 C 120.47 136.27 121.46 136.24 122.06 135.61 L 122.76 134.87 C 123.35 134.24 123.33 133.25 122.70 132.65 C 122.07 132.06 121.08 132.09 120.48 132.72 Z M 119.78 133.46 L 119.09 134.20 C 118.49 134.82 118.52 135.81 119.15 136.41 C 119.78 137.00 120.77 136.97 121.36 136.34 L 122.06 135.61 C 122.65 134.98 122.62 133.99 121.99 133.40 C 121.37 132.80 120.38 132.83 119.78 133.46 Z M 119.09 134.20 L 118.40 134.93 C 117.81 135.56 117.84 136.55 118.46 137.14 C 119.09 137.73 120.08 137.70 120.67 137.07 L 121.36 136.34 C 121.95 135.71 121.92 134.73 121.29 134.14 C 120.67 133.55 119.68 133.57 119.09 134.20 Z M 118.40 134.94 L 117.72 135.66 C 117.13 136.29 117.16 137.27 117.79 137.86 C 118.42 138.45 119.40 138.42 119.99 137.79 L 120.67 137.07 C 121.26 136.44 121.22 135.46 120.60 134.87 C 119.97 134.28 118.99 134.31 118.40 134.94 Z M 117.72 135.67 L 117.06 136.37 C 116.48 137.00 116.51 137.98 117.14 138.57 C 117.76 139.15 118.74 139.12 119.33 138.49 L 119.99 137.78 C 120.57 137.16 120.54 136.18 119.91 135.59 C 119.29 135.01 118.31 135.04 117.72 135.67 Z M 117.06 136.38 L 116.36 137.14 C 115.78 137.76 115.81 138.74 116.44 139.32 C 117.06 139.91 118.04 139.87 118.62 139.24 L 119.33 138.49 C 119.91 137.86 119.87 136.88 119.25 136.30 C 118.62 135.72 117.64 135.75 117.06 136.38 Z M 116.36 137.15 L 115.64 137.92 C 115.07 138.55 115.11 139.52 115.73 140.10 C 116.36 140.68 117.33 140.64 117.91 140.01 L 118.62 139.24 C 119.20 138.61 119.16 137.63 118.54 137.06 C 117.91 136.48 116.93 136.52 116.36 137.15 Z M 115.64 137.93 L 114.96 138.68 C 114.38 139.30 114.42 140.28 115.05 140.85 C 115.68 141.42 116.65 141.38 117.22 140.75 L 117.91 140.00 C 118.49 139.38 118.44 138.40 117.82 137.83 C 117.19 137.26 116.22 137.30 115.64 137.93 Z M 114.96 138.68 L 114.29 139.41 C 113.72 140.04 113.77 141.01 114.39 141.58 C 115.02 142.15 115.99 142.10 116.56 141.48 L 117.22 140.75 C 117.79 140.12 117.75 139.15 117.12 138.58 C 116.50 138.01 115.53 138.06 114.96 138.68 Z M 114.29 139.42 L 113.65 140.13 C 113.08 140.76 113.13 141.73 113.75 142.29 C 114.38 142.86 115.34 142.81 115.91 142.19 L 116.56 141.47 C 117.12 140.85 117.08 139.88 116.45 139.31 C 115.83 138.75 114.86 138.79 114.29 139.42 Z M 113.65 140.14 L 113.02 140.84 C 112.45 141.46 112.50 142.42 113.13 142.99 C 113.75 143.55 114.71 143.50 115.28 142.88 L 115.91 142.18 C 116.47 141.56 116.42 140.59 115.80 140.03 C 115.17 139.47 114.21 139.51 113.65 140.14 Z M 113.02 140.84 L 112.33 141.61 C 111.77 142.23 111.82 143.19 112.44 143.75 C 113.06 144.32 114.02 144.27 114.58 143.64 L 115.28 142.87 C 115.84 142.25 115.79 141.29 115.16 140.73 C 114.54 140.17 113.58 140.22 113.02 140.84 Z M 112.33 141.61 L 111.63 142.39 C 111.08 143.01 111.13 143.97 111.75 144.53 C 112.37 145.08 113.33 145.03 113.89 144.41 L 114.58 143.64 C 115.14 143.01 115.09 142.06 114.47 141.50 C 113.84 140.94 112.89 140.99 112.33 141.61 Z M 111.64 142.39 L 110.96 143.15 C 110.41 143.77 110.46 144.72 111.08 145.28 C 111.70 145.83 112.66 145.78 113.21 145.16 L 113.89 144.40 C 114.44 143.78 114.39 142.83 113.77 142.27 C 113.14 141.72 112.19 141.77 111.64 142.39 Z M 110.96 143.16 L 110.31 143.89 C 109.76 144.51 109.82 145.46 110.44 146.01 C 111.06 146.56 112.01 146.51 112.56 145.88 L 113.21 145.15 C 113.76 144.53 113.71 143.58 113.09 143.03 C 112.46 142.48 111.51 142.53 110.96 143.16 Z M 110.31 143.90 L 109.69 144.61 C 109.14 145.23 109.20 146.18 109.83 146.72 C 110.45 147.27 111.40 147.21 111.94 146.59 L 112.57 145.88 C 113.11 145.25 113.05 144.31 112.43 143.76 C 111.80 143.21 110.86 143.28 110.31 143.90 Z M 109.68 144.62 L 109.05 145.36 C 108.51 145.98 108.58 146.93 109.20 147.47 C 109.83 148.01 110.77 147.94 111.31 147.31 L 111.95 146.57 C 112.49 145.95 112.42 145.01 111.79 144.47 C 111.17 143.93 110.22 144.00 109.68 144.62 Z M 109.03 145.38 L 108.41 146.13 C 107.88 146.76 107.97 147.70 108.60 148.23 C 109.24 148.76 110.18 148.67 110.70 148.04 L 111.32 147.29 C 111.85 146.65 111.76 145.71 111.13 145.19 C 110.50 144.66 109.56 144.75 109.03 145.38 Z M 108.38 146.17 L 107.78 146.94 C 107.28 147.59 107.40 148.52 108.05 149.03 C 108.70 149.53 109.63 149.41 110.13 148.76 L 110.73 147.99 C 111.23 147.35 111.11 146.41 110.47 145.91 C 109.82 145.41 108.88 145.52 108.38 146.17 Z M 107.75 147.00 L 107.17 147.82 C 106.70 148.49 106.86 149.41 107.53 149.88 C 108.20 150.35 109.12 150.19 109.59 149.53 L 110.17 148.71 C 110.64 148.04 110.48 147.11 109.81 146.64 C 109.14 146.17 108.22 146.33 107.75 147.00 Z M 107.13 147.89 L 106.58 148.76 C 106.14 149.45 106.35 150.37 107.04 150.80 C 107.73 151.24 108.64 151.03 109.08 150.34 L 109.63 149.46 C 110.07 148.77 109.86 147.86 109.17 147.42 C 108.48 146.99 107.57 147.20 107.13 147.89 Z M 106.55 148.82 L 106.09 149.63 C 105.69 150.33 105.94 151.23 106.65 151.63 C 107.36 152.03 108.25 151.79 108.66 151.08 L 109.11 150.28 C 109.51 149.57 109.26 148.67 108.55 148.27 C 107.85 147.87 106.95 148.12 106.55 148.82 Z M 106.07 149.67 L 105.62 150.53 C 105.25 151.24 105.52 152.13 106.24 152.51 C 106.96 152.89 107.85 152.61 108.22 151.89 L 108.67 151.04 C 109.05 150.32 108.78 149.43 108.06 149.05 C 107.34 148.67 106.45 148.95 106.07 149.67 Z M 105.61 150.56 L 105.16 151.46 C 104.80 152.18 105.10 153.06 105.82 153.42 C 106.55 153.78 107.43 153.49 107.79 152.76 L 108.24 151.86 C 108.60 151.14 108.30 150.26 107.58 149.90 C 106.85 149.54 105.97 149.83 105.61 150.56 Z M 105.16 151.48 L 104.71 152.41 C 104.36 153.14 104.67 154.01 105.40 154.36 C 106.13 154.71 107.00 154.40 107.35 153.67 L 107.79 152.74 C 108.14 152.01 107.83 151.14 107.11 150.79 C 106.38 150.44 105.50 150.75 105.16 151.48 Z M 104.71 152.43 L 104.26 153.38 C 103.92 154.11 104.24 154.98 104.97 155.32 C 105.70 155.66 106.56 155.34 106.91 154.61 L 107.35 153.66 C 107.69 152.93 107.38 152.06 106.65 151.72 C 105.92 151.38 105.05 151.70 104.71 152.43 Z M 104.26 153.38 L 104.02 153.90 C 103.69 154.63 104.00 155.49 104.73 155.83 C 105.46 156.17 106.33 155.85 106.67 155.12 L 106.91 154.61 C 107.24 153.88 106.93 153.01 106.20 152.68 C 105.47 152.34 104.60 152.65 104.26 153.38 Z"
      fill="black"
      fill-rule="nonzero" /><path d="M 123.09 144.68 L 123.53 145.61 C 123.88 146.34 124.74 146.64 125.46 146.30 C 126.19 145.95 126.49 145.09 126.15 144.36 L 125.70 143.43 C 125.36 142.71 124.49 142.41 123.77 142.75 C 123.05 143.10 122.74 143.96 123.09 144.68 Z M 123.51 145.60 L 123.94 146.52 C 124.28 147.26 125.15 147.57 125.88 147.24 C 126.61 146.90 126.93 146.03 126.59 145.29 L 126.17 144.37 C 125.83 143.64 124.96 143.32 124.23 143.66 C 123.49 144.00 123.17 144.87 123.51 145.60 Z M 123.91 146.49 L 124.30 147.40 C 124.63 148.14 125.49 148.49 126.24 148.16 C 126.99 147.84 127.33 146.97 127.01 146.23 L 126.62 145.32 C 126.29 144.58 125.43 144.23 124.68 144.56 C 123.93 144.88 123.59 145.75 123.91 146.49 Z M 124.27 147.34 L 124.62 148.25 C 124.91 149.02 125.77 149.40 126.54 149.11 C 127.30 148.81 127.69 147.95 127.39 147.19 L 127.04 146.28 C 126.75 145.51 125.89 145.13 125.12 145.43 C 124.36 145.72 123.98 146.58 124.27 147.34 Z M 124.58 148.18 L 124.88 149.11 C 125.14 149.90 125.98 150.33 126.77 150.08 C 127.55 149.82 127.98 148.98 127.73 148.20 L 127.43 147.26 C 127.18 146.47 126.33 146.04 125.55 146.30 C 124.76 146.55 124.33 147.39 124.58 148.18 Z M 124.85 149.03 L 125.09 149.99 C 125.30 150.80 126.13 151.28 126.93 151.07 C 127.74 150.86 128.22 150.04 128.02 149.23 L 127.77 148.27 C 127.56 147.47 126.73 146.98 125.93 147.19 C 125.12 147.40 124.64 148.23 124.85 149.03 Z M 125.07 149.92 L 125.27 150.90 C 125.44 151.73 126.25 152.25 127.07 152.08 C 127.89 151.91 128.42 151.11 128.25 150.28 L 128.04 149.30 C 127.87 148.48 127.07 147.95 126.25 148.12 C 125.42 148.29 124.90 149.10 125.07 149.92 Z M 125.25 150.85 L 125.40 151.73 C 125.54 152.56 126.33 153.12 127.17 152.98 C 128.00 152.84 128.56 152.05 128.42 151.21 L 128.27 150.34 C 128.13 149.50 127.34 148.94 126.50 149.09 C 125.67 149.23 125.11 150.02 125.25 150.85 Z M 125.39 151.68 L 125.52 152.63 C 125.63 153.47 126.41 154.06 127.25 153.94 C 128.09 153.83 128.68 153.05 128.56 152.21 L 128.43 151.26 C 128.32 150.42 127.54 149.83 126.70 149.95 C 125.86 150.06 125.27 150.84 125.39 151.68 Z M 125.50 152.59 L 125.62 153.62 C 125.71 154.47 126.47 155.09 127.32 154.99 C 128.17 154.90 128.78 154.14 128.69 153.29 L 128.58 152.26 C 128.48 151.41 127.72 150.79 126.87 150.89 C 126.03 150.98 125.41 151.74 125.50 152.59 Z M 125.61 153.58 L 125.70 154.71 C 125.76 155.56 126.51 156.20 127.37 156.13 C 128.22 156.06 128.86 155.32 128.79 154.46 L 128.70 153.33 C 128.63 152.48 127.88 151.84 127.03 151.91 C 126.17 151.98 125.54 152.73 125.61 153.58 Z M 125.68 154.68 L 125.74 155.67 C 125.79 156.53 126.53 157.19 127.39 157.14 C 128.25 157.09 128.91 156.35 128.86 155.49 L 128.80 154.50 C 128.75 153.63 128.01 152.97 127.15 153.02 C 126.29 153.07 125.63 153.81 125.68 154.68 Z M 125.72 155.65 L 125.76 156.68 C 125.80 157.55 126.54 158.22 127.41 158.19 C 128.28 158.15 128.96 157.41 128.92 156.54 L 128.88 155.51 C 128.84 154.64 128.10 153.96 127.23 154.00 C 126.36 154.04 125.68 154.77 125.72 155.65 Z M 125.75 156.66 L 125.78 157.69 C 125.81 158.57 126.54 159.27 127.43 159.24 C 128.31 159.21 129.00 158.47 128.97 157.59 L 128.94 156.56 C 128.91 155.67 128.17 154.98 127.29 155.01 C 126.41 155.04 125.72 155.78 125.75 156.66 Z M 125.76 157.68 L 125.78 158.68 C 125.81 159.58 126.55 160.28 127.44 160.26 C 128.33 160.24 129.04 159.50 129.01 158.61 L 128.99 157.60 C 128.97 156.71 128.23 156.01 127.34 156.03 C 126.45 156.05 125.74 156.79 125.76 157.68 Z M 125.77 158.67 L 125.78 159.62 C 125.80 160.52 126.54 161.24 127.44 161.22 C 128.35 161.21 129.06 160.46 129.05 159.56 L 129.03 158.62 C 129.02 157.72 128.27 157.00 127.37 157.01 C 126.47 157.03 125.75 157.77 125.77 158.67 Z M 125.77 159.61 L 125.79 160.72 C 125.80 161.63 126.54 162.36 127.45 162.35 C 128.36 162.34 129.08 161.59 129.07 160.69 L 129.06 159.57 C 129.05 158.66 128.30 157.94 127.40 157.95 C 126.49 157.96 125.76 158.70 125.77 159.61 Z M 125.78 160.71 L 125.79 161.72 C 125.79 162.63 126.53 163.36 127.44 163.36 C 128.35 163.35 129.08 162.62 129.08 161.71 L 129.07 160.70 C 129.07 159.79 128.33 159.06 127.42 159.06 C 126.51 159.06 125.78 159.80 125.78 160.71 Z M 125.79 161.71 L 125.78 162.64 C 125.78 163.55 126.51 164.29 127.42 164.30 C 128.33 164.30 129.07 163.57 129.07 162.66 L 129.08 161.72 C 129.08 160.81 128.35 160.07 127.44 160.07 C 126.53 160.06 125.79 160.80 125.79 161.71 Z M 125.78 162.63 L 125.77 163.55 C 125.75 164.46 126.48 165.21 127.39 165.22 C 128.30 165.24 129.05 164.51 129.06 163.60 L 129.08 162.68 C 129.09 161.77 128.36 161.02 127.45 161.01 C 126.54 160.99 125.79 161.72 125.78 162.63 Z M 125.77 163.53 L 125.74 164.50 C 125.71 165.41 126.43 166.17 127.34 166.19 C 128.25 166.22 129.01 165.50 129.04 164.59 L 129.06 163.62 C 129.09 162.71 128.37 161.95 127.46 161.93 C 126.55 161.90 125.79 162.62 125.77 163.53 Z M 125.74 164.46 L 125.69 165.46 C 125.65 166.37 126.35 167.14 127.26 167.19 C 128.17 167.23 128.94 166.53 128.99 165.62 L 129.04 164.62 C 129.08 163.71 128.38 162.94 127.47 162.90 C 126.56 162.85 125.78 163.55 125.74 164.46 Z M 125.69 165.41 L 125.61 166.43 C 125.54 167.33 126.22 168.13 127.13 168.20 C 128.04 168.27 128.83 167.60 128.90 166.69 L 128.99 165.67 C 129.06 164.76 128.38 163.96 127.47 163.89 C 126.56 163.82 125.76 164.50 125.69 165.41 Z M 125.62 166.36 L 125.50 167.36 C 125.39 168.27 126.04 169.09 126.95 169.20 C 127.85 169.30 128.67 168.66 128.78 167.75 L 128.90 166.75 C 129.01 165.84 128.36 165.02 127.45 164.91 C 126.54 164.81 125.72 165.46 125.62 166.36 Z M 125.51 167.30 L 125.35 168.27 C 125.21 169.17 125.83 170.02 126.73 170.16 C 127.64 170.30 128.48 169.68 128.62 168.78 L 128.77 167.81 C 128.91 166.91 128.30 166.06 127.39 165.92 C 126.49 165.78 125.65 166.40 125.51 167.30 Z M 125.36 168.22 L 125.18 169.21 C 125.01 170.10 125.60 170.97 126.50 171.14 C 127.40 171.30 128.26 170.71 128.43 169.81 L 128.61 168.83 C 128.78 167.93 128.19 167.07 127.29 166.90 C 126.39 166.73 125.53 167.33 125.36 168.22 Z M 125.19 169.17 L 124.98 170.16 C 124.79 171.06 125.36 171.93 126.25 172.12 C 127.15 172.31 128.03 171.74 128.21 170.85 L 128.42 169.85 C 128.61 168.96 128.04 168.08 127.15 167.89 C 126.25 167.70 125.37 168.28 125.19 169.17 Z M 124.98 170.14 L 124.76 171.12 C 124.56 172.01 125.11 172.89 126.00 173.10 C 126.89 173.30 127.78 172.74 127.98 171.85 L 128.21 170.87 C 128.41 169.98 127.85 169.10 126.96 168.89 C 126.07 168.69 125.19 169.25 124.98 170.14 Z M 124.76 171.10 L 124.53 172.06 C 124.32 172.94 124.87 173.84 125.76 174.05 C 126.64 174.26 127.54 173.72 127.75 172.83 L 127.98 171.87 C 128.19 170.98 127.65 170.09 126.76 169.88 C 125.87 169.66 124.98 170.21 124.76 171.10 Z M 124.54 172.05 L 124.30 173.01 C 124.08 173.90 124.62 174.80 125.50 175.02 C 126.39 175.24 127.29 174.70 127.51 173.81 L 127.75 172.84 C 127.97 171.95 127.43 171.06 126.54 170.84 C 125.65 170.62 124.76 171.16 124.54 172.05 Z M 124.30 173.01 L 124.05 173.99 C 123.83 174.87 124.37 175.77 125.25 175.99 C 126.14 176.22 127.04 175.68 127.26 174.79 L 127.51 173.81 C 127.73 172.93 127.19 172.03 126.30 171.81 C 125.42 171.58 124.52 172.12 124.30 173.01 Z M 124.05 173.99 L 123.80 174.98 C 123.58 175.86 124.12 176.76 125.01 176.98 C 125.89 177.21 126.79 176.67 127.01 175.78 L 127.26 174.79 C 127.48 173.91 126.94 173.01 126.06 172.79 C 125.17 172.56 124.27 173.10 124.05 173.99 Z M 123.80 174.98 L 123.56 175.96 C 123.34 176.85 123.88 177.75 124.77 177.97 C 125.65 178.19 126.55 177.65 126.77 176.76 L 127.01 175.78 C 127.23 174.89 126.69 173.99 125.81 173.77 C 124.92 173.55 124.02 174.10 123.80 174.98 Z M 123.56 175.97 L 123.32 176.95 C 123.10 177.84 123.64 178.73 124.53 178.95 C 125.41 179.17 126.31 178.62 126.53 177.74 L 126.77 176.76 C 126.99 175.87 126.44 174.98 125.56 174.76 C 124.67 174.54 123.78 175.08 123.56 175.97 Z M 123.32 176.95 L 123.08 177.92 C 122.86 178.81 123.41 179.70 124.29 179.92 C 125.18 180.14 126.07 179.60 126.29 178.71 L 126.53 177.74 C 126.74 176.85 126.20 175.96 125.31 175.74 C 124.43 175.52 123.54 176.07 123.32 176.95 Z M 123.08 177.92 L 122.85 178.87 C 122.63 179.76 123.17 180.65 124.06 180.87 C 124.94 181.09 125.84 180.54 126.05 179.66 L 126.29 178.71 C 126.50 177.83 125.96 176.93 125.08 176.72 C 124.19 176.50 123.30 177.04 123.08 177.92 Z M 122.85 178.87 L 122.60 179.88 C 122.38 180.77 122.92 181.66 123.81 181.88 C 124.69 182.10 125.58 181.56 125.80 180.67 L 126.05 179.66 C 126.27 178.78 125.73 177.89 124.85 177.67 C 123.96 177.45 123.07 177.99 122.85 178.87 Z M 122.60 179.88 L 122.36 180.87 C 122.14 181.75 122.67 182.64 123.56 182.86 C 124.44 183.08 125.33 182.55 125.55 181.67 L 125.80 180.68 C 126.02 179.80 125.48 178.90 124.60 178.68 C 123.72 178.46 122.82 179.00 122.60 179.88 Z M 122.36 180.86 L 122.12 181.81 C 121.90 182.69 122.43 183.59 123.31 183.81 C 124.19 184.04 125.08 183.51 125.31 182.62 L 125.55 181.67 C 125.77 180.79 125.24 179.90 124.36 179.67 C 123.48 179.45 122.59 179.98 122.36 180.86 Z M 122.12 181.81 L 121.88 182.73 C 121.65 183.60 122.18 184.50 123.06 184.73 C 123.94 184.96 124.83 184.43 125.06 183.55 L 125.30 182.63 C 125.53 181.76 125.00 180.86 124.13 180.63 C 123.25 180.40 122.35 180.93 122.12 181.81 Z M 121.89 182.72 L 121.65 183.60 C 121.42 184.47 121.94 185.37 122.81 185.60 C 123.69 185.84 124.59 185.32 124.82 184.44 L 125.06 183.56 C 125.29 182.69 124.77 181.79 123.90 181.56 C 123.02 181.32 122.12 181.84 121.89 182.72 Z M 121.66 183.60 L 121.41 184.50 C 121.18 185.37 121.70 186.27 122.57 186.50 C 123.44 186.74 124.34 186.22 124.57 185.35 L 124.82 184.44 C 125.05 183.57 124.54 182.67 123.66 182.44 C 122.79 182.21 121.89 182.72 121.66 183.60 Z M 121.42 184.51 L 121.16 185.49 C 120.93 186.36 121.45 187.25 122.32 187.48 C 123.19 187.71 124.08 187.19 124.31 186.32 L 124.57 185.34 C 124.80 184.47 124.28 183.58 123.41 183.35 C 122.54 183.12 121.65 183.63 121.42 184.51 Z M 121.16 185.50 L 120.87 186.60 C 120.65 187.47 121.17 188.36 122.05 188.58 C 122.92 188.80 123.80 188.28 124.03 187.41 L 124.31 186.31 C 124.54 185.44 124.01 184.55 123.14 184.33 C 122.27 184.10 121.38 184.63 121.16 185.50 Z M 120.88 186.61 L 120.67 187.45 C 120.45 188.32 120.98 189.20 121.85 189.42 C 122.72 189.64 123.60 189.11 123.82 188.24 L 124.03 187.40 C 124.25 186.53 123.72 185.64 122.84 185.43 C 121.97 185.21 121.09 185.74 120.88 186.61 Z M 120.66 187.47 L 120.45 188.38 C 120.24 189.25 120.78 190.13 121.65 190.33 C 122.52 190.54 123.39 190.00 123.60 189.13 L 123.82 188.22 C 124.03 187.35 123.49 186.48 122.62 186.27 C 121.75 186.06 120.87 186.60 120.66 187.47 Z M 120.44 188.40 L 120.23 189.37 C 120.03 190.24 120.58 191.11 121.45 191.31 C 122.32 191.50 123.19 190.96 123.38 190.08 L 123.60 189.11 C 123.80 188.24 123.25 187.37 122.38 187.18 C 121.51 186.98 120.64 187.53 120.44 188.40 Z M 120.22 189.40 L 120.01 190.42 C 119.83 191.29 120.39 192.15 121.26 192.33 C 122.14 192.51 122.99 191.95 123.17 191.08 L 123.39 190.06 C 123.57 189.18 123.01 188.33 122.13 188.15 C 121.26 187.96 120.41 188.53 120.22 189.40 Z M 120.01 190.45 L 119.81 191.51 C 119.65 192.38 120.22 193.23 121.10 193.39 C 121.97 193.56 122.81 192.98 122.98 192.10 L 123.18 191.04 C 123.34 190.17 122.77 189.33 121.89 189.16 C 121.02 189.00 120.17 189.58 120.01 190.45 Z M 119.81 191.55 L 119.63 192.64 C 119.48 193.52 120.08 194.34 120.96 194.49 C 121.83 194.63 122.66 194.04 122.80 193.16 L 122.98 192.07 C 123.13 191.19 122.53 190.36 121.65 190.22 C 120.78 190.08 119.95 190.67 119.81 191.55 Z M 119.63 192.69 L 119.48 193.84 C 119.36 194.71 119.98 195.52 120.86 195.63 C 121.74 195.75 122.54 195.13 122.65 194.25 L 122.80 193.11 C 122.92 192.23 122.30 191.43 121.42 191.31 C 120.55 191.20 119.74 191.82 119.63 192.69 Z M 119.48 193.93 L 119.40 195.04 C 119.33 195.91 119.99 196.68 120.87 196.74 C 121.74 196.81 122.51 196.15 122.57 195.27 L 122.65 194.16 C 122.72 193.28 122.06 192.52 121.18 192.46 C 120.31 192.39 119.54 193.05 119.48 193.93 Z M 119.40 195.18 L 119.42 196.22 C 119.43 197.09 120.15 197.79 121.02 197.77 C 121.90 197.76 122.59 197.04 122.58 196.17 L 122.56 195.13 C 122.55 194.26 121.83 193.56 120.96 193.57 C 120.09 193.59 119.39 194.31 119.40 195.18 Z M 119.45 196.44 L 119.59 197.36 C 119.73 198.21 120.54 198.80 121.39 198.66 C 122.25 198.52 122.83 197.72 122.70 196.86 L 122.55 195.95 C 122.41 195.09 121.61 194.50 120.75 194.64 C 119.90 194.78 119.31 195.58 119.45 196.44 Z M 119.70 197.70 L 120.01 198.45 C 120.34 199.25 121.25 199.63 122.04 199.31 C 122.84 198.98 123.22 198.07 122.90 197.27 L 122.59 196.52 C 122.26 195.72 121.35 195.34 120.55 195.66 C 119.76 195.99 119.37 196.90 119.70 197.70 Z M 120.32 198.92 L 120.84 199.48 C 121.43 200.10 122.41 200.14 123.03 199.56 C 123.66 198.97 123.69 197.99 123.11 197.37 L 122.59 196.81 C 122.00 196.18 121.02 196.15 120.40 196.73 C 119.77 197.31 119.74 198.29 120.32 198.92 Z M 121.33 199.81 L 122.08 200.16 C 122.85 200.52 123.76 200.18 124.12 199.42 C 124.47 198.65 124.14 197.74 123.37 197.39 L 122.62 197.04 C 121.85 196.68 120.94 197.01 120.59 197.78 C 120.23 198.55 120.57 199.46 121.33 199.81 Z M 122.47 200.26 L 123.39 200.42 C 124.21 200.56 124.99 200.01 125.14 199.19 C 125.28 198.37 124.73 197.59 123.91 197.45 L 122.99 197.29 C 122.17 197.14 121.39 197.69 121.24 198.51 C 121.10 199.33 121.65 200.11 122.47 200.26 Z M 123.61 200.42 L 124.66 200.45 C 125.48 200.46 126.16 199.81 126.18 198.99 C 126.20 198.17 125.55 197.49 124.73 197.47 L 123.68 197.45 C 122.86 197.43 122.18 198.08 122.16 198.90 C 122.14 199.72 122.79 200.40 123.61 200.42 Z M 124.78 200.42 L 125.90 200.36 C 126.71 200.32 127.33 199.63 127.28 198.82 C 127.24 198.01 126.55 197.39 125.74 197.43 L 124.62 197.49 C 123.81 197.54 123.19 198.23 123.23 199.04 C 123.28 199.85 123.97 200.47 124.78 200.42 Z M 125.94 200.34 L 126.77 200.27 C 127.56 200.20 128.15 199.50 128.09 198.71 C 128.02 197.91 127.32 197.32 126.52 197.39 L 125.70 197.45 C 124.90 197.52 124.31 198.22 124.38 199.02 C 124.44 199.81 125.14 200.41 125.94 200.34 Z"
      fill="black"
      fill-rule="nonzero" /><path d="M 155.50 121.82 L 154.15 121.58 C 153.26 121.43 152.42 122.02 152.26 122.91 C 152.11 123.80 152.70 124.64 153.59 124.79 L 154.94 125.03 C 155.83 125.18 156.67 124.59 156.83 123.70 C 156.98 122.81 156.39 121.97 155.50 121.82 Z M 154.32 121.61 L 153.41 121.35 C 152.54 121.10 151.63 121.60 151.38 122.47 C 151.13 123.34 151.63 124.25 152.50 124.50 L 153.41 124.76 C 154.28 125.01 155.19 124.51 155.44 123.64 C 155.69 122.77 155.19 121.86 154.32 121.61 Z M 154.57 122.59 L 154.51 122.29 C 154.32 121.40 153.45 120.83 152.56 121.01 C 151.67 121.19 151.09 122.07 151.28 122.96 L 151.34 123.26 C 151.52 124.15 152.39 124.72 153.29 124.54 C 154.18 124.36 154.75 123.48 154.57 122.59 Z M 153.58 124.13 L 154.05 123.91 C 154.88 123.53 155.25 122.55 154.87 121.72 C 154.49 120.89 153.51 120.53 152.68 120.91 L 152.21 121.12 C 151.38 121.50 151.01 122.48 151.39 123.31 C 151.77 124.14 152.75 124.51 153.58 124.13 Z M 153.84 123.99 L 154.65 123.75 C 155.52 123.49 156.02 122.57 155.76 121.70 C 155.50 120.82 154.58 120.32 153.71 120.58 L 152.89 120.82 C 152.02 121.08 151.52 122.00 151.78 122.88 C 152.04 123.75 152.96 124.25 153.84 123.99 Z M 154.57 123.77 L 155.64 123.51 C 156.53 123.29 157.07 122.40 156.85 121.51 C 156.63 120.62 155.74 120.08 154.85 120.30 L 153.78 120.56 C 152.89 120.78 152.35 121.68 152.57 122.56 C 152.79 123.45 153.68 123.99 154.57 123.77 Z M 155.61 123.52 L 156.86 123.24 C 157.75 123.03 158.31 122.15 158.11 121.26 C 157.91 120.37 157.02 119.81 156.13 120.01 L 154.88 120.29 C 153.99 120.49 153.43 121.38 153.63 122.27 C 153.83 123.16 154.72 123.72 155.61 123.52 Z M 156.85 123.24 L 158.15 122.95 C 159.04 122.75 159.61 121.87 159.41 120.97 C 159.21 120.08 158.33 119.52 157.43 119.72 L 156.14 120.01 C 155.24 120.21 154.68 121.09 154.88 121.98 C 155.08 122.87 155.96 123.44 156.85 123.24 Z M 158.16 122.95 L 159.20 122.71 C 160.09 122.51 160.65 121.62 160.45 120.73 C 160.25 119.84 159.36 119.28 158.47 119.49 L 157.43 119.72 C 156.54 119.92 155.98 120.81 156.18 121.70 C 156.38 122.59 157.27 123.15 158.16 122.95 Z M 159.21 122.71 L 160.25 122.47 C 161.14 122.26 161.69 121.38 161.49 120.49 C 161.29 119.60 160.40 119.05 159.51 119.25 L 158.47 119.49 C 157.58 119.69 157.03 120.58 157.23 121.47 C 157.43 122.35 158.32 122.91 159.21 122.71 Z M 160.25 122.46 L 161.28 122.23 C 162.17 122.02 162.72 121.14 162.51 120.25 C 162.31 119.36 161.42 118.81 160.54 119.02 L 159.51 119.25 C 158.63 119.46 158.07 120.34 158.28 121.23 C 158.48 122.12 159.37 122.67 160.25 122.46 Z M 161.28 122.22 L 162.27 121.99 C 163.16 121.79 163.71 120.90 163.50 120.02 C 163.30 119.13 162.41 118.58 161.53 118.79 L 160.54 119.02 C 159.65 119.23 159.10 120.11 159.31 120.99 C 159.51 121.88 160.40 122.43 161.28 122.22 Z M 162.27 121.99 L 163.21 121.77 C 164.09 121.57 164.64 120.68 164.44 119.80 C 164.23 118.92 163.35 118.37 162.46 118.57 L 161.53 118.79 C 160.65 119.00 160.10 119.88 160.30 120.76 C 160.51 121.65 161.39 122.19 162.27 121.99 Z M 163.21 121.77 L 164.07 121.57 C 164.95 121.36 165.50 120.48 165.30 119.60 C 165.09 118.72 164.21 118.17 163.33 118.38 L 162.47 118.58 C 161.58 118.78 161.04 119.66 161.24 120.54 C 161.45 121.42 162.33 121.97 163.21 121.77 Z M 164.07 121.56 L 165.01 121.35 C 165.89 121.14 166.44 120.27 166.24 119.39 C 166.03 118.51 165.16 117.96 164.28 118.16 L 163.34 118.38 C 162.46 118.58 161.91 119.46 162.11 120.34 C 162.31 121.22 163.19 121.77 164.07 121.56 Z M 165.01 121.34 L 165.95 121.12 C 166.83 120.92 167.37 120.05 167.17 119.18 C 166.97 118.30 166.10 117.75 165.23 117.95 L 164.28 118.17 C 163.41 118.37 162.86 119.24 163.06 120.12 C 163.26 120.99 164.13 121.54 165.01 121.34 Z M 165.95 121.11 L 166.85 120.91 C 167.72 120.71 168.26 119.84 168.06 118.97 C 167.86 118.10 166.99 117.56 166.12 117.76 L 165.23 117.96 C 164.36 118.17 163.81 119.03 164.02 119.90 C 164.22 120.77 165.08 121.31 165.95 121.11 Z M 166.85 120.89 L 167.78 120.67 C 168.65 120.47 169.18 119.60 168.98 118.74 C 168.77 117.88 167.91 117.34 167.04 117.55 L 166.11 117.77 C 165.25 117.97 164.72 118.84 164.92 119.70 C 165.13 120.57 165.99 121.10 166.85 120.89 Z M 167.79 120.66 L 168.85 120.40 C 169.71 120.19 170.23 119.33 170.02 118.47 C 169.81 117.62 168.95 117.09 168.09 117.30 L 167.03 117.56 C 166.18 117.77 165.65 118.63 165.86 119.49 C 166.07 120.35 166.94 120.87 167.79 120.66 Z M 168.86 120.39 L 169.75 120.17 C 170.60 119.96 171.11 119.09 170.90 118.24 C 170.69 117.39 169.82 116.87 168.97 117.09 L 168.08 117.31 C 167.23 117.52 166.72 118.39 166.93 119.24 C 167.14 120.09 168.01 120.61 168.86 120.39 Z M 169.75 120.17 L 170.67 119.93 C 171.52 119.71 172.03 118.85 171.82 118.00 C 171.60 117.15 170.74 116.64 169.89 116.86 L 168.97 117.09 C 168.12 117.31 167.61 118.17 167.82 119.02 C 168.04 119.87 168.90 120.38 169.75 120.17 Z M 170.68 119.93 L 171.66 119.67 C 172.50 119.45 173.01 118.59 172.79 117.74 C 172.57 116.90 171.71 116.39 170.86 116.61 L 169.88 116.86 C 169.04 117.08 168.53 117.94 168.75 118.79 C 168.97 119.64 169.83 120.15 170.68 119.93 Z M 171.66 119.67 L 172.67 119.41 C 173.52 119.19 174.02 118.32 173.80 117.48 C 173.58 116.63 172.72 116.13 171.88 116.35 L 170.86 116.61 C 170.02 116.83 169.51 117.69 169.73 118.54 C 169.95 119.38 170.81 119.89 171.66 119.67 Z M 172.67 119.40 L 173.70 119.13 C 174.54 118.91 175.04 118.05 174.82 117.21 C 174.60 116.37 173.74 115.86 172.90 116.08 L 171.87 116.35 C 171.03 116.57 170.53 117.43 170.75 118.28 C 170.97 119.12 171.83 119.62 172.67 119.40 Z M 173.70 119.13 L 174.71 118.86 C 175.55 118.64 176.05 117.78 175.83 116.94 C 175.61 116.10 174.75 115.60 173.91 115.82 L 172.90 116.09 C 172.06 116.31 171.55 117.17 171.78 118.01 C 172.00 118.85 172.86 119.35 173.70 119.13 Z M 174.71 118.86 L 175.68 118.61 C 176.52 118.38 177.02 117.52 176.79 116.68 C 176.57 115.85 175.71 115.35 174.87 115.57 L 173.90 115.82 C 173.07 116.05 172.57 116.91 172.79 117.74 C 173.01 118.58 173.87 119.08 174.71 118.86 Z M 175.68 118.60 L 176.72 118.32 C 177.56 118.10 178.05 117.24 177.83 116.41 C 177.61 115.57 176.75 115.07 175.92 115.30 L 174.87 115.57 C 174.04 115.80 173.54 116.65 173.76 117.49 C 173.99 118.32 174.84 118.82 175.68 118.60 Z M 176.73 118.31 L 177.71 118.04 C 178.54 117.81 179.03 116.96 178.80 116.14 C 178.58 115.31 177.73 114.82 176.90 115.04 L 175.91 115.31 C 175.09 115.53 174.60 116.39 174.82 117.21 C 175.05 118.04 175.90 118.53 176.73 118.31 Z M 177.72 118.02 L 178.66 117.76 C 179.48 117.53 179.96 116.68 179.73 115.86 C 179.50 115.04 178.65 114.57 177.83 114.80 L 176.89 115.06 C 176.07 115.29 175.59 116.14 175.82 116.96 C 176.05 117.77 176.90 118.25 177.72 118.02 Z M 178.67 117.74 L 179.59 117.48 C 180.40 117.24 180.87 116.39 180.63 115.58 C 180.40 114.77 179.55 114.31 178.74 114.54 L 177.82 114.81 C 177.01 115.05 176.54 115.90 176.78 116.71 C 177.02 117.52 177.86 117.98 178.67 117.74 Z M 179.61 117.46 L 180.53 117.17 C 181.33 116.93 181.78 116.08 181.54 115.28 C 181.29 114.48 180.44 114.03 179.64 114.28 L 178.72 114.56 C 177.92 114.81 177.47 115.65 177.72 116.45 C 177.96 117.25 178.81 117.70 179.61 117.46 Z M 180.55 117.16 L 181.50 116.85 C 182.29 116.59 182.72 115.75 182.46 114.96 C 182.21 114.17 181.36 113.73 180.57 113.99 L 179.62 114.30 C 178.83 114.55 178.40 115.40 178.66 116.19 C 178.91 116.98 179.76 117.41 180.55 117.16 Z M 181.52 116.83 L 182.39 116.54 C 183.17 116.27 183.59 115.42 183.32 114.64 C 183.06 113.86 182.21 113.44 181.43 113.71 L 180.55 114.01 C 179.77 114.27 179.36 115.12 179.62 115.90 C 179.89 116.68 180.74 117.10 181.52 116.83 Z M 182.40 116.52 L 183.31 116.20 C 184.08 115.93 184.49 115.08 184.21 114.31 C 183.94 113.53 183.09 113.13 182.32 113.40 L 181.41 113.72 C 180.64 113.99 180.23 114.84 180.51 115.62 C 180.78 116.39 181.63 116.80 182.40 116.52 Z M 183.32 116.19 L 184.25 115.86 C 185.02 115.58 185.41 114.73 185.13 113.96 C 184.86 113.19 184.01 112.79 183.24 113.07 L 182.31 113.41 C 181.54 113.69 181.14 114.54 181.42 115.31 C 181.70 116.08 182.55 116.47 183.32 116.19 Z M 184.25 115.85 L 185.21 115.50 C 185.97 115.21 186.36 114.36 186.08 113.60 C 185.79 112.84 184.95 112.45 184.18 112.73 L 183.23 113.08 C 182.47 113.37 182.08 114.21 182.36 114.98 C 182.64 115.74 183.49 116.13 184.25 115.85 Z M 185.21 115.49 L 186.18 115.12 C 186.94 114.84 187.32 113.99 187.04 113.23 C 186.75 112.48 185.90 112.09 185.15 112.38 L 184.18 112.74 C 183.42 113.02 183.04 113.87 183.32 114.63 C 183.61 115.39 184.45 115.77 185.21 115.49 Z M 186.18 115.12 L 187.16 114.75 C 187.91 114.46 188.29 113.62 188.00 112.86 C 187.72 112.11 186.88 111.73 186.12 112.01 L 185.14 112.38 C 184.39 112.67 184.01 113.51 184.29 114.27 C 184.58 115.02 185.42 115.40 186.18 115.12 Z M 187.16 114.74 L 187.88 114.46 C 188.64 114.18 189.01 113.34 188.73 112.59 C 188.44 111.83 187.60 111.46 186.85 111.74 L 186.12 112.02 C 185.37 112.30 184.99 113.15 185.28 113.90 C 185.56 114.65 186.40 115.03 187.16 114.74 Z"
      fill="black"
      fill-rule="nonzero" /><path d="M 171.26 108.20 L 170.51 108.91 C 169.92 109.48 169.90 110.42 170.47 111.01 C 171.04 111.60 171.98 111.62 172.57 111.05 L 173.31 110.34 C 173.90 109.77 173.92 108.83 173.36 108.24 C 172.79 107.65 171.85 107.63 171.26 108.20 Z M 170.45 108.94 L 169.75 109.67 C 169.17 110.27 169.19 111.23 169.80 111.80 C 170.40 112.38 171.35 112.36 171.93 111.76 L 172.63 111.03 C 173.21 110.42 173.19 109.47 172.58 108.89 C 171.98 108.31 171.03 108.34 170.45 108.94 Z M 169.64 109.75 L 169.03 110.51 C 168.50 111.17 168.61 112.14 169.27 112.67 C 169.94 113.20 170.90 113.10 171.43 112.43 L 172.04 111.67 C 172.57 111.01 172.46 110.04 171.80 109.51 C 171.14 108.98 170.17 109.09 169.64 109.75 Z M 168.89 110.68 L 168.41 111.50 C 167.98 112.24 168.23 113.19 168.97 113.63 C 169.71 114.06 170.66 113.81 171.10 113.07 L 171.58 112.26 C 172.01 111.52 171.76 110.57 171.02 110.13 C 170.28 109.69 169.33 109.94 168.89 110.68 Z M 168.31 111.70 L 167.95 112.59 C 167.63 113.38 168.02 114.29 168.82 114.62 C 169.62 114.94 170.53 114.55 170.85 113.75 L 171.20 112.87 C 171.53 112.07 171.14 111.16 170.34 110.84 C 169.54 110.51 168.63 110.90 168.31 111.70 Z M 167.90 112.73 L 167.62 113.71 C 167.38 114.54 167.85 115.41 168.68 115.65 C 169.51 115.89 170.38 115.41 170.62 114.58 L 170.90 113.60 C 171.14 112.78 170.66 111.91 169.84 111.67 C 169.01 111.43 168.14 111.91 167.90 112.73 Z M 167.60 113.78 L 167.36 114.76 C 167.16 115.60 167.67 116.45 168.51 116.65 C 169.35 116.85 170.20 116.33 170.40 115.50 L 170.63 114.51 C 170.84 113.67 170.32 112.83 169.48 112.63 C 168.64 112.43 167.80 112.94 167.60 113.78 Z M 167.36 114.79 L 167.15 115.68 C 166.96 116.52 167.49 117.36 168.33 117.55 C 169.17 117.74 170.01 117.21 170.20 116.37 L 170.40 115.47 C 170.59 114.63 170.07 113.80 169.22 113.61 C 168.38 113.42 167.55 113.94 167.36 114.79 Z M 167.15 115.69 L 166.94 116.66 C 166.76 117.50 167.29 118.33 168.14 118.52 C 168.98 118.70 169.81 118.16 169.99 117.32 L 170.20 116.36 C 170.39 115.51 169.85 114.68 169.01 114.50 C 168.17 114.32 167.33 114.85 167.15 115.69 Z M 166.94 116.67 L 166.72 117.69 C 166.54 118.53 167.08 119.36 167.93 119.54 C 168.77 119.72 169.60 119.18 169.78 118.34 L 169.99 117.31 C 170.17 116.47 169.63 115.64 168.79 115.46 C 167.95 115.28 167.12 115.82 166.94 116.67 Z M 166.72 117.70 L 166.50 118.77 C 166.32 119.62 166.87 120.44 167.71 120.62 C 168.56 120.79 169.38 120.25 169.56 119.41 L 169.78 118.33 C 169.95 117.49 169.41 116.66 168.57 116.48 C 167.72 116.31 166.90 116.85 166.72 117.70 Z M 166.50 118.78 L 166.31 119.71 C 166.13 120.56 166.68 121.38 167.52 121.55 C 168.37 121.73 169.19 121.18 169.36 120.34 L 169.56 119.40 C 169.73 118.56 169.18 117.73 168.34 117.56 C 167.50 117.39 166.67 117.93 166.50 118.78 Z M 166.31 119.72 L 166.11 120.68 C 165.94 121.52 166.49 122.35 167.33 122.52 C 168.17 122.69 168.99 122.14 169.17 121.30 L 169.36 120.34 C 169.54 119.49 168.99 118.67 168.15 118.50 C 167.30 118.33 166.48 118.87 166.31 119.72 Z M 166.11 120.68 L 165.91 121.66 C 165.74 122.51 166.28 123.33 167.13 123.50 C 167.97 123.67 168.79 123.13 168.96 122.29 L 169.16 121.30 C 169.34 120.46 168.79 119.64 167.95 119.46 C 167.11 119.29 166.29 119.84 166.11 120.68 Z M 165.92 121.66 L 165.71 122.66 C 165.54 123.50 166.08 124.32 166.92 124.50 C 167.76 124.67 168.58 124.13 168.76 123.29 L 168.96 122.29 C 169.13 121.45 168.59 120.63 167.75 120.45 C 166.91 120.28 166.09 120.82 165.92 121.66 Z M 165.71 122.66 L 165.50 123.66 C 165.33 124.50 165.86 125.33 166.70 125.50 C 167.54 125.68 168.37 125.14 168.54 124.30 L 168.75 123.29 C 168.93 122.45 168.39 121.63 167.55 121.45 C 166.71 121.28 165.89 121.82 165.71 122.66 Z M 165.50 123.66 L 165.29 124.65 C 165.11 125.49 165.65 126.31 166.48 126.49 C 167.32 126.67 168.15 126.14 168.33 125.30 L 168.54 124.30 C 168.72 123.47 168.18 122.64 167.35 122.46 C 166.51 122.28 165.68 122.82 165.50 123.66 Z M 165.30 124.65 L 165.08 125.64 C 164.90 126.47 165.43 127.30 166.26 127.48 C 167.10 127.66 167.92 127.13 168.11 126.30 L 168.32 125.31 C 168.50 124.47 167.97 123.65 167.14 123.46 C 166.30 123.28 165.48 123.81 165.30 124.65 Z M 165.09 125.63 L 164.87 126.62 C 164.68 127.45 165.21 128.28 166.04 128.46 C 166.88 128.64 167.70 128.12 167.88 127.28 L 168.10 126.30 C 168.28 125.47 167.76 124.64 166.93 124.46 C 166.09 124.28 165.27 124.80 165.09 125.63 Z M 164.87 126.62 L 164.66 127.59 C 164.47 128.42 164.99 129.24 165.82 129.43 C 166.66 129.61 167.48 129.09 167.66 128.26 L 167.88 127.29 C 168.06 126.46 167.54 125.63 166.71 125.45 C 165.88 125.26 165.06 125.79 164.87 126.62 Z M 164.66 127.59 L 164.44 128.55 C 164.26 129.38 164.78 130.20 165.61 130.39 C 166.44 130.57 167.26 130.05 167.44 129.22 L 167.66 128.26 C 167.84 127.43 167.32 126.61 166.49 126.43 C 165.67 126.24 164.84 126.76 164.66 127.59 Z M 164.45 128.55 L 164.23 129.54 C 164.04 130.37 164.56 131.19 165.39 131.37 C 166.22 131.56 167.04 131.04 167.22 130.21 L 167.44 129.22 C 167.63 128.39 167.11 127.57 166.28 127.39 C 165.45 127.20 164.63 127.73 164.45 128.55 Z M 164.23 129.54 L 164.00 130.56 C 163.82 131.39 164.34 132.21 165.16 132.39 C 165.99 132.58 166.81 132.06 166.99 131.23 L 167.22 130.21 C 167.40 129.38 166.88 128.56 166.06 128.38 C 165.23 128.20 164.41 128.72 164.23 129.54 Z M 164.00 130.57 L 163.78 131.56 C 163.60 132.38 164.12 133.20 164.94 133.38 C 165.77 133.57 166.58 133.05 166.77 132.22 L 166.99 131.23 C 167.17 130.40 166.65 129.59 165.83 129.40 C 165.00 129.22 164.19 129.74 164.00 130.57 Z M 163.78 131.56 L 163.57 132.53 C 163.39 133.35 163.91 134.16 164.73 134.35 C 165.56 134.53 166.37 134.01 166.55 133.18 L 166.77 132.22 C 166.95 131.40 166.43 130.58 165.60 130.40 C 164.78 130.22 163.97 130.74 163.78 131.56 Z M 163.57 132.53 L 163.37 133.46 C 163.19 134.28 163.71 135.09 164.54 135.27 C 165.36 135.45 166.17 134.93 166.35 134.11 L 166.55 133.18 C 166.73 132.36 166.21 131.54 165.39 131.36 C 164.56 131.19 163.75 131.71 163.57 132.53 Z M 163.37 133.46 L 163.16 134.47 C 162.98 135.29 163.50 136.10 164.32 136.28 C 165.15 136.45 165.96 135.93 166.13 135.11 L 166.35 134.10 C 166.53 133.28 166.00 132.47 165.18 132.29 C 164.36 132.12 163.55 132.64 163.37 133.46 Z M 163.16 134.48 L 162.94 135.50 C 162.77 136.32 163.29 137.13 164.11 137.30 C 164.93 137.47 165.74 136.95 165.91 136.13 L 166.13 135.10 C 166.30 134.28 165.78 133.48 164.96 133.30 C 164.14 133.13 163.33 133.65 163.16 134.48 Z M 162.94 135.50 L 162.74 136.47 C 162.57 137.29 163.09 138.09 163.91 138.27 C 164.73 138.44 165.53 137.91 165.71 137.09 L 165.91 136.13 C 166.08 135.31 165.56 134.50 164.74 134.33 C 163.92 134.16 163.12 134.68 162.94 135.50 Z M 162.74 136.47 L 162.55 137.39 C 162.38 138.20 162.90 139.00 163.72 139.18 C 164.54 139.35 165.34 138.82 165.51 138.01 L 165.70 137.09 C 165.87 136.28 165.35 135.48 164.53 135.30 C 163.72 135.13 162.92 135.65 162.74 136.47 Z M 162.53 137.37 L 162.30 138.44 C 162.12 139.27 162.64 140.08 163.47 140.27 C 164.30 140.45 165.11 139.92 165.29 139.10 L 165.53 138.03 C 165.71 137.20 165.19 136.38 164.36 136.20 C 163.53 136.02 162.72 136.54 162.53 137.37 Z M 162.28 138.29 L 161.97 139.28 C 161.70 140.12 162.16 141.01 163.00 141.28 C 163.84 141.54 164.73 141.08 165.00 140.24 L 165.31 139.25 C 165.58 138.41 165.11 137.52 164.28 137.25 C 163.44 136.99 162.55 137.45 162.28 138.29 Z M 162.12 138.82 L 161.64 139.50 C 161.12 140.25 161.30 141.29 162.05 141.81 C 162.80 142.33 163.84 142.15 164.36 141.40 L 164.84 140.71 C 165.36 139.96 165.18 138.93 164.43 138.40 C 163.68 137.88 162.65 138.07 162.12 138.82 Z M 162.40 138.85 L 161.64 139.14 C 160.76 139.47 160.31 140.45 160.64 141.34 C 160.97 142.22 161.96 142.67 162.84 142.34 L 163.60 142.05 C 164.48 141.72 164.93 140.73 164.60 139.85 C 164.27 138.97 163.28 138.52 162.40 138.85 Z M 162.35 139.01 L 161.36 138.94 C 160.41 138.88 159.58 139.61 159.52 140.56 C 159.46 141.52 160.19 142.34 161.14 142.41 L 162.13 142.47 C 163.09 142.53 163.91 141.80 163.97 140.85 C 164.03 139.89 163.31 139.07 162.35 139.01 Z M 161.64 138.96 L 160.53 138.71 C 159.58 138.49 158.64 139.08 158.42 140.03 C 158.21 140.98 158.80 141.92 159.75 142.13 L 160.86 142.39 C 161.81 142.60 162.75 142.01 162.97 141.06 C 163.18 140.12 162.59 139.18 161.64 138.96 Z M 160.68 138.74 L 159.55 138.37 C 158.62 138.07 157.63 138.58 157.32 139.50 C 157.02 140.43 157.53 141.43 158.46 141.73 L 159.59 142.10 C 160.52 142.40 161.51 141.90 161.82 140.97 C 162.12 140.04 161.61 139.04 160.68 138.74 Z M 160.47 139.06 L 160.12 138.55 C 159.57 137.74 158.47 137.53 157.66 138.08 C 156.86 138.63 156.65 139.73 157.20 140.53 L 157.54 141.04 C 158.09 141.85 159.19 142.06 160.00 141.51 C 160.80 140.96 161.01 139.87 160.47 139.06 Z M 159.81 140.88 L 160.29 140.47 C 161.03 139.83 161.11 138.72 160.48 137.98 C 159.84 137.24 158.73 137.16 157.99 137.79 L 157.51 138.20 C 156.77 138.84 156.68 139.95 157.32 140.69 C 157.95 141.43 159.07 141.51 159.81 140.88 Z M 159.93 140.70 L 160.51 140.41 C 161.38 139.97 161.73 138.91 161.30 138.04 C 160.86 137.18 159.80 136.82 158.93 137.26 L 158.35 137.55 C 157.48 137.99 157.13 139.05 157.56 139.92 C 158.00 140.79 159.06 141.14 159.93 140.70 Z M 160.40 140.46 L 161.18 140.13 C 162.08 139.75 162.50 138.72 162.13 137.83 C 161.75 136.93 160.72 136.51 159.83 136.89 L 159.05 137.21 C 158.15 137.59 157.73 138.62 158.10 139.51 C 158.48 140.41 159.51 140.83 160.40 140.46 Z M 161.12 140.15 L 162.07 139.79 C 162.98 139.45 163.43 138.44 163.09 137.53 C 162.75 136.63 161.74 136.17 160.83 136.51 L 159.89 136.87 C 158.98 137.21 158.52 138.22 158.86 139.13 C 159.21 140.03 160.22 140.49 161.12 140.15 Z M 162.04 139.80 L 163.12 139.41 C 164.03 139.09 164.51 138.09 164.18 137.18 C 163.86 136.27 162.86 135.79 161.95 136.12 L 160.87 136.50 C 159.96 136.83 159.48 137.83 159.80 138.74 C 160.13 139.65 161.13 140.12 162.04 139.80 Z M 163.11 139.41 L 164.30 139.00 C 165.21 138.68 165.69 137.69 165.38 136.78 C 165.06 135.87 164.07 135.39 163.16 135.70 L 161.97 136.11 C 161.05 136.43 160.57 137.42 160.89 138.33 C 161.20 139.25 162.20 139.73 163.11 139.41 Z M 164.30 139.00 L 165.57 138.56 C 166.48 138.24 166.96 137.25 166.65 136.34 C 166.34 135.44 165.35 134.95 164.44 135.27 L 163.16 135.70 C 162.25 136.02 161.77 137.01 162.08 137.92 C 162.40 138.83 163.39 139.31 164.30 139.00 Z M 165.57 138.55 L 166.57 138.20 C 167.47 137.89 167.95 136.90 167.64 136.00 C 167.32 135.09 166.33 134.61 165.43 134.93 L 164.44 135.27 C 163.53 135.59 163.05 136.58 163.37 137.48 C 163.68 138.38 164.67 138.86 165.57 138.55 Z M 166.57 138.19 L 167.55 137.85 C 168.45 137.54 168.92 136.55 168.61 135.65 C 168.29 134.75 167.31 134.28 166.41 134.60 L 165.43 134.94 C 164.53 135.25 164.06 136.24 164.37 137.14 C 164.69 138.03 165.67 138.51 166.57 138.19 Z M 167.55 137.84 L 168.54 137.49 C 169.43 137.18 169.90 136.20 169.59 135.31 C 169.27 134.41 168.29 133.94 167.40 134.26 L 166.41 134.61 C 165.52 134.92 165.05 135.90 165.36 136.79 C 165.68 137.69 166.66 138.15 167.55 137.84 Z M 168.54 137.48 L 169.52 137.13 C 170.41 136.82 170.88 135.85 170.56 134.96 C 170.25 134.07 169.28 133.61 168.39 133.92 L 167.40 134.27 C 166.51 134.58 166.05 135.56 166.36 136.44 C 166.67 137.33 167.65 137.80 168.54 137.48 Z M 169.52 137.12 L 170.50 136.78 C 171.38 136.46 171.85 135.50 171.53 134.61 C 171.22 133.73 170.25 133.27 169.37 133.58 L 168.39 133.93 C 167.51 134.24 167.05 135.21 167.36 136.09 C 167.67 136.97 168.64 137.44 169.52 137.12 Z M 170.50 136.77 L 171.46 136.43 C 172.33 136.12 172.79 135.15 172.48 134.28 C 172.17 133.40 171.21 132.94 170.33 133.25 L 169.37 133.59 C 168.50 133.90 168.04 134.86 168.35 135.74 C 168.66 136.62 169.62 137.08 170.50 136.77 Z M 171.45 136.42 L 172.39 136.09 C 173.26 135.78 173.71 134.82 173.41 133.95 C 173.10 133.08 172.14 132.62 171.27 132.93 L 170.34 133.26 C 169.47 133.57 169.01 134.53 169.32 135.40 C 169.63 136.27 170.58 136.73 171.45 136.42 Z M 172.38 136.08 L 173.27 135.76 C 174.14 135.46 174.60 134.51 174.29 133.64 C 173.99 132.77 173.03 132.32 172.17 132.63 L 171.27 132.94 C 170.41 133.25 169.95 134.20 170.26 135.06 C 170.56 135.93 171.51 136.38 172.38 136.08 Z M 173.27 135.76 L 174.12 135.46 C 174.98 135.16 175.43 134.21 175.13 133.35 C 174.83 132.49 173.88 132.03 173.02 132.34 L 172.17 132.63 C 171.31 132.94 170.86 133.88 171.16 134.74 C 171.46 135.60 172.41 136.06 173.27 135.76 Z M 174.11 135.45 L 175.18 135.08 C 176.04 134.78 176.49 133.84 176.19 132.99 C 175.90 132.13 174.96 131.68 174.10 131.97 L 173.03 132.35 C 172.17 132.64 171.72 133.58 172.02 134.44 C 172.32 135.29 173.25 135.74 174.11 135.45 Z M 175.17 135.06 L 176.26 134.69 C 177.11 134.40 177.56 133.48 177.27 132.63 C 176.98 131.78 176.06 131.33 175.21 131.62 L 174.12 131.99 C 173.27 132.28 172.82 133.20 173.11 134.05 C 173.40 134.90 174.32 135.35 175.17 135.06 Z M 176.24 134.67 L 177.23 134.35 C 178.07 134.07 178.52 133.16 178.25 132.32 C 177.97 131.48 177.06 131.02 176.22 131.30 L 175.23 131.63 C 174.39 131.91 173.93 132.82 174.21 133.66 C 174.49 134.50 175.40 134.95 176.24 134.67 Z M 177.21 134.33 L 178.11 134.04 C 178.95 133.78 179.40 132.88 179.14 132.05 C 178.87 131.22 177.98 130.76 177.14 131.03 L 176.24 131.32 C 175.41 131.58 174.95 132.48 175.22 133.31 C 175.48 134.14 176.37 134.60 177.21 134.33 Z M 178.09 134.03 L 178.93 133.77 C 179.76 133.52 180.22 132.64 179.97 131.81 C 179.71 130.99 178.84 130.53 178.01 130.78 L 177.17 131.04 C 176.34 131.29 175.88 132.17 176.13 132.99 C 176.39 133.82 177.26 134.28 178.09 134.03 Z M 178.91 133.76 L 179.71 133.52 C 180.53 133.28 181.00 132.42 180.76 131.60 C 180.52 130.78 179.66 130.32 178.84 130.56 L 178.04 130.79 C 177.22 131.03 176.75 131.89 176.99 132.71 C 177.23 133.53 178.09 134.00 178.91 133.76 Z M 179.68 133.51 L 180.63 133.25 C 181.45 133.03 181.92 132.18 181.70 131.37 C 181.47 130.56 180.63 130.08 179.82 130.30 L 178.87 130.57 C 178.06 130.79 177.58 131.63 177.80 132.45 C 178.03 133.26 178.87 133.74 179.68 133.51 Z M 180.60 133.25 L 181.59 132.99 C 182.40 132.79 182.89 131.96 182.69 131.15 C 182.48 130.34 181.66 129.85 180.85 130.06 L 179.85 130.31 C 179.04 130.51 178.55 131.34 178.76 132.15 C 178.96 132.96 179.79 133.45 180.60 133.25 Z M 181.55 132.99 L 182.52 132.78 C 183.33 132.60 183.84 131.79 183.66 130.98 C 183.48 130.17 182.68 129.66 181.87 129.84 L 180.89 130.06 C 180.08 130.24 179.57 131.04 179.75 131.85 C 179.93 132.66 180.73 133.17 181.55 132.99 Z M 182.47 132.77 L 183.43 132.60 C 184.24 132.45 184.77 131.67 184.62 130.86 C 184.47 130.05 183.70 129.51 182.89 129.66 L 181.92 129.84 C 181.11 129.99 180.58 130.77 180.73 131.58 C 180.88 132.39 181.66 132.92 182.47 132.77 Z M 183.36 132.60 L 184.33 132.46 C 185.14 132.35 185.71 131.60 185.59 130.79 C 185.48 129.98 184.73 129.41 183.92 129.53 L 182.95 129.66 C 182.14 129.78 181.58 130.53 181.69 131.34 C 181.81 132.14 182.55 132.71 183.36 132.60 Z M 184.24 132.46 L 185.39 132.37 C 186.20 132.31 186.81 131.61 186.75 130.80 C 186.69 129.99 185.98 129.38 185.17 129.44 L 184.02 129.53 C 183.21 129.59 182.60 130.29 182.66 131.10 C 182.72 131.91 183.43 132.52 184.24 132.46 Z M 185.22 132.37 L 186.26 132.41 C 187.07 132.45 187.75 131.82 187.79 131.02 C 187.82 130.21 187.20 129.53 186.39 129.49 L 185.34 129.45 C 184.54 129.41 183.86 130.04 183.82 130.84 C 183.79 131.65 184.41 132.33 185.22 132.37 Z M 185.96 132.36 L 186.82 132.58 C 187.59 132.79 188.39 132.32 188.59 131.55 C 188.80 130.78 188.33 129.98 187.56 129.78 L 186.70 129.55 C 185.92 129.35 185.13 129.81 184.92 130.58 C 184.72 131.36 185.18 132.15 185.96 132.36 Z M 186.30 132.31 L 186.93 132.81 C 187.56 133.30 188.46 133.19 188.95 132.57 C 189.45 131.94 189.34 131.03 188.71 130.54 L 188.08 130.05 C 187.45 129.55 186.55 129.66 186.05 130.29 C 185.56 130.92 185.67 131.82 186.30 132.31 Z M 186.50 132.23 L 186.84 133.06 C 187.15 133.79 187.99 134.14 188.72 133.83 C 189.46 133.52 189.80 132.68 189.49 131.95 L 189.14 131.12 C 188.84 130.39 188.00 130.04 187.26 130.35 C 186.53 130.66 186.19 131.50 186.50 132.23 Z M 186.75 132.66 L 186.86 133.69 C 186.95 134.47 187.65 135.04 188.44 134.95 C 189.23 134.87 189.79 134.16 189.70 133.37 L 189.59 132.35 C 189.50 131.56 188.80 130.99 188.01 131.08 C 187.23 131.17 186.66 131.88 186.75 132.66 Z M 186.86 133.55 L 186.87 134.42 C 186.88 135.21 187.52 135.84 188.31 135.83 C 189.10 135.82 189.73 135.17 189.72 134.38 L 189.71 133.51 C 189.70 132.73 189.05 132.09 188.27 132.10 C 187.48 132.11 186.85 132.76 186.86 133.55 Z"
      fill="black"
      fill-rule="nonzero" /><path d="M 147.77 160.38 L 146.68 160.50 C 145.83 160.60 145.22 161.37 145.32 162.22 C 145.42 163.07 146.18 163.68 147.03 163.58 L 148.12 163.46 C 148.97 163.36 149.58 162.59 149.48 161.74 C 149.38 160.89 148.62 160.28 147.77 160.38 Z M 146.68 160.49 L 145.61 160.62 C 144.75 160.71 144.14 161.49 144.24 162.34 C 144.33 163.20 145.11 163.81 145.96 163.72 L 147.03 163.59 C 147.89 163.50 148.50 162.72 148.41 161.87 C 148.31 161.01 147.54 160.40 146.68 160.49 Z M 145.61 160.61 L 144.57 160.72 C 143.71 160.82 143.09 161.59 143.18 162.45 C 143.28 163.32 144.05 163.94 144.91 163.84 L 145.96 163.73 C 146.82 163.63 147.44 162.85 147.35 161.99 C 147.25 161.13 146.47 160.51 145.61 160.61 Z M 144.57 160.71 L 143.57 160.82 C 142.71 160.91 142.08 161.69 142.17 162.55 C 142.26 163.42 143.04 164.05 143.91 163.96 L 144.91 163.85 C 145.78 163.76 146.40 162.98 146.31 162.11 C 146.22 161.25 145.44 160.62 144.57 160.71 Z M 143.58 160.81 L 142.64 160.90 C 141.76 160.99 141.13 161.76 141.21 162.64 C 141.30 163.51 142.08 164.15 142.95 164.06 L 143.90 163.97 C 144.77 163.88 145.41 163.10 145.32 162.23 C 145.24 161.36 144.46 160.72 143.58 160.81 Z M 142.65 160.89 L 141.78 160.96 C 140.90 161.04 140.25 161.82 140.33 162.70 C 140.41 163.58 141.18 164.23 142.06 164.15 L 142.94 164.08 C 143.82 164.00 144.47 163.22 144.39 162.34 C 144.31 161.46 143.53 160.81 142.65 160.89 Z M 141.82 160.95 L 140.50 161.04 C 139.61 161.09 138.94 161.86 138.99 162.75 C 139.05 163.64 139.82 164.31 140.71 164.26 L 142.03 164.17 C 142.92 164.11 143.59 163.34 143.53 162.45 C 143.47 161.56 142.70 160.89 141.82 160.95 Z M 140.64 161.02 L 139.51 160.99 C 138.61 160.97 137.87 161.68 137.85 162.58 C 137.82 163.48 138.54 164.23 139.44 164.25 L 140.57 164.27 C 141.47 164.29 142.21 163.58 142.23 162.68 C 142.25 161.78 141.54 161.04 140.64 161.02 Z M 140.16 161.13 L 139.65 160.89 C 138.82 160.51 137.85 160.87 137.47 161.69 C 137.09 162.52 137.45 163.50 138.27 163.88 L 138.78 164.11 C 139.61 164.49 140.59 164.13 140.97 163.31 C 141.35 162.48 140.99 161.51 140.16 161.13 Z M 140.53 162.91 L 140.67 162.49 C 140.96 161.62 140.49 160.68 139.62 160.39 C 138.75 160.11 137.82 160.57 137.53 161.44 L 137.39 161.86 C 137.10 162.73 137.57 163.67 138.44 163.96 C 139.30 164.24 140.24 163.78 140.53 162.91 Z M 140.25 163.16 L 140.82 162.62 C 141.48 161.99 141.50 160.93 140.86 160.27 C 140.23 159.61 139.18 159.59 138.51 160.23 L 137.95 160.77 C 137.29 161.40 137.27 162.46 137.90 163.12 C 138.54 163.78 139.59 163.80 140.25 163.16 Z M 140.64 162.77 L 141.54 162.11 C 142.28 161.57 142.45 160.53 141.91 159.79 C 141.37 159.05 140.33 158.89 139.59 159.43 L 138.69 160.08 C 137.95 160.62 137.78 161.66 138.32 162.40 C 138.86 163.14 139.90 163.31 140.64 162.77 Z M 141.45 162.18 L 142.59 161.46 C 143.37 160.98 143.60 159.95 143.11 159.17 C 142.63 158.39 141.60 158.16 140.82 158.64 L 139.68 159.36 C 138.90 159.85 138.67 160.87 139.15 161.65 C 139.64 162.43 140.67 162.67 141.45 162.18 Z M 142.53 161.50 L 143.44 160.98 C 144.24 160.52 144.51 159.50 144.06 158.71 C 143.60 157.91 142.59 157.63 141.79 158.09 L 140.88 158.61 C 140.08 159.07 139.81 160.08 140.26 160.88 C 140.72 161.68 141.73 161.95 142.53 161.50 Z M 143.41 160.99 L 144.27 160.53 C 145.08 160.09 145.38 159.08 144.94 158.27 C 144.51 157.47 143.50 157.17 142.69 157.60 L 141.82 158.07 C 141.02 158.51 140.72 159.52 141.15 160.32 C 141.59 161.13 142.60 161.43 143.41 160.99 Z M 144.25 160.54 L 145.15 160.07 C 145.96 159.65 146.28 158.65 145.85 157.83 C 145.43 157.02 144.43 156.70 143.61 157.12 L 142.72 157.59 C 141.90 158.01 141.59 159.02 142.01 159.83 C 142.43 160.64 143.43 160.96 144.25 160.54 Z M 145.13 160.08 L 146.04 159.62 C 146.86 159.21 147.19 158.21 146.77 157.39 C 146.36 156.57 145.37 156.24 144.55 156.66 L 143.63 157.12 C 142.82 157.53 142.49 158.53 142.90 159.34 C 143.31 160.16 144.31 160.49 145.13 160.08 Z M 146.03 159.62 L 146.94 159.17 C 147.76 158.77 148.10 157.78 147.69 156.95 C 147.29 156.13 146.30 155.80 145.48 156.20 L 144.56 156.65 C 143.74 157.05 143.40 158.05 143.81 158.87 C 144.21 159.69 145.20 160.03 146.03 159.62 Z M 146.93 159.18 L 147.83 158.74 C 148.65 158.34 149.00 157.35 148.60 156.53 C 148.20 155.70 147.21 155.36 146.39 155.76 L 145.49 156.20 C 144.66 156.60 144.32 157.59 144.72 158.41 C 145.12 159.23 146.11 159.57 146.93 159.18 Z M 147.83 158.74 L 148.81 158.27 C 149.63 157.87 149.98 156.88 149.58 156.06 C 149.19 155.24 148.20 154.89 147.38 155.29 L 146.39 155.76 C 145.57 156.16 145.23 157.14 145.62 157.96 C 146.02 158.79 147.00 159.13 147.83 158.74 Z M 148.80 158.26 L 149.78 157.80 C 150.60 157.40 150.95 156.42 150.56 155.60 C 150.17 154.78 149.18 154.43 148.36 154.82 L 147.38 155.29 C 146.56 155.68 146.21 156.66 146.61 157.49 C 147.00 158.31 147.98 158.66 148.80 158.26 Z M 149.78 157.79 L 150.70 157.36 C 151.52 156.97 151.87 155.99 151.49 155.17 C 151.10 154.35 150.12 154.00 149.30 154.38 L 148.37 154.82 C 147.55 155.21 147.20 156.19 147.59 157.01 C 147.98 157.83 148.96 158.18 149.78 157.79 Z M 150.70 157.35 L 151.57 156.94 C 152.39 156.56 152.74 155.58 152.36 154.77 C 151.97 153.95 151.00 153.59 150.18 153.98 L 149.30 154.39 C 148.49 154.77 148.13 155.75 148.52 156.57 C 148.90 157.39 149.88 157.74 150.70 157.35 Z M 151.56 156.94 L 152.37 156.57 C 153.19 156.19 153.55 155.22 153.17 154.40 C 152.79 153.58 151.82 153.22 151.00 153.60 L 150.19 153.98 C 149.37 154.36 149.01 155.33 149.39 156.15 C 149.77 156.97 150.74 157.32 151.56 156.94 Z M 152.36 156.57 L 153.29 156.14 C 154.11 155.77 154.47 154.80 154.09 153.99 C 153.72 153.17 152.75 152.81 151.94 153.18 L 151.01 153.60 C 150.19 153.98 149.83 154.94 150.20 155.76 C 150.58 156.58 151.54 156.94 152.36 156.57 Z M 153.27 156.14 L 154.23 155.71 C 155.05 155.35 155.42 154.39 155.06 153.57 C 154.69 152.76 153.73 152.39 152.92 152.75 L 151.95 153.18 C 151.13 153.54 150.77 154.50 151.13 155.32 C 151.49 156.14 152.45 156.51 153.27 156.14 Z M 154.21 155.72 L 155.09 155.34 C 155.91 154.99 156.29 154.04 155.94 153.22 C 155.59 152.40 154.64 152.02 153.82 152.37 L 152.94 152.75 C 152.12 153.10 151.74 154.05 152.09 154.87 C 152.44 155.69 153.39 156.07 154.21 155.72 Z M 155.07 155.34 L 155.91 155.00 C 156.73 154.66 157.12 153.72 156.78 152.90 C 156.44 152.08 155.51 151.69 154.68 152.02 L 153.85 152.37 C 153.03 152.71 152.63 153.64 152.97 154.46 C 153.31 155.28 154.25 155.68 155.07 155.34 Z M 155.88 155.00 L 156.81 154.64 C 157.63 154.31 158.04 153.39 157.72 152.56 C 157.40 151.74 156.47 151.33 155.64 151.66 L 154.71 152.02 C 153.89 152.34 153.48 153.27 153.81 154.09 C 154.13 154.92 155.05 155.32 155.88 155.00 Z M 156.79 154.64 L 157.72 154.29 C 158.55 153.97 158.96 153.05 158.65 152.23 C 158.34 151.41 157.42 150.99 156.59 151.30 L 155.66 151.65 C 154.84 151.97 154.42 152.89 154.73 153.71 C 155.05 154.53 155.97 154.95 156.79 154.64 Z M 157.72 154.28 L 158.65 153.93 C 159.47 153.63 159.89 152.71 159.58 151.89 C 159.27 151.06 158.36 150.65 157.54 150.95 L 156.60 151.30 C 155.78 151.61 155.36 152.53 155.67 153.35 C 155.98 154.17 156.89 154.59 157.72 154.28 Z M 158.66 153.93 L 159.58 153.57 C 160.40 153.26 160.81 152.35 160.50 151.53 C 160.19 150.71 159.27 150.30 158.45 150.61 L 157.53 150.96 C 156.71 151.27 156.30 152.19 156.61 153.01 C 156.92 153.82 157.84 154.24 158.66 153.93 Z M 159.58 153.57 L 160.51 153.21 C 161.33 152.90 161.73 151.98 161.42 151.17 C 161.10 150.36 160.19 149.95 159.38 150.26 L 158.45 150.62 C 157.64 150.93 157.23 151.85 157.54 152.66 C 157.86 153.47 158.77 153.88 159.58 153.57 Z M 160.51 153.20 L 161.45 152.84 C 162.26 152.53 162.67 151.62 162.35 150.81 C 162.04 150.00 161.13 149.59 160.32 149.91 L 159.38 150.27 C 158.57 150.58 158.17 151.49 158.48 152.30 C 158.79 153.11 159.70 153.51 160.51 153.20 Z M 161.45 152.83 L 162.38 152.48 C 163.19 152.17 163.59 151.26 163.28 150.46 C 162.97 149.65 162.07 149.24 161.26 149.55 L 160.33 149.91 C 159.52 150.22 159.12 151.12 159.43 151.93 C 159.73 152.74 160.64 153.14 161.45 152.83 Z M 162.37 152.47 L 163.30 152.12 C 164.11 151.82 164.51 150.92 164.21 150.11 C 163.90 149.31 163.00 148.90 162.20 149.21 L 161.27 149.56 C 160.46 149.86 160.06 150.76 160.36 151.57 C 160.67 152.37 161.57 152.78 162.37 152.47 Z M 163.29 152.12 L 164.23 151.77 C 165.04 151.47 165.44 150.57 165.14 149.77 C 164.84 148.97 163.95 148.56 163.15 148.86 L 162.21 149.21 C 161.40 149.51 161.00 150.40 161.30 151.21 C 161.60 152.01 162.49 152.42 163.29 152.12 Z M 164.23 151.76 L 165.17 151.41 C 165.97 151.12 166.38 150.23 166.09 149.43 C 165.79 148.63 164.90 148.22 164.10 148.51 L 163.16 148.86 C 162.35 149.16 161.94 150.05 162.24 150.85 C 162.54 151.65 163.42 152.06 164.23 151.76 Z M 165.16 151.41 L 166.09 151.07 C 166.89 150.78 167.30 149.90 167.01 149.10 C 166.72 148.30 165.84 147.89 165.04 148.18 L 164.11 148.52 C 163.31 148.81 162.90 149.69 163.19 150.49 C 163.48 151.29 164.37 151.70 165.16 151.41 Z M 166.08 151.06 L 167.02 150.73 C 167.82 150.44 168.23 149.56 167.95 148.77 C 167.66 147.97 166.78 147.56 165.99 147.85 L 165.05 148.18 C 164.25 148.47 163.84 149.35 164.13 150.14 C 164.41 150.94 165.29 151.35 166.08 151.06 Z M 167.02 150.72 L 167.97 150.38 C 168.76 150.10 169.17 149.23 168.89 148.44 C 168.61 147.64 167.74 147.23 166.94 147.51 L 165.99 147.85 C 165.20 148.13 164.79 149.00 165.07 149.80 C 165.35 150.59 166.22 151.00 167.02 150.72 Z M 167.96 150.38 L 168.90 150.05 C 169.68 149.77 170.10 148.90 169.82 148.11 C 169.54 147.32 168.68 146.91 167.89 147.19 L 166.95 147.52 C 166.16 147.80 165.75 148.66 166.03 149.45 C 166.31 150.24 167.17 150.65 167.96 150.38 Z M 168.89 150.04 L 169.82 149.71 C 170.61 149.44 171.02 148.58 170.75 147.79 C 170.47 147.01 169.61 146.59 168.83 146.87 L 167.89 147.19 C 167.11 147.47 166.69 148.33 166.97 149.12 C 167.24 149.90 168.10 150.32 168.89 150.04 Z M 169.82 149.71 L 170.77 149.38 C 171.55 149.10 171.96 148.25 171.69 147.46 C 171.41 146.68 170.56 146.27 169.78 146.54 L 168.83 146.87 C 168.05 147.15 167.63 148.00 167.91 148.79 C 168.18 149.57 169.04 149.98 169.82 149.71 Z M 170.77 149.37 L 171.73 149.03 C 172.51 148.76 172.92 147.91 172.64 147.13 C 172.37 146.35 171.52 145.94 170.74 146.21 L 169.78 146.55 C 169.00 146.82 168.59 147.68 168.86 148.45 C 169.13 149.23 169.99 149.64 170.77 149.37 Z M 171.73 149.02 L 172.69 148.69 C 173.46 148.41 173.87 147.56 173.59 146.79 C 173.32 146.02 172.47 145.61 171.70 145.88 L 170.74 146.22 C 169.97 146.49 169.56 147.34 169.83 148.12 C 170.11 148.89 170.96 149.30 171.73 149.02 Z M 172.69 148.68 L 173.64 148.34 C 174.41 148.07 174.82 147.22 174.54 146.45 C 174.27 145.68 173.42 145.28 172.65 145.55 L 171.70 145.89 C 170.93 146.16 170.52 147.01 170.80 147.78 C 171.07 148.55 171.91 148.95 172.69 148.68 Z M 173.64 148.34 L 174.58 148.00 C 175.35 147.73 175.75 146.89 175.48 146.12 C 175.21 145.35 174.36 144.95 173.60 145.22 L 172.65 145.56 C 171.89 145.83 171.49 146.67 171.76 147.44 C 172.03 148.21 172.87 148.61 173.64 148.34 Z M 174.58 148.00 L 175.47 147.68 C 176.24 147.41 176.64 146.57 176.37 145.81 C 176.10 145.04 175.26 144.64 174.49 144.91 L 173.60 145.23 C 172.83 145.50 172.43 146.34 172.70 147.10 C 172.97 147.87 173.81 148.27 174.58 148.00 Z M 175.47 147.68 L 176.28 147.39 C 177.04 147.12 177.44 146.29 177.17 145.53 C 176.91 144.76 176.07 144.36 175.31 144.63 L 174.50 144.92 C 173.73 145.18 173.33 146.02 173.60 146.78 C 173.87 147.54 174.70 147.94 175.47 147.68 Z M 176.27 147.39 L 177.13 147.09 C 177.89 146.83 178.29 146.00 178.03 145.23 C 177.77 144.47 176.94 144.07 176.17 144.33 L 175.31 144.63 C 174.55 144.90 174.15 145.73 174.41 146.49 C 174.68 147.25 175.51 147.65 176.27 147.39 Z M 177.12 147.09 L 178.11 146.75 C 178.87 146.49 179.27 145.66 179.01 144.91 C 178.75 144.15 177.92 143.74 177.16 144.00 L 176.18 144.34 C 175.42 144.60 175.02 145.42 175.28 146.18 C 175.54 146.94 176.36 147.35 177.12 147.09 Z M 178.10 146.75 L 179.25 146.36 C 180.00 146.10 180.41 145.28 180.15 144.52 C 179.90 143.76 179.07 143.36 178.32 143.62 L 177.17 144.00 C 176.41 144.26 176.01 145.08 176.26 145.84 C 176.52 146.60 177.34 147.01 178.10 146.75 Z M 179.24 146.36 L 180.12 146.06 C 180.87 145.81 181.28 144.99 181.03 144.23 C 180.77 143.47 179.95 143.07 179.19 143.32 L 178.32 143.62 C 177.56 143.87 177.15 144.69 177.41 145.45 C 177.66 146.21 178.49 146.61 179.24 146.36 Z M 180.12 146.06 L 181.06 145.74 C 181.82 145.49 182.23 144.67 181.97 143.91 C 181.72 143.16 180.90 142.75 180.14 143.01 L 179.19 143.32 C 178.44 143.58 178.03 144.40 178.29 145.15 C 178.54 145.91 179.36 146.32 180.12 146.06 Z M 181.07 145.74 L 182.06 145.41 C 182.81 145.15 183.22 144.33 182.96 143.58 C 182.70 142.82 181.89 142.42 181.13 142.67 L 180.14 143.01 C 179.39 143.26 178.98 144.08 179.24 144.84 C 179.49 145.59 180.31 146.00 181.07 145.74 Z M 182.06 145.40 L 183.06 145.06 C 183.81 144.80 184.21 143.99 183.96 143.23 C 183.70 142.48 182.88 142.08 182.13 142.33 L 181.13 142.68 C 180.37 142.93 179.97 143.75 180.23 144.50 C 180.49 145.26 181.31 145.66 182.06 145.40 Z M 183.06 145.06 L 184.04 144.72 C 184.79 144.46 185.19 143.64 184.93 142.89 C 184.67 142.14 183.85 141.74 183.10 142.00 L 182.12 142.34 C 181.37 142.60 180.97 143.42 181.23 144.17 C 181.49 144.92 182.31 145.32 183.06 145.06 Z M 184.05 144.71 L 184.97 144.39 C 185.72 144.12 186.11 143.30 185.85 142.56 C 185.59 141.81 184.76 141.41 184.02 141.68 L 183.09 142.00 C 182.34 142.27 181.95 143.09 182.22 143.84 C 182.48 144.59 183.30 144.98 184.05 144.71 Z M 184.99 144.38 L 186.04 144.00 C 186.79 143.73 187.17 142.90 186.90 142.16 C 186.63 141.41 185.81 141.03 185.06 141.30 L 184.00 141.69 C 183.26 141.96 182.87 142.78 183.15 143.53 C 183.42 144.27 184.24 144.65 184.99 144.38 Z M 186.06 143.99 L 187.10 143.59 C 187.84 143.31 188.21 142.48 187.93 141.74 C 187.65 141.00 186.82 140.63 186.08 140.91 L 185.04 141.31 C 184.30 141.59 183.93 142.42 184.21 143.16 C 184.49 143.90 185.32 144.27 186.06 143.99 Z M 187.12 143.58 L 188.03 143.22 C 188.76 142.93 189.12 142.09 188.82 141.36 C 188.53 140.62 187.70 140.27 186.96 140.56 L 186.06 140.92 C 185.32 141.22 184.96 142.05 185.26 142.78 C 185.55 143.52 186.39 143.88 187.12 143.58 Z M 188.04 143.21 L 188.86 142.88 C 189.59 142.57 189.94 141.73 189.64 141.00 C 189.33 140.27 188.49 139.93 187.76 140.23 L 186.94 140.57 C 186.21 140.87 185.87 141.71 186.17 142.44 C 186.47 143.17 187.31 143.52 188.04 143.21 Z M 188.87 142.87 L 189.51 142.60 C 190.24 142.29 190.58 141.45 190.27 140.72 C 189.97 140.00 189.13 139.65 188.40 139.96 L 187.76 140.23 C 187.03 140.54 186.69 141.38 186.99 142.11 C 187.30 142.84 188.14 143.18 188.87 142.87 Z"
      fill="black"
      fill-rule="nonzero" /><path d="M 179.69 134.22 L 178.64 133.55 C 177.95 133.11 177.04 133.31 176.60 134.00 C 176.17 134.69 176.37 135.60 177.06 136.04 L 178.11 136.71 C 178.80 137.14 179.71 136.94 180.15 136.25 C 180.58 135.56 180.38 134.65 179.69 134.22 Z M 178.62 133.51 L 177.61 132.91 C 176.90 132.48 175.98 132.71 175.56 133.42 C 175.13 134.13 175.36 135.05 176.07 135.48 L 177.08 136.08 C 177.79 136.51 178.71 136.27 179.14 135.56 C 179.56 134.85 179.33 133.93 178.62 133.51 Z M 177.54 132.84 L 176.62 132.37 C 175.87 131.98 174.95 132.28 174.57 133.02 C 174.19 133.77 174.48 134.69 175.23 135.07 L 176.15 135.55 C 176.90 135.93 177.81 135.64 178.20 134.89 C 178.58 134.14 178.29 133.22 177.54 132.84 Z M 176.44 132.26 L 175.65 131.98 C 174.84 131.70 173.96 132.12 173.67 132.93 C 173.39 133.73 173.82 134.62 174.62 134.90 L 175.41 135.18 C 176.22 135.46 177.10 135.04 177.38 134.23 C 177.67 133.43 177.24 132.54 176.44 132.26 Z M 175.16 131.87 L 174.52 131.86 C 173.66 131.84 172.94 132.53 172.92 133.40 C 172.91 134.27 173.60 134.98 174.46 135.00 L 175.10 135.01 C 175.97 135.03 176.69 134.34 176.70 133.47 C 176.72 132.61 176.03 131.89 175.16 131.87 Z M 173.44 132.24 L 172.92 132.71 C 172.26 133.29 172.20 134.30 172.79 134.95 C 173.37 135.61 174.38 135.66 175.03 135.08 L 175.55 134.62 C 176.21 134.03 176.26 133.03 175.68 132.37 C 175.10 131.72 174.09 131.66 173.44 132.24 Z M 172.42 133.50 L 172.19 134.39 C 171.97 135.25 172.49 136.13 173.35 136.35 C 174.21 136.56 175.08 136.05 175.30 135.19 L 175.53 134.29 C 175.75 133.43 175.23 132.56 174.37 132.34 C 173.51 132.12 172.64 132.64 172.42 133.50 Z M 172.12 134.75 L 172.09 135.93 C 172.07 136.82 172.78 137.57 173.67 137.59 C 174.57 137.61 175.32 136.91 175.34 136.01 L 175.37 134.83 C 175.39 133.93 174.68 133.19 173.79 133.17 C 172.89 133.14 172.15 133.85 172.12 134.75 Z M 172.08 136.06 L 172.14 137.09 C 172.18 137.99 172.95 138.68 173.86 138.64 C 174.76 138.59 175.45 137.82 175.40 136.92 L 175.35 135.88 C 175.30 134.98 174.53 134.29 173.63 134.33 C 172.73 134.38 172.03 135.15 172.08 136.06 Z M 172.13 137.14 L 172.21 138.00 C 172.28 138.90 173.08 139.57 173.98 139.49 C 174.89 139.42 175.56 138.62 175.48 137.72 L 175.41 136.86 C 175.33 135.96 174.54 135.29 173.63 135.37 C 172.73 135.44 172.06 136.24 172.13 137.14 Z M 172.21 138.04 L 172.31 138.95 C 172.40 139.85 173.22 140.50 174.12 140.40 C 175.03 140.31 175.68 139.49 175.58 138.59 L 175.48 137.68 C 175.38 136.77 174.57 136.12 173.66 136.22 C 172.76 136.32 172.11 137.13 172.21 138.04 Z M 172.31 138.98 L 172.44 139.96 C 172.55 140.87 173.38 141.50 174.29 141.39 C 175.19 141.27 175.83 140.44 175.71 139.54 L 175.58 138.55 C 175.46 137.65 174.63 137.01 173.73 137.13 C 172.82 137.25 172.19 138.08 172.31 138.98 Z M 172.44 139.99 L 172.60 141.07 C 172.73 141.97 173.57 142.59 174.48 142.46 C 175.38 142.32 176.00 141.48 175.87 140.58 L 175.71 139.51 C 175.57 138.60 174.73 137.98 173.83 138.12 C 172.92 138.25 172.30 139.09 172.44 139.99 Z M 172.60 141.09 L 172.79 142.27 C 172.94 143.17 173.79 143.78 174.69 143.64 C 175.60 143.49 176.21 142.64 176.06 141.73 L 175.87 140.55 C 175.72 139.65 174.87 139.04 173.96 139.19 C 173.06 139.34 172.45 140.19 172.60 141.09 Z M 172.79 142.29 L 172.97 143.30 C 173.12 144.20 173.98 144.81 174.89 144.65 C 175.79 144.49 176.40 143.63 176.24 142.73 L 176.06 141.72 C 175.90 140.81 175.04 140.21 174.14 140.37 C 173.24 140.52 172.63 141.38 172.79 142.29 Z M 172.96 143.31 L 173.15 144.31 C 173.31 145.21 174.18 145.81 175.08 145.65 C 175.98 145.48 176.58 144.62 176.42 143.71 L 176.24 142.72 C 176.08 141.81 175.21 141.21 174.31 141.38 C 173.40 141.54 172.80 142.41 172.96 143.31 Z M 173.14 144.31 L 173.33 145.34 C 173.50 146.25 174.37 146.85 175.28 146.68 C 176.18 146.51 176.78 145.64 176.61 144.73 L 176.42 143.71 C 176.25 142.80 175.38 142.20 174.48 142.37 C 173.57 142.54 172.97 143.41 173.14 144.31 Z M 173.33 145.35 L 173.53 146.39 C 173.70 147.30 174.57 147.89 175.48 147.72 C 176.39 147.55 176.99 146.67 176.81 145.77 L 176.62 144.73 C 176.45 143.82 175.57 143.22 174.66 143.40 C 173.76 143.57 173.16 144.44 173.33 145.35 Z M 173.52 146.39 L 173.72 147.42 C 173.90 148.33 174.77 148.93 175.68 148.75 C 176.59 148.58 177.19 147.70 177.01 146.79 L 176.82 145.76 C 176.64 144.85 175.76 144.26 174.85 144.43 C 173.95 144.61 173.35 145.48 173.52 146.39 Z M 173.72 147.43 L 173.91 148.42 C 174.09 149.34 174.97 149.93 175.88 149.75 C 176.79 149.58 177.39 148.70 177.21 147.79 L 177.02 146.79 C 176.84 145.88 175.96 145.28 175.05 145.46 C 174.14 145.63 173.54 146.51 173.72 147.43 Z M 173.91 148.43 L 174.09 149.37 C 174.27 150.29 175.15 150.88 176.07 150.70 C 176.98 150.53 177.58 149.64 177.40 148.73 L 177.21 147.78 C 177.04 146.87 176.15 146.27 175.24 146.45 C 174.33 146.63 173.73 147.51 173.91 148.43 Z M 174.09 149.37 L 174.26 150.25 C 174.44 151.16 175.32 151.76 176.24 151.58 C 177.15 151.40 177.75 150.52 177.57 149.60 L 177.40 148.73 C 177.22 147.81 176.34 147.21 175.42 147.39 C 174.51 147.57 173.91 148.46 174.09 149.37 Z M 174.26 150.24 L 174.49 151.48 C 174.67 152.40 175.56 153.00 176.47 152.82 C 177.39 152.65 177.99 151.76 177.81 150.84 L 177.57 149.60 C 177.40 148.69 176.51 148.09 175.60 148.26 C 174.68 148.44 174.08 149.33 174.26 150.24 Z M 174.49 151.48 L 174.69 152.54 C 174.87 153.46 175.75 154.06 176.67 153.89 C 177.58 153.71 178.19 152.83 178.01 151.91 L 177.81 150.85 C 177.64 149.93 176.76 149.33 175.84 149.50 C 174.92 149.68 174.32 150.56 174.49 151.48 Z M 174.69 152.53 L 174.86 153.45 C 175.03 154.36 175.90 154.97 176.82 154.81 C 177.74 154.64 178.35 153.76 178.18 152.85 L 178.01 151.93 C 177.85 151.01 176.97 150.40 176.05 150.57 C 175.14 150.73 174.53 151.61 174.69 152.53 Z M 174.86 153.43 L 175.00 154.27 C 175.16 155.18 176.03 155.80 176.95 155.64 C 177.86 155.49 178.48 154.62 178.32 153.70 L 178.18 152.86 C 178.02 151.95 177.15 151.33 176.24 151.49 C 175.32 151.64 174.70 152.51 174.86 153.43 Z M 175.00 154.25 L 175.13 155.09 C 175.28 156.01 176.14 156.64 177.06 156.49 C 177.98 156.35 178.60 155.49 178.46 154.57 L 178.33 153.72 C 178.18 152.80 177.32 152.17 176.40 152.32 C 175.48 152.46 174.85 153.33 175.00 154.25 Z M 175.13 155.07 L 175.28 156.05 C 175.41 156.97 176.26 157.61 177.18 157.47 C 178.10 157.34 178.74 156.48 178.60 155.56 L 178.46 154.59 C 178.33 153.67 177.47 153.03 176.55 153.17 C 175.63 153.30 175.00 154.15 175.13 155.07 Z M 175.27 156.04 L 175.41 157.03 C 175.54 157.95 176.39 158.60 177.31 158.47 C 178.23 158.34 178.87 157.49 178.74 156.57 L 178.61 155.58 C 178.48 154.66 177.63 154.01 176.71 154.14 C 175.79 154.27 175.15 155.12 175.27 156.04 Z M 175.41 157.03 L 175.54 158.03 C 175.67 158.95 176.51 159.60 177.43 159.47 C 178.36 159.35 179.00 158.50 178.88 157.58 L 178.75 156.58 C 178.62 155.66 177.78 155.01 176.85 155.14 C 175.93 155.26 175.29 156.11 175.41 157.03 Z M 175.54 158.03 L 175.68 159.02 C 175.80 159.94 176.64 160.59 177.57 160.47 C 178.49 160.35 179.13 159.50 179.01 158.58 L 178.88 157.58 C 178.76 156.66 177.91 156.01 176.99 156.14 C 176.07 156.26 175.42 157.11 175.54 158.03 Z M 175.67 159.02 L 175.81 160.01 C 175.93 160.93 176.78 161.58 177.70 161.46 C 178.62 161.33 179.27 160.49 179.15 159.57 L 179.01 158.58 C 178.89 157.65 178.04 157.01 177.12 157.13 C 176.20 157.25 175.55 158.10 175.67 159.02 Z M 175.80 160.01 L 175.93 160.99 C 176.06 161.92 176.90 162.57 177.83 162.45 C 178.75 162.32 179.40 161.48 179.28 160.55 L 179.15 159.57 C 179.03 158.64 178.18 157.99 177.26 158.12 C 176.33 158.24 175.68 159.09 175.80 160.01 Z M 175.93 160.98 L 176.05 161.98 C 176.17 162.90 177.02 163.56 177.94 163.44 C 178.87 163.32 179.52 162.48 179.41 161.55 L 179.28 160.56 C 179.16 159.64 178.32 158.98 177.39 159.10 C 176.47 159.21 175.81 160.06 175.93 160.98 Z M 176.05 161.96 L 176.17 162.96 C 176.28 163.88 177.12 164.55 178.04 164.44 C 178.97 164.33 179.64 163.49 179.53 162.56 L 179.41 161.57 C 179.30 160.64 178.46 159.98 177.53 160.08 C 176.61 160.19 175.94 161.03 176.05 161.96 Z M 176.16 162.94 L 176.26 163.91 C 176.36 164.85 177.20 165.52 178.13 165.42 C 179.07 165.32 179.74 164.49 179.64 163.55 L 179.54 162.58 C 179.44 161.65 178.60 160.97 177.67 161.07 C 176.73 161.17 176.06 162.01 176.16 162.94 Z M 176.25 163.90 L 176.35 164.89 C 176.44 165.83 177.28 166.52 178.21 166.42 C 179.15 166.33 179.84 165.50 179.75 164.56 L 179.65 163.57 C 179.56 162.63 178.72 161.94 177.79 162.04 C 176.85 162.13 176.16 162.96 176.25 163.90 Z M 176.34 164.88 L 176.43 165.88 C 176.51 166.83 177.35 167.52 178.29 167.44 C 179.23 167.36 179.93 166.52 179.85 165.58 L 179.76 164.57 C 179.67 163.63 178.84 162.93 177.90 163.02 C 176.95 163.10 176.26 163.93 176.34 164.88 Z M 176.42 165.87 L 176.50 166.89 C 176.58 167.84 177.41 168.54 178.36 168.47 C 179.31 168.39 180.01 167.56 179.94 166.61 L 179.85 165.59 C 179.78 164.65 178.95 163.94 178.00 164.02 C 177.05 164.09 176.34 164.92 176.42 165.87 Z M 176.50 166.87 L 176.57 167.87 C 176.64 168.82 177.47 169.54 178.42 169.47 C 179.37 169.40 180.09 168.57 180.02 167.62 L 179.94 166.62 C 179.88 165.67 179.05 164.96 178.09 165.02 C 177.14 165.09 176.43 165.92 176.50 166.87 Z M 176.56 167.85 L 176.63 168.85 C 176.69 169.81 177.51 170.53 178.47 170.47 C 179.43 170.41 180.15 169.58 180.09 168.62 L 180.02 167.63 C 179.96 166.67 179.14 165.95 178.18 166.01 C 177.22 166.07 176.50 166.90 176.56 167.85 Z M 176.62 168.84 L 176.68 169.84 C 176.73 170.80 177.56 171.53 178.52 171.48 C 179.48 171.42 180.21 170.60 180.15 169.64 L 180.10 168.64 C 180.04 167.68 179.22 166.94 178.26 167.00 C 177.30 167.05 176.56 167.88 176.62 168.84 Z M 176.67 169.83 L 176.72 170.83 C 176.77 171.79 177.59 172.54 178.56 172.49 C 179.52 172.44 180.26 171.62 180.21 170.65 L 180.16 169.65 C 180.11 168.68 179.29 167.94 178.33 167.99 C 177.36 168.04 176.62 168.86 176.67 169.83 Z M 176.72 170.82 L 176.76 171.82 C 176.80 172.79 177.62 173.54 178.59 173.49 C 179.56 173.45 180.30 172.63 180.26 171.66 L 180.22 170.66 C 180.18 169.70 179.36 168.95 178.39 168.99 C 177.42 169.03 176.67 169.85 176.72 170.82 Z M 176.76 171.81 L 176.79 172.81 C 176.83 173.78 177.64 174.53 178.61 174.50 C 179.58 174.46 180.34 173.64 180.30 172.68 L 180.27 171.68 C 180.23 170.71 179.42 169.95 178.45 169.99 C 177.48 170.02 176.72 170.84 176.76 171.81 Z M 176.79 172.79 L 176.82 173.79 C 176.85 174.76 177.66 175.53 178.63 175.50 C 179.60 175.47 180.37 174.66 180.34 173.69 L 180.31 172.69 C 180.28 171.72 179.47 170.95 178.49 170.98 C 177.52 171.01 176.76 171.82 176.79 172.79 Z M 176.82 173.78 L 176.84 174.78 C 176.86 175.75 177.67 176.52 178.64 176.50 C 179.62 176.48 180.39 175.67 180.36 174.70 L 180.34 173.70 C 180.32 172.73 179.51 171.96 178.54 171.98 C 177.56 172.00 176.79 172.81 176.82 173.78 Z M 176.84 174.77 L 176.85 175.77 C 176.87 176.74 177.67 177.52 178.65 177.50 C 179.62 177.49 180.40 176.68 180.38 175.71 L 180.37 174.71 C 180.35 173.74 179.55 172.96 178.57 172.97 C 177.60 172.99 176.82 173.79 176.84 174.77 Z M 176.85 175.75 L 176.86 176.75 C 176.87 177.72 177.67 178.51 178.65 178.50 C 179.62 178.49 180.41 177.69 180.40 176.71 L 180.39 175.72 C 180.38 174.74 179.58 173.96 178.60 173.97 C 177.62 173.98 176.84 174.78 176.85 175.75 Z M 176.86 176.74 L 176.86 177.73 C 176.87 178.71 177.66 179.50 178.64 179.49 C 179.62 179.49 180.41 178.69 180.40 177.71 L 180.40 176.72 C 180.39 175.74 179.60 174.95 178.62 174.96 C 177.64 174.96 176.85 175.76 176.86 176.74 Z M 176.86 177.73 L 176.86 178.73 C 176.86 179.71 177.66 180.50 178.64 180.50 C 179.62 180.50 180.41 179.70 180.41 178.72 L 180.41 177.72 C 180.40 176.74 179.61 175.95 178.63 175.95 C 177.65 175.95 176.86 176.75 176.86 177.73 Z M 176.86 178.73 L 176.86 179.74 C 176.86 180.72 177.66 181.51 178.64 181.51 C 179.62 181.51 180.41 180.72 180.41 179.74 L 180.41 178.72 C 180.41 177.74 179.62 176.95 178.63 176.95 C 177.65 176.95 176.86 177.74 176.86 178.73 Z M 176.86 179.74 L 176.86 180.77 C 176.86 181.75 177.65 182.54 178.64 182.54 C 179.62 182.54 180.41 181.75 180.41 180.77 L 180.41 179.74 C 180.41 178.76 179.62 177.96 178.64 177.96 C 177.65 177.96 176.86 178.76 176.86 179.74 Z M 176.86 180.77 L 176.86 181.79 C 176.86 182.78 177.65 183.57 178.64 183.57 C 179.62 183.57 180.42 182.78 180.42 181.79 L 180.42 180.77 C 180.42 179.78 179.62 178.99 178.64 178.99 C 177.65 178.99 176.86 179.78 176.86 180.77 Z M 176.85 181.79 L 176.85 182.80 C 176.85 183.78 177.65 184.58 178.64 184.58 C 179.62 184.58 180.42 183.78 180.42 182.80 L 180.42 181.79 C 180.42 180.81 179.62 180.01 178.64 180.01 C 177.65 180.01 176.85 180.81 176.85 181.79 Z M 176.85 182.80 L 176.85 183.77 C 176.85 184.76 177.65 185.55 178.64 185.55 C 179.62 185.55 180.42 184.76 180.42 183.77 L 180.42 182.80 C 180.42 181.82 179.62 181.02 178.64 181.02 C 177.65 181.02 176.85 181.82 176.85 182.80 Z M 176.85 183.77 L 176.85 184.79 C 176.85 185.78 177.65 186.58 178.64 186.58 C 179.62 186.58 180.42 185.78 180.42 184.79 L 180.42 183.77 C 180.42 182.79 179.62 181.99 178.64 181.99 C 177.65 181.99 176.85 182.78 176.85 183.77 Z M 176.85 184.79 L 176.85 185.83 C 176.85 186.81 177.64 187.62 178.63 187.62 C 179.62 187.62 180.42 186.82 180.42 185.83 L 180.42 184.79 C 180.42 183.81 179.62 183.01 178.64 183.01 C 177.65 183.00 176.85 183.80 176.85 184.79 Z M 176.85 185.82 L 176.84 186.80 C 176.83 187.78 177.63 188.59 178.62 188.60 C 179.60 188.60 180.41 187.81 180.42 186.82 L 180.42 185.84 C 180.43 184.85 179.63 184.05 178.64 184.04 C 177.66 184.04 176.85 184.83 176.85 185.82 Z M 176.84 186.78 L 176.83 187.72 C 176.81 188.71 177.60 189.52 178.59 189.53 C 179.58 189.55 180.39 188.76 180.40 187.77 L 180.42 186.83 C 180.43 185.85 179.64 185.03 178.65 185.02 C 177.66 185.01 176.85 185.80 176.84 186.78 Z M 176.82 187.70 L 176.80 188.62 C 176.77 189.60 177.55 190.43 178.54 190.45 C 179.53 190.48 180.35 189.70 180.38 188.71 L 180.40 187.79 C 180.43 186.80 179.65 185.98 178.66 185.95 C 177.68 185.93 176.85 186.71 176.82 187.70 Z M 176.80 188.57 L 176.75 189.52 C 176.69 190.50 177.45 191.35 178.44 191.40 C 179.43 191.46 180.27 190.70 180.33 189.71 L 180.38 188.76 C 180.43 187.77 179.67 186.93 178.69 186.88 C 177.70 186.82 176.85 187.58 176.80 188.57 Z M 176.75 189.45 L 176.66 190.48 C 176.57 191.46 177.29 192.34 178.28 192.43 C 179.26 192.52 180.14 191.79 180.23 190.81 L 180.32 189.78 C 180.41 188.79 179.69 187.92 178.70 187.83 C 177.72 187.74 176.84 188.46 176.75 189.45 Z M 176.66 190.41 L 176.53 191.45 C 176.39 192.43 177.09 193.33 178.07 193.46 C 179.05 193.59 179.95 192.90 180.08 191.92 L 180.22 190.88 C 180.35 189.90 179.66 188.99 178.68 188.86 C 177.70 188.73 176.79 189.42 176.66 190.41 Z M 176.53 191.39 L 176.38 192.33 C 176.22 193.30 176.88 194.23 177.86 194.39 C 178.84 194.55 179.76 193.89 179.92 192.91 L 180.07 191.98 C 180.24 191.00 179.57 190.07 178.59 189.91 C 177.62 189.75 176.69 190.42 176.53 191.39 Z M 176.39 192.28 L 176.20 193.27 C 176.02 194.24 176.66 195.18 177.63 195.37 C 178.61 195.55 179.55 194.91 179.73 193.93 L 179.92 192.95 C 180.10 191.97 179.46 191.04 178.48 190.85 C 177.51 190.67 176.57 191.31 176.39 192.28 Z M 176.21 193.23 L 175.99 194.24 C 175.79 195.21 176.41 196.17 177.38 196.37 C 178.35 196.58 179.30 195.96 179.51 194.99 L 179.72 193.97 C 179.93 193.00 179.31 192.05 178.34 191.84 C 177.37 191.64 176.41 192.26 176.21 193.23 Z M 176.00 194.20 L 175.76 195.22 C 175.54 196.18 176.14 197.15 177.10 197.38 C 178.07 197.60 179.04 197.00 179.26 196.04 L 179.50 195.02 C 179.73 194.06 179.13 193.09 178.16 192.86 C 177.19 192.64 176.23 193.24 176.00 194.20 Z M 175.77 195.18 L 175.51 196.20 C 175.26 197.16 175.83 198.15 176.79 198.40 C 177.76 198.65 178.74 198.07 178.99 197.11 L 179.25 196.08 C 179.50 195.12 178.93 194.14 177.97 193.89 C 177.00 193.64 176.02 194.21 175.77 195.18 Z M 175.52 196.15 L 175.22 197.17 C 174.94 198.12 175.49 199.12 176.44 199.40 C 177.39 199.68 178.39 199.14 178.67 198.18 L 178.97 197.16 C 179.25 196.21 178.71 195.21 177.75 194.93 C 176.80 194.65 175.80 195.20 175.52 196.15 Z M 175.24 197.10 L 174.92 198.07 C 174.60 199.01 175.10 200.03 176.05 200.35 C 176.99 200.66 178.01 200.16 178.32 199.22 L 178.65 198.25 C 178.97 197.31 178.46 196.29 177.52 195.97 C 176.58 195.66 175.56 196.16 175.24 197.10 Z M 174.95 197.98 L 174.59 198.88 C 174.23 199.80 174.68 200.84 175.60 201.21 C 176.53 201.58 177.57 201.13 177.94 200.20 L 178.29 199.30 C 178.66 198.38 178.21 197.34 177.28 196.97 C 176.36 196.60 175.32 197.06 174.95 197.98 Z M 174.64 198.77 L 174.25 199.59 C 173.82 200.49 174.21 201.56 175.10 201.98 C 176.00 202.41 177.07 202.03 177.50 201.13 L 177.89 200.31 C 178.32 199.41 177.93 198.34 177.04 197.92 C 176.14 197.49 175.07 197.87 174.64 198.77 Z M 174.34 199.44 L 173.78 200.36 C 173.27 201.21 173.54 202.31 174.40 202.82 C 175.25 203.33 176.35 203.06 176.86 202.21 L 177.41 201.29 C 177.92 200.44 177.65 199.33 176.80 198.82 C 175.95 198.31 174.85 198.59 174.34 199.44 Z M 173.94 200.14 L 173.30 200.92 C 172.67 201.68 172.78 202.81 173.54 203.44 C 174.31 204.07 175.44 203.96 176.07 203.20 L 176.70 202.42 C 177.33 201.66 177.22 200.53 176.46 199.90 C 175.70 199.27 174.57 199.38 173.94 200.14 Z M 173.55 200.67 L 172.82 201.27 C 172.05 201.90 171.94 203.03 172.57 203.79 C 173.19 204.55 174.32 204.67 175.08 204.04 L 175.81 203.44 C 176.58 202.82 176.69 201.69 176.07 200.93 C 175.44 200.16 174.31 200.05 173.55 200.67 Z M 173.17 201.05 L 172.34 201.46 C 171.46 201.89 171.09 202.95 171.52 203.84 C 171.94 204.72 173.01 205.09 173.89 204.66 L 174.73 204.26 C 175.61 203.83 175.98 202.77 175.55 201.88 C 175.12 201.00 174.06 200.63 173.17 201.05 Z M 172.74 201.33 L 171.82 201.53 C 170.87 201.74 170.27 202.68 170.47 203.64 C 170.68 204.59 171.62 205.19 172.58 204.99 L 173.50 204.79 C 174.45 204.58 175.05 203.64 174.84 202.68 C 174.64 201.73 173.69 201.13 172.74 201.33 Z M 172.19 201.51 L 171.19 201.52 C 170.23 201.52 169.45 202.31 169.45 203.27 C 169.46 204.24 170.24 205.02 171.21 205.01 L 172.21 205.01 C 173.17 205.00 173.95 204.22 173.95 203.25 C 173.94 202.29 173.16 201.51 172.19 201.51 Z M 171.52 201.56 L 170.46 201.37 C 169.52 201.19 168.62 201.81 168.45 202.75 C 168.27 203.69 168.89 204.59 169.83 204.77 L 170.89 204.96 C 171.82 205.14 172.73 204.52 172.90 203.58 C 173.07 202.64 172.46 201.74 171.52 201.56 Z M 170.70 201.46 L 169.80 201.15 C 168.92 200.84 167.95 201.31 167.64 202.20 C 167.33 203.09 167.80 204.05 168.69 204.36 L 169.59 204.68 C 170.48 204.98 171.44 204.51 171.75 203.63 C 172.06 202.74 171.59 201.77 170.70 201.46 Z M 169.95 201.25 L 169.07 200.84 C 168.23 200.45 167.24 200.81 166.86 201.65 C 166.47 202.48 166.83 203.47 167.66 203.86 L 168.54 204.27 C 169.38 204.65 170.37 204.29 170.75 203.46 C 171.14 202.62 170.78 201.63 169.95 201.25 Z M 169.15 200.92 L 168.26 200.43 C 167.47 200.00 166.48 200.29 166.05 201.08 C 165.62 201.87 165.91 202.85 166.70 203.28 L 167.58 203.77 C 168.37 204.20 169.36 203.92 169.79 203.13 C 170.22 202.34 169.93 201.35 169.15 200.92 Z M 168.30 200.50 L 167.41 199.96 C 166.66 199.51 165.68 199.75 165.23 200.50 C 164.77 201.25 165.01 202.22 165.76 202.68 L 166.66 203.22 C 167.41 203.67 168.38 203.43 168.83 202.68 C 169.29 201.93 169.05 200.96 168.30 200.50 Z M 167.42 200.01 L 166.56 199.47 C 165.84 199.01 164.88 199.22 164.42 199.95 C 163.96 200.67 164.18 201.63 164.90 202.09 L 165.75 202.63 C 166.48 203.09 167.44 202.87 167.89 202.15 C 168.35 201.43 168.14 200.47 167.42 200.01 Z M 166.56 199.50 L 165.80 199.00 C 165.09 198.54 164.15 198.74 163.69 199.45 C 163.23 200.16 163.43 201.10 164.13 201.56 L 164.90 202.06 C 165.61 202.52 166.55 202.32 167.01 201.61 C 167.47 200.90 167.27 199.96 166.56 199.50 Z M 165.81 199.03 L 165.02 198.51 C 164.33 198.04 163.40 198.23 162.93 198.92 C 162.47 199.61 162.66 200.55 163.35 201.01 L 164.13 201.53 C 164.82 202.00 165.75 201.81 166.22 201.12 C 166.68 200.43 166.50 199.49 165.81 199.03 Z M 165.04 198.54 L 164.23 197.97 C 163.55 197.50 162.63 197.67 162.16 198.34 C 161.69 199.02 161.85 199.95 162.53 200.42 L 163.34 200.98 C 164.01 201.45 164.94 201.28 165.41 200.61 C 165.88 199.93 165.71 199.01 165.04 198.54 Z M 164.24 198.01 L 163.39 197.39 C 162.73 196.91 161.81 197.06 161.34 197.71 C 160.86 198.37 161.01 199.29 161.66 199.77 L 162.51 200.38 C 163.17 200.86 164.09 200.71 164.57 200.06 C 165.04 199.40 164.90 198.48 164.24 198.01 Z M 163.40 197.42 L 162.50 196.74 C 161.86 196.25 160.95 196.38 160.47 197.02 C 159.98 197.65 160.11 198.56 160.75 199.05 L 161.65 199.73 C 162.29 200.22 163.20 200.09 163.68 199.45 C 164.17 198.81 164.04 197.90 163.40 197.42 Z M 162.51 196.76 L 161.81 196.21 C 161.19 195.72 160.28 195.83 159.79 196.45 C 159.30 197.08 159.41 197.99 160.03 198.48 L 160.73 199.03 C 161.36 199.52 162.27 199.41 162.76 198.78 C 163.25 198.16 163.14 197.25 162.51 196.76 Z M 161.82 196.22 L 161.09 195.63 C 160.47 195.14 159.57 195.23 159.07 195.85 C 158.57 196.47 158.67 197.38 159.29 197.88 L 160.02 198.47 C 160.64 198.96 161.55 198.86 162.05 198.24 C 162.54 197.62 162.44 196.72 161.82 196.22 Z M 161.10 195.64 L 160.34 195.02 C 159.73 194.52 158.82 194.61 158.32 195.23 C 157.82 195.84 157.91 196.75 158.52 197.25 L 159.28 197.87 C 159.90 198.37 160.80 198.28 161.30 197.66 C 161.81 197.05 161.71 196.14 161.10 195.64 Z M 160.35 195.03 L 159.57 194.38 C 158.96 193.88 158.05 193.96 157.55 194.57 C 157.04 195.18 157.13 196.09 157.74 196.59 L 158.52 197.24 C 159.13 197.75 160.03 197.66 160.54 197.05 C 161.04 196.44 160.96 195.54 160.35 195.03 Z M 159.57 194.39 L 158.77 193.72 C 158.17 193.22 157.26 193.30 156.76 193.90 C 156.25 194.51 156.33 195.41 156.94 195.92 L 157.73 196.59 C 158.34 197.10 159.24 197.01 159.75 196.41 C 160.26 195.80 160.18 194.90 159.57 194.39 Z M 158.77 193.73 L 157.97 193.05 C 157.36 192.54 156.46 192.62 155.95 193.22 C 155.44 193.83 155.52 194.73 156.13 195.24 L 156.93 195.92 C 157.54 196.43 158.44 196.35 158.95 195.74 C 159.46 195.14 159.38 194.24 158.77 193.73 Z M 157.97 193.05 L 157.15 192.36 C 156.55 191.85 155.65 191.93 155.14 192.53 C 154.63 193.14 154.71 194.04 155.31 194.55 L 156.12 195.23 C 156.73 195.74 157.63 195.67 158.14 195.06 C 158.65 194.46 158.57 193.56 157.97 193.05 Z M 157.15 192.36 L 156.93 192.18 C 156.33 191.67 155.43 191.75 154.92 192.35 C 154.42 192.95 154.49 193.85 155.09 194.36 L 155.31 194.54 C 155.91 195.05 156.81 194.98 157.32 194.37 C 157.83 193.77 157.75 192.87 157.15 192.36 Z"
      fill="black"
      fill-rule="nonzero" /><path d="M 148.17 175.06 L 149.04 174.77 C 149.86 174.50 150.31 173.61 150.04 172.78 C 149.77 171.95 148.87 171.50 148.05 171.78 L 147.18 172.06 C 146.36 172.34 145.91 173.23 146.18 174.06 C 146.46 174.88 147.35 175.33 148.17 175.06 Z M 149.03 174.79 L 149.92 174.50 C 150.75 174.23 151.21 173.34 150.95 172.51 C 150.68 171.67 149.79 171.21 148.95 171.48 L 148.06 171.76 C 147.23 172.03 146.77 172.92 147.03 173.76 C 147.30 174.59 148.19 175.05 149.03 174.79 Z M 149.89 174.52 L 150.84 174.24 C 151.68 173.99 152.16 173.10 151.91 172.25 C 151.66 171.41 150.77 170.93 149.93 171.18 L 148.98 171.46 C 148.13 171.71 147.65 172.60 147.90 173.44 C 148.16 174.29 149.04 174.77 149.89 174.52 Z M 150.80 174.26 L 151.83 173.98 C 152.69 173.75 153.20 172.87 152.97 172.01 C 152.74 171.16 151.85 170.65 151.00 170.88 L 149.96 171.16 C 149.11 171.39 148.60 172.27 148.83 173.13 C 149.06 173.98 149.94 174.49 150.80 174.26 Z M 151.79 174.00 L 152.81 173.75 C 153.68 173.54 154.21 172.67 154.01 171.81 C 153.80 170.94 152.93 170.41 152.06 170.62 L 151.04 170.86 C 150.17 171.07 149.64 171.94 149.85 172.81 C 150.06 173.67 150.93 174.20 151.79 174.00 Z M 152.78 173.75 L 153.68 173.56 C 154.55 173.37 155.10 172.52 154.91 171.65 C 154.73 170.78 153.87 170.23 153.00 170.42 L 152.10 170.61 C 151.23 170.80 150.68 171.66 150.87 172.52 C 151.06 173.39 151.91 173.94 152.78 173.75 Z M 153.66 173.55 L 154.61 173.36 C 155.48 173.19 156.04 172.35 155.86 171.49 C 155.69 170.62 154.85 170.06 153.99 170.24 L 153.03 170.43 C 152.17 170.60 151.61 171.44 151.78 172.30 C 151.95 173.16 152.79 173.72 153.66 173.55 Z M 154.59 173.35 L 155.59 173.16 C 156.44 173.00 157.01 172.18 156.85 171.32 C 156.69 170.46 155.87 169.90 155.01 170.06 L 154.01 170.24 C 153.16 170.40 152.59 171.23 152.75 172.09 C 152.91 172.94 153.73 173.51 154.59 173.35 Z M 155.57 173.15 L 156.59 172.98 C 157.44 172.83 158.01 172.02 157.86 171.16 C 157.71 170.31 156.90 169.74 156.05 169.89 L 155.03 170.07 C 154.18 170.22 153.61 171.03 153.75 171.88 C 153.90 172.73 154.72 173.30 155.57 173.15 Z M 156.57 172.97 L 157.61 172.79 C 158.45 172.66 159.02 171.86 158.89 171.01 C 158.75 170.16 157.95 169.59 157.10 169.73 L 156.07 169.90 C 155.22 170.04 154.65 170.84 154.79 171.69 C 154.93 172.53 155.73 173.11 156.57 172.97 Z M 157.59 172.78 L 158.63 172.62 C 159.47 172.49 160.04 171.70 159.91 170.86 C 159.78 170.02 158.99 169.45 158.15 169.58 L 157.11 169.74 C 156.27 169.87 155.70 170.66 155.83 171.50 C 155.96 172.34 156.75 172.92 157.59 172.78 Z M 158.62 172.61 L 159.71 172.44 C 160.54 172.32 161.12 171.55 161.00 170.71 C 160.87 169.88 160.10 169.31 159.26 169.43 L 158.17 169.59 C 157.34 169.72 156.76 170.49 156.88 171.32 C 157.01 172.16 157.78 172.73 158.62 172.61 Z M 159.70 172.43 L 160.77 172.28 C 161.59 172.16 162.16 171.40 162.05 170.58 C 161.93 169.75 161.17 169.18 160.35 169.30 L 159.28 169.45 C 158.45 169.56 157.88 170.32 158.00 171.15 C 158.11 171.97 158.87 172.54 159.70 172.43 Z M 160.75 172.26 L 161.78 172.12 C 162.59 172.02 163.17 171.27 163.06 170.45 C 162.95 169.64 162.20 169.06 161.38 169.17 L 160.36 169.31 C 159.54 169.42 158.97 170.17 159.08 170.98 C 159.19 171.80 159.94 172.37 160.75 172.26 Z M 161.77 172.11 L 162.74 171.98 C 163.55 171.88 164.12 171.15 164.01 170.34 C 163.91 169.53 163.17 168.96 162.37 169.07 L 161.40 169.19 C 160.59 169.29 160.02 170.03 160.12 170.84 C 160.23 171.64 160.96 172.21 161.77 172.11 Z M 162.73 171.97 L 163.63 171.86 C 164.43 171.76 165.00 171.04 164.90 170.24 C 164.80 169.44 164.08 168.88 163.28 168.97 L 162.38 169.08 C 161.58 169.18 161.01 169.90 161.11 170.70 C 161.21 171.50 161.93 172.06 162.73 171.97 Z M 163.62 171.84 L 164.55 171.74 C 165.34 171.65 165.90 170.94 165.81 170.15 C 165.72 169.36 165.01 168.79 164.22 168.88 L 163.30 168.99 C 162.51 169.08 161.94 169.79 162.03 170.58 C 162.12 171.37 162.83 171.93 163.62 171.84 Z M 164.53 171.73 L 165.65 171.62 C 166.43 171.53 167.00 170.83 166.92 170.05 C 166.84 169.26 166.14 168.69 165.35 168.77 L 164.24 168.89 C 163.45 168.97 162.88 169.67 162.96 170.46 C 163.04 171.24 163.75 171.81 164.53 171.73 Z M 165.63 171.62 L 166.61 171.53 C 167.39 171.46 167.97 170.76 167.90 169.98 C 167.83 169.19 167.14 168.61 166.35 168.68 L 165.37 168.77 C 164.59 168.84 164.01 169.54 164.08 170.32 C 164.15 171.11 164.84 171.69 165.63 171.62 Z M 166.58 171.53 L 167.48 171.46 C 168.27 171.40 168.86 170.72 168.80 169.93 C 168.74 169.15 168.06 168.56 167.27 168.62 L 166.37 168.68 C 165.59 168.74 165.00 169.43 165.05 170.21 C 165.11 171.00 165.80 171.59 166.58 171.53 Z M 167.46 171.46 L 168.39 171.41 C 169.18 171.36 169.78 170.68 169.73 169.90 C 169.68 169.11 169.01 168.51 168.22 168.56 L 167.29 168.62 C 166.51 168.66 165.91 169.34 165.95 170.12 C 166.00 170.91 166.68 171.51 167.46 171.46 Z M 168.38 171.41 L 169.37 171.36 C 170.15 171.32 170.76 170.65 170.72 169.86 C 170.68 169.08 170.01 168.47 169.23 168.51 L 168.24 168.56 C 167.45 168.60 166.84 169.27 166.88 170.05 C 166.92 170.84 167.59 171.45 168.38 171.41 Z M 169.36 171.36 L 170.36 171.32 C 171.15 171.28 171.76 170.62 171.73 169.83 C 171.69 169.05 171.03 168.44 170.24 168.47 L 169.24 168.51 C 168.45 168.54 167.84 169.21 167.87 169.99 C 167.91 170.78 168.57 171.39 169.36 171.36 Z M 170.36 171.32 L 171.28 171.28 C 172.07 171.25 172.68 170.59 172.65 169.80 C 172.62 169.01 171.96 168.40 171.17 168.43 L 170.25 168.47 C 169.46 168.50 168.85 169.16 168.88 169.95 C 168.91 170.73 169.57 171.35 170.36 171.32 Z"
      fill="black"
      fill-rule="nonzero" /></svg>