<svg xmlns="http://www.w3.org/2000/svg" width="300" height="300" viewBox="0 0 300 300">
<path d="M 128.92 108.35 L 128.56 109.35 C 128.27 110.14 128.68 111.01 129.47 111.30 C 130.26 111.59 131.13 111.18 131.42 110.39 L 131.78 109.39 C 132.06 108.60 131.66 107.73 130.87 107.44 C 130.08 107.15 129.21 107.56 128.92 108.35 Z M 128.53 109.34 L 128.17 110.33 C 127.87 111.14 128.29 112.03 129.10 112.32 C 129.90 112.61 130.80 112.20 131.09 111.39 L 131.45 110.40 C 131.74 109.59 131.32 108.70 130.52 108.41 C 129.71 108.12 128.82 108.53 128.53 109.34 Z M 128.14 110.31 L 127.78 111.28 C 127.48 112.11 127.90 113.02 128.73 113.32 C 129.55 113.62 130.46 113.20 130.76 112.38 L 131.12 111.41 C 131.42 110.58 131.00 109.67 130.17 109.37 C 129.35 109.07 128.44 109.49 128.14 110.31 Z M 127.75 111.27 L 127.40 112.21 C 127.09 113.05 127.52 113.98 128.36 114.29 C 129.20 114.60 130.13 114.17 130.44 113.33 L 130.79 112.39 C 131.10 111.55 130.68 110.62 129.84 110.31 C 129.00 110.00 128.06 110.43 127.75 111.27 Z M 127.37 112.18 L 127.04 113.08 C 126.71 113.94 127.14 114.90 128.00 115.22 C 128.85 115.54 129.81 115.11 130.13 114.25 L 130.47 113.35 C 130.80 112.50 130.36 111.54 129.51 111.22 C 128.65 110.90 127.70 111.33 127.37 112.18 Z M 127.01 113.06 L 126.68 113.91 C 126.34 114.78 126.78 115.76 127.65 116.10 C 128.52 116.43 129.49 116.00 129.83 115.13 L 130.16 114.28 C 130.50 113.41 130.06 112.43 129.19 112.09 C 128.32 111.76 127.34 112.19 127.01 113.06 Z M 126.67 113.88 L 126.28 114.84 C 125.93 115.72 126.36 116.71 127.24 117.06 C 128.11 117.42 129.11 116.99 129.46 116.11 L 129.84 115.16 C 130.19 114.28 129.77 113.28 128.89 112.93 C 128.01 112.58 127.02 113.01 126.67 113.88 Z M 126.29 114.81 L 125.90 115.74 C 125.54 116.62 125.95 117.62 126.82 117.99 C 127.69 118.35 128.70 117.94 129.06 117.07 L 129.45 116.14 C 129.82 115.27 129.41 114.26 128.54 113.90 C 127.66 113.53 126.66 113.94 126.29 114.81 Z M 125.91 115.71 L 125.52 116.60 C 125.14 117.46 125.53 118.48 126.40 118.86 C 127.26 119.24 128.27 118.85 128.66 117.99 L 129.05 117.10 C 129.43 116.23 129.04 115.22 128.18 114.84 C 127.31 114.45 126.30 114.85 125.91 115.71 Z M 125.54 116.57 L 125.13 117.44 C 124.73 118.30 125.10 119.32 125.96 119.72 C 126.82 120.12 127.84 119.75 128.24 118.89 L 128.64 118.02 C 129.05 117.16 128.67 116.14 127.81 115.74 C 126.96 115.34 125.94 115.71 125.54 116.57 Z M 125.14 117.41 L 124.70 118.31 C 124.29 119.16 124.64 120.19 125.49 120.61 C 126.34 121.02 127.37 120.67 127.79 119.82 L 128.22 118.92 C 128.64 118.07 128.29 117.04 127.43 116.63 C 126.58 116.21 125.56 116.56 125.14 117.41 Z M 124.71 118.29 L 124.26 119.18 C 123.83 120.03 124.17 121.06 125.02 121.49 C 125.86 121.92 126.89 121.58 127.32 120.73 L 127.78 119.84 C 128.20 118.99 127.87 117.96 127.02 117.53 C 126.17 117.10 125.14 117.44 124.71 118.29 Z M 124.27 119.16 L 123.79 120.08 C 123.36 120.92 123.68 121.96 124.52 122.39 C 125.37 122.83 126.40 122.50 126.84 121.66 L 127.31 120.75 C 127.75 119.91 127.43 118.87 126.58 118.43 C 125.74 118.00 124.71 118.32 124.27 119.16 Z M 123.80 120.06 L 123.32 120.98 C 122.87 121.81 123.19 122.85 124.03 123.30 C 124.86 123.74 125.90 123.43 126.35 122.59 L 126.83 121.68 C 127.28 120.84 126.96 119.80 126.12 119.35 C 125.29 118.91 124.25 119.23 123.80 120.06 Z M 123.32 120.97 L 122.84 121.85 C 122.39 122.69 122.70 123.73 123.53 124.18 C 124.37 124.63 125.41 124.32 125.86 123.49 L 126.34 122.60 C 126.79 121.77 126.48 120.72 125.65 120.27 C 124.81 119.82 123.77 120.13 123.32 120.97 Z M 122.85 121.84 L 122.39 122.68 C 121.93 123.51 122.23 124.55 123.06 125.01 C 123.89 125.47 124.94 125.16 125.39 124.33 L 125.85 123.50 C 126.31 122.67 126.01 121.62 125.18 121.17 C 124.35 120.71 123.30 121.01 122.85 121.84 Z M 122.39 122.67 L 121.87 123.61 C 121.40 124.44 121.70 125.48 122.52 125.95 C 123.35 126.41 124.40 126.11 124.86 125.29 L 125.39 124.35 C 125.85 123.52 125.56 122.47 124.73 122.01 C 123.90 121.55 122.86 121.84 122.39 122.67 Z M 121.88 123.60 L 121.36 124.49 C 120.89 125.31 121.17 126.36 121.99 126.83 C 122.82 127.30 123.86 127.02 124.33 126.20 L 124.85 125.30 C 125.32 124.48 125.04 123.43 124.22 122.96 C 123.40 122.49 122.35 122.77 121.88 123.60 Z M 121.37 124.47 L 120.89 125.29 C 120.41 126.11 120.68 127.16 121.50 127.64 C 122.31 128.12 123.36 127.85 123.84 127.03 L 124.32 126.21 C 124.80 125.40 124.53 124.35 123.72 123.87 C 122.90 123.39 121.85 123.66 121.37 124.47 Z M 120.90 125.28 L 120.43 126.07 C 119.94 126.88 120.20 127.93 121.01 128.42 C 121.82 128.90 122.87 128.64 123.36 127.83 L 123.83 127.05 C 124.32 126.24 124.06 125.18 123.25 124.70 C 122.44 124.21 121.39 124.47 120.90 125.28 Z M 120.43 126.06 L 119.93 126.88 C 119.44 127.68 119.69 128.73 120.50 129.23 C 121.30 129.72 122.35 129.47 122.85 128.66 L 123.35 127.84 C 123.84 127.04 123.59 125.99 122.78 125.49 C 121.98 125.00 120.93 125.25 120.43 126.06 Z M 119.94 126.87 L 119.42 127.71 C 118.92 128.51 119.17 129.56 119.97 130.06 C 120.77 130.56 121.82 130.31 122.32 129.51 L 122.84 128.67 C 123.34 127.87 123.09 126.82 122.29 126.32 C 121.49 125.82 120.44 126.07 119.94 126.87 Z M 119.43 127.70 L 118.89 128.56 C 118.38 129.35 118.62 130.41 119.42 130.91 C 120.22 131.41 121.27 131.17 121.77 130.37 L 122.31 129.52 C 122.81 128.72 122.57 127.67 121.78 127.16 C 120.98 126.66 119.93 126.90 119.43 127.70 Z M 118.89 128.55 L 118.34 129.42 C 117.84 130.21 118.07 131.26 118.86 131.77 C 119.66 132.27 120.71 132.04 121.21 131.25 L 121.77 130.38 C 122.27 129.59 122.04 128.53 121.24 128.03 C 120.45 127.52 119.40 127.76 118.89 128.55 Z M 118.35 129.41 L 117.82 130.23 C 117.31 131.02 117.54 132.07 118.33 132.58 C 119.12 133.09 120.17 132.86 120.68 132.07 L 121.21 131.25 C 121.72 130.46 121.49 129.41 120.70 128.90 C 119.91 128.39 118.86 128.62 118.35 129.41 Z M 117.83 130.23 L 117.29 131.06 C 116.78 131.85 117.00 132.90 117.79 133.41 C 118.58 133.92 119.63 133.69 120.14 132.90 L 120.68 132.07 C 121.19 131.28 120.96 130.23 120.17 129.72 C 119.39 129.21 118.34 129.44 117.83 130.23 Z M 117.29 131.06 L 116.74 131.91 C 116.23 132.69 116.45 133.74 117.24 134.25 C 118.02 134.76 119.07 134.54 119.58 133.75 L 120.13 132.90 C 120.64 132.12 120.42 131.07 119.63 130.56 C 118.85 130.05 117.80 130.27 117.29 131.06 Z M 116.74 131.91 L 116.18 132.77 C 115.67 133.55 115.90 134.60 116.68 135.11 C 117.46 135.62 118.51 135.40 119.02 134.61 L 119.58 133.75 C 120.09 132.97 119.86 131.92 119.08 131.41 C 118.30 130.90 117.25 131.13 116.74 131.91 Z M 116.18 132.78 L 115.66 133.59 C 115.15 134.37 115.38 135.42 116.16 135.92 C 116.94 136.43 117.99 136.20 118.49 135.42 L 119.02 134.61 C 119.52 133.83 119.30 132.78 118.52 132.28 C 117.74 131.77 116.69 131.99 116.18 132.78 Z M 115.66 133.59 L 115.13 134.42 C 114.62 135.20 114.85 136.24 115.63 136.75 C 116.41 137.25 117.45 137.03 117.96 136.25 L 118.49 135.42 C 118.99 134.64 118.77 133.59 117.99 133.09 C 117.21 132.59 116.16 132.81 115.66 133.59 Z M 115.13 134.42 L 114.58 135.27 C 114.08 136.05 114.31 137.09 115.09 137.59 C 115.87 138.09 116.91 137.87 117.41 137.09 L 117.95 136.24 C 118.45 135.46 118.23 134.42 117.45 133.92 C 116.67 133.42 115.63 133.64 115.13 134.42 Z M 114.59 135.27 L 114.03 136.13 C 113.53 136.91 113.76 137.95 114.53 138.45 C 115.31 138.95 116.35 138.73 116.85 137.95 L 117.41 137.09 C 117.91 136.31 117.68 135.27 116.90 134.77 C 116.13 134.27 115.09 134.49 114.59 135.27 Z M 114.04 136.14 L 113.49 136.99 C 112.99 137.76 113.21 138.80 113.99 139.30 C 114.76 139.80 115.80 139.57 116.30 138.80 L 116.85 137.95 C 117.35 137.17 117.12 136.14 116.35 135.64 C 115.57 135.14 114.54 135.36 114.04 136.14 Z M 113.49 136.99 L 112.95 137.84 C 112.45 138.61 112.67 139.64 113.45 140.14 C 114.22 140.64 115.25 140.42 115.75 139.64 L 116.29 138.80 C 116.79 138.02 116.57 136.99 115.79 136.49 C 115.02 135.99 113.99 136.22 113.49 136.99 Z M 112.95 137.84 L 112.40 138.69 C 111.91 139.46 112.13 140.49 112.90 140.99 C 113.67 141.48 114.70 141.26 115.20 140.49 L 115.74 139.64 C 116.24 138.87 116.02 137.84 115.25 137.34 C 114.47 136.85 113.45 137.07 112.95 137.84 Z M 112.41 138.69 L 111.87 139.54 C 111.37 140.31 111.59 141.33 112.36 141.83 C 113.13 142.32 114.16 142.10 114.65 141.33 L 115.19 140.48 C 115.69 139.71 115.46 138.69 114.69 138.20 C 113.93 137.70 112.90 137.93 112.41 138.69 Z M 111.87 139.54 L 111.34 140.37 C 110.85 141.14 111.07 142.16 111.84 142.65 C 112.61 143.14 113.63 142.92 114.12 142.15 L 114.65 141.32 C 115.14 140.55 114.92 139.53 114.15 139.04 C 113.38 138.55 112.36 138.78 111.87 139.54 Z M 111.34 140.38 L 110.78 141.25 C 110.30 142.02 110.52 143.04 111.29 143.53 C 112.05 144.01 113.07 143.79 113.56 143.02 L 114.12 142.15 C 114.60 141.38 114.38 140.36 113.61 139.88 C 112.84 139.39 111.83 139.61 111.34 140.38 Z M 110.79 141.26 L 110.24 142.12 C 109.76 142.88 109.99 143.90 110.75 144.38 C 111.52 144.86 112.53 144.64 113.01 143.87 L 113.56 143.01 C 114.04 142.25 113.81 141.24 113.05 140.75 C 112.28 140.27 111.27 140.50 110.79 141.26 Z M 110.25 142.13 L 109.72 142.96 C 109.24 143.73 109.47 144.73 110.23 145.21 C 111.00 145.69 112.00 145.46 112.48 144.70 L 113.01 143.86 C 113.49 143.10 113.26 142.09 112.50 141.61 C 111.74 141.13 110.73 141.36 110.25 142.13 Z M 109.72 142.97 L 109.21 143.79 C 108.73 144.55 108.96 145.56 109.72 146.03 C 110.49 146.51 111.49 146.28 111.96 145.52 L 112.48 144.69 C 112.96 143.93 112.73 142.93 111.96 142.45 C 111.20 141.98 110.20 142.21 109.72 142.97 Z M 109.21 143.80 L 108.68 144.65 C 108.21 145.41 108.44 146.41 109.20 146.88 C 109.96 147.35 110.96 147.12 111.43 146.36 L 111.96 145.51 C 112.43 144.75 112.20 143.75 111.44 143.28 C 110.68 142.81 109.68 143.04 109.21 143.80 Z M 108.69 144.66 L 108.15 145.52 C 107.68 146.28 107.92 147.27 108.68 147.74 C 109.43 148.21 110.43 147.97 110.89 147.22 L 111.43 146.35 C 111.90 145.60 111.66 144.60 110.90 144.14 C 110.15 143.67 109.15 143.90 108.69 144.66 Z M 108.16 145.53 L 107.63 146.39 C 107.17 147.14 107.41 148.13 108.16 148.59 C 108.92 149.05 109.91 148.82 110.37 148.06 L 110.89 147.21 C 111.35 146.45 111.12 145.47 110.36 145.00 C 109.61 144.54 108.62 144.78 108.16 145.53 Z M 107.64 146.40 L 107.13 147.23 C 106.67 147.99 106.91 148.97 107.66 149.43 C 108.42 149.88 109.40 149.64 109.86 148.89 L 110.37 148.05 C 110.82 147.30 110.58 146.32 109.83 145.86 C 109.07 145.40 108.09 145.64 107.64 146.40 Z M 107.13 147.25 L 106.64 148.06 C 106.19 148.82 106.43 149.79 107.19 150.24 C 107.94 150.69 108.91 150.45 109.36 149.70 L 109.85 148.88 C 110.31 148.13 110.06 147.15 109.31 146.70 C 108.56 146.25 107.58 146.49 107.13 147.25 Z M 106.64 148.08 L 106.16 148.89 C 105.72 149.64 105.96 150.61 106.72 151.06 C 107.47 151.50 108.44 151.25 108.88 150.50 L 109.36 149.68 C 109.81 148.93 109.56 147.96 108.81 147.52 C 108.06 147.08 107.09 147.32 106.64 148.08 Z M 106.16 148.90 L 105.67 149.75 C 105.23 150.50 105.48 151.46 106.23 151.90 C 106.98 152.34 107.94 152.09 108.38 151.34 L 108.88 150.49 C 109.32 149.74 109.06 148.78 108.31 148.34 C 107.56 147.90 106.60 148.15 106.16 148.90 Z M 105.67 149.76 L 105.14 150.67 C 104.71 151.42 104.97 152.38 105.72 152.81 C 106.46 153.24 107.42 152.98 107.85 152.24 L 108.38 151.33 C 108.81 150.58 108.56 149.62 107.81 149.19 C 107.06 148.76 106.10 149.01 105.67 149.76 Z M 105.15 150.68 L 104.63 151.58 C 104.21 152.32 104.46 153.27 105.21 153.70 C 105.96 154.13 106.91 153.87 107.34 153.13 L 107.85 152.23 C 108.28 151.48 108.02 150.53 107.27 150.10 C 106.53 149.67 105.58 149.93 105.15 150.68 Z M 104.64 151.59 L 104.14 152.46 C 103.72 153.21 103.98 154.15 104.72 154.58 C 105.47 155.00 106.41 154.74 106.83 153.99 L 107.33 153.12 C 107.75 152.37 107.49 151.42 106.75 151.00 C 106.01 150.58 105.06 150.84 104.64 151.59 Z M 104.14 152.48 L 103.64 153.38 C 103.22 154.12 103.49 155.06 104.23 155.48 C 104.98 155.89 105.92 155.63 106.33 154.88 L 106.83 153.98 C 107.25 153.23 106.98 152.29 106.24 151.88 C 105.49 151.46 104.55 151.73 104.14 152.48 Z M 103.63 153.40 L 103.14 154.30 C 102.74 155.04 103.02 155.98 103.76 156.38 C 104.51 156.79 105.44 156.51 105.85 155.76 L 106.33 154.86 C 106.74 154.12 106.46 153.18 105.72 152.78 C 104.97 152.38 104.04 152.65 103.63 153.40 Z M 103.14 154.33 L 102.69 155.19 C 102.30 155.94 102.59 156.87 103.34 157.26 C 104.09 157.65 105.01 157.35 105.40 156.60 L 105.85 155.74 C 106.24 154.99 105.95 154.06 105.20 153.67 C 104.45 153.28 103.53 153.58 103.14 154.33 Z M 102.67 155.25 L 102.11 156.43 C 101.75 157.19 102.07 158.10 102.83 158.46 C 103.58 158.82 104.49 158.50 104.85 157.74 L 105.41 156.55 C 105.78 155.80 105.45 154.89 104.70 154.53 C 103.94 154.17 103.04 154.49 102.67 155.25 Z M 102.08 156.55 L 101.67 157.62 C 101.37 158.39 101.76 159.26 102.53 159.56 C 103.30 159.85 104.17 159.47 104.47 158.69 L 104.88 157.62 C 105.17 156.85 104.79 155.99 104.02 155.69 C 103.24 155.39 102.38 155.78 102.08 156.55 Z M 101.59 158.12 L 101.58 158.59 C 101.56 159.40 102.20 160.08 103.01 160.10 C 103.83 160.13 104.51 159.48 104.53 158.67 L 104.54 158.20 C 104.57 157.38 103.92 156.71 103.11 156.68 C 102.29 156.66 101.61 157.30 101.59 158.12 Z M 103.80 159.88 L 104.22 159.63 C 104.92 159.22 105.14 158.32 104.73 157.63 C 104.32 156.94 103.42 156.71 102.73 157.12 L 102.31 157.38 C 101.62 157.79 101.39 158.68 101.80 159.37 C 102.21 160.07 103.11 160.29 103.80 159.88 Z M 104.52 159.38 L 105.25 158.62 C 105.81 158.04 105.79 157.13 105.22 156.57 C 104.64 156.02 103.73 156.03 103.18 156.61 L 102.44 157.37 C 101.88 157.95 101.90 158.86 102.47 159.41 C 103.05 159.97 103.96 159.95 104.52 159.38 Z M 105.29 158.56 L 106.16 157.57 C 106.68 156.98 106.62 156.07 106.03 155.55 C 105.43 155.03 104.53 155.09 104.01 155.68 L 103.14 156.67 C 102.62 157.26 102.68 158.16 103.27 158.69 C 103.86 159.21 104.77 159.15 105.29 158.56 Z"
      fill="black"
      fill-rule="nonzero" /><path d="M 118.57 135.84 L 119.21 135.11 C 119.78 134.45 119.71 133.46 119.06 132.89 C 118.41 132.32 117.41 132.38 116.84 133.03 L 116.20 133.76 C 115.63 134.42 115.69 135.41 116.35 135.98 C 117.00 136.55 117.99 136.49 118.57 135.84 Z M 119.14 135.19 L 119.83 134.50 C 120.45 133.88 120.45 132.88 119.83 132.26 C 119.22 131.64 118.21 131.64 117.59 132.26 L 116.90 132.95 C 116.28 133.57 116.28 134.57 116.90 135.19 C 117.52 135.81 118.52 135.81 119.14 135.19 Z M 119.69 134.65 L 120.48 134.03 C 121.18 133.50 121.31 132.49 120.77 131.80 C 120.23 131.10 119.23 130.97 118.53 131.51 L 117.74 132.12 C 117.04 132.65 116.91 133.66 117.45 134.35 C 117.99 135.05 118.99 135.18 119.69 134.65 Z M 120.26 134.19 L 121.15 133.72 C 121.94 133.31 122.24 132.33 121.82 131.55 C 121.41 130.76 120.44 130.46 119.65 130.88 L 118.76 131.35 C 117.97 131.76 117.67 132.73 118.09 133.52 C 118.50 134.30 119.47 134.60 120.26 134.19 Z M 120.93 133.82 L 121.78 133.53 C 122.62 133.24 123.07 132.32 122.78 131.48 C 122.49 130.64 121.57 130.19 120.73 130.48 L 119.88 130.78 C 119.04 131.07 118.59 131.98 118.88 132.82 C 119.17 133.66 120.09 134.11 120.93 133.82 Z M 121.63 133.57 L 122.57 133.34 C 123.44 133.13 123.97 132.26 123.76 131.40 C 123.55 130.53 122.68 130.00 121.82 130.21 L 120.88 130.44 C 120.01 130.65 119.48 131.52 119.69 132.38 C 119.90 133.25 120.77 133.78 121.63 133.57 Z M 122.48 133.36 L 123.49 133.18 C 124.36 133.03 124.95 132.19 124.79 131.32 C 124.64 130.44 123.80 129.86 122.93 130.01 L 121.92 130.19 C 121.04 130.35 120.46 131.18 120.61 132.06 C 120.77 132.93 121.60 133.52 122.48 133.36 Z M 123.43 133.19 L 124.49 133.04 C 125.37 132.92 125.99 132.11 125.86 131.22 C 125.74 130.34 124.92 129.73 124.04 129.85 L 122.98 130.00 C 122.10 130.13 121.49 130.94 121.61 131.82 C 121.74 132.70 122.55 133.32 123.43 133.19 Z M 124.47 133.05 L 125.54 132.91 C 126.42 132.80 127.04 131.99 126.93 131.11 C 126.82 130.23 126.02 129.61 125.13 129.72 L 124.07 129.85 C 123.18 129.96 122.56 130.77 122.67 131.65 C 122.78 132.53 123.59 133.16 124.47 133.05 Z M 125.53 132.91 L 126.58 132.78 C 127.46 132.67 128.09 131.87 127.98 130.98 C 127.87 130.10 127.06 129.48 126.18 129.59 L 125.14 129.72 C 124.26 129.83 123.63 130.63 123.74 131.51 C 123.85 132.39 124.65 133.02 125.53 132.91 Z M 126.58 132.78 L 127.61 132.65 C 128.49 132.54 129.12 131.74 129.01 130.86 C 128.90 129.98 128.09 129.35 127.21 129.46 L 126.18 129.59 C 125.30 129.70 124.68 130.50 124.79 131.38 C 124.90 132.26 125.70 132.89 126.58 132.78 Z M 127.61 132.65 L 128.61 132.52 C 129.49 132.41 130.11 131.61 130.00 130.73 C 129.89 129.85 129.09 129.23 128.21 129.34 L 127.21 129.46 C 126.33 129.58 125.71 130.38 125.82 131.26 C 125.93 132.13 126.74 132.76 127.61 132.65 Z M 128.62 132.52 L 129.56 132.39 C 130.44 132.28 131.06 131.48 130.95 130.60 C 130.83 129.72 130.03 129.10 129.15 129.22 L 128.20 129.34 C 127.33 129.46 126.71 130.26 126.82 131.13 C 126.94 132.01 127.74 132.63 128.62 132.52 Z M 129.57 132.39 L 130.54 132.26 C 131.41 132.14 132.03 131.33 131.91 130.46 C 131.79 129.59 130.99 128.97 130.11 129.09 L 129.14 129.22 C 128.27 129.34 127.66 130.15 127.78 131.02 C 127.89 131.89 128.70 132.51 129.57 132.39 Z M 130.55 132.25 L 131.63 132.09 C 132.50 131.97 133.10 131.16 132.98 130.29 C 132.85 129.42 132.05 128.82 131.18 128.95 L 130.10 129.10 C 129.23 129.23 128.63 130.03 128.75 130.90 C 128.88 131.77 129.68 132.37 130.55 132.25 Z M 131.64 132.08 L 132.62 131.93 C 133.48 131.80 134.07 131.00 133.94 130.13 C 133.81 129.27 133.00 128.68 132.14 128.81 L 131.16 128.96 C 130.30 129.09 129.71 129.90 129.84 130.76 C 129.97 131.62 130.78 132.21 131.64 132.08 Z M 132.62 131.92 L 133.53 131.78 C 134.39 131.64 134.97 130.84 134.84 129.98 C 134.70 129.12 133.89 128.54 133.04 128.67 L 132.13 128.82 C 131.27 128.95 130.69 129.76 130.82 130.62 C 130.96 131.48 131.77 132.06 132.62 131.92 Z M 133.54 131.77 L 134.48 131.61 C 135.34 131.48 135.91 130.67 135.78 129.82 C 135.64 128.97 134.83 128.39 133.98 128.53 L 133.03 128.68 C 132.18 128.82 131.60 129.63 131.74 130.48 C 131.88 131.33 132.68 131.91 133.54 131.77 Z M 134.48 131.61 L 135.47 131.45 C 136.32 131.31 136.89 130.50 136.75 129.66 C 136.61 128.81 135.81 128.23 134.96 128.37 L 133.98 128.53 C 133.13 128.67 132.56 129.48 132.70 130.32 C 132.83 131.17 133.64 131.75 134.48 131.61 Z M 135.47 131.44 L 136.45 131.28 C 137.30 131.14 137.87 130.34 137.73 129.49 C 137.59 128.65 136.79 128.08 135.95 128.22 L 134.96 128.38 C 134.12 128.52 133.55 129.32 133.69 130.16 C 133.83 131.01 134.62 131.58 135.47 131.44 Z M 136.45 131.27 L 137.44 131.11 C 138.28 130.97 138.85 130.18 138.71 129.34 C 138.57 128.50 137.78 127.92 136.94 128.06 L 135.95 128.22 C 135.11 128.36 134.54 129.15 134.68 130.00 C 134.82 130.84 135.61 131.41 136.45 131.27 Z M 137.43 131.10 L 138.42 130.94 C 139.26 130.81 139.83 130.02 139.69 129.18 C 139.56 128.35 138.77 127.78 137.93 127.91 L 136.94 128.07 C 136.11 128.20 135.54 128.99 135.67 129.83 C 135.81 130.67 136.59 131.24 137.43 131.10 Z M 138.41 130.94 L 139.40 130.78 C 140.24 130.65 140.81 129.87 140.68 129.04 C 140.55 128.20 139.77 127.63 138.93 127.76 L 137.94 127.92 C 137.11 128.05 136.54 128.83 136.67 129.66 C 136.80 130.49 137.58 131.07 138.41 130.94 Z M 139.39 130.78 L 140.37 130.63 C 141.20 130.51 141.78 129.74 141.65 128.91 C 141.53 128.08 140.76 127.50 139.93 127.62 L 138.95 127.77 C 138.12 127.89 137.54 128.66 137.66 129.49 C 137.79 130.32 138.56 130.90 139.39 130.78 Z M 140.36 130.63 L 141.24 130.50 C 142.06 130.39 142.64 129.63 142.53 128.80 C 142.41 127.97 141.65 127.39 140.82 127.51 L 139.94 127.63 C 139.11 127.74 138.54 128.51 138.65 129.34 C 138.77 130.16 139.53 130.74 140.36 130.63 Z M 141.23 130.50 L 142.16 130.37 C 142.98 130.26 143.56 129.50 143.45 128.68 C 143.34 127.86 142.58 127.28 141.76 127.39 L 140.83 127.52 C 140.00 127.63 139.43 128.38 139.54 129.21 C 139.65 130.03 140.41 130.61 141.23 130.50 Z M 142.16 130.36 L 143.20 130.22 C 144.02 130.11 144.59 129.35 144.48 128.54 C 144.37 127.72 143.61 127.14 142.80 127.26 L 141.75 127.40 C 140.94 127.51 140.36 128.26 140.47 129.08 C 140.59 129.90 141.34 130.48 142.16 130.36 Z M 143.21 130.21 L 144.30 130.06 C 145.12 129.94 145.68 129.19 145.57 128.37 C 145.45 127.56 144.70 126.99 143.88 127.11 L 142.79 127.26 C 141.98 127.38 141.41 128.13 141.52 128.95 C 141.64 129.76 142.39 130.33 143.21 130.21 Z M 144.31 130.05 L 145.28 129.91 C 146.09 129.79 146.65 129.04 146.53 128.23 C 146.42 127.42 145.66 126.86 144.85 126.97 L 143.88 127.12 C 143.07 127.23 142.51 127.99 142.63 128.80 C 142.74 129.61 143.50 130.17 144.31 130.05 Z M 145.28 129.90 L 146.31 129.75 C 147.11 129.64 147.67 128.88 147.55 128.08 C 147.44 127.27 146.69 126.71 145.88 126.83 L 144.85 126.98 C 144.05 127.10 143.49 127.85 143.60 128.66 C 143.72 129.46 144.47 130.02 145.28 129.90 Z M 146.30 129.75 L 147.34 129.60 C 148.14 129.48 148.70 128.74 148.58 127.93 C 148.47 127.13 147.72 126.57 146.92 126.68 L 145.88 126.83 C 145.08 126.95 144.52 127.70 144.64 128.50 C 144.75 129.31 145.50 129.86 146.30 129.75 Z M 147.33 129.59 L 148.33 129.45 C 149.13 129.34 149.69 128.60 149.58 127.80 C 149.47 126.99 148.72 126.44 147.92 126.55 L 146.92 126.69 C 146.12 126.80 145.56 127.54 145.67 128.35 C 145.79 129.15 146.53 129.71 147.33 129.59 Z M 148.32 129.45 L 149.30 129.32 C 150.10 129.21 150.66 128.48 150.56 127.68 C 150.45 126.88 149.71 126.32 148.91 126.42 L 147.93 126.55 C 147.13 126.66 146.57 127.39 146.68 128.19 C 146.78 128.99 147.52 129.56 148.32 129.45 Z M 149.28 129.31 L 150.39 129.18 C 151.18 129.09 151.75 128.36 151.66 127.57 C 151.56 126.77 150.84 126.20 150.04 126.30 L 148.94 126.43 C 148.14 126.52 147.57 127.24 147.66 128.04 C 147.76 128.84 148.48 129.41 149.28 129.31 Z M 150.36 129.18 L 151.33 129.08 C 152.12 129.00 152.70 128.30 152.63 127.50 C 152.55 126.71 151.84 126.13 151.05 126.21 L 150.08 126.30 C 149.28 126.38 148.70 127.09 148.78 127.88 C 148.86 128.67 149.56 129.25 150.36 129.18 Z M 151.30 129.07 L 152.21 129.01 C 153.00 128.94 153.59 128.25 153.53 127.46 C 153.47 126.67 152.78 126.08 151.99 126.14 L 151.08 126.21 C 150.29 126.27 149.70 126.96 149.76 127.75 C 149.82 128.54 150.51 129.14 151.30 129.07 Z M 152.18 129.00 L 153.11 128.95 C 153.90 128.90 154.50 128.22 154.45 127.43 C 154.41 126.65 153.73 126.05 152.94 126.09 L 152.01 126.15 C 151.22 126.19 150.62 126.87 150.67 127.66 C 150.72 128.45 151.39 129.05 152.18 129.00 Z M 153.09 128.94 L 154.07 128.90 C 154.86 128.86 155.47 128.19 155.43 127.40 C 155.39 126.62 154.73 126.01 153.94 126.05 L 152.96 126.09 C 152.17 126.13 151.56 126.80 151.60 127.59 C 151.64 128.37 152.31 128.98 153.09 128.94 Z M 154.06 128.90 L 155.07 128.86 C 155.86 128.82 156.47 128.16 156.44 127.37 C 156.41 126.59 155.75 125.98 154.96 126.01 L 153.95 126.05 C 153.16 126.08 152.55 126.74 152.58 127.53 C 152.61 128.32 153.28 128.93 154.06 128.90 Z M 155.07 128.86 L 156.10 128.82 C 156.88 128.79 157.50 128.13 157.47 127.34 C 157.44 126.56 156.78 125.94 155.99 125.97 L 154.97 126.01 C 154.18 126.04 153.56 126.70 153.59 127.48 C 153.62 128.27 154.28 128.88 155.07 128.86 Z M 156.09 128.82 L 156.20 128.82 C 156.98 128.79 157.60 128.13 157.57 127.34 C 157.54 126.55 156.88 125.94 156.10 125.97 L 155.99 125.97 C 155.21 126.00 154.59 126.66 154.62 127.45 C 154.65 128.23 155.31 128.85 156.09 128.82 Z"
      fill="black"
      fill-rule="nonzero" /><path d="M 131.27 146.31 L 130.37 146.32 C 129.50 146.32 128.79 147.03 128.79 147.90 C 128.79 148.78 129.50 149.48 130.38 149.48 L 131.28 149.48 C 132.15 149.48 132.86 148.77 132.86 147.89 C 132.86 147.02 132.15 146.31 131.27 146.31 Z M 130.35 146.32 L 129.40 146.33 C 128.53 146.34 127.83 147.06 127.85 147.94 C 127.86 148.81 128.58 149.51 129.45 149.50 L 130.40 149.48 C 131.27 149.47 131.97 148.75 131.96 147.87 C 131.94 147.00 131.22 146.30 130.35 146.32 Z M 129.37 146.33 L 128.33 146.37 C 127.45 146.41 126.77 147.14 126.81 148.02 C 126.84 148.89 127.58 149.57 128.45 149.53 L 129.49 149.49 C 130.36 149.46 131.04 148.72 131.01 147.85 C 130.97 146.98 130.24 146.30 129.37 146.33 Z M 128.28 146.38 L 127.10 146.46 C 126.22 146.51 125.56 147.27 125.62 148.14 C 125.68 149.01 126.44 149.67 127.31 149.61 L 128.50 149.53 C 129.37 149.47 130.03 148.72 129.97 147.85 C 129.91 146.98 129.15 146.32 128.28 146.38 Z M 127.05 146.45 L 125.77 146.57 C 124.90 146.66 124.26 147.43 124.34 148.30 C 124.42 149.18 125.20 149.82 126.07 149.74 L 127.35 149.62 C 128.22 149.53 128.87 148.76 128.78 147.89 C 128.70 147.01 127.93 146.37 127.05 146.45 Z M 125.73 146.57 L 124.60 146.70 C 123.72 146.81 123.10 147.60 123.20 148.48 C 123.31 149.36 124.10 149.98 124.98 149.88 L 126.11 149.74 C 126.99 149.64 127.61 148.84 127.51 147.97 C 127.40 147.09 126.61 146.46 125.73 146.57 Z M 124.52 146.70 L 123.80 146.83 C 122.92 146.97 122.33 147.80 122.48 148.68 C 122.63 149.55 123.46 150.14 124.33 150.00 L 125.06 149.87 C 125.93 149.73 126.52 148.90 126.37 148.02 C 126.23 147.15 125.40 146.56 124.52 146.70 Z M 122.52 147.95 L 122.49 148.04 C 122.24 148.90 122.72 149.80 123.58 150.05 C 124.43 150.31 125.33 149.82 125.58 148.97 L 125.61 148.87 C 125.87 148.02 125.38 147.12 124.53 146.87 C 123.67 146.61 122.77 147.10 122.52 147.95 Z M 123.99 150.12 L 124.84 150.15 C 125.73 150.18 126.48 149.48 126.51 148.58 C 126.54 147.69 125.84 146.95 124.95 146.92 L 124.09 146.89 C 123.20 146.86 122.45 147.56 122.42 148.45 C 122.39 149.34 123.09 150.09 123.99 150.12 Z M 124.94 150.15 L 126.30 150.11 C 127.19 150.08 127.90 149.33 127.87 148.44 C 127.84 147.55 127.09 146.84 126.20 146.87 L 124.84 146.92 C 123.95 146.94 123.25 147.69 123.28 148.58 C 123.30 149.48 124.05 150.18 124.94 150.15 Z M 126.36 150.10 L 127.47 150.03 C 128.36 149.97 129.03 149.19 128.97 148.30 C 128.91 147.41 128.14 146.74 127.24 146.80 L 126.14 146.88 C 125.25 146.94 124.58 147.71 124.64 148.60 C 124.70 149.49 125.47 150.16 126.36 150.10 Z M 127.52 150.02 L 128.50 149.92 C 129.39 149.83 130.04 149.04 129.95 148.15 C 129.86 147.26 129.06 146.62 128.18 146.71 L 127.19 146.81 C 126.30 146.90 125.66 147.69 125.75 148.58 C 125.84 149.46 126.63 150.11 127.52 150.02 Z M 128.56 149.91 L 129.54 149.78 C 130.42 149.66 131.04 148.85 130.92 147.96 C 130.80 147.08 129.99 146.46 129.11 146.58 L 128.12 146.71 C 127.24 146.83 126.62 147.65 126.74 148.53 C 126.86 149.41 127.67 150.03 128.56 149.91 Z M 129.59 149.77 L 130.59 149.60 C 131.46 149.45 132.05 148.62 131.91 147.75 C 131.76 146.87 130.93 146.28 130.05 146.42 L 129.06 146.59 C 128.18 146.74 127.59 147.57 127.74 148.45 C 127.89 149.32 128.72 149.91 129.59 149.77 Z M 130.63 149.59 L 131.56 149.41 C 132.43 149.23 132.99 148.39 132.82 147.52 C 132.65 146.64 131.80 146.08 130.93 146.25 L 130.01 146.44 C 129.14 146.61 128.57 147.46 128.74 148.33 C 128.92 149.20 129.76 149.76 130.63 149.59 Z M 131.60 149.39 L 132.46 149.20 C 133.32 149.00 133.87 148.14 133.67 147.28 C 133.47 146.41 132.61 145.87 131.75 146.07 L 130.89 146.26 C 130.02 146.46 129.48 147.32 129.68 148.18 C 129.87 149.05 130.73 149.59 131.60 149.39 Z M 132.50 149.18 L 133.41 148.95 C 134.26 148.74 134.78 147.87 134.57 147.01 C 134.35 146.15 133.48 145.63 132.62 145.85 L 131.71 146.08 C 130.86 146.30 130.34 147.17 130.55 148.03 C 130.77 148.88 131.64 149.40 132.50 149.18 Z M 133.44 148.94 L 134.42 148.67 C 135.27 148.44 135.77 147.56 135.53 146.71 C 135.30 145.86 134.42 145.36 133.57 145.59 L 132.59 145.86 C 131.74 146.10 131.24 146.98 131.48 147.83 C 131.71 148.68 132.59 149.18 133.44 148.94 Z M 134.44 148.66 L 135.51 148.35 C 136.35 148.10 136.83 147.21 136.58 146.36 C 136.33 145.52 135.44 145.04 134.60 145.29 L 133.54 145.61 C 132.69 145.86 132.21 146.74 132.46 147.59 C 132.71 148.43 133.60 148.91 134.44 148.66 Z M 135.53 148.34 L 136.58 148.01 C 137.41 147.75 137.88 146.85 137.62 146.02 C 137.36 145.18 136.46 144.71 135.63 144.97 L 134.58 145.30 C 133.74 145.56 133.27 146.45 133.54 147.29 C 133.80 148.13 134.69 148.60 135.53 148.34 Z M 136.59 148.00 L 137.50 147.70 C 138.34 147.43 138.79 146.54 138.52 145.71 C 138.25 144.87 137.36 144.42 136.53 144.69 L 135.61 144.98 C 134.78 145.25 134.32 146.15 134.59 146.98 C 134.86 147.81 135.76 148.27 136.59 148.00 Z M 137.51 147.69 L 138.47 147.38 C 139.30 147.10 139.74 146.20 139.47 145.38 C 139.19 144.55 138.29 144.10 137.47 144.38 L 136.51 144.70 C 135.69 144.97 135.24 145.87 135.51 146.70 C 135.79 147.52 136.69 147.97 137.51 147.69 Z M 138.48 147.37 L 139.45 147.03 C 140.28 146.75 140.71 145.85 140.43 145.03 C 140.15 144.21 139.25 143.77 138.43 144.05 L 137.45 144.39 C 136.63 144.67 136.19 145.57 136.48 146.39 C 136.76 147.21 137.66 147.65 138.48 147.37 Z M 139.47 147.02 L 140.44 146.68 C 141.26 146.39 141.69 145.49 141.40 144.67 C 141.11 143.85 140.21 143.42 139.40 143.71 L 138.42 144.06 C 137.60 144.35 137.17 145.25 137.46 146.07 C 137.75 146.88 138.65 147.31 139.47 147.02 Z M 140.46 146.67 L 141.42 146.31 C 142.23 146.02 142.65 145.12 142.36 144.31 C 142.06 143.49 141.16 143.07 140.35 143.37 L 139.38 143.72 C 138.57 144.02 138.15 144.92 138.45 145.73 C 138.75 146.55 139.64 146.96 140.46 146.67 Z M 141.44 146.30 L 142.37 145.95 C 143.18 145.65 143.58 144.74 143.28 143.94 C 142.97 143.13 142.07 142.72 141.26 143.03 L 140.33 143.38 C 139.52 143.69 139.12 144.59 139.42 145.40 C 139.73 146.20 140.63 146.61 141.44 146.30 Z M 142.39 145.94 L 143.34 145.56 C 144.14 145.24 144.54 144.34 144.22 143.54 C 143.90 142.74 143.00 142.35 142.20 142.66 L 141.24 143.04 C 140.45 143.36 140.05 144.26 140.37 145.06 C 140.69 145.86 141.59 146.25 142.39 145.94 Z M 143.37 145.54 L 144.39 145.11 C 145.18 144.78 145.55 143.88 145.22 143.09 C 144.89 142.30 143.98 141.93 143.20 142.26 L 142.18 142.68 C 141.39 143.01 141.02 143.92 141.35 144.71 C 141.67 145.50 142.58 145.87 143.37 145.54 Z M 144.41 145.09 L 145.36 144.67 C 146.13 144.33 146.48 143.43 146.14 142.65 C 145.80 141.87 144.89 141.52 144.12 141.87 L 143.17 142.28 C 142.40 142.62 142.05 143.53 142.39 144.31 C 142.73 145.08 143.64 145.43 144.41 145.09 Z M 145.38 144.65 L 146.26 144.24 C 147.03 143.88 147.36 142.98 147.00 142.22 C 146.65 141.45 145.75 141.12 144.98 141.48 L 144.10 141.89 C 143.33 142.24 143.00 143.15 143.36 143.91 C 143.71 144.67 144.61 145.00 145.38 144.65 Z M 146.28 144.22 L 147.13 143.81 C 147.88 143.45 148.19 142.54 147.83 141.79 C 147.47 141.04 146.56 140.73 145.81 141.09 L 144.97 141.50 C 144.22 141.86 143.90 142.76 144.26 143.52 C 144.63 144.27 145.53 144.58 146.28 144.22 Z M 147.14 143.79 L 147.96 143.38 C 148.70 143.01 149.00 142.11 148.63 141.37 C 148.26 140.63 147.36 140.33 146.62 140.70 L 145.80 141.11 C 145.06 141.48 144.76 142.38 145.13 143.12 C 145.50 143.86 146.40 144.16 147.14 143.79 Z M 147.96 143.36 L 148.83 142.93 C 149.56 142.55 149.85 141.66 149.48 140.93 C 149.10 140.19 148.21 139.90 147.48 140.28 L 146.62 140.72 C 145.88 141.09 145.59 141.98 145.96 142.71 C 146.34 143.45 147.23 143.74 147.96 143.36 Z M 148.83 142.91 L 149.71 142.45 C 150.44 142.08 150.72 141.19 150.34 140.46 C 149.97 139.74 149.08 139.46 148.35 139.83 L 147.47 140.29 C 146.75 140.67 146.47 141.56 146.84 142.28 C 147.22 143.01 148.11 143.29 148.83 142.91 Z M 149.72 142.44 L 150.60 141.97 C 151.32 141.59 151.59 140.70 151.21 139.99 C 150.83 139.27 149.94 139.00 149.22 139.38 L 148.34 139.85 C 147.63 140.23 147.35 141.12 147.74 141.83 C 148.12 142.55 149.00 142.82 149.72 142.44 Z M 150.61 141.96 L 151.49 141.48 C 152.20 141.09 152.46 140.21 152.07 139.50 C 151.68 138.79 150.80 138.53 150.09 138.92 L 149.21 139.40 C 148.50 139.78 148.24 140.67 148.63 141.38 C 149.02 142.08 149.90 142.34 150.61 141.96 Z M 151.50 141.46 L 152.38 140.97 C 153.08 140.57 153.33 139.69 152.93 138.99 C 152.54 138.29 151.66 138.04 150.96 138.44 L 150.08 138.93 C 149.38 139.33 149.13 140.21 149.52 140.91 C 149.92 141.61 150.80 141.85 151.50 141.46 Z M 152.39 140.95 L 153.26 140.45 C 153.95 140.05 154.18 139.17 153.78 138.48 C 153.38 137.79 152.50 137.55 151.81 137.95 L 150.94 138.45 C 150.26 138.85 150.02 139.74 150.42 140.43 C 150.82 141.12 151.70 141.35 152.39 140.95 Z M 153.27 140.44 L 154.12 139.93 C 154.80 139.52 155.02 138.64 154.62 137.96 C 154.21 137.27 153.33 137.05 152.64 137.46 L 151.79 137.97 C 151.11 138.37 150.89 139.26 151.30 139.94 C 151.70 140.62 152.59 140.84 153.27 140.44 Z M 154.13 139.92 L 154.98 139.40 C 155.66 138.99 155.87 138.10 155.46 137.43 C 155.05 136.75 154.16 136.54 153.49 136.95 L 152.63 137.47 C 151.96 137.88 151.74 138.77 152.15 139.44 C 152.57 140.12 153.45 140.33 154.13 139.92 Z M 154.99 139.39 L 155.84 138.86 C 156.52 138.45 156.72 137.56 156.31 136.89 C 155.89 136.22 155.01 136.01 154.33 136.43 L 153.48 136.96 C 152.81 137.37 152.60 138.26 153.01 138.93 C 153.43 139.60 154.31 139.81 154.99 139.39 Z M 155.85 138.86 L 156.70 138.32 C 157.37 137.90 157.57 137.02 157.16 136.35 C 156.74 135.68 155.85 135.48 155.19 135.90 L 154.33 136.43 C 153.66 136.85 153.46 137.73 153.87 138.40 C 154.29 139.07 155.18 139.28 155.85 138.86 Z M 156.70 138.32 L 157.43 137.86 C 158.10 137.44 158.30 136.56 157.88 135.89 C 157.46 135.22 156.58 135.02 155.92 135.44 L 155.18 135.90 C 154.52 136.32 154.32 137.20 154.73 137.87 C 155.15 138.54 156.04 138.74 156.70 138.32 Z"
      fill="black"
      fill-rule="nonzero" /><path d="M 145.74 113.78 L 144.89 114.26 C 144.17 114.68 143.92 115.60 144.33 116.32 C 144.74 117.04 145.66 117.29 146.39 116.88 L 147.24 116.40 C 147.96 115.98 148.21 115.06 147.80 114.34 C 147.38 113.62 146.46 113.37 145.74 113.78 Z M 144.82 114.30 L 144.00 114.83 C 143.30 115.28 143.09 116.22 143.54 116.92 C 143.99 117.62 144.93 117.82 145.63 117.37 L 146.45 116.84 C 147.16 116.39 147.36 115.46 146.91 114.76 C 146.46 114.06 145.52 113.85 144.82 114.30 Z M 143.87 114.92 L 143.09 115.54 C 142.44 116.06 142.33 117.01 142.85 117.67 C 143.37 118.32 144.32 118.43 144.97 117.91 L 145.75 117.29 C 146.41 116.77 146.51 115.82 145.99 115.16 C 145.47 114.51 144.52 114.40 143.87 114.92 Z M 142.93 115.69 L 142.23 116.43 C 141.66 117.03 141.68 117.99 142.29 118.57 C 142.90 119.14 143.86 119.11 144.43 118.51 L 145.13 117.77 C 145.71 117.16 145.68 116.20 145.07 115.62 C 144.46 115.05 143.50 115.08 142.93 115.69 Z M 142.09 116.59 L 141.57 117.33 C 141.08 118.02 141.25 118.97 141.93 119.45 C 142.62 119.93 143.57 119.77 144.05 119.08 L 144.57 118.34 C 145.06 117.66 144.89 116.71 144.21 116.22 C 143.52 115.74 142.57 115.90 142.09 116.59 Z M 141.47 117.47 L 141.00 118.31 C 140.59 119.05 140.86 119.98 141.60 120.39 C 142.34 120.80 143.27 120.53 143.68 119.79 L 144.15 118.95 C 144.56 118.21 144.29 117.28 143.55 116.87 C 142.81 116.46 141.88 116.73 141.47 117.47 Z M 140.94 118.43 L 140.52 119.36 C 140.18 120.13 140.53 121.04 141.30 121.39 C 142.08 121.73 142.99 121.38 143.34 120.61 L 143.75 119.68 C 144.09 118.90 143.74 117.99 142.97 117.64 C 142.19 117.30 141.28 117.65 140.94 118.43 Z M 140.47 119.46 L 140.11 120.46 C 139.82 121.26 140.24 122.15 141.04 122.44 C 141.85 122.73 142.73 122.31 143.02 121.51 L 143.38 120.51 C 143.68 119.70 143.26 118.82 142.45 118.53 C 141.65 118.23 140.76 118.65 140.47 119.46 Z M 140.08 120.54 L 139.77 121.57 C 139.53 122.39 140.00 123.26 140.82 123.50 C 141.64 123.74 142.51 123.27 142.75 122.45 L 143.06 121.42 C 143.30 120.60 142.83 119.73 142.01 119.49 C 141.19 119.25 140.32 119.72 140.08 120.54 Z M 139.75 121.63 L 139.50 122.64 C 139.29 123.48 139.80 124.33 140.64 124.53 C 141.48 124.74 142.32 124.23 142.53 123.39 L 142.78 122.38 C 142.99 121.55 142.48 120.70 141.64 120.49 C 140.80 120.28 139.95 120.80 139.75 121.63 Z M 139.48 122.70 L 139.27 123.71 C 139.09 124.56 139.63 125.39 140.48 125.57 C 141.32 125.74 142.16 125.20 142.33 124.36 L 142.55 123.34 C 142.72 122.49 142.18 121.66 141.34 121.48 C 140.49 121.31 139.66 121.85 139.48 122.70 Z M 139.25 123.75 L 139.07 124.75 C 138.92 125.60 139.49 126.42 140.34 126.58 C 141.19 126.73 142.01 126.16 142.17 125.31 L 142.35 124.31 C 142.50 123.46 141.93 122.64 141.08 122.49 C 140.22 122.33 139.41 122.90 139.25 123.75 Z M 139.06 124.79 L 138.91 125.74 C 138.78 126.60 139.37 127.41 140.23 127.54 C 141.09 127.68 141.89 127.09 142.03 126.23 L 142.18 125.27 C 142.31 124.41 141.72 123.61 140.86 123.47 C 140.00 123.34 139.20 123.92 139.06 124.79 Z M 138.90 125.77 L 138.77 126.74 C 138.65 127.60 139.26 128.40 140.12 128.52 C 140.99 128.64 141.79 128.03 141.90 127.17 L 142.04 126.20 C 142.16 125.33 141.55 124.53 140.69 124.42 C 139.82 124.30 139.02 124.90 138.90 125.77 Z M 138.76 126.77 L 138.64 127.84 C 138.54 128.71 139.16 129.49 140.03 129.60 C 140.90 129.70 141.68 129.08 141.79 128.21 L 141.91 127.14 C 142.01 126.27 141.39 125.48 140.52 125.38 C 139.65 125.28 138.87 125.90 138.76 126.77 Z M 138.63 127.87 L 138.54 128.84 C 138.45 129.71 139.09 130.49 139.96 130.58 C 140.84 130.66 141.61 130.02 141.70 129.15 L 141.79 128.18 C 141.88 127.30 141.24 126.53 140.37 126.44 C 139.49 126.36 138.72 127.00 138.63 127.87 Z M 138.53 128.87 L 138.46 129.79 C 138.38 130.67 139.03 131.44 139.91 131.51 C 140.78 131.58 141.55 130.93 141.62 130.06 L 141.70 129.13 C 141.77 128.25 141.12 127.48 140.25 127.41 C 139.37 127.34 138.60 127.99 138.53 128.87 Z M 138.45 129.81 L 138.38 130.75 C 138.32 131.62 138.97 132.39 139.85 132.45 C 140.73 132.52 141.49 131.86 141.56 130.99 L 141.63 130.04 C 141.69 129.17 141.04 128.40 140.16 128.34 C 139.28 128.27 138.52 128.93 138.45 129.81 Z M 138.38 130.75 L 138.31 131.73 C 138.25 132.61 138.91 133.37 139.78 133.44 C 140.66 133.50 141.43 132.84 141.49 131.96 L 141.56 130.98 C 141.62 130.10 140.96 129.34 140.08 129.28 C 139.20 129.21 138.44 129.87 138.38 130.75 Z M 138.31 131.74 L 138.24 132.74 C 138.18 133.62 138.85 134.38 139.73 134.44 C 140.61 134.50 141.37 133.83 141.43 132.95 L 141.49 131.95 C 141.55 131.07 140.88 130.31 140.00 130.25 C 139.12 130.19 138.36 130.86 138.31 131.74 Z M 138.24 132.76 L 138.18 133.78 C 138.13 134.66 138.80 135.42 139.68 135.47 C 140.56 135.52 141.32 134.85 141.37 133.97 L 141.43 132.94 C 141.48 132.06 140.81 131.30 139.93 131.25 C 139.04 131.20 138.29 131.87 138.24 132.76 Z M 138.17 133.80 L 138.13 134.78 C 138.08 135.66 138.76 136.41 139.65 136.45 C 140.53 136.50 141.28 135.82 141.32 134.93 L 141.37 133.95 C 141.41 133.07 140.73 132.32 139.85 132.28 C 138.97 132.23 138.22 132.91 138.17 133.80 Z M 138.12 134.79 L 138.08 135.77 C 138.05 136.66 138.73 137.40 139.62 137.44 C 140.50 137.48 141.25 136.79 141.29 135.91 L 141.33 134.92 C 141.36 134.04 140.68 133.29 139.79 133.25 C 138.91 133.22 138.16 133.90 138.12 134.79 Z M 138.08 135.78 L 138.05 136.79 C 138.01 137.67 138.71 138.42 139.59 138.45 C 140.48 138.48 141.22 137.79 141.25 136.90 L 141.29 135.90 C 141.32 135.01 140.63 134.27 139.74 134.24 C 138.86 134.20 138.11 134.90 138.08 135.78 Z M 138.04 136.79 L 138.01 137.82 C 137.98 138.71 138.68 139.45 139.56 139.48 C 140.45 139.51 141.19 138.81 141.22 137.92 L 141.25 136.90 C 141.28 136.01 140.59 135.27 139.70 135.24 C 138.81 135.21 138.07 135.91 138.04 136.79 Z M 138.01 137.82 L 137.98 138.80 C 137.95 139.69 138.65 140.43 139.53 140.46 C 140.42 140.49 141.16 139.79 141.19 138.90 L 141.22 137.92 C 141.25 137.03 140.55 136.29 139.67 136.27 C 138.78 136.24 138.04 136.93 138.01 137.82 Z M 137.98 138.80 L 137.95 139.79 C 137.92 140.67 138.62 141.42 139.50 141.44 C 140.39 141.47 141.13 140.77 141.16 139.89 L 141.19 138.90 C 141.22 138.01 140.52 137.27 139.63 137.24 C 138.75 137.22 138.00 137.91 137.98 138.80 Z M 137.94 139.79 L 137.91 140.79 C 137.89 141.68 138.59 142.42 139.47 142.45 C 140.36 142.48 141.10 141.78 141.13 140.89 L 141.16 139.89 C 141.19 139.00 140.49 138.25 139.60 138.23 C 138.71 138.20 137.97 138.90 137.94 139.79 Z M 137.91 140.79 L 137.88 141.81 C 137.86 142.70 138.56 143.44 139.44 143.47 C 140.33 143.50 141.08 142.80 141.10 141.91 L 141.13 140.89 C 141.16 140.00 140.46 139.26 139.57 139.23 C 138.68 139.20 137.94 139.90 137.91 140.79 Z M 137.88 141.81 L 137.85 142.81 C 137.83 143.70 138.53 144.44 139.42 144.47 C 140.31 144.49 141.05 143.79 141.07 142.90 L 141.10 141.91 C 141.13 141.02 140.43 140.28 139.54 140.25 C 138.65 140.22 137.91 140.92 137.88 141.81 Z M 137.85 142.81 L 137.82 143.78 C 137.80 144.67 138.50 145.41 139.39 145.44 C 140.28 145.46 141.02 144.77 141.05 143.88 L 141.07 142.90 C 141.10 142.02 140.40 141.27 139.51 141.25 C 138.62 141.22 137.88 141.92 137.85 142.81 Z M 137.82 143.78 L 137.79 144.77 C 137.77 145.66 138.46 146.40 139.35 146.43 C 140.24 146.45 140.99 145.76 141.01 144.87 L 141.04 143.88 C 141.07 142.99 140.37 142.24 139.48 142.22 C 138.59 142.19 137.85 142.89 137.82 143.78 Z M 137.79 144.76 L 137.76 145.77 C 137.73 146.66 138.43 147.41 139.32 147.44 C 140.21 147.47 140.95 146.77 140.98 145.88 L 141.01 144.87 C 141.04 143.98 140.35 143.24 139.46 143.21 C 138.57 143.18 137.82 143.87 137.79 144.76 Z M 137.76 145.77 L 137.72 146.80 C 137.69 147.69 138.38 148.44 139.27 148.47 C 140.16 148.51 140.91 147.81 140.94 146.92 L 140.98 145.89 C 141.01 145.00 140.32 144.25 139.43 144.22 C 138.54 144.18 137.79 144.88 137.76 145.77 Z M 137.72 146.80 L 137.68 147.80 C 137.64 148.69 138.33 149.44 139.22 149.48 C 140.11 149.51 140.86 148.82 140.90 147.93 L 140.94 146.93 C 140.98 146.04 140.29 145.29 139.40 145.25 C 138.51 145.22 137.76 145.91 137.72 146.80 Z M 137.68 147.79 L 137.64 148.80 C 137.60 149.69 138.28 150.44 139.17 150.48 C 140.06 150.52 140.81 149.83 140.85 148.94 L 140.90 147.94 C 140.94 147.05 140.25 146.30 139.36 146.26 C 138.47 146.22 137.72 146.91 137.68 147.79 Z M 137.64 148.79 L 137.59 149.80 C 137.55 150.69 138.23 151.45 139.12 151.49 C 140.01 151.53 140.76 150.85 140.81 149.96 L 140.85 148.95 C 140.90 148.06 140.21 147.30 139.32 147.26 C 138.43 147.22 137.68 147.91 137.64 148.79 Z M 137.59 149.80 L 137.54 150.81 C 137.49 151.69 138.18 152.45 139.06 152.50 C 139.95 152.54 140.71 151.86 140.75 150.97 L 140.80 149.96 C 140.85 149.07 140.17 148.32 139.28 148.27 C 138.39 148.23 137.63 148.91 137.59 149.80 Z M 137.54 150.80 L 137.49 151.79 C 137.44 152.68 138.12 153.44 139.01 153.48 C 139.90 153.53 140.66 152.85 140.70 151.96 L 140.75 150.97 C 140.80 150.08 140.12 149.33 139.23 149.28 C 138.34 149.23 137.58 149.91 137.54 150.80 Z M 137.49 151.79 L 137.43 152.80 C 137.38 153.69 138.06 154.45 138.95 154.50 C 139.84 154.55 140.60 153.87 140.65 152.98 L 140.70 151.96 C 140.75 151.07 140.07 150.32 139.18 150.27 C 138.29 150.22 137.53 150.90 137.49 151.79 Z M 137.43 152.80 L 137.38 153.81 C 137.33 154.70 138.00 155.46 138.89 155.51 C 139.78 155.56 140.54 154.88 140.59 153.99 L 140.64 152.98 C 140.69 152.09 140.02 151.34 139.13 151.29 C 138.24 151.24 137.48 151.92 137.43 152.80 Z M 137.38 153.81 L 137.32 154.80 C 137.27 155.69 137.95 156.45 138.83 156.50 C 139.72 156.55 140.48 155.87 140.53 154.98 L 140.59 153.99 C 140.64 153.11 139.96 152.35 139.07 152.30 C 138.19 152.24 137.43 152.92 137.38 153.81 Z M 137.32 154.80 L 137.26 155.78 C 137.21 156.67 137.89 157.43 138.78 157.48 C 139.66 157.53 140.42 156.85 140.47 155.97 L 140.53 154.98 C 140.58 154.10 139.90 153.34 139.02 153.29 C 138.13 153.24 137.37 153.91 137.32 154.80 Z M 137.26 155.78 L 137.21 156.77 C 137.16 157.65 137.83 158.41 138.72 158.46 C 139.61 158.51 140.37 157.84 140.42 156.95 L 140.47 155.97 C 140.52 155.08 139.85 154.32 138.96 154.27 C 138.08 154.22 137.32 154.90 137.26 155.78 Z M 137.21 156.77 L 137.15 157.75 C 137.10 158.64 137.78 159.40 138.67 159.45 C 139.55 159.50 140.31 158.82 140.36 157.94 L 140.42 156.95 C 140.47 156.06 139.79 155.31 138.90 155.26 C 138.02 155.21 137.26 155.88 137.21 156.77 Z M 137.15 157.75 L 137.10 158.75 C 137.05 159.63 137.73 160.39 138.61 160.44 C 139.49 160.49 140.25 159.81 140.30 158.93 L 140.36 157.94 C 140.41 157.05 139.73 156.29 138.85 156.24 C 137.96 156.19 137.20 156.87 137.15 157.75 Z M 137.10 158.75 L 137.04 159.75 C 136.99 160.64 137.67 161.39 138.56 161.44 C 139.44 161.49 140.20 160.82 140.24 159.93 L 140.30 158.93 C 140.35 158.05 139.67 157.29 138.79 157.24 C 137.91 157.19 137.15 157.87 137.10 158.75 Z M 137.05 159.75 L 136.99 160.76 C 136.94 161.64 137.62 162.40 138.50 162.45 C 139.38 162.50 140.14 161.82 140.19 160.94 L 140.24 159.93 C 140.29 159.05 139.62 158.29 138.73 158.24 C 137.85 158.19 137.09 158.87 137.05 159.75 Z M 136.99 160.76 L 136.94 161.76 C 136.89 162.65 137.56 163.40 138.44 163.45 C 139.33 163.50 140.08 162.82 140.13 161.94 L 140.19 160.94 C 140.23 160.05 139.56 159.30 138.68 159.25 C 137.80 159.20 137.04 159.88 136.99 160.76 Z M 136.94 161.76 L 136.88 162.76 C 136.83 163.64 137.51 164.40 138.39 164.45 C 139.27 164.49 140.02 163.82 140.07 162.94 L 140.13 161.94 C 140.18 161.06 139.50 160.31 138.62 160.26 C 137.74 160.21 136.99 160.88 136.94 161.76 Z M 136.88 162.76 L 136.83 163.76 C 136.78 164.64 137.45 165.39 138.33 165.44 C 139.21 165.49 139.96 164.82 140.01 163.94 L 140.07 162.94 C 140.12 162.06 139.45 161.31 138.57 161.26 C 137.69 161.21 136.94 161.88 136.88 162.76 Z M 136.83 163.75 L 136.77 164.75 C 136.72 165.63 137.39 166.38 138.26 166.44 C 139.14 166.49 139.89 165.82 139.95 164.94 L 140.01 163.94 C 140.06 163.07 139.39 162.31 138.52 162.26 C 137.64 162.21 136.88 162.87 136.83 163.75 Z M 136.77 164.74 L 136.71 165.74 C 136.65 166.62 137.32 167.37 138.19 167.43 C 139.07 167.49 139.82 166.82 139.88 165.95 L 139.94 164.95 C 140.00 164.07 139.34 163.32 138.46 163.26 C 137.59 163.20 136.83 163.87 136.77 164.74 Z M 136.71 165.73 L 136.64 166.74 C 136.58 167.61 137.24 168.37 138.11 168.43 C 138.99 168.49 139.75 167.83 139.81 166.96 L 139.88 165.96 C 139.94 165.08 139.28 164.32 138.40 164.26 C 137.53 164.20 136.77 164.86 136.71 165.73 Z M 136.64 166.73 L 136.57 167.74 C 136.51 168.61 137.16 169.37 138.03 169.43 C 138.90 169.50 139.66 168.84 139.73 167.97 L 139.80 166.97 C 139.87 166.09 139.21 165.33 138.34 165.27 C 137.47 165.20 136.71 165.86 136.64 166.73 Z M 136.57 167.73 L 136.50 168.73 C 136.43 169.60 137.08 170.36 137.95 170.43 C 138.82 170.50 139.58 169.85 139.65 168.97 L 139.73 167.97 C 139.79 167.10 139.14 166.34 138.27 166.28 C 137.40 166.21 136.64 166.86 136.57 167.73 Z M 136.50 168.73 L 136.42 169.73 C 136.36 170.60 137.01 171.36 137.88 171.42 C 138.75 171.49 139.50 170.84 139.57 169.97 L 139.65 168.97 C 139.71 168.11 139.06 167.35 138.19 167.28 C 137.32 167.21 136.57 167.86 136.50 168.73 Z M 136.43 169.73 L 136.35 170.72 C 136.29 171.59 136.94 172.34 137.81 172.41 C 138.68 172.47 139.43 171.82 139.50 170.95 L 139.57 169.97 C 139.63 169.10 138.98 168.34 138.11 168.28 C 137.25 168.21 136.49 168.86 136.43 169.73 Z M 136.35 170.72 L 136.28 171.72 C 136.22 172.59 136.88 173.34 137.74 173.40 C 138.61 173.46 139.36 172.81 139.42 171.94 L 139.49 170.94 C 139.55 170.08 138.90 169.33 138.03 169.26 C 137.17 169.20 136.41 169.86 136.35 170.72 Z M 136.29 171.73 L 136.22 172.72 C 136.16 173.58 136.82 174.33 137.68 174.39 C 138.55 174.45 139.30 173.79 139.36 172.93 L 139.42 171.93 C 139.48 171.07 138.82 170.32 137.96 170.26 C 137.09 170.20 136.34 170.86 136.29 171.73 Z M 136.22 172.72 L 136.16 173.71 C 136.10 174.58 136.76 175.32 137.62 175.38 C 138.49 175.44 139.23 174.78 139.29 173.92 L 139.35 172.92 C 139.41 172.06 138.75 171.31 137.89 171.26 C 137.03 171.20 136.28 171.86 136.22 172.72 Z M 136.16 173.71 L 136.10 174.71 C 136.04 175.57 136.69 176.32 137.55 176.38 C 138.42 176.43 139.16 175.78 139.22 174.92 L 139.29 173.92 C 139.34 173.05 138.69 172.31 137.83 172.25 C 136.96 172.19 136.22 172.85 136.16 173.71 Z M 136.10 174.70 L 136.03 175.72 C 135.97 176.58 136.62 177.33 137.48 177.39 C 138.34 177.45 139.09 176.80 139.15 175.93 L 139.22 174.92 C 139.28 174.06 138.63 173.31 137.77 173.25 C 136.90 173.19 136.16 173.84 136.10 174.70 Z M 136.03 175.71 L 135.96 176.75 C 135.89 177.60 136.54 178.35 137.40 178.42 C 138.26 178.48 139.00 177.83 139.07 176.97 L 139.14 175.94 C 139.21 175.08 138.56 174.33 137.70 174.27 C 136.84 174.21 136.09 174.85 136.03 175.71 Z M 135.96 176.74 L 135.88 177.77 C 135.81 178.63 136.46 179.37 137.31 179.44 C 138.17 179.51 138.92 178.86 138.99 178.01 L 139.06 176.98 C 139.13 176.12 138.49 175.37 137.63 175.31 C 136.77 175.24 136.03 175.88 135.96 176.74 Z M 135.88 177.76 L 135.80 178.76 C 135.74 179.62 136.38 180.37 137.23 180.44 C 138.09 180.50 138.83 179.87 138.90 179.01 L 138.98 178.01 C 139.05 177.15 138.41 176.41 137.56 176.34 C 136.70 176.27 135.95 176.91 135.88 177.76 Z M 135.81 178.76 L 135.73 179.72 C 135.66 180.57 136.30 181.32 137.15 181.39 C 138.01 181.45 138.75 180.82 138.82 179.96 L 138.90 179.01 C 138.97 178.16 138.33 177.41 137.48 177.34 C 136.62 177.27 135.88 177.91 135.81 178.76 Z M 135.74 179.72 L 135.66 180.69 C 135.59 181.54 136.22 182.28 137.07 182.35 C 137.93 182.42 138.67 181.79 138.74 180.94 L 138.82 179.96 C 138.89 179.11 138.25 178.37 137.40 178.30 C 136.55 178.23 135.80 178.86 135.74 179.72 Z M 135.66 180.69 L 135.58 181.65 C 135.51 182.50 136.15 183.24 137.00 183.31 C 137.84 183.38 138.59 182.75 138.66 181.90 L 138.74 180.94 C 138.81 180.09 138.17 179.34 137.32 179.27 C 136.47 179.21 135.73 179.84 135.66 180.69 Z M 135.59 181.65 L 135.51 182.61 C 135.44 183.46 136.07 184.20 136.91 184.27 C 137.76 184.34 138.50 183.71 138.57 182.87 L 138.65 181.90 C 138.72 181.06 138.09 180.31 137.25 180.24 C 136.40 180.17 135.66 180.80 135.59 181.65 Z M 135.51 182.61 L 135.42 183.63 C 135.35 184.47 135.98 185.22 136.82 185.29 C 137.66 185.36 138.41 184.74 138.48 183.89 L 138.57 182.87 C 138.64 182.03 138.02 181.28 137.17 181.21 C 136.33 181.14 135.59 181.76 135.51 182.61 Z M 135.43 183.62 L 135.34 184.60 C 135.26 185.44 135.89 186.19 136.73 186.26 C 137.57 186.34 138.31 185.72 138.39 184.88 L 138.47 183.90 C 138.55 183.06 137.93 182.31 137.09 182.24 C 136.25 182.16 135.50 182.78 135.43 183.62 Z M 135.34 184.60 L 135.25 185.57 C 135.17 186.41 135.79 187.16 136.63 187.24 C 137.47 187.31 138.21 186.70 138.29 185.86 L 138.38 184.88 C 138.46 184.04 137.85 183.30 137.01 183.22 C 136.17 183.14 135.42 183.76 135.34 184.60 Z M 135.26 185.56 L 135.15 186.58 C 135.07 187.42 135.68 188.16 136.51 188.25 C 137.35 188.33 138.10 187.72 138.18 186.89 L 138.29 185.87 C 138.37 185.03 137.76 184.29 136.92 184.20 C 136.09 184.12 135.34 184.73 135.26 185.56 Z M 135.16 186.57 L 135.04 187.59 C 134.95 188.43 135.55 189.18 136.39 189.27 C 137.22 189.36 137.97 188.76 138.06 187.93 L 138.18 186.90 C 138.27 186.07 137.67 185.32 136.83 185.23 C 136.00 185.13 135.25 185.73 135.16 186.57 Z M 135.05 187.58 L 134.93 188.58 C 134.82 189.41 135.41 190.17 136.24 190.27 C 137.07 190.38 137.83 189.79 137.93 188.96 L 138.06 187.95 C 138.16 187.12 137.57 186.36 136.74 186.26 C 135.91 186.16 135.15 186.75 135.05 187.58 Z M 134.93 188.56 L 134.78 189.63 C 134.67 190.45 135.24 191.22 136.07 191.33 C 136.89 191.45 137.66 190.88 137.77 190.05 L 137.92 188.98 C 138.04 188.16 137.47 187.39 136.64 187.28 C 135.82 187.16 135.05 187.73 134.93 188.56 Z M 134.79 189.59 L 134.62 190.63 C 134.49 191.45 135.04 192.23 135.86 192.36 C 136.68 192.50 137.45 191.94 137.59 191.12 L 137.76 190.08 C 137.90 189.26 137.34 188.49 136.52 188.35 C 135.70 188.22 134.93 188.77 134.79 189.59 Z M 134.64 190.60 L 134.45 191.57 C 134.29 192.38 134.82 193.16 135.64 193.32 C 136.45 193.48 137.23 192.95 137.39 192.13 L 137.57 191.16 C 137.73 190.35 137.20 189.56 136.39 189.41 C 135.58 189.25 134.79 189.78 134.64 190.60 Z M 134.46 191.53 L 134.26 192.44 C 134.08 193.24 134.59 194.04 135.39 194.22 C 136.20 194.39 136.99 193.89 137.17 193.08 L 137.37 192.17 C 137.55 191.37 137.04 190.57 136.24 190.40 C 135.44 190.22 134.64 190.73 134.46 191.53 Z M 134.28 192.40 L 134.04 193.33 C 133.84 194.13 134.32 194.93 135.11 195.14 C 135.91 195.34 136.71 194.86 136.92 194.06 L 137.15 193.13 C 137.36 192.33 136.88 191.53 136.08 191.32 C 135.29 191.12 134.48 191.60 134.28 192.40 Z M 134.07 193.26 L 133.76 194.23 C 133.52 195.01 133.96 195.84 134.74 196.08 C 135.52 196.33 136.35 195.89 136.59 195.11 L 136.89 194.14 C 137.13 193.36 136.70 192.53 135.92 192.29 C 135.14 192.05 134.31 192.48 134.07 193.26 Z M 133.81 194.11 L 133.44 195.02 C 133.13 195.77 133.49 196.63 134.24 196.94 C 134.99 197.25 135.86 196.89 136.16 196.14 L 136.54 195.23 C 136.85 194.48 136.49 193.62 135.74 193.31 C 134.98 193.00 134.12 193.36 133.81 194.11 Z M 133.53 194.86 L 133.05 195.70 C 132.65 196.41 132.90 197.30 133.60 197.70 C 134.31 198.10 135.20 197.85 135.60 197.15 L 136.08 196.30 C 136.48 195.60 136.23 194.70 135.52 194.30 C 134.82 193.90 133.92 194.15 133.53 194.86 Z M 133.17 195.53 L 132.56 196.32 C 132.07 196.96 132.19 197.87 132.83 198.37 C 133.47 198.86 134.39 198.74 134.88 198.10 L 135.48 197.32 C 135.98 196.68 135.86 195.76 135.22 195.27 C 134.58 194.77 133.66 194.89 133.17 195.53 Z M 132.69 196.18 L 131.98 196.89 C 131.41 197.47 131.41 198.39 131.98 198.96 C 132.55 199.53 133.48 199.52 134.05 198.95 L 134.76 198.24 C 135.33 197.67 135.32 196.74 134.75 196.17 C 134.18 195.60 133.25 195.61 132.69 196.18 Z M 132.10 196.79 L 131.31 197.42 C 130.69 197.92 130.59 198.84 131.09 199.47 C 131.60 200.10 132.52 200.20 133.14 199.69 L 133.93 199.06 C 134.55 198.55 134.65 197.63 134.15 197.01 C 133.64 196.38 132.72 196.28 132.10 196.79 Z M 131.44 197.33 L 130.59 197.88 C 129.92 198.31 129.72 199.21 130.16 199.89 C 130.60 200.57 131.50 200.76 132.17 200.32 L 133.02 199.78 C 133.69 199.34 133.89 198.44 133.45 197.76 C 133.02 197.09 132.11 196.90 131.44 197.33 Z M 130.73 197.80 L 129.83 198.26 C 129.11 198.62 128.82 199.50 129.19 200.21 C 129.55 200.93 130.42 201.22 131.14 200.85 L 132.04 200.40 C 132.76 200.04 133.04 199.16 132.68 198.44 C 132.32 197.73 131.44 197.44 130.73 197.80 Z M 129.95 198.20 L 129.03 198.56 C 128.28 198.85 127.92 199.70 128.21 200.45 C 128.50 201.19 129.34 201.56 130.09 201.27 L 131.01 200.91 C 131.76 200.62 132.13 199.77 131.84 199.03 C 131.55 198.28 130.70 197.91 129.95 198.20 Z M 129.14 198.52 L 128.20 198.81 C 127.43 199.04 127.00 199.85 127.23 200.62 C 127.46 201.39 128.27 201.82 129.04 201.59 L 129.98 201.31 C 130.75 201.08 131.18 200.27 130.95 199.50 C 130.72 198.73 129.91 198.29 129.14 198.52 Z M 128.29 198.78 L 127.35 199.00 C 126.57 199.19 126.09 199.97 126.27 200.75 C 126.45 201.53 127.23 202.02 128.02 201.83 L 128.95 201.61 C 129.73 201.43 130.22 200.65 130.03 199.87 C 129.85 199.09 129.07 198.60 128.29 198.78 Z M 127.42 198.99 L 126.45 199.17 C 125.66 199.32 125.14 200.08 125.29 200.87 C 125.43 201.65 126.19 202.18 126.98 202.03 L 127.95 201.85 C 128.74 201.70 129.26 200.94 129.11 200.15 C 128.97 199.36 128.21 198.84 127.42 198.99 Z M 126.49 199.16 L 125.47 199.32 C 124.68 199.45 124.13 200.19 124.26 200.98 C 124.38 201.78 125.13 202.32 125.92 202.20 L 126.94 202.04 C 127.73 201.91 128.27 201.17 128.15 200.37 C 128.03 199.58 127.28 199.04 126.49 199.16 Z M 125.49 199.32 L 124.53 199.45 C 123.73 199.57 123.18 200.30 123.29 201.10 C 123.40 201.90 124.14 202.45 124.94 202.34 L 125.90 202.20 C 126.70 202.09 127.25 201.35 127.14 200.55 C 127.02 199.76 126.29 199.20 125.49 199.32 Z M 124.53 199.45 L 123.59 199.58 C 122.79 199.69 122.23 200.43 122.34 201.22 C 122.45 202.02 123.19 202.58 123.98 202.47 L 124.93 202.34 C 125.73 202.23 126.29 201.49 126.18 200.70 C 126.07 199.90 125.33 199.34 124.53 199.45 Z M 123.59 199.58 L 122.59 199.71 C 121.79 199.82 121.23 200.56 121.34 201.36 C 121.45 202.16 122.19 202.72 122.99 202.61 L 123.98 202.47 C 124.78 202.36 125.34 201.63 125.23 200.83 C 125.12 200.03 124.39 199.47 123.59 199.58 Z M 122.59 199.71 L 121.55 199.86 C 120.74 199.97 120.19 200.71 120.30 201.51 C 120.41 202.31 121.15 202.87 121.95 202.76 L 122.99 202.61 C 123.80 202.50 124.35 201.76 124.24 200.96 C 124.13 200.16 123.39 199.60 122.59 199.71 Z M 121.54 199.86 L 120.52 200.00 C 119.72 200.12 119.16 200.87 119.28 201.67 C 119.40 202.47 120.14 203.03 120.95 202.91 L 121.96 202.76 C 122.77 202.64 123.32 201.90 123.20 201.10 C 123.09 200.29 122.34 199.74 121.54 199.86 Z M 120.51 200.00 L 119.53 200.15 C 118.73 200.27 118.17 201.02 118.30 201.83 C 118.42 202.63 119.17 203.19 119.97 203.06 L 120.95 202.91 C 121.76 202.79 122.31 202.04 122.19 201.24 C 122.07 200.43 121.32 199.88 120.51 200.00 Z M 119.53 200.15 L 118.53 200.30 C 117.73 200.43 117.17 201.18 117.30 201.99 C 117.42 202.79 118.17 203.34 118.98 203.22 L 119.98 203.07 C 120.78 202.94 121.34 202.19 121.21 201.38 C 121.09 200.58 120.33 200.02 119.53 200.15 Z M 118.53 200.30 L 117.53 200.45 C 116.72 200.57 116.17 201.33 116.29 202.14 C 116.42 202.94 117.17 203.50 117.98 203.38 L 118.98 203.22 C 119.79 203.10 120.34 202.35 120.22 201.54 C 120.10 200.73 119.34 200.17 118.53 200.30 Z M 117.54 200.45 L 116.55 200.59 C 115.73 200.71 115.17 201.47 115.29 202.28 C 115.41 203.09 116.17 203.65 116.98 203.53 L 117.97 203.38 C 118.78 203.26 119.34 202.51 119.22 201.70 C 119.10 200.89 118.35 200.33 117.54 200.45 Z M 116.56 200.59 L 115.53 200.73 C 114.72 200.84 114.15 201.60 114.26 202.41 C 114.38 203.23 115.13 203.79 115.94 203.68 L 116.97 203.53 C 117.78 203.42 118.35 202.67 118.24 201.85 C 118.12 201.04 117.37 200.47 116.56 200.59 Z M 115.54 200.72 L 114.53 200.85 C 113.71 200.96 113.13 201.71 113.24 202.53 C 113.35 203.35 114.10 203.93 114.92 203.82 L 115.93 203.69 C 116.75 203.58 117.33 202.83 117.22 202.01 C 117.11 201.19 116.36 200.61 115.54 200.72 Z M 114.54 200.84 L 113.55 200.96 C 112.73 201.06 112.14 201.81 112.24 202.63 C 112.34 203.46 113.09 204.05 113.91 203.95 L 114.90 203.83 C 115.73 203.73 116.31 202.98 116.22 202.16 C 116.12 201.33 115.37 200.74 114.54 200.84 Z M 113.57 200.95 L 112.60 201.06 C 111.77 201.15 111.17 201.89 111.26 202.72 C 111.35 203.55 112.10 204.15 112.93 204.06 L 113.90 203.96 C 114.73 203.87 115.33 203.12 115.24 202.29 C 115.15 201.46 114.40 200.86 113.57 200.95 Z M 112.62 201.05 L 111.66 201.14 C 110.82 201.22 110.21 201.96 110.29 202.80 C 110.38 203.63 111.12 204.25 111.95 204.17 L 112.91 204.07 C 113.75 203.99 114.36 203.25 114.28 202.41 C 114.20 201.58 113.45 200.97 112.62 201.05 Z M 111.68 201.13 L 110.71 201.21 C 109.86 201.29 109.24 202.03 109.31 202.87 C 109.38 203.71 110.12 204.33 110.97 204.26 L 111.94 204.18 C 112.78 204.10 113.40 203.36 113.33 202.52 C 113.26 201.68 112.52 201.06 111.68 201.13 Z M 110.72 201.20 L 109.74 201.28 C 108.89 201.34 108.26 202.08 108.32 202.93 C 108.39 203.78 109.13 204.41 109.98 204.35 L 110.95 204.27 C 111.80 204.21 112.43 203.47 112.37 202.62 C 112.30 201.77 111.56 201.14 110.72 201.20 Z M 109.75 201.27 L 108.74 201.34 C 107.89 201.40 107.25 202.14 107.31 203.00 C 107.37 203.85 108.11 204.49 108.97 204.43 L 109.97 204.36 C 110.82 204.29 111.47 203.55 111.40 202.70 C 111.34 201.85 110.60 201.20 109.75 201.27 Z M 108.74 201.33 L 107.70 201.40 C 106.84 201.47 106.20 202.21 106.26 203.07 C 106.32 203.93 107.07 204.58 107.93 204.51 L 108.97 204.44 C 109.83 204.38 110.47 203.63 110.41 202.77 C 110.35 201.91 109.60 201.27 108.74 201.33 Z M 107.70 201.39 L 106.71 201.46 C 105.85 201.53 105.20 202.28 105.26 203.15 C 105.32 204.01 106.08 204.66 106.94 204.60 L 107.93 204.53 C 108.80 204.46 109.45 203.71 109.38 202.84 C 109.32 201.98 108.57 201.33 107.70 201.39 Z M 106.71 201.45 L 105.70 201.52 C 104.82 201.58 104.17 202.35 104.23 203.22 C 104.29 204.10 105.05 204.75 105.93 204.69 L 106.94 204.62 C 107.82 204.55 108.48 203.79 108.41 202.92 C 108.35 202.04 107.59 201.38 106.71 201.45 Z M 105.70 201.50 L 104.68 201.58 C 103.80 201.64 103.13 202.41 103.20 203.29 C 103.26 204.18 104.03 204.84 104.91 204.78 L 105.93 204.71 C 106.81 204.64 107.48 203.88 107.42 202.99 C 107.35 202.11 106.59 201.44 105.70 201.50 Z M 104.69 201.56 L 103.69 201.63 C 102.80 201.69 102.12 202.46 102.18 203.35 C 102.24 204.25 103.01 204.92 103.91 204.86 L 104.90 204.80 C 105.80 204.74 106.48 203.96 106.42 203.07 C 106.36 202.18 105.58 201.50 104.69 201.56 Z M 103.70 201.61 L 102.68 201.67 C 101.77 201.72 101.09 202.50 101.14 203.40 C 101.19 204.31 101.97 205.00 102.87 204.94 L 103.90 204.88 C 104.80 204.83 105.49 204.05 105.44 203.15 C 105.38 202.24 104.61 201.55 103.70 201.61 Z M 102.69 201.65 L 101.62 201.70 C 100.70 201.75 100.00 202.53 100.05 203.45 C 100.09 204.36 100.87 205.06 101.79 205.02 L 102.86 204.96 C 103.78 204.91 104.48 204.13 104.43 203.22 C 104.39 202.31 103.61 201.60 102.69 201.65 Z M 101.62 201.68 L 100.62 201.73 C 99.70 201.78 98.98 202.56 99.03 203.49 C 99.07 204.41 99.85 205.13 100.78 205.08 L 101.78 205.04 C 102.71 204.99 103.42 204.21 103.38 203.28 C 103.33 202.36 102.55 201.64 101.62 201.68 Z M 100.62 201.71 L 99.68 201.76 C 98.75 201.80 98.02 202.60 98.07 203.54 C 98.12 204.47 98.91 205.19 99.85 205.15 L 100.78 205.10 C 101.72 205.06 102.44 204.26 102.40 203.33 C 102.35 202.39 101.56 201.67 100.62 201.71 Z M 99.66 201.74 L 98.51 201.81 C 97.56 201.86 96.84 202.68 96.89 203.62 C 96.95 204.57 97.76 205.29 98.71 205.24 L 99.87 205.17 C 100.82 205.11 101.54 204.30 101.48 203.35 C 101.43 202.40 100.61 201.68 99.66 201.74 Z M 98.42 201.79 L 97.28 201.91 C 96.33 202.01 95.63 202.87 95.74 203.83 C 95.84 204.79 96.70 205.48 97.65 205.38 L 98.79 205.26 C 99.75 205.15 100.44 204.29 100.34 203.34 C 100.24 202.38 99.38 201.69 98.42 201.79 Z M 96.32 202.30 L 96.14 202.46 C 95.39 203.09 95.31 204.21 95.94 204.95 C 96.58 205.69 97.69 205.78 98.44 205.14 L 98.62 204.99 C 99.36 204.35 99.45 203.24 98.81 202.49 C 98.18 201.75 97.06 201.66 96.32 202.30 Z M 96.88 205.54 L 97.57 205.70 C 98.53 205.92 99.49 205.32 99.71 204.36 C 99.93 203.40 99.33 202.44 98.37 202.21 L 97.69 202.06 C 96.73 201.83 95.76 202.43 95.54 203.40 C 95.32 204.36 95.92 205.32 96.88 205.54 Z M 97.73 205.75 L 98.92 205.91 C 99.91 206.04 100.82 205.35 100.95 204.36 C 101.09 203.37 100.39 202.46 99.40 202.33 L 98.21 202.17 C 97.22 202.03 96.31 202.73 96.18 203.72 C 96.04 204.70 96.74 205.62 97.73 205.75 Z M 98.98 205.93 L 100.19 206.05 C 101.19 206.16 102.09 205.43 102.19 204.43 C 102.29 203.43 101.56 202.53 100.56 202.43 L 99.35 202.31 C 98.35 202.20 97.45 202.93 97.35 203.93 C 97.25 204.94 97.98 205.83 98.98 205.93 Z M 100.23 206.06 L 101.16 206.14 C 102.17 206.22 103.05 205.47 103.14 204.47 C 103.22 203.46 102.47 202.58 101.46 202.50 L 100.52 202.42 C 99.52 202.34 98.63 203.09 98.55 204.09 C 98.47 205.10 99.22 205.98 100.23 206.06 Z M 101.19 206.15 L 102.17 206.21 C 103.18 206.27 104.05 205.51 104.12 204.50 C 104.18 203.49 103.42 202.62 102.41 202.55 L 101.43 202.49 C 100.42 202.43 99.55 203.19 99.49 204.20 C 99.42 205.21 100.19 206.08 101.19 206.15 Z M 102.20 206.21 L 103.22 206.26 C 104.23 206.31 105.09 205.53 105.14 204.52 C 105.19 203.51 104.41 202.65 103.40 202.60 L 102.38 202.55 C 101.37 202.50 100.51 203.28 100.46 204.29 C 100.41 205.30 101.19 206.16 102.20 206.21 Z M 103.25 206.27 L 104.32 206.30 C 105.34 206.34 106.19 205.55 106.22 204.53 C 106.26 203.52 105.46 202.67 104.45 202.64 L 103.37 202.60 C 102.36 202.56 101.51 203.36 101.48 204.37 C 101.44 205.38 102.23 206.23 103.25 206.27 Z M 104.35 206.31 L 105.36 206.33 C 106.37 206.35 107.21 205.55 107.24 204.53 C 107.26 203.52 106.45 202.68 105.44 202.65 L 104.43 202.63 C 103.41 202.61 102.57 203.41 102.55 204.43 C 102.53 205.44 103.33 206.28 104.35 206.31 Z M 105.37 206.33 L 106.40 206.35 C 107.41 206.36 108.25 205.55 108.26 204.53 C 108.28 203.51 107.46 202.68 106.45 202.67 L 105.42 202.65 C 104.41 202.64 103.57 203.45 103.56 204.47 C 103.54 205.48 104.36 206.32 105.37 206.33 Z M 106.41 206.35 L 107.44 206.36 C 108.45 206.36 109.28 205.54 109.29 204.53 C 109.30 203.51 108.48 202.68 107.46 202.67 L 106.44 202.66 C 105.42 202.66 104.59 203.47 104.58 204.49 C 104.57 205.51 105.39 206.34 106.41 206.35 Z M 107.44 206.36 L 108.45 206.36 C 109.47 206.36 110.30 205.54 110.30 204.52 C 110.31 203.50 109.48 202.67 108.46 202.67 L 107.46 202.67 C 106.44 202.66 105.61 203.49 105.60 204.51 C 105.60 205.53 106.42 206.36 107.44 206.36 Z M 108.46 206.36 L 109.42 206.37 C 110.44 206.37 111.27 205.54 111.27 204.52 C 111.27 203.50 110.44 202.67 109.42 202.67 L 108.46 202.67 C 107.44 202.67 106.61 203.49 106.61 204.51 C 106.61 205.54 107.43 206.36 108.46 206.36 Z M 109.42 206.37 L 110.47 206.37 C 111.50 206.37 112.33 205.54 112.33 204.52 C 112.33 203.49 111.50 202.67 110.47 202.67 L 109.42 202.67 C 108.40 202.67 107.57 203.49 107.57 204.52 C 107.57 205.54 108.40 206.37 109.42 206.37 Z M 110.47 206.37 L 111.50 206.37 C 112.52 206.37 113.35 205.54 113.35 204.52 C 113.35 203.49 112.52 202.66 111.50 202.66 L 110.47 202.66 C 109.45 202.66 108.62 203.49 108.62 204.52 C 108.62 205.54 109.45 206.37 110.47 206.37 Z M 111.50 206.37 L 112.47 206.37 C 113.49 206.37 114.32 205.54 114.32 204.52 C 114.32 203.49 113.49 202.66 112.47 202.66 L 111.50 202.66 C 110.47 202.66 109.64 203.49 109.64 204.52 C 109.64 205.54 110.47 206.37 111.50 206.37 Z M 112.47 206.38 L 113.42 206.38 C 114.44 206.38 115.27 205.54 115.27 204.52 C 115.27 203.49 114.44 202.66 113.42 202.66 L 112.47 202.66 C 111.44 202.66 110.61 203.49 110.61 204.52 C 110.61 205.54 111.44 206.38 112.47 206.38 Z M 113.42 206.38 L 114.36 206.38 C 115.39 206.38 116.22 205.54 116.22 204.52 C 116.22 203.49 115.39 202.66 114.36 202.66 L 113.42 202.66 C 112.39 202.66 111.56 203.49 111.56 204.52 C 111.56 205.54 112.39 206.38 113.42 206.38 Z M 114.36 206.38 L 115.33 206.38 C 116.36 206.38 117.19 205.54 117.19 204.52 C 117.19 203.49 116.36 202.66 115.33 202.66 L 114.36 202.66 C 113.34 202.66 112.50 203.49 112.50 204.52 C 112.50 205.54 113.34 206.38 114.36 206.38 Z M 115.33 206.38 L 116.33 206.38 C 117.36 206.38 118.19 205.54 118.19 204.52 C 118.19 203.49 117.36 202.66 116.33 202.66 L 115.33 202.66 C 114.30 202.66 113.47 203.49 113.47 204.52 C 113.47 205.54 114.30 206.38 115.33 206.38 Z M 116.33 206.38 L 117.36 206.38 C 118.39 206.38 119.22 205.54 119.22 204.52 C 119.22 203.49 118.39 202.66 117.36 202.66 L 116.33 202.66 C 115.30 202.66 114.47 203.49 114.47 204.52 C 114.47 205.54 115.30 206.38 116.33 206.38 Z M 117.36 206.38 L 118.37 206.38 C 119.40 206.38 120.24 205.54 120.24 204.52 C 120.24 203.49 119.40 202.66 118.37 202.66 L 117.36 202.66 C 116.33 202.66 115.50 203.49 115.50 204.52 C 115.50 205.54 116.33 206.38 117.36 206.38 Z M 118.37 206.38 L 119.33 206.38 C 120.36 206.38 121.19 205.54 121.19 204.52 C 121.19 203.49 120.36 202.66 119.33 202.66 L 118.37 202.66 C 117.35 202.66 116.51 203.49 116.51 204.52 C 116.51 205.54 117.35 206.38 118.37 206.38 Z M 119.33 206.38 L 120.31 206.38 C 121.34 206.38 122.17 205.54 122.17 204.52 C 122.17 203.49 121.34 202.65 120.31 202.65 L 119.33 202.65 C 118.30 202.65 117.47 203.49 117.47 204.52 C 117.47 205.54 118.30 206.38 119.33 206.38 Z M 120.31 206.38 L 121.32 206.38 C 122.35 206.38 123.18 205.55 123.18 204.52 C 123.18 203.49 122.35 202.65 121.32 202.65 L 120.31 202.65 C 119.28 202.65 118.45 203.49 118.45 204.52 C 118.45 205.55 119.28 206.38 120.31 206.38 Z M 121.32 206.38 L 122.36 206.38 C 123.39 206.38 124.23 205.55 124.23 204.52 C 124.23 203.49 123.39 202.65 122.36 202.65 L 121.32 202.65 C 120.29 202.65 119.46 203.49 119.46 204.52 C 119.46 205.55 120.29 206.38 121.32 206.38 Z M 122.36 206.38 L 123.39 206.38 C 124.41 206.38 125.25 205.55 125.25 204.52 C 125.25 203.49 124.41 202.65 123.39 202.65 L 122.36 202.65 C 121.34 202.65 120.50 203.49 120.50 204.52 C 120.50 205.55 121.34 206.38 122.36 206.38 Z M 123.39 206.38 L 124.37 206.38 C 125.40 206.38 126.23 205.55 126.23 204.52 C 126.23 203.49 125.40 202.65 124.37 202.65 L 123.39 202.65 C 122.36 202.65 121.52 203.49 121.52 204.52 C 121.52 205.55 122.36 206.38 123.39 206.38 Z M 124.37 206.38 L 125.37 206.38 C 126.40 206.38 127.24 205.55 127.24 204.52 C 127.24 203.49 126.40 202.65 125.37 202.65 L 124.37 202.65 C 123.34 202.65 122.51 203.49 122.51 204.52 C 122.51 205.55 123.34 206.38 124.37 206.38 Z M 125.37 206.38 L 126.38 206.38 C 127.41 206.38 128.25 205.55 128.25 204.52 C 128.25 203.49 127.41 202.65 126.38 202.65 L 125.37 202.65 C 124.34 202.65 123.51 203.49 123.51 204.52 C 123.51 205.55 124.34 206.38 125.37 206.38 Z M 126.38 206.38 L 127.39 206.38 C 128.42 206.38 129.26 205.55 129.26 204.52 C 129.26 203.49 128.42 202.65 127.39 202.65 L 126.38 202.65 C 125.35 202.65 124.52 203.49 124.52 204.52 C 124.52 205.55 125.35 206.38 126.38 206.38 Z M 127.39 206.38 L 128.40 206.38 C 129.43 206.38 130.26 205.55 130.26 204.52 C 130.26 203.49 129.43 202.65 128.40 202.65 L 127.39 202.65 C 126.36 202.65 125.53 203.49 125.53 204.52 C 125.53 205.55 126.36 206.38 127.39 206.38 Z M 128.40 206.38 L 129.40 206.38 C 130.43 206.38 131.26 205.55 131.26 204.52 C 131.26 203.49 130.43 202.65 129.40 202.65 L 128.40 202.65 C 127.37 202.65 126.54 203.49 126.54 204.52 C 126.54 205.55 127.37 206.38 128.40 206.38 Z M 129.40 206.38 L 130.39 206.38 C 131.42 206.38 132.26 205.55 132.26 204.52 C 132.26 203.49 131.42 202.65 130.39 202.65 L 129.40 202.65 C 128.37 202.65 127.53 203.49 127.53 204.52 C 127.53 205.55 128.37 206.38 129.40 206.38 Z M 130.39 206.38 L 131.38 206.38 C 132.41 206.38 133.25 205.55 133.25 204.52 C 133.25 203.49 132.41 202.65 131.38 202.65 L 130.39 202.65 C 129.36 202.65 128.52 203.49 128.52 204.52 C 128.52 205.55 129.36 206.38 130.39 206.38 Z M 131.38 206.38 L 132.38 206.38 C 133.41 206.38 134.24 205.55 134.24 204.52 C 134.24 203.49 133.41 202.65 132.38 202.65 L 131.38 202.65 C 130.35 202.65 129.52 203.49 129.52 204.52 C 129.52 205.55 130.35 206.38 131.38 206.38 Z M 132.38 206.38 L 133.39 206.38 C 134.42 206.38 135.25 205.55 135.25 204.52 C 135.25 203.49 134.42 202.65 133.39 202.65 L 132.38 202.65 C 131.35 202.65 130.51 203.49 130.51 204.52 C 130.51 205.55 131.35 206.38 132.38 206.38 Z M 133.39 206.38 L 134.38 206.38 C 135.41 206.38 136.25 205.55 136.25 204.52 C 136.25 203.49 135.41 202.65 134.38 202.65 L 133.39 202.65 C 132.36 202.65 131.52 203.49 131.52 204.52 C 131.52 205.55 132.36 206.38 133.39 206.38 Z M 134.38 206.38 L 135.36 206.38 C 136.39 206.38 137.23 205.55 137.23 204.52 C 137.22 203.48 136.39 202.65 135.36 202.65 L 134.38 202.65 C 133.35 202.65 132.51 203.49 132.51 204.52 C 132.51 205.55 133.35 206.38 134.38 206.38 Z M 135.36 206.38 L 136.35 206.38 C 137.38 206.38 138.22 205.54 138.22 204.51 C 138.22 203.48 137.38 202.65 136.35 202.65 L 135.36 202.65 C 134.32 202.65 133.49 203.49 133.49 204.52 C 133.49 205.55 134.33 206.38 135.36 206.38 Z M 136.36 206.38 L 137.36 206.38 C 138.39 206.38 139.22 205.54 139.22 204.51 C 139.22 203.48 138.38 202.64 137.35 202.64 L 136.34 202.65 C 135.31 202.65 134.48 203.49 134.48 204.52 C 134.49 205.55 135.32 206.39 136.36 206.38 Z M 137.36 206.38 L 138.38 206.37 C 139.41 206.37 140.24 205.53 140.24 204.50 C 140.23 203.47 139.39 202.63 138.36 202.64 L 137.34 202.64 C 136.31 202.65 135.48 203.49 135.49 204.52 C 135.49 205.55 136.33 206.38 137.36 206.38 Z M 138.38 206.37 L 139.41 206.37 C 140.44 206.36 141.27 205.51 141.26 204.48 C 141.25 203.45 140.41 202.62 139.38 202.63 L 138.35 202.64 C 137.32 202.65 136.49 203.49 136.50 204.52 C 136.51 205.55 137.35 206.38 138.38 206.37 Z M 139.41 206.37 L 140.42 206.35 C 141.45 206.34 142.27 205.50 142.26 204.47 C 142.25 203.43 141.40 202.61 140.37 202.62 L 139.37 202.63 C 138.34 202.64 137.51 203.49 137.52 204.52 C 137.53 205.55 138.38 206.38 139.41 206.37 Z M 140.42 206.35 L 141.41 206.34 C 142.45 206.33 143.27 205.48 143.25 204.45 C 143.24 203.41 142.39 202.59 141.36 202.60 L 140.37 202.62 C 139.33 202.63 138.51 203.48 138.53 204.51 C 138.54 205.55 139.39 206.37 140.42 206.35 Z M 141.42 206.34 L 142.42 206.32 C 143.45 206.31 144.27 205.45 144.25 204.42 C 144.23 203.39 143.38 202.57 142.35 202.59 L 141.35 202.60 C 140.32 202.62 139.50 203.47 139.52 204.50 C 139.54 205.54 140.39 206.36 141.42 206.34 Z M 142.42 206.32 L 143.42 206.30 C 144.45 206.28 145.27 205.43 145.25 204.40 C 145.23 203.37 144.38 202.55 143.35 202.57 L 142.35 202.59 C 141.32 202.61 140.50 203.46 140.52 204.49 C 140.53 205.52 141.39 206.34 142.42 206.32 Z M 143.42 206.30 L 144.43 206.28 C 145.46 206.26 146.28 205.41 146.26 204.38 C 146.23 203.35 145.38 202.53 144.35 202.55 L 143.35 202.57 C 142.31 202.59 141.49 203.44 141.52 204.47 C 141.54 205.51 142.39 206.33 143.42 206.30 Z M 144.43 206.28 L 145.43 206.26 C 146.47 206.24 147.28 205.39 147.26 204.35 C 147.24 203.32 146.39 202.50 145.35 202.53 L 144.35 202.55 C 143.32 202.57 142.50 203.42 142.52 204.46 C 142.54 205.49 143.40 206.31 144.43 206.28 Z M 145.43 206.26 L 146.43 206.24 C 147.46 206.22 148.28 205.36 148.26 204.33 C 148.24 203.30 147.38 202.48 146.35 202.50 L 145.35 202.53 C 144.32 202.55 143.50 203.40 143.53 204.43 C 143.55 205.47 144.40 206.28 145.43 206.26 Z M 146.43 206.24 L 147.42 206.22 C 148.45 206.20 149.27 205.34 149.25 204.31 C 149.23 203.28 148.37 202.46 147.34 202.48 L 146.35 202.50 C 145.32 202.53 144.50 203.38 144.52 204.41 C 144.55 205.44 145.40 206.26 146.43 206.24 Z M 147.42 206.22 L 148.41 206.20 C 149.45 206.18 150.27 205.32 150.24 204.29 C 150.22 203.26 149.37 202.44 148.33 202.46 L 147.34 202.48 C 146.31 202.51 145.49 203.36 145.51 204.39 C 145.53 205.42 146.39 206.24 147.42 206.22 Z M 148.41 206.20 L 149.41 206.18 C 150.44 206.16 151.26 205.30 151.24 204.27 C 151.22 203.24 150.37 202.42 149.33 202.44 L 148.34 202.46 C 147.30 202.48 146.48 203.34 146.51 204.37 C 146.53 205.40 147.38 206.22 148.41 206.20 Z M 149.41 206.18 L 150.42 206.16 C 151.45 206.13 152.27 205.28 152.25 204.25 C 152.22 203.22 151.37 202.40 150.34 202.42 L 149.33 202.44 C 148.30 202.46 147.48 203.32 147.51 204.35 C 147.53 205.38 148.38 206.20 149.41 206.18 Z M 150.42 206.16 L 151.43 206.13 C 152.46 206.11 153.28 205.26 153.25 204.23 C 153.23 203.20 152.38 202.38 151.35 202.40 L 150.34 202.42 C 149.31 202.44 148.49 203.30 148.51 204.33 C 148.53 205.36 149.38 206.18 150.42 206.16 Z M 151.43 206.13 L 152.43 206.11 C 153.46 206.09 154.28 205.24 154.25 204.21 C 154.23 203.18 153.38 202.36 152.35 202.38 L 151.35 202.40 C 150.32 202.42 149.50 203.27 149.52 204.31 C 149.54 205.34 150.39 206.16 151.43 206.13 Z M 152.43 206.11 L 153.39 206.09 C 154.43 206.07 155.24 205.22 155.22 204.19 C 155.20 203.16 154.35 202.34 153.32 202.36 L 152.35 202.38 C 151.32 202.40 150.50 203.25 150.52 204.28 C 150.54 205.32 151.39 206.13 152.43 206.11 Z M 153.39 206.09 L 154.37 206.07 C 155.40 206.05 156.22 205.20 156.20 204.17 C 156.18 203.14 155.33 202.32 154.29 202.34 L 153.32 202.36 C 152.29 202.38 151.47 203.23 151.49 204.26 C 151.51 205.30 152.36 206.11 153.39 206.09 Z M 154.37 206.07 L 155.36 206.05 C 156.39 206.03 157.21 205.18 157.19 204.15 C 157.17 203.12 156.32 202.30 155.28 202.32 L 154.30 202.34 C 153.26 202.36 152.45 203.21 152.47 204.24 C 152.49 205.27 153.34 206.09 154.37 206.07 Z M 155.36 206.05 L 156.36 206.03 C 157.39 206.01 158.21 205.16 158.19 204.13 C 158.17 203.10 157.32 202.28 156.29 202.30 L 155.29 202.32 C 154.25 202.34 153.43 203.19 153.46 204.22 C 153.48 205.25 154.33 206.07 155.36 206.05 Z M 156.36 206.03 L 157.38 206.01 C 158.41 205.99 159.23 205.14 159.21 204.11 C 159.19 203.08 158.34 202.26 157.31 202.28 L 156.29 202.30 C 155.26 202.32 154.44 203.17 154.46 204.20 C 154.48 205.23 155.33 206.05 156.36 206.03 Z M 157.38 206.01 L 158.42 205.99 C 159.45 205.97 160.27 205.12 160.25 204.09 C 160.23 203.06 159.38 202.24 158.35 202.26 L 157.31 202.28 C 156.28 202.30 155.46 203.15 155.48 204.18 C 155.50 205.21 156.35 206.03 157.38 206.01 Z M 158.42 205.99 L 159.43 205.97 C 160.46 205.95 161.28 205.10 161.26 204.07 C 161.24 203.04 160.39 202.22 159.36 202.24 L 158.35 202.26 C 157.32 202.28 156.50 203.13 156.52 204.16 C 156.53 205.19 157.39 206.01 158.42 205.99 Z M 159.43 205.97 L 160.43 205.95 C 161.46 205.94 162.28 205.08 162.26 204.05 C 162.24 203.02 161.39 202.20 160.36 202.22 L 159.36 202.24 C 158.33 202.26 157.51 203.11 157.53 204.14 C 157.54 205.17 158.40 205.99 159.43 205.97 Z M 160.43 205.95 L 161.44 205.94 C 162.47 205.92 163.29 205.07 163.28 204.04 C 163.26 203.01 162.41 202.19 161.38 202.20 L 160.36 202.22 C 159.33 202.24 158.51 203.09 158.53 204.12 C 158.55 205.15 159.40 205.97 160.43 205.95 Z M 161.44 205.94 L 162.45 205.92 C 163.48 205.90 164.31 205.05 164.29 204.02 C 164.27 202.99 163.42 202.17 162.39 202.19 L 161.38 202.20 C 160.35 202.22 159.53 203.07 159.54 204.10 C 159.56 205.13 160.41 205.95 161.44 205.94 Z M 162.45 205.92 L 163.46 205.90 C 164.49 205.89 165.31 205.04 165.30 204.01 C 165.28 202.98 164.43 202.16 163.40 202.17 L 162.39 202.19 C 161.36 202.20 160.54 203.05 160.56 204.08 C 160.57 205.11 161.42 205.93 162.45 205.92 Z M 163.46 205.90 L 164.45 205.89 C 165.48 205.88 166.31 205.03 166.29 204.00 C 166.28 202.97 165.43 202.14 164.40 202.16 L 163.41 202.17 C 162.38 202.19 161.55 203.03 161.57 204.06 C 161.58 205.09 162.43 205.92 163.46 205.90 Z M 164.45 205.89 L 165.43 205.88 C 166.46 205.87 167.28 205.02 167.27 203.99 C 167.26 202.96 166.42 202.14 165.39 202.15 L 164.41 202.16 C 163.38 202.17 162.55 203.02 162.56 204.05 C 162.58 205.08 163.42 205.90 164.45 205.89 Z M 165.42 205.88 L 166.46 205.87 C 167.49 205.86 168.31 205.02 168.30 203.99 C 168.29 202.96 167.45 202.13 166.42 202.14 L 165.39 202.15 C 164.36 202.16 163.53 203.00 163.54 204.03 C 163.55 205.06 164.39 205.89 165.42 205.88 Z M 166.45 205.87 L 167.49 205.86 C 168.52 205.85 169.35 205.01 169.34 203.98 C 169.33 202.95 168.49 202.12 167.46 202.13 L 166.43 202.14 C 165.40 202.15 164.57 202.99 164.57 204.02 C 164.58 205.05 165.42 205.87 166.45 205.87 Z M 167.48 205.86 L 168.50 205.86 C 169.53 205.85 170.36 205.01 170.35 203.98 C 170.35 202.95 169.51 202.12 168.48 202.13 L 167.47 202.13 C 166.44 202.14 165.61 202.98 165.61 204.00 C 165.62 205.03 166.45 205.86 167.48 205.86 Z M 168.49 205.86 L 169.48 205.85 C 170.51 205.85 171.35 205.01 171.34 203.98 C 171.34 202.96 170.50 202.12 169.47 202.13 L 168.48 202.13 C 167.45 202.13 166.62 202.97 166.62 204.00 C 166.63 205.03 167.46 205.86 168.49 205.86 Z M 169.48 205.85 L 170.46 205.85 C 171.49 205.85 172.32 205.01 172.32 203.99 C 172.32 202.96 171.48 202.12 170.45 202.12 L 169.48 202.13 C 168.45 202.13 167.61 202.96 167.62 203.99 C 167.62 205.02 168.45 205.85 169.48 205.85 Z M 170.46 205.85 L 171.42 205.85 C 172.45 205.85 173.28 205.02 173.28 203.99 C 173.28 202.96 172.45 202.12 171.42 202.12 L 170.45 202.12 C 169.43 202.13 168.59 202.96 168.59 203.99 C 168.59 205.02 169.43 205.85 170.46 205.85 Z M 171.42 205.85 L 172.40 205.85 C 173.43 205.85 174.26 205.02 174.26 203.99 C 174.26 202.96 173.43 202.13 172.40 202.13 L 171.42 202.13 C 170.39 202.13 169.56 202.96 169.56 203.99 C 169.56 205.02 170.39 205.85 171.42 205.85 Z M 172.40 205.85 L 173.42 205.85 C 174.44 205.85 175.28 205.02 175.28 203.99 C 175.28 202.96 174.44 202.13 173.42 202.13 L 172.40 202.13 C 171.37 202.13 170.54 202.96 170.54 203.99 C 170.54 205.02 171.37 205.85 172.40 205.85 Z M 173.42 205.85 L 174.43 205.85 C 175.45 205.85 176.29 205.01 176.29 203.99 C 176.29 202.96 175.45 202.13 174.43 202.13 L 173.42 202.13 C 172.39 202.13 171.56 202.96 171.56 203.99 C 171.56 205.01 172.39 205.85 173.42 205.85 Z M 174.43 205.85 L 175.43 205.85 C 176.45 205.85 177.29 205.01 177.29 203.99 C 177.29 202.96 176.45 202.13 175.43 202.13 L 174.43 202.13 C 173.40 202.13 172.57 202.96 172.57 203.99 C 172.57 205.01 173.40 205.85 174.43 205.85 Z M 175.43 205.85 L 176.42 205.85 C 177.45 205.85 178.28 205.01 178.28 203.99 C 178.28 202.96 177.45 202.13 176.42 202.13 L 175.43 202.13 C 174.40 202.13 173.57 202.96 173.57 203.99 C 173.57 205.01 174.40 205.85 175.43 205.85 Z M 176.42 205.84 L 177.41 205.84 C 178.43 205.84 179.26 205.01 179.26 203.99 C 179.26 202.96 178.43 202.13 177.41 202.13 L 176.42 202.13 C 175.40 202.13 174.57 202.96 174.57 203.99 C 174.57 205.01 175.40 205.84 176.42 205.84 Z M 177.41 205.84 L 178.42 205.84 C 179.44 205.84 180.27 205.01 180.27 203.99 C 180.27 202.96 179.44 202.13 178.42 202.13 L 177.41 202.13 C 176.38 202.13 175.55 202.96 175.55 203.99 C 175.55 205.01 176.38 205.84 177.41 205.84 Z M 178.42 205.84 L 179.45 205.84 C 180.47 205.84 181.30 205.01 181.30 203.99 C 181.30 202.96 180.47 202.13 179.45 202.13 L 178.42 202.13 C 177.39 202.13 176.56 202.96 176.56 203.99 C 176.56 205.01 177.39 205.84 178.42 205.84 Z M 179.45 205.84 L 180.46 205.84 C 181.48 205.84 182.31 205.01 182.31 203.99 C 182.31 202.96 181.48 202.14 180.46 202.14 L 179.45 202.14 C 178.42 202.14 177.59 202.96 177.59 203.99 C 177.59 205.01 178.42 205.84 179.45 205.84 Z M 180.46 205.84 L 181.46 205.84 C 182.48 205.84 183.31 205.01 183.31 203.99 C 183.31 202.97 182.48 202.14 181.46 202.14 L 180.46 202.14 C 179.44 202.14 178.61 202.97 178.61 203.99 C 178.61 205.01 179.44 205.84 180.46 205.84 Z M 181.46 205.84 L 182.44 205.84 C 183.46 205.84 184.29 205.01 184.29 203.99 C 184.29 202.97 183.46 202.14 182.44 202.14 L 181.46 202.14 C 180.44 202.14 179.61 202.97 179.61 203.99 C 179.61 205.01 180.44 205.84 181.46 205.84 Z M 182.44 205.83 L 183.40 205.83 C 184.42 205.83 185.24 205.01 185.24 203.99 C 185.24 202.97 184.42 202.14 183.40 202.14 L 182.44 202.14 C 181.42 202.14 180.59 202.97 180.59 203.99 C 180.59 205.01 181.42 205.83 182.44 205.83 Z M 183.40 205.83 L 184.45 205.83 C 185.47 205.83 186.30 205.01 186.30 203.99 C 186.30 202.97 185.47 202.14 184.45 202.14 L 183.40 202.14 C 182.38 202.14 181.55 202.97 181.55 203.99 C 181.55 205.01 182.38 205.83 183.40 205.83 Z M 184.45 205.83 L 185.48 205.83 C 186.50 205.83 187.32 205.00 187.32 203.99 C 187.32 202.97 186.50 202.15 185.48 202.15 L 184.45 202.15 C 183.44 202.15 182.61 202.97 182.61 203.99 C 182.61 205.00 183.44 205.83 184.45 205.83 Z M 185.48 205.82 L 186.48 205.82 C 187.50 205.82 188.32 205.00 188.32 203.99 C 188.32 202.97 187.50 202.15 186.48 202.15 L 185.48 202.15 C 184.47 202.15 183.65 202.97 183.65 203.99 C 183.65 205.00 184.47 205.82 185.48 205.82 Z M 186.48 205.82 L 187.45 205.82 C 188.46 205.82 189.28 205.00 189.28 203.99 C 189.28 202.98 188.46 202.16 187.45 202.16 L 186.48 202.16 C 185.47 202.16 184.65 202.98 184.65 203.99 C 184.65 205.00 185.47 205.82 186.48 205.82 Z M 187.45 205.82 L 188.39 205.82 C 189.40 205.82 190.22 205.00 190.22 203.99 C 190.22 202.98 189.40 202.16 188.39 202.16 L 187.45 202.16 C 186.44 202.16 185.62 202.98 185.62 203.99 C 185.62 205.00 186.44 205.82 187.45 205.82 Z M 188.39 205.81 L 189.36 205.81 C 190.36 205.81 191.18 205.00 191.18 203.99 C 191.18 202.98 190.37 202.17 189.36 202.16 L 188.39 202.16 C 187.39 202.16 186.57 202.98 186.57 203.99 C 186.57 204.99 187.39 205.81 188.39 205.81 Z M 189.35 205.81 L 190.31 205.81 C 191.32 205.81 192.13 205.00 192.14 203.99 C 192.14 202.99 191.33 202.17 190.32 202.17 L 189.36 202.17 C 188.36 202.17 187.54 202.98 187.54 203.98 C 187.54 204.99 188.35 205.80 189.35 205.81 Z M 190.31 205.80 L 191.30 205.81 C 192.30 205.81 193.11 205.00 193.12 204.00 C 193.12 203.00 192.31 202.19 191.31 202.18 L 190.33 202.18 C 189.33 202.17 188.51 202.98 188.51 203.98 C 188.50 204.98 189.31 205.80 190.31 205.80 Z M 191.29 205.80 L 192.33 205.81 C 193.33 205.82 194.15 205.02 194.15 204.02 C 194.16 203.02 193.36 202.20 192.36 202.20 L 191.32 202.19 C 190.32 202.18 189.50 202.98 189.50 203.98 C 189.49 204.98 190.29 205.79 191.29 205.80 Z M 192.32 205.81 L 193.34 205.82 C 194.33 205.83 195.15 205.04 195.17 204.04 C 195.18 203.04 194.38 202.23 193.39 202.21 L 192.37 202.20 C 191.37 202.19 190.56 202.98 190.54 203.98 C 190.53 204.98 191.33 205.79 192.32 205.81 Z M 193.33 205.81 L 194.31 205.83 C 195.30 205.85 196.12 205.06 196.14 204.07 C 196.16 203.08 195.37 202.26 194.37 202.24 L 193.40 202.22 C 192.40 202.20 191.58 202.99 191.56 203.98 C 191.55 204.98 192.34 205.80 193.33 205.81 Z M 194.29 205.83 L 195.30 205.85 C 196.29 205.88 197.12 205.10 197.14 204.11 C 197.17 203.12 196.39 202.30 195.40 202.27 L 194.39 202.24 C 193.40 202.21 192.57 202.99 192.55 203.98 C 192.52 204.97 193.30 205.80 194.29 205.83 Z M 195.28 205.85 L 196.31 205.89 C 197.29 205.93 198.12 205.16 198.16 204.18 C 198.20 203.19 197.44 202.36 196.45 202.32 L 195.42 202.28 C 194.44 202.24 193.60 203.00 193.56 203.99 C 193.52 204.98 194.29 205.81 195.28 205.85 Z M 196.27 205.88 L 197.29 205.94 C 198.28 206.00 199.12 205.25 199.18 204.27 C 199.24 203.28 198.48 202.44 197.50 202.38 L 196.48 202.32 C 195.50 202.27 194.65 203.02 194.60 204.00 C 194.54 204.98 195.29 205.83 196.27 205.88 Z M 197.25 205.94 L 198.25 206.02 C 199.23 206.10 200.08 205.37 200.16 204.39 C 200.24 203.41 199.51 202.55 198.53 202.47 L 197.54 202.39 C 196.56 202.31 195.70 203.04 195.63 204.02 C 195.55 205.00 196.28 205.86 197.25 205.94 Z M 198.20 206.00 L 199.26 206.12 C 200.24 206.23 201.11 205.53 201.22 204.56 C 201.33 203.59 200.63 202.71 199.65 202.60 L 198.59 202.48 C 197.61 202.38 196.74 203.08 196.63 204.05 C 196.52 205.02 197.22 205.89 198.20 206.00 Z M 199.22 206.10 L 200.24 206.25 C 201.21 206.38 202.09 205.71 202.23 204.74 C 202.36 203.78 201.69 202.90 200.73 202.76 L 199.70 202.62 C 198.74 202.49 197.85 203.16 197.72 204.12 C 197.58 205.08 198.26 205.97 199.22 206.10 Z M 200.22 206.23 L 201.20 206.38 C 202.15 206.53 203.04 205.87 203.19 204.92 C 203.34 203.97 202.68 203.08 201.73 202.93 L 200.75 202.78 C 199.80 202.63 198.91 203.29 198.76 204.24 C 198.61 205.19 199.27 206.08 200.22 206.23 Z M 201.20 206.37 L 202.14 206.52 C 203.09 206.66 203.98 206.02 204.12 205.07 C 204.27 204.13 203.63 203.24 202.68 203.09 L 201.73 202.94 C 200.79 202.79 199.90 203.44 199.75 204.39 C 199.60 205.33 200.25 206.22 201.20 206.37 Z M 202.17 206.51 L 203.09 206.64 C 204.03 206.77 204.91 206.12 205.04 205.18 C 205.18 204.24 204.52 203.37 203.58 203.23 L 202.66 203.10 C 201.72 202.97 200.84 203.62 200.71 204.56 C 200.57 205.50 201.23 206.37 202.17 206.51 Z M 203.14 206.62 L 204.15 206.74 C 205.08 206.85 205.92 206.18 206.03 205.25 C 206.14 204.32 205.48 203.48 204.55 203.37 L 203.54 203.25 C 202.61 203.14 201.76 203.81 201.65 204.74 C 201.55 205.67 202.21 206.51 203.14 206.62 Z M 204.19 206.70 L 205.19 206.80 C 206.11 206.88 206.91 206.21 207.00 205.30 C 207.08 204.39 206.41 203.58 205.50 203.50 L 204.50 203.41 C 203.59 203.32 202.78 203.99 202.70 204.90 C 202.61 205.81 203.28 206.62 204.19 206.70 Z M 205.23 206.76 L 206.22 206.84 C 207.11 206.90 207.89 206.23 207.95 205.34 C 208.02 204.45 207.35 203.67 206.46 203.61 L 205.47 203.53 C 204.58 203.47 203.80 204.14 203.73 205.03 C 203.67 205.92 204.34 206.69 205.23 206.76 Z M 206.24 206.80 L 207.23 206.86 C 208.10 206.92 208.85 206.26 208.90 205.39 C 208.96 204.52 208.30 203.76 207.43 203.71 L 206.44 203.65 C 205.57 203.59 204.82 204.25 204.76 205.12 C 204.71 205.99 205.37 206.74 206.24 206.80 Z M 207.23 206.83 L 207.65 206.86 C 208.50 206.91 209.24 206.26 209.29 205.40 C 209.34 204.55 208.69 203.81 207.83 203.76 L 207.42 203.74 C 206.56 203.68 205.83 204.34 205.78 205.19 C 205.72 206.05 206.38 206.78 207.23 206.83 Z"
      fill="black"
      fill-rule="nonzero" /></svg>