<svg xmlns="http://www.w3.org/2000/svg" width="300" height="300" viewBox="0 0 300 300">
<path d="M 135.69 110.52 L 135.73 111.50 C 135.76 112.35 136.48 113.01 137.33 112.98 C 138.18 112.95 138.84 112.23 138.81 111.38 L 138.77 110.40 C 138.73 109.55 138.02 108.89 137.17 108.92 C 136.32 108.95 135.66 109.67 135.69 110.52 Z M 135.72 111.53 L 135.78 112.52 C 135.83 113.38 136.56 114.03 137.42 113.98 C 138.27 113.93 138.92 113.20 138.87 112.34 L 138.81 111.35 C 138.76 110.50 138.03 109.84 137.18 109.89 C 136.32 109.95 135.67 110.68 135.72 111.53 Z M 135.77 112.58 L 135.87 113.58 C 135.95 114.44 136.72 115.07 137.57 114.98 C 138.43 114.90 139.06 114.14 138.97 113.28 L 138.88 112.28 C 138.79 111.42 138.03 110.80 137.17 110.88 C 136.32 110.96 135.69 111.73 135.77 112.58 Z M 135.87 113.67 L 136.02 114.65 C 136.16 115.51 136.96 116.10 137.81 115.96 C 138.67 115.83 139.26 115.03 139.12 114.18 L 138.97 113.19 C 138.84 112.34 138.04 111.75 137.18 111.88 C 136.33 112.01 135.74 112.81 135.87 113.67 Z M 136.04 114.73 L 136.22 115.64 C 136.40 116.49 137.23 117.03 138.08 116.86 C 138.93 116.68 139.48 115.85 139.30 115.00 L 139.11 114.09 C 138.94 113.24 138.10 112.70 137.25 112.88 C 136.40 113.05 135.86 113.88 136.04 114.73 Z M 136.23 115.67 L 136.45 116.61 C 136.64 117.46 137.49 117.98 138.33 117.79 C 139.18 117.59 139.71 116.75 139.51 115.90 L 139.29 114.96 C 139.10 114.12 138.25 113.59 137.41 113.78 C 136.56 113.98 136.03 114.83 136.23 115.67 Z M 136.45 116.61 L 136.67 117.60 C 136.87 118.45 137.71 118.98 138.56 118.79 C 139.40 118.60 139.93 117.75 139.74 116.91 L 139.51 115.91 C 139.32 115.06 138.48 114.53 137.63 114.72 C 136.78 114.92 136.25 115.76 136.45 116.61 Z M 136.66 117.56 L 136.88 118.64 C 137.05 119.49 137.88 120.04 138.73 119.87 C 139.58 119.70 140.13 118.87 139.96 118.02 L 139.75 116.95 C 139.58 116.09 138.75 115.54 137.90 115.71 C 137.05 115.88 136.49 116.71 136.66 117.56 Z M 136.87 118.58 L 137.03 119.57 C 137.17 120.43 137.97 121.01 138.83 120.87 C 139.69 120.73 140.27 119.93 140.13 119.07 L 139.97 118.08 C 139.84 117.22 139.03 116.64 138.17 116.78 C 137.31 116.92 136.73 117.72 136.87 118.58 Z M 137.02 119.52 L 137.15 120.54 C 137.27 121.40 138.06 122.00 138.92 121.89 C 139.78 121.78 140.38 120.99 140.27 120.13 L 140.14 119.11 C 140.03 118.25 139.24 117.65 138.38 117.76 C 137.52 117.87 136.91 118.66 137.02 119.52 Z M 137.15 120.50 L 137.26 121.53 C 137.35 122.39 138.13 123.01 138.99 122.92 C 139.85 122.83 140.48 122.05 140.39 121.19 L 140.28 120.17 C 140.18 119.30 139.41 118.68 138.55 118.77 C 137.68 118.86 137.06 119.64 137.15 120.50 Z M 137.26 121.49 L 137.35 122.50 C 137.42 123.37 138.18 124.01 139.05 123.93 C 139.91 123.86 140.55 123.10 140.48 122.23 L 140.39 121.22 C 140.31 120.36 139.55 119.72 138.69 119.79 C 137.82 119.87 137.18 120.63 137.26 121.49 Z M 137.34 122.48 L 137.41 123.44 C 137.47 124.30 138.22 124.96 139.09 124.90 C 139.95 124.84 140.60 124.09 140.54 123.22 L 140.48 122.26 C 140.42 121.39 139.67 120.74 138.80 120.80 C 137.94 120.86 137.28 121.61 137.34 122.48 Z M 137.41 123.41 L 137.47 124.49 C 137.51 125.36 138.25 126.02 139.11 125.98 C 139.98 125.93 140.64 125.20 140.60 124.33 L 140.54 123.25 C 140.50 122.39 139.76 121.72 138.90 121.77 C 138.03 121.81 137.37 122.55 137.41 123.41 Z M 137.47 124.46 L 137.51 125.50 C 137.53 126.36 138.25 127.04 139.11 127.01 C 139.97 126.99 140.65 126.27 140.62 125.40 L 140.59 124.36 C 140.57 123.50 139.85 122.83 138.98 122.85 C 138.12 122.88 137.45 123.60 137.47 124.46 Z M 137.51 125.47 L 137.53 126.43 C 137.54 127.29 138.24 127.98 139.10 127.96 C 139.96 127.95 140.64 127.25 140.63 126.39 L 140.62 125.43 C 140.61 124.57 139.90 123.89 139.04 123.90 C 138.19 123.91 137.50 124.62 137.51 125.47 Z M 137.53 126.42 L 137.54 127.33 C 137.54 128.19 138.23 128.87 139.08 128.87 C 139.94 128.87 140.63 128.18 140.62 127.32 L 140.62 126.41 C 140.62 125.56 139.93 124.87 139.07 124.87 C 138.22 124.87 137.53 125.56 137.53 126.42 Z M 137.54 127.33 L 137.54 128.30 C 137.54 129.15 138.23 129.84 139.08 129.84 C 139.93 129.84 140.62 129.15 140.62 128.30 L 140.62 127.33 C 140.62 126.48 139.93 125.79 139.08 125.79 C 138.23 125.79 137.54 126.48 137.54 127.33 Z M 137.55 128.30 L 137.55 129.29 C 137.54 130.14 138.22 130.82 139.07 130.83 C 139.91 130.83 140.60 130.15 140.60 129.31 L 140.61 128.31 C 140.61 127.47 139.93 126.78 139.09 126.77 C 138.24 126.77 137.55 127.45 137.55 128.30 Z M 137.55 129.28 L 137.54 130.28 C 137.52 131.12 138.20 131.81 139.04 131.82 C 139.88 131.84 140.57 131.16 140.58 130.32 L 140.60 129.32 C 140.61 128.48 139.94 127.79 139.10 127.78 C 138.26 127.76 137.57 128.44 137.55 129.28 Z M 137.54 130.25 L 137.51 131.26 C 137.49 132.09 138.15 132.79 138.98 132.82 C 139.82 132.84 140.52 132.19 140.54 131.35 L 140.57 130.35 C 140.60 129.51 139.94 128.81 139.11 128.79 C 138.27 128.76 137.57 129.42 137.54 130.25 Z M 137.52 131.22 L 137.47 132.21 C 137.43 133.04 138.07 133.75 138.90 133.79 C 139.73 133.84 140.44 133.20 140.48 132.37 L 140.54 131.38 C 140.58 130.55 139.94 129.84 139.11 129.80 C 138.28 129.75 137.57 130.39 137.52 131.22 Z M 137.48 132.16 L 137.40 133.15 C 137.33 133.98 137.94 134.71 138.77 134.78 C 139.60 134.84 140.32 134.23 140.39 133.40 L 140.47 132.41 C 140.54 131.58 139.93 130.86 139.10 130.79 C 138.28 130.72 137.55 131.34 137.48 132.16 Z M 137.41 133.10 L 137.29 134.10 C 137.19 134.92 137.77 135.66 138.59 135.76 C 139.41 135.87 140.15 135.28 140.25 134.47 L 140.38 133.46 C 140.48 132.64 139.90 131.90 139.08 131.80 C 138.26 131.70 137.51 132.28 137.41 133.10 Z M 137.31 134.03 L 137.13 135.01 C 136.99 135.82 137.54 136.59 138.35 136.73 C 139.16 136.87 139.92 136.33 140.06 135.52 L 140.24 134.54 C 140.38 133.73 139.83 132.96 139.02 132.82 C 138.21 132.68 137.45 133.22 137.31 134.03 Z M 137.16 134.95 L 136.94 135.91 C 136.77 136.71 137.27 137.50 138.07 137.67 C 138.86 137.85 139.65 137.35 139.83 136.55 L 140.04 135.59 C 140.22 134.79 139.72 134.00 138.92 133.82 C 138.12 133.65 137.33 134.15 137.16 134.95 Z M 136.96 135.86 L 136.71 136.82 C 136.50 137.61 136.97 138.41 137.76 138.62 C 138.54 138.83 139.35 138.36 139.55 137.57 L 139.81 136.60 C 140.01 135.82 139.55 135.02 138.76 134.81 C 137.98 134.60 137.17 135.07 136.96 135.86 Z M 136.73 136.78 L 136.44 137.75 C 136.21 138.52 136.65 139.34 137.42 139.57 C 138.20 139.80 139.01 139.36 139.24 138.59 L 139.53 137.62 C 139.76 136.84 139.32 136.03 138.55 135.80 C 137.78 135.57 136.96 136.01 136.73 136.78 Z M 136.46 137.72 L 136.15 138.67 C 135.90 139.44 136.31 140.26 137.07 140.51 C 137.84 140.76 138.66 140.34 138.91 139.58 L 139.22 138.62 C 139.47 137.86 139.06 137.04 138.29 136.79 C 137.53 136.54 136.71 136.95 136.46 137.72 Z M 136.16 138.64 L 135.83 139.59 C 135.57 140.34 135.96 141.16 136.71 141.43 C 137.47 141.70 138.29 141.30 138.56 140.55 L 138.89 139.61 C 139.16 138.85 138.76 138.03 138.01 137.76 C 137.25 137.50 136.43 137.89 136.16 138.64 Z M 135.85 139.56 L 135.49 140.50 C 135.21 141.24 135.59 142.07 136.34 142.35 C 137.08 142.63 137.91 142.26 138.19 141.51 L 138.54 140.57 C 138.83 139.83 138.45 139.00 137.70 138.72 C 136.96 138.44 136.13 138.81 135.85 139.56 Z M 135.51 140.47 L 135.14 141.40 C 134.84 142.14 135.20 142.98 135.94 143.27 C 136.68 143.56 137.51 143.20 137.81 142.47 L 138.18 141.54 C 138.47 140.80 138.11 139.96 137.37 139.67 C 136.64 139.38 135.80 139.74 135.51 140.47 Z M 135.15 141.38 L 134.77 142.30 C 134.46 143.03 134.80 143.87 135.53 144.17 C 136.26 144.48 137.10 144.13 137.41 143.41 L 137.79 142.49 C 138.10 141.76 137.75 140.92 137.03 140.62 C 136.30 140.31 135.46 140.65 135.15 141.38 Z M 134.78 142.28 L 134.38 143.18 C 134.07 143.90 134.39 144.74 135.12 145.06 C 135.84 145.38 136.68 145.05 137.00 144.33 L 137.40 143.43 C 137.71 142.70 137.39 141.86 136.66 141.54 C 135.94 141.23 135.10 141.55 134.78 142.28 Z M 134.39 143.16 L 133.98 144.06 C 133.65 144.78 133.97 145.62 134.68 145.95 C 135.40 146.28 136.25 145.97 136.58 145.25 L 136.99 144.35 C 137.32 143.63 137.00 142.78 136.29 142.45 C 135.57 142.12 134.72 142.44 134.39 143.16 Z M 133.99 144.04 L 133.56 144.95 C 133.22 145.67 133.52 146.52 134.23 146.86 C 134.95 147.19 135.80 146.89 136.13 146.18 L 136.57 145.27 C 136.91 144.55 136.60 143.70 135.89 143.36 C 135.18 143.03 134.33 143.33 133.99 144.04 Z M 133.56 144.94 L 133.12 145.85 C 132.77 146.56 133.07 147.41 133.77 147.76 C 134.48 148.10 135.34 147.81 135.68 147.10 L 136.13 146.19 C 136.47 145.48 136.18 144.63 135.47 144.28 C 134.76 143.94 133.91 144.23 133.56 144.94 Z M 133.12 145.84 L 132.69 146.72 C 132.34 147.42 132.62 148.28 133.33 148.63 C 134.03 148.98 134.89 148.69 135.24 147.99 L 135.68 147.11 C 136.03 146.41 135.74 145.55 135.04 145.20 C 134.33 144.85 133.48 145.14 133.12 145.84 Z M 132.69 146.71 L 132.24 147.60 C 131.88 148.30 132.16 149.16 132.87 149.51 C 133.57 149.87 134.43 149.59 134.78 148.89 L 135.23 148.00 C 135.59 147.30 135.31 146.44 134.61 146.08 C 133.91 145.72 133.05 146.01 132.69 146.71 Z M 132.24 147.59 L 131.78 148.49 C 131.42 149.19 131.70 150.05 132.40 150.41 C 133.10 150.77 133.96 150.49 134.32 149.79 L 134.78 148.89 C 135.14 148.19 134.86 147.33 134.16 146.97 C 133.46 146.61 132.60 146.89 132.24 147.59 Z M 131.78 148.49 L 131.32 149.39 C 130.96 150.09 131.23 150.95 131.93 151.31 C 132.63 151.67 133.49 151.40 133.85 150.70 L 134.32 149.79 C 134.68 149.10 134.40 148.24 133.70 147.87 C 133.00 147.51 132.14 147.79 131.78 148.49 Z M 131.32 149.39 L 131.20 149.62 C 130.84 150.32 131.11 151.18 131.81 151.54 C 132.51 151.90 133.37 151.63 133.73 150.93 L 133.85 150.70 C 134.21 150.00 133.94 149.14 133.24 148.78 C 132.54 148.42 131.68 148.69 131.32 149.39 Z"
      fill="black"
      fill-rule="nonzero" /></svg>