<svg xmlns="http://www.w3.org/2000/svg" width="300" height="300" viewBox="0 0 300 300">
<path d="M 155.00 124.66 L 155.03 125.61 C 155.06 126.46 155.77 127.13 156.62 127.10 C 157.47 127.07 158.14 126.36 158.11 125.51 L 158.08 124.56 C 158.05 123.71 157.34 123.05 156.49 123.07 C 155.64 123.10 154.98 123.81 155.00 124.66 Z M 155.01 125.61 L 155.04 126.58 C 155.06 127.44 155.78 128.12 156.65 128.09 C 157.51 128.07 158.19 127.35 158.16 126.49 L 158.14 125.52 C 158.11 124.65 157.39 123.98 156.53 124.00 C 155.66 124.03 154.98 124.75 155.01 125.61 Z M 155.01 126.57 L 155.04 127.57 C 155.06 128.45 155.79 129.14 156.67 129.12 C 157.54 129.10 158.24 128.37 158.22 127.49 L 158.19 126.49 C 158.17 125.61 157.44 124.92 156.56 124.94 C 155.68 124.97 154.99 125.69 155.01 126.57 Z M 155.01 127.56 L 155.03 128.61 C 155.05 129.50 155.79 130.21 156.68 130.19 C 157.57 130.18 158.28 129.44 158.26 128.55 L 158.24 127.50 C 158.22 126.61 157.49 125.90 156.60 125.92 C 155.70 125.94 155.00 126.67 155.01 127.56 Z M 155.02 128.60 L 155.03 129.63 C 155.04 130.53 155.78 131.25 156.68 131.23 C 157.58 131.22 158.30 130.48 158.29 129.58 L 158.28 128.56 C 158.27 127.66 157.53 126.94 156.63 126.95 C 155.73 126.96 155.01 127.70 155.02 128.60 Z M 155.02 129.62 L 155.03 130.63 C 155.04 131.54 155.78 132.26 156.68 132.26 C 157.58 132.25 158.31 131.51 158.30 130.61 L 158.30 129.59 C 158.29 128.69 157.55 127.96 156.65 127.97 C 155.75 127.97 155.02 128.71 155.02 129.62 Z M 155.03 130.62 L 155.03 131.65 C 155.03 132.56 155.77 133.29 156.67 133.29 C 157.58 133.29 158.31 132.55 158.31 131.65 L 158.31 130.62 C 158.30 129.71 157.57 128.98 156.67 128.98 C 155.76 128.99 155.03 129.72 155.03 130.62 Z M 155.03 131.64 L 155.03 132.65 C 155.02 133.56 155.75 134.30 156.66 134.30 C 157.56 134.30 158.30 133.57 158.31 132.67 L 158.31 131.66 C 158.31 130.75 157.58 130.01 156.68 130.01 C 155.77 130.01 155.03 130.74 155.03 131.64 Z M 155.02 132.64 L 155.01 133.61 C 155.00 134.52 155.73 135.26 156.64 135.27 C 157.55 135.28 158.29 134.55 158.30 133.64 L 158.31 132.68 C 158.32 131.77 157.59 131.03 156.68 131.02 C 155.77 131.01 155.03 131.74 155.02 132.64 Z M 155.01 133.60 L 154.99 134.66 C 154.98 135.56 155.70 136.31 156.61 136.33 C 157.51 136.34 158.26 135.62 158.28 134.71 L 158.30 133.66 C 158.32 132.75 157.59 132.00 156.69 131.98 C 155.78 131.97 155.03 132.69 155.01 133.60 Z M 154.99 134.63 L 154.96 135.65 C 154.93 136.55 155.64 137.31 156.55 137.34 C 157.45 137.38 158.21 136.67 158.24 135.76 L 158.28 134.74 C 158.31 133.83 157.60 133.07 156.69 133.04 C 155.79 133.01 155.02 133.72 154.99 134.63 Z M 154.96 135.60 L 154.90 136.57 C 154.85 137.47 155.54 138.25 156.44 138.31 C 157.35 138.36 158.13 137.67 158.18 136.76 L 158.24 135.80 C 158.30 134.90 157.61 134.12 156.70 134.06 C 155.80 134.01 155.02 134.70 154.96 135.60 Z M 154.91 136.51 L 154.82 137.45 C 154.73 138.36 155.39 139.16 156.29 139.25 C 157.20 139.33 158.00 138.67 158.09 137.77 L 158.18 136.82 C 158.27 135.92 157.60 135.12 156.70 135.03 C 155.80 134.94 154.99 135.60 154.91 136.51 Z M 154.82 137.39 L 154.70 138.33 C 154.57 139.23 155.20 140.06 156.10 140.18 C 157.00 140.30 157.83 139.67 157.95 138.77 L 158.08 137.83 C 158.20 136.93 157.57 136.10 156.67 135.98 C 155.77 135.86 154.95 136.49 154.82 137.39 Z M 154.71 138.27 L 154.54 139.23 C 154.39 140.13 154.99 140.98 155.88 141.13 C 156.78 141.28 157.62 140.68 157.78 139.79 L 157.94 138.83 C 158.10 137.94 157.50 137.09 156.60 136.93 C 155.71 136.78 154.86 137.38 154.71 138.27 Z M 154.55 139.18 L 154.35 140.17 C 154.17 141.06 154.74 141.93 155.63 142.11 C 156.52 142.29 157.38 141.71 157.56 140.83 L 157.77 139.84 C 157.95 138.95 157.37 138.09 156.49 137.90 C 155.60 137.72 154.73 138.30 154.55 139.18 Z M 154.36 140.13 L 154.13 141.15 C 153.92 142.03 154.47 142.91 155.35 143.11 C 156.23 143.32 157.11 142.77 157.32 141.89 L 157.55 140.87 C 157.76 139.99 157.21 139.11 156.33 138.90 C 155.45 138.70 154.57 139.25 154.36 140.13 Z M 154.14 141.11 L 153.89 142.07 C 153.67 142.94 154.20 143.83 155.07 144.06 C 155.95 144.28 156.84 143.75 157.06 142.88 L 157.31 141.92 C 157.53 141.05 157.00 140.16 156.13 139.93 C 155.25 139.71 154.36 140.24 154.14 141.11 Z M 153.91 142.04 L 153.64 142.99 C 153.41 143.86 153.92 144.75 154.79 144.99 C 155.65 145.23 156.55 144.72 156.79 143.85 L 157.05 142.91 C 157.29 142.04 156.78 141.14 155.91 140.90 C 155.04 140.66 154.14 141.17 153.91 142.04 Z M 153.66 142.96 L 153.37 143.92 C 153.12 144.79 153.61 145.69 154.48 145.95 C 155.34 146.20 156.24 145.71 156.50 144.84 L 156.78 143.88 C 157.03 143.02 156.54 142.11 155.68 141.86 C 154.81 141.60 153.91 142.10 153.66 142.96 Z M 153.38 143.90 L 153.08 144.87 C 152.81 145.73 153.29 146.64 154.15 146.91 C 155.00 147.17 155.91 146.70 156.18 145.84 L 156.49 144.87 C 156.75 144.01 156.28 143.10 155.42 142.83 C 154.56 142.56 153.65 143.04 153.38 143.90 Z M 153.09 144.85 L 152.77 145.82 C 152.49 146.67 152.95 147.58 153.80 147.86 C 154.65 148.15 155.57 147.69 155.85 146.84 L 156.17 145.87 C 156.45 145.02 155.99 144.10 155.14 143.82 C 154.29 143.54 153.37 144.00 153.09 144.85 Z M 152.78 145.79 L 152.46 146.72 C 152.16 147.57 152.61 148.49 153.45 148.78 C 154.29 149.08 155.21 148.63 155.51 147.79 L 155.83 146.86 C 156.13 146.02 155.68 145.10 154.84 144.80 C 154.00 144.51 153.08 144.95 152.78 145.79 Z M 152.47 146.70 L 152.13 147.64 C 151.82 148.47 152.25 149.40 153.09 149.70 C 153.92 150.01 154.85 149.58 155.15 148.74 L 155.49 147.81 C 155.80 146.98 155.37 146.05 154.54 145.75 C 153.70 145.44 152.78 145.87 152.47 146.70 Z M 152.14 147.62 L 151.79 148.56 C 151.47 149.38 151.89 150.31 152.71 150.63 C 153.54 150.94 154.47 150.53 154.78 149.70 L 155.14 148.76 C 155.46 147.93 155.04 147.01 154.21 146.69 C 153.38 146.38 152.46 146.79 152.14 147.62 Z M 151.80 148.54 L 151.43 149.48 C 151.10 150.30 151.51 151.23 152.33 151.55 C 153.15 151.88 154.08 151.47 154.40 150.65 L 154.77 149.71 C 155.10 148.89 154.69 147.96 153.87 147.64 C 153.05 147.32 152.12 147.72 151.80 148.54 Z M 151.44 149.47 L 151.06 150.40 C 150.73 151.21 151.13 152.14 151.94 152.47 C 152.76 152.80 153.69 152.41 154.02 151.59 L 154.39 150.66 C 154.72 149.85 154.33 148.92 153.51 148.59 C 152.70 148.26 151.77 148.65 151.44 149.47 Z M 151.07 150.39 L 150.70 151.29 C 150.37 152.10 150.75 153.03 151.56 153.36 C 152.37 153.70 153.30 153.31 153.63 152.50 L 154.01 151.60 C 154.34 150.79 153.96 149.86 153.15 149.53 C 152.34 149.19 151.41 149.58 151.07 150.39 Z M 150.71 151.28 L 150.33 152.19 C 149.99 153.00 150.37 153.92 151.17 154.26 C 151.97 154.60 152.90 154.22 153.24 153.42 L 153.62 152.51 C 153.96 151.71 153.59 150.78 152.78 150.44 C 151.98 150.10 151.05 150.48 150.71 151.28 Z M 150.34 152.18 L 149.94 153.10 C 149.60 153.90 149.97 154.83 150.76 155.17 C 151.56 155.51 152.49 155.15 152.83 154.35 L 153.23 153.43 C 153.57 152.63 153.20 151.71 152.41 151.36 C 151.61 151.02 150.68 151.39 150.34 152.18 Z M 149.95 153.10 L 149.54 154.03 C 149.20 154.82 149.55 155.74 150.34 156.09 C 151.14 156.44 152.06 156.08 152.41 155.29 L 152.82 154.36 C 153.17 153.57 152.81 152.64 152.02 152.29 C 151.23 151.95 150.30 152.30 149.95 153.10 Z M 149.56 154.02 L 149.14 154.95 C 148.78 155.74 149.13 156.66 149.92 157.01 C 150.70 157.37 151.62 157.02 151.97 156.23 L 152.40 155.30 C 152.75 154.51 152.40 153.59 151.61 153.24 C 150.83 152.89 149.91 153.23 149.56 154.02 Z M 149.15 154.95 L 148.73 155.86 C 148.37 156.64 148.71 157.56 149.49 157.91 C 150.27 158.27 151.19 157.93 151.54 157.15 L 151.96 156.24 C 152.32 155.46 151.98 154.54 151.20 154.18 C 150.42 153.83 149.50 154.17 149.15 154.95 Z M 148.74 155.85 L 148.31 156.77 C 147.95 157.54 148.28 158.46 149.05 158.82 C 149.83 159.18 150.74 158.85 151.10 158.08 L 151.53 157.16 C 151.89 156.39 151.56 155.47 150.79 155.11 C 150.02 154.75 149.10 155.08 148.74 155.85 Z M 148.32 156.76 L 147.89 157.68 C 147.53 158.44 147.85 159.35 148.61 159.72 C 149.38 160.08 150.29 159.76 150.65 159.00 L 151.09 158.08 C 151.45 157.32 151.13 156.41 150.37 156.04 C 149.60 155.68 148.69 156.00 148.32 156.76 Z M 147.90 157.67 L 147.47 158.57 C 147.10 159.32 147.41 160.23 148.17 160.60 C 148.92 160.97 149.83 160.66 150.20 159.90 L 150.64 159.00 C 151.01 158.25 150.70 157.34 149.94 156.97 C 149.18 156.60 148.27 156.91 147.90 157.67 Z M 147.48 158.56 L 147.04 159.43 C 146.67 160.18 146.97 161.09 147.72 161.46 C 148.47 161.84 149.38 161.53 149.75 160.78 L 150.19 159.91 C 150.56 159.16 150.26 158.25 149.51 157.88 C 148.76 157.51 147.85 157.81 147.48 158.56 Z M 147.06 159.42 L 146.58 160.35 C 146.20 161.09 146.49 162.00 147.23 162.38 C 147.97 162.76 148.88 162.46 149.26 161.73 L 149.74 160.79 C 150.12 160.06 149.82 159.15 149.09 158.77 C 148.35 158.39 147.44 158.68 147.06 159.42 Z M 146.60 160.34 L 146.12 161.24 C 145.73 161.97 146.01 162.87 146.74 163.26 C 147.47 163.65 148.37 163.37 148.76 162.64 L 149.24 161.74 C 149.63 161.01 149.35 160.11 148.62 159.72 C 147.89 159.33 146.99 159.61 146.60 160.34 Z M 146.14 161.23 L 145.66 162.10 C 145.27 162.82 145.53 163.72 146.25 164.11 C 146.97 164.51 147.87 164.24 148.26 163.53 L 148.74 162.65 C 149.14 161.94 148.87 161.03 148.15 160.64 C 147.44 160.25 146.53 160.51 146.14 161.23 Z M 145.68 162.09 L 145.20 162.93 C 144.80 163.64 145.05 164.54 145.76 164.94 C 146.46 165.34 147.36 165.09 147.77 164.38 L 148.24 163.54 C 148.65 162.83 148.40 161.93 147.69 161.53 C 146.98 161.13 146.08 161.38 145.68 162.09 Z M 145.22 162.92 L 144.73 163.75 C 144.32 164.45 144.56 165.35 145.25 165.75 C 145.95 166.16 146.85 165.93 147.26 165.23 L 147.75 164.40 C 148.15 163.70 147.92 162.81 147.22 162.40 C 146.53 161.99 145.63 162.22 145.22 162.92 Z M 144.75 163.74 L 144.22 164.61 C 143.80 165.30 144.02 166.19 144.71 166.61 C 145.40 167.03 146.29 166.81 146.71 166.12 L 147.24 165.25 C 147.66 164.56 147.44 163.67 146.75 163.25 C 146.06 162.83 145.17 163.05 144.75 163.74 Z M 144.24 164.59 L 143.70 165.44 C 143.27 166.12 143.48 167.02 144.16 167.44 C 144.83 167.87 145.73 167.67 146.15 166.99 L 146.69 166.14 C 147.12 165.46 146.91 164.56 146.24 164.14 C 145.56 163.71 144.66 163.91 144.24 164.59 Z M 143.72 165.43 L 143.18 166.26 C 142.74 166.93 142.93 167.82 143.59 168.26 C 144.26 168.69 145.16 168.51 145.59 167.84 L 146.14 167.01 C 146.57 166.34 146.39 165.44 145.72 165.01 C 145.05 164.57 144.16 164.76 143.72 165.43 Z M 143.19 166.24 L 142.64 167.05 C 142.20 167.71 142.37 168.61 143.03 169.05 C 143.68 169.50 144.58 169.33 145.02 168.67 L 145.57 167.86 C 146.02 167.20 145.85 166.30 145.19 165.86 C 144.53 165.41 143.64 165.58 143.19 166.24 Z M 142.66 167.03 L 142.08 167.86 C 141.62 168.51 141.78 169.40 142.42 169.86 C 143.07 170.32 143.97 170.16 144.42 169.51 L 145.01 168.69 C 145.46 168.04 145.31 167.15 144.66 166.69 C 144.01 166.23 143.12 166.39 142.66 167.03 Z M 142.10 167.84 L 141.50 168.66 C 141.03 169.30 141.17 170.19 141.81 170.66 C 142.44 171.13 143.34 170.99 143.81 170.35 L 144.41 169.53 C 144.87 168.90 144.73 168.00 144.10 167.53 C 143.46 167.07 142.56 167.20 142.10 167.84 Z M 141.51 168.64 L 140.91 169.44 C 140.43 170.07 140.55 170.96 141.18 171.44 C 141.81 171.92 142.71 171.79 143.19 171.17 L 143.79 170.37 C 144.27 169.74 144.15 168.85 143.52 168.37 C 142.89 167.89 141.99 168.01 141.51 168.64 Z M 140.93 169.42 L 140.32 170.19 C 139.83 170.81 139.94 171.71 140.56 172.20 C 141.18 172.68 142.08 172.57 142.56 171.95 L 143.17 171.18 C 143.66 170.56 143.55 169.67 142.93 169.18 C 142.31 168.69 141.41 168.80 140.93 169.42 Z M 140.33 170.17 L 139.70 170.95 C 139.21 171.56 139.30 172.46 139.91 172.96 C 140.53 173.45 141.42 173.36 141.92 172.75 L 142.55 171.97 C 143.05 171.36 142.95 170.46 142.34 169.96 C 141.73 169.47 140.83 169.56 140.33 170.17 Z M 139.72 170.94 L 139.07 171.71 C 138.57 172.31 138.65 173.21 139.25 173.72 C 139.86 174.22 140.76 174.14 141.26 173.54 L 141.91 172.76 C 142.41 172.16 142.33 171.26 141.73 170.75 C 141.12 170.25 140.22 170.33 139.72 170.94 Z M 139.08 171.70 L 138.44 172.46 C 137.93 173.06 138.00 173.96 138.60 174.47 C 139.20 174.98 140.10 174.90 140.61 174.30 L 141.25 173.55 C 141.76 172.95 141.69 172.05 141.09 171.54 C 140.49 171.03 139.59 171.10 139.08 171.70 Z M 138.44 172.45 L 137.80 173.20 C 137.28 173.80 137.35 174.70 137.95 175.21 C 138.54 175.72 139.44 175.66 139.96 175.06 L 140.60 174.31 C 141.12 173.71 141.05 172.81 140.45 172.30 C 139.86 171.79 138.96 171.85 138.44 172.45 Z M 137.80 173.20 L 137.60 173.42 C 137.09 174.02 137.16 174.92 137.75 175.43 C 138.35 175.95 139.25 175.88 139.76 175.29 L 139.96 175.06 C 140.47 174.47 140.40 173.57 139.81 173.05 C 139.21 172.54 138.31 172.60 137.80 173.20 Z"
      fill="black"
      fill-rule="nonzero" /></svg>