<svg xmlns="http://www.w3.org/2000/svg" width="300" height="300" viewBox="0 0 300 300">
<path d="M 151.77 135.72 L 152.42 134.89 C 152.93 134.24 152.82 133.29 152.16 132.78 C 151.51 132.27 150.57 132.39 150.06 133.04 L 149.41 133.88 C 148.90 134.53 149.01 135.47 149.67 135.98 C 150.32 136.49 151.26 136.38 151.77 135.72 Z M 152.36 134.98 L 153.04 134.23 C 153.60 133.61 153.55 132.66 152.93 132.10 C 152.32 131.54 151.36 131.58 150.80 132.20 L 150.12 132.95 C 149.56 133.57 149.61 134.52 150.23 135.08 C 150.84 135.64 151.80 135.60 152.36 134.98 Z M 152.86 134.40 L 153.60 133.82 C 154.26 133.30 154.37 132.34 153.85 131.69 C 153.33 131.03 152.38 130.92 151.72 131.44 L 150.98 132.02 C 150.32 132.54 150.21 133.50 150.73 134.16 C 151.25 134.81 152.20 134.92 152.86 134.40 Z M 153.24 134.04 L 154.10 133.69 C 154.89 133.37 155.26 132.48 154.94 131.70 C 154.62 130.92 153.73 130.54 152.95 130.86 L 152.08 131.21 C 151.30 131.53 150.93 132.42 151.25 133.21 C 151.56 133.99 152.46 134.36 153.24 134.04 Z M 153.62 133.82 L 154.58 133.76 C 155.43 133.71 156.08 132.97 156.03 132.12 C 155.98 131.27 155.24 130.62 154.39 130.67 L 153.43 130.73 C 152.58 130.79 151.93 131.52 151.98 132.37 C 152.04 133.22 152.77 133.87 153.62 133.82 Z M 154.13 133.74 L 155.13 133.98 C 155.97 134.17 156.81 133.66 157.01 132.82 C 157.21 131.98 156.69 131.13 155.85 130.93 L 154.85 130.70 C 154.01 130.50 153.17 131.02 152.97 131.86 C 152.77 132.70 153.29 133.54 154.13 133.74 Z M 154.78 133.86 L 155.63 134.29 C 156.41 134.69 157.36 134.37 157.75 133.60 C 158.14 132.82 157.83 131.87 157.05 131.48 L 156.20 131.05 C 155.42 130.65 154.47 130.97 154.08 131.74 C 153.69 132.52 154.00 133.47 154.78 133.86 Z M 155.40 134.16 L 156.15 134.71 C 156.85 135.23 157.85 135.09 158.37 134.38 C 158.89 133.68 158.74 132.68 158.03 132.16 L 157.28 131.61 C 156.58 131.09 155.59 131.24 155.07 131.94 C 154.55 132.65 154.70 133.64 155.40 134.16 Z M 155.99 134.59 L 156.72 135.29 C 157.36 135.89 158.36 135.87 158.97 135.23 C 159.58 134.60 159.55 133.59 158.92 132.99 L 158.19 132.29 C 157.55 131.68 156.55 131.71 155.94 132.34 C 155.33 132.98 155.36 133.98 155.99 134.59 Z M 156.60 135.17 L 157.31 135.99 C 157.88 136.67 158.89 136.75 159.56 136.17 C 160.23 135.60 160.31 134.59 159.74 133.92 L 159.04 133.10 C 158.46 132.43 157.46 132.35 156.79 132.92 C 156.11 133.49 156.03 134.50 156.60 135.17 Z M 157.22 135.89 L 157.81 136.71 C 158.32 137.43 159.32 137.59 160.04 137.08 C 160.76 136.56 160.93 135.56 160.41 134.84 L 159.82 134.02 C 159.31 133.30 158.31 133.14 157.59 133.66 C 156.87 134.17 156.70 135.17 157.22 135.89 Z M 157.74 136.62 L 158.24 137.42 C 158.71 138.18 159.70 138.41 160.45 137.94 C 161.21 137.47 161.44 136.48 160.97 135.73 L 160.47 134.93 C 160.01 134.17 159.01 133.94 158.26 134.41 C 157.51 134.88 157.27 135.87 157.74 136.62 Z M 158.18 137.34 L 158.65 138.20 C 159.07 138.98 160.05 139.28 160.83 138.86 C 161.62 138.43 161.91 137.46 161.49 136.67 L 161.02 135.81 C 160.60 135.03 159.62 134.73 158.84 135.15 C 158.06 135.58 157.76 136.55 158.18 137.34 Z M 158.60 138.11 L 159.03 139.04 C 159.40 139.85 160.36 140.20 161.17 139.83 C 161.98 139.46 162.34 138.49 161.96 137.68 L 161.54 136.76 C 161.16 135.95 160.20 135.59 159.39 135.97 C 158.58 136.34 158.22 137.30 158.60 138.11 Z M 158.98 138.95 L 159.37 139.94 C 159.69 140.77 160.63 141.18 161.47 140.86 C 162.30 140.53 162.72 139.59 162.39 138.76 L 162.01 137.77 C 161.68 136.94 160.74 136.52 159.90 136.85 C 159.07 137.18 158.66 138.12 158.98 138.95 Z M 159.33 139.85 L 159.66 140.86 C 159.94 141.71 160.85 142.18 161.71 141.90 C 162.56 141.63 163.03 140.71 162.75 139.86 L 162.43 138.85 C 162.15 137.99 161.23 137.52 160.38 137.80 C 159.52 138.08 159.05 138.99 159.33 139.85 Z M 159.63 140.78 L 159.90 141.78 C 160.13 142.65 161.03 143.17 161.90 142.93 C 162.77 142.70 163.28 141.81 163.05 140.94 L 162.78 139.93 C 162.55 139.06 161.65 138.55 160.78 138.78 C 159.91 139.02 159.40 139.91 159.63 140.78 Z M 159.88 141.72 L 160.11 142.73 C 160.31 143.61 161.18 144.17 162.06 143.97 C 162.94 143.77 163.50 142.90 163.30 142.02 L 163.07 141.00 C 162.87 140.12 162.00 139.57 161.12 139.77 C 160.24 139.96 159.68 140.84 159.88 141.72 Z M 160.10 142.68 L 160.29 143.69 C 160.46 144.58 161.31 145.16 162.20 144.99 C 163.09 144.82 163.67 143.97 163.50 143.08 L 163.31 142.07 C 163.14 141.18 162.29 140.60 161.40 140.77 C 160.51 140.94 159.93 141.79 160.10 142.68 Z M 160.28 143.64 L 160.43 144.61 C 160.57 145.51 161.41 146.12 162.30 145.98 C 163.20 145.84 163.81 145.00 163.67 144.10 L 163.51 143.13 C 163.37 142.23 162.53 141.62 161.64 141.77 C 160.75 141.91 160.14 142.75 160.28 143.64 Z M 160.42 144.57 L 160.54 145.48 C 160.66 146.38 161.48 147.02 162.38 146.90 C 163.28 146.79 163.91 145.96 163.79 145.06 L 163.68 144.15 C 163.56 143.25 162.74 142.61 161.84 142.73 C 160.94 142.85 160.31 143.67 160.42 144.57 Z M 160.53 145.43 L 160.64 146.53 C 160.73 147.43 161.53 148.09 162.43 148.00 C 163.34 147.92 164.00 147.11 163.91 146.21 L 163.80 145.12 C 163.72 144.21 162.91 143.55 162.01 143.64 C 161.11 143.73 160.44 144.53 160.53 145.43 Z M 160.63 146.46 L 160.69 147.50 C 160.75 148.40 161.53 149.09 162.43 149.04 C 163.34 148.99 164.03 148.21 163.98 147.30 L 163.91 146.27 C 163.86 145.36 163.08 144.67 162.18 144.73 C 161.27 144.78 160.58 145.56 160.63 146.46 Z M 160.69 147.44 L 160.71 148.39 C 160.74 149.30 161.49 150.01 162.40 149.99 C 163.31 149.97 164.03 149.21 164.00 148.30 L 163.98 147.36 C 163.96 146.45 163.20 145.73 162.29 145.75 C 161.38 145.78 160.67 146.53 160.69 147.44 Z M 160.71 148.35 L 160.72 149.26 C 160.72 150.17 161.46 150.91 162.37 150.90 C 163.28 150.90 164.01 150.16 164.01 149.25 L 164.01 148.34 C 164.00 147.43 163.26 146.69 162.35 146.70 C 161.44 146.70 160.71 147.44 160.71 148.35 Z M 160.72 149.25 L 160.72 150.22 C 160.71 151.13 161.45 151.87 162.36 151.87 C 163.27 151.87 164.01 151.14 164.01 150.23 L 164.01 149.26 C 164.01 148.35 163.28 147.61 162.37 147.61 C 161.46 147.61 160.72 148.34 160.72 149.25 Z M 160.71 150.21 L 160.70 151.20 C 160.69 152.11 161.42 152.86 162.33 152.87 C 163.24 152.88 163.99 152.15 164.00 151.24 L 164.01 150.24 C 164.02 149.33 163.29 148.59 162.38 148.58 C 161.47 148.57 160.72 149.30 160.71 150.21 Z M 160.70 151.17 L 160.67 152.17 C 160.64 153.08 161.35 153.85 162.26 153.88 C 163.17 153.91 163.93 153.20 163.96 152.29 L 164.00 151.28 C 164.03 150.37 163.32 149.61 162.41 149.57 C 161.50 149.54 160.73 150.26 160.70 151.17 Z M 160.67 152.12 L 160.60 153.12 C 160.54 154.03 161.22 154.82 162.13 154.88 C 163.04 154.95 163.83 154.26 163.89 153.35 L 163.96 152.34 C 164.03 151.43 163.34 150.65 162.43 150.58 C 161.52 150.52 160.73 151.21 160.67 152.12 Z M 160.61 153.05 L 160.49 154.03 C 160.39 154.93 161.04 155.75 161.95 155.85 C 162.85 155.96 163.67 155.31 163.77 154.40 L 163.89 153.43 C 163.99 152.52 163.34 151.70 162.44 151.60 C 161.53 151.49 160.71 152.14 160.61 153.05 Z M 160.51 153.94 L 160.34 154.92 C 160.20 155.82 160.80 156.67 161.70 156.82 C 162.60 156.97 163.45 156.36 163.60 155.46 L 163.76 154.48 C 163.91 153.59 163.30 152.74 162.41 152.59 C 161.51 152.44 160.66 153.04 160.51 153.94 Z M 160.36 154.83 L 160.14 155.82 C 159.95 156.71 160.51 157.59 161.40 157.78 C 162.29 157.98 163.17 157.42 163.36 156.53 L 163.58 155.55 C 163.78 154.66 163.22 153.78 162.33 153.58 C 161.44 153.38 160.56 153.95 160.36 154.83 Z M 160.17 155.73 L 159.90 156.70 C 159.65 157.58 160.17 158.49 161.05 158.73 C 161.92 158.97 162.83 158.46 163.07 157.58 L 163.34 156.61 C 163.59 155.73 163.07 154.83 162.19 154.58 C 161.32 154.34 160.41 154.85 160.17 155.73 Z M 159.92 156.63 L 159.62 157.53 C 159.34 158.40 159.81 159.33 160.68 159.61 C 161.54 159.90 162.47 159.42 162.75 158.56 L 163.05 157.66 C 163.34 156.79 162.86 155.86 162.00 155.58 C 161.14 155.29 160.20 155.76 159.92 156.63 Z M 159.64 157.48 L 159.30 158.40 C 158.99 159.25 159.42 160.20 160.28 160.51 C 161.13 160.83 162.08 160.39 162.39 159.54 L 162.73 158.62 C 163.05 157.76 162.61 156.82 161.76 156.50 C 160.91 156.19 159.96 156.62 159.64 157.48 Z M 159.32 158.36 L 158.94 159.30 C 158.60 160.14 159.01 161.10 159.85 161.44 C 160.70 161.78 161.66 161.37 162.00 160.53 L 162.38 159.58 C 162.71 158.74 162.31 157.78 161.46 157.44 C 160.62 157.10 159.66 157.51 159.32 158.36 Z M 158.96 159.27 L 158.54 160.24 C 158.18 161.08 158.57 162.04 159.41 162.40 C 160.24 162.75 161.21 162.37 161.57 161.53 L 161.98 160.56 C 162.34 159.73 161.95 158.76 161.11 158.40 C 160.28 158.05 159.31 158.43 158.96 159.27 Z M 158.55 160.22 L 158.16 161.10 C 157.80 161.93 158.17 162.90 159.00 163.26 C 159.83 163.63 160.80 163.26 161.17 162.43 L 161.56 161.55 C 161.92 160.72 161.55 159.75 160.72 159.38 C 159.89 159.02 158.92 159.39 158.55 160.22 Z M 158.17 161.08 L 157.77 161.97 C 157.39 162.79 157.75 163.77 158.58 164.14 C 159.40 164.52 160.37 164.16 160.75 163.33 L 161.16 162.44 C 161.53 161.62 161.17 160.65 160.35 160.27 C 159.52 159.90 158.55 160.26 158.17 161.08 Z M 157.78 161.96 L 157.35 162.86 C 156.97 163.68 157.32 164.65 158.14 165.04 C 158.95 165.42 159.93 165.07 160.31 164.25 L 160.74 163.35 C 161.12 162.53 160.77 161.56 159.95 161.17 C 159.14 160.79 158.16 161.14 157.78 161.96 Z M 157.36 162.85 L 156.92 163.77 C 156.53 164.58 156.87 165.56 157.68 165.95 C 158.49 166.34 159.47 166.00 159.86 165.19 L 160.30 164.27 C 160.69 163.46 160.35 162.48 159.54 162.09 C 158.73 161.70 157.75 162.04 157.36 162.85 Z M 156.93 163.76 L 156.47 164.69 C 156.07 165.50 156.40 166.47 157.20 166.87 C 158.01 167.27 158.99 166.94 159.39 166.14 L 159.85 165.20 C 160.25 164.40 159.92 163.42 159.11 163.02 C 158.30 162.62 157.33 162.95 156.93 163.76 Z M 156.48 164.68 L 156.04 165.55 C 155.64 166.35 155.96 167.32 156.76 167.73 C 157.56 168.13 158.53 167.81 158.94 167.01 L 159.38 166.15 C 159.78 165.35 159.46 164.37 158.66 163.96 C 157.86 163.56 156.88 163.88 156.48 164.68 Z M 156.05 165.54 L 155.60 166.41 C 155.19 167.20 155.50 168.18 156.30 168.59 C 157.09 169.00 158.07 168.69 158.48 167.89 L 158.93 167.02 C 159.34 166.23 159.03 165.25 158.23 164.84 C 157.44 164.43 156.46 164.74 156.05 165.54 Z M 155.61 166.40 L 155.14 167.28 C 154.73 168.07 155.03 169.05 155.82 169.46 C 156.61 169.88 157.59 169.58 158.00 168.79 L 158.47 167.90 C 158.88 167.11 158.58 166.14 157.79 165.72 C 157.00 165.31 156.02 165.61 155.61 166.40 Z M 155.15 167.27 L 154.68 168.17 C 154.26 168.95 154.55 169.93 155.34 170.35 C 156.12 170.77 157.10 170.47 157.52 169.69 L 157.99 168.80 C 158.42 168.01 158.12 167.03 157.34 166.61 C 156.55 166.19 155.57 166.49 155.15 167.27 Z M 154.69 168.16 L 154.19 169.06 C 153.77 169.84 154.06 170.81 154.83 171.24 C 155.61 171.66 156.59 171.38 157.02 170.60 L 157.51 169.70 C 157.93 168.92 157.65 167.94 156.87 167.52 C 156.09 167.09 155.11 167.38 154.69 168.16 Z M 154.20 169.05 L 153.72 169.91 C 153.30 170.69 153.57 171.66 154.35 172.09 C 155.12 172.52 156.10 172.24 156.53 171.47 L 157.01 170.60 C 157.44 169.83 157.16 168.86 156.38 168.43 C 155.61 168.00 154.63 168.28 154.20 169.05 Z M 153.74 169.91 L 153.26 170.75 C 152.83 171.52 153.10 172.49 153.87 172.92 C 154.63 173.36 155.61 173.09 156.04 172.32 L 156.52 171.47 C 156.95 170.71 156.68 169.73 155.91 169.30 C 155.14 168.87 154.17 169.14 153.74 169.91 Z M 153.27 170.74 L 152.78 171.60 C 152.35 172.36 152.61 173.33 153.37 173.76 C 154.13 174.20 155.10 173.94 155.54 173.18 L 156.03 172.32 C 156.46 171.56 156.20 170.59 155.44 170.16 C 154.68 169.72 153.71 169.98 153.27 170.74 Z M 152.79 171.59 L 152.29 172.45 C 151.85 173.21 152.10 174.18 152.86 174.62 C 153.61 175.06 154.58 174.80 155.02 174.05 L 155.53 173.18 C 155.97 172.43 155.71 171.46 154.96 171.02 C 154.20 170.58 153.23 170.83 152.79 171.59 Z M 152.30 172.45 L 151.78 173.32 C 151.34 174.07 151.58 175.04 152.33 175.48 C 153.08 175.93 154.05 175.68 154.49 174.93 L 155.01 174.06 C 155.45 173.31 155.21 172.34 154.46 171.90 C 153.71 171.45 152.75 171.70 152.30 172.45 Z M 151.79 173.32 L 151.25 174.21 C 150.81 174.95 151.04 175.91 151.79 176.36 C 152.53 176.81 153.49 176.57 153.94 175.83 L 154.48 174.94 C 154.93 174.20 154.69 173.23 153.95 172.79 C 153.21 172.34 152.24 172.58 151.79 173.32 Z M 151.27 174.20 L 150.74 175.05 C 150.29 175.79 150.52 176.75 151.25 177.20 C 151.99 177.65 152.95 177.43 153.40 176.69 L 153.93 175.84 C 154.38 175.10 154.15 174.14 153.41 173.69 C 152.68 173.24 151.72 173.47 151.27 174.20 Z M 150.75 175.05 L 150.22 175.90 C 149.77 176.62 149.99 177.58 150.72 178.04 C 151.45 178.49 152.41 178.27 152.86 177.54 L 153.39 176.70 C 153.84 175.97 153.62 175.01 152.89 174.55 C 152.17 174.10 151.21 174.32 150.75 175.05 Z M 150.23 175.89 L 149.70 176.74 C 149.24 177.47 149.45 178.42 150.17 178.88 C 150.90 179.34 151.85 179.12 152.31 178.40 L 152.85 177.55 C 153.31 176.83 153.09 175.87 152.37 175.41 C 151.65 174.95 150.69 175.17 150.23 175.89 Z M 149.71 176.74 L 149.16 177.59 C 148.70 178.31 148.91 179.26 149.62 179.72 C 150.34 180.18 151.29 179.97 151.75 179.25 L 152.30 178.40 C 152.76 177.69 152.55 176.73 151.84 176.27 C 151.12 175.81 150.17 176.02 149.71 176.74 Z M 149.17 177.59 L 148.62 178.43 C 148.16 179.14 148.36 180.09 149.07 180.55 C 149.78 181.01 150.73 180.81 151.20 180.10 L 151.74 179.26 C 152.21 178.55 152.00 177.60 151.29 177.14 C 150.58 176.67 149.63 176.87 149.17 177.59 Z M 148.63 178.43 L 148.09 179.26 C 147.62 179.96 147.82 180.91 148.52 181.37 C 149.23 181.84 150.17 181.64 150.64 180.94 L 151.18 180.11 C 151.65 179.40 151.45 178.45 150.75 177.99 C 150.04 177.53 149.10 177.72 148.63 178.43 Z M 148.10 179.25 L 147.54 180.09 C 147.07 180.79 147.26 181.74 147.96 182.20 C 148.66 182.67 149.60 182.48 150.07 181.78 L 150.63 180.94 C 151.09 180.24 150.90 179.30 150.20 178.83 C 149.51 178.37 148.56 178.56 148.10 179.25 Z M 147.55 180.09 L 146.97 180.94 C 146.50 181.63 146.69 182.57 147.38 183.04 C 148.07 183.51 149.01 183.33 149.48 182.64 L 150.06 181.78 C 150.52 181.09 150.34 180.15 149.65 179.68 C 148.96 179.22 148.02 179.40 147.55 180.09 Z M 146.99 180.94 L 146.41 181.77 C 145.94 182.45 146.12 183.39 146.80 183.86 C 147.48 184.33 148.42 184.16 148.89 183.47 L 149.47 182.64 C 149.94 181.96 149.76 181.02 149.08 180.55 C 148.39 180.08 147.46 180.25 146.99 180.94 Z M 146.43 181.76 L 145.86 182.57 C 145.38 183.25 145.54 184.18 146.22 184.66 C 146.89 185.14 147.83 184.97 148.30 184.30 L 148.88 183.48 C 149.35 182.81 149.19 181.87 148.51 181.40 C 147.84 180.92 146.91 181.08 146.43 181.76 Z M 145.87 182.56 L 145.30 183.36 C 144.82 184.03 144.97 184.96 145.63 185.44 C 146.30 185.92 147.23 185.77 147.71 185.10 L 148.29 184.31 C 148.77 183.64 148.62 182.71 147.95 182.23 C 147.29 181.75 146.35 181.90 145.87 182.56 Z M 145.32 183.35 L 144.73 184.13 C 144.24 184.79 144.38 185.72 145.04 186.20 C 145.69 186.69 146.62 186.56 147.11 185.90 L 147.69 185.12 C 148.18 184.46 148.04 183.53 147.39 183.05 C 146.73 182.56 145.80 182.69 145.32 183.35 Z M 144.75 184.12 L 144.15 184.91 C 143.65 185.55 143.77 186.48 144.42 186.97 C 145.06 187.47 145.99 187.35 146.48 186.70 L 147.09 185.91 C 147.58 185.27 147.46 184.34 146.82 183.85 C 146.17 183.35 145.25 183.47 144.75 184.12 Z M 144.17 184.89 L 143.54 185.68 C 143.04 186.32 143.14 187.24 143.78 187.74 C 144.41 188.25 145.33 188.14 145.84 187.51 L 146.47 186.72 C 146.97 186.08 146.86 185.16 146.23 184.65 C 145.59 184.15 144.67 184.26 144.17 184.89 Z M 143.56 185.67 L 142.92 186.45 C 142.41 187.08 142.51 188.00 143.13 188.51 C 143.76 189.02 144.68 188.92 145.19 188.30 L 145.82 187.52 C 146.33 186.89 146.24 185.97 145.61 185.46 C 144.99 184.95 144.07 185.05 143.56 185.67 Z M 142.94 186.44 L 142.30 187.21 C 141.78 187.83 141.87 188.75 142.48 189.26 C 143.10 189.78 144.02 189.69 144.53 189.07 L 145.17 188.30 C 145.69 187.69 145.60 186.77 144.98 186.26 C 144.37 185.74 143.45 185.83 142.94 186.44 Z M 142.31 187.21 L 141.66 187.97 C 141.15 188.58 141.22 189.49 141.84 190.01 C 142.45 190.53 143.36 190.45 143.88 189.84 L 144.52 189.08 C 145.04 188.47 144.96 187.55 144.35 187.04 C 143.74 186.52 142.82 186.60 142.31 187.21 Z M 141.67 187.96 L 141.03 188.71 C 140.51 189.32 140.59 190.23 141.19 190.75 C 141.80 191.27 142.71 191.20 143.23 190.59 L 143.87 189.84 C 144.39 189.23 144.31 188.32 143.71 187.81 C 143.10 187.29 142.19 187.36 141.67 187.96 Z M 141.04 188.71 L 140.37 189.49 C 139.86 190.09 139.92 191.00 140.53 191.52 C 141.13 192.03 142.04 191.97 142.55 191.36 L 143.22 190.59 C 143.74 189.99 143.67 189.08 143.07 188.56 C 142.47 188.04 141.56 188.11 141.04 188.71 Z M 140.38 189.49 L 139.71 190.25 C 139.19 190.85 139.26 191.76 139.86 192.28 C 140.46 192.80 141.36 192.74 141.88 192.14 L 142.55 191.37 C 143.07 190.77 143.00 189.86 142.40 189.34 C 141.80 188.82 140.90 188.89 140.38 189.49 Z M 139.72 190.25 L 139.05 191.01 C 138.53 191.61 138.59 192.51 139.19 193.03 C 139.79 193.55 140.69 193.49 141.21 192.90 L 141.88 192.14 C 142.40 191.54 142.34 190.64 141.74 190.12 C 141.14 189.59 140.24 189.65 139.72 190.25 Z M 139.06 191.00 L 138.40 191.75 C 137.88 192.34 137.93 193.25 138.53 193.77 C 139.12 194.29 140.02 194.24 140.55 193.65 L 141.21 192.90 C 141.73 192.31 141.68 191.40 141.08 190.88 C 140.49 190.36 139.59 190.41 139.06 191.00 Z M 138.41 191.74 L 137.76 192.47 C 137.23 193.06 137.28 193.96 137.87 194.49 C 138.46 195.02 139.36 194.97 139.89 194.38 L 140.54 193.65 C 141.07 193.06 141.02 192.16 140.43 191.63 C 139.84 191.10 138.94 191.15 138.41 191.74 Z M 137.77 192.46 L 137.10 193.19 C 136.57 193.78 136.61 194.68 137.19 195.21 C 137.77 195.74 138.68 195.70 139.21 195.12 L 139.88 194.39 C 140.41 193.81 140.37 192.90 139.79 192.37 C 139.20 191.84 138.30 191.88 137.77 192.46 Z M 137.11 193.19 L 136.42 193.93 C 135.88 194.51 135.91 195.41 136.49 195.95 C 137.07 196.48 137.97 196.45 138.51 195.87 L 139.20 195.13 C 139.74 194.55 139.70 193.65 139.13 193.11 C 138.55 192.57 137.64 192.61 137.11 193.19 Z M 136.42 193.92 L 135.74 194.65 C 135.20 195.23 135.22 196.13 135.80 196.67 C 136.37 197.21 137.27 197.18 137.81 196.61 L 138.50 195.88 C 139.04 195.31 139.02 194.40 138.44 193.86 C 137.87 193.32 136.97 193.35 136.42 193.92 Z M 135.74 194.65 L 135.06 195.37 C 134.51 195.94 134.54 196.84 135.11 197.38 C 135.68 197.93 136.58 197.90 137.12 197.33 L 137.81 196.62 C 138.35 196.05 138.33 195.14 137.76 194.60 C 137.19 194.06 136.29 194.08 135.74 194.65 Z M 135.06 195.36 L 134.38 196.07 C 133.83 196.64 133.85 197.54 134.42 198.09 C 134.99 198.64 135.89 198.62 136.43 198.05 L 137.12 197.34 C 137.66 196.77 137.65 195.87 137.08 195.32 C 136.51 194.78 135.61 194.79 135.06 195.36 Z M 134.38 196.07 L 133.95 196.52 C 133.41 197.08 133.42 197.99 133.99 198.53 C 134.56 199.08 135.46 199.06 136.01 198.49 L 136.43 198.05 C 136.98 197.48 136.96 196.58 136.39 196.03 C 135.83 195.49 134.93 195.51 134.38 196.07 Z"
      fill="black"
      fill-rule="nonzero" /></svg>