<svg xmlns="http://www.w3.org/2000/svg" width="300" height="300" viewBox="0 0 300 300">
<path d="M 118.97 129.04 L 118.00 128.79 C 117.16 128.57 116.30 129.08 116.08 129.93 C 115.86 130.77 116.37 131.63 117.22 131.85 L 118.18 132.10 C 119.03 132.31 119.89 131.80 120.11 130.96 C 120.32 130.11 119.81 129.25 118.97 129.04 Z M 118.00 128.77 L 117.03 128.53 C 116.17 128.32 115.31 128.84 115.09 129.69 C 114.88 130.55 115.40 131.41 116.26 131.63 L 117.23 131.87 C 118.08 132.08 118.95 131.56 119.16 130.70 C 119.37 129.85 118.85 128.98 118.00 128.77 Z M 117.01 128.51 L 116.04 128.28 C 115.17 128.08 114.30 128.62 114.10 129.48 C 113.90 130.35 114.44 131.22 115.30 131.42 L 116.28 131.65 C 117.15 131.85 118.01 131.31 118.22 130.44 C 118.42 129.58 117.88 128.71 117.01 128.51 Z M 116.00 128.26 L 115.02 128.05 C 114.14 127.87 113.28 128.43 113.09 129.31 C 112.91 130.19 113.47 131.05 114.35 131.24 L 115.34 131.45 C 116.22 131.63 117.08 131.07 117.27 130.19 C 117.45 129.30 116.89 128.44 116.00 128.26 Z M 114.98 128.02 L 113.68 127.79 C 112.79 127.63 111.93 128.23 111.77 129.13 C 111.61 130.03 112.21 130.88 113.11 131.04 L 114.40 131.27 C 115.30 131.43 116.16 130.83 116.32 129.93 C 116.48 129.03 115.88 128.18 114.98 128.02 Z M 113.66 127.75 L 112.47 127.55 C 111.55 127.40 110.68 128.03 110.54 128.95 C 110.39 129.88 111.01 130.74 111.94 130.89 L 113.13 131.09 C 114.05 131.23 114.92 130.61 115.07 129.68 C 115.21 128.76 114.59 127.89 113.66 127.75 Z M 112.55 127.53 L 111.88 127.39 C 110.95 127.21 110.03 127.81 109.85 128.75 C 109.66 129.69 110.27 130.60 111.20 130.79 L 111.87 130.92 C 112.80 131.11 113.72 130.50 113.90 129.56 C 114.09 128.63 113.48 127.71 112.55 127.53 Z M 112.30 130.68 L 112.46 130.60 C 113.34 130.18 113.71 129.14 113.29 128.26 C 112.88 127.38 111.83 127.01 110.95 127.43 L 110.79 127.50 C 109.91 127.92 109.54 128.97 109.96 129.84 C 110.37 130.72 111.42 131.09 112.30 130.68 Z M 111.78 130.78 L 112.73 130.74 C 113.70 130.70 114.46 129.87 114.42 128.90 C 114.38 127.92 113.55 127.17 112.58 127.21 L 111.63 127.25 C 110.66 127.29 109.90 128.11 109.94 129.09 C 109.98 130.06 110.81 130.82 111.78 130.78 Z M 112.69 130.74 L 114.12 130.71 C 115.10 130.69 115.88 129.88 115.85 128.90 C 115.83 127.92 115.02 127.15 114.04 127.17 L 112.61 127.20 C 111.63 127.23 110.86 128.04 110.88 129.02 C 110.90 129.99 111.72 130.77 112.69 130.74 Z M 114.14 130.71 L 115.21 130.68 C 116.19 130.65 116.95 129.83 116.92 128.85 C 116.89 127.87 116.07 127.10 115.09 127.13 L 114.02 127.17 C 113.04 127.20 112.28 128.02 112.31 129.00 C 112.34 129.98 113.16 130.74 114.14 130.71 Z M 115.23 130.68 L 116.25 130.63 C 117.23 130.59 117.99 129.76 117.94 128.78 C 117.90 127.80 117.07 127.04 116.09 127.09 L 115.07 127.13 C 114.09 127.17 113.33 128.00 113.37 128.98 C 113.42 129.96 114.25 130.72 115.23 130.68 Z M 116.27 130.63 L 117.29 130.58 C 118.27 130.52 119.02 129.68 118.97 128.70 C 118.91 127.72 118.07 126.97 117.09 127.03 L 116.07 127.09 C 115.09 127.14 114.34 127.98 114.40 128.96 C 114.45 129.94 115.29 130.69 116.27 130.63 Z M 117.32 130.58 L 118.31 130.51 C 119.29 130.44 120.03 129.59 119.96 128.61 C 119.89 127.63 119.04 126.89 118.06 126.96 L 117.07 127.03 C 116.09 127.10 115.35 127.95 115.42 128.93 C 115.49 129.91 116.34 130.64 117.32 130.58 Z M 118.34 130.51 L 119.32 130.42 C 120.30 130.34 121.03 129.47 120.94 128.49 C 120.86 127.52 119.99 126.79 119.02 126.88 L 118.03 126.96 C 117.06 127.05 116.33 127.91 116.42 128.89 C 116.50 129.87 117.36 130.59 118.34 130.51 Z M 119.36 130.42 L 120.43 130.30 C 121.40 130.19 122.11 129.32 122.00 128.34 C 121.90 127.36 121.02 126.66 120.04 126.76 L 118.98 126.88 C 118.00 126.99 117.29 127.87 117.40 128.84 C 117.51 129.82 118.39 130.53 119.36 130.42 Z M 120.46 130.30 L 121.45 130.17 C 122.42 130.04 123.11 129.15 122.98 128.17 C 122.85 127.20 121.96 126.51 120.99 126.64 L 120.00 126.77 C 119.03 126.89 118.34 127.79 118.47 128.76 C 118.60 129.74 119.49 130.43 120.46 130.30 Z M 121.47 130.17 L 122.41 130.03 C 123.39 129.89 124.06 128.98 123.92 128.01 C 123.78 127.04 122.87 126.36 121.90 126.50 L 120.96 126.64 C 119.99 126.78 119.31 127.69 119.46 128.66 C 119.60 129.63 120.50 130.31 121.47 130.17 Z M 122.42 130.03 L 123.36 129.88 C 124.34 129.74 125.01 128.83 124.86 127.86 C 124.71 126.89 123.81 126.22 122.83 126.36 L 121.89 126.51 C 120.92 126.65 120.25 127.56 120.39 128.53 C 120.54 129.50 121.45 130.17 122.42 130.03 Z M 123.36 129.89 L 124.34 129.74 C 125.31 129.59 125.98 128.68 125.83 127.71 C 125.69 126.74 124.78 126.07 123.81 126.22 L 122.83 126.36 C 121.86 126.51 121.19 127.42 121.34 128.39 C 121.48 129.36 122.39 130.03 123.36 129.89 Z M 124.34 129.74 L 125.33 129.59 C 126.30 129.44 126.97 128.53 126.82 127.56 C 126.67 126.59 125.77 125.92 124.79 126.07 L 123.81 126.22 C 122.83 126.36 122.16 127.27 122.31 128.25 C 122.46 129.22 123.37 129.89 124.34 129.74 Z M 125.34 129.59 L 126.34 129.43 C 127.32 129.28 127.98 128.37 127.83 127.39 C 127.68 126.42 126.76 125.76 125.79 125.91 L 124.79 126.07 C 123.81 126.22 123.15 127.13 123.30 128.10 C 123.45 129.07 124.37 129.74 125.34 129.59 Z M 126.35 129.43 L 127.33 129.27 C 128.30 129.11 128.96 128.20 128.81 127.22 C 128.65 126.25 127.73 125.59 126.76 125.75 L 125.78 125.91 C 124.81 126.07 124.15 126.98 124.31 127.95 C 124.47 128.93 125.38 129.59 126.35 129.43 Z M 127.34 129.27 L 128.32 129.10 C 129.29 128.94 129.95 128.02 129.79 127.05 C 129.62 126.08 128.71 125.43 127.74 125.59 L 126.75 125.75 C 125.78 125.91 125.13 126.83 125.29 127.80 C 125.45 128.77 126.37 129.43 127.34 129.27 Z M 128.33 129.10 L 129.32 128.93 C 130.29 128.77 130.94 127.85 130.78 126.88 C 130.61 125.91 129.69 125.25 128.72 125.42 L 127.73 125.59 C 126.76 125.75 126.11 126.68 126.27 127.65 C 126.44 128.62 127.36 129.27 128.33 129.10 Z M 129.32 128.93 L 130.32 128.76 C 131.29 128.59 131.94 127.67 131.77 126.70 C 131.61 125.73 130.69 125.08 129.72 125.25 L 128.72 125.42 C 127.75 125.59 127.10 126.51 127.26 127.48 C 127.43 128.45 128.35 129.10 129.32 128.93 Z M 130.32 128.76 L 131.31 128.59 C 132.28 128.42 132.93 127.50 132.76 126.53 C 132.59 125.56 131.67 124.91 130.70 125.08 L 129.71 125.25 C 128.74 125.42 128.09 126.34 128.26 127.31 C 128.43 128.28 129.35 128.93 130.32 128.76 Z M 131.31 128.59 L 132.29 128.42 C 133.26 128.25 133.91 127.33 133.74 126.36 C 133.57 125.39 132.65 124.74 131.68 124.91 L 130.70 125.08 C 129.73 125.25 129.08 126.17 129.25 127.14 C 129.42 128.11 130.34 128.76 131.31 128.59 Z M 132.30 128.42 L 133.29 128.24 C 134.26 128.07 134.90 127.14 134.73 126.17 C 134.55 125.20 133.63 124.56 132.66 124.73 L 131.67 124.91 C 130.70 125.08 130.06 126.01 130.23 126.98 C 130.41 127.95 131.33 128.59 132.30 128.42 Z M 133.30 128.24 L 134.28 128.06 C 135.25 127.88 135.89 126.95 135.71 125.98 C 135.53 125.01 134.60 124.37 133.63 124.55 L 132.65 124.73 C 131.68 124.91 131.04 125.84 131.22 126.81 C 131.40 127.78 132.33 128.42 133.30 128.24 Z M 134.30 128.05 L 135.28 127.86 C 136.25 127.68 136.88 126.74 136.69 125.77 C 136.51 124.81 135.57 124.17 134.60 124.36 L 133.62 124.55 C 132.65 124.74 132.02 125.68 132.21 126.64 C 132.39 127.61 133.33 128.24 134.30 128.05 Z M 135.29 127.86 L 136.27 127.67 C 137.24 127.47 137.87 126.54 137.68 125.57 C 137.48 124.60 136.55 123.98 135.58 124.17 L 134.60 124.36 C 133.63 124.56 133.00 125.49 133.19 126.46 C 133.39 127.42 134.32 128.05 135.29 127.86 Z M 136.27 127.67 L 137.25 127.47 C 138.22 127.28 138.85 126.34 138.66 125.38 C 138.46 124.41 137.52 123.78 136.56 123.97 L 135.58 124.17 C 134.61 124.36 133.99 125.30 134.18 126.26 C 134.37 127.23 135.31 127.86 136.27 127.67 Z M 137.25 127.47 L 138.22 127.28 C 139.19 127.09 139.82 126.16 139.63 125.19 C 139.44 124.22 138.51 123.59 137.54 123.78 L 136.57 123.97 C 135.60 124.16 134.97 125.10 135.16 126.06 C 135.35 127.03 136.28 127.66 137.25 127.47 Z M 138.21 127.28 L 139.19 127.10 C 140.15 126.92 140.79 125.98 140.60 125.02 C 140.42 124.05 139.49 123.41 138.52 123.60 L 137.55 123.78 C 136.58 123.96 135.95 124.90 136.13 125.86 C 136.31 126.83 137.24 127.47 138.21 127.28 Z M 139.18 127.10 L 140.16 126.92 C 141.12 126.73 141.76 125.80 141.58 124.84 C 141.40 123.87 140.47 123.23 139.50 123.41 L 138.52 123.60 C 137.56 123.78 136.92 124.71 137.10 125.68 C 137.28 126.65 138.22 127.28 139.18 127.10 Z M 140.16 126.91 L 141.15 126.73 C 142.12 126.54 142.75 125.61 142.56 124.64 C 142.38 123.67 141.44 123.04 140.48 123.23 L 139.49 123.41 C 138.52 123.60 137.89 124.53 138.08 125.50 C 138.26 126.47 139.20 127.10 140.16 126.91 Z M 141.16 126.72 L 142.16 126.52 C 143.13 126.33 143.75 125.39 143.56 124.42 C 143.36 123.46 142.42 122.83 141.46 123.03 L 140.46 123.23 C 139.50 123.42 138.87 124.36 139.07 125.33 C 139.26 126.29 140.20 126.92 141.16 126.72 Z M 142.18 126.52 L 143.17 126.31 C 144.13 126.11 144.75 125.16 144.54 124.20 C 144.34 123.24 143.39 122.62 142.43 122.82 L 141.44 123.03 C 140.48 123.24 139.86 124.18 140.07 125.14 C 140.27 126.11 141.21 126.72 142.18 126.52 Z M 143.18 126.31 L 144.17 126.09 C 145.13 125.88 145.74 124.94 145.53 123.97 C 145.32 123.01 144.38 122.40 143.41 122.61 L 142.42 122.83 C 141.46 123.03 140.85 123.98 141.06 124.94 C 141.27 125.90 142.22 126.51 143.18 126.31 Z M 144.17 126.09 L 145.14 125.88 C 146.10 125.67 146.71 124.72 146.50 123.76 C 146.29 122.80 145.35 122.19 144.39 122.40 L 143.41 122.61 C 142.45 122.82 141.84 123.77 142.05 124.73 C 142.26 125.69 143.21 126.30 144.17 126.09 Z M 145.14 125.88 L 146.08 125.68 C 147.04 125.47 147.65 124.52 147.44 123.56 C 147.24 122.60 146.29 121.99 145.33 122.20 L 144.39 122.40 C 143.43 122.61 142.82 123.55 143.03 124.51 C 143.23 125.47 144.18 126.08 145.14 125.88 Z M 146.07 125.68 L 146.98 125.48 C 147.94 125.28 148.56 124.34 148.36 123.38 C 148.15 122.42 147.21 121.80 146.25 122.00 L 145.34 122.20 C 144.38 122.40 143.76 123.34 143.96 124.30 C 144.17 125.26 145.11 125.88 146.07 125.68 Z M 146.98 125.48 L 147.92 125.28 C 148.88 125.08 149.49 124.14 149.29 123.18 C 149.08 122.22 148.14 121.61 147.18 121.81 L 146.25 122.01 C 145.29 122.21 144.68 123.15 144.88 124.11 C 145.08 125.07 146.02 125.69 146.98 125.48 Z M 147.93 125.28 L 148.94 125.06 C 149.90 124.85 150.50 123.91 150.29 122.95 C 150.09 121.99 149.14 121.38 148.18 121.59 L 147.17 121.81 C 146.21 122.02 145.61 122.97 145.82 123.92 C 146.02 124.88 146.97 125.49 147.93 125.28 Z M 148.95 125.06 L 149.98 124.82 C 150.94 124.61 151.54 123.66 151.32 122.70 C 151.11 121.75 150.16 121.15 149.20 121.36 L 148.17 121.60 C 147.21 121.81 146.61 122.76 146.83 123.72 C 147.05 124.67 148.00 125.27 148.95 125.06 Z M 149.99 124.82 L 150.91 124.61 C 151.86 124.38 152.45 123.43 152.23 122.48 C 152.01 121.52 151.06 120.93 150.10 121.15 L 149.19 121.37 C 148.24 121.59 147.64 122.54 147.86 123.50 C 148.09 124.45 149.04 125.04 149.99 124.82 Z M 150.91 124.60 L 151.88 124.38 C 152.83 124.15 153.42 123.20 153.20 122.24 C 152.98 121.29 152.02 120.70 151.07 120.93 L 150.10 121.16 C 149.15 121.38 148.56 122.33 148.78 123.29 C 149.00 124.24 149.96 124.83 150.91 124.60 Z M 151.88 124.37 L 152.89 124.14 C 153.84 123.91 154.43 122.96 154.20 122.01 C 153.98 121.06 153.03 120.47 152.07 120.69 L 151.07 120.93 C 150.12 121.15 149.53 122.11 149.75 123.06 C 149.98 124.01 150.93 124.60 151.88 124.37 Z M 152.88 124.14 L 153.90 123.90 C 154.85 123.68 155.44 122.73 155.22 121.78 C 155.00 120.83 154.05 120.23 153.09 120.46 L 152.08 120.69 C 151.13 120.91 150.54 121.86 150.76 122.82 C 150.98 123.77 151.93 124.36 152.88 124.14 Z M 153.89 123.90 L 154.89 123.67 C 155.84 123.46 156.44 122.51 156.22 121.56 C 156.00 120.61 155.06 120.01 154.10 120.23 L 153.10 120.46 C 152.15 120.67 151.56 121.62 151.77 122.57 C 151.99 123.52 152.93 124.12 153.89 123.90 Z M 154.87 123.68 L 155.90 123.45 C 156.85 123.24 157.45 122.30 157.24 121.35 C 157.04 120.40 156.10 119.79 155.14 120.00 L 154.12 120.23 C 153.17 120.44 152.56 121.38 152.77 122.33 C 152.98 123.28 153.92 123.88 154.87 123.68 Z M 155.88 123.45 L 156.88 123.24 C 157.83 123.04 158.44 122.11 158.24 121.15 C 158.04 120.20 157.11 119.59 156.15 119.79 L 155.16 120.00 C 154.21 120.20 153.60 121.14 153.80 122.09 C 154.00 123.04 154.93 123.65 155.88 123.45 Z M 156.87 123.24 L 157.84 123.04 C 158.79 122.84 159.40 121.92 159.21 120.97 C 159.01 120.01 158.09 119.40 157.14 119.60 L 156.16 119.80 C 155.21 119.99 154.60 120.92 154.80 121.87 C 154.99 122.82 155.92 123.43 156.87 123.24 Z M 157.83 123.04 L 158.79 122.84 C 159.74 122.65 160.35 121.73 160.16 120.78 C 159.97 119.83 159.05 119.22 158.10 119.41 L 157.14 119.60 C 156.19 119.79 155.58 120.72 155.77 121.66 C 155.96 122.61 156.89 123.23 157.83 123.04 Z M 158.79 122.84 L 159.74 122.65 C 160.69 122.46 161.30 121.53 161.11 120.59 C 160.92 119.64 160.00 119.03 159.05 119.22 L 158.10 119.41 C 157.15 119.60 156.54 120.52 156.73 121.47 C 156.92 122.42 157.84 123.03 158.79 122.84 Z M 159.75 122.64 L 160.98 122.39 C 161.92 122.20 162.53 121.28 162.33 120.33 C 162.14 119.39 161.22 118.78 160.28 118.98 L 159.05 119.23 C 158.11 119.42 157.50 120.34 157.69 121.28 C 157.88 122.22 158.81 122.83 159.75 122.64 Z M 160.99 122.37 L 162.20 122.12 C 163.13 121.92 163.73 120.99 163.53 120.06 C 163.33 119.13 162.41 118.53 161.47 118.73 L 160.26 118.99 C 159.33 119.19 158.73 120.11 158.93 121.04 C 159.13 121.98 160.06 122.58 160.99 122.37 Z M 162.24 122.10 L 163.16 121.87 C 164.09 121.65 164.65 120.72 164.43 119.80 C 164.21 118.88 163.28 118.31 162.36 118.53 L 161.43 118.75 C 160.51 118.97 159.94 119.90 160.16 120.82 C 160.38 121.75 161.31 122.32 162.24 122.10 Z M 163.31 121.82 L 163.79 121.65 C 164.69 121.35 165.16 120.38 164.86 119.49 C 164.56 118.59 163.59 118.12 162.69 118.42 L 162.21 118.59 C 161.32 118.89 160.84 119.86 161.15 120.75 C 161.45 121.64 162.42 122.12 163.31 121.82 Z M 163.61 118.44 L 163.21 118.34 C 162.32 118.14 161.44 118.69 161.24 119.57 C 161.03 120.45 161.58 121.34 162.47 121.54 L 162.87 121.63 C 163.76 121.84 164.64 121.29 164.84 120.41 C 165.05 119.52 164.50 118.64 163.61 118.44 Z M 162.80 118.41 L 161.51 118.45 C 160.67 118.47 160.00 119.17 160.02 120.01 C 160.04 120.85 160.74 121.52 161.59 121.50 L 162.87 121.47 C 163.72 121.45 164.38 120.75 164.36 119.90 C 164.34 119.06 163.64 118.39 162.80 118.41 Z M 161.49 118.51 L 161.25 118.52 C 160.44 118.55 159.81 119.23 159.85 120.04 C 159.88 120.85 160.56 121.47 161.36 121.44 L 161.61 121.43 C 162.41 121.40 163.04 120.72 163.01 119.91 C 162.98 119.11 162.30 118.48 161.49 118.51 Z"
      fill="black"
      fill-rule="nonzero" /><path d="M 113.51 152.42 L 113.79 153.38 C 114.02 154.20 114.87 154.68 115.69 154.45 C 116.52 154.22 117.00 153.36 116.76 152.54 L 116.49 151.58 C 116.26 150.75 115.41 150.28 114.58 150.51 C 113.76 150.74 113.28 151.59 113.51 152.42 Z M 113.79 153.38 L 114.06 154.34 C 114.29 155.16 115.14 155.64 115.97 155.41 C 116.79 155.18 117.27 154.32 117.03 153.50 L 116.76 152.54 C 116.53 151.72 115.68 151.24 114.85 151.47 C 114.03 151.70 113.55 152.56 113.79 153.38 Z M 114.06 154.34 L 114.33 155.30 C 114.56 156.13 115.42 156.61 116.24 156.37 C 117.06 156.14 117.54 155.29 117.31 154.46 L 117.03 153.50 C 116.80 152.68 115.95 152.20 115.13 152.43 C 114.30 152.66 113.83 153.52 114.06 154.34 Z M 114.33 155.30 L 114.60 156.27 C 114.83 157.09 115.69 157.57 116.51 157.34 C 117.33 157.10 117.81 156.25 117.58 155.43 L 117.31 154.46 C 117.07 153.64 116.22 153.16 115.40 153.40 C 114.58 153.63 114.10 154.48 114.33 155.30 Z M 114.60 156.27 L 114.87 157.23 C 115.10 158.05 115.96 158.53 116.78 158.30 C 117.60 158.07 118.08 157.21 117.85 156.39 L 117.58 155.43 C 117.35 154.60 116.49 154.13 115.67 154.36 C 114.85 154.59 114.37 155.44 114.60 156.27 Z M 114.87 157.23 L 114.97 157.58 C 115.20 158.40 116.06 158.88 116.88 158.65 C 117.70 158.41 118.18 157.56 117.95 156.74 L 117.85 156.39 C 117.62 155.57 116.76 155.09 115.94 155.32 C 115.12 155.55 114.64 156.41 114.87 157.23 Z"
      fill="black"
      fill-rule="nonzero" /><path d="M 122.50 144.20 L 121.21 143.77 C 120.41 143.51 119.55 143.94 119.28 144.74 C 119.02 145.54 119.45 146.40 120.25 146.67 L 121.53 147.10 C 122.33 147.36 123.20 146.93 123.46 146.13 C 123.73 145.33 123.30 144.46 122.50 144.20 Z M 121.37 143.82 L 120.58 143.46 C 119.81 143.11 118.90 143.45 118.54 144.22 C 118.19 144.99 118.53 145.90 119.30 146.26 L 120.09 146.62 C 120.87 146.97 121.78 146.63 122.13 145.86 C 122.48 145.09 122.14 144.18 121.37 143.82 Z M 121.25 145.67 L 121.40 145.44 C 121.84 144.72 121.62 143.77 120.89 143.32 C 120.17 142.87 119.22 143.10 118.77 143.82 L 118.63 144.05 C 118.18 144.77 118.41 145.72 119.13 146.17 C 119.86 146.62 120.81 146.40 121.25 145.67 Z M 120.26 146.17 L 121.21 146.06 C 122.06 145.96 122.67 145.19 122.57 144.34 C 122.47 143.50 121.71 142.89 120.86 142.99 L 119.91 143.10 C 119.06 143.19 118.45 143.96 118.55 144.81 C 118.65 145.66 119.41 146.26 120.26 146.17 Z M 121.09 146.07 L 122.42 146.02 C 123.28 146.00 123.95 145.28 123.92 144.43 C 123.89 143.57 123.18 142.90 122.32 142.93 L 120.99 142.98 C 120.13 143.00 119.46 143.72 119.49 144.57 C 119.52 145.43 120.23 146.10 121.09 146.07 Z M 122.39 146.02 L 123.40 146.01 C 124.25 146.00 124.93 145.30 124.92 144.45 C 124.91 143.60 124.22 142.92 123.36 142.93 L 122.36 142.94 C 121.50 142.95 120.82 143.65 120.83 144.50 C 120.84 145.35 121.54 146.03 122.39 146.02 Z M 123.37 145.99 L 124.37 146.00 C 125.21 146.01 125.90 145.33 125.91 144.49 C 125.91 143.64 125.24 142.96 124.39 142.95 L 123.40 142.94 C 122.55 142.93 121.86 143.61 121.86 144.45 C 121.85 145.30 122.53 145.99 123.37 145.99 Z M 124.32 145.99 L 125.32 146.02 C 126.15 146.05 126.85 145.40 126.88 144.57 C 126.92 143.73 126.26 143.03 125.43 143.00 L 124.44 142.96 C 123.60 142.93 122.90 143.58 122.87 144.42 C 122.84 145.25 123.49 145.95 124.32 145.99 Z M 125.26 146.01 L 126.23 146.08 C 127.06 146.14 127.78 145.52 127.84 144.70 C 127.90 143.87 127.28 143.15 126.46 143.09 L 125.49 143.02 C 124.66 142.95 123.94 143.57 123.88 144.40 C 123.82 145.23 124.43 145.95 125.26 146.01 Z M 126.17 146.07 L 127.12 146.18 C 127.94 146.28 128.69 145.70 128.79 144.88 C 128.88 144.06 128.30 143.32 127.48 143.22 L 126.52 143.10 C 125.70 143.00 124.96 143.59 124.86 144.41 C 124.76 145.23 125.35 145.97 126.17 146.07 Z M 127.05 146.17 L 128.03 146.34 C 128.84 146.48 129.61 145.93 129.75 145.12 C 129.89 144.31 129.35 143.54 128.54 143.40 L 127.55 143.23 C 126.74 143.09 125.97 143.64 125.84 144.45 C 125.70 145.26 126.24 146.03 127.05 146.17 Z M 127.96 146.32 L 128.97 146.55 C 129.77 146.73 130.57 146.23 130.75 145.43 C 130.94 144.63 130.43 143.84 129.64 143.65 L 128.62 143.42 C 127.82 143.24 127.02 143.74 126.84 144.54 C 126.66 145.34 127.16 146.13 127.96 146.32 Z M 128.90 146.53 L 129.89 146.81 C 130.67 147.04 131.49 146.58 131.72 145.79 C 131.94 145.01 131.49 144.19 130.70 143.96 L 129.71 143.68 C 128.93 143.45 128.11 143.91 127.88 144.69 C 127.65 145.48 128.11 146.30 128.90 146.53 Z M 129.81 146.78 L 130.78 147.12 C 131.55 147.39 132.40 146.99 132.67 146.21 C 132.94 145.44 132.53 144.60 131.76 144.33 L 130.78 143.99 C 130.01 143.72 129.17 144.13 128.90 144.90 C 128.63 145.67 129.04 146.51 129.81 146.78 Z M 130.69 147.09 L 131.63 147.48 C 132.38 147.80 133.24 147.45 133.56 146.70 C 133.88 145.95 133.53 145.08 132.78 144.76 L 131.85 144.37 C 131.10 144.05 130.23 144.40 129.91 145.15 C 129.59 145.90 129.94 146.77 130.69 147.09 Z M 131.51 147.43 L 132.36 147.88 C 133.08 148.26 133.97 147.99 134.36 147.27 C 134.74 146.55 134.47 145.66 133.75 145.27 L 132.90 144.82 C 132.18 144.44 131.29 144.71 130.90 145.43 C 130.52 146.15 130.79 147.04 131.51 147.43 Z M 132.19 147.77 L 133.03 148.38 C 133.69 148.85 134.62 148.70 135.09 148.04 C 135.57 147.38 135.42 146.46 134.76 145.98 L 133.91 145.38 C 133.25 144.90 132.33 145.05 131.86 145.71 C 131.38 146.37 131.53 147.30 132.19 147.77 Z M 132.81 148.18 L 133.48 148.91 C 134.04 149.51 134.97 149.55 135.57 148.99 C 136.17 148.44 136.21 147.51 135.65 146.91 L 134.98 146.18 C 134.42 145.58 133.49 145.54 132.89 146.10 C 132.29 146.65 132.26 147.58 132.81 148.18 Z M 133.28 148.63 L 133.74 149.46 C 134.13 150.17 135.03 150.43 135.75 150.04 C 136.46 149.64 136.72 148.74 136.32 148.03 L 135.86 147.19 C 135.46 146.48 134.57 146.22 133.85 146.62 C 133.14 147.01 132.88 147.91 133.28 148.63 Z M 133.60 149.14 L 133.86 150.06 C 134.08 150.85 134.90 151.31 135.69 151.09 C 136.47 150.87 136.94 150.06 136.72 149.27 L 136.46 148.35 C 136.24 147.56 135.42 147.10 134.63 147.32 C 133.84 147.54 133.38 148.35 133.60 149.14 Z M 133.80 149.76 L 133.86 150.74 C 133.91 151.56 134.63 152.19 135.45 152.13 C 136.27 152.08 136.90 151.37 136.84 150.54 L 136.78 149.57 C 136.72 148.74 136.01 148.12 135.19 148.17 C 134.36 148.23 133.74 148.94 133.80 149.76 Z M 133.85 150.44 L 133.72 151.44 C 133.60 152.27 134.18 153.03 135.01 153.14 C 135.84 153.26 136.60 152.68 136.71 151.85 L 136.85 150.85 C 136.96 150.02 136.38 149.26 135.56 149.14 C 134.73 149.03 133.97 149.61 133.85 150.44 Z M 133.78 151.12 L 133.43 152.08 C 133.14 152.87 133.55 153.75 134.34 154.04 C 135.13 154.33 136.01 153.92 136.30 153.13 L 136.65 152.17 C 136.94 151.38 136.53 150.50 135.74 150.21 C 134.95 149.92 134.07 150.33 133.78 151.12 Z M 133.56 151.79 L 133.07 152.59 C 132.62 153.31 132.84 154.25 133.56 154.70 C 134.28 155.15 135.23 154.93 135.67 154.21 L 136.17 153.42 C 136.62 152.70 136.40 151.75 135.68 151.30 C 134.96 150.85 134.01 151.07 133.56 151.79 Z M 133.20 152.39 L 132.56 153.14 C 132.01 153.79 132.08 154.76 132.73 155.32 C 133.37 155.87 134.35 155.79 134.90 155.15 L 135.54 154.40 C 136.10 153.75 136.02 152.78 135.37 152.23 C 134.73 151.67 133.75 151.75 133.20 152.39 Z M 132.67 153.02 L 131.92 153.73 C 131.30 154.31 131.27 155.29 131.86 155.92 C 132.44 156.54 133.42 156.57 134.04 155.98 L 134.79 155.27 C 135.42 154.68 135.44 153.70 134.86 153.08 C 134.27 152.46 133.29 152.43 132.67 153.02 Z M 131.99 153.65 L 131.18 154.32 C 130.52 154.87 130.43 155.85 130.97 156.51 C 131.52 157.17 132.50 157.27 133.16 156.72 L 133.97 156.05 C 134.63 155.51 134.73 154.53 134.18 153.86 C 133.63 153.20 132.65 153.11 131.99 153.65 Z M 131.23 154.27 L 130.45 154.86 C 129.76 155.39 129.62 156.37 130.15 157.06 C 130.67 157.75 131.65 157.88 132.34 157.36 L 133.12 156.77 C 133.81 156.24 133.94 155.26 133.42 154.57 C 132.90 153.88 131.92 153.75 131.23 154.27 Z M 130.48 154.82 L 129.67 155.40 C 128.96 155.90 128.79 156.89 129.29 157.60 C 129.80 158.31 130.78 158.48 131.49 157.98 L 132.30 157.40 C 133.02 156.90 133.18 155.91 132.68 155.20 C 132.18 154.49 131.19 154.32 130.48 154.82 Z M 129.70 155.36 L 128.86 155.92 C 128.13 156.41 127.93 157.40 128.41 158.13 C 128.90 158.86 129.89 159.06 130.62 158.57 L 131.46 158.01 C 132.19 157.53 132.39 156.54 131.90 155.81 C 131.42 155.08 130.43 154.88 129.70 155.36 Z M 128.89 155.89 L 128.02 156.43 C 127.27 156.90 127.05 157.89 127.52 158.64 C 127.99 159.39 128.98 159.62 129.73 159.15 L 130.59 158.61 C 131.34 158.14 131.57 157.15 131.10 156.40 C 130.63 155.64 129.64 155.42 128.89 155.89 Z M 128.05 156.40 L 127.19 156.91 C 126.42 157.36 126.17 158.35 126.63 159.12 C 127.08 159.89 128.07 160.14 128.84 159.69 L 129.70 159.18 C 130.47 158.72 130.72 157.73 130.27 156.96 C 129.81 156.20 128.82 155.94 128.05 156.40 Z M 127.22 156.88 L 126.35 157.36 C 125.57 157.80 125.29 158.79 125.73 159.58 C 126.16 160.36 127.15 160.64 127.94 160.20 L 128.81 159.72 C 129.59 159.28 129.87 158.29 129.44 157.51 C 129.00 156.72 128.01 156.44 127.22 156.88 Z M 126.39 157.33 L 125.50 157.79 C 124.70 158.21 124.39 159.20 124.81 160.00 C 125.22 160.80 126.21 161.11 127.01 160.70 L 127.90 160.24 C 128.70 159.82 129.01 158.83 128.60 158.03 C 128.18 157.23 127.19 156.91 126.39 157.33 Z M 125.55 157.76 L 124.64 158.19 C 123.82 158.59 123.48 159.57 123.87 160.39 C 124.26 161.21 125.25 161.56 126.07 161.16 L 126.97 160.73 C 127.79 160.34 128.14 159.35 127.74 158.53 C 127.35 157.71 126.37 157.37 125.55 157.76 Z M 124.69 158.16 L 123.76 158.56 C 122.93 158.93 122.54 159.91 122.91 160.75 C 123.28 161.58 124.25 161.97 125.09 161.60 L 126.02 161.20 C 126.86 160.83 127.24 159.85 126.87 159.02 C 126.51 158.18 125.53 157.79 124.69 158.16 Z M 123.82 158.53 L 122.87 158.90 C 122.01 159.24 121.59 160.21 121.92 161.06 C 122.26 161.92 123.23 162.34 124.08 162.01 L 125.04 161.63 C 125.89 161.30 126.31 160.33 125.98 159.47 C 125.64 158.62 124.68 158.20 123.82 158.53 Z M 122.93 158.87 L 121.97 159.20 C 121.10 159.51 120.63 160.46 120.93 161.33 C 121.24 162.21 122.19 162.67 123.06 162.37 L 124.02 162.04 C 124.90 161.74 125.36 160.78 125.06 159.91 C 124.76 159.03 123.80 158.57 122.93 158.87 Z M 122.04 159.17 L 121.08 159.46 C 120.19 159.72 119.69 160.66 119.95 161.55 C 120.22 162.44 121.15 162.95 122.04 162.68 L 123.00 162.40 C 123.89 162.13 124.39 161.20 124.13 160.31 C 123.86 159.42 122.93 158.91 122.04 159.17 Z M 121.16 159.43 L 120.22 159.66 C 119.32 159.88 118.76 160.80 118.98 161.70 C 119.20 162.61 120.12 163.16 121.03 162.94 L 121.97 162.71 C 122.87 162.49 123.43 161.58 123.21 160.67 C 122.98 159.76 122.07 159.21 121.16 159.43 Z M 120.34 159.63 L 119.12 159.84 C 118.20 160.00 117.58 160.87 117.74 161.79 C 117.90 162.72 118.77 163.34 119.70 163.18 L 120.91 162.97 C 121.83 162.81 122.45 161.94 122.30 161.01 C 122.14 160.09 121.26 159.47 120.34 159.63 Z M 119.36 159.81 L 118.29 159.84 C 117.35 159.87 116.62 160.66 116.65 161.59 C 116.67 162.53 117.46 163.27 118.39 163.24 L 119.46 163.20 C 120.40 163.18 121.14 162.39 121.11 161.46 C 121.08 160.52 120.30 159.78 119.36 159.81 Z M 118.85 159.92 L 118.12 159.69 C 117.23 159.41 116.28 159.91 116.00 160.81 C 115.71 161.70 116.21 162.65 117.11 162.93 L 117.83 163.16 C 118.73 163.44 119.68 162.94 119.96 162.05 C 120.24 161.15 119.75 160.20 118.85 159.92 Z M 119.19 160.69 L 118.95 160.07 C 118.60 159.20 117.62 158.78 116.75 159.12 C 115.88 159.47 115.45 160.45 115.80 161.32 L 116.04 161.94 C 116.39 162.81 117.37 163.23 118.24 162.89 C 119.11 162.54 119.54 161.56 119.19 160.69 Z M 118.98 161.20 L 119.27 160.28 C 119.54 159.39 119.05 158.44 118.16 158.17 C 117.27 157.89 116.33 158.39 116.05 159.27 L 115.77 160.20 C 115.49 161.08 115.99 162.03 116.87 162.30 C 117.76 162.58 118.70 162.08 118.98 161.20 Z M 119.06 160.68 L 119.70 159.70 C 120.20 158.93 119.98 157.89 119.21 157.39 C 118.43 156.89 117.40 157.11 116.90 157.88 L 116.26 158.87 C 115.76 159.64 115.98 160.67 116.75 161.17 C 117.52 161.68 118.56 161.46 119.06 160.68 Z M 119.50 159.91 L 120.18 159.18 C 120.80 158.51 120.76 157.47 120.10 156.85 C 119.43 156.23 118.39 156.27 117.77 156.94 L 117.09 157.67 C 116.47 158.34 116.51 159.38 117.18 160.00 C 117.85 160.61 118.89 160.58 119.50 159.91 Z M 120.02 159.29 L 120.77 158.66 C 121.45 158.08 121.54 157.07 120.96 156.38 C 120.39 155.70 119.37 155.62 118.69 156.19 L 117.94 156.82 C 117.26 157.40 117.17 158.42 117.74 159.10 C 118.32 159.78 119.34 159.87 120.02 159.29 Z M 120.66 158.71 L 121.48 158.11 C 122.18 157.60 122.34 156.61 121.83 155.91 C 121.32 155.20 120.33 155.04 119.62 155.55 L 118.80 156.14 C 118.10 156.65 117.94 157.64 118.45 158.35 C 118.96 159.06 119.95 159.22 120.66 158.71 Z M 121.42 158.11 L 122.25 157.55 C 122.96 157.07 123.14 156.10 122.66 155.39 C 122.18 154.69 121.21 154.50 120.50 154.99 L 119.67 155.55 C 118.97 156.03 118.78 157.00 119.27 157.71 C 119.75 158.42 120.72 158.60 121.42 158.11 Z M 122.22 157.55 L 123.05 157.00 C 123.76 156.53 123.95 155.58 123.48 154.87 C 123.01 154.17 122.06 153.97 121.36 154.44 L 120.53 154.99 C 119.82 155.46 119.63 156.41 120.10 157.12 C 120.57 157.82 121.52 158.01 122.22 157.55 Z M 123.01 157.00 L 123.87 156.46 C 124.58 156.02 124.79 155.08 124.34 154.37 C 123.89 153.66 122.96 153.45 122.25 153.90 L 121.40 154.44 C 120.69 154.88 120.48 155.82 120.92 156.53 C 121.37 157.24 122.30 157.45 123.01 157.00 Z M 123.82 156.47 L 124.69 155.96 C 125.40 155.55 125.64 154.63 125.23 153.91 C 124.81 153.20 123.89 152.96 123.18 153.38 L 122.30 153.89 C 121.59 154.30 121.35 155.22 121.76 155.94 C 122.18 156.65 123.10 156.89 123.82 156.47 Z M 124.62 155.98 L 125.52 155.51 C 126.24 155.13 126.52 154.23 126.14 153.51 C 125.76 152.78 124.86 152.50 124.14 152.89 L 123.24 153.36 C 122.52 153.74 122.24 154.64 122.62 155.36 C 123.00 156.09 123.90 156.36 124.62 155.98 Z M 125.45 155.53 L 126.36 155.10 C 127.09 154.76 127.41 153.88 127.06 153.14 C 126.72 152.41 125.84 152.10 125.11 152.44 L 124.20 152.87 C 123.47 153.21 123.15 154.09 123.50 154.83 C 123.84 155.56 124.72 155.87 125.45 155.53 Z M 126.30 155.11 L 127.22 154.73 C 127.96 154.41 128.30 153.56 127.99 152.82 C 127.68 152.08 126.82 151.73 126.08 152.04 L 125.17 152.43 C 124.42 152.74 124.08 153.60 124.39 154.34 C 124.70 155.08 125.56 155.43 126.30 155.11 Z M 127.16 154.73 L 128.09 154.38 C 128.84 154.10 129.21 153.26 128.93 152.51 C 128.64 151.77 127.81 151.40 127.06 151.68 L 126.13 152.03 C 125.39 152.32 125.01 153.15 125.30 153.90 C 125.58 154.64 126.42 155.02 127.16 154.73 Z M 128.05 154.39 L 128.99 154.06 C 129.74 153.80 130.14 152.98 129.88 152.23 C 129.62 151.48 128.80 151.08 128.05 151.34 L 127.10 151.67 C 126.35 151.93 125.96 152.75 126.22 153.50 C 126.48 154.25 127.30 154.65 128.05 154.39 Z M 128.96 154.06 L 129.91 153.76 C 130.67 153.51 131.08 152.70 130.84 151.95 C 130.59 151.20 129.78 150.78 129.03 151.03 L 128.08 151.34 C 127.33 151.58 126.91 152.39 127.16 153.14 C 127.40 153.90 128.21 154.31 128.96 154.06 Z M 129.90 153.76 L 130.85 153.46 C 131.61 153.23 132.03 152.42 131.79 151.67 C 131.56 150.92 130.76 150.50 130.00 150.73 L 129.05 151.03 C 128.29 151.26 127.87 152.06 128.11 152.82 C 128.34 153.57 129.14 153.99 129.90 153.76 Z M 130.85 153.46 L 131.17 153.36 C 131.92 153.13 132.34 152.33 132.11 151.58 C 131.88 150.82 131.08 150.40 130.33 150.63 L 130.01 150.73 C 129.25 150.96 128.83 151.76 129.06 152.51 C 129.29 153.27 130.09 153.69 130.85 153.46 Z"
      fill="black"
      fill-rule="nonzero" /><path d="M 102.04 183.47 L 101.08 183.47 C 100.20 183.48 99.48 184.19 99.49 185.07 C 99.49 185.96 100.20 186.67 101.08 186.67 L 102.04 186.67 C 102.92 186.67 103.64 185.95 103.64 185.07 C 103.63 184.19 102.92 183.47 102.04 183.47 Z M 101.07 183.46 L 100.08 183.47 C 99.19 183.48 98.48 184.21 98.49 185.10 C 98.50 185.98 99.22 186.70 100.11 186.69 L 101.10 186.68 C 101.99 186.67 102.70 185.94 102.69 185.06 C 102.68 184.17 101.96 183.45 101.07 183.46 Z M 100.06 183.46 L 99.02 183.49 C 98.12 183.51 97.41 184.25 97.44 185.15 C 97.46 186.04 98.20 186.75 99.10 186.73 L 100.14 186.70 C 101.03 186.68 101.74 185.94 101.72 185.04 C 101.70 184.15 100.95 183.44 100.06 183.46 Z M 98.99 183.47 L 97.69 183.52 C 96.78 183.56 96.08 184.32 96.12 185.22 C 96.15 186.12 96.91 186.83 97.81 186.79 L 99.12 186.74 C 100.02 186.71 100.73 185.95 100.69 185.04 C 100.66 184.14 99.90 183.44 98.99 183.47 Z M 97.77 183.50 L 96.73 183.49 C 95.81 183.48 95.06 184.21 95.05 185.12 C 95.04 186.03 95.77 186.79 96.68 186.80 L 97.73 186.81 C 98.64 186.82 99.39 186.09 99.41 185.18 C 99.42 184.26 98.69 183.51 97.77 183.50 Z M 97.84 183.91 L 97.63 183.72 C 96.95 183.10 95.89 183.14 95.27 183.82 C 94.64 184.50 94.69 185.56 95.37 186.18 L 95.57 186.37 C 96.25 187.00 97.31 186.95 97.94 186.27 C 98.56 185.59 98.52 184.54 97.84 183.91 Z M 97.35 186.40 L 97.87 186.10 C 98.67 185.63 98.94 184.60 98.46 183.80 C 97.99 183.00 96.96 182.73 96.16 183.20 L 95.65 183.50 C 94.85 183.98 94.58 185.01 95.05 185.81 C 95.52 186.61 96.55 186.87 97.35 186.40 Z M 97.70 186.19 L 98.66 185.76 C 99.51 185.38 99.89 184.39 99.51 183.54 C 99.13 182.69 98.14 182.31 97.29 182.69 L 96.33 183.11 C 95.48 183.49 95.10 184.48 95.48 185.33 C 95.85 186.18 96.85 186.56 97.70 186.19 Z M 98.63 185.77 L 99.86 185.25 C 100.71 184.89 101.11 183.90 100.75 183.04 C 100.38 182.19 99.39 181.79 98.54 182.15 L 97.31 182.68 C 96.46 183.04 96.06 184.03 96.43 184.88 C 96.79 185.74 97.78 186.14 98.63 185.77 Z M 99.88 185.24 L 100.97 184.76 C 101.82 184.38 102.20 183.38 101.82 182.53 C 101.44 181.68 100.45 181.30 99.60 181.68 L 98.51 182.17 C 97.66 182.54 97.28 183.54 97.66 184.39 C 98.04 185.24 99.03 185.62 99.88 185.24 Z M 101.00 184.74 L 101.95 184.29 C 102.79 183.90 103.15 182.90 102.75 182.06 C 102.35 181.21 101.35 180.86 100.51 181.25 L 99.57 181.70 C 98.73 182.09 98.37 183.10 98.76 183.94 C 99.16 184.78 100.16 185.14 101.00 184.74 Z M 101.97 184.28 L 102.90 183.83 C 103.73 183.42 104.07 182.41 103.66 181.58 C 103.25 180.74 102.25 180.40 101.41 180.81 L 100.49 181.26 C 99.65 181.67 99.31 182.68 99.72 183.51 C 100.13 184.35 101.14 184.69 101.97 184.28 Z M 102.91 183.82 L 103.81 183.36 C 104.63 182.94 104.96 181.93 104.54 181.11 C 104.13 180.28 103.12 179.95 102.29 180.37 L 101.40 180.82 C 100.57 181.24 100.24 182.25 100.66 183.08 C 101.08 183.90 102.09 184.23 102.91 183.82 Z M 103.82 183.36 L 104.66 182.92 C 105.48 182.49 105.80 181.48 105.37 180.66 C 104.95 179.84 103.94 179.52 103.11 179.94 L 102.28 180.38 C 101.45 180.80 101.13 181.81 101.56 182.64 C 101.98 183.46 103.00 183.78 103.82 183.36 Z M 104.66 182.91 L 105.58 182.43 C 106.39 182.00 106.71 180.99 106.28 180.17 C 105.85 179.35 104.83 179.04 104.02 179.47 L 103.11 179.95 C 102.29 180.38 101.97 181.39 102.40 182.21 C 102.83 183.03 103.85 183.34 104.66 182.91 Z M 105.58 182.42 L 106.50 181.93 C 107.31 181.50 107.62 180.49 107.18 179.68 C 106.75 178.86 105.74 178.56 104.93 178.99 L 104.01 179.48 C 103.20 179.91 102.89 180.93 103.32 181.74 C 103.76 182.55 104.77 182.86 105.58 182.42 Z M 106.50 181.92 L 107.35 181.47 C 108.16 181.03 108.46 180.02 108.02 179.21 C 107.58 178.40 106.57 178.11 105.76 178.54 L 104.92 179.00 C 104.11 179.44 103.81 180.45 104.25 181.26 C 104.69 182.06 105.70 182.36 106.50 181.92 Z M 107.35 181.46 L 108.17 181.00 C 108.98 180.56 109.27 179.56 108.83 178.76 C 108.39 177.95 107.38 177.66 106.58 178.10 L 105.76 178.55 C 104.96 178.99 104.67 180.00 105.11 180.80 C 105.55 181.60 106.55 181.90 107.35 181.46 Z M 108.18 181.00 L 109.01 180.54 C 109.80 180.09 110.09 179.09 109.65 178.29 C 109.21 177.50 108.20 177.21 107.41 177.65 L 106.58 178.11 C 105.78 178.55 105.49 179.56 105.93 180.35 C 106.38 181.15 107.38 181.44 108.18 181.00 Z M 109.01 180.53 L 109.86 180.05 C 110.65 179.60 110.94 178.60 110.49 177.81 C 110.05 177.02 109.05 176.74 108.26 177.18 L 107.40 177.66 C 106.61 178.10 106.33 179.11 106.77 179.90 C 107.22 180.69 108.22 180.97 109.01 180.53 Z M 109.87 180.04 L 110.75 179.54 C 111.54 179.09 111.81 178.09 111.36 177.30 C 110.92 176.52 109.92 176.24 109.13 176.69 L 108.25 177.19 C 107.46 177.64 107.19 178.64 107.64 179.42 C 108.08 180.21 109.08 180.48 109.87 180.04 Z M 110.76 179.52 L 111.67 179.00 C 112.44 178.55 112.71 177.55 112.26 176.77 C 111.81 175.99 110.81 175.73 110.03 176.18 L 109.12 176.70 C 108.34 177.15 108.08 178.15 108.53 178.93 C 108.98 179.71 109.98 179.98 110.76 179.52 Z M 111.67 178.99 L 112.52 178.49 C 113.29 178.03 113.55 177.04 113.09 176.26 C 112.64 175.49 111.64 175.23 110.87 175.69 L 110.02 176.19 C 109.25 176.65 108.99 177.64 109.45 178.41 C 109.91 179.18 110.90 179.44 111.67 178.99 Z M 112.52 178.47 L 113.39 177.96 C 114.15 177.50 114.40 176.51 113.94 175.75 C 113.49 174.98 112.50 174.73 111.73 175.19 L 110.87 175.70 C 110.10 176.16 109.85 177.15 110.31 177.91 C 110.77 178.68 111.76 178.93 112.52 178.47 Z M 113.38 177.95 L 114.25 177.43 C 115.01 176.98 115.26 175.99 114.80 175.23 C 114.35 174.47 113.36 174.22 112.60 174.68 L 111.73 175.20 C 110.97 175.65 110.72 176.64 111.18 177.40 C 111.64 178.16 112.62 178.41 113.38 177.95 Z M 114.24 177.43 L 115.10 176.91 C 115.86 176.46 116.11 175.48 115.66 174.72 C 115.21 173.97 114.23 173.72 113.47 174.17 L 112.61 174.68 C 111.85 175.14 111.60 176.12 112.05 176.87 C 112.50 177.63 113.48 177.88 114.24 177.43 Z M 115.09 176.91 L 115.97 176.39 C 116.72 175.95 116.97 174.97 116.52 174.22 C 116.08 173.46 115.11 173.21 114.35 173.66 L 113.48 174.17 C 112.72 174.62 112.47 175.59 112.92 176.35 C 113.37 177.10 114.34 177.35 115.09 176.91 Z M 115.96 176.39 L 116.82 175.88 C 117.57 175.44 117.82 174.47 117.38 173.72 C 116.94 172.97 115.97 172.72 115.22 173.16 L 114.36 173.67 C 113.61 174.11 113.36 175.08 113.80 175.83 C 114.24 176.58 115.21 176.83 115.96 176.39 Z M 116.82 175.87 L 117.67 175.36 C 118.42 174.92 118.66 173.96 118.22 173.21 C 117.78 172.47 116.82 172.22 116.08 172.66 L 115.22 173.17 C 114.48 173.61 114.23 174.57 114.67 175.32 C 115.12 176.06 116.08 176.31 116.82 175.87 Z M 117.68 175.34 L 118.53 174.83 C 119.26 174.39 119.50 173.43 119.06 172.70 C 118.61 171.96 117.66 171.72 116.92 172.17 L 116.07 172.68 C 115.34 173.12 115.10 174.08 115.54 174.82 C 115.99 175.55 116.94 175.79 117.68 175.34 Z M 118.54 174.81 L 119.38 174.29 C 120.11 173.84 120.33 172.89 119.88 172.16 C 119.43 171.44 118.48 171.22 117.75 171.66 L 116.91 172.19 C 116.19 172.64 115.96 173.59 116.41 174.31 C 116.86 175.04 117.81 175.26 118.54 174.81 Z M 119.39 174.27 L 120.23 173.74 C 120.94 173.29 121.16 172.34 120.70 171.62 C 120.25 170.91 119.30 170.69 118.58 171.15 L 117.74 171.68 C 117.03 172.14 116.82 173.08 117.27 173.80 C 117.72 174.52 118.67 174.73 119.39 174.27 Z M 120.23 173.73 L 121.07 173.19 C 121.78 172.73 121.99 171.79 121.53 171.08 C 121.08 170.37 120.13 170.16 119.42 170.62 L 118.58 171.16 C 117.87 171.62 117.67 172.56 118.12 173.27 C 118.58 173.98 119.52 174.19 120.23 173.73 Z M 121.07 173.18 L 121.92 172.63 C 122.62 172.18 122.83 171.24 122.37 170.54 C 121.92 169.83 120.98 169.63 120.28 170.08 L 119.43 170.63 C 118.72 171.08 118.52 172.02 118.97 172.73 C 119.43 173.43 120.37 173.63 121.07 173.18 Z M 121.91 172.63 L 122.75 172.09 C 123.45 171.64 123.66 170.71 123.21 170.01 C 122.76 169.31 121.83 169.10 121.12 169.55 L 120.28 170.09 C 119.58 170.54 119.38 171.47 119.83 172.17 C 120.28 172.87 121.21 173.08 121.91 172.63 Z M 122.74 172.08 L 123.58 171.55 C 124.28 171.10 124.49 170.18 124.04 169.48 C 123.60 168.78 122.67 168.57 121.97 169.02 L 121.13 169.55 C 120.43 170.00 120.23 170.93 120.67 171.63 C 121.12 172.32 122.05 172.53 122.74 172.08 Z M 123.58 171.54 L 124.42 171.00 C 125.12 170.56 125.32 169.64 124.88 168.94 C 124.44 168.25 123.51 168.05 122.82 168.49 L 121.98 169.03 C 121.28 169.47 121.08 170.39 121.52 171.09 C 121.96 171.78 122.88 171.98 123.58 171.54 Z M 124.42 171.00 L 125.27 170.45 C 125.96 170.01 126.16 169.09 125.72 168.40 C 125.27 167.71 124.36 167.51 123.67 167.95 L 122.82 168.50 C 122.13 168.94 121.93 169.86 122.37 170.55 C 122.81 171.24 123.73 171.44 124.42 171.00 Z M 125.27 170.44 L 126.11 169.90 C 126.79 169.46 126.99 168.54 126.55 167.86 C 126.10 167.17 125.19 166.98 124.50 167.42 L 123.67 167.97 C 122.98 168.41 122.79 169.32 123.23 170.01 C 123.67 170.69 124.59 170.89 125.27 170.44 Z M 126.11 169.89 L 126.94 169.34 C 127.62 168.90 127.81 167.99 127.37 167.31 C 126.92 166.63 126.01 166.44 125.33 166.89 L 124.50 167.43 C 123.82 167.88 123.63 168.79 124.08 169.46 C 124.52 170.14 125.43 170.33 126.11 169.89 Z M 126.94 169.34 L 127.78 168.79 C 128.45 168.34 128.64 167.44 128.19 166.76 C 127.75 166.09 126.84 165.90 126.17 166.34 L 125.33 166.89 C 124.66 167.34 124.47 168.24 124.92 168.92 C 125.36 169.59 126.27 169.78 126.94 169.34 Z M 127.77 168.78 L 128.61 168.23 C 129.28 167.79 129.47 166.88 129.03 166.21 C 128.58 165.54 127.68 165.36 127.01 165.80 L 126.17 166.35 C 125.50 166.79 125.32 167.70 125.76 168.37 C 126.20 169.04 127.10 169.22 127.77 168.78 Z M 128.61 168.23 L 129.45 167.67 C 130.11 167.24 130.30 166.34 129.86 165.67 C 129.42 165.00 128.52 164.81 127.86 165.25 L 127.02 165.80 C 126.35 166.24 126.16 167.14 126.60 167.81 C 127.04 168.48 127.94 168.66 128.61 168.23 Z M 129.44 167.67 L 130.26 167.14 C 130.93 166.70 131.12 165.81 130.68 165.14 C 130.25 164.47 129.35 164.28 128.68 164.72 L 127.86 165.25 C 127.19 165.69 127.01 166.58 127.44 167.25 C 127.88 167.92 128.77 168.11 129.44 167.67 Z M 130.26 167.13 L 131.09 166.59 C 131.75 166.16 131.94 165.27 131.51 164.60 C 131.07 163.93 130.18 163.75 129.51 164.18 L 128.68 164.72 C 128.02 165.16 127.83 166.05 128.26 166.71 C 128.70 167.38 129.59 167.57 130.26 167.13 Z M 131.09 166.59 L 131.93 166.04 C 132.59 165.60 132.78 164.71 132.34 164.05 C 131.91 163.39 131.02 163.20 130.35 163.64 L 129.51 164.19 C 128.85 164.62 128.66 165.51 129.10 166.17 C 129.53 166.84 130.42 167.02 131.09 166.59 Z M 131.93 166.03 L 132.78 165.47 C 133.44 165.03 133.62 164.14 133.18 163.48 C 132.75 162.82 131.86 162.64 131.20 163.08 L 130.35 163.64 C 129.69 164.08 129.51 164.97 129.95 165.63 C 130.38 166.29 131.27 166.47 131.93 166.03 Z M 132.79 165.46 L 133.63 164.89 C 134.28 164.45 134.46 163.56 134.02 162.91 C 133.57 162.25 132.69 162.08 132.03 162.52 L 131.19 163.09 C 130.54 163.53 130.36 164.42 130.81 165.07 C 131.25 165.73 132.14 165.90 132.79 165.46 Z M 133.64 164.88 L 134.48 164.31 C 135.13 163.86 135.29 162.97 134.84 162.32 C 134.40 161.67 133.51 161.51 132.86 161.95 L 132.02 162.53 C 131.37 162.97 131.21 163.86 131.65 164.51 C 132.10 165.16 132.99 165.33 133.64 164.88 Z M 134.48 164.30 L 135.31 163.72 C 135.96 163.27 136.12 162.38 135.67 161.74 C 135.22 161.09 134.33 160.93 133.68 161.38 L 132.85 161.96 C 132.20 162.41 132.05 163.30 132.50 163.95 C 132.95 164.59 133.84 164.75 134.48 164.30 Z M 135.32 163.72 L 136.14 163.14 C 136.78 162.69 136.93 161.80 136.48 161.15 C 136.02 160.51 135.13 160.36 134.49 160.81 L 133.67 161.39 C 133.03 161.84 132.88 162.73 133.33 163.38 C 133.79 164.02 134.68 164.17 135.32 163.72 Z M 136.14 163.14 L 136.94 162.57 C 137.58 162.11 137.72 161.21 137.26 160.58 C 136.80 159.94 135.91 159.79 135.27 160.25 L 134.48 160.82 C 133.84 161.28 133.69 162.17 134.15 162.81 C 134.61 163.45 135.50 163.59 136.14 163.14 Z M 136.95 162.56 L 137.79 161.94 C 138.42 161.48 138.56 160.59 138.10 159.95 C 137.64 159.32 136.75 159.18 136.11 159.64 L 135.27 160.25 C 134.63 160.72 134.49 161.61 134.95 162.25 C 135.42 162.88 136.31 163.02 136.95 162.56 Z M 137.80 161.94 L 138.60 161.34 C 139.24 160.87 139.37 159.98 138.90 159.35 C 138.44 158.71 137.54 158.58 136.91 159.05 L 136.10 159.65 C 135.47 160.11 135.33 161.01 135.80 161.64 C 136.27 162.27 137.16 162.41 137.80 161.94 Z M 138.61 161.34 L 139.40 160.75 C 140.03 160.28 140.16 159.39 139.69 158.76 C 139.22 158.13 138.32 158.00 137.69 158.47 L 136.91 159.05 C 136.27 159.52 136.14 160.42 136.61 161.05 C 137.09 161.68 137.98 161.81 138.61 161.34 Z M 139.40 160.75 L 140.17 160.17 C 140.80 159.70 140.93 158.80 140.46 158.17 C 139.99 157.54 139.09 157.42 138.46 157.89 L 137.69 158.47 C 137.06 158.94 136.93 159.83 137.40 160.46 C 137.87 161.09 138.77 161.22 139.40 160.75 Z"
      fill="black"
      fill-rule="nonzero" /><path d="M 147.55 102.16 L 146.82 102.83 C 146.19 103.41 146.14 104.40 146.73 105.04 C 147.31 105.67 148.30 105.71 148.94 105.13 L 149.66 104.47 C 150.30 103.88 150.34 102.89 149.76 102.26 C 149.17 101.62 148.18 101.58 147.55 102.16 Z M 146.75 102.88 L 146.06 103.59 C 145.46 104.22 145.47 105.22 146.10 105.82 C 146.73 106.43 147.73 106.41 148.33 105.78 L 149.02 105.07 C 149.62 104.45 149.61 103.45 148.98 102.84 C 148.35 102.24 147.35 102.25 146.75 102.88 Z M 145.93 103.72 L 145.32 104.52 C 144.79 105.22 144.93 106.22 145.63 106.75 C 146.33 107.28 147.33 107.15 147.86 106.45 L 148.46 105.65 C 149.00 104.95 148.86 103.95 148.16 103.42 C 147.46 102.89 146.46 103.02 145.93 103.72 Z M 145.17 104.73 L 144.70 105.61 C 144.28 106.39 144.58 107.37 145.36 107.78 C 146.15 108.20 147.12 107.91 147.54 107.12 L 148.01 106.24 C 148.43 105.46 148.13 104.48 147.35 104.07 C 146.56 103.65 145.59 103.94 145.17 104.73 Z M 144.59 105.82 L 144.26 106.74 C 143.96 107.58 144.40 108.51 145.25 108.81 C 146.09 109.11 147.02 108.67 147.32 107.83 L 147.65 106.91 C 147.95 106.07 147.51 105.14 146.67 104.84 C 145.82 104.53 144.89 104.97 144.59 105.82 Z M 144.20 106.89 L 143.96 107.87 C 143.74 108.75 144.28 109.65 145.16 109.86 C 146.04 110.08 146.93 109.54 147.15 108.66 L 147.39 107.68 C 147.61 106.79 147.07 105.90 146.19 105.69 C 145.31 105.47 144.42 106.01 144.20 106.89 Z M 143.91 107.98 L 143.74 108.99 C 143.58 109.90 144.19 110.76 145.09 110.92 C 146.00 111.07 146.86 110.47 147.01 109.56 L 147.19 108.55 C 147.35 107.65 146.74 106.79 145.83 106.63 C 144.93 106.47 144.07 107.08 143.91 107.98 Z M 143.71 109.07 L 143.58 110.07 C 143.47 110.99 144.12 111.83 145.05 111.95 C 145.97 112.06 146.81 111.41 146.92 110.49 L 147.04 109.48 C 147.16 108.56 146.50 107.72 145.58 107.61 C 144.66 107.50 143.82 108.15 143.71 109.07 Z M 143.56 110.13 L 143.48 111.12 C 143.39 112.05 144.08 112.87 145.01 112.96 C 145.95 113.04 146.77 112.35 146.85 111.42 L 146.94 110.43 C 147.02 109.50 146.33 108.68 145.40 108.59 C 144.47 108.51 143.65 109.20 143.56 110.13 Z M 143.46 111.17 L 143.41 112.15 C 143.35 113.08 144.07 113.89 145.01 113.95 C 145.95 114.00 146.75 113.28 146.81 112.34 L 146.86 111.37 C 146.92 110.43 146.20 109.62 145.26 109.57 C 144.32 109.51 143.52 110.23 143.46 111.17 Z M 143.39 112.19 L 143.36 113.18 C 143.33 114.13 144.07 114.92 145.01 114.95 C 145.96 114.98 146.75 114.24 146.79 113.30 L 146.82 112.30 C 146.85 111.36 146.11 110.56 145.17 110.53 C 144.22 110.50 143.43 111.24 143.39 112.19 Z M 143.35 113.21 L 143.33 114.22 C 143.31 115.17 144.07 115.96 145.02 115.97 C 145.97 115.99 146.76 115.23 146.78 114.28 L 146.80 113.27 C 146.81 112.32 146.06 111.53 145.11 111.52 C 144.15 111.50 143.37 112.25 143.35 113.21 Z M 143.32 114.23 L 143.31 115.15 C 143.30 116.10 144.07 116.89 145.02 116.90 C 145.98 116.91 146.76 116.14 146.78 115.19 L 146.79 114.27 C 146.80 113.31 146.03 112.53 145.07 112.52 C 144.12 112.51 143.33 113.27 143.32 114.23 Z M 143.30 115.16 L 143.30 116.12 C 143.29 117.08 144.07 117.86 145.03 117.87 C 145.99 117.88 146.77 117.10 146.78 116.14 L 146.78 115.18 C 146.79 114.22 146.01 113.43 145.05 113.43 C 144.09 113.42 143.31 114.19 143.30 115.16 Z M 143.29 116.13 L 143.29 117.14 C 143.28 118.10 144.06 118.89 145.03 118.89 C 145.99 118.89 146.78 118.11 146.78 117.15 L 146.78 116.14 C 146.79 115.17 146.01 114.39 145.04 114.38 C 144.08 114.38 143.29 115.16 143.29 116.13 Z M 143.28 117.14 L 143.28 118.20 C 143.28 119.17 144.06 119.96 145.03 119.96 C 146.00 119.96 146.79 119.17 146.79 118.20 L 146.79 117.14 C 146.79 116.18 146.01 115.39 145.04 115.39 C 144.07 115.39 143.28 116.17 143.28 117.14 Z M 143.27 118.20 L 143.27 119.25 C 143.27 120.22 144.06 121.01 145.03 121.01 C 146.01 121.01 146.80 120.22 146.80 119.25 L 146.80 118.20 C 146.80 117.23 146.01 116.44 145.03 116.44 C 144.06 116.44 143.27 117.23 143.27 118.20 Z M 143.26 119.25 L 143.27 120.19 C 143.27 121.17 144.06 121.96 145.04 121.96 C 146.01 121.96 146.80 121.17 146.80 120.19 L 146.80 119.25 C 146.80 118.27 146.01 117.48 145.03 117.48 C 144.05 117.48 143.26 118.27 143.26 119.25 Z M 143.26 120.20 L 143.27 121.17 C 143.27 122.15 144.07 122.94 145.05 122.94 C 146.03 122.93 146.82 122.13 146.81 121.16 L 146.81 120.18 C 146.80 119.20 146.00 118.41 145.02 118.42 C 144.05 118.42 143.26 119.22 143.26 120.20 Z M 143.26 121.19 L 143.27 122.19 C 143.29 123.17 144.09 123.96 145.08 123.94 C 146.06 123.93 146.84 123.12 146.83 122.14 L 146.82 121.14 C 146.81 120.16 146.00 119.37 145.02 119.39 C 144.03 119.40 143.25 120.21 143.26 121.19 Z M 143.27 122.20 L 143.29 123.23 C 143.31 124.21 144.13 124.99 145.12 124.97 C 146.10 124.95 146.88 124.13 146.86 123.15 L 146.84 122.12 C 146.81 121.14 146.00 120.36 145.01 120.38 C 144.03 120.40 143.25 121.22 143.27 122.20 Z M 143.29 123.25 L 143.32 124.30 C 143.36 125.28 144.19 126.06 145.18 126.02 C 146.17 125.99 146.94 125.16 146.90 124.17 L 146.87 123.12 C 146.83 122.13 146.00 121.36 145.01 121.40 C 144.02 121.43 143.25 122.26 143.29 123.25 Z M 143.32 124.32 L 143.37 125.33 C 143.42 126.33 144.27 127.09 145.26 127.04 C 146.25 126.99 147.01 126.14 146.96 125.15 L 146.91 124.14 C 146.86 123.15 146.01 122.39 145.02 122.44 C 144.03 122.49 143.27 123.33 143.32 124.32 Z M 143.37 125.36 L 143.43 126.32 C 143.50 127.31 144.35 128.06 145.35 127.99 C 146.34 127.93 147.09 127.07 147.02 126.08 L 146.96 125.13 C 146.90 124.13 146.04 123.38 145.05 123.45 C 144.05 123.51 143.30 124.37 143.37 125.36 Z M 143.43 126.34 L 143.51 127.31 C 143.59 128.30 144.46 129.04 145.45 128.96 C 146.44 128.88 147.18 128.01 147.10 127.02 L 147.03 126.05 C 146.95 125.06 146.08 124.32 145.08 124.40 C 144.09 124.48 143.35 125.35 143.43 126.34 Z M 143.51 127.33 L 143.60 128.32 C 143.69 129.31 144.57 130.04 145.57 129.95 C 146.56 129.86 147.29 128.98 147.20 127.98 L 147.11 127.00 C 147.01 126.00 146.13 125.27 145.14 125.37 C 144.14 125.46 143.41 126.34 143.51 127.33 Z M 143.60 128.34 L 143.70 129.35 C 143.81 130.34 144.70 131.06 145.70 130.95 C 146.69 130.85 147.41 129.96 147.31 128.96 L 147.20 127.96 C 147.09 126.96 146.20 126.24 145.21 126.35 C 144.21 126.46 143.49 127.35 143.60 128.34 Z M 143.70 129.37 L 143.83 130.39 C 143.94 131.39 144.85 132.10 145.84 131.98 C 146.84 131.86 147.55 130.96 147.43 129.96 L 147.31 128.94 C 147.19 127.94 146.29 127.23 145.29 127.35 C 144.30 127.47 143.58 128.37 143.70 129.37 Z M 143.82 130.41 L 143.96 131.45 C 144.09 132.45 145.01 133.15 146.00 133.02 C 147.00 132.89 147.70 131.98 147.57 130.98 L 147.43 129.94 C 147.30 128.94 146.39 128.24 145.39 128.37 C 144.40 128.50 143.69 129.42 143.82 130.41 Z M 143.96 131.47 L 144.10 132.46 C 144.24 133.46 145.17 134.15 146.16 134.01 C 147.16 133.87 147.85 132.95 147.71 131.95 L 147.57 130.96 C 147.43 129.97 146.50 129.27 145.51 129.41 C 144.51 129.56 143.82 130.48 143.96 131.47 Z M 144.10 132.48 L 144.25 133.46 C 144.40 134.46 145.33 135.14 146.33 134.99 C 147.32 134.84 148.01 133.91 147.86 132.91 L 147.71 131.93 C 147.56 130.94 146.63 130.25 145.63 130.40 C 144.63 130.55 143.95 131.48 144.10 132.48 Z M 144.25 133.47 L 144.40 134.46 C 144.56 135.46 145.50 136.14 146.50 135.98 C 147.50 135.82 148.18 134.88 148.02 133.88 L 147.86 132.90 C 147.70 131.90 146.76 131.22 145.76 131.38 C 144.77 131.54 144.09 132.48 144.25 133.47 Z M 144.40 134.47 L 144.57 135.47 C 144.73 136.46 145.68 137.14 146.68 136.97 C 147.67 136.81 148.35 135.86 148.18 134.87 L 148.02 133.87 C 147.85 132.87 146.91 132.20 145.91 132.36 C 144.91 132.53 144.24 133.47 144.40 134.47 Z M 144.56 135.48 L 144.74 136.47 C 144.91 137.47 145.86 138.14 146.86 137.97 C 147.86 137.80 148.53 136.85 148.36 135.85 L 148.19 134.85 C 148.01 133.86 147.06 133.18 146.06 133.36 C 145.06 133.53 144.39 134.48 144.56 135.48 Z M 144.73 136.48 L 144.91 137.48 C 145.09 138.48 146.04 139.14 147.04 138.97 C 148.04 138.79 148.71 137.84 148.53 136.84 L 148.36 135.84 C 148.18 134.84 147.23 134.17 146.23 134.35 C 145.23 134.53 144.56 135.48 144.73 136.48 Z M 144.91 137.48 L 145.08 138.47 C 145.27 139.47 146.22 140.14 147.23 139.96 C 148.23 139.78 148.90 138.82 148.71 137.82 L 148.54 136.83 C 148.36 135.83 147.40 135.16 146.39 135.34 C 145.39 135.52 144.73 136.48 144.91 137.48 Z M 145.08 138.48 L 145.26 139.47 C 145.45 140.47 146.41 141.14 147.41 140.95 C 148.42 140.77 149.08 139.81 148.90 138.80 L 148.72 137.81 C 148.53 136.81 147.57 136.14 146.57 136.33 C 145.56 136.51 144.90 137.47 145.08 138.48 Z M 145.26 139.47 L 145.45 140.48 C 145.63 141.48 146.60 142.15 147.61 141.96 C 148.61 141.78 149.28 140.81 149.09 139.80 L 148.90 138.80 C 148.72 137.79 147.75 137.13 146.74 137.32 C 145.74 137.50 145.07 138.47 145.26 139.47 Z M 145.45 140.49 L 145.63 141.48 C 145.82 142.49 146.79 143.15 147.80 142.96 C 148.81 142.77 149.47 141.80 149.28 140.79 L 149.09 139.80 C 148.90 138.79 147.93 138.13 146.92 138.32 C 145.92 138.51 145.26 139.48 145.45 140.49 Z M 145.63 141.49 L 145.82 142.47 C 146.01 143.48 146.99 144.14 148.00 143.94 C 149.00 143.75 149.66 142.78 149.47 141.77 L 149.28 140.78 C 149.09 139.78 148.11 139.12 147.10 139.31 C 146.10 139.50 145.44 140.48 145.63 141.49 Z M 145.82 142.48 L 146.01 143.45 C 146.21 144.46 147.19 145.12 148.20 144.92 C 149.21 144.72 149.86 143.75 149.66 142.74 L 149.47 141.76 C 149.27 140.75 148.30 140.09 147.29 140.29 C 146.28 140.49 145.62 141.47 145.82 142.48 Z M 146.01 143.46 L 146.20 144.43 C 146.41 145.44 147.39 146.10 148.40 145.89 C 149.41 145.69 150.06 144.71 149.86 143.70 L 149.67 142.73 C 149.46 141.72 148.48 141.06 147.47 141.27 C 146.46 141.47 145.80 142.45 146.01 143.46 Z M 146.20 144.44 L 146.40 145.41 C 146.61 146.42 147.60 147.07 148.61 146.86 C 149.62 146.65 150.27 145.66 150.06 144.65 L 149.86 143.69 C 149.65 142.68 148.67 142.03 147.65 142.23 C 146.64 142.44 145.99 143.43 146.20 144.44 Z M 146.40 145.42 L 146.60 146.38 C 146.82 147.40 147.81 148.04 148.82 147.83 C 149.84 147.61 150.48 146.62 150.27 145.61 L 150.06 144.64 C 149.85 143.63 148.85 142.98 147.84 143.20 C 146.83 143.41 146.18 144.41 146.40 145.42 Z M 146.60 146.39 L 146.82 147.38 C 147.04 148.39 148.04 149.03 149.05 148.81 C 150.06 148.59 150.70 147.59 150.48 146.58 L 150.27 145.60 C 150.05 144.58 149.05 143.94 148.04 144.16 C 147.02 144.38 146.38 145.38 146.60 146.39 Z M 146.82 147.39 L 147.04 148.37 C 147.26 149.38 148.27 150.01 149.28 149.79 C 150.29 149.56 150.93 148.56 150.70 147.55 L 150.48 146.57 C 150.26 145.55 149.25 144.92 148.24 145.14 C 147.23 145.37 146.59 146.37 146.82 147.39 Z M 147.04 148.38 L 147.26 149.35 C 147.49 150.36 148.50 151.00 149.51 150.76 C 150.52 150.53 151.16 149.52 150.93 148.51 L 150.70 147.54 C 150.47 146.52 149.46 145.89 148.45 146.12 C 147.44 146.35 146.80 147.36 147.04 148.38 Z M 147.26 149.36 L 147.49 150.33 C 147.72 151.35 148.74 151.97 149.75 151.74 C 150.76 151.50 151.39 150.49 151.15 149.48 L 150.93 148.50 C 150.69 147.49 149.68 146.86 148.66 147.10 C 147.65 147.34 147.02 148.35 147.26 149.36 Z M 147.49 150.34 L 147.72 151.31 C 147.96 152.33 148.98 152.95 149.99 152.71 C 151.00 152.47 151.63 151.45 151.39 150.44 L 151.15 149.47 C 150.91 148.45 149.90 147.83 148.88 148.07 C 147.87 148.31 147.25 149.33 147.49 150.34 Z M 147.72 151.32 L 147.95 152.29 C 148.20 153.30 149.22 153.92 150.23 153.68 C 151.25 153.43 151.87 152.41 151.62 151.40 L 151.39 150.43 C 151.14 149.42 150.12 148.79 149.11 149.04 C 148.09 149.29 147.47 150.31 147.72 151.32 Z M 147.95 152.30 L 148.19 153.26 C 148.44 154.28 149.47 154.90 150.48 154.65 C 151.49 154.40 152.11 153.37 151.86 152.36 L 151.62 151.39 C 151.37 150.38 150.35 149.76 149.33 150.01 C 148.32 150.26 147.70 151.28 147.95 152.30 Z M 148.19 153.27 L 148.44 154.25 C 148.69 155.26 149.72 155.88 150.73 155.62 C 151.74 155.37 152.36 154.34 152.11 153.33 L 151.86 152.35 C 151.61 151.34 150.58 150.72 149.57 150.98 C 148.55 151.23 147.94 152.26 148.19 153.27 Z M 148.44 154.25 L 148.68 155.23 C 148.94 156.24 149.97 156.85 150.99 156.59 C 152.00 156.33 152.61 155.30 152.35 154.29 L 152.11 153.32 C 151.85 152.30 150.82 151.69 149.80 151.95 C 148.79 152.21 148.18 153.24 148.44 154.25 Z M 148.68 155.23 L 148.93 156.20 C 149.20 157.22 150.23 157.82 151.25 157.56 C 152.26 157.30 152.87 156.26 152.61 155.25 L 152.35 154.28 C 152.09 153.27 151.06 152.66 150.04 152.92 C 149.03 153.19 148.42 154.22 148.68 155.23 Z M 148.93 156.21 L 149.19 157.18 C 149.46 158.19 150.50 158.80 151.51 158.53 C 152.52 158.26 153.13 157.22 152.86 156.21 L 152.61 155.24 C 152.34 154.23 151.30 153.62 150.28 153.89 C 149.27 154.16 148.67 155.20 148.93 156.21 Z M 149.19 157.19 L 149.45 158.15 C 149.72 159.16 150.77 159.76 151.78 159.49 C 152.79 159.22 153.39 158.17 153.12 157.16 L 152.86 156.20 C 152.59 155.18 151.54 154.58 150.53 154.86 C 149.52 155.13 148.92 156.17 149.19 157.19 Z M 149.45 158.16 L 149.72 159.12 C 150.00 160.13 151.04 160.73 152.06 160.45 C 153.07 160.17 153.66 159.12 153.38 158.11 L 153.12 157.15 C 152.84 156.14 151.79 155.54 150.78 155.82 C 149.77 156.10 149.17 157.15 149.45 158.16 Z M 149.72 159.13 L 149.99 160.10 C 150.28 161.11 151.33 161.70 152.34 161.41 C 153.35 161.12 153.94 160.07 153.66 159.06 L 153.38 158.10 C 153.10 157.09 152.04 156.50 151.03 156.78 C 150.02 157.07 149.43 158.12 149.72 159.13 Z M 149.99 160.11 L 150.27 161.07 C 150.56 162.08 151.62 162.66 152.63 162.37 C 153.64 162.08 154.22 161.02 153.93 160.01 L 153.65 159.05 C 153.36 158.04 152.30 157.45 151.29 157.75 C 150.28 158.04 149.70 159.10 149.99 160.11 Z M 150.27 161.08 L 150.56 162.04 C 150.86 163.05 151.92 163.63 152.93 163.33 C 153.94 163.03 154.51 161.97 154.21 160.96 L 153.93 160.00 C 153.63 158.99 152.57 158.41 151.56 158.71 C 150.55 159.01 149.97 160.07 150.27 161.08 Z M 150.56 162.05 L 150.85 163.01 C 151.16 164.02 152.22 164.59 153.23 164.28 C 154.24 163.98 154.81 162.91 154.50 161.90 L 154.21 160.95 C 153.91 159.94 152.84 159.37 151.83 159.67 C 150.82 159.98 150.25 161.05 150.56 162.05 Z M 150.85 163.02 L 151.15 163.98 C 151.46 164.98 152.53 165.55 153.54 165.24 C 154.54 164.92 155.11 163.85 154.80 162.85 L 154.50 161.89 C 154.19 160.89 153.12 160.32 152.11 160.63 C 151.10 160.95 150.54 162.02 150.85 163.02 Z M 151.15 163.99 L 151.45 164.94 C 151.77 165.95 152.85 166.50 153.85 166.18 C 154.86 165.87 155.41 164.79 155.09 163.79 L 154.79 162.83 C 154.47 161.83 153.40 161.27 152.39 161.59 C 151.39 161.91 150.83 162.98 151.15 163.99 Z M 151.46 164.95 L 151.76 165.90 C 152.09 166.91 153.17 167.46 154.17 167.13 C 155.17 166.80 155.72 165.73 155.40 164.72 L 155.09 163.77 C 154.77 162.77 153.69 162.22 152.68 162.55 C 151.68 162.87 151.13 163.95 151.46 164.95 Z M 151.77 165.91 L 152.08 166.86 C 152.41 167.86 153.49 168.40 154.50 168.07 C 155.50 167.74 156.04 166.66 155.71 165.65 L 155.40 164.71 C 155.06 163.71 153.98 163.17 152.98 163.50 C 151.98 163.83 151.43 164.91 151.77 165.91 Z M 152.08 166.87 L 152.40 167.81 C 152.74 168.81 153.82 169.35 154.83 169.01 C 155.83 168.67 156.36 167.58 156.02 166.58 L 155.71 165.64 C 155.37 164.64 154.28 164.11 153.28 164.44 C 152.28 164.78 151.74 165.87 152.08 166.87 Z M 152.40 167.82 L 152.73 168.76 C 153.07 169.76 154.16 170.29 155.16 169.94 C 156.16 169.60 156.69 168.51 156.35 167.51 L 156.02 166.57 C 155.68 165.57 154.59 165.04 153.59 165.39 C 152.59 165.73 152.06 166.82 152.40 167.82 Z M 152.73 168.77 L 153.06 169.71 C 153.41 170.71 154.51 171.23 155.50 170.88 C 156.50 170.53 157.02 169.44 156.67 168.44 L 156.34 167.50 C 155.99 166.50 154.90 165.98 153.90 166.33 C 152.90 166.68 152.38 167.77 152.73 168.77 Z M 153.07 169.72 L 153.40 170.66 C 153.76 171.66 154.86 172.18 155.85 171.82 C 156.85 171.46 157.37 170.36 157.01 169.37 L 156.67 168.43 C 156.31 167.43 155.22 166.92 154.22 167.27 C 153.22 167.63 152.71 168.73 153.07 169.72 Z M 153.41 170.68 L 153.75 171.62 C 154.12 172.61 155.22 173.12 156.21 172.76 C 157.21 172.40 157.72 171.30 157.35 170.30 L 157.01 169.36 C 156.64 168.36 155.54 167.85 154.55 168.22 C 153.55 168.58 153.04 169.68 153.41 170.68 Z M 153.76 171.63 L 154.11 172.58 C 154.48 173.57 155.59 174.08 156.58 173.71 C 157.57 173.34 158.07 172.23 157.70 171.24 L 157.35 170.29 C 156.98 169.30 155.87 168.80 154.88 169.17 C 153.89 169.54 153.39 170.64 153.76 171.63 Z M 154.12 172.59 L 154.48 173.55 C 154.86 174.54 155.97 175.04 156.95 174.67 C 157.94 174.29 158.44 173.18 158.07 172.19 L 157.70 171.23 C 157.32 170.24 156.22 169.74 155.23 170.12 C 154.24 170.50 153.74 171.60 154.12 172.59 Z M 154.49 173.57 L 154.86 174.53 C 155.24 175.52 156.35 176.01 157.34 175.62 C 158.33 175.24 158.82 174.13 158.43 173.14 L 158.06 172.18 C 157.68 171.19 156.57 170.70 155.58 171.09 C 154.59 171.47 154.10 172.58 154.49 173.57 Z M 154.86 174.54 L 155.24 175.50 C 155.63 176.48 156.75 176.96 157.73 176.57 C 158.71 176.18 159.20 175.07 158.81 174.09 L 158.43 173.13 C 158.04 172.15 156.93 171.66 155.94 172.05 C 154.96 172.44 154.48 173.56 154.86 174.54 Z M 155.25 175.51 L 155.63 176.45 C 156.03 177.43 157.14 177.90 158.12 177.51 C 159.11 177.11 159.58 175.99 159.18 175.01 L 158.80 174.07 C 158.40 173.09 157.29 172.62 156.31 173.02 C 155.32 173.41 154.85 174.53 155.25 175.51 Z M 155.64 176.47 L 156.02 177.38 C 156.42 178.36 157.54 178.82 158.52 178.42 C 159.50 178.01 159.96 176.89 159.56 175.91 L 159.17 175.00 C 158.77 174.02 157.65 173.56 156.67 173.96 C 155.69 174.37 155.23 175.49 155.64 176.47 Z M 156.02 177.40 L 156.40 178.29 C 156.82 179.26 157.94 179.71 158.92 179.30 C 159.89 178.88 160.34 177.75 159.93 176.78 L 159.55 175.89 C 159.13 174.92 158.01 174.47 157.03 174.89 C 156.06 175.30 155.61 176.43 156.02 177.40 Z M 156.41 178.31 L 156.80 179.19 C 157.23 180.15 158.36 180.59 159.33 180.16 C 160.29 179.74 160.73 178.61 160.30 177.64 L 159.92 176.76 C 159.49 175.79 158.36 175.35 157.39 175.78 C 156.42 176.21 155.99 177.34 156.41 178.31 Z M 156.81 179.21 L 157.27 180.20 C 157.71 181.16 158.85 181.58 159.81 181.14 C 160.77 180.69 161.19 179.56 160.75 178.60 L 160.29 177.61 C 159.85 176.65 158.71 176.23 157.75 176.67 C 156.79 177.12 156.37 178.25 156.81 179.21 Z M 157.28 180.23 L 157.73 181.16 C 158.19 182.11 159.34 182.51 160.29 182.05 C 161.24 181.59 161.64 180.45 161.18 179.49 L 160.73 178.56 C 160.27 177.61 159.12 177.21 158.17 177.68 C 157.22 178.14 156.82 179.28 157.28 180.23 Z M 157.75 181.20 L 158.20 182.08 C 158.68 183.02 159.83 183.40 160.78 182.92 C 161.72 182.44 162.09 181.28 161.61 180.34 L 161.16 179.46 C 160.68 178.52 159.53 178.14 158.59 178.62 C 157.65 179.10 157.27 180.26 157.75 181.20 Z M 158.22 182.12 L 158.68 182.96 C 159.18 183.89 160.34 184.24 161.27 183.74 C 162.20 183.24 162.55 182.08 162.05 181.15 L 161.59 180.31 C 161.09 179.37 159.93 179.03 159.00 179.53 C 158.07 180.03 157.72 181.19 158.22 182.12 Z M 158.70 183.00 L 159.16 183.81 C 159.68 184.73 160.85 185.06 161.77 184.53 C 162.68 184.01 163.01 182.85 162.49 181.93 L 162.03 181.11 C 161.50 180.19 160.34 179.87 159.42 180.39 C 158.50 180.91 158.18 182.08 158.70 183.00 Z M 159.18 183.85 L 159.69 184.71 C 160.24 185.61 161.41 185.91 162.31 185.37 C 163.22 184.83 163.52 183.65 162.98 182.75 L 162.46 181.89 C 161.92 180.98 160.75 180.69 159.84 181.23 C 158.94 181.77 158.64 182.94 159.18 183.85 Z M 159.72 184.75 L 160.26 185.61 C 160.83 186.50 162.01 186.77 162.90 186.21 C 163.79 185.64 164.06 184.47 163.49 183.57 L 162.95 182.71 C 162.39 181.82 161.21 181.55 160.32 182.11 C 159.43 182.68 159.16 183.85 159.72 184.75 Z M 160.29 185.65 L 160.85 186.49 C 161.43 187.36 162.62 187.60 163.49 187.02 C 164.37 186.43 164.61 185.25 164.02 184.38 L 163.47 183.54 C 162.88 182.66 161.70 182.42 160.82 183.01 C 159.95 183.59 159.71 184.77 160.29 185.65 Z M 160.88 186.52 L 161.45 187.33 C 162.05 188.19 163.24 188.40 164.10 187.80 C 164.96 187.19 165.17 186.01 164.56 185.15 L 163.99 184.34 C 163.39 183.48 162.21 183.27 161.35 183.87 C 160.48 184.48 160.28 185.66 160.88 186.52 Z M 161.48 187.37 L 162.05 188.15 C 162.68 188.99 163.87 189.17 164.71 188.55 C 165.55 187.92 165.73 186.73 165.11 185.89 L 164.53 185.11 C 163.91 184.27 162.72 184.09 161.88 184.71 C 161.03 185.34 160.85 186.53 161.48 187.37 Z M 162.09 188.19 L 162.72 189.00 C 163.37 189.82 164.56 189.97 165.38 189.32 C 166.21 188.68 166.35 187.49 165.71 186.66 L 165.07 185.85 C 164.43 185.03 163.24 184.88 162.41 185.53 C 161.59 186.17 161.44 187.36 162.09 188.19 Z M 162.76 189.04 L 163.42 189.83 C 164.09 190.63 165.28 190.74 166.08 190.07 C 166.88 189.40 166.99 188.21 166.32 187.41 L 165.67 186.62 C 165.00 185.82 163.81 185.71 163.00 186.38 C 162.20 187.05 162.09 188.24 162.76 189.04 Z M 163.46 189.88 L 164.13 190.62 C 164.82 191.39 166.02 191.46 166.79 190.77 C 167.57 190.07 167.64 188.88 166.94 188.10 L 166.28 187.36 C 165.58 186.58 164.39 186.52 163.61 187.21 C 162.84 187.91 162.77 189.10 163.46 189.88 Z M 164.18 190.67 L 164.86 191.37 C 165.58 192.11 166.77 192.13 167.52 191.41 C 168.27 190.69 168.29 189.49 167.56 188.75 L 166.89 188.05 C 166.16 187.30 164.97 187.28 164.23 188.01 C 163.48 188.73 163.46 189.92 164.18 190.67 Z M 164.92 191.42 L 165.64 192.10 C 166.39 192.81 167.58 192.78 168.29 192.02 C 169.00 191.27 168.97 190.08 168.22 189.37 L 167.50 188.69 C 166.75 187.98 165.56 188.01 164.85 188.77 C 164.13 189.52 164.17 190.71 164.92 191.42 Z M 165.71 192.16 L 166.49 192.82 C 167.28 193.49 168.46 193.40 169.13 192.61 C 169.80 191.82 169.71 190.64 168.92 189.97 L 168.14 189.31 C 167.35 188.64 166.17 188.73 165.50 189.52 C 164.83 190.30 164.92 191.49 165.71 192.16 Z M 166.57 192.88 L 167.36 193.49 C 168.18 194.11 169.35 193.96 169.98 193.14 C 170.61 192.32 170.45 191.15 169.63 190.52 L 168.84 189.91 C 168.02 189.29 166.85 189.44 166.22 190.26 C 165.60 191.08 165.75 192.25 166.57 192.88 Z M 167.45 193.54 L 168.26 194.09 C 169.11 194.67 170.26 194.46 170.84 193.61 C 171.42 192.76 171.21 191.60 170.36 191.02 L 169.55 190.47 C 168.70 189.89 167.54 190.11 166.96 190.95 C 166.38 191.80 166.60 192.96 167.45 193.54 Z M 168.35 194.14 L 169.18 194.65 C 170.06 195.18 171.20 194.91 171.73 194.03 C 172.26 193.16 171.98 192.02 171.11 191.49 L 170.27 190.98 C 169.40 190.44 168.26 190.72 167.72 191.60 C 167.19 192.47 167.47 193.61 168.35 194.14 Z M 169.27 194.69 L 170.15 195.17 C 171.04 195.65 172.16 195.31 172.65 194.42 C 173.13 193.52 172.80 192.40 171.90 191.92 L 171.02 191.44 C 170.13 190.96 169.01 191.30 168.52 192.19 C 168.04 193.09 168.37 194.21 169.27 194.69 Z M 170.23 195.20 L 171.12 195.63 C 172.04 196.07 173.14 195.68 173.58 194.77 C 174.02 193.85 173.63 192.76 172.72 192.32 L 171.82 191.88 C 170.90 191.44 169.81 191.83 169.37 192.74 C 168.93 193.66 169.31 194.76 170.23 195.20 Z M 171.19 195.65 L 172.11 196.05 C 173.04 196.45 174.12 196.03 174.52 195.10 C 174.92 194.17 174.50 193.10 173.57 192.69 L 172.65 192.29 C 171.72 191.89 170.64 192.32 170.24 193.24 C 169.84 194.17 170.26 195.25 171.19 195.65 Z M 172.16 196.06 L 173.11 196.44 C 174.04 196.81 175.10 196.36 175.48 195.42 C 175.85 194.49 175.39 193.43 174.46 193.06 L 173.51 192.68 C 172.58 192.31 171.52 192.76 171.15 193.70 C 170.77 194.63 171.23 195.69 172.16 196.06 Z M 173.17 196.45 L 174.13 196.80 C 175.07 197.15 176.11 196.66 176.45 195.72 C 176.79 194.78 176.31 193.74 175.37 193.40 L 174.40 193.05 C 173.46 192.70 172.42 193.19 172.08 194.13 C 171.74 195.07 172.22 196.11 173.17 196.45 Z M 174.20 196.82 L 175.16 197.12 C 176.11 197.43 177.12 196.90 177.42 195.96 C 177.73 195.01 177.21 193.99 176.26 193.69 L 175.30 193.38 C 174.35 193.08 173.34 193.60 173.03 194.55 C 172.73 195.50 173.25 196.51 174.20 196.82 Z M 175.25 197.14 L 176.19 197.39 C 177.15 197.64 178.13 197.07 178.38 196.11 C 178.63 195.16 178.06 194.18 177.11 193.92 L 176.17 193.68 C 175.21 193.42 174.23 193.99 173.98 194.95 C 173.72 195.91 174.29 196.89 175.25 197.14 Z M 176.31 197.40 L 177.23 197.58 C 178.19 197.77 179.13 197.13 179.31 196.17 C 179.50 195.20 178.87 194.27 177.90 194.08 L 176.99 193.91 C 176.02 193.72 175.09 194.35 174.90 195.32 C 174.72 196.28 175.35 197.22 176.31 197.40 Z M 177.36 197.59 L 178.28 197.70 C 179.25 197.81 180.13 197.11 180.24 196.14 C 180.35 195.17 179.66 194.29 178.69 194.18 L 177.77 194.08 C 176.80 193.96 175.92 194.66 175.81 195.63 C 175.70 196.60 176.39 197.48 177.36 197.59 Z M 178.39 197.69 L 179.38 197.75 C 180.35 197.80 181.17 197.05 181.22 196.08 C 181.28 195.11 180.53 194.29 179.56 194.24 L 178.58 194.18 C 177.61 194.13 176.78 194.88 176.73 195.85 C 176.68 196.82 177.42 197.64 178.39 197.69 Z M 179.45 197.74 L 180.56 197.75 C 181.52 197.76 182.32 196.99 182.33 196.03 C 182.34 195.07 181.57 194.27 180.61 194.26 L 179.49 194.25 C 178.53 194.23 177.74 195.00 177.72 195.97 C 177.71 196.93 178.48 197.72 179.45 197.74 Z M 180.59 197.74 L 181.52 197.74 C 182.48 197.73 183.25 196.95 183.24 195.99 C 183.24 195.03 182.46 194.26 181.50 194.27 L 180.57 194.27 C 179.62 194.28 178.84 195.06 178.85 196.02 C 178.85 196.97 179.63 197.75 180.59 197.74 Z M 181.56 197.73 L 182.52 197.70 C 183.47 197.67 184.22 196.88 184.20 195.93 C 184.17 194.97 183.38 194.22 182.42 194.25 L 181.46 194.27 C 180.51 194.30 179.76 195.10 179.78 196.05 C 179.81 197.00 180.60 197.75 181.56 197.73 Z M 182.57 197.69 L 183.59 197.63 C 184.53 197.57 185.25 196.75 185.20 195.81 C 185.14 194.86 184.32 194.14 183.38 194.20 L 182.36 194.26 C 181.42 194.32 180.70 195.13 180.75 196.08 C 180.81 197.03 181.63 197.75 182.57 197.69 Z M 183.66 197.61 L 184.70 197.50 C 185.64 197.40 186.32 196.56 186.22 195.62 C 186.12 194.68 185.27 194.00 184.34 194.10 L 183.30 194.21 C 182.36 194.31 181.68 195.16 181.78 196.09 C 181.88 197.03 182.73 197.71 183.66 197.61 Z M 184.80 197.48 L 185.84 197.30 C 186.76 197.15 187.39 196.27 187.23 195.34 C 187.07 194.42 186.20 193.79 185.27 193.95 L 184.24 194.12 C 183.31 194.28 182.69 195.16 182.84 196.08 C 183.00 197.01 183.88 197.63 184.80 197.48 Z M 185.96 197.26 L 187.00 197.01 C 187.90 196.78 188.46 195.86 188.23 194.96 C 188.00 194.05 187.09 193.50 186.18 193.73 L 185.14 193.99 C 184.24 194.21 183.69 195.13 183.92 196.04 C 184.14 196.94 185.06 197.49 185.96 197.26 Z M 187.13 196.95 L 188.15 196.60 C 189.02 196.30 189.49 195.35 189.19 194.48 C 188.89 193.60 187.94 193.14 187.07 193.44 L 186.05 193.78 C 185.17 194.08 184.71 195.03 185.01 195.91 C 185.31 196.78 186.26 197.25 187.13 196.95 Z M 188.26 196.54 L 189.22 196.13 C 190.06 195.77 190.45 194.80 190.09 193.96 C 189.73 193.12 188.76 192.73 187.92 193.09 L 186.96 193.50 C 186.12 193.85 185.73 194.82 186.09 195.66 C 186.45 196.50 187.42 196.90 188.26 196.54 Z M 189.30 196.07 L 190.19 195.63 C 190.99 195.23 191.32 194.25 190.92 193.44 C 190.52 192.63 189.54 192.30 188.73 192.71 L 187.84 193.15 C 187.04 193.55 186.71 194.53 187.11 195.34 C 187.51 196.14 188.49 196.47 189.30 196.07 Z M 190.25 195.57 L 191.06 195.12 C 191.84 194.68 192.11 193.70 191.68 192.93 C 191.25 192.15 190.26 191.87 189.49 192.31 L 188.67 192.76 C 187.90 193.19 187.62 194.18 188.05 194.95 C 188.49 195.73 189.47 196.01 190.25 195.57 Z M 191.10 195.07 L 191.90 194.58 C 192.65 194.12 192.89 193.14 192.43 192.39 C 191.97 191.64 190.99 191.41 190.24 191.87 L 189.44 192.35 C 188.69 192.81 188.46 193.79 188.92 194.54 C 189.37 195.29 190.35 195.53 191.10 195.07 Z M 191.96 194.52 L 192.79 193.95 C 193.51 193.46 193.69 192.48 193.20 191.77 C 192.71 191.05 191.74 190.87 191.02 191.36 L 190.19 191.93 C 189.47 192.42 189.29 193.39 189.78 194.11 C 190.27 194.82 191.24 195.01 191.96 194.52 Z M 192.89 193.84 L 193.62 193.24 C 194.28 192.69 194.37 191.72 193.83 191.06 C 193.28 190.41 192.31 190.32 191.65 190.86 L 190.92 191.46 C 190.27 192.01 190.17 192.98 190.72 193.64 C 191.26 194.29 192.23 194.38 192.89 193.84 Z M 193.73 193.10 L 194.41 192.40 C 194.99 191.79 194.97 190.83 194.37 190.25 C 193.77 189.67 192.80 189.69 192.22 190.29 L 191.54 190.99 C 190.96 191.60 190.98 192.56 191.58 193.14 C 192.19 193.72 193.15 193.70 193.73 193.10 Z M 194.49 192.27 L 195.11 191.49 C 195.62 190.84 195.51 189.90 194.86 189.39 C 194.21 188.88 193.26 188.99 192.75 189.64 L 192.14 190.42 C 191.63 191.07 191.74 192.01 192.39 192.52 C 193.04 193.03 193.98 192.92 194.49 192.27 Z M 195.16 191.40 L 195.71 190.59 C 196.18 189.91 196.00 188.99 195.33 188.52 C 194.65 188.06 193.73 188.23 193.26 188.91 L 192.70 189.72 C 192.24 190.40 192.41 191.33 193.09 191.79 C 193.77 192.25 194.69 192.08 195.16 191.40 Z M 195.75 190.53 L 196.29 189.65 C 196.72 188.95 196.51 188.04 195.81 187.61 C 195.12 187.18 194.21 187.39 193.78 188.09 L 193.23 188.97 C 192.80 189.66 193.02 190.57 193.71 191.00 C 194.40 191.43 195.32 191.22 195.75 190.53 Z M 196.31 189.59 L 196.82 188.69 C 197.23 187.99 196.98 187.09 196.27 186.69 C 195.57 186.29 194.67 186.53 194.27 187.24 L 193.75 188.14 C 193.35 188.85 193.60 189.74 194.31 190.15 C 195.01 190.55 195.91 190.30 196.31 189.59 Z M 196.84 188.64 L 197.30 187.77 C 197.67 187.05 197.40 186.17 196.68 185.79 C 195.96 185.42 195.08 185.70 194.71 186.41 L 194.25 187.29 C 193.87 188.00 194.15 188.89 194.87 189.26 C 195.58 189.64 196.47 189.36 196.84 188.64 Z M 197.32 187.71 L 197.79 186.72 C 198.13 185.99 197.82 185.12 197.09 184.78 C 196.36 184.44 195.50 184.75 195.15 185.48 L 194.69 186.47 C 194.34 187.20 194.66 188.07 195.38 188.41 C 196.11 188.75 196.98 188.44 197.32 187.71 Z M 197.81 186.65 L 198.20 185.71 C 198.50 184.97 198.15 184.12 197.41 183.82 C 196.67 183.51 195.82 183.87 195.52 184.61 L 195.13 185.55 C 194.83 186.29 195.18 187.13 195.92 187.44 C 196.66 187.74 197.51 187.39 197.81 186.65 Z M 198.21 185.64 L 198.53 184.75 C 198.80 184.01 198.40 183.18 197.66 182.92 C 196.91 182.65 196.09 183.04 195.82 183.79 L 195.50 184.67 C 195.24 185.42 195.63 186.24 196.37 186.51 C 197.12 186.78 197.94 186.39 198.21 185.64 Z M 198.54 184.71 L 198.82 183.82 C 199.06 183.07 198.64 182.27 197.89 182.02 C 197.14 181.78 196.33 182.20 196.09 182.95 L 195.81 183.83 C 195.57 184.59 195.98 185.39 196.74 185.63 C 197.49 185.87 198.29 185.46 198.54 184.71 Z M 198.82 183.79 L 199.10 182.85 C 199.33 182.10 198.90 181.30 198.14 181.08 C 197.39 180.85 196.59 181.28 196.37 182.04 L 196.09 182.98 C 195.86 183.74 196.29 184.53 197.05 184.75 C 197.80 184.98 198.60 184.55 198.82 183.79 Z M 199.11 182.82 L 199.38 181.86 C 199.59 181.10 199.14 180.32 198.38 180.11 C 197.62 179.90 196.84 180.34 196.63 181.10 L 196.36 182.07 C 196.15 182.83 196.60 183.61 197.36 183.82 C 198.12 184.03 198.90 183.58 199.11 182.82 Z M 199.38 181.83 L 199.63 180.84 C 199.82 180.08 199.36 179.30 198.59 179.11 C 197.83 178.92 197.06 179.39 196.87 180.15 L 196.62 181.14 C 196.43 181.90 196.89 182.67 197.66 182.87 C 198.42 183.06 199.19 182.59 199.38 181.83 Z M 199.64 180.81 L 199.86 179.84 C 200.03 179.07 199.55 178.31 198.78 178.13 C 198.01 177.96 197.25 178.44 197.08 179.21 L 196.86 180.18 C 196.68 180.95 197.17 181.71 197.94 181.89 C 198.70 182.06 199.47 181.58 199.64 180.81 Z M 199.86 179.81 L 200.06 178.83 C 200.22 178.06 199.72 177.31 198.95 177.15 C 198.18 176.99 197.43 177.49 197.27 178.26 L 197.07 179.24 C 196.91 180.01 197.41 180.76 198.18 180.92 C 198.95 181.08 199.71 180.58 199.86 179.81 Z M 200.07 178.81 L 200.26 177.83 C 200.40 177.05 199.90 176.31 199.12 176.16 C 198.35 176.01 197.60 176.52 197.46 177.29 L 197.27 178.28 C 197.12 179.05 197.62 179.80 198.40 179.95 C 199.17 180.09 199.92 179.59 200.07 178.81 Z M 200.26 177.82 L 200.41 177.00 C 200.55 176.22 200.04 175.48 199.27 175.33 C 198.50 175.19 197.75 175.70 197.61 176.47 L 197.45 177.30 C 197.31 178.07 197.82 178.82 198.59 178.96 C 199.37 179.10 200.11 178.59 200.26 177.82 Z"
      fill="black"
      fill-rule="nonzero" /><path d="M 164.18 95.77 L 162.97 95.80 C 162.09 95.82 161.40 96.55 161.42 97.43 C 161.44 98.31 162.17 99.00 163.05 98.98 L 164.25 98.95 C 165.13 98.93 165.83 98.20 165.81 97.32 C 165.79 96.44 165.06 95.75 164.18 95.77 Z M 162.66 95.82 L 161.74 96.03 C 160.88 96.22 160.33 97.07 160.52 97.94 C 160.71 98.81 161.57 99.35 162.44 99.16 L 163.35 98.96 C 164.22 98.76 164.77 97.91 164.57 97.04 C 164.38 96.18 163.52 95.63 162.66 95.82 Z M 160.74 96.70 L 160.40 97.22 C 159.91 97.96 160.11 98.97 160.86 99.46 C 161.60 99.95 162.60 99.74 163.10 99.00 L 163.44 98.48 C 163.93 97.74 163.72 96.74 162.98 96.24 C 162.23 95.75 161.23 95.96 160.74 96.70 Z M 160.20 98.56 L 160.43 99.35 C 160.68 100.20 161.57 100.69 162.43 100.44 C 163.28 100.19 163.77 99.30 163.53 98.44 L 163.30 97.66 C 163.05 96.80 162.15 96.31 161.30 96.56 C 160.44 96.81 159.95 97.71 160.20 98.56 Z M 160.62 99.76 L 161.23 100.71 C 161.71 101.45 162.70 101.67 163.44 101.20 C 164.19 100.72 164.41 99.73 163.93 98.98 L 163.33 98.03 C 162.85 97.29 161.86 97.07 161.11 97.54 C 160.37 98.02 160.15 99.01 160.62 99.76 Z M 161.36 100.86 L 162.06 101.70 C 162.62 102.38 163.62 102.47 164.30 101.91 C 164.97 101.35 165.07 100.35 164.51 99.67 L 163.81 98.83 C 163.24 98.15 162.24 98.06 161.57 98.62 C 160.89 99.18 160.80 100.18 161.36 100.86 Z M 162.15 101.78 L 162.74 102.39 C 163.34 103.01 164.34 103.03 164.96 102.43 C 165.58 101.83 165.60 100.83 165.00 100.21 L 164.41 99.60 C 163.81 98.97 162.82 98.95 162.19 99.56 C 161.57 100.16 161.55 101.15 162.15 101.78 Z M 162.81 102.43 L 163.49 103.06 C 164.11 103.64 165.09 103.61 165.67 102.98 C 166.25 102.36 166.22 101.38 165.60 100.80 L 164.93 100.17 C 164.30 99.59 163.33 99.62 162.74 100.24 C 162.16 100.87 162.19 101.84 162.81 102.43 Z M 163.55 103.08 L 164.32 103.75 C 164.96 104.30 165.92 104.23 166.47 103.60 C 167.02 102.97 166.95 102.01 166.32 101.46 L 165.54 100.78 C 164.90 100.23 163.95 100.30 163.39 100.93 C 162.84 101.57 162.91 102.53 163.55 103.08 Z M 164.37 103.76 L 165.28 104.51 C 165.91 105.03 166.85 104.94 167.38 104.31 C 167.91 103.67 167.82 102.73 167.18 102.20 L 166.27 101.45 C 165.64 100.93 164.69 101.02 164.17 101.65 C 163.64 102.29 163.73 103.23 164.37 103.76 Z M 165.30 104.50 L 166.06 105.12 C 166.69 105.63 167.62 105.53 168.13 104.89 C 168.65 104.26 168.55 103.33 167.91 102.82 L 167.16 102.21 C 166.52 101.69 165.59 101.79 165.08 102.43 C 164.57 103.06 164.67 103.99 165.30 104.50 Z M 166.07 105.11 L 166.77 105.67 C 167.40 106.18 168.32 106.07 168.83 105.44 C 169.34 104.81 169.23 103.88 168.60 103.38 L 167.90 102.82 C 167.27 102.31 166.34 102.42 165.84 103.05 C 165.33 103.68 165.44 104.61 166.07 105.11 Z M 166.78 105.67 L 167.52 106.26 C 168.15 106.76 169.07 106.65 169.57 106.02 C 170.07 105.39 169.97 104.47 169.34 103.97 L 168.59 103.38 C 167.96 102.88 167.04 102.98 166.54 103.62 C 166.04 104.25 166.14 105.17 166.78 105.67 Z M 167.53 106.26 L 168.31 106.87 C 168.94 107.37 169.86 107.26 170.36 106.63 C 170.85 106.00 170.74 105.08 170.11 104.59 L 169.33 103.97 C 168.70 103.47 167.78 103.58 167.28 104.21 C 166.79 104.84 166.90 105.76 167.53 106.26 Z M 168.32 106.87 L 169.13 107.51 C 169.76 108.01 170.67 107.90 171.17 107.27 C 171.66 106.63 171.55 105.72 170.92 105.23 L 170.11 104.59 C 169.48 104.09 168.56 104.20 168.07 104.84 C 167.58 105.47 167.69 106.38 168.32 106.87 Z M 169.14 107.51 L 169.98 108.16 C 170.60 108.66 171.51 108.54 172.00 107.92 C 172.50 107.29 172.38 106.38 171.76 105.89 L 170.92 105.23 C 170.29 104.74 169.38 104.85 168.89 105.48 C 168.40 106.11 168.51 107.02 169.14 107.51 Z M 169.98 108.16 L 170.83 108.83 C 171.46 109.32 172.37 109.21 172.85 108.58 C 173.34 107.95 173.23 107.05 172.61 106.56 L 171.75 105.89 C 171.13 105.40 170.22 105.51 169.73 106.14 C 169.24 106.77 169.35 107.67 169.98 108.16 Z M 170.84 108.82 L 171.67 109.47 C 172.29 109.96 173.19 109.85 173.68 109.22 C 174.17 108.60 174.06 107.70 173.43 107.21 L 172.60 106.56 C 171.98 106.08 171.08 106.19 170.59 106.81 C 170.10 107.44 170.21 108.34 170.84 108.82 Z"
      fill="black"
      fill-rule="nonzero" /><path d="M 171.94 144.34 L 171.65 145.22 C 171.37 146.07 171.83 146.98 172.68 147.26 C 173.52 147.54 174.44 147.08 174.72 146.24 L 175.01 145.36 C 175.29 144.52 174.83 143.60 173.99 143.32 C 173.14 143.04 172.22 143.50 171.94 144.34 Z M 171.62 145.22 L 171.33 146.14 C 171.05 147.00 171.52 147.92 172.38 148.20 C 173.25 148.48 174.17 148.01 174.45 147.15 L 174.75 146.23 C 175.03 145.37 174.55 144.45 173.69 144.17 C 172.83 143.89 171.90 144.36 171.62 145.22 Z M 171.30 146.15 L 170.99 147.14 C 170.72 148.02 171.21 148.95 172.09 149.22 C 172.97 149.49 173.90 149.00 174.17 148.12 L 174.48 147.14 C 174.75 146.26 174.26 145.32 173.38 145.05 C 172.50 144.78 171.57 145.27 171.30 146.15 Z M 170.96 147.15 L 170.66 148.17 C 170.40 149.06 170.91 150.00 171.81 150.27 C 172.70 150.53 173.64 150.02 173.91 149.12 L 174.20 148.11 C 174.47 147.21 173.95 146.27 173.06 146.01 C 172.16 145.75 171.23 146.26 170.96 147.15 Z M 170.65 148.18 L 170.38 149.12 C 170.13 150.02 170.65 150.96 171.56 151.22 C 172.46 151.47 173.40 150.95 173.66 150.04 L 173.92 149.11 C 174.18 148.20 173.65 147.26 172.75 147.01 C 171.84 146.75 170.90 147.28 170.65 148.18 Z M 170.38 149.12 L 170.10 150.10 C 169.85 151.01 170.38 151.95 171.29 152.21 C 172.20 152.46 173.14 151.93 173.39 151.02 L 173.67 150.04 C 173.92 149.13 173.39 148.19 172.48 147.94 C 171.57 147.68 170.63 148.21 170.38 149.12 Z M 170.10 150.10 L 169.82 151.09 C 169.56 152.00 170.09 152.95 171.01 153.20 C 171.92 153.46 172.87 152.93 173.12 152.02 L 173.40 151.02 C 173.66 150.11 173.12 149.17 172.21 148.91 C 171.30 148.65 170.35 149.18 170.10 150.10 Z M 169.82 151.07 L 169.53 152.04 C 169.27 152.96 169.80 153.91 170.71 154.18 C 171.62 154.44 172.58 153.92 172.84 153.00 L 173.12 152.03 C 173.39 151.12 172.86 150.16 171.95 149.90 C 171.04 149.63 170.08 150.16 169.82 151.07 Z M 169.54 152.02 L 169.24 152.99 C 168.96 153.90 169.47 154.86 170.38 155.14 C 171.30 155.42 172.26 154.91 172.54 154.00 L 172.84 153.03 C 173.12 152.12 172.61 151.15 171.70 150.87 C 170.78 150.59 169.82 151.10 169.54 152.02 Z M 169.25 152.95 L 168.94 153.90 C 168.64 154.80 169.13 155.78 170.04 156.08 C 170.95 156.38 171.92 155.88 172.22 154.98 L 172.53 154.03 C 172.83 153.13 172.34 152.15 171.43 151.85 C 170.52 151.55 169.55 152.05 169.25 152.95 Z M 168.95 153.86 L 168.62 154.79 C 168.31 155.69 168.78 156.68 169.68 156.99 C 170.59 157.31 171.57 156.83 171.89 155.93 L 172.21 155.01 C 172.53 154.11 172.06 153.12 171.15 152.80 C 170.25 152.49 169.26 152.96 168.95 153.86 Z M 168.63 154.76 L 168.29 155.69 C 167.95 156.58 168.41 157.58 169.31 157.91 C 170.21 158.25 171.20 157.79 171.54 156.89 L 171.88 155.96 C 172.21 155.07 171.76 154.07 170.86 153.73 C 169.96 153.40 168.97 153.86 168.63 154.76 Z M 168.30 155.66 L 167.94 156.58 C 167.59 157.47 168.04 158.48 168.93 158.82 C 169.82 159.17 170.83 158.73 171.17 157.83 L 171.53 156.91 C 171.87 156.02 171.43 155.02 170.54 154.67 C 169.65 154.33 168.64 154.77 168.30 155.66 Z M 167.95 156.56 L 167.60 157.43 C 167.24 158.31 167.68 159.32 168.57 159.68 C 169.45 160.03 170.46 159.60 170.82 158.71 L 171.17 157.85 C 171.52 156.96 171.09 155.95 170.20 155.60 C 169.31 155.24 168.30 155.67 167.95 156.56 Z M 167.61 157.41 L 167.24 158.31 C 166.87 159.19 167.29 160.21 168.18 160.57 C 169.06 160.94 170.08 160.51 170.44 159.63 L 170.81 158.73 C 171.18 157.84 170.76 156.83 169.87 156.47 C 168.99 156.10 167.97 156.52 167.61 157.41 Z M 167.24 158.29 L 166.85 159.22 C 166.47 160.11 166.88 161.12 167.77 161.50 C 168.65 161.87 169.67 161.46 170.04 160.58 L 170.44 159.65 C 170.81 158.76 170.40 157.75 169.52 157.37 C 168.64 157.00 167.62 157.41 167.24 158.29 Z M 166.85 159.21 L 166.43 160.17 C 166.05 161.05 166.45 162.07 167.33 162.45 C 168.20 162.84 169.23 162.44 169.61 161.56 L 170.03 160.60 C 170.42 159.72 170.02 158.70 169.14 158.31 C 168.26 157.93 167.24 158.33 166.85 159.21 Z M 166.44 160.15 L 166.01 161.11 C 165.62 161.99 166.00 163.01 166.88 163.41 C 167.75 163.80 168.78 163.41 169.17 162.54 L 169.60 161.58 C 170.00 160.70 169.61 159.68 168.73 159.28 C 167.86 158.89 166.83 159.28 166.44 160.15 Z M 166.02 161.10 L 165.62 161.96 C 165.21 162.83 165.59 163.86 166.46 164.26 C 167.33 164.67 168.36 164.29 168.76 163.42 L 169.16 162.55 C 169.56 161.68 169.19 160.65 168.32 160.25 C 167.45 159.85 166.42 160.23 166.02 161.10 Z M 165.62 161.95 L 165.20 162.83 C 164.79 163.70 165.16 164.73 166.03 165.14 C 166.89 165.55 167.92 165.18 168.33 164.32 L 168.75 163.43 C 169.16 162.57 168.80 161.54 167.93 161.13 C 167.07 160.71 166.03 161.08 165.62 161.95 Z M 165.21 162.82 L 164.77 163.71 C 164.36 164.57 164.71 165.61 165.58 166.03 C 166.44 166.45 167.47 166.09 167.89 165.23 L 168.33 164.33 C 168.75 163.47 168.39 162.43 167.53 162.02 C 166.67 161.60 165.63 161.96 165.21 162.82 Z M 164.78 163.70 L 164.33 164.61 C 163.90 165.47 164.25 166.51 165.11 166.93 C 165.96 167.36 167.00 167.01 167.43 166.15 L 167.88 165.24 C 168.31 164.39 167.96 163.35 167.10 162.92 C 166.25 162.49 165.21 162.84 164.78 163.70 Z M 164.34 164.60 L 163.87 165.52 C 163.43 166.37 163.77 167.41 164.63 167.84 C 165.48 168.28 166.52 167.94 166.95 167.09 L 167.42 166.17 C 167.86 165.31 167.52 164.27 166.67 163.84 C 165.81 163.40 164.77 163.74 164.34 164.60 Z M 163.88 165.50 L 163.40 166.41 C 162.96 167.26 163.29 168.30 164.14 168.74 C 164.99 169.18 166.03 168.86 166.47 168.01 L 166.95 167.10 C 167.39 166.25 167.06 165.21 166.21 164.77 C 165.36 164.32 164.32 164.65 163.88 165.50 Z M 163.41 166.40 L 162.96 167.24 C 162.51 168.09 162.83 169.14 163.68 169.58 C 164.52 170.03 165.57 169.71 166.01 168.87 L 166.47 168.02 C 166.91 167.18 166.59 166.13 165.75 165.68 C 164.91 165.23 163.86 165.55 163.41 166.40 Z M 162.97 167.23 L 162.50 168.09 C 162.05 168.93 162.36 169.98 163.20 170.43 C 164.04 170.89 165.09 170.58 165.54 169.74 L 166.01 168.88 C 166.46 168.04 166.15 166.99 165.31 166.54 C 164.47 166.08 163.42 166.39 162.97 167.23 Z M 162.51 168.08 L 162.03 168.95 C 161.57 169.78 161.88 170.83 162.71 171.29 C 163.55 171.75 164.60 171.45 165.06 170.61 L 165.54 169.75 C 166.00 168.91 165.69 167.86 164.86 167.40 C 164.02 166.94 162.97 167.25 162.51 168.08 Z M 162.04 168.94 L 161.55 169.81 C 161.08 170.64 161.38 171.70 162.21 172.16 C 163.04 172.63 164.09 172.33 164.56 171.50 L 165.05 170.62 C 165.52 169.79 165.22 168.74 164.39 168.28 C 163.56 167.81 162.51 168.11 162.04 168.94 Z M 161.56 169.80 L 161.05 170.69 C 160.58 171.52 160.87 172.57 161.70 173.04 C 162.52 173.51 163.58 173.23 164.05 172.40 L 164.55 171.51 C 165.02 170.68 164.73 169.63 163.91 169.16 C 163.08 168.69 162.03 168.98 161.56 169.80 Z M 161.06 170.69 L 160.54 171.59 C 160.06 172.41 160.35 173.46 161.17 173.94 C 161.99 174.41 163.05 174.13 163.52 173.31 L 164.04 172.41 C 164.52 171.58 164.23 170.53 163.41 170.05 C 162.59 169.58 161.53 169.86 161.06 170.69 Z M 160.54 171.58 L 160.03 172.45 C 159.56 173.27 159.83 174.33 160.65 174.81 C 161.47 175.28 162.53 175.01 163.01 174.19 L 163.51 173.31 C 163.99 172.49 163.72 171.44 162.90 170.96 C 162.08 170.48 161.02 170.76 160.54 171.58 Z M 160.04 172.45 L 159.53 173.31 C 159.05 174.12 159.32 175.18 160.14 175.66 C 160.95 176.14 162.01 175.87 162.49 175.05 L 163.00 174.19 C 163.48 173.38 163.21 172.32 162.39 171.84 C 161.58 171.36 160.52 171.63 160.04 172.45 Z M 159.54 173.30 L 159.02 174.17 C 158.54 174.98 158.80 176.03 159.61 176.52 C 160.43 177.00 161.48 176.74 161.96 175.93 L 162.48 175.06 C 162.97 174.25 162.70 173.20 161.89 172.71 C 161.08 172.22 160.03 172.49 159.54 173.30 Z M 159.03 174.16 L 158.50 175.02 C 158.01 175.83 158.27 176.88 159.08 177.37 C 159.89 177.87 160.94 177.61 161.43 176.80 L 161.96 175.94 C 162.45 175.13 162.19 174.07 161.38 173.58 C 160.57 173.09 159.52 173.35 159.03 174.16 Z M 158.51 175.01 L 157.98 175.87 C 157.49 176.68 157.74 177.73 158.54 178.22 C 159.34 178.72 160.40 178.47 160.89 177.67 L 161.42 176.81 C 161.92 176.01 161.67 174.95 160.87 174.46 C 160.06 173.96 159.01 174.21 158.51 175.01 Z M 157.99 175.86 L 157.46 176.71 C 156.96 177.51 157.20 178.56 158.00 179.06 C 158.79 179.56 159.85 179.32 160.35 178.53 L 160.88 177.68 C 161.39 176.88 161.14 175.83 160.35 175.32 C 159.55 174.82 158.49 175.06 157.99 175.86 Z M 157.47 176.70 L 156.94 177.53 C 156.43 178.32 156.66 179.37 157.45 179.88 C 158.24 180.39 159.30 180.16 159.81 179.37 L 160.34 178.54 C 160.85 177.75 160.62 176.69 159.83 176.18 C 159.03 175.67 157.98 175.91 157.47 176.70 Z M 156.95 177.51 L 156.39 178.37 C 155.87 179.15 156.09 180.21 156.88 180.72 C 157.66 181.24 158.72 181.02 159.23 180.24 L 159.79 179.38 C 160.31 178.60 160.09 177.54 159.31 177.03 C 158.52 176.51 157.47 176.73 156.95 177.51 Z M 156.40 178.36 L 155.83 179.22 C 155.30 179.99 155.51 181.05 156.29 181.57 C 157.06 182.09 158.12 181.89 158.64 181.11 L 159.22 180.25 C 159.74 179.47 159.53 178.42 158.76 177.90 C 157.98 177.37 156.93 177.58 156.40 178.36 Z M 155.84 179.20 L 155.26 180.04 C 154.74 180.81 154.93 181.86 155.70 182.39 C 156.47 182.92 157.52 182.73 158.05 181.96 L 158.62 181.12 C 159.15 180.35 158.96 179.30 158.19 178.77 C 157.42 178.24 156.37 178.44 155.84 179.20 Z M 155.28 180.03 L 154.71 180.85 C 154.17 181.61 154.36 182.66 155.12 183.20 C 155.88 183.73 156.93 183.54 157.46 182.78 L 158.04 181.97 C 158.57 181.20 158.39 180.15 157.62 179.62 C 156.86 179.09 155.81 179.27 155.28 180.03 Z M 154.72 180.84 L 154.15 181.64 C 153.61 182.40 153.79 183.45 154.54 183.99 C 155.30 184.52 156.35 184.35 156.88 183.59 L 157.45 182.79 C 157.99 182.03 157.81 180.98 157.06 180.45 C 156.30 179.91 155.25 180.09 154.72 180.84 Z M 154.16 181.64 L 153.59 182.43 C 153.05 183.18 153.22 184.23 153.97 184.76 C 154.72 185.30 155.77 185.13 156.31 184.38 L 156.87 183.59 C 157.41 182.84 157.24 181.80 156.49 181.26 C 155.74 180.72 154.70 180.89 154.16 181.64 Z M 153.60 182.43 L 153.03 183.21 C 152.49 183.96 152.66 185.00 153.41 185.54 C 154.15 186.08 155.19 185.91 155.73 185.17 L 156.30 184.38 C 156.84 183.64 156.67 182.59 155.93 182.05 C 155.18 181.51 154.14 181.68 153.60 182.43 Z M 153.04 183.22 L 152.43 184.05 C 151.89 184.79 152.06 185.83 152.80 186.37 C 153.54 186.91 154.58 186.74 155.12 186.00 L 155.73 185.17 C 156.26 184.42 156.10 183.39 155.36 182.85 C 154.61 182.31 153.58 182.47 153.04 183.22 Z M 152.44 184.05 L 151.84 184.88 C 151.30 185.61 151.46 186.65 152.20 187.18 C 152.94 187.72 153.97 187.56 154.51 186.82 L 155.11 186.00 C 155.65 185.26 155.49 184.23 154.75 183.69 C 154.01 183.15 152.98 183.31 152.44 184.05 Z M 151.85 184.87 L 151.25 185.69 C 150.71 186.42 150.87 187.45 151.60 187.99 C 152.33 188.52 153.36 188.37 153.90 187.64 L 154.50 186.82 C 155.04 186.09 154.88 185.06 154.15 184.53 C 153.42 183.99 152.39 184.14 151.85 184.87 Z M 151.27 185.68 L 150.67 186.48 C 150.13 187.20 150.28 188.23 151.00 188.77 C 151.73 189.31 152.75 189.16 153.29 188.44 L 153.89 187.64 C 154.43 186.92 154.28 185.89 153.56 185.35 C 152.83 184.81 151.81 184.96 151.27 185.68 Z M 150.69 186.47 L 150.10 187.25 C 149.55 187.97 149.69 188.99 150.41 189.53 C 151.13 190.08 152.15 189.94 152.69 189.22 L 153.28 188.44 C 153.82 187.72 153.68 186.70 152.97 186.16 C 152.25 185.62 151.23 185.76 150.69 186.47 Z M 150.11 187.25 L 149.52 188.02 C 148.97 188.72 149.10 189.74 149.81 190.29 C 150.52 190.84 151.53 190.71 152.08 190.00 L 152.67 189.23 C 153.22 188.52 153.09 187.50 152.38 186.96 C 151.68 186.41 150.66 186.54 150.11 187.25 Z M 149.54 188.01 L 148.89 188.83 C 148.34 189.52 148.45 190.53 149.15 191.09 C 149.85 191.64 150.86 191.52 151.41 190.83 L 152.06 190.01 C 152.61 189.31 152.49 188.30 151.80 187.74 C 151.10 187.19 150.09 187.31 149.54 188.01 Z M 148.91 188.81 L 148.27 189.61 C 147.71 190.29 147.81 191.30 148.49 191.85 C 149.18 192.41 150.18 192.31 150.74 191.63 L 151.39 190.84 C 151.95 190.15 151.84 189.15 151.16 188.59 C 150.48 188.03 149.47 188.13 148.91 188.81 Z M 148.29 189.59 L 147.65 190.36 C 147.08 191.03 147.16 192.03 147.83 192.59 C 148.50 193.16 149.50 193.07 150.07 192.40 L 150.71 191.64 C 151.28 190.97 151.20 189.97 150.53 189.40 C 149.86 188.84 148.86 188.92 148.29 189.59 Z M 147.67 190.34 L 147.03 191.08 C 146.45 191.73 146.52 192.73 147.17 193.30 C 147.83 193.87 148.82 193.81 149.40 193.15 L 150.04 192.42 C 150.61 191.76 150.55 190.77 149.90 190.20 C 149.24 189.62 148.25 189.69 147.67 190.34 Z M 147.06 191.06 L 146.41 191.77 C 145.83 192.41 145.87 193.40 146.51 193.98 C 147.15 194.56 148.13 194.52 148.72 193.88 L 149.37 193.17 C 149.95 192.53 149.90 191.55 149.27 190.96 C 148.63 190.38 147.64 190.43 147.06 191.06 Z M 146.44 191.75 L 145.74 192.49 C 145.15 193.11 145.17 194.09 145.79 194.68 C 146.40 195.27 147.39 195.25 147.98 194.63 L 148.68 193.90 C 149.28 193.28 149.25 192.30 148.64 191.71 C 148.02 191.11 147.04 191.13 146.44 191.75 Z M 145.77 192.47 L 145.05 193.19 C 144.44 193.79 144.44 194.76 145.04 195.37 C 145.64 195.97 146.61 195.97 147.21 195.37 L 147.94 194.65 C 148.54 194.05 148.55 193.08 147.95 192.48 C 147.35 191.87 146.38 191.87 145.77 192.47 Z M 145.08 193.18 L 144.35 193.87 C 143.74 194.45 143.72 195.41 144.30 196.02 C 144.87 196.63 145.84 196.66 146.45 196.08 L 147.18 195.39 C 147.79 194.81 147.82 193.85 147.24 193.23 C 146.66 192.62 145.69 192.60 145.08 193.18 Z M 144.39 193.85 L 143.66 194.51 C 143.04 195.07 142.99 196.03 143.55 196.65 C 144.11 197.27 145.07 197.32 145.69 196.75 L 146.42 196.09 C 147.04 195.53 147.08 194.58 146.52 193.96 C 145.96 193.34 145.01 193.29 144.39 193.85 Z M 143.69 194.50 L 142.96 195.13 C 142.34 195.68 142.27 196.62 142.82 197.25 C 143.36 197.87 144.31 197.94 144.93 197.40 L 145.66 196.77 C 146.28 196.22 146.35 195.28 145.81 194.65 C 145.26 194.03 144.31 193.96 143.69 194.50 Z M 142.99 195.12 L 142.22 195.77 C 141.59 196.30 141.51 197.23 142.03 197.87 C 142.56 198.50 143.50 198.58 144.13 198.05 L 144.90 197.41 C 145.53 196.88 145.62 195.94 145.09 195.31 C 144.56 194.68 143.63 194.60 142.99 195.12 Z M 142.25 195.76 L 141.47 196.38 C 140.84 196.89 140.73 197.82 141.24 198.46 C 141.75 199.09 142.68 199.20 143.32 198.69 L 144.10 198.06 C 144.73 197.55 144.84 196.63 144.33 195.99 C 143.82 195.35 142.89 195.25 142.25 195.76 Z M 141.50 196.37 L 140.72 196.97 C 140.07 197.47 139.95 198.39 140.44 199.03 C 140.94 199.67 141.85 199.79 142.50 199.30 L 143.29 198.70 C 143.93 198.21 144.05 197.29 143.56 196.65 C 143.07 196.00 142.15 195.88 141.50 196.37 Z M 140.75 196.96 L 139.95 197.55 C 139.30 198.03 139.16 198.93 139.63 199.58 C 140.11 200.23 141.01 200.37 141.66 199.90 L 142.47 199.31 C 143.11 198.84 143.26 197.93 142.78 197.28 C 142.31 196.63 141.40 196.49 140.75 196.96 Z M 139.98 197.54 L 139.15 198.12 C 138.50 198.58 138.34 199.48 138.79 200.13 C 139.25 200.78 140.15 200.94 140.81 200.49 L 141.63 199.91 C 142.29 199.45 142.45 198.55 141.99 197.90 C 141.53 197.24 140.63 197.08 139.98 197.54 Z M 139.18 198.11 L 138.33 198.67 C 137.67 199.11 137.49 200.01 137.93 200.67 C 138.37 201.33 139.26 201.51 139.93 201.07 L 140.78 200.50 C 141.44 200.06 141.62 199.17 141.18 198.50 C 140.73 197.84 139.84 197.66 139.18 198.11 Z M 138.36 198.66 L 137.50 199.20 C 136.83 199.62 136.63 200.51 137.05 201.18 C 137.47 201.85 138.36 202.05 139.03 201.63 L 139.89 201.09 C 140.56 200.66 140.76 199.78 140.34 199.11 C 139.92 198.44 139.03 198.23 138.36 198.66 Z M 137.54 199.18 L 136.68 199.68 C 136.00 200.08 135.77 200.96 136.17 201.64 C 136.57 202.32 137.45 202.55 138.13 202.15 L 138.99 201.65 C 139.67 201.25 139.90 200.37 139.50 199.69 C 139.10 199.01 138.22 198.78 137.54 199.18 Z M 136.73 199.66 L 135.89 200.11 C 135.19 200.48 134.93 201.34 135.30 202.04 C 135.67 202.73 136.54 203.00 137.23 202.63 L 138.08 202.18 C 138.77 201.81 139.04 200.94 138.67 200.24 C 138.30 199.55 137.43 199.28 136.73 199.66 Z M 135.96 200.07 L 135.00 200.52 C 134.29 200.85 133.98 201.70 134.31 202.42 C 134.65 203.13 135.50 203.44 136.21 203.11 L 137.17 202.66 C 137.88 202.33 138.19 201.48 137.85 200.76 C 137.52 200.05 136.67 199.74 135.96 200.07 Z M 135.07 200.49 L 134.14 200.87 C 133.40 201.17 133.05 202.00 133.35 202.73 C 133.65 203.47 134.49 203.82 135.22 203.52 L 136.15 203.14 C 136.88 202.84 137.23 202.00 136.93 201.27 C 136.63 200.54 135.80 200.19 135.07 200.49 Z M 134.18 200.85 L 133.27 201.18 C 132.53 201.46 132.15 202.28 132.42 203.02 C 132.69 203.77 133.52 204.15 134.26 203.87 L 135.17 203.54 C 135.91 203.26 136.30 202.44 136.02 201.70 C 135.75 200.96 134.93 200.57 134.18 200.85 Z M 133.29 201.17 L 132.52 201.44 C 131.77 201.70 131.38 202.52 131.64 203.27 C 131.90 204.02 132.72 204.41 133.47 204.15 L 134.24 203.88 C 134.98 203.62 135.38 202.80 135.12 202.06 C 134.86 201.31 134.04 200.91 133.29 201.17 Z"
      fill="black"
      fill-rule="nonzero" /></svg>