<svg xmlns="http://www.w3.org/2000/svg" width="300" height="300" viewBox="0 0 300 300">
<path d="M 129.14 107.23 L 128.12 107.41 C 127.22 107.56 126.61 108.42 126.77 109.33 C 126.92 110.23 127.78 110.84 128.68 110.68 L 129.70 110.51 C 130.61 110.35 131.21 109.49 131.06 108.59 C 130.90 107.69 130.05 107.08 129.14 107.23 Z M 128.00 107.41 L 127.03 107.65 C 126.12 107.87 125.57 108.78 125.79 109.68 C 126.01 110.58 126.92 111.14 127.82 110.92 L 128.80 110.68 C 129.70 110.46 130.25 109.55 130.03 108.65 C 129.81 107.75 128.90 107.19 128.00 107.41 Z M 126.78 107.71 L 125.89 108.08 C 125.02 108.44 124.61 109.43 124.96 110.30 C 125.32 111.16 126.31 111.58 127.18 111.22 L 128.07 110.85 C 128.94 110.50 129.35 109.51 129.00 108.64 C 128.64 107.77 127.65 107.36 126.78 107.71 Z M 125.54 108.26 L 124.76 108.82 C 123.99 109.37 123.82 110.44 124.37 111.20 C 124.92 111.97 125.99 112.15 126.75 111.60 L 127.53 111.04 C 128.30 110.49 128.47 109.42 127.92 108.65 C 127.37 107.89 126.31 107.71 125.54 108.26 Z M 124.51 109.04 L 123.83 109.76 C 123.19 110.45 123.22 111.53 123.91 112.18 C 124.60 112.82 125.68 112.79 126.33 112.10 L 127.01 111.38 C 127.65 110.69 127.62 109.61 126.93 108.96 C 126.24 108.31 125.15 108.35 124.51 109.04 Z M 123.72 109.89 L 123.10 110.70 C 122.53 111.45 122.67 112.53 123.43 113.10 C 124.18 113.67 125.25 113.53 125.82 112.78 L 126.44 111.96 C 127.02 111.21 126.87 110.14 126.12 109.57 C 125.37 108.99 124.29 109.14 123.72 109.89 Z M 123.08 110.73 L 122.58 111.42 C 122.02 112.19 122.19 113.26 122.95 113.81 C 123.72 114.37 124.79 114.20 125.34 113.44 L 125.85 112.75 C 126.40 111.98 126.23 110.91 125.47 110.36 C 124.71 109.80 123.63 109.97 123.08 110.73 Z M 122.59 111.41 L 122.11 112.05 C 121.55 112.81 121.71 113.88 122.46 114.44 C 123.22 115.00 124.29 114.85 124.85 114.09 L 125.33 113.45 C 125.89 112.69 125.74 111.62 124.98 111.06 C 124.22 110.50 123.15 110.65 122.59 111.41 Z M 122.13 112.04 L 121.57 112.77 C 120.99 113.52 121.13 114.59 121.88 115.16 C 122.63 115.73 123.70 115.59 124.27 114.85 L 124.84 114.11 C 125.41 113.36 125.27 112.29 124.52 111.72 C 123.77 111.15 122.70 111.29 122.13 112.04 Z M 121.58 112.76 L 120.88 113.65 C 120.30 114.39 120.43 115.46 121.16 116.04 C 121.90 116.62 122.97 116.49 123.55 115.75 L 124.25 114.86 C 124.83 114.12 124.71 113.05 123.97 112.47 C 123.23 111.89 122.16 112.02 121.58 112.76 Z M 120.89 113.64 L 120.11 114.62 C 119.52 115.35 119.64 116.41 120.37 117.00 C 121.10 117.59 122.17 117.47 122.75 116.74 L 123.54 115.76 C 124.12 115.03 124.01 113.97 123.28 113.38 C 122.55 112.80 121.48 112.91 120.89 113.64 Z M 120.12 114.61 L 119.56 115.30 C 118.98 116.02 119.09 117.08 119.81 117.67 C 120.54 118.26 121.60 118.15 122.19 117.43 L 122.74 116.74 C 123.33 116.02 123.22 114.96 122.50 114.37 C 121.77 113.78 120.71 113.89 120.12 114.61 Z M 119.57 115.30 L 118.97 116.04 C 118.38 116.76 118.49 117.82 119.21 118.41 C 119.93 118.99 120.99 118.89 121.58 118.17 L 122.18 117.43 C 122.77 116.71 122.66 115.64 121.94 115.06 C 121.22 114.47 120.16 114.58 119.57 115.30 Z M 118.97 116.04 L 118.33 116.82 C 117.75 117.54 117.85 118.59 118.57 119.18 C 119.29 119.77 120.34 119.66 120.93 118.95 L 121.57 118.16 C 122.16 117.45 122.05 116.39 121.33 115.80 C 120.62 115.22 119.56 115.32 118.97 116.04 Z M 118.34 116.82 L 117.68 117.63 C 117.09 118.35 117.20 119.40 117.91 119.99 C 118.62 120.57 119.68 120.47 120.26 119.75 L 120.93 118.94 C 121.51 118.23 121.41 117.17 120.69 116.59 C 119.98 116.00 118.92 116.11 118.34 116.82 Z M 117.68 117.64 L 117.01 118.46 C 116.42 119.17 116.53 120.22 117.24 120.80 C 117.95 121.39 119.00 121.28 119.59 120.57 L 120.26 119.75 C 120.84 119.04 120.74 117.99 120.03 117.40 C 119.31 116.82 118.26 116.92 117.68 117.64 Z M 117.01 118.46 L 116.34 119.28 C 115.76 119.99 115.87 121.04 116.58 121.62 C 117.29 122.20 118.33 122.10 118.91 121.39 L 119.58 120.57 C 120.16 119.85 120.06 118.81 119.35 118.23 C 118.64 117.65 117.59 117.75 117.01 118.46 Z M 116.34 119.29 L 115.69 120.09 C 115.11 120.80 115.22 121.84 115.93 122.42 C 116.64 123.00 117.68 122.89 118.26 122.18 L 118.91 121.38 C 119.49 120.67 119.38 119.63 118.67 119.05 C 117.96 118.47 116.92 118.58 116.34 119.29 Z M 115.69 120.10 L 115.06 120.88 C 114.48 121.59 114.59 122.63 115.30 123.20 C 116.01 123.78 117.05 123.67 117.62 122.96 L 118.26 122.17 C 118.83 121.47 118.72 120.43 118.01 119.86 C 117.30 119.28 116.26 119.39 115.69 120.10 Z M 115.06 120.90 L 114.33 121.81 C 113.77 122.52 113.88 123.55 114.59 124.11 C 115.29 124.67 116.32 124.56 116.88 123.86 L 117.61 122.94 C 118.18 122.24 118.07 121.21 117.36 120.65 C 116.66 120.08 115.63 120.20 115.06 120.90 Z M 114.34 121.83 L 113.67 122.69 C 113.12 123.38 113.24 124.40 113.93 124.95 C 114.63 125.50 115.64 125.38 116.20 124.69 L 116.87 123.84 C 117.42 123.14 117.31 122.12 116.61 121.57 C 115.91 121.02 114.90 121.14 114.34 121.83 Z M 113.68 122.71 L 113.06 123.51 C 112.52 124.20 112.64 125.20 113.33 125.74 C 114.02 126.28 115.02 126.16 115.56 125.46 L 116.19 124.66 C 116.73 123.97 116.60 122.97 115.91 122.43 C 115.22 121.89 114.22 122.02 113.68 122.71 Z M 113.07 123.53 L 112.48 124.30 C 111.96 124.98 112.09 125.96 112.77 126.49 C 113.46 127.02 114.44 126.89 114.97 126.20 L 115.55 125.44 C 116.08 124.75 115.95 123.77 115.26 123.24 C 114.58 122.72 113.59 122.85 113.07 123.53 Z M 112.49 124.32 L 111.94 125.05 C 111.43 125.73 111.57 126.70 112.25 127.21 C 112.93 127.73 113.89 127.59 114.41 126.91 L 114.96 126.18 C 115.47 125.50 115.33 124.53 114.65 124.02 C 113.97 123.50 113.00 123.64 112.49 124.32 Z M 111.95 125.08 L 111.42 125.79 C 110.93 126.47 111.07 127.42 111.74 127.92 C 112.42 128.42 113.37 128.27 113.87 127.60 L 114.40 126.88 C 114.90 126.21 114.75 125.26 114.08 124.76 C 113.40 124.26 112.45 124.40 111.95 125.08 Z M 111.43 125.82 L 110.85 126.61 C 110.37 127.29 110.52 128.22 111.19 128.71 C 111.86 129.20 112.80 129.04 113.29 128.37 L 113.86 127.57 C 114.35 126.90 114.20 125.96 113.53 125.48 C 112.85 124.99 111.92 125.14 111.43 125.82 Z M 110.85 126.64 L 110.25 127.49 C 109.78 128.16 109.94 129.09 110.62 129.56 C 111.29 130.03 112.22 129.87 112.69 129.20 L 113.29 128.35 C 113.76 127.68 113.60 126.75 112.93 126.27 C 112.25 125.80 111.33 125.96 110.85 126.64 Z M 110.25 127.51 L 109.68 128.36 C 109.22 129.03 109.39 129.95 110.07 130.41 C 110.74 130.87 111.66 130.69 112.12 130.02 L 112.69 129.17 C 113.15 128.50 112.98 127.58 112.30 127.12 C 111.63 126.66 110.71 126.84 110.25 127.51 Z M 109.67 128.38 L 109.13 129.22 C 108.69 129.89 108.88 130.80 109.56 131.25 C 110.23 131.69 111.14 131.50 111.59 130.82 L 112.13 129.99 C 112.57 129.31 112.38 128.40 111.70 127.96 C 111.02 127.52 110.11 127.71 109.67 128.38 Z M 109.12 129.25 L 108.61 130.07 C 108.19 130.75 108.40 131.65 109.08 132.07 C 109.76 132.50 110.66 132.29 111.09 131.60 L 111.59 130.79 C 112.02 130.10 111.81 129.21 111.13 128.78 C 110.44 128.36 109.55 128.57 109.12 129.25 Z M 108.60 130.10 L 108.11 130.94 C 107.71 131.63 107.94 132.52 108.63 132.92 C 109.32 133.33 110.20 133.09 110.61 132.40 L 111.10 131.57 C 111.50 130.88 111.27 129.99 110.58 129.59 C 109.89 129.18 109.00 129.41 108.60 130.10 Z M 108.09 130.98 L 107.60 131.90 C 107.22 132.60 107.47 133.47 108.17 133.85 C 108.87 134.23 109.75 133.97 110.13 133.28 L 110.62 132.36 C 111.00 131.66 110.75 130.79 110.05 130.41 C 109.35 130.03 108.47 130.29 108.09 130.98 Z M 107.58 131.93 L 107.13 132.83 C 106.77 133.53 107.05 134.40 107.75 134.76 C 108.46 135.12 109.33 134.84 109.69 134.13 L 110.14 133.24 C 110.50 132.53 110.22 131.67 109.51 131.31 C 108.81 130.95 107.94 131.23 107.58 131.93 Z M 107.12 132.86 L 106.69 133.74 C 106.34 134.45 106.64 135.31 107.35 135.65 C 108.07 136.00 108.92 135.70 109.27 134.99 L 109.69 134.11 C 110.04 133.39 109.74 132.54 109.03 132.19 C 108.32 131.85 107.46 132.14 107.12 132.86 Z M 106.69 133.75 L 106.27 134.63 C 105.94 135.34 106.25 136.19 106.96 136.53 C 107.67 136.87 108.52 136.56 108.86 135.84 L 109.27 134.97 C 109.61 134.26 109.30 133.41 108.59 133.07 C 107.87 132.73 107.02 133.04 106.69 133.75 Z M 106.27 134.63 L 106.17 134.86 C 105.84 135.57 106.15 136.42 106.86 136.75 C 107.57 137.09 108.42 136.78 108.75 136.06 L 108.86 135.84 C 109.19 135.13 108.88 134.28 108.17 133.94 C 107.46 133.61 106.61 133.92 106.27 134.63 Z"
      fill="black"
      fill-rule="nonzero" /><path d="M 137.28 118.77 L 136.50 119.42 C 135.82 119.97 135.73 120.96 136.28 121.63 C 136.83 122.31 137.83 122.40 138.50 121.85 L 139.29 121.20 C 139.96 120.65 140.06 119.65 139.50 118.98 C 138.95 118.31 137.96 118.21 137.28 118.77 Z M 136.45 119.41 L 135.69 120.07 C 135.01 120.65 134.93 121.66 135.51 122.33 C 136.09 123.01 137.10 123.08 137.77 122.51 L 138.54 121.85 C 139.22 121.27 139.29 120.26 138.72 119.59 C 138.14 118.91 137.13 118.84 136.45 119.41 Z M 135.62 120.09 L 134.89 120.77 C 134.23 121.38 134.19 122.41 134.81 123.08 C 135.42 123.74 136.46 123.77 137.12 123.16 L 137.84 122.49 C 138.50 121.87 138.54 120.84 137.93 120.18 C 137.31 119.52 136.28 119.48 135.62 120.09 Z M 134.80 120.82 L 134.14 121.52 C 133.51 122.18 133.54 123.23 134.20 123.86 C 134.87 124.49 135.92 124.47 136.55 123.80 L 137.21 123.10 C 137.84 122.44 137.81 121.39 137.15 120.76 C 136.48 120.13 135.43 120.16 134.80 120.82 Z M 134.05 121.60 L 133.45 122.33 C 132.87 123.04 132.97 124.10 133.68 124.68 C 134.40 125.27 135.45 125.17 136.04 124.45 L 136.64 123.72 C 137.22 123.01 137.12 121.95 136.41 121.37 C 135.69 120.78 134.64 120.88 134.05 121.60 Z M 133.40 122.38 L 132.82 123.17 C 132.26 123.91 132.41 124.96 133.15 125.52 C 133.89 126.07 134.95 125.92 135.50 125.18 L 136.09 124.40 C 136.64 123.66 136.49 122.60 135.75 122.05 C 135.01 121.49 133.96 121.64 133.40 122.38 Z M 132.80 123.18 L 132.18 124.03 C 131.63 124.78 131.79 125.83 132.55 126.38 C 133.30 126.93 134.35 126.77 134.90 126.01 L 135.52 125.17 C 136.07 124.41 135.90 123.36 135.15 122.81 C 134.40 122.26 133.35 122.43 132.80 123.18 Z M 132.19 124.01 L 131.57 124.83 C 131.01 125.57 131.17 126.63 131.91 127.19 C 132.66 127.75 133.72 127.60 134.28 126.85 L 134.89 126.03 C 135.45 125.29 135.30 124.23 134.55 123.67 C 133.81 123.11 132.75 123.26 132.19 124.01 Z M 131.59 124.80 L 130.97 125.61 C 130.39 126.35 130.53 127.41 131.27 127.98 C 132.01 128.55 133.08 128.42 133.65 127.68 L 134.27 126.87 C 134.84 126.13 134.70 125.07 133.96 124.50 C 133.22 123.93 132.16 124.06 131.59 124.80 Z M 130.98 125.59 L 130.34 126.40 C 129.76 127.14 129.88 128.21 130.62 128.79 C 131.35 129.37 132.42 129.24 133.00 128.50 L 133.64 127.69 C 134.22 126.96 134.09 125.89 133.36 125.31 C 132.62 124.73 131.56 124.86 130.98 125.59 Z M 130.34 126.39 L 129.71 127.18 C 129.12 127.91 129.24 128.98 129.97 129.57 C 130.71 130.15 131.78 130.04 132.36 129.30 L 132.99 128.52 C 133.58 127.78 133.46 126.71 132.73 126.13 C 132.00 125.54 130.93 125.66 130.34 126.39 Z M 129.71 127.17 L 129.09 127.94 C 128.50 128.67 128.61 129.74 129.34 130.33 C 130.07 130.92 131.15 130.81 131.74 130.08 L 132.36 129.31 C 132.95 128.58 132.84 127.51 132.11 126.92 C 131.38 126.33 130.31 126.44 129.71 127.17 Z M 129.10 127.93 L 128.43 128.75 C 127.83 129.48 127.94 130.55 128.66 131.15 C 129.39 131.74 130.46 131.64 131.06 130.91 L 131.73 130.09 C 132.33 129.36 132.22 128.29 131.49 127.69 C 130.77 127.10 129.69 127.20 129.10 127.93 Z M 128.43 128.74 L 127.81 129.49 C 127.21 130.22 127.31 131.29 128.03 131.89 C 128.76 132.49 129.83 132.39 130.43 131.67 L 131.05 130.92 C 131.65 130.19 131.55 129.12 130.83 128.52 C 130.11 127.92 129.03 128.02 128.43 128.74 Z M 127.82 129.48 L 127.20 130.21 C 126.60 130.93 126.69 132.01 127.41 132.61 C 128.13 133.22 129.20 133.12 129.81 132.40 L 130.42 131.68 C 131.03 130.96 130.94 129.88 130.22 129.28 C 129.50 128.67 128.42 128.76 127.82 129.48 Z M 127.21 130.20 L 126.59 130.93 C 125.98 131.65 126.07 132.72 126.78 133.33 C 127.50 133.94 128.57 133.86 129.18 133.14 L 129.80 132.41 C 130.41 131.70 130.33 130.62 129.61 130.01 C 128.89 129.40 127.82 129.49 127.21 130.20 Z M 126.60 130.92 L 125.96 131.67 C 125.34 132.38 125.42 133.46 126.13 134.07 C 126.85 134.69 127.92 134.61 128.53 133.89 L 129.18 133.15 C 129.79 132.43 129.71 131.36 129.00 130.75 C 128.29 130.13 127.21 130.21 126.60 130.92 Z M 125.96 131.66 L 125.30 132.42 C 124.68 133.13 124.75 134.21 125.46 134.83 C 126.16 135.44 127.24 135.37 127.86 134.67 L 128.53 133.90 C 129.14 133.20 129.07 132.12 128.37 131.50 C 127.66 130.88 126.58 130.95 125.96 131.66 Z M 125.31 132.41 L 124.62 133.18 C 124.00 133.88 124.06 134.95 124.76 135.58 C 125.46 136.21 126.53 136.15 127.16 135.45 L 127.84 134.68 C 128.47 133.98 128.41 132.90 127.71 132.28 C 127.01 131.65 125.93 131.71 125.31 132.41 Z M 124.64 133.16 L 123.96 133.90 C 123.33 134.59 123.38 135.67 124.07 136.30 C 124.76 136.94 125.84 136.89 126.47 136.20 L 127.14 135.46 C 127.78 134.77 127.73 133.69 127.04 133.06 C 126.35 132.42 125.27 132.47 124.64 133.16 Z M 123.98 133.89 L 123.30 134.62 C 122.66 135.30 122.69 136.38 123.38 137.02 C 124.06 137.66 125.14 137.62 125.78 136.93 L 126.46 136.21 C 127.10 135.52 127.06 134.45 126.38 133.81 C 125.69 133.17 124.62 133.20 123.98 133.89 Z M 123.30 134.61 L 122.62 135.34 C 121.97 136.02 122.00 137.09 122.68 137.74 C 123.36 138.38 124.44 138.35 125.08 137.67 L 125.77 136.94 C 126.42 136.26 126.39 135.19 125.70 134.54 C 125.02 133.90 123.95 133.93 123.30 134.61 Z M 122.62 135.33 L 121.93 136.06 C 121.28 136.74 121.31 137.82 121.98 138.46 C 122.66 139.11 123.74 139.08 124.38 138.40 L 125.08 137.67 C 125.72 136.99 125.70 135.92 125.02 135.27 C 124.34 134.63 123.27 134.65 122.62 135.33 Z M 121.93 136.06 L 121.25 136.77 C 120.60 137.45 120.63 138.52 121.31 139.17 C 121.98 139.82 123.06 139.79 123.70 139.11 L 124.38 138.40 C 125.03 137.73 125.00 136.65 124.32 136.01 C 123.65 135.36 122.57 135.39 121.93 136.06 Z M 121.25 136.78 L 120.57 137.50 C 119.92 138.17 119.95 139.24 120.62 139.89 C 121.30 140.53 122.37 140.51 123.01 139.83 L 123.70 139.11 C 124.34 138.44 124.32 137.37 123.64 136.72 C 122.97 136.08 121.90 136.10 121.25 136.78 Z M 120.57 137.50 L 119.87 138.22 C 119.23 138.90 119.25 139.97 119.93 140.61 C 120.60 141.26 121.67 141.23 122.32 140.56 L 123.01 139.83 C 123.65 139.16 123.63 138.09 122.96 137.44 C 122.28 136.80 121.21 136.82 120.57 137.50 Z M 119.87 138.23 L 119.17 138.96 C 118.53 139.64 118.55 140.70 119.23 141.35 C 119.90 141.99 120.97 141.97 121.61 141.29 L 122.31 140.56 C 122.96 139.88 122.93 138.82 122.26 138.17 C 121.59 137.53 120.52 137.55 119.87 138.23 Z M 119.18 138.96 L 118.49 139.68 C 117.85 140.35 117.87 141.42 118.54 142.06 C 119.22 142.70 120.28 142.68 120.92 142.01 L 121.61 141.29 C 122.25 140.62 122.23 139.55 121.56 138.91 C 120.88 138.27 119.82 138.29 119.18 138.96 Z M 118.50 139.68 L 117.80 140.40 C 117.16 141.07 117.18 142.13 117.85 142.77 C 118.52 143.42 119.58 143.40 120.23 142.73 L 120.92 142.01 C 121.56 141.34 121.54 140.27 120.87 139.63 C 120.20 138.99 119.14 139.01 118.50 139.68 Z M 117.81 140.39 L 117.11 141.11 C 116.47 141.78 116.48 142.84 117.15 143.48 C 117.81 144.13 118.87 144.11 119.52 143.45 L 120.22 142.73 C 120.86 142.07 120.85 141.00 120.18 140.36 C 119.52 139.71 118.46 139.73 117.81 140.39 Z M 117.12 141.11 L 116.42 141.82 C 115.77 142.48 115.77 143.54 116.43 144.19 C 117.09 144.84 118.15 144.83 118.80 144.17 L 119.51 143.46 C 120.16 142.80 120.15 141.74 119.49 141.09 C 118.83 140.44 117.77 140.45 117.12 141.11 Z M 116.43 141.81 L 115.71 142.53 C 115.06 143.18 115.06 144.23 115.71 144.89 C 116.36 145.54 117.41 145.55 118.07 144.90 L 118.78 144.18 C 119.44 143.53 119.44 142.48 118.79 141.82 C 118.14 141.17 117.09 141.16 116.43 141.81 Z M 115.73 142.53 L 115.00 143.23 C 114.35 143.88 114.34 144.93 114.98 145.58 C 115.62 146.24 116.68 146.25 117.33 145.61 L 118.05 144.90 C 118.71 144.26 118.72 143.20 118.08 142.55 C 117.43 141.89 116.38 141.88 115.73 142.53 Z M 115.01 143.24 L 114.30 143.94 C 113.64 144.58 113.63 145.62 114.27 146.28 C 114.91 146.93 115.96 146.94 116.61 146.30 L 117.33 145.60 C 117.98 144.96 117.99 143.92 117.35 143.26 C 116.71 142.61 115.66 142.60 115.01 143.24 Z M 114.30 143.95 L 113.59 144.64 C 112.95 145.28 112.94 146.32 113.58 146.97 C 114.22 147.62 115.26 147.62 115.91 146.98 L 116.61 146.29 C 117.26 145.65 117.27 144.61 116.63 143.96 C 115.99 143.31 114.94 143.31 114.30 143.95 Z M 113.59 144.65 L 112.88 145.37 C 112.24 146.01 112.24 147.05 112.88 147.69 C 113.53 148.32 114.56 148.32 115.20 147.68 L 115.91 146.97 C 116.55 146.33 116.55 145.29 115.91 144.65 C 115.27 144.01 114.23 144.01 113.59 144.65 Z M 112.88 145.38 L 112.18 146.10 C 111.54 146.74 111.55 147.77 112.20 148.40 C 112.84 149.03 113.87 149.02 114.50 148.38 L 115.20 147.67 C 115.84 147.02 115.83 145.99 115.18 145.36 C 114.54 144.73 113.51 144.74 112.88 145.38 Z M 112.18 146.10 L 111.49 146.81 C 110.86 147.45 110.87 148.47 111.50 149.10 C 112.14 149.73 113.17 149.72 113.80 149.08 L 114.49 148.38 C 115.12 147.74 115.11 146.71 114.47 146.09 C 113.84 145.46 112.81 145.47 112.18 146.10 Z M 111.50 146.81 L 110.80 147.51 C 110.17 148.14 110.17 149.15 110.80 149.78 C 111.43 150.41 112.45 150.42 113.08 149.79 L 113.78 149.09 C 114.41 148.46 114.41 147.44 113.78 146.81 C 113.15 146.18 112.13 146.18 111.50 146.81 Z M 110.83 147.50 L 110.14 148.16 C 109.50 148.78 109.48 149.79 110.10 150.43 C 110.71 151.06 111.73 151.08 112.36 150.47 L 113.05 149.80 C 113.69 149.18 113.71 148.17 113.09 147.54 C 112.48 146.90 111.46 146.88 110.83 147.50 Z M 110.17 148.15 L 109.46 148.80 C 108.81 149.40 108.77 150.41 109.37 151.05 C 109.97 151.70 110.97 151.74 111.62 151.14 L 112.33 150.48 C 112.97 149.89 113.01 148.88 112.42 148.23 C 111.82 147.59 110.81 147.55 110.17 148.15 Z M 109.50 148.79 L 108.75 149.44 C 108.09 150.02 108.03 151.02 108.60 151.67 C 109.18 152.33 110.18 152.39 110.83 151.82 L 111.58 151.16 C 112.24 150.58 112.30 149.58 111.73 148.93 C 111.15 148.27 110.15 148.21 109.50 148.79 Z M 108.78 149.42 L 107.98 150.09 C 107.31 150.65 107.22 151.64 107.78 152.30 C 108.33 152.97 109.32 153.06 109.99 152.51 L 110.79 151.84 C 111.46 151.28 111.55 150.29 111.00 149.63 C 110.44 148.96 109.45 148.87 108.78 149.42 Z M 108.02 150.07 L 107.25 150.68 C 106.57 151.21 106.45 152.20 106.99 152.87 C 107.52 153.55 108.50 153.67 109.18 153.13 L 109.95 152.53 C 110.63 151.99 110.74 151.01 110.21 150.33 C 109.68 149.66 108.70 149.54 108.02 150.07 Z M 107.28 150.67 L 106.50 151.25 C 105.82 151.77 105.68 152.74 106.20 153.43 C 106.71 154.11 107.69 154.25 108.37 153.73 L 109.15 153.15 C 109.83 152.63 109.97 151.66 109.45 150.97 C 108.93 150.29 107.96 150.15 107.28 150.67 Z M 106.52 151.25 L 105.71 151.84 C 105.03 152.34 104.88 153.31 105.38 154.00 C 105.88 154.69 106.85 154.83 107.54 154.33 L 108.35 153.74 C 109.04 153.23 109.18 152.27 108.68 151.58 C 108.18 150.89 107.21 150.74 106.52 151.25 Z M 105.73 151.84 L 104.90 152.44 C 104.21 152.93 104.05 153.89 104.55 154.58 C 105.04 155.27 106.00 155.42 106.69 154.93 L 107.52 154.33 C 108.21 153.84 108.37 152.88 107.87 152.19 C 107.38 151.50 106.42 151.34 105.73 151.84 Z M 104.91 152.44 L 104.07 153.04 C 103.38 153.53 103.22 154.48 103.71 155.17 C 104.19 155.86 105.15 156.02 105.83 155.53 L 106.68 154.93 C 107.37 154.44 107.53 153.49 107.04 152.80 C 106.55 152.11 105.60 151.95 104.91 152.44 Z M 104.07 153.04 L 103.94 153.14 C 103.25 153.62 103.09 154.57 103.58 155.26 C 104.06 155.94 105.01 156.11 105.70 155.62 L 105.83 155.52 C 106.52 155.04 106.68 154.09 106.19 153.40 C 105.70 152.72 104.75 152.56 104.07 153.04 Z"
      fill="black"
      fill-rule="nonzero" /><path d="M 118.11 149.87 L 118.44 150.76 C 118.72 151.53 119.58 151.92 120.35 151.63 C 121.11 151.35 121.51 150.50 121.22 149.73 L 120.89 148.84 C 120.61 148.07 119.75 147.68 118.99 147.96 C 118.22 148.24 117.83 149.10 118.11 149.87 Z M 118.43 150.75 L 118.75 151.65 C 119.03 152.43 119.89 152.83 120.66 152.55 C 121.44 152.27 121.84 151.42 121.56 150.64 L 121.24 149.74 C 120.96 148.96 120.10 148.56 119.32 148.84 C 118.55 149.12 118.15 149.97 118.43 150.75 Z M 118.73 151.63 L 119.05 152.57 C 119.32 153.35 120.18 153.77 120.96 153.50 C 121.75 153.23 122.17 152.38 121.90 151.59 L 121.58 150.66 C 121.31 149.88 120.46 149.46 119.67 149.73 C 118.89 149.99 118.47 150.85 118.73 151.63 Z M 119.03 152.54 L 119.34 153.51 C 119.59 154.30 120.44 154.74 121.24 154.49 C 122.04 154.24 122.48 153.39 122.22 152.59 L 121.92 151.62 C 121.67 150.83 120.82 150.39 120.02 150.64 C 119.22 150.89 118.78 151.74 119.03 152.54 Z M 119.32 153.47 L 119.61 154.49 C 119.84 155.30 120.68 155.77 121.49 155.54 C 122.30 155.31 122.77 154.46 122.54 153.66 L 122.25 152.63 C 122.02 151.82 121.17 151.36 120.36 151.59 C 119.56 151.82 119.09 152.66 119.32 153.47 Z M 119.59 154.45 L 119.85 155.46 C 120.05 156.28 120.89 156.77 121.71 156.56 C 122.53 156.36 123.02 155.52 122.81 154.70 L 122.56 153.70 C 122.35 152.88 121.52 152.38 120.70 152.59 C 119.88 152.80 119.38 153.63 119.59 154.45 Z M 119.83 155.42 L 120.06 156.44 C 120.25 157.27 121.07 157.79 121.90 157.60 C 122.73 157.41 123.25 156.59 123.06 155.76 L 122.83 154.74 C 122.64 153.91 121.82 153.39 120.99 153.58 C 120.16 153.77 119.64 154.59 119.83 155.42 Z M 120.04 156.41 L 120.26 157.44 C 120.43 158.28 121.25 158.82 122.09 158.64 C 122.92 158.47 123.46 157.65 123.29 156.81 L 123.08 155.79 C 122.91 154.95 122.09 154.41 121.25 154.58 C 120.41 154.76 119.87 155.57 120.04 156.41 Z M 120.24 157.42 L 120.43 158.42 C 120.59 159.27 121.41 159.82 122.25 159.66 C 123.10 159.50 123.65 158.69 123.49 157.84 L 123.30 156.84 C 123.15 155.99 122.33 155.44 121.48 155.60 C 120.64 155.75 120.08 156.57 120.24 157.42 Z M 120.42 158.40 L 120.58 159.35 C 120.73 160.20 121.54 160.78 122.40 160.63 C 123.25 160.48 123.82 159.67 123.67 158.82 L 123.51 157.86 C 123.36 157.01 122.55 156.44 121.70 156.59 C 120.84 156.73 120.27 157.55 120.42 158.40 Z M 120.57 159.33 L 120.72 160.24 C 120.85 161.10 121.66 161.69 122.52 161.55 C 123.38 161.41 123.97 160.61 123.83 159.75 L 123.69 158.84 C 123.55 157.98 122.74 157.39 121.88 157.53 C 121.02 157.66 120.44 158.47 120.57 159.33 Z M 120.70 160.21 L 120.86 161.36 C 120.98 162.23 121.78 162.83 122.65 162.71 C 123.52 162.59 124.12 161.79 124.00 160.92 L 123.84 159.77 C 123.72 158.91 122.92 158.30 122.05 158.42 C 121.19 158.54 120.58 159.34 120.70 160.21 Z M 120.85 161.32 L 120.96 162.30 C 121.06 163.18 121.84 163.81 122.72 163.71 C 123.59 163.62 124.22 162.83 124.13 161.95 L 124.02 160.97 C 123.92 160.09 123.13 159.46 122.26 159.56 C 121.38 159.66 120.75 160.44 120.85 161.32 Z M 120.94 162.26 L 121.02 163.16 C 121.09 164.04 121.87 164.70 122.75 164.62 C 123.63 164.55 124.29 163.77 124.21 162.89 L 124.14 162.00 C 124.07 161.11 123.29 160.46 122.41 160.53 C 121.53 160.60 120.87 161.38 120.94 162.26 Z M 121.01 163.13 L 121.06 164.03 C 121.12 164.92 121.89 165.59 122.77 165.54 C 123.66 165.48 124.34 164.71 124.28 163.83 L 124.23 162.93 C 124.17 162.04 123.40 161.36 122.52 161.42 C 121.63 161.47 120.95 162.24 121.01 163.13 Z M 121.06 164.01 L 121.10 164.97 C 121.15 165.86 121.91 166.55 122.80 166.51 C 123.69 166.47 124.38 165.71 124.34 164.81 L 124.29 163.85 C 124.25 162.95 123.49 162.27 122.59 162.31 C 121.70 162.35 121.01 163.11 121.06 164.01 Z M 121.09 164.95 L 121.13 165.95 C 121.16 166.85 121.92 167.56 122.82 167.52 C 123.71 167.49 124.42 166.74 124.38 165.84 L 124.35 164.83 C 124.31 163.93 123.56 163.23 122.66 163.27 C 121.76 163.30 121.06 164.05 121.09 164.95 Z M 121.12 165.94 L 121.15 166.98 C 121.17 167.88 121.92 168.59 122.82 168.57 C 123.73 168.55 124.44 167.80 124.42 166.89 L 124.39 165.85 C 124.37 164.95 123.62 164.24 122.72 164.26 C 121.81 164.28 121.10 165.03 121.12 165.94 Z M 121.14 166.96 L 121.16 167.97 C 121.17 168.87 121.92 169.60 122.82 169.59 C 123.73 169.57 124.45 168.83 124.44 167.92 L 124.42 166.91 C 124.41 166.00 123.66 165.28 122.76 165.29 C 121.85 165.31 121.13 166.05 121.14 166.96 Z M 121.15 167.96 L 121.16 168.97 C 121.17 169.87 121.91 170.60 122.82 170.60 C 123.73 170.59 124.46 169.85 124.45 168.94 L 124.44 167.93 C 124.43 167.02 123.69 166.29 122.79 166.30 C 121.88 166.31 121.15 167.05 121.15 167.96 Z M 121.16 168.96 L 121.16 169.96 C 121.17 170.87 121.90 171.61 122.81 171.60 C 123.72 171.60 124.46 170.86 124.45 169.95 L 124.45 168.95 C 124.45 168.04 123.71 167.31 122.80 167.31 C 121.89 167.31 121.16 168.05 121.16 168.96 Z M 121.16 169.96 L 121.16 170.95 C 121.16 171.86 121.90 172.59 122.81 172.59 C 123.72 172.59 124.45 171.85 124.45 170.95 L 124.45 169.96 C 124.45 169.05 123.72 168.31 122.81 168.31 C 121.90 168.31 121.16 169.05 121.16 169.96 Z M 121.16 170.95 L 121.16 171.98 C 121.16 172.89 121.90 173.63 122.81 173.63 C 123.72 173.63 124.46 172.89 124.46 171.98 L 124.46 170.95 C 124.46 170.04 123.72 169.30 122.81 169.30 C 121.90 169.30 121.16 170.04 121.16 170.95 Z M 121.16 171.98 L 121.16 172.99 C 121.16 173.90 121.90 174.63 122.81 174.63 C 123.72 174.63 124.46 173.90 124.46 172.99 L 124.46 171.98 C 124.46 171.07 123.72 170.33 122.81 170.33 C 121.90 170.33 121.16 171.07 121.16 171.98 Z M 121.16 172.99 L 121.16 173.96 C 121.16 174.87 121.90 175.61 122.81 175.61 C 123.72 175.61 124.46 174.87 124.46 173.96 L 124.46 172.99 C 124.46 172.07 123.72 171.34 122.81 171.34 C 121.90 171.34 121.16 172.07 121.16 172.99 Z M 121.16 173.96 L 121.16 174.95 C 121.16 175.87 121.90 176.60 122.81 176.60 C 123.72 176.60 124.46 175.87 124.46 174.95 L 124.46 173.96 C 124.46 173.05 123.72 172.31 122.81 172.31 C 121.90 172.31 121.16 173.05 121.16 173.96 Z M 121.16 174.95 L 121.16 175.96 C 121.16 176.87 121.90 177.61 122.81 177.61 C 123.72 177.61 124.46 176.87 124.46 175.96 L 124.46 174.95 C 124.46 174.04 123.72 173.30 122.81 173.30 C 121.90 173.30 121.16 174.04 121.16 174.95 Z M 121.16 175.96 L 121.16 176.96 C 121.16 177.87 121.90 178.61 122.81 178.61 C 123.72 178.61 124.46 177.87 124.46 176.96 L 124.46 175.96 C 124.46 175.05 123.72 174.31 122.81 174.31 C 121.90 174.31 121.16 175.05 121.16 175.96 Z M 121.16 176.96 L 121.16 177.95 C 121.16 178.86 121.90 179.60 122.81 179.60 C 123.72 179.60 124.46 178.86 124.46 177.95 L 124.46 176.96 C 124.46 176.05 123.72 175.31 122.81 175.31 C 121.90 175.31 121.16 176.05 121.16 176.96 Z M 121.16 177.95 L 121.16 178.96 C 121.16 179.87 121.89 180.61 122.80 180.61 C 123.71 180.61 124.45 179.87 124.45 178.96 L 124.46 177.95 C 124.46 177.04 123.72 176.30 122.81 176.30 C 121.90 176.30 121.16 177.03 121.16 177.95 Z M 121.16 178.94 L 121.15 179.94 C 121.14 180.85 121.86 181.60 122.77 181.61 C 123.68 181.62 124.43 180.89 124.44 179.98 L 124.45 178.98 C 124.46 178.07 123.74 177.32 122.83 177.31 C 121.92 177.30 121.17 178.03 121.16 178.94 Z M 121.15 179.91 L 121.12 180.90 C 121.09 181.80 121.81 182.56 122.71 182.59 C 123.62 182.62 124.38 181.90 124.41 180.99 L 124.44 180.01 C 124.47 179.10 123.75 178.34 122.84 178.31 C 121.94 178.29 121.18 179.00 121.15 179.91 Z M 121.12 180.85 L 121.07 181.75 C 121.02 182.66 121.72 183.44 122.62 183.48 C 123.53 183.53 124.31 182.84 124.36 181.93 L 124.40 181.04 C 124.45 180.13 123.76 179.35 122.85 179.30 C 121.95 179.25 121.17 179.95 121.12 180.85 Z M 121.08 181.72 L 121.01 182.66 C 120.94 183.57 121.61 184.35 122.51 184.42 C 123.41 184.50 124.20 183.82 124.27 182.92 L 124.35 181.97 C 124.42 181.07 123.74 180.28 122.84 180.21 C 121.94 180.14 121.15 180.81 121.08 181.72 Z M 121.02 182.63 L 120.91 183.69 C 120.83 184.59 121.48 185.39 122.38 185.47 C 123.28 185.56 124.07 184.90 124.16 184.01 L 124.26 182.95 C 124.35 182.05 123.69 181.26 122.80 181.17 C 121.90 181.08 121.10 181.74 121.02 182.63 Z M 120.92 183.67 L 120.81 184.71 C 120.71 185.60 121.36 186.40 122.25 186.50 C 123.14 186.59 123.94 185.95 124.04 185.06 L 124.15 184.03 C 124.25 183.13 123.60 182.33 122.71 182.23 C 121.82 182.14 121.02 182.78 120.92 183.67 Z M 120.82 184.71 L 120.71 185.67 C 120.62 186.56 121.26 187.36 122.15 187.46 C 123.04 187.55 123.84 186.91 123.93 186.02 L 124.04 185.06 C 124.13 184.17 123.49 183.37 122.60 183.27 C 121.71 183.18 120.91 183.82 120.82 184.71 Z M 120.71 185.69 L 120.62 186.71 C 120.53 187.60 121.19 188.38 122.07 188.47 C 122.96 188.55 123.75 187.90 123.83 187.01 L 123.93 186.00 C 124.01 185.11 123.36 184.32 122.47 184.24 C 121.59 184.15 120.80 184.81 120.71 185.69 Z M 120.62 186.75 L 120.55 187.78 C 120.49 188.67 121.16 189.44 122.04 189.50 C 122.93 189.56 123.70 188.89 123.76 188.01 L 123.83 186.97 C 123.89 186.09 123.22 185.32 122.34 185.26 C 121.45 185.19 120.68 185.86 120.62 186.75 Z M 120.55 187.85 L 120.52 188.87 C 120.49 189.75 121.19 190.49 122.08 190.52 C 122.96 190.55 123.70 189.85 123.73 188.96 L 123.76 187.94 C 123.78 187.06 123.09 186.32 122.20 186.29 C 121.32 186.27 120.58 186.96 120.55 187.85 Z M 120.53 188.96 L 120.56 190.01 C 120.58 190.89 121.32 191.58 122.20 191.56 C 123.08 191.53 123.77 190.80 123.75 189.92 L 123.72 188.87 C 123.69 187.99 122.96 187.30 122.08 187.32 C 121.20 187.35 120.50 188.08 120.53 188.96 Z M 120.58 190.11 L 120.67 191.13 C 120.75 192.00 121.52 192.64 122.39 192.56 C 123.26 192.48 123.90 191.71 123.82 190.84 L 123.73 189.82 C 123.65 188.95 122.88 188.31 122.01 188.39 C 121.14 188.47 120.50 189.24 120.58 190.11 Z M 120.70 191.20 L 120.84 192.18 C 120.96 193.04 121.75 193.63 122.61 193.51 C 123.46 193.39 124.06 192.59 123.94 191.74 L 123.80 190.76 C 123.67 189.91 122.88 189.31 122.02 189.43 C 121.17 189.56 120.57 190.35 120.70 191.20 Z M 120.86 192.23 L 121.03 193.18 C 121.18 194.03 121.99 194.59 122.83 194.44 C 123.67 194.29 124.23 193.48 124.08 192.64 L 123.91 191.69 C 123.76 190.85 122.96 190.29 122.12 190.44 C 121.27 190.59 120.71 191.39 120.86 192.23 Z M 121.05 193.20 L 121.17 193.83 C 121.33 194.66 122.13 195.20 122.97 195.04 C 123.80 194.88 124.34 194.08 124.18 193.25 L 124.06 192.62 C 123.90 191.79 123.10 191.24 122.27 191.40 C 121.43 191.56 120.89 192.37 121.05 193.20 Z"
      fill="black"
      fill-rule="nonzero" /><path d="M 151.67 114.00 L 150.28 113.97 C 149.39 113.96 148.65 114.67 148.64 115.57 C 148.62 116.47 149.34 117.20 150.23 117.22 L 151.62 117.24 C 152.52 117.25 153.26 116.54 153.27 115.64 C 153.28 114.75 152.57 114.01 151.67 114.00 Z M 150.28 113.96 L 148.95 113.93 C 148.05 113.92 147.30 114.64 147.29 115.55 C 147.27 116.45 148.00 117.20 148.90 117.21 L 150.23 117.23 C 151.14 117.25 151.88 116.53 151.90 115.62 C 151.91 114.72 151.19 113.97 150.28 113.96 Z M 148.96 113.92 L 147.76 113.90 C 146.84 113.88 146.09 114.61 146.07 115.53 C 146.06 116.44 146.79 117.20 147.70 117.21 L 148.90 117.23 C 149.82 117.25 150.57 116.52 150.59 115.60 C 150.60 114.69 149.87 113.93 148.96 113.92 Z M 147.76 113.88 L 146.75 113.86 C 145.83 113.84 145.06 114.58 145.05 115.51 C 145.03 116.43 145.77 117.20 146.69 117.21 L 147.70 117.23 C 148.62 117.25 149.39 116.51 149.41 115.58 C 149.42 114.66 148.69 113.90 147.76 113.88 Z M 146.76 113.84 L 146.01 113.83 C 145.07 113.81 144.30 114.55 144.28 115.49 C 144.26 116.42 145.00 117.20 145.94 117.21 L 146.69 117.23 C 147.62 117.25 148.40 116.51 148.42 115.57 C 148.44 114.64 147.69 113.86 146.76 113.84 Z M 146.03 113.81 L 145.60 113.80 C 144.65 113.77 143.86 114.51 143.84 115.46 C 143.81 116.40 144.55 117.19 145.50 117.22 L 145.92 117.23 C 146.87 117.26 147.66 116.52 147.69 115.57 C 147.71 114.63 146.97 113.84 146.03 113.81 Z M 145.99 117.17 L 146.04 117.16 C 146.96 116.91 147.51 115.97 147.26 115.05 C 147.01 114.13 146.07 113.58 145.15 113.83 L 145.10 113.84 C 144.18 114.09 143.64 115.04 143.88 115.95 C 144.13 116.87 145.08 117.42 145.99 117.17 Z M 145.61 117.22 L 146.39 117.21 C 147.34 117.20 148.11 116.42 148.10 115.47 C 148.09 114.52 147.31 113.76 146.36 113.77 L 145.58 113.77 C 144.63 113.78 143.87 114.56 143.87 115.51 C 143.88 116.46 144.66 117.23 145.61 117.22 Z M 146.38 117.21 L 147.61 117.21 C 148.56 117.20 149.33 116.43 149.33 115.48 C 149.33 114.53 148.56 113.76 147.61 113.76 L 146.37 113.77 C 145.42 113.77 144.65 114.54 144.65 115.49 C 144.66 116.44 145.43 117.21 146.38 117.21 Z M 147.61 117.20 L 148.99 117.20 C 149.94 117.20 150.71 116.43 150.71 115.48 C 150.71 114.53 149.94 113.76 148.99 113.76 L 147.61 113.77 C 146.66 113.77 145.89 114.54 145.89 115.49 C 145.89 116.43 146.66 117.20 147.61 117.20 Z M 148.99 117.20 L 150.04 117.20 C 150.99 117.20 151.75 116.43 151.75 115.48 C 151.75 114.54 150.98 113.77 150.04 113.77 L 148.99 113.77 C 148.04 113.77 147.28 114.54 147.28 115.49 C 147.28 116.43 148.05 117.20 148.99 117.20 Z M 150.04 117.19 L 151.04 117.19 C 151.98 117.18 152.75 116.42 152.74 115.47 C 152.74 114.53 151.97 113.77 151.03 113.77 L 150.03 113.77 C 149.09 113.78 148.32 114.55 148.33 115.49 C 148.33 116.43 149.10 117.20 150.04 117.19 Z M 151.05 117.18 L 152.03 117.17 C 152.97 117.16 153.72 116.39 153.71 115.45 C 153.70 114.51 152.93 113.76 151.99 113.77 L 151.01 113.78 C 150.07 113.79 149.32 114.56 149.33 115.50 C 149.34 116.44 150.11 117.19 151.05 117.18 Z M 152.04 117.16 L 153.02 117.14 C 153.96 117.12 154.70 116.35 154.68 115.41 C 154.66 114.47 153.88 113.73 152.95 113.75 L 151.97 113.77 C 151.03 113.79 150.29 114.57 150.31 115.51 C 150.33 116.44 151.11 117.18 152.04 117.16 Z M 153.04 117.14 L 154.04 117.10 C 154.97 117.07 155.70 116.29 155.67 115.36 C 155.63 114.42 154.85 113.69 153.92 113.72 L 152.93 113.76 C 151.99 113.79 151.26 114.57 151.30 115.51 C 151.33 116.44 152.11 117.17 153.04 117.14 Z M 154.06 117.10 L 154.99 117.05 C 155.92 117.01 156.64 116.22 156.59 115.29 C 156.55 114.36 155.76 113.64 154.83 113.69 L 153.90 113.73 C 152.97 113.78 152.25 114.56 152.30 115.49 C 152.34 116.42 153.13 117.14 154.06 117.10 Z M 155.01 117.04 L 155.99 116.99 C 156.91 116.93 157.62 116.13 157.56 115.21 C 157.50 114.28 156.71 113.58 155.78 113.63 L 154.81 113.69 C 153.88 113.75 153.18 114.55 153.24 115.47 C 153.29 116.40 154.09 117.10 155.01 117.04 Z M 156.01 116.98 L 157.01 116.90 C 157.93 116.83 158.62 116.03 158.55 115.11 C 158.48 114.19 157.68 113.49 156.76 113.56 L 155.76 113.64 C 154.84 113.71 154.14 114.51 154.21 115.44 C 154.28 116.36 155.09 117.05 156.01 116.98 Z M 157.04 116.90 L 158.06 116.80 C 158.98 116.72 159.65 115.91 159.57 114.99 C 159.49 114.07 158.68 113.39 157.76 113.48 L 156.73 113.57 C 155.81 113.66 155.14 114.47 155.22 115.39 C 155.31 116.30 156.12 116.98 157.04 116.90 Z M 158.09 116.79 L 159.13 116.68 C 160.04 116.58 160.70 115.76 160.60 114.85 C 160.51 113.93 159.68 113.27 158.77 113.37 L 157.73 113.49 C 156.82 113.59 156.16 114.41 156.25 115.32 C 156.35 116.23 157.17 116.89 158.09 116.79 Z M 159.16 116.67 L 160.21 116.54 C 161.12 116.42 161.77 115.59 161.65 114.68 C 161.53 113.78 160.70 113.13 159.80 113.25 L 158.74 113.38 C 157.83 113.50 157.19 114.33 157.31 115.24 C 157.42 116.14 158.25 116.79 159.16 116.67 Z M 160.24 116.53 L 161.29 116.38 C 162.20 116.25 162.82 115.41 162.69 114.51 C 162.56 113.61 161.73 112.98 160.82 113.11 L 159.77 113.26 C 158.87 113.39 158.24 114.23 158.37 115.13 C 158.50 116.03 159.34 116.66 160.24 116.53 Z M 161.31 116.37 L 162.35 116.20 C 163.24 116.06 163.85 115.22 163.71 114.33 C 163.57 113.43 162.73 112.82 161.84 112.96 L 160.80 113.12 C 159.91 113.26 159.30 114.10 159.44 115.00 C 159.58 115.89 160.42 116.51 161.31 116.37 Z M 162.36 116.19 L 163.35 116.03 C 164.24 115.88 164.85 115.04 164.70 114.15 C 164.55 113.26 163.71 112.66 162.82 112.80 L 161.82 112.97 C 160.93 113.12 160.33 113.96 160.48 114.85 C 160.63 115.74 161.47 116.34 162.36 116.19 Z M 163.36 116.02 L 164.30 115.86 C 165.18 115.71 165.78 114.86 165.63 113.98 C 165.47 113.09 164.63 112.50 163.75 112.65 L 162.81 112.81 C 161.92 112.96 161.33 113.81 161.48 114.69 C 161.63 115.58 162.48 116.17 163.36 116.02 Z M 164.30 115.85 L 165.20 115.69 C 166.08 115.54 166.67 114.70 166.52 113.82 C 166.36 112.94 165.53 112.35 164.65 112.50 L 163.75 112.66 C 162.87 112.81 162.28 113.65 162.43 114.53 C 162.58 115.41 163.42 116.00 164.30 115.85 Z M 165.20 115.68 L 166.33 115.48 C 167.20 115.33 167.79 114.50 167.64 113.63 C 167.49 112.76 166.66 112.17 165.78 112.32 L 164.65 112.52 C 163.78 112.67 163.19 113.50 163.34 114.37 C 163.49 115.24 164.32 115.83 165.20 115.68 Z M 166.32 115.47 L 167.31 115.30 C 168.17 115.15 168.76 114.33 168.61 113.47 C 168.46 112.60 167.64 112.02 166.78 112.17 L 165.79 112.34 C 164.93 112.48 164.34 113.30 164.49 114.17 C 164.64 115.03 165.46 115.62 166.32 115.47 Z M 167.31 115.28 L 168.20 115.13 C 169.05 114.99 169.63 114.18 169.48 113.32 C 169.34 112.47 168.53 111.89 167.67 112.03 L 166.78 112.19 C 165.93 112.33 165.35 113.14 165.49 114.00 C 165.64 114.85 166.45 115.43 167.31 115.28 Z M 168.20 115.12 L 169.11 114.96 C 169.96 114.82 170.53 114.01 170.38 113.17 C 170.24 112.32 169.43 111.75 168.59 111.89 L 167.67 112.05 C 166.83 112.19 166.26 113.00 166.40 113.84 C 166.55 114.69 167.35 115.26 168.20 115.12 Z M 169.11 114.95 L 170.10 114.78 C 170.94 114.63 171.50 113.84 171.36 113.00 C 171.21 112.16 170.42 111.59 169.58 111.74 L 168.59 111.91 C 167.75 112.05 167.18 112.85 167.33 113.69 C 167.47 114.53 168.27 115.09 169.11 114.95 Z M 170.10 114.77 L 171.08 114.60 C 171.91 114.45 172.47 113.66 172.33 112.83 C 172.18 111.99 171.39 111.43 170.56 111.58 L 169.58 111.75 C 168.74 111.89 168.18 112.69 168.33 113.52 C 168.47 114.35 169.27 114.91 170.10 114.77 Z M 171.08 114.59 L 172.06 114.42 C 172.88 114.27 173.44 113.49 173.29 112.66 C 173.15 111.83 172.36 111.28 171.53 111.42 L 170.56 111.59 C 169.73 111.73 169.18 112.52 169.32 113.35 C 169.46 114.18 170.25 114.73 171.08 114.59 Z M 172.06 114.41 L 173.03 114.24 C 173.85 114.09 174.40 113.31 174.26 112.49 C 174.11 111.67 173.33 111.12 172.51 111.26 L 171.53 111.43 C 170.71 111.57 170.16 112.36 170.31 113.18 C 170.45 114.00 171.23 114.55 172.06 114.41 Z M 173.03 114.22 L 174.02 114.05 C 174.83 113.90 175.38 113.12 175.23 112.31 C 175.08 111.49 174.31 110.95 173.49 111.09 L 172.50 111.27 C 171.69 111.42 171.15 112.20 171.29 113.01 C 171.44 113.83 172.22 114.37 173.03 114.22 Z M 174.02 114.04 L 175.01 113.86 C 175.82 113.71 176.35 112.93 176.20 112.12 C 176.05 111.31 175.28 110.77 174.47 110.92 L 173.48 111.11 C 172.67 111.26 172.14 112.03 172.29 112.84 C 172.44 113.65 173.22 114.19 174.02 114.04 Z M 175.01 113.85 L 175.93 113.67 C 176.73 113.52 177.26 112.75 177.11 111.94 C 176.95 111.14 176.18 110.61 175.37 110.76 L 174.46 110.93 C 173.66 111.09 173.13 111.86 173.28 112.67 C 173.43 113.47 174.21 114.00 175.01 113.85 Z M 175.91 113.67 L 176.88 113.49 C 177.68 113.34 178.21 112.58 178.06 111.78 C 177.92 110.98 177.15 110.45 176.35 110.59 L 175.39 110.77 C 174.58 110.91 174.05 111.68 174.20 112.48 C 174.35 113.28 175.11 113.81 175.91 113.67 Z M 176.86 113.49 L 177.90 113.31 C 178.70 113.18 179.24 112.42 179.10 111.63 C 178.97 110.83 178.22 110.29 177.42 110.42 L 176.37 110.60 C 175.58 110.73 175.04 111.48 175.17 112.28 C 175.30 113.08 176.06 113.62 176.86 113.49 Z M 177.87 113.31 L 178.88 113.16 C 179.68 113.05 180.23 112.31 180.12 111.51 C 180.00 110.71 179.26 110.16 178.46 110.28 L 177.45 110.42 C 176.65 110.54 176.10 111.28 176.21 112.08 C 176.33 112.87 177.07 113.43 177.87 113.31 Z M 178.86 113.16 L 179.85 113.03 C 180.65 112.93 181.21 112.20 181.11 111.41 C 181.01 110.61 180.28 110.05 179.48 110.15 L 178.49 110.28 C 177.69 110.38 177.13 111.11 177.23 111.90 C 177.33 112.70 178.06 113.26 178.86 113.16 Z M 179.83 113.03 L 180.85 112.92 C 181.65 112.83 182.22 112.11 182.13 111.31 C 182.04 110.52 181.32 109.95 180.53 110.04 L 179.51 110.15 C 178.71 110.24 178.14 110.96 178.23 111.75 C 178.32 112.55 179.04 113.12 179.83 113.03 Z M 180.83 112.91 L 181.84 112.81 C 182.63 112.74 183.21 112.03 183.13 111.23 C 183.05 110.44 182.35 109.86 181.55 109.94 L 180.55 110.04 C 179.75 110.12 179.17 110.82 179.25 111.62 C 179.33 112.41 180.04 112.99 180.83 112.91 Z M 181.81 112.81 L 182.82 112.73 C 183.62 112.66 184.21 111.97 184.14 111.17 C 184.07 110.38 183.38 109.79 182.58 109.86 L 181.57 109.94 C 180.78 110.01 180.19 110.70 180.26 111.50 C 180.33 112.29 181.02 112.88 181.81 112.81 Z M 182.80 112.73 L 183.85 112.66 C 184.64 112.60 185.24 111.92 185.19 111.13 C 185.14 110.34 184.45 109.74 183.66 109.79 L 182.61 109.86 C 181.82 109.91 181.22 110.60 181.27 111.39 C 181.32 112.18 182.01 112.78 182.80 112.73 Z M 183.83 112.65 L 184.81 112.60 C 185.60 112.56 186.21 111.89 186.17 111.10 C 186.13 110.31 185.46 109.70 184.67 109.74 L 183.68 109.79 C 182.89 109.83 182.28 110.51 182.32 111.30 C 182.36 112.09 183.04 112.69 183.83 112.65 Z M 184.80 112.60 L 185.75 112.56 C 186.54 112.53 187.15 111.86 187.12 111.07 C 187.09 110.28 186.42 109.67 185.63 109.70 L 184.68 109.74 C 183.89 109.78 183.28 110.44 183.31 111.23 C 183.35 112.02 184.01 112.63 184.80 112.60 Z M 185.75 112.56 L 186.10 112.54 C 186.89 112.51 187.50 111.85 187.47 111.06 C 187.44 110.28 186.78 109.66 185.99 109.69 L 185.64 109.71 C 184.85 109.74 184.23 110.40 184.26 111.19 C 184.30 111.97 184.96 112.59 185.75 112.56 Z"
      fill="black"
      fill-rule="nonzero" /><path d="M 150.21 128.66 L 149.17 128.92 C 148.33 129.13 147.83 129.97 148.04 130.81 C 148.25 131.64 149.09 132.15 149.93 131.94 L 150.97 131.68 C 151.80 131.47 152.31 130.63 152.10 129.79 C 151.89 128.95 151.05 128.45 150.21 128.66 Z M 149.16 128.91 L 148.14 129.17 C 147.30 129.39 146.79 130.24 147.01 131.08 C 147.22 131.92 148.07 132.42 148.91 132.21 L 149.94 131.95 C 150.78 131.73 151.28 130.88 151.07 130.04 C 150.85 129.20 150.00 128.70 149.16 128.91 Z M 148.12 129.17 L 147.13 129.43 C 146.29 129.65 145.79 130.52 146.01 131.36 C 146.23 132.20 147.09 132.70 147.93 132.48 L 148.93 132.21 C 149.77 131.99 150.27 131.13 150.05 130.29 C 149.82 129.45 148.96 128.95 148.12 129.17 Z M 147.10 129.43 L 146.15 129.70 C 145.31 129.93 144.82 130.80 145.06 131.65 C 145.29 132.49 146.16 132.98 147.01 132.74 L 147.96 132.48 C 148.80 132.24 149.29 131.37 149.05 130.53 C 148.82 129.69 147.94 129.20 147.10 129.43 Z M 146.12 129.70 L 145.23 129.97 C 144.39 130.22 143.92 131.11 144.17 131.95 C 144.43 132.79 145.31 133.26 146.15 133.01 L 147.04 132.74 C 147.88 132.49 148.35 131.60 148.10 130.76 C 147.85 129.92 146.96 129.45 146.12 129.70 Z M 145.17 129.98 L 144.07 130.36 C 143.23 130.64 142.79 131.55 143.08 132.39 C 143.36 133.22 144.27 133.67 145.11 133.38 L 146.21 133.00 C 147.05 132.71 147.49 131.80 147.20 130.97 C 146.92 130.14 146.01 129.69 145.17 129.98 Z M 143.93 130.39 L 142.78 130.90 C 141.97 131.26 141.60 132.22 141.96 133.03 C 142.32 133.84 143.28 134.21 144.09 133.85 L 145.24 133.34 C 146.05 132.98 146.42 132.03 146.06 131.22 C 145.70 130.40 144.75 130.03 143.93 130.39 Z M 142.35 131.17 L 141.88 131.59 C 141.21 132.19 141.15 133.22 141.75 133.89 C 142.36 134.56 143.39 134.61 144.06 134.01 L 144.53 133.59 C 145.20 132.99 145.25 131.96 144.65 131.29 C 144.05 130.62 143.02 130.56 142.35 131.17 Z M 141.94 134.08 L 142.23 134.31 C 142.94 134.88 143.97 134.76 144.54 134.06 C 145.10 133.35 144.99 132.32 144.28 131.75 L 143.99 131.52 C 143.28 130.95 142.25 131.07 141.68 131.77 C 141.12 132.48 141.23 133.52 141.94 134.08 Z M 143.04 134.66 L 143.72 134.75 C 144.63 134.87 145.45 134.24 145.57 133.33 C 145.69 132.43 145.05 131.61 144.15 131.49 L 143.47 131.40 C 142.57 131.28 141.74 131.92 141.62 132.82 C 141.50 133.72 142.14 134.55 143.04 134.66 Z M 143.95 134.77 L 144.95 134.76 C 145.86 134.75 146.60 134.01 146.59 133.10 C 146.58 132.19 145.84 131.46 144.93 131.46 L 143.92 131.47 C 143.01 131.48 142.28 132.22 142.29 133.13 C 142.30 134.04 143.04 134.78 143.95 134.77 Z M 145.09 134.75 L 146.33 134.64 C 147.24 134.55 147.91 133.75 147.82 132.84 C 147.74 131.94 146.93 131.27 146.02 131.35 L 144.79 131.47 C 143.88 131.56 143.21 132.36 143.30 133.27 C 143.38 134.17 144.19 134.84 145.09 134.75 Z M 146.45 134.62 L 147.79 134.40 C 148.68 134.25 149.29 133.40 149.14 132.50 C 148.99 131.60 148.14 131.00 147.24 131.15 L 145.91 131.37 C 145.01 131.52 144.40 132.37 144.55 133.27 C 144.70 134.17 145.55 134.77 146.45 134.62 Z M 147.88 134.38 L 148.80 134.17 C 149.69 133.97 150.24 133.09 150.04 132.20 C 149.84 131.31 148.96 130.76 148.07 130.96 L 147.15 131.17 C 146.26 131.37 145.71 132.25 145.91 133.14 C 146.11 134.02 146.99 134.58 147.88 134.38 Z M 148.86 134.15 L 149.80 133.90 C 150.68 133.67 151.20 132.77 150.97 131.89 C 150.74 131.02 149.84 130.49 148.96 130.73 L 148.02 130.98 C 147.14 131.21 146.62 132.11 146.85 132.98 C 147.08 133.86 147.98 134.38 148.86 134.15 Z M 149.85 133.89 L 150.81 133.60 C 151.68 133.34 152.17 132.43 151.92 131.56 C 151.66 130.70 150.75 130.20 149.88 130.46 L 148.92 130.74 C 148.05 131.00 147.55 131.91 147.81 132.78 C 148.07 133.65 148.98 134.14 149.85 133.89 Z M 150.84 133.59 L 151.81 133.27 C 152.67 133.00 153.15 132.08 152.87 131.22 C 152.60 130.36 151.68 129.89 150.82 130.16 L 149.85 130.47 C 148.99 130.75 148.51 131.67 148.79 132.53 C 149.06 133.39 149.98 133.86 150.84 133.59 Z M 151.84 133.26 L 152.81 132.93 C 153.66 132.65 154.12 131.72 153.83 130.87 C 153.54 130.02 152.62 129.56 151.77 129.85 L 150.79 130.18 C 149.94 130.46 149.48 131.39 149.77 132.24 C 150.06 133.09 150.99 133.55 151.84 133.26 Z M 152.83 132.92 L 153.79 132.58 C 154.64 132.29 155.08 131.36 154.79 130.51 C 154.49 129.67 153.56 129.22 152.72 129.52 L 151.75 129.86 C 150.90 130.15 150.46 131.08 150.76 131.93 C 151.05 132.77 151.98 133.22 152.83 132.92 Z M 153.80 132.58 L 154.76 132.23 C 155.60 131.93 156.04 131.00 155.74 130.16 C 155.44 129.32 154.51 128.88 153.67 129.18 L 152.71 129.53 C 151.86 129.83 151.43 130.76 151.73 131.60 C 152.03 132.44 152.96 132.88 153.80 132.58 Z M 154.76 132.22 L 155.83 131.84 C 156.67 131.54 157.10 130.61 156.80 129.77 C 156.49 128.94 155.57 128.50 154.73 128.81 L 153.67 129.19 C 152.83 129.49 152.40 130.42 152.70 131.25 C 153.00 132.09 153.93 132.53 154.76 132.22 Z M 155.83 131.83 L 156.85 131.45 C 157.69 131.15 158.12 130.23 157.81 129.40 C 157.51 128.57 156.59 128.14 155.76 128.44 L 154.73 128.81 C 153.90 129.12 153.47 130.04 153.77 130.87 C 154.08 131.70 155.00 132.13 155.83 131.83 Z M 156.86 131.45 L 157.83 131.09 C 158.66 130.78 159.08 129.86 158.78 129.04 C 158.48 128.21 157.56 127.79 156.73 128.09 L 155.75 128.45 C 154.93 128.75 154.50 129.67 154.81 130.50 C 155.11 131.33 156.03 131.75 156.86 131.45 Z M 157.83 131.08 L 158.76 130.73 C 159.58 130.43 160.00 129.52 159.69 128.69 C 159.39 127.87 158.47 127.45 157.65 127.76 L 156.73 128.10 C 155.91 128.41 155.49 129.32 155.79 130.14 C 156.10 130.96 157.01 131.38 157.83 131.08 Z M 158.76 130.72 L 159.61 130.40 C 160.43 130.10 160.84 129.19 160.53 128.37 C 160.23 127.56 159.32 127.14 158.50 127.45 L 157.65 127.77 C 156.83 128.08 156.42 128.98 156.73 129.80 C 157.03 130.62 157.94 131.03 158.76 130.72 Z M 159.61 130.39 L 160.39 130.10 C 161.20 129.79 161.61 128.88 161.30 128.07 C 161.00 127.26 160.09 126.86 159.28 127.16 L 158.50 127.46 C 157.69 127.77 157.28 128.67 157.59 129.48 C 157.90 130.29 158.80 130.70 159.61 130.39 Z M 160.40 130.09 L 161.50 129.66 C 162.30 129.35 162.70 128.45 162.39 127.64 C 162.08 126.84 161.18 126.44 160.37 126.75 L 159.27 127.18 C 158.47 127.49 158.07 128.39 158.38 129.19 C 158.69 130.00 159.59 130.40 160.40 130.09 Z M 161.50 129.65 L 162.45 129.28 C 163.24 128.96 163.63 128.07 163.32 127.27 C 163.01 126.47 162.11 126.08 161.32 126.39 L 160.37 126.76 C 159.58 127.08 159.18 127.97 159.50 128.77 C 159.81 129.57 160.71 129.96 161.50 129.65 Z M 162.44 129.27 L 163.28 128.94 C 164.07 128.63 164.46 127.74 164.15 126.95 C 163.84 126.16 162.95 125.77 162.16 126.07 L 161.32 126.40 C 160.53 126.71 160.14 127.60 160.45 128.40 C 160.76 129.19 161.65 129.58 162.44 129.27 Z M 163.27 128.93 L 164.10 128.61 C 164.89 128.31 165.29 127.43 164.99 126.64 C 164.69 125.86 163.80 125.46 163.02 125.76 L 162.18 126.08 C 161.39 126.38 161.00 127.26 161.30 128.05 C 161.60 128.84 162.48 129.23 163.27 128.93 Z M 164.08 128.61 L 165.02 128.27 C 165.80 127.98 166.21 127.11 165.92 126.32 C 165.63 125.54 164.76 125.13 163.98 125.42 L 163.04 125.76 C 162.25 126.05 161.85 126.92 162.13 127.71 C 162.42 128.50 163.29 128.90 164.08 128.61 Z M 165.00 128.27 L 165.94 127.94 C 166.73 127.66 167.14 126.79 166.86 126.01 C 166.59 125.22 165.72 124.81 164.94 125.09 L 163.99 125.42 C 163.20 125.70 162.79 126.56 163.07 127.35 C 163.35 128.14 164.21 128.55 165.00 128.27 Z M 165.94 127.93 L 166.88 127.60 C 167.66 127.33 168.07 126.47 167.80 125.69 C 167.53 124.90 166.67 124.49 165.89 124.76 L 164.94 125.09 C 164.16 125.36 163.75 126.22 164.02 127.01 C 164.29 127.79 165.15 128.21 165.94 127.93 Z M 166.87 127.60 L 167.71 127.31 C 168.49 127.04 168.90 126.18 168.63 125.40 C 168.36 124.62 167.51 124.21 166.73 124.48 L 165.89 124.77 C 165.11 125.04 164.69 125.89 164.96 126.67 C 165.24 127.46 166.09 127.87 166.87 127.60 Z M 167.70 127.31 L 168.60 127.00 C 169.38 126.73 169.79 125.88 169.52 125.10 C 169.25 124.32 168.40 123.90 167.62 124.17 L 166.73 124.48 C 165.95 124.75 165.54 125.60 165.81 126.38 C 166.07 127.16 166.92 127.57 167.70 127.31 Z M 168.59 127.00 L 169.59 126.65 C 170.37 126.39 170.79 125.55 170.52 124.77 C 170.26 123.99 169.41 123.57 168.63 123.84 L 167.63 124.18 C 166.85 124.44 166.44 125.29 166.70 126.06 C 166.97 126.84 167.81 127.26 168.59 127.00 Z M 169.58 126.65 L 170.59 126.31 C 171.37 126.06 171.79 125.21 171.53 124.44 C 171.27 123.66 170.43 123.24 169.65 123.50 L 168.64 123.84 C 167.86 124.10 167.45 124.94 167.71 125.72 C 167.96 126.49 168.81 126.91 169.58 126.65 Z M 170.59 126.31 L 171.46 126.03 C 172.23 125.77 172.66 124.93 172.40 124.16 C 172.14 123.38 171.31 122.96 170.53 123.21 L 169.66 123.50 C 168.88 123.76 168.46 124.59 168.72 125.37 C 168.97 126.15 169.81 126.57 170.59 126.31 Z M 171.45 126.03 L 172.38 125.72 C 173.16 125.47 173.58 124.64 173.33 123.86 C 173.08 123.08 172.25 122.66 171.47 122.91 L 170.54 123.21 C 169.76 123.47 169.34 124.30 169.59 125.08 C 169.84 125.85 170.67 126.28 171.45 126.03 Z M 172.38 125.72 L 173.36 125.41 C 174.13 125.16 174.56 124.33 174.31 123.56 C 174.06 122.78 173.24 122.35 172.46 122.60 L 171.48 122.91 C 170.70 123.16 170.27 123.99 170.52 124.77 C 170.77 125.54 171.60 125.97 172.38 125.72 Z M 173.35 125.41 L 174.35 125.10 C 175.13 124.85 175.56 124.03 175.32 123.25 C 175.08 122.48 174.25 122.04 173.48 122.29 L 172.47 122.60 C 171.69 122.84 171.26 123.67 171.50 124.44 C 171.74 125.22 172.57 125.65 173.35 125.41 Z M 174.34 125.10 L 175.36 124.79 C 176.14 124.55 176.58 123.73 176.34 122.95 C 176.10 122.18 175.28 121.74 174.51 121.98 L 173.49 122.28 C 172.71 122.52 172.27 123.34 172.51 124.12 C 172.75 124.89 173.57 125.33 174.34 125.10 Z M 175.35 124.79 L 176.36 124.49 C 177.14 124.26 177.58 123.45 177.35 122.67 C 177.13 121.90 176.31 121.45 175.53 121.68 L 174.52 121.98 C 173.75 122.20 173.30 123.02 173.53 123.79 C 173.76 124.57 174.57 125.01 175.35 124.79 Z M 176.34 124.49 L 177.34 124.21 C 178.12 123.99 178.57 123.19 178.35 122.41 C 178.13 121.63 177.33 121.18 176.55 121.40 L 175.55 121.68 C 174.78 121.90 174.32 122.70 174.54 123.48 C 174.76 124.26 175.56 124.71 176.34 124.49 Z M 177.32 124.21 L 178.30 123.95 C 179.08 123.74 179.54 122.95 179.33 122.17 C 179.13 121.39 178.33 120.93 177.55 121.14 L 176.57 121.40 C 175.79 121.60 175.33 122.40 175.54 123.18 C 175.75 123.96 176.54 124.42 177.32 124.21 Z M 178.28 123.95 L 179.23 123.71 C 180.01 123.52 180.48 122.73 180.29 121.96 C 180.10 121.18 179.31 120.70 178.53 120.90 L 177.58 121.14 C 176.80 121.33 176.32 122.12 176.52 122.89 C 176.71 123.67 177.50 124.14 178.28 123.95 Z M 179.21 123.72 L 180.13 123.50 C 180.91 123.33 181.40 122.55 181.22 121.77 C 181.05 120.99 180.27 120.51 179.49 120.68 L 178.56 120.90 C 177.78 121.07 177.30 121.85 177.47 122.63 C 177.65 123.41 178.43 123.89 179.21 123.72 Z M 180.10 123.51 L 181.24 123.28 C 182.02 123.12 182.52 122.36 182.37 121.58 C 182.21 120.80 181.45 120.30 180.67 120.45 L 179.53 120.68 C 178.75 120.84 178.24 121.60 178.40 122.38 C 178.56 123.16 179.32 123.66 180.10 123.51 Z M 181.17 123.29 L 182.45 123.09 C 183.24 122.97 183.78 122.24 183.66 121.45 C 183.53 120.66 182.80 120.13 182.01 120.25 L 180.73 120.44 C 179.95 120.56 179.41 121.30 179.53 122.08 C 179.65 122.87 180.38 123.41 181.17 123.29 Z M 182.32 123.10 L 183.26 123.05 C 184.05 123.00 184.66 122.32 184.61 121.53 C 184.56 120.74 183.88 120.13 183.09 120.18 L 182.15 120.23 C 181.36 120.28 180.75 120.96 180.80 121.75 C 180.84 122.54 181.52 123.15 182.32 123.10 Z M 182.76 122.99 L 183.19 123.12 C 183.95 123.35 184.75 122.92 184.98 122.17 C 185.22 121.41 184.79 120.60 184.03 120.37 L 183.59 120.24 C 182.83 120.01 182.03 120.44 181.80 121.19 C 181.57 121.95 182.00 122.76 182.76 122.99 Z M 182.43 120.91 L 182.12 121.35 C 181.66 122.00 181.81 122.90 182.46 123.36 C 183.11 123.82 184.01 123.67 184.47 123.02 L 184.79 122.58 C 185.25 121.93 185.09 121.03 184.45 120.57 C 183.80 120.11 182.90 120.26 182.43 120.91 Z M 182.53 120.95 L 181.55 121.57 C 180.87 121.99 180.66 122.89 181.09 123.57 C 181.51 124.25 182.41 124.46 183.09 124.03 L 184.07 123.42 C 184.75 122.99 184.96 122.10 184.53 121.42 C 184.10 120.73 183.21 120.53 182.53 120.95 Z M 181.68 121.48 L 180.56 122.03 C 179.84 122.38 179.53 123.26 179.89 123.99 C 180.25 124.72 181.12 125.02 181.85 124.66 L 182.96 124.12 C 183.69 123.76 183.99 122.88 183.64 122.16 C 183.28 121.43 182.40 121.13 181.68 121.48 Z M 180.64 121.98 L 179.72 122.36 C 178.97 122.67 178.61 123.54 178.93 124.29 C 179.24 125.04 180.10 125.40 180.85 125.09 L 181.77 124.71 C 182.53 124.40 182.88 123.53 182.57 122.78 C 182.26 122.03 181.40 121.67 180.64 121.98 Z M 179.79 122.33 L 178.84 122.67 C 178.07 122.95 177.67 123.80 177.95 124.57 C 178.23 125.34 179.08 125.74 179.85 125.46 L 180.79 125.12 C 181.57 124.84 181.97 123.99 181.69 123.22 C 181.41 122.45 180.56 122.05 179.79 122.33 Z M 178.90 122.64 L 177.93 122.94 C 177.15 123.19 176.71 124.03 176.96 124.82 C 177.21 125.61 178.05 126.04 178.84 125.79 L 179.80 125.49 C 180.58 125.24 181.02 124.40 180.77 123.61 C 180.52 122.83 179.68 122.39 178.90 122.64 Z M 177.98 122.92 L 177.00 123.19 C 176.20 123.42 175.73 124.24 175.95 125.05 C 176.18 125.85 177.00 126.31 177.80 126.09 L 178.79 125.82 C 179.59 125.60 180.06 124.77 179.83 123.97 C 179.61 123.17 178.78 122.70 177.98 122.92 Z M 177.04 123.17 L 176.04 123.42 C 175.23 123.62 174.73 124.44 174.93 125.25 C 175.13 126.06 175.95 126.56 176.76 126.36 L 177.76 126.11 C 178.58 125.91 179.07 125.09 178.87 124.28 C 178.67 123.47 177.85 122.97 177.04 123.17 Z M 176.08 123.40 L 175.09 123.61 C 174.27 123.79 173.75 124.61 173.93 125.43 C 174.11 126.25 174.93 126.77 175.75 126.59 L 176.73 126.38 C 177.55 126.20 178.07 125.38 177.89 124.56 C 177.71 123.74 176.90 123.22 176.08 123.40 Z M 175.12 123.60 L 174.17 123.79 C 173.34 123.95 172.80 124.76 172.96 125.60 C 173.13 126.43 173.94 126.97 174.77 126.80 L 175.72 126.61 C 176.56 126.44 177.10 125.63 176.93 124.80 C 176.76 123.97 175.95 123.43 175.12 123.60 Z M 174.18 123.77 L 173.25 123.95 C 172.41 124.11 171.86 124.91 172.01 125.75 C 172.17 126.60 172.98 127.15 173.82 126.99 L 174.75 126.82 C 175.60 126.66 176.15 125.85 175.99 125.01 C 175.83 124.17 175.02 123.62 174.18 123.77 Z M 173.26 123.93 L 172.33 124.10 C 171.48 124.25 170.92 125.06 171.07 125.91 C 171.22 126.75 172.03 127.32 172.87 127.17 L 173.81 127.01 C 174.65 126.86 175.22 126.05 175.07 125.20 C 174.92 124.35 174.11 123.78 173.26 123.93 Z M 172.35 124.08 L 171.37 124.25 C 170.52 124.39 169.94 125.20 170.08 126.05 C 170.22 126.91 171.03 127.49 171.89 127.35 L 172.86 127.18 C 173.72 127.04 174.30 126.23 174.15 125.38 C 174.01 124.52 173.20 123.94 172.35 124.08 Z M 171.38 124.23 L 170.31 124.40 C 169.45 124.54 168.86 125.35 169.00 126.22 C 169.14 127.08 169.95 127.67 170.81 127.53 L 171.88 127.36 C 172.74 127.22 173.33 126.41 173.19 125.55 C 173.05 124.68 172.24 124.10 171.38 124.23 Z M 170.31 124.39 L 169.28 124.56 C 168.42 124.70 167.83 125.51 167.96 126.38 C 168.10 127.25 168.92 127.84 169.79 127.70 L 170.81 127.54 C 171.68 127.40 172.27 126.58 172.13 125.71 C 171.99 124.85 171.18 124.26 170.31 124.39 Z M 169.23 124.56 L 168.19 124.76 C 167.32 124.93 166.75 125.77 166.92 126.64 C 167.09 127.51 167.93 128.07 168.80 127.91 L 169.84 127.70 C 170.71 127.53 171.28 126.69 171.11 125.82 C 170.94 124.96 170.10 124.39 169.23 124.56 Z M 168.06 124.78 L 167.07 125.06 C 166.22 125.29 165.71 126.18 165.95 127.03 C 166.19 127.89 167.07 128.40 167.93 128.16 L 168.92 127.89 C 169.78 127.65 170.28 126.76 170.04 125.91 C 169.81 125.05 168.92 124.55 168.06 124.78 Z M 166.85 125.12 L 166.00 125.50 C 165.18 125.85 164.81 126.81 165.16 127.63 C 165.52 128.45 166.48 128.82 167.30 128.46 L 168.15 128.09 C 168.97 127.73 169.34 126.78 168.98 125.96 C 168.63 125.14 167.67 124.77 166.85 125.12 Z M 165.61 125.73 L 164.89 126.32 C 164.20 126.89 164.11 127.92 164.68 128.61 C 165.26 129.30 166.28 129.40 166.98 128.82 L 167.69 128.23 C 168.38 127.66 168.47 126.63 167.90 125.94 C 167.33 125.25 166.30 125.15 165.61 125.73 Z M 164.48 126.82 L 164.05 127.66 C 163.63 128.47 163.95 129.46 164.76 129.87 C 165.57 130.28 166.55 129.96 166.97 129.15 L 167.39 128.32 C 167.81 127.51 167.49 126.52 166.68 126.11 C 165.88 125.70 164.89 126.02 164.48 126.82 Z M 163.87 128.19 L 163.74 129.17 C 163.61 130.07 164.25 130.90 165.15 131.02 C 166.06 131.15 166.89 130.51 167.01 129.61 L 167.14 128.63 C 167.27 127.73 166.63 126.89 165.73 126.77 C 164.82 126.65 163.99 127.28 163.87 128.19 Z M 163.72 129.51 L 163.79 130.56 C 163.86 131.47 164.66 132.16 165.58 132.09 C 166.49 132.02 167.18 131.23 167.11 130.31 L 167.03 129.26 C 166.96 128.35 166.17 127.66 165.25 127.73 C 164.33 127.80 163.65 128.60 163.72 129.51 Z M 163.81 130.75 L 164.00 131.73 C 164.18 132.63 165.05 133.22 165.96 133.05 C 166.87 132.87 167.46 131.99 167.28 131.09 L 167.09 130.11 C 166.92 129.21 166.04 128.62 165.13 128.79 C 164.23 128.97 163.64 129.85 163.81 130.75 Z M 164.03 131.85 L 164.29 132.83 C 164.53 133.72 165.45 134.25 166.35 134.00 C 167.24 133.76 167.77 132.84 167.52 131.95 L 167.26 130.97 C 167.01 130.08 166.09 129.55 165.20 129.79 C 164.31 130.03 163.78 130.95 164.03 131.85 Z M 164.31 132.90 L 164.62 133.86 C 164.91 134.75 165.85 135.23 166.74 134.94 C 167.62 134.66 168.10 133.71 167.82 132.83 L 167.50 131.87 C 167.22 130.99 166.27 130.50 165.39 130.79 C 164.51 131.08 164.03 132.02 164.31 132.90 Z M 164.63 133.91 L 164.97 134.85 C 165.28 135.73 166.24 136.19 167.12 135.88 C 167.99 135.57 168.45 134.61 168.14 133.73 L 167.80 132.79 C 167.49 131.91 166.53 131.45 165.66 131.76 C 164.78 132.07 164.32 133.03 164.63 133.91 Z M 164.97 134.88 L 165.32 135.83 C 165.65 136.70 166.62 137.15 167.49 136.83 C 168.36 136.50 168.81 135.53 168.49 134.66 L 168.13 133.71 C 167.81 132.84 166.84 132.39 165.97 132.71 C 165.10 133.03 164.65 134.00 164.97 134.88 Z M 165.33 135.84 L 165.67 136.76 C 166.00 137.63 166.97 138.07 167.84 137.75 C 168.71 137.42 169.16 136.45 168.83 135.58 L 168.49 134.65 C 168.16 133.78 167.19 133.34 166.31 133.66 C 165.44 133.99 165.00 134.96 165.33 135.84 Z M 165.66 136.75 L 166.01 137.67 C 166.33 138.55 167.30 139.00 168.18 138.68 C 169.05 138.35 169.50 137.38 169.18 136.51 L 168.84 135.58 C 168.51 134.71 167.54 134.26 166.67 134.58 C 165.79 134.90 165.34 135.88 165.66 136.75 Z M 166.00 137.66 L 166.31 138.55 C 166.63 139.43 167.59 139.89 168.48 139.58 C 169.36 139.26 169.82 138.30 169.50 137.42 L 169.19 136.52 C 168.87 135.64 167.90 135.18 167.02 135.50 C 166.14 135.81 165.68 136.78 166.00 137.66 Z M 166.30 138.53 L 166.62 139.45 C 166.92 140.34 167.89 140.81 168.77 140.51 C 169.66 140.20 170.13 139.24 169.83 138.35 L 169.51 137.43 C 169.21 136.55 168.25 136.08 167.36 136.38 C 166.47 136.68 166.00 137.65 166.30 138.53 Z M 166.61 139.44 L 166.93 140.40 C 167.22 141.29 168.18 141.77 169.07 141.48 C 169.96 141.18 170.45 140.22 170.15 139.33 L 169.84 138.37 C 169.54 137.48 168.58 137.00 167.69 137.29 C 166.80 137.58 166.32 138.54 166.61 139.44 Z M 166.92 140.39 L 167.25 141.40 C 167.53 142.29 168.49 142.79 169.39 142.50 C 170.28 142.21 170.77 141.26 170.49 140.36 L 170.16 139.35 C 169.87 138.45 168.92 137.96 168.02 138.25 C 167.13 138.53 166.63 139.49 166.92 140.39 Z M 167.24 141.39 L 167.53 142.30 C 167.81 143.20 168.76 143.70 169.66 143.42 C 170.56 143.14 171.06 142.18 170.78 141.28 L 170.49 140.37 C 170.21 139.47 169.26 138.97 168.36 139.25 C 167.46 139.54 166.96 140.49 167.24 141.39 Z M 167.52 142.29 L 167.81 143.24 C 168.09 144.14 169.04 144.65 169.94 144.37 C 170.84 144.09 171.35 143.14 171.07 142.24 L 170.78 141.29 C 170.51 140.39 169.55 139.88 168.65 140.16 C 167.75 140.44 167.24 141.39 167.52 142.29 Z M 167.80 143.23 L 168.09 144.20 C 168.36 145.10 169.32 145.62 170.22 145.35 C 171.13 145.07 171.64 144.12 171.37 143.22 L 171.08 142.25 C 170.81 141.34 169.86 140.83 168.95 141.10 C 168.05 141.37 167.53 142.32 167.80 143.23 Z M 168.09 144.19 L 168.37 145.17 C 168.64 146.08 169.59 146.60 170.50 146.34 C 171.41 146.07 171.93 145.12 171.66 144.21 L 171.38 143.23 C 171.11 142.32 170.16 141.80 169.25 142.06 C 168.34 142.33 167.82 143.28 168.09 144.19 Z M 168.37 145.16 L 168.64 146.13 C 168.90 147.04 169.85 147.57 170.76 147.32 C 171.67 147.06 172.20 146.11 171.95 145.20 L 171.67 144.23 C 171.41 143.32 170.46 142.79 169.55 143.04 C 168.64 143.30 168.11 144.25 168.37 145.16 Z M 168.64 146.12 L 168.90 147.07 C 169.15 147.99 170.10 148.53 171.01 148.28 C 171.92 148.03 172.46 147.08 172.21 146.17 L 171.95 145.21 C 171.70 144.30 170.76 143.76 169.84 144.01 C 168.93 144.26 168.39 145.20 168.64 146.12 Z M 168.90 147.06 L 169.15 148.02 C 169.39 148.94 170.33 149.49 171.25 149.24 C 172.16 149.00 172.71 148.07 172.47 147.15 L 172.21 146.18 C 171.97 145.27 171.04 144.72 170.12 144.96 C 169.20 145.20 168.66 146.14 168.90 147.06 Z M 169.15 148.00 L 169.39 148.98 C 169.62 149.90 170.55 150.45 171.47 150.22 C 172.39 149.99 172.95 149.06 172.72 148.14 L 172.47 147.17 C 172.24 146.25 171.31 145.69 170.39 145.92 C 169.47 146.15 168.92 147.09 169.15 148.00 Z M 169.39 148.96 L 169.62 149.94 C 169.84 150.86 170.76 151.43 171.68 151.21 C 172.61 150.99 173.17 150.07 172.96 149.15 L 172.72 148.16 C 172.50 147.24 171.58 146.67 170.66 146.89 C 169.74 147.11 169.17 148.03 169.39 148.96 Z M 169.61 149.92 L 169.83 150.88 C 170.03 151.80 170.95 152.38 171.88 152.18 C 172.80 151.97 173.38 151.05 173.18 150.13 L 172.96 149.17 C 172.76 148.25 171.84 147.66 170.92 147.87 C 169.99 148.08 169.41 148.99 169.61 149.92 Z M 169.82 150.86 L 170.02 151.82 C 170.22 152.75 171.13 153.35 172.06 153.15 C 172.99 152.96 173.58 152.04 173.39 151.12 L 173.19 150.15 C 172.99 149.22 172.08 148.62 171.15 148.82 C 170.22 149.01 169.62 149.93 169.82 150.86 Z M 170.01 151.80 L 170.21 152.78 C 170.39 153.72 171.30 154.33 172.23 154.14 C 173.17 153.96 173.78 153.05 173.59 152.11 L 173.40 151.13 C 173.21 150.20 172.31 149.59 171.37 149.78 C 170.44 149.96 169.83 150.87 170.01 151.80 Z M 170.20 152.77 L 170.38 153.76 C 170.56 154.70 171.46 155.32 172.40 155.14 C 173.34 154.97 173.96 154.06 173.79 153.12 L 173.60 152.13 C 173.42 151.19 172.52 150.57 171.58 150.75 C 170.64 150.92 170.02 151.83 170.20 152.77 Z M 170.38 153.74 L 170.55 154.75 C 170.72 155.70 171.62 156.33 172.57 156.16 C 173.51 155.99 174.14 155.09 173.97 154.15 L 173.79 153.14 C 173.63 152.19 172.73 151.56 171.78 151.73 C 170.84 151.90 170.21 152.80 170.38 153.74 Z M 170.55 154.74 L 170.71 155.70 C 170.87 156.65 171.77 157.29 172.72 157.13 C 173.67 156.97 174.30 156.07 174.14 155.12 L 173.98 154.16 C 173.82 153.21 172.92 152.57 171.97 152.73 C 171.03 152.89 170.39 153.79 170.55 154.74 Z M 170.70 155.69 L 170.86 156.66 C 171.01 157.61 171.91 158.26 172.86 158.11 C 173.81 157.96 174.46 157.06 174.31 156.11 L 174.15 155.14 C 174.00 154.19 173.10 153.54 172.15 153.69 C 171.20 153.84 170.55 154.74 170.70 155.69 Z M 170.86 156.65 L 171.00 157.64 C 171.14 158.59 172.03 159.25 172.99 159.11 C 173.94 158.96 174.60 158.07 174.46 157.12 L 174.31 156.13 C 174.17 155.18 173.28 154.52 172.33 154.66 C 171.37 154.80 170.71 155.69 170.86 156.65 Z M 171.00 157.61 L 171.13 158.62 C 171.26 159.57 172.15 160.24 173.10 160.11 C 174.06 159.98 174.73 159.10 174.60 158.14 L 174.46 157.14 C 174.33 156.18 173.45 155.51 172.49 155.64 C 171.54 155.77 170.87 156.66 171.00 157.61 Z M 171.13 158.59 L 171.25 159.60 C 171.37 160.57 172.24 161.25 173.21 161.13 C 174.17 161.01 174.85 160.14 174.73 159.18 L 174.61 158.17 C 174.49 157.20 173.61 156.52 172.65 156.64 C 171.69 156.76 171.01 157.63 171.13 158.59 Z M 171.24 159.58 L 171.35 160.57 C 171.46 161.54 172.32 162.23 173.29 162.13 C 174.25 162.02 174.95 161.16 174.85 160.19 L 174.74 159.20 C 174.63 158.24 173.77 157.54 172.80 157.64 C 171.84 157.75 171.14 158.61 171.24 159.58 Z M 171.34 160.55 L 171.44 161.54 C 171.53 162.51 172.39 163.22 173.36 163.13 C 174.33 163.03 175.04 162.17 174.95 161.21 L 174.85 160.21 C 174.76 159.25 173.90 158.53 172.93 158.63 C 171.96 158.72 171.25 159.58 171.34 160.55 Z M 171.43 161.52 L 171.51 162.52 C 171.60 163.49 172.45 164.21 173.42 164.13 C 174.40 164.05 175.12 163.19 175.04 162.22 L 174.95 161.22 C 174.87 160.25 174.02 159.53 173.04 159.61 C 172.07 159.69 171.35 160.55 171.43 161.52 Z M 171.51 162.50 L 171.58 163.50 C 171.65 164.48 172.50 165.21 173.48 165.14 C 174.46 165.07 175.19 164.21 175.12 163.24 L 175.04 162.24 C 174.97 161.26 174.12 160.53 173.14 160.60 C 172.17 160.67 171.43 161.52 171.51 162.50 Z M 171.58 163.49 L 171.64 164.49 C 171.71 165.47 172.56 166.21 173.54 166.15 C 174.52 166.08 175.26 165.23 175.19 164.25 L 175.13 163.25 C 175.06 162.27 174.21 161.53 173.23 161.59 C 172.25 161.66 171.51 162.51 171.58 163.49 Z M 171.64 164.48 L 171.70 165.48 C 171.76 166.46 172.60 167.21 173.59 167.15 C 174.57 167.09 175.32 166.24 175.26 165.26 L 175.20 164.26 C 175.14 163.28 174.29 162.53 173.31 162.59 C 172.32 162.65 171.58 163.50 171.64 164.48 Z M 171.69 165.47 L 171.75 166.45 C 171.80 167.44 172.65 168.20 173.64 168.14 C 174.62 168.08 175.38 167.24 175.32 166.25 L 175.27 165.27 C 175.21 164.28 174.36 163.53 173.38 163.58 C 172.39 163.64 171.64 164.48 171.69 165.47 Z M 171.74 166.44 L 171.79 167.43 C 171.84 168.42 172.69 169.18 173.68 169.13 C 174.67 169.08 175.43 168.24 175.38 167.25 L 175.33 166.26 C 175.28 165.27 174.43 164.51 173.44 164.56 C 172.45 164.61 171.69 165.45 171.74 166.44 Z M 171.79 167.42 L 171.83 168.42 C 171.87 169.41 172.71 170.18 173.71 170.14 C 174.70 170.09 175.47 169.25 175.43 168.26 L 175.38 167.26 C 175.34 166.27 174.50 165.50 173.51 165.54 C 172.51 165.59 171.74 166.43 171.79 167.42 Z M 171.82 168.40 L 171.86 169.41 C 171.90 170.41 172.73 171.19 173.73 171.15 C 174.73 171.11 175.51 170.28 175.47 169.28 L 175.43 168.27 C 175.40 167.28 174.56 166.50 173.56 166.53 C 172.57 166.57 171.79 167.41 171.82 168.40 Z M 171.85 169.40 L 171.88 170.42 C 171.91 171.42 172.75 172.21 173.75 172.18 C 174.75 172.15 175.53 171.32 175.50 170.32 L 175.48 169.29 C 175.45 168.29 174.61 167.51 173.61 167.54 C 172.61 167.56 171.83 168.40 171.85 169.40 Z M 171.88 170.40 L 171.90 171.42 C 171.92 172.42 172.75 173.21 173.75 173.19 C 174.75 173.17 175.55 172.35 175.53 171.34 L 175.51 170.33 C 175.49 169.33 174.66 168.53 173.66 168.55 C 172.65 168.57 171.86 169.40 171.88 170.40 Z M 171.89 171.40 L 171.91 172.42 C 171.92 173.43 172.75 174.23 173.75 174.22 C 174.76 174.20 175.56 173.38 175.55 172.37 L 175.54 171.36 C 175.52 170.35 174.70 169.55 173.69 169.56 C 172.69 169.57 171.88 170.40 171.89 171.40 Z M 171.90 172.41 L 171.91 173.43 C 171.92 174.43 172.74 175.25 173.75 175.24 C 174.76 175.23 175.57 174.41 175.56 173.40 L 175.55 172.38 C 175.55 171.37 174.72 170.56 173.71 170.57 C 172.71 170.58 171.89 171.40 171.90 172.41 Z M 171.91 173.42 L 171.91 174.42 C 171.91 175.43 172.74 176.25 173.75 176.25 C 174.76 176.24 175.57 175.42 175.57 174.41 L 175.57 173.41 C 175.56 172.39 174.74 171.58 173.73 171.58 C 172.72 171.59 171.90 172.41 171.91 173.42 Z M 171.90 174.42 L 171.91 175.40 C 171.91 176.42 172.73 177.24 173.74 177.24 C 174.76 177.23 175.58 176.41 175.58 175.40 L 175.57 174.41 C 175.57 173.40 174.75 172.58 173.74 172.58 C 172.72 172.58 171.90 173.41 171.90 174.42 Z M 171.90 175.40 L 171.90 176.39 C 171.90 177.40 172.73 178.23 173.74 178.23 C 174.76 178.23 175.58 177.40 175.58 176.39 L 175.58 175.40 C 175.58 174.39 174.76 173.56 173.74 173.56 C 172.72 173.56 171.90 174.39 171.90 175.40 Z M 171.90 176.39 L 171.90 177.44 C 171.90 178.46 172.72 179.28 173.74 179.28 C 174.76 179.28 175.58 178.46 175.58 177.44 L 175.58 176.39 C 175.59 175.37 174.76 174.54 173.74 174.54 C 172.72 174.54 171.90 175.37 171.90 176.39 Z M 171.89 177.44 L 171.89 178.45 C 171.89 179.47 172.71 180.30 173.74 180.30 C 174.76 180.30 175.59 179.48 175.59 178.46 L 175.59 177.44 C 175.59 176.42 174.76 175.59 173.74 175.59 C 172.72 175.59 171.89 176.42 171.89 177.44 Z M 171.89 178.45 L 171.88 179.43 C 171.88 180.45 172.70 181.29 173.73 181.29 C 174.75 181.30 175.58 180.47 175.59 179.45 L 175.59 178.46 C 175.60 177.44 174.77 176.60 173.75 176.60 C 172.72 176.60 171.89 177.42 171.89 178.45 Z M 171.88 179.42 L 171.87 180.39 C 171.86 181.41 172.69 182.25 173.71 182.26 C 174.74 182.27 175.58 181.44 175.58 180.42 L 175.59 179.45 C 175.60 178.43 174.78 177.59 173.75 177.58 C 172.72 177.57 171.88 178.40 171.88 179.42 Z M 171.86 180.38 L 171.85 181.35 C 171.84 182.38 172.66 183.22 173.69 183.24 C 174.72 183.25 175.56 182.43 175.58 181.40 L 175.59 180.43 C 175.60 179.40 174.78 178.55 173.75 178.54 C 172.72 178.53 171.88 179.35 171.86 180.38 Z M 171.85 181.34 L 171.83 182.35 C 171.81 183.38 172.62 184.24 173.65 184.26 C 174.68 184.28 175.54 183.46 175.56 182.43 L 175.58 181.41 C 175.60 180.38 174.78 179.53 173.75 179.51 C 172.72 179.49 171.87 180.31 171.85 181.34 Z M 171.82 182.33 L 171.79 183.33 C 171.75 184.37 172.56 185.23 173.59 185.27 C 174.63 185.30 175.49 184.50 175.53 183.46 L 175.56 182.46 C 175.60 181.42 174.79 180.56 173.76 180.52 C 172.72 180.49 171.86 181.30 171.82 182.33 Z M 171.79 183.30 L 171.73 184.29 C 171.68 185.33 172.47 186.21 173.50 186.27 C 174.54 186.32 175.42 185.53 175.48 184.49 L 175.53 183.50 C 175.59 182.47 174.79 181.58 173.76 181.53 C 172.72 181.47 171.84 182.26 171.79 183.30 Z M 171.73 184.24 L 171.65 185.22 C 171.57 186.26 172.34 187.16 173.38 187.25 C 174.41 187.33 175.32 186.56 175.40 185.52 L 175.48 184.54 C 175.56 183.51 174.79 182.60 173.75 182.52 C 172.72 182.44 171.81 183.21 171.73 184.24 Z M 171.66 185.16 L 171.54 186.17 C 171.43 187.20 172.17 188.13 173.21 188.25 C 174.24 188.37 175.17 187.62 175.29 186.59 L 175.40 185.58 C 175.51 184.55 174.77 183.62 173.74 183.50 C 172.70 183.39 171.77 184.13 171.66 185.16 Z M 171.55 186.10 L 171.40 187.11 C 171.25 188.14 171.96 189.10 172.99 189.25 C 174.02 189.40 174.98 188.69 175.13 187.66 L 175.28 186.65 C 175.43 185.62 174.72 184.66 173.69 184.51 C 172.66 184.36 171.70 185.07 171.55 186.10 Z M 171.40 187.05 L 171.23 188.03 C 171.04 189.06 171.72 190.04 172.75 190.23 C 173.78 190.41 174.76 189.73 174.95 188.70 L 175.13 187.72 C 175.31 186.69 174.63 185.71 173.60 185.52 C 172.58 185.33 171.59 186.02 171.40 187.05 Z M 171.23 187.97 L 171.03 188.93 C 170.81 189.96 171.46 190.96 172.49 191.18 C 173.51 191.40 174.52 190.75 174.74 189.72 L 174.94 188.76 C 175.16 187.74 174.51 186.73 173.48 186.51 C 172.46 186.29 171.45 186.95 171.23 187.97 Z M 171.04 188.88 L 170.80 189.85 C 170.55 190.87 171.18 191.90 172.20 192.15 C 173.22 192.39 174.25 191.77 174.50 190.75 L 174.73 189.78 C 174.98 188.76 174.35 187.73 173.33 187.48 C 172.31 187.23 171.28 187.86 171.04 188.88 Z M 170.81 189.80 L 170.54 190.79 C 170.26 191.81 170.86 192.86 171.88 193.13 C 172.89 193.41 173.94 192.81 174.22 191.79 L 174.49 190.80 C 174.76 189.78 174.16 188.74 173.15 188.46 C 172.13 188.18 171.09 188.78 170.81 189.80 Z M 170.55 190.75 L 170.26 191.71 C 169.96 192.72 170.53 193.79 171.55 194.09 C 172.56 194.39 173.62 193.81 173.92 192.80 L 174.21 191.84 C 174.51 190.83 173.93 189.77 172.92 189.46 C 171.91 189.16 170.85 189.74 170.55 190.75 Z M 170.27 191.68 L 169.97 192.60 C 169.65 193.61 170.20 194.69 171.21 195.01 C 172.22 195.33 173.29 194.78 173.61 193.77 L 173.91 192.84 C 174.23 191.83 173.68 190.76 172.67 190.44 C 171.67 190.11 170.59 190.67 170.27 191.68 Z M 169.98 192.57 L 169.68 193.47 C 169.34 194.47 169.87 195.56 170.88 195.89 C 171.88 196.23 172.97 195.70 173.30 194.69 L 173.61 193.80 C 173.95 192.80 173.41 191.71 172.41 191.37 C 171.41 191.03 170.32 191.57 169.98 192.57 Z M 169.69 193.43 L 169.37 194.31 C 169.01 195.30 169.53 196.40 170.52 196.76 C 171.52 197.12 172.62 196.60 172.98 195.61 L 173.30 194.73 C 173.65 193.73 173.14 192.63 172.14 192.27 C 171.14 191.92 170.04 192.43 169.69 193.43 Z M 169.38 194.26 L 169.03 195.16 C 168.65 196.15 169.14 197.26 170.13 197.65 C 171.11 198.03 172.23 197.54 172.61 196.56 L 172.96 195.65 C 173.35 194.67 172.86 193.55 171.87 193.17 C 170.88 192.78 169.77 193.27 169.38 194.26 Z M 169.05 195.11 L 168.64 196.08 C 168.23 197.06 168.69 198.19 169.66 198.60 C 170.64 199.02 171.77 198.56 172.18 197.58 L 172.59 196.61 C 173.01 195.63 172.55 194.50 171.57 194.09 C 170.59 193.67 169.47 194.13 169.05 195.11 Z M 168.66 196.04 L 168.23 196.99 C 167.79 197.96 168.22 199.10 169.19 199.54 C 170.16 199.98 171.30 199.54 171.74 198.58 L 172.17 197.62 C 172.61 196.66 172.18 195.51 171.21 195.08 C 170.24 194.64 169.10 195.07 168.66 196.04 Z M 168.24 196.95 L 167.81 197.86 C 167.35 198.82 167.76 199.97 168.72 200.43 C 169.68 200.89 170.83 200.48 171.29 199.52 L 171.72 198.61 C 172.18 197.65 171.77 196.50 170.81 196.04 C 169.85 195.59 168.70 195.99 168.24 196.95 Z M 167.83 197.82 L 167.36 198.75 C 166.88 199.71 167.27 200.87 168.22 201.34 C 169.17 201.82 170.33 201.44 170.81 200.48 L 171.27 199.55 C 171.75 198.60 171.37 197.44 170.41 196.96 C 169.46 196.49 168.30 196.87 167.83 197.82 Z M 167.38 198.71 L 166.89 199.63 C 166.39 200.57 166.75 201.74 167.70 202.24 C 168.64 202.74 169.81 202.38 170.31 201.44 L 170.79 200.52 C 171.29 199.58 170.93 198.41 169.99 197.91 C 169.05 197.41 167.88 197.77 167.38 198.71 Z M 166.92 199.58 L 166.43 200.44 C 165.91 201.36 166.23 202.54 167.16 203.07 C 168.09 203.60 169.27 203.27 169.79 202.34 L 170.28 201.49 C 170.81 200.56 170.48 199.38 169.55 198.85 C 168.63 198.32 167.45 198.65 166.92 199.58 Z M 166.48 200.36 L 165.90 201.27 C 165.34 202.17 165.61 203.37 166.51 203.94 C 167.42 204.51 168.61 204.23 169.18 203.33 L 169.75 202.42 C 170.32 201.51 170.05 200.32 169.14 199.75 C 168.24 199.18 167.04 199.46 166.48 200.36 Z M 165.99 201.14 L 165.34 202.01 C 164.71 202.87 164.88 204.08 165.74 204.72 C 166.60 205.36 167.81 205.18 168.45 204.32 L 169.09 203.45 C 169.73 202.60 169.56 201.38 168.70 200.75 C 167.84 200.11 166.63 200.29 165.99 201.14 Z M 165.49 201.84 L 164.84 202.52 C 164.11 203.30 164.14 204.52 164.92 205.26 C 165.69 205.99 166.92 205.96 167.65 205.18 L 168.30 204.50 C 169.04 203.72 169.00 202.50 168.23 201.76 C 167.45 201.03 166.22 201.06 165.49 201.84 Z M 165.05 202.33 L 164.37 202.87 C 163.53 203.53 163.38 204.74 164.04 205.58 C 164.70 206.43 165.92 206.57 166.76 205.91 L 167.44 205.37 C 168.28 204.71 168.43 203.50 167.77 202.66 C 167.11 201.82 165.89 201.67 165.05 202.33 Z M 164.64 202.69 L 163.77 203.16 C 162.83 203.68 162.48 204.85 162.99 205.79 C 163.50 206.73 164.68 207.08 165.62 206.56 L 166.49 206.09 C 167.43 205.58 167.78 204.40 167.27 203.46 C 166.75 202.52 165.58 202.18 164.64 202.69 Z M 164.07 203.03 L 163.13 203.35 C 162.11 203.70 161.57 204.80 161.92 205.81 C 162.26 206.82 163.36 207.36 164.37 207.02 L 165.31 206.70 C 166.33 206.35 166.87 205.25 166.52 204.24 C 166.18 203.23 165.08 202.69 164.07 203.03 Z M 163.42 203.28 L 162.44 203.45 C 161.39 203.63 160.68 204.62 160.86 205.68 C 161.04 206.73 162.04 207.44 163.09 207.26 L 164.07 207.09 C 165.12 206.91 165.83 205.91 165.65 204.86 C 165.47 203.81 164.48 203.10 163.42 203.28 Z M 162.73 203.43 L 161.83 203.45 C 160.77 203.47 159.93 204.34 159.95 205.40 C 159.96 206.46 160.84 207.31 161.90 207.29 L 162.80 207.27 C 163.86 207.25 164.70 206.38 164.69 205.32 C 164.67 204.26 163.79 203.41 162.73 203.43 Z M 162.16 203.49 L 161.23 203.34 C 160.19 203.18 159.22 203.89 159.05 204.92 C 158.89 205.96 159.60 206.94 160.63 207.10 L 161.57 207.25 C 162.61 207.41 163.58 206.70 163.75 205.67 C 163.91 204.63 163.20 203.65 162.16 203.49 Z M 161.56 203.45 L 160.55 203.09 C 159.58 202.74 158.50 203.25 158.15 204.23 C 157.80 205.21 158.31 206.28 159.29 206.63 L 160.30 206.99 C 161.28 207.34 162.35 206.83 162.70 205.85 C 163.05 204.87 162.54 203.80 161.56 203.45 Z M 160.80 203.22 L 159.91 202.75 C 159.01 202.26 157.88 202.60 157.40 203.50 C 156.91 204.41 157.25 205.53 158.15 206.02 L 159.04 206.50 C 159.95 206.98 161.07 206.64 161.56 205.74 C 162.05 204.84 161.71 203.71 160.80 203.22 Z M 160.04 202.86 L 159.25 202.33 C 158.41 201.78 157.28 202.01 156.72 202.85 C 156.16 203.69 156.39 204.82 157.23 205.38 L 158.02 205.91 C 158.86 206.46 160.00 206.23 160.56 205.39 C 161.11 204.55 160.89 203.42 160.04 202.86 Z M 159.32 202.43 L 158.51 201.81 C 157.72 201.22 156.60 201.37 156.00 202.16 C 155.41 202.95 155.56 204.08 156.35 204.67 L 157.16 205.29 C 157.95 205.88 159.07 205.73 159.67 204.94 C 160.27 204.15 160.11 203.02 159.32 202.43 Z M 158.56 201.90 L 157.75 201.22 C 157.01 200.60 155.90 200.70 155.28 201.45 C 154.66 202.19 154.76 203.30 155.50 203.92 L 156.31 204.59 C 157.05 205.22 158.16 205.11 158.78 204.37 C 159.40 203.62 159.30 202.52 158.56 201.90 Z M 157.78 201.30 L 157.01 200.60 C 156.30 199.96 155.21 200.01 154.57 200.72 C 153.94 201.42 153.99 202.51 154.70 203.15 L 155.47 203.85 C 156.18 204.49 157.27 204.43 157.90 203.73 C 158.54 203.02 158.49 201.94 157.78 201.30 Z M 157.03 200.67 L 156.29 199.95 C 155.63 199.30 154.56 199.31 153.91 199.98 C 153.26 200.65 153.27 201.71 153.94 202.36 L 154.68 203.08 C 155.34 203.73 156.41 203.71 157.06 203.05 C 157.71 202.38 157.69 201.32 157.03 200.67 Z M 156.31 200.03 L 155.62 199.30 C 155.00 198.64 153.96 198.61 153.30 199.24 C 152.64 199.86 152.61 200.90 153.24 201.56 L 153.92 202.28 C 154.55 202.94 155.59 202.97 156.24 202.35 C 156.90 201.73 156.93 200.69 156.31 200.03 Z M 155.64 199.38 L 155.00 198.64 C 154.42 197.97 153.41 197.90 152.74 198.48 C 152.07 199.06 152.00 200.07 152.58 200.74 L 153.22 201.48 C 153.80 202.14 154.81 202.22 155.48 201.64 C 156.14 201.06 156.22 200.05 155.64 199.38 Z M 155.01 198.72 L 154.39 197.95 C 153.86 197.28 152.88 197.16 152.21 197.70 C 151.54 198.23 151.42 199.21 151.96 199.88 L 152.57 200.65 C 153.10 201.33 154.08 201.44 154.75 200.91 C 155.43 200.37 155.54 199.40 155.01 198.72 Z M 154.40 198.03 L 153.81 197.21 C 153.32 196.53 152.37 196.38 151.70 196.87 C 151.02 197.36 150.87 198.31 151.36 198.98 L 151.95 199.80 C 152.44 200.48 153.39 200.63 154.06 200.14 C 154.74 199.65 154.89 198.70 154.40 198.03 Z M 153.81 197.27 L 153.28 196.47 C 152.82 195.79 151.90 195.61 151.22 196.07 C 150.54 196.52 150.36 197.44 150.82 198.12 L 151.35 198.92 C 151.81 199.60 152.73 199.78 153.41 199.33 C 154.09 198.87 154.27 197.95 153.81 197.27 Z M 153.29 196.52 L 152.77 195.69 C 152.34 195.01 151.43 194.80 150.75 195.23 C 150.06 195.66 149.85 196.57 150.29 197.26 L 150.81 198.08 C 151.24 198.77 152.14 198.97 152.83 198.54 C 153.52 198.11 153.72 197.20 153.29 196.52 Z M 152.78 195.72 L 152.26 194.87 C 151.85 194.18 150.95 193.95 150.26 194.37 C 149.57 194.78 149.35 195.68 149.76 196.37 L 150.28 197.23 C 150.70 197.92 151.59 198.14 152.28 197.72 C 152.97 197.31 153.19 196.41 152.78 195.72 Z M 152.26 194.89 L 151.75 194.01 C 151.35 193.32 150.46 193.08 149.77 193.49 C 149.08 193.89 148.85 194.78 149.25 195.47 L 149.76 196.35 C 150.17 197.04 151.05 197.27 151.74 196.87 C 152.43 196.47 152.67 195.58 152.26 194.89 Z M 151.75 194.02 L 151.24 193.13 C 150.84 192.44 149.96 192.20 149.27 192.60 C 148.58 192.99 148.35 193.87 148.74 194.56 L 149.25 195.45 C 149.65 196.14 150.53 196.38 151.21 195.99 C 151.90 195.59 152.14 194.71 151.75 194.02 Z M 151.23 193.14 L 150.91 192.57 C 150.52 191.88 149.64 191.64 148.96 192.03 C 148.27 192.42 148.03 193.29 148.42 193.98 L 148.75 194.55 C 149.14 195.24 150.01 195.48 150.69 195.09 C 151.38 194.70 151.62 193.82 151.23 193.14 Z"
      fill="black"
      fill-rule="nonzero" /></svg>