<svg xmlns="http://www.w3.org/2000/svg" width="300" height="300" viewBox="0 0 300 300">
<path d="M 144.17 112.85 L 144.18 111.82 C 144.19 110.98 143.51 110.30 142.67 110.29 C 141.84 110.28 141.15 110.96 141.14 111.80 L 141.13 112.83 C 141.13 113.66 141.80 114.35 142.64 114.36 C 143.48 114.36 144.16 113.69 144.17 112.85 Z M 144.18 111.90 L 144.24 110.90 C 144.29 110.06 143.65 109.33 142.81 109.28 C 141.97 109.23 141.25 109.87 141.20 110.71 L 141.14 111.72 C 141.09 112.56 141.73 113.28 142.57 113.33 C 143.41 113.38 144.13 112.74 144.18 111.90 Z M 144.23 111.07 L 144.40 110.11 C 144.54 109.28 143.98 108.49 143.15 108.34 C 142.32 108.20 141.52 108.75 141.38 109.59 L 141.21 110.54 C 141.07 111.38 141.63 112.17 142.46 112.31 C 143.29 112.46 144.09 111.90 144.23 111.07 Z M 144.35 110.36 L 144.76 109.21 C 145.04 108.40 144.61 107.52 143.81 107.23 C 143.00 106.95 142.11 107.37 141.83 108.18 L 141.42 109.34 C 141.14 110.14 141.57 111.03 142.37 111.31 C 143.18 111.60 144.07 111.17 144.35 110.36 Z M 144.88 108.78 L 144.91 108.20 C 144.96 107.32 144.29 106.57 143.41 106.53 C 142.53 106.48 141.78 107.15 141.74 108.03 L 141.70 108.61 C 141.66 109.49 142.33 110.24 143.21 110.28 C 144.08 110.33 144.83 109.66 144.88 108.78 Z M 142.72 106.61 L 142.11 106.85 C 141.28 107.19 140.88 108.13 141.21 108.96 C 141.55 109.79 142.49 110.20 143.32 109.86 L 143.93 109.62 C 144.76 109.29 145.16 108.34 144.83 107.51 C 144.49 106.68 143.55 106.27 142.72 106.61 Z M 141.86 106.97 L 141.15 107.40 C 140.38 107.88 140.14 108.89 140.62 109.65 C 141.09 110.42 142.10 110.66 142.87 110.19 L 143.58 109.75 C 144.35 109.27 144.58 108.26 144.11 107.50 C 143.64 106.73 142.63 106.49 141.86 106.97 Z M 141.09 107.44 L 140.22 108.02 C 139.47 108.53 139.27 109.55 139.78 110.30 C 140.29 111.05 141.31 111.25 142.06 110.74 L 142.93 110.16 C 143.68 109.65 143.88 108.63 143.37 107.88 C 142.86 107.13 141.84 106.93 141.09 107.44 Z M 140.19 108.04 L 139.24 108.70 C 138.50 109.23 138.32 110.26 138.85 111.00 C 139.37 111.74 140.40 111.92 141.14 111.40 L 142.09 110.73 C 142.83 110.20 143.01 109.18 142.49 108.43 C 141.96 107.69 140.93 107.51 140.19 108.04 Z M 139.23 108.71 L 138.28 109.39 C 137.54 109.93 137.38 110.96 137.91 111.70 C 138.44 112.44 139.48 112.61 140.22 112.07 L 141.16 111.39 C 141.90 110.86 142.07 109.82 141.53 109.08 C 141.00 108.34 139.97 108.18 139.23 108.71 Z M 138.27 109.39 L 137.32 110.09 C 136.58 110.63 136.42 111.66 136.96 112.40 C 137.50 113.14 138.54 113.30 139.28 112.76 L 140.23 112.07 C 140.97 111.53 141.13 110.49 140.59 109.75 C 140.05 109.01 139.01 108.85 138.27 109.39 Z M 137.32 110.09 L 136.41 110.76 C 135.67 111.30 135.51 112.34 136.06 113.08 C 136.60 113.82 137.64 113.97 138.38 113.43 L 139.29 112.76 C 140.02 112.22 140.18 111.18 139.64 110.44 C 139.09 109.70 138.05 109.54 137.32 110.09 Z M 136.40 110.76 L 135.63 111.34 C 134.89 111.88 134.73 112.92 135.28 113.66 C 135.83 114.40 136.87 114.55 137.61 114.01 L 138.38 113.43 C 139.12 112.88 139.27 111.84 138.73 111.10 C 138.18 110.37 137.14 110.21 136.40 110.76 Z M 135.62 111.34 L 134.92 111.86 C 134.18 112.41 134.03 113.45 134.58 114.19 C 135.12 114.93 136.17 115.08 136.90 114.53 L 137.61 114.00 C 138.34 113.46 138.50 112.41 137.95 111.68 C 137.40 110.94 136.36 110.79 135.62 111.34 Z M 134.92 111.86 L 134.21 112.39 C 133.47 112.94 133.32 113.98 133.87 114.72 C 134.42 115.45 135.46 115.61 136.20 115.06 L 136.90 114.53 C 137.64 113.98 137.79 112.94 137.24 112.20 C 136.70 111.47 135.65 111.31 134.92 111.86 Z M 134.21 112.39 L 133.44 112.96 C 132.70 113.51 132.55 114.55 133.10 115.29 C 133.65 116.03 134.69 116.18 135.43 115.63 L 136.20 115.06 C 136.93 114.51 137.08 113.47 136.54 112.73 C 135.99 111.99 134.95 111.84 134.21 112.39 Z M 133.44 112.96 L 132.64 113.56 C 131.90 114.11 131.75 115.15 132.31 115.89 C 132.86 116.62 133.90 116.77 134.63 116.22 L 135.43 115.63 C 136.17 115.08 136.32 114.03 135.76 113.30 C 135.21 112.56 134.17 112.41 133.44 112.96 Z M 132.63 113.57 L 131.81 114.19 C 131.08 114.75 130.93 115.79 131.49 116.52 C 132.04 117.26 133.09 117.40 133.82 116.84 L 134.64 116.22 C 135.37 115.66 135.52 114.62 134.96 113.89 C 134.41 113.15 133.36 113.01 132.63 113.57 Z M 131.79 114.20 L 130.99 114.82 C 130.27 115.39 130.13 116.43 130.70 117.16 C 131.26 117.88 132.31 118.02 133.03 117.45 L 133.83 116.83 C 134.56 116.27 134.69 115.22 134.13 114.50 C 133.57 113.77 132.52 113.64 131.79 114.20 Z M 130.98 114.83 L 130.21 115.44 C 129.49 116.01 129.37 117.06 129.93 117.78 C 130.50 118.50 131.55 118.62 132.27 118.05 L 133.04 117.44 C 133.76 116.87 133.89 115.83 133.32 115.11 C 132.75 114.39 131.70 114.26 130.98 114.83 Z M 130.20 115.45 L 129.42 116.08 C 128.70 116.66 128.58 117.70 129.16 118.42 C 129.73 119.14 130.78 119.25 131.50 118.68 L 132.28 118.05 C 133.00 117.47 133.11 116.42 132.54 115.71 C 131.96 114.99 130.92 114.88 130.20 115.45 Z M 129.41 116.09 L 128.62 116.73 C 127.91 117.31 127.80 118.35 128.38 119.07 C 128.96 119.78 130.00 119.89 130.72 119.31 L 131.51 118.67 C 132.22 118.09 132.33 117.04 131.75 116.33 C 131.17 115.62 130.12 115.51 129.41 116.09 Z M 128.61 116.73 L 127.83 117.38 C 127.12 117.96 127.02 119.01 127.60 119.72 C 128.18 120.43 129.23 120.53 129.94 119.95 L 130.72 119.30 C 131.43 118.72 131.54 117.67 130.95 116.96 C 130.37 116.25 129.32 116.15 128.61 116.73 Z M 127.82 117.38 L 127.05 118.02 C 126.35 118.61 126.25 119.65 126.83 120.36 C 127.42 121.07 128.47 121.17 129.17 120.58 L 129.94 119.94 C 130.65 119.36 130.75 118.31 130.16 117.60 C 129.58 116.89 128.53 116.80 127.82 117.38 Z M 127.05 118.02 L 126.28 118.66 C 125.58 119.25 125.48 120.30 126.07 121.00 C 126.65 121.71 127.70 121.80 128.41 121.22 L 129.18 120.58 C 129.88 119.99 129.98 118.94 129.39 118.24 C 128.80 117.53 127.76 117.44 127.05 118.02 Z M 126.28 118.66 L 125.52 119.30 C 124.81 119.89 124.71 120.93 125.30 121.64 C 125.89 122.34 126.93 122.44 127.64 121.85 L 128.41 121.22 C 129.11 120.63 129.21 119.58 128.62 118.88 C 128.04 118.17 126.99 118.08 126.28 118.66 Z M 125.52 119.30 L 124.75 119.94 C 124.04 120.52 123.94 121.57 124.53 122.27 C 125.11 122.98 126.16 123.08 126.86 122.49 L 127.64 121.86 C 128.34 121.27 128.44 120.23 127.86 119.52 C 127.27 118.81 126.23 118.71 125.52 119.30 Z M 124.75 119.93 L 123.98 120.57 C 123.27 121.15 123.17 122.19 123.75 122.90 C 124.34 123.61 125.38 123.71 126.09 123.13 L 126.86 122.50 C 127.57 121.92 127.67 120.87 127.09 120.16 C 126.51 119.45 125.46 119.35 124.75 119.93 Z M 123.99 120.56 L 123.21 121.20 C 122.50 121.78 122.40 122.82 122.98 123.53 C 123.56 124.24 124.61 124.34 125.31 123.76 L 126.09 123.13 C 126.79 122.55 126.90 121.51 126.32 120.80 C 125.74 120.09 124.69 119.98 123.99 120.56 Z M 123.21 121.20 L 122.44 121.84 C 121.73 122.42 121.63 123.46 122.21 124.17 C 122.79 124.87 123.83 124.98 124.54 124.40 L 125.31 123.76 C 126.02 123.18 126.12 122.14 125.54 121.43 C 124.96 120.72 123.92 120.62 123.21 121.20 Z M 122.43 121.84 L 121.66 122.48 C 120.96 123.07 120.86 124.11 121.44 124.81 C 122.03 125.52 123.07 125.61 123.77 125.03 L 124.55 124.39 C 125.25 123.81 125.35 122.76 124.76 122.06 C 124.18 121.36 123.14 121.26 122.43 121.84 Z M 121.65 122.49 L 120.88 123.14 C 120.19 123.73 120.10 124.77 120.69 125.47 C 121.27 126.17 122.32 126.26 123.02 125.67 L 123.78 125.02 C 124.48 124.43 124.57 123.39 123.98 122.69 C 123.39 121.99 122.35 121.90 121.65 122.49 Z M 120.87 123.15 L 120.11 123.80 C 119.42 124.40 119.34 125.44 119.94 126.13 C 120.53 126.82 121.57 126.90 122.26 126.31 L 123.03 125.66 C 123.72 125.06 123.80 124.02 123.20 123.33 C 122.61 122.63 121.57 122.56 120.87 123.15 Z M 120.11 123.81 L 119.35 124.47 C 118.66 125.07 118.59 126.11 119.19 126.80 C 119.79 127.48 120.83 127.56 121.52 126.96 L 122.27 126.30 C 122.96 125.70 123.03 124.66 122.43 123.97 C 121.83 123.29 120.79 123.22 120.11 123.81 Z M 119.34 124.48 L 118.60 125.14 C 117.92 125.74 117.85 126.78 118.45 127.47 C 119.05 128.15 120.09 128.21 120.78 127.61 L 121.52 126.95 C 122.20 126.35 122.27 125.31 121.67 124.62 C 121.06 123.94 120.02 123.88 119.34 124.48 Z M 118.59 125.15 L 117.85 125.82 C 117.17 126.42 117.11 127.46 117.72 128.13 C 118.32 128.81 119.36 128.87 120.04 128.26 L 120.78 127.60 C 121.46 127.00 121.51 125.96 120.91 125.28 C 120.31 124.60 119.27 124.55 118.59 125.15 Z M 117.84 125.82 L 117.09 126.51 C 116.42 127.11 116.36 128.15 116.97 128.82 C 117.58 129.49 118.61 129.55 119.29 128.94 L 120.04 128.26 C 120.71 127.65 120.77 126.61 120.16 125.94 C 119.55 125.27 118.52 125.22 117.84 125.82 Z M 117.08 126.52 L 116.34 127.20 C 115.67 127.81 115.63 128.84 116.24 129.51 C 116.84 130.17 117.88 130.22 118.55 129.61 L 119.29 128.93 C 119.96 128.32 120.00 127.29 119.39 126.62 C 118.78 125.95 117.75 125.91 117.08 126.52 Z M 116.33 127.21 L 115.60 127.88 C 114.94 128.50 114.90 129.53 115.52 130.19 C 116.13 130.85 117.16 130.89 117.82 130.28 L 118.55 129.60 C 119.21 128.99 119.25 127.95 118.64 127.29 C 118.03 126.63 116.99 126.59 116.33 127.21 Z M 115.59 127.90 L 114.88 128.57 C 114.23 129.19 114.20 130.22 114.81 130.87 C 115.43 131.52 116.46 131.55 117.12 130.94 L 117.83 130.27 C 118.48 129.65 118.51 128.62 117.90 127.96 C 117.28 127.31 116.25 127.28 115.59 127.90 Z M 114.87 128.58 L 114.15 129.28 C 113.50 129.90 113.48 130.93 114.10 131.58 C 114.72 132.22 115.75 132.24 116.40 131.62 L 117.12 130.92 C 117.77 130.30 117.79 129.27 117.17 128.63 C 116.55 127.98 115.52 127.96 114.87 128.58 Z M 114.14 129.29 L 113.43 129.99 C 112.79 130.62 112.78 131.64 113.40 132.28 C 114.03 132.92 115.05 132.93 115.69 132.31 L 116.40 131.61 C 117.04 130.98 117.05 129.96 116.43 129.32 C 115.80 128.68 114.78 128.67 114.14 129.29 Z M 113.42 130.01 L 112.72 130.71 C 112.09 131.33 112.08 132.35 112.71 132.98 C 113.34 133.61 114.35 133.62 114.99 132.99 L 115.69 132.29 C 116.32 131.67 116.33 130.65 115.70 130.02 C 115.08 129.39 114.06 129.38 113.42 130.01 Z M 112.72 130.71 L 112.02 131.42 C 111.39 132.04 111.39 133.06 112.01 133.68 C 112.64 134.31 113.66 134.31 114.28 133.69 L 114.99 132.98 C 115.61 132.36 115.61 131.34 114.99 130.72 C 114.36 130.09 113.35 130.09 112.72 130.71 Z M 112.02 131.42 L 111.34 132.10 C 110.72 132.72 110.72 133.73 111.35 134.36 C 111.97 134.98 112.98 134.98 113.60 134.36 L 114.28 133.68 C 114.90 133.06 114.90 132.05 114.28 131.42 C 113.65 130.80 112.64 130.80 112.02 131.42 Z M 111.34 132.11 L 110.67 132.79 C 110.05 133.42 110.05 134.42 110.68 135.04 C 111.30 135.66 112.31 135.65 112.93 135.03 L 113.60 134.35 C 114.22 133.72 114.22 132.71 113.59 132.10 C 112.97 131.48 111.96 131.48 111.34 132.11 Z M 110.66 132.81 L 109.97 133.53 C 109.36 134.15 109.37 135.16 110.00 135.76 C 110.63 136.37 111.63 136.36 112.24 135.73 L 112.93 135.01 C 113.54 134.39 113.53 133.38 112.90 132.77 C 112.27 132.17 111.27 132.18 110.66 132.81 Z M 109.96 133.55 L 109.24 134.31 C 108.64 134.94 108.68 135.94 109.31 136.54 C 109.94 137.13 110.94 137.10 111.54 136.47 L 112.25 135.71 C 112.85 135.07 112.82 134.07 112.18 133.48 C 111.55 132.88 110.55 132.91 109.96 133.55 Z M 109.23 134.33 L 108.53 135.10 C 107.95 135.75 108.00 136.74 108.64 137.32 C 109.28 137.90 110.27 137.85 110.86 137.21 L 111.55 136.44 C 112.14 135.80 112.09 134.81 111.44 134.22 C 110.80 133.64 109.81 133.69 109.23 134.33 Z M 108.50 135.14 L 107.84 135.91 C 107.28 136.57 107.36 137.56 108.01 138.12 C 108.67 138.68 109.66 138.60 110.22 137.95 L 110.88 137.17 C 111.44 136.52 111.36 135.53 110.71 134.97 C 110.05 134.41 109.07 134.48 108.50 135.14 Z M 107.80 135.97 L 107.17 136.78 C 106.65 137.46 106.77 138.44 107.45 138.97 C 108.13 139.50 109.10 139.37 109.63 138.69 L 110.26 137.88 C 110.79 137.21 110.66 136.23 109.99 135.70 C 109.31 135.17 108.33 135.30 107.80 135.97 Z M 107.11 136.88 L 106.55 137.71 C 106.08 138.42 106.27 139.39 106.98 139.86 C 107.69 140.34 108.65 140.15 109.13 139.44 L 109.69 138.60 C 110.17 137.89 109.98 136.93 109.26 136.45 C 108.55 135.98 107.59 136.17 107.11 136.88 Z M 106.48 137.85 L 106.02 138.71 C 105.62 139.46 105.91 140.39 106.66 140.79 C 107.41 141.19 108.35 140.91 108.75 140.16 L 109.20 139.30 C 109.60 138.55 109.32 137.62 108.57 137.21 C 107.82 136.81 106.88 137.10 106.48 137.85 Z M 105.94 138.91 L 105.60 139.85 C 105.32 140.65 105.73 141.52 106.53 141.81 C 107.32 142.10 108.20 141.69 108.49 140.89 L 108.83 139.95 C 109.11 139.15 108.70 138.28 107.91 137.99 C 107.11 137.70 106.23 138.11 105.94 138.91 Z M 105.55 140.08 L 105.36 141.06 C 105.20 141.88 105.74 142.68 106.56 142.84 C 107.39 143.00 108.19 142.47 108.35 141.64 L 108.54 140.66 C 108.70 139.84 108.16 139.04 107.34 138.88 C 106.51 138.72 105.72 139.25 105.55 140.08 Z M 105.35 141.24 L 105.28 142.23 C 105.22 143.06 105.84 143.78 106.67 143.84 C 107.50 143.90 108.22 143.28 108.29 142.45 L 108.36 141.46 C 108.42 140.63 107.80 139.91 106.97 139.85 C 106.14 139.79 105.41 140.41 105.35 141.24 Z M 105.29 142.34 L 105.29 143.33 C 105.29 144.15 105.96 144.82 106.79 144.82 C 107.61 144.82 108.28 144.15 108.28 143.32 L 108.28 142.34 C 108.27 141.51 107.61 140.84 106.78 140.85 C 105.96 140.85 105.29 141.51 105.29 142.34 Z M 105.30 143.37 L 105.32 143.97 C 105.34 144.79 106.03 145.43 106.84 145.41 C 107.66 145.38 108.30 144.70 108.28 143.89 L 108.26 143.28 C 108.24 142.47 107.56 141.82 106.74 141.85 C 105.92 141.87 105.28 142.55 105.30 143.37 Z"
      fill="black"
      fill-rule="nonzero" /><path d="M 141.70 127.98 L 142.61 126.92 C 143.15 126.28 143.08 125.31 142.43 124.77 C 141.79 124.22 140.83 124.30 140.28 124.94 L 139.37 126.00 C 138.83 126.64 138.90 127.61 139.54 128.16 C 140.19 128.70 141.15 128.63 141.70 127.98 Z M 142.72 126.89 L 143.26 126.17 C 143.80 125.46 143.65 124.46 142.95 123.93 C 142.24 123.40 141.24 123.54 140.71 124.24 L 140.17 124.97 C 139.64 125.67 139.78 126.68 140.48 127.21 C 141.19 127.74 142.19 127.60 142.72 126.89 Z M 142.95 123.86 L 142.83 123.77 C 142.09 123.24 141.05 123.42 140.52 124.16 C 139.99 124.91 140.17 125.94 140.91 126.47 L 141.03 126.55 C 141.77 127.08 142.81 126.91 143.34 126.17 C 143.87 125.42 143.69 124.39 142.95 123.86 Z M 140.92 123.73 L 140.32 124.14 C 139.56 124.67 139.36 125.71 139.88 126.48 C 140.40 127.25 141.45 127.45 142.22 126.92 L 142.82 126.51 C 143.59 125.99 143.78 124.94 143.26 124.17 C 142.74 123.41 141.69 123.21 140.92 123.73 Z M 140.22 124.21 L 139.32 124.92 C 138.58 125.50 138.46 126.57 139.04 127.30 C 139.62 128.03 140.68 128.15 141.41 127.57 L 142.32 126.86 C 143.05 126.28 143.17 125.22 142.60 124.48 C 142.02 123.75 140.95 123.63 140.22 124.21 Z M 139.27 124.95 L 138.23 125.84 C 137.51 126.44 137.42 127.51 138.03 128.23 C 138.63 128.94 139.70 129.03 140.42 128.43 L 141.46 127.54 C 142.18 126.94 142.27 125.87 141.66 125.15 C 141.06 124.44 139.98 124.35 139.27 124.95 Z M 138.19 125.86 L 137.45 126.52 C 136.75 127.14 136.68 128.22 137.31 128.92 C 137.93 129.62 139.01 129.69 139.71 129.06 L 140.45 128.41 C 141.16 127.78 141.22 126.71 140.60 126.00 C 139.97 125.30 138.90 125.23 138.19 125.86 Z M 137.43 126.53 L 136.71 127.19 C 136.02 127.83 135.97 128.90 136.61 129.60 C 137.24 130.29 138.32 130.34 139.01 129.70 L 139.73 129.05 C 140.43 128.41 140.47 127.33 139.84 126.64 C 139.20 125.95 138.13 125.90 137.43 126.53 Z M 136.70 127.20 L 135.98 127.88 C 135.29 128.52 135.25 129.60 135.89 130.29 C 136.54 130.97 137.61 131.01 138.30 130.37 L 139.02 129.69 C 139.71 129.05 139.75 127.97 139.11 127.28 C 138.46 126.60 137.39 126.56 136.70 127.20 Z M 135.97 127.89 L 135.23 128.58 C 134.55 129.23 134.52 130.31 135.16 130.99 C 135.81 131.68 136.89 131.70 137.57 131.06 L 138.31 130.36 C 138.99 129.71 139.02 128.64 138.38 127.95 C 137.73 127.27 136.65 127.24 135.97 127.89 Z M 135.23 128.59 L 134.47 129.31 C 133.79 129.95 133.76 131.03 134.41 131.71 C 135.06 132.40 136.13 132.42 136.82 131.78 L 137.58 131.06 C 138.26 130.41 138.29 129.33 137.64 128.65 C 136.99 127.97 135.91 127.94 135.23 128.59 Z M 134.47 129.30 L 133.79 129.95 C 133.10 130.60 133.07 131.68 133.72 132.36 C 134.37 133.04 135.44 133.07 136.13 132.43 L 136.81 131.78 C 137.50 131.13 137.53 130.05 136.88 129.37 C 136.23 128.69 135.16 128.66 134.47 129.30 Z M 133.79 129.95 L 133.08 130.62 C 132.40 131.26 132.36 132.34 133.01 133.02 C 133.65 133.71 134.73 133.74 135.42 133.10 L 136.13 132.43 C 136.81 131.79 136.84 130.71 136.20 130.02 C 135.55 129.34 134.48 129.30 133.79 129.95 Z M 133.09 130.61 L 132.36 131.29 C 131.67 131.93 131.63 133.01 132.28 133.70 C 132.92 134.39 134.00 134.42 134.69 133.78 L 135.41 133.10 C 136.10 132.46 136.14 131.38 135.49 130.69 C 134.85 130.00 133.77 129.97 133.09 130.61 Z M 132.36 131.29 L 131.62 131.98 C 130.93 132.62 130.89 133.70 131.53 134.39 C 132.17 135.08 133.24 135.12 133.93 134.48 L 134.68 133.79 C 135.37 133.15 135.41 132.07 134.77 131.38 C 134.13 130.69 133.05 130.65 132.36 131.29 Z M 131.62 131.98 L 130.86 132.68 C 130.17 133.31 130.12 134.39 130.76 135.08 C 131.40 135.78 132.48 135.82 133.17 135.18 L 133.93 134.48 C 134.62 133.85 134.67 132.77 134.03 132.08 C 133.39 131.38 132.31 131.34 131.62 131.98 Z M 130.87 132.67 L 130.09 133.38 C 129.39 134.02 129.34 135.09 129.98 135.79 C 130.61 136.48 131.69 136.53 132.38 135.90 L 133.16 135.19 C 133.86 134.56 133.91 133.48 133.27 132.78 C 132.64 132.09 131.56 132.04 130.87 132.67 Z M 130.09 133.38 L 129.30 134.09 C 128.61 134.72 128.55 135.80 129.18 136.50 C 129.81 137.19 130.89 137.25 131.59 136.62 L 132.38 135.90 C 133.07 135.27 133.13 134.20 132.50 133.50 C 131.87 132.80 130.79 132.75 130.09 133.38 Z M 129.31 134.09 L 128.52 134.80 C 127.83 135.42 127.77 136.50 128.40 137.20 C 129.02 137.90 130.10 137.95 130.80 137.32 L 131.58 136.62 C 132.28 135.99 132.34 134.92 131.71 134.22 C 131.08 133.52 130.01 133.46 129.31 134.09 Z M 128.53 134.80 L 127.76 135.48 C 127.07 136.11 127.01 137.18 127.63 137.88 C 128.26 138.58 129.33 138.63 130.03 138.01 L 130.79 137.32 C 131.49 136.70 131.55 135.63 130.92 134.93 C 130.30 134.23 129.23 134.17 128.53 134.80 Z M 127.77 135.48 L 127.04 136.13 C 126.34 136.76 126.28 137.83 126.91 138.53 C 127.53 139.22 128.61 139.28 129.30 138.66 L 130.03 138.01 C 130.73 137.38 130.79 136.31 130.16 135.61 C 129.54 134.92 128.46 134.86 127.77 135.48 Z M 127.04 136.14 L 126.36 136.74 C 125.67 137.37 125.61 138.44 126.24 139.14 C 126.86 139.83 127.93 139.89 128.63 139.26 L 129.30 138.65 C 130.00 138.03 130.06 136.96 129.43 136.26 C 128.80 135.57 127.73 135.51 127.04 136.14 Z M 126.36 136.75 L 125.56 137.47 C 124.87 138.10 124.82 139.17 125.45 139.86 C 126.08 140.55 127.15 140.60 127.84 139.98 L 128.63 139.25 C 129.32 138.63 129.37 137.56 128.75 136.87 C 128.12 136.18 127.05 136.12 126.36 136.75 Z M 125.56 137.49 L 124.79 138.20 C 124.10 138.83 124.06 139.90 124.69 140.58 C 125.32 141.26 126.39 141.31 127.07 140.68 L 127.84 139.96 C 128.53 139.33 128.57 138.27 127.94 137.58 C 127.31 136.90 126.24 136.86 125.56 137.49 Z M 124.78 138.21 L 124.09 138.86 C 123.41 139.49 123.38 140.55 124.01 141.23 C 124.64 141.91 125.71 141.94 126.38 141.31 L 127.07 140.66 C 127.75 140.03 127.79 138.97 127.15 138.29 C 126.52 137.62 125.46 137.58 124.78 138.21 Z M 124.09 138.87 L 123.44 139.48 C 122.77 140.12 122.74 141.17 123.37 141.85 C 124.00 142.52 125.06 142.55 125.73 141.91 L 126.38 141.30 C 127.06 140.67 127.09 139.61 126.45 138.94 C 125.82 138.26 124.76 138.23 124.09 138.87 Z M 123.44 139.49 L 122.74 140.15 C 122.07 140.78 122.04 141.84 122.67 142.51 C 123.30 143.18 124.36 143.21 125.03 142.57 L 125.73 141.91 C 126.40 141.28 126.43 140.22 125.80 139.55 C 125.17 138.88 124.11 138.85 123.44 139.49 Z M 122.75 140.15 L 122.02 140.83 C 121.35 141.46 121.32 142.51 121.95 143.18 C 122.57 143.85 123.63 143.88 124.30 143.25 L 125.02 142.57 C 125.69 141.95 125.72 140.89 125.09 140.23 C 124.47 139.56 123.42 139.52 122.75 140.15 Z M 122.03 140.83 L 121.29 141.51 C 120.62 142.13 120.58 143.18 121.20 143.85 C 121.82 144.53 122.87 144.57 123.54 143.95 L 124.28 143.26 C 124.95 142.64 125.00 141.59 124.38 140.92 C 123.75 140.25 122.71 140.21 122.03 140.83 Z M 121.31 141.50 L 120.57 142.17 C 119.89 142.78 119.84 143.83 120.45 144.50 C 121.06 145.18 122.11 145.23 122.78 144.62 L 123.52 143.95 C 124.20 143.34 124.25 142.30 123.64 141.62 C 123.03 140.94 121.99 140.89 121.31 141.50 Z M 120.58 142.16 L 119.86 142.81 C 119.17 143.41 119.11 144.45 119.71 145.13 C 120.32 145.81 121.36 145.88 122.04 145.28 L 122.77 144.63 C 123.45 144.03 123.51 142.99 122.91 142.31 C 122.31 141.62 121.27 141.56 120.58 142.16 Z M 119.86 142.81 L 119.11 143.47 C 118.43 144.07 118.37 145.11 118.97 145.79 C 119.57 146.47 120.60 146.53 121.28 145.93 L 122.03 145.27 C 122.71 144.67 122.78 143.64 122.18 142.96 C 121.58 142.28 120.54 142.21 119.86 142.81 Z M 119.11 143.48 L 118.34 144.17 C 117.67 144.77 117.61 145.80 118.21 146.48 C 118.81 147.15 119.85 147.21 120.52 146.61 L 121.29 145.92 C 121.96 145.32 122.02 144.29 121.42 143.61 C 120.82 142.94 119.78 142.88 119.11 143.48 Z M 118.33 144.18 L 117.58 144.87 C 116.92 145.47 116.87 146.51 117.48 147.17 C 118.08 147.84 119.12 147.88 119.78 147.28 L 120.53 146.59 C 121.20 145.98 121.24 144.95 120.64 144.29 C 120.03 143.62 119.00 143.58 118.33 144.18 Z M 117.57 144.88 L 116.83 145.57 C 116.18 146.18 116.14 147.21 116.75 147.87 C 117.36 148.53 118.39 148.56 119.05 147.95 L 119.79 147.26 C 120.45 146.65 120.48 145.62 119.87 144.96 C 119.26 144.31 118.23 144.27 117.57 144.88 Z M 116.83 145.58 L 116.09 146.27 C 115.44 146.89 115.41 147.91 116.02 148.56 C 116.63 149.21 117.66 149.25 118.31 148.64 L 119.05 147.94 C 119.70 147.33 119.73 146.31 119.12 145.65 C 118.51 145.00 117.48 144.97 116.83 145.58 Z M 116.10 146.28 L 115.38 146.95 C 114.73 147.56 114.69 148.58 115.30 149.23 C 115.91 149.88 116.93 149.92 117.58 149.31 L 118.31 148.63 C 118.96 148.02 118.99 147.00 118.38 146.35 C 117.77 145.70 116.75 145.67 116.10 146.28 Z M 115.39 146.95 L 114.63 147.65 C 113.98 148.25 113.94 149.27 114.55 149.92 C 115.15 150.57 116.17 150.61 116.82 150.01 L 117.57 149.31 C 118.23 148.71 118.26 147.69 117.66 147.04 C 117.06 146.39 116.04 146.35 115.39 146.95 Z M 114.65 147.64 L 113.90 148.32 C 113.25 148.92 113.20 149.93 113.79 150.59 C 114.39 151.24 115.40 151.29 116.06 150.69 L 116.80 150.01 C 117.46 149.42 117.51 148.40 116.91 147.75 C 116.31 147.10 115.30 147.05 114.65 147.64 Z M 113.91 148.32 L 113.18 148.98 C 112.53 149.57 112.48 150.57 113.07 151.23 C 113.66 151.88 114.66 151.94 115.32 151.35 L 116.04 150.69 C 116.70 150.11 116.75 149.10 116.16 148.44 C 115.57 147.79 114.57 147.73 113.91 148.32 Z M 113.19 148.98 L 112.48 149.61 C 111.83 150.20 111.77 151.20 112.36 151.86 C 112.94 152.51 113.95 152.56 114.60 151.98 L 115.31 151.35 C 115.96 150.76 116.02 149.76 115.43 149.10 C 114.85 148.45 113.85 148.40 113.19 148.98 Z M 112.49 149.62 L 111.80 150.23 C 111.15 150.82 111.10 151.82 111.68 152.47 C 112.26 153.12 113.26 153.17 113.91 152.59 L 114.60 151.97 C 115.25 151.39 115.30 150.39 114.72 149.74 C 114.14 149.09 113.14 149.04 112.49 149.62 Z M 111.80 150.24 L 111.09 150.89 C 110.44 151.47 110.39 152.47 110.97 153.11 C 111.55 153.76 112.55 153.81 113.19 153.23 L 113.91 152.58 C 114.56 152.00 114.61 151.00 114.03 150.36 C 113.45 149.71 112.45 149.66 111.80 150.24 Z M 111.08 150.90 L 110.30 151.61 C 109.66 152.19 109.62 153.18 110.20 153.82 C 110.78 154.46 111.77 154.51 112.41 153.93 L 113.19 153.22 C 113.83 152.64 113.88 151.65 113.30 151.00 C 112.72 150.36 111.73 150.32 111.08 150.90 Z M 110.30 151.62 L 109.54 152.31 C 108.91 152.90 108.87 153.88 109.45 154.52 C 110.03 155.15 111.02 155.20 111.65 154.61 L 112.41 153.92 C 113.05 153.34 113.09 152.35 112.51 151.71 C 111.92 151.08 110.94 151.04 110.30 151.62 Z M 109.54 152.32 L 108.84 152.97 C 108.21 153.55 108.17 154.54 108.76 155.17 C 109.34 155.80 110.32 155.84 110.95 155.25 L 111.66 154.61 C 112.29 154.02 112.32 153.04 111.74 152.41 C 111.16 151.78 110.17 151.74 109.54 152.32 Z M 108.84 152.98 L 108.11 153.66 C 107.48 154.25 107.45 155.23 108.03 155.85 C 108.61 156.48 109.59 156.51 110.22 155.93 L 110.95 155.25 C 111.58 154.66 111.62 153.68 111.03 153.06 C 110.45 152.43 109.47 152.39 108.84 152.98 Z M 108.11 153.67 L 107.35 154.38 C 106.73 154.96 106.70 155.94 107.28 156.56 C 107.86 157.18 108.84 157.21 109.46 156.63 L 110.22 155.92 C 110.84 155.34 110.87 154.36 110.29 153.74 C 109.71 153.12 108.73 153.09 108.11 153.67 Z M 107.35 154.38 L 106.60 155.09 C 105.98 155.68 105.95 156.65 106.53 157.27 C 107.11 157.89 108.09 157.92 108.71 157.34 L 109.46 156.62 C 110.08 156.04 110.11 155.07 109.53 154.45 C 108.95 153.83 107.97 153.80 107.35 154.38 Z M 106.60 155.10 L 105.70 155.96 C 105.08 156.54 105.06 157.51 105.64 158.12 C 106.22 158.74 107.19 158.76 107.81 158.18 L 108.71 157.33 C 109.32 156.75 109.35 155.78 108.76 155.16 C 108.18 154.55 107.21 154.52 106.60 155.10 Z M 105.69 155.97 L 104.76 156.88 C 104.15 157.46 104.14 158.43 104.72 159.03 C 105.31 159.64 106.27 159.65 106.87 159.07 L 107.81 158.16 C 108.41 157.58 108.43 156.61 107.85 156.01 C 107.26 155.41 106.30 155.39 105.69 155.97 Z M 104.73 156.93 L 104.05 157.63 C 103.47 158.22 103.49 159.18 104.09 159.76 C 104.69 160.34 105.64 160.32 106.22 159.72 L 106.90 159.02 C 107.48 158.42 107.46 157.47 106.86 156.89 C 106.27 156.31 105.31 156.33 104.73 156.93 Z M 103.93 157.80 L 103.65 158.18 C 103.16 158.85 103.31 159.78 103.98 160.27 C 104.65 160.75 105.58 160.60 106.07 159.94 L 106.35 159.55 C 106.83 158.89 106.68 157.95 106.02 157.47 C 105.35 156.98 104.41 157.13 103.93 157.80 Z M 105.26 160.48 L 105.67 160.36 C 106.45 160.14 106.91 159.33 106.69 158.54 C 106.47 157.76 105.66 157.30 104.87 157.52 L 104.46 157.64 C 103.68 157.86 103.22 158.67 103.44 159.46 C 103.66 160.24 104.47 160.70 105.26 160.48 Z M 106.05 160.17 L 107.06 159.53 C 107.73 159.10 107.93 158.20 107.51 157.52 C 107.08 156.85 106.18 156.65 105.50 157.08 L 104.49 157.72 C 103.82 158.15 103.62 159.04 104.05 159.72 C 104.47 160.40 105.37 160.60 106.05 160.17 Z M 107.12 159.46 L 108.11 158.74 C 108.75 158.27 108.90 157.38 108.43 156.74 C 107.97 156.10 107.07 155.96 106.43 156.42 L 105.44 157.14 C 104.80 157.61 104.66 158.50 105.12 159.14 C 105.59 159.78 106.48 159.93 107.12 159.46 Z M 108.15 158.70 L 108.94 158.08 C 109.56 157.59 109.66 156.70 109.18 156.08 C 108.69 155.46 107.79 155.35 107.17 155.84 L 106.39 156.46 C 105.77 156.95 105.66 157.85 106.15 158.46 C 106.64 159.08 107.54 159.19 108.15 158.70 Z M 108.97 158.06 L 109.74 157.42 C 110.34 156.92 110.43 156.02 109.92 155.41 C 109.42 154.81 108.52 154.72 107.92 155.23 L 107.15 155.86 C 106.54 156.37 106.46 157.26 106.96 157.87 C 107.46 158.48 108.36 158.56 108.97 158.06 Z M 109.75 157.41 L 110.51 156.76 C 111.11 156.25 111.18 155.35 110.67 154.75 C 110.16 154.15 109.26 154.08 108.66 154.59 L 107.90 155.24 C 107.30 155.75 107.23 156.65 107.74 157.25 C 108.25 157.85 109.15 157.92 109.75 157.41 Z M 110.51 156.76 L 110.64 156.65 C 111.24 156.14 111.31 155.24 110.79 154.64 C 110.28 154.04 109.38 153.97 108.78 154.49 L 108.66 154.59 C 108.06 155.11 107.99 156.01 108.50 156.60 C 109.02 157.20 109.92 157.27 110.51 156.76 Z"
      fill="black"
      fill-rule="nonzero" /><path d="M 123.22 145.63 L 123.82 146.41 C 124.32 147.07 125.26 147.19 125.91 146.68 C 126.56 146.18 126.68 145.25 126.18 144.60 L 125.57 143.81 C 125.07 143.16 124.14 143.04 123.49 143.54 C 122.84 144.04 122.72 144.98 123.22 145.63 Z M 123.72 146.36 L 124.27 147.19 C 124.74 147.90 125.70 148.09 126.41 147.61 C 127.12 147.14 127.31 146.18 126.84 145.47 L 126.28 144.65 C 125.81 143.94 124.85 143.75 124.14 144.22 C 123.44 144.70 123.24 145.65 123.72 146.36 Z M 124.11 147.03 L 124.56 147.93 C 124.94 148.73 125.90 149.06 126.69 148.67 C 127.49 148.28 127.82 147.33 127.43 146.53 L 126.99 145.63 C 126.60 144.84 125.64 144.51 124.85 144.89 C 124.06 145.28 123.73 146.24 124.11 147.03 Z M 124.42 147.69 L 124.67 148.56 C 124.93 149.43 125.84 149.93 126.70 149.67 C 127.57 149.42 128.07 148.51 127.82 147.64 L 127.56 146.78 C 127.31 145.91 126.40 145.41 125.53 145.66 C 124.67 145.92 124.17 146.82 124.42 147.69 Z M 124.61 148.35 L 124.76 149.27 C 124.89 150.17 125.74 150.79 126.64 150.65 C 127.54 150.51 128.15 149.67 128.02 148.77 L 127.88 147.85 C 127.74 146.95 126.90 146.33 126.00 146.47 C 125.09 146.61 124.48 147.45 124.61 148.35 Z M 124.73 149.14 L 124.80 150.15 C 124.87 151.07 125.66 151.75 126.57 151.69 C 127.49 151.63 128.18 150.83 128.11 149.92 L 128.04 148.90 C 127.98 147.99 127.18 147.30 126.27 147.37 C 125.36 147.43 124.67 148.22 124.73 149.14 Z M 124.79 150.08 L 124.82 151.20 C 124.85 152.12 125.61 152.84 126.53 152.82 C 127.45 152.80 128.18 152.03 128.15 151.11 L 128.12 149.99 C 128.10 149.07 127.33 148.35 126.41 148.37 C 125.49 148.40 124.77 149.16 124.79 150.08 Z M 124.82 151.18 L 124.83 152.19 C 124.84 153.11 125.60 153.85 126.52 153.84 C 127.44 153.83 128.18 153.07 128.17 152.15 L 128.16 151.13 C 128.15 150.21 127.39 149.47 126.47 149.48 C 125.54 149.49 124.80 150.25 124.82 151.18 Z M 124.82 152.18 L 124.83 153.20 C 124.84 154.13 125.59 154.87 126.52 154.87 C 127.44 154.86 128.19 154.10 128.18 153.18 L 128.18 152.16 C 128.17 151.23 127.41 150.49 126.49 150.49 C 125.56 150.50 124.82 151.26 124.82 152.18 Z M 124.83 153.20 L 124.83 154.23 C 124.83 155.16 125.59 155.91 126.52 155.90 C 127.45 155.90 128.19 155.14 128.19 154.22 L 128.19 153.18 C 128.18 152.26 127.43 151.51 126.50 151.51 C 125.57 151.51 124.82 152.27 124.83 153.20 Z M 124.83 154.22 L 124.83 155.24 C 124.83 156.17 125.58 156.92 126.51 156.92 C 127.45 156.92 128.20 156.16 128.20 155.23 L 128.20 154.22 C 128.19 153.29 127.44 152.54 126.51 152.54 C 125.58 152.54 124.82 153.29 124.83 154.22 Z M 124.82 155.23 L 124.82 156.19 C 124.82 157.13 125.58 157.88 126.51 157.88 C 127.45 157.88 128.20 157.13 128.20 156.19 L 128.20 155.23 C 128.20 154.30 127.44 153.54 126.51 153.54 C 125.58 153.55 124.82 154.30 124.82 155.23 Z M 124.82 156.19 L 124.82 157.28 C 124.82 158.21 125.58 158.97 126.51 158.97 C 127.45 158.97 128.20 158.21 128.20 157.28 L 128.20 156.19 C 128.20 155.26 127.45 154.50 126.51 154.50 C 125.58 154.50 124.82 155.26 124.82 156.19 Z M 124.82 157.27 L 124.82 158.28 C 124.81 159.22 125.57 159.98 126.51 159.98 C 127.44 159.98 128.20 159.23 128.20 158.29 L 128.21 157.28 C 128.21 156.35 127.45 155.59 126.52 155.58 C 125.58 155.58 124.82 156.34 124.82 157.27 Z M 124.81 158.27 L 124.81 159.23 C 124.80 160.16 125.55 160.93 126.49 160.94 C 127.43 160.94 128.19 160.19 128.20 159.25 L 128.21 158.30 C 128.21 157.36 127.46 156.60 126.52 156.59 C 125.59 156.58 124.82 157.34 124.81 158.27 Z M 124.81 159.22 L 124.79 160.16 C 124.78 161.10 125.53 161.87 126.47 161.88 C 127.40 161.90 128.17 161.15 128.19 160.21 L 128.20 159.26 C 128.21 158.33 127.46 157.55 126.53 157.54 C 125.59 157.53 124.82 158.28 124.81 159.22 Z M 124.79 160.14 L 124.77 161.11 C 124.75 162.05 125.49 162.83 126.43 162.85 C 127.37 162.87 128.14 162.13 128.17 161.19 L 128.19 160.22 C 128.21 159.29 127.47 158.51 126.53 158.49 C 125.59 158.46 124.81 159.21 124.79 160.14 Z M 124.77 161.08 L 124.73 162.08 C 124.69 163.01 125.43 163.80 126.36 163.84 C 127.30 163.88 128.09 163.14 128.13 162.21 L 128.17 161.21 C 128.20 160.28 127.47 159.49 126.53 159.45 C 125.59 159.41 124.81 160.15 124.77 161.08 Z M 124.73 162.04 L 124.67 163.05 C 124.62 163.99 125.33 164.80 126.27 164.85 C 127.20 164.91 128.01 164.19 128.07 163.26 L 128.13 162.24 C 128.18 161.31 127.47 160.50 126.53 160.44 C 125.59 160.39 124.79 161.10 124.73 162.04 Z M 124.67 163.01 L 124.59 164.03 C 124.51 164.96 125.20 165.79 126.13 165.87 C 127.07 165.95 127.89 165.26 127.97 164.32 L 128.06 163.30 C 128.14 162.37 127.45 161.54 126.52 161.46 C 125.58 161.38 124.76 162.07 124.67 163.01 Z M 124.59 163.98 L 124.48 164.95 C 124.37 165.88 125.04 166.73 125.97 166.83 C 126.91 166.94 127.75 166.27 127.86 165.34 L 127.97 164.37 C 128.08 163.44 127.41 162.59 126.48 162.49 C 125.54 162.38 124.70 163.05 124.59 163.98 Z M 124.48 164.91 L 124.35 165.90 C 124.22 166.83 124.87 167.68 125.80 167.81 C 126.73 167.94 127.59 167.29 127.72 166.36 L 127.85 165.37 C 127.98 164.44 127.33 163.59 126.40 163.46 C 125.47 163.33 124.61 163.98 124.48 164.91 Z M 124.35 165.87 L 124.20 166.87 C 124.06 167.80 124.71 168.67 125.63 168.80 C 126.56 168.94 127.43 168.30 127.57 167.37 L 127.72 166.38 C 127.85 165.45 127.21 164.58 126.29 164.44 C 125.36 164.31 124.49 164.95 124.35 165.87 Z M 124.20 166.86 L 124.05 167.88 C 123.91 168.81 124.54 169.67 125.47 169.82 C 126.40 169.96 127.27 169.32 127.41 168.40 L 127.57 167.38 C 127.71 166.45 127.07 165.58 126.14 165.44 C 125.22 165.30 124.35 165.93 124.20 166.86 Z M 124.05 167.88 L 123.90 168.87 C 123.76 169.80 124.39 170.67 125.32 170.81 C 126.25 170.95 127.12 170.32 127.26 169.39 L 127.41 168.39 C 127.55 167.47 126.91 166.60 125.99 166.46 C 125.06 166.32 124.19 166.95 124.05 167.88 Z M 123.90 168.87 L 123.75 169.87 C 123.60 170.80 124.24 171.67 125.17 171.81 C 126.09 171.95 126.96 171.31 127.10 170.39 L 127.25 169.39 C 127.40 168.46 126.76 167.59 125.83 167.45 C 124.91 167.31 124.04 167.95 123.90 168.87 Z M 123.75 169.87 L 123.59 170.86 C 123.45 171.79 124.08 172.65 125.01 172.80 C 125.93 172.94 126.80 172.31 126.94 171.39 L 127.10 170.39 C 127.24 169.47 126.61 168.60 125.69 168.45 C 124.76 168.31 123.89 168.94 123.75 169.87 Z M 123.60 170.85 L 123.44 171.83 C 123.29 172.75 123.91 173.62 124.83 173.77 C 125.76 173.93 126.63 173.30 126.78 172.38 L 126.94 171.40 C 127.09 170.48 126.47 169.60 125.54 169.45 C 124.62 169.30 123.75 169.93 123.60 170.85 Z M 123.44 171.81 L 123.27 172.81 C 123.10 173.73 123.72 174.61 124.64 174.77 C 125.56 174.93 126.44 174.32 126.60 173.40 L 126.77 172.40 C 126.93 171.48 126.32 170.60 125.40 170.44 C 124.48 170.28 123.60 170.89 123.44 171.81 Z M 123.27 172.79 L 123.08 173.80 C 122.91 174.72 123.51 175.60 124.43 175.77 C 125.35 175.95 126.23 175.34 126.40 174.43 L 126.59 173.42 C 126.76 172.50 126.16 171.62 125.24 171.45 C 124.33 171.28 123.44 171.88 123.27 172.79 Z M 123.09 173.79 L 122.90 174.77 C 122.72 175.68 123.31 176.56 124.23 176.74 C 125.14 176.92 126.03 176.33 126.20 175.41 L 126.40 174.44 C 126.57 173.52 125.98 172.64 125.07 172.46 C 124.15 172.28 123.27 172.88 123.09 173.79 Z M 122.90 174.76 L 122.71 175.71 C 122.53 176.62 123.12 177.51 124.03 177.69 C 124.95 177.87 125.83 177.28 126.01 176.37 L 126.20 175.42 C 126.38 174.51 125.79 173.62 124.88 173.44 C 123.97 173.26 123.08 173.85 122.90 174.76 Z M 122.72 175.72 L 122.52 176.70 C 122.35 177.61 122.94 178.49 123.85 178.67 C 124.76 178.85 125.64 178.25 125.82 177.34 L 126.01 176.36 C 126.19 175.45 125.59 174.57 124.68 174.39 C 123.78 174.22 122.89 174.81 122.72 175.72 Z M 122.53 176.71 L 122.34 177.70 C 122.16 178.61 122.76 179.49 123.66 179.66 C 124.57 179.83 125.45 179.24 125.62 178.33 L 125.81 177.34 C 125.98 176.43 125.39 175.55 124.48 175.38 C 123.58 175.21 122.70 175.80 122.53 176.71 Z M 122.34 177.71 L 122.16 178.68 C 121.99 179.59 122.58 180.46 123.48 180.63 C 124.39 180.80 125.26 180.21 125.43 179.31 L 125.61 178.33 C 125.79 177.43 125.19 176.55 124.29 176.38 C 123.39 176.21 122.51 176.80 122.34 177.71 Z M 122.17 178.68 L 121.98 179.64 C 121.81 180.54 122.40 181.41 123.30 181.58 C 124.20 181.75 125.07 181.16 125.24 180.26 L 125.42 179.31 C 125.59 178.41 125.00 177.54 124.10 177.37 C 123.20 177.20 122.34 177.79 122.17 178.68 Z M 121.99 179.64 L 121.81 180.56 C 121.64 181.45 122.22 182.32 123.12 182.49 C 124.01 182.67 124.88 182.08 125.05 181.19 L 125.23 180.27 C 125.40 179.37 124.82 178.51 123.92 178.33 C 123.03 178.16 122.16 178.74 121.99 179.64 Z M 121.82 180.56 L 121.64 181.50 C 121.46 182.39 122.05 183.25 122.94 183.42 C 123.83 183.60 124.69 183.02 124.86 182.13 L 125.04 181.19 C 125.22 180.30 124.64 179.43 123.75 179.26 C 122.86 179.09 121.99 179.67 121.82 180.56 Z M 121.65 181.50 L 121.45 182.50 C 121.28 183.39 121.86 184.25 122.75 184.42 C 123.63 184.59 124.49 184.01 124.66 183.12 L 124.85 182.12 C 125.02 181.24 124.45 180.38 123.56 180.21 C 122.67 180.04 121.82 180.62 121.65 181.50 Z M 121.46 182.51 L 121.26 183.56 C 121.09 184.44 121.67 185.29 122.56 185.46 C 123.44 185.63 124.29 185.05 124.46 184.16 L 124.65 183.12 C 124.82 182.23 124.24 181.38 123.36 181.22 C 122.48 181.05 121.63 181.63 121.46 182.51 Z M 121.27 183.57 L 121.09 184.52 C 120.93 185.40 121.51 186.24 122.39 186.41 C 123.27 186.57 124.11 185.99 124.27 185.11 L 124.45 184.15 C 124.61 183.28 124.03 182.43 123.15 182.27 C 122.27 182.11 121.43 182.69 121.27 183.57 Z M 121.10 184.54 L 120.92 185.54 C 120.77 186.41 121.35 187.24 122.23 187.40 C 123.10 187.55 123.94 186.97 124.09 186.09 L 124.27 185.09 C 124.42 184.22 123.84 183.39 122.96 183.23 C 122.09 183.08 121.25 183.66 121.10 184.54 Z M 120.93 185.55 L 120.76 186.57 C 120.62 187.44 121.21 188.26 122.08 188.41 C 122.95 188.55 123.77 187.96 123.92 187.09 L 124.08 186.08 C 124.23 185.20 123.64 184.38 122.77 184.24 C 121.90 184.09 121.07 184.68 120.93 185.55 Z M 120.77 186.59 L 120.62 187.59 C 120.48 188.46 121.08 189.27 121.95 189.40 C 122.82 189.53 123.63 188.94 123.76 188.07 L 123.91 187.07 C 124.04 186.20 123.45 185.39 122.58 185.26 C 121.71 185.13 120.90 185.72 120.77 186.59 Z M 120.62 187.63 L 120.48 188.79 C 120.36 189.66 120.98 190.45 121.84 190.56 C 122.70 190.67 123.49 190.05 123.60 189.19 L 123.75 188.03 C 123.86 187.17 123.25 186.38 122.39 186.27 C 121.52 186.16 120.73 186.77 120.62 187.63 Z M 120.49 188.89 L 120.41 190.07 C 120.36 190.93 121.01 191.67 121.86 191.72 C 122.72 191.78 123.46 191.13 123.52 190.27 L 123.59 189.09 C 123.65 188.23 123.00 187.49 122.14 187.44 C 121.28 187.38 120.54 188.03 120.49 188.89 Z M 120.44 190.34 L 120.54 191.22 C 120.63 192.06 121.39 192.67 122.23 192.58 C 123.07 192.48 123.68 191.73 123.59 190.88 L 123.49 190.00 C 123.39 189.16 122.64 188.55 121.79 188.65 C 120.95 188.74 120.35 189.50 120.44 190.34 Z M 120.86 191.96 L 121.23 192.45 C 121.73 193.12 122.68 193.25 123.34 192.75 C 124.01 192.25 124.14 191.31 123.64 190.64 L 123.27 190.15 C 122.77 189.48 121.82 189.35 121.16 189.85 C 120.49 190.35 120.36 191.29 120.86 191.96 Z M 122.45 193.03 L 123.24 193.02 C 124.06 193.01 124.72 192.34 124.71 191.52 C 124.70 190.71 124.03 190.05 123.21 190.06 L 122.42 190.07 C 121.60 190.08 120.94 190.75 120.95 191.56 C 120.96 192.38 121.63 193.04 122.45 193.03 Z M 123.75 192.90 L 124.79 192.50 C 125.54 192.21 125.91 191.37 125.62 190.62 C 125.33 189.87 124.49 189.49 123.74 189.78 L 122.70 190.18 C 121.95 190.47 121.58 191.31 121.87 192.06 C 122.16 192.81 123.00 193.19 123.75 192.90 Z M 124.88 192.44 L 125.41 192.19 C 126.12 191.85 126.43 190.99 126.09 190.28 C 125.75 189.56 124.90 189.26 124.18 189.59 L 123.65 189.84 C 122.94 190.18 122.63 191.04 122.97 191.75 C 123.31 192.47 124.16 192.77 124.88 192.44 Z"
      fill="black"
      fill-rule="nonzero" /><path d="M 162.51 117.07 L 161.63 116.85 C 160.76 116.62 159.86 117.15 159.64 118.02 C 159.41 118.90 159.94 119.79 160.81 120.02 L 161.69 120.24 C 162.56 120.47 163.46 119.94 163.68 119.07 C 163.91 118.19 163.38 117.30 162.51 117.07 Z M 161.64 116.84 L 160.74 116.61 C 159.86 116.38 158.96 116.91 158.73 117.78 C 158.50 118.66 159.03 119.56 159.91 119.79 L 160.81 120.02 C 161.68 120.25 162.58 119.72 162.81 118.85 C 163.04 117.97 162.51 117.07 161.64 116.84 Z M 160.74 116.61 L 159.79 116.35 C 158.91 116.12 158.01 116.64 157.78 117.52 C 157.54 118.40 158.07 119.30 158.94 119.53 L 159.90 119.79 C 160.78 120.02 161.68 119.50 161.91 118.62 C 162.14 117.74 161.62 116.84 160.74 116.61 Z M 159.80 116.35 L 158.77 116.07 C 157.89 115.83 156.99 116.35 156.75 117.23 C 156.51 118.11 157.03 119.02 157.91 119.26 L 158.93 119.54 C 159.81 119.77 160.72 119.26 160.96 118.38 C 161.20 117.50 160.68 116.59 159.80 116.35 Z M 158.78 116.07 L 157.66 115.76 C 156.78 115.51 155.86 116.02 155.62 116.90 C 155.37 117.78 155.89 118.70 156.77 118.94 L 157.89 119.26 C 158.77 119.50 159.69 118.99 159.93 118.11 C 160.18 117.23 159.66 116.32 158.78 116.07 Z M 157.68 115.76 L 156.50 115.40 C 155.62 115.14 154.69 115.65 154.43 116.53 C 154.17 117.41 154.67 118.33 155.55 118.59 L 156.74 118.94 C 157.62 119.20 158.54 118.70 158.80 117.82 C 159.06 116.94 158.56 116.02 157.68 115.76 Z M 156.57 115.42 L 155.45 115.03 C 154.58 114.73 153.63 115.20 153.33 116.07 C 153.03 116.95 153.49 117.90 154.36 118.20 L 155.48 118.58 C 156.35 118.88 157.31 118.41 157.61 117.54 C 157.91 116.67 157.44 115.72 156.57 115.42 Z M 155.60 115.08 L 154.70 114.67 C 153.86 114.29 152.86 114.67 152.48 115.51 C 152.09 116.36 152.47 117.36 153.31 117.74 L 154.21 118.15 C 155.06 118.53 156.06 118.16 156.44 117.31 C 156.83 116.46 156.45 115.46 155.60 115.08 Z M 155.06 114.88 L 154.52 114.45 C 153.79 113.87 152.72 114.00 152.14 114.73 C 151.56 115.47 151.69 116.53 152.42 117.11 L 152.96 117.54 C 153.69 118.12 154.76 117.99 155.34 117.26 C 155.92 116.52 155.79 115.46 155.06 114.88 Z M 155.17 115.68 L 155.14 115.23 C 155.08 114.29 154.28 113.58 153.34 113.64 C 152.40 113.70 151.69 114.50 151.75 115.44 L 151.78 115.89 C 151.83 116.83 152.64 117.54 153.58 117.48 C 154.52 117.42 155.23 116.62 155.17 115.68 Z M 154.58 116.60 L 155.10 116.14 C 155.80 115.51 155.85 114.44 155.23 113.74 C 154.60 113.04 153.52 112.98 152.82 113.61 L 152.31 114.07 C 151.61 114.70 151.55 115.77 152.18 116.47 C 152.81 117.17 153.88 117.23 154.58 116.60 Z M 154.72 116.40 L 155.62 115.94 C 156.47 115.53 156.81 114.51 156.39 113.67 C 155.97 112.83 154.95 112.48 154.11 112.90 L 153.20 113.35 C 152.36 113.77 152.02 114.79 152.44 115.63 C 152.86 116.47 153.88 116.81 154.72 116.40 Z M 155.47 116.01 L 156.61 115.58 C 157.49 115.25 157.93 114.27 157.60 113.39 C 157.27 112.51 156.29 112.07 155.41 112.40 L 154.27 112.84 C 153.39 113.17 152.95 114.15 153.28 115.02 C 153.61 115.90 154.59 116.34 155.47 116.01 Z M 156.54 115.60 L 157.73 115.21 C 158.61 114.92 159.10 113.96 158.80 113.07 C 158.51 112.18 157.55 111.70 156.66 111.99 L 155.48 112.38 C 154.59 112.68 154.11 113.63 154.40 114.52 C 154.70 115.41 155.65 115.89 156.54 115.60 Z M 157.70 115.21 L 158.61 114.93 C 159.50 114.65 159.99 113.70 159.71 112.81 C 159.43 111.92 158.48 111.42 157.59 111.70 L 156.69 111.99 C 155.80 112.27 155.30 113.22 155.58 114.11 C 155.86 115.00 156.81 115.49 157.70 115.21 Z M 158.59 114.92 L 159.49 114.65 C 160.37 114.38 160.87 113.43 160.60 112.55 C 160.33 111.66 159.39 111.16 158.50 111.43 L 157.60 111.71 C 156.72 111.98 156.22 112.92 156.49 113.81 C 156.76 114.70 157.71 115.20 158.59 114.92 Z M 159.48 114.64 L 160.39 114.37 C 161.27 114.10 161.77 113.17 161.50 112.28 C 161.24 111.39 160.30 110.89 159.41 111.16 L 158.51 111.44 C 157.62 111.71 157.12 112.64 157.39 113.53 C 157.66 114.41 158.59 114.91 159.48 114.64 Z M 160.38 114.36 L 161.33 114.07 C 162.22 113.81 162.71 112.88 162.45 112.00 C 162.18 111.11 161.25 110.62 160.37 110.88 L 159.42 111.17 C 158.54 111.44 158.04 112.37 158.30 113.25 C 158.57 114.13 159.50 114.63 160.38 114.36 Z M 161.34 114.07 L 162.36 113.75 C 163.24 113.49 163.73 112.56 163.46 111.68 C 163.20 110.81 162.27 110.31 161.39 110.58 L 160.37 110.89 C 159.49 111.16 159.00 112.08 159.26 112.96 C 159.53 113.84 160.46 114.33 161.34 114.07 Z M 162.36 113.75 L 163.41 113.42 C 164.28 113.15 164.77 112.23 164.50 111.36 C 164.23 110.48 163.30 110.00 162.43 110.26 L 161.39 110.59 C 160.52 110.86 160.03 111.78 160.30 112.65 C 160.57 113.53 161.49 114.02 162.36 113.75 Z M 163.41 113.42 L 164.36 113.12 C 165.23 112.85 165.71 111.92 165.44 111.05 C 165.17 110.19 164.24 109.70 163.38 109.97 L 162.43 110.27 C 161.56 110.54 161.07 111.47 161.35 112.34 C 161.62 113.21 162.54 113.69 163.41 113.42 Z M 164.36 113.11 L 165.36 112.80 C 166.22 112.53 166.70 111.60 166.43 110.74 C 166.15 109.87 165.23 109.39 164.36 109.67 L 163.37 109.98 C 162.51 110.25 162.03 111.18 162.30 112.04 C 162.57 112.91 163.50 113.39 164.36 113.11 Z M 165.36 112.80 L 166.37 112.48 C 167.23 112.20 167.71 111.28 167.43 110.41 C 167.16 109.55 166.24 109.07 165.37 109.35 L 164.36 109.67 C 163.50 109.94 163.02 110.87 163.30 111.73 C 163.57 112.59 164.49 113.07 165.36 112.80 Z M 166.37 112.47 L 167.37 112.15 C 168.23 111.88 168.71 110.95 168.43 110.09 C 168.16 109.23 167.24 108.76 166.38 109.03 L 165.37 109.35 C 164.51 109.63 164.04 110.55 164.31 111.41 C 164.59 112.27 165.51 112.75 166.37 112.47 Z M 167.37 112.15 L 168.35 111.84 C 169.20 111.56 169.68 110.64 169.40 109.78 C 169.13 108.92 168.21 108.45 167.35 108.72 L 166.38 109.04 C 165.52 109.31 165.04 110.23 165.32 111.09 C 165.59 111.95 166.51 112.42 167.37 112.15 Z M 168.34 111.83 L 169.26 111.54 C 170.12 111.26 170.59 110.35 170.32 109.49 C 170.05 108.63 169.13 108.16 168.27 108.43 L 167.35 108.73 C 166.49 109.00 166.02 109.92 166.30 110.78 C 166.57 111.63 167.49 112.11 168.34 111.83 Z M 169.26 111.53 L 170.10 111.27 C 170.96 110.99 171.43 110.08 171.16 109.22 C 170.89 108.37 169.97 107.90 169.12 108.17 L 168.27 108.44 C 167.42 108.71 166.95 109.62 167.22 110.48 C 167.49 111.33 168.41 111.81 169.26 111.53 Z M 170.10 111.26 L 171.34 110.86 C 172.19 110.59 172.66 109.69 172.39 108.84 C 172.12 107.99 171.21 107.52 170.36 107.79 L 169.12 108.18 C 168.27 108.45 167.80 109.35 168.07 110.20 C 168.34 111.05 169.25 111.53 170.10 111.26 Z M 171.33 110.85 L 172.34 110.53 C 173.18 110.26 173.65 109.37 173.39 108.53 C 173.12 107.69 172.23 107.22 171.38 107.48 L 170.37 107.80 C 169.53 108.07 169.06 108.96 169.32 109.80 C 169.59 110.65 170.49 111.11 171.33 110.85 Z M 172.34 110.51 L 173.18 110.25 C 174.01 109.98 174.48 109.10 174.21 108.27 C 173.95 107.43 173.07 106.97 172.23 107.23 L 171.39 107.50 C 170.56 107.76 170.09 108.65 170.36 109.48 C 170.62 110.31 171.51 110.77 172.34 110.51 Z M 173.18 110.23 L 173.94 109.99 C 174.76 109.72 175.21 108.84 174.95 108.02 C 174.69 107.20 173.81 106.75 172.99 107.01 L 172.23 107.25 C 171.41 107.52 170.96 108.39 171.22 109.22 C 171.48 110.04 172.36 110.49 173.18 110.23 Z M 173.94 109.97 L 174.67 109.73 C 175.48 109.46 175.92 108.59 175.66 107.78 C 175.39 106.96 174.52 106.52 173.70 106.79 L 172.98 107.03 C 172.17 107.30 171.72 108.17 171.99 108.98 C 172.26 109.79 173.13 110.24 173.94 109.97 Z M 174.67 109.72 L 175.46 109.46 C 176.27 109.19 176.70 108.32 176.43 107.51 C 176.17 106.71 175.29 106.27 174.49 106.54 L 173.70 106.80 C 172.89 107.07 172.46 107.94 172.73 108.75 C 173.00 109.55 173.87 109.99 174.67 109.72 Z M 175.45 109.45 L 176.38 109.15 C 177.18 108.88 177.62 108.01 177.35 107.21 C 177.09 106.41 176.22 105.97 175.42 106.24 L 174.49 106.54 C 173.69 106.81 173.25 107.68 173.52 108.48 C 173.78 109.28 174.65 109.72 175.45 109.45 Z M 176.37 109.14 L 177.51 108.77 C 178.31 108.51 178.75 107.65 178.49 106.85 C 178.23 106.05 177.37 105.61 176.57 105.87 L 175.43 106.24 C 174.63 106.50 174.19 107.36 174.45 108.16 C 174.71 108.97 175.57 109.40 176.37 109.14 Z M 177.50 108.77 L 178.56 108.43 C 179.36 108.18 179.80 107.32 179.54 106.52 C 179.29 105.72 178.43 105.28 177.63 105.54 L 176.58 105.87 C 175.78 106.13 175.34 106.98 175.59 107.78 C 175.85 108.58 176.70 109.02 177.50 108.77 Z M 178.55 108.43 L 179.43 108.15 C 180.23 107.90 180.67 107.05 180.42 106.25 C 180.17 105.45 179.32 105.01 178.52 105.26 L 177.64 105.54 C 176.84 105.79 176.40 106.64 176.65 107.44 C 176.90 108.24 177.75 108.68 178.55 108.43 Z M 179.43 108.15 L 180.38 107.85 C 181.17 107.60 181.62 106.76 181.37 105.96 C 181.12 105.16 180.27 104.72 179.48 104.97 L 178.53 105.26 C 177.73 105.51 177.29 106.36 177.53 107.16 C 177.78 107.95 178.63 108.40 179.43 108.15 Z M 180.37 107.85 L 181.36 107.54 C 182.16 107.30 182.61 106.45 182.36 105.66 C 182.11 104.86 181.27 104.42 180.48 104.66 L 179.48 104.97 C 178.69 105.22 178.24 106.06 178.49 106.86 C 178.73 107.65 179.58 108.10 180.37 107.85 Z M 181.36 107.54 L 182.37 107.23 C 183.17 106.99 183.61 106.15 183.37 105.36 C 183.13 104.56 182.29 104.11 181.49 104.36 L 180.48 104.67 C 179.69 104.91 179.24 105.75 179.48 106.54 C 179.72 107.34 180.56 107.78 181.36 107.54 Z M 182.37 107.23 L 183.38 106.93 C 184.17 106.69 184.62 105.85 184.38 105.06 C 184.14 104.26 183.31 103.81 182.51 104.05 L 181.50 104.36 C 180.71 104.60 180.26 105.43 180.50 106.23 C 180.74 107.02 181.57 107.47 182.37 107.23 Z M 183.37 106.92 L 184.36 106.63 C 185.15 106.39 185.60 105.56 185.37 104.77 C 185.13 103.98 184.30 103.53 183.51 103.76 L 182.52 104.06 C 181.73 104.29 181.28 105.12 181.51 105.92 C 181.75 106.71 182.58 107.16 183.37 106.92 Z M 184.35 106.63 L 185.29 106.35 C 186.08 106.12 186.53 105.29 186.30 104.50 C 186.07 103.71 185.24 103.26 184.45 103.49 L 183.51 103.76 C 182.72 103.99 182.27 104.82 182.50 105.61 C 182.73 106.41 183.56 106.86 184.35 106.63 Z M 185.28 106.35 L 186.46 106.02 C 187.25 105.79 187.70 104.97 187.48 104.18 C 187.26 103.39 186.43 102.93 185.64 103.16 L 184.47 103.49 C 183.68 103.72 183.22 104.54 183.44 105.33 C 183.67 106.12 184.49 106.57 185.28 106.35 Z M 186.44 106.01 L 187.52 105.72 C 188.30 105.50 188.77 104.69 188.56 103.91 C 188.34 103.12 187.53 102.66 186.75 102.87 L 185.66 103.16 C 184.88 103.38 184.41 104.19 184.63 104.97 C 184.84 105.76 185.65 106.22 186.44 106.01 Z M 187.50 105.71 L 188.47 105.46 C 189.25 105.26 189.73 104.46 189.53 103.68 C 189.32 102.90 188.53 102.42 187.74 102.62 L 186.77 102.87 C 185.99 103.08 185.51 103.87 185.71 104.66 C 185.91 105.44 186.71 105.91 187.50 105.71 Z M 188.44 105.46 L 189.33 105.25 C 190.11 105.06 190.59 104.28 190.41 103.50 C 190.22 102.72 189.44 102.23 188.66 102.42 L 187.77 102.63 C 186.99 102.81 186.51 103.60 186.69 104.38 C 186.88 105.16 187.66 105.64 188.44 105.46 Z M 189.30 105.24 L 190.12 105.07 C 190.89 104.90 191.39 104.13 191.22 103.35 C 191.05 102.57 190.29 102.08 189.51 102.25 L 188.69 102.42 C 187.91 102.59 187.42 103.36 187.58 104.14 C 187.75 104.91 188.52 105.41 189.30 105.24 Z M 190.08 105.07 L 191.00 104.89 C 191.78 104.75 192.29 104.00 192.14 103.22 C 192.00 102.44 191.25 101.93 190.47 102.07 L 189.55 102.25 C 188.77 102.39 188.26 103.14 188.40 103.92 C 188.55 104.70 189.30 105.21 190.08 105.07 Z M 190.96 104.89 L 191.98 104.73 C 192.76 104.61 193.29 103.88 193.17 103.10 C 193.05 102.32 192.32 101.79 191.54 101.91 L 190.51 102.07 C 189.73 102.19 189.20 102.93 189.32 103.71 C 189.45 104.49 190.18 105.02 190.96 104.89 Z M 191.95 104.74 L 192.92 104.61 C 193.70 104.50 194.25 103.79 194.15 103.01 C 194.05 102.22 193.33 101.67 192.55 101.78 L 191.57 101.90 C 190.79 102.01 190.24 102.73 190.34 103.51 C 190.45 104.29 191.16 104.84 191.95 104.74 Z M 192.90 104.61 L 193.84 104.50 C 194.63 104.41 195.19 103.70 195.10 102.92 C 195.01 102.14 194.30 101.57 193.52 101.67 L 192.57 101.78 C 191.79 101.87 191.23 102.57 191.32 103.36 C 191.41 104.14 192.12 104.70 192.90 104.61 Z M 193.84 104.50 L 194.14 104.47 C 194.92 104.38 195.49 103.67 195.40 102.89 C 195.31 102.11 194.61 101.54 193.82 101.63 L 193.52 101.67 C 192.74 101.75 192.18 102.46 192.26 103.24 C 192.35 104.02 193.06 104.59 193.84 104.50 Z"
      fill="black"
      fill-rule="nonzero" /><path d="M 161.56 126.49 L 160.50 126.77 C 159.64 126.99 159.12 127.88 159.35 128.74 C 159.58 129.60 160.46 130.12 161.32 129.89 L 162.38 129.61 C 163.24 129.39 163.76 128.51 163.53 127.64 C 163.30 126.78 162.42 126.26 161.56 126.49 Z M 160.49 126.77 L 159.45 127.05 C 158.59 127.29 158.08 128.17 158.32 129.04 C 158.55 129.90 159.44 130.40 160.30 130.17 L 161.34 129.89 C 162.20 129.65 162.71 128.77 162.47 127.90 C 162.24 127.04 161.35 126.54 160.49 126.77 Z M 159.42 127.06 L 158.43 127.35 C 157.57 127.60 157.08 128.50 157.33 129.36 C 157.58 130.21 158.48 130.70 159.33 130.45 L 160.33 130.16 C 161.19 129.91 161.68 129.01 161.43 128.16 C 161.18 127.30 160.28 126.81 159.42 127.06 Z M 158.38 127.36 L 157.44 127.67 C 156.59 127.95 156.13 128.86 156.40 129.71 C 156.68 130.56 157.59 131.02 158.44 130.75 L 159.38 130.44 C 160.23 130.16 160.69 129.25 160.42 128.40 C 160.14 127.55 159.23 127.09 158.38 127.36 Z M 157.37 127.70 L 156.51 128.02 C 155.67 128.34 155.25 129.27 155.57 130.11 C 155.88 130.94 156.82 131.36 157.65 131.05 L 158.51 130.72 C 159.35 130.41 159.77 129.47 159.45 128.64 C 159.14 127.80 158.20 127.38 157.37 127.70 Z M 156.39 128.07 L 155.47 128.50 C 154.66 128.88 154.32 129.85 154.70 130.66 C 155.08 131.46 156.04 131.81 156.85 131.43 L 157.77 131.00 C 158.58 130.62 158.93 129.65 158.55 128.84 C 158.17 128.04 157.20 127.69 156.39 128.07 Z M 155.24 128.63 L 154.20 129.34 C 153.46 129.85 153.28 130.87 153.79 131.61 C 154.30 132.35 155.31 132.53 156.05 132.02 L 157.09 131.30 C 157.83 130.79 158.01 129.78 157.50 129.04 C 156.99 128.30 155.98 128.12 155.24 128.63 Z M 153.72 129.84 L 153.31 130.52 C 152.85 131.29 153.10 132.30 153.87 132.77 C 154.65 133.23 155.66 132.98 156.13 132.21 L 156.53 131.53 C 157.00 130.75 156.75 129.74 155.97 129.27 C 155.20 128.81 154.19 129.06 153.72 129.84 Z M 153.34 132.27 L 153.66 132.76 C 154.16 133.53 155.19 133.74 155.95 133.24 C 156.71 132.74 156.93 131.72 156.43 130.95 L 156.10 130.46 C 155.60 129.69 154.58 129.48 153.82 129.98 C 153.05 130.48 152.84 131.50 153.34 132.27 Z M 154.47 133.41 L 155.07 133.64 C 155.93 133.95 156.88 133.52 157.20 132.66 C 157.52 131.80 157.08 130.85 156.22 130.53 L 155.62 130.30 C 154.76 129.99 153.81 130.43 153.49 131.28 C 153.17 132.14 153.61 133.10 154.47 133.41 Z M 155.39 133.72 L 156.26 133.85 C 157.16 133.99 158.01 133.38 158.15 132.47 C 158.29 131.57 157.67 130.72 156.77 130.58 L 155.90 130.44 C 155.00 130.30 154.15 130.92 154.01 131.83 C 153.87 132.73 154.49 133.58 155.39 133.72 Z M 156.45 133.87 L 157.52 133.91 C 158.43 133.94 159.20 133.23 159.23 132.31 C 159.26 131.40 158.55 130.63 157.63 130.60 L 156.57 130.56 C 155.65 130.53 154.89 131.24 154.86 132.16 C 154.82 133.07 155.54 133.84 156.45 133.87 Z M 157.67 133.91 L 158.88 133.84 C 159.79 133.79 160.49 133.01 160.44 132.09 C 160.39 131.18 159.61 130.48 158.70 130.53 L 157.48 130.60 C 156.57 130.65 155.87 131.43 155.92 132.35 C 155.97 133.26 156.76 133.96 157.67 133.91 Z M 159.01 133.83 L 160.29 133.65 C 161.20 133.53 161.83 132.69 161.71 131.78 C 161.58 130.88 160.75 130.24 159.84 130.37 L 158.56 130.54 C 157.66 130.67 157.02 131.51 157.15 132.41 C 157.27 133.32 158.11 133.95 159.01 133.83 Z M 160.41 133.63 L 161.43 133.41 C 162.32 133.22 162.89 132.35 162.71 131.46 C 162.52 130.57 161.65 129.99 160.75 130.18 L 159.73 130.39 C 158.84 130.58 158.27 131.46 158.45 132.35 C 158.64 133.24 159.51 133.81 160.41 133.63 Z M 161.51 133.38 L 162.53 133.11 C 163.41 132.88 163.93 131.99 163.70 131.11 C 163.47 130.24 162.58 129.71 161.70 129.94 L 160.68 130.21 C 159.80 130.44 159.28 131.33 159.51 132.21 C 159.73 133.09 160.63 133.61 161.51 133.38 Z M 162.59 133.08 L 163.60 132.78 C 164.46 132.52 164.94 131.61 164.68 130.75 C 164.42 129.89 163.51 129.40 162.65 129.66 L 161.64 129.97 C 160.78 130.23 160.30 131.14 160.56 132.00 C 160.82 132.86 161.73 133.35 162.59 133.08 Z M 163.64 132.75 L 164.62 132.42 C 165.46 132.13 165.92 131.22 165.63 130.37 C 165.34 129.53 164.43 129.07 163.58 129.36 L 162.61 129.69 C 161.76 129.98 161.31 130.89 161.59 131.74 C 161.88 132.58 162.80 133.04 163.64 132.75 Z M 164.65 132.40 L 165.58 132.06 C 166.41 131.75 166.84 130.83 166.53 130.00 C 166.23 129.17 165.31 128.74 164.47 129.05 L 163.55 129.38 C 162.72 129.69 162.29 130.61 162.59 131.44 C 162.90 132.27 163.82 132.70 164.65 132.40 Z M 165.60 132.04 L 166.46 131.71 C 167.28 131.39 167.69 130.47 167.37 129.65 C 167.05 128.83 166.13 128.42 165.31 128.73 L 164.45 129.07 C 163.63 129.38 163.22 130.31 163.54 131.13 C 163.86 131.95 164.78 132.35 165.60 132.04 Z M 166.47 131.69 L 167.42 131.31 C 168.23 130.98 168.62 130.06 168.29 129.25 C 167.97 128.44 167.05 128.05 166.24 128.37 L 165.29 128.75 C 164.48 129.08 164.09 130.00 164.42 130.81 C 164.74 131.62 165.66 132.01 166.47 131.69 Z M 167.43 131.28 L 168.51 130.84 C 169.30 130.50 169.68 129.59 169.35 128.79 C 169.02 127.99 168.10 127.62 167.31 127.95 L 166.23 128.40 C 165.43 128.73 165.05 129.64 165.38 130.44 C 165.72 131.24 166.63 131.62 167.43 131.28 Z M 168.52 130.81 L 169.42 130.42 C 170.20 130.08 170.56 129.17 170.22 128.39 C 169.88 127.61 168.97 127.25 168.19 127.58 L 167.29 127.97 C 166.51 128.31 166.15 129.22 166.49 130.01 C 166.83 130.79 167.74 131.15 168.52 130.81 Z M 169.43 130.40 L 170.21 130.05 C 170.98 129.71 171.32 128.80 170.98 128.03 C 170.63 127.26 169.73 126.91 168.96 127.26 L 168.18 127.61 C 167.41 127.95 167.06 128.86 167.40 129.63 C 167.75 130.40 168.65 130.75 169.43 130.40 Z M 170.21 130.03 L 171.01 129.67 C 171.77 129.33 172.11 128.43 171.76 127.67 C 171.42 126.90 170.52 126.57 169.76 126.91 L 168.96 127.28 C 168.19 127.62 167.86 128.52 168.20 129.28 C 168.55 130.04 169.45 130.38 170.21 130.03 Z M 171.01 129.66 L 171.91 129.25 C 172.66 128.91 173.00 128.02 172.65 127.26 C 172.31 126.50 171.42 126.17 170.66 126.51 L 169.76 126.92 C 169.00 127.27 168.67 128.16 169.01 128.91 C 169.36 129.67 170.25 130.01 171.01 129.66 Z M 171.90 129.25 L 172.81 128.83 C 173.57 128.49 173.90 127.60 173.56 126.85 C 173.21 126.09 172.33 125.76 171.57 126.10 L 170.66 126.52 C 169.91 126.86 169.57 127.75 169.92 128.50 C 170.26 129.26 171.15 129.59 171.90 129.25 Z M 172.81 128.83 L 173.74 128.40 C 174.49 128.06 174.82 127.18 174.47 126.43 C 174.13 125.68 173.25 125.35 172.50 125.69 L 171.57 126.11 C 170.82 126.45 170.49 127.34 170.83 128.09 C 171.18 128.84 172.06 129.17 172.81 128.83 Z M 173.74 128.40 L 174.65 127.98 C 175.39 127.64 175.72 126.76 175.38 126.01 C 175.04 125.26 174.16 124.94 173.41 125.28 L 172.50 125.69 C 171.75 126.04 171.42 126.92 171.76 127.67 C 172.11 128.41 172.99 128.74 173.74 128.40 Z M 174.65 127.98 L 175.56 127.55 C 176.31 127.21 176.63 126.33 176.29 125.59 C 175.95 124.85 175.07 124.52 174.33 124.86 L 173.41 125.28 C 172.67 125.62 172.34 126.50 172.68 127.25 C 173.02 127.99 173.90 128.32 174.65 127.98 Z M 175.57 127.55 L 176.47 127.13 C 177.21 126.79 177.53 125.91 177.19 125.17 C 176.84 124.43 175.97 124.11 175.23 124.45 L 174.32 124.87 C 173.58 125.21 173.26 126.09 173.61 126.83 C 173.95 127.57 174.83 127.89 175.57 127.55 Z M 176.47 127.12 L 177.25 126.76 C 177.99 126.41 178.30 125.54 177.96 124.80 C 177.61 124.07 176.74 123.75 176.00 124.09 L 175.22 124.46 C 174.49 124.80 174.17 125.68 174.51 126.41 C 174.86 127.15 175.74 127.47 176.47 127.12 Z M 177.25 126.75 L 178.03 126.38 C 178.77 126.04 179.08 125.16 178.73 124.43 C 178.39 123.70 177.51 123.38 176.78 123.73 L 176.00 124.10 C 175.27 124.45 174.95 125.32 175.30 126.05 C 175.65 126.79 176.52 127.10 177.25 126.75 Z M 178.04 126.38 L 178.93 125.95 C 179.66 125.60 179.97 124.72 179.62 124.00 C 179.27 123.27 178.39 122.96 177.67 123.31 L 176.77 123.74 C 176.04 124.09 175.74 124.96 176.09 125.69 C 176.44 126.42 177.31 126.73 178.04 126.38 Z M 178.94 125.94 L 180.02 125.42 C 180.74 125.07 181.05 124.19 180.69 123.47 C 180.34 122.74 179.47 122.44 178.74 122.79 L 177.66 123.31 C 176.94 123.67 176.63 124.54 176.98 125.26 C 177.34 125.99 178.21 126.29 178.94 125.94 Z M 180.02 125.41 L 180.90 124.98 C 181.62 124.63 181.92 123.76 181.57 123.04 C 181.22 122.31 180.35 122.01 179.62 122.37 L 178.74 122.80 C 178.02 123.15 177.72 124.02 178.07 124.74 C 178.42 125.47 179.29 125.77 180.02 125.41 Z M 180.90 124.98 L 181.75 124.56 C 182.47 124.21 182.77 123.34 182.42 122.62 C 182.07 121.90 181.20 121.60 180.48 121.95 L 179.62 122.37 C 178.90 122.72 178.60 123.59 178.96 124.31 C 179.31 125.03 180.18 125.33 180.90 124.98 Z M 181.75 124.56 L 182.66 124.11 C 183.38 123.76 183.68 122.89 183.32 122.17 C 182.97 121.46 182.10 121.16 181.38 121.51 L 180.48 121.96 C 179.76 122.31 179.46 123.18 179.81 123.90 C 180.16 124.62 181.03 124.91 181.75 124.56 Z M 182.66 124.11 L 183.60 123.65 C 184.32 123.30 184.61 122.43 184.26 121.71 C 183.91 120.99 183.04 120.70 182.32 121.05 L 181.38 121.51 C 180.67 121.87 180.37 122.73 180.72 123.45 C 181.08 124.17 181.94 124.46 182.66 124.11 Z M 183.60 123.64 L 184.55 123.18 C 185.26 122.82 185.56 121.96 185.20 121.24 C 184.85 120.53 183.99 120.23 183.27 120.59 L 182.32 121.06 C 181.61 121.41 181.31 122.27 181.67 122.99 C 182.02 123.70 182.89 124.00 183.60 123.64 Z M 184.55 123.17 L 185.48 122.71 C 186.19 122.36 186.48 121.49 186.13 120.78 C 185.78 120.07 184.91 119.78 184.20 120.13 L 183.27 120.59 C 182.56 120.94 182.27 121.81 182.62 122.52 C 182.97 123.23 183.84 123.53 184.55 123.17 Z M 185.48 122.71 L 186.38 122.26 C 187.09 121.90 187.38 121.04 187.03 120.33 C 186.67 119.62 185.81 119.33 185.10 119.68 L 184.20 120.13 C 183.49 120.49 183.20 121.35 183.55 122.06 C 183.91 122.77 184.77 123.06 185.48 122.71 Z M 186.39 122.25 L 187.45 121.72 C 188.16 121.36 188.45 120.50 188.09 119.79 C 187.74 119.08 186.87 118.80 186.17 119.15 L 185.10 119.69 C 184.39 120.04 184.10 120.91 184.46 121.61 C 184.82 122.32 185.68 122.61 186.39 122.25 Z M 187.46 121.71 L 188.43 121.22 C 189.13 120.86 189.42 120.00 189.06 119.29 C 188.70 118.59 187.84 118.31 187.13 118.66 L 186.16 119.16 C 185.46 119.51 185.17 120.38 185.53 121.08 C 185.89 121.79 186.75 122.07 187.46 121.71 Z M 188.43 121.22 L 189.31 120.76 C 190.02 120.40 190.30 119.54 189.94 118.84 C 189.57 118.13 188.71 117.86 188.01 118.22 L 187.13 118.67 C 186.42 119.03 186.14 119.89 186.51 120.60 C 186.87 121.30 187.73 121.58 188.43 121.22 Z M 189.32 120.76 L 190.12 120.34 C 190.83 119.98 191.10 119.12 190.74 118.42 C 190.37 117.71 189.51 117.44 188.81 117.80 L 188.00 118.22 C 187.30 118.58 187.03 119.45 187.39 120.15 C 187.76 120.85 188.62 121.12 189.32 120.76 Z M 190.13 120.34 L 190.87 119.95 C 191.57 119.59 191.84 118.72 191.47 118.02 C 191.11 117.32 190.24 117.06 189.54 117.42 L 188.80 117.81 C 188.11 118.17 187.84 119.04 188.20 119.74 C 188.57 120.43 189.43 120.70 190.13 120.34 Z M 190.89 119.94 L 192.07 119.30 C 192.77 118.93 193.02 118.06 192.65 117.37 C 192.27 116.67 191.41 116.41 190.71 116.79 L 189.53 117.43 C 188.83 117.80 188.58 118.67 188.95 119.36 C 189.33 120.06 190.19 120.32 190.89 119.94 Z M 192.18 119.24 L 193.00 118.70 C 193.66 118.26 193.85 117.38 193.41 116.72 C 192.98 116.06 192.09 115.87 191.43 116.31 L 190.61 116.85 C 189.95 117.28 189.77 118.17 190.20 118.83 C 190.63 119.49 191.52 119.67 192.18 119.24 Z M 193.59 117.91 L 193.69 117.57 C 193.91 116.81 193.48 116.02 192.72 115.79 C 191.96 115.57 191.17 116.00 190.94 116.76 L 190.84 117.10 C 190.62 117.86 191.05 118.65 191.81 118.88 C 192.57 119.10 193.37 118.67 193.59 117.91 Z M 192.54 115.74 L 191.86 115.64 C 191.07 115.51 190.34 116.05 190.21 116.84 C 190.09 117.62 190.63 118.36 191.41 118.48 L 192.09 118.59 C 192.88 118.72 193.62 118.18 193.74 117.39 C 193.86 116.61 193.33 115.87 192.54 115.74 Z M 191.55 115.61 L 190.34 115.68 C 189.53 115.73 188.93 116.42 188.97 117.23 C 189.02 118.03 189.71 118.64 190.52 118.59 L 191.73 118.51 C 192.53 118.46 193.14 117.77 193.09 116.97 C 193.04 116.17 192.35 115.56 191.55 115.61 Z M 190.22 115.68 L 189.04 115.85 C 188.24 115.96 187.68 116.71 187.79 117.51 C 187.91 118.31 188.65 118.87 189.45 118.76 L 190.63 118.59 C 191.43 118.47 191.99 117.73 191.88 116.93 C 191.76 116.13 191.02 115.57 190.22 115.68 Z M 188.97 115.85 L 188.00 116.03 C 187.20 116.18 186.67 116.96 186.82 117.76 C 186.98 118.57 187.75 119.09 188.56 118.94 L 189.52 118.76 C 190.32 118.60 190.85 117.83 190.70 117.03 C 190.55 116.22 189.77 115.69 188.97 115.85 Z M 187.95 116.03 L 186.96 116.25 C 186.15 116.44 185.65 117.24 185.84 118.04 C 186.02 118.85 186.82 119.35 187.63 119.17 L 188.61 118.94 C 189.42 118.76 189.92 117.96 189.74 117.15 C 189.55 116.35 188.75 115.84 187.95 116.03 Z M 186.91 116.25 L 185.92 116.51 C 185.11 116.73 184.63 117.56 184.85 118.36 C 185.06 119.17 185.89 119.65 186.70 119.43 L 187.68 119.17 C 188.49 118.96 188.97 118.13 188.75 117.32 C 188.54 116.52 187.71 116.04 186.91 116.25 Z M 185.86 116.51 L 184.89 116.81 C 184.08 117.06 183.63 117.91 183.87 118.71 C 184.12 119.52 184.97 119.97 185.78 119.73 L 186.75 119.43 C 187.56 119.19 188.01 118.34 187.77 117.53 C 187.52 116.72 186.67 116.27 185.86 116.51 Z M 184.83 116.82 L 183.85 117.16 C 183.05 117.44 182.62 118.31 182.91 119.12 C 183.19 119.92 184.06 120.34 184.87 120.06 L 185.84 119.72 C 186.64 119.44 187.07 118.57 186.79 117.76 C 186.51 116.96 185.63 116.54 184.83 116.82 Z M 183.77 117.17 L 182.84 117.55 C 182.04 117.88 181.66 118.78 181.99 119.58 C 182.31 120.37 183.22 120.76 184.02 120.43 L 184.95 120.05 C 185.74 119.72 186.12 118.82 185.80 118.02 C 185.47 117.23 184.57 116.84 183.77 117.17 Z M 182.74 117.58 L 181.85 118.01 C 181.07 118.39 180.75 119.33 181.13 120.11 C 181.51 120.89 182.45 121.21 183.23 120.83 L 184.12 120.40 C 184.90 120.02 185.22 119.08 184.84 118.30 C 184.46 117.52 183.52 117.20 182.74 117.58 Z M 181.74 118.05 L 180.90 118.54 C 180.15 118.99 179.90 119.96 180.34 120.71 C 180.78 121.47 181.75 121.72 182.51 121.28 L 183.35 120.79 C 184.10 120.35 184.35 119.37 183.91 118.62 C 183.47 117.86 182.50 117.61 181.74 118.05 Z M 180.78 118.61 L 179.93 119.22 C 179.21 119.74 179.04 120.73 179.56 121.45 C 180.07 122.17 181.07 122.34 181.79 121.82 L 182.64 121.21 C 183.36 120.70 183.52 119.70 183.01 118.98 C 182.49 118.26 181.49 118.10 180.78 118.61 Z M 179.80 119.31 L 179.03 119.98 C 178.36 120.57 178.29 121.58 178.87 122.25 C 179.46 122.92 180.48 122.99 181.14 122.41 L 181.91 121.73 C 182.58 121.15 182.65 120.13 182.07 119.46 C 181.48 118.79 180.47 118.72 179.80 119.31 Z M 178.91 120.08 L 178.23 120.80 C 177.62 121.45 177.65 122.48 178.30 123.09 C 178.96 123.70 179.98 123.67 180.59 123.02 L 181.27 122.30 C 181.88 121.65 181.85 120.63 181.20 120.01 C 180.54 119.40 179.52 119.43 178.91 120.08 Z M 178.11 120.93 L 177.54 121.69 C 177.00 122.41 177.14 123.43 177.86 123.97 C 178.58 124.52 179.60 124.37 180.14 123.65 L 180.72 122.89 C 181.26 122.17 181.11 121.15 180.39 120.61 C 179.67 120.07 178.65 120.21 178.11 120.93 Z M 177.41 121.86 L 176.92 122.73 C 176.47 123.52 176.74 124.52 177.53 124.97 C 178.32 125.42 179.32 125.14 179.77 124.36 L 180.27 123.48 C 180.71 122.69 180.44 121.69 179.65 121.24 C 178.86 120.80 177.86 121.07 177.41 121.86 Z M 176.82 122.91 L 176.44 123.82 C 176.09 124.66 176.50 125.63 177.34 125.98 C 178.18 126.33 179.15 125.93 179.50 125.08 L 179.87 124.18 C 180.22 123.33 179.82 122.36 178.97 122.02 C 178.13 121.67 177.16 122.07 176.82 122.91 Z M 176.38 123.97 L 176.08 124.92 C 175.82 125.80 176.31 126.73 177.19 127.00 C 178.07 127.27 179.00 126.77 179.27 125.90 L 179.56 124.94 C 179.83 124.06 179.33 123.13 178.46 122.86 C 177.58 122.59 176.65 123.09 176.38 123.97 Z M 176.05 125.01 L 175.84 125.90 C 175.62 126.79 176.17 127.70 177.07 127.92 C 177.97 128.14 178.87 127.59 179.09 126.69 L 179.30 125.81 C 179.52 124.91 178.97 124.00 178.07 123.78 C 177.17 123.56 176.27 124.12 176.05 125.01 Z M 175.81 125.97 L 175.63 126.90 C 175.45 127.81 176.05 128.69 176.96 128.87 C 177.87 129.05 178.76 128.45 178.94 127.54 L 179.12 126.61 C 179.29 125.70 178.70 124.82 177.79 124.64 C 176.87 124.46 175.99 125.06 175.81 125.97 Z M 175.61 126.97 L 175.46 127.98 C 175.32 128.90 175.95 129.77 176.88 129.90 C 177.80 130.04 178.67 129.40 178.81 128.48 L 178.96 127.47 C 179.10 126.54 178.46 125.68 177.53 125.54 C 176.61 125.40 175.75 126.04 175.61 126.97 Z M 175.44 128.05 L 175.32 129.16 C 175.22 130.09 175.89 130.93 176.83 131.03 C 177.76 131.13 178.60 130.46 178.70 129.52 L 178.82 128.41 C 178.92 127.48 178.25 126.64 177.31 126.54 C 176.38 126.44 175.54 127.11 175.44 128.05 Z M 175.31 129.21 L 175.23 130.21 C 175.16 131.15 175.87 131.97 176.81 132.04 C 177.75 132.11 178.57 131.40 178.64 130.46 L 178.72 129.47 C 178.79 128.53 178.08 127.71 177.14 127.64 C 176.20 127.57 175.38 128.27 175.31 129.21 Z M 175.23 130.24 L 175.17 131.27 C 175.12 132.21 175.85 133.02 176.80 133.07 C 177.74 133.12 178.55 132.39 178.60 131.45 L 178.65 130.42 C 178.70 129.48 177.97 128.67 177.03 128.62 C 176.08 128.57 175.27 129.30 175.23 130.24 Z M 175.17 131.29 L 175.13 132.33 C 175.09 133.28 175.84 134.07 176.78 134.11 C 177.73 134.14 178.53 133.40 178.56 132.45 L 178.60 131.42 C 178.64 130.47 177.89 129.67 176.95 129.64 C 176.00 129.61 175.20 130.35 175.17 131.29 Z M 175.12 132.35 L 175.10 133.35 C 175.08 134.30 175.83 135.09 176.78 135.12 C 177.73 135.14 178.52 134.39 178.54 133.44 L 178.57 132.43 C 178.59 131.48 177.84 130.69 176.89 130.67 C 175.94 130.64 175.15 131.40 175.12 132.35 Z M 175.09 133.37 L 175.08 134.33 C 175.06 135.28 175.82 136.07 176.77 136.08 C 177.73 136.10 178.51 135.34 178.53 134.39 L 178.55 133.43 C 178.56 132.47 177.80 131.69 176.85 131.67 C 175.90 131.65 175.11 132.41 175.09 133.37 Z M 175.07 134.34 L 175.06 135.43 C 175.05 136.39 175.82 137.17 176.78 137.18 C 177.73 137.19 178.51 136.42 178.52 135.47 L 178.54 134.37 C 178.55 133.42 177.78 132.63 176.82 132.62 C 175.87 132.61 175.08 133.38 175.07 134.34 Z M 175.06 135.45 L 175.06 136.44 C 175.06 137.40 175.84 138.18 176.80 138.18 C 177.76 138.17 178.53 137.39 178.53 136.43 L 178.53 135.44 C 178.53 134.48 177.75 133.71 176.79 133.71 C 175.83 133.72 175.05 134.49 175.06 135.45 Z M 175.06 136.48 L 175.08 137.43 C 175.10 138.39 175.90 139.15 176.86 139.12 C 177.82 139.10 178.58 138.31 178.56 137.34 L 178.54 136.40 C 178.51 135.44 177.72 134.68 176.76 134.70 C 175.79 134.72 175.03 135.52 175.06 136.48 Z M 175.08 137.47 L 175.12 138.41 C 175.17 139.37 175.99 140.11 176.95 140.07 C 177.91 140.02 178.65 139.20 178.61 138.24 L 178.56 137.30 C 178.51 136.34 177.70 135.60 176.73 135.64 C 175.77 135.69 175.03 136.51 175.08 137.47 Z M 175.12 138.45 L 175.19 139.40 C 175.26 140.36 176.09 141.09 177.06 141.02 C 178.02 140.95 178.75 140.11 178.68 139.15 L 178.61 138.20 C 178.54 137.24 177.70 136.51 176.74 136.58 C 175.77 136.65 175.05 137.49 175.12 138.45 Z M 175.18 139.44 L 175.28 140.42 C 175.36 141.39 176.22 142.10 177.18 142.01 C 178.15 141.92 178.86 141.07 178.77 140.10 L 178.68 139.11 C 178.59 138.15 177.74 137.44 176.77 137.53 C 175.81 137.62 175.09 138.47 175.18 139.44 Z M 175.27 140.45 L 175.38 141.48 C 175.49 142.45 176.36 143.14 177.33 143.04 C 178.29 142.93 178.99 142.06 178.89 141.10 L 178.77 140.07 C 178.67 139.11 177.80 138.41 176.83 138.51 C 175.87 138.62 175.17 139.49 175.27 140.45 Z M 175.38 141.50 L 175.51 142.52 C 175.62 143.49 176.51 144.18 177.47 144.06 C 178.44 143.94 179.13 143.06 179.01 142.09 L 178.89 141.07 C 178.77 140.11 177.89 139.42 176.92 139.53 C 175.95 139.65 175.26 140.53 175.38 141.50 Z M 175.50 142.54 L 175.63 143.49 C 175.76 144.46 176.65 145.14 177.62 145.02 C 178.59 144.89 179.27 144.00 179.14 143.03 L 179.02 142.08 C 178.89 141.11 178.00 140.42 177.03 140.55 C 176.06 140.68 175.38 141.57 175.50 142.54 Z M 175.63 143.51 L 175.77 144.48 C 175.90 145.45 176.80 146.13 177.77 146.00 C 178.74 145.86 179.42 144.96 179.28 143.99 L 179.14 143.01 C 179.01 142.04 178.11 141.37 177.14 141.50 C 176.17 141.64 175.49 142.54 175.63 143.51 Z M 175.76 144.50 L 175.91 145.50 C 176.05 146.47 176.96 147.14 177.93 147.00 C 178.90 146.86 179.57 145.96 179.43 144.98 L 179.28 143.98 C 179.14 143.01 178.24 142.34 177.27 142.48 C 176.29 142.62 175.62 143.52 175.76 144.50 Z M 175.91 145.51 L 176.06 146.54 C 176.21 147.51 177.12 148.18 178.09 148.03 C 179.06 147.88 179.73 146.98 179.58 146.01 L 179.43 144.98 C 179.28 144.00 178.38 143.33 177.40 143.48 C 176.43 143.63 175.76 144.53 175.91 145.51 Z M 176.06 146.54 L 176.21 147.52 C 176.36 148.49 177.27 149.16 178.24 149.01 C 179.22 148.86 179.89 147.95 179.74 146.98 L 179.59 146.00 C 179.44 145.03 178.53 144.36 177.55 144.51 C 176.58 144.66 175.91 145.57 176.06 146.54 Z M 176.21 147.52 L 176.36 148.49 C 176.51 149.46 177.42 150.13 178.39 149.98 C 179.37 149.83 180.04 148.92 179.89 147.94 L 179.74 146.97 C 179.59 146.00 178.68 145.33 177.70 145.48 C 176.73 145.63 176.06 146.54 176.21 147.52 Z M 176.35 148.49 L 176.51 149.47 C 176.65 150.45 177.57 151.12 178.54 150.97 C 179.52 150.82 180.19 149.91 180.04 148.93 L 179.89 147.95 C 179.74 146.97 178.83 146.30 177.85 146.45 C 176.88 146.60 176.21 147.51 176.35 148.49 Z M 176.50 149.47 L 176.65 150.47 C 176.80 151.45 177.71 152.12 178.69 151.98 C 179.67 151.83 180.34 150.92 180.20 149.94 L 180.05 148.94 C 179.90 147.96 178.99 147.28 178.01 147.43 C 177.03 147.58 176.36 148.49 176.50 149.47 Z M 176.65 150.46 L 176.80 151.48 C 176.94 152.46 177.85 153.14 178.83 152.99 C 179.81 152.85 180.49 151.94 180.35 150.96 L 180.20 149.95 C 180.06 148.97 179.15 148.29 178.17 148.43 C 177.19 148.57 176.51 149.48 176.65 150.46 Z M 176.79 151.47 L 176.93 152.44 C 177.07 153.42 177.97 154.11 178.96 153.97 C 179.94 153.83 180.62 152.93 180.49 151.94 L 180.35 150.97 C 180.21 149.99 179.31 149.30 178.32 149.44 C 177.34 149.58 176.65 150.49 176.79 151.47 Z M 176.92 152.43 L 177.05 153.39 C 177.18 154.38 178.09 155.07 179.07 154.94 C 180.06 154.81 180.75 153.90 180.62 152.92 L 180.49 151.95 C 180.36 150.97 179.46 150.28 178.47 150.41 C 177.48 150.54 176.79 151.44 176.92 152.43 Z M 177.05 153.38 L 177.17 154.36 C 177.30 155.35 178.20 156.05 179.19 155.92 C 180.17 155.80 180.87 154.89 180.75 153.90 L 180.63 152.93 C 180.50 151.94 179.60 151.24 178.61 151.36 C 177.62 151.49 176.92 152.39 177.05 153.38 Z M 177.17 154.35 L 177.28 155.34 C 177.40 156.33 178.30 157.04 179.29 156.92 C 180.28 156.80 180.99 155.91 180.87 154.91 L 180.75 153.92 C 180.64 152.93 179.74 152.22 178.75 152.34 C 177.75 152.46 177.05 153.35 177.17 154.35 Z M 177.28 155.33 L 177.39 156.35 C 177.51 157.35 178.40 158.06 179.40 157.95 C 180.39 157.84 181.10 156.94 180.99 155.95 L 180.88 154.93 C 180.77 153.93 179.87 153.22 178.88 153.33 C 177.88 153.44 177.17 154.34 177.28 155.33 Z M 177.39 156.34 L 177.50 157.37 C 177.60 158.36 178.50 159.09 179.49 158.98 C 180.49 158.88 181.21 157.98 181.11 156.99 L 181.00 155.96 C 180.89 154.97 180.00 154.24 179.00 154.35 C 178.01 154.45 177.29 155.34 177.39 156.34 Z M 177.49 157.36 L 177.59 158.34 C 177.69 159.34 178.58 160.07 179.58 159.97 C 180.58 159.87 181.31 158.98 181.21 157.98 L 181.11 157.00 C 181.01 156.00 180.12 155.27 179.12 155.37 C 178.12 155.47 177.40 156.36 177.49 157.36 Z M 177.59 158.33 L 177.68 159.33 C 177.77 160.33 178.66 161.07 179.66 160.97 C 180.66 160.88 181.40 159.99 181.30 158.99 L 181.21 157.99 C 181.12 156.99 180.23 156.26 179.23 156.35 C 178.23 156.44 177.49 157.33 177.59 158.33 Z M 177.68 159.32 L 177.77 160.33 C 177.86 161.33 178.74 162.07 179.74 161.98 C 180.75 161.89 181.49 161.01 181.40 160.01 L 181.31 159.00 C 181.22 158.00 180.33 157.26 179.33 157.34 C 178.33 157.43 177.59 158.32 177.68 159.32 Z M 177.76 160.32 L 177.85 161.33 C 177.93 162.33 178.82 163.08 179.82 162.99 C 180.83 162.91 181.57 162.02 181.49 161.02 L 181.40 160.01 C 181.32 159.01 180.43 158.26 179.43 158.35 C 178.42 158.43 177.68 159.32 177.76 160.32 Z M 177.85 161.32 L 177.93 162.32 C 178.01 163.33 178.89 164.08 179.90 163.99 C 180.91 163.91 181.65 163.03 181.57 162.02 L 181.49 161.02 C 181.41 160.02 180.52 159.27 179.52 159.35 C 178.51 159.43 177.76 160.32 177.85 161.32 Z M 177.92 162.32 L 178.00 163.32 C 178.09 164.33 178.97 165.08 179.98 165.00 C 180.98 164.92 181.74 164.04 181.66 163.03 L 181.58 162.03 C 181.49 161.02 180.61 160.27 179.60 160.35 C 178.60 160.43 177.84 161.31 177.92 162.32 Z M 178.00 163.32 L 178.08 164.34 C 178.16 165.35 179.04 166.11 180.05 166.03 C 181.06 165.95 181.82 165.07 181.74 164.06 L 181.66 163.03 C 181.58 162.02 180.70 161.27 179.69 161.35 C 178.68 161.42 177.92 162.31 178.00 163.32 Z M 178.08 164.34 L 178.15 165.34 C 178.23 166.35 179.11 167.11 180.12 167.04 C 181.13 166.96 181.89 166.08 181.82 165.07 L 181.74 164.07 C 181.67 163.05 180.79 162.29 179.77 162.37 C 178.76 162.44 178.00 163.32 178.08 164.34 Z M 178.15 165.33 L 178.22 166.32 C 178.29 167.34 179.16 168.10 180.18 168.03 C 181.19 167.96 181.96 167.09 181.89 166.07 L 181.82 165.08 C 181.75 164.07 180.87 163.30 179.86 163.37 C 178.84 163.44 178.08 164.32 178.15 165.33 Z M 178.21 166.31 L 178.27 167.29 C 178.34 168.31 179.21 169.08 180.23 169.02 C 181.24 168.96 182.02 168.08 181.95 167.06 L 181.89 166.08 C 181.83 165.07 180.95 164.30 179.94 164.36 C 178.92 164.42 178.15 165.30 178.21 166.31 Z M 178.27 167.28 L 178.32 168.26 C 178.38 169.27 179.25 170.05 180.27 170.00 C 181.29 169.94 182.07 169.07 182.01 168.05 L 181.96 167.08 C 181.90 166.06 181.03 165.28 180.01 165.34 C 178.99 165.39 178.21 166.26 178.27 167.28 Z M 178.32 168.24 L 178.37 169.24 C 178.41 170.26 179.28 171.05 180.30 171.00 C 181.32 170.95 182.11 170.09 182.06 169.07 L 182.01 168.07 C 181.97 167.05 181.10 166.26 180.08 166.31 C 179.06 166.36 178.27 167.22 178.32 168.24 Z M 178.36 169.22 L 178.40 170.23 C 178.44 171.25 179.30 172.05 180.32 172.01 C 181.34 171.97 182.14 171.11 182.10 170.09 L 182.06 169.08 C 182.02 168.06 181.16 167.26 180.14 167.30 C 179.12 167.34 178.32 168.20 178.36 169.22 Z M 178.40 170.22 L 178.43 171.22 C 178.46 172.24 179.32 173.05 180.34 173.02 C 181.36 172.99 182.17 172.13 182.14 171.11 L 182.11 170.10 C 182.07 169.08 181.22 168.28 180.19 168.31 C 179.17 168.34 178.37 169.19 178.40 170.22 Z M 178.43 171.21 L 178.45 172.21 C 178.47 173.23 179.33 174.04 180.35 174.02 C 181.38 173.99 182.19 173.14 182.16 172.12 L 182.14 171.12 C 182.11 170.09 181.26 169.28 180.24 169.31 C 179.21 169.33 178.40 170.18 178.43 171.21 Z M 178.45 172.20 L 178.46 173.19 C 178.48 174.22 179.33 175.03 180.36 175.02 C 181.39 175.00 182.20 174.15 182.18 173.12 L 182.17 172.13 C 182.15 171.10 181.30 170.28 180.27 170.30 C 179.25 170.32 178.43 171.17 178.45 172.20 Z M 178.46 173.18 L 178.47 174.18 C 178.49 175.21 179.33 176.03 180.36 176.02 C 181.39 176.00 182.21 175.16 182.20 174.13 L 182.19 173.13 C 182.17 172.10 181.33 171.28 180.30 171.29 C 179.27 171.31 178.45 172.15 178.46 173.18 Z M 178.47 174.17 L 178.48 175.18 C 178.49 176.21 179.33 177.04 180.36 177.03 C 181.39 177.02 182.22 176.18 182.21 175.15 L 182.20 174.14 C 182.19 173.11 181.35 172.28 180.32 172.29 C 179.29 172.30 178.46 173.14 178.47 174.17 Z M 178.48 175.18 L 178.48 176.18 C 178.49 177.21 179.33 178.05 180.36 178.04 C 181.39 178.04 182.23 177.19 182.22 176.16 L 182.22 175.16 C 182.21 174.12 181.37 173.29 180.34 173.30 C 179.30 173.30 178.47 174.14 178.48 175.18 Z M 178.48 176.18 L 178.48 177.17 C 178.48 178.21 179.32 179.04 180.36 179.04 C 181.39 179.04 182.23 178.20 182.23 177.16 L 182.22 176.17 C 182.22 175.13 181.38 174.30 180.35 174.30 C 179.31 174.30 178.48 175.14 178.48 176.18 Z M 178.48 177.17 L 178.48 178.16 C 178.48 179.20 179.32 180.04 180.36 180.03 C 181.39 180.03 182.23 179.19 182.23 178.16 L 182.23 177.17 C 182.23 176.13 181.39 175.29 180.35 175.29 C 179.32 175.29 178.48 176.13 178.48 177.17 Z M 178.48 178.16 L 178.48 179.15 C 178.48 180.19 179.32 181.03 180.36 181.03 C 181.39 181.03 182.23 180.19 182.23 179.15 L 182.23 178.16 C 182.23 177.12 181.39 176.28 180.35 176.28 C 179.32 176.28 178.48 177.12 178.48 178.16 Z M 178.47 179.15 L 178.47 180.17 C 178.47 181.21 179.32 182.05 180.36 182.05 C 181.39 182.05 182.24 181.21 182.24 180.17 L 182.24 179.15 C 182.24 178.11 181.39 177.27 180.36 177.27 C 179.32 177.27 178.47 178.11 178.47 179.15 Z M 178.47 180.17 L 178.47 181.18 C 178.47 182.22 179.31 183.06 180.36 183.06 C 181.40 183.06 182.24 182.22 182.24 181.18 L 182.24 180.17 C 182.24 179.13 181.40 178.28 180.36 178.28 C 179.31 178.28 178.47 179.13 178.47 180.17 Z M 178.47 181.18 L 178.47 182.18 C 178.47 183.22 179.31 184.06 180.36 184.06 C 181.40 184.06 182.24 183.22 182.24 182.18 L 182.24 181.18 C 182.24 180.14 181.40 179.29 180.36 179.29 C 179.31 179.29 178.47 180.14 178.47 181.18 Z M 178.47 182.18 L 178.47 183.17 C 178.47 184.21 179.31 185.05 180.36 185.05 C 181.40 185.05 182.24 184.21 182.24 183.17 L 182.24 182.18 C 182.24 181.13 181.40 180.29 180.36 180.29 C 179.31 180.29 178.47 181.13 178.47 182.18 Z M 178.46 183.17 L 178.46 184.15 C 178.46 185.19 179.31 186.04 180.36 186.04 C 181.40 186.04 182.25 185.19 182.25 184.15 L 182.25 183.17 C 182.25 182.12 181.40 181.27 180.36 181.27 C 179.31 181.27 178.46 182.12 178.46 183.17 Z M 178.46 184.15 L 178.46 185.15 C 178.46 186.20 179.31 187.04 180.35 187.05 C 181.40 187.05 182.25 186.20 182.25 185.15 L 182.25 184.15 C 182.25 183.10 181.40 182.26 180.36 182.25 C 179.31 182.25 178.46 183.10 178.46 184.15 Z M 178.46 185.14 L 178.45 186.14 C 178.45 187.18 179.29 188.04 180.34 188.04 C 181.39 188.05 182.24 187.20 182.24 186.16 L 182.25 185.16 C 182.26 184.12 181.41 183.26 180.36 183.26 C 179.32 183.25 178.46 184.09 178.46 185.14 Z M 178.45 186.12 L 178.44 187.11 C 178.42 188.16 179.26 189.02 180.31 189.04 C 181.36 189.05 182.22 188.21 182.23 187.17 L 182.25 186.17 C 182.26 185.12 181.42 184.26 180.37 184.25 C 179.33 184.23 178.46 185.07 178.45 186.12 Z M 178.43 187.09 L 178.41 188.09 C 178.38 189.14 179.21 190.01 180.26 190.04 C 181.31 190.07 182.18 189.24 182.21 188.19 L 182.24 187.19 C 182.26 186.14 181.43 185.27 180.38 185.24 C 179.33 185.21 178.46 186.04 178.43 187.09 Z M 178.41 188.06 L 178.37 189.08 C 178.32 190.13 179.14 191.01 180.19 191.06 C 181.24 191.10 182.13 190.28 182.17 189.23 L 182.21 188.22 C 182.25 187.17 181.44 186.28 180.39 186.24 C 179.34 186.19 178.45 187.01 178.41 188.06 Z M 178.37 189.04 L 178.31 190.07 C 178.25 191.12 179.05 192.02 180.10 192.08 C 181.15 192.14 182.06 191.34 182.11 190.28 L 182.17 189.26 C 182.23 188.21 181.43 187.31 180.38 187.25 C 179.33 187.19 178.42 187.99 178.37 189.04 Z M 178.31 190.03 L 178.23 191.05 C 178.15 192.10 178.94 193.02 179.99 193.10 C 181.05 193.18 181.96 192.39 182.04 191.34 L 182.12 190.32 C 182.19 189.27 181.40 188.35 180.35 188.27 C 179.30 188.19 178.38 188.98 178.31 190.03 Z M 178.23 191.02 L 178.14 192.01 C 178.04 193.06 178.81 194.00 179.86 194.09 C 180.92 194.19 181.85 193.42 181.95 192.37 L 182.04 191.37 C 182.14 190.32 181.36 189.39 180.31 189.29 C 179.26 189.19 178.33 189.96 178.23 191.02 Z M 178.14 191.97 L 178.03 192.93 C 177.91 193.98 178.66 194.93 179.71 195.05 C 180.76 195.17 181.71 194.42 181.83 193.37 L 181.94 192.41 C 182.07 191.36 181.31 190.41 180.26 190.29 C 179.21 190.17 178.26 190.92 178.14 191.97 Z M 178.03 192.88 L 177.89 193.91 C 177.74 194.96 178.46 195.93 179.51 196.08 C 180.56 196.23 181.53 195.50 181.68 194.45 L 181.83 193.42 C 181.98 192.37 181.25 191.40 180.20 191.25 C 179.15 191.10 178.18 191.83 178.03 192.88 Z M 177.89 193.85 L 177.72 194.87 C 177.53 195.91 178.23 196.90 179.28 197.09 C 180.32 197.27 181.32 196.57 181.50 195.53 L 181.68 194.51 C 181.86 193.46 181.16 192.47 180.11 192.29 C 179.07 192.11 178.08 192.80 177.89 193.85 Z M 177.72 194.81 L 177.53 195.77 C 177.32 196.81 177.99 197.83 179.03 198.04 C 180.07 198.25 181.08 197.58 181.29 196.54 L 181.49 195.58 C 181.70 194.54 181.03 193.52 179.99 193.31 C 178.95 193.10 177.94 193.77 177.72 194.81 Z M 177.54 195.73 L 177.33 196.65 C 177.09 197.69 177.74 198.72 178.78 198.96 C 179.81 199.19 180.84 198.54 181.08 197.51 L 181.29 196.58 C 181.52 195.55 180.87 194.52 179.84 194.28 C 178.80 194.05 177.77 194.69 177.54 195.73 Z M 177.33 196.62 L 177.11 197.52 C 176.86 198.55 177.49 199.59 178.53 199.85 C 179.56 200.10 180.60 199.47 180.85 198.43 L 181.07 197.54 C 181.33 196.50 180.69 195.46 179.66 195.21 C 178.63 194.96 177.58 195.59 177.33 196.62 Z M 177.12 197.49 L 176.88 198.39 C 176.61 199.42 177.23 200.48 178.26 200.75 C 179.29 201.02 180.34 200.40 180.61 199.37 L 180.85 198.46 C 181.12 197.43 180.50 196.38 179.47 196.11 C 178.44 195.84 177.39 196.46 177.12 197.49 Z M 176.89 198.35 L 176.62 199.31 C 176.33 200.33 176.92 201.40 177.95 201.69 C 178.97 201.98 180.04 201.39 180.33 200.36 L 180.60 199.41 C 180.89 198.38 180.30 197.32 179.27 197.02 C 178.25 196.73 177.18 197.33 176.89 198.35 Z M 176.63 199.27 L 176.31 200.31 C 176.00 201.33 176.57 202.41 177.59 202.72 C 178.61 203.03 179.69 202.46 180.00 201.44 L 180.32 200.40 C 180.64 199.38 180.06 198.30 179.04 197.99 C 178.02 197.67 176.94 198.25 176.63 199.27 Z M 176.32 200.27 L 176.01 201.21 C 175.68 202.22 176.23 203.31 177.25 203.65 C 178.27 203.98 179.36 203.42 179.69 202.41 L 179.99 201.47 C 180.33 200.46 179.77 199.37 178.76 199.04 C 177.74 198.70 176.65 199.26 176.32 200.27 Z M 176.02 201.18 L 175.70 202.10 C 175.36 203.11 175.90 204.21 176.91 204.56 C 177.92 204.91 179.02 204.37 179.37 203.36 L 179.68 202.44 C 180.03 201.43 179.49 200.32 178.48 199.98 C 177.47 199.63 176.37 200.17 176.02 201.18 Z M 175.71 202.07 L 175.37 203.03 C 175.01 204.03 175.53 205.14 176.53 205.50 C 177.54 205.87 178.65 205.35 179.01 204.34 L 179.36 203.38 C 179.72 202.38 179.20 201.27 178.19 200.91 C 177.18 200.54 176.08 201.07 175.71 202.07 Z M 175.38 203.00 L 175.01 203.96 C 174.63 204.96 175.14 206.08 176.14 206.46 C 177.14 206.84 178.26 206.34 178.64 205.34 L 179.00 204.37 C 179.38 203.37 178.88 202.25 177.88 201.87 C 176.88 201.49 175.76 202.00 175.38 203.00 Z M 175.03 203.93 L 174.64 204.88 C 174.24 205.88 174.72 207.01 175.72 207.41 C 176.71 207.80 177.84 207.32 178.24 206.33 L 178.62 205.37 C 179.02 204.38 178.54 203.25 177.55 202.85 C 176.55 202.45 175.42 202.93 175.03 203.93 Z M 174.66 204.84 L 174.24 205.81 C 173.82 206.79 174.27 207.93 175.25 208.36 C 176.24 208.78 177.38 208.33 177.80 207.34 L 178.22 206.37 C 178.64 205.39 178.19 204.25 177.21 203.83 C 176.22 203.40 175.08 203.86 174.66 204.84 Z M 174.27 205.75 L 173.81 206.72 C 173.35 207.69 173.77 208.85 174.73 209.31 C 175.70 209.76 176.86 209.35 177.32 208.38 L 177.78 207.40 C 178.23 206.43 177.82 205.28 176.85 204.82 C 175.88 204.36 174.72 204.78 174.27 205.75 Z M 173.85 206.65 L 173.37 207.55 C 172.87 208.50 173.23 209.67 174.18 210.17 C 175.12 210.67 176.30 210.31 176.80 209.36 L 177.28 208.46 C 177.78 207.51 177.41 206.34 176.47 205.84 C 175.52 205.34 174.35 205.70 173.85 206.65 Z M 173.42 207.45 L 172.92 208.28 C 172.37 209.20 172.66 210.39 173.57 210.95 C 174.49 211.50 175.68 211.21 176.24 210.29 L 176.74 209.46 C 177.30 208.55 177.00 207.36 176.09 206.80 C 175.17 206.24 173.98 206.54 173.42 207.45 Z M 173.00 208.16 L 172.47 208.91 C 171.85 209.78 172.05 210.99 172.92 211.61 C 173.79 212.23 175.00 212.03 175.63 211.16 L 176.16 210.41 C 176.78 209.54 176.58 208.33 175.71 207.71 C 174.83 207.09 173.62 207.29 173.00 208.16 Z M 172.59 208.75 L 171.96 209.47 C 171.25 210.28 171.33 211.50 172.14 212.21 C 172.94 212.91 174.17 212.84 174.87 212.03 L 175.51 211.31 C 176.21 210.51 176.13 209.28 175.33 208.57 C 174.52 207.87 173.30 207.95 172.59 208.75 Z M 172.15 209.28 L 171.42 209.91 C 170.61 210.61 170.52 211.83 171.22 212.64 C 171.92 213.46 173.14 213.55 173.95 212.85 L 174.68 212.22 C 175.49 211.52 175.58 210.30 174.88 209.49 C 174.19 208.68 172.96 208.58 172.15 209.28 Z M 171.69 209.72 L 170.86 210.22 C 169.94 210.78 169.65 211.97 170.20 212.88 C 170.76 213.80 171.95 214.09 172.86 213.54 L 173.69 213.04 C 174.61 212.48 174.90 211.29 174.35 210.38 C 173.79 209.46 172.60 209.17 171.69 209.72 Z M 171.16 210.08 L 170.20 210.45 C 169.20 210.84 168.71 211.96 169.10 212.95 C 169.48 213.95 170.60 214.44 171.60 214.06 L 172.56 213.68 C 173.56 213.30 174.05 212.17 173.66 211.18 C 173.28 210.18 172.15 209.69 171.16 210.08 Z M 170.47 210.37 L 169.51 210.59 C 168.47 210.83 167.82 211.87 168.06 212.91 C 168.30 213.95 169.34 214.59 170.38 214.36 L 171.33 214.14 C 172.37 213.90 173.02 212.86 172.78 211.82 C 172.54 210.78 171.51 210.13 170.47 210.37 Z M 169.71 210.56 L 168.76 210.68 C 167.71 210.81 166.96 211.77 167.09 212.82 C 167.22 213.88 168.18 214.63 169.23 214.50 L 170.18 214.38 C 171.23 214.26 171.98 213.29 171.86 212.24 C 171.73 211.18 170.77 210.43 169.71 210.56 Z M 168.92 210.67 L 167.92 210.71 C 166.86 210.75 166.04 211.64 166.08 212.70 C 166.12 213.76 167.01 214.58 168.07 214.54 L 169.07 214.51 C 170.13 214.46 170.95 213.57 170.91 212.52 C 170.87 211.46 169.98 210.63 168.92 210.67 Z M 168.06 210.72 L 167.03 210.68 C 165.98 210.64 165.09 211.46 165.05 212.52 C 165.01 213.57 165.83 214.46 166.89 214.50 L 167.92 214.54 C 168.97 214.58 169.86 213.75 169.90 212.70 C 169.94 211.65 169.12 210.76 168.06 210.72 Z M 167.17 210.70 L 166.14 210.58 C 165.09 210.46 164.15 211.21 164.03 212.25 C 163.91 213.30 164.66 214.24 165.71 214.36 L 166.74 214.48 C 167.79 214.60 168.73 213.85 168.85 212.80 C 168.97 211.76 168.22 210.82 167.17 210.70 Z M 166.29 210.62 L 165.25 210.41 C 164.23 210.21 163.24 210.88 163.04 211.90 C 162.83 212.92 163.50 213.92 164.52 214.12 L 165.56 214.32 C 166.58 214.52 167.57 213.86 167.77 212.84 C 167.98 211.81 167.31 210.82 166.29 210.62 Z M 165.40 210.48 L 164.37 210.19 C 163.38 209.90 162.36 210.47 162.07 211.45 C 161.79 212.44 162.36 213.47 163.34 213.75 L 164.38 214.05 C 165.36 214.33 166.39 213.76 166.67 212.78 C 166.95 211.80 166.39 210.77 165.40 210.48 Z M 164.49 210.27 L 163.51 209.91 C 162.58 209.56 161.54 210.04 161.19 210.97 C 160.84 211.91 161.31 212.95 162.25 213.30 L 163.22 213.66 C 164.16 214.01 165.20 213.54 165.55 212.60 C 165.90 211.66 165.42 210.62 164.49 210.27 Z M 163.60 210.00 L 162.70 209.59 C 161.81 209.20 160.77 209.59 160.37 210.48 C 159.97 211.37 160.37 212.41 161.26 212.81 L 162.16 213.21 C 163.05 213.61 164.09 213.21 164.49 212.32 C 164.89 211.44 164.49 210.39 163.60 210.00 Z M 162.76 209.67 L 161.93 209.25 C 161.08 208.82 160.05 209.15 159.62 210.00 C 159.19 210.84 159.53 211.88 160.37 212.31 L 161.20 212.73 C 162.04 213.16 163.08 212.82 163.51 211.98 C 163.94 211.14 163.60 210.10 162.76 209.67 Z M 161.97 209.32 L 161.11 208.84 C 160.30 208.38 159.28 208.67 158.83 209.47 C 158.38 210.28 158.66 211.30 159.47 211.75 L 160.33 212.23 C 161.13 212.69 162.15 212.40 162.60 211.60 C 163.06 210.79 162.77 209.77 161.97 209.32 Z M 161.14 208.90 L 160.25 208.35 C 159.48 207.88 158.48 208.12 158.00 208.88 C 157.53 209.65 157.77 210.65 158.54 211.13 L 159.43 211.68 C 160.20 212.15 161.20 211.92 161.67 211.15 C 162.15 210.38 161.91 209.38 161.14 208.90 Z M 160.28 208.42 L 159.48 207.88 C 158.75 207.39 157.76 207.58 157.27 208.31 C 156.78 209.03 156.97 210.02 157.70 210.52 L 158.50 211.06 C 159.23 211.55 160.22 211.36 160.71 210.63 C 161.20 209.90 161.01 208.91 160.28 208.42 Z M 159.50 207.94 L 158.75 207.39 C 158.06 206.89 157.08 207.04 156.58 207.74 C 156.07 208.43 156.23 209.40 156.92 209.91 L 157.68 210.46 C 158.37 210.96 159.34 210.81 159.85 210.11 C 160.35 209.42 160.20 208.44 159.50 207.94 Z M 158.76 207.44 L 158.00 206.86 C 157.33 206.35 156.37 206.48 155.86 207.15 C 155.35 207.82 155.48 208.78 156.15 209.29 L 156.91 209.87 C 157.58 210.38 158.54 210.25 159.05 209.58 C 159.56 208.90 159.43 207.95 158.76 207.44 Z M 158.01 206.88 L 157.24 206.28 C 156.58 205.76 155.63 205.87 155.12 206.53 C 154.60 207.18 154.71 208.14 155.37 208.65 L 156.14 209.26 C 156.80 209.78 157.75 209.66 158.26 209.01 C 158.78 208.35 158.67 207.40 158.01 206.88 Z M 157.25 206.30 L 156.46 205.66 C 155.82 205.14 154.87 205.23 154.35 205.88 C 153.83 206.52 153.93 207.46 154.57 207.99 L 155.36 208.63 C 156.00 209.15 156.94 209.05 157.47 208.41 C 157.99 207.77 157.89 206.82 157.25 206.30 Z M 156.47 205.68 L 155.68 205.03 C 155.05 204.50 154.12 204.59 153.59 205.22 C 153.06 205.85 153.15 206.78 153.78 207.31 L 154.56 207.96 C 155.19 208.49 156.13 208.40 156.66 207.77 C 157.18 207.14 157.10 206.21 156.47 205.68 Z M 155.69 205.05 L 154.94 204.40 C 154.32 203.87 153.39 203.94 152.86 204.56 C 152.33 205.18 152.40 206.11 153.02 206.64 L 153.77 207.29 C 154.39 207.82 155.32 207.75 155.85 207.13 C 156.38 206.51 156.31 205.58 155.69 205.05 Z M 154.95 204.43 L 154.20 203.76 C 153.59 203.22 152.67 203.27 152.13 203.87 C 151.59 204.48 151.64 205.41 152.25 205.95 L 153.00 206.62 C 153.61 207.16 154.53 207.10 155.07 206.50 C 155.61 205.89 155.56 204.97 154.95 204.43 Z M 154.22 203.79 L 153.48 203.10 C 152.90 202.55 151.97 202.58 151.42 203.16 C 150.87 203.75 150.90 204.67 151.49 205.22 L 152.23 205.91 C 152.81 206.46 153.74 206.43 154.29 205.85 C 154.84 205.26 154.81 204.34 154.22 203.79 Z M 153.51 203.14 L 152.81 202.43 C 152.24 201.86 151.32 201.86 150.75 202.42 C 150.19 202.99 150.19 203.91 150.75 204.47 L 151.46 205.18 C 152.03 205.75 152.94 205.75 153.51 205.19 C 154.08 204.62 154.08 203.70 153.51 203.14 Z M 152.84 202.47 L 152.16 201.74 C 151.62 201.15 150.71 201.12 150.12 201.66 C 149.54 202.20 149.50 203.11 150.04 203.70 L 150.72 204.43 C 151.26 205.01 152.17 205.05 152.76 204.51 C 153.34 203.97 153.38 203.05 152.84 202.47 Z M 152.19 201.78 L 151.54 201.03 C 151.02 200.43 150.11 200.36 149.51 200.88 C 148.91 201.40 148.85 202.31 149.36 202.91 L 150.01 203.66 C 150.53 204.26 151.44 204.33 152.04 203.81 C 152.64 203.29 152.71 202.38 152.19 201.78 Z M 151.57 201.06 L 150.93 200.28 C 150.43 199.67 149.53 199.58 148.92 200.08 C 148.30 200.58 148.21 201.48 148.71 202.09 L 149.34 202.87 C 149.84 203.49 150.74 203.58 151.36 203.08 C 151.97 202.58 152.07 201.68 151.57 201.06 Z M 150.95 200.31 L 150.36 199.54 C 149.87 198.92 148.97 198.80 148.35 199.29 C 147.72 199.77 147.61 200.67 148.09 201.30 L 148.69 202.06 C 149.17 202.69 150.07 202.80 150.70 202.32 C 151.32 201.84 151.44 200.94 150.95 200.31 Z M 150.37 199.57 L 149.79 198.78 C 149.32 198.15 148.42 198.02 147.79 198.49 C 147.16 198.96 147.02 199.85 147.49 200.49 L 148.08 201.27 C 148.55 201.91 149.44 202.04 150.08 201.57 C 150.71 201.10 150.84 200.20 150.37 199.57 Z M 149.80 198.80 L 149.22 197.99 C 148.76 197.34 147.87 197.20 147.23 197.65 C 146.59 198.11 146.44 199.00 146.89 199.64 L 147.48 200.46 C 147.94 201.10 148.83 201.25 149.47 200.79 C 150.11 200.34 150.26 199.45 149.80 198.80 Z M 149.23 198.01 L 148.65 197.16 C 148.20 196.51 147.31 196.34 146.66 196.79 C 146.02 197.24 145.85 198.12 146.30 198.77 L 146.88 199.62 C 147.33 200.27 148.22 200.44 148.86 199.99 C 149.51 199.54 149.68 198.66 149.23 198.01 Z M 148.66 197.18 L 148.11 196.35 C 147.67 195.69 146.79 195.51 146.13 195.95 C 145.48 196.38 145.30 197.27 145.73 197.92 L 146.28 198.75 C 146.72 199.41 147.60 199.59 148.26 199.15 C 148.92 198.72 149.10 197.83 148.66 197.18 Z M 148.12 196.36 L 147.58 195.53 C 147.16 194.87 146.27 194.68 145.61 195.10 C 144.95 195.53 144.76 196.41 145.19 197.07 L 145.72 197.91 C 146.15 198.57 147.03 198.76 147.69 198.33 C 148.35 197.90 148.54 197.02 148.12 196.36 Z M 147.59 195.54 L 147.05 194.69 C 146.63 194.03 145.75 193.83 145.09 194.25 C 144.42 194.67 144.22 195.55 144.64 196.22 L 145.18 197.06 C 145.60 197.73 146.48 197.93 147.15 197.51 C 147.81 197.09 148.01 196.21 147.59 195.54 Z M 147.06 194.70 L 146.52 193.84 C 146.10 193.17 145.22 192.97 144.56 193.39 C 143.89 193.80 143.69 194.68 144.10 195.35 L 144.64 196.21 C 145.06 196.88 145.94 197.08 146.60 196.66 C 147.27 196.25 147.47 195.37 147.06 194.70 Z M 146.52 193.84 L 146.11 193.18 C 145.70 192.51 144.82 192.31 144.15 192.72 C 143.48 193.14 143.28 194.02 143.69 194.69 L 144.10 195.35 C 144.52 196.02 145.40 196.22 146.06 195.81 C 146.73 195.39 146.94 194.51 146.52 193.84 Z"
      fill="black"
      fill-rule="nonzero" /></svg>