<svg xmlns="http://www.w3.org/2000/svg" width="300" height="300" viewBox="0 0 300 300">
<path d="M 147.17 84.90 L 146.19 84.14 C 145.52 83.62 144.55 83.74 144.03 84.42 C 143.51 85.09 143.63 86.06 144.30 86.58 L 145.28 87.33 C 145.95 87.85 146.92 87.73 147.44 87.06 C 147.96 86.39 147.84 85.42 147.17 84.90 Z M 146.10 84.06 L 145.21 83.48 C 144.49 83.01 143.53 83.21 143.06 83.92 C 142.59 84.64 142.79 85.60 143.50 86.08 L 144.39 86.66 C 145.11 87.13 146.07 86.93 146.55 86.21 C 147.02 85.49 146.82 84.53 146.10 84.06 Z M 144.85 83.29 L 144.14 83.05 C 143.32 82.78 142.43 83.23 142.16 84.05 C 141.88 84.87 142.33 85.76 143.15 86.03 L 143.86 86.27 C 144.69 86.54 145.57 86.09 145.85 85.27 C 146.12 84.45 145.67 83.56 144.85 83.29 Z M 142.79 83.21 L 142.30 83.53 C 141.57 84.00 141.35 84.98 141.83 85.71 C 142.30 86.45 143.28 86.66 144.01 86.18 L 144.50 85.87 C 145.24 85.40 145.45 84.42 144.97 83.68 C 144.50 82.95 143.52 82.74 142.79 83.21 Z M 141.62 84.46 L 141.39 85.36 C 141.17 86.20 141.68 87.07 142.53 87.29 C 143.38 87.50 144.25 86.99 144.46 86.14 L 144.69 85.25 C 144.91 84.40 144.40 83.54 143.55 83.32 C 142.70 83.10 141.84 83.61 141.62 84.46 Z M 141.34 85.68 L 141.28 86.99 C 141.24 87.87 141.93 88.61 142.81 88.65 C 143.69 88.68 144.43 88.00 144.46 87.12 L 144.52 85.82 C 144.56 84.94 143.87 84.19 142.99 84.16 C 142.11 84.12 141.37 84.80 141.34 85.68 Z M 141.28 87.08 L 141.29 88.05 C 141.30 88.93 142.03 89.63 142.91 89.62 C 143.79 89.61 144.49 88.89 144.48 88.01 L 144.47 87.03 C 144.46 86.15 143.73 85.45 142.85 85.46 C 141.97 85.47 141.27 86.20 141.28 87.08 Z M 141.29 88.10 L 141.34 89.11 C 141.38 89.98 142.12 90.66 143.00 90.63 C 143.88 90.59 144.56 89.84 144.52 88.96 L 144.48 87.96 C 144.44 87.08 143.69 86.40 142.81 86.44 C 141.94 86.47 141.26 87.22 141.29 88.10 Z M 141.35 89.16 L 141.43 90.19 C 141.50 91.07 142.27 91.72 143.14 91.65 C 144.02 91.58 144.67 90.81 144.60 89.93 L 144.51 88.91 C 144.44 88.03 143.68 87.38 142.80 87.45 C 141.93 87.52 141.27 88.29 141.35 89.16 Z M 141.44 90.27 L 141.57 91.27 C 141.68 92.14 142.48 92.76 143.35 92.64 C 144.22 92.53 144.83 91.74 144.72 90.87 L 144.59 89.86 C 144.48 88.99 143.68 88.38 142.81 88.49 C 141.94 88.60 141.33 89.40 141.44 90.27 Z M 141.59 91.37 L 141.79 92.38 C 141.96 93.24 142.79 93.80 143.64 93.63 C 144.50 93.46 145.06 92.63 144.89 91.78 L 144.70 90.77 C 144.53 89.91 143.70 89.35 142.84 89.52 C 141.98 89.68 141.42 90.52 141.59 91.37 Z M 141.83 92.50 L 142.11 93.51 C 142.35 94.34 143.21 94.83 144.05 94.60 C 144.88 94.36 145.37 93.49 145.14 92.66 L 144.85 91.65 C 144.62 90.82 143.75 90.33 142.92 90.57 C 142.08 90.80 141.59 91.67 141.83 92.50 Z M 142.16 93.62 L 142.50 94.55 C 142.80 95.36 143.70 95.77 144.50 95.47 C 145.31 95.17 145.72 94.28 145.43 93.47 L 145.08 92.55 C 144.79 91.74 143.89 91.33 143.09 91.62 C 142.28 91.92 141.87 92.81 142.16 93.62 Z M 142.56 94.64 L 142.94 95.51 C 143.29 96.29 144.20 96.64 144.98 96.29 C 145.76 95.95 146.11 95.04 145.76 94.26 L 145.37 93.39 C 145.03 92.61 144.12 92.26 143.34 92.60 C 142.56 92.95 142.21 93.86 142.56 94.64 Z M 142.99 95.57 L 143.41 96.42 C 143.79 97.18 144.71 97.48 145.46 97.11 C 146.21 96.73 146.52 95.81 146.15 95.06 L 145.72 94.20 C 145.34 93.45 144.43 93.14 143.67 93.52 C 142.92 93.89 142.61 94.81 142.99 95.57 Z M 143.45 96.47 L 143.92 97.32 C 144.32 98.05 145.24 98.32 145.98 97.92 C 146.71 97.52 146.98 96.60 146.57 95.86 L 146.10 95.01 C 145.70 94.28 144.78 94.01 144.05 94.41 C 143.32 94.82 143.05 95.74 143.45 96.47 Z M 143.97 97.38 L 144.49 98.22 C 144.92 98.93 145.85 99.15 146.55 98.71 C 147.26 98.28 147.48 97.36 147.04 96.65 L 146.52 95.81 C 146.09 95.10 145.17 94.88 144.46 95.31 C 143.76 95.75 143.54 96.67 143.97 97.38 Z M 144.55 98.29 L 145.14 99.13 C 145.60 99.80 146.53 99.97 147.20 99.50 C 147.88 99.03 148.04 98.10 147.57 97.43 L 146.99 96.59 C 146.52 95.91 145.59 95.75 144.92 96.22 C 144.24 96.69 144.08 97.61 144.55 98.29 Z M 145.20 99.19 L 145.80 99.96 C 146.31 100.60 147.23 100.72 147.87 100.21 C 148.51 99.71 148.62 98.78 148.12 98.14 L 147.51 97.37 C 147.01 96.73 146.08 96.62 145.44 97.12 C 144.80 97.62 144.69 98.55 145.20 99.19 Z M 145.85 100.01 L 146.49 100.75 C 147.02 101.36 147.94 101.43 148.55 100.90 C 149.17 100.38 149.24 99.45 148.71 98.84 L 148.07 98.10 C 147.55 97.49 146.62 97.42 146.01 97.94 C 145.40 98.47 145.33 99.40 145.85 100.01 Z M 146.52 100.77 L 147.20 101.52 C 147.74 102.11 148.66 102.15 149.26 101.61 C 149.85 101.07 149.89 100.15 149.35 99.56 L 148.67 98.81 C 148.13 98.22 147.21 98.18 146.62 98.72 C 146.03 99.26 145.98 100.18 146.52 100.77 Z M 147.23 101.53 L 147.93 102.28 C 148.48 102.86 149.39 102.88 149.97 102.34 C 150.55 101.79 150.58 100.87 150.03 100.29 L 149.33 99.55 C 148.78 98.97 147.86 98.94 147.28 99.49 C 146.70 100.04 146.68 100.95 147.23 101.53 Z M 147.94 102.28 L 148.49 102.85 C 149.04 103.43 149.95 103.44 150.53 102.90 C 151.10 102.35 151.12 101.44 150.57 100.86 L 150.02 100.29 C 149.47 99.72 148.56 99.70 147.99 100.25 C 147.41 100.80 147.40 101.71 147.94 102.28 Z"
      fill="black"
      fill-rule="nonzero" /><path d="M 115.13 113.30 L 114.46 114.11 C 113.91 114.77 114.00 115.75 114.65 116.30 C 115.31 116.85 116.29 116.76 116.84 116.10 L 117.52 115.29 C 118.07 114.63 117.98 113.65 117.32 113.10 C 116.66 112.55 115.68 112.64 115.13 113.30 Z M 114.44 114.12 L 113.78 114.94 C 113.24 115.60 113.34 116.58 114.01 117.12 C 114.68 117.66 115.66 117.56 116.20 116.90 L 116.86 116.08 C 117.40 115.42 117.30 114.44 116.63 113.90 C 115.96 113.36 114.98 113.46 114.44 114.12 Z M 113.76 114.97 L 113.13 115.78 C 112.61 116.46 112.74 117.44 113.42 117.96 C 114.10 118.48 115.08 118.36 115.60 117.68 L 116.22 116.86 C 116.75 116.18 116.62 115.21 115.94 114.68 C 115.26 114.16 114.28 114.29 113.76 114.97 Z M 113.09 115.83 L 112.52 116.65 C 112.03 117.35 112.20 118.32 112.90 118.82 C 113.60 119.31 114.57 119.14 115.07 118.44 L 115.64 117.62 C 116.13 116.92 115.96 115.95 115.26 115.46 C 114.56 114.96 113.59 115.13 113.09 115.83 Z M 112.47 116.73 L 111.97 117.54 C 111.52 118.28 111.75 119.23 112.48 119.68 C 113.21 120.13 114.17 119.91 114.62 119.17 L 115.12 118.36 C 115.57 117.63 115.34 116.67 114.61 116.22 C 113.88 115.77 112.92 116.00 112.47 116.73 Z M 111.90 117.66 L 111.49 118.48 C 111.10 119.24 111.41 120.18 112.18 120.57 C 112.94 120.96 113.88 120.65 114.27 119.88 L 114.68 119.06 C 115.07 118.30 114.76 117.36 114.00 116.97 C 113.23 116.58 112.29 116.89 111.90 117.66 Z M 111.42 118.64 L 111.04 119.68 C 110.74 120.48 111.16 121.38 111.96 121.67 C 112.77 121.97 113.67 121.55 113.96 120.75 L 114.34 119.71 C 114.64 118.91 114.22 118.01 113.41 117.72 C 112.61 117.42 111.71 117.84 111.42 118.64 Z M 110.98 119.88 L 110.76 120.91 C 110.57 121.74 111.10 122.57 111.94 122.76 C 112.78 122.94 113.61 122.41 113.79 121.57 L 114.02 120.55 C 114.20 119.71 113.67 118.88 112.83 118.69 C 112.00 118.51 111.17 119.04 110.98 119.88 Z M 110.73 121.11 L 110.64 122.10 C 110.57 122.96 111.21 123.71 112.06 123.78 C 112.92 123.85 113.67 123.22 113.74 122.36 L 113.82 121.37 C 113.89 120.51 113.26 119.76 112.40 119.69 C 111.55 119.62 110.80 120.25 110.73 121.11 Z M 110.64 122.31 L 110.69 123.24 C 110.73 124.10 111.46 124.76 112.31 124.72 C 113.17 124.68 113.83 123.95 113.79 123.09 L 113.74 122.16 C 113.70 121.30 112.97 120.64 112.11 120.68 C 111.26 120.72 110.60 121.45 110.64 122.31 Z M 110.71 123.46 L 110.89 124.37 C 111.05 125.21 111.86 125.76 112.70 125.60 C 113.55 125.44 114.10 124.62 113.93 123.78 L 113.76 122.87 C 113.60 122.03 112.79 121.48 111.94 121.64 C 111.10 121.81 110.55 122.62 110.71 123.46 Z M 110.96 124.62 L 111.33 125.59 C 111.63 126.39 112.53 126.79 113.33 126.49 C 114.13 126.18 114.53 125.29 114.23 124.49 L 113.86 123.52 C 113.56 122.72 112.66 122.32 111.86 122.63 C 111.06 122.93 110.66 123.82 110.96 124.62 Z M 111.47 125.87 L 112.00 126.70 C 112.45 127.42 113.41 127.63 114.13 127.17 C 114.85 126.72 115.07 125.76 114.61 125.04 L 114.08 124.21 C 113.63 123.49 112.67 123.28 111.95 123.73 C 111.23 124.19 111.01 125.15 111.47 125.87 Z M 112.19 126.93 L 112.86 127.64 C 113.44 128.25 114.42 128.28 115.04 127.69 C 115.66 127.10 115.68 126.12 115.09 125.51 L 114.42 124.80 C 113.83 124.19 112.86 124.16 112.24 124.75 C 111.62 125.34 111.60 126.32 112.19 126.93 Z M 113.06 127.81 L 113.82 128.37 C 114.50 128.88 115.47 128.74 115.97 128.05 C 116.48 127.37 116.34 126.41 115.65 125.90 L 114.89 125.33 C 114.21 124.83 113.24 124.97 112.74 125.65 C 112.23 126.34 112.37 127.30 113.06 127.81 Z M 114.01 128.48 L 114.84 128.94 C 115.58 129.34 116.51 129.07 116.92 128.32 C 117.32 127.58 117.05 126.65 116.30 126.25 L 115.47 125.79 C 114.73 125.39 113.80 125.66 113.39 126.41 C 112.99 127.15 113.26 128.08 114.01 128.48 Z M 115.01 129.00 L 115.93 129.37 C 116.71 129.69 117.60 129.31 117.91 128.53 C 118.22 127.75 117.84 126.86 117.06 126.55 L 116.14 126.18 C 115.36 125.87 114.47 126.25 114.16 127.03 C 113.85 127.81 114.23 128.69 115.01 129.00 Z M 116.08 129.41 L 117.08 129.70 C 117.88 129.94 118.72 129.48 118.95 128.67 C 119.18 127.87 118.72 127.04 117.92 126.80 L 116.92 126.51 C 116.12 126.28 115.28 126.74 115.05 127.54 C 114.81 128.34 115.27 129.18 116.08 129.41 Z M 117.20 129.72 L 118.23 129.93 C 119.04 130.10 119.83 129.57 120.00 128.76 C 120.16 127.95 119.64 127.16 118.83 126.99 L 117.80 126.78 C 116.99 126.62 116.20 127.14 116.03 127.95 C 115.87 128.77 116.39 129.56 117.20 129.72 Z M 118.33 129.94 L 119.34 130.08 C 120.16 130.19 120.91 129.62 121.02 128.81 C 121.13 127.99 120.56 127.24 119.75 127.13 L 118.73 126.99 C 117.92 126.88 117.17 127.44 117.06 128.26 C 116.94 129.07 117.51 129.82 118.33 129.94 Z M 119.41 130.07 L 120.44 130.16 C 121.25 130.24 121.97 129.64 122.04 128.82 C 122.11 128.01 121.51 127.29 120.70 127.22 L 119.68 127.13 C 118.86 127.06 118.15 127.66 118.07 128.47 C 118.00 129.28 118.60 130.00 119.41 130.07 Z M 120.50 130.16 L 121.50 130.21 C 122.30 130.25 122.99 129.62 123.03 128.81 C 123.07 128.01 122.45 127.32 121.64 127.28 L 120.64 127.23 C 119.83 127.19 119.14 127.81 119.10 128.62 C 119.06 129.43 119.69 130.12 120.50 130.16 Z M 121.54 130.20 L 122.49 130.21 C 123.29 130.22 123.95 129.58 123.96 128.78 C 123.98 127.98 123.34 127.32 122.53 127.31 L 121.59 127.29 C 120.79 127.28 120.13 127.92 120.11 128.72 C 120.10 129.52 120.74 130.18 121.54 130.20 Z M 122.54 130.20 L 123.63 130.18 C 124.43 130.17 125.07 129.51 125.05 128.71 C 125.04 127.92 124.38 127.28 123.58 127.29 L 122.49 127.31 C 121.69 127.33 121.05 127.99 121.07 128.78 C 121.08 129.58 121.74 130.22 122.54 130.20 Z M 123.68 130.17 L 124.68 130.12 C 125.47 130.08 126.08 129.41 126.04 128.61 C 126.00 127.82 125.33 127.21 124.53 127.25 L 123.54 127.30 C 122.74 127.34 122.13 128.02 122.17 128.81 C 122.21 129.60 122.89 130.21 123.68 130.17 Z M 124.71 130.11 L 125.65 130.04 C 126.44 129.99 127.03 129.30 126.97 128.51 C 126.91 127.72 126.23 127.13 125.44 127.19 L 124.50 127.26 C 123.71 127.32 123.12 128.01 123.18 128.79 C 123.24 129.58 123.93 130.17 124.71 130.11 Z M 125.66 130.04 L 126.10 130.00 C 126.89 129.94 127.47 129.25 127.41 128.46 C 127.34 127.68 126.65 127.09 125.87 127.16 L 125.43 127.20 C 124.64 127.26 124.06 127.95 124.12 128.74 C 124.19 129.52 124.88 130.10 125.66 130.04 Z"
      fill="black"
      fill-rule="nonzero" /><path d="M 120.56 111.28 L 119.59 111.27 C 118.72 111.27 118.02 111.97 118.02 112.83 C 118.02 113.70 118.72 114.40 119.58 114.40 L 120.56 114.40 C 121.42 114.40 122.12 113.70 122.12 112.84 C 122.12 111.98 121.42 111.28 120.56 111.28 Z M 119.60 111.27 L 118.61 111.26 C 117.75 111.26 117.04 111.95 117.03 112.81 C 117.02 113.67 117.71 114.38 118.58 114.39 L 119.57 114.40 C 120.43 114.41 121.14 113.72 121.15 112.85 C 121.16 111.99 120.46 111.28 119.60 111.27 Z M 118.63 111.26 L 117.61 111.24 C 116.75 111.21 116.03 111.90 116.00 112.76 C 115.98 113.62 116.66 114.34 117.53 114.36 L 118.55 114.39 C 119.41 114.41 120.13 113.73 120.16 112.87 C 120.18 112.01 119.50 111.29 118.63 111.26 Z M 117.64 111.24 L 116.70 111.19 C 115.83 111.15 115.10 111.82 115.06 112.68 C 115.02 113.55 115.69 114.28 116.55 114.32 L 117.49 114.36 C 118.36 114.40 119.09 113.73 119.13 112.87 C 119.17 112.01 118.50 111.28 117.64 111.24 Z M 116.71 111.19 L 115.74 111.14 C 114.88 111.09 114.14 111.75 114.09 112.61 C 114.04 113.47 114.70 114.21 115.56 114.26 L 116.53 114.32 C 117.40 114.37 118.14 113.71 118.19 112.85 C 118.24 111.98 117.58 111.24 116.71 111.19 Z M 115.75 111.14 L 114.72 111.08 C 113.86 111.03 113.12 111.69 113.07 112.55 C 113.02 113.41 113.67 114.15 114.54 114.20 L 115.56 114.26 C 116.43 114.31 117.17 113.66 117.22 112.79 C 117.27 111.93 116.61 111.19 115.75 111.14 Z M 114.71 111.07 L 113.55 111.01 C 112.69 110.97 111.95 111.63 111.90 112.50 C 111.86 113.36 112.52 114.10 113.39 114.15 L 114.55 114.21 C 115.41 114.25 116.15 113.59 116.19 112.72 C 116.24 111.86 115.57 111.12 114.71 111.07 Z M 113.54 111.00 L 112.18 110.94 C 111.31 110.90 110.57 111.58 110.53 112.45 C 110.49 113.32 111.17 114.06 112.04 114.10 L 113.40 114.16 C 114.27 114.20 115.01 113.52 115.05 112.65 C 115.09 111.78 114.41 111.04 113.54 111.00 Z M 112.20 110.92 L 111.28 110.87 C 110.39 110.82 109.64 111.50 109.59 112.38 C 109.54 113.27 110.22 114.02 111.10 114.07 L 112.02 114.12 C 112.91 114.17 113.66 113.49 113.71 112.61 C 113.76 111.72 113.08 110.97 112.20 110.92 Z M 111.97 111.05 L 111.89 111.01 C 111.11 110.58 110.12 110.86 109.69 111.65 C 109.26 112.43 109.55 113.42 110.33 113.85 L 110.41 113.89 C 111.19 114.32 112.18 114.04 112.61 113.25 C 113.04 112.47 112.75 111.48 111.97 111.05 Z M 111.23 114.05 L 111.85 114.01 C 112.75 113.95 113.43 113.17 113.36 112.27 C 113.30 111.37 112.52 110.69 111.62 110.76 L 110.99 110.80 C 110.10 110.87 109.42 111.65 109.48 112.54 C 109.55 113.44 110.33 114.12 111.23 114.05 Z M 111.84 114.01 L 112.95 113.94 C 113.85 113.88 114.53 113.11 114.48 112.21 C 114.42 111.31 113.64 110.62 112.74 110.68 L 111.63 110.75 C 110.73 110.81 110.05 111.59 110.11 112.49 C 110.17 113.39 110.94 114.07 111.84 114.01 Z M 112.98 113.94 L 114.39 113.83 C 115.29 113.75 115.96 112.96 115.89 112.06 C 115.81 111.16 115.02 110.49 114.12 110.56 L 112.71 110.68 C 111.81 110.75 111.14 111.55 111.21 112.45 C 111.29 113.35 112.08 114.02 112.98 113.94 Z M 114.44 113.83 L 115.57 113.70 C 116.47 113.60 117.12 112.79 117.02 111.89 C 116.92 110.99 116.11 110.34 115.21 110.44 L 114.07 110.56 C 113.17 110.67 112.52 111.48 112.62 112.38 C 112.73 113.28 113.54 113.93 114.44 113.83 Z M 115.61 113.70 L 116.63 113.56 C 117.53 113.44 118.16 112.61 118.04 111.71 C 117.92 110.81 117.09 110.18 116.19 110.30 L 115.17 110.44 C 114.27 110.56 113.64 111.39 113.77 112.29 C 113.89 113.19 114.71 113.82 115.61 113.70 Z M 116.66 113.55 L 117.68 113.40 C 118.57 113.26 119.19 112.43 119.05 111.53 C 118.92 110.63 118.08 110.02 117.18 110.15 L 116.16 110.31 C 115.27 110.44 114.65 111.28 114.79 112.18 C 114.92 113.07 115.76 113.69 116.66 113.55 Z M 117.70 113.40 L 118.70 113.23 C 119.59 113.08 120.20 112.24 120.05 111.34 C 119.90 110.45 119.06 109.84 118.16 109.99 L 117.16 110.16 C 116.27 110.30 115.66 111.15 115.81 112.04 C 115.96 112.94 116.80 113.54 117.70 113.40 Z M 118.72 113.23 L 119.68 113.06 C 120.57 112.90 121.17 112.05 121.01 111.15 C 120.86 110.26 120.00 109.67 119.11 109.82 L 118.15 109.99 C 117.25 110.15 116.66 111.00 116.81 111.90 C 116.97 112.79 117.82 113.39 118.72 113.23 Z M 119.69 113.06 L 120.64 112.88 C 121.53 112.72 122.12 111.86 121.95 110.97 C 121.79 110.08 120.93 109.49 120.04 109.65 L 119.10 109.82 C 118.21 109.99 117.62 110.85 117.78 111.74 C 117.95 112.63 118.80 113.22 119.69 113.06 Z M 120.65 112.88 L 121.72 112.67 C 122.61 112.50 123.19 111.64 123.02 110.75 C 122.85 109.86 121.99 109.28 121.10 109.45 L 120.03 109.65 C 119.14 109.82 118.56 110.68 118.73 111.58 C 118.90 112.47 119.76 113.05 120.65 112.88 Z M 121.73 112.67 L 122.72 112.47 C 123.61 112.30 124.18 111.43 124.01 110.54 C 123.83 109.65 122.96 109.07 122.07 109.25 L 121.08 109.45 C 120.19 109.63 119.62 110.50 119.80 111.38 C 119.98 112.27 120.84 112.85 121.73 112.67 Z M 122.73 112.47 L 123.67 112.27 C 124.56 112.09 125.13 111.21 124.94 110.33 C 124.75 109.44 123.88 108.87 122.99 109.06 L 122.06 109.26 C 121.17 109.44 120.60 110.31 120.79 111.20 C 120.97 112.09 121.85 112.66 122.73 112.47 Z M 123.69 112.27 L 124.61 112.07 C 125.49 111.87 126.05 110.99 125.85 110.11 C 125.66 109.22 124.78 108.66 123.89 108.86 L 122.98 109.06 C 122.09 109.26 121.53 110.14 121.73 111.02 C 121.92 111.91 122.80 112.47 123.69 112.27 Z M 124.62 112.06 L 125.56 111.85 C 126.44 111.64 126.99 110.76 126.79 109.87 C 126.58 108.99 125.70 108.44 124.81 108.64 L 123.88 108.86 C 122.99 109.06 122.44 109.95 122.65 110.83 C 122.85 111.72 123.74 112.27 124.62 112.06 Z M 125.57 111.84 L 126.52 111.62 C 127.41 111.40 127.95 110.52 127.74 109.63 C 127.53 108.75 126.64 108.20 125.76 108.42 L 124.80 108.64 C 123.92 108.86 123.37 109.74 123.59 110.63 C 123.80 111.51 124.68 112.06 125.57 111.84 Z M 126.53 111.61 L 127.51 111.38 C 128.39 111.16 128.93 110.27 128.72 109.39 C 128.50 108.51 127.61 107.97 126.73 108.18 L 125.75 108.42 C 124.87 108.63 124.33 109.52 124.54 110.40 C 124.76 111.29 125.65 111.83 126.53 111.61 Z M 127.51 111.38 L 128.50 111.13 C 129.38 110.92 129.92 110.03 129.71 109.15 C 129.49 108.26 128.60 107.72 127.72 107.94 L 126.73 108.18 C 125.84 108.40 125.30 109.29 125.52 110.17 C 125.73 111.05 126.62 111.59 127.51 111.38 Z M 128.50 111.14 L 129.48 110.90 C 130.36 110.68 130.90 109.79 130.69 108.91 C 130.47 108.03 129.58 107.48 128.70 107.70 L 127.72 107.94 C 126.84 108.15 126.29 109.04 126.51 109.92 C 126.72 110.81 127.61 111.35 128.50 111.14 Z M 129.47 110.90 L 130.43 110.67 C 131.31 110.46 131.86 109.57 131.64 108.68 C 131.43 107.80 130.54 107.26 129.66 107.47 L 128.70 107.70 C 127.82 107.91 127.27 108.80 127.49 109.68 C 127.70 110.57 128.59 111.11 129.47 110.90 Z M 130.43 110.67 L 131.40 110.44 C 132.28 110.22 132.82 109.33 132.61 108.45 C 132.40 107.56 131.51 107.02 130.62 107.23 L 129.65 107.47 C 128.77 107.68 128.23 108.57 128.44 109.46 C 128.65 110.34 129.54 110.88 130.43 110.67 Z M 131.40 110.44 L 132.38 110.20 C 133.26 109.98 133.80 109.09 133.59 108.20 C 133.37 107.32 132.48 106.78 131.59 107.00 L 130.62 107.24 C 129.73 107.45 129.19 108.34 129.41 109.23 C 129.62 110.11 130.52 110.65 131.40 110.44 Z M 132.39 110.19 L 133.38 109.94 C 134.26 109.72 134.80 108.83 134.58 107.94 C 134.35 107.06 133.46 106.53 132.58 106.75 L 131.59 107.00 C 130.70 107.22 130.17 108.11 130.39 109.00 C 130.61 109.88 131.51 110.42 132.39 110.19 Z M 133.39 109.94 L 134.34 109.70 C 135.22 109.47 135.75 108.57 135.52 107.69 C 135.30 106.80 134.40 106.27 133.51 106.50 L 132.56 106.75 C 131.68 106.98 131.15 107.88 131.38 108.76 C 131.61 109.64 132.51 110.17 133.39 109.94 Z M 134.35 109.69 L 135.30 109.44 C 136.18 109.20 136.71 108.30 136.47 107.42 C 136.24 106.54 135.33 106.02 134.45 106.25 L 133.50 106.51 C 132.62 106.74 132.10 107.64 132.33 108.52 C 132.57 109.40 133.47 109.93 134.35 109.69 Z M 135.31 109.44 L 136.27 109.18 C 137.15 108.94 137.67 108.03 137.43 107.15 C 137.19 106.27 136.28 105.75 135.40 105.99 L 134.44 106.25 C 133.56 106.49 133.05 107.40 133.29 108.28 C 133.52 109.16 134.43 109.68 135.31 109.44 Z M 136.28 109.17 L 137.25 108.91 C 138.13 108.66 138.65 107.75 138.40 106.87 C 138.16 106.00 137.25 105.48 136.37 105.72 L 135.40 105.99 C 134.52 106.24 134.00 107.15 134.25 108.02 C 134.49 108.90 135.40 109.42 136.28 109.17 Z M 137.26 108.90 L 138.25 108.63 C 139.13 108.38 139.64 107.47 139.39 106.59 C 139.15 105.72 138.24 105.20 137.36 105.45 L 136.37 105.72 C 135.49 105.97 134.98 106.88 135.22 107.76 C 135.47 108.64 136.38 109.15 137.26 108.90 Z M 138.25 108.63 L 139.22 108.36 C 140.10 108.11 140.61 107.20 140.36 106.32 C 140.12 105.44 139.21 104.93 138.33 105.18 L 137.36 105.45 C 136.48 105.69 135.97 106.61 136.21 107.48 C 136.46 108.36 137.37 108.87 138.25 108.63 Z M 139.22 108.36 L 140.19 108.08 C 141.07 107.84 141.58 106.92 141.33 106.05 C 141.09 105.17 140.17 104.66 139.30 104.90 L 138.33 105.18 C 137.45 105.42 136.94 106.34 137.18 107.21 C 137.43 108.09 138.34 108.60 139.22 108.36 Z M 140.19 108.08 L 141.16 107.81 C 142.04 107.56 142.55 106.65 142.31 105.77 C 142.06 104.89 141.14 104.38 140.27 104.63 L 139.29 104.90 C 138.42 105.15 137.90 106.06 138.15 106.94 C 138.40 107.82 139.31 108.33 140.19 108.08 Z M 141.17 107.81 L 142.13 107.54 C 143.01 107.29 143.52 106.37 143.27 105.49 C 143.02 104.61 142.11 104.10 141.23 104.35 L 140.26 104.63 C 139.38 104.88 138.87 105.79 139.12 106.67 C 139.37 107.55 140.29 108.06 141.17 107.81 Z M 142.13 107.54 L 143.08 107.26 C 143.96 107.01 144.47 106.10 144.22 105.22 C 143.97 104.34 143.05 103.83 142.17 104.08 L 141.22 104.35 C 140.35 104.61 139.84 105.52 140.09 106.40 C 140.34 107.28 141.26 107.79 142.13 107.54 Z M 143.09 107.26 L 144.06 106.98 C 144.94 106.73 145.45 105.81 145.19 104.93 C 144.94 104.06 144.02 103.55 143.14 103.80 L 142.17 104.08 C 141.29 104.34 140.79 105.25 141.04 106.13 C 141.29 107.01 142.21 107.52 143.09 107.26 Z M 144.06 106.98 L 145.04 106.70 C 145.91 106.44 146.42 105.53 146.16 104.65 C 145.91 103.77 144.99 103.27 144.11 103.52 L 143.14 103.80 C 142.26 104.06 141.76 104.98 142.01 105.86 C 142.27 106.73 143.19 107.24 144.06 106.98 Z M 145.04 106.70 L 146.00 106.42 C 146.87 106.16 147.38 105.24 147.12 104.36 C 146.86 103.48 145.94 102.98 145.06 103.24 L 144.11 103.52 C 143.23 103.78 142.73 104.70 142.99 105.58 C 143.24 106.45 144.16 106.96 145.04 106.70 Z M 146.00 106.42 L 146.95 106.13 C 147.83 105.87 148.32 104.95 148.06 104.08 C 147.80 103.20 146.88 102.70 146.00 102.96 L 145.06 103.24 C 144.18 103.50 143.68 104.43 143.94 105.30 C 144.20 106.18 145.13 106.68 146.00 106.42 Z M 146.95 106.13 L 147.90 105.85 C 148.77 105.58 149.27 104.66 149.01 103.78 C 148.74 102.91 147.82 102.41 146.94 102.68 L 146.00 102.96 C 145.12 103.23 144.63 104.15 144.89 105.03 C 145.15 105.90 146.08 106.40 146.95 106.13 Z M 147.90 105.85 L 148.84 105.56 C 149.72 105.29 150.21 104.37 149.94 103.49 C 149.68 102.62 148.75 102.12 147.88 102.39 L 146.94 102.68 C 146.06 102.95 145.57 103.87 145.84 104.75 C 146.10 105.62 147.03 106.11 147.90 105.85 Z M 148.85 105.56 L 149.79 105.27 C 150.67 105.00 151.16 104.07 150.89 103.20 C 150.62 102.32 149.69 101.83 148.82 102.10 L 147.87 102.39 C 147.00 102.66 146.51 103.59 146.78 104.46 C 147.05 105.34 147.97 105.83 148.85 105.56 Z M 149.80 105.27 L 150.75 104.97 C 151.62 104.70 152.11 103.77 151.84 102.90 C 151.57 102.02 150.64 101.54 149.77 101.81 L 148.82 102.10 C 147.94 102.37 147.45 103.30 147.72 104.17 C 147.99 105.05 148.92 105.54 149.80 105.27 Z M 150.75 104.97 L 151.71 104.67 C 152.59 104.40 153.08 103.48 152.81 102.60 C 152.54 101.73 151.61 101.24 150.73 101.51 L 149.77 101.81 C 148.90 102.08 148.41 103.00 148.68 103.88 C 148.95 104.75 149.88 105.24 150.75 104.97 Z M 151.71 104.67 L 152.68 104.38 C 153.56 104.11 154.05 103.18 153.78 102.31 C 153.51 101.43 152.58 100.94 151.71 101.21 L 150.74 101.51 C 149.86 101.78 149.37 102.70 149.64 103.58 C 149.91 104.45 150.83 104.94 151.71 104.67 Z M 152.68 104.38 L 153.62 104.09 C 154.50 103.82 154.99 102.90 154.72 102.02 C 154.46 101.15 153.53 100.65 152.66 100.92 L 151.71 101.21 C 150.84 101.47 150.34 102.40 150.61 103.27 C 150.88 104.15 151.80 104.64 152.68 104.38 Z M 153.62 104.09 L 154.57 103.81 C 155.44 103.54 155.94 102.62 155.67 101.74 C 155.41 100.87 154.49 100.37 153.61 100.63 L 152.66 100.92 C 151.78 101.18 151.29 102.11 151.55 102.98 C 151.82 103.86 152.74 104.36 153.62 104.09 Z M 154.56 103.81 L 155.52 103.52 C 156.40 103.26 156.90 102.34 156.63 101.46 C 156.37 100.58 155.45 100.08 154.57 100.35 L 153.61 100.63 C 152.74 100.89 152.24 101.82 152.50 102.69 C 152.76 103.57 153.69 104.07 154.56 103.81 Z M 155.52 103.52 L 156.48 103.24 C 157.36 102.98 157.86 102.05 157.60 101.18 C 157.34 100.30 156.42 99.80 155.54 100.06 L 154.58 100.35 C 153.70 100.60 153.20 101.53 153.46 102.40 C 153.72 103.28 154.64 103.78 155.52 103.52 Z M 156.48 103.24 L 157.45 102.95 C 158.33 102.69 158.83 101.77 158.57 100.89 C 158.32 100.02 157.39 99.51 156.52 99.77 L 155.55 100.06 C 154.67 100.32 154.17 101.24 154.42 102.12 C 154.68 102.99 155.60 103.49 156.48 103.24 Z M 157.45 102.95 L 158.41 102.67 C 159.29 102.41 159.79 101.49 159.53 100.62 C 159.28 99.74 158.35 99.23 157.48 99.49 L 156.52 99.77 C 155.64 100.03 155.14 100.95 155.39 101.83 C 155.65 102.70 156.57 103.21 157.45 102.95 Z M 158.40 102.67 L 159.36 102.39 C 160.24 102.14 160.75 101.22 160.49 100.34 C 160.24 99.46 159.32 98.96 158.44 99.21 L 157.48 99.49 C 156.60 99.75 156.10 100.66 156.35 101.54 C 156.61 102.42 157.53 102.93 158.40 102.67 Z M 159.36 102.39 L 160.32 102.12 C 161.20 101.86 161.71 100.95 161.45 100.07 C 161.20 99.19 160.28 98.68 159.40 98.93 L 158.44 99.21 C 157.56 99.46 157.06 100.38 157.31 101.26 C 157.56 102.14 158.48 102.65 159.36 102.39 Z M 160.32 102.12 L 161.28 101.85 C 162.16 101.59 162.67 100.68 162.42 99.80 C 162.17 98.92 161.25 98.41 160.37 98.66 L 159.41 98.93 C 158.53 99.18 158.02 100.10 158.27 100.98 C 158.52 101.86 159.44 102.37 160.32 102.12 Z M 161.27 101.85 L 162.24 101.58 C 163.12 101.33 163.63 100.42 163.39 99.53 C 163.14 98.65 162.23 98.14 161.34 98.39 L 160.38 98.66 C 159.50 98.90 158.98 99.82 159.23 100.70 C 159.48 101.58 160.39 102.09 161.27 101.85 Z M 162.23 101.58 L 163.18 101.32 C 164.07 101.07 164.58 100.16 164.34 99.28 C 164.10 98.40 163.19 97.88 162.30 98.12 L 161.35 98.38 C 160.47 98.63 159.95 99.54 160.19 100.42 C 160.44 101.30 161.35 101.82 162.23 101.58 Z M 163.18 101.32 L 164.13 101.06 C 165.01 100.82 165.53 99.91 165.29 99.03 C 165.06 98.15 164.15 97.62 163.26 97.86 L 162.31 98.12 C 161.43 98.36 160.91 99.27 161.15 100.15 C 161.38 101.03 162.29 101.56 163.18 101.32 Z M 164.12 101.06 L 165.08 100.81 C 165.96 100.58 166.49 99.67 166.25 98.78 C 166.02 97.90 165.11 97.37 164.23 97.61 L 163.27 97.86 C 162.39 98.09 161.86 99.00 162.09 99.89 C 162.33 100.77 163.23 101.30 164.12 101.06 Z M 165.07 100.81 L 166.04 100.56 C 166.92 100.33 167.45 99.43 167.22 98.54 C 167.00 97.66 166.09 97.12 165.21 97.35 L 164.24 97.60 C 163.35 97.83 162.82 98.74 163.05 99.62 C 163.28 100.51 164.18 101.04 165.07 100.81 Z M 166.03 100.56 L 167.01 100.31 C 167.90 100.09 168.44 99.19 168.21 98.30 C 167.99 97.41 167.09 96.88 166.20 97.10 L 165.21 97.35 C 164.33 97.58 163.79 98.48 164.01 99.36 C 164.24 100.25 165.14 100.79 166.03 100.56 Z M 167.00 100.32 L 168.00 100.07 C 168.89 99.85 169.43 98.95 169.21 98.06 C 168.99 97.18 168.09 96.63 167.20 96.85 L 166.21 97.10 C 165.32 97.32 164.78 98.22 165.00 99.11 C 165.22 99.99 166.12 100.54 167.00 100.32 Z M 167.99 100.07 L 168.98 99.83 C 169.87 99.62 170.41 98.72 170.20 97.83 C 169.98 96.94 169.09 96.40 168.20 96.61 L 167.21 96.85 C 166.32 97.07 165.77 97.96 165.99 98.85 C 166.20 99.74 167.10 100.29 167.99 100.07 Z M 168.97 99.83 L 169.96 99.60 C 170.85 99.39 171.40 98.49 171.19 97.60 C 170.98 96.71 170.09 96.16 169.20 96.37 L 168.20 96.61 C 167.31 96.82 166.76 97.72 166.97 98.61 C 167.19 99.50 168.08 100.05 168.97 99.83 Z M 169.96 99.60 L 170.94 99.37 C 171.83 99.16 172.39 98.27 172.18 97.38 C 171.97 96.49 171.08 95.93 170.19 96.14 L 169.20 96.37 C 168.31 96.58 167.76 97.47 167.97 98.36 C 168.17 99.25 169.07 99.81 169.96 99.60 Z M 170.94 99.37 L 171.91 99.15 C 172.80 98.94 173.36 98.05 173.15 97.16 C 172.95 96.27 172.06 95.71 171.16 95.92 L 170.20 96.14 C 169.30 96.35 168.75 97.23 168.95 98.13 C 169.16 99.02 170.05 99.58 170.94 99.37 Z M 171.90 99.15 L 172.84 98.94 C 173.73 98.74 174.29 97.85 174.09 96.96 C 173.89 96.06 173.00 95.50 172.11 95.70 L 171.17 95.92 C 170.28 96.12 169.72 97.01 169.92 97.90 C 170.12 98.79 171.01 99.35 171.90 99.15 Z M 172.83 98.94 L 173.88 98.71 C 174.77 98.51 175.34 97.62 175.14 96.73 C 174.94 95.84 174.06 95.27 173.16 95.47 L 172.11 95.70 C 171.22 95.90 170.66 96.79 170.86 97.68 C 171.05 98.57 171.94 99.14 172.83 98.94 Z M 173.87 98.71 L 174.89 98.49 C 175.78 98.29 176.35 97.41 176.16 96.52 C 175.96 95.62 175.08 95.06 174.19 95.25 L 173.17 95.47 C 172.28 95.66 171.71 96.55 171.90 97.44 C 172.09 98.33 172.98 98.90 173.87 98.71 Z M 174.88 98.49 L 175.85 98.29 C 176.74 98.10 177.32 97.22 177.13 96.32 C 176.94 95.43 176.06 94.85 175.16 95.04 L 174.20 95.25 C 173.30 95.44 172.73 96.31 172.92 97.21 C 173.10 98.11 173.98 98.68 174.88 98.49 Z M 175.84 98.29 L 176.77 98.10 C 177.66 97.92 178.24 97.04 178.06 96.15 C 177.88 95.25 177.00 94.67 176.10 94.85 L 175.17 95.04 C 174.28 95.22 173.70 96.10 173.88 97.00 C 174.06 97.89 174.94 98.47 175.84 98.29 Z M 176.75 98.10 L 177.69 97.92 C 178.59 97.74 179.18 96.87 179.00 95.97 C 178.83 95.08 177.96 94.49 177.06 94.67 L 176.12 94.85 C 175.22 95.02 174.63 95.89 174.81 96.79 C 174.98 97.69 175.85 98.28 176.75 98.10 Z M 177.68 97.92 L 178.70 97.73 C 179.60 97.57 180.19 96.70 180.03 95.80 C 179.86 94.90 178.99 94.31 178.09 94.47 L 177.07 94.66 C 176.17 94.83 175.58 95.69 175.74 96.59 C 175.91 97.49 176.78 98.09 177.68 97.92 Z M 178.68 97.74 L 179.67 97.56 C 180.57 97.41 181.18 96.55 181.02 95.65 C 180.86 94.74 180.00 94.14 179.10 94.30 L 178.11 94.47 C 177.21 94.62 176.60 95.48 176.76 96.39 C 176.92 97.29 177.78 97.89 178.68 97.74 Z M 179.65 97.57 L 180.61 97.41 C 181.52 97.27 182.13 96.42 181.99 95.51 C 181.84 94.61 180.99 93.99 180.08 94.14 L 179.12 94.29 C 178.22 94.44 177.60 95.29 177.75 96.19 C 177.89 97.10 178.75 97.72 179.65 97.57 Z M 180.59 97.42 L 181.50 97.28 C 182.41 97.15 183.04 96.31 182.90 95.40 C 182.77 94.49 181.93 93.86 181.02 94.00 L 180.10 94.13 C 179.20 94.27 178.57 95.11 178.70 96.02 C 178.84 96.93 179.68 97.55 180.59 97.42 Z M 181.48 97.29 L 182.35 97.17 C 183.26 97.06 183.91 96.22 183.79 95.31 C 183.67 94.40 182.83 93.76 181.92 93.88 L 181.04 93.99 C 180.13 94.11 179.49 94.95 179.61 95.86 C 179.73 96.77 180.57 97.41 181.48 97.29 Z M 182.32 97.18 L 183.25 97.08 C 184.16 96.98 184.82 96.16 184.72 95.24 C 184.62 94.33 183.80 93.67 182.89 93.77 L 181.96 93.87 C 181.04 93.97 180.38 94.79 180.48 95.71 C 180.58 96.62 181.40 97.28 182.32 97.18 Z M 183.21 97.08 L 184.26 96.99 C 185.18 96.91 185.86 96.10 185.78 95.19 C 185.70 94.27 184.89 93.60 183.98 93.68 L 182.93 93.77 C 182.01 93.85 181.33 94.65 181.41 95.57 C 181.49 96.48 182.30 97.16 183.21 97.08 Z M 184.23 96.99 L 185.42 96.91 C 186.33 96.85 187.03 96.06 186.97 95.14 C 186.90 94.22 186.11 93.53 185.19 93.59 L 184.01 93.67 C 183.09 93.73 182.40 94.53 182.46 95.44 C 182.52 96.36 183.31 97.06 184.23 96.99 Z M 185.39 96.92 L 186.56 96.86 C 187.48 96.81 188.19 96.03 188.14 95.10 C 188.10 94.18 187.31 93.47 186.39 93.52 L 185.22 93.58 C 184.29 93.63 183.58 94.42 183.63 95.34 C 183.68 96.26 184.47 96.97 185.39 96.92 Z M 186.54 96.88 L 187.72 96.83 C 188.65 96.80 189.38 96.01 189.34 95.08 C 189.31 94.15 188.52 93.43 187.59 93.46 L 186.41 93.51 C 185.48 93.54 184.75 94.33 184.79 95.26 C 184.82 96.19 185.61 96.91 186.54 96.88 Z M 187.69 96.85 L 188.77 96.83 C 189.71 96.81 190.45 96.03 190.44 95.10 C 190.42 94.16 189.64 93.41 188.71 93.43 L 187.63 93.45 C 186.69 93.46 185.94 94.24 185.96 95.18 C 185.98 96.12 186.75 96.86 187.69 96.85 Z M 188.71 96.84 L 189.56 96.85 C 190.51 96.87 191.29 96.12 191.30 95.17 C 191.32 94.22 190.56 93.44 189.62 93.43 L 188.77 93.41 C 187.82 93.40 187.04 94.15 187.02 95.10 C 187.01 96.04 187.76 96.82 188.71 96.84 Z M 189.35 96.85 L 189.91 96.93 C 190.86 97.06 191.73 96.41 191.86 95.46 C 192.00 94.52 191.34 93.64 190.40 93.51 L 189.83 93.43 C 188.89 93.30 188.01 93.96 187.88 94.90 C 187.75 95.85 188.40 96.72 189.35 96.85 Z M 188.89 94.03 L 188.64 94.30 C 187.98 95.00 188.01 96.10 188.71 96.76 C 189.41 97.41 190.51 97.38 191.17 96.68 L 191.42 96.41 C 192.08 95.71 192.04 94.61 191.34 93.96 C 190.64 93.30 189.55 93.33 188.89 94.03 Z M 189.27 93.86 L 188.11 94.32 C 187.21 94.67 186.77 95.68 187.12 96.58 C 187.47 97.48 188.48 97.92 189.38 97.57 L 190.54 97.12 C 191.44 96.76 191.88 95.75 191.53 94.85 C 191.18 93.95 190.16 93.51 189.27 93.86 Z M 188.10 94.31 L 187.05 94.73 C 186.15 95.08 185.71 96.10 186.07 97.00 C 186.42 97.90 187.44 98.34 188.34 97.99 L 189.39 97.57 C 190.29 97.22 190.73 96.20 190.38 95.30 C 190.02 94.40 189.00 93.96 188.10 94.31 Z M 187.01 94.74 L 186.12 95.12 C 185.23 95.50 184.81 96.53 185.19 97.42 C 185.57 98.32 186.61 98.73 187.50 98.35 L 188.38 97.97 C 189.28 97.59 189.69 96.56 189.31 95.67 C 188.93 94.78 187.90 94.36 187.01 94.74 Z M 186.09 95.13 L 185.17 95.54 C 184.28 95.94 183.88 96.98 184.28 97.87 C 184.68 98.75 185.72 99.15 186.60 98.75 L 187.53 98.34 C 188.41 97.94 188.81 96.90 188.41 96.02 C 188.02 95.13 186.98 94.73 186.09 95.13 Z M 185.14 95.55 L 184.20 95.99 C 183.32 96.40 182.94 97.45 183.35 98.33 C 183.76 99.21 184.81 99.59 185.69 99.18 L 186.63 98.74 C 187.51 98.33 187.89 97.29 187.48 96.41 C 187.07 95.53 186.02 95.14 185.14 95.55 Z M 184.18 96.00 L 183.24 96.45 C 182.36 96.87 182.00 97.93 182.42 98.80 C 182.84 99.68 183.89 100.05 184.77 99.63 L 185.71 99.17 C 186.59 98.75 186.95 97.70 186.53 96.82 C 186.11 95.95 185.06 95.58 184.18 96.00 Z M 183.22 96.46 L 182.29 96.92 C 181.42 97.36 181.06 98.41 181.49 99.29 C 181.93 100.16 182.99 100.51 183.86 100.08 L 184.79 99.62 C 185.66 99.19 186.02 98.13 185.59 97.26 C 185.15 96.38 184.09 96.03 183.22 96.46 Z M 182.27 96.93 L 181.36 97.40 C 180.49 97.84 180.15 98.90 180.59 99.77 C 181.04 100.64 182.10 100.98 182.96 100.54 L 183.88 100.07 C 184.74 99.63 185.09 98.57 184.64 97.70 C 184.20 96.83 183.14 96.49 182.27 96.93 Z M 181.34 97.41 L 180.46 97.87 C 179.59 98.32 179.26 99.39 179.71 100.25 C 180.17 101.11 181.23 101.45 182.10 100.99 L 182.98 100.53 C 183.84 100.08 184.18 99.01 183.72 98.15 C 183.27 97.29 182.21 96.95 181.34 97.41 Z M 180.44 97.88 L 179.58 98.35 C 178.72 98.81 178.40 99.88 178.86 100.73 C 179.32 101.59 180.39 101.91 181.25 101.45 L 182.11 100.99 C 182.97 100.52 183.29 99.46 182.83 98.60 C 182.37 97.74 181.30 97.42 180.44 97.88 Z M 179.56 98.35 L 178.72 98.82 C 177.86 99.29 177.55 100.36 178.02 101.21 C 178.49 102.07 179.56 102.38 180.42 101.91 L 181.26 101.44 C 182.11 100.97 182.43 99.90 181.96 99.05 C 181.49 98.20 180.41 97.88 179.56 98.35 Z M 178.70 98.83 L 177.82 99.32 C 176.97 99.80 176.67 100.88 177.15 101.72 C 177.62 102.57 178.70 102.87 179.55 102.40 L 180.43 101.90 C 181.28 101.42 181.58 100.35 181.10 99.50 C 180.62 98.65 179.55 98.35 178.70 98.83 Z M 177.80 99.33 L 176.93 99.84 C 176.09 100.32 175.80 101.40 176.29 102.24 C 176.77 103.08 177.85 103.37 178.69 102.89 L 179.56 102.39 C 180.41 101.90 180.70 100.82 180.21 99.98 C 179.72 99.14 178.65 98.85 177.80 99.33 Z M 176.92 99.85 L 176.06 100.36 C 175.22 100.85 174.95 101.93 175.44 102.77 C 175.94 103.60 177.02 103.88 177.85 103.38 L 178.71 102.88 C 179.55 102.38 179.82 101.30 179.33 100.47 C 178.83 99.63 177.75 99.35 176.92 99.85 Z M 176.04 100.37 L 175.20 100.88 C 174.37 101.39 174.10 102.47 174.61 103.30 C 175.12 104.13 176.20 104.39 177.03 103.89 L 177.87 103.37 C 178.70 102.86 178.96 101.78 178.46 100.95 C 177.95 100.12 176.87 99.86 176.04 100.37 Z M 175.18 100.90 L 174.34 101.43 C 173.52 101.94 173.27 103.03 173.79 103.85 C 174.30 104.67 175.39 104.92 176.21 104.40 L 177.05 103.87 C 177.87 103.35 178.11 102.27 177.60 101.45 C 177.08 100.63 176.00 100.38 175.18 100.90 Z M 174.32 101.44 L 173.48 101.99 C 172.67 102.52 172.44 103.60 172.97 104.41 C 173.49 105.23 174.58 105.46 175.39 104.93 L 176.23 104.38 C 177.04 103.86 177.27 102.77 176.74 101.96 C 176.21 101.15 175.13 100.92 174.32 101.44 Z M 173.46 102.01 L 172.63 102.56 C 171.83 103.10 171.62 104.19 172.15 104.99 C 172.69 105.79 173.78 106.01 174.58 105.47 L 175.41 104.91 C 176.21 104.37 176.43 103.28 175.89 102.48 C 175.35 101.68 174.26 101.47 173.46 102.01 Z M 172.61 102.58 L 171.79 103.15 C 171.00 103.70 170.80 104.79 171.35 105.58 C 171.90 106.37 172.99 106.57 173.78 106.02 L 174.60 105.45 C 175.39 104.90 175.59 103.81 175.04 103.02 C 174.49 102.23 173.40 102.03 172.61 102.58 Z M 171.77 103.17 L 170.95 103.75 C 170.17 104.31 169.99 105.40 170.55 106.18 C 171.11 106.96 172.20 107.14 172.98 106.58 L 173.80 106.00 C 174.58 105.44 174.76 104.36 174.20 103.57 C 173.64 102.79 172.55 102.61 171.77 103.17 Z M 170.94 103.77 L 170.11 104.38 C 169.34 104.95 169.18 106.03 169.75 106.81 C 170.32 107.58 171.40 107.74 172.18 107.17 L 173.00 106.57 C 173.77 106.00 173.93 104.91 173.36 104.14 C 172.79 103.37 171.71 103.20 170.94 103.77 Z M 170.09 104.40 L 169.29 105.02 C 168.53 105.60 168.38 106.69 168.96 107.44 C 169.54 108.20 170.63 108.35 171.39 107.77 L 172.20 107.15 C 172.95 106.57 173.10 105.48 172.52 104.72 C 171.94 103.97 170.85 103.82 170.09 104.40 Z M 169.26 105.05 L 168.48 105.67 C 167.74 106.27 167.62 107.35 168.21 108.09 C 168.80 108.84 169.89 108.96 170.63 108.36 L 171.41 107.74 C 172.15 107.14 172.28 106.06 171.68 105.32 C 171.09 104.58 170.00 104.46 169.26 105.05 Z M 168.45 105.71 L 167.70 106.34 C 166.98 106.95 166.88 108.03 167.49 108.75 C 168.10 109.48 169.19 109.57 169.91 108.96 L 170.66 108.33 C 171.38 107.72 171.48 106.64 170.87 105.92 C 170.26 105.19 169.17 105.10 168.45 105.71 Z M 167.67 106.38 L 166.92 107.05 C 166.21 107.68 166.16 108.76 166.79 109.46 C 167.41 110.16 168.49 110.22 169.19 109.59 L 169.94 108.92 C 170.65 108.29 170.70 107.21 170.07 106.51 C 169.45 105.81 168.37 105.75 167.67 106.38 Z M 166.88 107.10 L 166.14 107.81 C 165.47 108.46 165.45 109.54 166.10 110.21 C 166.75 110.89 167.82 110.90 168.50 110.25 L 169.23 109.54 C 169.91 108.89 169.93 107.82 169.28 107.15 C 168.62 106.47 167.55 106.45 166.88 107.10 Z M 166.11 107.86 L 165.42 108.58 C 164.77 109.25 164.79 110.31 165.46 110.96 C 166.13 111.61 167.19 111.59 167.84 110.92 L 168.53 110.20 C 169.18 109.53 169.16 108.47 168.49 107.82 C 167.82 107.18 166.75 107.19 166.11 107.86 Z M 165.39 108.62 L 164.74 109.34 C 164.12 110.03 164.17 111.09 164.85 111.71 C 165.54 112.33 166.60 112.28 167.22 111.59 L 167.87 110.87 C 168.49 110.19 168.44 109.13 167.75 108.51 C 167.07 107.89 166.01 107.94 165.39 108.62 Z M 164.71 109.39 L 164.07 110.14 C 163.47 110.84 163.56 111.89 164.25 112.49 C 164.95 113.08 166.00 113.00 166.60 112.30 L 167.24 111.55 C 167.84 110.85 167.75 109.80 167.06 109.20 C 166.36 108.61 165.31 108.69 164.71 109.39 Z M 164.05 110.20 L 163.42 110.98 C 162.85 111.69 162.97 112.73 163.68 113.29 C 164.39 113.86 165.42 113.74 165.99 113.03 L 166.62 112.25 C 167.19 111.54 167.07 110.50 166.36 109.94 C 165.65 109.37 164.61 109.49 164.05 110.20 Z M 163.39 111.04 L 162.80 111.85 C 162.27 112.57 162.43 113.59 163.15 114.13 C 163.88 114.66 164.90 114.50 165.43 113.78 L 166.02 112.97 C 166.55 112.25 166.40 111.23 165.67 110.69 C 164.94 110.16 163.92 110.32 163.39 111.04 Z M 162.77 111.92 L 162.22 112.75 C 161.73 113.49 161.94 114.49 162.68 114.98 C 163.42 115.48 164.43 115.27 164.92 114.53 L 165.46 113.70 C 165.96 112.96 165.75 111.96 165.01 111.46 C 164.26 110.97 163.26 111.18 162.77 111.92 Z M 162.19 112.84 L 161.69 113.69 C 161.25 114.45 161.51 115.43 162.27 115.87 C 163.04 116.31 164.01 116.06 164.46 115.29 L 164.95 114.44 C 165.40 113.68 165.14 112.70 164.37 112.26 C 163.61 111.81 162.63 112.07 162.19 112.84 Z M 161.65 113.80 L 161.22 114.69 C 160.84 115.47 161.17 116.42 161.95 116.80 C 162.74 117.18 163.68 116.85 164.07 116.07 L 164.50 115.18 C 164.88 114.39 164.55 113.45 163.77 113.07 C 162.98 112.69 162.03 113.01 161.65 113.80 Z M 161.18 114.83 L 160.83 115.77 C 160.52 116.57 160.93 117.48 161.74 117.78 C 162.55 118.08 163.45 117.68 163.75 116.87 L 164.11 115.93 C 164.41 115.12 164.00 114.22 163.20 113.92 C 162.39 113.61 161.49 114.02 161.18 114.83 Z M 160.79 115.93 L 160.54 116.91 C 160.32 117.73 160.82 118.58 161.64 118.79 C 162.47 119.01 163.31 118.52 163.53 117.69 L 163.79 116.71 C 164.00 115.88 163.51 115.04 162.68 114.82 C 161.86 114.61 161.01 115.10 160.79 115.93 Z M 160.52 117.07 L 160.37 118.05 C 160.25 118.88 160.83 119.66 161.66 119.79 C 162.50 119.91 163.28 119.33 163.40 118.50 L 163.55 117.52 C 163.67 116.69 163.09 115.91 162.26 115.79 C 161.42 115.66 160.64 116.24 160.52 117.07 Z M 160.37 118.22 L 160.34 119.22 C 160.31 120.05 160.96 120.76 161.79 120.79 C 162.63 120.82 163.33 120.17 163.36 119.33 L 163.40 118.33 C 163.43 117.49 162.78 116.79 161.94 116.76 C 161.11 116.73 160.41 117.38 160.37 118.22 Z M 160.36 119.40 L 160.44 120.41 C 160.51 121.23 161.24 121.84 162.06 121.77 C 162.89 121.70 163.50 120.98 163.43 120.15 L 163.34 119.15 C 163.27 118.32 162.55 117.71 161.72 117.78 C 160.90 117.85 160.29 118.58 160.36 119.40 Z M 160.49 120.61 L 160.71 121.58 C 160.89 122.38 161.68 122.89 162.48 122.71 C 163.28 122.53 163.78 121.73 163.60 120.93 L 163.38 119.95 C 163.20 119.15 162.41 118.65 161.61 118.83 C 160.81 119.01 160.31 119.81 160.49 120.61 Z M 160.78 121.77 L 161.12 122.69 C 161.41 123.45 162.25 123.84 163.01 123.55 C 163.78 123.27 164.16 122.42 163.88 121.66 L 163.53 120.74 C 163.25 119.98 162.40 119.59 161.64 119.88 C 160.88 120.16 160.49 121.01 160.78 121.77 Z M 161.19 122.82 L 161.63 123.71 C 161.99 124.44 162.87 124.73 163.59 124.37 C 164.31 124.01 164.61 123.14 164.25 122.42 L 163.81 121.53 C 163.45 120.80 162.57 120.51 161.85 120.87 C 161.13 121.23 160.83 122.10 161.19 122.82 Z M 161.69 123.79 L 162.20 124.66 C 162.60 125.35 163.48 125.59 164.17 125.19 C 164.87 124.79 165.10 123.90 164.70 123.21 L 164.19 122.34 C 163.79 121.65 162.90 121.41 162.21 121.81 C 161.52 122.22 161.29 123.10 161.69 123.79 Z M 162.23 124.70 L 162.73 125.50 C 163.15 126.18 164.04 126.38 164.71 125.96 C 165.38 125.54 165.59 124.66 165.17 123.99 L 164.67 123.18 C 164.25 122.51 163.36 122.30 162.69 122.72 C 162.02 123.14 161.81 124.02 162.23 124.70 Z"
      fill="black"
      fill-rule="nonzero" /><path d="M 138.57 128.27 L 137.70 127.43 C 137.09 126.83 136.12 126.84 135.52 127.45 C 134.93 128.06 134.94 129.04 135.55 129.63 L 136.42 130.48 C 137.03 131.07 138.00 131.06 138.59 130.45 C 139.19 129.84 139.18 128.87 138.57 128.27 Z M 137.73 127.44 L 136.92 126.62 C 136.32 126.01 135.34 126.00 134.73 126.60 C 134.12 127.20 134.11 128.18 134.71 128.79 L 135.52 129.61 C 136.12 130.22 137.10 130.23 137.71 129.63 C 138.32 129.03 138.33 128.05 137.73 127.44 Z M 136.98 126.67 L 136.29 125.89 C 135.72 125.24 134.74 125.18 134.09 125.76 C 133.45 126.33 133.39 127.31 133.96 127.96 L 134.65 128.74 C 135.22 129.38 136.21 129.44 136.85 128.87 C 137.50 128.30 137.56 127.31 136.98 126.67 Z M 136.40 126.01 L 135.89 125.29 C 135.38 124.59 134.40 124.43 133.69 124.94 C 132.99 125.44 132.83 126.43 133.34 127.13 L 133.85 127.84 C 134.36 128.54 135.34 128.70 136.04 128.20 C 136.75 127.69 136.91 126.71 136.40 126.01 Z M 136.06 125.57 L 135.78 124.94 C 135.43 124.14 134.49 123.78 133.70 124.13 C 132.90 124.49 132.54 125.42 132.89 126.22 L 133.17 126.85 C 133.52 127.65 134.45 128.01 135.25 127.66 C 136.05 127.30 136.41 126.37 136.06 125.57 Z M 135.89 125.87 L 136.04 125.05 C 136.20 124.19 135.63 123.36 134.77 123.20 C 133.91 123.04 133.08 123.61 132.92 124.48 L 132.77 125.29 C 132.62 126.15 133.19 126.98 134.05 127.14 C 134.91 127.30 135.73 126.73 135.89 125.87 Z M 135.49 125.99 L 136.22 125.39 C 136.90 124.84 137.00 123.84 136.45 123.16 C 135.89 122.48 134.89 122.38 134.21 122.94 L 133.48 123.53 C 132.80 124.09 132.70 125.09 133.25 125.76 C 133.81 126.44 134.81 126.55 135.49 125.99 Z M 135.87 125.61 L 136.90 125.15 C 137.70 124.79 138.05 123.85 137.69 123.05 C 137.33 122.25 136.39 121.89 135.59 122.25 L 134.56 122.72 C 133.76 123.08 133.41 124.02 133.77 124.82 C 134.13 125.62 135.07 125.97 135.87 125.61 Z M 136.81 125.18 L 137.68 124.86 C 138.50 124.55 138.91 123.63 138.60 122.81 C 138.29 121.99 137.38 121.58 136.56 121.89 L 135.69 122.22 C 134.87 122.52 134.45 123.44 134.76 124.26 C 135.07 125.08 135.99 125.49 136.81 125.18 Z M 137.64 124.87 L 138.56 124.55 C 139.39 124.26 139.82 123.36 139.54 122.53 C 139.25 121.71 138.35 121.27 137.52 121.56 L 136.60 121.88 C 135.77 122.16 135.33 123.06 135.62 123.89 C 135.91 124.72 136.81 125.16 137.64 124.87 Z M 138.53 124.56 L 139.51 124.23 C 140.34 123.96 140.79 123.07 140.52 122.24 C 140.25 121.41 139.36 120.96 138.53 121.23 L 137.55 121.55 C 136.72 121.82 136.26 122.72 136.54 123.55 C 136.81 124.38 137.70 124.83 138.53 124.56 Z M 139.50 124.24 L 140.51 123.91 C 141.34 123.65 141.80 122.76 141.53 121.93 C 141.27 121.10 140.38 120.64 139.55 120.90 L 138.54 121.23 C 137.71 121.49 137.25 122.38 137.51 123.21 C 137.78 124.04 138.67 124.50 139.50 124.24 Z M 140.51 123.91 L 141.42 123.62 C 142.25 123.36 142.71 122.47 142.44 121.64 C 142.18 120.81 141.30 120.36 140.47 120.62 L 139.55 120.91 C 138.72 121.17 138.27 122.06 138.53 122.89 C 138.79 123.71 139.68 124.17 140.51 123.91 Z M 141.42 123.62 L 142.36 123.32 C 143.19 123.06 143.65 122.17 143.38 121.35 C 143.12 120.52 142.24 120.06 141.41 120.32 L 140.47 120.62 C 139.64 120.89 139.18 121.77 139.44 122.60 C 139.71 123.42 140.59 123.88 141.42 123.62 Z M 142.36 123.31 L 143.33 123.00 C 144.15 122.74 144.61 121.86 144.34 121.04 C 144.08 120.21 143.20 119.76 142.37 120.02 L 141.41 120.33 C 140.58 120.59 140.13 121.47 140.39 122.30 C 140.66 123.12 141.54 123.58 142.36 123.31 Z M 143.33 123.00 L 144.31 122.68 C 145.13 122.42 145.58 121.54 145.32 120.72 C 145.05 119.89 144.17 119.44 143.35 119.71 L 142.37 120.03 C 141.55 120.29 141.10 121.17 141.36 121.99 C 141.63 122.81 142.51 123.26 143.33 123.00 Z M 144.32 122.67 L 145.28 122.36 C 146.10 122.09 146.54 121.21 146.28 120.39 C 146.01 119.58 145.13 119.13 144.31 119.40 L 143.35 119.72 C 142.53 119.98 142.08 120.86 142.35 121.68 C 142.62 122.50 143.50 122.94 144.32 122.67 Z M 145.29 122.35 L 146.23 122.03 C 147.04 121.76 147.48 120.89 147.21 120.07 C 146.94 119.26 146.06 118.82 145.25 119.09 L 144.31 119.41 C 143.50 119.68 143.06 120.56 143.33 121.37 C 143.60 122.18 144.48 122.62 145.29 122.35 Z M 146.23 122.03 L 147.18 121.71 C 147.99 121.43 148.42 120.56 148.15 119.75 C 147.88 118.95 147.00 118.51 146.19 118.78 L 145.25 119.10 C 144.44 119.37 144.01 120.25 144.28 121.06 C 144.55 121.86 145.43 122.30 146.23 122.03 Z M 147.18 121.70 L 148.13 121.38 C 148.93 121.11 149.36 120.23 149.09 119.43 C 148.82 118.63 147.95 118.20 147.14 118.47 L 146.19 118.79 C 145.39 119.06 144.96 119.93 145.23 120.74 C 145.50 121.54 146.38 121.97 147.18 121.70 Z M 148.13 121.37 L 149.08 121.05 C 149.88 120.78 150.30 119.91 150.03 119.11 C 149.76 118.31 148.90 117.88 148.10 118.15 L 147.14 118.48 C 146.35 118.75 145.92 119.62 146.19 120.41 C 146.46 121.21 147.33 121.64 148.13 121.37 Z M 149.07 121.04 L 150.02 120.72 C 150.81 120.45 151.24 119.59 150.97 118.80 C 150.70 118.00 149.84 117.57 149.04 117.84 L 148.10 118.16 C 147.31 118.43 146.88 119.29 147.15 120.09 C 147.42 120.88 148.28 121.31 149.07 121.04 Z M 150.01 120.71 L 150.95 120.40 C 151.74 120.13 152.17 119.28 151.90 118.49 C 151.64 117.70 150.78 117.27 149.99 117.53 L 149.05 117.85 C 148.26 118.11 147.83 118.97 148.10 119.76 C 148.36 120.55 149.22 120.98 150.01 120.71 Z M 150.94 120.39 L 151.89 120.08 C 152.68 119.82 153.10 118.97 152.84 118.18 C 152.58 117.39 151.73 116.97 150.94 117.23 L 150.00 117.54 C 149.21 117.80 148.78 118.65 149.04 119.44 C 149.30 120.23 150.15 120.65 150.94 120.39 Z M 151.88 120.08 L 152.83 119.76 C 153.62 119.51 154.05 118.67 153.79 117.88 C 153.53 117.10 152.69 116.67 151.91 116.92 L 150.95 117.23 C 150.17 117.49 149.74 118.33 149.99 119.12 C 150.25 119.90 151.09 120.33 151.88 120.08 Z M 152.82 119.76 L 153.78 119.45 C 154.56 119.20 155.00 118.37 154.75 117.59 C 154.50 116.80 153.66 116.37 152.88 116.62 L 151.92 116.93 C 151.14 117.18 150.70 118.01 150.95 118.80 C 151.20 119.58 152.04 120.01 152.82 119.76 Z M 153.77 119.45 L 154.74 119.15 C 155.52 118.90 155.96 118.08 155.71 117.30 C 155.47 116.52 154.64 116.08 153.86 116.32 L 152.89 116.63 C 152.11 116.87 151.68 117.70 151.92 118.48 C 152.16 119.25 152.99 119.69 153.77 119.45 Z M 154.73 119.14 L 155.70 118.85 C 156.48 118.61 156.92 117.79 156.69 117.02 C 156.45 116.24 155.63 115.80 154.85 116.03 L 153.88 116.33 C 153.10 116.56 152.66 117.38 152.89 118.16 C 153.13 118.94 153.95 119.38 154.73 119.14 Z M 155.69 118.85 L 156.66 118.56 C 157.44 118.34 157.89 117.52 157.66 116.74 C 157.43 115.97 156.62 115.52 155.84 115.75 L 154.87 116.03 C 154.09 116.26 153.65 117.08 153.87 117.85 C 154.10 118.63 154.91 119.07 155.69 118.85 Z M 156.65 118.56 L 157.61 118.29 C 158.39 118.07 158.84 117.26 158.62 116.49 C 158.40 115.71 157.60 115.26 156.82 115.48 L 155.86 115.75 C 155.08 115.97 154.63 116.78 154.85 117.55 C 155.07 118.33 155.87 118.78 156.65 118.56 Z M 157.60 118.29 L 158.54 118.03 C 159.31 117.82 159.77 117.02 159.56 116.25 C 159.35 115.47 158.56 115.02 157.78 115.23 L 156.84 115.48 C 156.06 115.69 155.60 116.49 155.81 117.26 C 156.02 118.04 156.82 118.50 157.60 118.29 Z M 158.52 118.03 L 159.51 117.78 C 160.28 117.58 160.75 116.79 160.55 116.01 C 160.35 115.24 159.56 114.77 158.79 114.97 L 157.80 115.23 C 157.03 115.43 156.56 116.21 156.76 116.99 C 156.96 117.76 157.75 118.23 158.52 118.03 Z M 159.49 117.78 L 160.52 117.53 C 161.29 117.34 161.77 116.56 161.58 115.79 C 161.40 115.01 160.62 114.54 159.84 114.72 L 158.81 114.97 C 158.04 115.16 157.56 115.94 157.75 116.71 C 157.94 117.49 158.71 117.96 159.49 117.78 Z M 160.50 117.53 L 161.48 117.31 C 162.26 117.14 162.75 116.37 162.57 115.59 C 162.40 114.82 161.63 114.33 160.86 114.50 L 159.87 114.72 C 159.09 114.90 158.61 115.66 158.78 116.44 C 158.95 117.21 159.72 117.70 160.50 117.53 Z M 161.46 117.31 L 162.40 117.12 C 163.17 116.96 163.67 116.20 163.51 115.43 C 163.36 114.65 162.60 114.15 161.82 114.31 L 160.88 114.50 C 160.11 114.66 159.61 115.42 159.76 116.19 C 159.92 116.97 160.68 117.47 161.46 117.31 Z M 162.37 117.12 L 163.29 116.95 C 164.06 116.81 164.58 116.06 164.44 115.29 C 164.29 114.51 163.55 114.00 162.77 114.14 L 161.85 114.31 C 161.07 114.45 160.56 115.19 160.70 115.97 C 160.84 116.75 161.59 117.26 162.37 117.12 Z M 163.25 116.95 L 164.29 116.79 C 165.07 116.67 165.60 115.94 165.48 115.16 C 165.35 114.38 164.62 113.85 163.84 113.97 L 162.81 114.13 C 162.03 114.26 161.50 114.99 161.62 115.77 C 161.74 116.55 162.48 117.08 163.25 116.95 Z M 164.26 116.79 L 165.24 116.66 C 166.02 116.55 166.57 115.83 166.46 115.05 C 166.36 114.27 165.64 113.72 164.85 113.83 L 163.87 113.97 C 163.09 114.07 162.54 114.79 162.65 115.57 C 162.76 116.36 163.48 116.90 164.26 116.79 Z M 165.22 116.66 L 166.18 116.54 C 166.96 116.45 167.52 115.73 167.42 114.95 C 167.32 114.17 166.61 113.61 165.83 113.71 L 164.87 113.83 C 164.09 113.93 163.54 114.64 163.63 115.42 C 163.73 116.20 164.44 116.76 165.22 116.66 Z M 166.17 116.54 L 166.50 116.50 C 167.28 116.41 167.84 115.70 167.75 114.92 C 167.65 114.14 166.94 113.58 166.16 113.67 L 165.83 113.71 C 165.05 113.81 164.49 114.52 164.59 115.30 C 164.68 116.08 165.39 116.64 166.17 116.54 Z"
      fill="black"
      fill-rule="nonzero" /><path d="M 127.84 138.62 L 126.93 138.78 C 126.11 138.92 125.57 139.69 125.71 140.51 C 125.85 141.32 126.62 141.87 127.44 141.72 L 128.36 141.56 C 129.17 141.42 129.72 140.65 129.57 139.84 C 129.43 139.02 128.66 138.48 127.84 138.62 Z M 126.91 138.78 L 125.98 138.95 C 125.17 139.10 124.63 139.88 124.78 140.69 C 124.93 141.51 125.71 142.04 126.52 141.89 L 127.45 141.72 C 128.27 141.57 128.80 140.79 128.65 139.98 C 128.50 139.16 127.72 138.63 126.91 138.78 Z M 125.95 138.96 L 124.99 139.16 C 124.18 139.32 123.66 140.12 123.82 140.92 C 123.99 141.73 124.78 142.25 125.59 142.09 L 126.55 141.89 C 127.36 141.72 127.88 140.93 127.72 140.12 C 127.55 139.31 126.76 138.79 125.95 138.96 Z M 124.94 139.16 L 123.94 139.40 C 123.14 139.59 122.64 140.40 122.83 141.21 C 123.02 142.01 123.83 142.51 124.63 142.32 L 125.64 142.08 C 126.44 141.89 126.94 141.08 126.75 140.27 C 126.56 139.47 125.75 138.97 124.94 139.16 Z M 123.89 139.42 L 122.83 139.71 C 122.03 139.93 121.56 140.75 121.78 141.55 C 122.00 142.35 122.83 142.82 123.62 142.60 L 124.68 142.30 C 125.48 142.08 125.95 141.26 125.73 140.46 C 125.51 139.66 124.69 139.20 123.89 139.42 Z M 122.78 139.72 L 121.81 140.02 C 121.01 140.27 120.57 141.11 120.82 141.90 C 121.07 142.69 121.91 143.13 122.70 142.89 L 123.67 142.58 C 124.47 142.34 124.91 141.49 124.66 140.70 C 124.41 139.91 123.57 139.47 122.78 139.72 Z M 121.76 140.04 L 120.77 140.38 C 119.99 140.65 119.57 141.51 119.84 142.29 C 120.11 143.08 120.97 143.49 121.76 143.22 L 122.74 142.88 C 123.53 142.61 123.95 141.75 123.67 140.96 C 123.40 140.18 122.55 139.76 121.76 140.04 Z M 120.73 140.39 L 119.74 140.76 C 118.97 141.06 118.57 141.93 118.87 142.71 C 119.17 143.49 120.04 143.88 120.81 143.58 L 121.80 143.21 C 122.58 142.91 122.97 142.04 122.67 141.26 C 122.38 140.49 121.51 140.09 120.73 140.39 Z M 119.70 140.78 L 118.75 141.17 C 117.98 141.49 117.62 142.38 117.94 143.15 C 118.26 143.92 119.14 144.28 119.91 143.96 L 120.86 143.57 C 121.63 143.25 122.00 142.36 121.68 141.59 C 121.35 140.82 120.47 140.46 119.70 140.78 Z M 118.70 141.19 L 117.82 141.60 C 117.06 141.95 116.73 142.85 117.08 143.61 C 117.43 144.37 118.33 144.70 119.09 144.35 L 119.97 143.94 C 120.73 143.59 121.06 142.69 120.71 141.93 C 120.36 141.17 119.46 140.84 118.70 141.19 Z M 117.75 141.62 L 116.92 142.06 C 116.18 142.45 115.89 143.36 116.28 144.11 C 116.67 144.85 117.58 145.14 118.33 144.75 L 119.16 144.32 C 119.90 143.93 120.19 143.01 119.80 142.27 C 119.41 141.52 118.49 141.24 117.75 141.62 Z M 116.78 142.13 L 115.60 142.92 C 114.90 143.38 114.71 144.33 115.18 145.03 C 115.65 145.74 116.60 145.93 117.30 145.46 L 118.47 144.68 C 119.17 144.21 119.36 143.26 118.90 142.56 C 118.43 141.86 117.48 141.67 116.78 142.13 Z M 115.31 143.15 L 114.70 143.82 C 114.13 144.45 114.17 145.42 114.80 146.00 C 115.43 146.57 116.40 146.52 116.98 145.89 L 117.59 145.22 C 118.16 144.59 118.11 143.62 117.49 143.05 C 116.86 142.48 115.89 142.52 115.31 143.15 Z M 114.29 144.85 L 114.29 145.34 C 114.28 146.20 114.97 146.90 115.83 146.90 C 116.68 146.90 117.38 146.21 117.38 145.36 L 117.39 144.87 C 117.39 144.01 116.70 143.31 115.84 143.31 C 114.99 143.31 114.29 144.00 114.29 144.85 Z M 115.23 146.78 L 115.87 147.06 C 116.66 147.39 117.57 147.02 117.91 146.23 C 118.25 145.44 117.88 144.53 117.09 144.19 L 116.45 143.92 C 115.66 143.58 114.74 143.95 114.40 144.74 C 114.07 145.53 114.44 146.45 115.23 146.78 Z M 116.35 147.18 L 117.46 147.27 C 118.32 147.34 119.07 146.70 119.14 145.84 C 119.21 144.98 118.57 144.23 117.71 144.16 L 116.61 144.07 C 115.75 144.00 114.99 144.64 114.92 145.50 C 114.85 146.36 115.49 147.11 116.35 147.18 Z M 117.60 147.28 L 118.81 147.27 C 119.68 147.27 120.37 146.56 120.36 145.69 C 120.36 144.83 119.65 144.13 118.79 144.14 L 117.58 144.15 C 116.71 144.15 116.01 144.86 116.02 145.73 C 116.03 146.59 116.73 147.29 117.60 147.28 Z M 118.86 147.27 L 119.88 147.23 C 120.74 147.20 121.42 146.47 121.38 145.60 C 121.35 144.74 120.62 144.06 119.75 144.10 L 118.74 144.14 C 117.87 144.17 117.20 144.90 117.23 145.77 C 117.27 146.63 118.00 147.31 118.86 147.27 Z M 119.92 147.23 L 120.94 147.16 C 121.80 147.10 122.46 146.35 122.40 145.49 C 122.34 144.62 121.59 143.97 120.73 144.03 L 119.71 144.10 C 118.84 144.16 118.19 144.91 118.25 145.77 C 118.31 146.64 119.06 147.29 119.92 147.23 Z M 120.99 147.16 L 121.98 147.05 C 122.84 146.97 123.47 146.20 123.38 145.33 C 123.29 144.47 122.52 143.85 121.66 143.93 L 120.67 144.03 C 119.81 144.12 119.18 144.89 119.27 145.76 C 119.36 146.62 120.13 147.24 120.99 147.16 Z M 122.05 147.05 L 123.06 146.90 C 123.91 146.77 124.50 145.97 124.38 145.11 C 124.25 144.26 123.45 143.67 122.60 143.79 L 121.59 143.94 C 120.73 144.07 120.14 144.87 120.27 145.72 C 120.40 146.58 121.19 147.17 122.05 147.05 Z M 123.14 146.88 L 124.15 146.67 C 125.00 146.50 125.54 145.67 125.37 144.82 C 125.20 143.98 124.37 143.43 123.52 143.60 L 122.51 143.81 C 121.66 143.98 121.12 144.81 121.29 145.66 C 121.46 146.51 122.29 147.05 123.14 146.88 Z M 124.21 146.66 L 125.15 146.42 C 125.99 146.22 126.50 145.37 126.29 144.53 C 126.08 143.69 125.23 143.18 124.39 143.38 L 123.46 143.62 C 122.62 143.83 122.11 144.68 122.31 145.52 C 122.52 146.36 123.37 146.87 124.21 146.66 Z M 125.18 146.42 L 126.10 146.17 C 126.94 145.94 127.43 145.08 127.20 144.25 C 126.98 143.41 126.12 142.92 125.28 143.14 L 124.36 143.39 C 123.53 143.62 123.04 144.48 123.26 145.31 C 123.49 146.15 124.35 146.64 125.18 146.42 Z M 126.11 146.16 L 127.06 145.90 C 127.89 145.67 128.38 144.81 128.15 143.98 C 127.92 143.15 127.06 142.66 126.23 142.89 L 125.28 143.15 C 124.44 143.38 123.95 144.24 124.18 145.07 C 124.41 145.90 125.27 146.39 126.11 146.16 Z M 127.07 145.90 L 128.03 145.63 C 128.86 145.39 129.35 144.53 129.11 143.69 C 128.88 142.86 128.01 142.38 127.18 142.62 L 126.22 142.89 C 125.38 143.12 124.90 143.99 125.14 144.82 C 125.37 145.65 126.24 146.14 127.07 145.90 Z M 128.05 145.62 L 129.02 145.33 C 129.85 145.08 130.32 144.21 130.07 143.38 C 129.83 142.56 128.96 142.09 128.13 142.33 L 127.16 142.62 C 126.33 142.87 125.86 143.74 126.11 144.57 C 126.35 145.40 127.22 145.87 128.05 145.62 Z M 129.05 145.32 L 129.98 145.03 C 130.80 144.77 131.26 143.89 131.00 143.07 C 130.74 142.24 129.86 141.79 129.04 142.05 L 128.10 142.34 C 127.28 142.60 126.82 143.48 127.08 144.30 C 127.34 145.13 128.22 145.58 129.05 145.32 Z M 130.00 145.02 L 130.95 144.71 C 131.77 144.44 132.21 143.55 131.94 142.73 C 131.67 141.91 130.79 141.47 129.97 141.74 L 129.02 142.05 C 128.20 142.32 127.75 143.21 128.02 144.03 C 128.29 144.85 129.18 145.29 130.00 145.02 Z M 130.96 144.70 L 131.93 144.37 C 132.75 144.09 133.19 143.21 132.91 142.39 C 132.63 141.57 131.74 141.13 130.92 141.41 L 129.95 141.74 C 129.14 142.02 128.70 142.91 128.98 143.73 C 129.26 144.55 130.15 144.98 130.96 144.70 Z M 131.94 144.37 L 132.87 144.05 C 133.69 143.76 134.12 142.87 133.83 142.05 C 133.55 141.24 132.66 140.81 131.84 141.09 L 130.91 141.42 C 130.10 141.70 129.67 142.59 129.95 143.41 C 130.23 144.22 131.13 144.65 131.94 144.37 Z M 132.88 144.04 L 133.81 143.71 C 134.63 143.43 135.06 142.53 134.77 141.72 C 134.48 140.90 133.59 140.48 132.77 140.76 L 131.84 141.09 C 131.02 141.38 130.59 142.27 130.88 143.09 C 131.17 143.90 132.06 144.33 132.88 144.04 Z M 133.81 143.71 L 134.76 143.38 C 135.58 143.09 136.01 142.20 135.72 141.38 C 135.43 140.57 134.54 140.14 133.73 140.43 L 132.77 140.76 C 131.96 141.05 131.53 141.94 131.82 142.76 C 132.10 143.57 133.00 144.00 133.81 143.71 Z M 134.76 143.38 L 135.71 143.05 C 136.53 142.77 136.96 141.87 136.68 141.06 C 136.39 140.24 135.50 139.81 134.69 140.09 L 133.73 140.43 C 132.92 140.71 132.48 141.60 132.77 142.42 C 133.05 143.23 133.94 143.66 134.76 143.38 Z M 135.71 143.05 L 136.65 142.73 C 137.46 142.45 137.90 141.56 137.62 140.74 C 137.34 139.93 136.45 139.49 135.63 139.77 L 134.69 140.09 C 133.88 140.37 133.44 141.26 133.72 142.08 C 134.00 142.90 134.89 143.33 135.71 143.05 Z M 136.65 142.73 L 137.60 142.40 C 138.41 142.12 138.85 141.23 138.57 140.42 C 138.29 139.60 137.40 139.16 136.58 139.44 L 135.63 139.77 C 134.82 140.05 134.38 140.94 134.66 141.76 C 134.94 142.57 135.83 143.01 136.65 142.73 Z M 137.61 142.40 L 138.56 142.07 C 139.37 141.78 139.80 140.89 139.52 140.08 C 139.23 139.26 138.34 138.83 137.53 139.12 L 136.58 139.45 C 135.76 139.73 135.33 140.62 135.61 141.44 C 135.90 142.25 136.79 142.69 137.61 142.40 Z M 138.57 142.06 L 139.50 141.73 C 140.31 141.44 140.74 140.54 140.44 139.73 C 140.15 138.91 139.25 138.49 138.44 138.79 L 137.51 139.12 C 136.70 139.41 136.28 140.31 136.57 141.12 C 136.86 141.93 137.76 142.36 138.57 142.06 Z M 139.52 141.72 L 140.44 141.38 C 141.25 141.08 141.66 140.18 141.36 139.37 C 141.06 138.56 140.16 138.15 139.35 138.45 L 138.43 138.79 C 137.62 139.09 137.20 139.99 137.51 140.80 C 137.81 141.61 138.71 142.02 139.52 141.72 Z M 140.45 141.37 L 141.38 141.02 C 142.19 140.71 142.59 139.81 142.28 139.00 C 141.98 138.19 141.07 137.79 140.27 138.10 L 139.33 138.45 C 138.53 138.76 138.12 139.67 138.43 140.47 C 138.74 141.28 139.64 141.68 140.45 141.37 Z M 141.39 141.01 L 142.35 140.64 C 143.15 140.33 143.55 139.42 143.23 138.62 C 142.92 137.82 142.02 137.42 141.21 137.73 L 140.26 138.10 C 139.45 138.42 139.05 139.32 139.37 140.13 C 139.68 140.93 140.59 141.33 141.39 141.01 Z M 142.35 140.64 L 143.29 140.27 C 144.09 139.95 144.48 139.05 144.17 138.24 C 143.85 137.44 142.94 137.05 142.14 137.36 L 141.21 137.73 C 140.40 138.05 140.01 138.96 140.32 139.76 C 140.64 140.56 141.55 140.96 142.35 140.64 Z M 143.29 140.27 L 144.23 139.89 C 145.04 139.58 145.43 138.67 145.11 137.87 C 144.79 137.06 143.88 136.67 143.08 136.99 L 142.14 137.37 C 141.34 137.68 140.94 138.59 141.26 139.39 C 141.58 140.20 142.49 140.59 143.29 140.27 Z M 144.24 139.89 L 145.18 139.52 C 145.98 139.19 146.36 138.29 146.04 137.49 C 145.72 136.69 144.81 136.30 144.01 136.62 L 143.08 136.99 C 142.28 137.31 141.89 138.22 142.21 139.02 C 142.53 139.82 143.44 140.21 144.24 139.89 Z M 145.18 139.51 L 146.09 139.14 C 146.89 138.82 147.28 137.91 146.96 137.11 C 146.63 136.31 145.72 135.93 144.92 136.25 L 144.01 136.62 C 143.21 136.94 142.82 137.85 143.15 138.65 C 143.47 139.45 144.38 139.84 145.18 139.51 Z M 146.10 139.14 L 147.06 138.75 C 147.85 138.42 148.24 137.51 147.91 136.72 C 147.58 135.92 146.67 135.54 145.88 135.86 L 144.92 136.25 C 144.12 136.58 143.74 137.49 144.06 138.29 C 144.39 139.09 145.30 139.47 146.10 139.14 Z M 147.06 138.75 L 147.99 138.36 C 148.79 138.03 149.17 137.12 148.84 136.33 C 148.51 135.53 147.60 135.15 146.80 135.48 L 145.87 135.86 C 145.07 136.19 144.69 137.10 145.02 137.90 C 145.35 138.70 146.26 139.08 147.06 138.75 Z M 148.00 138.36 L 148.90 137.99 C 149.69 137.66 150.07 136.74 149.74 135.95 C 149.41 135.15 148.50 134.78 147.70 135.11 L 146.80 135.48 C 146.01 135.81 145.63 136.72 145.96 137.52 C 146.29 138.31 147.20 138.69 148.00 138.36 Z M 148.90 137.99 L 149.80 137.61 C 150.59 137.28 150.97 136.37 150.64 135.57 C 150.30 134.78 149.39 134.40 148.60 134.73 L 147.70 135.11 C 146.91 135.44 146.53 136.35 146.86 137.15 C 147.19 137.94 148.11 138.32 148.90 137.99 Z M 149.80 137.61 L 150.71 137.23 C 151.51 136.90 151.88 135.99 151.55 135.19 C 151.22 134.40 150.31 134.02 149.52 134.35 L 148.60 134.73 C 147.80 135.07 147.43 135.98 147.76 136.77 C 148.09 137.57 149.00 137.94 149.80 137.61 Z M 150.71 137.23 L 151.63 136.85 C 152.43 136.52 152.81 135.61 152.48 134.81 C 152.15 134.02 151.24 133.64 150.44 133.97 L 149.52 134.35 C 148.72 134.68 148.35 135.59 148.68 136.39 C 149.01 137.18 149.92 137.56 150.71 137.23 Z M 151.63 136.85 L 152.56 136.47 C 153.35 136.14 153.73 135.23 153.41 134.43 C 153.08 133.64 152.17 133.26 151.37 133.59 L 150.44 133.97 C 149.65 134.30 149.27 135.21 149.60 136.00 C 149.92 136.80 150.83 137.18 151.63 136.85 Z M 152.55 136.47 L 153.47 136.09 C 154.27 135.77 154.65 134.86 154.33 134.07 C 154.00 133.27 153.09 132.89 152.30 133.21 L 151.38 133.59 C 150.58 133.91 150.20 134.82 150.53 135.61 C 150.85 136.41 151.76 136.79 152.55 136.47 Z M 153.47 136.09 L 154.39 135.72 C 155.18 135.40 155.57 134.49 155.25 133.70 C 154.92 132.90 154.02 132.52 153.22 132.84 L 152.30 133.21 C 151.51 133.53 151.12 134.44 151.44 135.24 C 151.77 136.03 152.67 136.42 153.47 136.09 Z M 154.39 135.72 L 155.32 135.34 C 156.11 135.02 156.50 134.11 156.17 133.32 C 155.85 132.52 154.95 132.14 154.15 132.46 L 153.22 132.84 C 152.43 133.16 152.04 134.07 152.37 134.86 C 152.69 135.66 153.59 136.04 154.39 135.72 Z M 155.32 135.34 L 156.26 134.95 C 157.05 134.63 157.43 133.72 157.11 132.93 C 156.78 132.14 155.88 131.76 155.08 132.08 L 154.15 132.47 C 153.36 132.79 152.98 133.70 153.30 134.49 C 153.63 135.28 154.53 135.66 155.32 135.34 Z M 156.27 134.95 L 157.18 134.57 C 157.97 134.24 158.35 133.33 158.02 132.54 C 157.69 131.75 156.78 131.38 155.99 131.71 L 155.08 132.09 C 154.29 132.42 153.91 133.32 154.24 134.11 C 154.57 134.90 155.48 135.28 156.27 134.95 Z M 157.19 134.56 L 158.11 134.18 C 158.90 133.85 159.27 132.94 158.94 132.15 C 158.61 131.36 157.70 130.99 156.91 131.32 L 155.99 131.71 C 155.20 132.04 154.83 132.95 155.16 133.74 C 155.49 134.52 156.40 134.89 157.19 134.56 Z M 158.11 134.17 L 159.04 133.78 C 159.82 133.45 160.19 132.54 159.86 131.76 C 159.53 130.97 158.62 130.61 157.84 130.94 L 156.91 131.33 C 156.12 131.66 155.76 132.57 156.09 133.35 C 156.42 134.14 157.33 134.50 158.11 134.17 Z M 159.04 133.78 L 159.95 133.39 C 160.74 133.06 161.10 132.16 160.77 131.37 C 160.44 130.59 159.54 130.22 158.75 130.55 L 157.84 130.94 C 157.05 131.27 156.69 132.18 157.02 132.96 C 157.35 133.74 158.25 134.11 159.04 133.78 Z M 159.95 133.39 L 160.85 133.01 C 161.64 132.68 162.00 131.77 161.67 130.99 C 161.34 130.21 160.44 129.84 159.66 130.17 L 158.75 130.55 C 157.97 130.89 157.60 131.79 157.93 132.57 C 158.26 133.35 159.17 133.72 159.95 133.39 Z M 160.85 133.01 L 161.77 132.62 C 162.55 132.29 162.92 131.39 162.59 130.61 C 162.26 129.83 161.36 129.46 160.58 129.79 L 159.66 130.17 C 158.88 130.50 158.51 131.40 158.84 132.18 C 159.17 132.97 160.07 133.33 160.85 133.01 Z M 161.76 132.62 L 162.70 132.23 C 163.49 131.90 163.86 131.01 163.53 130.23 C 163.21 129.44 162.31 129.07 161.53 129.40 L 160.59 129.79 C 159.80 130.11 159.43 131.01 159.76 131.79 C 160.08 132.57 160.98 132.95 161.76 132.62 Z M 162.70 132.23 L 163.63 131.85 C 164.41 131.53 164.78 130.63 164.46 129.85 C 164.14 129.07 163.25 128.70 162.47 129.02 L 161.54 129.40 C 160.75 129.72 160.38 130.61 160.70 131.39 C 161.02 132.18 161.91 132.55 162.70 132.23 Z M 163.62 131.85 L 164.55 131.47 C 165.33 131.15 165.71 130.26 165.39 129.48 C 165.07 128.70 164.18 128.32 163.40 128.64 L 162.47 129.02 C 161.69 129.34 161.31 130.23 161.63 131.01 C 161.95 131.79 162.84 132.16 163.62 131.85 Z M 164.55 131.47 L 165.49 131.09 C 166.27 130.77 166.64 129.88 166.33 129.10 C 166.01 128.32 165.12 127.95 164.34 128.26 L 163.40 128.64 C 162.62 128.96 162.25 129.85 162.56 130.63 C 162.88 131.41 163.77 131.78 164.55 131.47 Z M 165.49 131.08 L 166.41 130.71 C 167.19 130.39 167.57 129.50 167.25 128.72 C 166.93 127.95 166.04 127.57 165.27 127.89 L 164.34 128.27 C 163.56 128.58 163.19 129.47 163.50 130.25 C 163.82 131.03 164.71 131.40 165.49 131.08 Z M 166.42 130.70 L 167.36 130.31 C 168.13 130.00 168.50 129.11 168.19 128.33 C 167.87 127.56 166.98 127.19 166.20 127.51 L 165.26 127.89 C 164.49 128.21 164.12 129.10 164.44 129.88 C 164.75 130.65 165.64 131.02 166.42 130.70 Z M 167.36 130.31 L 168.30 129.92 C 169.08 129.60 169.44 128.71 169.12 127.94 C 168.80 127.17 167.91 126.80 167.14 127.12 L 166.20 127.51 C 165.43 127.83 165.06 128.72 165.38 129.49 C 165.70 130.26 166.59 130.63 167.36 130.31 Z M 168.30 129.91 L 169.22 129.53 C 169.99 129.21 170.35 128.33 170.03 127.56 C 169.71 126.79 168.83 126.42 168.06 126.74 L 167.14 127.13 C 166.37 127.45 166.01 128.33 166.33 129.10 C 166.65 129.87 167.53 130.23 168.30 129.91 Z M 169.22 129.53 L 170.11 129.16 C 170.88 128.84 171.25 127.96 170.93 127.19 C 170.61 126.42 169.73 126.06 168.96 126.37 L 168.06 126.75 C 167.29 127.07 166.93 127.95 167.25 128.72 C 167.57 129.48 168.45 129.85 169.22 129.53 Z M 170.11 129.15 L 171.04 128.77 C 171.81 128.46 172.18 127.58 171.86 126.81 C 171.55 126.04 170.67 125.68 169.90 125.99 L 168.97 126.38 C 168.20 126.69 167.83 127.57 168.15 128.33 C 168.46 129.10 169.34 129.47 170.11 129.15 Z M 171.03 128.77 L 171.97 128.39 C 172.74 128.08 173.11 127.21 172.80 126.44 C 172.49 125.68 171.61 125.30 170.85 125.62 L 169.91 125.99 C 169.14 126.30 168.77 127.18 169.08 127.94 C 169.39 128.71 170.27 129.08 171.03 128.77 Z M 171.96 128.39 L 172.88 128.02 C 173.65 127.71 174.02 126.85 173.71 126.08 C 173.41 125.31 172.54 124.94 171.77 125.25 L 170.85 125.62 C 170.09 125.92 169.72 126.79 170.02 127.56 C 170.33 128.32 171.20 128.70 171.96 128.39 Z M 172.88 128.02 L 173.79 127.65 C 174.56 127.35 174.93 126.49 174.63 125.72 C 174.33 124.96 173.46 124.58 172.70 124.89 L 171.78 125.25 C 171.02 125.55 170.64 126.42 170.95 127.18 C 171.25 127.95 172.11 128.32 172.88 128.02 Z M 173.79 127.65 L 174.74 127.28 C 175.50 126.98 175.87 126.11 175.57 125.35 C 175.27 124.59 174.41 124.22 173.64 124.52 L 172.70 124.89 C 171.94 125.19 171.56 126.06 171.87 126.82 C 172.17 127.58 173.03 127.95 173.79 127.65 Z M 174.74 127.27 L 175.66 126.90 C 176.42 126.60 176.79 125.73 176.49 124.98 C 176.18 124.22 175.32 123.85 174.56 124.15 L 173.64 124.52 C 172.88 124.83 172.51 125.69 172.82 126.45 C 173.12 127.21 173.98 127.57 174.74 127.27 Z M 175.68 126.89 L 176.58 126.51 C 177.34 126.20 177.70 125.34 177.39 124.59 C 177.08 123.84 176.21 123.48 175.46 123.79 L 174.55 124.16 C 173.80 124.47 173.44 125.34 173.75 126.09 C 174.06 126.84 174.92 127.20 175.68 126.89 Z M 176.60 126.50 L 177.44 126.14 C 178.18 125.82 178.53 124.96 178.21 124.21 C 177.89 123.47 177.03 123.12 176.28 123.44 L 175.44 123.80 C 174.70 124.12 174.35 124.99 174.67 125.73 C 174.99 126.48 175.86 126.82 176.60 126.50 Z M 177.45 126.13 L 178.32 125.75 C 179.06 125.42 179.39 124.56 179.06 123.82 C 178.74 123.08 177.87 122.74 177.13 123.07 L 176.27 123.45 C 175.53 123.78 175.19 124.65 175.52 125.39 C 175.85 126.13 176.71 126.46 177.45 126.13 Z M 178.32 125.74 L 179.27 125.32 C 180.01 124.99 180.33 124.12 180.00 123.39 C 179.67 122.65 178.81 122.32 178.07 122.65 L 177.13 123.08 C 176.39 123.41 176.06 124.27 176.39 125.01 C 176.72 125.75 177.59 126.07 178.32 125.74 Z M 179.27 125.31 L 180.25 124.87 C 180.98 124.54 181.31 123.68 180.98 122.95 C 180.65 122.21 179.79 121.89 179.05 122.22 L 178.07 122.66 C 177.34 122.99 177.01 123.85 177.34 124.58 C 177.67 125.32 178.54 125.65 179.27 125.31 Z M 180.25 124.87 L 181.13 124.47 C 181.86 124.14 182.18 123.28 181.85 122.55 C 181.52 121.82 180.66 121.49 179.93 121.82 L 179.05 122.22 C 178.32 122.55 178.00 123.41 178.33 124.14 C 178.66 124.88 179.52 125.20 180.25 124.87 Z M 181.14 124.47 L 182.06 124.04 C 182.78 123.70 183.10 122.84 182.76 122.11 C 182.43 121.39 181.56 121.07 180.84 121.41 L 179.92 121.83 C 179.19 122.17 178.87 123.03 179.21 123.76 C 179.55 124.49 180.41 124.80 181.14 124.47 Z M 182.07 124.03 L 183.01 123.58 C 183.73 123.23 184.03 122.37 183.68 121.65 C 183.34 120.93 182.47 120.62 181.75 120.97 L 180.82 121.42 C 180.10 121.76 179.79 122.63 180.14 123.35 C 180.49 124.07 181.35 124.38 182.07 124.03 Z M 183.04 123.56 L 183.95 123.10 C 184.66 122.73 184.94 121.86 184.58 121.15 C 184.22 120.44 183.34 120.16 182.63 120.52 L 181.72 120.99 C 181.01 121.35 180.73 122.22 181.09 122.93 C 181.45 123.64 182.32 123.92 183.04 123.56 Z M 183.99 123.07 L 184.90 122.57 C 185.59 122.18 185.85 121.30 185.46 120.61 C 185.07 119.91 184.19 119.66 183.50 120.04 L 182.59 120.55 C 181.89 120.93 181.64 121.81 182.03 122.51 C 182.42 123.21 183.29 123.46 183.99 123.07 Z M 184.95 122.53 L 185.84 121.99 C 186.52 121.58 186.73 120.69 186.32 120.01 C 185.90 119.33 185.02 119.12 184.34 119.53 L 183.45 120.08 C 182.77 120.49 182.55 121.38 182.97 122.06 C 183.38 122.73 184.27 122.95 184.95 122.53 Z M 185.88 121.96 L 186.71 121.41 C 187.37 120.97 187.55 120.08 187.12 119.42 C 186.68 118.76 185.79 118.58 185.13 119.02 L 184.30 119.56 C 183.64 120.00 183.45 120.89 183.89 121.55 C 184.33 122.22 185.22 122.40 185.88 121.96 Z M 186.74 121.39 L 187.53 120.84 C 188.18 120.38 188.33 119.49 187.88 118.84 C 187.43 118.19 186.54 118.03 185.89 118.49 L 185.10 119.04 C 184.45 119.49 184.29 120.39 184.74 121.03 C 185.20 121.68 186.09 121.84 186.74 121.39 Z M 187.54 120.82 L 188.20 120.35 C 188.84 119.89 188.99 119.00 188.53 118.36 C 188.07 117.71 187.18 117.57 186.53 118.03 L 185.87 118.50 C 185.23 118.96 185.09 119.85 185.55 120.49 C 186.01 121.14 186.90 121.28 187.54 120.82 Z"
      fill="black"
      fill-rule="nonzero" /><path d="M 154.25 120.69 L 153.23 120.09 C 152.53 119.68 151.62 119.91 151.20 120.62 C 150.79 121.32 151.03 122.23 151.73 122.65 L 152.75 123.24 C 153.46 123.66 154.36 123.42 154.78 122.72 C 155.19 122.01 154.96 121.10 154.25 120.69 Z M 153.00 119.94 L 152.10 119.61 C 151.31 119.33 150.44 119.73 150.15 120.52 C 149.87 121.31 150.27 122.18 151.06 122.47 L 151.96 122.80 C 152.75 123.08 153.62 122.68 153.91 121.89 C 154.20 121.10 153.79 120.23 153.00 119.94 Z M 151.15 119.55 L 150.51 119.73 C 149.68 119.97 149.21 120.83 149.44 121.65 C 149.68 122.48 150.54 122.95 151.36 122.72 L 152.01 122.53 C 152.83 122.30 153.31 121.44 153.07 120.61 C 152.84 119.79 151.98 119.31 151.15 119.55 Z M 149.55 120.48 L 149.18 121.17 C 148.77 121.93 149.06 122.88 149.83 123.29 C 150.60 123.70 151.55 123.41 151.96 122.65 L 152.32 121.97 C 152.73 121.20 152.44 120.25 151.68 119.84 C 150.91 119.43 149.96 119.72 149.55 120.48 Z M 149.02 121.61 L 148.81 122.67 C 148.64 123.53 149.21 124.36 150.07 124.53 C 150.93 124.69 151.76 124.13 151.92 123.27 L 152.13 122.21 C 152.29 121.35 151.73 120.52 150.87 120.35 C 150.01 120.19 149.18 120.75 149.02 121.61 Z M 148.78 122.84 L 148.68 124.06 C 148.61 124.94 149.26 125.71 150.14 125.78 C 151.02 125.85 151.79 125.19 151.86 124.32 L 151.96 123.10 C 152.03 122.22 151.37 121.45 150.49 121.38 C 149.62 121.31 148.85 121.96 148.78 122.84 Z M 148.67 124.12 L 148.63 125.11 C 148.59 126.00 149.28 126.74 150.16 126.78 C 151.04 126.82 151.79 126.13 151.83 125.25 L 151.87 124.25 C 151.90 123.37 151.22 122.62 150.33 122.59 C 149.45 122.55 148.70 123.24 148.67 124.12 Z M 148.62 125.14 L 148.60 126.17 C 148.58 127.06 149.28 127.79 150.17 127.81 C 151.05 127.83 151.79 127.13 151.81 126.24 L 151.83 125.21 C 151.85 124.33 151.15 123.60 150.26 123.58 C 149.38 123.56 148.64 124.26 148.62 125.14 Z M 148.60 126.19 L 148.59 127.21 C 148.58 128.10 149.29 128.83 150.18 128.83 C 151.07 128.84 151.79 128.13 151.80 127.24 L 151.81 126.22 C 151.82 125.33 151.11 124.61 150.22 124.60 C 149.33 124.59 148.61 125.30 148.60 126.19 Z M 148.59 127.23 L 148.58 128.21 C 148.58 129.10 149.30 129.82 150.19 129.82 C 151.08 129.82 151.80 129.10 151.80 128.21 L 151.80 127.23 C 151.81 126.34 151.09 125.62 150.20 125.62 C 149.31 125.62 148.59 126.34 148.59 127.23 Z M 148.58 128.21 L 148.58 129.26 C 148.58 130.15 149.30 130.88 150.19 130.88 C 151.08 130.88 151.80 130.15 151.80 129.26 L 151.80 128.21 C 151.80 127.32 151.08 126.60 150.19 126.60 C 149.30 126.60 148.58 127.32 148.58 128.21 Z M 148.58 129.26 L 148.58 130.27 C 148.58 131.16 149.30 131.89 150.19 131.89 C 151.08 131.89 151.81 131.16 151.81 130.27 L 151.81 129.26 C 151.81 128.37 151.08 127.65 150.19 127.65 C 149.30 127.65 148.58 128.37 148.58 129.26 Z M 148.58 130.27 L 148.58 131.23 C 148.58 132.13 149.30 132.85 150.19 132.85 C 151.08 132.85 151.81 132.13 151.81 131.23 L 151.81 130.27 C 151.81 129.38 151.08 128.66 150.19 128.66 C 149.30 128.66 148.58 129.38 148.58 130.27 Z M 148.58 131.23 L 148.58 132.19 C 148.58 133.08 149.30 133.81 150.19 133.81 C 151.09 133.81 151.81 133.08 151.81 132.19 L 151.81 131.23 C 151.81 130.34 151.09 129.62 150.19 129.62 C 149.30 129.62 148.58 130.34 148.58 131.23 Z M 148.58 132.19 L 148.58 133.15 C 148.58 134.04 149.30 134.77 150.19 134.77 C 151.09 134.77 151.81 134.04 151.81 133.15 L 151.81 132.19 C 151.81 131.30 151.09 130.57 150.19 130.57 C 149.30 130.57 148.58 131.30 148.58 132.19 Z M 148.58 133.15 L 148.58 134.14 C 148.58 135.03 149.30 135.76 150.19 135.76 C 151.09 135.76 151.81 135.03 151.81 134.14 L 151.81 133.15 C 151.81 132.26 151.09 131.53 150.19 131.53 C 149.30 131.53 148.58 132.26 148.58 133.15 Z M 148.58 134.14 L 148.58 135.16 C 148.58 136.05 149.30 136.78 150.19 136.78 C 151.09 136.78 151.81 136.05 151.81 135.16 L 151.81 134.14 C 151.81 133.25 151.09 132.52 150.19 132.52 C 149.30 132.52 148.58 133.25 148.58 134.14 Z M 148.58 135.16 L 148.58 136.18 C 148.58 137.07 149.30 137.79 150.19 137.79 C 151.09 137.79 151.81 137.07 151.81 136.18 L 151.81 135.16 C 151.81 134.27 151.09 133.55 150.19 133.55 C 149.30 133.55 148.58 134.27 148.58 135.16 Z M 148.58 136.18 L 148.58 137.13 C 148.58 138.02 149.30 138.75 150.19 138.75 C 151.08 138.75 151.81 138.02 151.81 137.13 L 151.81 136.18 C 151.81 135.29 151.08 134.56 150.19 134.56 C 149.30 134.56 148.58 135.29 148.58 136.18 Z M 148.58 137.13 L 148.58 138.11 C 148.58 139.00 149.30 139.72 150.19 139.72 C 151.08 139.72 151.80 139.00 151.80 138.11 L 151.80 137.13 C 151.80 136.24 151.08 135.52 150.19 135.52 C 149.30 135.52 148.58 136.24 148.58 137.13 Z M 148.58 138.11 L 148.58 139.13 C 148.58 140.02 149.30 140.74 150.19 140.74 C 151.08 140.74 151.80 140.02 151.80 139.13 L 151.80 138.11 C 151.80 137.22 151.08 136.50 150.19 136.50 C 149.30 136.50 148.58 137.22 148.58 138.11 Z M 148.59 139.13 L 148.59 140.19 C 148.59 141.08 149.31 141.80 150.19 141.80 C 151.08 141.80 151.80 141.08 151.80 140.19 L 151.80 139.13 C 151.80 138.24 151.08 137.52 150.19 137.52 C 149.31 137.52 148.59 138.24 148.59 139.13 Z M 148.59 140.19 L 148.59 141.15 C 148.59 142.04 149.31 142.76 150.19 142.76 C 151.08 142.75 151.80 142.04 151.80 141.15 L 151.80 140.19 C 151.80 139.30 151.08 138.59 150.19 138.59 C 149.31 138.59 148.59 139.31 148.59 140.19 Z M 148.59 141.15 L 148.59 142.13 C 148.59 143.02 149.31 143.74 150.20 143.74 C 151.09 143.73 151.80 143.01 151.80 142.13 L 151.80 141.15 C 151.80 140.26 151.08 139.54 150.19 139.54 C 149.30 139.54 148.58 140.27 148.59 141.15 Z M 148.59 142.14 L 148.59 143.14 C 148.60 144.03 149.32 144.75 150.21 144.74 C 151.10 144.74 151.81 144.01 151.81 143.12 L 151.80 142.12 C 151.80 141.23 151.07 140.52 150.19 140.52 C 149.30 140.53 148.58 141.25 148.59 142.14 Z M 148.59 143.15 L 148.61 144.18 C 148.62 145.07 149.35 145.78 150.23 145.77 C 151.12 145.75 151.83 145.03 151.82 144.14 L 151.81 143.12 C 151.80 142.23 151.07 141.52 150.18 141.53 C 149.29 141.54 148.58 142.27 148.59 143.15 Z M 148.61 144.19 L 148.63 145.23 C 148.64 146.11 149.38 146.82 150.27 146.80 C 151.16 146.78 151.86 146.05 151.84 145.16 L 151.82 144.13 C 151.80 143.24 151.07 142.53 150.18 142.55 C 149.29 142.57 148.59 143.30 148.61 144.19 Z M 148.63 145.24 L 148.65 146.22 C 148.68 147.11 149.42 147.81 150.31 147.78 C 151.20 147.76 151.90 147.02 151.87 146.13 L 151.84 145.15 C 151.82 144.26 151.08 143.56 150.19 143.58 C 149.30 143.61 148.60 144.35 148.63 145.24 Z M 148.65 146.23 L 148.69 147.22 C 148.72 148.11 149.47 148.80 150.36 148.77 C 151.25 148.74 151.95 147.99 151.91 147.10 L 151.88 146.11 C 151.84 145.22 151.09 144.53 150.20 144.56 C 149.31 144.60 148.62 145.34 148.65 146.23 Z M 148.69 147.23 L 148.73 148.22 C 148.77 149.11 149.53 149.80 150.42 149.76 C 151.31 149.73 152.00 148.97 151.96 148.08 L 151.91 147.09 C 151.87 146.19 151.12 145.50 150.23 145.54 C 149.34 145.58 148.65 146.34 148.69 147.23 Z M 148.73 148.23 L 148.78 149.24 C 148.82 150.13 149.59 150.82 150.48 150.77 C 151.37 150.73 152.06 149.97 152.01 149.07 L 151.96 148.07 C 151.92 147.18 151.16 146.49 150.26 146.53 C 149.37 146.58 148.68 147.34 148.73 148.23 Z M 148.78 149.25 L 148.83 150.27 C 148.88 151.16 149.65 151.84 150.54 151.79 C 151.44 151.74 152.12 150.98 152.07 150.09 L 152.01 149.07 C 151.96 148.17 151.20 147.49 150.31 147.54 C 149.41 147.59 148.73 148.35 148.78 149.25 Z M 148.83 150.27 L 148.89 151.26 C 148.94 152.16 149.71 152.84 150.61 152.79 C 151.50 152.74 152.19 151.97 152.13 151.07 L 152.07 150.08 C 152.02 149.18 151.25 148.50 150.36 148.56 C 149.46 148.61 148.78 149.38 148.83 150.27 Z M 148.89 151.27 L 148.95 152.24 C 149.01 153.14 149.78 153.82 150.67 153.76 C 151.57 153.71 152.25 152.94 152.19 152.04 L 152.13 151.07 C 152.08 150.17 151.31 149.49 150.41 149.55 C 149.52 149.60 148.83 150.37 148.89 151.27 Z M 148.95 152.24 L 149.01 153.23 C 149.07 154.13 149.84 154.81 150.74 154.75 C 151.63 154.70 152.32 153.92 152.26 153.03 L 152.20 152.04 C 152.14 151.14 151.37 150.46 150.47 150.52 C 149.57 150.57 148.89 151.35 148.95 152.24 Z M 149.01 153.23 L 149.07 154.23 C 149.13 155.13 149.90 155.81 150.80 155.76 C 151.70 155.70 152.38 154.93 152.32 154.03 L 152.26 153.03 C 152.20 152.13 151.43 151.44 150.53 151.50 C 149.63 151.56 148.95 152.33 149.01 153.23 Z M 149.07 154.23 L 149.13 155.24 C 149.18 156.14 149.96 156.83 150.86 156.77 C 151.76 156.72 152.44 155.94 152.39 155.04 L 152.33 154.03 C 152.27 153.13 151.50 152.45 150.60 152.50 C 149.70 152.55 149.01 153.33 149.07 154.23 Z M 149.13 155.24 L 149.19 156.27 C 149.24 157.17 150.01 157.85 150.91 157.80 C 151.81 157.75 152.50 156.98 152.45 156.08 L 152.39 155.05 C 152.34 154.15 151.57 153.46 150.66 153.51 C 149.76 153.56 149.07 154.34 149.13 155.24 Z M 149.18 156.26 L 149.24 157.25 C 149.29 158.15 150.06 158.85 150.96 158.80 C 151.86 158.75 152.55 157.98 152.51 157.07 L 152.45 156.08 C 152.40 155.18 151.63 154.49 150.73 154.54 C 149.83 154.59 149.14 155.36 149.18 156.26 Z M 149.24 157.24 L 149.29 158.23 C 149.33 159.13 150.10 159.83 151.00 159.78 C 151.91 159.74 152.60 158.97 152.56 158.07 L 152.51 157.08 C 152.46 156.18 151.69 155.48 150.79 155.53 C 149.89 155.57 149.19 156.34 149.24 157.24 Z M 149.28 158.23 L 149.33 159.22 C 149.37 160.12 150.14 160.82 151.05 160.78 C 151.95 160.74 152.65 159.97 152.61 159.07 L 152.56 158.07 C 152.51 157.17 151.75 156.47 150.84 156.51 C 149.94 156.55 149.24 157.32 149.28 158.23 Z M 149.33 159.22 L 149.38 160.22 C 149.42 161.12 150.18 161.82 151.09 161.78 C 151.99 161.74 152.69 160.98 152.65 160.07 L 152.61 159.07 C 152.57 158.16 151.80 157.46 150.89 157.50 C 149.99 157.55 149.29 158.31 149.33 159.22 Z M 149.37 160.22 L 149.42 161.22 C 149.46 162.13 150.22 162.83 151.13 162.79 C 152.03 162.75 152.74 161.99 152.70 161.08 L 152.65 160.07 C 152.61 159.17 151.85 158.47 150.94 158.51 C 150.04 158.54 149.33 159.31 149.37 160.22 Z M 149.42 161.22 L 149.46 162.24 C 149.50 163.14 150.26 163.85 151.17 163.81 C 152.08 163.77 152.78 163.00 152.74 162.10 L 152.70 161.08 C 152.66 160.18 151.89 159.47 150.99 159.51 C 150.08 159.55 149.38 160.32 149.42 161.22 Z M 149.46 162.23 L 149.50 163.24 C 149.54 164.15 150.30 164.86 151.21 164.82 C 152.12 164.78 152.82 164.01 152.78 163.11 L 152.74 162.10 C 152.70 161.19 151.94 160.49 151.03 160.52 C 150.12 160.56 149.42 161.33 149.46 162.23 Z M 149.50 163.24 L 149.54 164.25 C 149.58 165.16 150.35 165.86 151.25 165.82 C 152.16 165.79 152.87 165.02 152.83 164.11 L 152.79 163.11 C 152.75 162.20 151.98 161.49 151.07 161.53 C 150.17 161.57 149.46 162.34 149.50 163.24 Z M 149.54 164.25 L 149.58 165.25 C 149.62 166.16 150.38 166.87 151.29 166.83 C 152.20 166.79 152.91 166.03 152.87 165.12 L 152.83 164.11 C 152.79 163.20 152.03 162.50 151.12 162.54 C 150.21 162.57 149.50 163.34 149.54 164.25 Z M 149.58 165.25 L 149.62 166.25 C 149.66 167.16 150.42 167.87 151.33 167.83 C 152.24 167.80 152.95 167.03 152.91 166.12 L 152.87 165.12 C 152.84 164.21 152.07 163.50 151.16 163.54 C 150.25 163.57 149.54 164.34 149.58 165.25 Z M 149.62 166.25 L 149.66 167.25 C 149.69 168.16 150.46 168.87 151.37 168.83 C 152.28 168.80 152.98 168.03 152.95 167.12 L 152.91 166.13 C 152.88 165.22 152.11 164.51 151.20 164.54 C 150.29 164.57 149.58 165.34 149.62 166.25 Z M 149.65 167.24 L 149.69 168.24 C 149.72 169.15 150.49 169.86 151.40 169.83 C 152.31 169.79 153.02 169.03 152.99 168.12 L 152.95 167.13 C 152.92 166.22 152.16 165.51 151.24 165.54 C 150.33 165.57 149.62 166.33 149.65 167.24 Z M 149.69 168.23 L 149.72 169.23 C 149.75 170.14 150.51 170.85 151.43 170.82 C 152.34 170.79 153.05 170.03 153.02 169.12 L 152.99 168.12 C 152.96 167.21 152.20 166.50 151.28 166.53 C 150.37 166.56 149.66 167.32 149.69 168.23 Z M 149.72 169.22 L 149.75 170.23 C 149.78 171.14 150.54 171.86 151.45 171.83 C 152.36 171.80 153.08 171.04 153.05 170.13 L 153.02 169.12 C 153.00 168.21 152.23 167.49 151.32 167.52 C 150.41 167.55 149.69 168.31 149.72 169.22 Z M 149.75 170.22 L 149.77 171.22 C 149.80 172.13 150.56 172.85 151.47 172.83 C 152.38 172.81 153.10 172.05 153.08 171.13 L 153.05 170.14 C 153.03 169.22 152.27 168.50 151.36 168.53 C 150.44 168.55 149.72 169.31 149.75 170.22 Z M 149.77 171.22 L 149.80 172.21 C 149.82 173.12 150.57 173.85 151.49 173.83 C 152.40 173.81 153.12 173.05 153.10 172.14 L 153.08 171.14 C 153.06 170.23 152.30 169.50 151.39 169.52 C 150.48 169.55 149.75 170.30 149.77 171.22 Z M 149.79 172.21 L 149.81 173.20 C 149.83 174.11 150.59 174.84 151.50 174.82 C 152.41 174.81 153.14 174.05 153.12 173.14 L 153.10 172.14 C 153.09 171.23 152.33 170.50 151.42 170.52 C 150.50 170.54 149.78 171.29 149.79 172.21 Z M 149.81 173.19 L 149.83 174.19 C 149.84 175.11 150.60 175.84 151.51 175.82 C 152.42 175.81 153.15 175.05 153.14 174.14 L 153.12 173.14 C 153.11 172.23 152.36 171.50 151.44 171.51 C 150.53 171.53 149.80 172.28 149.81 173.19 Z M 149.83 174.19 L 149.84 175.19 C 149.85 176.11 150.60 176.84 151.52 176.83 C 152.43 176.82 153.16 176.07 153.15 175.15 L 153.14 174.15 C 153.13 173.23 152.38 172.50 151.46 172.51 C 150.55 172.52 149.82 173.27 149.83 174.19 Z M 149.84 175.19 L 149.85 176.22 C 149.85 177.14 150.60 177.88 151.52 177.87 C 152.43 177.86 153.17 177.11 153.16 176.20 L 153.15 175.16 C 153.15 174.24 152.40 173.51 151.48 173.52 C 150.57 173.52 149.83 174.27 149.84 175.19 Z M 149.85 176.22 L 149.85 177.25 C 149.86 178.17 150.60 178.91 151.52 178.90 C 152.44 178.90 153.17 178.15 153.17 177.23 L 153.16 176.20 C 153.16 175.29 152.41 174.55 151.50 174.55 C 150.58 174.56 149.84 175.30 149.85 176.22 Z M 149.85 177.25 L 149.85 178.27 C 149.86 179.18 150.60 179.92 151.52 179.92 C 152.44 179.92 153.18 179.17 153.17 178.26 L 153.17 177.24 C 153.17 176.32 152.42 175.58 151.51 175.58 C 150.59 175.59 149.85 176.33 149.85 177.25 Z M 149.85 178.26 L 149.85 179.26 C 149.86 180.17 150.60 180.92 151.52 180.92 C 152.44 180.91 153.18 180.17 153.18 179.25 L 153.17 178.26 C 153.17 177.34 152.43 176.60 151.51 176.60 C 150.59 176.60 149.85 177.35 149.85 178.26 Z M 149.85 179.26 L 149.85 180.22 C 149.85 181.13 150.60 181.88 151.52 181.88 C 152.43 181.88 153.18 181.13 153.18 180.21 L 153.18 179.25 C 153.18 178.34 152.43 177.59 151.51 177.59 C 150.60 177.59 149.85 178.34 149.85 179.26 Z M 149.85 180.21 L 149.85 181.21 C 149.85 182.13 150.60 182.88 151.52 182.88 C 152.43 182.88 153.18 182.13 153.18 181.21 L 153.18 180.21 C 153.18 179.30 152.43 178.55 151.52 178.55 C 150.60 178.55 149.85 179.30 149.85 180.21 Z M 149.85 181.21 L 149.85 182.30 C 149.85 183.22 150.60 183.96 151.52 183.96 C 152.43 183.96 153.18 183.22 153.18 182.30 L 153.18 181.21 C 153.18 180.29 152.43 179.55 151.52 179.55 C 150.60 179.55 149.85 180.29 149.85 181.21 Z M 149.85 182.30 L 149.85 183.31 C 149.85 184.23 150.60 184.98 151.52 184.98 C 152.43 184.98 153.18 184.23 153.18 183.31 L 153.18 182.30 C 153.18 181.38 152.43 180.63 151.52 180.63 C 150.60 180.63 149.85 181.38 149.85 182.30 Z M 149.85 183.31 L 149.85 184.28 C 149.85 185.20 150.60 185.94 151.52 185.94 C 152.44 185.94 153.18 185.20 153.18 184.28 L 153.18 183.31 C 153.18 182.40 152.44 181.65 151.52 181.65 C 150.60 181.65 149.85 182.40 149.85 183.31 Z M 149.85 184.28 L 149.85 185.20 C 149.85 186.12 150.60 186.87 151.52 186.87 C 152.44 186.87 153.18 186.12 153.18 185.20 L 153.18 184.28 C 153.18 183.36 152.44 182.61 151.52 182.61 C 150.60 182.61 149.85 183.36 149.85 184.28 Z M 149.85 185.20 L 149.85 186.15 C 149.85 187.07 150.59 187.81 151.52 187.81 C 152.44 187.81 153.18 187.07 153.18 186.15 L 153.18 185.20 C 153.18 184.28 152.44 183.53 151.52 183.53 C 150.59 183.53 149.85 184.28 149.85 185.20 Z M 149.85 186.15 L 149.85 187.11 C 149.85 188.03 150.59 188.77 151.52 188.77 C 152.44 188.77 153.18 188.03 153.18 187.11 L 153.18 186.15 C 153.18 185.22 152.44 184.48 151.52 184.48 C 150.59 184.48 149.85 185.22 149.85 186.15 Z M 149.85 187.11 L 149.85 188.08 C 149.85 189.01 150.59 189.75 151.52 189.75 C 152.44 189.75 153.19 189.01 153.19 188.08 L 153.19 187.11 C 153.19 186.18 152.44 185.44 151.52 185.44 C 150.59 185.44 149.85 186.18 149.85 187.11 Z M 149.84 188.08 L 149.84 189.11 C 149.84 190.04 150.59 190.78 151.52 190.78 C 152.44 190.78 153.19 190.04 153.19 189.11 L 153.19 188.08 C 153.19 187.16 152.44 186.41 151.52 186.41 C 150.59 186.41 149.84 187.16 149.84 188.08 Z M 149.84 189.11 L 149.84 190.13 C 149.84 191.06 150.59 191.81 151.52 191.81 C 152.44 191.81 153.19 191.06 153.19 190.13 L 153.19 189.11 C 153.19 188.19 152.44 187.44 151.52 187.44 C 150.59 187.44 149.84 188.19 149.84 189.11 Z M 149.84 190.13 L 149.84 191.10 C 149.84 192.02 150.59 192.77 151.51 192.77 C 152.44 192.77 153.19 192.03 153.19 191.10 L 153.19 190.14 C 153.19 189.21 152.44 188.46 151.52 188.46 C 150.59 188.46 149.84 189.21 149.84 190.13 Z M 149.84 191.09 L 149.83 192.10 C 149.83 193.02 150.57 193.78 151.50 193.78 C 152.43 193.79 153.18 193.04 153.19 192.11 L 153.19 191.11 C 153.20 190.18 152.45 189.43 151.52 189.42 C 150.60 189.42 149.84 190.16 149.84 191.09 Z M 149.83 192.08 L 149.82 193.11 C 149.81 194.04 150.55 194.80 151.48 194.81 C 152.40 194.82 153.16 194.08 153.18 193.15 L 153.19 192.12 C 153.20 191.20 152.46 190.44 151.53 190.43 C 150.60 190.42 149.84 191.16 149.83 192.08 Z M 149.82 193.09 L 149.80 194.12 C 149.78 195.05 150.51 195.82 151.44 195.84 C 152.37 195.86 153.14 195.12 153.16 194.19 L 153.18 193.16 C 153.20 192.24 152.46 191.47 151.53 191.45 C 150.60 191.43 149.84 192.17 149.82 193.09 Z M 149.79 194.10 L 149.76 195.15 C 149.73 196.08 150.45 196.86 151.38 196.89 C 152.31 196.92 153.09 196.19 153.12 195.26 L 153.16 194.21 C 153.19 193.28 152.46 192.51 151.53 192.47 C 150.60 192.44 149.83 193.17 149.79 194.10 Z M 149.76 195.11 L 149.69 196.27 C 149.63 197.20 150.34 198.00 151.27 198.05 C 152.20 198.11 153.00 197.40 153.05 196.47 L 153.12 195.31 C 153.18 194.38 152.47 193.58 151.54 193.52 C 150.61 193.47 149.81 194.18 149.76 195.11 Z M 149.69 196.17 L 149.57 197.23 C 149.45 198.15 150.11 199.00 151.04 199.11 C 151.96 199.22 152.81 198.56 152.92 197.64 L 153.05 196.57 C 153.16 195.65 152.50 194.81 151.57 194.69 C 150.65 194.58 149.81 195.24 149.69 196.17 Z M 149.60 197.04 L 149.38 197.95 C 149.16 198.86 149.72 199.77 150.63 199.99 C 151.54 200.21 152.45 199.65 152.67 198.74 L 152.89 197.83 C 153.10 196.92 152.54 196.00 151.64 195.79 C 150.73 195.57 149.81 196.13 149.60 197.04 Z M 149.49 197.62 L 149.15 198.34 C 148.75 199.19 149.11 200.20 149.96 200.60 C 150.81 201.00 151.82 200.64 152.21 199.79 L 152.56 199.07 C 152.95 198.22 152.59 197.21 151.75 196.81 C 150.90 196.41 149.89 196.78 149.49 197.62 Z M 149.55 197.81 L 148.87 198.42 C 148.17 199.05 148.11 200.12 148.74 200.81 C 149.37 201.51 150.44 201.57 151.14 200.94 L 151.82 200.33 C 152.51 199.70 152.57 198.63 151.94 197.93 C 151.32 197.24 150.24 197.18 149.55 197.81 Z M 149.54 198.05 L 148.62 198.31 C 147.72 198.57 147.19 199.50 147.45 200.41 C 147.71 201.31 148.65 201.83 149.55 201.57 L 150.47 201.31 C 151.37 201.06 151.89 200.12 151.63 199.22 C 151.38 198.31 150.44 197.79 149.54 198.05 Z M 149.12 198.24 L 148.07 198.22 C 147.13 198.20 146.36 198.95 146.34 199.89 C 146.32 200.82 147.07 201.60 148.00 201.62 L 149.05 201.64 C 149.99 201.66 150.76 200.91 150.78 199.98 C 150.80 199.04 150.05 198.26 149.12 198.24 Z M 148.35 198.25 L 147.39 198.07 C 146.47 197.90 145.58 198.51 145.41 199.43 C 145.24 200.35 145.84 201.24 146.76 201.41 L 147.73 201.59 C 148.65 201.76 149.53 201.15 149.70 200.23 C 149.88 199.31 149.27 198.43 148.35 198.25 Z M 147.55 198.12 L 146.62 197.84 C 145.72 197.58 144.78 198.09 144.52 198.99 C 144.25 199.88 144.76 200.82 145.66 201.08 L 146.60 201.36 C 147.49 201.63 148.43 201.11 148.69 200.22 C 148.96 199.33 148.45 198.39 147.55 198.12 Z M 146.73 197.89 L 145.78 197.53 C 144.91 197.21 143.94 197.65 143.61 198.52 C 143.29 199.38 143.73 200.35 144.60 200.68 L 145.55 201.04 C 146.42 201.36 147.39 200.92 147.71 200.06 C 148.04 199.19 147.60 198.22 146.73 197.89 Z M 145.85 197.57 L 144.90 197.16 C 144.05 196.80 143.07 197.19 142.70 198.04 C 142.34 198.89 142.73 199.87 143.58 200.24 L 144.53 200.64 C 145.38 201.01 146.36 200.62 146.72 199.77 C 147.09 198.92 146.70 197.93 145.85 197.57 Z M 144.93 197.19 L 144.15 196.83 C 143.31 196.45 142.33 196.81 141.94 197.65 C 141.56 198.48 141.93 199.47 142.76 199.85 L 143.55 200.21 C 144.38 200.59 145.37 200.23 145.75 199.39 C 146.13 198.56 145.77 197.57 144.93 197.19 Z M 144.17 196.86 L 143.34 196.46 C 142.52 196.06 141.54 196.41 141.14 197.23 C 140.75 198.04 141.09 199.03 141.91 199.42 L 142.74 199.82 C 143.56 200.22 144.54 199.87 144.94 199.05 C 145.33 198.24 144.99 197.25 144.17 196.86 Z M 143.36 196.48 L 142.46 196.03 C 141.65 195.63 140.67 195.95 140.27 196.76 C 139.87 197.57 140.19 198.55 141.00 198.95 L 141.90 199.40 C 142.70 199.80 143.68 199.48 144.09 198.67 C 144.49 197.87 144.16 196.89 143.36 196.48 Z M 142.47 196.05 L 141.48 195.54 C 140.68 195.13 139.71 195.45 139.30 196.24 C 138.89 197.03 139.20 198.01 140.00 198.42 L 140.99 198.93 C 141.78 199.34 142.76 199.03 143.17 198.23 C 143.58 197.44 143.26 196.46 142.47 196.05 Z M 141.48 195.56 L 140.51 195.05 C 139.73 194.64 138.76 194.94 138.35 195.73 C 137.94 196.51 138.24 197.48 139.02 197.89 L 139.99 198.40 C 140.78 198.81 141.74 198.51 142.16 197.72 C 142.57 196.94 142.27 195.97 141.48 195.56 Z M 140.52 195.07 L 139.63 194.59 C 138.85 194.18 137.89 194.48 137.47 195.25 C 137.06 196.03 137.36 196.99 138.13 197.41 L 139.02 197.88 C 139.80 198.29 140.76 197.99 141.18 197.22 C 141.59 196.44 141.29 195.48 140.52 195.07 Z M 139.63 194.61 L 138.70 194.11 C 137.93 193.70 136.98 193.99 136.56 194.76 C 136.15 195.53 136.44 196.49 137.21 196.90 L 138.13 197.39 C 138.90 197.81 139.86 197.52 140.27 196.75 C 140.69 195.98 140.40 195.02 139.63 194.61 Z M 138.70 194.12 L 137.78 193.62 C 137.01 193.21 136.06 193.50 135.65 194.26 C 135.24 195.02 135.52 195.98 136.29 196.39 L 137.21 196.89 C 137.98 197.30 138.93 197.02 139.34 196.25 C 139.75 195.49 139.47 194.54 138.70 194.12 Z M 137.78 193.63 L 136.88 193.14 C 136.12 192.73 135.17 193.01 134.76 193.77 C 134.35 194.53 134.63 195.47 135.38 195.89 L 136.29 196.38 C 137.04 196.79 137.99 196.51 138.40 195.75 C 138.82 194.99 138.54 194.05 137.78 193.63 Z M 136.88 193.16 L 136.03 192.69 C 135.28 192.28 134.33 192.55 133.92 193.30 C 133.51 194.05 133.78 195.00 134.54 195.41 L 135.38 195.88 C 136.13 196.29 137.08 196.01 137.49 195.26 C 137.90 194.51 137.63 193.57 136.88 193.16 Z M 136.03 192.70 L 135.15 192.21 C 134.40 191.80 133.47 192.07 133.05 192.81 C 132.64 193.55 132.91 194.49 133.65 194.90 L 134.53 195.39 C 135.28 195.81 136.21 195.54 136.63 194.80 C 137.04 194.05 136.77 193.12 136.03 192.70 Z M 135.15 192.24 L 134.13 191.66 C 133.40 191.25 132.48 191.50 132.06 192.23 C 131.65 192.96 131.90 193.89 132.63 194.30 L 133.65 194.88 C 134.38 195.29 135.31 195.04 135.72 194.31 C 136.13 193.58 135.88 192.65 135.15 192.24 Z M 134.13 191.69 L 133.29 191.20 C 132.58 190.78 131.66 191.03 131.25 191.74 C 130.83 192.45 131.07 193.37 131.79 193.78 L 132.63 194.27 C 133.35 194.69 134.26 194.45 134.67 193.73 C 135.09 193.02 134.85 192.10 134.13 191.69 Z M 133.29 191.23 L 132.54 190.79 C 131.84 190.37 130.94 190.60 130.53 191.30 C 130.12 192.00 130.35 192.90 131.05 193.32 L 131.79 193.76 C 132.49 194.17 133.39 193.94 133.80 193.24 C 134.22 192.54 133.98 191.64 133.29 191.23 Z M 132.53 190.81 L 131.78 190.36 C 131.09 189.95 130.20 190.17 129.80 190.86 C 129.39 191.55 129.61 192.44 130.30 192.85 L 131.05 193.30 C 131.74 193.70 132.63 193.48 133.04 192.79 C 133.45 192.10 133.22 191.22 132.53 190.81 Z M 131.78 190.37 L 130.95 189.87 C 130.27 189.47 129.38 189.69 128.98 190.37 C 128.57 191.05 128.79 191.94 129.48 192.34 L 130.30 192.84 C 130.99 193.24 131.87 193.02 132.27 192.34 C 132.68 191.66 132.46 190.77 131.78 190.37 Z M 130.95 189.88 L 130.09 189.36 C 129.42 188.96 128.54 189.17 128.13 189.85 C 127.72 190.53 127.94 191.41 128.61 191.82 L 129.47 192.34 C 130.15 192.74 131.03 192.53 131.44 191.85 C 131.85 191.17 131.63 190.29 130.95 189.88 Z M 130.10 189.37 L 129.21 188.82 C 128.53 188.41 127.65 188.62 127.24 189.29 C 126.83 189.96 127.04 190.84 127.71 191.26 L 128.60 191.81 C 129.28 192.22 130.16 192.01 130.57 191.34 C 130.98 190.67 130.77 189.79 130.10 189.37 Z M 129.22 188.83 L 128.40 188.32 C 127.74 187.90 126.86 188.10 126.43 188.76 C 126.01 189.43 126.21 190.31 126.88 190.73 L 127.70 191.25 C 128.36 191.67 129.24 191.47 129.66 190.80 C 130.08 190.13 129.88 189.25 129.22 188.83 Z M 128.41 188.32 L 127.58 187.79 C 126.91 187.36 126.03 187.55 125.61 188.22 C 125.18 188.88 125.37 189.76 126.03 190.19 L 126.87 190.72 C 127.53 191.15 128.41 190.96 128.84 190.29 C 129.27 189.63 129.07 188.75 128.41 188.32 Z M 127.58 187.79 L 126.73 187.24 C 126.07 186.81 125.19 187.00 124.76 187.66 C 124.33 188.32 124.52 189.20 125.18 189.63 L 126.03 190.18 C 126.69 190.61 127.57 190.42 128.00 189.76 C 128.43 189.10 128.24 188.22 127.58 187.79 Z M 126.73 187.24 L 125.87 186.68 C 125.21 186.25 124.33 186.43 123.90 187.09 C 123.47 187.75 123.65 188.63 124.31 189.06 L 125.17 189.63 C 125.83 190.06 126.72 189.87 127.15 189.21 C 127.58 188.55 127.39 187.67 126.73 187.24 Z"
      fill="black"
      fill-rule="nonzero" /></svg>