<svg xmlns="http://www.w3.org/2000/svg" width="300" height="300" viewBox="0 0 300 300">
<path d="M 144.16 102.39 L 143.77 103.22 C 143.40 103.99 143.73 104.92 144.51 105.28 C 145.28 105.65 146.20 105.32 146.57 104.54 L 146.96 103.71 C 147.33 102.94 147.00 102.01 146.22 101.65 C 145.45 101.28 144.53 101.61 144.16 102.39 Z M 143.71 103.22 L 143.31 104.11 C 142.95 104.91 143.31 105.86 144.12 106.22 C 144.92 106.59 145.87 106.23 146.23 105.42 L 146.63 104.54 C 146.99 103.73 146.63 102.78 145.83 102.42 C 145.02 102.06 144.07 102.42 143.71 103.22 Z M 143.24 104.13 L 142.84 105.11 C 142.49 105.95 142.89 106.92 143.74 107.27 C 144.58 107.62 145.55 107.22 145.90 106.37 L 146.30 105.39 C 146.65 104.55 146.25 103.58 145.40 103.23 C 144.56 102.89 143.59 103.29 143.24 104.13 Z M 142.78 105.15 L 142.43 106.11 C 142.10 106.99 142.55 107.96 143.42 108.29 C 144.30 108.61 145.27 108.17 145.59 107.29 L 145.95 106.33 C 146.28 105.46 145.83 104.48 144.96 104.16 C 144.08 103.83 143.11 104.28 142.78 105.15 Z M 142.40 106.15 L 142.07 107.10 C 141.77 107.99 142.24 108.96 143.12 109.27 C 144.01 109.57 144.98 109.10 145.29 108.21 L 145.62 107.26 C 145.93 106.37 145.46 105.40 144.57 105.09 C 143.68 104.79 142.71 105.26 142.40 106.15 Z M 142.06 107.12 L 141.74 108.10 C 141.44 108.99 141.92 109.96 142.82 110.25 C 143.71 110.55 144.68 110.07 144.97 109.17 L 145.30 108.19 C 145.60 107.30 145.11 106.34 144.22 106.04 C 143.33 105.74 142.36 106.23 142.06 107.12 Z M 141.73 108.10 L 141.42 109.07 C 141.12 109.96 141.61 110.92 142.51 111.22 C 143.40 111.51 144.37 111.02 144.66 110.13 L 144.98 109.17 C 145.27 108.27 144.78 107.31 143.89 107.01 C 142.99 106.72 142.03 107.21 141.73 108.10 Z M 141.42 109.06 L 141.10 110.02 C 140.80 110.91 141.29 111.88 142.18 112.18 C 143.08 112.48 144.04 111.99 144.34 111.10 L 144.66 110.14 C 144.96 109.24 144.47 108.27 143.58 107.98 C 142.68 107.68 141.72 108.16 141.42 109.06 Z M 141.11 110.00 L 140.77 110.97 C 140.46 111.86 140.93 112.83 141.83 113.14 C 142.72 113.45 143.69 112.98 144.00 112.09 L 144.34 111.12 C 144.64 110.22 144.17 109.25 143.28 108.94 C 142.39 108.63 141.41 109.11 141.11 110.00 Z M 140.78 110.95 L 140.45 111.86 C 140.13 112.75 140.59 113.73 141.48 114.05 C 142.37 114.37 143.35 113.91 143.67 113.02 L 143.99 112.11 C 144.31 111.22 143.85 110.24 142.97 109.92 C 142.08 109.60 141.10 110.06 140.78 110.95 Z M 140.45 111.84 L 140.12 112.75 C 139.79 113.63 140.24 114.62 141.12 114.95 C 142.00 115.28 142.99 114.83 143.32 113.94 L 143.66 113.04 C 143.99 112.15 143.54 111.17 142.66 110.84 C 141.77 110.51 140.79 110.95 140.45 111.84 Z M 140.12 112.73 L 139.78 113.62 C 139.45 114.50 139.89 115.49 140.77 115.83 C 141.65 116.17 142.64 115.72 142.98 114.84 L 143.32 113.96 C 143.65 113.08 143.21 112.09 142.33 111.75 C 141.45 111.41 140.46 111.85 140.12 112.73 Z M 139.79 113.61 L 139.43 114.52 C 139.09 115.40 139.52 116.39 140.40 116.74 C 141.28 117.08 142.27 116.65 142.61 115.77 L 142.97 114.85 C 143.32 113.97 142.88 112.98 142.00 112.64 C 141.12 112.29 140.13 112.73 139.79 113.61 Z M 139.44 114.51 L 139.06 115.46 C 138.70 116.33 139.13 117.33 140.00 117.68 C 140.88 118.03 141.87 117.60 142.23 116.73 L 142.61 115.78 C 142.96 114.91 142.53 113.91 141.66 113.56 C 140.78 113.21 139.79 113.63 139.44 114.51 Z M 139.06 115.44 L 138.66 116.41 C 138.30 117.28 138.72 118.28 139.59 118.64 C 140.46 119.00 141.46 118.58 141.82 117.71 L 142.22 116.75 C 142.58 115.87 142.17 114.88 141.29 114.51 C 140.42 114.15 139.42 114.57 139.06 115.44 Z M 138.67 116.39 L 138.29 117.29 C 137.92 118.15 138.32 119.16 139.19 119.53 C 140.06 119.90 141.06 119.49 141.43 118.63 L 141.81 117.73 C 142.18 116.86 141.78 115.86 140.91 115.49 C 140.04 115.12 139.04 115.52 138.67 116.39 Z M 138.30 117.28 L 137.90 118.18 C 137.52 119.04 137.92 120.05 138.78 120.42 C 139.65 120.80 140.65 120.41 141.03 119.54 L 141.42 118.64 C 141.80 117.78 141.40 116.77 140.54 116.39 C 139.68 116.02 138.67 116.41 138.30 117.28 Z M 137.91 118.17 L 137.50 119.09 C 137.12 119.95 137.51 120.96 138.37 121.34 C 139.23 121.72 140.24 121.33 140.62 120.47 L 141.02 119.55 C 141.40 118.69 141.01 117.68 140.15 117.30 C 139.29 116.92 138.29 117.31 137.91 118.17 Z M 137.50 119.09 L 137.09 120.03 C 136.71 120.89 137.09 121.89 137.95 122.27 C 138.81 122.66 139.82 122.27 140.20 121.41 L 140.61 120.47 C 141.00 119.61 140.61 118.61 139.75 118.22 C 138.89 117.84 137.88 118.23 137.50 119.09 Z M 137.09 120.03 L 136.69 120.93 C 136.31 121.78 136.70 122.79 137.56 123.17 C 138.42 123.55 139.42 123.16 139.80 122.30 L 140.20 121.41 C 140.58 120.55 140.19 119.54 139.33 119.16 C 138.47 118.78 137.47 119.17 137.09 120.03 Z M 136.69 120.93 L 136.30 121.82 C 135.92 122.68 136.31 123.68 137.17 124.06 C 138.02 124.44 139.02 124.05 139.40 123.19 L 139.80 122.30 C 140.18 121.44 139.79 120.44 138.93 120.06 C 138.08 119.68 137.07 120.07 136.69 120.93 Z M 136.30 121.82 L 135.90 122.73 C 135.52 123.58 135.90 124.58 136.76 124.96 C 137.61 125.35 138.61 124.96 138.99 124.11 L 139.40 123.20 C 139.78 122.34 139.40 121.34 138.54 120.96 C 137.69 120.58 136.68 120.96 136.30 121.82 Z M 135.91 122.72 L 135.49 123.65 C 135.10 124.50 135.48 125.50 136.33 125.89 C 137.18 126.27 138.19 125.89 138.57 125.04 L 138.99 124.11 C 139.37 123.26 138.99 122.26 138.14 121.88 C 137.29 121.49 136.29 121.87 135.91 122.72 Z M 135.49 123.64 L 135.06 124.58 C 134.67 125.43 135.05 126.43 135.89 126.82 C 136.74 127.21 137.74 126.84 138.13 125.99 L 138.56 125.05 C 138.95 124.20 138.58 123.20 137.73 122.81 C 136.88 122.43 135.88 122.80 135.49 123.64 Z M 135.07 124.57 L 134.66 125.45 C 134.27 126.29 134.63 127.30 135.47 127.69 C 136.31 128.08 137.31 127.72 137.71 126.88 L 138.12 126.00 C 138.51 125.16 138.15 124.16 137.31 123.76 C 136.47 123.37 135.47 123.73 135.07 124.57 Z M 134.67 125.44 L 134.24 126.33 C 133.84 127.17 134.20 128.17 135.03 128.57 C 135.87 128.97 136.87 128.62 137.27 127.78 L 137.70 126.89 C 138.10 126.06 137.75 125.05 136.91 124.65 C 136.07 124.25 135.07 124.60 134.67 125.44 Z M 134.25 126.32 L 133.81 127.22 C 133.40 128.05 133.75 129.05 134.58 129.46 C 135.41 129.87 136.41 129.53 136.82 128.70 L 137.26 127.80 C 137.67 126.97 137.33 125.96 136.50 125.56 C 135.67 125.15 134.66 125.49 134.25 126.32 Z M 133.82 127.20 L 133.37 128.11 C 132.95 128.93 133.28 129.94 134.10 130.35 C 134.93 130.77 135.93 130.44 136.35 129.62 L 136.80 128.71 C 137.22 127.89 136.89 126.88 136.07 126.47 C 135.24 126.05 134.24 126.38 133.82 127.20 Z M 133.38 128.10 L 132.91 129.00 C 132.48 129.82 132.80 130.83 133.61 131.25 C 134.43 131.68 135.44 131.36 135.86 130.54 L 136.33 129.63 C 136.76 128.82 136.44 127.81 135.63 127.39 C 134.81 126.96 133.80 127.28 133.38 128.10 Z M 132.92 128.99 L 132.45 129.87 C 132.01 130.68 132.32 131.69 133.13 132.12 C 133.93 132.55 134.94 132.25 135.37 131.44 L 135.85 130.56 C 136.28 129.75 135.98 128.74 135.17 128.31 C 134.36 127.88 133.35 128.18 132.92 128.99 Z M 132.46 129.86 L 131.98 130.74 C 131.54 131.54 131.83 132.54 132.63 132.98 C 133.43 133.42 134.44 133.13 134.88 132.33 L 135.36 131.45 C 135.80 130.65 135.51 129.65 134.71 129.21 C 133.91 128.76 132.90 129.06 132.46 129.86 Z M 131.99 130.73 L 131.50 131.61 C 131.05 132.40 131.34 133.40 132.13 133.85 C 132.93 134.29 133.93 134.01 134.38 133.22 L 134.87 132.34 C 135.31 131.55 135.03 130.54 134.23 130.10 C 133.44 129.65 132.43 129.93 131.99 130.73 Z M 131.51 131.60 L 131.01 132.47 C 130.57 133.26 130.84 134.26 131.63 134.71 C 132.42 135.16 133.42 134.88 133.87 134.09 L 134.37 133.22 C 134.81 132.43 134.54 131.43 133.75 130.98 C 132.96 130.53 131.96 130.81 131.51 131.60 Z M 131.02 132.47 L 130.53 133.33 C 130.08 134.12 130.35 135.12 131.14 135.57 C 131.92 136.01 132.92 135.74 133.37 134.96 L 133.86 134.09 C 134.31 133.31 134.04 132.31 133.26 131.86 C 132.47 131.41 131.47 131.68 131.02 132.47 Z M 130.53 133.33 L 130.04 134.20 C 129.59 134.98 129.86 135.98 130.64 136.42 C 131.42 136.87 132.42 136.60 132.87 135.82 L 133.36 134.96 C 133.81 134.17 133.54 133.18 132.76 132.73 C 131.98 132.28 130.98 132.55 130.53 133.33 Z M 130.04 134.20 L 129.55 135.06 C 129.10 135.84 129.37 136.83 130.14 137.28 C 130.92 137.73 131.91 137.46 132.36 136.68 L 132.86 135.82 C 133.31 135.04 133.04 134.05 132.26 133.60 C 131.49 133.15 130.49 133.42 130.04 134.20 Z M 129.56 135.06 L 129.06 135.92 C 128.61 136.69 128.87 137.68 129.64 138.13 C 130.42 138.58 131.41 138.32 131.86 137.54 L 132.35 136.69 C 132.80 135.91 132.54 134.92 131.77 134.47 C 130.99 134.02 130.00 134.29 129.56 135.06 Z M 129.07 135.92 L 128.56 136.78 C 128.11 137.54 128.37 138.53 129.14 138.98 C 129.90 139.43 130.89 139.18 131.34 138.41 L 131.85 137.55 C 132.30 136.78 132.04 135.79 131.27 135.34 C 130.50 134.89 129.52 135.15 129.07 135.92 Z M 128.57 136.77 L 128.06 137.64 C 127.60 138.40 127.86 139.38 128.62 139.84 C 129.38 140.29 130.36 140.04 130.82 139.28 L 131.33 138.41 C 131.78 137.65 131.53 136.67 130.77 136.21 C 130.01 135.76 129.02 136.01 128.57 136.77 Z M 128.07 137.63 L 127.54 138.51 C 127.08 139.26 127.33 140.24 128.08 140.70 C 128.84 141.16 129.82 140.91 130.28 140.16 L 130.81 139.28 C 131.26 138.53 131.02 137.55 130.26 137.09 C 129.51 136.63 128.53 136.88 128.07 137.63 Z M 127.55 138.50 L 127.01 139.38 C 126.55 140.13 126.79 141.11 127.54 141.57 C 128.29 142.03 129.27 141.79 129.73 141.04 L 130.27 140.16 C 130.72 139.41 130.49 138.43 129.74 137.98 C 128.99 137.52 128.01 137.75 127.55 138.50 Z M 127.02 139.38 L 126.48 140.25 C 126.03 141.00 126.26 141.97 127.00 142.43 C 127.74 142.89 128.72 142.66 129.18 141.92 L 129.72 141.05 C 130.18 140.30 129.94 139.33 129.20 138.87 C 128.46 138.41 127.48 138.64 127.02 139.38 Z M 126.49 140.26 L 125.96 141.11 C 125.51 141.85 125.73 142.82 126.47 143.27 C 127.21 143.73 128.18 143.51 128.64 142.77 L 129.17 141.92 C 129.63 141.18 129.40 140.21 128.66 139.75 C 127.92 139.29 126.95 139.52 126.49 140.26 Z M 125.97 141.11 L 125.46 141.93 C 125.01 142.67 125.23 143.63 125.97 144.09 C 126.70 144.54 127.67 144.32 128.13 143.58 L 128.63 142.76 C 129.09 142.03 128.86 141.06 128.13 140.61 C 127.39 140.15 126.43 140.38 125.97 141.11 Z M 125.47 141.94 L 124.95 142.78 C 124.50 143.52 124.72 144.48 125.45 144.93 C 126.19 145.38 127.15 145.15 127.60 144.42 L 128.12 143.57 C 128.57 142.84 128.35 141.88 127.61 141.43 C 126.88 140.98 125.92 141.21 125.47 141.94 Z M 124.96 142.78 L 124.42 143.64 C 123.96 144.36 124.18 145.32 124.90 145.78 C 125.63 146.23 126.58 146.01 127.04 145.29 L 127.58 144.43 C 128.04 143.70 127.82 142.75 127.10 142.29 C 126.38 141.83 125.42 142.05 124.96 142.78 Z M 124.46 143.59 L 123.91 144.40 C 123.43 145.10 123.60 146.06 124.31 146.54 C 125.01 147.02 125.96 146.84 126.45 146.14 L 127.00 145.34 C 127.48 144.63 127.30 143.68 126.60 143.20 C 125.90 142.71 124.94 142.89 124.46 143.59 Z M 123.98 144.32 L 123.38 145.08 C 122.85 145.74 122.96 146.70 123.62 147.23 C 124.28 147.75 125.25 147.64 125.77 146.98 L 126.37 146.22 C 126.90 145.56 126.79 144.60 126.13 144.07 C 125.47 143.55 124.50 143.66 123.98 144.32 Z M 123.48 144.98 L 122.80 145.68 C 122.22 146.29 122.24 147.25 122.85 147.83 C 123.45 148.42 124.41 148.39 125.00 147.79 L 125.67 147.08 C 126.25 146.47 126.23 145.51 125.63 144.93 C 125.02 144.35 124.06 144.37 123.48 144.98 Z M 122.90 145.60 L 122.20 146.21 C 121.57 146.76 121.50 147.72 122.05 148.35 C 122.60 148.98 123.56 149.04 124.18 148.49 L 124.89 147.88 C 125.52 147.33 125.59 146.37 125.04 145.74 C 124.49 145.11 123.53 145.05 122.90 145.60 Z M 122.27 146.16 L 121.49 146.76 C 120.83 147.27 120.71 148.21 121.22 148.87 C 121.73 149.53 122.67 149.65 123.33 149.15 L 124.11 148.55 C 124.77 148.04 124.89 147.09 124.38 146.44 C 123.88 145.78 122.93 145.65 122.27 146.16 Z M 121.55 146.73 L 120.71 147.32 C 120.04 147.80 119.88 148.73 120.35 149.40 C 120.83 150.08 121.77 150.24 122.44 149.76 L 123.27 149.18 C 123.95 148.70 124.11 147.77 123.63 147.09 C 123.16 146.42 122.22 146.25 121.55 146.73 Z M 120.75 147.30 L 119.88 147.88 C 119.20 148.34 119.02 149.27 119.48 149.95 C 119.93 150.63 120.86 150.82 121.54 150.36 L 122.41 149.78 C 123.09 149.32 123.27 148.40 122.81 147.71 C 122.36 147.03 121.43 146.85 120.75 147.30 Z M 119.90 147.88 L 119.35 148.24 C 118.66 148.69 118.47 149.61 118.92 150.30 C 119.37 150.98 120.29 151.17 120.98 150.72 L 121.53 150.36 C 122.21 149.91 122.40 148.99 121.95 148.31 C 121.50 147.62 120.58 147.43 119.90 147.88 Z"
      fill="black"
      fill-rule="nonzero" /><path d="M 134.79 124.26 L 135.48 123.55 C 136.09 122.93 136.07 121.92 135.45 121.32 C 134.82 120.71 133.82 120.72 133.21 121.35 L 132.52 122.05 C 131.91 122.68 131.93 123.68 132.55 124.29 C 133.18 124.90 134.18 124.89 134.79 124.26 Z M 135.37 123.67 L 136.13 123.04 C 136.80 122.47 136.89 121.46 136.32 120.79 C 135.75 120.11 134.75 120.03 134.07 120.59 L 133.32 121.23 C 132.64 121.79 132.56 122.80 133.12 123.48 C 133.69 124.15 134.70 124.24 135.37 123.67 Z M 135.88 123.23 L 136.76 122.74 C 137.54 122.31 137.83 121.33 137.40 120.55 C 136.97 119.77 135.99 119.49 135.21 119.92 L 134.32 120.40 C 133.54 120.83 133.26 121.81 133.69 122.59 C 134.12 123.37 135.10 123.66 135.88 123.23 Z M 136.42 122.89 L 137.31 122.64 C 138.17 122.40 138.67 121.50 138.43 120.64 C 138.19 119.78 137.29 119.28 136.43 119.52 L 135.54 119.77 C 134.68 120.01 134.18 120.91 134.42 121.77 C 134.67 122.63 135.56 123.13 136.42 122.89 Z M 137.07 122.69 L 138.04 122.57 C 138.93 122.46 139.56 121.64 139.45 120.75 C 139.33 119.87 138.52 119.24 137.63 119.35 L 136.67 119.47 C 135.78 119.58 135.15 120.39 135.26 121.28 C 135.37 122.17 136.18 122.80 137.07 122.69 Z M 137.90 122.58 L 138.94 122.54 C 139.84 122.50 140.53 121.74 140.50 120.85 C 140.46 119.95 139.70 119.25 138.81 119.29 L 137.77 119.34 C 136.87 119.37 136.18 120.13 136.21 121.03 C 136.25 121.92 137.01 122.62 137.90 122.58 Z M 138.88 122.54 L 139.95 122.53 C 140.84 122.53 141.57 121.80 141.56 120.90 C 141.56 120.00 140.83 119.28 139.93 119.28 L 138.87 119.29 C 137.97 119.29 137.25 120.03 137.25 120.92 C 137.25 121.82 137.99 122.54 138.88 122.54 Z M 139.94 122.53 L 140.89 122.53 C 141.79 122.53 142.52 121.81 142.52 120.91 C 142.52 120.01 141.79 119.28 140.89 119.28 L 139.94 119.28 C 139.04 119.28 138.31 120.01 138.31 120.91 C 138.31 121.81 139.04 122.53 139.94 122.53 Z M 140.89 122.53 L 141.87 122.53 C 142.76 122.53 143.49 121.81 143.49 120.91 C 143.49 120.01 142.76 119.28 141.87 119.28 L 140.89 119.28 C 140.00 119.28 139.27 120.01 139.27 120.91 C 139.27 121.81 140.00 122.53 140.89 122.53 Z M 141.87 122.53 L 142.87 122.53 C 143.77 122.53 144.49 121.80 144.49 120.91 C 144.49 120.01 143.77 119.29 142.87 119.29 L 141.87 119.29 C 140.97 119.29 140.24 120.01 140.24 120.91 C 140.24 121.80 140.97 122.53 141.87 122.53 Z M 142.87 122.53 L 143.92 122.53 C 144.82 122.53 145.54 121.80 145.54 120.91 C 145.54 120.01 144.82 119.29 143.92 119.29 L 142.87 119.29 C 141.97 119.29 141.25 120.01 141.25 120.91 C 141.25 121.80 141.97 122.53 142.87 122.53 Z M 143.92 122.53 L 144.95 122.53 C 145.84 122.53 146.57 121.80 146.57 120.91 C 146.57 120.01 145.84 119.29 144.95 119.29 L 143.92 119.29 C 143.02 119.29 142.30 120.01 142.30 120.91 C 142.30 121.80 143.02 122.53 143.92 122.53 Z M 144.95 122.53 L 145.98 122.53 C 146.88 122.53 147.60 121.80 147.60 120.91 C 147.60 120.01 146.88 119.29 145.98 119.29 L 144.95 119.29 C 144.06 119.29 143.33 120.01 143.33 120.91 C 143.33 121.80 144.06 122.53 144.95 122.53 Z M 145.98 122.52 L 147.02 122.52 C 147.91 122.52 148.63 121.80 148.63 120.91 C 148.63 120.02 147.91 119.29 147.02 119.29 L 145.98 119.29 C 145.09 119.29 144.37 120.02 144.37 120.91 C 144.37 121.80 145.09 122.52 145.98 122.52 Z M 147.02 122.52 L 148.01 122.52 C 148.90 122.52 149.62 121.80 149.62 120.91 C 149.62 120.02 148.90 119.30 148.01 119.30 L 147.02 119.30 C 146.13 119.30 145.40 120.02 145.40 120.91 C 145.40 121.80 146.13 122.52 147.02 122.52 Z M 148.01 122.52 L 148.95 122.52 C 149.84 122.52 150.56 121.80 150.56 120.91 C 150.56 120.02 149.84 119.30 148.95 119.30 L 148.01 119.30 C 147.12 119.30 146.40 120.02 146.40 120.91 C 146.40 121.80 147.12 122.52 148.01 122.52 Z M 148.95 122.51 L 150.04 122.51 C 150.93 122.51 151.64 121.79 151.64 120.91 C 151.64 120.02 150.93 119.31 150.04 119.31 L 148.95 119.31 C 148.06 119.31 147.35 120.02 147.35 120.91 C 147.35 121.79 148.06 122.51 148.95 122.51 Z M 150.04 122.50 L 151.03 122.50 C 151.90 122.50 152.62 121.79 152.62 120.91 C 152.62 120.03 151.90 119.32 151.03 119.32 L 150.04 119.32 C 149.17 119.32 148.46 120.03 148.46 120.91 C 148.46 121.79 149.17 122.50 150.04 122.50 Z M 151.03 122.48 L 151.97 122.48 C 152.84 122.48 153.54 121.78 153.54 120.91 C 153.54 120.04 152.84 119.33 151.97 119.33 L 151.03 119.33 C 150.16 119.33 149.45 120.04 149.45 120.91 C 149.45 121.78 150.16 122.48 151.03 122.48 Z M 151.97 122.47 L 152.92 122.47 C 153.78 122.47 154.48 121.77 154.48 120.91 C 154.48 120.05 153.78 119.35 152.92 119.35 L 151.97 119.35 C 151.10 119.35 150.40 120.05 150.40 120.91 C 150.40 121.77 151.10 122.47 151.97 122.47 Z M 152.92 122.46 L 153.92 122.46 C 154.77 122.46 155.47 121.76 155.46 120.90 C 155.46 120.05 154.77 119.35 153.91 119.35 L 152.92 119.36 C 152.06 119.36 151.37 120.05 151.37 120.91 C 151.37 121.77 152.07 122.46 152.92 122.46 Z M 153.92 122.45 L 154.94 122.44 C 155.79 122.44 156.47 121.74 156.47 120.89 C 156.46 120.04 155.77 119.35 154.92 119.36 L 153.90 119.36 C 153.05 119.37 152.37 120.06 152.37 120.92 C 152.38 121.77 153.07 122.45 153.92 122.45 Z M 154.95 122.43 L 155.96 122.42 C 156.81 122.41 157.48 121.71 157.47 120.87 C 157.46 120.02 156.77 119.34 155.92 119.35 L 154.91 119.37 C 154.06 119.38 153.38 120.07 153.39 120.92 C 153.40 121.77 154.10 122.44 154.95 122.43 Z M 155.98 122.41 L 156.98 122.38 C 157.82 122.36 158.49 121.66 158.46 120.82 C 158.44 119.98 157.74 119.32 156.90 119.34 L 155.90 119.36 C 155.06 119.39 154.40 120.08 154.42 120.92 C 154.44 121.77 155.14 122.43 155.98 122.41 Z M 157.01 122.37 L 158.00 122.33 C 158.84 122.29 159.48 121.59 159.45 120.75 C 159.41 119.91 158.70 119.27 157.87 119.31 L 156.87 119.35 C 156.04 119.39 155.39 120.09 155.43 120.93 C 155.47 121.76 156.17 122.41 157.01 122.37 Z M 158.04 122.32 L 159.04 122.25 C 159.87 122.18 160.49 121.46 160.43 120.64 C 160.37 119.81 159.65 119.18 158.82 119.24 L 157.82 119.32 C 157.00 119.38 156.37 120.10 156.43 120.93 C 156.49 121.76 157.22 122.38 158.04 122.32 Z M 159.09 122.23 L 160.08 122.12 C 160.90 122.04 161.49 121.30 161.41 120.48 C 161.32 119.66 160.58 119.06 159.76 119.15 L 158.77 119.26 C 157.95 119.35 157.35 120.08 157.44 120.91 C 157.53 121.73 158.27 122.32 159.09 122.23 Z M 160.13 122.11 L 161.11 121.97 C 161.92 121.86 162.48 121.10 162.37 120.29 C 162.26 119.48 161.50 118.91 160.69 119.03 L 159.71 119.17 C 158.90 119.28 158.33 120.03 158.45 120.85 C 158.56 121.66 159.31 122.22 160.13 122.11 Z M 161.14 121.96 L 162.13 121.80 C 162.93 121.67 163.48 120.91 163.35 120.10 C 163.22 119.29 162.46 118.75 161.65 118.88 L 160.66 119.04 C 159.85 119.17 159.31 119.93 159.44 120.74 C 159.57 121.54 160.33 122.09 161.14 121.96 Z M 162.14 121.79 L 163.14 121.61 C 163.94 121.47 164.48 120.71 164.34 119.91 C 164.20 119.11 163.43 118.57 162.63 118.71 L 161.64 118.89 C 160.84 119.03 160.30 119.79 160.44 120.59 C 160.58 121.39 161.34 121.93 162.14 121.79 Z M 163.14 121.60 L 164.13 121.43 C 164.93 121.28 165.46 120.52 165.32 119.73 C 165.17 118.93 164.41 118.40 163.62 118.55 L 162.63 118.72 C 161.83 118.86 161.31 119.62 161.45 120.42 C 161.59 121.22 162.35 121.74 163.14 121.60 Z M 164.13 121.42 L 165.12 121.24 C 165.91 121.10 166.44 120.35 166.29 119.55 C 166.15 118.76 165.40 118.24 164.60 118.38 L 163.62 118.55 C 162.83 118.69 162.30 119.45 162.44 120.24 C 162.58 121.03 163.34 121.56 164.13 121.42 Z M 165.12 121.24 L 166.10 121.06 C 166.89 120.92 167.41 120.17 167.27 119.38 C 167.13 118.59 166.38 118.07 165.59 118.21 L 164.61 118.38 C 163.82 118.52 163.29 119.28 163.43 120.07 C 163.57 120.85 164.33 121.38 165.12 121.24 Z M 166.10 121.06 L 167.08 120.88 C 167.87 120.74 168.39 119.99 168.25 119.21 C 168.11 118.42 167.36 117.90 166.58 118.04 L 165.59 118.21 C 164.81 118.35 164.28 119.10 164.42 119.89 C 164.56 120.67 165.31 121.20 166.10 121.06 Z M 167.08 120.88 L 168.08 120.70 C 168.86 120.56 169.38 119.81 169.24 119.03 C 169.10 118.25 168.35 117.72 167.57 117.86 L 166.58 118.04 C 165.79 118.18 165.27 118.93 165.41 119.71 C 165.55 120.49 166.30 121.02 167.08 120.88 Z M 168.07 120.70 L 169.07 120.52 C 169.85 120.38 170.37 119.64 170.23 118.86 C 170.09 118.08 169.35 117.55 168.57 117.69 L 167.57 117.87 C 166.79 118.01 166.27 118.75 166.41 119.53 C 166.55 120.31 167.29 120.83 168.07 120.70 Z M 169.06 120.52 L 170.04 120.35 C 170.82 120.21 171.34 119.47 171.21 118.69 C 171.07 117.91 170.33 117.39 169.55 117.52 L 168.57 117.69 C 167.79 117.83 167.27 118.57 167.40 119.35 C 167.54 120.13 168.28 120.65 169.06 120.52 Z M 170.03 120.35 L 170.97 120.19 C 171.75 120.06 172.28 119.32 172.15 118.54 C 172.01 117.76 171.28 117.24 170.50 117.37 L 169.56 117.53 C 168.78 117.66 168.26 118.39 168.39 119.17 C 168.52 119.95 169.26 120.48 170.03 120.35 Z M 170.97 120.19 L 171.82 120.05 C 172.60 119.92 173.13 119.18 173.00 118.41 C 172.87 117.63 172.14 117.10 171.36 117.23 L 170.50 117.37 C 169.73 117.50 169.20 118.23 169.33 119.01 C 169.45 119.79 170.19 120.32 170.97 120.19 Z M 171.82 120.05 L 172.74 119.90 C 173.52 119.77 174.04 119.03 173.91 118.25 C 173.78 117.48 173.05 116.95 172.27 117.08 L 171.36 117.23 C 170.58 117.36 170.05 118.09 170.18 118.87 C 170.31 119.65 171.05 120.17 171.82 120.05 Z M 172.74 119.89 L 173.77 119.72 C 174.55 119.58 175.07 118.85 174.94 118.07 C 174.80 117.29 174.07 116.77 173.29 116.91 L 172.26 117.08 C 171.49 117.21 170.97 117.95 171.10 118.73 C 171.23 119.50 171.97 120.03 172.74 119.89 Z M 173.78 119.71 L 174.95 119.50 C 175.73 119.37 176.25 118.63 176.11 117.85 C 175.97 117.08 175.23 116.56 174.45 116.70 L 173.28 116.91 C 172.50 117.05 171.99 117.79 172.13 118.56 C 172.27 119.34 173.01 119.85 173.78 119.71 Z M 174.96 119.50 L 175.80 119.35 C 176.57 119.20 177.08 118.46 176.94 117.69 C 176.79 116.91 176.05 116.40 175.28 116.55 L 174.44 116.70 C 173.67 116.84 173.16 117.59 173.30 118.36 C 173.45 119.14 174.19 119.65 174.96 119.50 Z M 175.80 119.35 L 176.71 119.18 C 177.48 119.03 177.99 118.28 177.84 117.51 C 177.69 116.74 176.95 116.23 176.18 116.38 L 175.27 116.55 C 174.50 116.69 173.99 117.44 174.14 118.21 C 174.28 118.99 175.03 119.49 175.80 119.35 Z M 176.71 119.18 L 177.67 118.99 C 178.45 118.84 178.95 118.09 178.80 117.32 C 178.66 116.55 177.91 116.04 177.14 116.19 L 176.17 116.38 C 175.40 116.52 174.89 117.27 175.04 118.04 C 175.19 118.82 175.94 119.32 176.71 119.18 Z M 177.68 118.99 L 178.69 118.79 C 179.46 118.64 179.96 117.90 179.81 117.12 C 179.66 116.35 178.92 115.85 178.14 116.00 L 177.13 116.19 C 176.36 116.34 175.86 117.09 176.01 117.86 C 176.15 118.63 176.90 119.14 177.68 118.99 Z M 178.69 118.79 L 179.73 118.59 C 180.50 118.44 181.01 117.69 180.86 116.92 C 180.71 116.15 179.96 115.64 179.19 115.79 L 178.14 116.00 C 177.37 116.15 176.86 116.90 177.02 117.67 C 177.17 118.44 177.91 118.94 178.69 118.79 Z M 179.73 118.59 L 180.80 118.38 C 181.57 118.23 182.08 117.48 181.92 116.71 C 181.77 115.94 181.02 115.43 180.25 115.58 L 179.18 115.79 C 178.41 115.94 177.91 116.69 178.06 117.46 C 178.21 118.24 178.96 118.74 179.73 118.59 Z M 180.80 118.38 L 181.69 118.21 C 182.46 118.05 182.96 117.30 182.81 116.53 C 182.66 115.76 181.91 115.26 181.14 115.41 L 180.25 115.58 C 179.48 115.73 178.98 116.48 179.13 117.26 C 179.28 118.03 180.03 118.53 180.80 118.38 Z"
      fill="black"
      fill-rule="nonzero" /><path d="M 136.57 138.73 L 135.58 138.73 C 134.68 138.73 133.96 139.46 133.96 140.36 C 133.96 141.25 134.68 141.98 135.58 141.98 L 136.57 141.98 C 137.46 141.98 138.19 141.25 138.19 140.36 C 138.19 139.46 137.46 138.73 136.57 138.73 Z M 135.58 138.73 L 134.58 138.73 C 133.69 138.73 132.96 139.46 132.96 140.36 C 132.96 141.25 133.69 141.98 134.58 141.98 L 135.58 141.98 C 136.48 141.98 137.20 141.25 137.20 140.36 C 137.20 139.46 136.48 138.73 135.58 138.73 Z M 134.58 138.73 L 133.57 138.73 C 132.67 138.73 131.94 139.46 131.94 140.36 C 131.94 141.25 132.67 141.98 133.57 141.98 L 134.58 141.98 C 135.48 141.98 136.21 141.25 136.21 140.36 C 136.21 139.46 135.48 138.73 134.58 138.73 Z M 133.57 138.72 L 132.20 138.72 C 131.30 138.72 130.57 139.45 130.57 140.36 C 130.57 141.26 131.30 142.00 132.21 142.00 L 133.57 141.99 C 134.48 141.99 135.21 141.26 135.21 140.35 C 135.21 139.45 134.47 138.71 133.57 138.72 Z M 132.18 138.69 L 131.34 138.70 C 130.42 138.72 129.68 139.48 129.70 140.40 C 129.71 141.32 130.47 142.05 131.39 142.04 L 132.23 142.02 C 133.15 142.01 133.89 141.25 133.87 140.33 C 133.86 139.41 133.10 138.68 132.18 138.69 Z M 131.11 142.03 L 131.29 142.06 C 132.21 142.21 133.07 141.58 133.21 140.66 C 133.36 139.74 132.73 138.88 131.81 138.74 L 131.62 138.71 C 130.70 138.56 129.84 139.19 129.70 140.11 C 129.56 141.03 130.19 141.89 131.11 142.03 Z M 131.49 142.09 L 132.44 142.12 C 133.37 142.16 134.15 141.43 134.19 140.50 C 134.22 139.57 133.50 138.78 132.57 138.75 L 131.61 138.71 C 130.68 138.68 129.90 139.41 129.86 140.34 C 129.83 141.27 130.56 142.05 131.49 142.09 Z M 132.47 142.12 L 134.01 142.15 C 134.94 142.17 135.71 141.43 135.73 140.50 C 135.75 139.57 135.01 138.80 134.08 138.78 L 132.54 138.75 C 131.60 138.73 130.83 139.47 130.82 140.40 C 130.80 141.33 131.54 142.10 132.47 142.12 Z M 134.03 142.15 L 134.94 142.16 C 135.87 142.17 136.63 141.42 136.64 140.49 C 136.65 139.56 135.90 138.80 134.97 138.79 L 134.06 138.78 C 133.13 138.77 132.37 139.52 132.36 140.45 C 132.35 141.38 133.10 142.14 134.03 142.15 Z M 134.94 142.16 L 135.92 142.16 C 136.85 142.17 137.61 141.42 137.61 140.49 C 137.62 139.56 136.87 138.80 135.94 138.80 L 134.96 138.79 C 134.03 138.79 133.28 139.54 133.27 140.47 C 133.27 141.39 134.02 142.15 134.94 142.16 Z M 135.93 142.16 L 136.95 142.16 C 137.88 142.16 138.63 141.41 138.63 140.48 C 138.63 139.56 137.88 138.81 136.96 138.80 L 135.93 138.80 C 135.01 138.80 134.26 139.55 134.25 140.48 C 134.25 141.40 135.00 142.16 135.93 142.16 Z M 136.96 142.16 L 138.00 142.15 C 138.93 142.15 139.67 141.40 139.67 140.48 C 139.67 139.55 138.92 138.80 137.99 138.81 L 136.95 138.81 C 136.03 138.81 135.28 139.56 135.28 140.49 C 135.28 141.41 136.03 142.16 136.96 142.16 Z M 138.01 142.15 L 139.05 142.14 C 139.97 142.14 140.71 141.38 140.71 140.46 C 140.70 139.54 139.95 138.80 139.03 138.80 L 137.99 138.81 C 137.07 138.82 136.32 139.57 136.33 140.49 C 136.34 141.41 137.09 142.15 138.01 142.15 Z M 139.06 142.14 L 140.09 142.13 C 141.01 142.12 141.75 141.36 141.74 140.44 C 141.73 139.52 140.97 138.79 140.06 138.80 L 139.02 138.81 C 138.10 138.82 137.36 139.57 137.37 140.49 C 137.38 141.41 138.14 142.15 139.06 142.14 Z M 140.10 142.12 L 141.15 142.10 C 142.07 142.08 142.79 141.33 142.78 140.41 C 142.76 139.50 142.01 138.77 141.09 138.79 L 140.04 138.81 C 139.13 138.82 138.40 139.58 138.42 140.49 C 138.44 141.40 139.19 142.13 140.10 142.12 Z M 141.17 142.08 L 142.18 142.05 C 143.09 142.02 143.80 141.26 143.77 140.36 C 143.74 139.45 142.98 138.74 142.08 138.77 L 141.07 138.80 C 140.16 138.83 139.45 139.59 139.48 140.50 C 139.51 141.40 140.27 142.11 141.17 142.08 Z M 142.22 142.04 L 143.20 141.98 C 144.09 141.94 144.78 141.17 144.74 140.27 C 144.69 139.37 143.92 138.68 143.02 138.73 L 142.04 138.78 C 141.14 138.83 140.45 139.60 140.50 140.50 C 140.55 141.40 141.32 142.09 142.22 142.04 Z M 143.24 141.97 L 144.20 141.89 C 145.09 141.82 145.76 141.04 145.68 140.15 C 145.61 139.26 144.83 138.59 143.94 138.67 L 142.98 138.75 C 142.09 138.82 141.42 139.60 141.50 140.49 C 141.57 141.38 142.35 142.04 143.24 141.97 Z M 144.26 141.87 L 145.21 141.76 C 146.09 141.66 146.72 140.86 146.62 139.98 C 146.52 139.10 145.72 138.47 144.84 138.57 L 143.89 138.68 C 143.01 138.79 142.38 139.58 142.48 140.46 C 142.58 141.34 143.38 141.98 144.26 141.87 Z M 145.27 141.74 L 146.16 141.61 C 147.03 141.48 147.63 140.66 147.49 139.79 C 147.36 138.92 146.55 138.32 145.68 138.46 L 144.79 138.59 C 143.92 138.72 143.32 139.54 143.45 140.41 C 143.58 141.28 144.40 141.88 145.27 141.74 Z M 146.20 141.59 L 147.12 141.42 C 147.98 141.26 148.55 140.44 148.39 139.58 C 148.23 138.72 147.41 138.15 146.55 138.31 L 145.63 138.48 C 144.77 138.63 144.20 139.46 144.36 140.32 C 144.52 141.18 145.34 141.75 146.20 141.59 Z M 147.16 141.40 L 148.11 141.21 C 148.96 141.03 149.50 140.19 149.32 139.34 C 149.15 138.49 148.31 137.95 147.46 138.13 L 146.51 138.33 C 145.66 138.50 145.12 139.34 145.29 140.19 C 145.47 141.04 146.31 141.58 147.16 141.40 Z M 148.13 141.19 L 149.13 140.96 C 149.97 140.77 150.50 139.93 150.30 139.09 C 150.11 138.25 149.27 137.72 148.43 137.91 L 147.43 138.14 C 146.59 138.34 146.07 139.17 146.26 140.02 C 146.45 140.86 147.29 141.38 148.13 141.19 Z M 149.15 140.94 L 150.21 140.68 C 151.04 140.48 151.55 139.64 151.35 138.81 C 151.15 137.98 150.31 137.47 149.47 137.67 L 148.41 137.93 C 147.58 138.13 147.07 138.97 147.27 139.81 C 147.48 140.64 148.32 141.15 149.15 140.94 Z M 150.22 140.67 L 151.26 140.41 C 152.09 140.20 152.59 139.36 152.38 138.53 C 152.17 137.71 151.33 137.21 150.50 137.42 L 149.46 137.68 C 148.64 137.89 148.14 138.73 148.35 139.56 C 148.56 140.38 149.40 140.88 150.22 140.67 Z M 151.27 140.40 L 152.23 140.15 C 153.05 139.93 153.54 139.10 153.33 138.28 C 153.11 137.46 152.28 136.97 151.46 137.18 L 150.50 137.43 C 149.68 137.64 149.19 138.48 149.40 139.30 C 149.61 140.12 150.45 140.61 151.27 140.40 Z M 152.23 140.13 L 153.22 139.87 C 154.04 139.66 154.52 138.82 154.31 138.01 C 154.09 137.20 153.26 136.71 152.45 136.93 L 151.46 137.19 C 150.64 137.41 150.16 138.24 150.37 139.05 C 150.59 139.87 151.42 140.35 152.23 140.13 Z M 153.23 139.86 L 154.23 139.59 C 155.04 139.37 155.52 138.54 155.30 137.74 C 155.08 136.93 154.25 136.45 153.44 136.67 L 152.44 136.94 C 151.63 137.16 151.16 137.99 151.37 138.79 C 151.59 139.60 152.42 140.08 153.23 139.86 Z M 154.23 139.58 L 155.23 139.31 C 156.03 139.09 156.50 138.26 156.28 137.46 C 156.06 136.66 155.24 136.19 154.43 136.41 L 153.44 136.68 C 152.64 136.90 152.17 137.73 152.39 138.53 C 152.61 139.33 153.43 139.80 154.23 139.58 Z M 155.23 139.30 L 156.21 139.03 C 157.00 138.80 157.47 137.98 157.24 137.18 C 157.02 136.39 156.20 135.92 155.40 136.15 L 154.43 136.42 C 153.63 136.64 153.17 137.46 153.39 138.26 C 153.61 139.06 154.44 139.52 155.23 139.30 Z M 156.21 139.01 L 157.14 138.75 C 157.93 138.52 158.39 137.70 158.16 136.91 C 157.94 136.12 157.12 135.67 156.33 135.89 L 155.40 136.16 C 154.61 136.38 154.15 137.20 154.38 137.99 C 154.60 138.78 155.42 139.24 156.21 139.01 Z M 157.15 138.74 L 158.16 138.44 C 158.94 138.21 159.39 137.39 159.16 136.61 C 158.93 135.83 158.11 135.38 157.33 135.61 L 156.32 135.90 C 155.54 136.13 155.09 136.95 155.32 137.74 C 155.55 138.52 156.37 138.97 157.15 138.74 Z M 158.17 138.43 L 159.29 138.09 C 160.06 137.85 160.50 137.04 160.26 136.26 C 160.03 135.49 159.21 135.05 158.43 135.28 L 157.32 135.62 C 156.54 135.86 156.10 136.68 156.34 137.45 C 156.57 138.23 157.39 138.66 158.17 138.43 Z M 159.30 138.08 L 160.30 137.76 C 161.06 137.52 161.49 136.70 161.25 135.94 C 161.01 135.17 160.19 134.74 159.42 134.98 L 158.42 135.30 C 157.66 135.54 157.23 136.35 157.47 137.12 C 157.71 137.89 158.53 138.32 159.30 138.08 Z M 160.30 137.75 L 161.20 137.46 C 161.96 137.22 162.38 136.40 162.14 135.64 C 161.89 134.88 161.08 134.46 160.32 134.71 L 159.42 135.00 C 158.66 135.24 158.24 136.06 158.48 136.82 C 158.73 137.58 159.54 137.99 160.30 137.75 Z M 161.20 137.45 L 162.02 137.18 C 162.77 136.94 163.18 136.13 162.94 135.37 C 162.69 134.62 161.88 134.21 161.12 134.45 L 160.31 134.72 C 159.56 134.96 159.15 135.78 159.39 136.53 C 159.64 137.28 160.45 137.70 161.20 137.45 Z M 162.01 137.18 L 162.91 136.88 C 163.66 136.64 164.07 135.83 163.83 135.08 C 163.58 134.33 162.77 133.92 162.02 134.17 L 161.13 134.46 C 160.38 134.71 159.97 135.51 160.21 136.26 C 160.46 137.01 161.26 137.42 162.01 137.18 Z M 162.91 136.88 L 163.90 136.56 C 164.65 136.32 165.06 135.51 164.82 134.77 C 164.57 134.02 163.77 133.60 163.02 133.85 L 162.03 134.17 C 161.28 134.41 160.87 135.21 161.11 135.96 C 161.35 136.71 162.16 137.12 162.91 136.88 Z M 163.89 136.56 L 164.81 136.27 C 165.56 136.03 165.97 135.23 165.73 134.48 C 165.49 133.73 164.69 133.31 163.94 133.55 L 163.03 133.85 C 162.28 134.09 161.86 134.89 162.10 135.64 C 162.34 136.39 163.14 136.80 163.89 136.56 Z M 164.81 136.27 L 165.57 136.02 C 166.32 135.79 166.74 134.98 166.50 134.23 C 166.26 133.48 165.46 133.07 164.71 133.31 L 163.94 133.55 C 163.19 133.79 162.78 134.59 163.02 135.34 C 163.26 136.09 164.06 136.51 164.81 136.27 Z"
      fill="black"
      fill-rule="nonzero" /><path d="M 140.34 141.41 L 139.52 141.94 C 138.79 142.41 138.58 143.39 139.06 144.12 C 139.53 144.85 140.51 145.06 141.24 144.59 L 142.06 144.06 C 142.79 143.59 143.00 142.61 142.52 141.88 C 142.05 141.15 141.07 140.94 140.34 141.41 Z M 139.46 141.98 L 138.66 142.56 C 137.96 143.07 137.80 144.05 138.31 144.76 C 138.82 145.47 139.80 145.63 140.51 145.12 L 141.31 144.54 C 142.01 144.03 142.17 143.05 141.66 142.34 C 141.15 141.63 140.17 141.47 139.46 141.98 Z M 138.55 142.65 L 137.78 143.32 C 137.13 143.89 137.06 144.89 137.64 145.55 C 138.21 146.20 139.21 146.27 139.87 145.69 L 140.63 145.03 C 141.28 144.45 141.35 143.45 140.77 142.80 C 140.20 142.14 139.20 142.08 138.55 142.65 Z M 137.65 143.45 L 137.00 144.18 C 136.42 144.83 136.48 145.83 137.13 146.41 C 137.78 146.99 138.78 146.93 139.36 146.28 L 140.01 145.56 C 140.59 144.90 140.53 143.91 139.88 143.33 C 139.22 142.74 138.23 142.80 137.65 143.45 Z M 136.89 144.31 L 136.37 145.05 C 135.86 145.76 136.03 146.75 136.75 147.26 C 137.46 147.76 138.45 147.59 138.96 146.88 L 139.48 146.15 C 139.98 145.43 139.81 144.44 139.10 143.94 C 138.38 143.43 137.39 143.60 136.89 144.31 Z M 136.29 145.16 L 135.80 145.99 C 135.35 146.75 135.61 147.72 136.36 148.17 C 137.12 148.62 138.10 148.36 138.54 147.61 L 139.03 146.77 C 139.48 146.01 139.23 145.04 138.47 144.59 C 137.71 144.15 136.74 144.40 136.29 145.16 Z M 135.74 146.08 L 135.27 147.01 C 134.88 147.80 135.19 148.76 135.98 149.16 C 136.77 149.56 137.73 149.24 138.13 148.45 L 138.60 147.52 C 138.99 146.73 138.68 145.77 137.89 145.37 C 137.10 144.98 136.14 145.29 135.74 146.08 Z M 135.23 147.08 L 134.78 148.11 C 134.42 148.92 134.79 149.87 135.59 150.23 C 136.40 150.59 137.35 150.22 137.71 149.41 L 138.17 148.38 C 138.52 147.57 138.16 146.62 137.35 146.27 C 136.54 145.91 135.59 146.27 135.23 147.08 Z M 134.75 148.16 L 134.39 149.07 C 134.06 149.89 134.46 150.83 135.28 151.16 C 136.10 151.49 137.04 151.09 137.37 150.27 L 137.73 149.36 C 138.07 148.54 137.67 147.60 136.84 147.27 C 136.02 146.94 135.08 147.34 134.75 148.16 Z M 134.37 149.11 L 134.03 150.03 C 133.72 150.86 134.14 151.79 134.97 152.10 C 135.80 152.41 136.73 151.99 137.04 151.16 L 137.39 150.23 C 137.70 149.40 137.27 148.47 136.44 148.16 C 135.61 147.85 134.69 148.27 134.37 149.11 Z M 134.02 150.06 L 133.68 151.02 C 133.39 151.86 133.83 152.77 134.67 153.07 C 135.50 153.36 136.42 152.92 136.72 152.08 L 137.05 151.13 C 137.35 150.29 136.90 149.37 136.07 149.08 C 135.23 148.78 134.31 149.22 134.02 150.06 Z M 133.67 151.04 L 133.35 152.02 C 133.07 152.86 133.53 153.77 134.37 154.05 C 135.22 154.33 136.13 153.87 136.40 153.03 L 136.73 152.05 C 137.00 151.21 136.55 150.30 135.70 150.02 C 134.86 149.74 133.95 150.20 133.67 151.04 Z M 133.34 152.04 L 133.04 153.01 C 132.77 153.86 133.25 154.76 134.09 155.03 C 134.94 155.29 135.84 154.82 136.11 153.97 L 136.41 153.00 C 136.68 152.15 136.21 151.25 135.36 150.99 C 134.51 150.72 133.61 151.19 133.34 152.04 Z M 133.03 153.04 L 132.75 154.01 C 132.49 154.86 132.98 155.75 133.83 156.00 C 134.68 156.26 135.58 155.77 135.83 154.92 L 136.12 153.95 C 136.37 153.10 135.88 152.20 135.03 151.95 C 134.18 151.70 133.28 152.19 133.03 153.04 Z M 132.74 154.03 L 132.45 155.06 C 132.22 155.91 132.72 156.80 133.57 157.04 C 134.43 157.27 135.31 156.77 135.55 155.92 L 135.83 154.89 C 136.07 154.04 135.57 153.15 134.72 152.92 C 133.86 152.68 132.98 153.18 132.74 154.03 Z M 132.45 155.09 L 132.19 156.08 C 131.97 156.94 132.49 157.81 133.34 158.03 C 134.20 158.26 135.07 157.74 135.29 156.89 L 135.55 155.89 C 135.77 155.04 135.26 154.16 134.40 153.94 C 133.55 153.72 132.68 154.23 132.45 155.09 Z M 132.19 156.11 L 131.96 157.08 C 131.75 157.94 132.28 158.80 133.13 159.01 C 133.99 159.21 134.85 158.69 135.06 157.83 L 135.29 156.86 C 135.50 156.01 134.97 155.14 134.12 154.94 C 133.26 154.73 132.40 155.26 132.19 156.11 Z M 131.96 157.11 L 131.75 158.05 C 131.56 158.91 132.10 159.76 132.95 159.95 C 133.81 160.14 134.66 159.60 134.85 158.75 L 135.06 157.80 C 135.25 156.95 134.71 156.10 133.85 155.91 C 133.00 155.71 132.15 156.25 131.96 157.11 Z M 131.75 158.08 L 131.56 159.00 C 131.38 159.86 131.93 160.70 132.79 160.87 C 133.65 161.05 134.48 160.50 134.66 159.64 L 134.85 158.72 C 135.02 157.86 134.47 157.03 133.62 156.85 C 132.76 156.67 131.92 157.22 131.75 158.08 Z M 131.56 159.03 L 131.37 160.05 C 131.21 160.90 131.77 161.73 132.63 161.89 C 133.48 162.05 134.30 161.48 134.46 160.63 L 134.66 159.61 C 134.82 158.76 134.25 157.93 133.40 157.77 C 132.54 157.61 131.72 158.18 131.56 159.03 Z M 131.38 160.08 L 131.21 161.09 C 131.07 161.95 131.64 162.75 132.49 162.89 C 133.34 163.03 134.15 162.46 134.29 161.61 L 134.46 160.60 C 134.60 159.75 134.02 158.94 133.17 158.80 C 132.32 158.66 131.52 159.23 131.38 160.08 Z M 131.22 161.13 L 131.07 162.12 C 130.95 162.96 131.54 163.75 132.38 163.87 C 133.23 163.99 134.01 163.41 134.14 162.56 L 134.28 161.57 C 134.40 160.73 133.82 159.94 132.97 159.82 C 132.12 159.70 131.34 160.28 131.22 161.13 Z M 131.08 162.15 L 130.96 163.11 C 130.86 163.95 131.46 164.72 132.30 164.82 C 133.14 164.93 133.91 164.33 134.01 163.49 L 134.13 162.53 C 134.23 161.68 133.63 160.92 132.79 160.82 C 131.95 160.71 131.19 161.31 131.08 162.15 Z M 130.97 163.15 L 130.88 164.13 C 130.80 164.96 131.41 165.71 132.24 165.79 C 133.08 165.87 133.82 165.26 133.91 164.42 L 134.00 163.45 C 134.08 162.61 133.47 161.87 132.64 161.79 C 131.80 161.70 131.06 162.32 130.97 163.15 Z M 130.89 164.17 L 130.82 165.21 C 130.76 166.04 131.38 166.76 132.21 166.82 C 133.04 166.88 133.76 166.25 133.82 165.42 L 133.89 164.39 C 133.95 163.56 133.33 162.84 132.50 162.78 C 131.67 162.72 130.95 163.34 130.89 164.17 Z M 130.83 165.24 L 130.78 166.25 C 130.74 167.07 131.37 167.76 132.19 167.81 C 133.01 167.85 133.71 167.21 133.75 166.39 L 133.80 165.39 C 133.84 164.57 133.21 163.87 132.39 163.83 C 131.57 163.79 130.87 164.42 130.83 165.24 Z M 130.80 166.27 L 130.77 167.24 C 130.74 168.06 131.38 168.73 132.19 168.76 C 133.00 168.79 133.68 168.15 133.71 167.34 L 133.74 166.37 C 133.76 165.55 133.13 164.87 132.31 164.85 C 131.50 164.82 130.82 165.46 130.80 166.27 Z M 130.78 167.26 L 130.76 168.24 C 130.75 169.04 131.39 169.71 132.19 169.72 C 132.99 169.74 133.66 169.10 133.67 168.29 L 133.69 167.32 C 133.71 166.51 133.07 165.85 132.26 165.83 C 131.46 165.82 130.80 166.46 130.78 167.26 Z M 130.77 168.25 L 130.76 169.27 C 130.75 170.07 131.39 170.72 132.19 170.73 C 132.99 170.74 133.64 170.10 133.65 169.30 L 133.66 168.28 C 133.67 167.48 133.03 166.83 132.23 166.82 C 131.43 166.81 130.78 167.45 130.77 168.25 Z M 130.77 169.28 L 130.76 170.27 C 130.76 171.07 131.40 171.71 132.20 171.72 C 132.99 171.72 133.64 171.08 133.64 170.28 L 133.65 169.29 C 133.65 168.50 133.01 167.85 132.21 167.85 C 131.42 167.84 130.77 168.48 130.77 169.28 Z M 130.77 170.28 L 130.77 171.26 C 130.77 172.05 131.41 172.69 132.20 172.69 C 132.99 172.69 133.63 172.05 133.63 171.26 L 133.63 170.28 C 133.63 169.49 132.99 168.85 132.20 168.85 C 131.41 168.85 130.77 169.49 130.77 170.28 Z M 130.77 171.26 L 130.77 171.44 C 130.77 172.23 131.41 172.87 132.20 172.87 C 132.99 172.87 133.63 172.23 133.63 171.44 L 133.63 171.26 C 133.63 170.47 132.99 169.83 132.20 169.83 C 131.41 169.83 130.77 170.47 130.77 171.26 Z"
      fill="black"
      fill-rule="nonzero" /><path d="M 104.88 172.55 L 103.89 172.51 C 103.04 172.48 102.33 173.14 102.29 173.99 C 102.26 174.84 102.92 175.55 103.77 175.59 L 104.76 175.63 C 105.61 175.66 106.32 175.00 106.35 174.15 C 106.39 173.30 105.73 172.59 104.88 172.55 Z M 103.89 172.50 L 102.90 172.46 C 102.04 172.42 101.32 173.09 101.28 173.94 C 101.25 174.80 101.91 175.53 102.77 175.56 L 103.76 175.60 C 104.62 175.64 105.35 174.97 105.38 174.12 C 105.42 173.26 104.75 172.54 103.89 172.50 Z M 102.91 172.44 L 101.90 172.40 C 101.04 172.35 100.30 173.02 100.26 173.89 C 100.22 174.75 100.89 175.49 101.76 175.53 L 102.76 175.58 C 103.63 175.62 104.36 174.95 104.40 174.08 C 104.44 173.22 103.78 172.48 102.91 172.44 Z M 101.92 172.38 L 100.68 172.31 C 99.80 172.26 99.05 172.93 99.00 173.80 C 98.95 174.68 99.62 175.43 100.50 175.48 L 101.74 175.55 C 102.62 175.60 103.37 174.93 103.42 174.05 C 103.47 173.18 102.80 172.43 101.92 172.38 Z M 100.71 172.28 L 99.55 172.19 C 98.66 172.12 97.88 172.79 97.81 173.68 C 97.75 174.57 98.41 175.35 99.30 175.42 L 100.47 175.50 C 101.36 175.57 102.13 174.91 102.20 174.01 C 102.27 173.12 101.60 172.35 100.71 172.28 Z M 99.85 172.20 L 99.59 172.14 C 98.70 171.90 97.80 172.43 97.57 173.32 C 97.34 174.20 97.87 175.10 98.75 175.33 L 99.01 175.40 C 99.89 175.63 100.79 175.10 101.03 174.22 C 101.26 173.34 100.73 172.43 99.85 172.20 Z M 99.26 175.41 L 99.78 175.38 C 100.70 175.33 101.41 174.53 101.36 173.61 C 101.30 172.68 100.51 171.98 99.58 172.03 L 99.07 172.06 C 98.15 172.11 97.44 172.91 97.49 173.83 C 97.55 174.76 98.34 175.46 99.26 175.41 Z M 99.75 175.40 L 100.72 175.36 C 101.65 175.32 102.38 174.53 102.34 173.59 C 102.30 172.66 101.51 171.93 100.58 171.97 L 99.61 172.01 C 98.68 172.05 97.95 172.84 97.99 173.77 C 98.03 174.71 98.82 175.44 99.75 175.40 Z M 100.75 175.37 L 102.02 175.30 C 102.96 175.24 103.68 174.43 103.63 173.48 C 103.57 172.54 102.76 171.82 101.81 171.88 L 100.54 171.96 C 99.60 172.01 98.88 172.82 98.94 173.77 C 99.00 174.71 99.81 175.43 100.75 175.37 Z M 102.08 175.31 L 103.39 175.18 C 104.34 175.09 105.03 174.25 104.94 173.30 C 104.85 172.35 104.01 171.65 103.06 171.74 L 101.75 171.87 C 100.80 171.96 100.11 172.80 100.20 173.75 C 100.29 174.70 101.13 175.40 102.08 175.31 Z M 103.45 175.18 L 104.48 175.05 C 105.43 174.92 106.09 174.04 105.97 173.09 C 105.84 172.14 104.96 171.48 104.01 171.60 L 102.99 171.74 C 102.04 171.87 101.37 172.74 101.50 173.69 C 101.63 174.64 102.50 175.31 103.45 175.18 Z M 104.53 175.04 L 105.55 174.88 C 106.50 174.72 107.14 173.83 106.99 172.88 C 106.83 171.93 105.94 171.29 104.99 171.44 L 103.96 171.61 C 103.02 171.76 102.37 172.66 102.53 173.60 C 102.68 174.55 103.58 175.20 104.53 175.04 Z M 105.59 174.87 L 106.59 174.69 C 107.54 174.51 108.16 173.60 107.99 172.65 C 107.81 171.70 106.90 171.08 105.95 171.26 L 104.95 171.44 C 104.00 171.62 103.38 172.53 103.55 173.48 C 103.73 174.42 104.64 175.05 105.59 174.87 Z M 106.62 174.69 L 107.59 174.49 C 108.54 174.29 109.15 173.37 108.95 172.42 C 108.76 171.48 107.84 170.87 106.89 171.06 L 105.92 171.26 C 104.98 171.45 104.36 172.37 104.56 173.32 C 104.75 174.27 105.67 174.88 106.62 174.69 Z M 107.61 174.49 L 108.52 174.29 C 109.47 174.08 110.07 173.15 109.86 172.20 C 109.66 171.25 108.72 170.65 107.78 170.86 L 106.86 171.06 C 105.92 171.27 105.32 172.20 105.52 173.15 C 105.73 174.09 106.67 174.69 107.61 174.49 Z M 108.54 174.29 L 109.59 174.05 C 110.54 173.83 111.13 172.89 110.91 171.94 C 110.69 170.99 109.75 170.40 108.80 170.62 L 107.76 170.86 C 106.81 171.08 106.22 172.02 106.44 172.97 C 106.65 173.92 107.60 174.51 108.54 174.29 Z M 109.61 174.05 L 110.60 173.81 C 111.55 173.58 112.13 172.62 111.90 171.68 C 111.67 170.73 110.72 170.15 109.77 170.38 L 108.78 170.62 C 107.84 170.85 107.26 171.81 107.49 172.75 C 107.72 173.70 108.67 174.28 109.61 174.05 Z M 110.63 173.80 L 111.56 173.56 C 112.50 173.32 113.07 172.36 112.83 171.42 C 112.59 170.47 111.62 169.90 110.68 170.15 L 109.75 170.38 C 108.80 170.63 108.24 171.59 108.48 172.53 C 108.72 173.48 109.68 174.05 110.63 173.80 Z M 111.58 173.56 L 112.49 173.32 C 113.43 173.06 113.99 172.09 113.74 171.15 C 113.48 170.21 112.51 169.65 111.57 169.90 L 110.66 170.15 C 109.72 170.40 109.16 171.37 109.41 172.31 C 109.66 173.26 110.63 173.82 111.58 173.56 Z M 112.50 173.32 L 113.41 173.07 C 114.35 172.80 114.90 171.83 114.64 170.89 C 114.38 169.94 113.41 169.39 112.46 169.65 L 111.56 169.90 C 110.61 170.16 110.06 171.14 110.32 172.08 C 110.58 173.03 111.56 173.58 112.50 173.32 Z M 113.42 173.07 L 114.34 172.80 C 115.29 172.54 115.84 171.56 115.57 170.62 C 115.30 169.67 114.32 169.12 113.38 169.39 L 112.45 169.65 C 111.51 169.92 110.96 170.90 111.23 171.84 C 111.49 172.78 112.47 173.33 113.42 173.07 Z M 114.35 172.81 L 115.31 172.53 C 116.25 172.27 116.80 171.28 116.53 170.34 C 116.27 169.40 115.28 168.85 114.34 169.12 L 113.38 169.39 C 112.43 169.66 111.89 170.64 112.15 171.58 C 112.42 172.53 113.40 173.07 114.35 172.81 Z M 115.31 172.54 L 116.31 172.25 C 117.25 171.99 117.80 171.00 117.54 170.06 C 117.27 169.11 116.28 168.56 115.34 168.83 L 114.34 169.11 C 113.39 169.38 112.84 170.36 113.11 171.31 C 113.38 172.25 114.36 172.80 115.31 172.54 Z M 116.30 172.26 L 117.29 171.98 C 118.24 171.72 118.79 170.73 118.52 169.79 C 118.26 168.84 117.28 168.28 116.33 168.55 L 115.34 168.83 C 114.40 169.09 113.84 170.07 114.11 171.02 C 114.37 171.97 115.36 172.52 116.30 172.26 Z M 117.28 171.99 L 118.21 171.73 C 119.16 171.47 119.72 170.48 119.46 169.53 C 119.19 168.58 118.21 168.03 117.26 168.29 L 116.33 168.55 C 115.38 168.81 114.83 169.79 115.09 170.74 C 115.35 171.69 116.33 172.25 117.28 171.99 Z M 118.21 171.73 L 119.16 171.47 C 120.11 171.21 120.67 170.23 120.41 169.27 C 120.15 168.32 119.17 167.76 118.22 168.03 L 117.26 168.29 C 116.31 168.55 115.75 169.53 116.01 170.48 C 116.28 171.43 117.26 171.99 118.21 171.73 Z M 119.16 171.47 L 120.14 171.20 C 121.09 170.94 121.65 169.96 121.39 169.01 C 121.13 168.06 120.15 167.50 119.20 167.76 L 118.22 168.02 C 117.27 168.28 116.71 169.27 116.97 170.22 C 117.23 171.17 118.21 171.73 119.16 171.47 Z M 120.14 171.20 L 121.13 170.93 C 122.09 170.67 122.65 169.69 122.39 168.73 C 122.12 167.78 121.14 167.22 120.19 167.48 L 119.19 167.75 C 118.24 168.02 117.68 169.00 117.94 169.95 C 118.20 170.91 119.19 171.47 120.14 171.20 Z M 121.14 170.93 L 122.12 170.66 C 123.07 170.40 123.63 169.41 123.36 168.46 C 123.10 167.51 122.12 166.95 121.16 167.21 L 120.18 167.48 C 119.23 167.74 118.67 168.73 118.94 169.68 C 119.20 170.64 120.18 171.20 121.14 170.93 Z M 122.12 170.66 L 123.06 170.40 C 124.01 170.14 124.57 169.15 124.31 168.19 C 124.04 167.24 123.05 166.68 122.10 166.95 L 121.16 167.21 C 120.21 167.48 119.65 168.46 119.91 169.42 C 120.18 170.37 121.17 170.93 122.12 170.66 Z M 123.06 170.40 L 124.02 170.13 C 124.97 169.87 125.53 168.88 125.26 167.92 C 124.99 166.97 124.00 166.41 123.05 166.68 L 122.10 166.95 C 121.14 167.22 120.59 168.20 120.86 169.16 C 121.12 170.11 122.11 170.67 123.06 170.40 Z M 124.02 170.13 L 124.98 169.86 C 125.94 169.60 126.49 168.60 126.23 167.65 C 125.96 166.70 124.97 166.14 124.01 166.41 L 123.05 166.68 C 122.09 166.95 121.54 167.94 121.81 168.89 C 122.08 169.85 123.07 170.40 124.02 170.13 Z M 124.99 169.86 L 125.96 169.59 C 126.92 169.32 127.47 168.33 127.20 167.37 C 126.93 166.42 125.94 165.86 124.99 166.13 L 124.01 166.41 C 123.06 166.68 122.50 167.67 122.77 168.62 C 123.04 169.58 124.03 170.13 124.99 169.86 Z M 125.96 169.59 L 126.95 169.31 C 127.91 169.04 128.46 168.05 128.19 167.09 C 127.92 166.14 126.93 165.58 125.97 165.85 L 124.98 166.13 C 124.03 166.40 123.48 167.40 123.75 168.35 C 124.02 169.31 125.01 169.86 125.96 169.59 Z M 126.95 169.31 L 127.87 169.05 C 128.83 168.78 129.38 167.78 129.11 166.83 C 128.84 165.87 127.84 165.32 126.89 165.59 L 125.97 165.85 C 125.02 166.12 124.46 167.12 124.73 168.07 C 125.01 169.03 126.00 169.58 126.95 169.31 Z M 127.87 169.05 L 128.81 168.78 C 129.76 168.51 130.31 167.52 130.04 166.56 C 129.77 165.61 128.78 165.05 127.82 165.33 L 126.89 165.59 C 125.94 165.86 125.38 166.86 125.65 167.81 C 125.93 168.77 126.92 169.32 127.87 169.05 Z M 128.81 168.78 L 129.76 168.51 C 130.71 168.24 131.26 167.24 130.99 166.29 C 130.72 165.34 129.73 164.78 128.77 165.06 L 127.82 165.33 C 126.87 165.60 126.32 166.59 126.59 167.55 C 126.86 168.50 127.85 169.05 128.81 168.78 Z M 129.76 168.51 L 130.73 168.23 C 131.68 167.96 132.23 166.97 131.96 166.01 C 131.69 165.06 130.70 164.51 129.74 164.78 L 128.77 165.06 C 127.82 165.33 127.27 166.32 127.54 167.28 C 127.81 168.23 128.80 168.78 129.76 168.51 Z M 130.73 168.23 L 131.72 167.95 C 132.67 167.68 133.23 166.68 132.95 165.73 C 132.68 164.78 131.69 164.22 130.73 164.50 L 129.74 164.78 C 128.79 165.05 128.24 166.05 128.51 167.00 C 128.78 167.95 129.77 168.51 130.73 168.23 Z M 131.72 167.95 L 132.72 167.66 C 133.68 167.39 134.23 166.40 133.96 165.44 C 133.68 164.49 132.69 163.94 131.74 164.21 L 130.73 164.50 C 129.78 164.77 129.23 165.76 129.50 166.72 C 129.77 167.67 130.77 168.22 131.72 167.95 Z M 132.72 167.66 L 133.67 167.39 C 134.62 167.12 135.17 166.13 134.90 165.17 C 134.63 164.22 133.63 163.67 132.68 163.94 L 131.74 164.21 C 130.78 164.48 130.23 165.48 130.50 166.43 C 130.77 167.38 131.77 167.94 132.72 167.66 Z M 133.67 167.39 L 134.62 167.12 C 135.58 166.85 136.13 165.85 135.86 164.90 C 135.58 163.95 134.59 163.39 133.64 163.67 L 132.68 163.94 C 131.72 164.21 131.17 165.21 131.45 166.16 C 131.72 167.11 132.71 167.67 133.67 167.39 Z M 134.63 167.12 L 135.59 166.84 C 136.55 166.57 137.10 165.57 136.82 164.62 C 136.55 163.67 135.56 163.12 134.60 163.39 L 133.64 163.67 C 132.68 163.94 132.13 164.93 132.40 165.89 C 132.68 166.84 133.67 167.39 134.63 167.12 Z M 135.59 166.84 L 136.57 166.56 C 137.52 166.29 138.07 165.29 137.80 164.34 C 137.52 163.39 136.53 162.84 135.58 163.11 L 134.60 163.39 C 133.65 163.66 133.10 164.66 133.37 165.61 C 133.65 166.56 134.64 167.11 135.59 166.84 Z M 136.57 166.56 L 137.54 166.28 C 138.49 166.01 139.04 165.01 138.77 164.06 C 138.49 163.11 137.50 162.56 136.54 162.83 L 135.57 163.11 C 134.62 163.39 134.07 164.38 134.35 165.33 C 134.62 166.29 135.62 166.84 136.57 166.56 Z M 137.54 166.28 L 138.50 166.00 C 139.45 165.73 140.00 164.73 139.73 163.78 C 139.45 162.83 138.46 162.28 137.50 162.55 L 136.54 162.83 C 135.59 163.11 135.04 164.10 135.32 165.06 C 135.59 166.01 136.59 166.56 137.54 166.28 Z M 138.50 166.00 L 139.48 165.72 C 140.43 165.44 140.98 164.44 140.70 163.49 C 140.43 162.54 139.43 161.99 138.48 162.27 L 137.50 162.56 C 136.55 162.83 136.00 163.83 136.28 164.78 C 136.56 165.73 137.55 166.28 138.50 166.00 Z M 139.48 165.71 L 140.46 165.43 C 141.41 165.15 141.96 164.15 141.68 163.21 C 141.40 162.26 140.41 161.71 139.46 161.99 L 138.48 162.27 C 137.53 162.55 136.99 163.55 137.26 164.50 C 137.54 165.45 138.54 165.99 139.48 165.71 Z M 140.47 165.42 L 141.43 165.14 C 142.38 164.86 142.92 163.87 142.65 162.92 C 142.37 161.97 141.37 161.43 140.42 161.71 L 139.46 161.99 C 138.51 162.27 137.97 163.26 138.25 164.21 C 138.52 165.16 139.52 165.70 140.47 165.42 Z M 141.43 165.14 L 142.39 164.86 C 143.34 164.58 143.88 163.58 143.60 162.64 C 143.32 161.69 142.32 161.15 141.38 161.43 L 140.42 161.71 C 139.48 161.99 138.93 162.98 139.21 163.93 C 139.49 164.88 140.49 165.42 141.43 165.14 Z M 142.39 164.85 L 143.34 164.57 C 144.28 164.29 144.82 163.30 144.54 162.35 C 144.26 161.41 143.27 160.87 142.32 161.15 L 141.38 161.43 C 140.43 161.71 139.89 162.70 140.17 163.65 C 140.45 164.59 141.45 165.13 142.39 164.85 Z M 143.34 164.57 L 144.28 164.29 C 145.22 164.01 145.76 163.02 145.48 162.07 C 145.19 161.13 144.20 160.59 143.26 160.87 L 142.32 161.15 C 141.38 161.43 140.84 162.43 141.12 163.37 C 141.40 164.31 142.39 164.85 143.34 164.57 Z M 144.28 164.29 L 145.23 164.00 C 146.17 163.72 146.70 162.73 146.42 161.79 C 146.14 160.85 145.15 160.31 144.21 160.59 L 143.26 160.88 C 142.32 161.16 141.78 162.15 142.06 163.09 C 142.34 164.03 143.34 164.57 144.28 164.29 Z M 145.23 164.00 L 146.19 163.71 C 147.13 163.43 147.66 162.44 147.38 161.50 C 147.10 160.56 146.11 160.03 145.17 160.31 L 144.21 160.60 C 143.27 160.88 142.73 161.87 143.02 162.81 C 143.30 163.75 144.29 164.28 145.23 164.00 Z M 146.19 163.71 L 147.15 163.42 C 148.09 163.14 148.62 162.15 148.34 161.21 C 148.05 160.27 147.06 159.74 146.13 160.02 L 145.17 160.31 C 144.23 160.59 143.70 161.58 143.98 162.52 C 144.26 163.46 145.25 163.99 146.19 163.71 Z M 147.15 163.42 L 148.11 163.13 C 149.04 162.85 149.57 161.86 149.29 160.92 C 149.01 159.99 148.02 159.46 147.08 159.74 L 146.13 160.03 C 145.19 160.31 144.66 161.30 144.94 162.23 C 145.22 163.17 146.21 163.70 147.15 163.42 Z M 148.11 163.13 L 149.06 162.84 C 149.99 162.56 150.52 161.57 150.24 160.63 C 149.96 159.70 148.97 159.17 148.04 159.45 L 147.08 159.74 C 146.15 160.02 145.62 161.01 145.90 161.94 C 146.18 162.88 147.17 163.41 148.11 163.13 Z M 149.06 162.83 L 150.01 162.55 C 150.95 162.26 151.47 161.28 151.19 160.35 C 150.91 159.41 149.93 158.88 148.99 159.17 L 148.04 159.46 C 147.11 159.74 146.58 160.72 146.86 161.66 C 147.14 162.59 148.13 163.12 149.06 162.83 Z M 150.01 162.54 L 150.97 162.25 C 151.90 161.97 152.43 160.99 152.15 160.06 C 151.87 159.13 150.88 158.60 149.95 158.88 L 148.99 159.17 C 148.06 159.45 147.53 160.44 147.82 161.37 C 148.10 162.30 149.08 162.82 150.01 162.54 Z M 150.97 162.25 L 151.93 161.96 C 152.86 161.68 153.39 160.70 153.11 159.77 C 152.82 158.84 151.84 158.31 150.91 158.59 L 149.95 158.88 C 149.02 159.16 148.50 160.15 148.78 161.08 C 149.06 162.00 150.04 162.53 150.97 162.25 Z M 151.93 161.96 L 152.89 161.67 C 153.82 161.39 154.34 160.41 154.06 159.48 C 153.78 158.55 152.80 158.03 151.88 158.31 L 150.92 158.60 C 149.99 158.88 149.46 159.86 149.74 160.78 C 150.02 161.71 151.00 162.24 151.93 161.96 Z M 152.89 161.66 L 153.84 161.38 C 154.77 161.10 155.29 160.12 155.02 159.20 C 154.74 158.27 153.76 157.75 152.84 158.02 L 151.88 158.31 C 150.95 158.59 150.43 159.56 150.71 160.49 C 150.98 161.42 151.96 161.94 152.89 161.66 Z M 153.84 161.37 L 154.80 161.09 C 155.72 160.81 156.25 159.84 155.97 158.91 C 155.69 157.99 154.72 157.47 153.80 157.74 L 152.84 158.03 C 151.92 158.30 151.39 159.28 151.67 160.20 C 151.94 161.12 152.92 161.65 153.84 161.37 Z M 154.79 161.08 L 155.75 160.80 C 156.67 160.53 157.19 159.56 156.92 158.64 C 156.65 157.72 155.68 157.19 154.76 157.46 L 153.80 157.74 C 152.88 158.02 152.36 158.99 152.63 159.91 C 152.90 160.83 153.87 161.36 154.79 161.08 Z M 155.74 160.80 L 156.70 160.51 C 157.63 160.24 158.15 159.28 157.88 158.36 C 157.61 157.44 156.65 156.91 155.73 157.18 L 154.76 157.47 C 153.84 157.74 153.32 158.70 153.59 159.62 C 153.86 160.54 154.82 161.07 155.74 160.80 Z M 156.70 160.51 L 157.67 160.23 C 158.59 159.96 159.11 159.00 158.85 158.08 C 158.58 157.17 157.62 156.64 156.70 156.90 L 155.73 157.19 C 154.81 157.45 154.29 158.41 154.55 159.33 C 154.82 160.25 155.78 160.78 156.70 160.51 Z M 157.66 160.23 L 158.63 159.95 C 159.54 159.68 160.07 158.73 159.81 157.81 C 159.54 156.90 158.59 156.37 157.67 156.63 L 156.71 156.91 C 155.79 157.17 155.26 158.13 155.53 159.04 C 155.79 159.96 156.75 160.49 157.66 160.23 Z M 158.62 159.94 L 159.58 159.67 C 160.49 159.41 161.02 158.46 160.76 157.54 C 160.50 156.63 159.55 156.10 158.64 156.36 L 157.68 156.63 C 156.76 156.89 156.23 157.85 156.49 158.76 C 156.75 159.67 157.71 160.20 158.62 159.94 Z M 159.57 159.67 L 160.53 159.40 C 161.44 159.14 161.97 158.19 161.72 157.28 C 161.46 156.37 160.51 155.84 159.60 156.09 L 158.64 156.36 C 157.73 156.62 157.20 157.57 157.46 158.48 C 157.71 159.39 158.66 159.92 159.57 159.67 Z M 160.53 159.39 L 161.48 159.13 C 162.39 158.87 162.92 157.93 162.67 157.02 C 162.41 156.11 161.47 155.58 160.56 155.83 L 159.61 156.10 C 158.70 156.35 158.16 157.30 158.42 158.21 C 158.67 159.12 159.62 159.65 160.53 159.39 Z M 161.47 159.12 L 162.43 158.86 C 163.34 158.61 163.87 157.67 163.62 156.76 C 163.37 155.86 162.43 155.32 161.52 155.57 L 160.56 155.84 C 159.66 156.09 159.12 157.03 159.38 157.93 C 159.63 158.84 160.56 159.37 161.47 159.12 Z M 162.42 158.85 L 163.38 158.59 C 164.28 158.35 164.81 157.41 164.57 156.51 C 164.32 155.60 163.39 155.07 162.48 155.32 L 161.53 155.58 C 160.62 155.83 160.09 156.76 160.34 157.66 C 160.58 158.57 161.52 159.10 162.42 158.85 Z M 163.37 158.59 L 164.33 158.33 C 165.23 158.08 165.76 157.16 165.52 156.26 C 165.28 155.36 164.35 154.82 163.45 155.07 L 162.49 155.32 C 161.59 155.57 161.06 156.49 161.30 157.39 C 161.54 158.29 162.47 158.83 163.37 158.59 Z M 164.32 158.32 L 165.29 158.06 C 166.18 157.83 166.72 156.91 166.48 156.01 C 166.24 155.11 165.32 154.58 164.42 154.82 L 163.46 155.07 C 162.56 155.31 162.03 156.23 162.27 157.13 C 162.50 158.02 163.42 158.56 164.32 158.32 Z M 165.28 158.06 L 166.25 157.80 C 167.15 157.57 167.68 156.66 167.45 155.76 C 167.21 154.87 166.30 154.34 165.41 154.57 L 164.43 154.82 C 163.54 155.06 163.00 155.97 163.24 156.86 C 163.47 157.76 164.38 158.29 165.28 158.06 Z M 166.24 157.80 L 167.23 157.54 C 168.12 157.31 168.66 156.41 168.43 155.52 C 168.20 154.63 167.29 154.09 166.40 154.32 L 165.41 154.58 C 164.52 154.80 163.99 155.71 164.22 156.60 C 164.45 157.49 165.35 158.03 166.24 157.80 Z M 167.22 157.54 L 168.22 157.28 C 169.11 157.06 169.64 156.16 169.42 155.27 C 169.19 154.39 168.29 153.85 167.41 154.07 L 166.41 154.33 C 165.52 154.55 164.99 155.45 165.21 156.34 C 165.44 157.22 166.34 157.76 167.22 157.54 Z M 168.21 157.28 L 169.21 157.03 C 170.10 156.81 170.63 155.91 170.41 155.03 C 170.19 154.15 169.30 153.61 168.42 153.83 L 167.42 154.08 C 166.53 154.30 166.00 155.20 166.22 156.08 C 166.44 156.96 167.33 157.50 168.21 157.28 Z M 169.21 157.02 L 170.20 156.78 C 171.07 156.56 171.61 155.67 171.40 154.80 C 171.18 153.92 170.29 153.38 169.41 153.60 L 168.42 153.84 C 167.54 154.06 167.01 154.94 167.22 155.82 C 167.44 156.70 168.33 157.24 169.21 157.02 Z M 170.19 156.77 L 171.16 156.54 C 172.03 156.32 172.57 155.44 172.36 154.57 C 172.15 153.69 171.27 153.16 170.39 153.37 L 169.42 153.60 C 168.55 153.81 168.01 154.70 168.22 155.57 C 168.43 156.44 169.31 156.98 170.19 156.77 Z M 171.15 156.53 L 172.09 156.30 C 172.96 156.10 173.50 155.22 173.29 154.35 C 173.08 153.48 172.21 152.94 171.34 153.15 L 170.40 153.37 C 169.53 153.58 168.99 154.46 169.20 155.33 C 169.41 156.20 170.28 156.74 171.15 156.53 Z M 172.08 156.30 L 173.06 156.07 C 173.93 155.86 174.47 155.00 174.26 154.13 C 174.06 153.26 173.19 152.73 172.33 152.93 L 171.34 153.16 C 170.48 153.36 169.94 154.23 170.14 155.10 C 170.35 155.96 171.21 156.50 172.08 156.30 Z M 173.05 156.06 L 174.10 155.82 C 174.97 155.62 175.50 154.76 175.31 153.90 C 175.11 153.04 174.25 152.50 173.39 152.70 L 172.34 152.94 C 171.47 153.14 170.93 153.99 171.13 154.86 C 171.33 155.72 172.19 156.26 173.05 156.06 Z M 174.09 155.81 L 175.08 155.59 C 175.94 155.40 176.48 154.54 176.29 153.69 C 176.09 152.83 175.24 152.29 174.39 152.48 L 173.40 152.71 C 172.54 152.90 172.00 153.75 172.19 154.61 C 172.39 155.46 173.24 156.00 174.09 155.81 Z M 175.07 155.58 L 176.01 155.37 C 176.86 155.18 177.40 154.34 177.21 153.49 C 177.02 152.64 176.18 152.10 175.33 152.29 L 174.39 152.49 C 173.54 152.68 173.00 153.52 173.19 154.38 C 173.38 155.23 174.22 155.77 175.07 155.58 Z M 176.00 155.36 L 176.90 155.17 C 177.74 154.98 178.28 154.15 178.09 153.30 C 177.91 152.46 177.07 151.92 176.23 152.10 L 175.33 152.30 C 174.49 152.48 173.95 153.32 174.14 154.16 C 174.32 155.01 175.15 155.55 176.00 155.36 Z M 176.89 155.16 L 177.82 154.96 C 178.66 154.78 179.19 153.95 179.01 153.11 C 178.83 152.27 178.00 151.73 177.16 151.91 L 176.23 152.11 C 175.39 152.29 174.86 153.12 175.04 153.96 C 175.22 154.81 176.05 155.34 176.89 155.16 Z M 177.81 154.95 L 178.74 154.75 C 179.58 154.57 180.11 153.75 179.93 152.91 C 179.75 152.08 178.93 151.55 178.10 151.72 L 177.16 151.92 C 176.33 152.10 175.80 152.92 175.97 153.76 C 176.15 154.59 176.97 155.13 177.81 154.95 Z M 178.73 154.74 L 179.70 154.54 C 180.53 154.37 181.06 153.55 180.89 152.72 C 180.72 151.89 179.90 151.36 179.07 151.53 L 178.11 151.73 C 177.28 151.91 176.74 152.72 176.92 153.55 C 177.09 154.38 177.90 154.91 178.73 154.74 Z M 179.69 154.53 L 180.72 154.32 C 181.55 154.15 182.08 153.35 181.91 152.52 C 181.75 151.70 180.94 151.16 180.12 151.33 L 179.08 151.54 C 178.26 151.71 177.72 152.51 177.89 153.34 C 178.06 154.16 178.86 154.70 179.69 154.53 Z M 180.71 154.31 L 181.71 154.12 C 182.53 153.96 183.06 153.16 182.90 152.34 C 182.74 151.52 181.94 150.98 181.12 151.14 L 180.13 151.34 C 179.30 151.50 178.77 152.30 178.93 153.12 C 179.09 153.94 179.89 154.47 180.71 154.31 Z M 181.70 154.11 L 182.68 153.92 C 183.50 153.76 184.03 152.97 183.88 152.15 C 183.72 151.34 182.93 150.80 182.11 150.96 L 181.13 151.15 C 180.31 151.31 179.78 152.10 179.93 152.92 C 180.09 153.73 180.88 154.27 181.70 154.11 Z M 182.68 153.91 L 183.69 153.72 C 184.50 153.56 185.04 152.77 184.88 151.96 C 184.72 151.15 183.93 150.62 183.12 150.77 L 182.11 150.97 C 181.30 151.13 180.77 151.91 180.92 152.72 C 181.08 153.54 181.87 154.07 182.68 153.91 Z M 183.69 153.71 L 184.70 153.51 C 185.51 153.35 186.04 152.57 185.88 151.76 C 185.72 150.95 184.93 150.42 184.13 150.58 L 183.12 150.78 C 182.31 150.94 181.78 151.72 181.94 152.53 C 182.10 153.34 182.89 153.87 183.69 153.71 Z M 184.71 153.50 L 185.68 153.30 C 186.49 153.14 187.00 152.36 186.84 151.56 C 186.68 150.75 185.90 150.23 185.10 150.40 L 184.12 150.59 C 183.32 150.76 182.80 151.54 182.96 152.34 C 183.12 153.14 183.90 153.66 184.71 153.50 Z M 185.69 153.29 L 186.72 153.08 C 187.51 152.91 188.02 152.12 187.85 151.33 C 187.68 150.53 186.90 150.02 186.10 150.19 L 185.08 150.41 C 184.29 150.58 183.78 151.36 183.95 152.16 C 184.12 152.95 184.90 153.46 185.69 153.29 Z M 186.73 153.06 L 187.76 152.83 C 188.55 152.65 189.05 151.87 188.87 151.08 C 188.69 150.29 187.91 149.79 187.12 149.97 L 186.09 150.20 C 185.30 150.38 184.80 151.17 184.98 151.95 C 185.16 152.74 185.94 153.24 186.73 153.06 Z M 187.78 152.81 L 188.74 152.59 C 189.52 152.40 190.00 151.62 189.81 150.84 C 189.63 150.06 188.84 149.57 188.06 149.76 L 187.11 149.99 C 186.33 150.17 185.84 150.96 186.03 151.74 C 186.21 152.52 187.00 153.00 187.78 152.81 Z M 188.74 152.57 L 189.66 152.35 C 190.43 152.16 190.90 151.38 190.71 150.60 C 190.52 149.83 189.74 149.36 188.97 149.55 L 188.06 149.77 C 187.28 149.96 186.81 150.74 187.00 151.52 C 187.19 152.29 187.97 152.76 188.74 152.57 Z M 189.66 152.34 L 190.23 152.20 C 190.99 152.00 191.46 151.23 191.27 150.46 C 191.08 149.69 190.30 149.22 189.53 149.42 L 188.97 149.56 C 188.20 149.75 187.73 150.53 187.92 151.29 C 188.11 152.06 188.89 152.53 189.66 152.34 Z"
      fill="black"
      fill-rule="nonzero" /><path d="M 149.35 114.55 L 149.61 115.54 C 149.82 116.37 150.66 116.87 151.49 116.66 C 152.32 116.45 152.82 115.60 152.61 114.77 L 152.36 113.78 C 152.14 112.95 151.30 112.45 150.47 112.66 C 149.64 112.87 149.14 113.72 149.35 114.55 Z M 149.57 115.55 L 149.82 116.54 C 150.04 117.39 150.90 117.90 151.76 117.68 C 152.61 117.47 153.12 116.60 152.90 115.75 L 152.65 114.76 C 152.43 113.91 151.57 113.40 150.71 113.61 C 149.86 113.83 149.35 114.70 149.57 115.55 Z M 149.78 116.55 L 150.03 117.52 C 150.25 118.40 151.14 118.92 152.01 118.70 C 152.89 118.48 153.41 117.59 153.19 116.72 L 152.94 115.74 C 152.72 114.87 151.83 114.34 150.96 114.56 C 150.09 114.79 149.56 115.67 149.78 116.55 Z M 149.99 117.53 L 150.23 118.49 C 150.46 119.38 151.37 119.93 152.26 119.70 C 153.16 119.47 153.70 118.56 153.47 117.67 L 153.23 116.71 C 153.00 115.81 152.09 115.27 151.20 115.50 C 150.31 115.73 149.76 116.64 149.99 117.53 Z M 150.19 118.50 L 150.43 119.43 C 150.66 120.35 151.59 120.91 152.51 120.68 C 153.42 120.44 153.98 119.51 153.75 118.60 L 153.51 117.66 C 153.28 116.75 152.35 116.19 151.44 116.42 C 150.52 116.65 149.96 117.58 150.19 118.50 Z M 150.41 119.44 L 150.64 120.39 C 150.87 121.32 151.82 121.89 152.75 121.66 C 153.68 121.43 154.24 120.48 154.01 119.55 L 153.77 118.60 C 153.54 117.67 152.60 117.10 151.67 117.33 C 150.74 117.56 150.17 118.50 150.41 119.44 Z M 150.63 120.38 L 150.86 121.33 C 151.09 122.27 152.03 122.84 152.97 122.62 C 153.90 122.39 154.48 121.45 154.25 120.51 L 154.02 119.56 C 153.79 118.63 152.85 118.05 151.92 118.28 C 150.98 118.50 150.41 119.45 150.63 120.38 Z M 150.86 121.32 L 151.08 122.27 C 151.29 123.21 152.23 123.80 153.17 123.58 C 154.11 123.36 154.70 122.42 154.48 121.48 L 154.26 120.53 C 154.04 119.59 153.10 119.00 152.16 119.22 C 151.22 119.44 150.64 120.38 150.86 121.32 Z M 151.07 122.25 L 151.28 123.23 C 151.49 124.17 152.42 124.77 153.37 124.56 C 154.31 124.36 154.91 123.42 154.70 122.48 L 154.49 121.50 C 154.28 120.56 153.35 119.96 152.41 120.16 C 151.46 120.37 150.86 121.30 151.07 122.25 Z M 151.27 123.20 L 151.48 124.22 C 151.67 125.17 152.60 125.79 153.55 125.60 C 154.50 125.40 155.11 124.48 154.92 123.53 L 154.71 122.51 C 154.52 121.56 153.59 120.94 152.64 121.13 C 151.69 121.32 151.08 122.25 151.27 123.20 Z M 151.47 124.20 L 151.63 125.07 C 151.81 126.03 152.73 126.66 153.68 126.48 C 154.64 126.30 155.27 125.38 155.09 124.43 L 154.93 123.55 C 154.75 122.60 153.83 121.97 152.88 122.15 C 151.92 122.33 151.29 123.24 151.47 124.20 Z M 151.63 125.05 L 151.79 125.96 C 151.95 126.91 152.86 127.55 153.82 127.39 C 154.78 127.22 155.42 126.31 155.25 125.35 L 155.10 124.45 C 154.93 123.49 154.02 122.85 153.06 123.02 C 152.10 123.18 151.46 124.09 151.63 125.05 Z M 151.78 125.94 L 151.93 126.89 C 152.09 127.85 153.00 128.50 153.96 128.34 C 154.92 128.19 155.57 127.28 155.41 126.32 L 155.26 125.37 C 155.10 124.41 154.20 123.76 153.24 123.91 C 152.28 124.07 151.62 124.98 151.78 125.94 Z M 151.93 126.87 L 152.08 127.87 C 152.23 128.84 153.13 129.50 154.09 129.35 C 155.06 129.20 155.72 128.30 155.57 127.34 L 155.42 126.34 C 155.27 125.38 154.37 124.71 153.41 124.86 C 152.44 125.01 151.78 125.91 151.93 126.87 Z M 152.08 127.86 L 152.23 128.91 C 152.37 129.88 153.26 130.55 154.23 130.41 C 155.20 130.27 155.87 129.38 155.73 128.41 L 155.57 127.36 C 155.44 126.39 154.54 125.72 153.58 125.86 C 152.61 126.00 151.94 126.89 152.08 127.86 Z M 152.23 128.90 L 152.38 130.01 C 152.51 130.98 153.40 131.66 154.37 131.53 C 155.34 131.39 156.01 130.50 155.88 129.54 L 155.73 128.42 C 155.60 127.46 154.71 126.78 153.74 126.91 C 152.77 127.04 152.10 127.93 152.23 128.90 Z M 152.38 130.00 L 152.50 130.95 C 152.62 131.92 153.51 132.60 154.48 132.47 C 155.45 132.35 156.13 131.46 156.01 130.49 L 155.88 129.55 C 155.76 128.58 154.87 127.89 153.90 128.02 C 152.93 128.15 152.25 129.03 152.38 130.00 Z M 152.50 130.94 L 152.61 131.86 C 152.73 132.83 153.62 133.52 154.59 133.40 C 155.55 133.28 156.24 132.39 156.12 131.42 L 156.01 130.50 C 155.89 129.53 155.00 128.84 154.03 128.96 C 153.06 129.08 152.38 129.97 152.50 130.94 Z M 152.61 131.85 L 152.72 132.80 C 152.84 133.77 153.72 134.47 154.69 134.35 C 155.66 134.24 156.35 133.35 156.24 132.38 L 156.12 131.43 C 156.01 130.46 155.13 129.77 154.16 129.88 C 153.19 130.00 152.49 130.88 152.61 131.85 Z M 152.72 132.80 L 152.83 133.78 C 152.95 134.75 153.82 135.44 154.79 135.33 C 155.77 135.22 156.46 134.34 156.35 133.37 L 156.24 132.39 C 156.13 131.42 155.25 130.72 154.28 130.84 C 153.31 130.95 152.61 131.82 152.72 132.80 Z M 152.83 133.77 L 152.94 134.77 C 153.05 135.75 153.92 136.45 154.90 136.34 C 155.87 136.23 156.57 135.36 156.46 134.39 L 156.35 133.38 C 156.25 132.41 155.37 131.71 154.40 131.81 C 153.43 131.92 152.73 132.80 152.83 133.77 Z M 152.94 134.77 L 153.05 135.80 C 153.15 136.77 154.02 137.47 155.00 137.37 C 155.97 137.27 156.67 136.40 156.57 135.43 L 156.46 134.40 C 156.36 133.42 155.49 132.72 154.52 132.82 C 153.55 132.92 152.84 133.79 152.94 134.77 Z M 153.05 135.79 L 153.15 136.84 C 153.25 137.81 154.12 138.52 155.09 138.43 C 156.06 138.33 156.77 137.46 156.68 136.49 L 156.57 135.44 C 156.48 134.46 155.61 133.75 154.64 133.85 C 153.66 133.95 152.95 134.81 153.05 135.79 Z M 153.15 136.83 L 153.25 137.90 C 153.35 138.88 154.21 139.59 155.18 139.50 C 156.16 139.41 156.87 138.54 156.78 137.57 L 156.68 136.50 C 156.59 135.52 155.72 134.81 154.75 134.90 C 153.78 134.99 153.06 135.86 153.15 136.83 Z M 153.25 137.89 L 153.34 138.87 C 153.43 139.84 154.29 140.56 155.26 140.47 C 156.24 140.39 156.96 139.53 156.87 138.55 L 156.78 137.58 C 156.69 136.60 155.83 135.88 154.86 135.97 C 153.88 136.06 153.17 136.92 153.25 137.89 Z M 153.34 138.86 L 153.42 139.81 C 153.51 140.78 154.36 141.51 155.34 141.42 C 156.31 141.34 157.03 140.48 156.95 139.51 L 156.87 138.56 C 156.79 137.59 155.93 136.86 154.95 136.95 C 153.98 137.03 153.26 137.89 153.34 138.86 Z M 153.42 139.80 L 153.50 140.76 C 153.58 141.74 154.43 142.46 155.41 142.39 C 156.38 142.31 157.11 141.45 157.03 140.48 L 156.95 139.52 C 156.87 138.54 156.02 137.82 155.04 137.90 C 154.07 137.97 153.34 138.83 153.42 139.80 Z M 153.50 140.76 L 153.57 141.73 C 153.65 142.71 154.50 143.44 155.47 143.36 C 156.44 143.29 157.17 142.44 157.10 141.47 L 157.03 140.49 C 156.95 139.52 156.10 138.79 155.13 138.86 C 154.16 138.93 153.43 139.78 153.50 140.76 Z M 153.57 141.72 L 153.64 142.71 C 153.71 143.69 154.56 144.42 155.53 144.35 C 156.50 144.28 157.24 143.44 157.17 142.46 L 157.10 141.47 C 157.03 140.50 156.19 139.77 155.21 139.83 C 154.24 139.90 153.50 140.75 153.57 141.72 Z M 153.64 142.70 L 153.71 143.71 C 153.77 144.68 154.61 145.42 155.58 145.36 C 156.56 145.29 157.30 144.45 157.23 143.48 L 157.17 142.47 C 157.11 141.50 156.27 140.76 155.29 140.82 C 154.32 140.89 153.58 141.73 153.64 142.70 Z M 153.71 143.70 L 153.77 144.71 C 153.82 145.69 154.66 146.43 155.63 146.37 C 156.61 146.32 157.35 145.48 157.29 144.51 L 157.23 143.49 C 157.18 142.51 156.34 141.77 155.37 141.83 C 154.39 141.89 153.65 142.72 153.71 143.70 Z M 153.77 144.70 L 153.82 145.74 C 153.87 146.71 154.70 147.46 155.68 147.41 C 156.65 147.36 157.40 146.53 157.35 145.55 L 157.29 144.52 C 157.24 143.54 156.41 142.80 155.44 142.85 C 154.46 142.90 153.72 143.73 153.77 144.70 Z M 153.82 145.73 L 153.87 146.78 C 153.92 147.75 154.74 148.50 155.72 148.46 C 156.69 148.41 157.44 147.59 157.40 146.61 L 157.35 145.56 C 157.30 144.59 156.48 143.84 155.50 143.88 C 154.53 143.93 153.78 144.75 153.82 145.73 Z M 153.87 146.77 L 153.91 147.78 C 153.95 148.76 154.77 149.52 155.75 149.48 C 156.72 149.44 157.48 148.62 157.44 147.64 L 157.40 146.62 C 157.36 145.65 156.54 144.89 155.56 144.93 C 154.59 144.97 153.83 145.79 153.87 146.77 Z M 153.91 147.77 L 153.95 148.73 C 153.98 149.70 154.80 150.46 155.77 150.43 C 156.74 150.39 157.51 149.58 157.47 148.60 L 157.44 147.65 C 157.40 146.68 156.59 145.92 155.61 145.95 C 154.64 145.98 153.88 146.80 153.91 147.77 Z M 153.95 148.72 L 153.97 149.68 C 154.00 150.66 154.82 151.42 155.79 151.39 C 156.76 151.36 157.53 150.55 157.50 149.58 L 157.47 148.61 C 157.44 147.64 156.63 146.87 155.66 146.90 C 154.68 146.93 153.92 147.75 153.95 148.72 Z M 153.97 149.68 L 154.00 150.65 C 154.02 151.63 154.83 152.40 155.81 152.37 C 156.78 152.35 157.55 151.54 157.53 150.56 L 157.50 149.59 C 157.48 148.61 156.67 147.84 155.69 147.87 C 154.72 147.89 153.95 148.70 153.97 149.68 Z M 154.00 150.65 L 154.02 151.63 C 154.04 152.61 154.85 153.38 155.82 153.36 C 156.80 153.34 157.57 152.53 157.55 151.56 L 157.53 150.57 C 157.50 149.59 156.70 148.82 155.72 148.84 C 154.75 148.87 153.98 149.67 154.00 150.65 Z M 154.02 151.63 L 154.04 152.63 C 154.06 153.60 154.86 154.37 155.84 154.36 C 156.81 154.34 157.58 153.53 157.57 152.56 L 157.55 151.56 C 157.53 150.59 156.73 149.81 155.75 149.83 C 154.78 149.85 154.00 150.65 154.02 151.63 Z M 154.04 152.62 L 154.06 153.63 C 154.07 154.60 154.87 155.38 155.85 155.36 C 156.82 155.35 157.60 154.55 157.58 153.57 L 157.57 152.57 C 157.55 151.59 156.75 150.82 155.78 150.83 C 154.80 150.85 154.03 151.65 154.04 152.62 Z M 154.06 153.62 L 154.07 154.64 C 154.08 155.61 154.88 156.39 155.85 156.38 C 156.83 156.37 157.61 155.57 157.59 154.60 L 157.58 153.58 C 157.57 152.61 156.77 151.83 155.80 151.84 C 154.82 151.85 154.04 152.65 154.06 153.62 Z M 154.07 154.64 L 154.08 155.66 C 154.09 156.64 154.89 157.42 155.86 157.41 C 156.83 157.40 157.61 156.60 157.60 155.63 L 157.59 154.60 C 157.58 153.63 156.79 152.85 155.81 152.86 C 154.84 152.87 154.06 153.66 154.07 154.64 Z M 154.08 155.66 L 154.09 156.69 C 154.10 157.67 154.89 158.45 155.87 158.44 C 156.84 158.43 157.62 157.64 157.61 156.66 L 157.60 155.63 C 157.60 154.66 156.80 153.88 155.83 153.88 C 154.85 153.89 154.07 154.69 154.08 155.66 Z M 154.09 156.69 L 154.10 157.73 C 154.10 158.71 154.90 159.49 155.87 159.48 C 156.84 159.48 157.63 158.68 157.62 157.71 L 157.61 156.67 C 157.60 155.69 156.81 154.91 155.84 154.92 C 154.87 154.93 154.08 155.72 154.09 156.69 Z M 154.10 157.73 L 154.10 158.73 C 154.11 159.70 154.90 160.48 155.87 160.48 C 156.85 160.47 157.63 159.68 157.62 158.71 L 157.62 157.71 C 157.61 156.74 156.82 155.96 155.85 155.96 C 154.88 155.97 154.09 156.76 154.10 157.73 Z M 154.11 158.73 L 154.11 159.71 C 154.11 160.68 154.91 161.47 155.88 161.46 C 156.85 161.46 157.63 160.67 157.63 159.70 L 157.62 158.71 C 157.62 157.74 156.83 156.95 155.86 156.96 C 154.88 156.96 154.10 157.75 154.11 158.73 Z M 154.11 159.71 L 154.12 160.70 C 154.12 161.67 154.91 162.45 155.88 162.45 C 156.85 162.45 157.63 161.66 157.63 160.69 L 157.62 159.70 C 157.62 158.73 156.83 157.94 155.86 157.95 C 154.89 157.95 154.11 158.74 154.11 159.71 Z M 154.12 160.70 L 154.12 161.69 C 154.12 162.66 154.91 163.45 155.88 163.44 C 156.85 163.44 157.63 162.65 157.63 161.69 L 157.63 160.69 C 157.62 159.72 156.84 158.94 155.87 158.94 C 154.90 158.94 154.11 159.73 154.12 160.70 Z M 154.12 161.69 L 154.12 162.69 C 154.12 163.66 154.91 164.44 155.88 164.44 C 156.85 164.44 157.63 163.65 157.63 162.69 L 157.63 161.69 C 157.63 160.72 156.84 159.94 155.87 159.94 C 154.90 159.94 154.12 160.72 154.12 161.69 Z M 154.12 162.69 L 154.12 163.69 C 154.13 164.66 154.91 165.44 155.88 165.44 C 156.84 165.44 157.63 164.66 157.63 163.69 L 157.63 162.69 C 157.63 161.72 156.84 160.94 155.87 160.94 C 154.91 160.94 154.12 161.72 154.12 162.69 Z M 154.13 163.69 L 154.13 164.69 C 154.13 165.66 154.91 166.44 155.87 166.45 C 156.84 166.45 157.62 165.66 157.62 164.70 L 157.63 163.69 C 157.63 162.73 156.84 161.94 155.88 161.94 C 154.91 161.94 154.13 162.72 154.13 163.69 Z M 154.13 164.69 L 154.13 165.70 C 154.12 166.66 154.91 167.45 155.87 167.45 C 156.84 167.45 157.62 166.67 157.62 165.71 L 157.62 164.70 C 157.62 163.73 156.84 162.95 155.88 162.95 C 154.91 162.95 154.13 163.73 154.13 164.69 Z M 154.13 165.70 L 154.13 166.71 C 154.12 167.67 154.90 168.45 155.87 168.46 C 156.83 168.46 157.61 167.68 157.62 166.72 L 157.62 165.71 C 157.62 164.74 156.84 163.96 155.88 163.96 C 154.91 163.95 154.13 164.73 154.13 165.70 Z M 154.13 166.70 L 154.12 167.71 C 154.12 168.68 154.90 169.46 155.86 169.46 C 156.82 169.47 157.61 168.69 157.61 167.73 L 157.61 166.72 C 157.62 165.75 156.84 164.97 155.88 164.97 C 154.91 164.96 154.13 165.74 154.13 166.70 Z M 154.13 167.71 L 154.12 168.72 C 154.12 169.68 154.89 170.46 155.85 170.47 C 156.82 170.47 157.60 169.70 157.60 168.74 L 157.61 167.73 C 157.61 166.77 156.84 165.98 155.88 165.98 C 154.91 165.97 154.13 166.75 154.13 167.71 Z M 154.12 168.72 L 154.12 169.73 C 154.11 170.69 154.89 171.47 155.85 171.48 C 156.81 171.49 157.59 170.71 157.60 169.75 L 157.60 168.74 C 157.61 167.78 156.83 166.99 155.87 166.99 C 154.91 166.98 154.13 167.76 154.12 168.72 Z M 154.12 169.73 L 154.11 170.75 C 154.11 171.71 154.88 172.49 155.84 172.50 C 156.80 172.50 157.58 171.73 157.59 170.77 L 157.59 169.75 C 157.60 168.79 156.83 168.01 155.87 168.00 C 154.91 168.00 154.13 168.77 154.12 169.73 Z M 154.12 170.74 L 154.11 171.76 C 154.10 172.72 154.87 173.50 155.83 173.51 C 156.78 173.52 157.57 172.75 157.57 171.79 L 157.58 170.77 C 157.59 169.82 156.82 169.03 155.86 169.02 C 154.91 169.02 154.12 169.79 154.12 170.74 Z M 154.11 171.76 L 154.10 172.77 C 154.09 173.73 154.85 174.51 155.81 174.52 C 156.77 174.53 157.55 173.76 157.56 172.81 L 157.57 171.79 C 157.58 170.84 156.82 170.05 155.86 170.04 C 154.90 170.03 154.12 170.80 154.11 171.76 Z M 154.10 172.76 L 154.09 173.77 C 154.08 174.73 154.84 175.51 155.79 175.53 C 156.75 175.54 157.53 174.78 157.54 173.82 L 157.56 172.81 C 157.57 171.86 156.81 171.07 155.85 171.06 C 154.90 171.05 154.11 171.81 154.10 172.76 Z M 154.09 173.77 L 154.07 174.78 C 154.06 175.73 154.82 176.51 155.77 176.53 C 156.72 176.54 157.51 175.79 157.52 174.83 L 157.54 173.83 C 157.56 172.87 156.80 172.09 155.84 172.07 C 154.89 172.06 154.11 172.82 154.09 173.77 Z M 154.08 174.77 L 154.06 175.77 C 154.04 176.72 154.79 177.51 155.74 177.53 C 156.69 177.55 157.48 176.79 157.50 175.84 L 157.52 174.84 C 157.54 173.89 156.79 173.10 155.83 173.08 C 154.88 173.06 154.10 173.82 154.08 174.77 Z M 154.06 175.76 L 154.04 176.76 C 154.01 177.71 154.76 178.50 155.71 178.52 C 156.66 178.54 157.45 177.79 157.47 176.84 L 157.50 175.85 C 157.52 174.90 156.77 174.11 155.82 174.09 C 154.87 174.06 154.08 174.81 154.06 175.76 Z M 154.04 176.75 L 154.01 177.74 C 153.98 178.69 154.73 179.48 155.68 179.51 C 156.62 179.54 157.41 178.79 157.44 177.84 L 157.47 176.85 C 157.50 175.90 156.75 175.11 155.80 175.09 C 154.86 175.06 154.07 175.80 154.04 176.75 Z M 154.01 177.73 L 153.98 178.72 C 153.95 179.66 154.69 180.46 155.63 180.49 C 156.58 180.52 157.37 179.78 157.40 178.84 L 157.44 177.85 C 157.47 176.91 156.73 176.11 155.78 176.08 C 154.84 176.05 154.05 176.79 154.01 177.73 Z M 153.98 178.71 L 153.94 179.68 C 153.91 180.63 154.64 181.42 155.58 181.46 C 156.53 181.50 157.32 180.77 157.36 179.82 L 157.40 178.85 C 157.44 177.90 156.70 177.11 155.76 177.07 C 154.82 177.03 154.02 177.76 153.98 178.71 Z M 153.95 179.67 L 153.90 180.66 C 153.86 181.60 154.58 182.40 155.53 182.44 C 156.47 182.48 157.27 181.76 157.31 180.81 L 157.36 179.83 C 157.40 178.89 156.67 178.09 155.73 178.05 C 154.79 178.00 153.99 178.73 153.95 179.67 Z M 153.91 180.64 L 153.85 181.67 C 153.80 182.61 154.52 183.41 155.46 183.46 C 156.40 183.51 157.20 182.79 157.25 181.85 L 157.31 180.83 C 157.36 179.89 156.64 179.08 155.70 179.03 C 154.76 178.98 153.96 179.70 153.91 180.64 Z M 153.86 181.66 L 153.79 182.68 C 153.74 183.61 154.45 184.42 155.39 184.48 C 156.32 184.53 157.13 183.82 157.19 182.88 L 157.25 181.86 C 157.30 180.93 156.59 180.12 155.65 180.07 C 154.72 180.01 153.91 180.72 153.86 181.66 Z M 153.80 182.67 L 153.73 183.68 C 153.67 184.61 154.38 185.42 155.31 185.48 C 156.24 185.54 157.05 184.84 157.11 183.90 L 157.18 182.89 C 157.24 181.96 156.54 181.15 155.60 181.09 C 154.67 181.03 153.86 181.73 153.80 182.67 Z M 153.74 183.67 L 153.66 184.67 C 153.60 185.60 154.30 186.41 155.23 186.48 C 156.16 186.54 156.97 185.84 157.04 184.91 L 157.11 183.91 C 157.18 182.98 156.47 182.17 155.54 182.10 C 154.61 182.04 153.80 182.74 153.74 183.67 Z M 153.67 184.66 L 153.59 185.66 C 153.52 186.59 154.22 187.40 155.15 187.47 C 156.08 187.54 156.89 186.84 156.96 185.92 L 157.03 184.92 C 157.10 183.99 156.41 183.18 155.48 183.11 C 154.55 183.04 153.74 183.74 153.67 184.66 Z M 153.60 185.66 L 153.52 186.65 C 153.45 187.57 154.14 188.38 155.07 188.46 C 155.99 188.53 156.80 187.84 156.87 186.91 L 156.95 185.92 C 157.03 184.99 156.33 184.18 155.41 184.11 C 154.48 184.04 153.67 184.73 153.60 185.66 Z M 153.53 186.64 L 153.44 187.63 C 153.37 188.55 154.06 189.36 154.98 189.44 C 155.90 189.51 156.71 188.83 156.79 187.90 L 156.87 186.92 C 156.95 185.99 156.26 185.18 155.33 185.11 C 154.41 185.03 153.60 185.72 153.53 186.64 Z M 153.45 187.63 L 153.37 188.61 C 153.29 189.53 153.97 190.34 154.90 190.42 C 155.82 190.49 156.63 189.81 156.70 188.89 L 156.79 187.91 C 156.86 186.98 156.18 186.18 155.26 186.10 C 154.34 186.02 153.53 186.71 153.45 187.63 Z M 153.37 188.61 L 153.29 189.59 C 153.21 190.51 153.89 191.31 154.81 191.39 C 155.73 191.47 156.54 190.79 156.62 189.87 L 156.70 188.89 C 156.78 187.97 156.09 187.16 155.18 187.09 C 154.26 187.01 153.45 187.69 153.37 188.61 Z M 153.29 189.59 L 153.21 190.57 C 153.13 191.48 153.81 192.29 154.73 192.37 C 155.65 192.44 156.45 191.76 156.53 190.85 L 156.61 189.87 C 156.69 188.95 156.01 188.15 155.09 188.07 C 154.18 187.99 153.37 188.67 153.29 189.59 Z M 153.21 190.57 L 153.13 191.60 C 153.05 192.51 153.73 193.31 154.65 193.39 C 155.56 193.47 156.36 192.79 156.44 191.87 L 156.52 190.84 C 156.60 189.93 155.92 189.13 155.01 189.05 C 154.09 188.97 153.29 189.65 153.21 190.57 Z M 153.13 191.60 L 153.05 192.65 C 152.97 193.56 153.65 194.36 154.56 194.44 C 155.47 194.51 156.27 193.83 156.35 192.92 L 156.43 191.87 C 156.51 190.96 155.83 190.16 154.92 190.09 C 154.01 190.01 153.21 190.69 153.13 191.60 Z M 153.05 192.65 L 152.97 193.69 C 152.89 194.60 153.57 195.40 154.48 195.47 C 155.39 195.55 156.18 194.87 156.26 193.96 L 156.34 192.92 C 156.42 192.01 155.74 191.21 154.83 191.14 C 153.92 191.06 153.12 191.74 153.05 192.65 Z M 152.97 193.70 L 152.89 194.73 C 152.81 195.64 153.49 196.43 154.40 196.50 C 155.30 196.58 156.10 195.90 156.17 194.99 L 156.25 193.96 C 156.33 193.05 155.65 192.26 154.74 192.19 C 153.84 192.11 153.04 192.79 152.97 193.70 Z M 152.89 194.73 L 152.81 195.75 C 152.74 196.65 153.41 197.45 154.32 197.52 C 155.22 197.59 156.01 196.92 156.09 196.01 L 156.17 194.99 C 156.24 194.09 155.56 193.30 154.66 193.22 C 153.75 193.15 152.96 193.83 152.89 194.73 Z M 152.81 195.75 L 152.74 196.76 C 152.66 197.66 153.34 198.45 154.24 198.52 C 155.14 198.59 155.93 197.91 156.00 197.01 L 156.08 196.01 C 156.15 195.11 155.48 194.32 154.58 194.25 C 153.67 194.18 152.89 194.85 152.81 195.75 Z M 152.74 196.76 L 152.66 197.74 C 152.59 198.64 153.26 199.43 154.16 199.50 C 155.06 199.57 155.85 198.90 155.92 198.00 L 156.00 197.01 C 156.07 196.11 155.40 195.33 154.50 195.25 C 153.60 195.18 152.81 195.86 152.74 196.76 Z M 152.67 197.74 L 152.59 198.70 C 152.52 199.60 153.19 200.38 154.09 200.45 C 154.99 200.52 155.77 199.85 155.84 198.96 L 155.92 197.99 C 155.99 197.10 155.32 196.31 154.42 196.24 C 153.52 196.17 152.74 196.84 152.67 197.74 Z M 152.60 198.70 L 152.52 199.64 C 152.46 200.54 153.13 201.32 154.02 201.39 C 154.92 201.45 155.70 200.79 155.77 199.89 L 155.84 198.95 C 155.91 198.06 155.24 197.28 154.34 197.21 C 153.45 197.14 152.67 197.81 152.60 198.70 Z M 152.53 199.64 L 152.46 200.55 C 152.39 201.44 153.06 202.22 153.95 202.29 C 154.84 202.36 155.62 201.69 155.69 200.80 L 155.76 199.89 C 155.83 199.00 155.16 198.22 154.27 198.15 C 153.38 198.08 152.60 198.75 152.53 199.64 Z M 152.46 200.55 L 152.38 201.67 C 152.31 202.56 152.98 203.33 153.87 203.40 C 154.76 203.47 155.53 202.80 155.60 201.91 L 155.69 200.79 C 155.75 199.90 155.09 199.13 154.20 199.06 C 153.31 198.99 152.53 199.66 152.46 200.55 Z M 152.38 201.67 L 152.30 202.74 C 152.24 203.63 152.90 204.41 153.79 204.47 C 154.68 204.54 155.45 203.87 155.52 202.99 L 155.60 201.91 C 155.66 201.02 155.00 200.25 154.11 200.18 C 153.22 200.11 152.45 200.78 152.38 201.67 Z M 152.31 202.75 L 152.23 203.78 C 152.16 204.66 152.83 205.44 153.71 205.50 C 154.60 205.57 155.37 204.90 155.43 204.02 L 155.51 202.99 C 155.58 202.10 154.91 201.33 154.03 201.26 C 153.14 201.20 152.37 201.86 152.31 202.75 Z M 152.23 203.78 L 152.16 204.78 C 152.10 205.66 152.76 206.43 153.64 206.49 C 154.52 206.56 155.29 205.90 155.36 205.01 L 155.43 204.02 C 155.50 203.13 154.83 202.37 153.95 202.30 C 153.07 202.24 152.30 202.90 152.23 203.78 Z M 152.17 204.78 L 152.10 205.74 C 152.03 206.62 152.69 207.39 153.57 207.45 C 154.45 207.51 155.22 206.85 155.28 205.97 L 155.35 205.01 C 155.42 204.13 154.75 203.37 153.87 203.30 C 152.99 203.24 152.23 203.90 152.17 204.78 Z M 152.10 205.74 L 152.03 206.68 C 151.97 207.56 152.63 208.32 153.51 208.38 C 154.39 208.44 155.15 207.78 155.21 206.91 L 155.28 205.97 C 155.34 205.09 154.68 204.33 153.80 204.27 C 152.92 204.21 152.16 204.87 152.10 205.74 Z M 152.04 206.68 L 151.97 207.59 C 151.91 208.47 152.57 209.23 153.45 209.29 C 154.32 209.35 155.08 208.69 155.14 207.82 L 155.21 206.90 C 155.27 206.03 154.61 205.27 153.73 205.21 C 152.86 205.15 152.10 205.81 152.04 206.68 Z M 151.98 207.60 L 151.91 208.56 C 151.85 209.44 152.51 210.19 153.38 210.25 C 154.26 210.31 155.01 209.65 155.07 208.78 L 155.14 207.81 C 155.20 206.94 154.54 206.19 153.67 206.13 C 152.79 206.07 152.04 206.72 151.98 207.60 Z M 151.91 208.57 L 151.84 209.61 C 151.79 210.48 152.44 211.24 153.32 211.29 C 154.19 211.35 154.94 210.69 155.00 209.82 L 155.07 208.78 C 155.13 207.91 154.47 207.15 153.60 207.09 C 152.72 207.04 151.97 207.70 151.91 208.57 Z M 151.84 209.61 L 151.78 210.64 C 151.72 211.51 152.38 212.26 153.26 212.31 C 154.13 212.37 154.88 211.71 154.93 210.84 L 155.00 209.82 C 155.05 208.94 154.39 208.19 153.52 208.14 C 152.65 208.08 151.90 208.74 151.84 209.61 Z M 151.78 210.64 L 151.72 211.65 C 151.67 212.52 152.33 213.26 153.20 213.32 C 154.07 213.37 154.82 212.71 154.87 211.84 L 154.93 210.83 C 154.98 209.96 154.32 209.21 153.45 209.16 C 152.58 209.11 151.83 209.77 151.78 210.64 Z M 151.72 211.65 L 151.66 212.63 C 151.62 213.50 152.28 214.25 153.15 214.30 C 154.02 214.35 154.76 213.68 154.81 212.81 L 154.87 211.83 C 154.92 210.96 154.25 210.22 153.38 210.17 C 152.52 210.12 151.77 210.78 151.72 211.65 Z M 151.67 212.64 L 151.62 213.61 C 151.57 214.48 152.24 215.22 153.11 215.26 C 153.98 215.31 154.72 214.64 154.76 213.77 L 154.81 212.81 C 154.86 211.94 154.19 211.20 153.32 211.15 C 152.45 211.11 151.71 211.77 151.67 212.64 Z M 151.62 213.61 L 151.57 214.57 C 151.53 215.44 152.20 216.17 153.07 216.21 C 153.94 216.25 154.68 215.58 154.72 214.72 L 154.76 213.76 C 154.80 212.89 154.13 212.16 153.26 212.12 C 152.39 212.08 151.66 212.75 151.62 213.61 Z M 151.57 214.58 L 151.53 215.63 C 151.49 216.50 152.17 217.23 153.04 217.27 C 153.91 217.30 154.64 216.63 154.67 215.76 L 154.72 214.71 C 154.75 213.84 154.08 213.10 153.21 213.07 C 152.34 213.03 151.61 213.71 151.57 214.58 Z M 151.53 215.64 L 151.49 216.67 C 151.46 217.54 152.14 218.27 153.01 218.30 C 153.88 218.33 154.61 217.65 154.64 216.78 L 154.68 215.75 C 154.71 214.88 154.03 214.15 153.16 214.12 C 152.29 214.09 151.56 214.77 151.53 215.64 Z M 151.49 216.67 L 151.46 217.68 C 151.43 218.55 152.11 219.28 152.99 219.30 C 153.86 219.33 154.59 218.65 154.61 217.77 L 154.64 216.77 C 154.67 215.90 153.99 215.17 153.11 215.14 C 152.24 215.12 151.51 215.80 151.49 216.67 Z M 151.45 217.68 L 151.43 218.66 C 151.40 219.54 152.09 220.26 152.96 220.29 C 153.84 220.31 154.56 219.62 154.59 218.75 L 154.62 217.77 C 154.64 216.90 153.95 216.17 153.08 216.14 C 152.20 216.12 151.48 216.81 151.45 217.68 Z M 151.42 218.67 L 151.40 219.62 C 151.38 220.50 152.07 221.23 152.94 221.25 C 153.82 221.27 154.54 220.58 154.57 219.70 L 154.59 218.75 C 154.61 217.87 153.92 217.15 153.05 217.12 C 152.17 217.10 151.45 217.79 151.42 218.67 Z M 151.40 219.62 L 151.37 220.61 C 151.35 221.49 152.04 222.22 152.92 222.24 C 153.79 222.26 154.52 221.57 154.54 220.69 L 154.57 219.70 C 154.59 218.83 153.90 218.10 153.02 218.08 C 152.15 218.06 151.42 218.75 151.40 219.62 Z M 151.37 220.61 L 151.34 221.63 C 151.32 222.51 152.01 223.24 152.89 223.26 C 153.77 223.29 154.50 222.59 154.52 221.71 L 154.55 220.69 C 154.57 219.81 153.88 219.08 153.00 219.06 C 152.12 219.04 151.39 219.73 151.37 220.61 Z M 151.33 221.63 L 151.31 222.63 C 151.28 223.52 151.98 224.25 152.86 224.27 C 153.75 224.30 154.48 223.60 154.50 222.72 L 154.53 221.72 C 154.55 220.83 153.86 220.10 152.97 220.07 C 152.09 220.05 151.36 220.75 151.33 221.63 Z M 151.30 222.63 L 151.27 223.62 C 151.25 224.51 151.95 225.24 152.84 225.27 C 153.72 225.29 154.46 224.59 154.48 223.71 L 154.51 222.72 C 154.53 221.83 153.83 221.09 152.95 221.07 C 152.06 221.05 151.32 221.75 151.30 222.63 Z M 151.27 223.62 L 151.24 224.60 C 151.22 225.49 151.92 226.23 152.81 226.25 C 153.70 226.28 154.44 225.58 154.46 224.69 L 154.49 223.71 C 154.51 222.82 153.81 222.08 152.92 222.05 C 152.03 222.03 151.29 222.73 151.27 223.62 Z M 151.24 224.60 L 151.22 225.11 C 151.20 226.00 151.90 226.75 152.79 226.77 C 153.69 226.79 154.43 226.09 154.45 225.20 L 154.47 224.69 C 154.49 223.80 153.79 223.05 152.90 223.03 C 152.00 223.00 151.26 223.71 151.24 224.60 Z"
      fill="black"
      fill-rule="nonzero" /></svg>