<svg xmlns="http://www.w3.org/2000/svg" width="300" height="300" viewBox="0 0 300 300">
<path d="M 136.84 135.61 L 137.59 134.94 C 138.25 134.35 138.32 133.34 137.73 132.67 C 137.14 132.01 136.13 131.95 135.46 132.53 L 134.71 133.20 C 134.05 133.79 133.98 134.80 134.57 135.47 C 135.16 136.13 136.17 136.19 136.84 135.61 Z M 137.53 135.01 L 138.31 134.39 C 139.02 133.84 139.14 132.82 138.58 132.12 C 138.03 131.41 137.01 131.29 136.31 131.85 L 135.52 132.46 C 134.82 133.02 134.70 134.04 135.25 134.74 C 135.81 135.44 136.83 135.56 137.53 135.01 Z M 138.17 134.51 L 139.01 133.99 C 139.78 133.51 140.02 132.50 139.54 131.74 C 139.07 130.97 138.06 130.73 137.29 131.21 L 136.45 131.73 C 135.68 132.20 135.44 133.21 135.92 133.98 C 136.39 134.75 137.40 134.99 138.17 134.51 Z M 138.79 134.12 L 139.63 133.77 C 140.47 133.42 140.86 132.45 140.51 131.61 C 140.16 130.77 139.20 130.38 138.36 130.73 L 137.52 131.08 C 136.68 131.43 136.28 132.39 136.63 133.23 C 136.98 134.07 137.95 134.47 138.79 134.12 Z M 139.41 133.84 L 140.22 133.63 C 141.10 133.40 141.63 132.50 141.40 131.62 C 141.18 130.74 140.28 130.21 139.40 130.44 L 138.58 130.65 C 137.70 130.88 137.17 131.78 137.40 132.66 C 137.63 133.54 138.53 134.07 139.41 133.84 Z M 140.09 133.65 L 141.02 133.49 C 141.91 133.33 142.51 132.48 142.35 131.59 C 142.20 130.70 141.35 130.10 140.46 130.26 L 139.53 130.42 C 138.64 130.57 138.04 131.42 138.20 132.31 C 138.35 133.21 139.20 133.80 140.09 133.65 Z M 140.96 133.49 L 142.02 133.34 C 142.91 133.22 143.54 132.40 143.41 131.50 C 143.29 130.61 142.46 129.99 141.57 130.11 L 140.51 130.26 C 139.62 130.38 139.00 131.20 139.12 132.10 C 139.24 132.99 140.07 133.61 140.96 133.49 Z M 142.02 133.34 L 143.23 133.17 C 144.12 133.04 144.74 132.22 144.62 131.33 C 144.50 130.44 143.68 129.82 142.79 129.95 L 141.57 130.12 C 140.68 130.24 140.06 131.06 140.18 131.95 C 140.31 132.84 141.13 133.46 142.02 133.34 Z M 143.26 133.16 L 144.21 133.01 C 145.09 132.87 145.70 132.04 145.56 131.16 C 145.42 130.28 144.59 129.67 143.71 129.81 L 142.76 129.96 C 141.88 130.09 141.27 130.92 141.41 131.81 C 141.55 132.69 142.38 133.29 143.26 133.16 Z M 144.23 133.00 L 145.23 132.83 C 146.11 132.68 146.71 131.85 146.56 130.97 C 146.41 130.09 145.58 129.50 144.70 129.65 L 143.69 129.82 C 142.81 129.97 142.22 130.80 142.37 131.68 C 142.52 132.56 143.35 133.15 144.23 133.00 Z M 145.25 132.82 L 146.28 132.64 C 147.16 132.48 147.74 131.65 147.59 130.77 C 147.43 129.90 146.59 129.32 145.72 129.47 L 144.68 129.66 C 143.81 129.81 143.23 130.65 143.38 131.52 C 143.54 132.40 144.37 132.98 145.25 132.82 Z M 146.29 132.63 L 147.33 132.44 C 148.20 132.28 148.77 131.44 148.61 130.57 C 148.45 129.70 147.61 129.12 146.74 129.29 L 145.71 129.48 C 144.84 129.64 144.26 130.48 144.42 131.35 C 144.59 132.22 145.42 132.79 146.29 132.63 Z M 147.34 132.43 L 148.33 132.24 C 149.20 132.07 149.77 131.23 149.60 130.37 C 149.43 129.50 148.59 128.93 147.73 129.10 L 146.73 129.29 C 145.86 129.46 145.30 130.30 145.46 131.17 C 145.63 132.03 146.47 132.60 147.34 132.43 Z M 148.34 132.23 L 149.27 132.05 C 150.14 131.87 150.70 131.03 150.52 130.17 C 150.35 129.31 149.51 128.75 148.65 128.92 L 147.72 129.11 C 146.85 129.28 146.29 130.12 146.47 130.98 C 146.64 131.85 147.48 132.40 148.34 132.23 Z M 149.28 132.03 L 150.39 131.80 C 151.25 131.62 151.80 130.78 151.62 129.93 C 151.44 129.07 150.60 128.52 149.75 128.70 L 148.64 128.93 C 147.78 129.11 147.23 129.95 147.41 130.81 C 147.59 131.66 148.43 132.21 149.28 132.03 Z M 150.41 131.78 L 151.50 131.54 C 152.35 131.35 152.88 130.51 152.69 129.67 C 152.50 128.82 151.67 128.29 150.82 128.48 L 149.73 128.72 C 148.89 128.91 148.35 129.75 148.54 130.59 C 148.73 131.44 149.57 131.97 150.41 131.78 Z M 151.52 131.52 L 152.44 131.30 C 153.27 131.10 153.78 130.27 153.59 129.44 C 153.39 128.60 152.55 128.09 151.72 128.28 L 150.80 128.50 C 149.97 128.70 149.46 129.53 149.65 130.37 C 149.85 131.20 150.69 131.71 151.52 131.52 Z M 152.45 131.28 L 153.26 131.07 C 154.08 130.87 154.58 130.04 154.38 129.22 C 154.17 128.40 153.34 127.90 152.52 128.10 L 151.71 128.31 C 150.89 128.51 150.39 129.34 150.60 130.16 C 150.80 130.98 151.63 131.48 152.45 131.28 Z M 153.27 131.05 L 154.16 130.83 C 154.97 130.62 155.46 129.80 155.25 128.99 C 155.04 128.18 154.22 127.69 153.41 127.89 L 152.52 128.12 C 151.71 128.33 151.22 129.15 151.43 129.96 C 151.63 130.77 152.46 131.26 153.27 131.05 Z M 154.16 130.81 L 155.13 130.56 C 155.93 130.35 156.41 129.53 156.20 128.73 C 155.99 127.93 155.17 127.45 154.37 127.66 L 153.41 127.91 C 152.60 128.12 152.12 128.94 152.33 129.74 C 152.54 130.54 153.36 131.02 154.16 130.81 Z M 155.14 130.55 L 156.10 130.29 C 156.90 130.08 157.37 129.26 157.16 128.47 C 156.94 127.67 156.13 127.20 155.33 127.41 L 154.37 127.67 C 153.57 127.88 153.10 128.70 153.31 129.49 C 153.52 130.29 154.34 130.76 155.14 130.55 Z M 156.11 130.28 L 157.07 130.02 C 157.86 129.80 158.33 128.98 158.11 128.19 C 157.89 127.40 157.07 126.94 156.28 127.16 L 155.32 127.42 C 154.53 127.64 154.07 128.46 154.28 129.25 C 154.50 130.04 155.32 130.50 156.11 130.28 Z M 157.08 130.01 L 158.04 129.74 C 158.82 129.51 159.28 128.70 159.05 127.91 C 158.83 127.13 158.02 126.67 157.23 126.89 L 156.27 127.17 C 155.49 127.39 155.03 128.21 155.26 128.99 C 155.48 129.77 156.30 130.23 157.08 130.01 Z M 158.04 129.73 L 159.01 129.45 C 159.79 129.22 160.23 128.41 160.01 127.63 C 159.78 126.85 158.97 126.40 158.19 126.63 L 157.23 126.90 C 156.45 127.13 156.00 127.94 156.22 128.72 C 156.45 129.50 157.26 129.95 158.04 129.73 Z M 159.01 129.44 L 159.98 129.16 C 160.75 128.93 161.20 128.12 160.97 127.35 C 160.74 126.57 159.93 126.13 159.16 126.35 L 158.19 126.63 C 157.42 126.86 156.97 127.67 157.20 128.45 C 157.42 129.22 158.23 129.67 159.01 129.44 Z M 159.97 129.15 L 160.95 128.87 C 161.72 128.64 162.16 127.83 161.93 127.06 C 161.71 126.29 160.90 125.85 160.13 126.07 L 159.16 126.36 C 158.39 126.58 157.95 127.39 158.17 128.16 C 158.40 128.93 159.20 129.38 159.97 129.15 Z M 160.95 128.86 L 161.91 128.58 C 162.68 128.35 163.12 127.55 162.89 126.78 C 162.66 126.01 161.86 125.57 161.09 125.80 L 160.13 126.08 C 159.36 126.31 158.92 127.11 159.15 127.88 C 159.37 128.65 160.18 129.09 160.95 128.86 Z M 161.91 128.57 L 162.86 128.29 C 163.62 128.06 164.06 127.25 163.83 126.49 C 163.60 125.73 162.79 125.29 162.03 125.52 L 161.09 125.80 C 160.32 126.03 159.89 126.84 160.12 127.60 C 160.35 128.36 161.15 128.80 161.91 128.57 Z M 162.87 128.28 L 163.74 128.01 C 164.50 127.78 164.93 126.97 164.70 126.21 C 164.46 125.45 163.66 125.03 162.90 125.26 L 162.02 125.53 C 161.26 125.76 160.84 126.57 161.07 127.33 C 161.30 128.08 162.11 128.51 162.87 128.28 Z M 163.75 128.01 L 164.64 127.73 C 165.40 127.49 165.82 126.69 165.59 125.93 C 165.35 125.17 164.55 124.75 163.79 124.99 L 162.90 125.26 C 162.14 125.50 161.72 126.30 161.95 127.06 C 162.19 127.82 162.99 128.24 163.75 128.01 Z M 164.64 127.72 L 165.63 127.42 C 166.39 127.18 166.81 126.38 166.58 125.62 C 166.34 124.87 165.54 124.45 164.78 124.68 L 163.79 124.99 C 163.04 125.22 162.62 126.03 162.85 126.78 C 163.08 127.54 163.89 127.96 164.64 127.72 Z M 165.63 127.42 L 166.64 127.11 C 167.39 126.87 167.82 126.07 167.58 125.32 C 167.35 124.56 166.55 124.14 165.80 124.37 L 164.79 124.68 C 164.03 124.91 163.61 125.71 163.84 126.47 C 164.07 127.22 164.87 127.65 165.63 127.42 Z M 166.63 127.11 L 167.50 126.84 C 168.26 126.61 168.68 125.81 168.46 125.06 C 168.23 124.30 167.43 123.88 166.67 124.11 L 165.80 124.37 C 165.05 124.60 164.62 125.40 164.85 126.15 C 165.08 126.91 165.88 127.34 166.63 127.11 Z M 167.50 126.84 L 168.44 126.56 C 169.20 126.33 169.62 125.53 169.39 124.78 C 169.17 124.02 168.37 123.60 167.61 123.82 L 166.68 124.11 C 165.92 124.34 165.49 125.13 165.72 125.89 C 165.95 126.64 166.75 127.07 167.50 126.84 Z M 168.44 126.56 L 169.43 126.26 C 170.18 126.03 170.61 125.24 170.38 124.48 C 170.16 123.73 169.36 123.30 168.60 123.53 L 167.62 123.82 C 166.86 124.05 166.43 124.85 166.66 125.60 C 166.89 126.36 167.68 126.78 168.44 126.56 Z M 169.43 126.26 L 170.45 125.95 C 171.20 125.73 171.63 124.93 171.40 124.18 C 171.18 123.42 170.38 122.99 169.63 123.22 L 168.61 123.53 C 167.85 123.75 167.42 124.55 167.65 125.30 C 167.88 126.06 168.67 126.49 169.43 126.26 Z M 170.45 125.95 L 171.24 125.71 C 171.99 125.49 172.42 124.69 172.20 123.94 C 171.97 123.18 171.17 122.76 170.42 122.98 L 169.63 123.22 C 168.87 123.45 168.44 124.24 168.67 125.00 C 168.90 125.75 169.69 126.18 170.45 125.95 Z"
      fill="black"
      fill-rule="nonzero" /><path d="M 116.19 156.28 L 114.91 156.61 C 114.06 156.83 113.54 157.69 113.76 158.55 C 113.98 159.40 114.85 159.91 115.70 159.69 L 116.99 159.36 C 117.84 159.14 118.35 158.27 118.13 157.42 C 117.91 156.57 117.05 156.06 116.19 156.28 Z M 114.89 156.61 L 113.72 156.92 C 112.87 157.15 112.36 158.03 112.59 158.88 C 112.82 159.73 113.69 160.23 114.54 160.00 L 115.72 159.69 C 116.57 159.46 117.07 158.59 116.84 157.74 C 116.62 156.89 115.74 156.38 114.89 156.61 Z M 113.67 156.93 L 112.72 157.22 C 111.87 157.47 111.39 158.36 111.64 159.20 C 111.89 160.04 112.78 160.53 113.63 160.28 L 114.58 159.99 C 115.43 159.74 115.91 158.86 115.66 158.01 C 115.41 157.17 114.52 156.68 113.67 156.93 Z M 112.61 157.25 L 111.98 157.49 C 111.16 157.80 110.74 158.72 111.05 159.54 C 111.36 160.37 112.28 160.79 113.11 160.48 L 113.73 160.24 C 114.56 159.93 114.98 159.01 114.67 158.19 C 114.36 157.36 113.44 156.94 112.61 157.25 Z M 111.21 158.09 L 111.07 158.31 C 110.57 159.05 110.77 160.04 111.51 160.54 C 112.24 161.03 113.24 160.83 113.73 160.10 L 113.88 159.88 C 114.37 159.14 114.18 158.14 113.44 157.65 C 112.70 157.16 111.71 157.35 111.21 158.09 Z M 112.22 160.81 L 112.98 160.90 C 113.87 161.00 114.68 160.36 114.78 159.47 C 114.88 158.58 114.24 157.78 113.35 157.68 L 112.58 157.59 C 111.69 157.49 110.89 158.13 110.79 159.02 C 110.69 159.91 111.33 160.71 112.22 160.81 Z M 113.27 160.93 L 114.71 160.83 C 115.62 160.77 116.30 159.99 116.24 159.09 C 116.18 158.18 115.40 157.50 114.49 157.56 L 113.06 157.65 C 112.15 157.71 111.47 158.49 111.53 159.40 C 111.59 160.30 112.37 160.99 113.27 160.93 Z M 114.83 160.83 L 115.81 160.70 C 116.71 160.58 117.34 159.74 117.22 158.84 C 117.10 157.93 116.26 157.30 115.36 157.43 L 114.38 157.56 C 113.48 157.68 112.84 158.51 112.97 159.42 C 113.09 160.32 113.92 160.96 114.83 160.83 Z M 115.87 160.69 L 116.86 160.52 C 117.76 160.36 118.36 159.51 118.20 158.61 C 118.05 157.71 117.19 157.11 116.29 157.26 L 115.30 157.43 C 114.40 157.59 113.80 158.44 113.95 159.34 C 114.11 160.24 114.97 160.85 115.87 160.69 Z M 116.90 160.51 L 117.92 160.31 C 118.81 160.12 119.39 159.25 119.21 158.36 C 119.03 157.46 118.16 156.88 117.26 157.06 L 116.25 157.27 C 115.35 157.45 114.77 158.32 114.95 159.22 C 115.14 160.11 116.01 160.69 116.90 160.51 Z M 117.95 160.30 L 118.95 160.07 C 119.84 159.87 120.40 158.98 120.20 158.09 C 120.00 157.20 119.11 156.64 118.22 156.85 L 117.22 157.07 C 116.33 157.27 115.77 158.16 115.98 159.05 C 116.18 159.94 117.06 160.50 117.95 160.30 Z M 118.99 160.06 L 119.94 159.83 C 120.83 159.61 121.37 158.71 121.15 157.82 C 120.93 156.94 120.03 156.40 119.14 156.62 L 118.19 156.85 C 117.30 157.07 116.76 157.97 116.98 158.86 C 117.20 159.74 118.10 160.28 118.99 160.06 Z M 119.98 159.82 L 121.02 159.53 C 121.90 159.29 122.42 158.38 122.18 157.50 C 121.94 156.62 121.03 156.10 120.15 156.34 L 119.11 156.63 C 118.23 156.87 117.71 157.78 117.95 158.66 C 118.19 159.54 119.10 160.06 119.98 159.82 Z M 121.05 159.52 L 122.02 159.24 C 122.90 158.98 123.39 158.06 123.14 157.18 C 122.88 156.31 121.96 155.81 121.08 156.07 L 120.12 156.35 C 119.24 156.61 118.74 157.53 119.00 158.41 C 119.26 159.28 120.18 159.78 121.05 159.52 Z M 122.04 159.23 L 122.96 158.94 C 123.83 158.67 124.32 157.75 124.05 156.87 C 123.78 156.00 122.85 155.52 121.98 155.79 L 121.06 156.07 C 120.19 156.34 119.70 157.27 119.97 158.14 C 120.24 159.01 121.17 159.50 122.04 159.23 Z M 122.97 158.94 L 123.88 158.66 C 124.75 158.38 125.23 157.45 124.96 156.58 C 124.68 155.71 123.76 155.23 122.89 155.50 L 121.98 155.79 C 121.11 156.06 120.62 156.99 120.89 157.86 C 121.17 158.73 122.10 159.22 122.97 158.94 Z M 123.87 158.66 L 124.78 158.38 C 125.65 158.11 126.14 157.18 125.88 156.31 C 125.61 155.44 124.68 154.95 123.81 155.22 L 122.89 155.50 C 122.02 155.77 121.53 156.69 121.80 157.57 C 122.07 158.44 123.00 158.93 123.87 158.66 Z M 124.78 158.38 L 125.71 158.09 C 126.59 157.83 127.08 156.91 126.82 156.03 C 126.55 155.16 125.63 154.67 124.76 154.93 L 123.82 155.22 C 122.94 155.48 122.45 156.40 122.72 157.28 C 122.98 158.15 123.90 158.64 124.78 158.38 Z M 125.72 158.09 L 126.68 157.80 C 127.55 157.53 128.04 156.61 127.78 155.73 C 127.51 154.86 126.59 154.37 125.71 154.64 L 124.75 154.93 C 123.88 155.20 123.39 156.12 123.66 157.00 C 123.92 157.87 124.85 158.36 125.72 158.09 Z M 126.69 157.79 L 127.67 157.48 C 128.54 157.21 129.03 156.28 128.75 155.41 C 128.48 154.54 127.55 154.06 126.68 154.33 L 125.70 154.64 C 124.83 154.92 124.35 155.84 124.62 156.71 C 124.90 157.58 125.82 158.07 126.69 157.79 Z M 127.69 157.48 L 128.64 157.16 C 129.51 156.88 129.98 155.95 129.70 155.08 C 129.41 154.22 128.48 153.74 127.61 154.03 L 126.66 154.34 C 125.80 154.63 125.33 155.56 125.61 156.42 C 125.89 157.29 126.83 157.76 127.69 157.48 Z M 128.66 157.16 L 129.59 156.84 C 130.45 156.54 130.91 155.61 130.62 154.74 C 130.32 153.88 129.39 153.42 128.52 153.72 L 127.60 154.04 C 126.73 154.33 126.27 155.27 126.57 156.13 C 126.86 156.99 127.80 157.45 128.66 157.16 Z M 129.60 156.83 L 130.54 156.50 C 131.40 156.20 131.85 155.26 131.55 154.40 C 131.25 153.55 130.31 153.09 129.45 153.39 L 128.51 153.72 C 127.66 154.03 127.20 154.97 127.50 155.82 C 127.81 156.68 128.75 157.13 129.60 156.83 Z M 130.55 156.50 L 131.50 156.16 C 132.36 155.86 132.81 154.92 132.50 154.06 C 132.20 153.20 131.26 152.76 130.40 153.06 L 129.45 153.40 C 128.59 153.70 128.15 154.64 128.45 155.50 C 128.75 156.35 129.69 156.80 130.55 156.50 Z M 131.50 156.16 L 132.47 155.82 C 133.32 155.51 133.77 154.57 133.47 153.72 C 133.16 152.86 132.23 152.42 131.37 152.72 L 130.40 153.06 C 129.55 153.36 129.10 154.30 129.40 155.16 C 129.71 156.01 130.65 156.46 131.50 156.16 Z M 132.46 155.82 L 133.38 155.49 C 134.24 155.19 134.69 154.26 134.39 153.40 C 134.09 152.54 133.15 152.10 132.29 152.40 L 131.37 152.72 C 130.52 153.02 130.07 153.96 130.37 154.81 C 130.67 155.67 131.61 156.12 132.46 155.82 Z M 133.38 155.49 L 134.31 155.17 C 135.16 154.87 135.61 153.93 135.31 153.08 C 135.01 152.22 134.08 151.77 133.22 152.07 L 132.30 152.40 C 131.44 152.70 130.99 153.63 131.29 154.49 C 131.59 155.34 132.53 155.79 133.38 155.49 Z M 134.31 155.16 L 135.25 154.83 C 136.10 154.53 136.55 153.60 136.25 152.74 C 135.95 151.89 135.02 151.44 134.16 151.74 L 133.22 152.08 C 132.37 152.38 131.92 153.31 132.22 154.16 C 132.52 155.02 133.46 155.46 134.31 155.16 Z M 135.26 154.83 L 136.21 154.49 C 137.06 154.18 137.51 153.25 137.20 152.40 C 136.90 151.55 135.96 151.10 135.11 151.41 L 134.16 151.75 C 133.31 152.05 132.86 152.99 133.17 153.84 C 133.47 154.69 134.41 155.13 135.26 154.83 Z M 136.22 154.48 L 137.19 154.13 C 138.04 153.82 138.47 152.88 138.17 152.03 C 137.86 151.19 136.92 150.75 136.07 151.06 L 135.10 151.41 C 134.26 151.72 133.82 152.66 134.13 153.51 C 134.44 154.35 135.37 154.79 136.22 154.48 Z M 137.20 154.12 L 138.13 153.77 C 138.97 153.45 139.40 152.52 139.09 151.67 C 138.77 150.83 137.83 150.40 136.99 150.72 L 136.06 151.07 C 135.22 151.38 134.79 152.32 135.11 153.16 C 135.42 154.01 136.36 154.43 137.20 154.12 Z M 138.14 153.76 L 139.08 153.40 C 139.92 153.08 140.33 152.14 140.01 151.30 C 139.69 150.47 138.75 150.05 137.91 150.37 L 136.98 150.73 C 136.14 151.05 135.72 151.99 136.04 152.83 C 136.36 153.66 137.30 154.08 138.14 153.76 Z M 139.09 153.39 L 140.03 153.02 C 140.86 152.70 141.27 151.76 140.94 150.92 C 140.62 150.09 139.67 149.68 138.84 150.01 L 137.90 150.38 C 137.07 150.70 136.66 151.64 136.99 152.48 C 137.32 153.31 138.26 153.72 139.09 153.39 Z M 140.04 153.02 L 140.97 152.64 C 141.80 152.31 142.20 151.37 141.87 150.54 C 141.53 149.71 140.59 149.31 139.76 149.64 L 138.83 150.02 C 138.00 150.35 137.60 151.29 137.93 152.12 C 138.27 152.95 139.21 153.35 140.04 153.02 Z M 140.98 152.63 L 141.90 152.26 C 142.72 151.92 143.12 150.98 142.78 150.15 C 142.44 149.33 141.50 148.94 140.68 149.27 L 139.76 149.65 C 138.93 149.99 138.54 150.93 138.88 151.75 C 139.21 152.58 140.16 152.97 140.98 152.63 Z M 141.91 152.25 L 142.84 151.86 C 143.66 151.51 144.04 150.57 143.70 149.75 C 143.36 148.94 142.42 148.55 141.60 148.89 L 140.67 149.28 C 139.85 149.63 139.46 150.57 139.81 151.39 C 140.15 152.20 141.09 152.59 141.91 152.25 Z M 142.85 151.85 L 143.77 151.45 C 144.58 151.10 144.96 150.16 144.61 149.35 C 144.26 148.54 143.32 148.16 142.51 148.51 L 141.59 148.90 C 140.77 149.25 140.40 150.19 140.75 151.00 C 141.09 151.82 142.04 152.19 142.85 151.85 Z M 143.78 151.44 L 144.69 151.04 C 145.50 150.69 145.87 149.75 145.51 148.94 C 145.16 148.14 144.22 147.77 143.41 148.12 L 142.50 148.52 C 141.69 148.87 141.32 149.81 141.68 150.62 C 142.03 151.43 142.97 151.80 143.78 151.44 Z M 144.70 151.04 L 145.60 150.63 C 146.41 150.28 146.77 149.34 146.41 148.53 C 146.05 147.73 145.11 147.37 144.31 147.73 L 143.40 148.13 C 142.60 148.49 142.24 149.43 142.60 150.23 C 142.95 151.03 143.89 151.39 144.70 151.04 Z M 145.61 150.62 L 146.52 150.21 C 147.32 149.85 147.67 148.91 147.31 148.12 C 146.95 147.32 146.01 146.96 145.21 147.32 L 144.31 147.74 C 143.51 148.10 143.15 149.03 143.51 149.83 C 143.87 150.63 144.81 150.98 145.61 150.62 Z M 146.53 150.20 L 147.42 149.79 C 148.21 149.43 148.56 148.49 148.20 147.70 C 147.83 146.91 146.90 146.56 146.10 146.92 L 145.21 147.33 C 144.42 147.70 144.07 148.63 144.43 149.43 C 144.80 150.22 145.73 150.57 146.53 150.20 Z M 147.42 149.79 L 148.31 149.37 C 149.10 149.01 149.44 148.07 149.08 147.28 C 148.71 146.50 147.78 146.15 146.99 146.52 L 146.10 146.93 C 145.31 147.30 144.97 148.23 145.33 149.02 C 145.70 149.81 146.63 150.15 147.42 149.79 Z M 148.32 149.36 L 149.22 148.94 C 150.00 148.58 150.34 147.64 149.97 146.86 C 149.61 146.08 148.68 145.74 147.89 146.11 L 146.99 146.53 C 146.21 146.89 145.87 147.82 146.23 148.61 C 146.60 149.39 147.53 149.73 148.32 149.36 Z M 149.22 148.93 L 150.13 148.51 C 150.91 148.14 151.24 147.21 150.88 146.43 C 150.51 145.65 149.58 145.32 148.80 145.68 L 147.89 146.11 C 147.11 146.48 146.78 147.41 147.14 148.19 C 147.51 148.97 148.44 149.30 149.22 148.93 Z M 150.13 148.50 L 151.05 148.06 C 151.83 147.70 152.16 146.77 151.79 146.00 C 151.43 145.22 150.50 144.89 149.72 145.26 L 148.80 145.69 C 148.03 146.06 147.70 146.98 148.06 147.76 C 148.43 148.53 149.35 148.87 150.13 148.50 Z M 151.05 148.06 L 151.96 147.63 C 152.73 147.26 153.06 146.34 152.69 145.57 C 152.33 144.80 151.41 144.47 150.63 144.83 L 149.73 145.26 C 148.95 145.63 148.62 146.55 148.99 147.32 C 149.35 148.09 150.28 148.42 151.05 148.06 Z M 151.95 147.62 L 152.85 147.20 C 153.61 146.84 153.94 145.92 153.58 145.15 C 153.21 144.38 152.30 144.05 151.53 144.42 L 150.64 144.84 C 149.87 145.20 149.54 146.12 149.90 146.89 C 150.27 147.66 151.19 147.99 151.95 147.62 Z M 152.84 147.19 L 153.74 146.77 C 154.51 146.41 154.83 145.49 154.47 144.73 C 154.11 143.96 153.19 143.63 152.43 144.00 L 151.53 144.42 C 150.76 144.79 150.44 145.70 150.80 146.47 C 151.16 147.23 152.08 147.56 152.84 147.19 Z M 153.74 146.76 L 154.65 146.33 C 155.41 145.97 155.73 145.06 155.37 144.30 C 155.01 143.53 154.10 143.21 153.33 143.57 L 152.43 144.00 C 151.67 144.37 151.34 145.28 151.71 146.04 C 152.07 146.80 152.98 147.12 153.74 146.76 Z M 154.65 146.33 L 155.56 145.89 C 156.31 145.53 156.64 144.62 156.27 143.86 C 155.91 143.10 155.00 142.78 154.25 143.14 L 153.34 143.58 C 152.58 143.94 152.26 144.85 152.62 145.61 C 152.98 146.37 153.89 146.69 154.65 146.33 Z M 155.56 145.88 L 156.47 145.44 C 157.23 145.08 157.55 144.18 157.18 143.42 C 156.82 142.67 155.92 142.35 155.16 142.71 L 154.25 143.15 C 153.49 143.51 153.17 144.42 153.54 145.17 C 153.90 145.93 154.80 146.25 155.56 145.88 Z M 156.47 145.44 L 157.37 145.01 C 158.12 144.64 158.44 143.74 158.07 142.99 C 157.71 142.24 156.81 141.93 156.06 142.29 L 155.16 142.72 C 154.41 143.08 154.10 143.98 154.46 144.73 C 154.82 145.48 155.72 145.80 156.47 145.44 Z M 157.37 145.00 L 158.27 144.56 C 159.02 144.20 159.33 143.30 158.97 142.56 C 158.60 141.81 157.70 141.50 156.96 141.86 L 156.06 142.29 C 155.31 142.66 155.00 143.55 155.36 144.30 C 155.72 145.05 156.62 145.36 157.37 145.00 Z M 158.27 144.56 L 159.17 144.12 C 159.91 143.75 160.22 142.86 159.86 142.12 C 159.49 141.37 158.60 141.06 157.86 141.43 L 156.96 141.87 C 156.21 142.23 155.91 143.13 156.27 143.87 C 156.63 144.61 157.53 144.92 158.27 144.56 Z M 159.17 144.11 L 160.07 143.67 C 160.81 143.30 161.11 142.41 160.75 141.67 C 160.38 140.93 159.49 140.63 158.75 140.99 L 157.85 141.43 C 157.11 141.80 156.81 142.69 157.17 143.43 C 157.54 144.17 158.43 144.47 159.17 144.11 Z M 160.07 143.66 L 160.97 143.21 C 161.70 142.84 162.00 141.95 161.64 141.22 C 161.27 140.49 160.38 140.19 159.65 140.55 L 158.75 141.00 C 158.02 141.37 157.72 142.26 158.08 142.99 C 158.45 143.72 159.34 144.02 160.07 143.66 Z M 160.97 143.20 L 161.87 142.75 C 162.60 142.38 162.89 141.49 162.52 140.77 C 162.15 140.04 161.26 139.74 160.53 140.11 L 159.64 140.56 C 158.91 140.93 158.62 141.82 158.99 142.55 C 159.36 143.28 160.25 143.57 160.97 143.20 Z M 161.87 142.74 L 162.75 142.30 C 163.47 141.93 163.76 141.04 163.39 140.31 C 163.02 139.59 162.13 139.30 161.41 139.67 L 160.53 140.12 C 159.81 140.49 159.52 141.38 159.89 142.10 C 160.26 142.83 161.15 143.11 161.87 142.74 Z M 162.75 142.29 L 163.63 141.84 C 164.35 141.47 164.64 140.58 164.26 139.86 C 163.89 139.14 163.01 138.85 162.29 139.23 L 161.41 139.68 C 160.69 140.05 160.40 140.93 160.77 141.65 C 161.14 142.38 162.03 142.66 162.75 142.29 Z M 163.63 141.83 L 164.51 141.38 C 165.23 141.01 165.51 140.13 165.14 139.41 C 164.78 138.69 163.89 138.41 163.17 138.78 L 162.29 139.23 C 161.57 139.60 161.29 140.48 161.66 141.20 C 162.03 141.92 162.91 142.20 163.63 141.83 Z M 164.51 141.38 L 165.40 140.92 C 166.12 140.56 166.40 139.68 166.04 138.96 C 165.67 138.24 164.79 137.96 164.07 138.32 L 163.18 138.78 C 162.46 139.14 162.18 140.02 162.54 140.74 C 162.91 141.46 163.79 141.74 164.51 141.38 Z M 165.39 140.92 L 166.30 140.46 C 167.01 140.10 167.30 139.23 166.94 138.51 C 166.58 137.79 165.71 137.51 164.99 137.87 L 164.08 138.32 C 163.37 138.68 163.08 139.56 163.44 140.28 C 163.80 140.99 164.67 141.28 165.39 140.92 Z M 166.29 140.46 L 167.20 140.01 C 167.92 139.66 168.21 138.79 167.86 138.07 C 167.50 137.35 166.63 137.06 165.92 137.41 L 165.00 137.87 C 164.28 138.22 163.99 139.09 164.34 139.81 C 164.70 140.53 165.57 140.82 166.29 140.46 Z M 167.19 140.01 L 168.11 139.57 C 168.82 139.22 169.12 138.35 168.78 137.64 C 168.43 136.92 167.56 136.62 166.84 136.97 L 165.93 137.41 C 165.21 137.76 164.91 138.63 165.26 139.35 C 165.61 140.06 166.47 140.36 167.19 140.01 Z M 168.10 139.57 L 169.02 139.13 C 169.74 138.78 170.04 137.92 169.70 137.20 C 169.35 136.48 168.49 136.18 167.77 136.52 L 166.85 136.97 C 166.13 137.31 165.83 138.17 166.17 138.89 C 166.52 139.61 167.38 139.91 168.10 139.57 Z M 169.02 139.12 L 169.93 138.69 C 170.65 138.34 170.95 137.48 170.61 136.76 C 170.27 136.05 169.41 135.74 168.69 136.09 L 167.77 136.53 C 167.06 136.87 166.75 137.73 167.10 138.45 C 167.44 139.16 168.30 139.47 169.02 139.12 Z M 169.93 138.68 L 170.83 138.25 C 171.55 137.91 171.85 137.05 171.51 136.33 C 171.16 135.62 170.30 135.31 169.59 135.66 L 168.69 136.09 C 167.97 136.43 167.67 137.29 168.01 138.01 C 168.36 138.72 169.22 139.03 169.93 138.68 Z M 170.84 138.25 L 171.71 137.82 C 172.42 137.48 172.72 136.62 172.37 135.91 C 172.03 135.19 171.17 134.89 170.46 135.24 L 169.58 135.66 C 168.87 136.01 168.57 136.87 168.92 137.58 C 169.26 138.29 170.12 138.59 170.84 138.25 Z M 171.72 137.82 L 172.63 137.36 C 173.34 137.01 173.63 136.15 173.28 135.45 C 172.93 134.74 172.07 134.44 171.36 134.80 L 170.45 135.25 C 169.74 135.60 169.45 136.46 169.80 137.17 C 170.15 137.88 171.01 138.17 171.72 137.82 Z M 172.64 137.36 L 173.59 136.88 C 174.30 136.52 174.58 135.66 174.22 134.96 C 173.87 134.25 173.00 133.97 172.30 134.32 L 171.35 134.80 C 170.65 135.16 170.37 136.02 170.72 136.72 C 171.08 137.43 171.94 137.71 172.64 137.36 Z M 173.60 136.87 L 174.50 136.41 C 175.20 136.05 175.48 135.19 175.12 134.48 C 174.75 133.78 173.89 133.51 173.19 133.87 L 172.29 134.33 C 171.59 134.69 171.31 135.55 171.67 136.26 C 172.04 136.96 172.90 137.23 173.60 136.87 Z M 174.51 136.40 L 175.37 135.95 C 176.07 135.59 176.34 134.73 175.97 134.03 C 175.61 133.33 174.75 133.06 174.05 133.42 L 173.18 133.87 C 172.48 134.24 172.21 135.10 172.58 135.80 C 172.94 136.50 173.81 136.77 174.51 136.40 Z M 175.37 135.95 L 176.20 135.51 C 176.90 135.15 177.17 134.28 176.80 133.59 C 176.44 132.89 175.57 132.62 174.88 132.99 L 174.04 133.42 C 173.35 133.79 173.08 134.65 173.44 135.35 C 173.81 136.05 174.67 136.32 175.37 135.95 Z M 176.20 135.51 L 177.07 135.06 C 177.77 134.69 178.04 133.83 177.67 133.13 C 177.31 132.44 176.44 132.17 175.75 132.53 L 174.88 132.99 C 174.18 133.35 173.91 134.22 174.28 134.91 C 174.64 135.61 175.51 135.88 176.20 135.51 Z M 177.07 135.06 L 177.97 134.59 C 178.67 134.23 178.94 133.37 178.57 132.67 C 178.21 131.97 177.35 131.70 176.65 132.06 L 175.75 132.53 C 175.05 132.89 174.78 133.76 175.14 134.46 C 175.51 135.15 176.37 135.43 177.07 135.06 Z M 177.97 134.59 L 178.85 134.13 C 179.55 133.77 179.82 132.91 179.46 132.21 C 179.10 131.51 178.23 131.23 177.53 131.60 L 176.65 132.06 C 175.95 132.42 175.68 133.28 176.04 133.99 C 176.40 134.69 177.27 134.96 177.97 134.59 Z M 178.85 134.14 L 179.73 133.68 C 180.43 133.32 180.70 132.46 180.34 131.75 C 179.98 131.05 179.11 130.78 178.41 131.14 L 177.53 131.60 C 176.83 131.96 176.56 132.82 176.92 133.52 C 177.29 134.23 178.15 134.50 178.85 134.14 Z M 179.73 133.68 L 180.48 133.29 C 181.19 132.93 181.46 132.07 181.10 131.36 C 180.73 130.66 179.87 130.38 179.17 130.75 L 178.41 131.14 C 177.71 131.50 177.43 132.37 177.80 133.07 C 178.16 133.77 179.02 134.05 179.73 133.68 Z"
      fill="black"
      fill-rule="nonzero" /><path d="M 159.18 113.99 L 158.99 114.92 C 158.82 115.73 159.34 116.52 160.15 116.69 C 160.96 116.85 161.75 116.33 161.92 115.52 L 162.11 114.60 C 162.28 113.79 161.75 112.99 160.95 112.83 C 160.14 112.66 159.34 113.18 159.18 113.99 Z M 158.96 114.92 L 158.77 115.87 C 158.60 116.70 159.14 117.50 159.97 117.66 C 160.79 117.83 161.59 117.29 161.76 116.47 L 161.95 115.52 C 162.11 114.69 161.58 113.89 160.75 113.73 C 159.93 113.56 159.12 114.10 158.96 114.92 Z M 158.74 115.88 L 158.55 116.87 C 158.39 117.71 158.95 118.53 159.79 118.68 C 160.64 118.84 161.45 118.29 161.60 117.44 L 161.79 116.46 C 161.95 115.61 161.39 114.80 160.55 114.64 C 159.71 114.48 158.90 115.04 158.74 115.88 Z M 158.52 116.89 L 158.34 117.94 C 158.19 118.80 158.77 119.62 159.63 119.77 C 160.49 119.91 161.31 119.33 161.46 118.47 L 161.64 117.42 C 161.78 116.56 161.21 115.75 160.35 115.60 C 159.48 115.45 158.67 116.03 158.52 116.89 Z M 158.32 117.96 L 158.16 118.95 C 158.03 119.83 158.63 120.65 159.50 120.78 C 160.38 120.92 161.19 120.32 161.33 119.44 L 161.48 118.45 C 161.62 117.58 161.02 116.76 160.14 116.62 C 159.27 116.49 158.45 117.09 158.32 117.96 Z M 158.15 118.97 L 158.01 119.98 C 157.88 120.86 158.49 121.67 159.37 121.80 C 160.26 121.93 161.07 121.31 161.20 120.43 L 161.34 119.43 C 161.47 118.54 160.85 117.73 159.97 117.60 C 159.09 117.48 158.28 118.09 158.15 118.97 Z M 158.00 119.99 L 157.86 121.00 C 157.74 121.89 158.36 122.71 159.25 122.83 C 160.13 122.95 160.95 122.33 161.07 121.44 L 161.21 120.42 C 161.33 119.54 160.71 118.72 159.82 118.60 C 158.93 118.48 158.12 119.10 158.00 119.99 Z M 157.85 121.01 L 157.72 122.01 C 157.60 122.90 158.23 123.72 159.12 123.83 C 160.01 123.95 160.83 123.33 160.95 122.43 L 161.08 121.44 C 161.20 120.54 160.57 119.73 159.68 119.61 C 158.79 119.49 157.97 120.12 157.85 121.01 Z M 157.71 122.00 L 157.58 122.96 C 157.46 123.86 158.09 124.68 158.99 124.80 C 159.89 124.92 160.71 124.29 160.83 123.39 L 160.95 122.44 C 161.07 121.54 160.44 120.72 159.55 120.60 C 158.65 120.48 157.83 121.11 157.71 122.00 Z M 157.58 122.95 L 157.43 124.00 C 157.31 124.90 157.94 125.73 158.84 125.86 C 159.74 125.98 160.57 125.35 160.69 124.45 L 160.83 123.40 C 160.96 122.50 160.33 121.67 159.43 121.55 C 158.53 121.43 157.70 122.06 157.58 122.95 Z M 157.43 123.99 L 157.29 124.97 C 157.15 125.87 157.78 126.71 158.68 126.84 C 159.58 126.97 160.42 126.35 160.55 125.45 L 160.69 124.46 C 160.82 123.56 160.20 122.73 159.30 122.59 C 158.40 122.46 157.56 123.09 157.43 123.99 Z M 157.28 124.96 L 157.13 125.91 C 157.00 126.82 157.62 127.66 158.52 127.80 C 159.42 127.94 160.27 127.32 160.41 126.42 L 160.55 125.46 C 160.69 124.56 160.07 123.71 159.17 123.57 C 158.27 123.43 157.42 124.05 157.28 124.96 Z M 157.13 125.90 L 156.97 126.86 C 156.83 127.77 157.44 128.62 158.35 128.77 C 159.25 128.92 160.11 128.30 160.25 127.40 L 160.41 126.43 C 160.56 125.53 159.94 124.67 159.04 124.52 C 158.13 124.38 157.28 124.99 157.13 125.90 Z M 156.97 126.85 L 156.81 127.78 C 156.66 128.69 157.27 129.55 158.18 129.70 C 159.08 129.86 159.95 129.25 160.10 128.34 L 160.26 127.41 C 160.41 126.50 159.80 125.64 158.90 125.49 C 157.99 125.33 157.13 125.94 156.97 126.85 Z M 156.81 127.76 L 156.64 128.73 C 156.48 129.64 157.08 130.51 157.99 130.67 C 158.90 130.83 159.77 130.23 159.93 129.32 L 160.10 128.35 C 160.27 127.44 159.66 126.57 158.75 126.41 C 157.84 126.25 156.97 126.85 156.81 127.76 Z M 156.64 128.71 L 156.45 129.71 C 156.28 130.62 156.88 131.50 157.79 131.67 C 158.70 131.84 159.58 131.24 159.75 130.33 L 159.93 129.33 C 160.10 128.42 159.50 127.54 158.59 127.37 C 157.68 127.20 156.81 127.80 156.64 128.71 Z M 156.45 129.70 L 156.25 130.72 C 156.07 131.63 156.66 132.52 157.58 132.69 C 158.49 132.87 159.37 132.28 159.55 131.37 L 159.75 130.34 C 159.93 129.43 159.33 128.55 158.42 128.37 C 157.51 128.19 156.62 128.78 156.45 129.70 Z M 156.24 130.71 L 156.05 131.68 C 155.86 132.59 156.45 133.49 157.36 133.67 C 158.28 133.86 159.17 133.27 159.35 132.35 L 159.55 131.38 C 159.74 130.47 159.15 129.58 158.24 129.39 C 157.32 129.20 156.43 129.79 156.24 130.71 Z M 156.04 131.67 L 155.84 132.62 C 155.65 133.53 156.23 134.43 157.15 134.62 C 158.06 134.82 158.96 134.23 159.15 133.32 L 159.35 132.37 C 159.55 131.45 158.96 130.56 158.05 130.36 C 157.14 130.17 156.24 130.75 156.04 131.67 Z M 155.84 132.61 L 155.63 133.57 C 155.43 134.49 156.01 135.39 156.92 135.59 C 157.84 135.79 158.74 135.22 158.94 134.30 L 159.15 133.33 C 159.35 132.42 158.78 131.51 157.86 131.31 C 156.95 131.11 156.04 131.69 155.84 132.61 Z M 155.63 133.56 L 155.41 134.55 C 155.20 135.47 155.77 136.38 156.69 136.58 C 157.60 136.79 158.51 136.22 158.72 135.30 L 158.94 134.31 C 159.15 133.40 158.58 132.49 157.66 132.28 C 156.75 132.07 155.84 132.65 155.63 133.56 Z M 155.40 134.54 L 155.17 135.55 C 154.96 136.47 155.53 137.38 156.44 137.59 C 157.36 137.81 158.27 137.24 158.49 136.32 L 158.72 135.31 C 158.93 134.40 158.36 133.48 157.45 133.27 C 156.53 133.06 155.62 133.63 155.40 134.54 Z M 155.17 135.54 L 154.94 136.49 C 154.72 137.41 155.29 138.33 156.21 138.54 C 157.12 138.76 158.04 138.20 158.26 137.28 L 158.49 136.33 C 158.71 135.41 158.14 134.49 157.22 134.28 C 156.31 134.06 155.39 134.62 155.17 135.54 Z M 154.94 136.48 L 154.71 137.42 C 154.49 138.34 155.05 139.26 155.97 139.48 C 156.89 139.71 157.81 139.14 158.04 138.22 L 158.26 137.29 C 158.49 136.37 157.92 135.45 157.01 135.22 C 156.09 135.00 155.16 135.56 154.94 136.48 Z M 154.71 137.41 L 154.48 138.37 C 154.25 139.29 154.81 140.22 155.73 140.44 C 156.65 140.67 157.58 140.11 157.80 139.19 L 158.04 138.23 C 158.26 137.31 157.70 136.38 156.79 136.16 C 155.87 135.93 154.94 136.49 154.71 137.41 Z M 154.47 138.36 L 154.23 139.34 C 154.00 140.26 154.56 141.19 155.48 141.42 C 156.40 141.65 157.33 141.09 157.56 140.17 L 157.80 139.20 C 158.03 138.28 157.47 137.34 156.56 137.11 C 155.64 136.88 154.70 137.44 154.47 138.36 Z M 154.23 139.34 L 153.97 140.34 C 153.74 141.26 154.30 142.20 155.22 142.43 C 156.14 142.66 157.07 142.10 157.31 141.18 L 157.56 140.18 C 157.79 139.26 157.24 138.32 156.32 138.09 C 155.39 137.86 154.46 138.42 154.23 139.34 Z M 153.97 140.34 L 153.71 141.34 C 153.48 142.26 154.04 143.20 154.96 143.44 C 155.88 143.67 156.82 143.12 157.05 142.19 L 157.31 141.19 C 157.55 140.27 156.99 139.33 156.07 139.09 C 155.14 138.86 154.21 139.41 153.97 140.34 Z M 153.71 141.34 L 153.47 142.29 C 153.23 143.22 153.78 144.16 154.71 144.40 C 155.63 144.63 156.57 144.08 156.81 143.16 L 157.05 142.20 C 157.29 141.28 156.74 140.33 155.81 140.10 C 154.89 139.86 153.95 140.41 153.71 141.34 Z M 153.46 142.29 L 153.21 143.26 C 152.97 144.18 153.52 145.13 154.45 145.37 C 155.37 145.61 156.32 145.06 156.56 144.13 L 156.81 143.16 C 157.05 142.24 156.50 141.29 155.57 141.05 C 154.65 140.81 153.71 141.37 153.46 142.29 Z M 153.21 143.25 L 152.95 144.23 C 152.71 145.15 153.26 146.10 154.18 146.34 C 155.10 146.59 156.05 146.04 156.30 145.12 L 156.56 144.14 C 156.80 143.22 156.25 142.27 155.33 142.02 C 154.40 141.78 153.46 142.33 153.21 143.25 Z M 152.95 144.22 L 152.69 145.19 C 152.44 146.12 152.98 147.07 153.91 147.32 C 154.83 147.57 155.78 147.02 156.03 146.10 L 156.30 145.13 C 156.55 144.20 156.00 143.25 155.08 143.00 C 154.15 142.75 153.20 143.29 152.95 144.22 Z M 152.69 145.18 L 152.42 146.15 C 152.16 147.07 152.70 148.03 153.63 148.28 C 154.55 148.54 155.51 148.00 155.76 147.08 L 156.03 146.11 C 156.29 145.19 155.75 144.23 154.83 143.97 C 153.90 143.72 152.95 144.26 152.69 145.18 Z M 152.42 146.13 L 152.14 147.09 C 151.88 148.01 152.41 148.98 153.33 149.24 C 154.26 149.51 155.22 148.98 155.49 148.05 L 155.76 147.09 C 156.03 146.17 155.49 145.21 154.57 144.94 C 153.65 144.68 152.69 145.21 152.42 146.13 Z M 152.15 147.08 L 151.85 148.06 C 151.58 148.98 152.10 149.95 153.02 150.23 C 153.94 150.50 154.91 149.98 155.19 149.05 L 155.48 148.07 C 155.76 147.15 155.23 146.18 154.31 145.90 C 153.39 145.63 152.42 146.15 152.15 147.08 Z M 151.86 148.05 L 151.56 149.01 C 151.28 149.93 151.79 150.91 152.71 151.19 C 153.63 151.47 154.61 150.96 154.89 150.04 L 155.19 149.07 C 155.47 148.15 154.95 147.17 154.03 146.89 C 153.11 146.61 152.14 147.13 151.86 148.05 Z M 151.56 149.00 L 151.26 149.95 C 150.97 150.87 151.48 151.85 152.40 152.14 C 153.32 152.43 154.30 151.92 154.59 151.00 L 154.89 150.05 C 155.18 149.13 154.67 148.15 153.75 147.86 C 152.83 147.57 151.85 148.08 151.56 149.00 Z M 151.26 149.94 L 150.96 150.88 C 150.67 151.80 151.17 152.78 152.09 153.08 C 153.01 153.37 153.99 152.87 154.29 151.95 L 154.59 151.01 C 154.88 150.09 154.38 149.10 153.46 148.81 C 152.54 148.51 151.56 149.02 151.26 149.94 Z M 150.96 150.87 L 150.66 151.81 C 150.36 152.73 150.86 153.71 151.78 154.01 C 152.70 154.31 153.69 153.80 153.99 152.89 L 154.29 151.95 C 154.59 151.03 154.08 150.05 153.16 149.75 C 152.24 149.45 151.26 149.95 150.96 150.87 Z M 150.66 151.80 L 150.35 152.74 C 150.05 153.67 150.55 154.65 151.47 154.95 C 152.39 155.25 153.38 154.75 153.68 153.83 L 153.99 152.89 C 154.29 151.97 153.78 150.98 152.86 150.68 C 151.94 150.38 150.95 150.88 150.66 151.80 Z M 150.35 152.74 L 150.04 153.69 C 149.74 154.61 150.24 155.60 151.16 155.90 C 152.08 156.20 153.07 155.70 153.37 154.78 L 153.68 153.83 C 153.98 152.91 153.48 151.92 152.56 151.62 C 151.64 151.32 150.65 151.82 150.35 152.74 Z M 150.04 153.69 L 149.73 154.64 C 149.42 155.56 149.93 156.55 150.85 156.85 C 151.77 157.15 152.76 156.65 153.06 155.73 L 153.37 154.78 C 153.68 153.86 153.18 152.87 152.25 152.57 C 151.33 152.26 150.34 152.77 150.04 153.69 Z M 149.73 154.63 L 149.41 155.58 C 149.11 156.50 149.60 157.49 150.53 157.80 C 151.45 158.11 152.44 157.61 152.75 156.69 L 153.06 155.74 C 153.37 154.82 152.87 153.82 151.95 153.52 C 151.03 153.21 150.03 153.71 149.73 154.63 Z M 149.41 155.57 L 149.09 156.52 C 148.78 157.44 149.28 158.44 150.20 158.75 C 151.12 159.06 152.11 158.56 152.43 157.64 L 152.75 156.70 C 153.06 155.78 152.56 154.78 151.64 154.47 C 150.72 154.16 149.72 154.65 149.41 155.57 Z M 149.10 156.51 L 148.77 157.46 C 148.45 158.37 148.94 159.38 149.86 159.69 C 150.78 160.01 151.78 159.52 152.10 158.60 L 152.42 157.66 C 152.74 156.74 152.25 155.73 151.33 155.42 C 150.41 155.10 149.41 155.59 149.10 156.51 Z M 148.77 157.44 L 148.44 158.38 C 148.11 159.30 148.59 160.31 149.51 160.63 C 150.43 160.96 151.43 160.48 151.76 159.56 L 152.09 158.62 C 152.42 157.70 151.94 156.69 151.02 156.37 C 150.10 156.04 149.10 156.52 148.77 157.44 Z M 148.44 158.37 L 148.10 159.31 C 147.77 160.23 148.24 161.24 149.16 161.57 C 150.07 161.90 151.09 161.43 151.42 160.51 L 151.76 159.57 C 152.09 158.66 151.61 157.64 150.70 157.31 C 149.78 156.98 148.77 157.46 148.44 158.37 Z M 148.10 159.30 L 147.76 160.24 C 147.42 161.16 147.89 162.17 148.80 162.51 C 149.72 162.85 150.73 162.38 151.07 161.46 L 151.41 160.52 C 151.75 159.61 151.28 158.59 150.37 158.26 C 149.45 157.92 148.44 158.39 148.10 159.30 Z M 147.76 160.24 L 147.41 161.17 C 147.07 162.09 147.53 163.11 148.45 163.45 C 149.36 163.79 150.38 163.32 150.72 162.41 L 151.07 161.47 C 151.41 160.56 150.94 159.54 150.03 159.20 C 149.12 158.86 148.10 159.32 147.76 160.24 Z M 147.41 161.17 L 147.06 162.10 C 146.71 163.02 147.17 164.04 148.09 164.38 C 149.00 164.72 150.02 164.26 150.36 163.35 L 150.72 162.41 C 151.06 161.50 150.60 160.48 149.69 160.14 C 148.77 159.79 147.75 160.26 147.41 161.17 Z M 147.06 162.10 L 146.70 163.04 C 146.35 163.95 146.81 164.97 147.73 165.32 C 148.64 165.67 149.66 165.21 150.01 164.29 L 150.36 163.35 C 150.71 162.44 150.25 161.42 149.34 161.07 C 148.42 160.73 147.40 161.19 147.06 162.10 Z M 146.70 163.04 L 146.34 163.98 C 145.99 164.90 146.45 165.92 147.36 166.27 C 148.27 166.62 149.30 166.16 149.65 165.25 L 150.01 164.30 C 150.36 163.38 149.90 162.36 148.98 162.01 C 148.07 161.66 147.05 162.12 146.70 163.04 Z M 146.34 163.98 L 145.98 164.93 C 145.63 165.84 146.08 166.86 147.00 167.21 C 147.91 167.56 148.94 167.10 149.28 166.19 L 149.65 165.25 C 150.00 164.33 149.54 163.31 148.62 162.96 C 147.71 162.61 146.69 163.07 146.34 163.98 Z M 145.98 164.92 L 145.62 165.86 C 145.27 166.77 145.72 167.80 146.64 168.15 C 147.55 168.50 148.58 168.04 148.93 167.13 L 149.28 166.19 C 149.64 165.28 149.18 164.25 148.27 163.90 C 147.35 163.55 146.33 164.01 145.98 164.92 Z M 145.62 165.86 L 145.26 166.78 C 144.91 167.69 145.37 168.72 146.28 169.07 C 147.19 169.42 148.22 168.97 148.57 168.05 L 148.93 167.13 C 149.28 166.22 148.82 165.19 147.91 164.84 C 147.00 164.49 145.97 164.94 145.62 165.86 Z M 145.26 166.78 L 144.91 167.69 C 144.56 168.61 145.01 169.63 145.92 169.99 C 146.84 170.34 147.86 169.88 148.22 168.97 L 148.57 168.06 C 148.92 167.14 148.47 166.12 147.55 165.76 C 146.64 165.41 145.61 165.87 145.26 166.78 Z M 144.91 167.69 L 144.54 168.63 C 144.19 169.55 144.64 170.58 145.56 170.93 C 146.47 171.28 147.50 170.83 147.85 169.92 L 148.22 168.97 C 148.57 168.06 148.12 167.03 147.20 166.68 C 146.29 166.32 145.26 166.78 144.91 167.69 Z M 144.54 168.63 L 144.18 169.57 C 143.82 170.48 144.28 171.51 145.19 171.87 C 146.10 172.22 147.13 171.77 147.49 170.86 L 147.85 169.92 C 148.21 169.00 147.75 167.98 146.84 167.62 C 145.93 167.27 144.90 167.72 144.54 168.63 Z M 144.18 169.57 L 143.82 170.50 C 143.46 171.41 143.91 172.44 144.82 172.80 C 145.74 173.15 146.77 172.70 147.12 171.79 L 147.49 170.86 C 147.84 169.95 147.39 168.92 146.48 168.56 C 145.57 168.20 144.54 168.65 144.18 169.57 Z M 143.82 170.49 L 143.45 171.42 C 143.09 172.33 143.54 173.36 144.45 173.72 C 145.37 174.08 146.40 173.63 146.76 172.72 L 147.12 171.80 C 147.48 170.88 147.03 169.85 146.12 169.49 C 145.21 169.13 144.18 169.58 143.82 170.49 Z M 143.45 171.41 L 143.09 172.33 C 142.73 173.24 143.17 174.27 144.08 174.64 C 144.99 175.00 146.03 174.56 146.39 173.64 L 146.76 172.72 C 147.12 171.81 146.67 170.78 145.76 170.42 C 144.85 170.05 143.82 170.50 143.45 171.41 Z M 143.09 172.32 L 142.71 173.27 C 142.34 174.18 142.78 175.22 143.69 175.59 C 144.60 175.96 145.63 175.52 146.00 174.61 L 146.39 173.65 C 146.75 172.74 146.31 171.71 145.40 171.34 C 144.49 170.97 143.46 171.41 143.09 172.32 Z M 142.71 173.27 L 142.31 174.23 C 141.94 175.14 142.38 176.18 143.29 176.55 C 144.20 176.92 145.23 176.49 145.60 175.58 L 146.00 174.61 C 146.37 173.70 145.94 172.67 145.03 172.29 C 144.12 171.92 143.08 172.36 142.71 173.27 Z M 142.32 174.22 L 141.93 175.17 C 141.55 176.08 141.98 177.12 142.89 177.49 C 143.80 177.87 144.84 177.43 145.21 176.53 L 145.60 175.58 C 145.98 174.68 145.55 173.64 144.64 173.26 C 143.73 172.89 142.69 173.32 142.32 174.22 Z M 141.93 175.16 L 141.55 176.07 C 141.17 176.98 141.60 178.02 142.50 178.40 C 143.41 178.78 144.45 178.35 144.83 177.45 L 145.21 176.53 C 145.59 175.63 145.16 174.59 144.26 174.21 C 143.35 173.83 142.31 174.26 141.93 175.16 Z M 141.55 176.07 L 141.18 176.93 C 140.80 177.84 141.23 178.88 142.13 179.26 C 143.03 179.64 144.08 179.22 144.46 178.32 L 144.83 177.45 C 145.21 176.55 144.78 175.50 143.88 175.12 C 142.98 174.74 141.93 175.16 141.55 176.07 Z M 141.19 176.92 L 140.79 177.85 C 140.41 178.75 140.82 179.80 141.73 180.18 C 142.63 180.57 143.68 180.15 144.06 179.25 L 144.46 178.32 C 144.84 177.42 144.42 176.38 143.52 175.99 C 142.62 175.60 141.57 176.02 141.19 176.92 Z M 140.80 177.84 L 140.40 178.74 C 140.01 179.65 140.43 180.69 141.33 181.08 C 142.23 181.47 143.27 181.06 143.67 180.16 L 144.06 179.26 C 144.45 178.35 144.04 177.31 143.13 176.92 C 142.23 176.53 141.19 176.94 140.80 177.84 Z M 140.41 178.74 L 140.02 179.63 C 139.62 180.52 140.03 181.57 140.93 181.97 C 141.83 182.36 142.87 181.96 143.27 181.06 L 143.66 180.17 C 144.06 179.27 143.65 178.22 142.75 177.82 C 141.85 177.43 140.80 177.84 140.41 178.74 Z M 140.02 179.62 L 139.61 180.53 C 139.21 181.43 139.61 182.48 140.51 182.88 C 141.41 183.28 142.46 182.88 142.86 181.98 L 143.27 181.07 C 143.67 180.17 143.26 179.12 142.37 178.72 C 141.47 178.32 140.42 178.72 140.02 179.62 Z M 139.61 180.53 L 139.20 181.43 C 138.80 182.33 139.20 183.38 140.10 183.79 C 140.99 184.19 142.04 183.79 142.45 182.89 L 142.86 181.99 C 143.26 181.09 142.86 180.04 141.97 179.63 C 141.07 179.23 140.02 179.63 139.61 180.53 Z M 139.20 181.44 L 138.79 182.36 C 138.39 183.25 138.79 184.30 139.68 184.71 C 140.58 185.11 141.63 184.71 142.03 183.81 L 142.45 182.89 C 142.85 182.00 142.45 180.95 141.55 180.54 C 140.66 180.14 139.61 180.54 139.20 181.44 Z M 138.79 182.37 L 138.37 183.30 C 137.97 184.20 138.38 185.25 139.28 185.65 C 140.17 186.05 141.22 185.64 141.62 184.74 L 142.04 183.81 C 142.43 182.91 142.03 181.86 141.13 181.46 C 140.23 181.06 139.19 181.47 138.79 182.37 Z M 138.36 183.32 L 137.96 184.25 C 137.58 185.15 137.99 186.20 138.89 186.58 C 139.79 186.97 140.84 186.56 141.23 185.66 L 141.63 184.73 C 142.01 183.83 141.60 182.78 140.70 182.39 C 139.80 182.01 138.75 182.42 138.36 183.32 Z M 137.95 184.28 L 137.57 185.21 C 137.20 186.11 137.63 187.15 138.54 187.52 C 139.45 187.89 140.48 187.46 140.86 186.55 L 141.24 185.63 C 141.61 184.72 141.18 183.68 140.27 183.31 C 139.36 182.94 138.33 183.37 137.95 184.28 Z M 137.55 185.28 L 137.11 186.49 C 136.78 187.42 137.26 188.43 138.18 188.76 C 139.10 189.09 140.12 188.61 140.45 187.69 L 140.88 186.48 C 141.21 185.56 140.74 184.54 139.81 184.21 C 138.89 183.88 137.88 184.36 137.55 185.28 Z M 137.04 186.74 L 136.85 187.70 C 136.66 188.66 137.28 189.59 138.24 189.78 C 139.20 189.98 140.13 189.36 140.32 188.40 L 140.51 187.44 C 140.71 186.48 140.09 185.55 139.13 185.36 C 138.17 185.16 137.24 185.78 137.04 186.74 Z M 136.89 188.53 L 137.06 189.13 C 137.32 190.07 138.29 190.61 139.23 190.35 C 140.17 190.09 140.72 189.11 140.46 188.17 L 140.29 187.57 C 140.02 186.63 139.05 186.08 138.11 186.35 C 137.17 186.61 136.62 187.59 136.89 188.53 Z M 138.34 190.35 L 139.02 190.51 C 139.95 190.75 140.90 190.17 141.13 189.24 C 141.36 188.30 140.79 187.36 139.86 187.12 L 139.17 186.96 C 138.24 186.72 137.29 187.30 137.06 188.23 C 136.83 189.17 137.40 190.11 138.34 190.35 Z M 139.87 190.47 L 140.91 190.20 C 141.83 189.96 142.37 189.02 142.13 188.11 C 141.89 187.20 140.96 186.65 140.04 186.89 L 139.00 187.16 C 138.09 187.40 137.54 188.34 137.78 189.25 C 138.02 190.17 138.96 190.71 139.87 190.47 Z M 141.22 190.05 L 142.27 189.54 C 143.10 189.13 143.45 188.12 143.04 187.29 C 142.63 186.45 141.62 186.11 140.79 186.52 L 139.74 187.04 C 138.90 187.45 138.56 188.45 138.97 189.29 C 139.38 190.12 140.39 190.46 141.22 190.05 Z M 142.43 189.42 L 143.25 188.89 C 144.02 188.40 144.25 187.37 143.75 186.60 C 143.26 185.83 142.23 185.60 141.46 186.10 L 140.63 186.63 C 139.86 187.13 139.64 188.15 140.13 188.93 C 140.63 189.70 141.65 189.92 142.43 189.42 Z M 143.34 188.81 L 144.16 188.20 C 144.88 187.66 145.03 186.63 144.48 185.90 C 143.94 185.17 142.91 185.03 142.18 185.57 L 141.37 186.18 C 140.64 186.73 140.50 187.76 141.04 188.48 C 141.59 189.21 142.62 189.36 143.34 188.81 Z M 144.22 188.13 L 145.00 187.48 C 145.69 186.89 145.77 185.87 145.19 185.18 C 144.61 184.49 143.58 184.40 142.89 184.98 L 142.12 185.64 C 141.43 186.22 141.34 187.25 141.92 187.94 C 142.50 188.63 143.53 188.71 144.22 188.13 Z M 145.05 187.42 L 145.77 186.74 C 146.43 186.14 146.47 185.11 145.86 184.46 C 145.25 183.80 144.23 183.76 143.57 184.37 L 142.85 185.04 C 142.19 185.65 142.15 186.67 142.76 187.33 C 143.37 187.98 144.39 188.02 145.05 187.42 Z M 145.82 186.69 L 146.49 186.00 C 147.12 185.37 147.11 184.35 146.48 183.73 C 145.85 183.10 144.83 183.11 144.21 183.74 L 143.53 184.43 C 142.90 185.06 142.91 186.08 143.54 186.70 C 144.18 187.33 145.19 187.32 145.82 186.69 Z M 146.54 185.94 L 147.19 185.21 C 147.78 184.56 147.73 183.54 147.07 182.95 C 146.41 182.36 145.40 182.42 144.81 183.08 L 144.16 183.80 C 143.57 184.46 143.62 185.47 144.28 186.06 C 144.94 186.65 145.95 186.60 146.54 185.94 Z M 147.24 185.15 L 147.89 184.36 C 148.44 183.68 148.34 182.67 147.66 182.12 C 146.98 181.56 145.98 181.66 145.42 182.34 L 144.77 183.14 C 144.21 183.82 144.31 184.82 144.99 185.38 C 145.67 185.94 146.68 185.83 147.24 185.15 Z M 147.92 184.31 L 148.52 183.51 C 149.05 182.81 148.92 181.81 148.22 181.28 C 147.52 180.75 146.52 180.89 145.99 181.59 L 145.39 182.39 C 144.86 183.09 144.99 184.09 145.69 184.62 C 146.39 185.15 147.39 185.01 147.92 184.31 Z M 148.55 183.47 L 149.11 182.68 C 149.62 181.97 149.45 180.98 148.74 180.47 C 148.03 179.96 147.04 180.13 146.53 180.84 L 145.97 181.63 C 145.46 182.34 145.62 183.33 146.34 183.84 C 147.05 184.35 148.04 184.18 148.55 183.47 Z M 149.13 182.65 L 149.70 181.82 C 150.19 181.09 150.00 180.11 149.28 179.62 C 148.55 179.12 147.57 179.31 147.07 180.04 L 146.51 180.87 C 146.01 181.59 146.20 182.58 146.93 183.07 C 147.65 183.57 148.64 183.38 149.13 182.65 Z M 149.72 181.79 L 150.28 180.93 C 150.75 180.19 150.54 179.21 149.81 178.73 C 149.07 178.26 148.09 178.47 147.61 179.20 L 147.05 180.06 C 146.58 180.80 146.79 181.78 147.52 182.26 C 148.26 182.74 149.24 182.53 149.72 181.79 Z M 150.30 180.90 L 150.84 180.02 C 151.30 179.28 151.07 178.30 150.32 177.84 C 149.58 177.38 148.60 177.61 148.14 178.35 L 147.60 179.23 C 147.14 179.97 147.37 180.95 148.11 181.41 C 148.86 181.88 149.83 181.64 150.30 180.90 Z M 150.86 180.00 L 151.37 179.12 C 151.82 178.36 151.57 177.39 150.81 176.94 C 150.05 176.50 149.08 176.75 148.63 177.51 L 148.12 178.38 C 147.67 179.14 147.93 180.11 148.68 180.56 C 149.44 181.00 150.41 180.75 150.86 180.00 Z M 151.40 179.09 L 151.88 178.22 C 152.31 177.45 152.03 176.48 151.26 176.05 C 150.49 175.62 149.52 175.90 149.10 176.67 L 148.61 177.54 C 148.18 178.31 148.46 179.28 149.23 179.71 C 150.00 180.14 150.97 179.86 151.40 179.09 Z M 151.91 178.18 L 152.37 177.31 C 152.78 176.52 152.47 175.56 151.69 175.15 C 150.91 174.74 149.94 175.04 149.53 175.82 L 149.07 176.70 C 148.66 177.48 148.96 178.45 149.75 178.86 C 150.53 179.27 151.50 178.97 151.91 178.18 Z M 152.39 177.27 L 152.83 176.38 C 153.22 175.59 152.89 174.62 152.09 174.23 C 151.30 173.84 150.33 174.17 149.94 174.97 L 149.51 175.86 C 149.11 176.65 149.44 177.62 150.24 178.01 C 151.04 178.40 152.00 178.07 152.39 177.27 Z M 152.85 176.35 L 153.27 175.43 C 153.64 174.62 153.29 173.67 152.48 173.29 C 151.67 172.92 150.71 173.28 150.34 174.09 L 149.92 175.00 C 149.55 175.81 149.90 176.77 150.71 177.14 C 151.52 177.51 152.48 177.16 152.85 176.35 Z M 153.30 175.41 L 153.77 174.34 C 154.13 173.52 153.75 172.56 152.92 172.20 C 152.10 171.84 151.14 172.22 150.78 173.04 L 150.31 174.11 C 149.95 174.93 150.33 175.89 151.15 176.25 C 151.98 176.61 152.94 176.24 153.30 175.41 Z M 153.78 174.38 L 154.25 173.35 C 154.64 172.51 154.27 171.52 153.43 171.14 C 152.59 170.76 151.61 171.13 151.23 171.97 L 150.76 173.01 C 150.38 173.84 150.75 174.83 151.58 175.21 C 152.42 175.59 153.40 175.22 153.78 174.38 Z M 154.22 173.48 L 154.71 172.61 C 155.16 171.79 154.87 170.76 154.05 170.30 C 153.23 169.85 152.20 170.14 151.74 170.96 L 151.26 171.83 C 150.80 172.65 151.10 173.68 151.92 174.14 C 152.74 174.59 153.77 174.30 154.22 173.48 Z M 154.53 172.92 L 155.04 172.33 C 155.67 171.61 155.59 170.51 154.87 169.89 C 154.14 169.26 153.05 169.34 152.43 170.06 L 151.92 170.65 C 151.29 171.38 151.37 172.47 152.09 173.09 C 152.82 173.72 153.91 173.64 154.53 172.92 Z M 154.23 172.89 L 154.91 172.69 C 155.84 172.42 156.38 171.44 156.11 170.51 C 155.84 169.57 154.86 169.04 153.93 169.31 L 153.24 169.51 C 152.31 169.78 151.77 170.75 152.05 171.69 C 152.32 172.62 153.29 173.16 154.23 172.89 Z M 153.68 172.63 L 154.48 172.99 C 155.38 173.40 156.44 173.00 156.85 172.10 C 157.26 171.20 156.86 170.14 155.96 169.73 L 155.16 169.37 C 154.26 168.96 153.20 169.36 152.79 170.26 C 152.38 171.16 152.78 172.22 153.68 172.63 Z M 154.01 172.71 L 154.85 173.46 C 155.60 174.13 156.74 174.06 157.41 173.32 C 158.08 172.57 158.01 171.42 157.26 170.76 L 156.43 170.01 C 155.68 169.34 154.53 169.41 153.87 170.15 C 153.20 170.90 153.27 172.05 154.01 172.71 Z M 154.72 173.36 L 155.43 174.13 C 156.12 174.87 157.28 174.91 158.02 174.21 C 158.76 173.52 158.80 172.36 158.11 171.62 L 157.40 170.86 C 156.71 170.12 155.55 170.08 154.81 170.77 C 154.07 171.46 154.03 172.62 154.72 173.36 Z M 155.40 174.10 L 156.03 174.81 C 156.71 175.57 157.87 175.63 158.63 174.96 C 159.39 174.28 159.45 173.11 158.78 172.36 L 158.15 171.65 C 157.47 170.89 156.31 170.82 155.55 171.50 C 154.79 172.18 154.72 173.34 155.40 174.10 Z M 156.02 174.80 L 156.67 175.55 C 157.35 176.31 158.51 176.38 159.28 175.71 C 160.04 175.04 160.12 173.87 159.44 173.10 L 158.79 172.36 C 158.11 171.60 156.95 171.52 156.18 172.20 C 155.42 172.87 155.34 174.04 156.02 174.80 Z M 156.68 175.56 L 157.37 176.34 C 158.05 177.10 159.22 177.17 159.98 176.49 C 160.75 175.81 160.81 174.64 160.13 173.87 L 159.44 173.09 C 158.76 172.33 157.59 172.26 156.83 172.94 C 156.06 173.62 155.99 174.79 156.68 175.56 Z M 157.38 176.36 L 158.10 177.14 C 158.80 177.90 159.97 177.95 160.73 177.26 C 161.48 176.56 161.53 175.39 160.84 174.63 L 160.12 173.85 C 159.43 173.09 158.25 173.04 157.50 173.74 C 156.74 174.43 156.69 175.60 157.38 176.36 Z M 158.12 177.17 L 158.83 177.91 C 159.54 178.66 160.71 178.69 161.46 177.98 C 162.20 177.27 162.23 176.10 161.53 175.35 L 160.82 174.61 C 160.11 173.86 158.94 173.83 158.19 174.54 C 157.45 175.25 157.42 176.42 158.12 177.17 Z M 158.84 177.93 L 159.57 178.67 C 160.29 179.41 161.46 179.42 162.20 178.71 C 162.94 177.99 162.95 176.81 162.23 176.08 L 161.51 175.33 C 160.79 174.60 159.62 174.58 158.88 175.30 C 158.14 176.02 158.13 177.19 158.84 177.93 Z M 159.58 178.69 L 160.30 179.41 C 161.02 180.14 162.20 180.14 162.93 179.42 C 163.66 178.69 163.67 177.51 162.94 176.79 L 162.22 176.06 C 161.50 175.33 160.32 175.33 159.59 176.05 C 158.86 176.78 158.86 177.96 159.58 178.69 Z M 160.31 179.42 L 160.99 180.10 C 161.72 180.83 162.90 180.82 163.63 180.09 C 164.35 179.36 164.35 178.18 163.62 177.45 L 162.93 176.77 C 162.20 176.05 161.02 176.05 160.29 176.79 C 159.57 177.52 159.58 178.70 160.31 179.42 Z M 161.00 180.11 L 161.74 180.83 C 162.48 181.55 163.66 181.54 164.38 180.80 C 165.10 180.07 165.08 178.89 164.35 178.17 L 163.61 177.44 C 162.87 176.72 161.69 176.74 160.97 177.47 C 160.25 178.21 160.26 179.39 161.00 180.11 Z M 161.76 180.85 L 162.51 181.57 C 163.26 182.28 164.44 182.26 165.15 181.51 C 165.86 180.77 165.84 179.59 165.09 178.87 L 164.33 178.15 C 163.59 177.44 162.41 177.47 161.69 178.21 C 160.98 178.96 161.01 180.14 161.76 180.85 Z M 162.54 181.60 L 163.24 182.24 C 164.00 182.94 165.18 182.89 165.88 182.13 C 166.58 181.37 166.53 180.19 165.77 179.49 L 165.06 178.85 C 164.30 178.15 163.12 178.20 162.43 178.96 C 161.73 179.72 161.78 180.90 162.54 181.60 Z M 163.28 182.28 L 163.98 182.88 C 164.75 183.56 165.93 183.48 166.61 182.70 C 167.28 181.92 167.20 180.74 166.42 180.06 L 165.73 179.46 C 164.95 178.78 163.77 178.87 163.10 179.64 C 162.42 180.42 162.50 181.60 163.28 182.28 Z M 164.02 182.92 L 164.76 183.53 C 165.56 184.18 166.74 184.06 167.39 183.27 C 168.04 182.47 167.92 181.29 167.13 180.64 L 166.38 180.03 C 165.59 179.38 164.41 179.49 163.76 180.29 C 163.11 181.09 163.22 182.26 164.02 182.92 Z M 164.81 183.56 L 165.59 184.17 C 166.41 184.79 167.58 184.64 168.21 183.83 C 168.84 183.02 168.69 181.85 167.87 181.22 L 167.08 180.61 C 166.27 179.98 165.10 180.13 164.47 180.94 C 163.84 181.76 163.99 182.93 164.81 183.56 Z M 165.64 184.19 L 166.46 184.80 C 167.29 185.40 168.45 185.22 169.06 184.39 C 169.67 183.56 169.48 182.39 168.65 181.79 L 167.83 181.19 C 167.00 180.58 165.83 180.76 165.23 181.59 C 164.62 182.42 164.80 183.59 165.64 184.19 Z M 166.50 184.82 L 167.33 185.39 C 168.18 185.98 169.33 185.77 169.92 184.92 C 170.50 184.08 170.29 182.92 169.44 182.33 L 168.61 181.76 C 167.77 181.18 166.61 181.39 166.03 182.24 C 165.44 183.08 165.66 184.24 166.50 184.82 Z M 167.37 185.42 L 168.19 185.96 C 169.05 186.52 170.20 186.28 170.76 185.43 C 171.33 184.57 171.09 183.42 170.23 182.86 L 169.41 182.31 C 168.55 181.75 167.40 181.99 166.84 182.84 C 166.27 183.70 166.51 184.85 167.37 185.42 Z M 168.22 185.97 L 169.07 186.51 C 169.93 187.06 171.08 186.80 171.62 185.94 C 172.17 185.07 171.92 183.93 171.05 183.38 L 170.20 182.84 C 169.34 182.29 168.20 182.55 167.65 183.42 C 167.10 184.28 167.36 185.42 168.22 185.97 Z M 169.09 186.52 L 169.95 187.05 C 170.82 187.59 171.96 187.32 172.50 186.45 C 173.03 185.58 172.76 184.44 171.90 183.91 L 171.03 183.37 C 170.16 182.83 169.02 183.10 168.49 183.97 C 167.95 184.84 168.22 185.98 169.09 186.52 Z M 169.96 187.06 L 170.80 187.57 C 171.67 188.10 172.80 187.82 173.33 186.95 C 173.86 186.08 173.59 184.95 172.72 184.41 L 171.88 183.90 C 171.01 183.37 169.88 183.65 169.35 184.52 C 168.82 185.39 169.09 186.52 169.96 187.06 Z M 170.81 187.57 L 171.65 188.07 C 172.52 188.60 173.65 188.31 174.18 187.44 C 174.70 186.57 174.42 185.44 173.55 184.92 L 172.71 184.41 C 171.84 183.89 170.70 184.17 170.18 185.04 C 169.66 185.91 169.94 187.04 170.81 187.57 Z M 171.67 188.08 L 172.53 188.59 C 173.40 189.10 174.53 188.81 175.04 187.94 C 175.56 187.06 175.27 185.94 174.39 185.42 L 173.53 184.91 C 172.66 184.40 171.53 184.69 171.02 185.56 C 170.50 186.44 170.79 187.56 171.67 188.08 Z M 172.55 188.59 L 173.45 189.11 C 174.32 189.61 175.44 189.31 175.95 188.43 C 176.45 187.55 176.15 186.43 175.27 185.93 L 174.37 185.42 C 173.50 184.91 172.38 185.22 171.87 186.09 C 171.37 186.97 171.67 188.09 172.55 188.59 Z M 173.47 189.11 L 174.34 189.60 C 175.22 190.09 176.33 189.77 176.82 188.90 C 177.32 188.02 177.00 186.90 176.12 186.41 L 175.25 185.93 C 174.37 185.43 173.26 185.75 172.77 186.63 C 172.27 187.51 172.59 188.62 173.47 189.11 Z M 174.37 189.60 L 175.25 190.08 C 176.13 190.56 177.24 190.23 177.71 189.35 C 178.19 188.47 177.86 187.36 176.98 186.89 L 176.10 186.41 C 175.21 185.93 174.11 186.26 173.63 187.14 C 173.15 188.02 173.48 189.13 174.37 189.60 Z M 175.28 190.09 L 176.18 190.56 C 177.06 191.02 178.16 190.68 178.62 189.79 C 179.08 188.90 178.74 187.81 177.85 187.35 L 176.95 186.88 C 176.07 186.42 174.97 186.76 174.51 187.65 C 174.05 188.53 174.39 189.63 175.28 190.09 Z M 176.21 190.57 L 177.10 191.01 C 177.99 191.46 179.08 191.10 179.52 190.20 C 179.97 189.31 179.60 188.23 178.71 187.78 L 177.82 187.34 C 176.93 186.89 175.84 187.26 175.40 188.15 C 174.95 189.04 175.32 190.12 176.21 190.57 Z M 177.14 191.02 L 178.06 191.46 C 178.96 191.88 180.03 191.50 180.45 190.60 C 180.88 189.70 180.49 188.63 179.59 188.21 L 178.67 187.77 C 177.78 187.35 176.71 187.74 176.28 188.63 C 175.86 189.53 176.24 190.60 177.14 191.02 Z M 178.11 191.47 L 179.04 191.88 C 179.94 192.28 181.00 191.87 181.40 190.97 C 181.80 190.06 181.39 189.01 180.48 188.61 L 179.55 188.20 C 178.65 187.80 177.59 188.21 177.19 189.11 C 176.79 190.01 177.20 191.07 178.11 191.47 Z M 179.08 191.89 L 180.00 192.27 C 180.91 192.64 181.95 192.21 182.32 191.30 C 182.70 190.40 182.27 189.36 181.36 188.98 L 180.44 188.60 C 179.53 188.23 178.49 188.66 178.12 189.57 C 177.74 190.47 178.17 191.51 179.08 191.89 Z M 180.04 192.27 L 180.94 192.63 C 181.86 192.98 182.88 192.53 183.24 191.62 C 183.59 190.71 183.14 189.68 182.23 189.33 L 181.32 188.98 C 180.41 188.62 179.38 189.07 179.03 189.98 C 178.68 190.89 179.13 191.92 180.04 192.27 Z M 180.98 192.63 L 181.91 192.97 C 182.82 193.31 183.83 192.84 184.17 191.93 C 184.51 191.02 184.04 190.01 183.13 189.67 L 182.19 189.33 C 181.28 188.99 180.27 189.46 179.94 190.37 C 179.60 191.28 180.07 192.29 180.98 192.63 Z M 181.95 192.97 L 182.90 193.30 C 183.81 193.62 184.80 193.14 185.12 192.22 C 185.44 191.31 184.95 190.32 184.04 190.00 L 183.09 189.67 C 182.18 189.35 181.18 189.84 180.87 190.75 C 180.55 191.66 181.03 192.66 181.95 192.97 Z M 182.94 193.30 L 183.89 193.61 C 184.80 193.90 185.78 193.40 186.07 192.49 C 186.37 191.58 185.87 190.60 184.95 190.31 L 184.00 190.00 C 183.09 189.70 182.11 190.20 181.82 191.12 C 181.52 192.03 182.02 193.01 182.94 193.30 Z M 183.93 193.61 L 184.88 193.89 C 185.79 194.16 186.75 193.64 187.02 192.73 C 187.29 191.82 186.77 190.86 185.86 190.59 L 184.91 190.30 C 184.00 190.03 183.04 190.55 182.77 191.47 C 182.49 192.38 183.02 193.34 183.93 193.61 Z M 184.93 193.89 L 185.90 194.15 C 186.81 194.40 187.75 193.86 188.00 192.94 C 188.24 192.03 187.70 191.09 186.79 190.85 L 185.81 190.59 C 184.90 190.34 183.96 190.88 183.72 191.80 C 183.47 192.71 184.01 193.65 184.93 193.89 Z M 185.94 194.15 L 186.92 194.39 C 187.83 194.61 188.75 194.05 188.97 193.14 C 189.19 192.23 188.63 191.31 187.72 191.09 L 186.74 190.85 C 185.83 190.63 184.92 191.19 184.69 192.10 C 184.47 193.01 185.03 193.93 185.94 194.15 Z M 186.95 194.38 L 187.92 194.60 C 188.83 194.80 189.73 194.23 189.93 193.32 C 190.14 192.41 189.57 191.51 188.66 191.31 L 187.69 191.09 C 186.78 190.89 185.88 191.46 185.68 192.37 C 185.48 193.28 186.05 194.18 186.95 194.38 Z M 187.95 194.59 L 188.92 194.79 C 189.82 194.98 190.71 194.40 190.90 193.50 C 191.09 192.60 190.51 191.72 189.61 191.53 L 188.64 191.32 C 187.73 191.13 186.85 191.71 186.66 192.61 C 186.47 193.51 187.05 194.40 187.95 194.59 Z M 188.94 194.78 L 189.94 194.98 C 190.84 195.16 191.71 194.58 191.89 193.68 C 192.06 192.79 191.48 191.92 190.59 191.74 L 189.59 191.54 C 188.69 191.36 187.82 191.94 187.65 192.84 C 187.47 193.73 188.05 194.60 188.94 194.78 Z M 189.97 194.97 L 190.96 195.15 C 191.84 195.31 192.70 194.72 192.86 193.84 C 193.02 192.95 192.44 192.10 191.55 191.93 L 190.56 191.75 C 189.67 191.59 188.82 192.18 188.66 193.06 C 188.50 193.95 189.08 194.80 189.97 194.97 Z M 190.99 195.14 L 191.96 195.29 C 192.84 195.44 193.67 194.84 193.82 193.96 C 193.96 193.07 193.36 192.24 192.48 192.10 L 191.51 191.94 C 190.63 191.80 189.80 192.40 189.66 193.28 C 189.51 194.16 190.11 194.99 190.99 195.14 Z M 192.01 195.28 L 193.00 195.41 C 193.87 195.53 194.68 194.91 194.79 194.04 C 194.91 193.16 194.29 192.36 193.42 192.24 L 192.43 192.11 C 191.56 192.00 190.75 192.61 190.63 193.49 C 190.52 194.36 191.13 195.17 192.01 195.28 Z M 193.04 195.40 L 194.03 195.50 C 194.90 195.60 195.68 194.97 195.77 194.10 C 195.86 193.23 195.23 192.45 194.36 192.36 L 193.37 192.26 C 192.51 192.16 191.73 192.79 191.64 193.66 C 191.54 194.53 192.17 195.31 193.04 195.40 Z M 194.06 195.49 L 195.05 195.58 C 195.91 195.65 196.67 195.02 196.74 194.16 C 196.82 193.30 196.19 192.54 195.33 192.46 L 194.34 192.38 C 193.48 192.30 192.72 192.94 192.64 193.80 C 192.57 194.66 193.20 195.41 194.06 195.49 Z M 195.07 195.56 L 195.98 195.63 C 196.83 195.70 197.57 195.07 197.64 194.22 C 197.71 193.37 197.08 192.62 196.23 192.55 L 195.31 192.48 C 194.46 192.41 193.72 193.05 193.65 193.90 C 193.58 194.75 194.22 195.49 195.07 195.56 Z M 195.99 195.62 L 196.83 195.68 C 197.67 195.74 198.41 195.11 198.47 194.27 C 198.53 193.43 197.90 192.69 197.05 192.63 L 196.21 192.57 C 195.37 192.51 194.64 193.14 194.58 193.98 C 194.51 194.82 195.15 195.56 195.99 195.62 Z M 196.85 195.67 L 197.79 195.73 C 198.63 195.78 199.35 195.14 199.40 194.30 C 199.45 193.47 198.81 192.75 197.97 192.70 L 197.03 192.64 C 196.20 192.59 195.48 193.23 195.43 194.06 C 195.38 194.90 196.02 195.62 196.85 195.67 Z M 197.82 195.71 L 198.92 195.76 C 199.75 195.80 200.45 195.15 200.49 194.32 C 200.52 193.50 199.88 192.79 199.05 192.76 L 197.95 192.71 C 197.12 192.68 196.42 193.32 196.38 194.15 C 196.35 194.98 196.99 195.68 197.82 195.71 Z M 198.94 195.75 L 200.09 195.78 C 200.91 195.80 201.59 195.16 201.62 194.33 C 201.64 193.51 200.99 192.82 200.17 192.80 L 199.02 192.77 C 198.20 192.75 197.52 193.40 197.49 194.22 C 197.47 195.04 198.12 195.73 198.94 195.75 Z M 200.10 195.77 L 200.96 195.79 C 201.78 195.80 202.45 195.15 202.46 194.33 C 202.48 193.51 201.83 192.84 201.01 192.82 L 200.15 192.81 C 199.33 192.80 198.66 193.45 198.64 194.27 C 198.63 195.08 199.28 195.76 200.10 195.77 Z M 200.97 195.78 L 201.89 195.79 C 202.71 195.80 203.38 195.15 203.39 194.33 C 203.40 193.52 202.74 192.85 201.93 192.84 L 201.00 192.83 C 200.18 192.82 199.51 193.47 199.51 194.29 C 199.50 195.10 200.15 195.77 200.97 195.78 Z M 201.90 195.79 L 202.89 195.79 C 203.70 195.80 204.36 195.15 204.37 194.33 C 204.37 193.52 203.72 192.86 202.91 192.85 L 201.92 192.84 C 201.11 192.84 200.44 193.49 200.44 194.31 C 200.43 195.12 201.09 195.78 201.90 195.79 Z M 202.89 195.79 L 203.92 195.79 C 204.73 195.80 205.39 195.14 205.40 194.33 C 205.40 193.52 204.75 192.86 203.94 192.86 L 202.90 192.86 C 202.09 192.85 201.43 193.51 201.43 194.32 C 201.43 195.13 202.08 195.79 202.89 195.79 Z M 203.93 195.79 L 205.00 195.79 C 205.80 195.79 206.46 195.14 206.46 194.33 C 206.46 193.53 205.81 192.87 205.00 192.87 L 203.93 192.87 C 203.13 192.87 202.47 193.52 202.47 194.32 C 202.47 195.13 203.12 195.79 203.93 195.79 Z M 205.00 195.78 L 206.09 195.79 C 206.89 195.79 207.55 195.13 207.55 194.33 C 207.55 193.53 206.90 192.88 206.09 192.88 L 205.00 192.87 C 204.20 192.87 203.55 193.52 203.54 194.33 C 203.54 195.13 204.19 195.78 205.00 195.78 Z M 206.09 195.78 L 207.08 195.78 C 207.88 195.78 208.53 195.13 208.53 194.33 C 208.53 193.53 207.88 192.88 207.08 192.88 L 206.09 192.88 C 205.29 192.88 204.64 193.53 204.64 194.33 C 204.64 195.13 205.29 195.78 206.09 195.78 Z"
      fill="black"
      fill-rule="nonzero" /></svg>