<svg xmlns="http://www.w3.org/2000/svg" width="300" height="300" viewBox="0 0 300 300">
<path d="M 127.70 132.26 L 126.37 132.26 C 125.48 132.26 124.76 132.98 124.76 133.87 C 124.76 134.77 125.48 135.49 126.37 135.49 L 127.70 135.49 C 128.60 135.49 129.32 134.77 129.32 133.87 C 129.32 132.98 128.60 132.26 127.70 132.26 Z M 126.37 132.26 L 125.10 132.26 C 124.21 132.26 123.48 132.98 123.48 133.87 C 123.48 134.77 124.21 135.49 125.10 135.49 L 126.37 135.49 C 127.27 135.49 127.99 134.77 127.99 133.87 C 127.99 132.98 127.27 132.26 126.37 132.26 Z M 125.10 132.25 L 123.95 132.25 C 123.06 132.25 122.33 132.98 122.33 133.87 C 122.33 134.77 123.06 135.49 123.95 135.49 L 125.10 135.49 C 126.00 135.49 126.72 134.77 126.72 133.87 C 126.72 132.98 126.00 132.25 125.10 132.25 Z M 123.95 132.25 L 122.98 132.25 C 122.09 132.25 121.36 132.98 121.36 133.87 C 121.36 134.77 122.09 135.49 122.98 135.49 L 123.95 135.49 C 124.85 135.49 125.57 134.77 125.57 133.87 C 125.57 132.98 124.85 132.25 123.95 132.25 Z M 122.98 132.25 L 122.26 132.25 C 121.36 132.25 120.63 132.98 120.63 133.87 C 120.63 134.77 121.36 135.50 122.26 135.50 L 122.98 135.50 C 123.88 135.50 124.61 134.77 124.61 133.87 C 124.61 132.98 123.88 132.25 122.98 132.25 Z M 122.26 132.25 L 121.79 132.25 C 120.89 132.25 120.17 132.98 120.17 133.87 C 120.17 134.77 120.89 135.50 121.79 135.50 L 122.26 135.50 C 123.15 135.50 123.88 134.77 123.88 133.87 C 123.88 132.98 123.15 132.25 122.26 132.25 Z M 121.79 135.50 L 121.98 135.50 C 122.88 135.50 123.61 134.77 123.61 133.87 C 123.61 132.98 122.88 132.25 121.98 132.25 L 121.79 132.25 C 120.89 132.25 120.17 132.98 120.17 133.87 C 120.17 134.77 120.89 135.50 121.79 135.50 Z M 121.98 135.50 L 123.06 135.50 C 123.96 135.50 124.69 134.77 124.69 133.87 C 124.69 132.98 123.96 132.25 123.06 132.25 L 121.98 132.25 C 121.09 132.25 120.36 132.98 120.36 133.87 C 120.36 134.77 121.09 135.50 121.98 135.50 Z M 123.06 135.50 L 124.44 135.50 C 125.34 135.50 126.07 134.77 126.07 133.87 C 126.07 132.98 125.34 132.25 124.44 132.25 L 123.06 132.25 C 122.16 132.25 121.44 132.98 121.44 133.87 C 121.44 134.77 122.16 135.50 123.06 135.50 Z M 124.44 135.50 L 125.46 135.50 C 126.36 135.50 127.09 134.77 127.09 133.87 C 127.09 132.98 126.36 132.25 125.46 132.25 L 124.44 132.25 C 123.55 132.25 122.82 132.98 122.82 133.87 C 122.82 134.77 123.55 135.50 124.44 135.50 Z M 125.46 135.50 L 126.50 135.50 C 127.39 135.50 128.12 134.77 128.12 133.87 C 128.12 132.98 127.39 132.25 126.50 132.25 L 125.46 132.25 C 124.57 132.25 123.84 132.98 123.84 133.87 C 123.84 134.77 124.57 135.50 125.46 135.50 Z M 126.50 135.49 L 127.52 135.49 C 128.41 135.49 129.14 134.77 129.14 133.87 C 129.14 132.98 128.41 132.25 127.52 132.25 L 126.50 132.25 C 125.60 132.25 124.88 132.98 124.88 133.87 C 124.88 134.77 125.60 135.49 126.50 135.49 Z M 127.52 135.49 L 128.49 135.49 C 129.38 135.49 130.11 134.77 130.11 133.87 C 130.11 132.98 129.38 132.25 128.49 132.25 L 127.52 132.25 C 126.62 132.25 125.90 132.98 125.90 133.87 C 125.90 134.77 126.62 135.49 127.52 135.49 Z M 128.49 135.49 L 129.52 135.49 C 130.41 135.49 131.13 134.77 131.13 133.87 C 131.13 132.98 130.41 132.26 129.52 132.26 L 128.49 132.26 C 127.59 132.26 126.87 132.98 126.87 133.87 C 126.87 134.77 127.59 135.49 128.49 135.49 Z M 129.52 135.49 L 130.57 135.48 C 131.46 135.48 132.18 134.76 132.18 133.87 C 132.18 132.98 131.45 132.26 130.56 132.26 L 129.52 132.26 C 128.62 132.26 127.90 132.98 127.90 133.88 C 127.91 134.77 128.63 135.49 129.52 135.49 Z M 130.57 135.48 L 131.53 135.47 C 132.42 135.47 133.14 134.74 133.13 133.86 C 133.13 132.97 132.40 132.25 131.51 132.26 L 130.55 132.26 C 129.67 132.27 128.95 132.99 128.96 133.88 C 128.96 134.77 129.69 135.48 130.57 135.48 Z M 131.55 135.47 L 132.47 135.45 C 133.36 135.44 134.06 134.71 134.05 133.83 C 134.04 132.94 133.31 132.24 132.43 132.25 L 131.50 132.26 C 130.62 132.28 129.91 133.00 129.92 133.89 C 129.93 134.77 130.66 135.48 131.55 135.47 Z M 132.49 135.45 L 133.45 135.43 C 134.33 135.40 135.03 134.67 135.01 133.79 C 134.99 132.90 134.25 132.21 133.37 132.23 L 132.41 132.25 C 131.53 132.28 130.83 133.01 130.85 133.89 C 130.87 134.78 131.61 135.47 132.49 135.45 Z M 133.48 135.42 L 134.47 135.38 C 135.35 135.34 136.03 134.60 135.99 133.72 C 135.96 132.84 135.21 132.16 134.33 132.19 L 133.34 132.23 C 132.46 132.27 131.78 133.01 131.82 133.89 C 131.86 134.77 132.60 135.46 133.48 135.42 Z M 134.50 135.37 L 135.52 135.31 C 136.39 135.25 137.06 134.50 137.00 133.62 C 136.95 132.74 136.19 132.08 135.32 132.13 L 134.30 132.20 C 133.42 132.25 132.76 133.01 132.81 133.89 C 132.87 134.76 133.62 135.43 134.50 135.37 Z M 135.56 135.30 L 136.57 135.21 C 137.44 135.13 138.09 134.36 138.01 133.49 C 137.93 132.62 137.16 131.97 136.29 132.05 L 135.28 132.14 C 134.40 132.22 133.76 132.99 133.84 133.86 C 133.92 134.73 134.69 135.38 135.56 135.30 Z M 136.61 135.20 L 137.60 135.09 C 138.47 134.99 139.09 134.21 138.99 133.34 C 138.90 132.47 138.11 131.85 137.24 131.95 L 136.25 132.06 C 135.38 132.16 134.76 132.94 134.86 133.81 C 134.96 134.68 135.74 135.30 136.61 135.20 Z M 137.63 135.08 L 138.63 134.95 C 139.50 134.83 140.10 134.04 139.99 133.17 C 139.87 132.31 139.08 131.70 138.21 131.82 L 137.21 131.95 C 136.35 132.07 135.74 132.86 135.86 133.73 C 135.98 134.59 136.77 135.20 137.63 135.08 Z M 138.66 134.94 L 139.65 134.79 C 140.51 134.66 141.10 133.85 140.97 133.00 C 140.84 132.14 140.04 131.55 139.18 131.68 L 138.19 131.83 C 137.33 131.96 136.74 132.76 136.87 133.62 C 137.00 134.48 137.80 135.07 138.66 134.94 Z M 139.67 134.78 L 140.67 134.61 C 141.53 134.47 142.10 133.66 141.96 132.81 C 141.82 131.95 141.01 131.38 140.16 131.52 L 139.15 131.69 C 138.30 131.83 137.72 132.64 137.87 133.49 C 138.01 134.34 138.82 134.92 139.67 134.78 Z M 140.69 134.60 L 141.68 134.43 C 142.53 134.27 143.09 133.46 142.94 132.61 C 142.79 131.76 141.98 131.20 141.13 131.35 L 140.14 131.53 C 139.29 131.68 138.72 132.49 138.87 133.34 C 139.03 134.19 139.84 134.76 140.69 134.60 Z M 141.69 134.42 L 142.66 134.24 C 143.51 134.08 144.07 133.26 143.91 132.42 C 143.75 131.57 142.93 131.01 142.09 131.17 L 141.12 131.36 C 140.27 131.51 139.71 132.33 139.87 133.18 C 140.03 134.02 140.85 134.58 141.69 134.42 Z M 142.67 134.23 L 143.64 134.04 C 144.48 133.88 145.03 133.07 144.87 132.23 C 144.71 131.38 143.89 130.83 143.05 130.99 L 142.08 131.18 C 141.24 131.34 140.69 132.15 140.85 133.00 C 141.01 133.84 141.83 134.39 142.67 134.23 Z M 143.64 134.04 L 144.62 133.85 C 145.46 133.68 146.01 132.87 145.84 132.03 C 145.68 131.20 144.87 130.65 144.03 130.81 L 143.05 131.00 C 142.21 131.16 141.66 131.97 141.83 132.81 C 141.99 133.65 142.80 134.20 143.64 134.04 Z M 144.63 133.84 L 145.61 133.64 C 146.44 133.47 146.98 132.66 146.81 131.83 C 146.65 130.99 145.83 130.45 145.00 130.62 L 144.02 130.82 C 143.19 130.99 142.65 131.80 142.81 132.63 C 142.98 133.47 143.79 134.01 144.63 133.84 Z M 145.63 133.63 L 146.61 133.42 C 147.43 133.24 147.96 132.43 147.78 131.60 C 147.61 130.77 146.79 130.24 145.96 130.42 L 144.98 130.63 C 144.15 130.81 143.63 131.63 143.80 132.45 C 143.98 133.28 144.80 133.81 145.63 133.63 Z M 146.63 133.41 L 147.60 133.18 C 148.43 132.99 148.94 132.17 148.75 131.35 C 148.55 130.52 147.73 130.01 146.91 130.21 L 145.94 130.43 C 145.11 130.62 144.60 131.45 144.79 132.27 C 144.99 133.09 145.81 133.60 146.63 133.41 Z M 147.62 133.17 L 148.60 132.93 C 149.41 132.73 149.91 131.90 149.70 131.08 C 149.50 130.27 148.67 129.77 147.86 129.97 L 146.89 130.22 C 146.07 130.42 145.58 131.25 145.78 132.06 C 145.98 132.88 146.81 133.37 147.62 133.17 Z M 148.60 132.92 L 149.57 132.67 C 150.38 132.46 150.87 131.64 150.67 130.83 C 150.46 130.02 149.63 129.53 148.82 129.73 L 147.85 129.98 C 147.04 130.19 146.55 131.02 146.76 131.83 C 146.97 132.64 147.79 133.13 148.60 132.92 Z M 149.57 132.67 L 150.54 132.42 C 151.34 132.22 151.83 131.40 151.63 130.59 C 151.43 129.78 150.60 129.29 149.80 129.49 L 148.83 129.74 C 148.02 129.94 147.53 130.77 147.73 131.57 C 147.94 132.38 148.76 132.87 149.57 132.67 Z M 150.52 132.42 L 151.49 132.18 C 152.30 131.98 152.79 131.17 152.59 130.36 C 152.39 129.56 151.58 129.06 150.77 129.26 L 149.81 129.50 C 149.00 129.70 148.51 130.51 148.71 131.32 C 148.90 132.12 149.72 132.61 150.52 132.42 Z M 151.49 132.17 L 152.45 131.94 C 153.26 131.74 153.75 130.93 153.55 130.13 C 153.36 129.33 152.55 128.84 151.75 129.03 L 150.78 129.27 C 149.98 129.46 149.48 130.27 149.68 131.08 C 149.87 131.88 150.68 132.37 151.49 132.17 Z M 152.46 131.93 L 153.44 131.68 C 154.23 131.48 154.72 130.68 154.52 129.88 C 154.32 129.08 153.51 128.60 152.71 128.80 L 151.74 129.04 C 150.94 129.24 150.46 130.05 150.66 130.85 C 150.86 131.64 151.66 132.13 152.46 131.93 Z M 153.45 131.67 L 154.41 131.42 C 155.20 131.21 155.67 130.40 155.46 129.61 C 155.25 128.82 154.44 128.35 153.65 128.56 L 152.70 128.81 C 151.91 129.02 151.43 129.83 151.64 130.62 C 151.85 131.41 152.66 131.88 153.45 131.67 Z M 154.42 131.41 L 155.36 131.14 C 156.15 130.93 156.60 130.11 156.39 129.33 C 156.17 128.55 155.35 128.09 154.57 128.31 L 153.63 128.57 C 152.85 128.79 152.39 129.60 152.61 130.39 C 152.83 131.17 153.64 131.63 154.42 131.41 Z M 155.37 131.13 L 156.33 130.86 C 157.11 130.63 157.56 129.82 157.34 129.04 C 157.11 128.26 156.30 127.82 155.52 128.04 L 154.56 128.32 C 153.78 128.54 153.33 129.36 153.56 130.13 C 153.78 130.91 154.60 131.36 155.37 131.13 Z M 156.34 130.85 L 157.33 130.56 C 158.10 130.33 158.54 129.52 158.32 128.75 C 158.09 127.98 157.28 127.53 156.51 127.76 L 155.52 128.05 C 154.75 128.28 154.30 129.09 154.53 129.86 C 154.75 130.63 155.57 131.08 156.34 130.85 Z M 157.33 130.55 L 158.30 130.27 C 159.07 130.04 159.51 129.24 159.28 128.47 C 159.06 127.70 158.25 127.25 157.48 127.48 L 156.51 127.76 C 155.74 127.99 155.30 128.80 155.52 129.57 C 155.75 130.34 156.56 130.78 157.33 130.55 Z M 158.30 130.27 L 159.27 129.98 C 160.04 129.76 160.48 128.95 160.25 128.18 C 160.03 127.42 159.22 126.98 158.45 127.20 L 157.48 127.48 C 156.71 127.71 156.27 128.51 156.50 129.28 C 156.72 130.05 157.53 130.49 158.30 130.27 Z M 159.27 129.98 L 160.24 129.69 C 161.00 129.46 161.44 128.66 161.22 127.90 C 160.99 127.13 160.19 126.69 159.42 126.92 L 158.45 127.20 C 157.69 127.43 157.25 128.23 157.48 129.00 C 157.70 129.76 158.50 130.20 159.27 129.98 Z M 160.24 129.68 L 161.19 129.40 C 161.95 129.17 162.38 128.37 162.16 127.61 C 161.93 126.85 161.13 126.41 160.36 126.64 L 159.42 126.92 C 158.66 127.15 158.22 127.95 158.45 128.72 C 158.68 129.48 159.48 129.91 160.24 129.68 Z M 161.20 129.40 L 162.11 129.12 C 162.87 128.89 163.29 128.08 163.06 127.32 C 162.83 126.57 162.03 126.14 161.27 126.37 L 160.36 126.65 C 159.60 126.88 159.17 127.68 159.40 128.44 C 159.63 129.20 160.44 129.63 161.20 129.40 Z M 162.12 129.11 L 163.01 128.83 C 163.77 128.59 164.19 127.79 163.95 127.03 C 163.72 126.28 162.91 125.86 162.16 126.09 L 161.26 126.38 C 160.50 126.61 160.08 127.42 160.32 128.17 C 160.56 128.93 161.36 129.35 162.12 129.11 Z M 163.02 128.82 L 163.96 128.52 C 164.71 128.28 165.12 127.47 164.88 126.72 C 164.63 125.97 163.83 125.56 163.08 125.80 L 162.14 126.10 C 161.39 126.34 160.98 127.15 161.22 127.90 C 161.47 128.65 162.27 129.07 163.02 128.82 Z M 163.97 128.52 L 164.98 128.18 C 165.73 127.93 166.14 127.12 165.89 126.37 C 165.64 125.62 164.83 125.22 164.08 125.47 L 163.07 125.80 C 162.32 126.05 161.91 126.86 162.16 127.61 C 162.41 128.36 163.22 128.77 163.97 128.52 Z M 164.99 128.18 L 165.90 127.87 C 166.65 127.61 167.05 126.80 166.79 126.06 C 166.54 125.31 165.73 124.91 164.98 125.16 L 164.07 125.47 C 163.33 125.73 162.93 126.54 163.18 127.28 C 163.43 128.03 164.24 128.43 164.99 128.18 Z M 165.91 127.86 L 166.79 127.56 C 167.53 127.31 167.93 126.49 167.68 125.75 C 167.42 125.00 166.61 124.61 165.86 124.86 L 164.98 125.17 C 164.23 125.42 163.84 126.23 164.09 126.98 C 164.35 127.72 165.16 128.12 165.91 127.86 Z M 166.79 127.56 L 167.73 127.24 C 168.47 126.98 168.87 126.17 168.61 125.42 C 168.35 124.68 167.54 124.28 166.80 124.54 L 165.86 124.86 C 165.12 125.12 164.72 125.93 164.98 126.68 C 165.23 127.42 166.05 127.82 166.79 127.56 Z M 167.73 127.24 L 168.71 126.90 C 169.45 126.64 169.84 125.83 169.59 125.08 C 169.33 124.34 168.51 123.94 167.77 124.20 L 166.79 124.54 C 166.05 124.80 165.66 125.61 165.91 126.36 C 166.17 127.10 166.99 127.49 167.73 127.24 Z M 168.71 126.90 L 169.71 126.55 C 170.45 126.29 170.85 125.48 170.59 124.73 C 170.33 123.99 169.51 123.60 168.77 123.85 L 167.77 124.20 C 167.03 124.46 166.63 125.28 166.89 126.02 C 167.15 126.76 167.96 127.16 168.71 126.90 Z M 169.71 126.55 L 170.64 126.22 C 171.38 125.96 171.77 125.15 171.51 124.41 C 171.26 123.66 170.44 123.27 169.70 123.53 L 168.77 123.85 C 168.03 124.11 167.63 124.93 167.89 125.67 C 168.15 126.41 168.97 126.81 169.71 126.55 Z"
      fill="black"
      fill-rule="nonzero" /><path d="M 152.25 126.08 L 151.55 126.82 C 150.98 127.44 151.01 128.41 151.63 128.99 C 152.25 129.57 153.22 129.53 153.79 128.91 L 154.49 128.17 C 155.07 127.56 155.03 126.58 154.42 126.01 C 153.80 125.43 152.83 125.46 152.25 126.08 Z M 151.49 126.86 L 150.84 127.63 C 150.29 128.28 150.37 129.26 151.02 129.81 C 151.67 130.37 152.65 130.29 153.20 129.64 L 153.86 128.87 C 154.41 128.22 154.33 127.24 153.68 126.69 C 153.03 126.13 152.05 126.21 151.49 126.86 Z M 150.74 127.74 L 150.17 128.55 C 149.68 129.26 149.85 130.23 150.56 130.73 C 151.27 131.22 152.25 131.05 152.75 130.34 L 153.31 129.53 C 153.81 128.82 153.63 127.84 152.92 127.35 C 152.21 126.85 151.23 127.02 150.74 127.74 Z M 150.04 128.73 L 149.62 129.57 C 149.23 130.35 149.55 131.31 150.33 131.70 C 151.11 132.09 152.06 131.77 152.45 130.99 L 152.88 130.15 C 153.27 129.37 152.95 128.42 152.17 128.03 C 151.39 127.63 150.43 127.95 150.04 128.73 Z M 149.52 129.79 L 149.24 130.65 C 148.97 131.49 149.43 132.39 150.26 132.66 C 151.10 132.94 152.00 132.48 152.28 131.64 L 152.56 130.78 C 152.83 129.94 152.37 129.04 151.53 128.76 C 150.69 128.49 149.79 128.95 149.52 129.79 Z M 149.18 130.82 L 148.99 131.77 C 148.81 132.64 149.37 133.49 150.23 133.67 C 151.10 133.85 151.95 133.29 152.13 132.42 L 152.33 131.47 C 152.51 130.60 151.95 129.75 151.08 129.57 C 150.21 129.39 149.36 129.95 149.18 130.82 Z M 148.96 131.88 L 148.82 132.94 C 148.70 133.83 149.32 134.64 150.20 134.76 C 151.09 134.88 151.90 134.26 152.02 133.38 L 152.16 132.32 C 152.28 131.43 151.66 130.62 150.78 130.50 C 149.89 130.38 149.08 131.00 148.96 131.88 Z M 148.80 133.00 L 148.69 134.06 C 148.60 134.95 149.25 135.75 150.15 135.84 C 151.04 135.93 151.84 135.28 151.93 134.38 L 152.03 133.32 C 152.12 132.43 151.47 131.63 150.58 131.54 C 149.69 131.45 148.89 132.10 148.80 133.00 Z M 148.68 134.08 L 148.60 135.06 C 148.52 135.95 149.19 136.74 150.08 136.82 C 150.98 136.90 151.77 136.23 151.85 135.34 L 151.94 134.36 C 152.01 133.46 151.35 132.67 150.45 132.60 C 149.55 132.52 148.76 133.18 148.68 134.08 Z M 148.59 135.07 L 148.52 136.08 C 148.44 136.98 149.12 137.77 150.02 137.84 C 150.92 137.91 151.71 137.24 151.78 136.34 L 151.86 135.32 C 151.93 134.42 151.25 133.64 150.35 133.57 C 149.45 133.49 148.67 134.17 148.59 135.07 Z M 148.51 136.09 L 148.43 137.12 C 148.37 138.02 149.05 138.81 149.95 138.88 C 150.86 138.94 151.64 138.26 151.71 137.36 L 151.78 136.33 C 151.85 135.43 151.17 134.64 150.26 134.58 C 149.36 134.51 148.58 135.19 148.51 136.09 Z M 148.43 137.13 L 148.36 138.14 C 148.30 139.04 148.98 139.83 149.89 139.89 C 150.79 139.96 151.58 139.27 151.64 138.36 L 151.71 137.35 C 151.77 136.45 151.09 135.66 150.18 135.60 C 149.28 135.54 148.49 136.22 148.43 137.13 Z M 148.36 138.14 L 148.29 139.15 C 148.23 140.06 148.91 140.84 149.82 140.90 C 150.73 140.97 151.52 140.28 151.58 139.37 L 151.65 138.36 C 151.71 137.45 151.02 136.67 150.11 136.61 C 149.20 136.54 148.42 137.23 148.36 138.14 Z M 148.28 139.15 L 148.21 140.22 C 148.16 141.13 148.84 141.91 149.76 141.97 C 150.67 142.03 151.45 141.34 151.51 140.43 L 151.58 139.37 C 151.64 138.46 150.95 137.67 150.04 137.61 C 149.13 137.55 148.34 138.24 148.28 139.15 Z M 148.21 140.22 L 148.15 141.22 C 148.09 142.14 148.78 142.92 149.70 142.98 C 150.61 143.04 151.39 142.34 151.45 141.43 L 151.52 140.43 C 151.57 139.52 150.88 138.73 149.97 138.67 C 149.06 138.62 148.27 139.31 148.21 140.22 Z M 148.15 141.23 L 148.09 142.19 C 148.04 143.11 148.73 143.89 149.65 143.95 C 150.56 144.00 151.34 143.30 151.40 142.39 L 151.45 141.43 C 151.51 140.51 150.81 139.73 149.90 139.67 C 148.98 139.62 148.20 140.32 148.15 141.23 Z M 148.09 142.20 L 148.04 143.15 C 147.99 144.06 148.69 144.85 149.61 144.89 C 150.52 144.94 151.30 144.24 151.35 143.32 L 151.40 142.38 C 151.45 141.46 150.75 140.68 149.83 140.63 C 148.92 140.59 148.14 141.29 148.09 142.20 Z M 148.03 143.16 L 147.99 144.12 C 147.95 145.04 148.66 145.82 149.58 145.86 C 150.49 145.90 151.27 145.19 151.31 144.27 L 151.35 143.31 C 151.40 142.40 150.69 141.62 149.77 141.58 C 148.85 141.53 148.08 142.24 148.03 143.16 Z M 147.99 144.13 L 147.95 145.11 C 147.91 146.03 148.63 146.80 149.54 146.84 C 150.46 146.88 151.24 146.16 151.27 145.24 L 151.31 144.27 C 151.35 143.35 150.64 142.57 149.72 142.54 C 148.80 142.50 148.03 143.21 147.99 144.13 Z M 147.95 145.11 L 147.91 146.11 C 147.87 147.03 148.59 147.80 149.51 147.84 C 150.43 147.87 151.20 147.16 151.24 146.24 L 151.28 145.24 C 151.31 144.32 150.59 143.55 149.68 143.51 C 148.76 143.48 147.98 144.19 147.95 145.11 Z M 147.91 146.11 L 147.87 147.13 C 147.83 148.05 148.55 148.83 149.47 148.86 C 150.39 148.90 151.16 148.18 151.20 147.26 L 151.24 146.24 C 151.28 145.32 150.56 144.54 149.64 144.51 C 148.72 144.47 147.94 145.19 147.91 146.11 Z M 147.86 147.13 L 147.82 148.13 C 147.78 149.05 148.50 149.83 149.42 149.87 C 150.34 149.91 151.12 149.19 151.16 148.27 L 151.20 147.27 C 151.24 146.35 150.53 145.57 149.60 145.53 C 148.68 145.49 147.90 146.20 147.86 147.13 Z M 147.82 148.12 L 147.77 149.09 C 147.73 150.01 148.44 150.79 149.36 150.84 C 150.28 150.88 151.07 150.17 151.11 149.25 L 151.16 148.28 C 151.20 147.36 150.49 146.57 149.57 146.53 C 148.65 146.49 147.86 147.20 147.82 148.12 Z M 147.77 149.08 L 147.72 150.07 C 147.67 150.99 148.38 151.78 149.30 151.83 C 150.22 151.88 151.01 151.17 151.06 150.25 L 151.11 149.26 C 151.16 148.33 150.45 147.55 149.53 147.50 C 148.61 147.45 147.82 148.16 147.77 149.08 Z M 147.72 150.06 L 147.66 151.08 C 147.61 152.00 148.31 152.79 149.24 152.84 C 150.16 152.89 150.95 152.19 151.00 151.27 L 151.06 150.26 C 151.11 149.33 150.41 148.54 149.49 148.49 C 148.56 148.44 147.77 149.14 147.72 150.06 Z M 147.66 151.07 L 147.60 152.10 C 147.54 153.02 148.24 153.81 149.17 153.87 C 150.09 153.93 150.88 153.23 150.94 152.30 L 151.00 151.28 C 151.06 150.35 150.36 149.56 149.44 149.50 C 148.51 149.45 147.72 150.15 147.66 151.07 Z M 147.60 152.09 L 147.53 153.09 C 147.47 154.01 148.17 154.81 149.09 154.87 C 150.01 154.93 150.81 154.23 150.87 153.31 L 150.94 152.31 C 151.00 151.39 150.30 150.59 149.38 150.53 C 148.46 150.47 147.66 151.17 147.60 152.09 Z M 147.53 153.08 L 147.46 154.06 C 147.40 154.98 148.09 155.78 149.01 155.85 C 149.94 155.92 150.74 155.22 150.80 154.30 L 150.87 153.32 C 150.94 152.39 150.24 151.59 149.32 151.53 C 148.40 151.46 147.60 152.16 147.53 153.08 Z M 147.46 154.06 L 147.39 155.05 C 147.32 155.97 148.01 156.77 148.93 156.84 C 149.85 156.91 150.66 156.22 150.73 155.30 L 150.80 154.31 C 150.87 153.38 150.18 152.58 149.26 152.51 C 148.34 152.44 147.53 153.13 147.46 154.06 Z M 147.39 155.04 L 147.31 156.04 C 147.24 156.97 147.92 157.77 148.85 157.85 C 149.77 157.92 150.57 157.23 150.65 156.31 L 150.73 155.31 C 150.80 154.38 150.11 153.58 149.19 153.50 C 148.27 153.43 147.46 154.12 147.39 155.04 Z M 147.31 156.04 L 147.23 157.05 C 147.15 157.97 147.83 158.78 148.76 158.86 C 149.68 158.93 150.49 158.25 150.56 157.33 L 150.65 156.32 C 150.72 155.39 150.04 154.58 149.12 154.51 C 148.20 154.43 147.39 155.12 147.31 156.04 Z M 147.23 157.04 L 147.14 158.04 C 147.06 158.96 147.74 159.77 148.66 159.86 C 149.58 159.94 150.40 159.25 150.48 158.33 L 150.56 157.33 C 150.64 156.41 149.96 155.60 149.04 155.52 C 148.12 155.44 147.31 156.12 147.23 157.04 Z M 147.14 158.03 L 147.05 159.01 C 146.97 159.94 147.64 160.75 148.57 160.83 C 149.49 160.92 150.30 160.24 150.39 159.32 L 150.48 158.34 C 150.56 157.42 149.88 156.60 148.96 156.52 C 148.04 156.43 147.22 157.11 147.14 158.03 Z M 147.05 159.01 L 146.96 160.00 C 146.87 160.92 147.55 161.73 148.47 161.82 C 149.39 161.91 150.20 161.23 150.29 160.31 L 150.39 159.32 C 150.47 158.40 149.80 157.59 148.88 157.50 C 147.96 157.41 147.14 158.09 147.05 159.01 Z M 146.96 159.99 L 146.86 160.99 C 146.77 161.91 147.44 162.73 148.36 162.82 C 149.28 162.91 150.10 162.24 150.19 161.32 L 150.29 160.32 C 150.38 159.40 149.71 158.58 148.79 158.49 C 147.87 158.40 147.05 159.07 146.96 159.99 Z M 146.86 160.98 L 146.76 161.99 C 146.66 162.91 147.33 163.73 148.25 163.82 C 149.17 163.92 149.99 163.25 150.09 162.33 L 150.19 161.32 C 150.29 160.40 149.62 159.58 148.70 159.49 C 147.78 159.39 146.95 160.06 146.86 160.98 Z M 146.76 161.98 L 146.65 163.00 C 146.56 163.92 147.22 164.74 148.14 164.84 C 149.06 164.93 149.88 164.27 149.98 163.35 L 150.09 162.33 C 150.18 161.41 149.52 160.59 148.60 160.49 C 147.68 160.40 146.86 161.06 146.76 161.98 Z M 146.65 162.99 L 146.55 163.96 C 146.45 164.88 147.11 165.71 148.03 165.81 C 148.95 165.91 149.77 165.24 149.87 164.32 L 149.98 163.35 C 150.08 162.44 149.42 161.61 148.50 161.51 C 147.58 161.41 146.75 162.07 146.65 162.99 Z M 146.55 163.96 L 146.44 164.93 C 146.34 165.85 147.00 166.68 147.91 166.78 C 148.83 166.89 149.66 166.23 149.76 165.31 L 149.87 164.33 C 149.98 163.41 149.32 162.58 148.40 162.48 C 147.48 162.38 146.65 163.04 146.55 163.96 Z M 146.44 164.93 L 146.32 165.92 C 146.22 166.83 146.87 167.66 147.79 167.77 C 148.71 167.88 149.54 167.22 149.65 166.30 L 149.76 165.32 C 149.87 164.40 149.21 163.57 148.30 163.46 C 147.38 163.35 146.55 164.01 146.44 164.93 Z M 146.33 165.91 L 146.20 166.91 C 146.09 167.82 146.74 168.66 147.66 168.77 C 148.58 168.88 149.41 168.23 149.52 167.31 L 149.64 166.31 C 149.76 165.40 149.10 164.56 148.19 164.45 C 147.27 164.34 146.44 164.99 146.33 165.91 Z M 146.21 166.90 L 146.08 167.91 C 145.96 168.82 146.61 169.66 147.52 169.78 C 148.44 169.89 149.27 169.24 149.39 168.33 L 149.52 167.32 C 149.64 166.40 148.99 165.57 148.07 165.45 C 147.16 165.33 146.32 165.98 146.21 166.90 Z M 146.08 167.90 L 145.94 168.91 C 145.82 169.83 146.46 170.67 147.38 170.79 C 148.29 170.91 149.13 170.27 149.25 169.35 L 149.39 168.34 C 149.51 167.42 148.87 166.58 147.95 166.46 C 147.04 166.34 146.20 166.98 146.08 167.90 Z M 145.95 168.90 L 145.81 169.91 C 145.68 170.83 146.32 171.67 147.23 171.80 C 148.14 171.92 148.98 171.29 149.11 170.37 L 149.25 169.36 C 149.38 168.45 148.74 167.61 147.83 167.48 C 146.92 167.35 146.07 167.99 145.95 168.90 Z M 145.81 169.91 L 145.66 170.92 C 145.53 171.83 146.16 172.67 147.07 172.80 C 147.98 172.93 148.83 172.30 148.96 171.39 L 149.11 170.38 C 149.24 169.47 148.61 168.63 147.70 168.50 C 146.79 168.36 145.94 169.00 145.81 169.91 Z M 145.67 170.91 L 145.52 171.91 C 145.38 172.82 146.01 173.67 146.92 173.80 C 147.83 173.94 148.67 173.31 148.81 172.40 L 148.96 171.40 C 149.09 170.49 148.46 169.65 147.56 169.51 C 146.65 169.38 145.80 170.00 145.67 170.91 Z M 145.52 171.91 L 145.37 172.89 C 145.23 173.80 145.86 174.65 146.76 174.79 C 147.67 174.92 148.52 174.30 148.65 173.39 L 148.80 172.41 C 148.94 171.50 148.32 170.66 147.41 170.52 C 146.51 170.38 145.66 171.00 145.52 171.91 Z M 145.38 172.89 L 145.23 173.85 C 145.09 174.76 145.70 175.60 146.61 175.74 C 147.51 175.88 148.36 175.27 148.50 174.36 L 148.65 173.40 C 148.79 172.50 148.17 171.65 147.27 171.51 C 146.36 171.37 145.52 171.99 145.38 172.89 Z M 145.23 173.85 L 145.07 174.84 C 144.93 175.75 145.54 176.59 146.45 176.74 C 147.35 176.88 148.20 176.26 148.34 175.36 L 148.50 174.37 C 148.64 173.46 148.02 172.62 147.12 172.47 C 146.22 172.33 145.37 172.95 145.23 173.85 Z M 145.08 174.84 L 144.91 175.88 C 144.76 176.78 145.37 177.63 146.27 177.78 C 147.17 177.92 148.02 177.31 148.17 176.41 L 148.33 175.37 C 148.48 174.47 147.87 173.62 146.97 173.47 C 146.07 173.33 145.22 173.94 145.08 174.84 Z M 144.91 175.88 L 144.75 176.88 C 144.60 177.78 145.20 178.62 146.10 178.77 C 147.00 178.92 147.84 178.32 147.99 177.42 L 148.16 176.42 C 148.31 175.52 147.70 174.67 146.81 174.52 C 145.91 174.37 145.06 174.98 144.91 175.88 Z M 144.75 176.87 L 144.58 177.83 C 144.43 178.73 145.03 179.58 145.92 179.73 C 146.82 179.89 147.67 179.29 147.82 178.39 L 147.99 177.43 C 148.14 176.54 147.54 175.69 146.65 175.53 C 145.76 175.38 144.91 175.98 144.75 176.87 Z M 144.59 177.82 L 144.42 178.75 C 144.26 179.65 144.85 180.50 145.74 180.66 C 146.63 180.82 147.49 180.23 147.65 179.34 L 147.82 178.41 C 147.98 177.52 147.38 176.66 146.49 176.50 C 145.60 176.34 144.75 176.93 144.59 177.82 Z M 144.43 178.74 L 144.24 179.71 C 144.07 180.59 144.66 181.45 145.54 181.62 C 146.43 181.79 147.29 181.21 147.45 180.32 L 147.64 179.35 C 147.81 178.47 147.23 177.61 146.34 177.44 C 145.45 177.27 144.60 177.85 144.43 178.74 Z M 144.25 179.69 L 144.05 180.71 C 143.87 181.59 144.44 182.45 145.32 182.63 C 146.20 182.81 147.06 182.24 147.24 181.35 L 147.45 180.34 C 147.62 179.45 147.05 178.60 146.17 178.42 C 145.29 178.24 144.43 178.81 144.25 179.69 Z M 144.06 180.70 L 143.85 181.69 C 143.67 182.56 144.23 183.42 145.10 183.61 C 145.98 183.79 146.84 183.23 147.02 182.35 L 147.23 181.37 C 147.41 180.49 146.85 179.63 145.98 179.45 C 145.10 179.26 144.24 179.82 144.06 180.70 Z M 143.86 181.68 L 143.65 182.63 C 143.46 183.50 144.02 184.36 144.89 184.55 C 145.76 184.74 146.62 184.19 146.81 183.31 L 147.01 182.36 C 147.20 181.49 146.65 180.63 145.78 180.44 C 144.91 180.25 144.05 180.81 143.86 181.68 Z M 143.66 182.63 L 143.46 183.55 C 143.27 184.42 143.81 185.28 144.68 185.47 C 145.55 185.66 146.41 185.11 146.60 184.24 L 146.80 183.32 C 146.99 182.45 146.44 181.59 145.58 181.40 C 144.71 181.21 143.85 181.76 143.66 182.63 Z M 143.46 183.55 L 143.26 184.49 C 143.07 185.36 143.61 186.21 144.47 186.40 C 145.34 186.59 146.19 186.05 146.38 185.18 L 146.59 184.24 C 146.78 183.38 146.23 182.53 145.37 182.34 C 144.51 182.15 143.66 182.69 143.46 183.55 Z M 143.27 184.49 L 143.06 185.43 C 142.87 186.29 143.41 187.14 144.27 187.33 C 145.13 187.52 145.98 186.98 146.17 186.12 L 146.37 185.18 C 146.56 184.32 146.02 183.47 145.16 183.28 C 144.30 183.09 143.46 183.64 143.27 184.49 Z M 143.06 185.44 L 142.85 186.42 C 142.66 187.27 143.20 188.12 144.05 188.31 C 144.91 188.49 145.75 187.96 145.94 187.10 L 146.16 186.12 C 146.35 185.27 145.81 184.42 144.95 184.23 C 144.10 184.04 143.25 184.58 143.06 185.44 Z M 142.86 186.42 L 142.62 187.47 C 142.44 188.32 142.97 189.16 143.82 189.35 C 144.67 189.53 145.51 189.00 145.70 188.15 L 145.93 187.10 C 146.12 186.25 145.58 185.41 144.73 185.22 C 143.88 185.03 143.04 185.57 142.86 186.42 Z M 142.63 187.47 L 142.42 188.43 C 142.23 189.28 142.77 190.12 143.61 190.30 C 144.46 190.49 145.30 189.95 145.48 189.11 L 145.70 188.14 C 145.88 187.30 145.35 186.46 144.50 186.27 C 143.65 186.09 142.82 186.62 142.63 187.47 Z M 142.43 188.44 L 142.21 189.44 C 142.02 190.28 142.56 191.12 143.40 191.30 C 144.24 191.48 145.07 190.95 145.26 190.11 L 145.48 189.10 C 145.66 188.26 145.13 187.43 144.28 187.24 C 143.44 187.06 142.61 187.60 142.43 188.44 Z M 142.21 189.45 L 142.00 190.46 C 141.82 191.30 142.35 192.12 143.19 192.30 C 144.03 192.48 144.85 191.95 145.03 191.11 L 145.25 190.10 C 145.43 189.26 144.90 188.44 144.06 188.26 C 143.22 188.08 142.39 188.61 142.21 189.45 Z M 142.00 190.47 L 141.80 191.45 C 141.62 192.28 142.16 193.10 142.99 193.28 C 143.83 193.45 144.65 192.92 144.82 192.08 L 145.03 191.10 C 145.20 190.27 144.67 189.45 143.83 189.27 C 143.00 189.10 142.18 189.63 142.00 190.47 Z M 141.80 191.46 L 141.61 192.43 C 141.44 193.26 141.98 194.08 142.81 194.24 C 143.64 194.41 144.45 193.87 144.62 193.04 L 144.82 192.07 C 144.98 191.24 144.45 190.43 143.61 190.26 C 142.78 190.09 141.97 190.63 141.80 191.46 Z M 141.62 192.45 L 141.41 193.54 C 141.25 194.36 141.79 195.16 142.62 195.32 C 143.45 195.48 144.24 194.93 144.40 194.11 L 144.61 193.02 C 144.77 192.20 144.22 191.40 143.40 191.24 C 142.57 191.08 141.77 191.63 141.62 192.45 Z M 141.42 193.56 L 141.25 194.53 C 141.11 195.34 141.65 196.13 142.47 196.27 C 143.29 196.42 144.07 195.87 144.21 195.05 L 144.39 194.09 C 144.53 193.27 143.99 192.49 143.17 192.34 C 142.35 192.20 141.57 192.74 141.42 193.56 Z M 141.27 194.54 L 141.11 195.44 C 140.98 196.25 141.52 197.02 142.33 197.16 C 143.14 197.29 143.91 196.75 144.04 195.94 L 144.20 195.04 C 144.33 194.23 143.79 193.46 142.98 193.33 C 142.17 193.19 141.41 193.73 141.27 194.54 Z M 141.13 195.45 L 141.07 195.81 C 140.93 196.61 141.48 197.37 142.28 197.50 C 143.08 197.64 143.84 197.09 143.97 196.29 L 144.03 195.94 C 144.17 195.13 143.62 194.37 142.82 194.24 C 142.02 194.11 141.26 194.65 141.13 195.45 Z"
      fill="black"
      fill-rule="nonzero" /><path d="M 149.19 169.60 L 149.98 170.12 C 150.71 170.60 151.70 170.39 152.18 169.66 C 152.66 168.93 152.46 167.94 151.72 167.46 L 150.93 166.94 C 150.20 166.46 149.21 166.66 148.73 167.40 C 148.25 168.13 148.45 169.12 149.19 169.60 Z M 149.96 170.13 L 150.76 170.66 C 151.50 171.15 152.50 170.95 152.99 170.21 C 153.48 169.47 153.28 168.47 152.54 167.98 L 151.74 167.45 C 151.00 166.95 150.00 167.16 149.51 167.90 C 149.02 168.64 149.22 169.64 149.96 170.13 Z M 150.73 170.67 L 151.55 171.22 C 152.29 171.73 153.31 171.54 153.81 170.79 C 154.32 170.05 154.13 169.03 153.38 168.53 L 152.57 167.97 C 151.82 167.46 150.81 167.66 150.30 168.40 C 149.79 169.14 149.99 170.16 150.73 170.67 Z M 151.52 171.22 L 152.36 171.82 C 153.11 172.34 154.14 172.16 154.66 171.42 C 155.18 170.67 155.01 169.64 154.26 169.12 L 153.42 168.52 C 152.67 168.00 151.64 168.18 151.12 168.92 C 150.59 169.67 150.77 170.70 151.52 171.22 Z M 152.32 171.82 L 153.19 172.45 C 153.93 172.99 154.98 172.83 155.52 172.09 C 156.07 171.34 155.90 170.30 155.16 169.75 L 154.30 169.12 C 153.55 168.58 152.51 168.74 151.96 169.48 C 151.42 170.23 151.58 171.27 152.32 171.82 Z M 153.16 172.44 L 153.95 173.04 C 154.69 173.60 155.74 173.45 156.30 172.71 C 156.86 171.98 156.72 170.92 155.98 170.36 L 155.19 169.76 C 154.45 169.20 153.40 169.35 152.84 170.09 C 152.28 170.83 152.42 171.88 153.16 172.44 Z M 153.94 173.03 L 154.74 173.65 C 155.48 174.22 156.53 174.09 157.10 173.36 C 157.67 172.63 157.54 171.57 156.80 171.00 L 156.00 170.38 C 155.26 169.81 154.21 169.94 153.64 170.67 C 153.07 171.40 153.21 172.46 153.94 173.03 Z M 154.73 173.64 L 155.54 174.28 C 156.27 174.86 157.32 174.73 157.90 174.01 C 158.47 173.28 158.35 172.22 157.62 171.65 L 156.81 171.01 C 156.09 170.44 155.03 170.56 154.46 171.29 C 153.88 172.01 154.01 173.07 154.73 173.64 Z M 155.53 174.28 L 156.33 174.91 C 157.05 175.49 158.11 175.37 158.68 174.65 C 159.26 173.92 159.14 172.87 158.42 172.29 L 157.63 171.66 C 156.91 171.08 155.85 171.20 155.27 171.92 C 154.69 172.64 154.81 173.70 155.53 174.28 Z M 156.32 174.91 L 157.09 175.52 C 157.81 176.10 158.86 175.98 159.44 175.26 C 160.02 174.54 159.91 173.48 159.19 172.90 L 158.42 172.29 C 157.70 171.71 156.65 171.83 156.07 172.55 C 155.49 173.27 155.60 174.33 156.32 174.91 Z M 157.09 175.52 L 157.88 176.16 C 158.60 176.74 159.66 176.62 160.24 175.90 C 160.82 175.18 160.70 174.12 159.98 173.55 L 159.18 172.91 C 158.46 172.33 157.41 172.44 156.83 173.16 C 156.25 173.88 156.37 174.94 157.09 175.52 Z M 157.89 176.16 L 158.71 176.81 C 159.43 177.38 160.48 177.26 161.06 176.54 C 161.63 175.82 161.51 174.77 160.79 174.19 L 159.97 173.54 C 159.25 172.97 158.20 173.09 157.63 173.81 C 157.05 174.53 157.17 175.58 157.89 176.16 Z M 158.73 176.81 L 159.50 177.42 C 160.23 177.98 161.27 177.85 161.84 177.13 C 162.40 176.40 162.27 175.36 161.55 174.80 L 160.77 174.19 C 160.05 173.63 159.00 173.76 158.44 174.48 C 157.87 175.20 158.00 176.25 158.73 176.81 Z M 159.53 177.43 L 160.29 178.00 C 161.02 178.55 162.06 178.41 162.61 177.68 C 163.16 176.95 163.02 175.91 162.29 175.36 L 161.52 174.79 C 160.79 174.23 159.76 174.38 159.21 175.11 C 158.65 175.84 158.80 176.88 159.53 177.43 Z M 160.32 178.02 L 161.10 178.58 C 161.83 179.12 162.87 178.95 163.40 178.22 C 163.94 177.48 163.77 176.45 163.04 175.92 L 162.26 175.35 C 161.52 174.82 160.49 174.98 159.96 175.71 C 159.42 176.45 159.58 177.48 160.32 178.02 Z M 161.13 178.59 L 161.90 179.13 C 162.65 179.65 163.67 179.47 164.19 178.72 C 164.70 177.98 164.52 176.96 163.78 176.44 L 163.00 175.90 C 162.26 175.38 161.24 175.57 160.72 176.31 C 160.20 177.05 160.39 178.08 161.13 178.59 Z M 161.93 179.14 L 162.74 179.68 C 163.49 180.18 164.50 179.98 165.00 179.24 C 165.50 178.49 165.30 177.47 164.56 176.97 L 163.75 176.43 C 163.00 175.93 161.99 176.13 161.48 176.88 C 160.98 177.63 161.18 178.64 161.93 179.14 Z M 162.77 179.69 L 163.61 180.24 C 164.36 180.72 165.37 180.51 165.85 179.75 C 166.34 179.00 166.12 177.99 165.37 177.51 L 164.53 176.96 C 163.77 176.48 162.77 176.69 162.28 177.45 C 161.80 178.20 162.01 179.20 162.77 179.69 Z M 163.63 180.24 L 164.51 180.79 C 165.27 181.26 166.26 181.03 166.73 180.27 C 167.21 179.52 166.98 178.52 166.22 178.05 L 165.34 177.50 C 164.59 177.03 163.59 177.26 163.12 178.02 C 162.65 178.77 162.88 179.77 163.63 180.24 Z M 164.53 180.79 L 165.43 181.33 C 166.19 181.79 167.18 181.55 167.64 180.79 C 168.09 180.03 167.85 179.04 167.09 178.58 L 166.20 178.04 C 165.44 177.58 164.45 177.83 163.99 178.59 C 163.53 179.35 163.77 180.33 164.53 180.79 Z M 165.45 181.34 L 166.28 181.83 C 167.05 182.27 168.02 182.02 168.47 181.26 C 168.92 180.50 168.66 179.52 167.90 179.07 L 167.07 178.58 C 166.31 178.13 165.33 178.39 164.88 179.15 C 164.44 179.91 164.69 180.89 165.45 181.34 Z M 166.31 181.83 L 167.16 182.32 C 167.92 182.75 168.89 182.49 169.33 181.73 C 169.76 180.97 169.50 179.99 168.74 179.56 L 167.88 179.07 C 167.12 178.64 166.15 178.90 165.72 179.66 C 165.28 180.42 165.54 181.39 166.31 181.83 Z M 167.18 182.32 L 168.05 182.80 C 168.82 183.23 169.78 182.96 170.20 182.19 C 170.63 181.43 170.35 180.47 169.59 180.05 L 168.72 179.56 C 167.96 179.14 166.99 179.41 166.57 180.17 C 166.15 180.93 166.42 181.89 167.18 182.32 Z M 168.07 182.80 L 168.97 183.29 C 169.73 183.70 170.68 183.42 171.09 182.66 C 171.51 181.90 171.22 180.95 170.46 180.53 L 169.57 180.05 C 168.81 179.63 167.86 179.92 167.44 180.68 C 167.03 181.44 167.31 182.39 168.07 182.80 Z M 168.98 183.29 L 169.89 183.77 C 170.65 184.17 171.60 183.88 172.00 183.12 C 172.40 182.36 172.11 181.42 171.35 181.01 L 170.44 180.53 C 169.68 180.13 168.74 180.42 168.34 181.18 C 167.93 181.94 168.22 182.88 168.98 183.29 Z M 169.91 183.77 L 170.79 184.22 C 171.55 184.62 172.49 184.32 172.88 183.56 C 173.27 182.80 172.98 181.87 172.22 181.47 L 171.33 181.02 C 170.57 180.62 169.64 180.92 169.25 181.68 C 168.85 182.44 169.15 183.37 169.91 183.77 Z M 170.81 184.22 L 171.69 184.66 C 172.45 185.05 173.37 184.74 173.76 183.99 C 174.14 183.23 173.84 182.30 173.08 181.92 L 172.20 181.48 C 171.44 181.09 170.52 181.40 170.13 182.16 C 169.75 182.91 170.06 183.84 170.81 184.22 Z M 171.71 184.66 L 172.60 185.10 C 173.36 185.47 174.27 185.16 174.65 184.41 C 175.02 183.65 174.71 182.74 173.95 182.37 L 173.06 181.93 C 172.30 181.55 171.39 181.86 171.02 182.62 C 170.65 183.37 170.96 184.29 171.71 184.66 Z M 172.62 185.10 L 173.53 185.53 C 174.28 185.89 175.19 185.57 175.55 184.82 C 175.91 184.07 175.59 183.16 174.84 182.80 L 173.93 182.37 C 173.18 182.01 172.28 182.33 171.91 183.08 C 171.55 183.83 171.87 184.74 172.62 185.10 Z M 173.55 185.53 L 174.47 185.95 C 175.22 186.30 176.11 185.98 176.46 185.23 C 176.81 184.48 176.48 183.58 175.73 183.23 L 174.82 182.81 C 174.07 182.46 173.17 182.78 172.82 183.53 C 172.47 184.28 172.80 185.18 173.55 185.53 Z M 174.49 185.95 L 175.41 186.37 C 176.16 186.71 177.05 186.38 177.38 185.63 C 177.72 184.88 177.39 183.99 176.64 183.66 L 175.71 183.24 C 174.96 182.90 174.08 183.23 173.74 183.98 C 173.40 184.73 173.74 185.61 174.49 185.95 Z M 175.43 186.37 L 176.33 186.76 C 177.08 187.09 177.95 186.75 178.28 186.00 C 178.61 185.25 178.27 184.38 177.52 184.05 L 176.62 183.66 C 175.87 183.33 175.00 183.67 174.67 184.42 C 174.34 185.17 174.69 186.04 175.43 186.37 Z M 176.35 186.76 L 177.26 187.15 C 178.01 187.47 178.87 187.12 179.19 186.37 C 179.51 185.62 179.16 184.76 178.41 184.44 L 177.50 184.05 C 176.75 183.73 175.89 184.08 175.57 184.83 C 175.25 185.58 175.60 186.44 176.35 186.76 Z M 177.27 187.15 L 178.19 187.53 C 178.94 187.84 179.80 187.48 180.11 186.73 C 180.42 185.99 180.06 185.13 179.32 184.82 L 178.40 184.44 C 177.65 184.13 176.79 184.49 176.48 185.23 C 176.17 185.98 176.53 186.84 177.27 187.15 Z M 178.21 187.53 L 179.14 187.90 C 179.89 188.20 180.74 187.84 181.04 187.09 C 181.34 186.35 180.98 185.50 180.23 185.20 L 179.30 184.82 C 178.55 184.52 177.70 184.88 177.40 185.63 C 177.10 186.38 177.46 187.23 178.21 187.53 Z M 179.15 187.90 L 180.10 188.27 C 180.84 188.56 181.69 188.20 181.98 187.45 C 182.27 186.70 181.90 185.86 181.16 185.57 L 180.22 185.20 C 179.47 184.90 178.63 185.27 178.33 186.02 C 178.04 186.76 178.41 187.61 179.15 187.90 Z M 180.11 188.27 L 181.06 188.63 C 181.81 188.92 182.64 188.55 182.93 187.80 C 183.22 187.06 182.84 186.22 182.10 185.94 L 181.15 185.57 C 180.40 185.28 179.56 185.66 179.28 186.40 C 178.99 187.15 179.36 187.98 180.11 188.27 Z M 181.07 188.63 L 182.00 188.98 C 182.74 189.26 183.57 188.88 183.85 188.14 C 184.13 187.39 183.76 186.56 183.01 186.28 L 182.09 185.94 C 181.34 185.66 180.51 186.03 180.23 186.78 C 179.95 187.52 180.33 188.35 181.07 188.63 Z M 182.01 188.98 L 182.94 189.33 C 183.68 189.60 184.51 189.22 184.79 188.47 C 185.06 187.73 184.68 186.90 183.93 186.63 L 183.00 186.28 C 182.26 186.01 181.43 186.39 181.16 187.13 C 180.88 187.88 181.26 188.71 182.01 188.98 Z M 182.94 189.33 L 183.88 189.67 C 184.63 189.94 185.45 189.55 185.72 188.81 C 186.00 188.06 185.61 187.24 184.87 186.97 L 183.93 186.63 C 183.18 186.36 182.36 186.74 182.09 187.48 C 181.82 188.23 182.20 189.05 182.94 189.33 Z M 183.89 189.67 L 184.83 190.01 C 185.58 190.28 186.40 189.89 186.67 189.14 C 186.94 188.40 186.55 187.58 185.81 187.31 L 184.86 186.97 C 184.12 186.70 183.29 187.09 183.03 187.83 C 182.76 188.58 183.14 189.40 183.89 189.67 Z M 184.84 190.01 L 185.78 190.35 C 186.53 190.61 187.35 190.22 187.62 189.48 C 187.88 188.73 187.49 187.91 186.75 187.65 L 185.80 187.31 C 185.06 187.04 184.24 187.43 183.97 188.18 C 183.70 188.92 184.09 189.74 184.84 190.01 Z M 185.79 190.34 L 186.74 190.68 C 187.48 190.95 188.30 190.56 188.56 189.81 C 188.83 189.07 188.44 188.25 187.70 187.99 L 186.75 187.65 C 186.00 187.39 185.18 187.77 184.92 188.52 C 184.66 189.26 185.04 190.08 185.79 190.34 Z M 186.74 190.68 L 187.02 190.78 C 187.76 191.05 188.58 190.66 188.84 189.91 C 189.11 189.17 188.72 188.35 187.98 188.09 L 187.70 187.99 C 186.95 187.73 186.14 188.11 185.87 188.86 C 185.61 189.60 185.99 190.42 186.74 190.68 Z"
      fill="black"
      fill-rule="nonzero" /></svg>