<svg xmlns="http://www.w3.org/2000/svg" width="300" height="300" viewBox="0 0 300 300">
<path d="M 137.42 128.70 L 136.22 128.26 C 135.33 127.93 134.35 128.38 134.03 129.27 C 133.70 130.15 134.15 131.14 135.04 131.46 L 136.24 131.90 C 137.13 132.23 138.11 131.77 138.43 130.89 C 138.76 130.01 138.31 129.02 137.42 128.70 Z M 136.79 128.61 L 136.31 128.15 C 135.62 127.51 134.53 127.55 133.89 128.24 C 133.24 128.93 133.28 130.02 133.98 130.66 L 134.46 131.11 C 135.15 131.76 136.24 131.72 136.88 131.02 C 137.53 130.33 137.49 129.25 136.79 128.61 Z M 136.14 130.80 L 136.59 130.48 C 137.36 129.93 137.55 128.86 137.00 128.09 C 136.45 127.32 135.38 127.14 134.60 127.68 L 134.15 128.01 C 133.38 128.56 133.20 129.63 133.74 130.40 C 134.29 131.17 135.36 131.35 136.14 130.80 Z M 136.11 130.72 L 136.86 130.49 C 137.77 130.20 138.27 129.24 137.99 128.33 C 137.70 127.43 136.74 126.93 135.84 127.21 L 135.09 127.44 C 134.18 127.73 133.68 128.69 133.96 129.60 C 134.24 130.50 135.21 131.00 136.11 130.72 Z M 136.75 130.52 L 137.75 130.28 C 138.67 130.05 139.24 129.13 139.02 128.21 C 138.80 127.28 137.87 126.72 136.95 126.94 L 135.95 127.18 C 135.03 127.40 134.46 128.33 134.68 129.25 C 134.90 130.17 135.83 130.74 136.75 130.52 Z M 137.71 130.28 L 138.86 130.04 C 139.78 129.84 140.37 128.93 140.17 128.00 C 139.98 127.07 139.06 126.48 138.14 126.68 L 136.99 126.93 C 136.06 127.13 135.47 128.04 135.67 128.97 C 135.87 129.89 136.78 130.48 137.71 130.28 Z M 138.85 130.04 L 140.04 129.79 C 140.97 129.59 141.56 128.68 141.37 127.75 C 141.17 126.83 140.26 126.23 139.33 126.43 L 138.14 126.68 C 137.22 126.88 136.62 127.79 136.82 128.71 C 137.01 129.64 137.92 130.23 138.85 130.04 Z M 140.06 129.78 L 141.08 129.55 C 142.01 129.34 142.59 128.43 142.38 127.51 C 142.17 126.58 141.26 126.00 140.34 126.21 L 139.31 126.44 C 138.39 126.64 137.81 127.56 138.02 128.48 C 138.22 129.41 139.14 129.99 140.06 129.78 Z M 141.12 129.54 L 142.04 129.31 C 142.95 129.09 143.51 128.16 143.29 127.25 C 143.07 126.34 142.14 125.78 141.23 126.00 L 140.31 126.22 C 139.39 126.45 138.83 127.37 139.05 128.28 C 139.28 129.20 140.20 129.76 141.12 129.54 Z M 142.07 129.29 L 142.98 129.05 C 143.88 128.81 144.42 127.88 144.18 126.98 C 143.94 126.07 143.02 125.53 142.11 125.77 L 141.20 126.02 C 140.29 126.26 139.76 127.18 139.99 128.09 C 140.23 128.99 141.16 129.53 142.07 129.29 Z M 143.01 129.03 L 143.94 128.77 C 144.83 128.51 145.35 127.58 145.10 126.69 C 144.84 125.79 143.91 125.27 143.01 125.53 L 142.08 125.79 C 141.19 126.05 140.67 126.98 140.92 127.88 C 141.18 128.77 142.11 129.29 143.01 129.03 Z M 143.96 128.75 L 144.94 128.46 C 145.82 128.19 146.33 127.25 146.06 126.37 C 145.79 125.48 144.85 124.98 143.97 125.25 L 142.99 125.54 C 142.10 125.81 141.60 126.75 141.87 127.63 C 142.14 128.52 143.07 129.02 143.96 128.75 Z M 144.96 128.44 L 146.01 128.11 C 146.89 127.83 147.38 126.89 147.10 126.01 C 146.82 125.14 145.88 124.65 145.01 124.93 L 143.95 125.26 C 143.07 125.54 142.58 126.48 142.86 127.35 C 143.14 128.23 144.08 128.72 144.96 128.44 Z M 146.02 128.10 L 146.97 127.79 C 147.84 127.50 148.32 126.57 148.04 125.69 C 147.75 124.82 146.82 124.35 145.94 124.63 L 145.00 124.94 C 144.12 125.22 143.65 126.16 143.93 127.03 C 144.21 127.90 145.15 128.38 146.02 128.10 Z M 146.98 127.78 L 147.95 127.46 C 148.81 127.17 149.28 126.24 148.99 125.37 C 148.71 124.50 147.77 124.03 146.91 124.32 L 145.94 124.64 C 145.07 124.93 144.60 125.86 144.89 126.73 C 145.18 127.59 146.11 128.06 146.98 127.78 Z M 147.95 127.45 L 148.95 127.11 C 149.81 126.83 150.27 125.89 149.98 125.03 C 149.69 124.17 148.76 123.71 147.90 123.99 L 146.90 124.33 C 146.04 124.62 145.58 125.55 145.87 126.41 C 146.15 127.27 147.09 127.74 147.95 127.45 Z M 148.95 127.11 L 149.95 126.77 C 150.81 126.48 151.27 125.55 150.98 124.69 C 150.69 123.83 149.76 123.37 148.90 123.66 L 147.90 124.00 C 147.04 124.29 146.58 125.22 146.87 126.08 C 147.16 126.94 148.09 127.40 148.95 127.11 Z M 149.95 126.76 L 150.93 126.43 C 151.79 126.14 152.24 125.21 151.95 124.36 C 151.66 123.50 150.74 123.05 149.88 123.34 L 148.90 123.67 C 148.05 123.96 147.59 124.89 147.88 125.74 C 148.17 126.59 149.10 127.05 149.95 126.76 Z M 150.93 126.42 L 151.88 126.10 C 152.72 125.81 153.18 124.88 152.89 124.04 C 152.60 123.19 151.68 122.73 150.83 123.02 L 149.88 123.34 C 149.03 123.63 148.58 124.56 148.87 125.41 C 149.16 126.26 150.08 126.71 150.93 126.42 Z M 151.87 126.09 L 152.75 125.79 C 153.60 125.50 154.05 124.58 153.76 123.74 C 153.47 122.89 152.55 122.44 151.71 122.73 L 150.83 123.03 C 149.98 123.32 149.53 124.24 149.82 125.08 C 150.11 125.93 151.03 126.38 151.87 126.09 Z M 152.75 125.78 L 153.80 125.42 C 154.64 125.14 155.09 124.22 154.80 123.38 C 154.52 122.54 153.61 122.09 152.77 122.38 L 151.71 122.74 C 150.87 123.03 150.42 123.94 150.71 124.78 C 150.99 125.62 151.91 126.07 152.75 125.78 Z M 153.79 125.40 L 154.88 125.04 C 155.71 124.75 156.16 123.85 155.88 123.02 C 155.60 122.19 154.70 121.75 153.87 122.03 L 152.78 122.40 C 151.95 122.68 151.50 123.58 151.78 124.41 C 152.06 125.24 152.96 125.68 153.79 125.40 Z M 154.87 125.01 L 155.79 124.71 C 156.61 124.44 157.05 123.55 156.78 122.73 C 156.50 121.91 155.62 121.47 154.80 121.74 L 153.88 122.05 C 153.06 122.32 152.62 123.21 152.89 124.03 C 153.17 124.84 154.05 125.29 154.87 125.01 Z M 155.77 124.69 L 156.58 124.43 C 157.39 124.16 157.83 123.29 157.57 122.49 C 157.31 121.68 156.44 121.24 155.63 121.50 L 154.82 121.76 C 154.01 122.03 153.57 122.89 153.83 123.70 C 154.09 124.51 154.96 124.95 155.77 124.69 Z M 156.56 124.41 L 157.37 124.15 C 158.17 123.90 158.61 123.05 158.36 122.25 C 158.10 121.45 157.25 121.01 156.45 121.26 L 155.65 121.52 C 154.85 121.77 154.41 122.62 154.66 123.42 C 154.91 124.22 155.76 124.66 156.56 124.41 Z M 157.35 124.14 L 158.31 123.85 C 159.10 123.61 159.55 122.76 159.30 121.97 C 159.06 121.18 158.22 120.73 157.42 120.98 L 156.47 121.27 C 155.68 121.52 155.23 122.36 155.48 123.15 C 155.72 123.94 156.56 124.39 157.35 124.14 Z M 158.30 123.84 L 159.26 123.55 C 160.05 123.32 160.50 122.48 160.26 121.69 C 160.03 120.90 159.19 120.45 158.40 120.69 L 157.44 120.98 C 156.65 121.22 156.20 122.05 156.44 122.84 C 156.67 123.63 157.51 124.08 158.30 123.84 Z M 159.25 123.55 L 160.21 123.26 C 161.00 123.03 161.45 122.20 161.22 121.42 C 160.98 120.63 160.16 120.18 159.37 120.41 L 158.41 120.70 C 157.62 120.93 157.18 121.76 157.41 122.54 C 157.64 123.33 158.47 123.78 159.25 123.55 Z M 160.21 123.26 L 161.18 122.97 C 161.97 122.74 162.41 121.92 162.18 121.14 C 161.95 120.35 161.13 119.90 160.35 120.13 L 159.37 120.42 C 158.59 120.65 158.14 121.47 158.37 122.26 C 158.60 123.04 159.43 123.49 160.21 123.26 Z M 161.18 122.96 L 162.15 122.68 C 162.93 122.45 163.38 121.63 163.15 120.85 C 162.92 120.07 162.10 119.63 161.32 119.86 L 160.35 120.14 C 159.57 120.37 159.13 121.19 159.36 121.97 C 159.58 122.74 160.40 123.19 161.18 122.96 Z M 162.15 122.67 L 163.10 122.39 C 163.87 122.16 164.32 121.35 164.09 120.58 C 163.86 119.80 163.05 119.36 162.27 119.59 L 161.32 119.86 C 160.55 120.09 160.11 120.91 160.33 121.68 C 160.56 122.45 161.38 122.90 162.15 122.67 Z M 163.10 122.38 L 163.99 122.12 C 164.76 121.89 165.20 121.08 164.98 120.31 C 164.75 119.54 163.94 119.10 163.17 119.33 L 162.27 119.59 C 161.50 119.82 161.06 120.63 161.29 121.40 C 161.52 122.17 162.33 122.61 163.10 122.38 Z M 163.99 122.11 L 164.78 121.88 C 165.55 121.66 165.99 120.85 165.77 120.08 C 165.54 119.31 164.74 118.87 163.97 119.10 L 163.17 119.33 C 162.40 119.56 161.96 120.36 162.19 121.13 C 162.41 121.90 163.22 122.34 163.99 122.11 Z M 164.75 121.89 L 165.63 121.65 C 166.41 121.44 166.86 120.65 166.65 119.88 C 166.45 119.11 165.65 118.65 164.88 118.86 L 164.00 119.09 C 163.23 119.30 162.77 120.09 162.98 120.87 C 163.19 121.64 163.98 122.09 164.75 121.89 Z M 165.59 121.66 L 166.64 121.41 C 167.41 121.23 167.89 120.45 167.71 119.67 C 167.53 118.90 166.75 118.42 165.98 118.60 L 164.93 118.85 C 164.15 119.03 163.67 119.81 163.86 120.58 C 164.04 121.36 164.81 121.84 165.59 121.66 Z M 166.59 121.41 L 167.74 121.18 C 168.52 121.02 169.02 120.26 168.87 119.49 C 168.71 118.71 167.95 118.21 167.17 118.36 L 166.02 118.60 C 165.24 118.75 164.74 119.51 164.90 120.29 C 165.06 121.07 165.82 121.57 166.59 121.41 Z M 167.71 121.18 L 168.54 121.03 C 169.32 120.89 169.84 120.14 169.70 119.36 C 169.55 118.58 168.81 118.07 168.03 118.21 L 167.20 118.36 C 166.42 118.50 165.90 119.25 166.05 120.03 C 166.19 120.81 166.93 121.33 167.71 121.18 Z M 168.52 121.04 L 169.43 120.88 C 170.21 120.75 170.73 120.01 170.60 119.23 C 170.47 118.45 169.73 117.92 168.95 118.05 L 168.04 118.21 C 167.26 118.34 166.74 119.08 166.87 119.86 C 167.00 120.64 167.74 121.17 168.52 121.04 Z M 169.42 120.88 L 170.39 120.72 C 171.17 120.60 171.70 119.86 171.57 119.08 C 171.44 118.30 170.71 117.77 169.93 117.90 L 168.96 118.05 C 168.18 118.18 167.65 118.92 167.77 119.70 C 167.90 120.48 168.64 121.01 169.42 120.88 Z M 170.38 120.72 L 171.40 120.56 C 172.18 120.44 172.71 119.71 172.59 118.93 C 172.47 118.14 171.73 117.61 170.95 117.73 L 169.93 117.90 C 169.15 118.02 168.62 118.75 168.74 119.53 C 168.86 120.31 169.60 120.85 170.38 120.72 Z M 171.39 120.56 L 172.45 120.40 C 173.23 120.28 173.77 119.55 173.65 118.77 C 173.53 117.99 172.80 117.45 172.02 117.57 L 170.96 117.73 C 170.18 117.85 169.64 118.59 169.76 119.37 C 169.88 120.15 170.61 120.68 171.39 120.56 Z M 172.45 120.40 L 173.54 120.24 C 174.32 120.12 174.85 119.39 174.73 118.61 C 174.62 117.83 173.89 117.29 173.11 117.41 L 172.02 117.57 C 171.24 117.69 170.70 118.42 170.82 119.20 C 170.94 119.98 171.67 120.52 172.45 120.40 Z M 173.53 120.23 L 174.61 120.07 C 175.39 119.95 175.93 119.23 175.81 118.45 C 175.70 117.67 174.97 117.13 174.19 117.25 L 173.11 117.41 C 172.33 117.53 171.79 118.25 171.91 119.03 C 172.03 119.81 172.75 120.35 173.53 120.23 Z"
      fill="black"
      fill-rule="nonzero" /><path d="M 143.09 147.92 L 141.76 148.22 C 140.90 148.42 140.35 149.28 140.55 150.14 C 140.75 151.00 141.61 151.55 142.47 151.35 L 143.80 151.05 C 144.66 150.85 145.21 149.99 145.01 149.13 C 144.81 148.26 143.96 147.72 143.09 147.92 Z M 141.77 148.22 L 140.56 148.49 C 139.69 148.68 139.14 149.54 139.34 150.41 C 139.53 151.27 140.39 151.82 141.26 151.62 L 142.47 151.35 C 143.33 151.16 143.88 150.30 143.68 149.44 C 143.49 148.57 142.63 148.02 141.77 148.22 Z M 140.57 148.48 L 139.60 148.69 C 138.73 148.88 138.18 149.73 138.37 150.60 C 138.55 151.47 139.41 152.02 140.27 151.83 L 141.24 151.63 C 142.11 151.44 142.66 150.59 142.48 149.72 C 142.29 148.85 141.44 148.30 140.57 148.48 Z M 139.64 148.68 L 139.03 148.80 C 138.16 148.96 137.59 149.80 137.75 150.67 C 137.91 151.54 138.75 152.12 139.63 151.96 L 140.23 151.84 C 141.10 151.68 141.68 150.84 141.52 149.97 C 141.35 149.09 140.51 148.52 139.64 148.68 Z M 140.26 149.07 L 140.20 149.02 C 139.48 148.50 138.47 148.67 137.95 149.39 C 137.44 150.12 137.61 151.12 138.33 151.64 L 138.40 151.69 C 139.12 152.20 140.12 152.03 140.64 151.31 C 141.16 150.59 140.99 149.58 140.26 149.07 Z M 139.84 151.83 L 140.65 151.52 C 141.48 151.20 141.90 150.27 141.58 149.44 C 141.26 148.61 140.33 148.20 139.50 148.52 L 138.69 148.83 C 137.86 149.15 137.44 150.08 137.76 150.91 C 138.08 151.74 139.01 152.15 139.84 151.83 Z M 140.66 151.51 L 141.98 151.00 C 142.80 150.67 143.21 149.74 142.89 148.91 C 142.56 148.09 141.63 147.68 140.80 148.00 L 139.49 148.52 C 138.66 148.84 138.25 149.78 138.58 150.60 C 138.90 151.43 139.84 151.84 140.66 151.51 Z M 142.04 150.97 L 142.94 150.57 C 143.75 150.21 144.12 149.26 143.76 148.45 C 143.40 147.64 142.45 147.27 141.64 147.63 L 140.74 148.03 C 139.93 148.39 139.56 149.34 139.92 150.15 C 140.28 150.96 141.23 151.33 142.04 150.97 Z M 142.99 150.55 L 143.87 150.12 C 144.66 149.73 145.00 148.77 144.61 147.97 C 144.22 147.18 143.26 146.84 142.46 147.23 L 141.59 147.66 C 140.79 148.05 140.46 149.01 140.85 149.81 C 141.23 150.60 142.20 150.93 142.99 150.55 Z M 143.91 150.10 L 144.80 149.63 C 145.58 149.22 145.88 148.25 145.47 147.47 C 145.06 146.68 144.09 146.38 143.31 146.79 L 142.42 147.26 C 141.63 147.67 141.33 148.64 141.74 149.42 C 142.15 150.21 143.12 150.51 143.91 150.10 Z M 144.83 149.61 L 145.73 149.11 C 146.51 148.68 146.79 147.71 146.36 146.93 C 145.93 146.16 144.96 145.88 144.18 146.31 L 143.27 146.81 C 142.50 147.24 142.22 148.21 142.65 148.99 C 143.08 149.76 144.05 150.04 144.83 149.61 Z M 145.76 149.10 L 146.63 148.59 C 147.40 148.15 147.66 147.17 147.22 146.41 C 146.78 145.64 145.80 145.38 145.04 145.82 L 144.16 146.32 C 143.39 146.76 143.13 147.74 143.57 148.51 C 144.01 149.27 144.99 149.54 145.76 149.10 Z M 146.65 148.58 L 147.47 148.10 C 148.23 147.65 148.48 146.67 148.03 145.91 C 147.58 145.15 146.60 144.90 145.84 145.34 L 145.02 145.83 C 144.26 146.28 144.01 147.26 144.46 148.02 C 144.91 148.78 145.89 149.03 146.65 148.58 Z M 147.48 148.09 L 148.32 147.58 C 149.07 147.13 149.31 146.15 148.86 145.39 C 148.41 144.64 147.43 144.40 146.67 144.85 L 145.83 145.35 C 145.08 145.81 144.83 146.79 145.29 147.54 C 145.74 148.30 146.72 148.54 147.48 148.09 Z M 148.32 147.57 L 149.18 147.05 C 149.93 146.59 150.17 145.61 149.71 144.86 C 149.25 144.11 148.28 143.88 147.52 144.33 L 146.66 144.86 C 145.91 145.31 145.68 146.29 146.13 147.04 C 146.59 147.79 147.57 148.03 148.32 147.57 Z M 149.18 147.04 L 150.07 146.50 C 150.81 146.04 151.05 145.07 150.59 144.32 C 150.13 143.57 149.15 143.34 148.40 143.80 L 147.52 144.34 C 146.77 144.80 146.54 145.78 147.00 146.52 C 147.46 147.27 148.44 147.50 149.18 147.04 Z M 150.07 146.50 L 150.96 145.95 C 151.71 145.49 151.94 144.51 151.48 143.77 C 151.02 143.02 150.04 142.79 149.30 143.25 L 148.40 143.80 C 147.66 144.26 147.43 145.24 147.89 145.98 C 148.35 146.73 149.32 146.96 150.07 146.50 Z M 150.96 145.94 L 151.79 145.44 C 152.53 144.98 152.76 144.00 152.30 143.26 C 151.85 142.52 150.87 142.29 150.13 142.74 L 149.30 143.25 C 148.56 143.71 148.33 144.68 148.78 145.43 C 149.24 146.17 150.21 146.40 150.96 145.94 Z M 151.78 145.43 L 152.62 144.92 C 153.37 144.46 153.60 143.49 153.14 142.75 C 152.69 142.01 151.72 141.77 150.98 142.23 L 150.13 142.75 C 149.39 143.20 149.16 144.17 149.61 144.91 C 150.07 145.65 151.04 145.89 151.78 145.43 Z M 152.62 144.92 L 153.47 144.40 C 154.21 143.95 154.45 142.98 154.00 142.24 C 153.55 141.50 152.58 141.26 151.84 141.71 L 150.99 142.23 C 150.24 142.68 150.01 143.65 150.46 144.39 C 150.91 145.13 151.87 145.37 152.62 144.92 Z M 153.46 144.40 L 154.33 143.88 C 155.07 143.43 155.31 142.47 154.87 141.73 C 154.43 140.99 153.46 140.75 152.72 141.19 L 151.85 141.71 C 151.11 142.15 150.87 143.11 151.31 143.86 C 151.76 144.60 152.72 144.84 153.46 144.40 Z M 154.32 143.88 L 155.19 143.37 C 155.94 142.93 156.19 141.97 155.75 141.23 C 155.31 140.48 154.35 140.24 153.61 140.67 L 152.73 141.19 C 151.99 141.62 151.74 142.58 152.18 143.33 C 152.61 144.07 153.57 144.32 154.32 143.88 Z M 155.18 143.37 L 156.07 142.86 C 156.82 142.43 157.08 141.48 156.65 140.73 C 156.22 139.98 155.27 139.73 154.52 140.15 L 153.63 140.67 C 152.88 141.10 152.62 142.05 153.05 142.79 C 153.48 143.54 154.43 143.80 155.18 143.37 Z M 156.05 142.86 L 157.00 142.33 C 157.75 141.91 158.02 140.97 157.60 140.22 C 157.18 139.47 156.24 139.20 155.49 139.62 L 154.54 140.15 C 153.79 140.57 153.52 141.51 153.94 142.26 C 154.36 143.01 155.31 143.28 156.05 142.86 Z M 156.98 142.33 L 157.92 141.82 C 158.67 141.41 158.94 140.48 158.53 139.73 C 158.12 138.98 157.19 138.70 156.44 139.11 L 155.50 139.62 C 154.76 140.03 154.48 140.97 154.89 141.72 C 155.30 142.46 156.24 142.74 156.98 142.33 Z M 157.90 141.82 L 158.80 141.34 C 159.55 140.94 159.84 140.01 159.44 139.26 C 159.04 138.51 158.10 138.23 157.36 138.63 L 156.45 139.11 C 155.70 139.51 155.42 140.44 155.82 141.19 C 156.22 141.94 157.15 142.22 157.90 141.82 Z M 158.79 141.34 L 159.65 140.89 C 160.39 140.50 160.68 139.57 160.29 138.83 C 159.90 138.08 158.97 137.79 158.23 138.18 L 157.37 138.63 C 156.62 139.02 156.33 139.95 156.73 140.69 C 157.12 141.44 158.04 141.73 158.79 141.34 Z M 159.63 140.89 L 160.43 140.48 C 161.18 140.10 161.47 139.18 161.08 138.43 C 160.70 137.68 159.78 137.39 159.03 137.77 L 158.24 138.18 C 157.49 138.57 157.20 139.49 157.58 140.23 C 157.97 140.98 158.89 141.27 159.63 140.89 Z M 160.41 140.48 L 161.30 140.03 C 162.05 139.65 162.35 138.74 161.97 138.00 C 161.59 137.25 160.68 136.95 159.94 137.33 L 159.05 137.78 C 158.30 138.15 158.00 139.06 158.38 139.81 C 158.76 140.56 159.67 140.85 160.41 140.48 Z M 161.28 140.03 L 162.15 139.60 C 162.90 139.23 163.21 138.34 162.84 137.59 C 162.48 136.85 161.58 136.54 160.83 136.90 L 159.96 137.33 C 159.21 137.69 158.91 138.59 159.27 139.34 C 159.63 140.08 160.53 140.39 161.28 140.03 Z M 162.12 139.60 L 162.98 139.20 C 163.72 138.85 164.05 137.97 163.70 137.22 C 163.35 136.48 162.46 136.15 161.72 136.50 L 160.86 136.90 C 160.12 137.25 159.80 138.14 160.14 138.88 C 160.49 139.63 161.38 139.95 162.12 139.60 Z M 162.95 139.20 L 163.87 138.79 C 164.61 138.46 164.95 137.59 164.62 136.84 C 164.28 136.10 163.41 135.76 162.67 136.09 L 161.75 136.50 C 161.00 136.83 160.67 137.71 161.00 138.45 C 161.33 139.20 162.20 139.53 162.95 139.20 Z M 163.84 138.79 L 164.71 138.42 C 165.45 138.10 165.80 137.24 165.48 136.50 C 165.16 135.75 164.30 135.41 163.56 135.73 L 162.69 136.10 C 161.95 136.41 161.60 137.27 161.92 138.02 C 162.24 138.76 163.10 139.11 163.84 138.79 Z M 164.69 138.42 L 165.55 138.07 C 166.29 137.76 166.64 136.90 166.34 136.16 C 166.03 135.41 165.17 135.06 164.43 135.37 L 163.57 135.72 C 162.83 136.03 162.47 136.89 162.78 137.63 C 163.09 138.38 163.95 138.73 164.69 138.42 Z M 165.53 138.07 L 166.45 137.70 C 167.20 137.39 167.56 136.55 167.26 135.80 C 166.96 135.06 166.11 134.70 165.36 135.00 L 164.44 135.37 C 163.70 135.67 163.34 136.52 163.64 137.26 C 163.94 138.01 164.79 138.37 165.53 138.07 Z M 166.44 137.70 L 167.41 137.32 C 168.15 137.03 168.52 136.18 168.23 135.44 C 167.94 134.69 167.09 134.32 166.35 134.62 L 165.38 134.99 C 164.63 135.29 164.26 136.13 164.56 136.88 C 164.85 137.62 165.69 137.99 166.44 137.70 Z M 167.39 137.32 L 168.39 136.94 C 169.13 136.66 169.51 135.83 169.23 135.08 C 168.95 134.33 168.11 133.95 167.36 134.24 L 166.36 134.61 C 165.62 134.90 165.24 135.73 165.52 136.48 C 165.80 137.23 166.64 137.60 167.39 137.32 Z M 168.37 136.95 L 169.37 136.58 C 170.12 136.31 170.51 135.48 170.23 134.73 C 169.96 133.98 169.13 133.60 168.39 133.87 L 167.38 134.23 C 166.63 134.50 166.25 135.33 166.52 136.08 C 166.79 136.83 167.62 137.22 168.37 136.95 Z M 169.35 136.59 L 170.30 136.26 C 171.05 136.00 171.45 135.18 171.19 134.42 C 170.93 133.67 170.11 133.28 169.36 133.54 L 168.41 133.87 C 167.65 134.13 167.26 134.95 167.52 135.70 C 167.78 136.45 168.60 136.85 169.35 136.59 Z M 170.28 136.26 L 171.23 135.94 C 171.99 135.69 172.39 134.88 172.14 134.12 C 171.89 133.37 171.08 132.96 170.32 133.22 L 169.37 133.53 C 168.62 133.78 168.21 134.60 168.47 135.35 C 168.72 136.10 169.53 136.51 170.28 136.26 Z M 171.22 135.94 L 172.17 135.64 C 172.92 135.39 173.34 134.58 173.09 133.83 C 172.85 133.08 172.04 132.66 171.29 132.91 L 170.34 133.21 C 169.58 133.46 169.17 134.27 169.41 135.02 C 169.66 135.77 170.47 136.19 171.22 135.94 Z M 172.16 135.64 L 173.11 135.33 C 173.87 135.10 174.28 134.29 174.05 133.54 C 173.81 132.78 173.00 132.37 172.25 132.61 L 171.30 132.91 C 170.54 133.14 170.13 133.95 170.36 134.70 C 170.60 135.46 171.41 135.87 172.16 135.64 Z M 173.11 135.33 L 174.06 135.04 C 174.81 134.80 175.23 134.00 175.00 133.25 C 174.76 132.50 173.96 132.08 173.21 132.31 L 172.26 132.61 C 171.50 132.84 171.08 133.64 171.32 134.40 C 171.55 135.15 172.35 135.57 173.11 135.33 Z M 174.05 135.04 L 174.69 134.84 C 175.44 134.61 175.87 133.81 175.63 133.05 C 175.40 132.30 174.60 131.88 173.85 132.11 L 173.21 132.31 C 172.46 132.54 172.04 133.34 172.27 134.10 C 172.50 134.85 173.30 135.27 174.05 135.04 Z"
      fill="black"
      fill-rule="nonzero" /><path d="M 155.68 125.23 L 155.23 126.11 C 154.84 126.87 155.14 127.81 155.91 128.21 C 156.68 128.60 157.62 128.30 158.01 127.53 L 158.46 126.65 C 158.85 125.88 158.55 124.94 157.78 124.55 C 157.02 124.15 156.08 124.46 155.68 125.23 Z M 155.19 126.13 L 154.76 127.03 C 154.38 127.82 154.72 128.77 155.51 129.15 C 156.30 129.52 157.25 129.19 157.63 128.40 L 158.05 127.50 C 158.43 126.71 158.10 125.76 157.30 125.39 C 156.51 125.01 155.57 125.34 155.19 126.13 Z M 154.70 127.10 L 154.32 128.02 C 153.98 128.84 154.37 129.79 155.20 130.13 C 156.02 130.47 156.97 130.08 157.31 129.25 L 157.69 128.33 C 158.03 127.50 157.63 126.56 156.81 126.22 C 155.98 125.88 155.04 126.27 154.70 127.10 Z M 154.25 128.13 L 153.94 129.09 C 153.66 129.96 154.14 130.88 155.00 131.16 C 155.87 131.44 156.79 130.96 157.07 130.10 L 157.38 129.14 C 157.66 128.27 157.18 127.35 156.31 127.07 C 155.45 126.79 154.52 127.27 154.25 128.13 Z M 153.88 129.25 L 153.67 130.24 C 153.48 131.14 154.05 132.02 154.95 132.21 C 155.85 132.40 156.73 131.83 156.92 130.93 L 157.13 129.94 C 157.32 129.04 156.75 128.16 155.85 127.97 C 154.95 127.78 154.07 128.35 153.88 129.25 Z M 153.64 130.38 L 153.52 131.40 C 153.40 132.31 154.05 133.14 154.97 133.26 C 155.88 133.37 156.72 132.72 156.83 131.80 L 156.95 130.79 C 157.06 129.87 156.41 129.04 155.50 128.93 C 154.58 128.82 153.75 129.47 153.64 130.38 Z M 153.51 131.50 L 153.45 132.52 C 153.39 133.44 154.09 134.23 155.01 134.28 C 155.93 134.34 156.72 133.64 156.78 132.72 L 156.84 131.70 C 156.89 130.78 156.19 129.99 155.27 129.94 C 154.35 129.88 153.56 130.58 153.51 131.50 Z M 153.44 132.58 L 153.42 133.58 C 153.40 134.50 154.13 135.26 155.06 135.28 C 155.98 135.30 156.74 134.57 156.76 133.65 L 156.78 132.65 C 156.80 131.73 156.07 130.97 155.14 130.95 C 154.22 130.93 153.46 131.66 153.44 132.58 Z M 153.42 133.61 L 153.42 134.58 C 153.42 135.50 154.16 136.25 155.08 136.25 C 156.00 136.26 156.75 135.51 156.76 134.59 L 156.76 133.62 C 156.76 132.70 156.01 131.95 155.09 131.95 C 154.17 131.94 153.42 132.69 153.42 133.61 Z M 153.42 134.59 L 153.42 135.64 C 153.42 136.56 154.17 137.31 155.09 137.31 C 156.01 137.31 156.75 136.56 156.75 135.64 L 156.75 134.59 C 156.75 133.67 156.01 132.92 155.09 132.92 C 154.17 132.92 153.42 133.67 153.42 134.59 Z M 153.42 135.64 L 153.42 136.62 C 153.42 137.54 154.17 138.29 155.09 138.29 C 156.01 138.29 156.75 137.54 156.75 136.62 L 156.75 135.64 C 156.75 134.72 156.01 133.97 155.09 133.97 C 154.17 133.97 153.42 134.72 153.42 135.64 Z M 153.43 136.62 L 153.43 137.58 C 153.43 138.50 154.17 139.25 155.09 139.25 C 156.01 139.25 156.75 138.50 156.75 137.58 L 156.75 136.62 C 156.75 135.71 156.01 134.96 155.09 134.96 C 154.17 134.96 153.43 135.71 153.43 136.62 Z M 153.43 137.58 L 153.43 138.53 C 153.43 139.45 154.17 140.19 155.09 140.19 C 156.00 140.19 156.75 139.45 156.75 138.53 L 156.75 137.58 C 156.75 136.67 156.00 135.92 155.09 135.92 C 154.17 135.92 153.43 136.67 153.43 137.58 Z M 153.43 138.53 L 153.43 139.50 C 153.43 140.41 154.17 141.15 155.09 141.15 C 156.00 141.15 156.74 140.41 156.74 139.50 L 156.74 138.53 C 156.74 137.62 156.00 136.88 155.09 136.88 C 154.17 136.88 153.43 137.62 153.43 138.53 Z M 153.43 139.50 L 153.43 140.50 C 153.43 141.41 154.17 142.15 155.09 142.15 C 156.00 142.15 156.74 141.41 156.74 140.50 L 156.74 139.50 C 156.74 138.58 156.00 137.84 155.09 137.84 C 154.17 137.84 153.43 138.58 153.43 139.50 Z M 153.43 140.50 L 153.43 141.54 C 153.43 142.46 154.17 143.20 155.09 143.20 C 156.00 143.20 156.74 142.46 156.74 141.54 L 156.74 140.50 C 156.74 139.59 156.00 138.85 155.09 138.85 C 154.17 138.85 153.43 139.59 153.43 140.50 Z M 153.43 141.54 L 153.43 142.53 C 153.43 143.44 154.17 144.18 155.09 144.18 C 156.00 144.18 156.74 143.44 156.74 142.53 L 156.74 141.54 C 156.74 140.63 156.00 139.89 155.09 139.89 C 154.17 139.89 153.43 140.63 153.43 141.54 Z M 153.44 142.53 L 153.44 143.49 C 153.44 144.40 154.18 145.14 155.09 145.14 C 156.00 145.14 156.74 144.40 156.74 143.49 L 156.74 142.53 C 156.74 141.61 156.00 140.87 155.09 140.87 C 154.18 140.87 153.44 141.61 153.44 142.53 Z M 153.44 143.49 L 153.44 144.49 C 153.44 145.40 154.18 146.14 155.09 146.14 C 156.00 146.14 156.74 145.40 156.74 144.49 L 156.74 143.49 C 156.74 142.58 156.00 141.84 155.09 141.84 C 154.18 141.84 153.44 142.58 153.44 143.49 Z M 153.44 144.49 L 153.44 145.52 C 153.44 146.43 154.18 147.17 155.09 147.17 C 156.00 147.17 156.74 146.43 156.74 145.52 L 156.74 144.49 C 156.74 143.58 156.00 142.84 155.09 142.84 C 154.18 142.84 153.44 143.58 153.44 144.49 Z M 153.44 145.52 L 153.44 146.56 C 153.44 147.48 154.18 148.21 155.09 148.21 C 156.00 148.21 156.74 147.48 156.74 146.56 L 156.74 145.52 C 156.74 144.60 156.00 143.87 155.09 143.87 C 154.18 143.87 153.44 144.60 153.44 145.52 Z M 153.44 146.56 L 153.44 147.55 C 153.44 148.46 154.18 149.20 155.09 149.20 C 156.00 149.20 156.74 148.46 156.74 147.55 L 156.74 146.56 C 156.74 145.65 156.00 144.91 155.09 144.91 C 154.18 144.91 153.44 145.65 153.44 146.56 Z M 153.44 147.55 L 153.44 148.55 C 153.44 149.46 154.18 150.20 155.09 150.20 C 156.00 150.20 156.74 149.46 156.74 148.55 L 156.74 147.55 C 156.74 146.64 156.00 145.90 155.09 145.90 C 154.18 145.90 153.44 146.64 153.44 147.55 Z M 153.44 148.55 L 153.44 149.56 C 153.44 150.47 154.18 151.21 155.09 151.21 C 156.00 151.21 156.74 150.47 156.74 149.56 L 156.74 148.55 C 156.74 147.64 156.00 146.90 155.09 146.90 C 154.18 146.90 153.44 147.64 153.44 148.55 Z M 153.44 149.56 L 153.44 150.57 C 153.44 151.48 154.18 152.21 155.09 152.21 C 156.00 152.21 156.74 151.48 156.74 150.57 L 156.74 149.56 C 156.74 148.65 156.00 147.91 155.09 147.91 C 154.18 147.91 153.44 148.65 153.44 149.56 Z M 153.44 150.57 L 153.44 151.57 C 153.44 152.48 154.18 153.22 155.09 153.22 C 156.00 153.22 156.73 152.48 156.73 151.57 L 156.73 150.57 C 156.73 149.66 156.00 148.92 155.09 148.92 C 154.18 148.92 153.44 149.66 153.44 150.57 Z M 153.44 151.57 L 153.44 152.58 C 153.44 153.49 154.18 154.23 155.09 154.23 C 155.99 154.23 156.73 153.49 156.73 152.58 L 156.73 151.57 C 156.73 150.66 156.00 149.93 155.09 149.93 C 154.18 149.93 153.44 150.66 153.44 151.57 Z M 153.45 152.58 L 153.45 153.58 C 153.45 154.49 154.18 155.22 155.08 155.22 C 155.99 155.22 156.72 154.49 156.72 153.59 L 156.73 152.59 C 156.73 151.68 155.99 150.95 155.09 150.95 C 154.18 150.94 153.45 151.68 153.45 152.58 Z M 153.45 153.58 L 153.45 154.57 C 153.44 155.47 154.17 156.21 155.07 156.21 C 155.98 156.22 156.71 155.49 156.71 154.59 L 156.72 153.59 C 156.72 152.69 155.99 151.96 155.09 151.95 C 154.19 151.95 153.46 152.68 153.45 153.58 Z M 153.45 154.57 L 153.44 155.56 C 153.44 156.46 154.16 157.19 155.06 157.20 C 155.96 157.21 156.69 156.48 156.70 155.58 L 156.71 154.59 C 156.72 153.69 155.99 152.96 155.09 152.95 C 154.19 152.94 153.46 153.67 153.45 154.57 Z M 153.45 155.55 L 153.44 156.55 C 153.43 157.44 154.14 158.18 155.04 158.19 C 155.94 158.20 156.67 157.48 156.68 156.59 L 156.70 155.59 C 156.71 154.70 155.99 153.96 155.09 153.95 C 154.20 153.94 153.46 154.65 153.45 155.55 Z M 153.44 156.54 L 153.42 157.54 C 153.41 158.43 154.12 159.17 155.01 159.19 C 155.90 159.21 156.64 158.49 156.66 157.60 L 156.68 156.60 C 156.70 155.71 155.99 154.97 155.09 154.95 C 154.20 154.93 153.46 155.64 153.44 156.54 Z M 153.43 157.52 L 153.40 158.52 C 153.37 159.42 154.07 160.16 154.96 160.18 C 155.85 160.21 156.60 159.51 156.62 158.62 L 156.65 157.62 C 156.68 156.73 155.98 155.98 155.09 155.96 C 154.20 155.93 153.46 156.63 153.43 157.52 Z M 153.41 158.50 L 153.36 159.50 C 153.32 160.39 154.01 161.14 154.90 161.18 C 155.78 161.22 156.53 160.53 156.57 159.64 L 156.62 158.64 C 156.66 157.76 155.97 157.01 155.08 156.97 C 154.19 156.93 153.44 157.62 153.41 158.50 Z M 153.37 159.48 L 153.31 160.47 C 153.25 161.35 153.93 162.11 154.81 162.17 C 155.69 162.22 156.45 161.55 156.51 160.67 L 156.57 159.67 C 156.62 158.79 155.95 158.03 155.07 157.98 C 154.18 157.92 153.42 158.59 153.37 159.48 Z M 153.32 160.44 L 153.23 161.44 C 153.16 162.31 153.81 163.09 154.69 163.16 C 155.57 163.23 156.34 162.58 156.41 161.70 L 156.50 160.70 C 156.57 159.82 155.92 159.05 155.04 158.98 C 154.16 158.91 153.39 159.56 153.32 160.44 Z M 153.24 161.40 L 153.14 162.41 C 153.05 163.28 153.68 164.06 154.55 164.15 C 155.42 164.25 156.21 163.61 156.30 162.74 L 156.40 161.73 C 156.50 160.86 155.86 160.08 154.99 159.99 C 154.12 159.90 153.33 160.53 153.24 161.40 Z M 153.15 162.38 L 153.03 163.37 C 152.92 164.24 153.54 165.03 154.40 165.14 C 155.27 165.24 156.06 164.63 156.17 163.76 L 156.29 162.77 C 156.39 161.90 155.78 161.11 154.91 161.00 C 154.04 160.90 153.25 161.51 153.15 162.38 Z M 153.03 163.36 L 152.90 164.34 C 152.78 165.20 153.39 166.00 154.25 166.11 C 155.11 166.23 155.91 165.63 156.02 164.76 L 156.16 163.78 C 156.27 162.92 155.67 162.12 154.81 162.01 C 153.95 161.89 153.15 162.49 153.03 163.36 Z M 152.91 164.33 L 152.77 165.31 C 152.65 166.17 153.24 166.96 154.10 167.08 C 154.96 167.21 155.75 166.61 155.88 165.75 L 156.02 164.78 C 156.14 163.92 155.54 163.12 154.68 163.00 C 153.83 162.88 153.03 163.47 152.91 164.33 Z M 152.78 165.31 L 152.63 166.31 C 152.51 167.17 153.10 167.96 153.95 168.08 C 154.81 168.21 155.60 167.62 155.72 166.76 L 155.87 165.76 C 155.99 164.90 155.40 164.11 154.55 163.99 C 153.69 163.86 152.90 164.45 152.78 165.31 Z M 152.64 166.32 L 152.49 167.32 C 152.37 168.17 152.96 168.96 153.81 169.08 C 154.66 169.21 155.44 168.62 155.57 167.77 L 155.71 166.76 C 155.84 165.91 155.25 165.12 154.40 165.00 C 153.55 164.88 152.76 165.47 152.64 166.32 Z M 152.50 167.32 L 152.36 168.32 C 152.23 169.16 152.82 169.95 153.66 170.07 C 154.51 170.19 155.29 169.61 155.42 168.76 L 155.56 167.77 C 155.68 166.92 155.10 166.14 154.25 166.02 C 153.41 165.89 152.62 166.48 152.50 167.32 Z M 152.36 168.32 L 152.22 169.29 C 152.10 170.13 152.69 170.91 153.53 171.04 C 154.37 171.16 155.15 170.57 155.27 169.73 L 155.41 168.76 C 155.53 167.92 154.95 167.14 154.11 167.01 C 153.26 166.89 152.48 167.48 152.36 168.32 Z M 152.23 169.30 L 152.10 170.22 C 151.98 171.06 152.56 171.83 153.40 171.95 C 154.24 172.07 155.02 171.49 155.13 170.65 L 155.26 169.73 C 155.38 168.89 154.80 168.11 153.96 167.99 C 153.12 167.88 152.35 168.46 152.23 169.30 Z M 152.11 170.23 L 151.99 171.09 C 151.87 171.92 152.45 172.69 153.29 172.81 C 154.12 172.92 154.89 172.34 155.01 171.50 L 155.13 170.64 C 155.24 169.81 154.66 169.04 153.83 168.92 C 152.99 168.81 152.22 169.39 152.11 170.23 Z M 151.99 171.09 L 151.87 171.99 C 151.76 172.82 152.34 173.59 153.17 173.70 C 154.00 173.81 154.77 173.23 154.88 172.40 L 155.00 171.50 C 155.12 170.67 154.53 169.90 153.70 169.79 C 152.87 169.68 152.11 170.26 151.99 171.09 Z M 151.88 171.99 L 151.74 172.97 C 151.63 173.80 152.21 174.56 153.04 174.67 C 153.87 174.79 154.63 174.21 154.74 173.38 L 154.87 172.40 C 154.99 171.57 154.41 170.81 153.58 170.69 C 152.75 170.58 151.99 171.16 151.88 171.99 Z M 151.75 172.98 L 151.60 174.09 C 151.49 174.91 152.07 175.67 152.89 175.78 C 153.72 175.89 154.48 175.31 154.59 174.49 L 154.74 173.38 C 154.85 172.55 154.27 171.79 153.44 171.68 C 152.62 171.57 151.86 172.15 151.75 172.98 Z M 151.61 174.09 L 151.46 175.19 C 151.35 176.01 151.93 176.76 152.75 176.87 C 153.57 176.98 154.32 176.41 154.43 175.58 L 154.58 174.49 C 154.69 173.67 154.11 172.91 153.29 172.80 C 152.47 172.69 151.72 173.27 151.61 174.09 Z M 151.46 175.19 L 151.34 176.11 C 151.23 176.93 151.80 177.68 152.62 177.79 C 153.44 177.90 154.19 177.33 154.30 176.51 L 154.43 175.58 C 154.54 174.77 153.96 174.01 153.15 173.90 C 152.33 173.79 151.57 174.37 151.46 175.19 Z M 151.34 176.11 L 151.21 177.10 C 151.10 177.91 151.67 178.66 152.49 178.78 C 153.30 178.89 154.06 178.31 154.17 177.50 L 154.30 176.51 C 154.41 175.70 153.84 174.94 153.02 174.83 C 152.21 174.72 151.45 175.29 151.34 176.11 Z M 151.21 177.09 L 151.07 178.12 C 150.96 178.93 151.53 179.68 152.34 179.79 C 153.16 179.91 153.91 179.34 154.02 178.52 L 154.16 177.50 C 154.27 176.69 153.71 175.93 152.89 175.82 C 152.08 175.71 151.33 176.28 151.21 177.09 Z M 151.08 178.11 L 150.93 179.15 C 150.82 179.96 151.38 180.71 152.19 180.83 C 153.00 180.94 153.76 180.38 153.87 179.57 L 154.02 178.53 C 154.13 177.71 153.57 176.96 152.75 176.85 C 151.94 176.73 151.19 177.30 151.08 178.11 Z M 150.93 179.15 L 150.78 180.18 C 150.67 180.99 151.23 181.74 152.04 181.86 C 152.85 181.98 153.60 181.41 153.72 180.61 L 153.87 179.57 C 153.98 178.76 153.42 178.01 152.61 177.89 C 151.80 177.77 151.05 178.34 150.93 179.15 Z M 150.79 180.17 L 150.64 181.18 C 150.52 181.99 151.07 182.74 151.88 182.86 C 152.69 182.98 153.44 182.43 153.56 181.62 L 153.71 180.61 C 153.83 179.81 153.28 179.05 152.47 178.93 C 151.66 178.81 150.91 179.37 150.79 180.17 Z M 150.64 181.17 L 150.49 182.14 C 150.37 182.94 150.91 183.70 151.72 183.82 C 152.52 183.95 153.28 183.40 153.40 182.59 L 153.55 181.63 C 153.68 180.83 153.13 180.07 152.33 179.95 C 151.52 179.82 150.77 180.37 150.64 181.17 Z M 150.50 182.12 L 150.31 183.26 C 150.18 184.06 150.72 184.82 151.52 184.95 C 152.32 185.08 153.07 184.54 153.21 183.74 L 153.40 182.61 C 153.53 181.81 152.99 181.05 152.19 180.92 C 151.39 180.78 150.63 181.32 150.50 182.12 Z M 150.32 183.24 L 150.13 184.31 C 149.99 185.10 150.52 185.86 151.31 186.00 C 152.10 186.14 152.86 185.61 153.01 184.82 L 153.20 183.76 C 153.34 182.96 152.81 182.21 152.02 182.06 C 151.22 181.92 150.46 182.45 150.32 183.24 Z M 150.14 184.29 L 149.95 185.28 C 149.80 186.06 150.32 186.82 151.11 186.97 C 151.90 187.12 152.66 186.61 152.81 185.82 L 153.00 184.83 C 153.15 184.05 152.63 183.28 151.84 183.13 C 151.05 182.98 150.29 183.50 150.14 184.29 Z M 149.96 185.26 L 149.78 186.19 C 149.62 186.97 150.13 187.74 150.91 187.89 C 151.69 188.05 152.46 187.54 152.61 186.76 L 152.80 185.83 C 152.95 185.05 152.45 184.29 151.66 184.13 C 150.88 183.97 150.12 184.48 149.96 185.26 Z M 149.79 186.18 L 149.60 187.07 C 149.44 187.85 149.94 188.61 150.72 188.77 C 151.50 188.93 152.26 188.43 152.42 187.66 L 152.60 186.77 C 152.76 185.99 152.26 185.23 151.49 185.07 C 150.71 184.91 149.95 185.41 149.79 186.18 Z M 149.61 187.07 L 149.45 187.82 C 149.29 188.59 149.79 189.35 150.56 189.51 C 151.33 189.68 152.09 189.18 152.25 188.41 L 152.41 187.66 C 152.57 186.89 152.08 186.13 151.31 185.97 C 150.53 185.80 149.77 186.30 149.61 187.07 Z"
      fill="black"
      fill-rule="nonzero" /><path d="M 117.10 192.54 L 116.07 192.38 C 115.23 192.25 114.44 192.82 114.31 193.66 C 114.17 194.50 114.75 195.29 115.59 195.43 L 116.62 195.59 C 117.46 195.72 118.24 195.15 118.38 194.31 C 118.51 193.46 117.94 192.68 117.10 192.54 Z M 116.07 192.37 L 115.05 192.21 C 114.20 192.08 113.41 192.66 113.28 193.51 C 113.15 194.35 113.73 195.14 114.57 195.28 L 115.59 195.43 C 116.43 195.57 117.23 194.99 117.36 194.14 C 117.49 193.30 116.91 192.50 116.07 192.37 Z M 115.04 192.21 L 114.05 192.05 C 113.20 191.92 112.40 192.51 112.27 193.36 C 112.14 194.21 112.73 195.00 113.58 195.13 L 114.58 195.29 C 115.43 195.41 116.22 194.83 116.35 193.98 C 116.48 193.13 115.89 192.33 115.04 192.21 Z M 114.04 192.04 L 113.07 191.90 C 112.22 191.78 111.42 192.37 111.30 193.22 C 111.17 194.08 111.76 194.88 112.62 195.00 L 113.59 195.14 C 114.44 195.27 115.24 194.68 115.36 193.82 C 115.49 192.96 114.90 192.17 114.04 192.04 Z M 113.06 191.89 L 112.06 191.75 C 111.20 191.63 110.40 192.24 110.28 193.10 C 110.16 193.96 110.77 194.76 111.63 194.88 L 112.63 195.01 C 113.49 195.13 114.29 194.53 114.41 193.67 C 114.53 192.80 113.93 192.01 113.06 191.89 Z M 112.05 191.71 L 110.64 191.53 C 109.75 191.42 108.94 192.04 108.83 192.93 C 108.72 193.81 109.34 194.62 110.23 194.74 L 111.64 194.92 C 112.53 195.03 113.34 194.40 113.45 193.52 C 113.56 192.63 112.93 191.82 112.05 191.71 Z M 110.66 191.47 L 109.71 191.34 C 108.80 191.21 107.95 191.86 107.82 192.77 C 107.70 193.69 108.34 194.54 109.26 194.67 L 110.20 194.80 C 111.12 194.92 111.97 194.28 112.10 193.36 C 112.22 192.44 111.58 191.60 110.66 191.47 Z M 110.14 191.39 L 109.93 191.31 C 109.04 190.95 108.03 191.38 107.68 192.27 C 107.32 193.16 107.75 194.17 108.63 194.53 L 108.84 194.61 C 109.72 194.97 110.74 194.54 111.09 193.65 C 111.45 192.76 111.02 191.75 110.14 191.39 Z M 109.38 194.68 L 110.06 194.65 C 111.04 194.59 111.78 193.76 111.73 192.79 C 111.68 191.81 110.84 191.07 109.87 191.12 L 109.19 191.16 C 108.21 191.21 107.47 192.05 107.52 193.02 C 107.58 193.99 108.41 194.74 109.38 194.68 Z M 109.98 194.66 L 111.28 194.65 C 112.26 194.64 113.05 193.84 113.05 192.86 C 113.04 191.88 112.24 191.09 111.26 191.10 L 109.95 191.11 C 108.97 191.11 108.18 191.92 108.19 192.90 C 108.20 193.88 109.00 194.67 109.98 194.66 Z M 111.27 194.66 L 112.49 194.66 C 113.47 194.66 114.27 193.86 114.27 192.87 C 114.27 191.89 113.47 191.09 112.48 191.09 L 111.27 191.09 C 110.28 191.09 109.48 191.89 109.48 192.88 C 109.48 193.86 110.28 194.66 111.27 194.66 Z M 112.48 194.67 L 113.50 194.67 C 114.49 194.67 115.29 193.86 115.29 192.87 C 115.29 191.89 114.49 191.08 113.50 191.08 L 112.48 191.08 C 111.50 191.08 110.69 191.89 110.69 192.87 C 110.69 193.86 111.50 194.67 112.48 194.67 Z M 113.50 194.67 L 114.53 194.67 C 115.52 194.67 116.32 193.87 116.32 192.87 C 116.32 191.88 115.52 191.08 114.53 191.08 L 113.50 191.08 C 112.51 191.08 111.71 191.88 111.71 192.87 C 111.71 193.87 112.51 194.67 113.50 194.67 Z M 114.53 194.67 L 115.53 194.67 C 116.52 194.67 117.33 193.87 117.33 192.87 C 117.33 191.88 116.52 191.08 115.53 191.08 L 114.53 191.08 C 113.53 191.08 112.73 191.88 112.73 192.87 C 112.73 193.87 113.53 194.67 114.53 194.67 Z M 115.53 194.67 L 116.51 194.67 C 117.50 194.67 118.31 193.87 118.31 192.87 C 118.31 191.88 117.50 191.08 116.51 191.08 L 115.53 191.08 C 114.54 191.08 113.73 191.88 113.73 192.87 C 113.73 193.87 114.54 194.67 115.53 194.67 Z M 116.51 194.68 L 117.57 194.67 C 118.56 194.67 119.37 193.86 119.37 192.87 C 119.36 191.87 118.56 191.07 117.56 191.07 L 116.51 191.07 C 115.51 191.07 114.71 191.88 114.71 192.88 C 114.71 193.87 115.52 194.68 116.51 194.68 Z M 117.59 194.68 L 118.57 194.67 C 119.57 194.65 120.36 193.84 120.35 192.84 C 120.34 191.84 119.52 191.04 118.53 191.06 L 117.54 191.07 C 116.55 191.08 115.75 191.90 115.76 192.89 C 115.77 193.89 116.59 194.69 117.59 194.68 Z M 118.60 194.67 L 119.56 194.64 C 120.56 194.61 121.34 193.78 121.31 192.78 C 121.28 191.78 120.45 190.99 119.45 191.03 L 118.49 191.05 C 117.50 191.08 116.71 191.92 116.74 192.92 C 116.77 193.91 117.61 194.70 118.60 194.67 Z M 119.61 194.64 L 120.55 194.59 C 121.55 194.53 122.32 193.68 122.26 192.68 C 122.21 191.68 121.35 190.92 120.35 190.97 L 119.41 191.02 C 118.41 191.08 117.64 191.93 117.70 192.93 C 117.76 193.93 118.61 194.70 119.61 194.64 Z M 120.60 194.59 L 121.55 194.51 C 122.55 194.43 123.29 193.56 123.21 192.56 C 123.14 191.57 122.26 190.82 121.27 190.90 L 120.31 190.97 C 119.31 191.05 118.57 191.92 118.65 192.92 C 118.73 193.92 119.60 194.66 120.60 194.59 Z M 121.58 194.51 L 122.57 194.42 C 123.57 194.32 124.30 193.44 124.21 192.44 C 124.12 191.44 123.23 190.71 122.23 190.80 L 121.24 190.90 C 120.24 190.99 119.51 191.88 119.60 192.88 C 119.70 193.87 120.58 194.61 121.58 194.51 Z M 122.59 194.42 L 123.63 194.31 C 124.63 194.20 125.36 193.31 125.25 192.31 C 125.15 191.32 124.25 190.59 123.26 190.70 L 122.21 190.80 C 121.22 190.91 120.49 191.80 120.60 192.80 C 120.70 193.80 121.60 194.52 122.59 194.42 Z M 123.64 194.31 L 124.64 194.20 C 125.64 194.09 126.36 193.19 126.25 192.20 C 126.14 191.20 125.24 190.48 124.24 190.59 L 123.25 190.69 C 122.25 190.80 121.53 191.70 121.64 192.70 C 121.75 193.70 122.65 194.42 123.64 194.31 Z M 124.64 194.20 L 125.61 194.09 C 126.61 193.98 127.33 193.08 127.22 192.08 C 127.10 191.08 126.20 190.36 125.20 190.48 L 124.24 190.58 C 123.24 190.70 122.52 191.60 122.63 192.60 C 122.74 193.60 123.64 194.31 124.64 194.20 Z M 125.62 194.09 L 126.61 193.98 C 127.61 193.86 128.33 192.96 128.21 191.96 C 128.10 190.96 127.19 190.24 126.19 190.36 L 125.20 190.47 C 124.20 190.59 123.48 191.49 123.60 192.49 C 123.71 193.49 124.62 194.21 125.62 194.09 Z M 126.62 193.98 L 127.63 193.86 C 128.64 193.74 129.35 192.83 129.23 191.83 C 129.11 190.83 128.20 190.12 127.20 190.24 L 126.19 190.36 C 125.19 190.48 124.47 191.39 124.59 192.39 C 124.71 193.39 125.62 194.10 126.62 193.98 Z M 127.64 193.86 L 128.67 193.73 C 129.67 193.61 130.38 192.70 130.26 191.69 C 130.13 190.69 129.22 189.98 128.22 190.11 L 127.19 190.24 C 126.19 190.36 125.48 191.27 125.61 192.27 C 125.73 193.27 126.64 193.98 127.64 193.86 Z M 128.68 193.73 L 129.66 193.61 C 130.66 193.48 131.37 192.56 131.24 191.56 C 131.11 190.56 130.19 189.85 129.19 189.98 L 128.21 190.11 C 127.21 190.24 126.50 191.15 126.63 192.15 C 126.76 193.16 127.68 193.86 128.68 193.73 Z M 129.67 193.61 L 130.65 193.47 C 131.65 193.34 132.36 192.42 132.22 191.42 C 132.09 190.41 131.17 189.71 130.16 189.85 L 129.18 189.98 C 128.18 190.11 127.47 191.04 127.61 192.04 C 127.74 193.04 128.67 193.74 129.67 193.61 Z M 130.66 193.47 L 131.65 193.34 C 132.66 193.20 133.35 192.27 133.21 191.27 C 133.07 190.27 132.15 189.57 131.15 189.71 L 130.16 189.85 C 129.15 189.99 128.45 190.91 128.59 191.91 C 128.73 192.92 129.66 193.61 130.66 193.47 Z M 131.66 193.34 L 132.66 193.19 C 133.66 193.05 134.36 192.12 134.21 191.12 C 134.07 190.11 133.14 189.42 132.13 189.56 L 131.14 189.71 C 130.13 189.85 129.44 190.78 129.58 191.78 C 129.73 192.79 130.66 193.48 131.66 193.34 Z M 132.67 193.19 L 133.66 193.04 C 134.67 192.89 135.36 191.96 135.21 190.96 C 135.06 189.95 134.12 189.26 133.12 189.41 L 132.13 189.56 C 131.12 189.71 130.43 190.65 130.58 191.65 C 130.73 192.65 131.67 193.34 132.67 193.19 Z M 133.67 193.04 L 134.64 192.89 C 135.65 192.74 136.34 191.80 136.18 190.80 C 136.03 189.80 135.09 189.11 134.09 189.26 L 133.11 189.41 C 132.11 189.57 131.42 190.51 131.58 191.51 C 131.73 192.51 132.67 193.20 133.67 193.04 Z M 134.65 192.89 L 135.63 192.74 C 136.63 192.58 137.32 191.64 137.16 190.64 C 137.01 189.64 136.06 188.95 135.06 189.11 L 134.08 189.26 C 133.08 189.42 132.39 190.36 132.55 191.36 C 132.71 192.37 133.65 193.05 134.65 192.89 Z M 135.63 192.74 L 136.62 192.58 C 137.63 192.43 138.31 191.48 138.15 190.48 C 137.99 189.48 137.05 188.79 136.05 188.95 L 135.06 189.11 C 134.06 189.27 133.37 190.21 133.53 191.21 C 133.69 192.22 134.63 192.90 135.63 192.74 Z M 136.62 192.59 L 137.62 192.43 C 138.63 192.27 139.31 191.32 139.15 190.32 C 138.99 189.32 138.05 188.63 137.04 188.79 L 136.05 188.95 C 135.04 189.11 134.36 190.05 134.52 191.06 C 134.68 192.06 135.62 192.74 136.62 192.59 Z M 137.62 192.43 L 138.61 192.27 C 139.62 192.11 140.30 191.17 140.15 190.16 C 139.99 189.16 139.04 188.48 138.04 188.63 L 137.05 188.79 C 136.04 188.95 135.36 189.89 135.52 190.90 C 135.67 191.90 136.62 192.59 137.62 192.43 Z M 138.61 192.27 L 139.58 192.12 C 140.58 191.96 141.27 191.02 141.11 190.02 C 140.95 189.01 140.01 188.32 139.01 188.48 L 138.04 188.63 C 137.04 188.79 136.35 189.73 136.51 190.74 C 136.67 191.74 137.61 192.43 138.61 192.27 Z M 139.58 192.12 L 140.55 191.97 C 141.56 191.81 142.25 190.87 142.09 189.86 C 141.93 188.86 140.99 188.17 139.99 188.33 L 139.01 188.48 C 138.00 188.64 137.32 189.58 137.47 190.59 C 137.63 191.59 138.57 192.28 139.58 192.12 Z M 140.56 191.97 L 141.54 191.81 C 142.55 191.66 143.24 190.71 143.08 189.71 C 142.92 188.70 141.98 188.01 140.97 188.17 L 139.99 188.33 C 138.98 188.48 138.29 189.43 138.45 190.43 C 138.61 191.44 139.55 192.13 140.56 191.97 Z M 141.55 191.81 L 142.55 191.66 C 143.55 191.50 144.24 190.55 144.08 189.55 C 143.92 188.54 142.98 187.86 141.97 188.01 L 140.97 188.17 C 139.97 188.33 139.28 189.27 139.44 190.28 C 139.60 191.29 140.54 191.97 141.55 191.81 Z M 142.55 191.66 L 143.56 191.50 C 144.57 191.33 145.25 190.39 145.09 189.38 C 144.93 188.38 143.99 187.69 142.98 187.85 L 141.97 188.01 C 140.96 188.17 140.28 189.12 140.44 190.13 C 140.60 191.13 141.54 191.82 142.55 191.66 Z M 143.57 191.50 L 144.52 191.34 C 145.53 191.18 146.21 190.23 146.05 189.23 C 145.89 188.22 144.94 187.54 143.93 187.70 L 142.98 187.85 C 141.97 188.02 141.29 188.96 141.45 189.97 C 141.61 190.97 142.56 191.66 143.57 191.50 Z M 144.53 191.34 L 145.49 191.18 C 146.50 191.02 147.18 190.07 147.02 189.06 C 146.85 188.06 145.90 187.38 144.90 187.54 L 143.93 187.70 C 142.92 187.86 142.24 188.81 142.41 189.82 C 142.57 190.82 143.52 191.51 144.53 191.34 Z M 145.50 191.18 L 146.48 191.02 C 147.48 190.85 148.16 189.90 148.00 188.90 C 147.83 187.89 146.88 187.21 145.87 187.38 L 144.89 187.54 C 143.89 187.71 143.21 188.66 143.37 189.66 C 143.54 190.67 144.49 191.35 145.50 191.18 Z M 146.48 191.02 L 147.48 190.85 C 148.48 190.68 149.16 189.73 148.99 188.73 C 148.82 187.72 147.87 187.04 146.87 187.21 L 145.87 187.38 C 144.87 187.55 144.19 188.50 144.35 189.50 C 144.52 190.51 145.47 191.19 146.48 191.02 Z M 147.48 190.85 L 148.49 190.68 C 149.50 190.51 150.17 189.56 150.00 188.55 C 149.83 187.55 148.88 186.87 147.88 187.04 L 146.86 187.21 C 145.86 187.38 145.18 188.33 145.35 189.34 C 145.52 190.35 146.47 191.02 147.48 190.85 Z M 148.49 190.68 L 149.48 190.51 C 150.49 190.34 151.16 189.39 150.99 188.38 C 150.82 187.38 149.87 186.70 148.86 186.87 L 147.87 187.04 C 146.87 187.21 146.19 188.17 146.36 189.17 C 146.53 190.18 147.49 190.85 148.49 190.68 Z M 149.48 190.51 L 150.42 190.35 C 151.43 190.18 152.10 189.23 151.93 188.22 C 151.76 187.21 150.80 186.54 149.80 186.71 L 148.86 186.87 C 147.85 187.04 147.18 188.00 147.35 189.01 C 147.52 190.01 148.48 190.69 149.48 190.51 Z M 150.42 190.35 L 151.38 190.19 C 152.39 190.01 153.06 189.06 152.89 188.05 C 152.71 187.05 151.76 186.37 150.75 186.55 L 149.80 186.71 C 148.79 186.88 148.11 187.84 148.29 188.85 C 148.46 189.85 149.42 190.53 150.42 190.35 Z M 151.38 190.19 L 152.36 190.02 C 153.36 189.84 154.04 188.89 153.86 187.88 C 153.69 186.87 152.73 186.20 151.72 186.38 L 150.75 186.55 C 149.74 186.72 149.07 187.68 149.24 188.68 C 149.42 189.69 150.38 190.36 151.38 190.19 Z M 152.36 190.02 L 153.36 189.84 C 154.36 189.67 155.03 188.71 154.86 187.70 C 154.68 186.70 153.72 186.03 152.72 186.20 L 151.72 186.38 C 150.72 186.55 150.04 187.51 150.22 188.52 C 150.39 189.52 151.35 190.19 152.36 190.02 Z M 153.36 189.84 L 154.38 189.66 C 155.39 189.49 156.06 188.53 155.88 187.52 C 155.70 186.52 154.74 185.84 153.74 186.02 L 152.72 186.20 C 151.71 186.38 151.04 187.34 151.22 188.34 C 151.39 189.35 152.35 190.02 153.36 189.84 Z M 154.38 189.66 L 155.42 189.48 C 156.43 189.30 157.10 188.34 156.92 187.33 C 156.74 186.33 155.78 185.66 154.78 185.84 L 153.74 186.02 C 152.73 186.20 152.06 187.16 152.24 188.17 C 152.42 189.17 153.38 189.84 154.38 189.66 Z M 155.42 189.48 L 156.38 189.31 C 157.38 189.13 158.05 188.17 157.87 187.16 C 157.69 186.16 156.73 185.49 155.73 185.67 L 154.77 185.84 C 153.77 186.02 153.10 186.98 153.28 187.98 C 153.46 188.99 154.42 189.66 155.42 189.48 Z M 156.38 189.31 L 157.35 189.14 C 158.35 188.96 159.02 187.99 158.84 186.99 C 158.66 185.98 157.70 185.31 156.69 185.49 L 155.72 185.67 C 154.72 185.85 154.05 186.81 154.23 187.81 C 154.41 188.82 155.37 189.49 156.38 189.31 Z M 157.35 189.14 L 158.33 188.96 C 159.34 188.78 160.01 187.82 159.83 186.81 C 159.65 185.81 158.69 185.14 157.68 185.32 L 156.70 185.49 C 155.69 185.67 155.02 186.63 155.20 187.64 C 155.38 188.65 156.34 189.31 157.35 189.14 Z M 158.33 188.96 L 159.32 188.78 C 160.33 188.60 161.00 187.64 160.82 186.64 C 160.64 185.63 159.68 184.96 158.68 185.14 L 157.68 185.32 C 156.68 185.50 156.00 186.46 156.18 187.46 C 156.36 188.47 157.32 189.14 158.33 188.96 Z M 159.32 188.78 L 160.32 188.61 C 161.33 188.43 162.00 187.47 161.82 186.47 C 161.64 185.46 160.68 184.79 159.68 184.96 L 158.68 185.14 C 157.67 185.32 157.00 186.28 157.18 187.28 C 157.35 188.29 158.31 188.96 159.32 188.78 Z M 160.31 188.61 L 161.32 188.44 C 162.32 188.26 163.00 187.30 162.82 186.30 C 162.65 185.29 161.69 184.61 160.68 184.79 L 159.68 184.96 C 158.68 185.14 158.00 186.10 158.18 187.10 C 158.35 188.11 159.31 188.78 160.31 188.61 Z M 161.31 188.44 L 162.31 188.27 C 163.31 188.10 163.99 187.14 163.82 186.13 C 163.65 185.12 162.69 184.45 161.69 184.62 L 160.69 184.79 C 159.68 184.96 159.00 185.92 159.17 186.92 C 159.35 187.93 160.30 188.61 161.31 188.44 Z M 162.30 188.27 L 163.31 188.10 C 164.31 187.93 164.99 186.98 164.83 185.97 C 164.66 184.96 163.71 184.28 162.70 184.45 L 161.69 184.62 C 160.68 184.79 160.00 185.74 160.17 186.75 C 160.34 187.76 161.29 188.44 162.30 188.27 Z M 163.30 188.10 L 164.30 187.94 C 165.31 187.77 165.99 186.82 165.83 185.81 C 165.66 184.81 164.71 184.12 163.70 184.29 L 162.70 184.45 C 161.69 184.61 161.01 185.57 161.18 186.57 C 161.34 187.58 162.29 188.27 163.30 188.10 Z M 164.29 187.94 L 165.29 187.78 C 166.30 187.62 166.98 186.67 166.82 185.66 C 166.66 184.65 165.71 183.96 164.70 184.13 L 163.70 184.29 C 162.70 184.45 162.01 185.40 162.17 186.41 C 162.34 187.42 163.29 188.10 164.29 187.94 Z M 165.28 187.78 L 166.27 187.62 C 167.28 187.46 167.97 186.51 167.80 185.50 C 167.64 184.49 166.69 183.81 165.68 183.97 L 164.70 184.13 C 163.69 184.29 163.00 185.24 163.16 186.25 C 163.33 187.25 164.28 187.94 165.28 187.78 Z M 166.27 187.62 L 167.25 187.46 C 168.26 187.30 168.95 186.35 168.79 185.34 C 168.62 184.33 167.67 183.65 166.66 183.81 L 165.68 183.97 C 164.67 184.13 163.99 185.08 164.15 186.09 C 164.31 187.10 165.26 187.78 166.27 187.62 Z M 167.25 187.46 L 168.23 187.31 C 169.24 187.14 169.92 186.19 169.76 185.18 C 169.60 184.18 168.65 183.49 167.64 183.65 L 166.66 183.81 C 165.65 183.97 164.97 184.92 165.13 185.93 C 165.29 186.94 166.24 187.63 167.25 187.46 Z M 168.23 187.31 L 169.21 187.15 C 170.21 186.98 170.90 186.03 170.73 185.02 C 170.57 184.01 169.62 183.33 168.61 183.49 L 167.64 183.65 C 166.63 183.82 165.94 184.77 166.11 185.78 C 166.27 186.79 167.22 187.47 168.23 187.31 Z M 169.21 187.15 L 170.21 186.98 C 171.22 186.81 171.90 185.86 171.73 184.85 C 171.56 183.84 170.61 183.16 169.60 183.33 L 168.60 183.49 C 167.60 183.66 166.91 184.62 167.08 185.62 C 167.25 186.63 168.20 187.31 169.21 187.15 Z M 170.21 186.98 L 171.21 186.81 C 172.21 186.64 172.89 185.69 172.72 184.68 C 172.55 183.67 171.60 182.99 170.59 183.16 L 169.60 183.33 C 168.59 183.50 167.91 184.45 168.08 185.46 C 168.25 186.47 169.20 187.15 170.21 186.98 Z M 171.21 186.81 L 172.20 186.64 C 173.21 186.47 173.88 185.52 173.71 184.51 C 173.54 183.50 172.59 182.82 171.58 183.00 L 170.59 183.16 C 169.58 183.33 168.90 184.29 169.08 185.30 C 169.25 186.30 170.20 186.98 171.21 186.81 Z M 172.20 186.64 L 173.19 186.47 C 174.19 186.30 174.87 185.35 174.70 184.34 C 174.53 183.34 173.57 182.66 172.57 182.83 L 171.58 183.00 C 170.57 183.17 169.90 184.12 170.07 185.13 C 170.24 186.13 171.19 186.81 172.20 186.64 Z M 173.18 186.47 L 174.16 186.31 C 175.17 186.14 175.85 185.19 175.68 184.18 C 175.51 183.17 174.56 182.50 173.55 182.66 L 172.57 182.83 C 171.56 183.00 170.88 183.95 171.05 184.96 C 171.22 185.96 172.18 186.64 173.18 186.47 Z M 174.16 186.31 L 175.14 186.15 C 176.14 185.98 176.82 185.03 176.66 184.02 C 176.49 183.02 175.54 182.34 174.53 182.50 L 173.56 182.66 C 172.55 182.83 171.87 183.78 172.04 184.79 C 172.20 185.79 173.15 186.48 174.16 186.31 Z M 175.13 186.15 L 176.11 185.99 C 177.12 185.83 177.80 184.88 177.64 183.87 C 177.47 182.87 176.53 182.18 175.52 182.34 L 174.54 182.50 C 173.53 182.66 172.85 183.61 173.01 184.62 C 173.18 185.63 174.12 186.31 175.13 186.15 Z M 176.10 185.99 L 177.11 185.83 C 178.12 185.67 178.80 184.73 178.65 183.72 C 178.49 182.72 177.54 182.03 176.54 182.19 L 175.53 182.34 C 174.52 182.50 173.83 183.45 173.99 184.45 C 174.15 185.46 175.09 186.15 176.10 185.99 Z M 177.10 185.83 L 178.10 185.68 C 179.11 185.53 179.80 184.59 179.65 183.58 C 179.50 182.57 178.56 181.88 177.55 182.03 L 176.55 182.18 C 175.54 182.34 174.85 183.28 175.00 184.28 C 175.15 185.29 176.09 185.98 177.10 185.83 Z M 178.09 185.68 L 179.09 185.53 C 180.10 185.39 180.79 184.45 180.65 183.44 C 180.50 182.44 179.56 181.74 178.55 181.89 L 177.56 182.03 C 176.55 182.18 175.85 183.12 176.00 184.12 C 176.15 185.13 177.09 185.83 178.09 185.68 Z M 179.08 185.53 L 180.07 185.40 C 181.07 185.25 181.78 184.32 181.63 183.31 C 181.49 182.31 180.56 181.60 179.55 181.75 L 178.56 181.89 C 177.56 182.03 176.85 182.96 177.00 183.97 C 177.14 184.98 178.07 185.68 179.08 185.53 Z M 180.06 185.40 L 181.04 185.26 C 182.05 185.13 182.75 184.20 182.61 183.19 C 182.48 182.18 181.55 181.48 180.54 181.61 L 179.56 181.75 C 178.55 181.88 177.85 182.81 177.98 183.82 C 178.12 184.83 179.05 185.53 180.06 185.40 Z M 181.03 185.26 L 182.00 185.14 C 183.01 185.00 183.72 184.08 183.58 183.07 C 183.45 182.06 182.53 181.35 181.52 181.49 L 180.55 181.61 C 179.54 181.74 178.83 182.67 178.96 183.68 C 179.10 184.68 180.02 185.39 181.03 185.26 Z M 181.99 185.14 L 183.00 185.01 C 184.01 184.88 184.72 183.96 184.60 182.95 C 184.47 181.95 183.55 181.23 182.54 181.36 L 181.53 181.48 C 180.52 181.61 179.81 182.53 179.93 183.54 C 180.06 184.55 180.98 185.26 181.99 185.14 Z M 182.99 185.01 L 184.02 184.89 C 185.03 184.76 185.75 183.85 185.63 182.84 C 185.51 181.83 184.59 181.11 183.58 181.23 L 182.55 181.36 C 181.54 181.48 180.82 182.39 180.94 183.40 C 181.07 184.41 181.98 185.13 182.99 185.01 Z M 184.01 184.89 L 185.03 184.77 C 186.04 184.65 186.76 183.74 186.65 182.73 C 186.53 181.72 185.62 181.00 184.61 181.11 L 183.59 181.23 C 182.58 181.35 181.86 182.26 181.97 183.27 C 182.09 184.28 183.00 185.00 184.01 184.89 Z M 185.02 184.77 L 186.01 184.66 C 187.02 184.55 187.75 183.64 187.64 182.63 C 187.53 181.62 186.62 180.89 185.61 181.00 L 184.62 181.11 C 183.61 181.22 182.88 182.13 182.99 183.14 C 183.10 184.15 184.01 184.88 185.02 184.77 Z M 186.01 184.66 L 186.98 184.56 C 187.99 184.46 188.72 183.55 188.62 182.54 C 188.51 181.53 187.61 180.80 186.60 180.90 L 185.62 181.00 C 184.61 181.11 183.88 182.01 183.98 183.02 C 184.09 184.04 184.99 184.77 186.01 184.66 Z M 186.97 184.56 L 187.92 184.47 C 188.93 184.37 189.67 183.47 189.57 182.45 C 189.47 181.44 188.57 180.70 187.56 180.81 L 186.61 180.90 C 185.59 181.00 184.86 181.90 184.96 182.91 C 185.06 183.93 185.96 184.66 186.97 184.56 Z M 187.91 184.47 L 188.86 184.38 C 189.87 184.28 190.62 183.39 190.52 182.37 C 190.43 181.36 189.53 180.62 188.52 180.71 L 187.56 180.80 C 186.55 180.90 185.81 181.80 185.91 182.81 C 186.00 183.82 186.90 184.57 187.91 184.47 Z M 188.85 184.38 L 189.80 184.30 C 190.82 184.21 191.56 183.31 191.47 182.30 C 191.39 181.29 190.49 180.54 189.48 180.63 L 188.53 180.71 C 187.51 180.80 186.77 181.70 186.85 182.71 C 186.94 183.72 187.84 184.47 188.85 184.38 Z M 189.79 184.30 L 190.74 184.22 C 191.76 184.14 192.51 183.25 192.43 182.24 C 192.35 181.22 191.46 180.47 190.45 180.55 L 189.49 180.63 C 188.48 180.71 187.72 181.60 187.81 182.61 C 187.89 183.62 188.78 184.38 189.79 184.30 Z M 190.73 184.22 L 191.70 184.15 C 192.72 184.08 193.48 183.19 193.41 182.18 C 193.33 181.17 192.45 180.40 191.44 180.48 L 190.46 180.55 C 189.45 180.62 188.68 181.50 188.76 182.52 C 188.83 183.53 189.71 184.30 190.73 184.22 Z M 191.69 184.15 L 192.71 184.09 C 193.73 184.02 194.50 183.15 194.43 182.13 C 194.37 181.12 193.49 180.35 192.47 180.41 L 191.45 180.48 C 190.44 180.54 189.67 181.42 189.73 182.43 C 189.80 183.45 190.67 184.22 191.69 184.15 Z M 192.69 184.09 L 193.78 184.03 C 194.80 183.97 195.57 183.10 195.52 182.09 C 195.46 181.07 194.59 180.29 193.58 180.35 L 192.49 180.41 C 191.47 180.47 190.70 181.34 190.75 182.35 C 190.81 183.37 191.68 184.14 192.69 184.09 Z M 193.77 184.03 L 194.74 183.98 C 195.75 183.93 196.54 183.07 196.49 182.05 C 196.44 181.04 195.57 180.25 194.56 180.30 L 193.59 180.35 C 192.57 180.40 191.79 181.26 191.84 182.28 C 191.89 183.29 192.75 184.08 193.77 184.03 Z M 194.72 183.98 L 195.71 183.94 C 196.73 183.90 197.52 183.04 197.48 182.02 C 197.43 181.01 196.58 180.22 195.56 180.26 L 194.57 180.30 C 193.55 180.34 192.77 181.20 192.81 182.22 C 192.85 183.23 193.71 184.02 194.72 183.98 Z M 195.70 183.94 L 196.72 183.90 C 197.73 183.87 198.53 183.02 198.50 182.00 C 198.46 180.99 197.61 180.19 196.59 180.23 L 195.58 180.26 C 194.56 180.29 193.76 181.15 193.80 182.16 C 193.83 183.18 194.68 183.97 195.70 183.94 Z M 196.70 183.90 L 197.73 183.88 C 198.75 183.86 199.55 183.01 199.53 182.00 C 199.50 180.98 198.66 180.18 197.64 180.20 L 196.61 180.23 C 195.60 180.25 194.79 181.09 194.82 182.11 C 194.84 183.13 195.68 183.93 196.70 183.90 Z M 197.71 183.88 L 198.74 183.87 C 199.75 183.85 200.57 183.02 200.55 182.00 C 200.54 180.99 199.71 180.18 198.69 180.19 L 197.66 180.20 C 196.65 180.22 195.84 181.05 195.85 182.06 C 195.86 183.08 196.70 183.89 197.71 183.88 Z M 198.71 183.87 L 199.72 183.87 C 200.74 183.87 201.56 183.04 201.56 182.03 C 201.56 181.02 200.74 180.19 199.73 180.19 L 198.72 180.19 C 197.70 180.19 196.88 181.01 196.88 182.03 C 196.88 183.04 197.70 183.86 198.71 183.87 Z M 199.69 183.86 L 200.66 183.88 C 201.68 183.90 202.52 183.09 202.53 182.08 C 202.55 181.06 201.74 180.23 200.73 180.21 L 199.76 180.19 C 198.74 180.17 197.91 180.98 197.89 182.00 C 197.87 183.01 198.68 183.85 199.69 183.86 Z M 200.62 183.88 L 201.79 183.93 C 202.81 183.97 203.66 183.18 203.70 182.17 C 203.75 181.16 202.96 180.31 201.95 180.26 L 200.77 180.21 C 199.76 180.17 198.91 180.96 198.87 181.97 C 198.82 182.98 199.61 183.83 200.62 183.88 Z M 201.73 183.92 L 202.84 184.01 C 203.85 184.09 204.73 183.34 204.81 182.33 C 204.89 181.32 204.14 180.44 203.13 180.36 L 202.02 180.27 C 201.01 180.19 200.13 180.94 200.05 181.95 C 199.97 182.96 200.72 183.84 201.73 183.92 Z M 202.75 183.99 L 203.76 184.13 C 204.76 184.26 205.68 183.55 205.81 182.56 C 205.94 181.56 205.24 180.64 204.24 180.51 L 203.22 180.38 C 202.23 180.24 201.31 180.95 201.18 181.95 C 201.05 182.94 201.75 183.86 202.75 183.99 Z M 203.64 184.10 L 204.55 184.28 C 205.53 184.48 206.49 183.85 206.69 182.86 C 206.89 181.88 206.26 180.92 205.27 180.72 L 204.36 180.54 C 203.38 180.34 202.42 180.97 202.22 181.96 C 202.02 182.94 202.66 183.90 203.64 184.10 Z M 204.39 184.24 L 205.19 184.48 C 206.15 184.77 207.16 184.23 207.45 183.27 C 207.74 182.31 207.20 181.30 206.24 181.01 L 205.43 180.77 C 204.48 180.48 203.46 181.02 203.18 181.98 C 202.89 182.94 203.43 183.95 204.39 184.24 Z M 204.94 184.37 L 205.87 184.81 C 206.77 185.24 207.84 184.86 208.27 183.96 C 208.70 183.06 208.32 181.99 207.42 181.56 L 206.49 181.12 C 205.59 180.69 204.51 181.07 204.09 181.97 C 203.66 182.87 204.04 183.94 204.94 184.37 Z M 205.47 184.53 L 206.25 185.21 C 206.99 185.86 208.11 185.79 208.76 185.05 C 209.41 184.31 209.34 183.18 208.60 182.53 L 207.82 181.85 C 207.08 181.20 205.95 181.27 205.30 182.01 C 204.65 182.75 204.73 183.88 205.47 184.53 Z M 205.79 184.52 L 206.11 185.33 C 206.47 186.23 207.50 186.67 208.40 186.31 C 209.30 185.96 209.74 184.93 209.38 184.03 L 209.06 183.22 C 208.70 182.32 207.67 181.88 206.77 182.24 C 205.87 182.60 205.43 183.62 205.79 184.52 Z M 206.05 184.33 L 205.89 185.13 C 205.69 186.07 206.30 186.98 207.23 187.17 C 208.17 187.37 209.08 186.77 209.28 185.83 L 209.44 185.03 C 209.63 184.10 209.03 183.18 208.10 182.99 C 207.16 182.79 206.25 183.40 206.05 184.33 Z M 206.17 184.56 L 205.70 185.27 C 205.19 186.05 205.41 187.10 206.19 187.61 C 206.98 188.12 208.02 187.90 208.53 187.12 L 209.00 186.40 C 209.51 185.62 209.29 184.57 208.51 184.06 C 207.72 183.56 206.68 183.78 206.17 184.56 Z M 205.91 185.08 L 205.23 185.81 C 204.61 186.48 204.65 187.52 205.31 188.14 C 205.98 188.76 207.02 188.72 207.64 188.05 L 208.32 187.31 C 208.94 186.65 208.90 185.61 208.24 184.99 C 207.57 184.37 206.53 184.41 205.91 185.08 Z M 205.35 185.75 L 204.53 186.50 C 203.88 187.10 203.83 188.11 204.43 188.77 C 205.03 189.42 206.04 189.46 206.69 188.87 L 207.51 188.11 C 208.17 187.52 208.21 186.50 207.61 185.85 C 207.02 185.20 206.00 185.15 205.35 185.75 Z M 204.59 186.50 L 203.94 187.06 C 203.29 187.63 203.22 188.61 203.78 189.27 C 204.34 189.92 205.33 189.99 205.98 189.43 L 206.63 188.87 C 207.28 188.30 207.36 187.32 206.79 186.66 C 206.23 186.01 205.24 185.94 204.59 186.50 Z"
      fill="black"
      fill-rule="nonzero" /></svg>