<svg xmlns="http://www.w3.org/2000/svg" width="300" height="300" viewBox="0 0 300 300">
<path d="M 134.82 120.28 L 133.40 120.19 C 132.47 120.13 131.66 120.83 131.60 121.77 C 131.54 122.70 132.25 123.51 133.19 123.57 L 134.61 123.66 C 135.54 123.72 136.35 123.01 136.41 122.07 C 136.47 121.14 135.76 120.34 134.82 120.28 Z M 133.42 120.18 L 132.47 120.10 C 131.53 120.03 130.71 120.74 130.64 121.67 C 130.57 122.61 131.27 123.43 132.21 123.50 L 133.17 123.57 C 134.10 123.65 134.92 122.94 134.99 122.01 C 135.07 121.07 134.36 120.25 133.42 120.18 Z M 133.18 120.31 L 133.11 120.27 C 132.28 119.81 131.24 120.10 130.78 120.93 C 130.32 121.75 130.61 122.80 131.43 123.26 L 131.50 123.30 C 132.32 123.76 133.37 123.47 133.83 122.64 C 134.29 121.82 134.00 120.77 133.18 120.31 Z M 132.28 123.48 L 132.86 123.48 C 133.81 123.47 134.57 122.70 134.57 121.76 C 134.56 120.81 133.79 120.04 132.84 120.05 L 132.26 120.05 C 131.32 120.06 130.55 120.83 130.56 121.77 C 130.56 122.72 131.33 123.48 132.28 123.48 Z M 132.83 123.48 L 133.81 123.49 C 134.75 123.50 135.53 122.74 135.54 121.79 C 135.55 120.85 134.79 120.07 133.85 120.06 L 132.87 120.05 C 131.92 120.04 131.15 120.80 131.14 121.74 C 131.13 122.69 131.88 123.47 132.83 123.48 Z M 133.80 123.49 L 135.03 123.51 C 135.97 123.52 136.75 122.76 136.76 121.82 C 136.78 120.87 136.02 120.09 135.08 120.08 L 133.85 120.06 C 132.91 120.05 132.13 120.80 132.12 121.75 C 132.10 122.69 132.86 123.47 133.80 123.49 Z M 135.03 123.50 L 136.34 123.52 C 137.29 123.54 138.07 122.78 138.08 121.83 C 138.09 120.89 137.34 120.11 136.39 120.10 L 135.07 120.08 C 134.13 120.07 133.35 120.82 133.34 121.77 C 133.33 122.71 134.08 123.49 135.03 123.50 Z M 136.35 123.52 L 137.43 123.53 C 138.37 123.54 139.14 122.78 139.15 121.84 C 139.16 120.90 138.40 120.12 137.46 120.11 L 136.38 120.10 C 135.44 120.09 134.67 120.85 134.66 121.79 C 134.65 122.74 135.41 123.51 136.35 123.52 Z M 137.43 123.52 L 138.45 123.53 C 139.39 123.53 140.15 122.78 140.16 121.84 C 140.17 120.90 139.41 120.14 138.47 120.13 L 137.46 120.12 C 136.52 120.12 135.75 120.87 135.75 121.81 C 135.74 122.75 136.50 123.51 137.43 123.52 Z M 138.46 123.52 L 139.45 123.52 C 140.38 123.52 141.14 122.77 141.14 121.84 C 141.15 120.91 140.39 120.15 139.46 120.14 L 138.47 120.14 C 137.54 120.14 136.78 120.89 136.77 121.82 C 136.77 122.76 137.52 123.51 138.46 123.52 Z M 139.45 123.51 L 140.43 123.51 C 141.35 123.51 142.11 122.76 142.11 121.84 C 142.11 120.91 141.36 120.16 140.43 120.16 L 139.46 120.15 C 138.53 120.15 137.78 120.90 137.78 121.83 C 137.77 122.76 138.52 123.51 139.45 123.51 Z M 140.43 123.50 L 141.40 123.50 C 142.32 123.50 143.07 122.76 143.07 121.83 C 143.07 120.91 142.32 120.17 141.40 120.17 L 140.43 120.16 C 139.51 120.16 138.76 120.91 138.76 121.83 C 138.76 122.76 139.51 123.50 140.43 123.50 Z M 141.40 123.49 L 142.38 123.49 C 143.29 123.49 144.04 122.75 144.04 121.83 C 144.03 120.92 143.29 120.17 142.38 120.17 L 141.40 120.18 C 140.48 120.18 139.74 120.92 139.74 121.84 C 139.74 122.75 140.48 123.49 141.40 123.49 Z M 142.39 123.48 L 143.37 123.48 C 144.28 123.47 145.02 122.73 145.01 121.82 C 145.01 120.91 144.26 120.17 143.35 120.18 L 142.37 120.18 C 141.46 120.19 140.72 120.93 140.73 121.84 C 140.73 122.75 141.47 123.49 142.39 123.48 Z M 143.39 123.47 L 144.39 123.45 C 145.29 123.43 146.01 122.69 146.00 121.78 C 145.98 120.88 145.23 120.16 144.33 120.17 L 143.33 120.19 C 142.43 120.21 141.71 120.95 141.72 121.86 C 141.74 122.76 142.49 123.48 143.39 123.47 Z M 144.42 123.44 L 145.42 123.40 C 146.32 123.37 147.02 122.62 146.99 121.72 C 146.96 120.82 146.20 120.12 145.31 120.15 L 144.30 120.18 C 143.40 120.22 142.70 120.97 142.73 121.87 C 142.76 122.77 143.52 123.47 144.42 123.44 Z M 145.46 123.39 L 146.48 123.33 C 147.37 123.28 148.05 122.51 147.99 121.62 C 147.94 120.72 147.17 120.04 146.28 120.10 L 145.27 120.16 C 144.37 120.21 143.69 120.98 143.75 121.87 C 143.80 122.76 144.57 123.44 145.46 123.39 Z M 146.52 123.31 L 147.52 123.23 C 148.40 123.15 149.05 122.36 148.97 121.48 C 148.89 120.60 148.11 119.94 147.23 120.02 L 146.24 120.11 C 145.35 120.19 144.70 120.97 144.78 121.86 C 144.86 122.74 145.64 123.39 146.52 123.31 Z M 147.56 123.21 L 148.54 123.09 C 149.41 122.99 150.04 122.20 149.93 121.32 C 149.83 120.45 149.04 119.82 148.16 119.93 L 147.18 120.04 C 146.31 120.15 145.69 120.94 145.79 121.81 C 145.89 122.69 146.68 123.31 147.56 123.21 Z M 148.57 123.07 L 149.56 122.93 C 150.42 122.81 151.02 122.01 150.90 121.15 C 150.78 120.29 149.98 119.68 149.11 119.81 L 148.13 119.94 C 147.27 120.07 146.66 120.87 146.79 121.73 C 146.91 122.59 147.71 123.20 148.57 123.07 Z M 149.58 122.92 L 150.57 122.76 C 151.43 122.62 152.01 121.82 151.87 120.97 C 151.74 120.11 150.94 119.53 150.08 119.67 L 149.09 119.82 C 148.24 119.96 147.65 120.76 147.79 121.62 C 147.92 122.47 148.73 123.05 149.58 122.92 Z M 150.59 122.74 L 151.59 122.57 C 152.43 122.43 153.00 121.63 152.85 120.78 C 152.71 119.94 151.91 119.37 151.06 119.51 L 150.07 119.68 C 149.22 119.83 148.65 120.63 148.80 121.47 C 148.94 122.32 149.74 122.89 150.59 122.74 Z M 151.60 122.56 L 152.60 122.38 C 153.43 122.23 153.99 121.43 153.84 120.59 C 153.69 119.76 152.89 119.20 152.06 119.35 L 151.05 119.53 C 150.22 119.68 149.66 120.48 149.81 121.31 C 149.96 122.15 150.76 122.71 151.60 122.56 Z M 152.60 122.36 L 153.59 122.18 C 154.42 122.03 154.97 121.24 154.82 120.41 C 154.67 119.58 153.88 119.03 153.05 119.18 L 152.05 119.36 C 151.22 119.51 150.68 120.31 150.83 121.14 C 150.98 121.97 151.77 122.51 152.60 122.36 Z M 153.59 122.17 L 154.59 121.99 C 155.41 121.84 155.95 121.05 155.80 120.22 C 155.65 119.40 154.86 118.86 154.04 119.01 L 153.05 119.19 C 152.22 119.35 151.68 120.13 151.83 120.96 C 151.98 121.78 152.77 122.32 153.59 122.17 Z M 154.59 121.98 L 155.58 121.79 C 156.39 121.64 156.93 120.86 156.78 120.04 C 156.63 119.23 155.85 118.69 155.03 118.84 L 154.04 119.02 C 153.23 119.17 152.69 119.96 152.84 120.77 C 152.99 121.59 153.77 122.13 154.59 121.98 Z M 155.57 121.78 L 156.55 121.60 C 157.36 121.45 157.90 120.68 157.75 119.87 C 157.60 119.06 156.83 118.52 156.02 118.67 L 155.04 118.85 C 154.23 119.00 153.69 119.77 153.84 120.58 C 153.99 121.39 154.76 121.93 155.57 121.78 Z M 156.55 121.59 L 157.52 121.42 C 158.32 121.27 158.85 120.51 158.71 119.70 C 158.57 118.90 157.80 118.36 156.99 118.51 L 156.02 118.68 C 155.22 118.83 154.69 119.59 154.83 120.40 C 154.97 121.20 155.74 121.74 156.55 121.59 Z M 157.51 121.41 L 158.52 121.23 C 159.31 121.09 159.85 120.33 159.71 119.54 C 159.57 118.74 158.81 118.20 158.01 118.34 L 157.00 118.52 C 156.20 118.66 155.67 119.42 155.81 120.21 C 155.95 121.01 156.71 121.55 157.51 121.41 Z M 158.51 121.23 L 159.53 121.05 C 160.33 120.92 160.86 120.17 160.73 119.37 C 160.59 118.58 159.84 118.04 159.05 118.18 L 158.02 118.35 C 157.23 118.48 156.69 119.23 156.82 120.03 C 156.96 120.82 157.71 121.36 158.51 121.23 Z M 159.52 121.05 L 160.52 120.89 C 161.31 120.76 161.85 120.01 161.72 119.22 C 161.60 118.43 160.85 117.89 160.06 118.02 L 159.06 118.18 C 158.26 118.31 157.73 119.05 157.85 119.85 C 157.98 120.64 158.73 121.18 159.52 121.05 Z M 160.51 120.88 L 161.49 120.73 C 162.27 120.61 162.82 119.87 162.69 119.08 C 162.57 118.29 161.83 117.75 161.04 117.87 L 160.07 118.02 C 159.28 118.15 158.74 118.89 158.86 119.68 C 158.98 120.46 159.72 121.00 160.51 120.88 Z M 161.48 120.73 L 162.42 120.58 C 163.21 120.47 163.75 119.73 163.63 118.95 C 163.52 118.16 162.78 117.62 162.00 117.74 L 161.05 117.88 C 160.27 118.00 159.72 118.73 159.84 119.51 C 159.96 120.30 160.69 120.84 161.48 120.73 Z M 162.41 120.58 L 163.40 120.44 C 164.18 120.33 164.73 119.60 164.62 118.82 C 164.51 118.03 163.78 117.49 163.00 117.60 L 162.01 117.74 C 161.22 117.85 160.68 118.58 160.79 119.36 C 160.90 120.15 161.63 120.69 162.41 120.58 Z M 163.39 120.44 L 164.40 120.30 C 165.19 120.19 165.74 119.47 165.63 118.69 C 165.52 117.91 164.80 117.36 164.02 117.46 L 163.01 117.60 C 162.22 117.71 161.67 118.43 161.78 119.21 C 161.89 120.00 162.61 120.54 163.39 120.44 Z M 164.40 120.30 L 165.38 120.17 C 166.17 120.07 166.72 119.35 166.62 118.57 C 166.51 117.79 165.80 117.23 165.01 117.34 L 164.03 117.47 C 163.24 117.57 162.69 118.28 162.79 119.07 C 162.90 119.85 163.61 120.40 164.40 120.30 Z M 165.38 120.17 L 166.35 120.05 C 167.13 119.95 167.69 119.23 167.59 118.45 C 167.49 117.67 166.77 117.11 165.99 117.21 L 165.02 117.34 C 164.24 117.44 163.68 118.15 163.78 118.93 C 163.88 119.72 164.60 120.27 165.38 120.17 Z M 166.35 120.05 L 167.17 119.94 C 167.95 119.84 168.51 119.13 168.41 118.35 C 168.31 117.57 167.60 117.01 166.82 117.11 L 165.99 117.22 C 165.21 117.31 164.66 118.03 164.76 118.81 C 164.85 119.59 165.57 120.14 166.35 120.05 Z"
      fill="black"
      fill-rule="nonzero" /><path d="M 138.54 141.42 L 137.20 141.31 C 136.32 141.24 135.56 141.89 135.49 142.77 C 135.42 143.64 136.07 144.41 136.94 144.48 L 138.29 144.58 C 139.17 144.65 139.93 144.00 140.00 143.13 C 140.07 142.25 139.42 141.49 138.54 141.42 Z M 137.34 141.32 L 136.39 141.16 C 135.52 141.00 134.69 141.59 134.54 142.45 C 134.39 143.32 134.97 144.15 135.84 144.30 L 136.80 144.46 C 137.66 144.62 138.49 144.03 138.64 143.17 C 138.79 142.30 138.21 141.47 137.34 141.32 Z M 137.39 141.77 L 137.20 141.51 C 136.67 140.80 135.67 140.65 134.96 141.18 C 134.25 141.71 134.10 142.71 134.63 143.42 L 134.83 143.68 C 135.36 144.39 136.36 144.54 137.07 144.01 C 137.78 143.48 137.92 142.48 137.39 141.77 Z M 136.80 143.80 L 137.29 143.48 C 138.03 142.99 138.23 141.99 137.75 141.25 C 137.26 140.51 136.26 140.31 135.52 140.80 L 135.03 141.12 C 134.29 141.61 134.09 142.61 134.58 143.35 C 135.07 144.09 136.06 144.29 136.80 143.80 Z M 137.03 143.62 L 138.01 143.21 C 138.83 142.87 139.21 141.93 138.87 141.11 C 138.53 140.29 137.59 139.90 136.77 140.24 L 135.79 140.65 C 134.97 141.00 134.58 141.94 134.92 142.76 C 135.26 143.58 136.21 143.96 137.03 143.62 Z M 137.93 143.25 L 139.27 142.77 C 140.11 142.46 140.54 141.54 140.24 140.70 C 139.94 139.87 139.02 139.43 138.18 139.73 L 136.84 140.21 C 136.00 140.51 135.57 141.44 135.87 142.27 C 136.17 143.11 137.09 143.55 137.93 143.25 Z M 139.25 142.77 L 140.22 142.44 C 141.06 142.15 141.51 141.23 141.22 140.39 C 140.93 139.55 140.01 139.10 139.17 139.39 L 138.20 139.72 C 137.36 140.01 136.91 140.93 137.20 141.77 C 137.49 142.62 138.41 143.07 139.25 142.77 Z M 140.21 142.44 L 141.14 142.13 C 141.98 141.84 142.43 140.92 142.14 140.08 C 141.86 139.24 140.94 138.78 140.09 139.07 L 139.17 139.39 C 138.33 139.68 137.88 140.59 138.17 141.44 C 138.45 142.28 139.37 142.73 140.21 142.44 Z M 141.13 142.13 L 142.09 141.80 C 142.94 141.51 143.39 140.60 143.10 139.76 C 142.81 138.91 141.90 138.46 141.05 138.75 L 140.10 139.07 C 139.25 139.36 138.80 140.28 139.09 141.12 C 139.38 141.96 140.29 142.41 141.13 142.13 Z M 142.09 141.80 L 143.07 141.47 C 143.91 141.18 144.36 140.27 144.07 139.42 C 143.79 138.58 142.87 138.13 142.03 138.42 L 141.05 138.75 C 140.21 139.04 139.76 139.95 140.05 140.79 C 140.33 141.64 141.25 142.09 142.09 141.80 Z M 143.07 141.47 L 144.04 141.13 C 144.89 140.85 145.34 139.93 145.05 139.09 C 144.76 138.25 143.84 137.80 143.00 138.09 L 142.03 138.42 C 141.19 138.71 140.74 139.62 141.02 140.46 C 141.31 141.31 142.23 141.75 143.07 141.47 Z M 144.05 141.13 L 145.01 140.80 C 145.85 140.51 146.29 139.59 146.00 138.75 C 145.71 137.91 144.80 137.47 143.96 137.76 L 143.00 138.09 C 142.16 138.38 141.71 139.29 142.00 140.13 C 142.29 140.97 143.21 141.42 144.05 141.13 Z M 145.01 140.79 L 146.01 140.44 C 146.85 140.15 147.29 139.23 146.99 138.40 C 146.70 137.56 145.78 137.12 144.95 137.41 L 143.95 137.76 C 143.11 138.06 142.67 138.97 142.97 139.81 C 143.26 140.65 144.18 141.09 145.01 140.79 Z M 146.01 140.44 L 146.99 140.09 C 147.82 139.79 148.26 138.88 147.96 138.05 C 147.66 137.21 146.75 136.78 145.92 137.08 L 144.94 137.42 C 144.11 137.72 143.67 138.63 143.97 139.46 C 144.27 140.30 145.18 140.73 146.01 140.44 Z M 146.99 140.08 L 147.94 139.74 C 148.76 139.44 149.19 138.53 148.90 137.70 C 148.60 136.88 147.69 136.45 146.86 136.74 L 145.91 137.08 C 145.09 137.38 144.66 138.29 144.96 139.12 C 145.25 139.95 146.16 140.38 146.99 140.08 Z M 147.94 139.73 L 148.86 139.40 C 149.68 139.10 150.11 138.19 149.81 137.37 C 149.51 136.55 148.60 136.12 147.78 136.42 L 146.86 136.75 C 146.04 137.05 145.61 137.96 145.91 138.78 C 146.21 139.60 147.11 140.03 147.94 139.73 Z M 148.86 139.39 L 149.76 139.06 C 150.58 138.77 151.00 137.86 150.71 137.04 C 150.41 136.23 149.51 135.80 148.69 136.10 L 147.78 136.43 C 146.96 136.72 146.54 137.63 146.84 138.45 C 147.13 139.26 148.04 139.69 148.86 139.39 Z M 149.76 139.06 L 150.67 138.73 C 151.48 138.43 151.90 137.54 151.61 136.72 C 151.31 135.91 150.42 135.48 149.60 135.78 L 148.69 136.11 C 147.88 136.40 147.45 137.30 147.75 138.11 C 148.04 138.93 148.94 139.35 149.76 139.06 Z M 150.66 138.72 L 151.61 138.38 C 152.42 138.09 152.84 137.20 152.55 136.39 C 152.26 135.58 151.37 135.15 150.56 135.44 L 149.61 135.78 C 148.80 136.08 148.37 136.97 148.67 137.78 C 148.96 138.59 149.85 139.01 150.66 138.72 Z M 151.61 138.37 L 152.55 138.03 C 153.36 137.75 153.78 136.86 153.49 136.05 C 153.20 135.25 152.31 134.83 151.51 135.11 L 150.56 135.45 C 149.76 135.74 149.34 136.63 149.62 137.43 C 149.91 138.24 150.80 138.66 151.61 138.37 Z M 152.55 138.03 L 153.49 137.69 C 154.29 137.40 154.71 136.52 154.42 135.72 C 154.13 134.92 153.25 134.50 152.45 134.79 L 151.51 135.12 C 150.71 135.41 150.29 136.29 150.58 137.09 C 150.86 137.90 151.75 138.31 152.55 138.03 Z M 153.49 137.68 L 154.42 137.34 C 155.22 137.05 155.63 136.17 155.34 135.38 C 155.06 134.58 154.18 134.17 153.38 134.46 L 152.45 134.80 C 151.65 135.08 151.24 135.96 151.53 136.76 C 151.82 137.55 152.69 137.97 153.49 137.68 Z M 154.43 137.33 L 155.36 136.99 C 156.15 136.70 156.55 135.82 156.26 135.03 C 155.97 134.24 155.10 133.84 154.31 134.13 L 153.38 134.47 C 152.59 134.76 152.18 135.63 152.47 136.42 C 152.76 137.21 153.64 137.62 154.43 137.33 Z M 155.36 136.98 L 156.31 136.62 C 157.09 136.33 157.49 135.46 157.20 134.68 C 156.90 133.89 156.03 133.50 155.25 133.79 L 154.31 134.14 C 153.52 134.43 153.12 135.30 153.42 136.09 C 153.71 136.87 154.58 137.27 155.36 136.98 Z M 156.31 136.61 L 157.25 136.26 C 158.02 135.97 158.42 135.10 158.12 134.32 C 157.83 133.55 156.96 133.15 156.19 133.45 L 155.25 133.80 C 154.47 134.09 154.08 134.96 154.37 135.74 C 154.66 136.51 155.53 136.91 156.31 136.61 Z M 157.24 136.25 L 158.18 135.90 C 158.95 135.61 159.34 134.74 159.05 133.97 C 158.76 133.20 157.90 132.81 157.13 133.10 L 156.19 133.46 C 155.42 133.75 155.03 134.61 155.32 135.38 C 155.61 136.15 156.47 136.54 157.24 136.25 Z M 158.17 135.89 L 159.10 135.54 C 159.87 135.25 160.26 134.40 159.97 133.63 C 159.69 132.86 158.83 132.48 158.07 132.76 L 157.13 133.11 C 156.37 133.40 155.98 134.25 156.26 135.02 C 156.55 135.79 157.40 136.17 158.17 135.89 Z M 159.09 135.53 L 160.03 135.19 C 160.79 134.91 161.18 134.07 160.90 133.30 C 160.62 132.54 159.78 132.15 159.01 132.43 L 158.08 132.77 C 157.32 133.05 156.92 133.89 157.20 134.66 C 157.48 135.42 158.33 135.81 159.09 135.53 Z M 160.01 135.19 L 161.01 134.83 C 161.77 134.56 162.17 133.72 161.89 132.96 C 161.62 132.20 160.79 131.80 160.02 132.07 L 159.03 132.43 C 158.27 132.70 157.87 133.54 158.14 134.30 C 158.41 135.06 159.25 135.46 160.01 135.19 Z M 161.00 134.83 L 161.98 134.48 C 162.74 134.22 163.14 133.39 162.88 132.63 C 162.61 131.87 161.78 131.47 161.02 131.73 L 160.04 132.08 C 159.28 132.34 158.88 133.17 159.14 133.93 C 159.41 134.69 160.24 135.09 161.00 134.83 Z M 161.98 134.48 L 162.93 134.15 C 163.69 133.89 164.09 133.06 163.83 132.30 C 163.57 131.55 162.74 131.15 161.99 131.41 L 161.03 131.74 C 160.27 132.00 159.87 132.83 160.13 133.58 C 160.39 134.34 161.22 134.74 161.98 134.48 Z M 162.93 134.14 L 163.84 133.83 C 164.59 133.57 164.99 132.74 164.73 131.99 C 164.47 131.24 163.65 130.84 162.90 131.10 L 161.99 131.42 C 161.23 131.68 160.84 132.50 161.10 133.25 C 161.36 134.00 162.18 134.40 162.93 134.14 Z M 163.85 133.82 L 164.74 133.50 C 165.49 133.24 165.88 132.42 165.62 131.67 C 165.35 130.92 164.53 130.53 163.79 130.79 L 162.89 131.11 C 162.14 131.37 161.75 132.19 162.01 132.94 C 162.28 133.69 163.10 134.08 163.85 133.82 Z M 164.76 133.49 L 165.77 133.12 C 166.51 132.85 166.89 132.03 166.62 131.28 C 166.35 130.54 165.53 130.16 164.79 130.43 L 163.77 130.80 C 163.03 131.07 162.65 131.90 162.92 132.64 C 163.19 133.38 164.01 133.76 164.76 133.49 Z M 165.78 133.11 L 166.71 132.76 C 167.45 132.48 167.82 131.66 167.54 130.92 C 167.26 130.18 166.43 129.81 165.69 130.09 L 164.77 130.44 C 164.03 130.72 163.66 131.54 163.94 132.28 C 164.22 133.02 165.05 133.39 165.78 133.11 Z M 166.72 132.76 L 167.59 132.42 C 168.32 132.13 168.69 131.31 168.40 130.57 C 168.12 129.84 167.29 129.47 166.56 129.76 L 165.68 130.09 C 164.95 130.38 164.59 131.21 164.87 131.94 C 165.16 132.68 165.98 133.04 166.72 132.76 Z M 167.59 132.41 L 167.91 132.29 C 168.64 132.00 169.01 131.18 168.72 130.44 C 168.43 129.71 167.60 129.35 166.87 129.63 L 166.55 129.76 C 165.82 130.05 165.46 130.87 165.74 131.61 C 166.03 132.34 166.86 132.70 167.59 132.41 Z"
      fill="black"
      fill-rule="nonzero" /><path d="M 149.21 127.19 L 148.12 127.24 C 147.28 127.27 146.62 127.98 146.65 128.82 C 146.69 129.66 147.40 130.31 148.24 130.28 L 149.33 130.24 C 150.17 130.20 150.82 129.49 150.79 128.65 C 150.75 127.81 150.05 127.16 149.21 127.19 Z M 148.01 127.23 L 146.98 127.34 C 146.13 127.43 145.52 128.19 145.61 129.03 C 145.70 129.88 146.46 130.49 147.31 130.40 L 148.34 130.29 C 149.19 130.20 149.80 129.44 149.71 128.59 C 149.62 127.75 148.86 127.13 148.01 127.23 Z M 146.74 127.36 L 145.81 127.61 C 144.98 127.83 144.49 128.68 144.71 129.51 C 144.93 130.35 145.78 130.84 146.61 130.62 L 147.54 130.37 C 148.37 130.15 148.87 129.30 148.65 128.47 C 148.43 127.64 147.57 127.14 146.74 127.36 Z M 145.42 127.76 L 144.65 128.20 C 143.90 128.64 143.65 129.61 144.09 130.36 C 144.53 131.11 145.49 131.36 146.24 130.92 L 147.01 130.47 C 147.76 130.03 148.01 129.07 147.57 128.32 C 147.13 127.57 146.17 127.32 145.42 127.76 Z M 144.21 128.56 L 143.68 129.22 C 143.12 129.90 143.23 130.90 143.91 131.46 C 144.59 132.01 145.59 131.91 146.14 131.23 L 146.68 130.57 C 147.23 129.89 147.13 128.88 146.45 128.33 C 145.77 127.78 144.77 127.88 144.21 128.56 Z M 143.44 129.59 L 143.07 130.44 C 142.72 131.25 143.09 132.20 143.90 132.55 C 144.72 132.90 145.66 132.52 146.01 131.71 L 146.38 130.86 C 146.73 130.05 146.36 129.11 145.54 128.75 C 144.73 128.40 143.79 128.78 143.44 129.59 Z M 142.97 130.70 L 142.73 131.70 C 142.52 132.56 143.06 133.43 143.92 133.64 C 144.79 133.85 145.66 133.32 145.87 132.45 L 146.11 131.46 C 146.32 130.59 145.78 129.72 144.92 129.51 C 144.05 129.30 143.18 129.84 142.97 130.70 Z M 142.69 131.86 L 142.54 132.95 C 142.42 133.84 143.05 134.65 143.93 134.77 C 144.82 134.89 145.64 134.27 145.76 133.38 L 145.91 132.29 C 146.03 131.41 145.41 130.59 144.52 130.47 C 143.63 130.35 142.81 130.97 142.69 131.86 Z M 142.53 133.04 L 142.44 134.12 C 142.37 135.02 143.04 135.80 143.93 135.87 C 144.83 135.95 145.62 135.28 145.69 134.38 L 145.78 133.30 C 145.85 132.40 145.18 131.61 144.28 131.54 C 143.38 131.47 142.60 132.14 142.53 133.04 Z M 142.43 134.17 L 142.38 135.22 C 142.34 136.12 143.03 136.89 143.93 136.93 C 144.84 136.98 145.60 136.28 145.65 135.38 L 145.70 134.33 C 145.74 133.43 145.04 132.66 144.14 132.62 C 143.24 132.57 142.48 133.27 142.43 134.17 Z M 142.38 135.26 L 142.35 136.29 C 142.33 137.19 143.04 137.94 143.94 137.96 C 144.85 137.99 145.60 137.27 145.62 136.37 L 145.65 135.34 C 145.67 134.44 144.96 133.69 144.06 133.67 C 143.15 133.64 142.40 134.36 142.38 135.26 Z M 142.35 136.31 L 142.34 137.29 C 142.33 138.20 143.06 138.94 143.96 138.95 C 144.86 138.96 145.60 138.23 145.61 137.33 L 145.62 136.35 C 145.63 135.44 144.91 134.70 144.00 134.69 C 143.10 134.68 142.36 135.41 142.35 136.31 Z M 142.34 137.31 L 142.34 138.22 C 142.34 139.13 143.07 139.86 143.97 139.86 C 144.88 139.87 145.61 139.13 145.61 138.23 L 145.61 137.31 C 145.61 136.41 144.88 135.68 143.98 135.68 C 143.08 135.67 142.34 136.40 142.34 137.31 Z M 142.34 138.23 L 142.34 139.31 C 142.34 140.21 143.07 140.94 143.98 140.94 C 144.88 140.94 145.61 140.21 145.61 139.30 L 145.61 138.23 C 145.61 137.32 144.88 136.59 143.97 136.59 C 143.07 136.59 142.34 137.32 142.34 138.23 Z M 142.34 139.31 L 142.34 140.31 C 142.35 141.21 143.08 141.94 143.98 141.94 C 144.89 141.93 145.62 141.20 145.61 140.29 L 145.61 139.30 C 145.61 138.40 144.87 137.67 143.97 137.67 C 143.07 137.67 142.34 138.41 142.34 139.31 Z M 142.34 140.32 L 142.35 141.26 C 142.36 142.16 143.10 142.89 144.00 142.88 C 144.91 142.87 145.63 142.13 145.62 141.23 L 145.61 140.28 C 145.61 139.38 144.87 138.66 143.96 138.66 C 143.06 138.67 142.33 139.41 142.34 140.32 Z M 142.35 141.28 L 142.37 142.22 C 142.39 143.13 143.14 143.84 144.04 143.83 C 144.94 143.81 145.66 143.06 145.64 142.16 L 145.62 141.21 C 145.61 140.31 144.86 139.59 143.96 139.61 C 143.05 139.63 142.34 140.37 142.35 141.28 Z M 142.37 142.24 L 142.40 143.22 C 142.43 144.12 143.19 144.83 144.09 144.80 C 144.99 144.77 145.70 144.01 145.67 143.11 L 145.64 142.14 C 145.61 141.24 144.86 140.53 143.95 140.56 C 143.05 140.59 142.34 141.34 142.37 142.24 Z M 142.41 143.25 L 142.46 144.25 C 142.50 145.16 143.27 145.85 144.17 145.80 C 145.07 145.76 145.77 144.99 145.72 144.09 L 145.67 143.08 C 145.62 142.18 144.86 141.49 143.96 141.53 C 143.05 141.58 142.36 142.35 142.41 143.25 Z M 142.46 144.29 L 142.54 145.33 C 142.60 146.23 143.39 146.90 144.29 146.84 C 145.19 146.77 145.86 145.99 145.79 145.09 L 145.72 144.05 C 145.65 143.15 144.87 142.48 143.97 142.54 C 143.07 142.61 142.39 143.39 142.46 144.29 Z M 142.54 145.37 L 142.64 146.35 C 142.73 147.24 143.53 147.90 144.42 147.81 C 145.32 147.72 145.98 146.92 145.89 146.02 L 145.79 145.05 C 145.70 144.15 144.90 143.49 144.00 143.58 C 143.11 143.67 142.45 144.47 142.54 145.37 Z M 142.64 146.38 L 142.76 147.36 C 142.87 148.26 143.68 148.90 144.57 148.79 C 145.47 148.69 146.11 147.87 146.00 146.98 L 145.88 145.99 C 145.78 145.10 144.97 144.46 144.07 144.56 C 143.18 144.67 142.54 145.48 142.64 146.38 Z M 142.76 147.38 L 142.89 148.38 C 143.01 149.28 143.83 149.90 144.72 149.79 C 145.61 149.67 146.24 148.85 146.13 147.96 L 146.00 146.96 C 145.88 146.07 145.06 145.44 144.17 145.55 C 143.28 145.67 142.65 146.49 142.76 147.38 Z M 142.90 148.39 L 143.03 149.40 C 143.15 150.29 143.97 150.91 144.86 150.79 C 145.76 150.67 146.38 149.85 146.26 148.96 L 146.12 147.95 C 146.00 147.06 145.18 146.44 144.29 146.56 C 143.40 146.68 142.77 147.50 142.90 148.39 Z M 143.03 149.40 L 143.16 150.36 C 143.28 151.25 144.10 151.87 144.99 151.75 C 145.88 151.63 146.51 150.81 146.39 149.92 L 146.26 148.96 C 146.14 148.07 145.32 147.45 144.43 147.57 C 143.54 147.68 142.91 148.50 143.03 149.40 Z M 143.16 150.35 L 143.29 151.33 C 143.41 152.22 144.22 152.84 145.11 152.73 C 146.00 152.61 146.63 151.80 146.51 150.91 L 146.39 149.93 C 146.27 149.04 145.46 148.41 144.57 148.53 C 143.67 148.64 143.05 149.46 143.16 150.35 Z M 143.29 151.31 L 143.41 152.31 C 143.52 153.21 144.33 153.84 145.22 153.73 C 146.11 153.62 146.75 152.81 146.64 151.92 L 146.51 150.92 C 146.40 150.03 145.59 149.39 144.70 149.50 C 143.81 149.61 143.18 150.42 143.29 151.31 Z M 143.41 152.30 L 143.53 153.33 C 143.63 154.22 144.43 154.86 145.32 154.76 C 146.21 154.66 146.85 153.86 146.75 152.97 L 146.64 151.93 C 146.54 151.04 145.73 150.40 144.84 150.50 C 143.95 150.61 143.31 151.41 143.41 152.30 Z M 143.53 153.32 L 143.63 154.30 C 143.72 155.19 144.52 155.84 145.41 155.75 C 146.30 155.66 146.95 154.86 146.86 153.97 L 146.75 152.98 C 146.66 152.09 145.87 151.45 144.98 151.54 C 144.09 151.63 143.44 152.42 143.53 153.32 Z M 143.63 154.29 L 143.73 155.29 C 143.81 156.18 144.60 156.83 145.49 156.75 C 146.38 156.67 147.03 155.88 146.95 154.99 L 146.85 153.98 C 146.77 153.09 145.98 152.44 145.09 152.52 C 144.20 152.61 143.55 153.40 143.63 154.29 Z M 143.73 155.28 L 143.82 156.29 C 143.89 157.18 144.68 157.83 145.57 157.76 C 146.46 157.68 147.11 156.90 147.04 156.01 L 146.95 155.00 C 146.87 154.11 146.09 153.45 145.20 153.53 C 144.31 153.61 143.65 154.39 143.73 155.28 Z M 143.82 156.28 L 143.90 157.27 C 143.97 158.16 144.75 158.82 145.64 158.75 C 146.53 158.68 147.19 157.90 147.12 157.01 L 147.03 156.02 C 146.96 155.13 146.18 154.46 145.29 154.54 C 144.41 154.61 143.74 155.39 143.82 156.28 Z M 143.90 157.27 L 143.98 158.28 C 144.04 159.17 144.82 159.83 145.71 159.76 C 146.60 159.69 147.26 158.92 147.19 158.03 L 147.11 157.02 C 147.05 156.13 146.27 155.47 145.38 155.53 C 144.50 155.60 143.83 156.38 143.90 157.27 Z M 143.98 158.27 L 144.05 159.29 C 144.11 160.17 144.88 160.84 145.77 160.78 C 146.66 160.71 147.33 159.94 147.26 159.06 L 147.19 158.04 C 147.13 157.15 146.36 156.49 145.47 156.55 C 144.58 156.61 143.92 157.38 143.98 158.27 Z M 144.05 159.28 L 144.12 160.27 C 144.18 161.15 144.94 161.82 145.83 161.77 C 146.71 161.71 147.38 160.94 147.32 160.06 L 147.26 159.07 C 147.20 158.18 146.44 157.51 145.55 157.57 C 144.67 157.63 144.00 158.39 144.05 159.28 Z M 144.12 160.26 L 144.18 161.23 C 144.23 162.12 144.99 162.79 145.87 162.74 C 146.75 162.69 147.43 161.93 147.38 161.05 L 147.32 160.07 C 147.27 159.19 146.51 158.51 145.63 158.56 C 144.74 158.61 144.07 159.37 144.12 160.26 Z M 144.18 161.22 L 144.23 162.21 C 144.27 163.09 145.03 163.77 145.91 163.73 C 146.79 163.68 147.47 162.93 147.43 162.05 L 147.38 161.06 C 147.33 160.18 146.58 159.50 145.70 159.54 C 144.82 159.59 144.14 160.34 144.18 161.22 Z M 144.23 162.20 L 144.28 163.21 C 144.31 164.09 145.06 164.77 145.94 164.73 C 146.82 164.69 147.50 163.95 147.47 163.07 L 147.42 162.06 C 147.38 161.18 146.64 160.50 145.76 160.53 C 144.88 160.57 144.20 161.32 144.23 162.20 Z M 144.28 163.20 L 144.32 164.20 C 144.35 165.08 145.09 165.76 145.97 165.73 C 146.85 165.70 147.53 164.96 147.50 164.08 L 147.46 163.08 C 147.43 162.20 146.69 161.51 145.81 161.55 C 144.93 161.58 144.25 162.32 144.28 163.20 Z M 144.32 164.19 L 144.36 165.19 C 144.39 166.06 145.12 166.75 146.00 166.72 C 146.88 166.69 147.56 165.95 147.53 165.07 L 147.50 164.08 C 147.47 163.21 146.73 162.52 145.85 162.55 C 144.98 162.58 144.29 163.32 144.32 164.19 Z M 144.36 165.18 L 144.40 166.19 C 144.43 167.07 145.16 167.75 146.03 167.72 C 146.91 167.69 147.59 166.96 147.56 166.08 L 147.53 165.07 C 147.50 164.20 146.76 163.52 145.89 163.55 C 145.02 163.58 144.33 164.31 144.36 165.18 Z M 144.40 166.19 L 144.44 167.20 C 144.47 168.08 145.19 168.76 146.07 168.73 C 146.94 168.70 147.62 167.97 147.59 167.10 L 147.56 166.08 C 147.53 165.21 146.80 164.53 145.93 164.56 C 145.05 164.59 144.37 165.32 144.40 166.19 Z M 144.44 167.20 L 144.47 168.20 C 144.50 169.06 145.22 169.75 146.09 169.72 C 146.96 169.69 147.64 168.97 147.61 168.10 L 147.58 167.10 C 147.56 166.24 146.83 165.55 145.97 165.58 C 145.10 165.61 144.41 166.33 144.44 167.20 Z M 144.48 168.19 L 144.50 169.16 C 144.52 170.03 145.24 170.71 146.10 170.69 C 146.97 170.67 147.65 169.95 147.63 169.09 L 147.61 168.11 C 147.59 167.24 146.87 166.56 146.01 166.58 C 145.14 166.60 144.46 167.32 144.48 168.19 Z M 144.51 169.15 L 144.52 170.17 C 144.54 171.03 145.24 171.72 146.11 171.71 C 146.97 171.70 147.66 170.99 147.64 170.12 L 147.63 169.10 C 147.61 168.24 146.90 167.55 146.04 167.56 C 145.18 167.58 144.49 168.29 144.51 169.15 Z M 144.53 170.16 L 144.54 171.17 C 144.54 172.03 145.24 172.72 146.10 172.71 C 146.96 172.71 147.65 172.01 147.64 171.15 L 147.64 170.14 C 147.63 169.28 146.93 168.59 146.07 168.59 C 145.21 168.60 144.52 169.30 144.53 170.16 Z M 144.54 171.16 L 144.54 172.15 C 144.55 173.00 145.24 173.69 146.09 173.69 C 146.95 173.69 147.64 172.99 147.64 172.14 L 147.64 171.16 C 147.63 170.30 146.94 169.61 146.09 169.61 C 145.23 169.62 144.54 170.31 144.54 171.16 Z M 144.55 172.14 L 144.55 173.13 C 144.55 173.98 145.24 174.67 146.09 174.67 C 146.94 174.67 147.63 173.98 147.63 173.13 L 147.63 172.14 C 147.63 171.29 146.94 170.60 146.09 170.60 C 145.24 170.60 144.55 171.29 144.55 172.14 Z M 144.56 173.13 L 144.56 174.14 C 144.56 174.98 145.25 175.67 146.09 175.67 C 146.94 175.67 147.62 174.98 147.62 174.14 L 147.62 173.13 C 147.62 172.28 146.94 171.60 146.09 171.60 C 145.25 171.60 144.56 172.28 144.56 173.13 Z M 144.57 174.14 L 144.57 175.13 C 144.57 175.97 145.25 176.65 146.09 176.65 C 146.93 176.65 147.62 175.97 147.62 175.13 L 147.62 174.14 C 147.62 173.29 146.93 172.61 146.09 172.61 C 145.25 172.61 144.57 173.29 144.57 174.14 Z M 144.58 175.13 L 144.58 176.11 C 144.58 176.95 145.25 177.62 146.09 177.62 C 146.93 177.62 147.61 176.95 147.61 176.11 L 147.61 175.13 C 147.61 174.29 146.93 173.61 146.09 173.61 C 145.25 173.61 144.58 174.29 144.58 175.13 Z M 144.58 176.11 L 144.58 177.09 C 144.58 177.92 145.26 178.60 146.09 178.60 C 146.92 178.60 147.60 177.92 147.60 177.09 L 147.60 176.11 C 147.60 175.28 146.92 174.60 146.09 174.60 C 145.26 174.60 144.58 175.28 144.58 176.11 Z M 144.59 177.09 L 144.59 178.09 C 144.59 178.92 145.26 179.59 146.09 179.59 C 146.92 179.59 147.59 178.92 147.59 178.09 L 147.59 177.09 C 147.59 176.26 146.92 175.59 146.09 175.59 C 145.26 175.59 144.59 176.26 144.59 177.09 Z M 144.60 178.09 L 144.60 179.12 C 144.60 179.94 145.27 180.61 146.09 180.61 C 146.92 180.61 147.58 179.94 147.58 179.12 L 147.58 178.09 C 147.58 177.27 146.92 176.60 146.09 176.60 C 145.27 176.60 144.60 177.27 144.60 178.09 Z M 144.61 179.12 L 144.61 180.12 C 144.61 180.94 145.27 181.60 146.09 181.60 C 146.91 181.60 147.57 180.94 147.57 180.12 L 147.58 179.12 C 147.58 178.30 146.91 177.63 146.09 177.63 C 145.27 177.63 144.61 178.30 144.61 179.12 Z M 144.61 180.11 L 144.61 181.12 C 144.60 181.93 145.25 182.60 146.07 182.61 C 146.89 182.61 147.55 181.96 147.56 181.14 L 147.57 180.13 C 147.57 179.32 146.92 178.65 146.10 178.64 C 145.29 178.64 144.62 179.29 144.61 180.11 Z M 144.61 181.10 L 144.59 182.09 C 144.57 182.91 145.22 183.58 146.03 183.60 C 146.84 183.61 147.51 182.97 147.53 182.16 L 147.55 181.16 C 147.57 180.35 146.93 179.68 146.11 179.66 C 145.30 179.64 144.63 180.29 144.61 181.10 Z M 144.60 182.06 L 144.56 183.08 C 144.52 183.88 145.14 184.57 145.95 184.60 C 146.76 184.64 147.44 184.01 147.47 183.21 L 147.52 182.19 C 147.56 181.39 146.93 180.70 146.12 180.67 C 145.32 180.63 144.64 181.26 144.60 182.06 Z M 144.57 183.05 L 144.50 184.05 C 144.45 184.85 145.05 185.54 145.85 185.59 C 146.65 185.65 147.34 185.04 147.40 184.24 L 147.46 183.24 C 147.52 182.44 146.91 181.75 146.11 181.69 C 145.31 181.64 144.62 182.25 144.57 183.05 Z M 144.51 184.03 L 144.43 185.01 C 144.37 185.80 144.96 186.49 145.75 186.56 C 146.54 186.62 147.24 186.03 147.30 185.24 L 147.38 184.26 C 147.45 183.47 146.86 182.78 146.06 182.71 C 145.27 182.65 144.58 183.24 144.51 184.03 Z M 144.44 185.00 L 144.40 185.48 C 144.33 186.26 144.92 186.96 145.70 187.03 C 146.49 187.09 147.18 186.51 147.25 185.72 L 147.29 185.25 C 147.36 184.46 146.78 183.77 145.99 183.70 C 145.20 183.63 144.51 184.21 144.44 185.00 Z"
      fill="black"
      fill-rule="nonzero" /><path d="M 96.61 191.44 L 95.59 191.44 C 94.73 191.44 94.02 192.14 94.02 193.01 C 94.02 193.87 94.73 194.58 95.59 194.58 L 96.61 194.58 C 97.48 194.58 98.18 193.87 98.18 193.01 C 98.18 192.14 97.48 191.44 96.61 191.44 Z M 95.59 191.44 L 94.58 191.44 C 93.71 191.44 93.01 192.14 93.01 193.01 C 93.01 193.87 93.71 194.58 94.58 194.58 L 95.59 194.58 C 96.46 194.58 97.16 193.87 97.16 193.01 C 97.16 192.14 96.46 191.44 95.59 191.44 Z M 94.58 191.44 L 93.59 191.44 C 92.72 191.44 92.02 192.14 92.02 193.01 C 92.02 193.88 92.72 194.58 93.59 194.58 L 94.58 194.58 C 95.45 194.58 96.15 193.88 96.15 193.01 C 96.15 192.14 95.45 191.44 94.58 191.44 Z M 93.59 191.43 L 92.48 191.43 C 91.61 191.43 90.90 192.14 90.90 193.01 C 90.90 193.88 91.61 194.59 92.48 194.59 L 93.59 194.59 C 94.46 194.59 95.17 193.88 95.17 193.01 C 95.17 192.14 94.46 191.43 93.59 191.43 Z M 92.48 191.40 L 91.17 191.40 C 90.28 191.40 89.56 192.12 89.56 193.01 C 89.56 193.90 90.28 194.62 91.17 194.62 L 92.48 194.62 C 93.37 194.62 94.09 193.90 94.09 193.01 C 94.09 192.12 93.37 191.40 92.48 191.40 Z M 91.17 191.35 L 90.56 191.35 C 89.64 191.35 88.90 192.09 88.90 193.01 C 88.90 193.92 89.64 194.66 90.56 194.66 L 91.17 194.66 C 92.08 194.66 92.83 193.92 92.83 193.01 C 92.83 192.09 92.08 191.35 91.17 191.35 Z M 90.56 194.71 L 90.97 194.70 C 91.91 194.70 92.67 193.94 92.66 193.00 C 92.66 192.06 91.90 191.30 90.96 191.31 L 90.55 191.31 C 89.61 191.31 88.85 192.07 88.86 193.01 C 88.86 193.95 89.62 194.71 90.56 194.71 Z M 90.98 194.74 L 92.19 194.73 C 93.14 194.72 93.91 193.94 93.91 192.98 C 93.90 192.02 93.12 191.25 92.16 191.26 L 90.95 191.27 C 89.99 191.28 89.22 192.06 89.23 193.02 C 89.24 193.98 90.02 194.75 90.98 194.74 Z M 92.20 194.76 L 93.47 194.74 C 94.44 194.73 95.22 193.92 95.21 192.95 C 95.19 191.98 94.39 191.20 93.42 191.21 L 92.15 191.23 C 91.17 191.25 90.39 192.05 90.41 193.02 C 90.42 194.00 91.22 194.78 92.20 194.76 Z M 93.49 194.76 L 94.49 194.73 C 95.47 194.71 96.25 193.89 96.23 192.91 C 96.21 191.93 95.39 191.15 94.41 191.17 L 93.40 191.20 C 92.42 191.22 91.64 192.04 91.66 193.02 C 91.69 194.00 92.50 194.78 93.49 194.76 Z M 94.51 194.74 L 95.54 194.71 C 96.53 194.67 97.31 193.85 97.27 192.86 C 97.24 191.87 96.41 191.09 95.42 191.13 L 94.39 191.16 C 93.40 191.20 92.63 192.03 92.66 193.01 C 92.69 194.00 93.52 194.78 94.51 194.74 Z M 95.57 194.72 L 96.59 194.67 C 97.58 194.62 98.35 193.77 98.30 192.78 C 98.25 191.79 97.40 191.02 96.41 191.07 L 95.39 191.12 C 94.40 191.17 93.63 192.01 93.68 193.01 C 93.73 194.00 94.58 194.77 95.57 194.72 Z M 96.63 194.67 L 97.61 194.60 C 98.61 194.53 99.36 193.67 99.29 192.67 C 99.21 191.67 98.35 190.92 97.35 190.99 L 96.37 191.06 C 95.37 191.13 94.62 192.00 94.69 193.00 C 94.76 193.99 95.63 194.75 96.63 194.67 Z M 97.67 194.61 L 98.74 194.49 C 99.74 194.39 100.47 193.49 100.36 192.49 C 100.25 191.49 99.36 190.77 98.36 190.87 L 97.29 190.99 C 96.29 191.09 95.56 191.99 95.67 192.99 C 95.78 193.99 96.67 194.71 97.67 194.61 Z M 98.81 194.49 L 99.78 194.35 C 100.78 194.21 101.47 193.28 101.33 192.28 C 101.19 191.29 100.26 190.59 99.26 190.74 L 98.29 190.88 C 97.30 191.02 96.60 191.95 96.75 192.94 C 96.89 193.94 97.81 194.63 98.81 194.49 Z M 99.83 194.35 L 100.76 194.19 C 101.76 194.02 102.42 193.07 102.25 192.07 C 102.08 191.08 101.14 190.41 100.14 190.58 L 99.21 190.74 C 98.22 190.91 97.55 191.86 97.72 192.85 C 97.89 193.85 98.84 194.52 99.83 194.35 Z M 100.78 194.19 L 101.72 194.02 C 102.71 193.83 103.37 192.88 103.19 191.88 C 103.00 190.88 102.05 190.23 101.05 190.41 L 100.12 190.58 C 99.12 190.76 98.46 191.72 98.65 192.72 C 98.83 193.71 99.79 194.37 100.78 194.19 Z M 101.73 194.02 L 102.69 193.84 C 103.69 193.65 104.34 192.69 104.15 191.69 C 103.96 190.69 103.00 190.04 102.00 190.22 L 101.04 190.41 C 100.04 190.60 99.39 191.56 99.58 192.55 C 99.77 193.55 100.73 194.21 101.73 194.02 Z M 102.70 193.84 L 103.69 193.65 C 104.69 193.45 105.34 192.48 105.15 191.49 C 104.96 190.49 103.99 189.83 102.99 190.03 L 102.00 190.22 C 101.00 190.42 100.34 191.38 100.54 192.38 C 100.73 193.38 101.70 194.03 102.70 193.84 Z M 103.70 193.65 L 104.71 193.45 C 105.71 193.25 106.36 192.28 106.16 191.28 C 105.96 190.28 104.99 189.63 103.99 189.83 L 102.98 190.03 C 101.98 190.22 101.33 191.20 101.53 192.20 C 101.73 193.20 102.70 193.85 103.70 193.65 Z M 104.72 193.45 L 105.65 193.26 C 106.66 193.06 107.30 192.08 107.10 191.08 C 106.90 190.08 105.92 189.43 104.92 189.63 L 103.98 189.82 C 102.98 190.02 102.33 191.00 102.54 192.00 C 102.74 193.00 103.72 193.65 104.72 193.45 Z M 105.66 193.26 L 106.62 193.07 C 107.63 192.86 108.27 191.88 108.07 190.88 C 107.86 189.88 106.88 189.23 105.88 189.43 L 104.92 189.63 C 103.91 189.84 103.27 190.82 103.47 191.82 C 103.68 192.82 104.66 193.47 105.66 193.26 Z M 106.63 193.07 L 107.63 192.86 C 108.63 192.66 109.28 191.67 109.07 190.67 C 108.87 189.66 107.88 189.02 106.88 189.22 L 105.88 189.43 C 104.87 189.64 104.23 190.62 104.43 191.62 C 104.64 192.63 105.62 193.28 106.63 193.07 Z M 107.63 192.87 L 108.64 192.66 C 109.65 192.45 110.30 191.46 110.09 190.46 C 109.88 189.45 108.90 188.80 107.89 189.01 L 106.88 189.22 C 105.87 189.43 105.22 190.41 105.43 191.42 C 105.64 192.43 106.62 193.07 107.63 192.87 Z M 108.64 192.66 L 109.58 192.47 C 110.59 192.26 111.24 191.27 111.03 190.26 C 110.82 189.25 109.83 188.61 108.83 188.81 L 107.89 189.01 C 106.88 189.22 106.23 190.20 106.44 191.21 C 106.65 192.22 107.64 192.87 108.64 192.66 Z M 109.59 192.47 L 110.55 192.27 C 111.56 192.06 112.21 191.07 112.00 190.06 C 111.79 189.05 110.80 188.40 109.79 188.61 L 108.82 188.81 C 107.81 189.02 107.16 190.01 107.37 191.02 C 107.59 192.03 108.58 192.68 109.59 192.47 Z M 110.56 192.27 L 111.55 192.06 C 112.56 191.84 113.21 190.85 112.99 189.84 C 112.77 188.83 111.78 188.18 110.77 188.40 L 109.78 188.61 C 108.77 188.82 108.12 189.82 108.34 190.83 C 108.55 191.84 109.55 192.49 110.56 192.27 Z M 111.56 192.06 L 112.57 191.84 C 113.59 191.62 114.23 190.62 114.00 189.61 C 113.78 188.59 112.78 187.95 111.77 188.17 L 110.76 188.40 C 109.74 188.62 109.10 189.62 109.33 190.63 C 109.55 191.64 110.55 192.28 111.56 192.06 Z M 112.59 191.84 L 113.55 191.62 C 114.56 191.39 115.19 190.39 114.97 189.38 C 114.74 188.36 113.73 187.73 112.72 187.96 L 111.76 188.17 C 110.74 188.40 110.11 189.41 110.34 190.42 C 110.57 191.43 111.57 192.07 112.59 191.84 Z M 113.56 191.62 L 114.49 191.41 C 115.50 191.17 116.13 190.16 115.90 189.15 C 115.66 188.13 114.65 187.50 113.64 187.74 L 112.71 187.96 C 111.69 188.19 111.06 189.20 111.30 190.21 C 111.53 191.23 112.54 191.86 113.56 191.62 Z M 114.50 191.41 L 115.45 191.18 C 116.47 190.95 117.10 189.93 116.86 188.92 C 116.62 187.90 115.60 187.27 114.59 187.51 L 113.63 187.74 C 112.62 187.98 111.99 188.99 112.23 190.00 C 112.47 191.02 113.48 191.65 114.50 191.41 Z M 115.46 191.19 L 116.44 190.95 C 117.46 190.71 118.09 189.70 117.85 188.68 C 117.61 187.67 116.59 187.04 115.57 187.28 L 114.59 187.51 C 113.57 187.75 112.94 188.77 113.18 189.78 C 113.42 190.80 114.44 191.43 115.46 191.19 Z M 116.44 190.96 L 117.46 190.72 C 118.47 190.48 119.11 189.46 118.87 188.44 C 118.63 187.43 117.61 186.80 116.59 187.03 L 115.57 187.27 C 114.56 187.51 113.93 188.53 114.16 189.55 C 114.40 190.57 115.42 191.20 116.44 190.96 Z M 117.45 190.72 L 118.44 190.49 C 119.46 190.26 120.09 189.24 119.86 188.22 C 119.62 187.20 118.60 186.57 117.58 186.80 L 116.60 187.03 C 115.58 187.27 114.94 188.29 115.18 189.30 C 115.41 190.32 116.43 190.96 117.45 190.72 Z M 118.43 190.50 L 119.38 190.28 C 120.40 190.05 121.04 189.03 120.81 188.01 C 120.57 186.99 119.56 186.35 118.54 186.58 L 117.59 186.80 C 116.57 187.03 115.93 188.05 116.16 189.07 C 116.40 190.09 117.41 190.73 118.43 190.50 Z M 119.38 190.28 L 120.35 190.06 C 121.37 189.83 122.01 188.82 121.78 187.79 C 121.55 186.77 120.53 186.13 119.51 186.36 L 118.54 186.58 C 117.52 186.81 116.88 187.83 117.11 188.85 C 117.34 189.87 118.35 190.51 119.38 190.28 Z M 120.34 190.06 L 121.33 189.84 C 122.35 189.61 122.99 188.60 122.76 187.57 C 122.53 186.55 121.52 185.91 120.49 186.14 L 119.51 186.36 C 118.49 186.59 117.84 187.61 118.07 188.63 C 118.30 189.65 119.32 190.30 120.34 190.06 Z M 121.33 189.84 L 122.32 189.62 C 123.34 189.39 123.99 188.38 123.76 187.35 C 123.53 186.33 122.51 185.68 121.49 185.91 L 120.49 186.14 C 119.47 186.37 118.83 187.38 119.06 188.41 C 119.29 189.43 120.30 190.07 121.33 189.84 Z M 122.32 189.62 L 123.32 189.40 C 124.34 189.17 124.99 188.15 124.76 187.13 C 124.53 186.10 123.51 185.46 122.49 185.69 L 121.49 185.91 C 120.46 186.14 119.82 187.16 120.05 188.18 C 120.28 189.21 121.30 189.85 122.32 189.62 Z M 123.32 189.40 L 124.30 189.18 C 125.32 188.95 125.97 187.93 125.74 186.91 C 125.51 185.88 124.49 185.24 123.46 185.47 L 122.49 185.69 C 121.46 185.92 120.82 186.94 121.05 187.96 C 121.28 188.99 122.29 189.63 123.32 189.40 Z M 124.30 189.18 L 125.26 188.97 C 126.29 188.73 126.93 187.71 126.70 186.69 C 126.47 185.66 125.45 185.02 124.43 185.25 L 123.46 185.47 C 122.44 185.70 121.79 186.72 122.02 187.74 C 122.25 188.77 123.27 189.41 124.30 189.18 Z M 125.26 188.97 L 126.23 188.75 C 127.26 188.52 127.90 187.50 127.67 186.47 C 127.44 185.44 126.42 184.80 125.39 185.03 L 124.43 185.25 C 123.40 185.48 122.75 186.50 122.98 187.52 C 123.22 188.55 124.24 189.20 125.26 188.97 Z M 126.23 188.75 L 127.20 188.54 C 128.23 188.31 128.87 187.29 128.64 186.26 C 128.42 185.23 127.39 184.58 126.37 184.81 L 125.39 185.03 C 124.37 185.26 123.72 186.28 123.95 187.31 C 124.18 188.33 125.20 188.98 126.23 188.75 Z M 127.19 188.54 L 128.18 188.32 C 129.21 188.09 129.86 187.07 129.63 186.04 C 129.40 185.01 128.38 184.36 127.35 184.59 L 126.37 184.81 C 125.34 185.04 124.69 186.06 124.92 187.09 C 125.14 188.12 126.16 188.77 127.19 188.54 Z M 128.17 188.32 L 129.16 188.11 C 130.20 187.88 130.85 186.86 130.62 185.83 C 130.40 184.80 129.38 184.14 128.35 184.37 L 127.35 184.59 C 126.32 184.81 125.67 185.83 125.89 186.86 C 126.12 187.90 127.14 188.55 128.17 188.32 Z M 129.16 188.11 L 130.13 187.90 C 131.16 187.68 131.82 186.66 131.60 185.63 C 131.38 184.59 130.36 183.94 129.32 184.16 L 128.35 184.37 C 127.32 184.59 126.66 185.61 126.88 186.64 C 127.11 187.68 128.12 188.33 129.16 188.11 Z M 130.12 187.90 L 131.07 187.70 C 132.11 187.48 132.77 186.47 132.55 185.43 C 132.33 184.40 131.31 183.73 130.28 183.95 L 129.33 184.16 C 128.29 184.37 127.63 185.39 127.85 186.43 C 128.07 187.46 129.09 188.12 130.12 187.90 Z M 131.07 187.70 L 132.03 187.50 C 133.07 187.29 133.73 186.27 133.52 185.23 C 133.30 184.20 132.28 183.53 131.25 183.75 L 130.28 183.95 C 129.25 184.17 128.58 185.19 128.80 186.22 C 129.02 187.26 130.03 187.92 131.07 187.70 Z M 132.03 187.50 L 133.01 187.30 C 134.05 187.09 134.71 186.07 134.50 185.03 C 134.28 184.00 133.26 183.33 132.23 183.55 L 131.25 183.75 C 130.21 183.96 129.55 184.98 129.76 186.02 C 129.98 187.05 130.99 187.72 132.03 187.50 Z M 133.01 187.30 L 134.00 187.10 C 135.03 186.88 135.70 185.87 135.49 184.83 C 135.27 183.79 134.26 183.12 133.22 183.34 L 132.23 183.54 C 131.19 183.76 130.52 184.77 130.74 185.81 C 130.95 186.85 131.97 187.52 133.01 187.30 Z M 134.00 187.10 L 135.00 186.89 C 136.03 186.68 136.70 185.66 136.49 184.62 C 136.27 183.58 135.26 182.92 134.22 183.13 L 133.22 183.34 C 132.18 183.55 131.51 184.57 131.73 185.61 C 131.94 186.65 132.96 187.31 134.00 187.10 Z M 135.00 186.89 L 136.01 186.68 C 137.05 186.47 137.71 185.45 137.50 184.41 C 137.28 183.37 136.27 182.71 135.23 182.92 L 134.22 183.13 C 133.18 183.35 132.51 184.36 132.73 185.40 C 132.94 186.44 133.96 187.11 135.00 186.89 Z M 136.01 186.68 L 136.97 186.48 C 138.01 186.27 138.68 185.25 138.46 184.21 C 138.25 183.17 137.23 182.50 136.19 182.72 L 135.22 182.92 C 134.19 183.14 133.52 184.15 133.73 185.19 C 133.95 186.23 134.97 186.90 136.01 186.68 Z M 136.98 186.48 L 137.94 186.28 C 138.98 186.06 139.65 185.05 139.43 184.01 C 139.22 182.97 138.20 182.30 137.16 182.52 L 136.19 182.72 C 135.15 182.94 134.48 183.95 134.70 184.99 C 134.92 186.03 135.94 186.70 136.98 186.48 Z M 137.94 186.28 L 138.92 186.08 C 139.96 185.86 140.63 184.84 140.41 183.80 C 140.19 182.76 139.17 182.09 138.13 182.31 L 137.16 182.52 C 136.12 182.73 135.45 183.75 135.67 184.79 C 135.88 185.83 136.90 186.50 137.94 186.28 Z M 138.92 186.08 L 139.90 185.88 C 140.94 185.66 141.61 184.64 141.39 183.60 C 141.17 182.56 140.15 181.89 139.11 182.11 L 138.13 182.31 C 137.09 182.53 136.42 183.55 136.64 184.59 C 136.86 185.63 137.88 186.30 138.92 186.08 Z M 139.89 185.88 L 140.88 185.67 C 141.92 185.46 142.59 184.44 142.38 183.40 C 142.16 182.36 141.14 181.69 140.10 181.90 L 139.12 182.11 C 138.07 182.32 137.40 183.34 137.62 184.38 C 137.83 185.42 138.85 186.09 139.89 185.88 Z M 140.88 185.68 L 141.87 185.47 C 142.91 185.26 143.58 184.24 143.37 183.20 C 143.16 182.16 142.14 181.49 141.09 181.70 L 140.11 181.90 C 139.06 182.11 138.39 183.13 138.60 184.17 C 138.82 185.22 139.83 185.89 140.88 185.68 Z M 141.86 185.48 L 142.86 185.28 C 143.90 185.06 144.57 184.05 144.36 183.00 C 144.15 181.96 143.14 181.29 142.09 181.50 L 141.10 181.70 C 140.06 181.91 139.38 182.92 139.59 183.97 C 139.80 185.01 140.82 185.69 141.86 185.48 Z M 142.85 185.28 L 143.83 185.08 C 144.88 184.87 145.55 183.86 145.35 182.82 C 145.14 181.77 144.12 181.09 143.08 181.30 L 142.10 181.49 C 141.05 181.70 140.38 182.72 140.58 183.76 C 140.79 184.81 141.81 185.48 142.85 185.28 Z M 143.83 185.08 L 144.81 184.89 C 145.85 184.69 146.53 183.67 146.33 182.63 C 146.13 181.58 145.11 180.90 144.07 181.11 L 143.09 181.30 C 142.04 181.50 141.36 182.52 141.56 183.56 C 141.77 184.61 142.78 185.29 143.83 185.08 Z M 144.80 184.89 L 145.79 184.70 C 146.83 184.50 147.52 183.49 147.32 182.44 C 147.11 181.40 146.10 180.71 145.06 180.92 L 144.07 181.10 C 143.03 181.31 142.34 182.32 142.54 183.36 C 142.75 184.41 143.76 185.09 144.80 184.89 Z M 145.78 184.70 L 146.77 184.52 C 147.81 184.32 148.50 183.31 148.30 182.26 C 148.10 181.22 147.09 180.53 146.05 180.73 L 145.06 180.91 C 144.02 181.11 143.33 182.12 143.53 183.17 C 143.73 184.22 144.73 184.90 145.78 184.70 Z M 146.76 184.52 L 147.74 184.33 C 148.79 184.14 149.48 183.13 149.28 182.08 C 149.09 181.04 148.08 180.35 147.03 180.54 L 146.05 180.73 C 145.00 180.92 144.31 181.93 144.51 182.98 C 144.71 184.02 145.71 184.71 146.76 184.52 Z M 147.74 184.33 L 148.72 184.15 C 149.77 183.96 150.46 182.95 150.27 181.91 C 150.07 180.86 149.07 180.17 148.02 180.36 L 147.04 180.54 C 145.99 180.73 145.30 181.74 145.49 182.79 C 145.69 183.84 146.69 184.53 147.74 184.33 Z M 148.72 184.15 L 149.70 183.98 C 150.75 183.78 151.44 182.78 151.25 181.73 C 151.06 180.68 150.05 179.99 149.01 180.18 L 148.03 180.36 C 146.98 180.55 146.28 181.55 146.47 182.60 C 146.67 183.65 147.67 184.35 148.72 184.15 Z M 149.69 183.98 L 150.67 183.80 C 151.71 183.61 152.41 182.61 152.22 181.56 C 152.03 180.51 151.03 179.82 149.98 180.00 L 149.01 180.18 C 147.96 180.37 147.27 181.37 147.45 182.42 C 147.64 183.47 148.65 184.17 149.69 183.98 Z M 150.66 183.80 L 151.63 183.63 C 152.68 183.44 153.38 182.44 153.19 181.39 C 153.01 180.34 152.00 179.64 150.96 179.83 L 149.99 180.00 C 148.94 180.19 148.24 181.19 148.42 182.24 C 148.61 183.29 149.61 183.99 150.66 183.80 Z M 151.63 183.63 L 152.60 183.46 C 153.65 183.28 154.35 182.28 154.17 181.23 C 153.98 180.18 152.98 179.48 151.93 179.66 L 150.96 179.83 C 149.91 180.01 149.21 181.01 149.39 182.06 C 149.58 183.11 150.58 183.81 151.63 183.63 Z M 152.59 183.46 L 153.57 183.29 C 154.62 183.11 155.33 182.11 155.14 181.06 C 154.96 180.01 153.96 179.31 152.91 179.49 L 151.94 179.66 C 150.89 179.84 150.18 180.84 150.36 181.89 C 150.55 182.94 151.54 183.64 152.59 183.46 Z M 153.57 183.29 L 154.55 183.12 C 155.60 182.95 156.31 181.95 156.13 180.90 C 155.95 179.85 154.96 179.14 153.91 179.32 L 152.92 179.49 C 151.87 179.67 151.16 180.66 151.34 181.71 C 151.52 182.76 152.52 183.47 153.57 183.29 Z M 154.55 183.13 L 155.54 182.96 C 156.60 182.78 157.31 181.79 157.13 180.74 C 156.95 179.69 155.96 178.98 154.91 179.15 L 153.91 179.32 C 152.86 179.50 152.15 180.49 152.33 181.54 C 152.50 182.59 153.50 183.30 154.55 183.13 Z M 155.54 182.96 L 156.55 182.79 C 157.60 182.62 158.32 181.63 158.14 180.58 C 157.97 179.53 156.98 178.81 155.93 178.99 L 154.91 179.15 C 153.86 179.33 153.15 180.32 153.32 181.37 C 153.50 182.42 154.49 183.13 155.54 182.96 Z M 156.55 182.79 L 157.54 182.63 C 158.59 182.46 159.31 181.47 159.14 180.42 C 158.97 179.37 157.98 178.65 156.93 178.82 L 155.93 178.99 C 154.88 179.16 154.16 180.15 154.33 181.20 C 154.50 182.25 155.49 182.96 156.55 182.79 Z M 157.54 182.63 L 158.53 182.48 C 159.58 182.31 160.30 181.32 160.13 180.27 C 159.96 179.22 158.98 178.50 157.92 178.67 L 156.93 178.82 C 155.88 178.99 155.16 179.98 155.33 181.03 C 155.50 182.08 156.48 182.80 157.54 182.63 Z M 158.52 182.48 L 159.52 182.32 C 160.58 182.16 161.30 181.17 161.13 180.12 C 160.97 179.07 159.98 178.35 158.93 178.51 L 157.93 178.67 C 156.88 178.83 156.16 179.82 156.32 180.87 C 156.49 181.92 157.47 182.64 158.52 182.48 Z M 159.52 182.32 L 160.52 182.17 C 161.57 182.00 162.29 181.02 162.13 179.97 C 161.97 178.92 160.99 178.19 159.94 178.36 L 158.93 178.51 C 157.88 178.67 157.16 179.65 157.32 180.71 C 157.48 181.76 158.47 182.48 159.52 182.32 Z M 160.51 182.17 L 161.51 182.02 C 162.57 181.86 163.29 180.88 163.13 179.82 C 162.97 178.77 161.99 178.05 160.94 178.21 L 159.94 178.36 C 158.89 178.51 158.16 179.50 158.32 180.55 C 158.48 181.60 159.46 182.32 160.51 182.17 Z M 161.51 182.02 L 162.50 181.87 C 163.55 181.72 164.28 180.74 164.12 179.68 C 163.97 178.63 162.99 177.90 161.94 178.06 L 160.95 178.21 C 159.89 178.36 159.17 179.34 159.32 180.39 C 159.48 181.44 160.46 182.17 161.51 182.02 Z M 162.49 181.87 L 163.47 181.73 C 164.52 181.58 165.25 180.60 165.10 179.55 C 164.95 178.50 163.97 177.77 162.92 177.92 L 161.94 178.06 C 160.89 178.21 160.16 179.19 160.31 180.24 C 160.46 181.29 161.44 182.02 162.49 181.87 Z M 163.46 181.73 L 164.44 181.59 C 165.49 181.45 166.22 180.47 166.08 179.42 C 165.93 178.37 164.96 177.63 163.90 177.78 L 162.93 177.92 C 161.87 178.07 161.14 179.04 161.29 180.09 C 161.44 181.14 162.41 181.88 163.46 181.73 Z M 164.43 181.59 L 165.47 181.45 C 166.53 181.31 167.26 180.34 167.12 179.29 C 166.98 178.23 166.01 177.50 164.95 177.64 L 163.91 177.78 C 162.86 177.92 162.12 178.89 162.26 179.95 C 162.41 181.00 163.38 181.74 164.43 181.59 Z M 165.46 181.45 L 166.48 181.32 C 167.54 181.18 168.28 180.22 168.14 179.16 C 168.00 178.11 167.04 177.37 165.98 177.51 L 164.96 177.64 C 163.91 177.78 163.17 178.74 163.31 179.80 C 163.44 180.85 164.41 181.59 165.46 181.45 Z M 166.47 181.32 L 167.47 181.19 C 168.52 181.06 169.27 180.10 169.14 179.05 C 169.00 177.99 168.04 177.25 166.99 177.38 L 165.99 177.51 C 164.94 177.64 164.19 178.60 164.32 179.65 C 164.46 180.71 165.42 181.45 166.47 181.32 Z M 167.46 181.19 L 168.44 181.08 C 169.49 180.95 170.25 179.99 170.12 178.94 C 169.99 177.88 169.03 177.13 167.98 177.26 L 167.00 177.38 C 165.95 177.51 165.19 178.46 165.32 179.52 C 165.45 180.57 166.41 181.32 167.46 181.19 Z M 168.43 181.08 L 169.40 180.97 C 170.45 180.84 171.21 179.89 171.09 178.84 C 170.97 177.78 170.01 177.03 168.96 177.15 L 167.99 177.26 C 166.94 177.38 166.18 178.33 166.30 179.39 C 166.42 180.44 167.38 181.20 168.43 181.08 Z M 169.39 180.97 L 170.35 180.86 C 171.40 180.75 172.16 179.80 172.05 178.74 C 171.93 177.69 170.98 176.93 169.93 177.04 L 168.97 177.15 C 167.92 177.26 167.15 178.21 167.27 179.27 C 167.38 180.32 168.33 181.08 169.39 180.97 Z M 170.33 180.86 L 171.32 180.76 C 172.37 180.65 173.14 179.71 173.03 178.65 C 172.92 177.60 171.98 176.83 170.92 176.94 L 169.94 177.04 C 168.89 177.15 168.12 178.10 168.23 179.15 C 168.34 180.20 169.28 180.97 170.33 180.86 Z M 171.31 180.76 L 172.32 180.66 C 173.38 180.56 174.15 179.62 174.04 178.57 C 173.94 177.51 173.00 176.74 171.95 176.84 L 170.93 176.94 C 169.88 177.05 169.11 177.98 169.21 179.04 C 169.31 180.09 170.25 180.86 171.31 180.76 Z M 172.31 180.66 L 173.32 180.57 C 174.37 180.47 175.15 179.54 175.05 178.49 C 174.96 177.43 174.03 176.66 172.97 176.75 L 171.96 176.85 C 170.91 176.94 170.13 177.87 170.23 178.93 C 170.33 179.98 171.26 180.75 172.31 180.66 Z M 173.31 180.56 L 174.31 180.48 C 175.36 180.39 176.14 179.46 176.05 178.41 C 175.96 177.36 175.04 176.58 173.99 176.67 L 172.98 176.75 C 171.93 176.84 171.15 177.77 171.24 178.82 C 171.33 179.87 172.26 180.65 173.31 180.56 Z M 174.30 180.48 L 175.29 180.40 C 176.34 180.31 177.13 179.39 177.04 178.34 C 176.96 177.29 176.04 176.51 174.99 176.59 L 174.00 176.67 C 172.95 176.75 172.16 177.67 172.25 178.73 C 172.33 179.78 173.25 180.56 174.30 180.48 Z M 175.28 180.40 L 176.26 180.32 C 177.31 180.25 178.10 179.33 178.02 178.28 C 177.94 177.23 177.03 176.44 175.98 176.52 L 175.00 176.59 C 173.95 176.67 173.16 177.59 173.24 178.64 C 173.32 179.69 174.23 180.47 175.28 180.40 Z M 176.25 180.32 L 177.23 180.26 C 178.27 180.19 179.07 179.28 179.00 178.23 C 178.92 177.18 178.02 176.39 176.97 176.46 L 175.99 176.52 C 174.94 176.59 174.15 177.50 174.22 178.55 C 174.29 179.60 175.20 180.39 176.25 180.32 Z M 177.21 180.25 L 178.25 180.19 C 179.30 180.12 180.10 179.22 180.03 178.17 C 179.97 177.13 179.07 176.33 178.02 176.40 L 176.98 176.46 C 175.93 176.52 175.13 177.43 175.20 178.47 C 175.26 179.52 176.17 180.32 177.21 180.25 Z M 178.24 180.19 L 179.26 180.13 C 180.31 180.07 181.11 179.18 181.05 178.13 C 180.99 177.08 180.10 176.28 179.05 176.34 L 178.03 176.40 C 176.98 176.46 176.18 177.35 176.24 178.40 C 176.30 179.44 177.20 180.25 178.24 180.19 Z M 179.25 180.13 L 180.25 180.08 C 181.30 180.02 182.10 179.13 182.05 178.09 C 182.00 177.04 181.11 176.24 180.06 176.29 L 179.06 176.34 C 178.02 176.40 177.21 177.29 177.26 178.33 C 177.32 179.38 178.21 180.18 179.25 180.13 Z M 180.24 180.07 L 181.23 180.03 C 182.27 179.98 183.08 179.10 183.03 178.05 C 182.98 177.01 182.10 176.20 181.06 176.25 L 180.07 176.30 C 179.03 176.34 178.22 177.23 178.27 178.27 C 178.32 179.31 179.20 180.12 180.24 180.07 Z M 181.22 180.03 L 182.18 179.99 C 183.23 179.94 184.04 179.06 183.99 178.02 C 183.95 176.98 183.07 176.17 182.03 176.22 L 181.06 176.25 C 180.02 176.30 179.21 177.18 179.26 178.22 C 179.30 179.26 180.18 180.07 181.22 180.03 Z M 182.18 179.98 L 183.18 179.95 C 184.22 179.91 185.03 179.03 184.99 177.99 C 184.95 176.96 184.08 176.14 183.04 176.18 L 182.04 176.22 C 181.00 176.26 180.19 177.13 180.23 178.17 C 180.26 179.21 181.14 180.02 182.18 179.98 Z M 183.17 179.94 L 184.21 179.91 C 185.25 179.87 186.06 179.00 186.03 177.97 C 185.99 176.93 185.13 176.12 184.09 176.15 L 183.05 176.19 C 182.01 176.22 181.20 177.09 181.23 178.13 C 181.27 179.16 182.13 179.97 183.17 179.94 Z M 184.20 179.90 L 185.22 179.87 C 186.26 179.84 187.07 178.98 187.04 177.95 C 187.01 176.92 186.15 176.10 185.12 176.13 L 184.10 176.16 C 183.07 176.19 182.25 177.05 182.28 178.08 C 182.31 179.12 183.17 179.93 184.20 179.90 Z M 185.22 179.86 L 186.21 179.84 C 187.24 179.81 188.05 178.96 188.02 177.93 C 188.00 176.90 187.15 176.09 186.12 176.11 L 185.13 176.14 C 184.10 176.16 183.28 177.02 183.31 178.05 C 183.33 179.07 184.19 179.89 185.22 179.86 Z M 186.20 179.83 L 187.16 179.81 C 188.18 179.79 189.00 178.95 188.98 177.92 C 188.96 176.90 188.11 176.08 187.09 176.10 L 186.13 176.12 C 185.10 176.14 184.29 176.99 184.31 178.01 C 184.33 179.04 185.17 179.85 186.20 179.83 Z M 187.15 179.81 L 188.10 179.79 C 189.12 179.78 189.94 178.94 189.92 177.92 C 189.91 176.90 189.07 176.08 188.05 176.10 L 187.10 176.11 C 186.08 176.13 185.26 176.96 185.28 177.99 C 185.29 179.01 186.13 179.82 187.15 179.81 Z M 188.09 179.78 L 189.06 179.77 C 190.08 179.76 190.90 178.93 190.89 177.92 C 190.88 176.90 190.04 176.08 189.03 176.09 L 188.06 176.10 C 187.04 176.11 186.23 176.95 186.24 177.96 C 186.25 178.98 187.08 179.79 188.09 179.78 Z M 189.06 179.76 L 190.02 179.76 C 191.03 179.75 191.85 178.93 191.84 177.92 C 191.84 176.91 191.01 176.09 190.00 176.10 L 189.04 176.10 C 188.03 176.11 187.21 176.93 187.22 177.94 C 187.22 178.96 188.05 179.77 189.06 179.76 Z M 190.02 179.75 L 191.01 179.75 C 192.01 179.75 192.83 178.93 192.83 177.92 C 192.82 176.92 192.01 176.10 191.00 176.10 L 190.01 176.11 C 189.00 176.11 188.19 176.93 188.19 177.93 C 188.19 178.94 189.01 179.75 190.02 179.75 Z M 191.00 179.74 L 192.05 179.74 C 193.05 179.74 193.86 178.93 193.86 177.93 C 193.86 176.92 193.04 176.11 192.04 176.11 L 191.00 176.11 C 190.00 176.11 189.19 176.93 189.19 177.93 C 189.19 178.93 190.00 179.74 191.00 179.74 Z M 192.04 179.73 L 193.06 179.73 C 194.05 179.73 194.86 178.92 194.86 177.93 C 194.86 176.93 194.06 176.12 193.06 176.12 L 192.04 176.12 C 191.05 176.12 190.24 176.93 190.24 177.93 C 190.24 178.92 191.05 179.73 192.04 179.73 Z M 193.05 179.72 L 194.05 179.73 C 195.04 179.73 195.85 178.93 195.86 177.94 C 195.86 176.95 195.07 176.14 194.08 176.14 L 193.07 176.13 C 192.08 176.13 191.27 176.92 191.26 177.92 C 191.26 178.91 192.06 179.71 193.05 179.72 Z M 194.03 179.72 L 195.06 179.74 C 196.04 179.76 196.86 178.98 196.88 177.99 C 196.90 177.01 196.12 176.19 195.13 176.17 L 194.10 176.15 C 193.12 176.13 192.30 176.91 192.28 177.89 C 192.26 178.88 193.04 179.70 194.03 179.72 Z M 195.01 179.73 L 196.04 179.77 C 197.02 179.82 197.85 179.06 197.89 178.08 C 197.94 177.10 197.18 176.27 196.20 176.23 L 195.17 176.18 C 194.19 176.14 193.36 176.89 193.32 177.87 C 193.28 178.85 194.03 179.68 195.01 179.73 Z M 195.97 179.76 L 196.97 179.84 C 197.94 179.92 198.79 179.20 198.87 178.23 C 198.95 177.25 198.23 176.40 197.26 176.32 L 196.26 176.24 C 195.29 176.16 194.44 176.89 194.36 177.86 C 194.28 178.83 195.00 179.68 195.97 179.76 Z M 196.88 179.82 L 197.85 179.95 C 198.81 180.08 199.70 179.41 199.83 178.45 C 199.95 177.49 199.28 176.60 198.32 176.47 L 197.35 176.34 C 196.39 176.21 195.50 176.89 195.38 177.85 C 195.25 178.81 195.92 179.69 196.88 179.82 Z M 197.72 179.91 L 198.83 180.15 C 199.77 180.35 200.69 179.76 200.90 178.82 C 201.10 177.89 200.51 176.96 199.57 176.76 L 198.46 176.52 C 197.52 176.31 196.59 176.91 196.39 177.85 C 196.19 178.78 196.78 179.71 197.72 179.91 Z M 198.67 180.08 L 199.66 180.40 C 200.56 180.69 201.52 180.20 201.81 179.30 C 202.10 178.40 201.61 177.44 200.72 177.15 L 199.73 176.83 C 198.83 176.54 197.87 177.03 197.58 177.93 C 197.29 178.83 197.78 179.79 198.67 180.08 Z M 199.50 180.31 L 200.36 180.70 C 201.21 181.08 202.20 180.70 202.58 179.85 C 202.96 179.00 202.59 178.01 201.74 177.63 L 200.88 177.24 C 200.03 176.86 199.03 177.24 198.65 178.09 C 198.27 178.93 198.65 179.93 199.50 180.31 Z M 200.20 180.58 L 200.95 181.03 C 201.73 181.49 202.75 181.24 203.22 180.45 C 203.68 179.67 203.43 178.65 202.64 178.18 L 201.90 177.74 C 201.11 177.27 200.10 177.53 199.63 178.31 C 199.16 179.10 199.42 180.11 200.20 180.58 Z M 200.78 180.87 L 201.59 181.52 C 202.29 182.07 203.31 181.96 203.87 181.26 C 204.42 180.56 204.31 179.55 203.61 178.99 L 202.80 178.34 C 202.11 177.78 201.09 177.90 200.53 178.60 C 199.97 179.29 200.09 180.31 200.78 180.87 Z M 201.47 181.34 L 202.16 182.05 C 202.76 182.68 203.75 182.70 204.37 182.10 C 205.00 181.50 205.02 180.51 204.42 179.88 L 203.74 179.17 C 203.14 178.54 202.14 178.52 201.52 179.12 C 200.89 179.72 200.87 180.71 201.47 181.34 Z M 202.11 181.93 L 202.72 182.67 C 203.25 183.33 204.20 183.42 204.85 182.90 C 205.51 182.37 205.60 181.41 205.08 180.76 L 204.47 180.01 C 203.94 179.36 202.98 179.26 202.33 179.79 C 201.68 180.32 201.58 181.28 202.11 181.93 Z M 202.72 182.63 L 202.86 182.81 C 203.37 183.46 204.30 183.57 204.95 183.07 C 205.60 182.56 205.72 181.63 205.21 180.98 L 205.07 180.80 C 204.57 180.15 203.63 180.04 202.98 180.54 C 202.33 181.05 202.22 181.98 202.72 182.63 Z"
      fill="black"
      fill-rule="nonzero" /></svg>