<svg xmlns="http://www.w3.org/2000/svg" width="300" height="300" viewBox="0 0 300 300">
<path d="M 146.55 150.82 L 145.15 150.53 C 144.28 150.35 143.43 150.92 143.25 151.79 C 143.07 152.66 143.63 153.51 144.50 153.68 L 145.90 153.97 C 146.77 154.15 147.62 153.59 147.80 152.72 C 147.98 151.84 147.42 150.99 146.55 150.82 Z M 145.13 150.54 L 143.95 150.31 C 143.08 150.14 142.24 150.70 142.07 151.57 C 141.90 152.43 142.46 153.27 143.33 153.44 L 144.52 153.67 C 145.38 153.84 146.22 153.28 146.39 152.42 C 146.56 151.55 146.00 150.71 145.13 150.54 Z M 143.91 150.32 L 143.14 150.18 C 142.28 150.04 141.46 150.61 141.31 151.47 C 141.16 152.33 141.74 153.15 142.60 153.30 L 143.37 153.43 C 144.23 153.58 145.05 153.00 145.20 152.14 C 145.34 151.28 144.77 150.46 143.91 150.32 Z M 142.63 150.19 L 142.49 150.21 C 141.63 150.35 141.04 151.15 141.18 152.01 C 141.31 152.86 142.11 153.45 142.97 153.31 L 143.11 153.29 C 143.97 153.16 144.55 152.36 144.42 151.50 C 144.29 150.64 143.48 150.06 142.63 150.19 Z M 142.19 153.23 L 142.76 153.44 C 143.57 153.73 144.47 153.32 144.76 152.50 C 145.06 151.69 144.64 150.79 143.83 150.50 L 143.26 150.29 C 142.45 150.00 141.55 150.42 141.26 151.23 C 140.96 152.04 141.38 152.94 142.19 153.23 Z M 142.79 153.45 L 143.88 153.82 C 144.70 154.10 145.59 153.66 145.86 152.84 C 146.14 152.02 145.70 151.13 144.88 150.86 L 143.80 150.49 C 142.98 150.21 142.09 150.65 141.81 151.47 C 141.54 152.28 141.97 153.17 142.79 153.45 Z M 143.85 153.81 L 145.25 154.31 C 146.06 154.61 146.96 154.19 147.25 153.38 C 147.54 152.56 147.12 151.67 146.31 151.37 L 144.91 150.87 C 144.10 150.57 143.21 150.99 142.91 151.81 C 142.62 152.62 143.04 153.51 143.85 153.81 Z M 145.21 154.29 L 146.16 154.67 C 146.96 154.99 147.87 154.60 148.19 153.80 C 148.51 153.00 148.12 152.09 147.31 151.77 L 146.36 151.39 C 145.56 151.08 144.65 151.47 144.33 152.27 C 144.01 153.07 144.40 153.98 145.21 154.29 Z M 146.13 154.66 L 147.07 155.06 C 147.86 155.39 148.77 155.02 149.11 154.23 C 149.45 153.44 149.08 152.53 148.29 152.19 L 147.35 151.79 C 146.56 151.46 145.64 151.83 145.31 152.62 C 144.97 153.41 145.34 154.32 146.13 154.66 Z M 147.04 155.04 L 147.98 155.46 C 148.76 155.81 149.68 155.46 150.03 154.68 C 150.38 153.89 150.03 152.98 149.25 152.63 L 148.31 152.21 C 147.53 151.86 146.61 152.21 146.26 152.99 C 145.91 153.77 146.26 154.69 147.04 155.04 Z M 147.96 155.44 L 148.88 155.87 C 149.65 156.24 150.57 155.90 150.94 155.13 C 151.30 154.36 150.96 153.44 150.19 153.08 L 149.27 152.64 C 148.50 152.28 147.58 152.61 147.22 153.39 C 146.85 154.16 147.19 155.08 147.96 155.44 Z M 148.86 155.86 L 149.74 156.29 C 150.51 156.66 151.43 156.35 151.80 155.58 C 152.18 154.82 151.86 153.90 151.10 153.52 L 150.21 153.09 C 149.45 152.72 148.53 153.03 148.15 153.80 C 147.78 154.56 148.10 155.48 148.86 155.86 Z M 149.72 156.28 L 150.60 156.72 C 151.35 157.11 152.28 156.81 152.67 156.05 C 153.05 155.30 152.75 154.37 152.00 153.99 L 151.12 153.54 C 150.36 153.15 149.44 153.45 149.05 154.21 C 148.67 154.96 148.97 155.89 149.72 156.28 Z M 150.57 156.71 L 151.49 157.20 C 152.24 157.61 153.17 157.33 153.57 156.58 C 153.98 155.83 153.70 154.90 152.95 154.50 L 152.02 154.00 C 151.28 153.60 150.35 153.88 149.94 154.63 C 149.54 155.37 149.82 156.31 150.57 156.71 Z M 151.45 157.18 L 152.31 157.68 C 153.05 158.11 153.99 157.85 154.41 157.12 C 154.84 156.38 154.59 155.44 153.85 155.01 L 152.99 154.52 C 152.25 154.09 151.31 154.34 150.89 155.08 C 150.46 155.82 150.71 156.76 151.45 157.18 Z M 152.26 157.65 L 153.08 158.17 C 153.80 158.62 154.75 158.40 155.20 157.68 C 155.66 156.96 155.44 156.00 154.72 155.55 L 153.90 155.04 C 153.18 154.59 152.22 154.80 151.77 155.53 C 151.32 156.25 151.54 157.20 152.26 157.65 Z M 153.02 158.14 L 153.82 158.68 C 154.53 159.17 155.49 158.99 155.98 158.28 C 156.46 157.57 156.28 156.61 155.57 156.13 L 154.77 155.58 C 154.06 155.10 153.10 155.28 152.62 155.99 C 152.14 156.69 152.32 157.65 153.02 158.14 Z M 153.77 158.65 L 154.57 159.25 C 155.26 159.76 156.23 159.62 156.75 158.93 C 157.26 158.24 157.11 157.27 156.42 156.75 L 155.62 156.16 C 154.94 155.65 153.96 155.79 153.45 156.48 C 152.94 157.17 153.08 158.14 153.77 158.65 Z M 154.52 159.22 L 155.32 159.86 C 155.99 160.40 156.97 160.29 157.51 159.62 C 158.05 158.95 157.95 157.97 157.28 157.43 L 156.48 156.78 C 155.81 156.24 154.82 156.35 154.28 157.02 C 153.74 157.69 153.85 158.68 154.52 159.22 Z M 155.26 159.82 L 156.03 160.50 C 156.68 161.08 157.67 161.01 158.25 160.36 C 158.82 159.71 158.76 158.71 158.11 158.14 L 157.34 157.46 C 156.68 156.89 155.69 156.95 155.11 157.60 C 154.54 158.26 154.60 159.25 155.26 159.82 Z M 155.96 160.45 L 156.68 161.16 C 157.30 161.77 158.31 161.76 158.92 161.13 C 159.53 160.51 159.52 159.50 158.89 158.89 L 158.17 158.19 C 157.55 157.58 156.55 157.59 155.93 158.21 C 155.32 158.84 155.33 159.84 155.96 160.45 Z M 156.60 161.09 L 157.23 161.80 C 157.82 162.46 158.83 162.51 159.49 161.92 C 160.14 161.34 160.20 160.33 159.61 159.67 L 158.97 158.96 C 158.39 158.30 157.38 158.25 156.72 158.83 C 156.06 159.42 156.01 160.43 156.60 161.09 Z M 157.12 161.69 L 157.76 162.56 C 158.29 163.28 159.30 163.43 160.01 162.91 C 160.73 162.38 160.89 161.37 160.36 160.66 L 159.72 159.78 C 159.19 159.07 158.19 158.91 157.47 159.44 C 156.75 159.96 156.60 160.97 157.12 161.69 Z M 157.63 162.39 L 158.12 163.29 C 158.55 164.08 159.54 164.37 160.33 163.94 C 161.12 163.50 161.41 162.51 160.98 161.73 L 160.49 160.83 C 160.06 160.04 159.07 159.75 158.28 160.18 C 157.49 160.61 157.20 161.60 157.63 162.39 Z M 158.00 163.06 L 158.32 163.96 C 158.63 164.82 159.58 165.26 160.43 164.95 C 161.29 164.64 161.73 163.70 161.43 162.84 L 161.10 161.95 C 160.79 161.09 159.85 160.65 158.99 160.96 C 158.14 161.26 157.69 162.21 158.00 163.06 Z M 158.23 163.70 L 158.40 164.62 C 158.56 165.52 159.43 166.12 160.34 165.96 C 161.24 165.80 161.84 164.93 161.68 164.02 L 161.52 163.11 C 161.35 162.20 160.48 161.60 159.58 161.76 C 158.67 161.93 158.07 162.79 158.23 163.70 Z M 158.36 164.31 L 158.35 165.33 C 158.35 166.26 159.10 167.02 160.03 167.02 C 160.96 167.03 161.71 166.28 161.72 165.35 L 161.72 164.33 C 161.73 163.40 160.98 162.64 160.05 162.64 C 159.12 162.63 158.36 163.38 158.36 164.31 Z M 158.38 164.98 L 158.17 165.95 C 157.97 166.87 158.55 167.77 159.46 167.97 C 160.38 168.17 161.28 167.59 161.48 166.67 L 161.69 165.70 C 161.89 164.78 161.31 163.88 160.40 163.68 C 159.48 163.48 158.58 164.06 158.38 164.98 Z M 158.29 165.56 L 157.86 166.43 C 157.44 167.28 157.79 168.30 158.64 168.72 C 159.49 169.14 160.51 168.79 160.93 167.94 L 161.36 167.07 C 161.77 166.22 161.43 165.20 160.58 164.78 C 159.73 164.36 158.71 164.71 158.29 165.56 Z M 158.10 166.05 L 157.49 166.74 C 156.86 167.46 156.93 168.54 157.65 169.17 C 158.36 169.80 159.45 169.73 160.07 169.02 L 160.68 168.32 C 161.31 167.61 161.24 166.53 160.53 165.90 C 159.82 165.27 158.73 165.34 158.10 166.05 Z M 157.77 166.48 L 156.99 167.05 C 156.22 167.61 156.05 168.68 156.61 169.46 C 157.17 170.23 158.25 170.40 159.02 169.84 L 159.80 169.28 C 160.57 168.72 160.74 167.64 160.18 166.87 C 159.62 166.10 158.54 165.92 157.77 166.48 Z M 157.23 166.90 L 156.30 167.36 C 155.45 167.79 155.11 168.83 155.54 169.69 C 155.97 170.54 157.01 170.89 157.86 170.45 L 158.78 169.99 C 159.64 169.56 159.98 168.52 159.55 167.66 C 159.12 166.81 158.08 166.47 157.23 166.90 Z M 156.47 167.28 L 155.50 167.65 C 154.61 167.99 154.15 168.99 154.49 169.88 C 154.83 170.78 155.83 171.24 156.73 170.90 L 157.69 170.53 C 158.59 170.20 159.04 169.20 158.71 168.30 C 158.37 167.40 157.37 166.95 156.47 167.28 Z M 155.62 167.61 L 154.76 167.86 C 153.84 168.14 153.32 169.11 153.59 170.03 C 153.87 170.95 154.84 171.47 155.76 171.20 L 156.61 170.94 C 157.53 170.66 158.06 169.70 157.78 168.77 C 157.51 167.85 156.54 167.33 155.62 167.61 Z M 154.85 167.83 L 153.93 168.06 C 152.99 168.28 152.41 169.22 152.64 170.16 C 152.86 171.09 153.80 171.67 154.74 171.45 L 155.66 171.22 C 156.60 171.00 157.18 170.06 156.95 169.12 C 156.73 168.19 155.79 167.61 154.85 167.83 Z M 154.01 168.03 L 153.01 168.22 C 152.06 168.40 151.43 169.31 151.61 170.26 C 151.79 171.21 152.70 171.83 153.65 171.65 L 154.65 171.47 C 155.60 171.29 156.22 170.38 156.05 169.43 C 155.87 168.48 154.96 167.86 154.01 168.03 Z M 153.08 168.21 L 151.99 168.36 C 151.03 168.50 150.37 169.38 150.50 170.34 C 150.64 171.29 151.52 171.96 152.48 171.82 L 153.57 171.67 C 154.53 171.53 155.19 170.65 155.06 169.69 C 154.92 168.74 154.04 168.07 153.08 168.21 Z M 152.05 168.35 L 151.00 168.46 C 150.04 168.57 149.34 169.43 149.44 170.39 C 149.55 171.35 150.41 172.05 151.37 171.94 L 152.42 171.83 C 153.38 171.73 154.07 170.87 153.97 169.91 C 153.87 168.95 153.01 168.25 152.05 168.35 Z M 151.05 168.46 L 150.03 168.54 C 149.07 168.62 148.35 169.46 148.42 170.42 C 148.50 171.39 149.34 172.11 150.30 172.03 L 151.32 171.95 C 152.29 171.87 153.01 171.03 152.93 170.07 C 152.85 169.10 152.01 168.38 151.05 168.46 Z M 150.07 168.54 L 149.03 168.59 C 148.07 168.65 147.33 169.47 147.38 170.44 C 147.43 171.40 148.26 172.14 149.22 172.09 L 150.26 172.03 C 151.23 171.98 151.97 171.15 151.92 170.19 C 151.86 169.22 151.04 168.48 150.07 168.54 Z M 149.07 168.59 L 148.04 168.63 C 147.07 168.66 146.31 169.47 146.35 170.43 C 146.38 171.40 147.19 172.16 148.15 172.13 L 149.19 172.09 C 150.15 172.06 150.91 171.25 150.88 170.29 C 150.85 169.32 150.04 168.56 149.07 168.59 Z M 148.08 168.63 L 147.09 168.63 C 146.12 168.64 145.34 169.43 145.35 170.40 C 145.36 171.37 146.15 172.14 147.12 172.14 L 148.11 172.13 C 149.08 172.12 149.86 171.33 149.85 170.36 C 149.84 169.39 149.05 168.62 148.08 168.63 Z M 147.14 168.63 L 146.21 168.62 C 145.24 168.60 144.44 169.37 144.42 170.33 C 144.40 171.30 145.17 172.10 146.14 172.12 L 147.07 172.14 C 148.03 172.15 148.83 171.39 148.85 170.42 C 148.87 169.45 148.10 168.65 147.14 168.63 Z M 146.28 168.62 L 145.11 168.54 C 144.14 168.48 143.31 169.21 143.25 170.18 C 143.19 171.14 143.92 171.97 144.88 172.04 L 146.06 172.11 C 147.02 172.17 147.85 171.44 147.92 170.48 C 147.98 169.52 147.25 168.68 146.28 168.62 Z M 145.24 168.56 L 144.21 168.41 C 143.26 168.28 142.37 168.94 142.24 169.89 C 142.10 170.84 142.76 171.73 143.71 171.87 L 144.74 172.02 C 145.70 172.15 146.58 171.49 146.72 170.54 C 146.86 169.59 146.20 168.70 145.24 168.56 Z M 144.40 168.46 L 143.52 168.23 C 142.59 167.98 141.64 168.54 141.39 169.47 C 141.15 170.39 141.70 171.35 142.63 171.59 L 143.52 171.82 C 144.45 172.07 145.40 171.51 145.64 170.58 C 145.89 169.65 145.33 168.70 144.40 168.46 Z M 143.75 168.31 L 142.97 167.98 C 142.09 167.61 141.07 168.02 140.70 168.90 C 140.32 169.78 140.74 170.80 141.62 171.17 L 142.40 171.50 C 143.28 171.88 144.30 171.46 144.67 170.58 C 145.04 169.70 144.63 168.68 143.75 168.31 Z M 143.23 168.14 L 142.39 167.58 C 141.59 167.06 140.52 167.28 140.00 168.08 C 139.48 168.88 139.71 169.94 140.50 170.46 L 141.35 171.02 C 142.15 171.54 143.21 171.31 143.73 170.52 C 144.25 169.72 144.03 168.66 143.23 168.14 Z M 142.65 167.82 L 141.95 167.12 C 141.28 166.45 140.20 166.45 139.54 167.12 C 138.87 167.78 138.87 168.86 139.54 169.52 L 140.24 170.23 C 140.90 170.89 141.98 170.89 142.65 170.23 C 143.31 169.56 143.31 168.48 142.65 167.82 Z M 142.16 167.41 L 141.63 166.58 C 141.13 165.80 140.09 165.57 139.30 166.07 C 138.52 166.57 138.29 167.61 138.79 168.40 L 139.32 169.23 C 139.82 170.01 140.87 170.24 141.65 169.74 C 142.43 169.24 142.66 168.20 142.16 167.41 Z M 141.77 166.90 L 141.44 166.03 C 141.11 165.17 140.16 164.74 139.30 165.06 C 138.44 165.39 138.00 166.34 138.33 167.20 L 138.65 168.07 C 138.98 168.93 139.94 169.37 140.80 169.04 C 141.66 168.72 142.09 167.76 141.77 166.90 Z M 141.49 166.30 L 141.30 165.35 C 141.13 164.46 140.27 163.88 139.38 164.05 C 138.49 164.23 137.91 165.09 138.09 165.98 L 138.28 166.93 C 138.45 167.82 139.31 168.40 140.20 168.22 C 141.09 168.05 141.66 167.19 141.49 166.30 Z M 141.30 165.54 L 141.22 164.50 C 141.16 163.61 140.38 162.94 139.50 163.01 C 138.61 163.08 137.94 163.85 138.01 164.74 L 138.09 165.78 C 138.15 166.67 138.93 167.34 139.81 167.27 C 140.70 167.20 141.37 166.43 141.30 165.54 Z M 141.20 164.62 L 141.21 163.64 C 141.21 162.77 140.50 162.06 139.62 162.06 C 138.74 162.05 138.03 162.77 138.03 163.64 L 138.03 164.62 C 138.03 165.49 138.74 166.21 139.62 166.21 C 140.49 166.21 141.20 165.50 141.20 164.62 Z M 141.18 163.74 L 141.24 162.82 C 141.29 161.96 140.63 161.21 139.77 161.16 C 138.90 161.11 138.16 161.77 138.11 162.63 L 138.05 163.55 C 138.00 164.41 138.66 165.16 139.52 165.21 C 140.39 165.26 141.13 164.60 141.18 163.74 Z M 141.21 162.93 L 141.34 161.95 C 141.45 161.11 140.85 160.33 140.00 160.22 C 139.15 160.11 138.38 160.70 138.27 161.55 L 138.14 162.52 C 138.03 163.37 138.62 164.15 139.47 164.26 C 140.32 164.37 141.10 163.78 141.21 162.93 Z M 141.30 162.07 L 141.51 161.03 C 141.69 160.21 141.16 159.40 140.33 159.22 C 139.51 159.05 138.70 159.58 138.52 160.40 L 138.31 161.44 C 138.13 162.26 138.66 163.07 139.49 163.25 C 140.31 163.42 141.12 162.89 141.30 162.07 Z M 141.47 161.15 L 141.78 160.09 C 142.02 159.29 141.56 158.45 140.76 158.21 C 139.96 157.98 139.12 158.43 138.88 159.23 L 138.57 160.29 C 138.33 161.09 138.79 161.93 139.59 162.17 C 140.39 162.40 141.23 161.95 141.47 161.15 Z M 141.73 160.18 L 142.08 159.24 C 142.37 158.47 141.97 157.61 141.20 157.32 C 140.43 157.03 139.57 157.43 139.28 158.20 L 138.93 159.14 C 138.64 159.91 139.04 160.78 139.81 161.06 C 140.59 161.35 141.45 160.96 141.73 160.18 Z M 142.05 159.31 L 142.45 158.35 C 142.77 157.60 142.42 156.73 141.67 156.41 C 140.91 156.09 140.04 156.44 139.72 157.19 L 139.31 158.14 C 138.99 158.90 139.34 159.77 140.10 160.09 C 140.85 160.41 141.72 160.06 142.05 159.31 Z M 142.42 158.40 L 142.86 157.46 C 143.20 156.72 142.89 155.85 142.15 155.50 C 141.41 155.16 140.54 155.47 140.19 156.21 L 139.75 157.15 C 139.41 157.88 139.72 158.76 140.46 159.11 C 141.20 159.45 142.07 159.14 142.42 158.40 Z M 142.83 157.49 L 143.28 156.59 C 143.65 155.87 143.36 155.00 142.64 154.63 C 141.92 154.27 141.04 154.56 140.67 155.28 L 140.22 156.18 C 139.86 156.90 140.15 157.78 140.87 158.14 C 141.59 158.50 142.47 158.21 142.83 157.49 Z M 143.26 156.62 L 143.70 155.79 C 144.08 155.08 143.82 154.20 143.11 153.82 C 142.41 153.45 141.53 153.71 141.15 154.42 L 140.70 155.25 C 140.32 155.96 140.59 156.84 141.29 157.21 C 142.00 157.59 142.88 157.33 143.26 156.62 Z M 143.68 155.82 L 144.24 154.83 C 144.63 154.14 144.39 153.26 143.70 152.87 C 143.01 152.47 142.13 152.72 141.73 153.41 L 141.17 154.39 C 140.78 155.08 141.02 155.96 141.71 156.35 C 142.41 156.75 143.29 156.51 143.68 155.82 Z M 144.21 154.87 L 144.75 153.98 C 145.16 153.31 144.95 152.42 144.27 152.01 C 143.59 151.60 142.71 151.81 142.29 152.49 L 141.76 153.38 C 141.34 154.05 141.56 154.94 142.24 155.35 C 142.92 155.76 143.80 155.55 144.21 154.87 Z M 144.73 154.01 L 145.23 153.23 C 145.66 152.56 145.47 151.67 144.80 151.25 C 144.14 150.82 143.25 151.01 142.82 151.68 L 142.32 152.46 C 141.89 153.13 142.08 154.01 142.75 154.44 C 143.41 154.87 144.30 154.68 144.73 154.01 Z M 145.22 153.24 L 145.69 152.52 C 146.13 151.86 145.95 150.98 145.29 150.54 C 144.64 150.11 143.75 150.29 143.31 150.94 L 142.84 151.66 C 142.40 152.32 142.58 153.21 143.24 153.64 C 143.90 154.08 144.78 153.90 145.22 153.24 Z"
      fill="black"
      fill-rule="nonzero" /></svg>