<svg xmlns="http://www.w3.org/2000/svg" width="300" height="300" viewBox="0 0 300 300">
<path d="M 139.68 140.60 L 139.76 139.52 C 139.82 138.68 139.19 137.94 138.34 137.88 C 137.50 137.82 136.77 138.45 136.71 139.30 L 136.63 140.38 C 136.57 141.22 137.20 141.95 138.04 142.01 C 138.89 142.07 139.62 141.44 139.68 140.60 Z M 139.76 139.60 L 139.89 138.57 C 139.99 137.72 139.39 136.95 138.55 136.85 C 137.71 136.74 136.94 137.34 136.83 138.19 L 136.70 139.22 C 136.60 140.06 137.20 140.83 138.04 140.94 C 138.89 141.04 139.66 140.44 139.76 139.60 Z M 139.87 138.74 L 140.09 137.81 C 140.30 136.98 139.79 136.14 138.95 135.94 C 138.12 135.73 137.28 136.25 137.08 137.08 L 136.85 138.01 C 136.65 138.84 137.16 139.68 137.99 139.88 C 138.83 140.09 139.66 139.58 139.87 138.74 Z M 139.99 138.13 L 140.39 137.31 C 140.76 136.54 140.44 135.60 139.66 135.23 C 138.89 134.85 137.96 135.17 137.58 135.95 L 137.18 136.76 C 136.81 137.54 137.13 138.47 137.91 138.85 C 138.68 139.22 139.61 138.90 139.99 138.13 Z M 140.11 137.72 L 140.78 137.03 C 141.38 136.41 141.37 135.42 140.75 134.82 C 140.13 134.21 139.13 134.23 138.53 134.85 L 137.86 135.54 C 137.26 136.16 137.27 137.15 137.89 137.76 C 138.51 138.36 139.50 138.35 140.11 137.72 Z M 140.40 137.32 L 141.27 136.85 C 142.03 136.44 142.32 135.48 141.90 134.72 C 141.49 133.96 140.53 133.68 139.77 134.09 L 138.90 134.56 C 138.14 134.98 137.86 135.93 138.27 136.69 C 138.69 137.46 139.64 137.74 140.40 137.32 Z M 140.95 136.99 L 141.95 136.71 C 142.79 136.47 143.28 135.60 143.04 134.76 C 142.80 133.92 141.93 133.43 141.09 133.67 L 140.09 133.95 C 139.25 134.19 138.76 135.06 139.00 135.90 C 139.24 136.74 140.11 137.23 140.95 136.99 Z M 141.71 136.76 L 142.68 136.64 C 143.55 136.54 144.17 135.75 144.06 134.89 C 143.96 134.02 143.18 133.40 142.31 133.50 L 141.34 133.62 C 140.47 133.72 139.85 134.51 139.95 135.37 C 140.05 136.24 140.84 136.86 141.71 136.76 Z M 142.46 136.65 L 143.46 136.68 C 144.33 136.70 145.06 136.01 145.08 135.13 C 145.10 134.26 144.41 133.54 143.54 133.52 L 142.53 133.49 C 141.66 133.47 140.93 134.16 140.91 135.04 C 140.89 135.91 141.58 136.63 142.46 136.65 Z M 143.22 136.66 L 144.21 136.83 C 145.08 136.99 145.90 136.41 146.05 135.55 C 146.20 134.69 145.63 133.87 144.77 133.71 L 143.78 133.54 C 142.91 133.38 142.09 133.96 141.94 134.82 C 141.79 135.68 142.36 136.50 143.22 136.66 Z M 143.95 136.76 L 144.87 137.10 C 145.69 137.39 146.60 136.97 146.90 136.14 C 147.20 135.32 146.77 134.41 145.95 134.11 L 145.03 133.78 C 144.21 133.49 143.30 133.91 143.00 134.74 C 142.70 135.56 143.13 136.47 143.95 136.76 Z M 144.63 136.99 L 145.45 137.45 C 146.21 137.89 147.18 137.62 147.62 136.86 C 148.05 136.09 147.78 135.12 147.02 134.69 L 146.19 134.22 C 145.43 133.79 144.46 134.06 144.03 134.82 C 143.60 135.58 143.86 136.55 144.63 136.99 Z M 145.26 137.33 L 146.05 137.94 C 146.74 138.47 147.74 138.34 148.28 137.65 C 148.81 136.95 148.68 135.95 147.99 135.42 L 147.20 134.81 C 146.51 134.28 145.51 134.41 144.98 135.10 C 144.44 135.80 144.57 136.80 145.26 137.33 Z M 145.91 137.82 L 146.67 138.55 C 147.30 139.16 148.31 139.14 148.92 138.51 C 149.53 137.88 149.51 136.87 148.88 136.26 L 148.12 135.53 C 147.49 134.92 146.48 134.94 145.87 135.57 C 145.26 136.21 145.28 137.21 145.91 137.82 Z M 146.58 138.46 L 147.24 139.20 C 147.82 139.86 148.83 139.92 149.48 139.33 C 150.14 138.75 150.20 137.74 149.62 137.08 L 148.96 136.35 C 148.38 135.69 147.37 135.63 146.72 136.21 C 146.06 136.80 146.00 137.81 146.58 138.46 Z M 147.18 139.13 L 147.77 139.88 C 148.31 140.57 149.32 140.68 150.01 140.14 C 150.70 139.59 150.81 138.59 150.27 137.89 L 149.68 137.15 C 149.13 136.46 148.13 136.34 147.44 136.89 C 146.75 137.44 146.63 138.44 147.18 139.13 Z M 147.72 139.82 L 148.30 140.62 C 148.81 141.34 149.81 141.51 150.53 140.99 C 151.24 140.48 151.41 139.48 150.89 138.76 L 150.32 137.95 C 149.80 137.24 148.80 137.07 148.09 137.59 C 147.37 138.10 147.20 139.10 147.72 139.82 Z M 148.25 140.57 L 148.82 141.43 C 149.30 142.17 150.29 142.38 151.03 141.90 C 151.77 141.42 151.98 140.43 151.50 139.69 L 150.94 138.82 C 150.45 138.08 149.46 137.87 148.72 138.35 C 147.98 138.83 147.77 139.82 148.25 140.57 Z M 148.78 141.38 L 149.32 142.29 C 149.77 143.05 150.76 143.31 151.52 142.86 C 152.28 142.40 152.53 141.42 152.08 140.66 L 151.54 139.74 C 151.09 138.98 150.10 138.73 149.34 139.18 C 148.58 139.63 148.33 140.61 148.78 141.38 Z M 149.29 142.24 L 149.76 143.11 C 150.19 143.89 151.16 144.18 151.94 143.76 C 152.72 143.34 153.01 142.37 152.59 141.59 L 152.11 140.71 C 151.69 139.93 150.72 139.64 149.94 140.06 C 149.16 140.49 148.87 141.46 149.29 142.24 Z M 149.73 143.07 L 150.18 143.96 C 150.57 144.75 151.54 145.08 152.33 144.69 C 153.13 144.29 153.46 143.32 153.06 142.53 L 152.62 141.63 C 152.22 140.84 151.26 140.51 150.46 140.91 C 149.66 141.30 149.34 142.27 149.73 143.07 Z M 150.15 143.91 L 150.56 144.82 C 150.93 145.64 151.88 146.00 152.70 145.63 C 153.51 145.27 153.87 144.31 153.50 143.50 L 153.09 142.58 C 152.72 141.77 151.77 141.41 150.95 141.77 C 150.14 142.14 149.78 143.09 150.15 143.91 Z M 150.53 144.77 L 150.91 145.70 C 151.25 146.53 152.19 146.93 153.02 146.59 C 153.85 146.26 154.25 145.31 153.91 144.49 L 153.53 143.55 C 153.19 142.72 152.25 142.33 151.42 142.66 C 150.60 143.00 150.20 143.94 150.53 144.77 Z M 150.89 145.65 L 151.23 146.59 C 151.53 147.43 152.46 147.87 153.30 147.57 C 154.14 147.26 154.58 146.33 154.28 145.49 L 153.94 144.55 C 153.63 143.70 152.70 143.27 151.86 143.57 C 151.02 143.87 150.58 144.80 150.89 145.65 Z M 151.20 146.52 L 151.50 147.49 C 151.77 148.35 152.68 148.83 153.54 148.56 C 154.39 148.29 154.87 147.38 154.61 146.53 L 154.30 145.56 C 154.04 144.70 153.13 144.22 152.27 144.49 C 151.41 144.76 150.93 145.67 151.20 146.52 Z M 151.48 147.42 L 151.74 148.41 C 151.97 149.28 152.86 149.80 153.73 149.57 C 154.60 149.34 155.12 148.45 154.89 147.58 L 154.63 146.59 C 154.40 145.72 153.51 145.20 152.64 145.43 C 151.77 145.66 151.25 146.55 151.48 147.42 Z M 151.72 148.34 L 151.93 149.32 C 152.12 150.20 152.99 150.76 153.87 150.57 C 154.76 150.37 155.31 149.50 155.12 148.62 L 154.91 147.64 C 154.71 146.76 153.84 146.20 152.96 146.40 C 152.08 146.59 151.52 147.46 151.72 148.34 Z M 151.91 149.26 L 152.09 150.24 C 152.25 151.13 153.10 151.72 153.99 151.56 C 154.88 151.40 155.47 150.55 155.31 149.66 L 155.14 148.69 C 154.98 147.80 154.13 147.20 153.24 147.36 C 152.35 147.52 151.76 148.37 151.91 149.26 Z M 152.08 150.18 L 152.21 151.15 C 152.34 152.05 153.17 152.67 154.07 152.55 C 154.96 152.42 155.59 151.59 155.46 150.70 L 155.32 149.72 C 155.20 148.82 154.37 148.20 153.47 148.33 C 152.57 148.45 151.95 149.28 152.08 150.18 Z M 152.20 151.10 L 152.31 152.09 C 152.41 152.99 153.22 153.65 154.12 153.55 C 155.02 153.45 155.67 152.64 155.58 151.74 L 155.47 150.75 C 155.37 149.85 154.56 149.19 153.66 149.29 C 152.76 149.39 152.11 150.20 152.20 151.10 Z M 152.30 152.04 L 152.38 153.05 C 152.45 153.96 153.24 154.64 154.15 154.57 C 155.06 154.50 155.73 153.70 155.66 152.80 L 155.59 151.79 C 155.51 150.88 154.72 150.20 153.82 150.27 C 152.91 150.34 152.23 151.14 152.30 152.04 Z M 152.37 153.01 L 152.43 154.01 C 152.47 154.92 153.25 155.62 154.16 155.58 C 155.07 155.53 155.77 154.75 155.72 153.84 L 155.67 152.84 C 155.62 151.93 154.85 151.23 153.94 151.28 C 153.03 151.33 152.33 152.10 152.37 153.01 Z M 152.42 153.98 L 152.45 154.97 C 152.48 155.89 153.24 156.60 154.15 156.58 C 155.07 156.55 155.78 155.79 155.76 154.87 L 155.73 153.88 C 155.70 152.97 154.94 152.25 154.02 152.28 C 153.11 152.30 152.39 153.07 152.42 153.98 Z M 152.45 154.95 L 152.46 155.93 C 152.47 156.85 153.22 157.58 154.14 157.57 C 155.05 157.55 155.78 156.80 155.77 155.89 L 155.76 154.90 C 155.75 153.99 155.00 153.26 154.08 153.27 C 153.17 153.28 152.44 154.03 152.45 154.95 Z M 152.46 155.91 L 152.46 156.94 C 152.45 157.85 153.20 158.60 154.11 158.60 C 155.03 158.60 155.77 157.86 155.77 156.94 L 155.77 155.91 C 155.78 155.00 155.04 154.25 154.12 154.25 C 153.20 154.25 152.46 154.99 152.46 155.91 Z M 152.45 156.90 L 152.43 157.94 C 152.40 158.86 153.13 159.62 154.04 159.64 C 154.96 159.67 155.72 158.95 155.75 158.03 L 155.77 156.98 C 155.80 156.07 155.07 155.30 154.16 155.28 C 153.24 155.25 152.48 155.98 152.45 156.90 Z M 152.43 157.86 L 152.36 158.87 C 152.29 159.79 152.98 160.58 153.89 160.65 C 154.81 160.72 155.60 160.03 155.67 159.12 L 155.74 158.11 C 155.81 157.19 155.12 156.39 154.21 156.33 C 153.29 156.26 152.50 156.95 152.43 157.86 Z M 152.37 158.75 L 152.23 159.71 C 152.09 160.62 152.72 161.46 153.63 161.60 C 154.54 161.73 155.38 161.10 155.52 160.19 L 155.66 159.24 C 155.79 158.33 155.17 157.48 154.26 157.35 C 153.35 157.21 152.50 157.84 152.37 158.75 Z M 152.26 159.53 L 152.02 160.44 C 151.79 161.33 152.32 162.24 153.21 162.47 C 154.10 162.70 155.01 162.17 155.24 161.28 L 155.48 160.37 C 155.71 159.48 155.18 158.57 154.29 158.34 C 153.40 158.11 152.49 158.64 152.26 159.53 Z M 152.10 160.21 L 151.70 161.16 C 151.33 162.01 151.73 162.98 152.57 163.35 C 153.42 163.71 154.40 163.31 154.76 162.47 L 155.17 161.52 C 155.53 160.67 155.13 159.69 154.29 159.33 C 153.44 158.97 152.46 159.36 152.10 160.21 Z M 151.82 160.93 L 151.29 161.77 C 150.80 162.55 151.03 163.58 151.81 164.07 C 152.59 164.56 153.62 164.32 154.11 163.55 L 154.64 162.70 C 155.13 161.92 154.89 160.89 154.11 160.40 C 153.33 159.91 152.31 160.15 151.82 160.93 Z M 151.43 161.58 L 150.79 162.32 C 150.20 163.02 150.28 164.07 150.98 164.67 C 151.68 165.27 152.73 165.18 153.33 164.48 L 153.96 163.74 C 154.56 163.04 154.48 161.99 153.78 161.39 C 153.08 160.79 152.02 160.88 151.43 161.58 Z M 150.94 162.16 L 150.22 162.82 C 149.54 163.44 149.48 164.49 150.10 165.17 C 150.72 165.86 151.77 165.91 152.45 165.29 L 153.18 164.64 C 153.86 164.02 153.92 162.97 153.30 162.28 C 152.68 161.60 151.63 161.55 150.94 162.16 Z M 150.38 162.69 L 149.56 163.27 C 148.81 163.79 148.63 164.83 149.16 165.59 C 149.69 166.34 150.73 166.52 151.48 165.99 L 152.30 165.42 C 153.05 164.89 153.23 163.85 152.70 163.10 C 152.17 162.35 151.13 162.16 150.38 162.69 Z M 149.74 163.16 L 148.86 163.63 C 148.05 164.06 147.74 165.07 148.18 165.89 C 148.61 166.70 149.62 167.00 150.43 166.57 L 151.31 166.10 C 152.12 165.66 152.43 164.65 151.99 163.84 C 151.56 163.03 150.55 162.73 149.74 163.16 Z M 149.04 163.55 L 148.10 163.92 C 147.24 164.25 146.82 165.22 147.16 166.08 C 147.50 166.93 148.46 167.35 149.32 167.02 L 150.26 166.65 C 151.11 166.31 151.53 165.35 151.20 164.49 C 150.86 163.63 149.89 163.21 149.04 163.55 Z M 148.27 163.86 L 147.33 164.12 C 146.44 164.36 145.92 165.28 146.16 166.16 C 146.40 167.05 147.32 167.57 148.20 167.33 L 149.15 167.07 C 150.04 166.83 150.56 165.92 150.32 165.03 C 150.07 164.14 149.16 163.62 148.27 163.86 Z M 147.47 164.09 L 146.50 164.26 C 145.59 164.42 144.99 165.29 145.15 166.19 C 145.32 167.09 146.18 167.70 147.08 167.54 L 148.06 167.36 C 148.96 167.20 149.56 166.34 149.40 165.43 C 149.24 164.53 148.38 163.93 147.47 164.09 Z M 146.61 164.25 L 145.61 164.36 C 144.70 164.45 144.04 165.27 144.14 166.18 C 144.24 167.10 145.05 167.75 145.97 167.66 L 146.97 167.55 C 147.88 167.45 148.54 166.63 148.44 165.72 C 148.34 164.81 147.52 164.15 146.61 164.25 Z M 145.70 164.35 L 144.68 164.41 C 143.76 164.46 143.06 165.24 143.11 166.15 C 143.16 167.07 143.94 167.77 144.86 167.72 L 145.88 167.66 C 146.79 167.61 147.49 166.83 147.44 165.92 C 147.39 165.00 146.61 164.30 145.70 164.35 Z M 144.74 164.41 L 143.76 164.43 C 142.84 164.44 142.12 165.19 142.13 166.10 C 142.14 167.01 142.89 167.74 143.80 167.73 L 144.79 167.71 C 145.70 167.70 146.43 166.95 146.42 166.04 C 146.41 165.13 145.66 164.40 144.74 164.41 Z M 143.84 164.43 L 142.85 164.40 C 141.94 164.36 141.18 165.07 141.15 165.98 C 141.11 166.88 141.82 167.65 142.73 167.68 L 143.72 167.72 C 144.63 167.76 145.39 167.05 145.42 166.14 C 145.46 165.23 144.75 164.47 143.84 164.43 Z M 142.97 164.41 L 141.97 164.30 C 141.07 164.20 140.26 164.85 140.16 165.75 C 140.07 166.65 140.72 167.46 141.61 167.56 L 142.61 167.67 C 143.51 167.77 144.32 167.12 144.42 166.22 C 144.51 165.32 143.87 164.51 142.97 164.41 Z M 142.11 164.33 L 141.11 164.13 C 140.23 163.96 139.37 164.53 139.20 165.41 C 139.02 166.30 139.59 167.15 140.48 167.33 L 141.47 167.53 C 142.36 167.71 143.22 167.13 143.39 166.25 C 143.57 165.37 142.99 164.51 142.11 164.33 Z M 141.26 164.18 L 140.34 163.90 C 139.49 163.65 138.58 164.13 138.33 164.99 C 138.07 165.85 138.56 166.75 139.41 167.01 L 140.33 167.28 C 141.19 167.54 142.09 167.05 142.35 166.20 C 142.60 165.34 142.12 164.44 141.26 164.18 Z M 140.47 163.96 L 139.56 163.60 C 138.73 163.27 137.80 163.68 137.47 164.50 C 137.14 165.33 137.55 166.27 138.37 166.59 L 139.29 166.95 C 140.11 167.28 141.05 166.88 141.38 166.05 C 141.70 165.22 141.30 164.29 140.47 163.96 Z M 139.67 163.66 L 138.76 163.22 C 137.97 162.83 137.01 163.16 136.62 163.95 C 136.24 164.74 136.57 165.70 137.36 166.09 L 138.26 166.53 C 139.06 166.92 140.02 166.59 140.40 165.80 C 140.79 165.01 140.46 164.05 139.67 163.66 Z M 138.86 163.28 L 137.96 162.76 C 137.20 162.32 136.23 162.58 135.79 163.34 C 135.35 164.09 135.61 165.07 136.37 165.51 L 137.26 166.03 C 138.02 166.47 138.99 166.21 139.43 165.45 C 139.87 164.69 139.62 163.72 138.86 163.28 Z M 138.04 162.82 L 137.20 162.26 C 136.47 161.77 135.49 161.97 135.01 162.69 C 134.53 163.41 134.72 164.39 135.44 164.88 L 136.29 165.44 C 137.01 165.93 137.99 165.73 138.48 165.01 C 138.96 164.29 138.77 163.31 138.04 162.82 Z M 137.27 162.32 L 136.46 161.71 C 135.77 161.19 134.79 161.32 134.27 162.01 C 133.75 162.70 133.88 163.68 134.57 164.20 L 135.38 164.81 C 136.06 165.34 137.04 165.20 137.57 164.51 C 138.09 163.82 137.95 162.84 137.27 162.32 Z M 136.53 161.78 L 135.76 161.12 C 135.11 160.56 134.13 160.64 133.57 161.29 C 133.01 161.94 133.09 162.92 133.74 163.48 L 134.51 164.13 C 135.16 164.69 136.14 164.62 136.69 163.97 C 137.25 163.32 137.18 162.34 136.53 161.78 Z M 135.82 161.20 L 135.11 160.50 C 134.50 159.91 133.53 159.92 132.93 160.53 C 132.34 161.13 132.35 162.11 132.96 162.70 L 133.67 163.40 C 134.28 163.99 135.26 163.98 135.85 163.37 C 136.44 162.77 136.43 161.79 135.82 161.20 Z M 135.17 160.59 L 134.52 159.85 C 133.96 159.22 133.00 159.17 132.37 159.73 C 131.74 160.28 131.68 161.25 132.24 161.88 L 132.89 162.61 C 133.45 163.24 134.42 163.30 135.05 162.74 C 135.68 162.18 135.73 161.22 135.17 160.59 Z M 134.59 159.96 L 133.98 159.14 C 133.48 158.47 132.53 158.34 131.86 158.84 C 131.20 159.34 131.06 160.29 131.56 160.95 L 132.17 161.77 C 132.67 162.44 133.62 162.58 134.29 162.08 C 134.96 161.58 135.09 160.63 134.59 159.96 Z M 134.05 159.26 L 133.52 158.41 C 133.09 157.71 132.17 157.49 131.46 157.92 C 130.76 158.35 130.54 159.28 130.97 159.98 L 131.49 160.83 C 131.93 161.54 132.85 161.76 133.55 161.32 C 134.26 160.89 134.48 159.97 134.05 159.26 Z M 133.58 158.54 L 133.14 157.66 C 132.78 156.92 131.89 156.62 131.16 156.98 C 130.42 157.34 130.12 158.23 130.48 158.97 L 130.92 159.85 C 131.28 160.59 132.17 160.89 132.90 160.53 C 133.64 160.17 133.94 159.28 133.58 158.54 Z M 133.18 157.79 L 132.83 156.86 C 132.54 156.11 131.69 155.72 130.94 156.01 C 130.18 156.30 129.80 157.15 130.09 157.91 L 130.44 158.83 C 130.73 159.59 131.58 159.97 132.33 159.68 C 133.09 159.40 133.47 158.55 133.18 157.79 Z M 132.86 156.99 L 132.59 156.05 C 132.37 155.27 131.57 154.82 130.79 155.04 C 130.02 155.26 129.57 156.07 129.79 156.84 L 130.06 157.79 C 130.28 158.56 131.08 159.01 131.86 158.79 C 132.63 158.57 133.08 157.76 132.86 156.99 Z M 132.61 156.15 L 132.41 155.18 C 132.24 154.40 131.47 153.90 130.69 154.06 C 129.90 154.23 129.40 155.00 129.57 155.78 L 129.77 156.75 C 129.94 157.53 130.71 158.03 131.49 157.86 C 132.27 157.70 132.77 156.93 132.61 156.15 Z M 132.41 155.25 L 132.25 154.26 C 132.13 153.47 131.38 152.94 130.60 153.06 C 129.81 153.19 129.28 153.93 129.40 154.72 L 129.56 155.71 C 129.69 156.50 130.43 157.03 131.22 156.90 C 132.00 156.78 132.54 156.04 132.41 155.25 Z M 132.25 154.30 L 132.12 153.30 C 132.02 152.51 131.30 151.96 130.51 152.06 C 129.72 152.16 129.17 152.88 129.27 153.67 L 129.40 154.67 C 129.51 155.46 130.23 156.02 131.01 155.91 C 131.80 155.81 132.35 155.09 132.25 154.30 Z M 132.12 153.31 L 132.03 152.62 C 131.94 151.84 131.23 151.28 130.44 151.37 C 129.66 151.46 129.10 152.18 129.19 152.96 L 129.28 153.65 C 129.37 154.44 130.08 155.00 130.86 154.90 C 131.65 154.81 132.21 154.10 132.12 153.31 Z"
      fill="black"
      fill-rule="nonzero" /></svg>