<svg xmlns="http://www.w3.org/2000/svg" width="300" height="300" viewBox="0 0 300 300">
<path d="M 141.41 150.08 L 141.46 149.01 C 141.50 148.16 140.84 147.44 139.99 147.40 C 139.15 147.36 138.42 148.02 138.38 148.87 L 138.34 149.94 C 138.30 150.79 138.95 151.51 139.80 151.55 C 140.65 151.59 141.37 150.93 141.41 150.08 Z M 141.45 149.11 L 141.57 148.09 C 141.67 147.25 141.06 146.49 140.21 146.39 C 139.37 146.29 138.61 146.90 138.51 147.75 L 138.39 148.76 C 138.30 149.61 138.90 150.37 139.75 150.47 C 140.59 150.56 141.36 149.96 141.45 149.11 Z M 141.52 148.33 L 141.77 147.42 C 142.00 146.60 141.51 145.76 140.70 145.53 C 139.88 145.31 139.03 145.79 138.80 146.61 L 138.56 147.51 C 138.33 148.33 138.81 149.18 139.63 149.40 C 140.45 149.63 141.30 149.15 141.52 148.33 Z M 141.60 147.82 L 142.09 147.03 C 142.54 146.31 142.31 145.36 141.59 144.91 C 140.86 144.47 139.91 144.69 139.47 145.41 L 138.98 146.21 C 138.53 146.93 138.75 147.88 139.48 148.33 C 140.20 148.77 141.15 148.55 141.60 147.82 Z M 141.76 147.42 L 142.51 146.80 C 143.17 146.26 143.27 145.28 142.73 144.62 C 142.18 143.96 141.21 143.86 140.55 144.41 L 139.79 145.03 C 139.13 145.57 139.04 146.54 139.58 147.21 C 140.12 147.87 141.10 147.96 141.76 147.42 Z M 142.20 147.01 L 143.12 146.58 C 143.89 146.20 144.22 145.27 143.85 144.50 C 143.48 143.72 142.55 143.39 141.77 143.76 L 140.86 144.20 C 140.08 144.57 139.75 145.50 140.12 146.28 C 140.49 147.05 141.42 147.38 142.20 147.01 Z M 142.91 146.67 L 143.79 146.40 C 144.62 146.14 145.08 145.26 144.83 144.43 C 144.57 143.61 143.69 143.14 142.86 143.40 L 141.98 143.67 C 141.15 143.92 140.69 144.80 140.95 145.63 C 141.20 146.46 142.08 146.92 142.91 146.67 Z M 143.64 146.44 L 144.50 146.27 C 145.36 146.10 145.91 145.27 145.74 144.41 C 145.57 143.56 144.74 143.01 143.88 143.18 L 143.02 143.35 C 142.16 143.52 141.61 144.35 141.78 145.21 C 141.95 146.06 142.78 146.61 143.64 146.44 Z M 144.38 146.29 L 145.37 146.17 C 146.24 146.07 146.85 145.28 146.75 144.42 C 146.65 143.55 145.86 142.93 144.99 143.04 L 144.01 143.15 C 143.14 143.26 142.52 144.04 142.62 144.91 C 142.73 145.78 143.51 146.40 144.38 146.29 Z M 145.28 146.19 L 146.45 146.11 C 147.33 146.06 147.99 145.30 147.93 144.43 C 147.88 143.56 147.12 142.89 146.25 142.95 L 145.08 143.02 C 144.21 143.08 143.54 143.83 143.60 144.71 C 143.65 145.58 144.41 146.24 145.28 146.19 Z M 146.40 146.12 L 147.36 146.09 C 148.23 146.06 148.92 145.32 148.89 144.44 C 148.86 143.57 148.13 142.88 147.25 142.91 L 146.30 142.94 C 145.42 142.97 144.73 143.71 144.76 144.58 C 144.79 145.46 145.53 146.15 146.40 146.12 Z M 147.32 146.09 L 148.29 146.08 C 149.17 146.07 149.88 145.35 149.87 144.47 C 149.86 143.59 149.13 142.88 148.25 142.89 L 147.28 142.91 C 146.40 142.92 145.70 143.64 145.71 144.52 C 145.72 145.40 146.44 146.10 147.32 146.09 Z M 148.25 146.08 L 149.27 146.10 C 150.15 146.11 150.88 145.40 150.89 144.52 C 150.90 143.64 150.20 142.92 149.32 142.90 L 148.29 142.89 C 147.41 142.88 146.69 143.58 146.68 144.46 C 146.67 145.35 147.37 146.07 148.25 146.08 Z M 149.22 146.10 L 150.27 146.14 C 151.15 146.18 151.90 145.50 151.93 144.62 C 151.97 143.74 151.29 142.99 150.41 142.95 L 149.36 142.90 C 148.48 142.86 147.74 143.55 147.70 144.43 C 147.66 145.31 148.34 146.06 149.22 146.10 Z M 150.21 146.14 L 151.24 146.23 C 152.12 146.30 152.90 145.64 152.97 144.76 C 153.04 143.88 152.39 143.11 151.51 143.04 L 150.47 142.95 C 149.59 142.88 148.81 143.53 148.74 144.41 C 148.67 145.30 149.32 146.07 150.21 146.14 Z M 151.16 146.22 L 152.18 146.36 C 153.06 146.47 153.86 145.85 153.98 144.98 C 154.10 144.10 153.48 143.29 152.60 143.18 L 151.58 143.04 C 150.71 142.93 149.90 143.54 149.78 144.42 C 149.67 145.30 150.29 146.11 151.16 146.22 Z M 152.08 146.34 L 153.12 146.55 C 153.99 146.72 154.84 146.16 155.01 145.29 C 155.19 144.42 154.62 143.57 153.75 143.40 L 152.70 143.19 C 151.83 143.02 150.99 143.58 150.81 144.45 C 150.64 145.32 151.21 146.17 152.08 146.34 Z M 153.01 146.53 L 153.99 146.80 C 154.85 147.03 155.74 146.53 155.97 145.67 C 156.21 144.81 155.70 143.92 154.84 143.69 L 153.86 143.42 C 153.00 143.18 152.12 143.69 151.88 144.55 C 151.65 145.41 152.15 146.29 153.01 146.53 Z M 153.88 146.76 L 154.81 147.09 C 155.65 147.39 156.57 146.95 156.87 146.11 C 157.17 145.27 156.72 144.34 155.88 144.05 L 154.96 143.72 C 154.11 143.42 153.19 143.86 152.90 144.71 C 152.60 145.55 153.04 146.47 153.88 146.76 Z M 154.70 147.05 L 155.59 147.44 C 156.41 147.79 157.36 147.42 157.71 146.60 C 158.07 145.78 157.69 144.82 156.87 144.47 L 155.99 144.09 C 155.17 143.73 154.22 144.11 153.86 144.93 C 153.51 145.75 153.88 146.70 154.70 147.05 Z M 155.49 147.39 L 156.34 147.83 C 157.14 148.24 158.11 147.93 158.52 147.13 C 158.93 146.33 158.62 145.36 157.82 144.95 L 156.97 144.51 C 156.17 144.10 155.20 144.42 154.79 145.21 C 154.38 146.01 154.69 146.99 155.49 147.39 Z M 156.25 147.79 L 157.11 148.30 C 157.88 148.75 158.88 148.50 159.34 147.73 C 159.79 146.95 159.54 145.96 158.77 145.50 L 157.91 144.99 C 157.14 144.53 156.14 144.79 155.68 145.56 C 155.22 146.33 155.48 147.33 156.25 147.79 Z M 157.02 148.25 L 157.85 148.81 C 158.59 149.32 159.61 149.12 160.12 148.38 C 160.62 147.63 160.43 146.62 159.68 146.11 L 158.85 145.55 C 158.11 145.04 157.09 145.24 156.59 145.98 C 156.08 146.73 156.28 147.74 157.02 148.25 Z M 157.76 148.76 L 158.56 149.37 C 159.27 149.92 160.30 149.79 160.85 149.07 C 161.41 148.36 161.28 147.33 160.56 146.78 L 159.77 146.16 C 159.05 145.61 158.02 145.74 157.47 146.46 C 156.92 147.17 157.05 148.20 157.76 148.76 Z M 158.47 149.31 L 159.22 149.97 C 159.91 150.57 160.94 150.50 161.54 149.82 C 162.14 149.14 162.08 148.10 161.39 147.50 L 160.64 146.84 C 159.96 146.24 158.92 146.30 158.32 146.99 C 157.72 147.67 157.79 148.71 158.47 149.31 Z M 159.14 149.90 L 159.85 150.61 C 160.49 151.25 161.54 151.25 162.18 150.61 C 162.83 149.96 162.83 148.92 162.18 148.27 L 161.48 147.56 C 160.83 146.92 159.79 146.92 159.14 147.56 C 158.50 148.21 158.50 149.25 159.14 149.90 Z M 159.77 150.53 L 160.44 151.30 C 161.04 151.99 162.09 152.06 162.78 151.46 C 163.47 150.85 163.54 149.81 162.94 149.12 L 162.26 148.35 C 161.66 147.66 160.61 147.59 159.92 148.19 C 159.24 148.79 159.17 149.84 159.77 150.53 Z M 160.36 151.21 L 160.96 152.02 C 161.52 152.75 162.56 152.90 163.30 152.35 C 164.03 151.79 164.18 150.75 163.63 150.02 L 163.02 149.21 C 162.47 148.47 161.42 148.32 160.69 148.88 C 159.95 149.43 159.80 150.47 160.36 151.21 Z M 160.88 151.91 L 161.42 152.76 C 161.91 153.54 162.94 153.77 163.72 153.27 C 164.50 152.78 164.74 151.75 164.24 150.97 L 163.71 150.12 C 163.21 149.34 162.18 149.11 161.40 149.60 C 160.62 150.10 160.39 151.13 160.88 151.91 Z M 161.34 152.63 L 161.79 153.51 C 162.21 154.33 163.22 154.66 164.05 154.23 C 164.87 153.81 165.20 152.80 164.77 151.97 L 164.32 151.09 C 163.90 150.27 162.89 149.94 162.06 150.37 C 161.24 150.79 160.91 151.80 161.34 152.63 Z M 161.71 153.35 L 162.07 154.26 C 162.41 155.13 163.39 155.55 164.25 155.21 C 165.12 154.87 165.55 153.89 165.21 153.03 L 164.85 152.12 C 164.51 151.25 163.53 150.83 162.66 151.17 C 161.80 151.51 161.37 152.49 161.71 153.35 Z M 162.00 154.09 L 162.26 155.04 C 162.51 155.94 163.44 156.47 164.35 156.22 C 165.25 155.97 165.78 155.04 165.53 154.14 L 165.27 153.20 C 165.02 152.29 164.09 151.76 163.19 152.01 C 162.29 152.26 161.76 153.19 162.00 154.09 Z M 162.22 154.88 L 162.39 155.85 C 162.55 156.77 163.43 157.39 164.36 157.23 C 165.28 157.07 165.90 156.19 165.74 155.26 L 165.57 154.30 C 165.41 153.37 164.53 152.75 163.60 152.91 C 162.68 153.08 162.06 153.95 162.22 154.88 Z M 162.37 155.71 L 162.46 156.70 C 162.54 157.64 163.37 158.33 164.31 158.25 C 165.25 158.16 165.94 157.33 165.85 156.40 L 165.76 155.40 C 165.68 154.46 164.85 153.77 163.91 153.86 C 162.97 153.94 162.28 154.77 162.37 155.71 Z M 162.45 156.59 L 162.47 157.61 C 162.49 158.56 163.28 159.30 164.22 159.28 C 165.16 159.26 165.91 158.48 165.89 157.53 L 165.86 156.51 C 165.84 155.57 165.06 154.82 164.11 154.84 C 163.17 154.86 162.42 155.65 162.45 156.59 Z M 162.47 157.53 L 162.44 158.56 C 162.41 159.51 163.16 160.30 164.10 160.33 C 165.05 160.35 165.84 159.61 165.86 158.66 L 165.89 157.62 C 165.92 156.67 165.17 155.89 164.23 155.86 C 163.28 155.83 162.49 156.58 162.47 157.53 Z M 162.44 158.49 L 162.36 159.53 C 162.30 160.48 163.01 161.30 163.96 161.37 C 164.90 161.44 165.72 160.72 165.79 159.78 L 165.86 158.73 C 165.93 157.79 165.22 156.97 164.27 156.90 C 163.33 156.83 162.50 157.54 162.44 158.49 Z M 162.37 159.46 L 162.25 160.49 C 162.14 161.43 162.82 162.29 163.76 162.39 C 164.71 162.50 165.56 161.82 165.67 160.88 L 165.79 159.85 C 165.90 158.91 165.22 158.05 164.27 157.94 C 163.33 157.84 162.47 158.51 162.37 159.46 Z M 162.26 160.41 L 162.10 161.39 C 161.94 162.33 162.58 163.22 163.52 163.37 C 164.46 163.52 165.35 162.89 165.50 161.95 L 165.66 160.96 C 165.81 160.02 165.18 159.13 164.24 158.98 C 163.30 158.83 162.41 159.47 162.26 160.41 Z M 162.11 161.29 L 161.91 162.21 C 161.70 163.14 162.29 164.06 163.22 164.27 C 164.16 164.47 165.08 163.89 165.28 162.95 L 165.49 162.04 C 165.69 161.11 165.10 160.19 164.17 159.98 C 163.24 159.77 162.32 160.36 162.11 161.29 Z M 161.94 162.07 L 161.63 163.08 C 161.35 163.99 161.87 164.96 162.78 165.24 C 163.69 165.52 164.66 165.01 164.94 164.09 L 165.25 163.09 C 165.53 162.17 165.02 161.21 164.10 160.93 C 163.19 160.64 162.22 161.16 161.94 162.07 Z M 161.69 162.91 L 161.30 163.85 C 160.92 164.73 161.34 165.75 162.22 166.12 C 163.10 166.49 164.12 166.08 164.49 165.20 L 164.89 164.26 C 165.26 163.38 164.84 162.36 163.96 161.99 C 163.08 161.62 162.06 162.03 161.69 162.91 Z M 161.36 163.71 L 160.91 164.54 C 160.46 165.39 160.78 166.44 161.63 166.89 C 162.48 167.34 163.53 167.02 163.98 166.18 L 164.43 165.34 C 164.88 164.49 164.56 163.44 163.71 162.99 C 162.86 162.54 161.81 162.86 161.36 163.71 Z M 160.96 164.46 L 160.47 165.26 C 159.97 166.08 160.23 167.15 161.05 167.65 C 161.87 168.15 162.94 167.89 163.44 167.07 L 163.93 166.27 C 164.43 165.45 164.17 164.38 163.35 163.88 C 162.53 163.38 161.46 163.64 160.96 164.46 Z M 160.50 165.22 L 159.95 166.05 C 159.43 166.86 159.66 167.93 160.46 168.46 C 161.27 168.98 162.35 168.75 162.87 167.95 L 163.41 167.11 C 163.94 166.31 163.71 165.23 162.90 164.71 C 162.10 164.18 161.02 164.41 160.50 165.22 Z M 159.98 166.01 L 159.41 166.84 C 158.86 167.63 159.06 168.71 159.85 169.26 C 160.64 169.81 161.72 169.61 162.27 168.82 L 162.84 167.99 C 163.39 167.20 163.19 166.12 162.40 165.57 C 161.61 165.02 160.53 165.22 159.98 166.01 Z M 159.44 166.78 L 158.84 167.59 C 158.27 168.36 158.42 169.45 159.19 170.03 C 159.97 170.60 161.06 170.44 161.63 169.67 L 162.23 168.87 C 162.81 168.10 162.65 167.01 161.88 166.43 C 161.11 165.86 160.02 166.01 159.44 166.78 Z M 158.89 167.53 L 158.24 168.31 C 157.63 169.06 157.74 170.16 158.49 170.77 C 159.24 171.38 160.33 171.27 160.94 170.52 L 161.59 169.73 C 162.20 168.99 162.09 167.89 161.34 167.28 C 160.60 166.67 159.50 166.78 158.89 167.53 Z M 158.30 168.25 L 157.62 169.00 C 156.98 169.72 157.04 170.82 157.76 171.47 C 158.47 172.11 159.58 172.05 160.22 171.33 L 160.89 170.58 C 161.54 169.87 161.48 168.76 160.76 168.12 C 160.04 167.47 158.94 167.53 158.30 168.25 Z M 157.67 168.94 L 156.98 169.65 C 156.31 170.34 156.32 171.45 157.01 172.12 C 157.70 172.80 158.81 172.78 159.48 172.09 L 160.17 171.39 C 160.85 170.70 160.83 169.59 160.14 168.92 C 159.45 168.24 158.35 168.25 157.67 168.94 Z M 157.03 169.60 L 156.35 170.25 C 155.65 170.91 155.62 172.02 156.28 172.72 C 156.94 173.42 158.05 173.45 158.75 172.79 L 159.43 172.14 C 160.13 171.48 160.16 170.37 159.50 169.67 C 158.84 168.97 157.73 168.94 157.03 169.60 Z M 156.40 170.20 L 155.71 170.80 C 154.98 171.43 154.91 172.54 155.54 173.27 C 156.18 174.00 157.28 174.07 158.01 173.44 L 158.70 172.84 C 159.43 172.20 159.50 171.10 158.87 170.37 C 158.23 169.64 157.13 169.57 156.40 170.20 Z M 155.78 170.74 L 155.00 171.35 C 154.24 171.95 154.11 173.05 154.71 173.81 C 155.31 174.57 156.41 174.70 157.17 174.10 L 157.94 173.49 C 158.70 172.89 158.83 171.79 158.24 171.04 C 157.64 170.28 156.54 170.15 155.78 170.74 Z M 155.07 171.30 L 154.16 171.95 C 153.37 172.51 153.18 173.61 153.74 174.39 C 154.30 175.18 155.40 175.37 156.18 174.81 L 157.10 174.15 C 157.89 173.59 158.07 172.50 157.51 171.71 C 156.95 170.93 155.86 170.74 155.07 171.30 Z M 154.21 171.92 L 153.43 172.43 C 152.62 172.96 152.40 174.04 152.93 174.85 C 153.46 175.66 154.55 175.88 155.35 175.35 L 156.13 174.84 C 156.94 174.31 157.16 173.23 156.63 172.42 C 156.10 171.61 155.02 171.39 154.21 171.92 Z M 153.47 172.40 L 152.65 172.91 C 151.83 173.42 151.57 174.50 152.08 175.32 C 152.59 176.14 153.67 176.40 154.49 175.89 L 155.31 175.38 C 156.14 174.87 156.39 173.79 155.88 172.97 C 155.37 172.15 154.29 171.89 153.47 172.40 Z M 152.69 172.89 L 151.81 173.40 C 150.97 173.89 150.69 174.96 151.18 175.79 C 151.66 176.63 152.73 176.91 153.57 176.43 L 154.45 175.91 C 155.29 175.43 155.57 174.35 155.08 173.52 C 154.60 172.68 153.52 172.40 152.69 172.89 Z M 151.85 173.37 L 150.93 173.87 C 150.08 174.34 149.77 175.40 150.23 176.25 C 150.69 177.10 151.76 177.41 152.60 176.95 L 153.52 176.45 C 154.37 175.99 154.69 174.93 154.23 174.08 C 153.77 173.23 152.70 172.91 151.85 173.37 Z M 150.99 173.85 L 150.05 174.32 C 149.18 174.75 148.83 175.80 149.27 176.67 C 149.70 177.53 150.75 177.88 151.61 177.45 L 152.55 176.98 C 153.42 176.54 153.77 175.49 153.33 174.63 C 152.90 173.76 151.85 173.41 150.99 173.85 Z M 150.11 174.29 L 149.16 174.72 C 148.27 175.12 147.88 176.15 148.28 177.03 C 148.68 177.91 149.71 178.31 150.60 177.91 L 151.55 177.48 C 152.43 177.08 152.82 176.04 152.43 175.16 C 152.03 174.28 150.99 173.89 150.11 174.29 Z M 149.23 174.69 L 148.27 175.07 C 147.38 175.43 146.94 176.44 147.30 177.34 C 147.65 178.24 148.67 178.67 149.57 178.32 L 150.52 177.94 C 151.42 177.58 151.86 176.57 151.50 175.67 C 151.14 174.77 150.13 174.33 149.23 174.69 Z M 148.36 175.04 L 147.41 175.36 C 146.49 175.68 146.01 176.67 146.32 177.58 C 146.63 178.49 147.62 178.98 148.53 178.67 L 149.48 178.35 C 150.40 178.04 150.88 177.04 150.57 176.13 C 150.26 175.22 149.27 174.73 148.36 175.04 Z M 147.50 175.34 L 146.55 175.60 C 145.63 175.86 145.09 176.83 145.35 177.75 C 145.61 178.68 146.57 179.22 147.50 178.96 L 148.44 178.70 C 149.37 178.44 149.91 177.47 149.65 176.55 C 149.39 175.62 148.43 175.08 147.50 175.34 Z M 146.65 175.58 L 145.72 175.78 C 144.78 175.99 144.18 176.92 144.38 177.86 C 144.59 178.80 145.52 179.39 146.46 179.19 L 147.40 178.98 C 148.34 178.78 148.93 177.85 148.73 176.91 C 148.52 175.97 147.59 175.37 146.65 175.58 Z M 145.83 175.77 L 144.77 175.92 C 143.82 176.06 143.16 176.95 143.30 177.90 C 143.44 178.85 144.33 179.50 145.28 179.36 L 146.34 179.21 C 147.29 179.07 147.95 178.18 147.81 177.23 C 147.67 176.28 146.78 175.63 145.83 175.77 Z M 144.92 175.92 L 143.85 175.98 C 142.89 176.04 142.17 176.85 142.22 177.81 C 142.28 178.76 143.10 179.49 144.05 179.43 L 145.12 179.37 C 146.08 179.31 146.80 178.50 146.75 177.54 C 146.69 176.59 145.88 175.86 144.92 175.92 Z M 144.05 175.99 L 143.05 175.93 C 142.10 175.88 141.29 176.60 141.23 177.55 C 141.18 178.50 141.90 179.31 142.85 179.37 L 143.85 179.42 C 144.80 179.48 145.61 178.75 145.67 177.81 C 145.72 176.86 145.00 176.04 144.05 175.99 Z M 143.32 175.98 L 142.44 175.78 C 141.51 175.58 140.60 176.16 140.40 177.08 C 140.19 178.00 140.77 178.92 141.70 179.12 L 142.58 179.32 C 143.50 179.52 144.42 178.94 144.62 178.02 C 144.82 177.10 144.24 176.18 143.32 175.98 Z M 142.82 175.94 L 142.02 175.54 C 141.19 175.13 140.17 175.47 139.76 176.31 C 139.34 177.15 139.69 178.16 140.52 178.58 L 141.32 178.97 C 142.15 179.38 143.17 179.04 143.58 178.20 C 144.00 177.37 143.65 176.35 142.82 175.94 Z M 142.43 175.88 L 141.79 175.24 C 141.13 174.60 140.09 174.61 139.45 175.26 C 138.81 175.91 138.81 176.96 139.46 177.60 L 140.11 178.24 C 140.76 178.88 141.81 178.87 142.45 178.22 C 143.09 177.57 143.08 176.52 142.43 175.88 Z M 142.03 175.64 L 141.55 174.78 C 141.12 174.01 140.14 173.73 139.37 174.16 C 138.59 174.59 138.31 175.57 138.74 176.35 L 139.22 177.20 C 139.65 177.98 140.63 178.26 141.41 177.83 C 142.18 177.39 142.46 176.42 142.03 175.64 Z M 141.63 175.08 L 141.28 174.01 C 141.02 173.19 140.13 172.74 139.31 173.01 C 138.49 173.28 138.05 174.16 138.31 174.98 L 138.66 176.05 C 138.93 176.87 139.81 177.32 140.63 177.05 C 141.45 176.78 141.90 175.90 141.63 175.08 Z M 141.29 174.17 L 141.09 173.24 C 140.91 172.41 140.10 171.89 139.27 172.06 C 138.45 172.24 137.93 173.05 138.10 173.88 L 138.31 174.82 C 138.48 175.64 139.30 176.16 140.12 175.99 C 140.95 175.81 141.47 175.00 141.29 174.17 Z M 141.09 173.33 L 140.93 172.33 C 140.81 171.51 140.04 170.94 139.21 171.07 C 138.39 171.20 137.83 171.97 137.95 172.79 L 138.11 173.79 C 138.23 174.61 139.00 175.17 139.83 175.05 C 140.65 174.92 141.21 174.15 141.09 173.33 Z M 140.92 172.40 L 140.82 171.37 C 140.73 170.56 140.00 169.96 139.18 170.05 C 138.36 170.14 137.77 170.87 137.86 171.68 L 137.96 172.71 C 138.05 173.53 138.78 174.12 139.60 174.04 C 140.42 173.95 141.01 173.22 140.92 172.40 Z M 140.80 171.44 L 140.74 170.42 C 140.69 169.61 139.99 168.99 139.18 169.04 C 138.38 169.09 137.76 169.79 137.81 170.60 L 137.87 171.62 C 137.92 172.43 138.62 173.04 139.43 172.99 C 140.23 172.94 140.85 172.25 140.80 171.44 Z M 140.72 170.48 L 140.71 169.48 C 140.69 168.68 140.03 168.04 139.23 168.06 C 138.43 168.07 137.80 168.73 137.81 169.53 L 137.83 170.53 C 137.84 171.33 138.50 171.97 139.30 171.96 C 140.10 171.94 140.74 171.28 140.72 170.48 Z M 140.69 169.56 L 140.73 168.47 C 140.76 167.67 140.14 167.01 139.35 166.98 C 138.55 166.95 137.89 167.57 137.86 168.36 L 137.82 169.45 C 137.79 170.25 138.41 170.91 139.21 170.94 C 140.00 170.97 140.67 170.35 140.69 169.56 Z M 140.73 168.54 L 140.81 167.54 C 140.88 166.76 140.30 166.06 139.51 165.99 C 138.72 165.92 138.03 166.50 137.96 167.29 L 137.87 168.29 C 137.80 169.08 138.38 169.78 139.17 169.84 C 139.96 169.91 140.66 169.33 140.73 168.54 Z M 140.80 167.60 L 140.92 166.66 C 141.02 165.88 140.47 165.16 139.68 165.06 C 138.90 164.96 138.18 165.51 138.09 166.30 L 137.97 167.24 C 137.87 168.02 138.42 168.74 139.20 168.84 C 139.99 168.94 140.70 168.38 140.80 167.60 Z M 140.92 166.68 L 141.02 165.96 C 141.13 165.18 140.59 164.46 139.82 164.34 C 139.04 164.23 138.31 164.77 138.20 165.55 L 138.09 166.27 C 137.98 167.05 138.52 167.78 139.30 167.89 C 140.08 168.00 140.80 167.46 140.92 166.68 Z"
      fill="black"
      fill-rule="nonzero" /></svg>