<svg xmlns="http://www.w3.org/2000/svg" width="300" height="300" viewBox="0 0 300 300">
<path d="M 134.39 118.55 L 133.40 118.67 C 132.54 118.78 131.93 119.57 132.03 120.43 C 132.14 121.29 132.92 121.90 133.79 121.80 L 134.77 121.68 C 135.64 121.57 136.25 120.78 136.14 119.92 C 136.04 119.06 135.25 118.45 134.39 118.55 Z M 133.37 118.66 L 132.38 118.80 C 131.51 118.92 130.91 119.73 131.03 120.60 C 131.15 121.47 131.96 122.08 132.83 121.95 L 133.82 121.81 C 134.69 121.69 135.29 120.89 135.17 120.01 C 135.05 119.14 134.24 118.54 133.37 118.66 Z M 132.33 118.79 L 131.34 118.96 C 130.46 119.12 129.87 119.95 130.03 120.83 C 130.18 121.71 131.02 122.29 131.90 122.14 L 132.89 121.96 C 133.76 121.81 134.35 120.97 134.20 120.09 C 134.04 119.22 133.20 118.63 132.33 118.79 Z M 131.24 118.96 L 130.00 119.26 C 129.13 119.46 128.59 120.35 128.79 121.22 C 129.00 122.10 129.88 122.64 130.76 122.43 L 132.00 122.14 C 132.87 121.93 133.41 121.05 133.21 120.17 C 133.00 119.29 132.12 118.75 131.24 118.96 Z M 129.82 119.30 L 128.86 119.64 C 128.01 119.96 127.57 120.90 127.88 121.76 C 128.19 122.61 129.14 123.05 129.99 122.74 L 130.95 122.39 C 131.80 122.08 132.24 121.13 131.93 120.28 C 131.62 119.42 130.67 118.98 129.82 119.30 Z M 127.78 121.39 L 127.80 121.61 C 127.92 122.52 128.74 123.16 129.65 123.05 C 130.56 122.94 131.21 122.11 131.10 121.20 L 131.08 120.99 C 130.96 120.08 130.14 119.43 129.23 119.54 C 128.32 119.66 127.67 120.48 127.78 121.39 Z M 129.31 123.07 L 129.93 123.12 C 130.85 123.20 131.66 122.52 131.74 121.60 C 131.81 120.68 131.13 119.88 130.22 119.80 L 129.60 119.74 C 128.68 119.67 127.87 120.35 127.79 121.26 C 127.71 122.18 128.39 122.99 129.31 123.07 Z M 130.12 123.13 L 131.14 123.10 C 132.06 123.07 132.78 122.30 132.76 121.38 C 132.73 120.46 131.96 119.73 131.04 119.76 L 130.02 119.79 C 129.10 119.82 128.38 120.59 128.41 121.51 C 128.43 122.43 129.20 123.15 130.12 123.13 Z M 131.24 123.09 L 132.53 122.97 C 133.45 122.89 134.13 122.08 134.04 121.16 C 133.96 120.24 133.15 119.56 132.23 119.65 L 130.94 119.76 C 130.02 119.85 129.34 120.66 129.43 121.58 C 129.51 122.50 130.32 123.18 131.24 123.09 Z M 132.61 122.96 L 133.83 122.79 C 134.74 122.67 135.38 121.82 135.25 120.91 C 135.12 119.99 134.28 119.36 133.36 119.48 L 132.15 119.65 C 131.23 119.78 130.60 120.63 130.73 121.54 C 130.85 122.46 131.70 123.09 132.61 122.96 Z M 133.89 122.79 L 134.80 122.62 C 135.71 122.46 136.31 121.60 136.15 120.69 C 135.99 119.78 135.12 119.17 134.21 119.33 L 133.30 119.49 C 132.40 119.65 131.79 120.52 131.95 121.43 C 132.11 122.34 132.98 122.95 133.89 122.79 Z M 134.84 122.62 L 135.78 122.43 C 136.68 122.24 137.27 121.36 137.09 120.46 C 136.90 119.55 136.02 118.97 135.12 119.15 L 134.17 119.34 C 133.27 119.52 132.68 120.40 132.87 121.31 C 133.05 122.21 133.93 122.80 134.84 122.62 Z M 135.81 122.42 L 136.78 122.20 C 137.68 122.00 138.25 121.11 138.05 120.21 C 137.85 119.31 136.95 118.74 136.05 118.94 L 135.08 119.16 C 134.18 119.36 133.61 120.25 133.82 121.15 C 134.02 122.05 134.91 122.62 135.81 122.42 Z M 136.81 122.20 L 137.80 121.96 C 138.70 121.74 139.25 120.84 139.04 119.94 C 138.82 119.04 137.92 118.49 137.02 118.71 L 136.03 118.95 C 135.13 119.16 134.57 120.06 134.79 120.96 C 135.01 121.86 135.91 122.41 136.81 122.20 Z M 137.82 121.95 L 138.84 121.69 C 139.74 121.47 140.28 120.56 140.05 119.66 C 139.82 118.77 138.91 118.23 138.02 118.45 L 137.00 118.71 C 136.11 118.94 135.56 119.85 135.79 120.74 C 136.02 121.64 136.93 122.18 137.82 121.95 Z M 138.86 121.69 L 139.90 121.42 C 140.79 121.18 141.32 120.26 141.09 119.37 C 140.85 118.48 139.94 117.95 139.04 118.18 L 138.00 118.46 C 137.11 118.69 136.58 119.61 136.81 120.50 C 137.05 121.39 137.97 121.93 138.86 121.69 Z M 139.91 121.41 L 140.91 121.14 C 141.80 120.90 142.32 119.98 142.08 119.09 C 141.84 118.20 140.92 117.67 140.03 117.92 L 139.03 118.19 C 138.14 118.43 137.62 119.35 137.86 120.24 C 138.10 121.13 139.02 121.65 139.91 121.41 Z M 140.91 121.13 L 141.91 120.86 C 142.80 120.61 143.32 119.69 143.07 118.81 C 142.83 117.92 141.91 117.40 141.02 117.65 L 140.02 117.92 C 139.14 118.17 138.62 119.09 138.86 119.97 C 139.11 120.86 140.03 121.38 140.91 121.13 Z M 141.92 120.85 L 142.91 120.57 C 143.80 120.32 144.31 119.40 144.06 118.52 C 143.81 117.63 142.89 117.12 142.01 117.37 L 141.01 117.65 C 140.13 117.90 139.61 118.82 139.86 119.70 C 140.11 120.59 141.03 121.10 141.92 120.85 Z M 142.92 120.57 L 143.90 120.29 C 144.78 120.03 145.29 119.11 145.04 118.23 C 144.79 117.35 143.87 116.84 142.99 117.09 L 142.00 117.37 C 141.12 117.63 140.61 118.55 140.86 119.43 C 141.12 120.31 142.04 120.82 142.92 120.57 Z M 143.90 120.28 L 144.87 120.00 C 145.75 119.75 146.25 118.83 146.00 117.95 C 145.74 117.07 144.82 116.56 143.94 116.82 L 142.98 117.10 C 142.10 117.35 141.60 118.27 141.85 119.15 C 142.11 120.03 143.03 120.54 143.90 120.28 Z M 144.87 120.00 L 145.80 119.73 C 146.68 119.47 147.18 118.55 146.92 117.67 C 146.67 116.80 145.75 116.29 144.87 116.55 L 143.94 116.82 C 143.06 117.08 142.56 118.00 142.82 118.88 C 143.07 119.75 143.99 120.26 144.87 120.00 Z M 145.80 119.72 L 146.69 119.46 C 147.57 119.20 148.07 118.28 147.81 117.41 C 147.55 116.53 146.63 116.03 145.76 116.29 L 144.87 116.56 C 143.99 116.81 143.49 117.73 143.75 118.61 C 144.01 119.48 144.93 119.98 145.80 119.72 Z M 146.70 119.45 L 147.77 119.13 C 148.64 118.87 149.13 117.96 148.87 117.09 C 148.61 116.22 147.70 115.72 146.83 115.98 L 145.76 116.30 C 144.89 116.56 144.39 117.47 144.65 118.34 C 144.91 119.21 145.83 119.71 146.70 119.45 Z M 147.76 119.12 L 148.79 118.81 C 149.65 118.55 150.15 117.65 149.89 116.78 C 149.63 115.92 148.72 115.43 147.86 115.69 L 146.83 115.99 C 145.97 116.25 145.48 117.16 145.73 118.02 C 145.99 118.89 146.90 119.38 147.76 119.12 Z M 148.79 118.80 L 149.75 118.51 C 150.60 118.26 151.09 117.36 150.84 116.50 C 150.58 115.64 149.68 115.16 148.82 115.41 L 147.86 115.70 C 147.01 115.95 146.52 116.86 146.77 117.71 C 147.03 118.57 147.93 119.06 148.79 118.80 Z M 149.74 118.50 L 150.65 118.23 C 151.50 117.98 151.98 117.09 151.73 116.24 C 151.48 115.39 150.59 114.90 149.74 115.16 L 148.83 115.42 C 147.98 115.68 147.49 116.57 147.75 117.42 C 148.00 118.27 148.89 118.75 149.74 118.50 Z M 150.64 118.22 L 151.50 117.97 C 152.35 117.73 152.83 116.84 152.59 116.00 C 152.34 115.15 151.46 114.67 150.61 114.91 L 149.75 115.17 C 148.90 115.41 148.42 116.29 148.66 117.14 C 148.91 117.98 149.79 118.47 150.64 118.22 Z M 151.49 117.96 L 152.43 117.70 C 153.27 117.46 153.76 116.59 153.52 115.75 C 153.28 114.91 152.41 114.42 151.57 114.66 L 150.63 114.92 C 149.79 115.16 149.30 116.03 149.54 116.87 C 149.77 117.71 150.65 118.20 151.49 117.96 Z M 152.41 117.69 L 153.40 117.42 C 154.23 117.19 154.73 116.33 154.50 115.50 C 154.27 114.67 153.41 114.17 152.58 114.40 L 151.59 114.67 C 150.76 114.89 150.27 115.75 150.49 116.59 C 150.72 117.42 151.58 117.91 152.41 117.69 Z M 153.38 117.41 L 154.34 117.16 C 155.17 116.94 155.67 116.10 155.45 115.27 C 155.24 114.44 154.40 113.95 153.57 114.16 L 152.60 114.41 C 151.78 114.63 151.28 115.47 151.49 116.30 C 151.71 117.12 152.55 117.62 153.38 117.41 Z M 154.32 117.15 L 155.27 116.91 C 156.09 116.71 156.59 115.88 156.39 115.06 C 156.19 114.24 155.36 113.74 154.54 113.94 L 153.59 114.17 C 152.77 114.37 152.27 115.20 152.47 116.02 C 152.67 116.85 153.50 117.35 154.32 117.15 Z M 155.25 116.90 L 156.19 116.68 C 157.00 116.49 157.51 115.68 157.32 114.86 C 157.13 114.05 156.32 113.54 155.50 113.73 L 154.56 113.95 C 153.74 114.14 153.24 114.95 153.43 115.77 C 153.62 116.59 154.43 117.09 155.25 116.90 Z M 156.16 116.67 L 157.12 116.47 C 157.93 116.29 158.44 115.49 158.27 114.68 C 158.09 113.87 157.29 113.36 156.48 113.53 L 155.52 113.74 C 154.71 113.92 154.20 114.72 154.38 115.53 C 154.55 116.34 155.35 116.85 156.16 116.67 Z M 157.09 116.46 L 158.06 116.27 C 158.86 116.10 159.38 115.32 159.22 114.51 C 159.06 113.71 158.28 113.18 157.47 113.35 L 156.51 113.54 C 155.70 113.70 155.18 114.49 155.34 115.29 C 155.50 116.10 156.28 116.62 157.09 116.46 Z M 158.02 116.26 L 159.01 116.08 C 159.82 115.94 160.35 115.17 160.20 114.37 C 160.06 113.56 159.29 113.03 158.49 113.18 L 157.50 113.35 C 156.70 113.50 156.17 114.27 156.31 115.07 C 156.46 115.87 157.22 116.40 158.02 116.26 Z M 158.98 116.07 L 160.01 115.91 C 160.80 115.78 161.35 115.03 161.22 114.23 C 161.09 113.44 160.34 112.89 159.55 113.02 L 158.52 113.18 C 157.72 113.31 157.18 114.06 157.31 114.86 C 157.43 115.66 158.18 116.20 158.98 116.07 Z M 159.98 115.90 L 160.93 115.77 C 161.72 115.66 162.27 114.93 162.16 114.13 C 162.05 113.34 161.32 112.78 160.52 112.89 L 159.57 113.03 C 158.78 113.14 158.23 113.87 158.34 114.67 C 158.45 115.46 159.18 116.02 159.98 115.90 Z M 160.91 115.77 L 161.89 115.64 C 162.68 115.54 163.24 114.82 163.14 114.03 C 163.04 113.23 162.32 112.67 161.52 112.77 L 160.54 112.90 C 159.75 113.00 159.19 113.72 159.29 114.51 C 159.39 115.31 160.11 115.87 160.91 115.77 Z M 161.87 115.64 L 162.87 115.52 C 163.67 115.43 164.23 114.72 164.14 113.92 C 164.05 113.13 163.33 112.57 162.54 112.66 L 161.54 112.78 C 160.75 112.87 160.18 113.58 160.27 114.38 C 160.36 115.17 161.08 115.73 161.87 115.64 Z M 162.87 115.52 L 163.88 115.41 C 164.67 115.32 165.24 114.61 165.15 113.82 C 165.07 113.03 164.36 112.46 163.57 112.55 L 162.55 112.66 C 161.76 112.75 161.19 113.46 161.28 114.25 C 161.37 115.04 162.08 115.61 162.87 115.52 Z M 163.88 115.40 L 164.63 115.32 C 165.42 115.23 165.99 114.53 165.90 113.74 C 165.82 112.96 165.11 112.39 164.33 112.47 L 163.57 112.56 C 162.79 112.64 162.22 113.35 162.30 114.13 C 162.39 114.92 163.09 115.49 163.88 115.40 Z"
      fill="black"
      fill-rule="nonzero" /><path d="M 145.62 118.89 L 144.68 119.19 C 143.86 119.45 143.41 120.32 143.66 121.14 C 143.92 121.96 144.80 122.42 145.62 122.16 L 146.56 121.87 C 147.38 121.61 147.84 120.73 147.58 119.91 C 147.32 119.09 146.45 118.63 145.62 118.89 Z M 144.60 119.21 L 143.67 119.56 C 142.86 119.86 142.45 120.76 142.76 121.57 C 143.06 122.38 143.96 122.79 144.77 122.49 L 145.70 122.14 C 146.51 121.84 146.92 120.94 146.62 120.13 C 146.31 119.32 145.41 118.91 144.60 119.21 Z M 143.52 119.61 L 142.62 120.06 C 141.84 120.45 141.52 121.39 141.91 122.17 C 142.29 122.95 143.24 123.26 144.01 122.88 L 144.92 122.43 C 145.70 122.04 146.01 121.10 145.63 120.32 C 145.24 119.55 144.30 119.23 143.52 119.61 Z M 142.43 120.17 L 141.63 120.71 C 140.91 121.20 140.72 122.18 141.21 122.90 C 141.69 123.62 142.67 123.81 143.40 123.32 L 144.20 122.78 C 144.92 122.29 145.11 121.31 144.62 120.59 C 144.13 119.86 143.15 119.68 142.43 120.17 Z M 141.47 120.82 L 140.72 121.48 C 140.07 122.05 140.00 123.05 140.57 123.71 C 141.15 124.37 142.15 124.43 142.80 123.86 L 143.55 123.21 C 144.21 122.63 144.28 121.63 143.70 120.98 C 143.13 120.32 142.13 120.25 141.47 120.82 Z M 140.60 121.58 L 139.91 122.33 C 139.31 122.97 139.35 123.97 139.99 124.57 C 140.63 125.17 141.63 125.13 142.23 124.49 L 142.92 123.75 C 143.52 123.11 143.49 122.10 142.85 121.51 C 142.21 120.91 141.20 120.94 140.60 121.58 Z M 139.81 122.44 L 139.19 123.23 C 138.65 123.93 138.78 124.93 139.47 125.47 C 140.17 126.01 141.17 125.88 141.71 125.19 L 142.33 124.39 C 142.87 123.69 142.74 122.69 142.05 122.15 C 141.35 121.62 140.35 121.74 139.81 122.44 Z M 139.12 123.34 L 138.60 124.12 C 138.12 124.86 138.33 125.84 139.06 126.32 C 139.80 126.81 140.78 126.60 141.27 125.87 L 141.78 125.08 C 142.26 124.35 142.06 123.36 141.32 122.88 C 140.59 122.40 139.60 122.60 139.12 123.34 Z M 138.55 124.21 L 138.07 125.05 C 137.64 125.82 137.91 126.79 138.67 127.22 C 139.44 127.65 140.41 127.39 140.84 126.62 L 141.32 125.78 C 141.75 125.01 141.48 124.04 140.72 123.61 C 139.96 123.18 138.99 123.45 138.55 124.21 Z M 138.04 125.12 L 137.58 126.04 C 137.18 126.83 137.50 127.78 138.28 128.18 C 139.06 128.57 140.02 128.25 140.41 127.47 L 140.88 126.55 C 141.27 125.77 140.95 124.81 140.17 124.42 C 139.39 124.02 138.43 124.34 138.04 125.12 Z M 137.55 126.09 L 137.11 127.05 C 136.75 127.84 137.09 128.79 137.89 129.15 C 138.69 129.52 139.63 129.17 140.00 128.38 L 140.44 127.42 C 140.80 126.63 140.45 125.68 139.66 125.32 C 138.86 124.95 137.92 125.30 137.55 126.09 Z M 137.10 127.08 L 136.73 127.94 C 136.38 128.74 136.75 129.67 137.55 130.02 C 138.35 130.37 139.28 130.00 139.63 129.20 L 140.01 128.35 C 140.36 127.54 139.99 126.61 139.19 126.26 C 138.39 125.91 137.45 126.28 137.10 127.08 Z M 136.72 127.96 L 136.34 128.87 C 136.01 129.67 136.39 130.60 137.20 130.93 C 138.00 131.27 138.92 130.89 139.26 130.08 L 139.64 129.18 C 139.97 128.37 139.59 127.45 138.79 127.11 C 137.98 126.78 137.06 127.16 136.72 127.96 Z M 136.34 128.89 L 135.96 129.84 C 135.64 130.65 136.04 131.56 136.84 131.89 C 137.65 132.21 138.57 131.81 138.89 131.00 L 139.27 130.06 C 139.59 129.25 139.19 128.34 138.38 128.01 C 137.58 127.69 136.66 128.09 136.34 128.89 Z M 135.96 129.86 L 135.59 130.84 C 135.28 131.65 135.69 132.56 136.50 132.87 C 137.31 133.17 138.22 132.77 138.52 131.95 L 138.89 130.98 C 139.20 130.17 138.79 129.26 137.98 128.95 C 137.17 128.65 136.27 129.05 135.96 129.86 Z M 135.58 130.87 L 135.23 131.85 C 134.94 132.66 135.36 133.56 136.17 133.85 C 136.98 134.14 137.88 133.72 138.17 132.91 L 138.53 131.93 C 138.82 131.12 138.40 130.22 137.59 129.93 C 136.77 129.63 135.88 130.05 135.58 130.87 Z M 135.23 131.87 L 134.91 132.81 C 134.63 133.62 135.06 134.51 135.87 134.79 C 136.69 135.07 137.57 134.64 137.85 133.82 L 138.17 132.88 C 138.45 132.07 138.02 131.19 137.21 130.91 C 136.39 130.63 135.51 131.06 135.23 131.87 Z M 134.91 132.83 L 134.60 133.78 C 134.33 134.59 134.77 135.46 135.58 135.73 C 136.39 136.00 137.27 135.56 137.54 134.75 L 137.85 133.80 C 138.12 132.99 137.67 132.11 136.86 131.85 C 136.05 131.58 135.18 132.02 134.91 132.83 Z M 134.60 133.79 L 134.30 134.75 C 134.04 135.56 134.49 136.42 135.30 136.68 C 136.11 136.94 136.97 136.49 137.23 135.68 L 137.53 134.73 C 137.79 133.92 137.34 133.05 136.53 132.80 C 135.73 132.54 134.86 132.99 134.60 133.79 Z M 134.31 134.76 L 134.01 135.72 C 133.76 136.53 134.21 137.38 135.01 137.63 C 135.82 137.88 136.67 137.43 136.92 136.63 L 137.22 135.67 C 137.47 134.86 137.02 134.01 136.22 133.76 C 135.41 133.51 134.56 133.96 134.31 134.76 Z M 134.02 135.73 L 133.72 136.69 C 133.48 137.50 133.93 138.34 134.73 138.59 C 135.53 138.83 136.38 138.38 136.62 137.58 L 136.92 136.62 C 137.16 135.82 136.71 134.97 135.91 134.72 C 135.11 134.48 134.26 134.93 134.02 135.73 Z M 133.73 136.70 L 133.44 137.66 C 133.20 138.46 133.65 139.30 134.44 139.54 C 135.24 139.78 136.08 139.33 136.32 138.54 L 136.61 137.58 C 136.85 136.78 136.40 135.94 135.61 135.70 C 134.81 135.46 133.97 135.90 133.73 136.70 Z M 133.45 137.67 L 133.16 138.63 C 132.92 139.42 133.37 140.25 134.16 140.49 C 134.95 140.73 135.78 140.28 136.02 139.49 L 136.31 138.53 C 136.55 137.74 136.10 136.91 135.31 136.67 C 134.52 136.43 133.69 136.88 133.45 137.67 Z M 133.17 138.63 L 132.88 139.59 C 132.64 140.37 133.08 141.20 133.87 141.44 C 134.65 141.68 135.48 141.23 135.72 140.45 L 136.01 139.49 C 136.25 138.70 135.80 137.88 135.02 137.64 C 134.23 137.40 133.41 137.84 133.17 138.63 Z M 132.89 139.59 L 132.60 140.55 C 132.36 141.33 132.80 142.15 133.58 142.39 C 134.36 142.62 135.18 142.18 135.42 141.40 L 135.71 140.45 C 135.94 139.67 135.50 138.85 134.73 138.61 C 133.95 138.37 133.13 138.81 132.89 139.59 Z M 132.61 140.55 L 132.32 141.50 C 132.08 142.28 132.52 143.09 133.29 143.33 C 134.06 143.56 134.88 143.13 135.11 142.36 L 135.41 141.40 C 135.64 140.63 135.21 139.81 134.43 139.58 C 133.66 139.34 132.85 139.78 132.61 140.55 Z M 132.33 141.50 L 132.04 142.46 C 131.80 143.22 132.23 144.04 133.00 144.27 C 133.76 144.51 134.58 144.08 134.81 143.31 L 135.10 142.36 C 135.34 141.59 134.91 140.78 134.14 140.54 C 133.38 140.31 132.57 140.74 132.33 141.50 Z M 132.04 142.46 L 131.75 143.42 C 131.51 144.18 131.94 144.99 132.70 145.23 C 133.46 145.46 134.27 145.04 134.50 144.28 L 134.80 143.31 C 135.04 142.55 134.61 141.74 133.85 141.51 C 133.09 141.27 132.28 141.70 132.04 142.46 Z M 131.75 143.42 L 131.45 144.38 C 131.21 145.14 131.64 145.94 132.40 146.18 C 133.16 146.42 133.96 145.99 134.20 145.23 L 134.50 144.28 C 134.74 143.52 134.31 142.71 133.55 142.47 C 132.80 142.24 131.99 142.66 131.75 143.42 Z M 131.46 144.38 L 131.16 145.33 C 130.92 146.08 131.34 146.89 132.10 147.13 C 132.85 147.36 133.66 146.94 133.90 146.19 L 134.20 145.24 C 134.43 144.48 134.01 143.67 133.26 143.44 C 132.50 143.20 131.69 143.62 131.46 144.38 Z M 131.16 145.33 L 130.86 146.27 C 130.63 147.03 131.04 147.83 131.80 148.07 C 132.55 148.31 133.36 147.89 133.59 147.14 L 133.89 146.19 C 134.13 145.43 133.71 144.63 132.96 144.39 C 132.20 144.15 131.40 144.57 131.16 145.33 Z M 130.87 146.28 L 130.58 147.20 C 130.34 147.95 130.76 148.76 131.51 148.99 C 132.26 149.23 133.06 148.81 133.30 148.06 L 133.59 147.13 C 133.83 146.38 133.41 145.58 132.66 145.34 C 131.91 145.11 131.11 145.52 130.87 146.28 Z"
      fill="black"
      fill-rule="nonzero" /><path d="M 109.74 149.45 L 109.72 150.45 C 109.70 151.32 110.38 152.03 111.24 152.05 C 112.11 152.07 112.82 151.38 112.84 150.52 L 112.86 149.52 C 112.88 148.65 112.19 147.94 111.33 147.92 C 110.47 147.90 109.76 148.59 109.74 149.45 Z M 109.71 150.47 L 109.70 151.48 C 109.69 152.34 110.39 153.05 111.25 153.06 C 112.12 153.06 112.82 152.37 112.83 151.51 L 112.84 150.50 C 112.85 149.64 112.16 148.93 111.29 148.92 C 110.43 148.91 109.72 149.61 109.71 150.47 Z M 109.70 151.51 L 109.71 152.51 C 109.73 153.38 110.44 154.07 111.30 154.06 C 112.17 154.05 112.86 153.34 112.85 152.47 L 112.84 151.47 C 112.82 150.60 112.11 149.91 111.25 149.92 C 110.38 149.94 109.69 150.65 109.70 151.51 Z M 109.71 152.57 L 109.76 153.56 C 109.80 154.43 110.54 155.10 111.41 155.06 C 112.27 155.01 112.94 154.28 112.90 153.41 L 112.85 152.42 C 112.81 151.55 112.07 150.88 111.20 150.92 C 110.34 150.97 109.67 151.70 109.71 152.57 Z M 109.76 153.64 L 109.86 154.63 C 109.94 155.49 110.71 156.13 111.58 156.04 C 112.44 155.96 113.07 155.19 112.99 154.33 L 112.90 153.34 C 112.81 152.47 112.04 151.84 111.18 151.92 C 110.31 152.01 109.68 152.77 109.76 153.64 Z M 109.87 154.72 L 110.02 155.71 C 110.16 156.57 110.96 157.16 111.82 157.03 C 112.68 156.89 113.27 156.09 113.14 155.23 L 112.98 154.23 C 112.85 153.38 112.04 152.79 111.18 152.92 C 110.32 153.06 109.73 153.86 109.87 154.72 Z M 110.04 155.81 L 110.26 156.81 C 110.45 157.66 111.29 158.20 112.14 158.01 C 112.99 157.82 113.53 156.98 113.34 156.13 L 113.12 155.13 C 112.93 154.28 112.09 153.74 111.24 153.93 C 110.39 154.12 109.85 154.96 110.04 155.81 Z M 110.28 156.88 L 110.54 157.87 C 110.77 158.71 111.64 159.20 112.48 158.98 C 113.32 158.75 113.82 157.88 113.59 157.04 L 113.32 156.05 C 113.10 155.21 112.23 154.71 111.39 154.94 C 110.54 155.17 110.05 156.04 110.28 156.88 Z M 110.56 157.92 L 110.85 158.88 C 111.11 159.72 112.00 160.18 112.83 159.93 C 113.67 159.67 114.14 158.78 113.88 157.95 L 113.58 156.98 C 113.32 156.15 112.43 155.68 111.60 155.94 C 110.77 156.20 110.30 157.08 110.56 157.92 Z M 110.86 158.91 L 111.17 159.85 C 111.45 160.68 112.35 161.13 113.18 160.86 C 114.01 160.58 114.46 159.68 114.18 158.85 L 113.87 157.91 C 113.59 157.08 112.70 156.64 111.87 156.91 C 111.04 157.19 110.59 158.08 110.86 158.91 Z M 111.18 159.87 L 111.49 160.78 C 111.77 161.60 112.67 162.05 113.50 161.76 C 114.33 161.48 114.77 160.58 114.49 159.75 L 114.18 158.84 C 113.90 158.01 113.00 157.57 112.17 157.85 C 111.34 158.13 110.89 159.04 111.18 159.87 Z M 111.48 160.77 L 111.81 161.74 C 112.08 162.57 112.98 163.02 113.82 162.75 C 114.65 162.47 115.10 161.57 114.82 160.74 L 114.49 159.76 C 114.22 158.93 113.32 158.48 112.49 158.76 C 111.65 159.03 111.20 159.93 111.48 160.77 Z M 111.80 161.72 L 112.11 162.69 C 112.38 163.52 113.27 163.98 114.11 163.72 C 114.94 163.45 115.40 162.55 115.13 161.72 L 114.83 160.76 C 114.56 159.92 113.66 159.46 112.83 159.73 C 111.99 159.99 111.53 160.89 111.80 161.72 Z M 112.10 162.67 L 112.39 163.61 C 112.65 164.45 113.54 164.92 114.37 164.67 C 115.21 164.41 115.69 163.52 115.43 162.68 L 115.14 161.74 C 114.88 160.90 114.00 160.43 113.16 160.68 C 112.32 160.94 111.85 161.83 112.10 162.67 Z M 112.39 163.59 L 112.66 164.53 C 112.90 165.37 113.79 165.86 114.63 165.61 C 115.47 165.37 115.96 164.48 115.71 163.64 L 115.44 162.70 C 115.19 161.86 114.31 161.38 113.47 161.62 C 112.62 161.87 112.14 162.75 112.39 163.59 Z M 112.65 164.51 L 112.92 165.46 C 113.15 166.30 114.03 166.80 114.87 166.56 C 115.72 166.33 116.21 165.45 115.98 164.61 L 115.72 163.66 C 115.48 162.82 114.60 162.32 113.76 162.56 C 112.91 162.79 112.42 163.67 112.65 164.51 Z M 112.91 165.44 L 113.16 166.38 C 113.39 167.23 114.26 167.73 115.10 167.51 C 115.95 167.28 116.46 166.41 116.23 165.57 L 115.98 164.63 C 115.76 163.78 114.89 163.27 114.04 163.50 C 113.19 163.72 112.69 164.59 112.91 165.44 Z M 113.16 166.36 L 113.40 167.32 C 113.61 168.17 114.48 168.69 115.33 168.47 C 116.18 168.26 116.69 167.39 116.48 166.54 L 116.24 165.58 C 116.02 164.73 115.16 164.22 114.31 164.43 C 113.46 164.65 112.94 165.51 113.16 166.36 Z M 113.39 167.30 L 113.63 168.27 C 113.83 169.13 114.69 169.65 115.54 169.45 C 116.39 169.25 116.92 168.39 116.72 167.54 L 116.48 166.56 C 116.28 165.71 115.42 165.18 114.57 165.39 C 113.72 165.59 113.19 166.45 113.39 167.30 Z M 113.62 168.25 L 113.84 169.24 C 114.03 170.10 114.88 170.64 115.74 170.45 C 116.59 170.25 117.13 169.41 116.94 168.55 L 116.72 167.56 C 116.53 166.70 115.68 166.17 114.83 166.36 C 113.97 166.55 113.43 167.40 113.62 168.25 Z M 113.84 169.22 L 114.04 170.22 C 114.22 171.08 115.06 171.63 115.92 171.45 C 116.78 171.28 117.33 170.44 117.15 169.58 L 116.95 168.58 C 116.77 167.72 115.93 167.16 115.07 167.34 C 114.21 167.52 113.66 168.36 113.84 169.22 Z M 114.04 170.19 L 114.22 171.14 C 114.38 172.00 115.21 172.57 116.07 172.41 C 116.93 172.24 117.50 171.41 117.34 170.55 L 117.16 169.60 C 116.99 168.74 116.16 168.18 115.30 168.34 C 114.44 168.50 113.88 169.33 114.04 170.19 Z M 114.22 171.11 L 114.38 172.08 C 114.53 172.94 115.35 173.52 116.21 173.37 C 117.07 173.22 117.65 172.41 117.50 171.54 L 117.34 170.58 C 117.19 169.72 116.37 169.14 115.51 169.29 C 114.65 169.43 114.07 170.25 114.22 171.11 Z M 114.38 172.05 L 114.53 173.03 C 114.66 173.89 115.46 174.48 116.33 174.35 C 117.19 174.22 117.78 173.42 117.65 172.55 L 117.50 171.57 C 117.37 170.71 116.57 170.12 115.70 170.25 C 114.84 170.38 114.25 171.18 114.38 172.05 Z M 114.53 173.00 L 114.66 174.00 C 114.77 174.86 115.56 175.47 116.43 175.36 C 117.29 175.24 117.90 174.45 117.79 173.59 L 117.65 172.58 C 117.54 171.72 116.75 171.11 115.88 171.23 C 115.02 171.34 114.41 172.13 114.53 173.00 Z M 114.66 173.97 L 114.77 175.00 C 114.87 175.86 115.65 176.49 116.51 176.39 C 117.38 176.29 118.00 175.51 117.90 174.65 L 117.79 173.62 C 117.69 172.75 116.91 172.13 116.05 172.23 C 115.18 172.32 114.56 173.10 114.66 173.97 Z M 114.77 174.97 L 114.86 175.99 C 114.94 176.85 115.71 177.49 116.57 177.41 C 117.44 177.33 118.07 176.57 118.00 175.70 L 117.90 174.68 C 117.82 173.82 117.06 173.18 116.19 173.26 C 115.33 173.34 114.69 174.10 114.77 174.97 Z M 114.87 175.96 L 114.94 176.99 C 115.00 177.85 115.76 178.50 116.62 178.44 C 117.48 178.37 118.13 177.62 118.07 176.76 L 117.99 175.73 C 117.93 174.87 117.18 174.22 116.31 174.28 C 115.45 174.35 114.80 175.10 114.87 175.96 Z M 114.94 176.96 L 115.00 177.99 C 115.05 178.85 115.79 179.51 116.66 179.46 C 117.52 179.41 118.18 178.67 118.13 177.81 L 118.07 176.78 C 118.02 175.92 117.28 175.26 116.41 175.31 C 115.55 175.36 114.89 176.10 114.94 176.96 Z M 115.01 177.97 L 115.05 178.98 C 115.09 179.84 115.82 180.51 116.68 180.47 C 117.54 180.43 118.20 179.70 118.17 178.84 L 118.12 177.83 C 118.08 176.97 117.36 176.30 116.50 176.34 C 115.64 176.38 114.97 177.11 115.01 177.97 Z M 115.06 178.96 L 115.09 179.94 C 115.11 180.80 115.83 181.47 116.69 181.44 C 117.55 181.42 118.22 180.70 118.19 179.84 L 118.16 178.86 C 118.14 178.00 117.42 177.33 116.56 177.36 C 115.70 177.38 115.03 178.10 115.06 178.96 Z M 115.09 179.92 L 115.11 180.87 C 115.13 181.72 115.83 182.40 116.69 182.39 C 117.54 182.37 118.22 181.67 118.21 180.81 L 118.19 179.86 C 118.17 179.01 117.47 178.33 116.61 178.34 C 115.76 178.36 115.08 179.07 115.09 179.92 Z M 115.12 180.85 L 115.12 181.94 C 115.13 182.79 115.82 183.48 116.67 183.47 C 117.52 183.47 118.20 182.78 118.20 181.93 L 118.20 180.83 C 118.19 179.98 117.50 179.30 116.65 179.30 C 115.80 179.31 115.12 180.00 115.12 180.85 Z M 115.14 181.92 L 115.13 182.94 C 115.12 183.78 115.79 184.47 116.64 184.48 C 117.48 184.49 118.16 183.81 118.17 182.97 L 118.18 181.95 C 118.19 181.11 117.52 180.42 116.68 180.41 C 115.84 180.41 115.15 181.08 115.14 181.92 Z M 115.14 182.92 L 115.12 183.89 C 115.10 184.72 115.76 185.41 116.60 185.43 C 117.43 185.45 118.12 184.79 118.14 183.96 L 118.16 182.99 C 118.18 182.16 117.52 181.47 116.69 181.45 C 115.85 181.43 115.16 182.09 115.14 182.92 Z M 115.14 183.88 L 115.11 184.81 C 115.09 185.64 115.73 186.32 116.56 186.35 C 117.38 186.37 118.07 185.73 118.09 184.90 L 118.12 183.97 C 118.15 183.14 117.50 182.46 116.67 182.43 C 115.85 182.41 115.16 183.05 115.14 183.88 Z M 115.12 184.81 L 115.11 185.15 C 115.08 185.97 115.73 186.66 116.54 186.68 C 117.36 186.71 118.04 186.07 118.07 185.25 L 118.08 184.91 C 118.11 184.09 117.47 183.40 116.65 183.38 C 115.83 183.35 115.15 183.99 115.12 184.81 Z"
      fill="black"
      fill-rule="nonzero" /><path d="M 112.44 148.58 L 111.09 148.62 C 110.22 148.65 109.54 149.37 109.57 150.23 C 109.60 151.10 110.32 151.78 111.18 151.75 L 112.54 151.71 C 113.40 151.68 114.08 150.96 114.05 150.10 C 114.03 149.23 113.31 148.56 112.44 148.58 Z M 111.07 148.60 L 109.95 148.64 C 109.07 148.67 108.38 149.41 108.42 150.28 C 108.45 151.16 109.18 151.85 110.06 151.82 L 111.19 151.77 C 112.07 151.74 112.75 151.01 112.72 150.13 C 112.69 149.25 111.95 148.57 111.07 148.60 Z M 109.91 148.62 L 109.24 148.66 C 108.35 148.71 107.67 149.48 107.72 150.37 C 107.78 151.26 108.54 151.93 109.43 151.88 L 110.10 151.84 C 110.99 151.78 111.67 151.02 111.62 150.13 C 111.56 149.24 110.80 148.56 109.91 148.62 Z M 108.54 151.70 L 108.63 151.75 C 109.42 152.19 110.42 151.90 110.86 151.11 C 111.29 150.32 111.01 149.33 110.22 148.89 L 110.13 148.84 C 109.34 148.40 108.34 148.68 107.91 149.47 C 107.47 150.26 107.75 151.26 108.54 151.70 Z M 109.35 151.97 L 110.41 152.01 C 111.32 152.05 112.09 151.35 112.13 150.44 C 112.17 149.53 111.47 148.76 110.56 148.72 L 109.50 148.67 C 108.59 148.63 107.82 149.34 107.78 150.25 C 107.74 151.16 108.44 151.93 109.35 151.97 Z M 110.45 152.02 L 111.77 152.05 C 112.69 152.07 113.44 151.34 113.46 150.43 C 113.48 149.51 112.75 148.75 111.84 148.74 L 110.52 148.71 C 109.61 148.69 108.85 149.42 108.83 150.33 C 108.81 151.25 109.54 152.01 110.45 152.02 Z M 111.79 152.05 L 112.79 152.06 C 113.70 152.07 114.46 151.34 114.46 150.42 C 114.47 149.50 113.74 148.75 112.82 148.74 L 111.82 148.73 C 110.90 148.72 110.15 149.46 110.14 150.38 C 110.13 151.29 110.87 152.05 111.79 152.05 Z M 112.79 152.07 L 113.82 152.07 C 114.74 152.08 115.49 151.33 115.50 150.42 C 115.50 149.50 114.76 148.75 113.84 148.74 L 112.81 148.74 C 111.89 148.73 111.14 149.48 111.14 150.39 C 111.13 151.31 111.88 152.06 112.79 152.07 Z M 113.83 152.07 L 114.85 152.08 C 115.77 152.08 116.51 151.33 116.51 150.41 C 116.52 149.49 115.77 148.74 114.85 148.74 L 113.83 148.74 C 112.91 148.74 112.17 149.48 112.16 150.40 C 112.16 151.33 112.91 152.07 113.83 152.07 Z M 114.85 152.08 L 115.84 152.08 C 116.76 152.08 117.51 151.33 117.51 150.41 C 117.51 149.49 116.76 148.74 115.84 148.74 L 114.85 148.74 C 113.93 148.74 113.18 149.49 113.18 150.41 C 113.18 151.33 113.93 152.08 114.85 152.08 Z M 115.85 152.08 L 116.90 152.08 C 117.83 152.07 118.57 151.33 118.57 150.40 C 118.57 149.48 117.82 148.74 116.90 148.74 L 115.84 148.74 C 114.92 148.74 114.17 149.49 114.17 150.41 C 114.17 151.34 114.92 152.08 115.85 152.08 Z M 116.92 152.08 L 117.91 152.07 C 118.83 152.05 119.57 151.29 119.55 150.37 C 119.54 149.45 118.78 148.71 117.86 148.72 L 116.88 148.74 C 115.96 148.75 115.22 149.51 115.23 150.43 C 115.24 151.35 116.00 152.09 116.92 152.08 Z M 117.94 152.07 L 118.89 152.03 C 119.82 152.00 120.54 151.23 120.51 150.30 C 120.48 149.38 119.70 148.66 118.78 148.69 L 117.83 148.72 C 116.90 148.75 116.18 149.53 116.21 150.45 C 116.24 151.37 117.02 152.10 117.94 152.07 Z M 118.94 152.03 L 119.89 151.97 C 120.82 151.91 121.52 151.12 121.46 150.20 C 121.40 149.27 120.61 148.57 119.68 148.63 L 118.73 148.69 C 117.81 148.75 117.11 149.54 117.17 150.47 C 117.22 151.39 118.02 152.09 118.94 152.03 Z M 119.94 151.97 L 120.91 151.88 C 121.84 151.80 122.51 150.98 122.43 150.06 C 122.35 149.14 121.53 148.46 120.61 148.54 L 119.64 148.63 C 118.71 148.72 118.04 149.53 118.12 150.45 C 118.20 151.37 119.02 152.05 119.94 151.97 Z M 120.95 151.88 L 121.96 151.76 C 122.88 151.66 123.54 150.83 123.43 149.91 C 123.33 148.99 122.50 148.33 121.58 148.43 L 120.57 148.55 C 119.65 148.65 118.99 149.48 119.10 150.40 C 119.20 151.32 120.03 151.98 120.95 151.88 Z M 121.99 151.76 L 123.02 151.62 C 123.94 151.50 124.58 150.66 124.46 149.74 C 124.34 148.82 123.50 148.17 122.58 148.30 L 121.55 148.43 C 120.63 148.56 119.98 149.40 120.10 150.32 C 120.23 151.24 121.07 151.88 121.99 151.76 Z M 123.04 151.62 L 124.02 151.48 C 124.93 151.34 125.57 150.49 125.43 149.57 C 125.30 148.65 124.44 148.02 123.52 148.16 L 122.55 148.30 C 121.63 148.43 121.00 149.29 121.14 150.21 C 121.27 151.12 122.13 151.76 123.04 151.62 Z M 124.04 151.48 L 125.02 151.32 C 125.94 151.17 126.56 150.31 126.42 149.39 C 126.27 148.48 125.41 147.85 124.49 148.00 L 123.50 148.16 C 122.59 148.30 121.96 149.17 122.11 150.08 C 122.26 151.00 123.12 151.62 124.04 151.48 Z M 125.04 151.32 L 126.04 151.15 C 126.95 150.99 127.57 150.12 127.41 149.20 C 127.25 148.29 126.38 147.67 125.47 147.83 L 124.47 148.00 C 123.56 148.16 122.94 149.03 123.10 149.94 C 123.26 150.86 124.13 151.47 125.04 151.32 Z M 126.06 151.14 L 127.05 150.96 C 127.96 150.80 128.57 149.92 128.40 149.00 C 128.24 148.09 127.36 147.48 126.44 147.65 L 125.45 147.83 C 124.54 148.00 123.93 148.87 124.10 149.79 C 124.26 150.70 125.14 151.31 126.06 151.14 Z M 127.06 150.96 L 128.05 150.77 C 128.96 150.60 129.56 149.71 129.38 148.80 C 129.21 147.88 128.32 147.29 127.41 147.46 L 126.43 147.65 C 125.51 147.83 124.91 148.71 125.09 149.62 C 125.27 150.54 126.15 151.14 127.06 150.96 Z M 128.06 150.77 L 129.04 150.58 C 129.95 150.40 130.54 149.51 130.36 148.59 C 130.18 147.68 129.29 147.08 128.38 147.27 L 127.40 147.46 C 126.48 147.64 125.89 148.53 126.07 149.45 C 126.25 150.36 127.14 150.95 128.06 150.77 Z M 129.04 150.58 L 130.02 150.38 C 130.94 150.19 131.53 149.30 131.34 148.39 C 131.16 147.47 130.26 146.88 129.35 147.07 L 128.37 147.27 C 127.46 147.45 126.86 148.34 127.05 149.26 C 127.24 150.17 128.13 150.76 129.04 150.58 Z M 130.02 150.38 L 131.00 150.18 C 131.92 150.00 132.51 149.10 132.32 148.19 C 132.14 147.27 131.24 146.68 130.33 146.87 L 129.35 147.07 C 128.43 147.25 127.84 148.15 128.03 149.06 C 128.21 149.98 129.11 150.57 130.02 150.38 Z M 131.00 150.18 L 131.97 149.99 C 132.89 149.80 133.48 148.91 133.29 147.99 C 133.11 147.07 132.21 146.48 131.30 146.67 L 130.33 146.86 C 129.41 147.05 128.82 147.94 129.01 148.86 C 129.19 149.78 130.09 150.37 131.00 150.18 Z M 131.98 149.99 L 132.95 149.79 C 133.87 149.60 134.46 148.70 134.27 147.78 C 134.08 146.87 133.18 146.28 132.27 146.46 L 131.29 146.67 C 130.37 146.86 129.78 147.75 129.97 148.67 C 130.16 149.59 131.06 150.18 131.98 149.99 Z M 132.96 149.79 L 133.95 149.58 C 134.86 149.38 135.45 148.48 135.25 147.56 C 135.06 146.64 134.16 146.06 133.24 146.25 L 132.25 146.46 C 131.34 146.66 130.75 147.56 130.95 148.48 C 131.14 149.40 132.05 149.98 132.96 149.79 Z M 133.96 149.58 L 134.95 149.35 C 135.87 149.15 136.45 148.24 136.24 147.32 C 136.03 146.41 135.12 145.83 134.21 146.03 L 133.22 146.26 C 132.30 146.46 131.73 147.37 131.93 148.29 C 132.14 149.21 133.05 149.78 133.96 149.58 Z M 134.97 149.35 L 135.94 149.12 C 136.85 148.91 137.42 147.99 137.20 147.07 C 136.98 146.16 136.06 145.59 135.15 145.81 L 134.19 146.04 C 133.27 146.26 132.71 147.17 132.92 148.09 C 133.14 149.00 134.06 149.57 134.97 149.35 Z M 135.96 149.12 L 136.92 148.88 C 137.84 148.65 138.39 147.72 138.16 146.81 C 137.94 145.90 137.01 145.34 136.10 145.57 L 135.13 145.81 C 134.22 146.04 133.66 146.97 133.89 147.88 C 134.12 148.79 135.04 149.35 135.96 149.12 Z M 136.94 148.88 L 137.91 148.62 C 138.82 148.39 139.37 147.45 139.13 146.54 C 138.90 145.63 137.97 145.08 137.05 145.32 L 136.08 145.57 C 135.17 145.81 134.62 146.74 134.86 147.65 C 135.10 148.57 136.03 149.11 136.94 148.88 Z M 137.93 148.62 L 138.90 148.36 C 139.81 148.11 140.35 147.18 140.11 146.26 C 139.86 145.35 138.92 144.81 138.01 145.06 L 137.04 145.32 C 136.13 145.57 135.59 146.50 135.83 147.42 C 136.08 148.33 137.02 148.87 137.93 148.62 Z M 138.91 148.36 L 139.87 148.09 C 140.78 147.84 141.32 146.90 141.06 145.99 C 140.81 145.08 139.87 144.54 138.96 144.80 L 138.00 145.06 C 137.09 145.31 136.56 146.26 136.81 147.17 C 137.06 148.08 138.00 148.61 138.91 148.36 Z M 139.88 148.09 L 140.84 147.82 C 141.75 147.56 142.28 146.62 142.02 145.71 C 141.76 144.80 140.82 144.27 139.91 144.53 L 138.95 144.80 C 138.04 145.05 137.51 146.00 137.77 146.91 C 138.03 147.82 138.97 148.35 139.88 148.09 Z M 140.84 147.82 L 141.81 147.54 C 142.72 147.28 143.24 146.34 142.98 145.43 C 142.72 144.52 141.78 143.99 140.87 144.25 L 139.90 144.53 C 138.99 144.79 138.47 145.73 138.73 146.64 C 138.99 147.55 139.94 148.08 140.84 147.82 Z M 141.81 147.55 L 142.78 147.27 C 143.69 147.01 144.21 146.06 143.95 145.15 C 143.69 144.24 142.74 143.71 141.83 143.97 L 140.86 144.25 C 139.95 144.51 139.43 145.46 139.69 146.37 C 139.95 147.28 140.90 147.81 141.81 147.55 Z M 142.77 147.27 L 143.72 147.00 C 144.63 146.74 145.16 145.79 144.90 144.88 C 144.64 143.97 143.69 143.44 142.78 143.70 L 141.83 143.97 C 140.92 144.23 140.39 145.18 140.65 146.09 C 140.91 147.00 141.86 147.53 142.77 147.27 Z M 143.72 147.00 L 144.66 146.73 C 145.57 146.47 146.10 145.52 145.84 144.61 C 145.58 143.70 144.63 143.17 143.72 143.43 L 142.78 143.70 C 141.87 143.96 141.34 144.91 141.60 145.82 C 141.86 146.73 142.81 147.26 143.72 147.00 Z M 144.67 146.73 L 145.62 146.45 C 146.53 146.19 147.06 145.24 146.79 144.33 C 146.53 143.42 145.58 142.89 144.67 143.16 L 143.71 143.43 C 142.80 143.70 142.28 144.65 142.54 145.56 C 142.81 146.47 143.76 146.99 144.67 146.73 Z M 145.63 146.45 L 146.60 146.16 C 147.51 145.90 148.03 144.94 147.76 144.03 C 147.50 143.12 146.54 142.60 145.63 142.87 L 144.66 143.16 C 143.75 143.43 143.23 144.38 143.50 145.29 C 143.77 146.20 144.72 146.72 145.63 146.45 Z M 146.62 146.16 L 147.60 145.86 C 148.51 145.58 149.02 144.62 148.75 143.72 C 148.47 142.81 147.51 142.30 146.60 142.57 L 145.62 142.88 C 144.71 143.15 144.20 144.11 144.47 145.02 C 144.75 145.93 145.71 146.44 146.62 146.16 Z M 147.62 145.86 L 148.57 145.56 C 149.47 145.27 149.98 144.31 149.69 143.40 C 149.41 142.50 148.44 141.99 147.54 142.28 L 146.59 142.58 C 145.68 142.86 145.18 143.83 145.46 144.73 C 145.75 145.64 146.71 146.14 147.62 145.86 Z M 148.58 145.55 L 149.54 145.25 C 150.44 144.95 150.94 143.99 150.65 143.08 C 150.36 142.18 149.39 141.68 148.49 141.97 L 147.53 142.28 C 146.62 142.57 146.13 143.54 146.42 144.45 C 146.71 145.35 147.68 145.85 148.58 145.55 Z M 149.55 145.24 L 150.51 144.93 C 151.41 144.63 151.90 143.66 151.61 142.76 C 151.31 141.86 150.34 141.36 149.44 141.66 L 148.48 141.97 C 147.58 142.27 147.08 143.24 147.38 144.14 C 147.67 145.05 148.65 145.54 149.55 145.24 Z M 150.51 144.93 L 151.46 144.62 C 152.36 144.32 152.86 143.35 152.56 142.44 C 152.26 141.54 151.29 141.05 150.39 141.35 L 149.44 141.66 C 148.53 141.96 148.04 142.93 148.34 143.83 C 148.64 144.74 149.61 145.23 150.51 144.93 Z M 151.46 144.62 L 152.42 144.30 C 153.32 144.01 153.81 143.03 153.52 142.13 C 153.22 141.23 152.25 140.74 151.34 141.03 L 150.39 141.35 C 149.48 141.64 148.99 142.62 149.29 143.52 C 149.58 144.42 150.56 144.92 151.46 144.62 Z M 152.41 144.31 L 153.39 143.99 C 154.30 143.69 154.79 142.72 154.50 141.81 C 154.20 140.91 153.23 140.42 152.33 140.71 L 151.35 141.03 C 150.44 141.33 149.95 142.30 150.24 143.20 C 150.54 144.11 151.51 144.60 152.41 144.31 Z M 153.39 143.99 L 154.35 143.68 C 155.25 143.39 155.75 142.42 155.46 141.51 C 155.16 140.60 154.19 140.11 153.29 140.40 L 152.33 140.71 C 151.42 141.00 150.93 141.97 151.22 142.88 C 151.51 143.78 152.48 144.28 153.39 143.99 Z M 154.34 143.68 L 155.28 143.39 C 156.18 143.10 156.68 142.13 156.40 141.22 C 156.11 140.31 155.13 139.81 154.23 140.10 L 153.29 140.40 C 152.38 140.69 151.88 141.66 152.17 142.56 C 152.46 143.47 153.43 143.97 154.34 143.68 Z M 155.27 143.39 L 156.19 143.10 C 157.10 142.81 157.61 141.84 157.32 140.93 C 157.03 140.02 156.07 139.52 155.16 139.80 L 154.23 140.09 C 153.32 140.38 152.82 141.35 153.10 142.26 C 153.39 143.17 154.36 143.68 155.27 143.39 Z M 156.18 143.10 L 157.14 142.81 C 158.06 142.52 158.57 141.56 158.29 140.64 C 158.00 139.73 157.04 139.22 156.12 139.50 L 155.16 139.80 C 154.25 140.08 153.74 141.05 154.02 141.96 C 154.30 142.88 155.27 143.39 156.18 143.10 Z M 157.14 142.81 L 158.10 142.52 C 159.01 142.24 159.53 141.27 159.25 140.36 C 158.97 139.44 158.00 138.93 157.09 139.21 L 156.13 139.50 C 155.22 139.78 154.70 140.75 154.98 141.66 C 155.26 142.57 156.23 143.09 157.14 142.81 Z M 158.09 142.52 L 159.05 142.23 C 159.96 141.96 160.48 140.99 160.20 140.07 C 159.93 139.16 158.96 138.64 158.05 138.92 L 157.09 139.21 C 156.18 139.48 155.66 140.45 155.94 141.36 C 156.21 142.28 157.18 142.80 158.09 142.52 Z M 159.05 142.23 L 160.00 141.95 C 160.91 141.67 161.43 140.71 161.16 139.79 C 160.88 138.87 159.92 138.35 159.00 138.63 L 158.05 138.92 C 157.13 139.19 156.61 140.16 156.89 141.07 C 157.16 141.99 158.13 142.51 159.05 142.23 Z M 160.00 141.95 L 160.97 141.66 C 161.88 141.38 162.40 140.42 162.13 139.50 C 161.85 138.58 160.89 138.06 159.97 138.34 L 159.00 138.63 C 158.08 138.90 157.56 139.87 157.84 140.79 C 158.11 141.70 159.08 142.22 160.00 141.95 Z M 160.97 141.66 L 161.93 141.37 C 162.85 141.09 163.37 140.13 163.10 139.21 C 162.82 138.29 161.86 137.77 160.94 138.05 L 159.97 138.34 C 159.05 138.61 158.53 139.58 158.81 140.50 C 159.08 141.41 160.05 141.93 160.97 141.66 Z M 161.93 141.37 L 162.89 141.08 C 163.81 140.81 164.33 139.84 164.06 138.92 C 163.78 138.00 162.82 137.48 161.90 137.76 L 160.94 138.04 C 160.02 138.32 159.50 139.29 159.77 140.21 C 160.05 141.12 161.02 141.65 161.93 141.37 Z M 162.89 141.08 L 163.84 140.80 C 164.75 140.53 165.28 139.56 165.00 138.64 C 164.73 137.72 163.76 137.20 162.84 137.47 L 161.90 137.76 C 160.98 138.03 160.46 139.00 160.73 139.92 C 161.01 140.84 161.97 141.36 162.89 141.08 Z M 163.83 140.80 L 164.81 140.51 C 165.73 140.24 166.25 139.27 165.98 138.35 C 165.70 137.43 164.74 136.91 163.82 137.18 L 162.84 137.47 C 161.92 137.75 161.40 138.71 161.67 139.63 C 161.95 140.55 162.91 141.08 163.83 140.80 Z M 164.80 140.52 L 165.77 140.23 C 166.70 139.96 167.22 138.99 166.95 138.07 C 166.68 137.15 165.72 136.62 164.79 136.89 L 163.82 137.18 C 162.90 137.45 162.37 138.42 162.64 139.34 C 162.91 140.26 163.88 140.79 164.80 140.52 Z M 165.76 140.24 L 166.72 139.96 C 167.64 139.70 168.17 138.74 167.91 137.81 C 167.65 136.89 166.68 136.35 165.76 136.62 L 164.81 136.89 C 163.88 137.15 163.35 138.12 163.61 139.04 C 163.88 139.96 164.84 140.50 165.76 140.24 Z M 166.70 139.97 L 167.63 139.71 C 168.56 139.46 169.11 138.50 168.85 137.58 C 168.60 136.65 167.64 136.10 166.72 136.36 L 165.78 136.61 C 164.85 136.86 164.30 137.82 164.56 138.75 C 164.81 139.68 165.77 140.22 166.70 139.97 Z M 167.61 139.72 L 168.57 139.47 C 169.51 139.23 170.07 138.28 169.83 137.35 C 169.59 136.42 168.64 135.86 167.71 136.10 L 166.74 136.35 C 165.81 136.59 165.25 137.54 165.49 138.47 C 165.73 139.40 166.68 139.96 167.61 139.72 Z M 168.55 139.48 L 169.52 139.24 C 170.45 139.01 171.03 138.07 170.80 137.14 C 170.57 136.20 169.63 135.63 168.69 135.86 L 167.73 136.09 C 166.79 136.32 166.22 137.27 166.45 138.20 C 166.68 139.13 167.62 139.71 168.55 139.48 Z M 169.51 139.24 L 170.48 139.01 C 171.42 138.79 172.00 137.85 171.77 136.91 C 171.55 135.98 170.61 135.40 169.67 135.62 L 168.70 135.86 C 167.77 136.08 167.19 137.02 167.41 137.95 C 167.64 138.89 168.58 139.47 169.51 139.24 Z M 170.48 139.01 L 171.44 138.78 C 172.38 138.56 172.96 137.62 172.73 136.68 C 172.51 135.74 171.57 135.17 170.63 135.39 L 169.67 135.62 C 168.74 135.85 168.16 136.79 168.38 137.72 C 168.61 138.66 169.55 139.24 170.48 139.01 Z M 171.44 138.78 L 172.37 138.56 C 173.30 138.33 173.88 137.39 173.65 136.46 C 173.43 135.52 172.49 134.95 171.55 135.17 L 170.63 135.39 C 169.69 135.62 169.12 136.56 169.34 137.49 C 169.57 138.43 170.51 139.01 171.44 138.78 Z M 172.35 138.56 L 173.31 138.34 C 174.25 138.12 174.83 137.19 174.62 136.25 C 174.40 135.31 173.46 134.73 172.53 134.94 L 171.57 135.17 C 170.63 135.38 170.04 136.32 170.26 137.26 C 170.48 138.20 171.41 138.78 172.35 138.56 Z M 173.28 138.35 L 174.29 138.13 C 175.24 137.93 175.84 137.01 175.64 136.06 C 175.44 135.12 174.51 134.52 173.57 134.72 L 172.56 134.94 C 171.61 135.14 171.01 136.06 171.21 137.01 C 171.41 137.95 172.34 138.55 173.28 138.35 Z M 174.25 138.14 L 175.28 137.95 C 176.23 137.77 176.85 136.86 176.67 135.91 C 176.49 134.96 175.58 134.34 174.64 134.52 L 173.61 134.71 C 172.66 134.89 172.04 135.80 172.22 136.75 C 172.40 137.70 173.31 138.32 174.25 138.14 Z M 175.24 137.96 L 176.24 137.79 C 177.19 137.64 177.83 136.74 177.68 135.79 C 177.52 134.84 176.62 134.19 175.67 134.35 L 174.68 134.51 C 173.72 134.67 173.08 135.57 173.24 136.52 C 173.39 137.47 174.29 138.11 175.24 137.96 Z M 176.20 137.80 L 177.22 137.65 C 178.17 137.51 178.83 136.63 178.70 135.67 C 178.56 134.72 177.67 134.06 176.72 134.19 L 175.70 134.34 C 174.75 134.48 174.09 135.37 174.23 136.32 C 174.36 137.27 175.25 137.94 176.20 137.80 Z M 177.19 137.66 L 178.19 137.53 C 179.15 137.41 179.83 136.53 179.70 135.58 C 179.58 134.62 178.71 133.94 177.75 134.06 L 176.75 134.19 C 175.79 134.31 175.11 135.18 175.23 136.14 C 175.36 137.10 176.23 137.78 177.19 137.66 Z M 178.16 137.53 L 179.12 137.43 C 180.08 137.33 180.78 136.46 180.67 135.51 C 180.57 134.55 179.71 133.85 178.75 133.95 L 177.78 134.06 C 176.82 134.16 176.13 135.02 176.23 135.98 C 176.34 136.94 177.20 137.64 178.16 137.53 Z M 179.09 137.44 L 180.14 137.34 C 181.10 137.26 181.82 136.41 181.74 135.45 C 181.65 134.49 180.81 133.78 179.84 133.86 L 178.79 133.95 C 177.82 134.03 177.11 134.88 177.19 135.84 C 177.28 136.80 178.12 137.52 179.09 137.44 Z M 180.10 137.35 L 181.11 137.29 C 182.07 137.23 182.80 136.40 182.75 135.43 C 182.69 134.47 181.86 133.73 180.89 133.79 L 179.89 133.85 C 178.92 133.91 178.19 134.74 178.25 135.71 C 178.30 136.67 179.14 137.41 180.10 137.35 Z M 181.07 137.29 L 182.03 137.25 C 183.00 137.21 183.75 136.40 183.71 135.43 C 183.67 134.47 182.86 133.71 181.89 133.75 L 180.93 133.79 C 179.96 133.83 179.21 134.64 179.25 135.61 C 179.29 136.58 180.10 137.33 181.07 137.29 Z M 182.00 137.25 L 182.96 137.23 C 183.93 137.21 184.70 136.41 184.67 135.44 C 184.65 134.47 183.85 133.71 182.88 133.73 L 181.92 133.75 C 180.95 133.77 180.19 134.57 180.21 135.54 C 180.23 136.51 181.03 137.28 182.00 137.25 Z M 182.93 137.23 L 183.94 137.23 C 184.91 137.23 185.69 136.44 185.69 135.47 C 185.69 134.50 184.90 133.72 183.93 133.72 L 182.92 133.73 C 181.95 133.73 181.16 134.52 181.17 135.49 C 181.17 136.46 181.96 137.24 182.93 137.23 Z M 183.86 137.23 L 184.87 137.27 C 185.84 137.31 186.66 136.56 186.70 135.60 C 186.74 134.63 185.99 133.81 185.02 133.77 L 184.01 133.72 C 183.04 133.68 182.23 134.43 182.18 135.40 C 182.14 136.37 182.89 137.19 183.86 137.23 Z M 184.72 137.26 L 185.70 137.39 C 186.66 137.51 187.54 136.83 187.66 135.86 C 187.79 134.90 187.11 134.02 186.14 133.90 L 185.17 133.78 C 184.20 133.66 183.33 134.34 183.20 135.30 C 183.08 136.26 183.76 137.14 184.72 137.26 Z M 185.48 137.35 L 186.45 137.59 C 187.39 137.84 188.35 137.27 188.59 136.33 C 188.83 135.39 188.27 134.43 187.33 134.19 L 186.36 133.94 C 185.42 133.70 184.46 134.26 184.22 135.21 C 183.98 136.15 184.54 137.10 185.48 137.35 Z M 186.19 137.51 L 187.10 137.91 C 188.00 138.30 189.04 137.88 189.42 136.99 C 189.81 136.10 189.40 135.06 188.51 134.67 L 187.59 134.27 C 186.69 133.89 185.66 134.30 185.27 135.19 C 184.88 136.09 185.29 137.13 186.19 137.51 Z M 186.84 137.78 L 187.68 138.32 C 188.50 138.85 189.60 138.61 190.13 137.79 C 190.66 136.96 190.42 135.86 189.60 135.33 L 188.76 134.80 C 187.94 134.27 186.84 134.51 186.31 135.33 C 185.78 136.15 186.02 137.25 186.84 137.78 Z M 187.44 138.15 L 188.17 138.80 C 188.90 139.46 190.03 139.41 190.68 138.68 C 191.34 137.95 191.29 136.82 190.56 136.16 L 189.83 135.50 C 189.10 134.85 187.98 134.90 187.32 135.63 C 186.66 136.36 186.71 137.49 187.44 138.15 Z M 187.98 138.61 L 188.58 139.35 C 189.21 140.12 190.33 140.23 191.09 139.61 C 191.86 138.99 191.98 137.87 191.35 137.10 L 190.75 136.36 C 190.13 135.59 189.00 135.48 188.24 136.10 C 187.47 136.72 187.36 137.84 187.98 138.61 Z M 188.44 139.15 L 188.95 140.00 C 189.46 140.85 190.56 141.12 191.40 140.61 C 192.25 140.10 192.52 139.01 192.01 138.16 L 191.50 137.31 C 190.99 136.46 189.89 136.19 189.05 136.69 C 188.20 137.20 187.93 138.30 188.44 139.15 Z M 188.84 139.79 L 189.25 140.75 C 189.65 141.66 190.70 142.07 191.61 141.68 C 192.52 141.29 192.93 140.23 192.54 139.32 L 192.13 138.37 C 191.73 137.46 190.68 137.04 189.77 137.44 C 188.86 137.83 188.44 138.88 188.84 139.79 Z M 189.18 140.56 L 189.46 141.50 C 189.75 142.45 190.75 142.98 191.70 142.70 C 192.65 142.41 193.18 141.41 192.90 140.46 L 192.61 139.52 C 192.33 138.57 191.32 138.03 190.38 138.32 C 189.43 138.60 188.89 139.61 189.18 140.56 Z M 189.42 141.35 L 189.62 142.31 C 189.83 143.28 190.78 143.91 191.75 143.70 C 192.72 143.50 193.35 142.55 193.14 141.57 L 192.94 140.61 C 192.74 139.64 191.78 139.01 190.81 139.22 C 189.84 139.42 189.22 140.37 189.42 141.35 Z M 189.60 142.20 L 189.74 143.20 C 189.88 144.19 190.79 144.87 191.78 144.73 C 192.77 144.59 193.45 143.68 193.31 142.69 L 193.17 141.69 C 193.03 140.70 192.11 140.02 191.13 140.16 C 190.14 140.30 189.46 141.21 189.60 142.20 Z M 189.73 143.11 L 189.82 144.14 C 189.92 145.13 190.80 145.86 191.79 145.77 C 192.78 145.67 193.51 144.79 193.42 143.80 L 193.32 142.78 C 193.23 141.78 192.35 141.06 191.36 141.15 C 190.36 141.24 189.63 142.12 189.73 143.11 Z M 189.81 144.07 L 189.87 145.06 C 189.93 146.05 190.79 146.81 191.79 146.76 C 192.78 146.70 193.54 145.84 193.49 144.84 L 193.43 143.86 C 193.37 142.86 192.51 142.10 191.51 142.16 C 190.52 142.22 189.76 143.08 189.81 144.07 Z M 189.87 145.01 L 189.90 145.98 C 189.93 146.98 190.77 147.76 191.77 147.73 C 192.77 147.70 193.55 146.86 193.52 145.86 L 193.49 144.89 C 193.46 143.89 192.62 143.11 191.62 143.14 C 190.62 143.17 189.84 144.01 189.87 145.01 Z M 189.90 145.94 L 189.91 146.93 C 189.92 147.93 190.74 148.73 191.74 148.72 C 192.75 148.71 193.55 147.89 193.54 146.88 L 193.53 145.90 C 193.51 144.89 192.69 144.09 191.69 144.10 C 190.69 144.11 189.88 144.94 189.90 145.94 Z M 189.91 146.90 L 189.90 147.92 C 189.90 148.93 190.71 149.74 191.71 149.75 C 192.72 149.75 193.53 148.94 193.54 147.94 L 193.54 146.91 C 193.54 145.91 192.73 145.09 191.73 145.09 C 190.73 145.08 189.91 145.89 189.91 146.90 Z M 189.90 147.91 L 189.89 148.91 C 189.87 149.92 190.68 150.74 191.68 150.76 C 192.69 150.77 193.51 149.96 193.52 148.96 L 193.54 147.95 C 193.55 146.95 192.75 146.12 191.74 146.11 C 190.74 146.10 189.91 146.90 189.90 147.91 Z M 189.89 148.90 L 189.87 149.82 C 189.85 150.83 190.64 151.66 191.65 151.68 C 192.65 151.70 193.49 150.91 193.51 149.90 L 193.53 148.97 C 193.55 147.97 192.75 147.14 191.74 147.12 C 190.74 147.10 189.91 147.89 189.89 148.90 Z M 189.87 149.80 L 189.83 150.77 C 189.80 151.77 190.59 152.62 191.59 152.65 C 192.60 152.68 193.44 151.90 193.47 150.89 L 193.51 149.92 C 193.54 148.92 192.75 148.08 191.75 148.04 C 190.74 148.01 189.90 148.80 189.87 149.80 Z M 189.83 150.74 L 189.78 151.74 C 189.73 152.75 190.50 153.61 191.51 153.66 C 192.51 153.71 193.37 152.94 193.42 151.93 L 193.47 150.92 C 193.53 149.92 192.75 149.06 191.75 149.01 C 190.74 148.96 189.89 149.73 189.83 150.74 Z M 189.78 151.70 L 189.71 152.75 C 189.63 153.75 190.39 154.63 191.39 154.70 C 192.39 154.78 193.27 154.02 193.34 153.02 L 193.42 151.97 C 193.50 150.97 192.74 150.09 191.74 150.02 C 190.73 149.94 189.86 150.70 189.78 151.70 Z M 189.71 152.70 L 189.60 153.78 C 189.50 154.78 190.23 155.68 191.23 155.78 C 192.23 155.88 193.13 155.15 193.23 154.15 L 193.34 153.07 C 193.44 152.06 192.71 151.17 191.71 151.07 C 190.71 150.97 189.81 151.70 189.71 152.70 Z M 189.60 153.73 L 189.47 154.76 C 189.34 155.76 190.05 156.68 191.05 156.80 C 192.05 156.93 192.97 156.23 193.09 155.23 L 193.23 154.20 C 193.35 153.20 192.65 152.28 191.65 152.15 C 190.65 152.02 189.73 152.73 189.60 153.73 Z M 189.48 154.72 L 189.32 155.76 C 189.17 156.76 189.86 157.69 190.86 157.84 C 191.85 157.99 192.78 157.30 192.93 156.30 L 193.09 155.27 C 193.24 154.27 192.55 153.34 191.56 153.19 C 190.56 153.04 189.63 153.72 189.48 154.72 Z M 189.33 155.73 L 189.15 156.75 C 188.99 157.75 189.66 158.69 190.65 158.86 C 191.65 159.03 192.59 158.36 192.76 157.36 L 192.93 156.34 C 193.10 155.34 192.43 154.40 191.43 154.23 C 190.44 154.06 189.49 154.73 189.33 155.73 Z M 189.16 156.73 L 188.98 157.71 C 188.79 158.71 189.45 159.66 190.44 159.84 C 191.44 160.02 192.39 159.37 192.57 158.37 L 192.75 157.39 C 192.93 156.39 192.28 155.44 191.28 155.26 C 190.29 155.08 189.34 155.73 189.16 156.73 Z M 188.98 157.69 L 188.80 158.62 C 188.60 159.61 189.25 160.57 190.24 160.77 C 191.23 160.96 192.19 160.31 192.39 159.32 L 192.57 158.40 C 192.76 157.40 192.12 156.44 191.12 156.25 C 190.13 156.06 189.17 156.70 188.98 157.69 Z M 188.80 158.60 L 188.60 159.58 C 188.39 160.57 189.03 161.54 190.02 161.75 C 191.01 161.95 191.97 161.32 192.18 160.33 L 192.38 159.34 C 192.59 158.35 191.95 157.39 190.96 157.18 C 189.97 156.98 189.01 157.61 188.80 158.60 Z M 188.60 159.56 L 188.36 160.65 C 188.14 161.63 188.76 162.61 189.75 162.83 C 190.74 163.05 191.71 162.43 191.93 161.44 L 192.17 160.35 C 192.39 159.36 191.77 158.39 190.78 158.17 C 189.80 157.95 188.82 158.57 188.60 159.56 Z M 188.37 160.62 L 188.14 161.56 C 187.90 162.55 188.51 163.53 189.49 163.77 C 190.48 164.01 191.46 163.40 191.70 162.42 L 191.93 161.47 C 192.16 160.49 191.56 159.50 190.57 159.26 C 189.59 159.03 188.60 159.63 188.37 160.62 Z M 188.15 161.53 L 187.93 162.40 C 187.67 163.38 188.26 164.37 189.24 164.63 C 190.22 164.88 191.22 164.29 191.47 163.31 L 191.69 162.45 C 191.94 161.47 191.35 160.47 190.38 160.22 C 189.40 159.97 188.40 160.56 188.15 161.53 Z M 187.93 162.37 L 187.69 163.27 C 187.42 164.25 188.00 165.25 188.97 165.52 C 189.95 165.78 190.96 165.21 191.22 164.23 L 191.46 163.33 C 191.73 162.36 191.15 161.35 190.18 161.09 C 189.20 160.82 188.20 161.40 187.93 162.37 Z M 187.69 163.26 L 187.42 164.22 C 187.15 165.19 187.72 166.20 188.69 166.47 C 189.66 166.75 190.67 166.18 190.95 165.21 L 191.22 164.25 C 191.49 163.28 190.92 162.26 189.95 161.99 C 188.98 161.72 187.96 162.28 187.69 163.26 Z M 187.42 164.21 L 187.15 165.17 C 186.87 166.14 187.43 167.16 188.41 167.43 C 189.38 167.71 190.39 167.15 190.67 166.18 L 190.94 165.21 C 191.22 164.24 190.66 163.23 189.69 162.95 C 188.72 162.67 187.70 163.24 187.42 164.21 Z M 187.15 165.17 L 186.87 166.14 C 186.59 167.11 187.16 168.12 188.13 168.40 C 189.10 168.68 190.11 168.12 190.39 167.15 L 190.67 166.18 C 190.95 165.21 190.38 164.19 189.41 163.91 C 188.44 163.64 187.43 164.20 187.15 165.17 Z M 186.87 166.14 L 186.60 167.10 C 186.32 168.07 186.88 169.08 187.86 169.36 C 188.83 169.64 189.84 169.08 190.12 168.10 L 190.39 167.14 C 190.67 166.17 190.11 165.16 189.13 164.88 C 188.16 164.60 187.15 165.17 186.87 166.14 Z M 186.60 167.10 L 186.32 168.06 C 186.04 169.03 186.60 170.04 187.57 170.32 C 188.54 170.60 189.56 170.04 189.84 169.07 L 190.12 168.11 C 190.40 167.14 189.84 166.12 188.86 165.84 C 187.89 165.56 186.88 166.12 186.60 167.10 Z M 186.33 168.04 L 186.04 169.00 C 185.75 169.97 186.31 170.99 187.27 171.28 C 188.24 171.57 189.26 171.01 189.55 170.05 L 189.83 169.09 C 190.12 168.12 189.57 167.10 188.60 166.81 C 187.63 166.52 186.61 167.08 186.33 168.04 Z M 186.05 168.98 L 185.75 169.95 C 185.45 170.92 185.99 171.94 186.95 172.24 C 187.92 172.54 188.94 172.00 189.24 171.04 L 189.54 170.07 C 189.84 169.10 189.30 168.08 188.34 167.78 C 187.37 167.48 186.35 168.02 186.05 168.98 Z M 185.75 169.93 L 185.45 170.89 C 185.14 171.86 185.66 172.88 186.63 173.19 C 187.59 173.50 188.62 172.98 188.93 172.01 L 189.23 171.05 C 189.54 170.09 189.02 169.06 188.05 168.75 C 187.09 168.45 186.06 168.97 185.75 169.93 Z M 185.45 170.89 L 185.14 171.83 C 184.83 172.79 185.35 173.82 186.31 174.13 C 187.27 174.44 188.30 173.92 188.61 172.96 L 188.92 172.02 C 189.24 171.06 188.71 170.03 187.75 169.72 C 186.79 169.40 185.76 169.93 185.45 170.89 Z M 185.14 171.83 L 184.85 172.72 C 184.54 173.68 185.06 174.71 186.02 175.02 C 186.98 175.33 188.01 174.81 188.32 173.85 L 188.61 172.96 C 188.93 172.00 188.40 170.97 187.44 170.66 C 186.49 170.35 185.45 170.87 185.14 171.83 Z M 184.85 172.72 L 184.57 173.59 C 184.26 174.54 184.78 175.57 185.74 175.89 C 186.70 176.20 187.73 175.67 188.04 174.72 L 188.32 173.85 C 188.63 172.89 188.11 171.86 187.15 171.55 C 186.20 171.24 185.17 171.76 184.85 172.72 Z M 184.58 173.58 L 184.26 174.52 C 183.95 175.47 184.46 176.50 185.42 176.82 C 186.37 177.14 187.41 176.62 187.72 175.67 L 188.03 174.73 C 188.35 173.77 187.83 172.74 186.88 172.42 C 185.92 172.10 184.89 172.62 184.58 173.58 Z M 184.27 174.50 L 183.90 175.58 C 183.58 176.53 184.08 177.56 185.03 177.89 C 185.99 178.21 187.02 177.71 187.35 176.76 L 187.72 175.68 C 188.04 174.73 187.53 173.70 186.58 173.37 C 185.63 173.04 184.60 173.55 184.27 174.50 Z M 183.91 175.56 L 183.59 176.46 C 183.26 177.41 183.75 178.44 184.70 178.78 C 185.65 179.11 186.69 178.62 187.02 177.67 L 187.34 176.77 C 187.67 175.82 187.18 174.78 186.23 174.45 C 185.28 174.12 184.24 174.61 183.91 175.56 Z M 183.60 176.45 L 183.26 177.39 C 182.92 178.34 183.41 179.38 184.35 179.72 C 185.29 180.06 186.34 179.57 186.68 178.63 L 187.02 177.68 C 187.36 176.74 186.87 175.69 185.92 175.35 C 184.98 175.01 183.94 175.50 183.60 176.45 Z M 183.26 177.38 L 182.90 178.36 C 182.56 179.30 183.04 180.34 183.98 180.69 C 184.92 181.03 185.96 180.55 186.31 179.61 L 186.67 178.64 C 187.02 177.70 186.53 176.65 185.59 176.31 C 184.65 175.96 183.61 176.44 183.26 177.38 Z M 182.91 178.35 L 182.55 179.31 C 182.19 180.25 182.67 181.29 183.60 181.65 C 184.54 182.00 185.59 181.53 185.94 180.59 L 186.30 179.62 C 186.66 178.69 186.18 177.64 185.25 177.29 C 184.31 176.94 183.26 177.41 182.91 178.35 Z M 182.56 179.30 L 182.20 180.21 C 181.84 181.15 182.30 182.20 183.23 182.56 C 184.17 182.92 185.21 182.45 185.58 181.52 L 185.93 180.60 C 186.29 179.67 185.83 178.62 184.90 178.26 C 183.96 177.90 182.92 178.36 182.56 179.30 Z M 182.21 180.19 L 181.79 181.24 C 181.42 182.16 181.86 183.22 182.79 183.59 C 183.71 183.96 184.77 183.52 185.14 182.59 L 185.56 181.54 C 185.93 180.62 185.49 179.57 184.56 179.19 C 183.64 178.82 182.59 179.27 182.21 180.19 Z M 181.82 181.20 L 181.41 182.14 C 181.02 183.05 181.44 184.11 182.35 184.50 C 183.26 184.90 184.32 184.48 184.71 183.57 L 185.11 182.63 C 185.51 181.72 185.09 180.66 184.18 180.27 C 183.27 179.87 182.21 180.29 181.82 181.20 Z M 181.44 182.09 L 181.04 182.95 C 180.62 183.84 181.00 184.91 181.90 185.33 C 182.79 185.75 183.86 185.36 184.28 184.47 L 184.68 183.62 C 185.10 182.72 184.71 181.66 183.82 181.24 C 182.93 180.82 181.86 181.20 181.44 182.09 Z M 181.08 182.89 L 180.66 183.70 C 180.21 184.57 180.55 185.64 181.42 186.10 C 182.29 186.55 183.36 186.21 183.82 185.34 L 184.24 184.53 C 184.69 183.66 184.35 182.58 183.48 182.13 C 182.61 181.68 181.53 182.02 181.08 182.89 Z M 180.73 183.60 L 180.16 184.55 C 179.65 185.38 179.92 186.47 180.75 186.97 C 181.58 187.48 182.67 187.21 183.17 186.38 L 183.75 185.43 C 184.25 184.60 183.99 183.51 183.15 183.01 C 182.32 182.50 181.23 182.77 180.73 183.60 Z M 180.33 184.34 L 179.69 185.10 C 179.07 185.84 179.16 186.94 179.90 187.56 C 180.64 188.18 181.74 188.09 182.36 187.35 L 183.00 186.59 C 183.62 185.85 183.53 184.75 182.79 184.13 C 182.05 183.50 180.95 183.60 180.33 184.34 Z M 180.10 184.76 L 179.37 185.22 C 178.56 185.73 178.32 186.80 178.83 187.61 C 179.33 188.42 180.40 188.66 181.21 188.15 L 181.94 187.69 C 182.75 187.18 183.00 186.11 182.49 185.30 C 181.98 184.50 180.91 184.25 180.10 184.76 Z M 180.16 185.00 L 179.25 185.07 C 178.32 185.15 177.62 185.96 177.70 186.89 C 177.77 187.82 178.58 188.52 179.51 188.44 L 180.42 188.37 C 181.35 188.30 182.05 187.49 181.97 186.56 C 181.90 185.62 181.09 184.93 180.16 185.00 Z M 179.86 185.20 L 178.90 184.90 C 178.03 184.64 177.12 185.12 176.86 185.98 C 176.59 186.85 177.08 187.76 177.94 188.02 L 178.90 188.32 C 179.76 188.58 180.68 188.10 180.94 187.24 C 181.21 186.37 180.72 185.46 179.86 185.20 Z M 179.20 185.09 L 178.29 184.57 C 177.53 184.13 176.56 184.39 176.13 185.15 C 175.69 185.91 175.96 186.88 176.71 187.31 L 177.63 187.84 C 178.39 188.27 179.35 188.01 179.79 187.25 C 180.22 186.49 179.96 185.53 179.20 185.09 Z M 178.45 184.71 L 177.67 184.10 C 176.99 183.58 176.01 183.70 175.49 184.38 C 174.96 185.06 175.09 186.04 175.77 186.57 L 176.55 187.17 C 177.23 187.70 178.21 187.57 178.73 186.89 C 179.26 186.21 179.13 185.23 178.45 184.71 Z M 177.77 184.19 L 177.03 183.51 C 176.40 182.93 175.41 182.97 174.83 183.61 C 174.25 184.24 174.30 185.22 174.93 185.80 L 175.67 186.48 C 176.30 187.06 177.29 187.02 177.87 186.38 C 178.45 185.75 178.40 184.77 177.77 184.19 Z M 177.07 183.55 L 176.42 182.91 C 175.81 182.30 174.83 182.31 174.22 182.92 C 173.62 183.53 173.63 184.51 174.24 185.12 L 174.89 185.76 C 175.50 186.36 176.48 186.36 177.08 185.75 C 177.69 185.14 177.68 184.15 177.07 183.55 Z"
      fill="black"
      fill-rule="nonzero" /><path d="M 136.40 149.22 L 136.09 150.08 C 135.80 150.91 136.23 151.81 137.05 152.10 C 137.88 152.40 138.78 151.96 139.08 151.14 L 139.38 150.28 C 139.67 149.45 139.24 148.55 138.42 148.26 C 137.59 147.96 136.69 148.39 136.40 149.22 Z M 136.06 150.15 L 135.78 151.07 C 135.53 151.91 136.00 152.80 136.84 153.05 C 137.68 153.31 138.57 152.83 138.83 151.99 L 139.11 151.07 C 139.36 150.23 138.89 149.34 138.05 149.09 C 137.21 148.83 136.32 149.31 136.06 150.15 Z M 135.74 151.19 L 135.52 152.22 C 135.33 153.08 135.87 153.94 136.74 154.13 C 137.60 154.31 138.45 153.77 138.64 152.90 L 138.87 151.87 C 139.06 151.01 138.51 150.15 137.65 149.97 C 136.78 149.78 135.93 150.32 135.74 151.19 Z M 135.49 152.35 L 135.36 153.34 C 135.24 154.22 135.86 155.03 136.74 155.14 C 137.62 155.26 138.43 154.64 138.54 153.76 L 138.67 152.77 C 138.79 151.89 138.17 151.08 137.29 150.97 C 136.41 150.85 135.60 151.47 135.49 152.35 Z M 135.35 153.44 L 135.28 154.39 C 135.23 155.27 135.90 156.04 136.78 156.10 C 137.67 156.16 138.43 155.48 138.49 154.60 L 138.55 153.66 C 138.61 152.77 137.94 152.00 137.06 151.95 C 136.17 151.89 135.40 152.56 135.35 153.44 Z M 135.28 154.46 L 135.26 155.47 C 135.25 156.36 135.95 157.09 136.84 157.11 C 137.73 157.12 138.46 156.42 138.48 155.53 L 138.50 154.52 C 138.51 153.64 137.81 152.90 136.92 152.89 C 136.03 152.87 135.30 153.58 135.28 154.46 Z M 135.26 155.53 L 135.28 156.58 C 135.30 157.46 136.04 158.17 136.92 158.15 C 137.81 158.13 138.52 157.40 138.50 156.51 L 138.48 155.47 C 138.46 154.58 137.72 153.87 136.84 153.89 C 135.95 153.91 135.24 154.64 135.26 155.53 Z M 135.29 156.63 L 135.35 157.69 C 135.40 158.58 136.16 159.26 137.04 159.21 C 137.93 159.16 138.60 158.40 138.55 157.51 L 138.49 156.45 C 138.45 155.57 137.69 154.89 136.80 154.94 C 135.91 154.99 135.24 155.75 135.29 156.63 Z M 135.35 157.74 L 135.43 158.67 C 135.51 159.55 136.29 160.21 137.17 160.13 C 138.06 160.05 138.71 159.27 138.63 158.39 L 138.55 157.46 C 138.47 156.58 137.69 155.93 136.81 156.01 C 135.93 156.08 135.27 156.86 135.35 157.74 Z M 135.44 158.71 L 135.55 159.63 C 135.65 160.50 136.44 161.13 137.32 161.03 C 138.20 160.93 138.83 160.14 138.73 159.26 L 138.62 158.35 C 138.52 157.47 137.73 156.84 136.85 156.94 C 135.97 157.04 135.34 157.84 135.44 158.71 Z M 135.56 159.66 L 135.68 160.60 C 135.80 161.48 136.61 162.09 137.48 161.97 C 138.36 161.85 138.97 161.04 138.85 160.17 L 138.72 159.23 C 138.60 158.35 137.79 157.74 136.92 157.86 C 136.05 157.98 135.44 158.79 135.56 159.66 Z M 135.69 160.63 L 135.84 161.62 C 135.98 162.49 136.79 163.09 137.66 162.95 C 138.53 162.82 139.13 162.01 138.99 161.14 L 138.84 160.14 C 138.71 159.27 137.89 158.68 137.03 158.81 C 136.16 158.94 135.56 159.76 135.69 160.63 Z M 135.85 161.64 L 136.03 162.71 C 136.17 163.57 136.98 164.16 137.85 164.02 C 138.72 163.87 139.30 163.06 139.16 162.19 L 138.99 161.12 C 138.84 160.26 138.03 159.67 137.16 159.81 C 136.30 159.95 135.71 160.77 135.85 161.64 Z M 136.03 162.71 L 136.21 163.78 C 136.36 164.65 137.18 165.23 138.04 165.08 C 138.90 164.94 139.48 164.12 139.34 163.26 L 139.16 162.18 C 139.01 161.32 138.19 160.74 137.33 160.89 C 136.47 161.03 135.89 161.85 136.03 162.71 Z M 136.22 163.79 L 136.37 164.68 C 136.52 165.54 137.33 166.12 138.19 165.97 C 139.05 165.83 139.63 165.01 139.49 164.15 L 139.33 163.25 C 139.19 162.39 138.37 161.82 137.51 161.96 C 136.65 162.11 136.07 162.93 136.22 163.79 Z M 136.38 164.68 L 136.54 165.62 C 136.69 166.48 137.50 167.06 138.36 166.91 C 139.21 166.76 139.79 165.95 139.64 165.09 L 139.48 164.15 C 139.33 163.29 138.52 162.72 137.66 162.86 C 136.80 163.01 136.23 163.83 136.38 164.68 Z M 136.54 165.62 L 136.71 166.60 C 136.86 167.46 137.67 168.03 138.52 167.88 C 139.38 167.74 139.95 166.92 139.80 166.07 L 139.64 165.09 C 139.49 164.24 138.68 163.66 137.82 163.81 C 136.97 163.96 136.40 164.77 136.54 165.62 Z M 136.72 166.60 L 136.89 167.61 C 137.03 168.46 137.84 169.03 138.70 168.88 C 139.55 168.74 140.12 167.93 139.97 167.08 L 139.80 166.07 C 139.65 165.22 138.85 164.65 137.99 164.79 C 137.14 164.94 136.57 165.75 136.72 166.60 Z M 136.89 167.61 L 137.07 168.63 C 137.21 169.48 138.02 170.05 138.87 169.90 C 139.72 169.76 140.29 168.95 140.14 168.10 L 139.97 167.08 C 139.82 166.23 139.02 165.66 138.17 165.80 C 137.32 165.95 136.75 166.76 136.89 167.61 Z M 137.07 168.63 L 137.25 169.66 C 137.39 170.51 138.20 171.08 139.04 170.93 C 139.89 170.79 140.46 169.99 140.31 169.14 L 140.14 168.11 C 139.99 167.26 139.19 166.69 138.35 166.83 C 137.50 166.98 136.93 167.78 137.07 168.63 Z M 137.25 169.66 L 137.43 170.69 C 137.57 171.54 138.37 172.10 139.21 171.96 C 140.06 171.82 140.63 171.02 140.48 170.18 L 140.31 169.14 C 140.17 168.30 139.37 167.73 138.52 167.87 C 137.68 168.01 137.11 168.81 137.25 169.66 Z M 137.43 170.69 L 137.61 171.75 C 137.75 172.59 138.55 173.16 139.39 173.02 C 140.23 172.88 140.80 172.09 140.66 171.25 L 140.48 170.18 C 140.34 169.34 139.54 168.77 138.70 168.91 C 137.86 169.05 137.29 169.85 137.43 170.69 Z M 137.62 171.75 L 137.80 172.83 C 137.94 173.67 138.73 174.24 139.56 174.10 C 140.40 173.96 140.96 173.17 140.83 172.33 L 140.65 171.25 C 140.51 170.41 139.72 169.85 138.88 169.99 C 138.05 170.13 137.48 170.92 137.62 171.75 Z M 137.81 172.83 L 137.99 173.89 C 138.12 174.72 138.91 175.28 139.74 175.14 C 140.57 175.01 141.13 174.22 140.99 173.39 L 140.81 172.33 C 140.68 171.50 139.89 170.94 139.06 171.08 C 138.23 171.22 137.67 172.00 137.81 172.83 Z M 138.00 173.89 L 138.17 174.92 C 138.31 175.74 139.09 176.29 139.91 176.15 C 140.74 176.02 141.29 175.23 141.15 174.41 L 140.98 173.39 C 140.84 172.57 140.06 172.01 139.24 172.15 C 138.41 172.29 137.86 173.07 138.00 173.89 Z M 138.18 174.92 L 138.36 175.90 C 138.50 176.72 139.28 177.27 140.09 177.12 C 140.91 176.98 141.46 176.20 141.31 175.39 L 141.14 174.40 C 141.00 173.59 140.22 173.04 139.40 173.19 C 138.59 173.33 138.04 174.11 138.18 174.92 Z M 138.37 175.92 L 138.54 176.85 C 138.69 177.66 139.47 178.19 140.28 178.04 C 141.09 177.89 141.62 177.12 141.47 176.31 L 141.30 175.37 C 141.15 174.57 140.37 174.03 139.56 174.18 C 138.75 174.33 138.22 175.11 138.37 175.92 Z M 138.55 176.86 L 138.73 177.74 C 138.89 178.54 139.66 179.06 140.46 178.90 C 141.27 178.75 141.79 177.97 141.63 177.17 L 141.46 176.29 C 141.30 175.49 140.52 174.97 139.72 175.13 C 138.92 175.28 138.40 176.06 138.55 176.86 Z M 138.74 177.76 L 138.95 178.71 C 139.12 179.50 139.90 180.01 140.70 179.83 C 141.49 179.66 141.99 178.88 141.82 178.09 L 141.61 177.14 C 141.44 176.35 140.66 175.84 139.87 176.02 C 139.07 176.19 138.57 176.97 138.74 177.76 Z M 138.97 178.75 L 139.24 179.84 C 139.43 180.62 140.22 181.10 141.00 180.91 C 141.78 180.71 142.26 179.92 142.07 179.14 L 141.80 178.05 C 141.61 177.27 140.82 176.79 140.03 176.98 C 139.25 177.18 138.77 177.97 138.97 178.75 Z M 139.26 179.88 L 139.53 180.86 C 139.75 181.63 140.55 182.08 141.32 181.87 C 142.09 181.65 142.54 180.85 142.32 180.08 L 142.05 179.10 C 141.83 178.33 141.03 177.88 140.26 178.09 C 139.49 178.31 139.04 179.11 139.26 179.88 Z M 139.55 180.89 L 139.82 181.79 C 140.06 182.55 140.87 182.98 141.63 182.74 C 142.39 182.51 142.82 181.70 142.58 180.94 L 142.30 180.04 C 142.07 179.28 141.26 178.86 140.50 179.09 C 139.74 179.32 139.31 180.13 139.55 180.89 Z M 139.84 181.81 L 140.12 182.66 C 140.36 183.41 141.17 183.82 141.93 183.58 C 142.68 183.33 143.09 182.52 142.84 181.77 L 142.57 180.92 C 142.32 180.17 141.51 179.76 140.76 180.00 C 140.01 180.25 139.59 181.06 139.84 181.81 Z M 140.13 182.67 L 140.24 183.01 C 140.49 183.75 141.30 184.16 142.04 183.91 C 142.79 183.66 143.20 182.85 142.95 182.11 L 142.83 181.77 C 142.59 181.02 141.78 180.61 141.03 180.86 C 140.28 181.11 139.88 181.92 140.13 182.67 Z"
      fill="black"
      fill-rule="nonzero" /><path d="M 156.10 138.55 L 155.79 139.52 C 155.52 140.34 155.98 141.23 156.81 141.50 C 157.64 141.77 158.52 141.31 158.79 140.48 L 159.10 139.51 C 159.37 138.69 158.91 137.80 158.08 137.53 C 157.25 137.27 156.37 137.72 156.10 138.55 Z M 155.78 139.53 L 155.48 140.49 C 155.22 141.33 155.69 142.22 156.52 142.48 C 157.36 142.74 158.25 142.27 158.51 141.43 L 158.81 140.47 C 159.06 139.63 158.60 138.74 157.76 138.48 C 156.92 138.22 156.03 138.69 155.78 139.53 Z M 155.46 140.53 L 155.18 141.49 C 154.94 142.34 155.43 143.22 156.28 143.46 C 157.12 143.70 158.01 143.21 158.25 142.37 L 158.53 141.40 C 158.77 140.56 158.28 139.67 157.43 139.43 C 156.58 139.19 155.70 139.68 155.46 140.53 Z M 155.16 141.54 L 154.92 142.50 C 154.70 143.36 155.23 144.23 156.09 144.44 C 156.95 144.66 157.82 144.14 158.03 143.28 L 158.27 142.32 C 158.49 141.46 157.97 140.58 157.11 140.37 C 156.25 140.15 155.37 140.68 155.16 141.54 Z M 154.89 142.57 L 154.69 143.56 C 154.52 144.43 155.08 145.28 155.96 145.46 C 156.83 145.64 157.69 145.07 157.86 144.19 L 158.06 143.20 C 158.24 142.33 157.67 141.48 156.79 141.30 C 155.92 141.12 155.07 141.69 154.89 142.57 Z M 154.67 143.64 L 154.52 144.68 C 154.39 145.57 155.00 146.40 155.89 146.53 C 156.78 146.66 157.60 146.04 157.73 145.15 L 157.89 144.11 C 158.02 143.22 157.40 142.40 156.51 142.27 C 155.62 142.14 154.80 142.75 154.67 143.64 Z M 154.50 144.76 L 154.40 145.77 C 154.31 146.67 154.96 147.47 155.86 147.56 C 156.76 147.65 157.56 146.99 157.65 146.10 L 157.75 145.08 C 157.84 144.18 157.19 143.38 156.29 143.29 C 155.39 143.20 154.59 143.86 154.50 144.76 Z M 154.38 145.83 L 154.32 146.80 C 154.26 147.70 154.95 148.48 155.85 148.54 C 156.76 148.60 157.54 147.92 157.60 147.01 L 157.66 146.04 C 157.72 145.14 157.04 144.35 156.13 144.29 C 155.22 144.23 154.44 144.92 154.38 145.83 Z M 154.31 146.83 L 154.27 147.77 C 154.23 148.69 154.94 149.45 155.85 149.49 C 156.76 149.53 157.53 148.82 157.57 147.91 L 157.61 146.97 C 157.65 146.06 156.94 145.29 156.03 145.25 C 155.12 145.22 154.35 145.92 154.31 146.83 Z M 154.27 147.80 L 154.24 148.84 C 154.22 149.75 154.94 150.51 155.85 150.53 C 156.77 150.55 157.52 149.83 157.55 148.92 L 157.57 147.88 C 157.60 146.97 156.87 146.21 155.96 146.19 C 155.05 146.17 154.29 146.89 154.27 147.80 Z M 154.24 148.86 L 154.23 149.84 C 154.22 150.75 154.95 151.50 155.87 151.51 C 156.78 151.52 157.53 150.79 157.54 149.87 L 157.55 148.90 C 157.56 147.98 156.83 147.23 155.91 147.22 C 155.00 147.21 154.25 147.95 154.24 148.86 Z M 154.23 149.85 L 154.23 150.83 C 154.23 151.74 154.96 152.48 155.88 152.48 C 156.79 152.49 157.53 151.75 157.54 150.83 L 157.54 149.86 C 157.54 148.95 156.80 148.20 155.89 148.20 C 154.97 148.20 154.23 148.94 154.23 149.85 Z M 154.23 150.83 L 154.23 151.80 C 154.23 152.71 154.97 153.45 155.88 153.45 C 156.79 153.45 157.54 152.71 157.54 151.80 L 157.54 150.83 C 157.54 149.92 156.79 149.18 155.88 149.18 C 154.97 149.18 154.23 149.92 154.23 150.83 Z M 154.23 151.80 L 154.23 152.80 C 154.23 153.71 154.97 154.45 155.88 154.45 C 156.79 154.45 157.53 153.71 157.53 152.80 L 157.53 151.80 C 157.53 150.89 156.79 150.15 155.88 150.15 C 154.97 150.15 154.23 150.89 154.23 151.80 Z M 154.23 152.80 L 154.23 153.81 C 154.23 154.73 154.97 155.47 155.88 155.47 C 156.79 155.47 157.53 154.73 157.53 153.81 L 157.53 152.80 C 157.53 151.88 156.79 151.14 155.88 151.14 C 154.97 151.14 154.23 151.88 154.23 152.80 Z M 154.23 153.81 L 154.23 154.83 C 154.23 155.74 154.97 156.48 155.88 156.48 C 156.79 156.48 157.53 155.74 157.53 154.83 L 157.53 153.81 C 157.53 152.90 156.79 152.16 155.88 152.16 C 154.97 152.16 154.23 152.90 154.23 153.81 Z M 154.23 154.83 L 154.23 155.81 C 154.24 156.73 154.98 157.46 155.89 157.46 C 156.80 157.46 157.53 156.72 157.53 155.81 L 157.53 154.82 C 157.53 153.91 156.79 153.17 155.88 153.18 C 154.97 153.18 154.23 153.92 154.23 154.83 Z M 154.24 155.83 L 154.25 156.82 C 154.26 157.73 155.01 158.46 155.92 158.45 C 156.82 158.44 157.55 157.69 157.54 156.78 L 157.53 155.79 C 157.52 154.88 156.77 154.16 155.86 154.17 C 154.96 154.18 154.23 154.92 154.24 155.83 Z M 154.26 156.85 L 154.29 157.86 C 154.31 158.77 155.07 159.48 155.97 159.45 C 156.88 159.43 157.59 158.67 157.56 157.76 L 157.54 156.75 C 157.51 155.85 156.75 155.14 155.85 155.16 C 154.94 155.19 154.23 155.94 154.26 156.85 Z M 154.29 157.90 L 154.34 158.88 C 154.39 159.79 155.16 160.48 156.06 160.43 C 156.96 160.39 157.66 159.62 157.61 158.71 L 157.56 157.73 C 157.51 156.83 156.74 156.13 155.84 156.18 C 154.94 156.23 154.24 156.99 154.29 157.90 Z M 154.35 158.92 L 154.42 159.88 C 154.48 160.78 155.26 161.46 156.16 161.39 C 157.06 161.33 157.74 160.55 157.67 159.65 L 157.60 158.68 C 157.54 157.78 156.76 157.11 155.86 157.17 C 154.96 157.24 154.28 158.02 154.35 158.92 Z M 154.43 159.90 L 154.51 160.90 C 154.59 161.80 155.37 162.46 156.27 162.39 C 157.16 162.31 157.83 161.52 157.75 160.63 L 157.67 159.63 C 157.59 158.74 156.80 158.07 155.91 158.15 C 155.01 158.22 154.35 159.01 154.43 159.90 Z M 154.52 160.91 L 154.61 161.94 C 154.69 162.83 155.48 163.49 156.37 163.40 C 157.26 163.32 157.92 162.53 157.84 161.64 L 157.74 160.62 C 157.66 159.73 156.87 159.07 155.98 159.15 C 155.09 159.23 154.43 160.02 154.52 160.91 Z M 154.61 161.94 L 154.71 162.95 C 154.79 163.84 155.58 164.49 156.47 164.41 C 157.35 164.33 158.01 163.54 157.93 162.65 L 157.83 161.64 C 157.75 160.75 156.96 160.10 156.07 160.18 C 155.19 160.26 154.53 161.05 154.61 161.94 Z M 154.72 162.95 L 154.81 163.93 C 154.89 164.81 155.67 165.47 156.55 165.38 C 157.44 165.30 158.09 164.52 158.01 163.64 L 157.92 162.65 C 157.84 161.77 157.05 161.12 156.17 161.20 C 155.28 161.28 154.63 162.06 154.72 162.95 Z M 154.81 163.93 L 154.91 164.93 C 154.99 165.81 155.77 166.45 156.65 166.37 C 157.53 166.29 158.18 165.51 158.09 164.63 L 158.00 163.63 C 157.92 162.75 157.14 162.11 156.26 162.19 C 155.38 162.27 154.73 163.05 154.81 163.93 Z M 154.92 164.94 L 155.02 165.94 C 155.11 166.82 155.89 167.45 156.77 167.37 C 157.64 167.28 158.28 166.50 158.19 165.62 L 158.09 164.62 C 158.00 163.74 157.22 163.11 156.34 163.19 C 155.47 163.28 154.83 164.06 154.92 164.94 Z M 155.03 165.96 L 155.14 166.97 C 155.24 167.84 156.02 168.46 156.89 168.37 C 157.76 168.27 158.39 167.49 158.29 166.62 L 158.18 165.61 C 158.08 164.74 157.30 164.11 156.43 164.21 C 155.56 164.31 154.93 165.09 155.03 165.96 Z M 155.15 166.98 L 155.28 167.97 C 155.38 168.83 156.17 169.45 157.03 169.34 C 157.89 169.24 158.51 168.45 158.40 167.59 L 158.28 166.60 C 158.17 165.74 157.39 165.12 156.52 165.23 C 155.66 165.34 155.05 166.12 155.15 166.98 Z M 155.29 167.98 L 155.41 168.97 C 155.53 169.83 156.31 170.43 157.17 170.32 C 158.03 170.21 158.63 169.42 158.52 168.57 L 158.39 167.58 C 158.28 166.72 157.49 166.12 156.64 166.23 C 155.78 166.34 155.17 167.12 155.29 167.98 Z M 155.42 168.97 L 155.55 169.96 C 155.67 170.82 156.45 171.42 157.30 171.30 C 158.15 171.19 158.75 170.41 158.64 169.56 L 158.51 168.57 C 158.40 167.71 157.62 167.11 156.76 167.23 C 155.91 167.34 155.31 168.12 155.42 168.97 Z M 155.56 169.95 L 155.69 170.95 C 155.80 171.80 156.57 172.40 157.42 172.29 C 158.27 172.18 158.87 171.41 158.76 170.56 L 158.63 169.56 C 158.52 168.72 157.75 168.12 156.90 168.22 C 156.05 168.33 155.45 169.11 155.56 169.95 Z M 155.70 170.93 L 155.81 171.92 C 155.91 172.77 156.67 173.37 157.52 173.27 C 158.36 173.17 158.97 172.41 158.87 171.57 L 158.75 170.58 C 158.65 169.73 157.89 169.13 157.04 169.23 C 156.20 169.33 155.60 170.09 155.70 170.93 Z M 155.82 171.90 L 155.92 172.88 C 156.01 173.72 156.76 174.33 157.60 174.24 C 158.44 174.15 159.05 173.40 158.96 172.56 L 158.86 171.58 C 158.77 170.74 158.02 170.14 157.18 170.22 C 156.34 170.31 155.73 171.07 155.82 171.90 Z M 155.93 172.87 L 156.03 173.86 C 156.11 174.69 156.85 175.30 157.69 175.22 C 158.52 175.14 159.13 174.40 159.05 173.56 L 158.95 172.57 C 158.87 171.74 158.13 171.13 157.29 171.21 C 156.46 171.29 155.85 172.04 155.93 172.87 Z M 156.04 173.85 L 156.13 174.85 C 156.21 175.68 156.95 176.29 157.77 176.21 C 158.60 176.13 159.21 175.40 159.13 174.57 L 159.04 173.57 C 158.96 172.74 158.23 172.13 157.40 172.21 C 156.57 172.29 155.96 173.02 156.04 173.85 Z M 156.14 174.85 L 156.24 175.87 C 156.31 176.69 157.04 177.29 157.87 177.22 C 158.69 177.14 159.30 176.41 159.22 175.59 L 159.12 174.57 C 159.05 173.75 158.32 173.14 157.49 173.22 C 156.67 173.30 156.06 174.03 156.14 174.85 Z M 156.25 175.87 L 156.35 176.89 C 156.42 177.70 157.15 178.30 157.97 178.22 C 158.79 178.14 159.39 177.42 159.31 176.60 L 159.21 175.58 C 159.13 174.76 158.40 174.16 157.59 174.24 C 156.77 174.32 156.17 175.05 156.25 175.87 Z M 156.35 176.89 L 156.46 177.91 C 156.54 178.72 157.26 179.31 158.08 179.23 C 158.89 179.15 159.48 178.42 159.40 177.61 L 159.30 176.59 C 159.22 175.78 158.49 175.19 157.68 175.27 C 156.86 175.35 156.27 176.08 156.35 176.89 Z M 156.47 177.91 L 156.57 178.92 C 156.66 179.73 157.38 180.32 158.19 180.23 C 159.00 180.15 159.59 179.42 159.50 178.62 L 159.39 177.61 C 159.31 176.80 158.58 176.21 157.78 176.30 C 156.97 176.38 156.38 177.11 156.47 177.91 Z M 156.58 178.93 L 156.69 179.92 C 156.78 180.72 157.50 181.30 158.31 181.21 C 159.11 181.13 159.69 180.40 159.60 179.60 L 159.49 178.61 C 159.40 177.81 158.68 177.23 157.88 177.31 C 157.07 177.40 156.49 178.13 156.58 178.93 Z M 156.70 179.93 L 156.81 180.88 C 156.90 181.68 157.62 182.25 158.42 182.16 C 159.22 182.06 159.79 181.34 159.70 180.54 L 159.59 179.59 C 159.50 178.79 158.78 178.22 157.98 178.31 C 157.18 178.40 156.61 179.13 156.70 179.93 Z M 156.82 180.89 L 156.95 181.95 C 157.04 182.74 157.77 183.31 158.56 183.21 C 159.36 183.11 159.92 182.39 159.82 181.59 L 159.69 180.53 C 159.60 179.74 158.87 179.17 158.08 179.27 C 157.28 179.37 156.72 180.09 156.82 180.89 Z M 156.95 181.96 L 157.09 182.97 C 157.19 183.76 157.92 184.32 158.71 184.21 C 159.50 184.11 160.06 183.38 159.95 182.59 L 159.82 181.58 C 159.71 180.79 158.99 180.23 158.20 180.34 C 157.41 180.44 156.85 181.17 156.95 181.96 Z M 157.09 182.98 L 157.23 183.95 C 157.34 184.73 158.07 185.28 158.86 185.17 C 159.65 185.06 160.19 184.33 160.08 183.54 L 159.94 182.58 C 159.83 181.79 159.10 181.24 158.32 181.35 C 157.53 181.47 156.98 182.19 157.09 182.98 Z M 157.24 183.96 L 157.38 184.89 C 157.50 185.68 158.24 186.21 159.02 186.09 C 159.80 185.97 160.34 185.24 160.22 184.46 L 160.07 183.52 C 159.95 182.74 159.22 182.21 158.44 182.33 C 157.66 182.45 157.12 183.18 157.24 183.96 Z M 157.39 184.91 L 157.55 185.90 C 157.68 186.68 158.42 187.21 159.20 187.08 C 159.98 186.95 160.50 186.21 160.38 185.43 L 160.21 184.44 C 160.08 183.66 159.35 183.13 158.57 183.26 C 157.79 183.39 157.26 184.13 157.39 184.91 Z M 157.56 185.91 L 157.73 186.90 C 157.87 187.68 158.61 188.20 159.38 188.06 C 160.16 187.92 160.68 187.18 160.54 186.41 L 160.37 185.42 C 160.23 184.64 159.49 184.12 158.72 184.26 C 157.94 184.40 157.42 185.14 157.56 185.91 Z M 157.73 186.91 L 157.91 187.89 C 158.05 188.66 158.80 189.18 159.57 189.04 C 160.35 188.89 160.86 188.15 160.72 187.38 L 160.54 186.40 C 160.40 185.62 159.66 185.11 158.88 185.25 C 158.11 185.39 157.59 186.13 157.73 186.91 Z M 157.91 187.89 L 158.05 188.64 C 158.19 189.41 158.94 189.92 159.71 189.78 C 160.49 189.64 161.00 188.89 160.86 188.12 L 160.72 187.37 C 160.57 186.60 159.83 186.09 159.06 186.23 C 158.28 186.37 157.77 187.12 157.91 187.89 Z"
      fill="black"
      fill-rule="nonzero" /></svg>