<svg xmlns="http://www.w3.org/2000/svg" width="300" height="300" viewBox="0 0 300 300">
<path d="M 146.51 101.60 L 145.99 102.45 C 145.56 103.17 145.79 104.11 146.51 104.54 C 147.23 104.98 148.16 104.75 148.60 104.03 L 149.11 103.17 C 149.55 102.45 149.32 101.52 148.60 101.08 C 147.88 100.65 146.94 100.88 146.51 101.60 Z M 145.97 102.47 L 145.47 103.33 C 145.04 104.06 145.29 105.00 146.02 105.43 C 146.75 105.85 147.69 105.61 148.12 104.87 L 148.62 104.01 C 149.05 103.28 148.80 102.34 148.07 101.92 C 147.34 101.49 146.40 101.74 145.97 102.47 Z M 145.44 103.37 L 144.96 104.24 C 144.55 104.99 144.83 105.93 145.58 106.34 C 146.33 106.74 147.27 106.47 147.67 105.72 L 148.15 104.84 C 148.56 104.09 148.28 103.15 147.53 102.75 C 146.78 102.34 145.84 102.62 145.44 103.37 Z M 144.92 104.30 L 144.48 105.20 C 144.11 105.98 144.43 106.91 145.20 107.28 C 145.97 107.66 146.90 107.33 147.28 106.56 L 147.71 105.66 C 148.09 104.89 147.77 103.96 147.00 103.58 C 146.22 103.21 145.29 103.53 144.92 104.30 Z M 144.44 105.28 L 144.04 106.24 C 143.71 107.03 144.09 107.95 144.89 108.28 C 145.68 108.61 146.60 108.23 146.93 107.43 L 147.32 106.48 C 147.65 105.68 147.27 104.77 146.48 104.44 C 145.68 104.11 144.77 104.49 144.44 105.28 Z M 144.01 106.31 L 143.66 107.29 C 143.38 108.11 143.81 109.00 144.62 109.29 C 145.43 109.57 146.33 109.15 146.62 108.33 L 146.96 107.35 C 147.25 106.54 146.82 105.65 146.00 105.36 C 145.19 105.07 144.30 105.50 144.01 106.31 Z M 143.64 107.35 L 143.34 108.32 C 143.09 109.14 143.55 110.02 144.38 110.28 C 145.20 110.53 146.08 110.07 146.33 109.24 L 146.63 108.27 C 146.89 107.45 146.43 106.57 145.60 106.32 C 144.78 106.06 143.90 106.52 143.64 107.35 Z M 143.33 108.35 L 143.07 109.29 C 142.83 110.12 143.32 110.98 144.15 111.22 C 144.98 111.45 145.85 110.97 146.08 110.14 L 146.35 109.21 C 146.58 108.38 146.10 107.51 145.27 107.27 C 144.43 107.04 143.57 107.52 143.33 108.35 Z M 143.06 109.30 L 142.80 110.26 C 142.57 111.09 143.07 111.95 143.90 112.18 C 144.74 112.41 145.60 111.92 145.83 111.08 L 146.09 110.13 C 146.31 109.29 145.82 108.43 144.99 108.20 C 144.15 107.97 143.29 108.46 143.06 109.30 Z M 142.80 110.26 L 142.53 111.24 C 142.30 112.08 142.79 112.94 143.63 113.17 C 144.46 113.40 145.33 112.90 145.55 112.07 L 145.82 111.08 C 146.05 110.25 145.56 109.39 144.73 109.16 C 143.89 108.93 143.03 109.42 142.80 110.26 Z M 142.53 111.23 L 142.27 112.17 C 142.04 113.00 142.53 113.86 143.36 114.10 C 144.20 114.33 145.06 113.84 145.29 113.01 L 145.55 112.08 C 145.78 111.24 145.30 110.38 144.46 110.15 C 143.63 109.91 142.77 110.40 142.53 111.23 Z M 142.28 112.16 L 142.01 113.08 C 141.77 113.91 142.25 114.78 143.08 115.02 C 143.92 115.26 144.78 114.78 145.02 113.95 L 145.29 113.02 C 145.53 112.19 145.05 111.32 144.22 111.08 C 143.38 110.84 142.52 111.32 142.28 112.16 Z M 142.02 113.07 L 141.74 114.00 C 141.50 114.82 141.97 115.69 142.80 115.94 C 143.63 116.18 144.50 115.71 144.74 114.88 L 145.02 113.96 C 145.26 113.13 144.79 112.26 143.96 112.02 C 143.13 111.77 142.26 112.24 142.02 113.07 Z M 141.75 113.99 L 141.46 114.95 C 141.21 115.77 141.68 116.64 142.50 116.89 C 143.33 117.14 144.20 116.67 144.45 115.85 L 144.74 114.89 C 144.99 114.07 144.52 113.19 143.69 112.95 C 142.87 112.70 142.00 113.16 141.75 113.99 Z M 141.46 114.94 L 141.17 115.92 C 140.92 116.75 141.38 117.62 142.21 117.87 C 143.03 118.12 143.90 117.65 144.15 116.83 L 144.44 115.85 C 144.69 115.03 144.23 114.16 143.41 113.91 C 142.58 113.66 141.71 114.12 141.46 114.94 Z M 141.17 115.93 L 140.88 116.88 C 140.63 117.70 141.10 118.57 141.92 118.82 C 142.74 119.07 143.61 118.60 143.85 117.78 L 144.14 116.83 C 144.39 116.00 143.93 115.14 143.11 114.89 C 142.28 114.64 141.42 115.11 141.17 115.93 Z M 140.88 116.89 L 140.60 117.82 C 140.36 118.64 140.82 119.51 141.64 119.75 C 142.46 120.00 143.32 119.53 143.57 118.71 L 143.85 117.78 C 144.10 116.96 143.63 116.09 142.81 115.85 C 141.99 115.60 141.13 116.07 140.88 116.89 Z M 140.61 117.82 L 140.32 118.78 C 140.07 119.59 140.53 120.46 141.35 120.70 C 142.17 120.95 143.03 120.49 143.28 119.67 L 143.57 118.71 C 143.81 117.90 143.35 117.04 142.53 116.79 C 141.72 116.54 140.85 117.00 140.61 117.82 Z M 140.32 118.77 L 140.02 119.76 C 139.77 120.57 140.23 121.43 141.05 121.68 C 141.86 121.93 142.72 121.47 142.97 120.66 L 143.27 119.68 C 143.52 118.86 143.06 118.00 142.25 117.75 C 141.44 117.50 140.57 117.96 140.32 118.77 Z M 140.03 119.75 L 139.74 120.69 C 139.48 121.50 139.94 122.36 140.75 122.62 C 141.56 122.87 142.42 122.42 142.67 121.61 L 142.97 120.67 C 143.22 119.86 142.77 118.99 141.95 118.74 C 141.14 118.49 140.28 118.94 140.03 119.75 Z M 139.74 120.69 L 139.45 121.62 C 139.19 122.43 139.64 123.29 140.45 123.55 C 141.25 123.80 142.11 123.36 142.37 122.55 L 142.67 121.61 C 142.92 120.80 142.47 119.94 141.67 119.69 C 140.86 119.43 140.00 119.88 139.74 120.69 Z M 139.45 121.62 L 139.15 122.58 C 138.89 123.39 139.34 124.24 140.14 124.50 C 140.94 124.76 141.80 124.31 142.06 123.51 L 142.36 122.55 C 142.62 121.75 142.17 120.89 141.37 120.63 C 140.57 120.38 139.71 120.82 139.45 121.62 Z M 139.15 122.58 L 138.84 123.56 C 138.59 124.36 139.03 125.21 139.83 125.47 C 140.63 125.73 141.49 125.28 141.74 124.48 L 142.05 123.51 C 142.31 122.71 141.87 121.85 141.06 121.60 C 140.26 121.34 139.41 121.78 139.15 122.58 Z M 138.85 123.56 L 138.54 124.52 C 138.29 125.32 138.73 126.18 139.53 126.43 C 140.33 126.68 141.18 126.24 141.43 125.44 L 141.74 124.48 C 141.99 123.68 141.55 122.83 140.75 122.57 C 139.95 122.32 139.10 122.76 138.85 123.56 Z M 138.54 124.53 L 138.24 125.48 C 137.99 126.27 138.43 127.12 139.23 127.37 C 140.03 127.63 140.88 127.18 141.13 126.39 L 141.43 125.44 C 141.68 124.64 141.24 123.79 140.44 123.54 C 139.65 123.29 138.80 123.73 138.54 124.53 Z M 138.25 125.48 L 137.95 126.43 C 137.70 127.22 138.13 128.07 138.93 128.32 C 139.72 128.57 140.57 128.13 140.82 127.34 L 141.12 126.39 C 141.37 125.59 140.93 124.75 140.14 124.50 C 139.35 124.24 138.50 124.68 138.25 125.48 Z M 137.95 126.43 L 137.65 127.38 C 137.39 128.17 137.83 129.02 138.62 129.27 C 139.41 129.52 140.25 129.09 140.51 128.30 L 140.81 127.34 C 141.07 126.55 140.63 125.71 139.84 125.45 C 139.05 125.20 138.21 125.64 137.95 126.43 Z M 137.65 127.38 L 137.34 128.33 C 137.09 129.12 137.52 129.97 138.30 130.22 C 139.09 130.48 139.93 130.05 140.19 129.26 L 140.50 128.30 C 140.76 127.52 140.33 126.67 139.54 126.42 C 138.75 126.16 137.91 126.59 137.65 127.38 Z M 137.35 128.33 L 137.03 129.28 C 136.77 130.07 137.20 130.91 137.98 131.17 C 138.76 131.43 139.60 131.01 139.86 130.22 L 140.18 129.27 C 140.44 128.49 140.02 127.64 139.24 127.38 C 138.45 127.12 137.61 127.55 137.35 128.33 Z M 137.04 129.28 L 136.72 130.23 C 136.46 131.01 136.87 131.85 137.65 132.11 C 138.43 132.38 139.27 131.96 139.53 131.18 L 139.86 130.23 C 140.12 129.45 139.70 128.61 138.93 128.35 C 138.15 128.08 137.30 128.50 137.04 129.28 Z M 136.73 130.22 L 136.40 131.17 C 136.13 131.94 136.54 132.78 137.32 133.05 C 138.09 133.32 138.93 132.91 139.20 132.13 L 139.53 131.19 C 139.79 130.42 139.38 129.57 138.61 129.31 C 137.84 129.04 136.99 129.45 136.73 130.22 Z M 136.41 131.16 L 136.08 132.10 C 135.81 132.87 136.22 133.71 136.98 133.98 C 137.75 134.25 138.59 133.84 138.86 133.08 L 139.19 132.14 C 139.46 131.37 139.06 130.53 138.29 130.26 C 137.52 129.99 136.68 130.39 136.41 131.16 Z M 136.09 132.10 L 135.77 132.98 C 135.50 133.74 135.90 134.58 136.67 134.86 C 137.43 135.13 138.27 134.73 138.54 133.96 L 138.86 133.08 C 139.13 132.32 138.73 131.47 137.96 131.20 C 137.20 130.93 136.36 131.33 136.09 132.10 Z M 135.78 132.98 L 135.47 133.84 C 135.20 134.61 135.59 135.44 136.35 135.72 C 137.12 135.99 137.96 135.59 138.23 134.83 L 138.54 133.96 C 138.81 133.20 138.41 132.36 137.65 132.09 C 136.89 131.82 136.05 132.21 135.78 132.98 Z M 135.47 133.85 L 135.15 134.75 C 134.88 135.51 135.27 136.35 136.03 136.62 C 136.79 136.89 137.63 136.49 137.90 135.73 L 138.22 134.83 C 138.50 134.07 138.10 133.23 137.34 132.96 C 136.58 132.69 135.74 133.09 135.47 133.85 Z M 135.15 134.76 L 134.81 135.73 C 134.54 136.49 134.94 137.32 135.70 137.59 C 136.46 137.85 137.29 137.45 137.56 136.70 L 137.90 135.73 C 138.17 134.97 137.77 134.13 137.01 133.87 C 136.25 133.60 135.42 134.00 135.15 134.76 Z M 134.81 135.74 L 134.44 136.80 C 134.18 137.56 134.58 138.39 135.34 138.65 C 136.10 138.91 136.93 138.51 137.19 137.75 L 137.56 136.69 C 137.82 135.93 137.42 135.10 136.66 134.84 C 135.90 134.58 135.07 134.98 134.81 135.74 Z M 134.44 136.81 L 134.12 137.76 C 133.86 138.51 134.27 139.34 135.03 139.59 C 135.79 139.85 136.61 139.45 136.87 138.69 L 137.19 137.74 C 137.44 136.98 137.04 136.16 136.28 135.90 C 135.52 135.65 134.70 136.05 134.44 136.81 Z M 134.12 137.77 L 133.80 138.74 C 133.55 139.49 133.96 140.31 134.71 140.57 C 135.47 140.82 136.29 140.41 136.54 139.65 L 136.87 138.68 C 137.12 137.92 136.71 137.10 135.95 136.85 C 135.19 136.60 134.37 137.01 134.12 137.77 Z M 133.80 138.75 L 133.47 139.74 C 133.23 140.50 133.64 141.31 134.40 141.56 C 135.16 141.81 135.97 141.40 136.22 140.64 L 136.54 139.64 C 136.79 138.88 136.38 138.07 135.62 137.82 C 134.86 137.57 134.05 137.99 133.80 138.75 Z M 133.47 139.75 L 133.16 140.74 C 132.92 141.50 133.33 142.31 134.09 142.55 C 134.85 142.80 135.66 142.38 135.90 141.62 L 136.22 140.63 C 136.46 139.87 136.04 139.06 135.28 138.81 C 134.53 138.57 133.71 138.99 133.47 139.75 Z M 133.16 140.75 L 132.86 141.71 C 132.62 142.47 133.05 143.28 133.81 143.51 C 134.57 143.75 135.38 143.32 135.61 142.56 L 135.91 141.60 C 136.14 140.85 135.72 140.04 134.96 139.80 C 134.20 139.57 133.39 139.99 133.16 140.75 Z M 132.86 141.73 L 132.59 142.62 C 132.37 143.38 132.80 144.18 133.56 144.41 C 134.32 144.64 135.12 144.20 135.35 143.44 L 135.61 142.55 C 135.84 141.79 135.40 140.99 134.64 140.76 C 133.88 140.53 133.08 140.97 132.86 141.73 Z M 132.59 142.65 L 132.28 143.77 C 132.07 144.53 132.51 145.32 133.28 145.53 C 134.04 145.75 134.83 145.30 135.04 144.53 L 135.35 143.42 C 135.56 142.65 135.11 141.86 134.35 141.65 C 133.59 141.44 132.80 141.89 132.59 142.65 Z M 132.27 143.81 L 132.01 144.84 C 131.82 145.60 132.29 146.38 133.06 146.57 C 133.83 146.76 134.60 146.29 134.79 145.53 L 135.05 144.50 C 135.24 143.73 134.77 142.95 134.00 142.76 C 133.24 142.57 132.46 143.04 132.27 143.81 Z M 132.01 144.87 L 131.81 145.78 C 131.63 146.55 132.12 147.31 132.89 147.48 C 133.66 147.66 134.43 147.17 134.60 146.40 L 134.80 145.49 C 134.97 144.72 134.48 143.96 133.71 143.79 C 132.94 143.61 132.18 144.10 132.01 144.87 Z M 131.80 145.80 L 131.63 146.64 C 131.47 147.42 131.97 148.17 132.74 148.33 C 133.52 148.49 134.27 147.99 134.43 147.22 L 134.60 146.37 C 134.76 145.60 134.26 144.85 133.49 144.69 C 132.72 144.53 131.96 145.03 131.80 145.80 Z M 131.63 146.65 L 131.60 146.82 C 131.44 147.59 131.94 148.35 132.71 148.50 C 133.49 148.65 134.24 148.15 134.39 147.38 L 134.43 147.21 C 134.58 146.44 134.08 145.69 133.31 145.53 C 132.54 145.38 131.79 145.88 131.63 146.65 Z"
      fill="black"
      fill-rule="nonzero" /><path d="M 142.80 125.26 L 141.94 124.40 C 141.35 123.81 140.39 123.81 139.80 124.40 C 139.20 125.00 139.20 125.96 139.80 126.55 L 140.66 127.40 C 141.25 128.00 142.21 128.00 142.80 127.40 C 143.39 126.81 143.39 125.85 142.80 125.26 Z M 142.15 124.65 L 141.65 123.86 C 141.19 123.16 140.25 122.95 139.54 123.40 C 138.83 123.86 138.62 124.80 139.08 125.51 L 139.58 126.30 C 140.04 127.01 140.98 127.21 141.69 126.76 C 142.40 126.30 142.61 125.36 142.15 124.65 Z M 141.85 125.09 L 142.01 124.47 C 142.23 123.65 141.74 122.81 140.93 122.59 C 140.11 122.37 139.26 122.86 139.04 123.68 L 138.88 124.29 C 138.66 125.11 139.15 125.95 139.96 126.17 C 140.78 126.39 141.63 125.91 141.85 125.09 Z M 141.28 125.42 L 141.98 125.03 C 142.72 124.62 142.98 123.67 142.57 122.93 C 142.15 122.19 141.21 121.92 140.47 122.34 L 139.77 122.73 C 139.03 123.15 138.76 124.09 139.18 124.83 C 139.60 125.57 140.54 125.84 141.28 125.42 Z M 141.67 125.17 L 142.69 124.86 C 143.51 124.61 143.97 123.74 143.72 122.93 C 143.47 122.11 142.61 121.65 141.79 121.90 L 140.77 122.21 C 139.95 122.45 139.49 123.32 139.74 124.14 C 139.99 124.96 140.85 125.42 141.67 125.17 Z M 142.59 124.89 L 143.73 124.63 C 144.56 124.44 145.09 123.60 144.89 122.77 C 144.70 121.93 143.87 121.41 143.03 121.60 L 141.89 121.86 C 141.05 122.05 140.53 122.89 140.72 123.72 C 140.92 124.56 141.75 125.08 142.59 124.89 Z M 143.72 124.64 L 144.77 124.40 C 145.61 124.21 146.14 123.38 145.95 122.54 C 145.76 121.70 144.93 121.17 144.09 121.36 L 143.04 121.59 C 142.20 121.78 141.67 122.62 141.86 123.46 C 142.05 124.30 142.88 124.82 143.72 124.64 Z M 144.79 124.40 L 145.75 124.18 C 146.59 123.98 147.11 123.13 146.91 122.29 C 146.71 121.45 145.87 120.93 145.03 121.13 L 144.07 121.36 C 143.23 121.56 142.71 122.40 142.91 123.24 C 143.11 124.08 143.95 124.60 144.79 124.40 Z M 145.75 124.18 L 146.69 123.95 C 147.54 123.75 148.06 122.90 147.85 122.06 C 147.65 121.22 146.80 120.70 145.96 120.90 L 145.02 121.13 C 144.18 121.33 143.66 122.18 143.86 123.02 C 144.06 123.86 144.91 124.38 145.75 124.18 Z M 146.69 123.96 L 147.67 123.73 C 148.51 123.53 149.04 122.69 148.84 121.84 C 148.65 120.99 147.80 120.47 146.95 120.66 L 145.97 120.89 C 145.12 121.09 144.60 121.94 144.79 122.79 C 144.99 123.63 145.84 124.16 146.69 123.96 Z M 147.65 123.74 L 148.59 123.53 C 149.44 123.35 149.98 122.50 149.79 121.65 C 149.60 120.80 148.75 120.26 147.90 120.45 L 146.97 120.65 C 146.11 120.84 145.58 121.69 145.77 122.54 C 145.95 123.39 146.80 123.93 147.65 123.74 Z M 148.58 123.55 L 149.56 123.33 C 150.42 123.15 150.97 122.30 150.78 121.45 C 150.60 120.59 149.75 120.04 148.89 120.22 L 147.91 120.44 C 147.05 120.62 146.50 121.47 146.69 122.32 C 146.87 123.18 147.72 123.73 148.58 123.55 Z M 149.56 123.34 L 150.56 123.13 C 151.42 122.95 151.98 122.10 151.80 121.24 C 151.61 120.38 150.77 119.82 149.90 120.00 L 148.90 120.22 C 148.03 120.40 147.48 121.24 147.66 122.11 C 147.84 122.97 148.69 123.53 149.56 123.34 Z M 150.56 123.14 L 151.55 122.93 C 152.42 122.75 152.98 121.90 152.80 121.03 C 152.62 120.16 151.77 119.61 150.90 119.79 L 149.90 120.00 C 149.03 120.18 148.48 121.03 148.66 121.90 C 148.84 122.77 149.69 123.32 150.56 123.14 Z M 151.56 122.94 L 152.60 122.73 C 153.48 122.54 154.04 121.68 153.85 120.81 C 153.67 119.93 152.81 119.37 151.94 119.56 L 150.89 119.78 C 150.02 119.96 149.46 120.82 149.64 121.69 C 149.82 122.57 150.68 123.13 151.56 122.94 Z M 152.60 122.74 L 153.61 122.54 C 154.49 122.35 155.06 121.49 154.88 120.60 C 154.70 119.72 153.83 119.15 152.95 119.33 L 151.94 119.54 C 151.06 119.72 150.49 120.59 150.67 121.47 C 150.85 122.36 151.71 122.92 152.60 122.74 Z M 153.59 122.56 L 154.55 122.37 C 155.44 122.20 156.03 121.33 155.86 120.44 C 155.69 119.54 154.82 118.95 153.92 119.13 L 152.97 119.31 C 152.07 119.49 151.48 120.35 151.66 121.25 C 151.83 122.14 152.70 122.73 153.59 122.56 Z M 154.52 122.39 L 155.43 122.24 C 156.34 122.08 156.95 121.22 156.80 120.31 C 156.64 119.40 155.78 118.79 154.87 118.95 L 153.96 119.10 C 153.05 119.26 152.44 120.12 152.59 121.03 C 152.75 121.94 153.61 122.55 154.52 122.39 Z M 155.32 122.28 L 156.36 122.18 C 157.29 122.09 157.97 121.26 157.88 120.33 C 157.79 119.40 156.97 118.72 156.03 118.80 L 154.99 118.90 C 154.06 118.99 153.38 119.82 153.47 120.75 C 153.56 121.69 154.38 122.37 155.32 122.28 Z M 155.85 122.19 L 156.74 122.37 C 157.68 122.57 158.60 121.96 158.79 121.03 C 158.98 120.09 158.38 119.17 157.44 118.98 L 156.54 118.80 C 155.61 118.60 154.69 119.21 154.50 120.14 C 154.31 121.08 154.91 122.00 155.85 122.19 Z M 155.84 121.92 L 156.52 122.61 C 157.20 123.30 158.32 123.31 159.02 122.62 C 159.71 121.93 159.71 120.82 159.03 120.12 L 158.35 119.43 C 157.66 118.74 156.54 118.73 155.85 119.42 C 155.16 120.11 155.15 121.23 155.84 121.92 Z M 156.10 122.00 L 156.39 122.76 C 156.74 123.69 157.77 124.15 158.69 123.80 C 159.62 123.46 160.08 122.43 159.73 121.50 L 159.45 120.73 C 159.10 119.81 158.07 119.34 157.14 119.69 C 156.22 120.04 155.75 121.07 156.10 122.00 Z M 156.30 122.48 L 156.49 123.42 C 156.68 124.39 157.62 125.02 158.59 124.83 C 159.57 124.64 160.20 123.70 160.01 122.73 L 159.82 121.79 C 159.63 120.81 158.69 120.18 157.72 120.37 C 156.74 120.56 156.11 121.51 156.30 122.48 Z M 156.46 123.26 L 156.57 124.32 C 156.67 125.30 157.55 126.02 158.54 125.92 C 159.53 125.82 160.24 124.94 160.14 123.95 L 160.04 122.89 C 159.93 121.91 159.05 121.19 158.07 121.29 C 157.08 121.39 156.36 122.27 156.46 123.26 Z M 156.56 124.21 L 156.60 125.30 C 156.64 126.30 157.48 127.07 158.47 127.03 C 159.47 126.99 160.24 126.15 160.20 125.15 L 160.16 124.06 C 160.11 123.07 159.28 122.29 158.28 122.33 C 157.29 122.37 156.52 123.21 156.56 124.21 Z M 156.60 125.22 L 156.59 126.28 C 156.59 127.27 157.40 128.08 158.39 128.09 C 159.39 128.09 160.20 127.28 160.20 126.29 L 160.21 125.23 C 160.21 124.24 159.40 123.43 158.41 123.42 C 157.41 123.42 156.60 124.23 156.60 125.22 Z M 156.59 126.20 L 156.54 127.35 C 156.50 128.34 157.27 129.19 158.27 129.23 C 159.27 129.27 160.11 128.50 160.15 127.50 L 160.20 126.36 C 160.25 125.36 159.47 124.52 158.48 124.48 C 157.48 124.43 156.64 125.21 156.59 126.20 Z M 156.55 127.26 L 156.46 128.28 C 156.36 129.27 157.10 130.15 158.09 130.25 C 159.08 130.34 159.96 129.60 160.06 128.61 L 160.15 127.59 C 160.24 126.60 159.51 125.72 158.51 125.62 C 157.52 125.53 156.64 126.26 156.55 127.26 Z M 156.47 128.19 L 156.33 129.12 C 156.19 130.11 156.88 131.02 157.87 131.16 C 158.86 131.30 159.77 130.61 159.91 129.62 L 160.04 128.70 C 160.18 127.71 159.50 126.80 158.51 126.66 C 157.52 126.52 156.61 127.20 156.47 128.19 Z M 156.35 129.05 L 156.18 129.94 C 156.00 130.92 156.66 131.86 157.64 132.04 C 158.62 132.22 159.56 131.57 159.74 130.59 L 159.90 129.70 C 160.08 128.71 159.43 127.77 158.45 127.59 C 157.47 127.42 156.53 128.07 156.35 129.05 Z M 156.19 129.90 L 156.00 130.81 C 155.80 131.79 156.43 132.75 157.41 132.95 C 158.39 133.15 159.34 132.52 159.54 131.54 L 159.73 130.63 C 159.93 129.65 159.30 128.70 158.32 128.50 C 157.35 128.30 156.39 128.92 156.19 129.90 Z M 156.01 130.79 L 155.80 131.74 C 155.59 132.72 156.20 133.68 157.18 133.89 C 158.15 134.11 159.11 133.49 159.33 132.52 L 159.54 131.56 C 159.75 130.59 159.13 129.63 158.16 129.42 C 157.19 129.20 156.22 129.82 156.01 130.79 Z M 155.81 131.73 L 155.58 132.72 C 155.36 133.69 155.97 134.66 156.94 134.88 C 157.91 135.10 158.88 134.49 159.10 133.52 L 159.32 132.53 C 159.54 131.56 158.94 130.59 157.97 130.37 C 156.99 130.15 156.03 130.76 155.81 131.73 Z M 155.58 132.71 L 155.35 133.73 C 155.12 134.70 155.72 135.67 156.69 135.90 C 157.66 136.12 158.63 135.52 158.86 134.55 L 159.09 133.53 C 159.32 132.56 158.72 131.59 157.75 131.36 C 156.78 131.14 155.81 131.74 155.58 132.71 Z M 155.35 133.73 L 155.12 134.69 C 154.90 135.66 155.50 136.62 156.46 136.85 C 157.43 137.08 158.40 136.48 158.63 135.51 L 158.85 134.55 C 159.08 133.59 158.48 132.62 157.51 132.39 C 156.54 132.16 155.57 132.76 155.35 133.73 Z M 155.13 134.69 L 154.90 135.64 C 154.67 136.61 155.27 137.58 156.24 137.80 C 157.21 138.03 158.17 137.43 158.40 136.47 L 158.63 135.51 C 158.85 134.54 158.26 133.58 157.29 133.35 C 156.32 133.12 155.35 133.72 155.13 134.69 Z M 154.90 135.64 L 154.67 136.61 C 154.44 137.58 155.04 138.55 156.01 138.78 C 156.97 139.01 157.94 138.41 158.17 137.44 L 158.40 136.47 C 158.63 135.50 158.03 134.53 157.07 134.31 C 156.10 134.08 155.13 134.67 154.90 135.64 Z M 154.67 136.61 L 154.44 137.60 C 154.21 138.57 154.80 139.54 155.76 139.77 C 156.73 140.00 157.70 139.40 157.93 138.44 L 158.17 137.45 C 158.40 136.48 157.80 135.51 156.84 135.28 C 155.87 135.05 154.90 135.65 154.67 136.61 Z M 154.44 137.60 L 154.20 138.59 C 153.97 139.56 154.56 140.52 155.52 140.76 C 156.48 140.99 157.45 140.40 157.68 139.44 L 157.92 138.44 C 158.16 137.48 157.57 136.51 156.60 136.28 C 155.64 136.05 154.67 136.64 154.44 137.60 Z M 154.20 138.59 L 153.97 139.54 C 153.74 140.50 154.33 141.47 155.29 141.70 C 156.25 141.94 157.21 141.35 157.45 140.39 L 157.68 139.44 C 157.92 138.48 157.33 137.51 156.37 137.28 C 155.41 137.04 154.44 137.63 154.20 138.59 Z M 153.98 139.54 L 153.74 140.50 C 153.50 141.45 154.09 142.42 155.05 142.66 C 156.01 142.89 156.97 142.31 157.21 141.35 L 157.44 140.39 C 157.68 139.43 157.09 138.46 156.14 138.23 C 155.18 137.99 154.21 138.58 153.98 139.54 Z M 153.74 140.50 L 153.50 141.47 C 153.27 142.43 153.85 143.39 154.81 143.63 C 155.77 143.86 156.73 143.28 156.97 142.32 L 157.21 141.35 C 157.44 140.39 156.86 139.43 155.90 139.19 C 154.94 138.96 153.98 139.54 153.74 140.50 Z M 153.51 141.48 L 153.27 142.46 C 153.03 143.42 153.62 144.38 154.57 144.61 C 155.53 144.85 156.49 144.26 156.72 143.31 L 156.96 142.32 C 157.20 141.36 156.61 140.40 155.66 140.17 C 154.70 139.94 153.74 140.52 153.51 141.48 Z M 153.27 142.47 L 153.03 143.45 C 152.80 144.41 153.39 145.36 154.34 145.59 C 155.30 145.82 156.25 145.24 156.48 144.28 L 156.72 143.30 C 156.95 142.35 156.36 141.39 155.41 141.16 C 154.46 140.93 153.50 141.52 153.27 142.47 Z M 153.04 143.46 L 152.81 144.40 C 152.58 145.36 153.17 146.31 154.12 146.54 C 155.07 146.76 156.03 146.18 156.26 145.22 L 156.48 144.28 C 156.71 143.33 156.12 142.37 155.17 142.15 C 154.22 141.92 153.26 142.51 153.04 143.46 Z M 152.82 144.41 L 152.59 145.37 C 152.36 146.32 152.95 147.27 153.90 147.49 C 154.85 147.72 155.80 147.13 156.02 146.18 L 156.25 145.22 C 156.48 144.27 155.89 143.32 154.94 143.10 C 153.99 142.87 153.04 143.46 152.82 144.41 Z M 152.59 145.37 L 152.36 146.34 C 152.14 147.29 152.72 148.24 153.67 148.46 C 154.61 148.69 155.56 148.10 155.79 147.16 L 156.02 146.18 C 156.24 145.24 155.66 144.29 154.71 144.06 C 153.77 143.84 152.82 144.42 152.59 145.37 Z M 152.37 146.34 L 152.13 147.33 C 151.90 148.27 152.49 149.22 153.43 149.44 C 154.37 149.67 155.32 149.09 155.54 148.15 L 155.78 147.16 C 156.01 146.22 155.43 145.27 154.48 145.04 C 153.54 144.82 152.59 145.40 152.37 146.34 Z M 152.14 147.32 L 151.89 148.33 C 151.66 149.26 152.24 150.21 153.18 150.44 C 154.12 150.67 155.06 150.09 155.29 149.16 L 155.54 148.15 C 155.77 147.21 155.19 146.27 154.25 146.04 C 153.31 145.81 152.37 146.38 152.14 147.32 Z M 151.90 148.32 L 151.67 149.26 C 151.43 150.19 152.00 151.14 152.94 151.37 C 153.87 151.61 154.82 151.04 155.05 150.10 L 155.28 149.16 C 155.52 148.23 154.95 147.28 154.01 147.05 C 153.08 146.82 152.13 147.38 151.90 148.32 Z M 151.67 149.26 L 151.43 150.21 C 151.20 151.14 151.76 152.08 152.69 152.32 C 153.62 152.55 154.56 151.99 154.80 151.06 L 155.04 150.11 C 155.28 149.18 154.71 148.23 153.78 148.00 C 152.85 147.76 151.91 148.33 151.67 149.26 Z M 151.44 150.21 L 151.20 151.17 C 150.96 152.10 151.52 153.04 152.44 153.27 C 153.37 153.51 154.31 152.95 154.54 152.03 L 154.79 151.06 C 155.03 150.14 154.47 149.20 153.54 148.96 C 152.62 148.72 151.68 149.28 151.44 150.21 Z M 151.20 151.17 L 150.95 152.15 C 150.72 153.07 151.27 154.01 152.19 154.24 C 153.11 154.48 154.05 153.92 154.29 153.00 L 154.54 152.03 C 154.77 151.11 154.22 150.17 153.30 149.93 C 152.38 149.70 151.44 150.25 151.20 151.17 Z M 150.96 152.15 L 150.71 153.14 C 150.47 154.06 151.03 154.99 151.94 155.22 C 152.86 155.46 153.79 154.91 154.03 153.99 L 154.28 153.00 C 154.51 152.08 153.96 151.15 153.04 150.92 C 152.13 150.68 151.19 151.23 150.96 152.15 Z M 150.71 153.15 L 150.46 154.13 C 150.23 155.05 150.78 155.97 151.70 156.21 C 152.61 156.44 153.54 155.88 153.77 154.97 L 154.02 153.98 C 154.25 153.07 153.70 152.14 152.79 151.91 C 151.87 151.68 150.94 152.23 150.71 153.15 Z M 150.47 154.14 L 150.23 155.10 C 150.00 156.01 150.55 156.93 151.46 157.16 C 152.37 157.38 153.30 156.83 153.52 155.92 L 153.76 154.96 C 153.99 154.06 153.44 153.13 152.53 152.91 C 151.62 152.68 150.70 153.23 150.47 154.14 Z M 150.24 155.11 L 150.00 156.07 C 149.78 156.98 150.33 157.89 151.23 158.12 C 152.14 158.34 153.05 157.79 153.28 156.88 L 153.52 155.91 C 153.74 155.01 153.19 154.09 152.28 153.87 C 151.38 153.65 150.46 154.20 150.24 155.11 Z M 150.01 156.08 L 149.77 157.06 C 149.55 157.96 150.11 158.86 151.01 159.08 C 151.91 159.30 152.82 158.75 153.03 157.85 L 153.27 156.87 C 153.49 155.97 152.93 155.06 152.03 154.85 C 151.13 154.63 150.22 155.18 150.01 156.08 Z M 149.78 157.07 L 149.55 158.04 C 149.33 158.94 149.89 159.84 150.79 160.05 C 151.68 160.27 152.58 159.71 152.79 158.81 L 153.03 157.84 C 153.24 156.94 152.68 156.04 151.79 155.83 C 150.89 155.61 149.99 156.17 149.78 157.07 Z M 149.55 158.06 L 149.33 159.04 C 149.12 159.93 149.68 160.82 150.57 161.03 C 151.46 161.23 152.35 160.68 152.56 159.78 L 152.79 158.80 C 152.99 157.91 152.44 157.02 151.54 156.81 C 150.65 156.61 149.76 157.16 149.55 158.06 Z M 149.33 159.05 L 149.11 160.03 C 148.91 160.92 149.47 161.80 150.36 162.00 C 151.25 162.20 152.13 161.64 152.33 160.75 L 152.55 159.77 C 152.75 158.88 152.19 158.00 151.30 157.80 C 150.42 157.60 149.53 158.16 149.33 159.05 Z M 149.12 160.04 L 148.91 161.01 C 148.72 161.90 149.28 162.77 150.16 162.96 C 151.05 163.15 151.92 162.59 152.12 161.71 L 152.33 160.74 C 152.52 159.85 151.96 158.98 151.07 158.79 C 150.19 158.60 149.31 159.16 149.12 160.04 Z M 148.92 161.02 L 148.71 161.99 C 148.53 162.87 149.09 163.74 149.97 163.92 C 150.85 164.11 151.71 163.55 151.90 162.67 L 152.11 161.70 C 152.29 160.82 151.73 159.95 150.85 159.77 C 149.97 159.58 149.11 160.14 148.92 161.02 Z M 148.72 162.00 L 148.52 162.98 C 148.34 163.85 148.90 164.71 149.77 164.89 C 150.65 165.07 151.51 164.51 151.69 163.63 L 151.89 162.66 C 152.07 161.78 151.51 160.93 150.64 160.75 C 149.76 160.56 148.90 161.13 148.72 162.00 Z M 148.53 162.98 L 148.33 163.96 C 148.15 164.83 148.71 165.68 149.58 165.86 C 150.45 166.04 151.30 165.48 151.48 164.61 L 151.68 163.63 C 151.86 162.76 151.30 161.91 150.43 161.73 C 149.56 161.55 148.71 162.11 148.53 162.98 Z M 148.34 163.97 L 148.14 164.95 C 147.96 165.82 148.52 166.66 149.38 166.84 C 150.25 167.01 151.09 166.45 151.27 165.59 L 151.47 164.60 C 151.64 163.74 151.09 162.90 150.22 162.72 C 149.36 162.54 148.51 163.10 148.34 163.97 Z M 148.15 164.95 L 147.94 165.95 C 147.77 166.81 148.32 167.65 149.18 167.82 C 150.04 168.00 150.88 167.44 151.05 166.58 L 151.26 165.59 C 151.43 164.73 150.88 163.89 150.02 163.72 C 149.16 163.54 148.32 164.10 148.15 164.95 Z M 147.96 165.95 L 147.75 166.95 C 147.58 167.81 148.12 168.64 148.98 168.81 C 149.83 168.99 150.66 168.44 150.84 167.59 L 151.04 166.58 C 151.22 165.73 150.67 164.90 149.82 164.72 C 148.96 164.55 148.13 165.10 147.96 165.95 Z M 147.76 166.96 L 147.55 167.96 C 147.38 168.81 147.93 169.64 148.78 169.81 C 149.62 169.98 150.45 169.44 150.62 168.59 L 150.83 167.58 C 151.00 166.74 150.45 165.91 149.61 165.74 C 148.76 165.56 147.93 166.11 147.76 166.96 Z M 147.56 167.97 L 147.36 168.97 C 147.19 169.81 147.74 170.63 148.58 170.80 C 149.42 170.97 150.24 170.42 150.41 169.58 L 150.61 168.58 C 150.78 167.74 150.24 166.92 149.40 166.75 C 148.55 166.58 147.73 167.13 147.56 167.97 Z M 147.37 168.98 L 147.18 169.96 C 147.01 170.80 147.56 171.61 148.39 171.78 C 149.23 171.94 150.04 171.40 150.21 170.56 L 150.40 169.57 C 150.57 168.74 150.02 167.93 149.19 167.76 C 148.35 167.60 147.54 168.14 147.37 168.98 Z M 147.19 169.97 L 147.00 170.94 C 146.84 171.77 147.39 172.57 148.22 172.73 C 149.05 172.89 149.85 172.35 150.01 171.51 L 150.20 170.55 C 150.36 169.72 149.81 168.91 148.98 168.76 C 148.15 168.60 147.35 169.14 147.19 169.97 Z M 147.01 170.95 L 146.84 171.89 C 146.69 172.71 147.24 173.51 148.06 173.66 C 148.89 173.81 149.68 173.26 149.83 172.43 L 150.00 171.50 C 150.16 170.67 149.61 169.88 148.78 169.73 C 147.95 169.58 147.16 170.12 147.01 170.95 Z M 146.85 171.91 L 146.67 172.96 C 146.52 173.78 147.08 174.57 147.90 174.71 C 148.72 174.85 149.51 174.29 149.65 173.47 L 149.83 172.41 C 149.97 171.59 149.41 170.81 148.59 170.67 C 147.77 170.53 146.99 171.08 146.85 171.91 Z M 146.67 172.98 L 146.51 174.01 C 146.38 174.83 146.94 175.60 147.76 175.73 C 148.58 175.86 149.35 175.30 149.48 174.48 L 149.64 173.45 C 149.77 172.63 149.21 171.86 148.39 171.73 C 147.57 171.60 146.80 172.16 146.67 172.98 Z M 146.52 174.03 L 146.37 175.01 C 146.25 175.83 146.82 176.59 147.63 176.71 C 148.45 176.82 149.20 176.26 149.32 175.45 L 149.47 174.46 C 149.59 173.65 149.02 172.89 148.21 172.77 C 147.40 172.65 146.64 173.21 146.52 174.03 Z M 146.38 175.03 L 146.25 175.98 C 146.14 176.79 146.71 177.54 147.52 177.65 C 148.33 177.76 149.07 177.20 149.18 176.39 L 149.31 175.43 C 149.43 174.62 148.86 173.88 148.05 173.76 C 147.24 173.65 146.49 174.22 146.38 175.03 Z M 146.26 176.00 L 146.14 176.92 C 146.04 177.73 146.60 178.47 147.41 178.57 C 148.21 178.68 148.95 178.11 149.05 177.30 L 149.17 176.37 C 149.28 175.57 148.71 174.83 147.91 174.73 C 147.10 174.62 146.37 175.19 146.26 176.00 Z M 146.15 176.93 L 146.02 177.94 C 145.92 178.74 146.49 179.47 147.29 179.57 C 148.09 179.67 148.82 179.11 148.92 178.31 L 149.04 177.30 C 149.14 176.50 148.58 175.77 147.78 175.67 C 146.98 175.57 146.25 176.13 146.15 176.93 Z M 146.03 177.95 L 145.91 178.97 C 145.81 179.77 146.38 180.49 147.18 180.59 C 147.97 180.68 148.69 180.12 148.79 179.32 L 148.91 178.30 C 149.01 177.50 148.44 176.78 147.64 176.68 C 146.85 176.59 146.12 177.16 146.03 177.95 Z M 145.91 178.99 L 145.80 179.98 C 145.71 180.78 146.29 181.49 147.08 181.58 C 147.87 181.67 148.59 181.09 148.67 180.30 L 148.78 179.31 C 148.87 178.51 148.30 177.80 147.51 177.71 C 146.71 177.62 146.00 178.19 145.91 178.99 Z M 145.81 180.00 L 145.71 180.97 C 145.63 181.76 146.21 182.46 147.00 182.54 C 147.79 182.62 148.49 182.04 148.57 181.25 L 148.67 180.28 C 148.75 179.49 148.17 178.79 147.38 178.71 C 146.59 178.63 145.88 179.21 145.81 180.00 Z M 145.72 180.99 L 145.63 181.96 C 145.57 182.75 146.16 183.44 146.94 183.51 C 147.73 183.57 148.42 182.99 148.49 182.20 L 148.57 181.23 C 148.63 180.44 148.05 179.75 147.26 179.68 C 146.47 179.62 145.78 180.20 145.72 180.99 Z M 145.64 181.99 L 145.57 183.02 C 145.52 183.80 146.12 184.48 146.90 184.53 C 147.69 184.58 148.37 183.99 148.42 183.20 L 148.49 182.17 C 148.54 181.39 147.94 180.71 147.15 180.66 C 146.37 180.61 145.69 181.20 145.64 181.99 Z M 145.57 183.04 L 145.52 184.03 C 145.48 184.82 146.09 185.49 146.88 185.53 C 147.66 185.57 148.33 184.96 148.37 184.17 L 148.42 183.18 C 148.46 182.39 147.85 181.72 147.07 181.68 C 146.28 181.64 145.61 182.25 145.57 183.04 Z M 145.52 184.05 L 145.48 185.03 C 145.45 185.81 146.07 186.48 146.85 186.51 C 147.64 186.54 148.30 185.92 148.33 185.14 L 148.37 184.16 C 148.40 183.37 147.79 182.71 147.00 182.68 C 146.21 182.65 145.55 183.26 145.52 184.05 Z M 145.48 185.03 L 145.46 185.68 C 145.43 186.47 146.05 187.13 146.84 187.16 C 147.62 187.18 148.28 186.57 148.31 185.78 L 148.33 185.13 C 148.36 184.34 147.74 183.68 146.96 183.66 C 146.17 183.63 145.51 184.25 145.48 185.03 Z"
      fill="black"
      fill-rule="nonzero" /></svg>