<svg xmlns="http://www.w3.org/2000/svg" width="300" height="300" viewBox="0 0 300 300">
<path d="M 132.46 122.49 L 133.14 123.19 C 133.73 123.78 134.68 123.79 135.27 123.21 C 135.86 122.62 135.86 121.67 135.28 121.08 L 134.59 120.38 C 134.01 119.79 133.06 119.79 132.47 120.37 C 131.88 120.95 131.87 121.90 132.46 122.49 Z M 133.06 123.18 L 133.72 123.91 C 134.30 124.55 135.28 124.60 135.92 124.02 C 136.55 123.44 136.60 122.46 136.03 121.82 L 135.37 121.09 C 134.79 120.46 133.81 120.41 133.17 120.98 C 132.53 121.56 132.48 122.54 133.06 123.18 Z M 133.59 123.84 L 134.19 124.63 C 134.73 125.34 135.74 125.48 136.45 124.94 C 137.16 124.40 137.29 123.39 136.75 122.68 L 136.16 121.89 C 135.62 121.18 134.61 121.05 133.90 121.58 C 133.19 122.12 133.05 123.13 133.59 123.84 Z M 134.03 124.49 L 134.54 125.37 C 135.00 126.17 136.02 126.44 136.82 125.97 C 137.61 125.51 137.89 124.49 137.42 123.70 L 136.91 122.82 C 136.45 122.02 135.43 121.75 134.64 122.21 C 133.84 122.68 133.57 123.70 134.03 124.49 Z M 134.40 125.17 L 134.77 126.10 C 135.12 126.97 136.11 127.40 136.99 127.05 C 137.86 126.70 138.29 125.70 137.94 124.83 L 137.57 123.90 C 137.22 123.03 136.22 122.60 135.35 122.95 C 134.47 123.30 134.05 124.29 134.40 125.17 Z M 134.69 125.91 L 134.95 126.88 C 135.20 127.80 136.14 128.35 137.06 128.10 C 137.98 127.86 138.52 126.91 138.28 126.00 L 138.02 125.02 C 137.77 124.10 136.83 123.56 135.91 123.80 C 134.99 124.05 134.45 124.99 134.69 125.91 Z M 134.91 126.74 L 135.10 127.76 C 135.26 128.70 136.16 129.32 137.10 129.15 C 138.04 128.98 138.66 128.09 138.50 127.15 L 138.32 126.13 C 138.15 125.19 137.25 124.57 136.31 124.74 C 135.37 124.91 134.75 125.80 134.91 126.74 Z M 135.07 127.66 L 135.20 128.67 C 135.31 129.62 136.17 130.30 137.12 130.19 C 138.07 130.07 138.75 129.21 138.64 128.26 L 138.52 127.25 C 138.40 126.30 137.54 125.62 136.59 125.73 C 135.64 125.84 134.96 126.71 135.07 127.66 Z M 135.18 128.60 L 135.26 129.57 C 135.33 130.53 136.17 131.24 137.13 131.17 C 138.09 131.09 138.80 130.25 138.73 129.30 L 138.65 128.33 C 138.58 127.37 137.74 126.65 136.78 126.73 C 135.82 126.81 135.11 127.64 135.18 128.60 Z M 135.25 129.53 L 135.31 130.60 C 135.36 131.56 136.18 132.30 137.14 132.25 C 138.11 132.20 138.84 131.38 138.79 130.42 L 138.74 129.34 C 138.68 128.38 137.86 127.64 136.90 127.69 C 135.94 127.74 135.20 128.56 135.25 129.53 Z M 135.30 130.56 L 135.33 131.59 C 135.36 132.55 136.17 133.31 137.14 133.28 C 138.10 133.25 138.86 132.44 138.83 131.48 L 138.80 130.45 C 138.77 129.49 137.96 128.73 137.00 128.76 C 136.03 128.79 135.27 129.60 135.30 130.56 Z M 135.33 131.55 L 135.34 132.50 C 135.35 133.47 136.15 134.25 137.12 134.23 C 138.08 134.22 138.86 133.43 138.85 132.46 L 138.83 131.51 C 138.82 130.54 138.03 129.77 137.06 129.78 C 136.09 129.79 135.32 130.59 135.33 131.55 Z M 135.34 132.49 L 135.34 133.41 C 135.34 134.38 136.13 135.17 137.10 135.17 C 138.07 135.16 138.85 134.38 138.85 133.41 L 138.85 132.48 C 138.85 131.51 138.06 130.73 137.09 130.73 C 136.12 130.73 135.34 131.52 135.34 132.49 Z M 135.34 133.41 L 135.34 134.37 C 135.34 135.34 136.13 136.13 137.10 136.13 C 138.07 136.13 138.85 135.34 138.85 134.37 L 138.85 133.41 C 138.85 132.44 138.07 131.66 137.10 131.66 C 136.13 131.66 135.34 132.44 135.34 133.41 Z M 135.34 134.37 L 135.34 135.36 C 135.34 136.33 136.12 137.12 137.10 137.12 C 138.07 137.12 138.85 136.33 138.85 135.36 L 138.85 134.37 C 138.85 133.40 138.07 132.61 137.10 132.61 C 136.12 132.61 135.34 133.40 135.34 134.37 Z M 135.34 135.36 L 135.34 136.38 C 135.34 137.35 136.12 138.14 137.10 138.14 C 138.07 138.14 138.86 137.35 138.86 136.38 L 138.86 135.36 C 138.86 134.39 138.07 133.60 137.10 133.60 C 136.12 133.60 135.34 134.39 135.34 135.36 Z M 135.33 136.38 L 135.33 137.40 C 135.33 138.37 136.12 139.16 137.10 139.16 C 138.07 139.16 138.86 138.37 138.86 137.40 L 138.86 136.38 C 138.86 135.41 138.07 134.62 137.10 134.62 C 136.12 134.62 135.33 135.41 135.33 136.38 Z M 135.33 137.40 L 135.33 138.37 C 135.33 139.35 136.12 140.14 137.09 140.14 C 138.06 140.14 138.86 139.35 138.86 138.38 L 138.86 137.40 C 138.86 136.43 138.07 135.64 137.10 135.64 C 136.13 135.63 135.33 136.42 135.33 137.40 Z M 135.33 138.36 L 135.32 139.35 C 135.31 140.33 136.09 141.13 137.07 141.14 C 138.04 141.15 138.84 140.36 138.85 139.39 L 138.86 138.39 C 138.87 137.42 138.09 136.62 137.11 136.61 C 136.14 136.60 135.34 137.38 135.33 138.36 Z M 135.32 139.33 L 135.29 140.35 C 135.27 141.32 136.05 142.13 137.02 142.15 C 138.00 142.18 138.81 141.40 138.83 140.43 L 138.85 139.41 C 138.87 138.44 138.10 137.63 137.12 137.60 C 136.15 137.58 135.34 138.36 135.32 139.33 Z M 135.29 140.31 L 135.25 141.33 C 135.21 142.30 135.97 143.13 136.95 143.17 C 137.92 143.21 138.75 142.45 138.79 141.47 L 138.83 140.46 C 138.87 139.48 138.11 138.66 137.13 138.62 C 136.16 138.58 135.33 139.34 135.29 140.31 Z M 135.25 141.29 L 135.19 142.25 C 135.13 143.22 135.88 144.06 136.85 144.12 C 137.83 144.18 138.67 143.44 138.73 142.47 L 138.79 141.51 C 138.85 140.53 138.10 139.69 137.13 139.63 C 136.15 139.57 135.31 140.31 135.25 141.29 Z M 135.20 142.21 L 135.11 143.18 C 135.03 144.16 135.75 145.01 136.73 145.10 C 137.70 145.18 138.56 144.46 138.64 143.48 L 138.72 142.51 C 138.81 141.53 138.08 140.67 137.11 140.59 C 136.14 140.51 135.28 141.23 135.20 142.21 Z M 135.12 143.14 L 135.01 144.14 C 134.90 145.12 135.60 145.99 136.58 146.10 C 137.55 146.20 138.42 145.50 138.53 144.53 L 138.64 143.52 C 138.74 142.55 138.04 141.68 137.07 141.57 C 136.10 141.47 135.22 142.17 135.12 143.14 Z M 135.01 144.10 L 134.87 145.14 C 134.74 146.11 135.43 147.00 136.40 147.13 C 137.36 147.26 138.26 146.58 138.39 145.61 L 138.52 144.57 C 138.65 143.60 137.97 142.71 137.00 142.58 C 136.03 142.45 135.14 143.13 135.01 144.10 Z M 134.88 145.10 L 134.72 146.08 C 134.57 147.05 135.23 147.95 136.20 148.11 C 137.17 148.26 138.07 147.60 138.23 146.63 L 138.38 145.65 C 138.53 144.68 137.87 143.77 136.91 143.62 C 135.94 143.47 135.03 144.13 134.88 145.10 Z M 134.73 146.04 L 134.56 147.02 C 134.38 147.98 135.03 148.91 135.99 149.08 C 136.96 149.25 137.88 148.61 138.05 147.64 L 138.22 146.67 C 138.39 145.70 137.75 144.78 136.79 144.61 C 135.82 144.44 134.90 145.08 134.73 146.04 Z M 134.56 146.99 L 134.37 147.98 C 134.18 148.94 134.81 149.87 135.77 150.06 C 136.73 150.25 137.66 149.62 137.85 148.66 L 138.04 147.67 C 138.23 146.71 137.60 145.78 136.64 145.59 C 135.68 145.40 134.75 146.03 134.56 146.99 Z M 134.37 147.96 L 134.16 148.95 C 133.96 149.91 134.58 150.85 135.54 151.05 C 136.50 151.25 137.44 150.64 137.64 149.68 L 137.85 148.68 C 138.05 147.72 137.43 146.78 136.47 146.58 C 135.51 146.38 134.57 147.00 134.37 147.96 Z M 134.17 148.93 L 133.95 149.92 C 133.74 150.87 134.34 151.82 135.30 152.03 C 136.26 152.24 137.21 151.64 137.42 150.68 L 137.64 149.70 C 137.85 148.74 137.24 147.79 136.28 147.58 C 135.33 147.37 134.38 147.97 134.17 148.93 Z M 133.95 149.90 L 133.73 150.88 C 133.50 151.83 134.10 152.79 135.06 153.01 C 136.01 153.23 136.97 152.64 137.19 151.68 L 137.41 150.70 C 137.64 149.74 137.04 148.79 136.09 148.57 C 135.13 148.35 134.18 148.94 133.95 149.90 Z M 133.73 150.86 L 133.49 151.83 C 133.26 152.78 133.85 153.74 134.80 153.97 C 135.75 154.21 136.71 153.62 136.95 152.67 L 137.18 151.70 C 137.42 150.75 136.83 149.78 135.88 149.55 C 134.92 149.32 133.96 149.90 133.73 150.86 Z M 133.50 151.80 L 133.25 152.77 C 133.01 153.72 133.58 154.69 134.53 154.93 C 135.48 155.18 136.45 154.60 136.70 153.65 L 136.94 152.69 C 137.19 151.74 136.61 150.77 135.66 150.53 C 134.71 150.28 133.74 150.85 133.50 151.80 Z M 133.26 152.74 L 132.99 153.70 C 132.74 154.65 133.30 155.63 134.24 155.88 C 135.19 156.14 136.17 155.58 136.43 154.64 L 136.69 153.68 C 136.95 152.73 136.39 151.75 135.44 151.49 C 134.49 151.23 133.51 151.79 133.26 152.74 Z M 133.00 153.67 L 132.72 154.64 C 132.45 155.59 132.99 156.57 133.94 156.84 C 134.88 157.12 135.87 156.57 136.14 155.63 L 136.42 154.66 C 136.69 153.72 136.15 152.73 135.21 152.46 C 134.26 152.18 133.27 152.73 133.00 153.67 Z M 132.73 154.61 L 132.44 155.55 C 132.16 156.49 132.69 157.49 133.63 157.77 C 134.57 158.06 135.56 157.53 135.85 156.59 L 136.14 155.65 C 136.42 154.71 135.89 153.72 134.95 153.43 C 134.01 153.14 133.02 153.67 132.73 154.61 Z M 132.45 155.53 L 132.15 156.46 C 131.85 157.40 132.37 158.40 133.30 158.70 C 134.24 159.00 135.24 158.49 135.54 157.55 L 135.84 156.61 C 136.14 155.68 135.63 154.67 134.69 154.37 C 133.75 154.07 132.75 154.59 132.45 155.53 Z M 132.16 156.44 L 131.84 157.39 C 131.53 158.32 132.04 159.33 132.97 159.64 C 133.90 159.95 134.91 159.45 135.22 158.51 L 135.54 157.57 C 135.85 156.63 135.34 155.63 134.41 155.32 C 133.48 155.00 132.47 155.51 132.16 156.44 Z M 131.85 157.37 L 131.52 158.33 C 131.20 159.26 131.69 160.27 132.62 160.59 C 133.55 160.91 134.57 160.42 134.89 159.49 L 135.22 158.53 C 135.54 157.60 135.04 156.59 134.11 156.27 C 133.18 155.95 132.17 156.44 131.85 157.37 Z M 131.52 158.31 L 131.18 159.27 C 130.85 160.20 131.34 161.22 132.27 161.55 C 133.19 161.88 134.21 161.39 134.54 160.47 L 134.88 159.50 C 135.21 158.58 134.73 157.56 133.80 157.23 C 132.87 156.90 131.85 157.38 131.52 158.31 Z M 131.19 159.26 L 130.84 160.21 C 130.51 161.13 130.98 162.15 131.91 162.49 C 132.83 162.82 133.86 162.35 134.19 161.42 L 134.54 160.48 C 134.87 159.55 134.39 158.53 133.47 158.20 C 132.54 157.86 131.52 158.34 131.19 159.26 Z M 130.85 160.19 L 130.50 161.12 C 130.16 162.04 130.63 163.07 131.55 163.41 C 132.48 163.75 133.50 163.28 133.84 162.36 L 134.19 161.43 C 134.53 160.51 134.06 159.49 133.14 159.14 C 132.22 158.80 131.19 159.27 130.85 160.19 Z M 130.51 161.11 L 130.16 162.04 C 129.81 162.96 130.27 163.99 131.19 164.33 C 132.11 164.68 133.14 164.22 133.49 163.30 L 133.84 162.37 C 134.19 161.45 133.72 160.42 132.80 160.08 C 131.89 159.73 130.86 160.19 130.51 161.11 Z M 130.16 162.03 L 129.80 162.96 C 129.45 163.88 129.90 164.91 130.82 165.26 C 131.74 165.62 132.77 165.16 133.12 164.25 L 133.48 163.31 C 133.84 162.39 133.38 161.36 132.46 161.01 C 131.55 160.66 130.52 161.11 130.16 162.03 Z M 129.81 162.95 L 129.44 163.89 C 129.08 164.81 129.52 165.84 130.44 166.20 C 131.35 166.56 132.39 166.11 132.75 165.19 L 133.12 164.26 C 133.48 163.34 133.03 162.31 132.11 161.95 C 131.20 161.59 130.17 162.04 129.81 162.95 Z M 129.44 163.88 L 129.06 164.82 C 128.70 165.74 129.14 166.77 130.05 167.14 C 130.96 167.50 132.00 167.06 132.36 166.15 L 132.74 165.21 C 133.11 164.29 132.66 163.26 131.75 162.89 C 130.84 162.53 129.81 162.97 129.44 163.88 Z M 129.07 164.81 L 128.69 165.73 C 128.32 166.64 128.76 167.68 129.67 168.05 C 130.57 168.42 131.61 167.98 131.98 167.08 L 132.36 166.16 C 132.73 165.25 132.29 164.21 131.38 163.84 C 130.48 163.47 129.44 163.91 129.07 164.81 Z M 128.70 165.72 L 128.32 166.64 C 127.94 167.55 128.37 168.59 129.27 168.96 C 130.18 169.34 131.22 168.91 131.59 168.01 L 131.98 167.09 C 132.35 166.18 131.93 165.14 131.02 164.76 C 130.11 164.39 129.07 164.82 128.70 165.72 Z M 128.32 166.63 L 127.93 167.55 C 127.55 168.45 127.97 169.50 128.87 169.88 C 129.77 170.26 130.82 169.84 131.20 168.94 L 131.59 168.02 C 131.97 167.11 131.55 166.07 130.65 165.69 C 129.75 165.31 128.70 165.73 128.32 166.63 Z M 127.94 167.54 L 127.54 168.46 C 127.15 169.36 127.56 170.40 128.46 170.79 C 129.36 171.18 130.40 170.77 130.79 169.87 L 131.19 168.95 C 131.58 168.05 131.17 167.01 130.27 166.62 C 129.37 166.23 128.33 166.64 127.94 167.54 Z M 127.54 168.45 L 127.14 169.37 C 126.74 170.26 127.15 171.31 128.04 171.70 C 128.94 172.10 129.98 171.70 130.38 170.80 L 130.79 169.88 C 131.18 168.99 130.78 167.94 129.88 167.54 C 128.99 167.15 127.94 167.55 127.54 168.45 Z M 127.15 169.35 L 126.73 170.27 C 126.33 171.16 126.72 172.21 127.61 172.61 C 128.51 173.01 129.55 172.62 129.96 171.73 L 130.37 170.81 C 130.77 169.92 130.38 168.87 129.49 168.47 C 128.60 168.07 127.55 168.46 127.15 169.35 Z M 126.74 170.25 L 126.32 171.15 C 125.91 172.04 126.30 173.09 127.19 173.50 C 128.07 173.91 129.12 173.52 129.53 172.64 L 129.95 171.74 C 130.36 170.85 129.98 169.80 129.09 169.39 C 128.20 168.98 127.15 169.37 126.74 170.25 Z M 126.33 171.14 L 125.91 172.04 C 125.49 172.92 125.87 173.97 126.75 174.39 C 127.64 174.80 128.69 174.43 129.11 173.54 L 129.53 172.65 C 129.94 171.76 129.57 170.71 128.68 170.29 C 127.80 169.88 126.75 170.26 126.33 171.14 Z M 125.91 172.03 L 125.48 172.93 C 125.07 173.81 125.44 174.86 126.32 175.28 C 127.20 175.70 128.25 175.33 128.67 174.45 L 129.10 173.55 C 129.52 172.67 129.15 171.62 128.27 171.20 C 127.39 170.78 126.33 171.15 125.91 172.03 Z M 125.49 172.93 L 125.05 173.83 C 124.63 174.71 125.00 175.76 125.88 176.18 C 126.76 176.60 127.81 176.23 128.23 175.36 L 128.67 174.45 C 129.09 173.58 128.72 172.52 127.84 172.10 C 126.96 171.68 125.91 172.05 125.49 172.93 Z M 125.06 173.83 L 124.62 174.74 C 124.20 175.62 124.56 176.67 125.44 177.09 C 126.31 177.51 127.37 177.15 127.79 176.27 L 128.23 175.36 C 128.65 174.48 128.28 173.43 127.41 173.01 C 126.53 172.58 125.48 172.95 125.06 173.83 Z M 124.62 174.74 L 124.18 175.66 C 123.76 176.54 124.12 177.59 125.00 178.01 C 125.87 178.43 126.92 178.06 127.35 177.19 L 127.79 176.27 C 128.21 175.39 127.84 174.34 126.97 173.92 C 126.09 173.50 125.04 173.87 124.62 174.74 Z M 124.18 175.66 L 123.74 176.59 C 123.31 177.46 123.68 178.51 124.56 178.93 C 125.43 179.35 126.48 178.98 126.90 178.11 L 127.34 177.18 C 127.76 176.31 127.40 175.26 126.52 174.84 C 125.65 174.42 124.60 174.79 124.18 175.66 Z M 123.74 176.58 L 123.29 177.51 C 122.87 178.38 123.24 179.42 124.11 179.84 C 124.98 180.27 126.03 179.90 126.45 179.03 L 126.89 178.11 C 127.32 177.24 126.95 176.19 126.08 175.77 C 125.21 175.35 124.16 175.71 123.74 176.58 Z M 123.30 177.50 L 122.86 178.41 C 122.43 179.28 122.79 180.33 123.66 180.75 C 124.53 181.17 125.58 180.81 126.00 179.94 L 126.44 179.03 C 126.87 178.17 126.51 177.12 125.64 176.70 C 124.77 176.27 123.72 176.63 123.30 177.50 Z M 122.87 178.40 L 122.42 179.29 C 122.00 180.15 122.35 181.20 123.21 181.63 C 124.08 182.06 125.12 181.71 125.55 180.84 L 125.99 179.95 C 126.42 179.09 126.07 178.04 125.20 177.61 C 124.34 177.19 123.29 177.54 122.87 178.40 Z M 122.43 179.28 L 122.00 180.14 C 121.56 181.00 121.91 182.04 122.76 182.48 C 123.62 182.91 124.67 182.57 125.11 181.71 L 125.54 180.85 C 125.98 180.00 125.63 178.95 124.78 178.51 C 123.92 178.08 122.87 178.42 122.43 179.28 Z M 122.01 180.12 L 121.53 181.04 C 121.09 181.89 121.42 182.94 122.27 183.38 C 123.12 183.83 124.17 183.50 124.61 182.65 L 125.09 181.73 C 125.54 180.88 125.21 179.83 124.36 179.39 C 123.51 178.94 122.46 179.27 122.01 180.12 Z M 121.55 181.02 L 121.05 181.95 C 120.59 182.79 120.90 183.84 121.74 184.29 C 122.58 184.75 123.63 184.44 124.09 183.60 L 124.59 182.67 C 125.05 181.83 124.74 180.78 123.90 180.32 C 123.06 179.87 122.01 180.18 121.55 181.02 Z M 121.06 181.93 L 120.57 182.81 C 120.11 183.64 120.40 184.69 121.23 185.16 C 122.07 185.62 123.12 185.32 123.58 184.49 L 124.07 183.61 C 124.54 182.78 124.24 181.73 123.41 181.27 C 122.58 180.80 121.53 181.10 121.06 181.93 Z M 120.58 182.80 L 120.10 183.63 C 119.63 184.46 119.92 185.51 120.74 185.98 C 121.56 186.45 122.62 186.17 123.09 185.34 L 123.57 184.51 C 124.04 183.68 123.76 182.63 122.93 182.16 C 122.11 181.69 121.06 181.97 120.58 182.80 Z M 120.12 183.63 L 119.65 184.43 C 119.17 185.25 119.45 186.30 120.26 186.78 C 121.08 187.25 122.13 186.98 122.61 186.16 L 123.08 185.35 C 123.55 184.53 123.28 183.49 122.46 183.01 C 121.64 182.53 120.59 182.81 120.12 183.63 Z M 119.65 184.43 L 119.14 185.31 C 118.66 186.13 118.93 187.17 119.74 187.65 C 120.56 188.13 121.60 187.86 122.08 187.04 L 122.60 186.16 C 123.08 185.35 122.80 184.30 121.99 183.82 C 121.18 183.35 120.13 183.62 119.65 184.43 Z M 119.14 185.31 L 118.62 186.20 C 118.14 187.01 118.41 188.05 119.22 188.53 C 120.03 189.01 121.07 188.74 121.55 187.93 L 122.07 187.04 C 122.55 186.23 122.28 185.19 121.47 184.71 C 120.66 184.24 119.62 184.51 119.14 185.31 Z M 118.63 186.20 L 118.12 187.05 C 117.64 187.86 117.90 188.90 118.71 189.38 C 119.51 189.85 120.55 189.59 121.03 188.79 L 121.54 187.93 C 122.02 187.13 121.75 186.09 120.95 185.61 C 120.15 185.13 119.11 185.40 118.63 186.20 Z M 118.13 187.05 L 117.64 187.87 C 117.15 188.67 117.41 189.70 118.21 190.18 C 119.00 190.66 120.04 190.41 120.52 189.61 L 121.02 188.79 C 121.50 188.00 121.24 186.96 120.44 186.48 C 119.65 186.00 118.61 186.25 118.13 187.05 Z M 117.65 187.86 L 117.15 188.68 C 116.66 189.47 116.91 190.50 117.70 190.98 C 118.49 191.47 119.52 191.22 120.01 190.43 L 120.51 189.62 C 121.00 188.83 120.75 187.79 119.96 187.31 C 119.17 186.82 118.13 187.07 117.65 187.86 Z M 117.17 188.65 L 116.65 189.46 C 116.16 190.24 116.38 191.27 117.16 191.77 C 117.94 192.27 118.97 192.04 119.47 191.26 L 119.99 190.45 C 120.48 189.68 120.26 188.64 119.48 188.15 C 118.70 187.65 117.67 187.88 117.17 188.65 Z M 116.69 189.42 L 116.13 190.23 C 115.61 190.99 115.81 192.03 116.57 192.55 C 117.32 193.07 118.36 192.87 118.88 192.11 L 119.43 191.30 C 119.95 190.55 119.76 189.51 119.00 188.99 C 118.24 188.47 117.21 188.66 116.69 189.42 Z M 116.18 190.18 L 115.55 191.02 C 115.01 191.75 115.15 192.79 115.89 193.34 C 116.62 193.88 117.66 193.74 118.21 193.00 L 118.83 192.17 C 119.38 191.43 119.23 190.40 118.50 189.85 C 117.77 189.30 116.73 189.45 116.18 190.18 Z M 115.61 190.96 L 114.85 191.88 C 114.27 192.58 114.36 193.62 115.06 194.20 C 115.76 194.78 116.80 194.68 117.38 193.98 L 118.15 193.06 C 118.73 192.36 118.63 191.32 117.93 190.74 C 117.23 190.16 116.19 190.26 115.61 190.96 Z M 114.95 191.77 L 114.13 192.60 C 113.49 193.24 113.49 194.28 114.14 194.92 C 114.78 195.56 115.81 195.55 116.45 194.91 L 117.28 194.09 C 117.92 193.45 117.91 192.41 117.27 191.77 C 116.63 191.13 115.59 191.13 114.95 191.77 Z M 114.44 192.37 L 113.69 192.83 C 112.93 193.30 112.69 194.31 113.16 195.07 C 113.63 195.84 114.64 196.08 115.40 195.60 L 116.15 195.14 C 116.91 194.67 117.15 193.67 116.68 192.90 C 116.21 192.13 115.20 191.90 114.44 192.37 Z M 114.93 192.64 L 114.39 192.51 C 113.52 192.30 112.65 192.84 112.44 193.71 C 112.23 194.57 112.76 195.45 113.63 195.66 L 114.16 195.79 C 115.03 196.00 115.91 195.47 116.12 194.60 C 116.33 193.73 115.80 192.85 114.93 192.64 Z M 115.48 193.43 L 115.25 192.91 C 114.89 192.09 113.94 191.73 113.12 192.09 C 112.31 192.45 111.94 193.40 112.31 194.22 L 112.54 194.74 C 112.90 195.55 113.85 195.92 114.67 195.56 C 115.48 195.20 115.85 194.25 115.48 193.43 Z M 115.37 193.33 L 115.24 192.49 C 115.11 191.62 114.30 191.01 113.42 191.14 C 112.54 191.27 111.94 192.09 112.07 192.97 L 112.19 193.80 C 112.32 194.67 113.14 195.28 114.01 195.15 C 114.89 195.02 115.50 194.20 115.37 193.33 Z M 115.25 192.67 L 115.21 191.61 C 115.18 190.72 114.44 190.04 113.55 190.07 C 112.67 190.10 111.98 190.84 112.02 191.73 L 112.06 192.79 C 112.09 193.67 112.83 194.36 113.72 194.33 C 114.60 194.29 115.29 193.55 115.25 192.67 Z M 115.21 191.69 L 115.22 190.47 C 115.23 189.59 114.53 188.87 113.65 188.85 C 112.77 188.84 112.05 189.55 112.04 190.43 L 112.02 191.65 C 112.01 192.52 112.72 193.25 113.59 193.26 C 114.47 193.27 115.20 192.57 115.21 191.69 Z M 115.22 190.50 L 115.26 189.20 C 115.29 188.32 114.61 187.59 113.73 187.56 C 112.86 187.53 112.12 188.22 112.09 189.09 L 112.05 190.39 C 112.02 191.27 112.70 192.00 113.58 192.03 C 114.45 192.06 115.19 191.38 115.22 190.50 Z M 115.26 189.21 L 115.26 189.10 C 115.29 188.23 114.61 187.49 113.74 187.46 C 112.87 187.42 112.13 188.10 112.10 188.98 L 112.10 189.08 C 112.06 189.96 112.74 190.69 113.62 190.73 C 114.49 190.76 115.22 190.08 115.26 189.21 Z"
      fill="black"
      fill-rule="nonzero" /><path d="M 130.39 120.19 L 129.99 119.16 C 129.66 118.33 128.73 117.92 127.90 118.25 C 127.08 118.57 126.67 119.50 126.99 120.33 L 127.40 121.36 C 127.72 122.19 128.65 122.60 129.48 122.27 C 130.31 121.95 130.71 121.02 130.39 120.19 Z M 130.07 119.38 L 129.84 118.40 C 129.64 117.53 128.77 116.99 127.89 117.19 C 127.02 117.40 126.48 118.27 126.68 119.14 L 126.91 120.11 C 127.11 120.98 127.99 121.53 128.86 121.32 C 129.73 121.12 130.27 120.25 130.07 119.38 Z M 129.88 119.02 L 130.01 118.17 C 130.14 117.28 129.53 116.44 128.64 116.31 C 127.75 116.17 126.91 116.78 126.77 117.68 L 126.65 118.53 C 126.51 119.42 127.12 120.25 128.02 120.39 C 128.91 120.52 129.74 119.91 129.88 119.02 Z M 129.68 118.94 L 130.07 118.44 C 130.63 117.73 130.51 116.69 129.80 116.13 C 129.08 115.57 128.05 115.70 127.49 116.41 L 127.10 116.91 C 126.54 117.62 126.66 118.65 127.38 119.21 C 128.09 119.77 129.12 119.65 129.68 118.94 Z M 129.69 118.79 L 130.34 118.36 C 131.09 117.86 131.30 116.84 130.80 116.09 C 130.30 115.33 129.28 115.13 128.52 115.63 L 127.87 116.06 C 127.12 116.56 126.92 117.58 127.42 118.33 C 127.92 119.09 128.93 119.29 129.69 118.79 Z M 130.10 118.49 L 131.02 118.08 C 131.85 117.71 132.22 116.74 131.86 115.92 C 131.49 115.09 130.52 114.72 129.69 115.09 L 128.77 115.50 C 127.94 115.87 127.57 116.83 127.94 117.66 C 128.30 118.48 129.27 118.86 130.10 118.49 Z M 130.90 118.12 L 132.12 117.69 C 132.97 117.40 133.42 116.46 133.12 115.61 C 132.82 114.76 131.89 114.31 131.03 114.61 L 129.82 115.04 C 128.97 115.34 128.52 116.27 128.82 117.12 C 129.12 117.97 130.05 118.42 130.90 118.12 Z M 132.07 117.71 L 133.22 117.34 C 134.08 117.07 134.56 116.16 134.29 115.30 C 134.01 114.44 133.10 113.96 132.24 114.23 L 131.08 114.60 C 130.22 114.87 129.75 115.79 130.02 116.65 C 130.29 117.51 131.21 117.98 132.07 117.71 Z M 133.21 117.35 L 134.14 117.07 C 135.00 116.80 135.49 115.89 135.22 115.03 C 134.96 114.17 134.05 113.68 133.18 113.94 L 132.25 114.23 C 131.39 114.49 130.90 115.40 131.17 116.26 C 131.43 117.13 132.34 117.61 133.21 117.35 Z M 134.13 117.07 L 135.12 116.78 C 135.98 116.52 136.47 115.61 136.22 114.74 C 135.96 113.88 135.05 113.38 134.18 113.64 L 133.19 113.94 C 132.33 114.20 131.83 115.11 132.09 115.97 C 132.35 116.84 133.26 117.33 134.13 117.07 Z M 135.11 116.78 L 136.13 116.48 C 137.00 116.22 137.49 115.31 137.24 114.45 C 136.98 113.58 136.07 113.08 135.21 113.34 L 134.19 113.64 C 133.32 113.89 132.82 114.80 133.08 115.67 C 133.33 116.54 134.24 117.04 135.11 116.78 Z M 136.13 116.48 L 137.15 116.18 C 138.02 115.93 138.52 115.02 138.27 114.15 C 138.02 113.28 137.11 112.78 136.24 113.04 L 135.21 113.34 C 134.34 113.59 133.84 114.50 134.09 115.37 C 134.35 116.24 135.26 116.74 136.13 116.48 Z M 137.15 116.19 L 138.16 115.90 C 139.03 115.64 139.53 114.73 139.28 113.86 C 139.02 112.99 138.11 112.49 137.24 112.74 L 136.24 113.03 C 135.37 113.29 134.87 114.20 135.12 115.07 C 135.37 115.94 136.28 116.44 137.15 116.19 Z M 138.16 115.90 L 139.12 115.62 C 139.99 115.37 140.49 114.46 140.24 113.58 C 139.99 112.71 139.08 112.21 138.20 112.46 L 137.24 112.74 C 136.37 112.99 135.87 113.90 136.12 114.78 C 136.37 115.65 137.28 116.15 138.16 115.90 Z M 139.12 115.62 L 140.01 115.36 C 140.88 115.11 141.38 114.20 141.13 113.33 C 140.88 112.45 139.96 111.95 139.09 112.20 L 138.20 112.46 C 137.33 112.71 136.83 113.63 137.08 114.50 C 137.33 115.37 138.25 115.88 139.12 115.62 Z M 140.01 115.37 L 141.14 115.03 C 142.02 114.78 142.52 113.86 142.26 112.99 C 142.01 112.12 141.09 111.62 140.22 111.87 L 139.09 112.20 C 138.21 112.46 137.71 113.37 137.97 114.25 C 138.22 115.12 139.14 115.62 140.01 115.37 Z M 141.15 115.03 L 142.29 114.69 C 143.17 114.43 143.66 113.51 143.40 112.64 C 143.14 111.77 142.23 111.27 141.35 111.53 L 140.21 111.87 C 139.34 112.13 138.84 113.05 139.10 113.92 C 139.36 114.80 140.28 115.29 141.15 115.03 Z M 142.30 114.69 L 143.21 114.41 C 144.08 114.15 144.58 113.23 144.31 112.36 C 144.05 111.49 143.12 110.99 142.25 111.26 L 141.34 111.53 C 140.47 111.80 139.98 112.72 140.25 113.59 C 140.51 114.46 141.43 114.96 142.30 114.69 Z M 143.22 114.41 L 143.98 114.18 C 144.85 113.91 145.34 112.99 145.08 112.12 C 144.81 111.25 143.88 110.76 143.01 111.02 L 142.25 111.26 C 141.38 111.53 140.89 112.45 141.15 113.32 C 141.42 114.19 142.35 114.68 143.22 114.41 Z M 143.98 114.18 L 144.75 113.95 C 145.62 113.68 146.12 112.76 145.85 111.88 C 145.58 111.01 144.66 110.52 143.79 110.79 L 143.02 111.02 C 142.14 111.29 141.65 112.21 141.92 113.08 C 142.18 113.96 143.11 114.45 143.98 114.18 Z M 144.75 113.95 L 145.69 113.66 C 146.57 113.40 147.06 112.48 146.80 111.61 C 146.54 110.73 145.62 110.24 144.74 110.50 L 143.79 110.78 C 142.92 111.05 142.42 111.97 142.69 112.84 C 142.95 113.72 143.87 114.21 144.75 113.95 Z M 145.69 113.67 L 146.65 113.38 C 147.53 113.11 148.03 112.19 147.76 111.32 C 147.50 110.44 146.58 109.94 145.70 110.21 L 144.74 110.50 C 143.86 110.76 143.37 111.68 143.63 112.56 C 143.89 113.43 144.82 113.93 145.69 113.67 Z M 146.66 113.38 L 147.63 113.08 C 148.51 112.81 149.00 111.88 148.73 111.01 C 148.46 110.13 147.54 109.64 146.66 109.91 L 145.69 110.21 C 144.82 110.48 144.33 111.40 144.59 112.28 C 144.86 113.15 145.79 113.64 146.66 113.38 Z M 147.65 113.07 L 148.58 112.78 C 149.46 112.50 149.94 111.57 149.66 110.70 C 149.39 109.82 148.45 109.34 147.58 109.62 L 146.65 109.91 C 145.77 110.19 145.29 111.12 145.57 112.00 C 145.84 112.87 146.78 113.35 147.65 113.07 Z M 148.59 112.78 L 149.54 112.47 C 150.41 112.19 150.89 111.26 150.61 110.38 C 150.32 109.51 149.39 109.03 148.52 109.31 L 147.57 109.62 C 146.70 109.90 146.22 110.83 146.50 111.71 C 146.78 112.58 147.72 113.06 148.59 112.78 Z M 149.53 112.47 L 150.50 112.17 C 151.37 111.89 151.85 110.95 151.57 110.08 C 151.29 109.20 150.36 108.72 149.48 109.00 L 148.52 109.31 C 147.65 109.59 147.16 110.53 147.45 111.40 C 147.73 112.27 148.66 112.76 149.53 112.47 Z M 150.49 112.17 L 151.46 111.87 C 152.33 111.59 152.82 110.66 152.55 109.78 C 152.27 108.91 151.34 108.42 150.46 108.69 L 149.50 109.00 C 148.62 109.27 148.13 110.20 148.41 111.08 C 148.68 111.96 149.61 112.44 150.49 112.17 Z M 151.45 111.87 L 152.42 111.57 C 153.29 111.31 153.79 110.38 153.52 109.50 C 153.25 108.62 152.32 108.12 151.44 108.39 L 150.47 108.69 C 149.60 108.96 149.10 109.89 149.37 110.77 C 149.64 111.64 150.57 112.14 151.45 111.87 Z M 152.41 111.58 L 153.38 111.28 C 154.25 111.02 154.75 110.09 154.49 109.21 C 154.22 108.33 153.29 107.83 152.41 108.10 L 151.45 108.39 C 150.57 108.66 150.07 109.59 150.34 110.47 C 150.60 111.35 151.53 111.84 152.41 111.58 Z M 153.38 111.28 L 154.31 111.00 C 155.19 110.73 155.68 109.81 155.42 108.93 C 155.15 108.05 154.22 107.55 153.34 107.82 L 152.41 108.10 C 151.53 108.37 151.03 109.30 151.30 110.18 C 151.57 111.06 152.50 111.55 153.38 111.28 Z M 154.31 111.00 L 155.13 110.75 C 156.01 110.48 156.50 109.55 156.23 108.67 C 155.96 107.79 155.03 107.30 154.15 107.57 L 153.33 107.82 C 152.45 108.09 151.96 109.02 152.23 109.90 C 152.50 110.78 153.43 111.27 154.31 111.00 Z M 155.13 110.75 L 155.99 110.49 C 156.87 110.22 157.37 109.28 157.09 108.40 C 156.82 107.52 155.89 107.03 155.01 107.30 L 154.15 107.56 C 153.27 107.84 152.77 108.77 153.04 109.65 C 153.32 110.53 154.25 111.02 155.13 110.75 Z M 155.98 110.49 L 156.98 110.19 C 157.86 109.92 158.36 108.99 158.09 108.11 C 157.82 107.22 156.89 106.72 156.00 106.99 L 155.01 107.29 C 154.13 107.56 153.63 108.50 153.90 109.38 C 154.17 110.26 155.10 110.76 155.98 110.49 Z M 156.97 110.20 L 158.12 109.85 C 159.01 109.59 159.51 108.66 159.25 107.77 C 158.98 106.89 158.05 106.38 157.16 106.64 L 156.01 106.99 C 155.13 107.25 154.62 108.18 154.88 109.07 C 155.15 109.96 156.08 110.46 156.97 110.20 Z M 158.11 109.86 L 158.98 109.61 C 159.87 109.35 160.38 108.41 160.12 107.52 C 159.86 106.63 158.93 106.12 158.04 106.38 L 157.17 106.64 C 156.28 106.90 155.77 107.83 156.03 108.72 C 156.29 109.61 157.22 110.12 158.11 109.86 Z M 158.98 109.61 L 159.93 109.34 C 160.82 109.08 161.34 108.15 161.08 107.26 C 160.82 106.36 159.89 105.85 159.00 106.11 L 158.05 106.38 C 157.16 106.64 156.64 107.57 156.90 108.46 C 157.15 109.35 158.09 109.87 158.98 109.61 Z M 159.92 109.34 L 160.92 109.06 C 161.81 108.81 162.34 107.88 162.08 106.98 C 161.83 106.09 160.90 105.57 160.00 105.82 L 159.00 106.10 C 158.11 106.35 157.59 107.28 157.84 108.18 C 158.09 109.08 159.03 109.60 159.92 109.34 Z M 160.91 109.07 L 161.93 108.78 C 162.83 108.54 163.35 107.61 163.10 106.71 C 162.86 105.81 161.93 105.28 161.03 105.53 L 160.01 105.81 C 159.11 106.06 158.59 106.99 158.83 107.89 C 159.08 108.79 160.01 109.31 160.91 109.07 Z M 161.92 108.79 L 162.92 108.52 C 163.83 108.28 164.36 107.35 164.12 106.45 C 163.87 105.55 162.95 105.01 162.04 105.25 L 161.04 105.52 C 160.14 105.77 159.60 106.70 159.84 107.60 C 160.09 108.50 161.02 109.03 161.92 108.79 Z M 162.91 108.53 L 163.87 108.28 C 164.78 108.04 165.32 107.12 165.09 106.21 C 164.85 105.31 163.93 104.76 163.02 105.00 L 162.06 105.25 C 161.15 105.48 160.61 106.41 160.84 107.31 C 161.08 108.22 162.00 108.76 162.91 108.53 Z M 163.85 108.30 L 165.11 107.99 C 166.03 107.77 166.59 106.85 166.37 105.93 C 166.15 105.02 165.23 104.45 164.31 104.67 L 163.05 104.98 C 162.13 105.20 161.57 106.12 161.79 107.04 C 162.01 107.95 162.93 108.52 163.85 108.30 Z M 165.03 108.03 L 166.21 107.81 C 167.15 107.64 167.77 106.73 167.59 105.79 C 167.41 104.85 166.51 104.24 165.57 104.41 L 164.39 104.63 C 163.45 104.81 162.83 105.71 163.01 106.65 C 163.18 107.59 164.09 108.21 165.03 108.03 Z M 165.99 107.87 L 166.91 107.82 C 167.88 107.76 168.62 106.93 168.56 105.96 C 168.51 104.99 167.68 104.25 166.71 104.31 L 165.79 104.36 C 164.82 104.41 164.08 105.24 164.13 106.21 C 164.19 107.18 165.02 107.92 165.99 107.87 Z M 166.35 107.79 L 166.98 107.95 C 167.93 108.21 168.91 107.64 169.16 106.69 C 169.41 105.73 168.85 104.76 167.89 104.50 L 167.27 104.34 C 166.32 104.08 165.34 104.65 165.08 105.60 C 164.83 106.55 165.40 107.53 166.35 107.79 Z M 165.90 107.18 L 166.23 107.71 C 166.76 108.56 167.87 108.82 168.72 108.29 C 169.56 107.77 169.82 106.65 169.30 105.81 L 168.97 105.28 C 168.44 104.43 167.33 104.17 166.48 104.69 C 165.64 105.22 165.38 106.33 165.90 107.18 Z M 165.95 106.72 L 165.93 107.62 C 165.91 108.62 166.70 109.45 167.71 109.47 C 168.71 109.50 169.54 108.70 169.56 107.70 L 169.58 106.80 C 169.60 105.79 168.81 104.96 167.80 104.94 C 166.80 104.92 165.97 105.72 165.95 106.72 Z M 165.95 107.33 L 165.74 108.47 C 165.56 109.46 166.22 110.41 167.22 110.59 C 168.21 110.77 169.16 110.11 169.34 109.12 L 169.54 107.98 C 169.72 106.99 169.06 106.04 168.07 105.86 C 167.08 105.68 166.13 106.34 165.95 107.33 Z M 165.73 108.49 L 165.55 109.58 C 165.39 110.58 166.06 111.52 167.06 111.69 C 168.06 111.85 169.01 111.17 169.17 110.17 L 169.35 109.09 C 169.51 108.09 168.84 107.15 167.84 106.98 C 166.84 106.82 165.90 107.49 165.73 108.49 Z M 165.53 109.68 L 165.43 110.66 C 165.33 111.67 166.06 112.57 167.07 112.68 C 168.08 112.78 168.98 112.05 169.09 111.04 L 169.19 110.07 C 169.29 109.06 168.56 108.15 167.55 108.05 C 166.54 107.94 165.64 108.68 165.53 109.68 Z M 165.42 110.73 L 165.36 111.73 C 165.30 112.75 166.07 113.62 167.08 113.68 C 168.10 113.75 168.97 112.98 169.03 111.96 L 169.09 110.96 C 169.16 109.95 168.39 109.08 167.37 109.01 C 166.36 108.95 165.49 109.72 165.42 110.73 Z M 165.36 111.79 L 165.32 112.80 C 165.29 113.82 166.08 114.67 167.10 114.71 C 168.12 114.74 168.97 113.94 169.00 112.93 L 169.04 111.91 C 169.07 110.89 168.28 110.04 167.26 110.01 C 166.24 109.97 165.39 110.77 165.36 111.79 Z M 165.32 112.83 L 165.30 113.87 C 165.28 114.89 166.09 115.72 167.11 115.74 C 168.13 115.76 168.97 114.95 168.99 113.93 L 169.01 112.90 C 169.02 111.88 168.21 111.04 167.20 111.02 C 166.18 111.01 165.34 111.82 165.32 112.83 Z M 165.30 113.88 L 165.29 114.93 C 165.28 115.95 166.09 116.78 167.11 116.79 C 168.13 116.80 168.97 115.98 168.98 114.96 L 168.99 113.92 C 169.00 112.90 168.18 112.06 167.16 112.05 C 166.14 112.04 165.31 112.86 165.30 113.88 Z M 165.28 114.94 L 165.28 115.96 C 165.27 116.99 166.10 117.82 167.12 117.82 C 168.14 117.83 168.97 117.01 168.98 115.98 L 168.99 114.96 C 168.99 113.93 168.17 113.10 167.14 113.09 C 166.12 113.09 165.29 113.91 165.28 114.94 Z M 165.27 115.97 L 165.27 116.96 C 165.27 117.98 166.10 118.82 167.12 118.82 C 168.15 118.82 168.98 117.99 168.98 116.96 L 168.99 115.98 C 168.99 114.95 168.16 114.12 167.13 114.12 C 166.11 114.11 165.27 114.94 165.27 115.97 Z M 165.26 116.96 L 165.26 117.89 C 165.26 118.92 166.10 119.75 167.13 119.75 C 168.15 119.75 168.99 118.92 168.99 117.89 L 168.99 116.96 C 168.99 115.93 168.16 115.10 167.13 115.10 C 166.10 115.10 165.26 115.93 165.26 116.96 Z M 165.26 117.89 L 165.26 118.96 C 165.26 119.99 166.10 120.82 167.13 120.82 C 168.16 120.82 168.99 119.99 168.99 118.96 L 168.99 117.89 C 168.99 116.86 168.15 116.02 167.12 116.02 C 166.10 116.02 165.26 116.86 165.26 117.89 Z M 165.26 118.96 L 165.27 119.95 C 165.27 120.98 166.11 121.81 167.14 121.81 C 168.17 121.81 169.00 120.97 169.00 119.94 L 168.99 118.95 C 168.99 117.92 168.15 117.09 167.12 117.09 C 166.09 117.10 165.26 117.93 165.26 118.96 Z M 165.27 119.97 L 165.28 120.92 C 165.29 121.95 166.13 122.78 167.16 122.77 C 168.19 122.75 169.02 121.91 169.01 120.88 L 169.00 119.92 C 168.98 118.89 168.14 118.07 167.11 118.08 C 166.08 118.09 165.25 118.94 165.27 119.97 Z M 165.28 120.94 L 165.30 121.90 C 165.32 122.93 166.18 123.74 167.20 123.72 C 168.23 123.70 169.05 122.85 169.03 121.82 L 169.01 120.86 C 168.98 119.83 168.13 119.02 167.10 119.04 C 166.07 119.06 165.26 119.91 165.28 120.94 Z M 165.30 121.92 L 165.34 122.90 C 165.37 123.93 166.24 124.73 167.26 124.70 C 168.29 124.66 169.09 123.80 169.06 122.77 L 169.02 121.79 C 168.99 120.76 168.13 119.96 167.10 120.00 C 166.07 120.03 165.27 120.90 165.30 121.92 Z M 165.34 122.93 L 165.39 123.94 C 165.44 124.97 166.32 125.76 167.34 125.71 C 168.37 125.65 169.15 124.78 169.10 123.76 L 169.05 122.74 C 169.00 121.72 168.13 120.93 167.10 120.98 C 166.08 121.03 165.29 121.91 165.34 122.93 Z M 165.40 123.97 L 165.47 125.00 C 165.53 126.02 166.42 126.79 167.44 126.72 C 168.46 126.65 169.24 125.77 169.17 124.75 L 169.10 123.73 C 169.03 122.70 168.15 121.93 167.12 122.00 C 166.10 122.07 165.33 122.95 165.40 123.97 Z M 165.47 125.03 L 165.55 125.98 C 165.63 127.00 166.53 127.76 167.55 127.67 C 168.57 127.59 169.33 126.69 169.25 125.67 L 169.17 124.72 C 169.08 123.69 168.18 122.94 167.16 123.02 C 166.14 123.11 165.38 124.01 165.47 125.03 Z M 165.55 126.01 L 165.65 126.99 C 165.75 128.01 166.66 128.76 167.68 128.66 C 168.70 128.55 169.44 127.65 169.34 126.62 L 169.25 125.64 C 169.14 124.62 168.23 123.87 167.21 123.97 C 166.19 124.08 165.45 124.99 165.55 126.01 Z M 165.65 127.02 L 165.76 128.03 C 165.88 129.06 166.80 129.79 167.82 129.68 C 168.84 129.56 169.57 128.64 169.46 127.62 L 169.34 126.60 C 169.23 125.58 168.31 124.84 167.29 124.96 C 166.26 125.07 165.53 125.99 165.65 127.02 Z M 165.76 128.06 L 165.89 129.07 C 166.01 130.09 166.94 130.82 167.97 130.69 C 168.99 130.56 169.71 129.63 169.58 128.61 L 169.46 127.60 C 169.33 126.58 168.40 125.85 167.38 125.98 C 166.36 126.10 165.63 127.04 165.76 128.06 Z M 165.89 129.09 L 166.01 130.03 C 166.15 131.05 167.08 131.77 168.11 131.63 C 169.13 131.50 169.85 130.56 169.71 129.54 L 169.59 128.59 C 169.45 127.57 168.51 126.85 167.49 126.99 C 166.47 127.13 165.75 128.06 165.89 129.09 Z M 166.01 130.04 L 166.14 131.01 C 166.28 132.04 167.22 132.75 168.25 132.61 C 169.27 132.47 169.98 131.53 169.85 130.51 L 169.71 129.53 C 169.57 128.51 168.63 127.79 167.61 127.93 C 166.59 128.07 165.87 129.01 166.01 130.04 Z M 166.14 131.01 L 166.27 132.02 C 166.41 133.04 167.35 133.76 168.38 133.62 C 169.40 133.49 170.12 132.54 169.98 131.52 L 169.85 130.51 C 169.71 129.49 168.77 128.77 167.74 128.91 C 166.72 129.04 166.00 129.99 166.14 131.01 Z M 166.27 132.01 L 166.40 133.05 C 166.54 134.08 167.48 134.80 168.50 134.67 C 169.53 134.54 170.26 133.60 170.12 132.57 L 169.99 131.53 C 169.86 130.50 168.92 129.78 167.89 129.91 C 166.86 130.04 166.14 130.98 166.27 132.01 Z M 166.40 133.04 L 166.52 134.01 C 166.64 135.04 167.58 135.77 168.61 135.64 C 169.64 135.52 170.37 134.58 170.24 133.56 L 170.13 132.58 C 170.00 131.56 169.07 130.82 168.04 130.95 C 167.01 131.07 166.28 132.01 166.40 133.04 Z M 166.51 134.00 L 166.62 134.96 C 166.74 135.99 167.67 136.73 168.71 136.61 C 169.74 136.49 170.48 135.56 170.36 134.53 L 170.25 133.57 C 170.13 132.54 169.20 131.80 168.17 131.91 C 167.14 132.03 166.40 132.96 166.51 134.00 Z M 166.62 134.95 L 166.73 135.94 C 166.84 136.97 167.77 137.72 168.81 137.60 C 169.84 137.49 170.59 136.56 170.47 135.53 L 170.36 134.54 C 170.25 133.51 169.32 132.76 168.29 132.88 C 167.25 132.99 166.51 133.92 166.62 134.95 Z M 166.73 135.94 L 166.84 136.95 C 166.95 137.98 167.88 138.73 168.91 138.62 C 169.95 138.50 170.70 137.58 170.58 136.54 L 170.47 135.53 C 170.36 134.50 169.43 133.75 168.40 133.86 C 167.36 133.97 166.62 134.90 166.73 135.94 Z M 166.83 136.95 L 166.95 137.98 C 167.06 139.01 167.99 139.76 169.03 139.65 C 170.06 139.54 170.81 138.61 170.70 137.57 L 170.59 136.54 C 170.47 135.50 169.54 134.76 168.51 134.87 C 167.47 134.98 166.72 135.91 166.83 136.95 Z M 166.94 137.98 L 167.05 138.96 C 167.17 140.00 168.10 140.75 169.14 140.64 C 170.17 140.52 170.92 139.59 170.81 138.55 L 170.70 137.57 C 170.59 136.53 169.65 135.78 168.62 135.90 C 167.58 136.01 166.83 136.94 166.94 137.98 Z M 167.05 138.97 L 167.16 139.92 C 167.27 140.96 168.21 141.71 169.25 141.59 C 170.28 141.48 171.03 140.54 170.92 139.50 L 170.81 138.55 C 170.69 137.51 169.76 136.76 168.72 136.88 C 167.68 136.99 166.93 137.93 167.05 138.97 Z M 167.16 139.92 L 167.27 140.90 C 167.38 141.94 168.32 142.69 169.36 142.57 C 170.40 142.45 171.14 141.51 171.03 140.48 L 170.92 139.50 C 170.80 138.46 169.86 137.72 168.83 137.83 C 167.79 137.95 167.04 138.89 167.16 139.92 Z M 167.26 140.90 L 167.38 141.89 C 167.49 142.93 168.43 143.68 169.47 143.57 C 170.51 143.45 171.26 142.51 171.14 141.47 L 171.03 140.48 C 170.91 139.44 169.98 138.69 168.94 138.80 C 167.90 138.92 167.15 139.86 167.26 140.90 Z M 167.37 141.89 L 167.49 142.91 C 167.60 143.95 168.54 144.70 169.58 144.59 C 170.62 144.47 171.37 143.53 171.26 142.49 L 171.14 141.47 C 171.03 140.43 170.09 139.68 169.05 139.80 C 168.01 139.91 167.26 140.85 167.37 141.89 Z M 167.48 142.91 L 167.60 143.95 C 167.71 144.99 168.65 145.75 169.69 145.63 C 170.73 145.52 171.49 144.58 171.37 143.54 L 171.26 142.50 C 171.14 141.45 170.21 140.70 169.17 140.81 C 168.12 140.93 167.37 141.87 167.48 142.91 Z M 167.60 143.95 L 167.70 144.94 C 167.81 145.98 168.75 146.74 169.79 146.62 C 170.84 146.51 171.59 145.58 171.48 144.53 L 171.37 143.54 C 171.26 142.50 170.33 141.74 169.28 141.86 C 168.24 141.97 167.48 142.90 167.60 143.95 Z M 167.70 144.93 L 167.80 145.92 C 167.91 146.96 168.85 147.72 169.89 147.61 C 170.94 147.51 171.69 146.57 171.59 145.53 L 171.48 144.54 C 171.37 143.49 170.44 142.73 169.39 142.84 C 168.35 142.95 167.59 143.89 167.70 144.93 Z M 167.80 145.92 L 167.90 146.92 C 168.01 147.96 168.94 148.72 169.99 148.62 C 171.04 148.51 171.80 147.57 171.69 146.53 L 171.59 145.53 C 171.48 144.48 170.55 143.72 169.50 143.83 C 168.46 143.94 167.69 144.87 167.80 145.92 Z M 167.90 146.91 L 168.00 147.92 C 168.11 148.96 169.04 149.73 170.09 149.62 C 171.13 149.52 171.90 148.58 171.79 147.54 L 171.69 146.53 C 171.59 145.49 170.65 144.72 169.61 144.83 C 168.56 144.93 167.80 145.87 167.90 146.91 Z M 168.00 147.91 L 168.10 148.92 C 168.20 149.97 169.14 150.73 170.18 150.63 C 171.23 150.53 172.00 149.59 171.89 148.55 L 171.79 147.54 C 171.69 146.49 170.76 145.73 169.71 145.83 C 168.66 145.93 167.90 146.87 168.00 147.91 Z M 168.10 148.92 L 168.19 149.91 C 168.30 150.96 169.23 151.73 170.28 151.63 C 171.32 151.53 172.09 150.60 171.99 149.55 L 171.89 148.55 C 171.79 147.50 170.86 146.73 169.81 146.83 C 168.76 146.94 168.00 147.87 168.10 148.92 Z M 168.19 149.91 L 168.29 150.91 C 168.39 151.96 169.32 152.73 170.37 152.63 C 171.42 152.53 172.19 151.60 172.09 150.55 L 171.99 149.55 C 171.89 148.50 170.96 147.73 169.91 147.83 C 168.86 147.93 168.09 148.86 168.19 149.91 Z M 168.29 150.91 L 168.38 151.92 C 168.48 152.97 169.41 153.74 170.46 153.64 C 171.51 153.54 172.28 152.61 172.18 151.56 L 172.09 150.56 C 171.99 149.51 171.06 148.73 170.01 148.83 C 168.96 148.93 168.19 149.86 168.29 150.91 Z M 168.38 151.91 L 168.47 152.91 C 168.57 153.96 169.50 154.73 170.55 154.64 C 171.60 154.54 172.37 153.61 172.27 152.56 L 172.18 151.57 C 172.09 150.52 171.16 149.74 170.11 149.84 C 169.06 149.93 168.29 150.86 168.38 151.91 Z M 168.47 152.91 L 168.56 153.90 C 168.66 154.95 169.58 155.72 170.63 155.63 C 171.68 155.53 172.46 154.60 172.36 153.55 L 172.27 152.56 C 172.18 151.51 171.25 150.74 170.20 150.83 C 169.15 150.93 168.38 151.86 168.47 152.91 Z M 168.56 153.89 L 168.65 154.88 C 168.74 155.93 169.67 156.71 170.72 156.61 C 171.77 156.52 172.54 155.59 172.45 154.54 L 172.36 153.56 C 172.27 152.51 171.34 151.73 170.29 151.82 C 169.24 151.92 168.47 152.84 168.56 153.89 Z M 168.65 154.88 L 168.73 155.87 C 168.83 156.92 169.75 157.70 170.80 157.60 C 171.85 157.51 172.63 156.59 172.54 155.54 L 172.45 154.55 C 172.36 153.50 171.43 152.72 170.38 152.81 C 169.33 152.90 168.56 153.83 168.65 154.88 Z M 168.73 155.87 L 168.82 156.86 C 168.91 157.91 169.83 158.68 170.88 158.59 C 171.93 158.50 172.71 157.58 172.62 156.53 L 172.54 155.54 C 172.45 154.49 171.52 153.71 170.47 153.80 C 169.42 153.89 168.64 154.82 168.73 155.87 Z M 168.82 156.86 L 168.90 157.83 C 168.99 158.89 169.92 159.66 170.97 159.58 C 172.02 159.49 172.80 158.56 172.71 157.51 L 172.62 156.53 C 172.53 155.48 171.61 154.70 170.56 154.79 C 169.51 154.88 168.73 155.80 168.82 156.86 Z M 168.90 157.83 L 168.98 158.82 C 169.07 159.87 169.99 160.65 171.05 160.57 C 172.10 160.48 172.88 159.55 172.79 158.50 L 172.71 157.51 C 172.62 156.46 171.70 155.68 170.64 155.77 C 169.59 155.86 168.81 156.78 168.90 157.83 Z M 168.98 158.82 L 169.06 159.81 C 169.15 160.87 170.07 161.65 171.12 161.56 C 172.18 161.48 172.96 160.55 172.87 159.50 L 172.79 158.50 C 172.71 157.45 171.78 156.67 170.73 156.76 C 169.68 156.84 168.89 157.76 168.98 158.82 Z M 169.06 159.81 L 169.14 160.81 C 169.22 161.86 170.15 162.65 171.20 162.57 C 172.25 162.48 173.04 161.56 172.96 160.51 L 172.88 159.50 C 172.79 158.45 171.87 157.67 170.82 157.75 C 169.76 157.83 168.98 158.76 169.06 159.81 Z M 169.14 160.81 L 169.22 161.81 C 169.30 162.87 170.22 163.66 171.27 163.58 C 172.33 163.49 173.12 162.57 173.04 161.52 L 172.96 160.51 C 172.88 159.46 171.96 158.67 170.90 158.75 C 169.85 158.83 169.06 159.75 169.14 160.81 Z M 169.21 161.81 L 169.29 162.82 C 169.37 163.88 170.29 164.67 171.34 164.59 C 172.40 164.51 173.19 163.59 173.11 162.54 L 173.04 161.53 C 172.96 160.47 172.04 159.68 170.98 159.76 C 169.93 159.83 169.14 160.75 169.21 161.81 Z M 169.29 162.81 L 169.36 163.81 C 169.43 164.87 170.35 165.66 171.41 165.59 C 172.46 165.51 173.26 164.60 173.18 163.54 L 173.11 162.54 C 173.04 161.49 172.12 160.69 171.07 160.77 C 170.01 160.84 169.21 161.76 169.29 162.81 Z M 169.36 163.81 L 169.43 164.80 C 169.50 165.86 170.41 166.66 171.47 166.59 C 172.53 166.52 173.33 165.60 173.25 164.54 L 173.19 163.54 C 173.11 162.49 172.20 161.69 171.14 161.76 C 170.08 161.83 169.28 162.75 169.36 163.81 Z M 169.42 164.80 L 169.49 165.80 C 169.56 166.86 170.48 167.66 171.54 167.59 C 172.59 167.52 173.39 166.60 173.32 165.54 L 173.26 164.54 C 173.18 163.49 172.27 162.69 171.21 162.76 C 170.15 162.83 169.35 163.74 169.42 164.80 Z M 169.49 165.80 L 169.56 166.80 C 169.63 167.86 170.54 168.66 171.60 168.59 C 172.66 168.52 173.46 167.60 173.39 166.54 L 173.32 165.54 C 173.25 164.49 172.34 163.68 171.28 163.76 C 170.22 163.83 169.42 164.74 169.49 165.80 Z M 169.56 166.80 L 169.62 167.80 C 169.69 168.86 170.61 169.66 171.67 169.59 C 172.73 169.52 173.53 168.60 173.46 167.54 L 173.39 166.54 C 173.32 165.48 172.40 164.68 171.34 164.75 C 170.28 164.83 169.48 165.74 169.56 166.80 Z M 169.62 167.80 L 169.69 168.80 C 169.76 169.86 170.68 170.66 171.74 170.59 C 172.80 170.51 173.60 169.59 173.53 168.53 L 173.46 167.54 C 173.39 166.48 172.47 165.68 171.41 165.75 C 170.35 165.83 169.55 166.74 169.62 167.80 Z M 169.69 168.81 L 169.76 169.81 C 169.84 170.87 170.76 171.67 171.82 171.59 C 172.88 171.51 173.68 170.59 173.60 169.53 L 173.53 168.53 C 173.45 167.47 172.53 166.67 171.47 166.75 C 170.41 166.82 169.61 167.75 169.69 168.81 Z M 169.76 169.82 L 169.84 170.83 C 169.92 171.89 170.84 172.68 171.90 172.60 C 172.96 172.52 173.76 171.60 173.68 170.54 L 173.60 169.53 C 173.52 168.47 172.60 167.67 171.54 167.75 C 170.48 167.83 169.68 168.76 169.76 169.82 Z M 169.84 170.83 L 169.92 171.84 C 170.00 172.90 170.92 173.69 171.98 173.61 C 173.04 173.53 173.84 172.60 173.76 171.54 L 173.68 170.53 C 173.60 169.47 172.67 168.68 171.61 168.76 C 170.55 168.84 169.76 169.77 169.84 170.83 Z M 169.92 171.84 L 169.99 172.84 C 170.08 173.90 171.00 174.69 172.06 174.61 C 173.13 174.53 173.92 173.60 173.84 172.54 L 173.76 171.54 C 173.67 170.48 172.75 169.68 171.69 169.77 C 170.62 169.85 169.83 170.78 169.92 171.84 Z M 169.99 172.84 L 170.07 173.83 C 170.15 174.89 171.08 175.69 172.14 175.60 C 173.20 175.52 174.00 174.59 173.91 173.53 L 173.84 172.54 C 173.75 171.48 172.82 170.68 171.76 170.77 C 170.70 170.85 169.91 171.78 169.99 172.84 Z M 170.07 173.83 L 170.15 174.81 C 170.23 175.88 171.16 176.67 172.22 176.59 C 173.28 176.51 174.07 175.58 173.99 174.52 L 173.92 173.53 C 173.83 172.47 172.90 171.68 171.84 171.76 C 170.78 171.84 169.99 172.77 170.07 173.83 Z M 170.15 174.81 L 170.22 175.79 C 170.30 176.86 171.23 177.65 172.29 177.57 C 173.35 177.49 174.15 176.56 174.07 175.50 L 173.99 174.52 C 173.91 173.46 172.99 172.66 171.92 172.74 C 170.86 172.82 170.06 173.75 170.15 174.81 Z M 170.22 175.79 L 170.29 176.79 C 170.37 177.85 171.30 178.65 172.36 178.57 C 173.42 178.49 174.22 177.57 174.14 176.50 L 174.07 175.51 C 173.99 174.44 173.07 173.64 172.00 173.72 C 170.94 173.80 170.14 174.72 170.22 175.79 Z M 170.29 176.78 L 170.36 177.78 C 170.44 178.84 171.36 179.64 172.42 179.56 C 173.49 179.49 174.29 178.57 174.21 177.50 L 174.14 176.51 C 174.07 175.44 173.14 174.64 172.08 174.72 C 171.02 174.79 170.22 175.72 170.29 176.78 Z M 170.36 177.77 L 170.43 178.76 C 170.50 179.83 171.42 180.63 172.49 180.56 C 173.55 180.48 174.36 179.56 174.28 178.50 L 174.21 177.51 C 174.14 176.44 173.22 175.64 172.15 175.71 C 171.09 175.78 170.29 176.71 170.36 177.77 Z M 170.43 178.76 L 170.49 179.75 C 170.57 180.82 171.49 181.62 172.55 181.55 C 173.62 181.48 174.42 180.56 174.35 179.49 L 174.28 178.50 C 174.21 177.44 173.29 176.63 172.23 176.70 C 171.16 176.77 170.36 177.69 170.43 178.76 Z M 170.49 179.75 L 170.56 180.75 C 170.63 181.81 171.55 182.62 172.61 182.55 C 173.68 182.48 174.49 181.56 174.42 180.50 L 174.35 179.50 C 174.28 178.43 173.36 177.62 172.30 177.69 C 171.23 177.76 170.42 178.68 170.49 179.75 Z M 170.56 180.75 L 170.62 181.76 C 170.69 182.82 171.61 183.63 172.68 183.56 C 173.74 183.49 174.55 182.57 174.48 181.51 L 174.42 180.50 C 174.35 179.43 173.43 178.62 172.36 178.69 C 171.30 178.76 170.49 179.68 170.56 180.75 Z M 170.62 181.75 L 170.69 182.78 C 170.75 183.84 171.67 184.65 172.74 184.58 C 173.81 184.52 174.62 183.60 174.55 182.53 L 174.48 181.51 C 174.42 180.44 173.50 179.63 172.43 179.70 C 171.36 179.77 170.55 180.69 170.62 181.75 Z M 170.69 182.77 L 170.75 183.80 C 170.82 184.87 171.74 185.68 172.80 185.61 C 173.87 185.54 174.68 184.63 174.61 183.56 L 174.55 182.53 C 174.48 181.47 173.56 180.66 172.50 180.72 C 171.43 180.79 170.62 181.71 170.69 182.77 Z M 170.75 183.80 L 170.81 184.82 C 170.88 185.89 171.80 186.70 172.86 186.63 C 173.93 186.57 174.74 185.65 174.68 184.58 L 174.61 183.56 C 174.55 182.49 173.63 181.68 172.56 181.75 C 171.50 181.81 170.68 182.73 170.75 183.80 Z M 170.81 184.82 L 170.87 185.82 C 170.94 186.89 171.86 187.70 172.92 187.64 C 173.99 187.57 174.80 186.65 174.74 185.59 L 174.68 184.58 C 174.61 183.51 173.69 182.70 172.63 182.77 C 171.56 182.83 170.75 183.75 170.81 184.82 Z M 170.87 185.82 L 170.93 186.80 C 171.00 187.87 171.91 188.68 172.98 188.62 C 174.05 188.55 174.86 187.63 174.80 186.57 L 174.74 185.59 C 174.68 184.52 173.76 183.71 172.69 183.77 C 171.62 183.83 170.81 184.75 170.87 185.82 Z M 170.93 186.80 L 170.99 187.74 C 171.05 188.81 171.97 189.62 173.04 189.56 C 174.10 189.50 174.92 188.58 174.86 187.51 L 174.80 186.57 C 174.74 185.50 173.82 184.69 172.75 184.75 C 171.68 184.81 170.87 185.73 170.93 186.80 Z M 170.99 187.74 L 171.05 188.83 C 171.11 189.89 172.03 190.71 173.10 190.65 C 174.17 190.59 174.98 189.67 174.92 188.60 L 174.86 187.51 C 174.79 186.44 173.88 185.63 172.81 185.69 C 171.74 185.75 170.92 186.67 170.99 187.74 Z M 171.05 188.82 L 171.11 189.87 C 171.17 190.94 172.09 191.75 173.16 191.69 C 174.22 191.63 175.04 190.71 174.98 189.64 L 174.92 188.60 C 174.86 187.53 173.94 186.72 172.87 186.78 C 171.80 186.84 170.99 187.76 171.05 188.82 Z M 171.11 189.87 L 171.17 190.86 C 171.23 191.93 172.14 192.74 173.21 192.68 C 174.28 192.62 175.10 191.71 175.04 190.64 L 174.98 189.64 C 174.92 188.58 174.00 187.76 172.93 187.82 C 171.86 187.88 171.05 188.80 171.11 189.87 Z M 171.16 190.86 L 171.22 191.81 C 171.28 192.88 172.20 193.69 173.27 193.63 C 174.34 193.57 175.15 192.66 175.09 191.59 L 175.04 190.64 C 174.98 189.57 174.06 188.75 172.99 188.81 C 171.92 188.87 171.10 189.79 171.16 190.86 Z M 171.22 191.81 L 171.27 192.73 C 171.33 193.80 172.25 194.61 173.32 194.55 C 174.39 194.49 175.21 193.57 175.15 192.50 L 175.09 191.58 C 175.03 190.51 174.11 189.70 173.04 189.76 C 171.97 189.82 171.16 190.74 171.22 191.81 Z M 171.27 192.73 L 171.33 193.77 C 171.40 194.84 172.32 195.66 173.39 195.59 C 174.46 195.53 175.27 194.61 175.21 193.54 L 175.15 192.50 C 175.08 191.43 174.16 190.62 173.09 190.68 C 172.02 190.74 171.21 191.66 171.27 192.73 Z M 171.33 193.77 L 171.39 194.79 C 171.46 195.86 172.38 196.68 173.45 196.61 C 174.52 196.55 175.33 195.63 175.27 194.56 L 175.21 193.54 C 175.14 192.47 174.23 191.66 173.16 191.72 C 172.09 191.78 171.27 192.70 171.33 193.77 Z M 171.39 194.79 L 171.45 195.77 C 171.51 196.84 172.43 197.66 173.50 197.60 C 174.57 197.54 175.39 196.62 175.33 195.55 L 175.27 194.56 C 175.21 193.49 174.29 192.67 173.22 192.74 C 172.15 192.80 171.33 193.72 171.39 194.79 Z M 171.45 195.77 L 171.50 196.73 C 171.56 197.80 172.47 198.62 173.55 198.56 C 174.62 198.50 175.44 197.59 175.38 196.52 L 175.33 195.56 C 175.27 194.49 174.35 193.67 173.28 193.72 C 172.21 193.78 171.39 194.70 171.45 195.77 Z M 171.50 196.72 L 171.55 197.67 C 171.60 198.74 172.51 199.57 173.58 199.51 C 174.65 199.46 175.48 198.55 175.43 197.48 L 175.38 196.53 C 175.33 195.46 174.42 194.63 173.35 194.68 C 172.27 194.73 171.45 195.65 171.50 196.72 Z M 171.55 197.66 L 171.59 198.62 C 171.64 199.69 172.55 200.52 173.62 200.47 C 174.69 200.42 175.52 199.51 175.47 198.44 L 175.43 197.49 C 175.38 196.42 174.47 195.59 173.40 195.64 C 172.33 195.68 171.50 196.59 171.55 197.66 Z M 171.59 198.62 L 171.64 199.60 C 171.69 200.67 172.59 201.50 173.66 201.45 C 174.74 201.40 175.56 200.50 175.51 199.42 L 175.47 198.44 C 175.42 197.37 174.51 196.54 173.44 196.59 C 172.37 196.64 171.54 197.55 171.59 198.62 Z M 171.64 199.61 L 171.69 200.66 C 171.74 201.73 172.66 202.55 173.73 202.50 C 174.80 202.44 175.62 201.53 175.57 200.46 L 175.51 199.41 C 175.46 198.34 174.55 197.52 173.48 197.57 C 172.41 197.63 171.58 198.54 171.64 199.61 Z M 171.69 200.67 L 171.75 201.67 C 171.81 202.74 172.73 203.56 173.80 203.49 C 174.87 203.43 175.69 202.51 175.62 201.44 L 175.57 200.45 C 175.51 199.38 174.59 198.56 173.52 198.62 C 172.45 198.68 171.63 199.60 171.69 200.67 Z M 171.75 201.68 L 171.81 202.65 C 171.88 203.72 172.80 204.53 173.87 204.46 C 174.94 204.40 175.75 203.47 175.69 202.40 L 175.62 201.43 C 175.56 200.36 174.63 199.55 173.56 199.62 C 172.49 199.69 171.68 200.61 171.75 201.68 Z M 171.81 202.66 L 171.88 203.67 C 171.95 204.74 172.88 205.55 173.95 205.47 C 175.02 205.40 175.83 204.47 175.75 203.41 L 175.68 202.40 C 175.61 201.33 174.69 200.52 173.62 200.59 C 172.55 200.66 171.74 201.59 171.81 202.66 Z M 171.88 203.68 L 171.95 204.70 C 172.03 205.77 172.96 206.58 174.03 206.50 C 175.10 206.42 175.90 205.49 175.83 204.42 L 175.75 203.40 C 175.68 202.33 174.75 201.52 173.68 201.60 C 172.61 201.68 171.80 202.61 171.88 203.68 Z M 171.95 204.71 L 172.03 205.73 C 172.11 206.80 173.04 207.60 174.11 207.52 C 175.18 207.44 175.98 206.51 175.90 205.44 L 175.83 204.42 C 175.75 203.35 174.81 202.55 173.74 202.63 C 172.68 202.71 171.87 203.64 171.95 204.71 Z M 172.03 205.73 L 172.12 206.92 C 172.21 207.99 173.14 208.79 174.21 208.71 C 175.27 208.63 176.07 207.69 175.99 206.62 L 175.90 205.44 C 175.82 204.37 174.89 203.57 173.82 203.65 C 172.75 203.73 171.95 204.67 172.03 205.73 Z M 172.12 206.86 L 172.18 208.10 C 172.23 209.17 173.13 209.99 174.20 209.95 C 175.27 209.90 176.10 208.99 176.05 207.92 L 175.99 206.69 C 175.95 205.62 175.04 204.79 173.97 204.84 C 172.90 204.89 172.07 205.79 172.12 206.86 Z M 172.19 207.82 L 172.10 208.76 C 171.99 209.82 172.77 210.77 173.84 210.87 C 174.90 210.98 175.84 210.20 175.95 209.13 L 176.04 208.20 C 176.14 207.13 175.36 206.19 174.30 206.09 C 173.24 205.98 172.29 206.76 172.19 207.82 Z M 172.43 207.85 L 172.10 208.33 C 171.49 209.21 171.71 210.41 172.59 211.02 C 173.47 211.63 174.67 211.41 175.28 210.53 L 175.61 210.05 C 176.22 209.17 176.00 207.97 175.12 207.36 C 174.24 206.75 173.04 206.97 172.43 207.85 Z M 173.87 207.53 L 173.30 207.48 C 172.26 207.38 171.32 208.15 171.22 209.20 C 171.12 210.24 171.89 211.18 172.94 211.28 L 173.51 211.33 C 174.56 211.43 175.49 210.66 175.59 209.61 C 175.69 208.56 174.92 207.63 173.87 207.53 Z M 174.05 207.76 L 173.30 207.33 C 172.40 206.81 171.26 207.12 170.75 208.01 C 170.24 208.91 170.55 210.05 171.44 210.56 L 172.19 210.99 C 173.09 211.51 174.23 211.20 174.74 210.31 C 175.25 209.41 174.94 208.27 174.05 207.76 Z M 173.49 207.52 L 172.62 206.83 C 171.83 206.21 170.69 206.34 170.07 207.13 C 169.44 207.91 169.58 209.06 170.37 209.68 L 171.24 210.37 C 172.03 210.99 173.17 210.85 173.79 210.07 C 174.41 209.28 174.28 208.14 173.49 207.52 Z M 172.68 206.94 L 171.77 206.12 C 171.04 205.46 169.93 205.52 169.27 206.24 C 168.61 206.96 168.67 208.08 169.39 208.74 L 170.31 209.56 C 171.03 210.22 172.15 210.16 172.80 209.44 C 173.46 208.71 173.40 207.60 172.68 206.94 Z M 171.78 206.19 L 170.99 205.43 C 170.31 204.77 169.22 204.78 168.56 205.47 C 167.89 206.15 167.91 207.24 168.59 207.90 L 169.38 208.66 C 170.07 209.32 171.16 209.31 171.82 208.62 C 172.48 207.94 172.46 206.85 171.78 206.19 Z M 170.98 205.49 L 170.29 204.78 C 169.64 204.12 168.58 204.11 167.93 204.76 C 167.27 205.41 167.26 206.46 167.90 207.12 L 168.60 207.83 C 169.24 208.49 170.30 208.50 170.96 207.86 C 171.62 207.21 171.63 206.15 170.98 205.49 Z M 170.29 204.85 L 169.62 204.14 C 169.02 203.48 167.99 203.44 167.33 204.04 C 166.67 204.65 166.63 205.68 167.24 206.34 L 167.90 207.05 C 168.51 207.71 169.54 207.75 170.20 207.14 C 170.85 206.54 170.89 205.51 170.29 204.85 Z M 169.62 204.21 L 168.98 203.46 C 168.41 202.81 167.42 202.73 166.76 203.30 C 166.10 203.87 166.03 204.86 166.60 205.52 L 167.24 206.26 C 167.81 206.92 168.80 206.99 169.46 206.43 C 170.12 205.86 170.19 204.87 169.62 204.21 Z M 168.98 203.54 L 168.34 202.74 C 167.81 202.09 166.85 201.99 166.20 202.51 C 165.54 203.04 165.44 204.00 165.97 204.65 L 166.60 205.45 C 167.13 206.10 168.09 206.20 168.74 205.68 C 169.40 205.15 169.50 204.19 168.98 203.54 Z M 168.34 202.80 L 167.73 202.00 C 167.24 201.34 166.30 201.21 165.65 201.71 C 164.99 202.20 164.86 203.13 165.36 203.79 L 165.96 204.60 C 166.46 205.25 167.39 205.38 168.05 204.89 C 168.70 204.39 168.83 203.46 168.34 202.80 Z M 167.74 202.04 L 167.15 201.21 C 166.68 200.55 165.76 200.39 165.10 200.87 C 164.43 201.34 164.28 202.26 164.75 202.92 L 165.35 203.75 C 165.82 204.41 166.74 204.56 167.40 204.09 C 168.06 203.62 168.22 202.70 167.74 202.04 Z M 167.16 201.24 L 166.58 200.39 C 166.12 199.72 165.21 199.55 164.54 200.00 C 163.88 200.46 163.70 201.37 164.16 202.04 L 164.74 202.89 C 165.20 203.56 166.11 203.73 166.78 203.27 C 167.44 202.82 167.62 201.91 167.16 201.24 Z M 166.59 200.41 L 166.03 199.56 C 165.59 198.89 164.68 198.70 164.01 199.14 C 163.34 199.58 163.15 200.49 163.59 201.16 L 164.15 202.01 C 164.59 202.68 165.50 202.87 166.17 202.43 C 166.84 201.99 167.03 201.09 166.59 200.41 Z M 166.03 199.59 L 165.51 198.76 C 165.08 198.08 164.19 197.88 163.51 198.31 C 162.84 198.73 162.64 199.63 163.06 200.30 L 163.59 201.13 C 164.01 201.81 164.91 202.01 165.58 201.58 C 166.26 201.16 166.46 200.26 166.03 199.59 Z M 165.52 198.78 L 165.00 197.93 C 164.59 197.25 163.70 197.04 163.02 197.45 C 162.34 197.86 162.13 198.75 162.54 199.43 L 163.06 200.28 C 163.47 200.96 164.35 201.17 165.03 200.76 C 165.71 200.35 165.93 199.46 165.52 198.78 Z M 165.01 197.96 L 164.48 197.04 C 164.08 196.35 163.20 196.12 162.52 196.52 C 161.83 196.91 161.60 197.79 161.99 198.48 L 162.53 199.40 C 162.93 200.08 163.80 200.32 164.49 199.92 C 165.17 199.52 165.41 198.65 165.01 197.96 Z M 164.49 197.06 L 164.01 196.20 C 163.63 195.51 162.75 195.26 162.06 195.64 C 161.37 196.03 161.12 196.90 161.50 197.59 L 161.98 198.45 C 162.37 199.14 163.24 199.39 163.93 199.01 C 164.62 198.63 164.87 197.76 164.49 197.06 Z M 164.02 196.22 L 163.56 195.38 C 163.19 194.69 162.32 194.43 161.63 194.80 C 160.93 195.17 160.67 196.04 161.05 196.74 L 161.50 197.57 C 161.87 198.27 162.74 198.53 163.44 198.15 C 164.13 197.78 164.39 196.91 164.02 196.22 Z M 163.56 195.38 L 163.12 194.55 C 162.74 193.85 161.88 193.59 161.18 193.96 C 160.49 194.33 160.23 195.20 160.60 195.89 L 161.05 196.73 C 161.42 197.43 162.28 197.69 162.98 197.32 C 163.67 196.94 163.94 196.08 163.56 195.38 Z M 163.11 194.54 L 162.65 193.69 C 162.28 193.00 161.41 192.74 160.72 193.11 C 160.03 193.49 159.77 194.35 160.14 195.05 L 160.60 195.90 C 160.98 196.59 161.84 196.85 162.54 196.47 C 163.23 196.10 163.49 195.23 163.11 194.54 Z M 162.65 193.69 L 162.17 192.81 C 161.79 192.12 160.93 191.87 160.24 192.24 C 159.55 192.62 159.29 193.49 159.67 194.18 L 160.15 195.05 C 160.52 195.74 161.39 196.00 162.08 195.62 C 162.77 195.24 163.02 194.38 162.65 193.69 Z M 162.17 192.81 L 161.68 191.92 C 161.30 191.23 160.44 190.98 159.75 191.36 C 159.06 191.74 158.80 192.60 159.18 193.29 L 159.67 194.18 C 160.05 194.87 160.92 195.12 161.61 194.74 C 162.30 194.37 162.55 193.50 162.17 192.81 Z M 161.68 191.92 L 161.19 191.02 C 160.81 190.33 159.94 190.08 159.25 190.46 C 158.56 190.84 158.31 191.71 158.69 192.40 L 159.18 193.29 C 159.56 193.98 160.43 194.24 161.12 193.86 C 161.81 193.48 162.06 192.61 161.68 191.92 Z M 161.19 191.02 L 161.10 190.86 C 160.72 190.17 159.85 189.92 159.16 190.30 C 158.47 190.68 158.22 191.55 158.60 192.24 L 158.69 192.40 C 159.07 193.09 159.94 193.34 160.63 192.96 C 161.32 192.58 161.57 191.71 161.19 191.02 Z"
      fill="black"
      fill-rule="nonzero" /><path d="M 149.55 121.27 L 149.89 122.25 C 150.16 123.04 151.03 123.46 151.82 123.18 C 152.61 122.91 153.03 122.05 152.76 121.25 L 152.42 120.28 C 152.15 119.49 151.28 119.07 150.49 119.34 C 149.70 119.62 149.28 120.48 149.55 121.27 Z M 149.89 122.26 L 150.24 123.22 C 150.52 124.01 151.39 124.42 152.18 124.14 C 152.97 123.86 153.38 122.99 153.10 122.20 L 152.75 121.24 C 152.47 120.45 151.60 120.04 150.81 120.32 C 150.02 120.60 149.61 121.47 149.89 122.26 Z M 150.25 123.24 L 150.60 124.17 C 150.89 124.96 151.77 125.35 152.55 125.06 C 153.34 124.76 153.73 123.88 153.44 123.10 L 153.09 122.17 C 152.79 121.39 151.91 120.99 151.13 121.29 C 150.35 121.58 149.95 122.46 150.25 123.24 Z M 150.61 124.22 L 150.98 125.11 C 151.30 125.88 152.19 126.25 152.96 125.93 C 153.74 125.61 154.11 124.72 153.79 123.95 L 153.42 123.06 C 153.10 122.28 152.21 121.92 151.44 122.23 C 150.66 122.55 150.29 123.44 150.61 124.22 Z M 151.02 125.16 L 151.45 126.10 C 151.80 126.85 152.70 127.18 153.45 126.83 C 154.20 126.49 154.53 125.59 154.18 124.84 L 153.75 123.90 C 153.40 123.14 152.51 122.82 151.75 123.16 C 151.00 123.51 150.67 124.40 151.02 125.16 Z M 151.50 126.14 L 151.95 127.03 C 152.32 127.75 153.21 128.04 153.94 127.68 C 154.66 127.31 154.96 126.42 154.59 125.69 L 154.14 124.80 C 153.77 124.08 152.88 123.79 152.15 124.15 C 151.42 124.52 151.13 125.41 151.50 126.14 Z M 151.99 127.04 L 152.45 127.90 C 152.83 128.61 153.71 128.87 154.41 128.49 C 155.12 128.11 155.39 127.24 155.01 126.53 L 154.55 125.67 C 154.17 124.97 153.29 124.70 152.58 125.08 C 151.88 125.46 151.61 126.34 151.99 127.04 Z M 152.47 127.90 L 152.64 128.21 C 153.02 128.90 153.89 129.16 154.58 128.78 C 155.28 128.40 155.53 127.53 155.15 126.84 L 154.99 126.53 C 154.61 125.84 153.74 125.58 153.04 125.96 C 152.35 126.34 152.09 127.21 152.47 127.90 Z"
      fill="black"
      fill-rule="nonzero" /><path d="M 123.61 150.99 L 122.60 150.89 C 121.75 150.81 121.00 151.44 120.92 152.29 C 120.84 153.14 121.47 153.89 122.32 153.97 L 123.33 154.06 C 124.17 154.14 124.93 153.52 125.01 152.67 C 125.09 151.82 124.46 151.07 123.61 150.99 Z M 122.61 150.89 L 121.60 150.79 C 120.75 150.71 119.99 151.34 119.91 152.19 C 119.83 153.04 120.46 153.80 121.31 153.88 L 122.31 153.98 C 123.17 154.06 123.92 153.43 124.00 152.58 C 124.08 151.72 123.46 150.97 122.61 150.89 Z M 121.60 150.79 L 120.61 150.69 C 119.75 150.61 118.99 151.24 118.91 152.09 C 118.83 152.95 119.46 153.71 120.31 153.79 L 121.31 153.89 C 122.16 153.97 122.92 153.34 123.01 152.48 C 123.09 151.63 122.46 150.87 121.60 150.79 Z M 120.61 150.68 L 119.63 150.59 C 118.77 150.51 118.01 151.14 117.92 152.00 C 117.84 152.86 118.47 153.62 119.33 153.70 L 120.31 153.80 C 121.17 153.88 121.93 153.25 122.02 152.39 C 122.10 151.53 121.47 150.77 120.61 150.68 Z M 119.64 150.57 L 118.64 150.47 C 117.77 150.39 116.99 151.02 116.91 151.89 C 116.82 152.76 117.46 153.54 118.33 153.62 L 119.33 153.72 C 120.20 153.81 120.97 153.17 121.06 152.30 C 121.14 151.43 120.51 150.66 119.64 150.57 Z M 118.63 150.45 L 117.64 150.35 C 116.75 150.27 115.97 150.92 115.88 151.80 C 115.80 152.69 116.45 153.47 117.33 153.56 L 118.33 153.65 C 119.21 153.73 120.00 153.08 120.08 152.20 C 120.17 151.32 119.52 150.53 118.63 150.45 Z M 117.62 150.32 L 116.63 150.24 C 115.73 150.16 114.94 150.83 114.86 151.73 C 114.79 152.64 115.46 153.43 116.36 153.50 L 117.35 153.59 C 118.25 153.66 119.04 152.99 119.12 152.09 C 119.19 151.19 118.52 150.40 117.62 150.32 Z M 116.61 150.21 L 115.61 150.14 C 114.69 150.08 113.90 150.78 113.84 151.70 C 113.78 152.62 114.48 153.41 115.39 153.47 L 116.39 153.54 C 117.31 153.60 118.10 152.90 118.16 151.98 C 118.22 151.06 117.52 150.27 116.61 150.21 Z M 115.57 150.11 L 114.20 150.06 C 113.27 150.02 112.48 150.75 112.44 151.69 C 112.41 152.62 113.14 153.41 114.07 153.45 L 115.44 153.50 C 116.37 153.54 117.16 152.81 117.20 151.87 C 117.23 150.94 116.50 150.15 115.57 150.11 Z M 114.17 150.04 L 113.12 150.02 C 112.18 150.00 111.39 150.75 111.37 151.70 C 111.36 152.65 112.11 153.44 113.06 153.45 L 114.11 153.47 C 115.05 153.49 115.84 152.73 115.86 151.78 C 115.87 150.84 115.12 150.05 114.17 150.04 Z M 113.11 149.99 L 112.95 149.99 C 111.99 149.98 111.20 150.75 111.19 151.71 C 111.18 152.67 111.94 153.46 112.91 153.47 L 113.07 153.47 C 114.03 153.49 114.82 152.72 114.83 151.76 C 114.84 150.79 114.08 150.01 113.11 149.99 Z M 112.93 153.48 L 113.56 153.48 C 114.53 153.48 115.31 152.70 115.31 151.73 C 115.31 150.76 114.53 149.98 113.56 149.98 L 112.93 149.98 C 111.96 149.98 111.18 150.76 111.18 151.73 C 111.18 152.70 111.96 153.48 112.93 153.48 Z M 113.56 153.49 L 114.66 153.49 C 115.62 153.49 116.41 152.70 116.41 151.73 C 116.41 150.76 115.62 149.98 114.66 149.98 L 113.56 149.98 C 112.59 149.98 111.80 150.76 111.80 151.73 C 111.80 152.70 112.59 153.49 113.56 153.49 Z M 114.66 153.49 L 115.95 153.49 C 116.92 153.49 117.71 152.70 117.71 151.73 C 117.71 150.76 116.92 149.98 115.95 149.98 L 114.66 149.98 C 113.68 149.98 112.90 150.76 112.90 151.73 C 112.90 152.70 113.68 153.49 114.66 153.49 Z M 115.95 153.49 L 117.11 153.49 C 118.08 153.49 118.87 152.70 118.87 151.73 C 118.87 150.76 118.08 149.97 117.11 149.97 L 115.95 149.97 C 114.98 149.97 114.19 150.76 114.19 151.73 C 114.19 152.70 114.98 153.49 115.95 153.49 Z M 117.11 153.49 L 118.12 153.49 C 119.09 153.49 119.88 152.70 119.88 151.73 C 119.88 150.76 119.09 149.97 118.12 149.97 L 117.11 149.97 C 116.14 149.97 115.35 150.76 115.35 151.73 C 115.35 152.70 116.14 153.49 117.11 153.49 Z M 118.12 153.49 L 119.09 153.49 C 120.06 153.49 120.85 152.70 120.85 151.73 C 120.85 150.76 120.06 149.97 119.09 149.97 L 118.12 149.97 C 117.15 149.97 116.36 150.76 116.36 151.73 C 116.36 152.70 117.15 153.49 118.12 153.49 Z M 119.09 153.49 L 120.05 153.49 C 121.02 153.49 121.81 152.71 121.81 151.73 C 121.81 150.76 121.02 149.97 120.05 149.97 L 119.09 149.97 C 118.11 149.97 117.33 150.76 117.33 151.73 C 117.33 152.71 118.11 153.49 119.09 153.49 Z M 120.05 153.49 L 120.99 153.49 C 121.96 153.49 122.75 152.71 122.75 151.73 C 122.75 150.76 121.96 149.97 120.99 149.97 L 120.05 149.97 C 119.08 149.97 118.29 150.76 118.29 151.73 C 118.29 152.71 119.08 153.50 120.05 153.49 Z M 120.99 153.50 L 121.95 153.49 C 122.92 153.49 123.71 152.70 123.71 151.73 C 123.71 150.75 122.92 149.97 121.94 149.97 L 120.98 149.97 C 120.01 149.97 119.22 150.76 119.22 151.73 C 119.22 152.71 120.02 153.50 120.99 153.50 Z M 121.95 153.50 L 122.96 153.49 C 123.93 153.49 124.72 152.69 124.71 151.72 C 124.71 150.75 123.92 149.96 122.94 149.96 L 121.94 149.97 C 120.96 149.97 120.18 150.76 120.18 151.74 C 120.18 152.71 120.98 153.50 121.95 153.50 Z M 122.96 153.49 L 124.01 153.48 C 124.99 153.48 125.77 152.68 125.76 151.70 C 125.75 150.73 124.96 149.94 123.98 149.95 L 122.93 149.96 C 121.96 149.97 121.17 150.77 121.18 151.74 C 121.19 152.72 121.99 153.50 122.96 153.49 Z M 124.02 153.48 L 125.05 153.47 C 126.02 153.46 126.80 152.66 126.79 151.68 C 126.78 150.71 125.98 149.93 125.00 149.94 L 123.97 149.95 C 123.00 149.96 122.22 150.77 122.23 151.74 C 122.24 152.72 123.04 153.50 124.02 153.48 Z M 125.06 153.47 L 126.02 153.45 C 127.00 153.43 127.77 152.62 127.75 151.65 C 127.73 150.67 126.92 149.90 125.95 149.92 L 124.99 149.94 C 124.01 149.96 123.24 150.77 123.26 151.74 C 123.28 152.72 124.09 153.49 125.06 153.47 Z M 126.04 153.45 L 127.03 153.42 C 128.01 153.39 128.77 152.57 128.74 151.59 C 128.70 150.61 127.89 149.85 126.91 149.88 L 125.92 149.92 C 124.95 149.95 124.18 150.77 124.22 151.74 C 124.25 152.72 125.07 153.49 126.04 153.45 Z M 127.06 153.42 L 128.07 153.37 C 129.05 153.31 129.80 152.48 129.75 151.51 C 129.69 150.53 128.86 149.78 127.89 149.83 L 126.88 149.88 C 125.90 149.94 125.15 150.77 125.20 151.74 C 125.25 152.72 126.09 153.47 127.06 153.42 Z M 128.11 153.36 L 129.14 153.29 C 130.12 153.21 130.85 152.36 130.77 151.39 C 130.70 150.41 129.85 149.68 128.87 149.75 L 127.84 149.83 C 126.87 149.91 126.14 150.76 126.21 151.73 C 126.29 152.71 127.14 153.44 128.11 153.36 Z M 129.19 153.28 L 130.21 153.18 C 131.18 153.08 131.89 152.20 131.78 151.23 C 131.68 150.26 130.81 149.55 129.84 149.65 L 128.82 149.76 C 127.85 149.86 127.14 150.73 127.24 151.70 C 127.35 152.68 128.22 153.38 129.19 153.28 Z M 130.25 153.17 L 131.20 153.05 C 132.17 152.92 132.86 152.03 132.73 151.06 C 132.60 150.09 131.71 149.40 130.74 149.53 L 129.79 149.66 C 128.82 149.79 128.14 150.68 128.26 151.65 C 128.39 152.62 129.28 153.30 130.25 153.17 Z M 131.24 153.04 L 132.21 152.89 C 133.18 152.74 133.84 151.84 133.69 150.87 C 133.54 149.90 132.63 149.24 131.66 149.39 L 130.70 149.54 C 129.73 149.69 129.07 150.59 129.22 151.56 C 129.37 152.53 130.28 153.19 131.24 153.04 Z M 132.24 152.89 L 133.22 152.72 C 134.19 152.55 134.83 151.63 134.67 150.67 C 134.50 149.70 133.58 149.06 132.62 149.22 L 131.63 149.39 C 130.67 149.56 130.02 150.48 130.19 151.44 C 130.35 152.41 131.27 153.05 132.24 152.89 Z M 133.24 152.72 L 134.24 152.53 C 135.21 152.35 135.84 151.42 135.66 150.46 C 135.48 149.50 134.56 148.86 133.59 149.04 L 132.59 149.23 C 131.63 149.40 130.99 150.33 131.17 151.30 C 131.35 152.26 132.28 152.89 133.24 152.72 Z M 134.26 152.53 L 135.28 152.33 C 136.24 152.14 136.87 151.21 136.68 150.24 C 136.50 149.28 135.56 148.65 134.60 148.84 L 133.58 149.04 C 132.62 149.23 131.99 150.16 132.18 151.12 C 132.36 152.09 133.30 152.71 134.26 152.53 Z M 135.29 152.33 L 136.28 152.13 C 137.24 151.94 137.87 151.00 137.67 150.04 C 137.48 149.08 136.54 148.45 135.58 148.64 L 134.59 148.84 C 133.63 149.03 133.01 149.97 133.20 150.93 C 133.39 151.89 134.33 152.52 135.29 152.33 Z M 136.29 152.13 L 137.25 151.93 C 138.22 151.73 138.84 150.80 138.64 149.83 C 138.44 148.87 137.51 148.25 136.54 148.45 L 135.58 148.64 C 134.61 148.84 133.99 149.78 134.19 150.74 C 134.39 151.70 135.32 152.32 136.29 152.13 Z M 137.26 151.93 L 138.24 151.73 C 139.20 151.53 139.82 150.58 139.62 149.62 C 139.42 148.66 138.48 148.04 137.52 148.24 L 136.54 148.45 C 135.58 148.65 134.96 149.59 135.16 150.55 C 135.36 151.51 136.30 152.13 137.26 151.93 Z M 138.25 151.72 L 139.24 151.51 C 140.20 151.31 140.81 150.36 140.60 149.40 C 140.40 148.44 139.45 147.83 138.49 148.04 L 137.51 148.25 C 136.55 148.45 135.93 149.40 136.14 150.36 C 136.34 151.32 137.29 151.93 138.25 151.72 Z M 139.25 151.51 L 140.23 151.29 C 141.19 151.08 141.80 150.13 141.59 149.17 C 141.38 148.22 140.43 147.61 139.47 147.82 L 138.48 148.04 C 137.52 148.25 136.92 149.20 137.13 150.16 C 137.34 151.12 138.29 151.72 139.25 151.51 Z M 140.25 151.29 L 141.23 151.07 C 142.19 150.85 142.79 149.90 142.57 148.94 C 142.35 147.98 141.40 147.38 140.44 147.60 L 139.46 147.82 C 138.50 148.04 137.90 148.99 138.12 149.95 C 138.33 150.91 139.29 151.51 140.25 151.29 Z M 141.24 151.07 L 142.22 150.83 C 143.18 150.61 143.77 149.65 143.54 148.69 C 143.32 147.73 142.36 147.14 141.40 147.37 L 140.42 147.60 C 139.47 147.83 138.87 148.79 139.10 149.74 C 139.33 150.70 140.29 151.29 141.24 151.07 Z M 142.24 150.83 L 143.22 150.59 C 144.17 150.35 144.76 149.38 144.52 148.43 C 144.28 147.48 143.32 146.89 142.36 147.13 L 141.38 147.37 C 140.43 147.61 139.85 148.57 140.08 149.53 C 140.32 150.48 141.29 151.07 142.24 150.83 Z M 143.24 150.58 L 144.21 150.33 C 145.16 150.09 145.73 149.11 145.49 148.16 C 145.24 147.21 144.27 146.64 143.32 146.88 L 142.35 147.13 C 141.39 147.38 140.82 148.35 141.07 149.30 C 141.31 150.26 142.28 150.83 143.24 150.58 Z M 144.22 150.33 L 145.19 150.07 C 146.14 149.81 146.70 148.84 146.44 147.89 C 146.19 146.94 145.21 146.37 144.26 146.63 L 143.30 146.89 C 142.35 147.14 141.79 148.12 142.04 149.07 C 142.30 150.02 143.27 150.58 144.22 150.33 Z M 145.20 150.06 L 146.16 149.80 C 147.11 149.53 147.66 148.55 147.40 147.60 C 147.13 146.65 146.15 146.10 145.20 146.37 L 144.24 146.63 C 143.30 146.90 142.74 147.88 143.01 148.83 C 143.27 149.78 144.26 150.33 145.20 150.06 Z M 146.18 149.79 L 147.13 149.52 C 148.08 149.24 148.62 148.25 148.35 147.31 C 148.07 146.36 147.09 145.82 146.14 146.09 L 145.18 146.37 C 144.24 146.64 143.70 147.63 143.97 148.58 C 144.24 149.52 145.23 150.07 146.18 149.79 Z M 147.15 149.51 L 148.10 149.23 C 149.04 148.94 149.58 147.95 149.30 147.01 C 149.01 146.06 148.02 145.53 147.08 145.81 L 146.12 146.10 C 145.18 146.38 144.65 147.37 144.93 148.32 C 145.21 149.26 146.21 149.79 147.15 149.51 Z M 148.12 149.22 L 149.05 148.93 C 149.99 148.64 150.52 147.64 150.22 146.70 C 149.93 145.76 148.94 145.24 148.00 145.53 L 147.06 145.82 C 146.12 146.11 145.60 147.11 145.89 148.05 C 146.18 148.99 147.18 149.51 148.12 149.22 Z M 149.06 148.93 L 150.00 148.63 C 150.94 148.33 151.46 147.33 151.16 146.39 C 150.86 145.46 149.86 144.94 148.92 145.23 L 147.98 145.53 C 147.05 145.83 146.53 146.83 146.82 147.77 C 147.12 148.71 148.12 149.23 149.06 148.93 Z M 150.01 148.63 L 150.95 148.32 C 151.89 148.02 152.40 147.02 152.10 146.08 C 151.80 145.14 150.80 144.63 149.86 144.93 L 148.91 145.24 C 147.98 145.54 147.46 146.54 147.76 147.48 C 148.07 148.42 149.07 148.93 150.01 148.63 Z M 150.96 148.32 L 151.91 148.01 C 152.85 147.70 153.36 146.70 153.05 145.76 C 152.75 144.83 151.74 144.32 150.81 144.62 L 149.85 144.93 C 148.92 145.24 148.41 146.25 148.71 147.18 C 149.02 148.12 150.02 148.63 150.96 148.32 Z M 151.92 148.01 L 152.88 147.69 C 153.82 147.38 154.32 146.38 154.02 145.44 C 153.71 144.51 152.70 144.00 151.77 144.31 L 150.80 144.62 C 149.87 144.93 149.36 145.94 149.67 146.87 C 149.97 147.81 150.98 148.32 151.92 148.01 Z M 152.88 147.69 L 153.86 147.37 C 154.79 147.06 155.30 146.05 154.99 145.12 C 154.68 144.18 153.67 143.68 152.74 143.98 L 151.76 144.31 C 150.83 144.61 150.32 145.62 150.63 146.56 C 150.94 147.49 151.95 148.00 152.88 147.69 Z M 153.86 147.37 L 154.78 147.06 C 155.72 146.76 156.23 145.75 155.92 144.81 C 155.61 143.88 154.60 143.37 153.67 143.68 L 152.74 143.98 C 151.80 144.29 151.30 145.30 151.60 146.24 C 151.91 147.17 152.92 147.68 153.86 147.37 Z M 154.78 147.06 L 155.71 146.76 C 156.65 146.45 157.15 145.44 156.85 144.51 C 156.54 143.57 155.53 143.06 154.60 143.37 L 153.67 143.68 C 152.73 143.99 152.22 144.99 152.53 145.93 C 152.84 146.86 153.85 147.37 154.78 147.06 Z M 155.71 146.76 L 156.65 146.45 C 157.59 146.14 158.09 145.13 157.78 144.20 C 157.48 143.26 156.47 142.75 155.53 143.06 L 154.59 143.37 C 153.66 143.68 153.15 144.69 153.46 145.62 C 153.77 146.56 154.78 147.07 155.71 146.76 Z M 156.65 146.45 L 157.60 146.13 C 158.54 145.82 159.04 144.81 158.73 143.88 C 158.42 142.94 157.41 142.44 156.48 142.75 L 155.53 143.06 C 154.60 143.37 154.09 144.38 154.40 145.32 C 154.71 146.25 155.72 146.76 156.65 146.45 Z M 157.61 146.13 L 158.56 145.81 C 159.50 145.50 160.00 144.49 159.69 143.55 C 159.38 142.62 158.37 142.12 157.43 142.43 L 156.47 142.75 C 155.54 143.06 155.04 144.07 155.35 145.01 C 155.66 145.94 156.67 146.44 157.61 146.13 Z M 158.57 145.81 L 159.54 145.48 C 160.47 145.16 160.97 144.15 160.65 143.22 C 160.34 142.29 159.33 141.79 158.39 142.10 L 157.43 142.43 C 156.49 142.75 155.99 143.76 156.31 144.69 C 156.63 145.62 157.64 146.12 158.57 145.81 Z M 159.55 145.48 L 160.52 145.14 C 161.45 144.82 161.95 143.81 161.63 142.88 C 161.31 141.95 160.29 141.45 159.36 141.77 L 158.39 142.11 C 157.46 142.43 156.96 143.44 157.28 144.37 C 157.60 145.30 158.62 145.80 159.55 145.48 Z M 160.53 145.14 L 161.45 144.81 C 162.38 144.49 162.87 143.47 162.55 142.54 C 162.22 141.62 161.21 141.13 160.28 141.45 L 159.35 141.77 C 158.42 142.10 157.93 143.11 158.26 144.04 C 158.58 144.97 159.60 145.46 160.53 145.14 Z M 161.46 144.81 L 162.39 144.48 C 163.32 144.15 163.81 143.13 163.48 142.21 C 163.15 141.28 162.13 140.79 161.20 141.12 L 160.27 141.45 C 159.34 141.78 158.86 142.80 159.19 143.73 C 159.52 144.65 160.53 145.14 161.46 144.81 Z M 162.40 144.48 L 163.34 144.14 C 164.26 143.81 164.74 142.79 164.41 141.86 C 164.08 140.94 163.06 140.46 162.14 140.79 L 161.20 141.13 C 160.27 141.46 159.79 142.48 160.12 143.40 C 160.45 144.33 161.47 144.81 162.40 144.48 Z M 163.34 144.14 L 164.29 143.80 C 165.21 143.46 165.69 142.44 165.35 141.52 C 165.02 140.59 164.00 140.11 163.07 140.45 L 162.13 140.79 C 161.20 141.13 160.73 142.15 161.06 143.07 C 161.40 144.00 162.42 144.48 163.34 144.14 Z M 164.29 143.80 L 165.24 143.45 C 166.16 143.11 166.63 142.09 166.30 141.16 C 165.96 140.24 164.93 139.77 164.01 140.11 L 163.07 140.45 C 162.14 140.79 161.67 141.81 162.01 142.74 C 162.35 143.66 163.37 144.13 164.29 143.80 Z M 165.24 143.45 L 166.19 143.10 C 167.11 142.76 167.58 141.73 167.24 140.81 C 166.90 139.89 165.88 139.42 164.95 139.76 L 164.01 140.11 C 163.08 140.45 162.61 141.47 162.95 142.40 C 163.30 143.32 164.32 143.79 165.24 143.45 Z M 166.19 143.09 L 167.14 142.74 C 168.06 142.40 168.53 141.37 168.19 140.45 C 167.84 139.53 166.82 139.06 165.90 139.41 L 164.95 139.76 C 164.03 140.10 163.56 141.13 163.90 142.05 C 164.25 142.97 165.27 143.44 166.19 143.09 Z M 167.15 142.74 L 168.08 142.39 C 169.00 142.04 169.46 141.02 169.12 140.10 C 168.77 139.18 167.74 138.71 166.82 139.06 L 165.89 139.41 C 164.97 139.75 164.51 140.78 164.85 141.70 C 165.20 142.62 166.23 143.08 167.15 142.74 Z M 168.08 142.39 L 169.00 142.04 C 169.92 141.69 170.39 140.67 170.04 139.75 C 169.69 138.83 168.67 138.36 167.75 138.71 L 166.82 139.06 C 165.90 139.41 165.44 140.43 165.79 141.35 C 166.13 142.27 167.16 142.73 168.08 142.39 Z M 169.00 142.04 L 169.93 141.69 C 170.85 141.34 171.31 140.31 170.97 139.39 C 170.62 138.48 169.59 138.01 168.67 138.36 L 167.75 138.71 C 166.83 139.06 166.36 140.09 166.71 141.00 C 167.06 141.92 168.09 142.38 169.00 142.04 Z M 169.93 141.69 L 170.86 141.33 C 171.78 140.98 172.24 139.96 171.90 139.04 C 171.55 138.12 170.52 137.66 169.60 138.01 L 168.67 138.36 C 167.76 138.71 167.29 139.73 167.64 140.65 C 167.99 141.57 169.01 142.03 169.93 141.69 Z M 170.86 141.33 L 171.80 140.98 C 172.71 140.63 173.18 139.61 172.83 138.69 C 172.48 137.77 171.46 137.31 170.54 137.66 L 169.61 138.01 C 168.69 138.36 168.23 139.38 168.57 140.30 C 168.92 141.22 169.94 141.68 170.86 141.33 Z M 171.79 140.98 L 172.74 140.62 C 173.65 140.28 174.12 139.25 173.77 138.34 C 173.43 137.42 172.40 136.96 171.49 137.30 L 170.54 137.66 C 169.63 138.00 169.16 139.02 169.51 139.94 C 169.85 140.86 170.88 141.32 171.79 140.98 Z M 172.73 140.62 L 173.68 140.27 C 174.60 139.93 175.07 138.90 174.72 137.99 C 174.38 137.07 173.36 136.60 172.44 136.95 L 171.49 137.30 C 170.57 137.64 170.11 138.67 170.45 139.58 C 170.79 140.50 171.82 140.97 172.73 140.62 Z M 173.68 140.27 L 174.64 139.91 C 175.55 139.57 176.02 138.55 175.68 137.64 C 175.34 136.72 174.32 136.25 173.40 136.59 L 172.44 136.94 C 171.53 137.29 171.06 138.31 171.40 139.22 C 171.74 140.14 172.76 140.61 173.68 140.27 Z M 174.63 139.92 L 175.59 139.56 C 176.51 139.22 176.98 138.20 176.65 137.29 C 176.31 136.37 175.29 135.90 174.37 136.23 L 173.41 136.59 C 172.49 136.93 172.02 137.95 172.35 138.86 C 172.69 139.78 173.71 140.25 174.63 139.92 Z M 175.59 139.56 L 176.56 139.21 C 177.48 138.87 177.95 137.85 177.61 136.93 C 177.28 136.02 176.26 135.54 175.34 135.88 L 174.37 136.23 C 173.46 136.57 172.98 137.59 173.32 138.51 C 173.66 139.42 174.67 139.90 175.59 139.56 Z M 176.56 139.21 L 177.52 138.86 C 178.44 138.52 178.91 137.50 178.57 136.58 C 178.24 135.67 177.22 135.19 176.30 135.53 L 175.34 135.88 C 174.42 136.22 173.95 137.23 174.29 138.15 C 174.62 139.07 175.64 139.54 176.56 139.21 Z M 177.52 138.85 L 178.47 138.51 C 179.39 138.17 179.86 137.15 179.52 136.24 C 179.19 135.32 178.17 134.85 177.25 135.18 L 176.30 135.53 C 175.38 135.87 174.91 136.88 175.25 137.80 C 175.58 138.72 176.60 139.19 177.52 138.85 Z M 178.47 138.50 L 179.40 138.16 C 180.32 137.82 180.79 136.81 180.45 135.89 C 180.12 134.97 179.10 134.50 178.18 134.84 L 177.25 135.19 C 176.33 135.52 175.86 136.54 176.20 137.46 C 176.54 138.37 177.55 138.84 178.47 138.50 Z M 179.41 138.16 L 180.32 137.82 C 181.24 137.48 181.70 136.46 181.36 135.55 C 181.02 134.63 180.00 134.17 179.09 134.51 L 178.18 134.84 C 177.26 135.18 176.80 136.20 177.14 137.12 C 177.48 138.03 178.50 138.50 179.41 138.16 Z M 180.33 137.81 L 181.21 137.48 C 182.12 137.14 182.58 136.12 182.24 135.21 C 181.89 134.29 180.88 133.83 179.96 134.18 L 179.08 134.51 C 178.17 134.85 177.71 135.87 178.05 136.79 C 178.40 137.70 179.42 138.16 180.33 137.81 Z M 181.22 137.48 L 182.24 137.08 C 183.15 136.73 183.60 135.71 183.25 134.80 C 182.90 133.89 181.88 133.44 180.97 133.79 L 179.95 134.18 C 179.04 134.53 178.59 135.55 178.94 136.46 C 179.29 137.37 180.31 137.83 181.22 137.48 Z M 182.25 137.08 L 183.24 136.68 C 184.15 136.33 184.60 135.31 184.24 134.40 C 183.88 133.50 182.86 133.05 181.96 133.41 L 180.96 133.80 C 180.06 134.15 179.61 135.17 179.97 136.08 C 180.32 136.99 181.35 137.43 182.25 137.08 Z M 183.25 136.68 L 184.20 136.30 C 185.10 135.94 185.54 134.92 185.18 134.02 C 184.82 133.11 183.80 132.68 182.90 133.04 L 181.95 133.41 C 181.05 133.77 180.61 134.80 180.97 135.70 C 181.33 136.60 182.35 137.04 183.25 136.68 Z M 184.20 136.29 L 185.11 135.93 C 186.01 135.57 186.45 134.55 186.08 133.65 C 185.72 132.75 184.70 132.31 183.80 132.68 L 182.89 133.04 C 181.99 133.40 181.56 134.42 181.92 135.32 C 182.28 136.22 183.31 136.66 184.20 136.29 Z M 185.11 135.93 L 185.98 135.57 C 186.88 135.21 187.31 134.19 186.95 133.29 C 186.59 132.40 185.57 131.96 184.67 132.33 L 183.80 132.68 C 182.90 133.04 182.47 134.06 182.83 134.96 C 183.20 135.85 184.22 136.29 185.11 135.93 Z M 185.98 135.57 L 186.82 135.23 C 187.72 134.87 188.15 133.85 187.79 132.96 C 187.43 132.06 186.41 131.63 185.52 131.99 L 184.68 132.33 C 183.78 132.69 183.35 133.71 183.71 134.60 C 184.07 135.50 185.09 135.93 185.98 135.57 Z M 186.81 135.23 L 187.81 134.83 C 188.70 134.48 189.14 133.47 188.79 132.57 C 188.43 131.68 187.42 131.24 186.52 131.60 L 185.52 131.99 C 184.63 132.35 184.19 133.36 184.55 134.26 C 184.90 135.15 185.92 135.59 186.81 135.23 Z M 187.80 134.83 L 188.78 134.45 C 189.68 134.10 190.12 133.09 189.77 132.20 C 189.42 131.30 188.41 130.86 187.52 131.21 L 186.53 131.60 C 185.64 131.95 185.20 132.96 185.55 133.85 C 185.90 134.74 186.91 135.18 187.80 134.83 Z M 188.78 134.45 L 189.71 134.08 C 190.60 133.74 191.05 132.73 190.70 131.84 C 190.36 130.95 189.35 130.51 188.46 130.85 L 187.53 131.21 C 186.63 131.56 186.19 132.56 186.53 133.45 C 186.88 134.35 187.88 134.79 188.78 134.45 Z M 189.70 134.08 L 190.59 133.74 C 191.48 133.40 191.93 132.40 191.58 131.51 C 191.24 130.62 190.24 130.17 189.35 130.51 L 188.47 130.85 C 187.58 131.19 187.13 132.19 187.47 133.08 C 187.81 133.98 188.81 134.42 189.70 134.08 Z M 190.58 133.74 L 191.44 133.41 C 192.33 133.08 192.77 132.08 192.44 131.19 C 192.10 130.30 191.10 129.86 190.21 130.19 L 189.36 130.52 C 188.47 130.86 188.02 131.85 188.36 132.74 C 188.70 133.63 189.69 134.08 190.58 133.74 Z M 191.43 133.41 L 192.42 133.03 C 193.31 132.70 193.76 131.71 193.42 130.82 C 193.09 129.94 192.10 129.49 191.21 129.83 L 190.22 130.20 C 189.34 130.53 188.89 131.52 189.22 132.41 C 189.56 133.29 190.55 133.74 191.43 133.41 Z M 192.42 133.02 L 193.35 132.68 C 194.23 132.35 194.67 131.37 194.34 130.48 C 194.02 129.60 193.03 129.16 192.15 129.49 L 191.22 129.83 C 190.34 130.16 189.89 131.14 190.22 132.02 C 190.55 132.91 191.53 133.35 192.42 133.02 Z M 193.33 132.67 L 194.23 132.34 C 195.11 132.02 195.56 131.04 195.24 130.17 C 194.92 129.29 193.94 128.84 193.07 129.16 L 192.17 129.49 C 191.29 129.82 190.84 130.79 191.16 131.66 C 191.48 132.54 192.46 132.99 193.33 132.67 Z M 194.22 132.33 L 195.31 131.94 C 196.18 131.62 196.64 130.66 196.32 129.79 C 196.01 128.92 195.05 128.46 194.17 128.78 L 193.08 129.17 C 192.21 129.48 191.75 130.44 192.07 131.32 C 192.38 132.19 193.35 132.64 194.22 132.33 Z M 195.28 131.93 L 196.46 131.53 C 197.33 131.23 197.79 130.28 197.49 129.41 C 197.19 128.54 196.24 128.08 195.37 128.38 L 194.20 128.78 C 193.33 129.08 192.87 130.03 193.17 130.90 C 193.47 131.77 194.42 132.23 195.28 131.93 Z M 196.37 131.54 L 196.92 131.38 C 197.80 131.13 198.30 130.22 198.05 129.34 C 197.81 128.47 196.89 127.96 196.02 128.21 L 195.46 128.37 C 194.59 128.62 194.08 129.53 194.33 130.40 C 194.58 131.28 195.49 131.78 196.37 131.54 Z M 195.69 128.39 L 195.29 128.61 C 194.51 129.05 194.24 130.02 194.67 130.80 C 195.10 131.57 196.08 131.85 196.85 131.42 L 197.25 131.20 C 198.03 130.77 198.31 129.79 197.87 129.01 C 197.44 128.24 196.47 127.96 195.69 128.39 Z M 195.39 128.63 L 194.27 129.18 C 193.51 129.56 193.19 130.48 193.57 131.25 C 193.95 132.01 194.87 132.33 195.63 131.95 L 196.75 131.40 C 197.52 131.03 197.83 130.10 197.45 129.34 C 197.08 128.57 196.15 128.26 195.39 128.63 Z M 194.26 129.25 L 193.21 129.80 C 192.48 130.18 192.20 131.09 192.59 131.82 C 192.97 132.55 193.88 132.82 194.61 132.44 L 195.65 131.89 C 196.38 131.50 196.66 130.60 196.27 129.87 C 195.89 129.14 194.99 128.86 194.26 129.25 Z M 193.18 129.84 L 192.34 130.32 C 191.63 130.72 191.38 131.62 191.78 132.32 C 192.18 133.03 193.08 133.28 193.79 132.88 L 194.63 132.40 C 195.34 132.00 195.59 131.10 195.19 130.39 C 194.79 129.69 193.89 129.44 193.18 129.84 Z M 192.32 130.34 L 191.45 130.86 C 190.76 131.26 190.53 132.16 190.94 132.85 C 191.35 133.54 192.24 133.77 192.93 133.36 L 193.80 132.85 C 194.49 132.44 194.72 131.55 194.32 130.86 C 193.91 130.17 193.02 129.94 192.32 130.34 Z M 191.45 130.88 L 190.56 131.41 C 189.88 131.82 189.66 132.71 190.07 133.39 C 190.48 134.07 191.37 134.29 192.05 133.88 L 192.93 133.34 C 193.62 132.93 193.84 132.05 193.43 131.37 C 193.01 130.69 192.13 130.47 191.45 130.88 Z M 190.56 131.42 L 190.06 131.72 C 189.39 132.13 189.17 133.01 189.58 133.69 C 189.99 134.36 190.87 134.58 191.55 134.17 L 192.05 133.87 C 192.72 133.46 192.94 132.58 192.53 131.90 C 192.12 131.23 191.24 131.01 190.56 131.42 Z"
      fill="black"
      fill-rule="nonzero" /></svg>