<svg xmlns="http://www.w3.org/2000/svg" width="300" height="300" viewBox="0 0 300 300">
<path d="M 127.04 144.88 L 126.00 144.88 C 125.14 144.88 124.44 145.58 124.44 146.44 C 124.44 147.30 125.14 148.00 126.00 148.00 L 127.04 148.00 C 127.90 148.00 128.60 147.30 128.60 146.44 C 128.60 145.58 127.90 144.88 127.04 144.88 Z M 126.00 144.87 L 124.98 144.87 C 124.11 144.87 123.41 145.58 123.41 146.44 C 123.41 147.31 124.11 148.01 124.98 148.01 L 126.00 148.01 C 126.87 148.01 127.57 147.31 127.57 146.44 C 127.57 145.58 126.87 144.87 126.00 144.87 Z M 124.98 144.87 L 123.98 144.87 C 123.11 144.87 122.40 145.57 122.40 146.44 C 122.40 147.31 123.11 148.01 123.98 148.01 L 124.98 148.01 C 125.85 148.01 126.55 147.31 126.55 146.44 C 126.55 145.57 125.85 144.87 124.98 144.87 Z M 123.98 144.86 L 123.01 144.86 C 122.14 144.86 121.43 145.57 121.43 146.44 C 121.43 147.31 122.14 148.02 123.01 148.02 L 123.98 148.02 C 124.85 148.02 125.56 147.31 125.56 146.44 C 125.56 145.57 124.85 144.86 123.98 144.86 Z M 123.01 144.85 L 122.02 144.85 C 121.14 144.85 120.43 145.56 120.43 146.44 C 120.43 147.32 121.14 148.03 122.02 148.03 L 123.01 148.03 C 123.89 148.03 124.60 147.32 124.60 146.44 C 124.60 145.56 123.89 144.85 123.01 144.85 Z M 122.01 144.84 L 121.01 144.84 C 120.13 144.85 119.41 145.57 119.42 146.45 C 119.42 147.34 120.14 148.05 121.03 148.05 L 122.03 148.04 C 122.91 148.04 123.63 147.32 123.62 146.43 C 123.62 145.55 122.90 144.84 122.01 144.84 Z M 120.99 144.83 L 120.01 144.84 C 119.12 144.86 118.41 145.59 118.42 146.48 C 118.44 147.38 119.17 148.09 120.06 148.08 L 121.04 148.06 C 121.94 148.05 122.65 147.31 122.63 146.42 C 122.62 145.53 121.89 144.82 120.99 144.83 Z M 119.99 144.83 L 119.00 144.86 C 118.10 144.89 117.39 145.64 117.42 146.54 C 117.45 147.44 118.20 148.15 119.10 148.12 L 120.09 148.09 C 120.99 148.06 121.70 147.31 121.67 146.41 C 121.64 145.51 120.89 144.80 119.99 144.83 Z M 118.95 144.84 L 117.67 144.92 C 116.77 144.97 116.07 145.75 116.12 146.66 C 116.17 147.57 116.95 148.26 117.86 148.21 L 119.14 148.14 C 120.05 148.09 120.75 147.31 120.69 146.40 C 120.64 145.49 119.86 144.79 118.95 144.84 Z M 117.61 144.90 L 116.44 145.01 C 115.52 145.10 114.84 145.92 114.93 146.84 C 115.02 147.76 115.84 148.43 116.76 148.34 L 117.93 148.23 C 118.85 148.14 119.52 147.32 119.44 146.40 C 119.35 145.48 118.53 144.81 117.61 144.90 Z M 116.13 145.04 L 115.70 145.16 C 114.80 145.42 114.27 146.36 114.53 147.27 C 114.79 148.17 115.73 148.69 116.63 148.44 L 117.06 148.31 C 117.97 148.06 118.49 147.11 118.23 146.21 C 117.98 145.31 117.04 144.78 116.13 145.04 Z M 115.84 148.49 L 116.29 148.57 C 117.22 148.76 118.12 148.15 118.30 147.21 C 118.48 146.28 117.87 145.38 116.94 145.20 L 116.49 145.11 C 115.56 144.93 114.66 145.54 114.48 146.47 C 114.30 147.40 114.91 148.31 115.84 148.49 Z M 116.50 148.61 L 117.45 148.67 C 118.41 148.73 119.23 148.01 119.29 147.06 C 119.35 146.10 118.63 145.28 117.67 145.22 L 116.72 145.16 C 115.77 145.10 114.95 145.82 114.89 146.78 C 114.83 147.73 115.55 148.55 116.50 148.61 Z M 117.53 148.68 L 118.75 148.71 C 119.71 148.72 120.50 147.96 120.52 147.01 C 120.54 146.05 119.78 145.25 118.82 145.24 L 117.60 145.21 C 116.64 145.19 115.85 145.95 115.83 146.91 C 115.81 147.87 116.57 148.66 117.53 148.68 Z M 118.82 148.71 L 120.09 148.69 C 121.05 148.67 121.81 147.87 121.79 146.91 C 121.78 145.95 120.98 145.18 120.02 145.20 L 118.75 145.23 C 117.79 145.25 117.03 146.04 117.05 147.01 C 117.07 147.97 117.86 148.73 118.82 148.71 Z M 120.18 148.69 L 121.30 148.60 C 122.26 148.53 122.98 147.69 122.91 146.73 C 122.83 145.77 122.00 145.05 121.03 145.12 L 119.92 145.20 C 118.96 145.28 118.24 146.11 118.31 147.08 C 118.38 148.04 119.22 148.76 120.18 148.69 Z M 121.39 148.59 L 122.38 148.46 C 123.34 148.34 124.01 147.46 123.89 146.50 C 123.76 145.54 122.88 144.87 121.93 145.00 L 120.94 145.13 C 119.98 145.26 119.31 146.13 119.43 147.09 C 119.56 148.05 120.44 148.72 121.39 148.59 Z M 122.46 148.45 L 123.38 148.29 C 124.34 148.12 124.97 147.21 124.80 146.26 C 124.63 145.31 123.72 144.67 122.77 144.84 L 121.85 145.01 C 120.90 145.18 120.26 146.09 120.43 147.04 C 120.60 147.99 121.51 148.62 122.46 148.45 Z M 123.43 148.28 L 124.34 148.10 C 125.28 147.90 125.89 146.98 125.70 146.03 C 125.51 145.08 124.58 144.47 123.63 144.67 L 122.73 144.85 C 121.78 145.04 121.17 145.97 121.36 146.92 C 121.55 147.86 122.48 148.47 123.43 148.28 Z M 124.35 148.09 L 125.29 147.90 C 126.24 147.70 126.84 146.77 126.64 145.82 C 126.44 144.87 125.51 144.27 124.57 144.47 L 123.62 144.67 C 122.68 144.87 122.07 145.80 122.27 146.74 C 122.47 147.69 123.40 148.29 124.35 148.09 Z M 125.30 147.89 L 126.27 147.68 C 127.22 147.48 127.82 146.54 127.61 145.60 C 127.41 144.65 126.47 144.05 125.53 144.26 L 124.56 144.47 C 123.61 144.67 123.01 145.61 123.22 146.55 C 123.42 147.50 124.36 148.10 125.30 147.89 Z M 126.29 147.68 L 127.28 147.45 C 128.23 147.24 128.82 146.30 128.61 145.36 C 128.39 144.41 127.46 143.82 126.51 144.04 L 125.51 144.26 C 124.57 144.47 123.98 145.41 124.19 146.36 C 124.40 147.30 125.34 147.89 126.29 147.68 Z M 127.30 147.45 L 128.29 147.22 C 129.23 147.00 129.81 146.05 129.59 145.11 C 129.37 144.17 128.42 143.58 127.48 143.81 L 126.50 144.04 C 125.55 144.26 124.97 145.21 125.19 146.15 C 125.41 147.09 126.36 147.67 127.30 147.45 Z M 128.30 147.21 L 129.25 146.98 C 130.19 146.75 130.76 145.80 130.53 144.86 C 130.30 143.92 129.35 143.35 128.41 143.58 L 127.46 143.81 C 126.52 144.04 125.95 144.99 126.18 145.93 C 126.41 146.87 127.36 147.45 128.30 147.21 Z M 129.26 146.98 L 130.23 146.73 C 131.17 146.50 131.73 145.54 131.50 144.60 C 131.26 143.66 130.30 143.10 129.37 143.33 L 128.40 143.58 C 127.46 143.82 126.89 144.77 127.13 145.71 C 127.37 146.65 128.32 147.22 129.26 146.98 Z M 130.24 146.73 L 131.22 146.48 C 132.16 146.23 132.72 145.27 132.48 144.34 C 132.24 143.40 131.28 142.84 130.34 143.08 L 129.36 143.34 C 128.42 143.58 127.86 144.54 128.10 145.48 C 128.34 146.41 129.30 146.98 130.24 146.73 Z M 131.23 146.47 L 132.22 146.21 C 133.16 145.97 133.71 145.01 133.47 144.07 C 133.22 143.13 132.26 142.57 131.32 142.82 L 130.33 143.08 C 129.40 143.33 128.84 144.29 129.09 145.23 C 129.33 146.16 130.29 146.72 131.23 146.47 Z M 132.22 146.21 L 133.18 145.96 C 134.11 145.70 134.67 144.74 134.42 143.81 C 134.17 142.87 133.20 142.32 132.27 142.57 L 131.32 142.82 C 130.38 143.07 129.83 144.04 130.08 144.97 C 130.33 145.91 131.29 146.46 132.22 146.21 Z M 133.18 145.95 L 134.15 145.69 C 135.08 145.44 135.63 144.47 135.38 143.54 C 135.12 142.60 134.16 142.05 133.22 142.31 L 132.26 142.57 C 131.33 142.82 130.78 143.79 131.03 144.72 C 131.29 145.66 132.25 146.21 133.18 145.95 Z M 134.15 145.69 L 135.12 145.42 C 136.06 145.16 136.60 144.20 136.34 143.26 C 136.09 142.33 135.12 141.78 134.19 142.04 L 133.22 142.31 C 132.28 142.57 131.74 143.53 132.00 144.47 C 132.25 145.40 133.22 145.95 134.15 145.69 Z M 135.13 145.42 L 136.10 145.14 C 137.04 144.88 137.58 143.91 137.31 142.98 C 137.05 142.05 136.08 141.50 135.15 141.77 L 134.18 142.04 C 133.25 142.31 132.70 143.28 132.97 144.21 C 133.23 145.14 134.20 145.68 135.13 145.42 Z M 136.11 145.14 L 137.08 144.86 C 138.01 144.59 138.54 143.62 138.27 142.69 C 138.00 141.76 137.03 141.22 136.10 141.49 L 135.14 141.77 C 134.21 142.04 133.67 143.01 133.94 143.94 C 134.21 144.87 135.18 145.41 136.11 145.14 Z M 137.09 144.86 L 138.04 144.58 C 138.97 144.30 139.50 143.33 139.23 142.40 C 138.95 141.47 137.98 140.94 137.05 141.21 L 136.09 141.50 C 135.16 141.77 134.63 142.75 134.91 143.67 C 135.18 144.60 136.16 145.13 137.09 144.86 Z M 138.05 144.57 L 139.01 144.28 C 139.94 144.00 140.46 143.02 140.18 142.10 C 139.90 141.17 138.92 140.65 138.00 140.93 L 137.04 141.22 C 136.11 141.50 135.59 142.48 135.87 143.40 C 136.15 144.33 137.13 144.85 138.05 144.57 Z M 139.02 144.28 L 139.98 143.98 C 140.90 143.70 141.42 142.72 141.13 141.79 C 140.85 140.87 139.87 140.35 138.94 140.63 L 137.99 140.93 C 137.06 141.22 136.54 142.20 136.83 143.12 C 137.11 144.05 138.10 144.57 139.02 144.28 Z M 139.99 143.98 L 140.94 143.68 C 141.86 143.39 142.38 142.40 142.09 141.48 C 141.79 140.56 140.81 140.04 139.89 140.34 L 138.93 140.64 C 138.01 140.93 137.50 141.91 137.79 142.84 C 138.08 143.76 139.06 144.27 139.99 143.98 Z M 140.95 143.68 L 141.89 143.37 C 142.81 143.08 143.32 142.09 143.02 141.17 C 142.72 140.25 141.74 139.74 140.82 140.04 L 139.88 140.34 C 138.96 140.64 138.45 141.62 138.75 142.54 C 139.04 143.46 140.03 143.97 140.95 143.68 Z M 141.89 143.37 L 142.84 143.06 C 143.76 142.77 144.26 141.78 143.96 140.86 C 143.66 139.94 142.67 139.43 141.75 139.73 L 140.81 140.04 C 139.89 140.34 139.39 141.33 139.69 142.25 C 139.99 143.17 140.97 143.67 141.89 143.37 Z M 142.84 143.06 L 143.79 142.75 C 144.71 142.45 145.21 141.47 144.91 140.55 C 144.61 139.63 143.62 139.13 142.70 139.42 L 141.75 139.73 C 140.83 140.03 140.33 141.02 140.63 141.94 C 140.93 142.86 141.92 143.36 142.84 143.06 Z M 143.78 142.75 L 144.75 142.44 C 145.67 142.15 146.17 141.16 145.88 140.24 C 145.58 139.32 144.59 138.82 143.67 139.11 L 142.71 139.42 C 141.79 139.72 141.28 140.71 141.58 141.63 C 141.88 142.55 142.87 143.05 143.78 142.75 Z M 144.74 142.44 L 145.71 142.14 C 146.63 141.84 147.14 140.86 146.84 139.94 C 146.55 139.02 145.57 138.51 144.65 138.80 L 143.68 139.11 C 142.76 139.40 142.25 140.39 142.54 141.31 C 142.84 142.23 143.82 142.74 144.74 142.44 Z M 145.70 142.14 L 146.67 141.83 C 147.59 141.54 148.10 140.56 147.81 139.64 C 147.52 138.72 146.54 138.21 145.62 138.50 L 144.65 138.80 C 143.73 139.09 143.22 140.07 143.51 140.99 C 143.80 141.91 144.78 142.43 145.70 142.14 Z M 146.66 141.83 L 147.63 141.53 C 148.55 141.24 149.06 140.26 148.78 139.34 C 148.49 138.42 147.51 137.91 146.59 138.20 L 145.62 138.50 C 144.70 138.79 144.19 139.77 144.47 140.69 C 144.76 141.61 145.74 142.12 146.66 141.83 Z M 147.63 141.53 L 148.59 141.23 C 149.51 140.95 150.02 139.97 149.73 139.04 C 149.45 138.12 148.47 137.61 147.55 137.90 L 146.59 138.20 C 145.67 138.48 145.15 139.46 145.44 140.38 C 145.73 141.31 146.71 141.82 147.63 141.53 Z M 148.59 141.23 L 149.53 140.94 C 150.45 140.65 150.96 139.67 150.67 138.75 C 150.38 137.83 149.40 137.32 148.48 137.61 L 147.54 137.90 C 146.62 138.19 146.11 139.17 146.40 140.09 C 146.69 141.01 147.67 141.52 148.59 141.23 Z M 149.53 140.93 L 150.50 140.62 C 151.42 140.33 151.93 139.35 151.64 138.43 C 151.34 137.51 150.36 137.01 149.44 137.30 L 148.47 137.61 C 147.55 137.90 147.05 138.88 147.34 139.80 C 147.63 140.72 148.61 141.23 149.53 140.93 Z M 150.51 140.62 L 151.48 140.31 C 152.39 140.01 152.89 139.03 152.60 138.11 C 152.30 137.20 151.32 136.69 150.40 136.99 L 149.44 137.30 C 148.52 137.60 148.02 138.58 148.32 139.50 C 148.61 140.41 149.59 140.91 150.51 140.62 Z M 151.47 140.30 L 152.42 140.00 C 153.33 139.70 153.83 138.72 153.54 137.81 C 153.24 136.89 152.26 136.39 151.35 136.69 L 150.40 136.99 C 149.49 137.29 148.99 138.27 149.28 139.18 C 149.58 140.10 150.56 140.60 151.47 140.30 Z M 152.41 140.00 L 153.34 139.70 C 154.26 139.41 154.76 138.43 154.47 137.52 C 154.18 136.60 153.20 136.10 152.28 136.39 L 151.35 136.69 C 150.44 136.98 149.94 137.96 150.23 138.87 C 150.52 139.79 151.50 140.29 152.41 140.00 Z M 153.33 139.70 L 154.27 139.41 C 155.18 139.12 155.69 138.15 155.41 137.23 C 155.12 136.32 154.15 135.81 153.24 136.10 L 152.30 136.39 C 151.38 136.68 150.87 137.65 151.16 138.56 C 151.44 139.48 152.42 139.98 153.33 139.70 Z M 154.26 139.41 L 155.21 139.12 C 156.13 138.84 156.65 137.87 156.37 136.96 C 156.09 136.04 155.13 135.53 154.21 135.80 L 153.25 136.10 C 152.34 136.37 151.82 137.34 152.10 138.25 C 152.38 139.17 153.34 139.68 154.26 139.41 Z M 155.20 139.12 L 156.16 138.83 C 157.08 138.56 157.60 137.60 157.33 136.69 C 157.06 135.77 156.10 135.25 155.19 135.52 L 154.23 135.80 C 153.31 136.07 152.79 137.03 153.06 137.95 C 153.33 138.86 154.29 139.39 155.20 139.12 Z M 156.15 138.83 L 157.11 138.56 C 158.03 138.29 158.56 137.34 158.29 136.43 C 158.03 135.51 157.08 134.98 156.16 135.24 L 155.20 135.52 C 154.28 135.78 153.76 136.74 154.02 137.65 C 154.28 138.57 155.24 139.10 156.15 138.83 Z M 157.10 138.56 L 158.06 138.29 C 158.98 138.03 159.51 137.08 159.25 136.17 C 158.99 135.25 158.05 134.72 157.13 134.98 L 156.17 135.25 C 155.26 135.50 154.72 136.45 154.98 137.37 C 155.24 138.28 156.19 138.81 157.10 138.56 Z M 158.05 138.29 L 159.02 138.02 C 159.94 137.77 160.47 136.82 160.22 135.91 C 159.97 135.00 159.03 134.46 158.11 134.71 L 157.14 134.98 C 156.23 135.23 155.69 136.17 155.94 137.09 C 156.19 138.00 157.14 138.54 158.05 138.29 Z M 159.01 138.01 L 159.98 137.75 C 160.89 137.51 161.43 136.57 161.18 135.65 C 160.94 134.74 160.00 134.20 159.09 134.45 L 158.12 134.71 C 157.21 134.96 156.67 135.90 156.92 136.81 C 157.16 137.72 158.10 138.26 159.01 138.01 Z M 159.97 137.75 L 160.94 137.49 C 161.85 137.25 162.39 136.31 162.14 135.40 C 161.90 134.49 160.96 133.95 160.05 134.20 L 159.09 134.46 C 158.18 134.70 157.64 135.63 157.89 136.54 C 158.13 137.45 159.07 137.99 159.97 137.75 Z M 160.93 137.49 L 161.89 137.23 C 162.80 136.99 163.34 136.06 163.10 135.15 C 162.86 134.24 161.92 133.70 161.02 133.95 L 160.06 134.20 C 159.15 134.44 158.61 135.38 158.85 136.28 C 159.09 137.19 160.03 137.73 160.93 137.49 Z M 161.89 137.23 L 162.87 136.96 C 163.78 136.72 164.32 135.79 164.07 134.89 C 163.83 133.99 162.91 133.45 162.00 133.69 L 161.02 133.95 C 160.11 134.19 159.58 135.12 159.82 136.02 C 160.06 136.93 160.99 137.47 161.89 137.23 Z M 162.87 136.96 L 163.85 136.70 C 164.75 136.46 165.28 135.53 165.04 134.63 C 164.80 133.73 163.88 133.20 162.98 133.43 L 162.00 133.69 C 161.10 133.93 160.57 134.86 160.81 135.76 C 161.05 136.66 161.97 137.20 162.87 136.96 Z M 163.84 136.69 L 164.81 136.44 C 165.71 136.20 166.24 135.28 166.00 134.38 C 165.76 133.48 164.84 132.95 163.95 133.18 L 162.98 133.44 C 162.08 133.68 161.55 134.60 161.79 135.50 C 162.03 136.40 162.95 136.93 163.84 136.69 Z M 164.80 136.43 L 165.75 136.18 C 166.65 135.95 167.18 135.03 166.94 134.13 C 166.71 133.24 165.79 132.70 164.89 132.94 L 163.95 133.19 C 163.05 133.43 162.52 134.34 162.76 135.24 C 162.99 136.13 163.91 136.67 164.80 136.43 Z M 165.74 136.18 L 166.63 135.95 C 167.52 135.71 168.05 134.80 167.82 133.91 C 167.59 133.02 166.67 132.48 165.78 132.72 L 164.90 132.95 C 164.01 133.18 163.47 134.09 163.71 134.98 C 163.94 135.88 164.85 136.41 165.74 136.18 Z M 166.61 135.94 L 167.51 135.72 C 168.40 135.49 168.94 134.59 168.72 133.70 C 168.49 132.81 167.59 132.27 166.70 132.49 L 165.80 132.72 C 164.91 132.94 164.37 133.85 164.59 134.74 C 164.82 135.63 165.72 136.17 166.61 135.94 Z M 167.49 135.71 L 168.46 135.48 C 169.35 135.27 169.90 134.38 169.69 133.49 C 169.47 132.60 168.58 132.05 167.69 132.26 L 166.72 132.49 C 165.83 132.70 165.28 133.60 165.50 134.49 C 165.71 135.38 166.60 135.93 167.49 135.71 Z M 168.43 135.48 L 169.51 135.24 C 170.40 135.05 170.96 134.17 170.76 133.28 C 170.57 132.39 169.69 131.83 168.80 132.02 L 167.72 132.26 C 166.83 132.46 166.27 133.34 166.46 134.23 C 166.66 135.12 167.54 135.68 168.43 135.48 Z M 169.49 135.24 L 170.46 135.04 C 171.35 134.86 171.92 133.99 171.74 133.10 C 171.56 132.21 170.69 131.64 169.80 131.82 L 168.82 132.02 C 167.93 132.21 167.36 133.08 167.55 133.96 C 167.73 134.85 168.60 135.43 169.49 135.24 Z M 170.44 135.04 L 171.40 134.85 C 172.29 134.68 172.87 133.82 172.70 132.94 C 172.53 132.05 171.67 131.47 170.78 131.64 L 169.82 131.83 C 168.93 132.00 168.35 132.86 168.53 133.74 C 168.70 134.63 169.56 135.21 170.44 135.04 Z M 171.38 134.85 L 172.39 134.67 C 173.28 134.51 173.87 133.66 173.70 132.77 C 173.54 131.89 172.70 131.30 171.81 131.46 L 170.80 131.64 C 169.92 131.80 169.33 132.65 169.49 133.54 C 169.65 134.42 170.50 135.01 171.38 134.85 Z M 172.37 134.67 L 173.39 134.50 C 174.28 134.35 174.88 133.51 174.73 132.62 C 174.58 131.74 173.74 131.14 172.86 131.29 L 171.83 131.46 C 170.94 131.61 170.35 132.45 170.50 133.33 C 170.64 134.22 171.48 134.82 172.37 134.67 Z M 173.37 134.50 L 174.38 134.34 C 175.27 134.21 175.88 133.38 175.74 132.50 C 175.61 131.61 174.78 131.00 173.90 131.14 L 172.88 131.29 C 172.00 131.43 171.39 132.25 171.52 133.14 C 171.66 134.02 172.48 134.63 173.37 134.50 Z M 174.35 134.34 L 175.34 134.21 C 176.22 134.09 176.84 133.28 176.73 132.39 C 176.61 131.51 175.80 130.89 174.91 131.01 L 173.93 131.14 C 173.04 131.26 172.42 132.07 172.54 132.95 C 172.66 133.84 173.47 134.46 174.35 134.34 Z M 175.29 134.20 L 176.65 134.06 C 177.53 133.98 178.18 133.19 178.09 132.31 C 178.00 131.43 177.21 130.79 176.33 130.87 L 174.96 131.01 C 174.08 131.10 173.44 131.89 173.53 132.77 C 173.62 133.65 174.41 134.29 175.29 134.20 Z M 176.55 134.05 L 177.74 134.01 C 178.61 133.97 179.29 133.24 179.26 132.36 C 179.22 131.49 178.49 130.81 177.61 130.84 L 176.43 130.89 C 175.56 130.92 174.87 131.66 174.91 132.53 C 174.94 133.41 175.68 134.09 176.55 134.05 Z M 177.52 133.98 L 178.35 134.06 C 179.21 134.15 179.97 133.52 180.06 132.66 C 180.14 131.80 179.51 131.03 178.65 130.95 L 177.83 130.87 C 176.97 130.78 176.20 131.41 176.12 132.27 C 176.03 133.13 176.66 133.90 177.52 133.98 Z M 177.62 133.77 L 177.99 134.03 C 178.69 134.51 179.65 134.34 180.13 133.64 C 180.62 132.94 180.45 131.98 179.75 131.49 L 179.38 131.24 C 178.68 130.75 177.72 130.93 177.23 131.62 C 176.75 132.32 176.92 133.29 177.62 133.77 Z M 177.55 132.02 L 177.23 132.59 C 176.83 133.32 177.09 134.24 177.82 134.64 C 178.54 135.05 179.46 134.79 179.87 134.06 L 180.19 133.49 C 180.59 132.77 180.33 131.85 179.60 131.44 C 178.87 131.03 177.95 131.29 177.55 132.02 Z M 177.60 132.20 L 176.72 132.95 C 176.10 133.47 176.02 134.40 176.55 135.02 C 177.07 135.64 178.00 135.72 178.62 135.19 L 179.50 134.45 C 180.12 133.92 180.20 132.99 179.67 132.37 C 179.15 131.75 178.22 131.68 177.60 132.20 Z M 176.81 132.92 L 176.19 133.38 C 175.55 133.86 175.42 134.76 175.89 135.40 C 176.37 136.03 177.27 136.16 177.91 135.69 L 178.53 135.22 C 179.17 134.75 179.30 133.84 178.82 133.21 C 178.35 132.57 177.45 132.44 176.81 132.92 Z"
      fill="black"
      fill-rule="nonzero" /><path d="M 150.92 116.56 L 150.76 117.51 C 150.62 118.36 151.20 119.15 152.04 119.29 C 152.88 119.43 153.68 118.85 153.81 118.01 L 153.97 117.06 C 154.11 116.21 153.53 115.42 152.69 115.28 C 151.85 115.14 151.05 115.72 150.92 116.56 Z M 150.74 117.50 L 150.58 118.46 C 150.43 119.32 151.01 120.13 151.86 120.27 C 152.72 120.42 153.52 119.84 153.67 118.99 L 153.83 118.02 C 153.98 117.17 153.40 116.36 152.55 116.22 C 151.69 116.07 150.89 116.65 150.74 117.50 Z M 150.56 118.44 L 150.38 119.42 C 150.22 120.29 150.79 121.12 151.66 121.27 C 152.52 121.43 153.35 120.86 153.51 120.00 L 153.69 119.01 C 153.84 118.15 153.27 117.32 152.41 117.16 C 151.55 117.01 150.72 117.58 150.56 118.44 Z M 150.37 119.39 L 150.16 120.41 C 149.98 121.28 150.55 122.13 151.42 122.30 C 152.29 122.48 153.14 121.92 153.32 121.04 L 153.52 120.03 C 153.70 119.16 153.13 118.31 152.26 118.13 C 151.39 117.96 150.54 118.52 150.37 119.39 Z M 150.16 120.37 L 149.93 121.37 C 149.73 122.25 150.28 123.11 151.16 123.31 C 152.03 123.51 152.90 122.96 153.10 122.08 L 153.32 121.08 C 153.52 120.21 152.97 119.34 152.09 119.14 C 151.22 118.95 150.35 119.50 150.16 120.37 Z M 149.94 121.34 L 149.69 122.34 C 149.48 123.21 150.01 124.09 150.88 124.30 C 151.75 124.52 152.63 123.99 152.84 123.12 L 153.09 122.11 C 153.30 121.24 152.77 120.37 151.90 120.15 C 151.03 119.94 150.15 120.47 149.94 121.34 Z M 149.70 122.32 L 149.44 123.31 C 149.22 124.17 149.73 125.06 150.60 125.29 C 151.46 125.51 152.34 125.00 152.57 124.13 L 152.83 123.14 C 153.06 122.28 152.54 121.39 151.68 121.16 C 150.81 120.94 149.93 121.45 149.70 122.32 Z M 149.45 123.29 L 149.19 124.25 C 148.95 125.10 149.45 125.99 150.31 126.23 C 151.17 126.47 152.06 125.97 152.30 125.11 L 152.56 124.15 C 152.80 123.30 152.30 122.41 151.44 122.17 C 150.58 121.93 149.69 122.43 149.45 123.29 Z M 149.20 124.22 L 148.93 125.14 C 148.68 125.99 149.17 126.89 150.02 127.14 C 150.87 127.39 151.77 126.90 152.02 126.05 L 152.29 125.13 C 152.54 124.28 152.05 123.38 151.19 123.13 C 150.34 122.88 149.45 123.37 149.20 124.22 Z M 148.94 125.11 L 148.62 126.14 C 148.36 126.98 148.83 127.88 149.67 128.15 C 150.52 128.41 151.42 127.94 151.69 127.09 L 152.00 126.07 C 152.27 125.22 151.80 124.32 150.95 124.06 C 150.10 123.80 149.20 124.27 148.94 125.11 Z M 148.63 126.11 L 148.32 127.05 C 148.04 127.89 148.50 128.79 149.34 129.07 C 150.18 129.35 151.08 128.90 151.36 128.06 L 151.67 127.12 C 151.95 126.28 151.50 125.37 150.66 125.09 C 149.82 124.82 148.91 125.27 148.63 126.11 Z M 148.33 127.02 L 148.02 127.92 C 147.73 128.76 148.17 129.67 149.00 129.96 C 149.83 130.25 150.75 129.81 151.04 128.98 L 151.35 128.08 C 151.64 127.24 151.20 126.33 150.37 126.04 C 149.54 125.75 148.62 126.19 148.33 127.02 Z M 148.03 127.91 L 147.71 128.80 C 147.41 129.63 147.84 130.55 148.67 130.84 C 149.50 131.14 150.41 130.71 150.71 129.88 L 151.03 128.99 C 151.33 128.16 150.90 127.25 150.07 126.95 C 149.24 126.65 148.33 127.08 148.03 127.91 Z M 147.71 128.80 L 147.38 129.70 C 147.08 130.53 147.50 131.44 148.33 131.75 C 149.15 132.05 150.07 131.62 150.37 130.80 L 150.70 129.89 C 151.00 129.06 150.58 128.15 149.75 127.85 C 148.93 127.55 148.01 127.97 147.71 128.80 Z M 147.38 129.70 L 147.03 130.64 C 146.73 131.46 147.15 132.37 147.97 132.68 C 148.79 132.99 149.71 132.57 150.01 131.75 L 150.37 130.81 C 150.67 129.98 150.25 129.07 149.43 128.76 C 148.61 128.45 147.69 128.87 147.38 129.70 Z M 147.04 130.63 L 146.67 131.60 C 146.36 132.42 146.77 133.34 147.59 133.65 C 148.41 133.96 149.33 133.55 149.64 132.73 L 150.01 131.76 C 150.32 130.94 149.91 130.02 149.09 129.71 C 148.27 129.39 147.35 129.81 147.04 130.63 Z M 146.68 131.59 L 146.32 132.52 C 146.00 133.33 146.41 134.25 147.22 134.57 C 148.04 134.89 148.96 134.48 149.28 133.66 L 149.64 132.74 C 149.95 131.92 149.55 131.00 148.73 130.68 C 147.91 130.37 146.99 130.77 146.68 131.59 Z M 146.32 132.51 L 145.96 133.42 C 145.64 134.24 146.04 135.16 146.86 135.48 C 147.67 135.80 148.59 135.40 148.91 134.58 L 149.27 133.67 C 149.59 132.85 149.19 131.93 148.38 131.61 C 147.56 131.29 146.64 131.69 146.32 132.51 Z M 145.97 133.42 L 145.60 134.35 C 145.27 135.16 145.67 136.08 146.48 136.40 C 147.30 136.73 148.22 136.33 148.54 135.52 L 148.91 134.59 C 149.23 133.77 148.84 132.85 148.02 132.53 C 147.21 132.21 146.29 132.60 145.97 133.42 Z M 145.60 134.35 L 145.22 135.29 C 144.90 136.10 145.29 137.02 146.10 137.35 C 146.91 137.67 147.83 137.28 148.15 136.47 L 148.53 135.52 C 148.86 134.71 148.47 133.79 147.66 133.47 C 146.85 133.14 145.93 133.54 145.60 134.35 Z M 145.22 135.29 L 144.85 136.23 C 144.52 137.03 144.91 137.95 145.72 138.28 C 146.53 138.61 147.45 138.21 147.77 137.41 L 148.15 136.47 C 148.48 135.66 148.09 134.74 147.28 134.42 C 146.47 134.09 145.55 134.48 145.22 135.29 Z M 144.85 136.23 L 144.48 137.13 C 144.16 137.94 144.55 138.86 145.35 139.18 C 146.16 139.51 147.08 139.12 147.41 138.31 L 147.77 137.41 C 148.10 136.60 147.71 135.68 146.90 135.35 C 146.09 135.03 145.18 135.42 144.85 136.23 Z M 144.49 137.13 L 144.11 138.05 C 143.79 138.86 144.18 139.77 144.98 140.10 C 145.79 140.43 146.71 140.04 147.03 139.23 L 147.40 138.31 C 147.73 137.51 147.34 136.59 146.54 136.26 C 145.73 135.94 144.81 136.33 144.49 137.13 Z M 144.12 138.05 L 143.74 138.99 C 143.41 139.79 143.80 140.71 144.60 141.04 C 145.41 141.36 146.33 140.97 146.65 140.17 L 147.03 139.23 C 147.35 138.43 146.97 137.51 146.16 137.19 C 145.36 136.86 144.44 137.25 144.12 138.05 Z M 143.74 138.99 L 143.35 139.94 C 143.03 140.75 143.42 141.66 144.22 141.99 C 145.02 142.31 145.94 141.92 146.26 141.12 L 146.65 140.17 C 146.97 139.36 146.58 138.45 145.78 138.12 C 144.98 137.80 144.06 138.19 143.74 138.99 Z M 143.36 139.95 L 142.98 140.87 C 142.66 141.68 143.05 142.59 143.85 142.91 C 144.65 143.24 145.57 142.85 145.89 142.04 L 146.26 141.12 C 146.59 140.31 146.20 139.40 145.39 139.08 C 144.59 138.76 143.68 139.14 143.36 139.95 Z M 142.98 140.88 L 142.61 141.81 C 142.29 142.61 142.68 143.52 143.48 143.84 C 144.28 144.16 145.19 143.78 145.51 142.97 L 145.89 142.04 C 146.21 141.24 145.82 140.33 145.02 140.01 C 144.22 139.68 143.31 140.07 142.98 140.88 Z M 142.61 141.81 L 142.24 142.74 C 141.91 143.54 142.30 144.45 143.10 144.78 C 143.91 145.10 144.82 144.71 145.14 143.91 L 145.51 142.97 C 145.83 142.17 145.45 141.26 144.64 140.94 C 143.84 140.62 142.93 141.01 142.61 141.81 Z M 142.24 142.74 L 141.86 143.67 C 141.54 144.47 141.93 145.38 142.73 145.70 C 143.53 146.03 144.44 145.64 144.76 144.84 L 145.14 143.91 C 145.46 143.11 145.07 142.20 144.27 141.87 C 143.47 141.55 142.56 141.94 142.24 142.74 Z M 141.86 143.67 L 141.49 144.59 C 141.17 145.39 141.56 146.30 142.36 146.62 C 143.16 146.95 144.07 146.56 144.39 145.76 L 144.76 144.84 C 145.08 144.04 144.69 143.13 143.89 142.81 C 143.10 142.49 142.19 142.87 141.86 143.67 Z M 141.50 144.59 L 141.11 145.55 C 140.79 146.35 141.17 147.26 141.97 147.58 C 142.77 147.90 143.68 147.51 144.00 146.72 L 144.39 145.76 C 144.71 144.96 144.32 144.05 143.52 143.73 C 142.73 143.41 141.82 143.80 141.50 144.59 Z M 141.11 145.55 L 140.73 146.49 C 140.41 147.29 140.79 148.19 141.59 148.52 C 142.39 148.84 143.30 148.45 143.62 147.66 L 144.00 146.72 C 144.32 145.92 143.94 145.01 143.14 144.69 C 142.34 144.37 141.43 144.75 141.11 145.55 Z M 140.73 146.49 L 140.36 147.41 C 140.04 148.21 140.42 149.12 141.22 149.44 C 142.02 149.76 142.92 149.38 143.24 148.58 L 143.62 147.66 C 143.94 146.86 143.56 145.95 142.76 145.63 C 141.96 145.31 141.06 145.69 140.73 146.49 Z M 140.36 147.41 L 139.99 148.32 C 139.67 149.12 140.06 150.02 140.85 150.34 C 141.65 150.67 142.55 150.28 142.88 149.49 L 143.24 148.58 C 143.57 147.78 143.18 146.88 142.38 146.55 C 141.59 146.23 140.68 146.62 140.36 147.41 Z M 140.00 148.32 L 139.62 149.25 C 139.30 150.04 139.69 150.95 140.48 151.27 C 141.28 151.59 142.18 151.20 142.50 150.41 L 142.88 149.48 C 143.20 148.69 142.81 147.78 142.02 147.46 C 141.22 147.14 140.32 147.53 140.00 148.32 Z M 139.62 149.25 L 139.24 150.20 C 138.92 151.00 139.31 151.90 140.10 152.22 C 140.90 152.54 141.80 152.15 142.12 151.36 L 142.50 150.40 C 142.82 149.61 142.44 148.71 141.64 148.39 C 140.85 148.07 139.94 148.45 139.62 149.25 Z M 139.24 150.21 L 138.87 151.14 C 138.55 151.94 138.94 152.84 139.73 153.15 C 140.53 153.47 141.43 153.08 141.75 152.29 L 142.12 151.35 C 142.44 150.56 142.05 149.66 141.25 149.34 C 140.46 149.02 139.56 149.41 139.24 150.21 Z M 138.87 151.15 L 138.51 152.06 C 138.19 152.86 138.58 153.76 139.38 154.07 C 140.18 154.38 141.07 153.99 141.39 153.20 L 141.75 152.28 C 142.06 151.49 141.67 150.59 140.88 150.27 C 140.08 149.96 139.18 150.35 138.87 151.15 Z M 138.51 152.07 L 138.15 152.98 C 137.84 153.78 138.24 154.67 139.03 154.98 C 139.83 155.29 140.73 154.90 141.04 154.10 L 141.39 153.19 C 141.70 152.39 141.30 151.50 140.51 151.19 C 139.71 150.88 138.81 151.27 138.51 152.07 Z M 138.15 152.99 L 137.78 153.96 C 137.48 154.76 137.88 155.65 138.68 155.95 C 139.47 156.26 140.37 155.86 140.67 155.06 L 141.04 154.09 C 141.34 153.29 140.94 152.40 140.14 152.10 C 139.35 151.79 138.45 152.19 138.15 152.99 Z M 137.78 153.97 L 137.43 154.91 C 137.13 155.71 137.54 156.60 138.34 156.90 C 139.14 157.19 140.03 156.79 140.32 155.99 L 140.67 155.04 C 140.97 154.25 140.56 153.36 139.76 153.06 C 138.96 152.76 138.08 153.17 137.78 153.97 Z M 137.42 154.93 L 137.09 155.85 C 136.80 156.65 137.22 157.53 138.02 157.82 C 138.82 158.11 139.71 157.70 140.00 156.89 L 140.33 155.97 C 140.62 155.17 140.20 154.29 139.40 154.00 C 138.60 153.71 137.71 154.13 137.42 154.93 Z M 137.09 155.86 L 136.78 156.76 C 136.50 157.57 136.92 158.45 137.72 158.73 C 138.53 159.01 139.41 158.58 139.69 157.78 L 140.00 156.88 C 140.28 156.07 139.85 155.20 139.05 154.92 C 138.25 154.64 137.37 155.06 137.09 155.86 Z M 136.77 156.79 L 136.48 157.68 C 136.21 158.49 136.65 159.36 137.46 159.62 C 138.27 159.89 139.14 159.45 139.40 158.64 L 139.69 157.75 C 139.96 156.94 139.52 156.07 138.71 155.81 C 137.90 155.54 137.03 155.98 136.77 156.79 Z M 136.46 157.72 L 136.19 158.65 C 135.95 159.47 136.41 160.32 137.23 160.56 C 138.04 160.81 138.90 160.34 139.14 159.52 L 139.42 158.60 C 139.66 157.78 139.19 156.92 138.38 156.68 C 137.56 156.44 136.70 156.91 136.46 157.72 Z M 136.17 158.71 L 135.91 159.72 C 135.70 160.54 136.20 161.38 137.03 161.59 C 137.85 161.80 138.69 161.30 138.90 160.48 L 139.16 159.47 C 139.36 158.64 138.87 157.81 138.04 157.60 C 137.22 157.39 136.38 157.88 136.17 158.71 Z M 135.90 159.78 L 135.68 160.80 C 135.51 161.63 136.04 162.45 136.87 162.63 C 137.70 162.80 138.52 162.27 138.69 161.44 L 138.91 160.42 C 139.09 159.59 138.56 158.77 137.73 158.59 C 136.90 158.42 136.08 158.95 135.90 159.78 Z M 135.67 160.85 L 135.50 161.83 C 135.35 162.66 135.91 163.46 136.74 163.61 C 137.58 163.76 138.38 163.21 138.53 162.37 L 138.70 161.39 C 138.85 160.56 138.30 159.76 137.46 159.61 C 136.62 159.46 135.82 160.01 135.67 160.85 Z M 135.49 161.87 L 135.34 162.88 C 135.21 163.72 135.79 164.51 136.63 164.64 C 137.47 164.76 138.25 164.19 138.38 163.35 L 138.53 162.33 C 138.66 161.49 138.08 160.70 137.24 160.58 C 136.40 160.45 135.62 161.03 135.49 161.87 Z M 135.33 162.93 L 135.21 163.95 C 135.10 164.79 135.70 165.56 136.54 165.66 C 137.39 165.77 138.15 165.17 138.26 164.33 L 138.38 163.30 C 138.49 162.46 137.89 161.69 137.05 161.59 C 136.21 161.48 135.44 162.08 135.33 162.93 Z M 135.20 164.00 L 135.11 164.99 C 135.03 165.83 135.65 166.58 136.50 166.66 C 137.34 166.74 138.09 166.12 138.17 165.27 L 138.26 164.28 C 138.34 163.44 137.72 162.69 136.87 162.61 C 136.03 162.53 135.28 163.15 135.20 164.00 Z M 135.10 165.05 L 135.05 166.09 C 135.01 166.94 135.66 167.67 136.50 167.71 C 137.35 167.75 138.08 167.10 138.12 166.25 L 138.17 165.21 C 138.22 164.36 137.57 163.64 136.72 163.59 C 135.87 163.55 135.15 164.20 135.10 165.05 Z M 135.05 166.20 L 135.07 167.24 C 135.08 168.09 135.78 168.77 136.63 168.75 C 137.48 168.74 138.16 168.04 138.14 167.19 L 138.12 166.15 C 138.11 165.30 137.41 164.62 136.56 164.64 C 135.71 164.65 135.03 165.35 135.05 166.20 Z M 135.08 167.41 L 135.20 168.37 C 135.31 169.21 136.08 169.81 136.92 169.70 C 137.76 169.59 138.36 168.82 138.25 167.98 L 138.13 167.02 C 138.02 166.17 137.25 165.58 136.41 165.69 C 135.56 165.79 134.97 166.57 135.08 167.41 Z M 135.24 168.58 L 135.49 169.49 C 135.72 170.31 136.57 170.79 137.39 170.56 C 138.20 170.34 138.69 169.49 138.46 168.67 L 138.21 167.76 C 137.98 166.94 137.14 166.46 136.32 166.69 C 135.50 166.91 135.02 167.76 135.24 168.58 Z M 135.57 169.71 L 135.94 170.54 C 136.29 171.32 137.20 171.67 137.98 171.32 C 138.75 170.98 139.10 170.06 138.76 169.29 L 138.38 168.45 C 138.04 167.67 137.13 167.33 136.35 167.67 C 135.57 168.02 135.22 168.93 135.57 169.71 Z M 136.03 170.71 L 136.51 171.51 C 136.94 172.24 137.89 172.47 138.62 172.03 C 139.35 171.60 139.59 170.65 139.15 169.92 L 138.67 169.12 C 138.23 168.39 137.28 168.15 136.55 168.59 C 135.82 169.03 135.59 169.98 136.03 170.71 Z M 136.58 171.62 L 137.16 172.42 C 137.66 173.11 138.63 173.27 139.32 172.77 C 140.01 172.26 140.16 171.30 139.66 170.61 L 139.08 169.80 C 138.58 169.11 137.61 168.96 136.92 169.46 C 136.23 169.96 136.07 170.93 136.58 171.62 Z M 137.21 172.50 L 137.88 173.31 C 138.42 173.98 139.40 174.07 140.06 173.53 C 140.72 172.99 140.82 172.01 140.28 171.35 L 139.61 170.53 C 139.07 169.87 138.09 169.77 137.43 170.32 C 136.77 170.86 136.67 171.83 137.21 172.50 Z M 137.91 173.36 L 138.62 174.16 C 139.19 174.80 140.17 174.87 140.81 174.30 C 141.46 173.74 141.52 172.76 140.95 172.11 L 140.24 171.31 C 139.68 170.66 138.70 170.60 138.05 171.17 C 137.41 171.73 137.35 172.71 137.91 173.36 Z M 138.64 174.18 L 139.28 174.89 C 139.86 175.52 140.84 175.57 141.48 174.99 C 142.11 174.41 142.16 173.43 141.58 172.79 L 140.94 172.09 C 140.36 171.45 139.37 171.41 138.74 171.99 C 138.11 172.57 138.06 173.55 138.64 174.18 Z M 139.29 174.91 L 139.96 175.62 C 140.55 176.25 141.54 176.29 142.17 175.70 C 142.80 175.11 142.83 174.12 142.24 173.50 L 141.57 172.78 C 140.98 172.15 139.99 172.12 139.37 172.70 C 138.74 173.29 138.70 174.28 139.29 174.91 Z M 139.97 175.64 L 140.67 176.37 C 141.26 176.99 142.25 177.01 142.88 176.42 C 143.50 175.82 143.52 174.84 142.93 174.21 L 142.23 173.48 C 141.64 172.86 140.65 172.84 140.03 173.43 C 139.40 174.03 139.38 175.01 139.97 175.64 Z M 140.67 176.38 L 141.39 177.11 C 141.99 177.74 142.98 177.75 143.60 177.15 C 144.22 176.55 144.24 175.56 143.64 174.94 L 142.92 174.20 C 142.32 173.58 141.33 173.56 140.71 174.17 C 140.09 174.77 140.07 175.76 140.67 176.38 Z M 141.39 177.12 L 142.12 177.86 C 142.72 178.48 143.71 178.49 144.33 177.89 C 144.95 177.28 144.96 176.29 144.36 175.67 L 143.63 174.93 C 143.03 174.31 142.03 174.30 141.42 174.91 C 140.80 175.51 140.79 176.50 141.39 177.12 Z M 142.12 177.87 L 142.82 178.58 C 143.43 179.20 144.42 179.20 145.04 178.60 C 145.66 177.99 145.66 176.99 145.05 176.37 L 144.36 175.67 C 143.75 175.05 142.75 175.04 142.14 175.65 C 141.52 176.26 141.51 177.25 142.12 177.87 Z M 142.82 178.58 L 143.51 179.29 C 144.13 179.90 145.12 179.91 145.74 179.30 C 146.36 178.69 146.36 177.69 145.75 177.07 L 145.05 176.37 C 144.44 175.75 143.45 175.75 142.83 176.36 C 142.21 176.97 142.21 177.97 142.82 178.58 Z M 143.51 179.29 L 144.22 180.00 C 144.83 180.62 145.83 180.62 146.44 180.01 C 147.06 179.39 147.07 178.40 146.45 177.78 L 145.75 177.07 C 145.14 176.45 144.14 176.45 143.52 177.06 C 142.91 177.67 142.90 178.67 143.51 179.29 Z M 144.21 180.00 L 144.92 180.71 C 145.53 181.33 146.53 181.33 147.15 180.72 C 147.77 180.11 147.77 179.11 147.16 178.49 L 146.45 177.78 C 145.84 177.16 144.84 177.15 144.22 177.77 C 143.60 178.38 143.60 179.38 144.21 180.00 Z M 144.92 180.71 L 145.63 181.43 C 146.24 182.05 147.24 182.05 147.86 181.44 C 148.48 180.83 148.49 179.83 147.87 179.21 L 147.16 178.49 C 146.55 177.87 145.55 177.86 144.93 178.48 C 144.31 179.09 144.30 180.09 144.92 180.71 Z M 145.62 181.43 L 146.34 182.16 C 146.96 182.78 147.96 182.79 148.58 182.18 C 149.20 181.56 149.21 180.56 148.60 179.94 L 147.88 179.21 C 147.26 178.58 146.26 178.58 145.64 179.19 C 145.02 179.80 145.01 180.81 145.62 181.43 Z M 146.34 182.16 L 147.08 182.92 C 147.70 183.55 148.70 183.56 149.33 182.94 C 149.95 182.33 149.96 181.33 149.35 180.70 L 148.60 179.94 C 147.99 179.31 146.99 179.30 146.36 179.92 C 145.74 180.53 145.73 181.53 146.34 182.16 Z M 147.08 182.92 L 147.82 183.67 C 148.43 184.30 149.43 184.31 150.06 183.70 C 150.69 183.09 150.70 182.09 150.09 181.46 L 149.35 180.70 C 148.74 180.08 147.74 180.06 147.11 180.67 C 146.48 181.29 146.47 182.29 147.08 182.92 Z M 147.81 183.67 L 148.52 184.40 C 149.13 185.04 150.13 185.05 150.77 184.44 C 151.40 183.83 151.41 182.83 150.80 182.20 L 150.09 181.46 C 149.48 180.83 148.48 180.82 147.85 181.42 C 147.22 182.03 147.20 183.04 147.81 183.67 Z M 148.51 184.40 L 149.18 185.10 C 149.79 185.74 150.80 185.76 151.43 185.15 C 152.07 184.54 152.09 183.54 151.48 182.90 L 150.81 182.20 C 150.20 181.57 149.20 181.55 148.56 182.15 C 147.93 182.76 147.91 183.77 148.51 184.40 Z M 149.18 185.10 L 149.80 185.75 C 150.40 186.39 151.41 186.41 152.05 185.81 C 152.68 185.20 152.71 184.20 152.11 183.56 L 151.49 182.91 C 150.88 182.27 149.88 182.24 149.24 182.85 C 148.60 183.45 148.57 184.46 149.18 185.10 Z M 149.79 185.74 L 150.47 186.47 C 151.07 187.11 152.08 187.15 152.72 186.55 C 153.36 185.95 153.40 184.94 152.80 184.30 L 152.12 183.57 C 151.52 182.92 150.51 182.89 149.86 183.49 C 149.22 184.09 149.19 185.10 149.79 185.74 Z M 150.46 186.46 L 151.10 187.16 C 151.69 187.81 152.70 187.86 153.35 187.27 C 154.00 186.67 154.05 185.66 153.45 185.01 L 152.81 184.31 C 152.22 183.66 151.21 183.61 150.56 184.21 C 149.91 184.80 149.86 185.81 150.46 186.46 Z M 151.09 187.15 L 151.72 187.86 C 152.31 188.52 153.32 188.57 153.97 187.99 C 154.63 187.40 154.69 186.39 154.10 185.73 L 153.47 185.03 C 152.88 184.37 151.87 184.31 151.21 184.90 C 150.56 185.49 150.50 186.49 151.09 187.15 Z M 151.71 187.85 L 152.39 188.62 C 152.97 189.28 153.98 189.35 154.64 188.77 C 155.30 188.18 155.37 187.18 154.79 186.51 L 154.11 185.74 C 153.53 185.08 152.52 185.02 151.86 185.60 C 151.19 186.18 151.13 187.19 151.71 187.85 Z M 152.39 188.62 L 153.01 189.33 C 153.59 190.00 154.60 190.07 155.26 189.49 C 155.93 188.91 156.00 187.90 155.42 187.24 L 154.79 186.52 C 154.21 185.85 153.20 185.79 152.54 186.36 C 151.87 186.94 151.81 187.95 152.39 188.62 Z M 153.01 189.33 L 153.62 190.03 C 154.19 190.70 155.20 190.77 155.87 190.19 C 156.53 189.61 156.60 188.60 156.03 187.94 L 155.42 187.24 C 154.84 186.57 153.83 186.50 153.17 187.08 C 152.50 187.66 152.43 188.67 153.01 189.33 Z M 153.61 190.03 L 154.26 190.78 C 154.84 191.44 155.85 191.52 156.52 190.94 C 157.18 190.36 157.25 189.35 156.68 188.69 L 156.03 187.94 C 155.45 187.27 154.44 187.20 153.78 187.78 C 153.11 188.35 153.04 189.36 153.61 190.03 Z M 154.26 190.78 L 154.94 191.56 C 155.52 192.23 156.52 192.30 157.19 191.72 C 157.86 191.15 157.93 190.14 157.35 189.47 L 156.68 188.69 C 156.10 188.02 155.09 187.95 154.42 188.52 C 153.76 189.10 153.68 190.11 154.26 190.78 Z M 154.94 191.56 L 155.63 192.36 C 156.21 193.03 157.22 193.10 157.88 192.53 C 158.55 191.95 158.63 190.94 158.05 190.27 L 157.36 189.47 C 156.78 188.80 155.77 188.73 155.10 189.30 C 154.43 189.88 154.36 190.89 154.94 191.56 Z M 155.63 192.36 L 156.32 193.17 C 156.90 193.84 157.91 193.91 158.58 193.34 C 159.25 192.76 159.32 191.75 158.75 191.08 L 158.05 190.28 C 157.48 189.61 156.47 189.53 155.80 190.11 C 155.13 190.68 155.05 191.69 155.63 192.36 Z M 156.32 193.17 L 156.97 193.92 C 157.54 194.59 158.55 194.66 159.22 194.09 C 159.89 193.51 159.97 192.50 159.39 191.83 L 158.75 191.09 C 158.17 190.42 157.16 190.34 156.49 190.91 C 155.82 191.49 155.75 192.50 156.32 193.17 Z M 156.97 193.92 L 157.59 194.65 C 158.17 195.32 159.18 195.40 159.85 194.82 C 160.52 194.25 160.60 193.23 160.02 192.56 L 159.39 191.83 C 158.82 191.16 157.81 191.09 157.14 191.66 C 156.47 192.24 156.39 193.25 156.97 193.92 Z M 157.60 194.66 L 158.23 195.39 C 158.81 196.06 159.82 196.13 160.49 195.55 C 161.16 194.98 161.23 193.96 160.65 193.29 L 160.02 192.56 C 159.44 191.89 158.43 191.82 157.76 192.40 C 157.09 192.97 157.02 193.99 157.60 194.66 Z M 158.23 195.40 L 158.88 196.14 C 159.46 196.81 160.48 196.88 161.14 196.29 C 161.81 195.71 161.88 194.70 161.30 194.03 L 160.65 193.29 C 160.07 192.62 159.06 192.55 158.39 193.13 C 157.72 193.71 157.65 194.73 158.23 195.40 Z M 158.89 196.15 L 159.55 196.90 C 160.14 197.57 161.16 197.63 161.82 197.05 C 162.49 196.46 162.55 195.45 161.96 194.78 L 161.29 194.02 C 160.71 193.36 159.69 193.29 159.03 193.88 C 158.36 194.47 158.30 195.48 158.89 196.15 Z M 159.56 196.91 L 160.26 197.70 C 160.85 198.36 161.87 198.41 162.53 197.82 C 163.19 197.23 163.25 196.21 162.66 195.55 L 161.96 194.77 C 161.36 194.11 160.35 194.05 159.69 194.65 C 159.03 195.24 158.97 196.25 159.56 196.91 Z M 160.27 197.71 L 160.97 198.48 C 161.57 199.14 162.59 199.19 163.25 198.59 C 163.90 197.99 163.95 196.98 163.35 196.32 L 162.65 195.54 C 162.05 194.88 161.03 194.84 160.38 195.43 C 159.72 196.03 159.67 197.05 160.27 197.71 Z M 160.98 198.49 L 161.69 199.25 C 162.29 199.91 163.31 199.95 163.96 199.34 C 164.61 198.74 164.65 197.72 164.05 197.07 L 163.35 196.31 C 162.74 195.66 161.73 195.62 161.07 196.22 C 160.42 196.82 160.38 197.84 160.98 198.49 Z M 161.69 199.26 L 162.41 200.03 C 163.02 200.68 164.04 200.71 164.68 200.10 C 165.33 199.50 165.37 198.48 164.76 197.83 L 164.04 197.06 C 163.43 196.42 162.42 196.38 161.77 196.99 C 161.12 197.60 161.09 198.61 161.69 199.26 Z M 162.42 200.04 L 163.14 200.80 C 163.75 201.44 164.77 201.47 165.41 200.86 C 166.06 200.25 166.08 199.23 165.47 198.58 L 164.75 197.82 C 164.14 197.18 163.12 197.15 162.48 197.76 C 161.84 198.38 161.81 199.39 162.42 200.04 Z M 163.15 200.80 L 163.86 201.54 C 164.47 202.18 165.49 202.20 166.13 201.59 C 166.77 200.97 166.79 199.95 166.18 199.31 L 165.46 198.58 C 164.85 197.94 163.83 197.92 163.19 198.53 C 162.55 199.15 162.53 200.16 163.15 200.80 Z M 163.87 201.55 L 164.56 202.25 C 165.18 202.89 166.19 202.90 166.83 202.28 C 167.46 201.66 167.47 200.64 166.85 200.01 L 166.17 199.31 C 165.55 198.67 164.53 198.66 163.90 199.28 C 163.26 199.90 163.25 200.92 163.87 201.55 Z M 164.57 202.26 L 165.22 202.92 C 165.84 203.55 166.86 203.55 167.49 202.92 C 168.11 202.30 168.12 201.28 167.49 200.65 L 166.84 200.00 C 166.22 199.37 165.20 199.37 164.57 199.99 C 163.94 200.62 163.94 201.64 164.57 202.26 Z M 165.23 202.93 L 165.99 203.67 C 166.62 204.29 167.64 204.28 168.26 203.65 C 168.88 203.02 168.87 202.00 168.23 201.38 L 167.48 200.64 C 166.84 200.02 165.83 200.03 165.21 200.66 C 164.59 201.30 164.60 202.31 165.23 202.93 Z M 166.02 203.70 L 166.85 204.46 C 167.49 205.07 168.50 205.03 169.10 204.38 C 169.71 203.74 169.67 202.73 169.02 202.13 L 168.20 201.36 C 167.56 200.76 166.54 200.79 165.94 201.44 C 165.34 202.09 165.38 203.10 166.02 203.70 Z M 166.91 204.51 L 167.65 205.14 C 168.32 205.71 169.33 205.63 169.90 204.96 C 170.46 204.29 170.38 203.29 169.71 202.72 L 168.96 202.08 C 168.30 201.52 167.29 201.60 166.72 202.27 C 166.16 202.94 166.24 203.94 166.91 204.51 Z M 167.74 205.20 L 168.46 205.73 C 169.16 206.25 170.15 206.11 170.67 205.40 C 171.19 204.70 171.04 203.71 170.34 203.19 L 169.63 202.66 C 168.92 202.14 167.93 202.29 167.41 202.99 C 166.89 203.69 167.04 204.68 167.74 205.20 Z M 168.56 205.80 L 169.30 206.26 C 170.04 206.72 171.01 206.50 171.47 205.76 C 171.93 205.02 171.71 204.05 170.97 203.59 L 170.24 203.13 C 169.50 202.67 168.53 202.89 168.07 203.63 C 167.60 204.36 167.83 205.33 168.56 205.80 Z M 169.43 206.32 L 170.32 206.77 C 171.09 207.16 172.03 206.86 172.43 206.09 C 172.82 205.32 172.51 204.38 171.74 203.99 L 170.84 203.53 C 170.08 203.14 169.13 203.45 168.74 204.22 C 168.35 204.99 168.66 205.93 169.43 206.32 Z M 170.49 206.83 L 171.44 207.18 C 172.24 207.48 173.13 207.07 173.43 206.27 C 173.73 205.47 173.32 204.58 172.52 204.28 L 171.57 203.93 C 170.77 203.63 169.88 204.04 169.58 204.84 C 169.28 205.64 169.69 206.53 170.49 206.83 Z M 171.66 207.23 L 172.63 207.44 C 173.46 207.61 174.28 207.08 174.45 206.25 C 174.63 205.43 174.10 204.61 173.27 204.44 L 172.30 204.23 C 171.47 204.05 170.65 204.58 170.48 205.41 C 170.30 206.24 170.83 207.05 171.66 207.23 Z M 172.91 207.46 L 173.89 207.48 C 174.73 207.50 175.42 206.84 175.44 206.00 C 175.47 205.16 174.80 204.46 173.96 204.44 L 172.99 204.42 C 172.15 204.40 171.45 205.06 171.43 205.90 C 171.41 206.74 172.08 207.43 172.91 207.46 Z M 174.18 207.44 L 175.13 207.28 C 175.95 207.13 176.50 206.36 176.36 205.54 C 176.21 204.72 175.44 204.17 174.62 204.32 L 173.67 204.48 C 172.85 204.62 172.31 205.40 172.45 206.22 C 172.59 207.03 173.36 207.58 174.18 207.44 Z M 175.33 207.21 L 176.28 206.90 C 177.06 206.65 177.48 205.81 177.23 205.03 C 176.98 204.26 176.14 203.83 175.36 204.08 L 174.42 204.39 C 173.64 204.64 173.21 205.47 173.47 206.25 C 173.72 207.03 174.55 207.46 175.33 207.21 Z M 176.39 206.84 L 177.33 206.44 C 178.07 206.13 178.42 205.27 178.11 204.53 C 177.80 203.78 176.94 203.43 176.19 203.75 L 175.25 204.14 C 174.51 204.45 174.16 205.31 174.47 206.06 C 174.78 206.80 175.64 207.15 176.39 206.84 Z M 177.36 206.41 L 178.05 206.09 C 178.77 205.76 179.09 204.90 178.76 204.18 C 178.43 203.45 177.57 203.13 176.84 203.47 L 176.16 203.78 C 175.43 204.12 175.11 204.97 175.45 205.70 C 175.78 206.42 176.64 206.74 177.36 206.41 Z"
      fill="black"
      fill-rule="nonzero" /><path d="M 172.35 116.12 L 172.17 117.04 C 172.01 117.88 172.57 118.69 173.41 118.85 C 174.25 119.01 175.06 118.46 175.22 117.62 L 175.40 116.70 C 175.56 115.86 175.01 115.05 174.16 114.89 C 173.32 114.73 172.51 115.28 172.35 116.12 Z M 172.17 117.04 L 172.00 117.97 C 171.84 118.81 172.39 119.62 173.24 119.78 C 174.08 119.94 174.90 119.38 175.05 118.54 L 175.23 117.61 C 175.38 116.77 174.83 115.96 173.98 115.80 C 173.14 115.64 172.33 116.20 172.17 117.04 Z M 171.99 117.98 L 171.82 118.92 C 171.67 119.77 172.23 120.58 173.08 120.73 C 173.93 120.88 174.74 120.32 174.89 119.47 L 175.06 118.53 C 175.21 117.68 174.65 116.87 173.80 116.72 C 172.95 116.57 172.14 117.13 171.99 117.98 Z M 171.81 118.94 L 171.65 119.91 C 171.51 120.76 172.08 121.57 172.93 121.71 C 173.78 121.85 174.59 121.28 174.73 120.43 L 174.90 119.46 C 175.04 118.61 174.47 117.80 173.62 117.66 C 172.77 117.51 171.96 118.09 171.81 118.94 Z M 171.64 119.93 L 171.49 120.94 C 171.35 121.79 171.94 122.59 172.79 122.73 C 173.64 122.86 174.45 122.28 174.58 121.42 L 174.74 120.41 C 174.87 119.56 174.29 118.76 173.43 118.62 C 172.58 118.49 171.78 119.07 171.64 119.93 Z M 171.48 120.96 L 171.33 122.01 C 171.21 122.87 171.80 123.67 172.66 123.79 C 173.52 123.91 174.31 123.31 174.44 122.46 L 174.59 121.40 C 174.71 120.54 174.11 119.75 173.25 119.63 C 172.39 119.50 171.60 120.10 171.48 120.96 Z M 171.32 122.04 L 171.19 123.12 C 171.08 123.98 171.69 124.77 172.55 124.88 C 173.41 124.99 174.20 124.37 174.31 123.51 L 174.44 122.43 C 174.55 121.57 173.94 120.78 173.08 120.67 C 172.22 120.57 171.43 121.18 171.32 122.04 Z M 171.17 123.14 L 171.06 124.15 C 170.96 125.02 171.59 125.80 172.46 125.90 C 173.33 125.99 174.11 125.37 174.21 124.50 L 174.32 123.49 C 174.42 122.62 173.79 121.84 172.92 121.74 C 172.05 121.65 171.27 122.27 171.17 123.14 Z M 171.05 124.17 L 170.94 125.20 C 170.86 126.08 171.49 126.86 172.37 126.95 C 173.24 127.04 174.03 126.40 174.11 125.52 L 174.22 124.49 C 174.31 123.61 173.67 122.83 172.79 122.74 C 171.92 122.65 171.14 123.29 171.05 124.17 Z M 170.93 125.21 L 170.83 126.26 C 170.75 127.14 171.40 127.93 172.28 128.01 C 173.16 128.09 173.95 127.44 174.03 126.56 L 174.13 125.51 C 174.21 124.63 173.56 123.85 172.68 123.77 C 171.80 123.68 171.01 124.33 170.93 125.21 Z M 170.82 126.27 L 170.73 127.31 C 170.65 128.20 171.31 128.98 172.20 129.06 C 173.09 129.14 173.87 128.48 173.95 127.59 L 174.04 126.55 C 174.12 125.66 173.46 124.88 172.57 124.80 C 171.68 124.72 170.90 125.38 170.82 126.27 Z M 170.72 127.31 L 170.63 128.33 C 170.55 129.23 171.22 130.01 172.11 130.09 C 173.01 130.17 173.80 129.50 173.87 128.61 L 173.96 127.59 C 174.04 126.70 173.37 125.91 172.48 125.83 C 171.58 125.75 170.79 126.42 170.72 127.31 Z M 170.62 128.33 L 170.54 129.31 C 170.46 130.21 171.13 131.00 172.03 131.08 C 172.93 131.16 173.73 130.49 173.80 129.59 L 173.88 128.61 C 173.96 127.71 173.29 126.91 172.39 126.84 C 171.49 126.76 170.70 127.43 170.62 128.33 Z M 170.53 129.31 L 170.45 130.23 C 170.37 131.13 171.04 131.93 171.95 132.01 C 172.86 132.09 173.66 131.42 173.73 130.51 L 173.81 129.59 C 173.89 128.68 173.22 127.88 172.31 127.80 C 171.40 127.73 170.60 128.40 170.53 129.31 Z M 170.44 130.22 L 170.34 131.25 C 170.26 132.16 170.93 132.97 171.85 133.05 C 172.76 133.14 173.57 132.46 173.65 131.55 L 173.74 130.52 C 173.83 129.61 173.15 128.80 172.24 128.71 C 171.33 128.63 170.52 129.30 170.44 130.22 Z M 170.34 131.23 L 170.22 132.40 C 170.13 133.31 170.79 134.13 171.71 134.22 C 172.62 134.32 173.44 133.65 173.54 132.74 L 173.65 131.57 C 173.75 130.65 173.08 129.83 172.16 129.74 C 171.25 129.65 170.43 130.31 170.34 131.23 Z M 170.22 132.37 L 170.10 133.38 C 169.99 134.30 170.64 135.13 171.56 135.24 C 172.48 135.35 173.31 134.69 173.42 133.78 L 173.54 132.76 C 173.65 131.84 172.99 131.01 172.07 130.91 C 171.16 130.80 170.32 131.45 170.22 132.37 Z M 170.10 133.35 L 169.97 134.26 C 169.85 135.18 170.49 136.02 171.40 136.15 C 172.32 136.27 173.17 135.63 173.29 134.72 L 173.42 133.81 C 173.55 132.89 172.90 132.05 171.99 131.92 C 171.07 131.79 170.22 132.43 170.10 133.35 Z M 169.97 134.22 L 169.84 135.07 C 169.69 135.98 170.32 136.85 171.23 136.99 C 172.15 137.14 173.01 136.51 173.16 135.60 L 173.29 134.75 C 173.44 133.83 172.82 132.97 171.90 132.83 C 170.98 132.68 170.12 133.30 169.97 134.22 Z M 169.84 135.03 L 169.68 135.91 C 169.51 136.83 170.12 137.70 171.04 137.87 C 171.96 138.04 172.83 137.43 173.00 136.51 L 173.16 135.63 C 173.32 134.71 172.72 133.84 171.80 133.67 C 170.88 133.50 170.00 134.11 169.84 135.03 Z M 169.68 135.88 L 169.49 136.82 C 169.31 137.74 169.90 138.63 170.82 138.81 C 171.73 139.00 172.63 138.40 172.81 137.49 L 173.00 136.54 C 173.18 135.63 172.59 134.73 171.67 134.55 C 170.76 134.37 169.86 134.96 169.68 135.88 Z M 169.49 136.79 L 169.28 137.76 C 169.08 138.67 169.66 139.58 170.58 139.78 C 171.50 139.98 172.40 139.39 172.60 138.48 L 172.81 137.51 C 173.01 136.60 172.43 135.69 171.51 135.49 C 170.60 135.30 169.69 135.88 169.49 136.79 Z M 169.28 137.73 L 169.05 138.73 C 168.84 139.64 169.41 140.56 170.32 140.77 C 171.24 140.98 172.16 140.41 172.37 139.50 L 172.60 138.50 C 172.81 137.59 172.24 136.67 171.33 136.46 C 170.41 136.25 169.50 136.82 169.28 137.73 Z M 169.05 138.71 L 168.80 139.73 C 168.58 140.64 169.14 141.57 170.06 141.79 C 170.98 142.01 171.90 141.45 172.12 140.53 L 172.37 139.52 C 172.59 138.60 172.03 137.68 171.11 137.46 C 170.20 137.23 169.27 137.79 169.05 138.71 Z M 168.80 139.71 L 168.57 140.66 C 168.33 141.57 168.89 142.50 169.81 142.74 C 170.72 142.97 171.65 142.41 171.88 141.49 L 172.12 140.55 C 172.35 139.63 171.80 138.70 170.88 138.47 C 169.96 138.24 169.03 138.80 168.80 139.71 Z M 168.57 140.64 L 168.31 141.61 C 168.07 142.53 168.62 143.46 169.54 143.70 C 170.45 143.94 171.39 143.39 171.63 142.48 L 171.88 141.51 C 172.12 140.59 171.57 139.66 170.66 139.42 C 169.74 139.18 168.81 139.73 168.57 140.64 Z M 168.32 141.59 L 168.05 142.57 C 167.80 143.49 168.34 144.43 169.25 144.68 C 170.17 144.93 171.11 144.39 171.36 143.48 L 171.63 142.50 C 171.88 141.58 171.34 140.64 170.42 140.39 C 169.51 140.14 168.57 140.68 168.32 141.59 Z M 168.05 142.55 L 167.77 143.52 C 167.51 144.44 168.04 145.39 168.95 145.65 C 169.86 145.91 170.81 145.38 171.08 144.47 L 171.36 143.50 C 171.62 142.59 171.09 141.63 170.18 141.37 C 169.27 141.11 168.31 141.64 168.05 142.55 Z M 167.78 143.50 L 167.48 144.46 C 167.21 145.37 167.72 146.33 168.63 146.61 C 169.54 146.89 170.50 146.37 170.78 145.46 L 171.07 144.50 C 171.35 143.59 170.84 142.63 169.93 142.35 C 169.02 142.07 168.05 142.59 167.78 143.50 Z M 167.49 144.43 L 167.18 145.39 C 166.88 146.30 167.38 147.27 168.28 147.57 C 169.19 147.86 170.16 147.37 170.46 146.46 L 170.77 145.50 C 171.07 144.59 170.57 143.62 169.66 143.32 C 168.76 143.03 167.78 143.52 167.49 144.43 Z M 167.18 145.36 L 166.85 146.30 C 166.54 147.21 167.02 148.19 167.92 148.51 C 168.83 148.82 169.81 148.34 170.13 147.44 L 170.45 146.49 C 170.76 145.59 170.29 144.60 169.38 144.29 C 168.48 143.98 167.49 144.46 167.18 145.36 Z M 166.86 146.27 L 166.52 147.21 C 166.19 148.11 166.65 149.10 167.55 149.43 C 168.45 149.76 169.45 149.30 169.78 148.40 L 170.12 147.47 C 170.45 146.57 169.99 145.57 169.09 145.24 C 168.19 144.91 167.19 145.37 166.86 146.27 Z M 166.53 147.18 L 166.17 148.10 C 165.83 149.00 166.27 150.01 167.17 150.35 C 168.07 150.70 169.07 150.25 169.42 149.35 L 169.77 148.43 C 170.12 147.53 169.67 146.52 168.77 146.18 C 167.88 145.83 166.87 146.28 166.53 147.18 Z M 166.18 148.08 L 165.81 148.99 C 165.45 149.88 165.88 150.90 166.78 151.26 C 167.67 151.62 168.68 151.18 169.04 150.29 L 169.41 149.38 C 169.77 148.48 169.34 147.47 168.44 147.11 C 167.55 146.75 166.54 147.18 166.18 148.08 Z M 165.82 148.97 L 165.44 149.87 C 165.07 150.76 165.49 151.78 166.38 152.15 C 167.27 152.52 168.29 152.10 168.66 151.21 L 169.04 150.31 C 169.41 149.42 168.99 148.40 168.10 148.03 C 167.21 147.66 166.19 148.08 165.82 148.97 Z M 165.45 149.85 L 165.05 150.76 C 164.67 151.64 165.08 152.67 165.96 153.05 C 166.84 153.44 167.87 153.03 168.26 152.15 L 168.65 151.24 C 169.03 150.35 168.63 149.33 167.75 148.94 C 166.86 148.56 165.83 148.96 165.45 149.85 Z M 165.06 150.73 L 164.65 151.65 C 164.25 152.53 164.64 153.56 165.52 153.96 C 166.40 154.36 167.44 153.96 167.83 153.09 L 168.25 152.17 C 168.64 151.29 168.25 150.26 167.37 149.86 C 166.49 149.46 165.46 149.85 165.06 150.73 Z M 164.66 151.63 L 164.23 152.55 C 163.82 153.43 164.19 154.47 165.07 154.88 C 165.94 155.28 166.98 154.91 167.39 154.03 L 167.82 153.11 C 168.23 152.23 167.86 151.19 166.98 150.79 C 166.11 150.38 165.07 150.75 164.66 151.63 Z M 164.24 152.53 L 163.80 153.43 C 163.38 154.30 163.74 155.34 164.61 155.77 C 165.48 156.19 166.52 155.82 166.94 154.96 L 167.38 154.06 C 167.80 153.19 167.44 152.14 166.57 151.72 C 165.70 151.30 164.66 151.66 164.24 152.53 Z M 163.81 153.41 L 163.37 154.28 C 162.94 155.15 163.29 156.20 164.15 156.63 C 165.01 157.06 166.06 156.71 166.50 155.85 L 166.93 154.98 C 167.37 154.11 167.02 153.06 166.15 152.63 C 165.29 152.20 164.24 152.55 163.81 153.41 Z M 163.38 154.26 L 162.92 155.15 C 162.48 156.00 162.82 157.06 163.68 157.50 C 164.53 157.94 165.59 157.61 166.03 156.75 L 166.49 155.87 C 166.93 155.01 166.59 153.96 165.74 153.51 C 164.88 153.07 163.82 153.41 163.38 154.26 Z M 162.93 155.13 L 162.46 156.02 C 162.01 156.87 162.33 157.93 163.19 158.38 C 164.04 158.83 165.10 158.51 165.55 157.66 L 166.02 156.77 C 166.48 155.91 166.15 154.86 165.30 154.40 C 164.44 153.95 163.39 154.27 162.93 155.13 Z M 162.47 156.00 L 161.98 156.89 C 161.52 157.74 161.83 158.81 162.68 159.27 C 163.53 159.73 164.59 159.42 165.06 158.57 L 165.54 157.67 C 166.01 156.82 165.69 155.76 164.84 155.30 C 163.99 154.84 162.93 155.15 162.47 156.00 Z M 161.99 156.88 L 161.49 157.77 C 161.02 158.61 161.33 159.68 162.17 160.15 C 163.02 160.62 164.08 160.32 164.55 159.47 L 165.05 158.58 C 165.52 157.74 165.22 156.67 164.37 156.20 C 163.53 155.73 162.46 156.03 161.99 156.88 Z M 161.50 157.76 L 161.02 158.60 C 160.54 159.44 160.84 160.51 161.68 160.99 C 162.52 161.47 163.59 161.18 164.06 160.33 L 164.55 159.49 C 165.02 158.65 164.73 157.58 163.89 157.10 C 163.05 156.62 161.98 156.92 161.50 157.76 Z M 161.02 158.59 L 160.53 159.44 C 160.05 160.28 160.33 161.35 161.17 161.84 C 162.01 162.32 163.08 162.04 163.57 161.20 L 164.06 160.35 C 164.54 159.51 164.26 158.44 163.42 157.95 C 162.58 157.47 161.51 157.75 161.02 158.59 Z M 160.54 159.44 L 160.03 160.29 C 159.54 161.13 159.82 162.20 160.66 162.69 C 161.49 163.18 162.57 162.90 163.06 162.07 L 163.56 161.21 C 164.05 160.37 163.77 159.30 162.93 158.81 C 162.10 158.32 161.03 158.60 160.54 159.44 Z M 160.04 160.29 L 159.52 161.16 C 159.03 161.99 159.31 163.07 160.14 163.56 C 160.97 164.05 162.05 163.78 162.54 162.94 L 163.05 162.07 C 163.55 161.24 163.27 160.16 162.44 159.67 C 161.60 159.18 160.53 159.45 160.04 160.29 Z M 159.52 161.15 L 159.00 162.03 C 158.51 162.86 158.78 163.94 159.61 164.43 C 160.44 164.93 161.52 164.66 162.02 163.82 L 162.54 162.95 C 163.04 162.11 162.76 161.04 161.93 160.54 C 161.10 160.05 160.02 160.32 159.52 161.15 Z M 159.00 162.03 L 158.49 162.88 C 157.99 163.71 158.27 164.79 159.10 165.29 C 159.93 165.79 161.01 165.51 161.50 164.68 L 162.02 163.83 C 162.51 162.99 162.24 161.92 161.41 161.42 C 160.58 160.92 159.50 161.20 159.00 162.03 Z M 158.49 162.88 L 158.00 163.70 C 157.51 164.53 157.78 165.61 158.61 166.11 C 159.44 166.60 160.51 166.33 161.01 165.50 L 161.50 164.68 C 162.00 163.85 161.73 162.78 160.90 162.28 C 160.07 161.78 158.99 162.05 158.49 162.88 Z M 158.01 163.70 L 157.51 164.54 C 157.01 165.37 157.28 166.44 158.11 166.94 C 158.94 167.44 160.01 167.17 160.51 166.34 L 161.01 165.50 C 161.50 164.68 161.24 163.60 160.41 163.10 C 159.58 162.61 158.50 162.88 158.01 163.70 Z M 157.51 164.54 L 157.00 165.39 C 156.50 166.21 156.77 167.29 157.60 167.78 C 158.42 168.28 159.49 168.01 159.99 167.19 L 160.50 166.34 C 161.00 165.51 160.73 164.44 159.91 163.94 C 159.08 163.44 158.01 163.71 157.51 164.54 Z M 157.00 165.39 L 156.48 166.25 C 155.98 167.08 156.25 168.15 157.07 168.65 C 157.90 169.14 158.97 168.88 159.46 168.05 L 159.99 167.19 C 160.48 166.36 160.22 165.29 159.40 164.80 C 158.57 164.30 157.50 164.56 157.00 165.39 Z M 156.48 166.25 L 155.95 167.14 C 155.45 167.96 155.71 169.03 156.53 169.53 C 157.36 170.03 158.43 169.76 158.92 168.94 L 159.46 168.06 C 159.96 167.23 159.70 166.16 158.87 165.67 C 158.05 165.17 156.98 165.43 156.48 166.25 Z M 155.95 167.14 L 155.41 168.03 C 154.91 168.85 155.17 169.92 155.99 170.42 C 156.81 170.92 157.88 170.66 158.37 169.84 L 158.92 168.94 C 159.42 168.12 159.16 167.06 158.34 166.56 C 157.52 166.06 156.45 166.32 155.95 167.14 Z M 155.41 168.03 L 154.90 168.87 C 154.40 169.69 154.66 170.76 155.47 171.25 C 156.29 171.75 157.36 171.50 157.86 170.68 L 158.37 169.84 C 158.87 169.02 158.61 167.96 157.79 167.46 C 156.98 166.96 155.91 167.22 155.41 168.03 Z M 154.90 168.87 L 154.38 169.72 C 153.88 170.54 154.14 171.60 154.95 172.10 C 155.77 172.60 156.83 172.35 157.33 171.53 L 157.85 170.68 C 158.35 169.87 158.10 168.80 157.28 168.30 C 156.47 167.80 155.40 168.05 154.90 168.87 Z M 154.38 169.72 L 153.85 170.58 C 153.35 171.39 153.61 172.46 154.42 172.96 C 155.23 173.46 156.30 173.21 156.80 172.39 L 157.33 171.53 C 157.83 170.72 157.58 169.66 156.76 169.15 C 155.95 168.65 154.88 168.91 154.38 169.72 Z M 153.86 170.58 L 153.32 171.44 C 152.82 172.25 153.07 173.31 153.88 173.82 C 154.69 174.32 155.76 174.07 156.26 173.26 L 156.80 172.40 C 157.30 171.58 157.05 170.52 156.24 170.02 C 155.42 169.52 154.36 169.77 153.86 170.58 Z M 153.33 171.44 L 152.79 172.29 C 152.29 173.10 152.54 174.17 153.35 174.67 C 154.16 175.17 155.22 174.93 155.72 174.12 L 156.26 173.26 C 156.76 172.45 156.51 171.39 155.71 170.88 C 154.90 170.38 153.83 170.63 153.33 171.44 Z M 152.80 172.29 L 152.27 173.14 C 151.76 173.94 152.01 175.01 152.81 175.51 C 153.62 176.02 154.68 175.77 155.19 174.97 L 155.72 174.12 C 156.22 173.31 155.98 172.25 155.17 171.74 C 154.37 171.24 153.30 171.48 152.80 172.29 Z M 152.27 173.13 L 151.74 173.98 C 151.23 174.78 151.47 175.84 152.28 176.35 C 153.08 176.86 154.15 176.62 154.65 175.81 L 155.18 174.97 C 155.69 174.17 155.45 173.10 154.65 172.60 C 153.84 172.09 152.78 172.33 152.27 173.13 Z M 151.75 173.97 L 151.20 174.84 C 150.69 175.64 150.92 176.70 151.73 177.21 C 152.53 177.72 153.59 177.48 154.10 176.68 L 154.65 175.82 C 155.16 175.02 154.92 173.95 154.12 173.44 C 153.32 172.94 152.26 173.17 151.75 173.97 Z M 151.20 174.83 L 150.66 175.68 C 150.15 176.48 150.38 177.54 151.18 178.05 C 151.97 178.56 153.04 178.33 153.55 177.53 L 154.09 176.68 C 154.60 175.89 154.37 174.83 153.57 174.31 C 152.78 173.80 151.72 174.03 151.20 174.83 Z M 150.67 175.67 L 150.13 176.51 C 149.61 177.30 149.84 178.36 150.63 178.88 C 151.42 179.39 152.48 179.17 153.00 178.37 L 153.54 177.54 C 154.06 176.74 153.83 175.68 153.04 175.17 C 152.24 174.65 151.18 174.88 150.67 175.67 Z M 150.13 176.50 L 149.59 177.33 C 149.07 178.12 149.29 179.18 150.08 179.69 C 150.87 180.21 151.93 179.99 152.45 179.20 L 152.99 178.38 C 153.51 177.59 153.29 176.53 152.50 176.01 C 151.71 175.49 150.65 175.71 150.13 176.50 Z M 149.60 177.32 L 149.05 178.14 C 148.53 178.93 148.74 179.99 149.53 180.51 C 150.31 181.03 151.37 180.82 151.89 180.03 L 152.44 179.21 C 152.96 178.43 152.75 177.37 151.96 176.85 C 151.18 176.32 150.12 176.54 149.60 177.32 Z M 149.06 178.14 L 148.50 178.96 C 147.98 179.74 148.18 180.80 148.96 181.32 C 149.74 181.85 150.80 181.64 151.33 180.86 L 151.88 180.04 C 152.41 179.26 152.20 178.20 151.42 177.68 C 150.64 177.15 149.59 177.36 149.06 178.14 Z M 148.51 178.95 L 147.96 179.76 C 147.43 180.53 147.63 181.59 148.41 182.12 C 149.18 182.65 150.24 182.45 150.77 181.68 L 151.32 180.87 C 151.85 180.10 151.65 179.04 150.88 178.51 C 150.10 177.98 149.04 178.18 148.51 178.95 Z M 147.97 179.75 L 147.42 180.54 C 146.89 181.31 147.08 182.37 147.85 182.91 C 148.62 183.44 149.67 183.25 150.21 182.48 L 150.76 181.68 C 151.30 180.91 151.10 179.86 150.33 179.32 C 149.56 178.79 148.51 178.98 147.97 179.75 Z M 147.43 180.54 L 146.87 181.34 C 146.33 182.10 146.51 183.16 147.28 183.70 C 148.04 184.24 149.10 184.05 149.63 183.29 L 150.20 182.49 C 150.74 181.72 150.55 180.67 149.79 180.13 C 149.03 179.59 147.97 179.77 147.43 180.54 Z M 146.88 181.33 L 146.30 182.14 C 145.76 182.90 145.93 183.95 146.69 184.50 C 147.45 185.04 148.50 184.86 149.05 184.10 L 149.62 183.30 C 150.17 182.54 149.99 181.48 149.23 180.94 C 148.47 180.40 147.42 180.57 146.88 181.33 Z M 146.31 182.13 L 145.72 182.95 C 145.17 183.70 145.34 184.76 146.09 185.30 C 146.84 185.85 147.90 185.68 148.44 184.93 L 149.04 184.11 C 149.58 183.36 149.42 182.30 148.66 181.76 C 147.91 181.21 146.85 181.38 146.31 182.13 Z M 145.73 182.94 L 145.12 183.76 C 144.57 184.51 144.73 185.56 145.47 186.12 C 146.22 186.67 147.28 186.51 147.83 185.76 L 148.43 184.94 C 148.99 184.19 148.83 183.14 148.08 182.58 C 147.33 182.03 146.28 182.19 145.73 182.94 Z M 145.13 183.75 L 144.51 184.59 C 143.95 185.33 144.10 186.38 144.84 186.94 C 145.59 187.49 146.64 187.34 147.19 186.60 L 147.82 185.77 C 148.37 185.03 148.22 183.97 147.48 183.42 C 146.74 182.86 145.69 183.01 145.13 183.75 Z M 144.52 184.58 L 143.92 185.36 C 143.36 186.10 143.50 187.15 144.24 187.71 C 144.97 188.27 146.03 188.13 146.59 187.39 L 147.18 186.61 C 147.74 185.87 147.60 184.82 146.86 184.26 C 146.13 183.70 145.08 183.84 144.52 184.58 Z M 143.93 185.35 L 143.33 186.13 C 142.77 186.86 142.90 187.91 143.64 188.47 C 144.37 189.04 145.42 188.90 145.98 188.17 L 146.58 187.40 C 147.14 186.67 147.01 185.62 146.27 185.05 C 145.54 184.49 144.49 184.62 143.93 185.35 Z M 143.34 186.12 L 142.74 186.90 C 142.17 187.62 142.29 188.67 143.02 189.24 C 143.74 189.81 144.79 189.68 145.36 188.95 L 145.97 188.18 C 146.54 187.45 146.41 186.40 145.68 185.84 C 144.96 185.27 143.91 185.40 143.34 186.12 Z M 142.74 186.89 L 142.12 187.67 C 141.55 188.39 141.67 189.44 142.39 190.01 C 143.11 190.58 144.16 190.46 144.73 189.74 L 145.35 188.96 C 145.92 188.24 145.80 187.19 145.08 186.62 C 144.36 186.05 143.32 186.17 142.74 186.89 Z M 142.13 187.67 L 141.50 188.45 C 140.93 189.17 141.04 190.21 141.76 190.79 C 142.47 191.36 143.52 191.25 144.09 190.53 L 144.72 189.75 C 145.30 189.03 145.18 187.99 144.47 187.41 C 143.75 186.84 142.71 186.95 142.13 187.67 Z M 141.51 188.45 L 140.87 189.24 C 140.29 189.95 140.40 190.99 141.11 191.57 C 141.82 192.14 142.87 192.04 143.44 191.33 L 144.08 190.54 C 144.66 189.83 144.55 188.78 143.84 188.21 C 143.13 187.63 142.09 187.74 141.51 188.45 Z M 140.88 189.23 L 140.23 190.02 C 139.65 190.73 139.75 191.77 140.46 192.35 C 141.16 192.93 142.20 192.83 142.78 192.12 L 143.43 191.33 C 144.01 190.63 143.91 189.58 143.21 189.00 C 142.50 188.42 141.46 188.53 140.88 189.23 Z M 140.24 190.02 L 139.59 190.80 C 139.01 191.50 139.10 192.54 139.80 193.12 C 140.51 193.70 141.54 193.61 142.13 192.91 L 142.78 192.12 C 143.36 191.42 143.26 190.38 142.56 189.80 C 141.86 189.22 140.82 189.32 140.24 190.02 Z M 139.60 190.79 L 138.97 191.55 C 138.38 192.24 138.47 193.28 139.17 193.86 C 139.87 194.45 140.90 194.36 141.49 193.66 L 142.12 192.91 C 142.70 192.21 142.61 191.18 141.92 190.59 C 141.22 190.01 140.18 190.10 139.60 190.79 Z M 138.98 191.54 L 138.34 192.29 C 137.75 192.98 137.84 194.02 138.53 194.61 C 139.22 195.19 140.25 195.11 140.84 194.42 L 141.48 193.67 C 142.07 192.97 141.98 191.94 141.29 191.35 C 140.60 190.77 139.56 190.85 138.98 191.54 Z M 138.35 192.29 L 137.70 193.04 C 137.11 193.73 137.19 194.76 137.88 195.35 C 138.56 195.94 139.60 195.86 140.19 195.17 L 140.83 194.42 C 141.42 193.74 141.34 192.70 140.66 192.11 C 139.97 191.52 138.94 191.60 138.35 192.29 Z M 137.71 193.04 L 137.06 193.79 C 136.47 194.47 136.54 195.50 137.22 196.09 C 137.90 196.69 138.93 196.61 139.52 195.93 L 140.18 195.18 C 140.77 194.50 140.70 193.47 140.01 192.87 C 139.33 192.28 138.30 192.36 137.71 193.04 Z M 137.07 193.79 L 136.40 194.54 C 135.81 195.22 135.88 196.25 136.55 196.84 C 137.23 197.43 138.26 197.37 138.85 196.69 L 139.52 195.94 C 140.11 195.26 140.04 194.23 139.37 193.64 C 138.69 193.04 137.66 193.11 137.07 193.79 Z M 136.41 194.54 L 135.74 195.29 C 135.15 195.96 135.21 196.99 135.88 197.59 C 136.55 198.18 137.58 198.12 138.17 197.45 L 138.84 196.69 C 139.44 196.02 139.38 195.00 138.71 194.40 C 138.04 193.80 137.01 193.86 136.41 194.54 Z M 135.75 195.29 L 135.07 196.04 C 134.47 196.71 134.53 197.74 135.19 198.33 C 135.86 198.93 136.88 198.88 137.48 198.21 L 138.16 197.45 C 138.76 196.79 138.71 195.76 138.04 195.16 C 137.38 194.57 136.35 194.62 135.75 195.29 Z M 135.08 196.04 L 134.41 196.78 C 133.80 197.44 133.85 198.47 134.51 199.07 C 135.17 199.67 136.20 199.62 136.80 198.96 L 137.47 198.22 C 138.07 197.56 138.03 196.53 137.37 195.93 C 136.71 195.33 135.68 195.38 135.08 196.04 Z M 134.42 196.78 L 133.77 197.48 C 133.16 198.14 133.20 199.16 133.86 199.76 C 134.52 200.37 135.54 200.32 136.14 199.67 L 136.79 198.96 C 137.39 198.31 137.35 197.29 136.69 196.68 C 136.04 196.08 135.02 196.12 134.42 196.78 Z M 133.77 197.48 L 133.11 198.19 C 132.51 198.84 132.55 199.86 133.20 200.46 C 133.85 201.07 134.87 201.03 135.47 200.38 L 136.13 199.67 C 136.74 199.02 136.70 198.00 136.05 197.40 C 135.40 196.79 134.38 196.83 133.77 197.48 Z M 133.12 198.19 L 132.45 198.90 C 131.85 199.55 131.88 200.56 132.52 201.17 C 133.17 201.78 134.19 201.74 134.79 201.10 L 135.46 200.38 C 136.07 199.74 136.04 198.72 135.39 198.12 C 134.75 197.51 133.73 197.54 133.12 198.19 Z M 132.46 198.90 L 131.78 199.62 C 131.17 200.26 131.20 201.27 131.84 201.88 C 132.48 202.49 133.49 202.46 134.10 201.82 L 134.78 201.10 C 135.39 200.46 135.36 199.45 134.72 198.84 C 134.08 198.23 133.07 198.26 132.46 198.90 Z M 131.79 199.62 L 131.09 200.34 C 130.49 200.98 130.51 201.99 131.15 202.60 C 131.78 203.21 132.79 203.18 133.40 202.55 L 134.09 201.82 C 134.70 201.18 134.68 200.17 134.04 199.56 C 133.41 198.96 132.40 198.98 131.79 199.62 Z M 131.10 200.34 L 130.40 201.07 C 129.79 201.71 129.81 202.71 130.44 203.32 C 131.07 203.93 132.08 203.91 132.69 203.28 L 133.39 202.55 C 134.00 201.91 133.98 200.91 133.35 200.30 C 132.72 199.69 131.71 199.71 131.10 200.34 Z M 130.40 201.07 L 129.68 201.81 C 129.07 202.44 129.09 203.45 129.72 204.06 C 130.35 204.67 131.35 204.65 131.96 204.02 L 132.68 203.28 C 133.29 202.65 133.28 201.65 132.65 201.04 C 132.02 200.43 131.01 200.44 130.40 201.07 Z M 129.69 201.81 L 128.96 202.56 C 128.35 203.19 128.36 204.19 128.99 204.80 C 129.61 205.41 130.61 205.40 131.22 204.77 L 131.96 204.02 C 132.57 203.40 132.55 202.39 131.93 201.78 C 131.30 201.17 130.30 201.19 129.69 201.81 Z M 128.96 202.56 L 128.26 203.28 C 127.65 203.91 127.66 204.90 128.28 205.52 C 128.90 206.13 129.90 206.12 130.51 205.49 L 131.22 204.77 C 131.83 204.15 131.82 203.15 131.20 202.54 C 130.57 201.93 129.57 201.94 128.96 202.56 Z M 128.26 203.28 L 127.56 204.00 C 126.95 204.62 126.96 205.61 127.58 206.22 C 128.20 206.83 129.19 206.83 129.80 206.21 L 130.51 205.49 C 131.12 204.87 131.11 203.88 130.49 203.27 C 129.87 202.66 128.87 202.66 128.26 203.28 Z M 127.56 204.00 L 126.85 204.71 C 126.24 205.33 126.25 206.33 126.86 206.94 C 127.48 207.55 128.48 207.54 129.09 206.93 L 129.80 206.21 C 130.41 205.59 130.40 204.60 129.79 203.99 C 129.17 203.37 128.17 203.38 127.56 204.00 Z M 126.86 204.71 L 126.14 205.43 C 125.53 206.05 125.53 207.04 126.15 207.65 C 126.76 208.26 127.76 208.26 128.37 207.65 L 129.08 206.93 C 129.69 206.31 129.69 205.32 129.08 204.71 C 128.46 204.10 127.47 204.10 126.86 204.71 Z M 126.15 205.43 L 125.43 206.15 C 124.82 206.76 124.82 207.76 125.43 208.37 C 126.04 208.98 127.03 208.98 127.65 208.36 L 128.36 207.65 C 128.97 207.03 128.97 206.04 128.36 205.43 C 127.75 204.82 126.76 204.82 126.15 205.43 Z M 125.43 206.15 L 124.72 206.87 C 124.11 207.48 124.11 208.46 124.72 209.08 C 125.32 209.69 126.31 209.69 126.92 209.08 L 127.64 208.36 C 128.25 207.76 128.25 206.77 127.64 206.16 C 127.03 205.55 126.05 205.54 125.43 206.15 Z M 124.72 206.87 L 124.01 207.57 C 123.40 208.18 123.40 209.17 124.00 209.78 C 124.61 210.39 125.60 210.39 126.21 209.79 L 126.92 209.08 C 127.53 208.47 127.53 207.49 126.93 206.87 C 126.32 206.26 125.33 206.26 124.72 206.87 Z M 124.02 207.57 L 123.31 208.27 C 122.70 208.87 122.70 209.86 123.30 210.47 C 123.90 211.08 124.89 211.09 125.50 210.48 L 126.20 209.79 C 126.81 209.18 126.82 208.20 126.22 207.59 C 125.61 206.98 124.63 206.97 124.02 207.57 Z M 123.32 208.27 L 122.62 208.95 C 122.01 209.55 122.00 210.54 122.60 211.15 C 123.20 211.76 124.19 211.77 124.80 211.17 L 125.49 210.48 C 126.10 209.88 126.11 208.90 125.51 208.29 C 124.91 207.68 123.93 207.67 123.32 208.27 Z M 122.63 208.95 L 121.89 209.67 C 121.28 210.27 121.27 211.25 121.87 211.86 C 122.47 212.47 123.45 212.48 124.06 211.88 L 124.79 211.17 C 125.40 210.57 125.41 209.59 124.82 208.98 C 124.22 208.37 123.24 208.35 122.63 208.95 Z M 121.90 209.67 L 121.14 210.40 C 120.53 211.00 120.52 211.98 121.11 212.59 C 121.71 213.20 122.69 213.22 123.30 212.62 L 124.06 211.89 C 124.67 211.29 124.68 210.31 124.09 209.70 C 123.49 209.08 122.51 209.07 121.90 209.67 Z M 121.14 210.40 L 120.40 211.12 C 119.79 211.71 119.77 212.69 120.37 213.31 C 120.96 213.92 121.94 213.94 122.55 213.34 L 123.30 212.62 C 123.91 212.03 123.93 211.05 123.33 210.44 C 122.74 209.82 121.76 209.81 121.14 210.40 Z M 120.41 211.12 L 119.68 211.82 C 119.06 212.41 119.05 213.39 119.64 214.01 C 120.23 214.62 121.21 214.64 121.82 214.05 L 122.55 213.34 C 123.17 212.75 123.18 211.77 122.59 211.16 C 122.00 210.54 121.02 210.53 120.41 211.12 Z M 119.68 211.82 L 118.96 212.51 C 118.35 213.10 118.33 214.07 118.92 214.69 C 119.51 215.31 120.49 215.33 121.11 214.73 L 121.82 214.05 C 122.44 213.46 122.46 212.48 121.87 211.86 C 121.27 211.25 120.30 211.23 119.68 211.82 Z M 118.97 212.50 L 118.26 213.18 C 117.65 213.77 117.62 214.75 118.21 215.36 C 118.80 215.98 119.78 216.00 120.40 215.41 L 121.10 214.74 C 121.72 214.15 121.74 213.17 121.15 212.55 C 120.56 211.94 119.58 211.91 118.97 212.50 Z M 118.26 213.18 L 117.57 213.84 C 116.95 214.43 116.93 215.41 117.52 216.03 C 118.10 216.64 119.08 216.67 119.70 216.08 L 120.40 215.41 C 121.01 214.82 121.03 213.85 120.45 213.23 C 119.86 212.61 118.88 212.59 118.26 213.18 Z M 117.57 213.84 L 116.88 214.50 C 116.26 215.09 116.24 216.07 116.82 216.68 C 117.41 217.30 118.39 217.32 119.01 216.74 L 119.70 216.08 C 120.31 215.49 120.34 214.51 119.75 213.90 C 119.16 213.28 118.18 213.26 117.57 213.84 Z M 116.88 214.50 L 116.17 215.18 C 115.55 215.76 115.53 216.74 116.12 217.36 C 116.70 217.97 117.68 218.00 118.30 217.41 L 119.01 216.74 C 119.62 216.15 119.65 215.17 119.06 214.56 C 118.47 213.94 117.49 213.91 116.88 214.50 Z M 116.17 215.18 L 115.44 215.87 C 114.82 216.46 114.80 217.44 115.38 218.05 C 115.97 218.67 116.95 218.70 117.57 218.11 L 118.30 217.41 C 118.91 216.82 118.94 215.85 118.35 215.23 C 117.76 214.61 116.79 214.59 116.17 215.18 Z M 115.44 215.87 L 114.71 216.57 C 114.09 217.15 114.07 218.13 114.65 218.75 C 115.24 219.37 116.22 219.39 116.84 218.80 L 117.57 218.11 C 118.18 217.52 118.21 216.54 117.62 215.93 C 117.03 215.31 116.05 215.28 115.44 215.87 Z M 114.71 216.56 L 113.98 217.25 C 113.37 217.84 113.34 218.82 113.93 219.44 C 114.52 220.06 115.50 220.08 116.11 219.49 L 116.84 218.80 C 117.46 218.21 117.48 217.24 116.89 216.62 C 116.30 216.00 115.33 215.98 114.71 216.56 Z M 113.98 217.25 L 113.26 217.94 C 112.64 218.53 112.62 219.51 113.21 220.13 C 113.79 220.75 114.77 220.77 115.39 220.18 L 116.11 219.49 C 116.73 218.91 116.76 217.93 116.17 217.31 C 115.58 216.69 114.60 216.67 113.98 217.25 Z M 113.26 217.94 L 112.54 218.63 C 111.92 219.22 111.90 220.19 112.48 220.81 C 113.07 221.43 114.05 221.46 114.67 220.87 L 115.39 220.18 C 116.01 219.59 116.03 218.61 115.45 218.00 C 114.86 217.38 113.88 217.35 113.26 217.94 Z M 112.54 218.63 L 111.82 219.31 C 111.20 219.90 111.18 220.88 111.76 221.50 C 112.35 222.12 113.33 222.14 113.95 221.55 L 114.67 220.87 C 115.29 220.28 115.32 219.30 114.73 218.68 C 114.14 218.06 113.16 218.04 112.54 218.63 Z M 111.82 219.31 L 111.10 219.99 C 110.48 220.58 110.46 221.56 111.04 222.18 C 111.63 222.80 112.61 222.83 113.23 222.24 L 113.95 221.55 C 114.57 220.96 114.60 219.98 114.01 219.36 C 113.42 218.74 112.44 218.72 111.82 219.31 Z M 111.10 219.99 L 111.03 220.06 C 110.41 220.65 110.38 221.63 110.97 222.25 C 111.56 222.87 112.54 222.90 113.16 222.31 L 113.23 222.24 C 113.85 221.65 113.88 220.67 113.29 220.05 C 112.70 219.43 111.72 219.40 111.10 219.99 Z"
      fill="black"
      fill-rule="nonzero" /></svg>