<svg xmlns="http://www.w3.org/2000/svg" width="300" height="300" viewBox="0 0 300 300">
<path d="M 158.03 109.75 L 157.55 110.49 C 157.08 111.20 157.28 112.15 157.99 112.62 C 158.70 113.09 159.65 112.89 160.12 112.18 L 160.61 111.43 C 161.07 110.72 160.88 109.77 160.17 109.30 C 159.45 108.84 158.50 109.03 158.03 109.75 Z M 157.48 110.52 L 157.00 111.33 C 156.55 112.08 156.79 113.05 157.54 113.49 C 158.29 113.94 159.26 113.70 159.71 112.95 L 160.19 112.14 C 160.64 111.39 160.39 110.42 159.64 109.98 C 158.89 109.53 157.92 109.77 157.48 110.52 Z M 156.91 111.41 L 156.44 112.33 C 156.04 113.13 156.36 114.11 157.16 114.51 C 157.96 114.91 158.93 114.59 159.34 113.79 L 159.80 112.87 C 160.20 112.07 159.88 111.09 159.08 110.69 C 158.28 110.29 157.31 110.61 156.91 111.41 Z M 156.35 112.44 L 155.93 113.47 C 155.59 114.32 156.00 115.29 156.85 115.63 C 157.70 115.97 158.67 115.56 159.01 114.71 L 159.42 113.68 C 159.77 112.83 159.36 111.87 158.51 111.52 C 157.66 111.18 156.69 111.59 156.35 112.44 Z M 155.88 113.56 L 155.59 114.44 C 155.30 115.32 155.77 116.27 156.65 116.56 C 157.53 116.85 158.48 116.38 158.77 115.50 L 159.06 114.62 C 159.36 113.74 158.88 112.79 158.00 112.50 C 157.12 112.21 156.17 112.68 155.88 113.56 Z M 155.56 114.50 L 155.28 115.45 C 155.02 116.34 155.53 117.28 156.43 117.54 C 157.32 117.80 158.25 117.29 158.51 116.40 L 158.79 115.44 C 159.05 114.55 158.54 113.62 157.65 113.36 C 156.76 113.10 155.83 113.61 155.56 114.50 Z M 155.27 115.49 L 155.00 116.49 C 154.76 117.39 155.30 118.31 156.20 118.55 C 157.10 118.79 158.02 118.26 158.26 117.36 L 158.53 116.36 C 158.77 115.46 158.23 114.53 157.33 114.29 C 156.43 114.05 155.51 114.59 155.27 115.49 Z M 154.99 116.51 L 154.74 117.53 C 154.51 118.43 155.06 119.35 155.97 119.58 C 156.88 119.81 157.80 119.25 158.02 118.35 L 158.28 117.33 C 158.50 116.43 157.95 115.51 157.04 115.28 C 156.14 115.05 155.22 115.61 154.99 116.51 Z M 154.73 117.54 L 154.49 118.54 C 154.27 119.45 154.83 120.37 155.74 120.58 C 156.66 120.80 157.57 120.24 157.79 119.33 L 158.03 118.33 C 158.25 117.42 157.69 116.50 156.78 116.29 C 155.87 116.07 154.95 116.63 154.73 117.54 Z M 154.48 118.54 L 154.24 119.55 C 154.03 120.47 154.59 121.38 155.51 121.60 C 156.42 121.82 157.34 121.25 157.56 120.34 L 157.80 119.33 C 158.01 118.41 157.45 117.50 156.53 117.28 C 155.62 117.06 154.70 117.63 154.48 118.54 Z M 154.24 119.55 L 154.01 120.54 C 153.79 121.46 154.36 122.37 155.27 122.59 C 156.19 122.81 157.11 122.24 157.32 121.32 L 157.56 120.34 C 157.78 119.42 157.21 118.50 156.29 118.29 C 155.38 118.07 154.46 118.64 154.24 119.55 Z M 154.01 120.54 L 153.78 121.50 C 153.56 122.41 154.13 123.33 155.05 123.55 C 155.96 123.77 156.88 123.20 157.10 122.28 L 157.33 121.33 C 157.54 120.41 156.98 119.49 156.06 119.27 C 155.14 119.05 154.22 119.62 154.01 120.54 Z M 153.78 121.49 L 153.55 122.44 C 153.33 123.36 153.90 124.28 154.82 124.50 C 155.74 124.72 156.66 124.15 156.88 123.23 L 157.10 122.28 C 157.32 121.37 156.75 120.45 155.83 120.23 C 154.92 120.01 154.00 120.58 153.78 121.49 Z M 153.55 122.44 L 153.32 123.40 C 153.10 124.32 153.67 125.24 154.59 125.46 C 155.51 125.68 156.43 125.11 156.65 124.19 L 156.88 123.24 C 157.10 122.32 156.53 121.39 155.61 121.18 C 154.69 120.96 153.77 121.52 153.55 122.44 Z M 153.32 123.40 L 153.10 124.32 C 152.88 125.24 153.44 126.16 154.36 126.38 C 155.28 126.61 156.21 126.04 156.43 125.12 L 156.65 124.20 C 156.87 123.28 156.30 122.35 155.38 122.13 C 154.47 121.91 153.54 122.48 153.32 123.40 Z M 153.10 124.32 L 152.87 125.24 C 152.65 126.16 153.22 127.09 154.14 127.31 C 155.06 127.53 155.98 126.97 156.20 126.05 L 156.43 125.12 C 156.65 124.20 156.09 123.28 155.17 123.06 C 154.25 122.83 153.32 123.40 153.10 124.32 Z M 152.87 125.24 L 152.64 126.19 C 152.42 127.11 152.98 128.04 153.90 128.26 C 154.82 128.49 155.75 127.92 155.97 127.00 L 156.20 126.05 C 156.43 125.13 155.87 124.20 154.95 123.98 C 154.03 123.75 153.10 124.32 152.87 125.24 Z M 152.64 126.18 L 152.40 127.16 C 152.17 128.08 152.73 129.01 153.65 129.24 C 154.57 129.47 155.50 128.91 155.73 127.99 L 155.97 127.01 C 156.20 126.09 155.64 125.16 154.72 124.93 C 153.80 124.70 152.87 125.26 152.64 126.18 Z M 152.40 127.16 L 152.14 128.17 C 151.91 129.09 152.47 130.02 153.39 130.25 C 154.31 130.49 155.24 129.93 155.47 129.01 L 155.73 128.00 C 155.96 127.08 155.40 126.14 154.48 125.91 C 153.56 125.68 152.63 126.24 152.40 127.16 Z M 152.14 128.16 L 151.88 129.19 C 151.64 130.11 152.20 131.04 153.12 131.28 C 154.04 131.52 154.97 130.96 155.21 130.04 L 155.47 129.02 C 155.71 128.10 155.15 127.16 154.23 126.92 C 153.31 126.69 152.38 127.24 152.14 128.16 Z M 151.88 129.18 L 151.64 130.09 C 151.40 131.01 151.95 131.95 152.87 132.19 C 153.79 132.43 154.73 131.88 154.97 130.96 L 155.21 130.05 C 155.45 129.13 154.90 128.19 153.98 127.95 C 153.06 127.71 152.12 128.26 151.88 129.18 Z M 151.64 130.08 L 151.39 131.02 C 151.15 131.94 151.70 132.88 152.61 133.12 C 153.53 133.37 154.48 132.82 154.72 131.90 L 154.97 130.97 C 155.21 130.05 154.67 129.11 153.75 128.86 C 152.83 128.62 151.89 129.17 151.64 130.08 Z M 151.40 131.01 L 151.14 131.96 C 150.89 132.88 151.43 133.82 152.34 134.07 C 153.26 134.32 154.21 133.78 154.46 132.86 L 154.72 131.91 C 154.97 131.00 154.43 130.05 153.51 129.80 C 152.59 129.55 151.65 130.09 151.40 131.01 Z M 151.14 131.95 L 150.87 132.92 C 150.61 133.83 151.14 134.79 152.06 135.04 C 152.98 135.30 153.93 134.76 154.19 133.85 L 154.46 132.88 C 154.71 131.96 154.18 131.01 153.26 130.75 C 152.35 130.50 151.39 131.03 151.14 131.95 Z M 150.87 132.90 L 150.58 133.89 C 150.32 134.81 150.85 135.76 151.76 136.03 C 152.68 136.29 153.63 135.76 153.90 134.85 L 154.18 133.86 C 154.45 132.94 153.92 131.99 153.00 131.73 C 152.09 131.46 151.13 131.99 150.87 132.90 Z M 150.59 133.88 L 150.29 134.88 C 150.02 135.80 150.54 136.76 151.45 137.03 C 152.36 137.30 153.32 136.78 153.60 135.87 L 153.90 134.86 C 154.17 133.95 153.65 132.99 152.73 132.72 C 151.82 132.44 150.86 132.97 150.59 133.88 Z M 150.29 134.87 L 150.00 135.83 C 149.72 136.74 150.23 137.70 151.14 137.98 C 152.05 138.26 153.02 137.75 153.30 136.84 L 153.59 135.88 C 153.87 134.97 153.36 134.00 152.45 133.72 C 151.54 133.44 150.57 133.96 150.29 134.87 Z M 150.00 135.81 L 149.71 136.73 C 149.42 137.64 149.93 138.61 150.84 138.90 C 151.75 139.19 152.72 138.68 153.00 137.77 L 153.30 136.85 C 153.58 135.94 153.08 134.97 152.17 134.69 C 151.26 134.40 150.29 134.90 150.00 135.81 Z M 149.71 136.72 L 149.41 137.65 C 149.12 138.56 149.61 139.53 150.52 139.83 C 151.43 140.12 152.41 139.62 152.70 138.72 L 153.00 137.79 C 153.30 136.88 152.80 135.90 151.89 135.61 C 150.98 135.31 150.01 135.81 149.71 136.72 Z M 149.41 137.64 L 149.10 138.58 C 148.80 139.49 149.29 140.47 150.20 140.77 C 151.11 141.07 152.08 140.58 152.39 139.67 L 152.70 138.73 C 153.00 137.82 152.51 136.84 151.60 136.54 C 150.69 136.24 149.71 136.73 149.41 137.64 Z M 149.10 138.57 L 148.78 139.52 C 148.48 140.43 148.96 141.41 149.87 141.72 C 150.77 142.02 151.75 141.54 152.06 140.63 L 152.38 139.68 C 152.69 138.77 152.20 137.79 151.30 137.49 C 150.39 137.18 149.41 137.67 149.10 138.57 Z M 148.78 139.52 L 148.45 140.48 C 148.14 141.38 148.62 142.37 149.53 142.68 C 150.43 142.99 151.42 142.51 151.73 141.60 L 152.06 140.64 C 152.37 139.74 151.89 138.75 150.98 138.44 C 150.08 138.13 149.09 138.61 148.78 139.52 Z M 148.45 140.47 L 148.11 141.45 C 147.80 142.35 148.28 143.34 149.18 143.65 C 150.08 143.97 151.07 143.49 151.39 142.59 L 151.73 141.61 C 152.04 140.71 151.56 139.72 150.66 139.41 C 149.76 139.09 148.77 139.57 148.45 140.47 Z M 148.12 141.44 L 147.77 142.41 C 147.46 143.31 147.93 144.30 148.83 144.62 C 149.73 144.94 150.72 144.46 151.04 143.56 L 151.38 142.59 C 151.70 141.69 151.23 140.70 150.33 140.38 C 149.43 140.06 148.43 140.54 148.12 141.44 Z M 147.78 142.40 L 147.45 143.30 C 147.13 144.20 147.60 145.20 148.50 145.52 C 149.41 145.84 150.40 145.37 150.72 144.47 L 151.04 143.57 C 151.36 142.66 150.89 141.67 149.99 141.35 C 149.09 141.03 148.10 141.50 147.78 142.40 Z M 147.46 143.30 L 147.13 144.21 C 146.80 145.11 147.27 146.10 148.17 146.43 C 149.07 146.75 150.06 146.29 150.39 145.38 L 150.72 144.47 C 151.04 143.57 150.58 142.58 149.68 142.25 C 148.77 141.93 147.78 142.40 147.46 143.30 Z M 147.13 144.20 L 146.79 145.12 C 146.46 146.02 146.93 147.02 147.83 147.35 C 148.73 147.67 149.72 147.21 150.05 146.31 L 150.39 145.39 C 150.72 144.49 150.25 143.50 149.35 143.17 C 148.45 142.84 147.46 143.30 147.13 144.20 Z M 146.79 145.11 L 146.45 146.04 C 146.12 146.94 146.58 147.94 147.47 148.27 C 148.37 148.61 149.37 148.15 149.70 147.25 L 150.05 146.32 C 150.38 145.42 149.92 144.42 149.02 144.09 C 148.13 143.76 147.13 144.21 146.79 145.11 Z M 146.45 146.04 L 146.10 146.98 C 145.76 147.87 146.21 148.88 147.11 149.21 C 148.01 149.55 149.01 149.10 149.35 148.20 L 149.70 147.26 C 150.04 146.36 149.58 145.36 148.69 145.02 C 147.79 144.68 146.79 145.14 146.45 146.04 Z M 146.10 146.97 L 145.74 147.92 C 145.40 148.82 145.84 149.82 146.74 150.16 C 147.64 150.50 148.64 150.06 148.98 149.16 L 149.34 148.21 C 149.69 147.31 149.24 146.31 148.34 145.97 C 147.45 145.62 146.44 146.07 146.10 146.97 Z M 145.74 147.91 L 145.37 148.88 C 145.02 149.77 145.46 150.78 146.36 151.13 C 147.25 151.47 148.26 151.03 148.60 150.13 L 148.98 149.17 C 149.32 148.27 148.88 147.27 147.99 146.92 C 147.09 146.58 146.09 147.02 145.74 147.91 Z M 145.37 148.87 L 144.98 149.85 C 144.63 150.74 145.07 151.75 145.96 152.10 C 146.86 152.45 147.87 152.01 148.22 151.12 L 148.60 150.14 C 148.95 149.25 148.51 148.24 147.62 147.89 C 146.73 147.54 145.72 147.98 145.37 148.87 Z M 144.99 149.84 L 144.62 150.75 C 144.27 151.64 144.70 152.65 145.59 153.01 C 146.48 153.36 147.49 152.93 147.85 152.04 L 148.21 151.13 C 148.57 150.24 148.14 149.23 147.25 148.87 C 146.36 148.51 145.34 148.95 144.99 149.84 Z M 144.63 150.74 L 144.25 151.66 C 143.89 152.55 144.32 153.56 145.21 153.92 C 146.10 154.29 147.11 153.86 147.47 152.97 L 147.85 152.05 C 148.21 151.16 147.78 150.15 146.89 149.78 C 146.00 149.42 144.99 149.85 144.63 150.74 Z M 144.26 151.65 L 143.87 152.58 C 143.51 153.47 143.93 154.48 144.82 154.85 C 145.71 155.21 146.72 154.79 147.09 153.90 L 147.47 152.98 C 147.83 152.09 147.41 151.07 146.52 150.71 C 145.64 150.34 144.62 150.77 144.26 151.65 Z M 143.88 152.57 L 143.49 153.50 C 143.12 154.39 143.54 155.41 144.42 155.77 C 145.31 156.14 146.33 155.73 146.70 154.84 L 147.08 153.91 C 147.45 153.03 147.04 152.01 146.15 151.64 C 145.26 151.27 144.25 151.69 143.88 152.57 Z M 143.49 153.49 L 143.10 154.42 C 142.72 155.31 143.14 156.33 144.02 156.70 C 144.90 157.08 145.92 156.66 146.30 155.78 L 146.69 154.85 C 147.07 153.97 146.65 152.95 145.77 152.57 C 144.89 152.20 143.87 152.61 143.49 153.49 Z M 143.10 154.42 L 142.70 155.34 C 142.33 156.23 142.73 157.25 143.61 157.63 C 144.50 158.00 145.52 157.60 145.90 156.71 L 146.30 155.79 C 146.67 154.91 146.27 153.88 145.38 153.51 C 144.50 153.13 143.48 153.53 143.10 154.42 Z M 142.71 155.34 L 142.31 156.26 C 141.92 157.14 142.33 158.16 143.21 158.54 C 144.09 158.93 145.11 158.52 145.49 157.64 L 145.89 156.72 C 146.28 155.84 145.87 154.82 144.99 154.44 C 144.11 154.05 143.09 154.46 142.71 155.34 Z M 142.31 156.25 L 141.91 157.16 C 141.52 158.04 141.92 159.07 142.79 159.45 C 143.67 159.84 144.70 159.44 145.09 158.57 L 145.49 157.65 C 145.88 156.78 145.48 155.75 144.60 155.36 C 143.72 154.97 142.70 155.37 142.31 156.25 Z M 141.91 157.15 L 141.50 158.07 C 141.11 158.94 141.50 159.97 142.38 160.36 C 143.25 160.76 144.28 160.36 144.67 159.49 L 145.08 158.58 C 145.47 157.70 145.08 156.67 144.21 156.28 C 143.33 155.89 142.30 156.28 141.91 157.15 Z M 141.51 158.06 L 141.08 158.99 C 140.68 159.86 141.07 160.89 141.94 161.29 C 142.82 161.69 143.85 161.30 144.24 160.43 L 144.67 159.50 C 145.07 158.62 144.68 157.59 143.81 157.19 C 142.93 156.80 141.90 157.18 141.51 158.06 Z M 141.09 158.98 L 140.66 159.90 C 140.26 160.77 140.64 161.80 141.51 162.21 C 142.38 162.61 143.41 162.23 143.81 161.36 L 144.24 160.44 C 144.64 159.57 144.26 158.54 143.39 158.13 C 142.52 157.73 141.49 158.11 141.09 158.98 Z M 140.66 159.89 L 140.24 160.80 C 139.83 161.67 140.20 162.70 141.07 163.11 C 141.94 163.52 142.97 163.15 143.38 162.28 L 143.81 161.37 C 144.22 160.50 143.84 159.47 142.97 159.06 C 142.11 158.65 141.07 159.02 140.66 159.89 Z M 140.24 160.79 L 139.81 161.69 C 139.40 162.56 139.77 163.59 140.63 164.01 C 141.50 164.42 142.54 164.05 142.95 163.19 L 143.38 162.29 C 143.79 161.42 143.42 160.38 142.56 159.97 C 141.69 159.56 140.65 159.93 140.24 160.79 Z M 139.82 161.68 L 139.39 162.58 C 138.97 163.44 139.33 164.48 140.19 164.90 C 141.06 165.31 142.09 164.95 142.51 164.09 L 142.94 163.20 C 143.36 162.33 143.00 161.29 142.14 160.88 C 141.27 160.46 140.24 160.82 139.82 161.68 Z M 139.39 162.57 L 138.95 163.45 C 138.53 164.32 138.89 165.36 139.75 165.78 C 140.61 166.20 141.65 165.85 142.07 164.98 L 142.51 164.10 C 142.93 163.24 142.57 162.20 141.71 161.77 C 140.85 161.35 139.81 161.71 139.39 162.57 Z M 138.96 163.45 L 138.52 164.33 C 138.09 165.19 138.44 166.23 139.30 166.66 C 140.16 167.08 141.20 166.73 141.63 165.88 L 142.07 164.99 C 142.49 164.13 142.14 163.09 141.29 162.67 C 140.43 162.24 139.39 162.59 138.96 163.45 Z M 138.52 164.32 L 138.08 165.20 C 137.65 166.06 137.99 167.10 138.85 167.53 C 139.70 167.96 140.75 167.62 141.18 166.77 L 141.62 165.88 C 142.05 165.03 141.71 163.99 140.85 163.55 C 140.00 163.12 138.96 163.47 138.52 164.32 Z M 138.08 165.19 L 137.63 166.08 C 137.19 166.93 137.53 167.98 138.39 168.42 C 139.24 168.85 140.28 168.51 140.72 167.66 L 141.17 166.77 C 141.61 165.92 141.27 164.87 140.42 164.44 C 139.56 164.00 138.52 164.34 138.08 165.19 Z M 137.63 166.07 L 137.17 166.96 C 136.73 167.81 137.07 168.86 137.92 169.30 C 138.77 169.74 139.82 169.41 140.26 168.56 L 140.72 167.67 C 141.16 166.82 140.83 165.77 139.97 165.33 C 139.12 164.89 138.07 165.22 137.63 166.07 Z M 137.18 166.95 L 136.71 167.84 C 136.27 168.69 136.59 169.74 137.44 170.18 C 138.29 170.63 139.34 170.30 139.79 169.45 L 140.25 168.57 C 140.70 167.72 140.37 166.67 139.52 166.22 C 138.67 165.78 137.62 166.10 137.18 166.95 Z M 136.72 167.83 L 136.25 168.72 C 135.80 169.56 136.12 170.62 136.97 171.07 C 137.81 171.52 138.87 171.19 139.32 170.35 L 139.79 169.46 C 140.24 168.61 139.91 167.56 139.07 167.11 C 138.22 166.66 137.17 166.98 136.72 167.83 Z M 136.25 168.71 L 135.78 169.59 C 135.32 170.43 135.64 171.49 136.48 171.94 C 137.33 172.40 138.38 172.08 138.84 171.24 L 139.31 170.35 C 139.77 169.51 139.45 168.45 138.61 168.00 C 137.76 167.54 136.70 167.86 136.25 168.71 Z M 135.78 169.58 L 135.30 170.46 C 134.84 171.30 135.15 172.36 135.99 172.82 C 136.84 173.28 137.89 172.97 138.35 172.13 L 138.83 171.25 C 139.29 170.40 138.98 169.35 138.14 168.89 C 137.30 168.43 136.24 168.74 135.78 169.58 Z M 135.30 170.45 L 134.82 171.32 C 134.35 172.17 134.66 173.23 135.50 173.69 C 136.34 174.16 137.40 173.85 137.87 173.01 L 138.35 172.13 C 138.82 171.29 138.51 170.23 137.67 169.77 C 136.83 169.30 135.77 169.61 135.30 170.45 Z M 134.82 171.32 L 134.34 172.19 C 133.87 173.02 134.16 174.09 135.00 174.56 C 135.84 175.03 136.90 174.73 137.37 173.89 L 137.86 173.02 C 138.33 172.18 138.03 171.12 137.20 170.65 C 136.36 170.18 135.29 170.48 134.82 171.32 Z M 134.34 172.18 L 133.84 173.05 C 133.37 173.89 133.66 174.95 134.50 175.43 C 135.33 175.90 136.40 175.61 136.87 174.77 L 137.37 173.90 C 137.85 173.06 137.55 172.00 136.72 171.52 C 135.88 171.05 134.82 171.34 134.34 172.18 Z M 133.85 173.04 L 133.34 173.92 C 132.86 174.76 133.15 175.82 133.98 176.30 C 134.81 176.78 135.88 176.50 136.36 175.66 L 136.87 174.78 C 137.35 173.95 137.06 172.88 136.23 172.40 C 135.39 171.92 134.33 172.21 133.85 173.04 Z M 133.35 173.91 L 132.83 174.79 C 132.35 175.62 132.63 176.69 133.46 177.17 C 134.29 177.66 135.36 177.38 135.84 176.55 L 136.35 175.67 C 136.84 174.84 136.56 173.78 135.73 173.29 C 134.90 172.80 133.83 173.08 133.35 173.91 Z M 132.84 174.78 L 132.33 175.65 C 131.83 176.47 132.11 177.54 132.94 178.03 C 133.76 178.52 134.83 178.25 135.32 177.42 L 135.84 176.56 C 136.33 175.73 136.05 174.66 135.23 174.17 C 134.40 173.68 133.33 173.95 132.84 174.78 Z M 132.33 175.64 L 131.81 176.50 C 131.32 177.32 131.59 178.39 132.41 178.89 C 133.23 179.38 134.31 179.12 134.80 178.29 L 135.32 177.43 C 135.81 176.61 135.55 175.54 134.72 175.04 C 133.90 174.55 132.83 174.81 132.33 175.64 Z M 131.82 176.49 L 131.30 177.34 C 130.80 178.16 131.06 179.23 131.88 179.73 C 132.71 180.23 133.78 179.97 134.28 179.15 L 134.80 178.30 C 135.30 177.48 135.04 176.41 134.21 175.91 C 133.39 175.40 132.32 175.67 131.82 176.49 Z M 131.31 177.33 L 130.79 178.17 C 130.28 178.99 130.54 180.06 131.36 180.57 C 132.17 181.07 133.25 180.82 133.75 180.00 L 134.27 179.16 C 134.78 178.34 134.52 177.27 133.70 176.76 C 132.89 176.26 131.81 176.51 131.31 177.33 Z M 130.79 178.16 L 130.27 179.00 C 129.76 179.81 130.01 180.89 130.83 181.40 C 131.64 181.91 132.72 181.66 133.23 180.84 L 133.75 180.01 C 134.26 179.19 134.01 178.12 133.19 177.61 C 132.38 177.10 131.30 177.35 130.79 178.16 Z M 130.28 178.99 L 129.74 179.83 C 129.23 180.64 129.47 181.72 130.29 182.23 C 131.10 182.75 132.17 182.51 132.69 181.69 L 133.22 180.85 C 133.74 180.04 133.49 178.96 132.68 178.45 C 131.87 177.93 130.79 178.18 130.28 178.99 Z M 129.75 179.82 L 129.19 180.70 C 128.67 181.51 128.91 182.58 129.72 183.10 C 130.53 183.62 131.61 183.38 132.12 182.57 L 132.68 181.70 C 133.20 180.89 132.96 179.82 132.15 179.30 C 131.35 178.78 130.27 179.01 129.75 179.82 Z M 129.20 180.69 L 128.64 181.55 C 128.12 182.35 128.35 183.43 129.15 183.95 C 129.96 184.48 131.04 184.25 131.56 183.44 L 132.12 182.58 C 132.64 181.77 132.41 180.70 131.60 180.17 C 130.80 179.65 129.72 179.88 129.20 180.69 Z M 128.65 181.54 L 128.09 182.39 C 127.57 183.19 127.79 184.27 128.59 184.80 C 129.40 185.32 130.47 185.10 131.00 184.29 L 131.56 183.45 C 132.08 182.64 131.86 181.57 131.05 181.04 C 130.25 180.51 129.17 180.74 128.65 181.54 Z M 128.10 182.38 L 127.54 183.22 C 127.02 184.02 127.24 185.10 128.04 185.63 C 128.84 186.16 129.91 185.94 130.44 185.14 L 131.00 184.30 C 131.52 183.50 131.30 182.42 130.50 181.89 C 129.70 181.36 128.63 181.58 128.10 182.38 Z M 127.55 183.21 L 127.00 184.04 C 126.47 184.83 126.69 185.91 127.48 186.44 C 128.28 186.98 129.36 186.76 129.89 185.96 L 130.44 185.14 C 130.97 184.34 130.75 183.26 129.96 182.73 C 129.16 182.20 128.08 182.42 127.55 183.21 Z M 127.01 184.03 L 126.46 184.84 C 125.93 185.64 126.14 186.72 126.94 187.25 C 127.73 187.78 128.81 187.57 129.34 186.78 L 129.89 185.97 C 130.42 185.17 130.21 184.09 129.41 183.56 C 128.62 183.02 127.54 183.24 127.01 184.03 Z M 126.47 184.84 L 125.93 185.63 C 125.39 186.43 125.60 187.51 126.40 188.04 C 127.19 188.58 128.27 188.37 128.80 187.57 L 129.34 186.78 C 129.88 185.99 129.67 184.91 128.87 184.37 C 128.08 183.84 127.00 184.04 126.47 184.84 Z M 125.93 185.63 L 125.36 186.47 C 124.82 187.26 125.03 188.34 125.82 188.88 C 126.61 189.42 127.69 189.21 128.23 188.42 L 128.80 187.58 C 129.34 186.79 129.13 185.71 128.34 185.17 C 127.55 184.63 126.47 184.84 125.93 185.63 Z M 125.37 186.47 L 124.79 187.31 C 124.25 188.10 124.45 189.18 125.24 189.72 C 126.03 190.26 127.11 190.05 127.65 189.27 L 128.22 188.42 C 128.76 187.63 128.56 186.55 127.77 186.02 C 126.98 185.48 125.90 185.68 125.37 186.47 Z M 124.79 187.31 L 124.22 188.14 C 123.68 188.93 123.88 190.01 124.67 190.55 C 125.46 191.09 126.53 190.89 127.07 190.10 L 127.64 189.27 C 128.18 188.48 127.98 187.40 127.20 186.86 C 126.41 186.32 125.33 186.52 124.79 187.31 Z M 124.23 188.14 L 123.66 188.96 C 123.12 189.74 123.31 190.82 124.10 191.36 C 124.88 191.90 125.96 191.71 126.50 190.92 L 127.07 190.10 C 127.61 189.32 127.41 188.24 126.63 187.70 C 125.85 187.16 124.77 187.35 124.23 188.14 Z M 123.67 188.96 L 123.10 189.77 C 122.56 190.55 122.75 191.62 123.53 192.17 C 124.31 192.71 125.39 192.52 125.93 191.74 L 126.50 190.93 C 127.04 190.14 126.85 189.07 126.07 188.53 C 125.28 187.98 124.21 188.17 123.67 188.96 Z M 123.11 189.76 L 122.54 190.57 C 122.00 191.34 122.18 192.42 122.96 192.97 C 123.74 193.51 124.82 193.32 125.36 192.54 L 125.93 191.74 C 126.47 190.96 126.28 189.89 125.51 189.34 C 124.73 188.79 123.65 188.98 123.11 189.76 Z M 122.55 190.56 L 121.98 191.36 C 121.43 192.14 121.62 193.21 122.39 193.76 C 123.17 194.31 124.24 194.12 124.79 193.35 L 125.36 192.55 C 125.91 191.77 125.72 190.70 124.95 190.15 C 124.17 189.60 123.10 189.79 122.55 190.56 Z M 121.99 191.36 L 121.37 192.22 C 120.82 192.99 121.00 194.06 121.78 194.61 C 122.55 195.17 123.62 194.99 124.17 194.21 L 124.79 193.35 C 125.34 192.58 125.16 191.51 124.39 190.96 C 123.61 190.40 122.54 190.58 121.99 191.36 Z M 121.38 192.21 L 120.76 193.08 C 120.21 193.84 120.38 194.92 121.15 195.47 C 121.92 196.02 122.99 195.85 123.54 195.08 L 124.16 194.22 C 124.72 193.45 124.54 192.38 123.77 191.82 C 123.01 191.27 121.93 191.45 121.38 192.21 Z M 120.77 193.07 L 120.16 193.91 C 119.60 194.68 119.77 195.75 120.54 196.30 C 121.30 196.86 122.37 196.69 122.93 195.92 L 123.54 195.08 C 124.09 194.32 123.92 193.25 123.16 192.69 C 122.39 192.14 121.32 192.31 120.77 193.07 Z M 120.17 193.91 L 119.57 194.72 C 119.01 195.49 119.18 196.55 119.94 197.11 C 120.70 197.67 121.77 197.50 122.32 196.74 L 122.92 195.93 C 123.48 195.17 123.31 194.10 122.55 193.54 C 121.79 192.99 120.72 193.15 120.17 193.91 Z M 119.58 194.72 L 119.00 195.50 C 118.44 196.25 118.60 197.32 119.36 197.88 C 120.12 198.44 121.18 198.28 121.74 197.52 L 122.32 196.75 C 122.87 195.99 122.71 194.92 121.96 194.36 C 121.20 193.80 120.14 193.96 119.58 194.72 Z M 119.01 195.49 L 118.46 196.23 C 117.90 196.98 118.06 198.04 118.81 198.60 C 119.56 199.17 120.63 199.01 121.19 198.26 L 121.73 197.53 C 122.29 196.77 122.14 195.71 121.39 195.15 C 120.64 194.59 119.57 194.74 119.01 195.49 Z M 118.47 196.22 L 117.83 197.07 C 117.27 197.82 117.42 198.88 118.16 199.44 C 118.91 200.01 119.97 199.86 120.54 199.11 L 121.18 198.26 C 121.74 197.52 121.59 196.46 120.85 195.89 C 120.10 195.33 119.04 195.47 118.47 196.22 Z M 117.84 197.06 L 117.18 197.93 C 116.61 198.67 116.75 199.73 117.49 200.30 C 118.23 200.87 119.29 200.73 119.86 199.99 L 120.52 199.12 C 121.09 198.38 120.95 197.32 120.21 196.75 C 119.47 196.18 118.41 196.32 117.84 197.06 Z M 117.19 197.93 L 116.58 198.71 C 116.01 199.44 116.14 200.50 116.87 201.07 C 117.61 201.64 118.66 201.51 119.23 200.78 L 119.84 200.00 C 120.41 199.26 120.28 198.21 119.55 197.63 C 118.82 197.06 117.76 197.20 117.19 197.93 Z M 116.59 198.71 L 116.03 199.42 C 115.46 200.15 115.58 201.20 116.31 201.77 C 117.04 202.35 118.09 202.22 118.66 201.49 L 119.22 200.78 C 119.80 200.05 119.67 199.00 118.94 198.43 C 118.22 197.86 117.16 197.98 116.59 198.71 Z M 116.04 199.42 L 115.47 200.14 C 114.90 200.86 115.02 201.91 115.75 202.48 C 116.47 203.05 117.52 202.93 118.09 202.21 L 118.65 201.49 C 119.23 200.77 119.10 199.72 118.38 199.15 C 117.66 198.58 116.61 198.70 116.04 199.42 Z M 115.50 200.12 L 114.83 200.94 C 114.25 201.65 114.36 202.69 115.07 203.27 C 115.78 203.85 116.82 203.74 117.40 203.03 L 118.07 202.22 C 118.64 201.51 118.54 200.47 117.83 199.89 C 117.12 199.31 116.08 199.42 115.50 200.12 Z M 114.91 200.87 L 114.24 201.59 C 113.62 202.25 113.66 203.29 114.32 203.91 C 114.99 204.53 116.03 204.49 116.65 203.83 L 117.32 203.11 C 117.94 202.44 117.90 201.40 117.24 200.78 C 116.57 200.16 115.53 200.20 114.91 200.87 Z M 114.40 201.45 L 113.68 202.05 C 112.99 202.63 112.89 203.65 113.47 204.35 C 114.04 205.04 115.07 205.14 115.76 204.56 L 116.49 203.96 C 117.18 203.39 117.28 202.36 116.70 201.67 C 116.13 200.97 115.10 200.88 114.40 201.45 Z M 113.92 201.90 L 113.07 202.38 C 112.30 202.82 112.02 203.81 112.47 204.59 C 112.91 205.37 113.90 205.64 114.67 205.20 L 115.52 204.71 C 116.30 204.27 116.57 203.28 116.13 202.51 C 115.69 201.73 114.70 201.46 113.92 201.90 Z M 113.28 202.30 L 112.35 202.67 C 111.53 203.00 111.13 203.93 111.46 204.76 C 111.79 205.58 112.72 205.98 113.54 205.65 L 114.47 205.28 C 115.29 204.95 115.69 204.02 115.36 203.19 C 115.03 202.37 114.10 201.97 113.28 202.30 Z M 112.46 202.64 L 111.49 202.95 C 110.66 203.22 110.20 204.12 110.46 204.96 C 110.73 205.79 111.63 206.26 112.47 205.99 L 113.43 205.68 C 114.27 205.41 114.73 204.51 114.46 203.67 C 114.19 202.84 113.30 202.37 112.46 202.64 Z M 111.52 202.95 L 111.37 203.00 C 110.53 203.26 110.06 204.14 110.31 204.98 C 110.57 205.82 111.45 206.29 112.29 206.03 L 112.44 205.99 C 113.28 205.73 113.75 204.85 113.50 204.01 C 113.24 203.17 112.36 202.70 111.52 202.95 Z"
      fill="black"
      fill-rule="nonzero" /><path d="M 137.97 155.39 L 138.99 155.42 C 139.84 155.44 140.55 154.78 140.58 153.93 C 140.60 153.08 139.94 152.37 139.09 152.34 L 138.07 152.31 C 137.22 152.29 136.51 152.95 136.48 153.80 C 136.46 154.65 137.13 155.36 137.97 155.39 Z M 138.94 155.43 L 139.95 155.49 C 140.81 155.54 141.54 154.89 141.59 154.04 C 141.65 153.19 141.00 152.45 140.15 152.40 L 139.14 152.34 C 138.28 152.28 137.55 152.93 137.50 153.78 C 137.44 154.64 138.09 155.37 138.94 155.43 Z M 139.85 155.49 L 140.84 155.62 C 141.69 155.73 142.47 155.12 142.58 154.27 C 142.69 153.41 142.09 152.63 141.23 152.52 L 140.25 152.40 C 139.39 152.29 138.61 152.89 138.50 153.75 C 138.39 154.60 139.00 155.38 139.85 155.49 Z M 140.68 155.60 L 141.64 155.82 C 142.48 156.02 143.33 155.49 143.52 154.65 C 143.72 153.80 143.19 152.96 142.35 152.76 L 141.39 152.54 C 140.55 152.35 139.70 152.87 139.51 153.72 C 139.31 154.56 139.84 155.40 140.68 155.60 Z M 141.43 155.77 L 142.35 156.12 C 143.16 156.43 144.08 156.02 144.39 155.20 C 144.70 154.39 144.29 153.47 143.47 153.16 L 142.56 152.82 C 141.74 152.51 140.83 152.92 140.52 153.73 C 140.21 154.55 140.62 155.46 141.43 155.77 Z M 142.12 156.02 L 142.96 156.50 C 143.72 156.94 144.70 156.67 145.13 155.91 C 145.57 155.15 145.30 154.18 144.54 153.74 L 143.70 153.26 C 142.94 152.82 141.97 153.09 141.53 153.85 C 141.09 154.61 141.36 155.59 142.12 156.02 Z M 142.78 156.40 L 143.57 157.00 C 144.28 157.53 145.28 157.40 145.82 156.69 C 146.35 155.98 146.22 154.98 145.51 154.44 L 144.72 153.84 C 144.01 153.31 143.01 153.44 142.47 154.15 C 141.94 154.86 142.07 155.86 142.78 156.40 Z M 143.44 156.91 L 144.18 157.59 C 144.84 158.20 145.86 158.16 146.47 157.51 C 147.08 156.85 147.04 155.83 146.38 155.22 L 145.64 154.53 C 144.99 153.93 143.96 153.96 143.35 154.62 C 142.75 155.27 142.78 156.30 143.44 156.91 Z M 144.09 157.52 L 144.78 158.27 C 145.39 158.93 146.43 158.96 147.09 158.35 C 147.75 157.74 147.78 156.70 147.17 156.04 L 146.48 155.30 C 145.86 154.64 144.83 154.60 144.17 155.21 C 143.51 155.83 143.47 156.86 144.09 157.52 Z M 144.71 158.21 L 145.36 158.98 C 145.94 159.68 146.98 159.77 147.68 159.19 C 148.37 158.60 148.47 157.57 147.88 156.87 L 147.24 156.10 C 146.65 155.40 145.62 155.31 144.92 155.89 C 144.22 156.47 144.13 157.51 144.71 158.21 Z M 145.31 158.94 L 145.93 159.74 C 146.49 160.46 147.53 160.59 148.25 160.03 C 148.98 159.47 149.11 158.43 148.55 157.71 L 147.93 156.91 C 147.37 156.19 146.33 156.06 145.60 156.62 C 144.88 157.18 144.75 158.22 145.31 158.94 Z M 145.90 159.70 L 146.48 160.50 C 147.02 161.24 148.06 161.40 148.80 160.86 C 149.54 160.32 149.70 159.28 149.16 158.54 L 148.58 157.74 C 148.04 157.00 147.00 156.84 146.26 157.38 C 145.52 157.92 145.36 158.96 145.90 159.70 Z M 146.45 160.47 L 147.01 161.27 C 147.53 162.03 148.57 162.22 149.32 161.70 C 150.08 161.17 150.27 160.14 149.75 159.38 L 149.19 158.58 C 148.67 157.82 147.63 157.63 146.88 158.15 C 146.12 158.68 145.93 159.71 146.45 160.47 Z M 146.99 161.24 L 147.53 162.07 C 148.04 162.84 149.07 163.05 149.84 162.54 C 150.61 162.04 150.82 161.01 150.31 160.24 L 149.77 159.41 C 149.26 158.64 148.23 158.43 147.46 158.94 C 146.70 159.44 146.48 160.48 146.99 161.24 Z M 147.52 162.05 L 148.06 162.91 C 148.56 163.68 149.59 163.91 150.37 163.42 C 151.14 162.92 151.37 161.89 150.88 161.11 L 150.33 160.26 C 149.83 159.48 148.80 159.25 148.03 159.75 C 147.25 160.24 147.02 161.27 147.52 162.05 Z M 148.05 162.90 L 148.55 163.69 C 149.04 164.48 150.07 164.71 150.85 164.22 C 151.64 163.74 151.87 162.71 151.38 161.92 L 150.89 161.13 C 150.40 160.34 149.37 160.11 148.58 160.60 C 147.80 161.08 147.56 162.11 148.05 162.90 Z M 148.55 163.69 L 149.04 164.48 C 149.52 165.27 150.56 165.51 151.34 165.03 C 152.13 164.54 152.37 163.51 151.88 162.72 L 151.39 161.93 C 150.90 161.14 149.87 160.90 149.09 161.39 C 148.30 161.87 148.06 162.90 148.55 163.69 Z M 149.03 164.48 L 149.54 165.31 C 150.03 166.10 151.06 166.34 151.85 165.86 C 152.64 165.38 152.88 164.34 152.40 163.56 L 151.89 162.73 C 151.40 161.94 150.37 161.69 149.58 162.18 C 148.80 162.66 148.55 163.69 149.03 164.48 Z M 149.54 165.31 L 150.07 166.17 C 150.55 166.96 151.59 167.21 152.38 166.72 C 153.17 166.24 153.41 165.21 152.93 164.42 L 152.40 163.56 C 151.92 162.77 150.88 162.52 150.09 163.00 C 149.30 163.49 149.06 164.52 149.54 165.31 Z M 150.07 166.17 L 150.62 167.07 C 151.10 167.86 152.14 168.10 152.93 167.62 C 153.72 167.13 153.97 166.10 153.48 165.31 L 152.93 164.42 C 152.45 163.63 151.41 163.38 150.62 163.86 C 149.83 164.35 149.58 165.38 150.07 166.17 Z M 150.62 167.07 L 151.19 168.00 C 151.67 168.79 152.71 169.03 153.50 168.54 C 154.29 168.06 154.54 167.02 154.05 166.23 L 153.48 165.31 C 152.99 164.51 151.96 164.27 151.17 164.76 C 150.37 165.24 150.13 166.28 150.62 167.07 Z M 151.19 168.00 L 151.68 168.80 C 152.17 169.59 153.21 169.84 154.00 169.35 C 154.80 168.86 155.04 167.82 154.55 167.03 L 154.05 166.22 C 153.56 165.43 152.52 165.19 151.73 165.68 C 150.94 166.17 150.70 167.21 151.19 168.00 Z M 151.68 168.81 L 152.18 169.61 C 152.67 170.40 153.72 170.64 154.51 170.15 C 155.30 169.65 155.54 168.61 155.05 167.82 L 154.55 167.02 C 154.06 166.23 153.01 165.99 152.22 166.48 C 151.43 166.98 151.19 168.02 151.68 168.81 Z M 152.18 169.61 L 152.69 170.43 C 153.19 171.22 154.23 171.46 155.03 170.96 C 155.82 170.47 156.06 169.42 155.56 168.63 L 155.05 167.81 C 154.55 167.02 153.51 166.78 152.71 167.28 C 151.92 167.77 151.68 168.82 152.18 169.61 Z M 152.69 170.44 L 153.22 171.27 C 153.72 172.07 154.77 172.30 155.56 171.80 C 156.35 171.30 156.59 170.26 156.09 169.46 L 155.56 168.62 C 155.06 167.83 154.01 167.59 153.22 168.09 C 152.43 168.59 152.19 169.64 152.69 170.44 Z M 153.22 171.28 L 153.76 172.14 C 154.27 172.93 155.32 173.17 156.11 172.67 C 156.91 172.16 157.14 171.11 156.64 170.32 L 156.09 169.46 C 155.59 168.66 154.54 168.43 153.74 168.93 C 152.95 169.44 152.72 170.49 153.22 171.28 Z M 153.76 172.15 L 154.33 173.03 C 154.83 173.82 155.89 174.06 156.68 173.55 C 157.47 173.04 157.71 171.99 157.20 171.20 L 156.64 170.31 C 156.13 169.52 155.08 169.29 154.28 169.79 C 153.49 170.30 153.26 171.35 153.76 172.15 Z M 154.32 173.03 L 154.90 173.94 C 155.41 174.73 156.47 174.97 157.27 174.46 C 158.06 173.95 158.29 172.89 157.78 172.10 L 157.20 171.19 C 156.69 170.40 155.64 170.16 154.84 170.67 C 154.05 171.18 153.81 172.24 154.32 173.03 Z M 154.90 173.94 L 155.45 174.79 C 155.96 175.59 157.02 175.82 157.82 175.31 C 158.61 174.79 158.84 173.73 158.33 172.94 L 157.78 172.09 C 157.27 171.29 156.21 171.06 155.42 171.58 C 154.62 172.09 154.39 173.15 154.90 173.94 Z M 155.45 174.80 L 155.98 175.61 C 156.49 176.41 157.55 176.64 158.35 176.12 C 159.15 175.61 159.37 174.55 158.86 173.75 L 158.33 172.93 C 157.81 172.14 156.75 171.91 155.96 172.43 C 155.16 172.94 154.93 174.00 155.45 174.80 Z M 155.98 175.62 L 156.52 176.45 C 157.03 177.24 158.10 177.47 158.89 176.95 C 159.69 176.43 159.91 175.37 159.40 174.57 L 158.86 173.75 C 158.34 172.95 157.28 172.73 156.48 173.24 C 155.69 173.76 155.46 174.82 155.98 175.62 Z M 156.52 176.45 L 157.07 177.29 C 157.59 178.08 158.65 178.31 159.45 177.79 C 160.24 177.27 160.46 176.20 159.94 175.41 L 159.40 174.57 C 158.88 173.77 157.81 173.55 157.02 174.07 C 156.22 174.59 156.00 175.66 156.52 176.45 Z M 157.07 177.30 L 157.62 178.14 C 158.15 178.93 159.22 179.15 160.01 178.63 C 160.80 178.11 161.02 177.04 160.50 176.24 L 159.94 175.40 C 159.42 174.61 158.35 174.39 157.56 174.91 C 156.76 175.43 156.54 176.50 157.07 177.30 Z M 157.63 178.15 L 158.19 178.99 C 158.71 179.78 159.78 180.00 160.58 179.47 C 161.37 178.95 161.59 177.88 161.06 177.08 L 160.50 176.24 C 159.97 175.44 158.90 175.23 158.11 175.76 C 157.31 176.28 157.10 177.35 157.63 178.15 Z M 158.19 179.00 L 158.76 179.84 C 159.29 180.63 160.36 180.85 161.15 180.31 C 161.94 179.78 162.15 178.71 161.62 177.92 L 161.06 177.08 C 160.53 176.28 159.45 176.07 158.66 176.60 C 157.87 177.13 157.66 178.21 158.19 179.00 Z M 158.76 179.85 L 159.33 180.69 C 159.86 181.48 160.94 181.69 161.73 181.15 C 162.52 180.62 162.72 179.54 162.19 178.75 L 161.62 177.91 C 161.09 177.12 160.01 176.92 159.22 177.45 C 158.43 177.99 158.22 179.06 158.76 179.85 Z M 159.33 180.70 L 159.90 181.53 C 160.44 182.32 161.52 182.52 162.30 181.98 C 163.09 181.44 163.30 180.37 162.76 179.58 L 162.19 178.75 C 161.65 177.96 160.57 177.75 159.78 178.29 C 158.99 178.83 158.79 179.91 159.33 180.70 Z M 159.91 181.54 L 160.48 182.37 C 161.02 183.15 162.10 183.35 162.89 182.81 C 163.67 182.26 163.87 181.18 163.32 180.40 L 162.75 179.57 C 162.21 178.79 161.13 178.59 160.34 179.13 C 159.56 179.68 159.36 180.75 159.91 181.54 Z M 160.48 182.38 L 161.06 183.20 C 161.61 183.98 162.69 184.17 163.47 183.62 C 164.25 183.07 164.44 181.99 163.89 181.21 L 163.32 180.39 C 162.77 179.61 161.69 179.42 160.91 179.97 C 160.12 180.52 159.94 181.59 160.48 182.38 Z M 161.06 183.21 L 161.64 184.02 C 162.20 184.80 163.28 184.98 164.06 184.43 C 164.84 183.87 165.02 182.79 164.47 182.01 L 163.89 181.20 C 163.33 180.42 162.25 180.24 161.47 180.79 C 160.69 181.35 160.51 182.43 161.06 183.21 Z M 161.65 184.03 L 162.23 184.84 C 162.79 185.61 163.87 185.79 164.65 185.23 C 165.43 184.67 165.60 183.59 165.04 182.81 L 164.46 182.00 C 163.90 181.23 162.82 181.05 162.04 181.61 C 161.26 182.17 161.09 183.25 161.65 184.03 Z M 162.24 184.85 L 162.83 185.65 C 163.39 186.42 164.48 186.59 165.25 186.02 C 166.02 185.46 166.19 184.37 165.62 183.60 L 165.03 182.80 C 164.47 182.03 163.38 181.86 162.61 182.43 C 161.84 182.99 161.67 184.08 162.24 184.85 Z M 162.83 185.66 L 163.43 186.46 C 164.00 187.23 165.09 187.39 165.86 186.81 C 166.62 186.24 166.78 185.16 166.21 184.39 L 165.61 183.59 C 165.04 182.82 163.96 182.66 163.19 183.24 C 162.42 183.81 162.26 184.89 162.83 185.66 Z M 163.44 186.47 L 164.04 187.27 C 164.62 188.03 165.71 188.18 166.47 187.60 C 167.24 187.02 167.38 185.94 166.81 185.17 L 166.20 184.38 C 165.62 183.61 164.54 183.46 163.77 184.04 C 163.01 184.62 162.86 185.71 163.44 186.47 Z M 164.05 187.28 L 164.67 188.08 C 165.25 188.83 166.34 188.97 167.10 188.39 C 167.86 187.80 168.00 186.71 167.41 185.96 L 166.80 185.16 C 166.21 184.40 165.12 184.26 164.36 184.85 C 163.61 185.43 163.47 186.52 164.05 187.28 Z M 164.67 188.09 L 165.29 188.87 C 165.88 189.62 166.97 189.75 167.72 189.16 C 168.48 188.57 168.61 187.47 168.01 186.72 L 167.40 185.94 C 166.81 185.19 165.72 185.06 164.97 185.65 C 164.21 186.25 164.08 187.34 164.67 188.09 Z M 165.29 188.88 L 165.91 189.65 C 166.51 190.40 167.61 190.52 168.35 189.93 C 169.10 189.33 169.22 188.23 168.63 187.49 L 168.00 186.71 C 167.41 185.96 166.31 185.84 165.57 186.44 C 164.82 187.04 164.70 188.13 165.29 188.88 Z M 165.92 189.66 L 166.55 190.44 C 167.16 191.18 168.25 191.30 168.99 190.69 C 169.74 190.09 169.85 188.99 169.25 188.25 L 168.62 187.48 C 168.01 186.73 166.92 186.62 166.18 187.22 C 165.43 187.83 165.32 188.92 165.92 189.66 Z M 166.56 190.45 L 167.20 191.22 C 167.81 191.96 168.90 192.07 169.64 191.46 C 170.38 190.85 170.49 189.75 169.88 189.01 L 169.24 188.24 C 168.63 187.50 167.53 187.39 166.79 188.00 C 166.05 188.61 165.95 189.71 166.56 190.45 Z M 167.20 191.23 L 167.85 192.00 C 168.46 192.74 169.56 192.83 170.29 192.22 C 171.03 191.60 171.13 190.51 170.51 189.77 L 169.87 189.00 C 169.25 188.27 168.16 188.17 167.42 188.78 C 166.69 189.40 166.59 190.49 167.20 191.23 Z M 167.85 192.01 L 168.50 192.78 C 169.12 193.51 170.22 193.60 170.95 192.98 C 171.68 192.36 171.78 191.26 171.16 190.53 L 170.51 189.76 C 169.89 189.03 168.79 188.94 168.06 189.56 C 167.33 190.18 167.23 191.28 167.85 192.01 Z M 168.51 192.78 L 169.16 193.55 C 169.79 194.28 170.89 194.36 171.61 193.74 C 172.34 193.11 172.43 192.02 171.80 191.29 L 171.15 190.52 C 170.52 189.79 169.43 189.71 168.70 190.33 C 167.97 190.96 167.89 192.06 168.51 192.78 Z M 169.17 193.56 L 169.83 194.31 C 170.46 195.04 171.55 195.12 172.28 194.49 C 173.00 193.86 173.08 192.76 172.45 192.04 L 171.80 191.28 C 171.17 190.55 170.07 190.47 169.34 191.10 C 168.62 191.73 168.54 192.83 169.17 193.56 Z M 169.83 194.32 L 170.50 195.08 C 171.13 195.80 172.23 195.87 172.95 195.24 C 173.67 194.61 173.74 193.51 173.11 192.79 L 172.45 192.03 C 171.82 191.31 170.72 191.24 170.00 191.87 C 169.27 192.50 169.20 193.60 169.83 194.32 Z M 170.50 195.09 L 171.17 195.84 C 171.81 196.56 172.91 196.63 173.63 195.99 C 174.35 195.36 174.41 194.26 173.78 193.54 L 173.11 192.78 C 172.47 192.06 171.37 192.00 170.65 192.63 C 169.93 193.27 169.87 194.37 170.50 195.09 Z M 171.18 195.85 L 171.85 196.60 C 172.49 197.32 173.59 197.38 174.30 196.74 C 175.02 196.10 175.08 195.00 174.44 194.28 L 173.77 193.53 C 173.13 192.82 172.03 192.76 171.32 193.40 C 170.60 194.04 170.54 195.13 171.18 195.85 Z M 171.86 196.61 L 172.53 197.35 C 173.18 198.06 174.27 198.12 174.99 197.48 C 175.70 196.83 175.75 195.73 175.11 195.02 L 174.44 194.28 C 173.79 193.57 172.69 193.51 171.98 194.15 C 171.27 194.80 171.21 195.90 171.86 196.61 Z M 172.54 197.36 L 173.21 198.10 C 173.86 198.81 174.96 198.86 175.67 198.21 C 176.38 197.56 176.43 196.46 175.78 195.75 L 175.10 195.02 C 174.45 194.31 173.36 194.26 172.65 194.91 C 171.94 195.55 171.89 196.65 172.54 197.36 Z M 173.22 198.11 L 173.90 198.84 C 174.55 199.54 175.65 199.58 176.35 198.93 C 177.06 198.28 177.10 197.18 176.45 196.48 L 175.77 195.75 C 175.12 195.04 174.02 195.00 173.32 195.65 C 172.61 196.30 172.57 197.40 173.22 198.11 Z M 173.91 198.85 L 174.59 199.57 C 175.24 200.27 176.34 200.31 177.04 199.65 C 177.74 199.00 177.78 197.90 177.12 197.20 L 176.44 196.47 C 175.79 195.77 174.69 195.74 173.99 196.39 C 173.29 197.05 173.25 198.15 173.91 198.85 Z M 174.59 199.58 L 175.28 200.30 C 175.93 200.99 177.03 201.02 177.73 200.36 C 178.42 199.70 178.45 198.60 177.79 197.91 L 177.11 197.19 C 176.45 196.50 175.35 196.47 174.66 197.13 C 173.96 197.78 173.93 198.88 174.59 199.58 Z M 175.28 200.30 L 175.97 201.02 C 176.63 201.71 177.73 201.73 178.42 201.07 C 179.11 200.40 179.13 199.30 178.47 198.61 L 177.79 197.90 C 177.12 197.21 176.02 197.19 175.33 197.85 C 174.64 198.52 174.62 199.61 175.28 200.30 Z M 175.98 201.03 L 176.69 201.76 C 177.35 202.44 178.45 202.46 179.14 201.79 C 179.83 201.12 179.84 200.02 179.17 199.33 L 178.46 198.60 C 177.79 197.92 176.69 197.90 176.01 198.57 C 175.32 199.24 175.31 200.34 175.98 201.03 Z M 176.69 201.76 L 177.41 202.49 C 178.08 203.17 179.18 203.18 179.86 202.50 C 180.54 201.83 180.55 200.73 179.88 200.05 L 179.16 199.33 C 178.49 198.64 177.39 198.64 176.71 199.31 C 176.03 199.98 176.02 201.08 176.69 201.76 Z M 177.41 202.50 L 178.13 203.21 C 178.81 203.89 179.91 203.89 180.58 203.21 C 181.26 202.53 181.26 201.43 180.58 200.75 L 179.87 200.04 C 179.19 199.36 178.09 199.36 177.41 200.04 C 176.73 200.72 176.74 201.82 177.41 202.50 Z M 178.14 203.22 L 178.85 203.92 C 179.54 204.60 180.64 204.59 181.31 203.90 C 181.98 203.22 181.97 202.12 181.29 201.45 L 180.57 200.74 C 179.89 200.07 178.79 200.08 178.12 200.76 C 177.44 201.44 177.45 202.54 178.14 203.22 Z M 178.86 203.93 L 179.58 204.63 C 180.27 205.30 181.37 205.28 182.03 204.59 C 182.70 203.90 182.69 202.80 182.00 202.13 L 181.28 201.44 C 180.59 200.77 179.49 200.78 178.82 201.47 C 178.15 202.16 178.17 203.26 178.86 203.93 Z M 179.58 204.64 L 180.30 205.32 C 181.00 205.99 182.10 205.96 182.76 205.27 C 183.43 204.57 183.40 203.47 182.71 202.81 L 181.99 202.12 C 181.30 201.46 180.19 201.48 179.53 202.18 C 178.87 202.87 178.89 203.97 179.58 204.64 Z M 180.31 205.33 L 181.03 206.01 C 181.73 206.67 182.83 206.63 183.49 205.94 C 184.15 205.24 184.11 204.13 183.42 203.47 L 182.70 202.80 C 182.00 202.14 180.90 202.17 180.24 202.87 C 179.58 203.57 179.61 204.67 180.31 205.33 Z M 181.04 206.02 L 181.75 206.68 C 182.46 207.34 183.56 207.30 184.22 206.59 C 184.87 205.89 184.83 204.79 184.12 204.13 L 183.41 203.47 C 182.70 202.81 181.60 202.85 180.95 203.56 C 180.29 204.26 180.33 205.36 181.04 206.02 Z M 181.76 206.69 L 182.51 207.37 C 183.22 208.02 184.32 207.97 184.97 207.26 C 185.62 206.55 185.57 205.45 184.86 204.80 L 184.11 204.12 C 183.40 203.47 182.30 203.52 181.65 204.23 C 181.01 204.94 181.05 206.04 181.76 206.69 Z M 182.52 207.38 L 183.27 208.05 C 183.98 208.70 185.08 208.64 185.72 207.93 C 186.37 207.21 186.31 206.11 185.59 205.47 L 184.85 204.80 C 184.13 204.15 183.03 204.21 182.39 204.92 C 181.75 205.64 181.81 206.74 182.52 207.38 Z M 183.28 208.06 L 184.02 208.72 C 184.74 209.36 185.84 209.30 186.48 208.58 C 187.11 207.86 187.05 206.77 186.33 206.13 L 185.58 205.46 C 184.87 204.83 183.77 204.89 183.13 205.61 C 182.49 206.32 182.56 207.42 183.28 208.06 Z M 184.03 208.73 L 184.78 209.39 C 185.50 210.02 186.60 209.95 187.23 209.23 C 187.86 208.51 187.79 207.41 187.07 206.78 L 186.32 206.12 C 185.60 205.49 184.51 205.56 183.87 206.28 C 183.24 207.00 183.31 208.10 184.03 208.73 Z M 184.79 209.39 L 185.54 210.05 C 186.27 210.67 187.36 210.60 187.99 209.87 C 188.62 209.15 188.54 208.06 187.82 207.43 L 187.06 206.78 C 186.34 206.15 185.25 206.23 184.62 206.95 C 183.99 207.67 184.07 208.77 184.79 209.39 Z M 185.55 210.05 L 186.31 210.70 C 187.03 211.32 188.12 211.24 188.75 210.51 C 189.37 209.79 189.29 208.70 188.56 208.07 L 187.81 207.42 C 187.08 206.80 185.99 206.88 185.37 207.61 C 184.74 208.33 184.83 209.43 185.55 210.05 Z M 186.31 210.70 L 187.07 211.35 C 187.80 211.97 188.89 211.88 189.51 211.15 C 190.13 210.43 190.04 209.34 189.31 208.72 L 188.56 208.07 C 187.83 207.45 186.74 207.54 186.12 208.26 C 185.50 208.99 185.59 210.08 186.31 210.70 Z M 187.08 211.35 L 187.84 212.00 C 188.57 212.61 189.66 212.52 190.28 211.80 C 190.89 211.07 190.80 209.98 190.07 209.36 L 189.31 208.71 C 188.58 208.10 187.49 208.19 186.88 208.92 C 186.26 209.64 186.35 210.73 187.08 211.35 Z M 187.85 212.00 L 188.64 212.66 C 189.37 213.28 190.46 213.18 191.07 212.45 C 191.68 211.72 191.59 210.64 190.86 210.02 L 190.07 209.36 C 189.34 208.75 188.25 208.84 187.64 209.57 C 187.03 210.30 187.12 211.39 187.85 212.00 Z M 188.65 212.67 L 189.44 213.33 C 190.17 213.94 191.26 213.84 191.86 213.10 C 192.47 212.37 192.37 211.29 191.64 210.68 L 190.85 210.02 C 190.12 209.41 189.03 209.51 188.43 210.24 C 187.82 210.97 187.92 212.06 188.65 212.67 Z M 189.45 213.33 L 190.24 213.98 C 190.98 214.58 192.06 214.48 192.66 213.74 C 193.26 213.01 193.16 211.93 192.42 211.33 L 191.63 210.68 C 190.90 210.07 189.81 210.18 189.21 210.91 C 188.61 211.65 188.72 212.73 189.45 213.33 Z M 190.26 213.99 L 191.05 214.63 C 191.78 215.22 192.86 215.10 193.46 214.37 C 194.05 213.63 193.94 212.55 193.20 211.95 L 192.41 211.32 C 191.67 210.72 190.59 210.84 190.00 211.58 C 189.40 212.32 189.52 213.40 190.26 213.99 Z M 191.06 214.64 L 191.85 215.25 C 192.59 215.84 193.67 215.71 194.25 214.96 C 194.84 214.22 194.71 213.14 193.97 212.56 L 193.18 211.94 C 192.44 211.36 191.36 211.49 190.78 212.23 C 190.19 212.97 190.32 214.05 191.06 214.64 Z M 191.87 215.26 L 192.64 215.86 C 193.39 216.43 194.47 216.29 195.04 215.54 C 195.61 214.79 195.47 213.71 194.72 213.14 L 193.94 212.55 C 193.19 211.97 192.12 212.12 191.55 212.87 C 190.97 213.62 191.12 214.69 191.87 215.26 Z M 192.67 215.87 L 193.43 216.44 C 194.19 217.00 195.26 216.84 195.82 216.08 C 196.38 215.32 196.22 214.25 195.46 213.69 L 194.70 213.12 C 193.94 212.56 192.87 212.73 192.31 213.48 C 191.75 214.24 191.91 215.31 192.67 215.87 Z M 193.46 216.46 L 194.29 217.04 C 195.06 217.58 196.12 217.40 196.66 216.63 C 197.21 215.86 197.02 214.80 196.25 214.25 L 195.43 213.67 C 194.66 213.13 193.60 213.31 193.05 214.08 C 192.51 214.85 192.70 215.91 193.46 216.46 Z M 194.33 217.06 L 195.20 217.63 C 195.98 218.15 197.03 217.94 197.55 217.17 C 198.07 216.39 197.86 215.33 197.08 214.81 L 196.21 214.23 C 195.43 213.71 194.38 213.92 193.86 214.70 C 193.34 215.48 193.55 216.54 194.33 217.06 Z M 195.24 217.65 L 196.10 218.19 C 196.89 218.69 197.93 218.45 198.42 217.66 C 198.92 216.87 198.68 215.83 197.89 215.33 L 197.04 214.79 C 196.25 214.30 195.20 214.54 194.71 215.33 C 194.21 216.12 194.45 217.16 195.24 217.65 Z M 196.14 218.21 L 197.00 218.71 C 197.80 219.18 198.83 218.91 199.30 218.11 C 199.77 217.31 199.50 216.28 198.70 215.81 L 197.85 215.31 C 197.05 214.84 196.02 215.11 195.55 215.91 C 195.08 216.71 195.34 217.74 196.14 218.21 Z M 197.04 218.73 L 197.90 219.20 C 198.71 219.64 199.72 219.34 200.17 218.53 C 200.61 217.73 200.32 216.71 199.51 216.27 L 198.65 215.80 C 197.84 215.35 196.83 215.65 196.38 216.46 C 195.94 217.27 196.23 218.28 197.04 218.73 Z M 197.94 219.21 L 198.81 219.65 C 199.62 220.07 200.63 219.75 201.05 218.93 C 201.46 218.11 201.14 217.11 200.32 216.69 L 199.46 216.25 C 198.64 215.83 197.64 216.16 197.22 216.97 C 196.80 217.79 197.13 218.79 197.94 219.21 Z M 198.85 219.67 L 199.73 220.08 C 200.55 220.48 201.54 220.13 201.93 219.30 C 202.33 218.48 201.98 217.49 201.15 217.10 L 200.28 216.68 C 199.45 216.28 198.46 216.63 198.07 217.46 C 197.68 218.28 198.03 219.27 198.85 219.67 Z M 199.77 220.09 L 200.66 220.49 C 201.49 220.86 202.46 220.49 202.83 219.66 C 203.20 218.83 202.83 217.85 202.00 217.48 L 201.11 217.09 C 200.28 216.71 199.31 217.09 198.94 217.92 C 198.57 218.75 198.94 219.72 199.77 220.09 Z M 200.70 220.50 L 201.60 220.88 C 202.44 221.22 203.40 220.83 203.75 219.99 C 204.10 219.16 203.70 218.20 202.86 217.85 L 201.96 217.47 C 201.12 217.12 200.16 217.52 199.81 218.36 C 199.47 219.19 199.86 220.15 200.70 220.50 Z M 201.65 220.89 L 202.57 221.24 C 203.41 221.57 204.36 221.15 204.68 220.31 C 205.01 219.47 204.59 218.52 203.75 218.20 L 202.82 217.84 C 201.98 217.51 201.04 217.93 200.71 218.77 C 200.39 219.61 200.80 220.56 201.65 220.89 Z M 202.61 221.25 L 203.55 221.59 C 204.40 221.89 205.33 221.45 205.63 220.61 C 205.94 219.76 205.50 218.83 204.65 218.53 L 203.71 218.19 C 202.86 217.89 201.93 218.33 201.63 219.17 C 201.33 220.02 201.77 220.95 202.61 221.25 Z M 203.59 221.59 L 204.56 221.91 C 205.40 222.20 206.32 221.74 206.60 220.89 C 206.88 220.04 206.43 219.13 205.58 218.85 L 204.61 218.53 C 203.77 218.24 202.85 218.70 202.57 219.55 C 202.29 220.40 202.75 221.31 203.59 221.59 Z M 204.59 221.92 L 205.58 222.22 C 206.43 222.48 207.33 222.00 207.59 221.15 C 207.85 220.30 207.37 219.40 206.52 219.14 L 205.54 218.84 C 204.69 218.58 203.79 219.06 203.53 219.91 C 203.27 220.76 203.74 221.66 204.59 221.92 Z M 205.61 222.22 L 206.56 222.49 C 207.42 222.74 208.30 222.24 208.54 221.39 C 208.78 220.54 208.29 219.65 207.44 219.41 L 206.49 219.14 C 205.63 218.90 204.75 219.39 204.51 220.24 C 204.26 221.10 204.76 221.98 205.61 222.22 Z M 206.60 222.50 L 207.53 222.74 C 208.39 222.97 209.26 222.46 209.49 221.60 C 209.71 220.75 209.20 219.87 208.34 219.65 L 207.40 219.40 C 206.55 219.18 205.68 219.69 205.45 220.55 C 205.23 221.40 205.74 222.28 206.60 222.50 Z M 207.56 222.75 L 208.52 222.98 C 209.38 223.18 210.24 222.66 210.45 221.80 C 210.65 220.94 210.12 220.08 209.27 219.87 L 208.31 219.64 C 207.45 219.44 206.59 219.97 206.39 220.82 C 206.18 221.68 206.71 222.54 207.56 222.75 Z M 208.55 222.98 L 209.52 223.20 C 210.38 223.39 211.23 222.84 211.42 221.99 C 211.61 221.13 211.07 220.28 210.21 220.09 L 209.24 219.87 C 208.38 219.68 207.53 220.22 207.34 221.08 C 207.15 221.94 207.69 222.79 208.55 222.98 Z M 209.55 223.20 L 210.53 223.40 C 211.40 223.57 212.23 223.02 212.41 222.16 C 212.58 221.30 212.03 220.46 211.17 220.28 L 210.18 220.08 C 209.32 219.91 208.48 220.46 208.31 221.32 C 208.13 222.19 208.69 223.02 209.55 223.20 Z M 210.56 223.40 L 211.56 223.59 C 212.43 223.75 213.25 223.18 213.41 222.32 C 213.57 221.45 213.00 220.63 212.14 220.47 L 211.14 220.28 C 210.28 220.12 209.45 220.69 209.29 221.55 C 209.13 222.41 209.70 223.24 210.56 223.40 Z M 211.59 223.59 L 212.61 223.76 C 213.47 223.91 214.29 223.33 214.43 222.46 C 214.58 221.60 214.00 220.78 213.14 220.64 L 212.12 220.47 C 211.26 220.32 210.44 220.90 210.29 221.76 C 210.15 222.63 210.73 223.44 211.59 223.59 Z M 212.63 223.76 L 213.62 223.91 C 214.49 224.05 215.29 223.45 215.43 222.59 C 215.56 221.73 214.97 220.92 214.10 220.79 L 213.11 220.64 C 212.25 220.50 211.44 221.10 211.31 221.96 C 211.18 222.82 211.77 223.63 212.63 223.76 Z M 213.64 223.92 L 214.61 224.05 C 215.48 224.17 216.28 223.57 216.40 222.71 C 216.52 221.84 215.92 221.04 215.05 220.92 L 214.08 220.79 C 213.22 220.67 212.42 221.27 212.30 222.13 C 212.18 223.00 212.78 223.79 213.64 223.92 Z M 214.63 224.05 L 215.61 224.18 C 216.48 224.29 217.27 223.68 217.38 222.82 C 217.49 221.95 216.88 221.16 216.02 221.05 L 215.04 220.92 C 214.17 220.81 213.38 221.42 213.27 222.28 C 213.16 223.15 213.77 223.94 214.63 224.05 Z M 215.63 224.18 L 216.62 224.30 C 217.48 224.41 218.27 223.79 218.38 222.92 C 218.48 222.06 217.86 221.27 217.00 221.17 L 216.01 221.05 C 215.14 220.94 214.36 221.56 214.25 222.43 C 214.15 223.29 214.76 224.08 215.63 224.18 Z M 216.63 224.30 L 217.63 224.42 C 218.49 224.51 219.28 223.89 219.37 223.03 C 219.47 222.16 218.85 221.38 217.99 221.28 L 216.99 221.17 C 216.12 221.07 215.34 221.69 215.24 222.56 C 215.14 223.42 215.76 224.20 216.63 224.30 Z M 217.64 224.42 L 218.64 224.52 C 219.51 224.62 220.28 223.99 220.38 223.13 C 220.47 222.26 219.85 221.49 218.98 221.39 L 217.98 221.28 C 217.11 221.19 216.34 221.81 216.24 222.68 C 216.15 223.54 216.77 224.32 217.64 224.42 Z M 218.65 224.52 L 219.66 224.63 C 220.52 224.72 221.30 224.09 221.39 223.23 C 221.48 222.36 220.85 221.59 219.99 221.50 L 218.98 221.39 C 218.11 221.30 217.34 221.93 217.25 222.79 C 217.15 223.66 217.78 224.43 218.65 224.52 Z M 219.66 224.63 L 220.67 224.73 C 221.53 224.82 222.31 224.20 222.40 223.33 C 222.49 222.47 221.86 221.69 220.99 221.60 L 219.98 221.50 C 219.12 221.41 218.34 222.04 218.25 222.90 C 218.16 223.77 218.79 224.54 219.66 224.63 Z"
      fill="black"
      fill-rule="nonzero" /></svg>