<svg xmlns="http://www.w3.org/2000/svg" width="300" height="300" viewBox="0 0 300 300">
<path d="M 150.03 85.51 L 149.42 86.37 C 148.94 87.04 149.09 87.98 149.77 88.46 C 150.44 88.94 151.37 88.78 151.86 88.11 L 152.47 87.25 C 152.95 86.58 152.79 85.64 152.12 85.16 C 151.45 84.68 150.51 84.84 150.03 85.51 Z M 149.39 86.34 L 148.78 87.19 C 148.29 87.88 148.44 88.84 149.14 89.33 C 149.83 89.83 150.79 89.67 151.28 88.98 L 151.89 88.14 C 152.38 87.45 152.23 86.48 151.53 85.99 C 150.84 85.49 149.88 85.65 149.39 86.34 Z M 148.75 87.16 L 148.17 87.97 C 147.65 88.67 147.81 89.66 148.52 90.17 C 149.23 90.69 150.22 90.53 150.73 89.82 L 151.32 89.01 C 151.83 88.30 151.67 87.31 150.96 86.80 C 150.25 86.29 149.26 86.45 148.75 87.16 Z M 148.14 87.93 L 147.58 88.69 C 147.05 89.42 147.21 90.43 147.94 90.96 C 148.66 91.49 149.68 91.33 150.21 90.61 L 150.76 89.85 C 151.29 89.12 151.13 88.11 150.41 87.58 C 149.68 87.05 148.67 87.21 148.14 87.93 Z M 147.57 88.67 L 146.95 89.51 C 146.40 90.24 146.56 91.27 147.29 91.81 C 148.02 92.36 149.05 92.20 149.59 91.47 L 150.22 90.63 C 150.76 89.90 150.61 88.87 149.88 88.33 C 149.15 87.78 148.11 87.94 147.57 88.67 Z M 146.96 89.49 L 146.34 90.30 C 145.79 91.03 145.93 92.06 146.66 92.61 C 147.38 93.16 148.42 93.02 148.97 92.30 L 149.58 91.49 C 150.13 90.76 149.99 89.73 149.27 89.18 C 148.54 88.63 147.51 88.77 146.96 89.49 Z M 146.36 90.30 L 145.78 91.05 C 145.22 91.77 145.36 92.80 146.07 93.35 C 146.79 93.90 147.82 93.77 148.37 93.05 L 148.95 92.30 C 149.51 91.59 149.38 90.56 148.66 90.00 C 147.94 89.45 146.91 89.58 146.36 90.30 Z M 145.79 91.05 L 145.20 91.80 C 144.65 92.51 144.78 93.54 145.49 94.09 C 146.20 94.64 147.23 94.51 147.78 93.80 L 148.36 93.05 C 148.92 92.34 148.79 91.32 148.08 90.76 C 147.37 90.21 146.34 90.34 145.79 91.05 Z M 145.21 91.80 L 144.60 92.58 C 144.05 93.29 144.18 94.31 144.89 94.86 C 145.60 95.41 146.62 95.29 147.17 94.58 L 147.78 93.80 C 148.33 93.09 148.20 92.07 147.49 91.52 C 146.78 90.96 145.76 91.09 145.21 91.80 Z M 144.61 92.58 L 143.99 93.37 C 143.44 94.07 143.57 95.09 144.27 95.64 C 144.97 96.19 145.99 96.07 146.54 95.37 L 147.16 94.58 C 147.71 93.87 147.59 92.85 146.89 92.30 C 146.18 91.75 145.16 91.88 144.61 92.58 Z M 144.00 93.37 L 143.38 94.16 C 142.83 94.86 142.95 95.88 143.65 96.43 C 144.34 96.98 145.36 96.86 145.91 96.16 L 146.53 95.37 C 147.09 94.67 146.97 93.65 146.27 93.10 C 145.57 92.55 144.55 92.67 144.00 93.37 Z M 143.39 94.16 L 142.77 94.94 C 142.22 95.63 142.33 96.64 143.03 97.19 C 143.72 97.74 144.73 97.63 145.28 96.94 L 145.90 96.16 C 146.45 95.47 146.34 94.46 145.64 93.91 C 144.95 93.35 143.94 93.47 143.39 94.16 Z M 142.78 94.94 L 142.15 95.72 C 141.60 96.41 141.71 97.41 142.40 97.96 C 143.08 98.52 144.09 98.41 144.64 97.72 L 145.27 96.94 C 145.82 96.25 145.71 95.25 145.03 94.69 C 144.34 94.14 143.34 94.25 142.78 94.94 Z M 142.17 95.72 L 141.53 96.50 C 140.97 97.18 141.08 98.18 141.75 98.73 C 142.43 99.29 143.43 99.19 143.99 98.51 L 144.62 97.72 C 145.18 97.04 145.08 96.05 144.40 95.49 C 143.72 94.94 142.72 95.04 142.17 95.72 Z M 141.54 96.50 L 140.91 97.27 C 140.35 97.94 140.44 98.93 141.12 99.49 C 141.79 100.04 142.78 99.95 143.34 99.28 L 143.97 98.51 C 144.53 97.84 144.43 96.84 143.76 96.29 C 143.09 95.73 142.10 95.83 141.54 96.50 Z M 140.92 97.27 L 140.28 98.03 C 139.72 98.70 139.81 99.68 140.48 100.24 C 141.14 100.80 142.13 100.71 142.68 100.04 L 143.32 99.28 C 143.88 98.62 143.79 97.63 143.13 97.07 C 142.46 96.52 141.47 96.60 140.92 97.27 Z M 140.29 98.03 L 139.64 98.80 C 139.09 99.46 139.17 100.44 139.83 101.00 C 140.49 101.55 141.47 101.47 142.03 100.81 L 142.67 100.04 C 143.23 99.38 143.14 98.40 142.49 97.85 C 141.83 97.29 140.84 97.37 140.29 98.03 Z M 139.65 98.80 L 139.02 99.55 C 138.46 100.21 138.54 101.19 139.20 101.74 C 139.85 102.29 140.83 102.21 141.38 101.56 L 142.02 100.81 C 142.57 100.15 142.49 99.17 141.84 98.62 C 141.18 98.07 140.21 98.15 139.65 98.80 Z M 139.03 99.56 L 138.38 100.31 C 137.83 100.96 137.91 101.93 138.56 102.48 C 139.21 103.03 140.18 102.96 140.73 102.31 L 141.37 101.56 C 141.92 100.91 141.84 99.94 141.20 99.38 C 140.55 98.83 139.58 98.91 139.03 99.56 Z M 138.40 100.31 L 137.74 101.07 C 137.19 101.71 137.26 102.68 137.90 103.23 C 138.54 103.79 139.51 103.71 140.06 103.07 L 140.72 102.31 C 141.27 101.67 141.20 100.70 140.56 100.15 C 139.92 99.60 138.95 99.67 138.40 100.31 Z M 137.75 101.07 L 137.09 101.83 C 136.53 102.47 136.60 103.43 137.23 103.98 C 137.87 104.53 138.83 104.47 139.38 103.84 L 140.05 103.08 C 140.60 102.44 140.53 101.48 139.90 100.93 C 139.27 100.37 138.31 100.44 137.75 101.07 Z M 137.10 101.83 L 136.46 102.55 C 135.90 103.18 135.96 104.13 136.59 104.69 C 137.21 105.24 138.17 105.19 138.73 104.56 L 139.37 103.84 C 139.92 103.21 139.87 102.26 139.24 101.70 C 138.61 101.15 137.66 101.20 137.10 101.83 Z M 136.47 102.55 L 135.81 103.29 C 135.25 103.91 135.30 104.86 135.92 105.42 C 136.54 105.97 137.49 105.92 138.05 105.30 L 138.71 104.56 C 139.27 103.94 139.22 102.99 138.60 102.44 C 137.98 101.88 137.03 101.93 136.47 102.55 Z M 135.82 103.29 L 135.13 104.05 C 134.57 104.66 134.62 105.61 135.24 106.16 C 135.85 106.72 136.80 106.67 137.35 106.06 L 138.04 105.30 C 138.60 104.69 138.55 103.74 137.94 103.18 C 137.32 102.63 136.37 102.67 135.82 103.29 Z M 135.14 104.05 L 134.45 104.80 C 133.89 105.41 133.94 106.36 134.55 106.91 C 135.16 107.47 136.10 107.42 136.66 106.81 L 137.35 106.06 C 137.90 105.45 137.86 104.50 137.25 103.95 C 136.64 103.39 135.69 103.44 135.14 104.05 Z M 134.46 104.81 L 133.78 105.55 C 133.22 106.15 133.27 107.09 133.87 107.65 C 134.48 108.20 135.42 108.16 135.97 107.55 L 136.65 106.81 C 137.21 106.21 137.16 105.27 136.56 104.71 C 135.95 104.16 135.01 104.20 134.46 104.81 Z M 133.78 105.55 L 133.10 106.29 C 132.55 106.90 132.59 107.83 133.19 108.39 C 133.79 108.94 134.73 108.90 135.28 108.30 L 135.97 107.55 C 136.52 106.95 136.48 106.01 135.88 105.46 C 135.28 104.91 134.34 104.95 133.78 105.55 Z M 133.11 106.29 L 132.43 107.03 C 131.87 107.63 131.91 108.56 132.51 109.12 C 133.11 109.67 134.04 109.63 134.60 109.03 L 135.28 108.30 C 135.83 107.70 135.79 106.76 135.19 106.21 C 134.59 105.66 133.66 105.70 133.11 106.29 Z M 132.43 107.03 L 131.75 107.76 C 131.20 108.36 131.23 109.29 131.83 109.84 C 132.42 110.40 133.35 110.36 133.90 109.77 L 134.59 109.03 C 135.14 108.44 135.11 107.51 134.51 106.96 C 133.92 106.40 132.99 106.44 132.43 107.03 Z M 131.76 107.76 L 131.06 108.51 C 130.50 109.10 130.53 110.03 131.12 110.58 C 131.71 111.14 132.64 111.11 133.19 110.52 L 133.90 109.77 C 134.45 109.18 134.42 108.25 133.83 107.70 C 133.24 107.14 132.32 107.17 131.76 107.76 Z M 131.07 108.50 L 130.38 109.22 C 129.83 109.81 129.85 110.73 130.43 111.29 C 131.01 111.84 131.94 111.82 132.49 111.24 L 133.18 110.52 C 133.74 109.94 133.72 109.02 133.13 108.46 C 132.55 107.90 131.63 107.92 131.07 108.50 Z M 130.40 109.22 L 129.72 109.91 C 129.15 110.49 129.16 111.41 129.74 111.97 C 130.31 112.53 131.24 112.52 131.80 111.95 L 132.48 111.25 C 133.04 110.67 133.03 109.75 132.45 109.19 C 131.88 108.63 130.96 108.64 130.40 109.22 Z M 129.73 109.90 L 129.03 110.61 C 128.46 111.17 128.46 112.09 129.02 112.66 C 129.59 113.23 130.51 113.23 131.07 112.66 L 131.78 111.96 C 132.35 111.39 132.35 110.47 131.78 109.91 C 131.22 109.34 130.30 109.34 129.73 109.90 Z M 129.04 110.60 L 128.32 111.31 C 127.74 111.86 127.73 112.78 128.29 113.35 C 128.85 113.92 129.76 113.93 130.33 113.38 L 131.06 112.67 C 131.63 112.11 131.64 111.20 131.09 110.63 C 130.53 110.05 129.61 110.04 129.04 110.60 Z M 128.33 111.30 L 127.61 111.99 C 127.03 112.54 127.01 113.46 127.56 114.03 C 128.11 114.60 129.03 114.62 129.60 114.07 L 130.32 113.38 C 130.90 112.83 130.92 111.92 130.37 111.34 C 129.81 110.77 128.90 110.75 128.33 111.30 Z M 127.61 111.99 L 126.90 112.67 C 126.33 113.21 126.31 114.12 126.85 114.70 C 127.40 115.27 128.31 115.30 128.88 114.75 L 129.59 114.08 C 130.17 113.53 130.19 112.62 129.65 112.04 C 129.10 111.47 128.19 111.45 127.61 111.99 Z M 126.91 112.67 L 126.22 113.31 C 125.65 113.86 125.62 114.76 126.17 115.34 C 126.71 115.91 127.62 115.94 128.19 115.40 L 128.88 114.75 C 129.45 114.21 129.48 113.30 128.94 112.72 C 128.39 112.15 127.48 112.12 126.91 112.67 Z M 126.23 113.31 L 125.53 113.96 C 124.95 114.50 124.92 115.40 125.46 115.98 C 126.00 116.56 126.90 116.59 127.48 116.06 L 128.18 115.40 C 128.76 114.86 128.80 113.96 128.26 113.38 C 127.72 112.80 126.81 112.77 126.23 113.31 Z M 125.55 113.95 L 124.79 114.64 C 124.20 115.17 124.16 116.07 124.69 116.66 C 125.22 117.24 126.12 117.28 126.71 116.75 L 127.47 116.07 C 128.05 115.54 128.10 114.63 127.57 114.05 C 127.03 113.46 126.13 113.42 125.55 113.95 Z M 124.80 114.62 L 124.03 115.31 C 123.44 115.83 123.38 116.73 123.90 117.32 C 124.42 117.92 125.32 117.97 125.92 117.45 L 126.69 116.77 C 127.28 116.25 127.34 115.34 126.82 114.75 C 126.30 114.16 125.40 114.10 124.80 114.62 Z M 124.04 115.30 L 123.34 115.90 C 122.74 116.42 122.67 117.32 123.18 117.92 C 123.70 118.52 124.60 118.58 125.20 118.07 L 125.90 117.46 C 126.50 116.95 126.57 116.05 126.05 115.45 C 125.54 114.85 124.64 114.78 124.04 115.30 Z M 123.34 115.90 L 122.59 116.54 C 121.99 117.05 121.91 117.95 122.42 118.55 C 122.93 119.15 123.83 119.22 124.43 118.71 L 125.19 118.08 C 125.79 117.57 125.86 116.67 125.35 116.06 C 124.84 115.46 123.94 115.39 123.34 115.90 Z M 122.59 116.53 L 121.81 117.20 C 121.20 117.70 121.12 118.60 121.63 119.21 C 122.14 119.81 123.04 119.89 123.64 119.38 L 124.43 118.72 C 125.03 118.21 125.11 117.31 124.60 116.71 C 124.10 116.11 123.20 116.03 122.59 116.53 Z M 121.81 117.19 L 121.00 117.87 C 120.39 118.38 120.31 119.27 120.82 119.88 C 121.32 120.48 122.22 120.56 122.83 120.06 L 123.64 119.38 C 124.24 118.88 124.32 117.98 123.82 117.37 C 123.31 116.77 122.41 116.69 121.81 117.19 Z M 121.00 117.87 L 120.57 118.23 C 119.97 118.73 119.89 119.63 120.39 120.23 C 120.89 120.84 121.79 120.92 122.40 120.42 L 122.82 120.06 C 123.43 119.56 123.51 118.66 123.01 118.05 C 122.50 117.45 121.60 117.37 121.00 117.87 Z"
      fill="black"
      fill-rule="nonzero" /><path d="M 108.98 125.41 L 109.92 125.38 C 110.80 125.35 111.49 124.60 111.46 123.72 C 111.42 122.84 110.68 122.15 109.80 122.19 L 108.86 122.22 C 107.98 122.26 107.29 123.00 107.32 123.88 C 107.36 124.76 108.10 125.45 108.98 125.41 Z M 109.90 125.40 L 110.88 125.37 C 111.77 125.34 112.47 124.60 112.44 123.71 C 112.42 122.82 111.68 122.12 110.79 122.14 L 109.82 122.17 C 108.92 122.20 108.22 122.94 108.25 123.83 C 108.27 124.72 109.01 125.42 109.90 125.40 Z M 110.85 125.38 L 111.88 125.38 C 112.78 125.37 113.50 124.63 113.49 123.73 C 113.49 122.83 112.75 122.11 111.85 122.12 L 110.82 122.13 C 109.92 122.14 109.20 122.87 109.20 123.77 C 109.21 124.67 109.95 125.39 110.85 125.38 Z M 111.84 125.38 L 112.84 125.39 C 113.74 125.41 114.48 124.69 114.49 123.79 C 114.51 122.88 113.79 122.14 112.88 122.13 L 111.89 122.11 C 110.99 122.10 110.24 122.82 110.23 123.72 C 110.22 124.63 110.94 125.37 111.84 125.38 Z M 112.81 125.38 L 113.73 125.41 C 114.62 125.43 115.37 124.73 115.40 123.84 C 115.43 122.95 114.73 122.20 113.84 122.18 L 112.91 122.15 C 112.02 122.12 111.27 122.82 111.25 123.71 C 111.22 124.60 111.92 125.35 112.81 125.38 Z M 113.72 125.37 L 114.71 125.41 C 115.58 125.45 116.32 124.76 116.35 123.89 C 116.38 123.02 115.70 122.28 114.83 122.24 L 113.85 122.21 C 112.97 122.17 112.23 122.85 112.20 123.73 C 112.17 124.60 112.85 125.34 113.72 125.37 Z M 114.71 125.38 L 115.75 125.42 C 116.60 125.45 117.33 124.79 117.36 123.93 C 117.39 123.07 116.72 122.35 115.87 122.31 L 114.83 122.28 C 113.97 122.24 113.25 122.91 113.21 123.77 C 113.18 124.63 113.85 125.35 114.71 125.38 Z M 115.76 125.39 L 116.85 125.43 C 117.69 125.45 118.40 124.79 118.42 123.95 C 118.45 123.11 117.79 122.41 116.95 122.38 L 115.86 122.34 C 115.01 122.32 114.31 122.98 114.28 123.82 C 114.26 124.66 114.92 125.37 115.76 125.39 Z M 116.87 125.41 L 117.90 125.43 C 118.73 125.45 119.41 124.79 119.43 123.96 C 119.45 123.13 118.79 122.44 117.96 122.42 L 116.93 122.40 C 116.10 122.38 115.42 123.04 115.40 123.87 C 115.38 124.70 116.04 125.39 116.87 125.41 Z M 117.91 125.42 L 118.95 125.43 C 119.77 125.44 120.45 124.78 120.46 123.96 C 120.47 123.14 119.81 122.46 118.99 122.45 L 117.95 122.44 C 117.13 122.42 116.45 123.08 116.44 123.91 C 116.43 124.73 117.09 125.41 117.91 125.42 Z M 118.95 125.42 L 119.98 125.43 C 120.80 125.43 121.47 124.78 121.47 123.96 C 121.48 123.14 120.82 122.47 120.01 122.47 L 118.98 122.46 C 118.16 122.45 117.49 123.11 117.49 123.93 C 117.48 124.75 118.14 125.41 118.95 125.42 Z M 119.99 125.42 L 120.99 125.42 C 121.80 125.42 122.46 124.77 122.46 123.95 C 122.47 123.14 121.81 122.48 121.00 122.48 L 120.00 122.48 C 119.19 122.48 118.53 123.13 118.53 123.94 C 118.52 124.75 119.18 125.41 119.99 125.42 Z M 120.99 125.41 L 121.94 125.41 C 122.74 125.41 123.40 124.76 123.40 123.95 C 123.40 123.15 122.75 122.49 121.94 122.49 L 121.00 122.49 C 120.19 122.49 119.54 123.14 119.54 123.95 C 119.54 124.76 120.19 125.41 120.99 125.41 Z M 121.94 125.40 L 123.02 125.40 C 123.82 125.40 124.47 124.75 124.47 123.95 C 124.47 123.15 123.82 122.50 123.02 122.50 L 121.94 122.50 C 121.14 122.50 120.49 123.15 120.49 123.95 C 120.49 124.75 121.14 125.40 121.94 125.40 Z M 123.02 125.39 L 124.06 125.39 C 124.86 125.39 125.50 124.74 125.50 123.95 C 125.50 123.15 124.85 122.51 124.05 122.51 L 123.02 122.51 C 122.22 122.51 121.58 123.16 121.58 123.95 C 121.58 124.75 122.23 125.39 123.02 125.39 Z M 124.07 125.38 L 125.02 125.38 C 125.81 125.37 126.45 124.73 126.45 123.93 C 126.44 123.14 125.79 122.50 125.00 122.51 L 124.05 122.51 C 123.25 122.52 122.62 123.17 122.62 123.96 C 122.63 124.75 123.27 125.39 124.07 125.38 Z M 125.03 125.37 L 125.94 125.36 C 126.73 125.35 127.36 124.70 127.35 123.91 C 127.34 123.12 126.69 122.49 125.90 122.50 L 124.99 122.51 C 124.20 122.52 123.57 123.17 123.58 123.96 C 123.59 124.75 124.24 125.38 125.03 125.37 Z M 125.96 125.36 L 126.94 125.33 C 127.72 125.31 128.35 124.66 128.33 123.87 C 128.31 123.08 127.65 122.46 126.86 122.48 L 125.88 122.50 C 125.10 122.52 124.47 123.18 124.49 123.97 C 124.51 124.75 125.17 125.38 125.96 125.36 Z M 126.97 125.33 L 127.96 125.28 C 128.75 125.24 129.35 124.58 129.32 123.79 C 129.28 123.00 128.61 122.40 127.82 122.43 L 126.83 122.48 C 126.04 122.52 125.44 123.19 125.48 123.97 C 125.51 124.76 126.18 125.37 126.97 125.33 Z M 128.01 125.28 L 129.01 125.20 C 129.80 125.13 130.38 124.44 130.32 123.66 C 130.25 122.87 129.56 122.29 128.78 122.35 L 127.77 122.44 C 126.99 122.50 126.41 123.19 126.47 123.97 C 126.53 124.76 127.22 125.34 128.01 125.28 Z M 129.07 125.19 L 130.07 125.06 C 130.85 124.97 131.40 124.25 131.30 123.47 C 131.20 122.69 130.49 122.14 129.71 122.24 L 128.72 122.36 C 127.94 122.46 127.38 123.17 127.48 123.95 C 127.58 124.73 128.29 125.29 129.07 125.19 Z M 130.12 125.06 L 131.10 124.89 C 131.87 124.76 132.40 124.03 132.27 123.25 C 132.14 122.48 131.40 121.95 130.63 122.08 L 129.65 122.24 C 128.88 122.37 128.35 123.11 128.48 123.88 C 128.61 124.66 129.35 125.19 130.12 125.06 Z M 131.13 124.89 L 132.12 124.69 C 132.89 124.54 133.40 123.79 133.25 123.02 C 133.10 122.25 132.35 121.75 131.58 121.90 L 130.59 122.09 C 129.82 122.24 129.31 122.99 129.46 123.76 C 129.61 124.53 130.36 125.04 131.13 124.89 Z M 132.14 124.69 L 133.13 124.48 C 133.90 124.32 134.40 123.56 134.24 122.79 C 134.07 122.02 133.32 121.53 132.55 121.69 L 131.56 121.90 C 130.78 122.06 130.29 122.82 130.45 123.59 C 130.62 124.36 131.37 124.85 132.14 124.69 Z M 133.14 124.48 L 133.43 124.42 C 134.20 124.25 134.69 123.50 134.52 122.73 C 134.36 121.96 133.60 121.47 132.83 121.63 L 132.54 121.69 C 131.77 121.86 131.28 122.62 131.45 123.38 C 131.61 124.15 132.37 124.64 133.14 124.48 Z"
      fill="black"
      fill-rule="nonzero" /><path d="M 174.40 96.74 L 173.34 96.74 C 172.49 96.74 171.79 97.44 171.80 98.30 C 171.80 99.15 172.50 99.84 173.35 99.84 L 174.41 99.84 C 175.26 99.83 175.96 99.14 175.95 98.28 C 175.95 97.42 175.25 96.73 174.40 96.74 Z M 173.30 96.73 L 172.27 96.76 C 171.41 96.79 170.73 97.51 170.75 98.37 C 170.78 99.23 171.50 99.91 172.36 99.88 L 173.40 99.85 C 174.26 99.83 174.94 99.11 174.91 98.24 C 174.88 97.38 174.16 96.70 173.30 96.73 Z M 172.18 96.75 L 171.19 96.84 C 170.32 96.91 169.68 97.67 169.75 98.54 C 169.83 99.41 170.59 100.05 171.46 99.98 L 172.45 99.89 C 173.32 99.82 173.96 99.05 173.88 98.19 C 173.81 97.32 173.05 96.68 172.18 96.75 Z M 171.05 96.84 L 170.11 97.01 C 169.25 97.16 168.68 97.99 168.83 98.85 C 168.98 99.71 169.81 100.29 170.67 100.13 L 171.60 99.97 C 172.46 99.82 173.04 98.99 172.88 98.13 C 172.73 97.27 171.91 96.69 171.05 96.84 Z M 169.90 97.06 L 168.96 97.36 C 168.12 97.64 167.66 98.54 167.94 99.37 C 168.21 100.21 169.11 100.67 169.95 100.39 L 170.89 100.09 C 171.72 99.81 172.18 98.91 171.91 98.08 C 171.63 97.24 170.73 96.78 169.90 97.06 Z M 168.72 97.46 L 167.83 97.92 C 167.05 98.33 166.74 99.30 167.15 100.08 C 167.56 100.86 168.52 101.16 169.30 100.76 L 170.19 100.29 C 170.97 99.89 171.28 98.92 170.87 98.14 C 170.46 97.36 169.50 97.06 168.72 97.46 Z M 167.64 98.04 L 166.83 98.62 C 166.12 99.13 165.95 100.13 166.47 100.84 C 166.98 101.56 167.98 101.73 168.69 101.21 L 169.50 100.64 C 170.21 100.12 170.38 99.13 169.86 98.41 C 169.35 97.70 168.35 97.53 167.64 98.04 Z M 166.71 98.72 L 165.97 99.38 C 165.31 99.96 165.25 100.97 165.83 101.63 C 166.42 102.29 167.43 102.35 168.09 101.76 L 168.82 101.11 C 169.48 100.52 169.54 99.51 168.96 98.86 C 168.37 98.20 167.36 98.14 166.71 98.72 Z M 165.89 99.46 L 165.22 100.14 C 164.61 100.76 164.62 101.77 165.24 102.39 C 165.87 103.00 166.88 102.99 167.49 102.37 L 168.16 101.69 C 168.78 101.06 168.77 100.05 168.14 99.44 C 167.51 98.82 166.51 98.83 165.89 99.46 Z M 165.18 100.20 L 164.53 100.92 C 163.95 101.58 164.01 102.57 164.66 103.15 C 165.31 103.74 166.31 103.68 166.89 103.03 L 167.54 102.30 C 168.12 101.65 168.06 100.65 167.41 100.07 C 166.76 99.49 165.76 99.55 165.18 100.20 Z M 164.51 100.97 L 163.86 101.75 C 163.31 102.42 163.40 103.40 164.06 103.96 C 164.73 104.51 165.72 104.42 166.27 103.75 L 166.92 102.98 C 167.47 102.31 167.38 101.32 166.71 100.77 C 166.05 100.22 165.06 100.31 164.51 100.97 Z M 163.85 101.78 L 163.19 102.61 C 162.65 103.29 162.76 104.27 163.43 104.80 C 164.11 105.34 165.09 105.23 165.62 104.55 L 166.29 103.72 C 166.82 103.05 166.71 102.07 166.04 101.53 C 165.36 101.00 164.38 101.11 163.85 101.78 Z M 163.18 102.63 L 162.56 103.43 C 162.04 104.11 162.16 105.08 162.83 105.60 C 163.51 106.13 164.48 106.01 165.01 105.33 L 165.63 104.53 C 166.15 103.86 166.03 102.89 165.35 102.36 C 164.68 101.84 163.71 101.96 163.18 102.63 Z M 162.57 103.45 L 161.94 104.27 C 161.42 104.94 161.55 105.90 162.22 106.42 C 162.90 106.93 163.86 106.81 164.38 106.13 L 165.00 105.31 C 165.52 104.64 165.39 103.68 164.72 103.16 C 164.04 102.65 163.08 102.77 162.57 103.45 Z M 161.94 104.28 L 161.33 105.09 C 160.82 105.77 160.96 106.72 161.63 107.23 C 162.30 107.73 163.25 107.60 163.76 106.93 L 164.37 106.12 C 164.88 105.45 164.75 104.49 164.07 103.98 C 163.40 103.48 162.45 103.61 161.94 104.28 Z M 161.33 105.11 L 160.75 105.89 C 160.25 106.56 160.39 107.51 161.07 108.01 C 161.74 108.50 162.68 108.36 163.18 107.69 L 163.76 106.91 C 164.26 106.24 164.11 105.30 163.44 104.80 C 162.77 104.30 161.83 104.44 161.33 105.11 Z M 160.75 105.91 L 160.13 106.77 C 159.65 107.43 159.80 108.37 160.47 108.86 C 161.14 109.34 162.07 109.19 162.56 108.52 L 163.18 107.67 C 163.66 107.00 163.52 106.07 162.85 105.58 C 162.18 105.09 161.24 105.24 160.75 105.91 Z M 160.14 106.79 L 159.54 107.63 C 159.07 108.30 159.23 109.22 159.90 109.70 C 160.57 110.17 161.49 110.01 161.96 109.34 L 162.56 108.50 C 163.03 107.83 162.87 106.91 162.20 106.43 C 161.53 105.96 160.61 106.12 160.14 106.79 Z M 159.55 107.65 L 159.01 108.43 C 158.54 109.10 158.71 110.01 159.38 110.47 C 160.05 110.93 160.96 110.77 161.42 110.10 L 161.96 109.32 C 162.42 108.65 162.26 107.74 161.59 107.28 C 160.92 106.82 160.01 106.98 159.55 107.65 Z M 159.01 108.44 L 158.48 109.22 C 158.03 109.88 158.20 110.79 158.86 111.24 C 159.52 111.70 160.43 111.53 160.88 110.86 L 161.41 110.09 C 161.87 109.42 161.70 108.52 161.04 108.06 C 160.37 107.61 159.47 107.78 159.01 108.44 Z M 158.49 109.22 L 157.92 110.05 C 157.47 110.71 157.64 111.61 158.30 112.06 C 158.96 112.51 159.86 112.34 160.31 111.68 L 160.87 110.86 C 161.33 110.20 161.16 109.30 160.50 108.85 C 159.84 108.40 158.94 108.57 158.49 109.22 Z M 157.93 110.05 L 157.37 110.88 C 156.92 111.54 157.08 112.43 157.74 112.88 C 158.40 113.33 159.29 113.16 159.74 112.50 L 160.31 111.68 C 160.75 111.02 160.59 110.13 159.93 109.68 C 159.27 109.23 158.38 109.40 157.93 110.05 Z M 157.37 110.88 L 156.81 111.71 C 156.36 112.36 156.53 113.25 157.18 113.70 C 157.83 114.14 158.73 113.98 159.17 113.32 L 159.74 112.50 C 160.18 111.85 160.02 110.96 159.36 110.51 C 158.71 110.06 157.82 110.23 157.37 110.88 Z M 156.81 111.71 L 156.25 112.53 C 155.81 113.18 155.97 114.07 156.63 114.51 C 157.28 114.96 158.17 114.79 158.61 114.14 L 159.17 113.32 C 159.62 112.67 159.45 111.78 158.80 111.33 C 158.14 110.89 157.25 111.06 156.81 111.71 Z M 156.25 112.54 L 155.69 113.37 C 155.25 114.02 155.42 114.91 156.08 115.35 C 156.73 115.79 157.62 115.61 158.06 114.96 L 158.62 114.13 C 159.06 113.48 158.88 112.59 158.23 112.15 C 157.57 111.71 156.69 111.88 156.25 112.54 Z M 155.68 113.38 L 155.13 114.22 C 154.69 114.88 154.88 115.77 155.54 116.20 C 156.19 116.63 157.08 116.45 157.51 115.79 L 158.07 114.95 C 158.50 114.29 158.32 113.40 157.66 112.97 C 157.00 112.54 156.11 112.72 155.68 113.38 Z M 155.12 114.24 L 154.58 115.08 C 154.15 115.74 154.35 116.63 155.01 117.05 C 155.68 117.48 156.56 117.28 156.98 116.62 L 157.52 115.78 C 157.94 115.11 157.75 114.23 157.09 113.81 C 156.42 113.38 155.54 113.58 155.12 114.24 Z M 154.58 115.09 L 154.04 115.93 C 153.62 116.60 153.81 117.48 154.48 117.90 C 155.14 118.32 156.02 118.13 156.45 117.46 L 156.98 116.61 C 157.41 115.95 157.21 115.07 156.54 114.65 C 155.88 114.22 155.00 114.42 154.58 115.09 Z M 154.04 115.93 L 153.50 116.77 C 153.08 117.43 153.27 118.31 153.93 118.74 C 154.60 119.16 155.48 118.97 155.90 118.31 L 156.44 117.47 C 156.87 116.81 156.67 115.92 156.01 115.50 C 155.35 115.07 154.47 115.27 154.04 115.93 Z M 153.51 116.75 L 152.96 117.60 C 152.52 118.26 152.70 119.14 153.36 119.57 C 154.02 120.01 154.90 119.83 155.34 119.17 L 155.89 118.32 C 156.33 117.66 156.14 116.78 155.49 116.35 C 154.83 115.91 153.95 116.10 153.51 116.75 Z M 152.96 117.59 L 152.41 118.41 C 151.97 119.07 152.14 119.95 152.79 120.39 C 153.44 120.83 154.33 120.66 154.77 120.01 L 155.33 119.18 C 155.77 118.53 155.60 117.64 154.94 117.20 C 154.29 116.76 153.40 116.93 152.96 117.59 Z M 152.41 118.41 L 151.85 119.23 C 151.41 119.88 151.58 120.76 152.23 121.21 C 152.88 121.65 153.76 121.48 154.21 120.83 L 154.76 120.01 C 155.21 119.36 155.04 118.48 154.39 118.03 C 153.74 117.59 152.85 117.76 152.41 118.41 Z M 151.85 119.22 L 151.79 119.31 C 151.35 119.96 151.52 120.85 152.17 121.29 C 152.82 121.74 153.70 121.57 154.15 120.92 L 154.21 120.83 C 154.65 120.18 154.48 119.30 153.83 118.85 C 153.18 118.41 152.30 118.57 151.85 119.22 Z"
      fill="black"
      fill-rule="nonzero" /><path d="M 105.68 146.07 L 104.69 146.11 C 103.83 146.15 103.16 146.87 103.20 147.73 C 103.23 148.60 103.96 149.27 104.82 149.23 L 105.81 149.19 C 106.67 149.16 107.34 148.43 107.30 147.57 C 107.27 146.71 106.54 146.04 105.68 146.07 Z M 104.67 146.11 L 103.68 146.17 C 102.82 146.21 102.16 146.95 102.21 147.81 C 102.25 148.67 102.99 149.33 103.85 149.28 L 104.84 149.23 C 105.70 149.18 106.36 148.45 106.31 147.59 C 106.27 146.73 105.53 146.07 104.67 146.11 Z M 103.64 146.17 L 102.64 146.25 C 101.78 146.31 101.14 147.06 101.20 147.92 C 101.27 148.78 102.02 149.42 102.88 149.36 L 103.88 149.28 C 104.74 149.21 105.39 148.46 105.32 147.60 C 105.25 146.74 104.50 146.10 103.64 146.17 Z M 102.58 146.24 L 101.35 146.38 C 100.49 146.48 99.87 147.26 99.97 148.12 C 100.07 148.98 100.84 149.60 101.70 149.50 L 102.94 149.36 C 103.80 149.26 104.42 148.48 104.32 147.62 C 104.22 146.76 103.44 146.14 102.58 146.24 Z M 101.30 146.37 L 100.11 146.54 C 99.24 146.66 98.64 147.47 98.76 148.34 C 98.89 149.21 99.70 149.82 100.57 149.69 L 101.75 149.52 C 102.62 149.39 103.23 148.58 103.10 147.71 C 102.98 146.84 102.17 146.24 101.30 146.37 Z M 100.15 146.50 L 99.78 146.55 C 98.89 146.65 98.25 147.46 98.36 148.35 C 98.47 149.24 99.28 149.88 100.17 149.77 L 100.54 149.72 C 101.43 149.62 102.06 148.81 101.95 147.92 C 101.84 147.03 101.04 146.40 100.15 146.50 Z M 100.36 149.75 L 100.75 149.66 C 101.64 149.44 102.18 148.56 101.96 147.68 C 101.75 146.80 100.86 146.25 99.98 146.47 L 99.59 146.56 C 98.71 146.78 98.16 147.67 98.38 148.55 C 98.59 149.43 99.48 149.97 100.36 149.75 Z M 100.76 149.66 L 101.63 149.45 C 102.51 149.23 103.05 148.34 102.83 147.45 C 102.61 146.57 101.72 146.03 100.83 146.25 L 99.97 146.47 C 99.09 146.68 98.55 147.58 98.77 148.46 C 98.99 149.34 99.88 149.88 100.76 149.66 Z M 101.66 149.44 L 102.91 149.10 C 103.79 148.86 104.31 147.95 104.07 147.07 C 103.83 146.20 102.92 145.68 102.04 145.92 L 100.80 146.26 C 99.92 146.50 99.40 147.40 99.64 148.28 C 99.88 149.16 100.79 149.68 101.66 149.44 Z M 102.96 149.09 L 104.34 148.67 C 105.22 148.40 105.71 147.47 105.44 146.60 C 105.17 145.73 104.25 145.24 103.37 145.50 L 101.99 145.93 C 101.12 146.19 100.63 147.12 100.89 147.99 C 101.16 148.87 102.09 149.36 102.96 149.09 Z M 104.38 148.66 L 105.31 148.35 C 106.18 148.06 106.64 147.12 106.35 146.25 C 106.07 145.38 105.13 144.92 104.26 145.21 L 103.33 145.51 C 102.47 145.80 102.00 146.74 102.29 147.61 C 102.58 148.48 103.52 148.95 104.38 148.66 Z M 105.33 148.34 L 106.30 148.00 C 107.16 147.70 107.62 146.76 107.31 145.89 C 107.01 145.03 106.07 144.57 105.20 144.88 L 104.24 145.21 C 103.37 145.51 102.92 146.46 103.22 147.32 C 103.52 148.19 104.47 148.64 105.33 148.34 Z M 106.31 148.00 L 107.30 147.64 C 108.16 147.34 108.61 146.39 108.30 145.52 C 107.99 144.66 107.04 144.22 106.18 144.53 L 105.19 144.88 C 104.33 145.19 103.88 146.14 104.19 147.00 C 104.50 147.86 105.45 148.31 106.31 148.00 Z M 107.31 147.64 L 108.29 147.28 C 109.15 146.97 109.59 146.01 109.28 145.15 C 108.96 144.29 108.01 143.85 107.15 144.17 L 106.17 144.53 C 105.31 144.84 104.86 145.80 105.18 146.66 C 105.50 147.52 106.45 147.96 107.31 147.64 Z M 108.30 147.28 L 109.26 146.92 C 110.12 146.61 110.55 145.65 110.24 144.79 C 109.92 143.93 108.96 143.49 108.10 143.81 L 107.14 144.17 C 106.29 144.49 105.85 145.44 106.17 146.30 C 106.48 147.16 107.44 147.60 108.30 147.28 Z M 109.26 146.92 L 110.17 146.58 C 111.03 146.26 111.47 145.31 111.15 144.45 C 110.83 143.59 109.87 143.15 109.01 143.47 L 108.10 143.81 C 107.24 144.13 106.81 145.09 107.13 145.95 C 107.44 146.81 108.40 147.24 109.26 146.92 Z M 110.17 146.59 L 111.08 146.25 C 111.94 145.93 112.38 144.98 112.06 144.12 C 111.74 143.26 110.79 142.82 109.93 143.14 L 109.02 143.47 C 108.16 143.79 107.72 144.74 108.04 145.60 C 108.35 146.46 109.31 146.90 110.17 146.59 Z M 111.07 146.25 L 112.19 145.85 C 113.05 145.54 113.50 144.58 113.19 143.72 C 112.88 142.86 111.92 142.41 111.06 142.73 L 109.94 143.13 C 109.08 143.44 108.63 144.39 108.94 145.26 C 109.25 146.12 110.21 146.57 111.07 146.25 Z M 112.18 145.85 L 113.15 145.51 C 114.02 145.21 114.47 144.26 114.17 143.39 C 113.86 142.53 112.91 142.07 112.05 142.38 L 111.08 142.72 C 110.21 143.03 109.76 143.97 110.06 144.84 C 110.36 145.70 111.31 146.16 112.18 145.85 Z M 113.14 145.51 L 114.01 145.22 C 114.88 144.92 115.34 143.97 115.04 143.11 C 114.75 142.24 113.80 141.78 112.94 142.07 L 112.06 142.37 C 111.20 142.67 110.73 143.61 111.03 144.48 C 111.33 145.35 112.27 145.81 113.14 145.51 Z M 114.00 145.22 L 114.82 144.94 C 115.69 144.65 116.16 143.71 115.87 142.84 C 115.58 141.97 114.64 141.50 113.77 141.80 L 112.95 142.07 C 112.08 142.36 111.61 143.30 111.90 144.17 C 112.19 145.04 113.13 145.51 114.00 145.22 Z M 114.82 144.94 L 115.69 144.65 C 116.56 144.36 117.03 143.42 116.74 142.56 C 116.45 141.69 115.51 141.22 114.64 141.51 L 113.77 141.79 C 112.90 142.08 112.43 143.02 112.72 143.89 C 113.01 144.76 113.95 145.23 114.82 144.94 Z M 115.69 144.66 L 116.62 144.35 C 117.49 144.06 117.96 143.12 117.67 142.25 C 117.38 141.38 116.44 140.91 115.57 141.20 L 114.64 141.51 C 113.77 141.79 113.30 142.73 113.59 143.60 C 113.88 144.47 114.82 144.94 115.69 144.66 Z M 116.61 144.35 L 117.56 144.03 C 118.43 143.74 118.91 142.81 118.62 141.94 C 118.33 141.07 117.39 140.59 116.52 140.88 L 115.57 141.19 C 114.70 141.48 114.23 142.42 114.52 143.29 C 114.80 144.16 115.74 144.63 116.61 144.35 Z M 117.56 144.03 L 118.53 143.72 C 119.40 143.43 119.87 142.49 119.59 141.62 C 119.30 140.75 118.37 140.28 117.50 140.56 L 116.53 140.88 C 115.66 141.16 115.18 142.10 115.47 142.97 C 115.75 143.84 116.69 144.32 117.56 144.03 Z M 118.52 143.72 L 119.48 143.41 C 120.36 143.13 120.83 142.19 120.55 141.32 C 120.27 140.45 119.33 139.97 118.46 140.25 L 117.50 140.56 C 116.63 140.84 116.15 141.78 116.43 142.65 C 116.71 143.52 117.65 144.00 118.52 143.72 Z M 119.48 143.41 L 120.41 143.11 C 121.29 142.83 121.77 141.90 121.49 141.03 C 121.21 140.15 120.28 139.67 119.41 139.95 L 118.47 140.25 C 117.60 140.53 117.11 141.46 117.39 142.33 C 117.67 143.21 118.60 143.69 119.48 143.41 Z M 120.41 143.11 L 121.36 142.82 C 122.23 142.54 122.72 141.61 122.44 140.74 C 122.17 139.86 121.24 139.37 120.36 139.65 L 119.41 139.95 C 118.54 140.22 118.05 141.15 118.33 142.03 C 118.60 142.90 119.53 143.39 120.41 143.11 Z M 121.35 142.82 L 122.31 142.52 C 123.19 142.25 123.68 141.32 123.41 140.44 C 123.14 139.57 122.21 139.08 121.33 139.35 L 120.37 139.65 C 119.49 139.92 119.00 140.85 119.27 141.72 C 119.55 142.60 120.47 143.09 121.35 142.82 Z M 122.31 142.52 L 123.28 142.22 C 124.16 141.95 124.65 141.03 124.39 140.15 C 124.12 139.28 123.19 138.78 122.31 139.05 L 121.34 139.35 C 120.46 139.62 119.97 140.54 120.24 141.42 C 120.50 142.29 121.43 142.79 122.31 142.52 Z M 123.28 142.22 L 124.22 141.94 C 125.09 141.68 125.59 140.75 125.33 139.87 C 125.06 139.00 124.14 138.50 123.26 138.77 L 122.32 139.05 C 121.44 139.31 120.95 140.24 121.21 141.11 C 121.48 141.99 122.40 142.49 123.28 142.22 Z M 124.21 141.94 L 125.16 141.66 C 126.04 141.40 126.53 140.47 126.27 139.60 C 126.01 138.72 125.09 138.22 124.21 138.48 L 123.26 138.77 C 122.39 139.03 121.89 139.95 122.15 140.83 C 122.41 141.70 123.34 142.20 124.21 141.94 Z M 125.16 141.66 L 126.12 141.37 C 126.99 141.11 127.49 140.19 127.23 139.31 C 126.97 138.43 126.05 137.94 125.17 138.20 L 124.21 138.48 C 123.34 138.74 122.84 139.67 123.10 140.54 C 123.36 141.42 124.28 141.92 125.16 141.66 Z M 126.12 141.37 L 127.09 141.08 C 127.96 140.82 128.46 139.90 128.20 139.02 C 127.94 138.15 127.02 137.65 126.14 137.91 L 125.17 138.20 C 124.30 138.46 123.80 139.38 124.06 140.26 C 124.32 141.13 125.24 141.63 126.12 141.37 Z M 127.09 141.08 L 128.06 140.79 C 128.93 140.53 129.43 139.61 129.17 138.73 C 128.91 137.86 127.99 137.36 127.11 137.62 L 126.14 137.91 C 125.27 138.17 124.77 139.09 125.03 139.97 C 125.29 140.84 126.21 141.34 127.09 141.08 Z M 128.06 140.79 L 129.00 140.50 C 129.87 140.24 130.37 139.32 130.10 138.44 C 129.84 137.57 128.92 137.08 128.05 137.34 L 127.11 137.62 C 126.23 137.89 125.74 138.81 126.00 139.68 C 126.27 140.56 127.19 141.05 128.06 140.79 Z M 129.00 140.50 L 129.95 140.21 C 130.82 139.95 131.32 139.03 131.05 138.15 C 130.79 137.28 129.86 136.79 128.99 137.05 L 128.04 137.34 C 127.17 137.61 126.68 138.53 126.94 139.40 C 127.21 140.27 128.13 140.77 129.00 140.50 Z M 129.95 140.21 L 130.91 139.92 C 131.78 139.65 132.27 138.73 132.01 137.86 C 131.74 136.99 130.82 136.50 129.95 136.76 L 128.99 137.06 C 128.12 137.32 127.63 138.25 127.89 139.12 C 128.16 139.99 129.08 140.48 129.95 140.21 Z M 130.92 139.91 L 131.89 139.62 C 132.75 139.35 133.24 138.43 132.97 137.56 C 132.71 136.69 131.78 136.20 130.91 136.47 L 129.94 136.77 C 129.07 137.03 128.59 137.96 128.86 138.83 C 129.12 139.69 130.05 140.18 130.92 139.91 Z M 131.89 139.61 L 132.85 139.31 C 133.72 139.04 134.21 138.12 133.94 137.25 C 133.67 136.39 132.75 135.90 131.88 136.17 L 130.91 136.47 C 130.04 136.74 129.56 137.66 129.83 138.53 C 130.10 139.40 131.02 139.88 131.89 139.61 Z M 132.86 139.31 L 133.79 139.02 C 134.66 138.75 135.14 137.83 134.87 136.96 C 134.60 136.09 133.68 135.61 132.81 135.88 L 131.88 136.17 C 131.01 136.44 130.53 137.36 130.80 138.23 C 131.07 139.10 131.99 139.58 132.86 139.31 Z M 133.79 139.01 L 134.74 138.72 C 135.60 138.45 136.09 137.53 135.81 136.66 C 135.54 135.80 134.62 135.32 133.76 135.59 L 132.81 135.88 C 131.95 136.15 131.47 137.07 131.74 137.94 C 132.01 138.80 132.93 139.28 133.79 139.01 Z M 134.74 138.72 L 135.69 138.42 C 136.56 138.15 137.04 137.23 136.77 136.37 C 136.50 135.50 135.58 135.02 134.72 135.29 L 133.76 135.59 C 132.90 135.86 132.42 136.78 132.69 137.64 C 132.96 138.50 133.87 138.99 134.74 138.72 Z M 135.69 138.41 L 136.66 138.11 C 137.52 137.85 138.00 136.93 137.73 136.07 C 137.46 135.21 136.55 134.73 135.69 134.99 L 134.72 135.29 C 133.86 135.56 133.38 136.48 133.65 137.34 C 133.91 138.20 134.83 138.68 135.69 138.41 Z M 136.65 138.11 L 137.63 137.81 C 138.49 137.54 138.97 136.63 138.70 135.77 C 138.44 134.91 137.52 134.43 136.66 134.69 L 135.69 135.00 C 134.83 135.26 134.35 136.17 134.61 137.04 C 134.88 137.90 135.79 138.38 136.65 138.11 Z M 137.62 137.81 L 138.55 137.52 C 139.41 137.26 139.89 136.35 139.63 135.49 C 139.37 134.63 138.46 134.15 137.60 134.41 L 136.67 134.70 C 135.81 134.96 135.33 135.87 135.59 136.73 C 135.85 137.59 136.76 138.07 137.62 137.81 Z M 138.55 137.52 L 139.49 137.23 C 140.35 136.97 140.83 136.07 140.57 135.21 C 140.31 134.35 139.40 133.87 138.54 134.13 L 137.60 134.41 C 136.74 134.68 136.26 135.58 136.52 136.44 C 136.78 137.30 137.69 137.78 138.55 137.52 Z M 139.49 137.23 L 140.44 136.94 C 141.29 136.68 141.78 135.78 141.52 134.92 C 141.26 134.06 140.35 133.58 139.49 133.84 L 138.54 134.13 C 137.69 134.39 137.20 135.30 137.46 136.15 C 137.72 137.01 138.63 137.49 139.49 137.23 Z M 140.44 136.94 L 141.40 136.65 C 142.26 136.38 142.74 135.48 142.48 134.63 C 142.22 133.77 141.31 133.29 140.46 133.55 L 139.49 133.84 C 138.64 134.11 138.16 135.01 138.42 135.86 C 138.68 136.72 139.58 137.20 140.44 136.94 Z M 141.40 136.64 L 142.38 136.34 C 143.23 136.08 143.71 135.18 143.45 134.32 C 143.19 133.47 142.29 132.99 141.43 133.25 L 140.46 133.55 C 139.60 133.82 139.12 134.72 139.39 135.57 C 139.65 136.42 140.55 136.90 141.40 136.64 Z M 142.38 136.34 L 143.36 136.03 C 144.21 135.77 144.69 134.87 144.42 134.02 C 144.16 133.17 143.26 132.69 142.41 132.96 L 141.43 133.26 C 140.58 133.52 140.11 134.42 140.37 135.27 C 140.63 136.12 141.53 136.60 142.38 136.34 Z M 143.36 136.03 L 144.33 135.73 C 145.17 135.46 145.65 134.56 145.38 133.72 C 145.12 132.87 144.22 132.40 143.37 132.66 L 142.40 132.96 C 141.56 133.23 141.09 134.13 141.35 134.97 C 141.61 135.82 142.52 136.29 143.36 136.03 Z M 144.33 135.72 L 145.30 135.42 C 146.14 135.15 146.61 134.25 146.34 133.41 C 146.08 132.56 145.18 132.10 144.33 132.36 L 143.37 132.67 C 142.52 132.93 142.05 133.83 142.32 134.68 C 142.58 135.52 143.48 135.99 144.33 135.72 Z M 145.30 135.41 L 146.26 135.11 C 147.11 134.84 147.57 133.94 147.30 133.10 C 147.04 132.26 146.14 131.79 145.30 132.06 L 144.33 132.37 C 143.49 132.63 143.02 133.53 143.29 134.37 C 143.56 135.22 144.46 135.68 145.30 135.41 Z M 146.27 135.10 L 147.22 134.80 C 148.06 134.53 148.52 133.63 148.25 132.79 C 147.98 131.95 147.08 131.49 146.25 131.76 L 145.29 132.06 C 144.45 132.33 143.99 133.23 144.26 134.07 C 144.53 134.91 145.43 135.37 146.27 135.10 Z M 147.22 134.79 L 148.15 134.49 C 148.99 134.22 149.45 133.33 149.18 132.49 C 148.91 131.65 148.01 131.19 147.18 131.46 L 146.24 131.76 C 145.41 132.03 144.95 132.93 145.22 133.77 C 145.49 134.60 146.38 135.06 147.22 134.79 Z M 148.15 134.49 L 149.13 134.17 C 149.96 133.90 150.42 133.00 150.15 132.17 C 149.88 131.34 148.98 130.88 148.15 131.15 L 147.17 131.47 C 146.34 131.74 145.88 132.64 146.15 133.47 C 146.43 134.30 147.32 134.76 148.15 134.49 Z M 149.13 134.16 L 150.12 133.84 C 150.95 133.57 151.40 132.68 151.13 131.85 C 150.86 131.01 149.96 130.56 149.13 130.83 L 148.15 131.16 C 147.32 131.43 146.86 132.32 147.13 133.15 C 147.41 133.98 148.30 134.44 149.13 134.16 Z M 150.12 133.84 L 151.08 133.52 C 151.90 133.25 152.35 132.36 152.08 131.53 C 151.81 130.70 150.92 130.25 150.09 130.52 L 149.13 130.84 C 148.30 131.11 147.86 132.00 148.13 132.83 C 148.40 133.66 149.29 134.11 150.12 133.84 Z M 151.07 133.52 L 152.01 133.21 C 152.83 132.94 153.28 132.05 153.01 131.22 C 152.73 130.40 151.84 129.95 151.02 130.22 L 150.09 130.53 C 149.26 130.80 148.82 131.69 149.09 132.52 C 149.36 133.34 150.25 133.79 151.07 133.52 Z M 152.00 133.20 L 152.92 132.90 C 153.74 132.63 154.18 131.74 153.91 130.92 C 153.64 130.10 152.76 129.66 151.94 129.93 L 151.02 130.23 C 150.20 130.50 149.75 131.38 150.03 132.21 C 150.30 133.03 151.18 133.47 152.00 133.20 Z M 152.91 132.90 L 153.85 132.59 C 154.66 132.32 155.11 131.44 154.84 130.62 C 154.57 129.80 153.69 129.36 152.87 129.62 L 151.94 129.93 C 151.12 130.20 150.67 131.08 150.94 131.90 C 151.21 132.72 152.09 133.17 152.91 132.90 Z M 153.84 132.58 L 154.80 132.27 C 155.62 132.00 156.07 131.13 155.80 130.31 C 155.53 129.49 154.65 129.05 153.84 129.32 L 152.88 129.63 C 152.06 129.90 151.61 130.77 151.88 131.59 C 152.15 132.41 153.03 132.85 153.84 132.58 Z M 154.80 132.26 L 155.75 131.95 C 156.57 131.69 157.01 130.81 156.75 130.00 C 156.48 129.19 155.61 128.75 154.80 129.01 L 153.84 129.32 C 153.03 129.59 152.59 130.46 152.85 131.27 C 153.12 132.08 153.99 132.53 154.80 132.26 Z M 155.75 131.95 L 156.70 131.64 C 157.51 131.37 157.95 130.50 157.68 129.70 C 157.42 128.89 156.55 128.45 155.74 128.71 L 154.80 129.02 C 153.99 129.28 153.55 130.15 153.81 130.96 C 154.07 131.77 154.94 132.21 155.75 131.95 Z M 156.70 131.63 L 157.63 131.32 C 158.44 131.06 158.88 130.20 158.61 129.39 C 158.35 128.59 157.48 128.15 156.68 128.41 L 155.74 128.72 C 154.94 128.98 154.50 129.85 154.76 130.65 C 155.03 131.45 155.89 131.89 156.70 131.63 Z M 157.63 131.32 L 158.59 131.00 C 159.39 130.74 159.83 129.88 159.56 129.08 C 159.30 128.28 158.44 127.84 157.64 128.10 L 156.68 128.42 C 155.88 128.68 155.44 129.54 155.71 130.34 C 155.97 131.14 156.83 131.58 157.63 131.32 Z M 158.59 130.99 L 159.55 130.68 C 160.35 130.42 160.78 129.56 160.52 128.76 C 160.26 127.96 159.40 127.53 158.60 127.79 L 157.64 128.11 C 156.84 128.37 156.41 129.23 156.67 130.03 C 156.93 130.82 157.79 131.26 158.59 130.99 Z M 159.55 130.67 L 160.50 130.36 C 161.29 130.10 161.72 129.25 161.47 128.45 C 161.21 127.66 160.35 127.23 159.56 127.49 L 158.61 127.80 C 157.81 128.06 157.38 128.91 157.64 129.71 C 157.90 130.50 158.75 130.93 159.55 130.67 Z M 160.49 130.36 L 161.43 130.05 C 162.22 129.80 162.66 128.95 162.40 128.16 C 162.15 127.37 161.30 126.93 160.51 127.19 L 159.57 127.49 C 158.78 127.75 158.34 128.60 158.60 129.39 C 158.85 130.18 159.70 130.61 160.49 130.36 Z M 161.42 130.05 L 162.36 129.75 C 163.15 129.50 163.59 128.66 163.34 127.87 C 163.09 127.08 162.25 126.65 161.46 126.90 L 160.52 127.19 C 159.73 127.44 159.30 128.28 159.54 129.07 C 159.79 129.86 160.63 130.30 161.42 130.05 Z M 162.35 129.75 L 163.33 129.45 C 164.12 129.20 164.56 128.37 164.32 127.58 C 164.08 126.80 163.25 126.36 162.46 126.60 L 161.47 126.90 C 160.69 127.14 160.25 127.97 160.49 128.76 C 160.73 129.55 161.56 129.99 162.35 129.75 Z M 163.32 129.44 L 164.29 129.15 C 165.08 128.92 165.52 128.09 165.29 127.31 C 165.05 126.52 164.23 126.08 163.44 126.31 L 162.47 126.60 C 161.69 126.83 161.24 127.66 161.48 128.45 C 161.71 129.23 162.54 129.68 163.32 129.44 Z M 164.28 129.15 L 165.23 128.87 C 166.01 128.64 166.46 127.82 166.23 127.04 C 166.00 126.26 165.18 125.81 164.40 126.04 L 163.45 126.31 C 162.67 126.54 162.22 127.36 162.45 128.15 C 162.68 128.93 163.50 129.38 164.28 129.15 Z M 165.22 128.86 L 166.16 128.59 C 166.93 128.37 167.38 127.55 167.16 126.78 C 166.93 126.00 166.12 125.55 165.34 125.77 L 164.41 126.04 C 163.63 126.27 163.18 127.08 163.40 127.86 C 163.63 128.64 164.45 129.09 165.22 128.86 Z M 166.15 128.59 L 167.11 128.31 C 167.89 128.09 168.34 127.28 168.11 126.50 C 167.89 125.73 167.08 125.28 166.30 125.50 L 165.34 125.78 C 164.57 126.00 164.12 126.81 164.34 127.59 C 164.56 128.36 165.37 128.81 166.15 128.59 Z M 167.11 128.31 L 168.07 128.03 C 168.84 127.81 169.29 127.00 169.06 126.23 C 168.84 125.46 168.04 125.01 167.26 125.23 L 166.31 125.51 C 165.53 125.73 165.09 126.54 165.31 127.31 C 165.53 128.08 166.34 128.53 167.11 128.31 Z M 168.06 128.03 L 169.02 127.75 C 169.79 127.53 170.23 126.73 170.01 125.96 C 169.79 125.19 168.99 124.74 168.22 124.96 L 167.26 125.24 C 166.49 125.46 166.05 126.26 166.27 127.03 C 166.49 127.80 167.29 128.25 168.06 128.03 Z M 169.02 127.75 L 169.98 127.47 C 170.75 127.25 171.19 126.45 170.97 125.68 C 170.75 124.91 169.95 124.47 169.18 124.69 L 168.22 124.97 C 167.45 125.19 167.01 125.99 167.23 126.76 C 167.45 127.53 168.25 127.97 169.02 127.75 Z M 169.98 127.47 L 170.90 127.20 C 171.66 126.98 172.10 126.18 171.88 125.42 C 171.66 124.65 170.87 124.21 170.10 124.43 L 169.18 124.70 C 168.42 124.92 167.98 125.71 168.20 126.48 C 168.42 127.24 169.22 127.69 169.98 127.47 Z M 170.89 127.20 L 171.83 126.93 C 172.59 126.71 173.03 125.92 172.81 125.16 C 172.60 124.39 171.80 123.95 171.04 124.17 L 170.10 124.43 C 169.34 124.65 168.90 125.45 169.12 126.21 C 169.34 126.98 170.13 127.42 170.89 127.20 Z M 171.82 126.93 L 172.78 126.66 C 173.55 126.45 173.99 125.66 173.78 124.89 C 173.57 124.13 172.77 123.68 172.01 123.90 L 171.04 124.17 C 170.28 124.38 169.84 125.17 170.05 125.94 C 170.26 126.70 171.06 127.15 171.82 126.93 Z M 172.77 126.66 L 173.78 126.39 C 174.54 126.18 174.99 125.39 174.78 124.63 C 174.58 123.87 173.79 123.42 173.03 123.63 L 172.02 123.90 C 171.26 124.11 170.81 124.89 171.02 125.66 C 171.22 126.42 172.01 126.87 172.77 126.66 Z M 173.76 126.39 L 174.74 126.14 C 175.50 125.94 175.96 125.16 175.76 124.39 C 175.56 123.63 174.78 123.17 174.02 123.37 L 173.04 123.62 C 172.28 123.82 171.82 124.60 172.02 125.37 C 172.22 126.13 173.00 126.59 173.76 126.39 Z M 174.73 126.14 L 175.67 125.90 C 176.43 125.71 176.90 124.93 176.71 124.17 C 176.51 123.40 175.74 122.94 174.97 123.13 L 174.03 123.37 C 173.26 123.56 172.80 124.34 172.99 125.10 C 173.19 125.87 173.96 126.33 174.73 126.14 Z M 175.66 125.90 L 176.63 125.66 C 177.40 125.48 177.86 124.70 177.68 123.94 C 177.49 123.17 176.72 122.70 175.95 122.89 L 174.98 123.13 C 174.22 123.32 173.75 124.09 173.94 124.85 C 174.12 125.62 174.90 126.09 175.66 125.90 Z M 176.62 125.66 L 177.61 125.43 C 178.38 125.24 178.85 124.47 178.67 123.71 C 178.48 122.94 177.71 122.47 176.94 122.65 L 175.96 122.89 C 175.19 123.07 174.72 123.85 174.90 124.61 C 175.09 125.38 175.86 125.85 176.62 125.66 Z M 177.61 125.43 L 178.61 125.19 C 179.37 125.01 179.85 124.24 179.66 123.47 C 179.48 122.71 178.71 122.23 177.95 122.42 L 176.95 122.65 C 176.18 122.84 175.71 123.60 175.89 124.37 C 176.07 125.14 176.84 125.61 177.61 125.43 Z M 178.60 125.19 L 179.10 125.07 C 179.86 124.89 180.34 124.12 180.15 123.36 C 179.97 122.59 179.21 122.12 178.44 122.30 L 177.95 122.42 C 177.18 122.60 176.71 123.37 176.89 124.13 C 177.07 124.90 177.84 125.37 178.60 125.19 Z"
      fill="black"
      fill-rule="nonzero" /><path d="M 152.80 103.69 L 152.62 104.63 C 152.47 105.45 153.01 106.25 153.84 106.40 C 154.66 106.56 155.46 106.01 155.61 105.19 L 155.79 104.26 C 155.94 103.43 155.40 102.64 154.57 102.48 C 153.75 102.33 152.95 102.87 152.80 103.69 Z M 152.59 104.68 L 152.45 105.63 C 152.32 106.47 152.90 107.26 153.74 107.39 C 154.59 107.52 155.37 106.94 155.50 106.09 L 155.64 105.14 C 155.77 104.30 155.19 103.51 154.35 103.38 C 153.51 103.26 152.72 103.84 152.59 104.68 Z M 152.41 105.73 L 152.33 106.72 C 152.26 107.59 152.90 108.34 153.76 108.41 C 154.63 108.49 155.38 107.85 155.45 106.98 L 155.54 105.99 C 155.61 105.13 154.97 104.37 154.10 104.30 C 153.24 104.23 152.48 104.87 152.41 105.73 Z M 152.30 106.87 L 152.31 107.92 C 152.32 108.79 153.04 109.50 153.92 109.49 C 154.80 109.48 155.50 108.76 155.49 107.88 L 155.48 106.84 C 155.47 105.96 154.75 105.25 153.88 105.26 C 153.00 105.27 152.29 105.99 152.30 106.87 Z M 152.31 108.08 L 152.42 109.08 C 152.52 109.96 153.31 110.60 154.20 110.50 C 155.08 110.40 155.71 109.60 155.61 108.72 L 155.50 107.72 C 155.40 106.84 154.60 106.20 153.72 106.30 C 152.84 106.40 152.21 107.20 152.31 108.08 Z M 152.43 109.21 L 152.62 110.18 C 152.79 111.05 153.64 111.62 154.51 111.45 C 155.39 111.28 155.96 110.44 155.79 109.56 L 155.60 108.59 C 155.43 107.72 154.58 107.15 153.71 107.32 C 152.83 107.49 152.26 108.33 152.43 109.21 Z M 152.64 110.26 L 152.88 111.25 C 153.10 112.12 153.98 112.64 154.84 112.43 C 155.71 112.21 156.23 111.33 156.02 110.47 L 155.77 109.48 C 155.56 108.61 154.68 108.09 153.81 108.30 C 152.95 108.52 152.42 109.39 152.64 110.26 Z M 152.90 111.30 L 153.18 112.29 C 153.43 113.15 154.32 113.65 155.18 113.40 C 156.04 113.16 156.54 112.26 156.29 111.40 L 156.01 110.41 C 155.76 109.56 154.86 109.06 154.01 109.31 C 153.15 109.55 152.65 110.45 152.90 111.30 Z M 153.19 112.33 L 153.49 113.29 C 153.75 114.15 154.66 114.62 155.51 114.36 C 156.36 114.10 156.84 113.19 156.58 112.34 L 156.28 111.37 C 156.02 110.52 155.11 110.04 154.26 110.30 C 153.40 110.57 152.92 111.47 153.19 112.33 Z M 153.49 113.30 L 153.79 114.26 C 154.06 115.11 154.97 115.59 155.82 115.32 C 156.67 115.05 157.15 114.14 156.88 113.28 L 156.58 112.33 C 156.31 111.47 155.40 111.00 154.55 111.27 C 153.69 111.54 153.22 112.45 153.49 113.30 Z M 153.78 114.25 L 154.09 115.24 C 154.36 116.09 155.27 116.57 156.12 116.31 C 156.98 116.04 157.46 115.13 157.19 114.27 L 156.88 113.29 C 156.62 112.43 155.71 111.95 154.85 112.22 C 154.00 112.49 153.52 113.40 153.78 114.25 Z M 154.09 115.23 L 154.37 116.17 C 154.64 117.03 155.55 117.52 156.41 117.25 C 157.27 116.99 157.75 116.08 157.48 115.22 L 157.20 114.28 C 156.93 113.42 156.02 112.94 155.16 113.20 C 154.30 113.46 153.82 114.37 154.09 115.23 Z M 154.37 116.17 L 154.65 117.10 C 154.92 117.96 155.83 118.45 156.69 118.19 C 157.55 117.92 158.03 117.01 157.77 116.15 L 157.49 115.22 C 157.23 114.36 156.32 113.88 155.45 114.14 C 154.59 114.40 154.11 115.31 154.37 116.17 Z M 154.65 117.10 L 154.94 118.04 C 155.20 118.91 156.11 119.39 156.97 119.13 C 157.84 118.87 158.32 117.96 158.06 117.10 L 157.78 116.15 C 157.51 115.29 156.60 114.80 155.74 115.06 C 154.87 115.33 154.39 116.24 154.65 117.10 Z M 154.93 118.05 L 155.21 118.96 C 155.48 119.83 156.39 120.31 157.25 120.05 C 158.12 119.79 158.61 118.87 158.34 118.01 L 158.06 117.09 C 157.80 116.23 156.89 115.74 156.02 116.00 C 155.16 116.27 154.67 117.18 154.93 118.05 Z M 155.21 118.96 L 155.49 119.88 C 155.75 120.74 156.67 121.23 157.53 120.97 C 158.40 120.71 158.89 119.79 158.62 118.92 L 158.35 118.01 C 158.08 117.14 157.17 116.65 156.30 116.92 C 155.43 117.18 154.95 118.10 155.21 118.96 Z M 155.48 119.88 L 155.77 120.83 C 156.03 121.69 156.95 122.19 157.82 121.92 C 158.69 121.66 159.18 120.74 158.92 119.87 L 158.63 118.93 C 158.37 118.06 157.45 117.57 156.58 117.83 C 155.71 118.09 155.22 119.01 155.48 119.88 Z M 155.77 120.82 L 156.06 121.80 C 156.32 122.67 157.23 123.17 158.11 122.91 C 158.98 122.65 159.47 121.73 159.21 120.86 L 158.92 119.88 C 158.66 119.01 157.74 118.51 156.87 118.77 C 156.00 119.03 155.51 119.95 155.77 120.82 Z M 156.05 121.79 L 156.34 122.79 C 156.60 123.67 157.52 124.17 158.39 123.91 C 159.27 123.66 159.77 122.74 159.51 121.87 L 159.22 120.87 C 158.96 119.99 158.05 119.49 157.17 119.75 C 156.30 120.00 155.80 120.92 156.05 121.79 Z M 156.34 122.78 L 156.62 123.77 C 156.87 124.64 157.78 125.15 158.66 124.90 C 159.54 124.65 160.05 123.74 159.80 122.86 L 159.52 121.88 C 159.27 121.00 158.35 120.49 157.47 120.74 C 156.60 120.99 156.09 121.91 156.34 122.78 Z M 156.61 123.76 L 156.87 124.69 C 157.12 125.58 158.03 126.09 158.91 125.85 C 159.79 125.60 160.31 124.69 160.06 123.81 L 159.80 122.87 C 159.56 121.99 158.65 121.47 157.77 121.72 C 156.89 121.96 156.37 122.87 156.61 123.76 Z M 156.87 124.69 L 157.13 125.64 C 157.37 126.52 158.28 127.04 159.16 126.80 C 160.04 126.57 160.56 125.66 160.33 124.77 L 160.07 123.82 C 159.83 122.94 158.92 122.41 158.04 122.65 C 157.15 122.89 156.63 123.80 156.87 124.69 Z M 157.12 125.63 L 157.38 126.59 C 157.61 127.48 158.52 128.01 159.40 127.77 C 160.29 127.54 160.82 126.63 160.59 125.75 L 160.33 124.78 C 160.10 123.90 159.19 123.37 158.30 123.60 C 157.42 123.83 156.89 124.74 157.12 125.63 Z M 157.37 126.59 L 157.63 127.57 C 157.86 128.45 158.76 128.99 159.65 128.76 C 160.54 128.53 161.07 127.62 160.84 126.73 L 160.59 125.75 C 160.36 124.87 159.45 124.33 158.57 124.56 C 157.68 124.79 157.14 125.70 157.37 126.59 Z M 157.62 127.56 L 157.88 128.55 C 158.10 129.44 159.01 129.98 159.90 129.76 C 160.79 129.53 161.32 128.63 161.10 127.74 L 160.85 126.74 C 160.62 125.85 159.72 125.31 158.83 125.54 C 157.94 125.76 157.40 126.67 157.62 127.56 Z M 157.87 128.55 L 158.11 129.51 C 158.33 130.40 159.24 130.95 160.13 130.72 C 161.02 130.50 161.57 129.60 161.34 128.70 L 161.10 127.74 C 160.88 126.85 159.98 126.31 159.08 126.53 C 158.19 126.75 157.65 127.66 157.87 128.55 Z M 158.11 129.51 L 158.34 130.45 C 158.56 131.35 159.46 131.89 160.36 131.67 C 161.25 131.46 161.80 130.55 161.58 129.66 L 161.35 128.71 C 161.13 127.82 160.22 127.27 159.33 127.49 C 158.44 127.71 157.89 128.61 158.11 129.51 Z M 158.34 130.44 L 158.57 131.40 C 158.78 132.30 159.68 132.85 160.58 132.64 C 161.48 132.42 162.03 131.52 161.81 130.63 L 161.58 129.67 C 161.37 128.77 160.47 128.22 159.57 128.43 C 158.67 128.65 158.12 129.55 158.34 130.44 Z M 158.56 131.40 L 158.79 132.37 C 159.00 133.27 159.90 133.83 160.80 133.62 C 161.70 133.41 162.26 132.51 162.05 131.61 L 161.82 130.63 C 161.61 129.74 160.71 129.18 159.81 129.39 C 158.91 129.60 158.35 130.50 158.56 131.40 Z M 158.78 132.36 L 159.01 133.35 C 159.21 134.25 160.11 134.81 161.01 134.61 C 161.91 134.41 162.48 133.51 162.27 132.61 L 162.05 131.62 C 161.85 130.72 160.95 130.15 160.05 130.36 C 159.15 130.56 158.58 131.46 158.78 132.36 Z M 159.00 133.33 L 159.22 134.34 C 159.42 135.24 160.31 135.81 161.22 135.62 C 162.12 135.42 162.70 134.52 162.50 133.62 L 162.28 132.62 C 162.08 131.71 161.19 131.14 160.28 131.34 C 159.38 131.54 158.81 132.43 159.00 133.33 Z M 159.22 134.32 L 159.42 135.31 C 159.61 136.22 160.50 136.80 161.41 136.61 C 162.32 136.42 162.90 135.53 162.71 134.62 L 162.50 133.63 C 162.31 132.73 161.42 132.14 160.52 132.33 C 159.61 132.52 159.03 133.41 159.22 134.32 Z M 159.42 135.30 L 159.61 136.26 C 159.80 137.17 160.68 137.76 161.59 137.57 C 162.50 137.39 163.09 136.50 162.91 135.59 L 162.72 134.64 C 162.53 133.72 161.65 133.14 160.74 133.32 C 159.83 133.50 159.24 134.39 159.42 135.30 Z M 159.61 136.24 L 159.80 137.21 C 159.97 138.12 160.86 138.72 161.77 138.54 C 162.68 138.37 163.28 137.48 163.10 136.57 L 162.91 135.60 C 162.74 134.69 161.85 134.09 160.94 134.27 C 160.03 134.45 159.43 135.33 159.61 136.24 Z M 159.79 137.20 L 159.98 138.18 C 160.15 139.10 161.03 139.70 161.94 139.53 C 162.86 139.35 163.46 138.47 163.29 137.56 L 163.10 136.58 C 162.93 135.67 162.05 135.06 161.14 135.24 C 160.22 135.41 159.62 136.29 159.79 137.20 Z M 159.97 138.17 L 160.15 139.16 C 160.32 140.08 161.20 140.69 162.12 140.52 C 163.03 140.35 163.64 139.47 163.47 138.55 L 163.29 137.57 C 163.12 136.65 162.24 136.04 161.33 136.21 C 160.41 136.38 159.81 137.26 159.97 138.17 Z M 160.15 139.16 L 160.33 140.16 C 160.49 141.07 161.37 141.68 162.29 141.52 C 163.21 141.36 163.82 140.48 163.65 139.56 L 163.48 138.56 C 163.31 137.64 162.43 137.03 161.52 137.20 C 160.60 137.36 159.99 138.24 160.15 139.16 Z M 160.33 140.15 L 160.51 141.16 C 160.67 142.08 161.54 142.69 162.46 142.53 C 163.38 142.37 164.00 141.49 163.83 140.57 L 163.66 139.56 C 163.49 138.64 162.62 138.03 161.70 138.19 C 160.78 138.35 160.17 139.23 160.33 140.15 Z M 160.50 141.16 L 160.68 142.14 C 160.84 143.06 161.71 143.68 162.63 143.52 C 163.55 143.36 164.17 142.48 164.01 141.56 L 163.84 140.57 C 163.68 139.65 162.80 139.04 161.88 139.20 C 160.96 139.36 160.34 140.24 160.50 141.16 Z M 160.67 142.14 L 160.84 143.12 C 161.00 144.04 161.88 144.66 162.80 144.50 C 163.72 144.34 164.34 143.46 164.18 142.54 L 164.01 141.56 C 163.85 140.64 162.98 140.02 162.05 140.18 C 161.13 140.34 160.51 141.22 160.67 142.14 Z M 160.84 143.11 L 161.01 144.09 C 161.16 145.02 162.04 145.64 162.96 145.48 C 163.88 145.33 164.50 144.45 164.35 143.53 L 164.18 142.55 C 164.02 141.62 163.15 141.00 162.23 141.16 C 161.30 141.31 160.68 142.19 160.84 143.11 Z M 161.00 144.09 L 161.17 145.08 C 161.32 146.00 162.19 146.62 163.12 146.47 C 164.04 146.32 164.67 145.45 164.51 144.52 L 164.35 143.53 C 164.20 142.61 163.32 141.99 162.40 142.14 C 161.48 142.29 160.85 143.16 161.00 144.09 Z M 161.17 145.07 L 161.32 146.06 C 161.47 146.98 162.34 147.61 163.27 147.47 C 164.19 147.32 164.82 146.45 164.67 145.52 L 164.52 144.53 C 164.37 143.60 163.50 142.98 162.57 143.12 C 161.65 143.27 161.02 144.14 161.17 145.07 Z M 161.32 146.05 L 161.48 147.04 C 161.62 147.97 162.49 148.61 163.41 148.46 C 164.34 148.32 164.97 147.45 164.83 146.53 L 164.68 145.53 C 164.53 144.60 163.67 143.97 162.74 144.11 C 161.81 144.26 161.18 145.12 161.32 146.05 Z M 161.47 147.03 L 161.62 148.03 C 161.76 148.96 162.62 149.60 163.55 149.46 C 164.48 149.32 165.12 148.46 164.98 147.53 L 164.83 146.54 C 164.70 145.61 163.83 144.97 162.90 145.10 C 161.98 145.24 161.34 146.11 161.47 147.03 Z M 161.62 148.02 L 161.76 149.00 C 161.89 149.93 162.75 150.58 163.68 150.45 C 164.61 150.31 165.25 149.46 165.12 148.53 L 164.98 147.54 C 164.85 146.61 163.99 145.97 163.06 146.10 C 162.13 146.23 161.49 147.09 161.62 148.02 Z M 161.75 148.99 L 161.88 149.96 C 162.01 150.89 162.86 151.55 163.79 151.42 C 164.73 151.30 165.38 150.44 165.26 149.51 L 165.13 148.54 C 165.00 147.61 164.15 146.95 163.21 147.07 C 162.28 147.20 161.63 148.06 161.75 148.99 Z M 161.88 149.95 L 162.00 150.93 C 162.12 151.86 162.97 152.52 163.91 152.40 C 164.84 152.28 165.50 151.43 165.38 150.50 L 165.26 149.52 C 165.14 148.59 164.29 147.93 163.35 148.04 C 162.42 148.16 161.76 149.02 161.88 149.95 Z M 162.00 150.92 L 162.12 151.90 C 162.23 152.84 163.08 153.50 164.02 153.39 C 164.95 153.28 165.62 152.43 165.51 151.49 L 165.39 150.51 C 165.27 149.57 164.42 148.90 163.49 149.02 C 162.55 149.13 161.89 149.98 162.00 150.92 Z M 162.11 151.89 L 162.23 152.89 C 162.34 153.82 163.19 154.49 164.12 154.39 C 165.06 154.28 165.73 153.43 165.62 152.49 L 165.51 151.50 C 165.40 150.56 164.55 149.89 163.61 150.00 C 162.68 150.11 162.01 150.96 162.11 151.89 Z M 162.23 152.88 L 162.34 153.88 C 162.44 154.82 163.29 155.50 164.23 155.39 C 165.17 155.29 165.84 154.44 165.74 153.50 L 165.63 152.50 C 165.52 151.56 164.68 150.88 163.74 150.99 C 162.80 151.09 162.12 151.94 162.23 152.88 Z M 162.34 153.88 L 162.45 154.89 C 162.55 155.84 163.39 156.52 164.34 156.41 C 165.28 156.31 165.96 155.47 165.85 154.52 L 165.74 153.51 C 165.64 152.57 164.79 151.89 163.85 151.99 C 162.91 152.09 162.23 152.94 162.34 153.88 Z M 162.44 154.89 L 162.55 155.91 C 162.65 156.85 163.50 157.53 164.44 157.43 C 165.38 157.33 166.06 156.48 165.96 155.54 L 165.86 154.53 C 165.76 153.59 164.91 152.90 163.97 153.00 C 163.03 153.10 162.34 153.95 162.44 154.89 Z M 162.55 155.90 L 162.65 156.90 C 162.75 157.84 163.60 158.53 164.54 158.43 C 165.48 158.33 166.17 157.49 166.07 156.54 L 165.97 155.55 C 165.87 154.60 165.02 153.92 164.08 154.02 C 163.14 154.11 162.45 154.96 162.55 155.90 Z M 162.65 156.90 L 162.75 157.90 C 162.85 158.85 163.70 159.54 164.64 159.44 C 165.59 159.34 166.27 158.50 166.18 157.55 L 166.07 156.55 C 165.98 155.60 165.13 154.92 164.19 155.01 C 163.24 155.11 162.55 155.95 162.65 156.90 Z M 162.75 157.90 L 162.85 158.91 C 162.95 159.86 163.79 160.55 164.74 160.45 C 165.68 160.36 166.37 159.51 166.28 158.57 L 166.18 157.56 C 166.08 156.61 165.24 155.92 164.29 156.02 C 163.35 156.11 162.66 156.95 162.75 157.90 Z M 162.85 158.91 L 162.95 159.91 C 163.04 160.86 163.88 161.55 164.83 161.46 C 165.78 161.37 166.47 160.53 166.38 159.58 L 166.28 158.57 C 166.19 157.63 165.35 156.93 164.40 157.02 C 163.45 157.12 162.76 157.96 162.85 158.91 Z M 162.95 159.91 L 163.04 160.91 C 163.13 161.86 163.97 162.55 164.92 162.47 C 165.87 162.38 166.56 161.53 166.48 160.59 L 166.38 159.59 C 166.29 158.64 165.45 157.94 164.50 158.03 C 163.55 158.12 162.86 158.96 162.95 159.91 Z M 163.04 160.90 L 163.13 161.89 C 163.21 162.84 164.05 163.54 165.00 163.45 C 165.95 163.37 166.65 162.53 166.57 161.58 L 166.48 160.59 C 166.39 159.64 165.55 158.94 164.60 159.03 C 163.65 159.11 162.95 159.95 163.04 160.90 Z M 163.12 161.88 L 163.21 162.85 C 163.29 163.80 164.13 164.51 165.08 164.42 C 166.03 164.34 166.73 163.50 166.65 162.55 L 166.57 161.59 C 166.49 160.63 165.65 159.93 164.70 160.01 C 163.75 160.09 163.04 160.93 163.12 161.88 Z M 163.20 162.84 L 163.29 163.88 C 163.36 164.83 164.20 165.55 165.15 165.47 C 166.11 165.39 166.82 164.56 166.74 163.60 L 166.66 162.56 C 166.58 161.61 165.74 160.90 164.79 160.97 C 163.84 161.05 163.13 161.89 163.20 162.84 Z M 163.28 163.87 L 163.36 164.91 C 163.43 165.86 164.27 166.58 165.22 166.51 C 166.18 166.43 166.89 165.60 166.82 164.65 L 166.74 163.61 C 166.67 162.66 165.84 161.94 164.88 162.01 C 163.93 162.09 163.21 162.92 163.28 163.87 Z M 163.36 164.90 L 163.43 165.91 C 163.50 166.86 164.33 167.59 165.28 167.52 C 166.24 167.45 166.96 166.62 166.89 165.67 L 166.82 164.66 C 166.76 163.70 165.93 162.98 164.97 163.05 C 164.01 163.11 163.29 163.94 163.36 164.90 Z M 163.43 165.90 L 163.49 166.89 C 163.55 167.85 164.38 168.57 165.34 168.51 C 166.30 168.45 167.02 167.62 166.96 166.67 L 166.90 165.67 C 166.83 164.72 166.01 163.99 165.05 164.05 C 164.09 164.11 163.37 164.94 163.43 165.90 Z M 163.49 166.88 L 163.55 167.86 C 163.61 168.82 164.43 169.55 165.39 169.49 C 166.35 169.43 167.08 168.61 167.02 167.65 L 166.96 166.67 C 166.91 165.71 166.08 164.98 165.12 165.04 C 164.16 165.10 163.43 165.92 163.49 166.88 Z M 163.54 167.85 L 163.60 168.81 C 163.65 169.78 164.48 170.51 165.44 170.46 C 166.40 170.40 167.13 169.58 167.08 168.62 L 167.02 167.65 C 166.97 166.69 166.15 165.96 165.19 166.01 C 164.23 166.07 163.49 166.89 163.54 167.85 Z M 163.60 168.81 L 163.65 169.77 C 163.70 170.73 164.52 171.47 165.48 171.42 C 166.44 171.37 167.18 170.55 167.13 169.59 L 167.08 168.62 C 167.03 167.66 166.21 166.92 165.25 166.97 C 164.28 167.02 163.55 167.85 163.60 168.81 Z M 163.64 169.77 L 163.70 170.78 C 163.74 171.74 164.56 172.49 165.53 172.44 C 166.49 172.39 167.23 171.57 167.19 170.61 L 167.14 169.59 C 167.09 168.63 166.27 167.89 165.30 167.93 C 164.34 167.98 163.60 168.80 163.64 169.77 Z M 163.69 170.78 L 163.74 171.79 C 163.78 172.75 164.60 173.50 165.57 173.45 C 166.53 173.41 167.28 172.59 167.23 171.62 L 167.19 170.61 C 167.14 169.65 166.32 168.90 165.36 168.95 C 164.39 168.99 163.65 169.81 163.69 170.78 Z M 163.74 171.78 L 163.78 172.78 C 163.82 173.75 164.64 174.50 165.61 174.46 C 166.57 174.42 167.32 173.60 167.28 172.63 L 167.24 171.63 C 167.20 170.66 166.38 169.91 165.41 169.95 C 164.44 170.00 163.70 170.81 163.74 171.78 Z M 163.78 172.78 L 163.82 173.78 C 163.86 174.74 164.67 175.50 165.64 175.46 C 166.61 175.42 167.36 174.60 167.32 173.63 L 167.28 172.64 C 167.24 171.67 166.43 170.92 165.46 170.96 C 164.49 170.99 163.74 171.81 163.78 172.78 Z M 163.82 173.77 L 163.85 174.76 C 163.89 175.73 164.71 176.49 165.67 176.45 C 166.64 176.41 167.40 175.60 167.36 174.63 L 167.33 173.64 C 167.29 172.67 166.47 171.91 165.51 171.95 C 164.54 171.99 163.78 172.80 163.82 173.77 Z M 163.85 174.76 L 163.89 175.74 C 163.92 176.71 164.73 177.47 165.70 177.43 C 166.67 177.40 167.43 176.59 167.40 175.62 L 167.37 174.64 C 167.33 173.66 166.52 172.91 165.55 172.94 C 164.58 172.97 163.82 173.79 163.85 174.76 Z M 163.88 175.73 L 163.91 176.75 C 163.95 177.72 164.76 178.48 165.73 178.45 C 166.70 178.42 167.46 177.61 167.43 176.64 L 167.40 175.62 C 167.37 174.65 166.56 173.89 165.59 173.92 C 164.62 173.95 163.85 174.76 163.88 175.73 Z M 163.91 176.74 L 163.94 177.76 C 163.97 178.74 164.78 179.50 165.75 179.47 C 166.72 179.45 167.49 178.64 167.46 177.66 L 167.44 176.65 C 167.41 175.67 166.60 174.91 165.62 174.93 C 164.65 174.96 163.89 175.77 163.91 176.74 Z M 163.94 177.76 L 163.96 178.76 C 163.99 179.74 164.80 180.51 165.77 180.48 C 166.74 180.46 167.51 179.65 167.49 178.68 L 167.47 177.67 C 167.44 176.70 166.63 175.93 165.66 175.95 C 164.69 175.97 163.92 176.78 163.94 177.76 Z M 163.96 178.76 L 163.98 179.75 C 164.00 180.73 164.81 181.50 165.79 181.48 C 166.76 181.46 167.53 180.65 167.51 179.68 L 167.49 178.68 C 167.47 177.71 166.66 176.94 165.69 176.96 C 164.72 176.98 163.94 177.78 163.96 178.76 Z M 163.98 179.75 L 164.00 180.73 C 164.02 181.71 164.82 182.49 165.80 182.47 C 166.77 182.45 167.55 181.65 167.53 180.67 L 167.52 179.69 C 167.50 178.71 166.69 177.93 165.72 177.95 C 164.74 177.97 163.96 178.77 163.98 179.75 Z M 164.00 180.73 L 164.01 181.70 C 164.02 182.68 164.83 183.46 165.80 183.44 C 166.78 183.43 167.56 182.63 167.55 181.65 L 167.53 180.68 C 167.52 179.70 166.72 178.92 165.74 178.93 C 164.76 178.95 163.98 179.75 164.00 180.73 Z M 164.01 181.69 L 164.02 182.72 C 164.03 183.70 164.83 184.48 165.81 184.47 C 166.79 184.46 167.57 183.66 167.56 182.68 L 167.55 181.66 C 167.54 180.68 166.74 179.90 165.76 179.91 C 164.78 179.92 164.00 180.72 164.01 181.69 Z M 164.02 182.71 L 164.02 183.73 C 164.03 184.71 164.83 185.50 165.81 185.49 C 166.79 185.49 167.58 184.69 167.57 183.71 L 167.56 182.69 C 167.56 181.71 166.76 180.92 165.78 180.93 C 164.80 180.93 164.01 181.73 164.02 182.71 Z M 164.02 183.73 L 164.03 184.74 C 164.03 185.72 164.83 186.51 165.81 186.50 C 166.79 186.50 167.58 185.70 167.57 184.72 L 167.57 183.71 C 167.57 182.73 166.77 181.94 165.79 181.95 C 164.81 181.95 164.02 182.75 164.02 183.73 Z M 164.03 184.73 L 164.03 185.72 C 164.03 186.70 164.83 187.50 165.81 187.50 C 166.79 187.49 167.58 186.70 167.58 185.72 L 167.58 184.73 C 167.57 183.74 166.78 182.95 165.80 182.95 C 164.82 182.96 164.02 183.75 164.03 184.73 Z M 164.03 185.72 L 164.03 186.70 C 164.03 187.68 164.82 188.47 165.80 188.47 C 166.79 188.47 167.58 187.68 167.58 186.70 L 167.58 185.72 C 167.58 184.74 166.78 183.94 165.80 183.94 C 164.82 183.94 164.03 184.74 164.03 185.72 Z M 164.02 186.70 L 164.02 187.68 C 164.02 188.66 164.82 189.46 165.80 189.46 C 166.79 189.46 167.58 188.66 167.58 187.68 L 167.58 186.70 C 167.58 185.71 166.79 184.92 165.80 184.92 C 164.82 184.92 164.02 185.71 164.02 186.70 Z M 164.02 187.68 L 164.02 188.69 C 164.02 189.67 164.82 190.47 165.80 190.47 C 166.79 190.47 167.58 189.67 167.58 188.69 L 167.58 187.68 C 167.58 186.69 166.79 185.90 165.80 185.90 C 164.82 185.90 164.02 186.69 164.02 187.68 Z M 164.02 188.69 L 164.02 189.69 C 164.02 190.67 164.82 191.47 165.80 191.47 C 166.79 191.47 167.58 190.67 167.58 189.69 L 167.58 188.69 C 167.58 187.71 166.79 186.91 165.80 186.91 C 164.82 186.91 164.02 187.71 164.02 188.69 Z M 164.02 189.69 L 164.02 190.68 C 164.02 191.67 164.82 192.46 165.80 192.46 C 166.79 192.46 167.58 191.67 167.58 190.68 L 167.58 189.69 C 167.58 188.70 166.79 187.91 165.80 187.91 C 164.82 187.91 164.02 188.70 164.02 189.69 Z M 164.02 190.68 L 164.02 191.67 C 164.02 192.66 164.82 193.46 165.80 193.46 C 166.79 193.46 167.59 192.66 167.59 191.67 L 167.59 190.68 C 167.59 189.70 166.79 188.90 165.80 188.90 C 164.82 188.90 164.02 189.70 164.02 190.68 Z M 164.02 191.67 L 164.02 192.68 C 164.02 193.66 164.82 194.46 165.80 194.46 C 166.79 194.46 167.59 193.66 167.59 192.68 L 167.59 191.67 C 167.59 190.69 166.79 189.89 165.80 189.89 C 164.82 189.89 164.02 190.69 164.02 191.67 Z M 164.02 192.67 L 164.02 193.72 C 164.02 194.70 164.81 195.50 165.80 195.50 C 166.79 195.50 167.59 194.71 167.59 193.72 L 167.59 192.68 C 167.59 191.69 166.79 190.89 165.81 190.89 C 164.82 190.89 164.02 191.69 164.02 192.67 Z M 164.02 193.71 L 164.01 194.74 C 164.00 195.73 164.80 196.53 165.79 196.54 C 166.77 196.54 167.58 195.75 167.58 194.76 L 167.59 193.73 C 167.59 192.74 166.80 191.94 165.81 191.93 C 164.83 191.93 164.02 192.72 164.02 193.71 Z M 164.01 194.73 L 163.99 195.74 C 163.98 196.72 164.77 197.54 165.75 197.55 C 166.74 197.57 167.55 196.78 167.57 195.79 L 167.58 194.78 C 167.60 193.79 166.81 192.98 165.82 192.97 C 164.84 192.95 164.03 193.74 164.01 194.73 Z M 163.99 195.71 L 163.97 196.68 C 163.94 197.67 164.71 198.49 165.70 198.52 C 166.68 198.55 167.51 197.77 167.54 196.79 L 167.57 195.82 C 167.60 194.83 166.82 194.01 165.83 193.98 C 164.85 193.95 164.02 194.72 163.99 195.71 Z M 163.97 196.64 L 163.92 197.60 C 163.86 198.59 164.62 199.43 165.61 199.48 C 166.59 199.53 167.44 198.77 167.49 197.79 L 167.54 196.83 C 167.59 195.84 166.83 195.00 165.84 194.95 C 164.86 194.90 164.02 195.66 163.97 196.64 Z M 163.92 197.54 L 163.83 198.62 C 163.74 199.61 164.47 200.47 165.46 200.56 C 166.44 200.64 167.31 199.91 167.39 198.93 L 167.48 197.85 C 167.57 196.86 166.84 196.00 165.85 195.91 C 164.87 195.83 164.00 196.56 163.92 197.54 Z M 163.83 198.56 L 163.71 199.55 C 163.59 200.53 164.29 201.42 165.27 201.54 C 166.25 201.66 167.14 200.97 167.26 199.99 L 167.39 198.99 C 167.51 198.01 166.81 197.12 165.83 197.00 C 164.85 196.88 163.95 197.58 163.83 198.56 Z M 163.72 199.49 L 163.57 200.42 C 163.42 201.40 164.08 202.31 165.06 202.47 C 166.04 202.62 166.95 201.96 167.11 200.98 L 167.25 200.05 C 167.41 199.07 166.74 198.15 165.77 198.00 C 164.79 197.85 163.87 198.51 163.72 199.49 Z M 163.58 200.37 L 163.40 201.31 C 163.22 202.28 163.86 203.22 164.83 203.40 C 165.80 203.58 166.74 202.94 166.92 201.97 L 167.10 201.03 C 167.28 200.06 166.64 199.12 165.67 198.94 C 164.70 198.76 163.76 199.40 163.58 200.37 Z M 163.41 201.26 L 163.20 202.26 C 162.99 203.23 163.60 204.18 164.57 204.39 C 165.54 204.59 166.49 203.98 166.70 203.01 L 166.91 202.02 C 167.12 201.05 166.51 200.10 165.54 199.89 C 164.57 199.68 163.62 200.30 163.41 201.26 Z M 163.21 202.21 L 162.97 203.18 C 162.73 204.14 163.32 205.11 164.28 205.34 C 165.24 205.58 166.21 204.99 166.45 204.03 L 166.69 203.06 C 166.92 202.10 166.34 201.13 165.37 200.90 C 164.41 200.66 163.44 201.25 163.21 202.21 Z M 162.98 203.12 L 162.72 204.06 C 162.46 205.01 163.01 206.00 163.97 206.27 C 164.92 206.53 165.91 205.98 166.17 205.02 L 166.43 204.09 C 166.70 203.13 166.14 202.15 165.19 201.88 C 164.24 201.61 163.25 202.17 162.98 203.12 Z M 162.74 204.00 L 162.43 204.97 C 162.14 205.92 162.66 206.92 163.60 207.22 C 164.55 207.52 165.55 207.00 165.85 206.05 L 166.16 205.08 C 166.45 204.14 165.93 203.13 164.99 202.83 C 164.04 202.54 163.04 203.06 162.74 204.00 Z M 162.45 204.91 L 162.12 205.85 C 161.79 206.79 162.28 207.81 163.21 208.14 C 164.14 208.47 165.16 207.98 165.49 207.05 L 165.83 206.11 C 166.16 205.18 165.67 204.16 164.74 203.83 C 163.81 203.49 162.79 203.98 162.45 204.91 Z M 162.14 205.80 L 161.78 206.72 C 161.42 207.64 161.87 208.67 162.79 209.04 C 163.71 209.40 164.75 208.95 165.11 208.03 L 165.47 207.11 C 165.84 206.19 165.38 205.15 164.46 204.79 C 163.54 204.43 162.50 204.88 162.14 205.80 Z M 161.80 206.66 L 161.45 207.49 C 161.06 208.39 161.48 209.45 162.39 209.84 C 163.30 210.23 164.35 209.81 164.74 208.90 L 165.09 208.08 C 165.48 207.17 165.06 206.12 164.15 205.73 C 163.25 205.34 162.19 205.76 161.80 206.66 Z M 161.48 207.43 L 161.08 208.26 C 160.66 209.16 161.04 210.22 161.93 210.64 C 162.83 211.07 163.89 210.69 164.32 209.79 L 164.71 208.96 C 165.13 208.06 164.75 207.00 163.86 206.58 C 162.97 206.15 161.90 206.53 161.48 207.43 Z M 161.11 208.20 L 160.63 209.12 C 160.18 210.00 160.52 211.08 161.39 211.53 C 162.27 211.99 163.35 211.65 163.80 210.78 L 164.28 209.85 C 164.74 208.98 164.40 207.90 163.53 207.44 C 162.65 206.99 161.57 207.33 161.11 208.20 Z M 160.66 209.07 L 160.11 210.04 C 159.63 210.90 159.93 211.99 160.79 212.47 C 161.65 212.96 162.74 212.66 163.23 211.80 L 163.78 210.83 C 164.26 209.97 163.96 208.88 163.10 208.39 C 162.24 207.91 161.15 208.21 160.66 209.07 Z M 160.14 210.00 L 159.65 210.82 C 159.14 211.67 159.41 212.76 160.26 213.27 C 161.11 213.78 162.20 213.50 162.71 212.66 L 163.20 211.84 C 163.71 210.99 163.44 209.89 162.59 209.39 C 161.74 208.88 160.65 209.15 160.14 210.00 Z M 159.67 210.78 L 159.12 211.64 C 158.60 212.47 158.84 213.58 159.67 214.11 C 160.51 214.64 161.61 214.39 162.14 213.56 L 162.69 212.70 C 163.22 211.86 162.97 210.76 162.14 210.23 C 161.30 209.70 160.20 209.95 159.67 210.78 Z M 159.16 211.59 L 158.57 212.45 C 158.02 213.27 158.23 214.38 159.04 214.94 C 159.86 215.49 160.97 215.28 161.52 214.46 L 162.11 213.60 C 162.66 212.79 162.45 211.68 161.64 211.12 C 160.82 210.57 159.71 210.78 159.16 211.59 Z M 158.61 212.39 L 158.00 213.22 C 157.41 214.01 157.58 215.13 158.37 215.71 C 159.16 216.30 160.28 216.14 160.87 215.35 L 161.48 214.52 C 162.07 213.73 161.90 212.62 161.11 212.03 C 160.32 211.44 159.20 211.60 158.61 212.39 Z M 158.07 213.14 L 157.42 213.91 C 156.78 214.67 156.88 215.79 157.64 216.43 C 158.40 217.06 159.52 216.96 160.15 216.20 L 160.80 215.43 C 161.44 214.67 161.34 213.55 160.58 212.91 C 159.82 212.28 158.70 212.38 158.07 213.14 Z M 157.52 213.80 L 156.75 214.58 C 156.06 215.27 156.06 216.40 156.76 217.09 C 157.45 217.79 158.58 217.79 159.27 217.09 L 160.05 216.32 C 160.74 215.62 160.74 214.49 160.04 213.80 C 159.35 213.10 158.22 213.10 157.52 213.80 Z M 156.90 214.45 L 156.12 215.08 C 155.35 215.69 155.23 216.81 155.84 217.58 C 156.46 218.34 157.58 218.46 158.34 217.85 L 159.13 217.22 C 159.89 216.60 160.01 215.48 159.40 214.72 C 158.78 213.95 157.66 213.83 156.90 214.45 Z M 156.29 214.96 L 155.49 215.46 C 154.66 215.97 154.40 217.06 154.92 217.90 C 155.44 218.73 156.53 218.98 157.36 218.47 L 158.16 217.97 C 159.00 217.45 159.25 216.36 158.74 215.53 C 158.22 214.70 157.13 214.44 156.29 214.96 Z M 155.69 215.36 L 154.85 215.74 C 153.96 216.15 153.58 217.20 153.98 218.08 C 154.39 218.97 155.44 219.36 156.33 218.95 L 157.16 218.57 C 158.05 218.16 158.44 217.11 158.03 216.22 C 157.62 215.34 156.57 214.95 155.69 215.36 Z M 155.05 215.67 L 154.16 215.96 C 153.24 216.26 152.73 217.25 153.03 218.18 C 153.33 219.10 154.32 219.61 155.24 219.31 L 156.13 219.02 C 157.06 218.72 157.56 217.73 157.26 216.80 C 156.96 215.88 155.97 215.37 155.05 215.67 Z M 154.33 215.93 L 153.39 216.13 C 152.45 216.33 151.85 217.26 152.05 218.20 C 152.25 219.14 153.18 219.74 154.12 219.54 L 155.07 219.34 C 156.01 219.14 156.61 218.21 156.41 217.27 C 156.20 216.33 155.28 215.73 154.33 215.93 Z M 153.53 216.12 L 152.52 216.26 C 151.58 216.38 150.91 217.25 151.04 218.20 C 151.16 219.15 152.03 219.81 152.98 219.68 L 153.99 219.55 C 154.93 219.42 155.60 218.55 155.47 217.61 C 155.35 216.66 154.48 216.00 153.53 216.12 Z M 152.62 216.26 L 151.53 216.34 C 150.59 216.42 149.88 217.24 149.96 218.19 C 150.03 219.13 150.86 219.84 151.80 219.76 L 152.88 219.68 C 153.83 219.61 154.53 218.78 154.46 217.84 C 154.39 216.89 153.56 216.19 152.62 216.26 Z M 151.59 216.36 L 150.59 216.40 C 149.66 216.44 148.93 217.24 148.97 218.17 C 149.02 219.11 149.81 219.83 150.74 219.79 L 151.74 219.75 C 152.68 219.71 153.40 218.92 153.36 217.98 C 153.32 217.04 152.53 216.32 151.59 216.36 Z M 150.64 216.43 L 149.61 216.44 C 148.69 216.46 147.95 217.22 147.97 218.14 C 147.98 219.07 148.74 219.80 149.67 219.79 L 150.70 219.77 C 151.62 219.76 152.36 218.99 152.34 218.07 C 152.33 217.15 151.56 216.41 150.64 216.43 Z M 149.66 216.47 L 148.63 216.45 C 147.72 216.44 146.97 217.17 146.96 218.09 C 146.95 219.00 147.68 219.74 148.59 219.75 L 149.62 219.76 C 150.53 219.78 151.28 219.05 151.29 218.13 C 151.30 217.22 150.57 216.48 149.66 216.47 Z M 148.68 216.48 L 147.69 216.44 C 146.80 216.40 146.04 217.09 146.00 217.99 C 145.96 218.89 146.66 219.65 147.55 219.68 L 148.54 219.73 C 149.44 219.77 150.20 219.07 150.24 218.18 C 150.28 217.28 149.58 216.52 148.68 216.48 Z M 147.76 216.47 L 146.77 216.38 C 145.89 216.30 145.12 216.96 145.04 217.84 C 144.96 218.72 145.62 219.49 146.50 219.57 L 147.49 219.66 C 148.37 219.73 149.14 219.08 149.22 218.20 C 149.29 217.32 148.64 216.54 147.76 216.47 Z M 146.86 216.42 L 145.83 216.27 C 144.97 216.14 144.17 216.74 144.04 217.59 C 143.92 218.45 144.51 219.25 145.37 219.38 L 146.41 219.53 C 147.27 219.66 148.06 219.06 148.19 218.20 C 148.32 217.35 147.72 216.55 146.86 216.42 Z M 145.93 216.32 L 144.97 216.11 C 144.14 215.93 143.32 216.46 143.14 217.29 C 142.96 218.12 143.49 218.94 144.32 219.12 L 145.27 219.33 C 146.10 219.51 146.92 218.98 147.10 218.15 C 147.28 217.32 146.76 216.50 145.93 216.32 Z M 145.06 216.16 L 144.14 215.90 C 143.34 215.68 142.50 216.15 142.28 216.95 C 142.05 217.75 142.52 218.58 143.32 218.81 L 144.24 219.07 C 145.04 219.29 145.87 218.83 146.10 218.03 C 146.33 217.22 145.86 216.39 145.06 216.16 Z M 144.19 215.95 L 143.30 215.65 C 142.52 215.40 141.68 215.82 141.43 216.60 C 141.17 217.38 141.60 218.22 142.37 218.47 L 143.27 218.77 C 144.04 219.02 144.88 218.60 145.14 217.82 C 145.40 217.04 144.97 216.20 144.19 215.95 Z M 143.34 215.68 L 142.44 215.36 C 141.68 215.08 140.83 215.47 140.56 216.24 C 140.28 217.00 140.67 217.84 141.44 218.12 L 142.34 218.45 C 143.10 218.72 143.94 218.33 144.22 217.56 C 144.50 216.80 144.10 215.96 143.34 215.68 Z M 142.47 215.38 L 141.53 215.01 C 140.78 214.72 139.93 215.09 139.64 215.84 C 139.35 216.60 139.72 217.44 140.47 217.74 L 141.41 218.10 C 142.16 218.39 143.01 218.02 143.30 217.27 C 143.59 216.52 143.22 215.67 142.47 215.38 Z M 141.56 215.03 L 140.58 214.63 C 139.84 214.33 138.99 214.68 138.69 215.42 C 138.38 216.16 138.74 217.01 139.48 217.32 L 140.45 217.72 C 141.19 218.02 142.04 217.67 142.35 216.93 C 142.65 216.18 142.30 215.34 141.56 215.03 Z M 140.60 214.65 L 139.68 214.25 C 138.95 213.94 138.10 214.28 137.79 215.02 C 137.47 215.75 137.81 216.60 138.55 216.91 L 139.46 217.30 C 140.20 217.62 141.04 217.28 141.36 216.54 C 141.67 215.81 141.33 214.96 140.60 214.65 Z M 139.70 214.27 L 138.82 213.88 C 138.09 213.55 137.24 213.88 136.92 214.61 C 136.59 215.34 136.92 216.19 137.65 216.51 L 138.53 216.90 C 139.26 217.22 140.11 216.89 140.43 216.17 C 140.75 215.44 140.42 214.59 139.70 214.27 Z M 138.83 213.89 L 137.93 213.47 C 137.21 213.14 136.35 213.46 136.02 214.18 C 135.69 214.90 136.01 215.75 136.73 216.09 L 137.63 216.50 C 138.36 216.83 139.21 216.51 139.54 215.79 C 139.87 215.07 139.55 214.22 138.83 213.89 Z M 137.95 213.49 L 137.03 213.04 C 136.31 212.70 135.45 213.00 135.11 213.72 C 134.77 214.43 135.07 215.29 135.79 215.63 L 136.71 216.07 C 137.43 216.41 138.28 216.11 138.62 215.40 C 138.97 214.68 138.66 213.83 137.95 213.49 Z M 137.05 213.06 L 136.11 212.59 C 135.40 212.24 134.54 212.52 134.19 213.23 C 133.83 213.94 134.12 214.80 134.83 215.15 L 135.77 215.62 C 136.47 215.97 137.33 215.68 137.69 214.98 C 138.04 214.27 137.75 213.41 137.05 213.06 Z M 136.13 212.60 L 135.25 212.15 C 134.55 211.78 133.69 212.05 133.33 212.75 C 132.96 213.45 133.23 214.31 133.93 214.68 L 134.81 215.14 C 135.51 215.50 136.37 215.23 136.73 214.53 C 137.10 213.83 136.83 212.97 136.13 212.60 Z M 135.27 212.16 L 134.40 211.69 C 133.71 211.31 132.84 211.57 132.47 212.26 C 132.09 212.96 132.35 213.82 133.04 214.20 L 133.91 214.67 C 134.61 215.04 135.47 214.79 135.85 214.09 C 136.22 213.40 135.97 212.53 135.27 212.16 Z M 134.42 211.69 L 133.54 211.21 C 132.85 210.83 131.98 211.08 131.60 211.76 C 131.22 212.45 131.47 213.32 132.16 213.70 L 133.03 214.19 C 133.72 214.57 134.59 214.32 134.97 213.63 C 135.35 212.94 135.11 212.08 134.42 211.69 Z M 133.55 211.21 L 132.67 210.72 C 131.98 210.33 131.11 210.57 130.73 211.26 C 130.34 211.95 130.58 212.82 131.27 213.20 L 132.15 213.70 C 132.83 214.09 133.70 213.84 134.09 213.16 C 134.48 212.47 134.23 211.60 133.55 211.21 Z M 132.67 210.72 L 131.79 210.22 C 131.11 209.83 130.24 210.07 129.85 210.75 C 129.46 211.44 129.70 212.31 130.38 212.70 L 131.26 213.20 C 131.95 213.59 132.82 213.35 133.21 212.67 C 133.60 211.98 133.36 211.11 132.67 210.72 Z M 131.79 210.22 L 131.45 210.03 C 130.77 209.64 129.90 209.87 129.51 210.56 C 129.12 211.24 129.36 212.11 130.04 212.50 L 130.38 212.69 C 131.06 213.09 131.93 212.85 132.32 212.16 C 132.71 211.48 132.48 210.61 131.79 210.22 Z"
      fill="black"
      fill-rule="nonzero" /></svg>