<svg xmlns="http://www.w3.org/2000/svg" width="300" height="300" viewBox="0 0 300 300">
<path d="M 126.82 118.86 L 125.81 118.66 C 124.97 118.49 124.16 119.04 123.99 119.88 C 123.82 120.71 124.37 121.53 125.21 121.70 L 126.21 121.90 C 127.05 122.06 127.86 121.52 128.03 120.68 C 128.20 119.84 127.65 119.03 126.82 118.86 Z M 125.81 118.63 L 124.82 118.44 C 123.97 118.27 123.14 118.82 122.97 119.68 C 122.80 120.53 123.36 121.36 124.21 121.53 L 125.21 121.73 C 126.06 121.89 126.89 121.34 127.06 120.48 C 127.23 119.63 126.67 118.80 125.81 118.63 Z M 124.82 118.41 L 123.84 118.22 C 122.97 118.05 122.13 118.62 121.96 119.49 C 121.79 120.36 122.36 121.21 123.24 121.37 L 124.21 121.56 C 125.08 121.73 125.93 121.16 126.09 120.29 C 126.26 119.41 125.69 118.57 124.82 118.41 Z M 123.83 118.19 L 122.85 118.01 C 121.97 117.84 121.11 118.43 120.95 119.32 C 120.79 120.21 121.38 121.06 122.27 121.23 L 123.24 121.41 C 124.13 121.57 124.99 120.98 125.15 120.09 C 125.31 119.20 124.72 118.35 123.83 118.19 Z M 122.85 117.97 L 121.47 117.73 C 120.56 117.57 119.70 118.18 119.54 119.08 C 119.38 119.99 119.98 120.86 120.89 121.02 L 122.27 121.26 C 123.18 121.42 124.05 120.82 124.21 119.91 C 124.37 119.00 123.76 118.13 122.85 117.97 Z M 121.55 117.70 L 120.73 117.52 C 119.81 117.32 118.90 117.91 118.69 118.83 C 118.49 119.75 119.08 120.66 120.00 120.87 L 120.82 121.04 C 121.74 121.25 122.65 120.66 122.85 119.74 C 123.06 118.82 122.47 117.91 121.55 117.70 Z M 121.47 120.54 L 121.59 120.44 C 122.33 119.83 122.43 118.73 121.82 117.99 C 121.21 117.25 120.11 117.15 119.37 117.76 L 119.26 117.85 C 118.52 118.47 118.41 119.56 119.02 120.30 C 119.63 121.04 120.73 121.15 121.47 120.54 Z M 120.54 120.84 L 121.44 120.81 C 122.40 120.78 123.16 119.97 123.12 119.01 C 123.09 118.04 122.28 117.29 121.32 117.32 L 120.42 117.35 C 119.46 117.39 118.70 118.20 118.74 119.16 C 118.77 120.12 119.58 120.88 120.54 120.84 Z M 121.37 120.81 L 122.76 120.82 C 123.73 120.82 124.51 120.05 124.52 119.08 C 124.52 118.12 123.74 117.34 122.78 117.33 L 121.39 117.32 C 120.42 117.32 119.64 118.09 119.63 119.06 C 119.63 120.02 120.41 120.81 121.37 120.81 Z M 122.74 120.82 L 123.83 120.84 C 124.79 120.85 125.59 120.08 125.60 119.12 C 125.62 118.16 124.85 117.36 123.89 117.35 L 122.80 117.33 C 121.84 117.31 121.04 118.08 121.03 119.05 C 121.01 120.01 121.78 120.80 122.74 120.82 Z M 123.82 120.84 L 124.85 120.86 C 125.81 120.88 126.61 120.11 126.63 119.15 C 126.65 118.18 125.88 117.39 124.92 117.37 L 123.89 117.35 C 122.93 117.33 122.13 118.09 122.11 119.06 C 122.09 120.02 122.86 120.82 123.82 120.84 Z M 124.85 120.86 L 125.87 120.88 C 126.84 120.90 127.64 120.14 127.66 119.17 C 127.68 118.21 126.91 117.41 125.95 117.39 L 124.92 117.37 C 123.96 117.35 123.16 118.11 123.14 119.08 C 123.12 120.04 123.88 120.84 124.85 120.86 Z M 125.88 120.88 L 126.87 120.90 C 127.83 120.92 128.63 120.16 128.65 119.19 C 128.67 118.23 127.91 117.43 126.94 117.41 L 125.95 117.39 C 124.98 117.37 124.18 118.13 124.16 119.10 C 124.14 120.07 124.91 120.86 125.88 120.88 Z M 126.87 120.91 L 127.88 120.92 C 128.85 120.94 129.64 120.17 129.66 119.20 C 129.67 118.23 128.90 117.44 127.94 117.42 L 126.93 117.41 C 125.97 117.39 125.17 118.16 125.15 119.13 C 125.14 120.09 125.91 120.89 126.87 120.91 Z M 127.89 120.92 L 128.94 120.93 C 129.91 120.94 130.70 120.17 130.71 119.20 C 130.72 118.23 129.94 117.44 128.98 117.43 L 127.93 117.42 C 126.96 117.41 126.17 118.19 126.16 119.15 C 126.15 120.12 126.92 120.91 127.89 120.92 Z M 128.95 120.93 L 129.92 120.94 C 130.89 120.94 131.68 120.16 131.68 119.20 C 131.69 118.23 130.91 117.44 129.94 117.44 L 128.97 117.43 C 128.00 117.43 127.21 118.21 127.21 119.18 C 127.21 120.14 127.99 120.93 128.95 120.93 Z M 129.93 120.94 L 130.87 120.94 C 131.84 120.94 132.62 120.16 132.62 119.19 C 132.63 118.22 131.84 117.44 130.88 117.44 L 129.93 117.44 C 128.97 117.44 128.18 118.22 128.18 119.19 C 128.18 120.15 128.96 120.94 129.93 120.94 Z M 130.87 120.94 L 131.84 120.94 C 132.80 120.94 133.59 120.15 133.59 119.19 C 133.59 118.22 132.80 117.44 131.84 117.44 L 130.87 117.44 C 129.91 117.44 129.13 118.22 129.13 119.19 C 129.13 120.15 129.91 120.94 130.87 120.94 Z M 131.84 120.94 L 132.83 120.94 C 133.80 120.94 134.58 120.15 134.58 119.19 C 134.58 118.22 133.80 117.44 132.83 117.44 L 131.84 117.44 C 130.87 117.44 130.09 118.22 130.09 119.19 C 130.09 120.15 130.87 120.94 131.84 120.94 Z M 132.83 120.93 L 133.84 120.93 C 134.81 120.93 135.59 120.15 135.59 119.19 C 135.59 118.22 134.81 117.44 133.84 117.44 L 132.83 117.44 C 131.87 117.44 131.08 118.22 131.08 119.19 C 131.08 120.15 131.87 120.93 132.83 120.93 Z M 133.84 120.93 L 134.86 120.93 C 135.82 120.93 136.60 120.15 136.60 119.19 C 136.60 118.22 135.82 117.44 134.86 117.44 L 133.84 117.44 C 132.88 117.44 132.10 118.22 132.10 119.19 C 132.10 120.15 132.88 120.93 133.84 120.93 Z M 134.86 120.93 L 135.85 120.93 C 136.81 120.93 137.59 120.15 137.59 119.19 C 137.59 118.23 136.81 117.45 135.85 117.45 L 134.86 117.45 C 133.90 117.45 133.12 118.23 133.12 119.19 C 133.12 120.15 133.90 120.93 134.86 120.93 Z M 135.85 120.93 L 136.85 120.93 C 137.81 120.93 138.59 120.15 138.59 119.19 C 138.59 118.23 137.81 117.45 136.85 117.45 L 135.85 117.45 C 134.89 117.45 134.11 118.23 134.11 119.19 C 134.11 120.15 134.89 120.93 135.85 120.93 Z M 136.85 120.93 L 137.86 120.93 C 138.82 120.93 139.60 120.15 139.60 119.19 C 139.60 118.23 138.82 117.45 137.86 117.45 L 136.85 117.45 C 135.89 117.45 135.11 118.23 135.11 119.19 C 135.11 120.15 135.89 120.93 136.85 120.93 Z M 137.86 120.93 L 138.85 120.93 C 139.81 120.93 140.58 120.15 140.58 119.19 C 140.58 118.23 139.81 117.45 138.85 117.45 L 137.86 117.45 C 136.90 117.45 136.12 118.23 136.12 119.19 C 136.12 120.15 136.90 120.93 137.86 120.93 Z M 138.85 120.92 L 139.83 120.92 C 140.79 120.92 141.56 120.14 141.56 119.18 C 141.56 118.23 140.78 117.45 139.82 117.45 L 138.84 117.45 C 137.89 117.45 137.11 118.23 137.11 119.19 C 137.11 120.15 137.89 120.93 138.85 120.92 Z M 139.83 120.92 L 140.83 120.92 C 141.79 120.91 142.56 120.13 142.56 119.17 C 142.55 118.22 141.77 117.44 140.82 117.45 L 139.82 117.45 C 138.86 117.46 138.09 118.24 138.09 119.20 C 138.10 120.15 138.88 120.93 139.83 120.92 Z M 140.84 120.91 L 141.87 120.90 C 142.82 120.89 143.59 120.11 143.58 119.15 C 143.57 118.20 142.79 117.43 141.83 117.44 L 140.81 117.45 C 139.85 117.46 139.08 118.24 139.09 119.20 C 139.10 120.16 139.89 120.92 140.84 120.91 Z M 141.88 120.90 L 142.89 120.88 C 143.84 120.87 144.60 120.08 144.59 119.12 C 144.57 118.17 143.78 117.41 142.83 117.43 L 141.82 117.44 C 140.86 117.46 140.10 118.25 140.12 119.20 C 140.14 120.16 140.92 120.92 141.88 120.90 Z M 142.90 120.88 L 143.91 120.85 C 144.86 120.83 145.61 120.04 145.59 119.08 C 145.56 118.13 144.77 117.38 143.82 117.40 L 142.81 117.43 C 141.86 117.45 141.11 118.25 141.13 119.20 C 141.16 120.15 141.95 120.90 142.90 120.88 Z M 143.93 120.85 L 144.94 120.81 C 145.89 120.78 146.63 119.98 146.60 119.03 C 146.56 118.08 145.76 117.34 144.81 117.37 L 143.80 117.41 C 142.85 117.44 142.11 118.24 142.14 119.19 C 142.18 120.14 142.98 120.88 143.93 120.85 Z M 144.96 120.81 L 145.96 120.76 C 146.90 120.71 147.64 119.91 147.59 118.96 C 147.54 118.01 146.74 117.28 145.79 117.33 L 144.79 117.38 C 143.84 117.42 143.11 118.23 143.16 119.18 C 143.21 120.12 144.01 120.86 144.96 120.81 Z M 145.98 120.75 L 146.99 120.69 C 147.93 120.63 148.65 119.81 148.59 118.87 C 148.52 117.92 147.71 117.20 146.76 117.27 L 145.76 117.33 C 144.81 117.39 144.10 118.21 144.16 119.16 C 144.22 120.10 145.04 120.82 145.98 120.75 Z M 147.02 120.68 L 148.02 120.60 C 148.96 120.52 149.66 119.69 149.59 118.75 C 149.51 117.81 148.68 117.11 147.74 117.19 L 146.73 117.27 C 145.79 117.35 145.09 118.18 145.17 119.12 C 145.25 120.06 146.07 120.76 147.02 120.68 Z M 148.04 120.59 L 149.03 120.50 C 149.97 120.41 150.66 119.58 150.57 118.64 C 150.48 117.70 149.64 117.01 148.71 117.10 L 147.72 117.20 C 146.78 117.29 146.09 118.12 146.18 119.06 C 146.27 119.99 147.11 120.68 148.04 120.59 Z M 149.04 120.49 L 150.02 120.39 C 150.96 120.30 151.64 119.46 151.54 118.53 C 151.45 117.59 150.61 116.91 149.68 117.01 L 148.69 117.11 C 147.76 117.20 147.08 118.04 147.18 118.97 C 147.27 119.91 148.11 120.59 149.04 120.49 Z M 150.02 120.39 L 151.00 120.29 C 151.93 120.19 152.61 119.36 152.51 118.42 C 152.42 117.49 151.58 116.82 150.65 116.91 L 149.67 117.01 C 148.74 117.11 148.07 117.94 148.16 118.87 C 148.26 119.81 149.09 120.48 150.02 120.39 Z M 151.00 120.28 L 151.98 120.18 C 152.91 120.09 153.59 119.26 153.49 118.33 C 153.40 117.40 152.57 116.72 151.64 116.82 L 150.66 116.92 C 149.73 117.01 149.05 117.84 149.15 118.77 C 149.24 119.70 150.07 120.37 151.00 120.28 Z M 151.98 120.17 L 152.98 120.07 C 153.90 119.98 154.58 119.16 154.49 118.23 C 154.39 117.30 153.57 116.63 152.64 116.72 L 151.64 116.82 C 150.72 116.92 150.04 117.74 150.13 118.67 C 150.23 119.59 151.05 120.27 151.98 120.17 Z M 152.97 120.07 L 153.98 119.97 C 154.91 119.88 155.58 119.06 155.49 118.13 C 155.40 117.21 154.58 116.54 153.65 116.63 L 152.64 116.73 C 151.72 116.82 151.05 117.64 151.14 118.56 C 151.23 119.49 152.05 120.16 152.97 120.07 Z M 153.98 119.96 L 154.98 119.87 C 155.90 119.78 156.57 118.96 156.48 118.04 C 156.39 117.12 155.57 116.45 154.65 116.54 L 153.65 116.63 C 152.73 116.72 152.06 117.54 152.15 118.46 C 152.24 119.38 153.06 120.05 153.98 119.96 Z M 154.97 119.86 L 155.96 119.76 C 156.88 119.67 157.55 118.86 157.46 117.94 C 157.37 117.03 156.56 116.36 155.64 116.45 L 154.65 116.54 C 153.73 116.63 153.06 117.45 153.15 118.36 C 153.24 119.28 154.06 119.95 154.97 119.86 Z M 155.96 119.76 L 156.96 119.66 C 157.87 119.57 158.54 118.76 158.45 117.85 C 158.36 116.94 157.55 116.27 156.64 116.35 L 155.64 116.45 C 154.73 116.54 154.06 117.35 154.15 118.26 C 154.24 119.18 155.05 119.85 155.96 119.76 Z M 156.95 119.66 L 157.96 119.56 C 158.87 119.47 159.54 118.66 159.45 117.75 C 159.36 116.84 158.55 116.18 157.64 116.26 L 156.64 116.36 C 155.73 116.45 155.06 117.26 155.15 118.17 C 155.24 119.08 156.04 119.74 156.95 119.66 Z M 157.96 119.55 L 158.96 119.46 C 159.87 119.37 160.53 118.57 160.45 117.66 C 160.36 116.75 159.55 116.09 158.65 116.17 L 157.64 116.27 C 156.74 116.36 156.07 117.16 156.16 118.07 C 156.24 118.98 157.05 119.64 157.96 119.55 Z M 158.96 119.45 L 159.96 119.36 C 160.86 119.27 161.53 118.47 161.44 117.57 C 161.36 116.67 160.55 116.00 159.65 116.09 L 158.65 116.18 C 157.75 116.26 157.08 117.07 157.17 117.97 C 157.25 118.87 158.05 119.54 158.96 119.45 Z M 159.95 119.35 L 160.95 119.26 C 161.85 119.18 162.52 118.38 162.43 117.48 C 162.35 116.58 161.56 115.92 160.66 116.00 L 159.66 116.09 C 158.75 116.17 158.09 116.97 158.17 117.87 C 158.26 118.77 159.05 119.44 159.95 119.35 Z M 160.95 119.26 L 161.94 119.17 C 162.84 119.09 163.50 118.30 163.42 117.40 C 163.34 116.51 162.55 115.84 161.66 115.92 L 160.66 116.01 C 159.76 116.08 159.10 116.88 159.18 117.77 C 159.26 118.67 160.05 119.33 160.95 119.26 Z M 161.93 119.16 L 162.92 119.08 C 163.81 119.01 164.48 118.23 164.41 117.33 C 164.33 116.44 163.55 115.77 162.65 115.84 L 161.67 115.93 C 160.77 116.00 160.11 116.78 160.18 117.68 C 160.25 118.57 161.04 119.24 161.93 119.16 Z M 162.91 119.08 L 163.90 119.00 C 164.79 118.93 165.46 118.16 165.39 117.27 C 165.32 116.37 164.54 115.71 163.65 115.78 L 162.66 115.85 C 161.77 115.92 161.10 116.70 161.17 117.59 C 161.24 118.48 162.02 119.15 162.91 119.08 Z M 163.89 118.99 L 164.88 118.92 C 165.77 118.86 166.43 118.09 166.37 117.20 C 166.30 116.31 165.53 115.65 164.64 115.71 L 163.66 115.78 C 162.77 115.85 162.10 116.62 162.17 117.51 C 162.23 118.39 163.01 119.06 163.89 118.99 Z M 164.88 118.91 L 165.88 118.84 C 166.76 118.78 167.43 118.01 167.36 117.12 C 167.30 116.24 166.53 115.58 165.64 115.64 L 164.64 115.72 C 163.76 115.78 163.10 116.55 163.16 117.43 C 163.23 118.32 164.00 118.98 164.88 118.91 Z M 165.88 118.83 L 166.90 118.75 C 167.78 118.69 168.43 117.92 168.37 117.04 C 168.30 116.16 167.53 115.51 166.65 115.57 L 165.64 115.65 C 164.76 115.72 164.10 116.49 164.17 117.36 C 164.24 118.24 165.01 118.90 165.88 118.83 Z M 166.90 118.75 L 167.92 118.67 C 168.79 118.59 169.44 117.83 169.37 116.96 C 169.30 116.08 168.53 115.43 167.66 115.50 L 166.65 115.58 C 165.77 115.65 165.12 116.42 165.19 117.29 C 165.26 118.17 166.03 118.82 166.90 118.75 Z M 167.92 118.66 L 168.93 118.57 C 169.80 118.50 170.45 117.74 170.38 116.87 C 170.31 116.00 169.55 115.35 168.68 115.43 L 167.66 115.51 C 166.79 115.58 166.14 116.34 166.21 117.21 C 166.28 118.08 167.05 118.73 167.92 118.66 Z M 168.93 118.57 L 169.93 118.49 C 170.79 118.42 171.44 117.66 171.37 116.80 C 171.30 115.93 170.55 115.29 169.68 115.35 L 168.68 115.43 C 167.82 115.50 167.17 116.26 167.24 117.12 C 167.30 117.99 168.06 118.64 168.93 118.57 Z M 169.92 118.48 L 170.88 118.41 C 171.74 118.35 172.39 117.60 172.33 116.74 C 172.26 115.88 171.51 115.23 170.65 115.29 L 169.69 115.36 C 168.83 115.42 168.18 116.17 168.24 117.03 C 168.30 117.90 169.05 118.54 169.92 118.48 Z M 170.86 118.41 L 171.82 118.35 C 172.68 118.30 173.33 117.56 173.28 116.70 C 173.23 115.84 172.49 115.19 171.63 115.24 L 170.67 115.30 C 169.81 115.35 169.16 116.09 169.21 116.95 C 169.26 117.81 170.00 118.46 170.86 118.41 Z M 171.81 118.34 L 172.76 118.29 C 173.61 118.25 174.27 117.52 174.22 116.67 C 174.18 115.81 173.45 115.16 172.60 115.20 L 171.65 115.25 C 170.80 115.29 170.14 116.02 170.18 116.87 C 170.23 117.73 170.95 118.38 171.81 118.34 Z M 172.75 118.28 L 173.74 118.24 C 174.59 118.20 175.25 117.48 175.21 116.63 C 175.17 115.78 174.45 115.13 173.60 115.16 L 172.61 115.21 C 171.76 115.25 171.10 115.96 171.14 116.81 C 171.18 117.66 171.90 118.32 172.75 118.28 Z M 173.73 118.23 L 174.82 118.18 C 175.66 118.15 176.32 117.43 176.28 116.59 C 176.25 115.75 175.53 115.09 174.69 115.13 L 173.60 115.17 C 172.76 115.21 172.10 115.92 172.14 116.77 C 172.18 117.61 172.89 118.27 173.73 118.23 Z M 174.82 118.18 L 175.71 118.14 C 176.55 118.10 177.20 117.39 177.17 116.55 C 177.13 115.71 176.42 115.06 175.58 115.09 L 174.69 115.13 C 173.85 115.17 173.19 115.88 173.23 116.72 C 173.27 117.56 173.98 118.21 174.82 118.18 Z M 175.71 118.13 L 176.66 118.09 C 177.49 118.06 178.14 117.35 178.11 116.51 C 178.07 115.68 177.37 115.03 176.53 115.06 L 175.58 115.10 C 174.74 115.14 174.09 115.84 174.13 116.68 C 174.16 117.52 174.87 118.17 175.71 118.13 Z M 176.65 118.09 L 177.66 118.05 C 178.49 118.01 179.14 117.31 179.11 116.48 C 179.07 115.64 178.37 114.99 177.54 115.03 L 176.53 115.07 C 175.70 115.10 175.05 115.80 175.08 116.64 C 175.12 117.47 175.82 118.12 176.65 118.09 Z M 177.65 118.04 L 178.69 118.00 C 179.52 117.97 180.17 117.28 180.14 116.45 C 180.11 115.62 179.42 114.97 178.59 115.00 L 177.54 115.03 C 176.71 115.06 176.06 115.76 176.09 116.59 C 176.12 117.42 176.82 118.07 177.65 118.04 Z M 178.68 118.00 L 179.76 117.97 C 180.58 117.94 181.23 117.25 181.21 116.42 C 181.18 115.60 180.49 114.94 179.67 114.97 L 178.59 115.00 C 177.77 115.03 177.12 115.72 177.14 116.54 C 177.16 117.37 177.86 118.02 178.68 118.00 Z M 179.74 117.96 L 180.78 117.94 C 181.61 117.92 182.26 117.24 182.24 116.41 C 182.22 115.59 181.54 114.93 180.71 114.95 L 179.68 114.98 C 178.85 114.99 178.20 115.68 178.22 116.50 C 178.24 117.33 178.92 117.98 179.74 117.96 Z M 180.77 117.93 L 181.76 117.91 C 182.58 117.90 183.24 117.23 183.22 116.41 C 183.21 115.59 182.54 114.93 181.72 114.94 L 180.73 114.96 C 179.90 114.97 179.25 115.65 179.26 116.47 C 179.28 117.29 179.95 117.94 180.77 117.93 Z M 181.75 117.91 L 182.75 117.90 C 183.57 117.89 184.22 117.22 184.21 116.40 C 184.21 115.59 183.54 114.93 182.72 114.94 L 181.73 114.95 C 180.91 114.96 180.25 115.63 180.26 116.44 C 180.27 117.26 180.94 117.91 181.75 117.91 Z M 182.75 117.89 L 183.75 117.88 C 184.56 117.88 185.21 117.22 185.21 116.41 C 185.20 115.59 184.54 114.94 183.73 114.94 L 182.73 114.95 C 181.92 114.95 181.26 115.62 181.27 116.43 C 181.27 117.24 181.93 117.89 182.75 117.89 Z M 183.74 117.87 L 184.75 117.87 C 185.55 117.87 186.21 117.21 186.20 116.41 C 186.20 115.60 185.55 114.95 184.74 114.95 L 183.74 114.95 C 182.93 114.95 182.28 115.61 182.28 116.42 C 182.28 117.22 182.94 117.88 183.74 117.87 Z M 184.74 117.86 L 185.75 117.86 C 186.55 117.86 187.20 117.21 187.20 116.41 C 187.20 115.61 186.55 114.96 185.75 114.96 L 184.74 114.96 C 183.94 114.96 183.29 115.61 183.29 116.41 C 183.29 117.21 183.94 117.86 184.74 117.86 Z M 185.75 117.86 L 186.31 117.86 C 187.11 117.86 187.76 117.21 187.75 116.41 C 187.75 115.61 187.11 114.96 186.31 114.96 L 185.75 114.96 C 184.95 114.96 184.30 115.61 184.30 116.41 C 184.30 117.21 184.95 117.86 185.75 117.86 Z"
      fill="black"
      fill-rule="nonzero" /><path d="M 141.59 141.90 L 140.17 141.90 C 139.27 141.90 138.54 142.63 138.54 143.53 C 138.54 144.43 139.27 145.16 140.17 145.16 L 141.59 145.16 C 142.49 145.16 143.22 144.43 143.22 143.53 C 143.22 142.63 142.49 141.90 141.59 141.90 Z M 140.17 141.87 L 139.19 141.87 C 138.27 141.87 137.53 142.61 137.53 143.53 C 137.53 144.45 138.27 145.19 139.19 145.19 L 140.17 145.19 C 141.09 145.19 141.83 144.45 141.83 143.53 C 141.83 142.61 141.09 141.87 140.17 141.87 Z M 139.19 141.84 L 139.08 141.84 C 138.15 141.84 137.39 142.60 137.39 143.53 C 137.39 144.46 138.15 145.22 139.08 145.22 L 139.19 145.22 C 140.12 145.22 140.88 144.46 140.88 143.53 C 140.88 142.60 140.12 141.84 139.19 141.84 Z M 139.08 145.23 L 139.74 145.23 C 140.68 145.23 141.44 144.47 141.44 143.53 C 141.44 142.59 140.68 141.83 139.74 141.83 L 139.08 141.83 C 138.14 141.83 137.38 142.59 137.38 143.53 C 137.38 144.47 138.14 145.23 139.08 145.23 Z M 139.74 145.23 L 140.88 145.23 C 141.82 145.23 142.59 144.47 142.59 143.53 C 142.59 142.59 141.82 141.83 140.88 141.83 L 139.74 141.83 C 138.80 141.83 138.04 142.59 138.04 143.53 C 138.04 144.47 138.80 145.23 139.74 145.23 Z M 140.88 145.24 L 142.24 145.24 C 143.18 145.24 143.95 144.47 143.95 143.53 C 143.95 142.59 143.18 141.82 142.24 141.82 L 140.88 141.82 C 139.94 141.82 139.18 142.59 139.18 143.53 C 139.18 144.47 139.94 145.24 140.88 145.24 Z M 142.24 145.24 L 143.30 145.24 C 144.24 145.24 145.00 144.47 145.00 143.53 C 145.00 142.59 144.24 141.82 143.30 141.82 L 142.24 141.82 C 141.30 141.82 140.53 142.59 140.53 143.53 C 140.53 144.47 141.30 145.24 142.24 145.24 Z M 143.30 145.24 L 144.29 145.24 C 145.23 145.24 146.00 144.47 146.00 143.53 C 146.00 142.59 145.23 141.82 144.29 141.82 L 143.30 141.82 C 142.35 141.82 141.59 142.59 141.59 143.53 C 141.59 144.47 142.35 145.24 143.30 145.24 Z M 144.29 145.24 L 145.28 145.24 C 146.22 145.24 146.98 144.47 146.98 143.53 C 146.98 142.59 146.22 141.83 145.28 141.83 L 144.29 141.83 C 143.35 141.83 142.59 142.59 142.59 143.53 C 142.59 144.47 143.35 145.24 144.29 145.24 Z M 145.28 145.23 L 146.27 145.23 C 147.21 145.23 147.98 144.47 147.98 143.53 C 147.98 142.59 147.21 141.83 146.27 141.83 L 145.28 141.83 C 144.34 141.83 143.58 142.59 143.58 143.53 C 143.58 144.47 144.34 145.23 145.28 145.23 Z M 146.27 145.23 L 147.26 145.23 C 148.20 145.23 148.96 144.47 148.96 143.53 C 148.96 142.59 148.20 141.83 147.26 141.83 L 146.27 141.83 C 145.33 141.83 144.57 142.59 144.57 143.53 C 144.57 144.47 145.33 145.23 146.27 145.23 Z M 147.26 145.23 L 148.23 145.23 C 149.17 145.23 149.93 144.47 149.93 143.53 C 149.93 142.59 149.17 141.83 148.23 141.83 L 147.26 141.83 C 146.32 141.83 145.56 142.59 145.56 143.53 C 145.56 144.47 146.32 145.23 147.26 145.23 Z M 148.23 145.23 L 149.22 145.23 C 150.16 145.23 150.92 144.47 150.92 143.53 C 150.92 142.59 150.16 141.83 149.22 141.83 L 148.23 141.83 C 147.29 141.83 146.53 142.59 146.53 143.53 C 146.53 144.47 147.29 145.23 148.23 145.23 Z M 149.22 145.23 L 150.24 145.23 C 151.17 145.23 151.93 144.47 151.93 143.53 C 151.93 142.59 151.17 141.84 150.24 141.84 L 149.22 141.84 C 148.29 141.84 147.53 142.59 147.53 143.53 C 147.53 144.47 148.29 145.23 149.22 145.23 Z M 150.24 145.22 L 151.26 145.22 C 152.20 145.22 152.96 144.46 152.96 143.53 C 152.96 142.60 152.20 141.84 151.26 141.84 L 150.24 141.84 C 149.30 141.84 148.54 142.60 148.54 143.53 C 148.54 144.46 149.30 145.22 150.24 145.22 Z M 151.26 145.22 L 152.27 145.22 C 153.20 145.22 153.96 144.46 153.96 143.53 C 153.96 142.60 153.20 141.84 152.27 141.84 L 151.26 141.84 C 150.33 141.84 149.58 142.60 149.58 143.53 C 149.58 144.46 150.33 145.22 151.26 145.22 Z M 152.27 145.21 L 153.26 145.21 C 154.19 145.21 154.95 144.46 154.95 143.53 C 154.95 142.60 154.19 141.85 153.26 141.85 L 152.27 141.85 C 151.34 141.85 150.59 142.60 150.59 143.53 C 150.59 144.46 151.34 145.21 152.27 145.21 Z M 153.26 145.21 L 154.26 145.21 C 155.19 145.21 155.94 144.46 155.94 143.53 C 155.94 142.61 155.19 141.86 154.26 141.86 L 153.26 141.86 C 152.34 141.86 151.59 142.61 151.59 143.53 C 151.59 144.46 152.34 145.21 153.26 145.21 Z M 154.26 145.20 L 155.27 145.20 C 156.19 145.20 156.94 144.45 156.94 143.53 C 156.94 142.61 156.19 141.86 155.27 141.86 L 154.26 141.86 C 153.34 141.86 152.60 142.61 152.60 143.53 C 152.60 144.45 153.34 145.20 154.26 145.20 Z M 155.27 145.19 L 156.28 145.19 C 157.19 145.19 157.94 144.45 157.94 143.53 C 157.94 142.61 157.19 141.87 156.28 141.87 L 155.27 141.87 C 154.35 141.87 153.61 142.61 153.61 143.53 C 153.61 144.45 154.35 145.19 155.27 145.19 Z M 156.28 145.18 L 157.28 145.18 C 158.19 145.18 158.93 144.44 158.93 143.53 C 158.93 142.62 158.19 141.88 157.28 141.88 L 156.28 141.88 C 155.36 141.88 154.62 142.62 154.62 143.53 C 154.62 144.44 155.36 145.18 156.28 145.18 Z M 157.28 145.17 L 158.27 145.17 C 159.18 145.17 159.91 144.44 159.91 143.53 C 159.91 142.62 159.18 141.89 158.27 141.89 L 157.28 141.89 C 156.37 141.89 155.63 142.62 155.63 143.53 C 155.63 144.44 156.37 145.17 157.28 145.17 Z M 158.27 145.16 L 159.26 145.16 C 160.16 145.16 160.89 144.43 160.89 143.53 C 160.89 142.63 160.16 141.90 159.26 141.90 L 158.27 141.90 C 157.37 141.90 156.64 142.63 156.64 143.53 C 156.64 144.43 157.37 145.16 158.27 145.16 Z M 159.26 145.15 L 160.26 145.15 C 161.16 145.15 161.88 144.42 161.88 143.53 C 161.88 142.64 161.16 141.91 160.26 141.91 L 159.26 141.91 C 158.37 141.91 157.65 142.64 157.65 143.53 C 157.65 144.42 158.37 145.15 159.26 145.15 Z M 160.26 145.14 L 161.27 145.14 C 162.16 145.14 162.88 144.42 162.88 143.53 C 162.88 142.64 162.16 141.92 161.27 141.92 L 160.26 141.92 C 159.38 141.92 158.66 142.64 158.66 143.53 C 158.66 144.42 159.38 145.14 160.26 145.14 Z M 161.27 145.12 L 162.27 145.12 C 163.15 145.12 163.86 144.41 163.86 143.53 C 163.86 142.65 163.15 141.94 162.27 141.94 L 161.27 141.94 C 160.39 141.94 159.68 142.65 159.68 143.53 C 159.68 144.41 160.39 145.12 161.27 145.12 Z M 162.27 145.11 L 163.22 145.11 C 164.09 145.11 164.80 144.40 164.80 143.53 C 164.80 142.65 164.09 141.95 163.22 141.95 L 162.26 141.95 C 161.39 141.95 160.68 142.66 160.68 143.53 C 160.68 144.41 161.39 145.11 162.27 145.11 Z M 163.22 145.10 L 164.19 145.10 C 165.06 145.10 165.76 144.39 165.76 143.52 C 165.76 142.66 165.05 141.95 164.18 141.96 L 163.22 141.96 C 162.35 141.96 161.65 142.67 161.65 143.53 C 161.65 144.40 162.36 145.10 163.22 145.10 Z M 164.20 145.09 L 165.19 145.08 C 166.05 145.08 166.74 144.37 166.74 143.51 C 166.73 142.65 166.03 141.96 165.17 141.96 L 164.18 141.97 C 163.32 141.97 162.62 142.68 162.63 143.54 C 162.63 144.40 163.34 145.09 164.20 145.09 Z M 165.20 145.07 L 166.22 145.06 C 167.07 145.05 167.76 144.35 167.75 143.49 C 167.74 142.64 167.04 141.95 166.18 141.96 L 165.16 141.97 C 164.31 141.98 163.62 142.68 163.63 143.54 C 163.64 144.39 164.34 145.08 165.20 145.07 Z M 166.22 145.05 L 167.28 145.03 C 168.13 145.02 168.80 144.32 168.79 143.47 C 168.78 142.62 168.08 141.94 167.23 141.96 L 166.17 141.97 C 165.33 141.99 164.65 142.69 164.66 143.54 C 164.68 144.38 165.38 145.06 166.22 145.05 Z M 167.29 145.02 L 168.33 144.99 C 169.17 144.98 169.84 144.28 169.82 143.44 C 169.80 142.59 169.10 141.93 168.26 141.95 L 167.22 141.97 C 166.38 141.99 165.71 142.69 165.73 143.53 C 165.75 144.37 166.45 145.04 167.29 145.02 Z M 168.34 144.98 L 169.38 144.95 C 170.22 144.93 170.88 144.24 170.85 143.40 C 170.83 142.56 170.13 141.90 169.30 141.93 L 168.25 141.96 C 167.42 141.98 166.76 142.68 166.78 143.51 C 166.81 144.35 167.50 145.01 168.34 144.98 Z M 169.38 144.94 L 170.43 144.91 C 171.26 144.89 171.91 144.19 171.89 143.36 C 171.86 142.53 171.17 141.88 170.34 141.91 L 169.29 141.94 C 168.46 141.96 167.81 142.66 167.84 143.49 C 167.86 144.32 168.55 144.97 169.38 144.94 Z M 170.43 144.90 L 171.46 144.87 C 172.28 144.84 172.93 144.15 172.90 143.33 C 172.87 142.50 172.18 141.86 171.36 141.88 L 170.33 141.92 C 169.51 141.94 168.86 142.63 168.89 143.46 C 168.92 144.28 169.61 144.93 170.43 144.90 Z M 171.46 144.86 L 172.44 144.83 C 173.26 144.80 173.90 144.12 173.87 143.30 C 173.85 142.48 173.16 141.84 172.35 141.86 L 171.36 141.89 C 170.54 141.92 169.90 142.61 169.93 143.42 C 169.95 144.24 170.64 144.88 171.46 144.86 Z M 172.44 144.81 L 173.36 144.79 C 174.17 144.76 174.81 144.09 174.79 143.27 C 174.77 142.46 174.09 141.82 173.28 141.85 L 172.35 141.87 C 171.54 141.90 170.90 142.58 170.92 143.39 C 170.95 144.20 171.62 144.84 172.44 144.81 Z M 173.35 144.78 L 174.44 144.75 C 175.25 144.73 175.89 144.06 175.87 143.26 C 175.85 142.45 175.18 141.81 174.38 141.83 L 173.28 141.86 C 172.48 141.88 171.84 142.55 171.86 143.35 C 171.88 144.16 172.55 144.80 173.35 144.78 Z M 174.43 144.74 L 175.50 144.73 C 176.30 144.71 176.94 144.05 176.93 143.25 C 176.92 142.45 176.26 141.81 175.46 141.82 L 174.39 141.84 C 173.59 141.85 172.95 142.51 172.96 143.31 C 172.97 144.12 173.63 144.76 174.43 144.74 Z M 175.49 144.72 L 176.45 144.71 C 177.25 144.70 177.89 144.05 177.88 143.26 C 177.88 142.46 177.22 141.82 176.43 141.82 L 175.47 141.83 C 174.67 141.84 174.03 142.49 174.04 143.29 C 174.04 144.08 174.69 144.72 175.49 144.72 Z M 176.44 144.70 L 177.33 144.70 C 178.13 144.70 178.77 144.05 178.77 143.26 C 178.76 142.47 178.12 141.83 177.33 141.83 L 176.44 141.83 C 175.64 141.84 175.00 142.48 175.01 143.27 C 175.01 144.06 175.65 144.70 176.44 144.70 Z M 177.33 144.69 L 177.71 144.69 C 178.50 144.69 179.14 144.05 179.14 143.27 C 179.14 142.48 178.50 141.84 177.71 141.84 L 177.33 141.84 C 176.54 141.84 175.90 142.48 175.90 143.27 C 175.90 144.05 176.54 144.69 177.33 144.69 Z"
      fill="black"
      fill-rule="nonzero" /><path d="M 111.50 172.38 L 112.48 172.74 C 113.36 173.07 114.34 172.62 114.67 171.74 C 115.00 170.87 114.55 169.89 113.67 169.56 L 112.69 169.19 C 111.81 168.86 110.83 169.31 110.50 170.19 C 110.17 171.07 110.62 172.05 111.50 172.38 Z M 112.48 172.77 L 113.45 173.13 C 114.35 173.45 115.34 172.99 115.67 172.10 C 115.99 171.21 115.54 170.22 114.64 169.89 L 113.67 169.53 C 112.77 169.20 111.78 169.66 111.46 170.55 C 111.13 171.45 111.59 172.44 112.48 172.77 Z M 113.47 173.15 L 114.42 173.49 C 115.33 173.81 116.33 173.34 116.65 172.43 C 116.97 171.52 116.50 170.52 115.59 170.20 L 114.63 169.86 C 113.72 169.54 112.72 170.01 112.40 170.92 C 112.08 171.83 112.56 172.83 113.47 173.15 Z M 114.45 173.53 L 115.38 173.84 C 116.31 174.15 117.31 173.64 117.62 172.72 C 117.93 171.79 117.43 170.79 116.50 170.48 L 115.56 170.17 C 114.64 169.86 113.63 170.36 113.33 171.29 C 113.02 172.22 113.52 173.22 114.45 173.53 Z M 115.42 173.87 L 116.33 174.15 C 117.28 174.43 118.28 173.90 118.56 172.95 C 118.85 172.00 118.31 171.00 117.37 170.71 L 116.46 170.44 C 115.51 170.15 114.51 170.69 114.23 171.64 C 113.94 172.59 114.47 173.59 115.42 173.87 Z M 116.39 174.18 L 117.36 174.43 C 118.32 174.68 119.31 174.10 119.56 173.14 C 119.81 172.17 119.23 171.18 118.27 170.93 L 117.30 170.68 C 116.34 170.43 115.35 171.01 115.10 171.97 C 114.84 172.94 115.42 173.93 116.39 174.18 Z M 117.44 174.46 L 118.42 174.67 C 119.40 174.87 120.36 174.25 120.57 173.27 C 120.78 172.28 120.15 171.32 119.17 171.11 L 118.19 170.91 C 117.21 170.70 116.24 171.32 116.03 172.31 C 115.83 173.29 116.45 174.25 117.44 174.46 Z M 118.49 174.68 L 119.46 174.84 C 120.45 175.01 121.39 174.34 121.55 173.35 C 121.72 172.36 121.05 171.43 120.06 171.26 L 119.10 171.10 C 118.11 170.93 117.17 171.60 117.00 172.59 C 116.84 173.58 117.50 174.51 118.49 174.68 Z M 119.51 174.85 L 120.48 174.99 C 121.48 175.12 122.40 174.43 122.53 173.43 C 122.67 172.44 121.97 171.52 120.98 171.38 L 120.01 171.25 C 119.01 171.11 118.10 171.81 117.96 172.81 C 117.82 173.80 118.52 174.72 119.51 174.85 Z M 120.52 174.99 L 121.51 175.11 C 122.51 175.23 123.41 174.52 123.53 173.52 C 123.65 172.52 122.94 171.61 121.94 171.50 L 120.95 171.38 C 119.95 171.26 119.04 171.97 118.92 172.97 C 118.81 173.97 119.52 174.87 120.52 174.99 Z M 121.52 175.11 L 122.47 175.22 C 123.47 175.33 124.37 174.61 124.48 173.61 C 124.59 172.61 123.87 171.71 122.87 171.60 L 121.93 171.49 C 120.93 171.38 120.03 172.10 119.91 173.10 C 119.80 174.10 120.52 175.00 121.52 175.11 Z M 122.48 175.22 L 123.45 175.32 C 124.45 175.43 125.35 174.70 125.45 173.70 C 125.56 172.70 124.83 171.81 123.83 171.70 L 122.86 171.60 C 121.86 171.49 120.96 172.22 120.86 173.22 C 120.75 174.22 121.48 175.11 122.48 175.22 Z M 123.47 175.32 L 124.47 175.42 C 125.47 175.52 126.36 174.79 126.46 173.79 C 126.56 172.79 125.83 171.90 124.83 171.80 L 123.82 171.70 C 122.82 171.60 121.93 172.33 121.83 173.33 C 121.74 174.33 122.47 175.22 123.47 175.32 Z M 124.49 175.42 L 125.51 175.51 C 126.51 175.60 127.39 174.86 127.48 173.86 C 127.57 172.86 126.83 171.98 125.83 171.89 L 124.81 171.80 C 123.81 171.71 122.93 172.45 122.84 173.45 C 122.75 174.45 123.48 175.33 124.49 175.42 Z M 125.53 175.51 L 126.56 175.60 C 127.56 175.68 128.44 174.93 128.52 173.93 C 128.60 172.93 127.85 172.05 126.85 171.97 L 125.82 171.89 C 124.82 171.81 123.94 172.55 123.86 173.55 C 123.78 174.56 124.52 175.43 125.53 175.51 Z M 126.58 175.60 L 127.55 175.67 C 128.55 175.74 129.42 174.98 129.49 173.98 C 129.56 172.98 128.81 172.11 127.81 172.04 L 126.83 171.97 C 125.83 171.90 124.96 172.65 124.89 173.65 C 124.82 174.66 125.57 175.53 126.58 175.60 Z M 127.56 175.67 L 128.54 175.73 C 129.55 175.79 130.41 175.03 130.47 174.03 C 130.53 173.03 129.77 172.16 128.77 172.10 L 127.79 172.04 C 126.79 171.98 125.93 172.74 125.86 173.74 C 125.80 174.74 126.56 175.60 127.56 175.67 Z M 128.56 175.73 L 129.55 175.78 C 130.55 175.84 131.41 175.07 131.46 174.07 C 131.52 173.07 130.75 172.21 129.75 172.16 L 128.76 172.10 C 127.76 172.04 126.90 172.81 126.84 173.81 C 126.79 174.81 127.55 175.67 128.56 175.73 Z M 129.56 175.78 L 130.56 175.84 C 131.56 175.89 132.42 175.12 132.47 174.12 C 132.52 173.11 131.75 172.26 130.75 172.21 L 129.74 172.16 C 128.74 172.11 127.89 172.88 127.84 173.88 C 127.79 174.88 128.55 175.73 129.56 175.78 Z M 130.57 175.84 L 131.59 175.89 C 132.60 175.93 133.45 175.16 133.50 174.16 C 133.54 173.16 132.77 172.31 131.77 172.26 L 130.75 172.21 C 129.74 172.16 128.89 172.93 128.84 173.93 C 128.80 174.94 129.57 175.79 130.57 175.84 Z M 131.60 175.88 L 132.58 175.93 C 133.58 175.98 134.43 175.20 134.48 174.20 C 134.53 173.20 133.75 172.35 132.75 172.31 L 131.77 172.26 C 130.77 172.21 129.92 172.99 129.87 173.99 C 129.82 174.99 130.60 175.84 131.60 175.88 Z M 132.59 175.93 L 133.56 175.98 C 134.56 176.02 135.41 175.25 135.45 174.25 C 135.50 173.24 134.72 172.40 133.72 172.35 L 132.75 172.31 C 131.75 172.26 130.90 173.04 130.86 174.04 C 130.81 175.04 131.58 175.89 132.59 175.93 Z M 133.56 175.98 L 134.55 176.02 C 135.55 176.06 136.40 175.29 136.44 174.29 C 136.48 173.28 135.71 172.44 134.71 172.39 L 133.72 172.35 C 132.72 172.31 131.87 173.08 131.83 174.08 C 131.78 175.08 132.56 175.93 133.56 175.98 Z M 134.55 176.02 L 135.56 176.06 C 136.56 176.10 137.40 175.32 137.44 174.32 C 137.49 173.32 136.71 172.48 135.71 172.44 L 134.70 172.39 C 133.70 172.35 132.86 173.13 132.82 174.13 C 132.77 175.13 133.55 175.98 134.55 176.02 Z M 135.56 176.06 L 136.58 176.10 C 137.58 176.14 138.42 175.36 138.46 174.36 C 138.50 173.36 137.72 172.51 136.72 172.47 L 135.70 172.44 C 134.70 172.40 133.86 173.18 133.82 174.18 C 133.78 175.18 134.56 176.02 135.56 176.06 Z M 136.59 176.10 L 137.62 176.14 C 138.62 176.17 139.46 175.39 139.49 174.39 C 139.53 173.39 138.75 172.55 137.74 172.51 L 136.71 172.47 C 135.71 172.44 134.87 173.22 134.84 174.22 C 134.80 175.22 135.59 176.06 136.59 176.10 Z M 137.62 176.14 L 138.61 176.17 C 139.61 176.20 140.45 175.41 140.48 174.41 C 140.51 173.41 139.73 172.57 138.73 172.54 L 137.74 172.51 C 136.74 172.48 135.90 173.27 135.87 174.27 C 135.84 175.27 136.62 176.10 137.62 176.14 Z M 138.62 176.17 L 139.60 176.19 C 140.60 176.22 141.44 175.43 141.46 174.43 C 141.49 173.43 140.70 172.60 139.70 172.57 L 138.72 172.54 C 137.72 172.51 136.89 173.30 136.86 174.30 C 136.83 175.30 137.62 176.14 138.62 176.17 Z M 139.61 176.19 L 140.60 176.22 C 141.60 176.24 142.43 175.45 142.45 174.45 C 142.48 173.45 141.69 172.62 140.69 172.59 L 139.70 172.57 C 138.69 172.54 137.86 173.34 137.84 174.34 C 137.81 175.34 138.61 176.17 139.61 176.19 Z M 140.60 176.22 L 141.60 176.24 C 142.61 176.26 143.43 175.46 143.45 174.46 C 143.48 173.46 142.68 172.63 141.68 172.61 L 140.68 172.59 C 139.68 172.57 138.85 173.37 138.83 174.37 C 138.81 175.37 139.60 176.20 140.60 176.22 Z M 141.61 176.24 L 142.62 176.26 C 143.62 176.27 144.45 175.48 144.47 174.47 C 144.48 173.47 143.68 172.65 142.68 172.63 L 141.67 172.61 C 140.67 172.60 139.85 173.39 139.83 174.39 C 139.81 175.40 140.61 176.22 141.61 176.24 Z M 142.63 176.26 L 143.65 176.27 C 144.65 176.28 145.47 175.48 145.49 174.48 C 145.50 173.48 144.70 172.66 143.70 172.64 L 142.68 172.63 C 141.68 172.62 140.85 173.42 140.84 174.42 C 140.83 175.42 141.63 176.24 142.63 176.26 Z M 143.65 176.27 L 144.66 176.28 C 145.66 176.29 146.48 175.49 146.49 174.49 C 146.50 173.49 145.70 172.67 144.70 172.66 L 143.69 172.65 C 142.69 172.63 141.87 173.44 141.86 174.44 C 141.85 175.44 142.65 176.26 143.65 176.27 Z M 144.67 176.28 L 145.64 176.28 C 146.64 176.29 147.46 175.49 147.47 174.49 C 147.47 173.49 146.67 172.67 145.67 172.67 L 144.69 172.66 C 143.69 172.65 142.88 173.46 142.87 174.45 C 142.86 175.45 143.67 176.27 144.67 176.28 Z M 145.65 176.28 L 146.64 176.29 C 147.63 176.29 148.44 175.49 148.45 174.49 C 148.46 173.49 147.65 172.68 146.65 172.67 L 145.67 172.67 C 144.67 172.66 143.86 173.47 143.85 174.47 C 143.85 175.46 144.65 176.28 145.65 176.28 Z M 146.64 176.28 L 147.63 176.29 C 148.63 176.29 149.44 175.48 149.44 174.49 C 149.45 173.49 148.64 172.69 147.65 172.68 L 146.65 172.68 C 145.66 172.68 144.85 173.48 144.84 174.47 C 144.84 175.47 145.64 176.28 146.64 176.28 Z M 147.64 176.28 L 148.64 176.28 C 149.63 176.29 150.44 175.48 150.44 174.49 C 150.44 173.50 149.64 172.69 148.65 172.69 L 147.64 172.69 C 146.65 172.68 145.84 173.49 145.84 174.48 C 145.84 175.47 146.64 176.28 147.64 176.28 Z M 148.64 176.28 L 149.66 176.28 C 150.65 176.28 151.45 175.48 151.45 174.49 C 151.45 173.50 150.65 172.69 149.66 172.69 L 148.65 172.69 C 147.66 172.69 146.85 173.49 146.85 174.48 C 146.85 175.48 147.65 176.28 148.64 176.28 Z M 149.66 176.28 L 150.68 176.28 C 151.67 176.28 152.47 175.48 152.47 174.49 C 152.47 173.50 151.67 172.70 150.68 172.70 L 149.66 172.70 C 148.67 172.70 147.87 173.50 147.87 174.49 C 147.87 175.47 148.67 176.28 149.66 176.28 Z M 150.68 176.27 L 151.67 176.27 C 152.66 176.27 153.46 175.47 153.46 174.49 C 153.46 173.50 152.66 172.70 151.67 172.70 L 150.68 172.70 C 149.69 172.70 148.89 173.50 148.89 174.49 C 148.89 175.47 149.69 176.27 150.68 176.27 Z M 151.67 176.27 L 152.65 176.27 C 153.63 176.27 154.43 175.47 154.43 174.49 C 154.43 173.50 153.63 172.71 152.65 172.71 L 151.67 172.71 C 150.69 172.71 149.89 173.50 149.89 174.49 C 149.89 175.47 150.69 176.27 151.67 176.27 Z M 152.65 176.26 L 153.64 176.26 C 154.62 176.26 155.41 175.47 155.41 174.49 C 155.41 173.51 154.62 172.71 153.64 172.71 L 152.65 172.71 C 151.67 172.71 150.87 173.51 150.87 174.49 C 150.87 175.47 151.67 176.26 152.65 176.26 Z M 153.64 176.26 L 154.63 176.26 C 155.61 176.26 156.40 175.46 156.40 174.49 C 156.40 173.51 155.61 172.72 154.63 172.72 L 153.64 172.72 C 152.66 172.72 151.87 173.51 151.87 174.49 C 151.87 175.46 152.66 176.26 153.64 176.26 Z M 154.63 176.25 L 155.64 176.25 C 156.61 176.25 157.40 175.46 157.40 174.49 C 157.40 173.51 156.61 172.72 155.64 172.72 L 154.63 172.72 C 153.66 172.72 152.87 173.51 152.87 174.49 C 152.87 175.46 153.66 176.25 154.63 176.25 Z M 155.64 176.25 L 156.65 176.25 C 157.62 176.25 158.41 175.46 158.41 174.49 C 158.41 173.51 157.62 172.73 156.65 172.73 L 155.64 172.73 C 154.66 172.73 153.87 173.51 153.87 174.49 C 153.87 175.46 154.66 176.25 155.64 176.25 Z M 156.65 176.24 L 157.67 176.24 C 158.64 176.24 159.43 175.46 159.43 174.49 C 159.43 173.52 158.64 172.73 157.67 172.73 L 156.65 172.73 C 155.68 172.73 154.89 173.52 154.89 174.49 C 154.89 175.46 155.68 176.24 156.65 176.24 Z M 157.67 176.24 L 158.69 176.24 C 159.66 176.24 160.44 175.45 160.44 174.49 C 160.44 173.52 159.66 172.74 158.69 172.74 L 157.67 172.74 C 156.71 172.74 155.92 173.52 155.92 174.49 C 155.92 175.45 156.71 176.24 157.67 176.24 Z M 158.69 176.23 L 159.71 176.23 C 160.67 176.23 161.45 175.45 161.45 174.49 C 161.45 173.52 160.67 172.74 159.71 172.74 L 158.69 172.74 C 157.73 172.74 156.95 173.52 156.95 174.49 C 156.95 175.45 157.73 176.23 158.69 176.23 Z M 159.71 176.22 L 160.72 176.22 C 161.68 176.22 162.46 175.44 162.46 174.48 C 162.46 173.53 161.68 172.75 160.72 172.75 L 159.71 172.75 C 158.75 172.75 157.97 173.53 157.97 174.49 C 157.97 175.44 158.75 176.22 159.71 176.22 Z M 160.73 176.21 L 161.74 176.21 C 162.69 176.21 163.46 175.43 163.46 174.48 C 163.46 173.53 162.69 172.76 161.73 172.76 L 160.72 172.76 C 159.77 172.76 159.00 173.54 159.00 174.49 C 159.00 175.44 159.77 176.21 160.73 176.21 Z M 161.74 176.20 L 162.75 176.20 C 163.70 176.19 164.46 175.42 164.46 174.48 C 164.46 173.53 163.69 172.76 162.74 172.77 L 161.73 172.77 C 160.78 172.77 160.02 173.54 160.02 174.49 C 160.02 175.44 160.79 176.20 161.74 176.20 Z M 162.75 176.19 L 163.75 176.18 C 164.69 176.18 165.45 175.41 165.45 174.47 C 165.44 173.53 164.68 172.77 163.73 172.77 L 162.74 172.77 C 161.80 172.78 161.03 173.55 161.04 174.49 C 161.04 175.43 161.81 176.19 162.75 176.19 Z M 163.75 176.18 L 164.73 176.17 C 165.67 176.16 166.43 175.40 166.42 174.46 C 166.42 173.52 165.65 172.77 164.71 172.77 L 163.73 172.78 C 162.79 172.79 162.04 173.55 162.04 174.49 C 162.05 175.43 162.81 176.18 163.75 176.18 Z M 164.74 176.16 L 165.71 176.15 C 166.65 176.14 167.40 175.38 167.39 174.45 C 167.38 173.52 166.62 172.77 165.68 172.77 L 164.71 172.78 C 163.78 172.79 163.03 173.55 163.03 174.49 C 163.04 175.42 163.80 176.17 164.74 176.16 Z M 165.72 176.14 L 166.78 176.13 C 167.71 176.12 168.45 175.36 168.44 174.43 C 168.43 173.51 167.67 172.76 166.74 172.77 L 165.68 172.78 C 164.75 172.79 164.01 173.56 164.02 174.48 C 164.03 175.41 164.79 176.15 165.72 176.14 Z M 166.78 176.12 L 167.82 176.10 C 168.74 176.09 169.48 175.33 169.46 174.41 C 169.45 173.49 168.69 172.76 167.77 172.77 L 166.74 172.78 C 165.82 172.80 165.08 173.55 165.09 174.47 C 165.11 175.40 165.86 176.13 166.78 176.12 Z M 167.82 176.09 L 168.83 176.08 C 169.75 176.06 170.48 175.31 170.46 174.39 C 170.45 173.48 169.69 172.75 168.78 172.76 L 167.77 172.78 C 166.85 172.80 166.12 173.55 166.14 174.46 C 166.15 175.38 166.91 176.11 167.82 176.09 Z M 168.84 176.07 L 169.82 176.05 C 170.73 176.03 171.45 175.28 171.44 174.37 C 171.42 173.46 170.67 172.74 169.76 172.76 L 168.77 172.77 C 167.87 172.79 167.14 173.54 167.16 174.45 C 167.18 175.36 167.93 176.08 168.84 176.07 Z M 169.83 176.04 L 170.79 176.02 C 171.70 176.00 172.41 175.25 172.39 174.35 C 172.38 173.45 171.63 172.73 170.73 172.75 L 169.76 172.77 C 168.86 172.79 168.14 173.53 168.16 174.43 C 168.18 175.34 168.92 176.05 169.83 176.04 Z M 170.79 176.00 L 171.75 175.98 C 172.64 175.97 173.35 175.22 173.33 174.33 C 173.31 173.43 172.57 172.72 171.68 172.74 L 170.73 172.76 C 169.83 172.78 169.12 173.52 169.14 174.42 C 169.16 175.31 169.90 176.02 170.79 176.00 Z M 171.75 175.97 L 172.75 175.95 C 173.64 175.93 174.34 175.19 174.32 174.30 C 174.30 173.42 173.57 172.71 172.68 172.73 L 171.68 172.75 C 170.79 172.77 170.08 173.51 170.10 174.40 C 170.12 175.29 170.86 175.99 171.75 175.97 Z M 172.75 175.94 L 173.77 175.92 C 174.65 175.90 175.35 175.17 175.34 174.28 C 175.32 173.40 174.58 172.70 173.70 172.72 L 172.68 172.74 C 171.79 172.76 171.09 173.49 171.11 174.38 C 171.13 175.26 171.86 175.96 172.75 175.94 Z M 173.77 175.91 L 174.78 175.88 C 175.66 175.86 176.35 175.14 176.33 174.26 C 176.31 173.38 175.59 172.69 174.71 172.71 L 173.70 172.73 C 172.82 172.75 172.13 173.48 172.15 174.35 C 172.17 175.23 172.89 175.92 173.77 175.91 Z M 174.78 175.87 L 175.78 175.85 C 176.65 175.83 177.34 175.11 177.32 174.24 C 177.30 173.37 176.58 172.68 175.71 172.70 L 174.71 172.72 C 173.84 172.74 173.15 173.46 173.17 174.33 C 173.19 175.20 173.91 175.89 174.78 175.87 Z M 175.78 175.84 L 176.76 175.81 C 177.62 175.79 178.31 175.08 178.29 174.21 C 178.27 173.35 177.55 172.67 176.69 172.69 L 175.71 172.71 C 174.84 172.73 174.16 173.44 174.18 174.31 C 174.20 175.17 174.91 175.86 175.78 175.84 Z M 176.76 175.80 L 177.73 175.78 C 178.59 175.76 179.27 175.05 179.25 174.19 C 179.23 173.33 178.52 172.66 177.66 172.68 L 176.69 172.70 C 175.83 172.72 175.15 173.43 175.17 174.29 C 175.19 175.14 175.90 175.82 176.76 175.80 Z M 177.73 175.77 L 178.76 175.74 C 179.61 175.72 180.28 175.02 180.26 174.17 C 180.24 173.32 179.54 172.64 178.68 172.66 L 177.66 172.69 C 176.81 172.71 176.13 173.41 176.15 174.26 C 176.18 175.11 176.88 175.79 177.73 175.77 Z M 178.76 175.73 L 179.79 175.71 C 180.63 175.69 181.30 174.99 181.28 174.14 C 181.26 173.30 180.56 172.63 179.71 172.65 L 178.69 172.67 C 177.84 172.69 177.17 173.39 177.19 174.24 C 177.21 175.08 177.91 175.75 178.76 175.73 Z M 179.78 175.70 L 180.79 175.67 C 181.63 175.66 182.30 174.96 182.28 174.12 C 182.26 173.28 181.57 172.62 180.73 172.64 L 179.72 172.66 C 178.88 172.68 178.21 173.37 178.23 174.21 C 178.25 175.05 178.95 175.72 179.78 175.70 Z M 180.79 175.66 L 181.78 175.64 C 182.61 175.63 183.28 174.94 183.26 174.11 C 183.24 173.27 182.55 172.61 181.72 172.63 L 180.73 172.65 C 179.90 172.67 179.24 173.35 179.25 174.19 C 179.27 175.02 179.96 175.68 180.79 175.66 Z M 181.78 175.63 L 182.74 175.62 C 183.57 175.60 184.23 174.92 184.21 174.09 C 184.20 173.27 183.52 172.61 182.69 172.62 L 181.73 172.64 C 180.90 172.65 180.24 173.34 180.25 174.16 C 180.27 174.99 180.95 175.65 181.78 175.63 Z M 182.74 175.61 L 183.74 175.59 C 184.56 175.58 185.21 174.91 185.20 174.09 C 185.19 173.26 184.52 172.61 183.70 172.62 L 182.70 172.63 C 181.88 172.64 181.22 173.32 181.23 174.14 C 181.24 174.96 181.92 175.62 182.74 175.61 Z M 183.73 175.59 L 184.78 175.58 C 185.59 175.57 186.25 174.90 186.24 174.08 C 186.24 173.27 185.57 172.61 184.75 172.62 L 183.70 172.63 C 182.89 172.63 182.23 173.30 182.24 174.12 C 182.24 174.94 182.91 175.59 183.73 175.59 Z M 184.77 175.57 L 185.78 175.57 C 186.60 175.56 187.26 174.90 187.25 174.08 C 187.25 173.27 186.58 172.61 185.77 172.62 L 184.76 172.62 C 183.94 172.62 183.28 173.29 183.29 174.10 C 183.29 174.92 183.96 175.58 184.77 175.57 Z M 185.78 175.56 L 186.76 175.56 C 187.57 175.56 188.23 174.90 188.23 174.09 C 188.23 173.27 187.57 172.62 186.75 172.62 L 185.77 172.62 C 184.96 172.62 184.30 173.28 184.31 174.10 C 184.31 174.91 184.97 175.56 185.78 175.56 Z M 186.76 175.56 L 187.70 175.56 C 188.51 175.56 189.17 174.90 189.17 174.09 C 189.17 173.28 188.51 172.62 187.70 172.62 L 186.76 172.62 C 185.95 172.62 185.29 173.28 185.29 174.09 C 185.29 174.90 185.95 175.56 186.76 175.56 Z M 187.70 175.55 L 188.71 175.55 C 189.52 175.56 190.18 174.90 190.18 174.09 C 190.18 173.28 189.53 172.63 188.72 172.63 L 187.70 172.63 C 186.90 172.62 186.24 173.28 186.24 174.09 C 186.24 174.90 186.89 175.55 187.70 175.55 Z M 188.70 175.55 L 189.71 175.56 C 190.52 175.57 191.18 174.92 191.19 174.11 C 191.20 173.31 190.55 172.64 189.74 172.64 L 188.73 172.63 C 187.92 172.62 187.26 173.27 187.25 174.08 C 187.24 174.88 187.89 175.55 188.70 175.55 Z M 189.68 175.56 L 190.67 175.59 C 191.48 175.62 192.15 174.98 192.18 174.18 C 192.20 173.37 191.57 172.69 190.76 172.67 L 189.77 172.64 C 188.96 172.61 188.29 173.25 188.26 174.06 C 188.24 174.86 188.87 175.54 189.68 175.56 Z M 190.62 175.59 L 191.60 175.66 C 192.40 175.71 193.10 175.10 193.15 174.29 C 193.20 173.48 192.59 172.78 191.78 172.73 L 190.81 172.67 C 190.00 172.62 189.30 173.23 189.25 174.04 C 189.20 174.84 189.81 175.54 190.62 175.59 Z M 191.53 175.65 L 192.51 175.76 C 193.32 175.85 194.04 175.26 194.13 174.46 C 194.22 173.65 193.64 172.93 192.83 172.84 L 191.85 172.74 C 191.04 172.65 190.32 173.23 190.23 174.04 C 190.14 174.84 190.73 175.56 191.53 175.65 Z M 192.45 175.75 L 193.44 175.90 C 194.24 176.02 194.99 175.47 195.11 174.66 C 195.23 173.86 194.68 173.12 193.87 173.00 L 192.89 172.85 C 192.09 172.73 191.34 173.28 191.22 174.08 C 191.10 174.88 191.65 175.63 192.45 175.75 Z M 193.40 175.89 L 194.39 176.07 C 195.18 176.21 195.95 175.68 196.09 174.88 C 196.23 174.08 195.70 173.32 194.90 173.18 L 193.92 173.00 C 193.12 172.86 192.36 173.39 192.21 174.19 C 192.07 174.99 192.60 175.75 193.40 175.89 Z M 194.36 176.06 L 195.35 176.26 C 196.14 176.41 196.92 175.89 197.07 175.10 C 197.23 174.30 196.71 173.53 195.91 173.38 L 194.92 173.18 C 194.13 173.03 193.36 173.55 193.20 174.34 C 193.05 175.14 193.57 175.91 194.36 176.06 Z M 195.34 176.26 L 195.68 176.32 C 196.47 176.48 197.25 175.97 197.41 175.17 C 197.56 174.38 197.05 173.60 196.25 173.44 L 195.92 173.38 C 195.12 173.22 194.35 173.73 194.19 174.53 C 194.03 175.32 194.55 176.10 195.34 176.26 Z"
      fill="black"
      fill-rule="nonzero" /></svg>