<svg xmlns="http://www.w3.org/2000/svg" width="300" height="300" viewBox="0 0 300 300">
<path d="M 134.01 119.15 L 132.90 119.18 C 132.00 119.20 131.29 119.94 131.32 120.84 C 131.34 121.74 132.08 122.45 132.98 122.43 L 134.09 122.40 C 134.99 122.38 135.70 121.63 135.68 120.74 C 135.66 119.84 134.91 119.13 134.01 119.15 Z M 132.88 119.16 L 131.79 119.20 C 130.89 119.24 130.18 120.00 130.22 120.91 C 130.25 121.82 131.01 122.52 131.92 122.49 L 133.01 122.44 C 133.91 122.41 134.62 121.65 134.58 120.74 C 134.55 119.83 133.78 119.13 132.88 119.16 Z M 131.74 119.19 L 130.71 119.26 C 129.80 119.33 129.11 120.12 129.17 121.03 C 129.23 121.94 130.03 122.63 130.94 122.57 L 131.97 122.50 C 132.88 122.44 133.57 121.64 133.51 120.73 C 133.45 119.82 132.66 119.13 131.74 119.19 Z M 130.62 119.26 L 129.67 119.37 C 128.75 119.48 128.10 120.32 128.21 121.23 C 128.32 122.15 129.15 122.80 130.07 122.69 L 131.03 122.58 C 131.94 122.47 132.60 121.63 132.48 120.72 C 132.37 119.80 131.54 119.15 130.62 119.26 Z M 129.53 119.38 L 128.68 119.56 C 127.77 119.74 127.18 120.64 127.37 121.55 C 127.56 122.46 128.45 123.05 129.36 122.86 L 130.21 122.69 C 131.12 122.50 131.71 121.60 131.52 120.69 C 131.33 119.78 130.44 119.19 129.53 119.38 Z M 128.39 119.63 L 127.30 120.06 C 126.43 120.41 126.01 121.39 126.35 122.27 C 126.70 123.14 127.68 123.56 128.56 123.22 L 129.65 122.79 C 130.52 122.44 130.94 121.45 130.60 120.58 C 130.25 119.71 129.27 119.28 128.39 119.63 Z M 126.80 120.36 L 126.04 121.04 C 125.33 121.66 125.27 122.74 125.89 123.45 C 126.51 124.15 127.59 124.22 128.30 123.59 L 129.06 122.92 C 129.77 122.29 129.83 121.21 129.21 120.51 C 128.58 119.80 127.51 119.74 126.80 120.36 Z M 125.47 122.09 L 125.38 122.79 C 125.25 123.73 125.91 124.59 126.84 124.71 C 127.78 124.84 128.64 124.18 128.77 123.25 L 128.86 122.55 C 128.99 121.61 128.33 120.75 127.40 120.62 C 126.46 120.49 125.60 121.15 125.47 122.09 Z M 125.84 124.20 L 126.31 124.70 C 126.96 125.38 128.05 125.40 128.73 124.75 C 129.41 124.10 129.44 123.01 128.78 122.33 L 128.31 121.83 C 127.65 121.15 126.57 121.13 125.89 121.78 C 125.20 122.44 125.18 123.52 125.84 124.20 Z M 126.85 125.07 L 127.71 125.46 C 128.57 125.84 129.58 125.46 129.96 124.60 C 130.35 123.74 129.97 122.73 129.11 122.34 L 128.25 121.96 C 127.39 121.57 126.38 121.95 125.99 122.81 C 125.60 123.67 125.99 124.68 126.85 125.07 Z M 127.97 125.54 L 129.09 125.84 C 130.00 126.08 130.93 125.54 131.17 124.63 C 131.41 123.72 130.87 122.79 129.96 122.55 L 128.84 122.25 C 127.93 122.01 127.00 122.55 126.76 123.46 C 126.52 124.37 127.06 125.30 127.97 125.54 Z M 129.23 125.87 L 130.33 126.06 C 131.25 126.22 132.13 125.60 132.29 124.68 C 132.45 123.76 131.84 122.88 130.92 122.72 L 129.82 122.53 C 128.90 122.37 128.02 122.98 127.86 123.90 C 127.70 124.82 128.31 125.70 129.23 125.87 Z M 130.41 126.06 L 131.35 126.18 C 132.27 126.29 133.11 125.64 133.23 124.71 C 133.34 123.79 132.69 122.95 131.76 122.83 L 130.83 122.72 C 129.91 122.60 129.06 123.26 128.95 124.18 C 128.84 125.11 129.49 125.95 130.41 126.06 Z M 131.41 126.17 L 132.38 126.26 C 133.30 126.34 134.12 125.66 134.20 124.73 C 134.28 123.81 133.59 123.00 132.67 122.92 L 131.70 122.84 C 130.78 122.76 129.97 123.44 129.89 124.36 C 129.81 125.28 130.49 126.09 131.41 126.17 Z M 132.43 126.25 L 133.45 126.31 C 134.36 126.36 135.15 125.66 135.20 124.75 C 135.26 123.83 134.56 123.04 133.64 122.99 L 132.63 122.93 C 131.71 122.88 130.92 123.58 130.87 124.49 C 130.82 125.41 131.52 126.19 132.43 126.25 Z M 133.48 126.30 L 134.54 126.34 C 135.45 126.37 136.22 125.66 136.25 124.75 C 136.29 123.84 135.58 123.07 134.67 123.04 L 133.61 123.00 C 132.70 122.96 131.93 123.68 131.90 124.59 C 131.86 125.50 132.57 126.26 133.48 126.30 Z M 134.57 126.33 L 135.62 126.35 C 136.53 126.37 137.28 125.66 137.30 124.75 C 137.32 123.85 136.60 123.10 135.70 123.08 L 134.64 123.05 C 133.74 123.03 132.99 123.74 132.97 124.65 C 132.95 125.55 133.66 126.31 134.57 126.33 Z M 135.64 126.34 L 136.69 126.35 C 137.58 126.36 138.32 125.64 138.33 124.75 C 138.34 123.85 137.62 123.11 136.72 123.10 L 135.68 123.09 C 134.78 123.08 134.04 123.80 134.03 124.69 C 134.02 125.59 134.74 126.33 135.64 126.34 Z M 136.71 126.34 L 137.75 126.34 C 138.65 126.34 139.37 125.61 139.36 124.72 C 139.36 123.83 138.64 123.10 137.74 123.11 L 136.70 123.11 C 135.81 123.11 135.09 123.84 135.09 124.73 C 135.09 125.62 135.82 126.35 136.71 126.34 Z M 137.78 126.33 L 138.80 126.31 C 139.68 126.29 140.39 125.55 140.37 124.67 C 140.35 123.78 139.61 123.08 138.73 123.10 L 137.71 123.12 C 136.83 123.14 136.12 123.87 136.14 124.76 C 136.16 125.64 136.90 126.35 137.78 126.33 Z M 138.84 126.29 L 139.79 126.25 C 140.67 126.21 141.35 125.46 141.31 124.58 C 141.27 123.70 140.52 123.02 139.64 123.06 L 138.69 123.11 C 137.81 123.15 137.13 123.90 137.17 124.78 C 137.21 125.65 137.96 126.33 138.84 126.29 Z M 139.85 126.23 L 140.84 126.15 C 141.71 126.08 142.36 125.31 142.29 124.44 C 142.21 123.57 141.45 122.92 140.58 123.00 L 139.58 123.08 C 138.71 123.15 138.07 123.92 138.14 124.79 C 138.21 125.66 138.98 126.31 139.85 126.23 Z M 140.93 126.12 L 142.02 125.97 C 142.87 125.85 143.47 125.05 143.35 124.20 C 143.23 123.34 142.44 122.75 141.58 122.87 L 140.49 123.02 C 139.64 123.15 139.04 123.94 139.16 124.79 C 139.28 125.65 140.07 126.24 140.93 126.12 Z M 142.11 125.93 L 143.06 125.74 C 143.89 125.57 144.43 124.75 144.26 123.92 C 144.09 123.08 143.27 122.54 142.44 122.71 L 141.49 122.90 C 140.65 123.08 140.11 123.89 140.29 124.73 C 140.46 125.56 141.27 126.10 142.11 125.93 Z M 143.11 125.71 L 143.98 125.49 C 144.80 125.29 145.30 124.46 145.09 123.64 C 144.89 122.83 144.06 122.33 143.25 122.53 L 142.38 122.74 C 141.56 122.95 141.06 123.77 141.27 124.59 C 141.47 125.41 142.30 125.91 143.11 125.71 Z M 144.00 125.47 L 144.92 125.23 C 145.73 125.02 146.21 124.19 146.00 123.39 C 145.79 122.58 144.97 122.10 144.16 122.31 L 143.23 122.55 C 142.43 122.76 141.94 123.59 142.15 124.39 C 142.36 125.20 143.19 125.68 144.00 125.47 Z M 144.93 125.22 L 145.89 124.96 C 146.69 124.75 147.16 123.92 146.95 123.13 C 146.74 122.33 145.92 121.85 145.12 122.06 L 144.16 122.32 C 143.36 122.53 142.88 123.35 143.09 124.15 C 143.31 124.95 144.13 125.43 144.93 125.22 Z M 145.90 124.94 L 146.87 124.67 C 147.66 124.45 148.13 123.63 147.90 122.84 C 147.68 122.05 146.86 121.59 146.07 121.81 L 145.10 122.08 C 144.31 122.30 143.85 123.12 144.07 123.91 C 144.29 124.70 145.11 125.17 145.90 124.94 Z M 146.89 124.66 L 147.80 124.39 C 148.58 124.15 149.03 123.33 148.79 122.55 C 148.56 121.77 147.74 121.32 146.95 121.55 L 146.05 121.82 C 145.27 122.06 144.82 122.88 145.05 123.66 C 145.29 124.45 146.11 124.89 146.89 124.66 Z M 147.82 124.38 L 148.70 124.10 C 149.47 123.86 149.90 123.03 149.66 122.26 C 149.42 121.48 148.59 121.05 147.82 121.29 L 146.94 121.57 C 146.16 121.81 145.73 122.64 145.97 123.41 C 146.22 124.19 147.04 124.62 147.82 124.38 Z M 148.70 124.09 L 149.65 123.79 C 150.43 123.54 150.85 122.72 150.60 121.95 C 150.36 121.18 149.54 120.75 148.76 121.00 L 147.81 121.30 C 147.04 121.55 146.62 122.37 146.86 123.14 C 147.11 123.91 147.93 124.34 148.70 124.09 Z M 149.65 123.78 L 150.71 123.44 C 151.48 123.20 151.91 122.38 151.66 121.61 C 151.42 120.85 150.60 120.42 149.83 120.66 L 148.77 121.00 C 148.00 121.24 147.58 122.06 147.82 122.83 C 148.06 123.60 148.88 124.02 149.65 123.78 Z M 150.70 123.44 L 151.61 123.16 C 152.37 122.92 152.80 122.11 152.56 121.34 C 152.32 120.58 151.51 120.15 150.74 120.39 L 149.84 120.67 C 149.08 120.91 148.65 121.72 148.89 122.49 C 149.12 123.25 149.94 123.68 150.70 123.44 Z M 151.60 123.16 L 152.53 122.88 C 153.29 122.64 153.72 121.83 153.49 121.07 C 153.25 120.30 152.44 119.87 151.68 120.10 L 150.75 120.39 C 149.99 120.62 149.56 121.43 149.79 122.20 C 150.02 122.96 150.83 123.39 151.60 123.16 Z M 152.52 122.87 L 153.50 122.58 C 154.26 122.35 154.69 121.54 154.46 120.77 C 154.23 120.01 153.42 119.58 152.66 119.81 L 151.68 120.11 C 150.92 120.34 150.49 121.15 150.72 121.91 C 150.95 122.67 151.76 123.11 152.52 122.87 Z M 153.49 122.58 L 154.49 122.27 C 155.25 122.04 155.68 121.24 155.45 120.48 C 155.22 119.71 154.42 119.28 153.65 119.51 L 152.66 119.81 C 151.90 120.04 151.46 120.85 151.70 121.61 C 151.93 122.38 152.73 122.81 153.49 122.58 Z M 154.49 122.27 L 155.49 121.97 C 156.25 121.74 156.68 120.94 156.45 120.18 C 156.22 119.41 155.42 118.98 154.66 119.21 L 153.66 119.52 C 152.90 119.75 152.46 120.55 152.69 121.31 C 152.92 122.07 153.73 122.50 154.49 122.27 Z M 155.49 121.97 L 156.47 121.67 C 157.24 121.44 157.66 120.64 157.43 119.88 C 157.20 119.12 156.40 118.69 155.64 118.92 L 154.65 119.21 C 153.89 119.44 153.46 120.25 153.69 121.01 C 153.93 121.77 154.73 122.20 155.49 121.97 Z M 156.48 121.67 L 157.45 121.38 C 158.21 121.15 158.64 120.34 158.41 119.58 C 158.17 118.82 157.37 118.39 156.61 118.62 L 155.64 118.91 C 154.88 119.14 154.44 119.95 154.68 120.71 C 154.91 121.48 155.71 121.91 156.48 121.67 Z M 157.45 121.38 L 158.40 121.09 C 159.17 120.86 159.60 120.05 159.37 119.29 C 159.13 118.52 158.32 118.09 157.56 118.32 L 156.60 118.61 C 155.84 118.85 155.41 119.66 155.64 120.42 C 155.87 121.19 156.68 121.62 157.45 121.38 Z M 158.40 121.10 L 159.35 120.81 C 160.12 120.58 160.55 119.76 160.32 119.00 C 160.08 118.23 159.27 117.80 158.50 118.03 L 157.56 118.32 C 156.79 118.55 156.36 119.36 156.59 120.13 C 156.82 120.90 157.64 121.33 158.40 121.10 Z M 159.35 120.81 L 160.29 120.53 C 161.06 120.29 161.50 119.48 161.26 118.71 C 161.03 117.94 160.21 117.50 159.44 117.74 L 158.50 118.02 C 157.73 118.26 157.30 119.08 157.53 119.85 C 157.77 120.62 158.58 121.05 159.35 120.81 Z M 160.29 120.53 L 160.54 120.45 C 161.31 120.22 161.75 119.40 161.51 118.63 C 161.28 117.86 160.46 117.42 159.69 117.66 L 159.44 117.73 C 158.67 117.97 158.23 118.79 158.47 119.56 C 158.70 120.33 159.52 120.77 160.29 120.53 Z"
      fill="black"
      fill-rule="nonzero" /><path d="M 121.87 144.58 L 120.49 144.82 C 119.61 144.97 119.02 145.80 119.17 146.69 C 119.32 147.57 120.16 148.16 121.04 148.01 L 122.42 147.77 C 123.30 147.62 123.90 146.78 123.74 145.90 C 123.59 145.02 122.76 144.43 121.87 144.58 Z M 120.48 144.82 L 119.23 145.04 C 118.35 145.20 117.76 146.04 117.92 146.92 C 118.08 147.81 118.92 148.39 119.80 148.23 L 121.05 148.01 C 121.93 147.85 122.52 147.01 122.36 146.13 C 122.20 145.24 121.36 144.66 120.48 144.82 Z M 119.19 145.05 L 118.20 145.25 C 117.33 145.42 116.76 146.28 116.94 147.16 C 117.11 148.04 117.97 148.61 118.85 148.43 L 119.84 148.23 C 120.72 148.05 121.28 147.19 121.11 146.32 C 120.93 145.44 120.07 144.87 119.19 145.05 Z M 118.10 145.27 L 117.50 145.43 C 116.63 145.67 116.12 146.57 116.36 147.43 C 116.60 148.30 117.49 148.81 118.36 148.57 L 118.96 148.40 C 119.82 148.17 120.33 147.27 120.09 146.41 C 119.86 145.54 118.96 145.03 118.10 145.27 Z M 116.44 146.34 L 116.38 146.47 C 116.02 147.29 116.39 148.25 117.21 148.62 C 118.04 148.98 119.00 148.61 119.36 147.79 L 119.42 147.66 C 119.78 146.84 119.41 145.88 118.59 145.51 C 117.77 145.15 116.80 145.52 116.44 146.34 Z M 117.73 148.76 L 118.36 148.82 C 119.26 148.90 120.06 148.23 120.14 147.33 C 120.22 146.43 119.56 145.63 118.65 145.55 L 118.02 145.49 C 117.12 145.41 116.32 146.08 116.24 146.98 C 116.16 147.88 116.82 148.68 117.73 148.76 Z M 118.55 148.84 L 119.70 148.81 C 120.62 148.78 121.34 148.02 121.31 147.11 C 121.29 146.20 120.53 145.48 119.62 145.50 L 118.46 145.53 C 117.55 145.56 116.83 146.31 116.85 147.23 C 116.88 148.14 117.64 148.86 118.55 148.84 Z M 119.80 148.81 L 121.26 148.69 C 122.18 148.61 122.86 147.81 122.78 146.89 C 122.71 145.97 121.90 145.29 120.98 145.37 L 119.52 145.49 C 118.60 145.57 117.92 146.38 118.00 147.29 C 118.08 148.21 118.88 148.89 119.80 148.81 Z M 121.34 148.69 L 122.39 148.55 C 123.31 148.44 123.96 147.60 123.84 146.68 C 123.72 145.76 122.88 145.11 121.96 145.23 L 120.91 145.37 C 119.99 145.49 119.34 146.33 119.46 147.25 C 119.58 148.16 120.42 148.81 121.34 148.69 Z M 122.44 148.55 L 123.46 148.39 C 124.38 148.24 125.00 147.38 124.86 146.47 C 124.71 145.55 123.85 144.93 122.93 145.07 L 121.91 145.24 C 121.00 145.38 120.38 146.24 120.52 147.16 C 120.67 148.07 121.53 148.70 122.44 148.55 Z M 123.50 148.38 L 124.52 148.20 C 125.43 148.03 126.03 147.15 125.87 146.24 C 125.70 145.33 124.83 144.73 123.91 144.89 L 122.90 145.08 C 121.99 145.25 121.38 146.12 121.55 147.03 C 121.72 147.94 122.59 148.55 123.50 148.38 Z M 124.55 148.19 L 125.54 147.99 C 126.45 147.81 127.04 146.92 126.86 146.01 C 126.67 145.10 125.79 144.51 124.88 144.70 L 123.88 144.90 C 122.97 145.08 122.39 145.97 122.57 146.88 C 122.75 147.79 123.64 148.37 124.55 148.19 Z M 125.56 147.99 L 126.51 147.78 C 127.42 147.59 128.00 146.70 127.80 145.79 C 127.61 144.88 126.71 144.30 125.81 144.50 L 124.86 144.70 C 123.95 144.90 123.37 145.79 123.56 146.70 C 123.76 147.61 124.65 148.18 125.56 147.99 Z M 126.53 147.78 L 127.47 147.57 C 128.38 147.37 128.95 146.47 128.75 145.56 C 128.54 144.65 127.64 144.08 126.73 144.29 L 125.79 144.50 C 124.88 144.70 124.31 145.60 124.52 146.51 C 124.72 147.42 125.62 147.99 126.53 147.78 Z M 127.49 147.57 L 128.56 147.32 C 129.47 147.11 130.03 146.20 129.82 145.30 C 129.61 144.39 128.71 143.83 127.80 144.04 L 126.72 144.29 C 125.82 144.50 125.25 145.40 125.46 146.31 C 125.67 147.22 126.58 147.78 127.49 147.57 Z M 128.58 147.32 L 129.56 147.08 C 130.46 146.86 131.02 145.95 130.80 145.05 C 130.58 144.14 129.67 143.58 128.76 143.80 L 127.78 144.04 C 126.88 144.26 126.32 145.17 126.54 146.07 C 126.76 146.98 127.67 147.54 128.58 147.32 Z M 129.57 147.08 L 130.49 146.85 C 131.39 146.62 131.94 145.70 131.71 144.80 C 131.49 143.90 130.57 143.35 129.67 143.58 L 128.75 143.80 C 127.85 144.03 127.30 144.95 127.52 145.85 C 127.75 146.76 128.67 147.30 129.57 147.08 Z M 130.50 146.85 L 131.39 146.62 C 132.29 146.38 132.83 145.46 132.60 144.56 C 132.36 143.66 131.44 143.11 130.54 143.35 L 129.65 143.58 C 128.75 143.81 128.21 144.73 128.44 145.64 C 128.68 146.54 129.60 147.08 130.50 146.85 Z M 131.40 146.62 L 132.34 146.36 C 133.24 146.13 133.78 145.20 133.54 144.30 C 133.30 143.40 132.37 142.86 131.47 143.10 L 130.53 143.35 C 129.63 143.59 129.09 144.51 129.33 145.42 C 129.57 146.32 130.49 146.85 131.40 146.62 Z M 132.35 146.36 L 133.30 146.11 C 134.21 145.86 134.74 144.93 134.49 144.03 C 134.25 143.13 133.32 142.59 132.42 142.84 L 131.46 143.10 C 130.56 143.34 130.03 144.27 130.27 145.18 C 130.52 146.08 131.45 146.61 132.35 146.36 Z M 133.31 146.11 L 134.28 145.84 C 135.18 145.59 135.71 144.65 135.46 143.75 C 135.21 142.85 134.28 142.32 133.38 142.57 L 132.41 142.84 C 131.51 143.09 130.98 144.02 131.23 144.92 C 131.48 145.83 132.41 146.35 133.31 146.11 Z M 134.29 145.84 L 135.27 145.56 C 136.17 145.31 136.70 144.37 136.44 143.47 C 136.19 142.57 135.25 142.04 134.35 142.29 L 133.37 142.57 C 132.47 142.82 131.94 143.76 132.19 144.66 C 132.45 145.57 133.39 146.09 134.29 145.84 Z M 135.28 145.56 L 136.23 145.29 C 137.13 145.03 137.65 144.09 137.40 143.19 C 137.14 142.29 136.20 141.77 135.30 142.02 L 134.35 142.29 C 133.44 142.55 132.92 143.49 133.18 144.39 C 133.43 145.30 134.37 145.82 135.28 145.56 Z M 136.23 145.29 L 137.19 145.02 C 138.09 144.76 138.61 143.82 138.35 142.91 C 138.09 142.01 137.15 141.49 136.25 141.75 L 135.29 142.02 C 134.39 142.28 133.87 143.22 134.13 144.13 C 134.39 145.03 135.33 145.55 136.23 145.29 Z M 137.19 145.02 L 138.16 144.74 C 139.06 144.48 139.58 143.53 139.32 142.63 C 139.06 141.73 138.11 141.20 137.21 141.47 L 136.25 141.75 C 135.34 142.01 134.82 142.95 135.08 143.86 C 135.34 144.76 136.29 145.28 137.19 145.02 Z M 138.16 144.74 L 139.13 144.46 C 140.03 144.20 140.56 143.25 140.29 142.35 C 140.03 141.44 139.08 140.92 138.18 141.18 L 137.21 141.46 C 136.30 141.73 135.78 142.67 136.05 143.58 C 136.31 144.48 137.25 145.00 138.16 144.74 Z M 139.13 144.46 L 140.09 144.18 C 141.00 143.92 141.52 142.97 141.26 142.07 C 140.99 141.16 140.05 140.64 139.14 140.90 L 138.18 141.18 C 137.27 141.44 136.75 142.39 137.01 143.30 C 137.28 144.20 138.22 144.73 139.13 144.46 Z M 140.10 144.18 L 141.05 143.90 C 141.96 143.64 142.48 142.69 142.22 141.78 C 141.95 140.88 141.00 140.36 140.10 140.62 L 139.14 140.90 C 138.23 141.17 137.71 142.11 137.98 143.02 C 138.24 143.93 139.19 144.45 140.10 144.18 Z M 141.06 143.90 L 142.02 143.62 C 142.92 143.35 143.44 142.40 143.18 141.50 C 142.91 140.59 141.96 140.07 141.05 140.34 L 140.09 140.62 C 139.19 140.89 138.67 141.84 138.93 142.75 C 139.20 143.65 140.15 144.17 141.06 143.90 Z M 142.03 143.62 L 142.98 143.33 C 143.89 143.06 144.41 142.11 144.13 141.20 C 143.86 140.30 142.91 139.78 142.00 140.05 L 141.04 140.34 C 140.14 140.61 139.62 141.57 139.89 142.47 C 140.17 143.38 141.12 143.89 142.03 143.62 Z M 142.99 143.33 L 143.94 143.04 C 144.85 142.77 145.36 141.81 145.08 140.90 C 144.80 140.00 143.84 139.49 142.94 139.76 L 141.99 140.05 C 141.09 140.33 140.58 141.29 140.85 142.19 C 141.13 143.10 142.09 143.61 142.99 143.33 Z M 143.95 143.04 L 144.88 142.75 C 145.79 142.47 146.29 141.51 146.01 140.60 C 145.73 139.70 144.77 139.19 143.86 139.47 L 142.93 139.77 C 142.02 140.05 141.52 141.01 141.80 141.91 C 142.08 142.82 143.05 143.32 143.95 143.04 Z M 144.89 142.75 L 145.83 142.45 C 146.74 142.17 147.24 141.20 146.95 140.30 C 146.67 139.39 145.70 138.89 144.80 139.18 L 143.86 139.48 C 142.95 139.76 142.45 140.72 142.74 141.63 C 143.02 142.53 143.99 143.03 144.89 142.75 Z M 145.83 142.45 L 146.80 142.15 C 147.70 141.86 148.20 140.90 147.92 139.99 C 147.63 139.09 146.66 138.59 145.76 138.87 L 144.80 139.18 C 143.89 139.46 143.39 140.43 143.68 141.33 C 143.96 142.24 144.93 142.74 145.83 142.45 Z M 146.80 142.15 L 147.78 141.84 C 148.69 141.55 149.19 140.59 148.91 139.68 C 148.62 138.78 147.66 138.27 146.75 138.56 L 145.76 138.87 C 144.86 139.16 144.35 140.12 144.64 141.03 C 144.92 141.93 145.89 142.44 146.80 142.15 Z M 147.78 141.84 L 148.72 141.55 C 149.63 141.26 150.14 140.30 149.85 139.39 C 149.57 138.48 148.61 137.98 147.70 138.26 L 146.75 138.56 C 145.85 138.84 145.34 139.80 145.62 140.71 C 145.91 141.62 146.87 142.12 147.78 141.84 Z M 148.72 141.55 L 149.68 141.25 C 150.59 140.97 151.10 140.00 150.82 139.10 C 150.54 138.19 149.57 137.68 148.66 137.96 L 147.70 138.26 C 146.79 138.54 146.29 139.51 146.57 140.41 C 146.85 141.32 147.81 141.83 148.72 141.55 Z M 149.68 141.25 L 150.65 140.95 C 151.56 140.67 152.07 139.71 151.78 138.80 C 151.50 137.89 150.54 137.38 149.63 137.66 L 148.66 137.96 C 147.75 138.24 147.25 139.21 147.53 140.12 C 147.81 141.02 148.77 141.53 149.68 141.25 Z M 150.65 140.95 L 151.61 140.66 C 152.52 140.37 153.02 139.41 152.74 138.50 C 152.46 137.59 151.49 137.08 150.59 137.36 L 149.63 137.66 C 148.72 137.94 148.21 138.91 148.49 139.82 C 148.77 140.73 149.74 141.24 150.65 140.95 Z M 151.61 140.66 L 152.57 140.36 C 153.47 140.07 153.98 139.11 153.70 138.20 C 153.41 137.29 152.45 136.78 151.54 137.07 L 150.58 137.36 C 149.67 137.65 149.17 138.62 149.45 139.52 C 149.74 140.43 150.70 140.94 151.61 140.66 Z M 152.57 140.36 L 153.55 140.05 C 154.46 139.76 154.96 138.79 154.67 137.88 C 154.38 136.98 153.42 136.47 152.51 136.76 L 151.53 137.07 C 150.62 137.35 150.12 138.32 150.41 139.23 C 150.69 140.14 151.66 140.64 152.57 140.36 Z M 153.55 140.05 L 154.50 139.75 C 155.41 139.46 155.91 138.49 155.62 137.58 C 155.34 136.67 154.37 136.17 153.46 136.46 L 152.50 136.76 C 151.59 137.05 151.09 138.02 151.38 138.93 C 151.67 139.84 152.64 140.34 153.55 140.05 Z M 154.51 139.75 L 155.45 139.45 C 156.35 139.16 156.86 138.18 156.57 137.27 C 156.28 136.37 155.30 135.86 154.40 136.15 L 153.45 136.45 C 152.55 136.74 152.04 137.72 152.33 138.63 C 152.62 139.53 153.60 140.04 154.51 139.75 Z M 155.44 139.45 L 156.38 139.15 C 157.29 138.86 157.79 137.89 157.50 136.98 C 157.21 136.07 156.24 135.57 155.33 135.86 L 154.40 136.15 C 153.49 136.44 152.98 137.42 153.27 138.32 C 153.56 139.23 154.54 139.74 155.44 139.45 Z M 156.38 139.15 L 157.33 138.85 C 158.24 138.56 158.74 137.59 158.46 136.68 C 158.17 135.77 157.20 135.26 156.29 135.55 L 155.33 135.85 C 154.42 136.14 153.92 137.11 154.21 138.02 C 154.50 138.93 155.47 139.44 156.38 139.15 Z M 157.33 138.85 L 158.29 138.55 C 159.20 138.26 159.70 137.29 159.42 136.38 C 159.13 135.47 158.16 134.96 157.25 135.25 L 156.29 135.55 C 155.38 135.84 154.87 136.81 155.16 137.72 C 155.45 138.63 156.42 139.14 157.33 138.85 Z M 158.29 138.55 L 159.24 138.25 C 160.16 137.96 160.66 136.98 160.37 136.07 C 160.08 135.16 159.11 134.66 158.20 134.94 L 157.24 135.25 C 156.33 135.54 155.83 136.51 156.12 137.42 C 156.40 138.33 157.38 138.84 158.29 138.55 Z M 159.25 138.25 L 160.20 137.94 C 161.11 137.65 161.61 136.68 161.32 135.77 C 161.03 134.86 160.06 134.35 159.15 134.64 L 158.20 134.94 C 157.29 135.24 156.78 136.21 157.07 137.12 C 157.36 138.03 158.34 138.54 159.25 138.25 Z M 160.20 137.94 L 161.17 137.63 C 162.08 137.34 162.58 136.36 162.28 135.45 C 161.99 134.54 161.01 134.04 160.10 134.33 L 159.14 134.64 C 158.23 134.94 157.73 135.91 158.02 136.82 C 158.32 137.73 159.29 138.24 160.20 137.94 Z M 161.17 137.63 L 162.14 137.31 C 163.05 137.02 163.55 136.04 163.26 135.13 C 162.96 134.22 161.98 133.72 161.07 134.02 L 160.10 134.33 C 159.19 134.63 158.69 135.61 158.98 136.52 C 159.28 137.43 160.26 137.93 161.17 137.63 Z M 162.14 137.32 L 163.10 137.01 C 164.01 136.71 164.51 135.74 164.22 134.82 C 163.92 133.91 162.94 133.41 162.03 133.71 L 161.08 134.01 C 160.16 134.31 159.66 135.29 159.96 136.20 C 160.25 137.11 161.23 137.61 162.14 137.32 Z M 163.09 137.01 L 164.02 136.72 C 164.94 136.43 165.45 135.45 165.16 134.54 C 164.87 133.63 163.89 133.12 162.98 133.41 L 162.04 133.70 C 161.13 133.99 160.62 134.96 160.91 135.88 C 161.20 136.79 162.17 137.30 163.09 137.01 Z M 164.00 136.73 L 164.95 136.44 C 165.87 136.16 166.39 135.19 166.11 134.28 C 165.84 133.36 164.87 132.84 163.95 133.11 L 163.00 133.40 C 162.08 133.68 161.56 134.64 161.84 135.56 C 162.12 136.48 163.08 137.00 164.00 136.73 Z M 164.92 136.45 L 165.93 136.16 C 166.85 135.90 167.38 134.94 167.12 134.02 C 166.86 133.09 165.90 132.56 164.98 132.82 L 163.97 133.10 C 163.05 133.37 162.52 134.33 162.78 135.25 C 163.04 136.17 164.00 136.71 164.92 136.45 Z M 165.90 136.17 L 166.87 135.91 C 167.80 135.66 168.35 134.70 168.10 133.78 C 167.85 132.85 166.89 132.30 165.96 132.55 L 165.00 132.81 C 164.07 133.06 163.52 134.02 163.77 134.95 C 164.02 135.87 164.98 136.42 165.90 136.17 Z M 166.86 135.91 L 167.79 135.67 C 168.72 135.43 169.28 134.47 169.03 133.54 C 168.79 132.61 167.84 132.06 166.91 132.30 L 165.98 132.55 C 165.05 132.79 164.49 133.74 164.73 134.67 C 164.98 135.60 165.93 136.16 166.86 135.91 Z M 167.79 135.67 L 168.70 135.44 C 169.63 135.19 170.19 134.24 169.94 133.31 C 169.70 132.38 168.75 131.82 167.82 132.06 L 166.91 132.30 C 165.98 132.54 165.42 133.49 165.66 134.42 C 165.91 135.36 166.86 135.91 167.79 135.67 Z M 168.68 135.44 L 169.60 135.21 C 170.53 134.98 171.10 134.03 170.86 133.10 C 170.63 132.16 169.68 131.60 168.75 131.83 L 167.83 132.06 C 166.90 132.29 166.33 133.24 166.57 134.18 C 166.80 135.11 167.75 135.68 168.68 135.44 Z M 169.56 135.22 L 170.53 135.00 C 171.47 134.78 172.06 133.84 171.84 132.90 C 171.62 131.97 170.68 131.38 169.75 131.60 L 168.78 131.82 C 167.84 132.04 167.25 132.97 167.47 133.91 C 167.69 134.85 168.62 135.44 169.56 135.22 Z M 170.49 135.01 L 171.57 134.79 C 172.51 134.59 173.12 133.67 172.93 132.73 C 172.74 131.78 171.82 131.17 170.87 131.37 L 169.79 131.59 C 168.84 131.78 168.23 132.70 168.43 133.65 C 168.62 134.59 169.54 135.20 170.49 135.01 Z M 171.51 134.81 L 172.63 134.62 C 173.58 134.46 174.22 133.55 174.06 132.59 C 173.90 131.64 172.99 130.99 172.04 131.16 L 170.93 131.35 C 169.97 131.51 169.33 132.42 169.49 133.37 C 169.65 134.33 170.56 134.97 171.51 134.81 Z M 172.51 134.65 L 173.62 134.54 C 174.59 134.44 175.30 133.57 175.20 132.60 C 175.11 131.63 174.24 130.92 173.26 131.01 L 172.15 131.12 C 171.18 131.22 170.47 132.09 170.57 133.06 C 170.67 134.04 171.53 134.75 172.51 134.65 Z M 173.36 134.56 L 174.32 134.61 C 175.31 134.65 176.14 133.89 176.19 132.90 C 176.23 131.91 175.47 131.08 174.48 131.03 L 173.52 130.99 C 172.53 130.95 171.70 131.71 171.65 132.70 C 171.61 133.68 172.37 134.52 173.36 134.56 Z M 173.70 134.48 L 174.37 134.76 C 175.29 135.15 176.35 134.72 176.74 133.80 C 177.12 132.88 176.69 131.82 175.77 131.44 L 175.10 131.16 C 174.18 130.77 173.12 131.20 172.74 132.12 C 172.35 133.04 172.78 134.10 173.70 134.48 Z M 173.39 133.79 L 173.67 134.47 C 174.05 135.40 175.11 135.84 176.04 135.46 C 176.97 135.07 177.41 134.01 177.03 133.09 L 176.75 132.41 C 176.37 131.48 175.31 131.04 174.38 131.42 C 173.45 131.80 173.01 132.86 173.39 133.79 Z M 173.55 133.51 L 173.40 134.47 C 173.26 135.46 173.94 136.39 174.94 136.54 C 175.94 136.68 176.86 136.00 177.01 135.00 L 177.15 134.04 C 177.30 133.05 176.61 132.12 175.62 131.97 C 174.62 131.83 173.69 132.51 173.55 133.51 Z M 173.49 134.11 L 173.08 135.22 C 172.74 136.18 173.23 137.22 174.18 137.57 C 175.13 137.91 176.18 137.42 176.53 136.47 L 176.93 135.36 C 177.27 134.40 176.78 133.36 175.83 133.01 C 174.88 132.67 173.83 133.16 173.49 134.11 Z M 173.13 135.11 L 172.72 136.04 C 172.31 136.97 172.73 138.05 173.66 138.45 C 174.59 138.86 175.67 138.44 176.08 137.51 L 176.49 136.58 C 176.89 135.65 176.47 134.57 175.54 134.17 C 174.61 133.76 173.53 134.18 173.13 135.11 Z M 172.74 136.00 L 172.33 136.87 C 171.90 137.78 172.30 138.88 173.22 139.31 C 174.13 139.74 175.23 139.34 175.66 138.42 L 176.06 137.55 C 176.49 136.63 176.09 135.54 175.18 135.11 C 174.26 134.68 173.16 135.08 172.74 136.00 Z M 172.34 136.85 L 171.91 137.74 C 171.47 138.66 171.86 139.76 172.77 140.19 C 173.69 140.63 174.78 140.25 175.22 139.33 L 175.65 138.44 C 176.09 137.52 175.70 136.43 174.79 135.99 C 173.87 135.55 172.78 135.94 172.34 136.85 Z M 171.91 137.75 L 171.46 138.68 C 171.03 139.60 171.41 140.70 172.33 141.13 C 173.25 141.57 174.34 141.18 174.78 140.26 L 175.22 139.33 C 175.66 138.41 175.27 137.32 174.35 136.88 C 173.44 136.44 172.34 136.83 171.91 137.75 Z M 171.45 138.70 L 171.02 139.65 C 170.59 140.57 171.00 141.66 171.92 142.08 C 172.84 142.51 173.93 142.10 174.35 141.18 L 174.79 140.24 C 175.21 139.32 174.81 138.23 173.89 137.81 C 172.97 137.38 171.88 137.78 171.45 138.70 Z M 171.01 139.67 L 170.62 140.54 C 170.21 141.46 170.63 142.55 171.56 142.96 C 172.49 143.37 173.57 142.95 173.98 142.02 L 174.37 141.16 C 174.78 140.23 174.36 139.15 173.43 138.74 C 172.50 138.32 171.42 138.74 171.01 139.67 Z M 170.62 140.56 L 170.23 141.46 C 169.83 142.39 170.26 143.47 171.19 143.87 C 172.13 144.27 173.21 143.84 173.61 142.90 L 173.99 142.00 C 174.39 141.07 173.96 139.99 173.03 139.59 C 172.09 139.19 171.01 139.62 170.62 140.56 Z M 170.22 141.47 L 169.83 142.41 C 169.44 143.34 169.89 144.42 170.82 144.81 C 171.76 145.20 172.83 144.76 173.22 143.82 L 173.61 142.89 C 174.00 141.95 173.56 140.88 172.62 140.49 C 171.69 140.10 170.61 140.54 170.22 141.47 Z M 169.83 142.42 L 169.44 143.37 C 169.06 144.31 169.51 145.38 170.44 145.77 C 171.38 146.15 172.45 145.70 172.84 144.76 L 173.23 143.81 C 173.61 142.87 173.16 141.80 172.22 141.41 C 171.28 141.03 170.21 141.48 169.83 142.42 Z M 169.44 143.38 L 169.04 144.35 C 168.67 145.29 169.12 146.36 170.06 146.74 C 171.00 147.12 172.07 146.67 172.45 145.73 L 172.84 144.75 C 173.22 143.81 172.76 142.74 171.82 142.37 C 170.88 141.99 169.81 142.44 169.44 143.38 Z M 169.04 144.36 L 168.68 145.28 C 168.30 146.22 168.76 147.29 169.70 147.67 C 170.64 148.04 171.71 147.58 172.08 146.64 L 172.45 145.72 C 172.82 144.78 172.37 143.71 171.43 143.34 C 170.48 142.96 169.42 143.42 169.04 144.36 Z M 168.68 145.29 L 168.31 146.21 C 167.94 147.15 168.40 148.22 169.34 148.59 C 170.29 148.96 171.35 148.50 171.72 147.56 L 172.08 146.63 C 172.45 145.69 171.99 144.63 171.05 144.26 C 170.11 143.89 169.05 144.35 168.68 145.29 Z M 168.31 146.22 L 167.95 147.15 C 167.59 148.09 168.05 149.15 168.99 149.52 C 169.94 149.88 170.99 149.42 171.36 148.48 L 171.72 147.55 C 172.08 146.60 171.62 145.55 170.68 145.18 C 169.74 144.82 168.68 145.28 168.31 146.22 Z M 167.95 147.17 L 167.59 148.10 C 167.23 149.05 167.71 150.10 168.65 150.46 C 169.59 150.82 170.65 150.34 171.00 149.40 L 171.36 148.46 C 171.72 147.52 171.25 146.47 170.30 146.11 C 169.36 145.75 168.31 146.22 167.95 147.17 Z M 167.59 148.12 L 167.24 149.06 C 166.89 150.01 167.37 151.06 168.31 151.41 C 169.26 151.76 170.30 151.28 170.65 150.33 L 171.01 149.39 C 171.36 148.44 170.88 147.40 169.93 147.04 C 168.99 146.69 167.94 147.17 167.59 148.12 Z M 167.24 149.08 L 166.89 150.03 C 166.55 150.97 167.04 152.02 167.98 152.36 C 168.93 152.70 169.97 152.21 170.31 151.27 L 170.66 150.32 C 171.00 149.37 170.51 148.33 169.57 147.99 C 168.62 147.65 167.58 148.13 167.24 149.08 Z M 166.89 150.04 L 166.58 150.93 C 166.25 151.88 166.74 152.92 167.69 153.25 C 168.64 153.58 169.67 153.08 170.00 152.14 L 170.32 151.25 C 170.65 150.30 170.15 149.27 169.21 148.93 C 168.26 148.60 167.22 149.10 166.89 150.04 Z M 166.58 150.95 L 166.27 151.85 C 165.95 152.80 166.45 153.83 167.40 154.15 C 168.34 154.47 169.37 153.97 169.70 153.02 L 170.00 152.12 C 170.33 151.17 169.82 150.14 168.88 149.82 C 167.93 149.50 166.90 150.00 166.58 150.95 Z M 166.27 151.87 L 165.96 152.79 C 165.65 153.74 166.16 154.76 167.11 155.07 C 168.05 155.39 169.07 154.88 169.39 153.93 L 169.70 153.01 C 170.01 152.06 169.50 151.04 168.55 150.72 C 167.61 150.41 166.58 150.92 166.27 151.87 Z M 165.96 152.81 L 165.65 153.76 C 165.35 154.70 165.87 155.72 166.81 156.03 C 167.76 156.33 168.77 155.81 169.08 154.87 L 169.39 153.92 C 169.70 152.97 169.18 151.96 168.23 151.65 C 167.29 151.34 166.27 151.86 165.96 152.81 Z M 165.66 153.77 L 165.34 154.76 C 165.04 155.70 165.57 156.71 166.51 157.01 C 167.46 157.31 168.47 156.79 168.77 155.84 L 169.08 154.86 C 169.38 153.91 168.86 152.90 167.91 152.60 C 166.96 152.30 165.96 152.82 165.66 153.77 Z M 165.34 154.77 L 165.02 155.80 C 164.73 156.74 165.26 157.74 166.20 158.04 C 167.15 158.33 168.15 157.80 168.45 156.86 L 168.77 155.83 C 169.06 154.89 168.53 153.88 167.59 153.59 C 166.64 153.29 165.64 153.82 165.34 154.77 Z M 165.03 155.81 L 164.72 156.80 C 164.44 157.74 164.97 158.74 165.91 159.03 C 166.85 159.32 167.85 158.78 168.14 157.84 L 168.44 156.85 C 168.73 155.91 168.20 154.91 167.26 154.62 C 166.31 154.33 165.32 154.86 165.03 155.81 Z M 164.73 156.81 L 164.43 157.80 C 164.14 158.74 164.68 159.74 165.62 160.02 C 166.56 160.30 167.55 159.77 167.83 158.83 L 168.13 157.83 C 168.42 156.89 167.89 155.90 166.95 155.62 C 166.00 155.33 165.01 155.87 164.73 156.81 Z M 164.43 157.81 L 164.13 158.82 C 163.85 159.75 164.39 160.74 165.33 161.02 C 166.26 161.30 167.25 160.77 167.53 159.83 L 167.83 158.82 C 168.11 157.88 167.57 156.90 166.64 156.62 C 165.70 156.34 164.71 156.87 164.43 157.81 Z M 164.14 158.82 L 163.84 159.82 C 163.57 160.76 164.10 161.74 165.04 162.01 C 165.97 162.29 166.96 161.75 167.23 160.82 L 167.52 159.82 C 167.80 158.89 167.26 157.90 166.33 157.63 C 165.39 157.35 164.41 157.89 164.14 158.82 Z M 163.85 159.83 L 163.57 160.80 C 163.30 161.73 163.83 162.71 164.76 162.98 C 165.70 163.25 166.67 162.71 166.94 161.78 L 167.23 160.81 C 167.50 159.88 166.96 158.90 166.03 158.63 C 165.10 158.36 164.12 158.90 163.85 159.83 Z M 163.57 160.81 L 163.31 161.74 C 163.04 162.67 163.58 163.64 164.51 163.90 C 165.44 164.17 166.40 163.63 166.67 162.70 L 166.94 161.78 C 167.20 160.85 166.67 159.88 165.74 159.61 C 164.81 159.34 163.84 159.88 163.57 160.81 Z M 163.31 161.75 L 163.07 162.62 C 162.80 163.54 163.34 164.51 164.27 164.77 C 165.20 165.03 166.16 164.49 166.42 163.56 L 166.67 162.70 C 166.93 161.77 166.39 160.81 165.46 160.54 C 164.54 160.28 163.57 160.82 163.31 161.75 Z M 163.08 162.63 L 162.78 163.72 C 162.52 164.64 163.06 165.60 163.98 165.85 C 164.90 166.10 165.85 165.57 166.11 164.65 L 166.41 163.55 C 166.66 162.63 166.12 161.68 165.20 161.42 C 164.28 161.17 163.33 161.71 163.08 162.63 Z M 162.80 163.74 L 162.52 164.77 C 162.27 165.67 162.81 166.61 163.72 166.85 C 164.63 167.10 165.56 166.56 165.81 165.65 L 166.08 164.63 C 166.33 163.72 165.79 162.79 164.88 162.54 C 163.98 162.30 163.04 162.83 162.80 163.74 Z M 162.54 164.78 L 162.30 165.71 C 162.06 166.60 162.59 167.52 163.49 167.76 C 164.38 167.99 165.30 167.46 165.54 166.57 L 165.78 165.64 C 166.02 164.75 165.49 163.83 164.59 163.59 C 163.70 163.35 162.78 163.89 162.54 164.78 Z M 162.32 165.71 L 162.09 166.58 C 161.86 167.46 162.38 168.36 163.26 168.60 C 164.13 168.84 165.04 168.31 165.27 167.44 L 165.51 166.56 C 165.74 165.68 165.22 164.78 164.34 164.54 C 163.46 164.31 162.56 164.83 162.32 165.71 Z M 162.12 166.58 L 161.88 167.46 C 161.64 168.32 162.15 169.21 163.01 169.45 C 163.87 169.69 164.77 169.18 165.00 168.32 L 165.25 167.44 C 165.48 166.58 164.98 165.68 164.11 165.45 C 163.25 165.21 162.36 165.71 162.12 166.58 Z M 161.91 167.44 L 161.62 168.41 C 161.37 169.26 161.86 170.14 162.70 170.39 C 163.55 170.64 164.44 170.16 164.69 169.31 L 164.97 168.34 C 165.22 167.49 164.74 166.60 163.89 166.36 C 163.04 166.11 162.16 166.59 161.91 167.44 Z M 161.66 168.36 L 161.34 169.33 C 161.06 170.15 161.50 171.05 162.33 171.32 C 163.15 171.60 164.05 171.15 164.32 170.33 L 164.65 169.36 C 164.92 168.54 164.48 167.64 163.66 167.37 C 162.83 167.09 161.94 167.54 161.66 168.36 Z M 161.39 169.24 L 161.01 170.17 C 160.69 170.97 161.07 171.87 161.87 172.20 C 162.66 172.52 163.57 172.14 163.89 171.34 L 164.27 170.41 C 164.59 169.62 164.21 168.71 163.41 168.39 C 162.62 168.07 161.71 168.45 161.39 169.24 Z M 161.10 170.05 L 160.65 170.90 C 160.26 171.65 160.55 172.58 161.30 172.97 C 162.05 173.36 162.97 173.07 163.36 172.32 L 163.81 171.46 C 164.20 170.72 163.91 169.79 163.16 169.40 C 162.41 169.01 161.49 169.30 161.10 170.05 Z M 160.77 170.74 L 160.18 171.58 C 159.70 172.26 159.87 173.20 160.55 173.68 C 161.23 174.16 162.17 174.00 162.65 173.32 L 163.24 172.48 C 163.72 171.80 163.56 170.86 162.88 170.38 C 162.19 169.90 161.25 170.06 160.77 170.74 Z M 160.32 171.45 L 159.65 172.19 C 159.09 172.80 159.14 173.74 159.75 174.29 C 160.35 174.84 161.29 174.80 161.85 174.19 L 162.52 173.45 C 163.07 172.84 163.02 171.90 162.42 171.35 C 161.81 170.80 160.87 170.84 160.32 171.45 Z M 159.75 172.12 L 159.03 172.79 C 158.44 173.34 158.40 174.26 158.95 174.86 C 159.51 175.45 160.43 175.48 161.02 174.93 L 161.74 174.26 C 162.33 173.71 162.37 172.78 161.82 172.19 C 161.27 171.60 160.34 171.57 159.75 172.12 Z M 159.08 172.77 L 158.51 173.26 C 157.91 173.78 157.84 174.70 158.36 175.30 C 158.88 175.90 159.80 175.97 160.40 175.45 L 160.97 174.95 C 161.57 174.43 161.64 173.52 161.12 172.91 C 160.60 172.31 159.68 172.24 159.08 172.77 Z"
      fill="black"
      fill-rule="nonzero" /><path d="M 140.84 120.13 L 140.61 121.06 C 140.40 121.92 140.92 122.78 141.78 122.99 C 142.63 123.20 143.50 122.68 143.71 121.82 L 143.94 120.89 C 144.14 120.04 143.62 119.17 142.77 118.96 C 141.91 118.75 141.05 119.28 140.84 120.13 Z M 140.58 121.10 L 140.37 122.05 C 140.18 122.92 140.73 123.78 141.61 123.97 C 142.48 124.16 143.34 123.61 143.53 122.74 L 143.74 121.79 C 143.93 120.91 143.38 120.05 142.50 119.86 C 141.63 119.67 140.77 120.23 140.58 121.10 Z M 140.34 122.12 L 140.17 123.12 C 140.02 124.01 140.62 124.85 141.52 125.00 C 142.41 125.15 143.25 124.55 143.40 123.66 L 143.57 122.66 C 143.72 121.77 143.11 120.93 142.22 120.78 C 141.33 120.63 140.48 121.23 140.34 122.12 Z M 140.13 123.22 L 140.03 124.28 C 139.94 125.19 140.61 126.00 141.52 126.09 C 142.43 126.18 143.25 125.52 143.34 124.60 L 143.44 123.55 C 143.53 122.64 142.86 121.82 141.95 121.73 C 141.04 121.64 140.22 122.31 140.13 123.22 Z M 140.01 124.39 L 139.98 125.38 C 139.95 126.31 140.68 127.08 141.61 127.10 C 142.53 127.13 143.30 126.40 143.33 125.48 L 143.35 124.49 C 143.38 123.56 142.65 122.79 141.73 122.77 C 140.81 122.74 140.04 123.47 140.01 124.39 Z M 139.98 125.47 L 140.00 126.49 C 140.02 127.41 140.79 128.15 141.71 128.13 C 142.64 128.11 143.37 127.34 143.35 126.42 L 143.33 125.40 C 143.31 124.47 142.54 123.74 141.62 123.76 C 140.69 123.78 139.96 124.54 139.98 125.47 Z M 140.00 126.55 L 140.06 127.57 C 140.11 128.49 140.90 129.20 141.83 129.15 C 142.75 129.10 143.46 128.30 143.41 127.38 L 143.35 126.36 C 143.30 125.44 142.50 124.73 141.58 124.78 C 140.66 124.83 139.95 125.63 140.00 126.55 Z M 140.06 127.61 L 140.14 128.60 C 140.22 129.52 141.02 130.21 141.95 130.13 C 142.87 130.06 143.56 129.25 143.48 128.33 L 143.40 127.34 C 143.33 126.42 142.52 125.73 141.60 125.80 C 140.68 125.88 139.99 126.69 140.06 127.61 Z M 140.14 128.62 L 140.24 129.63 C 140.33 130.56 141.15 131.23 142.07 131.14 C 142.99 131.06 143.67 130.24 143.58 129.32 L 143.48 128.30 C 143.39 127.38 142.58 126.71 141.65 126.79 C 140.73 126.88 140.06 127.70 140.14 128.62 Z M 140.24 129.65 L 140.35 130.67 C 140.45 131.59 141.27 132.26 142.19 132.16 C 143.11 132.07 143.78 131.24 143.68 130.32 L 143.58 129.30 C 143.48 128.38 142.65 127.71 141.73 127.81 C 140.81 127.91 140.14 128.73 140.24 129.65 Z M 140.35 130.69 L 140.46 131.65 C 140.57 132.57 141.40 133.23 142.32 133.12 C 143.24 133.02 143.90 132.19 143.79 131.27 L 143.68 130.30 C 143.57 129.38 142.74 128.73 141.82 128.83 C 140.91 128.94 140.25 129.77 140.35 130.69 Z M 140.47 131.67 L 140.58 132.62 C 140.70 133.54 141.53 134.19 142.45 134.08 C 143.37 133.96 144.02 133.13 143.91 132.21 L 143.79 131.26 C 143.68 130.34 142.84 129.69 141.92 129.80 C 141.01 129.91 140.35 130.75 140.47 131.67 Z M 140.59 132.63 L 140.71 133.58 C 140.83 134.50 141.66 135.15 142.58 135.03 C 143.50 134.91 144.14 134.08 144.03 133.16 L 143.91 132.20 C 143.79 131.29 142.95 130.64 142.03 130.76 C 141.12 130.87 140.47 131.71 140.59 132.63 Z M 140.71 133.58 L 140.84 134.56 C 140.95 135.48 141.79 136.13 142.70 136.01 C 143.62 135.89 144.27 135.06 144.15 134.14 L 144.03 133.16 C 143.91 132.25 143.07 131.60 142.16 131.71 C 141.24 131.83 140.59 132.67 140.71 133.58 Z M 140.84 134.55 L 140.96 135.56 C 141.07 136.47 141.90 137.13 142.81 137.02 C 143.73 136.91 144.38 136.07 144.27 135.16 L 144.15 134.15 C 144.04 133.24 143.21 132.59 142.29 132.70 C 141.38 132.81 140.73 133.64 140.84 134.55 Z M 140.96 135.54 L 141.07 136.56 C 141.17 137.47 141.99 138.14 142.91 138.03 C 143.82 137.93 144.48 137.11 144.38 136.20 L 144.27 135.18 C 144.17 134.26 143.35 133.60 142.43 133.70 C 141.52 133.80 140.86 134.63 140.96 135.54 Z M 141.07 136.53 L 141.16 137.53 C 141.25 138.44 142.06 139.11 142.98 139.03 C 143.89 138.94 144.56 138.13 144.48 137.21 L 144.38 136.22 C 144.30 135.31 143.48 134.63 142.57 134.72 C 141.65 134.81 140.98 135.62 141.07 136.53 Z M 141.16 137.50 L 141.24 138.49 C 141.32 139.41 142.12 140.09 143.03 140.01 C 143.95 139.94 144.63 139.14 144.56 138.22 L 144.48 137.23 C 144.40 136.32 143.60 135.64 142.69 135.71 C 141.77 135.79 141.09 136.59 141.16 137.50 Z M 141.25 138.48 L 141.32 139.47 C 141.38 140.39 142.18 141.08 143.09 141.01 C 144.00 140.94 144.69 140.15 144.63 139.24 L 144.55 138.24 C 144.49 137.33 143.69 136.64 142.78 136.70 C 141.87 136.77 141.18 137.56 141.25 138.48 Z M 141.32 139.47 L 141.39 140.47 C 141.45 141.39 142.24 142.08 143.15 142.02 C 144.06 141.96 144.75 141.17 144.69 140.26 L 144.62 139.25 C 144.56 138.33 143.77 137.64 142.86 137.70 C 141.95 137.77 141.26 138.55 141.32 139.47 Z M 141.39 140.47 L 141.45 141.46 C 141.51 142.37 142.30 143.06 143.21 143.00 C 144.12 142.94 144.81 142.15 144.75 141.24 L 144.69 140.26 C 144.63 139.35 143.84 138.66 142.93 138.72 C 142.02 138.78 141.33 139.56 141.39 140.47 Z M 141.46 141.45 L 141.52 142.44 C 141.57 143.35 142.36 144.04 143.26 143.98 C 144.17 143.93 144.86 143.15 144.81 142.24 L 144.75 141.25 C 144.69 140.34 143.91 139.65 143.00 139.71 C 142.09 139.76 141.40 140.54 141.46 141.45 Z M 141.52 142.43 L 141.58 143.44 C 141.63 144.34 142.41 145.04 143.31 144.98 C 144.22 144.93 144.91 144.15 144.86 143.25 L 144.80 142.25 C 144.75 141.34 143.97 140.65 143.07 140.70 C 142.16 140.75 141.47 141.53 141.52 142.43 Z M 141.58 143.43 L 141.64 144.44 C 141.68 145.34 142.45 146.04 143.36 145.99 C 144.26 145.94 144.96 145.17 144.91 144.27 L 144.86 143.26 C 144.81 142.35 144.04 141.66 143.13 141.71 C 142.23 141.75 141.54 142.52 141.58 143.43 Z M 141.64 144.43 L 141.69 145.43 C 141.73 146.33 142.49 147.03 143.39 146.99 C 144.29 146.95 144.99 146.19 144.95 145.28 L 144.91 144.28 C 144.87 143.38 144.10 142.68 143.20 142.72 C 142.30 142.76 141.60 143.53 141.64 144.43 Z M 141.69 145.42 L 141.73 146.42 C 141.76 147.32 142.52 148.02 143.42 147.99 C 144.32 147.95 145.02 147.19 144.99 146.30 L 144.95 145.30 C 144.91 144.40 144.15 143.70 143.26 143.73 C 142.36 143.77 141.66 144.52 141.69 145.42 Z M 141.73 146.41 L 141.77 147.42 C 141.80 148.31 142.55 149.01 143.45 148.98 C 144.34 148.95 145.05 148.20 145.02 147.30 L 144.98 146.30 C 144.95 145.41 144.20 144.70 143.30 144.74 C 142.41 144.77 141.70 145.52 141.73 146.41 Z M 141.78 147.41 L 141.81 148.41 C 141.84 149.31 142.58 150.01 143.48 149.98 C 144.37 149.95 145.07 149.20 145.04 148.31 L 145.01 147.31 C 144.98 146.42 144.23 145.71 143.34 145.74 C 142.45 145.77 141.75 146.52 141.78 147.41 Z M 141.81 148.41 L 141.84 149.41 C 141.87 150.30 142.61 151.00 143.50 150.97 C 144.39 150.95 145.09 150.20 145.07 149.31 L 145.04 148.31 C 145.01 147.42 144.26 146.72 143.37 146.75 C 142.48 146.78 141.79 147.52 141.81 148.41 Z M 141.85 149.41 L 141.88 150.42 C 141.91 151.31 142.65 152.00 143.53 151.98 C 144.42 151.95 145.12 151.21 145.09 150.32 L 145.06 149.31 C 145.03 148.43 144.29 147.73 143.41 147.76 C 142.52 147.78 141.82 148.52 141.85 149.41 Z M 141.89 150.42 L 141.92 151.42 C 141.94 152.30 142.68 153.00 143.56 152.97 C 144.44 152.95 145.14 152.21 145.11 151.33 L 145.08 150.33 C 145.06 149.44 144.32 148.75 143.44 148.77 C 142.56 148.80 141.86 149.53 141.89 150.42 Z M 141.92 151.41 L 141.95 152.41 C 141.97 153.29 142.70 153.98 143.58 153.96 C 144.46 153.94 145.15 153.21 145.13 152.33 L 145.11 151.33 C 145.08 150.46 144.35 149.76 143.48 149.78 C 142.60 149.80 141.90 150.53 141.92 151.41 Z M 141.95 152.40 L 141.97 153.39 C 141.99 154.26 142.71 154.96 143.59 154.94 C 144.46 154.92 145.16 154.20 145.14 153.33 L 145.12 152.34 C 145.11 151.46 144.38 150.77 143.51 150.78 C 142.63 150.80 141.94 151.52 141.95 152.40 Z M 141.98 153.38 L 141.99 154.37 C 142.00 155.24 142.72 155.94 143.59 155.93 C 144.46 155.92 145.16 155.21 145.15 154.33 L 145.13 153.34 C 145.12 152.47 144.41 151.77 143.54 151.78 C 142.67 151.79 141.97 152.50 141.98 153.38 Z M 142.00 154.36 L 142.01 155.36 C 142.01 156.22 142.72 156.92 143.59 156.92 C 144.45 156.91 145.15 156.20 145.14 155.34 L 145.14 154.34 C 145.13 153.48 144.42 152.78 143.56 152.79 C 142.69 152.79 142.00 153.50 142.00 154.36 Z M 142.02 155.35 L 142.02 156.35 C 142.02 157.21 142.72 157.91 143.58 157.91 C 144.44 157.90 145.14 157.20 145.14 156.34 L 145.13 155.34 C 145.13 154.48 144.43 153.79 143.57 153.79 C 142.71 153.79 142.01 154.49 142.02 155.35 Z M 142.03 156.35 L 142.03 157.36 C 142.03 158.21 142.72 158.90 143.58 158.90 C 144.43 158.90 145.13 158.21 145.13 157.35 L 145.13 156.35 C 145.13 155.49 144.43 154.80 143.58 154.80 C 142.72 154.80 142.03 155.49 142.03 156.35 Z M 142.04 157.36 L 142.04 158.39 C 142.04 159.24 142.73 159.93 143.58 159.93 C 144.43 159.93 145.12 159.24 145.12 158.39 L 145.12 157.36 C 145.12 156.50 144.43 155.81 143.58 155.81 C 142.73 155.81 142.04 156.50 142.04 157.36 Z M 142.05 158.39 L 142.05 159.42 C 142.05 160.27 142.73 160.95 143.58 160.95 C 144.42 160.95 145.11 160.27 145.11 159.42 L 145.11 158.39 C 145.11 157.54 144.42 156.86 143.58 156.86 C 142.73 156.86 142.05 157.54 142.05 158.39 Z M 142.06 159.42 L 142.06 160.42 C 142.06 161.26 142.74 161.94 143.58 161.94 C 144.42 161.94 145.10 161.26 145.10 160.42 L 145.10 159.42 C 145.10 158.58 144.42 157.90 143.58 157.90 C 142.74 157.90 142.06 158.58 142.06 159.42 Z M 142.07 160.42 L 142.07 161.38 C 142.07 162.21 142.74 162.89 143.58 162.89 C 144.41 162.89 145.09 162.21 145.09 161.38 L 145.09 160.42 C 145.09 159.59 144.41 158.91 143.58 158.91 C 142.74 158.91 142.07 159.59 142.07 160.42 Z M 142.08 161.37 L 142.08 162.35 C 142.08 163.18 142.75 163.85 143.58 163.85 C 144.41 163.85 145.08 163.18 145.08 162.35 L 145.08 161.38 C 145.08 160.55 144.41 159.87 143.58 159.87 C 142.75 159.87 142.08 160.54 142.08 161.37 Z M 142.08 162.35 L 142.08 163.30 C 142.08 164.13 142.75 164.80 143.57 164.80 C 144.40 164.80 145.07 164.14 145.07 163.31 L 145.07 162.35 C 145.07 161.53 144.41 160.86 143.58 160.86 C 142.76 160.86 142.09 161.52 142.08 162.35 Z M 142.09 163.30 L 142.08 164.28 C 142.08 165.10 142.74 165.77 143.56 165.78 C 144.38 165.78 145.05 165.12 145.05 164.31 L 145.06 163.32 C 145.06 162.50 144.41 161.83 143.59 161.82 C 142.77 161.82 142.10 162.48 142.09 163.30 Z M 142.09 164.27 L 142.08 165.32 C 142.07 166.13 142.72 166.80 143.53 166.81 C 144.35 166.83 145.02 166.18 145.03 165.36 L 145.04 164.31 C 145.05 163.50 144.40 162.83 143.59 162.82 C 142.77 162.81 142.11 163.46 142.09 164.27 Z M 142.09 165.31 L 142.07 166.27 C 142.05 167.08 142.69 167.75 143.50 167.77 C 144.31 167.78 144.98 167.14 145.00 166.33 L 145.02 165.37 C 145.04 164.56 144.40 163.89 143.59 163.87 C 142.78 163.86 142.11 164.50 142.09 165.31 Z M 142.07 166.24 L 142.03 167.26 C 142.00 168.06 142.63 168.74 143.44 168.77 C 144.24 168.80 144.92 168.18 144.95 167.37 L 144.99 166.36 C 145.02 165.55 144.39 164.87 143.59 164.84 C 142.78 164.81 142.10 165.44 142.07 166.24 Z M 142.04 167.22 L 141.97 168.25 C 141.92 169.05 142.53 169.74 143.33 169.80 C 144.13 169.85 144.82 169.24 144.88 168.44 L 144.94 167.41 C 145.00 166.61 144.39 165.91 143.59 165.86 C 142.79 165.81 142.09 166.42 142.04 167.22 Z M 141.99 168.20 L 141.88 169.20 C 141.80 170.00 142.38 170.71 143.17 170.79 C 143.97 170.88 144.68 170.30 144.76 169.50 L 144.87 168.49 C 144.95 167.70 144.37 166.99 143.57 166.90 C 142.78 166.82 142.07 167.40 141.99 168.20 Z M 141.90 169.12 L 141.73 170.16 C 141.60 170.94 142.14 171.68 142.92 171.81 C 143.71 171.94 144.45 171.40 144.58 170.62 L 144.75 169.58 C 144.87 168.80 144.34 168.06 143.55 167.93 C 142.76 167.80 142.02 168.34 141.90 169.12 Z M 141.75 170.06 L 141.52 171.07 C 141.34 171.84 141.83 172.61 142.60 172.79 C 143.38 172.97 144.15 172.48 144.33 171.71 L 144.56 170.71 C 144.73 169.93 144.25 169.16 143.48 168.98 C 142.70 168.81 141.93 169.29 141.75 170.06 Z M 141.55 170.99 L 141.28 171.94 C 141.06 172.70 141.50 173.49 142.26 173.71 C 143.02 173.93 143.81 173.49 144.03 172.73 L 144.30 171.78 C 144.52 171.02 144.08 170.23 143.32 170.01 C 142.56 169.79 141.76 170.23 141.55 170.99 Z M 141.29 171.89 L 141.00 172.80 C 140.76 173.55 141.17 174.36 141.92 174.60 C 142.67 174.84 143.48 174.43 143.72 173.68 L 144.01 172.77 C 144.26 172.02 143.84 171.21 143.09 170.97 C 142.34 170.73 141.54 171.14 141.29 171.89 Z M 141.01 172.79 L 140.90 173.11 C 140.65 173.86 141.06 174.66 141.80 174.91 C 142.55 175.16 143.36 174.76 143.61 174.01 L 143.71 173.69 C 143.96 172.94 143.56 172.14 142.81 171.89 C 142.06 171.64 141.26 172.04 141.01 172.79 Z"
      fill="black"
      fill-rule="nonzero" /><path d="M 89.64 183.38 L 88.60 183.35 C 87.74 183.33 87.03 184.01 87.00 184.87 C 86.98 185.73 87.66 186.45 88.52 186.47 L 89.56 186.49 C 90.42 186.52 91.14 185.84 91.16 184.98 C 91.18 184.12 90.50 183.40 89.64 183.38 Z M 88.60 183.36 L 87.57 183.33 C 86.71 183.31 85.99 183.99 85.97 184.85 C 85.95 185.71 86.63 186.42 87.49 186.44 L 88.52 186.47 C 89.38 186.49 90.10 185.81 90.12 184.95 C 90.14 184.09 89.46 183.38 88.60 183.36 Z M 87.57 183.33 L 86.55 183.31 C 85.69 183.29 84.98 183.97 84.96 184.83 C 84.94 185.69 85.62 186.40 86.48 186.42 L 87.49 186.44 C 88.35 186.46 89.07 185.78 89.09 184.92 C 89.11 184.06 88.42 183.35 87.57 183.33 Z M 86.55 183.31 L 85.57 183.29 C 84.71 183.27 84.00 183.95 83.98 184.81 C 83.96 185.67 84.65 186.38 85.51 186.40 L 86.49 186.42 C 87.35 186.44 88.06 185.75 88.08 184.90 C 88.09 184.04 87.41 183.32 86.55 183.31 Z M 85.56 183.29 L 84.62 183.27 C 83.76 183.26 83.06 183.94 83.04 184.80 C 83.03 185.66 83.71 186.37 84.57 186.38 L 85.51 186.40 C 86.37 186.41 87.08 185.73 87.09 184.87 C 87.11 184.01 86.42 183.30 85.56 183.29 Z M 84.61 183.25 L 83.17 183.24 C 82.30 183.23 81.59 183.93 81.58 184.80 C 81.57 185.67 82.27 186.39 83.14 186.39 L 84.59 186.40 C 85.46 186.41 86.17 185.71 86.17 184.84 C 86.18 183.97 85.48 183.26 84.61 183.25 Z M 83.11 183.20 L 82.07 183.23 C 81.18 183.25 80.48 184.00 80.50 184.89 C 80.53 185.78 81.27 186.49 82.16 186.46 L 83.20 186.43 C 84.09 186.41 84.80 185.66 84.77 184.77 C 84.75 183.88 84.00 183.18 83.11 183.20 Z M 81.56 183.28 L 81.29 183.38 C 80.43 183.69 79.98 184.64 80.29 185.50 C 80.60 186.36 81.54 186.81 82.41 186.50 L 82.67 186.41 C 83.54 186.10 83.99 185.15 83.68 184.29 C 83.37 183.43 82.42 182.98 81.56 183.28 Z M 81.38 186.56 L 81.83 186.69 C 82.72 186.95 83.66 186.44 83.92 185.54 C 84.18 184.65 83.66 183.71 82.77 183.45 L 82.32 183.32 C 81.42 183.06 80.49 183.58 80.23 184.47 C 79.97 185.37 80.48 186.30 81.38 186.56 Z M 82.00 186.75 L 82.93 186.92 C 83.86 187.08 84.74 186.46 84.91 185.53 C 85.07 184.60 84.45 183.72 83.52 183.55 L 82.59 183.39 C 81.67 183.23 80.78 183.85 80.62 184.78 C 80.45 185.70 81.08 186.59 82.00 186.75 Z M 82.99 186.94 L 84.25 187.12 C 85.20 187.25 86.07 186.59 86.20 185.64 C 86.33 184.70 85.67 183.83 84.72 183.70 L 83.46 183.53 C 82.52 183.40 81.65 184.06 81.52 185.00 C 81.39 185.94 82.05 186.81 82.99 186.94 Z M 84.29 187.14 L 85.62 187.29 C 86.58 187.40 87.44 186.71 87.55 185.75 C 87.66 184.80 86.97 183.94 86.01 183.83 L 84.68 183.68 C 83.73 183.57 82.87 184.26 82.76 185.21 C 82.65 186.17 83.34 187.03 84.29 187.14 Z M 85.65 187.31 L 86.67 187.40 C 87.63 187.49 88.49 186.78 88.58 185.82 C 88.67 184.85 87.96 184.00 87.00 183.91 L 85.98 183.81 C 85.02 183.72 84.16 184.43 84.07 185.39 C 83.98 186.36 84.69 187.21 85.65 187.31 Z M 86.69 187.41 L 87.72 187.50 C 88.69 187.57 89.54 186.85 89.62 185.88 C 89.70 184.91 88.98 184.06 88.00 183.98 L 86.98 183.90 C 86.01 183.82 85.15 184.54 85.08 185.51 C 85.00 186.48 85.72 187.33 86.69 187.41 Z M 87.74 187.51 L 88.76 187.58 C 89.74 187.64 90.58 186.91 90.65 185.93 C 90.72 184.96 89.98 184.11 89.01 184.04 L 87.98 183.97 C 87.01 183.90 86.16 184.64 86.09 185.62 C 86.03 186.59 86.76 187.44 87.74 187.51 Z M 88.78 187.59 L 89.78 187.64 C 90.76 187.70 91.60 186.95 91.66 185.97 C 91.72 184.99 90.97 184.15 89.99 184.09 L 88.99 184.03 C 88.01 183.97 87.17 184.72 87.11 185.70 C 87.05 186.69 87.80 187.53 88.78 187.59 Z M 89.80 187.65 L 90.75 187.70 C 91.74 187.75 92.58 186.99 92.63 186.00 C 92.67 185.01 91.91 184.18 90.93 184.13 L 89.97 184.08 C 88.98 184.03 88.15 184.79 88.10 185.78 C 88.05 186.77 88.81 187.61 89.80 187.65 Z M 90.77 187.71 L 91.82 187.75 C 92.81 187.78 93.65 187.01 93.68 186.02 C 93.72 185.03 92.95 184.20 91.96 184.16 L 90.91 184.12 C 89.91 184.08 89.08 184.86 89.04 185.85 C 89.01 186.84 89.78 187.67 90.77 187.71 Z M 91.85 187.76 L 92.91 187.78 C 93.90 187.81 94.73 187.02 94.75 186.02 C 94.78 185.03 93.99 184.20 93.00 184.18 L 91.93 184.15 C 90.94 184.13 90.11 184.91 90.09 185.91 C 90.06 186.90 90.85 187.73 91.85 187.76 Z M 92.93 187.79 L 93.91 187.80 C 94.91 187.81 95.73 187.01 95.75 186.01 C 95.76 185.02 94.96 184.20 93.96 184.18 L 92.98 184.17 C 91.98 184.16 91.16 184.96 91.14 185.96 C 91.13 186.95 91.93 187.77 92.93 187.79 Z M 93.93 187.81 L 94.86 187.81 C 95.86 187.81 96.68 187.00 96.68 186.00 C 96.69 185.00 95.88 184.19 94.88 184.18 L 93.95 184.18 C 92.94 184.17 92.13 184.98 92.12 185.98 C 92.12 186.99 92.93 187.80 93.93 187.81 Z M 94.87 187.82 L 95.80 187.82 C 96.81 187.82 97.62 187.00 97.62 186.00 C 97.62 184.99 96.81 184.18 95.80 184.18 L 94.87 184.18 C 93.87 184.18 93.05 184.99 93.05 185.99 C 93.05 187.00 93.86 187.81 94.87 187.82 Z M 95.80 187.82 L 96.79 187.82 C 97.80 187.82 98.62 187.00 98.62 186.00 C 98.62 184.99 97.80 184.17 96.79 184.17 L 95.80 184.17 C 94.79 184.17 93.98 184.99 93.98 186.00 C 93.98 187.00 94.79 187.82 95.80 187.82 Z M 96.79 187.83 L 97.79 187.83 C 98.80 187.83 99.62 187.01 99.62 186.00 C 99.62 184.98 98.80 184.16 97.79 184.16 L 96.79 184.16 C 95.78 184.16 94.96 184.98 94.96 186.00 C 94.96 187.01 95.78 187.83 96.79 187.83 Z M 97.79 187.83 L 98.79 187.83 C 99.81 187.83 100.63 187.01 100.63 186.00 C 100.63 184.98 99.81 184.16 98.79 184.16 L 97.79 184.16 C 96.77 184.16 95.95 184.98 95.95 186.00 C 95.95 187.01 96.77 187.83 97.79 187.83 Z M 98.79 187.84 L 99.79 187.84 C 100.81 187.84 101.63 187.01 101.63 186.00 C 101.63 184.98 100.81 184.15 99.79 184.15 L 98.79 184.15 C 97.77 184.15 96.94 184.98 96.94 186.00 C 96.94 187.01 97.77 187.84 98.79 187.84 Z M 99.79 187.85 L 100.76 187.84 C 101.79 187.84 102.61 187.01 102.61 185.99 C 102.61 184.97 101.78 184.14 100.75 184.14 L 99.78 184.15 C 98.76 184.15 97.93 184.98 97.94 186.00 C 97.94 187.02 98.77 187.85 99.79 187.85 Z M 100.78 187.85 L 101.78 187.84 C 102.80 187.82 103.62 186.98 103.61 185.96 C 103.60 184.93 102.76 184.11 101.73 184.13 L 100.74 184.14 C 99.71 184.15 98.89 184.99 98.90 186.02 C 98.92 187.04 99.76 187.86 100.78 187.85 Z M 101.80 187.84 L 102.82 187.81 C 103.85 187.78 104.66 186.93 104.63 185.90 C 104.60 184.87 103.74 184.06 102.72 184.09 L 101.70 184.12 C 100.67 184.15 99.86 185.01 99.89 186.03 C 99.92 187.06 100.78 187.87 101.80 187.84 Z M 102.86 187.82 L 103.89 187.77 C 104.92 187.71 105.71 186.84 105.66 185.81 C 105.61 184.78 104.73 183.99 103.70 184.04 L 102.68 184.09 C 101.65 184.14 100.85 185.02 100.90 186.05 C 100.96 187.07 101.83 187.87 102.86 187.82 Z M 103.93 187.77 L 104.89 187.70 C 105.92 187.62 106.70 186.72 106.62 185.69 C 106.54 184.66 105.65 183.89 104.62 183.97 L 103.66 184.04 C 102.63 184.11 101.85 185.01 101.93 186.04 C 102.01 187.07 102.90 187.84 103.93 187.77 Z M 104.93 187.70 L 105.91 187.60 C 106.94 187.51 107.69 186.59 107.60 185.56 C 107.50 184.53 106.59 183.78 105.56 183.87 L 104.58 183.96 C 103.55 184.06 102.79 184.98 102.89 186.01 C 102.99 187.04 103.90 187.79 104.93 187.70 Z M 105.94 187.60 L 106.94 187.49 C 107.97 187.38 108.71 186.45 108.60 185.42 C 108.48 184.39 107.56 183.65 106.52 183.76 L 105.53 183.87 C 104.49 183.99 103.75 184.91 103.87 185.95 C 103.98 186.98 104.91 187.72 105.94 187.60 Z M 106.96 187.49 L 107.98 187.37 C 109.02 187.24 109.75 186.30 109.62 185.27 C 109.49 184.24 108.55 183.51 107.52 183.63 L 106.50 183.76 C 105.47 183.89 104.74 184.83 104.86 185.86 C 104.99 186.89 105.93 187.62 106.96 187.49 Z M 108.00 187.37 L 109.00 187.24 C 110.03 187.10 110.76 186.15 110.62 185.12 C 110.48 184.08 109.53 183.36 108.50 183.50 L 107.50 183.63 C 106.47 183.77 105.75 184.72 105.88 185.75 C 106.02 186.78 106.97 187.51 108.00 187.37 Z M 109.01 187.24 L 109.97 187.10 C 111.00 186.95 111.72 186.00 111.58 184.97 C 111.43 183.93 110.47 183.22 109.44 183.36 L 108.49 183.50 C 107.45 183.64 106.73 184.60 106.88 185.63 C 107.03 186.66 107.98 187.38 109.01 187.24 Z M 109.98 187.10 L 110.96 186.96 C 111.99 186.81 112.70 185.85 112.55 184.81 C 112.40 183.78 111.44 183.07 110.41 183.22 L 109.43 183.36 C 108.40 183.51 107.68 184.47 107.84 185.51 C 107.99 186.54 108.95 187.25 109.98 187.10 Z M 110.97 186.96 L 111.96 186.81 C 113.00 186.65 113.71 185.69 113.55 184.65 C 113.39 183.62 112.43 182.91 111.39 183.07 L 110.40 183.22 C 109.36 183.37 108.65 184.34 108.81 185.37 C 108.97 186.41 109.93 187.12 110.97 186.96 Z M 111.97 186.81 L 112.98 186.65 C 114.02 186.49 114.73 185.52 114.57 184.49 C 114.40 183.45 113.44 182.74 112.40 182.91 L 111.39 183.06 C 110.35 183.22 109.64 184.19 109.80 185.23 C 109.96 186.26 110.93 186.97 111.97 186.81 Z M 112.99 186.65 L 114.00 186.50 C 115.03 186.33 115.74 185.36 115.57 184.32 C 115.41 183.29 114.44 182.58 113.40 182.74 L 112.40 182.90 C 111.36 183.07 110.65 184.04 110.82 185.08 C 110.98 186.11 111.95 186.82 112.99 186.65 Z M 114.00 186.50 L 114.92 186.35 C 115.96 186.18 116.67 185.21 116.50 184.17 C 116.34 183.14 115.36 182.43 114.33 182.60 L 113.40 182.74 C 112.36 182.91 111.66 183.88 111.82 184.92 C 111.99 185.96 112.96 186.66 114.00 186.50 Z M 114.92 186.35 L 115.87 186.20 C 116.91 186.03 117.62 185.06 117.45 184.02 C 117.28 182.98 116.31 182.28 115.27 182.44 L 114.32 182.59 C 113.29 182.76 112.58 183.74 112.75 184.77 C 112.91 185.81 113.89 186.52 114.92 186.35 Z M 115.87 186.20 L 116.84 186.05 C 117.88 185.88 118.59 184.91 118.43 183.87 C 118.26 182.83 117.28 182.12 116.25 182.29 L 115.27 182.44 C 114.23 182.61 113.53 183.58 113.69 184.62 C 113.86 185.66 114.83 186.37 115.87 186.20 Z M 116.84 186.05 L 117.85 185.89 C 118.89 185.73 119.60 184.75 119.43 183.71 C 119.27 182.67 118.29 181.96 117.25 182.12 L 116.25 182.28 C 115.21 182.45 114.50 183.42 114.66 184.46 C 114.83 185.50 115.80 186.21 116.84 186.05 Z M 117.84 185.89 L 118.88 185.73 C 119.92 185.57 120.64 184.59 120.47 183.55 C 120.31 182.51 119.34 181.80 118.30 181.96 L 117.25 182.12 C 116.21 182.29 115.50 183.26 115.66 184.30 C 115.83 185.34 116.80 186.05 117.84 185.89 Z M 118.88 185.73 L 119.91 185.57 C 120.96 185.41 121.67 184.44 121.51 183.40 C 121.35 182.35 120.38 181.64 119.33 181.80 L 118.30 181.96 C 117.26 182.12 116.54 183.09 116.70 184.14 C 116.86 185.18 117.84 185.89 118.88 185.73 Z M 119.91 185.58 L 120.85 185.43 C 121.89 185.27 122.61 184.30 122.45 183.26 C 122.29 182.21 121.32 181.50 120.28 181.65 L 119.34 181.80 C 118.29 181.95 117.58 182.93 117.73 183.97 C 117.89 185.02 118.87 185.73 119.91 185.58 Z M 120.85 185.43 L 121.81 185.29 C 122.86 185.13 123.58 184.16 123.42 183.11 C 123.26 182.07 122.29 181.35 121.24 181.51 L 120.28 181.65 C 119.23 181.81 118.52 182.78 118.67 183.83 C 118.83 184.87 119.80 185.59 120.85 185.43 Z M 121.81 185.29 L 122.80 185.14 C 123.84 184.99 124.56 184.01 124.41 182.97 C 124.25 181.92 123.28 181.20 122.23 181.36 L 121.24 181.51 C 120.20 181.66 119.48 182.64 119.64 183.68 C 119.79 184.73 120.77 185.45 121.81 185.29 Z M 122.80 185.14 L 123.80 184.99 C 124.85 184.84 125.57 183.86 125.41 182.82 C 125.25 181.77 124.28 181.05 123.23 181.21 L 122.23 181.36 C 121.18 181.51 120.46 182.49 120.62 183.53 C 120.78 184.58 121.75 185.30 122.80 185.14 Z M 123.80 184.99 L 124.82 184.84 C 125.86 184.68 126.58 183.71 126.42 182.66 C 126.27 181.62 125.29 180.90 124.24 181.05 L 123.23 181.21 C 122.18 181.36 121.46 182.34 121.62 183.39 C 121.78 184.43 122.76 185.15 123.80 184.99 Z M 124.82 184.84 L 125.84 184.69 C 126.88 184.53 127.60 183.55 127.44 182.50 C 127.28 181.46 126.31 180.74 125.26 180.90 L 124.24 181.05 C 123.19 181.21 122.47 182.19 122.63 183.24 C 122.79 184.28 123.77 185.00 124.82 184.84 Z M 125.84 184.69 L 126.86 184.53 C 127.90 184.37 128.62 183.39 128.46 182.34 C 128.29 181.29 127.31 180.58 126.27 180.74 L 125.25 180.90 C 124.21 181.06 123.49 182.04 123.65 183.09 C 123.82 184.13 124.80 184.85 125.84 184.69 Z M 126.86 184.53 L 127.84 184.38 C 128.89 184.21 129.60 183.23 129.44 182.18 C 129.27 181.13 128.29 180.42 127.24 180.58 L 126.26 180.74 C 125.22 180.90 124.50 181.89 124.67 182.93 C 124.83 183.98 125.81 184.70 126.86 184.53 Z M 127.85 184.38 L 128.83 184.22 C 129.88 184.05 130.59 183.06 130.42 182.02 C 130.25 180.97 129.27 180.26 128.22 180.43 L 127.24 180.58 C 126.19 180.75 125.48 181.74 125.65 182.78 C 125.82 183.83 126.80 184.54 127.85 184.38 Z M 128.83 184.22 L 129.82 184.06 C 130.86 183.89 131.57 182.90 131.40 181.85 C 131.23 180.81 130.25 180.10 129.20 180.27 L 128.22 180.43 C 127.17 180.60 126.46 181.58 126.63 182.63 C 126.80 183.68 127.79 184.39 128.83 184.22 Z M 129.82 184.06 L 130.80 183.90 C 131.85 183.72 132.56 182.73 132.39 181.69 C 132.21 180.64 131.23 179.93 130.18 180.10 L 129.19 180.27 C 128.15 180.44 127.44 181.43 127.61 182.48 C 127.78 183.52 128.77 184.23 129.82 184.06 Z M 130.81 183.90 L 131.80 183.73 C 132.84 183.56 133.55 182.56 133.37 181.52 C 133.20 180.47 132.21 179.76 131.16 179.94 L 130.17 180.10 C 129.13 180.28 128.42 181.27 128.59 182.32 C 128.77 183.36 129.76 184.07 130.81 183.90 Z M 131.80 183.73 L 132.79 183.56 C 133.84 183.39 134.54 182.39 134.37 181.35 C 134.19 180.30 133.20 179.59 132.15 179.77 L 131.16 179.94 C 130.11 180.11 129.40 181.11 129.58 182.15 C 129.76 183.20 130.75 183.91 131.80 183.73 Z M 132.79 183.56 L 133.79 183.39 C 134.84 183.22 135.54 182.22 135.36 181.17 C 135.19 180.13 134.19 179.42 133.14 179.60 L 132.15 179.77 C 131.10 179.95 130.39 180.94 130.57 181.99 C 130.75 183.04 131.75 183.74 132.79 183.56 Z M 133.79 183.39 L 134.77 183.23 C 135.82 183.05 136.52 182.05 136.34 181.00 C 136.16 179.96 135.16 179.25 134.12 179.43 L 133.14 179.60 C 132.09 179.78 131.39 180.77 131.57 181.82 C 131.75 182.87 132.74 183.57 133.79 183.39 Z M 134.77 183.23 L 135.75 183.06 C 136.79 182.88 137.50 181.88 137.32 180.83 C 137.14 179.79 136.14 179.08 135.09 179.26 L 134.12 179.43 C 133.07 179.61 132.36 180.61 132.54 181.66 C 132.72 182.70 133.72 183.41 134.77 183.23 Z M 135.75 183.06 L 136.73 182.89 C 137.78 182.71 138.48 181.71 138.30 180.66 C 138.12 179.62 137.12 178.91 136.07 179.09 L 135.09 179.26 C 134.04 179.44 133.34 180.44 133.52 181.49 C 133.70 182.54 134.70 183.24 135.75 183.06 Z M 136.73 182.89 L 137.71 182.72 C 138.76 182.54 139.47 181.54 139.29 180.49 C 139.11 179.45 138.11 178.74 137.06 178.92 L 136.07 179.09 C 135.03 179.27 134.32 180.27 134.50 181.32 C 134.68 182.37 135.68 183.07 136.73 182.89 Z M 137.71 182.72 L 138.70 182.55 C 139.75 182.37 140.46 181.37 140.28 180.33 C 140.10 179.28 139.10 178.57 138.05 178.75 L 137.06 178.92 C 136.01 179.10 135.31 180.10 135.49 181.15 C 135.67 182.20 136.66 182.90 137.71 182.72 Z M 138.70 182.55 L 139.69 182.38 C 140.74 182.20 141.45 181.21 141.27 180.16 C 141.09 179.11 140.09 178.40 139.04 178.58 L 138.05 178.75 C 137.00 178.93 136.30 179.93 136.48 180.98 C 136.66 182.03 137.65 182.73 138.70 182.55 Z M 139.69 182.38 L 140.68 182.22 C 141.73 182.04 142.44 181.04 142.26 179.99 C 142.09 178.94 141.09 178.24 140.04 178.41 L 139.05 178.58 C 138.00 178.76 137.29 179.75 137.47 180.80 C 137.65 181.85 138.64 182.56 139.69 182.38 Z M 140.68 182.22 L 141.67 182.05 C 142.72 181.88 143.43 180.88 143.26 179.83 C 143.08 178.78 142.09 178.07 141.04 178.25 L 140.04 178.41 C 138.99 178.59 138.28 179.58 138.46 180.63 C 138.64 181.68 139.63 182.39 140.68 182.22 Z M 141.67 182.05 L 142.65 181.89 C 143.70 181.72 144.42 180.72 144.24 179.67 C 144.07 178.62 143.08 177.91 142.03 178.08 L 141.04 178.24 C 139.99 178.42 139.28 179.41 139.45 180.46 C 139.62 181.51 140.62 182.23 141.67 182.05 Z M 142.65 181.89 L 143.63 181.73 C 144.69 181.56 145.40 180.57 145.23 179.52 C 145.06 178.46 144.07 177.75 143.02 177.92 L 142.03 178.08 C 140.98 178.25 140.26 179.24 140.43 180.30 C 140.60 181.35 141.60 182.06 142.65 181.89 Z M 143.63 181.73 L 144.62 181.58 C 145.67 181.41 146.39 180.42 146.22 179.36 C 146.05 178.31 145.06 177.59 144.01 177.76 L 143.02 177.92 C 141.97 178.09 141.25 179.08 141.42 180.13 C 141.59 181.18 142.58 181.90 143.63 181.73 Z M 144.61 181.58 L 145.60 181.42 C 146.65 181.26 147.37 180.27 147.21 179.21 C 147.04 178.16 146.05 177.44 145.00 177.60 L 144.01 177.76 C 142.96 177.93 142.24 178.92 142.40 179.97 C 142.57 181.02 143.56 181.74 144.61 181.58 Z M 145.59 181.42 L 146.58 181.27 C 147.64 181.11 148.36 180.12 148.20 179.06 C 148.03 178.01 147.04 177.29 145.99 177.45 L 145.00 177.60 C 143.95 177.77 143.22 178.75 143.39 179.81 C 143.55 180.86 144.54 181.59 145.59 181.42 Z M 146.58 181.27 L 147.57 181.12 C 148.62 180.96 149.35 179.97 149.19 178.92 C 149.03 177.86 148.04 177.14 146.98 177.30 L 145.99 177.45 C 144.94 177.61 144.21 178.60 144.37 179.65 C 144.54 180.71 145.52 181.43 146.58 181.27 Z M 147.56 181.12 L 148.56 180.97 C 149.61 180.81 150.34 179.83 150.18 178.77 C 150.02 177.72 149.04 176.99 147.98 177.15 L 146.99 177.30 C 145.93 177.45 145.20 178.44 145.36 179.50 C 145.52 180.55 146.51 181.28 147.56 181.12 Z M 148.55 180.97 L 149.54 180.83 C 150.60 180.67 151.33 179.69 151.17 178.63 C 151.02 177.57 150.03 176.84 148.98 177.00 L 147.99 177.14 C 146.93 177.30 146.20 178.28 146.35 179.34 C 146.51 180.40 147.49 181.13 148.55 180.97 Z M 149.54 180.83 L 150.53 180.69 C 151.58 180.53 152.32 179.55 152.17 178.49 C 152.01 177.43 151.03 176.70 149.97 176.85 L 148.98 177.00 C 147.92 177.15 147.19 178.13 147.34 179.19 C 147.49 180.25 148.48 180.98 149.54 180.83 Z M 150.52 180.69 L 151.51 180.55 C 152.57 180.40 153.31 179.42 153.16 178.36 C 153.01 177.30 152.03 176.56 150.97 176.71 L 149.97 176.85 C 148.91 177.00 148.18 177.98 148.33 179.04 C 148.48 180.10 149.46 180.84 150.52 180.69 Z M 151.51 180.55 L 152.50 180.41 C 153.56 180.26 154.30 179.28 154.15 178.22 C 154.00 177.16 153.02 176.42 151.96 176.57 L 150.97 176.71 C 149.91 176.86 149.17 177.84 149.32 178.90 C 149.47 179.96 150.45 180.70 151.51 180.55 Z M 152.50 180.41 L 153.49 180.28 C 154.55 180.13 155.29 179.15 155.15 178.09 C 155.00 177.03 154.02 176.28 152.96 176.43 L 151.97 176.57 C 150.90 176.71 150.16 177.69 150.31 178.76 C 150.45 179.82 151.43 180.56 152.50 180.41 Z M 153.48 180.28 L 154.48 180.14 C 155.54 180.00 156.28 179.02 156.14 177.96 C 155.99 176.89 155.02 176.15 153.95 176.29 L 152.96 176.43 C 151.90 176.57 151.15 177.55 151.30 178.61 C 151.44 179.68 152.42 180.42 153.48 180.28 Z M 154.47 180.15 L 155.46 180.01 C 156.53 179.87 157.27 178.89 157.13 177.83 C 156.99 176.76 156.01 176.02 154.95 176.16 L 153.96 176.29 C 152.89 176.43 152.15 177.41 152.29 178.48 C 152.43 179.54 153.41 180.29 154.47 180.15 Z M 155.46 180.01 L 156.45 179.88 C 157.51 179.74 158.26 178.77 158.12 177.70 C 157.98 176.64 157.00 175.89 155.94 176.03 L 154.95 176.16 C 153.89 176.30 153.14 177.27 153.28 178.34 C 153.42 179.41 154.39 180.16 155.46 180.01 Z M 156.44 179.89 L 157.42 179.76 C 158.49 179.62 159.24 178.65 159.10 177.58 C 158.96 176.51 157.99 175.76 156.92 175.90 L 155.94 176.03 C 154.88 176.16 154.12 177.14 154.26 178.21 C 154.40 179.27 155.38 180.02 156.44 179.89 Z M 157.42 179.76 L 158.40 179.64 C 159.46 179.50 160.22 178.53 160.08 177.46 C 159.95 176.39 158.97 175.64 157.90 175.77 L 156.93 175.90 C 155.86 176.03 155.10 177.01 155.24 178.08 C 155.38 179.14 156.35 179.90 157.42 179.76 Z M 158.39 179.64 L 159.37 179.52 C 160.44 179.38 161.20 178.41 161.06 177.34 C 160.93 176.27 159.96 175.52 158.89 175.65 L 157.91 175.77 C 156.84 175.90 156.08 176.88 156.22 177.95 C 156.35 179.01 157.32 179.77 158.39 179.64 Z M 159.37 179.52 L 160.35 179.40 C 161.42 179.27 162.18 178.30 162.05 177.23 C 161.92 176.16 160.95 175.40 159.88 175.53 L 158.89 175.65 C 157.82 175.78 157.06 176.75 157.19 177.82 C 157.32 178.89 158.30 179.65 159.37 179.52 Z M 160.34 179.40 L 161.34 179.28 C 162.41 179.16 163.17 178.18 163.04 177.11 C 162.92 176.04 161.95 175.28 160.87 175.41 L 159.88 175.52 C 158.81 175.65 158.05 176.62 158.18 177.69 C 158.30 178.76 159.27 179.53 160.34 179.40 Z M 161.33 179.28 L 162.33 179.17 C 163.40 179.05 164.17 178.08 164.05 177.00 C 163.92 175.93 162.95 175.16 161.88 175.29 L 160.88 175.40 C 159.81 175.53 159.04 176.50 159.17 177.57 C 159.29 178.64 160.26 179.41 161.33 179.28 Z M 162.32 179.17 L 163.34 179.06 C 164.41 178.94 165.18 177.97 165.06 176.90 C 164.94 175.82 163.97 175.05 162.90 175.17 L 161.89 175.29 C 160.81 175.41 160.04 176.37 160.16 177.45 C 160.28 178.52 161.25 179.29 162.32 179.17 Z M 163.33 179.06 L 164.35 178.95 C 165.42 178.83 166.20 177.87 166.08 176.79 C 165.96 175.72 165.00 174.94 163.93 175.06 L 162.91 175.17 C 161.83 175.29 161.06 176.25 161.17 177.33 C 161.29 178.40 162.25 179.18 163.33 179.06 Z M 164.34 178.95 L 165.35 178.84 C 166.43 178.73 167.21 177.77 167.09 176.69 C 166.98 175.62 166.02 174.84 164.94 174.95 L 163.93 175.06 C 162.86 175.17 162.08 176.13 162.19 177.21 C 162.30 178.28 163.27 179.06 164.34 178.95 Z M 165.34 178.85 L 166.36 178.74 C 167.44 178.64 168.22 177.68 168.11 176.60 C 168.00 175.52 167.04 174.74 165.97 174.85 L 164.95 174.95 C 163.87 175.06 163.09 176.02 163.20 177.10 C 163.31 178.17 164.27 178.96 165.34 178.85 Z M 166.35 178.75 L 167.37 178.65 C 168.45 178.54 169.24 177.59 169.13 176.51 C 169.03 175.43 168.07 174.64 166.99 174.75 L 165.98 174.85 C 164.90 174.95 164.11 175.91 164.21 176.98 C 164.32 178.06 165.28 178.85 166.35 178.75 Z M 167.36 178.65 L 168.38 178.56 C 169.45 178.46 170.25 177.50 170.15 176.43 C 170.05 175.35 169.10 174.55 168.02 174.65 L 167.00 174.75 C 165.93 174.84 165.13 175.80 165.23 176.88 C 165.33 177.95 166.28 178.75 167.36 178.65 Z M 168.37 178.56 L 169.37 178.47 C 170.45 178.38 171.25 177.43 171.16 176.35 C 171.06 175.27 170.11 174.47 169.03 174.56 L 168.03 174.65 C 166.95 174.74 166.15 175.69 166.24 176.77 C 166.34 177.85 167.29 178.65 168.37 178.56 Z M 169.36 178.47 L 170.35 178.39 C 171.43 178.31 172.23 177.36 172.14 176.28 C 172.06 175.20 171.11 174.40 170.03 174.48 L 169.04 174.56 C 167.96 174.65 167.16 175.59 167.25 176.67 C 167.33 177.75 168.28 178.56 169.36 178.47 Z M 170.33 178.40 L 171.30 178.33 C 172.38 178.25 173.19 177.31 173.11 176.22 C 173.03 175.14 172.09 174.33 171.01 174.41 L 170.05 174.48 C 168.96 174.56 168.15 175.50 168.23 176.58 C 168.31 177.66 169.25 178.48 170.33 178.40 Z M 171.28 178.33 L 172.25 178.26 C 173.33 178.19 174.15 177.26 174.08 176.18 C 174.01 175.09 173.08 174.27 172.00 174.34 L 171.03 174.41 C 169.94 174.48 169.12 175.41 169.19 176.50 C 169.27 177.58 170.20 178.40 171.28 178.33 Z M 172.23 178.27 L 173.32 178.21 C 174.40 178.15 175.23 177.22 175.17 176.14 C 175.11 175.05 174.18 174.22 173.10 174.28 L 172.02 174.34 C 170.93 174.40 170.10 175.33 170.16 176.41 C 170.22 177.50 171.15 178.33 172.23 178.27 Z M 173.30 178.21 L 174.34 178.16 C 175.43 178.11 176.26 177.19 176.21 176.11 C 176.17 175.02 175.25 174.19 174.16 174.24 L 173.12 174.28 C 172.04 174.33 171.20 175.25 171.25 176.33 C 171.30 177.42 172.21 178.26 173.30 178.21 Z M 174.32 178.16 L 175.33 178.12 C 176.42 178.08 177.26 177.17 177.22 176.09 C 177.18 175.01 176.27 174.16 175.19 174.20 L 174.18 174.23 C 173.10 174.27 172.25 175.18 172.29 176.27 C 172.33 177.35 173.24 178.20 174.32 178.16 Z M 175.32 178.12 L 176.29 178.10 C 177.38 178.07 178.23 177.16 178.20 176.08 C 178.17 175.00 177.27 174.14 176.19 174.17 L 175.21 174.20 C 174.12 174.23 173.27 175.13 173.30 176.22 C 173.33 177.30 174.23 178.15 175.32 178.12 Z M 176.28 178.10 L 177.24 178.08 C 178.32 178.06 179.18 177.16 179.16 176.07 C 179.14 174.99 178.24 174.13 177.16 174.15 L 176.20 174.17 C 175.12 174.19 174.26 175.09 174.28 176.17 C 174.30 177.26 175.20 178.12 176.28 178.10 Z M 177.22 178.08 L 178.16 178.06 C 179.25 178.05 180.11 177.16 180.10 176.07 C 180.08 174.99 179.19 174.12 178.11 174.14 L 177.17 174.15 C 176.08 174.17 175.22 175.06 175.23 176.14 C 175.25 177.23 176.14 178.09 177.22 178.08 Z M 178.15 178.06 L 179.14 178.05 C 180.23 178.04 181.10 177.15 181.09 176.07 C 181.07 174.99 180.19 174.12 179.10 174.13 L 178.11 174.14 C 177.03 174.15 176.16 175.04 176.17 176.12 C 176.18 177.21 177.07 178.07 178.15 178.06 Z M 179.14 178.05 L 180.17 178.04 C 181.25 178.04 182.12 177.15 182.12 176.07 C 182.11 174.99 181.22 174.11 180.14 174.12 L 179.11 174.13 C 178.02 174.14 177.15 175.02 177.16 176.11 C 177.17 177.19 178.05 178.06 179.14 178.05 Z M 180.16 178.04 L 181.18 178.04 C 182.26 178.03 183.14 177.15 183.13 176.07 C 183.13 174.99 182.25 174.11 181.16 174.12 L 180.15 174.12 C 179.06 174.13 178.19 175.01 178.19 176.09 C 178.20 177.17 179.08 178.05 180.16 178.04 Z M 181.18 178.04 L 182.18 178.03 C 183.26 178.03 184.14 177.15 184.13 176.07 C 184.13 174.99 183.25 174.11 182.17 174.12 L 181.17 174.12 C 180.09 174.12 179.21 175.00 179.21 176.08 C 179.22 177.17 180.10 178.04 181.18 178.04 Z M 182.18 178.03 L 183.16 178.03 C 184.24 178.03 185.12 177.15 185.11 176.07 C 185.11 174.99 184.24 174.12 183.15 174.12 L 182.17 174.12 C 181.09 174.12 180.21 175.00 180.22 176.08 C 180.22 177.16 181.09 178.03 182.18 178.03 Z M 183.16 178.03 L 184.12 178.03 C 185.20 178.03 186.08 177.15 186.08 176.07 C 186.07 174.99 185.20 174.12 184.12 174.12 L 183.16 174.12 C 182.08 174.12 181.20 174.99 181.20 176.07 C 181.20 177.16 182.08 178.03 183.16 178.03 Z M 184.12 178.03 L 185.15 178.03 C 186.23 178.03 187.10 177.15 187.10 176.07 C 187.10 174.99 186.23 174.12 185.15 174.12 L 184.12 174.12 C 183.04 174.12 182.16 174.99 182.16 176.07 C 182.16 177.15 183.04 178.03 184.12 178.03 Z M 185.15 178.03 L 186.20 178.03 C 187.28 178.03 188.15 177.15 188.15 176.08 C 188.15 175.00 187.28 174.12 186.20 174.12 L 185.15 174.12 C 184.07 174.12 183.20 174.99 183.20 176.07 C 183.20 177.15 184.07 178.03 185.15 178.03 Z M 186.20 178.02 L 187.21 178.03 C 188.29 178.03 189.16 177.16 189.17 176.08 C 189.17 175.01 188.30 174.13 187.22 174.13 L 186.20 174.13 C 185.13 174.12 184.25 174.99 184.25 176.07 C 184.25 177.15 185.12 178.02 186.20 178.02 Z M 187.21 178.02 L 188.19 178.03 C 189.26 178.03 190.14 177.17 190.14 176.09 C 190.15 175.02 189.28 174.14 188.21 174.14 L 187.23 174.13 C 186.15 174.13 185.28 174.99 185.27 176.07 C 185.26 177.14 186.13 178.02 187.21 178.02 Z M 188.18 178.02 L 189.12 178.03 C 190.20 178.04 191.07 177.18 191.08 176.11 C 191.09 175.03 190.23 174.16 189.16 174.15 L 188.21 174.14 C 187.14 174.13 186.26 174.99 186.25 176.06 C 186.24 177.14 187.11 178.02 188.18 178.02 Z M 189.11 178.03 L 190.12 178.04 C 191.19 178.06 192.08 177.21 192.09 176.13 C 192.11 175.06 191.25 174.18 190.18 174.17 L 189.17 174.15 C 188.10 174.14 187.22 174.99 187.20 176.06 C 187.19 177.13 188.04 178.01 189.11 178.03 Z M 190.10 178.04 L 191.16 178.07 C 192.23 178.09 193.11 177.25 193.14 176.18 C 193.17 175.11 192.32 174.23 191.26 174.20 L 190.20 174.17 C 189.13 174.14 188.25 174.99 188.22 176.06 C 188.19 177.12 189.04 178.01 190.10 178.04 Z M 191.12 178.06 L 192.12 178.10 C 193.19 178.15 194.09 177.32 194.13 176.26 C 194.18 175.20 193.35 174.30 192.29 174.25 L 191.29 174.21 C 190.23 174.16 189.33 174.99 189.28 176.05 C 189.23 177.11 190.06 178.01 191.12 178.06 Z M 192.07 178.09 L 193.02 178.16 C 194.08 178.23 195.00 177.43 195.07 176.37 C 195.14 175.31 194.34 174.40 193.28 174.32 L 192.34 174.26 C 191.28 174.19 190.36 174.99 190.29 176.04 C 190.21 177.10 191.01 178.02 192.07 178.09 Z M 192.95 178.15 L 193.91 178.25 C 194.97 178.36 195.91 177.59 196.02 176.54 C 196.13 175.49 195.36 174.54 194.31 174.43 L 193.35 174.33 C 192.30 174.23 191.36 174.99 191.25 176.04 C 191.14 177.10 191.90 178.04 192.95 178.15 Z M 193.83 178.23 L 194.84 178.38 C 195.89 178.53 196.86 177.81 197.01 176.77 C 197.16 175.72 196.44 174.76 195.40 174.60 L 194.39 174.45 C 193.35 174.30 192.38 175.02 192.22 176.06 C 192.07 177.10 192.79 178.07 193.83 178.23 Z M 194.77 178.35 L 195.74 178.54 C 196.77 178.73 197.76 178.06 197.96 177.03 C 198.15 176.00 197.48 175.00 196.45 174.81 L 195.47 174.62 C 194.44 174.43 193.45 175.11 193.26 176.14 C 193.06 177.17 193.74 178.16 194.77 178.35 Z M 195.68 178.52 L 196.63 178.73 C 197.65 178.95 198.66 178.31 198.89 177.30 C 199.11 176.28 198.47 175.27 197.45 175.04 L 196.50 174.83 C 195.49 174.60 194.48 175.24 194.25 176.26 C 194.02 177.28 194.66 178.29 195.68 178.52 Z M 196.59 178.71 L 197.53 178.94 C 198.54 179.19 199.55 178.58 199.80 177.57 C 200.06 176.57 199.44 175.55 198.44 175.30 L 197.50 175.06 C 196.49 174.81 195.47 175.43 195.22 176.43 C 194.97 177.44 195.58 178.45 196.59 178.71 Z M 197.49 178.91 L 198.43 179.18 C 199.42 179.45 200.45 178.87 200.73 177.88 C 201.00 176.89 200.42 175.87 199.43 175.59 L 198.48 175.33 C 197.49 175.05 196.47 175.63 196.19 176.62 C 195.92 177.61 196.50 178.64 197.49 178.91 Z M 198.38 179.15 L 199.35 179.45 C 200.32 179.75 201.36 179.21 201.66 178.24 C 201.97 177.27 201.42 176.23 200.45 175.92 L 199.49 175.62 C 198.51 175.32 197.48 175.86 197.17 176.83 C 196.87 177.80 197.41 178.84 198.38 179.15 Z M 199.29 179.41 L 200.23 179.74 C 201.18 180.08 202.22 179.58 202.56 178.62 C 202.90 177.67 202.39 176.62 201.44 176.29 L 200.51 175.96 C 199.55 175.62 198.51 176.13 198.17 177.08 C 197.84 178.03 198.34 179.08 199.29 179.41 Z M 200.17 179.71 L 201.03 180.04 C 201.97 180.40 203.02 179.94 203.38 179.01 C 203.75 178.07 203.28 177.02 202.35 176.66 L 201.49 176.32 C 200.56 175.96 199.50 176.42 199.14 177.36 C 198.78 178.29 199.24 179.34 200.17 179.71 Z M 200.99 180.01 L 201.88 180.39 C 202.80 180.77 203.86 180.35 204.24 179.43 C 204.63 178.52 204.21 177.46 203.29 177.07 L 202.39 176.69 C 201.48 176.30 200.42 176.73 200.03 177.64 C 199.64 178.56 200.07 179.62 200.99 180.01 Z M 201.84 180.35 L 202.79 180.79 C 203.69 181.20 204.75 180.80 205.16 179.91 C 205.57 179.01 205.17 177.95 204.28 177.54 L 203.33 177.11 C 202.43 176.70 201.37 177.09 200.96 177.99 C 200.55 178.88 200.95 179.94 201.84 180.35 Z M 202.76 180.75 L 203.73 181.23 C 204.61 181.66 205.67 181.30 206.10 180.42 C 206.53 179.54 206.17 178.48 205.29 178.05 L 204.31 177.58 C 203.43 177.15 202.38 177.51 201.95 178.39 C 201.52 179.26 201.88 180.32 202.76 180.75 Z M 203.71 181.19 L 204.54 181.62 C 205.40 182.06 206.45 181.72 206.89 180.86 C 207.33 180.00 206.99 178.95 206.14 178.51 L 205.31 178.09 C 204.45 177.65 203.40 177.99 202.96 178.84 C 202.52 179.70 202.86 180.75 203.71 181.19 Z M 204.53 181.58 L 205.40 182.04 C 206.24 182.48 207.28 182.16 207.72 181.32 C 208.16 180.49 207.84 179.45 207.00 179.00 L 206.14 178.55 C 205.30 178.10 204.26 178.42 203.82 179.26 C 203.38 180.10 203.70 181.14 204.53 181.58 Z M 205.40 182.01 L 206.29 182.49 C 207.11 182.93 208.13 182.63 208.58 181.81 C 209.02 180.98 208.71 179.96 207.89 179.51 L 207.00 179.03 C 206.18 178.59 205.16 178.90 204.71 179.72 C 204.27 180.54 204.58 181.57 205.40 182.01 Z M 206.29 182.46 L 207.20 182.96 C 208.00 183.40 209.02 183.10 209.46 182.30 C 209.90 181.49 209.60 180.48 208.80 180.04 L 207.89 179.54 C 207.08 179.10 206.07 179.40 205.63 180.20 C 205.19 181.01 205.49 182.02 206.29 182.46 Z M 207.21 182.93 L 208.13 183.44 C 208.92 183.87 209.91 183.59 210.35 182.80 C 210.78 182.00 210.50 181.01 209.71 180.57 L 208.79 180.07 C 208.00 179.63 207.00 179.92 206.57 180.71 C 206.13 181.50 206.42 182.49 207.21 182.93 Z M 208.13 183.42 L 208.41 183.58 C 209.19 184.01 210.18 183.72 210.61 182.94 C 211.04 182.16 210.76 181.18 209.98 180.74 L 209.70 180.59 C 208.92 180.16 207.93 180.44 207.50 181.22 C 207.07 182.00 207.35 182.99 208.13 183.42 Z"
      fill="black"
      fill-rule="nonzero" /></svg>